<?xml version="1.0" encoding="UTF-8"?>
<svg xmlns="http://www.w3.org/2000/svg" width="509.87mm" height="800.54mm" viewBox="0 0 1445.29 2269.25">
  <defs>
    <style>
      .cls-1 {
        fill: #d7ebff;
      }

      .cls-2 {
        fill: #262626;
      }

      .cls-3 {
        fill: #58a6ff;
      }

      .cls-4 {
        fill: #fff;
      }

      .cls-5 {
        fill: #aed7ff;
      }

      .cls-6 {
        fill: #4c4c4c;
      }

      .cls-7 {
        fill: #3f3f3f;
      }

      .cls-8 {
        fill: #83c1ff;
      }

      .cls-9 {
        fill: #333;
      }

      .cls-10 {
        fill: #d29922;
      }

      .cls-11 {
        fill: #595959;
      }
    </style>
  </defs>
  <g id="Background">
    <rect class="cls-11" x="0" width="1445.29" height="455.08"/>
    <rect class="cls-6" y="455.08" width="1445.29" height="453.54"/>
    <rect class="cls-7" x="0" y="908.62" width="1445.29" height="453.54"/>
    <rect class="cls-9" x="0" y="1362.16" width="1445.29" height="453.54"/>
    <rect class="cls-2" x="0" y="1815.71" width="1445.29" height="453.54"/>
  </g>
  <g id="Konrad_BLE" data-name="Konrad BLE">
    <g id="Bottom_Kopie_3" data-name="Bottom Kopie 3">
      <g id="Acrylcase">
        <path class="cls-4" d="M1070.23,185.7l-51.04-9.01,6.59-37.38c.19-1.08-.53-2.11-1.61-2.3l-13.26-2.34v-63.22c0-1.1-.89-1.98-1.98-1.98h-113.41v-9.2c0-1.1-.89-1.98-1.98-1.98h-86.81c-1.1,0-1.98,.89-1.98,1.98v9.21h-101.33v113.79h-58.06V69.48h-31.11c-1.1,0-1.98,.89-1.98,1.98V252.92l14.74,14.74h11.85v17.33h25.77v25.94h-37.61l-14.74,15.8v46.45c0,1.1,.89,1.98,1.98,1.98h47.9l9.3,16.14c.55,.95,1.77,1.28,2.72,.72l31.29-18.18,.57-.29,.34-.25,.04-.02,.19-.15c1.28-.81,2.5-1.55,3.72-2.27l.22-.13c.18-.11,.37-.22,.62-.36l.51-.3c14.49-8.37,29.98-14.89,44.82-18.86,16.02-4.29,32.66-6.59,48.07-6.65h43.41c1.1,0,1.98-.89,1.98-1.98v-37.02h29.11l25.02,1.75-1.42,8.03c-.19,1.08,.53,2.11,1.61,2.3l85.32,15.04c1.08,.19,2.11-.53,2.3-1.61l2.1-11.91,51.13,9.02c1.08,.19,2.11-.53,2.3-1.61l24.44-138.56c.19-1.08-.53-2.11-1.61-2.3h-.03Zm-449.04,183.6c-1.72,0-3.12-1.4-3.12-3.12s1.4-3.12,3.12-3.12,3.12,1.4,3.12,3.12-1.4,3.12-3.12,3.12Zm14.05-48.77c-1.64,0-2.98-1.33-2.98-2.98s1.33-2.98,2.98-2.98,2.98,1.33,2.98,2.98-1.33,2.98-2.98,2.98Zm0-231.11c1.64,0,2.98,1.33,2.98,2.98s-1.33,2.98-2.98,2.98-2.98-1.33-2.98-2.98,1.33-2.98,2.98-2.98Zm-15.89,160.91c-1.72,0-3.12-1.4-3.12-3.12s1.4-3.12,3.12-3.12,3.12,1.4,3.12,3.12-1.4,3.12-3.12,3.12Zm0-103.29c-1.72,0-3.12-1.4-3.12-3.12s1.4-3.12,3.12-3.12,3.12,1.4,3.12,3.12-1.4,3.12-3.12,3.12Zm1.83-65.56c-1.72,0-3.12-1.4-3.12-3.12s1.4-3.12,3.12-3.12,3.12,1.4,3.12,3.12-1.4,3.12-3.12,3.12Zm47.95,157.79h-42.52v-21.32h42.52v21.32Zm141.34-167.1c1.72,0,3.12,1.4,3.12,3.12s-1.4,3.12-3.12,3.12-3.12-1.4-3.12-3.12,1.4-3.12,3.12-3.12Zm.71,23.34c-1.64,0-2.98-1.33-2.98-2.98s1.33-2.98,2.98-2.98,2.98,1.33,2.98,2.98-1.33,2.98-2.98,2.98Zm29.92,243.27c-1.72,0-3.12-1.4-3.12-3.12s1.4-3.12,3.12-3.12,3.12,1.4,3.12,3.12-1.4,3.12-3.12,3.12Zm32.19-151.74c-1.64,0-2.98-1.33-2.98-2.98s1.33-2.98,2.98-2.98,2.98,1.33,2.98,2.98-1.33,2.98-2.98,2.98Zm13.28-111.75c0-1.72,1.4-3.12,3.12-3.12s3.12,1.4,3.12,3.12-1.4,3.12-3.12,3.12-3.12-1.4-3.12-3.12Zm6.13,20.1c-1.64,0-2.98-1.33-2.98-2.98s1.33-2.98,2.98-2.98,2.98,1.33,2.98,2.98-1.33,2.98-2.98,2.98Zm19.94,217.82c-1.72,0-3.12-1.4-3.12-3.12s1.4-3.12,3.12-3.12,3.12,1.4,3.12,3.12-1.4,3.12-3.12,3.12Zm1.06-28.6c-1.64,0-2.98-1.33-2.98-2.98s1.33-2.98,2.98-2.98,2.98,1.33,2.98,2.98-1.33,2.98-2.98,2.98Zm88.31-203.13c-1.72,0-3.12-1.4-3.12-3.12s1.4-3.12,3.12-3.12,3.12,1.4,3.12,3.12-1.4,3.12-3.12,3.12Zm37.86,239.86c-1.72,0-3.12-1.4-3.12-3.12s1.4-3.12,3.12-3.12,3.12,1.4,3.12,3.12-1.4,3.12-3.12,3.12Z"/>
      </g>
      <g id="Acrylcase-2">
        <path class="cls-4" d="M54.34,185.71h-.03c-1.08,.19-1.8,1.22-1.61,2.3l24.44,138.56c.19,1.08,1.22,1.8,2.3,1.61l51.13-9.02,2.1,11.91c.19,1.08,1.22,1.8,2.3,1.61l85.32-15.04c1.08-.19,1.8-1.22,1.61-2.3l-1.42-8.03,25.02-1.75h29.11v37.02c0,1.09,.88,1.98,1.98,1.98h43.41c15.41,.06,32.05,2.36,48.07,6.65,14.84,3.97,30.33,10.49,44.82,18.86l.51,.3c.25,.14,.44,.25,.62,.36l.22,.13c1.22,.72,2.44,1.46,3.72,2.27l.19,.15,.04,.02,.34,.25,.57,.29,31.29,18.18c.95,.56,2.17,.23,2.72-.72l9.3-16.14h47.9c1.09,0,1.98-.88,1.98-1.98v-46.45l-14.74-15.8h-37.61v-25.94h25.77v-17.33h11.85l14.74-14.74V71.46c0-1.09-.88-1.98-1.98-1.98h-31.11v113.79h-58.06V69.48h-101.33v-9.21c0-1.09-.88-1.98-1.98-1.98h-86.81c-1.09,0-1.98,.88-1.98,1.98v9.2H115.64c-1.09,0-1.98,.88-1.98,1.98v63.22l-13.26,2.34c-1.08,.19-1.8,1.22-1.61,2.3l6.59,37.38-51.04,9.01h0Zm445.92,180.51c0-1.72,1.4-3.12,3.12-3.12s3.12,1.4,3.12,3.12-1.4,3.12-3.12,3.12-3.12-1.4-3.12-3.12Zm-13.91-48.63c0-1.65,1.33-2.98,2.98-2.98s2.98,1.33,2.98,2.98-1.34,2.98-2.98,2.98-2.98-1.33-2.98-2.98Zm5.96-225.15c0,1.65-1.33,2.98-2.98,2.98s-2.98-1.33-2.98-2.98,1.34-2.98,2.98-2.98,2.98,1.33,2.98,2.98Zm9.79,154.81c0-1.72,1.4-3.12,3.12-3.12s3.12,1.4,3.12,3.12-1.4,3.12-3.12,3.12-3.12-1.4-3.12-3.12Zm0-103.29c0-1.72,1.4-3.12,3.12-3.12s3.12,1.4,3.12,3.12-1.4,3.12-3.12,3.12-3.12-1.4-3.12-3.12Zm-1.83-65.56c0-1.72,1.4-3.12,3.12-3.12s3.12,1.4,3.12,3.12-1.4,3.12-3.12,3.12-3.12-1.4-3.12-3.12Zm-44.83,139.59h42.52v21.32h-42.52v-21.32ZM317.22,75.3c0,1.72-1.4,3.12-3.12,3.12s-3.12-1.4-3.12-3.12,1.4-3.12,3.12-3.12,3.12,1.4,3.12,3.12Zm-6.81,17.24c0-1.65,1.33-2.98,2.98-2.98s2.98,1.33,2.98,2.98-1.34,2.98-2.98,2.98-2.98-1.33-2.98-2.98Zm-30.06,243.13c0-1.72,1.4-3.12,3.12-3.12s3.12,1.4,3.12,3.12-1.4,3.12-3.12,3.12-3.12-1.4-3.12-3.12Zm-32.05-151.6c0-1.65,1.33-2.98,2.98-2.98s2.98,1.33,2.98,2.98-1.34,2.98-2.98,2.98-2.98-1.33-2.98-2.98Zm-13.42-105.65c-1.72,0-3.12-1.4-3.12-3.12s1.4-3.12,3.12-3.12,3.12,1.4,3.12,3.12-1.4,3.12-3.12,3.12Zm-5.99,14c0-1.65,1.33-2.98,2.98-2.98s2.98,1.33,2.98,2.98-1.34,2.98-2.98,2.98-2.98-1.33-2.98-2.98Zm-20.08,217.68c0-1.72,1.4-3.12,3.12-3.12s3.12,1.4,3.12,3.12-1.4,3.12-3.12,3.12-3.12-1.4-3.12-3.12Zm-.92-28.46c0-1.65,1.33-2.98,2.98-2.98s2.98,1.33,2.98,2.98-1.34,2.98-2.98,2.98-2.98-1.33-2.98-2.98ZM119.43,78.37c0-1.72,1.4-3.12,3.12-3.12s3.12,1.4,3.12,3.12-1.4,3.12-3.12,3.12-3.12-1.4-3.12-3.12Zm-37.86,239.86c0-1.72,1.4-3.12,3.12-3.12s3.12,1.4,3.12,3.12-1.4,3.12-3.12,3.12-3.12-1.4-3.12-3.12Z"/>
      </g>
      <path class="cls-3" d="M814.17,92.54c0,1.65-1.33,2.98-2.98,2.98s-2.98-1.33-2.98-2.98,1.33-2.98,2.98-2.98,2.98,1.33,2.98,2.98Zm-178.92-3.11c-1.65,0-2.98,1.33-2.98,2.98s1.33,2.98,2.98,2.98,2.98-1.33,2.98-2.98-1.34-2.98-2.98-2.98Zm0,225.15c-1.65,0-2.98,1.33-2.98,2.98s1.34,2.98,2.98,2.98,2.98-1.33,2.98-2.98-1.33-2.98-2.98-2.98Zm278.47-35.92c-1.65,0-2.98,1.33-2.98,2.98s1.34,2.98,2.98,2.98,2.98-1.33,2.98-2.98-1.33-2.98-2.98-2.98Zm-40.41-97.57c-1.65,0-2.98,1.33-2.98,2.98s1.34,2.98,2.98,2.98,2.98-1.33,2.98-2.98-1.33-2.98-2.98-2.98Zm19.41-91.65c-1.65,0-2.98,1.33-2.98,2.98s1.34,2.98,2.98,2.98,2.98-1.33,2.98-2.98-1.33-2.98-2.98-2.98Zm-660.84,0c-1.65,0-2.98,1.33-2.98,2.98s1.34,2.98,2.98,2.98,2.98-1.33,2.98-2.98-1.33-2.98-2.98-2.98Zm-18.02,192.2c0-1.65-1.33-2.98-2.98-2.98s-2.98,1.33-2.98,2.98,1.34,2.98,2.98,2.98,2.98-1.33,2.98-2.98ZM489.32,89.45c-1.64,0-2.98,1.33-2.98,2.98s1.33,2.98,2.98,2.98,2.98-1.33,2.98-2.98-1.34-2.98-2.98-2.98Zm-238.04,91.64c-1.65,0-2.98,1.33-2.98,2.98s1.34,2.98,2.98,2.98,2.98-1.33,2.98-2.98-1.33-2.98-2.98-2.98Zm238.04,133.51c-1.65,0-2.98,1.33-2.98,2.98s1.34,2.98,2.98,2.98,2.98-1.33,2.98-2.98-1.33-2.98-2.98-2.98ZM313.39,89.56c-1.65,0-2.98,1.33-2.98,2.98s1.34,2.98,2.98,2.98,2.98-1.33,2.98-2.98-1.33-2.98-2.98-2.98Z"/>
      <path class="cls-10" d="M632.26,92.41m178.21-13.99c1.72,0,3.12-1.4,3.12-3.12s-1.4-3.12-3.12-3.12-3.12,1.4-3.12,3.12,1.4,3.12,3.12,3.12Zm-191.12,68.63c1.72,0,3.12-1.4,3.12-3.12s-1.4-3.12-3.12-3.12-3.12,1.4-3.12,3.12,1.4,3.12,3.12,3.12Zm3.12,100.17c0-1.72-1.4-3.12-3.12-3.12s-3.12,1.4-3.12,3.12,1.4,3.12,3.12,3.12,3.12-1.4,3.12-3.12Zm-1.28,115.85c-1.72,0-3.12,1.4-3.12,3.12s1.4,3.12,3.12,3.12,3.12-1.4,3.12-3.12-1.4-3.12-3.12-3.12Zm-.01-281.59c1.72,0,3.12-1.4,3.12-3.12s-1.4-3.12-3.12-3.12-3.12,1.4-3.12,3.12,1.4,3.12,3.12,3.12Zm380.84-6.24c-1.72,0-3.12,1.4-3.12,3.12s1.4,3.12,3.12,3.12,3.12-1.4,3.12-3.12-1.4-3.12-3.12-3.12Zm-89.37,231.73c-1.72,0-3.12,1.4-3.12,3.12s1.4,3.12,3.12,3.12,3.12-1.4,3.12-3.12-1.4-3.12-3.12-3.12Zm127.23,8.13c-1.72,0-3.12,1.4-3.12,3.12s1.4,3.12,3.12,3.12,3.12-1.4,3.12-3.12-1.4-3.12-3.12-3.12Zm-198.77,17.44c-1.72,0-3.12,1.4-3.12,3.12s1.4,3.12,3.12,3.12,3.12-1.4,3.12-3.12-1.4-3.12-3.12-3.12Zm51.71-257.25c0-1.72-1.4-3.12-3.12-3.12s-3.12,1.4-3.12,3.12,1.4,3.12,3.12,3.12,3.12-1.4,3.12-3.12ZM211.93,306.98c-1.72,0-3.12,1.4-3.12,3.12s1.4,3.12,3.12,3.12,3.12-1.4,3.12-3.12-1.4-3.12-3.12-3.12Zm22.95-234.8c-1.72,0-3.12,1.4-3.12,3.12s1.4,3.12,3.12,3.12,3.12-1.4,3.12-3.12-1.4-3.12-3.12-3.12Zm268.5,9.33c1.72,0,3.12-1.4,3.12-3.12s-1.4-3.12-3.12-3.12-3.12,1.4-3.12,3.12,1.4,3.12,3.12,3.12Zm-380.84-6.26c-1.72,0-3.12,1.4-3.12,3.12s1.4,3.12,3.12,3.12,3.12-1.4,3.12-3.12-1.4-3.12-3.12-3.12Zm-37.86,239.86c-1.72,0-3.12,1.4-3.12,3.12s1.4,3.12,3.12,3.12,3.12-1.4,3.12-3.12-1.4-3.12-3.12-3.12ZM505.21,140.83c-1.72,0-3.12,1.4-3.12,3.12s1.4,3.12,3.12,3.12,3.12-1.4,3.12-3.12-1.4-3.12-3.12-3.12Zm0,103.29c-1.72,0-3.12,1.4-3.12,3.12s1.4,3.12,3.12,3.12,3.12-1.4,3.12-3.12-1.4-3.12-3.12-3.12Zm-1.84,118.97c-1.72,0-3.12,1.4-3.12,3.12s1.4,3.12,3.12,3.12,3.12-1.4,3.12-3.12-1.4-3.12-3.12-3.12Zm-219.9-30.54c-1.72,0-3.12,1.4-3.12,3.12s1.4,3.12,3.12,3.12,3.12-1.4,3.12-3.12-1.4-3.12-3.12-3.12Zm30.63-260.37c-1.72,0-3.12,1.4-3.12,3.12s1.4,3.12,3.12,3.12,3.12-1.4,3.12-3.12-1.4-3.12-3.12-3.12Z"/>
    </g>
    <g>
      <path class="cls-1" d="M626.43,540.18c0-1.88,1.53-3.4,3.4-3.4h24.28v-14.17h-39.87c-1.1,0-1.98,.89-1.98,1.98v181.46l14.17,14.17v-180.04h0Zm-7.09,164.74c-2.5,0-4.54-2.03-4.54-4.54s2.03-4.54,4.54-4.54,4.54,2.03,4.54,4.54-2.03,4.54-4.54,4.54Zm0-103.29c-2.5,0-4.54-2.03-4.54-4.54s2.03-4.54,4.54-4.54,4.54,2.03,4.54,4.54-2.03,4.54-4.54,4.54Zm1.83-65.56c-2.5,0-4.54-2.03-4.54-4.54s2.03-4.54,4.54-4.54,4.54,2.03,4.54,4.54-2.03,4.54-4.54,4.54Z"/>
      <path class="cls-1" d="M1075.9,638.84l-51.04-9.01,6.59-37.38c.19-1.08-.53-2.11-1.61-2.3l-13.26-2.34v-63.22c0-1.1-.89-1.98-1.98-1.98h-15.83v14.17h.24c1.88,0,3.4,1.53,3.4,3.4v59.52l9.62,1.7c1.85,.33,3.08,2.09,2.76,3.94l-6.34,35.99,49.64,8.76c.89,.16,1.67,.65,2.2,1.4,.52,.74,.72,1.65,.56,2.54l-19.02,107.85c-.29,1.63-1.7,2.81-3.35,2.81-.2,0-.39-.02-.59-.05l-49.73-8.77-1.86,10.51c-.29,1.63-1.7,2.81-3.35,2.81-.19,0-.39-.02-.59-.05l-54.62-9.63c-.89-.16-1.67-.65-2.2-1.4-.52-.74-.72-1.65-.56-2.54l1.44-8.18-41.21-2.89h-43.78l14.17,14.18h29.11l25.02,1.75-1.42,8.03c-.19,1.08,.53,2.11,1.61,2.3l85.32,15.04c1.08,.19,2.11-.53,2.3-1.61l2.1-11.91,51.13,9.02c1.08,.19,2.11-.53,2.3-1.61l24.44-138.56c.19-1.08-.53-2.11-1.61-2.3h0Zm-68.2-102.78c-2.5,0-4.54-2.03-4.54-4.54s2.03-4.54,4.54-4.54,4.54,2.03,4.54,4.54-2.03,4.54-4.54,4.54Zm-89.38,231.73c-2.5,0-4.54-2.03-4.54-4.54s2.03-4.54,4.54-4.54,4.54,2.03,4.54,4.54-2.03,4.54-4.54,4.54Zm127.24,8.12c-2.5,0-4.54-2.03-4.54-4.54s2.03-4.54,4.54-4.54,4.54,2.03,4.54,4.54-2.03,4.54-4.54,4.54Z"/>
      <path class="cls-1" d="M895.52,522.62v-9.21c0-1.1-.89-1.98-1.98-1.98h-86.81c-1.1,0-1.98,.89-1.98,1.98v9.21h-110.09v14.17h124.27v-7.79c0-1.88,1.53-3.4,3.4-3.4h55.63c1.88,0,3.4,1.53,3.4,3.4v7.8h111.75v-14.18h-97.59Zm-85.06,10.37c-2.5,0-4.54-2.03-4.54-4.54s2.03-4.54,4.54-4.54,4.54,2.03,4.54,4.54-2.03,4.54-4.54,4.54Zm79.22,0c-2.5,0-4.54-2.03-4.54-4.54s2.03-4.54,4.54-4.54,4.54,2.03,4.54,4.54-2.03,4.54-4.54,4.54Z"/>
      <path class="cls-1" d="M835.76,744.5h0v35.6c0,1.88-1.53,3.4-3.4,3.4h-27.82c-16.67,.06-34.56,2.53-51.74,7.13-16.01,4.29-32.69,11.3-48.24,20.28l-.55,.32c-.3,.17-.6,.35-.89,.53-1.42,.84-2.84,1.7-4.34,2.66-.1,.06-.13,.08-.16,.1l-.1,.07-.11,.05-.08,.06-17.76,10.32c-.52,.3-1.11,.46-1.71,.46-1.21,0-2.34-.65-2.95-1.7l-5.58-9.67h-40.5c-1.88,0-3.4-1.53-3.4-3.4v-46.04l-14.17,15.19v46.45c0,1.1,.89,1.98,1.98,1.98h47.9l9.3,16.14c.55,.95,1.77,1.28,2.72,.72l31.29-18.18,.57-.29,.34-.25,.04-.02,.19-.15c1.28-.81,2.5-1.55,3.72-2.27l.22-.13c.18-.11,.37-.22,.62-.36l.51-.3c14.49-8.37,29.98-14.89,44.82-18.86,16.02-4.29,32.66-6.59,48.07-6.65h43.41c1.1,0,1.98-.89,1.98-1.98v-37.01l-14.17-14.17h0v-.03h0Zm-214.58,79.38c-2.5,0-4.54-2.03-4.54-4.54s2.03-4.54,4.54-4.54,4.54,2.03,4.54,4.54-2.03,4.54-4.54,4.54Zm219.9-39.61c2.5,0,4.54,2.03,4.54,4.54s-2.03,4.54-4.54,4.54-4.54-2.03-4.54-4.54,2.03-4.54,4.54-4.54Z"/>
    </g>
    <g>
      <path class="cls-1" d="M498.41,720.23l14.17-14.17v-181.46c0-1.09-.88-1.98-1.98-1.98h-39.87v14.17h24.28c1.87,0,3.4,1.52,3.4,3.4v180.04Zm2.55-19.84c0-2.51,2.03-4.54,4.54-4.54s4.54,2.03,4.54,4.54-2.04,4.54-4.54,4.54-4.54-2.03-4.54-4.54Zm0-103.29c0-2.51,2.03-4.54,4.54-4.54s4.54,2.03,4.54,4.54-2.04,4.54-4.54,4.54-4.54-2.03-4.54-4.54Zm-1.83-65.56c0-2.51,2.03-4.54,4.54-4.54s4.54,2.03,4.54,4.54-2.04,4.54-4.54,4.54-4.54-2.03-4.54-4.54Z"/>
      <path class="cls-1" d="M48.93,638.84c-1.08,.19-1.8,1.22-1.61,2.3l24.44,138.56c.19,1.08,1.22,1.8,2.3,1.61l51.13-9.02,2.1,11.91c.19,1.08,1.22,1.8,2.3,1.61l85.32-15.04c1.08-.19,1.8-1.22,1.61-2.3l-1.42-8.03,25.02-1.75h29.11l14.17-14.18h-43.78l-41.21,2.89,1.44,8.18c.16,.89-.04,1.8-.56,2.54-.53,.75-1.31,1.24-2.2,1.4l-54.62,9.63c-.2,.03-.4,.05-.59,.05-1.65,0-3.06-1.18-3.35-2.81l-1.86-10.51-49.73,8.77c-.2,.03-.39,.05-.59,.05-1.65,0-3.06-1.18-3.35-2.81l-19.02-107.85c-.16-.89,.04-1.8,.56-2.54,.53-.75,1.31-1.24,2.2-1.4l49.64-8.76-6.34-35.99c-.32-1.85,.91-3.61,2.76-3.94l9.62-1.7v-59.52c0-1.87,1.52-3.4,3.4-3.4h.24v-14.17h-15.83c-1.09,0-1.98,.88-1.98,1.98v63.22l-13.26,2.34c-1.08,.19-1.8,1.22-1.61,2.3l6.59,37.38-51.04,9.01h0Zm63.66-107.34c0-2.51,2.03-4.54,4.54-4.54s4.54,2.03,4.54,4.54-2.04,4.54-4.54,4.54-4.54-2.03-4.54-4.54Zm89.38,231.73c0-2.51,2.03-4.54,4.54-4.54s4.54,2.03,4.54,4.54-2.04,4.54-4.54,4.54-4.54-2.03-4.54-4.54h0Zm-127.24,8.12c0-2.51,2.03-4.54,4.54-4.54s4.54,2.03,4.54,4.54-2.04,4.54-4.54,4.54-4.54-2.03-4.54-4.54Z"/>
      <path class="cls-1" d="M229.3,522.63h-97.57v14.18h111.75v-7.8c0-1.87,1.52-3.4,3.4-3.4h55.63c1.87,0,3.4,1.52,3.4,3.4v7.79h124.27v-14.17h-110.09v-9.21c0-1.09-.88-1.98-1.98-1.98h-86.81c-1.09,0-1.98,.88-1.98,1.98v9.21h-.02Zm80.54,5.83c0-2.51,2.03-4.54,4.54-4.54s4.54,2.03,4.54,4.54-2.04,4.54-4.54,4.54-4.54-2.03-4.54-4.54Zm-79.22,0c0-2.51,2.03-4.54,4.54-4.54s4.54,2.03,4.54,4.54-2.04,4.54-4.54,4.54-4.54-2.03-4.54-4.54Z"/>
      <path class="cls-1" d="M289.07,744.54h0l-14.17,14.17v37.01c0,1.09,.88,1.98,1.98,1.98h43.41c15.41,.06,32.05,2.36,48.07,6.65,14.84,3.97,30.33,10.49,44.82,18.86l.51,.3c.25,.14,.44,.25,.62,.36l.22,.13c1.22,.72,2.44,1.46,3.72,2.27l.19,.15,.04,.02,.34,.25,.57,.29,31.29,18.18c.95,.56,2.17,.23,2.72-.72l9.3-16.14h47.9c1.09,0,1.98-.88,1.98-1.98v-46.45l-14.17-15.19v46.04c0,1.87-1.52,3.4-3.4,3.4h-40.5l-5.58,9.67c-.61,1.05-1.74,1.7-2.95,1.7-.6,0-1.19-.16-1.71-.46l-17.76-10.32-.08-.06-.11-.05-.1-.07s-.06-.04-.16-.1c-1.5-.96-2.92-1.82-4.34-2.66-.29-.18-.59-.36-.89-.53l-.55-.32c-15.55-8.98-32.23-15.99-48.24-20.28-17.18-4.6-35.07-7.07-51.74-7.13h-27.82c-1.87,0-3.4-1.52-3.4-3.4v-35.6h0v.03h-.01Zm210.03,74.81c0-2.51,2.03-4.54,4.54-4.54s4.54,2.03,4.54,4.54-2.04,4.54-4.54,4.54-4.54-2.03-4.54-4.54Zm-210.82-30.53c0,2.51-2.03,4.54-4.54,4.54s-4.54-2.03-4.54-4.54,2.04-4.54,4.54-4.54,4.54,2.03,4.54,4.54Z"/>
    </g>
    <g>
      <path class="cls-5" d="M835.79,1198.38h0v35.6c0,1.88-1.53,3.4-3.4,3.4h-27.82c-16.67,.06-34.56,2.53-51.74,7.13-16.01,4.29-32.69,11.3-48.24,20.28l-.55,.32c-.3,.17-.6,.35-.89,.53-1.42,.84-2.84,1.7-4.34,2.66-.1,.06-.13,.08-.16,.1l-.1,.07-.11,.05-.08,.06-17.76,10.32c-.52,.3-1.11,.46-1.71,.46-1.21,0-2.34-.65-2.95-1.7l-5.58-9.67h-40.5c-1.88,0-3.4-1.53-3.4-3.4v-46.04l-14.17,15.19v46.45c0,1.1,.89,1.98,1.98,1.98h47.9l9.3,16.14c.55,.95,1.77,1.28,2.72,.72l31.29-18.18,.57-.29,.34-.25,.04-.02,.19-.15c1.28-.81,2.5-1.55,3.72-2.27l.22-.13c.18-.11,.37-.22,.62-.36l.51-.3c14.49-8.37,29.98-14.89,44.82-18.86,16.02-4.29,32.66-6.59,48.07-6.65h43.41c1.1,0,1.98-.89,1.98-1.98v-37.01l-14.17-14.17h0v-.03h0Zm-214.58,79.38c-2.5,0-4.54-2.03-4.54-4.54s2.03-4.54,4.54-4.54,4.54,2.03,4.54,4.54-2.03,4.54-4.54,4.54Zm219.9-39.61c2.5,0,4.54,2.03,4.54,4.54s-2.03,4.54-4.54,4.54-4.54-2.03-4.54-4.54,2.03-4.54,4.54-4.54Z"/>
      <path class="cls-5" d="M1075.93,1092.72l-51.04-9.01,6.59-37.38c.19-1.08-.53-2.11-1.61-2.3l-13.26-2.34v-63.22c0-1.1-.89-1.98-1.98-1.98h-15.83v14.17h.24c1.88,0,3.4,1.53,3.4,3.4v59.52l9.62,1.7c1.85,.33,3.08,2.09,2.76,3.94l-6.34,35.99,49.64,8.76c.89,.16,1.67,.65,2.2,1.4,.52,.74,.72,1.65,.56,2.54l-19.02,107.85c-.29,1.63-1.7,2.81-3.35,2.81-.2,0-.39-.02-.59-.05l-49.73-8.77-1.86,10.51c-.29,1.63-1.7,2.81-3.35,2.81-.19,0-.39-.02-.59-.05l-54.62-9.63c-.89-.16-1.67-.65-2.2-1.4-.52-.74-.72-1.65-.56-2.54l1.44-8.18-41.21-2.89h-43.78l14.17,14.18h29.11l25.02,1.75-1.42,8.03c-.19,1.08,.53,2.11,1.61,2.3l85.32,15.04c1.08,.19,2.11-.53,2.3-1.61l2.1-11.91,51.13,9.02c1.08,.19,2.11-.53,2.3-1.61l24.44-138.56c.19-1.08-.53-2.11-1.61-2.3h0Zm-68.2-102.78c-2.5,0-4.54-2.03-4.54-4.54s2.03-4.54,4.54-4.54,4.54,2.03,4.54,4.54-2.03,4.54-4.54,4.54Zm-89.38,231.73c-2.5,0-4.54-2.03-4.54-4.54s2.03-4.54,4.54-4.54,4.54,2.03,4.54,4.54-2.03,4.54-4.54,4.54Zm127.24,8.12c-2.5,0-4.54-2.03-4.54-4.54s2.03-4.54,4.54-4.54,4.54,2.03,4.54,4.54-2.03,4.54-4.54,4.54Z"/>
      <path class="cls-5" d="M895.54,976.5v-9.21c0-1.1-.89-1.98-1.98-1.98h-86.81c-1.1,0-1.98,.89-1.98,1.98v9.21h-190.52c-1.1,0-1.98,.89-1.98,1.98v21.9l13.88,13.88v-2.81h.3v-17.38c0-1.88,1.53-3.4,3.4-3.4h189.09v-7.79c0-1.88,1.53-3.4,3.4-3.4h55.63c1.88,0,3.4,1.53,3.4,3.4v7.8h111.75v-14.18h-97.58Zm-274.35,13.46c-2.5,0-4.54-2.03-4.54-4.54s2.03-4.54,4.54-4.54,4.54,2.03,4.54,4.54-2.03,4.54-4.54,4.54Zm189.29-3.1c-2.5,0-4.54-2.03-4.54-4.54s2.03-4.54,4.54-4.54,4.54,2.03,4.54,4.54-2.03,4.54-4.54,4.54Zm79.22,0c-2.5,0-4.54-2.03-4.54-4.54s2.03-4.54,4.54-4.54,4.54,2.03,4.54,4.54-2.03,4.54-4.54,4.54Z"/>
      <path class="cls-5" d="M626.46,1034.54h-.3v-2.88l-13.88,13.88v114.39l14.17,14.17v-139.56h.01Zm-7.09,124.26c-2.5,0-4.54-2.03-4.54-4.54s2.03-4.54,4.54-4.54,4.54,2.03,4.54,4.54-2.03,4.54-4.54,4.54Zm0-103.29c-2.5,0-4.54-2.03-4.54-4.54s2.03-4.54,4.54-4.54,4.54,2.03,4.54,4.54-2.03,4.54-4.54,4.54Z"/>
    </g>
    <g>
      <path class="cls-5" d="M288.8,1198.41h0l-14.17,14.17v37.01c0,1.09,.88,1.98,1.98,1.98h43.41c15.41,.06,32.05,2.36,48.07,6.65,14.84,3.97,30.33,10.49,44.82,18.86l.51,.3c.25,.14,.44,.25,.62,.36l.22,.13c1.22,.72,2.44,1.46,3.72,2.27l.19,.15,.04,.02,.34,.25,.57,.29,31.29,18.18c.95,.56,2.17,.23,2.72-.72l9.3-16.14h47.9c1.09,0,1.98-.88,1.98-1.98v-46.45l-14.17-15.19v46.04c0,1.87-1.52,3.4-3.4,3.4h-40.5l-5.58,9.67c-.61,1.05-1.74,1.7-2.95,1.7-.6,0-1.19-.16-1.71-.46l-17.76-10.32-.08-.06-.11-.05-.1-.07s-.06-.04-.16-.1c-1.5-.96-2.92-1.82-4.34-2.66-.29-.18-.59-.36-.89-.53l-.55-.32c-15.55-8.98-32.23-15.99-48.24-20.28-17.18-4.6-35.07-7.07-51.74-7.13h-27.82c-1.87,0-3.4-1.52-3.4-3.4v-35.6h0v.03h-.01Zm210.03,74.81c0-2.51,2.03-4.54,4.54-4.54s4.54,2.03,4.54,4.54-2.04,4.54-4.54,4.54-4.54-2.03-4.54-4.54Zm-210.82-30.53c0,2.51-2.03,4.54-4.54,4.54s-4.54-2.03-4.54-4.54,2.04-4.54,4.54-4.54,4.54,2.03,4.54,4.54Z"/>
      <path class="cls-5" d="M48.66,1092.71c-1.08,.19-1.8,1.22-1.61,2.3l24.44,138.56c.19,1.08,1.22,1.8,2.3,1.61l51.13-9.02,2.1,11.91c.19,1.08,1.22,1.8,2.3,1.61l85.32-15.04c1.08-.19,1.8-1.22,1.61-2.3l-1.42-8.03,25.02-1.75h29.11l14.17-14.18h-43.78l-41.21,2.89,1.44,8.18c.16,.89-.04,1.8-.56,2.54-.53,.75-1.31,1.24-2.2,1.4l-54.62,9.63c-.2,.03-.4,.05-.59,.05-1.65,0-3.06-1.18-3.35-2.81l-1.86-10.51-49.73,8.77c-.2,.03-.39,.05-.59,.05-1.65,0-3.06-1.18-3.35-2.81l-19.02-107.85c-.16-.89,.04-1.8,.56-2.54,.53-.75,1.31-1.24,2.2-1.4l49.64-8.76-6.34-35.99c-.32-1.85,.91-3.61,2.76-3.94l9.62-1.7v-59.52c0-1.87,1.52-3.4,3.4-3.4h.24v-14.17h-15.83c-1.09,0-1.98,.88-1.98,1.98v63.22l-13.26,2.34c-1.08,.19-1.8,1.22-1.61,2.3l6.59,37.38-51.04,9.01h0Zm63.66-107.34c0-2.51,2.03-4.54,4.54-4.54s4.54,2.03,4.54,4.54-2.04,4.54-4.54,4.54-4.54-2.03-4.54-4.54Zm89.38,231.73c0-2.51,2.03-4.54,4.54-4.54s4.54,2.03,4.54,4.54-2.04,4.54-4.54,4.54-4.54-2.03-4.54-4.54h0Zm-127.24,8.12c0-2.51,2.03-4.54,4.54-4.54s4.54,2.03,4.54,4.54-2.04,4.54-4.54,4.54-4.54-2.03-4.54-4.54Z"/>
      <path class="cls-5" d="M229.03,976.5h-97.57v14.18h111.75v-7.8c0-1.87,1.52-3.4,3.4-3.4h55.63c1.87,0,3.4,1.52,3.4,3.4v7.79h189.09c1.87,0,3.4,1.52,3.4,3.4v17.38h.3v2.81l13.88-13.88v-21.9c0-1.09-.88-1.98-1.98-1.98h-190.52v-9.21c0-1.09-.88-1.98-1.98-1.98h-86.81c-1.09,0-1.98,.88-1.98,1.98v9.21h0Zm269.82,8.92c0-2.51,2.03-4.54,4.54-4.54s4.54,2.03,4.54,4.54-2.04,4.54-4.54,4.54-4.54-2.03-4.54-4.54Zm-189.29-3.1c0-2.51,2.03-4.54,4.54-4.54s4.54,2.03,4.54,4.54-2.04,4.54-4.54,4.54-4.54-2.03-4.54-4.54Zm-79.22,0c0-2.51,2.03-4.54,4.54-4.54s4.54,2.03,4.54,4.54-2.04,4.54-4.54,4.54-4.54-2.03-4.54-4.54Z"/>
      <path class="cls-5" d="M498.15,1034.54v139.56l14.17-14.17v-114.39l-13.88-13.88v2.88h-.29Zm2.54,119.72c0-2.51,2.03-4.54,4.54-4.54s4.54,2.03,4.54,4.54-2.04,4.54-4.54,4.54-4.54-2.03-4.54-4.54Zm0-103.29c0-2.51,2.03-4.54,4.54-4.54s4.54,2.03,4.54,4.54-2.04,4.54-4.54,4.54-4.54-2.03-4.54-4.54Z"/>
    </g>
    <g id="Border03_Kopie" data-name="Border03 Kopie">
      <g>
        <path class="cls-8" d="M1075.95,1545.93l-51.04-9.01,6.59-37.38c.19-1.08-.53-2.11-1.61-2.3l-13.26-2.34v-63.22c0-1.1-.89-1.98-1.98-1.98h-15.83v14.17h.24c1.88,0,3.4,1.53,3.4,3.4v59.52l9.62,1.7c1.85,.33,3.08,2.09,2.76,3.94l-6.34,35.99,49.64,8.76c.89,.16,1.67,.65,2.2,1.4,.52,.74,.72,1.65,.56,2.54l-19.02,107.85c-.29,1.63-1.7,2.81-3.35,2.81-.2,0-.39-.02-.59-.05l-49.73-8.77-1.86,10.51c-.29,1.63-1.7,2.81-3.35,2.81-.19,0-.39-.02-.59-.05l-54.62-9.63c-.89-.16-1.67-.65-2.2-1.4-.52-.74-.72-1.65-.56-2.54l1.44-8.18-41.21-2.89h-43.78l14.17,14.18h29.11l25.02,1.75-1.42,8.03c-.19,1.08,.53,2.11,1.61,2.3l85.32,15.04c1.08,.19,2.11-.53,2.3-1.61l2.1-11.91,51.13,9.02c1.08,.19,2.11-.53,2.3-1.61l24.44-138.56c.19-1.08-.53-2.11-1.61-2.3h0Zm-68.2-102.78c-2.5,0-4.54-2.03-4.54-4.54s2.03-4.54,4.54-4.54,4.54,2.03,4.54,4.54-2.03,4.54-4.54,4.54Zm-89.38,231.74c-2.5,0-4.54-2.03-4.54-4.54s2.03-4.54,4.54-4.54,4.54,2.03,4.54,4.54-2.03,4.54-4.54,4.54Zm127.24,8.12c-2.5,0-4.54-2.03-4.54-4.54s2.03-4.54,4.54-4.54,4.54,2.03,4.54,4.54-2.03,4.54-4.54,4.54Z"/>
        <path class="cls-8" d="M895.56,1429.71v-9.21c0-1.1-.89-1.98-1.98-1.98h-86.81c-1.1,0-1.98,.89-1.98,1.98v9.21h-190.52c-1.1,0-1.98,.89-1.98,1.98v21.9l13.88,13.88v-2.81h.3v-17.38c0-1.88,1.53-3.4,3.4-3.4h189.09v-7.79c0-1.88,1.53-3.4,3.4-3.4h55.63c1.88,0,3.4,1.53,3.4,3.4v7.8h111.75v-14.18h-97.58Zm-274.36,13.46c-2.5,0-4.54-2.03-4.54-4.54s2.03-4.54,4.54-4.54,4.54,2.03,4.54,4.54-2.03,4.54-4.54,4.54Zm189.29-3.1c-2.5,0-4.54-2.03-4.54-4.54s2.03-4.54,4.54-4.54,4.54,2.03,4.54,4.54-2.03,4.54-4.54,4.54Zm79.22,0c-2.5,0-4.54-2.03-4.54-4.54s2.03-4.54,4.54-4.54,4.54,2.03,4.54,4.54-2.03,4.54-4.54,4.54Z"/>
        <path class="cls-8" d="M835.8,1651.6h0v35.59c0,1.88-1.53,3.4-3.4,3.4h-27.82c-16.67,.06-34.56,2.53-51.74,7.13-16.01,4.29-32.69,11.3-48.24,20.28l-.55,.32c-.3,.17-.6,.35-.89,.53-1.42,.84-2.84,1.7-4.34,2.66-.1,.06-.13,.08-.16,.1l-.1,.07-.11,.05-.08,.06-17.76,10.32c-.52,.3-1.11,.46-1.71,.46-1.21,0-2.34-.65-2.95-1.7l-5.58-9.67h-40.5c-1.88,0-3.4-1.53-3.4-3.4v-230.05h-.3v-2.88l-13.88,13.88v234.64c0,1.1,.89,1.98,1.98,1.98h47.9l9.3,16.14c.55,.95,1.77,1.28,2.72,.72l31.29-18.18,.57-.29,.34-.25,.04-.02,.19-.15c1.28-.81,2.5-1.55,3.72-2.27l.22-.13c.18-.11,.37-.22,.62-.36l.51-.3c14.49-8.37,29.98-14.89,44.82-18.86,16.02-4.29,32.66-6.59,48.07-6.65h43.41c1.1,0,1.98-.89,1.98-1.98v-37.01l-14.17-14.17h0Zm-216.41-151.97c2.5,0,4.54,2.03,4.54,4.54s-2.03,4.54-4.54,4.54-4.54-2.03-4.54-4.54,2.03-4.54,4.54-4.54Zm0,103.29c2.5,0,4.54,2.03,4.54,4.54s-2.03,4.54-4.54,4.54-4.54-2.03-4.54-4.54,2.03-4.54,4.54-4.54Zm1.84,128.04c-2.5,0-4.54-2.03-4.54-4.54s2.03-4.54,4.54-4.54,4.54,2.03,4.54,4.54-2.03,4.54-4.54,4.54Zm219.91-30.54c-2.5,0-4.54-2.03-4.54-4.54s2.03-4.54,4.54-4.54,4.54,2.03,4.54,4.54-2.03,4.54-4.54,4.54Z"/>
      </g>
      <g>
        <path class="cls-8" d="M48.64,1546.06c-1.08,.19-1.8,1.22-1.61,2.3l24.44,138.56c.19,1.08,1.22,1.8,2.3,1.61l51.13-9.02,2.1,11.91c.19,1.08,1.22,1.8,2.3,1.61l85.32-15.04c1.08-.19,1.8-1.22,1.61-2.3l-1.42-8.03,25.02-1.75h29.11l14.17-14.18h-43.78l-41.21,2.89,1.44,8.18c.16,.89-.04,1.8-.56,2.54-.53,.75-1.31,1.24-2.2,1.4l-54.62,9.63c-.2,.03-.4,.05-.59,.05-1.65,0-3.06-1.18-3.35-2.81l-1.86-10.51-49.73,8.77c-.2,.03-.39,.05-.59,.05-1.65,0-3.06-1.18-3.35-2.81l-19.02-107.85c-.16-.89,.04-1.8,.56-2.54,.53-.75,1.31-1.24,2.2-1.4l49.64-8.76-6.34-35.99c-.32-1.85,.91-3.61,2.76-3.94l9.62-1.7v-59.52c0-1.87,1.52-3.4,3.4-3.4h.24v-14.17h-15.83c-1.09,0-1.98,.88-1.98,1.98v63.22l-13.26,2.34c-1.08,.19-1.8,1.22-1.61,2.3l6.59,37.38-51.04,9.01h0Zm63.66-107.34c0-2.51,2.03-4.54,4.54-4.54s4.54,2.03,4.54,4.54-2.04,4.54-4.54,4.54-4.54-2.03-4.54-4.54Zm89.38,231.74c0-2.51,2.03-4.54,4.54-4.54s4.54,2.03,4.54,4.54-2.04,4.54-4.54,4.54-4.54-2.03-4.54-4.54h0Zm-127.24,8.12c0-2.51,2.03-4.54,4.54-4.54s4.54,2.03,4.54,4.54-2.04,4.54-4.54,4.54-4.54-2.03-4.54-4.54Z"/>
        <path class="cls-8" d="M229.02,1429.85h-97.57v14.18h111.75v-7.8c0-1.87,1.52-3.4,3.4-3.4h55.63c1.87,0,3.4,1.52,3.4,3.4v7.79h189.09c1.87,0,3.4,1.52,3.4,3.4v17.38h.3v2.81l13.88-13.88v-21.9c0-1.09-.88-1.98-1.98-1.98h-190.52v-9.21c0-1.09-.88-1.98-1.98-1.98h-86.81c-1.09,0-1.98,.88-1.98,1.98v9.21h0Zm269.83,8.92c0-2.51,2.03-4.54,4.54-4.54s4.54,2.03,4.54,4.54-2.04,4.54-4.54,4.54-4.54-2.03-4.54-4.54Zm-189.29-3.1c0-2.51,2.03-4.54,4.54-4.54s4.54,2.03,4.54,4.54-2.04,4.54-4.54,4.54-4.54-2.03-4.54-4.54Zm-79.22,0c0-2.51,2.03-4.54,4.54-4.54s4.54,2.03,4.54,4.54-2.04,4.54-4.54,4.54-4.54-2.03-4.54-4.54Z"/>
        <path class="cls-8" d="M288.8,1651.75l-14.17,14.17v37.01c0,1.09,.88,1.98,1.98,1.98h43.41c15.41,.06,32.05,2.36,48.07,6.65,14.84,3.97,30.33,10.49,44.82,18.86l.51,.3c.25,.14,.44,.25,.62,.36l.22,.13c1.22,.72,2.44,1.46,3.72,2.27l.19,.15,.04,.02,.34,.25,.57,.29,31.29,18.18c.95,.56,2.17,.23,2.72-.72l9.3-16.14h47.9c1.09,0,1.98-.88,1.98-1.98v-234.64l-13.88-13.88v2.88h-.3v230.05c0,1.87-1.52,3.4-3.4,3.4h-40.5l-5.58,9.67c-.61,1.05-1.74,1.7-2.95,1.7-.6,0-1.19-.16-1.71-.46l-17.76-10.32-.08-.06-.11-.05-.1-.07s-.06-.04-.16-.1c-1.5-.96-2.92-1.82-4.34-2.66-.29-.18-.59-.36-.89-.53l-.55-.32c-15.55-8.98-32.23-15.99-48.24-20.28-17.18-4.6-35.07-7.07-51.74-7.13h-27.82c-1.87,0-3.4-1.52-3.4-3.4v-35.59h0Zm220.95-147.41c0,2.51-2.03,4.54-4.54,4.54s-4.54-2.03-4.54-4.54,2.04-4.54,4.54-4.54,4.54,2.03,4.54,4.54Zm0,103.29c0,2.51-2.03,4.54-4.54,4.54s-4.54-2.03-4.54-4.54,2.04-4.54,4.54-4.54,4.54,2.03,4.54,4.54Zm-10.92,118.96c0-2.51,2.03-4.54,4.54-4.54s4.54,2.03,4.54,4.54-2.04,4.54-4.54,4.54-4.54-2.03-4.54-4.54Zm-219.91-30.54c0-2.51,2.03-4.54,4.54-4.54s4.54,2.03,4.54,4.54-2.04,4.54-4.54,4.54-4.54-2.03-4.54-4.54Z"/>
      </g>
    </g>
    <g id="Top_Kopie" data-name="Top Kopie">
      <g id="CaHole_Mid" data-name="CaHole Mid">
        <path class="cls-3" d="M1070.17,1999l-51.04-9.01,6.59-37.38c.19-1.08-.53-2.11-1.61-2.3l-13.26-2.34v-63.22c0-1.1-.89-1.98-1.98-1.98h-113.41v-9.2c0-1.1-.89-1.98-1.98-1.98h-86.81c-1.1,0-1.98,.89-1.98,1.98v9.21h-190.52c-1.1,0-1.98,.89-1.98,1.98v301.7c0,1.1,.89,1.98,1.98,1.98h47.9l9.3,16.14c.55,.95,1.77,1.28,2.72,.72l31.29-18.18,.57-.29,.34-.25,.04-.02,.19-.15c1.28-.81,2.5-1.55,3.72-2.27l.22-.13c.18-.11,.37-.22,.62-.36l.51-.3c14.49-8.37,29.98-14.89,44.82-18.86,16.02-4.29,32.66-6.59,48.07-6.65h43.41c1.1,0,1.98-.89,1.98-1.98v-37.02h29.11l25.02,1.75-1.42,8.03c-.19,1.08,.53,2.11,1.61,2.3l85.32,15.04c1.08,.19,2.11-.53,2.3-1.61l2.1-11.91,51.13,9.02c1.08,.19,2.11-.53,2.3-1.61l24.44-138.56c.19-1.08-.53-2.11-1.61-2.3h0Zm-68.2-110.43c1.72,0,3.12,1.4,3.12,3.12s-1.4,3.12-3.12,3.12-3.12-1.4-3.12-3.12,1.4-3.12,3.12-3.12Zm-112.34-3.07c1.72,0,3.12,1.4,3.12,3.12s-1.4,3.12-3.12,3.12-3.12-1.4-3.12-3.12,1.4-3.12,3.12-3.12Zm-79.22,0c1.72,0,3.12,1.4,3.12,3.12s-1.4,3.12-3.12,3.12-3.12-1.4-3.12-3.12,1.4-3.12,3.12-3.12Zm-189.29,3.1c1.72,0,3.12,1.4,3.12,3.12s-1.4,3.12-3.12,3.12-3.12-1.4-3.12-3.12,1.4-3.12,3.12-3.12Zm-1.83,65.56c1.72,0,3.12,1.4,3.12,3.12s-1.4,3.12-3.12,3.12-3.12-1.4-3.12-3.12,1.4-3.12,3.12-3.12Zm-3.12,106.41c0-1.72,1.4-3.12,3.12-3.12s3.12,1.4,3.12,3.12-1.4,3.12-3.12,3.12-3.12-1.4-3.12-3.12Zm4.96,122.08c-1.72,0-3.12-1.4-3.12-3.12s1.4-3.12,3.12-3.12,3.12,1.4,3.12,3.12-1.4,3.12-3.12,3.12Zm14.34-111.92c0-19.18,15.55-34.72,34.72-34.72s34.72,15.55,34.72,34.72-15.55,34.72-34.72,34.72-34.72-15.55-34.72-34.72h0Zm205.57,81.38c-1.72,0-3.12-1.4-3.12-3.12s1.4-3.12,3.12-3.12,3.12,1.4,3.12,3.12-1.4,3.12-3.12,3.12Zm.6-81.74c.78,0,1.42,.63,1.42,1.42s-.63,1.42-1.42,1.42-1.42-.63-1.42-1.42,.63-1.42,1.42-1.42Zm-1.42-4.25c0-.78,.63-1.42,1.42-1.42s1.42,.63,1.42,1.42-.63,1.42-1.42,1.42-1.42-.63-1.42-1.42Zm1.42,9.92c.78,0,1.42,.63,1.42,1.42s-.63,1.42-1.42,1.42-1.42-.63-1.42-1.42,.63-1.42,1.42-1.42Zm0,5.67c.78,0,1.42,.63,1.42,1.42s-.63,1.42-1.42,1.42-1.42-.63-1.42-1.42,.63-1.42,1.42-1.42Zm0,5.67c.78,0,1.42,.63,1.42,1.42s-.63,1.42-1.42,1.42-1.42-.63-1.42-1.42,.63-1.42,1.42-1.42Zm5.67,2.83c-.78,0-1.42-.63-1.42-1.42s.63-1.42,1.42-1.42,1.42,.63,1.42,1.42-.63,1.42-1.42,1.42Zm0-5.67c-.78,0-1.42-.63-1.42-1.42s.63-1.42,1.42-1.42,1.42,.63,1.42,1.42-.63,1.42-1.42,1.42Zm0-5.67c-.78,0-1.42-.63-1.42-1.42s.63-1.42,1.42-1.42,1.42,.63,1.42,1.42-.63,1.42-1.42,1.42Zm0-5.67c-.78,0-1.42-.63-1.42-1.42s.63-1.42,1.42-1.42,1.42,.63,1.42,1.42-.63,1.42-1.42,1.42Zm0-5.67c-.78,0-1.42-.63-1.42-1.42s.63-1.42,1.42-1.42,1.42,.63,1.42,1.42-.63,1.42-1.42,1.42Zm5.67,22.68c-.78,0-1.42-.63-1.42-1.42s.63-1.42,1.42-1.42,1.42,.63,1.42,1.42-.63,1.42-1.42,1.42Zm0-5.67c-.78,0-1.42-.63-1.42-1.42s.63-1.42,1.42-1.42,1.42,.63,1.42,1.42-.63,1.42-1.42,1.42Zm0-5.67c-.78,0-1.42-.63-1.42-1.42s.63-1.42,1.42-1.42,1.42,.63,1.42,1.42-.63,1.42-1.42,1.42Zm0-5.67c-.78,0-1.42-.63-1.42-1.42s.63-1.42,1.42-1.42,1.42,.63,1.42,1.42-.63,1.42-1.42,1.42Zm0-5.67c-.78,0-1.42-.63-1.42-1.42s.63-1.42,1.42-1.42,1.42,.63,1.42,1.42-.63,1.42-1.42,1.42Zm5.67,22.68c-.78,0-1.42-.63-1.42-1.42s.63-1.42,1.42-1.42,1.42,.63,1.42,1.42-.63,1.42-1.42,1.42Zm0-5.67c-.78,0-1.42-.63-1.42-1.42s.63-1.42,1.42-1.42,1.42,.63,1.42,1.42-.63,1.42-1.42,1.42Zm0-5.67c-.78,0-1.42-.63-1.42-1.42s.63-1.42,1.42-1.42,1.42,.63,1.42,1.42-.63,1.42-1.42,1.42Zm0-5.67c-.78,0-1.42-.63-1.42-1.42s.63-1.42,1.42-1.42,1.42,.63,1.42,1.42-.63,1.42-1.42,1.42Zm0-5.67c-.78,0-1.42-.63-1.42-1.42s.63-1.42,1.42-1.42,1.42,.63,1.42,1.42-.63,1.42-1.42,1.42Zm5.67,22.68c-.78,0-1.42-.63-1.42-1.42s.63-1.42,1.42-1.42,1.42,.63,1.42,1.42-.63,1.42-1.42,1.42Zm0-5.67c-.78,0-1.42-.63-1.42-1.42s.63-1.42,1.42-1.42,1.42,.63,1.42,1.42-.63,1.42-1.42,1.42Zm0-5.67c-.78,0-1.42-.63-1.42-1.42s.63-1.42,1.42-1.42,1.42,.63,1.42,1.42-.63,1.42-1.42,1.42Zm0-5.67c-.78,0-1.42-.63-1.42-1.42s.63-1.42,1.42-1.42,1.42,.63,1.42,1.42-.63,1.42-1.42,1.42Zm0-5.67c-.78,0-1.42-.63-1.42-1.42s.63-1.42,1.42-1.42,1.42,.63,1.42,1.42-.63,1.42-1.42,1.42Zm48.27,59.01c-1.72,0-3.12-1.4-3.12-3.12s1.4-3.12,3.12-3.12,3.12,1.4,3.12,3.12-1.4,3.12-3.12,3.12Zm127.24,8.12c-1.72,0-3.12-1.4-3.12-3.12s1.4-3.12,3.12-3.12,3.12,1.4,3.12,3.12-1.4,3.12-3.12,3.12Zm14.27-120.75l-19.1,107.95c-.19,1.08-1.22,1.8-2.3,1.61l-51.22-9.03-2.11,11.98c-.19,1.08-1.22,1.8-2.3,1.61l-54.71-9.65c-1.08-.19-1.8-1.22-1.61-2.3l5.39-30.54-51.58-3.61c-1.09-.08-1.92-1.02-1.84-2.12l1.76-25.16h-48.63v28.2h6.38c1.1,0,1.98,.89,1.98,1.98v55.56c0,1.1-.89,1.98-1.98,1.98h-27.78c-16.67,0-34.71,2.47-52.18,7.15-16.02,4.29-32.79,11.35-48.49,20.42l-24.06,13.89c-.95,.55-2.16,.22-2.71-.73l-27.78-48.12c-.55-.95-.22-2.16,.73-2.71l24.06-13.89c12.4-7.16,25.41-13.36,38.47-18.39l.08-177.02c0-1.1,.89-1.98,1.98-1.98h51.86v-6.56c0-1.1,.89-1.98,1.98-1.98h51.94v-23.5c0-1.1,.89-1.98,1.98-1.98h55.56c1.1,0,1.98,.89,1.98,1.98v25.26l63.79,4.46h0l-5.6,80.89c-.14,2.05,2.86,2.41,3.21,.39l7.91-45.1c.19-1.08,1.22-1.8,2.3-1.61l54.71,9.65c1.08,.19,1.8,1.22,1.61,2.3l-6.59,37.36,51.29,9.04c1.08,.19,1.8,1.22,1.61,2.3h0v.02Z"/>
      </g>
      <g id="CaHole_Mid-2" data-name="CaHole Mid-2">
        <path class="cls-3" d="M54.7,1998.99c-1.08,.19-1.8,1.22-1.61,2.3l24.44,138.56c.19,1.08,1.22,1.8,2.3,1.61l51.13-9.02,2.1,11.91c.19,1.08,1.22,1.8,2.3,1.61l85.32-15.04c1.08-.19,1.8-1.22,1.61-2.3l-1.42-8.03,25.02-1.75h29.11v37.02c0,1.09,.88,1.98,1.98,1.98h43.41c15.41,.06,32.05,2.36,48.07,6.65,14.84,3.97,30.33,10.49,44.82,18.86l.51,.3c.25,.14,.44,.25,.62,.36l.22,.13c1.22,.72,2.44,1.46,3.72,2.27l.19,.15,.04,.02,.34,.25,.57,.29,31.29,18.18c.95,.56,2.17,.23,2.72-.72l9.3-16.14h47.9c1.09,0,1.98-.88,1.98-1.98v-301.7c0-1.09-.88-1.98-1.98-1.98h-190.52v-9.21c0-1.09-.88-1.98-1.98-1.98h-86.81c-1.09,0-1.98,.88-1.98,1.98v9.2H116c-1.09,0-1.98,.88-1.98,1.98v63.22l-13.26,2.34c-1.08,.19-1.8,1.22-1.61,2.3l6.59,37.38-51.04,9.01h0Zm71.32-107.33c0,1.72-1.4,3.12-3.12,3.12s-3.12-1.4-3.12-3.12,1.4-3.12,3.12-3.12,3.12,1.4,3.12,3.12Zm112.34-3.07c0,1.72-1.4,3.12-3.12,3.12s-3.12-1.4-3.12-3.12,1.4-3.12,3.12-3.12,3.12,1.4,3.12,3.12Zm79.22,0c0,1.72-1.4,3.12-3.12,3.12s-3.12-1.4-3.12-3.12,1.4-3.12,3.12-3.12,3.12,1.4,3.12,3.12Zm189.29,3.1c0,1.72-1.4,3.12-3.12,3.12s-3.12-1.4-3.12-3.12,1.4-3.12,3.12-3.12,3.12,1.4,3.12,3.12Zm1.83,65.56c0,1.72-1.4,3.12-3.12,3.12s-3.12-1.4-3.12-3.12,1.4-3.12,3.12-3.12,3.12,1.4,3.12,3.12Zm-3.12,106.41c-1.72,0-3.12-1.4-3.12-3.12s1.4-3.12,3.12-3.12,3.12,1.4,3.12,3.12-1.4,3.12-3.12,3.12Zm-4.96,115.84c0-1.72,1.4-3.12,3.12-3.12s3.12,1.4,3.12,3.12-1.4,3.12-3.12,3.12-3.12-1.4-3.12-3.12Zm-11.22-108.8c0,19.17-15.55,34.72-34.72,34.72s-34.72-15.55-34.72-34.72,15.55-34.72,34.72-34.72,34.72,15.54,34.72,34.72h0Zm-208.69,78.26c0-1.72,1.4-3.12,3.12-3.12s3.12,1.4,3.12,3.12-1.4,3.12-3.12,3.12-3.12-1.4-3.12-3.12Zm3.94-77.2c0,.79-.63,1.42-1.42,1.42s-1.42-.63-1.42-1.42,.64-1.42,1.42-1.42,1.42,.63,1.42,1.42Zm-1.42-4.25c-.79,0-1.42-.63-1.42-1.42s.63-1.42,1.42-1.42,1.42,.64,1.42,1.42-.63,1.42-1.42,1.42Zm1.42,9.92c0,.79-.63,1.42-1.42,1.42s-1.42-.63-1.42-1.42,.64-1.42,1.42-1.42,1.42,.63,1.42,1.42Zm0,5.67c0,.79-.63,1.42-1.42,1.42s-1.42-.63-1.42-1.42,.64-1.42,1.42-1.42,1.42,.63,1.42,1.42Zm0,5.67c0,.79-.63,1.42-1.42,1.42s-1.42-.63-1.42-1.42,.64-1.42,1.42-1.42,1.42,.63,1.42,1.42Zm-8.51,0c0-.79,.63-1.42,1.42-1.42s1.42,.63,1.42,1.42-.64,1.42-1.42,1.42-1.42-.63-1.42-1.42Zm0-5.67c0-.79,.63-1.42,1.42-1.42s1.42,.63,1.42,1.42-.64,1.42-1.42,1.42-1.42-.63-1.42-1.42Zm0-5.67c0-.79,.63-1.42,1.42-1.42s1.42,.63,1.42,1.42-.64,1.42-1.42,1.42-1.42-.63-1.42-1.42Zm0-5.67c0-.79,.63-1.42,1.42-1.42s1.42,.63,1.42,1.42-.64,1.42-1.42,1.42-1.42-.63-1.42-1.42Zm0-5.67c0-.79,.63-1.42,1.42-1.42s1.42,.63,1.42,1.42-.64,1.42-1.42,1.42-1.42-.63-1.42-1.42Zm-5.67,22.68c0-.79,.63-1.42,1.42-1.42s1.42,.63,1.42,1.42-.64,1.42-1.42,1.42-1.42-.63-1.42-1.42Zm0-5.67c0-.79,.63-1.42,1.42-1.42s1.42,.63,1.42,1.42-.64,1.42-1.42,1.42-1.42-.63-1.42-1.42Zm0-5.67c0-.79,.63-1.42,1.42-1.42s1.42,.63,1.42,1.42-.64,1.42-1.42,1.42-1.42-.63-1.42-1.42Zm0-5.67c0-.79,.63-1.42,1.42-1.42s1.42,.63,1.42,1.42-.64,1.42-1.42,1.42-1.42-.63-1.42-1.42Zm0-5.67c0-.79,.63-1.42,1.42-1.42s1.42,.63,1.42,1.42-.64,1.42-1.42,1.42-1.42-.63-1.42-1.42Zm-5.67,22.68c0-.79,.63-1.42,1.42-1.42s1.42,.63,1.42,1.42-.64,1.42-1.42,1.42-1.42-.63-1.42-1.42Zm0-5.67c0-.79,.63-1.42,1.42-1.42s1.42,.63,1.42,1.42-.64,1.42-1.42,1.42-1.42-.63-1.42-1.42Zm0-5.67c0-.79,.63-1.42,1.42-1.42s1.42,.63,1.42,1.42-.64,1.42-1.42,1.42-1.42-.63-1.42-1.42Zm0-5.67c0-.79,.63-1.42,1.42-1.42s1.42,.63,1.42,1.42-.64,1.42-1.42,1.42-1.42-.63-1.42-1.42Zm0-5.67c0-.79,.63-1.42,1.42-1.42s1.42,.63,1.42,1.42-.64,1.42-1.42,1.42-1.42-.63-1.42-1.42Zm-5.67,22.68c0-.79,.63-1.42,1.42-1.42s1.42,.63,1.42,1.42-.64,1.42-1.42,1.42-1.42-.63-1.42-1.42Zm0-5.67c0-.79,.63-1.42,1.42-1.42s1.42,.63,1.42,1.42-.64,1.42-1.42,1.42-1.42-.63-1.42-1.42Zm0-5.67c0-.79,.63-1.42,1.42-1.42s1.42,.63,1.42,1.42-.64,1.42-1.42,1.42-1.42-.63-1.42-1.42Zm0-5.67c0-.79,.63-1.42,1.42-1.42s1.42,.63,1.42,1.42-.64,1.42-1.42,1.42-1.42-.63-1.42-1.42Zm0-5.67c0-.79,.63-1.42,1.42-1.42s1.42,.63,1.42,1.42-.64,1.42-1.42,1.42-1.42-.63-1.42-1.42Zm-49.97,57.31c0-1.72,1.4-3.12,3.12-3.12s3.12,1.4,3.12,3.12-1.4,3.12-3.12,3.12-3.12-1.4-3.12-3.12Zm-127.24,8.12c0-1.72,1.4-3.12,3.12-3.12s3.12,1.4,3.12,3.12-1.4,3.12-3.12,3.12-3.12-1.4-3.12-3.12Zm-11.14-117.64c-.19-1.08,.53-2.11,1.61-2.3l51.29-9.04-6.59-37.36c-.19-1.08,.53-2.11,1.61-2.3l54.71-9.65c1.08-.19,2.11,.53,2.3,1.61l7.91,45.1c.35,2.02,3.35,1.66,3.21-.39l-5.6-80.89h0l63.79-4.46v-25.26c0-1.09,.88-1.98,1.98-1.98h55.56c1.09,0,1.98,.88,1.98,1.98v23.49h51.94c1.09,0,1.98,.88,1.98,1.98v6.56h51.86c1.09,0,1.98,.88,1.98,1.98l.08,177.02c13.06,5.03,26.07,11.23,38.47,18.39l24.06,13.89c.95,.55,1.28,1.76,.73,2.71l-27.78,48.12c-.55,.95-1.76,1.28-2.71,.73l-24.06-13.89c-15.7-9.07-32.47-16.13-48.49-20.42-17.47-4.68-35.51-7.15-52.18-7.15h-27.78c-1.09,0-1.98-.88-1.98-1.98v-55.56c0-1.09,.88-1.98,1.98-1.98h6.38v-28.2h-48.63l1.76,25.16c.08,1.1-.75,2.04-1.84,2.12l-51.58,3.61,5.39,30.54c.19,1.08-.53,2.11-1.61,2.3l-54.71,9.65c-1.08,.19-2.11-.53-2.3-1.61l-2.11-11.98-51.22,9.03c-1.08,.19-2.11-.53-2.3-1.61l-19.1-107.95h0Z"/>
      </g>
    </g>
    <g id="Text_Kopie_Kopie_Kopie_Kopie_Kopie" data-name="Text Kopie Kopie Kopie Kopie Kopie">
      <path class="cls-4" d="M1064.21,116.23h26.25v7.42h-34.52v-54.49h8.27v47.07Z"/>
      <path class="cls-4" d="M1113.11,124.11c-2.14,0-4.17-.36-6.08-1.07-1.91-.71-3.59-1.75-5.01-3.1-1.43-1.35-2.55-2.98-3.37-4.9-.82-1.91-1.22-4.09-1.22-6.54v-24.19c0-2.45,.41-4.63,1.22-6.54,.82-1.91,1.94-3.55,3.37-4.9,1.43-1.35,3.1-2.38,5.01-3.1,1.91-.71,3.94-1.07,6.08-1.07s4.25,.36,6.16,1.07c1.91,.71,3.58,1.75,5.01,3.1,1.43,1.35,2.55,2.98,3.37,4.9,.82,1.91,1.22,4.09,1.22,6.54v24.19c0,2.45-.41,4.63-1.22,6.54-.82,1.91-1.94,3.55-3.37,4.9-1.43,1.35-3.1,2.39-5.01,3.1s-3.97,1.07-6.16,1.07Zm0-6.96c2.5,0,4.45-.83,5.85-2.49,1.4-1.66,2.1-3.79,2.1-6.39v-23.73c0-2.6-.7-4.73-2.1-6.39-1.4-1.66-3.36-2.49-5.85-2.49s-4.38,.83-5.78,2.49c-1.4,1.66-2.1,3.79-2.1,6.39v23.73c0,2.6,.7,4.73,2.1,6.39,1.4,1.66,3.33,2.49,5.78,2.49Z"/>
      <path class="cls-4" d="M1152.91,77.65l-10.64,9.34v-8.65l10.64-9.18h7.81v54.49h-7.81v-46Z"/>
      <path class="cls-1" d="M1064.21,569.77h26.25v7.42h-34.52v-54.49h8.27v47.07Z"/>
      <path class="cls-1" d="M1113.11,577.65c-2.14,0-4.17-.36-6.08-1.07-1.91-.71-3.59-1.75-5.01-3.1-1.43-1.35-2.55-2.98-3.37-4.9-.82-1.91-1.22-4.09-1.22-6.54v-24.19c0-2.45,.41-4.63,1.22-6.54,.82-1.91,1.94-3.55,3.37-4.9,1.43-1.35,3.1-2.38,5.01-3.1,1.91-.71,3.94-1.07,6.08-1.07s4.25,.36,6.16,1.07c1.91,.71,3.58,1.75,5.01,3.1,1.43,1.35,2.55,2.98,3.37,4.9,.82,1.91,1.22,4.09,1.22,6.54v24.19c0,2.45-.41,4.63-1.22,6.54-.82,1.91-1.94,3.55-3.37,4.9-1.43,1.35-3.1,2.39-5.01,3.1s-3.97,1.07-6.16,1.07Zm0-6.96c2.5,0,4.45-.83,5.85-2.49,1.4-1.66,2.1-3.79,2.1-6.39v-23.73c0-2.6-.7-4.73-2.1-6.39-1.4-1.66-3.36-2.49-5.85-2.49s-4.38,.83-5.78,2.49c-1.4,1.66-2.1,3.79-2.1,6.39v23.73c0,2.6,.7,4.73,2.1,6.39,1.4,1.66,3.33,2.49,5.78,2.49Z"/>
      <path class="cls-1" d="M1138.37,570.23l20.97-25.49c1.02-1.27,1.76-2.46,2.22-3.56,.46-1.1,.69-2.33,.69-3.71,0-2.45-.69-4.44-2.07-5.97-1.38-1.53-3.34-2.3-5.89-2.3-1.02,0-2.02,.15-2.98,.46-.97,.31-1.83,.79-2.56,1.45-.74,.66-1.34,1.53-1.8,2.6-.46,1.07-.69,2.37-.69,3.9h-7.81c0-2.3,.39-4.4,1.19-6.31,.79-1.91,1.89-3.53,3.29-4.86,1.4-1.33,3.07-2.36,5.01-3.1,1.94-.74,4.06-1.11,6.35-1.11s4.49,.36,6.43,1.07c1.94,.71,3.6,1.74,4.98,3.06,1.38,1.33,2.45,2.93,3.21,4.82,.77,1.89,1.15,4.01,1.15,6.35s-.43,4.45-1.3,6.16c-.87,1.71-2.14,3.59-3.83,5.63l-17.07,20.89h22.2v6.96h-31.69v-6.96Z"/>
      <g>
        <path class="cls-5" d="M1064.21,1023.31h26.25v7.42h-34.52v-54.49h8.27v47.07Z"/>
        <path class="cls-5" d="M1113.11,1031.2c-2.14,0-4.17-.36-6.08-1.07-1.91-.71-3.59-1.75-5.01-3.1-1.43-1.35-2.55-2.99-3.37-4.9-.82-1.91-1.22-4.09-1.22-6.54v-24.18c0-2.45,.41-4.63,1.22-6.54,.82-1.91,1.94-3.55,3.37-4.9,1.43-1.35,3.1-2.38,5.01-3.1,1.91-.71,3.94-1.07,6.08-1.07s4.25,.36,6.16,1.07c1.91,.71,3.58,1.75,5.01,3.1,1.43,1.35,2.55,2.99,3.37,4.9,.82,1.91,1.22,4.09,1.22,6.54v24.18c0,2.45-.41,4.63-1.22,6.54-.82,1.91-1.94,3.55-3.37,4.9-1.43,1.35-3.1,2.39-5.01,3.1s-3.97,1.07-6.16,1.07Zm0-6.96c2.5,0,4.45-.83,5.85-2.49,1.4-1.66,2.1-3.79,2.1-6.39v-23.73c0-2.6-.7-4.73-2.1-6.39-1.4-1.66-3.36-2.49-5.85-2.49s-4.38,.83-5.78,2.49c-1.4,1.66-2.1,3.79-2.1,6.39v23.73c0,2.6,.7,4.73,2.1,6.39,1.4,1.66,3.33,2.49,5.78,2.49Z"/>
        <path class="cls-5" d="M1153.45,1031.27c-2.19,0-4.27-.29-6.24-.88-1.96-.59-3.71-1.5-5.24-2.75-1.53-1.25-2.77-2.84-3.71-4.78-.94-1.94-1.44-4.24-1.49-6.89h7.81c.05,1.48,.34,2.73,.88,3.75,.54,1.02,1.2,1.88,1.99,2.56,.79,.69,1.71,1.19,2.76,1.49,1.04,.31,2.13,.46,3.25,.46,2.55,0,4.67-.78,6.35-2.33,1.68-1.56,2.53-3.79,2.53-6.7,0-2.75-.75-4.94-2.26-6.54-1.51-1.61-3.79-2.41-6.85-2.41h-1.3v-6.81h1.3c2.86,0,4.95-.74,6.28-2.22,1.33-1.48,1.99-3.47,1.99-5.97,0-2.76-.78-4.85-2.33-6.28-1.56-1.43-3.46-2.14-5.7-2.14-2.4,0-4.31,.69-5.74,2.07-1.43,1.38-2.25,3.29-2.45,5.74h-7.81c.1-2.3,.59-4.36,1.45-6.2,.87-1.84,2.02-3.39,3.44-4.67,1.43-1.27,3.09-2.26,4.97-2.95,1.89-.69,3.93-1.03,6.12-1.03s4.41,.37,6.35,1.11c1.94,.74,3.61,1.79,5.01,3.14,1.4,1.35,2.5,2.96,3.29,4.82,.79,1.86,1.19,3.92,1.19,6.16,0,2.91-.6,5.31-1.8,7.19-1.2,1.89-2.87,3.34-5.01,4.36,2.35,1.02,4.21,2.58,5.59,4.67,1.38,2.09,2.07,4.82,2.07,8.19,0,2.6-.45,4.9-1.34,6.89-.89,1.99-2.09,3.65-3.6,4.97-1.51,1.33-3.27,2.32-5.28,2.99-2.02,.66-4.17,1-6.47,1Z"/>
      </g>
      <g>
        <path class="cls-8" d="M1064.21,1476.86h26.25v7.42h-34.52v-54.49h8.27v47.07Z"/>
        <path class="cls-8" d="M1113.11,1484.74c-2.14,0-4.17-.36-6.08-1.07-1.91-.71-3.59-1.75-5.01-3.1-1.43-1.35-2.55-2.99-3.37-4.9-.82-1.91-1.22-4.09-1.22-6.54v-24.18c0-2.45,.41-4.63,1.22-6.54,.82-1.91,1.94-3.55,3.37-4.9,1.43-1.35,3.1-2.38,5.01-3.1,1.91-.71,3.94-1.07,6.08-1.07s4.25,.36,6.16,1.07c1.91,.71,3.58,1.75,5.01,3.1,1.43,1.35,2.55,2.99,3.37,4.9,.82,1.91,1.22,4.09,1.22,6.54v24.18c0,2.45-.41,4.63-1.22,6.54-.82,1.91-1.94,3.55-3.37,4.9-1.43,1.35-3.1,2.39-5.01,3.1s-3.97,1.07-6.16,1.07Zm0-6.96c2.5,0,4.45-.83,5.85-2.49,1.4-1.66,2.1-3.79,2.1-6.39v-23.73c0-2.6-.7-4.73-2.1-6.39-1.4-1.66-3.36-2.49-5.85-2.49s-4.38,.83-5.78,2.49c-1.4,1.66-2.1,3.79-2.1,6.39v23.73c0,2.6,.7,4.73,2.1,6.39,1.4,1.66,3.33,2.49,5.78,2.49Z"/>
        <path class="cls-8" d="M1158.27,1476.09h-22.04v-7.27l19.21-39.03h8.42l-19.13,39.03h13.55v-12.71h7.58v12.71h5.82v7.27h-5.82v8.19h-7.58v-8.19Z"/>
      </g>
      <g>
        <path class="cls-3" d="M1064.21,1930.4h26.25v7.42h-34.52v-54.49h8.27v47.07Z"/>
        <path class="cls-3" d="M1113.11,1938.28c-2.14,0-4.17-.36-6.08-1.07-1.91-.71-3.59-1.75-5.01-3.1-1.43-1.35-2.55-2.99-3.37-4.9-.82-1.91-1.22-4.09-1.22-6.54v-24.18c0-2.45,.41-4.63,1.22-6.54,.82-1.91,1.94-3.55,3.37-4.9,1.43-1.35,3.1-2.38,5.01-3.1,1.91-.71,3.94-1.07,6.08-1.07s4.25,.36,6.16,1.07c1.91,.71,3.58,1.75,5.01,3.1,1.43,1.35,2.55,2.99,3.37,4.9,.82,1.91,1.22,4.09,1.22,6.54v24.18c0,2.45-.41,4.63-1.22,6.54-.82,1.91-1.94,3.55-3.37,4.9-1.43,1.35-3.1,2.39-5.01,3.1s-3.97,1.07-6.16,1.07Zm0-6.96c2.5,0,4.45-.83,5.85-2.49,1.4-1.66,2.1-3.79,2.1-6.39v-23.73c0-2.6-.7-4.73-2.1-6.39-1.4-1.66-3.36-2.49-5.85-2.49s-4.38,.83-5.78,2.49c-1.4,1.66-2.1,3.79-2.1,6.39v23.73c0,2.6,.7,4.73,2.1,6.39,1.4,1.66,3.33,2.49,5.78,2.49Z"/>
        <path class="cls-3" d="M1154.14,1938.28c-2.6,0-4.9-.41-6.89-1.22-1.99-.82-3.57-1.81-4.75-2.98-1.48-1.48-2.5-3.1-3.06-4.86-.56-1.76-.92-3.61-1.07-5.55h7.81c.31,2.45,1.1,4.32,2.37,5.62,1.27,1.3,3.14,1.95,5.59,1.95s4.23-.71,5.66-2.14c1.17-1.17,1.9-2.6,2.18-4.29,.28-1.68,.42-3.44,.42-5.28,0-1.63-.11-3.14-.34-4.52-.23-1.38-.65-2.58-1.26-3.6s-1.43-1.81-2.45-2.37c-1.02-.56-2.32-.84-3.9-.84-2.25,0-3.99,.49-5.24,1.45-1.25,.97-2.08,2.12-2.49,3.44h-7.12v-29.77h29.39v6.96h-22.35v14.39c.92-.97,2.16-1.73,3.71-2.3,1.56-.56,3.33-.84,5.32-.84,2.14,0,4.03,.31,5.66,.92,1.63,.61,3.01,1.48,4.13,2.6,1.02,1.02,1.85,2.12,2.49,3.29,.64,1.17,1.12,2.37,1.45,3.6,.33,1.22,.55,2.48,.65,3.75,.1,1.28,.15,2.55,.15,3.83,0,2.91-.27,5.55-.8,7.92-.54,2.37-1.8,4.55-3.79,6.54-1.22,1.22-2.78,2.25-4.67,3.06-1.89,.82-4.16,1.22-6.81,1.22Z"/>
      </g>
      <g>
        <path class="cls-10" d="M1181.71,83.09c-.3,.17-.64,.3-1.02,.37-.38,.08-.75,.11-1.12,.11-.82,0-1.6-.16-2.34-.47-.74-.31-1.38-.76-1.93-1.35s-.98-1.29-1.3-2.11c-.31-.82-.47-1.74-.47-2.76s.17-2.02,.5-2.89,.8-1.61,1.4-2.22c.59-.62,1.31-1.09,2.14-1.43s1.76-.5,2.78-.5,1.91,.16,2.74,.47c.83,.31,1.55,.77,2.16,1.38,.61,.61,1.08,1.34,1.41,2.19,.34,.85,.5,1.81,.5,2.87,0,.8-.11,1.61-.34,2.43-.23,.82-.64,1.85-1.25,3.08l-5.36,10.87h-3.57l5.06-10.06Zm-1.36-2.27c1.06,0,1.91-.36,2.55-1.07,.64-.71,.96-1.69,.96-2.92s-.32-2.24-.96-2.95c-.64-.71-1.49-1.07-2.55-1.07s-1.88,.36-2.53,1.07c-.65,.71-.97,1.7-.97,2.95,0,1.15,.31,2.1,.92,2.86,.62,.76,1.48,1.14,2.58,1.14Z"/>
        <path class="cls-10" d="M1212.35,93.15h-3.51v-15.45l-5.32,11.26h-2.6l-5.45-11.26v15.45h-3.51v-23.11h3.51l6.75,14.38,6.62-14.38h3.51v23.11Z"/>
        <path class="cls-10" d="M1238.78,93.15h-3.51v-15.45l-5.32,11.26h-2.6l-5.45-11.26v15.45h-3.51v-23.11h3.51l6.75,14.38,6.62-14.38h3.51v23.11Z"/>
      </g>
      <g>
        <path class="cls-3" d="M1183.92,104.22h-7.04v3.64h-3.18v-6.59h13.76v2.95l-7.73,20.16h-3.57l7.76-20.16Z"/>
        <path class="cls-3" d="M1212.35,124.38h-3.51v-15.45l-5.32,11.26h-2.6l-5.45-11.26v15.45h-3.51v-23.11h3.51l6.75,14.38,6.62-14.38h3.51v23.11Z"/>
        <path class="cls-3" d="M1238.78,124.38h-3.51v-15.45l-5.32,11.26h-2.6l-5.45-11.26v15.45h-3.51v-23.11h3.51l6.75,14.38,6.62-14.38h3.51v23.11Z"/>
      </g>
    </g>
  </g>
</svg>