<?xml version="1.0" encoding="UTF-8"?>
<svg id="CaseHoles" xmlns="http://www.w3.org/2000/svg" width="342.24mm" height="117.92mm" viewBox="0 0 970.13 334.26">
  <defs>
    <style>
      .cls-1 {
        fill: none;
        stroke: blue;
        stroke-miterlimit: 10;
        stroke-width: .28px;
      }

      .cls-2 {
        fill: red;
      }
    </style>
  </defs>
  <g id="CaHole_Mid" data-name="CaHole Mid">
    <path class="cls-1" d="M968.35,127.55l-51.04-9.01,6.59-37.38c.19-1.08-.53-2.11-1.61-2.3l-13.26-2.34V13.3c0-1.1-.89-1.98-1.98-1.98h-113.41V2.12c0-1.1-.89-1.98-1.98-1.98h-86.81c-1.1,0-1.98,.89-1.98,1.98V11.33h-190.52c-1.1,0-1.98,.89-1.98,1.98V315.01c0,1.1,.89,1.98,1.98,1.98h47.9l9.3,16.14c.55,.95,1.77,1.28,2.72,.72l31.29-18.18,.57-.29,.34-.25,.04-.02,.19-.15c1.28-.81,2.5-1.55,3.72-2.27l.22-.13c.18-.11,.37-.22,.62-.36l.51-.3c14.49-8.37,29.98-14.89,44.82-18.86,16.02-4.29,32.66-6.59,48.07-6.65h43.41c1.1,0,1.98-.89,1.98-1.98v-37.02h29.11l25.02,1.75-1.42,8.03c-.19,1.08,.53,2.11,1.61,2.3l85.32,15.04c1.08,.19,2.11-.53,2.3-1.61l2.1-11.91,51.13,9.02c1.08,.19,2.11-.53,2.3-1.61l24.44-138.56c.19-1.08-.53-2.11-1.61-2.3h0Zm-68.2-110.44c1.72,0,3.12,1.4,3.12,3.12s-1.4,3.12-3.12,3.12-3.12-1.4-3.12-3.12,1.4-3.12,3.12-3.12Zm-112.34-3.07c1.72,0,3.12,1.4,3.12,3.12s-1.4,3.12-3.12,3.12-3.12-1.4-3.12-3.12,1.4-3.12,3.12-3.12Zm-79.22,0c1.72,0,3.12,1.4,3.12,3.12s-1.4,3.12-3.12,3.12-3.12-1.4-3.12-3.12,1.4-3.12,3.12-3.12Zm-189.29,3.1c1.72,0,3.12,1.4,3.12,3.12s-1.4,3.12-3.12,3.12-3.12-1.4-3.12-3.12,1.4-3.12,3.12-3.12Zm-4.94,171.97c0-1.72,1.4-3.12,3.12-3.12s3.12,1.4,3.12,3.12-1.4,3.12-3.12,3.12-3.12-1.4-3.12-3.12Zm4.96,122.08c-1.72,0-3.12-1.4-3.12-3.12s1.4-3.12,3.12-3.12,3.12,1.4,3.12,3.12-1.4,3.12-3.12,3.12Zm14.34-111.92c0-19.18,15.55-34.72,34.72-34.72s34.72,15.55,34.72,34.72-15.55,34.72-34.72,34.72-34.72-15.55-34.72-34.72Zm205.57,81.38c-1.72,0-3.12-1.4-3.12-3.12s1.4-3.12,3.12-3.12,3.12,1.4,3.12,3.12-1.4,3.12-3.12,3.12Zm.6-81.74c.78,0,1.42,.63,1.42,1.42s-.63,1.42-1.42,1.42-1.42-.63-1.42-1.42,.63-1.42,1.42-1.42Zm-1.42-4.25c0-.78,.63-1.42,1.42-1.42s1.42,.63,1.42,1.42-.63,1.42-1.42,1.42-1.42-.63-1.42-1.42Zm1.42,9.92c.78,0,1.42,.63,1.42,1.42s-.63,1.42-1.42,1.42-1.42-.63-1.42-1.42,.63-1.42,1.42-1.42Zm0,5.67c.78,0,1.42,.63,1.42,1.42s-.63,1.42-1.42,1.42-1.42-.63-1.42-1.42,.63-1.42,1.42-1.42Zm0,5.67c.78,0,1.42,.63,1.42,1.42s-.63,1.42-1.42,1.42-1.42-.63-1.42-1.42,.63-1.42,1.42-1.42Zm5.67,2.83c-.78,0-1.42-.63-1.42-1.42s.63-1.42,1.42-1.42,1.42,.63,1.42,1.42-.63,1.42-1.42,1.42Zm0-5.67c-.78,0-1.42-.63-1.42-1.42s.63-1.42,1.42-1.42,1.42,.63,1.42,1.42-.63,1.42-1.42,1.42Zm0-5.67c-.78,0-1.42-.63-1.42-1.42s.63-1.42,1.42-1.42,1.42,.63,1.42,1.42-.63,1.42-1.42,1.42Zm0-5.67c-.78,0-1.42-.63-1.42-1.42s.63-1.42,1.42-1.42,1.42,.63,1.42,1.42-.63,1.42-1.42,1.42Zm0-5.67c-.78,0-1.42-.63-1.42-1.42s.63-1.42,1.42-1.42,1.42,.63,1.42,1.42-.63,1.42-1.42,1.42Zm5.67,22.68c-.78,0-1.42-.63-1.42-1.42s.63-1.42,1.42-1.42,1.42,.63,1.42,1.42-.63,1.42-1.42,1.42Zm0-5.67c-.78,0-1.42-.63-1.42-1.42s.63-1.42,1.42-1.42,1.42,.63,1.42,1.42-.63,1.42-1.42,1.42Zm0-5.67c-.78,0-1.42-.63-1.42-1.42s.63-1.42,1.42-1.42,1.42,.63,1.42,1.42-.63,1.42-1.42,1.42Zm0-5.67c-.78,0-1.42-.63-1.42-1.42s.63-1.42,1.42-1.42,1.42,.63,1.42,1.42-.63,1.42-1.42,1.42Zm0-5.67c-.78,0-1.42-.63-1.42-1.42s.63-1.42,1.42-1.42,1.42,.63,1.42,1.42-.63,1.42-1.42,1.42Zm5.67,22.68c-.78,0-1.42-.63-1.42-1.42s.63-1.42,1.42-1.42,1.42,.63,1.42,1.42-.63,1.42-1.42,1.42Zm0-5.67c-.78,0-1.42-.63-1.42-1.42s.63-1.42,1.42-1.42,1.42,.63,1.42,1.42-.63,1.42-1.42,1.42Zm0-5.67c-.78,0-1.42-.63-1.42-1.42s.63-1.42,1.42-1.42,1.42,.63,1.42,1.42-.63,1.42-1.42,1.42Zm0-5.67c-.78,0-1.42-.63-1.42-1.42s.63-1.42,1.42-1.42,1.42,.63,1.42,1.42-.63,1.42-1.42,1.42Zm0-5.67c-.78,0-1.42-.63-1.42-1.42s.63-1.42,1.42-1.42,1.42,.63,1.42,1.42-.63,1.42-1.42,1.42Zm5.67,22.68c-.78,0-1.42-.63-1.42-1.42s.63-1.42,1.42-1.42,1.42,.63,1.42,1.42-.63,1.42-1.42,1.42Zm0-5.67c-.78,0-1.42-.63-1.42-1.42s.63-1.42,1.42-1.42,1.42,.63,1.42,1.42-.63,1.42-1.42,1.42Zm0-5.67c-.78,0-1.42-.63-1.42-1.42s.63-1.42,1.42-1.42,1.42,.63,1.42,1.42-.63,1.42-1.42,1.42Zm0-5.67c-.78,0-1.42-.63-1.42-1.42s.63-1.42,1.42-1.42,1.42,.63,1.42,1.42-.63,1.42-1.42,1.42Zm0-5.67c-.78,0-1.42-.63-1.42-1.42s.63-1.42,1.42-1.42,1.42,.63,1.42,1.42-.63,1.42-1.42,1.42Zm48.27,59.01c-1.72,0-3.12-1.4-3.12-3.12s1.4-3.12,3.12-3.12,3.12,1.4,3.12,3.12-1.4,3.12-3.12,3.12Zm127.24,8.12c-1.72,0-3.12-1.4-3.12-3.12s1.4-3.12,3.12-3.12,3.12,1.4,3.12,3.12-1.4,3.12-3.12,3.12Zm14.27-120.75l-19.1,107.95c-.19,1.08-1.22,1.8-2.3,1.61l-51.22-9.03-2.11,11.98c-.19,1.08-1.22,1.8-2.3,1.61l-54.71-9.65c-1.08-.19-1.8-1.22-1.61-2.3l5.39-30.54-51.58-3.61c-1.09-.08-1.92-1.02-1.84-2.12l1.76-25.16h-48.63v28.2h6.38c1.1,0,1.98,.89,1.98,1.98v55.56c0,1.1-.89,1.98-1.98,1.98h-27.78c-16.67,0-34.71,2.47-52.18,7.15-16.02,4.29-32.79,11.35-48.49,20.42l-24.06,13.89c-.95,.55-2.16,.22-2.71-.73l-27.78-48.12c-.55-.95-.22-2.16,.73-2.71l24.06-13.89c12.4-7.16,25.41-13.36,38.47-18.39l.08-177.02c0-1.1,.89-1.98,1.98-1.98h51.86v-6.56c0-1.1,.89-1.98,1.98-1.98h51.94V17.49c0-1.1,.89-1.98,1.98-1.98h55.56c1.1,0,1.98,.89,1.98,1.98v25.26l63.79,4.46h0l-5.6,80.89c-.14,2.05,2.86,2.41,3.21,.39l7.91-45.1c.19-1.08,1.22-1.8,2.3-1.61l54.71,9.65c1.08,.19,1.8,1.22,1.61,2.3l-6.59,37.36,51.29,9.04c1.08,.19,1.8,1.22,1.61,2.3h0Z"/>
  </g>
  <g id="CaHole_Mid-2" data-name="CaHole Mid">
    <path class="cls-1" d="M1.78,127.54c-1.08,.19-1.8,1.22-1.61,2.3l24.44,138.56c.19,1.08,1.22,1.8,2.3,1.61l51.13-9.02,2.1,11.91c.19,1.08,1.22,1.8,2.3,1.61l85.32-15.04c1.08-.19,1.8-1.22,1.61-2.3l-1.42-8.03,25.02-1.75h29.11v37.02c0,1.09,.88,1.98,1.98,1.98h43.41c15.41,.06,32.05,2.36,48.07,6.65,14.84,3.97,30.33,10.49,44.82,18.86l.51,.3c.25,.14,.44,.25,.62,.36l.22,.13c1.22,.72,2.44,1.46,3.72,2.27l.19,.15,.04,.02,.34,.25,.57,.29,31.29,18.18c.95,.56,2.17,.23,2.72-.72l9.3-16.14h47.9c1.09,0,1.98-.88,1.98-1.98V13.31c0-1.09-.88-1.98-1.98-1.98h-190.52V2.12c0-1.09-.88-1.98-1.98-1.98h-86.81c-1.09,0-1.98,.88-1.98,1.98V11.32H63.08c-1.09,0-1.98,.88-1.98,1.98v63.22l-13.26,2.34c-1.08,.19-1.8,1.22-1.61,2.3l6.59,37.38L1.78,127.55h0ZM73.1,20.22c0,1.72-1.4,3.12-3.12,3.12s-3.12-1.4-3.12-3.12,1.4-3.12,3.12-3.12,3.12,1.4,3.12,3.12Zm112.34-3.07c0,1.72-1.4,3.12-3.12,3.12s-3.12-1.4-3.12-3.12,1.4-3.12,3.12-3.12,3.12,1.4,3.12,3.12Zm79.22,0c0,1.72-1.4,3.12-3.12,3.12s-3.12-1.4-3.12-3.12,1.4-3.12,3.12-3.12,3.12,1.4,3.12,3.12Zm189.29,3.1c0,1.72-1.4,3.12-3.12,3.12s-3.12-1.4-3.12-3.12,1.4-3.12,3.12-3.12,3.12,1.4,3.12,3.12Zm-1.3,171.97c-1.72,0-3.12-1.4-3.12-3.12s1.4-3.12,3.12-3.12,3.12,1.4,3.12,3.12-1.4,3.12-3.12,3.12Zm-4.96,115.84c0-1.72,1.4-3.12,3.12-3.12s3.12,1.4,3.12,3.12-1.4,3.12-3.12,3.12-3.12-1.4-3.12-3.12Zm-45.94-74.08c-19.17,0-34.72-15.55-34.72-34.72s15.55-34.72,34.72-34.72c19.17,0,34.72,15.54,34.72,34.72s-15.55,34.72-34.72,34.72Zm-173.97,43.54c0-1.72,1.4-3.12,3.12-3.12s3.12,1.4,3.12,3.12-1.4,3.12-3.12,3.12-3.12-1.4-3.12-3.12Zm3.94-77.2c0,.79-.63,1.42-1.42,1.42s-1.42-.63-1.42-1.42,.64-1.42,1.42-1.42,1.42,.63,1.42,1.42Zm-1.42-4.25c-.79,0-1.42-.63-1.42-1.42s.63-1.42,1.42-1.42,1.42,.64,1.42,1.42c0,.79-.63,1.42-1.42,1.42Zm1.42,9.92c0,.79-.63,1.42-1.42,1.42s-1.42-.63-1.42-1.42,.64-1.42,1.42-1.42,1.42,.63,1.42,1.42Zm0,5.67c0,.79-.63,1.42-1.42,1.42s-1.42-.63-1.42-1.42,.64-1.42,1.42-1.42,1.42,.63,1.42,1.42Zm0,5.67c0,.79-.63,1.42-1.42,1.42s-1.42-.63-1.42-1.42,.64-1.42,1.42-1.42,1.42,.63,1.42,1.42Zm-8.51-.01c0-.79,.63-1.42,1.42-1.42s1.42,.63,1.42,1.42-.64,1.42-1.42,1.42-1.42-.63-1.42-1.42Zm0-5.67c0-.79,.63-1.42,1.42-1.42s1.42,.63,1.42,1.42-.64,1.42-1.42,1.42-1.42-.63-1.42-1.42Zm0-5.67c0-.79,.63-1.42,1.42-1.42s1.42,.63,1.42,1.42-.64,1.42-1.42,1.42-1.42-.63-1.42-1.42Zm0-5.67c0-.79,.63-1.42,1.42-1.42s1.42,.63,1.42,1.42-.64,1.42-1.42,1.42-1.42-.63-1.42-1.42Zm0-5.67c0-.79,.63-1.42,1.42-1.42s1.42,.63,1.42,1.42c0,.79-.64,1.42-1.42,1.42s-1.42-.63-1.42-1.42Zm-5.67,22.68c0-.79,.63-1.42,1.42-1.42s1.42,.63,1.42,1.42-.64,1.42-1.42,1.42-1.42-.63-1.42-1.42Zm0-5.67c0-.79,.63-1.42,1.42-1.42s1.42,.63,1.42,1.42-.64,1.42-1.42,1.42-1.42-.63-1.42-1.42Zm0-5.67c0-.79,.63-1.42,1.42-1.42s1.42,.63,1.42,1.42-.64,1.42-1.42,1.42-1.42-.63-1.42-1.42Zm0-5.67c0-.79,.63-1.42,1.42-1.42s1.42,.63,1.42,1.42-.64,1.42-1.42,1.42-1.42-.63-1.42-1.42Zm0-5.67c0-.79,.63-1.42,1.42-1.42s1.42,.63,1.42,1.42c0,.79-.64,1.42-1.42,1.42s-1.42-.63-1.42-1.42Zm-5.67,22.68c0-.79,.63-1.42,1.42-1.42s1.42,.63,1.42,1.42-.64,1.42-1.42,1.42-1.42-.63-1.42-1.42Zm0-5.67c0-.79,.63-1.42,1.42-1.42s1.42,.63,1.42,1.42-.64,1.42-1.42,1.42-1.42-.63-1.42-1.42Zm0-5.67c0-.79,.63-1.42,1.42-1.42s1.42,.63,1.42,1.42-.64,1.42-1.42,1.42-1.42-.63-1.42-1.42Zm0-5.67c0-.79,.63-1.42,1.42-1.42s1.42,.63,1.42,1.42-.64,1.42-1.42,1.42-1.42-.63-1.42-1.42Zm0-5.67c0-.79,.63-1.42,1.42-1.42s1.42,.63,1.42,1.42c0,.79-.64,1.42-1.42,1.42s-1.42-.63-1.42-1.42Zm-5.67,22.68c0-.79,.63-1.42,1.42-1.42s1.42,.63,1.42,1.42-.64,1.42-1.42,1.42-1.42-.63-1.42-1.42Zm0-5.67c0-.79,.63-1.42,1.42-1.42s1.42,.63,1.42,1.42-.64,1.42-1.42,1.42-1.42-.63-1.42-1.42Zm0-5.67c0-.79,.63-1.42,1.42-1.42s1.42,.63,1.42,1.42-.64,1.42-1.42,1.42-1.42-.63-1.42-1.42Zm0-5.67c0-.79,.63-1.42,1.42-1.42s1.42,.63,1.42,1.42-.64,1.42-1.42,1.42-1.42-.63-1.42-1.42Zm0-5.67c0-.79,.63-1.42,1.42-1.42s1.42,.63,1.42,1.42c0,.79-.64,1.42-1.42,1.42s-1.42-.63-1.42-1.42Zm-49.97,57.31c0-1.72,1.4-3.12,3.12-3.12s3.12,1.4,3.12,3.12-1.4,3.12-3.12,3.12-3.12-1.4-3.12-3.12Zm-127.24,8.12c0-1.72,1.4-3.12,3.12-3.12s3.12,1.4,3.12,3.12-1.4,3.12-3.12,3.12-3.12-1.4-3.12-3.12Zm-11.14-117.64c-.19-1.08,.53-2.11,1.61-2.3l51.29-9.04-6.59-37.36c-.19-1.08,.53-2.11,1.61-2.3l54.71-9.65c1.08-.19,2.11,.53,2.3,1.61l7.91,45.1c.35,2.02,3.35,1.66,3.21-.39l-5.6-80.89h0l63.79-4.46V17.49c0-1.09,.88-1.98,1.98-1.98h55.56c1.09,0,1.98,.88,1.98,1.98v23.49h51.94c1.09,0,1.98,.88,1.98,1.98v6.56h51.86c1.09,0,1.98,.88,1.98,1.98l.08,177.02c13.06,5.03,26.07,11.23,38.47,18.39l24.06,13.89c.95,.55,1.28,1.76,.73,2.71l-27.78,48.12c-.55,.95-1.76,1.28-2.71,.73l-24.06-13.89c-15.7-9.07-32.47-16.13-48.49-20.42-17.47-4.68-35.51-7.15-52.18-7.15h-27.78c-1.09,0-1.98-.88-1.98-1.98v-55.56c0-1.09,.88-1.98,1.98-1.98h6.38v-28.2h-48.63l1.76,25.16c.08,1.1-.75,2.04-1.84,2.12l-51.58,3.61,5.39,30.54c.19,1.08-.53,2.11-1.61,2.3l-54.71,9.65c-1.08,.19-2.11-.53-2.3-1.61l-2.11-11.98-51.22,9.03c-1.08,.19-2.11-.53-2.3-1.61l-19.1-107.95h0Z"/>
  </g>
  <g>
    <path class="cls-2" d="M535.05,44.49c-15.2,0-27.57,12.37-27.57,27.57s12.37,27.57,27.57,27.57,27.57-12.37,27.57-27.57-12.37-27.57-27.57-27.57Zm0,53.64c-14.37,0-26.07-11.69-26.07-26.07s11.69-26.07,26.07-26.07,26.07,11.69,26.07,26.07-11.69,26.07-26.07,26.07Z"/>
    <path class="cls-2" d="M601.41,59.84V30.52h-28.32v55.2h1.5v-25.88h12.69l13.02,25.88h1.68l-13.02-25.88h12.45Zm-26.82-1.5v-26.31h25.32v26.31h-25.32Z"/>
  </g>
  <g>
    <polygon class="cls-2" points="418.95 26.88 418.95 83.91 441.12 83.91 441.12 82.36 420.5 82.36 420.5 26.88 418.95 26.88"/>
    <polygon class="cls-2" points="378.63 63.62 392.08 36.88 405.53 63.62 407.27 63.62 392.95 35.15 407.27 6.53 405.53 6.53 379.02 59.37 379.02 6.53 377.47 6.53 377.47 63.62 378.63 63.62"/>
    <rect class="cls-2" x="377.22" y="97.79" width="73.94" height="1.55"/>
  </g>
</svg>