<?xml version="1.0" encoding="UTF-8"?>
<svg id="PCB_holes" data-name="PCB holes" xmlns="http://www.w3.org/2000/svg" width="342.25mm" height="117.93mm" viewBox="0 0 970.14 334.28">
  <defs>
    <style>
      .cls-1 {
        fill: none;
        stroke: blue;
        stroke-miterlimit: 10;
        stroke-width: .28px;
      }
    </style>
  </defs>
  <g id="Acrylcase">
    <path class="cls-1" d="M968.33,127.55l-51.04-9.01,6.59-37.38c.19-1.08-.53-2.11-1.61-2.3l-13.26-2.34V13.3c0-1.1-.89-1.98-1.98-1.98h-113.41V2.12c0-1.1-.89-1.98-1.98-1.98h-86.81c-1.1,0-1.98,.89-1.98,1.98V11.33h-101.33V125.12h-58.06V11.33h-31.11c-1.1,0-1.98,.89-1.98,1.98V194.77l14.74,14.74h11.85v17.33h25.77v25.94h-37.61l-14.74,15.8v46.45c0,1.1,.89,1.98,1.98,1.98h47.9l9.3,16.14c.55,.95,1.77,1.28,2.72,.72l31.29-18.18,.57-.29,.34-.25,.04-.02,.19-.15c1.28-.81,2.5-1.55,3.72-2.27l.22-.13c.18-.11,.37-.22,.62-.36l.51-.3c14.49-8.37,29.98-14.89,44.82-18.86,16.02-4.29,32.66-6.59,48.07-6.65h43.41c1.1,0,1.98-.89,1.98-1.98v-37.02h29.11l25.02,1.75-1.42,8.03c-.19,1.08,.53,2.11,1.61,2.3l85.32,15.04c1.08,.19,2.11-.53,2.3-1.61l2.1-11.91,51.13,9.02c1.08,.19,2.11-.53,2.3-1.61l24.44-138.56c.19-1.08-.53-2.11-1.61-2.3h-.03Zm-449.04,183.62c-1.72,0-3.12-1.4-3.12-3.12s1.4-3.12,3.12-3.12,3.12,1.4,3.12,3.12-1.4,3.12-3.12,3.12Zm14.05-48.77c-1.64,0-2.98-1.33-2.98-2.98s1.33-2.98,2.98-2.98,2.98,1.33,2.98,2.98-1.33,2.98-2.98,2.98Zm0-231.11c1.64,0,2.98,1.33,2.98,2.98s-1.33,2.98-2.98,2.98-2.98-1.33-2.98-2.98,1.33-2.98,2.98-2.98Zm-15.89,160.91c-1.72,0-3.12-1.4-3.12-3.12s1.4-3.12,3.12-3.12,3.12,1.4,3.12,3.12-1.4,3.12-3.12,3.12Zm1.83-168.85c-1.72,0-3.12-1.4-3.12-3.12s1.4-3.12,3.12-3.12,3.12,1.4,3.12,3.12-1.4,3.12-3.12,3.12Zm189.29-9.33c1.72,0,3.12,1.4,3.12,3.12s-1.4,3.12-3.12,3.12-3.12-1.4-3.12-3.12,1.4-3.12,3.12-3.12Zm.71,23.34c-1.64,0-2.98-1.33-2.98-2.98s1.33-2.98,2.98-2.98,2.98,1.33,2.98,2.98-1.33,2.98-2.98,2.98Zm29.92,243.27c-1.72,0-3.12-1.4-3.12-3.12s1.4-3.12,3.12-3.12,3.12,1.4,3.12,3.12-1.4,3.12-3.12,3.12Zm32.19-151.74c-1.64,0-2.98-1.33-2.98-2.98s1.33-2.98,2.98-2.98,2.98,1.33,2.98,2.98-1.33,2.98-2.98,2.98Zm13.28-111.75c0-1.72,1.4-3.12,3.12-3.12s3.12,1.4,3.12,3.12-1.4,3.12-3.12,3.12-3.12-1.4-3.12-3.12Zm6.13,20.1c-1.64,0-2.98-1.33-2.98-2.98s1.33-2.98,2.98-2.98,2.98,1.33,2.98,2.98-1.33,2.98-2.98,2.98Zm19.94,217.82c-1.72,0-3.12-1.4-3.12-3.12s1.4-3.12,3.12-3.12,3.12,1.4,3.12,3.12-1.4,3.12-3.12,3.12Zm1.06-28.6c-1.64,0-2.98-1.33-2.98-2.98s1.33-2.98,2.98-2.98,2.98,1.33,2.98,2.98-1.33,2.98-2.98,2.98ZM900.11,23.34c-1.72,0-3.12-1.4-3.12-3.12s1.4-3.12,3.12-3.12,3.12,1.4,3.12,3.12-1.4,3.12-3.12,3.12Zm37.86,239.86c-1.72,0-3.12-1.4-3.12-3.12s1.4-3.12,3.12-3.12,3.12,1.4,3.12,3.12-1.4,3.12-3.12,3.12Z"/>
  </g>
  <g id="Acrylcase-2" data-name="Acrylcase">
    <path class="cls-1" d="M1.78,127.56c-1.08,.19-1.8,1.22-1.61,2.3l24.44,138.56c.19,1.08,1.22,1.8,2.3,1.61l51.13-9.02,2.1,11.91c.19,1.08,1.22,1.8,2.3,1.61l85.32-15.04c1.08-.19,1.8-1.22,1.61-2.3l-1.42-8.03,25.02-1.75h29.11v37.02c0,1.09,.88,1.98,1.98,1.98h43.41c15.41,.06,32.05,2.36,48.07,6.65,14.84,3.97,30.33,10.49,44.82,18.86l.51,.3c.25,.14,.44,.25,.62,.36l.22,.13c1.22,.72,2.44,1.46,3.72,2.27l.19,.15,.04,.02,.34,.25,.57,.29,31.29,18.18c.95,.56,2.17,.23,2.72-.72l9.3-16.14h47.9c1.09,0,1.98-.88,1.98-1.98v-46.45l-14.74-15.8h-37.61v-25.94h25.77v-17.33h11.85l14.74-14.74V13.31c0-1.09-.88-1.98-1.98-1.98h-31.11V125.12h-58.06V11.33h-101.33V2.12c0-1.09-.88-1.98-1.98-1.98h-86.81c-1.09,0-1.98,.88-1.98,1.98V11.32H63.11c-1.09,0-1.98,.88-1.98,1.98v63.22l-13.26,2.34c-1.08,.19-1.8,1.22-1.61,2.3l6.59,37.38L1.81,127.55h-.03Zm445.95,180.51c0-1.72,1.4-3.12,3.12-3.12s3.12,1.4,3.12,3.12-1.4,3.12-3.12,3.12-3.12-1.4-3.12-3.12Zm-13.91-48.63c0-1.65,1.33-2.98,2.98-2.98s2.98,1.33,2.98,2.98-1.34,2.98-2.98,2.98-2.98-1.33-2.98-2.98Zm5.96-225.15c0,1.65-1.33,2.98-2.98,2.98s-2.98-1.33-2.98-2.98,1.34-2.98,2.98-2.98,2.98,1.33,2.98,2.98Zm9.79,154.81c0-1.72,1.4-3.12,3.12-3.12s3.12,1.4,3.12,3.12-1.4,3.12-3.12,3.12-3.12-1.4-3.12-3.12Zm-1.83-168.85c0-1.72,1.4-3.12,3.12-3.12s3.12,1.4,3.12,3.12-1.4,3.12-3.12,3.12-3.12-1.4-3.12-3.12Zm-183.05-3.09c0,1.72-1.4,3.12-3.12,3.12s-3.12-1.4-3.12-3.12,1.4-3.12,3.12-3.12,3.12,1.4,3.12,3.12Zm-6.81,17.24c0-1.65,1.33-2.98,2.98-2.98s2.98,1.33,2.98,2.98-1.34,2.98-2.98,2.98-2.98-1.33-2.98-2.98Zm-30.06,243.13c0-1.72,1.4-3.12,3.12-3.12s3.12,1.4,3.12,3.12-1.4,3.12-3.12,3.12-3.12-1.4-3.12-3.12Zm-32.05-151.6c0-1.65,1.33-2.98,2.98-2.98s2.98,1.33,2.98,2.98-1.34,2.98-2.98,2.98-2.98-1.33-2.98-2.98Zm-13.42-105.65c-1.72,0-3.12-1.4-3.12-3.12s1.4-3.12,3.12-3.12,3.12,1.4,3.12,3.12-1.4,3.12-3.12,3.12Zm-5.99,14c0-1.65,1.33-2.98,2.98-2.98s2.98,1.33,2.98,2.98-1.34,2.98-2.98,2.98-2.98-1.33-2.98-2.98Zm-20.08,217.68c0-1.72,1.4-3.12,3.12-3.12s3.12,1.4,3.12,3.12-1.4,3.12-3.12,3.12-3.12-1.4-3.12-3.12Zm-.92-28.46c0-1.65,1.33-2.98,2.98-2.98s2.98,1.33,2.98,2.98-1.34,2.98-2.98,2.98-2.98-1.33-2.98-2.98ZM66.91,20.22c0-1.72,1.4-3.12,3.12-3.12s3.12,1.4,3.12,3.12-1.4,3.12-3.12,3.12-3.12-1.4-3.12-3.12ZM29.05,260.08c0-1.72,1.4-3.12,3.12-3.12s3.12,1.4,3.12,3.12-1.4,3.12-3.12,3.12-3.12-1.4-3.12-3.12Z"/>
  </g>
</svg>