<?xml version="1.0" encoding="UTF-8"?>
<svg id="PCB_holes" data-name="PCB holes" xmlns="http://www.w3.org/2000/svg" width="325.99mm" height="117.92mm" viewBox="0 0 924.07 334.27">
  <defs>
    <style>
      .cls-1 {
        fill: none;
        stroke: blue;
        stroke-miterlimit: 10;
        stroke-width: .28px;
      }
    </style>
  </defs>
  <g id="Acrylcase">
    <path class="cls-1" d="M922.27,78.87l-6.74-1.19V13.31c0-1.1-.89-1.98-1.98-1.98h-119.92V2.12c0-1.1-.89-1.98-1.98-1.98h-86.81c-1.1,0-1.98,.89-1.98,1.98V11.33h-101.34V125.12h-58.06V11.33h-31.11c-1.1,0-1.98,.89-1.98,1.98V194.77l14.74,14.74h11.85v17.33h25.77v25.94h-37.61l-14.74,15.8v46.44c0,1.1,.89,1.98,1.98,1.98h47.9l9.3,16.14c.55,.95,1.77,1.28,2.72,.72l31.38-18.24,.19-.12c.84-.52,4.29-2.67,5.91-3.6,14.47-8.36,29.97-14.88,44.82-18.86,16.03-4.3,32.67-6.59,48.08-6.65h43.4c1.1,0,1.98-.89,1.98-1.98v-37.01h29.11l25.02,1.75-1.42,8.03c-.19,1.08,.53,2.11,1.61,2.3l85.33,15.05c1.08,.19,2.11-.53,2.3-1.61l2.93-16.61h20.64c1.1,0,1.98-.89,1.98-1.98v-125.78l8.35-47.37c.19-1.08-.53-2.11-1.61-2.3h-.01Zm-404.83,113.35c-1.72,0-3.12-1.4-3.12-3.12s1.4-3.12,3.12-3.12,3.12,1.4,3.12,3.12-1.4,3.12-3.12,3.12Zm1.83-168.85c-1.72,0-3.12-1.4-3.12-3.12s1.4-3.12,3.12-3.12,3.12,1.4,3.12,3.12-1.4,3.12-3.12,3.12Zm14.06,13.89c-1.64,0-2.98-1.33-2.98-2.98s1.33-2.98,2.98-2.98,2.98,1.33,2.98,2.98-1.33,2.98-2.98,2.98Zm-14.05,273.93c-1.72,0-3.12-1.4-3.12-3.12s1.4-3.12,3.12-3.12,3.12,1.4,3.12,3.12-1.4,3.12-3.12,3.12Zm14.05-48.77c-1.64,0-2.98-1.33-2.98-2.98s1.33-2.98,2.98-2.98,2.98,1.33,2.98,2.98-1.33,2.98-2.98,2.98ZM708.57,14.05c1.72,0,3.12,1.4,3.12,3.12s-1.4,3.12-3.12,3.12-3.12-1.4-3.12-3.12,1.4-3.12,3.12-3.12Zm3.69,20.37c0,1.64-1.33,2.98-2.98,2.98s-2.98-1.33-2.98-2.98,1.33-2.98,2.98-2.98,2.98,1.33,2.98,2.98Zm26.94,246.24c-1.72,0-3.12-1.4-3.12-3.12s1.4-3.12,3.12-3.12,3.12,1.4,3.12,3.12-1.4,3.12-3.12,3.12Zm-17.69-71.43c-32.95,0-59.67-26.71-59.67-59.67s26.71-59.67,59.67-59.67,59.67,26.71,59.67,59.67-26.71,59.67-59.67,59.67h0Zm63.17-192.07c0-1.72,1.4-3.12,3.12-3.12s3.12,1.4,3.12,3.12-1.4,3.12-3.12,3.12-3.12-1.4-3.12-3.12Zm6.13,20.1c-1.64,0-2.98-1.33-2.98-2.98s1.33-2.98,2.98-2.98,2.98,1.33,2.98,2.98-1.33,2.98-2.98,2.98Zm19.94,217.82c-1.72,0-3.12-1.4-3.12-3.12s1.4-3.12,3.12-3.12,3.12,1.4,3.12,3.12-1.4,3.12-3.12,3.12Zm1.06-28.6c-1.64,0-2.98-1.33-2.98-2.98s1.33-2.98,2.98-2.98,2.98,1.33,2.98,2.98-1.33,2.98-2.98,2.98ZM906.68,23.35c-1.72,0-3.12-1.4-3.12-3.12s1.4-3.12,3.12-3.12,3.12,1.4,3.12,3.12-1.4,3.12-3.12,3.12Z"/>
  </g>
  <g id="Acrylcase-2" data-name="Acrylcase">
    <path class="cls-1" d="M1.78,78.88c-1.08,.19-1.8,1.22-1.61,2.3l8.35,47.37v125.78c0,1.09,.88,1.98,1.98,1.98H31.14l2.93,16.61c.19,1.08,1.22,1.8,2.3,1.61l85.33-15.05c1.08-.19,1.8-1.22,1.61-2.3l-1.42-8.03,25.02-1.75h29.11v37.01c0,1.09,.88,1.98,1.98,1.98h43.4c15.41,.06,32.05,2.35,48.08,6.65,14.85,3.98,30.35,10.5,44.82,18.86,1.62,.93,5.07,3.08,5.91,3.6l.19,.12,31.38,18.24c.95,.56,2.17,.23,2.72-.72l9.3-16.14h47.9c1.09,0,1.98-.88,1.98-1.98v-46.44l-14.74-15.8h-37.61v-25.94h25.77v-17.33h11.85l14.74-14.74V13.31c0-1.09-.88-1.98-1.98-1.98h-31.11V125.12h-58.06V11.33h-101.34V2.12c0-1.09-.88-1.98-1.98-1.98h-86.81c-1.09,0-1.98,.88-1.98,1.98V11.33H10.51c-1.09,0-1.98,.88-1.98,1.98V77.68l-6.74,1.19h-.01Zm401.72,110.24c0-1.72,1.4-3.12,3.12-3.12s3.12,1.4,3.12,3.12-1.4,3.12-3.12,3.12-3.12-1.4-3.12-3.12Zm-1.83-168.85c0-1.72,1.4-3.12,3.12-3.12s3.12,1.4,3.12,3.12-1.4,3.12-3.12,3.12-3.12-1.4-3.12-3.12Zm-13.92,14.03c0-1.65,1.33-2.98,2.98-2.98s2.98,1.33,2.98,2.98-1.34,2.98-2.98,2.98-2.98-1.33-2.98-2.98Zm13.91,273.79c0-1.72,1.4-3.12,3.12-3.12s3.12,1.4,3.12,3.12-1.4,3.12-3.12,3.12-3.12-1.4-3.12-3.12Zm-13.91-48.63c0-1.65,1.33-2.98,2.98-2.98s2.98,1.33,2.98,2.98-1.34,2.98-2.98,2.98-2.98-1.33-2.98-2.98ZM218.62,17.17c0,1.72-1.4,3.12-3.12,3.12s-3.12-1.4-3.12-3.12,1.4-3.12,3.12-3.12,3.12,1.4,3.12,3.12Zm-3.83,14.27c1.65,0,2.98,1.33,2.98,2.98s-1.33,2.98-2.98,2.98-2.98-1.34-2.98-2.98,1.33-2.98,2.98-2.98Zm-33.04,246.1c0-1.72,1.4-3.12,3.12-3.12s3.12,1.4,3.12,3.12-1.4,3.12-3.12,3.12-3.12-1.4-3.12-3.12Zm20.81-68.31c-32.96,0-59.67-26.71-59.67-59.67,0-32.96,26.71-59.67,59.67-59.67s59.67,26.71,59.67,59.67-26.72,59.67-59.67,59.67h0ZM136.27,20.28c-1.72,0-3.12-1.4-3.12-3.12s1.4-3.12,3.12-3.12,3.12,1.4,3.12,3.12-1.4,3.12-3.12,3.12Zm-5.99,14c0-1.65,1.33-2.98,2.98-2.98s2.98,1.33,2.98,2.98-1.34,2.98-2.98,2.98-2.98-1.33-2.98-2.98Zm-20.08,217.68c0-1.72,1.4-3.12,3.12-3.12s3.12,1.4,3.12,3.12-1.4,3.12-3.12,3.12-3.12-1.4-3.12-3.12Zm-.92-28.46c0-1.65,1.33-2.98,2.98-2.98s2.98,1.33,2.98,2.98-1.34,2.98-2.98,2.98-2.98-1.33-2.98-2.98ZM14.26,20.23c0-1.72,1.4-3.12,3.12-3.12s3.12,1.4,3.12,3.12-1.4,3.12-3.12,3.12-3.12-1.4-3.12-3.12Z"/>
  </g>
</svg>