<?xml version="1.0" encoding="utf-8"?>
<!-- Generator: Adobe Illustrator 26.3.1, SVG Export Plug-In . SVG Version: 6.00 Build 0)  -->
<svg version="1.1" id="Ebene_1" xmlns="http://www.w3.org/2000/svg" xmlns:xlink="http://www.w3.org/1999/xlink" x="0px" y="0px"
	 width="1445.3px" height="2269.2px" viewBox="0 0 1445.3 2269.2" style="enable-background:new 0 0 1445.3 2269.2;"
	 xml:space="preserve">
<style type="text/css">
	.st0{fill:#595959;}
	.st1{fill:#4C4C4C;}
	.st2{fill:#3F3F3F;}
	.st3{fill:#333333;}
	.st4{fill:#262626;}
	.st5{fill:#BAA300;}
	.st6{fill:#9896FC;}
	.st7{fill:#FFFFFF;}
	.st8{fill:#D7EBFF;}
	.st9{fill:#AED7FF;}
	.st10{fill:#83C1FF;}
	.st11{fill:#58A6FF;}
</style>
<g id="Ebene_6">
	<rect y="0" class="st0" width="1445.3" height="455.1"/>
	<rect y="455.1" class="st1" width="1445.3" height="453.5"/>
	<rect y="908.6" class="st2" width="1445.3" height="453.5"/>
	<rect y="1362.2" class="st3" width="1445.3" height="453.5"/>
	<rect y="1815.7" class="st4" width="1445.3" height="453.5"/>
</g>
<g id="Yubitsume">
	<g id="Bottom">
		<g>
			<g id="Acrylcase">
				<path class="st5" d="M635.2,78.5c-1.6,0-3-1.3-3-3s1.3-3,3-3s3,1.3,3,3S636.9,78.5,635.2,78.5z M635.2,303.6c-1.6,0-3-1.3-3-3
					s1.3-3,3-3s3,1.3,3,3S636.9,303.6,635.2,303.6z M811.2,78.6c-1.6,0-3-1.3-3-3s1.3-3,3-3s3,1.3,3,3S812.8,78.6,811.2,78.6z
					 M873.3,170.1c-1.6,0-3-1.3-3-3s1.3-3,3-3s3,1.3,3,3S874.9,170.1,873.3,170.1z M892.7,78.5c-1.6,0-3-1.3-3-3s1.3-3,3-3
					s3,1.3,3,3S894.3,78.5,892.7,78.5z M912.6,290.1l1.1-22.4c-1.6,0-3-1.3-3-3s1.3-3,3-3s3,1.3,3,3s-1.3,3-3,3L912.6,290.1z"/>
			</g>
			<g id="Acrylcase-2">
				<path class="st6" d="M619.3,233.4c-1.7,0-3.1-1.4-3.1-3.1s1.4-3.1,3.1-3.1s3.1,1.4,3.1,3.1S621,233.4,619.3,233.4z M621.2,64.6
					c-1.7,0-3.1-1.4-3.1-3.1s1.4-3.1,3.1-3.1s3.1,1.4,3.1,3.1S622.9,64.6,621.2,64.6z M589.8,353.9c-1.7,0-3.1-1.4-3.1-3.1
					s1.4-3.1,3.1-3.1s3.1,1.4,3.1,3.1S591.5,353.9,589.8,353.9z M641.5,405.5c-1.7,0-3.1-1.4-3.1-3.1s1.4-3.1,3.1-3.1
					s3.1,1.4,3.1,3.1S643.2,405.5,641.5,405.5z M810.4,55.2c1.7,0,3.1,1.4,3.1,3.1s-1.4,3.1-3.1,3.1s-3.1-1.4-3.1-3.1
					S808.7,55.2,810.4,55.2z M841.1,321.9c-1.7,0-3.1-1.4-3.1-3.1s1.4-3.1,3.1-3.1s3.1,1.4,3.1,3.1S842.8,321.9,841.1,321.9z
					 M886.5,58.4c0-1.7,1.4-3.1,3.1-3.1s3.1,1.4,3.1,3.1s-1.4,3.1-3.1,3.1S886.5,60.1,886.5,58.4z M912.6,296.3
					c-1.7,0-3.1-1.4-3.1-3.1s1.4-3.1,3.1-3.1s3.1,1.4,3.1,3.1S914.3,296.3,912.6,296.3z M1008.6,64.6c-1.7,0-3.1-1.4-3.1-3.1
					s1.4-3.1,3.1-3.1s3.1,1.4,3.1,3.1S1010.3,64.6,1008.6,64.6z"/>
			</g>
			<g id="Acrylcase-3">
				<path class="st7" d="M1024.2,120.1l-6.8-1.2V54.5c0-1.1-0.9-2-2-2H895.5v-9.2c0-1.1-0.9-2-2-2h-86.8c-1.1,0-2,0.9-2,2v9.2H703.4
					v113.8h-58.1V52.5h-31.1c-1.1,0-2,0.9-2,2V236l14.7,14.7h11.8v17.3h25.8V294H627l-14.7,15.8v6l-33.5,33.5c-0.8,0.8-0.8,2,0,2.8
					l61.4,61.4c0.8,0.8,2,0.8,2.8,0l35.6-35.6c8.7-8.1,17.8-15.1,26.9-21l0.6-0.3l0.6-0.5c1.3-0.8,2.5-1.5,3.7-2.2l0.2-0.1
					c0.2-0.1,0.4-0.2,0.6-0.4l0.5-0.3c14.5-8.4,30-14.9,44.8-18.9c16-4.3,32.7-6.6,48.1-6.6H848c1.1,0,2-0.9,2-2v-37H879l25,1.8
					l-1.4,8c-0.2,1.1,0.5,2.1,1.6,2.3l85.3,15c1.1,0.2,2.1-0.5,2.3-1.6l2.9-16.6h20.6c1.1,0,2-0.9,2-2V169.8l8.4-47.4
					C1026,121.3,1025.3,120.3,1024.2,120.1L1024.2,120.1L1024.2,120.1z M619.3,233.4c-1.7,0-3.1-1.4-3.1-3.1s1.4-3.1,3.1-3.1
					s3.1,1.4,3.1,3.1S621,233.4,619.3,233.4z M621.2,64.6c-1.7,0-3.1-1.4-3.1-3.1s1.4-3.1,3.1-3.1s3.1,1.4,3.1,3.1
					S622.9,64.6,621.2,64.6z M635.2,78.5c-1.6,0-3-1.3-3-3s1.3-3,3-3s3,1.3,3,3S636.9,78.5,635.2,78.5z M589.8,353.9
					c-1.7,0-3.1-1.4-3.1-3.1s1.4-3.1,3.1-3.1s3.1,1.4,3.1,3.1S591.5,353.9,589.8,353.9z M635.2,303.6c-1.6,0-3-1.3-3-3s1.3-3,3-3
					s3,1.3,3,3S636.9,303.6,635.2,303.6z M641.5,405.5c-1.7,0-3.1-1.4-3.1-3.1s1.4-3.1,3.1-3.1s3.1,1.4,3.1,3.1
					S643.2,405.5,641.5,405.5z M810.4,55.2c1.7,0,3.1,1.4,3.1,3.1s-1.4,3.1-3.1,3.1s-3.1-1.4-3.1-3.1S808.7,55.2,810.4,55.2z
					 M811.2,78.6c-1.6,0-3-1.3-3-3s1.3-3,3-3s3,1.3,3,3S812.8,78.6,811.2,78.6z M841.1,321.9c-1.7,0-3.1-1.4-3.1-3.1
					s1.4-3.1,3.1-3.1s3.1,1.4,3.1,3.1S842.8,321.9,841.1,321.9z M873.3,170.1c-1.6,0-3-1.3-3-3s1.3-3,3-3s3,1.3,3,3
					S874.9,170.1,873.3,170.1z M886.5,58.4c0-1.7,1.4-3.1,3.1-3.1s3.1,1.4,3.1,3.1s-1.4,3.1-3.1,3.1S886.5,60.1,886.5,58.4z
					 M892.7,78.5c-1.6,0-3-1.3-3-3s1.3-3,3-3s3,1.3,3,3S894.3,78.5,892.7,78.5z M912.6,296.3c-1.7,0-3.1-1.4-3.1-3.1
					s1.4-3.1,3.1-3.1s3.1,1.4,3.1,3.1S914.3,296.3,912.6,296.3z M913.7,267.7c-1.6,0-3-1.3-3-3s1.3-3,3-3s3,1.3,3,3
					S915.3,267.7,913.7,267.7z M1008.5,64.6c-1.7,0-3.1-1.4-3.1-3.1s1.4-3.1,3.1-3.1s3.1,1.4,3.1,3.1S1010.3,64.6,1008.5,64.6z"/>
			</g>
		</g>
		<g>
			<g id="Acrylcase-4">
				<path class="st5" d="M486.4,75.5c0-1.7,1.3-3,3-3s3,1.3,3,3s-1.3,3-3,3S486.4,77.2,486.4,75.5z M486.4,300.7c0-1.6,1.3-3,3-3
					s3,1.3,3,3s-1.3,3-3,3S486.4,302.3,486.4,300.7z M310.4,75.6c0-1.7,1.3-3,3-3s3,1.3,3,3s-1.3,3-3,3S310.4,77.3,310.4,75.6z
					 M248.3,167.1c0-1.6,1.3-3,3-3s3,1.3,3,3s-1.3,3-3,3S248.3,168.8,248.3,167.1z M228.9,75.5c0-1.7,1.3-3,3-3s3,1.3,3,3
					s-1.3,3-3,3S228.9,77.1,228.9,75.5z M212,290l-4-25.3c0-1.6,1.3-3,3-3s3,1.3,3,3s-1.3,3-3,3s-3-1.3-3-3L212,290z"/>
			</g>
			<g id="Acrylcase-5">
				<path class="st6" d="M502.1,230.3c0-1.7,1.4-3.1,3.1-3.1s3.1,1.4,3.1,3.1s-1.4,3.1-3.1,3.1S502.1,232,502.1,230.3z M500.3,61.5
					c0-1.7,1.4-3.1,3.1-3.1s3.1,1.4,3.1,3.1s-1.4,3.1-3.1,3.1S500.3,63.2,500.3,61.5z M531.6,350.8c0-1.7,1.4-3.1,3.1-3.1
					s3.1,1.4,3.1,3.1s-1.4,3.1-3.1,3.1S531.6,352.5,531.6,350.8z M479.9,402.4c0-1.7,1.4-3.1,3.1-3.1s3.1,1.4,3.1,3.1
					s-1.4,3.1-3.1,3.1S479.9,404.1,479.9,402.4z M317.2,58.4c0,1.7-1.4,3.1-3.1,3.1s-3.1-1.4-3.1-3.1s1.4-3.1,3.1-3.1
					S317.2,56.7,317.2,58.4z M280.4,318.7c0-1.7,1.4-3.1,3.1-3.1s3.1,1.4,3.1,3.1s-1.4,3.1-3.1,3.1S280.4,320.5,280.4,318.7z
					 M234.9,61.5c-1.7,0-3.1-1.4-3.1-3.1s1.4-3.1,3.1-3.1s3.1,1.4,3.1,3.1S236.6,61.5,234.9,61.5z M208.8,293.2
					c0-1.7,1.4-3.1,3.1-3.1s3.1,1.4,3.1,3.1s-1.4,3.1-3.1,3.1S208.8,294.9,208.8,293.2z M112.9,61.4c0-1.7,1.4-3.1,3.1-3.1
					s3.1,1.4,3.1,3.1s-1.4,3.1-3.1,3.1S112.9,63.2,112.9,61.4z"/>
			</g>
			<g id="Acrylcase-6">
				<path class="st7" d="M100.4,120.1c-1.1,0.2-1.8,1.2-1.6,2.3l8.4,47.4v125.8c0,1.1,0.9,2,2,2h20.6l2.9,16.6
					c0.2,1.1,1.2,1.8,2.3,1.6l85.3-15c1.1-0.2,1.8-1.2,1.6-2.3l-1.4-8l25-1.8h29.1v37c0,1.1,0.9,2,2,2H320
					c15.4,0.1,32.1,2.4,48.1,6.6c14.8,4,30.3,10.5,44.8,18.9l0.5,0.3c0.2,0.1,0.4,0.2,0.6,0.4l0.2,0.1c1.2,0.7,2.4,1.5,3.7,2.2
					l0.6,0.5l0.6,0.3c9.2,5.9,18.2,12.9,26.9,21l35.6,35.6c0.8,0.8,2,0.8,2.8,0l61.4-61.4c0.8-0.8,0.8-2,0-2.8l-33.5-33.5v-6
					L497.6,294h-37.6v-25.9h25.8v-17.3h11.8l14.7-14.7V54.5c0-1.1-0.9-2-2-2h-31.1v113.8h-58.1V52.5H319.8v-9.2c0-1.1-0.9-2-2-2H231
					c-1.1,0-2,0.9-2,2v9.2H109.1c-1.1,0-2,0.9-2,2v64.4L100.4,120.1L100.4,120.1L100.4,120.1z M502.1,230.3c0-1.7,1.4-3.1,3.1-3.1
					s3.1,1.4,3.1,3.1s-1.4,3.1-3.1,3.1S502.1,232,502.1,230.3z M500.3,61.5c0-1.7,1.4-3.1,3.1-3.1s3.1,1.4,3.1,3.1s-1.4,3.1-3.1,3.1
					S500.3,63.2,500.3,61.5z M486.4,75.5c0-1.7,1.3-3,3-3s3,1.3,3,3s-1.3,3-3,3S486.4,77.2,486.4,75.5z M531.6,350.8
					c0-1.7,1.4-3.1,3.1-3.1s3.1,1.4,3.1,3.1s-1.4,3.1-3.1,3.1S531.6,352.5,531.6,350.8z M486.4,300.7c0-1.6,1.3-3,3-3s3,1.3,3,3
					s-1.3,3-3,3S486.4,302.3,486.4,300.7z M479.9,402.4c0-1.7,1.4-3.1,3.1-3.1s3.1,1.4,3.1,3.1s-1.4,3.1-3.1,3.1
					S479.9,404.1,479.9,402.4z M317.2,58.4c0,1.7-1.4,3.1-3.1,3.1s-3.1-1.4-3.1-3.1s1.4-3.1,3.1-3.1S317.2,56.7,317.2,58.4z
					 M310.4,75.6c0-1.7,1.3-3,3-3s3,1.3,3,3s-1.3,3-3,3S310.4,77.3,310.4,75.6z M280.4,318.7c0-1.7,1.4-3.1,3.1-3.1s3.1,1.4,3.1,3.1
					s-1.4,3.1-3.1,3.1S280.4,320.5,280.4,318.7z M248.3,167.1c0-1.6,1.3-3,3-3s3,1.3,3,3s-1.3,3-3,3S248.3,168.8,248.3,167.1z
					 M234.9,61.5c-1.7,0-3.1-1.4-3.1-3.1s1.4-3.1,3.1-3.1s3.1,1.4,3.1,3.1S236.6,61.5,234.9,61.5z M228.9,75.5c0-1.7,1.3-3,3-3
					s3,1.3,3,3s-1.3,3-3,3S228.9,77.1,228.9,75.5z M208.8,293.2c0-1.7,1.4-3.1,3.1-3.1s3.1,1.4,3.1,3.1s-1.4,3.1-3.1,3.1
					S208.8,294.9,208.8,293.2z M207.9,264.7c0-1.6,1.3-3,3-3s3,1.3,3,3s-1.3,3-3,3S207.9,266.4,207.9,264.7z M112.9,61.4
					c0-1.7,1.4-3.1,3.1-3.1s3.1,1.4,3.1,3.1s-1.4,3.1-3.1,3.1S112.9,63.2,112.9,61.4z"/>
			</g>
		</g>
	</g>
	<g id="Border01">
		<g>
			<path class="st8" d="M1029.9,573.1l-6.8-1.2v-64.4c0-1.1-0.9-2-2-2h-15.8v14.2h0.2c1.9,0,3.4,1.5,3.4,3.4v60.7l3.1,0.5
				c1.9,0.3,3.1,2.1,2.8,3.9l-5.9,33.2V733c0,1.9-1.5,3.4-3.4,3.4h-16.9l-2.3,13c-0.3,1.6-1.7,2.8-3.4,2.8c-0.2,0-0.4,0-0.6,0
				l-54.6-9.6c-0.9-0.2-1.7-0.7-2.2-1.4c-0.5-0.7-0.7-1.7-0.6-2.5l1.4-8.2l-41.2-2.9h-43.8l14.2,14.2h29.1l25,1.8l-1.4,8
				c-0.2,1.1,0.5,2.1,1.6,2.3l85.3,15c1.1,0.2,2.1-0.5,2.3-1.6l2.9-16.6h20.6c1.1,0,2-0.9,2-2V622.8l8.4-47.4
				C1031.7,574.3,1030.9,573.3,1029.9,573.1L1029.9,573.1L1029.9,573.1z M918.3,750.7c-2.5,0-4.5-2-4.5-4.5s2-4.5,4.5-4.5
				s4.5,2,4.5,4.5S920.8,750.7,918.3,750.7z M1014.3,519c-2.5,0-4.5-2-4.5-4.5s2-4.5,4.5-4.5s4.5,2,4.5,4.5S1016.8,519,1014.3,519z"
				/>
			<path class="st8" d="M835.8,727.4L835.8,727.4V763c0,1.9-1.5,3.4-3.4,3.4h-27.8c-16.7,0.1-34.6,2.5-51.7,7.1
				c-16,4.3-32.7,11.3-48.2,20.3l-0.6,0.3c-0.3,0.2-0.6,0.3-0.9,0.5c-1.4,0.8-2.8,1.7-4.3,2.7c-0.1,0.1-0.1,0.1-0.2,0.1l-0.1,0.1
				l-0.1,0l-0.1,0l-0.1,0.1c-10.1,6.4-20,14.2-29.5,23l-24.8,24.8c-0.6,0.6-1.5,1-2.4,1s-1.8-0.3-2.4-1l-39.3-39.3
				c-0.6-0.6-1-1.5-1-2.4s0.3-1.8,1-2.4l23-23c0.1-0.1,0.2-0.2,0.4-0.4l3.2-3.3v-27.1l-14.2,15.2v6l-33.5,33.5c-0.8,0.8-0.8,2,0,2.8
				l61.4,61.4c0.8,0.8,2,0.8,2.8,0l35.6-35.6c8.7-8.1,17.8-15.2,26.9-21l0.6-0.3l0.6-0.5c1.3-0.8,2.5-1.5,3.7-2.2l0.2-0.1
				c0.2-0.1,0.4-0.2,0.6-0.4l0.5-0.3c14.5-8.4,30-14.9,44.8-18.9c16-4.3,32.7-6.6,48.1-6.7h43.4c1.1,0,2-0.9,2-2v-37L835.8,727.4
				L835.8,727.4L835.8,727.4z M589.8,808.3c-2.5,0-4.5-2-4.5-4.5s2-4.5,4.5-4.5s4.5,2,4.5,4.5S592.3,808.3,589.8,808.3z M641.5,860
				c-2.5,0-4.5-2-4.5-4.5s2-4.5,4.5-4.5s4.5,2,4.5,4.5S644,860,641.5,860z M841.1,767.2c2.5,0,4.5,2,4.5,4.5s-2,4.5-4.5,4.5
				s-4.5-2-4.5-4.5S838.6,767.2,841.1,767.2z"/>
			<path class="st8" d="M626.4,523.1c0-1.9,1.5-3.4,3.4-3.4h24.3v-14.2h-39.9c-1.1,0-2,0.9-2,2V689l14.2,14.2L626.4,523.1
				L626.4,523.1z M619.4,687.9c-2.5,0-4.5-2-4.5-4.5s2-4.5,4.5-4.5s4.5,2,4.5,4.5S621.9,687.9,619.4,687.9z M621.2,519
				c-2.5,0-4.5-2-4.5-4.5s2-4.5,4.5-4.5s4.5,2,4.5,4.5S623.7,519,621.2,519z"/>
			<path class="st8" d="M895.5,505.6v-9.2c0-1.1-0.9-2-2-2h-86.8c-1.1,0-2,0.9-2,2v9.2H694.7v14.2h124.3v-7.8c0-1.9,1.5-3.4,3.4-3.4
				H878c1.9,0,3.4,1.5,3.4,3.4v7.8h118.3v-14.2H895.5z M810.5,515.9c-2.5,0-4.5-2-4.5-4.5s2-4.5,4.5-4.5s4.5,2,4.5,4.5
				C815,513.9,813,515.9,810.5,515.9z M889.7,515.9c-2.5,0-4.5-2-4.5-4.5s2-4.5,4.5-4.5s4.5,2,4.5,4.5
				C894.2,513.9,892.2,515.9,889.7,515.9z"/>
		</g>
		<g>
			<path class="st8" d="M94.7,573.1c-1.1,0.2-1.8,1.2-1.6,2.3l8.4,47.4v125.8c0,1.1,0.9,2,2,2h20.6l2.9,16.6
				c0.2,1.1,1.2,1.8,2.3,1.6l85.3-15c1.1-0.2,1.8-1.2,1.6-2.3l-1.4-8l25-1.8h29.1l14.2-14.2h-43.8l-41.2,2.9l1.4,8.2
				c0.2,0.9,0,1.8-0.6,2.5c-0.5,0.8-1.3,1.2-2.2,1.4l-54.6,9.6c-0.2,0-0.4,0-0.6,0c-1.7,0-3.1-1.2-3.3-2.8l-2.3-13H119
				c-1.9,0-3.4-1.5-3.4-3.4V621.5l-5.9-33.2c-0.3-1.8,0.9-3.6,2.8-3.9l3.1-0.5v-60.7c0-1.9,1.5-3.4,3.4-3.4h0.2v-14.2h-15.8
				c-1.1,0-2,0.9-2,2v64.4L94.7,573.1L94.7,573.1z M201.7,746.2c0-2.5,2-4.5,4.5-4.5s4.5,2,4.5,4.5s-2,4.5-4.5,4.5
				S201.7,748.7,201.7,746.2z M105.7,514.4c0-2.5,2-4.5,4.5-4.5s4.5,2,4.5,4.5s-2,4.5-4.5,4.5S105.7,517,105.7,514.4z"/>
			<path class="st8" d="M288.8,727.4L288.8,727.4l-14.2,14.2v37c0,1.1,0.9,2,2,2H320c15.4,0.1,32.1,2.4,48.1,6.7
				c14.8,4,30.3,10.5,44.8,18.9l0.5,0.3c0.2,0.2,0.4,0.2,0.6,0.4l0.2,0.1c1.2,0.7,2.4,1.5,3.7,2.2l0.6,0.5l0.6,0.3
				c9.2,5.9,18.2,12.9,26.9,21l35.6,35.6c0.8,0.8,2,0.8,2.8,0l61.4-61.4c0.8-0.8,0.8-2,0-2.8l-33.5-33.5v-6l-14.2-15.2v27.1l3.2,3.3
				c0.1,0.1,0.2,0.2,0.4,0.4l23,23c0.7,0.7,1,1.5,1,2.4s-0.4,1.8-1,2.4l-39.3,39.3c-0.7,0.7-1.5,1-2.4,1s-1.8-0.4-2.4-1l-24.8-24.8
				c-9.5-8.8-19.5-16.6-29.5-23l-0.1-0.1l-0.1,0l-0.1,0l-0.1-0.1c0,0-0.1,0-0.2-0.1c-1.5-1-2.9-1.8-4.3-2.7
				c-0.3-0.2-0.6-0.4-0.9-0.5l-0.6-0.3c-15.6-9-32.2-16-48.2-20.3c-17.2-4.6-35.1-7.1-51.7-7.1h-27.8c-1.9,0-3.4-1.5-3.4-3.4
				L288.8,727.4L288.8,727.4L288.8,727.4z M530.2,803.8c0-2.5,2-4.5,4.5-4.5s4.5,2,4.5,4.5s-2,4.5-4.5,4.5S530.2,806.3,530.2,803.8z
				 M478.5,855.4c0-2.5,2-4.5,4.5-4.5s4.5,2,4.5,4.5s-2,4.5-4.5,4.5S478.5,857.9,478.5,855.4z M288,771.7c0,2.5-2,4.5-4.5,4.5
				s-4.5-2-4.5-4.5s2-4.5,4.5-4.5S288,769.2,288,771.7z"/>
			<path class="st8" d="M498.1,703.2l14.2-14.2V507.5c0-1.1-0.9-2-2-2h-39.9v14.2h24.3c1.9,0,3.4,1.5,3.4,3.4L498.1,703.2
				L498.1,703.2z M500.7,683.3c0-2.5,2-4.5,4.5-4.5s4.5,2,4.5,4.5s-2,4.5-4.5,4.5S500.7,685.8,500.7,683.3z M498.9,514.5
				c0-2.5,2-4.5,4.5-4.5s4.5,2,4.5,4.5s-2,4.5-4.5,4.5S498.9,517,498.9,514.5z"/>
			<path class="st8" d="M229,505.6H124.9v14.2h118.3v-7.8c0-1.9,1.5-3.4,3.4-3.4h55.6c1.9,0,3.4,1.5,3.4,3.4v7.8h124.3v-14.2H319.8
				v-9.2c0-1.1-0.9-2-2-2H231c-1.1,0-2,0.9-2,2L229,505.6L229,505.6L229,505.6z M309.6,511.4c0-2.5,2-4.5,4.5-4.5s4.5,2,4.5,4.5
				c0,2.5-2,4.5-4.5,4.5S309.6,513.9,309.6,511.4z M230.3,511.4c0-2.5,2-4.5,4.5-4.5s4.5,2,4.5,4.5c0,2.5-2,4.5-4.5,4.5
				S230.3,513.9,230.3,511.4z"/>
		</g>
	</g>
	<g id="Border02">
		<g>
			<path class="st9" d="M1029.9,1027l-6.8-1.2v-64.4c0-1.1-0.9-2-2-2h-15.8v14.2h0.2c1.9,0,3.4,1.5,3.4,3.4v60.7l3.1,0.6
				c1.9,0.3,3.1,2.1,2.8,3.9l-5.9,33.2v111.4c0,1.9-1.5,3.4-3.4,3.4h-16.9l-2.3,13c-0.3,1.6-1.7,2.8-3.4,2.8c-0.2,0-0.4,0-0.6-0.1
				l-54.6-9.6c-0.9-0.2-1.7-0.7-2.2-1.4c-0.5-0.7-0.7-1.7-0.6-2.5l1.4-8.2l-41.2-2.9h-43.8l14.2,14.2h29.1l25,1.8l-1.4,8
				c-0.2,1.1,0.5,2.1,1.6,2.3l85.3,15c1.1,0.2,2.1-0.5,2.3-1.6l2.9-16.6h20.6c1.1,0,2-0.9,2-2v-125.8l8.4-47.4
				C1031.7,1028.2,1031,1027.2,1029.9,1027L1029.9,1027L1029.9,1027z M918.3,1204.6c-2.5,0-4.5-2-4.5-4.5s2-4.5,4.5-4.5
				s4.5,2,4.5,4.5S920.9,1204.6,918.3,1204.6z M1014.3,972.9c-2.5,0-4.5-2-4.5-4.5s2-4.5,4.5-4.5s4.5,2,4.5,4.5
				S1016.8,972.9,1014.3,972.9z"/>
			<path class="st9" d="M835.8,1181.3L835.8,1181.3v35.6c0,1.9-1.5,3.4-3.4,3.4h-27.8c-16.7,0.1-34.6,2.5-51.7,7.1
				c-16,4.3-32.7,11.3-48.2,20.3l-0.6,0.3c-0.3,0.2-0.6,0.3-0.9,0.5c-1.4,0.8-2.8,1.7-4.3,2.7c-0.1,0.1-0.1,0.1-0.2,0.1l-0.1,0.1
				l-0.1,0.1l-0.1,0l-0.1,0.1c-10.1,6.4-20,14.2-29.5,23l-24.8,24.8c-0.6,0.6-1.5,1-2.4,1s-1.8-0.3-2.4-1l-39.3-39.3
				c-0.6-0.6-1-1.5-1-2.4s0.3-1.8,1-2.4l23-23c0.1-0.1,0.2-0.2,0.4-0.4l3.2-3.3v-27.1l-14.2,15.2v6l-33.5,33.5c-0.8,0.8-0.8,2,0,2.8
				l61.4,61.4c0.8,0.8,2,0.8,2.8,0l35.6-35.6c8.7-8.1,17.8-15.2,26.9-21l0.6-0.3l0.6-0.4c1.3-0.8,2.5-1.5,3.7-2.2l0.2-0.1
				c0.2-0.1,0.4-0.2,0.6-0.4l0.5-0.3c14.5-8.4,30-14.9,44.8-18.9c16-4.3,32.7-6.6,48.1-6.7H848c1.1,0,2-0.9,2-2v-37L835.8,1181.3
				L835.8,1181.3L835.8,1181.3z M589.8,1262.2c-2.5,0-4.5-2-4.5-4.5s2-4.5,4.5-4.5s4.5,2,4.5,4.5S592.4,1262.2,589.8,1262.2z
				 M641.5,1313.8c-2.5,0-4.5-2-4.5-4.5s2-4.5,4.5-4.5s4.5,2,4.5,4.5S644,1313.8,641.5,1313.8z M841.1,1221.1c2.5,0,4.5,2,4.5,4.5
				s-2,4.5-4.5,4.5s-4.5-2-4.5-4.5S838.6,1221.1,841.1,1221.1z"/>
			<path class="st9" d="M895.5,959.5v-9.2c0-1.1-0.9-2-2-2h-86.8c-1.1,0-2,0.9-2,2v9.2H614.2c-1.1,0-2,0.9-2,2v181.5l14.2,14.2V977
				c0-1.9,1.5-3.4,3.4-3.4h189.1v-7.8c0-1.9,1.5-3.4,3.4-3.4H878c1.9,0,3.4,1.5,3.4,3.4v7.8h118.3v-14.2L895.5,959.5L895.5,959.5z
				 M619.4,1141.8c-2.5,0-4.5-2-4.5-4.5s2-4.5,4.5-4.5s4.5,2,4.5,4.5S621.9,1141.8,619.4,1141.8z M621.2,972.9c-2.5,0-4.5-2-4.5-4.5
				s2-4.5,4.5-4.5s4.5,2,4.5,4.5S623.7,972.9,621.2,972.9z M810.5,969.8c-2.5,0-4.5-2-4.5-4.5s2-4.5,4.5-4.5s4.5,2,4.5,4.5
				S813,969.8,810.5,969.8z M889.7,969.8c-2.5,0-4.5-2-4.5-4.5s2-4.5,4.5-4.5s4.5,2,4.5,4.5S892.2,969.8,889.7,969.8z"/>
		</g>
		<g>
			<path class="st9" d="M94.7,1027c-1.1,0.2-1.8,1.2-1.6,2.3l8.4,47.4v125.8c0,1.1,0.9,2,2,2h20.6l2.9,16.6c0.2,1.1,1.2,1.8,2.3,1.6
				l85.3-15c1.1-0.2,1.8-1.2,1.6-2.3l-1.4-8l25-1.8h29.1l14.2-14.2h-43.8l-41.2,2.9l1.4,8.2c0.2,0.9,0,1.8-0.6,2.5
				c-0.5,0.8-1.3,1.2-2.2,1.4l-54.6,9.6c-0.2,0-0.4,0.1-0.6,0.1c-1.7,0-3.1-1.2-3.3-2.8l-2.3-13H119c-1.9,0-3.4-1.5-3.4-3.4v-111.4
				l-5.9-33.2c-0.3-1.8,0.9-3.6,2.8-3.9l3.1-0.6V977c0-1.9,1.5-3.4,3.4-3.4h0.2v-14.2h-15.8c-1.1,0-2,0.9-2,2v64.4L94.7,1027
				L94.7,1027L94.7,1027z M201.7,1200.1c0-2.5,2-4.5,4.5-4.5s4.5,2,4.5,4.5s-2,4.5-4.5,4.5S201.7,1202.6,201.7,1200.1z M105.7,968.3
				c0-2.5,2-4.5,4.5-4.5s4.5,2,4.5,4.5s-2,4.5-4.5,4.5S105.7,970.8,105.7,968.3z"/>
			<path class="st9" d="M288.8,1181.3L288.8,1181.3l-14.2,14.2v37c0,1.1,0.9,2,2,2H320c15.4,0.1,32.1,2.4,48.1,6.7
				c14.8,4,30.3,10.5,44.8,18.9l0.5,0.3c0.2,0.2,0.4,0.2,0.6,0.4l0.2,0.1c1.2,0.7,2.4,1.4,3.7,2.2l0.6,0.4l0.6,0.3
				c9.2,5.9,18.2,12.9,26.9,21l35.6,35.6c0.8,0.8,2,0.8,2.8,0l61.4-61.4c0.8-0.8,0.8-2,0-2.8l-33.5-33.5v-6l-14.2-15.2v27.1l3.2,3.3
				c0.1,0.1,0.2,0.2,0.4,0.4l23,23c0.7,0.7,1,1.5,1,2.4s-0.4,1.8-1,2.4l-39.3,39.3c-0.7,0.7-1.5,1-2.4,1s-1.8-0.4-2.4-1l-24.8-24.8
				c-9.5-8.8-19.5-16.6-29.5-23l-0.1-0.1l-0.1,0l-0.1-0.1l-0.1-0.1c0,0-0.1,0-0.2-0.1c-1.5-1-2.9-1.8-4.3-2.7
				c-0.3-0.2-0.6-0.4-0.9-0.5l-0.6-0.3c-15.6-9-32.2-16-48.2-20.3c-17.2-4.6-35.1-7.1-51.7-7.1h-27.8c-1.9,0-3.4-1.5-3.4-3.4
				L288.8,1181.3L288.8,1181.3L288.8,1181.3z M530.2,1257.7c0-2.5,2-4.5,4.5-4.5s4.5,2,4.5,4.5s-2,4.5-4.5,4.5
				C532.2,1262.2,530.2,1260.2,530.2,1257.7z M478.5,1309.3c0-2.5,2-4.5,4.5-4.5s4.5,2,4.5,4.5s-2,4.5-4.5,4.5
				S478.5,1311.8,478.5,1309.3z M288,1225.6c0,2.5-2,4.5-4.5,4.5s-4.5-2-4.5-4.5s2-4.5,4.5-4.5S288,1223.1,288,1225.6z"/>
			<path class="st9" d="M229,959.4H124.9v14.2h118.3v-7.8c0-1.9,1.5-3.4,3.4-3.4h55.6c1.9,0,3.4,1.5,3.4,3.4v7.8h189.1
				c1.9,0,3.4,1.5,3.4,3.4v180.1l14.2-14.2V961.4c0-1.1-0.9-2-2-2H319.8v-9.2c0-1.1-0.9-2-2-2H231c-1.1,0-2,0.9-2,2L229,959.4
				L229,959.4L229,959.4z M500.7,1137.2c0-2.5,2-4.5,4.5-4.5s4.5,2,4.5,4.5s-2,4.5-4.5,4.5S500.7,1139.7,500.7,1137.2z M498.8,968.3
				c0-2.5,2-4.5,4.5-4.5s4.5,2,4.5,4.5s-2,4.5-4.5,4.5S498.8,970.9,498.8,968.3z M309.6,965.2c0-2.5,2-4.5,4.5-4.5s4.5,2,4.5,4.5
				s-2,4.5-4.5,4.5S309.6,967.8,309.6,965.2z M230.3,965.2c0-2.5,2-4.5,4.5-4.5s4.5,2,4.5,4.5s-2,4.5-4.5,4.5
				S230.3,967.8,230.3,965.2z"/>
		</g>
	</g>
	<g id="Border03">
		<g>
			<path class="st10" d="M1029.9,1480.2l-6.8-1.2v-64.4c0-1.1-0.9-2-2-2h-15.8v14.2h0.2c1.9,0,3.4,1.5,3.4,3.4v60.7l3.1,0.6
				c1.9,0.3,3.1,2.1,2.8,3.9l-5.9,33.2v111.4c0,1.9-1.5,3.4-3.4,3.4h-16.9l-2.3,13c-0.3,1.6-1.7,2.8-3.4,2.8c-0.2,0-0.4,0-0.6-0.1
				l-54.6-9.6c-0.9-0.2-1.7-0.7-2.2-1.4c-0.5-0.7-0.7-1.7-0.6-2.5l1.4-8.2l-41.2-2.9h-43.8l14.2,14.2h29.1l25,1.8l-1.4,8
				c-0.2,1.1,0.5,2.1,1.6,2.3l85.3,15c1.1,0.2,2.1-0.5,2.3-1.6l2.9-16.6h20.6c1.1,0,2-0.9,2-2v-125.8l8.4-47.4
				C1031.7,1481.4,1030.9,1480.4,1029.9,1480.2L1029.9,1480.2L1029.9,1480.2z M918.3,1657.8c-2.5,0-4.5-2-4.5-4.5s2-4.5,4.5-4.5
				s4.5,2,4.5,4.5S920.8,1657.8,918.3,1657.8z M1014.3,1426.1c-2.5,0-4.5-2-4.5-4.5s2-4.5,4.5-4.5s4.5,2,4.5,4.5
				S1016.8,1426.1,1014.3,1426.1z"/>
			<path class="st10" d="M895.5,1412.7v-9.2c0-1.1-0.9-2-2-2h-86.8c-1.1,0-2,0.9-2,2v9.2H614.2c-1.1,0-2,0.9-2,2v261.3l-33.5,33.5
				c-0.8,0.8-0.8,2,0,2.8l61.4,61.4c0.8,0.8,2,0.8,2.8,0l35.6-35.6c8.7-8.1,17.8-15.2,26.9-21l0.6-0.3l0.6-0.4
				c1.3-0.8,2.5-1.5,3.7-2.2l0.2-0.1c0.2-0.1,0.4-0.2,0.6-0.4l0.5-0.3c14.5-8.4,30-14.9,44.8-18.9c16-4.3,32.7-6.6,48.1-6.7h43.4
				c1.1,0,2-0.9,2-2v-37l-14.2-14.2l0,0v35.6c0,1.9-1.5,3.4-3.4,3.4h-27.8c-16.7,0.1-34.6,2.5-51.7,7.1c-16,4.3-32.7,11.3-48.2,20.3
				l-0.6,0.3c-0.3,0.2-0.6,0.3-0.9,0.5c-1.4,0.8-2.8,1.7-4.3,2.7c-0.1,0.1-0.1,0.1-0.2,0.1l-0.1,0.1l-0.1,0.1l-0.1,0l-0.1,0.1
				c-10.1,6.4-20,14.2-29.5,23l-24.8,24.8c-0.6,0.6-1.5,1-2.4,1s-1.8-0.3-2.4-1l-39.3-39.3c-0.6-0.6-1-1.5-1-2.4s0.3-1.8,1-2.4
				l23-23c0.1-0.1,0.2-0.2,0.4-0.4l3.2-3.3v-251.6c0-1.9,1.5-3.4,3.4-3.4h189.1v-7.8c0-1.9,1.5-3.4,3.4-3.4h55.6
				c1.9,0,3.4,1.5,3.4,3.4v7.8h118.3v-14.2L895.5,1412.7L895.5,1412.7z M841.1,1674.3c2.5,0,4.5,2,4.5,4.5s-2,4.5-4.5,4.5
				s-4.5-2-4.5-4.5S838.6,1674.3,841.1,1674.3z M641.5,1758c2.5,0,4.5,2,4.5,4.5s-2,4.5-4.5,4.5s-4.5-2-4.5-4.5S639,1758,641.5,1758
				z M589.8,1715.5c-2.5,0-4.5-2-4.5-4.5s2-4.5,4.5-4.5s4.5,2,4.5,4.5S592.4,1715.5,589.8,1715.5z M621.2,1417.1
				c2.5,0,4.5,2,4.5,4.5s-2,4.5-4.5,4.5s-4.5-2-4.5-4.5S618.7,1417.1,621.2,1417.1z M619.3,1585.9c2.5,0,4.5,2,4.5,4.5
				s-2,4.5-4.5,4.5s-4.5-2-4.5-4.5S616.8,1585.9,619.3,1585.9z M810.5,1423c-2.5,0-4.5-2-4.5-4.5s2-4.5,4.5-4.5s4.5,2,4.5,4.5
				S813,1423,810.5,1423z M889.7,1423c-2.5,0-4.5-2-4.5-4.5s2-4.5,4.5-4.5s4.5,2,4.5,4.5S892.2,1423,889.7,1423z"/>
		</g>
		<g>
			<path class="st10" d="M94.7,1480.2c-1.1,0.2-1.8,1.2-1.6,2.3l8.4,47.4v125.8c0,1.1,0.9,2,2,2h20.6l2.9,16.6
				c0.2,1.1,1.2,1.8,2.3,1.6l85.3-15c1.1-0.2,1.8-1.2,1.6-2.3l-1.4-8l25-1.8h29.1l14.2-14.2h-43.8l-41.2,2.9l1.4,8.2
				c0.2,0.9,0,1.8-0.6,2.5c-0.5,0.8-1.3,1.2-2.2,1.4l-54.6,9.6c-0.2,0-0.4,0.1-0.6,0.1c-1.7,0-3.1-1.2-3.3-2.8l-2.3-13H119
				c-1.9,0-3.4-1.5-3.4-3.4v-111.4l-5.9-33.2c-0.3-1.8,0.9-3.6,2.8-3.9l3.1-0.6v-60.7c0-1.9,1.5-3.4,3.4-3.4h0.2v-14.2h-15.8
				c-1.1,0-2,0.9-2,2v64.4L94.7,1480.2L94.7,1480.2L94.7,1480.2z M201.7,1653.3c0-2.5,2-4.5,4.5-4.5s4.5,2,4.5,4.5s-2,4.5-4.5,4.5
				C203.7,1657.8,201.7,1655.8,201.7,1653.3z M105.7,1421.5c0-2.5,2-4.5,4.5-4.5s4.5,2,4.5,4.5s-2,4.5-4.5,4.5
				S105.7,1424,105.7,1421.5z"/>
			<path class="st10" d="M229,1412.7H124.9v14.2h118.3v-7.8c0-1.9,1.5-3.4,3.4-3.4h55.6c1.9,0,3.4,1.5,3.4,3.4v7.8h189.1
				c1.9,0,3.4,1.5,3.4,3.4v251.6l3.2,3.3c0.1,0.1,0.2,0.2,0.4,0.4l23,23c0.7,0.7,1,1.5,1,2.4s-0.4,1.8-1,2.4l-39.3,39.3
				c-0.7,0.7-1.5,1-2.4,1s-1.8-0.4-2.4-1l-24.8-24.8c-9.5-8.8-19.5-16.6-29.5-23l-0.1-0.1l-0.1,0l-0.1-0.1l-0.1-0.1
				c0,0-0.1,0-0.2-0.1c-1.5-1-2.9-1.8-4.3-2.7c-0.3-0.2-0.6-0.4-0.9-0.5l-0.6-0.3c-15.6-9-32.2-16-48.2-20.3
				c-17.2-4.6-35.1-7.1-51.7-7.1h-27.8c-1.9,0-3.4-1.5-3.4-3.4v-35.6l0,0l-14.2,14.2v37c0,1.1,0.9,2,2,2H320
				c15.4,0.1,32.1,2.4,48.1,6.7c14.8,4,30.3,10.5,44.8,18.9l0.5,0.3c0.2,0.2,0.4,0.2,0.6,0.4l0.2,0.1c1.2,0.7,2.4,1.4,3.7,2.2
				l0.6,0.4l0.6,0.3c9.2,5.9,18.2,12.9,26.9,21l35.6,35.6c0.8,0.8,2,0.8,2.8,0l61.4-61.4c0.8-0.8,0.8-2,0-2.8l-33.5-33.5v-261.3
				c0-1.1-0.9-2-2-2H319.8v-9.2c0-1.1-0.9-2-2-2H231c-1.1,0-2,0.9-2,2L229,1412.7L229,1412.7L229,1412.7z M288,1678.9
				c0,2.5-2,4.5-4.5,4.5s-4.5-2-4.5-4.5s2-4.5,4.5-4.5C286,1674.3,288,1676.3,288,1678.9z M487.6,1762.5c0,2.5-2,4.5-4.5,4.5
				s-4.5-2-4.5-4.5s2-4.5,4.5-4.5C485.5,1758,487.6,1760,487.6,1762.5z M530.2,1710.9c0-2.5,2-4.5,4.5-4.5s4.5,2,4.5,4.5
				s-2,4.5-4.5,4.5S530.2,1713.4,530.2,1710.9z M507.9,1421.6c0,2.5-2,4.5-4.5,4.5s-4.5-2-4.5-4.5s2-4.5,4.5-4.5
				S507.9,1419.1,507.9,1421.6z M509.7,1590.4c0,2.5-2,4.5-4.5,4.5s-4.5-2-4.5-4.5s2-4.5,4.5-4.5S509.7,1587.9,509.7,1590.4z
				 M309.5,1418.5c0-2.5,2-4.5,4.5-4.5s4.5,2,4.5,4.5s-2,4.5-4.5,4.5C311.6,1423,309.5,1421,309.5,1418.5z M230.3,1418.5
				c0-2.5,2-4.5,4.5-4.5s4.5,2,4.5,4.5s-2,4.5-4.5,4.5C232.4,1423,230.3,1421,230.3,1418.5z"/>
		</g>
	</g>
	<g id="Top">
		<g id="CaHole_Min_Kopie">
			<path class="st11" d="M1024.2,1933.5l-6.8-1.2v-64.4c0-1.1-0.9-2-2-2H895.5v-9.2c0-1.1-0.9-2-2-2h-86.8c-1.1,0-2,0.9-2,2v9.2
				H614.2c-1.1,0-2,0.9-2,2v261.3l-33.5,33.5c-0.8,0.8-0.8,2,0,2.8l61.4,61.4c0.8,0.8,2,0.8,2.8,0l35.6-35.6
				c8.7-8.1,17.8-15.1,26.9-21l0.6-0.3l0.6-0.4c1.3-0.8,2.5-1.5,3.7-2.2l0.2-0.1c0.2-0.1,0.4-0.2,0.6-0.4l0.5-0.3
				c14.5-8.4,30-14.9,44.8-18.9c16-4.3,32.7-6.6,48.1-6.6h43.4c1.1,0,2-0.9,2-2v-37H879l25,1.8l-1.4,8c-0.2,1.1,0.5,2.1,1.6,2.3
				l85.3,15c1.1,0.2,2.1-0.5,2.3-1.6l2.9-16.6h20.6c1.1,0,2-0.9,2-2v-125.8l8.4-47.4C1026,1934.7,1025.2,1933.6,1024.2,1933.5
				L1024.2,1933.5L1024.2,1933.5z M889.7,1868.6c1.7,0,3.1,1.4,3.1,3.1s-1.4,3.1-3.1,3.1s-3.1-1.4-3.1-3.1S888,1868.6,889.7,1868.6z
				 M810.5,1868.6c1.7,0,3.1,1.4,3.1,3.1s-1.4,3.1-3.1,3.1s-3.1-1.4-3.1-3.1S808.8,1868.6,810.5,1868.6z M670.3,2019.1
				c19.2,0,34.7,15.6,34.7,34.7c0,19.2-15.6,34.7-34.7,34.7s-34.7-15.6-34.7-34.7S651.1,2019.1,670.3,2019.1L670.3,2019.1z
				 M621.2,1871.7c1.7,0,3.1,1.4,3.1,3.1s-1.4,3.1-3.1,3.1s-3.1-1.4-3.1-3.1S619.5,1871.7,621.2,1871.7z M619.4,2040.6
				c1.7,0,3.1,1.4,3.1,3.1s-1.4,3.1-3.1,3.1s-3.1-1.4-3.1-3.1S617.6,2040.6,619.4,2040.6z M589.9,2167.3c-1.7,0-3.1-1.4-3.1-3.1
				s1.4-3.1,3.1-3.1s3.1,1.4,3.1,3.1S591.6,2167.3,589.9,2167.3z M641.5,2218.9c-1.7,0-3.1-1.4-3.1-3.1s1.4-3.1,3.1-3.1
				s3.1,1.4,3.1,3.1S643.2,2218.9,641.5,2218.9z M841.1,2135.3c-1.7,0-3.1-1.4-3.1-3.1s1.4-3.1,3.1-3.1s3.1,1.4,3.1,3.1
				S842.8,2135.3,841.1,2135.3z M841.7,2053.5c0.8,0,1.4,0.6,1.4,1.4s-0.6,1.4-1.4,1.4s-1.4-0.6-1.4-1.4S840.9,2053.5,841.7,2053.5z
				 M840.3,2049.3c0-0.8,0.6-1.4,1.4-1.4s1.4,0.6,1.4,1.4s-0.6,1.4-1.4,1.4S840.3,2050.1,840.3,2049.3z M841.7,2059.2
				c0.8,0,1.4,0.6,1.4,1.4s-0.6,1.4-1.4,1.4s-1.4-0.6-1.4-1.4S840.9,2059.2,841.7,2059.2z M841.7,2064.9c0.8,0,1.4,0.6,1.4,1.4
				s-0.6,1.4-1.4,1.4s-1.4-0.6-1.4-1.4S840.9,2064.9,841.7,2064.9z M841.7,2070.5c0.8,0,1.4,0.6,1.4,1.4s-0.6,1.4-1.4,1.4
				s-1.4-0.6-1.4-1.4S840.9,2070.5,841.7,2070.5z M847.4,2073.4c-0.8,0-1.4-0.6-1.4-1.4s0.6-1.4,1.4-1.4s1.4,0.6,1.4,1.4
				S848.2,2073.4,847.4,2073.4z M847.4,2067.7c-0.8,0-1.4-0.6-1.4-1.4s0.6-1.4,1.4-1.4s1.4,0.6,1.4,1.4S848.2,2067.7,847.4,2067.7z
				 M847.4,2062c-0.8,0-1.4-0.6-1.4-1.4s0.6-1.4,1.4-1.4s1.4,0.6,1.4,1.4S848.2,2062,847.4,2062z M847.4,2056.3
				c-0.8,0-1.4-0.6-1.4-1.4s0.6-1.4,1.4-1.4s1.4,0.6,1.4,1.4S848.2,2056.3,847.4,2056.3z M847.4,2050.7c-0.8,0-1.4-0.6-1.4-1.4
				s0.6-1.4,1.4-1.4s1.4,0.6,1.4,1.4S848.2,2050.7,847.4,2050.7z M853,2073.4c-0.8,0-1.4-0.6-1.4-1.4s0.6-1.4,1.4-1.4
				s1.4,0.6,1.4,1.4S853.8,2073.4,853,2073.4z M853,2067.7c-0.8,0-1.4-0.6-1.4-1.4s0.6-1.4,1.4-1.4s1.4,0.6,1.4,1.4
				S853.8,2067.7,853,2067.7z M853,2062c-0.8,0-1.4-0.6-1.4-1.4s0.6-1.4,1.4-1.4s1.4,0.6,1.4,1.4S853.8,2062,853,2062z M853,2056.3
				c-0.8,0-1.4-0.6-1.4-1.4s0.6-1.4,1.4-1.4s1.4,0.6,1.4,1.4S853.8,2056.3,853,2056.3z M853,2050.7c-0.8,0-1.4-0.6-1.4-1.4
				s0.6-1.4,1.4-1.4s1.4,0.6,1.4,1.4S853.8,2050.7,853,2050.7z M858.7,2073.4c-0.8,0-1.4-0.6-1.4-1.4s0.6-1.4,1.4-1.4
				s1.4,0.6,1.4,1.4S859.5,2073.4,858.7,2073.4z M858.7,2067.7c-0.8,0-1.4-0.6-1.4-1.4s0.6-1.4,1.4-1.4s1.4,0.6,1.4,1.4
				S859.5,2067.7,858.7,2067.7z M858.7,2062c-0.8,0-1.4-0.6-1.4-1.4s0.6-1.4,1.4-1.4s1.4,0.6,1.4,1.4S859.5,2062,858.7,2062z
				 M858.7,2056.3c-0.8,0-1.4-0.6-1.4-1.4s0.6-1.4,1.4-1.4s1.4,0.6,1.4,1.4S859.5,2056.3,858.7,2056.3z M858.7,2050.7
				c-0.8,0-1.4-0.6-1.4-1.4s0.6-1.4,1.4-1.4s1.4,0.6,1.4,1.4S859.5,2050.7,858.7,2050.7z M864.4,2073.4c-0.8,0-1.4-0.6-1.4-1.4
				s0.6-1.4,1.4-1.4s1.4,0.6,1.4,1.4S865.2,2073.4,864.4,2073.4z M864.4,2067.7c-0.8,0-1.4-0.6-1.4-1.4s0.6-1.4,1.4-1.4
				s1.4,0.6,1.4,1.4S865.2,2067.7,864.4,2067.7z M864.4,2062c-0.8,0-1.4-0.6-1.4-1.4s0.6-1.4,1.4-1.4s1.4,0.6,1.4,1.4
				S865.2,2062,864.4,2062z M864.4,2056.3c-0.8,0-1.4-0.6-1.4-1.4s0.6-1.4,1.4-1.4s1.4,0.6,1.4,1.4S865.2,2056.3,864.4,2056.3z
				 M864.4,2050.7c-0.8,0-1.4-0.6-1.4-1.4s0.6-1.4,1.4-1.4s1.4,0.6,1.4,1.4S865.2,2050.7,864.4,2050.7z M912.7,2109.7
				c-1.7,0-3.1-1.4-3.1-3.1s1.4-3.1,3.1-3.1s3.1,1.4,3.1,3.1S914.4,2109.7,912.7,2109.7z M1007.9,1948.4l-28.4,161.2
				c-0.2,1.1-1.2,1.8-2.3,1.6l-54.7-9.6c-1.1-0.2-1.8-1.2-1.6-2.3l5.4-30.5l-51.6-3.6c-1.1-0.1-1.9-1-1.8-2.1l1.8-25.2h-48.6v28.2
				h6.4c1.1,0,2,0.9,2,2v55.5c0,1.1-0.9,2-2,2h-27.8c-16.7,0-34.7,2.5-52.2,7.1c-16,4.3-32.8,11.4-48.5,20.4
				c-14.5,8.4-28.9,19.5-41.6,32.2l-19.6,19.6c-0.8,0.8-2.1,0.8-2.8,0l-39.2-39.2c-0.8-0.8-0.8-2.1,0-2.8l19.6-19.6
				c16.3-16.3,35-30.8,53.9-41.7c12.4-7.2,25.4-13.4,38.5-18.4l0.1-177c0-1.1,0.9-2,2-2h51.9v-6.6c0-1.1,0.9-2,2-2h51.9v-23.5
				c0-1.1,0.9-2,2-2h55.6c1.1,0,2,0.9,2,2v25.3l63.8,4.5l0,0l-5.6,80.9c-0.1,2,2.9,2.4,3.2,0.4l7.9-45.1c0.2-1.1,1.2-1.8,2.3-1.6
				l54.7,9.7C1007.3,1946.2,1008,1947.3,1007.9,1948.4L1007.9,1948.4L1007.9,1948.4z M1008.6,1878c-1.7,0-3.1-1.4-3.1-3.1
				s1.4-3.1,3.1-3.1s3.1,1.4,3.1,3.1S1010.3,1878,1008.6,1878z"/>
		</g>
		<g id="CaHole_Min_Kopie-2">
			<path class="st11" d="M100.4,1933.5c-1.1,0.2-1.8,1.2-1.6,2.3l8.4,47.4v125.8c0,1.1,0.9,2,2,2h20.6l2.9,16.6
				c0.2,1.1,1.2,1.8,2.3,1.6l85.3-15c1.1-0.2,1.8-1.2,1.6-2.3l-1.4-8l25-1.8h29.1v37c0,1.1,0.9,2,2,2H320
				c15.4,0.1,32.1,2.4,48.1,6.6c14.8,4,30.3,10.5,44.8,18.9l0.5,0.3c0.2,0.1,0.4,0.2,0.6,0.4l0.2,0.1c1.2,0.7,2.4,1.4,3.7,2.2
				l0.6,0.4l0.6,0.3c9.2,5.9,18.2,12.9,26.9,21l35.6,35.6c0.8,0.8,2,0.8,2.8,0l61.4-61.4c0.8-0.8,0.8-2,0-2.8l-33.5-33.5v-261.3
				c0-1.1-0.9-2-2-2H319.8v-9.2c0-1.1-0.9-2-2-2H231c-1.1,0-2,0.9-2,2v9.2H109.1c-1.1,0-2,0.9-2,2v64.4L100.4,1933.5L100.4,1933.5
				L100.4,1933.5z M238,1871.8c0,1.7-1.4,3.1-3.1,3.1s-3.1-1.4-3.1-3.1s1.4-3.1,3.1-3.1S238,1870,238,1871.8z M317.2,1871.8
				c0,1.7-1.4,3.1-3.1,3.1s-3.1-1.4-3.1-3.1s1.4-3.1,3.1-3.1S317.2,1870,317.2,1871.8z M489,2053.9c0,19.2-15.6,34.7-34.7,34.7
				s-34.7-15.6-34.7-34.7s15.5-34.7,34.7-34.7C473.5,2019.1,489,2034.7,489,2053.9z M506.5,1874.9c0,1.7-1.4,3.1-3.1,3.1
				s-3.1-1.4-3.1-3.1s1.4-3.1,3.1-3.1S506.5,1873.1,506.5,1874.9z M508.3,2043.7c0,1.7-1.4,3.1-3.1,3.1s-3.1-1.4-3.1-3.1
				s1.4-3.1,3.1-3.1S508.3,2042,508.3,2043.7z M531.6,2164.2c0-1.7,1.4-3.1,3.1-3.1s3.1,1.4,3.1,3.1s-1.4,3.1-3.1,3.1
				S531.6,2165.9,531.6,2164.2z M479.9,2215.8c0-1.7,1.4-3.1,3.1-3.1s3.1,1.4,3.1,3.1s-1.4,3.1-3.1,3.1S479.9,2217.5,479.9,2215.8z
				 M280.3,2132.1c0-1.7,1.4-3.1,3.1-3.1s3.1,1.4,3.1,3.1s-1.4,3.1-3.1,3.1S280.3,2133.9,280.3,2132.1z M284.3,2054.9
				c0,0.8-0.6,1.4-1.4,1.4s-1.4-0.6-1.4-1.4s0.6-1.4,1.4-1.4S284.3,2054.1,284.3,2054.9z M282.8,2050.7c-0.8,0-1.4-0.6-1.4-1.4
				s0.6-1.4,1.4-1.4s1.4,0.6,1.4,1.4S283.6,2050.7,282.8,2050.7z M284.3,2060.6c0,0.8-0.6,1.4-1.4,1.4s-1.4-0.6-1.4-1.4
				s0.6-1.4,1.4-1.4S284.3,2059.8,284.3,2060.6z M284.3,2066.3c0,0.8-0.6,1.4-1.4,1.4s-1.4-0.6-1.4-1.4s0.6-1.4,1.4-1.4
				S284.3,2065.5,284.3,2066.3z M284.3,2071.9c0,0.8-0.6,1.4-1.4,1.4s-1.4-0.6-1.4-1.4s0.6-1.4,1.4-1.4S284.3,2071.2,284.3,2071.9z
				 M275.8,2071.9c0-0.8,0.6-1.4,1.4-1.4s1.4,0.6,1.4,1.4s-0.6,1.4-1.4,1.4S275.8,2072.7,275.8,2071.9z M275.8,2066.3
				c0-0.8,0.6-1.4,1.4-1.4s1.4,0.6,1.4,1.4s-0.6,1.4-1.4,1.4S275.8,2067.1,275.8,2066.3z M275.8,2060.6c0-0.8,0.6-1.4,1.4-1.4
				s1.4,0.6,1.4,1.4s-0.6,1.4-1.4,1.4S275.8,2061.4,275.8,2060.6z M275.8,2054.9c0-0.8,0.6-1.4,1.4-1.4s1.4,0.6,1.4,1.4
				s-0.6,1.4-1.4,1.4S275.8,2055.7,275.8,2054.9z M275.8,2049.3c0-0.8,0.6-1.4,1.4-1.4s1.4,0.6,1.4,1.4s-0.6,1.4-1.4,1.4
				S275.8,2050,275.8,2049.3z M270.1,2071.9c0-0.8,0.6-1.4,1.4-1.4s1.4,0.6,1.4,1.4s-0.6,1.4-1.4,1.4S270.1,2072.7,270.1,2071.9z
				 M270.1,2066.3c0-0.8,0.6-1.4,1.4-1.4s1.4,0.6,1.4,1.4s-0.6,1.4-1.4,1.4S270.1,2067.1,270.1,2066.3z M270.1,2060.6
				c0-0.8,0.6-1.4,1.4-1.4s1.4,0.6,1.4,1.4s-0.6,1.4-1.4,1.4S270.1,2061.4,270.1,2060.6z M270.1,2054.9c0-0.8,0.6-1.4,1.4-1.4
				s1.4,0.6,1.4,1.4s-0.6,1.4-1.4,1.4S270.1,2055.7,270.1,2054.9z M270.1,2049.3c0-0.8,0.6-1.4,1.4-1.4s1.4,0.6,1.4,1.4
				s-0.6,1.4-1.4,1.4S270.1,2050,270.1,2049.3z M264.4,2071.9c0-0.8,0.6-1.4,1.4-1.4s1.4,0.6,1.4,1.4s-0.6,1.4-1.4,1.4
				S264.4,2072.7,264.4,2071.9z M264.4,2066.3c0-0.8,0.6-1.4,1.4-1.4s1.4,0.6,1.4,1.4s-0.6,1.4-1.4,1.4S264.4,2067.1,264.4,2066.3z
				 M264.4,2060.6c0-0.8,0.6-1.4,1.4-1.4s1.4,0.6,1.4,1.4s-0.6,1.4-1.4,1.4S264.4,2061.4,264.4,2060.6z M264.4,2054.9
				c0-0.8,0.6-1.4,1.4-1.4s1.4,0.6,1.4,1.4s-0.6,1.4-1.4,1.4S264.4,2055.7,264.4,2054.9z M264.4,2049.3c0-0.8,0.6-1.4,1.4-1.4
				s1.4,0.6,1.4,1.4s-0.6,1.4-1.4,1.4S264.4,2050,264.4,2049.3z M258.7,2071.9c0-0.8,0.6-1.4,1.4-1.4s1.4,0.6,1.4,1.4
				s-0.6,1.4-1.4,1.4S258.7,2072.7,258.7,2071.9z M258.7,2066.3c0-0.8,0.6-1.4,1.4-1.4s1.4,0.6,1.4,1.4s-0.6,1.4-1.4,1.4
				S258.7,2067.1,258.7,2066.3z M258.7,2060.6c0-0.8,0.6-1.4,1.4-1.4s1.4,0.6,1.4,1.4s-0.6,1.4-1.4,1.4S258.7,2061.4,258.7,2060.6z
				 M258.7,2054.9c0-0.8,0.6-1.4,1.4-1.4s1.4,0.6,1.4,1.4s-0.6,1.4-1.4,1.4S258.7,2055.7,258.7,2054.9z M258.7,2049.3
				c0-0.8,0.6-1.4,1.4-1.4s1.4,0.6,1.4,1.4s-0.6,1.4-1.4,1.4S258.7,2050,258.7,2049.3z M208.8,2106.6c0-1.7,1.4-3.1,3.1-3.1
				s3.1,1.4,3.1,3.1s-1.4,3.1-3.1,3.1S208.8,2108.3,208.8,2106.6z M116.7,1948.3c-0.2-1.1,0.5-2.1,1.6-2.3l54.7-9.7
				c1.1-0.2,2.1,0.5,2.3,1.6l7.9,45.1c0.3,2,3.3,1.7,3.2-0.4l-5.6-80.9l0,0l63.8-4.5v-25.3c0-1.1,0.9-2,2-2h55.6c1.1,0,2,0.9,2,2
				v23.5h51.9c1.1,0,2,0.9,2,2v6.6h51.9c1.1,0,2,0.9,2,2l0.1,177c13.1,5,26.1,11.2,38.5,18.4c18.9,10.9,37.6,25.4,53.9,41.7
				l19.6,19.6c0.8,0.8,0.8,2.1,0,2.8l-39.2,39.2c-0.8,0.8-2.1,0.8-2.8,0l-19.6-19.6c-12.7-12.7-27.1-23.9-41.6-32.2
				c-15.7-9.1-32.5-16.1-48.5-20.4c-17.5-4.7-35.5-7.1-52.2-7.1h-27.8c-1.1,0-2-0.9-2-2V2068c0-1.1,0.9-2,2-2h6.4v-28.2H250
				l1.8,25.2c0.1,1.1-0.8,2-1.8,2.1l-51.6,3.6l5.4,30.5c0.2,1.1-0.5,2.1-1.6,2.3l-54.7,9.6c-1.1,0.2-2.1-0.5-2.3-1.6L116.7,1948.3
				L116.7,1948.3L116.7,1948.3z M112.8,1874.8c0-1.7,1.4-3.1,3.1-3.1s3.1,1.4,3.1,3.1s-1.4,3.1-3.1,3.1S112.8,1876.6,112.8,1874.8z"
				/>
		</g>
	</g>
	<g id="Text_Kopie_Kopie_2">
		<path class="st7" d="M1064.2,99.2h26.2v7.4h-34.5V52.1h8.3V99.2z"/>
		<path class="st7" d="M1113.1,107c-2.1,0-4.2-0.4-6.1-1.1c-1.9-0.7-3.6-1.8-5-3.1c-1.4-1.3-2.6-3-3.4-4.9c-0.8-1.9-1.2-4.1-1.2-6.5
			V67.2c0-2.4,0.4-4.6,1.2-6.5c0.8-1.9,1.9-3.5,3.4-4.9c1.4-1.3,3.1-2.4,5-3.1c1.9-0.7,3.9-1.1,6.1-1.1s4.2,0.4,6.2,1.1
			s3.6,1.8,5,3.1s2.6,3,3.4,4.9c0.8,1.9,1.2,4.1,1.2,6.5v24.2c0,2.4-0.4,4.6-1.2,6.5c-0.8,1.9-1.9,3.6-3.4,4.9
			c-1.4,1.3-3.1,2.4-5,3.1S1115.3,107,1113.1,107z M1113.1,100.1c2.5,0,4.4-0.8,5.9-2.5c1.4-1.7,2.1-3.8,2.1-6.4V67.5
			c0-2.6-0.7-4.7-2.1-6.4c-1.4-1.7-3.4-2.5-5.9-2.5s-4.4,0.8-5.8,2.5c-1.4,1.7-2.1,3.8-2.1,6.4v23.7c0,2.6,0.7,4.7,2.1,6.4
			C1108.7,99.2,1110.7,100.1,1113.1,100.1z"/>
		<path class="st7" d="M1152.9,60.6l-10.6,9.3v-8.7l10.6-9.2h7.8v54.5h-7.8V60.6z"/>
		<path class="st8" d="M1064.2,552.7h26.2v7.4h-34.5v-54.5h8.3V552.7z"/>
		<path class="st8" d="M1113.1,560.6c-2.1,0-4.2-0.4-6.1-1.1c-1.9-0.7-3.6-1.8-5-3.1c-1.4-1.3-2.6-3-3.4-4.9
			c-0.8-1.9-1.2-4.1-1.2-6.5v-24.2c0-2.5,0.4-4.6,1.2-6.5c0.8-1.9,1.9-3.5,3.4-4.9c1.4-1.4,3.1-2.4,5-3.1c1.9-0.7,3.9-1.1,6.1-1.1
			s4.2,0.4,6.2,1.1c1.9,0.7,3.6,1.8,5,3.1s2.6,3,3.4,4.9c0.8,1.9,1.2,4.1,1.2,6.5V545c0,2.5-0.4,4.6-1.2,6.5
			c-0.8,1.9-1.9,3.5-3.4,4.9c-1.4,1.3-3.1,2.4-5,3.1S1115.3,560.6,1113.1,560.6z M1113.1,553.6c2.5,0,4.4-0.8,5.9-2.5
			c1.4-1.7,2.1-3.8,2.1-6.4V521c0-2.6-0.7-4.7-2.1-6.4c-1.4-1.7-3.4-2.5-5.9-2.5s-4.4,0.8-5.8,2.5c-1.4,1.7-2.1,3.8-2.1,6.4v23.7
			c0,2.6,0.7,4.7,2.1,6.4C1108.7,552.8,1110.7,553.6,1113.1,553.6z"/>
		<path class="st8" d="M1138.4,553.2l21-25.5c1-1.3,1.8-2.5,2.2-3.6s0.7-2.3,0.7-3.7c0-2.5-0.7-4.4-2.1-6c-1.4-1.5-3.3-2.3-5.9-2.3
			c-1,0-2,0.2-3,0.5c-1,0.3-1.8,0.8-2.6,1.5c-0.7,0.7-1.3,1.5-1.8,2.6c-0.5,1.1-0.7,2.4-0.7,3.9h-7.8c0-2.3,0.4-4.4,1.2-6.3
			c0.8-1.9,1.9-3.5,3.3-4.9c1.4-1.3,3.1-2.4,5-3.1c1.9-0.7,4.1-1.1,6.4-1.1s4.5,0.4,6.4,1.1c1.9,0.7,3.6,1.7,5,3.1
			c1.4,1.3,2.4,2.9,3.2,4.8c0.8,1.9,1.1,4,1.1,6.3s-0.4,4.5-1.3,6.2c-0.9,1.7-2.1,3.6-3.8,5.6l-17.1,20.9h22.2v7h-31.7L1138.4,553.2
			L1138.4,553.2z"/>
		<path class="st9" d="M1064.2,1006.2h26.2v7.4h-34.5v-54.5h8.3V1006.2z"/>
		<path class="st9" d="M1113.1,1014.1c-2.1,0-4.2-0.4-6.1-1.1c-1.9-0.7-3.6-1.8-5-3.1c-1.4-1.3-2.6-3-3.4-4.9
			c-0.8-1.9-1.2-4.1-1.2-6.5v-24.2c0-2.5,0.4-4.6,1.2-6.5c0.8-1.9,1.9-3.5,3.4-4.9c1.4-1.3,3.1-2.4,5-3.1c1.9-0.7,3.9-1.1,6.1-1.1
			s4.2,0.4,6.2,1.1s3.6,1.8,5,3.1s2.6,3,3.4,4.9c0.8,1.9,1.2,4.1,1.2,6.5v24.2c0,2.5-0.4,4.6-1.2,6.5c-0.8,1.9-1.9,3.5-3.4,4.9
			c-1.4,1.3-3.1,2.4-5,3.1S1115.3,1014.1,1113.1,1014.1z M1113.1,1007.2c2.5,0,4.4-0.8,5.9-2.5c1.4-1.7,2.1-3.8,2.1-6.4v-23.7
			c0-2.6-0.7-4.7-2.1-6.4c-1.4-1.7-3.4-2.5-5.9-2.5s-4.4,0.8-5.8,2.5c-1.4,1.7-2.1,3.8-2.1,6.4v23.7c0,2.6,0.7,4.7,2.1,6.4
			C1108.7,1006.3,1110.7,1007.2,1113.1,1007.2z"/>
		<path class="st9" d="M1153.5,1014.2c-2.2,0-4.3-0.3-6.2-0.9c-2-0.6-3.7-1.5-5.2-2.8s-2.8-2.8-3.7-4.8s-1.4-4.2-1.5-6.9h7.8
			c0.1,1.5,0.3,2.7,0.9,3.8c0.5,1,1.2,1.9,2,2.6c0.8,0.7,1.7,1.2,2.8,1.5c1,0.3,2.1,0.5,3.2,0.5c2.6,0,4.7-0.8,6.4-2.3
			c1.7-1.6,2.5-3.8,2.5-6.7c0-2.8-0.8-4.9-2.3-6.5c-1.5-1.6-3.8-2.4-6.9-2.4h-1.3v-6.8h1.3c2.9,0,4.9-0.7,6.3-2.2s2-3.5,2-6
			c0-2.8-0.8-4.8-2.3-6.3c-1.6-1.4-3.5-2.1-5.7-2.1c-2.4,0-4.3,0.7-5.7,2.1s-2.2,3.3-2.4,5.7h-7.8c0.1-2.3,0.6-4.4,1.4-6.2
			c0.9-1.8,2-3.4,3.4-4.7c1.4-1.3,3.1-2.3,5-3c1.9-0.7,3.9-1,6.1-1s4.4,0.4,6.4,1.1c1.9,0.7,3.6,1.8,5,3.1c1.4,1.3,2.5,3,3.3,4.8
			s1.2,3.9,1.2,6.2c0,2.9-0.6,5.3-1.8,7.2c-1.2,1.9-2.9,3.3-5,4.4c2.4,1,4.2,2.6,5.6,4.7c1.4,2.1,2.1,4.8,2.1,8.2
			c0,2.6-0.4,4.9-1.3,6.9c-0.9,2-2.1,3.7-3.6,5c-1.5,1.3-3.3,2.3-5.3,3C1157.9,1013.9,1155.8,1014.2,1153.5,1014.2L1153.5,1014.2z"
			/>
		<path class="st10" d="M1064.2,1459.8h26.2v7.4h-34.5v-54.5h8.3V1459.8z"/>
		<path class="st10" d="M1113.1,1467.7c-2.1,0-4.2-0.4-6.1-1.1c-1.9-0.7-3.6-1.8-5-3.1c-1.4-1.3-2.6-3-3.4-4.9s-1.2-4.1-1.2-6.5
			v-24.2c0-2.4,0.4-4.6,1.2-6.5c0.8-1.9,1.9-3.6,3.4-4.9c1.4-1.3,3.1-2.4,5-3.1c1.9-0.7,3.9-1.1,6.1-1.1s4.2,0.4,6.2,1.1
			s3.6,1.8,5,3.1s2.6,3,3.4,4.9s1.2,4.1,1.2,6.5v24.2c0,2.4-0.4,4.6-1.2,6.5c-0.8,1.9-1.9,3.6-3.4,4.9c-1.4,1.3-3.1,2.4-5,3.1
			S1115.3,1467.7,1113.1,1467.7z M1113.1,1460.7c2.5,0,4.4-0.8,5.9-2.5c1.4-1.7,2.1-3.8,2.1-6.4v-23.7c0-2.6-0.7-4.7-2.1-6.4
			c-1.4-1.7-3.4-2.5-5.9-2.5s-4.4,0.8-5.8,2.5c-1.4,1.7-2.1,3.8-2.1,6.4v23.7c0,2.6,0.7,4.7,2.1,6.4
			C1108.7,1459.9,1110.7,1460.7,1113.1,1460.7z"/>
		<path class="st10" d="M1158.3,1459h-22v-7.3l19.2-39h8.4l-19.1,39h13.6v-12.7h7.6v12.7h5.8v7.3h-5.8v8.2h-7.6L1158.3,1459
			L1158.3,1459z"/>
		<path class="st11" d="M1064.2,1913.3h26.2v7.4h-34.5v-54.5h8.3V1913.3z"/>
		<path class="st11" d="M1113.1,1921.2c-2.1,0-4.2-0.4-6.1-1.1c-1.9-0.7-3.6-1.8-5-3.1c-1.4-1.3-2.6-3-3.4-4.9s-1.2-4.1-1.2-6.5
			v-24.2c0-2.4,0.4-4.6,1.2-6.5c0.8-1.9,1.9-3.6,3.4-4.9c1.4-1.3,3.1-2.4,5-3.1c1.9-0.7,3.9-1.1,6.1-1.1s4.2,0.4,6.2,1.1
			s3.6,1.8,5,3.1s2.6,3,3.4,4.9s1.2,4.1,1.2,6.5v24.2c0,2.4-0.4,4.6-1.2,6.5c-0.8,1.9-1.9,3.6-3.4,4.9c-1.4,1.3-3.1,2.4-5,3.1
			S1115.3,1921.2,1113.1,1921.2z M1113.1,1914.3c2.5,0,4.4-0.8,5.9-2.5c1.4-1.7,2.1-3.8,2.1-6.4v-23.7c0-2.6-0.7-4.7-2.1-6.4
			c-1.4-1.7-3.4-2.5-5.9-2.5s-4.4,0.8-5.8,2.5c-1.4,1.7-2.1,3.8-2.1,6.4v23.7c0,2.6,0.7,4.7,2.1,6.4
			C1108.7,1913.4,1110.7,1914.3,1113.1,1914.3z"/>
		<path class="st11" d="M1154.1,1921.2c-2.6,0-4.9-0.4-6.9-1.2c-2-0.8-3.6-1.8-4.8-3c-1.5-1.5-2.5-3.1-3.1-4.9s-0.9-3.6-1.1-5.6h7.8
			c0.3,2.4,1.1,4.3,2.4,5.6s3.1,1.9,5.6,1.9s4.2-0.7,5.7-2.1c1.2-1.2,1.9-2.6,2.2-4.3c0.3-1.7,0.4-3.4,0.4-5.3
			c0-1.6-0.1-3.1-0.3-4.5s-0.6-2.6-1.3-3.6s-1.4-1.8-2.4-2.4c-1-0.6-2.3-0.8-3.9-0.8c-2.2,0-4,0.5-5.2,1.4c-1.2,1-2.1,2.1-2.5,3.4
			h-7.1v-29.8h29.4v7h-22.4v14.4c0.9-1,2.2-1.7,3.7-2.3c1.6-0.6,3.3-0.8,5.3-0.8c2.1,0,4,0.3,5.7,0.9s3,1.5,4.1,2.6
			c1,1,1.9,2.1,2.5,3.3s1.1,2.4,1.4,3.6c0.3,1.2,0.6,2.5,0.6,3.8c0.1,1.3,0.1,2.6,0.1,3.8c0,2.9-0.3,5.6-0.8,7.9
			c-0.5,2.4-1.8,4.6-3.8,6.5c-1.2,1.2-2.8,2.2-4.7,3.1C1159,1920.8,1156.8,1921.2,1154.1,1921.2L1154.1,1921.2z"/>
		<g>
			<path class="st6" d="M1181.7,66c-0.3,0.2-0.6,0.3-1,0.4c-0.4,0.1-0.8,0.1-1.1,0.1c-0.8,0-1.6-0.2-2.3-0.5s-1.4-0.8-1.9-1.3
				s-1-1.3-1.3-2.1c-0.3-0.8-0.5-1.7-0.5-2.8s0.2-2,0.5-2.9s0.8-1.6,1.4-2.2c0.6-0.6,1.3-1.1,2.1-1.4s1.8-0.5,2.8-0.5
				s1.9,0.2,2.7,0.5s1.6,0.8,2.2,1.4c0.6,0.6,1.1,1.3,1.4,2.2c0.3,0.8,0.5,1.8,0.5,2.9c0,0.8-0.1,1.6-0.3,2.4s-0.6,1.8-1.2,3.1
				l-5.4,10.9h-3.6L1181.7,66L1181.7,66z M1180.3,63.8c1.1,0,1.9-0.4,2.6-1.1c0.6-0.7,1-1.7,1-2.9s-0.3-2.2-1-3s-1.5-1.1-2.6-1.1
				s-1.9,0.4-2.5,1.1c-0.6,0.7-1,1.7-1,3c0,1.2,0.3,2.1,0.9,2.9C1178.4,63.4,1179.2,63.8,1180.3,63.8L1180.3,63.8z"/>
			<path class="st6" d="M1212.3,76.1h-3.5V60.6l-5.3,11.3h-2.6l-5.4-11.3v15.4h-3.5V53h3.5l6.8,14.4l6.6-14.4h3.5V76.1L1212.3,76.1z
				"/>
			<path class="st6" d="M1238.8,76.1h-3.5V60.6l-5.3,11.3h-2.6l-5.4-11.3v15.4h-3.5V53h3.5l6.8,14.4l6.6-14.4h3.5V76.1L1238.8,76.1z
				"/>
		</g>
		<g>
			<path class="st5" d="M1183.9,87.2h-7v3.6h-3.2v-6.6h13.8v2.9l-7.7,20.2h-3.6L1183.9,87.2z"/>
			<path class="st5" d="M1212.3,107.3h-3.5V91.9l-5.3,11.3h-2.6l-5.4-11.3v15.4h-3.5V84.2h3.5l6.8,14.4l6.6-14.4h3.5V107.3z"/>
			<path class="st5" d="M1238.8,107.3h-3.5V91.9l-5.3,11.3h-2.6l-5.4-11.3v15.4h-3.5V84.2h3.5l6.8,14.4l6.6-14.4h3.5V107.3z"/>
		</g>
	</g>
</g>
</svg>
