<?xml version="1.0" encoding="UTF-8"?>
<svg id="PCB_holes" data-name="PCB holes" xmlns="http://www.w3.org/2000/svg" width="150.37mm" height="104.9mm" viewBox="0 0 426.25 297.35">
  <defs>
    <style>
      .cls-1 {
        fill: none;
        stroke: blue;
        stroke-miterlimit: 10;
        stroke-width: .28px;
      }
    </style>
  </defs>
  <g id="Acrylcase">
    <path class="cls-1" d="M424.46,124.63l-51.04-9.01,6.59-37.39c.19-1.08-.53-2.11-1.61-2.3l-10.79-1.91V13.31c0-1.1-.89-1.98-1.98-1.98h-113.41V2.12c0-1.1-.89-1.98-1.98-1.98h-55.63c-1.1,0-1.98,.89-1.98,1.98V11.33H2.12c-1.1,0-1.98,.89-1.98,1.98V283.86c0,1.1,.89,1.98,1.98,1.98H43.44l5.99,10.38c.55,.95,1.77,1.28,2.72,.72l17.62-10.24c.09-.07,.19-.13,.29-.18,.08-.06,.16-.11,.25-.16,1.45-.92,2.9-1.81,4.36-2.67,.49-.3,.99-.58,1.48-.87,15.7-9.07,32.55-16.13,48.58-20.42,17.46-4.68,35.44-7.12,52.11-7.18h27.82c1.1,0,1.98-.89,1.98-1.98v-37.02h45.3l42.78,3-1.72,9.73c-.19,1.08,.53,2.11,1.61,2.3l54.62,9.63c1.08,.19,2.11-.53,2.3-1.61l2.1-11.91,51.13,9.02c1.08,.19,2.11-.53,2.3-1.61l19.02-107.85c.19-1.08-.53-2.11-1.61-2.3h0ZM202.58,9.99h39.69V49.68h-39.69V9.99Zm-19.11,5.87c1.64,0,2.98,1.33,2.98,2.98s-1.33,2.98-2.98,2.98-2.98-1.33-2.98-2.98,1.33-2.98,2.98-2.98Zm-34.81,19.64h39.69v39.68h-39.69V35.5Zm0,54.1h39.69v39.69h-39.69v-39.69Zm-53.84-45.7h39.68v39.69h-39.68V43.9Zm-.08,54.14h39.68v39.69h-39.68v-39.69Zm0,54.14h39.68v39.69h-39.68v-39.69ZM7.53,15.75c1.64,0,2.98,1.33,2.98,2.98s-1.33,2.98-2.98,2.98-2.98-1.33-2.98-2.98,1.33-2.98,2.98-2.98ZM82.44,87.86v42H7.64v-42H82.44ZM7.53,246.86c-1.64,0-2.98-1.33-2.98-2.98s1.33-2.98,2.98-2.98,2.98,1.33,2.98,2.98-1.33,2.98-2.98,2.98Zm15.74-81.85H61.82v37.42H23.27v-37.42h0Zm30.7,119.25l-19.84-34.37,34.37-19.84,19.84,34.37-34.37,19.84Zm48.94-26.06l-10.27-38.33,38.33-10.27,10.27,38.33-38.33,10.27h0Zm45.67-114.67h39.69v39.69h-39.69v-39.69Zm48.05,102.05h-39.68v-39.68h39.68v39.68Zm5.95-181.69h39.69v39.69h-39.69V63.89Zm11.41,139.3c-.78,0-1.42-.63-1.42-1.42s.63-1.42,1.42-1.42,1.42,.63,1.42,1.42-.63,1.42-1.42,1.42Zm0-5.67c-.78,0-1.42-.63-1.42-1.42s.63-1.42,1.42-1.42,1.42,.63,1.42,1.42-.63,1.42-1.42,1.42Zm0-5.67c-.78,0-1.42-.63-1.42-1.42s.63-1.42,1.42-1.42,1.42,.63,1.42,1.42-.63,1.42-1.42,1.42Zm0-5.67c-.78,0-1.42-.63-1.42-1.42s.63-1.42,1.42-1.42,1.42,.63,1.42,1.42-.63,1.42-1.42,1.42Zm0-5.67c-.78,0-1.42-.63-1.42-1.42s.63-1.42,1.42-1.42,1.42,.63,1.42,1.42-.63,1.42-1.42,1.42Zm5.67,22.68c-.78,0-1.42-.63-1.42-1.42s.63-1.42,1.42-1.42,1.42,.63,1.42,1.42-.63,1.42-1.42,1.42Zm0-5.67c-.78,0-1.42-.63-1.42-1.42s.63-1.42,1.42-1.42,1.42,.63,1.42,1.42-.63,1.42-1.42,1.42Zm0-5.67c-.78,0-1.42-.63-1.42-1.42s.63-1.42,1.42-1.42,1.42,.63,1.42,1.42-.63,1.42-1.42,1.42Zm0-5.67c-.78,0-1.42-.63-1.42-1.42s.63-1.42,1.42-1.42,1.42,.63,1.42,1.42-.63,1.42-1.42,1.42Zm0-5.67c-.78,0-1.42-.63-1.42-1.42s.63-1.42,1.42-1.42,1.42,.63,1.42,1.42-.63,1.42-1.42,1.42Zm5.67,22.68c-.78,0-1.42-.63-1.42-1.42s.63-1.42,1.42-1.42,1.42,.63,1.42,1.42-.63,1.42-1.42,1.42Zm0-5.67c-.78,0-1.42-.63-1.42-1.42s.63-1.42,1.42-1.42,1.42,.63,1.42,1.42-.63,1.42-1.42,1.42Zm0-5.67c-.78,0-1.42-.63-1.42-1.42s.63-1.42,1.42-1.42,1.42,.63,1.42,1.42-.63,1.42-1.42,1.42Zm0-5.67c-.78,0-1.42-.63-1.42-1.42s.63-1.42,1.42-1.42,1.42,.63,1.42,1.42-.63,1.42-1.42,1.42Zm0-5.67c-.78,0-1.42-.63-1.42-1.42s.63-1.42,1.42-1.42,1.42,.63,1.42,1.42-.63,1.42-1.42,1.42Zm5.67,22.68c-.78,0-1.42-.63-1.42-1.42s.63-1.42,1.42-1.42,1.42,.63,1.42,1.42-.63,1.42-1.42,1.42Zm0-5.67c-.78,0-1.42-.63-1.42-1.42s.63-1.42,1.42-1.42,1.42,.63,1.42,1.42-.63,1.42-1.42,1.42Zm0-5.67c-.78,0-1.42-.63-1.42-1.42s.63-1.42,1.42-1.42,1.42,.63,1.42,1.42-.63,1.42-1.42,1.42Zm0-5.67c-.78,0-1.42-.63-1.42-1.42s.63-1.42,1.42-1.42,1.42,.63,1.42,1.42-.63,1.42-1.42,1.42Zm0-5.67c-.78,0-1.42-.63-1.42-1.42s.63-1.42,1.42-1.42,1.42,.63,1.42,1.42-.63,1.42-1.42,1.42Zm5.67,22.68c-.78,0-1.42-.63-1.42-1.42s.63-1.42,1.42-1.42,1.42,.63,1.42,1.42-.63,1.42-1.42,1.42Zm0-5.67c-.78,0-1.42-.63-1.42-1.42s.63-1.42,1.42-1.42,1.42,.63,1.42,1.42-.63,1.42-1.42,1.42Zm0-5.67c-.78,0-1.42-.63-1.42-1.42s.63-1.42,1.42-1.42,1.42,.63,1.42,1.42-.63,1.42-1.42,1.42Zm0-5.67c-.78,0-1.42-.63-1.42-1.42s.63-1.42,1.42-1.42,1.42,.63,1.42,1.42-.63,1.42-1.42,1.42Zm0-5.67c-.78,0-1.42-.63-1.42-1.42s.63-1.42,1.42-1.42,1.42,.63,1.42,1.42-.63,1.42-1.42,1.42Zm5.67-22.8h-39.69v-39.68h39.69v39.68Zm3.24-44.37c-1.64,0-2.98-1.33-2.98-2.98s1.33-2.98,2.98-2.98,2.98,1.33,2.98,2.98-1.33,2.98-2.98,2.98Zm84.31-35.76l39.08,6.89-6.89,39.08-39.08-6.89,6.89-39.08h0ZM264.99,15.74c1.64,0,2.98,1.33,2.98,2.98s-1.33,2.98-2.98,2.98-2.98-1.33-2.98-2.98,1.33-2.98,2.98-2.98Zm21,195.17c-1.64,0-2.98-1.33-2.98-2.98s1.33-2.98,2.98-2.98,2.98,1.33,2.98,2.98-1.33,2.98-2.98,2.98Zm9.11-22.48l-39.59-2.77,2.77-39.59,39.59,2.77-2.77,39.59Zm3.7-54.01l-39.59-2.77,2.77-39.59,39.59,2.77-2.77,39.59h0Zm-35.83-56.53l2.77-39.59,39.59,2.77-2.77,39.59-39.59-2.77h0Zm80.42,152.07l-39.08-6.89,6.89-39.08,39.08,6.89-6.89,39.08Zm9.33-53.33l-39.08-6.89,6.89-39.08,39.08,6.89-6.89,39.08Zm46.22,48.66l-39.08-6.89,6.89-39.08,39.08,6.89-6.89,39.08h0Zm9.33-53.33l-39.08-6.89,6.89-39.08,39.08,6.89-6.89,39.08Z"/>
  </g>
</svg>