  0
SECTION
  2
HEADER
  9
$ACADVER
  1
AC1032
  9
$ACADMAINTVER
 90
      228
  9
$DWGCODEPAGE
  3
ANSI_1252
  9
$REQUIREDVERSIONS
160
                 0
  9
$INSBASE
 10
0.0
 20
0.0
 30
0.0
  9
$EXTMIN
 10
1.000000000000000E+20
 20
1.000000000000000E+20
 30
1.000000000000000E+20
  9
$EXTMAX
 10
-1.000000000000000E+20
 20
-1.000000000000000E+20
 30
-1.000000000000000E+20
  9
$LIMMIN
 10
0.0
 20
0.0
  9
$LIMMAX
 10
12.0
 20
9.0
  9
$ORTHOMODE
 70
     0
  9
$REGENMODE
 70
     1
  9
$FILLMODE
 70
     1
  9
$QTEXTMODE
 70
     0
  9
$MIRRTEXT
 70
     0
  9
$LTSCALE
 40
1.0
  9
$ATTMODE
 70
     1
  9
$TEXTSIZE
 40
0.2
  9
$TRACEWID
 40
0.05
  9
$TEXTSTYLE
  7
Standard
  9
$CLAYER
  8
0
  9
$CELTYPE
  6
ByLayer
  9
$CECOLOR
 62
   256
  9
$CELTSCALE
 40
1.0
  9
$DISPSILH
 70
     0
  9
$DIMSCALE
 40
1.0
  9
$DIMASZ
 40
0.18
  9
$DIMEXO
 40
0.0625
  9
$DIMDLI
 40
0.38
  9
$DIMRND
 40
0.0
  9
$DIMDLE
 40
0.0
  9
$DIMEXE
 40
0.18
  9
$DIMTP
 40
0.0
  9
$DIMTM
 40
0.0
  9
$DIMTXT
 40
0.18
  9
$DIMCEN
 40
0.09
  9
$DIMTSZ
 40
0.0
  9
$DIMTOL
 70
     0
  9
$DIMLIM
 70
     0
  9
$DIMTIH
 70
     1
  9
$DIMTOH
 70
     1
  9
$DIMSE1
 70
     0
  9
$DIMSE2
 70
     0
  9
$DIMTAD
 70
     0
  9
$DIMZIN
 70
     0
  9
$DIMBLK
  1

  9
$DIMASO
 70
     1
  9
$DIMSHO
 70
     1
  9
$DIMPOST
  1

  9
$DIMAPOST
  1

  9
$DIMALT
 70
     0
  9
$DIMALTD
 70
     2
  9
$DIMALTF
 40
25.4
  9
$DIMLFAC
 40
1.0
  9
$DIMTOFL
 70
     0
  9
$DIMTVP
 40
0.0
  9
$DIMTIX
 70
     0
  9
$DIMSOXD
 70
     0
  9
$DIMSAH
 70
     0
  9
$DIMBLK1
  1

  9
$DIMBLK2
  1

  9
$DIMSTYLE
  2
Standard
  9
$DIMCLRD
 70
     0
  9
$DIMCLRE
 70
     0
  9
$DIMCLRT
 70
     0
  9
$DIMTFAC
 40
1.0
  9
$DIMGAP
 40
0.09
  9
$DIMJUST
 70
     0
  9
$DIMSD1
 70
     0
  9
$DIMSD2
 70
     0
  9
$DIMTOLJ
 70
     1
  9
$DIMTZIN
 70
     0
  9
$DIMALTZ
 70
     0
  9
$DIMALTTZ
 70
     0
  9
$DIMUPT
 70
     0
  9
$DIMDEC
 70
     4
  9
$DIMTDEC
 70
     4
  9
$DIMALTU
 70
     2
  9
$DIMALTTD
 70
     2
  9
$DIMTXSTY
  7
Standard
  9
$DIMAUNIT
 70
     0
  9
$DIMADEC
 70
     0
  9
$DIMALTRND
 40
0.0
  9
$DIMAZIN
 70
     0
  9
$DIMDSEP
 70
    46
  9
$DIMATFIT
 70
     3
  9
$DIMFRAC
 70
     0
  9
$DIMLDRBLK
  1

  9
$DIMLUNIT
 70
     2
  9
$DIMLWD
 70
    -2
  9
$DIMLWE
 70
    -2
  9
$DIMTMOVE
 70
     0
  9
$DIMFXL
 40
1.0
  9
$DIMFXLON
 70
     0
  9
$DIMJOGANG
 40
0.7853981633974483
  9
$DIMTFILL
 70
     0
  9
$DIMTFILLCLR
 70
     0
  9
$DIMARCSYM
 70
     0
  9
$DIMLTYPE
  6

  9
$DIMLTEX1
  6

  9
$DIMLTEX2
  6

  9
$DIMTXTDIRECTION
 70
     0
  9
$LUNITS
 70
     2
  9
$LUPREC
 70
     4
  9
$SKETCHINC
 40
0.1
  9
$FILLETRAD
 40
0.0
  9
$AUNITS
 70
     0
  9
$AUPREC
 70
     0
  9
$MENU
  1
.
  9
$ELEVATION
 40
0.0
  9
$PELEVATION
 40
0.0
  9
$THICKNESS
 40
0.0
  9
$LIMCHECK
 70
     0
  9
$CHAMFERA
 40
0.0
  9
$CHAMFERB
 40
0.0
  9
$CHAMFERC
 40
0.0
  9
$CHAMFERD
 40
0.0
  9
$SKPOLY
 70
     0
  9
$TDCREATE
 40
2459759.048368055
  9
$TDUCREATE
 40
2459758.965034723
  9
$TDUPDATE
 40
2459759.048368055
  9
$TDUUPDATE
 40
2459758.965034723
  9
$TDINDWG
 40
0.0000000000
  9
$TDUSRTIMER
 40
0.0000000000
  9
$USRTIMER
 70
     1
  9
$ANGBASE
 50
0.0
  9
$ANGDIR
 70
     0
  9
$PDMODE
 70
     0
  9
$PDSIZE
 40
0.0
  9
$PLINEWID
 40
0.0
  9
$SPLFRAME
 70
     0
  9
$SPLINETYPE
 70
     6
  9
$SPLINESEGS
 70
     8
  9
$HANDSEED
  5
B7
  9
$SURFTAB1
 70
     6
  9
$SURFTAB2
 70
     6
  9
$SURFTYPE
 70
     6
  9
$SURFU
 70
     6
  9
$SURFV
 70
     6
  9
$UCSBASE
  2

  9
$UCSNAME
  2

  9
$UCSORG
 10
0.0
 20
0.0
 30
0.0
  9
$UCSXDIR
 10
1.0
 20
0.0
 30
0.0
  9
$UCSYDIR
 10
0.0
 20
1.0
 30
0.0
  9
$UCSORTHOREF
  2

  9
$UCSORTHOVIEW
 70
     0
  9
$UCSORGTOP
 10
0.0
 20
0.0
 30
0.0
  9
$UCSORGBOTTOM
 10
0.0
 20
0.0
 30
0.0
  9
$UCSORGLEFT
 10
0.0
 20
0.0
 30
0.0
  9
$UCSORGRIGHT
 10
0.0
 20
0.0
 30
0.0
  9
$UCSORGFRONT
 10
0.0
 20
0.0
 30
0.0
  9
$UCSORGBACK
 10
0.0
 20
0.0
 30
0.0
  9
$PUCSBASE
  2

  9
$PUCSNAME
  2

  9
$PUCSORG
 10
0.0
 20
0.0
 30
0.0
  9
$PUCSXDIR
 10
1.0
 20
0.0
 30
0.0
  9
$PUCSYDIR
 10
0.0
 20
1.0
 30
0.0
  9
$PUCSORTHOREF
  2

  9
$PUCSORTHOVIEW
 70
     0
  9
$PUCSORGTOP
 10
0.0
 20
0.0
 30
0.0
  9
$PUCSORGBOTTOM
 10
0.0
 20
0.0
 30
0.0
  9
$PUCSORGLEFT
 10
0.0
 20
0.0
 30
0.0
  9
$PUCSORGRIGHT
 10
0.0
 20
0.0
 30
0.0
  9
$PUCSORGFRONT
 10
0.0
 20
0.0
 30
0.0
  9
$PUCSORGBACK
 10
0.0
 20
0.0
 30
0.0
  9
$USERI1
 70
     0
  9
$USERI2
 70
     0
  9
$USERI3
 70
     0
  9
$USERI4
 70
     0
  9
$USERI5
 70
     0
  9
$USERR1
 40
0.0
  9
$USERR2
 40
0.0
  9
$USERR3
 40
0.0
  9
$USERR4
 40
0.0
  9
$USERR5
 40
0.0
  9
$WORLDVIEW
 70
     1
  9
$SHADEDGE
 70
     3
  9
$SHADEDIF
 70
    70
  9
$TILEMODE
 70
     1
  9
$MAXACTVP
 70
    64
  9
$PINSBASE
 10
0.0
 20
0.0
 30
0.0
  9
$PLIMCHECK
 70
     0
  9
$PEXTMIN
 10
1.000000000000000E+20
 20
1.000000000000000E+20
 30
1.000000000000000E+20
  9
$PEXTMAX
 10
-1.000000000000000E+20
 20
-1.000000000000000E+20
 30
-1.000000000000000E+20
  9
$PLIMMIN
 10
0.0
 20
0.0
  9
$PLIMMAX
 10
12.0
 20
9.0
  9
$UNITMODE
 70
     0
  9
$VISRETAIN
 70
     1
  9
$PLINEGEN
 70
     0
  9
$PSLTSCALE
 70
     1
  9
$TREEDEPTH
 70
  3020
  9
$CMLSTYLE
  2
Standard
  9
$CMLJUST
 70
     0
  9
$CMLSCALE
 40
1.0
  9
$PROXYGRAPHICS
 70
     1
  9
$MEASUREMENT
 70
     0
  9
$CELWEIGHT
370
    -1
  9
$ENDCAPS
280
     0
  9
$JOINSTYLE
280
     0
  9
$LWDISPLAY
290
     1
  9
$INSUNITS
 70
     4
  9
$HYPERLINKBASE
  1

  9
$STYLESHEET
  1

  9
$XEDIT
290
     1
  9
$CEPSNTYPE
380
     0
  9
$PSTYLEMODE
290
     1
  9
$FINGERPRINTGUID
  2
{D295FC56-2420-CB45-BF17-94CAB7428D94}
  9
$VERSIONGUID
  2
{22C1A5A0-327D-0C4B-8830-13FA2C059E10}
  9
$EXTNAMES
290
     1
  9
$PSVPSCALE
 40
0.0
  9
$OLESTARTUP
290
     0
  9
$SORTENTS
280
   127
  9
$INDEXCTL
280
     0
  9
$HIDETEXT
280
     1
  9
$XCLIPFRAME
280
     2
  9
$HALOGAP
280
     0
  9
$OBSCOLOR
 70
   257
  9
$OBSLTYPE
280
     0
  9
$INTERSECTIONDISPLAY
280
     0
  9
$INTERSECTIONCOLOR
 70
   257
  9
$DIMASSOC
280
     2
  9
$PROJECTNAME
  1

  9
$CAMERADISPLAY
290
     0
  9
$LENSLENGTH
 40
50.0
  9
$CAMERAHEIGHT
 40
0.0
  9
$STEPSPERSEC
 40
2.0
  9
$STEPSIZE
 40
6.0
  9
$3DDWFPREC
 40
2.0
  9
$PSOLWIDTH
 40
0.25
  9
$PSOLHEIGHT
 40
4.0
  9
$LOFTANG1
 40
1.570796326794896
  9
$LOFTANG2
 40
1.570796326794896
  9
$LOFTMAG1
 40
0.0
  9
$LOFTMAG2
 40
0.0
  9
$LOFTPARAM
 70
     7
  9
$LOFTNORMALS
280
     1
  9
$LATITUDE
 40
37.795
  9
$LONGITUDE
 40
-122.394
  9
$NORTHDIRECTION
 40
0.0
  9
$TIMEZONE
 70
 -8000
  9
$LIGHTGLYPHDISPLAY
280
     1
  9
$TILEMODELIGHTSYNCH
280
     1
  9
$CMATERIAL
347
11
  9
$SOLIDHIST
280
     0
  9
$SHOWHIST
280
     1
  9
$DWFFRAME
280
     2
  9
$DGNFRAME
280
     0
  9
$REALWORLDSCALE
290
     1
  9
$INTERFERECOLOR
 62
     1
  9
$INTERFEREOBJVS
345
33
  9
$INTERFEREVPVS
346
30
  9
$CSHADOW
280
     0
  9
$SHADOWPLANELOCATION
 40
0.0
  0
ENDSEC
  0
SECTION
  2
CLASSES
  0
CLASS
  1
ACDBDICTIONARYWDFLT
  2
AcDbDictionaryWithDefault
  3
ObjectDBX Classes
 90
        0
 91
        1
280
     0
281
     0
  0
CLASS
  1
MATERIAL
  2
AcDbMaterial
  3
ObjectDBX Classes
 90
     1153
 91
        3
280
     0
281
     0
  0
CLASS
  1
VISUALSTYLE
  2
AcDbVisualStyle
  3
ObjectDBX Classes
 90
     4095
 91
       24
280
     0
281
     0
  0
CLASS
  1
SCALE
  2
AcDbScale
  3
ObjectDBX Classes
 90
     1153
 91
       17
280
     0
281
     0
  0
CLASS
  1
TABLESTYLE
  2
AcDbTableStyle
  3
ObjectDBX Classes
 90
     4095
 91
        1
280
     0
281
     0
  0
CLASS
  1
MLEADERSTYLE
  2
AcDbMLeaderStyle
  3
ACDB_MLEADERSTYLE_CLASS
 90
     4095
 91
        1
280
     0
281
     0
  0
CLASS
  1
ACDBSECTIONVIEWSTYLE
  2
AcDbSectionViewStyle
  3
ObjectDBX Classes
 90
     1025
 91
        1
280
     0
281
     0
  0
CLASS
  1
ACDBDETAILVIEWSTYLE
  2
AcDbDetailViewStyle
  3
ObjectDBX Classes
 90
     1025
 91
        1
280
     0
281
     0
  0
CLASS
  1
DICTIONARYVAR
  2
AcDbDictionaryVar
  3
ObjectDBX Classes
 90
        0
 91
        5
280
     0
281
     0
  0
CLASS
  1
CELLSTYLEMAP
  2
AcDbCellStyleMap
  3
ObjectDBX Classes
 90
     1152
 91
        1
280
     0
281
     0
  0
ENDSEC
  0
SECTION
  2
TABLES
  0
TABLE
  2
VPORT
  5
8
330
0
100
AcDbSymbolTable
 70
     1
  0
VPORT
  5
57
330
8
100
AcDbSymbolTableRecord
100
AcDbViewportTableRecord
  2
*Active
 70
     0
 10
0.0
 20
0.0
 11
1.0
 21
1.0
 12
0.0
 22
0.0
 13
0.0
 23
0.0
 14
1.0
 24
1.0
 15
0.0
 25
0.0
 16
0.0
 26
0.0
 36
1.0
 17
71.93683303229921
 27
59.15983744826277
 37
0.0
 40
120.6867229677274
 41
1.215967554485117
 42
50.0
 43
0.0
 44
0.0
 50
0.0
 51
0.0
 71
     0
 72
   100
 73
     1
 74
     1
 75
     0
 76
     0
 77
     0
 78
     0
281
     0
 65
     1
110
0.0
120
0.0
130
0.0
111
1.0
121
0.0
131
0.0
112
0.0
122
1.0
132
0.0
 79
     0
146
0.0
 60
     3
 61
     5
292
     1
282
     1
141
0.0
142
0.0
 63
   250
421
  3355443
  0
ENDTAB
  0
TABLE
  2
LTYPE
  5
5
330
0
100
AcDbSymbolTable
 70
     1
  0
LTYPE
  5
5B
330
5
100
AcDbSymbolTableRecord
100
AcDbLinetypeTableRecord
  2
ByBlock
 70
     0
  3

 72
    65
 73
     0
 40
0.0
  0
LTYPE
  5
5C
330
5
100
AcDbSymbolTableRecord
100
AcDbLinetypeTableRecord
  2
ByLayer
 70
     0
  3

 72
    65
 73
     0
 40
0.0
  0
LTYPE
  5
5D
330
5
100
AcDbSymbolTableRecord
100
AcDbLinetypeTableRecord
  2
Continuous
 70
     0
  3
Solid line
 72
    65
 73
     0
 40
0.0
  0
ENDTAB
  0
TABLE
  2
LAYER
  5
2
330
0
100
AcDbSymbolTable
 70
     2
  0
LAYER
  5
54
330
2
100
AcDbSymbolTableRecord
100
AcDbLayerTableRecord
  2
0
 70
     0
 62
     7
  6
Continuous
370
    -3
390
F
347
21
348
0
  0
LAYER
  5
78
330
2
100
AcDbSymbolTableRecord
100
AcDbLayerTableRecord
  2
PCB holes
 70
     0
 62
     7
  6
Continuous
370
     0
390
F
347
21
348
0
  0
ENDTAB
  0
TABLE
  2
STYLE
  5
3
330
0
100
AcDbSymbolTable
 70
     2
  0
STYLE
  5
55
330
3
100
AcDbSymbolTableRecord
100
AcDbTextStyleTableRecord
  2
Standard
 70
     0
 40
0.0
 41
1.0
 50
0.0
 71
     0
 42
0.2
  3
txt
  4

  0
STYLE
  5
5A
330
3
100
AcDbSymbolTableRecord
100
AcDbTextStyleTableRecord
  2
Annotative
 70
     0
 40
0.0
 41
1.0
 50
0.0
 71
     0
 42
0.2
  3
txt
  4

1001
AcadAnnotative
1000
AnnotativeData
1002
{
1070
     1
1070
     1
1002
}
  0
ENDTAB
  0
TABLE
  2
VIEW
  5
6
330
0
100
AcDbSymbolTable
 70
     0
  0
ENDTAB
  0
TABLE
  2
UCS
  5
7
330
0
100
AcDbSymbolTable
 70
     0
  0
ENDTAB
  0
TABLE
  2
APPID
  5
9
330
0
100
AcDbSymbolTable
 70
     2
  0
APPID
  5
56
330
9
100
AcDbSymbolTableRecord
100
AcDbRegAppTableRecord
  2
ACAD
 70
     0
  0
APPID
  5
5E
330
9
100
AcDbSymbolTableRecord
100
AcDbRegAppTableRecord
  2
AcadAnnotative
 70
     0
  0
ENDTAB
  0
TABLE
  2
DIMSTYLE
  5
A
330
0
100
AcDbSymbolTable
 70
     2
100
AcDbDimStyleTable
 71
     0
  0
DIMSTYLE
105
58
330
A
100
AcDbSymbolTableRecord
100
AcDbDimStyleTableRecord
  2
Standard
 70
     0
340
55
  0
DIMSTYLE
105
59
330
A
100
AcDbSymbolTableRecord
100
AcDbDimStyleTableRecord
  2
Annotative
 70
     0
340
55
1001
AcadAnnotative
1000
AnnotativeData
1002
{
1070
     1
1070
     1
1002
}
  0
ENDTAB
  0
TABLE
  2
BLOCK_RECORD
  5
1
330
0
100
AcDbSymbolTable
 70
     1
  0
BLOCK_RECORD
  5
70
330
1
100
AcDbSymbolTableRecord
100
AcDbBlockTableRecord
  2
*Model_Space
340
73
 70
     0
280
     1
281
     0
  0
BLOCK_RECORD
  5
6C
330
1
100
AcDbSymbolTableRecord
100
AcDbBlockTableRecord
  2
*Paper_Space
340
6F
 70
     0
280
     1
281
     0
  0
BLOCK_RECORD
  5
74
330
1
100
AcDbSymbolTableRecord
100
AcDbBlockTableRecord
  2
*Paper_Space0
340
77
 70
     0
280
     1
281
     0
  0
ENDTAB
  0
ENDSEC
  0
SECTION
  2
BLOCKS
  0
BLOCK
  5
71
330
70
100
AcDbEntity
  8
0
100
AcDbBlockBegin
  2
*Model_Space
 70
     0
 10
0.0
 20
0.0
 30
0.0
  3
*Model_Space
  1

  0
ENDBLK
  5
72
330
70
100
AcDbEntity
  8
0
100
AcDbBlockEnd
  0
BLOCK
  5
6D
330
6C
100
AcDbEntity
 67
     1
  8
0
100
AcDbBlockBegin
  2
*Paper_Space
 70
     0
 10
0.0
 20
0.0
 30
0.0
  3
*Paper_Space
  1

  0
ENDBLK
  5
6E
330
6C
100
AcDbEntity
 67
     1
  8
0
100
AcDbBlockEnd
  0
BLOCK
  5
75
330
74
100
AcDbEntity
 67
     1
  8
0
100
AcDbBlockBegin
  2
*Paper_Space0
 70
     0
 10
0.0
 20
0.0
 30
0.0
  3
*Paper_Space0
  1

  0
ENDBLK
  5
76
330
74
100
AcDbEntity
 67
     1
  8
0
100
AcDbBlockEnd
  0
ENDSEC
  0
SECTION
  2
ENTITIES
  0
SPLINE
  5
79
330
70
100
AcDbEntity
  8
PCB holes
 62
     5
420
      255
370
     9
100
AcDbSpline
210
0.0
220
0.0
230
1.0
 70
    11
 71
     3
 72
    20
 73
    16
 74
     0
 42
0.0000000001
 43
0.0000000001
 40
0.0
 40
0.0
 40
0.0
 40
0.0
 40
1.0
 40
1.0
 40
1.0
 40
2.0
 40
2.0
 40
2.0
 40
3.0
 40
3.0
 40
3.0
 40
4.0
 40
4.0
 40
4.0
 40
5.0
 40
5.0
 40
5.0
 40
5.0
 10
137.4919155120706
 20
74.73653162791639
 30
0.0
 10
137.4919155120706
 20
74.73653162791639
 30
0.0
 10
123.7056868200139
 20
77.16711350895612
 30
0.0
 10
123.7056868200139
 20
77.16711350895612
 30
0.0
 10
123.7056868200139
 20
77.16711350895612
 30
0.0
 10
126.1362740838895
 20
90.95334758384877
 30
0.0
 10
126.1362740838895
 20
90.95334758384877
 30
0.0
 10
126.1362740838895
 20
90.95334758384877
 30
0.0
 10
139.9225135416181
 20
88.52276570280904
 30
0.0
 10
139.9225135416181
 20
88.52276570280904
 30
0.0
 10
139.9225135416181
 20
88.52276570280904
 30
0.0
 10
137.4919262777425
 20
74.73653162791639
 30
0.0
 10
137.4919262777425
 20
74.73653162791639
 30
0.0
 10
137.4919262777425
 20
74.73653162791639
 30
0.0
 10
137.4919155120706
 20
74.73653162791639
 30
0.0
 10
137.4919155120706
 20
74.73653162791639
 30
0.0
  0
SPLINE
  5
7A
330
70
100
AcDbEntity
  8
PCB holes
 62
     5
420
      255
370
     9
100
AcDbSpline
210
0.0
220
0.0
230
1.0
 70
    11
 71
     3
 72
    20
 73
    16
 74
     0
 42
0.0000000001
 43
0.0000000001
 40
0.0
 40
0.0
 40
0.0
 40
0.0
 40
1.0
 40
1.0
 40
1.0
 40
2.0
 40
2.0
 40
2.0
 40
3.0
 40
3.0
 40
3.0
 40
4.0
 40
4.0
 40
4.0
 40
5.0
 40
5.0
 40
5.0
 40
5.0
 10
134.1899978317171
 20
56.01152406261093
 30
0.0
 10
134.1899978317171
 20
56.01152406261093
 30
0.0
 10
120.4037691396604
 20
58.44210594365065
 30
0.0
 10
120.4037691396604
 20
58.44210594365065
 30
0.0
 10
120.4037691396604
 20
58.44210594365065
 30
0.0
 10
122.834356403536
 20
72.2283400185433
 30
0.0
 10
122.834356403536
 20
72.2283400185433
 30
0.0
 10
122.834356403536
 20
72.2283400185433
 30
0.0
 10
136.6205958612646
 20
69.79775813750357
 30
0.0
 10
136.6205958612646
 20
69.79775813750357
 30
0.0
 10
136.6205958612646
 20
69.79775813750357
 30
0.0
 10
134.190008597389
 20
56.01152406261093
 30
0.0
 10
134.190008597389
 20
56.01152406261093
 30
0.0
 10
134.190008597389
 20
56.01152406261093
 30
0.0
 10
134.1899978317171
 20
56.01152406261093
 30
0.0
 10
134.1899978317171
 20
56.01152406261093
 30
0.0
  0
SPLINE
  5
7B
330
70
100
AcDbEntity
  8
PCB holes
 62
     5
420
      255
370
     9
100
AcDbSpline
210
0.0
220
0.0
230
1.0
 70
    11
 71
     3
 72
    17
 73
    13
 74
     0
 42
0.0000000001
 43
0.0000000001
 40
0.0
 40
0.0
 40
0.0
 40
0.0
 40
1.0
 40
1.0
 40
1.0
 40
2.0
 40
2.0
 40
2.0
 40
3.0
 40
3.0
 40
3.0
 40
4.0
 40
4.0
 40
4.0
 40
4.0
 10
130.8986628067876
 20
37.19832411354808
 30
0.0
 10
130.8986628067876
 20
37.19832411354808
 30
0.0
 10
117.112423349059
 20
39.62890599458781
 30
0.0
 10
117.112423349059
 20
39.62890599458781
 30
0.0
 10
117.112423349059
 20
39.62890599458781
 30
0.0
 10
119.5430106129347
 20
53.41514006948046
 30
0.0
 10
119.5430106129347
 20
53.41514006948046
 30
0.0
 10
119.5430106129347
 20
53.41514006948046
 30
0.0
 10
133.3292500706632
 20
50.98455818844073
 30
0.0
 10
133.3292500706632
 20
50.98455818844073
 30
0.0
 10
133.3292500706632
 20
50.98455818844073
 30
0.0
 10
130.8986628067876
 20
37.19832411354808
 30
0.0
 10
130.8986628067876
 20
37.19832411354808
 30
0.0
  0
SPLINE
  5
7C
330
70
100
AcDbEntity
  8
PCB holes
 62
     5
420
      255
370
     9
100
AcDbSpline
210
0.0
220
0.0
230
1.0
 70
     9
 71
     3
 72
    20
 73
    16
 74
     0
 42
0.0000000001
 43
0.0000000001
 40
0.0
 40
0.0
 40
0.0
 40
0.0
 40
1.0
 40
1.0
 40
1.0
 40
2.0
 40
2.0
 40
2.0
 40
3.0
 40
3.0
 40
3.0
 40
4.0
 40
4.0
 40
4.0
 40
5.0
 40
5.0
 40
5.0
 40
5.0
 10
102.5289428284925
 20
90.84398988924338
 30
0.0
 10
102.5289428284925
 20
90.84398988924338
 30
0.0
 10
103.5061105648823
 20
104.8101358348891
 30
0.0
 10
103.5061105648823
 20
104.8101358348891
 30
0.0
 10
103.5061105648823
 20
104.8101358348891
 30
0.0
 10
117.4722551648191
 20
103.8329640613723
 30
0.0
 10
117.4722551648191
 20
103.8329640613723
 30
0.0
 10
117.4722551648191
 20
103.8329640613723
 30
0.0
 10
116.4950874284293
 20
89.86681677001765
 30
0.0
 10
116.4950874284293
 20
89.86681677001765
 30
0.0
 10
116.4950874284293
 20
89.86681677001765
 30
0.0
 10
102.5289428284925
 20
90.84398719782543
 30
0.0
 10
102.5289428284925
 20
90.84398719782543
 30
0.0
 10
102.5289428284925
 20
90.84398719782543
 30
0.0
 10
102.5289428284925
 20
90.84398719782543
 30
0.0
 10
102.5289428284925
 20
90.84398988924338
 30
0.0
  0
SPLINE
  5
7D
330
70
100
AcDbEntity
  8
PCB holes
 62
     5
420
      255
370
     9
100
AcDbSpline
210
0.0
220
0.0
230
1.0
 70
    11
 71
     3
 72
    20
 73
    16
 74
     0
 42
0.0000000001
 43
0.0000000001
 40
0.0
 40
0.0
 40
0.0
 40
0.0
 40
1.0
 40
1.0
 40
1.0
 40
2.0
 40
2.0
 40
2.0
 40
3.0
 40
3.0
 40
3.0
 40
4.0
 40
4.0
 40
4.0
 40
5.0
 40
5.0
 40
5.0
 40
5.0
 10
115.1686812973752
 20
70.90192850465337
 30
0.0
 10
115.1686812973752
 20
70.90192850465337
 30
0.0
 10
101.2025366974385
 20
71.87910162387911
 30
0.0
 10
101.2025366974385
 20
71.87910162387911
 30
0.0
 10
101.2025366974385
 20
71.87910162387911
 30
0.0
 10
102.1797044338283
 20
85.84524622381586
 30
0.0
 10
102.1797044338283
 20
85.84524622381586
 30
0.0
 10
102.1797044338283
 20
85.84524622381586
 30
0.0
 10
116.1458490337651
 20
84.86807579600808
 30
0.0
 10
116.1458490337651
 20
84.86807579600808
 30
0.0
 10
116.1458490337651
 20
84.86807579600808
 30
0.0
 10
115.1686812973752
 20
70.90192850465337
 30
0.0
 10
115.1686812973752
 20
70.90192850465337
 30
0.0
 10
115.1686812973752
 20
70.90192850465337
 30
0.0
 10
115.1686812973752
 20
70.90192850465337
 30
0.0
 10
115.1686812973752
 20
70.90192850465337
 30
0.0
  0
SPLINE
  5
7E
330
70
100
AcDbEntity
  8
PCB holes
 62
     5
420
      255
370
     9
100
AcDbSpline
210
0.0
220
0.0
230
1.0
 70
    11
 71
     3
 72
    17
 73
    13
 74
     0
 42
0.0000000001
 43
0.0000000001
 40
0.0
 40
0.0
 40
0.0
 40
0.0
 40
1.0
 40
1.0
 40
1.0
 40
2.0
 40
2.0
 40
2.0
 40
3.0
 40
3.0
 40
3.0
 40
4.0
 40
4.0
 40
4.0
 40
4.0
 10
113.8634297114974
 20
51.84884785553172
 30
0.0
 10
113.8634297114974
 20
51.84884785553172
 30
0.0
 10
99.89728511156068
 20
52.82602097475745
 30
0.0
 10
99.89728511156068
 20
52.82602097475745
 30
0.0
 10
99.89728511156068
 20
52.82602097475745
 30
0.0
 10
100.8744528479505
 20
66.79216557469421
 30
0.0
 10
100.8744528479505
 20
66.79216557469421
 30
0.0
 10
100.8744528479505
 20
66.79216557469421
 30
0.0
 10
114.8405974478872
 20
65.81499245546848
 30
0.0
 10
114.8405974478872
 20
65.81499245546848
 30
0.0
 10
114.8405974478872
 20
65.81499245546848
 30
0.0
 10
113.8634297114974
 20
51.84884785553172
 30
0.0
 10
113.8634297114974
 20
51.84884785553172
 30
0.0
  0
SPLINE
  5
7F
330
70
100
AcDbEntity
  8
PCB holes
 62
     5
420
      255
370
     9
100
AcDbSpline
210
0.0
220
0.0
230
1.0
 70
     9
 71
     3
 72
    17
 73
    13
 74
     0
 42
0.0000000001
 43
0.0000000001
 40
0.0
 40
0.0
 40
0.0
 40
0.0
 40
1.0
 40
1.0
 40
1.0
 40
2.0
 40
2.0
 40
2.0
 40
3.0
 40
3.0
 40
3.0
 40
4.0
 40
4.0
 40
4.0
 40
4.0
 10
110.6497044149013
 20
43.91859021526291
 30
0.0
 10
110.0711572099304
 20
43.91859021526291
 30
0.0
 10
109.5984473248715
 20
44.38777434279244
 30
0.0
 10
109.5984473248715
 20
44.96984192245672
 30
0.0
 10
109.5984473248715
 20
45.551909502121
 30
0.0
 10
110.0676260695651
 20
46.02109362965054
 30
0.0
 10
110.6497044149013
 20
46.02109362965054
 30
0.0
 10
111.2317827602374
 20
46.02109362965054
 30
0.0
 10
111.700961504931
 20
45.551909502121
 30
0.0
 10
111.700961504931
 20
44.96984192245672
 30
0.0
 10
111.700961504931
 20
44.38777434279244
 30
0.0
 10
111.2317827602374
 20
43.91859021526291
 30
0.0
 10
110.6497044149013
 20
43.91859021526291
 30
0.0
  0
SPLINE
  5
80
330
70
100
AcDbEntity
  8
PCB holes
 62
     5
420
      255
370
     9
100
AcDbSpline
210
0.0
220
0.0
230
1.0
 70
     9
 71
     3
 72
    17
 73
    13
 74
     0
 42
0.0000000001
 43
0.0000000001
 40
0.0
 40
0.0
 40
0.0
 40
0.0
 40
1.0
 40
1.0
 40
1.0
 40
2.0
 40
2.0
 40
2.0
 40
3.0
 40
3.0
 40
3.0
 40
4.0
 40
4.0
 40
4.0
 40
4.0
 10
103.2415441792821
 20
112.7686170296096
 30
0.0
 10
103.8200913842529
 20
112.7686170296096
 30
0.0
 10
104.2928012693118
 20
112.2994335749345
 30
0.0
 10
104.2928012693118
 20
111.7173639767068
 30
0.0
 10
104.2928012693118
 20
111.135294378479
 30
0.0
 10
103.8236225246182
 20
110.666110923804
 30
0.0
 10
103.2415441792821
 20
110.666110923804
 30
0.0
 10
102.6594658339459
 20
110.666110923804
 30
0.0
 10
102.1902870892523
 20
111.135294378479
 30
0.0
 10
102.1902870892523
 20
111.7173639767068
 30
0.0
 10
102.1902870892523
 20
112.2994335749345
 30
0.0
 10
102.6594658339459
 20
112.7686170296096
 30
0.0
 10
103.2415441792821
 20
112.7686170296096
 30
0.0
  0
SPLINE
  5
81
330
70
100
AcDbEntity
  8
PCB holes
 62
     5
420
      255
370
     9
100
AcDbSpline
210
0.0
220
0.0
230
1.0
 70
     9
 71
     3
 72
    17
 73
    13
 74
     0
 42
0.0000000001
 43
0.0000000001
 40
0.0
 40
0.0
 40
0.0
 40
0.0
 40
1.0
 40
1.0
 40
1.0
 40
2.0
 40
2.0
 40
2.0
 40
3.0
 40
3.0
 40
3.0
 40
4.0
 40
4.0
 40
4.0
 40
4.0
 10
96.39075507211384
 20
78.33831094901525
 30
0.0
 10
95.81220786714299
 20
78.33831094901525
 30
0.0
 10
95.33949798208409
 20
78.80749507654478
 30
0.0
 10
95.33949798208409
 20
79.38956534762702
 30
0.0
 10
95.33949798208409
 20
79.97163561870927
 30
0.0
 10
95.8086767267777
 20
80.4408197462388
 30
0.0
 10
96.39075507211384
 20
80.4408197462388
 30
0.0
 10
96.97283341744997
 20
80.4408197462388
 30
0.0
 10
97.44201216214356
 20
79.97163561870927
 30
0.0
 10
97.44201216214356
 20
79.38956534762702
 30
0.0
 10
97.44201216214356
 20
78.80749507654478
 30
0.0
 10
96.97283341744997
 20
78.33831094901525
 30
0.0
 10
96.39075507211384
 20
78.33831094901525
 30
0.0
  0
SPLINE
  5
82
330
70
100
AcDbEntity
  8
PCB holes
 62
     5
420
      255
370
     9
100
AcDbSpline
210
0.0
220
0.0
230
1.0
 70
    11
 71
     3
 72
    17
 73
    13
 74
     0
 42
0.0000000001
 43
0.0000000001
 40
0.0
 40
0.0
 40
0.0
 40
0.0
 40
1.0
 40
1.0
 40
1.0
 40
2.0
 40
2.0
 40
2.0
 40
3.0
 40
3.0
 40
3.0
 40
4.0
 40
4.0
 40
4.0
 40
4.0
 10
95.24778522363329
 20
62.68592840226443
 30
0.0
 10
95.24778522363329
 20
62.68592840226443
 30
0.0
 10
81.24636151705919
 20
62.68592840226443
 30
0.0
 10
81.24636151705919
 20
62.68592840226443
 30
0.0
 10
81.24636151705919
 20
62.68592840226443
 30
0.0
 10
81.24636151705919
 20
76.68382365989117
 30
0.0
 10
81.24636151705919
 20
76.68382365989117
 30
0.0
 10
81.24636151705919
 20
76.68382365989117
 30
0.0
 10
95.24778522363329
 20
76.68382365989117
 30
0.0
 10
95.24778522363329
 20
76.68382365989117
 30
0.0
 10
95.24778522363329
 20
76.68382365989117
 30
0.0
 10
95.24778522363329
 20
62.68592840226443
 30
0.0
 10
95.24778522363329
 20
62.68592840226443
 30
0.0
  0
SPLINE
  5
83
330
70
100
AcDbEntity
  8
PCB holes
 62
     5
420
      255
370
     9
100
AcDbSpline
210
0.0
220
0.0
230
1.0
 70
     9
 71
     3
 72
    17
 73
    13
 74
     0
 42
0.0000000001
 43
0.0000000001
 40
0.0
 40
0.0
 40
0.0
 40
0.0
 40
1.0
 40
1.0
 40
1.0
 40
2.0
 40
2.0
 40
2.0
 40
3.0
 40
3.0
 40
3.0
 40
4.0
 40
4.0
 40
4.0
 40
4.0
 10
93.24757722312048
 20
54.64278192702494
 30
0.0
 10
92.97241741642435
 20
54.64278192702494
 30
0.0
 10
92.746639746483
 20
54.86502845660101
 30
0.0
 10
92.746639746483
 20
55.1437140208265
 30
0.0
 10
92.746639746483
 20
55.42239958505199
 30
0.0
 10
92.96888627605907
 20
55.64464611462806
 30
0.0
 10
93.24757722312048
 20
55.64464611462806
 30
0.0
 10
93.52626817018188
 20
55.64464611462806
 30
0.0
 10
93.74851469975796
 20
55.42239958505199
 30
0.0
 10
93.74851469975796
 20
55.1437140208265
 30
0.0
 10
93.74851469975796
 20
54.86502845660101
 30
0.0
 10
93.52626817018188
 20
54.64278192702494
 30
0.0
 10
93.24757722312048
 20
54.64278192702494
 30
0.0
  0
SPLINE
  5
84
330
70
100
AcDbEntity
  8
PCB holes
 62
     5
420
      255
370
     9
100
AcDbSpline
210
0.0
220
0.0
230
1.0
 70
     9
 71
     3
 72
    17
 73
    13
 74
     0
 42
0.0000000001
 43
0.0000000001
 40
0.0
 40
0.0
 40
0.0
 40
0.0
 40
1.0
 40
1.0
 40
1.0
 40
2.0
 40
2.0
 40
2.0
 40
3.0
 40
3.0
 40
3.0
 40
4.0
 40
4.0
 40
4.0
 40
4.0
 10
93.24757722312048
 20
52.64257930934807
 30
0.0
 10
92.97241741642435
 20
52.64257930934807
 30
0.0
 10
92.746639746483
 20
52.86482583892413
 30
0.0
 10
92.746639746483
 20
53.14351140314962
 30
0.0
 10
92.746639746483
 20
53.42219696737511
 30
0.0
 10
92.96888627605907
 20
53.64444349695118
 30
0.0
 10
93.24757722312048
 20
53.64444349695118
 30
0.0
 10
93.52626817018188
 20
53.64444349695118
 30
0.0
 10
93.74851469975796
 20
53.42219696737511
 30
0.0
 10
93.74851469975796
 20
53.14351140314962
 30
0.0
 10
93.74851469975796
 20
52.86482583892413
 30
0.0
 10
93.52626817018188
 20
52.64257930934807
 30
0.0
 10
93.24757722312048
 20
52.64257930934807
 30
0.0
  0
SPLINE
  5
85
330
70
100
AcDbEntity
  8
PCB holes
 62
     5
420
      255
370
     9
100
AcDbSpline
210
0.0
220
0.0
230
1.0
 70
     9
 71
     3
 72
    17
 73
    13
 74
     0
 42
0.0000000001
 43
0.0000000001
 40
0.0
 40
0.0
 40
0.0
 40
0.0
 40
1.0
 40
1.0
 40
1.0
 40
2.0
 40
2.0
 40
2.0
 40
3.0
 40
3.0
 40
3.0
 40
4.0
 40
4.0
 40
4.0
 40
4.0
 10
93.24757722312048
 20
50.64237669167118
 30
0.0
 10
92.97241741642435
 20
50.64237669167118
 30
0.0
 10
92.746639746483
 20
50.86462322124726
 30
0.0
 10
92.746639746483
 20
51.14330878547274
 30
0.0
 10
92.746639746483
 20
51.42199434969823
 30
0.0
 10
92.96888627605907
 20
51.64424087927431
 30
0.0
 10
93.24757722312048
 20
51.64424087927431
 30
0.0
 10
93.52626817018188
 20
51.64424087927431
 30
0.0
 10
93.74851469975796
 20
51.42199434969823
 30
0.0
 10
93.74851469975796
 20
51.14330878547274
 30
0.0
 10
93.74851469975796
 20
50.86462322124726
 30
0.0
 10
93.52626817018188
 20
50.64237669167118
 30
0.0
 10
93.24757722312048
 20
50.64237669167118
 30
0.0
  0
SPLINE
  5
86
330
70
100
AcDbEntity
  8
PCB holes
 62
     5
420
      255
370
     9
100
AcDbSpline
210
0.0
220
0.0
230
1.0
 70
     9
 71
     3
 72
    17
 73
    13
 74
     0
 42
0.0000000001
 43
0.0000000001
 40
0.0
 40
0.0
 40
0.0
 40
0.0
 40
1.0
 40
1.0
 40
1.0
 40
2.0
 40
2.0
 40
2.0
 40
3.0
 40
3.0
 40
3.0
 40
4.0
 40
4.0
 40
4.0
 40
4.0
 10
93.24757722312048
 20
48.6421740739943
 30
0.0
 10
92.97241741642435
 20
48.6421740739943
 30
0.0
 10
92.746639746483
 20
48.86442060357037
 30
0.0
 10
92.746639746483
 20
49.14310616779586
 30
0.0
 10
92.746639746483
 20
49.42179173202135
 30
0.0
 10
92.96888627605907
 20
49.64403826159742
 30
0.0
 10
93.24757722312048
 20
49.64403826159742
 30
0.0
 10
93.52626817018188
 20
49.64403826159742
 30
0.0
 10
93.74851469975796
 20
49.42179173202135
 30
0.0
 10
93.74851469975796
 20
49.14310616779586
 30
0.0
 10
93.74851469975796
 20
48.86442060357037
 30
0.0
 10
93.52626817018188
 20
48.6421740739943
 30
0.0
 10
93.24757722312048
 20
48.6421740739943
 30
0.0
  0
SPLINE
  5
87
330
70
100
AcDbEntity
  8
PCB holes
 62
     5
420
      255
370
     9
100
AcDbSpline
210
0.0
220
0.0
230
1.0
 70
     9
 71
     3
 72
    17
 73
    13
 74
     0
 42
0.0000000001
 43
0.0000000001
 40
0.0
 40
0.0
 40
0.0
 40
0.0
 40
1.0
 40
1.0
 40
1.0
 40
2.0
 40
2.0
 40
2.0
 40
3.0
 40
3.0
 40
3.0
 40
4.0
 40
4.0
 40
4.0
 40
4.0
 10
93.24757722312048
 20
46.64197145631741
 30
0.0
 10
92.97241741642435
 20
46.64197145631741
 30
0.0
 10
92.746639746483
 20
46.86421798589349
 30
0.0
 10
92.746639746483
 20
47.14290355011899
 30
0.0
 10
92.746639746483
 20
47.42158911434446
 30
0.0
 10
92.96888627605907
 20
47.64383564392054
 30
0.0
 10
93.24757722312048
 20
47.64383564392054
 30
0.0
 10
93.52626817018188
 20
47.64383564392054
 30
0.0
 10
93.74851469975796
 20
47.42158911434446
 30
0.0
 10
93.74851469975796
 20
47.14290355011899
 30
0.0
 10
93.74851469975796
 20
46.86421798589349
 30
0.0
 10
93.52626817018188
 20
46.64197145631741
 30
0.0
 10
93.24757722312048
 20
46.64197145631741
 30
0.0
  0
SPLINE
  5
88
330
70
100
AcDbEntity
  8
PCB holes
 62
     5
420
      255
370
     9
100
AcDbSpline
210
0.0
220
0.0
230
1.0
 70
     9
 71
     3
 72
    17
 73
    13
 74
     0
 42
0.0000000001
 43
0.0000000001
 40
0.0
 40
0.0
 40
0.0
 40
0.0
 40
1.0
 40
1.0
 40
1.0
 40
2.0
 40
2.0
 40
2.0
 40
3.0
 40
3.0
 40
3.0
 40
4.0
 40
4.0
 40
4.0
 40
4.0
 10
91.24736922260767
 20
54.64278192702494
 30
0.0
 10
90.97220941591155
 20
54.64278192702494
 30
0.0
 10
90.74643174597019
 20
54.86502845660101
 30
0.0
 10
90.74643174597019
 20
55.1437140208265
 30
0.0
 10
90.74643174597019
 20
55.42239958505199
 30
0.0
 10
90.96867827554627
 20
55.64464611462806
 30
0.0
 10
91.24736922260767
 20
55.64464611462806
 30
0.0
 10
91.5260601696691
 20
55.64464611462806
 30
0.0
 10
91.74830669924515
 20
55.42239958505199
 30
0.0
 10
91.74830669924515
 20
55.1437140208265
 30
0.0
 10
91.74830669924515
 20
54.86502845660101
 30
0.0
 10
91.5260601696691
 20
54.64278192702494
 30
0.0
 10
91.24736922260767
 20
54.64278192702494
 30
0.0
  0
SPLINE
  5
89
330
70
100
AcDbEntity
  8
PCB holes
 62
     5
420
      255
370
     9
100
AcDbSpline
210
0.0
220
0.0
230
1.0
 70
     9
 71
     3
 72
    17
 73
    13
 74
     0
 42
0.0000000001
 43
0.0000000001
 40
0.0
 40
0.0
 40
0.0
 40
0.0
 40
1.0
 40
1.0
 40
1.0
 40
2.0
 40
2.0
 40
2.0
 40
3.0
 40
3.0
 40
3.0
 40
4.0
 40
4.0
 40
4.0
 40
4.0
 10
91.24736922260767
 20
52.64257930934807
 30
0.0
 10
90.97220941591155
 20
52.64257930934807
 30
0.0
 10
90.74643174597019
 20
52.86482583892413
 30
0.0
 10
90.74643174597019
 20
53.14351140314962
 30
0.0
 10
90.74643174597019
 20
53.42219696737511
 30
0.0
 10
90.96867827554627
 20
53.64444349695118
 30
0.0
 10
91.24736922260767
 20
53.64444349695118
 30
0.0
 10
91.5260601696691
 20
53.64444349695118
 30
0.0
 10
91.74830669924515
 20
53.42219696737511
 30
0.0
 10
91.74830669924515
 20
53.14351140314962
 30
0.0
 10
91.74830669924515
 20
52.86482583892413
 30
0.0
 10
91.5260601696691
 20
52.64257930934807
 30
0.0
 10
91.24736922260767
 20
52.64257930934807
 30
0.0
  0
SPLINE
  5
8A
330
70
100
AcDbEntity
  8
PCB holes
 62
     5
420
      255
370
     9
100
AcDbSpline
210
0.0
220
0.0
230
1.0
 70
     9
 71
     3
 72
    17
 73
    13
 74
     0
 42
0.0000000001
 43
0.0000000001
 40
0.0
 40
0.0
 40
0.0
 40
0.0
 40
1.0
 40
1.0
 40
1.0
 40
2.0
 40
2.0
 40
2.0
 40
3.0
 40
3.0
 40
3.0
 40
4.0
 40
4.0
 40
4.0
 40
4.0
 10
91.24736922260767
 20
50.64237669167118
 30
0.0
 10
90.97220941591155
 20
50.64237669167118
 30
0.0
 10
90.74643174597019
 20
50.86462322124726
 30
0.0
 10
90.74643174597019
 20
51.14330878547274
 30
0.0
 10
90.74643174597019
 20
51.42199434969823
 30
0.0
 10
90.96867827554627
 20
51.64424087927431
 30
0.0
 10
91.24736922260767
 20
51.64424087927431
 30
0.0
 10
91.5260601696691
 20
51.64424087927431
 30
0.0
 10
91.74830669924515
 20
51.42199434969823
 30
0.0
 10
91.74830669924515
 20
51.14330878547274
 30
0.0
 10
91.74830669924515
 20
50.86462322124726
 30
0.0
 10
91.5260601696691
 20
50.64237669167118
 30
0.0
 10
91.24736922260767
 20
50.64237669167118
 30
0.0
  0
SPLINE
  5
8B
330
70
100
AcDbEntity
  8
PCB holes
 62
     5
420
      255
370
     9
100
AcDbSpline
210
0.0
220
0.0
230
1.0
 70
     9
 71
     3
 72
    17
 73
    13
 74
     0
 42
0.0000000001
 43
0.0000000001
 40
0.0
 40
0.0
 40
0.0
 40
0.0
 40
1.0
 40
1.0
 40
1.0
 40
2.0
 40
2.0
 40
2.0
 40
3.0
 40
3.0
 40
3.0
 40
4.0
 40
4.0
 40
4.0
 40
4.0
 10
91.24736922260767
 20
48.6421740739943
 30
0.0
 10
90.97220941591155
 20
48.6421740739943
 30
0.0
 10
90.74643174597019
 20
48.86442060357037
 30
0.0
 10
90.74643174597019
 20
49.14310616779586
 30
0.0
 10
90.74643174597019
 20
49.42179173202135
 30
0.0
 10
90.96867827554627
 20
49.64403826159742
 30
0.0
 10
91.24736922260767
 20
49.64403826159742
 30
0.0
 10
91.5260601696691
 20
49.64403826159742
 30
0.0
 10
91.74830669924515
 20
49.42179173202135
 30
0.0
 10
91.74830669924515
 20
49.14310616779586
 30
0.0
 10
91.74830669924515
 20
48.86442060357037
 30
0.0
 10
91.5260601696691
 20
48.6421740739943
 30
0.0
 10
91.24736922260767
 20
48.6421740739943
 30
0.0
  0
SPLINE
  5
8C
330
70
100
AcDbEntity
  8
PCB holes
 62
     5
420
      255
370
     9
100
AcDbSpline
210
0.0
220
0.0
230
1.0
 70
     9
 71
     3
 72
    17
 73
    13
 74
     0
 42
0.0000000001
 43
0.0000000001
 40
0.0
 40
0.0
 40
0.0
 40
0.0
 40
1.0
 40
1.0
 40
1.0
 40
2.0
 40
2.0
 40
2.0
 40
3.0
 40
3.0
 40
3.0
 40
4.0
 40
4.0
 40
4.0
 40
4.0
 10
91.24736922260767
 20
46.64197145631741
 30
0.0
 10
90.97220941591155
 20
46.64197145631741
 30
0.0
 10
90.74643174597019
 20
46.86421798589349
 30
0.0
 10
90.74643174597019
 20
47.14290355011899
 30
0.0
 10
90.74643174597019
 20
47.42158911434446
 30
0.0
 10
90.96867827554627
 20
47.64383564392054
 30
0.0
 10
91.24736922260767
 20
47.64383564392054
 30
0.0
 10
91.5260601696691
 20
47.64383564392054
 30
0.0
 10
91.74830669924515
 20
47.42158911434446
 30
0.0
 10
91.74830669924515
 20
47.14290355011899
 30
0.0
 10
91.74830669924515
 20
46.86421798589349
 30
0.0
 10
91.5260601696691
 20
46.64197145631741
 30
0.0
 10
91.24736922260767
 20
46.64197145631741
 30
0.0
  0
SPLINE
  5
8D
330
70
100
AcDbEntity
  8
PCB holes
 62
     5
420
      255
370
     9
100
AcDbSpline
210
0.0
220
0.0
230
1.0
 70
     9
 71
     3
 72
    17
 73
    13
 74
     0
 42
0.0000000001
 43
0.0000000001
 40
0.0
 40
0.0
 40
0.0
 40
0.0
 40
1.0
 40
1.0
 40
1.0
 40
2.0
 40
2.0
 40
2.0
 40
3.0
 40
3.0
 40
3.0
 40
4.0
 40
4.0
 40
4.0
 40
4.0
 10
89.2471666049308
 20
54.64278192702494
 30
0.0
 10
88.97200679823468
 20
54.64278192702494
 30
0.0
 10
88.74623451112924
 20
54.86502845660101
 30
0.0
 10
88.74623451112924
 20
55.1437140208265
 30
0.0
 10
88.74623451112924
 20
55.42239958505199
 30
0.0
 10
88.96848104070532
 20
55.64464611462806
 30
0.0
 10
89.2471666049308
 20
55.64464611462806
 30
0.0
 10
89.52585216915627
 20
55.64464611462806
 30
0.0
 10
89.74809869873237
 20
55.42239958505199
 30
0.0
 10
89.74809869873237
 20
55.1437140208265
 30
0.0
 10
89.74809869873237
 20
54.86502845660101
 30
0.0
 10
89.52585216915627
 20
54.64278192702494
 30
0.0
 10
89.2471666049308
 20
54.64278192702494
 30
0.0
  0
SPLINE
  5
8E
330
70
100
AcDbEntity
  8
PCB holes
 62
     5
420
      255
370
     9
100
AcDbSpline
210
0.0
220
0.0
230
1.0
 70
     9
 71
     3
 72
    17
 73
    13
 74
     0
 42
0.0000000001
 43
0.0000000001
 40
0.0
 40
0.0
 40
0.0
 40
0.0
 40
1.0
 40
1.0
 40
1.0
 40
2.0
 40
2.0
 40
2.0
 40
3.0
 40
3.0
 40
3.0
 40
4.0
 40
4.0
 40
4.0
 40
4.0
 10
89.2471666049308
 20
52.64257930934807
 30
0.0
 10
88.97200679823468
 20
52.64257930934807
 30
0.0
 10
88.74623451112924
 20
52.86482583892413
 30
0.0
 10
88.74623451112924
 20
53.14351140314962
 30
0.0
 10
88.74623451112924
 20
53.42219696737511
 30
0.0
 10
88.96848104070532
 20
53.64444349695118
 30
0.0
 10
89.2471666049308
 20
53.64444349695118
 30
0.0
 10
89.52585216915627
 20
53.64444349695118
 30
0.0
 10
89.74809869873237
 20
53.42219696737511
 30
0.0
 10
89.74809869873237
 20
53.14351140314962
 30
0.0
 10
89.74809869873237
 20
52.86482583892413
 30
0.0
 10
89.52585216915627
 20
52.64257930934807
 30
0.0
 10
89.2471666049308
 20
52.64257930934807
 30
0.0
  0
SPLINE
  5
8F
330
70
100
AcDbEntity
  8
PCB holes
 62
     5
420
      255
370
     9
100
AcDbSpline
210
0.0
220
0.0
230
1.0
 70
     9
 71
     3
 72
    17
 73
    13
 74
     0
 42
0.0000000001
 43
0.0000000001
 40
0.0
 40
0.0
 40
0.0
 40
0.0
 40
1.0
 40
1.0
 40
1.0
 40
2.0
 40
2.0
 40
2.0
 40
3.0
 40
3.0
 40
3.0
 40
4.0
 40
4.0
 40
4.0
 40
4.0
 10
89.2471666049308
 20
50.64237669167118
 30
0.0
 10
88.97200679823468
 20
50.64237669167118
 30
0.0
 10
88.74623451112924
 20
50.86462322124726
 30
0.0
 10
88.74623451112924
 20
51.14330878547274
 30
0.0
 10
88.74623451112924
 20
51.42199434969823
 30
0.0
 10
88.96848104070532
 20
51.64424087927431
 30
0.0
 10
89.2471666049308
 20
51.64424087927431
 30
0.0
 10
89.52585216915627
 20
51.64424087927431
 30
0.0
 10
89.74809869873237
 20
51.42199434969823
 30
0.0
 10
89.74809869873237
 20
51.14330878547274
 30
0.0
 10
89.74809869873237
 20
50.86462322124726
 30
0.0
 10
89.52585216915627
 20
50.64237669167118
 30
0.0
 10
89.2471666049308
 20
50.64237669167118
 30
0.0
  0
SPLINE
  5
90
330
70
100
AcDbEntity
  8
PCB holes
 62
     5
420
      255
370
     9
100
AcDbSpline
210
0.0
220
0.0
230
1.0
 70
     9
 71
     3
 72
    17
 73
    13
 74
     0
 42
0.0000000001
 43
0.0000000001
 40
0.0
 40
0.0
 40
0.0
 40
0.0
 40
1.0
 40
1.0
 40
1.0
 40
2.0
 40
2.0
 40
2.0
 40
3.0
 40
3.0
 40
3.0
 40
4.0
 40
4.0
 40
4.0
 40
4.0
 10
89.2471666049308
 20
48.6421740739943
 30
0.0
 10
88.97200679823468
 20
48.6421740739943
 30
0.0
 10
88.74623451112924
 20
48.86442060357037
 30
0.0
 10
88.74623451112924
 20
49.14310616779586
 30
0.0
 10
88.74623451112924
 20
49.42179173202135
 30
0.0
 10
88.96848104070532
 20
49.64403826159742
 30
0.0
 10
89.2471666049308
 20
49.64403826159742
 30
0.0
 10
89.52585216915627
 20
49.64403826159742
 30
0.0
 10
89.74809869873237
 20
49.42179173202135
 30
0.0
 10
89.74809869873237
 20
49.14310616779586
 30
0.0
 10
89.74809869873237
 20
48.86442060357037
 30
0.0
 10
89.52585216915627
 20
48.6421740739943
 30
0.0
 10
89.2471666049308
 20
48.6421740739943
 30
0.0
  0
SPLINE
  5
91
330
70
100
AcDbEntity
  8
PCB holes
 62
     5
420
      255
370
     9
100
AcDbSpline
210
0.0
220
0.0
230
1.0
 70
     9
 71
     3
 72
    17
 73
    13
 74
     0
 42
0.0000000001
 43
0.0000000001
 40
0.0
 40
0.0
 40
0.0
 40
0.0
 40
1.0
 40
1.0
 40
1.0
 40
2.0
 40
2.0
 40
2.0
 40
3.0
 40
3.0
 40
3.0
 40
4.0
 40
4.0
 40
4.0
 40
4.0
 10
89.2471666049308
 20
46.64197145631741
 30
0.0
 10
88.97200679823468
 20
46.64197145631741
 30
0.0
 10
88.74623451112924
 20
46.86421798589349
 30
0.0
 10
88.74623451112924
 20
47.14290355011899
 30
0.0
 10
88.74623451112924
 20
47.42158911434446
 30
0.0
 10
88.96848104070532
 20
47.64383564392054
 30
0.0
 10
89.2471666049308
 20
47.64383564392054
 30
0.0
 10
89.52585216915627
 20
47.64383564392054
 30
0.0
 10
89.74809869873237
 20
47.42158911434446
 30
0.0
 10
89.74809869873237
 20
47.14290355011899
 30
0.0
 10
89.74809869873237
 20
46.86421798589349
 30
0.0
 10
89.52585216915627
 20
46.64197145631741
 30
0.0
 10
89.2471666049308
 20
46.64197145631741
 30
0.0
  0
SPLINE
  5
92
330
70
100
AcDbEntity
  8
PCB holes
 62
     5
420
      255
370
     9
100
AcDbSpline
210
0.0
220
0.0
230
1.0
 70
     9
 71
     3
 72
    17
 73
    13
 74
     0
 42
0.0000000001
 43
0.0000000001
 40
0.0
 40
0.0
 40
0.0
 40
0.0
 40
1.0
 40
1.0
 40
1.0
 40
2.0
 40
2.0
 40
2.0
 40
3.0
 40
3.0
 40
3.0
 40
4.0
 40
4.0
 40
4.0
 40
4.0
 10
87.24696398725392
 20
54.64278192702494
 30
0.0
 10
86.97180418055779
 20
54.64278192702494
 30
0.0
 10
86.74603189345235
 20
54.86502845660101
 30
0.0
 10
86.74603189345235
 20
55.1437140208265
 30
0.0
 10
86.74603189345235
 20
55.42239958505199
 30
0.0
 10
86.96827842302843
 20
55.64464611462806
 30
0.0
 10
87.24696398725392
 20
55.64464611462806
 30
0.0
 10
87.5256495514794
 20
55.64464611462806
 30
0.0
 10
87.74789608105548
 20
55.42239958505199
 30
0.0
 10
87.74789608105548
 20
55.1437140208265
 30
0.0
 10
87.74789608105548
 20
54.86502845660101
 30
0.0
 10
87.5256495514794
 20
54.64278192702494
 30
0.0
 10
87.24696398725392
 20
54.64278192702494
 30
0.0
  0
SPLINE
  5
93
330
70
100
AcDbEntity
  8
PCB holes
 62
     5
420
      255
370
     9
100
AcDbSpline
210
0.0
220
0.0
230
1.0
 70
     9
 71
     3
 72
    17
 73
    13
 74
     0
 42
0.0000000001
 43
0.0000000001
 40
0.0
 40
0.0
 40
0.0
 40
0.0
 40
1.0
 40
1.0
 40
1.0
 40
2.0
 40
2.0
 40
2.0
 40
3.0
 40
3.0
 40
3.0
 40
4.0
 40
4.0
 40
4.0
 40
4.0
 10
87.24696398725392
 20
52.64257930934807
 30
0.0
 10
86.97180418055779
 20
52.64257930934807
 30
0.0
 10
86.74603189345235
 20
52.86482583892413
 30
0.0
 10
86.74603189345235
 20
53.14351140314962
 30
0.0
 10
86.74603189345235
 20
53.42219696737511
 30
0.0
 10
86.96827842302843
 20
53.64444349695118
 30
0.0
 10
87.24696398725392
 20
53.64444349695118
 30
0.0
 10
87.5256495514794
 20
53.64444349695118
 30
0.0
 10
87.74789608105548
 20
53.42219696737511
 30
0.0
 10
87.74789608105548
 20
53.14351140314962
 30
0.0
 10
87.74789608105548
 20
52.86482583892413
 30
0.0
 10
87.5256495514794
 20
52.64257930934807
 30
0.0
 10
87.24696398725392
 20
52.64257930934807
 30
0.0
  0
SPLINE
  5
94
330
70
100
AcDbEntity
  8
PCB holes
 62
     5
420
      255
370
     9
100
AcDbSpline
210
0.0
220
0.0
230
1.0
 70
     9
 71
     3
 72
    17
 73
    13
 74
     0
 42
0.0000000001
 43
0.0000000001
 40
0.0
 40
0.0
 40
0.0
 40
0.0
 40
1.0
 40
1.0
 40
1.0
 40
2.0
 40
2.0
 40
2.0
 40
3.0
 40
3.0
 40
3.0
 40
4.0
 40
4.0
 40
4.0
 40
4.0
 10
87.24696398725392
 20
50.64237669167118
 30
0.0
 10
86.97180418055779
 20
50.64237669167118
 30
0.0
 10
86.74603189345235
 20
50.86462322124726
 30
0.0
 10
86.74603189345235
 20
51.14330878547274
 30
0.0
 10
86.74603189345235
 20
51.42199434969823
 30
0.0
 10
86.96827842302843
 20
51.64424087927431
 30
0.0
 10
87.24696398725392
 20
51.64424087927431
 30
0.0
 10
87.5256495514794
 20
51.64424087927431
 30
0.0
 10
87.74789608105548
 20
51.42199434969823
 30
0.0
 10
87.74789608105548
 20
51.14330878547274
 30
0.0
 10
87.74789608105548
 20
50.86462322124726
 30
0.0
 10
87.5256495514794
 20
50.64237669167118
 30
0.0
 10
87.24696398725392
 20
50.64237669167118
 30
0.0
  0
SPLINE
  5
95
330
70
100
AcDbEntity
  8
PCB holes
 62
     5
420
      255
370
     9
100
AcDbSpline
210
0.0
220
0.0
230
1.0
 70
     9
 71
     3
 72
    17
 73
    13
 74
     0
 42
0.0000000001
 43
0.0000000001
 40
0.0
 40
0.0
 40
0.0
 40
0.0
 40
1.0
 40
1.0
 40
1.0
 40
2.0
 40
2.0
 40
2.0
 40
3.0
 40
3.0
 40
3.0
 40
4.0
 40
4.0
 40
4.0
 40
4.0
 10
87.24696398725392
 20
48.6421740739943
 30
0.0
 10
86.97180418055779
 20
48.6421740739943
 30
0.0
 10
86.74603189345235
 20
48.86442060357037
 30
0.0
 10
86.74603189345235
 20
49.14310616779586
 30
0.0
 10
86.74603189345235
 20
49.42179173202135
 30
0.0
 10
86.96827842302843
 20
49.64403826159742
 30
0.0
 10
87.24696398725392
 20
49.64403826159742
 30
0.0
 10
87.5256495514794
 20
49.64403826159742
 30
0.0
 10
87.74789608105548
 20
49.42179173202135
 30
0.0
 10
87.74789608105548
 20
49.14310616779586
 30
0.0
 10
87.74789608105548
 20
48.86442060357037
 30
0.0
 10
87.5256495514794
 20
48.6421740739943
 30
0.0
 10
87.24696398725392
 20
48.6421740739943
 30
0.0
  0
SPLINE
  5
96
330
70
100
AcDbEntity
  8
PCB holes
 62
     5
420
      255
370
     9
100
AcDbSpline
210
0.0
220
0.0
230
1.0
 70
     9
 71
     3
 72
    17
 73
    13
 74
     0
 42
0.0000000001
 43
0.0000000001
 40
0.0
 40
0.0
 40
0.0
 40
0.0
 40
1.0
 40
1.0
 40
1.0
 40
2.0
 40
2.0
 40
2.0
 40
3.0
 40
3.0
 40
3.0
 40
4.0
 40
4.0
 40
4.0
 40
4.0
 10
87.24696398725392
 20
46.64197145631741
 30
0.0
 10
86.97180418055779
 20
46.64197145631741
 30
0.0
 10
86.74603189345235
 20
46.86421798589349
 30
0.0
 10
86.74603189345235
 20
47.14290355011899
 30
0.0
 10
86.74603189345235
 20
47.42158911434446
 30
0.0
 10
86.96827842302843
 20
47.64383564392054
 30
0.0
 10
87.24696398725392
 20
47.64383564392054
 30
0.0
 10
87.5256495514794
 20
47.64383564392054
 30
0.0
 10
87.74789608105548
 20
47.42158911434446
 30
0.0
 10
87.74789608105548
 20
47.14290355011899
 30
0.0
 10
87.74789608105548
 20
46.86421798589349
 30
0.0
 10
87.5256495514794
 20
46.64197145631741
 30
0.0
 10
87.24696398725392
 20
46.64197145631741
 30
0.0
  0
SPLINE
  5
97
330
70
100
AcDbEntity
  8
PCB holes
 62
     5
420
      255
370
     9
100
AcDbSpline
210
0.0
220
0.0
230
1.0
 70
     9
 71
     3
 72
    17
 73
    13
 74
     0
 42
0.0000000001
 43
0.0000000001
 40
0.0
 40
0.0
 40
0.0
 40
0.0
 40
1.0
 40
1.0
 40
1.0
 40
2.0
 40
2.0
 40
2.0
 40
3.0
 40
3.0
 40
3.0
 40
4.0
 40
4.0
 40
4.0
 40
4.0
 10
85.24676136957705
 20
54.64278730986086
 30
0.0
 10
84.97160156288092
 20
54.64278730986086
 30
0.0
 10
84.74582927577548
 20
54.86503383943693
 30
0.0
 10
84.74582927577548
 20
55.14371940366242
 30
0.0
 10
84.74582927577548
 20
55.42240496788791
 30
0.0
 10
84.96807580535154
 20
55.64465149746398
 30
0.0
 10
85.24676136957705
 20
55.64465149746398
 30
0.0
 10
85.52544693380253
 20
55.64465149746398
 30
0.0
 10
85.74769346337859
 20
55.42240496788791
 30
0.0
 10
85.74769346337859
 20
55.14371940366242
 30
0.0
 10
85.74769346337859
 20
54.86503383943693
 30
0.0
 10
85.52544693380253
 20
54.64278730986086
 30
0.0
 10
85.24676136957705
 20
54.64278730986086
 30
0.0
  0
SPLINE
  5
98
330
70
100
AcDbEntity
  8
PCB holes
 62
     5
420
      255
370
     9
100
AcDbSpline
210
0.0
220
0.0
230
1.0
 70
     9
 71
     3
 72
    17
 73
    13
 74
     0
 42
0.0000000001
 43
0.0000000001
 40
0.0
 40
0.0
 40
0.0
 40
0.0
 40
1.0
 40
1.0
 40
1.0
 40
2.0
 40
2.0
 40
2.0
 40
3.0
 40
3.0
 40
3.0
 40
4.0
 40
4.0
 40
4.0
 40
4.0
 10
85.24676136957705
 20
52.64258469218399
 30
0.0
 10
84.97160156288092
 20
52.64258469218399
 30
0.0
 10
84.74582927577548
 20
52.86483122176005
 30
0.0
 10
84.74582927577548
 20
53.14351678598555
 30
0.0
 10
84.74582927577548
 20
53.42220235021103
 30
0.0
 10
84.96807580535154
 20
53.6444488797871
 30
0.0
 10
85.24676136957705
 20
53.6444488797871
 30
0.0
 10
85.52544693380253
 20
53.6444488797871
 30
0.0
 10
85.74769346337859
 20
53.42220235021103
 30
0.0
 10
85.74769346337859
 20
53.14351678598555
 30
0.0
 10
85.74769346337859
 20
52.86483122176005
 30
0.0
 10
85.52544693380253
 20
52.64258469218399
 30
0.0
 10
85.24676136957705
 20
52.64258469218399
 30
0.0
  0
SPLINE
  5
99
330
70
100
AcDbEntity
  8
PCB holes
 62
     5
420
      255
370
     9
100
AcDbSpline
210
0.0
220
0.0
230
1.0
 70
     9
 71
     3
 72
    17
 73
    13
 74
     0
 42
0.0000000001
 43
0.0000000001
 40
0.0
 40
0.0
 40
0.0
 40
0.0
 40
1.0
 40
1.0
 40
1.0
 40
2.0
 40
2.0
 40
2.0
 40
3.0
 40
3.0
 40
3.0
 40
4.0
 40
4.0
 40
4.0
 40
4.0
 10
85.24676136957705
 20
50.6423820745071
 30
0.0
 10
84.97160156288092
 20
50.6423820745071
 30
0.0
 10
84.74582927577548
 20
50.86462860408317
 30
0.0
 10
84.74582927577548
 20
51.14331416830866
 30
0.0
 10
84.74582927577548
 20
51.42199973253415
 30
0.0
 10
84.96807580535154
 20
51.64424626211022
 30
0.0
 10
85.24676136957705
 20
51.64424626211022
 30
0.0
 10
85.52544693380253
 20
51.64424626211022
 30
0.0
 10
85.74769346337859
 20
51.42199973253415
 30
0.0
 10
85.74769346337859
 20
51.14331416830866
 30
0.0
 10
85.74769346337859
 20
50.86462860408317
 30
0.0
 10
85.52544693380253
 20
50.6423820745071
 30
0.0
 10
85.24676136957705
 20
50.6423820745071
 30
0.0
  0
SPLINE
  5
9A
330
70
100
AcDbEntity
  8
PCB holes
 62
     5
420
      255
370
     9
100
AcDbSpline
210
0.0
220
0.0
230
1.0
 70
     9
 71
     3
 72
    17
 73
    13
 74
     0
 42
0.0000000001
 43
0.0000000001
 40
0.0
 40
0.0
 40
0.0
 40
0.0
 40
1.0
 40
1.0
 40
1.0
 40
2.0
 40
2.0
 40
2.0
 40
3.0
 40
3.0
 40
3.0
 40
4.0
 40
4.0
 40
4.0
 40
4.0
 10
85.24676136957705
 20
48.64217945683023
 30
0.0
 10
84.97160156288092
 20
48.64217945683023
 30
0.0
 10
84.74582927577548
 20
48.8644259864063
 30
0.0
 10
84.74582927577548
 20
49.14311155063178
 30
0.0
 10
84.74582927577548
 20
49.42179711485728
 30
0.0
 10
84.96807580535154
 20
49.64404364443335
 30
0.0
 10
85.24676136957705
 20
49.64404364443335
 30
0.0
 10
85.52544693380253
 20
49.64404364443335
 30
0.0
 10
85.74769346337859
 20
49.42179711485728
 30
0.0
 10
85.74769346337859
 20
49.14311155063178
 30
0.0
 10
85.74769346337859
 20
48.8644259864063
 30
0.0
 10
85.52544693380253
 20
48.64217945683023
 30
0.0
 10
85.24676136957705
 20
48.64217945683023
 30
0.0
  0
SPLINE
  5
9B
330
70
100
AcDbEntity
  8
PCB holes
 62
     5
420
      255
370
     9
100
AcDbSpline
210
0.0
220
0.0
230
1.0
 70
     9
 71
     3
 72
    17
 73
    13
 74
     0
 42
0.0000000001
 43
0.0000000001
 40
0.0
 40
0.0
 40
0.0
 40
0.0
 40
1.0
 40
1.0
 40
1.0
 40
2.0
 40
2.0
 40
2.0
 40
3.0
 40
3.0
 40
3.0
 40
4.0
 40
4.0
 40
4.0
 40
4.0
 10
85.24676136957705
 20
46.64197683915334
 30
0.0
 10
84.97160156288092
 20
46.64197683915334
 30
0.0
 10
84.74582927577548
 20
46.86422336872942
 30
0.0
 10
84.74582927577548
 20
47.1429089329549
 30
0.0
 10
84.74582927577548
 20
47.42159449718039
 30
0.0
 10
84.96807580535154
 20
47.64384102675647
 30
0.0
 10
85.24676136957705
 20
47.64384102675647
 30
0.0
 10
85.52544693380253
 20
47.64384102675647
 30
0.0
 10
85.74769346337859
 20
47.42159449718039
 30
0.0
 10
85.74769346337859
 20
47.1429089329549
 30
0.0
 10
85.74769346337859
 20
46.86422336872942
 30
0.0
 10
85.52544693380253
 20
46.64197683915334
 30
0.0
 10
85.24676136957705
 20
46.64197683915334
 30
0.0
  0
SPLINE
  5
9C
330
70
100
AcDbEntity
  8
PCB holes
 62
     5
420
      255
370
     9
100
AcDbSpline
210
0.0
220
0.0
230
1.0
 70
    11
 71
     3
 72
    20
 73
    16
 74
     0
 42
0.0000000001
 43
0.0000000001
 40
0.0
 40
0.0
 40
0.0
 40
0.0
 40
1.0
 40
1.0
 40
1.0
 40
2.0
 40
2.0
 40
2.0
 40
3.0
 40
3.0
 40
3.0
 40
4.0
 40
4.0
 40
4.0
 40
5.0
 40
5.0
 40
5.0
 40
5.0
 10
81.22165968300997
 20
95.78277414532804
 30
0.0
 10
81.22165968300997
 20
95.78277414532804
 30
0.0
 10
95.22307800674813
 20
95.78277414532804
 30
0.0
 10
95.22307800674813
 20
95.78277414532804
 30
0.0
 10
95.22307800674813
 20
95.78277414532804
 30
0.0
 10
95.22307800674813
 20
81.78135043875396
 30
0.0
 10
95.22307800674813
 20
81.78135043875396
 30
0.0
 10
95.22307800674813
 20
81.78135043875396
 30
0.0
 10
81.22165430017405
 20
81.78135043875396
 30
0.0
 10
81.22165430017405
 20
81.78135043875396
 30
0.0
 10
81.22165430017405
 20
81.78135043875396
 30
0.0
 10
81.22165430017405
 20
95.78277549103702
 30
0.0
 10
81.22165430017405
 20
95.78277549103702
 30
0.0
 10
81.22165430017405
 20
95.78277549103702
 30
0.0
 10
81.22165968300997
 20
95.78277414532804
 30
0.0
 10
81.22165968300997
 20
95.78277414532804
 30
0.0
  0
SPLINE
  5
9D
330
70
100
AcDbEntity
  8
PCB holes
 62
     5
420
      255
370
     9
100
AcDbSpline
210
0.0
220
0.0
230
1.0
 70
    11
 71
     3
 72
    17
 73
    13
 74
     0
 42
0.0000000001
 43
0.0000000001
 40
0.0
 40
0.0
 40
0.0
 40
0.0
 40
1.0
 40
1.0
 40
1.0
 40
2.0
 40
2.0
 40
2.0
 40
3.0
 40
3.0
 40
3.0
 40
4.0
 40
4.0
 40
4.0
 40
4.0
 10
79.1226820261517
 20
31.68807646456684
 30
0.0
 10
79.1226820261517
 20
31.68807646456684
 30
0.0
 10
65.12478945994292
 20
31.68807646456684
 30
0.0
 10
65.12478945994292
 20
31.68807646456684
 30
0.0
 10
65.12478945994292
 20
31.68807646456684
 30
0.0
 10
65.12478945994292
 20
45.68596903077563
 30
0.0
 10
65.12478945994292
 20
45.68596903077563
 30
0.0
 10
65.12478945994292
 20
45.68596903077563
 30
0.0
 10
79.1226820261517
 20
45.68596903077563
 30
0.0
 10
79.1226820261517
 20
45.68596903077563
 30
0.0
 10
79.1226820261517
 20
45.68596903077563
 30
0.0
 10
79.1226820261517
 20
31.68807646456684
 30
0.0
 10
79.1226820261517
 20
31.68807646456684
 30
0.0
  0
SPLINE
  5
9E
330
70
100
AcDbEntity
  8
PCB holes
 62
     5
420
      255
370
     9
100
AcDbSpline
210
0.0
220
0.0
230
1.0
 70
    11
 71
     3
 72
    17
 73
    13
 74
     0
 42
0.0000000001
 43
0.0000000001
 40
0.0
 40
0.0
 40
0.0
 40
0.0
 40
1.0
 40
1.0
 40
1.0
 40
2.0
 40
2.0
 40
2.0
 40
3.0
 40
3.0
 40
3.0
 40
4.0
 40
4.0
 40
4.0
 40
4.0
 10
62.17210479141769
 20
67.68820859089315
 30
0.0
 10
62.17210479141769
 20
67.68820859089315
 30
0.0
 10
76.17352849799177
 20
67.68820859089315
 30
0.0
 10
76.17352849799177
 20
67.68820859089315
 30
0.0
 10
76.17352849799177
 20
67.68820859089315
 30
0.0
 10
76.17352849799177
 20
53.68678488431907
 30
0.0
 10
76.17352849799177
 20
53.68678488431907
 30
0.0
 10
76.17352849799177
 20
53.68678488431907
 30
0.0
 10
62.17210479141769
 20
53.68678488431907
 30
0.0
 10
62.17210479141769
 20
53.68678488431907
 30
0.0
 10
62.17210479141769
 20
53.68678488431907
 30
0.0
 10
62.17210479141769
 20
67.68820859089315
 30
0.0
 10
62.17210479141769
 20
67.68820859089315
 30
0.0
  0
SPLINE
  5
9F
330
70
100
AcDbEntity
  8
PCB holes
 62
     5
420
      255
370
     9
100
AcDbSpline
210
0.0
220
0.0
230
1.0
 70
    11
 71
     3
 72
    17
 73
    13
 74
     0
 42
0.0000000001
 43
0.0000000001
 40
0.0
 40
0.0
 40
0.0
 40
0.0
 40
1.0
 40
1.0
 40
1.0
 40
2.0
 40
2.0
 40
2.0
 40
3.0
 40
3.0
 40
3.0
 40
4.0
 40
4.0
 40
4.0
 40
4.0
 10
46.06112077256134
 20
27.23612665500221
 30
0.0
 10
46.06112077256134
 20
27.23612665500221
 30
0.0
 10
42.43817614061444
 20
40.75778357862275
 30
0.0
 10
42.43817614061444
 20
40.75778357862275
 30
0.0
 10
42.43817614061444
 20
40.75778357862275
 30
0.0
 10
55.95983306423498
 20
44.38072821056963
 30
0.0
 10
55.95983306423498
 20
44.38072821056963
 30
0.0
 10
55.95983306423498
 20
44.38072821056963
 30
0.0
 10
59.58277769618187
 20
30.8590712869491
 30
0.0
 10
59.58277769618187
 20
30.8590712869491
 30
0.0
 10
59.58277769618187
 20
30.8590712869491
 30
0.0
 10
46.06112077256134
 20
27.23612665500221
 30
0.0
 10
46.06112077256134
 20
27.23612665500221
 30
0.0
  0
SPLINE
  5
A0
330
70
100
AcDbEntity
  8
PCB holes
 62
     5
420
      255
370
     9
100
AcDbSpline
210
0.0
220
0.0
230
1.0
 70
    11
 71
     3
 72
    17
 73
    13
 74
     0
 42
0.0000000001
 43
0.0000000001
 40
0.0
 40
0.0
 40
0.0
 40
0.0
 40
1.0
 40
1.0
 40
1.0
 40
2.0
 40
2.0
 40
2.0
 40
3.0
 40
3.0
 40
3.0
 40
4.0
 40
4.0
 40
4.0
 40
4.0
 10
28.7965788669645
 20
18.04295343338753
 30
0.0
 10
28.7965788669645
 20
18.04295343338753
 30
0.0
 10
21.79763123815113
 20
30.1676406298435
 30
0.0
 10
21.79763123815113
 20
30.1676406298435
 30
0.0
 10
21.79763123815113
 20
30.1676406298435
 30
0.0
 10
33.92231978031607
 20
37.16658691294789
 30
0.0
 10
33.92231978031607
 20
37.16658691294789
 30
0.0
 10
33.92231978031607
 20
37.16658691294789
 30
0.0
 10
40.92126606342047
 20
25.04189971649193
 30
0.0
 10
40.92126606342047
 20
25.04189971649193
 30
0.0
 10
40.92126606342047
 20
25.04189971649193
 30
0.0
 10
28.7965788669645
 20
18.04295343338753
 30
0.0
 10
28.7965788669645
 20
18.04295343338753
 30
0.0
  0
SPLINE
  5
A1
330
70
100
AcDbEntity
  8
PCB holes
 62
     5
420
      255
370
     9
100
AcDbSpline
210
0.0
220
0.0
230
1.0
 70
    11
 71
     3
 72
    20
 73
    16
 74
     0
 42
0.0000000001
 43
0.0000000001
 40
0.0
 40
0.0
 40
0.0
 40
0.0
 40
1.0
 40
1.0
 40
1.0
 40
2.0
 40
2.0
 40
2.0
 40
3.0
 40
3.0
 40
3.0
 40
4.0
 40
4.0
 40
4.0
 40
5.0
 40
5.0
 40
5.0
 40
5.0
 10
14.50235580037564
 20
4.662407553480338
 30
0.0
 10
14.50235580037564
 20
4.662407553480338
 30
0.0
 10
4.603642835847496
 20
14.56111984515399
 30
0.0
 10
4.603642835847496
 20
14.56111984515399
 30
0.0
 10
4.603642835847496
 20
14.56111984515399
 30
0.0
 10
14.50235580037564
 20
24.45983213682764
 30
0.0
 10
14.50235580037564
 20
24.45983213682764
 30
0.0
 10
14.50235580037564
 20
24.45983213682764
 30
0.0
 10
24.40106809204929
 20
14.56111984515399
 30
0.0
 10
24.40106809204929
 20
14.56111984515399
 30
0.0
 10
24.40106809204929
 20
14.56111984515399
 30
0.0
 10
14.50235580037564
 20
4.662407553480338
 30
0.0
 10
14.50235580037564
 20
4.662407553480338
 30
0.0
 10
14.50235580037564
 20
4.662407553480338
 30
0.0
 10
14.50235580037564
 20
4.662407553480338
 30
0.0
 10
14.50235580037564
 20
4.662407553480338
 30
0.0
  0
SPLINE
  5
A2
330
70
100
AcDbEntity
  8
PCB holes
 62
     5
420
      255
370
     9
100
AcDbSpline
210
0.0
220
0.0
230
1.0
 70
     9
 71
     3
 72
    17
 73
    13
 74
     0
 42
0.0000000001
 43
0.0000000001
 40
0.0
 40
0.0
 40
0.0
 40
0.0
 40
1.0
 40
1.0
 40
1.0
 40
2.0
 40
2.0
 40
2.0
 40
3.0
 40
3.0
 40
3.0
 40
4.0
 40
4.0
 40
4.0
 40
4.0
 10
12.41395945323241
 20
33.33550954721423
 30
0.0
 10
12.99250127536733
 20
33.33550954721423
 30
0.0
 10
13.4652125061352
 20
32.8663254196847
 30
0.0
 10
13.4652125061352
 20
32.28425784002042
 30
0.0
 10
13.4652125061352
 20
31.70219026035614
 30
0.0
 10
12.99602837860567
 20
31.23300613282661
 30
0.0
 10
12.41395945323241
 20
31.23300613282661
 30
0.0
 10
11.83189052785914
 20
31.23300613282661
 30
0.0
 10
11.36270640032961
 20
31.70219026035614
 30
0.0
 10
11.36270640032961
 20
32.28425784002042
 30
0.0
 10
11.36270640032961
 20
32.8663254196847
 30
0.0
 10
11.83189052785914
 20
33.33550954721423
 30
0.0
 10
12.41395945323241
 20
33.33550954721423
 30
0.0
  0
SPLINE
  5
A3
330
70
100
AcDbEntity
  8
PCB holes
 62
     5
420
      255
370
     9
100
AcDbSpline
210
0.0
220
0.0
230
1.0
 70
     9
 71
     3
 72
    17
 73
    13
 74
     0
 42
0.0000000001
 43
0.0000000001
 40
0.0
 40
0.0
 40
0.0
 40
0.0
 40
1.0
 40
1.0
 40
1.0
 40
2.0
 40
2.0
 40
2.0
 40
3.0
 40
3.0
 40
3.0
 40
4.0
 40
4.0
 40
4.0
 40
4.0
 10
12.41395945323241
 20
112.7651013648975
 30
0.0
 10
12.99250127536733
 20
112.7651013648975
 30
0.0
 10
13.4652125061352
 20
112.2959179102225
 30
0.0
 10
13.4652125061352
 20
111.7138483119948
 30
0.0
 10
13.4652125061352
 20
111.131778713767
 30
0.0
 10
12.99602837860567
 20
110.662595259092
 30
0.0
 10
12.41395945323241
 20
110.662595259092
 30
0.0
 10
11.83189052785914
 20
110.662595259092
 30
0.0
 10
11.36270640032961
 20
111.131778713767
 30
0.0
 10
11.36270640032961
 20
111.7138483119948
 30
0.0
 10
11.36270640032961
 20
112.2959179102225
 30
0.0
 10
11.83189052785914
 20
112.7651013648975
 30
0.0
 10
12.41395945323241
 20
112.7651013648975
 30
0.0
  0
SPLINE
  5
A4
330
70
100
AcDbEntity
  8
PCB holes
 62
     5
420
      255
370
     9
100
AcDbSpline
210
0.0
220
0.0
230
1.0
 70
    11
 71
     3
 72
    20
 73
    16
 74
     0
 42
0.0000000001
 43
0.0000000001
 40
0.0
 40
0.0
 40
0.0
 40
0.0
 40
1.0
 40
1.0
 40
1.0
 40
2.0
 40
2.0
 40
2.0
 40
3.0
 40
3.0
 40
3.0
 40
4.0
 40
4.0
 40
4.0
 40
5.0
 40
5.0
 40
5.0
 40
5.0
 10
31.56229072971506
 20
60.11072048565383
 30
0.0
 10
31.56229072971506
 20
60.11072048565383
 30
0.0
 10
31.56229072971506
 20
46.91008513079075
 30
0.0
 10
31.56229072971506
 20
46.91008513079075
 30
0.0
 10
31.56229072971506
 20
46.91008513079075
 30
0.0
 10
17.96655252670848
 20
46.91008513079075
 30
0.0
 10
17.96655252670848
 20
46.91008513079075
 30
0.0
 10
17.96655252670848
 20
46.91008513079075
 30
0.0
 10
17.96655252670848
 20
60.11072048565383
 30
0.0
 10
17.96655252670848
 20
60.11072048565383
 30
0.0
 10
17.96655252670848
 20
60.11072048565383
 30
0.0
 10
31.56581648724442
 20
60.11072048565383
 30
0.0
 10
31.56581648724442
 20
60.11072048565383
 30
0.0
 10
31.56581648724442
 20
60.11072048565383
 30
0.0
 10
31.56229072971506
 20
60.11072048565383
 30
0.0
 10
31.56229072971506
 20
60.11072048565383
 30
0.0
  0
SPLINE
  5
A5
330
70
100
AcDbEntity
  8
PCB holes
 62
     5
420
      255
370
     9
100
AcDbSpline
210
0.0
220
0.0
230
1.0
 70
    11
 71
     3
 72
    20
 73
    16
 74
     0
 42
0.0000000001
 43
0.0000000001
 40
0.0
 40
0.0
 40
0.0
 40
0.0
 40
1.0
 40
1.0
 40
1.0
 40
2.0
 40
2.0
 40
2.0
 40
3.0
 40
3.0
 40
3.0
 40
4.0
 40
4.0
 40
4.0
 40
5.0
 40
5.0
 40
5.0
 40
5.0
 10
12.44923721416074
 20
72.51056748880592
 30
0.0
 10
12.44923721416074
 20
72.51056748880592
 30
0.0
 10
12.44923721416074
 20
87.32688796004437
 30
0.0
 10
12.44923721416074
 20
87.32688796004437
 30
0.0
 10
12.44923721416074
 20
87.32688796004437
 30
0.0
 10
38.83992526846291
 20
87.32688796004437
 30
0.0
 10
38.83992526846291
 20
87.32688796004437
 30
0.0
 10
38.83992526846291
 20
87.32688796004437
 30
0.0
 10
38.83992526846291
 20
72.51056748880592
 30
0.0
 10
38.83992526846291
 20
72.51056748880592
 30
0.0
 10
38.83992526846291
 20
72.51056748880592
 30
0.0
 10
12.45276431739909
 20
72.51056748880592
 30
0.0
 10
12.45276431739909
 20
72.51056748880592
 30
0.0
 10
12.45276431739909
 20
72.51056748880592
 30
0.0
 10
12.44923721416074
 20
72.51056748880592
 30
0.0
 10
12.44923721416074
 20
72.51056748880592
 30
0.0
  0
SPLINE
  5
A6
330
70
100
AcDbEntity
  8
PCB holes
 62
     5
420
      255
370
     9
100
AcDbSpline
210
0.0
220
0.0
230
1.0
 70
     9
 71
     3
 72
    17
 73
    13
 74
     0
 42
0.0000000001
 43
0.0000000001
 40
0.0
 40
0.0
 40
0.0
 40
0.0
 40
1.0
 40
1.0
 40
1.0
 40
2.0
 40
2.0
 40
2.0
 40
3.0
 40
3.0
 40
3.0
 40
4.0
 40
4.0
 40
4.0
 40
4.0
 10
43.17546317694545
 20
64.63675426602247
 30
0.0
 10
43.17546317694545
 20
64.63675426602247
 30
0.0
 10
57.17336112599017
 20
64.63675426602247
 30
0.0
 10
57.17336112599017
 20
64.63675426602247
 30
0.0
 10
57.17336112599017
 20
64.63675426602247
 30
0.0
 10
57.17336112599017
 20
50.63533055944837
 30
0.0
 10
57.17336112599017
 20
50.63533055944837
 30
0.0
 10
57.17336112599017
 20
50.63533055944837
 30
0.0
 10
43.17546586836342
 20
50.63533055944837
 30
0.0
 10
43.17546586836342
 20
50.63533055944837
 30
0.0
 10
43.17546586836342
 20
50.63533055944837
 30
0.0
 10
43.17546586836342
 20
64.63675426602247
 30
0.0
 10
43.17546317694545
 20
64.63675426602247
 30
0.0
  0
SPLINE
  5
A7
330
70
100
AcDbEntity
  8
PCB holes
 62
     5
420
      255
370
     9
100
AcDbSpline
210
0.0
220
0.0
230
1.0
 70
     9
 71
     3
 72
    17
 73
    13
 74
     0
 42
0.0000000001
 43
0.0000000001
 40
0.0
 40
0.0
 40
0.0
 40
0.0
 40
1.0
 40
1.0
 40
1.0
 40
2.0
 40
2.0
 40
2.0
 40
3.0
 40
3.0
 40
3.0
 40
4.0
 40
4.0
 40
4.0
 40
4.0
 10
43.17546317694545
 20
83.73569667720543
 30
0.0
 10
43.17546317694545
 20
83.73569667720543
 30
0.0
 10
57.17336112599017
 20
83.73569667720543
 30
0.0
 10
57.17336112599017
 20
83.73569667720543
 30
0.0
 10
57.17336112599017
 20
83.73569667720543
 30
0.0
 10
57.17336112599017
 20
69.73427297063135
 30
0.0
 10
57.17336112599017
 20
69.73427297063135
 30
0.0
 10
57.17336112599017
 20
69.73427297063135
 30
0.0
 10
43.17546586836342
 20
69.73427297063135
 30
0.0
 10
43.17546586836342
 20
69.73427297063135
 30
0.0
 10
43.17546586836342
 20
69.73427297063135
 30
0.0
 10
43.17546586836342
 20
83.73569667720543
 30
0.0
 10
43.17546317694545
 20
83.73569667720543
 30
0.0
  0
SPLINE
  5
A8
330
70
100
AcDbEntity
  8
PCB holes
 62
     5
420
      255
370
     9
100
AcDbSpline
210
0.0
220
0.0
230
1.0
 70
     9
 71
     3
 72
    17
 73
    13
 74
     0
 42
0.0000000001
 43
0.0000000001
 40
0.0
 40
0.0
 40
0.0
 40
0.0
 40
1.0
 40
1.0
 40
1.0
 40
2.0
 40
2.0
 40
2.0
 40
3.0
 40
3.0
 40
3.0
 40
4.0
 40
4.0
 40
4.0
 40
4.0
 10
43.20368538568812
 20
102.8346404340974
 30
0.0
 10
43.20368538568812
 20
102.8346404340974
 30
0.0
 10
57.20157795189692
 20
102.8346404340974
 30
0.0
 10
57.20157795189692
 20
102.8346404340974
 30
0.0
 10
57.20157795189692
 20
102.8346404340974
 30
0.0
 10
57.20157795189692
 20
88.8332180732323
 30
0.0
 10
57.20157795189692
 20
88.8332180732323
 30
0.0
 10
57.20157795189692
 20
88.8332180732323
 30
0.0
 10
43.20368269427016
 20
88.8332180732323
 30
0.0
 10
43.20368269427016
 20
88.8332180732323
 30
0.0
 10
43.20368269427016
 20
88.8332180732323
 30
0.0
 10
43.20368269427016
 20
102.8346390883884
 30
0.0
 10
43.20368538568812
 20
102.8346404340974
 30
0.0
  0
SPLINE
  5
A9
330
70
100
AcDbEntity
  8
PCB holes
 62
     5
420
      255
370
     9
100
AcDbSpline
210
0.0
220
0.0
230
1.0
 70
    11
 71
     3
 72
    17
 73
    13
 74
     0
 42
0.0000000001
 43
0.0000000001
 40
0.0
 40
0.0
 40
0.0
 40
0.0
 40
1.0
 40
1.0
 40
1.0
 40
2.0
 40
2.0
 40
2.0
 40
3.0
 40
3.0
 40
3.0
 40
4.0
 40
4.0
 40
4.0
 40
4.0
 10
62.19679585979507
 20
86.71307241410806
 30
0.0
 10
62.19679585979507
 20
86.71307241410806
 30
0.0
 10
76.19821956636915
 20
86.71307241410806
 30
0.0
 10
76.19821956636915
 20
86.71307241410806
 30
0.0
 10
76.19821956636915
 20
86.71307241410806
 30
0.0
 10
76.19821956636915
 20
72.71164870753397
 30
0.0
 10
76.19821956636915
 20
72.71164870753397
 30
0.0
 10
76.19821956636915
 20
72.71164870753397
 30
0.0
 10
62.19679585979507
 20
72.71164870753397
 30
0.0
 10
62.19679585979507
 20
72.71164870753397
 30
0.0
 10
62.19679585979507
 20
72.71164870753397
 30
0.0
 10
62.19679585979507
 20
86.71307241410806
 30
0.0
 10
62.19679585979507
 20
86.71307241410806
 30
0.0
  0
SPLINE
  5
AA
330
70
100
AcDbEntity
  8
PCB holes
 62
     5
420
      255
370
     9
100
AcDbSpline
210
0.0
220
0.0
230
1.0
 70
     9
 71
     3
 72
    20
 73
    16
 74
     0
 42
0.0000000001
 43
0.0000000001
 40
0.0
 40
0.0
 40
0.0
 40
0.0
 40
1.0
 40
1.0
 40
1.0
 40
2.0
 40
2.0
 40
2.0
 40
3.0
 40
3.0
 40
3.0
 40
4.0
 40
4.0
 40
4.0
 40
5.0
 40
5.0
 40
5.0
 40
5.0
 10
62.19679585979507
 20
105.7979037209197
 30
0.0
 10
62.19679585979507
 20
105.7979037209197
 30
0.0
 10
76.19821956636915
 20
105.7979037209197
 30
0.0
 10
76.19821956636915
 20
105.7979037209197
 30
0.0
 10
76.19821956636915
 20
105.7979037209197
 30
0.0
 10
76.19821956636915
 20
91.80000846329294
 30
0.0
 10
76.19821956636915
 20
91.80000846329294
 30
0.0
 10
76.19821956636915
 20
91.80000846329294
 30
0.0
 10
62.19679585979507
 20
91.80000846329294
 30
0.0
 10
62.19679585979507
 20
91.80000846329294
 30
0.0
 10
62.19679585979507
 20
91.80000846329294
 30
0.0
 10
62.19679585979507
 20
105.7979023752107
 30
0.0
 10
62.19679585979507
 20
105.7979023752107
 30
0.0
 10
62.19679585979507
 20
105.7979023752107
 30
0.0
 10
62.19679585979507
 20
105.7979023752107
 30
0.0
 10
62.19679585979507
 20
105.7979037209197
 30
0.0
  0
SPLINE
  5
AB
330
70
100
AcDbEntity
  8
PCB holes
 62
     5
420
      255
370
     9
100
AcDbSpline
210
0.0
220
0.0
230
1.0
 70
     9
 71
     3
 72
    17
 73
    13
 74
     0
 42
0.0000000001
 43
0.0000000001
 40
0.0
 40
0.0
 40
0.0
 40
0.0
 40
1.0
 40
1.0
 40
1.0
 40
2.0
 40
2.0
 40
2.0
 40
3.0
 40
3.0
 40
3.0
 40
4.0
 40
4.0
 40
4.0
 40
4.0
 10
74.47670251291775
 20
112.726296837158
 30
0.0
 10
75.05524433505268
 20
112.726296837158
 30
0.0
 10
75.52795422011157
 20
112.2571130460558
 30
0.0
 10
75.52795422011157
 20
111.6750434478281
 30
0.0
 10
75.52795422011157
 20
111.0929738496003
 30
0.0
 10
75.05877009258203
 20
110.6237903949253
 30
0.0
 10
74.47670251291775
 20
110.6237903949253
 30
0.0
 10
73.89463493325347
 20
110.6237903949253
 30
0.0
 10
73.42545080572394
 20
111.0929738496003
 30
0.0
 10
73.42545080572394
 20
111.6750434478281
 30
0.0
 10
73.42545080572394
 20
112.2571130460558
 30
0.0
 10
73.89463493325347
 20
112.7262965007309
 30
0.0
 10
74.47670251291775
 20
112.726296837158
 30
0.0
  0
SPLINE
  5
AC
330
70
100
AcDbEntity
  8
PCB holes
 62
     5
420
      255
370
     9
100
AcDbSpline
210
0.0
220
0.0
230
1.0
 70
    11
 71
     3
 72
    20
 73
    16
 74
     0
 42
0.0000000001
 43
0.0000000001
 40
0.0
 40
0.0
 40
0.0
 40
0.0
 40
1.0
 40
1.0
 40
1.0
 40
2.0
 40
2.0
 40
2.0
 40
3.0
 40
3.0
 40
3.0
 40
4.0
 40
4.0
 40
4.0
 40
5.0
 40
5.0
 40
5.0
 40
5.0
 10
81.21812854264469
 20
114.7970539674099
 30
0.0
 10
81.21812854264469
 20
114.7970539674099
 30
0.0
 10
95.21954686638284
 20
114.7970539674099
 30
0.0
 10
95.21954686638284
 20
114.7970539674099
 30
0.0
 10
95.21954686638284
 20
114.7970539674099
 30
0.0
 10
95.21954686638284
 20
100.7956316065448
 30
0.0
 10
95.21954686638284
 20
100.7956316065448
 30
0.0
 10
95.21954686638284
 20
100.7956316065448
 30
0.0
 10
81.21812315980877
 20
100.7956316065448
 30
0.0
 10
81.21812315980877
 20
100.7956316065448
 30
0.0
 10
81.21812315980877
 20
100.7956316065448
 30
0.0
 10
81.21812315980877
 20
114.7970539674099
 30
0.0
 10
81.21812315980877
 20
114.7970539674099
 30
0.0
 10
81.21812315980877
 20
114.7970539674099
 30
0.0
 10
81.21812854264469
 20
114.7970539674099
 30
0.0
 10
81.21812854264469
 20
114.7970539674099
 30
0.0
  0
SPLINE
  5
AD
330
70
100
AcDbEntity
  8
PCB holes
 62
     5
420
      255
370
     9
100
AcDbSpline
210
0.0
220
0.0
230
1.0
 70
    11
 71
     3
 72
   134
 73
   130
 74
     0
 42
0.0000000001
 43
0.0000000001
 40
0.0
 40
0.0
 40
0.0
 40
0.0
 40
1.0
 40
1.0
 40
1.0
 40
2.0
 40
2.0
 40
2.0
 40
3.0
 40
3.0
 40
3.0
 40
4.0
 40
4.0
 40
4.0
 40
5.0
 40
5.0
 40
5.0
 40
6.0
 40
6.0
 40
6.0
 40
7.0
 40
7.0
 40
7.0
 40
8.0
 40
8.0
 40
8.0
 40
9.0
 40
9.0
 40
9.0
 40
10.0
 40
10.0
 40
10.0
 40
11.0
 40
11.0
 40
11.0
 40
12.0
 40
12.0
 40
12.0
 40
13.0
 40
13.0
 40
13.0
 40
14.0
 40
14.0
 40
14.0
 40
15.0
 40
15.0
 40
15.0
 40
16.0
 40
16.0
 40
16.0
 40
17.0
 40
17.0
 40
17.0
 40
18.0
 40
18.0
 40
18.0
 40
19.0
 40
19.0
 40
19.0
 40
20.0
 40
20.0
 40
20.0
 40
21.0
 40
21.0
 40
21.0
 40
22.0
 40
22.0
 40
22.0
 40
23.0
 40
23.0
 40
23.0
 40
24.0
 40
24.0
 40
24.0
 40
25.0
 40
25.0
 40
25.0
 40
26.0
 40
26.0
 40
26.0
 40
27.0
 40
27.0
 40
27.0
 40
28.0
 40
28.0
 40
28.0
 40
29.0
 40
29.0
 40
29.0
 40
30.0
 40
30.0
 40
30.0
 40
31.0
 40
31.0
 40
31.0
 40
32.0
 40
32.0
 40
32.0
 40
33.0
 40
33.0
 40
33.0
 40
34.0
 40
34.0
 40
34.0
 40
35.0
 40
35.0
 40
35.0
 40
36.0
 40
36.0
 40
36.0
 40
37.0
 40
37.0
 40
37.0
 40
38.0
 40
38.0
 40
38.0
 40
39.0
 40
39.0
 40
39.0
 40
40.0
 40
40.0
 40
40.0
 40
41.0
 40
41.0
 40
41.0
 40
42.0
 40
42.0
 40
42.0
 40
43.0
 40
43.0
 40
43.0
 40
43.0
 10
143.2455965328196
 20
91.53190286307349
 30
0.0
 10
143.2455965328196
 20
91.53190286307349
 30
0.0
 10
141.7357433535203
 20
91.80000846329294
 30
0.0
 10
141.7357433535203
 20
91.80000846329294
 30
0.0
 10
141.7357433535203
 20
91.80000846329294
 30
0.0
 10
141.7357433535203
 20
113.6223311062488
 30
0.0
 10
141.7357433535203
 20
113.6223311062488
 30
0.0
 10
141.7357433535203
 20
114.0103777293518
 30
0.0
 10
141.4217732998216
 20
114.3208149605492
 30
0.0
 10
141.0372557985201
 20
114.3208149605492
 30
0.0
 10
141.0372557985201
 20
114.3208149605492
 30
0.0
 10
98.73313918656027
 20
114.3208149605492
 30
0.0
 10
98.73313918656027
 20
114.3208149605492
 30
0.0
 10
98.73313918656027
 20
114.3208149605492
 30
0.0
 10
98.73313918656027
 20
117.5698223916277
 30
0.0
 10
98.73313918656027
 20
117.5698223916277
 30
0.0
 10
98.73313918656027
 20
117.9578688885711
 30
0.0
 10
98.41916913286153
 20
118.2683060777147
 30
0.0
 10
98.03465163156001
 20
118.2683060777147
 30
0.0
 10
98.03465163156001
 20
118.2683060777147
 30
0.0
 10
78.41008067536217
 20
118.2683060777147
 30
0.0
 10
78.41008067536217
 20
118.2683060777147
 30
0.0
 10
78.02203203369536
 20
118.2683060777147
 30
0.0
 10
77.71159850319785
 20
117.9543411965851
 30
0.0
 10
77.71159850319785
 20
117.5698223916277
 30
0.0
 10
77.71159850319785
 20
117.5698223916277
 30
0.0
 10
77.71159850319785
 20
114.3208149605492
 30
0.0
 10
77.71159850319785
 20
114.3208149605492
 30
0.0
 10
77.71159850319785
 20
114.3208149605492
 30
0.0
 10
10.50547699540573
 20
114.3208149605492
 30
0.0
 10
10.50547699540573
 20
114.3208149605492
 30
0.0
 10
10.1174303723024
 20
114.3208149605492
 30
0.0
 10
9.806993477532428
 20
114.0068499532593
 30
0.0
 10
9.806993477532428
 20
113.6223314426759
 30
0.0
 10
9.806993477532428
 20
113.6223314426759
 30
0.0
 10
9.806993477532428
 20
24.66796487061442
 30
0.0
 10
9.806993477532428
 20
24.66796487061442
 30
0.0
 10
9.806993477532428
 20
24.66796487061442
 30
0.0
 10
8.501745928781529
 20
23.36271328473658
 30
0.0
 10
8.501745928781529
 20
23.36271328473658
 30
0.0
 10
8.441775080912337
 20
23.30626886725124
 30
0.0
 10
8.385332009135979
 20
23.24630407507246
 30
0.0
 10
8.32888893735962
 20
23.18985965758712
 30
0.0
 10
8.32888893735962
 20
23.18985965758712
 30
0.0
 10
0.2539940753141682
 20
15.11497059891152
 30
0.0
 10
0.2539940753141682
 20
15.11497059891152
 30
0.0
 10
-0.0176384599302324
 20
14.84334193258068
 30
0.0
 10
-0.0176384599302324
 20
14.39884887342854
 30
0.0
 10
0.2539940753141682
 20
14.12368906673242
 30
0.0
 10
0.2539940753141682
 20
14.12368906673242
 30
0.0
 10
14.12842095449813
 20
0.2527883656117538
 30
0.0
 10
14.12842095449813
 20
0.2527883656117538
 30
0.0
 10
14.40005365795591
 20
-0.0188403007190867
 30
0.0
 10
14.84454267998111
 20
-0.0188403007190867
 30
0.0
 10
15.11970383238622
 20
0.2527883656117538
 30
0.0
 10
15.11970383238622
 20
0.2527883656117538
 30
0.0
 10
23.87897068739971
 20
9.008530808804859
 30
0.0
 10
23.87897068739971
 20
9.008530808804859
 30
0.0
 10
27.18089375058915
 20
12.07763006983013
 30
0.0
 10
30.73328286067936
 20
14.86450724342871
 30
0.0
 10
34.3668074566323
 20
17.17867453196839
 30
0.0
 10
34.39855542290433
 20
17.2033709831817
 30
0.0
 10
34.43383452954164
 20
17.22453629402972
 30
0.0
 10
34.469110944761
 20
17.24217046451246
 30
0.0
 10
34.49733315350367
 20
17.26333577536048
 30
0.0
 10
34.52555536224634
 20
17.28096994584322
 30
0.0
 10
34.55730332851838
 20
17.2986148819978
 30
0.0
 10
35.06881807774394
 20
17.62316759112054
 30
0.0
 10
35.58033551838748
 20
17.93712687914742
 30
0.0
 10
36.09537871656037
 20
18.24051427742214
 30
0.0
 10
36.26823503512779
 20
18.34634083166225
 30
0.0
 10
36.44461980264253
 20
18.44511587084363
 30
0.0
 10
36.61747881262792
 20
18.5474220503903
 30
0.0
 10
42.15595943602367
 20
21.74704431686899
 30
0.0
 10
48.10012825440489
 20
24.23759637292342
 30
0.0
 10
53.75502347030069
 20
25.75098069258804
 30
0.0
 10
59.91437653752742
 20
27.40193953276479
 30
0.0
 10
66.25717665299944
 20
28.26269805949048
 30
0.0
 10
72.13784415600068
 20
28.28386337033851
 30
0.0
 10
72.13784415600068
 20
28.28386337033851
 30
0.0
 10
81.95188982144633
 20
28.28386337033851
 30
0.0
 10
81.95188982144633
 20
28.28386337033851
 30
0.0
 10
82.33993846311314
 20
28.28386337033851
 30
0.0
 10
82.65037199361065
 20
28.59782804120131
 30
0.0
 10
82.65037199361065
 20
28.98234554250283
 30
0.0
 10
82.65037199361065
 20
28.98234554250283
 30
0.0
 10
82.65037199361065
 20
42.04187523648848
 30
0.0
 10
82.65037199361065
 20
42.04187523648848
 30
0.0
 10
82.65037199361065
 20
42.04187523648848
 30
0.0
 10
98.6308330070136
 20
42.04187523648848
 30
0.0
 10
98.6308330070136
 20
42.04187523648848
 30
0.0
 10
98.6308330070136
 20
42.04187523648848
 30
0.0
 10
113.7223132849481
 20
40.98356663140003
 30
0.0
 10
113.7223132849481
 20
40.98356663140003
 30
0.0
 10
113.7223132849481
 20
40.98356663140003
 30
0.0
 10
113.1155492540705
 20
37.55112056275719
 30
0.0
 10
113.1155492540705
 20
37.55112056275719
 30
0.0
 10
113.0485221811612
 20
37.17012881898503
 30
0.0
 10
113.3025166770093
 20
36.80677662853153
 30
0.0
 10
113.6835030379455
 20
36.73974955562218
 30
0.0
 10
113.6835030379455
 20
36.73974955562218
 30
0.0
 10
132.9517733187486
 20
33.34257721078073
 30
0.0
 10
132.9517733187486
 20
33.34257721078073
 30
0.0
 10
133.3327596796848
 20
33.27555013787137
 30
0.0
 10
133.6961118701383
 20
33.52954463371947
 30
0.0
 10
133.7631389430477
 20
33.91053637749163
 30
0.0
 10
133.7631389430477
 20
33.91053637749163
 30
0.0
 10
134.6415316402561
 20
38.89869738749514
 30
0.0
 10
134.6415316402561
 20
38.89869738749514
 30
0.0
 10
134.6415316402561
 20
38.89869738749514
 30
0.0
 10
141.0372450328482
 20
38.89869738749514
 30
0.0
 10
141.0372450328482
 20
38.89869738749514
 30
0.0
 10
141.425293674515
 20
38.89869738749514
 30
0.0
 10
141.7357325878485
 20
39.21266205835795
 30
0.0
 10
141.7357325878485
 20
39.59717955965947
 30
0.0
 10
141.7357325878485
 20
39.59717955965947
 30
0.0
 10
141.7357325878485
 20
78.95214264345934
 30
0.0
 10
141.7357325878485
 20
78.95214264345934
 30
0.0
 10
141.7357325878485
 20
78.95214264345934
 30
0.0
 10
143.8135503166946
 20
90.72406030488583
 30
0.0
 10
143.8135503166946
 20
90.72406030488583
 30
0.0
 10
143.880577389604
 20
91.10505204865798
 30
0.0
 10
143.6265828937559
 20
91.46840423911148
 30
0.0
 10
143.2455965328196
 20
91.53543131202082
 30
0.0
 10
143.2455965328196
 20
91.53543131202082
 30
0.0
 10
143.2491276731849
 20
91.53543131202082
 30
0.0
 10
143.2491276731849
 20
91.53543131202082
 30
0.0
 10
143.2491276731849
 20
91.53543131202082
 30
0.0
 10
143.2455965328196
 20
91.53190286307349
 30
0.0
 10
143.2455965328196
 20
91.53190286307349
 30
0.0
  0
ENDSEC
  0
SECTION
  2
OBJECTS
  0
DICTIONARY
  5
C
330
0
100
AcDbDictionary
281
     1
  3
ACAD_COLOR
350
63
  3
ACAD_DETAILVIEWSTYLE
350
6A
  3
ACAD_GROUP
350
D
  3
ACAD_LAYOUT
350
62
  3
ACAD_MATERIAL
350
10
  3
ACAD_MLEADERSTYLE
350
66
  3
ACAD_MLINESTYLE
350
5F
  3
ACAD_PLOTSETTINGS
350
61
  3
ACAD_PLOTSTYLENAME
350
E
  3
ACAD_SCALELIST
350
42
  3
ACAD_SECTIONVIEWSTYLE
350
68
  3
ACAD_TABLESTYLE
350
64
  3
ACAD_VISUALSTYLE
350
29
  3
ACDB_RECOMPOSE_DATA
350
B6
  3
AcDbVariableDictionary
350
AE
  0
DICTIONARY
  5
63
102
{ACAD_REACTORS
330
C
102
}
330
C
100
AcDbDictionary
281
     1
  0
DICTIONARY
  5
6A
102
{ACAD_REACTORS
330
C
102
}
330
C
100
AcDbDictionary
281
     1
  3
Imperial24
350
6B
  0
DICTIONARY
  5
D
102
{ACAD_REACTORS
330
C
102
}
330
C
100
AcDbDictionary
281
     1
  0
DICTIONARY
  5
62
102
{ACAD_REACTORS
330
C
102
}
330
C
100
AcDbDictionary
281
     1
  3
Layout1
350
6F
  3
Layout2
350
77
  3
Model
350
73
  0
DICTIONARY
  5
10
102
{ACAD_REACTORS
330
C
102
}
330
C
100
AcDbDictionary
281
     1
  3
ByBlock
350
19
  3
ByLayer
350
11
  3
Global
350
21
  0
DICTIONARY
  5
66
102
{ACAD_REACTORS
330
C
102
}
330
C
100
AcDbDictionary
281
     1
  3
Standard
350
67
  0
DICTIONARY
  5
5F
102
{ACAD_REACTORS
330
C
102
}
330
C
100
AcDbDictionary
281
     1
  3
Standard
350
60
  0
DICTIONARY
  5
61
102
{ACAD_REACTORS
330
C
102
}
330
C
100
AcDbDictionary
281
     1
  0
ACDBDICTIONARYWDFLT
  5
E
102
{ACAD_REACTORS
330
C
102
}
330
C
100
AcDbDictionary
281
     1
  3
Normal
350
F
100
AcDbDictionaryWithDefault
340
F
  0
DICTIONARY
  5
42
102
{ACAD_REACTORS
330
C
102
}
330
C
100
AcDbDictionary
281
     1
  3
A0
350
43
  3
A1
350
44
  3
A2
350
45
  3
A3
350
46
  3
A4
350
47
  3
A5
350
48
  3
A6
350
49
  3
A7
350
4A
  3
A8
350
4B
  3
A9
350
4C
  3
B0
350
4D
  3
B1
350
4E
  3
B2
350
4F
  3
B3
350
50
  3
B4
350
51
  3
B5
350
52
  3
B6
350
53
  0
DICTIONARY
  5
68
102
{ACAD_REACTORS
330
C
102
}
330
C
100
AcDbDictionary
281
     1
  3
Imperial24
350
69
  0
DICTIONARY
  5
64
102
{ACAD_REACTORS
330
C
102
}
330
C
100
AcDbDictionary
281
     1
  3
Standard
350
65
  0
DICTIONARY
  5
29
102
{ACAD_REACTORS
330
C
102
}
330
C
100
AcDbDictionary
281
     1
  3
2dWireframe
350
2F
  3
Basic
350
2E
  3
Brighten
350
35
  3
ColorChange
350
39
  3
Conceptual
350
32
  3
Dim
350
34
  3
EdgeColorOff
350
41
  3
Facepattern
350
38
  3
Flat
350
2A
  3
FlatWithEdges
350
2B
  3
Gouraud
350
2C
  3
GouraudWithEdges
350
2D
  3
Hidden
350
31
  3
JitterOff
350
3F
  3
Linepattern
350
37
  3
OverhangOff
350
40
  3
Realistic
350
33
  3
Shaded
350
3E
  3
Shaded with edges
350
3D
  3
Shades of Gray
350
3A
  3
Sketchy
350
3B
  3
Thicken
350
36
  3
Wireframe
350
30
  3
X-Ray
350
3C
  0
XRECORD
  5
B6
102
{ACAD_REACTORS
330
C
102
}
330
C
100
AcDbXrecord
280
     1
 90
        1
330
65
  0
DICTIONARY
  5
AE
102
{ACAD_REACTORS
330
C
102
}
330
C
100
AcDbDictionary
281
     1
  3
CANNOSCALE
350
B3
  3
CMLEADERSTYLE
350
B0
  3
CTABLESTYLE
350
AF
  3
CVIEWDETAILSTYLE
350
B1
  3
CVIEWSECTIONSTYLE
350
B2
  0
ACDBDETAILVIEWSTYLE
  5
6B
102
{ACAD_REACTORS
330
6A
102
}
330
6A
100
AcDbModelDocViewStyle
 70
     0
  3
Imperial24
290
     1
300
Imperial24
 90
        0
100
AcDbDetailViewStyle
 70
     0
 71
     0
 90
        3
 71
     1
340
55
 62
   256
 40
0.24
340
0
 62
   256
 40
0.24
300

 40
0.36
280
     3
 71
     2
340
5D
 90
       25
 62
   256
 71
     3
340
55
 62
   256
 40
0.24
 90
        1
 40
0.75
 90
        1
300
%<\AcVar ViewType \f "%tc1">% %<\AcVar ViewDetailId>%\PSCALE %<\AcVar ViewScale \f "%sn">%
 71
     4
340
5D
 90
       25
 62
   256
340
5D
 90
       25
 62
   256
280
     0
  0
LAYOUT
  5
6F
102
{ACAD_REACTORS
330
62
102
}
330
62
100
AcDbPlotSettings
  1

  2

  4

  6

 40
0.0
 41
0.0
 42
0.0
 43
0.0
 44
0.0
 45
0.0
 46
0.0
 47
0.0
 48
0.0
 49
0.0
140
0.0
141
0.0
142
1.0
143
1.0
 70
   688
 72
     0
 73
     0
 74
     5
  7

 75
    16
147
1.0
 76
     0
 77
     2
 78
   300
148
0.0
149
0.0
100
AcDbLayout
  1
Layout1
 70
     1
 71
     1
 10
0.0
 20
0.0
 11
12.0
 21
9.0
 12
0.0
 22
0.0
 32
0.0
 14
0.0
 24
0.0
 34
0.0
 15
0.0
 25
0.0
 35
0.0
146
0.0
 13
0.0
 23
0.0
 33
0.0
 16
1.0
 26
0.0
 36
0.0
 17
0.0
 27
1.0
 37
0.0
 76
     0
330
6C
  0
LAYOUT
  5
77
102
{ACAD_REACTORS
330
62
102
}
330
62
100
AcDbPlotSettings
  1

  2

  4

  6

 40
0.0
 41
0.0
 42
0.0
 43
0.0
 44
0.0
 45
0.0
 46
0.0
 47
0.0
 48
0.0
 49
0.0
140
0.0
141
0.0
142
1.0
143
1.0
 70
   688
 72
     0
 73
     0
 74
     5
  7

 75
    16
147
1.0
 76
     0
 77
     2
 78
   300
148
0.0
149
0.0
100
AcDbLayout
  1
Layout2
 70
     1
 71
     2
 10
0.0
 20
0.0
 11
12.0
 21
9.0
 12
0.0
 22
0.0
 32
0.0
 14
0.0
 24
0.0
 34
0.0
 15
0.0
 25
0.0
 35
0.0
146
0.0
 13
0.0
 23
0.0
 33
0.0
 16
1.0
 26
0.0
 36
0.0
 17
0.0
 27
1.0
 37
0.0
 76
     0
330
74
  0
LAYOUT
  5
73
102
{ACAD_REACTORS
330
62
102
}
330
62
100
AcDbPlotSettings
  1

  2

  4

  6

 40
0.0
 41
0.0
 42
0.0
 43
0.0
 44
0.0
 45
0.0
 46
0.0
 47
0.0
 48
0.0
 49
0.0
140
0.0
141
0.0
142
1.0
143
1.0
 70
  1712
 72
     0
 73
     0
 74
     0
  7

 75
     0
147
1.0
 76
     0
 77
     2
 78
   300
148
0.0
149
0.0
100
AcDbLayout
  1
Model
 70
     1
 71
     0
 10
0.0
 20
0.0
 11
12.0
 21
9.0
 12
0.0
 22
0.0
 32
0.0
 14
0.0
 24
0.0
 34
0.0
 15
0.0
 25
0.0
 35
0.0
146
0.0
 13
0.0
 23
0.0
 33
0.0
 16
1.0
 26
0.0
 36
0.0
 17
0.0
 27
1.0
 37
0.0
 76
     0
330
70
  0
MATERIAL
  5
19
102
{ACAD_XDICTIONARY
360
1A
102
}
102
{ACAD_REACTORS
330
10
102
}
330
10
100
AcDbMaterial
  1
ByBlock
 72
     0
 43
0.0208333333333333
 43
0.0
 43
0.0
 43
0.0
 43
0.0
 43
0.0208333333333333
 43
0.0
 43
0.0
 43
0.0
 43
0.0
 43
1.0
 43
0.0
 43
0.0
 43
0.0
 43
0.0
 43
1.0
 77
     0
 47
0.0208333333333333
 47
0.0
 47
0.0
 47
0.0
 47
0.0
 47
0.0208333333333333
 47
0.0
 47
0.0
 47
0.0
 47
0.0
 47
1.0
 47
0.0
 47
0.0
 47
0.0
 47
0.0
 47
1.0
171
     0
 49
0.0208333333333333
 49
0.0
 49
0.0
 49
0.0
 49
0.0
 49
0.0208333333333333
 49
0.0
 49
0.0
 49
0.0
 49
0.0
 49
1.0
 49
0.0
 49
0.0
 49
0.0
 49
0.0
 49
1.0
175
     0
142
0.0208333333333333
142
0.0
142
0.0
142
0.0
142
0.0
142
0.0208333333333333
142
0.0
142
0.0
142
0.0
142
0.0
142
1.0
142
0.0
142
0.0
142
0.0
142
0.0
142
1.0
179
     0
144
0.0208333333333333
144
0.0
144
0.0
144
0.0
144
0.0
144
0.0208333333333333
144
0.0
144
0.0
144
0.0
144
0.0
144
1.0
144
0.0
144
0.0
144
0.0
144
0.0
144
1.0
147
0.0208333333333333
147
0.0
147
0.0
147
0.0
147
0.0
147
0.0208333333333333
147
0.0
147
0.0
147
0.0
147
0.0
147
1.0
147
0.0
147
0.0
147
0.0
147
0.0
147
1.0
  0
MATERIAL
  5
11
102
{ACAD_XDICTIONARY
360
12
102
}
102
{ACAD_REACTORS
330
10
102
}
330
10
100
AcDbMaterial
  1
ByLayer
 72
     0
 43
0.0208333333333333
 43
0.0
 43
0.0
 43
0.0
 43
0.0
 43
0.0208333333333333
 43
0.0
 43
0.0
 43
0.0
 43
0.0
 43
1.0
 43
0.0
 43
0.0
 43
0.0
 43
0.0
 43
1.0
 77
     0
 47
0.0208333333333333
 47
0.0
 47
0.0
 47
0.0
 47
0.0
 47
0.0208333333333333
 47
0.0
 47
0.0
 47
0.0
 47
0.0
 47
1.0
 47
0.0
 47
0.0
 47
0.0
 47
0.0
 47
1.0
171
     0
 49
0.0208333333333333
 49
0.0
 49
0.0
 49
0.0
 49
0.0
 49
0.0208333333333333
 49
0.0
 49
0.0
 49
0.0
 49
0.0
 49
1.0
 49
0.0
 49
0.0
 49
0.0
 49
0.0
 49
1.0
175
     0
142
0.0208333333333333
142
0.0
142
0.0
142
0.0
142
0.0
142
0.0208333333333333
142
0.0
142
0.0
142
0.0
142
0.0
142
1.0
142
0.0
142
0.0
142
0.0
142
0.0
142
1.0
179
     0
144
0.0208333333333333
144
0.0
144
0.0
144
0.0
144
0.0
144
0.0208333333333333
144
0.0
144
0.0
144
0.0
144
0.0
144
1.0
144
0.0
144
0.0
144
0.0
144
0.0
144
1.0
147
0.0208333333333333
147
0.0
147
0.0
147
0.0
147
0.0
147
0.0208333333333333
147
0.0
147
0.0
147
0.0
147
0.0
147
1.0
147
0.0
147
0.0
147
0.0
147
0.0
147
1.0
  0
MATERIAL
  5
21
102
{ACAD_XDICTIONARY
360
22
102
}
102
{ACAD_REACTORS
330
10
102
}
330
10
100
AcDbMaterial
  1
Global
 72
     0
 43
0.0208333333333333
 43
0.0
 43
0.0
 43
0.0
 43
0.0
 43
0.0208333333333333
 43
0.0
 43
0.0
 43
0.0
 43
0.0
 43
1.0
 43
0.0
 43
0.0
 43
0.0
 43
0.0
 43
1.0
 77
     0
 47
0.0208333333333333
 47
0.0
 47
0.0
 47
0.0
 47
0.0
 47
0.0208333333333333
 47
0.0
 47
0.0
 47
0.0
 47
0.0
 47
1.0
 47
0.0
 47
0.0
 47
0.0
 47
0.0
 47
1.0
171
     0
 49
0.0208333333333333
 49
0.0
 49
0.0
 49
0.0
 49
0.0
 49
0.0208333333333333
 49
0.0
 49
0.0
 49
0.0
 49
0.0
 49
1.0
 49
0.0
 49
0.0
 49
0.0
 49
0.0
 49
1.0
175
     0
142
0.0208333333333333
142
0.0
142
0.0
142
0.0
142
0.0
142
0.0208333333333333
142
0.0
142
0.0
142
0.0
142
0.0
142
1.0
142
0.0
142
0.0
142
0.0
142
0.0
142
1.0
179
     0
144
0.0208333333333333
144
0.0
144
0.0
144
0.0
144
0.0
144
0.0208333333333333
144
0.0
144
0.0
144
0.0
144
0.0
144
1.0
144
0.0
144
0.0
144
0.0
144
0.0
144
1.0
147
0.0208333333333333
147
0.0
147
0.0
147
0.0
147
0.0
147
0.0208333333333333
147
0.0
147
0.0
147
0.0
147
0.0
147
1.0
147
0.0
147
0.0
147
0.0
147
0.0
147
1.0
  0
MLEADERSTYLE
  5
67
102
{ACAD_REACTORS
330
66
102
}
330
66
100
AcDbMLeaderStyle
179
     2
170
     2
171
     1
172
     0
 90
        2
 40
0.0
 41
0.0
173
     1
 91
-1056964608
340
5B
 92
       -2
290
     1
 42
0.09
291
     1
 43
0.36
  3
Standard
 44
0.18
300

342
55
174
     1
178
     6
175
     1
176
     0
 93
-1056964608
 45
0.18
292
     0
297
     0
 46
0.18
 94
-1056964608
 47
1.0
 49
1.0
140
1.0
293
     1
141
0.0
294
     1
177
     0
142
1.0
295
     1
296
     0
143
0.125
271
     0
272
     9
273
     9
298
     1
  0
MLINESTYLE
  5
60
102
{ACAD_REACTORS
330
5F
102
}
330
5F
100
AcDbMlineStyle
  2
STANDARD
 70
     0
  3

 62
   256
 51
90.0
 52
90.0
 71
     2
 49
0.5
 62
   256
  6
BYLAYER
 49
-0.5
 62
   256
  6
BYLAYER
  0
ACDBPLACEHOLDER
  5
F
102
{ACAD_REACTORS
330
E
102
}
330
E
  0
SCALE
  5
43
102
{ACAD_REACTORS
330
42
102
}
330
42
100
AcDbScale
 70
     0
300
1:1
140
1.0
141
1.0
290
     1
  0
SCALE
  5
44
102
{ACAD_REACTORS
330
42
102
}
330
42
100
AcDbScale
 70
     0
300
1/128" = 1'-0"
140
0.0078125
141
12.0
290
     0
  0
SCALE
  5
45
102
{ACAD_REACTORS
330
42
102
}
330
42
100
AcDbScale
 70
     0
300
1/64" = 1'-0"
140
0.015625
141
12.0
290
     0
  0
SCALE
  5
46
102
{ACAD_REACTORS
330
42
102
}
330
42
100
AcDbScale
 70
     0
300
1/32" = 1'-0"
140
0.03125
141
12.0
290
     0
  0
SCALE
  5
47
102
{ACAD_REACTORS
330
42
102
}
330
42
100
AcDbScale
 70
     0
300
1/16" = 1'-0"
140
0.0625
141
12.0
290
     0
  0
SCALE
  5
48
102
{ACAD_REACTORS
330
42
102
}
330
42
100
AcDbScale
 70
     0
300
3/32" = 1'-0"
140
0.09375
141
12.0
290
     0
  0
SCALE
  5
49
102
{ACAD_REACTORS
330
42
102
}
330
42
100
AcDbScale
 70
     0
300
1/8" = 1'-0"
140
0.125
141
12.0
290
     0
  0
SCALE
  5
4A
102
{ACAD_REACTORS
330
42
102
}
330
42
100
AcDbScale
 70
     0
300
3/16" = 1'-0"
140
0.1875
141
12.0
290
     0
  0
SCALE
  5
4B
102
{ACAD_REACTORS
330
42
102
}
330
42
100
AcDbScale
 70
     0
300
1/4" = 1'-0"
140
0.25
141
12.0
290
     0
  0
SCALE
  5
4C
102
{ACAD_REACTORS
330
42
102
}
330
42
100
AcDbScale
 70
     0
300
3/8" = 1'-0"
140
0.375
141
12.0
290
     0
  0
SCALE
  5
4D
102
{ACAD_REACTORS
330
42
102
}
330
42
100
AcDbScale
 70
     0
300
1/2" = 1'-0"
140
0.5
141
12.0
290
     0
  0
SCALE
  5
4E
102
{ACAD_REACTORS
330
42
102
}
330
42
100
AcDbScale
 70
     0
300
3/4" = 1'-0"
140
0.75
141
12.0
290
     0
  0
SCALE
  5
4F
102
{ACAD_REACTORS
330
42
102
}
330
42
100
AcDbScale
 70
     0
300
1" = 1'-0"
140
1.0
141
12.0
290
     0
  0
SCALE
  5
50
102
{ACAD_REACTORS
330
42
102
}
330
42
100
AcDbScale
 70
     0
300
1-1/2" = 1'-0"
140
1.5
141
12.0
290
     0
  0
SCALE
  5
51
102
{ACAD_REACTORS
330
42
102
}
330
42
100
AcDbScale
 70
     0
300
3" = 1'-0"
140
3.0
141
12.0
290
     0
  0
SCALE
  5
52
102
{ACAD_REACTORS
330
42
102
}
330
42
100
AcDbScale
 70
     0
300
6" = 1'-0"
140
6.0
141
12.0
290
     0
  0
SCALE
  5
53
102
{ACAD_REACTORS
330
42
102
}
330
42
100
AcDbScale
 70
     0
300
1'-0" = 1'-0"
140
12.0
141
12.0
290
     0
  0
ACDBSECTIONVIEWSTYLE
  5
69
102
{ACAD_REACTORS
330
68
102
}
330
68
100
AcDbModelDocViewStyle
 70
     0
  3
Imperial24
290
     1
300
Imperial24
 90
        0
100
AcDbSectionViewStyle
 70
     0
 71
     0
 90
       78
 71
     1
340
55
 62
   256
 40
0.24
340
0
340
0
 62
   256
 40
0.24
300
I, O, Q, S, X, Z
 40
0.48
 90
        3
 40
0.18
 90
        1
 71
     2
340
5D
 90
       25
 62
   256
340
5D
 90
       50
 62
   256
 40
0.24
 40
0.0
 40
0.24
 71
     3
340
55
 62
   256
 40
0.24
 90
        1
 40
0.75
 90
        1
300
%<\AcVar ViewType \f "%tc1">% %<\AcVar ViewSectionStartId>%-%<\AcVar ViewSectionEndId>%\PSCALE %<\AcVar ViewScale \f "%sn">%
 71
     4
 62
   256
 62
   257
300
ANSI31
 40
1.0
 90
        0
290
     0
290
     0
 90
        6
 40
0.0
 40
1.570796326794896
 40
0.2617993877991494
 40
1.308996938995747
 40
-0.2617993877991494
 40
1.832595714594046
  0
TABLESTYLE
  5
65
102
{ACAD_XDICTIONARY
360
B4
102
}
102
{ACAD_REACTORS
330
64
102
}
330
64
100
AcDbTableStyle
280
     0
  3
Standard
 70
     0
 71
     0
 40
0.06
 41
0.06
280
     0
281
     0
  7
Standard
140
0.18
170
     2
 62
     0
 63
     7
283
     0
 90
      512
 91
        0
  1

274
    -2
284
     1
 64
     0
275
    -2
285
     1
 65
     0
276
    -2
286
     1
 66
     0
277
    -2
287
     1
 67
     0
278
    -2
288
     1
 68
     0
279
    -2
289
     1
 69
     0
  7
Standard
140
0.25
170
     5
 62
     0
 63
     7
283
     0
 90
      512
 91
        0
  1

274
    -2
284
     1
 64
     0
275
    -2
285
     1
 65
     0
276
    -2
286
     1
 66
     0
277
    -2
287
     1
 67
     0
278
    -2
288
     1
 68
     0
279
    -2
289
     1
 69
     0
  7
Standard
140
0.18
170
     5
 62
     0
 63
     7
283
     0
 90
      512
 91
        0
  1

274
    -2
284
     1
 64
     0
275
    -2
285
     1
 65
     0
276
    -2
286
     1
 66
     0
277
    -2
287
     1
 67
     0
278
    -2
288
     1
 68
     0
279
    -2
289
     1
 69
     0
  0
VISUALSTYLE
  5
2F
102
{ACAD_REACTORS
330
29
102
}
330
29
100
AcDbVisualStyle
  2
2dWireframe
 70
     4
177
     3
291
     0
 70
    58
 90
        0
176
     1
 90
        2
176
     1
 90
        0
176
     1
 90
        0
176
     1
 40
0.6
176
     1
 40
30.0
176
     1
 62
     7
420
 16777215
176
     1
 90
        1
176
     1
 90
        4
176
     1
 62
     7
176
     1
 62
   257
176
     1
 90
        1
176
     1
 90
        1
176
     1
 40
1.0
176
     1
 90
        0
176
     1
 62
   257
176
     1
 40
1.0
176
     1
 90
        1
176
     1
 90
        6
176
     1
 90
        2
176
     1
 62
     7
176
     1
 90
        5
176
     1
 90
        0
176
     1
 90
        0
176
     1
290
     0
176
     1
 90
        1
176
     1
 40
0.0
176
     1
 90
        0
176
     1
290
     1
176
     1
290
     1
176
     1
290
     0
176
     1
290
     0
176
     1
290
     0
176
     1
290
     0
176
     1
290
     0
176
     1
290
     0
176
     1
290
     0
176
     1
 90
       50
176
     1
 40
0.0
176
     1
 40
1.0
176
     1
 90
        0
176
     1
 62
    18
420
        0
176
     1
 90
       50
176
     1
 90
        3
176
     1
 62
     5
420
      255
176
     1
290
     0
176
     1
 90
       50
176
     1
 90
       50
176
     1
 90
       50
176
     1
290
     0
176
     1
 90
       50
176
     1
 62
   256
176
     0
 40
1.0
176
     0
 90
        2
176
     1
  1
strokes_ogs.tif
176
     1
290
     0
176
     1
 40
1.0
176
     1
 40
1.0
176
     1
  0
VISUALSTYLE
  5
2E
102
{ACAD_REACTORS
330
29
102
}
330
29
100
AcDbVisualStyle
  2
Basic
 70
     7
177
     3
291
     1
 70
    58
 90
        1
176
     1
 90
        0
176
     1
 90
        1
176
     1
 90
        0
176
     1
 40
0.6
176
     1
 40
30.0
176
     1
 62
     7
420
 16777215
176
     1
 90
        0
176
     1
 90
        4
176
     1
 62
     7
176
     1
 62
   257
176
     1
 90
        1
176
     1
 90
        1
176
     1
 40
1.0
176
     1
 90
        8
176
     1
 62
     7
176
     1
 40
1.0
176
     1
 90
        1
176
     1
 90
        6
176
     1
 90
        2
176
     1
 62
     7
176
     1
 90
        5
176
     1
 90
        0
176
     1
 90
        0
176
     1
290
     0
176
     1
 90
        1
176
     1
 40
0.0
176
     1
 90
        0
176
     1
290
     0
176
     1
290
     1
176
     1
290
     1
176
     1
290
     0
176
     1
290
     0
176
     1
290
     0
176
     1
290
     0
176
     1
290
     0
176
     1
290
     0
176
     1
 90
       50
176
     1
 40
0.0
176
     1
 40
1.0
176
     1
 90
        0
176
     1
 62
    18
420
        0
176
     1
 90
       50
176
     1
 90
        3
176
     1
 62
     5
420
      255
176
     1
290
     0
176
     1
 90
       50
176
     1
 90
       50
176
     1
 90
       50
176
     1
290
     0
176
     1
 90
       50
176
     1
 62
   256
176
     0
 40
1.0
176
     0
 90
        2
176
     1
  1
strokes_ogs.tif
176
     1
290
     0
176
     1
 40
1.0
176
     1
 40
1.0
176
     1
  0
VISUALSTYLE
  5
35
102
{ACAD_REACTORS
330
29
102
}
330
29
100
AcDbVisualStyle
  2
Brighten
 70
    12
177
     3
291
     1
 70
    58
 90
        2
176
     1
 90
        2
176
     1
 90
        0
176
     1
 90
        0
176
     1
 40
0.6
176
     1
 40
30.0
176
     1
 62
     7
420
 16777215
176
     1
 90
        1
176
     1
 90
        4
176
     1
 62
     7
176
     1
 62
   257
176
     1
 90
        1
176
     1
 90
        1
176
     1
 40
1.0
176
     1
 90
        8
176
     1
 62
     7
176
     1
 40
1.0
176
     1
 90
        1
176
     1
 90
        6
176
     1
 90
        2
176
     1
 62
     7
176
     1
 90
        5
176
     1
 90
        0
176
     1
 90
        0
176
     1
290
     0
176
     1
 90
        1
176
     1
 40
50.0
176
     1
 90
        0
176
     1
290
     0
176
     1
290
     1
176
     1
290
     1
176
     1
290
     0
176
     1
290
     0
176
     1
290
     0
176
     1
290
     0
176
     1
290
     0
176
     1
290
     0
176
     1
 90
       50
176
     1
 40
0.0
176
     1
 40
1.0
176
     1
 90
        0
176
     1
 62
    18
420
        0
176
     1
 90
       50
176
     1
 90
        3
176
     1
 62
     5
420
      255
176
     1
290
     0
176
     1
 90
       50
176
     1
 90
       50
176
     1
 90
       50
176
     1
290
     0
176
     1
 90
       50
176
     1
 62
   256
176
     0
 40
1.0
176
     0
 90
        2
176
     1
  1
strokes_ogs.tif
176
     1
290
     0
176
     1
 40
1.0
176
     1
 40
1.0
176
     1
  0
VISUALSTYLE
  5
39
102
{ACAD_REACTORS
330
29
102
}
330
29
100
AcDbVisualStyle
  2
ColorChange
 70
    16
177
     3
291
     1
 70
    58
 90
        2
176
     1
 90
        2
176
     1
 90
        3
176
     1
 90
        0
176
     1
 40
0.6
176
     1
 40
30.0
176
     1
 62
     8
420
  8421504
176
     1
 90
        1
176
     1
 90
        4
176
     1
 62
     7
176
     1
 62
   257
176
     1
 90
        1
176
     1
 90
        1
176
     1
 40
1.0
176
     1
 90
        8
176
     1
 62
     8
420
  8421504
176
     1
 40
1.0
176
     1
 90
        1
176
     1
 90
        6
176
     1
 90
        2
176
     1
 62
     7
176
     1
 90
        5
176
     1
 90
        0
176
     1
 90
        0
176
     1
290
     0
176
     1
 90
        1
176
     1
 40
0.0
176
     1
 90
        0
176
     1
290
     0
176
     1
290
     1
176
     1
290
     1
176
     1
290
     0
176
     1
290
     0
176
     1
290
     0
176
     1
290
     0
176
     1
290
     0
176
     1
290
     0
176
     1
 90
       50
176
     1
 40
0.0
176
     1
 40
1.0
176
     1
 90
        0
176
     1
 62
    18
420
        0
176
     1
 90
       50
176
     1
 90
        3
176
     1
 62
     5
420
      255
176
     1
290
     0
176
     1
 90
       50
176
     1
 90
       50
176
     1
 90
       50
176
     1
290
     0
176
     1
 90
       50
176
     1
 62
   256
176
     0
 40
1.0
176
     0
 90
        2
176
     1
  1
strokes_ogs.tif
176
     1
290
     0
176
     1
 40
1.0
176
     1
 40
1.0
176
     1
  0
VISUALSTYLE
  5
32
102
{ACAD_REACTORS
330
29
102
}
330
29
100
AcDbVisualStyle
  2
Conceptual
 70
     9
177
     3
291
     0
 70
    58
 90
        3
176
     1
 90
        2
176
     1
 90
        0
176
     1
 90
        0
176
     1
 40
0.6
176
     1
 40
30.0
176
     1
 62
     7
420
 16777215
176
     1
 90
        2
176
     1
 90
        2
176
     1
 62
     7
176
     1
 62
   257
176
     1
 90
        1
176
     1
 90
        1
176
     1
 40
179.0
176
     1
 90
        8
176
     1
 62
     7
176
     1
 40
1.0
176
     1
 90
        1
176
     1
 90
        6
176
     1
 90
        2
176
     1
 62
     7
176
     1
 90
        3
176
     1
 90
        0
176
     1
 90
        0
176
     1
290
     0
176
     1
 90
        1
176
     1
 40
0.0
176
     1
 90
        0
176
     1
290
     0
176
     1
290
     1
176
     1
290
     1
176
     1
290
     0
176
     1
290
     0
176
     1
290
     0
176
     1
290
     0
176
     1
290
     0
176
     1
290
     0
176
     1
 90
       50
176
     1
 40
0.0
176
     1
 40
1.0
176
     1
 90
        0
176
     1
 62
    18
420
        0
176
     1
 90
       50
176
     1
 90
        3
176
     1
 62
     5
420
      255
176
     1
290
     0
176
     1
 90
       50
176
     1
 90
       50
176
     1
 90
       50
176
     1
290
     0
176
     1
 90
       50
176
     1
 62
   256
176
     0
 40
1.0
176
     0
 90
        2
176
     1
  1
strokes_ogs.tif
176
     1
290
     0
176
     1
 40
1.0
176
     1
 40
1.0
176
     1
  0
VISUALSTYLE
  5
34
102
{ACAD_REACTORS
330
29
102
}
330
29
100
AcDbVisualStyle
  2
Dim
 70
    11
177
     3
291
     1
 70
    58
 90
        2
176
     1
 90
        2
176
     1
 90
        0
176
     1
 90
        0
176
     1
 40
0.6
176
     1
 40
30.0
176
     1
 62
     7
420
 16777215
176
     1
 90
        1
176
     1
 90
        4
176
     1
 62
     7
176
     1
 62
   257
176
     1
 90
        1
176
     1
 90
        1
176
     1
 40
1.0
176
     1
 90
        8
176
     1
 62
     7
176
     1
 40
1.0
176
     1
 90
        1
176
     1
 90
        6
176
     1
 90
        2
176
     1
 62
     7
176
     1
 90
        5
176
     1
 90
        0
176
     1
 90
        0
176
     1
290
     0
176
     1
 90
        1
176
     1
 40
-50.0
176
     1
 90
        0
176
     1
290
     0
176
     1
290
     1
176
     1
290
     1
176
     1
290
     0
176
     1
290
     0
176
     1
290
     0
176
     1
290
     0
176
     1
290
     0
176
     1
290
     0
176
     1
 90
       50
176
     1
 40
0.0
176
     1
 40
1.0
176
     1
 90
        0
176
     1
 62
    18
420
        0
176
     1
 90
       50
176
     1
 90
        3
176
     1
 62
     5
420
      255
176
     1
290
     0
176
     1
 90
       50
176
     1
 90
       50
176
     1
 90
       50
176
     1
290
     0
176
     1
 90
       50
176
     1
 62
   256
176
     0
 40
1.0
176
     0
 90
        2
176
     1
  1
strokes_ogs.tif
176
     1
290
     0
176
     1
 40
1.0
176
     1
 40
1.0
176
     1
  0
VISUALSTYLE
  5
41
102
{ACAD_REACTORS
330
29
102
}
330
29
100
AcDbVisualStyle
  2
EdgeColorOff
 70
    22
177
     3
291
     1
 70
    58
 90
        2
176
     0
 90
        2
176
     0
 90
        0
176
     0
 90
        0
176
     0
 40
0.6
176
     0
 40
30.0
176
     0
 62
     7
420
 16777215
176
     0
 90
        1
176
     0
 90
        4
176
     0
 62
     7
176
     0
 62
   257
176
     0
 90
        1
176
     0
 90
        1
176
     0
 40
1.0
176
     0
 90
        8
176
     2
 62
     7
176
     0
 40
1.0
176
     0
 90
        1
176
     0
 90
        6
176
     0
 90
        2
176
     0
 62
     7
176
     0
 90
        5
176
     0
 90
        0
176
     0
 90
        0
176
     0
290
     0
176
     0
 90
        1
176
     0
 40
0.0
176
     0
 90
        0
176
     0
290
     0
176
     0
290
     1
176
     0
290
     1
176
     0
290
     0
176
     0
290
     0
176
     0
290
     0
176
     0
290
     0
176
     0
290
     0
176
     0
290
     0
176
     0
 90
       50
176
     0
 40
0.0
176
     0
 40
1.0
176
     0
 90
        0
176
     0
 62
    18
420
        0
176
     0
 90
       50
176
     0
 90
        3
176
     0
 62
     5
420
      255
176
     0
290
     0
176
     0
 90
       50
176
     0
 90
       50
176
     0
 90
       50
176
     0
290
     0
176
     0
 90
       50
176
     0
 62
   256
176
     0
 40
1.0
176
     0
 90
        2
176
     0
  1
strokes_ogs.tif
176
     0
290
     0
176
     0
 40
1.0
176
     0
 40
1.0
176
     0
  0
VISUALSTYLE
  5
38
102
{ACAD_REACTORS
330
29
102
}
330
29
100
AcDbVisualStyle
  2
Facepattern
 70
    15
177
     3
291
     1
 70
    58
 90
        2
176
     1
 90
        2
176
     1
 90
        0
176
     1
 90
        0
176
     1
 40
0.6
176
     1
 40
30.0
176
     1
 62
     7
420
 16777215
176
     1
 90
        1
176
     1
 90
        4
176
     1
 62
     7
176
     1
 62
   257
176
     1
 90
        1
176
     1
 90
        1
176
     1
 40
1.0
176
     1
 90
        8
176
     1
 62
     7
176
     1
 40
1.0
176
     1
 90
        1
176
     1
 90
        6
176
     1
 90
        2
176
     1
 62
     7
176
     1
 90
        5
176
     1
 90
        0
176
     1
 90
        0
176
     1
290
     0
176
     1
 90
        1
176
     1
 40
0.0
176
     1
 90
        0
176
     1
290
     0
176
     1
290
     1
176
     1
290
     1
176
     1
290
     0
176
     1
290
     0
176
     1
290
     0
176
     1
290
     0
176
     1
290
     0
176
     1
290
     0
176
     1
 90
       50
176
     1
 40
0.0
176
     1
 40
1.0
176
     1
 90
        0
176
     1
 62
    18
420
        0
176
     1
 90
       50
176
     1
 90
        3
176
     1
 62
     5
420
      255
176
     1
290
     0
176
     1
 90
       50
176
     1
 90
       50
176
     1
 90
       50
176
     1
290
     0
176
     1
 90
       50
176
     1
 62
   256
176
     0
 40
1.0
176
     0
 90
        2
176
     1
  1
strokes_ogs.tif
176
     1
290
     0
176
     1
 40
1.0
176
     1
 40
1.0
176
     1
  0
VISUALSTYLE
  5
2A
102
{ACAD_REACTORS
330
29
102
}
330
29
100
AcDbVisualStyle
  2
Flat
 70
     0
177
     3
291
     1
 70
    58
 90
        2
176
     1
 90
        1
176
     1
 90
        1
176
     1
 90
        2
176
     1
 40
0.6
176
     1
 40
30.0
176
     1
 62
     7
420
 16777215
176
     1
 90
        0
176
     1
 90
        0
176
     1
 62
     7
176
     1
 62
   257
176
     1
 90
        1
176
     1
 90
        1
176
     1
 40
1.0
176
     1
 90
        8
176
     1
 62
     7
176
     1
 40
1.0
176
     1
 90
        1
176
     1
 90
        6
176
     1
 90
        2
176
     1
 62
     7
176
     1
 90
        5
176
     1
 90
        0
176
     1
 90
        0
176
     1
290
     0
176
     1
 90
       13
176
     1
 40
0.0
176
     1
 90
        0
176
     1
290
     0
176
     1
290
     1
176
     1
290
     1
176
     1
290
     0
176
     1
290
     0
176
     1
290
     0
176
     1
290
     0
176
     1
290
     0
176
     1
290
     0
176
     1
 90
       50
176
     1
 40
0.0
176
     1
 40
1.0
176
     1
 90
        0
176
     1
 62
    18
420
        0
176
     1
 90
       50
176
     1
 90
        3
176
     1
 62
     5
420
      255
176
     1
290
     0
176
     1
 90
       50
176
     1
 90
       50
176
     1
 90
       50
176
     1
290
     0
176
     1
 90
       50
176
     1
 62
   256
176
     0
 40
1.0
176
     0
 90
        2
176
     1
  1
strokes_ogs.tif
176
     1
290
     0
176
     1
 40
1.0
176
     1
 40
1.0
176
     1
  0
VISUALSTYLE
  5
2B
102
{ACAD_REACTORS
330
29
102
}
330
29
100
AcDbVisualStyle
  2
FlatWithEdges
 70
     1
177
     3
291
     1
 70
    58
 90
        2
176
     1
 90
        1
176
     1
 90
        1
176
     1
 90
        2
176
     1
 40
0.6
176
     1
 40
30.0
176
     1
 62
     7
420
 16777215
176
     1
 90
        1
176
     1
 90
        0
176
     1
 62
     7
176
     1
 62
   257
176
     1
 90
        1
176
     1
 90
        1
176
     1
 40
1.0
176
     1
 90
        0
176
     1
 62
   257
176
     1
 40
1.0
176
     1
 90
        1
176
     1
 90
        6
176
     1
 90
        2
176
     1
 62
     7
176
     1
 90
        5
176
     1
 90
        0
176
     1
 90
        0
176
     1
290
     0
176
     1
 90
       13
176
     1
 40
0.0
176
     1
 90
        0
176
     1
290
     0
176
     1
290
     1
176
     1
290
     1
176
     1
290
     0
176
     1
290
     0
176
     1
290
     0
176
     1
290
     0
176
     1
290
     0
176
     1
290
     0
176
     1
 90
       50
176
     1
 40
0.0
176
     1
 40
1.0
176
     1
 90
        0
176
     1
 62
    18
420
        0
176
     1
 90
       50
176
     1
 90
        3
176
     1
 62
     5
420
      255
176
     1
290
     0
176
     1
 90
       50
176
     1
 90
       50
176
     1
 90
       50
176
     1
290
     0
176
     1
 90
       50
176
     1
 62
   256
176
     0
 40
1.0
176
     0
 90
        2
176
     1
  1
strokes_ogs.tif
176
     1
290
     0
176
     1
 40
1.0
176
     1
 40
1.0
176
     1
  0
VISUALSTYLE
  5
2C
102
{ACAD_REACTORS
330
29
102
}
330
29
100
AcDbVisualStyle
  2
Gouraud
 70
     2
177
     3
291
     1
 70
    58
 90
        2
176
     1
 90
        2
176
     1
 90
        1
176
     1
 90
        2
176
     1
 40
0.6
176
     1
 40
30.0
176
     1
 62
     7
420
 16777215
176
     1
 90
        0
176
     1
 90
        0
176
     1
 62
     7
176
     1
 62
   257
176
     1
 90
        1
176
     1
 90
        1
176
     1
 40
1.0
176
     1
 90
        0
176
     1
 62
     7
176
     1
 40
1.0
176
     1
 90
        1
176
     1
 90
        6
176
     1
 90
        2
176
     1
 62
     7
176
     1
 90
        5
176
     1
 90
        0
176
     1
 90
        0
176
     1
290
     0
176
     1
 90
       13
176
     1
 40
0.0
176
     1
 90
        0
176
     1
290
     0
176
     1
290
     1
176
     1
290
     1
176
     1
290
     0
176
     1
290
     0
176
     1
290
     0
176
     1
290
     0
176
     1
290
     0
176
     1
290
     0
176
     1
 90
       50
176
     1
 40
0.0
176
     1
 40
1.0
176
     1
 90
        0
176
     1
 62
    18
420
        0
176
     1
 90
       50
176
     1
 90
        3
176
     1
 62
     5
420
      255
176
     1
290
     0
176
     1
 90
       50
176
     1
 90
       50
176
     1
 90
       50
176
     1
290
     0
176
     1
 90
       50
176
     1
 62
   256
176
     0
 40
1.0
176
     0
 90
        2
176
     1
  1
strokes_ogs.tif
176
     1
290
     0
176
     1
 40
1.0
176
     1
 40
1.0
176
     1
  0
VISUALSTYLE
  5
2D
102
{ACAD_REACTORS
330
29
102
}
330
29
100
AcDbVisualStyle
  2
GouraudWithEdges
 70
     3
177
     3
291
     1
 70
    58
 90
        2
176
     1
 90
        2
176
     1
 90
        1
176
     1
 90
        2
176
     1
 40
0.6
176
     1
 40
30.0
176
     1
 62
     7
420
 16777215
176
     1
 90
        1
176
     1
 90
        0
176
     1
 62
     7
176
     1
 62
   257
176
     1
 90
        1
176
     1
 90
        1
176
     1
 40
1.0
176
     1
 90
        0
176
     1
 62
   257
176
     1
 40
1.0
176
     1
 90
        1
176
     1
 90
        6
176
     1
 90
        2
176
     1
 62
     7
176
     1
 90
        5
176
     1
 90
        0
176
     1
 90
        0
176
     1
290
     0
176
     1
 90
       13
176
     1
 40
0.0
176
     1
 90
        0
176
     1
290
     0
176
     1
290
     1
176
     1
290
     1
176
     1
290
     0
176
     1
290
     0
176
     1
290
     0
176
     1
290
     0
176
     1
290
     0
176
     1
290
     0
176
     1
 90
       50
176
     1
 40
0.0
176
     1
 40
1.0
176
     1
 90
        0
176
     1
 62
    18
420
        0
176
     1
 90
       50
176
     1
 90
        3
176
     1
 62
     5
420
      255
176
     1
290
     0
176
     1
 90
       50
176
     1
 90
       50
176
     1
 90
       50
176
     1
290
     0
176
     1
 90
       50
176
     1
 62
   256
176
     0
 40
1.0
176
     0
 90
        2
176
     1
  1
strokes_ogs.tif
176
     1
290
     0
176
     1
 40
1.0
176
     1
 40
1.0
176
     1
  0
VISUALSTYLE
  5
31
102
{ACAD_REACTORS
330
29
102
}
330
29
100
AcDbVisualStyle
  2
Hidden
 70
     6
177
     3
291
     0
 70
    58
 90
        1
176
     1
 90
        2
176
     1
 90
        2
176
     1
 90
        0
176
     1
 40
0.6
176
     1
 40
30.0
176
     1
 62
     7
420
 16777215
176
     1
 90
        2
176
     1
 90
        2
176
     1
 62
     7
176
     1
 62
   257
176
     1
 90
        2
176
     1
 90
        1
176
     1
 40
40.0
176
     1
 90
        0
176
     1
 62
   257
176
     1
 40
1.0
176
     1
 90
        1
176
     1
 90
        6
176
     1
 90
        2
176
     1
 62
     7
176
     1
 90
        3
176
     1
 90
        0
176
     1
 90
        0
176
     1
290
     0
176
     1
 90
        1
176
     1
 40
0.0
176
     1
 90
        0
176
     1
290
     0
176
     1
290
     1
176
     1
290
     1
176
     1
290
     0
176
     1
290
     0
176
     1
290
     0
176
     1
290
     0
176
     1
290
     0
176
     1
290
     0
176
     1
 90
       50
176
     1
 40
0.0
176
     1
 40
1.0
176
     1
 90
        0
176
     1
 62
    18
420
        0
176
     1
 90
       50
176
     1
 90
        3
176
     1
 62
     5
420
      255
176
     1
290
     0
176
     1
 90
       50
176
     1
 90
       50
176
     1
 90
       50
176
     1
290
     0
176
     1
 90
       50
176
     1
 62
   256
176
     0
 40
1.0
176
     0
 90
        2
176
     1
  1
strokes_ogs.tif
176
     1
290
     0
176
     1
 40
1.0
176
     1
 40
1.0
176
     1
  0
VISUALSTYLE
  5
3F
102
{ACAD_REACTORS
330
29
102
}
330
29
100
AcDbVisualStyle
  2
JitterOff
 70
    20
177
     3
291
     1
 70
    58
 90
        2
176
     0
 90
        2
176
     0
 90
        0
176
     0
 90
        0
176
     0
 40
0.6
176
     0
 40
30.0
176
     0
 62
     7
420
 16777215
176
     0
 90
        1
176
     0
 90
        4
176
     0
 62
     7
176
     0
 62
   257
176
     0
 90
        1
176
     0
 90
        1
176
     0
 40
1.0
176
     0
 90
       10
176
     2
 62
     7
176
     0
 40
1.0
176
     0
 90
        1
176
     0
 90
        6
176
     0
 90
        2
176
     0
 62
     7
176
     0
 90
        5
176
     0
 90
        0
176
     0
 90
        0
176
     0
290
     0
176
     0
 90
        1
176
     0
 40
0.0
176
     0
 90
        0
176
     0
290
     0
176
     0
290
     1
176
     0
290
     1
176
     0
290
     0
176
     0
290
     0
176
     0
290
     0
176
     0
290
     0
176
     0
290
     0
176
     0
290
     0
176
     0
 90
       50
176
     0
 40
0.0
176
     0
 40
1.0
176
     0
 90
        0
176
     0
 62
    18
420
        0
176
     0
 90
       50
176
     0
 90
        3
176
     0
 62
     5
420
      255
176
     0
290
     0
176
     0
 90
       50
176
     0
 90
       50
176
     0
 90
       50
176
     0
290
     0
176
     0
 90
       50
176
     0
 62
   256
176
     0
 40
1.0
176
     0
 90
        2
176
     0
  1
strokes_ogs.tif
176
     0
290
     0
176
     0
 40
1.0
176
     0
 40
1.0
176
     0
  0
VISUALSTYLE
  5
37
102
{ACAD_REACTORS
330
29
102
}
330
29
100
AcDbVisualStyle
  2
Linepattern
 70
    14
177
     3
291
     1
 70
    58
 90
        2
176
     1
 90
        2
176
     1
 90
        0
176
     1
 90
        0
176
     1
 40
0.6
176
     1
 40
30.0
176
     1
 62
     7
420
 16777215
176
     1
 90
        1
176
     1
 90
        4
176
     1
 62
     7
176
     1
 62
   257
176
     1
 90
        7
176
     1
 90
        7
176
     1
 40
1.0
176
     1
 90
        8
176
     1
 62
     7
176
     1
 40
1.0
176
     1
 90
        1
176
     1
 90
        6
176
     1
 90
        2
176
     1
 62
     7
176
     1
 90
        5
176
     1
 90
        0
176
     1
 90
        0
176
     1
290
     0
176
     1
 90
        1
176
     1
 40
0.0
176
     1
 90
        0
176
     1
290
     0
176
     1
290
     1
176
     1
290
     1
176
     1
290
     0
176
     1
290
     0
176
     1
290
     0
176
     1
290
     0
176
     1
290
     0
176
     1
290
     0
176
     1
 90
       50
176
     1
 40
0.0
176
     1
 40
1.0
176
     1
 90
        0
176
     1
 62
    18
420
        0
176
     1
 90
       50
176
     1
 90
        3
176
     1
 62
     5
420
      255
176
     1
290
     0
176
     1
 90
       50
176
     1
 90
       50
176
     1
 90
       50
176
     1
290
     0
176
     1
 90
       50
176
     1
 62
   256
176
     0
 40
1.0
176
     0
 90
        2
176
     1
  1
strokes_ogs.tif
176
     1
290
     0
176
     1
 40
1.0
176
     1
 40
1.0
176
     1
  0
VISUALSTYLE
  5
40
102
{ACAD_REACTORS
330
29
102
}
330
29
100
AcDbVisualStyle
  2
OverhangOff
 70
    21
177
     3
291
     1
 70
    58
 90
        2
176
     0
 90
        2
176
     0
 90
        0
176
     0
 90
        0
176
     0
 40
0.6
176
     0
 40
30.0
176
     0
 62
     7
420
 16777215
176
     0
 90
        1
176
     0
 90
        4
176
     0
 62
     7
176
     0
 62
   257
176
     0
 90
        1
176
     0
 90
        1
176
     0
 40
1.0
176
     0
 90
        9
176
     2
 62
     7
176
     0
 40
1.0
176
     0
 90
        1
176
     0
 90
        6
176
     0
 90
        2
176
     0
 62
     7
176
     0
 90
        5
176
     0
 90
        0
176
     0
 90
        0
176
     0
290
     0
176
     0
 90
        1
176
     0
 40
0.0
176
     0
 90
        0
176
     0
290
     0
176
     0
290
     1
176
     0
290
     1
176
     0
290
     0
176
     0
290
     0
176
     0
290
     0
176
     0
290
     0
176
     0
290
     0
176
     0
290
     0
176
     0
 90
       50
176
     0
 40
0.0
176
     0
 40
1.0
176
     0
 90
        0
176
     0
 62
    18
420
        0
176
     0
 90
       50
176
     0
 90
        3
176
     0
 62
     5
420
      255
176
     0
290
     0
176
     0
 90
       50
176
     0
 90
       50
176
     0
 90
       50
176
     0
290
     0
176
     0
 90
       50
176
     0
 62
   256
176
     0
 40
1.0
176
     0
 90
        2
176
     0
  1
strokes_ogs.tif
176
     0
290
     0
176
     0
 40
1.0
176
     0
 40
1.0
176
     0
  0
VISUALSTYLE
  5
33
102
{ACAD_REACTORS
330
29
102
}
330
29
100
AcDbVisualStyle
  2
Realistic
 70
     8
177
     3
291
     0
 70
    58
 90
        2
176
     1
 90
        3
176
     1
 90
        0
176
     1
 90
        2
176
     1
 40
0.6
176
     1
 40
30.0
176
     1
 62
     7
420
 16777215
176
     1
 90
        0
176
     1
 90
        0
176
     1
 62
     7
176
     1
 62
   257
176
     1
 90
        1
176
     1
 90
        1
176
     1
 40
1.0
176
     1
 90
        8
176
     1
 62
   257
176
     1
 40
1.0
176
     1
 90
        1
176
     1
 90
        6
176
     1
 90
        2
176
     1
 62
     7
176
     1
 90
        3
176
     1
 90
        0
176
     1
 90
        0
176
     1
290
     0
176
     1
 90
       13
176
     1
 40
0.0
176
     1
 90
        0
176
     1
290
     0
176
     1
290
     1
176
     1
290
     1
176
     1
290
     0
176
     1
290
     0
176
     1
290
     0
176
     1
290
     0
176
     1
290
     0
176
     1
290
     0
176
     1
 90
       50
176
     1
 40
0.0
176
     1
 40
1.0
176
     1
 90
        0
176
     1
 62
    18
420
        0
176
     1
 90
       50
176
     1
 90
        3
176
     1
 62
     5
420
      255
176
     1
290
     0
176
     1
 90
       50
176
     1
 90
       50
176
     1
 90
       50
176
     1
290
     0
176
     1
 90
       50
176
     1
 62
   256
176
     0
 40
1.0
176
     0
 90
        2
176
     1
  1
strokes_ogs.tif
176
     1
290
     0
176
     1
 40
1.0
176
     1
 40
1.0
176
     1
  0
VISUALSTYLE
  5
3E
102
{ACAD_REACTORS
330
29
102
}
330
29
100
AcDbVisualStyle
  2
Shaded
 70
    27
177
     3
291
     0
 70
    58
 90
        2
176
     1
 90
        2
176
     1
 90
        1
176
     1
 90
        2
176
     1
 40
0.6
176
     1
 40
30.0
176
     1
 62
     7
420
 16777215
176
     1
 90
        0
176
     1
 90
        4
176
     1
 62
     7
176
     1
 62
   257
176
     1
 90
        1
176
     1
 90
        1
176
     1
 40
1.0
176
     1
 90
        8
176
     1
 62
   257
176
     1
 40
1.0
176
     1
 90
        1
176
     1
 90
        6
176
     1
 90
        2
176
     1
 62
     8
420
  7895160
176
     1
 90
        3
176
     1
 90
        0
176
     1
 90
        0
176
     1
290
     0
176
     1
 90
        5
176
     1
 40
0.0
176
     1
 90
        0
176
     1
290
     0
176
     1
290
     1
176
     1
290
     1
176
     1
290
     0
176
     1
290
     0
176
     1
290
     0
176
     1
290
     0
176
     1
290
     0
176
     1
290
     0
176
     1
 90
       50
176
     1
 40
0.0
176
     1
 40
1.0
176
     1
 90
        0
176
     1
 62
    18
420
        0
176
     1
 90
       50
176
     1
 90
        3
176
     1
 62
     5
420
      255
176
     1
290
     0
176
     1
 90
       50
176
     1
 90
       50
176
     1
 90
       50
176
     1
290
     0
176
     1
 90
       50
176
     1
 62
   256
176
     0
 40
1.0
176
     0
 90
        2
176
     1
  1
strokes_ogs.tif
176
     1
290
     0
176
     1
 40
1.0
176
     1
 40
1.0
176
     1
  0
VISUALSTYLE
  5
3D
102
{ACAD_REACTORS
330
29
102
}
330
29
100
AcDbVisualStyle
  2
Shaded with edges
 70
    26
177
     3
291
     0
 70
    58
 90
        2
176
     1
 90
        2
176
     1
 90
        1
176
     1
 90
        2
176
     1
 40
0.6
176
     1
 40
30.0
176
     1
 62
     7
420
 16777215
176
     1
 90
        1
176
     1
 90
        2
176
     1
 62
     7
176
     1
 62
   257
176
     1
 90
        2
176
     1
 90
        1
176
     1
 40
1.0
176
     1
 90
        8
176
     1
 62
   257
176
     1
 40
1.0
176
     1
 90
        1
176
     1
 90
        6
176
     1
 90
        2
176
     1
 62
     7
176
     1
 90
        3
176
     1
 90
        0
176
     1
 90
        0
176
     1
290
     0
176
     1
 90
        5
176
     1
 40
0.0
176
     1
 90
        0
176
     1
290
     0
176
     1
290
     1
176
     1
290
     1
176
     1
290
     0
176
     1
290
     0
176
     1
290
     0
176
     1
290
     0
176
     1
290
     0
176
     1
290
     0
176
     1
 90
       50
176
     1
 40
0.0
176
     1
 40
1.0
176
     1
 90
        0
176
     1
 62
    18
420
        0
176
     1
 90
       50
176
     1
 90
        3
176
     1
 62
     5
420
      255
176
     1
290
     0
176
     1
 90
       50
176
     1
 90
       50
176
     1
 90
       50
176
     1
290
     0
176
     1
 90
       50
176
     1
 62
   256
176
     0
 40
1.0
176
     0
 90
        2
176
     1
  1
strokes_ogs.tif
176
     1
290
     0
176
     1
 40
1.0
176
     1
 40
1.0
176
     1
  0
VISUALSTYLE
  5
3A
102
{ACAD_REACTORS
330
29
102
}
330
29
100
AcDbVisualStyle
  2
Shades of Gray
 70
    23
177
     3
291
     0
 70
    58
 90
        2
176
     1
 90
        2
176
     1
 90
        3
176
     1
 90
        0
176
     1
 40
0.6
176
     1
 40
30.0
176
     1
 62
     7
420
 16777215
176
     1
 90
        2
176
     1
 90
        2
176
     1
 62
     7
176
     1
 62
     7
176
     1
 90
        1
176
     1
 90
        1
176
     1
 40
40.0
176
     1
 90
        8
176
     1
 62
     7
176
     1
 40
1.0
176
     1
 90
        1
176
     1
 90
        6
176
     1
 90
        2
176
     1
 62
     7
176
     1
 90
        3
176
     1
 90
        0
176
     1
 90
        0
176
     1
290
     0
176
     1
 90
        1
176
     1
 40
0.0
176
     1
 90
        0
176
     1
290
     0
176
     1
290
     1
176
     1
290
     1
176
     1
290
     0
176
     1
290
     0
176
     1
290
     0
176
     1
290
     0
176
     1
290
     0
176
     1
290
     0
176
     1
 90
       50
176
     1
 40
0.0
176
     1
 40
1.0
176
     1
 90
        0
176
     1
 62
    18
420
        0
176
     1
 90
       50
176
     1
 90
        3
176
     1
 62
     5
420
      255
176
     1
290
     0
176
     1
 90
       50
176
     1
 90
       50
176
     1
 90
       50
176
     1
290
     0
176
     1
 90
       50
176
     1
 62
   256
176
     0
 40
1.0
176
     0
 90
        2
176
     1
  1
strokes_ogs.tif
176
     1
290
     0
176
     1
 40
1.0
176
     1
 40
1.0
176
     1
  0
VISUALSTYLE
  5
3B
102
{ACAD_REACTORS
330
29
102
}
330
29
100
AcDbVisualStyle
  2
Sketchy
 70
    24
177
     3
291
     0
 70
    58
 90
        1
176
     1
 90
        2
176
     1
 90
        2
176
     1
 90
        0
176
     1
 40
0.6
176
     1
 40
30.0
176
     1
 62
     7
420
 16777215
176
     1
 90
        2
176
     1
 90
        2
176
     1
 62
     7
176
     1
 62
     7
176
     1
 90
        1
176
     1
 90
        1
176
     1
 40
40.0
176
     1
 90
       11
176
     1
 62
     7
176
     1
 40
1.0
176
     1
 90
        1
176
     1
 90
        6
176
     1
 90
        2
176
     1
 62
     7
176
     1
 90
        6
176
     1
 90
        0
176
     1
 90
        0
176
     1
290
     0
176
     1
 90
        1
176
     1
 40
0.0
176
     1
 90
        0
176
     1
290
     0
176
     1
290
     1
176
     1
290
     1
176
     1
290
     0
176
     1
290
     0
176
     1
290
     0
176
     1
290
     0
176
     1
290
     0
176
     1
290
     0
176
     1
 90
       50
176
     1
 40
0.0
176
     1
 40
1.0
176
     1
 90
        0
176
     1
 62
    18
420
        0
176
     1
 90
       50
176
     1
 90
        3
176
     1
 62
     5
420
      255
176
     1
290
     0
176
     1
 90
       50
176
     1
 90
       50
176
     1
 90
       50
176
     1
290
     0
176
     1
 90
       50
176
     1
 62
   256
176
     0
 40
1.0
176
     0
 90
        2
176
     1
  1
strokes_ogs.tif
176
     1
290
     0
176
     1
 40
1.0
176
     1
 40
1.0
176
     1
  0
VISUALSTYLE
  5
36
102
{ACAD_REACTORS
330
29
102
}
330
29
100
AcDbVisualStyle
  2
Thicken
 70
    13
177
     3
291
     1
 70
    58
 90
        2
176
     1
 90
        2
176
     1
 90
        0
176
     1
 90
        0
176
     1
 40
0.6
176
     1
 40
30.0
176
     1
 62
     7
420
 16777215
176
     1
 90
        1
176
     1
 90
        4
176
     1
 62
     7
176
     1
 62
   257
176
     1
 90
        1
176
     1
 90
        1
176
     1
 40
1.0
176
     1
 90
       12
176
     1
 62
     7
176
     1
 40
1.0
176
     1
 90
        1
176
     1
 90
        6
176
     1
 90
        2
176
     1
 62
     7
176
     1
 90
        5
176
     1
 90
        0
176
     1
 90
        0
176
     1
290
     0
176
     1
 90
        1
176
     1
 40
0.0
176
     1
 90
        0
176
     1
290
     0
176
     1
290
     1
176
     1
290
     1
176
     1
290
     0
176
     1
290
     0
176
     1
290
     0
176
     1
290
     0
176
     1
290
     0
176
     1
290
     0
176
     1
 90
       50
176
     1
 40
0.0
176
     1
 40
1.0
176
     1
 90
        0
176
     1
 62
    18
420
        0
176
     1
 90
       50
176
     1
 90
        3
176
     1
 62
     5
420
      255
176
     1
290
     0
176
     1
 90
       50
176
     1
 90
       50
176
     1
 90
       50
176
     1
290
     0
176
     1
 90
       50
176
     1
 62
   256
176
     0
 40
1.0
176
     0
 90
        2
176
     1
  1
strokes_ogs.tif
176
     1
290
     0
176
     1
 40
1.0
176
     1
 40
1.0
176
     1
  0
VISUALSTYLE
  5
30
102
{ACAD_REACTORS
330
29
102
}
330
29
100
AcDbVisualStyle
  2
Wireframe
 70
     5
177
     3
291
     0
 70
    58
 90
        0
176
     1
 90
        2
176
     1
 90
        0
176
     1
 90
        0
176
     1
 40
0.6
176
     1
 40
30.0
176
     1
 62
     7
420
 16777215
176
     1
 90
        1
176
     1
 90
        4
176
     1
 62
     7
176
     1
 62
   257
176
     1
 90
        1
176
     1
 90
        1
176
     1
 40
1.0
176
     1
 90
        0
176
     1
 62
   257
176
     1
 40
1.0
176
     1
 90
        1
176
     1
 90
        6
176
     1
 90
        2
176
     1
 62
     7
176
     1
 90
        3
176
     1
 90
        0
176
     1
 90
        0
176
     1
290
     0
176
     1
 90
        1
176
     1
 40
0.0
176
     1
 90
        0
176
     1
290
     0
176
     1
290
     1
176
     1
290
     1
176
     1
290
     0
176
     1
290
     0
176
     1
290
     0
176
     1
290
     0
176
     1
290
     0
176
     1
290
     0
176
     1
 90
       50
176
     1
 40
0.0
176
     1
 40
1.0
176
     1
 90
        0
176
     1
 62
    18
420
        0
176
     1
 90
       50
176
     1
 90
        3
176
     1
 62
     5
420
      255
176
     1
290
     0
176
     1
 90
       50
176
     1
 90
       50
176
     1
 90
       50
176
     1
290
     0
176
     1
 90
       50
176
     1
 62
   256
176
     0
 40
1.0
176
     0
 90
        2
176
     1
  1
strokes_ogs.tif
176
     1
290
     0
176
     1
 40
1.0
176
     1
 40
1.0
176
     1
  0
VISUALSTYLE
  5
3C
102
{ACAD_REACTORS
330
29
102
}
330
29
100
AcDbVisualStyle
  2
X-Ray
 70
    25
177
     3
291
     0
 70
    58
 90
        2
176
     1
 90
        2
176
     1
 90
        1
176
     1
 90
        1
176
     1
 40
0.5
176
     1
 40
30.0
176
     1
 62
     7
420
 16777215
176
     1
 90
        1
176
     1
 90
        0
176
     1
 62
     7
176
     1
 62
   257
176
     1
 90
        1
176
     1
 90
        1
176
     1
 40
1.0
176
     1
 90
        8
176
     1
 62
     7
176
     1
 40
1.0
176
     1
 90
        1
176
     1
 90
        6
176
     1
 90
        2
176
     1
 62
     7
176
     1
 90
        3
176
     1
 90
        0
176
     1
 90
        0
176
     1
290
     0
176
     1
 90
       13
176
     1
 40
0.0
176
     1
 90
        0
176
     1
290
     0
176
     1
290
     1
176
     1
290
     1
176
     1
290
     0
176
     1
290
     0
176
     1
290
     0
176
     1
290
     0
176
     1
290
     0
176
     1
290
     0
176
     1
 90
       50
176
     1
 40
0.0
176
     1
 40
1.0
176
     1
 90
        0
176
     1
 62
    18
420
        0
176
     1
 90
       50
176
     1
 90
        3
176
     1
 62
     5
420
      255
176
     1
290
     0
176
     1
 90
       50
176
     1
 90
       50
176
     1
 90
       50
176
     1
290
     0
176
     1
 90
       50
176
     1
 62
   256
176
     0
 40
1.0
176
     0
 90
        2
176
     1
  1
strokes_ogs.tif
176
     1
290
     0
176
     1
 40
1.0
176
     1
 40
1.0
176
     1
  0
DICTIONARYVAR
  5
B3
102
{ACAD_REACTORS
330
AE
102
}
330
AE
100
DictionaryVariables
280
     0
  1
1:1
  0
DICTIONARYVAR
  5
B0
102
{ACAD_REACTORS
330
AE
102
}
330
AE
100
DictionaryVariables
280
     0
  1
STANDARD
  0
DICTIONARYVAR
  5
AF
102
{ACAD_REACTORS
330
AE
102
}
330
AE
100
DictionaryVariables
280
     0
  1
STANDARD
  0
DICTIONARYVAR
  5
B1
102
{ACAD_REACTORS
330
AE
102
}
330
AE
100
DictionaryVariables
280
     0
  1
Imperial24
  0
DICTIONARYVAR
  5
B2
102
{ACAD_REACTORS
330
AE
102
}
330
AE
100
DictionaryVariables
280
     0
  1
Imperial24
  0
DICTIONARY
  5
1A
330
19
100
AcDbDictionary
280
     1
281
     1
  3
BUMPTILE
360
1C
  3
DIFFUSETILE
360
1B
  3
OPACITYTILE
360
1F
  3
REFLECTIONTILE
360
1E
  3
REFRACTIONTILE
360
20
  3
SPECULARTILE
360
1D
  0
DICTIONARY
  5
12
330
11
100
AcDbDictionary
280
     1
281
     1
  3
BUMPTILE
360
14
  3
DIFFUSETILE
360
13
  3
OPACITYTILE
360
17
  3
REFLECTIONTILE
360
16
  3
REFRACTIONTILE
360
18
  3
SPECULARTILE
360
15
  0
DICTIONARY
  5
22
330
21
100
AcDbDictionary
280
     1
281
     1
  3
BUMPTILE
360
24
  3
DIFFUSETILE
360
23
  3
OPACITYTILE
360
27
  3
REFLECTIONTILE
360
26
  3
REFRACTIONTILE
360
28
  3
SPECULARTILE
360
25
  0
DICTIONARY
  5
B4
330
65
100
AcDbDictionary
280
     1
281
     1
  3
ACAD_ROUNDTRIP_2008_TABLESTYLE_CELLSTYLEMAP
360
B5
  0
XRECORD
  5
1C
102
{ACAD_REACTORS
330
1A
102
}
330
1A
100
AcDbXrecord
280
     1
270
     1
271
     1
  0
XRECORD
  5
1B
102
{ACAD_REACTORS
330
1A
102
}
330
1A
100
AcDbXrecord
280
     1
270
     1
271
     1
  0
XRECORD
  5
1F
102
{ACAD_REACTORS
330
1A
102
}
330
1A
100
AcDbXrecord
280
     1
270
     1
271
     1
  0
XRECORD
  5
1E
102
{ACAD_REACTORS
330
1A
102
}
330
1A
100
AcDbXrecord
280
     1
270
     1
271
     1
  0
XRECORD
  5
20
102
{ACAD_REACTORS
330
1A
102
}
330
1A
100
AcDbXrecord
280
     1
270
     1
271
     1
  0
XRECORD
  5
1D
102
{ACAD_REACTORS
330
1A
102
}
330
1A
100
AcDbXrecord
280
     1
270
     1
271
     1
  0
XRECORD
  5
14
102
{ACAD_REACTORS
330
12
102
}
330
12
100
AcDbXrecord
280
     1
270
     1
271
     1
  0
XRECORD
  5
13
102
{ACAD_REACTORS
330
12
102
}
330
12
100
AcDbXrecord
280
     1
270
     1
271
     1
  0
XRECORD
  5
17
102
{ACAD_REACTORS
330
12
102
}
330
12
100
AcDbXrecord
280
     1
270
     1
271
     1
  0
XRECORD
  5
16
102
{ACAD_REACTORS
330
12
102
}
330
12
100
AcDbXrecord
280
     1
270
     1
271
     1
  0
XRECORD
  5
18
102
{ACAD_REACTORS
330
12
102
}
330
12
100
AcDbXrecord
280
     1
270
     1
271
     1
  0
XRECORD
  5
15
102
{ACAD_REACTORS
330
12
102
}
330
12
100
AcDbXrecord
280
     1
270
     1
271
     1
  0
XRECORD
  5
24
102
{ACAD_REACTORS
330
22
102
}
330
22
100
AcDbXrecord
280
     1
270
     1
271
     1
  0
XRECORD
  5
23
102
{ACAD_REACTORS
330
22
102
}
330
22
100
AcDbXrecord
280
     1
270
     1
271
     1
  0
XRECORD
  5
27
102
{ACAD_REACTORS
330
22
102
}
330
22
100
AcDbXrecord
280
     1
270
     1
271
     1
  0
XRECORD
  5
26
102
{ACAD_REACTORS
330
22
102
}
330
22
100
AcDbXrecord
280
     1
270
     1
271
     1
  0
XRECORD
  5
28
102
{ACAD_REACTORS
330
22
102
}
330
22
100
AcDbXrecord
280
     1
270
     1
271
     1
  0
XRECORD
  5
25
102
{ACAD_REACTORS
330
22
102
}
330
22
100
AcDbXrecord
280
     1
270
     1
271
     1
  0
CELLSTYLEMAP
  5
B5
102
{ACAD_REACTORS
330
B4
102
}
330
B4
100
AcDbCellStyleMap
 90
        3
300
CELLSTYLE
  1
TABLEFORMAT_BEGIN
 90
        5
170
     1
 91
        0
 92
    32768
 62
   257
 93
        1
300
CONTENTFORMAT
  1
CONTENTFORMAT_BEGIN
 90
        0
 91
        0
 92
      512
 93
        0
300

 40
0.0
140
1.0
 94
        5
 62
     0
340
55
144
0.25
309
CONTENTFORMAT_END
171
     0
 94
        0
309
TABLEFORMAT_END
  1
CELLSTYLE_BEGIN
 90
        1
 91
        1
300
_TITLE
309
CELLSTYLE_END
300
CELLSTYLE
  1
TABLEFORMAT_BEGIN
 90
        5
170
     1
 91
        0
 92
        0
 62
   257
 93
        1
300
CONTENTFORMAT
  1
CONTENTFORMAT_BEGIN
 90
        0
 91
        0
 92
      512
 93
        0
300

 40
0.0
140
1.0
 94
        5
 62
     0
340
55
144
0.18
309
CONTENTFORMAT_END
171
     0
 94
        0
309
TABLEFORMAT_END
  1
CELLSTYLE_BEGIN
 90
        2
 91
        1
300
_HEADER
309
CELLSTYLE_END
300
CELLSTYLE
  1
TABLEFORMAT_BEGIN
 90
        5
170
     1
 91
        0
 92
        0
 62
   257
 93
        1
300
CONTENTFORMAT
  1
CONTENTFORMAT_BEGIN
 90
        0
 91
        0
 92
      512
 93
        0
300

 40
0.0
140
1.0
 94
        2
 62
     0
340
55
144
0.18
309
CONTENTFORMAT_END
171
     0
 94
        0
309
TABLEFORMAT_END
  1
CELLSTYLE_BEGIN
 90
        3
 91
        2
300
_DATA
309
CELLSTYLE_END
  0
ENDSEC
  0
EOF
