<?xml version="1.0" encoding="UTF-8"?>
<svg id="PCB_holes" data-name="PCB holes" xmlns="http://www.w3.org/2000/svg" width="143.87mm" height="118.32mm" viewBox="0 0 407.83 335.39">
  <defs>
    <style>
      .cls-1 {
        fill: none;
        stroke: blue;
        stroke-miterlimit: 10;
        stroke-width: .28px;
      }
    </style>
  </defs>
  <g id="Acrylcase">
    <path class="cls-1" d="M406.06,75.93l-4.28-.76V13.31c0-1.1-.89-1.98-1.98-1.98h-119.92V2.12c0-1.1-.89-1.98-1.98-1.98h-55.63c-1.1,0-1.98,.89-1.98,1.98V11.33H29.78c-1.1,0-1.98,.89-1.98,1.98v252.16l-3.7,3.7c-.17,.16-.33,.33-.49,.49L.72,292.55c-.77,.77-.77,2.03,0,2.81l39.33,39.32c.77,.77,2.03,.77,2.81,0l24.83-24.82c9.36-8.7,19.43-16.6,29.73-23.16,.09-.07,.19-.13,.29-.18,.08-.06,.16-.11,.25-.16,1.45-.92,2.9-1.81,4.36-2.67,.49-.3,.99-.58,1.48-.87,15.7-9.07,32.55-16.13,48.58-20.42,17.46-4.68,35.44-7.12,52.11-7.18h27.82c1.1,0,1.98-.89,1.98-1.98v-37.02h45.3l42.78,3-1.72,9.73c-.19,1.08,.53,2.11,1.61,2.3l54.62,9.63c1.08,.19,2.11-.53,2.3-1.61l2.49-14.14h18.13c1.1,0,1.98-.89,1.98-1.98V111.59l5.89-33.37c.19-1.08-.53-2.11-1.61-2.3h.01ZM230.23,9.98h39.69V49.67h-39.69V9.98Zm-19.11,5.87c1.64,0,2.98,1.33,2.98,2.98s-1.33,2.98-2.98,2.98-2.98-1.33-2.98-2.98,1.33-2.98,2.98-2.98Zm-34.81,19.64h39.69v39.68h-39.69V35.49h0Zm0,54.1h39.69v39.69h-39.69v-39.69Zm-53.84-45.7h39.68v39.69h-39.68V43.89Zm-.08,54.14h39.68v39.69h-39.68v-39.69Zm0,54.14h39.68v39.69h-39.68v-39.69Zm-87.1-22.32v-42H110.1v42H35.3Zm54.18,35.15v37.42H50.93v-37.42h38.55ZM35.19,15.74c1.64,0,2.98,1.33,2.98,2.98s-1.33,2.98-2.98,2.98-2.98-1.33-2.98-2.98,1.33-2.98,2.98-2.98Zm0,225.16c1.64,0,2.98,1.33,2.98,2.98s-1.33,2.98-2.98,2.98-2.98-1.33-2.98-2.98,1.33-2.98,2.98-2.98Zm5.92,81.28l-28.06-28.06,28.06-28.06,28.06,28.06-28.06,28.06h0Zm40.52-37.93l-19.84-34.37,34.37-19.84,19.84,34.37-34.37,19.84Zm48.94-26.06l-10.27-38.33,38.33-10.27,10.27,38.33-38.33,10.27Zm45.67-114.67h39.69v39.69h-39.69v-39.69Zm48.05,102.05h-39.68v-39.68h39.68v39.68Zm5.95-181.69h39.69v39.69h-39.69V63.88Zm11.41,139.3c-.78,0-1.42-.63-1.42-1.42s.63-1.42,1.42-1.42,1.42,.63,1.42,1.42-.63,1.42-1.42,1.42Zm0-5.67c-.78,0-1.42-.63-1.42-1.42s.63-1.42,1.42-1.42,1.42,.63,1.42,1.42-.63,1.42-1.42,1.42Zm0-5.67c-.78,0-1.42-.63-1.42-1.42s.63-1.42,1.42-1.42,1.42,.63,1.42,1.42-.63,1.42-1.42,1.42Zm0-5.67c-.78,0-1.42-.63-1.42-1.42s.63-1.42,1.42-1.42,1.42,.63,1.42,1.42-.63,1.42-1.42,1.42Zm0-5.67c-.78,0-1.42-.63-1.42-1.42s.63-1.42,1.42-1.42,1.42,.63,1.42,1.42-.63,1.42-1.42,1.42Zm5.67,22.68c-.78,0-1.42-.63-1.42-1.42s.63-1.42,1.42-1.42,1.42,.63,1.42,1.42-.63,1.42-1.42,1.42Zm0-5.67c-.78,0-1.42-.63-1.42-1.42s.63-1.42,1.42-1.42,1.42,.63,1.42,1.42-.63,1.42-1.42,1.42Zm0-5.67c-.78,0-1.42-.63-1.42-1.42s.63-1.42,1.42-1.42,1.42,.63,1.42,1.42-.63,1.42-1.42,1.42Zm0-5.67c-.78,0-1.42-.63-1.42-1.42s.63-1.42,1.42-1.42,1.42,.63,1.42,1.42-.63,1.42-1.42,1.42Zm0-5.67c-.78,0-1.42-.63-1.42-1.42s.63-1.42,1.42-1.42,1.42,.63,1.42,1.42-.63,1.42-1.42,1.42Zm5.67,22.68c-.78,0-1.42-.63-1.42-1.42s.63-1.42,1.42-1.42,1.42,.63,1.42,1.42-.63,1.42-1.42,1.42Zm0-5.67c-.78,0-1.42-.63-1.42-1.42s.63-1.42,1.42-1.42,1.42,.63,1.42,1.42-.63,1.42-1.42,1.42Zm0-5.67c-.78,0-1.42-.63-1.42-1.42s.63-1.42,1.42-1.42,1.42,.63,1.42,1.42-.63,1.42-1.42,1.42Zm0-5.67c-.78,0-1.42-.63-1.42-1.42s.63-1.42,1.42-1.42,1.42,.63,1.42,1.42-.63,1.42-1.42,1.42Zm0-5.67c-.78,0-1.42-.63-1.42-1.42s.63-1.42,1.42-1.42,1.42,.63,1.42,1.42-.63,1.42-1.42,1.42Zm5.67,22.68c-.78,0-1.42-.63-1.42-1.42s.63-1.42,1.42-1.42,1.42,.63,1.42,1.42-.63,1.42-1.42,1.42Zm0-5.67c-.78,0-1.42-.63-1.42-1.42s.63-1.42,1.42-1.42,1.42,.63,1.42,1.42-.63,1.42-1.42,1.42Zm0-5.67c-.78,0-1.42-.63-1.42-1.42s.63-1.42,1.42-1.42,1.42,.63,1.42,1.42-.63,1.42-1.42,1.42Zm0-5.67c-.78,0-1.42-.63-1.42-1.42s.63-1.42,1.42-1.42,1.42,.63,1.42,1.42-.63,1.42-1.42,1.42Zm0-5.67c-.78,0-1.42-.63-1.42-1.42s.63-1.42,1.42-1.42,1.42,.63,1.42,1.42-.63,1.42-1.42,1.42Zm5.67,22.68c-.78,0-1.42-.63-1.42-1.42s.63-1.42,1.42-1.42,1.42,.63,1.42,1.42-.63,1.42-1.42,1.42Zm0-5.67c-.78,0-1.42-.63-1.42-1.42s.63-1.42,1.42-1.42,1.42,.63,1.42,1.42-.63,1.42-1.42,1.42Zm0-5.67c-.78,0-1.42-.63-1.42-1.42s.63-1.42,1.42-1.42,1.42,.63,1.42,1.42-.63,1.42-1.42,1.42Zm0-5.67c-.78,0-1.42-.63-1.42-1.42s.63-1.42,1.42-1.42,1.42,.63,1.42,1.42-.63,1.42-1.42,1.42Zm0-5.67c-.78,0-1.42-.63-1.42-1.42s.63-1.42,1.42-1.42,1.42,.63,1.42,1.42-.63,1.42-1.42,1.42Zm5.67-22.8h-39.69v-39.68h39.69v39.68Zm3.24-44.37c-1.64,0-2.98-1.33-2.98-2.98s1.33-2.98,2.98-2.98,2.98,1.33,2.98,2.98-1.33,2.98-2.98,2.98Zm19.42-97.6c1.64,0,2.98,1.33,2.98,2.98s-1.33,2.98-2.98,2.98-2.98-1.33-2.98-2.98,1.33-2.98,2.98-2.98Zm21,195.17c-1.64,0-2.98-1.33-2.98-2.98s1.33-2.98,2.98-2.98,2.98,1.33,2.98,2.98-1.33,2.98-2.98,2.98Zm9.11-22.48l-39.59-2.77,2.77-39.59,39.59,2.77-2.77,39.59Zm3.7-54.01l-39.59-2.77,2.77-39.59,39.59,2.77-2.77,39.59h0Zm-35.83-56.53l2.77-39.59,39.59,2.77-2.77,39.59-39.59-2.77h0Zm80.42,152.07l-39.08-6.89,6.89-39.08,39.08,6.89-6.89,39.08Zm9.33-53.33l-39.08-6.89,6.89-39.08,39.08,6.89-6.89,39.08Zm9.36-53.08l-39.08-6.89,6.89-39.08,39.08,6.89-6.89,39.08Z"/>
  </g>
</svg>