<?xml version="1.0" encoding="UTF-8"?>
<svg id="PCB_holes" data-name="PCB holes" xmlns="http://www.w3.org/2000/svg" width="160.12mm" height="118.32mm" viewBox="0 0 453.89 335.39">
  <defs>
    <style>
      .cls-1 {
        fill: none;
        stroke: blue;
        stroke-miterlimit: 10;
        stroke-width: .28px;
      }
    </style>
  </defs>
  <g id="_D_case" data-name=" D case">
    <path class="cls-1" d="M452.11,124.61l-51.04-9,6.59-37.39c.19-1.08-.53-2.11-1.61-2.3l-10.78-1.9V13.31c0-1.1-.89-1.98-1.98-1.98h-113.41V2.12c0-1.1-.89-1.98-1.98-1.98h-55.63c-1.1,0-1.98,.89-1.98,1.98V11.33H29.78c-1.1,0-1.98,.89-1.98,1.98V211.25h36.76v25.94H27.8v28.27l-3.71,3.71-.48,.48L.72,292.54c-.77,.77-.77,2.03,0,2.81l39.33,39.33c.77,.77,2.03,.77,2.81,0l24.82-24.82c11.28-10.48,23.61-19.81,36.11-27.04,15.7-9.07,32.56-16.13,48.58-20.42,17.46-4.68,35.45-7.12,52.12-7.18h27.81c1.1,0,1.98-.89,1.98-1.98v-37.01h45.3l42.78,3-1.71,9.72c-.19,1.08,.53,2.11,1.61,2.3l54.62,9.63c1.08,.19,2.11-.53,2.3-1.61l2.1-11.91,51.13,9.02c1.08,.19,2.11-.53,2.3-1.61l19.02-107.85c.19-1.08-.53-2.11-1.61-2.3h0Zm-94.57-47.06l39.08,6.89-6.89,39.08-39.08-6.89,6.89-39.08h0Zm-22.83-58.97c1.64,0,2.98,1.33,2.98,2.98s-1.33,2.98-2.98,2.98-2.98-1.33-2.98-2.98,1.33-2.98,2.98-2.98Zm-42.07-2.86c1.64,0,2.98,1.33,2.98,2.98s-1.33,2.98-2.98,2.98-2.98-1.33-2.98-2.98,1.33-2.98,2.98-2.98Zm-62.42-5.75h39.69V49.67h-39.69V9.98Zm-19.11,5.87c1.64,0,2.98,1.33,2.98,2.98s-1.33,2.98-2.98,2.98-2.98-1.33-2.98-2.98,1.33-2.98,2.98-2.98Zm-34.81,19.64h39.69v39.68h-39.69V35.49h0Zm0,54.1h39.69v39.69h-39.69v-39.69Zm-53.84-45.7h39.68v39.69h-39.68V43.89Zm-.08,54.14h39.68v39.69h-39.68v-39.69Zm0,54.14h39.68v39.69h-39.68v-39.69ZM32.2,18.72c0-1.64,1.33-2.98,2.98-2.98s2.98,1.33,2.98,2.98-1.33,2.98-2.98,2.98-2.98-1.33-2.98-2.98Zm3.09,69.13H110.09v42H35.29v-42h0Zm15.63,114.57v-37.42h38.55v37.42H50.92Zm-15.74,38.48c1.64,0,2.98,1.33,2.98,2.98s-1.33,2.98-2.98,2.98-2.98-1.33-2.98-2.98,1.33-2.98,2.98-2.98Zm5.92,81.28l-28.06-28.06,28.06-28.06,28.06,28.06-28.06,28.06Zm40.52-37.93l-19.84-34.37,34.37-19.84,19.84,34.37-34.37,19.84Zm48.94-26.06l-10.27-38.33,38.33-10.27,10.27,38.33-38.33,10.27h0Zm45.67-114.67h39.69v39.69h-39.69v-39.69Zm48.05,102.05h-39.68v-39.68h39.68v39.68Zm5.95-181.69h39.69v39.69h-39.69V63.88Zm11.41,139.3c-.78,0-1.42-.63-1.42-1.42s.63-1.42,1.42-1.42,1.42,.63,1.42,1.42-.63,1.42-1.42,1.42Zm0-5.67c-.78,0-1.42-.63-1.42-1.42s.63-1.42,1.42-1.42,1.42,.63,1.42,1.42-.63,1.42-1.42,1.42Zm0-5.67c-.78,0-1.42-.63-1.42-1.42s.63-1.42,1.42-1.42,1.42,.63,1.42,1.42-.63,1.42-1.42,1.42Zm0-5.67c-.78,0-1.42-.63-1.42-1.42s.63-1.42,1.42-1.42,1.42,.63,1.42,1.42-.63,1.42-1.42,1.42Zm0-5.67c-.78,0-1.42-.63-1.42-1.42s.63-1.42,1.42-1.42,1.42,.63,1.42,1.42-.63,1.42-1.42,1.42Zm5.67,22.68c-.78,0-1.42-.63-1.42-1.42s.63-1.42,1.42-1.42,1.42,.63,1.42,1.42-.63,1.42-1.42,1.42Zm0-5.67c-.78,0-1.42-.63-1.42-1.42s.63-1.42,1.42-1.42,1.42,.63,1.42,1.42-.63,1.42-1.42,1.42Zm0-5.67c-.78,0-1.42-.63-1.42-1.42s.63-1.42,1.42-1.42,1.42,.63,1.42,1.42-.63,1.42-1.42,1.42Zm0-5.67c-.78,0-1.42-.63-1.42-1.42s.63-1.42,1.42-1.42,1.42,.63,1.42,1.42-.63,1.42-1.42,1.42Zm0-5.67c-.78,0-1.42-.63-1.42-1.42s.63-1.42,1.42-1.42,1.42,.63,1.42,1.42-.63,1.42-1.42,1.42Zm5.67,22.68c-.78,0-1.42-.63-1.42-1.42s.63-1.42,1.42-1.42,1.42,.63,1.42,1.42-.63,1.42-1.42,1.42Zm0-5.67c-.78,0-1.42-.63-1.42-1.42s.63-1.42,1.42-1.42,1.42,.63,1.42,1.42-.63,1.42-1.42,1.42Zm0-5.67c-.78,0-1.42-.63-1.42-1.42s.63-1.42,1.42-1.42,1.42,.63,1.42,1.42-.63,1.42-1.42,1.42Zm0-5.67c-.78,0-1.42-.63-1.42-1.42s.63-1.42,1.42-1.42,1.42,.63,1.42,1.42-.63,1.42-1.42,1.42Zm0-5.67c-.78,0-1.42-.63-1.42-1.42s.63-1.42,1.42-1.42,1.42,.63,1.42,1.42-.63,1.42-1.42,1.42Zm5.67,22.68c-.78,0-1.42-.63-1.42-1.42s.63-1.42,1.42-1.42,1.42,.63,1.42,1.42-.63,1.42-1.42,1.42Zm0-5.67c-.78,0-1.42-.63-1.42-1.42s.63-1.42,1.42-1.42,1.42,.63,1.42,1.42-.63,1.42-1.42,1.42Zm0-5.67c-.78,0-1.42-.63-1.42-1.42s.63-1.42,1.42-1.42,1.42,.63,1.42,1.42-.63,1.42-1.42,1.42Zm0-5.67c-.78,0-1.42-.63-1.42-1.42s.63-1.42,1.42-1.42,1.42,.63,1.42,1.42-.63,1.42-1.42,1.42Zm0-5.67c-.78,0-1.42-.63-1.42-1.42s.63-1.42,1.42-1.42,1.42,.63,1.42,1.42-.63,1.42-1.42,1.42Zm5.67,22.68c-.78,0-1.42-.63-1.42-1.42s.63-1.42,1.42-1.42,1.42,.63,1.42,1.42-.63,1.42-1.42,1.42Zm0-5.67c-.78,0-1.42-.63-1.42-1.42s.63-1.42,1.42-1.42,1.42,.63,1.42,1.42-.63,1.42-1.42,1.42Zm0-5.67c-.78,0-1.42-.63-1.42-1.42s.63-1.42,1.42-1.42,1.42,.63,1.42,1.42-.63,1.42-1.42,1.42Zm0-5.67c-.78,0-1.42-.63-1.42-1.42s.63-1.42,1.42-1.42,1.42,.63,1.42,1.42-.63,1.42-1.42,1.42Zm0-5.67c-.78,0-1.42-.63-1.42-1.42s.63-1.42,1.42-1.42,1.42,.63,1.42,1.42-.63,1.42-1.42,1.42Zm5.67-22.8h-39.69v-39.68h39.69v39.68Zm3.24-44.37c-1.64,0-2.98-1.33-2.98-2.98s1.33-2.98,2.98-2.98,2.98,1.33,2.98,2.98-1.33,2.98-2.98,2.98Zm7.61,95.38c-1.64,0-2.98-1.33-2.98-2.98s1.33-2.98,2.98-2.98,2.98,1.33,2.98,2.98-1.33,2.98-2.98,2.98Zm32.81,2.19c-1.64,0-2.98-1.33-2.98-2.98s1.33-2.98,2.98-2.98,2.98,1.33,2.98,2.98-1.33,2.98-2.98,2.98Zm9.11-22.48l-39.59-2.77,2.77-39.59,39.59,2.77-2.77,39.59Zm3.7-54.01l-39.59-2.77,2.77-39.59,39.59,2.77-2.77,39.59h0Zm-35.83-56.53l2.77-39.59,39.59,2.77-2.77,39.59-39.59-2.77h0Zm80.42,152.07l-39.08-6.89,6.89-39.08,39.08,6.89-6.89,39.08Zm9.33-53.33l-39.08-6.89,6.89-39.08,39.08,6.89-6.89,39.08Zm46.22,48.66l-39.08-6.89,6.89-39.08,39.08,6.89-6.89,39.08h0Zm9.33-53.33l-39.08-6.89,6.89-39.08,39.08,6.89-6.89,39.08Z"/>
  </g>
</svg>