  0
SECTION
  2
HEADER
  9
$ACADVER
  1
AC1032
  9
$ACADMAINTVER
 90
      228
  9
$DWGCODEPAGE
  3
ANSI_1252
  9
$REQUIREDVERSIONS
160
                 0
  9
$INSBASE
 10
0.0
 20
0.0
 30
0.0
  9
$EXTMIN
 10
1.000000000000000E+20
 20
1.000000000000000E+20
 30
1.000000000000000E+20
  9
$EXTMAX
 10
-1.000000000000000E+20
 20
-1.000000000000000E+20
 30
-1.000000000000000E+20
  9
$LIMMIN
 10
0.0
 20
0.0
  9
$LIMMAX
 10
12.0
 20
9.0
  9
$ORTHOMODE
 70
     0
  9
$REGENMODE
 70
     1
  9
$FILLMODE
 70
     1
  9
$QTEXTMODE
 70
     0
  9
$MIRRTEXT
 70
     0
  9
$LTSCALE
 40
1.0
  9
$ATTMODE
 70
     1
  9
$TEXTSIZE
 40
0.2
  9
$TRACEWID
 40
0.05
  9
$TEXTSTYLE
  7
Standard
  9
$CLAYER
  8
0
  9
$CELTYPE
  6
ByLayer
  9
$CECOLOR
 62
   256
  9
$CELTSCALE
 40
1.0
  9
$DISPSILH
 70
     0
  9
$DIMSCALE
 40
1.0
  9
$DIMASZ
 40
0.18
  9
$DIMEXO
 40
0.0625
  9
$DIMDLI
 40
0.38
  9
$DIMRND
 40
0.0
  9
$DIMDLE
 40
0.0
  9
$DIMEXE
 40
0.18
  9
$DIMTP
 40
0.0
  9
$DIMTM
 40
0.0
  9
$DIMTXT
 40
0.18
  9
$DIMCEN
 40
0.09
  9
$DIMTSZ
 40
0.0
  9
$DIMTOL
 70
     0
  9
$DIMLIM
 70
     0
  9
$DIMTIH
 70
     1
  9
$DIMTOH
 70
     1
  9
$DIMSE1
 70
     0
  9
$DIMSE2
 70
     0
  9
$DIMTAD
 70
     0
  9
$DIMZIN
 70
     0
  9
$DIMBLK
  1

  9
$DIMASO
 70
     1
  9
$DIMSHO
 70
     1
  9
$DIMPOST
  1

  9
$DIMAPOST
  1

  9
$DIMALT
 70
     0
  9
$DIMALTD
 70
     2
  9
$DIMALTF
 40
25.4
  9
$DIMLFAC
 40
1.0
  9
$DIMTOFL
 70
     0
  9
$DIMTVP
 40
0.0
  9
$DIMTIX
 70
     0
  9
$DIMSOXD
 70
     0
  9
$DIMSAH
 70
     0
  9
$DIMBLK1
  1

  9
$DIMBLK2
  1

  9
$DIMSTYLE
  2
Standard
  9
$DIMCLRD
 70
     0
  9
$DIMCLRE
 70
     0
  9
$DIMCLRT
 70
     0
  9
$DIMTFAC
 40
1.0
  9
$DIMGAP
 40
0.09
  9
$DIMJUST
 70
     0
  9
$DIMSD1
 70
     0
  9
$DIMSD2
 70
     0
  9
$DIMTOLJ
 70
     1
  9
$DIMTZIN
 70
     0
  9
$DIMALTZ
 70
     0
  9
$DIMALTTZ
 70
     0
  9
$DIMUPT
 70
     0
  9
$DIMDEC
 70
     4
  9
$DIMTDEC
 70
     4
  9
$DIMALTU
 70
     2
  9
$DIMALTTD
 70
     2
  9
$DIMTXSTY
  7
Standard
  9
$DIMAUNIT
 70
     0
  9
$DIMADEC
 70
     0
  9
$DIMALTRND
 40
0.0
  9
$DIMAZIN
 70
     0
  9
$DIMDSEP
 70
    46
  9
$DIMATFIT
 70
     3
  9
$DIMFRAC
 70
     0
  9
$DIMLDRBLK
  1

  9
$DIMLUNIT
 70
     2
  9
$DIMLWD
 70
    -2
  9
$DIMLWE
 70
    -2
  9
$DIMTMOVE
 70
     0
  9
$DIMFXL
 40
1.0
  9
$DIMFXLON
 70
     0
  9
$DIMJOGANG
 40
0.7853981633974483
  9
$DIMTFILL
 70
     0
  9
$DIMTFILLCLR
 70
     0
  9
$DIMARCSYM
 70
     0
  9
$DIMLTYPE
  6

  9
$DIMLTEX1
  6

  9
$DIMLTEX2
  6

  9
$DIMTXTDIRECTION
 70
     0
  9
$LUNITS
 70
     2
  9
$LUPREC
 70
     4
  9
$SKETCHINC
 40
0.1
  9
$FILLETRAD
 40
0.0
  9
$AUNITS
 70
     0
  9
$AUPREC
 70
     0
  9
$MENU
  1
.
  9
$ELEVATION
 40
0.0
  9
$PELEVATION
 40
0.0
  9
$THICKNESS
 40
0.0
  9
$LIMCHECK
 70
     0
  9
$CHAMFERA
 40
0.0
  9
$CHAMFERB
 40
0.0
  9
$CHAMFERC
 40
0.0
  9
$CHAMFERD
 40
0.0
  9
$SKPOLY
 70
     0
  9
$TDCREATE
 40
2459759.047141204
  9
$TDUCREATE
 40
2459758.963807870
  9
$TDUPDATE
 40
2459759.047141204
  9
$TDUUPDATE
 40
2459758.963807870
  9
$TDINDWG
 40
0.0000000000
  9
$TDUSRTIMER
 40
0.0000000000
  9
$USRTIMER
 70
     1
  9
$ANGBASE
 50
0.0
  9
$ANGDIR
 70
     0
  9
$PDMODE
 70
     0
  9
$PDSIZE
 40
0.0
  9
$PLINEWID
 40
0.0
  9
$SPLFRAME
 70
     0
  9
$SPLINETYPE
 70
     6
  9
$SPLINESEGS
 70
     8
  9
$HANDSEED
  5
BB
  9
$SURFTAB1
 70
     6
  9
$SURFTAB2
 70
     6
  9
$SURFTYPE
 70
     6
  9
$SURFU
 70
     6
  9
$SURFV
 70
     6
  9
$UCSBASE
  2

  9
$UCSNAME
  2

  9
$UCSORG
 10
0.0
 20
0.0
 30
0.0
  9
$UCSXDIR
 10
1.0
 20
0.0
 30
0.0
  9
$UCSYDIR
 10
0.0
 20
1.0
 30
0.0
  9
$UCSORTHOREF
  2

  9
$UCSORTHOVIEW
 70
     0
  9
$UCSORGTOP
 10
0.0
 20
0.0
 30
0.0
  9
$UCSORGBOTTOM
 10
0.0
 20
0.0
 30
0.0
  9
$UCSORGLEFT
 10
0.0
 20
0.0
 30
0.0
  9
$UCSORGRIGHT
 10
0.0
 20
0.0
 30
0.0
  9
$UCSORGFRONT
 10
0.0
 20
0.0
 30
0.0
  9
$UCSORGBACK
 10
0.0
 20
0.0
 30
0.0
  9
$PUCSBASE
  2

  9
$PUCSNAME
  2

  9
$PUCSORG
 10
0.0
 20
0.0
 30
0.0
  9
$PUCSXDIR
 10
1.0
 20
0.0
 30
0.0
  9
$PUCSYDIR
 10
0.0
 20
1.0
 30
0.0
  9
$PUCSORTHOREF
  2

  9
$PUCSORTHOVIEW
 70
     0
  9
$PUCSORGTOP
 10
0.0
 20
0.0
 30
0.0
  9
$PUCSORGBOTTOM
 10
0.0
 20
0.0
 30
0.0
  9
$PUCSORGLEFT
 10
0.0
 20
0.0
 30
0.0
  9
$PUCSORGRIGHT
 10
0.0
 20
0.0
 30
0.0
  9
$PUCSORGFRONT
 10
0.0
 20
0.0
 30
0.0
  9
$PUCSORGBACK
 10
0.0
 20
0.0
 30
0.0
  9
$USERI1
 70
     0
  9
$USERI2
 70
     0
  9
$USERI3
 70
     0
  9
$USERI4
 70
     0
  9
$USERI5
 70
     0
  9
$USERR1
 40
0.0
  9
$USERR2
 40
0.0
  9
$USERR3
 40
0.0
  9
$USERR4
 40
0.0
  9
$USERR5
 40
0.0
  9
$WORLDVIEW
 70
     1
  9
$SHADEDGE
 70
     3
  9
$SHADEDIF
 70
    70
  9
$TILEMODE
 70
     1
  9
$MAXACTVP
 70
    64
  9
$PINSBASE
 10
0.0
 20
0.0
 30
0.0
  9
$PLIMCHECK
 70
     0
  9
$PEXTMIN
 10
1.000000000000000E+20
 20
1.000000000000000E+20
 30
1.000000000000000E+20
  9
$PEXTMAX
 10
-1.000000000000000E+20
 20
-1.000000000000000E+20
 30
-1.000000000000000E+20
  9
$PLIMMIN
 10
0.0
 20
0.0
  9
$PLIMMAX
 10
12.0
 20
9.0
  9
$UNITMODE
 70
     0
  9
$VISRETAIN
 70
     1
  9
$PLINEGEN
 70
     0
  9
$PSLTSCALE
 70
     1
  9
$TREEDEPTH
 70
  3020
  9
$CMLSTYLE
  2
Standard
  9
$CMLJUST
 70
     0
  9
$CMLSCALE
 40
1.0
  9
$PROXYGRAPHICS
 70
     1
  9
$MEASUREMENT
 70
     0
  9
$CELWEIGHT
370
    -1
  9
$ENDCAPS
280
     0
  9
$JOINSTYLE
280
     0
  9
$LWDISPLAY
290
     1
  9
$INSUNITS
 70
     4
  9
$HYPERLINKBASE
  1

  9
$STYLESHEET
  1

  9
$XEDIT
290
     1
  9
$CEPSNTYPE
380
     0
  9
$PSTYLEMODE
290
     1
  9
$FINGERPRINTGUID
  2
{D93835EF-FB13-DF47-A425-E2DE50C0B985}
  9
$VERSIONGUID
  2
{78F10450-02CA-1E4B-AAD8-F46158F4F305}
  9
$EXTNAMES
290
     1
  9
$PSVPSCALE
 40
0.0
  9
$OLESTARTUP
290
     0
  9
$SORTENTS
280
   127
  9
$INDEXCTL
280
     0
  9
$HIDETEXT
280
     1
  9
$XCLIPFRAME
280
     2
  9
$HALOGAP
280
     0
  9
$OBSCOLOR
 70
   257
  9
$OBSLTYPE
280
     0
  9
$INTERSECTIONDISPLAY
280
     0
  9
$INTERSECTIONCOLOR
 70
   257
  9
$DIMASSOC
280
     2
  9
$PROJECTNAME
  1

  9
$CAMERADISPLAY
290
     0
  9
$LENSLENGTH
 40
50.0
  9
$CAMERAHEIGHT
 40
0.0
  9
$STEPSPERSEC
 40
2.0
  9
$STEPSIZE
 40
6.0
  9
$3DDWFPREC
 40
2.0
  9
$PSOLWIDTH
 40
0.25
  9
$PSOLHEIGHT
 40
4.0
  9
$LOFTANG1
 40
1.570796326794896
  9
$LOFTANG2
 40
1.570796326794896
  9
$LOFTMAG1
 40
0.0
  9
$LOFTMAG2
 40
0.0
  9
$LOFTPARAM
 70
     7
  9
$LOFTNORMALS
280
     1
  9
$LATITUDE
 40
37.795
  9
$LONGITUDE
 40
-122.394
  9
$NORTHDIRECTION
 40
0.0
  9
$TIMEZONE
 70
 -8000
  9
$LIGHTGLYPHDISPLAY
280
     1
  9
$TILEMODELIGHTSYNCH
280
     1
  9
$CMATERIAL
347
11
  9
$SOLIDHIST
280
     0
  9
$SHOWHIST
280
     1
  9
$DWFFRAME
280
     2
  9
$DGNFRAME
280
     0
  9
$REALWORLDSCALE
290
     1
  9
$INTERFERECOLOR
 62
     1
  9
$INTERFEREOBJVS
345
33
  9
$INTERFEREVPVS
346
30
  9
$CSHADOW
280
     0
  9
$SHADOWPLANELOCATION
 40
0.0
  0
ENDSEC
  0
SECTION
  2
CLASSES
  0
CLASS
  1
ACDBDICTIONARYWDFLT
  2
AcDbDictionaryWithDefault
  3
ObjectDBX Classes
 90
        0
 91
        1
280
     0
281
     0
  0
CLASS
  1
MATERIAL
  2
AcDbMaterial
  3
ObjectDBX Classes
 90
     1153
 91
        3
280
     0
281
     0
  0
CLASS
  1
VISUALSTYLE
  2
AcDbVisualStyle
  3
ObjectDBX Classes
 90
     4095
 91
       24
280
     0
281
     0
  0
CLASS
  1
SCALE
  2
AcDbScale
  3
ObjectDBX Classes
 90
     1153
 91
       17
280
     0
281
     0
  0
CLASS
  1
TABLESTYLE
  2
AcDbTableStyle
  3
ObjectDBX Classes
 90
     4095
 91
        1
280
     0
281
     0
  0
CLASS
  1
MLEADERSTYLE
  2
AcDbMLeaderStyle
  3
ACDB_MLEADERSTYLE_CLASS
 90
     4095
 91
        1
280
     0
281
     0
  0
CLASS
  1
ACDBSECTIONVIEWSTYLE
  2
AcDbSectionViewStyle
  3
ObjectDBX Classes
 90
     1025
 91
        1
280
     0
281
     0
  0
CLASS
  1
ACDBDETAILVIEWSTYLE
  2
AcDbDetailViewStyle
  3
ObjectDBX Classes
 90
     1025
 91
        1
280
     0
281
     0
  0
CLASS
  1
DICTIONARYVAR
  2
AcDbDictionaryVar
  3
ObjectDBX Classes
 90
        0
 91
        5
280
     0
281
     0
  0
CLASS
  1
CELLSTYLEMAP
  2
AcDbCellStyleMap
  3
ObjectDBX Classes
 90
     1152
 91
        1
280
     0
281
     0
  0
ENDSEC
  0
SECTION
  2
TABLES
  0
TABLE
  2
VPORT
  5
8
330
0
100
AcDbSymbolTable
 70
     1
  0
VPORT
  5
57
330
8
100
AcDbSymbolTableRecord
100
AcDbViewportTableRecord
  2
*Active
 70
     0
 10
0.0
 20
0.0
 11
1.0
 21
1.0
 12
0.0
 22
0.0
 13
0.0
 23
0.0
 14
1.0
 24
1.0
 15
0.0
 25
0.0
 16
0.0
 26
0.0
 36
1.0
 17
80.06182065726546
 27
59.15957580451874
 37
0.0
 40
120.6872567209652
 41
1.353300411148124
 42
50.0
 43
0.0
 44
0.0
 50
0.0
 51
0.0
 71
     0
 72
   100
 73
     1
 74
     1
 75
     0
 76
     0
 77
     0
 78
     0
281
     0
 65
     1
110
0.0
120
0.0
130
0.0
111
1.0
121
0.0
131
0.0
112
0.0
122
1.0
132
0.0
 79
     0
146
0.0
 60
     3
 61
     5
292
     1
282
     1
141
0.0
142
0.0
 63
   250
421
  3355443
  0
ENDTAB
  0
TABLE
  2
LTYPE
  5
5
330
0
100
AcDbSymbolTable
 70
     1
  0
LTYPE
  5
5B
330
5
100
AcDbSymbolTableRecord
100
AcDbLinetypeTableRecord
  2
ByBlock
 70
     0
  3

 72
    65
 73
     0
 40
0.0
  0
LTYPE
  5
5C
330
5
100
AcDbSymbolTableRecord
100
AcDbLinetypeTableRecord
  2
ByLayer
 70
     0
  3

 72
    65
 73
     0
 40
0.0
  0
LTYPE
  5
5D
330
5
100
AcDbSymbolTableRecord
100
AcDbLinetypeTableRecord
  2
Continuous
 70
     0
  3
Solid line
 72
    65
 73
     0
 40
0.0
  0
ENDTAB
  0
TABLE
  2
LAYER
  5
2
330
0
100
AcDbSymbolTable
 70
     2
  0
LAYER
  5
54
330
2
100
AcDbSymbolTableRecord
100
AcDbLayerTableRecord
  2
0
 70
     0
 62
     7
  6
Continuous
370
    -3
390
F
347
21
348
0
  0
LAYER
  5
78
330
2
100
AcDbSymbolTableRecord
100
AcDbLayerTableRecord
  2
PCB holes
 70
     0
 62
     7
  6
Continuous
370
     0
390
F
347
21
348
0
  0
ENDTAB
  0
TABLE
  2
STYLE
  5
3
330
0
100
AcDbSymbolTable
 70
     2
  0
STYLE
  5
55
330
3
100
AcDbSymbolTableRecord
100
AcDbTextStyleTableRecord
  2
Standard
 70
     0
 40
0.0
 41
1.0
 50
0.0
 71
     0
 42
0.2
  3
txt
  4

  0
STYLE
  5
5A
330
3
100
AcDbSymbolTableRecord
100
AcDbTextStyleTableRecord
  2
Annotative
 70
     0
 40
0.0
 41
1.0
 50
0.0
 71
     0
 42
0.2
  3
txt
  4

1001
AcadAnnotative
1000
AnnotativeData
1002
{
1070
     1
1070
     1
1002
}
  0
ENDTAB
  0
TABLE
  2
VIEW
  5
6
330
0
100
AcDbSymbolTable
 70
     0
  0
ENDTAB
  0
TABLE
  2
UCS
  5
7
330
0
100
AcDbSymbolTable
 70
     0
  0
ENDTAB
  0
TABLE
  2
APPID
  5
9
330
0
100
AcDbSymbolTable
 70
     2
  0
APPID
  5
56
330
9
100
AcDbSymbolTableRecord
100
AcDbRegAppTableRecord
  2
ACAD
 70
     0
  0
APPID
  5
5E
330
9
100
AcDbSymbolTableRecord
100
AcDbRegAppTableRecord
  2
AcadAnnotative
 70
     0
  0
ENDTAB
  0
TABLE
  2
DIMSTYLE
  5
A
330
0
100
AcDbSymbolTable
 70
     2
100
AcDbDimStyleTable
 71
     0
  0
DIMSTYLE
105
58
330
A
100
AcDbSymbolTableRecord
100
AcDbDimStyleTableRecord
  2
Standard
 70
     0
340
55
  0
DIMSTYLE
105
59
330
A
100
AcDbSymbolTableRecord
100
AcDbDimStyleTableRecord
  2
Annotative
 70
     0
340
55
1001
AcadAnnotative
1000
AnnotativeData
1002
{
1070
     1
1070
     1
1002
}
  0
ENDTAB
  0
TABLE
  2
BLOCK_RECORD
  5
1
330
0
100
AcDbSymbolTable
 70
     1
  0
BLOCK_RECORD
  5
70
330
1
100
AcDbSymbolTableRecord
100
AcDbBlockTableRecord
  2
*Model_Space
340
73
 70
     0
280
     1
281
     0
  0
BLOCK_RECORD
  5
6C
330
1
100
AcDbSymbolTableRecord
100
AcDbBlockTableRecord
  2
*Paper_Space
340
6F
 70
     0
280
     1
281
     0
  0
BLOCK_RECORD
  5
74
330
1
100
AcDbSymbolTableRecord
100
AcDbBlockTableRecord
  2
*Paper_Space0
340
77
 70
     0
280
     1
281
     0
  0
ENDTAB
  0
ENDSEC
  0
SECTION
  2
BLOCKS
  0
BLOCK
  5
71
330
70
100
AcDbEntity
  8
0
100
AcDbBlockBegin
  2
*Model_Space
 70
     0
 10
0.0
 20
0.0
 30
0.0
  3
*Model_Space
  1

  0
ENDBLK
  5
72
330
70
100
AcDbEntity
  8
0
100
AcDbBlockEnd
  0
BLOCK
  5
6D
330
6C
100
AcDbEntity
 67
     1
  8
0
100
AcDbBlockBegin
  2
*Paper_Space
 70
     0
 10
0.0
 20
0.0
 30
0.0
  3
*Paper_Space
  1

  0
ENDBLK
  5
6E
330
6C
100
AcDbEntity
 67
     1
  8
0
100
AcDbBlockEnd
  0
BLOCK
  5
75
330
74
100
AcDbEntity
 67
     1
  8
0
100
AcDbBlockBegin
  2
*Paper_Space0
 70
     0
 10
0.0
 20
0.0
 30
0.0
  3
*Paper_Space0
  1

  0
ENDBLK
  5
76
330
74
100
AcDbEntity
 67
     1
  8
0
100
AcDbBlockEnd
  0
ENDSEC
  0
SECTION
  2
ENTITIES
  0
SPLINE
  5
79
330
70
100
AcDbEntity
  8
PCB holes
 62
     5
420
      255
370
     9
100
AcDbSpline
210
0.0
220
0.0
230
1.0
 70
    11
 71
     3
 72
    20
 73
    16
 74
     0
 42
0.0000000001
 43
0.0000000001
 40
0.0
 40
0.0
 40
0.0
 40
0.0
 40
1.0
 40
1.0
 40
1.0
 40
2.0
 40
2.0
 40
2.0
 40
3.0
 40
3.0
 40
3.0
 40
4.0
 40
4.0
 40
4.0
 40
5.0
 40
5.0
 40
5.0
 40
5.0
 10
153.7841758471779
 20
57.65894594709223
 30
0.0
 10
153.7841758471779
 20
57.65894594709223
 30
0.0
 10
139.9978247154941
 20
60.0895494148578
 30
0.0
 10
139.9978247154941
 20
60.0895494148578
 30
0.0
 10
139.9978247154941
 20
60.0895494148578
 30
0.0
 10
142.4284335661434
 20
73.8759059294254
 30
0.0
 10
142.4284335661434
 20
73.8759059294254
 30
0.0
 10
142.4284335661434
 20
73.8759059294254
 30
0.0
 10
156.2147954635947
 20
71.44530246165982
 30
0.0
 10
156.2147954635947
 20
71.44530246165982
 30
0.0
 10
156.2147954635947
 20
71.44530246165982
 30
0.0
 10
153.7841866129454
 20
57.65894594709223
 30
0.0
 10
153.7841866129454
 20
57.65894594709223
 30
0.0
 10
153.7841866129454
 20
57.65894594709223
 30
0.0
 10
153.7841758471779
 20
57.65894594709223
 30
0.0
 10
153.7841758471779
 20
57.65894594709223
 30
0.0
  0
SPLINE
  5
7A
330
70
100
AcDbEntity
  8
PCB holes
 62
     5
420
      255
370
     9
100
AcDbSpline
210
0.0
220
0.0
230
1.0
 70
    11
 71
     3
 72
    20
 73
    16
 74
     0
 42
0.0000000001
 43
0.0000000001
 40
0.0
 40
0.0
 40
0.0
 40
0.0
 40
1.0
 40
1.0
 40
1.0
 40
2.0
 40
2.0
 40
2.0
 40
3.0
 40
3.0
 40
3.0
 40
4.0
 40
4.0
 40
4.0
 40
5.0
 40
5.0
 40
5.0
 40
5.0
 10
150.492811590916
 20
38.84557891236484
 30
0.0
 10
150.492811590916
 20
38.84557891236484
 30
0.0
 10
136.7064496934647
 20
41.27618238013009
 30
0.0
 10
136.7064496934647
 20
41.27618238013009
 30
0.0
 10
136.7064496934647
 20
41.27618238013009
 30
0.0
 10
139.137058544114
 20
55.06253889469737
 30
0.0
 10
139.137058544114
 20
55.06253889469737
 30
0.0
 10
139.137058544114
 20
55.06253889469737
 30
0.0
 10
152.9234204415654
 20
52.63193542693212
 30
0.0
 10
152.9234204415654
 20
52.63193542693212
 30
0.0
 10
152.9234204415654
 20
52.63193542693212
 30
0.0
 10
150.492811590916
 20
38.84557891236484
 30
0.0
 10
150.492811590916
 20
38.84557891236484
 30
0.0
 10
150.492811590916
 20
38.84557891236484
 30
0.0
 10
150.492811590916
 20
38.84557891236484
 30
0.0
 10
150.492811590916
 20
38.84557891236484
 30
0.0
  0
SPLINE
  5
7B
330
70
100
AcDbEntity
  8
PCB holes
 62
     5
420
      255
370
     9
100
AcDbSpline
210
0.0
220
0.0
230
1.0
 70
    11
 71
     3
 72
    20
 73
    16
 74
     0
 42
0.0000000001
 43
0.0000000001
 40
0.0
 40
0.0
 40
0.0
 40
0.0
 40
1.0
 40
1.0
 40
1.0
 40
2.0
 40
2.0
 40
2.0
 40
3.0
 40
3.0
 40
3.0
 40
4.0
 40
4.0
 40
4.0
 40
5.0
 40
5.0
 40
5.0
 40
5.0
 10
134.1876584415625
 20
56.01149823309776
 30
0.0
 10
134.1876584415625
 20
56.01149823309776
 30
0.0
 10
120.4013073098787
 20
58.44210170086366
 30
0.0
 10
120.4013073098787
 20
58.44210170086366
 30
0.0
 10
120.4013073098787
 20
58.44210170086366
 30
0.0
 10
122.8319161605279
 20
72.22845821543126
 30
0.0
 10
122.8319161605279
 20
72.22845821543126
 30
0.0
 10
122.8319161605279
 20
72.22845821543126
 30
0.0
 10
136.6182780579793
 20
69.79785474766568
 30
0.0
 10
136.6182780579793
 20
69.79785474766568
 30
0.0
 10
136.6182780579793
 20
69.79785474766568
 30
0.0
 10
134.18766920733
 20
56.01149823309776
 30
0.0
 10
134.18766920733
 20
56.01149823309776
 30
0.0
 10
134.18766920733
 20
56.01149823309776
 30
0.0
 10
134.1876584415625
 20
56.01149823309776
 30
0.0
 10
134.1876584415625
 20
56.01149823309776
 30
0.0
  0
SPLINE
  5
7C
330
70
100
AcDbEntity
  8
PCB holes
 62
     5
420
      255
370
     9
100
AcDbSpline
210
0.0
220
0.0
230
1.0
 70
    11
 71
     3
 72
    17
 73
    13
 74
     0
 42
0.0000000001
 43
0.0000000001
 40
0.0
 40
0.0
 40
0.0
 40
0.0
 40
1.0
 40
1.0
 40
1.0
 40
2.0
 40
2.0
 40
2.0
 40
3.0
 40
3.0
 40
3.0
 40
4.0
 40
4.0
 40
4.0
 40
4.0
 10
130.8962941853006
 20
37.19813119837038
 30
0.0
 10
130.8962941853006
 20
37.19813119837038
 30
0.0
 10
117.1099322878493
 20
39.62873466613563
 30
0.0
 10
117.1099322878493
 20
39.62873466613563
 30
0.0
 10
117.1099322878493
 20
39.62873466613563
 30
0.0
 10
119.5405411384986
 20
53.41509118070355
 30
0.0
 10
119.5405411384986
 20
53.41509118070355
 30
0.0
 10
119.5405411384986
 20
53.41509118070355
 30
0.0
 10
133.3269030359499
 20
50.98448771293765
 30
0.0
 10
133.3269030359499
 20
50.98448771293765
 30
0.0
 10
133.3269030359499
 20
50.98448771293765
 30
0.0
 10
130.8962941853006
 20
37.19813119837038
 30
0.0
 10
130.8962941853006
 20
37.19813119837038
 30
0.0
  0
SPLINE
  5
7D
330
70
100
AcDbEntity
  8
PCB holes
 62
     5
420
      255
370
     9
100
AcDbSpline
210
0.0
220
0.0
230
1.0
 70
     9
 71
     3
 72
    20
 73
    16
 74
     0
 42
0.0000000001
 43
0.0000000001
 40
0.0
 40
0.0
 40
0.0
 40
0.0
 40
1.0
 40
1.0
 40
1.0
 40
2.0
 40
2.0
 40
2.0
 40
3.0
 40
3.0
 40
3.0
 40
4.0
 40
4.0
 40
4.0
 40
5.0
 40
5.0
 40
5.0
 40
5.0
 10
102.5263222470233
 20
90.84427341729478
 30
0.0
 10
102.5263222470233
 20
90.84427341729478
 30
0.0
 10
103.5034986619326
 20
104.8105434004666
 30
0.0
 10
103.5034986619326
 20
104.8105434004666
 30
0.0
 10
103.5034986619326
 20
104.8105434004666
 30
0.0
 10
117.4697672993835
 20
103.8333629483948
 30
0.0
 10
117.4697672993835
 20
103.8333629483948
 30
0.0
 10
117.4697672993835
 20
103.8333629483948
 30
0.0
 10
116.4925908844743
 20
89.86709161950182
 30
0.0
 10
116.4925908844743
 20
89.86709161950182
 30
0.0
 10
116.4925908844743
 20
89.86709161950182
 30
0.0
 10
102.5263222470233
 20
90.84427072585306
 30
0.0
 10
102.5263222470233
 20
90.84427072585306
 30
0.0
 10
102.5263222470233
 20
90.84427072585306
 30
0.0
 10
102.5263222470233
 20
90.84427072585306
 30
0.0
 10
102.5263222470233
 20
90.84427341729478
 30
0.0
  0
SPLINE
  5
7E
330
70
100
AcDbEntity
  8
PCB holes
 62
     5
420
      255
370
     9
100
AcDbSpline
210
0.0
220
0.0
230
1.0
 70
    11
 71
     3
 72
    20
 73
    16
 74
     0
 42
0.0000000001
 43
0.0000000001
 40
0.0
 40
0.0
 40
0.0
 40
0.0
 40
1.0
 40
1.0
 40
1.0
 40
2.0
 40
2.0
 40
2.0
 40
3.0
 40
3.0
 40
3.0
 40
4.0
 40
4.0
 40
4.0
 40
5.0
 40
5.0
 40
5.0
 40
5.0
 10
115.1661622074426
 20
70.90203492128329
 30
0.0
 10
115.1661622074426
 20
70.90203492128329
 30
0.0
 10
101.1998935699916
 20
71.87921671907623
 30
0.0
 10
101.1998935699916
 20
71.87921671907623
 30
0.0
 10
101.1998935699916
 20
71.87921671907623
 30
0.0
 10
102.1770699849009
 20
85.84548535652722
 30
0.0
 10
102.1770699849009
 20
85.84548535652722
 30
0.0
 10
102.1770699849009
 20
85.84548535652722
 30
0.0
 10
116.1433386223518
 20
84.86830625017597
 30
0.0
 10
116.1433386223518
 20
84.86830625017597
 30
0.0
 10
116.1433386223518
 20
84.86830625017597
 30
0.0
 10
115.1661622074426
 20
70.90203492128329
 30
0.0
 10
115.1661622074426
 20
70.90203492128329
 30
0.0
 10
115.1661622074426
 20
70.90203492128329
 30
0.0
 10
115.1661622074426
 20
70.90203492128329
 30
0.0
 10
115.1661622074426
 20
70.90203492128329
 30
0.0
  0
SPLINE
  5
7F
330
70
100
AcDbEntity
  8
PCB holes
 62
     5
420
      255
370
     9
100
AcDbSpline
210
0.0
220
0.0
230
1.0
 70
    11
 71
     3
 72
    17
 73
    13
 74
     0
 42
0.0000000001
 43
0.0000000001
 40
0.0
 40
0.0
 40
0.0
 40
0.0
 40
1.0
 40
1.0
 40
1.0
 40
2.0
 40
2.0
 40
2.0
 40
3.0
 40
3.0
 40
3.0
 40
4.0
 40
4.0
 40
4.0
 40
4.0
 10
113.8608990292344
 20
51.84878505604409
 30
0.0
 10
113.8608990292344
 20
51.84878505604409
 30
0.0
 10
99.89463039178346
 20
52.82596685383737
 30
0.0
 10
99.89463039178346
 20
52.82596685383737
 30
0.0
 10
99.89463039178346
 20
52.82596685383737
 30
0.0
 10
100.8718068066926
 20
66.79223549128834
 30
0.0
 10
100.8718068066926
 20
66.79223549128834
 30
0.0
 10
100.8718068066926
 20
66.79223549128834
 30
0.0
 10
114.8380754441436
 20
65.81505369349539
 30
0.0
 10
114.8380754441436
 20
65.81505369349539
 30
0.0
 10
114.8380754441436
 20
65.81505369349539
 30
0.0
 10
113.8608990292344
 20
51.84878505604409
 30
0.0
 10
113.8608990292344
 20
51.84878505604409
 30
0.0
  0
SPLINE
  5
80
330
70
100
AcDbEntity
  8
PCB holes
 62
     5
420
      255
370
     9
100
AcDbSpline
210
0.0
220
0.0
230
1.0
 70
     9
 71
     3
 72
    17
 73
    13
 74
     0
 42
0.0000000001
 43
0.0000000001
 40
0.0
 40
0.0
 40
0.0
 40
0.0
 40
1.0
 40
1.0
 40
1.0
 40
2.0
 40
2.0
 40
2.0
 40
3.0
 40
3.0
 40
3.0
 40
4.0
 40
4.0
 40
4.0
 40
4.0
 10
110.6471451905811
 20
43.91845698478173
 30
0.0
 10
110.0685928473592
 20
43.91845698478173
 30
0.0
 10
109.5958787640222
 20
44.38764527927637
 30
0.0
 10
109.5958787640222
 20
44.96971802845657
 30
0.0
 10
109.5958787640222
 20
45.55179077763805
 30
0.0
 10
110.0650616756328
 20
46.02097907213205
 30
0.0
 10
110.6471451905811
 20
46.02097907213205
 30
0.0
 10
111.2292287055294
 20
46.02097907213205
 30
0.0
 10
111.69841161714
 20
45.55179077763805
 30
0.0
 10
111.69841161714
 20
44.96971802845657
 30
0.0
 10
111.69841161714
 20
44.38764527927637
 30
0.0
 10
111.2292287055294
 20
43.91845698478173
 30
0.0
 10
110.6471451905811
 20
43.91845698478173
 30
0.0
  0
SPLINE
  5
81
330
70
100
AcDbEntity
  8
PCB holes
 62
     5
420
      255
370
     9
100
AcDbSpline
210
0.0
220
0.0
230
1.0
 70
     9
 71
     3
 72
    17
 73
    13
 74
     0
 42
0.0000000001
 43
0.0000000001
 40
0.0
 40
0.0
 40
0.0
 40
0.0
 40
1.0
 40
1.0
 40
1.0
 40
2.0
 40
2.0
 40
2.0
 40
3.0
 40
3.0
 40
3.0
 40
4.0
 40
4.0
 40
4.0
 40
4.0
 10
99.07267481209146
 20
44.69102998914141
 30
0.0
 10
98.49412246886956
 20
44.69102998914141
 30
0.0
 10
98.02140838553256
 20
45.16021828363606
 30
0.0
 10
98.02140838553256
 20
45.74229103281626
 30
0.0
 10
98.02140838553256
 20
46.32436378199773
 30
0.0
 10
98.49059129714314
 20
46.79355207649174
 30
0.0
 10
99.07267481209146
 20
46.79355207649174
 30
0.0
 10
99.65475832703974
 20
46.79355207649174
 30
0.0
 10
100.1239412386503
 20
46.32436378199773
 30
0.0
 10
100.1239412386503
 20
45.74229103281626
 30
0.0
 10
100.1239412386503
 20
45.16021828363606
 30
0.0
 10
99.65475832703974
 20
44.69102998914141
 30
0.0
 10
99.07267481209146
 20
44.69102998914141
 30
0.0
  0
SPLINE
  5
82
330
70
100
AcDbEntity
  8
PCB holes
 62
     5
420
      255
370
     9
100
AcDbSpline
210
0.0
220
0.0
230
1.0
 70
     9
 71
     3
 72
    17
 73
    13
 74
     0
 42
0.0000000001
 43
0.0000000001
 40
0.0
 40
0.0
 40
0.0
 40
0.0
 40
1.0
 40
1.0
 40
1.0
 40
2.0
 40
2.0
 40
2.0
 40
3.0
 40
3.0
 40
3.0
 40
4.0
 40
4.0
 40
4.0
 40
4.0
 10
96.38807997556028
 20
78.33848341038549
 30
0.0
 10
95.80952763233838
 20
78.33848341038549
 30
0.0
 10
95.33681354900139
 20
78.80767170487981
 30
0.0
 10
95.33681354900139
 20
79.38974714550235
 30
0.0
 10
95.33681354900139
 20
79.97182258612522
 30
0.0
 10
95.805996460612
 20
80.44101088061955
 30
0.0
 10
96.38807997556028
 20
80.44101088061955
 30
0.0
 10
96.97016349050858
 20
80.44101088061955
 30
0.0
 10
97.43934640211918
 20
79.97182258612522
 30
0.0
 10
97.43934640211918
 20
79.38974714550235
 30
0.0
 10
97.43934640211918
 20
78.80767170487981
 30
0.0
 10
96.97016349050858
 20
78.33848341038549
 30
0.0
 10
96.38807997556028
 20
78.33848341038549
 30
0.0
  0
SPLINE
  5
83
330
70
100
AcDbEntity
  8
PCB holes
 62
     5
420
      255
370
     9
100
AcDbSpline
210
0.0
220
0.0
230
1.0
 70
    11
 71
     3
 72
    17
 73
    13
 74
     0
 42
0.0000000001
 43
0.0000000001
 40
0.0
 40
0.0
 40
0.0
 40
0.0
 40
1.0
 40
1.0
 40
1.0
 40
2.0
 40
2.0
 40
2.0
 40
3.0
 40
3.0
 40
3.0
 40
4.0
 40
4.0
 40
4.0
 40
4.0
 10
95.2450999760221
 20
62.68596185013606
 30
0.0
 10
95.2450999760221
 20
62.68596185013606
 30
0.0
 10
81.24355191860948
 20
62.68596185013606
 30
0.0
 10
81.24355191860948
 20
62.68596185013606
 30
0.0
 10
81.24355191860948
 20
62.68596185013606
 30
0.0
 10
81.24355191860948
 20
76.6839814272643
 30
0.0
 10
81.24355191860948
 20
76.6839814272643
 30
0.0
 10
81.24355191860948
 20
76.6839814272643
 30
0.0
 10
95.2450999760221
 20
76.6839814272643
 30
0.0
 10
95.2450999760221
 20
76.6839814272643
 30
0.0
 10
95.2450999760221
 20
76.6839814272643
 30
0.0
 10
95.2450999760221
 20
62.68596185013606
 30
0.0
 10
95.2450999760221
 20
62.68596185013606
 30
0.0
  0
SPLINE
  5
84
330
70
100
AcDbEntity
  8
PCB holes
 62
     5
420
      255
370
     9
100
AcDbSpline
210
0.0
220
0.0
230
1.0
 70
     9
 71
     3
 72
    17
 73
    13
 74
     0
 42
0.0000000001
 43
0.0000000001
 40
0.0
 40
0.0
 40
0.0
 40
0.0
 40
1.0
 40
1.0
 40
1.0
 40
2.0
 40
2.0
 40
2.0
 40
3.0
 40
3.0
 40
3.0
 40
4.0
 40
4.0
 40
4.0
 40
4.0
 10
93.24487421106281
 20
54.64274394130314
 30
0.0
 10
92.96971196059001
 20
54.64274394130314
 30
0.0
 10
92.74393228544953
 20
54.86499244471723
 30
0.0
 10
92.74393228544953
 20
55.14368048403301
 30
0.0
 10
92.74393228544953
 20
55.42236852334817
 30
0.0
 10
92.96618078886361
 20
55.64461702676226
 30
0.0
 10
93.24487421106281
 20
55.64461702676226
 30
0.0
 10
93.52356763326202
 20
55.64461702676226
 30
0.0
 10
93.7458161366761
 20
55.42236852334817
 30
0.0
 10
93.7458161366761
 20
55.14368048403301
 30
0.0
 10
93.7458161366761
 20
54.86499244471723
 30
0.0
 10
93.52356763326202
 20
54.64274394130314
 30
0.0
 10
93.24487421106281
 20
54.64274394130314
 30
0.0
  0
SPLINE
  5
85
330
70
100
AcDbEntity
  8
PCB holes
 62
     5
420
      255
370
     9
100
AcDbSpline
210
0.0
220
0.0
230
1.0
 70
     9
 71
     3
 72
    17
 73
    13
 74
     0
 42
0.0000000001
 43
0.0000000001
 40
0.0
 40
0.0
 40
0.0
 40
0.0
 40
1.0
 40
1.0
 40
1.0
 40
2.0
 40
2.0
 40
2.0
 40
3.0
 40
3.0
 40
3.0
 40
4.0
 40
4.0
 40
4.0
 40
4.0
 10
93.24487421106281
 20
52.64252355922727
 30
0.0
 10
92.96971196059001
 20
52.64252355922727
 30
0.0
 10
92.74393228544953
 20
52.86477206264135
 30
0.0
 10
92.74393228544953
 20
53.14346010195714
 30
0.0
 10
92.74393228544953
 20
53.42214814127294
 30
0.0
 10
92.96618078886361
 20
53.64439664468702
 30
0.0
 10
93.24487421106281
 20
53.64439664468702
 30
0.0
 10
93.52356763326202
 20
53.64439664468702
 30
0.0
 10
93.7458161366761
 20
53.42214814127294
 30
0.0
 10
93.7458161366761
 20
53.14346010195714
 30
0.0
 10
93.7458161366761
 20
52.86477206264135
 30
0.0
 10
93.52356763326202
 20
52.64252355922727
 30
0.0
 10
93.24487421106281
 20
52.64252355922727
 30
0.0
  0
SPLINE
  5
86
330
70
100
AcDbEntity
  8
PCB holes
 62
     5
420
      255
370
     9
100
AcDbSpline
210
0.0
220
0.0
230
1.0
 70
     9
 71
     3
 72
    17
 73
    13
 74
     0
 42
0.0000000001
 43
0.0000000001
 40
0.0
 40
0.0
 40
0.0
 40
0.0
 40
1.0
 40
1.0
 40
1.0
 40
2.0
 40
2.0
 40
2.0
 40
3.0
 40
3.0
 40
3.0
 40
4.0
 40
4.0
 40
4.0
 40
4.0
 10
93.24487421106281
 20
50.64230317715203
 30
0.0
 10
92.96971196059001
 20
50.64230317715203
 30
0.0
 10
92.74393228544953
 20
50.86455168056612
 30
0.0
 10
92.74393228544953
 20
51.14323971988127
 30
0.0
 10
92.74393228544953
 20
51.42192775919706
 30
0.0
 10
92.96618078886361
 20
51.64417626261115
 30
0.0
 10
93.24487421106281
 20
51.64417626261115
 30
0.0
 10
93.52356763326202
 20
51.64417626261115
 30
0.0
 10
93.7458161366761
 20
51.42192775919706
 30
0.0
 10
93.7458161366761
 20
51.14323971988127
 30
0.0
 10
93.7458161366761
 20
50.86455168056612
 30
0.0
 10
93.52356763326202
 20
50.64230317715203
 30
0.0
 10
93.24487421106281
 20
50.64230317715203
 30
0.0
  0
SPLINE
  5
87
330
70
100
AcDbEntity
  8
PCB holes
 62
     5
420
      255
370
     9
100
AcDbSpline
210
0.0
220
0.0
230
1.0
 70
     9
 71
     3
 72
    17
 73
    13
 74
     0
 42
0.0000000001
 43
0.0000000001
 40
0.0
 40
0.0
 40
0.0
 40
0.0
 40
1.0
 40
1.0
 40
1.0
 40
2.0
 40
2.0
 40
2.0
 40
3.0
 40
3.0
 40
3.0
 40
4.0
 40
4.0
 40
4.0
 40
4.0
 10
93.24487421106281
 20
48.6420827950768
 30
0.0
 10
92.96971196059001
 20
48.6420827950768
 30
0.0
 10
92.74393228544953
 20
48.86433129849088
 30
0.0
 10
92.74393228544953
 20
49.14301933780603
 30
0.0
 10
92.74393228544953
 20
49.42170737712118
 30
0.0
 10
92.96618078886361
 20
49.64395588053527
 30
0.0
 10
93.24487421106281
 20
49.64395588053527
 30
0.0
 10
93.52356763326202
 20
49.64395588053527
 30
0.0
 10
93.7458161366761
 20
49.42170737712118
 30
0.0
 10
93.7458161366761
 20
49.14301933780603
 30
0.0
 10
93.7458161366761
 20
48.86433129849088
 30
0.0
 10
93.52356763326202
 20
48.6420827950768
 30
0.0
 10
93.24487421106281
 20
48.6420827950768
 30
0.0
  0
SPLINE
  5
88
330
70
100
AcDbEntity
  8
PCB holes
 62
     5
420
      255
370
     9
100
AcDbSpline
210
0.0
220
0.0
230
1.0
 70
     9
 71
     3
 72
    17
 73
    13
 74
     0
 42
0.0000000001
 43
0.0000000001
 40
0.0
 40
0.0
 40
0.0
 40
0.0
 40
1.0
 40
1.0
 40
1.0
 40
2.0
 40
2.0
 40
2.0
 40
3.0
 40
3.0
 40
3.0
 40
4.0
 40
4.0
 40
4.0
 40
4.0
 10
93.24487421106281
 20
46.64186241300092
 30
0.0
 10
92.96971196059001
 20
46.64186241300092
 30
0.0
 10
92.74393228544953
 20
46.86411091641501
 30
0.0
 10
92.74393228544953
 20
47.1427989557308
 30
0.0
 10
92.74393228544953
 20
47.42148699504595
 30
0.0
 10
92.96618078886361
 20
47.64373549846004
 30
0.0
 10
93.24487421106281
 20
47.64373549846004
 30
0.0
 10
93.52356763326202
 20
47.64373549846004
 30
0.0
 10
93.7458161366761
 20
47.42148699504595
 30
0.0
 10
93.7458161366761
 20
47.1427989557308
 30
0.0
 10
93.7458161366761
 20
46.86411091641501
 30
0.0
 10
93.52356763326202
 20
46.64186241300092
 30
0.0
 10
93.24487421106281
 20
46.64186241300092
 30
0.0
  0
SPLINE
  5
89
330
70
100
AcDbEntity
  8
PCB holes
 62
     5
420
      255
370
     9
100
AcDbSpline
210
0.0
220
0.0
230
1.0
 70
     9
 71
     3
 72
    17
 73
    13
 74
     0
 42
0.0000000001
 43
0.0000000001
 40
0.0
 40
0.0
 40
0.0
 40
0.0
 40
1.0
 40
1.0
 40
1.0
 40
2.0
 40
2.0
 40
2.0
 40
3.0
 40
3.0
 40
3.0
 40
4.0
 40
4.0
 40
4.0
 40
4.0
 10
91.24464844610352
 20
54.64274394130314
 30
0.0
 10
90.96948619563072
 20
54.64274394130314
 30
0.0
 10
90.74370652049024
 20
54.86499244471723
 30
0.0
 10
90.74370652049024
 20
55.14368048403301
 30
0.0
 10
90.74370652049024
 20
55.42236852334817
 30
0.0
 10
90.96595502390433
 20
55.64461702676226
 30
0.0
 10
91.24464844610352
 20
55.64461702676226
 30
0.0
 10
91.52334186830273
 20
55.64461702676226
 30
0.0
 10
91.74559037171681
 20
55.42236852334817
 30
0.0
 10
91.74559037171681
 20
55.14368048403301
 30
0.0
 10
91.74559037171681
 20
54.86499244471723
 30
0.0
 10
91.52334186830273
 20
54.64274394130314
 30
0.0
 10
91.24464844610352
 20
54.64274394130314
 30
0.0
  0
SPLINE
  5
8A
330
70
100
AcDbEntity
  8
PCB holes
 62
     5
420
      255
370
     9
100
AcDbSpline
210
0.0
220
0.0
230
1.0
 70
     9
 71
     3
 72
    17
 73
    13
 74
     0
 42
0.0000000001
 43
0.0000000001
 40
0.0
 40
0.0
 40
0.0
 40
0.0
 40
1.0
 40
1.0
 40
1.0
 40
2.0
 40
2.0
 40
2.0
 40
3.0
 40
3.0
 40
3.0
 40
4.0
 40
4.0
 40
4.0
 40
4.0
 10
91.24464844610352
 20
52.64252355922727
 30
0.0
 10
90.96948619563072
 20
52.64252355922727
 30
0.0
 10
90.74370652049024
 20
52.86477206264135
 30
0.0
 10
90.74370652049024
 20
53.14346010195714
 30
0.0
 10
90.74370652049024
 20
53.42214814127294
 30
0.0
 10
90.96595502390433
 20
53.64439664468702
 30
0.0
 10
91.24464844610352
 20
53.64439664468702
 30
0.0
 10
91.52334186830273
 20
53.64439664468702
 30
0.0
 10
91.74559037171681
 20
53.42214814127294
 30
0.0
 10
91.74559037171681
 20
53.14346010195714
 30
0.0
 10
91.74559037171681
 20
52.86477206264135
 30
0.0
 10
91.52334186830273
 20
52.64252355922727
 30
0.0
 10
91.24464844610352
 20
52.64252355922727
 30
0.0
  0
SPLINE
  5
8B
330
70
100
AcDbEntity
  8
PCB holes
 62
     5
420
      255
370
     9
100
AcDbSpline
210
0.0
220
0.0
230
1.0
 70
     9
 71
     3
 72
    17
 73
    13
 74
     0
 42
0.0000000001
 43
0.0000000001
 40
0.0
 40
0.0
 40
0.0
 40
0.0
 40
1.0
 40
1.0
 40
1.0
 40
2.0
 40
2.0
 40
2.0
 40
3.0
 40
3.0
 40
3.0
 40
4.0
 40
4.0
 40
4.0
 40
4.0
 10
91.24464844610352
 20
50.64230317715203
 30
0.0
 10
90.96948619563072
 20
50.64230317715203
 30
0.0
 10
90.74370652049024
 20
50.86455168056612
 30
0.0
 10
90.74370652049024
 20
51.14323971988127
 30
0.0
 10
90.74370652049024
 20
51.42192775919706
 30
0.0
 10
90.96595502390433
 20
51.64417626261115
 30
0.0
 10
91.24464844610352
 20
51.64417626261115
 30
0.0
 10
91.52334186830273
 20
51.64417626261115
 30
0.0
 10
91.74559037171681
 20
51.42192775919706
 30
0.0
 10
91.74559037171681
 20
51.14323971988127
 30
0.0
 10
91.74559037171681
 20
50.86455168056612
 30
0.0
 10
91.52334186830273
 20
50.64230317715203
 30
0.0
 10
91.24464844610352
 20
50.64230317715203
 30
0.0
  0
SPLINE
  5
8C
330
70
100
AcDbEntity
  8
PCB holes
 62
     5
420
      255
370
     9
100
AcDbSpline
210
0.0
220
0.0
230
1.0
 70
     9
 71
     3
 72
    17
 73
    13
 74
     0
 42
0.0000000001
 43
0.0000000001
 40
0.0
 40
0.0
 40
0.0
 40
0.0
 40
1.0
 40
1.0
 40
1.0
 40
2.0
 40
2.0
 40
2.0
 40
3.0
 40
3.0
 40
3.0
 40
4.0
 40
4.0
 40
4.0
 40
4.0
 10
91.24464844610352
 20
48.6420827950768
 30
0.0
 10
90.96948619563072
 20
48.6420827950768
 30
0.0
 10
90.74370652049024
 20
48.86433129849088
 30
0.0
 10
90.74370652049024
 20
49.14301933780603
 30
0.0
 10
90.74370652049024
 20
49.42170737712118
 30
0.0
 10
90.96595502390433
 20
49.64395588053527
 30
0.0
 10
91.24464844610352
 20
49.64395588053527
 30
0.0
 10
91.52334186830273
 20
49.64395588053527
 30
0.0
 10
91.74559037171681
 20
49.42170737712118
 30
0.0
 10
91.74559037171681
 20
49.14301933780603
 30
0.0
 10
91.74559037171681
 20
48.86433129849088
 30
0.0
 10
91.52334186830273
 20
48.6420827950768
 30
0.0
 10
91.24464844610352
 20
48.6420827950768
 30
0.0
  0
SPLINE
  5
8D
330
70
100
AcDbEntity
  8
PCB holes
 62
     5
420
      255
370
     9
100
AcDbSpline
210
0.0
220
0.0
230
1.0
 70
     9
 71
     3
 72
    17
 73
    13
 74
     0
 42
0.0000000001
 43
0.0000000001
 40
0.0
 40
0.0
 40
0.0
 40
0.0
 40
1.0
 40
1.0
 40
1.0
 40
2.0
 40
2.0
 40
2.0
 40
3.0
 40
3.0
 40
3.0
 40
4.0
 40
4.0
 40
4.0
 40
4.0
 10
91.24464844610352
 20
46.64186241300092
 30
0.0
 10
90.96948619563072
 20
46.64186241300092
 30
0.0
 10
90.74370652049024
 20
46.86411091641501
 30
0.0
 10
90.74370652049024
 20
47.1427989557308
 30
0.0
 10
90.74370652049024
 20
47.42148699504595
 30
0.0
 10
90.96595502390433
 20
47.64373549846004
 30
0.0
 10
91.24464844610352
 20
47.64373549846004
 30
0.0
 10
91.52334186830273
 20
47.64373549846004
 30
0.0
 10
91.74559037171681
 20
47.42148699504595
 30
0.0
 10
91.74559037171681
 20
47.1427989557308
 30
0.0
 10
91.74559037171681
 20
46.86411091641501
 30
0.0
 10
91.52334186830273
 20
46.64186241300092
 30
0.0
 10
91.24464844610352
 20
46.64186241300092
 30
0.0
  0
SPLINE
  5
8E
330
70
100
AcDbEntity
  8
PCB holes
 62
     5
420
      255
370
     9
100
AcDbSpline
210
0.0
220
0.0
230
1.0
 70
     9
 71
     3
 72
    17
 73
    13
 74
     0
 42
0.0000000001
 43
0.0000000001
 40
0.0
 40
0.0
 40
0.0
 40
0.0
 40
1.0
 40
1.0
 40
1.0
 40
2.0
 40
2.0
 40
2.0
 40
3.0
 40
3.0
 40
3.0
 40
4.0
 40
4.0
 40
4.0
 40
4.0
 10
89.24442806402765
 20
54.64274394130314
 30
0.0
 10
88.96926581355549
 20
54.64274394130314
 30
0.0
 10
88.74349152129843
 20
54.86499244471723
 30
0.0
 10
88.74349152129843
 20
55.14368048403301
 30
0.0
 10
88.74349152129843
 20
55.42236852334817
 30
0.0
 10
88.9657400247125
 20
55.64461702676226
 30
0.0
 10
89.24442806402765
 20
55.64461702676226
 30
0.0
 10
89.52311610334346
 20
55.64461702676226
 30
0.0
 10
89.74536460675754
 20
55.42236852334817
 30
0.0
 10
89.74536460675754
 20
55.14368048403301
 30
0.0
 10
89.74536460675754
 20
54.86499244471723
 30
0.0
 10
89.52311610334346
 20
54.64274394130314
 30
0.0
 10
89.24442806402765
 20
54.64274394130314
 30
0.0
  0
SPLINE
  5
8F
330
70
100
AcDbEntity
  8
PCB holes
 62
     5
420
      255
370
     9
100
AcDbSpline
210
0.0
220
0.0
230
1.0
 70
     9
 71
     3
 72
    17
 73
    13
 74
     0
 42
0.0000000001
 43
0.0000000001
 40
0.0
 40
0.0
 40
0.0
 40
0.0
 40
1.0
 40
1.0
 40
1.0
 40
2.0
 40
2.0
 40
2.0
 40
3.0
 40
3.0
 40
3.0
 40
4.0
 40
4.0
 40
4.0
 40
4.0
 10
89.24442806402765
 20
52.64252355922727
 30
0.0
 10
88.96926581355549
 20
52.64252355922727
 30
0.0
 10
88.74349152129843
 20
52.86477206264135
 30
0.0
 10
88.74349152129843
 20
53.14346010195714
 30
0.0
 10
88.74349152129843
 20
53.42214814127294
 30
0.0
 10
88.9657400247125
 20
53.64439664468702
 30
0.0
 10
89.24442806402765
 20
53.64439664468702
 30
0.0
 10
89.52311610334346
 20
53.64439664468702
 30
0.0
 10
89.74536460675754
 20
53.42214814127294
 30
0.0
 10
89.74536460675754
 20
53.14346010195714
 30
0.0
 10
89.74536460675754
 20
52.86477206264135
 30
0.0
 10
89.52311610334346
 20
52.64252355922727
 30
0.0
 10
89.24442806402765
 20
52.64252355922727
 30
0.0
  0
SPLINE
  5
90
330
70
100
AcDbEntity
  8
PCB holes
 62
     5
420
      255
370
     9
100
AcDbSpline
210
0.0
220
0.0
230
1.0
 70
     9
 71
     3
 72
    17
 73
    13
 74
     0
 42
0.0000000001
 43
0.0000000001
 40
0.0
 40
0.0
 40
0.0
 40
0.0
 40
1.0
 40
1.0
 40
1.0
 40
2.0
 40
2.0
 40
2.0
 40
3.0
 40
3.0
 40
3.0
 40
4.0
 40
4.0
 40
4.0
 40
4.0
 10
89.24442806402765
 20
50.64230317715203
 30
0.0
 10
88.96926581355549
 20
50.64230317715203
 30
0.0
 10
88.74349152129843
 20
50.86455168056612
 30
0.0
 10
88.74349152129843
 20
51.14323971988127
 30
0.0
 10
88.74349152129843
 20
51.42192775919706
 30
0.0
 10
88.9657400247125
 20
51.64417626261115
 30
0.0
 10
89.24442806402765
 20
51.64417626261115
 30
0.0
 10
89.52311610334346
 20
51.64417626261115
 30
0.0
 10
89.74536460675754
 20
51.42192775919706
 30
0.0
 10
89.74536460675754
 20
51.14323971988127
 30
0.0
 10
89.74536460675754
 20
50.86455168056612
 30
0.0
 10
89.52311610334346
 20
50.64230317715203
 30
0.0
 10
89.24442806402765
 20
50.64230317715203
 30
0.0
  0
SPLINE
  5
91
330
70
100
AcDbEntity
  8
PCB holes
 62
     5
420
      255
370
     9
100
AcDbSpline
210
0.0
220
0.0
230
1.0
 70
     9
 71
     3
 72
    17
 73
    13
 74
     0
 42
0.0000000001
 43
0.0000000001
 40
0.0
 40
0.0
 40
0.0
 40
0.0
 40
1.0
 40
1.0
 40
1.0
 40
2.0
 40
2.0
 40
2.0
 40
3.0
 40
3.0
 40
3.0
 40
4.0
 40
4.0
 40
4.0
 40
4.0
 10
89.24442806402765
 20
48.6420827950768
 30
0.0
 10
88.96926581355549
 20
48.6420827950768
 30
0.0
 10
88.74349152129843
 20
48.86433129849088
 30
0.0
 10
88.74349152129843
 20
49.14301933780603
 30
0.0
 10
88.74349152129843
 20
49.42170737712118
 30
0.0
 10
88.9657400247125
 20
49.64395588053527
 30
0.0
 10
89.24442806402765
 20
49.64395588053527
 30
0.0
 10
89.52311610334346
 20
49.64395588053527
 30
0.0
 10
89.74536460675754
 20
49.42170737712118
 30
0.0
 10
89.74536460675754
 20
49.14301933780603
 30
0.0
 10
89.74536460675754
 20
48.86433129849088
 30
0.0
 10
89.52311610334346
 20
48.6420827950768
 30
0.0
 10
89.24442806402765
 20
48.6420827950768
 30
0.0
  0
SPLINE
  5
92
330
70
100
AcDbEntity
  8
PCB holes
 62
     5
420
      255
370
     9
100
AcDbSpline
210
0.0
220
0.0
230
1.0
 70
     9
 71
     3
 72
    17
 73
    13
 74
     0
 42
0.0000000001
 43
0.0000000001
 40
0.0
 40
0.0
 40
0.0
 40
0.0
 40
1.0
 40
1.0
 40
1.0
 40
2.0
 40
2.0
 40
2.0
 40
3.0
 40
3.0
 40
3.0
 40
4.0
 40
4.0
 40
4.0
 40
4.0
 10
89.24442806402765
 20
46.64186241300092
 30
0.0
 10
88.96926581355549
 20
46.64186241300092
 30
0.0
 10
88.74349152129843
 20
46.86411091641501
 30
0.0
 10
88.74349152129843
 20
47.1427989557308
 30
0.0
 10
88.74349152129843
 20
47.42148699504595
 30
0.0
 10
88.9657400247125
 20
47.64373549846004
 30
0.0
 10
89.24442806402765
 20
47.64373549846004
 30
0.0
 10
89.52311610334346
 20
47.64373549846004
 30
0.0
 10
89.74536460675754
 20
47.42148699504595
 30
0.0
 10
89.74536460675754
 20
47.1427989557308
 30
0.0
 10
89.74536460675754
 20
46.86411091641501
 30
0.0
 10
89.52311610334346
 20
46.64186241300092
 30
0.0
 10
89.24442806402765
 20
46.64186241300092
 30
0.0
  0
SPLINE
  5
93
330
70
100
AcDbEntity
  8
PCB holes
 62
     5
420
      255
370
     9
100
AcDbSpline
210
0.0
220
0.0
230
1.0
 70
     9
 71
     3
 72
    17
 73
    13
 74
     0
 42
0.0000000001
 43
0.0000000001
 40
0.0
 40
0.0
 40
0.0
 40
0.0
 40
1.0
 40
1.0
 40
1.0
 40
2.0
 40
2.0
 40
2.0
 40
3.0
 40
3.0
 40
3.0
 40
4.0
 40
4.0
 40
4.0
 40
4.0
 10
87.24420768195242
 20
54.64274394130314
 30
0.0
 10
86.96904543147962
 20
54.64274394130314
 30
0.0
 10
86.74327113922318
 20
54.86499244471723
 30
0.0
 10
86.74327113922318
 20
55.14368048403301
 30
0.0
 10
86.74327113922318
 20
55.42236852334817
 30
0.0
 10
86.96551964263726
 20
55.64461702676226
 30
0.0
 10
87.24420768195242
 20
55.64461702676226
 30
0.0
 10
87.52289572126757
 20
55.64461702676226
 30
0.0
 10
87.74514422468165
 20
55.42236852334817
 30
0.0
 10
87.74514422468165
 20
55.14368048403301
 30
0.0
 10
87.74514422468165
 20
54.86499244471723
 30
0.0
 10
87.52289572126757
 20
54.64274394130314
 30
0.0
 10
87.24420768195242
 20
54.64274394130314
 30
0.0
  0
SPLINE
  5
94
330
70
100
AcDbEntity
  8
PCB holes
 62
     5
420
      255
370
     9
100
AcDbSpline
210
0.0
220
0.0
230
1.0
 70
     9
 71
     3
 72
    17
 73
    13
 74
     0
 42
0.0000000001
 43
0.0000000001
 40
0.0
 40
0.0
 40
0.0
 40
0.0
 40
1.0
 40
1.0
 40
1.0
 40
2.0
 40
2.0
 40
2.0
 40
3.0
 40
3.0
 40
3.0
 40
4.0
 40
4.0
 40
4.0
 40
4.0
 10
87.24420768195242
 20
52.64252355922727
 30
0.0
 10
86.96904543147962
 20
52.64252355922727
 30
0.0
 10
86.74327113922318
 20
52.86477206264135
 30
0.0
 10
86.74327113922318
 20
53.14346010195714
 30
0.0
 10
86.74327113922318
 20
53.42214814127294
 30
0.0
 10
86.96551964263726
 20
53.64439664468702
 30
0.0
 10
87.24420768195242
 20
53.64439664468702
 30
0.0
 10
87.52289572126757
 20
53.64439664468702
 30
0.0
 10
87.74514422468165
 20
53.42214814127294
 30
0.0
 10
87.74514422468165
 20
53.14346010195714
 30
0.0
 10
87.74514422468165
 20
52.86477206264135
 30
0.0
 10
87.52289572126757
 20
52.64252355922727
 30
0.0
 10
87.24420768195242
 20
52.64252355922727
 30
0.0
  0
SPLINE
  5
95
330
70
100
AcDbEntity
  8
PCB holes
 62
     5
420
      255
370
     9
100
AcDbSpline
210
0.0
220
0.0
230
1.0
 70
     9
 71
     3
 72
    17
 73
    13
 74
     0
 42
0.0000000001
 43
0.0000000001
 40
0.0
 40
0.0
 40
0.0
 40
0.0
 40
1.0
 40
1.0
 40
1.0
 40
2.0
 40
2.0
 40
2.0
 40
3.0
 40
3.0
 40
3.0
 40
4.0
 40
4.0
 40
4.0
 40
4.0
 10
87.24420768195242
 20
50.64230317715203
 30
0.0
 10
86.96904543147962
 20
50.64230317715203
 30
0.0
 10
86.74327113922318
 20
50.86455168056612
 30
0.0
 10
86.74327113922318
 20
51.14323971988127
 30
0.0
 10
86.74327113922318
 20
51.42192775919706
 30
0.0
 10
86.96551964263726
 20
51.64417626261115
 30
0.0
 10
87.24420768195242
 20
51.64417626261115
 30
0.0
 10
87.52289572126757
 20
51.64417626261115
 30
0.0
 10
87.74514422468165
 20
51.42192775919706
 30
0.0
 10
87.74514422468165
 20
51.14323971988127
 30
0.0
 10
87.74514422468165
 20
50.86455168056612
 30
0.0
 10
87.52289572126757
 20
50.64230317715203
 30
0.0
 10
87.24420768195242
 20
50.64230317715203
 30
0.0
  0
SPLINE
  5
96
330
70
100
AcDbEntity
  8
PCB holes
 62
     5
420
      255
370
     9
100
AcDbSpline
210
0.0
220
0.0
230
1.0
 70
     9
 71
     3
 72
    17
 73
    13
 74
     0
 42
0.0000000001
 43
0.0000000001
 40
0.0
 40
0.0
 40
0.0
 40
0.0
 40
1.0
 40
1.0
 40
1.0
 40
2.0
 40
2.0
 40
2.0
 40
3.0
 40
3.0
 40
3.0
 40
4.0
 40
4.0
 40
4.0
 40
4.0
 10
87.24420768195242
 20
48.6420827950768
 30
0.0
 10
86.96904543147962
 20
48.6420827950768
 30
0.0
 10
86.74327113922318
 20
48.86433129849088
 30
0.0
 10
86.74327113922318
 20
49.14301933780603
 30
0.0
 10
86.74327113922318
 20
49.42170737712118
 30
0.0
 10
86.96551964263726
 20
49.64395588053527
 30
0.0
 10
87.24420768195242
 20
49.64395588053527
 30
0.0
 10
87.52289572126757
 20
49.64395588053527
 30
0.0
 10
87.74514422468165
 20
49.42170737712118
 30
0.0
 10
87.74514422468165
 20
49.14301933780603
 30
0.0
 10
87.74514422468165
 20
48.86433129849088
 30
0.0
 10
87.52289572126757
 20
48.6420827950768
 30
0.0
 10
87.24420768195242
 20
48.6420827950768
 30
0.0
  0
SPLINE
  5
97
330
70
100
AcDbEntity
  8
PCB holes
 62
     5
420
      255
370
     9
100
AcDbSpline
210
0.0
220
0.0
230
1.0
 70
     9
 71
     3
 72
    17
 73
    13
 74
     0
 42
0.0000000001
 43
0.0000000001
 40
0.0
 40
0.0
 40
0.0
 40
0.0
 40
1.0
 40
1.0
 40
1.0
 40
2.0
 40
2.0
 40
2.0
 40
3.0
 40
3.0
 40
3.0
 40
4.0
 40
4.0
 40
4.0
 40
4.0
 10
87.24420768195242
 20
46.64186241300092
 30
0.0
 10
86.96904543147962
 20
46.64186241300092
 30
0.0
 10
86.74327113922318
 20
46.86411091641501
 30
0.0
 10
86.74327113922318
 20
47.1427989557308
 30
0.0
 10
86.74327113922318
 20
47.42148699504595
 30
0.0
 10
86.96551964263726
 20
47.64373549846004
 30
0.0
 10
87.24420768195242
 20
47.64373549846004
 30
0.0
 10
87.52289572126757
 20
47.64373549846004
 30
0.0
 10
87.74514422468165
 20
47.42148699504595
 30
0.0
 10
87.74514422468165
 20
47.1427989557308
 30
0.0
 10
87.74514422468165
 20
46.86411091641501
 30
0.0
 10
87.52289572126757
 20
46.64186241300092
 30
0.0
 10
87.24420768195242
 20
46.64186241300092
 30
0.0
  0
SPLINE
  5
98
330
70
100
AcDbEntity
  8
PCB holes
 62
     5
420
      255
370
     9
100
AcDbSpline
210
0.0
220
0.0
230
1.0
 70
     9
 71
     3
 72
    17
 73
    13
 74
     0
 42
0.0000000001
 43
0.0000000001
 40
0.0
 40
0.0
 40
0.0
 40
0.0
 40
1.0
 40
1.0
 40
1.0
 40
2.0
 40
2.0
 40
2.0
 40
3.0
 40
3.0
 40
3.0
 40
4.0
 40
4.0
 40
4.0
 40
4.0
 10
85.24398729987719
 20
54.64274932418719
 30
0.0
 10
84.96882504940375
 20
54.64274932418719
 30
0.0
 10
84.74305075714731
 20
54.86499782760128
 30
0.0
 10
84.74305075714731
 20
55.14368586691642
 30
0.0
 10
84.74305075714731
 20
55.42237390623158
 30
0.0
 10
84.96529926056139
 20
55.64462240964566
 30
0.0
 10
85.24398729987719
 20
55.64462240964566
 30
0.0
 10
85.52267533919234
 20
55.64462240964566
 30
0.0
 10
85.74492384260642
 20
55.42237390623158
 30
0.0
 10
85.74492384260642
 20
55.14368586691642
 30
0.0
 10
85.74492384260642
 20
54.86499782760128
 30
0.0
 10
85.52267533919234
 20
54.64274932418719
 30
0.0
 10
85.24398729987719
 20
54.64274932418719
 30
0.0
  0
SPLINE
  5
99
330
70
100
AcDbEntity
  8
PCB holes
 62
     5
420
      255
370
     9
100
AcDbSpline
210
0.0
220
0.0
230
1.0
 70
     9
 71
     3
 72
    17
 73
    13
 74
     0
 42
0.0000000001
 43
0.0000000001
 40
0.0
 40
0.0
 40
0.0
 40
0.0
 40
1.0
 40
1.0
 40
1.0
 40
2.0
 40
2.0
 40
2.0
 40
3.0
 40
3.0
 40
3.0
 40
4.0
 40
4.0
 40
4.0
 40
4.0
 10
85.24398729987719
 20
52.64252894211132
 30
0.0
 10
84.96882504940375
 20
52.64252894211132
 30
0.0
 10
84.74305075714731
 20
52.8647774455254
 30
0.0
 10
84.74305075714731
 20
53.14346548484119
 30
0.0
 10
84.74305075714731
 20
53.42215352415635
 30
0.0
 10
84.96529926056139
 20
53.64440202757043
 30
0.0
 10
85.24398729987719
 20
53.64440202757043
 30
0.0
 10
85.52267533919234
 20
53.64440202757043
 30
0.0
 10
85.74492384260642
 20
53.42215352415635
 30
0.0
 10
85.74492384260642
 20
53.14346548484119
 30
0.0
 10
85.74492384260642
 20
52.8647774455254
 30
0.0
 10
85.52267533919234
 20
52.64252894211132
 30
0.0
 10
85.24398729987719
 20
52.64252894211132
 30
0.0
  0
SPLINE
  5
9A
330
70
100
AcDbEntity
  8
PCB holes
 62
     5
420
      255
370
     9
100
AcDbSpline
210
0.0
220
0.0
230
1.0
 70
     9
 71
     3
 72
    17
 73
    13
 74
     0
 42
0.0000000001
 43
0.0000000001
 40
0.0
 40
0.0
 40
0.0
 40
0.0
 40
1.0
 40
1.0
 40
1.0
 40
2.0
 40
2.0
 40
2.0
 40
3.0
 40
3.0
 40
3.0
 40
4.0
 40
4.0
 40
4.0
 40
4.0
 10
85.24398729987719
 20
50.64230856003544
 30
0.0
 10
84.96882504940375
 20
50.64230856003544
 30
0.0
 10
84.74305075714731
 20
50.86455706344953
 30
0.0
 10
84.74305075714731
 20
51.14324510276532
 30
0.0
 10
84.74305075714731
 20
51.42193314208111
 30
0.0
 10
84.96529926056139
 20
51.6441816454952
 30
0.0
 10
85.24398729987719
 20
51.6441816454952
 30
0.0
 10
85.52267533919234
 20
51.6441816454952
 30
0.0
 10
85.74492384260642
 20
51.42193314208111
 30
0.0
 10
85.74492384260642
 20
51.14324510276532
 30
0.0
 10
85.74492384260642
 20
50.86455706344953
 30
0.0
 10
85.52267533919234
 20
50.64230856003544
 30
0.0
 10
85.24398729987719
 20
50.64230856003544
 30
0.0
  0
SPLINE
  5
9B
330
70
100
AcDbEntity
  8
PCB holes
 62
     5
420
      255
370
     9
100
AcDbSpline
210
0.0
220
0.0
230
1.0
 70
     9
 71
     3
 72
    17
 73
    13
 74
     0
 42
0.0000000001
 43
0.0000000001
 40
0.0
 40
0.0
 40
0.0
 40
0.0
 40
1.0
 40
1.0
 40
1.0
 40
2.0
 40
2.0
 40
2.0
 40
3.0
 40
3.0
 40
3.0
 40
4.0
 40
4.0
 40
4.0
 40
4.0
 10
85.24398729987719
 20
48.64208817796021
 30
0.0
 10
84.96882504940375
 20
48.64208817796021
 30
0.0
 10
84.74305075714731
 20
48.86433668137429
 30
0.0
 10
84.74305075714731
 20
49.14302472068944
 30
0.0
 10
84.74305075714731
 20
49.42171276000524
 30
0.0
 10
84.96529926056139
 20
49.64396126341932
 30
0.0
 10
85.24398729987719
 20
49.64396126341932
 30
0.0
 10
85.52267533919234
 20
49.64396126341932
 30
0.0
 10
85.74492384260642
 20
49.42171276000524
 30
0.0
 10
85.74492384260642
 20
49.14302472068944
 30
0.0
 10
85.74492384260642
 20
48.86433668137429
 30
0.0
 10
85.52267533919234
 20
48.64208817796021
 30
0.0
 10
85.24398729987719
 20
48.64208817796021
 30
0.0
  0
SPLINE
  5
9C
330
70
100
AcDbEntity
  8
PCB holes
 62
     5
420
      255
370
     9
100
AcDbSpline
210
0.0
220
0.0
230
1.0
 70
     9
 71
     3
 72
    17
 73
    13
 74
     0
 42
0.0000000001
 43
0.0000000001
 40
0.0
 40
0.0
 40
0.0
 40
0.0
 40
1.0
 40
1.0
 40
1.0
 40
2.0
 40
2.0
 40
2.0
 40
3.0
 40
3.0
 40
3.0
 40
4.0
 40
4.0
 40
4.0
 40
4.0
 10
85.24398729987719
 20
46.64186779588497
 30
0.0
 10
84.96882504940375
 20
46.64186779588497
 30
0.0
 10
84.74305075714731
 20
46.86411629929906
 30
0.0
 10
84.74305075714731
 20
47.14280433861421
 30
0.0
 10
84.74305075714731
 20
47.42149237792935
 30
0.0
 10
84.96529926056139
 20
47.64374088134345
 30
0.0
 10
85.24398729987719
 20
47.64374088134345
 30
0.0
 10
85.52267533919234
 20
47.64374088134345
 30
0.0
 10
85.74492384260642
 20
47.42149237792935
 30
0.0
 10
85.74492384260642
 20
47.14280433861421
 30
0.0
 10
85.74492384260642
 20
46.86411629929906
 30
0.0
 10
85.52267533919234
 20
46.64186779588497
 30
0.0
 10
85.24398729987719
 20
46.64186779588497
 30
0.0
  0
SPLINE
  5
9D
330
70
100
AcDbEntity
  8
PCB holes
 62
     5
420
      255
370
     9
100
AcDbSpline
210
0.0
220
0.0
230
1.0
 70
    11
 71
     3
 72
    20
 73
    16
 74
     0
 42
0.0000000001
 43
0.0000000001
 40
0.0
 40
0.0
 40
0.0
 40
0.0
 40
1.0
 40
1.0
 40
1.0
 40
2.0
 40
2.0
 40
2.0
 40
3.0
 40
3.0
 40
3.0
 40
4.0
 40
4.0
 40
4.0
 40
5.0
 40
5.0
 40
5.0
 40
5.0
 10
81.21884986517555
 20
95.78310153620199
 30
0.0
 10
81.21884986517555
 20
95.78310153620199
 30
0.0
 10
95.22039253970474
 20
95.78310153620199
 30
0.0
 10
95.22039253970474
 20
95.78310153620199
 30
0.0
 10
95.22039253970474
 20
95.78310153620199
 30
0.0
 10
95.22039253970474
 20
81.78155347878938
 30
0.0
 10
95.22039253970474
 20
81.78155347878938
 30
0.0
 10
95.22039253970474
 20
81.78155347878938
 30
0.0
 10
81.21884448229215
 20
81.78155347878938
 30
0.0
 10
81.21884448229215
 20
81.78155347878938
 30
0.0
 10
81.21884448229215
 20
81.78155347878938
 30
0.0
 10
81.21884448229215
 20
95.78310288192284
 30
0.0
 10
81.21884448229215
 20
95.78310288192284
 30
0.0
 10
81.21884448229215
 20
95.78310288192284
 30
0.0
 10
81.21884986517555
 20
95.78310153620199
 30
0.0
 10
81.21884986517555
 20
95.78310153620199
 30
0.0
  0
SPLINE
  5
9E
330
70
100
AcDbEntity
  8
PCB holes
 62
     5
420
      255
370
     9
100
AcDbSpline
210
0.0
220
0.0
230
1.0
 70
    11
 71
     3
 72
    17
 73
    13
 74
     0
 42
0.0000000001
 43
0.0000000001
 40
0.0
 40
0.0
 40
0.0
 40
0.0
 40
1.0
 40
1.0
 40
1.0
 40
2.0
 40
2.0
 40
2.0
 40
3.0
 40
3.0
 40
3.0
 40
4.0
 40
4.0
 40
4.0
 40
4.0
 10
79.11985356666821
 20
31.68783461122898
 30
0.0
 10
79.11985356666821
 20
31.68783461122898
 30
0.0
 10
65.12183668098201
 20
31.68783461122898
 30
0.0
 10
65.12183668098201
 20
31.68783461122898
 30
0.0
 10
65.12183668098201
 20
31.68783461122898
 30
0.0
 10
65.12183668098201
 20
45.68585149691519
 30
0.0
 10
65.12183668098201
 20
45.68585149691519
 30
0.0
 10
65.12183668098201
 20
45.68585149691519
 30
0.0
 10
79.11985356666821
 20
45.68585149691519
 30
0.0
 10
79.11985356666821
 20
45.68585149691519
 30
0.0
 10
79.11985356666821
 20
45.68585149691519
 30
0.0
 10
79.11985356666821
 20
31.68783461122898
 30
0.0
 10
79.11985356666821
 20
31.68783461122898
 30
0.0
  0
SPLINE
  5
9F
330
70
100
AcDbEntity
  8
PCB holes
 62
     5
420
      255
370
     9
100
AcDbSpline
210
0.0
220
0.0
230
1.0
 70
    11
 71
     3
 72
    17
 73
    13
 74
     0
 42
0.0000000001
 43
0.0000000001
 40
0.0
 40
0.0
 40
0.0
 40
0.0
 40
1.0
 40
1.0
 40
1.0
 40
2.0
 40
2.0
 40
2.0
 40
3.0
 40
3.0
 40
3.0
 40
4.0
 40
4.0
 40
4.0
 40
4.0
 10
62.16912578877966
 20
67.68828646551374
 30
0.0
 10
62.16912578877966
 20
67.68828646551374
 30
0.0
 10
76.17067384619227
 20
67.68828646551374
 30
0.0
 10
76.17067384619227
 20
67.68828646551374
 30
0.0
 10
76.17067384619227
 20
67.68828646551374
 30
0.0
 10
76.17067384619227
 20
53.68673840810082
 30
0.0
 10
76.17067384619227
 20
53.68673840810082
 30
0.0
 10
76.17067384619227
 20
53.68673840810082
 30
0.0
 10
62.16912578877966
 20
53.68673840810082
 30
0.0
 10
62.16912578877966
 20
53.68673840810082
 30
0.0
 10
62.16912578877966
 20
53.68673840810082
 30
0.0
 10
62.16912578877966
 20
67.68828646551374
 30
0.0
 10
62.16912578877966
 20
67.68828646551374
 30
0.0
  0
SPLINE
  5
A0
330
70
100
AcDbEntity
  8
PCB holes
 62
     5
420
      255
370
     9
100
AcDbSpline
210
0.0
220
0.0
230
1.0
 70
    11
 71
     3
 72
    20
 73
    16
 74
     0
 42
0.0000000001
 43
0.0000000001
 40
0.0
 40
0.0
 40
0.0
 40
0.0
 40
1.0
 40
1.0
 40
1.0
 40
2.0
 40
2.0
 40
2.0
 40
3.0
 40
3.0
 40
3.0
 40
4.0
 40
4.0
 40
4.0
 40
5.0
 40
5.0
 40
5.0
 40
5.0
 10
46.05799868344766
 20
27.23584526256436
 30
0.0
 10
46.05799868344766
 20
27.23584526256436
 30
0.0
 10
42.43502187504412
 20
40.75762227607122
 30
0.0
 10
42.43502187504412
 20
40.75762227607122
 30
0.0
 10
42.43502187504412
 20
40.75762227607122
 30
0.0
 10
55.95679888855066
 20
44.38059908447444
 30
0.0
 10
55.95679888855066
 20
44.38059908447444
 30
0.0
 10
55.95679888855066
 20
44.38059908447444
 30
0.0
 10
59.5797756969542
 20
30.85882207096823
 30
0.0
 10
59.5797756969542
 20
30.85882207096823
 30
0.0
 10
59.5797756969542
 20
30.85882207096823
 30
0.0
 10
46.05799868344766
 20
27.23584526256436
 30
0.0
 10
46.05799868344766
 20
27.23584526256436
 30
0.0
 10
46.05799868344766
 20
27.23584526256436
 30
0.0
 10
46.05799868344766
 20
27.23584526256436
 30
0.0
 10
46.05799868344766
 20
27.23584526256436
 30
0.0
  0
SPLINE
  5
A1
330
70
100
AcDbEntity
  8
PCB holes
 62
     5
420
      255
370
     9
100
AcDbSpline
210
0.0
220
0.0
230
1.0
 70
    11
 71
     3
 72
    17
 73
    13
 74
     0
 42
0.0000000001
 43
0.0000000001
 40
0.0
 40
0.0
 40
0.0
 40
0.0
 40
1.0
 40
1.0
 40
1.0
 40
2.0
 40
2.0
 40
2.0
 40
3.0
 40
3.0
 40
3.0
 40
4.0
 40
4.0
 40
4.0
 40
4.0
 10
28.79330344628199
 20
18.04259039362418
 30
0.0
 10
28.79330344628199
 20
18.04259039362418
 30
0.0
 10
21.79429365771804
 20
30.1673852730595
 30
0.0
 10
21.79429365771804
 20
30.1673852730595
 30
0.0
 10
21.79429365771804
 20
30.1673852730595
 30
0.0
 10
33.91908988287421
 20
37.1663937159026
 30
0.0
 10
33.91908988287421
 20
37.1663937159026
 30
0.0
 10
33.91908988287421
 20
37.1663937159026
 30
0.0
 10
40.9180983257173
 20
25.04159883646729
 30
0.0
 10
40.9180983257173
 20
25.04159883646729
 30
0.0
 10
40.9180983257173
 20
25.04159883646729
 30
0.0
 10
28.79330344628199
 20
18.04259039362418
 30
0.0
 10
28.79330344628199
 20
18.04259039362418
 30
0.0
  0
SPLINE
  5
A2
330
70
100
AcDbEntity
  8
PCB holes
 62
     5
420
      255
370
     9
100
AcDbSpline
210
0.0
220
0.0
230
1.0
 70
    11
 71
     3
 72
    17
 73
    13
 74
     0
 42
0.0000000001
 43
0.0000000001
 40
0.0
 40
0.0
 40
0.0
 40
0.0
 40
1.0
 40
1.0
 40
1.0
 40
2.0
 40
2.0
 40
2.0
 40
3.0
 40
3.0
 40
3.0
 40
4.0
 40
4.0
 40
4.0
 40
4.0
 10
14.49895611985779
 20
4.661925677080445
 30
0.0
 10
14.49895611985779
 20
4.661925677080445
 30
0.0
 10
4.6001552418942
 20
14.56072588218345
 30
0.0
 10
4.6001552418942
 20
14.56072588218345
 30
0.0
 10
4.6001552418942
 20
14.56072588218345
 30
0.0
 10
14.49895611985779
 20
24.45952608728645
 30
0.0
 10
14.49895611985779
 20
24.45952608728645
 30
0.0
 10
14.49895611985779
 20
24.45952608728645
 30
0.0
 10
24.39775632496079
 20
14.56072588218345
 30
0.0
 10
24.39775632496079
 20
14.56072588218345
 30
0.0
 10
24.39775632496079
 20
14.56072588218345
 30
0.0
 10
14.49895611985779
 20
4.661925677080445
 30
0.0
 10
14.49895611985779
 20
4.661925677080445
 30
0.0
  0
SPLINE
  5
A3
330
70
100
AcDbEntity
  8
PCB holes
 62
     5
420
      255
370
     9
100
AcDbSpline
210
0.0
220
0.0
230
1.0
 70
     9
 71
     3
 72
    17
 73
    13
 74
     0
 42
0.0000000001
 43
0.0000000001
 40
0.0
 40
0.0
 40
0.0
 40
0.0
 40
1.0
 40
1.0
 40
1.0
 40
2.0
 40
2.0
 40
2.0
 40
3.0
 40
3.0
 40
3.0
 40
4.0
 40
4.0
 40
4.0
 40
4.0
 10
12.41054257076156
 20
33.33528770810686
 30
0.0
 10
12.98908953110005
 20
33.33528770810686
 30
0.0
 10
13.46180496015789
 20
32.86609941361285
 30
0.0
 10
13.46180496015789
 20
32.28402666443138
 30
0.0
 10
13.46180496015789
 20
31.70195391525118
 30
0.0
 10
12.99261666566357
 20
31.23276562075653
 30
0.0
 10
12.41054257076156
 20
31.23276562075653
 30
0.0
 10
11.82846847585987
 20
31.23276562075653
 30
0.0
 10
11.35928018136555
 20
31.70195391525118
 30
0.0
 10
11.35928018136555
 20
32.28402666443138
 30
0.0
 10
11.35928018136555
 20
32.86609941361285
 30
0.0
 10
11.82846847585987
 20
33.33528770810686
 30
0.0
 10
12.41054257076156
 20
33.33528770810686
 30
0.0
  0
SPLINE
  5
A4
330
70
100
AcDbEntity
  8
PCB holes
 62
     5
420
      255
370
     9
100
AcDbSpline
210
0.0
220
0.0
230
1.0
 70
     9
 71
     3
 72
    17
 73
    13
 74
     0
 42
0.0000000001
 43
0.0000000001
 40
0.0
 40
0.0
 40
0.0
 40
0.0
 40
1.0
 40
1.0
 40
1.0
 40
2.0
 40
2.0
 40
2.0
 40
3.0
 40
3.0
 40
3.0
 40
4.0
 40
4.0
 40
4.0
 40
4.0
 10
17.96318495848026
 20
46.90997846867243
 30
0.0
 10
17.96318495848026
 20
46.90997846867243
 30
0.0
 10
17.96318495848026
 20
60.11073106233247
 30
0.0
 10
17.96318495848026
 20
60.11073106233247
 30
0.0
 10
17.96318495848026
 20
60.11073106233247
 30
0.0
 10
31.56257104387456
 20
60.11073106233247
 30
0.0
 10
31.56257104387456
 20
60.11073106233247
 30
0.0
 10
31.56257104387456
 20
60.11073106233247
 30
0.0
 10
31.56257104387456
 20
46.90997846867243
 30
0.0
 10
31.56257104387456
 20
46.90997846867243
 30
0.0
 10
31.56257104387456
 20
46.90997846867243
 30
0.0
 10
17.96318361275941
 20
46.90997846867243
 30
0.0
 10
17.96318495848026
 20
46.90997846867243
 30
0.0
  0
SPLINE
  5
A5
330
70
100
AcDbEntity
  8
PCB holes
 62
     5
420
      255
370
     9
100
AcDbSpline
210
0.0
220
0.0
230
1.0
 70
     9
 71
     3
 72
    20
 73
    16
 74
     0
 42
0.0000000001
 43
0.0000000001
 40
0.0
 40
0.0
 40
0.0
 40
0.0
 40
1.0
 40
1.0
 40
1.0
 40
2.0
 40
2.0
 40
2.0
 40
3.0
 40
3.0
 40
3.0
 40
4.0
 40
4.0
 40
4.0
 40
5.0
 40
5.0
 40
5.0
 40
5.0
 10
12.44934777956619
 20
87.32714294310156
 30
0.0
 10
12.44934777956619
 20
87.32714294310156
 30
0.0
 10
38.83674173719047
 20
87.32714294310156
 30
0.0
 10
38.83674173719047
 20
87.32714294310156
 30
0.0
 10
38.83674173719047
 20
87.32714294310156
 30
0.0
 10
38.83674173719047
 20
72.51068819224059
 30
0.0
 10
38.83674173719047
 20
72.51068819224059
 30
0.0
 10
38.83674173719047
 20
72.51068819224059
 30
0.0
 10
12.44934777956619
 20
72.51068819224059
 30
0.0
 10
12.44934777956619
 20
72.51068819224059
 30
0.0
 10
12.44934777956619
 20
72.51068819224059
 30
0.0
 10
12.44934777956619
 20
87.32714025165988
 30
0.0
 10
12.44934777956619
 20
87.32714025165988
 30
0.0
 10
12.44934777956619
 20
87.32714025165988
 30
0.0
 10
12.44934777956619
 20
87.32714025165988
 30
0.0
 10
12.44934777956619
 20
87.32714294310156
 30
0.0
  0
SPLINE
  5
A6
330
70
100
AcDbEntity
  8
PCB holes
 62
     5
420
      255
370
     9
100
AcDbSpline
210
0.0
220
0.0
230
1.0
 70
     9
 71
     3
 72
    17
 73
    13
 74
     0
 42
0.0000000001
 43
0.0000000001
 40
0.0
 40
0.0
 40
0.0
 40
0.0
 40
1.0
 40
1.0
 40
1.0
 40
2.0
 40
2.0
 40
2.0
 40
3.0
 40
3.0
 40
3.0
 40
4.0
 40
4.0
 40
4.0
 40
4.0
 10
11.35928018136555
 20
111.7143171915112
 30
0.0
 10
11.35928018136555
 20
112.2928641518494
 30
0.0
 10
11.82846847585987
 20
112.7655795809072
 30
0.0
 10
12.41054257076156
 20
112.7655795809072
 30
0.0
 10
12.99261666566357
 20
112.7655795809072
 30
0.0
 10
13.46180496015789
 20
112.2963919592731
 30
0.0
 10
13.46180496015789
 20
111.7143171915112
 30
0.0
 10
13.46180496015789
 20
111.1322424237489
 30
0.0
 10
12.99261666566357
 20
110.6630548021148
 30
0.0
 10
12.41054257076156
 20
110.6630548021148
 30
0.0
 10
11.82846847585987
 20
110.6630548021148
 30
0.0
 10
11.35928018136555
 20
111.1322424237489
 30
0.0
 10
11.35928018136555
 20
111.7143171915112
 30
0.0
  0
SPLINE
  5
A7
330
70
100
AcDbEntity
  8
PCB holes
 62
     5
420
      255
370
     9
100
AcDbSpline
210
0.0
220
0.0
230
1.0
 70
     9
 71
     3
 72
    17
 73
    13
 74
     0
 42
0.0000000001
 43
0.0000000001
 40
0.0
 40
0.0
 40
0.0
 40
0.0
 40
1.0
 40
1.0
 40
1.0
 40
2.0
 40
2.0
 40
2.0
 40
3.0
 40
3.0
 40
3.0
 40
4.0
 40
4.0
 40
4.0
 40
4.0
 10
43.17231545944217
 20
64.6403308286057
 30
0.0
 10
43.17231545944217
 20
64.6403308286057
 30
0.0
 10
57.17033772801212
 20
64.6403308286057
 30
0.0
 10
57.17033772801212
 20
64.6403308286057
 30
0.0
 10
57.17033772801212
 20
64.6403308286057
 30
0.0
 10
57.17033772801212
 20
50.63878277119309
 30
0.0
 10
57.17033772801212
 20
50.63878277119309
 30
0.0
 10
57.17033772801212
 20
50.63878277119309
 30
0.0
 10
43.1723181508842
 20
50.63878277119309
 30
0.0
 10
43.1723181508842
 20
50.63878277119309
 30
0.0
 10
43.1723181508842
 20
50.63878277119309
 30
0.0
 10
43.1723181508842
 20
64.6403308286057
 30
0.0
 10
43.17231545944217
 20
64.6403308286057
 30
0.0
  0
SPLINE
  5
A8
330
70
100
AcDbEntity
  8
PCB holes
 62
     5
420
      255
370
     9
100
AcDbSpline
210
0.0
220
0.0
230
1.0
 70
     9
 71
     3
 72
    17
 73
    13
 74
     0
 42
0.0000000001
 43
0.0000000001
 40
0.0
 40
0.0
 40
0.0
 40
0.0
 40
1.0
 40
1.0
 40
1.0
 40
2.0
 40
2.0
 40
2.0
 40
3.0
 40
3.0
 40
3.0
 40
4.0
 40
4.0
 40
4.0
 40
4.0
 10
43.17231545944217
 20
83.73944286321796
 30
0.0
 10
43.17231545944217
 20
83.73944286321796
 30
0.0
 10
57.17033772801212
 20
83.73944286321796
 30
0.0
 10
57.17033772801212
 20
83.73944286321796
 30
0.0
 10
57.17033772801212
 20
83.73944286321796
 30
0.0
 10
57.17033772801212
 20
69.73789480580535
 30
0.0
 10
57.17033772801212
 20
69.73789480580535
 30
0.0
 10
57.17033772801212
 20
69.73789480580535
 30
0.0
 10
43.1723181508842
 20
69.73789480580535
 30
0.0
 10
43.1723181508842
 20
69.73789480580535
 30
0.0
 10
43.1723181508842
 20
69.73789480580535
 30
0.0
 10
43.1723181508842
 20
83.73944286321796
 30
0.0
 10
43.17231545944217
 20
83.73944286321796
 30
0.0
  0
SPLINE
  5
A9
330
70
100
AcDbEntity
  8
PCB holes
 62
     5
420
      255
370
     9
100
AcDbSpline
210
0.0
220
0.0
230
1.0
 70
    11
 71
     3
 72
    20
 73
    16
 74
     0
 42
0.0000000001
 43
0.0000000001
 40
0.0
 40
0.0
 40
0.0
 40
0.0
 40
1.0
 40
1.0
 40
1.0
 40
2.0
 40
2.0
 40
2.0
 40
3.0
 40
3.0
 40
3.0
 40
4.0
 40
4.0
 40
4.0
 40
5.0
 40
5.0
 40
5.0
 40
5.0
 10
43.20053791883473
 20
102.838556243551
 30
0.0
 10
43.20053791883473
 20
102.838556243551
 30
0.0
 10
57.19855480452094
 20
102.838556243551
 30
0.0
 10
57.19855480452094
 20
102.838556243551
 30
0.0
 10
57.19855480452094
 20
102.838556243551
 30
0.0
 10
57.19855480452094
 20
88.83700953185931
 30
0.0
 10
57.19855480452094
 20
88.83700953185931
 30
0.0
 10
57.19855480452094
 20
88.83700953185931
 30
0.0
 10
43.20053522739303
 20
88.83700953185931
 30
0.0
 10
43.20053522739303
 20
88.83700953185931
 30
0.0
 10
43.20053522739303
 20
88.83700953185931
 30
0.0
 10
43.20053522739303
 20
102.8350291089875
 30
0.0
 10
43.20053522739303
 20
102.8350291089875
 30
0.0
 10
43.20053522739303
 20
102.8350291089875
 30
0.0
 10
43.20053791883473
 20
102.838556243551
 30
0.0
 10
43.20053791883473
 20
102.838556243551
 30
0.0
  0
SPLINE
  5
AA
330
70
100
AcDbEntity
  8
PCB holes
 62
     5
420
      255
370
     9
100
AcDbSpline
210
0.0
220
0.0
230
1.0
 70
    11
 71
     3
 72
    17
 73
    13
 74
     0
 42
0.0000000001
 43
0.0000000001
 40
0.0
 40
0.0
 40
0.0
 40
0.0
 40
1.0
 40
1.0
 40
1.0
 40
2.0
 40
2.0
 40
2.0
 40
3.0
 40
3.0
 40
3.0
 40
4.0
 40
4.0
 40
4.0
 40
4.0
 10
62.19381707644582
 20
86.71684504308647
 30
0.0
 10
62.19381707644582
 20
86.71684504308647
 30
0.0
 10
76.19536513385843
 20
86.71684504308647
 30
0.0
 10
76.19536513385843
 20
86.71684504308647
 30
0.0
 10
76.19536513385843
 20
86.71684504308647
 30
0.0
 10
76.19536513385843
 20
72.71529698567386
 30
0.0
 10
76.19536513385843
 20
72.71529698567386
 30
0.0
 10
76.19536513385843
 20
72.71529698567386
 30
0.0
 10
62.19381707644582
 20
72.71529698567386
 30
0.0
 10
62.19381707644582
 20
72.71529698567386
 30
0.0
 10
62.19381707644582
 20
72.71529698567386
 30
0.0
 10
62.19381707644582
 20
86.71684504308647
 30
0.0
 10
62.19381707644582
 20
86.71684504308647
 30
0.0
  0
SPLINE
  5
AB
330
70
100
AcDbEntity
  8
PCB holes
 62
     5
420
      255
370
     9
100
AcDbSpline
210
0.0
220
0.0
230
1.0
 70
    11
 71
     3
 72
    23
 73
    19
 74
     0
 42
0.0000000001
 43
0.0000000001
 40
0.0
 40
0.0
 40
0.0
 40
0.0
 40
1.0
 40
1.0
 40
1.0
 40
2.0
 40
2.0
 40
2.0
 40
3.0
 40
3.0
 40
3.0
 40
4.0
 40
4.0
 40
4.0
 40
5.0
 40
5.0
 40
5.0
 40
6.0
 40
6.0
 40
6.0
 40
6.0
 10
62.19381707644582
 20
105.8018458480023
 30
0.0
 10
62.19381707644582
 20
105.8018458480023
 30
0.0
 10
76.19536513385843
 20
105.8018458480023
 30
0.0
 10
76.19536513385843
 20
105.8018458480023
 30
0.0
 10
76.19536513385843
 20
105.8018458480023
 30
0.0
 10
76.19536513385843
 20
91.80382627087437
 30
0.0
 10
76.19536513385843
 20
91.80382627087437
 30
0.0
 10
76.19536513385843
 20
91.80382627087437
 30
0.0
 10
62.19381707644582
 20
91.80382627087437
 30
0.0
 10
62.19381707644582
 20
91.80382627087437
 30
0.0
 10
62.19381707644582
 20
91.80382627087437
 30
0.0
 10
62.19381707644582
 20
105.7983187134387
 30
0.0
 10
62.19381707644582
 20
105.7983187134387
 30
0.0
 10
62.19381707644582
 20
105.7983187134387
 30
0.0
 10
62.19381707644582
 20
105.7983187134387
 30
0.0
 10
62.19381707644582
 20
105.7983187134387
 30
0.0
 10
62.19381707644582
 20
105.7983187134387
 30
0.0
 10
62.19381707644582
 20
105.8018458480023
 30
0.0
 10
62.19381707644582
 20
105.8018458480023
 30
0.0
  0
SPLINE
  5
AC
330
70
100
AcDbEntity
  8
PCB holes
 62
     5
420
      255
370
     9
100
AcDbSpline
210
0.0
220
0.0
230
1.0
 70
     9
 71
     3
 72
    17
 73
    13
 74
     0
 42
0.0000000001
 43
0.0000000001
 40
0.0
 40
0.0
 40
0.0
 40
0.0
 40
1.0
 40
1.0
 40
1.0
 40
2.0
 40
2.0
 40
2.0
 40
3.0
 40
3.0
 40
3.0
 40
4.0
 40
4.0
 40
4.0
 40
4.0
 10
74.47383279109835
 20
112.7303015066664
 30
0.0
 10
75.05237975143652
 20
112.7303015066664
 30
0.0
 10
75.52509383477351
 20
112.2611138850327
 30
0.0
 10
75.52509383477351
 20
111.6790391172704
 30
0.0
 10
75.52509383477351
 20
111.0969643495081
 30
0.0
 10
75.05590554027918
 20
110.6277767278744
 30
0.0
 10
74.47383279109835
 20
110.6277767278744
 30
0.0
 10
73.8917600419175
 20
110.6277767278744
 30
0.0
 10
73.42257174742319
 20
111.0969643495081
 30
0.0
 10
73.42257174742319
 20
111.6790391172704
 30
0.0
 10
73.42257174742319
 20
112.2611138850327
 30
0.0
 10
73.8917600419175
 20
112.7303015066664
 30
0.0
 10
74.47383279109835
 20
112.7303015066664
 30
0.0
  0
SPLINE
  5
AD
330
70
100
AcDbEntity
  8
PCB holes
 62
     5
420
      255
370
     9
100
AcDbSpline
210
0.0
220
0.0
230
1.0
 70
    11
 71
     3
 72
    20
 73
    16
 74
     0
 42
0.0000000001
 43
0.0000000001
 40
0.0
 40
0.0
 40
0.0
 40
0.0
 40
1.0
 40
1.0
 40
1.0
 40
2.0
 40
2.0
 40
2.0
 40
3.0
 40
3.0
 40
3.0
 40
4.0
 40
4.0
 40
4.0
 40
5.0
 40
5.0
 40
5.0
 40
5.0
 10
81.21531869344915
 20
114.8010770279326
 30
0.0
 10
81.21531869344915
 20
114.8010770279326
 30
0.0
 10
95.21686136797836
 20
114.8010770279326
 30
0.0
 10
95.21686136797836
 20
114.8010770279326
 30
0.0
 10
95.21686136797836
 20
114.8010770279326
 30
0.0
 10
95.21686136797836
 20
100.7960035181077
 30
0.0
 10
95.21686136797836
 20
100.7960035181077
 30
0.0
 10
95.21686136797836
 20
100.7960035181077
 30
0.0
 10
81.21531331056573
 20
100.7960035181077
 30
0.0
 10
81.21531331056573
 20
100.7960035181077
 30
0.0
 10
81.21531331056573
 20
100.7960035181077
 30
0.0
 10
81.21531331056573
 20
114.7975502297994
 30
0.0
 10
81.21531331056573
 20
114.7975502297994
 30
0.0
 10
81.21531331056573
 20
114.7975502297994
 30
0.0
 10
81.21531869344915
 20
114.8010770279326
 30
0.0
 10
81.21531869344915
 20
114.8010770279326
 30
0.0
  0
SPLINE
  5
AE
330
70
100
AcDbEntity
  8
PCB holes
 62
     5
420
      255
370
     9
100
AcDbSpline
210
0.0
220
0.0
230
1.0
 70
     9
 71
     3
 72
    17
 73
    13
 74
     0
 42
0.0000000001
 43
0.0000000001
 40
0.0
 40
0.0
 40
0.0
 40
0.0
 40
1.0
 40
1.0
 40
1.0
 40
2.0
 40
2.0
 40
2.0
 40
3.0
 40
3.0
 40
3.0
 40
4.0
 40
4.0
 40
4.0
 40
4.0
 10
103.2353879891451
 20
112.7726341864645
 30
0.0
 10
103.813940332367
 20
112.7726341864645
 30
0.0
 10
104.286654415704
 20
112.3034462284005
 30
0.0
 10
104.286654415704
 20
111.7213714606382
 30
0.0
 10
104.286654415704
 20
111.1392966928759
 30
0.0
 10
103.8174715040934
 20
110.6701090712422
 30
0.0
 10
103.2353879891451
 20
110.6701090712422
 30
0.0
 10
102.6533044741968
 20
110.6701090712422
 30
0.0
 10
102.1841215625862
 20
111.1392966928759
 30
0.0
 10
102.1841215625862
 20
111.7213714606382
 30
0.0
 10
102.1841215625862
 20
112.3034462284005
 30
0.0
 10
102.6533044741968
 20
112.7726338500342
 30
0.0
 10
103.2353879891451
 20
112.7726341864645
 30
0.0
  0
SPLINE
  5
AF
330
70
100
AcDbEntity
  8
PCB holes
 62
     5
420
      255
370
     9
100
AcDbSpline
210
0.0
220
0.0
230
1.0
 70
     9
 71
     3
 72
    17
 73
    13
 74
     0
 42
0.0000000001
 43
0.0000000001
 40
0.0
 40
0.0
 40
0.0
 40
0.0
 40
1.0
 40
1.0
 40
1.0
 40
2.0
 40
2.0
 40
2.0
 40
3.0
 40
3.0
 40
3.0
 40
4.0
 40
4.0
 40
4.0
 40
4.0
 10
118.0765367191142
 20
111.7637044768666
 30
0.0
 10
118.6550890623361
 20
111.7637044768666
 30
0.0
 10
119.1278031456731
 20
111.2945168552329
 30
0.0
 10
119.1278031456731
 20
110.7124420874706
 30
0.0
 10
119.1278031456731
 20
110.1303673197083
 30
0.0
 10
118.6586202340625
 20
109.6611796980743
 30
0.0
 10
118.0765367191142
 20
109.6611796980743
 30
0.0
 10
117.494453204166
 20
109.6611796980743
 30
0.0
 10
117.0252702925554
 20
110.1303673197083
 30
0.0
 10
117.0252702925554
 20
110.7124420874706
 30
0.0
 10
117.0252702925554
 20
111.2945168552329
 30
0.0
 10
117.494453204166
 20
111.7637044768666
 30
0.0
 10
118.0765367191142
 20
111.7637044768666
 30
0.0
  0
SPLINE
  5
B0
330
70
100
AcDbEntity
  8
PCB holes
 62
     5
420
      255
370
     9
100
AcDbSpline
210
0.0
220
0.0
230
1.0
 70
    11
 71
     3
 72
    20
 73
    16
 74
     0
 42
0.0000000001
 43
0.0000000001
 40
0.0
 40
0.0
 40
0.0
 40
0.0
 40
1.0
 40
1.0
 40
1.0
 40
2.0
 40
2.0
 40
2.0
 40
3.0
 40
3.0
 40
3.0
 40
4.0
 40
4.0
 40
4.0
 40
5.0
 40
5.0
 40
5.0
 40
5.0
 10
126.1303319944752
 20
90.96069980947515
 30
0.0
 10
126.1303319944752
 20
90.96069980947515
 30
0.0
 10
139.9166938919265
 20
88.53009634170957
 30
0.0
 10
139.9166938919265
 20
88.53009634170957
 30
0.0
 10
139.9166938919265
 20
88.53009634170957
 30
0.0
 10
137.4860850412772
 20
74.74373982714197
 30
0.0
 10
137.4860850412772
 20
74.74373982714197
 30
0.0
 10
137.4860850412772
 20
74.74373982714197
 30
0.0
 10
123.6997231438259
 20
77.17434329490754
 30
0.0
 10
123.6997231438259
 20
77.17434329490754
 30
0.0
 10
123.6997231438259
 20
77.17434329490754
 30
0.0
 10
126.1303319944752
 20
90.96069980947515
 30
0.0
 10
126.1303319944752
 20
90.96069980947515
 30
0.0
 10
126.1303319944752
 20
90.96069980947515
 30
0.0
 10
126.1303319944752
 20
90.96069980947515
 30
0.0
 10
126.1303319944752
 20
90.96069980947515
 30
0.0
  0
SPLINE
  5
B1
330
70
100
AcDbEntity
  8
PCB holes
 62
     5
420
      255
370
     9
100
AcDbSpline
210
0.0
220
0.0
230
1.0
 70
    11
 71
     3
 72
   140
 73
   136
 74
     0
 42
0.0000000001
 43
0.0000000001
 40
0.0
 40
0.0
 40
0.0
 40
0.0
 40
1.0
 40
1.0
 40
1.0
 40
2.0
 40
2.0
 40
2.0
 40
3.0
 40
3.0
 40
3.0
 40
4.0
 40
4.0
 40
4.0
 40
5.0
 40
5.0
 40
5.0
 40
6.0
 40
6.0
 40
6.0
 40
7.0
 40
7.0
 40
7.0
 40
8.0
 40
8.0
 40
8.0
 40
9.0
 40
9.0
 40
9.0
 40
10.0
 40
10.0
 40
10.0
 40
11.0
 40
11.0
 40
11.0
 40
12.0
 40
12.0
 40
12.0
 40
13.0
 40
13.0
 40
13.0
 40
14.0
 40
14.0
 40
14.0
 40
15.0
 40
15.0
 40
15.0
 40
16.0
 40
16.0
 40
16.0
 40
17.0
 40
17.0
 40
17.0
 40
18.0
 40
18.0
 40
18.0
 40
19.0
 40
19.0
 40
19.0
 40
20.0
 40
20.0
 40
20.0
 40
21.0
 40
21.0
 40
21.0
 40
22.0
 40
22.0
 40
22.0
 40
23.0
 40
23.0
 40
23.0
 40
24.0
 40
24.0
 40
24.0
 40
25.0
 40
25.0
 40
25.0
 40
26.0
 40
26.0
 40
26.0
 40
27.0
 40
27.0
 40
27.0
 40
28.0
 40
28.0
 40
28.0
 40
29.0
 40
29.0
 40
29.0
 40
30.0
 40
30.0
 40
30.0
 40
31.0
 40
31.0
 40
31.0
 40
32.0
 40
32.0
 40
32.0
 40
33.0
 40
33.0
 40
33.0
 40
34.0
 40
34.0
 40
34.0
 40
35.0
 40
35.0
 40
35.0
 40
36.0
 40
36.0
 40
36.0
 40
37.0
 40
37.0
 40
37.0
 40
38.0
 40
38.0
 40
38.0
 40
39.0
 40
39.0
 40
39.0
 40
40.0
 40
40.0
 40
40.0
 40
41.0
 40
41.0
 40
41.0
 40
42.0
 40
42.0
 40
42.0
 40
43.0
 40
43.0
 40
43.0
 40
44.0
 40
44.0
 40
44.0
 40
45.0
 40
45.0
 40
45.0
 40
45.0
 10
159.4920457987185
 20
74.35921891082533
 30
0.0
 10
159.4920457987185
 20
74.35921891082533
 30
0.0
 10
141.4865258054283
 20
77.53417292355803
 30
0.0
 10
141.4865258054283
 20
77.53417292355803
 30
0.0
 10
141.4865258054283
 20
77.53417292355803
 30
0.0
 10
143.8112963961927
 20
90.72434276780665
 30
0.0
 10
143.8112963961927
 20
90.72434276780665
 30
0.0
 10
143.8783240643896
 20
91.1053378952806
 30
0.0
 10
143.6243273127403
 20
91.46869331277377
 30
0.0
 10
143.24333756815
 20
91.53572098097063
 30
0.0
 10
143.24333756815
 20
91.53572098097063
 30
0.0
 10
139.4404486368631
 20
92.20598958861385
 30
0.0
 10
139.4404486368631
 20
92.20598958861385
 30
0.0
 10
139.4404486368631
 20
92.20598958861385
 30
0.0
 10
139.4404486368631
 20
113.6228169355726
 30
0.0
 10
139.4404486368631
 20
113.6228169355726
 30
0.0
 10
139.4404486368631
 20
114.0108670050342
 30
0.0
 10
139.1264757947023
 20
114.3213069933175
 30
0.0
 10
138.7419548783856
 20
114.3213069933175
 30
0.0
 10
138.7419548783856
 20
114.3213069933175
 30
0.0
 10
98.73400529938072
 20
114.3213069933175
 30
0.0
 10
98.73400529938072
 20
114.3213069933175
 30
0.0
 10
98.73400529938072
 20
114.3213069933175
 30
0.0
 10
98.73400529938072
 20
117.5703432798044
 30
0.0
 10
98.73400529938072
 20
117.5703432798044
 30
0.0
 10
98.73400529938072
 20
117.9583932231047
 30
0.0
 10
98.42003245721988
 20
118.2688331693343
 30
0.0
 10
98.03551154090325
 20
118.2688331693343
 30
0.0
 10
98.03551154090325
 20
118.2688331693343
 30
0.0
 10
78.41076629301153
 20
118.2688331693343
 30
0.0
 10
78.41076629301153
 20
118.2688331693343
 30
0.0
 10
78.02271420496849
 20
118.2688331693343
 30
0.0
 10
77.71227791741778
 20
117.9548654997881
 30
0.0
 10
77.71227791741778
 20
117.5703432798044
 30
0.0
 10
77.71227791741778
 20
117.5703432798044
 30
0.0
 10
77.71227791741778
 20
114.3213069933175
 30
0.0
 10
77.71227791741778
 20
114.3213069933175
 30
0.0
 10
77.71227791741778
 20
114.3213069933175
 30
0.0
 10
10.50557029769431
 20
114.3213069933175
 30
0.0
 10
10.50557029769431
 20
114.3213069933175
 30
0.0
 10
10.11752022823239
 20
114.3213069933175
 30
0.0
 10
9.807080576379393
 20
114.0073391976101
 30
0.0
 10
9.807080576379393
 20
113.6228172720025
 30
0.0
 10
9.807080576379393
 20
113.6228172720025
 30
0.0
 10
9.807080576379393
 20
43.7949951635672
 30
0.0
 10
9.807080576379393
 20
43.7949951635672
 30
0.0
 10
9.807080576379393
 20
43.7949951635672
 30
0.0
 10
22.77500259007451
 20
43.7949951635672
 30
0.0
 10
22.77500259007451
 20
43.7949951635672
 30
0.0
 10
22.77500259007451
 20
43.7949951635672
 30
0.0
 10
22.77500259007451
 20
34.644071292274
 30
0.0
 10
22.77500259007451
 20
34.644071292274
 30
0.0
 10
22.77500259007451
 20
34.644071292274
 30
0.0
 10
9.807079903519126
 20
34.644071292274
 30
0.0
 10
9.807079903519126
 20
34.644071292274
 30
0.0
 10
9.807079903519126
 20
34.644071292274
 30
0.0
 10
9.807079903519126
 20
24.67119184128879
 30
0.0
 10
9.807079903519126
 20
24.67119184128879
 30
0.0
 10
9.807079903519126
 20
24.67119184128879
 30
0.0
 10
8.498293627909953
 20
23.36240825712164
 30
0.0
 10
8.498293627909953
 20
23.36240825712164
 30
0.0
 10
8.498293627909953
 20
23.36240825712164
 30
0.0
 10
8.328962908717468
 20
23.19307350076628
 30
0.0
 10
8.328962908717468
 20
23.19307350076628
 30
0.0
 10
8.328962908717468
 20
23.19307350076628
 30
0.0
 10
0.2539963311115281
 20
15.11810196081439
 30
0.0
 10
0.2539963311115281
 20
15.11810196081439
 30
0.0
 10
-0.0176386165824436
 20
14.84647088206799
 30
0.0
 10
-0.0176386165824436
 20
14.40197387523983
 30
0.0
 10
0.2539963311115281
 20
14.12681162476703
 30
0.0
 10
0.2539963311115281
 20
14.12681162476703
 30
0.0
 10
14.12854643323727
 20
0.2522673260628043
 30
0.0
 10
14.12854643323727
 20
0.2522673260628043
 30
0.0
 10
14.40018154914654
 20
-0.0193637526835974
 30
0.0
 10
14.84467451881183
 20
-0.0193637526835974
 30
0.0
 10
15.11983811500549
 20
0.2522673260628043
 30
0.0
 10
15.11983811500549
 20
0.2522673260628043
 30
0.0
 10
23.87565697484945
 20
9.008087531627621
 30
0.0
 10
23.87565697484945
 20
9.008087531627621
 30
0.0
 10
27.85493224017708
 20
12.70514896879709
 30
0.0
 10
32.20461988356692
 20
15.99651322505898
 30
0.0
 10
36.61427823458456
 20
18.54706349096387
 30
0.0
 10
42.15280804688597
 20
21.74671417424646
 30
0.0
 10
48.10055544605392
 20
24.23728834963983
 30
0.0
 10
53.75197509592556
 20
25.75068611012397
 30
0.0
 10
59.91138824909585
 20
27.40165961296078
 30
0.0
 10
66.25776510283485
 20
28.26242578434083
 30
0.0
 10
72.13848483380593
 20
28.28359128316431
 30
0.0
 10
72.13848483380593
 20
28.28359128316431
 30
0.0
 10
81.94909187188825
 20
28.28359128316431
 30
0.0
 10
81.94909187188825
 20
28.28359128316431
 30
0.0
 10
82.33714395993194
 20
28.28359128316431
 30
0.0
 10
82.64758024748232
 20
28.59755874244174
 30
0.0
 10
82.64758024748232
 20
28.98207965875774
 30
0.0
 10
82.64758024748232
 20
28.98207965875774
 30
0.0
 10
82.64758024748232
 20
42.03819416661295
 30
0.0
 10
82.64758024748232
 20
42.03819416661295
 30
0.0
 10
82.64758024748232
 20
42.03819416661295
 30
0.0
 10
98.62817780526327
 20
42.03819416661295
 30
0.0
 10
98.62817780526327
 20
42.03819416661295
 30
0.0
 10
98.62817780526327
 20
42.03819416661295
 30
0.0
 10
113.7197921151553
 20
40.97987616236872
 30
0.0
 10
113.7197921151553
 20
40.97987616236872
 30
0.0
 10
113.7197921151553
 20
40.97987616236872
 30
0.0
 10
113.116553867151
 20
37.5509253979867
 30
0.0
 10
113.116553867151
 20
37.5509253979867
 30
0.0
 10
113.0495261989541
 20
37.16993027051305
 30
0.0
 10
113.3035229506035
 20
36.80657485301926
 30
0.0
 10
113.6845126951937
 20
36.73954718482239
 30
0.0
 10
113.6845126951937
 20
36.73954718482239
 30
0.0
 10
132.9529541032776
 20
33.34234466867561
 30
0.0
 10
132.9529541032776
 20
33.34234466867561
 30
0.0
 10
133.3339438478678
 20
33.27531700047874
 30
0.0
 10
133.697299265361
 20
33.52931375212869
 30
0.0
 10
133.7643269335578
 20
33.91030887960235
 30
0.0
 10
133.7643269335578
 20
33.91030887960235
 30
0.0
 10
134.5051516896823
 20
38.11183264834405
 30
0.0
 10
134.5051516896823
 20
38.11183264834405
 30
0.0
 10
134.5051516896823
 20
38.11183264834405
 30
0.0
 10
152.5424199312077
 20
34.92982167504196
 30
0.0
 10
152.5424199312077
 20
34.92982167504196
 30
0.0
 10
152.9234096757979
 20
34.86279400684509
 30
0.0
 10
153.2867650932911
 20
35.11679075849505
 30
0.0
 10
153.3537927614879
 20
35.4977858859687
 30
0.0
 10
153.3537927614879
 20
35.4977858859687
 30
0.0
 10
160.0635250327201
 20
73.54431760026068
 30
0.0
 10
160.0635250327201
 20
73.54431760026068
 30
0.0
 10
160.1305527009169
 20
73.92531272773434
 30
0.0
 10
159.8765559492676
 20
74.28866814522748
 30
0.0
 10
159.4955662046774
 20
74.35569581342436
 30
0.0
 10
159.4955662046774
 20
74.35569581342436
 30
0.0
 10
159.4955662046774
 20
74.35569581342436
 30
0.0
 10
159.4955662046774
 20
74.35569581342436
 30
0.0
 10
159.4955662046774
 20
74.35569581342436
 30
0.0
 10
159.4920457987185
 20
74.35921891082533
 30
0.0
 10
159.4920457987185
 20
74.35921891082533
 30
0.0
  0
ENDSEC
  0
SECTION
  2
OBJECTS
  0
DICTIONARY
  5
C
330
0
100
AcDbDictionary
281
     1
  3
ACAD_COLOR
350
63
  3
ACAD_DETAILVIEWSTYLE
350
6A
  3
ACAD_GROUP
350
D
  3
ACAD_LAYOUT
350
62
  3
ACAD_MATERIAL
350
10
  3
ACAD_MLEADERSTYLE
350
66
  3
ACAD_MLINESTYLE
350
5F
  3
ACAD_PLOTSETTINGS
350
61
  3
ACAD_PLOTSTYLENAME
350
E
  3
ACAD_SCALELIST
350
42
  3
ACAD_SECTIONVIEWSTYLE
350
68
  3
ACAD_TABLESTYLE
350
64
  3
ACAD_VISUALSTYLE
350
29
  3
ACDB_RECOMPOSE_DATA
350
BA
  3
AcDbVariableDictionary
350
B2
  0
DICTIONARY
  5
63
102
{ACAD_REACTORS
330
C
102
}
330
C
100
AcDbDictionary
281
     1
  0
DICTIONARY
  5
6A
102
{ACAD_REACTORS
330
C
102
}
330
C
100
AcDbDictionary
281
     1
  3
Imperial24
350
6B
  0
DICTIONARY
  5
D
102
{ACAD_REACTORS
330
C
102
}
330
C
100
AcDbDictionary
281
     1
  0
DICTIONARY
  5
62
102
{ACAD_REACTORS
330
C
102
}
330
C
100
AcDbDictionary
281
     1
  3
Layout1
350
6F
  3
Layout2
350
77
  3
Model
350
73
  0
DICTIONARY
  5
10
102
{ACAD_REACTORS
330
C
102
}
330
C
100
AcDbDictionary
281
     1
  3
ByBlock
350
19
  3
ByLayer
350
11
  3
Global
350
21
  0
DICTIONARY
  5
66
102
{ACAD_REACTORS
330
C
102
}
330
C
100
AcDbDictionary
281
     1
  3
Standard
350
67
  0
DICTIONARY
  5
5F
102
{ACAD_REACTORS
330
C
102
}
330
C
100
AcDbDictionary
281
     1
  3
Standard
350
60
  0
DICTIONARY
  5
61
102
{ACAD_REACTORS
330
C
102
}
330
C
100
AcDbDictionary
281
     1
  0
ACDBDICTIONARYWDFLT
  5
E
102
{ACAD_REACTORS
330
C
102
}
330
C
100
AcDbDictionary
281
     1
  3
Normal
350
F
100
AcDbDictionaryWithDefault
340
F
  0
DICTIONARY
  5
42
102
{ACAD_REACTORS
330
C
102
}
330
C
100
AcDbDictionary
281
     1
  3
A0
350
43
  3
A1
350
44
  3
A2
350
45
  3
A3
350
46
  3
A4
350
47
  3
A5
350
48
  3
A6
350
49
  3
A7
350
4A
  3
A8
350
4B
  3
A9
350
4C
  3
B0
350
4D
  3
B1
350
4E
  3
B2
350
4F
  3
B3
350
50
  3
B4
350
51
  3
B5
350
52
  3
B6
350
53
  0
DICTIONARY
  5
68
102
{ACAD_REACTORS
330
C
102
}
330
C
100
AcDbDictionary
281
     1
  3
Imperial24
350
69
  0
DICTIONARY
  5
64
102
{ACAD_REACTORS
330
C
102
}
330
C
100
AcDbDictionary
281
     1
  3
Standard
350
65
  0
DICTIONARY
  5
29
102
{ACAD_REACTORS
330
C
102
}
330
C
100
AcDbDictionary
281
     1
  3
2dWireframe
350
2F
  3
Basic
350
2E
  3
Brighten
350
35
  3
ColorChange
350
39
  3
Conceptual
350
32
  3
Dim
350
34
  3
EdgeColorOff
350
41
  3
Facepattern
350
38
  3
Flat
350
2A
  3
FlatWithEdges
350
2B
  3
Gouraud
350
2C
  3
GouraudWithEdges
350
2D
  3
Hidden
350
31
  3
JitterOff
350
3F
  3
Linepattern
350
37
  3
OverhangOff
350
40
  3
Realistic
350
33
  3
Shaded
350
3E
  3
Shaded with edges
350
3D
  3
Shades of Gray
350
3A
  3
Sketchy
350
3B
  3
Thicken
350
36
  3
Wireframe
350
30
  3
X-Ray
350
3C
  0
XRECORD
  5
BA
102
{ACAD_REACTORS
330
C
102
}
330
C
100
AcDbXrecord
280
     1
 90
        1
330
65
  0
DICTIONARY
  5
B2
102
{ACAD_REACTORS
330
C
102
}
330
C
100
AcDbDictionary
281
     1
  3
CANNOSCALE
350
B7
  3
CMLEADERSTYLE
350
B4
  3
CTABLESTYLE
350
B3
  3
CVIEWDETAILSTYLE
350
B5
  3
CVIEWSECTIONSTYLE
350
B6
  0
ACDBDETAILVIEWSTYLE
  5
6B
102
{ACAD_REACTORS
330
6A
102
}
330
6A
100
AcDbModelDocViewStyle
 70
     0
  3
Imperial24
290
     1
300
Imperial24
 90
        0
100
AcDbDetailViewStyle
 70
     0
 71
     0
 90
        3
 71
     1
340
55
 62
   256
 40
0.24
340
0
 62
   256
 40
0.24
300

 40
0.36
280
     3
 71
     2
340
5D
 90
       25
 62
   256
 71
     3
340
55
 62
   256
 40
0.24
 90
        1
 40
0.75
 90
        1
300
%<\AcVar ViewType \f "%tc1">% %<\AcVar ViewDetailId>%\PSCALE %<\AcVar ViewScale \f "%sn">%
 71
     4
340
5D
 90
       25
 62
   256
340
5D
 90
       25
 62
   256
280
     0
  0
LAYOUT
  5
6F
102
{ACAD_REACTORS
330
62
102
}
330
62
100
AcDbPlotSettings
  1

  2

  4

  6

 40
0.0
 41
0.0
 42
0.0
 43
0.0
 44
0.0
 45
0.0
 46
0.0
 47
0.0
 48
0.0
 49
0.0
140
0.0
141
0.0
142
1.0
143
1.0
 70
   688
 72
     0
 73
     0
 74
     5
  7

 75
    16
147
1.0
 76
     0
 77
     2
 78
   300
148
0.0
149
0.0
100
AcDbLayout
  1
Layout1
 70
     1
 71
     1
 10
0.0
 20
0.0
 11
12.0
 21
9.0
 12
0.0
 22
0.0
 32
0.0
 14
0.0
 24
0.0
 34
0.0
 15
0.0
 25
0.0
 35
0.0
146
0.0
 13
0.0
 23
0.0
 33
0.0
 16
1.0
 26
0.0
 36
0.0
 17
0.0
 27
1.0
 37
0.0
 76
     0
330
6C
  0
LAYOUT
  5
77
102
{ACAD_REACTORS
330
62
102
}
330
62
100
AcDbPlotSettings
  1

  2

  4

  6

 40
0.0
 41
0.0
 42
0.0
 43
0.0
 44
0.0
 45
0.0
 46
0.0
 47
0.0
 48
0.0
 49
0.0
140
0.0
141
0.0
142
1.0
143
1.0
 70
   688
 72
     0
 73
     0
 74
     5
  7

 75
    16
147
1.0
 76
     0
 77
     2
 78
   300
148
0.0
149
0.0
100
AcDbLayout
  1
Layout2
 70
     1
 71
     2
 10
0.0
 20
0.0
 11
12.0
 21
9.0
 12
0.0
 22
0.0
 32
0.0
 14
0.0
 24
0.0
 34
0.0
 15
0.0
 25
0.0
 35
0.0
146
0.0
 13
0.0
 23
0.0
 33
0.0
 16
1.0
 26
0.0
 36
0.0
 17
0.0
 27
1.0
 37
0.0
 76
     0
330
74
  0
LAYOUT
  5
73
102
{ACAD_REACTORS
330
62
102
}
330
62
100
AcDbPlotSettings
  1

  2

  4

  6

 40
0.0
 41
0.0
 42
0.0
 43
0.0
 44
0.0
 45
0.0
 46
0.0
 47
0.0
 48
0.0
 49
0.0
140
0.0
141
0.0
142
1.0
143
1.0
 70
  1712
 72
     0
 73
     0
 74
     0
  7

 75
     0
147
1.0
 76
     0
 77
     2
 78
   300
148
0.0
149
0.0
100
AcDbLayout
  1
Model
 70
     1
 71
     0
 10
0.0
 20
0.0
 11
12.0
 21
9.0
 12
0.0
 22
0.0
 32
0.0
 14
0.0
 24
0.0
 34
0.0
 15
0.0
 25
0.0
 35
0.0
146
0.0
 13
0.0
 23
0.0
 33
0.0
 16
1.0
 26
0.0
 36
0.0
 17
0.0
 27
1.0
 37
0.0
 76
     0
330
70
  0
MATERIAL
  5
19
102
{ACAD_XDICTIONARY
360
1A
102
}
102
{ACAD_REACTORS
330
10
102
}
330
10
100
AcDbMaterial
  1
ByBlock
 72
     0
 43
0.0208333333333333
 43
0.0
 43
0.0
 43
0.0
 43
0.0
 43
0.0208333333333333
 43
0.0
 43
0.0
 43
0.0
 43
0.0
 43
1.0
 43
0.0
 43
0.0
 43
0.0
 43
0.0
 43
1.0
 77
     0
 47
0.0208333333333333
 47
0.0
 47
0.0
 47
0.0
 47
0.0
 47
0.0208333333333333
 47
0.0
 47
0.0
 47
0.0
 47
0.0
 47
1.0
 47
0.0
 47
0.0
 47
0.0
 47
0.0
 47
1.0
171
     0
 49
0.0208333333333333
 49
0.0
 49
0.0
 49
0.0
 49
0.0
 49
0.0208333333333333
 49
0.0
 49
0.0
 49
0.0
 49
0.0
 49
1.0
 49
0.0
 49
0.0
 49
0.0
 49
0.0
 49
1.0
175
     0
142
0.0208333333333333
142
0.0
142
0.0
142
0.0
142
0.0
142
0.0208333333333333
142
0.0
142
0.0
142
0.0
142
0.0
142
1.0
142
0.0
142
0.0
142
0.0
142
0.0
142
1.0
179
     0
144
0.0208333333333333
144
0.0
144
0.0
144
0.0
144
0.0
144
0.0208333333333333
144
0.0
144
0.0
144
0.0
144
0.0
144
1.0
144
0.0
144
0.0
144
0.0
144
0.0
144
1.0
147
0.0208333333333333
147
0.0
147
0.0
147
0.0
147
0.0
147
0.0208333333333333
147
0.0
147
0.0
147
0.0
147
0.0
147
1.0
147
0.0
147
0.0
147
0.0
147
0.0
147
1.0
  0
MATERIAL
  5
11
102
{ACAD_XDICTIONARY
360
12
102
}
102
{ACAD_REACTORS
330
10
102
}
330
10
100
AcDbMaterial
  1
ByLayer
 72
     0
 43
0.0208333333333333
 43
0.0
 43
0.0
 43
0.0
 43
0.0
 43
0.0208333333333333
 43
0.0
 43
0.0
 43
0.0
 43
0.0
 43
1.0
 43
0.0
 43
0.0
 43
0.0
 43
0.0
 43
1.0
 77
     0
 47
0.0208333333333333
 47
0.0
 47
0.0
 47
0.0
 47
0.0
 47
0.0208333333333333
 47
0.0
 47
0.0
 47
0.0
 47
0.0
 47
1.0
 47
0.0
 47
0.0
 47
0.0
 47
0.0
 47
1.0
171
     0
 49
0.0208333333333333
 49
0.0
 49
0.0
 49
0.0
 49
0.0
 49
0.0208333333333333
 49
0.0
 49
0.0
 49
0.0
 49
0.0
 49
1.0
 49
0.0
 49
0.0
 49
0.0
 49
0.0
 49
1.0
175
     0
142
0.0208333333333333
142
0.0
142
0.0
142
0.0
142
0.0
142
0.0208333333333333
142
0.0
142
0.0
142
0.0
142
0.0
142
1.0
142
0.0
142
0.0
142
0.0
142
0.0
142
1.0
179
     0
144
0.0208333333333333
144
0.0
144
0.0
144
0.0
144
0.0
144
0.0208333333333333
144
0.0
144
0.0
144
0.0
144
0.0
144
1.0
144
0.0
144
0.0
144
0.0
144
0.0
144
1.0
147
0.0208333333333333
147
0.0
147
0.0
147
0.0
147
0.0
147
0.0208333333333333
147
0.0
147
0.0
147
0.0
147
0.0
147
1.0
147
0.0
147
0.0
147
0.0
147
0.0
147
1.0
  0
MATERIAL
  5
21
102
{ACAD_XDICTIONARY
360
22
102
}
102
{ACAD_REACTORS
330
10
102
}
330
10
100
AcDbMaterial
  1
Global
 72
     0
 43
0.0208333333333333
 43
0.0
 43
0.0
 43
0.0
 43
0.0
 43
0.0208333333333333
 43
0.0
 43
0.0
 43
0.0
 43
0.0
 43
1.0
 43
0.0
 43
0.0
 43
0.0
 43
0.0
 43
1.0
 77
     0
 47
0.0208333333333333
 47
0.0
 47
0.0
 47
0.0
 47
0.0
 47
0.0208333333333333
 47
0.0
 47
0.0
 47
0.0
 47
0.0
 47
1.0
 47
0.0
 47
0.0
 47
0.0
 47
0.0
 47
1.0
171
     0
 49
0.0208333333333333
 49
0.0
 49
0.0
 49
0.0
 49
0.0
 49
0.0208333333333333
 49
0.0
 49
0.0
 49
0.0
 49
0.0
 49
1.0
 49
0.0
 49
0.0
 49
0.0
 49
0.0
 49
1.0
175
     0
142
0.0208333333333333
142
0.0
142
0.0
142
0.0
142
0.0
142
0.0208333333333333
142
0.0
142
0.0
142
0.0
142
0.0
142
1.0
142
0.0
142
0.0
142
0.0
142
0.0
142
1.0
179
     0
144
0.0208333333333333
144
0.0
144
0.0
144
0.0
144
0.0
144
0.0208333333333333
144
0.0
144
0.0
144
0.0
144
0.0
144
1.0
144
0.0
144
0.0
144
0.0
144
0.0
144
1.0
147
0.0208333333333333
147
0.0
147
0.0
147
0.0
147
0.0
147
0.0208333333333333
147
0.0
147
0.0
147
0.0
147
0.0
147
1.0
147
0.0
147
0.0
147
0.0
147
0.0
147
1.0
  0
MLEADERSTYLE
  5
67
102
{ACAD_REACTORS
330
66
102
}
330
66
100
AcDbMLeaderStyle
179
     2
170
     2
171
     1
172
     0
 90
        2
 40
0.0
 41
0.0
173
     1
 91
-1056964608
340
5B
 92
       -2
290
     1
 42
0.09
291
     1
 43
0.36
  3
Standard
 44
0.18
300

342
55
174
     1
178
     6
175
     1
176
     0
 93
-1056964608
 45
0.18
292
     0
297
     0
 46
0.18
 94
-1056964608
 47
1.0
 49
1.0
140
1.0
293
     1
141
0.0
294
     1
177
     0
142
1.0
295
     1
296
     0
143
0.125
271
     0
272
     9
273
     9
298
     1
  0
MLINESTYLE
  5
60
102
{ACAD_REACTORS
330
5F
102
}
330
5F
100
AcDbMlineStyle
  2
STANDARD
 70
     0
  3

 62
   256
 51
90.0
 52
90.0
 71
     2
 49
0.5
 62
   256
  6
BYLAYER
 49
-0.5
 62
   256
  6
BYLAYER
  0
ACDBPLACEHOLDER
  5
F
102
{ACAD_REACTORS
330
E
102
}
330
E
  0
SCALE
  5
43
102
{ACAD_REACTORS
330
42
102
}
330
42
100
AcDbScale
 70
     0
300
1:1
140
1.0
141
1.0
290
     1
  0
SCALE
  5
44
102
{ACAD_REACTORS
330
42
102
}
330
42
100
AcDbScale
 70
     0
300
1/128" = 1'-0"
140
0.0078125
141
12.0
290
     0
  0
SCALE
  5
45
102
{ACAD_REACTORS
330
42
102
}
330
42
100
AcDbScale
 70
     0
300
1/64" = 1'-0"
140
0.015625
141
12.0
290
     0
  0
SCALE
  5
46
102
{ACAD_REACTORS
330
42
102
}
330
42
100
AcDbScale
 70
     0
300
1/32" = 1'-0"
140
0.03125
141
12.0
290
     0
  0
SCALE
  5
47
102
{ACAD_REACTORS
330
42
102
}
330
42
100
AcDbScale
 70
     0
300
1/16" = 1'-0"
140
0.0625
141
12.0
290
     0
  0
SCALE
  5
48
102
{ACAD_REACTORS
330
42
102
}
330
42
100
AcDbScale
 70
     0
300
3/32" = 1'-0"
140
0.09375
141
12.0
290
     0
  0
SCALE
  5
49
102
{ACAD_REACTORS
330
42
102
}
330
42
100
AcDbScale
 70
     0
300
1/8" = 1'-0"
140
0.125
141
12.0
290
     0
  0
SCALE
  5
4A
102
{ACAD_REACTORS
330
42
102
}
330
42
100
AcDbScale
 70
     0
300
3/16" = 1'-0"
140
0.1875
141
12.0
290
     0
  0
SCALE
  5
4B
102
{ACAD_REACTORS
330
42
102
}
330
42
100
AcDbScale
 70
     0
300
1/4" = 1'-0"
140
0.25
141
12.0
290
     0
  0
SCALE
  5
4C
102
{ACAD_REACTORS
330
42
102
}
330
42
100
AcDbScale
 70
     0
300
3/8" = 1'-0"
140
0.375
141
12.0
290
     0
  0
SCALE
  5
4D
102
{ACAD_REACTORS
330
42
102
}
330
42
100
AcDbScale
 70
     0
300
1/2" = 1'-0"
140
0.5
141
12.0
290
     0
  0
SCALE
  5
4E
102
{ACAD_REACTORS
330
42
102
}
330
42
100
AcDbScale
 70
     0
300
3/4" = 1'-0"
140
0.75
141
12.0
290
     0
  0
SCALE
  5
4F
102
{ACAD_REACTORS
330
42
102
}
330
42
100
AcDbScale
 70
     0
300
1" = 1'-0"
140
1.0
141
12.0
290
     0
  0
SCALE
  5
50
102
{ACAD_REACTORS
330
42
102
}
330
42
100
AcDbScale
 70
     0
300
1-1/2" = 1'-0"
140
1.5
141
12.0
290
     0
  0
SCALE
  5
51
102
{ACAD_REACTORS
330
42
102
}
330
42
100
AcDbScale
 70
     0
300
3" = 1'-0"
140
3.0
141
12.0
290
     0
  0
SCALE
  5
52
102
{ACAD_REACTORS
330
42
102
}
330
42
100
AcDbScale
 70
     0
300
6" = 1'-0"
140
6.0
141
12.0
290
     0
  0
SCALE
  5
53
102
{ACAD_REACTORS
330
42
102
}
330
42
100
AcDbScale
 70
     0
300
1'-0" = 1'-0"
140
12.0
141
12.0
290
     0
  0
ACDBSECTIONVIEWSTYLE
  5
69
102
{ACAD_REACTORS
330
68
102
}
330
68
100
AcDbModelDocViewStyle
 70
     0
  3
Imperial24
290
     1
300
Imperial24
 90
        0
100
AcDbSectionViewStyle
 70
     0
 71
     0
 90
       78
 71
     1
340
55
 62
   256
 40
0.24
340
0
340
0
 62
   256
 40
0.24
300
I, O, Q, S, X, Z
 40
0.48
 90
        3
 40
0.18
 90
        1
 71
     2
340
5D
 90
       25
 62
   256
340
5D
 90
       50
 62
   256
 40
0.24
 40
0.0
 40
0.24
 71
     3
340
55
 62
   256
 40
0.24
 90
        1
 40
0.75
 90
        1
300
%<\AcVar ViewType \f "%tc1">% %<\AcVar ViewSectionStartId>%-%<\AcVar ViewSectionEndId>%\PSCALE %<\AcVar ViewScale \f "%sn">%
 71
     4
 62
   256
 62
   257
300
ANSI31
 40
1.0
 90
        0
290
     0
290
     0
 90
        6
 40
0.0
 40
1.570796326794896
 40
0.2617993877991494
 40
1.308996938995747
 40
-0.2617993877991494
 40
1.832595714594046
  0
TABLESTYLE
  5
65
102
{ACAD_XDICTIONARY
360
B8
102
}
102
{ACAD_REACTORS
330
64
102
}
330
64
100
AcDbTableStyle
280
     0
  3
Standard
 70
     0
 71
     0
 40
0.06
 41
0.06
280
     0
281
     0
  7
Standard
140
0.18
170
     2
 62
     0
 63
     7
283
     0
 90
      512
 91
        0
  1

274
    -2
284
     1
 64
     0
275
    -2
285
     1
 65
     0
276
    -2
286
     1
 66
     0
277
    -2
287
     1
 67
     0
278
    -2
288
     1
 68
     0
279
    -2
289
     1
 69
     0
  7
Standard
140
0.25
170
     5
 62
     0
 63
     7
283
     0
 90
      512
 91
        0
  1

274
    -2
284
     1
 64
     0
275
    -2
285
     1
 65
     0
276
    -2
286
     1
 66
     0
277
    -2
287
     1
 67
     0
278
    -2
288
     1
 68
     0
279
    -2
289
     1
 69
     0
  7
Standard
140
0.18
170
     5
 62
     0
 63
     7
283
     0
 90
      512
 91
        0
  1

274
    -2
284
     1
 64
     0
275
    -2
285
     1
 65
     0
276
    -2
286
     1
 66
     0
277
    -2
287
     1
 67
     0
278
    -2
288
     1
 68
     0
279
    -2
289
     1
 69
     0
  0
VISUALSTYLE
  5
2F
102
{ACAD_REACTORS
330
29
102
}
330
29
100
AcDbVisualStyle
  2
2dWireframe
 70
     4
177
     3
291
     0
 70
    58
 90
        0
176
     1
 90
        2
176
     1
 90
        0
176
     1
 90
        0
176
     1
 40
0.6
176
     1
 40
30.0
176
     1
 62
     7
420
 16777215
176
     1
 90
        1
176
     1
 90
        4
176
     1
 62
     7
176
     1
 62
   257
176
     1
 90
        1
176
     1
 90
        1
176
     1
 40
1.0
176
     1
 90
        0
176
     1
 62
   257
176
     1
 40
1.0
176
     1
 90
        1
176
     1
 90
        6
176
     1
 90
        2
176
     1
 62
     7
176
     1
 90
        5
176
     1
 90
        0
176
     1
 90
        0
176
     1
290
     0
176
     1
 90
        1
176
     1
 40
0.0
176
     1
 90
        0
176
     1
290
     1
176
     1
290
     1
176
     1
290
     0
176
     1
290
     0
176
     1
290
     0
176
     1
290
     0
176
     1
290
     0
176
     1
290
     0
176
     1
290
     0
176
     1
 90
       50
176
     1
 40
0.0
176
     1
 40
1.0
176
     1
 90
        0
176
     1
 62
    18
420
        0
176
     1
 90
       50
176
     1
 90
        3
176
     1
 62
     5
420
      255
176
     1
290
     0
176
     1
 90
       50
176
     1
 90
       50
176
     1
 90
       50
176
     1
290
     0
176
     1
 90
       50
176
     1
 62
   256
176
     0
 40
1.0
176
     0
 90
        2
176
     1
  1
strokes_ogs.tif
176
     1
290
     0
176
     1
 40
1.0
176
     1
 40
1.0
176
     1
  0
VISUALSTYLE
  5
2E
102
{ACAD_REACTORS
330
29
102
}
330
29
100
AcDbVisualStyle
  2
Basic
 70
     7
177
     3
291
     1
 70
    58
 90
        1
176
     1
 90
        0
176
     1
 90
        1
176
     1
 90
        0
176
     1
 40
0.6
176
     1
 40
30.0
176
     1
 62
     7
420
 16777215
176
     1
 90
        0
176
     1
 90
        4
176
     1
 62
     7
176
     1
 62
   257
176
     1
 90
        1
176
     1
 90
        1
176
     1
 40
1.0
176
     1
 90
        8
176
     1
 62
     7
176
     1
 40
1.0
176
     1
 90
        1
176
     1
 90
        6
176
     1
 90
        2
176
     1
 62
     7
176
     1
 90
        5
176
     1
 90
        0
176
     1
 90
        0
176
     1
290
     0
176
     1
 90
        1
176
     1
 40
0.0
176
     1
 90
        0
176
     1
290
     0
176
     1
290
     1
176
     1
290
     1
176
     1
290
     0
176
     1
290
     0
176
     1
290
     0
176
     1
290
     0
176
     1
290
     0
176
     1
290
     0
176
     1
 90
       50
176
     1
 40
0.0
176
     1
 40
1.0
176
     1
 90
        0
176
     1
 62
    18
420
        0
176
     1
 90
       50
176
     1
 90
        3
176
     1
 62
     5
420
      255
176
     1
290
     0
176
     1
 90
       50
176
     1
 90
       50
176
     1
 90
       50
176
     1
290
     0
176
     1
 90
       50
176
     1
 62
   256
176
     0
 40
1.0
176
     0
 90
        2
176
     1
  1
strokes_ogs.tif
176
     1
290
     0
176
     1
 40
1.0
176
     1
 40
1.0
176
     1
  0
VISUALSTYLE
  5
35
102
{ACAD_REACTORS
330
29
102
}
330
29
100
AcDbVisualStyle
  2
Brighten
 70
    12
177
     3
291
     1
 70
    58
 90
        2
176
     1
 90
        2
176
     1
 90
        0
176
     1
 90
        0
176
     1
 40
0.6
176
     1
 40
30.0
176
     1
 62
     7
420
 16777215
176
     1
 90
        1
176
     1
 90
        4
176
     1
 62
     7
176
     1
 62
   257
176
     1
 90
        1
176
     1
 90
        1
176
     1
 40
1.0
176
     1
 90
        8
176
     1
 62
     7
176
     1
 40
1.0
176
     1
 90
        1
176
     1
 90
        6
176
     1
 90
        2
176
     1
 62
     7
176
     1
 90
        5
176
     1
 90
        0
176
     1
 90
        0
176
     1
290
     0
176
     1
 90
        1
176
     1
 40
50.0
176
     1
 90
        0
176
     1
290
     0
176
     1
290
     1
176
     1
290
     1
176
     1
290
     0
176
     1
290
     0
176
     1
290
     0
176
     1
290
     0
176
     1
290
     0
176
     1
290
     0
176
     1
 90
       50
176
     1
 40
0.0
176
     1
 40
1.0
176
     1
 90
        0
176
     1
 62
    18
420
        0
176
     1
 90
       50
176
     1
 90
        3
176
     1
 62
     5
420
      255
176
     1
290
     0
176
     1
 90
       50
176
     1
 90
       50
176
     1
 90
       50
176
     1
290
     0
176
     1
 90
       50
176
     1
 62
   256
176
     0
 40
1.0
176
     0
 90
        2
176
     1
  1
strokes_ogs.tif
176
     1
290
     0
176
     1
 40
1.0
176
     1
 40
1.0
176
     1
  0
VISUALSTYLE
  5
39
102
{ACAD_REACTORS
330
29
102
}
330
29
100
AcDbVisualStyle
  2
ColorChange
 70
    16
177
     3
291
     1
 70
    58
 90
        2
176
     1
 90
        2
176
     1
 90
        3
176
     1
 90
        0
176
     1
 40
0.6
176
     1
 40
30.0
176
     1
 62
     8
420
  8421504
176
     1
 90
        1
176
     1
 90
        4
176
     1
 62
     7
176
     1
 62
   257
176
     1
 90
        1
176
     1
 90
        1
176
     1
 40
1.0
176
     1
 90
        8
176
     1
 62
     8
420
  8421504
176
     1
 40
1.0
176
     1
 90
        1
176
     1
 90
        6
176
     1
 90
        2
176
     1
 62
     7
176
     1
 90
        5
176
     1
 90
        0
176
     1
 90
        0
176
     1
290
     0
176
     1
 90
        1
176
     1
 40
0.0
176
     1
 90
        0
176
     1
290
     0
176
     1
290
     1
176
     1
290
     1
176
     1
290
     0
176
     1
290
     0
176
     1
290
     0
176
     1
290
     0
176
     1
290
     0
176
     1
290
     0
176
     1
 90
       50
176
     1
 40
0.0
176
     1
 40
1.0
176
     1
 90
        0
176
     1
 62
    18
420
        0
176
     1
 90
       50
176
     1
 90
        3
176
     1
 62
     5
420
      255
176
     1
290
     0
176
     1
 90
       50
176
     1
 90
       50
176
     1
 90
       50
176
     1
290
     0
176
     1
 90
       50
176
     1
 62
   256
176
     0
 40
1.0
176
     0
 90
        2
176
     1
  1
strokes_ogs.tif
176
     1
290
     0
176
     1
 40
1.0
176
     1
 40
1.0
176
     1
  0
VISUALSTYLE
  5
32
102
{ACAD_REACTORS
330
29
102
}
330
29
100
AcDbVisualStyle
  2
Conceptual
 70
     9
177
     3
291
     0
 70
    58
 90
        3
176
     1
 90
        2
176
     1
 90
        0
176
     1
 90
        0
176
     1
 40
0.6
176
     1
 40
30.0
176
     1
 62
     7
420
 16777215
176
     1
 90
        2
176
     1
 90
        2
176
     1
 62
     7
176
     1
 62
   257
176
     1
 90
        1
176
     1
 90
        1
176
     1
 40
179.0
176
     1
 90
        8
176
     1
 62
     7
176
     1
 40
1.0
176
     1
 90
        1
176
     1
 90
        6
176
     1
 90
        2
176
     1
 62
     7
176
     1
 90
        3
176
     1
 90
        0
176
     1
 90
        0
176
     1
290
     0
176
     1
 90
        1
176
     1
 40
0.0
176
     1
 90
        0
176
     1
290
     0
176
     1
290
     1
176
     1
290
     1
176
     1
290
     0
176
     1
290
     0
176
     1
290
     0
176
     1
290
     0
176
     1
290
     0
176
     1
290
     0
176
     1
 90
       50
176
     1
 40
0.0
176
     1
 40
1.0
176
     1
 90
        0
176
     1
 62
    18
420
        0
176
     1
 90
       50
176
     1
 90
        3
176
     1
 62
     5
420
      255
176
     1
290
     0
176
     1
 90
       50
176
     1
 90
       50
176
     1
 90
       50
176
     1
290
     0
176
     1
 90
       50
176
     1
 62
   256
176
     0
 40
1.0
176
     0
 90
        2
176
     1
  1
strokes_ogs.tif
176
     1
290
     0
176
     1
 40
1.0
176
     1
 40
1.0
176
     1
  0
VISUALSTYLE
  5
34
102
{ACAD_REACTORS
330
29
102
}
330
29
100
AcDbVisualStyle
  2
Dim
 70
    11
177
     3
291
     1
 70
    58
 90
        2
176
     1
 90
        2
176
     1
 90
        0
176
     1
 90
        0
176
     1
 40
0.6
176
     1
 40
30.0
176
     1
 62
     7
420
 16777215
176
     1
 90
        1
176
     1
 90
        4
176
     1
 62
     7
176
     1
 62
   257
176
     1
 90
        1
176
     1
 90
        1
176
     1
 40
1.0
176
     1
 90
        8
176
     1
 62
     7
176
     1
 40
1.0
176
     1
 90
        1
176
     1
 90
        6
176
     1
 90
        2
176
     1
 62
     7
176
     1
 90
        5
176
     1
 90
        0
176
     1
 90
        0
176
     1
290
     0
176
     1
 90
        1
176
     1
 40
-50.0
176
     1
 90
        0
176
     1
290
     0
176
     1
290
     1
176
     1
290
     1
176
     1
290
     0
176
     1
290
     0
176
     1
290
     0
176
     1
290
     0
176
     1
290
     0
176
     1
290
     0
176
     1
 90
       50
176
     1
 40
0.0
176
     1
 40
1.0
176
     1
 90
        0
176
     1
 62
    18
420
        0
176
     1
 90
       50
176
     1
 90
        3
176
     1
 62
     5
420
      255
176
     1
290
     0
176
     1
 90
       50
176
     1
 90
       50
176
     1
 90
       50
176
     1
290
     0
176
     1
 90
       50
176
     1
 62
   256
176
     0
 40
1.0
176
     0
 90
        2
176
     1
  1
strokes_ogs.tif
176
     1
290
     0
176
     1
 40
1.0
176
     1
 40
1.0
176
     1
  0
VISUALSTYLE
  5
41
102
{ACAD_REACTORS
330
29
102
}
330
29
100
AcDbVisualStyle
  2
EdgeColorOff
 70
    22
177
     3
291
     1
 70
    58
 90
        2
176
     0
 90
        2
176
     0
 90
        0
176
     0
 90
        0
176
     0
 40
0.6
176
     0
 40
30.0
176
     0
 62
     7
420
 16777215
176
     0
 90
        1
176
     0
 90
        4
176
     0
 62
     7
176
     0
 62
   257
176
     0
 90
        1
176
     0
 90
        1
176
     0
 40
1.0
176
     0
 90
        8
176
     2
 62
     7
176
     0
 40
1.0
176
     0
 90
        1
176
     0
 90
        6
176
     0
 90
        2
176
     0
 62
     7
176
     0
 90
        5
176
     0
 90
        0
176
     0
 90
        0
176
     0
290
     0
176
     0
 90
        1
176
     0
 40
0.0
176
     0
 90
        0
176
     0
290
     0
176
     0
290
     1
176
     0
290
     1
176
     0
290
     0
176
     0
290
     0
176
     0
290
     0
176
     0
290
     0
176
     0
290
     0
176
     0
290
     0
176
     0
 90
       50
176
     0
 40
0.0
176
     0
 40
1.0
176
     0
 90
        0
176
     0
 62
    18
420
        0
176
     0
 90
       50
176
     0
 90
        3
176
     0
 62
     5
420
      255
176
     0
290
     0
176
     0
 90
       50
176
     0
 90
       50
176
     0
 90
       50
176
     0
290
     0
176
     0
 90
       50
176
     0
 62
   256
176
     0
 40
1.0
176
     0
 90
        2
176
     0
  1
strokes_ogs.tif
176
     0
290
     0
176
     0
 40
1.0
176
     0
 40
1.0
176
     0
  0
VISUALSTYLE
  5
38
102
{ACAD_REACTORS
330
29
102
}
330
29
100
AcDbVisualStyle
  2
Facepattern
 70
    15
177
     3
291
     1
 70
    58
 90
        2
176
     1
 90
        2
176
     1
 90
        0
176
     1
 90
        0
176
     1
 40
0.6
176
     1
 40
30.0
176
     1
 62
     7
420
 16777215
176
     1
 90
        1
176
     1
 90
        4
176
     1
 62
     7
176
     1
 62
   257
176
     1
 90
        1
176
     1
 90
        1
176
     1
 40
1.0
176
     1
 90
        8
176
     1
 62
     7
176
     1
 40
1.0
176
     1
 90
        1
176
     1
 90
        6
176
     1
 90
        2
176
     1
 62
     7
176
     1
 90
        5
176
     1
 90
        0
176
     1
 90
        0
176
     1
290
     0
176
     1
 90
        1
176
     1
 40
0.0
176
     1
 90
        0
176
     1
290
     0
176
     1
290
     1
176
     1
290
     1
176
     1
290
     0
176
     1
290
     0
176
     1
290
     0
176
     1
290
     0
176
     1
290
     0
176
     1
290
     0
176
     1
 90
       50
176
     1
 40
0.0
176
     1
 40
1.0
176
     1
 90
        0
176
     1
 62
    18
420
        0
176
     1
 90
       50
176
     1
 90
        3
176
     1
 62
     5
420
      255
176
     1
290
     0
176
     1
 90
       50
176
     1
 90
       50
176
     1
 90
       50
176
     1
290
     0
176
     1
 90
       50
176
     1
 62
   256
176
     0
 40
1.0
176
     0
 90
        2
176
     1
  1
strokes_ogs.tif
176
     1
290
     0
176
     1
 40
1.0
176
     1
 40
1.0
176
     1
  0
VISUALSTYLE
  5
2A
102
{ACAD_REACTORS
330
29
102
}
330
29
100
AcDbVisualStyle
  2
Flat
 70
     0
177
     3
291
     1
 70
    58
 90
        2
176
     1
 90
        1
176
     1
 90
        1
176
     1
 90
        2
176
     1
 40
0.6
176
     1
 40
30.0
176
     1
 62
     7
420
 16777215
176
     1
 90
        0
176
     1
 90
        0
176
     1
 62
     7
176
     1
 62
   257
176
     1
 90
        1
176
     1
 90
        1
176
     1
 40
1.0
176
     1
 90
        8
176
     1
 62
     7
176
     1
 40
1.0
176
     1
 90
        1
176
     1
 90
        6
176
     1
 90
        2
176
     1
 62
     7
176
     1
 90
        5
176
     1
 90
        0
176
     1
 90
        0
176
     1
290
     0
176
     1
 90
       13
176
     1
 40
0.0
176
     1
 90
        0
176
     1
290
     0
176
     1
290
     1
176
     1
290
     1
176
     1
290
     0
176
     1
290
     0
176
     1
290
     0
176
     1
290
     0
176
     1
290
     0
176
     1
290
     0
176
     1
 90
       50
176
     1
 40
0.0
176
     1
 40
1.0
176
     1
 90
        0
176
     1
 62
    18
420
        0
176
     1
 90
       50
176
     1
 90
        3
176
     1
 62
     5
420
      255
176
     1
290
     0
176
     1
 90
       50
176
     1
 90
       50
176
     1
 90
       50
176
     1
290
     0
176
     1
 90
       50
176
     1
 62
   256
176
     0
 40
1.0
176
     0
 90
        2
176
     1
  1
strokes_ogs.tif
176
     1
290
     0
176
     1
 40
1.0
176
     1
 40
1.0
176
     1
  0
VISUALSTYLE
  5
2B
102
{ACAD_REACTORS
330
29
102
}
330
29
100
AcDbVisualStyle
  2
FlatWithEdges
 70
     1
177
     3
291
     1
 70
    58
 90
        2
176
     1
 90
        1
176
     1
 90
        1
176
     1
 90
        2
176
     1
 40
0.6
176
     1
 40
30.0
176
     1
 62
     7
420
 16777215
176
     1
 90
        1
176
     1
 90
        0
176
     1
 62
     7
176
     1
 62
   257
176
     1
 90
        1
176
     1
 90
        1
176
     1
 40
1.0
176
     1
 90
        0
176
     1
 62
   257
176
     1
 40
1.0
176
     1
 90
        1
176
     1
 90
        6
176
     1
 90
        2
176
     1
 62
     7
176
     1
 90
        5
176
     1
 90
        0
176
     1
 90
        0
176
     1
290
     0
176
     1
 90
       13
176
     1
 40
0.0
176
     1
 90
        0
176
     1
290
     0
176
     1
290
     1
176
     1
290
     1
176
     1
290
     0
176
     1
290
     0
176
     1
290
     0
176
     1
290
     0
176
     1
290
     0
176
     1
290
     0
176
     1
 90
       50
176
     1
 40
0.0
176
     1
 40
1.0
176
     1
 90
        0
176
     1
 62
    18
420
        0
176
     1
 90
       50
176
     1
 90
        3
176
     1
 62
     5
420
      255
176
     1
290
     0
176
     1
 90
       50
176
     1
 90
       50
176
     1
 90
       50
176
     1
290
     0
176
     1
 90
       50
176
     1
 62
   256
176
     0
 40
1.0
176
     0
 90
        2
176
     1
  1
strokes_ogs.tif
176
     1
290
     0
176
     1
 40
1.0
176
     1
 40
1.0
176
     1
  0
VISUALSTYLE
  5
2C
102
{ACAD_REACTORS
330
29
102
}
330
29
100
AcDbVisualStyle
  2
Gouraud
 70
     2
177
     3
291
     1
 70
    58
 90
        2
176
     1
 90
        2
176
     1
 90
        1
176
     1
 90
        2
176
     1
 40
0.6
176
     1
 40
30.0
176
     1
 62
     7
420
 16777215
176
     1
 90
        0
176
     1
 90
        0
176
     1
 62
     7
176
     1
 62
   257
176
     1
 90
        1
176
     1
 90
        1
176
     1
 40
1.0
176
     1
 90
        0
176
     1
 62
     7
176
     1
 40
1.0
176
     1
 90
        1
176
     1
 90
        6
176
     1
 90
        2
176
     1
 62
     7
176
     1
 90
        5
176
     1
 90
        0
176
     1
 90
        0
176
     1
290
     0
176
     1
 90
       13
176
     1
 40
0.0
176
     1
 90
        0
176
     1
290
     0
176
     1
290
     1
176
     1
290
     1
176
     1
290
     0
176
     1
290
     0
176
     1
290
     0
176
     1
290
     0
176
     1
290
     0
176
     1
290
     0
176
     1
 90
       50
176
     1
 40
0.0
176
     1
 40
1.0
176
     1
 90
        0
176
     1
 62
    18
420
        0
176
     1
 90
       50
176
     1
 90
        3
176
     1
 62
     5
420
      255
176
     1
290
     0
176
     1
 90
       50
176
     1
 90
       50
176
     1
 90
       50
176
     1
290
     0
176
     1
 90
       50
176
     1
 62
   256
176
     0
 40
1.0
176
     0
 90
        2
176
     1
  1
strokes_ogs.tif
176
     1
290
     0
176
     1
 40
1.0
176
     1
 40
1.0
176
     1
  0
VISUALSTYLE
  5
2D
102
{ACAD_REACTORS
330
29
102
}
330
29
100
AcDbVisualStyle
  2
GouraudWithEdges
 70
     3
177
     3
291
     1
 70
    58
 90
        2
176
     1
 90
        2
176
     1
 90
        1
176
     1
 90
        2
176
     1
 40
0.6
176
     1
 40
30.0
176
     1
 62
     7
420
 16777215
176
     1
 90
        1
176
     1
 90
        0
176
     1
 62
     7
176
     1
 62
   257
176
     1
 90
        1
176
     1
 90
        1
176
     1
 40
1.0
176
     1
 90
        0
176
     1
 62
   257
176
     1
 40
1.0
176
     1
 90
        1
176
     1
 90
        6
176
     1
 90
        2
176
     1
 62
     7
176
     1
 90
        5
176
     1
 90
        0
176
     1
 90
        0
176
     1
290
     0
176
     1
 90
       13
176
     1
 40
0.0
176
     1
 90
        0
176
     1
290
     0
176
     1
290
     1
176
     1
290
     1
176
     1
290
     0
176
     1
290
     0
176
     1
290
     0
176
     1
290
     0
176
     1
290
     0
176
     1
290
     0
176
     1
 90
       50
176
     1
 40
0.0
176
     1
 40
1.0
176
     1
 90
        0
176
     1
 62
    18
420
        0
176
     1
 90
       50
176
     1
 90
        3
176
     1
 62
     5
420
      255
176
     1
290
     0
176
     1
 90
       50
176
     1
 90
       50
176
     1
 90
       50
176
     1
290
     0
176
     1
 90
       50
176
     1
 62
   256
176
     0
 40
1.0
176
     0
 90
        2
176
     1
  1
strokes_ogs.tif
176
     1
290
     0
176
     1
 40
1.0
176
     1
 40
1.0
176
     1
  0
VISUALSTYLE
  5
31
102
{ACAD_REACTORS
330
29
102
}
330
29
100
AcDbVisualStyle
  2
Hidden
 70
     6
177
     3
291
     0
 70
    58
 90
        1
176
     1
 90
        2
176
     1
 90
        2
176
     1
 90
        0
176
     1
 40
0.6
176
     1
 40
30.0
176
     1
 62
     7
420
 16777215
176
     1
 90
        2
176
     1
 90
        2
176
     1
 62
     7
176
     1
 62
   257
176
     1
 90
        2
176
     1
 90
        1
176
     1
 40
40.0
176
     1
 90
        0
176
     1
 62
   257
176
     1
 40
1.0
176
     1
 90
        1
176
     1
 90
        6
176
     1
 90
        2
176
     1
 62
     7
176
     1
 90
        3
176
     1
 90
        0
176
     1
 90
        0
176
     1
290
     0
176
     1
 90
        1
176
     1
 40
0.0
176
     1
 90
        0
176
     1
290
     0
176
     1
290
     1
176
     1
290
     1
176
     1
290
     0
176
     1
290
     0
176
     1
290
     0
176
     1
290
     0
176
     1
290
     0
176
     1
290
     0
176
     1
 90
       50
176
     1
 40
0.0
176
     1
 40
1.0
176
     1
 90
        0
176
     1
 62
    18
420
        0
176
     1
 90
       50
176
     1
 90
        3
176
     1
 62
     5
420
      255
176
     1
290
     0
176
     1
 90
       50
176
     1
 90
       50
176
     1
 90
       50
176
     1
290
     0
176
     1
 90
       50
176
     1
 62
   256
176
     0
 40
1.0
176
     0
 90
        2
176
     1
  1
strokes_ogs.tif
176
     1
290
     0
176
     1
 40
1.0
176
     1
 40
1.0
176
     1
  0
VISUALSTYLE
  5
3F
102
{ACAD_REACTORS
330
29
102
}
330
29
100
AcDbVisualStyle
  2
JitterOff
 70
    20
177
     3
291
     1
 70
    58
 90
        2
176
     0
 90
        2
176
     0
 90
        0
176
     0
 90
        0
176
     0
 40
0.6
176
     0
 40
30.0
176
     0
 62
     7
420
 16777215
176
     0
 90
        1
176
     0
 90
        4
176
     0
 62
     7
176
     0
 62
   257
176
     0
 90
        1
176
     0
 90
        1
176
     0
 40
1.0
176
     0
 90
       10
176
     2
 62
     7
176
     0
 40
1.0
176
     0
 90
        1
176
     0
 90
        6
176
     0
 90
        2
176
     0
 62
     7
176
     0
 90
        5
176
     0
 90
        0
176
     0
 90
        0
176
     0
290
     0
176
     0
 90
        1
176
     0
 40
0.0
176
     0
 90
        0
176
     0
290
     0
176
     0
290
     1
176
     0
290
     1
176
     0
290
     0
176
     0
290
     0
176
     0
290
     0
176
     0
290
     0
176
     0
290
     0
176
     0
290
     0
176
     0
 90
       50
176
     0
 40
0.0
176
     0
 40
1.0
176
     0
 90
        0
176
     0
 62
    18
420
        0
176
     0
 90
       50
176
     0
 90
        3
176
     0
 62
     5
420
      255
176
     0
290
     0
176
     0
 90
       50
176
     0
 90
       50
176
     0
 90
       50
176
     0
290
     0
176
     0
 90
       50
176
     0
 62
   256
176
     0
 40
1.0
176
     0
 90
        2
176
     0
  1
strokes_ogs.tif
176
     0
290
     0
176
     0
 40
1.0
176
     0
 40
1.0
176
     0
  0
VISUALSTYLE
  5
37
102
{ACAD_REACTORS
330
29
102
}
330
29
100
AcDbVisualStyle
  2
Linepattern
 70
    14
177
     3
291
     1
 70
    58
 90
        2
176
     1
 90
        2
176
     1
 90
        0
176
     1
 90
        0
176
     1
 40
0.6
176
     1
 40
30.0
176
     1
 62
     7
420
 16777215
176
     1
 90
        1
176
     1
 90
        4
176
     1
 62
     7
176
     1
 62
   257
176
     1
 90
        7
176
     1
 90
        7
176
     1
 40
1.0
176
     1
 90
        8
176
     1
 62
     7
176
     1
 40
1.0
176
     1
 90
        1
176
     1
 90
        6
176
     1
 90
        2
176
     1
 62
     7
176
     1
 90
        5
176
     1
 90
        0
176
     1
 90
        0
176
     1
290
     0
176
     1
 90
        1
176
     1
 40
0.0
176
     1
 90
        0
176
     1
290
     0
176
     1
290
     1
176
     1
290
     1
176
     1
290
     0
176
     1
290
     0
176
     1
290
     0
176
     1
290
     0
176
     1
290
     0
176
     1
290
     0
176
     1
 90
       50
176
     1
 40
0.0
176
     1
 40
1.0
176
     1
 90
        0
176
     1
 62
    18
420
        0
176
     1
 90
       50
176
     1
 90
        3
176
     1
 62
     5
420
      255
176
     1
290
     0
176
     1
 90
       50
176
     1
 90
       50
176
     1
 90
       50
176
     1
290
     0
176
     1
 90
       50
176
     1
 62
   256
176
     0
 40
1.0
176
     0
 90
        2
176
     1
  1
strokes_ogs.tif
176
     1
290
     0
176
     1
 40
1.0
176
     1
 40
1.0
176
     1
  0
VISUALSTYLE
  5
40
102
{ACAD_REACTORS
330
29
102
}
330
29
100
AcDbVisualStyle
  2
OverhangOff
 70
    21
177
     3
291
     1
 70
    58
 90
        2
176
     0
 90
        2
176
     0
 90
        0
176
     0
 90
        0
176
     0
 40
0.6
176
     0
 40
30.0
176
     0
 62
     7
420
 16777215
176
     0
 90
        1
176
     0
 90
        4
176
     0
 62
     7
176
     0
 62
   257
176
     0
 90
        1
176
     0
 90
        1
176
     0
 40
1.0
176
     0
 90
        9
176
     2
 62
     7
176
     0
 40
1.0
176
     0
 90
        1
176
     0
 90
        6
176
     0
 90
        2
176
     0
 62
     7
176
     0
 90
        5
176
     0
 90
        0
176
     0
 90
        0
176
     0
290
     0
176
     0
 90
        1
176
     0
 40
0.0
176
     0
 90
        0
176
     0
290
     0
176
     0
290
     1
176
     0
290
     1
176
     0
290
     0
176
     0
290
     0
176
     0
290
     0
176
     0
290
     0
176
     0
290
     0
176
     0
290
     0
176
     0
 90
       50
176
     0
 40
0.0
176
     0
 40
1.0
176
     0
 90
        0
176
     0
 62
    18
420
        0
176
     0
 90
       50
176
     0
 90
        3
176
     0
 62
     5
420
      255
176
     0
290
     0
176
     0
 90
       50
176
     0
 90
       50
176
     0
 90
       50
176
     0
290
     0
176
     0
 90
       50
176
     0
 62
   256
176
     0
 40
1.0
176
     0
 90
        2
176
     0
  1
strokes_ogs.tif
176
     0
290
     0
176
     0
 40
1.0
176
     0
 40
1.0
176
     0
  0
VISUALSTYLE
  5
33
102
{ACAD_REACTORS
330
29
102
}
330
29
100
AcDbVisualStyle
  2
Realistic
 70
     8
177
     3
291
     0
 70
    58
 90
        2
176
     1
 90
        3
176
     1
 90
        0
176
     1
 90
        2
176
     1
 40
0.6
176
     1
 40
30.0
176
     1
 62
     7
420
 16777215
176
     1
 90
        0
176
     1
 90
        0
176
     1
 62
     7
176
     1
 62
   257
176
     1
 90
        1
176
     1
 90
        1
176
     1
 40
1.0
176
     1
 90
        8
176
     1
 62
   257
176
     1
 40
1.0
176
     1
 90
        1
176
     1
 90
        6
176
     1
 90
        2
176
     1
 62
     7
176
     1
 90
        3
176
     1
 90
        0
176
     1
 90
        0
176
     1
290
     0
176
     1
 90
       13
176
     1
 40
0.0
176
     1
 90
        0
176
     1
290
     0
176
     1
290
     1
176
     1
290
     1
176
     1
290
     0
176
     1
290
     0
176
     1
290
     0
176
     1
290
     0
176
     1
290
     0
176
     1
290
     0
176
     1
 90
       50
176
     1
 40
0.0
176
     1
 40
1.0
176
     1
 90
        0
176
     1
 62
    18
420
        0
176
     1
 90
       50
176
     1
 90
        3
176
     1
 62
     5
420
      255
176
     1
290
     0
176
     1
 90
       50
176
     1
 90
       50
176
     1
 90
       50
176
     1
290
     0
176
     1
 90
       50
176
     1
 62
   256
176
     0
 40
1.0
176
     0
 90
        2
176
     1
  1
strokes_ogs.tif
176
     1
290
     0
176
     1
 40
1.0
176
     1
 40
1.0
176
     1
  0
VISUALSTYLE
  5
3E
102
{ACAD_REACTORS
330
29
102
}
330
29
100
AcDbVisualStyle
  2
Shaded
 70
    27
177
     3
291
     0
 70
    58
 90
        2
176
     1
 90
        2
176
     1
 90
        1
176
     1
 90
        2
176
     1
 40
0.6
176
     1
 40
30.0
176
     1
 62
     7
420
 16777215
176
     1
 90
        0
176
     1
 90
        4
176
     1
 62
     7
176
     1
 62
   257
176
     1
 90
        1
176
     1
 90
        1
176
     1
 40
1.0
176
     1
 90
        8
176
     1
 62
   257
176
     1
 40
1.0
176
     1
 90
        1
176
     1
 90
        6
176
     1
 90
        2
176
     1
 62
     8
420
  7895160
176
     1
 90
        3
176
     1
 90
        0
176
     1
 90
        0
176
     1
290
     0
176
     1
 90
        5
176
     1
 40
0.0
176
     1
 90
        0
176
     1
290
     0
176
     1
290
     1
176
     1
290
     1
176
     1
290
     0
176
     1
290
     0
176
     1
290
     0
176
     1
290
     0
176
     1
290
     0
176
     1
290
     0
176
     1
 90
       50
176
     1
 40
0.0
176
     1
 40
1.0
176
     1
 90
        0
176
     1
 62
    18
420
        0
176
     1
 90
       50
176
     1
 90
        3
176
     1
 62
     5
420
      255
176
     1
290
     0
176
     1
 90
       50
176
     1
 90
       50
176
     1
 90
       50
176
     1
290
     0
176
     1
 90
       50
176
     1
 62
   256
176
     0
 40
1.0
176
     0
 90
        2
176
     1
  1
strokes_ogs.tif
176
     1
290
     0
176
     1
 40
1.0
176
     1
 40
1.0
176
     1
  0
VISUALSTYLE
  5
3D
102
{ACAD_REACTORS
330
29
102
}
330
29
100
AcDbVisualStyle
  2
Shaded with edges
 70
    26
177
     3
291
     0
 70
    58
 90
        2
176
     1
 90
        2
176
     1
 90
        1
176
     1
 90
        2
176
     1
 40
0.6
176
     1
 40
30.0
176
     1
 62
     7
420
 16777215
176
     1
 90
        1
176
     1
 90
        2
176
     1
 62
     7
176
     1
 62
   257
176
     1
 90
        2
176
     1
 90
        1
176
     1
 40
1.0
176
     1
 90
        8
176
     1
 62
   257
176
     1
 40
1.0
176
     1
 90
        1
176
     1
 90
        6
176
     1
 90
        2
176
     1
 62
     7
176
     1
 90
        3
176
     1
 90
        0
176
     1
 90
        0
176
     1
290
     0
176
     1
 90
        5
176
     1
 40
0.0
176
     1
 90
        0
176
     1
290
     0
176
     1
290
     1
176
     1
290
     1
176
     1
290
     0
176
     1
290
     0
176
     1
290
     0
176
     1
290
     0
176
     1
290
     0
176
     1
290
     0
176
     1
 90
       50
176
     1
 40
0.0
176
     1
 40
1.0
176
     1
 90
        0
176
     1
 62
    18
420
        0
176
     1
 90
       50
176
     1
 90
        3
176
     1
 62
     5
420
      255
176
     1
290
     0
176
     1
 90
       50
176
     1
 90
       50
176
     1
 90
       50
176
     1
290
     0
176
     1
 90
       50
176
     1
 62
   256
176
     0
 40
1.0
176
     0
 90
        2
176
     1
  1
strokes_ogs.tif
176
     1
290
     0
176
     1
 40
1.0
176
     1
 40
1.0
176
     1
  0
VISUALSTYLE
  5
3A
102
{ACAD_REACTORS
330
29
102
}
330
29
100
AcDbVisualStyle
  2
Shades of Gray
 70
    23
177
     3
291
     0
 70
    58
 90
        2
176
     1
 90
        2
176
     1
 90
        3
176
     1
 90
        0
176
     1
 40
0.6
176
     1
 40
30.0
176
     1
 62
     7
420
 16777215
176
     1
 90
        2
176
     1
 90
        2
176
     1
 62
     7
176
     1
 62
     7
176
     1
 90
        1
176
     1
 90
        1
176
     1
 40
40.0
176
     1
 90
        8
176
     1
 62
     7
176
     1
 40
1.0
176
     1
 90
        1
176
     1
 90
        6
176
     1
 90
        2
176
     1
 62
     7
176
     1
 90
        3
176
     1
 90
        0
176
     1
 90
        0
176
     1
290
     0
176
     1
 90
        1
176
     1
 40
0.0
176
     1
 90
        0
176
     1
290
     0
176
     1
290
     1
176
     1
290
     1
176
     1
290
     0
176
     1
290
     0
176
     1
290
     0
176
     1
290
     0
176
     1
290
     0
176
     1
290
     0
176
     1
 90
       50
176
     1
 40
0.0
176
     1
 40
1.0
176
     1
 90
        0
176
     1
 62
    18
420
        0
176
     1
 90
       50
176
     1
 90
        3
176
     1
 62
     5
420
      255
176
     1
290
     0
176
     1
 90
       50
176
     1
 90
       50
176
     1
 90
       50
176
     1
290
     0
176
     1
 90
       50
176
     1
 62
   256
176
     0
 40
1.0
176
     0
 90
        2
176
     1
  1
strokes_ogs.tif
176
     1
290
     0
176
     1
 40
1.0
176
     1
 40
1.0
176
     1
  0
VISUALSTYLE
  5
3B
102
{ACAD_REACTORS
330
29
102
}
330
29
100
AcDbVisualStyle
  2
Sketchy
 70
    24
177
     3
291
     0
 70
    58
 90
        1
176
     1
 90
        2
176
     1
 90
        2
176
     1
 90
        0
176
     1
 40
0.6
176
     1
 40
30.0
176
     1
 62
     7
420
 16777215
176
     1
 90
        2
176
     1
 90
        2
176
     1
 62
     7
176
     1
 62
     7
176
     1
 90
        1
176
     1
 90
        1
176
     1
 40
40.0
176
     1
 90
       11
176
     1
 62
     7
176
     1
 40
1.0
176
     1
 90
        1
176
     1
 90
        6
176
     1
 90
        2
176
     1
 62
     7
176
     1
 90
        6
176
     1
 90
        0
176
     1
 90
        0
176
     1
290
     0
176
     1
 90
        1
176
     1
 40
0.0
176
     1
 90
        0
176
     1
290
     0
176
     1
290
     1
176
     1
290
     1
176
     1
290
     0
176
     1
290
     0
176
     1
290
     0
176
     1
290
     0
176
     1
290
     0
176
     1
290
     0
176
     1
 90
       50
176
     1
 40
0.0
176
     1
 40
1.0
176
     1
 90
        0
176
     1
 62
    18
420
        0
176
     1
 90
       50
176
     1
 90
        3
176
     1
 62
     5
420
      255
176
     1
290
     0
176
     1
 90
       50
176
     1
 90
       50
176
     1
 90
       50
176
     1
290
     0
176
     1
 90
       50
176
     1
 62
   256
176
     0
 40
1.0
176
     0
 90
        2
176
     1
  1
strokes_ogs.tif
176
     1
290
     0
176
     1
 40
1.0
176
     1
 40
1.0
176
     1
  0
VISUALSTYLE
  5
36
102
{ACAD_REACTORS
330
29
102
}
330
29
100
AcDbVisualStyle
  2
Thicken
 70
    13
177
     3
291
     1
 70
    58
 90
        2
176
     1
 90
        2
176
     1
 90
        0
176
     1
 90
        0
176
     1
 40
0.6
176
     1
 40
30.0
176
     1
 62
     7
420
 16777215
176
     1
 90
        1
176
     1
 90
        4
176
     1
 62
     7
176
     1
 62
   257
176
     1
 90
        1
176
     1
 90
        1
176
     1
 40
1.0
176
     1
 90
       12
176
     1
 62
     7
176
     1
 40
1.0
176
     1
 90
        1
176
     1
 90
        6
176
     1
 90
        2
176
     1
 62
     7
176
     1
 90
        5
176
     1
 90
        0
176
     1
 90
        0
176
     1
290
     0
176
     1
 90
        1
176
     1
 40
0.0
176
     1
 90
        0
176
     1
290
     0
176
     1
290
     1
176
     1
290
     1
176
     1
290
     0
176
     1
290
     0
176
     1
290
     0
176
     1
290
     0
176
     1
290
     0
176
     1
290
     0
176
     1
 90
       50
176
     1
 40
0.0
176
     1
 40
1.0
176
     1
 90
        0
176
     1
 62
    18
420
        0
176
     1
 90
       50
176
     1
 90
        3
176
     1
 62
     5
420
      255
176
     1
290
     0
176
     1
 90
       50
176
     1
 90
       50
176
     1
 90
       50
176
     1
290
     0
176
     1
 90
       50
176
     1
 62
   256
176
     0
 40
1.0
176
     0
 90
        2
176
     1
  1
strokes_ogs.tif
176
     1
290
     0
176
     1
 40
1.0
176
     1
 40
1.0
176
     1
  0
VISUALSTYLE
  5
30
102
{ACAD_REACTORS
330
29
102
}
330
29
100
AcDbVisualStyle
  2
Wireframe
 70
     5
177
     3
291
     0
 70
    58
 90
        0
176
     1
 90
        2
176
     1
 90
        0
176
     1
 90
        0
176
     1
 40
0.6
176
     1
 40
30.0
176
     1
 62
     7
420
 16777215
176
     1
 90
        1
176
     1
 90
        4
176
     1
 62
     7
176
     1
 62
   257
176
     1
 90
        1
176
     1
 90
        1
176
     1
 40
1.0
176
     1
 90
        0
176
     1
 62
   257
176
     1
 40
1.0
176
     1
 90
        1
176
     1
 90
        6
176
     1
 90
        2
176
     1
 62
     7
176
     1
 90
        3
176
     1
 90
        0
176
     1
 90
        0
176
     1
290
     0
176
     1
 90
        1
176
     1
 40
0.0
176
     1
 90
        0
176
     1
290
     0
176
     1
290
     1
176
     1
290
     1
176
     1
290
     0
176
     1
290
     0
176
     1
290
     0
176
     1
290
     0
176
     1
290
     0
176
     1
290
     0
176
     1
 90
       50
176
     1
 40
0.0
176
     1
 40
1.0
176
     1
 90
        0
176
     1
 62
    18
420
        0
176
     1
 90
       50
176
     1
 90
        3
176
     1
 62
     5
420
      255
176
     1
290
     0
176
     1
 90
       50
176
     1
 90
       50
176
     1
 90
       50
176
     1
290
     0
176
     1
 90
       50
176
     1
 62
   256
176
     0
 40
1.0
176
     0
 90
        2
176
     1
  1
strokes_ogs.tif
176
     1
290
     0
176
     1
 40
1.0
176
     1
 40
1.0
176
     1
  0
VISUALSTYLE
  5
3C
102
{ACAD_REACTORS
330
29
102
}
330
29
100
AcDbVisualStyle
  2
X-Ray
 70
    25
177
     3
291
     0
 70
    58
 90
        2
176
     1
 90
        2
176
     1
 90
        1
176
     1
 90
        1
176
     1
 40
0.5
176
     1
 40
30.0
176
     1
 62
     7
420
 16777215
176
     1
 90
        1
176
     1
 90
        0
176
     1
 62
     7
176
     1
 62
   257
176
     1
 90
        1
176
     1
 90
        1
176
     1
 40
1.0
176
     1
 90
        8
176
     1
 62
     7
176
     1
 40
1.0
176
     1
 90
        1
176
     1
 90
        6
176
     1
 90
        2
176
     1
 62
     7
176
     1
 90
        3
176
     1
 90
        0
176
     1
 90
        0
176
     1
290
     0
176
     1
 90
       13
176
     1
 40
0.0
176
     1
 90
        0
176
     1
290
     0
176
     1
290
     1
176
     1
290
     1
176
     1
290
     0
176
     1
290
     0
176
     1
290
     0
176
     1
290
     0
176
     1
290
     0
176
     1
290
     0
176
     1
 90
       50
176
     1
 40
0.0
176
     1
 40
1.0
176
     1
 90
        0
176
     1
 62
    18
420
        0
176
     1
 90
       50
176
     1
 90
        3
176
     1
 62
     5
420
      255
176
     1
290
     0
176
     1
 90
       50
176
     1
 90
       50
176
     1
 90
       50
176
     1
290
     0
176
     1
 90
       50
176
     1
 62
   256
176
     0
 40
1.0
176
     0
 90
        2
176
     1
  1
strokes_ogs.tif
176
     1
290
     0
176
     1
 40
1.0
176
     1
 40
1.0
176
     1
  0
DICTIONARYVAR
  5
B7
102
{ACAD_REACTORS
330
B2
102
}
330
B2
100
DictionaryVariables
280
     0
  1
1:1
  0
DICTIONARYVAR
  5
B4
102
{ACAD_REACTORS
330
B2
102
}
330
B2
100
DictionaryVariables
280
     0
  1
STANDARD
  0
DICTIONARYVAR
  5
B3
102
{ACAD_REACTORS
330
B2
102
}
330
B2
100
DictionaryVariables
280
     0
  1
STANDARD
  0
DICTIONARYVAR
  5
B5
102
{ACAD_REACTORS
330
B2
102
}
330
B2
100
DictionaryVariables
280
     0
  1
Imperial24
  0
DICTIONARYVAR
  5
B6
102
{ACAD_REACTORS
330
B2
102
}
330
B2
100
DictionaryVariables
280
     0
  1
Imperial24
  0
DICTIONARY
  5
1A
330
19
100
AcDbDictionary
280
     1
281
     1
  3
BUMPTILE
360
1C
  3
DIFFUSETILE
360
1B
  3
OPACITYTILE
360
1F
  3
REFLECTIONTILE
360
1E
  3
REFRACTIONTILE
360
20
  3
SPECULARTILE
360
1D
  0
DICTIONARY
  5
12
330
11
100
AcDbDictionary
280
     1
281
     1
  3
BUMPTILE
360
14
  3
DIFFUSETILE
360
13
  3
OPACITYTILE
360
17
  3
REFLECTIONTILE
360
16
  3
REFRACTIONTILE
360
18
  3
SPECULARTILE
360
15
  0
DICTIONARY
  5
22
330
21
100
AcDbDictionary
280
     1
281
     1
  3
BUMPTILE
360
24
  3
DIFFUSETILE
360
23
  3
OPACITYTILE
360
27
  3
REFLECTIONTILE
360
26
  3
REFRACTIONTILE
360
28
  3
SPECULARTILE
360
25
  0
DICTIONARY
  5
B8
330
65
100
AcDbDictionary
280
     1
281
     1
  3
ACAD_ROUNDTRIP_2008_TABLESTYLE_CELLSTYLEMAP
360
B9
  0
XRECORD
  5
1C
102
{ACAD_REACTORS
330
1A
102
}
330
1A
100
AcDbXrecord
280
     1
270
     1
271
     1
  0
XRECORD
  5
1B
102
{ACAD_REACTORS
330
1A
102
}
330
1A
100
AcDbXrecord
280
     1
270
     1
271
     1
  0
XRECORD
  5
1F
102
{ACAD_REACTORS
330
1A
102
}
330
1A
100
AcDbXrecord
280
     1
270
     1
271
     1
  0
XRECORD
  5
1E
102
{ACAD_REACTORS
330
1A
102
}
330
1A
100
AcDbXrecord
280
     1
270
     1
271
     1
  0
XRECORD
  5
20
102
{ACAD_REACTORS
330
1A
102
}
330
1A
100
AcDbXrecord
280
     1
270
     1
271
     1
  0
XRECORD
  5
1D
102
{ACAD_REACTORS
330
1A
102
}
330
1A
100
AcDbXrecord
280
     1
270
     1
271
     1
  0
XRECORD
  5
14
102
{ACAD_REACTORS
330
12
102
}
330
12
100
AcDbXrecord
280
     1
270
     1
271
     1
  0
XRECORD
  5
13
102
{ACAD_REACTORS
330
12
102
}
330
12
100
AcDbXrecord
280
     1
270
     1
271
     1
  0
XRECORD
  5
17
102
{ACAD_REACTORS
330
12
102
}
330
12
100
AcDbXrecord
280
     1
270
     1
271
     1
  0
XRECORD
  5
16
102
{ACAD_REACTORS
330
12
102
}
330
12
100
AcDbXrecord
280
     1
270
     1
271
     1
  0
XRECORD
  5
18
102
{ACAD_REACTORS
330
12
102
}
330
12
100
AcDbXrecord
280
     1
270
     1
271
     1
  0
XRECORD
  5
15
102
{ACAD_REACTORS
330
12
102
}
330
12
100
AcDbXrecord
280
     1
270
     1
271
     1
  0
XRECORD
  5
24
102
{ACAD_REACTORS
330
22
102
}
330
22
100
AcDbXrecord
280
     1
270
     1
271
     1
  0
XRECORD
  5
23
102
{ACAD_REACTORS
330
22
102
}
330
22
100
AcDbXrecord
280
     1
270
     1
271
     1
  0
XRECORD
  5
27
102
{ACAD_REACTORS
330
22
102
}
330
22
100
AcDbXrecord
280
     1
270
     1
271
     1
  0
XRECORD
  5
26
102
{ACAD_REACTORS
330
22
102
}
330
22
100
AcDbXrecord
280
     1
270
     1
271
     1
  0
XRECORD
  5
28
102
{ACAD_REACTORS
330
22
102
}
330
22
100
AcDbXrecord
280
     1
270
     1
271
     1
  0
XRECORD
  5
25
102
{ACAD_REACTORS
330
22
102
}
330
22
100
AcDbXrecord
280
     1
270
     1
271
     1
  0
CELLSTYLEMAP
  5
B9
102
{ACAD_REACTORS
330
B8
102
}
330
B8
100
AcDbCellStyleMap
 90
        3
300
CELLSTYLE
  1
TABLEFORMAT_BEGIN
 90
        5
170
     1
 91
        0
 92
    32768
 62
   257
 93
        1
300
CONTENTFORMAT
  1
CONTENTFORMAT_BEGIN
 90
        0
 91
        0
 92
      512
 93
        0
300

 40
0.0
140
1.0
 94
        5
 62
     0
340
55
144
0.25
309
CONTENTFORMAT_END
171
     0
 94
        0
309
TABLEFORMAT_END
  1
CELLSTYLE_BEGIN
 90
        1
 91
        1
300
_TITLE
309
CELLSTYLE_END
300
CELLSTYLE
  1
TABLEFORMAT_BEGIN
 90
        5
170
     1
 91
        0
 92
        0
 62
   257
 93
        1
300
CONTENTFORMAT
  1
CONTENTFORMAT_BEGIN
 90
        0
 91
        0
 92
      512
 93
        0
300

 40
0.0
140
1.0
 94
        5
 62
     0
340
55
144
0.18
309
CONTENTFORMAT_END
171
     0
 94
        0
309
TABLEFORMAT_END
  1
CELLSTYLE_BEGIN
 90
        2
 91
        1
300
_HEADER
309
CELLSTYLE_END
300
CELLSTYLE
  1
TABLEFORMAT_BEGIN
 90
        5
170
     1
 91
        0
 92
        0
 62
   257
 93
        1
300
CONTENTFORMAT
  1
CONTENTFORMAT_BEGIN
 90
        0
 91
        0
 92
      512
 93
        0
300

 40
0.0
140
1.0
 94
        2
 62
     0
340
55
144
0.18
309
CONTENTFORMAT_END
171
     0
 94
        0
309
TABLEFORMAT_END
  1
CELLSTYLE_BEGIN
 90
        3
 91
        2
300
_DATA
309
CELLSTYLE_END
  0
ENDSEC
  0
EOF
