  0
SECTION
  2
HEADER
  9
$ACADVER
  1
AC1032
  9
$ACADMAINTVER
 90
      228
  9
$DWGCODEPAGE
  3
ANSI_1252
  9
$REQUIREDVERSIONS
160
                 0
  9
$INSBASE
 10
0.0
 20
0.0
 30
0.0
  9
$EXTMIN
 10
1.000000000000000E+20
 20
1.000000000000000E+20
 30
1.000000000000000E+20
  9
$EXTMAX
 10
-1.000000000000000E+20
 20
-1.000000000000000E+20
 30
-1.000000000000000E+20
  9
$LIMMIN
 10
0.0
 20
0.0
  9
$LIMMAX
 10
12.0
 20
9.0
  9
$ORTHOMODE
 70
     0
  9
$REGENMODE
 70
     1
  9
$FILLMODE
 70
     1
  9
$QTEXTMODE
 70
     0
  9
$MIRRTEXT
 70
     0
  9
$LTSCALE
 40
1.0
  9
$ATTMODE
 70
     1
  9
$TEXTSIZE
 40
0.2
  9
$TRACEWID
 40
0.05
  9
$TEXTSTYLE
  7
Standard
  9
$CLAYER
  8
0
  9
$CELTYPE
  6
ByLayer
  9
$CECOLOR
 62
   256
  9
$CELTSCALE
 40
1.0
  9
$DISPSILH
 70
     0
  9
$DIMSCALE
 40
1.0
  9
$DIMASZ
 40
0.18
  9
$DIMEXO
 40
0.0625
  9
$DIMDLI
 40
0.38
  9
$DIMRND
 40
0.0
  9
$DIMDLE
 40
0.0
  9
$DIMEXE
 40
0.18
  9
$DIMTP
 40
0.0
  9
$DIMTM
 40
0.0
  9
$DIMTXT
 40
0.18
  9
$DIMCEN
 40
0.09
  9
$DIMTSZ
 40
0.0
  9
$DIMTOL
 70
     0
  9
$DIMLIM
 70
     0
  9
$DIMTIH
 70
     1
  9
$DIMTOH
 70
     1
  9
$DIMSE1
 70
     0
  9
$DIMSE2
 70
     0
  9
$DIMTAD
 70
     0
  9
$DIMZIN
 70
     0
  9
$DIMBLK
  1

  9
$DIMASO
 70
     1
  9
$DIMSHO
 70
     1
  9
$DIMPOST
  1

  9
$DIMAPOST
  1

  9
$DIMALT
 70
     0
  9
$DIMALTD
 70
     2
  9
$DIMALTF
 40
25.4
  9
$DIMLFAC
 40
1.0
  9
$DIMTOFL
 70
     0
  9
$DIMTVP
 40
0.0
  9
$DIMTIX
 70
     0
  9
$DIMSOXD
 70
     0
  9
$DIMSAH
 70
     0
  9
$DIMBLK1
  1

  9
$DIMBLK2
  1

  9
$DIMSTYLE
  2
Standard
  9
$DIMCLRD
 70
     0
  9
$DIMCLRE
 70
     0
  9
$DIMCLRT
 70
     0
  9
$DIMTFAC
 40
1.0
  9
$DIMGAP
 40
0.09
  9
$DIMJUST
 70
     0
  9
$DIMSD1
 70
     0
  9
$DIMSD2
 70
     0
  9
$DIMTOLJ
 70
     1
  9
$DIMTZIN
 70
     0
  9
$DIMALTZ
 70
     0
  9
$DIMALTTZ
 70
     0
  9
$DIMUPT
 70
     0
  9
$DIMDEC
 70
     4
  9
$DIMTDEC
 70
     4
  9
$DIMALTU
 70
     2
  9
$DIMALTTD
 70
     2
  9
$DIMTXSTY
  7
Standard
  9
$DIMAUNIT
 70
     0
  9
$DIMADEC
 70
     0
  9
$DIMALTRND
 40
0.0
  9
$DIMAZIN
 70
     0
  9
$DIMDSEP
 70
    46
  9
$DIMATFIT
 70
     3
  9
$DIMFRAC
 70
     0
  9
$DIMLDRBLK
  1

  9
$DIMLUNIT
 70
     2
  9
$DIMLWD
 70
    -2
  9
$DIMLWE
 70
    -2
  9
$DIMTMOVE
 70
     0
  9
$DIMFXL
 40
1.0
  9
$DIMFXLON
 70
     0
  9
$DIMJOGANG
 40
0.7853981633974483
  9
$DIMTFILL
 70
     0
  9
$DIMTFILLCLR
 70
     0
  9
$DIMARCSYM
 70
     0
  9
$DIMLTYPE
  6

  9
$DIMLTEX1
  6

  9
$DIMLTEX2
  6

  9
$DIMTXTDIRECTION
 70
     0
  9
$LUNITS
 70
     2
  9
$LUPREC
 70
     4
  9
$SKETCHINC
 40
0.1
  9
$FILLETRAD
 40
0.0
  9
$AUNITS
 70
     0
  9
$AUPREC
 70
     0
  9
$MENU
  1
.
  9
$ELEVATION
 40
0.0
  9
$PELEVATION
 40
0.0
  9
$THICKNESS
 40
0.0
  9
$LIMCHECK
 70
     0
  9
$CHAMFERA
 40
0.0
  9
$CHAMFERB
 40
0.0
  9
$CHAMFERC
 40
0.0
  9
$CHAMFERD
 40
0.0
  9
$SKPOLY
 70
     0
  9
$TDCREATE
 40
2459759.046898148
  9
$TDUCREATE
 40
2459758.963564815
  9
$TDUPDATE
 40
2459759.046898148
  9
$TDUUPDATE
 40
2459758.963564815
  9
$TDINDWG
 40
0.0000000000
  9
$TDUSRTIMER
 40
0.0000000000
  9
$USRTIMER
 70
     1
  9
$ANGBASE
 50
0.0
  9
$ANGDIR
 70
     0
  9
$PDMODE
 70
     0
  9
$PDSIZE
 40
0.0
  9
$PLINEWID
 40
0.0
  9
$SPLFRAME
 70
     0
  9
$SPLINETYPE
 70
     6
  9
$SPLINESEGS
 70
     8
  9
$HANDSEED
  5
BA
  9
$SURFTAB1
 70
     6
  9
$SURFTAB2
 70
     6
  9
$SURFTYPE
 70
     6
  9
$SURFU
 70
     6
  9
$SURFV
 70
     6
  9
$UCSBASE
  2

  9
$UCSNAME
  2

  9
$UCSORG
 10
0.0
 20
0.0
 30
0.0
  9
$UCSXDIR
 10
1.0
 20
0.0
 30
0.0
  9
$UCSYDIR
 10
0.0
 20
1.0
 30
0.0
  9
$UCSORTHOREF
  2

  9
$UCSORTHOVIEW
 70
     0
  9
$UCSORGTOP
 10
0.0
 20
0.0
 30
0.0
  9
$UCSORGBOTTOM
 10
0.0
 20
0.0
 30
0.0
  9
$UCSORGLEFT
 10
0.0
 20
0.0
 30
0.0
  9
$UCSORGRIGHT
 10
0.0
 20
0.0
 30
0.0
  9
$UCSORGFRONT
 10
0.0
 20
0.0
 30
0.0
  9
$UCSORGBACK
 10
0.0
 20
0.0
 30
0.0
  9
$PUCSBASE
  2

  9
$PUCSNAME
  2

  9
$PUCSORG
 10
0.0
 20
0.0
 30
0.0
  9
$PUCSXDIR
 10
1.0
 20
0.0
 30
0.0
  9
$PUCSYDIR
 10
0.0
 20
1.0
 30
0.0
  9
$PUCSORTHOREF
  2

  9
$PUCSORTHOVIEW
 70
     0
  9
$PUCSORGTOP
 10
0.0
 20
0.0
 30
0.0
  9
$PUCSORGBOTTOM
 10
0.0
 20
0.0
 30
0.0
  9
$PUCSORGLEFT
 10
0.0
 20
0.0
 30
0.0
  9
$PUCSORGRIGHT
 10
0.0
 20
0.0
 30
0.0
  9
$PUCSORGFRONT
 10
0.0
 20
0.0
 30
0.0
  9
$PUCSORGBACK
 10
0.0
 20
0.0
 30
0.0
  9
$USERI1
 70
     0
  9
$USERI2
 70
     0
  9
$USERI3
 70
     0
  9
$USERI4
 70
     0
  9
$USERI5
 70
     0
  9
$USERR1
 40
0.0
  9
$USERR2
 40
0.0
  9
$USERR3
 40
0.0
  9
$USERR4
 40
0.0
  9
$USERR5
 40
0.0
  9
$WORLDVIEW
 70
     1
  9
$SHADEDGE
 70
     3
  9
$SHADEDIF
 70
    70
  9
$TILEMODE
 70
     1
  9
$MAXACTVP
 70
    64
  9
$PINSBASE
 10
0.0
 20
0.0
 30
0.0
  9
$PLIMCHECK
 70
     0
  9
$PEXTMIN
 10
1.000000000000000E+20
 20
1.000000000000000E+20
 30
1.000000000000000E+20
  9
$PEXTMAX
 10
-1.000000000000000E+20
 20
-1.000000000000000E+20
 30
-1.000000000000000E+20
  9
$PLIMMIN
 10
0.0
 20
0.0
  9
$PLIMMAX
 10
12.0
 20
9.0
  9
$UNITMODE
 70
     0
  9
$VISRETAIN
 70
     1
  9
$PLINEGEN
 70
     0
  9
$PSLTSCALE
 70
     1
  9
$TREEDEPTH
 70
  3020
  9
$CMLSTYLE
  2
Standard
  9
$CMLJUST
 70
     0
  9
$CMLSCALE
 40
1.0
  9
$PROXYGRAPHICS
 70
     1
  9
$MEASUREMENT
 70
     0
  9
$CELWEIGHT
370
    -1
  9
$ENDCAPS
280
     0
  9
$JOINSTYLE
280
     0
  9
$LWDISPLAY
290
     1
  9
$INSUNITS
 70
     4
  9
$HYPERLINKBASE
  1

  9
$STYLESHEET
  1

  9
$XEDIT
290
     1
  9
$CEPSNTYPE
380
     0
  9
$PSTYLEMODE
290
     1
  9
$FINGERPRINTGUID
  2
{BD49EC3E-AF3E-4249-9161-D37AC0EF3784}
  9
$VERSIONGUID
  2
{F144E68A-0518-9B49-9550-9711632AD54E}
  9
$EXTNAMES
290
     1
  9
$PSVPSCALE
 40
0.0
  9
$OLESTARTUP
290
     0
  9
$SORTENTS
280
   127
  9
$INDEXCTL
280
     0
  9
$HIDETEXT
280
     1
  9
$XCLIPFRAME
280
     2
  9
$HALOGAP
280
     0
  9
$OBSCOLOR
 70
   257
  9
$OBSLTYPE
280
     0
  9
$INTERSECTIONDISPLAY
280
     0
  9
$INTERSECTIONCOLOR
 70
   257
  9
$DIMASSOC
280
     2
  9
$PROJECTNAME
  1

  9
$CAMERADISPLAY
290
     0
  9
$LENSLENGTH
 40
50.0
  9
$CAMERAHEIGHT
 40
0.0
  9
$STEPSPERSEC
 40
2.0
  9
$STEPSIZE
 40
6.0
  9
$3DDWFPREC
 40
2.0
  9
$PSOLWIDTH
 40
0.25
  9
$PSOLHEIGHT
 40
4.0
  9
$LOFTANG1
 40
1.570796326794896
  9
$LOFTANG2
 40
1.570796326794896
  9
$LOFTMAG1
 40
0.0
  9
$LOFTMAG2
 40
0.0
  9
$LOFTPARAM
 70
     7
  9
$LOFTNORMALS
280
     1
  9
$LATITUDE
 40
37.795
  9
$LONGITUDE
 40
-122.394
  9
$NORTHDIRECTION
 40
0.0
  9
$TIMEZONE
 70
 -8000
  9
$LIGHTGLYPHDISPLAY
280
     1
  9
$TILEMODELIGHTSYNCH
280
     1
  9
$CMATERIAL
347
11
  9
$SOLIDHIST
280
     0
  9
$SHOWHIST
280
     1
  9
$DWFFRAME
280
     2
  9
$DGNFRAME
280
     0
  9
$REALWORLDSCALE
290
     1
  9
$INTERFERECOLOR
 62
     1
  9
$INTERFEREOBJVS
345
33
  9
$INTERFEREVPVS
346
30
  9
$CSHADOW
280
     0
  9
$SHADOWPLANELOCATION
 40
0.0
  0
ENDSEC
  0
SECTION
  2
CLASSES
  0
CLASS
  1
ACDBDICTIONARYWDFLT
  2
AcDbDictionaryWithDefault
  3
ObjectDBX Classes
 90
        0
 91
        1
280
     0
281
     0
  0
CLASS
  1
MATERIAL
  2
AcDbMaterial
  3
ObjectDBX Classes
 90
     1153
 91
        3
280
     0
281
     0
  0
CLASS
  1
VISUALSTYLE
  2
AcDbVisualStyle
  3
ObjectDBX Classes
 90
     4095
 91
       24
280
     0
281
     0
  0
CLASS
  1
SCALE
  2
AcDbScale
  3
ObjectDBX Classes
 90
     1153
 91
       17
280
     0
281
     0
  0
CLASS
  1
TABLESTYLE
  2
AcDbTableStyle
  3
ObjectDBX Classes
 90
     4095
 91
        1
280
     0
281
     0
  0
CLASS
  1
MLEADERSTYLE
  2
AcDbMLeaderStyle
  3
ACDB_MLEADERSTYLE_CLASS
 90
     4095
 91
        1
280
     0
281
     0
  0
CLASS
  1
ACDBSECTIONVIEWSTYLE
  2
AcDbSectionViewStyle
  3
ObjectDBX Classes
 90
     1025
 91
        1
280
     0
281
     0
  0
CLASS
  1
ACDBDETAILVIEWSTYLE
  2
AcDbDetailViewStyle
  3
ObjectDBX Classes
 90
     1025
 91
        1
280
     0
281
     0
  0
CLASS
  1
DICTIONARYVAR
  2
AcDbDictionaryVar
  3
ObjectDBX Classes
 90
        0
 91
        5
280
     0
281
     0
  0
CLASS
  1
CELLSTYLEMAP
  2
AcDbCellStyleMap
  3
ObjectDBX Classes
 90
     1152
 91
        1
280
     0
281
     0
  0
ENDSEC
  0
SECTION
  2
TABLES
  0
TABLE
  2
VPORT
  5
8
330
0
100
AcDbSymbolTable
 70
     1
  0
VPORT
  5
57
330
8
100
AcDbSymbolTableRecord
100
AcDbViewportTableRecord
  2
*Active
 70
     0
 10
0.0
 20
0.0
 11
1.0
 21
1.0
 12
0.0
 22
0.0
 13
0.0
 23
0.0
 14
1.0
 24
1.0
 15
0.0
 25
0.0
 16
0.0
 26
0.0
 36
1.0
 17
75.18499948953166
 27
52.44441465104983
 37
0.0
 40
106.9890122782511
 41
1.433580848094466
 42
50.0
 43
0.0
 44
0.0
 50
0.0
 51
0.0
 71
     0
 72
   100
 73
     1
 74
     1
 75
     0
 76
     0
 77
     0
 78
     0
281
     0
 65
     1
110
0.0
120
0.0
130
0.0
111
1.0
121
0.0
131
0.0
112
0.0
122
1.0
132
0.0
 79
     0
146
0.0
 60
     3
 61
     5
292
     1
282
     1
141
0.0
142
0.0
 63
   250
421
  3355443
  0
ENDTAB
  0
TABLE
  2
LTYPE
  5
5
330
0
100
AcDbSymbolTable
 70
     1
  0
LTYPE
  5
5B
330
5
100
AcDbSymbolTableRecord
100
AcDbLinetypeTableRecord
  2
ByBlock
 70
     0
  3

 72
    65
 73
     0
 40
0.0
  0
LTYPE
  5
5C
330
5
100
AcDbSymbolTableRecord
100
AcDbLinetypeTableRecord
  2
ByLayer
 70
     0
  3

 72
    65
 73
     0
 40
0.0
  0
LTYPE
  5
5D
330
5
100
AcDbSymbolTableRecord
100
AcDbLinetypeTableRecord
  2
Continuous
 70
     0
  3
Solid line
 72
    65
 73
     0
 40
0.0
  0
ENDTAB
  0
TABLE
  2
LAYER
  5
2
330
0
100
AcDbSymbolTable
 70
     2
  0
LAYER
  5
54
330
2
100
AcDbSymbolTableRecord
100
AcDbLayerTableRecord
  2
0
 70
     0
 62
     7
  6
Continuous
370
    -3
390
F
347
21
348
0
  0
LAYER
  5
78
330
2
100
AcDbSymbolTableRecord
100
AcDbLayerTableRecord
  2
PCB holes
 70
     0
 62
     7
  6
Continuous
370
     0
390
F
347
21
348
0
  0
ENDTAB
  0
TABLE
  2
STYLE
  5
3
330
0
100
AcDbSymbolTable
 70
     2
  0
STYLE
  5
55
330
3
100
AcDbSymbolTableRecord
100
AcDbTextStyleTableRecord
  2
Standard
 70
     0
 40
0.0
 41
1.0
 50
0.0
 71
     0
 42
0.2
  3
txt
  4

  0
STYLE
  5
5A
330
3
100
AcDbSymbolTableRecord
100
AcDbTextStyleTableRecord
  2
Annotative
 70
     0
 40
0.0
 41
1.0
 50
0.0
 71
     0
 42
0.2
  3
txt
  4

1001
AcadAnnotative
1000
AnnotativeData
1002
{
1070
     1
1070
     1
1002
}
  0
ENDTAB
  0
TABLE
  2
VIEW
  5
6
330
0
100
AcDbSymbolTable
 70
     0
  0
ENDTAB
  0
TABLE
  2
UCS
  5
7
330
0
100
AcDbSymbolTable
 70
     0
  0
ENDTAB
  0
TABLE
  2
APPID
  5
9
330
0
100
AcDbSymbolTable
 70
     2
  0
APPID
  5
56
330
9
100
AcDbSymbolTableRecord
100
AcDbRegAppTableRecord
  2
ACAD
 70
     0
  0
APPID
  5
5E
330
9
100
AcDbSymbolTableRecord
100
AcDbRegAppTableRecord
  2
AcadAnnotative
 70
     0
  0
ENDTAB
  0
TABLE
  2
DIMSTYLE
  5
A
330
0
100
AcDbSymbolTable
 70
     2
100
AcDbDimStyleTable
 71
     0
  0
DIMSTYLE
105
58
330
A
100
AcDbSymbolTableRecord
100
AcDbDimStyleTableRecord
  2
Standard
 70
     0
340
55
  0
DIMSTYLE
105
59
330
A
100
AcDbSymbolTableRecord
100
AcDbDimStyleTableRecord
  2
Annotative
 70
     0
340
55
1001
AcadAnnotative
1000
AnnotativeData
1002
{
1070
     1
1070
     1
1002
}
  0
ENDTAB
  0
TABLE
  2
BLOCK_RECORD
  5
1
330
0
100
AcDbSymbolTable
 70
     1
  0
BLOCK_RECORD
  5
70
330
1
100
AcDbSymbolTableRecord
100
AcDbBlockTableRecord
  2
*Model_Space
340
73
 70
     0
280
     1
281
     0
  0
BLOCK_RECORD
  5
6C
330
1
100
AcDbSymbolTableRecord
100
AcDbBlockTableRecord
  2
*Paper_Space
340
6F
 70
     0
280
     1
281
     0
  0
BLOCK_RECORD
  5
74
330
1
100
AcDbSymbolTableRecord
100
AcDbBlockTableRecord
  2
*Paper_Space0
340
77
 70
     0
280
     1
281
     0
  0
ENDTAB
  0
ENDSEC
  0
SECTION
  2
BLOCKS
  0
BLOCK
  5
71
330
70
100
AcDbEntity
  8
0
100
AcDbBlockBegin
  2
*Model_Space
 70
     0
 10
0.0
 20
0.0
 30
0.0
  3
*Model_Space
  1

  0
ENDBLK
  5
72
330
70
100
AcDbEntity
  8
0
100
AcDbBlockEnd
  0
BLOCK
  5
6D
330
6C
100
AcDbEntity
 67
     1
  8
0
100
AcDbBlockBegin
  2
*Paper_Space
 70
     0
 10
0.0
 20
0.0
 30
0.0
  3
*Paper_Space
  1

  0
ENDBLK
  5
6E
330
6C
100
AcDbEntity
 67
     1
  8
0
100
AcDbBlockEnd
  0
BLOCK
  5
75
330
74
100
AcDbEntity
 67
     1
  8
0
100
AcDbBlockBegin
  2
*Paper_Space0
 70
     0
 10
0.0
 20
0.0
 30
0.0
  3
*Paper_Space0
  1

  0
ENDBLK
  5
76
330
74
100
AcDbEntity
 67
     1
  8
0
100
AcDbBlockEnd
  0
ENDSEC
  0
SECTION
  2
ENTITIES
  0
SPLINE
  5
79
330
70
100
AcDbEntity
  8
PCB holes
 62
     5
420
      255
370
     9
100
AcDbSpline
210
0.0
220
0.0
230
1.0
 70
    11
 71
     3
 72
    20
 73
    16
 74
     0
 42
0.0000000001
 43
0.0000000001
 40
0.0
 40
0.0
 40
0.0
 40
0.0
 40
1.0
 40
1.0
 40
1.0
 40
2.0
 40
2.0
 40
2.0
 40
3.0
 40
3.0
 40
3.0
 40
4.0
 40
4.0
 40
4.0
 40
5.0
 40
5.0
 40
5.0
 40
5.0
 10
144.0303965230366
 20
44.22715163392692
 30
0.0
 10
144.0303965230366
 20
44.22715163392692
 30
0.0
 10
130.2440314217308
 20
46.65775756460752
 30
0.0
 10
130.2440314217308
 20
46.65775756460752
 30
0.0
 10
130.2440314217308
 20
46.65775756460752
 30
0.0
 10
132.6746427353006
 20
60.44412804880247
 30
0.0
 10
132.6746427353006
 20
60.44412804880247
 30
0.0
 10
132.6746427353006
 20
60.44412804880247
 30
0.0
 10
146.4610186023847
 20
58.01352211812186
 30
0.0
 10
146.4610186023847
 20
58.01352211812186
 30
0.0
 10
146.4610186023847
 20
58.01352211812186
 30
0.0
 10
144.0304072888149
 20
44.22715163392692
 30
0.0
 10
144.0304072888149
 20
44.22715163392692
 30
0.0
 10
144.0304072888149
 20
44.22715163392692
 30
0.0
 10
144.0303965230366
 20
44.22715163392692
 30
0.0
 10
144.0303965230366
 20
44.22715163392692
 30
0.0
  0
SPLINE
  5
7A
330
70
100
AcDbEntity
  8
PCB holes
 62
     5
420
      255
370
     9
100
AcDbSpline
210
0.0
220
0.0
230
1.0
 70
    11
 71
     3
 72
    20
 73
    16
 74
     0
 42
0.0000000001
 43
0.0000000001
 40
0.0
 40
0.0
 40
0.0
 40
0.0
 40
1.0
 40
1.0
 40
1.0
 40
2.0
 40
2.0
 40
2.0
 40
3.0
 40
3.0
 40
3.0
 40
4.0
 40
4.0
 40
4.0
 40
5.0
 40
5.0
 40
5.0
 40
5.0
 10
140.7390289316562
 20
25.41376553573409
 30
0.0
 10
140.7390289316562
 20
25.41376553573409
 30
0.0
 10
126.9526530645721
 20
27.8443714664147
 30
0.0
 10
126.9526530645721
 20
27.8443714664147
 30
0.0
 10
126.9526530645721
 20
27.8443714664147
 30
0.0
 10
129.3832643781419
 20
41.63074195060963
 30
0.0
 10
129.3832643781419
 20
41.63074195060963
 30
0.0
 10
129.3832643781419
 20
41.63074195060963
 30
0.0
 10
143.169640245226
 20
39.20013601992904
 30
0.0
 10
143.169640245226
 20
39.20013601992904
 30
0.0
 10
143.169640245226
 20
39.20013601992904
 30
0.0
 10
140.7390289316562
 20
25.41376553573409
 30
0.0
 10
140.7390289316562
 20
25.41376553573409
 30
0.0
 10
140.7390289316562
 20
25.41376553573409
 30
0.0
 10
140.7390289316562
 20
25.41376553573409
 30
0.0
 10
140.7390289316562
 20
25.41376553573409
 30
0.0
  0
SPLINE
  5
7B
330
70
100
AcDbEntity
  8
PCB holes
 62
     5
420
      255
370
     9
100
AcDbSpline
210
0.0
220
0.0
230
1.0
 70
    11
 71
     3
 72
    20
 73
    16
 74
     0
 42
0.0000000001
 43
0.0000000001
 40
0.0
 40
0.0
 40
0.0
 40
0.0
 40
1.0
 40
1.0
 40
1.0
 40
2.0
 40
2.0
 40
2.0
 40
3.0
 40
3.0
 40
3.0
 40
4.0
 40
4.0
 40
4.0
 40
5.0
 40
5.0
 40
5.0
 40
5.0
 10
124.4338592603948
 20
42.57970225058449
 30
0.0
 10
124.4338592603948
 20
42.57970225058449
 30
0.0
 10
110.647494159089
 20
45.01030818126509
 30
0.0
 10
110.647494159089
 20
45.01030818126509
 30
0.0
 10
110.647494159089
 20
45.01030818126509
 30
0.0
 10
113.0781054726588
 20
58.79667866546004
 30
0.0
 10
113.0781054726588
 20
58.79667866546004
 30
0.0
 10
113.0781054726588
 20
58.79667866546004
 30
0.0
 10
126.8644813397429
 20
56.36607273477943
 30
0.0
 10
126.8644813397429
 20
56.36607273477943
 30
0.0
 10
126.8644813397429
 20
56.36607273477943
 30
0.0
 10
124.4338700261731
 20
42.57970225058449
 30
0.0
 10
124.4338700261731
 20
42.57970225058449
 30
0.0
 10
124.4338700261731
 20
42.57970225058449
 30
0.0
 10
124.4338592603948
 20
42.57970225058449
 30
0.0
 10
124.4338592603948
 20
42.57970225058449
 30
0.0
  0
SPLINE
  5
7C
330
70
100
AcDbEntity
  8
PCB holes
 62
     5
420
      255
370
     9
100
AcDbSpline
210
0.0
220
0.0
230
1.0
 70
    11
 71
     3
 72
    17
 73
    13
 74
     0
 42
0.0000000001
 43
0.0000000001
 40
0.0
 40
0.0
 40
0.0
 40
0.0
 40
1.0
 40
1.0
 40
1.0
 40
2.0
 40
2.0
 40
2.0
 40
3.0
 40
3.0
 40
3.0
 40
4.0
 40
4.0
 40
4.0
 40
4.0
 10
121.1424916690144
 20
23.76631615239166
 30
0.0
 10
121.1424916690144
 20
23.76631615239166
 30
0.0
 10
107.3561158019303
 20
26.19692208307227
 30
0.0
 10
107.3561158019303
 20
26.19692208307227
 30
0.0
 10
107.3561158019303
 20
26.19692208307227
 30
0.0
 10
109.7867271155001
 20
39.98329256726721
 30
0.0
 10
109.7867271155001
 20
39.98329256726721
 30
0.0
 10
109.7867271155001
 20
39.98329256726721
 30
0.0
 10
123.5731029825842
 20
37.55268663658661
 30
0.0
 10
123.5731029825842
 20
37.55268663658661
 30
0.0
 10
123.5731029825842
 20
37.55268663658661
 30
0.0
 10
121.1424916690144
 20
23.76631615239166
 30
0.0
 10
121.1424916690144
 20
23.76631615239166
 30
0.0
  0
SPLINE
  5
7D
330
70
100
AcDbEntity
  8
PCB holes
 62
     5
420
      255
370
     9
100
AcDbSpline
210
0.0
220
0.0
230
1.0
 70
     9
 71
     3
 72
    20
 73
    16
 74
     0
 42
0.0000000001
 43
0.0000000001
 40
0.0
 40
0.0
 40
0.0
 40
0.0
 40
1.0
 40
1.0
 40
1.0
 40
2.0
 40
2.0
 40
2.0
 40
3.0
 40
3.0
 40
3.0
 40
4.0
 40
4.0
 40
4.0
 40
5.0
 40
5.0
 40
5.0
 40
5.0
 10
92.77249098362506
 20
77.41251273061066
 30
0.0
 10
92.77249098362506
 20
77.41251273061066
 30
0.0
 10
93.74966838870092
 20
91.37879686571524
 30
0.0
 10
93.74966838870092
 20
91.37879686571524
 30
0.0
 10
93.74966838870092
 20
91.37879686571524
 30
0.0
 10
107.715951178083
 20
90.40161542347233
 30
0.0
 10
107.715951178083
 20
90.40161542347233
 30
0.0
 10
107.715951178083
 20
90.40161542347233
 30
0.0
 10
106.7387737730072
 20
76.4353299426456
 30
0.0
 10
106.7387737730072
 20
76.4353299426456
 30
0.0
 10
106.7387737730072
 20
76.4353299426456
 30
0.0
 10
92.77249098362506
 20
77.41251003916606
 30
0.0
 10
92.77249098362506
 20
77.41251003916606
 30
0.0
 10
92.77249098362506
 20
77.41251003916606
 30
0.0
 10
92.77249098362506
 20
77.41251003916606
 30
0.0
 10
92.77249098362506
 20
77.41251273061066
 30
0.0
  0
SPLINE
  5
7E
330
70
100
AcDbEntity
  8
PCB holes
 62
     5
420
      255
370
     9
100
AcDbSpline
210
0.0
220
0.0
230
1.0
 70
    11
 71
     3
 72
    20
 73
    16
 74
     0
 42
0.0000000001
 43
0.0000000001
 40
0.0
 40
0.0
 40
0.0
 40
0.0
 40
1.0
 40
1.0
 40
1.0
 40
2.0
 40
2.0
 40
2.0
 40
3.0
 40
3.0
 40
3.0
 40
4.0
 40
4.0
 40
4.0
 40
5.0
 40
5.0
 40
5.0
 40
5.0
 10
105.4123545176921
 20
57.47025402725579
 30
0.0
 10
105.4123545176921
 20
57.47025402725579
 30
0.0
 10
91.44607172830999
 20
58.44743681522084
 30
0.0
 10
91.44607172830999
 20
58.44743681522084
 30
0.0
 10
91.44607172830999
 20
58.44743681522084
 30
0.0
 10
92.42324913338586
 20
72.41371960460297
 30
0.0
 10
92.42324913338586
 20
72.41371960460297
 30
0.0
 10
92.42324913338586
 20
72.41371960460297
 30
0.0
 10
106.389531922768
 20
71.4365395080825
 30
0.0
 10
106.389531922768
 20
71.4365395080825
 30
0.0
 10
106.389531922768
 20
71.4365395080825
 30
0.0
 10
105.4123545176921
 20
57.47025402725579
 30
0.0
 10
105.4123545176921
 20
57.47025402725579
 30
0.0
 10
105.4123545176921
 20
57.47025402725579
 30
0.0
 10
105.4123545176921
 20
57.47025402725579
 30
0.0
 10
105.4123545176921
 20
57.47025402725579
 30
0.0
  0
SPLINE
  5
7F
330
70
100
AcDbEntity
  8
PCB holes
 62
     5
420
      255
370
     9
100
AcDbSpline
210
0.0
220
0.0
230
1.0
 70
    11
 71
     3
 72
    17
 73
    13
 74
     0
 42
0.0000000001
 43
0.0000000001
 40
0.0
 40
0.0
 40
0.0
 40
0.0
 40
1.0
 40
1.0
 40
1.0
 40
2.0
 40
2.0
 40
2.0
 40
3.0
 40
3.0
 40
3.0
 40
4.0
 40
4.0
 40
4.0
 40
4.0
 10
104.107090016869
 20
38.41698485548004
 30
0.0
 10
104.107090016869
 20
38.41698485548004
 30
0.0
 10
90.14080722748692
 20
39.39416764344509
 30
0.0
 10
90.14080722748692
 20
39.39416764344509
 30
0.0
 10
90.14080722748692
 20
39.39416764344509
 30
0.0
 10
91.11798463256278
 20
53.36045043282723
 30
0.0
 10
91.11798463256278
 20
53.36045043282723
 30
0.0
 10
91.11798463256278
 20
53.36045043282723
 30
0.0
 10
105.0842674219449
 20
52.38326764486217
 30
0.0
 10
105.0842674219449
 20
52.38326764486217
 30
0.0
 10
105.0842674219449
 20
52.38326764486217
 30
0.0
 10
104.107090016869
 20
38.41698485548004
 30
0.0
 10
104.107090016869
 20
38.41698485548004
 30
0.0
  0
SPLINE
  5
80
330
70
100
AcDbEntity
  8
PCB holes
 62
     5
420
      255
370
     9
100
AcDbSpline
210
0.0
220
0.0
230
1.0
 70
     9
 71
     3
 72
    17
 73
    13
 74
     0
 42
0.0000000001
 43
0.0000000001
 40
0.0
 40
0.0
 40
0.0
 40
0.0
 40
1.0
 40
1.0
 40
1.0
 40
2.0
 40
2.0
 40
2.0
 40
3.0
 40
3.0
 40
3.0
 40
4.0
 40
4.0
 40
4.0
 40
4.0
 10
100.8933329217394
 20
30.48664874846639
 30
0.0
 10
100.3147799922741
 20
30.48664874846639
 30
0.0
 10
99.84206542993899
 20
30.95583751838623
 30
0.0
 10
99.84206542993899
 20
31.53791085737768
 30
0.0
 10
99.84206542993899
 20
32.11998419636913
 30
0.0
 10
100.3112488169696
 20
32.58917296628896
 30
0.0
 10
100.8933329217394
 20
32.58917296628896
 30
0.0
 10
101.4754170265092
 20
32.58917296628896
 30
0.0
 10
101.9446004135399
 20
32.11998419636913
 30
0.0
 10
101.9446004135399
 20
31.53791085737768
 30
0.0
 10
101.9446004135399
 20
30.95583751838623
 30
0.0
 10
101.4754170265092
 20
30.48664874846639
 30
0.0
 10
100.8933329217394
 20
30.48664874846639
 30
0.0
  0
SPLINE
  5
81
330
70
100
AcDbEntity
  8
PCB holes
 62
     5
420
      255
370
     9
100
AcDbSpline
210
0.0
220
0.0
230
1.0
 70
     9
 71
     3
 72
    20
 73
    16
 74
     0
 42
0.0000000001
 43
0.0000000001
 40
0.0
 40
0.0
 40
0.0
 40
0.0
 40
1.0
 40
1.0
 40
1.0
 40
2.0
 40
2.0
 40
2.0
 40
3.0
 40
3.0
 40
3.0
 40
4.0
 40
4.0
 40
4.0
 40
5.0
 40
5.0
 40
5.0
 40
5.0
 10
89.31885081491255
 20
31.25922253566939
 30
0.0
 10
88.74030326833644
 20
31.25922253566939
 30
0.0
 10
88.26758870600126
 20
31.72841130558922
 30
0.0
 10
88.26758870600126
 20
32.31048464458067
 30
0.0
 10
88.26758870600126
 20
32.89255798357212
 30
0.0
 10
88.73677747592109
 20
33.36174675349196
 30
0.0
 10
89.31885081491255
 20
33.36174675349196
 30
0.0
 10
89.900924153904
 20
33.36174675349196
 30
0.0
 10
90.37011830671302
 20
32.89255798357212
 30
0.0
 10
90.37011830671302
 20
32.31048464458067
 30
0.0
 10
90.37011830671302
 20
31.72841130558922
 30
0.0
 10
89.90092953679319
 20
31.25922253566939
 30
0.0
 10
89.31885619780173
 20
31.25922253566939
 30
0.0
 10
89.31885619780173
 20
31.25922253566939
 30
0.0
 10
89.31885081491255
 20
31.25922253566939
 30
0.0
 10
89.31885081491255
 20
31.25922253566939
 30
0.0
  0
SPLINE
  5
82
330
70
100
AcDbEntity
  8
PCB holes
 62
     5
420
      255
370
     9
100
AcDbSpline
210
0.0
220
0.0
230
1.0
 70
     9
 71
     3
 72
    17
 73
    13
 74
     0
 42
0.0000000001
 43
0.0000000001
 40
0.0
 40
0.0
 40
0.0
 40
0.0
 40
1.0
 40
1.0
 40
1.0
 40
2.0
 40
2.0
 40
2.0
 40
3.0
 40
3.0
 40
3.0
 40
4.0
 40
4.0
 40
4.0
 40
4.0
 10
86.63424787520934
 20
64.90671005166392
 30
0.0
 10
86.05570032863322
 20
64.90671005166392
 30
0.0
 10
85.58298576629805
 20
65.37589882158376
 30
0.0
 10
85.58298576629805
 20
65.9579748520198
 30
0.0
 10
85.58298576629805
 20
66.54005088245584
 30
0.0
 10
86.05217453621788
 20
67.00923965237568
 30
0.0
 10
86.63424787520934
 20
67.00923965237568
 30
0.0
 10
87.21632121420078
 20
67.00923965237568
 30
0.0
 10
87.68550998412063
 20
66.54005088245584
 30
0.0
 10
87.68550998412063
 20
65.9579748520198
 30
0.0
 10
87.68550998412063
 20
65.37589882158376
 30
0.0
 10
87.21632121420078
 20
64.90671005166392
 30
0.0
 10
86.63424787520934
 20
64.90671005166392
 30
0.0
  0
SPLINE
  5
83
330
70
100
AcDbEntity
  8
PCB holes
 62
     5
420
      255
370
     9
100
AcDbSpline
210
0.0
220
0.0
230
1.0
 70
    11
 71
     3
 72
    17
 73
    13
 74
     0
 42
0.0000000001
 43
0.0000000001
 40
0.0
 40
0.0
 40
0.0
 40
0.0
 40
1.0
 40
1.0
 40
1.0
 40
2.0
 40
2.0
 40
2.0
 40
3.0
 40
3.0
 40
3.0
 40
4.0
 40
4.0
 40
4.0
 40
4.0
 10
85.49126133460761
 20
49.25417263081399
 30
0.0
 10
85.49126133460761
 20
49.25417263081399
 30
0.0
 10
71.48969908951544
 20
49.25417263081399
 30
0.0
 10
71.48969908951544
 20
49.25417263081399
 30
0.0
 10
71.48969908951544
 20
49.25417263081399
 30
0.0
 10
71.48969908951544
 20
63.25220639204625
 30
0.0
 10
71.48969908951544
 20
63.25220639204625
 30
0.0
 10
71.48969908951544
 20
63.25220639204625
 30
0.0
 10
85.49126133460761
 20
63.25220639204625
 30
0.0
 10
85.49126133460761
 20
63.25220639204625
 30
0.0
 10
85.49126133460761
 20
63.25220639204625
 30
0.0
 10
85.49126133460761
 20
49.25417263081399
 30
0.0
 10
85.49126133460761
 20
49.25417263081399
 30
0.0
  0
SPLINE
  5
84
330
70
100
AcDbEntity
  8
PCB holes
 62
     5
420
      255
370
     9
100
AcDbSpline
210
0.0
220
0.0
230
1.0
 70
     9
 71
     3
 72
    17
 73
    13
 74
     0
 42
0.0000000001
 43
0.0000000001
 40
0.0
 40
0.0
 40
0.0
 40
0.0
 40
1.0
 40
1.0
 40
1.0
 40
2.0
 40
2.0
 40
2.0
 40
3.0
 40
3.0
 40
3.0
 40
4.0
 40
4.0
 40
4.0
 40
4.0
 10
83.49103892572147
 20
41.21094657183953
 30
0.0
 10
83.21587639642851
 20
41.21094657183953
 30
0.0
 10
82.99010187539611
 20
41.43319530045661
 30
0.0
 10
82.99010187539611
 20
41.7118836221649
 30
0.0
 10
82.99010187539611
 20
41.9905719438732
 30
0.0
 10
83.21235060401319
 20
42.21282067249027
 30
0.0
 10
83.49103892572147
 20
42.21282067249027
 30
0.0
 10
83.76972724742975
 20
42.21282067249027
 30
0.0
 10
83.99197597604683
 20
41.9905719438732
 30
0.0
 10
83.99197597604683
 20
41.7118836221649
 30
0.0
 10
83.99197597604683
 20
41.43319530045661
 30
0.0
 10
83.76972724742975
 20
41.21094657183953
 30
0.0
 10
83.49103892572147
 20
41.21094657183953
 30
0.0
  0
SPLINE
  5
85
330
70
100
AcDbEntity
  8
PCB holes
 62
     5
420
      255
370
     9
100
AcDbSpline
210
0.0
220
0.0
230
1.0
 70
     9
 71
     3
 72
    17
 73
    13
 74
     0
 42
0.0000000001
 43
0.0000000001
 40
0.0
 40
0.0
 40
0.0
 40
0.0
 40
1.0
 40
1.0
 40
1.0
 40
2.0
 40
2.0
 40
2.0
 40
3.0
 40
3.0
 40
3.0
 40
4.0
 40
4.0
 40
4.0
 40
4.0
 10
83.49103892572147
 20
39.2107241629534
 30
0.0
 10
83.21587639642851
 20
39.2107241629534
 30
0.0
 10
82.99010187539611
 20
39.43297289157047
 30
0.0
 10
82.99010187539611
 20
39.71166121327877
 30
0.0
 10
82.99010187539611
 20
39.99034953498706
 30
0.0
 10
83.21235060401319
 20
40.21259826360413
 30
0.0
 10
83.49103892572147
 20
40.21259826360413
 30
0.0
 10
83.76972724742975
 20
40.21259826360413
 30
0.0
 10
83.99197597604683
 20
39.99034953498706
 30
0.0
 10
83.99197597604683
 20
39.71166121327877
 30
0.0
 10
83.99197597604683
 20
39.43297289157047
 30
0.0
 10
83.76972724742975
 20
39.2107241629534
 30
0.0
 10
83.49103892572147
 20
39.2107241629534
 30
0.0
  0
SPLINE
  5
86
330
70
100
AcDbEntity
  8
PCB holes
 62
     5
420
      255
370
     9
100
AcDbSpline
210
0.0
220
0.0
230
1.0
 70
     9
 71
     3
 72
    17
 73
    13
 74
     0
 42
0.0000000001
 43
0.0000000001
 40
0.0
 40
0.0
 40
0.0
 40
0.0
 40
1.0
 40
1.0
 40
1.0
 40
2.0
 40
2.0
 40
2.0
 40
3.0
 40
3.0
 40
3.0
 40
4.0
 40
4.0
 40
4.0
 40
4.0
 10
83.49103892572147
 20
37.21050175406726
 30
0.0
 10
83.21587639642851
 20
37.21050175406726
 30
0.0
 10
82.99010187539611
 20
37.43275048268433
 30
0.0
 10
82.99010187539611
 20
37.71143880439262
 30
0.0
 10
82.99010187539611
 20
37.99012712610092
 30
0.0
 10
83.21235060401319
 20
38.21237585471799
 30
0.0
 10
83.49103892572147
 20
38.21237585471799
 30
0.0
 10
83.76972724742975
 20
38.21237585471799
 30
0.0
 10
83.99197597604683
 20
37.99012712610092
 30
0.0
 10
83.99197597604683
 20
37.71143880439262
 30
0.0
 10
83.99197597604683
 20
37.43275048268433
 30
0.0
 10
83.76972724742975
 20
37.21050175406726
 30
0.0
 10
83.49103892572147
 20
37.21050175406726
 30
0.0
  0
SPLINE
  5
87
330
70
100
AcDbEntity
  8
PCB holes
 62
     5
420
      255
370
     9
100
AcDbSpline
210
0.0
220
0.0
230
1.0
 70
     9
 71
     3
 72
    17
 73
    13
 74
     0
 42
0.0000000001
 43
0.0000000001
 40
0.0
 40
0.0
 40
0.0
 40
0.0
 40
1.0
 40
1.0
 40
1.0
 40
2.0
 40
2.0
 40
2.0
 40
3.0
 40
3.0
 40
3.0
 40
4.0
 40
4.0
 40
4.0
 40
4.0
 10
83.49103892572147
 20
35.21027934518111
 30
0.0
 10
83.21587639642851
 20
35.21027934518111
 30
0.0
 10
82.99010187539611
 20
35.43252807379819
 30
0.0
 10
82.99010187539611
 20
35.71121639550649
 30
0.0
 10
82.99010187539611
 20
35.98990471721477
 30
0.0
 10
83.21235060401319
 20
36.21215344583185
 30
0.0
 10
83.49103892572147
 20
36.21215344583185
 30
0.0
 10
83.76972724742975
 20
36.21215344583185
 30
0.0
 10
83.99197597604683
 20
35.98990471721477
 30
0.0
 10
83.99197597604683
 20
35.71121639550649
 30
0.0
 10
83.99197597604683
 20
35.43252807379819
 30
0.0
 10
83.76972724742975
 20
35.21027934518111
 30
0.0
 10
83.49103892572147
 20
35.21027934518111
 30
0.0
  0
SPLINE
  5
88
330
70
100
AcDbEntity
  8
PCB holes
 62
     5
420
      255
370
     9
100
AcDbSpline
210
0.0
220
0.0
230
1.0
 70
     9
 71
     3
 72
    17
 73
    13
 74
     0
 42
0.0000000001
 43
0.0000000001
 40
0.0
 40
0.0
 40
0.0
 40
0.0
 40
1.0
 40
1.0
 40
1.0
 40
2.0
 40
2.0
 40
2.0
 40
3.0
 40
3.0
 40
3.0
 40
4.0
 40
4.0
 40
4.0
 40
4.0
 10
83.49103892572147
 20
33.21005693629497
 30
0.0
 10
83.21587639642851
 20
33.21005693629497
 30
0.0
 10
82.99010187539611
 20
33.43230566491205
 30
0.0
 10
82.99010187539611
 20
33.71099398662034
 30
0.0
 10
82.99010187539611
 20
33.98968230832863
 30
0.0
 10
83.21235060401319
 20
34.21193103694571
 30
0.0
 10
83.49103892572147
 20
34.21193103694571
 30
0.0
 10
83.76972724742975
 20
34.21193103694571
 30
0.0
 10
83.99197597604683
 20
33.98968230832863
 30
0.0
 10
83.99197597604683
 20
33.71099398662034
 30
0.0
 10
83.99197597604683
 20
33.43230566491205
 30
0.0
 10
83.76972724742975
 20
33.21005693629497
 30
0.0
 10
83.49103892572147
 20
33.21005693629497
 30
0.0
  0
SPLINE
  5
89
330
70
100
AcDbEntity
  8
PCB holes
 62
     5
420
      255
370
     9
100
AcDbSpline
210
0.0
220
0.0
230
1.0
 70
     9
 71
     3
 72
    17
 73
    13
 74
     0
 42
0.0000000001
 43
0.0000000001
 40
0.0
 40
0.0
 40
0.0
 40
0.0
 40
1.0
 40
1.0
 40
1.0
 40
2.0
 40
2.0
 40
2.0
 40
3.0
 40
3.0
 40
3.0
 40
4.0
 40
4.0
 40
4.0
 40
4.0
 10
81.49081651683532
 20
41.21094657183953
 30
0.0
 10
81.21565398754237
 20
41.21094657183953
 30
0.0
 10
80.98987946650996
 20
41.43319530045661
 30
0.0
 10
80.98987946650996
 20
41.7118836221649
 30
0.0
 10
80.98987946650996
 20
41.9905719438732
 30
0.0
 10
81.21212819512704
 20
42.21282067249027
 30
0.0
 10
81.49081651683532
 20
42.21282067249027
 30
0.0
 10
81.7695048385436
 20
42.21282067249027
 30
0.0
 10
81.9917535671607
 20
41.9905719438732
 30
0.0
 10
81.9917535671607
 20
41.7118836221649
 30
0.0
 10
81.9917535671607
 20
41.43319530045661
 30
0.0
 10
81.7695048385436
 20
41.21094657183953
 30
0.0
 10
81.49081651683532
 20
41.21094657183953
 30
0.0
  0
SPLINE
  5
8A
330
70
100
AcDbEntity
  8
PCB holes
 62
     5
420
      255
370
     9
100
AcDbSpline
210
0.0
220
0.0
230
1.0
 70
     9
 71
     3
 72
    17
 73
    13
 74
     0
 42
0.0000000001
 43
0.0000000001
 40
0.0
 40
0.0
 40
0.0
 40
0.0
 40
1.0
 40
1.0
 40
1.0
 40
2.0
 40
2.0
 40
2.0
 40
3.0
 40
3.0
 40
3.0
 40
4.0
 40
4.0
 40
4.0
 40
4.0
 10
81.49081651683532
 20
39.2107241629534
 30
0.0
 10
81.21565398754237
 20
39.2107241629534
 30
0.0
 10
80.98987946650996
 20
39.43297289157047
 30
0.0
 10
80.98987946650996
 20
39.71166121327877
 30
0.0
 10
80.98987946650996
 20
39.99034953498706
 30
0.0
 10
81.21212819512704
 20
40.21259826360413
 30
0.0
 10
81.49081651683532
 20
40.21259826360413
 30
0.0
 10
81.7695048385436
 20
40.21259826360413
 30
0.0
 10
81.9917535671607
 20
39.99034953498706
 30
0.0
 10
81.9917535671607
 20
39.71166121327877
 30
0.0
 10
81.9917535671607
 20
39.43297289157047
 30
0.0
 10
81.7695048385436
 20
39.2107241629534
 30
0.0
 10
81.49081651683532
 20
39.2107241629534
 30
0.0
  0
SPLINE
  5
8B
330
70
100
AcDbEntity
  8
PCB holes
 62
     5
420
      255
370
     9
100
AcDbSpline
210
0.0
220
0.0
230
1.0
 70
     9
 71
     3
 72
    17
 73
    13
 74
     0
 42
0.0000000001
 43
0.0000000001
 40
0.0
 40
0.0
 40
0.0
 40
0.0
 40
1.0
 40
1.0
 40
1.0
 40
2.0
 40
2.0
 40
2.0
 40
3.0
 40
3.0
 40
3.0
 40
4.0
 40
4.0
 40
4.0
 40
4.0
 10
81.49081651683532
 20
37.21050175406726
 30
0.0
 10
81.21565398754237
 20
37.21050175406726
 30
0.0
 10
80.98987946650996
 20
37.43275048268433
 30
0.0
 10
80.98987946650996
 20
37.71143880439262
 30
0.0
 10
80.98987946650996
 20
37.99012712610092
 30
0.0
 10
81.21212819512704
 20
38.21237585471799
 30
0.0
 10
81.49081651683532
 20
38.21237585471799
 30
0.0
 10
81.7695048385436
 20
38.21237585471799
 30
0.0
 10
81.9917535671607
 20
37.99012712610092
 30
0.0
 10
81.9917535671607
 20
37.71143880439262
 30
0.0
 10
81.9917535671607
 20
37.43275048268433
 30
0.0
 10
81.7695048385436
 20
37.21050175406726
 30
0.0
 10
81.49081651683532
 20
37.21050175406726
 30
0.0
  0
SPLINE
  5
8C
330
70
100
AcDbEntity
  8
PCB holes
 62
     5
420
      255
370
     9
100
AcDbSpline
210
0.0
220
0.0
230
1.0
 70
     9
 71
     3
 72
    17
 73
    13
 74
     0
 42
0.0000000001
 43
0.0000000001
 40
0.0
 40
0.0
 40
0.0
 40
0.0
 40
1.0
 40
1.0
 40
1.0
 40
2.0
 40
2.0
 40
2.0
 40
3.0
 40
3.0
 40
3.0
 40
4.0
 40
4.0
 40
4.0
 40
4.0
 10
81.49081651683532
 20
35.21027934518111
 30
0.0
 10
81.21565398754237
 20
35.21027934518111
 30
0.0
 10
80.98987946650996
 20
35.43252807379819
 30
0.0
 10
80.98987946650996
 20
35.71121639550649
 30
0.0
 10
80.98987946650996
 20
35.98990471721477
 30
0.0
 10
81.21212819512704
 20
36.21215344583185
 30
0.0
 10
81.49081651683532
 20
36.21215344583185
 30
0.0
 10
81.7695048385436
 20
36.21215344583185
 30
0.0
 10
81.9917535671607
 20
35.98990471721477
 30
0.0
 10
81.9917535671607
 20
35.71121639550649
 30
0.0
 10
81.9917535671607
 20
35.43252807379819
 30
0.0
 10
81.7695048385436
 20
35.21027934518111
 30
0.0
 10
81.49081651683532
 20
35.21027934518111
 30
0.0
  0
SPLINE
  5
8D
330
70
100
AcDbEntity
  8
PCB holes
 62
     5
420
      255
370
     9
100
AcDbSpline
210
0.0
220
0.0
230
1.0
 70
     9
 71
     3
 72
    17
 73
    13
 74
     0
 42
0.0000000001
 43
0.0000000001
 40
0.0
 40
0.0
 40
0.0
 40
0.0
 40
1.0
 40
1.0
 40
1.0
 40
2.0
 40
2.0
 40
2.0
 40
3.0
 40
3.0
 40
3.0
 40
4.0
 40
4.0
 40
4.0
 40
4.0
 10
81.49081651683532
 20
33.21005693629497
 30
0.0
 10
81.21565398754237
 20
33.21005693629497
 30
0.0
 10
80.98987946650996
 20
33.43230566491205
 30
0.0
 10
80.98987946650996
 20
33.71099398662034
 30
0.0
 10
80.98987946650996
 20
33.98968230832863
 30
0.0
 10
81.21212819512704
 20
34.21193103694571
 30
0.0
 10
81.49081651683532
 20
34.21193103694571
 30
0.0
 10
81.7695048385436
 20
34.21193103694571
 30
0.0
 10
81.9917535671607
 20
33.98968230832863
 30
0.0
 10
81.9917535671607
 20
33.71099398662034
 30
0.0
 10
81.9917535671607
 20
33.43230566491205
 30
0.0
 10
81.7695048385436
 20
33.21005693629497
 30
0.0
 10
81.49081651683532
 20
33.21005693629497
 30
0.0
  0
SPLINE
  5
8E
330
70
100
AcDbEntity
  8
PCB holes
 62
     5
420
      255
370
     9
100
AcDbSpline
210
0.0
220
0.0
230
1.0
 70
     9
 71
     3
 72
    17
 73
    13
 74
     0
 42
0.0000000001
 43
0.0000000001
 40
0.0
 40
0.0
 40
0.0
 40
0.0
 40
1.0
 40
1.0
 40
1.0
 40
2.0
 40
2.0
 40
2.0
 40
3.0
 40
3.0
 40
3.0
 40
4.0
 40
4.0
 40
4.0
 40
4.0
 10
79.49059410794919
 20
41.21094657183953
 30
0.0
 10
79.21543157865622
 20
41.21094657183953
 30
0.0
 10
78.98965705762382
 20
41.43319530045661
 30
0.0
 10
78.98965705762382
 20
41.7118836221649
 30
0.0
 10
78.98965705762382
 20
41.9905719438732
 30
0.0
 10
79.21190578624089
 20
42.21282067249027
 30
0.0
 10
79.49059410794919
 20
42.21282067249027
 30
0.0
 10
79.76928242965747
 20
42.21282067249027
 30
0.0
 10
79.99153115827455
 20
41.9905719438732
 30
0.0
 10
79.99153115827455
 20
41.7118836221649
 30
0.0
 10
79.99153115827455
 20
41.43319530045661
 30
0.0
 10
79.76928242965747
 20
41.21094657183953
 30
0.0
 10
79.49059410794919
 20
41.21094657183953
 30
0.0
  0
SPLINE
  5
8F
330
70
100
AcDbEntity
  8
PCB holes
 62
     5
420
      255
370
     9
100
AcDbSpline
210
0.0
220
0.0
230
1.0
 70
     9
 71
     3
 72
    17
 73
    13
 74
     0
 42
0.0000000001
 43
0.0000000001
 40
0.0
 40
0.0
 40
0.0
 40
0.0
 40
1.0
 40
1.0
 40
1.0
 40
2.0
 40
2.0
 40
2.0
 40
3.0
 40
3.0
 40
3.0
 40
4.0
 40
4.0
 40
4.0
 40
4.0
 10
79.49059410794919
 20
39.2107241629534
 30
0.0
 10
79.21543157865622
 20
39.2107241629534
 30
0.0
 10
78.98965705762382
 20
39.43297289157047
 30
0.0
 10
78.98965705762382
 20
39.71166121327877
 30
0.0
 10
78.98965705762382
 20
39.99034953498706
 30
0.0
 10
79.21190578624089
 20
40.21259826360413
 30
0.0
 10
79.49059410794919
 20
40.21259826360413
 30
0.0
 10
79.76928242965747
 20
40.21259826360413
 30
0.0
 10
79.99153115827455
 20
39.99034953498706
 30
0.0
 10
79.99153115827455
 20
39.71166121327877
 30
0.0
 10
79.99153115827455
 20
39.43297289157047
 30
0.0
 10
79.76928242965747
 20
39.2107241629534
 30
0.0
 10
79.49059410794919
 20
39.2107241629534
 30
0.0
  0
SPLINE
  5
90
330
70
100
AcDbEntity
  8
PCB holes
 62
     5
420
      255
370
     9
100
AcDbSpline
210
0.0
220
0.0
230
1.0
 70
     9
 71
     3
 72
    17
 73
    13
 74
     0
 42
0.0000000001
 43
0.0000000001
 40
0.0
 40
0.0
 40
0.0
 40
0.0
 40
1.0
 40
1.0
 40
1.0
 40
2.0
 40
2.0
 40
2.0
 40
3.0
 40
3.0
 40
3.0
 40
4.0
 40
4.0
 40
4.0
 40
4.0
 10
79.49059410794919
 20
37.21050175406726
 30
0.0
 10
79.21543157865622
 20
37.21050175406726
 30
0.0
 10
78.98965705762382
 20
37.43275048268433
 30
0.0
 10
78.98965705762382
 20
37.71143880439262
 30
0.0
 10
78.98965705762382
 20
37.99012712610092
 30
0.0
 10
79.21190578624089
 20
38.21237585471799
 30
0.0
 10
79.49059410794919
 20
38.21237585471799
 30
0.0
 10
79.76928242965747
 20
38.21237585471799
 30
0.0
 10
79.99153115827455
 20
37.99012712610092
 30
0.0
 10
79.99153115827455
 20
37.71143880439262
 30
0.0
 10
79.99153115827455
 20
37.43275048268433
 30
0.0
 10
79.76928242965747
 20
37.21050175406726
 30
0.0
 10
79.49059410794919
 20
37.21050175406726
 30
0.0
  0
SPLINE
  5
91
330
70
100
AcDbEntity
  8
PCB holes
 62
     5
420
      255
370
     9
100
AcDbSpline
210
0.0
220
0.0
230
1.0
 70
     9
 71
     3
 72
    17
 73
    13
 74
     0
 42
0.0000000001
 43
0.0000000001
 40
0.0
 40
0.0
 40
0.0
 40
0.0
 40
1.0
 40
1.0
 40
1.0
 40
2.0
 40
2.0
 40
2.0
 40
3.0
 40
3.0
 40
3.0
 40
4.0
 40
4.0
 40
4.0
 40
4.0
 10
79.49059410794919
 20
35.21027934518111
 30
0.0
 10
79.21543157865622
 20
35.21027934518111
 30
0.0
 10
78.98965705762382
 20
35.43252807379819
 30
0.0
 10
78.98965705762382
 20
35.71121639550649
 30
0.0
 10
78.98965705762382
 20
35.98990471721477
 30
0.0
 10
79.21190578624089
 20
36.21215344583185
 30
0.0
 10
79.49059410794919
 20
36.21215344583185
 30
0.0
 10
79.76928242965747
 20
36.21215344583185
 30
0.0
 10
79.99153115827455
 20
35.98990471721477
 30
0.0
 10
79.99153115827455
 20
35.71121639550649
 30
0.0
 10
79.99153115827455
 20
35.43252807379819
 30
0.0
 10
79.76928242965747
 20
35.21027934518111
 30
0.0
 10
79.49059410794919
 20
35.21027934518111
 30
0.0
  0
SPLINE
  5
92
330
70
100
AcDbEntity
  8
PCB holes
 62
     5
420
      255
370
     9
100
AcDbSpline
210
0.0
220
0.0
230
1.0
 70
     9
 71
     3
 72
    17
 73
    13
 74
     0
 42
0.0000000001
 43
0.0000000001
 40
0.0
 40
0.0
 40
0.0
 40
0.0
 40
1.0
 40
1.0
 40
1.0
 40
2.0
 40
2.0
 40
2.0
 40
3.0
 40
3.0
 40
3.0
 40
4.0
 40
4.0
 40
4.0
 40
4.0
 10
79.49059410794919
 20
33.21005693629497
 30
0.0
 10
79.21543157865622
 20
33.21005693629497
 30
0.0
 10
78.98965705762382
 20
33.43230566491205
 30
0.0
 10
78.98965705762382
 20
33.71099398662034
 30
0.0
 10
78.98965705762382
 20
33.98968230832863
 30
0.0
 10
79.21190578624089
 20
34.21193103694571
 30
0.0
 10
79.49059410794919
 20
34.21193103694571
 30
0.0
 10
79.76928242965747
 20
34.21193103694571
 30
0.0
 10
79.99153115827455
 20
33.98968230832863
 30
0.0
 10
79.99153115827455
 20
33.71099398662034
 30
0.0
 10
79.99153115827455
 20
33.43230566491205
 30
0.0
 10
79.76928242965747
 20
33.21005693629497
 30
0.0
 10
79.49059410794919
 20
33.21005693629497
 30
0.0
  0
SPLINE
  5
93
330
70
100
AcDbEntity
  8
PCB holes
 62
     5
420
      255
370
     9
100
AcDbSpline
210
0.0
220
0.0
230
1.0
 70
     9
 71
     3
 72
    17
 73
    13
 74
     0
 42
0.0000000001
 43
0.0000000001
 40
0.0
 40
0.0
 40
0.0
 40
0.0
 40
1.0
 40
1.0
 40
1.0
 40
2.0
 40
2.0
 40
2.0
 40
3.0
 40
3.0
 40
3.0
 40
4.0
 40
4.0
 40
4.0
 40
4.0
 10
77.49037169906305
 20
41.21094657183953
 30
0.0
 10
77.21520916977009
 20
41.21094657183953
 30
0.0
 10
76.98943464873767
 20
41.43319530045661
 30
0.0
 10
76.98943464873767
 20
41.7118836221649
 30
0.0
 10
76.98943464873767
 20
41.9905719438732
 30
0.0
 10
77.21168337735476
 20
42.21282067249027
 30
0.0
 10
77.49037169906305
 20
42.21282067249027
 30
0.0
 10
77.76906002077133
 20
42.21282067249027
 30
0.0
 10
77.99130874938841
 20
41.9905719438732
 30
0.0
 10
77.99130874938841
 20
41.7118836221649
 30
0.0
 10
77.99130874938841
 20
41.43319530045661
 30
0.0
 10
77.76906002077133
 20
41.21094657183953
 30
0.0
 10
77.49037169906305
 20
41.21094657183953
 30
0.0
  0
SPLINE
  5
94
330
70
100
AcDbEntity
  8
PCB holes
 62
     5
420
      255
370
     9
100
AcDbSpline
210
0.0
220
0.0
230
1.0
 70
     9
 71
     3
 72
    17
 73
    13
 74
     0
 42
0.0000000001
 43
0.0000000001
 40
0.0
 40
0.0
 40
0.0
 40
0.0
 40
1.0
 40
1.0
 40
1.0
 40
2.0
 40
2.0
 40
2.0
 40
3.0
 40
3.0
 40
3.0
 40
4.0
 40
4.0
 40
4.0
 40
4.0
 10
77.49037169906305
 20
39.2107241629534
 30
0.0
 10
77.21520916977009
 20
39.2107241629534
 30
0.0
 10
76.98943464873767
 20
39.43297289157047
 30
0.0
 10
76.98943464873767
 20
39.71166121327877
 30
0.0
 10
76.98943464873767
 20
39.99034953498706
 30
0.0
 10
77.21168337735476
 20
40.21259826360413
 30
0.0
 10
77.49037169906305
 20
40.21259826360413
 30
0.0
 10
77.76906002077133
 20
40.21259826360413
 30
0.0
 10
77.99130874938841
 20
39.99034953498706
 30
0.0
 10
77.99130874938841
 20
39.71166121327877
 30
0.0
 10
77.99130874938841
 20
39.43297289157047
 30
0.0
 10
77.76906002077133
 20
39.2107241629534
 30
0.0
 10
77.49037169906305
 20
39.2107241629534
 30
0.0
  0
SPLINE
  5
95
330
70
100
AcDbEntity
  8
PCB holes
 62
     5
420
      255
370
     9
100
AcDbSpline
210
0.0
220
0.0
230
1.0
 70
     9
 71
     3
 72
    17
 73
    13
 74
     0
 42
0.0000000001
 43
0.0000000001
 40
0.0
 40
0.0
 40
0.0
 40
0.0
 40
1.0
 40
1.0
 40
1.0
 40
2.0
 40
2.0
 40
2.0
 40
3.0
 40
3.0
 40
3.0
 40
4.0
 40
4.0
 40
4.0
 40
4.0
 10
77.49037169906305
 20
37.21050175406726
 30
0.0
 10
77.21520916977009
 20
37.21050175406726
 30
0.0
 10
76.98943464873767
 20
37.43275048268433
 30
0.0
 10
76.98943464873767
 20
37.71143880439262
 30
0.0
 10
76.98943464873767
 20
37.99012712610092
 30
0.0
 10
77.21168337735476
 20
38.21237585471799
 30
0.0
 10
77.49037169906305
 20
38.21237585471799
 30
0.0
 10
77.76906002077133
 20
38.21237585471799
 30
0.0
 10
77.99130874938841
 20
37.99012712610092
 30
0.0
 10
77.99130874938841
 20
37.71143880439262
 30
0.0
 10
77.99130874938841
 20
37.43275048268433
 30
0.0
 10
77.76906002077133
 20
37.21050175406726
 30
0.0
 10
77.49037169906305
 20
37.21050175406726
 30
0.0
  0
SPLINE
  5
96
330
70
100
AcDbEntity
  8
PCB holes
 62
     5
420
      255
370
     9
100
AcDbSpline
210
0.0
220
0.0
230
1.0
 70
     9
 71
     3
 72
    17
 73
    13
 74
     0
 42
0.0000000001
 43
0.0000000001
 40
0.0
 40
0.0
 40
0.0
 40
0.0
 40
1.0
 40
1.0
 40
1.0
 40
2.0
 40
2.0
 40
2.0
 40
3.0
 40
3.0
 40
3.0
 40
4.0
 40
4.0
 40
4.0
 40
4.0
 10
77.49037169906305
 20
35.21027934518111
 30
0.0
 10
77.21520916977009
 20
35.21027934518111
 30
0.0
 10
76.98943464873767
 20
35.43252807379819
 30
0.0
 10
76.98943464873767
 20
35.71121639550649
 30
0.0
 10
76.98943464873767
 20
35.98990471721477
 30
0.0
 10
77.21168337735476
 20
36.21215344583185
 30
0.0
 10
77.49037169906305
 20
36.21215344583185
 30
0.0
 10
77.76906002077133
 20
36.21215344583185
 30
0.0
 10
77.99130874938841
 20
35.98990471721477
 30
0.0
 10
77.99130874938841
 20
35.71121639550649
 30
0.0
 10
77.99130874938841
 20
35.43252807379819
 30
0.0
 10
77.76906002077133
 20
35.21027934518111
 30
0.0
 10
77.49037169906305
 20
35.21027934518111
 30
0.0
  0
SPLINE
  5
97
330
70
100
AcDbEntity
  8
PCB holes
 62
     5
420
      255
370
     9
100
AcDbSpline
210
0.0
220
0.0
230
1.0
 70
     9
 71
     3
 72
    17
 73
    13
 74
     0
 42
0.0000000001
 43
0.0000000001
 40
0.0
 40
0.0
 40
0.0
 40
0.0
 40
1.0
 40
1.0
 40
1.0
 40
2.0
 40
2.0
 40
2.0
 40
3.0
 40
3.0
 40
3.0
 40
4.0
 40
4.0
 40
4.0
 40
4.0
 10
77.49037169906305
 20
33.21005693629497
 30
0.0
 10
77.21520916977009
 20
33.21005693629497
 30
0.0
 10
76.98943464873767
 20
33.43230566491205
 30
0.0
 10
76.98943464873767
 20
33.71099398662034
 30
0.0
 10
76.98943464873767
 20
33.98968230832863
 30
0.0
 10
77.21168337735476
 20
34.21193103694571
 30
0.0
 10
77.49037169906305
 20
34.21193103694571
 30
0.0
 10
77.76906002077133
 20
34.21193103694571
 30
0.0
 10
77.99130874938841
 20
33.98968230832863
 30
0.0
 10
77.99130874938841
 20
33.71099398662034
 30
0.0
 10
77.99130874938841
 20
33.43230566491205
 30
0.0
 10
77.76906002077133
 20
33.21005693629497
 30
0.0
 10
77.49037169906305
 20
33.21005693629497
 30
0.0
  0
SPLINE
  5
98
330
70
100
AcDbEntity
  8
PCB holes
 62
     5
420
      255
370
     9
100
AcDbSpline
210
0.0
220
0.0
230
1.0
 70
     9
 71
     3
 72
    17
 73
    13
 74
     0
 42
0.0000000001
 43
0.0000000001
 40
0.0
 40
0.0
 40
0.0
 40
0.0
 40
1.0
 40
1.0
 40
1.0
 40
2.0
 40
2.0
 40
2.0
 40
3.0
 40
3.0
 40
3.0
 40
4.0
 40
4.0
 40
4.0
 40
4.0
 10
75.4901492901769
 20
41.21095195472872
 30
0.0
 10
75.21498676088395
 20
41.21095195472872
 30
0.0
 10
74.98921223985154
 20
41.43320068334579
 30
0.0
 10
74.98921223985154
 20
41.71188900505408
 30
0.0
 10
74.98921223985154
 20
41.99057732676237
 30
0.0
 10
75.21146096846861
 20
42.21282605537946
 30
0.0
 10
75.4901492901769
 20
42.21282605537946
 30
0.0
 10
75.76883761188518
 20
42.21282605537946
 30
0.0
 10
75.99108634050226
 20
41.99057732676237
 30
0.0
 10
75.99108634050226
 20
41.71188900505408
 30
0.0
 10
75.99108634050226
 20
41.43320068334579
 30
0.0
 10
75.76883761188518
 20
41.21095195472872
 30
0.0
 10
75.4901492901769
 20
41.21095195472872
 30
0.0
  0
SPLINE
  5
99
330
70
100
AcDbEntity
  8
PCB holes
 62
     5
420
      255
370
     9
100
AcDbSpline
210
0.0
220
0.0
230
1.0
 70
     9
 71
     3
 72
    17
 73
    13
 74
     0
 42
0.0000000001
 43
0.0000000001
 40
0.0
 40
0.0
 40
0.0
 40
0.0
 40
1.0
 40
1.0
 40
1.0
 40
2.0
 40
2.0
 40
2.0
 40
3.0
 40
3.0
 40
3.0
 40
4.0
 40
4.0
 40
4.0
 40
4.0
 10
75.4901492901769
 20
39.21072954584258
 30
0.0
 10
75.21498676088395
 20
39.21072954584258
 30
0.0
 10
74.98921223985154
 20
39.43297827445966
 30
0.0
 10
74.98921223985154
 20
39.71166659616795
 30
0.0
 10
74.98921223985154
 20
39.99035491787624
 30
0.0
 10
75.21146096846861
 20
40.21260364649331
 30
0.0
 10
75.4901492901769
 20
40.21260364649331
 30
0.0
 10
75.76883761188518
 20
40.21260364649331
 30
0.0
 10
75.99108634050226
 20
39.99035491787624
 30
0.0
 10
75.99108634050226
 20
39.71166659616795
 30
0.0
 10
75.99108634050226
 20
39.43297827445966
 30
0.0
 10
75.76883761188518
 20
39.21072954584258
 30
0.0
 10
75.4901492901769
 20
39.21072954584258
 30
0.0
  0
SPLINE
  5
9A
330
70
100
AcDbEntity
  8
PCB holes
 62
     5
420
      255
370
     9
100
AcDbSpline
210
0.0
220
0.0
230
1.0
 70
     9
 71
     3
 72
    17
 73
    13
 74
     0
 42
0.0000000001
 43
0.0000000001
 40
0.0
 40
0.0
 40
0.0
 40
0.0
 40
1.0
 40
1.0
 40
1.0
 40
2.0
 40
2.0
 40
2.0
 40
3.0
 40
3.0
 40
3.0
 40
4.0
 40
4.0
 40
4.0
 40
4.0
 10
75.4901492901769
 20
37.21050713695644
 30
0.0
 10
75.21498676088395
 20
37.21050713695644
 30
0.0
 10
74.98921223985154
 20
37.43275586557351
 30
0.0
 10
74.98921223985154
 20
37.71144418728181
 30
0.0
 10
74.98921223985154
 20
37.9901325089901
 30
0.0
 10
75.21146096846861
 20
38.21238123760718
 30
0.0
 10
75.4901492901769
 20
38.21238123760718
 30
0.0
 10
75.76883761188518
 20
38.21238123760718
 30
0.0
 10
75.99108634050226
 20
37.9901325089901
 30
0.0
 10
75.99108634050226
 20
37.71144418728181
 30
0.0
 10
75.99108634050226
 20
37.43275586557351
 30
0.0
 10
75.76883761188518
 20
37.21050713695644
 30
0.0
 10
75.4901492901769
 20
37.21050713695644
 30
0.0
  0
SPLINE
  5
9B
330
70
100
AcDbEntity
  8
PCB holes
 62
     5
420
      255
370
     9
100
AcDbSpline
210
0.0
220
0.0
230
1.0
 70
     9
 71
     3
 72
    17
 73
    13
 74
     0
 42
0.0000000001
 43
0.0000000001
 40
0.0
 40
0.0
 40
0.0
 40
0.0
 40
1.0
 40
1.0
 40
1.0
 40
2.0
 40
2.0
 40
2.0
 40
3.0
 40
3.0
 40
3.0
 40
4.0
 40
4.0
 40
4.0
 40
4.0
 10
75.4901492901769
 20
35.2102847280703
 30
0.0
 10
75.21498676088395
 20
35.2102847280703
 30
0.0
 10
74.98921223985154
 20
35.43253345668738
 30
0.0
 10
74.98921223985154
 20
35.71122177839567
 30
0.0
 10
74.98921223985154
 20
35.98991010010396
 30
0.0
 10
75.21146096846861
 20
36.21215882872103
 30
0.0
 10
75.4901492901769
 20
36.21215882872103
 30
0.0
 10
75.76883761188518
 20
36.21215882872103
 30
0.0
 10
75.99108634050226
 20
35.98991010010396
 30
0.0
 10
75.99108634050226
 20
35.71122177839567
 30
0.0
 10
75.99108634050226
 20
35.43253345668738
 30
0.0
 10
75.76883761188518
 20
35.2102847280703
 30
0.0
 10
75.4901492901769
 20
35.2102847280703
 30
0.0
  0
SPLINE
  5
9C
330
70
100
AcDbEntity
  8
PCB holes
 62
     5
420
      255
370
     9
100
AcDbSpline
210
0.0
220
0.0
230
1.0
 70
     9
 71
     3
 72
    17
 73
    13
 74
     0
 42
0.0000000001
 43
0.0000000001
 40
0.0
 40
0.0
 40
0.0
 40
0.0
 40
1.0
 40
1.0
 40
1.0
 40
2.0
 40
2.0
 40
2.0
 40
3.0
 40
3.0
 40
3.0
 40
4.0
 40
4.0
 40
4.0
 40
4.0
 10
75.4901492901769
 20
33.21006231918416
 30
0.0
 10
75.21498676088395
 20
33.21006231918416
 30
0.0
 10
74.98921223985154
 20
33.43231104780123
 30
0.0
 10
74.98921223985154
 20
33.71099936950952
 30
0.0
 10
74.98921223985154
 20
33.98968769121782
 30
0.0
 10
75.21146096846861
 20
34.21193641983489
 30
0.0
 10
75.4901492901769
 20
34.21193641983489
 30
0.0
 10
75.76883761188518
 20
34.21193641983489
 30
0.0
 10
75.99108634050226
 20
33.98968769121782
 30
0.0
 10
75.99108634050226
 20
33.71099936950952
 30
0.0
 10
75.99108634050226
 20
33.43231104780123
 30
0.0
 10
75.76883761188518
 20
33.21006231918416
 30
0.0
 10
75.4901492901769
 20
33.21006231918416
 30
0.0
  0
SPLINE
  5
9D
330
70
100
AcDbEntity
  8
PCB holes
 62
     5
420
      255
370
     9
100
AcDbSpline
210
0.0
220
0.0
230
1.0
 70
    11
 71
     3
 72
    20
 73
    16
 74
     0
 42
0.0000000001
 43
0.0000000001
 40
0.0
 40
0.0
 40
0.0
 40
0.0
 40
1.0
 40
1.0
 40
1.0
 40
2.0
 40
2.0
 40
2.0
 40
3.0
 40
3.0
 40
3.0
 40
4.0
 40
4.0
 40
4.0
 40
5.0
 40
5.0
 40
5.0
 40
5.0
 10
71.46500777682975
 20
82.35134585400098
 30
0.0
 10
71.46500777682975
 20
82.35134585400098
 30
0.0
 10
85.46657002192192
 20
82.35134585400098
 30
0.0
 10
85.46657002192192
 20
82.35134585400098
 30
0.0
 10
85.46657002192192
 20
82.35134585400098
 30
0.0
 10
85.46657002192192
 20
68.34978360890881
 30
0.0
 10
85.46657002192192
 20
68.34978360890881
 30
0.0
 10
85.46657002192192
 20
68.34978360890881
 30
0.0
 10
71.46500777682975
 20
68.34978360890881
 30
0.0
 10
71.46500777682975
 20
68.34978360890881
 30
0.0
 10
71.46500777682975
 20
68.34978360890881
 30
0.0
 10
71.46500777682975
 20
82.35134047111179
 30
0.0
 10
71.46500777682975
 20
82.35134047111179
 30
0.0
 10
71.46500777682975
 20
82.35134047111179
 30
0.0
 10
71.46500777682975
 20
82.35134585400098
 30
0.0
 10
71.46500777682975
 20
82.35134585400098
 30
0.0
  0
SPLINE
  5
9E
330
70
100
AcDbEntity
  8
PCB holes
 62
     5
420
      255
370
     9
100
AcDbSpline
210
0.0
220
0.0
230
1.0
 70
    11
 71
     3
 72
    17
 73
    13
 74
     0
 42
0.0000000001
 43
0.0000000001
 40
0.0
 40
0.0
 40
0.0
 40
0.0
 40
1.0
 40
1.0
 40
1.0
 40
2.0
 40
2.0
 40
2.0
 40
3.0
 40
3.0
 40
3.0
 40
4.0
 40
4.0
 40
4.0
 40
4.0
 10
69.36600935142251
 20
18.2560139817018
 30
0.0
 10
69.36600935142251
 20
18.2560139817018
 30
0.0
 10
55.36797828163485
 20
18.2560139817018
 30
0.0
 10
55.36797828163485
 20
18.2560139817018
 30
0.0
 10
55.36797828163485
 20
18.2560139817018
 30
0.0
 10
55.36797828163485
 20
32.25404505148946
 30
0.0
 10
55.36797828163485
 20
32.25404505148946
 30
0.0
 10
55.36797828163485
 20
32.25404505148946
 30
0.0
 10
69.36600935142251
 20
32.25404505148946
 30
0.0
 10
69.36600935142251
 20
32.25404505148946
 30
0.0
 10
69.36600935142251
 20
32.25404505148946
 30
0.0
 10
69.36600935142251
 20
18.2560139817018
 30
0.0
 10
69.36600935142251
 20
18.2560139817018
 30
0.0
  0
SPLINE
  5
9F
330
70
100
AcDbEntity
  8
PCB holes
 62
     5
420
      255
370
     9
100
AcDbSpline
210
0.0
220
0.0
230
1.0
 70
    11
 71
     3
 72
    17
 73
    13
 74
     0
 42
0.0000000001
 43
0.0000000001
 40
0.0
 40
0.0
 40
0.0
 40
0.0
 40
1.0
 40
1.0
 40
1.0
 40
2.0
 40
2.0
 40
2.0
 40
3.0
 40
3.0
 40
3.0
 40
4.0
 40
4.0
 40
4.0
 40
4.0
 10
52.41526439746934
 20
54.25650231501538
 30
0.0
 10
52.41526439746934
 20
54.25650231501538
 30
0.0
 10
66.41682664256151
 20
54.25650231501538
 30
0.0
 10
66.41682664256151
 20
54.25650231501538
 30
0.0
 10
66.41682664256151
 20
54.25650231501538
 30
0.0
 10
66.41682664256151
 20
40.2549400699232
 30
0.0
 10
66.41682664256151
 20
40.2549400699232
 30
0.0
 10
66.41682664256151
 20
40.2549400699232
 30
0.0
 10
52.41526439746934
 20
40.2549400699232
 30
0.0
 10
52.41526439746934
 20
40.2549400699232
 30
0.0
 10
52.41526439746934
 20
40.2549400699232
 30
0.0
 10
52.41526439746934
 20
54.25650231501538
 30
0.0
 10
52.41526439746934
 20
54.25650231501538
 30
0.0
  0
SPLINE
  5
A0
330
70
100
AcDbEntity
  8
PCB holes
 62
     5
420
      255
370
     9
100
AcDbSpline
210
0.0
220
0.0
230
1.0
 70
    11
 71
     3
 72
    17
 73
    13
 74
     0
 42
0.0000000001
 43
0.0000000001
 40
0.0
 40
0.0
 40
0.0
 40
0.0
 40
1.0
 40
1.0
 40
1.0
 40
2.0
 40
2.0
 40
2.0
 40
3.0
 40
3.0
 40
3.0
 40
4.0
 40
4.0
 40
4.0
 40
4.0
 10
36.30412096683475
 20
13.8040201218647
 30
0.0
 10
36.30412096683475
 20
13.8040201218647
 30
0.0
 10
32.68114048729186
 20
27.32581083690186
 30
0.0
 10
32.68114048729186
 20
27.32581083690186
 30
0.0
 10
32.68114048729186
 20
27.32581083690186
 30
0.0
 10
46.20293120232901
 20
30.94879131644475
 30
0.0
 10
46.20293120232901
 20
30.94879131644475
 30
0.0
 10
46.20293120232901
 20
30.94879131644475
 30
0.0
 10
49.8259116818719
 20
17.42700060140759
 30
0.0
 10
49.8259116818719
 20
17.42700060140759
 30
0.0
 10
49.8259116818719
 20
17.42700060140759
 30
0.0
 10
36.30412096683475
 20
13.8040201218647
 30
0.0
 10
36.30412096683475
 20
13.8040201218647
 30
0.0
  0
SPLINE
  5
A1
330
70
100
AcDbEntity
  8
PCB holes
 62
     5
420
      255
370
     9
100
AcDbSpline
210
0.0
220
0.0
230
1.0
 70
     9
 71
     3
 72
    17
 73
    13
 74
     0
 42
0.0000000001
 43
0.0000000001
 40
0.0
 40
0.0
 40
0.0
 40
0.0
 40
1.0
 40
1.0
 40
1.0
 40
2.0
 40
2.0
 40
2.0
 40
3.0
 40
3.0
 40
3.0
 40
4.0
 40
4.0
 40
4.0
 40
4.0
 10
19.03940823546324
 20
4.610755937457851
 30
0.0
 10
19.03940823546324
 20
4.610755937457851
 30
0.0
 10
12.04039135484695
 20
16.73556310287067
 30
0.0
 10
12.04039135484695
 20
16.73556310287067
 30
0.0
 10
12.04039135484695
 20
16.73556310287067
 30
0.0
 10
24.16519986598223
 20
23.7345786377645
 30
0.0
 10
24.16519986598223
 20
23.7345786377645
 30
0.0
 10
24.16519986598223
 20
23.7345786377645
 30
0.0
 10
31.16421540087606
 20
11.60977147235168
 30
0.0
 10
31.16421540087606
 20
11.60977147235168
 30
0.0
 10
31.16421540087606
 20
11.60977147235168
 30
0.0
 10
19.03940688974078
 20
4.610755937457851
 30
0.0
 10
19.03940823546324
 20
4.610755937457851
 30
0.0
  0
SPLINE
  5
A2
330
70
100
AcDbEntity
  8
PCB holes
 62
     5
420
      255
370
     9
100
AcDbSpline
210
0.0
220
0.0
230
1.0
 70
     9
 71
     3
 72
    17
 73
    13
 74
     0
 42
0.0000000001
 43
0.0000000001
 40
0.0
 40
0.0
 40
0.0
 40
0.0
 40
1.0
 40
1.0
 40
1.0
 40
2.0
 40
2.0
 40
2.0
 40
3.0
 40
3.0
 40
3.0
 40
4.0
 40
4.0
 40
4.0
 40
4.0
 10
2.656628740812242
 20
17.80446493963698
 30
0.0
 10
2.078081026020816
 20
17.80446493963698
 30
0.0
 10
1.60536511796319
 20
18.27365370955682
 30
0.0
 10
1.60536511796319
 20
18.85572704854827
 30
0.0
 10
1.60536511796319
 20
19.43780038753972
 30
0.0
 10
2.074553215022121
 20
19.90698915745956
 30
0.0
 10
2.656628740812242
 20
19.90698915745956
 30
0.0
 10
3.238704098387056
 20
19.90698915745956
 30
0.0
 10
3.707892195445666
 20
19.43780038753972
 30
0.0
 10
3.707892195445666
 20
18.85572704854827
 30
0.0
 10
3.707892195445666
 20
18.27365370955682
 30
0.0
 10
3.238704098387056
 20
17.80446493963698
 30
0.0
 10
2.656628740812242
 20
17.80446493963698
 30
0.0
  0
SPLINE
  5
A3
330
70
100
AcDbEntity
  8
PCB holes
 62
     5
420
      255
370
     9
100
AcDbSpline
210
0.0
220
0.0
230
1.0
 70
    11
 71
     3
 72
    17
 73
    13
 74
     0
 42
0.0000000001
 43
0.0000000001
 40
0.0
 40
0.0
 40
0.0
 40
0.0
 40
1.0
 40
1.0
 40
1.0
 40
2.0
 40
2.0
 40
2.0
 40
3.0
 40
3.0
 40
3.0
 40
4.0
 40
4.0
 40
4.0
 40
4.0
 10
8.209276082126681
 20
33.47816788075727
 30
0.0
 10
8.209276082126681
 20
33.47816788075727
 30
0.0
 10
8.209276082126681
 20
46.67893385065625
 30
0.0
 10
8.209276082126681
 20
46.67893385065625
 30
0.0
 10
8.209276082126681
 20
46.67893385065625
 30
0.0
 10
21.80867594769245
 20
46.67893385065625
 30
0.0
 10
21.80867594769245
 20
46.67893385065625
 30
0.0
 10
21.80867594769245
 20
46.67893385065625
 30
0.0
 10
21.80867594769245
 20
33.47816788075727
 30
0.0
 10
21.80867594769245
 20
33.47816788075727
 30
0.0
 10
21.80867594769245
 20
33.47816788075727
 30
0.0
 10
8.209276082126681
 20
33.47816788075727
 30
0.0
 10
8.209276082126681
 20
33.47816788075727
 30
0.0
  0
SPLINE
  5
A4
330
70
100
AcDbEntity
  8
PCB holes
 62
     5
420
      255
370
     9
100
AcDbSpline
210
0.0
220
0.0
230
1.0
 70
     9
 71
     3
 72
    20
 73
    16
 74
     0
 42
0.0000000001
 43
0.0000000001
 40
0.0
 40
0.0
 40
0.0
 40
0.0
 40
1.0
 40
1.0
 40
1.0
 40
2.0
 40
2.0
 40
2.0
 40
3.0
 40
3.0
 40
3.0
 40
4.0
 40
4.0
 40
4.0
 40
5.0
 40
5.0
 40
5.0
 40
5.0
 10
2.695433652507003
 20
73.8953706181979
 30
0.0
 10
2.695433652507003
 20
73.8953706181979
 30
0.0
 10
29.08285670332384
 20
73.8953706181979
 30
0.0
 10
29.08285670332384
 20
73.8953706181979
 30
0.0
 10
29.08285670332384
 20
73.8953706181979
 30
0.0
 10
29.08285670332384
 20
59.07890354536203
 30
0.0
 10
29.08285670332384
 20
59.07890354536203
 30
0.0
 10
29.08285670332384
 20
59.07890354536203
 30
0.0
 10
2.695433484291696
 20
59.07890354536203
 30
0.0
 10
2.695433484291696
 20
59.07890354536203
 30
0.0
 10
2.695433484291696
 20
59.07890354536203
 30
0.0
 10
2.695433484291696
 20
73.8953706181979
 30
0.0
 10
2.695433484291696
 20
73.8953706181979
 30
0.0
 10
2.695433484291696
 20
73.8953706181979
 30
0.0
 10
2.695433484291696
 20
73.8953706181979
 30
0.0
 10
2.695433652507003
 20
73.8953706181979
 30
0.0
  0
SPLINE
  5
A5
330
70
100
AcDbEntity
  8
PCB holes
 62
     5
420
      255
370
     9
100
AcDbSpline
210
0.0
220
0.0
230
1.0
 70
     9
 71
     3
 72
    17
 73
    13
 74
     0
 42
0.0000000001
 43
0.0000000001
 40
0.0
 40
0.0
 40
0.0
 40
0.0
 40
1.0
 40
1.0
 40
1.0
 40
2.0
 40
2.0
 40
2.0
 40
3.0
 40
3.0
 40
3.0
 40
4.0
 40
4.0
 40
4.0
 40
4.0
 10
1.605364949747883
 20
98.28257025083676
 30
0.0
 10
1.605364949747883
 20
98.86111779741288
 30
0.0
 10
2.074553046806814
 20
99.3338337054705
 30
0.0
 10
2.656628572596935
 20
99.3338337054705
 30
0.0
 10
3.238704098387056
 20
99.3338337054705
 30
0.0
 10
3.707892195445666
 20
98.8646456084119
 30
0.0
 10
3.707892195445666
 20
98.28257025083676
 30
0.0
 10
3.707892195445666
 20
97.70049489326195
 30
0.0
 10
3.238704098387056
 20
97.23130679620332
 30
0.0
 10
2.656628572596935
 20
97.23130679620332
 30
0.0
 10
2.074553046806814
 20
97.23130679620332
 30
0.0
 10
1.605364949747883
 20
97.70049489326195
 30
0.0
 10
1.605364949747883
 20
98.28257025083676
 30
0.0
  0
SPLINE
  5
A6
330
70
100
AcDbEntity
  8
PCB holes
 62
     5
420
      255
370
     9
100
AcDbSpline
210
0.0
220
0.0
230
1.0
 70
     9
 71
     3
 72
    17
 73
    13
 74
     0
 42
0.0000000001
 43
0.0000000001
 40
0.0
 40
0.0
 40
0.0
 40
0.0
 40
1.0
 40
1.0
 40
1.0
 40
2.0
 40
2.0
 40
2.0
 40
3.0
 40
3.0
 40
3.0
 40
4.0
 40
4.0
 40
4.0
 40
4.0
 10
33.41843481878481
 20
51.20501241432876
 30
0.0
 10
33.41843481878481
 20
51.20501241432876
 30
0.0
 10
47.41647127146165
 20
51.20501241432876
 30
0.0
 10
47.41647127146165
 20
51.20501241432876
 30
0.0
 10
47.41647127146165
 20
51.20501241432876
 30
0.0
 10
47.41647127146165
 20
37.20345016923659
 30
0.0
 10
47.41647127146165
 20
37.20345016923659
 30
0.0
 10
47.41647127146165
 20
37.20345016923659
 30
0.0
 10
33.41843751022941
 20
37.20345016923659
 30
0.0
 10
33.41843751022941
 20
37.20345016923659
 30
0.0
 10
33.41843751022941
 20
37.20345016923659
 30
0.0
 10
33.41843751022941
 20
51.20501241432876
 30
0.0
 10
33.41843481878481
 20
51.20501241432876
 30
0.0
  0
SPLINE
  5
A7
330
70
100
AcDbEntity
  8
PCB holes
 62
     5
420
      255
370
     9
100
AcDbSpline
210
0.0
220
0.0
230
1.0
 70
     9
 71
     3
 72
    17
 73
    13
 74
     0
 42
0.0000000001
 43
0.0000000001
 40
0.0
 40
0.0
 40
0.0
 40
0.0
 40
1.0
 40
1.0
 40
1.0
 40
2.0
 40
2.0
 40
2.0
 40
3.0
 40
3.0
 40
3.0
 40
4.0
 40
4.0
 40
4.0
 40
4.0
 10
33.41843481878481
 20
70.30414380194973
 30
0.0
 10
33.41843481878481
 20
70.30414380194973
 30
0.0
 10
47.41647127146165
 20
70.30414380194973
 30
0.0
 10
47.41647127146165
 20
70.30414380194973
 30
0.0
 10
47.41647127146165
 20
70.30414380194973
 30
0.0
 10
47.41647127146165
 20
56.30258155685756
 30
0.0
 10
47.41647127146165
 20
56.30258155685756
 30
0.0
 10
47.41647127146165
 20
56.30258155685756
 30
0.0
 10
33.41843751022941
 20
56.30258155685756
 30
0.0
 10
33.41843751022941
 20
56.30258155685756
 30
0.0
 10
33.41843751022941
 20
56.30258155685756
 30
0.0
 10
33.41843751022941
 20
70.30414380194973
 30
0.0
 10
33.41843481878481
 20
70.30414380194973
 30
0.0
  0
SPLINE
  5
A8
330
70
100
AcDbEntity
  8
PCB holes
 62
     5
420
      255
370
     9
100
AcDbSpline
210
0.0
220
0.0
230
1.0
 70
    11
 71
     3
 72
    20
 73
    16
 74
     0
 42
0.0000000001
 43
0.0000000001
 40
0.0
 40
0.0
 40
0.0
 40
0.0
 40
1.0
 40
1.0
 40
1.0
 40
2.0
 40
2.0
 40
2.0
 40
3.0
 40
3.0
 40
3.0
 40
4.0
 40
4.0
 40
4.0
 40
5.0
 40
5.0
 40
5.0
 40
5.0
 10
33.44665730677501
 20
89.40327653529315
 30
0.0
 10
33.44665730677501
 20
89.40327653529315
 30
0.0
 10
47.44468837656266
 20
89.40327653529315
 30
0.0
 10
47.44468837656266
 20
89.40327653529315
 30
0.0
 10
47.44468837656266
 20
89.40327653529315
 30
0.0
 10
47.44468837656266
 20
75.40171563592311
 30
0.0
 10
47.44468837656266
 20
75.40171563592311
 30
0.0
 10
47.44468837656266
 20
75.40171563592311
 30
0.0
 10
33.44665461533042
 20
75.40171563592311
 30
0.0
 10
33.44665461533042
 20
75.40171563592311
 30
0.0
 10
33.44665461533042
 20
75.40171563592311
 30
0.0
 10
33.44665461533042
 20
89.40327249812609
 30
0.0
 10
33.44665461533042
 20
89.40327249812609
 30
0.0
 10
33.44665461533042
 20
89.40327249812609
 30
0.0
 10
33.44665730677501
 20
89.40327653529315
 30
0.0
 10
33.44665730677501
 20
89.40327653529315
 30
0.0
  0
SPLINE
  5
A9
330
70
100
AcDbEntity
  8
PCB holes
 62
     5
420
      255
370
     9
100
AcDbSpline
210
0.0
220
0.0
230
1.0
 70
    11
 71
     3
 72
    17
 73
    13
 74
     0
 42
0.0000000001
 43
0.0000000001
 40
0.0
 40
0.0
 40
0.0
 40
0.0
 40
1.0
 40
1.0
 40
1.0
 40
2.0
 40
2.0
 40
2.0
 40
3.0
 40
3.0
 40
3.0
 40
4.0
 40
4.0
 40
4.0
 40
4.0
 10
52.43995571015503
 20
73.28154899880093
 30
0.0
 10
52.43995571015503
 20
73.28154899880093
 30
0.0
 10
66.44151795524719
 20
73.28154899880093
 30
0.0
 10
66.44151795524719
 20
73.28154899880093
 30
0.0
 10
66.44151795524719
 20
73.28154899880093
 30
0.0
 10
66.44151795524719
 20
59.27998675370876
 30
0.0
 10
66.44151795524719
 20
59.27998675370876
 30
0.0
 10
66.44151795524719
 20
59.27998675370876
 30
0.0
 10
52.43995571015503
 20
59.27998675370876
 30
0.0
 10
52.43995571015503
 20
59.27998675370876
 30
0.0
 10
52.43995571015503
 20
59.27998675370876
 30
0.0
 10
52.43995571015503
 20
73.28154899880093
 30
0.0
 10
52.43995571015503
 20
73.28154899880093
 30
0.0
  0
SPLINE
  5
AA
330
70
100
AcDbEntity
  8
PCB holes
 62
     5
420
      255
370
     9
100
AcDbSpline
210
0.0
220
0.0
230
1.0
 70
     9
 71
     3
 72
    17
 73
    13
 74
     0
 42
0.0000000001
 43
0.0000000001
 40
0.0
 40
0.0
 40
0.0
 40
0.0
 40
1.0
 40
1.0
 40
1.0
 40
2.0
 40
2.0
 40
2.0
 40
3.0
 40
3.0
 40
3.0
 40
4.0
 40
4.0
 40
4.0
 40
4.0
 10
52.43995571015503
 20
92.36656914242679
 30
0.0
 10
52.43995571015503
 20
92.36656914242679
 30
0.0
 10
66.44151795524719
 20
92.36656914242679
 30
0.0
 10
66.44151795524719
 20
92.36656914242679
 30
0.0
 10
66.44151795524719
 20
92.36656914242679
 30
0.0
 10
66.44151795524719
 20
78.36853538119455
 30
0.0
 10
66.44151795524719
 20
78.36853538119455
 30
0.0
 10
66.44151795524719
 20
78.36853538119455
 30
0.0
 10
52.43995571015503
 20
78.36853538119455
 30
0.0
 10
52.43995571015503
 20
78.36853538119455
 30
0.0
 10
52.43995571015503
 20
78.36853538119455
 30
0.0
 10
52.43995571015503
 20
92.3665664509822
 30
0.0
 10
52.43995571015503
 20
92.36656914242679
 30
0.0
  0
SPLINE
  5
AB
330
70
100
AcDbEntity
  8
PCB holes
 62
     5
420
      255
370
     9
100
AcDbSpline
210
0.0
220
0.0
230
1.0
 70
     9
 71
     3
 72
    17
 73
    13
 74
     0
 42
0.0000000001
 43
0.0000000001
 40
0.0
 40
0.0
 40
0.0
 40
0.0
 40
1.0
 40
1.0
 40
1.0
 40
2.0
 40
2.0
 40
2.0
 40
3.0
 40
3.0
 40
3.0
 40
4.0
 40
4.0
 40
4.0
 40
4.0
 10
64.71998386806935
 20
99.29503182165094
 30
0.0
 10
65.29853141464546
 20
99.29503182165094
 30
0.0
 10
65.77124597698063
 20
98.82584372459202
 30
0.0
 10
65.77124597698063
 20
98.2437683670172
 30
0.0
 10
65.77124597698063
 20
97.66169300944239
 30
0.0
 10
65.3020572070608
 20
97.19250491238376
 30
0.0
 10
64.71998386806935
 20
97.19250491238376
 30
0.0
 10
64.13791052907789
 20
97.19250491238376
 30
0.0
 10
63.66872175915806
 20
97.66169300944239
 30
0.0
 10
63.66872175915806
 20
98.2437683670172
 30
0.0
 10
63.66872175915806
 20
98.82584372459202
 30
0.0
 10
64.13791052907789
 20
99.29503182165094
 30
0.0
 10
64.71998386806935
 20
99.29503182165094
 30
0.0
  0
SPLINE
  5
AC
330
70
100
AcDbEntity
  8
PCB holes
 62
     5
420
      255
370
     9
100
AcDbSpline
210
0.0
220
0.0
230
1.0
 70
     9
 71
     3
 72
    17
 73
    13
 74
     0
 42
0.0000000001
 43
0.0000000001
 40
0.0
 40
0.0
 40
0.0
 40
0.0
 40
1.0
 40
1.0
 40
1.0
 40
2.0
 40
2.0
 40
2.0
 40
3.0
 40
3.0
 40
3.0
 40
4.0
 40
4.0
 40
4.0
 40
4.0
 10
71.46147660152523
 20
101.3658094412207
 30
0.0
 10
71.46147660152523
 20
101.3658094412207
 30
0.0
 10
85.46303884661741
 20
101.3658094412207
 30
0.0
 10
85.46303884661741
 20
101.3658094412207
 30
0.0
 10
85.46303884661741
 20
101.3658094412207
 30
0.0
 10
85.46303884661741
 20
87.36424484111457
 30
0.0
 10
85.46303884661741
 20
87.36424484111457
 30
0.0
 10
85.46303884661741
 20
87.36424484111457
 30
0.0
 10
71.46147660152523
 20
87.36424484111457
 30
0.0
 10
71.46147660152523
 20
87.36424484111457
 30
0.0
 10
71.46147660152523
 20
87.36424484111457
 30
0.0
 10
71.46147660152523
 20
101.3658064133455
 30
0.0
 10
71.46147660152523
 20
101.3658094412207
 30
0.0
  0
SPLINE
  5
AD
330
70
100
AcDbEntity
  8
PCB holes
 62
     5
420
      255
370
     9
100
AcDbSpline
210
0.0
220
0.0
230
1.0
 70
     9
 71
     3
 72
    17
 73
    13
 74
     0
 42
0.0000000001
 43
0.0000000001
 40
0.0
 40
0.0
 40
0.0
 40
0.0
 40
1.0
 40
1.0
 40
1.0
 40
2.0
 40
2.0
 40
2.0
 40
3.0
 40
3.0
 40
3.0
 40
4.0
 40
4.0
 40
4.0
 40
4.0
 10
93.48156821001699
 20
99.33736454434439
 30
0.0
 10
94.0601211394823
 20
99.33736454434439
 30
0.0
 10
94.53283570181747
 20
98.86817611085518
 30
0.0
 10
94.53283570181747
 20
98.28610075328036
 30
0.0
 10
94.53283570181747
 20
97.70402539570554
 30
0.0
 10
94.06365231478682
 20
97.23483729864661
 30
0.0
 10
93.48156821001699
 20
97.23483729864661
 30
0.0
 10
92.89948410524718
 20
97.23483729864661
 30
0.0
 10
92.43030071821653
 20
97.70402539570554
 30
0.0
 10
92.43030071821653
 20
98.28610075328036
 30
0.0
 10
92.43030071821653
 20
98.86817611085518
 30
0.0
 10
92.89948410524718
 20
99.33736420791378
 30
0.0
 10
93.48156821001699
 20
99.33736454434439
 30
0.0
  0
SPLINE
  5
AE
330
70
100
AcDbEntity
  8
PCB holes
 62
     5
420
      255
370
     9
100
AcDbSpline
210
0.0
220
0.0
230
1.0
 70
     9
 71
     3
 72
    17
 73
    13
 74
     0
 42
0.0000000001
 43
0.0000000001
 40
0.0
 40
0.0
 40
0.0
 40
0.0
 40
1.0
 40
1.0
 40
1.0
 40
2.0
 40
2.0
 40
2.0
 40
3.0
 40
3.0
 40
3.0
 40
4.0
 40
4.0
 40
4.0
 40
4.0
 10
108.3227319784277
 20
98.32843381240444
 30
0.0
 10
108.901284907893
 20
98.32843381240444
 30
0.0
 10
109.3739994702282
 20
97.85924571534582
 30
0.0
 10
109.3739994702282
 20
97.27717035777068
 30
0.0
 10
109.3739994702282
 20
96.69509500019588
 30
0.0
 10
108.9048160831975
 20
96.22590690313726
 30
0.0
 10
108.3227319784277
 20
96.22590690313726
 30
0.0
 10
107.7406478736579
 20
96.22590690313726
 30
0.0
 10
107.2714644866272
 20
96.69509500019588
 30
0.0
 10
107.2714644866272
 20
97.27717035777068
 30
0.0
 10
107.2714644866272
 20
97.85924571534582
 30
0.0
 10
107.7406478736579
 20
98.32843381240444
 30
0.0
 10
108.3227319784277
 20
98.32843381240444
 30
0.0
  0
SPLINE
  5
AF
330
70
100
AcDbEntity
  8
PCB holes
 62
     5
420
      255
370
     9
100
AcDbSpline
210
0.0
220
0.0
230
1.0
 70
    11
 71
     3
 72
    20
 73
    16
 74
     0
 42
0.0000000001
 43
0.0000000001
 40
0.0
 40
0.0
 40
0.0
 40
0.0
 40
1.0
 40
1.0
 40
1.0
 40
2.0
 40
2.0
 40
2.0
 40
3.0
 40
3.0
 40
3.0
 40
4.0
 40
4.0
 40
4.0
 40
5.0
 40
5.0
 40
5.0
 40
5.0
 10
116.3765354146482
 20
77.52540806546064
 30
0.0
 10
116.3765354146482
 20
77.52540806546064
 30
0.0
 10
130.1629005159539
 20
75.09480213478004
 30
0.0
 10
130.1629005159539
 20
75.09480213478004
 30
0.0
 10
130.1629005159539
 20
75.09480213478004
 30
0.0
 10
127.7322892023841
 20
61.30843165058509
 30
0.0
 10
127.7322892023841
 20
61.30843165058509
 30
0.0
 10
127.7322892023841
 20
61.30843165058509
 30
0.0
 10
113.9459133353
 20
63.73903758126569
 30
0.0
 10
113.9459133353
 20
63.73903758126569
 30
0.0
 10
113.9459133353
 20
63.73903758126569
 30
0.0
 10
116.3765246488698
 20
77.52540806546064
 30
0.0
 10
116.3765246488698
 20
77.52540806546064
 30
0.0
 10
116.3765246488698
 20
77.52540806546064
 30
0.0
 10
116.3765354146482
 20
77.52540806546064
 30
0.0
 10
116.3765354146482
 20
77.52540806546064
 30
0.0
  0
SPLINE
  5
B0
330
70
100
AcDbEntity
  8
PCB holes
 62
     5
420
      255
370
     9
100
AcDbSpline
210
0.0
220
0.0
230
1.0
 70
    11
 71
     3
 72
   143
 73
   139
 74
     0
 42
0.0000000001
 43
0.0000000001
 40
0.0
 40
0.0
 40
0.0
 40
0.0
 40
1.0
 40
1.0
 40
1.0
 40
2.0
 40
2.0
 40
2.0
 40
3.0
 40
3.0
 40
3.0
 40
4.0
 40
4.0
 40
4.0
 40
5.0
 40
5.0
 40
5.0
 40
6.0
 40
6.0
 40
6.0
 40
7.0
 40
7.0
 40
7.0
 40
8.0
 40
8.0
 40
8.0
 40
9.0
 40
9.0
 40
9.0
 40
10.0
 40
10.0
 40
10.0
 40
11.0
 40
11.0
 40
11.0
 40
12.0
 40
12.0
 40
12.0
 40
13.0
 40
13.0
 40
13.0
 40
14.0
 40
14.0
 40
14.0
 40
15.0
 40
15.0
 40
15.0
 40
16.0
 40
16.0
 40
16.0
 40
17.0
 40
17.0
 40
17.0
 40
18.0
 40
18.0
 40
18.0
 40
19.0
 40
19.0
 40
19.0
 40
20.0
 40
20.0
 40
20.0
 40
21.0
 40
21.0
 40
21.0
 40
22.0
 40
22.0
 40
22.0
 40
23.0
 40
23.0
 40
23.0
 40
24.0
 40
24.0
 40
24.0
 40
25.0
 40
25.0
 40
25.0
 40
26.0
 40
26.0
 40
26.0
 40
27.0
 40
27.0
 40
27.0
 40
28.0
 40
28.0
 40
28.0
 40
29.0
 40
29.0
 40
29.0
 40
30.0
 40
30.0
 40
30.0
 40
31.0
 40
31.0
 40
31.0
 40
32.0
 40
32.0
 40
32.0
 40
33.0
 40
33.0
 40
33.0
 40
34.0
 40
34.0
 40
34.0
 40
35.0
 40
35.0
 40
35.0
 40
36.0
 40
36.0
 40
36.0
 40
37.0
 40
37.0
 40
37.0
 40
38.0
 40
38.0
 40
38.0
 40
39.0
 40
39.0
 40
39.0
 40
40.0
 40
40.0
 40
40.0
 40
41.0
 40
41.0
 40
41.0
 40
42.0
 40
42.0
 40
42.0
 40
43.0
 40
43.0
 40
43.0
 40
44.0
 40
44.0
 40
44.0
 40
45.0
 40
45.0
 40
45.0
 40
46.0
 40
46.0
 40
46.0
 40
46.0
 10
149.7382830241038
 20
60.92390765319126
 30
0.0
 10
149.7382830241038
 20
60.92390765319126
 30
0.0
 10
131.7327447859348
 20
64.10239336694458
 30
0.0
 10
131.7327447859348
 20
64.10239336694458
 30
0.0
 10
131.7327447859348
 20
64.10239336694458
 30
0.0
 10
134.0575177323744
 20
77.29257657670839
 30
0.0
 10
134.0575177323744
 20
77.29257657670839
 30
0.0
 10
134.12454546849
 20
77.67357209024229
 30
0.0
 10
133.8705484594674
 20
78.03692787592118
 30
0.0
 10
133.4895583288227
 20
78.10395561203676
 30
0.0
 10
133.4895583288227
 20
78.10395561203676
 30
0.0
 10
129.6831343687881
 20
78.77775338271864
 30
0.0
 10
129.6831343687881
 20
78.77775338271864
 30
0.0
 10
129.6831343687881
 20
78.77775338271864
 30
0.0
 10
129.6831343687881
 20
100.1945997397676
 30
0.0
 10
129.6831343687881
 20
100.1945997397676
 30
0.0
 10
129.6831343687881
 20
100.5826502024379
 30
0.0
 10
129.3691612084806
 20
100.8930905052882
 30
0.0
 10
128.9846399025313
 20
100.8930905052882
 30
0.0
 10
128.9846399025313
 20
100.8930905052882
 30
0.0
 10
88.97664978372565
 20
100.8930905052882
 30
0.0
 10
88.97664978372565
 20
100.8930905052882
 30
0.0
 10
88.97664978372565
 20
100.8930905052882
 30
0.0
 10
88.97664978372565
 20
104.1421300840031
 30
0.0
 10
88.97664978372565
 20
104.1421300840031
 30
0.0
 10
88.97664978372565
 20
104.5301804205119
 30
0.0
 10
88.66268200630731
 20
104.8406206813081
 30
0.0
 10
88.27816070035806
 20
104.8406206813081
 30
0.0
 10
88.27816070035806
 20
104.8406206813081
 30
0.0
 10
68.65339556683686
 20
104.8406206813081
 30
0.0
 10
68.65339556683686
 20
104.8406206813081
 30
0.0
 10
68.26534308558311
 20
104.8406206813081
 30
0.0
 10
67.95490648346929
 20
104.5266526936207
 30
0.0
 10
67.95490648346929
 20
104.1421300840031
 30
0.0
 10
67.95490648346929
 20
104.1421300840031
 30
0.0
 10
67.95490648346929
 20
100.8930905052882
 30
0.0
 10
67.95490648346929
 20
100.8930905052882
 30
0.0
 10
67.95490648346929
 20
100.8930905052882
 30
0.0
 10
0.7481263900188813
 20
100.8930905052882
 30
0.0
 10
0.7481263900188813
 20
100.8930905052882
 30
0.0
 10
0.3600760535100494
 20
100.8930905052882
 30
0.0
 10
0.0496357927138616
 20
100.5791223914393
 30
0.0
 10
0.0496357927138616
 20
100.1946000761982
 30
0.0
 10
0.0496357927138616
 20
100.1946000761982
 30
0.0
 10
0.0496357927138616
 20
30.36670721167493
 30
0.0
 10
0.0496357927138616
 20
30.36670721167493
 30
0.0
 10
0.0496357927138616
 20
30.36670721167493
 30
0.0
 10
13.01757279708987
 20
30.36670721167493
 30
0.0
 10
13.01757279708987
 20
30.36670721167493
 30
0.0
 10
13.01757279708987
 20
30.36670721167493
 30
0.0
 10
13.01757279708987
 20
21.21577406780879
 30
0.0
 10
13.01757279708987
 20
21.21577406780879
 30
0.0
 10
13.01757279708987
 20
21.21577406780879
 30
0.0
 10
0.0496358400244067
 20
21.21577406780879
 30
0.0
 10
0.0496358400244067
 20
21.21577406780879
 30
0.0
 10
0.0496358400244067
 20
21.21577406780879
 30
0.0
 10
0.0496358400244067
 20
4.758914579350324
 30
0.0
 10
0.0496358400244067
 20
4.758914579350324
 30
0.0
 10
0.0496358400244067
 20
4.370862098096568
 30
0.0
 10
0.3636038224549975
 20
4.060420113093563
 30
0.0
 10
0.7481264741266953
 20
4.060420113093563
 30
0.0
 10
0.7481264741266953
 20
4.060420113093563
 30
0.0
 10
15.32470736139664
 20
4.060420113093563
 30
0.0
 10
15.32470736139664
 20
4.060420113093563
 30
0.0
 10
15.32470736139664
 20
4.060420113093563
 30
0.0
 10
17.43781837652144
 20
0.3986343854253005
 30
0.0
 10
17.43781837652144
 20
0.3986343854253005
 30
0.0
 10
17.63184327142618
 20
0.0634957048474278
 30
0.0
 10
18.06222679322064
 20
-0.0529146566395153
 30
0.0
 10
18.39736143663147
 20
0.1446373764026937
 30
0.0
 10
18.39736143663147
 20
0.1446373764026937
 30
0.0
 10
24.61322311563172
 20
3.75702971292122
 30
0.0
 10
24.61322311563172
 20
3.75702971292122
 30
0.0
 10
24.64497139603725
 20
3.781726408496088
 30
0.0
 10
24.68025085174729
 20
3.802891928766441
 30
0.0
 10
24.71552761601274
 20
3.82052627373228
 30
0.0
 10
24.74375010400294
 20
3.841691794002633
 30
0.0
 10
24.77197259199314
 20
3.859326138968472
 30
0.0
 10
24.80372087239867
 20
3.876971249712678
 30
0.0
 10
25.31524068285922
 20
4.201527170155374
 30
0.0
 10
25.82676318476436
 20
4.515489564684526
 30
0.0
 10
26.34181147908482
 20
4.818879964856868
 30
0.0
 10
26.51466950799675
 20
4.924707566208635
 30
0.0
 10
26.69105602076861
 20
5.023483582729739
 30
0.0
 10
26.86391674112514
 20
5.125790774555359
 30
0.0
 10
32.40245216558356
 20
8.325444700023629
 30
0.0
 10
38.34667979915078
 20
10.81602139909996
 30
0.0
 10
44.00163096798533
 20
12.32942069310043
 30
0.0
 10
50.16104497956059
 20
13.98039586885819
 30
0.0
 10
56.50390785451673
 20
14.84116291244711
 30
0.0
 10
62.38463354438369
 20
14.86232843271747
 30
0.0
 10
62.38463354438369
 20
14.86232843271747
 30
0.0
 10
72.19877631590738
 20
14.86232843271747
 30
0.0
 10
72.19877631590738
 20
14.86232843271747
 30
0.0
 10
72.58682879716113
 20
14.86232843271747
 30
0.0
 10
72.89726539927496
 20
15.1762962101358
 30
0.0
 10
72.89726539927496
 20
15.56081751608504
 30
0.0
 10
72.89726539927496
 20
15.56081751608504
 30
0.0
 10
72.89726539927496
 20
28.62047642892221
 30
0.0
 10
72.89726539927496
 20
28.62047642892221
 30
0.0
 10
72.89726539927496
 20
28.62047642892221
 30
0.0
 10
88.87788453298291
 20
28.62047642892221
 30
0.0
 10
88.87788453298291
 20
28.62047642892221
 30
0.0
 10
88.87788453298291
 20
28.62047642892221
 30
0.0
 10
103.9695141351117
 20
27.56215735229107
 30
0.0
 10
103.9695141351117
 20
27.56215735229107
 30
0.0
 10
103.9695141351117
 20
27.56215735229107
 30
0.0
 10
103.3627441005454
 20
24.12967732095974
 30
0.0
 10
103.3627441005454
 20
24.12967732095974
 30
0.0
 10
103.2957163644298
 20
23.74868180742582
 30
0.0
 10
103.5497133734524
 20
23.38532602174694
 30
0.0
 10
103.9307035040972
 20
23.31829828563136
 30
0.0
 10
103.9307035040972
 20
23.31829828563136
 30
0.0
 10
123.1991644367701
 20
19.92109232712088
 30
0.0
 10
123.1991644367701
 20
19.92109232712088
 30
0.0
 10
123.5801545674149
 20
19.85406459100531
 30
0.0
 10
123.9435103530938
 20
20.10806160002791
 30
0.0
 10
124.0105380892093
 20
20.48905711356183
 30
0.0
 10
124.0105380892093
 20
20.48905711356183
 30
0.0
 10
124.7513635960068
 20
24.69058513968083
 30
0.0
 10
124.7513635960068
 20
24.69058513968083
 30
0.0
 10
124.7513635960068
 20
24.69058513968083
 30
0.0
 10
142.7886501145813
 20
21.50857094206759
 30
0.0
 10
142.7886501145813
 20
21.50857094206759
 30
0.0
 10
143.169640245226
 20
21.44154320595201
 30
0.0
 10
143.5329960309049
 20
21.69554021497462
 30
0.0
 10
143.6000237670205
 20
22.07653572850853
 30
0.0
 10
143.6000237670205
 20
22.07653572850853
 30
0.0
 10
150.3097628371817
 20
60.12310599510888
 30
0.0
 10
150.3097628371817
 20
60.12310599510888
 30
0.0
 10
150.3767905732972
 20
60.50410150864279
 30
0.0
 10
150.1227935642746
 20
60.86745729432167
 30
0.0
 10
149.7418034336299
 20
60.93448503043725
 30
0.0
 10
149.7418034336299
 20
60.93448503043725
 30
0.0
 10
149.7418034336299
 20
60.92390227030207
 30
0.0
 10
149.7418034336299
 20
60.92390227030207
 30
0.0
 10
149.7418034336299
 20
60.92390227030207
 30
0.0
 10
149.7382830241038
 20
60.92390765319126
 30
0.0
 10
149.7382830241038
 20
60.92390765319126
 30
0.0
  0
ENDSEC
  0
SECTION
  2
OBJECTS
  0
DICTIONARY
  5
C
330
0
100
AcDbDictionary
281
     1
  3
ACAD_COLOR
350
63
  3
ACAD_DETAILVIEWSTYLE
350
6A
  3
ACAD_GROUP
350
D
  3
ACAD_LAYOUT
350
62
  3
ACAD_MATERIAL
350
10
  3
ACAD_MLEADERSTYLE
350
66
  3
ACAD_MLINESTYLE
350
5F
  3
ACAD_PLOTSETTINGS
350
61
  3
ACAD_PLOTSTYLENAME
350
E
  3
ACAD_SCALELIST
350
42
  3
ACAD_SECTIONVIEWSTYLE
350
68
  3
ACAD_TABLESTYLE
350
64
  3
ACAD_VISUALSTYLE
350
29
  3
ACDB_RECOMPOSE_DATA
350
B9
  3
AcDbVariableDictionary
350
B1
  0
DICTIONARY
  5
63
102
{ACAD_REACTORS
330
C
102
}
330
C
100
AcDbDictionary
281
     1
  0
DICTIONARY
  5
6A
102
{ACAD_REACTORS
330
C
102
}
330
C
100
AcDbDictionary
281
     1
  3
Imperial24
350
6B
  0
DICTIONARY
  5
D
102
{ACAD_REACTORS
330
C
102
}
330
C
100
AcDbDictionary
281
     1
  0
DICTIONARY
  5
62
102
{ACAD_REACTORS
330
C
102
}
330
C
100
AcDbDictionary
281
     1
  3
Layout1
350
6F
  3
Layout2
350
77
  3
Model
350
73
  0
DICTIONARY
  5
10
102
{ACAD_REACTORS
330
C
102
}
330
C
100
AcDbDictionary
281
     1
  3
ByBlock
350
19
  3
ByLayer
350
11
  3
Global
350
21
  0
DICTIONARY
  5
66
102
{ACAD_REACTORS
330
C
102
}
330
C
100
AcDbDictionary
281
     1
  3
Standard
350
67
  0
DICTIONARY
  5
5F
102
{ACAD_REACTORS
330
C
102
}
330
C
100
AcDbDictionary
281
     1
  3
Standard
350
60
  0
DICTIONARY
  5
61
102
{ACAD_REACTORS
330
C
102
}
330
C
100
AcDbDictionary
281
     1
  0
ACDBDICTIONARYWDFLT
  5
E
102
{ACAD_REACTORS
330
C
102
}
330
C
100
AcDbDictionary
281
     1
  3
Normal
350
F
100
AcDbDictionaryWithDefault
340
F
  0
DICTIONARY
  5
42
102
{ACAD_REACTORS
330
C
102
}
330
C
100
AcDbDictionary
281
     1
  3
A0
350
43
  3
A1
350
44
  3
A2
350
45
  3
A3
350
46
  3
A4
350
47
  3
A5
350
48
  3
A6
350
49
  3
A7
350
4A
  3
A8
350
4B
  3
A9
350
4C
  3
B0
350
4D
  3
B1
350
4E
  3
B2
350
4F
  3
B3
350
50
  3
B4
350
51
  3
B5
350
52
  3
B6
350
53
  0
DICTIONARY
  5
68
102
{ACAD_REACTORS
330
C
102
}
330
C
100
AcDbDictionary
281
     1
  3
Imperial24
350
69
  0
DICTIONARY
  5
64
102
{ACAD_REACTORS
330
C
102
}
330
C
100
AcDbDictionary
281
     1
  3
Standard
350
65
  0
DICTIONARY
  5
29
102
{ACAD_REACTORS
330
C
102
}
330
C
100
AcDbDictionary
281
     1
  3
2dWireframe
350
2F
  3
Basic
350
2E
  3
Brighten
350
35
  3
ColorChange
350
39
  3
Conceptual
350
32
  3
Dim
350
34
  3
EdgeColorOff
350
41
  3
Facepattern
350
38
  3
Flat
350
2A
  3
FlatWithEdges
350
2B
  3
Gouraud
350
2C
  3
GouraudWithEdges
350
2D
  3
Hidden
350
31
  3
JitterOff
350
3F
  3
Linepattern
350
37
  3
OverhangOff
350
40
  3
Realistic
350
33
  3
Shaded
350
3E
  3
Shaded with edges
350
3D
  3
Shades of Gray
350
3A
  3
Sketchy
350
3B
  3
Thicken
350
36
  3
Wireframe
350
30
  3
X-Ray
350
3C
  0
XRECORD
  5
B9
102
{ACAD_REACTORS
330
C
102
}
330
C
100
AcDbXrecord
280
     1
 90
        1
330
65
  0
DICTIONARY
  5
B1
102
{ACAD_REACTORS
330
C
102
}
330
C
100
AcDbDictionary
281
     1
  3
CANNOSCALE
350
B6
  3
CMLEADERSTYLE
350
B3
  3
CTABLESTYLE
350
B2
  3
CVIEWDETAILSTYLE
350
B4
  3
CVIEWSECTIONSTYLE
350
B5
  0
ACDBDETAILVIEWSTYLE
  5
6B
102
{ACAD_REACTORS
330
6A
102
}
330
6A
100
AcDbModelDocViewStyle
 70
     0
  3
Imperial24
290
     1
300
Imperial24
 90
        0
100
AcDbDetailViewStyle
 70
     0
 71
     0
 90
        3
 71
     1
340
55
 62
   256
 40
0.24
340
0
 62
   256
 40
0.24
300

 40
0.36
280
     3
 71
     2
340
5D
 90
       25
 62
   256
 71
     3
340
55
 62
   256
 40
0.24
 90
        1
 40
0.75
 90
        1
300
%<\AcVar ViewType \f "%tc1">% %<\AcVar ViewDetailId>%\PSCALE %<\AcVar ViewScale \f "%sn">%
 71
     4
340
5D
 90
       25
 62
   256
340
5D
 90
       25
 62
   256
280
     0
  0
LAYOUT
  5
6F
102
{ACAD_REACTORS
330
62
102
}
330
62
100
AcDbPlotSettings
  1

  2

  4

  6

 40
0.0
 41
0.0
 42
0.0
 43
0.0
 44
0.0
 45
0.0
 46
0.0
 47
0.0
 48
0.0
 49
0.0
140
0.0
141
0.0
142
1.0
143
1.0
 70
   688
 72
     0
 73
     0
 74
     5
  7

 75
    16
147
1.0
 76
     0
 77
     2
 78
   300
148
0.0
149
0.0
100
AcDbLayout
  1
Layout1
 70
     1
 71
     1
 10
0.0
 20
0.0
 11
12.0
 21
9.0
 12
0.0
 22
0.0
 32
0.0
 14
0.0
 24
0.0
 34
0.0
 15
0.0
 25
0.0
 35
0.0
146
0.0
 13
0.0
 23
0.0
 33
0.0
 16
1.0
 26
0.0
 36
0.0
 17
0.0
 27
1.0
 37
0.0
 76
     0
330
6C
  0
LAYOUT
  5
77
102
{ACAD_REACTORS
330
62
102
}
330
62
100
AcDbPlotSettings
  1

  2

  4

  6

 40
0.0
 41
0.0
 42
0.0
 43
0.0
 44
0.0
 45
0.0
 46
0.0
 47
0.0
 48
0.0
 49
0.0
140
0.0
141
0.0
142
1.0
143
1.0
 70
   688
 72
     0
 73
     0
 74
     5
  7

 75
    16
147
1.0
 76
     0
 77
     2
 78
   300
148
0.0
149
0.0
100
AcDbLayout
  1
Layout2
 70
     1
 71
     2
 10
0.0
 20
0.0
 11
12.0
 21
9.0
 12
0.0
 22
0.0
 32
0.0
 14
0.0
 24
0.0
 34
0.0
 15
0.0
 25
0.0
 35
0.0
146
0.0
 13
0.0
 23
0.0
 33
0.0
 16
1.0
 26
0.0
 36
0.0
 17
0.0
 27
1.0
 37
0.0
 76
     0
330
74
  0
LAYOUT
  5
73
102
{ACAD_REACTORS
330
62
102
}
330
62
100
AcDbPlotSettings
  1

  2

  4

  6

 40
0.0
 41
0.0
 42
0.0
 43
0.0
 44
0.0
 45
0.0
 46
0.0
 47
0.0
 48
0.0
 49
0.0
140
0.0
141
0.0
142
1.0
143
1.0
 70
  1712
 72
     0
 73
     0
 74
     0
  7

 75
     0
147
1.0
 76
     0
 77
     2
 78
   300
148
0.0
149
0.0
100
AcDbLayout
  1
Model
 70
     1
 71
     0
 10
0.0
 20
0.0
 11
12.0
 21
9.0
 12
0.0
 22
0.0
 32
0.0
 14
0.0
 24
0.0
 34
0.0
 15
0.0
 25
0.0
 35
0.0
146
0.0
 13
0.0
 23
0.0
 33
0.0
 16
1.0
 26
0.0
 36
0.0
 17
0.0
 27
1.0
 37
0.0
 76
     0
330
70
  0
MATERIAL
  5
19
102
{ACAD_XDICTIONARY
360
1A
102
}
102
{ACAD_REACTORS
330
10
102
}
330
10
100
AcDbMaterial
  1
ByBlock
 72
     0
 43
0.0208333333333333
 43
0.0
 43
0.0
 43
0.0
 43
0.0
 43
0.0208333333333333
 43
0.0
 43
0.0
 43
0.0
 43
0.0
 43
1.0
 43
0.0
 43
0.0
 43
0.0
 43
0.0
 43
1.0
 77
     0
 47
0.0208333333333333
 47
0.0
 47
0.0
 47
0.0
 47
0.0
 47
0.0208333333333333
 47
0.0
 47
0.0
 47
0.0
 47
0.0
 47
1.0
 47
0.0
 47
0.0
 47
0.0
 47
0.0
 47
1.0
171
     0
 49
0.0208333333333333
 49
0.0
 49
0.0
 49
0.0
 49
0.0
 49
0.0208333333333333
 49
0.0
 49
0.0
 49
0.0
 49
0.0
 49
1.0
 49
0.0
 49
0.0
 49
0.0
 49
0.0
 49
1.0
175
     0
142
0.0208333333333333
142
0.0
142
0.0
142
0.0
142
0.0
142
0.0208333333333333
142
0.0
142
0.0
142
0.0
142
0.0
142
1.0
142
0.0
142
0.0
142
0.0
142
0.0
142
1.0
179
     0
144
0.0208333333333333
144
0.0
144
0.0
144
0.0
144
0.0
144
0.0208333333333333
144
0.0
144
0.0
144
0.0
144
0.0
144
1.0
144
0.0
144
0.0
144
0.0
144
0.0
144
1.0
147
0.0208333333333333
147
0.0
147
0.0
147
0.0
147
0.0
147
0.0208333333333333
147
0.0
147
0.0
147
0.0
147
0.0
147
1.0
147
0.0
147
0.0
147
0.0
147
0.0
147
1.0
  0
MATERIAL
  5
11
102
{ACAD_XDICTIONARY
360
12
102
}
102
{ACAD_REACTORS
330
10
102
}
330
10
100
AcDbMaterial
  1
ByLayer
 72
     0
 43
0.0208333333333333
 43
0.0
 43
0.0
 43
0.0
 43
0.0
 43
0.0208333333333333
 43
0.0
 43
0.0
 43
0.0
 43
0.0
 43
1.0
 43
0.0
 43
0.0
 43
0.0
 43
0.0
 43
1.0
 77
     0
 47
0.0208333333333333
 47
0.0
 47
0.0
 47
0.0
 47
0.0
 47
0.0208333333333333
 47
0.0
 47
0.0
 47
0.0
 47
0.0
 47
1.0
 47
0.0
 47
0.0
 47
0.0
 47
0.0
 47
1.0
171
     0
 49
0.0208333333333333
 49
0.0
 49
0.0
 49
0.0
 49
0.0
 49
0.0208333333333333
 49
0.0
 49
0.0
 49
0.0
 49
0.0
 49
1.0
 49
0.0
 49
0.0
 49
0.0
 49
0.0
 49
1.0
175
     0
142
0.0208333333333333
142
0.0
142
0.0
142
0.0
142
0.0
142
0.0208333333333333
142
0.0
142
0.0
142
0.0
142
0.0
142
1.0
142
0.0
142
0.0
142
0.0
142
0.0
142
1.0
179
     0
144
0.0208333333333333
144
0.0
144
0.0
144
0.0
144
0.0
144
0.0208333333333333
144
0.0
144
0.0
144
0.0
144
0.0
144
1.0
144
0.0
144
0.0
144
0.0
144
0.0
144
1.0
147
0.0208333333333333
147
0.0
147
0.0
147
0.0
147
0.0
147
0.0208333333333333
147
0.0
147
0.0
147
0.0
147
0.0
147
1.0
147
0.0
147
0.0
147
0.0
147
0.0
147
1.0
  0
MATERIAL
  5
21
102
{ACAD_XDICTIONARY
360
22
102
}
102
{ACAD_REACTORS
330
10
102
}
330
10
100
AcDbMaterial
  1
Global
 72
     0
 43
0.0208333333333333
 43
0.0
 43
0.0
 43
0.0
 43
0.0
 43
0.0208333333333333
 43
0.0
 43
0.0
 43
0.0
 43
0.0
 43
1.0
 43
0.0
 43
0.0
 43
0.0
 43
0.0
 43
1.0
 77
     0
 47
0.0208333333333333
 47
0.0
 47
0.0
 47
0.0
 47
0.0
 47
0.0208333333333333
 47
0.0
 47
0.0
 47
0.0
 47
0.0
 47
1.0
 47
0.0
 47
0.0
 47
0.0
 47
0.0
 47
1.0
171
     0
 49
0.0208333333333333
 49
0.0
 49
0.0
 49
0.0
 49
0.0
 49
0.0208333333333333
 49
0.0
 49
0.0
 49
0.0
 49
0.0
 49
1.0
 49
0.0
 49
0.0
 49
0.0
 49
0.0
 49
1.0
175
     0
142
0.0208333333333333
142
0.0
142
0.0
142
0.0
142
0.0
142
0.0208333333333333
142
0.0
142
0.0
142
0.0
142
0.0
142
1.0
142
0.0
142
0.0
142
0.0
142
0.0
142
1.0
179
     0
144
0.0208333333333333
144
0.0
144
0.0
144
0.0
144
0.0
144
0.0208333333333333
144
0.0
144
0.0
144
0.0
144
0.0
144
1.0
144
0.0
144
0.0
144
0.0
144
0.0
144
1.0
147
0.0208333333333333
147
0.0
147
0.0
147
0.0
147
0.0
147
0.0208333333333333
147
0.0
147
0.0
147
0.0
147
0.0
147
1.0
147
0.0
147
0.0
147
0.0
147
0.0
147
1.0
  0
MLEADERSTYLE
  5
67
102
{ACAD_REACTORS
330
66
102
}
330
66
100
AcDbMLeaderStyle
179
     2
170
     2
171
     1
172
     0
 90
        2
 40
0.0
 41
0.0
173
     1
 91
-1056964608
340
5B
 92
       -2
290
     1
 42
0.09
291
     1
 43
0.36
  3
Standard
 44
0.18
300

342
55
174
     1
178
     6
175
     1
176
     0
 93
-1056964608
 45
0.18
292
     0
297
     0
 46
0.18
 94
-1056964608
 47
1.0
 49
1.0
140
1.0
293
     1
141
0.0
294
     1
177
     0
142
1.0
295
     1
296
     0
143
0.125
271
     0
272
     9
273
     9
298
     1
  0
MLINESTYLE
  5
60
102
{ACAD_REACTORS
330
5F
102
}
330
5F
100
AcDbMlineStyle
  2
STANDARD
 70
     0
  3

 62
   256
 51
90.0
 52
90.0
 71
     2
 49
0.5
 62
   256
  6
BYLAYER
 49
-0.5
 62
   256
  6
BYLAYER
  0
ACDBPLACEHOLDER
  5
F
102
{ACAD_REACTORS
330
E
102
}
330
E
  0
SCALE
  5
43
102
{ACAD_REACTORS
330
42
102
}
330
42
100
AcDbScale
 70
     0
300
1:1
140
1.0
141
1.0
290
     1
  0
SCALE
  5
44
102
{ACAD_REACTORS
330
42
102
}
330
42
100
AcDbScale
 70
     0
300
1/128" = 1'-0"
140
0.0078125
141
12.0
290
     0
  0
SCALE
  5
45
102
{ACAD_REACTORS
330
42
102
}
330
42
100
AcDbScale
 70
     0
300
1/64" = 1'-0"
140
0.015625
141
12.0
290
     0
  0
SCALE
  5
46
102
{ACAD_REACTORS
330
42
102
}
330
42
100
AcDbScale
 70
     0
300
1/32" = 1'-0"
140
0.03125
141
12.0
290
     0
  0
SCALE
  5
47
102
{ACAD_REACTORS
330
42
102
}
330
42
100
AcDbScale
 70
     0
300
1/16" = 1'-0"
140
0.0625
141
12.0
290
     0
  0
SCALE
  5
48
102
{ACAD_REACTORS
330
42
102
}
330
42
100
AcDbScale
 70
     0
300
3/32" = 1'-0"
140
0.09375
141
12.0
290
     0
  0
SCALE
  5
49
102
{ACAD_REACTORS
330
42
102
}
330
42
100
AcDbScale
 70
     0
300
1/8" = 1'-0"
140
0.125
141
12.0
290
     0
  0
SCALE
  5
4A
102
{ACAD_REACTORS
330
42
102
}
330
42
100
AcDbScale
 70
     0
300
3/16" = 1'-0"
140
0.1875
141
12.0
290
     0
  0
SCALE
  5
4B
102
{ACAD_REACTORS
330
42
102
}
330
42
100
AcDbScale
 70
     0
300
1/4" = 1'-0"
140
0.25
141
12.0
290
     0
  0
SCALE
  5
4C
102
{ACAD_REACTORS
330
42
102
}
330
42
100
AcDbScale
 70
     0
300
3/8" = 1'-0"
140
0.375
141
12.0
290
     0
  0
SCALE
  5
4D
102
{ACAD_REACTORS
330
42
102
}
330
42
100
AcDbScale
 70
     0
300
1/2" = 1'-0"
140
0.5
141
12.0
290
     0
  0
SCALE
  5
4E
102
{ACAD_REACTORS
330
42
102
}
330
42
100
AcDbScale
 70
     0
300
3/4" = 1'-0"
140
0.75
141
12.0
290
     0
  0
SCALE
  5
4F
102
{ACAD_REACTORS
330
42
102
}
330
42
100
AcDbScale
 70
     0
300
1" = 1'-0"
140
1.0
141
12.0
290
     0
  0
SCALE
  5
50
102
{ACAD_REACTORS
330
42
102
}
330
42
100
AcDbScale
 70
     0
300
1-1/2" = 1'-0"
140
1.5
141
12.0
290
     0
  0
SCALE
  5
51
102
{ACAD_REACTORS
330
42
102
}
330
42
100
AcDbScale
 70
     0
300
3" = 1'-0"
140
3.0
141
12.0
290
     0
  0
SCALE
  5
52
102
{ACAD_REACTORS
330
42
102
}
330
42
100
AcDbScale
 70
     0
300
6" = 1'-0"
140
6.0
141
12.0
290
     0
  0
SCALE
  5
53
102
{ACAD_REACTORS
330
42
102
}
330
42
100
AcDbScale
 70
     0
300
1'-0" = 1'-0"
140
12.0
141
12.0
290
     0
  0
ACDBSECTIONVIEWSTYLE
  5
69
102
{ACAD_REACTORS
330
68
102
}
330
68
100
AcDbModelDocViewStyle
 70
     0
  3
Imperial24
290
     1
300
Imperial24
 90
        0
100
AcDbSectionViewStyle
 70
     0
 71
     0
 90
       78
 71
     1
340
55
 62
   256
 40
0.24
340
0
340
0
 62
   256
 40
0.24
300
I, O, Q, S, X, Z
 40
0.48
 90
        3
 40
0.18
 90
        1
 71
     2
340
5D
 90
       25
 62
   256
340
5D
 90
       50
 62
   256
 40
0.24
 40
0.0
 40
0.24
 71
     3
340
55
 62
   256
 40
0.24
 90
        1
 40
0.75
 90
        1
300
%<\AcVar ViewType \f "%tc1">% %<\AcVar ViewSectionStartId>%-%<\AcVar ViewSectionEndId>%\PSCALE %<\AcVar ViewScale \f "%sn">%
 71
     4
 62
   256
 62
   257
300
ANSI31
 40
1.0
 90
        0
290
     0
290
     0
 90
        6
 40
0.0
 40
1.570796326794896
 40
0.2617993877991494
 40
1.308996938995747
 40
-0.2617993877991494
 40
1.832595714594046
  0
TABLESTYLE
  5
65
102
{ACAD_XDICTIONARY
360
B7
102
}
102
{ACAD_REACTORS
330
64
102
}
330
64
100
AcDbTableStyle
280
     0
  3
Standard
 70
     0
 71
     0
 40
0.06
 41
0.06
280
     0
281
     0
  7
Standard
140
0.18
170
     2
 62
     0
 63
     7
283
     0
 90
      512
 91
        0
  1

274
    -2
284
     1
 64
     0
275
    -2
285
     1
 65
     0
276
    -2
286
     1
 66
     0
277
    -2
287
     1
 67
     0
278
    -2
288
     1
 68
     0
279
    -2
289
     1
 69
     0
  7
Standard
140
0.25
170
     5
 62
     0
 63
     7
283
     0
 90
      512
 91
        0
  1

274
    -2
284
     1
 64
     0
275
    -2
285
     1
 65
     0
276
    -2
286
     1
 66
     0
277
    -2
287
     1
 67
     0
278
    -2
288
     1
 68
     0
279
    -2
289
     1
 69
     0
  7
Standard
140
0.18
170
     5
 62
     0
 63
     7
283
     0
 90
      512
 91
        0
  1

274
    -2
284
     1
 64
     0
275
    -2
285
     1
 65
     0
276
    -2
286
     1
 66
     0
277
    -2
287
     1
 67
     0
278
    -2
288
     1
 68
     0
279
    -2
289
     1
 69
     0
  0
VISUALSTYLE
  5
2F
102
{ACAD_REACTORS
330
29
102
}
330
29
100
AcDbVisualStyle
  2
2dWireframe
 70
     4
177
     3
291
     0
 70
    58
 90
        0
176
     1
 90
        2
176
     1
 90
        0
176
     1
 90
        0
176
     1
 40
0.6
176
     1
 40
30.0
176
     1
 62
     7
420
 16777215
176
     1
 90
        1
176
     1
 90
        4
176
     1
 62
     7
176
     1
 62
   257
176
     1
 90
        1
176
     1
 90
        1
176
     1
 40
1.0
176
     1
 90
        0
176
     1
 62
   257
176
     1
 40
1.0
176
     1
 90
        1
176
     1
 90
        6
176
     1
 90
        2
176
     1
 62
     7
176
     1
 90
        5
176
     1
 90
        0
176
     1
 90
        0
176
     1
290
     0
176
     1
 90
        1
176
     1
 40
0.0
176
     1
 90
        0
176
     1
290
     1
176
     1
290
     1
176
     1
290
     0
176
     1
290
     0
176
     1
290
     0
176
     1
290
     0
176
     1
290
     0
176
     1
290
     0
176
     1
290
     0
176
     1
 90
       50
176
     1
 40
0.0
176
     1
 40
1.0
176
     1
 90
        0
176
     1
 62
    18
420
        0
176
     1
 90
       50
176
     1
 90
        3
176
     1
 62
     5
420
      255
176
     1
290
     0
176
     1
 90
       50
176
     1
 90
       50
176
     1
 90
       50
176
     1
290
     0
176
     1
 90
       50
176
     1
 62
   256
176
     0
 40
1.0
176
     0
 90
        2
176
     1
  1
strokes_ogs.tif
176
     1
290
     0
176
     1
 40
1.0
176
     1
 40
1.0
176
     1
  0
VISUALSTYLE
  5
2E
102
{ACAD_REACTORS
330
29
102
}
330
29
100
AcDbVisualStyle
  2
Basic
 70
     7
177
     3
291
     1
 70
    58
 90
        1
176
     1
 90
        0
176
     1
 90
        1
176
     1
 90
        0
176
     1
 40
0.6
176
     1
 40
30.0
176
     1
 62
     7
420
 16777215
176
     1
 90
        0
176
     1
 90
        4
176
     1
 62
     7
176
     1
 62
   257
176
     1
 90
        1
176
     1
 90
        1
176
     1
 40
1.0
176
     1
 90
        8
176
     1
 62
     7
176
     1
 40
1.0
176
     1
 90
        1
176
     1
 90
        6
176
     1
 90
        2
176
     1
 62
     7
176
     1
 90
        5
176
     1
 90
        0
176
     1
 90
        0
176
     1
290
     0
176
     1
 90
        1
176
     1
 40
0.0
176
     1
 90
        0
176
     1
290
     0
176
     1
290
     1
176
     1
290
     1
176
     1
290
     0
176
     1
290
     0
176
     1
290
     0
176
     1
290
     0
176
     1
290
     0
176
     1
290
     0
176
     1
 90
       50
176
     1
 40
0.0
176
     1
 40
1.0
176
     1
 90
        0
176
     1
 62
    18
420
        0
176
     1
 90
       50
176
     1
 90
        3
176
     1
 62
     5
420
      255
176
     1
290
     0
176
     1
 90
       50
176
     1
 90
       50
176
     1
 90
       50
176
     1
290
     0
176
     1
 90
       50
176
     1
 62
   256
176
     0
 40
1.0
176
     0
 90
        2
176
     1
  1
strokes_ogs.tif
176
     1
290
     0
176
     1
 40
1.0
176
     1
 40
1.0
176
     1
  0
VISUALSTYLE
  5
35
102
{ACAD_REACTORS
330
29
102
}
330
29
100
AcDbVisualStyle
  2
Brighten
 70
    12
177
     3
291
     1
 70
    58
 90
        2
176
     1
 90
        2
176
     1
 90
        0
176
     1
 90
        0
176
     1
 40
0.6
176
     1
 40
30.0
176
     1
 62
     7
420
 16777215
176
     1
 90
        1
176
     1
 90
        4
176
     1
 62
     7
176
     1
 62
   257
176
     1
 90
        1
176
     1
 90
        1
176
     1
 40
1.0
176
     1
 90
        8
176
     1
 62
     7
176
     1
 40
1.0
176
     1
 90
        1
176
     1
 90
        6
176
     1
 90
        2
176
     1
 62
     7
176
     1
 90
        5
176
     1
 90
        0
176
     1
 90
        0
176
     1
290
     0
176
     1
 90
        1
176
     1
 40
50.0
176
     1
 90
        0
176
     1
290
     0
176
     1
290
     1
176
     1
290
     1
176
     1
290
     0
176
     1
290
     0
176
     1
290
     0
176
     1
290
     0
176
     1
290
     0
176
     1
290
     0
176
     1
 90
       50
176
     1
 40
0.0
176
     1
 40
1.0
176
     1
 90
        0
176
     1
 62
    18
420
        0
176
     1
 90
       50
176
     1
 90
        3
176
     1
 62
     5
420
      255
176
     1
290
     0
176
     1
 90
       50
176
     1
 90
       50
176
     1
 90
       50
176
     1
290
     0
176
     1
 90
       50
176
     1
 62
   256
176
     0
 40
1.0
176
     0
 90
        2
176
     1
  1
strokes_ogs.tif
176
     1
290
     0
176
     1
 40
1.0
176
     1
 40
1.0
176
     1
  0
VISUALSTYLE
  5
39
102
{ACAD_REACTORS
330
29
102
}
330
29
100
AcDbVisualStyle
  2
ColorChange
 70
    16
177
     3
291
     1
 70
    58
 90
        2
176
     1
 90
        2
176
     1
 90
        3
176
     1
 90
        0
176
     1
 40
0.6
176
     1
 40
30.0
176
     1
 62
     8
420
  8421504
176
     1
 90
        1
176
     1
 90
        4
176
     1
 62
     7
176
     1
 62
   257
176
     1
 90
        1
176
     1
 90
        1
176
     1
 40
1.0
176
     1
 90
        8
176
     1
 62
     8
420
  8421504
176
     1
 40
1.0
176
     1
 90
        1
176
     1
 90
        6
176
     1
 90
        2
176
     1
 62
     7
176
     1
 90
        5
176
     1
 90
        0
176
     1
 90
        0
176
     1
290
     0
176
     1
 90
        1
176
     1
 40
0.0
176
     1
 90
        0
176
     1
290
     0
176
     1
290
     1
176
     1
290
     1
176
     1
290
     0
176
     1
290
     0
176
     1
290
     0
176
     1
290
     0
176
     1
290
     0
176
     1
290
     0
176
     1
 90
       50
176
     1
 40
0.0
176
     1
 40
1.0
176
     1
 90
        0
176
     1
 62
    18
420
        0
176
     1
 90
       50
176
     1
 90
        3
176
     1
 62
     5
420
      255
176
     1
290
     0
176
     1
 90
       50
176
     1
 90
       50
176
     1
 90
       50
176
     1
290
     0
176
     1
 90
       50
176
     1
 62
   256
176
     0
 40
1.0
176
     0
 90
        2
176
     1
  1
strokes_ogs.tif
176
     1
290
     0
176
     1
 40
1.0
176
     1
 40
1.0
176
     1
  0
VISUALSTYLE
  5
32
102
{ACAD_REACTORS
330
29
102
}
330
29
100
AcDbVisualStyle
  2
Conceptual
 70
     9
177
     3
291
     0
 70
    58
 90
        3
176
     1
 90
        2
176
     1
 90
        0
176
     1
 90
        0
176
     1
 40
0.6
176
     1
 40
30.0
176
     1
 62
     7
420
 16777215
176
     1
 90
        2
176
     1
 90
        2
176
     1
 62
     7
176
     1
 62
   257
176
     1
 90
        1
176
     1
 90
        1
176
     1
 40
179.0
176
     1
 90
        8
176
     1
 62
     7
176
     1
 40
1.0
176
     1
 90
        1
176
     1
 90
        6
176
     1
 90
        2
176
     1
 62
     7
176
     1
 90
        3
176
     1
 90
        0
176
     1
 90
        0
176
     1
290
     0
176
     1
 90
        1
176
     1
 40
0.0
176
     1
 90
        0
176
     1
290
     0
176
     1
290
     1
176
     1
290
     1
176
     1
290
     0
176
     1
290
     0
176
     1
290
     0
176
     1
290
     0
176
     1
290
     0
176
     1
290
     0
176
     1
 90
       50
176
     1
 40
0.0
176
     1
 40
1.0
176
     1
 90
        0
176
     1
 62
    18
420
        0
176
     1
 90
       50
176
     1
 90
        3
176
     1
 62
     5
420
      255
176
     1
290
     0
176
     1
 90
       50
176
     1
 90
       50
176
     1
 90
       50
176
     1
290
     0
176
     1
 90
       50
176
     1
 62
   256
176
     0
 40
1.0
176
     0
 90
        2
176
     1
  1
strokes_ogs.tif
176
     1
290
     0
176
     1
 40
1.0
176
     1
 40
1.0
176
     1
  0
VISUALSTYLE
  5
34
102
{ACAD_REACTORS
330
29
102
}
330
29
100
AcDbVisualStyle
  2
Dim
 70
    11
177
     3
291
     1
 70
    58
 90
        2
176
     1
 90
        2
176
     1
 90
        0
176
     1
 90
        0
176
     1
 40
0.6
176
     1
 40
30.0
176
     1
 62
     7
420
 16777215
176
     1
 90
        1
176
     1
 90
        4
176
     1
 62
     7
176
     1
 62
   257
176
     1
 90
        1
176
     1
 90
        1
176
     1
 40
1.0
176
     1
 90
        8
176
     1
 62
     7
176
     1
 40
1.0
176
     1
 90
        1
176
     1
 90
        6
176
     1
 90
        2
176
     1
 62
     7
176
     1
 90
        5
176
     1
 90
        0
176
     1
 90
        0
176
     1
290
     0
176
     1
 90
        1
176
     1
 40
-50.0
176
     1
 90
        0
176
     1
290
     0
176
     1
290
     1
176
     1
290
     1
176
     1
290
     0
176
     1
290
     0
176
     1
290
     0
176
     1
290
     0
176
     1
290
     0
176
     1
290
     0
176
     1
 90
       50
176
     1
 40
0.0
176
     1
 40
1.0
176
     1
 90
        0
176
     1
 62
    18
420
        0
176
     1
 90
       50
176
     1
 90
        3
176
     1
 62
     5
420
      255
176
     1
290
     0
176
     1
 90
       50
176
     1
 90
       50
176
     1
 90
       50
176
     1
290
     0
176
     1
 90
       50
176
     1
 62
   256
176
     0
 40
1.0
176
     0
 90
        2
176
     1
  1
strokes_ogs.tif
176
     1
290
     0
176
     1
 40
1.0
176
     1
 40
1.0
176
     1
  0
VISUALSTYLE
  5
41
102
{ACAD_REACTORS
330
29
102
}
330
29
100
AcDbVisualStyle
  2
EdgeColorOff
 70
    22
177
     3
291
     1
 70
    58
 90
        2
176
     0
 90
        2
176
     0
 90
        0
176
     0
 90
        0
176
     0
 40
0.6
176
     0
 40
30.0
176
     0
 62
     7
420
 16777215
176
     0
 90
        1
176
     0
 90
        4
176
     0
 62
     7
176
     0
 62
   257
176
     0
 90
        1
176
     0
 90
        1
176
     0
 40
1.0
176
     0
 90
        8
176
     2
 62
     7
176
     0
 40
1.0
176
     0
 90
        1
176
     0
 90
        6
176
     0
 90
        2
176
     0
 62
     7
176
     0
 90
        5
176
     0
 90
        0
176
     0
 90
        0
176
     0
290
     0
176
     0
 90
        1
176
     0
 40
0.0
176
     0
 90
        0
176
     0
290
     0
176
     0
290
     1
176
     0
290
     1
176
     0
290
     0
176
     0
290
     0
176
     0
290
     0
176
     0
290
     0
176
     0
290
     0
176
     0
290
     0
176
     0
 90
       50
176
     0
 40
0.0
176
     0
 40
1.0
176
     0
 90
        0
176
     0
 62
    18
420
        0
176
     0
 90
       50
176
     0
 90
        3
176
     0
 62
     5
420
      255
176
     0
290
     0
176
     0
 90
       50
176
     0
 90
       50
176
     0
 90
       50
176
     0
290
     0
176
     0
 90
       50
176
     0
 62
   256
176
     0
 40
1.0
176
     0
 90
        2
176
     0
  1
strokes_ogs.tif
176
     0
290
     0
176
     0
 40
1.0
176
     0
 40
1.0
176
     0
  0
VISUALSTYLE
  5
38
102
{ACAD_REACTORS
330
29
102
}
330
29
100
AcDbVisualStyle
  2
Facepattern
 70
    15
177
     3
291
     1
 70
    58
 90
        2
176
     1
 90
        2
176
     1
 90
        0
176
     1
 90
        0
176
     1
 40
0.6
176
     1
 40
30.0
176
     1
 62
     7
420
 16777215
176
     1
 90
        1
176
     1
 90
        4
176
     1
 62
     7
176
     1
 62
   257
176
     1
 90
        1
176
     1
 90
        1
176
     1
 40
1.0
176
     1
 90
        8
176
     1
 62
     7
176
     1
 40
1.0
176
     1
 90
        1
176
     1
 90
        6
176
     1
 90
        2
176
     1
 62
     7
176
     1
 90
        5
176
     1
 90
        0
176
     1
 90
        0
176
     1
290
     0
176
     1
 90
        1
176
     1
 40
0.0
176
     1
 90
        0
176
     1
290
     0
176
     1
290
     1
176
     1
290
     1
176
     1
290
     0
176
     1
290
     0
176
     1
290
     0
176
     1
290
     0
176
     1
290
     0
176
     1
290
     0
176
     1
 90
       50
176
     1
 40
0.0
176
     1
 40
1.0
176
     1
 90
        0
176
     1
 62
    18
420
        0
176
     1
 90
       50
176
     1
 90
        3
176
     1
 62
     5
420
      255
176
     1
290
     0
176
     1
 90
       50
176
     1
 90
       50
176
     1
 90
       50
176
     1
290
     0
176
     1
 90
       50
176
     1
 62
   256
176
     0
 40
1.0
176
     0
 90
        2
176
     1
  1
strokes_ogs.tif
176
     1
290
     0
176
     1
 40
1.0
176
     1
 40
1.0
176
     1
  0
VISUALSTYLE
  5
2A
102
{ACAD_REACTORS
330
29
102
}
330
29
100
AcDbVisualStyle
  2
Flat
 70
     0
177
     3
291
     1
 70
    58
 90
        2
176
     1
 90
        1
176
     1
 90
        1
176
     1
 90
        2
176
     1
 40
0.6
176
     1
 40
30.0
176
     1
 62
     7
420
 16777215
176
     1
 90
        0
176
     1
 90
        0
176
     1
 62
     7
176
     1
 62
   257
176
     1
 90
        1
176
     1
 90
        1
176
     1
 40
1.0
176
     1
 90
        8
176
     1
 62
     7
176
     1
 40
1.0
176
     1
 90
        1
176
     1
 90
        6
176
     1
 90
        2
176
     1
 62
     7
176
     1
 90
        5
176
     1
 90
        0
176
     1
 90
        0
176
     1
290
     0
176
     1
 90
       13
176
     1
 40
0.0
176
     1
 90
        0
176
     1
290
     0
176
     1
290
     1
176
     1
290
     1
176
     1
290
     0
176
     1
290
     0
176
     1
290
     0
176
     1
290
     0
176
     1
290
     0
176
     1
290
     0
176
     1
 90
       50
176
     1
 40
0.0
176
     1
 40
1.0
176
     1
 90
        0
176
     1
 62
    18
420
        0
176
     1
 90
       50
176
     1
 90
        3
176
     1
 62
     5
420
      255
176
     1
290
     0
176
     1
 90
       50
176
     1
 90
       50
176
     1
 90
       50
176
     1
290
     0
176
     1
 90
       50
176
     1
 62
   256
176
     0
 40
1.0
176
     0
 90
        2
176
     1
  1
strokes_ogs.tif
176
     1
290
     0
176
     1
 40
1.0
176
     1
 40
1.0
176
     1
  0
VISUALSTYLE
  5
2B
102
{ACAD_REACTORS
330
29
102
}
330
29
100
AcDbVisualStyle
  2
FlatWithEdges
 70
     1
177
     3
291
     1
 70
    58
 90
        2
176
     1
 90
        1
176
     1
 90
        1
176
     1
 90
        2
176
     1
 40
0.6
176
     1
 40
30.0
176
     1
 62
     7
420
 16777215
176
     1
 90
        1
176
     1
 90
        0
176
     1
 62
     7
176
     1
 62
   257
176
     1
 90
        1
176
     1
 90
        1
176
     1
 40
1.0
176
     1
 90
        0
176
     1
 62
   257
176
     1
 40
1.0
176
     1
 90
        1
176
     1
 90
        6
176
     1
 90
        2
176
     1
 62
     7
176
     1
 90
        5
176
     1
 90
        0
176
     1
 90
        0
176
     1
290
     0
176
     1
 90
       13
176
     1
 40
0.0
176
     1
 90
        0
176
     1
290
     0
176
     1
290
     1
176
     1
290
     1
176
     1
290
     0
176
     1
290
     0
176
     1
290
     0
176
     1
290
     0
176
     1
290
     0
176
     1
290
     0
176
     1
 90
       50
176
     1
 40
0.0
176
     1
 40
1.0
176
     1
 90
        0
176
     1
 62
    18
420
        0
176
     1
 90
       50
176
     1
 90
        3
176
     1
 62
     5
420
      255
176
     1
290
     0
176
     1
 90
       50
176
     1
 90
       50
176
     1
 90
       50
176
     1
290
     0
176
     1
 90
       50
176
     1
 62
   256
176
     0
 40
1.0
176
     0
 90
        2
176
     1
  1
strokes_ogs.tif
176
     1
290
     0
176
     1
 40
1.0
176
     1
 40
1.0
176
     1
  0
VISUALSTYLE
  5
2C
102
{ACAD_REACTORS
330
29
102
}
330
29
100
AcDbVisualStyle
  2
Gouraud
 70
     2
177
     3
291
     1
 70
    58
 90
        2
176
     1
 90
        2
176
     1
 90
        1
176
     1
 90
        2
176
     1
 40
0.6
176
     1
 40
30.0
176
     1
 62
     7
420
 16777215
176
     1
 90
        0
176
     1
 90
        0
176
     1
 62
     7
176
     1
 62
   257
176
     1
 90
        1
176
     1
 90
        1
176
     1
 40
1.0
176
     1
 90
        0
176
     1
 62
     7
176
     1
 40
1.0
176
     1
 90
        1
176
     1
 90
        6
176
     1
 90
        2
176
     1
 62
     7
176
     1
 90
        5
176
     1
 90
        0
176
     1
 90
        0
176
     1
290
     0
176
     1
 90
       13
176
     1
 40
0.0
176
     1
 90
        0
176
     1
290
     0
176
     1
290
     1
176
     1
290
     1
176
     1
290
     0
176
     1
290
     0
176
     1
290
     0
176
     1
290
     0
176
     1
290
     0
176
     1
290
     0
176
     1
 90
       50
176
     1
 40
0.0
176
     1
 40
1.0
176
     1
 90
        0
176
     1
 62
    18
420
        0
176
     1
 90
       50
176
     1
 90
        3
176
     1
 62
     5
420
      255
176
     1
290
     0
176
     1
 90
       50
176
     1
 90
       50
176
     1
 90
       50
176
     1
290
     0
176
     1
 90
       50
176
     1
 62
   256
176
     0
 40
1.0
176
     0
 90
        2
176
     1
  1
strokes_ogs.tif
176
     1
290
     0
176
     1
 40
1.0
176
     1
 40
1.0
176
     1
  0
VISUALSTYLE
  5
2D
102
{ACAD_REACTORS
330
29
102
}
330
29
100
AcDbVisualStyle
  2
GouraudWithEdges
 70
     3
177
     3
291
     1
 70
    58
 90
        2
176
     1
 90
        2
176
     1
 90
        1
176
     1
 90
        2
176
     1
 40
0.6
176
     1
 40
30.0
176
     1
 62
     7
420
 16777215
176
     1
 90
        1
176
     1
 90
        0
176
     1
 62
     7
176
     1
 62
   257
176
     1
 90
        1
176
     1
 90
        1
176
     1
 40
1.0
176
     1
 90
        0
176
     1
 62
   257
176
     1
 40
1.0
176
     1
 90
        1
176
     1
 90
        6
176
     1
 90
        2
176
     1
 62
     7
176
     1
 90
        5
176
     1
 90
        0
176
     1
 90
        0
176
     1
290
     0
176
     1
 90
       13
176
     1
 40
0.0
176
     1
 90
        0
176
     1
290
     0
176
     1
290
     1
176
     1
290
     1
176
     1
290
     0
176
     1
290
     0
176
     1
290
     0
176
     1
290
     0
176
     1
290
     0
176
     1
290
     0
176
     1
 90
       50
176
     1
 40
0.0
176
     1
 40
1.0
176
     1
 90
        0
176
     1
 62
    18
420
        0
176
     1
 90
       50
176
     1
 90
        3
176
     1
 62
     5
420
      255
176
     1
290
     0
176
     1
 90
       50
176
     1
 90
       50
176
     1
 90
       50
176
     1
290
     0
176
     1
 90
       50
176
     1
 62
   256
176
     0
 40
1.0
176
     0
 90
        2
176
     1
  1
strokes_ogs.tif
176
     1
290
     0
176
     1
 40
1.0
176
     1
 40
1.0
176
     1
  0
VISUALSTYLE
  5
31
102
{ACAD_REACTORS
330
29
102
}
330
29
100
AcDbVisualStyle
  2
Hidden
 70
     6
177
     3
291
     0
 70
    58
 90
        1
176
     1
 90
        2
176
     1
 90
        2
176
     1
 90
        0
176
     1
 40
0.6
176
     1
 40
30.0
176
     1
 62
     7
420
 16777215
176
     1
 90
        2
176
     1
 90
        2
176
     1
 62
     7
176
     1
 62
   257
176
     1
 90
        2
176
     1
 90
        1
176
     1
 40
40.0
176
     1
 90
        0
176
     1
 62
   257
176
     1
 40
1.0
176
     1
 90
        1
176
     1
 90
        6
176
     1
 90
        2
176
     1
 62
     7
176
     1
 90
        3
176
     1
 90
        0
176
     1
 90
        0
176
     1
290
     0
176
     1
 90
        1
176
     1
 40
0.0
176
     1
 90
        0
176
     1
290
     0
176
     1
290
     1
176
     1
290
     1
176
     1
290
     0
176
     1
290
     0
176
     1
290
     0
176
     1
290
     0
176
     1
290
     0
176
     1
290
     0
176
     1
 90
       50
176
     1
 40
0.0
176
     1
 40
1.0
176
     1
 90
        0
176
     1
 62
    18
420
        0
176
     1
 90
       50
176
     1
 90
        3
176
     1
 62
     5
420
      255
176
     1
290
     0
176
     1
 90
       50
176
     1
 90
       50
176
     1
 90
       50
176
     1
290
     0
176
     1
 90
       50
176
     1
 62
   256
176
     0
 40
1.0
176
     0
 90
        2
176
     1
  1
strokes_ogs.tif
176
     1
290
     0
176
     1
 40
1.0
176
     1
 40
1.0
176
     1
  0
VISUALSTYLE
  5
3F
102
{ACAD_REACTORS
330
29
102
}
330
29
100
AcDbVisualStyle
  2
JitterOff
 70
    20
177
     3
291
     1
 70
    58
 90
        2
176
     0
 90
        2
176
     0
 90
        0
176
     0
 90
        0
176
     0
 40
0.6
176
     0
 40
30.0
176
     0
 62
     7
420
 16777215
176
     0
 90
        1
176
     0
 90
        4
176
     0
 62
     7
176
     0
 62
   257
176
     0
 90
        1
176
     0
 90
        1
176
     0
 40
1.0
176
     0
 90
       10
176
     2
 62
     7
176
     0
 40
1.0
176
     0
 90
        1
176
     0
 90
        6
176
     0
 90
        2
176
     0
 62
     7
176
     0
 90
        5
176
     0
 90
        0
176
     0
 90
        0
176
     0
290
     0
176
     0
 90
        1
176
     0
 40
0.0
176
     0
 90
        0
176
     0
290
     0
176
     0
290
     1
176
     0
290
     1
176
     0
290
     0
176
     0
290
     0
176
     0
290
     0
176
     0
290
     0
176
     0
290
     0
176
     0
290
     0
176
     0
 90
       50
176
     0
 40
0.0
176
     0
 40
1.0
176
     0
 90
        0
176
     0
 62
    18
420
        0
176
     0
 90
       50
176
     0
 90
        3
176
     0
 62
     5
420
      255
176
     0
290
     0
176
     0
 90
       50
176
     0
 90
       50
176
     0
 90
       50
176
     0
290
     0
176
     0
 90
       50
176
     0
 62
   256
176
     0
 40
1.0
176
     0
 90
        2
176
     0
  1
strokes_ogs.tif
176
     0
290
     0
176
     0
 40
1.0
176
     0
 40
1.0
176
     0
  0
VISUALSTYLE
  5
37
102
{ACAD_REACTORS
330
29
102
}
330
29
100
AcDbVisualStyle
  2
Linepattern
 70
    14
177
     3
291
     1
 70
    58
 90
        2
176
     1
 90
        2
176
     1
 90
        0
176
     1
 90
        0
176
     1
 40
0.6
176
     1
 40
30.0
176
     1
 62
     7
420
 16777215
176
     1
 90
        1
176
     1
 90
        4
176
     1
 62
     7
176
     1
 62
   257
176
     1
 90
        7
176
     1
 90
        7
176
     1
 40
1.0
176
     1
 90
        8
176
     1
 62
     7
176
     1
 40
1.0
176
     1
 90
        1
176
     1
 90
        6
176
     1
 90
        2
176
     1
 62
     7
176
     1
 90
        5
176
     1
 90
        0
176
     1
 90
        0
176
     1
290
     0
176
     1
 90
        1
176
     1
 40
0.0
176
     1
 90
        0
176
     1
290
     0
176
     1
290
     1
176
     1
290
     1
176
     1
290
     0
176
     1
290
     0
176
     1
290
     0
176
     1
290
     0
176
     1
290
     0
176
     1
290
     0
176
     1
 90
       50
176
     1
 40
0.0
176
     1
 40
1.0
176
     1
 90
        0
176
     1
 62
    18
420
        0
176
     1
 90
       50
176
     1
 90
        3
176
     1
 62
     5
420
      255
176
     1
290
     0
176
     1
 90
       50
176
     1
 90
       50
176
     1
 90
       50
176
     1
290
     0
176
     1
 90
       50
176
     1
 62
   256
176
     0
 40
1.0
176
     0
 90
        2
176
     1
  1
strokes_ogs.tif
176
     1
290
     0
176
     1
 40
1.0
176
     1
 40
1.0
176
     1
  0
VISUALSTYLE
  5
40
102
{ACAD_REACTORS
330
29
102
}
330
29
100
AcDbVisualStyle
  2
OverhangOff
 70
    21
177
     3
291
     1
 70
    58
 90
        2
176
     0
 90
        2
176
     0
 90
        0
176
     0
 90
        0
176
     0
 40
0.6
176
     0
 40
30.0
176
     0
 62
     7
420
 16777215
176
     0
 90
        1
176
     0
 90
        4
176
     0
 62
     7
176
     0
 62
   257
176
     0
 90
        1
176
     0
 90
        1
176
     0
 40
1.0
176
     0
 90
        9
176
     2
 62
     7
176
     0
 40
1.0
176
     0
 90
        1
176
     0
 90
        6
176
     0
 90
        2
176
     0
 62
     7
176
     0
 90
        5
176
     0
 90
        0
176
     0
 90
        0
176
     0
290
     0
176
     0
 90
        1
176
     0
 40
0.0
176
     0
 90
        0
176
     0
290
     0
176
     0
290
     1
176
     0
290
     1
176
     0
290
     0
176
     0
290
     0
176
     0
290
     0
176
     0
290
     0
176
     0
290
     0
176
     0
290
     0
176
     0
 90
       50
176
     0
 40
0.0
176
     0
 40
1.0
176
     0
 90
        0
176
     0
 62
    18
420
        0
176
     0
 90
       50
176
     0
 90
        3
176
     0
 62
     5
420
      255
176
     0
290
     0
176
     0
 90
       50
176
     0
 90
       50
176
     0
 90
       50
176
     0
290
     0
176
     0
 90
       50
176
     0
 62
   256
176
     0
 40
1.0
176
     0
 90
        2
176
     0
  1
strokes_ogs.tif
176
     0
290
     0
176
     0
 40
1.0
176
     0
 40
1.0
176
     0
  0
VISUALSTYLE
  5
33
102
{ACAD_REACTORS
330
29
102
}
330
29
100
AcDbVisualStyle
  2
Realistic
 70
     8
177
     3
291
     0
 70
    58
 90
        2
176
     1
 90
        3
176
     1
 90
        0
176
     1
 90
        2
176
     1
 40
0.6
176
     1
 40
30.0
176
     1
 62
     7
420
 16777215
176
     1
 90
        0
176
     1
 90
        0
176
     1
 62
     7
176
     1
 62
   257
176
     1
 90
        1
176
     1
 90
        1
176
     1
 40
1.0
176
     1
 90
        8
176
     1
 62
   257
176
     1
 40
1.0
176
     1
 90
        1
176
     1
 90
        6
176
     1
 90
        2
176
     1
 62
     7
176
     1
 90
        3
176
     1
 90
        0
176
     1
 90
        0
176
     1
290
     0
176
     1
 90
       13
176
     1
 40
0.0
176
     1
 90
        0
176
     1
290
     0
176
     1
290
     1
176
     1
290
     1
176
     1
290
     0
176
     1
290
     0
176
     1
290
     0
176
     1
290
     0
176
     1
290
     0
176
     1
290
     0
176
     1
 90
       50
176
     1
 40
0.0
176
     1
 40
1.0
176
     1
 90
        0
176
     1
 62
    18
420
        0
176
     1
 90
       50
176
     1
 90
        3
176
     1
 62
     5
420
      255
176
     1
290
     0
176
     1
 90
       50
176
     1
 90
       50
176
     1
 90
       50
176
     1
290
     0
176
     1
 90
       50
176
     1
 62
   256
176
     0
 40
1.0
176
     0
 90
        2
176
     1
  1
strokes_ogs.tif
176
     1
290
     0
176
     1
 40
1.0
176
     1
 40
1.0
176
     1
  0
VISUALSTYLE
  5
3E
102
{ACAD_REACTORS
330
29
102
}
330
29
100
AcDbVisualStyle
  2
Shaded
 70
    27
177
     3
291
     0
 70
    58
 90
        2
176
     1
 90
        2
176
     1
 90
        1
176
     1
 90
        2
176
     1
 40
0.6
176
     1
 40
30.0
176
     1
 62
     7
420
 16777215
176
     1
 90
        0
176
     1
 90
        4
176
     1
 62
     7
176
     1
 62
   257
176
     1
 90
        1
176
     1
 90
        1
176
     1
 40
1.0
176
     1
 90
        8
176
     1
 62
   257
176
     1
 40
1.0
176
     1
 90
        1
176
     1
 90
        6
176
     1
 90
        2
176
     1
 62
     8
420
  7895160
176
     1
 90
        3
176
     1
 90
        0
176
     1
 90
        0
176
     1
290
     0
176
     1
 90
        5
176
     1
 40
0.0
176
     1
 90
        0
176
     1
290
     0
176
     1
290
     1
176
     1
290
     1
176
     1
290
     0
176
     1
290
     0
176
     1
290
     0
176
     1
290
     0
176
     1
290
     0
176
     1
290
     0
176
     1
 90
       50
176
     1
 40
0.0
176
     1
 40
1.0
176
     1
 90
        0
176
     1
 62
    18
420
        0
176
     1
 90
       50
176
     1
 90
        3
176
     1
 62
     5
420
      255
176
     1
290
     0
176
     1
 90
       50
176
     1
 90
       50
176
     1
 90
       50
176
     1
290
     0
176
     1
 90
       50
176
     1
 62
   256
176
     0
 40
1.0
176
     0
 90
        2
176
     1
  1
strokes_ogs.tif
176
     1
290
     0
176
     1
 40
1.0
176
     1
 40
1.0
176
     1
  0
VISUALSTYLE
  5
3D
102
{ACAD_REACTORS
330
29
102
}
330
29
100
AcDbVisualStyle
  2
Shaded with edges
 70
    26
177
     3
291
     0
 70
    58
 90
        2
176
     1
 90
        2
176
     1
 90
        1
176
     1
 90
        2
176
     1
 40
0.6
176
     1
 40
30.0
176
     1
 62
     7
420
 16777215
176
     1
 90
        1
176
     1
 90
        2
176
     1
 62
     7
176
     1
 62
   257
176
     1
 90
        2
176
     1
 90
        1
176
     1
 40
1.0
176
     1
 90
        8
176
     1
 62
   257
176
     1
 40
1.0
176
     1
 90
        1
176
     1
 90
        6
176
     1
 90
        2
176
     1
 62
     7
176
     1
 90
        3
176
     1
 90
        0
176
     1
 90
        0
176
     1
290
     0
176
     1
 90
        5
176
     1
 40
0.0
176
     1
 90
        0
176
     1
290
     0
176
     1
290
     1
176
     1
290
     1
176
     1
290
     0
176
     1
290
     0
176
     1
290
     0
176
     1
290
     0
176
     1
290
     0
176
     1
290
     0
176
     1
 90
       50
176
     1
 40
0.0
176
     1
 40
1.0
176
     1
 90
        0
176
     1
 62
    18
420
        0
176
     1
 90
       50
176
     1
 90
        3
176
     1
 62
     5
420
      255
176
     1
290
     0
176
     1
 90
       50
176
     1
 90
       50
176
     1
 90
       50
176
     1
290
     0
176
     1
 90
       50
176
     1
 62
   256
176
     0
 40
1.0
176
     0
 90
        2
176
     1
  1
strokes_ogs.tif
176
     1
290
     0
176
     1
 40
1.0
176
     1
 40
1.0
176
     1
  0
VISUALSTYLE
  5
3A
102
{ACAD_REACTORS
330
29
102
}
330
29
100
AcDbVisualStyle
  2
Shades of Gray
 70
    23
177
     3
291
     0
 70
    58
 90
        2
176
     1
 90
        2
176
     1
 90
        3
176
     1
 90
        0
176
     1
 40
0.6
176
     1
 40
30.0
176
     1
 62
     7
420
 16777215
176
     1
 90
        2
176
     1
 90
        2
176
     1
 62
     7
176
     1
 62
     7
176
     1
 90
        1
176
     1
 90
        1
176
     1
 40
40.0
176
     1
 90
        8
176
     1
 62
     7
176
     1
 40
1.0
176
     1
 90
        1
176
     1
 90
        6
176
     1
 90
        2
176
     1
 62
     7
176
     1
 90
        3
176
     1
 90
        0
176
     1
 90
        0
176
     1
290
     0
176
     1
 90
        1
176
     1
 40
0.0
176
     1
 90
        0
176
     1
290
     0
176
     1
290
     1
176
     1
290
     1
176
     1
290
     0
176
     1
290
     0
176
     1
290
     0
176
     1
290
     0
176
     1
290
     0
176
     1
290
     0
176
     1
 90
       50
176
     1
 40
0.0
176
     1
 40
1.0
176
     1
 90
        0
176
     1
 62
    18
420
        0
176
     1
 90
       50
176
     1
 90
        3
176
     1
 62
     5
420
      255
176
     1
290
     0
176
     1
 90
       50
176
     1
 90
       50
176
     1
 90
       50
176
     1
290
     0
176
     1
 90
       50
176
     1
 62
   256
176
     0
 40
1.0
176
     0
 90
        2
176
     1
  1
strokes_ogs.tif
176
     1
290
     0
176
     1
 40
1.0
176
     1
 40
1.0
176
     1
  0
VISUALSTYLE
  5
3B
102
{ACAD_REACTORS
330
29
102
}
330
29
100
AcDbVisualStyle
  2
Sketchy
 70
    24
177
     3
291
     0
 70
    58
 90
        1
176
     1
 90
        2
176
     1
 90
        2
176
     1
 90
        0
176
     1
 40
0.6
176
     1
 40
30.0
176
     1
 62
     7
420
 16777215
176
     1
 90
        2
176
     1
 90
        2
176
     1
 62
     7
176
     1
 62
     7
176
     1
 90
        1
176
     1
 90
        1
176
     1
 40
40.0
176
     1
 90
       11
176
     1
 62
     7
176
     1
 40
1.0
176
     1
 90
        1
176
     1
 90
        6
176
     1
 90
        2
176
     1
 62
     7
176
     1
 90
        6
176
     1
 90
        0
176
     1
 90
        0
176
     1
290
     0
176
     1
 90
        1
176
     1
 40
0.0
176
     1
 90
        0
176
     1
290
     0
176
     1
290
     1
176
     1
290
     1
176
     1
290
     0
176
     1
290
     0
176
     1
290
     0
176
     1
290
     0
176
     1
290
     0
176
     1
290
     0
176
     1
 90
       50
176
     1
 40
0.0
176
     1
 40
1.0
176
     1
 90
        0
176
     1
 62
    18
420
        0
176
     1
 90
       50
176
     1
 90
        3
176
     1
 62
     5
420
      255
176
     1
290
     0
176
     1
 90
       50
176
     1
 90
       50
176
     1
 90
       50
176
     1
290
     0
176
     1
 90
       50
176
     1
 62
   256
176
     0
 40
1.0
176
     0
 90
        2
176
     1
  1
strokes_ogs.tif
176
     1
290
     0
176
     1
 40
1.0
176
     1
 40
1.0
176
     1
  0
VISUALSTYLE
  5
36
102
{ACAD_REACTORS
330
29
102
}
330
29
100
AcDbVisualStyle
  2
Thicken
 70
    13
177
     3
291
     1
 70
    58
 90
        2
176
     1
 90
        2
176
     1
 90
        0
176
     1
 90
        0
176
     1
 40
0.6
176
     1
 40
30.0
176
     1
 62
     7
420
 16777215
176
     1
 90
        1
176
     1
 90
        4
176
     1
 62
     7
176
     1
 62
   257
176
     1
 90
        1
176
     1
 90
        1
176
     1
 40
1.0
176
     1
 90
       12
176
     1
 62
     7
176
     1
 40
1.0
176
     1
 90
        1
176
     1
 90
        6
176
     1
 90
        2
176
     1
 62
     7
176
     1
 90
        5
176
     1
 90
        0
176
     1
 90
        0
176
     1
290
     0
176
     1
 90
        1
176
     1
 40
0.0
176
     1
 90
        0
176
     1
290
     0
176
     1
290
     1
176
     1
290
     1
176
     1
290
     0
176
     1
290
     0
176
     1
290
     0
176
     1
290
     0
176
     1
290
     0
176
     1
290
     0
176
     1
 90
       50
176
     1
 40
0.0
176
     1
 40
1.0
176
     1
 90
        0
176
     1
 62
    18
420
        0
176
     1
 90
       50
176
     1
 90
        3
176
     1
 62
     5
420
      255
176
     1
290
     0
176
     1
 90
       50
176
     1
 90
       50
176
     1
 90
       50
176
     1
290
     0
176
     1
 90
       50
176
     1
 62
   256
176
     0
 40
1.0
176
     0
 90
        2
176
     1
  1
strokes_ogs.tif
176
     1
290
     0
176
     1
 40
1.0
176
     1
 40
1.0
176
     1
  0
VISUALSTYLE
  5
30
102
{ACAD_REACTORS
330
29
102
}
330
29
100
AcDbVisualStyle
  2
Wireframe
 70
     5
177
     3
291
     0
 70
    58
 90
        0
176
     1
 90
        2
176
     1
 90
        0
176
     1
 90
        0
176
     1
 40
0.6
176
     1
 40
30.0
176
     1
 62
     7
420
 16777215
176
     1
 90
        1
176
     1
 90
        4
176
     1
 62
     7
176
     1
 62
   257
176
     1
 90
        1
176
     1
 90
        1
176
     1
 40
1.0
176
     1
 90
        0
176
     1
 62
   257
176
     1
 40
1.0
176
     1
 90
        1
176
     1
 90
        6
176
     1
 90
        2
176
     1
 62
     7
176
     1
 90
        3
176
     1
 90
        0
176
     1
 90
        0
176
     1
290
     0
176
     1
 90
        1
176
     1
 40
0.0
176
     1
 90
        0
176
     1
290
     0
176
     1
290
     1
176
     1
290
     1
176
     1
290
     0
176
     1
290
     0
176
     1
290
     0
176
     1
290
     0
176
     1
290
     0
176
     1
290
     0
176
     1
 90
       50
176
     1
 40
0.0
176
     1
 40
1.0
176
     1
 90
        0
176
     1
 62
    18
420
        0
176
     1
 90
       50
176
     1
 90
        3
176
     1
 62
     5
420
      255
176
     1
290
     0
176
     1
 90
       50
176
     1
 90
       50
176
     1
 90
       50
176
     1
290
     0
176
     1
 90
       50
176
     1
 62
   256
176
     0
 40
1.0
176
     0
 90
        2
176
     1
  1
strokes_ogs.tif
176
     1
290
     0
176
     1
 40
1.0
176
     1
 40
1.0
176
     1
  0
VISUALSTYLE
  5
3C
102
{ACAD_REACTORS
330
29
102
}
330
29
100
AcDbVisualStyle
  2
X-Ray
 70
    25
177
     3
291
     0
 70
    58
 90
        2
176
     1
 90
        2
176
     1
 90
        1
176
     1
 90
        1
176
     1
 40
0.5
176
     1
 40
30.0
176
     1
 62
     7
420
 16777215
176
     1
 90
        1
176
     1
 90
        0
176
     1
 62
     7
176
     1
 62
   257
176
     1
 90
        1
176
     1
 90
        1
176
     1
 40
1.0
176
     1
 90
        8
176
     1
 62
     7
176
     1
 40
1.0
176
     1
 90
        1
176
     1
 90
        6
176
     1
 90
        2
176
     1
 62
     7
176
     1
 90
        3
176
     1
 90
        0
176
     1
 90
        0
176
     1
290
     0
176
     1
 90
       13
176
     1
 40
0.0
176
     1
 90
        0
176
     1
290
     0
176
     1
290
     1
176
     1
290
     1
176
     1
290
     0
176
     1
290
     0
176
     1
290
     0
176
     1
290
     0
176
     1
290
     0
176
     1
290
     0
176
     1
 90
       50
176
     1
 40
0.0
176
     1
 40
1.0
176
     1
 90
        0
176
     1
 62
    18
420
        0
176
     1
 90
       50
176
     1
 90
        3
176
     1
 62
     5
420
      255
176
     1
290
     0
176
     1
 90
       50
176
     1
 90
       50
176
     1
 90
       50
176
     1
290
     0
176
     1
 90
       50
176
     1
 62
   256
176
     0
 40
1.0
176
     0
 90
        2
176
     1
  1
strokes_ogs.tif
176
     1
290
     0
176
     1
 40
1.0
176
     1
 40
1.0
176
     1
  0
DICTIONARYVAR
  5
B6
102
{ACAD_REACTORS
330
B1
102
}
330
B1
100
DictionaryVariables
280
     0
  1
1:1
  0
DICTIONARYVAR
  5
B3
102
{ACAD_REACTORS
330
B1
102
}
330
B1
100
DictionaryVariables
280
     0
  1
STANDARD
  0
DICTIONARYVAR
  5
B2
102
{ACAD_REACTORS
330
B1
102
}
330
B1
100
DictionaryVariables
280
     0
  1
STANDARD
  0
DICTIONARYVAR
  5
B4
102
{ACAD_REACTORS
330
B1
102
}
330
B1
100
DictionaryVariables
280
     0
  1
Imperial24
  0
DICTIONARYVAR
  5
B5
102
{ACAD_REACTORS
330
B1
102
}
330
B1
100
DictionaryVariables
280
     0
  1
Imperial24
  0
DICTIONARY
  5
1A
330
19
100
AcDbDictionary
280
     1
281
     1
  3
BUMPTILE
360
1C
  3
DIFFUSETILE
360
1B
  3
OPACITYTILE
360
1F
  3
REFLECTIONTILE
360
1E
  3
REFRACTIONTILE
360
20
  3
SPECULARTILE
360
1D
  0
DICTIONARY
  5
12
330
11
100
AcDbDictionary
280
     1
281
     1
  3
BUMPTILE
360
14
  3
DIFFUSETILE
360
13
  3
OPACITYTILE
360
17
  3
REFLECTIONTILE
360
16
  3
REFRACTIONTILE
360
18
  3
SPECULARTILE
360
15
  0
DICTIONARY
  5
22
330
21
100
AcDbDictionary
280
     1
281
     1
  3
BUMPTILE
360
24
  3
DIFFUSETILE
360
23
  3
OPACITYTILE
360
27
  3
REFLECTIONTILE
360
26
  3
REFRACTIONTILE
360
28
  3
SPECULARTILE
360
25
  0
DICTIONARY
  5
B7
330
65
100
AcDbDictionary
280
     1
281
     1
  3
ACAD_ROUNDTRIP_2008_TABLESTYLE_CELLSTYLEMAP
360
B8
  0
XRECORD
  5
1C
102
{ACAD_REACTORS
330
1A
102
}
330
1A
100
AcDbXrecord
280
     1
270
     1
271
     1
  0
XRECORD
  5
1B
102
{ACAD_REACTORS
330
1A
102
}
330
1A
100
AcDbXrecord
280
     1
270
     1
271
     1
  0
XRECORD
  5
1F
102
{ACAD_REACTORS
330
1A
102
}
330
1A
100
AcDbXrecord
280
     1
270
     1
271
     1
  0
XRECORD
  5
1E
102
{ACAD_REACTORS
330
1A
102
}
330
1A
100
AcDbXrecord
280
     1
270
     1
271
     1
  0
XRECORD
  5
20
102
{ACAD_REACTORS
330
1A
102
}
330
1A
100
AcDbXrecord
280
     1
270
     1
271
     1
  0
XRECORD
  5
1D
102
{ACAD_REACTORS
330
1A
102
}
330
1A
100
AcDbXrecord
280
     1
270
     1
271
     1
  0
XRECORD
  5
14
102
{ACAD_REACTORS
330
12
102
}
330
12
100
AcDbXrecord
280
     1
270
     1
271
     1
  0
XRECORD
  5
13
102
{ACAD_REACTORS
330
12
102
}
330
12
100
AcDbXrecord
280
     1
270
     1
271
     1
  0
XRECORD
  5
17
102
{ACAD_REACTORS
330
12
102
}
330
12
100
AcDbXrecord
280
     1
270
     1
271
     1
  0
XRECORD
  5
16
102
{ACAD_REACTORS
330
12
102
}
330
12
100
AcDbXrecord
280
     1
270
     1
271
     1
  0
XRECORD
  5
18
102
{ACAD_REACTORS
330
12
102
}
330
12
100
AcDbXrecord
280
     1
270
     1
271
     1
  0
XRECORD
  5
15
102
{ACAD_REACTORS
330
12
102
}
330
12
100
AcDbXrecord
280
     1
270
     1
271
     1
  0
XRECORD
  5
24
102
{ACAD_REACTORS
330
22
102
}
330
22
100
AcDbXrecord
280
     1
270
     1
271
     1
  0
XRECORD
  5
23
102
{ACAD_REACTORS
330
22
102
}
330
22
100
AcDbXrecord
280
     1
270
     1
271
     1
  0
XRECORD
  5
27
102
{ACAD_REACTORS
330
22
102
}
330
22
100
AcDbXrecord
280
     1
270
     1
271
     1
  0
XRECORD
  5
26
102
{ACAD_REACTORS
330
22
102
}
330
22
100
AcDbXrecord
280
     1
270
     1
271
     1
  0
XRECORD
  5
28
102
{ACAD_REACTORS
330
22
102
}
330
22
100
AcDbXrecord
280
     1
270
     1
271
     1
  0
XRECORD
  5
25
102
{ACAD_REACTORS
330
22
102
}
330
22
100
AcDbXrecord
280
     1
270
     1
271
     1
  0
CELLSTYLEMAP
  5
B8
102
{ACAD_REACTORS
330
B7
102
}
330
B7
100
AcDbCellStyleMap
 90
        3
300
CELLSTYLE
  1
TABLEFORMAT_BEGIN
 90
        5
170
     1
 91
        0
 92
    32768
 62
   257
 93
        1
300
CONTENTFORMAT
  1
CONTENTFORMAT_BEGIN
 90
        0
 91
        0
 92
      512
 93
        0
300

 40
0.0
140
1.0
 94
        5
 62
     0
340
55
144
0.25
309
CONTENTFORMAT_END
171
     0
 94
        0
309
TABLEFORMAT_END
  1
CELLSTYLE_BEGIN
 90
        1
 91
        1
300
_TITLE
309
CELLSTYLE_END
300
CELLSTYLE
  1
TABLEFORMAT_BEGIN
 90
        5
170
     1
 91
        0
 92
        0
 62
   257
 93
        1
300
CONTENTFORMAT
  1
CONTENTFORMAT_BEGIN
 90
        0
 91
        0
 92
      512
 93
        0
300

 40
0.0
140
1.0
 94
        5
 62
     0
340
55
144
0.18
309
CONTENTFORMAT_END
171
     0
 94
        0
309
TABLEFORMAT_END
  1
CELLSTYLE_BEGIN
 90
        2
 91
        1
300
_HEADER
309
CELLSTYLE_END
300
CELLSTYLE
  1
TABLEFORMAT_BEGIN
 90
        5
170
     1
 91
        0
 92
        0
 62
   257
 93
        1
300
CONTENTFORMAT
  1
CONTENTFORMAT_BEGIN
 90
        0
 91
        0
 92
      512
 93
        0
300

 40
0.0
140
1.0
 94
        2
 62
     0
340
55
144
0.18
309
CONTENTFORMAT_END
171
     0
 94
        0
309
TABLEFORMAT_END
  1
CELLSTYLE_BEGIN
 90
        3
 91
        2
300
_DATA
309
CELLSTYLE_END
  0
ENDSEC
  0
EOF
