<?xml version="1.0" encoding="UTF-8"?>
<svg id="Ebene_1" data-name="Ebene 1" xmlns="http://www.w3.org/2000/svg" width="509.87mm" height="800.54mm" viewBox="0 0 1445.29 2269.25">
  <defs>
    <style>
      .cls-1 {
        fill: #d7ebff;
      }

      .cls-2 {
        fill: #262626;
      }

      .cls-3 {
        fill: #58a6ff;
      }

      .cls-4 {
        fill: #fff;
      }

      .cls-5 {
        fill: #aed7ff;
      }

      .cls-6 {
        fill: #4c4c4c;
      }

      .cls-7 {
        fill: #3f3f3f;
      }

      .cls-8 {
        fill: #83c1ff;
      }

      .cls-9 {
        fill: #333;
      }

      .cls-10 {
        fill: #d29922;
      }

      .cls-11 {
        fill: #595959;
      }
    </style>
  </defs>
  <g id="Ebene_6" data-name="Ebene 6">
    <rect class="cls-11" width="1445.29" height="455.08"/>
    <rect class="cls-6" y="455.08" width="1445.29" height="453.54"/>
    <rect class="cls-7" y="908.62" width="1445.29" height="453.54"/>
    <rect class="cls-9" y="1362.16" width="1445.29" height="453.54"/>
    <rect class="cls-2" y="1815.71" width="1445.29" height="453.54"/>
  </g>
  <g id="Yubitsume">
    <g id="Bottom">
      <g id="Acrylcase">
        <path class="cls-3" d="M635.22,78.48c-1.64,0-2.98-1.33-2.98-2.98s1.33-2.98,2.98-2.98,2.98,1.33,2.98,2.98-1.33,2.98-2.98,2.98Zm0,225.16c-1.64,0-2.98-1.33-2.98-2.98s1.33-2.98,2.98-2.98,2.98,1.33,2.98,2.98-1.33,2.98-2.98,2.98Zm175.94-225.05c-1.64,0-2.98-1.33-2.98-2.98s1.33-2.98,2.98-2.98,2.98,1.33,2.98,2.98-1.33,2.98-2.98,2.98Zm62.11,91.53c-1.64,0-2.98-1.33-2.98-2.98s1.33-2.98,2.98-2.98,2.98,1.33,2.98,2.98-1.33,2.98-2.98,2.98Zm19.41-91.65c-1.64,0-2.98-1.33-2.98-2.98s1.33-2.98,2.98-2.98,2.98,1.33,2.98,2.98-1.33,2.98-2.98,2.98Zm19.94,211.58l1.06-22.36c-1.64,0-2.98-1.33-2.98-2.98s1.33-2.98,2.98-2.98,2.98,1.33,2.98,2.98-1.33,2.98-2.98,2.98l-1.06,22.36Z"/>
      </g>
      <g id="Acrylcase-2">
        <path class="cls-10" d="M619.33,233.44c-1.72,0-3.12-1.4-3.12-3.12s1.4-3.12,3.12-3.12,3.12,1.4,3.12,3.12-1.4,3.12-3.12,3.12Zm1.83-168.85c-1.72,0-3.12-1.4-3.12-3.12s1.4-3.12,3.12-3.12,3.12,1.4,3.12,3.12-1.4,3.12-3.12,3.12Zm-31.33,289.33c-1.72,0-3.12-1.4-3.12-3.12s1.4-3.12,3.12-3.12,3.12,1.4,3.12,3.12-1.4,3.12-3.12,3.12Zm51.67,51.61c-1.72,0-3.12-1.4-3.12-3.12s1.4-3.12,3.12-3.12,3.12,1.4,3.12,3.12-1.4,3.12-3.12,3.12ZM810.44,55.25c1.72,0,3.12,1.4,3.12,3.12s-1.4,3.12-3.12,3.12-3.12-1.4-3.12-3.12,1.4-3.12,3.12-3.12Zm30.63,266.61c-1.72,0-3.12-1.4-3.12-3.12s1.4-3.12,3.12-3.12,3.12,1.4,3.12,3.12-1.4,3.12-3.12,3.12Zm45.47-263.49c0-1.72,1.4-3.12,3.12-3.12s3.12,1.4,3.12,3.12-1.4,3.12-3.12,3.12-3.12-1.4-3.12-3.12Zm26.07,237.92c-1.72,0-3.12-1.4-3.12-3.12s1.4-3.12,3.12-3.12,3.12,1.4,3.12,3.12-1.4,3.12-3.12,3.12Zm95.94-231.73c-1.72,0-3.12-1.4-3.12-3.12s1.4-3.12,3.12-3.12,3.12,1.4,3.12,3.12-1.4,3.12-3.12,3.12Z"/>
      </g>
      <g id="Acrylcase-3">
        <path class="cls-4" d="M1024.15,120.08l-6.75-1.19V54.52c0-1.1-.89-1.98-1.98-1.98h-119.91v-9.2c0-1.1-.89-1.98-1.98-1.98h-86.81c-1.1,0-1.98,.89-1.98,1.98v9.21h-101.33v113.79h-58.06V52.55h-31.11c-1.1,0-1.98,.89-1.98,1.98V235.99l14.74,14.74h11.85v17.33h25.77v25.94h-37.61l-14.74,15.8v6.02l-33.54,33.54c-.77,.77-.77,2.03,0,2.81l61.38,61.37c.77,.77,2.03,.77,2.81,0l35.63-35.62c8.71-8.08,17.77-15.15,26.92-21.01l.55-.28,.6-.45c1.27-.8,2.48-1.54,3.68-2.25l.23-.14c.19-.12,.38-.22,.62-.37l.5-.29c14.48-8.37,29.98-14.89,44.82-18.86,16.02-4.29,32.66-6.59,48.07-6.65h43.41c1.1,0,1.98-.89,1.98-1.98v-37.02h29.11l25.02,1.75-1.42,8.03c-.19,1.08,.53,2.11,1.61,2.3l85.32,15.04c1.08,.19,2.11-.53,2.3-1.61l2.93-16.61h20.64c1.1,0,1.98-.89,1.98-1.98v-125.78l8.36-47.37c.19-1.08-.53-2.11-1.61-2.3h-.02Zm-404.83,113.34c-1.72,0-3.12-1.4-3.12-3.12s1.4-3.12,3.12-3.12,3.12,1.4,3.12,3.12-1.4,3.12-3.12,3.12Zm1.83-168.85c-1.72,0-3.12-1.4-3.12-3.12s1.4-3.12,3.12-3.12,3.12,1.4,3.12,3.12-1.4,3.12-3.12,3.12Zm14.06,13.89c-1.64,0-2.98-1.33-2.98-2.98s1.33-2.98,2.98-2.98,2.98,1.33,2.98,2.98-1.33,2.98-2.98,2.98Zm-45.39,275.44c-1.72,0-3.12-1.4-3.12-3.12s1.4-3.12,3.12-3.12,3.12,1.4,3.12,3.12-1.4,3.12-3.12,3.12Zm45.39-50.28c-1.64,0-2.98-1.33-2.98-2.98s1.33-2.98,2.98-2.98,2.98,1.33,2.98,2.98-1.33,2.98-2.98,2.98Zm6.28,101.89c-1.72,0-3.12-1.4-3.12-3.12s1.4-3.12,3.12-3.12,3.12,1.4,3.12,3.12-1.4,3.12-3.12,3.12ZM810.44,55.25c1.72,0,3.12,1.4,3.12,3.12s-1.4,3.12-3.12,3.12-3.12-1.4-3.12-3.12,1.4-3.12,3.12-3.12Zm.71,23.34c-1.64,0-2.98-1.33-2.98-2.98s1.33-2.98,2.98-2.98,2.98,1.33,2.98,2.98-1.33,2.98-2.98,2.98Zm29.92,243.27c-1.72,0-3.12-1.4-3.12-3.12s1.4-3.12,3.12-3.12,3.12,1.4,3.12,3.12-1.4,3.12-3.12,3.12Zm32.19-151.74c-1.64,0-2.98-1.33-2.98-2.98s1.33-2.98,2.98-2.98,2.98,1.33,2.98,2.98-1.33,2.98-2.98,2.98Zm13.28-111.75c0-1.72,1.4-3.12,3.12-3.12s3.12,1.4,3.12,3.12-1.4,3.12-3.12,3.12-3.12-1.4-3.12-3.12Zm6.13,20.1c-1.64,0-2.98-1.33-2.98-2.98s1.33-2.98,2.98-2.98,2.98,1.33,2.98,2.98-1.33,2.98-2.98,2.98Zm19.94,217.82c-1.72,0-3.12-1.4-3.12-3.12s1.4-3.12,3.12-3.12,3.12,1.4,3.12,3.12-1.4,3.12-3.12,3.12Zm1.06-28.6c-1.64,0-2.98-1.33-2.98-2.98s1.33-2.98,2.98-2.98,2.98,1.33,2.98,2.98-1.33,2.98-2.98,2.98Zm94.88-203.13c-1.72,0-3.12-1.4-3.12-3.12s1.4-3.12,3.12-3.12,3.12,1.4,3.12,3.12-1.4,3.12-3.12,3.12Z"/>
      </g>
      <g id="Acrylcase-4">
        <path class="cls-3" d="M486.37,75.5c0-1.65,1.33-2.98,2.98-2.98s2.98,1.33,2.98,2.98-1.34,2.98-2.98,2.98-2.98-1.33-2.98-2.98Zm0,225.16c0-1.65,1.33-2.98,2.98-2.98s2.98,1.33,2.98,2.98-1.34,2.98-2.98,2.98-2.98-1.33-2.98-2.98ZM310.43,75.61c0-1.65,1.33-2.98,2.98-2.98s2.98,1.33,2.98,2.98-1.34,2.98-2.98,2.98-2.98-1.33-2.98-2.98Zm-62.11,91.53c0-1.65,1.33-2.98,2.98-2.98s2.98,1.33,2.98,2.98-1.34,2.98-2.98,2.98-2.98-1.33-2.98-2.98Zm-19.41-91.65c0-1.65,1.33-2.98,2.98-2.98s2.98,1.33,2.98,2.98-1.34,2.98-2.98,2.98-2.98-1.33-2.98-2.98Zm-16.96,214.56l-4.04-25.34c0-1.65,1.33-2.98,2.98-2.98s2.98,1.33,2.98,2.98-1.34,2.98-2.98,2.98-2.98-1.33-2.98-2.98l4.04,25.34Z"/>
      </g>
      <g id="Acrylcase-5">
        <path class="cls-10" d="M502.12,230.32c0-1.72,1.4-3.12,3.12-3.12s3.12,1.4,3.12,3.12-1.4,3.12-3.12,3.12-3.12-1.4-3.12-3.12Zm-1.83-168.85c0-1.72,1.4-3.12,3.12-3.12s3.12,1.4,3.12,3.12-1.4,3.12-3.12,3.12-3.12-1.4-3.12-3.12Zm31.33,289.33c0-1.72,1.4-3.12,3.12-3.12s3.12,1.4,3.12,3.12-1.4,3.12-3.12,3.12-3.12-1.4-3.12-3.12Zm-51.67,51.61c0-1.72,1.4-3.12,3.12-3.12s3.12,1.4,3.12,3.12-1.4,3.12-3.12,3.12-3.12-1.4-3.12-3.12ZM317.24,58.37c0,1.72-1.4,3.12-3.12,3.12s-3.12-1.4-3.12-3.12,1.4-3.12,3.12-3.12,3.12,1.4,3.12,3.12Zm-36.87,260.37c0-1.72,1.4-3.12,3.12-3.12s3.12,1.4,3.12,3.12-1.4,3.12-3.12,3.12-3.12-1.4-3.12-3.12ZM234.9,61.49c-1.72,0-3.12-1.4-3.12-3.12s1.4-3.12,3.12-3.12,3.12,1.4,3.12,3.12-1.4,3.12-3.12,3.12Zm-26.07,231.68c0-1.72,1.4-3.12,3.12-3.12s3.12,1.4,3.12,3.12-1.4,3.12-3.12,3.12-3.12-1.4-3.12-3.12ZM112.89,61.44c0-1.72,1.4-3.12,3.12-3.12s3.12,1.4,3.12,3.12-1.4,3.12-3.12,3.12-3.12-1.4-3.12-3.12Z"/>
      </g>
      <g id="Acrylcase-6">
        <path class="cls-4" d="M100.39,120.09c-1.08,.19-1.8,1.22-1.61,2.3l8.36,47.37v125.78c0,1.09,.88,1.98,1.98,1.98h20.64l2.93,16.61c.19,1.08,1.22,1.8,2.3,1.61l85.32-15.04c1.08-.19,1.8-1.22,1.61-2.3l-1.42-8.03,25.02-1.75h29.11v37.02c0,1.09,.88,1.98,1.98,1.98h43.41c15.41,.06,32.05,2.36,48.07,6.65,14.84,3.97,30.34,10.49,44.82,18.86l.5,.29c.24,.15,.43,.25,.62,.37l.23,.14c1.2,.71,2.41,1.45,3.68,2.25l.6,.45,.55,.28c9.15,5.86,18.21,12.93,26.92,21.01l35.63,35.62c.78,.77,2.04,.77,2.81,0l61.38-61.37c.77-.78,.77-2.04,0-2.81l-33.54-33.54v-6.02l-14.74-15.8h-37.61v-25.94h25.77v-17.33h11.85l14.74-14.74V54.53c0-1.09-.88-1.98-1.98-1.98h-31.11v113.79h-58.06V52.55h-101.33v-9.21c0-1.09-.88-1.98-1.98-1.98h-86.81c-1.09,0-1.98,.88-1.98,1.98v9.2H109.14c-1.09,0-1.98,.88-1.98,1.98V118.89l-6.75,1.19h-.02Zm401.73,110.25c0-1.72,1.4-3.12,3.12-3.12s3.12,1.4,3.12,3.12-1.4,3.12-3.12,3.12-3.12-1.4-3.12-3.12Zm-1.83-168.85c0-1.72,1.4-3.12,3.12-3.12s3.12,1.4,3.12,3.12-1.4,3.12-3.12,3.12-3.12-1.4-3.12-3.12Zm-13.92,14.03c0-1.65,1.33-2.98,2.98-2.98s2.98,1.33,2.98,2.98-1.34,2.98-2.98,2.98-2.98-1.33-2.98-2.98Zm45.25,275.3c0-1.72,1.4-3.12,3.12-3.12s3.12,1.4,3.12,3.12-1.4,3.12-3.12,3.12-3.12-1.4-3.12-3.12Zm-45.25-50.14c0-1.65,1.33-2.98,2.98-2.98s2.98,1.33,2.98,2.98-1.34,2.98-2.98,2.98-2.98-1.33-2.98-2.98Zm-6.42,101.75c0-1.72,1.4-3.12,3.12-3.12s3.12,1.4,3.12,3.12-1.4,3.12-3.12,3.12-3.12-1.4-3.12-3.12ZM317.24,58.37c0,1.72-1.4,3.12-3.12,3.12s-3.12-1.4-3.12-3.12,1.4-3.12,3.12-3.12,3.12,1.4,3.12,3.12Zm-6.81,17.24c0-1.65,1.33-2.98,2.98-2.98s2.98,1.33,2.98,2.98-1.34,2.98-2.98,2.98-2.98-1.33-2.98-2.98Zm-30.06,243.13c0-1.72,1.4-3.12,3.12-3.12s3.12,1.4,3.12,3.12-1.4,3.12-3.12,3.12-3.12-1.4-3.12-3.12Zm-32.05-151.6c0-1.65,1.33-2.98,2.98-2.98s2.98,1.33,2.98,2.98-1.34,2.98-2.98,2.98-2.98-1.33-2.98-2.98Zm-13.42-105.65c-1.72,0-3.12-1.4-3.12-3.12s1.4-3.12,3.12-3.12,3.12,1.4,3.12,3.12-1.4,3.12-3.12,3.12Zm-5.99,14c0-1.65,1.33-2.98,2.98-2.98s2.98,1.33,2.98,2.98-1.34,2.98-2.98,2.98-2.98-1.33-2.98-2.98Zm-20.08,217.68c0-1.72,1.4-3.12,3.12-3.12s3.12,1.4,3.12,3.12-1.4,3.12-3.12,3.12-3.12-1.4-3.12-3.12Zm-.92-28.46c0-1.65,1.33-2.98,2.98-2.98s2.98,1.33,2.98,2.98-1.34,2.98-2.98,2.98-2.98-1.33-2.98-2.98ZM112.89,61.44c0-1.72,1.4-3.12,3.12-3.12s3.12,1.4,3.12,3.12-1.4,3.12-3.12,3.12-3.12-1.4-3.12-3.12Z"/>
      </g>
    </g>
    <g id="Border01">
      <g>
        <path class="cls-1" d="M1029.87,573.09l-6.75-1.19v-64.37c0-1.1-.89-1.98-1.98-1.98h-15.78v14.17h.19c1.88,0,3.4,1.53,3.4,3.4v60.67l3.11,.55c1.85,.33,3.08,2.09,2.76,3.94l-5.86,33.24v111.43c0,1.88-1.53,3.4-3.4,3.4h-16.94l-2.29,12.97c-.29,1.63-1.7,2.81-3.35,2.81-.19,0-.39-.02-.59-.05l-54.62-9.63c-.89-.16-1.67-.65-2.2-1.4-.52-.74-.72-1.65-.56-2.54l1.44-8.18-41.21-2.89h-43.78l14.17,14.18h29.11l25.02,1.75-1.42,8.03c-.19,1.08,.53,2.11,1.61,2.3l85.32,15.04c1.08,.19,2.11-.53,2.3-1.61l2.93-16.61h20.64c1.1,0,1.98-.89,1.98-1.98v-125.78l8.36-47.37c.19-1.08-.53-2.11-1.61-2.3h0Zm-111.53,177.63c-2.5,0-4.54-2.03-4.54-4.54s2.03-4.54,4.54-4.54,4.54,2.03,4.54,4.54-2.03,4.54-4.54,4.54Zm95.95-231.74c-2.5,0-4.54-2.03-4.54-4.54s2.03-4.54,4.54-4.54,4.54,2.03,4.54,4.54-2.03,4.54-4.54,4.54Z"/>
        <path class="cls-1" d="M835.76,727.44h0v35.6c0,1.88-1.53,3.4-3.4,3.4h-27.82c-16.67,.06-34.56,2.53-51.74,7.13-16.01,4.29-32.69,11.3-48.24,20.28l-.55,.32c-.3,.17-.6,.35-.89,.53-1.42,.84-2.84,1.7-4.34,2.66-.1,.06-.13,.08-.16,.1l-.1,.07-.11,.05-.05,.04-.12,.07c-10.07,6.41-20.01,14.15-29.53,23l-24.79,24.78c-.64,.64-1.5,1-2.4,1s-1.76-.35-2.41-1l-39.33-39.32c-.64-.64-1-1.5-1-2.41s.35-1.76,1-2.41l23.04-23.04c.12-.12,.24-.25,.37-.37l3.25-3.26v-27.08l-14.17,15.19v6.02l-33.54,33.54c-.77,.77-.77,2.03,0,2.81l61.38,61.37c.77,.77,2.03,.77,2.81,0l35.63-35.62c8.71-8.08,17.77-15.15,26.92-21.01l.55-.28,.6-.45c1.27-.8,2.48-1.54,3.68-2.25l.23-.14c.19-.12,.38-.22,.62-.37l.5-.29c14.48-8.37,29.98-14.89,44.82-18.86,16.02-4.29,32.66-6.59,48.07-6.65h43.41c1.1,0,1.98-.89,1.98-1.98v-37.01l-14.17-14.17h0Zm-245.92,80.91c-2.5,0-4.54-2.03-4.54-4.54s2.03-4.54,4.54-4.54,4.54,2.03,4.54,4.54-2.03,4.54-4.54,4.54Zm51.66,51.61c-2.5,0-4.54-2.03-4.54-4.54s2.03-4.54,4.54-4.54,4.54,2.03,4.54,4.54-2.03,4.54-4.54,4.54Zm199.59-92.73c2.5,0,4.54,2.03,4.54,4.54s-2.03,4.54-4.54,4.54-4.54-2.03-4.54-4.54,2.03-4.54,4.54-4.54Z"/>
        <path class="cls-1" d="M626.44,523.12c0-1.88,1.53-3.4,3.4-3.4h24.28v-14.17h-39.87c-1.1,0-1.98,.89-1.98,1.98v181.46l14.17,14.17v-180.04h0Zm-7.09,164.74c-2.5,0-4.54-2.03-4.54-4.54s2.03-4.54,4.54-4.54,4.54,2.03,4.54,4.54-2.03,4.54-4.54,4.54Zm1.83-168.85c-2.5,0-4.54-2.03-4.54-4.54s2.03-4.54,4.54-4.54,4.54,2.03,4.54,4.54-2.03,4.54-4.54,4.54Z"/>
        <path class="cls-1" d="M895.53,505.56v-9.21c0-1.1-.89-1.98-1.98-1.98h-86.81c-1.1,0-1.98,.89-1.98,1.98v9.21h-110.09v14.17h124.27v-7.79c0-1.88,1.53-3.4,3.4-3.4h55.63c1.88,0,3.4,1.53,3.4,3.4v7.8h118.31v-14.18h-104.15Zm-85.06,10.37c-2.5,0-4.54-2.03-4.54-4.54s2.03-4.54,4.54-4.54,4.54,2.03,4.54,4.54-2.03,4.54-4.54,4.54Zm79.22,0c-2.5,0-4.54-2.03-4.54-4.54s2.03-4.54,4.54-4.54,4.54,2.03,4.54,4.54-2.03,4.54-4.54,4.54Z"/>
      </g>
      <g>
        <path class="cls-1" d="M94.69,573.09c-1.08,.19-1.8,1.22-1.61,2.3l8.36,47.37v125.78c0,1.09,.88,1.98,1.98,1.98h20.64l2.93,16.61c.19,1.08,1.22,1.8,2.3,1.61l85.32-15.04c1.08-.19,1.8-1.22,1.61-2.3l-1.42-8.03,25.02-1.75h29.11l14.17-14.18h-43.78l-41.21,2.89,1.44,8.18c.16,.89-.04,1.8-.56,2.54-.53,.75-1.31,1.24-2.2,1.4l-54.62,9.63c-.2,.03-.4,.05-.59,.05-1.65,0-3.06-1.18-3.35-2.81l-2.29-12.97h-16.94c-1.87,0-3.4-1.52-3.4-3.4v-111.43l-5.86-33.24c-.32-1.85,.91-3.61,2.76-3.94l3.11-.55v-60.67c0-1.87,1.52-3.4,3.4-3.4h.19v-14.17h-15.78c-1.09,0-1.98,.88-1.98,1.98v64.37l-6.75,1.19h0Zm106.99,173.09c0-2.51,2.03-4.54,4.54-4.54s4.54,2.03,4.54,4.54-2.04,4.54-4.54,4.54-4.54-2.03-4.54-4.54Zm-95.95-231.74c0-2.51,2.03-4.54,4.54-4.54s4.54,2.03,4.54,4.54-2.04,4.54-4.54,4.54-4.54-2.03-4.54-4.54Z"/>
        <path class="cls-1" d="M288.8,727.43h0l-14.17,14.17v37.01c0,1.09,.88,1.98,1.98,1.98h43.41c15.41,.06,32.05,2.36,48.07,6.65,14.84,3.97,30.34,10.49,44.82,18.86l.5,.29c.24,.15,.43,.25,.62,.37l.23,.14c1.2,.71,2.41,1.45,3.68,2.25l.6,.45,.55,.28c9.15,5.86,18.21,12.93,26.92,21.01l35.63,35.62c.78,.77,2.04,.77,2.81,0l61.38-61.37c.77-.78,.77-2.04,0-2.81l-33.54-33.54v-6.02l-14.17-15.19v27.08l3.25,3.26c.13,.12,.25,.25,.37,.37l23.04,23.04c.65,.65,1,1.5,1,2.41s-.36,1.77-1,2.41l-39.33,39.32c-.65,.65-1.51,1-2.41,1s-1.76-.36-2.4-1l-24.79-24.78c-9.52-8.85-19.46-16.59-29.53-23l-.12-.07-.05-.04-.11-.05-.1-.07s-.06-.04-.16-.1c-1.5-.96-2.92-1.82-4.34-2.66-.29-.18-.59-.36-.89-.53l-.55-.32c-15.55-8.98-32.23-15.99-48.24-20.28-17.18-4.6-35.07-7.07-51.74-7.13h-27.82c-1.87,0-3.4-1.52-3.4-3.4v-35.6h0Zm241.38,76.34c0-2.51,2.03-4.54,4.54-4.54s4.54,2.03,4.54,4.54-2.04,4.54-4.54,4.54-4.54-2.03-4.54-4.54Zm-51.66,51.61c0-2.51,2.03-4.54,4.54-4.54s4.54,2.03,4.54,4.54-2.04,4.54-4.54,4.54-4.54-2.03-4.54-4.54Zm-190.51-83.65c0,2.51-2.03,4.54-4.54,4.54s-4.54-2.03-4.54-4.54,2.04-4.54,4.54-4.54,4.54,2.03,4.54,4.54Z"/>
        <path class="cls-1" d="M498.13,703.16l14.17-14.17v-181.46c0-1.09-.88-1.98-1.98-1.98h-39.87v14.17h24.28c1.87,0,3.4,1.52,3.4,3.4v180.04h0Zm2.55-19.84c0-2.51,2.03-4.54,4.54-4.54s4.54,2.03,4.54,4.54-2.04,4.54-4.54,4.54-4.54-2.03-4.54-4.54Zm-1.83-168.85c0-2.51,2.03-4.54,4.54-4.54s4.54,2.03,4.54,4.54-2.04,4.54-4.54,4.54-4.54-2.03-4.54-4.54Z"/>
        <path class="cls-1" d="M229.02,505.56H124.88v14.18h118.31v-7.8c0-1.87,1.52-3.4,3.4-3.4h55.63c1.87,0,3.4,1.52,3.4,3.4v7.79h124.27v-14.17h-110.09v-9.21c0-1.09-.88-1.98-1.98-1.98h-86.81c-1.09,0-1.98,.88-1.98,1.98v9.21h-.01Zm80.53,5.83c0-2.51,2.03-4.54,4.54-4.54s4.54,2.03,4.54,4.54-2.04,4.54-4.54,4.54-4.54-2.03-4.54-4.54Zm-79.22,0c0-2.51,2.03-4.54,4.54-4.54s4.54,2.03,4.54,4.54-2.04,4.54-4.54,4.54-4.54-2.03-4.54-4.54Z"/>
      </g>
    </g>
    <g id="Border02">
      <g>
        <path class="cls-5" d="M1029.88,1026.98l-6.75-1.19v-64.37c0-1.1-.89-1.98-1.98-1.98h-15.78v14.17h.19c1.88,0,3.4,1.53,3.4,3.4v60.67l3.11,.55c1.85,.33,3.08,2.09,2.76,3.94l-5.86,33.24v111.43c0,1.88-1.53,3.4-3.4,3.4h-16.94l-2.29,12.97c-.29,1.63-1.7,2.81-3.35,2.81-.19,0-.39-.02-.59-.05l-54.62-9.63c-.89-.16-1.67-.65-2.2-1.4-.52-.74-.72-1.65-.56-2.54l1.44-8.18-41.21-2.89h-43.78l14.17,14.18h29.11l25.02,1.75-1.42,8.03c-.19,1.08,.53,2.11,1.61,2.3l85.32,15.04c1.08,.19,2.11-.53,2.3-1.61l2.93-16.61h20.64c1.1,0,1.98-.89,1.98-1.98v-125.78l8.36-47.37c.19-1.08-.53-2.11-1.61-2.3h0Zm-111.53,177.63c-2.5,0-4.54-2.03-4.54-4.54s2.03-4.54,4.54-4.54,4.54,2.03,4.54,4.54-2.03,4.54-4.54,4.54Zm95.95-231.74c-2.5,0-4.54-2.03-4.54-4.54s2.03-4.54,4.54-4.54,4.54,2.03,4.54,4.54-2.03,4.54-4.54,4.54Z"/>
        <path class="cls-5" d="M835.77,1181.33h0v35.6c0,1.88-1.53,3.4-3.4,3.4h-27.82c-16.67,.06-34.56,2.53-51.74,7.13-16.01,4.29-32.69,11.3-48.24,20.28l-.55,.32c-.3,.17-.6,.35-.89,.53-1.42,.84-2.84,1.7-4.34,2.66-.1,.06-.13,.08-.16,.1l-.1,.07-.11,.05-.05,.04-.12,.07c-10.07,6.41-20.01,14.15-29.53,23l-24.79,24.78c-.64,.64-1.5,1-2.4,1s-1.76-.35-2.41-1l-39.33-39.32c-.64-.64-1-1.5-1-2.41s.35-1.76,1-2.41l23.04-23.04c.12-.12,.24-.25,.37-.37l3.25-3.26v-27.08l-14.17,15.19v6.02l-33.54,33.54c-.77,.77-.77,2.03,0,2.81l61.38,61.37c.77,.77,2.03,.77,2.81,0l35.63-35.62c8.71-8.08,17.77-15.15,26.92-21.01l.55-.28,.6-.45c1.27-.8,2.48-1.54,3.68-2.25l.23-.14c.19-.12,.38-.22,.62-.37l.5-.29c14.48-8.37,29.98-14.89,44.82-18.86,16.02-4.29,32.66-6.59,48.07-6.65h43.41c1.1,0,1.98-.89,1.98-1.98v-37.01l-14.17-14.17h0Zm-245.92,80.91c-2.5,0-4.54-2.03-4.54-4.54s2.03-4.54,4.54-4.54,4.54,2.03,4.54,4.54-2.03,4.54-4.54,4.54Zm51.66,51.61c-2.5,0-4.54-2.03-4.54-4.54s2.03-4.54,4.54-4.54,4.54,2.03,4.54,4.54-2.03,4.54-4.54,4.54Zm199.59-92.73c2.5,0,4.54,2.03,4.54,4.54s-2.03,4.54-4.54,4.54-4.54-2.03-4.54-4.54,2.03-4.54,4.54-4.54Z"/>
        <path class="cls-5" d="M895.54,959.45v-9.21c0-1.1-.89-1.98-1.98-1.98h-86.81c-1.1,0-1.98,.89-1.98,1.98v9.21h-190.52c-1.1,0-1.98,.89-1.98,1.98v181.46l14.17,14.17v-180.05c0-1.88,1.53-3.4,3.4-3.4h189.09v-7.79c0-1.88,1.53-3.4,3.4-3.4h55.63c1.88,0,3.4,1.53,3.4,3.4v7.8h118.31v-14.18h-104.13Zm-276.18,182.32c-2.5,0-4.54-2.03-4.54-4.54s2.03-4.54,4.54-4.54,4.54,2.03,4.54,4.54-2.03,4.54-4.54,4.54Zm1.83-168.85c-2.5,0-4.54-2.03-4.54-4.54s2.03-4.54,4.54-4.54,4.54,2.03,4.54,4.54-2.03,4.54-4.54,4.54Zm189.29-3.1c-2.5,0-4.54-2.03-4.54-4.54s2.03-4.54,4.54-4.54,4.54,2.03,4.54,4.54-2.03,4.54-4.54,4.54Zm79.22,0c-2.5,0-4.54-2.03-4.54-4.54s2.03-4.54,4.54-4.54,4.54,2.03,4.54,4.54-2.03,4.54-4.54,4.54Z"/>
      </g>
      <g>
        <path class="cls-5" d="M94.69,1026.98c-1.08,.19-1.8,1.22-1.61,2.3l8.36,47.37v125.78c0,1.09,.88,1.98,1.98,1.98h20.64l2.93,16.61c.19,1.08,1.22,1.8,2.3,1.61l85.32-15.04c1.08-.19,1.8-1.22,1.61-2.3l-1.42-8.03,25.02-1.75h29.11l14.17-14.18h-43.78l-41.21,2.89,1.44,8.18c.16,.89-.04,1.8-.56,2.54-.53,.75-1.31,1.24-2.2,1.4l-54.62,9.63c-.2,.03-.4,.05-.59,.05-1.65,0-3.06-1.18-3.35-2.81l-2.29-12.97h-16.94c-1.87,0-3.4-1.52-3.4-3.4v-111.43l-5.86-33.24c-.32-1.85,.91-3.61,2.76-3.94l3.11-.55v-60.67c0-1.87,1.52-3.4,3.4-3.4h.19v-14.17h-15.78c-1.09,0-1.98,.88-1.98,1.98v64.37l-6.75,1.19h0Zm106.99,173.09c0-2.51,2.03-4.54,4.54-4.54s4.54,2.03,4.54,4.54-2.04,4.54-4.54,4.54-4.54-2.03-4.54-4.54Zm-95.95-231.74c0-2.51,2.03-4.54,4.54-4.54s4.54,2.03,4.54,4.54-2.04,4.54-4.54,4.54-4.54-2.03-4.54-4.54Z"/>
        <path class="cls-5" d="M288.8,1181.32h0l-14.17,14.17v37.01c0,1.09,.88,1.98,1.98,1.98h43.41c15.41,.06,32.05,2.36,48.07,6.65,14.84,3.97,30.34,10.49,44.82,18.86l.5,.29c.24,.15,.43,.25,.62,.37l.23,.14c1.2,.71,2.41,1.45,3.68,2.25l.6,.45,.55,.28c9.15,5.86,18.21,12.93,26.92,21.01l35.63,35.62c.78,.77,2.04,.77,2.81,0l61.38-61.37c.77-.78,.77-2.04,0-2.81l-33.54-33.54v-6.02l-14.17-15.19v27.08l3.25,3.26c.13,.12,.25,.25,.37,.37l23.04,23.04c.65,.65,1,1.5,1,2.41s-.36,1.77-1,2.41l-39.33,39.32c-.65,.65-1.51,1-2.41,1s-1.76-.36-2.4-1l-24.79-24.78c-9.52-8.85-19.46-16.59-29.53-23l-.12-.07-.05-.04-.11-.05-.1-.07s-.06-.04-.16-.1c-1.5-.96-2.92-1.82-4.34-2.66-.29-.18-.59-.36-.89-.53l-.55-.32c-15.55-8.98-32.23-15.99-48.24-20.28-17.18-4.6-35.07-7.07-51.74-7.13h-27.82c-1.87,0-3.4-1.52-3.4-3.4v-35.6h0Zm241.38,76.34c0-2.51,2.03-4.54,4.54-4.54s4.54,2.03,4.54,4.54-2.04,4.54-4.54,4.54-4.54-2.03-4.54-4.54Zm-51.66,51.61c0-2.51,2.03-4.54,4.54-4.54s4.54,2.03,4.54,4.54-2.04,4.54-4.54,4.54-4.54-2.03-4.54-4.54Zm-190.51-83.65c0,2.51-2.03,4.54-4.54,4.54s-4.54-2.03-4.54-4.54,2.04-4.54,4.54-4.54,4.54,2.03,4.54,4.54Z"/>
        <path class="cls-5" d="M229.04,959.44H124.9v14.18h118.31v-7.8c0-1.87,1.52-3.4,3.4-3.4h55.63c1.87,0,3.4,1.52,3.4,3.4v7.79h189.09c1.87,0,3.4,1.52,3.4,3.4v180.05l14.17-14.17v-181.46c0-1.09-.88-1.98-1.98-1.98h-190.52v-9.21c0-1.09-.88-1.98-1.98-1.98h-86.81c-1.09,0-1.98,.88-1.98,1.98v9.21h0Zm271.63,177.75c0-2.51,2.03-4.54,4.54-4.54s4.54,2.03,4.54,4.54-2.04,4.54-4.54,4.54-4.54-2.03-4.54-4.54Zm-1.83-168.85c0-2.51,2.03-4.54,4.54-4.54s4.54,2.03,4.54,4.54-2.04,4.54-4.54,4.54-4.54-2.03-4.54-4.54Zm-189.29-3.1c0-2.51,2.03-4.54,4.54-4.54s4.54,2.03,4.54,4.54-2.04,4.54-4.54,4.54-4.54-2.03-4.54-4.54Zm-79.22,0c0-2.51,2.03-4.54,4.54-4.54s4.54,2.03,4.54,4.54-2.04,4.54-4.54,4.54-4.54-2.03-4.54-4.54Z"/>
      </g>
    </g>
    <g id="Border03">
      <g>
        <path class="cls-8" d="M1029.87,1480.19l-6.75-1.19v-64.37c0-1.1-.89-1.98-1.98-1.98h-15.78v14.17h.19c1.88,0,3.4,1.53,3.4,3.4v60.67l3.11,.55c1.85,.33,3.08,2.09,2.76,3.94l-5.86,33.24v111.43c0,1.88-1.53,3.4-3.4,3.4h-16.94l-2.29,12.97c-.29,1.63-1.7,2.81-3.35,2.81-.19,0-.39-.02-.59-.05l-54.62-9.63c-.89-.16-1.67-.65-2.2-1.4-.52-.74-.72-1.65-.56-2.54l1.44-8.18-41.21-2.89h-43.78l14.17,14.18h29.11l25.02,1.75-1.42,8.03c-.19,1.08,.53,2.11,1.61,2.3l85.32,15.04c1.08,.19,2.11-.53,2.3-1.61l2.93-16.61h20.64c1.1,0,1.98-.89,1.98-1.98v-125.78l8.36-47.37c.19-1.08-.53-2.11-1.61-2.3h0Zm-111.53,177.63c-2.5,0-4.54-2.03-4.54-4.54s2.03-4.54,4.54-4.54,4.54,2.03,4.54,4.54-2.03,4.54-4.54,4.54Zm95.95-231.74c-2.5,0-4.54-2.03-4.54-4.54s2.03-4.54,4.54-4.54,4.54,2.03,4.54,4.54-2.03,4.54-4.54,4.54Z"/>
        <path class="cls-8" d="M895.53,1412.66v-9.21c0-1.1-.89-1.98-1.98-1.98h-86.81c-1.1,0-1.98,.89-1.98,1.98v9.21h-190.52c-1.1,0-1.98,.89-1.98,1.98v261.28l-33.54,33.54c-.77,.77-.77,2.03,0,2.81l61.38,61.37c.77,.77,2.03,.77,2.81,0l35.63-35.62c8.71-8.08,17.77-15.15,26.92-21.01l.55-.28,.6-.45c1.27-.8,2.48-1.54,3.68-2.25l.23-.14c.19-.12,.38-.22,.62-.37l.5-.29c14.48-8.37,29.98-14.89,44.82-18.86,16.02-4.29,32.66-6.59,48.07-6.65h43.41c1.1,0,1.98-.89,1.98-1.98v-37.01l-14.17-14.17h0v35.59c0,1.88-1.53,3.4-3.4,3.4h-27.82c-16.67,.06-34.56,2.53-51.74,7.13-16.01,4.29-32.69,11.3-48.24,20.28l-.55,.32c-.3,.17-.6,.35-.89,.53-1.42,.84-2.84,1.7-4.34,2.66-.1,.06-.13,.08-.16,.1l-.1,.07-.11,.05-.05,.04-.12,.07c-10.07,6.41-20.01,14.15-29.53,23l-24.79,24.78c-.64,.64-1.5,1-2.4,1s-1.76-.35-2.41-1l-39.33-39.32c-.64-.64-1-1.5-1-2.41s.35-1.76,1-2.41l23.04-23.04c.12-.12,.24-.25,.37-.37l3.25-3.26v-251.55c0-1.88,1.53-3.4,3.4-3.4h189.09v-7.79c0-1.88,1.53-3.4,3.4-3.4h55.63c1.88,0,3.4,1.53,3.4,3.4v7.8h118.31v-14.18h-104.13Zm-54.43,261.69c2.5,0,4.54,2.03,4.54,4.54s-2.03,4.54-4.54,4.54-4.54-2.03-4.54-4.54,2.03-4.54,4.54-4.54Zm-199.59,83.66c2.5,0,4.54,2.03,4.54,4.54s-2.03,4.54-4.54,4.54-4.54-2.03-4.54-4.54,2.03-4.54,4.54-4.54Zm-51.66-42.54c-2.5,0-4.54-2.03-4.54-4.54s2.03-4.54,4.54-4.54,4.54,2.03,4.54,4.54-2.03,4.54-4.54,4.54Zm31.32-298.4c2.5,0,4.54,2.03,4.54,4.54s-2.03,4.54-4.54,4.54-4.54-2.03-4.54-4.54,2.03-4.54,4.54-4.54Zm-1.83,168.85c2.5,0,4.54,2.03,4.54,4.54s-2.03,4.54-4.54,4.54-4.54-2.03-4.54-4.54,2.03-4.54,4.54-4.54Zm191.12-162.88c-2.5,0-4.54-2.03-4.54-4.54s2.03-4.54,4.54-4.54,4.54,2.03,4.54,4.54-2.03,4.54-4.54,4.54Zm79.22,0c-2.5,0-4.54-2.03-4.54-4.54s2.03-4.54,4.54-4.54,4.54,2.03,4.54,4.54-2.03,4.54-4.54,4.54Z"/>
      </g>
      <g>
        <path class="cls-8" d="M94.68,1480.19c-1.08,.19-1.8,1.22-1.61,2.3l8.36,47.37v125.78c0,1.09,.88,1.98,1.98,1.98h20.64l2.93,16.61c.19,1.08,1.22,1.8,2.3,1.61l85.32-15.04c1.08-.19,1.8-1.22,1.61-2.3l-1.42-8.03,25.02-1.75h29.11l14.17-14.18h-43.78l-41.21,2.89,1.44,8.18c.16,.89-.04,1.8-.56,2.54-.53,.75-1.31,1.24-2.2,1.4l-54.62,9.63c-.2,.03-.4,.05-.59,.05-1.65,0-3.06-1.18-3.35-2.81l-2.29-12.97h-16.94c-1.87,0-3.4-1.52-3.4-3.4v-111.43l-5.86-33.24c-.32-1.85,.91-3.61,2.76-3.94l3.11-.55v-60.67c0-1.87,1.52-3.4,3.4-3.4h.19v-14.17h-15.78c-1.09,0-1.98,.88-1.98,1.98v64.37l-6.75,1.19h0Zm106.99,173.09c0-2.51,2.03-4.54,4.54-4.54s4.54,2.03,4.54,4.54-2.04,4.54-4.54,4.54-4.54-2.03-4.54-4.54Zm-95.95-231.74c0-2.51,2.03-4.54,4.54-4.54s4.54,2.03,4.54,4.54-2.04,4.54-4.54,4.54-4.54-2.03-4.54-4.54Z"/>
        <path class="cls-8" d="M229.03,1412.65H124.89v14.18h118.31v-7.8c0-1.87,1.52-3.4,3.4-3.4h55.63c1.87,0,3.4,1.52,3.4,3.4v7.79h189.09c1.87,0,3.4,1.52,3.4,3.4v251.55l3.25,3.26c.13,.12,.25,.25,.37,.37l23.04,23.04c.65,.65,1,1.5,1,2.41s-.36,1.77-1,2.41l-39.33,39.32c-.65,.65-1.51,1-2.41,1s-1.76-.36-2.4-1l-24.79-24.78c-9.52-8.85-19.46-16.59-29.53-23l-.12-.07-.05-.04-.11-.05-.1-.07s-.06-.04-.16-.1c-1.5-.96-2.92-1.82-4.34-2.66-.29-.18-.59-.36-.89-.53l-.55-.32c-15.55-8.98-32.23-15.99-48.24-20.28-17.18-4.6-35.07-7.07-51.74-7.13h-27.82c-1.87,0-3.4-1.52-3.4-3.4v-35.59h0l-14.17,14.17v37.01c0,1.09,.88,1.98,1.98,1.98h43.41c15.41,.06,32.05,2.36,48.07,6.65,14.84,3.97,30.34,10.49,44.82,18.86l.5,.29c.24,.15,.43,.25,.62,.37l.23,.14c1.2,.71,2.41,1.45,3.68,2.25l.6,.45,.55,.28c9.15,5.86,18.21,12.93,26.92,21.01l35.63,35.62c.78,.77,2.04,.77,2.81,0l61.38-61.37c.77-.78,.77-2.04,0-2.81l-33.54-33.54v-261.28c0-1.09-.88-1.98-1.98-1.98h-190.52v-9.21c0-1.09-.88-1.98-1.98-1.98h-86.81c-1.09,0-1.98,.88-1.98,1.98v9.21h0Zm58.96,266.2c0,2.51-2.03,4.54-4.54,4.54s-4.54-2.03-4.54-4.54,2.04-4.54,4.54-4.54,4.54,2.03,4.54,4.54Zm199.59,83.66c0,2.51-2.03,4.54-4.54,4.54s-4.54-2.03-4.54-4.54,2.04-4.54,4.54-4.54,4.54,2.03,4.54,4.54Zm42.58-51.62c0-2.51,2.03-4.54,4.54-4.54s4.54,2.03,4.54,4.54-2.04,4.54-4.54,4.54-4.54-2.03-4.54-4.54Zm-22.24-289.32c0,2.51-2.03,4.54-4.54,4.54s-4.54-2.03-4.54-4.54,2.04-4.54,4.54-4.54,4.54,2.03,4.54,4.54Zm1.83,168.85c0,2.51-2.03,4.54-4.54,4.54s-4.54-2.03-4.54-4.54,2.04-4.54,4.54-4.54,4.54,2.03,4.54,4.54Zm-200.2-171.96c0-2.51,2.03-4.54,4.54-4.54s4.54,2.03,4.54,4.54-2.04,4.54-4.54,4.54-4.54-2.03-4.54-4.54Zm-79.22,0c0-2.51,2.03-4.54,4.54-4.54s4.54,2.03,4.54,4.54-2.04,4.54-4.54,4.54-4.54-2.03-4.54-4.54Z"/>
      </g>
    </g>
    <g id="Top">
      <g id="CaHole_Min_Kopie" data-name="CaHole Min Kopie">
        <path class="cls-3" d="M1024.18,1933.46l-6.75-1.19v-64.37c0-1.1-.89-1.98-1.98-1.98h-119.91v-9.2c0-1.1-.89-1.98-1.98-1.98h-86.81c-1.1,0-1.98,.89-1.98,1.98v9.21h-190.53c-1.1,0-1.98,.89-1.98,1.98v261.28l-33.54,33.54c-.77,.77-.77,2.03,0,2.81l61.38,61.37c.77,.77,2.03,.77,2.81,0l35.63-35.62c8.71-8.08,17.77-15.15,26.92-21.01l.55-.28,.6-.45c1.27-.8,2.48-1.54,3.68-2.25l.23-.14c.19-.12,.38-.22,.62-.37l.5-.29c14.48-8.37,29.98-14.89,44.82-18.86,16.02-4.29,32.66-6.59,48.07-6.65h43.41c1.1,0,1.98-.89,1.98-1.98v-37.02h29.11l25.02,1.75-1.42,8.03c-.19,1.08,.53,2.11,1.61,2.3l85.32,15.04c1.08,.19,2.11-.53,2.3-1.61l2.93-16.61h20.64c1.1,0,1.98-.89,1.98-1.98v-125.78l8.36-47.37c.19-1.08-.53-2.11-1.61-2.3h.02Zm-134.49-64.83c1.72,0,3.12,1.4,3.12,3.12s-1.4,3.12-3.12,3.12-3.12-1.4-3.12-3.12,1.4-3.12,3.12-3.12Zm-79.22,0c1.72,0,3.12,1.4,3.12,3.12s-1.4,3.12-3.12,3.12-3.12-1.4-3.12-3.12,1.4-3.12,3.12-3.12Zm-140.21,150.51c19.18,0,34.72,15.55,34.72,34.72s-15.55,34.72-34.72,34.72-34.72-15.55-34.72-34.72,15.55-34.72,34.72-34.72h0Zm-49.08-147.41c1.72,0,3.12,1.4,3.12,3.12s-1.4,3.12-3.12,3.12-3.12-1.4-3.12-3.12,1.4-3.12,3.12-3.12Zm-1.83,168.85c1.72,0,3.12,1.4,3.12,3.12s-1.4,3.12-3.12,3.12-3.12-1.4-3.12-3.12,1.4-3.12,3.12-3.12Zm-29.5,126.72c-1.72,0-3.12-1.4-3.12-3.12s1.4-3.12,3.12-3.12,3.12,1.4,3.12,3.12-1.4,3.12-3.12,3.12Zm51.66,51.61c-1.72,0-3.12-1.4-3.12-3.12s1.4-3.12,3.12-3.12,3.12,1.4,3.12,3.12-1.4,3.12-3.12,3.12Zm199.59-83.66c-1.72,0-3.12-1.4-3.12-3.12s1.4-3.12,3.12-3.12,3.12,1.4,3.12,3.12-1.4,3.12-3.12,3.12Zm.6-81.74c.78,0,1.42,.63,1.42,1.42s-.63,1.42-1.42,1.42-1.42-.63-1.42-1.42,.63-1.42,1.42-1.42Zm-1.42-4.25c0-.78,.63-1.42,1.42-1.42s1.42,.63,1.42,1.42-.63,1.42-1.42,1.42-1.42-.63-1.42-1.42Zm1.42,9.92c.78,0,1.42,.63,1.42,1.42s-.63,1.42-1.42,1.42-1.42-.63-1.42-1.42,.63-1.42,1.42-1.42Zm0,5.67c.78,0,1.42,.63,1.42,1.42s-.63,1.42-1.42,1.42-1.42-.63-1.42-1.42,.63-1.42,1.42-1.42Zm0,5.67c.78,0,1.42,.63,1.42,1.42s-.63,1.42-1.42,1.42-1.42-.63-1.42-1.42,.63-1.42,1.42-1.42Zm5.67,2.83c-.78,0-1.42-.63-1.42-1.42s.63-1.42,1.42-1.42,1.42,.63,1.42,1.42-.63,1.42-1.42,1.42Zm0-5.67c-.78,0-1.42-.63-1.42-1.42s.63-1.42,1.42-1.42,1.42,.63,1.42,1.42-.63,1.42-1.42,1.42Zm0-5.67c-.78,0-1.42-.63-1.42-1.42s.63-1.42,1.42-1.42,1.42,.63,1.42,1.42-.63,1.42-1.42,1.42Zm0-5.67c-.78,0-1.42-.63-1.42-1.42s.63-1.42,1.42-1.42,1.42,.63,1.42,1.42-.63,1.42-1.42,1.42Zm0-5.67c-.78,0-1.42-.63-1.42-1.42s.63-1.42,1.42-1.42,1.42,.63,1.42,1.42-.63,1.42-1.42,1.42Zm5.67,22.68c-.78,0-1.42-.63-1.42-1.42s.63-1.42,1.42-1.42,1.42,.63,1.42,1.42-.63,1.42-1.42,1.42Zm0-5.67c-.78,0-1.42-.63-1.42-1.42s.63-1.42,1.42-1.42,1.42,.63,1.42,1.42-.63,1.42-1.42,1.42Zm0-5.67c-.78,0-1.42-.63-1.42-1.42s.63-1.42,1.42-1.42,1.42,.63,1.42,1.42-.63,1.42-1.42,1.42Zm0-5.67c-.78,0-1.42-.63-1.42-1.42s.63-1.42,1.42-1.42,1.42,.63,1.42,1.42-.63,1.42-1.42,1.42Zm0-5.67c-.78,0-1.42-.63-1.42-1.42s.63-1.42,1.42-1.42,1.42,.63,1.42,1.42-.63,1.42-1.42,1.42Zm5.67,22.68c-.78,0-1.42-.63-1.42-1.42s.63-1.42,1.42-1.42,1.42,.63,1.42,1.42-.63,1.42-1.42,1.42Zm0-5.67c-.78,0-1.42-.63-1.42-1.42s.63-1.42,1.42-1.42,1.42,.63,1.42,1.42-.63,1.42-1.42,1.42Zm0-5.67c-.78,0-1.42-.63-1.42-1.42s.63-1.42,1.42-1.42,1.42,.63,1.42,1.42-.63,1.42-1.42,1.42Zm0-5.67c-.78,0-1.42-.63-1.42-1.42s.63-1.42,1.42-1.42,1.42,.63,1.42,1.42-.63,1.42-1.42,1.42Zm0-5.67c-.78,0-1.42-.63-1.42-1.42s.63-1.42,1.42-1.42,1.42,.63,1.42,1.42-.63,1.42-1.42,1.42Zm5.67,22.68c-.78,0-1.42-.63-1.42-1.42s.63-1.42,1.42-1.42,1.42,.63,1.42,1.42-.63,1.42-1.42,1.42Zm0-5.67c-.78,0-1.42-.63-1.42-1.42s.63-1.42,1.42-1.42,1.42,.63,1.42,1.42-.63,1.42-1.42,1.42Zm0-5.67c-.78,0-1.42-.63-1.42-1.42s.63-1.42,1.42-1.42,1.42,.63,1.42,1.42-.63,1.42-1.42,1.42Zm0-5.67c-.78,0-1.42-.63-1.42-1.42s.63-1.42,1.42-1.42,1.42,.63,1.42,1.42-.63,1.42-1.42,1.42Zm0-5.67c-.78,0-1.42-.63-1.42-1.42s.63-1.42,1.42-1.42,1.42,.63,1.42,1.42-.63,1.42-1.42,1.42Zm48.27,59.01c-1.72,0-3.12-1.4-3.12-3.12s1.4-3.12,3.12-3.12,3.12,1.4,3.12,3.12-1.4,3.12-3.12,3.12Zm95.2-161.33l-28.41,161.2c-.19,1.08-1.22,1.8-2.3,1.61l-54.71-9.65c-1.08-.19-1.8-1.22-1.61-2.3l5.39-30.54-51.58-3.61c-1.09-.08-1.92-1.02-1.84-2.12l1.76-25.16h-48.63v28.2h6.37c1.1,0,1.99,.89,1.99,1.99v55.52c0,1.11-.9,2.01-2.01,2.01h-27.75c-16.67,0-34.71,2.47-52.18,7.15-16.02,4.29-32.79,11.35-48.49,20.42-14.51,8.38-28.9,19.53-41.62,32.24l-19.62,19.63c-.78,.78-2.06,.78-2.84,0l-39.25-39.25c-.78-.78-.78-2.06,0-2.84l19.62-19.63c16.34-16.34,35-30.76,53.95-41.7,12.4-7.16,25.41-13.36,38.47-18.39l.08-177.02c0-1.1,.89-1.98,1.98-1.98h51.86v-6.56c0-1.1,.89-1.98,1.98-1.98h51.94v-23.49c0-1.1,.89-1.98,1.98-1.98h55.56c1.1,0,1.98,.89,1.98,1.98v25.26l63.79,4.46h0l-5.6,80.9c-.14,2.04,2.86,2.41,3.21,.39l7.91-45.12c.19-1.08,1.22-1.8,2.3-1.61l54.71,9.65c1.08,.19,1.8,1.22,1.61,2.3v.02h0Zm.75-70.4c-1.72,0-3.12-1.4-3.12-3.12s1.4-3.12,3.12-3.12,3.12,1.4,3.12,3.12-1.4,3.12-3.12,3.12Z"/>
      </g>
      <g id="CaHole_Min_Kopie-2" data-name="CaHole Min Kopie-2">
        <path class="cls-3" d="M100.39,1933.46c-1.08,.19-1.8,1.22-1.61,2.3l8.36,47.37v125.78c0,1.09,.88,1.98,1.98,1.98h20.64l2.93,16.61c.19,1.08,1.22,1.8,2.3,1.61l85.32-15.04c1.08-.19,1.8-1.22,1.61-2.3l-1.42-8.03,25.02-1.75h29.11v37.02c0,1.09,.88,1.98,1.98,1.98h43.41c15.41,.06,32.05,2.36,48.07,6.65,14.84,3.97,30.34,10.49,44.82,18.86l.5,.29c.24,.15,.43,.25,.62,.37l.23,.14c1.2,.71,2.41,1.45,3.68,2.25l.6,.45,.55,.28c9.15,5.86,18.21,12.93,26.92,21.01l35.63,35.62c.78,.77,2.04,.77,2.81,0l61.38-61.37c.77-.78,.77-2.04,0-2.81l-33.54-33.54v-261.28c0-1.09-.88-1.98-1.98-1.98h-190.53v-9.21c0-1.09-.88-1.98-1.98-1.98h-86.81c-1.09,0-1.98,.88-1.98,1.98v9.2H109.1c-1.09,0-1.98,.88-1.98,1.98v64.37l-6.75,1.19h.02Zm137.59-61.71c0,1.72-1.4,3.12-3.12,3.12s-3.12-1.4-3.12-3.12,1.4-3.12,3.12-3.12,3.12,1.4,3.12,3.12Zm79.22,0c0,1.72-1.4,3.12-3.12,3.12s-3.12-1.4-3.12-3.12,1.4-3.12,3.12-3.12,3.12,1.4,3.12,3.12Zm171.81,182.11c0,19.17-15.55,34.72-34.72,34.72s-34.72-15.55-34.72-34.72,15.54-34.72,34.72-34.72,34.72,15.55,34.72,34.72Zm17.48-179.01c0,1.72-1.4,3.12-3.12,3.12s-3.12-1.4-3.12-3.12,1.4-3.12,3.12-3.12,3.12,1.4,3.12,3.12Zm1.83,168.85c0,1.72-1.4,3.12-3.12,3.12s-3.12-1.4-3.12-3.12,1.4-3.12,3.12-3.12,3.12,1.4,3.12,3.12Zm23.26,120.48c0-1.72,1.4-3.12,3.12-3.12s3.12,1.4,3.12,3.12-1.4,3.12-3.12,3.12-3.12-1.4-3.12-3.12Zm-51.66,51.61c0-1.72,1.4-3.12,3.12-3.12s3.12,1.4,3.12,3.12-1.4,3.12-3.12,3.12-3.12-1.4-3.12-3.12Zm-199.59-83.66c0-1.72,1.4-3.12,3.12-3.12s3.12,1.4,3.12,3.12-1.4,3.12-3.12,3.12-3.12-1.4-3.12-3.12Zm3.94-77.2c0,.79-.63,1.42-1.42,1.42s-1.42-.63-1.42-1.42,.64-1.42,1.42-1.42,1.42,.63,1.42,1.42Zm-1.42-4.25c-.79,0-1.42-.63-1.42-1.42s.63-1.42,1.42-1.42,1.42,.64,1.42,1.42-.63,1.42-1.42,1.42Zm1.42,9.92c0,.79-.63,1.42-1.42,1.42s-1.42-.63-1.42-1.42,.64-1.42,1.42-1.42,1.42,.63,1.42,1.42Zm0,5.67c0,.79-.63,1.42-1.42,1.42s-1.42-.63-1.42-1.42,.64-1.42,1.42-1.42,1.42,.63,1.42,1.42Zm0,5.67c0,.79-.63,1.42-1.42,1.42s-1.42-.63-1.42-1.42,.64-1.42,1.42-1.42,1.42,.63,1.42,1.42Zm-8.51-.01c0-.79,.63-1.42,1.42-1.42s1.42,.63,1.42,1.42-.64,1.42-1.42,1.42-1.42-.63-1.42-1.42Zm0-5.67c0-.79,.63-1.42,1.42-1.42s1.42,.63,1.42,1.42-.64,1.42-1.42,1.42-1.42-.63-1.42-1.42Zm0-5.67c0-.79,.63-1.42,1.42-1.42s1.42,.63,1.42,1.42-.64,1.42-1.42,1.42-1.42-.63-1.42-1.42Zm0-5.67c0-.79,.63-1.42,1.42-1.42s1.42,.63,1.42,1.42-.64,1.42-1.42,1.42-1.42-.63-1.42-1.42Zm0-5.67c0-.79,.63-1.42,1.42-1.42s1.42,.63,1.42,1.42-.64,1.42-1.42,1.42-1.42-.63-1.42-1.42Zm-5.67,22.68c0-.79,.63-1.42,1.42-1.42s1.42,.63,1.42,1.42-.64,1.42-1.42,1.42-1.42-.63-1.42-1.42Zm0-5.67c0-.79,.63-1.42,1.42-1.42s1.42,.63,1.42,1.42-.64,1.42-1.42,1.42-1.42-.63-1.42-1.42Zm0-5.67c0-.79,.63-1.42,1.42-1.42s1.42,.63,1.42,1.42-.64,1.42-1.42,1.42-1.42-.63-1.42-1.42Zm0-5.67c0-.79,.63-1.42,1.42-1.42s1.42,.63,1.42,1.42-.64,1.42-1.42,1.42-1.42-.63-1.42-1.42Zm0-5.67c0-.79,.63-1.42,1.42-1.42s1.42,.63,1.42,1.42-.64,1.42-1.42,1.42-1.42-.63-1.42-1.42Zm-5.67,22.68c0-.79,.63-1.42,1.42-1.42s1.42,.63,1.42,1.42-.64,1.42-1.42,1.42-1.42-.63-1.42-1.42Zm0-5.67c0-.79,.63-1.42,1.42-1.42s1.42,.63,1.42,1.42-.64,1.42-1.42,1.42-1.42-.63-1.42-1.42Zm0-5.67c0-.79,.63-1.42,1.42-1.42s1.42,.63,1.42,1.42-.64,1.42-1.42,1.42-1.42-.63-1.42-1.42Zm0-5.67c0-.79,.63-1.42,1.42-1.42s1.42,.63,1.42,1.42-.64,1.42-1.42,1.42-1.42-.63-1.42-1.42Zm0-5.67c0-.79,.63-1.42,1.42-1.42s1.42,.63,1.42,1.42-.64,1.42-1.42,1.42-1.42-.63-1.42-1.42Zm-5.67,22.68c0-.79,.63-1.42,1.42-1.42s1.42,.63,1.42,1.42-.64,1.42-1.42,1.42-1.42-.63-1.42-1.42Zm0-5.67c0-.79,.63-1.42,1.42-1.42s1.42,.63,1.42,1.42-.64,1.42-1.42,1.42-1.42-.63-1.42-1.42Zm0-5.67c0-.79,.63-1.42,1.42-1.42s1.42,.63,1.42,1.42-.64,1.42-1.42,1.42-1.42-.63-1.42-1.42Zm0-5.67c0-.79,.63-1.42,1.42-1.42s1.42,.63,1.42,1.42-.64,1.42-1.42,1.42-1.42-.63-1.42-1.42Zm0-5.67c0-.79,.63-1.42,1.42-1.42s1.42,.63,1.42,1.42-.64,1.42-1.42,1.42-1.42-.63-1.42-1.42Zm-49.97,57.31c0-1.72,1.4-3.12,3.12-3.12s3.12,1.4,3.12,3.12-1.4,3.12-3.12,3.12-3.12-1.4-3.12-3.12Zm-92.08-158.23c-.19-1.08,.53-2.11,1.61-2.3l54.71-9.65c1.08-.19,2.11,.53,2.3,1.61l7.91,45.12c.35,2.02,3.35,1.65,3.21-.39l-5.6-80.9h0l63.79-4.46v-25.26c0-1.09,.88-1.98,1.98-1.98h55.56c1.09,0,1.98,.88,1.98,1.98v23.49h51.94c1.09,0,1.98,.88,1.98,1.98v6.56h51.86c1.09,0,1.98,.88,1.98,1.98l.08,177.02c13.06,5.03,26.07,11.23,38.47,18.39,18.95,10.94,37.61,25.36,53.95,41.7l19.62,19.63c.78,.78,.78,2.06,0,2.84l-39.25,39.25c-.78,.78-2.06,.78-2.84,0l-19.62-19.63c-12.72-12.71-27.11-23.86-41.62-32.24-15.7-9.07-32.47-16.13-48.49-20.42-17.47-4.68-35.51-7.15-52.18-7.15h-27.75c-1.11,0-2.01-.9-2.01-2.01v-55.52c0-1.1,.89-1.99,1.99-1.99h6.37v-28.2h-48.63l1.76,25.16c.08,1.1-.75,2.04-1.84,2.12l-51.58,3.61,5.39,30.54c.19,1.08-.53,2.11-1.61,2.3l-54.71,9.65c-1.08,.19-2.11-.53-2.3-1.61l-28.41-161.2v-.02h0Zm-3.87-73.5c0-1.72,1.4-3.12,3.12-3.12s3.12,1.4,3.12,3.12-1.4,3.12-3.12,3.12-3.12-1.4-3.12-3.12Z"/>
      </g>
    </g>
    <g id="Text_Kopie_Kopie_2" data-name="Text Kopie Kopie 2">
      <path class="cls-4" d="M1064.21,99.16h26.25v7.42h-34.52V52.09h8.27v47.07Z"/>
      <path class="cls-4" d="M1113.11,107.04c-2.14,0-4.17-.36-6.08-1.07-1.91-.71-3.59-1.75-5.01-3.1-1.43-1.35-2.55-2.98-3.37-4.9-.82-1.91-1.22-4.09-1.22-6.54v-24.19c0-2.45,.41-4.63,1.22-6.54,.82-1.91,1.94-3.55,3.37-4.9,1.43-1.35,3.1-2.38,5.01-3.1,1.91-.71,3.94-1.07,6.08-1.07s4.25,.36,6.16,1.07,3.58,1.75,5.01,3.1,2.55,2.98,3.37,4.9c.82,1.91,1.22,4.09,1.22,6.54v24.19c0,2.45-.41,4.63-1.22,6.54-.82,1.91-1.94,3.55-3.37,4.9-1.43,1.35-3.1,2.39-5.01,3.1s-3.97,1.07-6.16,1.07Zm0-6.96c2.5,0,4.45-.83,5.85-2.49,1.4-1.66,2.1-3.79,2.1-6.39v-23.73c0-2.6-.7-4.73-2.1-6.39-1.4-1.66-3.36-2.49-5.85-2.49s-4.38,.83-5.78,2.49c-1.4,1.66-2.1,3.79-2.1,6.39v23.73c0,2.6,.7,4.73,2.1,6.39,1.4,1.66,3.33,2.49,5.78,2.49Z"/>
      <path class="cls-4" d="M1152.91,60.59l-10.64,9.34v-8.65l10.64-9.18h7.81v54.49h-7.81V60.59Z"/>
      <path class="cls-1" d="M1064.21,552.71h26.25v7.42h-34.52v-54.49h8.27v47.07Z"/>
      <path class="cls-1" d="M1113.11,560.59c-2.14,0-4.17-.36-6.08-1.07-1.91-.71-3.59-1.75-5.01-3.1-1.43-1.35-2.55-2.98-3.37-4.9-.82-1.91-1.22-4.09-1.22-6.54v-24.19c0-2.45,.41-4.63,1.22-6.54,.82-1.91,1.94-3.55,3.37-4.9,1.43-1.35,3.1-2.38,5.01-3.1,1.91-.71,3.94-1.07,6.08-1.07s4.25,.36,6.16,1.07c1.91,.71,3.58,1.75,5.01,3.1s2.55,2.98,3.37,4.9c.82,1.91,1.22,4.09,1.22,6.54v24.19c0,2.45-.41,4.63-1.22,6.54-.82,1.91-1.94,3.55-3.37,4.9-1.43,1.35-3.1,2.39-5.01,3.1s-3.97,1.07-6.16,1.07Zm0-6.96c2.5,0,4.45-.83,5.85-2.49,1.4-1.66,2.1-3.79,2.1-6.39v-23.73c0-2.6-.7-4.73-2.1-6.39-1.4-1.66-3.36-2.49-5.85-2.49s-4.38,.83-5.78,2.49c-1.4,1.66-2.1,3.79-2.1,6.39v23.73c0,2.6,.7,4.73,2.1,6.39,1.4,1.66,3.33,2.49,5.78,2.49Z"/>
      <path class="cls-1" d="M1138.37,553.16l20.97-25.49c1.02-1.27,1.76-2.46,2.22-3.56s.69-2.33,.69-3.71c0-2.45-.69-4.44-2.07-5.97-1.38-1.53-3.34-2.3-5.89-2.3-1.02,0-2.02,.15-2.98,.46-.97,.31-1.83,.79-2.56,1.45-.74,.66-1.34,1.53-1.8,2.6-.46,1.07-.69,2.37-.69,3.9h-7.81c0-2.3,.39-4.4,1.19-6.31,.79-1.91,1.89-3.53,3.29-4.86,1.4-1.33,3.07-2.36,5.01-3.1,1.94-.74,4.06-1.11,6.35-1.11s4.49,.36,6.43,1.07c1.94,.71,3.6,1.74,4.98,3.06,1.38,1.33,2.45,2.93,3.21,4.82,.77,1.89,1.15,4.01,1.15,6.35s-.43,4.45-1.3,6.16c-.87,1.71-2.14,3.59-3.83,5.63l-17.07,20.89h22.2v6.96h-31.69v-6.94Z"/>
      <path class="cls-5" d="M1064.21,1006.25h26.25v7.42h-34.52v-54.49h8.27v47.07Z"/>
      <path class="cls-5" d="M1113.11,1014.13c-2.14,0-4.17-.36-6.08-1.07-1.91-.71-3.59-1.75-5.01-3.1-1.43-1.35-2.55-2.99-3.37-4.9-.82-1.91-1.22-4.09-1.22-6.54v-24.18c0-2.45,.41-4.63,1.22-6.54,.82-1.91,1.94-3.55,3.37-4.9,1.43-1.35,3.1-2.38,5.01-3.1,1.91-.71,3.94-1.07,6.08-1.07s4.25,.36,6.16,1.07,3.58,1.75,5.01,3.1,2.55,2.99,3.37,4.9c.82,1.91,1.22,4.09,1.22,6.54v24.18c0,2.45-.41,4.63-1.22,6.54-.82,1.91-1.94,3.55-3.37,4.9-1.43,1.35-3.1,2.39-5.01,3.1s-3.97,1.07-6.16,1.07Zm0-6.96c2.5,0,4.45-.83,5.85-2.49,1.4-1.66,2.1-3.79,2.1-6.39v-23.73c0-2.6-.7-4.73-2.1-6.39-1.4-1.66-3.36-2.49-5.85-2.49s-4.38,.83-5.78,2.49c-1.4,1.66-2.1,3.79-2.1,6.39v23.73c0,2.6,.7,4.73,2.1,6.39,1.4,1.66,3.33,2.49,5.78,2.49Z"/>
      <path class="cls-5" d="M1153.45,1014.21c-2.19,0-4.27-.29-6.24-.88-1.96-.59-3.71-1.5-5.24-2.75s-2.77-2.84-3.71-4.78-1.44-4.24-1.49-6.89h7.81c.05,1.48,.34,2.73,.88,3.75,.54,1.02,1.2,1.88,1.99,2.56,.79,.69,1.71,1.19,2.76,1.49,1.04,.31,2.13,.46,3.25,.46,2.55,0,4.67-.78,6.35-2.33,1.68-1.56,2.53-3.79,2.53-6.7,0-2.75-.75-4.94-2.26-6.54-1.51-1.61-3.79-2.41-6.85-2.41h-1.3v-6.81h1.3c2.86,0,4.95-.74,6.28-2.22s1.99-3.47,1.99-5.97c0-2.76-.78-4.85-2.33-6.28-1.56-1.43-3.46-2.14-5.7-2.14-2.4,0-4.31,.69-5.74,2.07s-2.25,3.29-2.45,5.74h-7.81c.1-2.3,.59-4.36,1.45-6.2,.87-1.84,2.02-3.39,3.44-4.67,1.43-1.27,3.09-2.26,4.97-2.95,1.89-.69,3.93-1.03,6.12-1.03s4.41,.37,6.35,1.11c1.94,.74,3.61,1.79,5.01,3.14,1.4,1.35,2.5,2.96,3.29,4.82s1.19,3.92,1.19,6.16c0,2.91-.6,5.31-1.8,7.19-1.2,1.89-2.87,3.34-5.01,4.36,2.35,1.02,4.21,2.58,5.59,4.67,1.38,2.09,2.07,4.82,2.07,8.19,0,2.6-.45,4.9-1.34,6.89-.89,1.99-2.09,3.65-3.6,4.97-1.51,1.33-3.27,2.32-5.28,2.99-2.02,.66-4.17,1-6.47,1h0Z"/>
      <path class="cls-8" d="M1064.21,1459.79h26.25v7.42h-34.52v-54.49h8.27v47.07Z"/>
      <path class="cls-8" d="M1113.11,1467.68c-2.14,0-4.17-.36-6.08-1.07-1.91-.71-3.59-1.75-5.01-3.1-1.43-1.35-2.55-2.99-3.37-4.9s-1.22-4.09-1.22-6.54v-24.18c0-2.45,.41-4.63,1.22-6.54,.82-1.91,1.94-3.55,3.37-4.9,1.43-1.35,3.1-2.38,5.01-3.1,1.91-.71,3.94-1.07,6.08-1.07s4.25,.36,6.16,1.07,3.58,1.75,5.01,3.1,2.55,2.99,3.37,4.9,1.22,4.09,1.22,6.54v24.18c0,2.45-.41,4.63-1.22,6.54-.82,1.91-1.94,3.55-3.37,4.9-1.43,1.35-3.1,2.39-5.01,3.1s-3.97,1.07-6.16,1.07Zm0-6.96c2.5,0,4.45-.83,5.85-2.49,1.4-1.66,2.1-3.79,2.1-6.39v-23.73c0-2.6-.7-4.73-2.1-6.39-1.4-1.66-3.36-2.49-5.85-2.49s-4.38,.83-5.78,2.49c-1.4,1.66-2.1,3.79-2.1,6.39v23.73c0,2.6,.7,4.73,2.1,6.39,1.4,1.66,3.33,2.49,5.78,2.49Z"/>
      <path class="cls-8" d="M1158.27,1459.03h-22.04v-7.27l19.21-39.03h8.42l-19.13,39.03h13.55v-12.71h7.58v12.71h5.82v7.27h-5.82v8.19h-7.58v-8.19h-.01Z"/>
      <path class="cls-3" d="M1064.21,1913.34h26.25v7.42h-34.52v-54.49h8.27v47.07Z"/>
      <path class="cls-3" d="M1113.11,1921.22c-2.14,0-4.17-.36-6.08-1.07-1.91-.71-3.59-1.75-5.01-3.1-1.43-1.35-2.55-2.99-3.37-4.9s-1.22-4.09-1.22-6.54v-24.18c0-2.45,.41-4.63,1.22-6.54,.82-1.91,1.94-3.55,3.37-4.9,1.43-1.35,3.1-2.38,5.01-3.1,1.91-.71,3.94-1.07,6.08-1.07s4.25,.36,6.16,1.07,3.58,1.75,5.01,3.1,2.55,2.99,3.37,4.9,1.22,4.09,1.22,6.54v24.18c0,2.45-.41,4.63-1.22,6.54-.82,1.91-1.94,3.55-3.37,4.9-1.43,1.35-3.1,2.39-5.01,3.1s-3.97,1.07-6.16,1.07Zm0-6.96c2.5,0,4.45-.83,5.85-2.49,1.4-1.66,2.1-3.79,2.1-6.39v-23.73c0-2.6-.7-4.73-2.1-6.39-1.4-1.66-3.36-2.49-5.85-2.49s-4.38,.83-5.78,2.49c-1.4,1.66-2.1,3.79-2.1,6.39v23.73c0,2.6,.7,4.73,2.1,6.39,1.4,1.66,3.33,2.49,5.78,2.49Z"/>
      <path class="cls-3" d="M1154.13,1921.22c-2.6,0-4.9-.41-6.89-1.22-1.99-.82-3.57-1.81-4.75-2.98-1.48-1.48-2.5-3.1-3.06-4.86s-.92-3.61-1.07-5.55h7.81c.31,2.45,1.1,4.32,2.37,5.62s3.14,1.95,5.59,1.95,4.23-.71,5.66-2.14c1.17-1.17,1.9-2.6,2.18-4.29,.28-1.68,.42-3.44,.42-5.28,0-1.63-.11-3.14-.34-4.52s-.65-2.58-1.26-3.6-1.43-1.81-2.45-2.37c-1.02-.56-2.32-.84-3.9-.84-2.25,0-3.99,.49-5.24,1.45-1.25,.97-2.08,2.12-2.49,3.44h-7.12v-29.77h29.39v6.96h-22.35v14.39c.92-.97,2.16-1.73,3.71-2.3,1.56-.56,3.33-.84,5.32-.84,2.14,0,4.03,.31,5.66,.92s3.01,1.48,4.13,2.6c1.02,1.02,1.85,2.12,2.49,3.29s1.12,2.37,1.45,3.6c.33,1.22,.55,2.48,.65,3.75,.1,1.28,.15,2.55,.15,3.83,0,2.91-.27,5.55-.8,7.92-.54,2.37-1.8,4.55-3.79,6.54-1.22,1.22-2.78,2.25-4.67,3.06-1.89,.82-4.16,1.22-6.81,1.22v.02Z"/>
      <g>
        <path class="cls-10" d="M1181.71,66.03c-.3,.17-.64,.3-1.02,.37-.38,.08-.75,.11-1.12,.11-.82,0-1.6-.16-2.34-.47s-1.38-.76-1.93-1.35-.98-1.29-1.3-2.11c-.31-.82-.47-1.74-.47-2.76s.17-2.02,.5-2.89,.8-1.61,1.4-2.22c.59-.62,1.31-1.09,2.14-1.43s1.76-.5,2.78-.5,1.91,.16,2.74,.47,1.55,.77,2.16,1.38c.61,.61,1.08,1.34,1.41,2.19,.34,.85,.5,1.81,.5,2.87,0,.8-.11,1.61-.34,2.43s-.64,1.85-1.25,3.08l-5.36,10.87h-3.57l5.06-10.06v.02Zm-1.35-2.27c1.06,0,1.91-.36,2.55-1.07,.64-.71,.96-1.69,.96-2.92s-.32-2.24-.96-2.95-1.49-1.07-2.55-1.07-1.88,.36-2.53,1.07c-.65,.71-.97,1.7-.97,2.95,0,1.15,.31,2.1,.92,2.86,.62,.76,1.48,1.14,2.58,1.14h0Z"/>
        <path class="cls-10" d="M1212.35,76.09h-3.51v-15.45l-5.32,11.26h-2.6l-5.45-11.26v15.45h-3.51v-23.11h3.51l6.75,14.38,6.62-14.38h3.51v23.11h0Z"/>
        <path class="cls-10" d="M1238.78,76.09h-3.51v-15.45l-5.32,11.26h-2.6l-5.45-11.26v15.45h-3.51v-23.11h3.51l6.75,14.38,6.62-14.38h3.51v23.11h0Z"/>
      </g>
      <g>
        <path class="cls-3" d="M1183.92,87.16h-7.04v3.64h-3.18v-6.59h13.76v2.95l-7.73,20.16h-3.57l7.76-20.16Z"/>
        <path class="cls-3" d="M1212.35,107.32h-3.51v-15.45l-5.32,11.26h-2.6l-5.45-11.26v15.45h-3.51v-23.11h3.51l6.75,14.38,6.62-14.38h3.51v23.11Z"/>
        <path class="cls-3" d="M1238.78,107.32h-3.51v-15.45l-5.32,11.26h-2.6l-5.45-11.26v15.45h-3.51v-23.11h3.51l6.75,14.38,6.62-14.38h3.51v23.11Z"/>
      </g>
    </g>
  </g>
</svg>