<?xml version="1.0" encoding="UTF-8"?>
<svg id="Cuts" xmlns="http://www.w3.org/2000/svg" width="356.28mm" height="131.6mm" viewBox="0 0 1009.93 373.04">
  <defs>
    <style>
      .cls-1 {
        fill: none;
        stroke: blue;
        stroke-miterlimit: 10;
        stroke-width: .28px;
      }
    </style>
  </defs>
  <g>
    <path class="cls-1" d="M558.65,208.94V28.9c0-1.88,1.52-3.4,3.4-3.4h24.28V11.33h-39.87c-1.1,0-1.98,.89-1.98,1.98V194.77l14.18,14.17h0Zm-5.26-193.22c2.5,0,4.54,2.03,4.54,4.54s-2.03,4.54-4.54,4.54-4.54-2.03-4.54-4.54,2.03-4.54,4.54-4.54Zm-1.83,168.85c2.5,0,4.54,2.03,4.54,4.54s-2.03,4.54-4.54,4.54-4.54-2.03-4.54-4.54,2.03-4.54,4.54-4.54Z"/>
    <path class="cls-1" d="M1008.14,127.55l-51.04-9,6.59-37.39c.19-1.08-.53-2.11-1.61-2.3l-13.25-2.34V13.3c0-1.1-.89-1.98-1.98-1.98h-15.83v14.17h.24c.91,0,1.76,.35,2.41,1,.64,.64,1,1.5,1,2.4v59.52l9.61,1.69c1.85,.33,3.08,2.09,2.76,3.94l-6.34,35.99,49.64,8.75c1.85,.33,3.08,2.09,2.76,3.94l-19.02,107.85c-.29,1.63-1.69,2.81-3.35,2.81-.2,0-.39-.02-.59-.05l-49.74-8.77-1.85,10.51c-.29,1.63-1.7,2.81-3.35,2.81-.19,0-.39-.02-.59-.05l-54.62-9.63c-1.85-.33-3.08-2.09-2.76-3.94l1.44-8.17-41.21-2.89h-43.78l14.17,14.17h29.11l25.02,1.75-1.42,8.03c-.19,1.08,.53,2.11,1.61,2.3l85.33,15.05c1.08,.19,2.11-.53,2.3-1.61l2.1-11.91,51.13,9.02c1.08,.19,2.11-.53,2.3-1.61l24.43-138.56c.19-1.08-.53-2.11-1.61-2.3v.02Zm-57.8,.23c-2.5,0-4.54-2.03-4.54-4.54s2.03-4.54,4.54-4.54,4.54,2.03,4.54,4.54-2.03,4.54-4.54,4.54Zm-99.79,128.72c-2.5,0-4.54-2.03-4.54-4.54s2.03-4.54,4.54-4.54,4.54,2.03,4.54,4.54-2.03,4.54-4.54,4.54Zm127.24,8.12c-2.5,0-4.54-2.03-4.54-4.54s2.03-4.54,4.54-4.54,4.54,2.03,4.54,4.54-2.03,4.54-4.54,4.54Z"/>
    <path class="cls-1" d="M767.98,268.83c0,1.88-1.53,3.4-3.4,3.4h-27.81c-16.66,.06-34.56,2.52-51.75,7.13-16.03,4.29-32.71,11.31-48.24,20.28-12.04,6.95-24.44,16.24-35.86,26.85l-24.79,24.79c-.64,.64-1.5,1-2.41,1s-1.76-.35-2.4-1l-39.33-39.33c-.64-.64-1-1.5-1-2.41s.35-1.76,1-2.41l26.66-26.66v-27.08l-14.17,15.19v6.02l-33.53,33.53c-.77,.77-.77,2.03,0,2.81l61.38,61.38c.77,.77,2.03,.77,2.81,0l35.62-35.62c10.6-9.82,22.04-18.39,33.11-24.78,14.47-8.36,29.97-14.88,44.82-18.86,16.03-4.3,32.67-6.59,48.08-6.65h43.4c1.1,0,1.98-.89,1.98-1.98v-37.01l-14.17-14.17v35.58Zm-245.91,45.3c-2.5,0-4.54-2.03-4.54-4.54s2.03-4.54,4.54-4.54,4.54,2.03,4.54,4.54-2.03,4.54-4.54,4.54Zm51.66,51.61c-2.5,0-4.54-2.03-4.54-4.54s2.03-4.54,4.54-4.54,4.54,2.03,4.54,4.54-2.03,4.54-4.54,4.54Zm199.59-92.73c2.5,0,4.54,2.03,4.54,4.54s-2.03,4.54-4.54,4.54-4.54-2.03-4.54-4.54,2.03-4.54,4.54-4.54Z"/>
    <path class="cls-1" d="M827.75,11.33V2.12c0-1.1-.89-1.98-1.98-1.98h-86.81c-1.1,0-1.98,.89-1.98,1.98V11.33h-110.1v14.17h124.27v-7.79c0-1.88,1.53-3.4,3.4-3.4h55.62c1.88,0,3.4,1.53,3.4,3.4v7.8h111.75V11.33h-97.57Zm-85.06,10.37c-2.5,0-4.54-2.03-4.54-4.54s2.03-4.54,4.54-4.54,4.54,2.03,4.54,4.54-2.03,4.54-4.54,4.54Zm79.22,0c-2.5,0-4.54-2.03-4.54-4.54s2.03-4.54,4.54-4.54,4.54,2.03,4.54,4.54-2.03,4.54-4.54,4.54Z"/>
  </g>
  <g>
    <path class="cls-1" d="M451.27,208.94l14.18-14.17V13.31c0-1.09-.88-1.98-1.98-1.98h-39.87v14.17h24.28c1.88,0,3.4,1.52,3.4,3.4V208.94h0Zm9.81-188.68c0,2.51-2.03,4.54-4.54,4.54s-4.54-2.03-4.54-4.54,2.04-4.54,4.54-4.54,4.54,2.03,4.54,4.54Zm1.83,168.85c0,2.51-2.03,4.54-4.54,4.54s-4.54-2.03-4.54-4.54,2.04-4.54,4.54-4.54,4.54,2.03,4.54,4.54Z"/>
    <path class="cls-1" d="M1.78,127.53c-1.08,.19-1.8,1.22-1.61,2.3l24.43,138.56c.19,1.08,1.22,1.8,2.3,1.61l51.13-9.02,2.1,11.91c.19,1.08,1.22,1.8,2.3,1.61l85.33-15.05c1.08-.19,1.8-1.22,1.61-2.3l-1.42-8.03,25.02-1.75h29.11l14.17-14.17h-43.78l-41.21,2.89,1.44,8.17c.32,1.85-.91,3.61-2.76,3.94l-54.62,9.63c-.2,.03-.4,.05-.59,.05-1.65,0-3.06-1.18-3.35-2.81l-1.85-10.51-49.74,8.77c-.2,.03-.39,.05-.59,.05-1.66,0-3.06-1.18-3.35-2.81l-19.02-107.85c-.32-1.85,.91-3.61,2.76-3.94l49.64-8.75-6.34-35.99c-.32-1.85,.91-3.61,2.76-3.94l9.61-1.69V28.89c0-.9,.36-1.76,1-2.4,.65-.65,1.5-1,2.41-1h.24V11.32h-15.83c-1.09,0-1.98,.88-1.98,1.98v63.22l-13.25,2.34c-1.08,.19-1.8,1.22-1.61,2.3l6.59,37.39L1.79,127.55v-.02Zm53.25-4.29c0-2.51,2.03-4.54,4.54-4.54s4.54,2.03,4.54,4.54-2.04,4.54-4.54,4.54-4.54-2.03-4.54-4.54Zm99.79,128.72c0-2.51,2.03-4.54,4.54-4.54s4.54,2.03,4.54,4.54-2.04,4.54-4.54,4.54-4.54-2.03-4.54-4.54Zm-127.24,8.12c0-2.51,2.03-4.54,4.54-4.54s4.54,2.03,4.54,4.54-2.04,4.54-4.54,4.54-4.54-2.03-4.54-4.54Z"/>
    <path class="cls-1" d="M241.95,268.85v-35.6l-14.17,14.17v37.01c0,1.09,.88,1.98,1.98,1.98h43.4c15.41,.06,32.05,2.35,48.08,6.65,14.85,3.98,30.35,10.5,44.82,18.86,11.07,6.39,22.51,14.96,33.11,24.78l35.62,35.62c.78,.77,2.04,.77,2.81,0l61.38-61.38c.77-.78,.77-2.04,0-2.81l-33.53-33.53v-6.02l-14.17-15.19v27.08l26.66,26.66c.65,.65,1,1.5,1,2.41s-.36,1.77-1,2.41l-39.33,39.33c-.64,.65-1.49,1-2.4,1s-1.77-.36-2.41-1l-24.79-24.79c-11.42-10.61-23.82-19.9-35.86-26.85-15.53-8.97-32.21-15.99-48.24-20.28-17.19-4.61-35.09-7.07-51.75-7.13h-27.81c-1.87,0-3.4-1.52-3.4-3.4v.02Zm241.37,40.74c0-2.51,2.03-4.54,4.54-4.54s4.54,2.03,4.54,4.54-2.04,4.54-4.54,4.54-4.54-2.03-4.54-4.54Zm-51.66,51.61c0-2.51,2.03-4.54,4.54-4.54s4.54,2.03,4.54,4.54-2.04,4.54-4.54,4.54-4.54-2.03-4.54-4.54Zm-190.51-83.65c0,2.51-2.03,4.54-4.54,4.54s-4.54-2.03-4.54-4.54,2.04-4.54,4.54-4.54,4.54,2.03,4.54,4.54Z"/>
    <path class="cls-1" d="M182.19,11.33H84.61v14.18h111.75v-7.8c0-1.87,1.52-3.4,3.4-3.4h55.62c1.87,0,3.4,1.52,3.4,3.4v7.79h124.27V11.33h-110.1V2.12c0-1.09-.88-1.98-1.98-1.98h-86.81c-1.09,0-1.98,.88-1.98,1.98V11.33h.01Zm80.51,5.83c0-2.51,2.03-4.54,4.54-4.54s4.54,2.03,4.54,4.54-2.04,4.54-4.54,4.54-4.54-2.03-4.54-4.54Zm-79.22,0c0-2.51,2.03-4.54,4.54-4.54s4.54,2.03,4.54,4.54-2.04,4.54-4.54,4.54-4.54-2.03-4.54-4.54Z"/>
  </g>
</svg>