<?xml version="1.0" encoding="UTF-8"?>
<svg id="PCB_holes" data-name="PCB holes" xmlns="http://www.w3.org/2000/svg" width="354.27mm" height="131.6mm" viewBox="0 0 1004.24 373.03">
  <defs>
    <style>
      .cls-1 {
        fill: none;
        stroke: blue;
        stroke-miterlimit: 10;
        stroke-width: .28px;
      }
    </style>
  </defs>
  <g id="Acrylcase">
    <path class="cls-1" d="M1002.44,127.56l-51.04-9,6.59-37.39c.19-1.08-.53-2.11-1.61-2.3l-13.25-2.34V13.31c0-1.1-.89-1.98-1.98-1.98h-113.41V2.12c0-1.1-.89-1.98-1.98-1.98h-86.81c-1.1,0-1.98,.89-1.98,1.98V11.33h-101.34V125.12h-58.06V11.33h-31.11c-1.1,0-1.98,.89-1.98,1.98V194.77l14.74,14.74h11.85v17.33h25.77v25.94h-37.61l-14.74,15.79v6.02l-33.53,33.53c-.77,.77-.77,2.03,0,2.81l61.38,61.38c.77,.77,2.03,.77,2.81,0l35.62-35.62c10.6-9.82,22.04-18.39,33.11-24.78,14.47-8.36,29.97-14.88,44.82-18.86,16.03-4.3,32.67-6.59,48.08-6.65h43.4c1.1,0,1.98-.89,1.98-1.98v-37.01h29.11l25.02,1.75-1.42,8.03c-.19,1.08,.53,2.11,1.61,2.3l85.33,15.05c1.08,.19,2.11-.53,2.3-1.61l2.1-11.91,51.13,9.02c1.08,.19,2.11-.53,2.3-1.61l24.43-138.56c.19-1.08-.53-2.11-1.61-2.3h-.02Zm-450.88,64.65c-1.72,0-3.12-1.4-3.12-3.12s1.4-3.12,3.12-3.12,3.12,1.4,3.12,3.12-1.4,3.12-3.12,3.12Zm1.83-168.85c-1.72,0-3.12-1.4-3.12-3.12s1.4-3.12,3.12-3.12,3.12,1.4,3.12,3.12-1.4,3.12-3.12,3.12Zm14.06,13.89c-1.64,0-2.98-1.33-2.98-2.98s1.33-2.98,2.98-2.98,2.98,1.33,2.98,2.98-1.33,2.98-2.98,2.98Zm-45.39,275.44c-1.72,0-3.12-1.4-3.12-3.12s1.4-3.12,3.12-3.12,3.12,1.4,3.12,3.12-1.4,3.12-3.12,3.12Zm45.39-50.28c-1.64,0-2.98-1.33-2.98-2.98s1.33-2.98,2.98-2.98,2.98,1.33,2.98,2.98-1.33,2.98-2.98,2.98Zm6.28,101.89c-1.72,0-3.12-1.4-3.12-3.12s1.4-3.12,3.12-3.12,3.12,1.4,3.12,3.12-1.4,3.12-3.12,3.12ZM742.68,14.05c1.72,0,3.12,1.4,3.12,3.12s-1.4,3.12-3.12,3.12-3.12-1.4-3.12-3.12,1.4-3.12,3.12-3.12Zm3.69,20.37c0,1.64-1.33,2.98-2.98,2.98s-2.98-1.33-2.98-2.98,1.33-2.98,2.98-2.98,2.98,1.33,2.98,2.98Zm26.94,246.24c-1.72,0-3.12-1.4-3.12-3.12s1.4-3.12,3.12-3.12,3.12,1.4,3.12,3.12-1.4,3.12-3.12,3.12Zm-17.69-71.43c-32.95,0-59.67-26.71-59.67-59.67s26.71-59.67,59.67-59.67,59.67,26.71,59.67,59.67-26.71,59.67-59.67,59.67Zm63.17-192.07c0-1.72,1.4-3.12,3.12-3.12s3.12,1.4,3.12,3.12-1.4,3.12-3.12,3.12-3.12-1.4-3.12-3.12Zm6.13,20.1c-1.64,0-2.98-1.33-2.98-2.98s1.33-2.98,2.98-2.98,2.98,1.33,2.98,2.98-1.33,2.98-2.98,2.98Zm19.94,217.82c-1.72,0-3.12-1.4-3.12-3.12s1.4-3.12,3.12-3.12,3.12,1.4,3.12,3.12-1.4,3.12-3.12,3.12Zm1.06-28.6c-1.64,0-2.98-1.33-2.98-2.98s1.33-2.98,2.98-2.98,2.98,1.33,2.98,2.98-1.33,2.98-2.98,2.98Zm98.73-100.11c-1.72,0-3.12-1.4-3.12-3.12s1.4-3.12,3.12-3.12,3.12,1.4,3.12,3.12-1.4,3.12-3.12,3.12Zm27.45,136.84c-1.72,0-3.12-1.4-3.12-3.12s1.4-3.12,3.12-3.12,3.12,1.4,3.12,3.12-1.4,3.12-3.12,3.12Z"/>
  </g>
  <g id="Acrylcase-2" data-name="Acrylcase">
    <path class="cls-1" d="M1.8,127.57h-.02c-1.08,.19-1.8,1.22-1.61,2.3l24.43,138.56c.19,1.08,1.22,1.8,2.3,1.61l51.13-9.02,2.1,11.91c.19,1.08,1.22,1.8,2.3,1.61l85.33-15.05c1.08-.19,1.8-1.22,1.61-2.3l-1.42-8.03,25.02-1.75h29.11v37.01c0,1.09,.88,1.98,1.98,1.98h43.4c15.41,.06,32.05,2.35,48.08,6.65,14.85,3.98,30.35,10.5,44.82,18.86,11.07,6.39,22.51,14.96,33.11,24.78l35.62,35.62c.78,.77,2.04,.77,2.81,0l61.38-61.38c.77-.78,.77-2.04,0-2.81l-33.53-33.53v-6.02l-14.74-15.79h-37.61v-25.94h25.77v-17.33h11.85l14.74-14.74V13.31c0-1.09-.88-1.98-1.98-1.98h-31.11V125.12h-58.06V11.33h-101.34V2.12c0-1.09-.88-1.98-1.98-1.98h-86.81c-1.09,0-1.98,.88-1.98,1.98V11.33H63.09c-1.09,0-1.98,.88-1.98,1.98v63.22l-13.25,2.34c-1.08,.19-1.8,1.22-1.61,2.3l6.59,37.39L1.8,127.56h0Zm447.76,61.54c0-1.72,1.4-3.12,3.12-3.12s3.12,1.4,3.12,3.12-1.4,3.12-3.12,3.12-3.12-1.4-3.12-3.12Zm-1.83-168.85c0-1.72,1.4-3.12,3.12-3.12s3.12,1.4,3.12,3.12-1.4,3.12-3.12,3.12-3.12-1.4-3.12-3.12Zm-13.92,14.03c0-1.65,1.33-2.98,2.98-2.98s2.98,1.33,2.98,2.98-1.34,2.98-2.98,2.98-2.98-1.33-2.98-2.98Zm45.25,275.3c0-1.72,1.4-3.12,3.12-3.12s3.12,1.4,3.12,3.12-1.4,3.12-3.12,3.12-3.12-1.4-3.12-3.12Zm-45.25-50.14c0-1.65,1.33-2.98,2.98-2.98s2.98,1.33,2.98,2.98-1.34,2.98-2.98,2.98-2.98-1.33-2.98-2.98Zm-6.42,101.75c0-1.72,1.4-3.12,3.12-3.12s3.12,1.4,3.12,3.12-1.4,3.12-3.12,3.12-3.12-1.4-3.12-3.12ZM264.68,17.17c0,1.72-1.4,3.12-3.12,3.12s-3.12-1.4-3.12-3.12,1.4-3.12,3.12-3.12c1.72,0,3.12,1.4,3.12,3.12Zm-3.83,14.27c1.65,0,2.98,1.33,2.98,2.98s-1.33,2.98-2.98,2.98-2.98-1.34-2.98-2.98,1.33-2.98,2.98-2.98Zm-33.04,246.1c0-1.72,1.4-3.12,3.12-3.12s3.12,1.4,3.12,3.12-1.4,3.12-3.12,3.12-3.12-1.4-3.12-3.12Zm-38.86-127.98c0-32.96,26.71-59.67,59.67-59.67s59.67,26.71,59.67,59.67-26.72,59.67-59.67,59.67c-32.96,0-59.67-26.71-59.67-59.67Zm-6.62-129.28c-1.72,0-3.12-1.4-3.12-3.12s1.4-3.12,3.12-3.12,3.12,1.4,3.12,3.12-1.4,3.12-3.12,3.12Zm-5.99,14c0-1.65,1.33-2.98,2.98-2.98s2.98,1.33,2.98,2.98-1.34,2.98-2.98,2.98-2.98-1.33-2.98-2.98Zm-20.08,217.68c0-1.72,1.4-3.12,3.12-3.12s3.12,1.4,3.12,3.12-1.4,3.12-3.12,3.12-3.12-1.4-3.12-3.12Zm-.92-28.46c0-1.65,1.33-2.98,2.98-2.98s2.98,1.33,2.98,2.98-1.34,2.98-2.98,2.98-2.98-1.33-2.98-2.98ZM56.47,123.25c0-1.72,1.4-3.12,3.12-3.12s3.12,1.4,3.12,3.12-1.4,3.12-3.12,3.12-3.12-1.4-3.12-3.12Zm-27.45,136.84c0-1.72,1.4-3.12,3.12-3.12s3.12,1.4,3.12,3.12-1.4,3.12-3.12,3.12-3.12-1.4-3.12-3.12Z"/>
  </g>
</svg>