  0
SECTION
  2
HEADER
  9
$ACADVER
  1
AC1032
  9
$ACADMAINTVER
 90
      228
  9
$DWGCODEPAGE
  3
ANSI_1252
  9
$REQUIREDVERSIONS
160
                 0
  9
$INSBASE
 10
0.0
 20
0.0
 30
0.0
  9
$EXTMIN
 10
1.000000000000000E+20
 20
1.000000000000000E+20
 30
1.000000000000000E+20
  9
$EXTMAX
 10
-1.000000000000000E+20
 20
-1.000000000000000E+20
 30
-1.000000000000000E+20
  9
$LIMMIN
 10
0.0
 20
0.0
  9
$LIMMAX
 10
12.0
 20
9.0
  9
$ORTHOMODE
 70
     0
  9
$REGENMODE
 70
     1
  9
$FILLMODE
 70
     1
  9
$QTEXTMODE
 70
     0
  9
$MIRRTEXT
 70
     0
  9
$LTSCALE
 40
1.0
  9
$ATTMODE
 70
     1
  9
$TEXTSIZE
 40
0.2
  9
$TRACEWID
 40
0.05
  9
$TEXTSTYLE
  7
Standard
  9
$CLAYER
  8
0
  9
$CELTYPE
  6
ByLayer
  9
$CECOLOR
 62
   256
  9
$CELTSCALE
 40
1.0
  9
$DISPSILH
 70
     0
  9
$DIMSCALE
 40
1.0
  9
$DIMASZ
 40
0.18
  9
$DIMEXO
 40
0.0625
  9
$DIMDLI
 40
0.38
  9
$DIMRND
 40
0.0
  9
$DIMDLE
 40
0.0
  9
$DIMEXE
 40
0.18
  9
$DIMTP
 40
0.0
  9
$DIMTM
 40
0.0
  9
$DIMTXT
 40
0.18
  9
$DIMCEN
 40
0.09
  9
$DIMTSZ
 40
0.0
  9
$DIMTOL
 70
     0
  9
$DIMLIM
 70
     0
  9
$DIMTIH
 70
     1
  9
$DIMTOH
 70
     1
  9
$DIMSE1
 70
     0
  9
$DIMSE2
 70
     0
  9
$DIMTAD
 70
     0
  9
$DIMZIN
 70
     0
  9
$DIMBLK
  1

  9
$DIMASO
 70
     1
  9
$DIMSHO
 70
     1
  9
$DIMPOST
  1

  9
$DIMAPOST
  1

  9
$DIMALT
 70
     0
  9
$DIMALTD
 70
     2
  9
$DIMALTF
 40
25.4
  9
$DIMLFAC
 40
1.0
  9
$DIMTOFL
 70
     0
  9
$DIMTVP
 40
0.0
  9
$DIMTIX
 70
     0
  9
$DIMSOXD
 70
     0
  9
$DIMSAH
 70
     0
  9
$DIMBLK1
  1

  9
$DIMBLK2
  1

  9
$DIMSTYLE
  2
Standard
  9
$DIMCLRD
 70
     0
  9
$DIMCLRE
 70
     0
  9
$DIMCLRT
 70
     0
  9
$DIMTFAC
 40
1.0
  9
$DIMGAP
 40
0.09
  9
$DIMJUST
 70
     0
  9
$DIMSD1
 70
     0
  9
$DIMSD2
 70
     0
  9
$DIMTOLJ
 70
     1
  9
$DIMTZIN
 70
     0
  9
$DIMALTZ
 70
     0
  9
$DIMALTTZ
 70
     0
  9
$DIMUPT
 70
     0
  9
$DIMDEC
 70
     4
  9
$DIMTDEC
 70
     4
  9
$DIMALTU
 70
     2
  9
$DIMALTTD
 70
     2
  9
$DIMTXSTY
  7
Standard
  9
$DIMAUNIT
 70
     0
  9
$DIMADEC
 70
     0
  9
$DIMALTRND
 40
0.0
  9
$DIMAZIN
 70
     0
  9
$DIMDSEP
 70
    46
  9
$DIMATFIT
 70
     3
  9
$DIMFRAC
 70
     0
  9
$DIMLDRBLK
  1

  9
$DIMLUNIT
 70
     2
  9
$DIMLWD
 70
    -2
  9
$DIMLWE
 70
    -2
  9
$DIMTMOVE
 70
     0
  9
$DIMFXL
 40
1.0
  9
$DIMFXLON
 70
     0
  9
$DIMJOGANG
 40
0.7853981633974483
  9
$DIMTFILL
 70
     0
  9
$DIMTFILLCLR
 70
     0
  9
$DIMARCSYM
 70
     0
  9
$DIMLTYPE
  6

  9
$DIMLTEX1
  6

  9
$DIMLTEX2
  6

  9
$DIMTXTDIRECTION
 70
     0
  9
$LUNITS
 70
     2
  9
$LUPREC
 70
     4
  9
$SKETCHINC
 40
0.1
  9
$FILLETRAD
 40
0.0
  9
$AUNITS
 70
     0
  9
$AUPREC
 70
     0
  9
$MENU
  1
.
  9
$ELEVATION
 40
0.0
  9
$PELEVATION
 40
0.0
  9
$THICKNESS
 40
0.0
  9
$LIMCHECK
 70
     0
  9
$CHAMFERA
 40
0.0
  9
$CHAMFERB
 40
0.0
  9
$CHAMFERC
 40
0.0
  9
$CHAMFERD
 40
0.0
  9
$SKPOLY
 70
     0
  9
$TDCREATE
 40
2459814.966157408
  9
$TDUCREATE
 40
2459814.882824074
  9
$TDUPDATE
 40
2459814.966157408
  9
$TDUUPDATE
 40
2459814.882824074
  9
$TDINDWG
 40
0.0000000000
  9
$TDUSRTIMER
 40
0.0000000000
  9
$USRTIMER
 70
     1
  9
$ANGBASE
 50
0.0
  9
$ANGDIR
 70
     0
  9
$PDMODE
 70
     0
  9
$PDSIZE
 40
0.0
  9
$PLINEWID
 40
0.0
  9
$SPLFRAME
 70
     0
  9
$SPLINETYPE
 70
     6
  9
$SPLINESEGS
 70
     8
  9
$HANDSEED
  5
E2
  9
$SURFTAB1
 70
     6
  9
$SURFTAB2
 70
     6
  9
$SURFTYPE
 70
     6
  9
$SURFU
 70
     6
  9
$SURFV
 70
     6
  9
$UCSBASE
  2

  9
$UCSNAME
  2

  9
$UCSORG
 10
0.0
 20
0.0
 30
0.0
  9
$UCSXDIR
 10
1.0
 20
0.0
 30
0.0
  9
$UCSYDIR
 10
0.0
 20
1.0
 30
0.0
  9
$UCSORTHOREF
  2

  9
$UCSORTHOVIEW
 70
     0
  9
$UCSORGTOP
 10
0.0
 20
0.0
 30
0.0
  9
$UCSORGBOTTOM
 10
0.0
 20
0.0
 30
0.0
  9
$UCSORGLEFT
 10
0.0
 20
0.0
 30
0.0
  9
$UCSORGRIGHT
 10
0.0
 20
0.0
 30
0.0
  9
$UCSORGFRONT
 10
0.0
 20
0.0
 30
0.0
  9
$UCSORGBACK
 10
0.0
 20
0.0
 30
0.0
  9
$PUCSBASE
  2

  9
$PUCSNAME
  2

  9
$PUCSORG
 10
0.0
 20
0.0
 30
0.0
  9
$PUCSXDIR
 10
1.0
 20
0.0
 30
0.0
  9
$PUCSYDIR
 10
0.0
 20
1.0
 30
0.0
  9
$PUCSORTHOREF
  2

  9
$PUCSORTHOVIEW
 70
     0
  9
$PUCSORGTOP
 10
0.0
 20
0.0
 30
0.0
  9
$PUCSORGBOTTOM
 10
0.0
 20
0.0
 30
0.0
  9
$PUCSORGLEFT
 10
0.0
 20
0.0
 30
0.0
  9
$PUCSORGRIGHT
 10
0.0
 20
0.0
 30
0.0
  9
$PUCSORGFRONT
 10
0.0
 20
0.0
 30
0.0
  9
$PUCSORGBACK
 10
0.0
 20
0.0
 30
0.0
  9
$USERI1
 70
     0
  9
$USERI2
 70
     0
  9
$USERI3
 70
     0
  9
$USERI4
 70
     0
  9
$USERI5
 70
     0
  9
$USERR1
 40
0.0
  9
$USERR2
 40
0.0
  9
$USERR3
 40
0.0
  9
$USERR4
 40
0.0
  9
$USERR5
 40
0.0
  9
$WORLDVIEW
 70
     1
  9
$SHADEDGE
 70
     3
  9
$SHADEDIF
 70
    70
  9
$TILEMODE
 70
     1
  9
$MAXACTVP
 70
    64
  9
$PINSBASE
 10
0.0
 20
0.0
 30
0.0
  9
$PLIMCHECK
 70
     0
  9
$PEXTMIN
 10
1.000000000000000E+20
 20
1.000000000000000E+20
 30
1.000000000000000E+20
  9
$PEXTMAX
 10
-1.000000000000000E+20
 20
-1.000000000000000E+20
 30
-1.000000000000000E+20
  9
$PLIMMIN
 10
0.0
 20
0.0
  9
$PLIMMAX
 10
12.0
 20
9.0
  9
$UNITMODE
 70
     0
  9
$VISRETAIN
 70
     1
  9
$PLINEGEN
 70
     0
  9
$PSLTSCALE
 70
     1
  9
$TREEDEPTH
 70
  3020
  9
$CMLSTYLE
  2
Standard
  9
$CMLJUST
 70
     0
  9
$CMLSCALE
 40
1.0
  9
$PROXYGRAPHICS
 70
     1
  9
$MEASUREMENT
 70
     0
  9
$CELWEIGHT
370
    -1
  9
$ENDCAPS
280
     0
  9
$JOINSTYLE
280
     0
  9
$LWDISPLAY
290
     1
  9
$INSUNITS
 70
     4
  9
$HYPERLINKBASE
  1

  9
$STYLESHEET
  1

  9
$XEDIT
290
     1
  9
$CEPSNTYPE
380
     0
  9
$PSTYLEMODE
290
     1
  9
$FINGERPRINTGUID
  2
{823765A0-2ACC-8643-A0E6-C15D2B4FAE05}
  9
$VERSIONGUID
  2
{CB152378-0AE6-0747-9E22-B01F2215B6A5}
  9
$EXTNAMES
290
     1
  9
$PSVPSCALE
 40
0.0
  9
$OLESTARTUP
290
     0
  9
$SORTENTS
280
   127
  9
$INDEXCTL
280
     0
  9
$HIDETEXT
280
     1
  9
$XCLIPFRAME
280
     2
  9
$HALOGAP
280
     0
  9
$OBSCOLOR
 70
   257
  9
$OBSLTYPE
280
     0
  9
$INTERSECTIONDISPLAY
280
     0
  9
$INTERSECTIONCOLOR
 70
   257
  9
$DIMASSOC
280
     2
  9
$PROJECTNAME
  1

  9
$CAMERADISPLAY
290
     0
  9
$LENSLENGTH
 40
50.0
  9
$CAMERAHEIGHT
 40
0.0
  9
$STEPSPERSEC
 40
2.0
  9
$STEPSIZE
 40
6.0
  9
$3DDWFPREC
 40
2.0
  9
$PSOLWIDTH
 40
0.25
  9
$PSOLHEIGHT
 40
4.0
  9
$LOFTANG1
 40
1.570796326794896
  9
$LOFTANG2
 40
1.570796326794896
  9
$LOFTMAG1
 40
0.0
  9
$LOFTMAG2
 40
0.0
  9
$LOFTPARAM
 70
     7
  9
$LOFTNORMALS
280
     1
  9
$LATITUDE
 40
37.795
  9
$LONGITUDE
 40
-122.394
  9
$NORTHDIRECTION
 40
0.0
  9
$TIMEZONE
 70
 -8000
  9
$LIGHTGLYPHDISPLAY
280
     1
  9
$TILEMODELIGHTSYNCH
280
     1
  9
$CMATERIAL
347
11
  9
$SOLIDHIST
280
     0
  9
$SHOWHIST
280
     1
  9
$DWFFRAME
280
     2
  9
$DGNFRAME
280
     0
  9
$REALWORLDSCALE
290
     1
  9
$INTERFERECOLOR
 62
     1
  9
$INTERFEREOBJVS
345
33
  9
$INTERFEREVPVS
346
30
  9
$CSHADOW
280
     0
  9
$SHADOWPLANELOCATION
 40
0.0
  0
ENDSEC
  0
SECTION
  2
CLASSES
  0
CLASS
  1
ACDBDICTIONARYWDFLT
  2
AcDbDictionaryWithDefault
  3
ObjectDBX Classes
 90
        0
 91
        1
280
     0
281
     0
  0
CLASS
  1
MATERIAL
  2
AcDbMaterial
  3
ObjectDBX Classes
 90
     1153
 91
        3
280
     0
281
     0
  0
CLASS
  1
VISUALSTYLE
  2
AcDbVisualStyle
  3
ObjectDBX Classes
 90
     4095
 91
       24
280
     0
281
     0
  0
CLASS
  1
SCALE
  2
AcDbScale
  3
ObjectDBX Classes
 90
     1153
 91
       17
280
     0
281
     0
  0
CLASS
  1
TABLESTYLE
  2
AcDbTableStyle
  3
ObjectDBX Classes
 90
     4095
 91
        1
280
     0
281
     0
  0
CLASS
  1
MLEADERSTYLE
  2
AcDbMLeaderStyle
  3
ACDB_MLEADERSTYLE_CLASS
 90
     4095
 91
        1
280
     0
281
     0
  0
CLASS
  1
ACDBSECTIONVIEWSTYLE
  2
AcDbSectionViewStyle
  3
ObjectDBX Classes
 90
     1025
 91
        1
280
     0
281
     0
  0
CLASS
  1
ACDBDETAILVIEWSTYLE
  2
AcDbDetailViewStyle
  3
ObjectDBX Classes
 90
     1025
 91
        1
280
     0
281
     0
  0
CLASS
  1
DICTIONARYVAR
  2
AcDbDictionaryVar
  3
ObjectDBX Classes
 90
        0
 91
        5
280
     0
281
     0
  0
CLASS
  1
CELLSTYLEMAP
  2
AcDbCellStyleMap
  3
ObjectDBX Classes
 90
     1152
 91
        1
280
     0
281
     0
  0
ENDSEC
  0
SECTION
  2
TABLES
  0
TABLE
  2
VPORT
  5
8
330
0
100
AcDbSymbolTable
 70
     1
  0
VPORT
  5
57
330
8
100
AcDbSymbolTableRecord
100
AcDbViewportTableRecord
  2
*Active
 70
     0
 10
0.0
 20
0.0
 11
1.0
 21
1.0
 12
0.0
 22
0.0
 13
0.0
 23
0.0
 14
1.0
 24
1.0
 15
0.0
 25
0.0
 16
0.0
 26
0.0
 36
1.0
 17
92.57500175704832
 27
46.24498934464778
 37
0.0
 40
94.33980954985672
 41
2.001837871896205
 42
50.0
 43
0.0
 44
0.0
 50
0.0
 51
0.0
 71
     0
 72
   100
 73
     1
 74
     1
 75
     0
 76
     0
 77
     0
 78
     0
281
     0
 65
     1
110
0.0
120
0.0
130
0.0
111
1.0
121
0.0
131
0.0
112
0.0
122
1.0
132
0.0
 79
     0
146
0.0
 60
     3
 61
     5
292
     1
282
     1
141
0.0
142
0.0
 63
   250
421
  3355443
  0
ENDTAB
  0
TABLE
  2
LTYPE
  5
5
330
0
100
AcDbSymbolTable
 70
     1
  0
LTYPE
  5
5B
330
5
100
AcDbSymbolTableRecord
100
AcDbLinetypeTableRecord
  2
ByBlock
 70
     0
  3

 72
    65
 73
     0
 40
0.0
  0
LTYPE
  5
5C
330
5
100
AcDbSymbolTableRecord
100
AcDbLinetypeTableRecord
  2
ByLayer
 70
     0
  3

 72
    65
 73
     0
 40
0.0
  0
LTYPE
  5
5D
330
5
100
AcDbSymbolTableRecord
100
AcDbLinetypeTableRecord
  2
Continuous
 70
     0
  3
Solid line
 72
    65
 73
     0
 40
0.0
  0
ENDTAB
  0
TABLE
  2
LAYER
  5
2
330
0
100
AcDbSymbolTable
 70
     2
  0
LAYER
  5
54
330
2
100
AcDbSymbolTableRecord
100
AcDbLayerTableRecord
  2
0
 70
     0
 62
     7
  6
Continuous
370
    -3
390
F
347
21
348
0
  0
LAYER
  5
78
330
2
100
AcDbSymbolTableRecord
100
AcDbLayerTableRecord
  2
Ebene 1
 70
     0
 62
     7
  6
Continuous
370
     0
390
F
347
21
348
0
  0
ENDTAB
  0
TABLE
  2
STYLE
  5
3
330
0
100
AcDbSymbolTable
 70
     2
  0
STYLE
  5
55
330
3
100
AcDbSymbolTableRecord
100
AcDbTextStyleTableRecord
  2
Standard
 70
     0
 40
0.0
 41
1.0
 50
0.0
 71
     0
 42
0.2
  3
txt
  4

  0
STYLE
  5
5A
330
3
100
AcDbSymbolTableRecord
100
AcDbTextStyleTableRecord
  2
Annotative
 70
     0
 40
0.0
 41
1.0
 50
0.0
 71
     0
 42
0.2
  3
txt
  4

1001
AcadAnnotative
1000
AnnotativeData
1002
{
1070
     1
1070
     1
1002
}
  0
ENDTAB
  0
TABLE
  2
VIEW
  5
6
330
0
100
AcDbSymbolTable
 70
     0
  0
ENDTAB
  0
TABLE
  2
UCS
  5
7
330
0
100
AcDbSymbolTable
 70
     0
  0
ENDTAB
  0
TABLE
  2
APPID
  5
9
330
0
100
AcDbSymbolTable
 70
     2
  0
APPID
  5
56
330
9
100
AcDbSymbolTableRecord
100
AcDbRegAppTableRecord
  2
ACAD
 70
     0
  0
APPID
  5
5E
330
9
100
AcDbSymbolTableRecord
100
AcDbRegAppTableRecord
  2
AcadAnnotative
 70
     0
  0
ENDTAB
  0
TABLE
  2
DIMSTYLE
  5
A
330
0
100
AcDbSymbolTable
 70
     2
100
AcDbDimStyleTable
 71
     0
  0
DIMSTYLE
105
58
330
A
100
AcDbSymbolTableRecord
100
AcDbDimStyleTableRecord
  2
Standard
 70
     0
340
55
  0
DIMSTYLE
105
59
330
A
100
AcDbSymbolTableRecord
100
AcDbDimStyleTableRecord
  2
Annotative
 70
     0
340
55
1001
AcadAnnotative
1000
AnnotativeData
1002
{
1070
     1
1070
     1
1002
}
  0
ENDTAB
  0
TABLE
  2
BLOCK_RECORD
  5
1
330
0
100
AcDbSymbolTable
 70
     3
  0
BLOCK_RECORD
  5
70
330
1
100
AcDbSymbolTableRecord
100
AcDbBlockTableRecord
  2
*Model_Space
340
73
 70
     0
280
     1
281
     0
  0
BLOCK_RECORD
  5
6C
330
1
100
AcDbSymbolTableRecord
100
AcDbBlockTableRecord
  2
*Paper_Space
340
6F
 70
     0
280
     1
281
     0
  0
BLOCK_RECORD
  5
74
330
1
100
AcDbSymbolTableRecord
100
AcDbBlockTableRecord
  2
*Paper_Space0
340
77
 70
     0
280
     1
281
     0
  0
BLOCK_RECORD
  5
79
330
1
100
AcDbSymbolTableRecord
100
AcDbBlockTableRecord
  2
Block_0
340
0
102
{BLKREFS
331
7A
102
}
 70
     0
280
     1
281
     0
  0
BLOCK_RECORD
  5
C9
330
1
100
AcDbSymbolTableRecord
100
AcDbBlockTableRecord
  2
Block_1
340
0
102
{BLKREFS
331
CA
102
}
 70
     0
280
     1
281
     0
  0
ENDTAB
  0
ENDSEC
  0
SECTION
  2
BLOCKS
  0
BLOCK
  5
71
330
70
100
AcDbEntity
  8
0
100
AcDbBlockBegin
  2
*Model_Space
 70
     0
 10
0.0
 20
0.0
 30
0.0
  3
*Model_Space
  1

  0
ENDBLK
  5
72
330
70
100
AcDbEntity
  8
0
100
AcDbBlockEnd
  0
BLOCK
  5
6D
330
6C
100
AcDbEntity
 67
     1
  8
0
100
AcDbBlockBegin
  2
*Paper_Space
 70
     0
 10
0.0
 20
0.0
 30
0.0
  3
*Paper_Space
  1

  0
ENDBLK
  5
6E
330
6C
100
AcDbEntity
 67
     1
  8
0
100
AcDbBlockEnd
  0
BLOCK
  5
75
330
74
100
AcDbEntity
 67
     1
  8
0
100
AcDbBlockBegin
  2
*Paper_Space0
 70
     0
 10
0.0
 20
0.0
 30
0.0
  3
*Paper_Space0
  1

  0
ENDBLK
  5
76
330
74
100
AcDbEntity
 67
     1
  8
0
100
AcDbBlockEnd
  0
BLOCK
  5
7B
330
79
100
AcDbEntity
  8
0
100
AcDbBlockBegin
  2
Block_0
 70
     0
 10
0.0
 20
0.0
 30
0.0
  3
Block_0
  1

  0
SPLINE
  5
7D
330
79
100
AcDbEntity
  8
Ebene 1
 62
     5
420
      255
370
     9
100
AcDbSpline
210
0.0
220
0.0
230
1.0
 70
     9
 71
     3
 72
    20
 73
    16
 74
     0
 42
0.0000000001
 43
0.0000000001
 40
0.0
 40
0.0
 40
0.0
 40
0.0
 40
1.0
 40
1.0
 40
1.0
 40
2.0
 40
2.0
 40
2.0
 40
3.0
 40
3.0
 40
3.0
 40
4.0
 40
4.0
 40
4.0
 40
5.0
 40
5.0
 40
5.0
 40
5.0
 10
44.45508035387053
 20
9.274037926423211
 30
0.0
 10
37.68915455241307
 20
9.274037926423211
 30
0.0
 10
32.2072728279028
 20
14.75944799871792
 30
0.0
 10
32.2072728279028
 20
21.52184545239095
 30
0.0
 10
32.2072728279028
 20
28.28424290606398
 30
0.0
 10
37.69268290019815
 20
33.76965297835869
 30
0.0
 10
44.45508035387053
 20
33.76965297835869
 30
0.0
 10
51.2174751162026
 20
33.76965297835869
 30
0.0
 10
56.70289057117923
 20
28.28424290606398
 30
0.0
 10
56.70289057117923
 20
21.52184545239095
 30
0.0
 10
56.70289057117923
 20
14.75944799871792
 30
0.0
 10
51.2174804988842
 20
9.274037926423211
 30
0.0
 10
44.45508304521149
 20
9.274037926423211
 30
0.0
 10
44.45508304521149
 20
9.274037926423211
 30
0.0
 10
44.45508304521149
 20
9.274037926423211
 30
0.0
 10
44.45508035387053
 20
9.274037926423211
 30
0.0
  0
SPLINE
  5
7E
330
79
100
AcDbEntity
  8
Ebene 1
 62
     5
420
      255
370
     9
100
AcDbSpline
210
0.0
220
0.0
230
1.0
 70
     9
 71
     3
 72
    17
 73
    13
 74
     0
 42
0.0000000001
 43
0.0000000001
 40
0.0
 40
0.0
 40
0.0
 40
0.0
 40
1.0
 40
1.0
 40
1.0
 40
2.0
 40
2.0
 40
2.0
 40
3.0
 40
3.0
 40
3.0
 40
4.0
 40
4.0
 40
4.0
 40
4.0
 10
44.45508035387053
 20
36.27424163748812
 30
0.0
 10
36.30986392465846
 20
36.27424163748812
 30
0.0
 10
29.70620713387653
 20
29.67058484670683
 30
0.0
 10
29.70620713387653
 20
21.52537110883475
 30
0.0
 10
29.70620713387653
 20
13.38015737096394
 30
0.0
 10
36.30986392465846
 20
6.776500580181377
 30
0.0
 10
44.4550776625299
 20
6.776500580181377
 30
0.0
 10
52.60029140040134
 20
6.776500580181377
 30
0.0
 10
59.20394819118327
 20
13.38015737096394
 30
0.0
 10
59.20394819118327
 20
21.52537110883475
 30
0.0
 10
59.20394819118327
 20
29.67058484670683
 30
0.0
 10
52.60029140040134
 20
36.27424163748812
 30
0.0
 10
44.45508035387053
 20
36.27424163748812
 30
0.0
  0
SPLINE
  5
7F
330
79
100
AcDbEntity
  8
Ebene 1
 62
     5
420
      255
370
     9
100
AcDbSpline
210
0.0
220
0.0
230
1.0
 70
     9
 71
     3
 72
    17
 73
    13
 74
     0
 42
0.0000000001
 43
0.0000000001
 40
0.0
 40
0.0
 40
0.0
 40
0.0
 40
1.0
 40
1.0
 40
1.0
 40
2.0
 40
2.0
 40
2.0
 40
3.0
 40
3.0
 40
3.0
 40
4.0
 40
4.0
 40
4.0
 40
4.0
 10
181.8478154266396
 20
86.13325824826301
 30
0.0
 10
181.2692848089088
 20
86.13325824826301
 30
0.0
 10
180.7965992420437
 20
86.60242825121187
 30
0.0
 10
180.7965992420437
 20
87.18448116121098
 30
0.0
 10
180.7965992420437
 20
87.7665340712098
 30
0.0
 10
181.2657753005094
 20
88.23570407415866
 30
0.0
 10
181.8478154266396
 20
88.23570407415866
 30
0.0
 10
182.4298555527699
 20
88.23570407415866
 30
0.0
 10
182.8990316112356
 20
87.7665340712098
 30
0.0
 10
182.8990316112356
 20
87.18448116121098
 30
0.0
 10
182.8990316112356
 20
86.60242825121187
 30
0.0
 10
182.4298555527699
 20
86.13325824826301
 30
0.0
 10
181.8478154266396
 20
86.13325824826301
 30
0.0
  0
SPLINE
  5
80
330
79
100
AcDbEntity
  8
Ebene 1
 62
     5
420
      255
370
     9
100
AcDbSpline
210
0.0
220
0.0
230
1.0
 70
     9
 71
     3
 72
    20
 73
    16
 74
     0
 42
0.0000000001
 43
0.0000000001
 40
0.0
 40
0.0
 40
0.0
 40
0.0
 40
1.0
 40
1.0
 40
1.0
 40
2.0
 40
2.0
 40
2.0
 40
3.0
 40
3.0
 40
3.0
 40
4.0
 40
4.0
 40
4.0
 40
5.0
 40
5.0
 40
5.0
 40
5.0
 10
132.1334328159683
 20
16.78780928649405
 30
0.0
 10
125.3675097058515
 20
16.78780928649405
 30
0.0
 10
119.8856252900005
 20
22.27321935878876
 30
0.0
 10
119.8856252900005
 20
29.03561681246179
 30
0.0
 10
119.8856252900005
 20
35.79801426613482
 30
0.0
 10
125.371029979614
 20
41.28342433842952
 30
0.0
 10
132.1334328159683
 20
41.28342433842952
 30
0.0
 10
138.8958356523226
 20
41.28342433842952
 30
0.0
 10
144.381240341936
 20
35.79801426613482
 30
0.0
 10
144.381240341936
 20
29.03561681246179
 30
0.0
 10
144.381240341936
 20
22.27321935878876
 30
0.0
 10
138.8958356523226
 20
16.78780928649405
 30
0.0
 10
132.1334328159683
 20
16.78780928649405
 30
0.0
 10
132.1334328159683
 20
16.78780928649405
 30
0.0
 10
132.1334328159683
 20
16.78780928649405
 30
0.0
 10
132.1334328159683
 20
16.78780928649405
 30
0.0
  0
SPLINE
  5
81
330
79
100
AcDbEntity
  8
Ebene 1
 62
     5
420
      255
370
     9
100
AcDbSpline
210
0.0
220
0.0
230
1.0
 70
     9
 71
     3
 72
    17
 73
    13
 74
     0
 42
0.0000000001
 43
0.0000000001
 40
0.0
 40
0.0
 40
0.0
 40
0.0
 40
1.0
 40
1.0
 40
1.0
 40
2.0
 40
2.0
 40
2.0
 40
3.0
 40
3.0
 40
3.0
 40
4.0
 40
4.0
 40
4.0
 40
4.0
 10
119.7798017698611
 20
6.762387189042361
 30
0.0
 10
119.2012711521302
 20
6.762387189042361
 30
0.0
 10
118.728574819902
 20
7.231557864826152
 30
0.0
 10
118.728574819902
 20
7.813608756319552
 30
0.0
 10
118.728574819902
 20
8.395659647812951
 30
0.0
 10
119.1977401130045
 20
8.864830323596741
 30
0.0
 10
119.7798017698611
 20
8.864830323596741
 30
0.0
 10
120.3618634267177
 20
8.864830323596741
 30
0.0
 10
120.8310287198202
 20
8.395659647812951
 30
0.0
 10
120.8310287198202
 20
7.813608756319552
 30
0.0
 10
120.8310287198202
 20
7.231557864826152
 30
0.0
 10
120.3618634267177
 20
6.762387189042361
 30
0.0
 10
119.7798017698611
 20
6.762387189042361
 30
0.0
  0
SPLINE
  5
82
330
79
100
AcDbEntity
  8
Ebene 1
 62
     5
420
      255
370
     9
100
AcDbSpline
210
0.0
220
0.0
230
1.0
 70
     9
 71
     3
 72
    17
 73
    13
 74
     0
 42
0.0000000001
 43
0.0000000001
 40
0.0
 40
0.0
 40
0.0
 40
0.0
 40
1.0
 40
1.0
 40
1.0
 40
2.0
 40
2.0
 40
2.0
 40
3.0
 40
3.0
 40
3.0
 40
4.0
 40
4.0
 40
4.0
 40
4.0
 10
119.7798017698611
 20
88.28861852556935
 30
0.0
 10
120.358332387592
 20
88.28861852556935
 30
0.0
 10
120.8310287198202
 20
87.81944852262048
 30
0.0
 10
120.8310287198202
 20
87.23739561262135
 30
0.0
 10
120.8310287198202
 20
86.65534270262224
 30
0.0
 10
120.3618634267177
 20
86.18617269967336
 30
0.0
 10
119.7798017698611
 20
86.18617269967336
 30
0.0
 10
119.1977401130045
 20
86.18617269967336
 30
0.0
 10
118.728574819902
 20
86.65534270262224
 30
0.0
 10
118.728574819902
 20
87.23739561262135
 30
0.0
 10
118.728574819902
 20
87.81944852262048
 30
0.0
 10
119.1977401130045
 20
88.28861852556935
 30
0.0
 10
119.7798017698611
 20
88.28861852556935
 30
0.0
  0
SPLINE
  5
83
330
79
100
AcDbEntity
  8
Ebene 1
 62
     5
420
      255
370
     9
100
AcDbSpline
210
0.0
220
0.0
230
1.0
 70
     9
 71
     3
 72
    56
 73
    52
 74
     0
 42
0.0000000001
 43
0.0000000001
 40
0.0
 40
0.0
 40
0.0
 40
0.0
 40
1.0
 40
1.0
 40
1.0
 40
2.0
 40
2.0
 40
2.0
 40
3.0
 40
3.0
 40
3.0
 40
4.0
 40
4.0
 40
4.0
 40
5.0
 40
5.0
 40
5.0
 40
6.0
 40
6.0
 40
6.0
 40
7.0
 40
7.0
 40
7.0
 40
8.0
 40
8.0
 40
8.0
 40
9.0
 40
9.0
 40
9.0
 40
10.0
 40
10.0
 40
10.0
 40
11.0
 40
11.0
 40
11.0
 40
12.0
 40
12.0
 40
12.0
 40
13.0
 40
13.0
 40
13.0
 40
14.0
 40
14.0
 40
14.0
 40
15.0
 40
15.0
 40
15.0
 40
16.0
 40
16.0
 40
16.0
 40
17.0
 40
17.0
 40
17.0
 40
17.0
 10
117.8749030498085
 20
89.82664947979696
 30
0.0
 10
117.4868655336918
 20
89.82664947979696
 30
0.0
 10
117.1764355207985
 20
89.51269347404204
 30
0.0
 10
117.1764355207985
 20
89.12818565138062
 30
0.0
 10
117.1764355207985
 20
89.12818565138062
 30
0.0
 10
117.1764355207985
 20
15.06281593335982
 30
0.0
 10
117.1764355207985
 20
15.06281593335982
 30
0.0
 10
117.1764355207985
 20
15.06281593335982
 30
0.0
 10
117.1764355207985
 20
15.06281593335982
 30
0.0
 10
117.1764355207985
 20
15.06281593335982
 30
0.0
 10
117.1764355207985
 20
15.06281593335982
 30
0.0
 10
117.1764355207985
 20
0.176369445843888
 30
0.0
 10
117.1764355207985
 20
0.176369445843888
 30
0.0
 10
117.1764355207985
 20
0.176369445843888
 30
0.0
 10
117.1764355207985
 20
0.176369445843888
 30
0.0
 10
117.1764355207985
 20
0.176369445843888
 30
0.0
 10
117.1764355207985
 20
0.176369445843888
 30
0.0
 10
117.1764355207985
 20
0.1128753337602128
 30
0.0
 10
117.1764355207985
 20
0.1128753337602128
 30
0.0
 10
122.2491177165049
 20
4.801045669794347
 30
0.0
 10
127.829774339607
 20
8.945974248627701
 30
0.0
 10
133.4809763876811
 20
12.208998892407
 30
0.0
 10
137.8551910543774
 20
14.73475763824623
 30
0.0
 10
142.4445945658416
 20
16.92186497159409
 30
0.0
 10
147.051631742208
 20
18.69624442835425
 30
0.0
 10
147.051631742208
 20
18.69624442835425
 30
0.0
 10
147.0798477591241
 20
81.1417186319168
 30
0.0
 10
147.0798477591241
 20
81.1417186319168
 30
0.0
 10
147.0798477591241
 20
81.52975412952805
 30
0.0
 10
147.3938088111431
 20
81.84018212391569
 30
0.0
 10
147.7818355618966
 20
81.84018212391569
 30
0.0
 10
147.7818355618966
 20
81.84018212391569
 30
0.0
 10
166.0759339649433
 20
81.84018212391569
 30
0.0
 10
166.0759339649433
 20
81.84018212391569
 30
0.0
 10
166.0759339649433
 20
81.84018212391569
 30
0.0
 10
166.0759339649433
 20
84.1507560619982
 30
0.0
 10
166.0759339649433
 20
84.1507560619982
 30
0.0
 10
166.0759339649433
 20
84.53879155960947
 30
0.0
 10
166.3898950169623
 20
84.8527472289466
 30
0.0
 10
166.7779217677158
 20
84.8527472289466
 30
0.0
 10
166.7779217677158
 20
84.8527472289466
 30
0.0
 10
185.0967159139161
 20
84.8527472289466
 30
0.0
 10
185.0967159139161
 20
84.8527472289466
 30
0.0
 10
185.0967159139161
 20
84.8527472289466
 30
0.0
 10
185.0826132881396
 20
89.82312752394649
 30
0.0
 10
185.0826132881396
 20
89.82312752394649
 30
0.0
 10
185.0826132881396
 20
89.82312752394649
 30
0.0
 10
117.8748815190821
 20
89.82312752394649
 30
0.0
 10
117.8748815190821
 20
89.82312752394649
 30
0.0
 10
117.8748815190821
 20
89.82312752394649
 30
0.0
 10
117.8749030498085
 20
89.82664947979696
 30
0.0
 10
117.8749030498085
 20
89.82664947979696
 30
0.0
  0
SPLINE
  5
84
330
79
100
AcDbEntity
  8
Ebene 1
 62
     5
420
      255
370
     9
100
AcDbSpline
210
0.0
220
0.0
230
1.0
 70
     9
 71
     3
 72
    17
 73
    13
 74
     0
 42
0.0000000001
 43
0.0000000001
 40
0.0
 40
0.0
 40
0.0
 40
0.0
 40
1.0
 40
1.0
 40
1.0
 40
2.0
 40
2.0
 40
2.0
 40
3.0
 40
3.0
 40
3.0
 40
4.0
 40
4.0
 40
4.0
 40
4.0
 10
58.78768927546889
 20
47.72127300538765
 30
0.0
 10
59.36621451051816
 20
47.72127300538765
 30
0.0
 10
59.8389108427464
 20
47.25210232960354
 30
0.0
 10
59.8389108427464
 20
46.67005143811014
 30
0.0
 10
59.8389108427464
 20
46.08800054661674
 30
0.0
 10
59.36974016696229
 20
45.61882987083263
 30
0.0
 10
58.78768927546889
 20
45.61882987083263
 30
0.0
 10
58.20563838397549
 20
45.61882987083263
 30
0.0
 10
57.73646770819137
 20
46.08800054661674
 30
0.0
 10
57.73646770819137
 20
46.67005143811014
 30
0.0
 10
57.73646770819137
 20
47.25210232960354
 30
0.0
 10
58.20563838397549
 20
47.72127569672861
 30
0.0
 10
58.78768927546889
 20
47.72127300538765
 30
0.0
  0
SPLINE
  5
85
330
79
100
AcDbEntity
  8
Ebene 1
 62
     5
420
      255
370
     9
100
AcDbSpline
210
0.0
220
0.0
230
1.0
 70
     9
 71
     3
 72
    17
 73
    13
 74
     0
 42
0.0000000001
 43
0.0000000001
 40
0.0
 40
0.0
 40
0.0
 40
0.0
 40
1.0
 40
1.0
 40
1.0
 40
2.0
 40
2.0
 40
2.0
 40
3.0
 40
3.0
 40
3.0
 40
4.0
 40
4.0
 40
4.0
 40
4.0
 10
70.36172501558024
 20
46.94872901228004
 30
0.0
 10
70.94025025062951
 20
46.94872901228004
 30
0.0
 10
71.41294658285774
 20
46.47955833649592
 30
0.0
 10
71.41294658285774
 20
45.89750744500252
 30
0.0
 10
71.41294658285774
 20
45.31545655350945
 30
0.0
 10
70.94377590707364
 20
44.84628587772501
 30
0.0
 10
70.36172501558024
 20
44.84628587772501
 30
0.0
 10
69.77967412408684
 20
44.84628587772501
 30
0.0
 10
69.31050344830272
 20
45.31545655350945
 30
0.0
 10
69.31050344830272
 20
45.89750744500252
 30
0.0
 10
69.31050344830272
 20
46.47955833649592
 30
0.0
 10
69.77967412408684
 20
46.94872901228004
 30
0.0
 10
70.36172501558024
 20
46.94872901228004
 30
0.0
  0
SPLINE
  5
86
330
79
100
AcDbEntity
  8
Ebene 1
 62
     5
420
      255
370
     9
100
AcDbSpline
210
0.0
220
0.0
230
1.0
 70
     9
 71
     3
 72
    17
 73
    13
 74
     0
 42
0.0000000001
 43
0.0000000001
 40
0.0
 40
0.0
 40
0.0
 40
0.0
 40
1.0
 40
1.0
 40
1.0
 40
2.0
 40
2.0
 40
2.0
 40
3.0
 40
3.0
 40
3.0
 40
4.0
 40
4.0
 40
4.0
 40
4.0
 10
52.95657647779457
 20
55.57369577794954
 30
0.0
 10
52.68142456006879
 20
55.57369577794954
 30
0.0
 10
52.45565874596862
 20
55.79593324426496
 30
0.0
 10
52.45565874596862
 20
56.07461350977549
 30
0.0
 10
52.45565874596862
 20
56.35329377528602
 30
0.0
 10
52.67789890362467
 20
56.57553124160144
 30
0.0
 10
52.95657647779457
 20
56.57553124160144
 30
0.0
 10
53.23525405196447
 20
56.57553124160144
 30
0.0
 10
53.45749420962052
 20
56.35329377528602
 30
0.0
 10
53.45749420962052
 20
56.07461350977549
 30
0.0
 10
53.45749420962052
 20
55.79593324426496
 30
0.0
 10
53.23525405196447
 20
55.57369577794954
 30
0.0
 10
52.95657647779457
 20
55.57369577794954
 30
0.0
  0
SPLINE
  5
87
330
79
100
AcDbEntity
  8
Ebene 1
 62
     5
420
      255
370
     9
100
AcDbSpline
210
0.0
220
0.0
230
1.0
 70
     9
 71
     3
 72
    17
 73
    13
 74
     0
 42
0.0000000001
 43
0.0000000001
 40
0.0
 40
0.0
 40
0.0
 40
0.0
 40
1.0
 40
1.0
 40
1.0
 40
2.0
 40
2.0
 40
2.0
 40
3.0
 40
3.0
 40
3.0
 40
4.0
 40
4.0
 40
4.0
 40
4.0
 10
52.95657647779457
 20
53.57355050708986
 30
0.0
 10
52.68142456006879
 20
53.57355050708986
 30
0.0
 10
52.45565874596862
 20
53.79578797340496
 30
0.0
 10
52.45565874596862
 20
54.07446823891581
 30
0.0
 10
52.45565874596862
 20
54.35314850442666
 30
0.0
 10
52.67789890362467
 20
54.57538597074176
 30
0.0
 10
52.95657647779457
 20
54.57538597074176
 30
0.0
 10
53.23525405196447
 20
54.57538597074176
 30
0.0
 10
53.45749420962052
 20
54.35314850442666
 30
0.0
 10
53.45749420962052
 20
54.07446823891581
 30
0.0
 10
53.45749420962052
 20
53.79578797340496
 30
0.0
 10
53.23525405196447
 20
53.57355050708986
 30
0.0
 10
52.95657647779457
 20
53.57355050708986
 30
0.0
  0
SPLINE
  5
88
330
79
100
AcDbEntity
  8
Ebene 1
 62
     5
420
      255
370
     9
100
AcDbSpline
210
0.0
220
0.0
230
1.0
 70
     9
 71
     3
 72
    17
 73
    13
 74
     0
 42
0.0000000001
 43
0.0000000001
 40
0.0
 40
0.0
 40
0.0
 40
0.0
 40
1.0
 40
1.0
 40
1.0
 40
2.0
 40
2.0
 40
2.0
 40
3.0
 40
3.0
 40
3.0
 40
4.0
 40
4.0
 40
4.0
 40
4.0
 10
52.95657647779457
 20
51.57340523623018
 30
0.0
 10
52.68142456006879
 20
51.57340523623018
 30
0.0
 10
52.45565874596862
 20
51.79564270254559
 30
0.0
 10
52.45565874596862
 20
52.07432296805613
 30
0.0
 10
52.45565874596862
 20
52.35300323356667
 30
0.0
 10
52.67789890362467
 20
52.57524069988208
 30
0.0
 10
52.95657647779457
 20
52.57524069988208
 30
0.0
 10
53.23525405196447
 20
52.57524069988208
 30
0.0
 10
53.45749420962052
 20
52.35300323356667
 30
0.0
 10
53.45749420962052
 20
52.07432296805613
 30
0.0
 10
53.45749420962052
 20
51.79564270254559
 30
0.0
 10
53.23525405196447
 20
51.57340523623018
 30
0.0
 10
52.95657647779457
 20
51.57340523623018
 30
0.0
  0
SPLINE
  5
89
330
79
100
AcDbEntity
  8
Ebene 1
 62
     5
420
      255
370
     9
100
AcDbSpline
210
0.0
220
0.0
230
1.0
 70
     9
 71
     3
 72
    17
 73
    13
 74
     0
 42
0.0000000001
 43
0.0000000001
 40
0.0
 40
0.0
 40
0.0
 40
0.0
 40
1.0
 40
1.0
 40
1.0
 40
2.0
 40
2.0
 40
2.0
 40
3.0
 40
3.0
 40
3.0
 40
4.0
 40
4.0
 40
4.0
 40
4.0
 10
52.95657647779457
 20
49.5732599653705
 30
0.0
 10
52.68142456006879
 20
49.5732599653705
 30
0.0
 10
52.45565874596862
 20
49.79549743168559
 30
0.0
 10
52.45565874596862
 20
50.07417769719644
 30
0.0
 10
52.45565874596862
 20
50.35285796270731
 30
0.0
 10
52.67789890362467
 20
50.5750954290224
 30
0.0
 10
52.95657647779457
 20
50.5750954290224
 30
0.0
 10
53.23525405196447
 20
50.5750954290224
 30
0.0
 10
53.45749420962052
 20
50.35285796270731
 30
0.0
 10
53.45749420962052
 20
50.07417769719644
 30
0.0
 10
53.45749420962052
 20
49.79549743168559
 30
0.0
 10
53.23525405196447
 20
49.5732599653705
 30
0.0
 10
52.95657647779457
 20
49.5732599653705
 30
0.0
  0
SPLINE
  5
8A
330
79
100
AcDbEntity
  8
Ebene 1
 62
     5
420
      255
370
     9
100
AcDbSpline
210
0.0
220
0.0
230
1.0
 70
     9
 71
     3
 72
    17
 73
    13
 74
     0
 42
0.0000000001
 43
0.0000000001
 40
0.0
 40
0.0
 40
0.0
 40
0.0
 40
1.0
 40
1.0
 40
1.0
 40
2.0
 40
2.0
 40
2.0
 40
3.0
 40
3.0
 40
3.0
 40
4.0
 40
4.0
 40
4.0
 40
4.0
 10
52.95657647779457
 20
47.57311469451082
 30
0.0
 10
52.68142456006879
 20
47.57311469451082
 30
0.0
 10
52.45565874596862
 20
47.79535216082623
 30
0.0
 10
52.45565874596862
 20
48.07403242633677
 30
0.0
 10
52.45565874596862
 20
48.3527126918473
 30
0.0
 10
52.67789890362467
 20
48.57495015816271
 30
0.0
 10
52.95657647779457
 20
48.57495015816271
 30
0.0
 10
53.23525405196447
 20
48.57495015816271
 30
0.0
 10
53.45749420962052
 20
48.3527126918473
 30
0.0
 10
53.45749420962052
 20
48.07403242633677
 30
0.0
 10
53.45749420962052
 20
47.79535216082623
 30
0.0
 10
53.23525405196447
 20
47.57311469451082
 30
0.0
 10
52.95657647779457
 20
47.57311469451082
 30
0.0
  0
SPLINE
  5
8B
330
79
100
AcDbEntity
  8
Ebene 1
 62
     5
420
      255
370
     9
100
AcDbSpline
210
0.0
220
0.0
230
1.0
 70
     9
 71
     3
 72
    17
 73
    13
 74
     0
 42
0.0000000001
 43
0.0000000001
 40
0.0
 40
0.0
 40
0.0
 40
0.0
 40
1.0
 40
1.0
 40
1.0
 40
2.0
 40
2.0
 40
2.0
 40
3.0
 40
3.0
 40
3.0
 40
4.0
 40
4.0
 40
4.0
 40
4.0
 10
50.95643120693489
 20
55.57369846929018
 30
0.0
 10
50.68127928920911
 20
55.57369846929018
 30
0.0
 10
50.45551347510894
 20
55.79593593560559
 30
0.0
 10
50.45551347510894
 20
56.07461620111645
 30
0.0
 10
50.45551347510894
 20
56.35329646662698
 30
0.0
 10
50.67775363276499
 20
56.57553393294207
 30
0.0
 10
50.95643120693489
 20
56.57553393294207
 30
0.0
 10
51.23510878110479
 20
56.57553393294207
 30
0.0
 10
51.45734893876085
 20
56.35329646662698
 30
0.0
 10
51.45734893876085
 20
56.07461620111645
 30
0.0
 10
51.45734893876085
 20
55.79593593560559
 30
0.0
 10
51.23510878110479
 20
55.57369846929018
 30
0.0
 10
50.95643120693489
 20
55.57369846929018
 30
0.0
  0
SPLINE
  5
8C
330
79
100
AcDbEntity
  8
Ebene 1
 62
     5
420
      255
370
     9
100
AcDbSpline
210
0.0
220
0.0
230
1.0
 70
     9
 71
     3
 72
    17
 73
    13
 74
     0
 42
0.0000000001
 43
0.0000000001
 40
0.0
 40
0.0
 40
0.0
 40
0.0
 40
1.0
 40
1.0
 40
1.0
 40
2.0
 40
2.0
 40
2.0
 40
3.0
 40
3.0
 40
3.0
 40
4.0
 40
4.0
 40
4.0
 40
4.0
 10
50.95643120693489
 20
53.57355319843081
 30
0.0
 10
50.68127928920911
 20
53.57355319843081
 30
0.0
 10
50.45551347510894
 20
53.79579066474591
 30
0.0
 10
50.45551347510894
 20
54.07447093025645
 30
0.0
 10
50.45551347510894
 20
54.3531511957673
 30
0.0
 10
50.67775363276499
 20
54.57538866208271
 30
0.0
 10
50.95643120693489
 20
54.57538866208271
 30
0.0
 10
51.23510878110479
 20
54.57538866208271
 30
0.0
 10
51.45734893876085
 20
54.3531511957673
 30
0.0
 10
51.45734893876085
 20
54.07447093025645
 30
0.0
 10
51.45734893876085
 20
53.79579066474591
 30
0.0
 10
51.23510878110479
 20
53.57355319843081
 30
0.0
 10
50.95643120693489
 20
53.57355319843081
 30
0.0
  0
SPLINE
  5
8D
330
79
100
AcDbEntity
  8
Ebene 1
 62
     5
420
      255
370
     9
100
AcDbSpline
210
0.0
220
0.0
230
1.0
 70
     9
 71
     3
 72
    17
 73
    13
 74
     0
 42
0.0000000001
 43
0.0000000001
 40
0.0
 40
0.0
 40
0.0
 40
0.0
 40
1.0
 40
1.0
 40
1.0
 40
2.0
 40
2.0
 40
2.0
 40
3.0
 40
3.0
 40
3.0
 40
4.0
 40
4.0
 40
4.0
 40
4.0
 10
50.95643120693489
 20
51.57340792757082
 30
0.0
 10
50.68127928920911
 20
51.57340792757082
 30
0.0
 10
50.45551347510894
 20
51.79564539388623
 30
0.0
 10
50.45551347510894
 20
52.07432565939709
 30
0.0
 10
50.45551347510894
 20
52.35300592490762
 30
0.0
 10
50.67775363276499
 20
52.57524339122271
 30
0.0
 10
50.95643120693489
 20
52.57524339122271
 30
0.0
 10
51.23510878110479
 20
52.57524339122271
 30
0.0
 10
51.45734893876085
 20
52.35300592490762
 30
0.0
 10
51.45734893876085
 20
52.07432565939709
 30
0.0
 10
51.45734893876085
 20
51.79564539388623
 30
0.0
 10
51.23510878110479
 20
51.57340792757082
 30
0.0
 10
50.95643120693489
 20
51.57340792757082
 30
0.0
  0
SPLINE
  5
8E
330
79
100
AcDbEntity
  8
Ebene 1
 62
     5
420
      255
370
     9
100
AcDbSpline
210
0.0
220
0.0
230
1.0
 70
     9
 71
     3
 72
    17
 73
    13
 74
     0
 42
0.0000000001
 43
0.0000000001
 40
0.0
 40
0.0
 40
0.0
 40
0.0
 40
1.0
 40
1.0
 40
1.0
 40
2.0
 40
2.0
 40
2.0
 40
3.0
 40
3.0
 40
3.0
 40
4.0
 40
4.0
 40
4.0
 40
4.0
 10
50.95643120693489
 20
49.57326265671145
 30
0.0
 10
50.68127928920911
 20
49.57326265671145
 30
0.0
 10
50.45551347510894
 20
49.79550012302655
 30
0.0
 10
50.45551347510894
 20
50.07418038853709
 30
0.0
 10
50.45551347510894
 20
50.35286065404793
 30
0.0
 10
50.67775363276499
 20
50.57509812036336
 30
0.0
 10
50.95643120693489
 20
50.57509812036336
 30
0.0
 10
51.23510878110479
 20
50.57509812036336
 30
0.0
 10
51.45734893876085
 20
50.35286065404793
 30
0.0
 10
51.45734893876085
 20
50.07418038853709
 30
0.0
 10
51.45734893876085
 20
49.79550012302655
 30
0.0
 10
51.23510878110479
 20
49.57326265671145
 30
0.0
 10
50.95643120693489
 20
49.57326265671145
 30
0.0
  0
SPLINE
  5
8F
330
79
100
AcDbEntity
  8
Ebene 1
 62
     5
420
      255
370
     9
100
AcDbSpline
210
0.0
220
0.0
230
1.0
 70
     9
 71
     3
 72
    17
 73
    13
 74
     0
 42
0.0000000001
 43
0.0000000001
 40
0.0
 40
0.0
 40
0.0
 40
0.0
 40
1.0
 40
1.0
 40
1.0
 40
2.0
 40
2.0
 40
2.0
 40
3.0
 40
3.0
 40
3.0
 40
4.0
 40
4.0
 40
4.0
 40
4.0
 10
50.95643120693489
 20
47.57311738585145
 30
0.0
 10
50.68127928920911
 20
47.57311738585145
 30
0.0
 10
50.45551347510894
 20
47.79535485216686
 30
0.0
 10
50.45551347510894
 20
48.07403511767772
 30
0.0
 10
50.45551347510894
 20
48.35271538318826
 30
0.0
 10
50.67775363276499
 20
48.57495284950335
 30
0.0
 10
50.95643120693489
 20
48.57495284950335
 30
0.0
 10
51.23510878110479
 20
48.57495284950335
 30
0.0
 10
51.45734893876085
 20
48.35271538318826
 30
0.0
 10
51.45734893876085
 20
48.07403511767772
 30
0.0
 10
51.45734893876085
 20
47.79535485216686
 30
0.0
 10
51.23510878110479
 20
47.57311738585145
 30
0.0
 10
50.95643120693489
 20
47.57311738585145
 30
0.0
  0
SPLINE
  5
90
330
79
100
AcDbEntity
  8
Ebene 1
 62
     5
420
      255
370
     9
100
AcDbSpline
210
0.0
220
0.0
230
1.0
 70
     9
 71
     3
 72
    17
 73
    13
 74
     0
 42
0.0000000001
 43
0.0000000001
 40
0.0
 40
0.0
 40
0.0
 40
0.0
 40
1.0
 40
1.0
 40
1.0
 40
2.0
 40
2.0
 40
2.0
 40
3.0
 40
3.0
 40
3.0
 40
4.0
 40
4.0
 40
4.0
 40
4.0
 10
48.95628593607521
 20
55.57370116063114
 30
0.0
 10
48.68113401834943
 20
55.57370116063114
 30
0.0
 10
48.45536820424926
 20
55.79593862694623
 30
0.0
 10
48.45536820424926
 20
56.07461889245708
 30
0.0
 10
48.45536820424926
 20
56.35329915796794
 30
0.0
 10
48.67760836190531
 20
56.57553662428303
 30
0.0
 10
48.95628593607521
 20
56.57553662428303
 30
0.0
 10
49.2349635102451
 20
56.57553662428303
 30
0.0
 10
49.45720366790116
 20
56.35329915796794
 30
0.0
 10
49.45720366790116
 20
56.07461889245708
 30
0.0
 10
49.45720366790116
 20
55.79593862694623
 30
0.0
 10
49.2349635102451
 20
55.57370116063114
 30
0.0
 10
48.95628593607521
 20
55.57370116063114
 30
0.0
  0
SPLINE
  5
91
330
79
100
AcDbEntity
  8
Ebene 1
 62
     5
420
      255
370
     9
100
AcDbSpline
210
0.0
220
0.0
230
1.0
 70
     9
 71
     3
 72
    17
 73
    13
 74
     0
 42
0.0000000001
 43
0.0000000001
 40
0.0
 40
0.0
 40
0.0
 40
0.0
 40
1.0
 40
1.0
 40
1.0
 40
2.0
 40
2.0
 40
2.0
 40
3.0
 40
3.0
 40
3.0
 40
4.0
 40
4.0
 40
4.0
 40
4.0
 10
48.95628593607521
 20
53.57355588977146
 30
0.0
 10
48.68113401834943
 20
53.57355588977146
 30
0.0
 10
48.45536820424926
 20
53.79579335608687
 30
0.0
 10
48.45536820424926
 20
54.0744736215974
 30
0.0
 10
48.45536820424926
 20
54.35315388710794
 30
0.0
 10
48.67760836190531
 20
54.57539135342336
 30
0.0
 10
48.95628593607521
 20
54.57539135342336
 30
0.0
 10
49.2349635102451
 20
54.57539135342336
 30
0.0
 10
49.45720366790116
 20
54.35315388710794
 30
0.0
 10
49.45720366790116
 20
54.0744736215974
 30
0.0
 10
49.45720366790116
 20
53.79579335608687
 30
0.0
 10
49.2349635102451
 20
53.57355588977146
 30
0.0
 10
48.95628593607521
 20
53.57355588977146
 30
0.0
  0
SPLINE
  5
92
330
79
100
AcDbEntity
  8
Ebene 1
 62
     5
420
      255
370
     9
100
AcDbSpline
210
0.0
220
0.0
230
1.0
 70
     9
 71
     3
 72
    17
 73
    13
 74
     0
 42
0.0000000001
 43
0.0000000001
 40
0.0
 40
0.0
 40
0.0
 40
0.0
 40
1.0
 40
1.0
 40
1.0
 40
2.0
 40
2.0
 40
2.0
 40
3.0
 40
3.0
 40
3.0
 40
4.0
 40
4.0
 40
4.0
 40
4.0
 10
48.95628593607521
 20
51.57341061891177
 30
0.0
 10
48.68113401834943
 20
51.57341061891177
 30
0.0
 10
48.45536820424926
 20
51.79564808522687
 30
0.0
 10
48.45536820424926
 20
52.07432835073772
 30
0.0
 10
48.45536820424926
 20
52.35300861624858
 30
0.0
 10
48.67760836190531
 20
52.57524608256368
 30
0.0
 10
48.95628593607521
 20
52.57524608256368
 30
0.0
 10
49.2349635102451
 20
52.57524608256368
 30
0.0
 10
49.45720366790116
 20
52.35300861624858
 30
0.0
 10
49.45720366790116
 20
52.07432835073772
 30
0.0
 10
49.45720366790116
 20
51.79564808522687
 30
0.0
 10
49.2349635102451
 20
51.57341061891177
 30
0.0
 10
48.95628593607521
 20
51.57341061891177
 30
0.0
  0
SPLINE
  5
93
330
79
100
AcDbEntity
  8
Ebene 1
 62
     5
420
      255
370
     9
100
AcDbSpline
210
0.0
220
0.0
230
1.0
 70
     9
 71
     3
 72
    17
 73
    13
 74
     0
 42
0.0000000001
 43
0.0000000001
 40
0.0
 40
0.0
 40
0.0
 40
0.0
 40
1.0
 40
1.0
 40
1.0
 40
2.0
 40
2.0
 40
2.0
 40
3.0
 40
3.0
 40
3.0
 40
4.0
 40
4.0
 40
4.0
 40
4.0
 10
48.95628593607521
 20
49.5732653480521
 30
0.0
 10
48.68113401834943
 20
49.5732653480521
 30
0.0
 10
48.45536820424926
 20
49.7955028143675
 30
0.0
 10
48.45536820424926
 20
50.07418307987804
 30
0.0
 10
48.45536820424926
 20
50.35286334538858
 30
0.0
 10
48.67760836190531
 20
50.57510081170399
 30
0.0
 10
48.95628593607521
 20
50.57510081170399
 30
0.0
 10
49.2349635102451
 20
50.57510081170399
 30
0.0
 10
49.45720366790116
 20
50.35286334538858
 30
0.0
 10
49.45720366790116
 20
50.07418307987804
 30
0.0
 10
49.45720366790116
 20
49.7955028143675
 30
0.0
 10
49.2349635102451
 20
49.5732653480521
 30
0.0
 10
48.95628593607521
 20
49.5732653480521
 30
0.0
  0
SPLINE
  5
94
330
79
100
AcDbEntity
  8
Ebene 1
 62
     5
420
      255
370
     9
100
AcDbSpline
210
0.0
220
0.0
230
1.0
 70
     9
 71
     3
 72
    17
 73
    13
 74
     0
 42
0.0000000001
 43
0.0000000001
 40
0.0
 40
0.0
 40
0.0
 40
0.0
 40
1.0
 40
1.0
 40
1.0
 40
2.0
 40
2.0
 40
2.0
 40
3.0
 40
3.0
 40
3.0
 40
4.0
 40
4.0
 40
4.0
 40
4.0
 10
48.95628593607521
 20
47.57312007719241
 30
0.0
 10
48.68113401834943
 20
47.57312007719241
 30
0.0
 10
48.45536820424926
 20
47.7953575435075
 30
0.0
 10
48.45536820424926
 20
48.07403780901836
 30
0.0
 10
48.45536820424926
 20
48.35271807452921
 30
0.0
 10
48.67760836190531
 20
48.57495554084431
 30
0.0
 10
48.95628593607521
 20
48.57495554084431
 30
0.0
 10
49.2349635102451
 20
48.57495554084431
 30
0.0
 10
49.45720366790116
 20
48.35271807452921
 30
0.0
 10
49.45720366790116
 20
48.07403780901836
 30
0.0
 10
49.45720366790116
 20
47.7953575435075
 30
0.0
 10
49.2349635102451
 20
47.57312007719241
 30
0.0
 10
48.95628593607521
 20
47.57312007719241
 30
0.0
  0
SPLINE
  5
95
330
79
100
AcDbEntity
  8
Ebene 1
 62
     5
420
      255
370
     9
100
AcDbSpline
210
0.0
220
0.0
230
1.0
 70
     9
 71
     3
 72
    17
 73
    13
 74
     0
 42
0.0000000001
 43
0.0000000001
 40
0.0
 40
0.0
 40
0.0
 40
0.0
 40
1.0
 40
1.0
 40
1.0
 40
2.0
 40
2.0
 40
2.0
 40
3.0
 40
3.0
 40
3.0
 40
4.0
 40
4.0
 40
4.0
 40
4.0
 10
46.95614066521552
 20
55.57370385197209
 30
0.0
 10
46.68098874748975
 20
55.57370385197209
 30
0.0
 10
46.45522293338958
 20
55.79594131828718
 30
0.0
 10
46.45522293338958
 20
56.07462158379772
 30
0.0
 10
46.45522293338958
 20
56.35330184930857
 30
0.0
 10
46.67746309104563
 20
56.57553931562399
 30
0.0
 10
46.95614066521552
 20
56.57553931562399
 30
0.0
 10
47.23481823938542
 20
56.57553931562399
 30
0.0
 10
47.45705839704148
 20
56.35330184930857
 30
0.0
 10
47.45705839704148
 20
56.07462158379772
 30
0.0
 10
47.45705839704148
 20
55.79594131828718
 30
0.0
 10
47.23481823938542
 20
55.57370385197209
 30
0.0
 10
46.95614066521552
 20
55.57370385197209
 30
0.0
  0
SPLINE
  5
96
330
79
100
AcDbEntity
  8
Ebene 1
 62
     5
420
      255
370
     9
100
AcDbSpline
210
0.0
220
0.0
230
1.0
 70
     9
 71
     3
 72
    17
 73
    13
 74
     0
 42
0.0000000001
 43
0.0000000001
 40
0.0
 40
0.0
 40
0.0
 40
0.0
 40
1.0
 40
1.0
 40
1.0
 40
2.0
 40
2.0
 40
2.0
 40
3.0
 40
3.0
 40
3.0
 40
4.0
 40
4.0
 40
4.0
 40
4.0
 10
46.95614066521552
 20
53.57355858111208
 30
0.0
 10
46.68098874748975
 20
53.57355858111208
 30
0.0
 10
46.45522293338958
 20
53.79579604742751
 30
0.0
 10
46.45522293338958
 20
54.07447631293836
 30
0.0
 10
46.45522293338958
 20
54.35315657844889
 30
0.0
 10
46.67746309104563
 20
54.57539404476399
 30
0.0
 10
46.95614066521552
 20
54.57539404476399
 30
0.0
 10
47.23481823938542
 20
54.57539404476399
 30
0.0
 10
47.45705839704148
 20
54.35315657844889
 30
0.0
 10
47.45705839704148
 20
54.07447631293836
 30
0.0
 10
47.45705839704148
 20
53.79579604742751
 30
0.0
 10
47.23481823938542
 20
53.57355858111208
 30
0.0
 10
46.95614066521552
 20
53.57355858111208
 30
0.0
  0
SPLINE
  5
97
330
79
100
AcDbEntity
  8
Ebene 1
 62
     5
420
      255
370
     9
100
AcDbSpline
210
0.0
220
0.0
230
1.0
 70
     9
 71
     3
 72
    17
 73
    13
 74
     0
 42
0.0000000001
 43
0.0000000001
 40
0.0
 40
0.0
 40
0.0
 40
0.0
 40
1.0
 40
1.0
 40
1.0
 40
2.0
 40
2.0
 40
2.0
 40
3.0
 40
3.0
 40
3.0
 40
4.0
 40
4.0
 40
4.0
 40
4.0
 10
46.95614066521552
 20
51.57341331025273
 30
0.0
 10
46.68098874748975
 20
51.57341331025273
 30
0.0
 10
46.45522293338958
 20
51.79565077656782
 30
0.0
 10
46.45522293338958
 20
52.07433104207837
 30
0.0
 10
46.45522293338958
 20
52.35301130758921
 30
0.0
 10
46.67746309104563
 20
52.57524877390463
 30
0.0
 10
46.95614066521552
 20
52.57524877390463
 30
0.0
 10
47.23481823938542
 20
52.57524877390463
 30
0.0
 10
47.45705839704148
 20
52.35301130758921
 30
0.0
 10
47.45705839704148
 20
52.07433104207837
 30
0.0
 10
47.45705839704148
 20
51.79565077656782
 30
0.0
 10
47.23481823938542
 20
51.57341331025273
 30
0.0
 10
46.95614066521552
 20
51.57341331025273
 30
0.0
  0
SPLINE
  5
98
330
79
100
AcDbEntity
  8
Ebene 1
 62
     5
420
      255
370
     9
100
AcDbSpline
210
0.0
220
0.0
230
1.0
 70
     9
 71
     3
 72
    17
 73
    13
 74
     0
 42
0.0000000001
 43
0.0000000001
 40
0.0
 40
0.0
 40
0.0
 40
0.0
 40
1.0
 40
1.0
 40
1.0
 40
2.0
 40
2.0
 40
2.0
 40
3.0
 40
3.0
 40
3.0
 40
4.0
 40
4.0
 40
4.0
 40
4.0
 10
46.95614066521552
 20
49.57326803939273
 30
0.0
 10
46.68098874748975
 20
49.57326803939273
 30
0.0
 10
46.45522293338958
 20
49.79550550570814
 30
0.0
 10
46.45522293338958
 20
50.07418577121899
 30
0.0
 10
46.45522293338958
 20
50.35286603672954
 30
0.0
 10
46.67746309104563
 20
50.57510350304463
 30
0.0
 10
46.95614066521552
 20
50.57510350304463
 30
0.0
 10
47.23481823938542
 20
50.57510350304463
 30
0.0
 10
47.45705839704148
 20
50.35286603672954
 30
0.0
 10
47.45705839704148
 20
50.07418577121899
 30
0.0
 10
47.45705839704148
 20
49.79550550570814
 30
0.0
 10
47.23481823938542
 20
49.57326803939273
 30
0.0
 10
46.95614066521552
 20
49.57326803939273
 30
0.0
  0
SPLINE
  5
99
330
79
100
AcDbEntity
  8
Ebene 1
 62
     5
420
      255
370
     9
100
AcDbSpline
210
0.0
220
0.0
230
1.0
 70
     9
 71
     3
 72
    17
 73
    13
 74
     0
 42
0.0000000001
 43
0.0000000001
 40
0.0
 40
0.0
 40
0.0
 40
0.0
 40
1.0
 40
1.0
 40
1.0
 40
2.0
 40
2.0
 40
2.0
 40
3.0
 40
3.0
 40
3.0
 40
4.0
 40
4.0
 40
4.0
 40
4.0
 10
46.95614066521552
 20
47.57312276853336
 30
0.0
 10
46.68098874748975
 20
47.57312276853336
 30
0.0
 10
46.45522293338958
 20
47.79536023484847
 30
0.0
 10
46.45522293338958
 20
48.07404050035899
 30
0.0
 10
46.45522293338958
 20
48.35272076586985
 30
0.0
 10
46.67746309104563
 20
48.57495823218527
 30
0.0
 10
46.95614066521552
 20
48.57495823218527
 30
0.0
 10
47.23481823938542
 20
48.57495823218527
 30
0.0
 10
47.45705839704148
 20
48.35272076586985
 30
0.0
 10
47.45705839704148
 20
48.07404050035899
 30
0.0
 10
47.45705839704148
 20
47.79536023484847
 30
0.0
 10
47.23481823938542
 20
47.57312276853336
 30
0.0
 10
46.95614066521552
 20
47.57312276853336
 30
0.0
  0
SPLINE
  5
9A
330
79
100
AcDbEntity
  8
Ebene 1
 62
     5
420
      255
370
     9
100
AcDbSpline
210
0.0
220
0.0
230
1.0
 70
     9
 71
     3
 72
    17
 73
    13
 74
     0
 42
0.0000000001
 43
0.0000000001
 40
0.0
 40
0.0
 40
0.0
 40
0.0
 40
1.0
 40
1.0
 40
1.0
 40
2.0
 40
2.0
 40
2.0
 40
3.0
 40
3.0
 40
3.0
 40
4.0
 40
4.0
 40
4.0
 40
4.0
 10
44.95599539435585
 20
55.57370654331273
 30
0.0
 10
44.68084347663006
 20
55.57370654331273
 30
0.0
 10
44.4550776625299
 20
55.79594400962815
 30
0.0
 10
44.4550776625299
 20
56.07462427513868
 30
0.0
 10
44.4550776625299
 20
56.35330454064921
 30
0.0
 10
44.67731512884531
 20
56.57554200696463
 30
0.0
 10
44.95599539435585
 20
56.57554200696463
 30
0.0
 10
45.23467835120734
 20
56.57554200696463
 30
0.0
 10
45.45691312618179
 20
56.35330454064921
 30
0.0
 10
45.45691312618179
 20
56.07462427513868
 30
0.0
 10
45.45691312618179
 20
55.79594400962815
 30
0.0
 10
45.23467296852575
 20
55.57370654331273
 30
0.0
 10
44.95599539435585
 20
55.57370654331273
 30
0.0
  0
SPLINE
  5
9B
330
79
100
AcDbEntity
  8
Ebene 1
 62
     5
420
      255
370
     9
100
AcDbSpline
210
0.0
220
0.0
230
1.0
 70
     9
 71
     3
 72
    17
 73
    13
 74
     0
 42
0.0000000001
 43
0.0000000001
 40
0.0
 40
0.0
 40
0.0
 40
0.0
 40
1.0
 40
1.0
 40
1.0
 40
2.0
 40
2.0
 40
2.0
 40
3.0
 40
3.0
 40
3.0
 40
4.0
 40
4.0
 40
4.0
 40
4.0
 10
44.95599539435585
 20
53.57356127245305
 30
0.0
 10
44.68084347663006
 20
53.57356127245305
 30
0.0
 10
44.4550776625299
 20
53.79579873876814
 30
0.0
 10
44.4550776625299
 20
54.074479004279
 30
0.0
 10
44.4550776625299
 20
54.35315926978986
 30
0.0
 10
44.67731512884531
 20
54.57539673610495
 30
0.0
 10
44.95599539435585
 20
54.57539673610495
 30
0.0
 10
45.23467835120734
 20
54.57539673610495
 30
0.0
 10
45.45691312618179
 20
54.35315926978986
 30
0.0
 10
45.45691312618179
 20
54.074479004279
 30
0.0
 10
45.45691312618179
 20
53.79579873876814
 30
0.0
 10
45.23467296852575
 20
53.57356127245305
 30
0.0
 10
44.95599539435585
 20
53.57356127245305
 30
0.0
  0
SPLINE
  5
9C
330
79
100
AcDbEntity
  8
Ebene 1
 62
     5
420
      255
370
     9
100
AcDbSpline
210
0.0
220
0.0
230
1.0
 70
     9
 71
     3
 72
    17
 73
    13
 74
     0
 42
0.0000000001
 43
0.0000000001
 40
0.0
 40
0.0
 40
0.0
 40
0.0
 40
1.0
 40
1.0
 40
1.0
 40
2.0
 40
2.0
 40
2.0
 40
3.0
 40
3.0
 40
3.0
 40
4.0
 40
4.0
 40
4.0
 40
4.0
 10
44.95599539435585
 20
51.57341600159337
 30
0.0
 10
44.68084347663006
 20
51.57341600159337
 30
0.0
 10
44.4550776625299
 20
51.79565346790878
 30
0.0
 10
44.4550776625299
 20
52.07433373341931
 30
0.0
 10
44.4550776625299
 20
52.35301399892986
 30
0.0
 10
44.67731512884531
 20
52.57525146524526
 30
0.0
 10
44.95599539435585
 20
52.57525146524526
 30
0.0
 10
45.23467835120734
 20
52.57525146524526
 30
0.0
 10
45.45691312618179
 20
52.35301399892986
 30
0.0
 10
45.45691312618179
 20
52.07433373341931
 30
0.0
 10
45.45691312618179
 20
51.79565346790878
 30
0.0
 10
45.23467296852575
 20
51.57341600159337
 30
0.0
 10
44.95599539435585
 20
51.57341600159337
 30
0.0
  0
SPLINE
  5
9D
330
79
100
AcDbEntity
  8
Ebene 1
 62
     5
420
      255
370
     9
100
AcDbSpline
210
0.0
220
0.0
230
1.0
 70
     9
 71
     3
 72
    17
 73
    13
 74
     0
 42
0.0000000001
 43
0.0000000001
 40
0.0
 40
0.0
 40
0.0
 40
0.0
 40
1.0
 40
1.0
 40
1.0
 40
2.0
 40
2.0
 40
2.0
 40
3.0
 40
3.0
 40
3.0
 40
4.0
 40
4.0
 40
4.0
 40
4.0
 10
44.95599539435585
 20
49.57327073073368
 30
0.0
 10
44.68084347663006
 20
49.57327073073368
 30
0.0
 10
44.4550776625299
 20
49.79550819704878
 30
0.0
 10
44.4550776625299
 20
50.07418846255964
 30
0.0
 10
44.4550776625299
 20
50.35286872807049
 30
0.0
 10
44.67731512884531
 20
50.57510619438558
 30
0.0
 10
44.95599539435585
 20
50.57510619438558
 30
0.0
 10
45.23467835120734
 20
50.57510619438558
 30
0.0
 10
45.45691312618179
 20
50.35286872807049
 30
0.0
 10
45.45691312618179
 20
50.07418846255964
 30
0.0
 10
45.45691312618179
 20
49.79550819704878
 30
0.0
 10
45.23467296852575
 20
49.57327073073368
 30
0.0
 10
44.95599539435585
 20
49.57327073073368
 30
0.0
  0
SPLINE
  5
9E
330
79
100
AcDbEntity
  8
Ebene 1
 62
     5
420
      255
370
     9
100
AcDbSpline
210
0.0
220
0.0
230
1.0
 70
     9
 71
     3
 72
    17
 73
    13
 74
     0
 42
0.0000000001
 43
0.0000000001
 40
0.0
 40
0.0
 40
0.0
 40
0.0
 40
1.0
 40
1.0
 40
1.0
 40
2.0
 40
2.0
 40
2.0
 40
3.0
 40
3.0
 40
3.0
 40
4.0
 40
4.0
 40
4.0
 40
4.0
 10
44.95599539435585
 20
47.573125459874
 30
0.0
 10
44.68084347663006
 20
47.573125459874
 30
0.0
 10
44.4550776625299
 20
47.79536292618941
 30
0.0
 10
44.4550776625299
 20
48.07404319169996
 30
0.0
 10
44.4550776625299
 20
48.35272345721048
 30
0.0
 10
44.67731512884531
 20
48.5749609235259
 30
0.0
 10
44.95599539435585
 20
48.5749609235259
 30
0.0
 10
45.23467835120734
 20
48.5749609235259
 30
0.0
 10
45.45691312618179
 20
48.35272345721048
 30
0.0
 10
45.45691312618179
 20
48.07404319169996
 30
0.0
 10
45.45691312618179
 20
47.79536292618941
 30
0.0
 10
45.23467296852575
 20
47.573125459874
 30
0.0
 10
44.95599539435585
 20
47.573125459874
 30
0.0
  0
SPLINE
  5
9F
330
79
100
AcDbEntity
  8
Ebene 1
 62
     5
420
      255
370
     9
100
AcDbSpline
210
0.0
220
0.0
230
1.0
 70
    11
 71
     3
 72
    44
 73
    40
 74
     0
 42
0.0000000001
 43
0.0000000001
 40
0.0
 40
0.0
 40
0.0
 40
0.0
 40
1.0
 40
1.0
 40
1.0
 40
2.0
 40
2.0
 40
2.0
 40
3.0
 40
3.0
 40
3.0
 40
4.0
 40
4.0
 40
4.0
 40
5.0
 40
5.0
 40
5.0
 40
6.0
 40
6.0
 40
6.0
 40
7.0
 40
7.0
 40
7.0
 40
8.0
 40
8.0
 40
8.0
 40
9.0
 40
9.0
 40
9.0
 40
10.0
 40
10.0
 40
10.0
 40
11.0
 40
11.0
 40
11.0
 40
12.0
 40
12.0
 40
12.0
 40
13.0
 40
13.0
 40
13.0
 40
13.0
 10
55.91975884337608
 20
51.25240632802673
 30
0.0
 10
55.91975884337608
 20
51.25240632802673
 30
0.0
 10
56.54061348648114
 20
60.12783195960937
 30
0.0
 10
56.54061348648114
 20
60.12783195960937
 30
0.0
 10
56.54061348648114
 20
60.12783195960937
 30
0.0
 10
39.38592112326766
 20
60.12783195960937
 30
0.0
 10
39.38592112326766
 20
60.12783195960937
 30
0.0
 10
39.38592112326766
 20
60.12783195960937
 30
0.0
 10
39.38592112326766
 20
50.18001736538069
 30
0.0
 10
39.38592112326766
 20
50.18001736538069
 30
0.0
 10
39.38592112326766
 20
50.18001736538069
 30
0.0
 10
41.63299960359636
 20
50.18001736538069
 30
0.0
 10
41.63299960359636
 20
50.18001736538069
 30
0.0
 10
42.02103442837206
 20
50.18001736538069
 30
0.0
 10
42.33499009770951
 20
49.86606169604324
 30
0.0
 10
42.33499009770951
 20
49.47802687126721
 30
0.0
 10
42.33499009770951
 20
49.47802687126721
 30
0.0
 10
42.35968314952248
 20
42.97667063552126
 30
0.0
 10
42.35968314952248
 20
42.97667063552126
 30
0.0
 10
42.35968314952248
 20
42.97667063552126
 30
0.0
 10
58.33968330371266
 20
42.97667063552126
 30
0.0
 10
58.33968330371266
 20
42.97667063552126
 30
0.0
 10
58.33968330371266
 20
42.97667063552126
 30
0.0
 10
73.4307309013012
 20
41.91839237267393
 30
0.0
 10
73.4307309013012
 20
41.91839237267393
 30
0.0
 10
73.4307309013012
 20
41.91839237267393
 30
0.0
 10
74.76063542543021
 20
49.23462200958327
 30
0.0
 10
74.76063542543021
 20
49.23462200958327
 30
0.0
 10
74.76063542543021
 20
49.23462200958327
 30
0.0
 10
56.56530384695315
 20
50.50808373451715
 30
0.0
 10
56.56530384695315
 20
50.50808373451715
 30
0.0
 10
56.18079736996221
 20
50.53630513411455
 30
0.0
 10
55.88800640465265
 20
50.87142550748022
 30
0.0
 10
55.91622780425037
 20
51.2559346758118
 30
0.0
 10
55.91622780425037
 20
51.2559346758118
 30
0.0
 10
55.91975346069449
 20
51.2559346758118
 30
0.0
 10
55.91975346069449
 20
51.2559346758118
 30
0.0
 10
55.91975346069449
 20
51.2559346758118
 30
0.0
 10
55.91975884337608
 20
51.25240632802673
 30
0.0
 10
55.91975884337608
 20
51.25240632802673
 30
0.0
  0
SPLINE
  5
A0
330
79
100
AcDbEntity
  8
Ebene 1
 62
     5
420
      255
370
     9
100
AcDbSpline
210
0.0
220
0.0
230
1.0
 70
     9
 71
     3
 72
    20
 73
    16
 74
     0
 42
0.0000000001
 43
0.0000000001
 40
0.0
 40
0.0
 40
0.0
 40
0.0
 40
1.0
 40
1.0
 40
1.0
 40
2.0
 40
2.0
 40
2.0
 40
3.0
 40
3.0
 40
3.0
 40
4.0
 40
4.0
 40
4.0
 40
5.0
 40
5.0
 40
5.0
 40
5.0
 10
180.0910804001455
 20
61.13319846238697
 30
0.0
 10
180.0910804001455
 20
61.71172369743626
 30
0.0
 10
180.560245693248
 20
62.18442272100544
 30
0.0
 10
181.1422965847414
 20
62.18442272100544
 30
0.0
 10
181.724358241598
 20
62.18442272100544
 30
0.0
 10
182.1935127693373
 20
61.71525204522101
 30
0.0
 10
182.1935127693373
 20
61.13319846238697
 30
0.0
 10
182.1935127693373
 20
60.55114487955293
 30
0.0
 10
181.7243367108716
 20
60.0819742037685
 30
0.0
 10
181.1422965847414
 20
60.0819742037685
 30
0.0
 10
180.5602564586112
 20
60.0819742037685
 30
0.0
 10
180.0910696347823
 20
60.55114487955293
 30
0.0
 10
180.0910696347823
 20
61.13319846238697
 30
0.0
 10
180.0910696347823
 20
61.13319846238697
 30
0.0
 10
180.0910804001455
 20
61.13319846238697
 30
0.0
 10
180.0910804001455
 20
61.13319846238697
 30
0.0
  0
SPLINE
  5
A1
330
79
100
AcDbEntity
  8
Ebene 1
 62
     5
420
      255
370
     9
100
AcDbSpline
210
0.0
220
0.0
230
1.0
 70
     9
 71
     3
 72
    17
 73
    13
 74
     0
 42
0.0000000001
 43
0.0000000001
 40
0.0
 40
0.0
 40
0.0
 40
0.0
 40
1.0
 40
1.0
 40
1.0
 40
2.0
 40
2.0
 40
2.0
 40
3.0
 40
3.0
 40
3.0
 40
4.0
 40
4.0
 40
4.0
 40
4.0
 10
181.0999671766857
 20
75.97378719406269
 30
0.0
 10
181.0999671766857
 20
76.55231242911165
 30
0.0
 10
181.5691432351514
 20
77.02501010701036
 30
0.0
 10
182.1511833612816
 20
77.02501010701036
 30
0.0
 10
182.7332234874118
 20
77.02501010701036
 30
0.0
 10
183.2023995458775
 20
76.55583943122626
 30
0.0
 10
183.2023995458775
 20
75.97378719406269
 30
0.0
 10
183.2023995458775
 20
75.39173495689881
 30
0.0
 10
182.7332234874118
 20
74.9225642811147
 30
0.0
 10
182.1511833612816
 20
74.9225642811147
 30
0.0
 10
181.5691432351514
 20
74.9225642811147
 30
0.0
 10
181.0999671766857
 20
75.39173495689881
 30
0.0
 10
181.0999671766857
 20
75.97378719406269
 30
0.0
  0
SPLINE
  5
A2
330
79
100
AcDbEntity
  8
Ebene 1
 62
     5
420
      255
370
     9
100
AcDbSpline
210
0.0
220
0.0
230
1.0
 70
    11
 71
     3
 72
    44
 73
    40
 74
     0
 42
0.0000000001
 43
0.0000000001
 40
0.0
 40
0.0
 40
0.0
 40
0.0
 40
1.0
 40
1.0
 40
1.0
 40
2.0
 40
2.0
 40
2.0
 40
3.0
 40
3.0
 40
3.0
 40
4.0
 40
4.0
 40
4.0
 40
5.0
 40
5.0
 40
5.0
 40
6.0
 40
6.0
 40
6.0
 40
7.0
 40
7.0
 40
7.0
 40
8.0
 40
8.0
 40
8.0
 40
9.0
 40
9.0
 40
9.0
 40
10.0
 40
10.0
 40
10.0
 40
11.0
 40
11.0
 40
11.0
 40
12.0
 40
12.0
 40
12.0
 40
13.0
 40
13.0
 40
13.0
 40
13.0
 10
184.7510185712184
 20
40.46855093726613
 30
0.0
 10
184.7510185712184
 20
40.46855093726613
 30
0.0
 10
184.7510185712184
 20
80.47499681327817
 30
0.0
 10
184.7510185712184
 20
80.47499681327817
 30
0.0
 10
184.7510185712184
 20
80.47499681327817
 30
0.0
 10
179.1562593223398
 20
80.4855791652921
 30
0.0
 10
179.1562593223398
 20
80.4855791652921
 30
0.0
 10
179.1562593223398
 20
80.4855791652921
 30
0.0
 10
177.6323360401525
 20
58.67799052420124
 30
0.0
 10
177.6323360401525
 20
58.67799052420124
 30
0.0
 10
177.6041200232363
 20
58.29348404721029
 30
0.0
 10
177.2725253063151
 20
58.00069308190074
 30
0.0
 10
176.8844877901984
 20
58.02891448149846
 30
0.0
 10
176.8844877901984
 20
58.02891448149846
 30
0.0
 10
149.0517716303861
 20
59.95498059691988
 30
0.0
 10
149.0517716303861
 20
59.95498059691988
 30
0.0
 10
148.3286191235857
 20
60.00436670054518
 30
0.0
 10
148.2016201340551
 20
58.94608843769783
 30
0.0
 10
148.9141902888416
 20
58.82262317863396
 30
0.0
 10
148.9141902888416
 20
58.82262317863396
 30
0.0
 10
164.8201112875935
 20
56.0322948670829
 30
0.0
 10
164.8201112875935
 20
56.0322948670829
 30
0.0
 10
165.2010867254588
 20
55.96526971587351
 30
0.0
 10
165.4550739391567
 20
55.60192794291045
 30
0.0
 10
165.3880487879473
 20
55.22094712236362
 30
0.0
 10
165.3880487879473
 20
55.22094712236362
 30
0.0
 10
162.6647456276056
 20
39.76655775181234
 30
0.0
 10
162.6647456276056
 20
39.76655775181234
 30
0.0
 10
162.6647456276056
 20
39.76655775181234
 30
0.0
 10
184.0525402768452
 20
39.76655775181234
 30
0.0
 10
184.0525402768452
 20
39.76655775181234
 30
0.0
 10
184.4405670275987
 20
39.76655775181234
 30
0.0
 10
184.750997040492
 20
40.08051342114947
 30
0.0
 10
184.750997040492
 20
40.46501989814042
 30
0.0
 10
184.750997040492
 20
40.46501989814042
 30
0.0
 10
184.750997040492
 20
40.46501989814042
 30
0.0
 10
184.750997040492
 20
40.46501989814042
 30
0.0
 10
184.750997040492
 20
40.46501989814042
 30
0.0
 10
184.7510185712184
 20
40.46855093726613
 30
0.0
 10
184.7510185712184
 20
40.46855093726613
 30
0.0
  0
SPLINE
  5
A3
330
79
100
AcDbEntity
  8
Ebene 1
 62
     5
420
      255
370
     9
100
AcDbSpline
210
0.0
220
0.0
230
1.0
 70
     9
 71
     3
 72
    20
 73
    16
 74
     0
 42
0.0000000001
 43
0.0000000001
 40
0.0
 40
0.0
 40
0.0
 40
0.0
 40
1.0
 40
1.0
 40
1.0
 40
2.0
 40
2.0
 40
2.0
 40
3.0
 40
3.0
 40
3.0
 40
4.0
 40
4.0
 40
4.0
 40
5.0
 40
5.0
 40
5.0
 40
5.0
 10
4.102929733973818
 20
36.27424163748812
 30
0.0
 10
4.102929733973818
 20
43.03663909116115
 30
0.0
 10
9.588339133433608
 20
48.52204916345617
 30
0.0
 10
16.3507379327768
 20
48.52204916345617
 30
0.0
 10
23.11313807779014
 20
48.52204916345617
 30
0.0
 10
28.59854545874453
 20
43.03663909116115
 30
0.0
 10
28.59854545874453
 20
36.27424163748812
 30
0.0
 10
28.59854545874453
 20
29.51184418381573
 30
0.0
 10
23.11666373423426
 20
24.02643411152102
 30
0.0
 10
16.3507379327768
 20
24.02643411152102
 30
0.0
 10
9.584812131319011
 20
24.02643411152102
 30
0.0
 10
4.102930406809058
 20
29.51184418381573
 30
0.0
 10
4.102930406809058
 20
36.27424163748812
 30
0.0
 10
4.102930406809058
 20
36.27424163748812
 30
0.0
 10
4.102930406809058
 20
36.27424163748812
 30
0.0
 10
4.102929733973818
 20
36.27424163748812
 30
0.0
  0
SPLINE
  5
A4
330
79
100
AcDbEntity
  8
Ebene 1
 62
     5
420
      255
370
     9
100
AcDbSpline
210
0.0
220
0.0
230
1.0
 70
     9
 71
     3
 72
    20
 73
    16
 74
     0
 42
0.0000000001
 43
0.0000000001
 40
0.0
 40
0.0
 40
0.0
 40
0.0
 40
1.0
 40
1.0
 40
1.0
 40
2.0
 40
2.0
 40
2.0
 40
3.0
 40
3.0
 40
3.0
 40
4.0
 40
4.0
 40
4.0
 40
5.0
 40
5.0
 40
5.0
 40
5.0
 10
1.601865217408819
 20
36.27424163748812
 30
0.0
 10
1.601865217408819
 20
28.12902789961732
 30
0.0
 10
8.205521503564398
 20
21.52537110883475
 30
0.0
 10
16.35073658710632
 20
21.52537110883475
 30
0.0
 10
24.49595167064824
 20
21.52537110883475
 30
0.0
 10
31.09960846143017
 20
28.12902789961732
 30
0.0
 10
31.09960846143017
 20
36.27424163748812
 30
0.0
 10
31.09960846143017
 20
44.4194553753602
 30
0.0
 10
24.49595167064824
 20
51.02311216614181
 30
0.0
 10
16.35073658710632
 20
51.02311216614181
 30
0.0
 10
8.205521503564398
 20
51.02311216614181
 30
0.0
 10
1.601865217408819
 20
44.4194553753602
 30
0.0
 10
1.601865217408819
 20
36.27424163748812
 30
0.0
 10
1.601865217408819
 20
36.27424163748812
 30
0.0
 10
1.601865217408819
 20
36.27424163748812
 30
0.0
 10
1.601865217408819
 20
36.27424163748812
 30
0.0
  0
SPLINE
  5
A5
330
79
100
AcDbEntity
  8
Ebene 1
 62
     5
420
      255
370
     9
100
AcDbSpline
210
0.0
220
0.0
230
1.0
 70
     9
 71
     3
 72
    17
 73
    13
 74
     0
 42
0.0000000001
 43
0.0000000001
 40
0.0
 40
0.0
 40
0.0
 40
0.0
 40
1.0
 40
1.0
 40
1.0
 40
2.0
 40
2.0
 40
2.0
 40
3.0
 40
3.0
 40
3.0
 40
4.0
 40
4.0
 40
4.0
 40
4.0
 10
45.90845013706373
 20
87.18448149762846
 30
0.0
 10
45.90845013706373
 20
87.76653440762755
 30
0.0
 10
46.37762081284784
 20
88.23570474699391
 30
0.0
 10
46.95967170434124
 20
88.23570474699391
 30
0.0
 10
47.54172259583464
 20
88.23570474699391
 30
0.0
 10
48.01089327161875
 20
87.76653474404502
 30
0.0
 10
48.01089327161875
 20
87.18448183404591
 30
0.0
 10
48.01089327161875
 20
86.6024289240471
 30
0.0
 10
47.53819693939052
 20
86.13325892109823
 30
0.0
 10
46.95967170434124
 20
86.13325892109823
 30
0.0
 10
46.38114646929196
 20
86.13325892109823
 30
0.0
 10
45.90845013706373
 20
86.6024289240471
 30
0.0
 10
45.90845013706373
 20
87.18448149762846
 30
0.0
  0
SPLINE
  5
A6
330
79
100
AcDbEntity
  8
Ebene 1
 62
     5
420
      255
370
     9
100
AcDbSpline
210
0.0
220
0.0
230
1.0
 70
     9
 71
     3
 72
    17
 73
    13
 74
     0
 42
0.0000000001
 43
0.0000000001
 40
0.0
 40
0.0
 40
0.0
 40
0.0
 40
1.0
 40
1.0
 40
1.0
 40
2.0
 40
2.0
 40
2.0
 40
3.0
 40
3.0
 40
3.0
 40
4.0
 40
4.0
 40
4.0
 40
4.0
 10
84.42624140636327
 20
29.01445749111581
 30
0.0
 10
84.42624140636327
 20
35.7768549447882
 30
0.0
 10
89.9116514786583
 20
41.2622650170829
 30
0.0
 10
96.67404893233101
 20
41.2622650170829
 30
0.0
 10
103.4364410033221
 20
41.2622650170829
 30
0.0
 10
108.9218564582987
 20
35.7768549447882
 30
0.0
 10
108.9218564582987
 20
29.01445749111581
 30
0.0
 10
108.9218564582987
 20
22.25206003744278
 30
0.0
 10
103.4399720424478
 20
16.76664996514743
 30
0.0
 10
96.67404893233101
 20
16.76664996514743
 30
0.0
 10
89.90812582221419
 20
16.76664996514743
 30
0.0
 10
84.42624140636327
 20
22.25206003744278
 30
0.0
 10
84.42624140636327
 20
29.01445749111581
 30
0.0
  0
SPLINE
  5
A7
330
79
100
AcDbEntity
  8
Ebene 1
 62
     5
420
      255
370
     9
100
AcDbSpline
210
0.0
220
0.0
230
1.0
 70
     9
 71
     3
 72
    17
 73
    13
 74
     0
 42
0.0000000001
 43
0.0000000001
 40
0.0
 40
0.0
 40
0.0
 40
0.0
 40
1.0
 40
1.0
 40
1.0
 40
2.0
 40
2.0
 40
2.0
 40
3.0
 40
3.0
 40
3.0
 40
4.0
 40
4.0
 40
4.0
 40
4.0
 10
107.9764637938423
 20
7.792449434972933
 30
0.0
 10
107.9764637938423
 20
8.374500326466973
 30
0.0
 10
108.4456290869448
 20
8.843671002250765
 30
0.0
 10
109.0276907438014
 20
8.843671002250765
 30
0.0
 10
109.6097524006579
 20
8.843671002250765
 30
0.0
 10
110.0789176937605
 20
8.374500326466973
 30
0.0
 10
110.0789176937605
 20
7.792449434972933
 30
0.0
 10
110.0789176937605
 20
7.210398543480176
 30
0.0
 10
109.6062213615323
 20
6.741227867695743
 30
0.0
 10
109.0276907438014
 20
6.741227867695743
 30
0.0
 10
108.4491601260705
 20
6.741227867695743
 30
0.0
 10
107.9764637938423
 20
7.210398543480176
 30
0.0
 10
107.9764637938423
 20
7.792449434972933
 30
0.0
  0
SPLINE
  5
A8
330
79
100
AcDbEntity
  8
Ebene 1
 62
     5
420
      255
370
     9
100
AcDbSpline
210
0.0
220
0.0
230
1.0
 70
     9
 71
     3
 72
    17
 73
    13
 74
     0
 42
0.0000000001
 43
0.0000000001
 40
0.0
 40
0.0
 40
0.0
 40
0.0
 40
1.0
 40
1.0
 40
1.0
 40
2.0
 40
2.0
 40
2.0
 40
3.0
 40
3.0
 40
3.0
 40
4.0
 40
4.0
 40
4.0
 40
4.0
 10
110.0789069283973
 20
87.21622989934076
 30
0.0
 10
110.0789069283973
 20
86.63417665292387
 30
0.0
 10
109.6097416352948
 20
86.165006649975
 30
0.0
 10
109.0276799784382
 20
86.165006649975
 30
0.0
 10
108.4456183215816
 20
86.165006649975
 30
0.0
 10
107.9764530284791
 20
86.63417665292387
 30
0.0
 10
107.9764530284791
 20
87.21622956292298
 30
0.0
 10
107.9764530284791
 20
87.7982824729221
 30
0.0
 10
108.4491493607073
 20
88.26745247587096
 30
0.0
 10
109.0276799784382
 20
88.26745247587096
 30
0.0
 10
109.6062105961691
 20
88.26745247587096
 30
0.0
 10
110.0789069283973
 20
87.7982824729221
 30
0.0
 10
110.0789069283973
 20
87.21622989934076
 30
0.0
  0
SPLINE
  5
A9
330
79
100
AcDbEntity
  8
Ebene 1
 62
     5
420
      255
370
     9
100
AcDbSpline
210
0.0
220
0.0
230
1.0
 70
    11
 71
     3
 72
    59
 73
    55
 74
     0
 42
0.0000000001
 43
0.0000000001
 40
0.0
 40
0.0
 40
0.0
 40
0.0
 40
1.0
 40
1.0
 40
1.0
 40
2.0
 40
2.0
 40
2.0
 40
3.0
 40
3.0
 40
3.0
 40
4.0
 40
4.0
 40
4.0
 40
5.0
 40
5.0
 40
5.0
 40
6.0
 40
6.0
 40
6.0
 40
7.0
 40
7.0
 40
7.0
 40
8.0
 40
8.0
 40
8.0
 40
9.0
 40
9.0
 40
9.0
 40
10.0
 40
10.0
 40
10.0
 40
11.0
 40
11.0
 40
11.0
 40
12.0
 40
12.0
 40
12.0
 40
13.0
 40
13.0
 40
13.0
 40
14.0
 40
14.0
 40
14.0
 40
15.0
 40
15.0
 40
15.0
 40
16.0
 40
16.0
 40
16.0
 40
17.0
 40
17.0
 40
17.0
 40
18.0
 40
18.0
 40
18.0
 40
18.0
 10
110.932589463854
 20
89.82312197305601
 30
0.0
 10
110.932589463854
 20
89.82312197305601
 30
0.0
 10
43.72486846015966
 20
89.82312197305601
 30
0.0
 10
43.72486846015966
 20
89.82312197305601
 30
0.0
 10
43.72486846015966
 20
89.82312197305601
 30
0.0
 10
43.71075776036096
 20
84.85274184626533
 30
0.0
 10
43.71075776036096
 20
84.85274184626533
 30
0.0
 10
43.71075776036096
 20
84.85274184626533
 30
0.0
 10
62.02955459790189
 20
84.85274184626533
 30
0.0
 10
62.02955459790189
 20
84.85274184626533
 30
0.0
 10
62.41759211401855
 20
84.85274184626533
 30
0.0
 10
62.73154778335599
 20
84.53878617692756
 30
0.0
 10
62.73154778335599
 20
84.15075067931661
 30
0.0
 10
62.73154778335599
 20
84.15075067931661
 30
0.0
 10
62.73154778335599
 20
81.84017674123408
 30
0.0
 10
62.73154778335599
 20
81.84017674123408
 30
0.0
 10
62.73154778335599
 20
81.84017674123408
 30
0.0
 10
81.02565156908427
 20
81.84017674123408
 30
0.0
 10
81.02565156908427
 20
81.84017674123408
 30
0.0
 10
81.41368908520092
 20
81.84017674123408
 30
0.0
 10
81.72764475453837
 20
81.52974874684614
 30
0.0
 10
81.72764475453837
 20
81.14171324923521
 30
0.0
 10
81.72764475453837
 20
81.14171324923521
 30
0.0
 10
81.7558661541361
 20
18.69623904567233
 30
0.0
 10
81.7558661541361
 20
18.69623904567233
 30
0.0
 10
86.36290333050245
 20
16.92185958891282
 30
0.0
 10
90.95230145928505
 20
14.73475225556432
 30
0.0
 10
95.32652689134462
 20
12.20899350972572
 30
0.0
 10
100.9777289394186
 20
8.945968865946428
 30
0.0
 10
106.5583855625208
 20
4.801045669794347
 30
0.0
 10
111.6310677582271
 20
0.1128753337602128
 30
0.0
 10
111.6310677582271
 20
0.1128753337602128
 30
0.0
 10
111.6310677582271
 20
0.176369445843888
 30
0.0
 10
111.6310677582271
 20
0.176369445843888
 30
0.0
 10
111.6310677582271
 20
0.176369445843888
 30
0.0
 10
111.6310677582271
 20
0.176369445843888
 30
0.0
 10
111.6310677582271
 20
0.176369445843888
 30
0.0
 10
111.6310677582271
 20
0.176369445843888
 30
0.0
 10
111.6310677582271
 20
15.06281593335982
 30
0.0
 10
111.6310677582271
 20
15.06281593335982
 30
0.0
 10
111.6310677582271
 20
15.06281593335982
 30
0.0
 10
111.6310677582271
 20
15.06281593335982
 30
0.0
 10
111.6310677582271
 20
15.06281593335982
 30
0.0
 10
111.6310677582271
 20
15.06281593335982
 30
0.0
 10
111.6310677582271
 20
89.12818598779809
 30
0.0
 10
111.6310677582271
 20
89.12818598779809
 30
0.0
 10
111.6310677582271
 20
89.51269381045952
 30
0.0
 10
111.3206377453338
 20
89.82664964800585
 30
0.0
 10
110.9326002292171
 20
89.82664964800585
 30
0.0
 10
110.9326002292171
 20
89.82664964800585
 30
0.0
 10
110.9326002292171
 20
89.82664964800585
 30
0.0
 10
110.9326002292171
 20
89.82664964800585
 30
0.0
 10
110.9326002292171
 20
89.82664964800585
 30
0.0
 10
110.932589463854
 20
89.82312197305601
 30
0.0
 10
110.932589463854
 20
89.82312197305601
 30
0.0
  0
SPLINE
  5
AA
330
79
100
AcDbEntity
  8
Ebene 1
 62
     5
420
      255
370
     9
100
AcDbSpline
210
0.0
220
0.0
230
1.0
 70
    11
 71
     3
 72
    17
 73
    13
 74
     0
 42
0.0000000001
 43
0.0000000001
 40
0.0
 40
0.0
 40
0.0
 40
0.0
 40
1.0
 40
1.0
 40
1.0
 40
2.0
 40
2.0
 40
2.0
 40
3.0
 40
3.0
 40
3.0
 40
4.0
 40
4.0
 40
4.0
 40
4.0
 10
39.38592650594925
 20
67.3382246196751
 30
0.0
 10
39.38592650594925
 20
66.75617103684107
 30
0.0
 10
38.91675583016514
 20
66.28700036105664
 30
0.0
 10
38.33470224733078
 20
66.28700036105664
 30
0.0
 10
37.75264866449675
 20
66.28700036105664
 30
0.0
 10
37.28347798871264
 20
66.75617103684107
 30
0.0
 10
37.28347798871264
 20
67.3382246196751
 30
0.0
 10
37.28347798871264
 20
67.92027820250914
 30
0.0
 10
37.75617432094087
 20
68.38944887829358
 30
0.0
 10
38.33470224733078
 20
68.38944887829358
 30
0.0
 10
38.91323017372103
 20
68.38944887829358
 30
0.0
 10
39.38592650594925
 20
67.92027820250914
 30
0.0
 10
39.38592650594925
 20
67.3382246196751
 30
0.0
  0
SPLINE
  5
AB
330
79
100
AcDbEntity
  8
Ebene 1
 62
     5
420
      255
370
     9
100
AcDbSpline
210
0.0
220
0.0
230
1.0
 70
    11
 71
     3
 72
    17
 73
    13
 74
     0
 42
0.0000000001
 43
0.0000000001
 40
0.0
 40
0.0
 40
0.0
 40
0.0
 40
1.0
 40
1.0
 40
1.0
 40
2.0
 40
2.0
 40
2.0
 40
3.0
 40
3.0
 40
3.0
 40
4.0
 40
4.0
 40
4.0
 40
4.0
 10
27.8118907658379
 20
66.5656806265675
 30
0.0
 10
27.8118907658379
 20
65.98362704373347
 30
0.0
 10
27.34272009005379
 20
65.51445636794902
 30
0.0
 10
26.76066650721943
 20
65.51445636794902
 30
0.0
 10
26.1786129243854
 20
65.51445636794902
 30
0.0
 10
25.70944224860129
 20
65.98362704373347
 30
0.0
 10
25.70944224860129
 20
66.5656806265675
 30
0.0
 10
25.70944224860129
 20
67.14773420940153
 30
0.0
 10
26.18213858082952
 20
67.61690488518595
 30
0.0
 10
26.76066650721943
 20
67.61690488518595
 30
0.0
 10
27.33919443360968
 20
67.61690488518595
 30
0.0
 10
27.8118907658379
 20
67.14773420940153
 30
0.0
 10
27.8118907658379
 20
66.5656806265675
 30
0.0
  0
SPLINE
  5
AC
330
79
100
AcDbEntity
  8
Ebene 1
 62
     5
420
      255
370
     9
100
AcDbSpline
210
0.0
220
0.0
230
1.0
 70
     9
 71
     3
 72
    17
 73
    13
 74
     0
 42
0.0000000001
 43
0.0000000001
 40
0.0
 40
0.0
 40
0.0
 40
0.0
 40
1.0
 40
1.0
 40
1.0
 40
2.0
 40
2.0
 40
2.0
 40
3.0
 40
3.0
 40
3.0
 40
4.0
 40
4.0
 40
4.0
 40
4.0
 10
43.6649000045201
 20
76.74278938268141
 30
0.0
 10
43.6649000045201
 20
77.02146964819194
 30
0.0
 10
43.88713747083552
 20
77.24370711450703
 30
0.0
 10
44.16581773634606
 20
77.24370711450703
 30
0.0
 10
44.44449800185658
 20
77.24370711450703
 30
0.0
 10
44.666735468172
 20
77.02146830252146
 30
0.0
 10
44.666735468172
 20
76.74278938268141
 30
0.0
 10
44.666735468172
 20
76.46411046284104
 30
0.0
 10
44.44096965407183
 20
76.24187165085515
 30
0.0
 10
44.16581773634606
 20
76.24187165085515
 30
0.0
 10
43.89066581862027
 20
76.24187165085515
 30
0.0
 10
43.6649000045201
 20
76.46411046284104
 30
0.0
 10
43.6649000045201
 20
76.74278938268141
 30
0.0
  0
SPLINE
  5
AD
330
79
100
AcDbEntity
  8
Ebene 1
 62
     5
420
      255
370
     9
100
AcDbSpline
210
0.0
220
0.0
230
1.0
 70
     9
 71
     3
 72
    17
 73
    13
 74
     0
 42
0.0000000001
 43
0.0000000001
 40
0.0
 40
0.0
 40
0.0
 40
0.0
 40
1.0
 40
1.0
 40
1.0
 40
2.0
 40
2.0
 40
2.0
 40
3.0
 40
3.0
 40
3.0
 40
4.0
 40
4.0
 40
4.0
 40
4.0
 10
43.6649000045201
 20
74.7426441118214
 30
0.0
 10
43.6649000045201
 20
75.02132437733227
 30
0.0
 10
43.88713747083552
 20
75.24356184364768
 30
0.0
 10
44.16581773634606
 20
75.24356184364768
 30
0.0
 10
44.44449800185658
 20
75.24356184364768
 30
0.0
 10
44.666735468172
 20
75.02132303166177
 30
0.0
 10
44.666735468172
 20
74.7426441118214
 30
0.0
 10
44.666735468172
 20
74.46396519198136
 30
0.0
 10
44.44096965407183
 20
74.24172637999578
 30
0.0
 10
44.16581773634606
 20
74.24172637999578
 30
0.0
 10
43.89066581862027
 20
74.24172637999578
 30
0.0
 10
43.6649000045201
 20
74.46396519198136
 30
0.0
 10
43.6649000045201
 20
74.7426441118214
 30
0.0
  0
SPLINE
  5
AE
330
79
100
AcDbEntity
  8
Ebene 1
 62
     5
420
      255
370
     9
100
AcDbSpline
210
0.0
220
0.0
230
1.0
 70
     9
 71
     3
 72
    17
 73
    13
 74
     0
 42
0.0000000001
 43
0.0000000001
 40
0.0
 40
0.0
 40
0.0
 40
0.0
 40
1.0
 40
1.0
 40
1.0
 40
2.0
 40
2.0
 40
2.0
 40
3.0
 40
3.0
 40
3.0
 40
4.0
 40
4.0
 40
4.0
 40
4.0
 10
43.6649000045201
 20
72.74249884096204
 30
0.0
 10
43.6649000045201
 20
73.02117910647258
 30
0.0
 10
43.88713747083552
 20
73.24341657278768
 30
0.0
 10
44.16581773634606
 20
73.24341657278768
 30
0.0
 10
44.44449800185658
 20
73.24341657278768
 30
0.0
 10
44.666735468172
 20
73.0211777608021
 30
0.0
 10
44.666735468172
 20
72.74249884096204
 30
0.0
 10
44.666735468172
 20
72.46381992112167
 30
0.0
 10
44.44096965407183
 20
72.24158110913577
 30
0.0
 10
44.16581773634606
 20
72.24158110913577
 30
0.0
 10
43.89066581862027
 20
72.24158110913577
 30
0.0
 10
43.6649000045201
 20
72.46381992112167
 30
0.0
 10
43.6649000045201
 20
72.74249884096204
 30
0.0
  0
SPLINE
  5
AF
330
79
100
AcDbEntity
  8
Ebene 1
 62
     5
420
      255
370
     9
100
AcDbSpline
210
0.0
220
0.0
230
1.0
 70
     9
 71
     3
 72
    17
 73
    13
 74
     0
 42
0.0000000001
 43
0.0000000001
 40
0.0
 40
0.0
 40
0.0
 40
0.0
 40
1.0
 40
1.0
 40
1.0
 40
2.0
 40
2.0
 40
2.0
 40
3.0
 40
3.0
 40
3.0
 40
4.0
 40
4.0
 40
4.0
 40
4.0
 10
43.6649000045201
 20
70.74235357010206
 30
0.0
 10
43.6649000045201
 20
71.02103383561289
 30
0.0
 10
43.88713747083552
 20
71.24327130192831
 30
0.0
 10
44.16581773634606
 20
71.24327130192831
 30
0.0
 10
44.44449800185658
 20
71.24327130192831
 30
0.0
 10
44.666735468172
 20
71.02103248994243
 30
0.0
 10
44.666735468172
 20
70.74235357010206
 30
0.0
 10
44.666735468172
 20
70.46367465026199
 30
0.0
 10
44.44096965407183
 20
70.24143583827641
 30
0.0
 10
44.16581773634606
 20
70.24143583827641
 30
0.0
 10
43.89066581862027
 20
70.24143583827641
 30
0.0
 10
43.6649000045201
 20
70.46367465026199
 30
0.0
 10
43.6649000045201
 20
70.74235357010206
 30
0.0
  0
SPLINE
  5
B0
330
79
100
AcDbEntity
  8
Ebene 1
 62
     5
420
      255
370
     9
100
AcDbSpline
210
0.0
220
0.0
230
1.0
 70
    11
 71
     3
 72
    17
 73
    13
 74
     0
 42
0.0000000001
 43
0.0000000001
 40
0.0
 40
0.0
 40
0.0
 40
0.0
 40
1.0
 40
1.0
 40
1.0
 40
2.0
 40
2.0
 40
2.0
 40
3.0
 40
3.0
 40
3.0
 40
4.0
 40
4.0
 40
4.0
 40
4.0
 10
43.6649000045201
 20
68.74220829924269
 30
0.0
 10
43.6649000045201
 20
69.02088856475322
 30
0.0
 10
43.88713747083552
 20
69.24312603106831
 30
0.0
 10
44.16581773634606
 20
69.24312603106831
 30
0.0
 10
44.44449800185658
 20
69.24312603106831
 30
0.0
 10
44.666735468172
 20
69.02088856475322
 30
0.0
 10
44.666735468172
 20
68.74220829924269
 30
0.0
 10
44.666735468172
 20
68.46352803373183
 30
0.0
 10
44.44096965407183
 20
68.24129056741641
 30
0.0
 10
44.16581773634606
 20
68.24129056741641
 30
0.0
 10
43.89066581862027
 20
68.24129056741641
 30
0.0
 10
43.6649000045201
 20
68.46352803373183
 30
0.0
 10
43.6649000045201
 20
68.74220829924269
 30
0.0
  0
SPLINE
  5
B1
330
79
100
AcDbEntity
  8
Ebene 1
 62
     5
420
      255
370
     9
100
AcDbSpline
210
0.0
220
0.0
230
1.0
 70
     9
 71
     3
 72
    17
 73
    13
 74
     0
 42
0.0000000001
 43
0.0000000001
 40
0.0
 40
0.0
 40
0.0
 40
0.0
 40
1.0
 40
1.0
 40
1.0
 40
2.0
 40
2.0
 40
2.0
 40
3.0
 40
3.0
 40
3.0
 40
4.0
 40
4.0
 40
4.0
 40
4.0
 10
45.66504527537978
 20
76.74279207402205
 30
0.0
 10
45.66504527537978
 20
77.0214723395329
 30
0.0
 10
45.88728543303584
 20
77.243709805848
 30
0.0
 10
46.16596300720574
 20
77.243709805848
 30
0.0
 10
46.44464058137564
 20
77.243709805848
 30
0.0
 10
46.66688073903168
 20
77.02147099386242
 30
0.0
 10
46.66688073903168
 20
76.74279207402205
 30
0.0
 10
46.66688073903168
 20
76.46411315418167
 30
0.0
 10
46.44111492493151
 20
76.2418743421961
 30
0.0
 10
46.16596300720574
 20
76.2418743421961
 30
0.0
 10
45.89081108947995
 20
76.2418743421961
 30
0.0
 10
45.66504527537978
 20
76.46411315418167
 30
0.0
 10
45.66504527537978
 20
76.74279207402205
 30
0.0
  0
SPLINE
  5
B2
330
79
100
AcDbEntity
  8
Ebene 1
 62
     5
420
      255
370
     9
100
AcDbSpline
210
0.0
220
0.0
230
1.0
 70
     9
 71
     3
 72
    17
 73
    13
 74
     0
 42
0.0000000001
 43
0.0000000001
 40
0.0
 40
0.0
 40
0.0
 40
0.0
 40
1.0
 40
1.0
 40
1.0
 40
2.0
 40
2.0
 40
2.0
 40
3.0
 40
3.0
 40
3.0
 40
4.0
 40
4.0
 40
4.0
 40
4.0
 10
45.66504527537978
 20
74.74264680316237
 30
0.0
 10
45.66504527537978
 20
75.0213270686729
 30
0.0
 10
45.88728543303584
 20
75.24356453498831
 30
0.0
 10
46.16596300720574
 20
75.24356453498831
 30
0.0
 10
46.44464058137564
 20
75.24356453498831
 30
0.0
 10
46.66688073903168
 20
75.02132572300275
 30
0.0
 10
46.66688073903168
 20
74.74264680316237
 30
0.0
 10
46.66688073903168
 20
74.46396788332198
 30
0.0
 10
46.44111492493151
 20
74.24172907133642
 30
0.0
 10
46.16596300720574
 20
74.24172907133642
 30
0.0
 10
45.89081108947995
 20
74.24172907133642
 30
0.0
 10
45.66504527537978
 20
74.46396788332198
 30
0.0
 10
45.66504527537978
 20
74.74264680316237
 30
0.0
  0
SPLINE
  5
B3
330
79
100
AcDbEntity
  8
Ebene 1
 62
     5
420
      255
370
     9
100
AcDbSpline
210
0.0
220
0.0
230
1.0
 70
     9
 71
     3
 72
    17
 73
    13
 74
     0
 42
0.0000000001
 43
0.0000000001
 40
0.0
 40
0.0
 40
0.0
 40
0.0
 40
1.0
 40
1.0
 40
1.0
 40
2.0
 40
2.0
 40
2.0
 40
3.0
 40
3.0
 40
3.0
 40
4.0
 40
4.0
 40
4.0
 40
4.0
 10
45.66504527537978
 20
72.74250153230268
 30
0.0
 10
45.66504527537978
 20
73.02118179781354
 30
0.0
 10
45.88728543303584
 20
73.24341926412863
 30
0.0
 10
46.16596300720574
 20
73.24341926412863
 30
0.0
 10
46.44464058137564
 20
73.24341926412863
 30
0.0
 10
46.66688073903168
 20
73.02118045214306
 30
0.0
 10
46.66688073903168
 20
72.74250153230268
 30
0.0
 10
46.66688073903168
 20
72.46382261246231
 30
0.0
 10
46.44111492493151
 20
72.24158380047673
 30
0.0
 10
46.16596300720574
 20
72.24158380047673
 30
0.0
 10
45.89081108947995
 20
72.24158380047673
 30
0.0
 10
45.66504527537978
 20
72.46382261246231
 30
0.0
 10
45.66504527537978
 20
72.74250153230268
 30
0.0
  0
SPLINE
  5
B4
330
79
100
AcDbEntity
  8
Ebene 1
 62
     5
420
      255
370
     9
100
AcDbSpline
210
0.0
220
0.0
230
1.0
 70
     9
 71
     3
 72
    17
 73
    13
 74
     0
 42
0.0000000001
 43
0.0000000001
 40
0.0
 40
0.0
 40
0.0
 40
0.0
 40
1.0
 40
1.0
 40
1.0
 40
2.0
 40
2.0
 40
2.0
 40
3.0
 40
3.0
 40
3.0
 40
4.0
 40
4.0
 40
4.0
 40
4.0
 10
45.66504527537978
 20
70.742356261443
 30
0.0
 10
45.66504527537978
 20
71.02103652695354
 30
0.0
 10
45.88728543303584
 20
71.24327399326896
 30
0.0
 10
46.16596300720574
 20
71.24327399326896
 30
0.0
 10
46.44464058137564
 20
71.24327399326896
 30
0.0
 10
46.66688073903168
 20
71.02103518128338
 30
0.0
 10
46.66688073903168
 20
70.742356261443
 30
0.0
 10
46.66688073903168
 20
70.46367734160263
 30
0.0
 10
46.44111492493151
 20
70.24143852961706
 30
0.0
 10
46.16596300720574
 20
70.24143852961706
 30
0.0
 10
45.89081108947995
 20
70.24143852961706
 30
0.0
 10
45.66504527537978
 20
70.46367734160263
 30
0.0
 10
45.66504527537978
 20
70.742356261443
 30
0.0
  0
SPLINE
  5
B5
330
79
100
AcDbEntity
  8
Ebene 1
 62
     5
420
      255
370
     9
100
AcDbSpline
210
0.0
220
0.0
230
1.0
 70
    11
 71
     3
 72
    17
 73
    13
 74
     0
 42
0.0000000001
 43
0.0000000001
 40
0.0
 40
0.0
 40
0.0
 40
0.0
 40
1.0
 40
1.0
 40
1.0
 40
2.0
 40
2.0
 40
2.0
 40
3.0
 40
3.0
 40
3.0
 40
4.0
 40
4.0
 40
4.0
 40
4.0
 10
45.66504527537978
 20
68.74221099058333
 30
0.0
 10
45.66504527537978
 20
69.02089125609418
 30
0.0
 10
45.88728543303584
 20
69.24312872240927
 30
0.0
 10
46.16596300720574
 20
69.24312872240927
 30
0.0
 10
46.44464058137564
 20
69.24312872240927
 30
0.0
 10
46.66688073903168
 20
69.02089125609418
 30
0.0
 10
46.66688073903168
 20
68.74221099058333
 30
0.0
 10
46.66688073903168
 20
68.46353072507247
 30
0.0
 10
46.44111492493151
 20
68.24129325875738
 30
0.0
 10
46.16596300720574
 20
68.24129325875738
 30
0.0
 10
45.89081108947995
 20
68.24129325875738
 30
0.0
 10
45.66504527537978
 20
68.46353072507247
 30
0.0
 10
45.66504527537978
 20
68.74221099058333
 30
0.0
  0
SPLINE
  5
B6
330
79
100
AcDbEntity
  8
Ebene 1
 62
     5
420
      255
370
     9
100
AcDbSpline
210
0.0
220
0.0
230
1.0
 70
     9
 71
     3
 72
    17
 73
    13
 74
     0
 42
0.0000000001
 43
0.0000000001
 40
0.0
 40
0.0
 40
0.0
 40
0.0
 40
1.0
 40
1.0
 40
1.0
 40
2.0
 40
2.0
 40
2.0
 40
3.0
 40
3.0
 40
3.0
 40
4.0
 40
4.0
 40
4.0
 40
4.0
 10
47.66519054623946
 20
76.74279476536269
 30
0.0
 10
47.66519054623946
 20
77.02147503087354
 30
0.0
 10
47.88743070389552
 20
77.24371249718895
 30
0.0
 10
48.16610827806542
 20
77.24371249718895
 30
0.0
 10
48.44478585223531
 20
77.24371249718895
 30
0.0
 10
48.66702600989136
 20
77.02147368520306
 30
0.0
 10
48.66702600989136
 20
76.74279476536269
 30
0.0
 10
48.66702600989136
 20
76.46411584552263
 30
0.0
 10
48.4412601957912
 20
76.24187703353705
 30
0.0
 10
48.16610827806542
 20
76.24187703353705
 30
0.0
 10
47.89095636033963
 20
76.24187703353705
 30
0.0
 10
47.66519054623946
 20
76.46411584552263
 30
0.0
 10
47.66519054623946
 20
76.74279476536269
 30
0.0
  0
SPLINE
  5
B7
330
79
100
AcDbEntity
  8
Ebene 1
 62
     5
420
      255
370
     9
100
AcDbSpline
210
0.0
220
0.0
230
1.0
 70
     9
 71
     3
 72
    17
 73
    13
 74
     0
 42
0.0000000001
 43
0.0000000001
 40
0.0
 40
0.0
 40
0.0
 40
0.0
 40
1.0
 40
1.0
 40
1.0
 40
2.0
 40
2.0
 40
2.0
 40
3.0
 40
3.0
 40
3.0
 40
4.0
 40
4.0
 40
4.0
 40
4.0
 10
47.66519054623946
 20
74.74264949450333
 30
0.0
 10
47.66519054623946
 20
75.02132976001385
 30
0.0
 10
47.88743070389552
 20
75.24356722632894
 30
0.0
 10
48.16610827806542
 20
75.24356722632894
 30
0.0
 10
48.44478585223531
 20
75.24356722632894
 30
0.0
 10
48.66702600989136
 20
75.02132841434337
 30
0.0
 10
48.66702600989136
 20
74.74264949450333
 30
0.0
 10
48.66702600989136
 20
74.46397057466295
 30
0.0
 10
48.4412601957912
 20
74.24173176267705
 30
0.0
 10
48.16610827806542
 20
74.24173176267705
 30
0.0
 10
47.89095636033963
 20
74.24173176267705
 30
0.0
 10
47.66519054623946
 20
74.46397057466295
 30
0.0
 10
47.66519054623946
 20
74.74264949450333
 30
0.0
  0
SPLINE
  5
B8
330
79
100
AcDbEntity
  8
Ebene 1
 62
     5
420
      255
370
     9
100
AcDbSpline
210
0.0
220
0.0
230
1.0
 70
     9
 71
     3
 72
    17
 73
    13
 74
     0
 42
0.0000000001
 43
0.0000000001
 40
0.0
 40
0.0
 40
0.0
 40
0.0
 40
1.0
 40
1.0
 40
1.0
 40
2.0
 40
2.0
 40
2.0
 40
3.0
 40
3.0
 40
3.0
 40
4.0
 40
4.0
 40
4.0
 40
4.0
 10
47.66519054623946
 20
72.74250422364332
 30
0.0
 10
47.66519054623946
 20
73.02118448915418
 30
0.0
 10
47.88743070389552
 20
73.24342195546958
 30
0.0
 10
48.16610827806542
 20
73.24342195546958
 30
0.0
 10
48.44478585223531
 20
73.24342195546958
 30
0.0
 10
48.66702600989136
 20
73.02118314348369
 30
0.0
 10
48.66702600989136
 20
72.74250422364332
 30
0.0
 10
48.66702600989136
 20
72.46382530380326
 30
0.0
 10
48.4412601957912
 20
72.2415864918177
 30
0.0
 10
48.16610827806542
 20
72.2415864918177
 30
0.0
 10
47.89095636033963
 20
72.2415864918177
 30
0.0
 10
47.66519054623946
 20
72.46382530380326
 30
0.0
 10
47.66519054623946
 20
72.74250422364332
 30
0.0
  0
SPLINE
  5
B9
330
79
100
AcDbEntity
  8
Ebene 1
 62
     5
420
      255
370
     9
100
AcDbSpline
210
0.0
220
0.0
230
1.0
 70
     9
 71
     3
 72
    17
 73
    13
 74
     0
 42
0.0000000001
 43
0.0000000001
 40
0.0
 40
0.0
 40
0.0
 40
0.0
 40
1.0
 40
1.0
 40
1.0
 40
2.0
 40
2.0
 40
2.0
 40
3.0
 40
3.0
 40
3.0
 40
4.0
 40
4.0
 40
4.0
 40
4.0
 10
47.66519054623946
 20
70.74235895278396
 30
0.0
 10
47.66519054623946
 20
71.02103921829449
 30
0.0
 10
47.88743070389552
 20
71.2432766846096
 30
0.0
 10
48.16610827806542
 20
71.2432766846096
 30
0.0
 10
48.44478585223531
 20
71.2432766846096
 30
0.0
 10
48.66702600989136
 20
71.02103787262402
 30
0.0
 10
48.66702600989136
 20
70.74235895278396
 30
0.0
 10
48.66702600989136
 20
70.46368003294358
 30
0.0
 10
48.4412601957912
 20
70.24144122095769
 30
0.0
 10
48.16610827806542
 20
70.24144122095769
 30
0.0
 10
47.89095636033963
 20
70.24144122095769
 30
0.0
 10
47.66519054623946
 20
70.46368003294358
 30
0.0
 10
47.66519054623946
 20
70.74235895278396
 30
0.0
  0
SPLINE
  5
BA
330
79
100
AcDbEntity
  8
Ebene 1
 62
     5
420
      255
370
     9
100
AcDbSpline
210
0.0
220
0.0
230
1.0
 70
    11
 71
     3
 72
    17
 73
    13
 74
     0
 42
0.0000000001
 43
0.0000000001
 40
0.0
 40
0.0
 40
0.0
 40
0.0
 40
1.0
 40
1.0
 40
1.0
 40
2.0
 40
2.0
 40
2.0
 40
3.0
 40
3.0
 40
3.0
 40
4.0
 40
4.0
 40
4.0
 40
4.0
 10
47.66519054623946
 20
68.74221368192396
 30
0.0
 10
47.66519054623946
 20
69.02089394743481
 30
0.0
 10
47.88743070389552
 20
69.24313141375023
 30
0.0
 10
48.16610827806542
 20
69.24313141375023
 30
0.0
 10
48.44478585223531
 20
69.24313141375023
 30
0.0
 10
48.66702600989136
 20
69.02089394743481
 30
0.0
 10
48.66702600989136
 20
68.74221368192396
 30
0.0
 10
48.66702600989136
 20
68.46353341641343
 30
0.0
 10
48.4412601957912
 20
68.24129595009833
 30
0.0
 10
48.16610827806542
 20
68.24129595009833
 30
0.0
 10
47.89095636033963
 20
68.24129595009833
 30
0.0
 10
47.66519054623946
 20
68.46353341641343
 30
0.0
 10
47.66519054623946
 20
68.74221368192396
 30
0.0
  0
SPLINE
  5
BB
330
79
100
AcDbEntity
  8
Ebene 1
 62
     5
420
      255
370
     9
100
AcDbSpline
210
0.0
220
0.0
230
1.0
 70
     9
 71
     3
 72
    17
 73
    13
 74
     0
 42
0.0000000001
 43
0.0000000001
 40
0.0
 40
0.0
 40
0.0
 40
0.0
 40
1.0
 40
1.0
 40
1.0
 40
2.0
 40
2.0
 40
2.0
 40
3.0
 40
3.0
 40
3.0
 40
4.0
 40
4.0
 40
4.0
 40
4.0
 10
49.66533581709914
 20
76.74279745670364
 30
0.0
 10
49.66533581709914
 20
77.02147772221417
 30
0.0
 10
49.8875759747552
 20
77.24371518852959
 30
0.0
 10
50.1662535489251
 20
77.24371518852959
 30
0.0
 10
50.44493112309499
 20
77.24371518852959
 30
0.0
 10
50.66717128075104
 20
77.02147637654402
 30
0.0
 10
50.66717128075104
 20
76.74279745670364
 30
0.0
 10
50.66717128075104
 20
76.46411853686327
 30
0.0
 10
50.44140546665087
 20
76.24187972487769
 30
0.0
 10
50.1662535489251
 20
76.24187972487769
 30
0.0
 10
49.89110163119931
 20
76.24187972487769
 30
0.0
 10
49.66533581709914
 20
76.46411853686327
 30
0.0
 10
49.66533581709914
 20
76.74279745670364
 30
0.0
  0
SPLINE
  5
BC
330
79
100
AcDbEntity
  8
Ebene 1
 62
     5
420
      255
370
     9
100
AcDbSpline
210
0.0
220
0.0
230
1.0
 70
     9
 71
     3
 72
    17
 73
    13
 74
     0
 42
0.0000000001
 43
0.0000000001
 40
0.0
 40
0.0
 40
0.0
 40
0.0
 40
1.0
 40
1.0
 40
1.0
 40
2.0
 40
2.0
 40
2.0
 40
3.0
 40
3.0
 40
3.0
 40
4.0
 40
4.0
 40
4.0
 40
4.0
 10
49.66533581709914
 20
74.74265218584396
 30
0.0
 10
49.66533581709914
 20
75.02133245135481
 30
0.0
 10
49.8875759747552
 20
75.24356991766992
 30
0.0
 10
50.1662535489251
 20
75.24356991766992
 30
0.0
 10
50.44493112309499
 20
75.24356991766992
 30
0.0
 10
50.66717128075104
 20
75.02133110568434
 30
0.0
 10
50.66717128075104
 20
74.74265218584396
 30
0.0
 10
50.66717128075104
 20
74.46397326600358
 30
0.0
 10
50.44140546665087
 20
74.24173445401802
 30
0.0
 10
50.1662535489251
 20
74.24173445401802
 30
0.0
 10
49.89110163119931
 20
74.24173445401802
 30
0.0
 10
49.66533581709914
 20
74.46397326600358
 30
0.0
 10
49.66533581709914
 20
74.74265218584396
 30
0.0
  0
SPLINE
  5
BD
330
79
100
AcDbEntity
  8
Ebene 1
 62
     5
420
      255
370
     9
100
AcDbSpline
210
0.0
220
0.0
230
1.0
 70
     9
 71
     3
 72
    17
 73
    13
 74
     0
 42
0.0000000001
 43
0.0000000001
 40
0.0
 40
0.0
 40
0.0
 40
0.0
 40
1.0
 40
1.0
 40
1.0
 40
2.0
 40
2.0
 40
2.0
 40
3.0
 40
3.0
 40
3.0
 40
4.0
 40
4.0
 40
4.0
 40
4.0
 10
49.66533581709914
 20
72.74250691498427
 30
0.0
 10
49.66533581709914
 20
73.02118718049482
 30
0.0
 10
49.8875759747552
 20
73.24342464681023
 30
0.0
 10
50.1662535489251
 20
73.24342464681023
 30
0.0
 10
50.44493112309499
 20
73.24342464681023
 30
0.0
 10
50.66717128075104
 20
73.02118583482465
 30
0.0
 10
50.66717128075104
 20
72.74250691498427
 30
0.0
 10
50.66717128075104
 20
72.4638279951439
 30
0.0
 10
50.44140546665087
 20
72.24158918315833
 30
0.0
 10
50.1662535489251
 20
72.24158918315833
 30
0.0
 10
49.89110163119931
 20
72.24158918315833
 30
0.0
 10
49.66533581709914
 20
72.4638279951439
 30
0.0
 10
49.66533581709914
 20
72.74250691498427
 30
0.0
  0
SPLINE
  5
BE
330
79
100
AcDbEntity
  8
Ebene 1
 62
     5
420
      255
370
     9
100
AcDbSpline
210
0.0
220
0.0
230
1.0
 70
     9
 71
     3
 72
    17
 73
    13
 74
     0
 42
0.0000000001
 43
0.0000000001
 40
0.0
 40
0.0
 40
0.0
 40
0.0
 40
1.0
 40
1.0
 40
1.0
 40
2.0
 40
2.0
 40
2.0
 40
3.0
 40
3.0
 40
3.0
 40
4.0
 40
4.0
 40
4.0
 40
4.0
 10
49.66533581709914
 20
70.7423616441246
 30
0.0
 10
49.66533581709914
 20
71.02104190963546
 30
0.0
 10
49.8875759747552
 20
71.24327937595055
 30
0.0
 10
50.1662535489251
 20
71.24327937595055
 30
0.0
 10
50.44493112309499
 20
71.24327937595055
 30
0.0
 10
50.66717128075104
 20
71.02104056396497
 30
0.0
 10
50.66717128075104
 20
70.7423616441246
 30
0.0
 10
50.66717128075104
 20
70.46368272428423
 30
0.0
 10
50.44140546665087
 20
70.24144391229865
 30
0.0
 10
50.1662535489251
 20
70.24144391229865
 30
0.0
 10
49.89110163119931
 20
70.24144391229865
 30
0.0
 10
49.66533581709914
 20
70.46368272428423
 30
0.0
 10
49.66533581709914
 20
70.7423616441246
 30
0.0
  0
SPLINE
  5
BF
330
79
100
AcDbEntity
  8
Ebene 1
 62
     5
420
      255
370
     9
100
AcDbSpline
210
0.0
220
0.0
230
1.0
 70
    11
 71
     3
 72
    17
 73
    13
 74
     0
 42
0.0000000001
 43
0.0000000001
 40
0.0
 40
0.0
 40
0.0
 40
0.0
 40
1.0
 40
1.0
 40
1.0
 40
2.0
 40
2.0
 40
2.0
 40
3.0
 40
3.0
 40
3.0
 40
4.0
 40
4.0
 40
4.0
 40
4.0
 10
49.66533581709914
 20
68.74221637326492
 30
0.0
 10
49.66533581709914
 20
69.02089663877545
 30
0.0
 10
49.8875759747552
 20
69.24313410509087
 30
0.0
 10
50.1662535489251
 20
69.24313410509087
 30
0.0
 10
50.44493112309499
 20
69.24313410509087
 30
0.0
 10
50.66717128075104
 20
69.02089663877545
 30
0.0
 10
50.66717128075104
 20
68.74221637326492
 30
0.0
 10
50.66717128075104
 20
68.46353610775437
 30
0.0
 10
50.44140546665087
 20
68.24129864143897
 30
0.0
 10
50.1662535489251
 20
68.24129864143897
 30
0.0
 10
49.89110163119931
 20
68.24129864143897
 30
0.0
 10
49.66533581709914
 20
68.46353610775437
 30
0.0
 10
49.66533581709914
 20
68.74221637326492
 30
0.0
  0
SPLINE
  5
C0
330
79
100
AcDbEntity
  8
Ebene 1
 62
     5
420
      255
370
     9
100
AcDbSpline
210
0.0
220
0.0
230
1.0
 70
     9
 71
     3
 72
    17
 73
    13
 74
     0
 42
0.0000000001
 43
0.0000000001
 40
0.0
 40
0.0
 40
0.0
 40
0.0
 40
1.0
 40
1.0
 40
1.0
 40
2.0
 40
2.0
 40
2.0
 40
3.0
 40
3.0
 40
3.0
 40
4.0
 40
4.0
 40
4.0
 40
4.0
 10
51.66548108795883
 20
76.74280014804459
 30
0.0
 10
51.66548108795883
 20
77.02148041355513
 30
0.0
 10
51.88772124561488
 20
77.24371787987023
 30
0.0
 10
52.16639881978478
 20
77.24371787987023
 30
0.0
 10
52.44507639395468
 20
77.24371787987023
 30
0.0
 10
52.66731655161073
 20
77.02147906788465
 30
0.0
 10
52.66731655161073
 20
76.74280014804459
 30
0.0
 10
52.66731655161073
 20
76.46412122820422
 30
0.0
 10
52.44155073751056
 20
76.24188241621833
 30
0.0
 10
52.16639881978478
 20
76.24188241621833
 30
0.0
 10
51.891246902059
 20
76.24188241621833
 30
0.0
 10
51.66548108795883
 20
76.46412122820422
 30
0.0
 10
51.66548108795883
 20
76.74280014804459
 30
0.0
  0
SPLINE
  5
C1
330
79
100
AcDbEntity
  8
Ebene 1
 62
     5
420
      255
370
     9
100
AcDbSpline
210
0.0
220
0.0
230
1.0
 70
     9
 71
     3
 72
    17
 73
    13
 74
     0
 42
0.0000000001
 43
0.0000000001
 40
0.0
 40
0.0
 40
0.0
 40
0.0
 40
1.0
 40
1.0
 40
1.0
 40
2.0
 40
2.0
 40
2.0
 40
3.0
 40
3.0
 40
3.0
 40
4.0
 40
4.0
 40
4.0
 40
4.0
 10
51.66548108795883
 20
74.74265487718459
 30
0.0
 10
51.66548108795883
 20
75.02133514269544
 30
0.0
 10
51.88772124561488
 20
75.24357260901087
 30
0.0
 10
52.16639881978478
 20
75.24357260901087
 30
0.0
 10
52.44507639395468
 20
75.24357260901087
 30
0.0
 10
52.66731655161073
 20
75.02133379702498
 30
0.0
 10
52.66731655161073
 20
74.74265487718459
 30
0.0
 10
52.66731655161073
 20
74.46397595734454
 30
0.0
 10
52.44155073751056
 20
74.24173714535896
 30
0.0
 10
52.16639881978478
 20
74.24173714535896
 30
0.0
 10
51.891246902059
 20
74.24173714535896
 30
0.0
 10
51.66548108795883
 20
74.46397595734454
 30
0.0
 10
51.66548108795883
 20
74.74265487718459
 30
0.0
  0
SPLINE
  5
C2
330
79
100
AcDbEntity
  8
Ebene 1
 62
     5
420
      255
370
     9
100
AcDbSpline
210
0.0
220
0.0
230
1.0
 70
     9
 71
     3
 72
    17
 73
    13
 74
     0
 42
0.0000000001
 43
0.0000000001
 40
0.0
 40
0.0
 40
0.0
 40
0.0
 40
1.0
 40
1.0
 40
1.0
 40
2.0
 40
2.0
 40
2.0
 40
3.0
 40
3.0
 40
3.0
 40
4.0
 40
4.0
 40
4.0
 40
4.0
 10
51.66548108795883
 20
72.74250960632524
 30
0.0
 10
51.66548108795883
 20
73.02118987183577
 30
0.0
 10
51.88772124561488
 20
73.24342733815086
 30
0.0
 10
52.16639881978478
 20
73.24342733815086
 30
0.0
 10
52.44507639395468
 20
73.24342733815086
 30
0.0
 10
52.66731655161073
 20
73.02118852616529
 30
0.0
 10
52.66731655161073
 20
72.74250960632524
 30
0.0
 10
52.66731655161073
 20
72.46383068648485
 30
0.0
 10
52.44155073751056
 20
72.24159187449896
 30
0.0
 10
52.16639881978478
 20
72.24159187449896
 30
0.0
 10
51.891246902059
 20
72.24159187449896
 30
0.0
 10
51.66548108795883
 20
72.46383068648485
 30
0.0
 10
51.66548108795883
 20
72.74250960632524
 30
0.0
  0
SPLINE
  5
C3
330
79
100
AcDbEntity
  8
Ebene 1
 62
     5
420
      255
370
     9
100
AcDbSpline
210
0.0
220
0.0
230
1.0
 70
     9
 71
     3
 72
    17
 73
    13
 74
     0
 42
0.0000000001
 43
0.0000000001
 40
0.0
 40
0.0
 40
0.0
 40
0.0
 40
1.0
 40
1.0
 40
1.0
 40
2.0
 40
2.0
 40
2.0
 40
3.0
 40
3.0
 40
3.0
 40
4.0
 40
4.0
 40
4.0
 40
4.0
 10
51.66548108795883
 20
70.74236433546523
 30
0.0
 10
51.66548108795883
 20
71.0210446009761
 30
0.0
 10
51.88772124561488
 20
71.2432820672915
 30
0.0
 10
52.16639881978478
 20
71.2432820672915
 30
0.0
 10
52.44507639395468
 20
71.2432820672915
 30
0.0
 10
52.66731655161073
 20
71.02104325530561
 30
0.0
 10
52.66731655161073
 20
70.74236433546523
 30
0.0
 10
52.66731655161073
 20
70.46368541562518
 30
0.0
 10
52.44155073751056
 20
70.2414466036396
 30
0.0
 10
52.16639881978478
 20
70.2414466036396
 30
0.0
 10
51.891246902059
 20
70.2414466036396
 30
0.0
 10
51.66548108795883
 20
70.46368541562518
 30
0.0
 10
51.66548108795883
 20
70.74236433546523
 30
0.0
  0
SPLINE
  5
C4
330
79
100
AcDbEntity
  8
Ebene 1
 62
     5
420
      255
370
     9
100
AcDbSpline
210
0.0
220
0.0
230
1.0
 70
    11
 71
     3
 72
    17
 73
    13
 74
     0
 42
0.0000000001
 43
0.0000000001
 40
0.0
 40
0.0
 40
0.0
 40
0.0
 40
1.0
 40
1.0
 40
1.0
 40
2.0
 40
2.0
 40
2.0
 40
3.0
 40
3.0
 40
3.0
 40
4.0
 40
4.0
 40
4.0
 40
4.0
 10
51.66548108795883
 20
68.74221906460587
 30
0.0
 10
51.66548108795883
 20
69.02089933011641
 30
0.0
 10
51.88772124561488
 20
69.2431367964315
 30
0.0
 10
52.16639881978478
 20
69.2431367964315
 30
0.0
 10
52.44507639395468
 20
69.2431367964315
 30
0.0
 10
52.66731655161073
 20
69.02089933011641
 30
0.0
 10
52.66731655161073
 20
68.74221906460587
 30
0.0
 10
52.66731655161073
 20
68.46353879909502
 30
0.0
 10
52.44155073751056
 20
68.2413013327796
 30
0.0
 10
52.16639881978478
 20
68.2413013327796
 30
0.0
 10
51.891246902059
 20
68.2413013327796
 30
0.0
 10
51.66548108795883
 20
68.46353879909502
 30
0.0
 10
51.66548108795883
 20
68.74221906460587
 30
0.0
  0
SPLINE
  5
C5
330
79
100
AcDbEntity
  8
Ebene 1
 62
     5
420
      255
370
     9
100
AcDbSpline
210
0.0
220
0.0
230
1.0
 70
     9
 71
     3
 72
    44
 73
    40
 74
     0
 42
0.0000000001
 43
0.0000000001
 40
0.0
 40
0.0
 40
0.0
 40
0.0
 40
1.0
 40
1.0
 40
1.0
 40
2.0
 40
2.0
 40
2.0
 40
3.0
 40
3.0
 40
3.0
 40
4.0
 40
4.0
 40
4.0
 40
5.0
 40
5.0
 40
5.0
 40
6.0
 40
6.0
 40
6.0
 40
7.0
 40
7.0
 40
7.0
 40
8.0
 40
8.0
 40
8.0
 40
9.0
 40
9.0
 40
9.0
 40
10.0
 40
10.0
 40
10.0
 40
11.0
 40
11.0
 40
11.0
 40
12.0
 40
12.0
 40
12.0
 40
13.0
 40
13.0
 40
13.0
 40
13.0
 10
41.20616640989026
 20
71.90294315334887
 30
0.0
 10
41.23438780948798
 20
71.51843533068744
 30
0.0
 10
40.94159684417842
 20
71.18331361165163
 30
0.0
 10
40.55709036718748
 20
71.15509355772438
 30
0.0
 10
40.55709036718748
 20
71.15509355772438
 30
0.0
 10
22.36175878871042
 20
69.88163317846129
 30
0.0
 10
22.36175878871042
 20
69.88163317846129
 30
0.0
 10
22.36175878871042
 20
69.88163317846129
 30
0.0
 10
23.69166062149879
 20
62.56540354155196
 30
0.0
 10
23.69166062149879
 20
62.56540354155196
 30
0.0
 10
23.69166062149879
 20
62.56540354155196
 30
0.0
 10
38.78270821908733
 20
63.62368180439929
 30
0.0
 10
38.78270821908733
 20
63.62368180439929
 30
0.0
 10
38.78270821908733
 20
63.62368180439929
 30
0.0
 10
54.76270837327752
 20
63.62368180439929
 30
0.0
 10
54.76270837327752
 20
63.62368180439929
 30
0.0
 10
54.76270837327752
 20
63.62368180439929
 30
0.0
 10
54.78740411643112
 20
70.12503804014524
 30
0.0
 10
54.78740411643112
 20
70.12503804014524
 30
0.0
 10
54.78740411643112
 20
70.51307286492094
 30
0.0
 10
55.10135978576856
 20
70.82702987992887
 30
0.0
 10
55.48939730188522
 20
70.82702987992887
 30
0.0
 10
55.48939730188522
 20
70.82702987992887
 30
0.0
 10
57.73647309087297
 20
70.82702987992887
 30
0.0
 10
57.73647309087297
 20
70.82702987992887
 30
0.0
 10
57.73647309087297
 20
70.82702987992887
 30
0.0
 10
57.73647309087297
 20
80.77484581982803
 30
0.0
 10
57.73647309087297
 20
80.77484581982803
 30
0.0
 10
57.73647309087297
 20
80.77484581982803
 30
0.0
 10
40.58178072765948
 20
80.77484581982803
 30
0.0
 10
40.58178072765948
 20
80.77484581982803
 30
0.0
 10
40.58178072765948
 20
80.77484581982803
 30
0.0
 10
41.20263806210519
 20
71.89941884257523
 30
0.0
 10
41.20263806210519
 20
71.89941884257523
 30
0.0
 10
41.20263806210519
 20
71.89941884257523
 30
0.0
 10
41.20263806210519
 20
71.89941884257523
 30
0.0
 10
41.20263806210519
 20
71.89941884257523
 30
0.0
 10
41.20263806210519
 20
71.89941884257523
 30
0.0
 10
41.20616640989026
 20
71.90294315334887
 30
0.0
 10
41.20616640989026
 20
71.90294315334887
 30
0.0
  0
SPLINE
  5
C6
330
79
100
AcDbEntity
  8
Ebene 1
 62
     5
420
      255
370
     9
100
AcDbSpline
210
0.0
220
0.0
230
1.0
 70
    11
 71
     3
 72
    17
 73
    13
 74
     0
 42
0.0000000001
 43
0.0000000001
 40
0.0
 40
0.0
 40
0.0
 40
0.0
 40
1.0
 40
1.0
 40
1.0
 40
2.0
 40
2.0
 40
2.0
 40
3.0
 40
3.0
 40
3.0
 40
4.0
 40
4.0
 40
4.0
 40
4.0
 10
20.36513917429486
 20
86.21792042855044
 30
0.0
 10
20.36513917429486
 20
86.79997333854956
 30
0.0
 10
20.83430985007897
 20
87.26914334149844
 30
0.0
 10
21.41636208724285
 20
87.26914334149844
 30
0.0
 10
21.9984143244064
 20
87.26914334149844
 30
0.0
 10
22.46758500019084
 20
86.79997333854956
 30
0.0
 10
22.46758500019084
 20
86.21792042855044
 30
0.0
 10
22.46758500019084
 20
85.63586751855131
 30
0.0
 10
21.99488732229213
 20
85.16669751560245
 30
0.0
 10
21.41636208724285
 20
85.16669751560245
 30
0.0
 10
20.83783685219357
 20
85.16669751560245
 30
0.0
 10
20.36513917429486
 20
85.63586751855131
 30
0.0
 10
20.36513917429486
 20
86.21792042855044
 30
0.0
  0
SPLINE
  5
C7
330
79
100
AcDbEntity
  8
Ebene 1
 62
     5
420
      255
370
     9
100
AcDbSpline
210
0.0
220
0.0
230
1.0
 70
    11
 71
     3
 72
    17
 73
    13
 74
     0
 42
0.0000000001
 43
0.0000000001
 40
0.0
 40
0.0
 40
0.0
 40
0.0
 40
1.0
 40
1.0
 40
1.0
 40
2.0
 40
2.0
 40
2.0
 40
3.0
 40
3.0
 40
3.0
 40
4.0
 40
4.0
 40
4.0
 40
4.0
 10
35.20572790597026
 20
87.22681258777218
 30
0.0
 10
35.20572790597026
 20
87.80886549777127
 30
0.0
 10
35.67489858175469
 20
88.27803550072017
 30
0.0
 10
36.25695216458872
 20
88.27803550072017
 30
0.0
 10
36.83900574742277
 20
88.27803550072017
 30
0.0
 10
37.3081764232072
 20
87.80886549777127
 30
0.0
 10
37.3081764232072
 20
87.22681258777218
 30
0.0
 10
37.3081764232072
 20
86.64475967777338
 30
0.0
 10
36.83548009097897
 20
86.1755896748245
 30
0.0
 10
36.25695216458872
 20
86.1755896748245
 30
0.0
 10
35.67842423819849
 20
86.1755896748245
 30
0.0
 10
35.20572790597026
 20
86.64475967777338
 30
0.0
 10
35.20572790597026
 20
87.22681258777218
 30
0.0
  0
SPLINE
  5
C8
330
79
100
AcDbEntity
  8
Ebene 1
 62
     5
420
      255
370
     9
100
AcDbSpline
210
0.0
220
0.0
230
1.0
 70
     9
 71
     3
 72
    38
 73
    34
 74
     0
 42
0.0000000001
 43
0.0000000001
 40
0.0
 40
0.0
 40
0.0
 40
0.0
 40
1.0
 40
1.0
 40
1.0
 40
2.0
 40
2.0
 40
2.0
 40
3.0
 40
3.0
 40
3.0
 40
4.0
 40
4.0
 40
4.0
 40
5.0
 40
5.0
 40
5.0
 40
6.0
 40
6.0
 40
6.0
 40
7.0
 40
7.0
 40
7.0
 40
8.0
 40
8.0
 40
8.0
 40
9.0
 40
9.0
 40
9.0
 40
10.0
 40
10.0
 40
10.0
 40
11.0
 40
11.0
 40
11.0
 40
11.0
 10
0.7517148985394626
 20
89.82664947979696
 30
0.0
 10
0.3672071179304961
 20
89.82664947979696
 30
0.0
 10
0.0532512383320168
 20
89.51622114899157
 30
0.0
 10
0.0532512383320168
 20
89.12818565138062
 30
0.0
 10
0.0532512383320168
 20
89.12818565138062
 30
0.0
 10
0.0532512383320168
 20
67.74038090961302
 30
0.0
 10
0.0532512383320168
 20
67.74038090961302
 30
0.0
 10
0.0532512383320168
 20
67.74038090961302
 30
0.0
 10
15.5076417863452
 20
70.46368406995469
 30
0.0
 10
15.5076417863452
 20
70.46368406995469
 30
0.0
 10
15.88862260689203
 20
70.5307078754936
 30
0.0
 10
16.25196437985509
 20
70.27672200746621
 30
0.0
 10
16.318988185394
 20
69.89574118691937
 30
0.0
 10
16.318988185394
 20
69.89574118691937
 30
0.0
 10
19.10931515127459
 20
53.98982018816743
 30
0.0
 10
19.10931515127459
 20
53.98982018816743
 30
0.0
 10
19.23278041033878
 20
53.27724734204033
 30
0.0
 10
20.29105867318612
 20
53.40423825754832
 30
0.0
 10
20.24167256956051
 20
54.12739614703032
 30
0.0
 10
20.24167256956051
 20
54.12739614703032
 30
0.0
 10
18.31560645413908
 20
81.96011499818366
 30
0.0
 10
18.31560645413908
 20
81.96011499818366
 30
0.0
 10
18.28738505454136
 20
82.34815049579463
 30
0.0
 10
18.58017601985092
 20
82.6797445398806
 30
0.0
 10
18.96468384251235
 20
82.70796459380784
 30
0.0
 10
18.96468384251235
 20
82.70796459380784
 30
0.0
 10
40.77227113793274
 20
84.23188518465455
 30
0.0
 10
40.77227113793274
 20
84.23188518465455
 30
0.0
 10
40.77227113793274
 20
84.23188518465455
 30
0.0
 10
40.76168878591879
 20
89.82664947979696
 30
0.0
 10
40.76168878591879
 20
89.82664947979696
 30
0.0
 10
40.76168878591879
 20
89.82664947979696
 30
0.0
 10
0.7517148985394626
 20
89.82664947979696
 30
0.0
 10
0.7517148985394626
 20
89.82664947979696
 30
0.0
  0
ENDBLK
  5
7C
330
79
100
AcDbEntity
  8
0
100
AcDbBlockEnd
  0
BLOCK
  5
CB
330
C9
100
AcDbEntity
  8
0
100
AcDbBlockBegin
  2
Block_1
 70
     0
 10
0.0
 20
0.0
 30
0.0
  3
Block_1
  1

  0
LWPOLYLINE
  5
CD
330
C9
100
AcDbEntity
  8
Ebene 1
100
AcDbPolyline
 90
        6
 70
     1
 43
0.0
 10
97.22436353314577
 20
86.27436188207573
 10
97.22436353314577
 20
68.85510197165579
 10
103.9973379561508
 20
68.85510197165579
 10
103.9973379561508
 20
69.32779830388402
 10
97.69705986537399
 20
69.32779830388402
 10
97.69705986537399
 20
86.27436188207573
  0
HATCH
  5
CE
330
C9
100
AcDbEntity
  8
Ebene 1
 62
     6
420
 16711935
440
 33554687
100
AcDbHatch
 10
0.0
 20
0.0
 30
0.0
210
0.0
220
0.0
230
1.0
  2
SOLID
 70
     1
 71
     1
 91
        1
 92
        1
 93
        6
 72
     1
 10
97.22436353314577
 20
86.27436188207573
 11
97.22436353314577
 21
68.85510197165579
 72
     1
 10
97.22436353314577
 20
68.85510197165579
 11
103.9973379561508
 21
68.85510197165579
 72
     1
 10
103.9973379561508
 20
68.85510197165579
 11
103.9973379561508
 21
69.32779830388402
 72
     1
 10
103.9973379561508
 20
69.32779830388402
 11
97.69705986537399
 21
69.32779830388402
 72
     1
 10
97.69705986537399
 20
69.32779830388402
 11
97.69705986537399
 21
86.27436188207573
 72
     1
 10
97.69705986537399
 20
86.27436188207573
 11
97.22436353314577
 21
86.27436188207573
 97
        1
330
CD
 75
     2
 76
     1
 98
        1
 10
0.0
 20
0.0
450
        0
451
        0
460
0.0
461
0.0
452
        0
462
0.0
453
        0
470

  0
LWPOLYLINE
  5
CF
330
C9
100
AcDbEntity
  8
Ebene 1
100
AcDbPolyline
 90
       11
 70
     1
 43
0.0
 10
84.90953085596864
 20
75.05308489007792
 10
89.01917595695316
 20
83.21946535048297
 10
93.12530078417518
 20
75.05308489007792
 10
93.65796018936135
 20
75.05308489007792
 10
89.283745522665
 20
83.74860448190664
 10
93.65796018936135
 20
92.48998317524637
 10
93.1288210579377
 20
92.48998317524637
 10
85.02946776724774
 20
76.35123966682446
 10
85.02946776724774
 20
92.48998317524637
 10
84.55677143501953
 20
92.48998317524637
 10
84.55677143501953
 20
75.05308489007792
  0
HATCH
  5
D0
330
C9
100
AcDbEntity
  8
Ebene 1
 62
     6
420
 16711935
440
 33554687
100
AcDbHatch
 10
0.0
 20
0.0
 30
0.0
210
0.0
220
0.0
230
1.0
  2
SOLID
 70
     1
 71
     1
 91
        1
 92
        1
 93
       11
 72
     1
 10
84.90953085596864
 20
75.05308489007792
 11
89.01917595695316
 21
83.21946535048297
 72
     1
 10
89.01917595695316
 20
83.21946535048297
 11
93.12530078417518
 21
75.05308489007792
 72
     1
 10
93.12530078417518
 20
75.05308489007792
 11
93.65796018936135
 21
75.05308489007792
 72
     1
 10
93.65796018936135
 20
75.05308489007792
 11
89.283745522665
 21
83.74860448190664
 72
     1
 10
89.283745522665
 20
83.74860448190664
 11
93.65796018936135
 21
92.48998317524637
 72
     1
 10
93.65796018936135
 20
92.48998317524637
 11
93.1288210579377
 21
92.48998317524637
 72
     1
 10
93.1288210579377
 20
92.48998317524637
 11
85.02946776724774
 21
76.35123966682446
 72
     1
 10
85.02946776724774
 20
76.35123966682446
 11
85.02946776724774
 21
92.48998317524637
 72
     1
 10
85.02946776724774
 20
92.48998317524637
 11
84.55677143501953
 21
92.48998317524637
 72
     1
 10
84.55677143501953
 20
92.48998317524637
 11
84.55677143501953
 21
75.05308489007792
 72
     1
 10
84.55677143501953
 20
75.05308489007792
 11
84.90953085596864
 21
75.05308489007792
 97
        1
330
CF
 75
     2
 76
     1
 98
        1
 10
0.0
 20
0.0
450
        0
451
        0
460
0.0
461
0.0
452
        0
462
0.0
453
        0
470

  0
LWPOLYLINE
  5
D1
330
C9
100
AcDbEntity
  8
Ebene 1
100
AcDbPolyline
 90
        4
 70
     1
 43
0.0
 10
84.47916393179619
 20
64.61493491603724
 10
107.0592979116651
 20
64.61493491603724
 10
107.0592979116651
 20
64.14223858380902
 10
84.47916393179619
 20
64.14223858380902
  0
HATCH
  5
D2
330
C9
100
AcDbEntity
  8
Ebene 1
 62
     6
420
 16711935
440
 33554687
100
AcDbHatch
 10
0.0
 20
0.0
 30
0.0
210
0.0
220
0.0
230
1.0
  2
SOLID
 70
     1
 71
     1
 91
        1
 92
        1
 93
        4
 72
     1
 10
84.47916393179619
 20
64.61493491603724
 11
107.0592979116651
 21
64.61493491603724
 72
     1
 10
107.0592979116651
 20
64.61493491603724
 11
107.0592979116651
 21
64.14223858380902
 72
     1
 10
107.0592979116651
 20
64.14223858380902
 11
84.47916393179619
 21
64.14223858380902
 72
     1
 10
84.47916393179619
 20
64.14223858380902
 11
84.47916393179619
 21
64.61493491603724
 97
        1
330
D1
 75
     2
 76
     1
 98
        1
 10
0.0
 20
0.0
450
        0
451
        0
460
0.0
461
0.0
452
        0
462
0.0
453
        0
470

  0
SPLINE
  5
D3
330
C9
100
AcDbEntity
  8
Ebene 1
100
AcDbSpline
210
0.0
220
0.0
230
1.0
 70
     9
 71
     3
 72
    17
 73
    13
 74
     0
 42
0.0000000001
 43
0.0000000001
 40
0.0
 40
0.0
 40
0.0
 40
0.0
 40
1.0
 40
1.0
 40
1.0
 40
2.0
 40
2.0
 40
2.0
 40
3.0
 40
3.0
 40
3.0
 40
4.0
 40
4.0
 40
4.0
 40
4.0
 10
122.6300931543701
 20
64.61493491603724
 30
0.0
 10
118.0900811292131
 20
64.61493491603724
 30
0.0
 10
114.4002206003871
 20
68.30832648398899
 30
0.0
 10
114.4002206003871
 20
72.84481285270217
 30
0.0
 10
114.4002206003871
 20
77.38129922141471
 30
0.0
 10
118.0936121683389
 20
81.07469078936645
 30
0.0
 10
122.6300931543701
 20
81.07469078936645
 30
0.0
 10
127.1665741404014
 20
81.07469078936645
 30
0.0
 10
130.8599657083531
 20
77.38129922141471
 30
0.0
 10
130.8599657083531
 20
72.84481285270217
 30
0.0
 10
130.8599657083531
 20
68.30832648398899
 30
0.0
 10
127.1665741404014
 20
64.61493491603724
 30
0.0
 10
122.6300931543701
 20
64.61493491603724
 30
0.0
  0
SPLINE
  5
D4
330
C9
100
AcDbEntity
  8
Ebene 1
100
AcDbSpline
210
0.0
220
0.0
230
1.0
 70
     9
 71
     3
 72
    17
 73
    13
 74
     0
 42
0.0000000001
 43
0.0000000001
 40
0.0
 40
0.0
 40
0.0
 40
0.0
 40
1.0
 40
1.0
 40
1.0
 40
2.0
 40
2.0
 40
2.0
 40
3.0
 40
3.0
 40
3.0
 40
4.0
 40
4.0
 40
4.0
 40
4.0
 10
122.6300931543701
 20
81.55091345087404
 30
0.0
 10
117.829042602627
 20
81.55091345087404
 30
0.0
 10
113.9239932290332
 20
77.6458660957859
 30
0.0
 10
113.9239932290332
 20
72.84481016136121
 30
0.0
 10
113.9239932290332
 20
68.04375422693651
 30
0.0
 10
117.829042602627
 20
64.13870754468331
 30
0.0
 10
122.6300931543701
 20
64.13870754468331
 30
0.0
 10
127.4311437061132
 20
64.13870754468331
 30
0.0
 10
131.3361930797071
 20
68.04375422693651
 30
0.0
 10
131.3361930797071
 20
72.84481016136121
 30
0.0
 10
131.3361930797071
 20
77.6458660957859
 30
0.0
 10
127.4311437061132
 20
81.55091277803911
 30
0.0
 10
122.6300931543701
 20
81.55091345087404
 30
0.0
  0
HATCH
  5
D5
330
C9
100
AcDbEntity
  8
Ebene 1
 62
     6
420
 16711935
440
 33554687
100
AcDbHatch
 10
0.0
 20
0.0
 30
0.0
210
0.0
220
0.0
230
1.0
  2
SOLID
 70
     1
 71
     1
 91
        2
 92
        1
 93
        1
 72
     4
 94
        3
 73
     0
 74
     0
 95
       17
 96
       13
 40
0.0
 40
0.0
 40
0.0
 40
0.0
 40
1.0
 40
1.0
 40
1.0
 40
2.0
 40
2.0
 40
2.0
 40
3.0
 40
3.0
 40
3.0
 40
4.0
 40
4.0
 40
4.0
 40
4.0
 10
122.6300931543701
 20
64.61493491603724
 10
118.0900811292131
 20
64.61493491603724
 10
114.4002206003871
 20
68.30832648398899
 10
114.4002206003871
 20
72.84481285270217
 10
114.4002206003871
 20
77.38129922141471
 10
118.0936121683389
 20
81.07469078936645
 10
122.6300931543701
 20
81.07469078936645
 10
127.1665741404014
 20
81.07469078936645
 10
130.8599657083531
 20
77.38129922141471
 10
130.8599657083531
 20
72.84481285270217
 10
130.8599657083531
 20
68.30832648398899
 10
127.1665741404014
 20
64.61493491603724
 10
122.6300931543701
 20
64.61493491603724
 97
        0
 97
        1
330
D3
 92
        1
 93
        1
 72
     4
 94
        3
 73
     0
 74
     0
 95
       17
 96
       13
 40
0.0
 40
0.0
 40
0.0
 40
0.0
 40
1.0
 40
1.0
 40
1.0
 40
2.0
 40
2.0
 40
2.0
 40
3.0
 40
3.0
 40
3.0
 40
4.0
 40
4.0
 40
4.0
 40
4.0
 10
122.6300931543701
 20
81.55091345087404
 10
117.829042602627
 20
81.55091345087404
 10
113.9239932290332
 20
77.6458660957859
 10
113.9239932290332
 20
72.84481016136121
 10
113.9239932290332
 20
68.04375422693651
 10
117.829042602627
 20
64.13870754468331
 10
122.6300931543701
 20
64.13870754468331
 10
127.4311437061132
 20
64.13870754468331
 10
131.3361930797071
 20
68.04375422693651
 10
131.3361930797071
 20
72.84481016136121
 10
131.3361930797071
 20
77.6458660957859
 10
127.4311437061132
 20
81.55091277803911
 10
122.6300931543701
 20
81.55091345087404
 97
        0
 97
        1
330
D4
 75
     2
 76
     1
 98
        1
 10
0.0
 20
0.0
450
        0
451
        0
460
0.0
461
0.0
452
        0
462
0.0
453
        0
470

  0
SPLINE
  5
D6
330
C9
100
AcDbEntity
  8
Ebene 1
100
AcDbSpline
210
0.0
220
0.0
230
1.0
 70
    11
 71
     3
 72
    20
 73
    16
 74
     0
 42
0.0000000001
 43
0.0000000001
 40
0.0
 40
0.0
 40
0.0
 40
0.0
 40
1.0
 40
1.0
 40
1.0
 40
2.0
 40
2.0
 40
2.0
 40
3.0
 40
3.0
 40
3.0
 40
4.0
 40
4.0
 40
4.0
 40
5.0
 40
5.0
 40
5.0
 40
5.0
 10
135.1142542291336
 20
77.17316976355768
 30
0.0
 10
135.1142542291336
 20
77.17316976355768
 30
0.0
 10
135.1142542291336
 20
85.48770853483924
 30
0.0
 10
135.1142542291336
 20
85.48770853483924
 30
0.0
 10
135.1142542291336
 20
85.48770853483924
 30
0.0
 10
143.107783999684
 20
85.48770853483924
 30
0.0
 10
143.107783999684
 20
85.48770853483924
 30
0.0
 10
143.107783999684
 20
85.48770853483924
 30
0.0
 10
143.107783999684
 20
77.18022376778655
 30
0.0
 10
143.107783999684
 20
77.18022376778655
 30
0.0
 10
143.107783999684
 20
77.18022376778655
 30
0.0
 10
135.1142542291336
 20
77.18022376778655
 30
0.0
 10
135.1142542291336
 20
77.18022376778655
 30
0.0
 10
135.1142542291336
 20
77.18022376778655
 30
0.0
 10
135.1142542291336
 20
77.17316976355768
 30
0.0
 10
135.1142542291336
 20
77.17316976355768
 30
0.0
  0
SPLINE
  5
D7
330
C9
100
AcDbEntity
  8
Ebene 1
100
AcDbSpline
210
0.0
220
0.0
230
1.0
 70
    11
 71
     3
 72
    38
 73
    34
 74
     0
 42
0.0000000001
 43
0.0000000001
 40
0.0
 40
0.0
 40
0.0
 40
0.0
 40
1.0
 40
1.0
 40
1.0
 40
2.0
 40
2.0
 40
2.0
 40
3.0
 40
3.0
 40
3.0
 40
4.0
 40
4.0
 40
4.0
 40
5.0
 40
5.0
 40
5.0
 40
6.0
 40
6.0
 40
6.0
 40
7.0
 40
7.0
 40
7.0
 40
8.0
 40
8.0
 40
8.0
 40
9.0
 40
9.0
 40
9.0
 40
10.0
 40
10.0
 40
10.0
 40
11.0
 40
11.0
 40
11.0
 40
11.0
 10
143.5804803319123
 20
76.70399908777357
 30
0.0
 10
143.5804803319123
 20
76.70399908777357
 30
0.0
 10
143.5804803319123
 20
85.96040621273795
 30
0.0
 10
143.5804803319123
 20
85.96040621273795
 30
0.0
 10
143.5804803319123
 20
85.96040621273795
 30
0.0
 10
134.6380268577796
 20
85.96040621273795
 30
0.0
 10
134.6380268577796
 20
85.96040621273795
 30
0.0
 10
134.6380268577796
 20
85.96040621273795
 30
0.0
 10
134.6380268577796
 20
68.53408960674852
 30
0.0
 10
134.6380268577796
 20
68.53408960674852
 30
0.0
 10
134.6380268577796
 20
68.53408960674852
 30
0.0
 10
135.1107231900079
 20
68.53408960674852
 30
0.0
 10
135.1107231900079
 20
68.53408960674852
 30
0.0
 10
135.1107231900079
 20
68.53408960674852
 30
0.0
 10
135.1107231900079
 20
76.70752474421769
 30
0.0
 10
135.1107231900079
 20
76.70752474421769
 30
0.0
 10
135.1107231900079
 20
76.70752474421769
 30
0.0
 10
139.1180650446155
 20
76.70752474421769
 30
0.0
 10
139.1180650446155
 20
76.70752474421769
 30
0.0
 10
139.1180650446155
 20
76.70752474421769
 30
0.0
 10
143.2277101456
 20
68.53408960674852
 30
0.0
 10
143.2277101456
 20
68.53408960674852
 30
0.0
 10
143.2277101456
 20
68.53408960674852
 30
0.0
 10
143.7568492770237
 20
68.53408960674852
 30
0.0
 10
143.7568492770237
 20
68.53408960674852
 30
0.0
 10
143.7568492770237
 20
68.53408960674852
 30
0.0
 10
139.6472041760391
 20
76.70752474421769
 30
0.0
 10
139.6472041760391
 20
76.70752474421769
 30
0.0
 10
139.6472041760391
 20
76.70752474421769
 30
0.0
 10
143.5804695665491
 20
76.70752474421769
 30
0.0
 10
143.5804695665491
 20
76.70752474421769
 30
0.0
 10
143.5804695665491
 20
76.70752474421769
 30
0.0
 10
143.5804803319123
 20
76.70399908777357
 30
0.0
 10
143.5804803319123
 20
76.70399908777357
 30
0.0
  0
HATCH
  5
D8
330
C9
100
AcDbEntity
  8
Ebene 1
 62
     6
420
 16711935
440
 33554687
100
AcDbHatch
 10
0.0
 20
0.0
 30
0.0
210
0.0
220
0.0
230
1.0
  2
SOLID
 70
     1
 71
     1
 91
        2
 92
        1
 93
        1
 72
     4
 94
        3
 73
     0
 74
     0
 95
       20
 96
       16
 40
0.0
 40
0.0
 40
0.0
 40
0.0
 40
1.0
 40
1.0
 40
1.0
 40
2.0
 40
2.0
 40
2.0
 40
3.0
 40
3.0
 40
3.0
 40
4.0
 40
4.0
 40
4.0
 40
5.0
 40
5.0
 40
5.0
 40
5.0
 10
135.1142542291336
 20
77.17316976355768
 10
135.1142542291336
 20
77.17316976355768
 10
135.1142542291336
 20
85.48770853483924
 10
135.1142542291336
 20
85.48770853483924
 10
135.1142542291336
 20
85.48770853483924
 10
143.107783999684
 20
85.48770853483924
 10
143.107783999684
 20
85.48770853483924
 10
143.107783999684
 20
85.48770853483924
 10
143.107783999684
 20
77.18022376778655
 10
143.107783999684
 20
77.18022376778655
 10
143.107783999684
 20
77.18022376778655
 10
135.1142542291336
 20
77.18022376778655
 10
135.1142542291336
 20
77.18022376778655
 10
135.1142542291336
 20
77.18022376778655
 10
135.1142542291336
 20
77.17316976355768
 10
135.1142542291336
 20
77.17316976355768
 97
        0
 97
        1
330
D6
 92
        1
 93
        1
 72
     4
 94
        3
 73
     0
 74
     0
 95
       38
 96
       34
 40
0.0
 40
0.0
 40
0.0
 40
0.0
 40
1.0
 40
1.0
 40
1.0
 40
2.0
 40
2.0
 40
2.0
 40
3.0
 40
3.0
 40
3.0
 40
4.0
 40
4.0
 40
4.0
 40
5.0
 40
5.0
 40
5.0
 40
6.0
 40
6.0
 40
6.0
 40
7.0
 40
7.0
 40
7.0
 40
8.0
 40
8.0
 40
8.0
 40
9.0
 40
9.0
 40
9.0
 40
10.0
 40
10.0
 40
10.0
 40
11.0
 40
11.0
 40
11.0
 40
11.0
 10
143.5804803319123
 20
76.70399908777357
 10
143.5804803319123
 20
76.70399908777357
 10
143.5804803319123
 20
85.96040621273795
 10
143.5804803319123
 20
85.96040621273795
 10
143.5804803319123
 20
85.96040621273795
 10
134.6380268577796
 20
85.96040621273795
 10
134.6380268577796
 20
85.96040621273795
 10
134.6380268577796
 20
85.96040621273795
 10
134.6380268577796
 20
68.53408960674852
 10
134.6380268577796
 20
68.53408960674852
 10
134.6380268577796
 20
68.53408960674852
 10
135.1107231900079
 20
68.53408960674852
 10
135.1107231900079
 20
68.53408960674852
 10
135.1107231900079
 20
68.53408960674852
 10
135.1107231900079
 20
76.70752474421769
 10
135.1107231900079
 20
76.70752474421769
 10
135.1107231900079
 20
76.70752474421769
 10
139.1180650446155
 20
76.70752474421769
 10
139.1180650446155
 20
76.70752474421769
 10
139.1180650446155
 20
76.70752474421769
 10
143.2277101456
 20
68.53408960674852
 10
143.2277101456
 20
68.53408960674852
 10
143.2277101456
 20
68.53408960674852
 10
143.7568492770237
 20
68.53408960674852
 10
143.7568492770237
 20
68.53408960674852
 10
143.7568492770237
 20
68.53408960674852
 10
139.6472041760391
 20
76.70752474421769
 10
139.6472041760391
 20
76.70752474421769
 10
139.6472041760391
 20
76.70752474421769
 10
143.5804695665491
 20
76.70752474421769
 10
143.5804695665491
 20
76.70752474421769
 10
143.5804695665491
 20
76.70752474421769
 10
143.5804803319123
 20
76.70399908777357
 10
143.5804803319123
 20
76.70399908777357
 97
        0
 97
        1
330
D7
 75
     2
 76
     1
 98
        1
 10
0.0
 20
0.0
450
        0
451
        0
460
0.0
461
0.0
452
        0
462
0.0
453
        0
470

  0
ENDBLK
  5
CC
330
C9
100
AcDbEntity
  8
0
100
AcDbBlockEnd
  0
ENDSEC
  0
SECTION
  2
ENTITIES
  0
INSERT
  5
7A
330
70
100
AcDbEntity
  8
Ebene 1
100
AcDbBlockReference
  2
Block_0
 10
0.0
 20
0.0
 30
0.0
  0
INSERT
  5
CA
330
70
100
AcDbEntity
  8
Ebene 1
100
AcDbBlockReference
  2
Block_1
 10
0.0
 20
0.0
 30
0.0
  0
ENDSEC
  0
SECTION
  2
OBJECTS
  0
DICTIONARY
  5
C
330
0
100
AcDbDictionary
281
     1
  3
ACAD_COLOR
350
63
  3
ACAD_DETAILVIEWSTYLE
350
6A
  3
ACAD_GROUP
350
D
  3
ACAD_LAYOUT
350
62
  3
ACAD_MATERIAL
350
10
  3
ACAD_MLEADERSTYLE
350
66
  3
ACAD_MLINESTYLE
350
5F
  3
ACAD_PLOTSETTINGS
350
61
  3
ACAD_PLOTSTYLENAME
350
E
  3
ACAD_SCALELIST
350
42
  3
ACAD_SECTIONVIEWSTYLE
350
68
  3
ACAD_TABLESTYLE
350
64
  3
ACAD_VISUALSTYLE
350
29
  3
ACDB_RECOMPOSE_DATA
350
E1
  3
AcDbVariableDictionary
350
D9
  0
DICTIONARY
  5
63
102
{ACAD_REACTORS
330
C
102
}
330
C
100
AcDbDictionary
281
     1
  0
DICTIONARY
  5
6A
102
{ACAD_REACTORS
330
C
102
}
330
C
100
AcDbDictionary
281
     1
  3
Imperial24
350
6B
  0
DICTIONARY
  5
D
102
{ACAD_REACTORS
330
C
102
}
330
C
100
AcDbDictionary
281
     1
  0
DICTIONARY
  5
62
102
{ACAD_REACTORS
330
C
102
}
330
C
100
AcDbDictionary
281
     1
  3
Layout1
350
6F
  3
Layout2
350
77
  3
Model
350
73
  0
DICTIONARY
  5
10
102
{ACAD_REACTORS
330
C
102
}
330
C
100
AcDbDictionary
281
     1
  3
ByBlock
350
19
  3
ByLayer
350
11
  3
Global
350
21
  0
DICTIONARY
  5
66
102
{ACAD_REACTORS
330
C
102
}
330
C
100
AcDbDictionary
281
     1
  3
Standard
350
67
  0
DICTIONARY
  5
5F
102
{ACAD_REACTORS
330
C
102
}
330
C
100
AcDbDictionary
281
     1
  3
Standard
350
60
  0
DICTIONARY
  5
61
102
{ACAD_REACTORS
330
C
102
}
330
C
100
AcDbDictionary
281
     1
  0
ACDBDICTIONARYWDFLT
  5
E
102
{ACAD_REACTORS
330
C
102
}
330
C
100
AcDbDictionary
281
     1
  3
Normal
350
F
100
AcDbDictionaryWithDefault
340
F
  0
DICTIONARY
  5
42
102
{ACAD_REACTORS
330
C
102
}
330
C
100
AcDbDictionary
281
     1
  3
A0
350
43
  3
A1
350
44
  3
A2
350
45
  3
A3
350
46
  3
A4
350
47
  3
A5
350
48
  3
A6
350
49
  3
A7
350
4A
  3
A8
350
4B
  3
A9
350
4C
  3
B0
350
4D
  3
B1
350
4E
  3
B2
350
4F
  3
B3
350
50
  3
B4
350
51
  3
B5
350
52
  3
B6
350
53
  0
DICTIONARY
  5
68
102
{ACAD_REACTORS
330
C
102
}
330
C
100
AcDbDictionary
281
     1
  3
Imperial24
350
69
  0
DICTIONARY
  5
64
102
{ACAD_REACTORS
330
C
102
}
330
C
100
AcDbDictionary
281
     1
  3
Standard
350
65
  0
DICTIONARY
  5
29
102
{ACAD_REACTORS
330
C
102
}
330
C
100
AcDbDictionary
281
     1
  3
2dWireframe
350
2F
  3
Basic
350
2E
  3
Brighten
350
35
  3
ColorChange
350
39
  3
Conceptual
350
32
  3
Dim
350
34
  3
EdgeColorOff
350
41
  3
Facepattern
350
38
  3
Flat
350
2A
  3
FlatWithEdges
350
2B
  3
Gouraud
350
2C
  3
GouraudWithEdges
350
2D
  3
Hidden
350
31
  3
JitterOff
350
3F
  3
Linepattern
350
37
  3
OverhangOff
350
40
  3
Realistic
350
33
  3
Shaded
350
3E
  3
Shaded with edges
350
3D
  3
Shades of Gray
350
3A
  3
Sketchy
350
3B
  3
Thicken
350
36
  3
Wireframe
350
30
  3
X-Ray
350
3C
  0
XRECORD
  5
E1
102
{ACAD_REACTORS
330
C
102
}
330
C
100
AcDbXrecord
280
     1
 90
        1
330
65
  0
DICTIONARY
  5
D9
102
{ACAD_REACTORS
330
C
102
}
330
C
100
AcDbDictionary
281
     1
  3
CANNOSCALE
350
DE
  3
CMLEADERSTYLE
350
DB
  3
CTABLESTYLE
350
DA
  3
CVIEWDETAILSTYLE
350
DC
  3
CVIEWSECTIONSTYLE
350
DD
  0
ACDBDETAILVIEWSTYLE
  5
6B
102
{ACAD_REACTORS
330
6A
102
}
330
6A
100
AcDbModelDocViewStyle
 70
     0
  3
Imperial24
290
     1
300
Imperial24
 90
        0
100
AcDbDetailViewStyle
 70
     0
 71
     0
 90
        3
 71
     1
340
55
 62
   256
 40
0.24
340
0
 62
   256
 40
0.24
300

 40
0.36
280
     3
 71
     2
340
5D
 90
       25
 62
   256
 71
     3
340
55
 62
   256
 40
0.24
 90
        1
 40
0.75
 90
        1
300
%<\AcVar ViewType \f "%tc1">% %<\AcVar ViewDetailId>%\PSCALE %<\AcVar ViewScale \f "%sn">%
 71
     4
340
5D
 90
       25
 62
   256
340
5D
 90
       25
 62
   256
280
     0
  0
LAYOUT
  5
6F
102
{ACAD_REACTORS
330
62
102
}
330
62
100
AcDbPlotSettings
  1

  2

  4

  6

 40
0.0
 41
0.0
 42
0.0
 43
0.0
 44
0.0
 45
0.0
 46
0.0
 47
0.0
 48
0.0
 49
0.0
140
0.0
141
0.0
142
1.0
143
1.0
 70
   688
 72
     0
 73
     0
 74
     5
  7

 75
    16
147
1.0
 76
     0
 77
     2
 78
   300
148
0.0
149
0.0
100
AcDbLayout
  1
Layout1
 70
     1
 71
     1
 10
0.0
 20
0.0
 11
12.0
 21
9.0
 12
0.0
 22
0.0
 32
0.0
 14
0.0
 24
0.0
 34
0.0
 15
0.0
 25
0.0
 35
0.0
146
0.0
 13
0.0
 23
0.0
 33
0.0
 16
1.0
 26
0.0
 36
0.0
 17
0.0
 27
1.0
 37
0.0
 76
     0
330
6C
  0
LAYOUT
  5
77
102
{ACAD_REACTORS
330
62
102
}
330
62
100
AcDbPlotSettings
  1

  2

  4

  6

 40
0.0
 41
0.0
 42
0.0
 43
0.0
 44
0.0
 45
0.0
 46
0.0
 47
0.0
 48
0.0
 49
0.0
140
0.0
141
0.0
142
1.0
143
1.0
 70
   688
 72
     0
 73
     0
 74
     5
  7

 75
    16
147
1.0
 76
     0
 77
     2
 78
   300
148
0.0
149
0.0
100
AcDbLayout
  1
Layout2
 70
     1
 71
     2
 10
0.0
 20
0.0
 11
12.0
 21
9.0
 12
0.0
 22
0.0
 32
0.0
 14
0.0
 24
0.0
 34
0.0
 15
0.0
 25
0.0
 35
0.0
146
0.0
 13
0.0
 23
0.0
 33
0.0
 16
1.0
 26
0.0
 36
0.0
 17
0.0
 27
1.0
 37
0.0
 76
     0
330
74
  0
LAYOUT
  5
73
102
{ACAD_REACTORS
330
62
102
}
330
62
100
AcDbPlotSettings
  1

  2

  4

  6

 40
0.0
 41
0.0
 42
0.0
 43
0.0
 44
0.0
 45
0.0
 46
0.0
 47
0.0
 48
0.0
 49
0.0
140
0.0
141
0.0
142
1.0
143
1.0
 70
  1712
 72
     0
 73
     0
 74
     0
  7

 75
     0
147
1.0
 76
     0
 77
     2
 78
   300
148
0.0
149
0.0
100
AcDbLayout
  1
Model
 70
     1
 71
     0
 10
0.0
 20
0.0
 11
12.0
 21
9.0
 12
0.0
 22
0.0
 32
0.0
 14
0.0
 24
0.0
 34
0.0
 15
0.0
 25
0.0
 35
0.0
146
0.0
 13
0.0
 23
0.0
 33
0.0
 16
1.0
 26
0.0
 36
0.0
 17
0.0
 27
1.0
 37
0.0
 76
     0
330
70
  0
MATERIAL
  5
19
102
{ACAD_XDICTIONARY
360
1A
102
}
102
{ACAD_REACTORS
330
10
102
}
330
10
100
AcDbMaterial
  1
ByBlock
 72
     0
 43
0.0208333333333333
 43
0.0
 43
0.0
 43
0.0
 43
0.0
 43
0.0208333333333333
 43
0.0
 43
0.0
 43
0.0
 43
0.0
 43
1.0
 43
0.0
 43
0.0
 43
0.0
 43
0.0
 43
1.0
 77
     0
 47
0.0208333333333333
 47
0.0
 47
0.0
 47
0.0
 47
0.0
 47
0.0208333333333333
 47
0.0
 47
0.0
 47
0.0
 47
0.0
 47
1.0
 47
0.0
 47
0.0
 47
0.0
 47
0.0
 47
1.0
171
     0
 49
0.0208333333333333
 49
0.0
 49
0.0
 49
0.0
 49
0.0
 49
0.0208333333333333
 49
0.0
 49
0.0
 49
0.0
 49
0.0
 49
1.0
 49
0.0
 49
0.0
 49
0.0
 49
0.0
 49
1.0
175
     0
142
0.0208333333333333
142
0.0
142
0.0
142
0.0
142
0.0
142
0.0208333333333333
142
0.0
142
0.0
142
0.0
142
0.0
142
1.0
142
0.0
142
0.0
142
0.0
142
0.0
142
1.0
179
     0
144
0.0208333333333333
144
0.0
144
0.0
144
0.0
144
0.0
144
0.0208333333333333
144
0.0
144
0.0
144
0.0
144
0.0
144
1.0
144
0.0
144
0.0
144
0.0
144
0.0
144
1.0
147
0.0208333333333333
147
0.0
147
0.0
147
0.0
147
0.0
147
0.0208333333333333
147
0.0
147
0.0
147
0.0
147
0.0
147
1.0
147
0.0
147
0.0
147
0.0
147
0.0
147
1.0
  0
MATERIAL
  5
11
102
{ACAD_XDICTIONARY
360
12
102
}
102
{ACAD_REACTORS
330
10
102
}
330
10
100
AcDbMaterial
  1
ByLayer
 72
     0
 43
0.0208333333333333
 43
0.0
 43
0.0
 43
0.0
 43
0.0
 43
0.0208333333333333
 43
0.0
 43
0.0
 43
0.0
 43
0.0
 43
1.0
 43
0.0
 43
0.0
 43
0.0
 43
0.0
 43
1.0
 77
     0
 47
0.0208333333333333
 47
0.0
 47
0.0
 47
0.0
 47
0.0
 47
0.0208333333333333
 47
0.0
 47
0.0
 47
0.0
 47
0.0
 47
1.0
 47
0.0
 47
0.0
 47
0.0
 47
0.0
 47
1.0
171
     0
 49
0.0208333333333333
 49
0.0
 49
0.0
 49
0.0
 49
0.0
 49
0.0208333333333333
 49
0.0
 49
0.0
 49
0.0
 49
0.0
 49
1.0
 49
0.0
 49
0.0
 49
0.0
 49
0.0
 49
1.0
175
     0
142
0.0208333333333333
142
0.0
142
0.0
142
0.0
142
0.0
142
0.0208333333333333
142
0.0
142
0.0
142
0.0
142
0.0
142
1.0
142
0.0
142
0.0
142
0.0
142
0.0
142
1.0
179
     0
144
0.0208333333333333
144
0.0
144
0.0
144
0.0
144
0.0
144
0.0208333333333333
144
0.0
144
0.0
144
0.0
144
0.0
144
1.0
144
0.0
144
0.0
144
0.0
144
0.0
144
1.0
147
0.0208333333333333
147
0.0
147
0.0
147
0.0
147
0.0
147
0.0208333333333333
147
0.0
147
0.0
147
0.0
147
0.0
147
1.0
147
0.0
147
0.0
147
0.0
147
0.0
147
1.0
  0
MATERIAL
  5
21
102
{ACAD_XDICTIONARY
360
22
102
}
102
{ACAD_REACTORS
330
10
102
}
330
10
100
AcDbMaterial
  1
Global
 72
     0
 43
0.0208333333333333
 43
0.0
 43
0.0
 43
0.0
 43
0.0
 43
0.0208333333333333
 43
0.0
 43
0.0
 43
0.0
 43
0.0
 43
1.0
 43
0.0
 43
0.0
 43
0.0
 43
0.0
 43
1.0
 77
     0
 47
0.0208333333333333
 47
0.0
 47
0.0
 47
0.0
 47
0.0
 47
0.0208333333333333
 47
0.0
 47
0.0
 47
0.0
 47
0.0
 47
1.0
 47
0.0
 47
0.0
 47
0.0
 47
0.0
 47
1.0
171
     0
 49
0.0208333333333333
 49
0.0
 49
0.0
 49
0.0
 49
0.0
 49
0.0208333333333333
 49
0.0
 49
0.0
 49
0.0
 49
0.0
 49
1.0
 49
0.0
 49
0.0
 49
0.0
 49
0.0
 49
1.0
175
     0
142
0.0208333333333333
142
0.0
142
0.0
142
0.0
142
0.0
142
0.0208333333333333
142
0.0
142
0.0
142
0.0
142
0.0
142
1.0
142
0.0
142
0.0
142
0.0
142
0.0
142
1.0
179
     0
144
0.0208333333333333
144
0.0
144
0.0
144
0.0
144
0.0
144
0.0208333333333333
144
0.0
144
0.0
144
0.0
144
0.0
144
1.0
144
0.0
144
0.0
144
0.0
144
0.0
144
1.0
147
0.0208333333333333
147
0.0
147
0.0
147
0.0
147
0.0
147
0.0208333333333333
147
0.0
147
0.0
147
0.0
147
0.0
147
1.0
147
0.0
147
0.0
147
0.0
147
0.0
147
1.0
  0
MLEADERSTYLE
  5
67
102
{ACAD_REACTORS
330
66
102
}
330
66
100
AcDbMLeaderStyle
179
     2
170
     2
171
     1
172
     0
 90
        2
 40
0.0
 41
0.0
173
     1
 91
-1056964608
340
5B
 92
       -2
290
     1
 42
0.09
291
     1
 43
0.36
  3
Standard
 44
0.18
300

342
55
174
     1
178
     6
175
     1
176
     0
 93
-1056964608
 45
0.18
292
     0
297
     0
 46
0.18
 94
-1056964608
 47
1.0
 49
1.0
140
1.0
293
     1
141
0.0
294
     1
177
     0
142
1.0
295
     1
296
     0
143
0.125
271
     0
272
     9
273
     9
298
     1
  0
MLINESTYLE
  5
60
102
{ACAD_REACTORS
330
5F
102
}
330
5F
100
AcDbMlineStyle
  2
STANDARD
 70
     0
  3

 62
   256
 51
90.0
 52
90.0
 71
     2
 49
0.5
 62
   256
  6
BYLAYER
 49
-0.5
 62
   256
  6
BYLAYER
  0
ACDBPLACEHOLDER
  5
F
102
{ACAD_REACTORS
330
E
102
}
330
E
  0
SCALE
  5
43
102
{ACAD_REACTORS
330
42
102
}
330
42
100
AcDbScale
 70
     0
300
1:1
140
1.0
141
1.0
290
     1
  0
SCALE
  5
44
102
{ACAD_REACTORS
330
42
102
}
330
42
100
AcDbScale
 70
     0
300
1/128" = 1'-0"
140
0.0078125
141
12.0
290
     0
  0
SCALE
  5
45
102
{ACAD_REACTORS
330
42
102
}
330
42
100
AcDbScale
 70
     0
300
1/64" = 1'-0"
140
0.015625
141
12.0
290
     0
  0
SCALE
  5
46
102
{ACAD_REACTORS
330
42
102
}
330
42
100
AcDbScale
 70
     0
300
1/32" = 1'-0"
140
0.03125
141
12.0
290
     0
  0
SCALE
  5
47
102
{ACAD_REACTORS
330
42
102
}
330
42
100
AcDbScale
 70
     0
300
1/16" = 1'-0"
140
0.0625
141
12.0
290
     0
  0
SCALE
  5
48
102
{ACAD_REACTORS
330
42
102
}
330
42
100
AcDbScale
 70
     0
300
3/32" = 1'-0"
140
0.09375
141
12.0
290
     0
  0
SCALE
  5
49
102
{ACAD_REACTORS
330
42
102
}
330
42
100
AcDbScale
 70
     0
300
1/8" = 1'-0"
140
0.125
141
12.0
290
     0
  0
SCALE
  5
4A
102
{ACAD_REACTORS
330
42
102
}
330
42
100
AcDbScale
 70
     0
300
3/16" = 1'-0"
140
0.1875
141
12.0
290
     0
  0
SCALE
  5
4B
102
{ACAD_REACTORS
330
42
102
}
330
42
100
AcDbScale
 70
     0
300
1/4" = 1'-0"
140
0.25
141
12.0
290
     0
  0
SCALE
  5
4C
102
{ACAD_REACTORS
330
42
102
}
330
42
100
AcDbScale
 70
     0
300
3/8" = 1'-0"
140
0.375
141
12.0
290
     0
  0
SCALE
  5
4D
102
{ACAD_REACTORS
330
42
102
}
330
42
100
AcDbScale
 70
     0
300
1/2" = 1'-0"
140
0.5
141
12.0
290
     0
  0
SCALE
  5
4E
102
{ACAD_REACTORS
330
42
102
}
330
42
100
AcDbScale
 70
     0
300
3/4" = 1'-0"
140
0.75
141
12.0
290
     0
  0
SCALE
  5
4F
102
{ACAD_REACTORS
330
42
102
}
330
42
100
AcDbScale
 70
     0
300
1" = 1'-0"
140
1.0
141
12.0
290
     0
  0
SCALE
  5
50
102
{ACAD_REACTORS
330
42
102
}
330
42
100
AcDbScale
 70
     0
300
1-1/2" = 1'-0"
140
1.5
141
12.0
290
     0
  0
SCALE
  5
51
102
{ACAD_REACTORS
330
42
102
}
330
42
100
AcDbScale
 70
     0
300
3" = 1'-0"
140
3.0
141
12.0
290
     0
  0
SCALE
  5
52
102
{ACAD_REACTORS
330
42
102
}
330
42
100
AcDbScale
 70
     0
300
6" = 1'-0"
140
6.0
141
12.0
290
     0
  0
SCALE
  5
53
102
{ACAD_REACTORS
330
42
102
}
330
42
100
AcDbScale
 70
     0
300
1'-0" = 1'-0"
140
12.0
141
12.0
290
     0
  0
ACDBSECTIONVIEWSTYLE
  5
69
102
{ACAD_REACTORS
330
68
102
}
330
68
100
AcDbModelDocViewStyle
 70
     0
  3
Imperial24
290
     1
300
Imperial24
 90
        0
100
AcDbSectionViewStyle
 70
     0
 71
     0
 90
       78
 71
     1
340
55
 62
   256
 40
0.24
340
0
340
0
 62
   256
 40
0.24
300
I, O, Q, S, X, Z
 40
0.48
 90
        3
 40
0.18
 90
        1
 71
     2
340
5D
 90
       25
 62
   256
340
5D
 90
       50
 62
   256
 40
0.24
 40
0.0
 40
0.24
 71
     3
340
55
 62
   256
 40
0.24
 90
        1
 40
0.75
 90
        1
300
%<\AcVar ViewType \f "%tc1">% %<\AcVar ViewSectionStartId>%-%<\AcVar ViewSectionEndId>%\PSCALE %<\AcVar ViewScale \f "%sn">%
 71
     4
 62
   256
 62
   257
300
ANSI31
 40
1.0
 90
        0
290
     0
290
     0
 90
        6
 40
0.0
 40
1.570796326794896
 40
0.2617993877991494
 40
1.308996938995747
 40
-0.2617993877991494
 40
1.832595714594046
  0
TABLESTYLE
  5
65
102
{ACAD_XDICTIONARY
360
DF
102
}
102
{ACAD_REACTORS
330
64
102
}
330
64
100
AcDbTableStyle
280
     0
  3
Standard
 70
     0
 71
     0
 40
0.06
 41
0.06
280
     0
281
     0
  7
Standard
140
0.18
170
     2
 62
     0
 63
     7
283
     0
 90
      512
 91
        0
  1

274
    -2
284
     1
 64
     0
275
    -2
285
     1
 65
     0
276
    -2
286
     1
 66
     0
277
    -2
287
     1
 67
     0
278
    -2
288
     1
 68
     0
279
    -2
289
     1
 69
     0
  7
Standard
140
0.25
170
     5
 62
     0
 63
     7
283
     0
 90
      512
 91
        0
  1

274
    -2
284
     1
 64
     0
275
    -2
285
     1
 65
     0
276
    -2
286
     1
 66
     0
277
    -2
287
     1
 67
     0
278
    -2
288
     1
 68
     0
279
    -2
289
     1
 69
     0
  7
Standard
140
0.18
170
     5
 62
     0
 63
     7
283
     0
 90
      512
 91
        0
  1

274
    -2
284
     1
 64
     0
275
    -2
285
     1
 65
     0
276
    -2
286
     1
 66
     0
277
    -2
287
     1
 67
     0
278
    -2
288
     1
 68
     0
279
    -2
289
     1
 69
     0
  0
VISUALSTYLE
  5
2F
102
{ACAD_REACTORS
330
29
102
}
330
29
100
AcDbVisualStyle
  2
2dWireframe
 70
     4
177
     3
291
     0
 70
    58
 90
        0
176
     1
 90
        2
176
     1
 90
        0
176
     1
 90
        0
176
     1
 40
0.6
176
     1
 40
30.0
176
     1
 62
     7
420
 16777215
176
     1
 90
        1
176
     1
 90
        4
176
     1
 62
     7
176
     1
 62
   257
176
     1
 90
        1
176
     1
 90
        1
176
     1
 40
1.0
176
     1
 90
        0
176
     1
 62
   257
176
     1
 40
1.0
176
     1
 90
        1
176
     1
 90
        6
176
     1
 90
        2
176
     1
 62
     7
176
     1
 90
        5
176
     1
 90
        0
176
     1
 90
        0
176
     1
290
     0
176
     1
 90
        1
176
     1
 40
0.0
176
     1
 90
        0
176
     1
290
     1
176
     1
290
     1
176
     1
290
     0
176
     1
290
     0
176
     1
290
     0
176
     1
290
     0
176
     1
290
     0
176
     1
290
     0
176
     1
290
     0
176
     1
 90
       50
176
     1
 40
0.0
176
     1
 40
1.0
176
     1
 90
        0
176
     1
 62
    18
420
        0
176
     1
 90
       50
176
     1
 90
        3
176
     1
 62
     5
420
      255
176
     1
290
     0
176
     1
 90
       50
176
     1
 90
       50
176
     1
 90
       50
176
     1
290
     0
176
     1
 90
       50
176
     1
 62
   256
176
     0
 40
1.0
176
     0
 90
        2
176
     1
  1
strokes_ogs.tif
176
     1
290
     0
176
     1
 40
1.0
176
     1
 40
1.0
176
     1
  0
VISUALSTYLE
  5
2E
102
{ACAD_REACTORS
330
29
102
}
330
29
100
AcDbVisualStyle
  2
Basic
 70
     7
177
     3
291
     1
 70
    58
 90
        1
176
     1
 90
        0
176
     1
 90
        1
176
     1
 90
        0
176
     1
 40
0.6
176
     1
 40
30.0
176
     1
 62
     7
420
 16777215
176
     1
 90
        0
176
     1
 90
        4
176
     1
 62
     7
176
     1
 62
   257
176
     1
 90
        1
176
     1
 90
        1
176
     1
 40
1.0
176
     1
 90
        8
176
     1
 62
     7
176
     1
 40
1.0
176
     1
 90
        1
176
     1
 90
        6
176
     1
 90
        2
176
     1
 62
     7
176
     1
 90
        5
176
     1
 90
        0
176
     1
 90
        0
176
     1
290
     0
176
     1
 90
        1
176
     1
 40
0.0
176
     1
 90
        0
176
     1
290
     0
176
     1
290
     1
176
     1
290
     1
176
     1
290
     0
176
     1
290
     0
176
     1
290
     0
176
     1
290
     0
176
     1
290
     0
176
     1
290
     0
176
     1
 90
       50
176
     1
 40
0.0
176
     1
 40
1.0
176
     1
 90
        0
176
     1
 62
    18
420
        0
176
     1
 90
       50
176
     1
 90
        3
176
     1
 62
     5
420
      255
176
     1
290
     0
176
     1
 90
       50
176
     1
 90
       50
176
     1
 90
       50
176
     1
290
     0
176
     1
 90
       50
176
     1
 62
   256
176
     0
 40
1.0
176
     0
 90
        2
176
     1
  1
strokes_ogs.tif
176
     1
290
     0
176
     1
 40
1.0
176
     1
 40
1.0
176
     1
  0
VISUALSTYLE
  5
35
102
{ACAD_REACTORS
330
29
102
}
330
29
100
AcDbVisualStyle
  2
Brighten
 70
    12
177
     3
291
     1
 70
    58
 90
        2
176
     1
 90
        2
176
     1
 90
        0
176
     1
 90
        0
176
     1
 40
0.6
176
     1
 40
30.0
176
     1
 62
     7
420
 16777215
176
     1
 90
        1
176
     1
 90
        4
176
     1
 62
     7
176
     1
 62
   257
176
     1
 90
        1
176
     1
 90
        1
176
     1
 40
1.0
176
     1
 90
        8
176
     1
 62
     7
176
     1
 40
1.0
176
     1
 90
        1
176
     1
 90
        6
176
     1
 90
        2
176
     1
 62
     7
176
     1
 90
        5
176
     1
 90
        0
176
     1
 90
        0
176
     1
290
     0
176
     1
 90
        1
176
     1
 40
50.0
176
     1
 90
        0
176
     1
290
     0
176
     1
290
     1
176
     1
290
     1
176
     1
290
     0
176
     1
290
     0
176
     1
290
     0
176
     1
290
     0
176
     1
290
     0
176
     1
290
     0
176
     1
 90
       50
176
     1
 40
0.0
176
     1
 40
1.0
176
     1
 90
        0
176
     1
 62
    18
420
        0
176
     1
 90
       50
176
     1
 90
        3
176
     1
 62
     5
420
      255
176
     1
290
     0
176
     1
 90
       50
176
     1
 90
       50
176
     1
 90
       50
176
     1
290
     0
176
     1
 90
       50
176
     1
 62
   256
176
     0
 40
1.0
176
     0
 90
        2
176
     1
  1
strokes_ogs.tif
176
     1
290
     0
176
     1
 40
1.0
176
     1
 40
1.0
176
     1
  0
VISUALSTYLE
  5
39
102
{ACAD_REACTORS
330
29
102
}
330
29
100
AcDbVisualStyle
  2
ColorChange
 70
    16
177
     3
291
     1
 70
    58
 90
        2
176
     1
 90
        2
176
     1
 90
        3
176
     1
 90
        0
176
     1
 40
0.6
176
     1
 40
30.0
176
     1
 62
     8
420
  8421504
176
     1
 90
        1
176
     1
 90
        4
176
     1
 62
     7
176
     1
 62
   257
176
     1
 90
        1
176
     1
 90
        1
176
     1
 40
1.0
176
     1
 90
        8
176
     1
 62
     8
420
  8421504
176
     1
 40
1.0
176
     1
 90
        1
176
     1
 90
        6
176
     1
 90
        2
176
     1
 62
     7
176
     1
 90
        5
176
     1
 90
        0
176
     1
 90
        0
176
     1
290
     0
176
     1
 90
        1
176
     1
 40
0.0
176
     1
 90
        0
176
     1
290
     0
176
     1
290
     1
176
     1
290
     1
176
     1
290
     0
176
     1
290
     0
176
     1
290
     0
176
     1
290
     0
176
     1
290
     0
176
     1
290
     0
176
     1
 90
       50
176
     1
 40
0.0
176
     1
 40
1.0
176
     1
 90
        0
176
     1
 62
    18
420
        0
176
     1
 90
       50
176
     1
 90
        3
176
     1
 62
     5
420
      255
176
     1
290
     0
176
     1
 90
       50
176
     1
 90
       50
176
     1
 90
       50
176
     1
290
     0
176
     1
 90
       50
176
     1
 62
   256
176
     0
 40
1.0
176
     0
 90
        2
176
     1
  1
strokes_ogs.tif
176
     1
290
     0
176
     1
 40
1.0
176
     1
 40
1.0
176
     1
  0
VISUALSTYLE
  5
32
102
{ACAD_REACTORS
330
29
102
}
330
29
100
AcDbVisualStyle
  2
Conceptual
 70
     9
177
     3
291
     0
 70
    58
 90
        3
176
     1
 90
        2
176
     1
 90
        0
176
     1
 90
        0
176
     1
 40
0.6
176
     1
 40
30.0
176
     1
 62
     7
420
 16777215
176
     1
 90
        2
176
     1
 90
        2
176
     1
 62
     7
176
     1
 62
   257
176
     1
 90
        1
176
     1
 90
        1
176
     1
 40
179.0
176
     1
 90
        8
176
     1
 62
     7
176
     1
 40
1.0
176
     1
 90
        1
176
     1
 90
        6
176
     1
 90
        2
176
     1
 62
     7
176
     1
 90
        3
176
     1
 90
        0
176
     1
 90
        0
176
     1
290
     0
176
     1
 90
        1
176
     1
 40
0.0
176
     1
 90
        0
176
     1
290
     0
176
     1
290
     1
176
     1
290
     1
176
     1
290
     0
176
     1
290
     0
176
     1
290
     0
176
     1
290
     0
176
     1
290
     0
176
     1
290
     0
176
     1
 90
       50
176
     1
 40
0.0
176
     1
 40
1.0
176
     1
 90
        0
176
     1
 62
    18
420
        0
176
     1
 90
       50
176
     1
 90
        3
176
     1
 62
     5
420
      255
176
     1
290
     0
176
     1
 90
       50
176
     1
 90
       50
176
     1
 90
       50
176
     1
290
     0
176
     1
 90
       50
176
     1
 62
   256
176
     0
 40
1.0
176
     0
 90
        2
176
     1
  1
strokes_ogs.tif
176
     1
290
     0
176
     1
 40
1.0
176
     1
 40
1.0
176
     1
  0
VISUALSTYLE
  5
34
102
{ACAD_REACTORS
330
29
102
}
330
29
100
AcDbVisualStyle
  2
Dim
 70
    11
177
     3
291
     1
 70
    58
 90
        2
176
     1
 90
        2
176
     1
 90
        0
176
     1
 90
        0
176
     1
 40
0.6
176
     1
 40
30.0
176
     1
 62
     7
420
 16777215
176
     1
 90
        1
176
     1
 90
        4
176
     1
 62
     7
176
     1
 62
   257
176
     1
 90
        1
176
     1
 90
        1
176
     1
 40
1.0
176
     1
 90
        8
176
     1
 62
     7
176
     1
 40
1.0
176
     1
 90
        1
176
     1
 90
        6
176
     1
 90
        2
176
     1
 62
     7
176
     1
 90
        5
176
     1
 90
        0
176
     1
 90
        0
176
     1
290
     0
176
     1
 90
        1
176
     1
 40
-50.0
176
     1
 90
        0
176
     1
290
     0
176
     1
290
     1
176
     1
290
     1
176
     1
290
     0
176
     1
290
     0
176
     1
290
     0
176
     1
290
     0
176
     1
290
     0
176
     1
290
     0
176
     1
 90
       50
176
     1
 40
0.0
176
     1
 40
1.0
176
     1
 90
        0
176
     1
 62
    18
420
        0
176
     1
 90
       50
176
     1
 90
        3
176
     1
 62
     5
420
      255
176
     1
290
     0
176
     1
 90
       50
176
     1
 90
       50
176
     1
 90
       50
176
     1
290
     0
176
     1
 90
       50
176
     1
 62
   256
176
     0
 40
1.0
176
     0
 90
        2
176
     1
  1
strokes_ogs.tif
176
     1
290
     0
176
     1
 40
1.0
176
     1
 40
1.0
176
     1
  0
VISUALSTYLE
  5
41
102
{ACAD_REACTORS
330
29
102
}
330
29
100
AcDbVisualStyle
  2
EdgeColorOff
 70
    22
177
     3
291
     1
 70
    58
 90
        2
176
     0
 90
        2
176
     0
 90
        0
176
     0
 90
        0
176
     0
 40
0.6
176
     0
 40
30.0
176
     0
 62
     7
420
 16777215
176
     0
 90
        1
176
     0
 90
        4
176
     0
 62
     7
176
     0
 62
   257
176
     0
 90
        1
176
     0
 90
        1
176
     0
 40
1.0
176
     0
 90
        8
176
     2
 62
     7
176
     0
 40
1.0
176
     0
 90
        1
176
     0
 90
        6
176
     0
 90
        2
176
     0
 62
     7
176
     0
 90
        5
176
     0
 90
        0
176
     0
 90
        0
176
     0
290
     0
176
     0
 90
        1
176
     0
 40
0.0
176
     0
 90
        0
176
     0
290
     0
176
     0
290
     1
176
     0
290
     1
176
     0
290
     0
176
     0
290
     0
176
     0
290
     0
176
     0
290
     0
176
     0
290
     0
176
     0
290
     0
176
     0
 90
       50
176
     0
 40
0.0
176
     0
 40
1.0
176
     0
 90
        0
176
     0
 62
    18
420
        0
176
     0
 90
       50
176
     0
 90
        3
176
     0
 62
     5
420
      255
176
     0
290
     0
176
     0
 90
       50
176
     0
 90
       50
176
     0
 90
       50
176
     0
290
     0
176
     0
 90
       50
176
     0
 62
   256
176
     0
 40
1.0
176
     0
 90
        2
176
     0
  1
strokes_ogs.tif
176
     0
290
     0
176
     0
 40
1.0
176
     0
 40
1.0
176
     0
  0
VISUALSTYLE
  5
38
102
{ACAD_REACTORS
330
29
102
}
330
29
100
AcDbVisualStyle
  2
Facepattern
 70
    15
177
     3
291
     1
 70
    58
 90
        2
176
     1
 90
        2
176
     1
 90
        0
176
     1
 90
        0
176
     1
 40
0.6
176
     1
 40
30.0
176
     1
 62
     7
420
 16777215
176
     1
 90
        1
176
     1
 90
        4
176
     1
 62
     7
176
     1
 62
   257
176
     1
 90
        1
176
     1
 90
        1
176
     1
 40
1.0
176
     1
 90
        8
176
     1
 62
     7
176
     1
 40
1.0
176
     1
 90
        1
176
     1
 90
        6
176
     1
 90
        2
176
     1
 62
     7
176
     1
 90
        5
176
     1
 90
        0
176
     1
 90
        0
176
     1
290
     0
176
     1
 90
        1
176
     1
 40
0.0
176
     1
 90
        0
176
     1
290
     0
176
     1
290
     1
176
     1
290
     1
176
     1
290
     0
176
     1
290
     0
176
     1
290
     0
176
     1
290
     0
176
     1
290
     0
176
     1
290
     0
176
     1
 90
       50
176
     1
 40
0.0
176
     1
 40
1.0
176
     1
 90
        0
176
     1
 62
    18
420
        0
176
     1
 90
       50
176
     1
 90
        3
176
     1
 62
     5
420
      255
176
     1
290
     0
176
     1
 90
       50
176
     1
 90
       50
176
     1
 90
       50
176
     1
290
     0
176
     1
 90
       50
176
     1
 62
   256
176
     0
 40
1.0
176
     0
 90
        2
176
     1
  1
strokes_ogs.tif
176
     1
290
     0
176
     1
 40
1.0
176
     1
 40
1.0
176
     1
  0
VISUALSTYLE
  5
2A
102
{ACAD_REACTORS
330
29
102
}
330
29
100
AcDbVisualStyle
  2
Flat
 70
     0
177
     3
291
     1
 70
    58
 90
        2
176
     1
 90
        1
176
     1
 90
        1
176
     1
 90
        2
176
     1
 40
0.6
176
     1
 40
30.0
176
     1
 62
     7
420
 16777215
176
     1
 90
        0
176
     1
 90
        0
176
     1
 62
     7
176
     1
 62
   257
176
     1
 90
        1
176
     1
 90
        1
176
     1
 40
1.0
176
     1
 90
        8
176
     1
 62
     7
176
     1
 40
1.0
176
     1
 90
        1
176
     1
 90
        6
176
     1
 90
        2
176
     1
 62
     7
176
     1
 90
        5
176
     1
 90
        0
176
     1
 90
        0
176
     1
290
     0
176
     1
 90
       13
176
     1
 40
0.0
176
     1
 90
        0
176
     1
290
     0
176
     1
290
     1
176
     1
290
     1
176
     1
290
     0
176
     1
290
     0
176
     1
290
     0
176
     1
290
     0
176
     1
290
     0
176
     1
290
     0
176
     1
 90
       50
176
     1
 40
0.0
176
     1
 40
1.0
176
     1
 90
        0
176
     1
 62
    18
420
        0
176
     1
 90
       50
176
     1
 90
        3
176
     1
 62
     5
420
      255
176
     1
290
     0
176
     1
 90
       50
176
     1
 90
       50
176
     1
 90
       50
176
     1
290
     0
176
     1
 90
       50
176
     1
 62
   256
176
     0
 40
1.0
176
     0
 90
        2
176
     1
  1
strokes_ogs.tif
176
     1
290
     0
176
     1
 40
1.0
176
     1
 40
1.0
176
     1
  0
VISUALSTYLE
  5
2B
102
{ACAD_REACTORS
330
29
102
}
330
29
100
AcDbVisualStyle
  2
FlatWithEdges
 70
     1
177
     3
291
     1
 70
    58
 90
        2
176
     1
 90
        1
176
     1
 90
        1
176
     1
 90
        2
176
     1
 40
0.6
176
     1
 40
30.0
176
     1
 62
     7
420
 16777215
176
     1
 90
        1
176
     1
 90
        0
176
     1
 62
     7
176
     1
 62
   257
176
     1
 90
        1
176
     1
 90
        1
176
     1
 40
1.0
176
     1
 90
        0
176
     1
 62
   257
176
     1
 40
1.0
176
     1
 90
        1
176
     1
 90
        6
176
     1
 90
        2
176
     1
 62
     7
176
     1
 90
        5
176
     1
 90
        0
176
     1
 90
        0
176
     1
290
     0
176
     1
 90
       13
176
     1
 40
0.0
176
     1
 90
        0
176
     1
290
     0
176
     1
290
     1
176
     1
290
     1
176
     1
290
     0
176
     1
290
     0
176
     1
290
     0
176
     1
290
     0
176
     1
290
     0
176
     1
290
     0
176
     1
 90
       50
176
     1
 40
0.0
176
     1
 40
1.0
176
     1
 90
        0
176
     1
 62
    18
420
        0
176
     1
 90
       50
176
     1
 90
        3
176
     1
 62
     5
420
      255
176
     1
290
     0
176
     1
 90
       50
176
     1
 90
       50
176
     1
 90
       50
176
     1
290
     0
176
     1
 90
       50
176
     1
 62
   256
176
     0
 40
1.0
176
     0
 90
        2
176
     1
  1
strokes_ogs.tif
176
     1
290
     0
176
     1
 40
1.0
176
     1
 40
1.0
176
     1
  0
VISUALSTYLE
  5
2C
102
{ACAD_REACTORS
330
29
102
}
330
29
100
AcDbVisualStyle
  2
Gouraud
 70
     2
177
     3
291
     1
 70
    58
 90
        2
176
     1
 90
        2
176
     1
 90
        1
176
     1
 90
        2
176
     1
 40
0.6
176
     1
 40
30.0
176
     1
 62
     7
420
 16777215
176
     1
 90
        0
176
     1
 90
        0
176
     1
 62
     7
176
     1
 62
   257
176
     1
 90
        1
176
     1
 90
        1
176
     1
 40
1.0
176
     1
 90
        0
176
     1
 62
     7
176
     1
 40
1.0
176
     1
 90
        1
176
     1
 90
        6
176
     1
 90
        2
176
     1
 62
     7
176
     1
 90
        5
176
     1
 90
        0
176
     1
 90
        0
176
     1
290
     0
176
     1
 90
       13
176
     1
 40
0.0
176
     1
 90
        0
176
     1
290
     0
176
     1
290
     1
176
     1
290
     1
176
     1
290
     0
176
     1
290
     0
176
     1
290
     0
176
     1
290
     0
176
     1
290
     0
176
     1
290
     0
176
     1
 90
       50
176
     1
 40
0.0
176
     1
 40
1.0
176
     1
 90
        0
176
     1
 62
    18
420
        0
176
     1
 90
       50
176
     1
 90
        3
176
     1
 62
     5
420
      255
176
     1
290
     0
176
     1
 90
       50
176
     1
 90
       50
176
     1
 90
       50
176
     1
290
     0
176
     1
 90
       50
176
     1
 62
   256
176
     0
 40
1.0
176
     0
 90
        2
176
     1
  1
strokes_ogs.tif
176
     1
290
     0
176
     1
 40
1.0
176
     1
 40
1.0
176
     1
  0
VISUALSTYLE
  5
2D
102
{ACAD_REACTORS
330
29
102
}
330
29
100
AcDbVisualStyle
  2
GouraudWithEdges
 70
     3
177
     3
291
     1
 70
    58
 90
        2
176
     1
 90
        2
176
     1
 90
        1
176
     1
 90
        2
176
     1
 40
0.6
176
     1
 40
30.0
176
     1
 62
     7
420
 16777215
176
     1
 90
        1
176
     1
 90
        0
176
     1
 62
     7
176
     1
 62
   257
176
     1
 90
        1
176
     1
 90
        1
176
     1
 40
1.0
176
     1
 90
        0
176
     1
 62
   257
176
     1
 40
1.0
176
     1
 90
        1
176
     1
 90
        6
176
     1
 90
        2
176
     1
 62
     7
176
     1
 90
        5
176
     1
 90
        0
176
     1
 90
        0
176
     1
290
     0
176
     1
 90
       13
176
     1
 40
0.0
176
     1
 90
        0
176
     1
290
     0
176
     1
290
     1
176
     1
290
     1
176
     1
290
     0
176
     1
290
     0
176
     1
290
     0
176
     1
290
     0
176
     1
290
     0
176
     1
290
     0
176
     1
 90
       50
176
     1
 40
0.0
176
     1
 40
1.0
176
     1
 90
        0
176
     1
 62
    18
420
        0
176
     1
 90
       50
176
     1
 90
        3
176
     1
 62
     5
420
      255
176
     1
290
     0
176
     1
 90
       50
176
     1
 90
       50
176
     1
 90
       50
176
     1
290
     0
176
     1
 90
       50
176
     1
 62
   256
176
     0
 40
1.0
176
     0
 90
        2
176
     1
  1
strokes_ogs.tif
176
     1
290
     0
176
     1
 40
1.0
176
     1
 40
1.0
176
     1
  0
VISUALSTYLE
  5
31
102
{ACAD_REACTORS
330
29
102
}
330
29
100
AcDbVisualStyle
  2
Hidden
 70
     6
177
     3
291
     0
 70
    58
 90
        1
176
     1
 90
        2
176
     1
 90
        2
176
     1
 90
        0
176
     1
 40
0.6
176
     1
 40
30.0
176
     1
 62
     7
420
 16777215
176
     1
 90
        2
176
     1
 90
        2
176
     1
 62
     7
176
     1
 62
   257
176
     1
 90
        2
176
     1
 90
        1
176
     1
 40
40.0
176
     1
 90
        0
176
     1
 62
   257
176
     1
 40
1.0
176
     1
 90
        1
176
     1
 90
        6
176
     1
 90
        2
176
     1
 62
     7
176
     1
 90
        3
176
     1
 90
        0
176
     1
 90
        0
176
     1
290
     0
176
     1
 90
        1
176
     1
 40
0.0
176
     1
 90
        0
176
     1
290
     0
176
     1
290
     1
176
     1
290
     1
176
     1
290
     0
176
     1
290
     0
176
     1
290
     0
176
     1
290
     0
176
     1
290
     0
176
     1
290
     0
176
     1
 90
       50
176
     1
 40
0.0
176
     1
 40
1.0
176
     1
 90
        0
176
     1
 62
    18
420
        0
176
     1
 90
       50
176
     1
 90
        3
176
     1
 62
     5
420
      255
176
     1
290
     0
176
     1
 90
       50
176
     1
 90
       50
176
     1
 90
       50
176
     1
290
     0
176
     1
 90
       50
176
     1
 62
   256
176
     0
 40
1.0
176
     0
 90
        2
176
     1
  1
strokes_ogs.tif
176
     1
290
     0
176
     1
 40
1.0
176
     1
 40
1.0
176
     1
  0
VISUALSTYLE
  5
3F
102
{ACAD_REACTORS
330
29
102
}
330
29
100
AcDbVisualStyle
  2
JitterOff
 70
    20
177
     3
291
     1
 70
    58
 90
        2
176
     0
 90
        2
176
     0
 90
        0
176
     0
 90
        0
176
     0
 40
0.6
176
     0
 40
30.0
176
     0
 62
     7
420
 16777215
176
     0
 90
        1
176
     0
 90
        4
176
     0
 62
     7
176
     0
 62
   257
176
     0
 90
        1
176
     0
 90
        1
176
     0
 40
1.0
176
     0
 90
       10
176
     2
 62
     7
176
     0
 40
1.0
176
     0
 90
        1
176
     0
 90
        6
176
     0
 90
        2
176
     0
 62
     7
176
     0
 90
        5
176
     0
 90
        0
176
     0
 90
        0
176
     0
290
     0
176
     0
 90
        1
176
     0
 40
0.0
176
     0
 90
        0
176
     0
290
     0
176
     0
290
     1
176
     0
290
     1
176
     0
290
     0
176
     0
290
     0
176
     0
290
     0
176
     0
290
     0
176
     0
290
     0
176
     0
290
     0
176
     0
 90
       50
176
     0
 40
0.0
176
     0
 40
1.0
176
     0
 90
        0
176
     0
 62
    18
420
        0
176
     0
 90
       50
176
     0
 90
        3
176
     0
 62
     5
420
      255
176
     0
290
     0
176
     0
 90
       50
176
     0
 90
       50
176
     0
 90
       50
176
     0
290
     0
176
     0
 90
       50
176
     0
 62
   256
176
     0
 40
1.0
176
     0
 90
        2
176
     0
  1
strokes_ogs.tif
176
     0
290
     0
176
     0
 40
1.0
176
     0
 40
1.0
176
     0
  0
VISUALSTYLE
  5
37
102
{ACAD_REACTORS
330
29
102
}
330
29
100
AcDbVisualStyle
  2
Linepattern
 70
    14
177
     3
291
     1
 70
    58
 90
        2
176
     1
 90
        2
176
     1
 90
        0
176
     1
 90
        0
176
     1
 40
0.6
176
     1
 40
30.0
176
     1
 62
     7
420
 16777215
176
     1
 90
        1
176
     1
 90
        4
176
     1
 62
     7
176
     1
 62
   257
176
     1
 90
        7
176
     1
 90
        7
176
     1
 40
1.0
176
     1
 90
        8
176
     1
 62
     7
176
     1
 40
1.0
176
     1
 90
        1
176
     1
 90
        6
176
     1
 90
        2
176
     1
 62
     7
176
     1
 90
        5
176
     1
 90
        0
176
     1
 90
        0
176
     1
290
     0
176
     1
 90
        1
176
     1
 40
0.0
176
     1
 90
        0
176
     1
290
     0
176
     1
290
     1
176
     1
290
     1
176
     1
290
     0
176
     1
290
     0
176
     1
290
     0
176
     1
290
     0
176
     1
290
     0
176
     1
290
     0
176
     1
 90
       50
176
     1
 40
0.0
176
     1
 40
1.0
176
     1
 90
        0
176
     1
 62
    18
420
        0
176
     1
 90
       50
176
     1
 90
        3
176
     1
 62
     5
420
      255
176
     1
290
     0
176
     1
 90
       50
176
     1
 90
       50
176
     1
 90
       50
176
     1
290
     0
176
     1
 90
       50
176
     1
 62
   256
176
     0
 40
1.0
176
     0
 90
        2
176
     1
  1
strokes_ogs.tif
176
     1
290
     0
176
     1
 40
1.0
176
     1
 40
1.0
176
     1
  0
VISUALSTYLE
  5
40
102
{ACAD_REACTORS
330
29
102
}
330
29
100
AcDbVisualStyle
  2
OverhangOff
 70
    21
177
     3
291
     1
 70
    58
 90
        2
176
     0
 90
        2
176
     0
 90
        0
176
     0
 90
        0
176
     0
 40
0.6
176
     0
 40
30.0
176
     0
 62
     7
420
 16777215
176
     0
 90
        1
176
     0
 90
        4
176
     0
 62
     7
176
     0
 62
   257
176
     0
 90
        1
176
     0
 90
        1
176
     0
 40
1.0
176
     0
 90
        9
176
     2
 62
     7
176
     0
 40
1.0
176
     0
 90
        1
176
     0
 90
        6
176
     0
 90
        2
176
     0
 62
     7
176
     0
 90
        5
176
     0
 90
        0
176
     0
 90
        0
176
     0
290
     0
176
     0
 90
        1
176
     0
 40
0.0
176
     0
 90
        0
176
     0
290
     0
176
     0
290
     1
176
     0
290
     1
176
     0
290
     0
176
     0
290
     0
176
     0
290
     0
176
     0
290
     0
176
     0
290
     0
176
     0
290
     0
176
     0
 90
       50
176
     0
 40
0.0
176
     0
 40
1.0
176
     0
 90
        0
176
     0
 62
    18
420
        0
176
     0
 90
       50
176
     0
 90
        3
176
     0
 62
     5
420
      255
176
     0
290
     0
176
     0
 90
       50
176
     0
 90
       50
176
     0
 90
       50
176
     0
290
     0
176
     0
 90
       50
176
     0
 62
   256
176
     0
 40
1.0
176
     0
 90
        2
176
     0
  1
strokes_ogs.tif
176
     0
290
     0
176
     0
 40
1.0
176
     0
 40
1.0
176
     0
  0
VISUALSTYLE
  5
33
102
{ACAD_REACTORS
330
29
102
}
330
29
100
AcDbVisualStyle
  2
Realistic
 70
     8
177
     3
291
     0
 70
    58
 90
        2
176
     1
 90
        3
176
     1
 90
        0
176
     1
 90
        2
176
     1
 40
0.6
176
     1
 40
30.0
176
     1
 62
     7
420
 16777215
176
     1
 90
        0
176
     1
 90
        0
176
     1
 62
     7
176
     1
 62
   257
176
     1
 90
        1
176
     1
 90
        1
176
     1
 40
1.0
176
     1
 90
        8
176
     1
 62
   257
176
     1
 40
1.0
176
     1
 90
        1
176
     1
 90
        6
176
     1
 90
        2
176
     1
 62
     7
176
     1
 90
        3
176
     1
 90
        0
176
     1
 90
        0
176
     1
290
     0
176
     1
 90
       13
176
     1
 40
0.0
176
     1
 90
        0
176
     1
290
     0
176
     1
290
     1
176
     1
290
     1
176
     1
290
     0
176
     1
290
     0
176
     1
290
     0
176
     1
290
     0
176
     1
290
     0
176
     1
290
     0
176
     1
 90
       50
176
     1
 40
0.0
176
     1
 40
1.0
176
     1
 90
        0
176
     1
 62
    18
420
        0
176
     1
 90
       50
176
     1
 90
        3
176
     1
 62
     5
420
      255
176
     1
290
     0
176
     1
 90
       50
176
     1
 90
       50
176
     1
 90
       50
176
     1
290
     0
176
     1
 90
       50
176
     1
 62
   256
176
     0
 40
1.0
176
     0
 90
        2
176
     1
  1
strokes_ogs.tif
176
     1
290
     0
176
     1
 40
1.0
176
     1
 40
1.0
176
     1
  0
VISUALSTYLE
  5
3E
102
{ACAD_REACTORS
330
29
102
}
330
29
100
AcDbVisualStyle
  2
Shaded
 70
    27
177
     3
291
     0
 70
    58
 90
        2
176
     1
 90
        2
176
     1
 90
        1
176
     1
 90
        2
176
     1
 40
0.6
176
     1
 40
30.0
176
     1
 62
     7
420
 16777215
176
     1
 90
        0
176
     1
 90
        4
176
     1
 62
     7
176
     1
 62
   257
176
     1
 90
        1
176
     1
 90
        1
176
     1
 40
1.0
176
     1
 90
        8
176
     1
 62
   257
176
     1
 40
1.0
176
     1
 90
        1
176
     1
 90
        6
176
     1
 90
        2
176
     1
 62
     8
420
  7895160
176
     1
 90
        3
176
     1
 90
        0
176
     1
 90
        0
176
     1
290
     0
176
     1
 90
        5
176
     1
 40
0.0
176
     1
 90
        0
176
     1
290
     0
176
     1
290
     1
176
     1
290
     1
176
     1
290
     0
176
     1
290
     0
176
     1
290
     0
176
     1
290
     0
176
     1
290
     0
176
     1
290
     0
176
     1
 90
       50
176
     1
 40
0.0
176
     1
 40
1.0
176
     1
 90
        0
176
     1
 62
    18
420
        0
176
     1
 90
       50
176
     1
 90
        3
176
     1
 62
     5
420
      255
176
     1
290
     0
176
     1
 90
       50
176
     1
 90
       50
176
     1
 90
       50
176
     1
290
     0
176
     1
 90
       50
176
     1
 62
   256
176
     0
 40
1.0
176
     0
 90
        2
176
     1
  1
strokes_ogs.tif
176
     1
290
     0
176
     1
 40
1.0
176
     1
 40
1.0
176
     1
  0
VISUALSTYLE
  5
3D
102
{ACAD_REACTORS
330
29
102
}
330
29
100
AcDbVisualStyle
  2
Shaded with edges
 70
    26
177
     3
291
     0
 70
    58
 90
        2
176
     1
 90
        2
176
     1
 90
        1
176
     1
 90
        2
176
     1
 40
0.6
176
     1
 40
30.0
176
     1
 62
     7
420
 16777215
176
     1
 90
        1
176
     1
 90
        2
176
     1
 62
     7
176
     1
 62
   257
176
     1
 90
        2
176
     1
 90
        1
176
     1
 40
1.0
176
     1
 90
        8
176
     1
 62
   257
176
     1
 40
1.0
176
     1
 90
        1
176
     1
 90
        6
176
     1
 90
        2
176
     1
 62
     7
176
     1
 90
        3
176
     1
 90
        0
176
     1
 90
        0
176
     1
290
     0
176
     1
 90
        5
176
     1
 40
0.0
176
     1
 90
        0
176
     1
290
     0
176
     1
290
     1
176
     1
290
     1
176
     1
290
     0
176
     1
290
     0
176
     1
290
     0
176
     1
290
     0
176
     1
290
     0
176
     1
290
     0
176
     1
 90
       50
176
     1
 40
0.0
176
     1
 40
1.0
176
     1
 90
        0
176
     1
 62
    18
420
        0
176
     1
 90
       50
176
     1
 90
        3
176
     1
 62
     5
420
      255
176
     1
290
     0
176
     1
 90
       50
176
     1
 90
       50
176
     1
 90
       50
176
     1
290
     0
176
     1
 90
       50
176
     1
 62
   256
176
     0
 40
1.0
176
     0
 90
        2
176
     1
  1
strokes_ogs.tif
176
     1
290
     0
176
     1
 40
1.0
176
     1
 40
1.0
176
     1
  0
VISUALSTYLE
  5
3A
102
{ACAD_REACTORS
330
29
102
}
330
29
100
AcDbVisualStyle
  2
Shades of Gray
 70
    23
177
     3
291
     0
 70
    58
 90
        2
176
     1
 90
        2
176
     1
 90
        3
176
     1
 90
        0
176
     1
 40
0.6
176
     1
 40
30.0
176
     1
 62
     7
420
 16777215
176
     1
 90
        2
176
     1
 90
        2
176
     1
 62
     7
176
     1
 62
     7
176
     1
 90
        1
176
     1
 90
        1
176
     1
 40
40.0
176
     1
 90
        8
176
     1
 62
     7
176
     1
 40
1.0
176
     1
 90
        1
176
     1
 90
        6
176
     1
 90
        2
176
     1
 62
     7
176
     1
 90
        3
176
     1
 90
        0
176
     1
 90
        0
176
     1
290
     0
176
     1
 90
        1
176
     1
 40
0.0
176
     1
 90
        0
176
     1
290
     0
176
     1
290
     1
176
     1
290
     1
176
     1
290
     0
176
     1
290
     0
176
     1
290
     0
176
     1
290
     0
176
     1
290
     0
176
     1
290
     0
176
     1
 90
       50
176
     1
 40
0.0
176
     1
 40
1.0
176
     1
 90
        0
176
     1
 62
    18
420
        0
176
     1
 90
       50
176
     1
 90
        3
176
     1
 62
     5
420
      255
176
     1
290
     0
176
     1
 90
       50
176
     1
 90
       50
176
     1
 90
       50
176
     1
290
     0
176
     1
 90
       50
176
     1
 62
   256
176
     0
 40
1.0
176
     0
 90
        2
176
     1
  1
strokes_ogs.tif
176
     1
290
     0
176
     1
 40
1.0
176
     1
 40
1.0
176
     1
  0
VISUALSTYLE
  5
3B
102
{ACAD_REACTORS
330
29
102
}
330
29
100
AcDbVisualStyle
  2
Sketchy
 70
    24
177
     3
291
     0
 70
    58
 90
        1
176
     1
 90
        2
176
     1
 90
        2
176
     1
 90
        0
176
     1
 40
0.6
176
     1
 40
30.0
176
     1
 62
     7
420
 16777215
176
     1
 90
        2
176
     1
 90
        2
176
     1
 62
     7
176
     1
 62
     7
176
     1
 90
        1
176
     1
 90
        1
176
     1
 40
40.0
176
     1
 90
       11
176
     1
 62
     7
176
     1
 40
1.0
176
     1
 90
        1
176
     1
 90
        6
176
     1
 90
        2
176
     1
 62
     7
176
     1
 90
        6
176
     1
 90
        0
176
     1
 90
        0
176
     1
290
     0
176
     1
 90
        1
176
     1
 40
0.0
176
     1
 90
        0
176
     1
290
     0
176
     1
290
     1
176
     1
290
     1
176
     1
290
     0
176
     1
290
     0
176
     1
290
     0
176
     1
290
     0
176
     1
290
     0
176
     1
290
     0
176
     1
 90
       50
176
     1
 40
0.0
176
     1
 40
1.0
176
     1
 90
        0
176
     1
 62
    18
420
        0
176
     1
 90
       50
176
     1
 90
        3
176
     1
 62
     5
420
      255
176
     1
290
     0
176
     1
 90
       50
176
     1
 90
       50
176
     1
 90
       50
176
     1
290
     0
176
     1
 90
       50
176
     1
 62
   256
176
     0
 40
1.0
176
     0
 90
        2
176
     1
  1
strokes_ogs.tif
176
     1
290
     0
176
     1
 40
1.0
176
     1
 40
1.0
176
     1
  0
VISUALSTYLE
  5
36
102
{ACAD_REACTORS
330
29
102
}
330
29
100
AcDbVisualStyle
  2
Thicken
 70
    13
177
     3
291
     1
 70
    58
 90
        2
176
     1
 90
        2
176
     1
 90
        0
176
     1
 90
        0
176
     1
 40
0.6
176
     1
 40
30.0
176
     1
 62
     7
420
 16777215
176
     1
 90
        1
176
     1
 90
        4
176
     1
 62
     7
176
     1
 62
   257
176
     1
 90
        1
176
     1
 90
        1
176
     1
 40
1.0
176
     1
 90
       12
176
     1
 62
     7
176
     1
 40
1.0
176
     1
 90
        1
176
     1
 90
        6
176
     1
 90
        2
176
     1
 62
     7
176
     1
 90
        5
176
     1
 90
        0
176
     1
 90
        0
176
     1
290
     0
176
     1
 90
        1
176
     1
 40
0.0
176
     1
 90
        0
176
     1
290
     0
176
     1
290
     1
176
     1
290
     1
176
     1
290
     0
176
     1
290
     0
176
     1
290
     0
176
     1
290
     0
176
     1
290
     0
176
     1
290
     0
176
     1
 90
       50
176
     1
 40
0.0
176
     1
 40
1.0
176
     1
 90
        0
176
     1
 62
    18
420
        0
176
     1
 90
       50
176
     1
 90
        3
176
     1
 62
     5
420
      255
176
     1
290
     0
176
     1
 90
       50
176
     1
 90
       50
176
     1
 90
       50
176
     1
290
     0
176
     1
 90
       50
176
     1
 62
   256
176
     0
 40
1.0
176
     0
 90
        2
176
     1
  1
strokes_ogs.tif
176
     1
290
     0
176
     1
 40
1.0
176
     1
 40
1.0
176
     1
  0
VISUALSTYLE
  5
30
102
{ACAD_REACTORS
330
29
102
}
330
29
100
AcDbVisualStyle
  2
Wireframe
 70
     5
177
     3
291
     0
 70
    58
 90
        0
176
     1
 90
        2
176
     1
 90
        0
176
     1
 90
        0
176
     1
 40
0.6
176
     1
 40
30.0
176
     1
 62
     7
420
 16777215
176
     1
 90
        1
176
     1
 90
        4
176
     1
 62
     7
176
     1
 62
   257
176
     1
 90
        1
176
     1
 90
        1
176
     1
 40
1.0
176
     1
 90
        0
176
     1
 62
   257
176
     1
 40
1.0
176
     1
 90
        1
176
     1
 90
        6
176
     1
 90
        2
176
     1
 62
     7
176
     1
 90
        3
176
     1
 90
        0
176
     1
 90
        0
176
     1
290
     0
176
     1
 90
        1
176
     1
 40
0.0
176
     1
 90
        0
176
     1
290
     0
176
     1
290
     1
176
     1
290
     1
176
     1
290
     0
176
     1
290
     0
176
     1
290
     0
176
     1
290
     0
176
     1
290
     0
176
     1
290
     0
176
     1
 90
       50
176
     1
 40
0.0
176
     1
 40
1.0
176
     1
 90
        0
176
     1
 62
    18
420
        0
176
     1
 90
       50
176
     1
 90
        3
176
     1
 62
     5
420
      255
176
     1
290
     0
176
     1
 90
       50
176
     1
 90
       50
176
     1
 90
       50
176
     1
290
     0
176
     1
 90
       50
176
     1
 62
   256
176
     0
 40
1.0
176
     0
 90
        2
176
     1
  1
strokes_ogs.tif
176
     1
290
     0
176
     1
 40
1.0
176
     1
 40
1.0
176
     1
  0
VISUALSTYLE
  5
3C
102
{ACAD_REACTORS
330
29
102
}
330
29
100
AcDbVisualStyle
  2
X-Ray
 70
    25
177
     3
291
     0
 70
    58
 90
        2
176
     1
 90
        2
176
     1
 90
        1
176
     1
 90
        1
176
     1
 40
0.5
176
     1
 40
30.0
176
     1
 62
     7
420
 16777215
176
     1
 90
        1
176
     1
 90
        0
176
     1
 62
     7
176
     1
 62
   257
176
     1
 90
        1
176
     1
 90
        1
176
     1
 40
1.0
176
     1
 90
        8
176
     1
 62
     7
176
     1
 40
1.0
176
     1
 90
        1
176
     1
 90
        6
176
     1
 90
        2
176
     1
 62
     7
176
     1
 90
        3
176
     1
 90
        0
176
     1
 90
        0
176
     1
290
     0
176
     1
 90
       13
176
     1
 40
0.0
176
     1
 90
        0
176
     1
290
     0
176
     1
290
     1
176
     1
290
     1
176
     1
290
     0
176
     1
290
     0
176
     1
290
     0
176
     1
290
     0
176
     1
290
     0
176
     1
290
     0
176
     1
 90
       50
176
     1
 40
0.0
176
     1
 40
1.0
176
     1
 90
        0
176
     1
 62
    18
420
        0
176
     1
 90
       50
176
     1
 90
        3
176
     1
 62
     5
420
      255
176
     1
290
     0
176
     1
 90
       50
176
     1
 90
       50
176
     1
 90
       50
176
     1
290
     0
176
     1
 90
       50
176
     1
 62
   256
176
     0
 40
1.0
176
     0
 90
        2
176
     1
  1
strokes_ogs.tif
176
     1
290
     0
176
     1
 40
1.0
176
     1
 40
1.0
176
     1
  0
DICTIONARYVAR
  5
DE
102
{ACAD_REACTORS
330
D9
102
}
330
D9
100
DictionaryVariables
280
     0
  1
1:1
  0
DICTIONARYVAR
  5
DB
102
{ACAD_REACTORS
330
D9
102
}
330
D9
100
DictionaryVariables
280
     0
  1
STANDARD
  0
DICTIONARYVAR
  5
DA
102
{ACAD_REACTORS
330
D9
102
}
330
D9
100
DictionaryVariables
280
     0
  1
STANDARD
  0
DICTIONARYVAR
  5
DC
102
{ACAD_REACTORS
330
D9
102
}
330
D9
100
DictionaryVariables
280
     0
  1
Imperial24
  0
DICTIONARYVAR
  5
DD
102
{ACAD_REACTORS
330
D9
102
}
330
D9
100
DictionaryVariables
280
     0
  1
Imperial24
  0
DICTIONARY
  5
1A
330
19
100
AcDbDictionary
280
     1
281
     1
  3
BUMPTILE
360
1C
  3
DIFFUSETILE
360
1B
  3
OPACITYTILE
360
1F
  3
REFLECTIONTILE
360
1E
  3
REFRACTIONTILE
360
20
  3
SPECULARTILE
360
1D
  0
DICTIONARY
  5
12
330
11
100
AcDbDictionary
280
     1
281
     1
  3
BUMPTILE
360
14
  3
DIFFUSETILE
360
13
  3
OPACITYTILE
360
17
  3
REFLECTIONTILE
360
16
  3
REFRACTIONTILE
360
18
  3
SPECULARTILE
360
15
  0
DICTIONARY
  5
22
330
21
100
AcDbDictionary
280
     1
281
     1
  3
BUMPTILE
360
24
  3
DIFFUSETILE
360
23
  3
OPACITYTILE
360
27
  3
REFLECTIONTILE
360
26
  3
REFRACTIONTILE
360
28
  3
SPECULARTILE
360
25
  0
DICTIONARY
  5
DF
330
65
100
AcDbDictionary
280
     1
281
     1
  3
ACAD_ROUNDTRIP_2008_TABLESTYLE_CELLSTYLEMAP
360
E0
  0
XRECORD
  5
1C
102
{ACAD_REACTORS
330
1A
102
}
330
1A
100
AcDbXrecord
280
     1
270
     1
271
     1
  0
XRECORD
  5
1B
102
{ACAD_REACTORS
330
1A
102
}
330
1A
100
AcDbXrecord
280
     1
270
     1
271
     1
  0
XRECORD
  5
1F
102
{ACAD_REACTORS
330
1A
102
}
330
1A
100
AcDbXrecord
280
     1
270
     1
271
     1
  0
XRECORD
  5
1E
102
{ACAD_REACTORS
330
1A
102
}
330
1A
100
AcDbXrecord
280
     1
270
     1
271
     1
  0
XRECORD
  5
20
102
{ACAD_REACTORS
330
1A
102
}
330
1A
100
AcDbXrecord
280
     1
270
     1
271
     1
  0
XRECORD
  5
1D
102
{ACAD_REACTORS
330
1A
102
}
330
1A
100
AcDbXrecord
280
     1
270
     1
271
     1
  0
XRECORD
  5
14
102
{ACAD_REACTORS
330
12
102
}
330
12
100
AcDbXrecord
280
     1
270
     1
271
     1
  0
XRECORD
  5
13
102
{ACAD_REACTORS
330
12
102
}
330
12
100
AcDbXrecord
280
     1
270
     1
271
     1
  0
XRECORD
  5
17
102
{ACAD_REACTORS
330
12
102
}
330
12
100
AcDbXrecord
280
     1
270
     1
271
     1
  0
XRECORD
  5
16
102
{ACAD_REACTORS
330
12
102
}
330
12
100
AcDbXrecord
280
     1
270
     1
271
     1
  0
XRECORD
  5
18
102
{ACAD_REACTORS
330
12
102
}
330
12
100
AcDbXrecord
280
     1
270
     1
271
     1
  0
XRECORD
  5
15
102
{ACAD_REACTORS
330
12
102
}
330
12
100
AcDbXrecord
280
     1
270
     1
271
     1
  0
XRECORD
  5
24
102
{ACAD_REACTORS
330
22
102
}
330
22
100
AcDbXrecord
280
     1
270
     1
271
     1
  0
XRECORD
  5
23
102
{ACAD_REACTORS
330
22
102
}
330
22
100
AcDbXrecord
280
     1
270
     1
271
     1
  0
XRECORD
  5
27
102
{ACAD_REACTORS
330
22
102
}
330
22
100
AcDbXrecord
280
     1
270
     1
271
     1
  0
XRECORD
  5
26
102
{ACAD_REACTORS
330
22
102
}
330
22
100
AcDbXrecord
280
     1
270
     1
271
     1
  0
XRECORD
  5
28
102
{ACAD_REACTORS
330
22
102
}
330
22
100
AcDbXrecord
280
     1
270
     1
271
     1
  0
XRECORD
  5
25
102
{ACAD_REACTORS
330
22
102
}
330
22
100
AcDbXrecord
280
     1
270
     1
271
     1
  0
CELLSTYLEMAP
  5
E0
102
{ACAD_REACTORS
330
DF
102
}
330
DF
100
AcDbCellStyleMap
 90
        3
300
CELLSTYLE
  1
TABLEFORMAT_BEGIN
 90
        5
170
     1
 91
        0
 92
    32768
 62
   257
 93
        1
300
CONTENTFORMAT
  1
CONTENTFORMAT_BEGIN
 90
        0
 91
        0
 92
      512
 93
        0
300

 40
0.0
140
1.0
 94
        5
 62
     0
340
55
144
0.25
309
CONTENTFORMAT_END
171
     0
 94
        0
309
TABLEFORMAT_END
  1
CELLSTYLE_BEGIN
 90
        1
 91
        1
300
_TITLE
309
CELLSTYLE_END
300
CELLSTYLE
  1
TABLEFORMAT_BEGIN
 90
        5
170
     1
 91
        0
 92
        0
 62
   257
 93
        1
300
CONTENTFORMAT
  1
CONTENTFORMAT_BEGIN
 90
        0
 91
        0
 92
      512
 93
        0
300

 40
0.0
140
1.0
 94
        5
 62
     0
340
55
144
0.18
309
CONTENTFORMAT_END
171
     0
 94
        0
309
TABLEFORMAT_END
  1
CELLSTYLE_BEGIN
 90
        2
 91
        1
300
_HEADER
309
CELLSTYLE_END
300
CELLSTYLE
  1
TABLEFORMAT_BEGIN
 90
        5
170
     1
 91
        0
 92
        0
 62
   257
 93
        1
300
CONTENTFORMAT
  1
CONTENTFORMAT_BEGIN
 90
        0
 91
        0
 92
      512
 93
        0
300

 40
0.0
140
1.0
 94
        2
 62
     0
340
55
144
0.18
309
CONTENTFORMAT_END
171
     0
 94
        0
309
TABLEFORMAT_END
  1
CELLSTYLE_BEGIN
 90
        3
 91
        2
300
_DATA
309
CELLSTYLE_END
  0
ENDSEC
  0
EOF
