  0
SECTION
  2
HEADER
  9
$ACADVER
  1
AC1014
  9
$HANDSEED
  5
FFFF
  9
$MEASUREMENT
 70
     1
  0
ENDSEC
  0
SECTION
  2
TABLES
  0
TABLE
  2
VPORT
  5
8
330
0
100
AcDbSymbolTable
 70
     4
  0
VPORT
  5
2E
330
8
100
AcDbSymbolTableRecord
100
AcDbViewportTableRecord
  2
*ACTIVE
 70
     0
 10
0.0
 20
0.0
 11
1.0
 21
1.0
 12
210.0
 22
148.5
 13
0.0
 23
0.0
 14
10.0
 24
10.0
 15
10.0
 25
10.0
 16
0.0
 26
0.0
 36
1.0
 17
0.0
 27
0.0
 37
0.0
 40
341.0
 41
1.24
 42
50.0
 43
0.0
 44
0.0
 50
0.0
 51
0.0
 71
     0
 72
   100
 73
     1
 74
     3
 75
     0
 76
     0
 77
     0
 78
     0
  0
ENDTAB
  0
TABLE
  2
LTYPE
  5
5
330
0
100
AcDbSymbolTable
 70
     1
  0
LTYPE
  5
14
330
5
100
AcDbSymbolTableRecord
100
AcDbLinetypeTableRecord
  2
BYBLOCK
 70
     0
  3

 72
    65
 73
     0
 40
0.0
  0
LTYPE
  5
15
330
5
100
AcDbSymbolTableRecord
100
AcDbLinetypeTableRecord
  2
BYLAYER
 70
     0
  3

 72
    65
 73
     0
 40
0.0
  0
LTYPE
  5
16
330
5
100
AcDbSymbolTableRecord
100
AcDbLinetypeTableRecord
  2
CONTINUOUS
 70
     0
  3
Solid line
 72
    65
 73
     0
 40
0.0
  0
ENDTAB
  0
TABLE
  2
LAYER
  5
2
100
AcDbSymbolTable
 70
1
  0
LAYER
  5
50
100
AcDbSymbolTableRecord
100
AcDbLayerTableRecord
  2
0
 70
0
  6
CONTINUOUS
  0
ENDTAB
  0
TABLE
  2
STYLE
  5
3
330
0
100
AcDbSymbolTable
 70
     1
  0
STYLE
  5
11
330
3
100
AcDbSymbolTableRecord
100
AcDbTextStyleTableRecord
  2
STANDARD
 70
     0
 40
0.0
 41
1.0
 50
0.0
 71
     0
 42
2.5
  3
txt
  4

  0
ENDTAB
  0
TABLE
  2
VIEW
  5
6
330
0
100
AcDbSymbolTable
 70
     0
  0
ENDTAB
  0
TABLE
  2
UCS
  5
7
330
0
100
AcDbSymbolTable
 70
     0
  0
ENDTAB
  0
TABLE
  2
APPID
  5
9
330
0
100
AcDbSymbolTable
 70
     2
  0
APPID
  5
12
330
9
100
AcDbSymbolTableRecord
100
AcDbRegAppTableRecord
  2
ACAD
 70
     0
  0
ENDTAB
  0
TABLE
  2
DIMSTYLE
  5
A
330
0
100
AcDbSymbolTable
 70
     1
  0
DIMSTYLE
105
27
330
A
100
AcDbSymbolTableRecord
100
AcDbDimStyleTableRecord
  2
ISO-25
 70
     0
  3

  4

  5

  6

  7

 40
1.0
 41
2.5
 42
0.625
 43
3.75
 44
1.25
 45
0.0
 46
0.0
 47
0.0
 48
0.0
140
2.5
141
2.5
142
0.0
143
0.03937007874016
144
1.0
145
0.0
146
1.0
147
0.625
 71
     0
 72
     0
 73
     0
 74
     0
 75
     0
 76
     0
 77
     1
 78
     8
170
     0
171
     3
172
     1
173
     0
174
     0
175
     0
176
     0
177
     0
178
     0
270
     2
271
     2
272
     2
273
     2
274
     3
340
11
275
     0
280
     0
281
     0
282
     0
283
     0
284
     8
285
     0
286
     0
287
     3
288
     0
  0
ENDTAB
  0
TABLE
  2
BLOCK_RECORD
  5
1
330
0
100
AcDbSymbolTable
 70
     1
  0
BLOCK_RECORD
  5
1F
330
1
100
AcDbSymbolTableRecord
100
AcDbBlockTableRecord
  2
*MODEL_SPACE
  0
BLOCK_RECORD
  5
1B
330
1
100
AcDbSymbolTableRecord
100
AcDbBlockTableRecord
  2
*PAPER_SPACE
  0
ENDTAB
  0
ENDSEC
  0
SECTION
  2
BLOCKS
  0
BLOCK
  5
20
330
1F
100
AcDbEntity
  8
0
100
AcDbBlockBegin
  2
*MODEL_SPACE
 70
     0
 10
0.0
 20
0.0
 30
0.0
  3
*MODEL_SPACE
  1

  0
ENDBLK
  5
21
330
1F
100
AcDbEntity
  8
0
100
AcDbBlockEnd
  0
BLOCK
  5
1C
330
1B
100
AcDbEntity
 67
     1
  8
0
100
AcDbBlockBegin
  2
*PAPER_SPACE
  1

  0
ENDBLK
  5
1D
330
1B
100
AcDbEntity
 67
     1
  8
0
100
AcDbBlockEnd
  0
ENDSEC
  0
SECTION
  2
ENTITIES
  0
SPLINE
  5
100
100
AcDbEntity
  8
0
 62
7
100
AcDbSpline
 70
8
 71
3
 72
8
 73
4
 74
0
 40
0
 40
0
 40
0
 40
0
 40
1
 40
1
 40
1
 40
1
 10
44.451218
 20
36.269449
 30
0.0
 10
36.306003
 20
36.269449
 30
0.0
 10
29.702346
 20
29.665792
 30
0.0
 10
29.702346
 20
21.520576
 30
0.0
  0
SPLINE
  5
101
100
AcDbEntity
  8
0
 62
7
100
AcDbSpline
 70
8
 71
3
 72
8
 73
4
 74
0
 40
0
 40
0
 40
0
 40
0
 40
1
 40
1
 40
1
 40
1
 10
29.702346
 20
21.520576
 30
0.0
 10
29.702346
 20
13.375361
 30
0.0
 10
36.306003
 20
6.771704
 30
0.0
 10
44.451218
 20
6.771704
 30
0.0
  0
SPLINE
  5
102
100
AcDbEntity
  8
0
 62
7
100
AcDbSpline
 70
8
 71
3
 72
8
 73
4
 74
0
 40
0
 40
0
 40
0
 40
0
 40
1
 40
1
 40
1
 40
1
 10
44.451218
 20
6.771704
 30
0.0
 10
52.596434
 20
6.771704
 30
0.0
 10
59.200091
 20
13.375361
 30
0.0
 10
59.200091
 20
21.520576
 30
0.0
  0
SPLINE
  5
103
100
AcDbEntity
  8
0
 62
7
100
AcDbSpline
 70
8
 71
3
 72
8
 73
4
 74
0
 40
0
 40
0
 40
0
 40
0
 40
1
 40
1
 40
1
 40
1
 10
59.200091
 20
21.520576
 30
0.0
 10
59.200091
 20
29.665792
 30
0.0
 10
52.596434
 20
36.269449
 30
0.0
 10
44.451218
 20
36.269449
 30
0.0
  0
SPLINE
  5
104
100
AcDbEntity
  8
0
 62
7
100
AcDbSpline
 70
8
 71
3
 72
8
 73
4
 74
0
 40
0
 40
0
 40
0
 40
0
 40
1
 40
1
 40
1
 40
1
 10
44.451218
 20
9.269241
 30
0.0
 10
37.685292
 20
9.269241
 30
0.0
 10
32.203410
 20
14.754650
 30
0.0
 10
32.203410
 20
21.517049
 30
0.0
  0
SPLINE
  5
105
100
AcDbEntity
  8
0
 62
7
100
AcDbSpline
 70
8
 71
3
 72
8
 73
4
 74
0
 40
0
 40
0
 40
0
 40
0
 40
1
 40
1
 40
1
 40
1
 10
32.203410
 20
21.517049
 30
0.0
 10
32.203410
 20
28.279447
 30
0.0
 10
37.688820
 20
33.764857
 30
0.0
 10
44.451218
 20
33.764857
 30
0.0
  0
SPLINE
  5
106
100
AcDbEntity
  8
0
 62
7
100
AcDbSpline
 70
8
 71
3
 72
8
 73
4
 74
0
 40
0
 40
0
 40
0
 40
0
 40
1
 40
1
 40
1
 40
1
 10
44.451218
 20
33.764857
 30
0.0
 10
51.213617
 20
33.764857
 30
0.0
 10
56.699026
 20
28.279447
 30
0.0
 10
56.699026
 20
21.517049
 30
0.0
  0
SPLINE
  5
107
100
AcDbEntity
  8
0
 62
7
100
AcDbSpline
 70
8
 71
3
 72
8
 73
4
 74
0
 40
0
 40
0
 40
0
 40
0
 40
1
 40
1
 40
1
 40
1
 10
56.699026
 20
21.517049
 30
0.0
 10
56.699026
 20
14.754650
 30
0.0
 10
51.213617
 20
9.269241
 30
0.0
 10
44.451218
 20
9.269241
 30
0.0
  0
LWPOLYLINE
  5
108
100
AcDbEntity
  8
0
 62
7
100
AcDbPolyline
 90
1
 70
1
 10
44.451218
 20
36.269449
 30
0.0
  0
SPLINE
  5
109
100
AcDbEntity
  8
0
 62
7
100
AcDbSpline
 70
8
 71
3
 72
8
 73
4
 74
0
 40
0
 40
0
 40
0
 40
0
 40
1
 40
1
 40
1
 40
1
 10
117.871042
 20
89.821861
 30
0.0
 10
117.483007
 20
89.821861
 30
0.0
 10
117.172579
 20
89.507905
 30
0.0
 10
117.172579
 20
89.123397
 30
0.0
  0
LWPOLYLINE
  5
10a
100
AcDbEntity
  8
0
 62
7
100
AcDbPolyline
 90
2
 70
1
 10
44.451218
 20
9.269241
 30
0.0
 10
44.451218
 20
9.269241
 30
0.0
  0
SPLINE
  5
10b
100
AcDbEntity
  8
0
 62
7
100
AcDbSpline
 70
8
 71
3
 72
8
 73
4
 74
0
 40
0
 40
0
 40
0
 40
0
 40
1
 40
1
 40
1
 40
1
 10
117.172579
 20
0.108078
 30
0.0
 10
122.245260
 20
4.796251
 30
0.0
 10
127.825914
 20
8.941174
 30
0.0
 10
133.477120
 20
12.204199
 30
0.0
  0
SPLINE
  5
10c
100
AcDbEntity
  8
0
 62
7
100
AcDbSpline
 70
8
 71
3
 72
8
 73
4
 74
0
 40
0
 40
0
 40
0
 40
0
 40
1
 40
1
 40
1
 40
1
 10
133.477120
 20
12.204199
 30
0.0
 10
137.851338
 20
14.729957
 30
0.0
 10
142.440738
 20
16.917065
 30
0.0
 10
147.047776
 20
18.691446
 30
0.0
  0
LWPOLYLINE
  5
10d
100
AcDbEntity
  8
0
 62
7
100
AcDbPolyline
 90
6
 70
0
 10
117.172579
 20
89.123397
 30
0.0
 10
117.172579
 20
15.058023
 30
0.0
 10
117.172579
 20
15.058023
 30
0.0
 10
117.172579
 20
0.171574
 30
0.0
 10
117.172579
 20
0.171574
 30
0.0
 10
117.172579
 20
0.108078
 30
0.0
  0
SPLINE
  5
10e
100
AcDbEntity
  8
0
 62
7
100
AcDbSpline
 70
8
 71
3
 72
8
 73
4
 74
0
 40
0
 40
0
 40
0
 40
0
 40
1
 40
1
 40
1
 40
1
 10
147.075997
 20
81.136923
 30
0.0
 10
147.075997
 20
81.524959
 30
0.0
 10
147.389953
 20
81.835387
 30
0.0
 10
147.777988
 20
81.835387
 30
0.0
  0
LWPOLYLINE
  5
10f
100
AcDbEntity
  8
0
 62
7
100
AcDbPolyline
 90
2
 70
0
 10
147.047776
 20
18.691446
 30
0.0
 10
147.075997
 20
81.136923
 30
0.0
  0
SPLINE
  5
110
100
AcDbEntity
  8
0
 62
7
100
AcDbSpline
 70
8
 71
3
 72
8
 73
4
 74
0
 40
0
 40
0
 40
0
 40
0
 40
1
 40
1
 40
1
 40
1
 10
166.072094
 20
84.145961
 30
0.0
 10
166.072094
 20
84.533997
 30
0.0
 10
166.386049
 20
84.847953
 30
0.0
 10
166.774085
 20
84.847953
 30
0.0
  0
LWPOLYLINE
  5
111
100
AcDbEntity
  8
0
 62
7
100
AcDbPolyline
 90
3
 70
0
 10
147.777988
 20
81.835387
 30
0.0
 10
166.072094
 20
81.835387
 30
0.0
 10
166.072094
 20
84.145961
 30
0.0
  0
SPLINE
  5
112
100
AcDbEntity
  8
0
 62
7
100
AcDbSpline
 70
8
 71
3
 72
8
 73
4
 74
0
 40
0
 40
0
 40
0
 40
0
 40
1
 40
1
 40
1
 40
1
 10
119.775943
 20
88.283830
 30
0.0
 10
120.354469
 20
88.283830
 30
0.0
 10
120.827167
 20
87.814660
 30
0.0
 10
120.827167
 20
87.232606
 30
0.0
  0
SPLINE
  5
113
100
AcDbEntity
  8
0
 62
7
100
AcDbSpline
 70
8
 71
3
 72
8
 73
4
 74
0
 40
0
 40
0
 40
0
 40
0
 40
1
 40
1
 40
1
 40
1
 10
120.827167
 20
87.232606
 30
0.0
 10
120.827167
 20
86.650553
 30
0.0
 10
120.357996
 20
86.181383
 30
0.0
 10
119.775943
 20
86.181383
 30
0.0
  0
SPLINE
  5
114
100
AcDbEntity
  8
0
 62
7
100
AcDbSpline
 70
8
 71
3
 72
8
 73
4
 74
0
 40
0
 40
0
 40
0
 40
0
 40
1
 40
1
 40
1
 40
1
 10
119.775943
 20
86.181383
 30
0.0
 10
119.193890
 20
86.181383
 30
0.0
 10
118.724720
 20
86.650553
 30
0.0
 10
118.724720
 20
87.232606
 30
0.0
  0
SPLINE
  5
115
100
AcDbEntity
  8
0
 62
7
100
AcDbSpline
 70
8
 71
3
 72
8
 73
4
 74
0
 40
0
 40
0
 40
0
 40
0
 40
1
 40
1
 40
1
 40
1
 10
118.724720
 20
87.232606
 30
0.0
 10
118.724720
 20
87.814660
 30
0.0
 10
119.193890
 20
88.283830
 30
0.0
 10
119.775943
 20
88.283830
 30
0.0
  0
LWPOLYLINE
  5
116
100
AcDbEntity
  8
0
 62
7
100
AcDbPolyline
 90
5
 70
0
 10
166.774085
 20
84.847953
 30
0.0
 10
185.092883
 20
84.847953
 30
0.0
 10
185.078773
 20
89.818333
 30
0.0
 10
117.871042
 20
89.818333
 30
0.0
 10
117.871042
 20
89.821861
 30
0.0
  0
SPLINE
  5
117
100
AcDbEntity
  8
0
 62
7
100
AcDbSpline
 70
8
 71
3
 72
8
 73
4
 74
0
 40
0
 40
0
 40
0
 40
0
 40
1
 40
1
 40
1
 40
1
 10
119.775943
 20
6.757593
 30
0.0
 10
119.197418
 20
6.757593
 30
0.0
 10
118.724720
 20
7.226763
 30
0.0
 10
118.724720
 20
7.808816
 30
0.0
  0
SPLINE
  5
118
100
AcDbEntity
  8
0
 62
7
100
AcDbSpline
 70
8
 71
3
 72
8
 73
4
 74
0
 40
0
 40
0
 40
0
 40
0
 40
1
 40
1
 40
1
 40
1
 10
118.724720
 20
7.808816
 30
0.0
 10
118.724720
 20
8.390870
 30
0.0
 10
119.193890
 20
8.860040
 30
0.0
 10
119.775943
 20
8.860040
 30
0.0
  0
SPLINE
  5
119
100
AcDbEntity
  8
0
 62
7
100
AcDbSpline
 70
8
 71
3
 72
8
 73
4
 74
0
 40
0
 40
0
 40
0
 40
0
 40
1
 40
1
 40
1
 40
1
 10
119.775943
 20
8.860040
 30
0.0
 10
120.357996
 20
8.860040
 30
0.0
 10
120.827167
 20
8.390870
 30
0.0
 10
120.827167
 20
7.808816
 30
0.0
  0
SPLINE
  5
11a
100
AcDbEntity
  8
0
 62
7
100
AcDbSpline
 70
8
 71
3
 72
8
 73
4
 74
0
 40
0
 40
0
 40
0
 40
0
 40
1
 40
1
 40
1
 40
1
 10
120.827167
 20
7.808816
 30
0.0
 10
120.827167
 20
7.226763
 30
0.0
 10
120.357996
 20
6.757593
 30
0.0
 10
119.775943
 20
6.757593
 30
0.0
  0
LWPOLYLINE
  5
11b
100
AcDbEntity
  8
0
 62
7
100
AcDbPolyline
 90
1
 70
1
 10
119.775943
 20
88.283830
 30
0.0
  0
SPLINE
  5
11c
100
AcDbEntity
  8
0
 62
7
100
AcDbSpline
 70
8
 71
3
 72
8
 73
4
 74
0
 40
0
 40
0
 40
0
 40
0
 40
1
 40
1
 40
1
 40
1
 10
132.129579
 20
16.783017
 30
0.0
 10
125.363653
 20
16.783017
 30
0.0
 10
119.881771
 20
22.268426
 30
0.0
 10
119.881771
 20
29.030825
 30
0.0
  0
SPLINE
  5
11d
100
AcDbEntity
  8
0
 62
7
100
AcDbSpline
 70
8
 71
3
 72
8
 73
4
 74
0
 40
0
 40
0
 40
0
 40
0
 40
1
 40
1
 40
1
 40
1
 10
119.881771
 20
29.030825
 30
0.0
 10
119.881771
 20
35.793224
 30
0.0
 10
125.367181
 20
41.278633
 30
0.0
 10
132.129579
 20
41.278633
 30
0.0
  0
SPLINE
  5
11e
100
AcDbEntity
  8
0
 62
7
100
AcDbSpline
 70
8
 71
3
 72
8
 73
4
 74
0
 40
0
 40
0
 40
0
 40
0
 40
1
 40
1
 40
1
 40
1
 10
132.129579
 20
41.278633
 30
0.0
 10
138.891978
 20
41.278633
 30
0.0
 10
144.377387
 20
35.793224
 30
0.0
 10
144.377387
 20
29.030825
 30
0.0
  0
SPLINE
  5
11f
100
AcDbEntity
  8
0
 62
7
100
AcDbSpline
 70
8
 71
3
 72
8
 73
4
 74
0
 40
0
 40
0
 40
0
 40
0
 40
1
 40
1
 40
1
 40
1
 10
144.377387
 20
29.030825
 30
0.0
 10
144.377387
 20
22.268426
 30
0.0
 10
138.891978
 20
16.783017
 30
0.0
 10
132.129579
 20
16.783017
 30
0.0
  0
LWPOLYLINE
  5
120
100
AcDbEntity
  8
0
 62
7
100
AcDbPolyline
 90
1
 70
1
 10
119.775943
 20
6.757593
 30
0.0
  0
SPLINE
  5
121
100
AcDbEntity
  8
0
 62
7
100
AcDbSpline
 70
8
 71
3
 72
8
 73
4
 74
0
 40
0
 40
0
 40
0
 40
0
 40
1
 40
1
 40
1
 40
1
 10
181.843968
 20
86.128469
 30
0.0
 10
181.265443
 20
86.128469
 30
0.0
 10
180.792745
 20
86.597639
 30
0.0
 10
180.792745
 20
87.179693
 30
0.0
  0
SPLINE
  5
122
100
AcDbEntity
  8
0
 62
7
100
AcDbSpline
 70
8
 71
3
 72
8
 73
4
 74
0
 40
0
 40
0
 40
0
 40
0
 40
1
 40
1
 40
1
 40
1
 10
180.792745
 20
87.179693
 30
0.0
 10
180.792745
 20
87.761746
 30
0.0
 10
181.261915
 20
88.230916
 30
0.0
 10
181.843968
 20
88.230916
 30
0.0
  0
SPLINE
  5
123
100
AcDbEntity
  8
0
 62
7
100
AcDbSpline
 70
8
 71
3
 72
8
 73
4
 74
0
 40
0
 40
0
 40
0
 40
0
 40
1
 40
1
 40
1
 40
1
 10
181.843968
 20
88.230916
 30
0.0
 10
182.426022
 20
88.230916
 30
0.0
 10
182.895192
 20
87.761746
 30
0.0
 10
182.895192
 20
87.179693
 30
0.0
  0
SPLINE
  5
124
100
AcDbEntity
  8
0
 62
7
100
AcDbSpline
 70
8
 71
3
 72
8
 73
4
 74
0
 40
0
 40
0
 40
0
 40
0
 40
1
 40
1
 40
1
 40
1
 10
182.895192
 20
87.179693
 30
0.0
 10
182.895192
 20
86.597639
 30
0.0
 10
182.426022
 20
86.128469
 30
0.0
 10
181.843968
 20
86.128469
 30
0.0
  0
LWPOLYLINE
  5
125
100
AcDbEntity
  8
0
 62
7
100
AcDbPolyline
 90
2
 70
1
 10
132.129579
 20
16.783017
 30
0.0
 10
132.129579
 20
16.783017
 30
0.0
  0
LWPOLYLINE
  5
126
100
AcDbEntity
  8
0
 62
7
100
AcDbPolyline
 90
1
 70
1
 10
181.843968
 20
86.128469
 30
0.0
  0
SPLINE
  5
127
100
AcDbEntity
  8
0
 62
7
100
AcDbSpline
 70
8
 71
3
 72
8
 73
4
 74
0
 40
0
 40
0
 40
0
 40
0
 40
1
 40
1
 40
1
 40
1
 10
41.629143
 20
50.175226
 30
0.0
 10
42.017178
 20
50.175226
 30
0.0
 10
42.331134
 20
49.861270
 30
0.0
 10
42.331134
 20
49.473235
 30
0.0
  0
LWPOLYLINE
  5
128
100
AcDbEntity
  8
0
 62
7
100
AcDbPolyline
 90
5
 70
0
 10
55.915900
 20
51.247615
 30
0.0
 10
56.536757
 20
60.123043
 30
0.0
 10
39.382065
 20
60.123043
 30
0.0
 10
39.382065
 20
50.175226
 30
0.0
 10
41.629143
 20
50.175226
 30
0.0
  0
SPLINE
  5
129
100
AcDbEntity
  8
0
 62
7
100
AcDbSpline
 70
8
 71
3
 72
8
 73
4
 74
0
 40
0
 40
0
 40
0
 40
0
 40
1
 40
1
 40
1
 40
1
 10
56.561450
 20
50.503293
 30
0.0
 10
56.176942
 20
50.531513
 30
0.0
 10
55.884152
 20
50.866635
 30
0.0
 10
55.912373
 20
51.251143
 30
0.0
  0
LWPOLYLINE
  5
12a
100
AcDbEntity
  8
0
 62
7
100
AcDbPolyline
 90
6
 70
0
 10
42.331134
 20
49.473235
 30
0.0
 10
42.355827
 20
42.971878
 30
0.0
 10
58.335830
 20
42.971878
 30
0.0
 10
73.426879
 20
41.913600
 30
0.0
 10
74.756782
 20
49.229831
 30
0.0
 10
56.561450
 20
50.503293
 30
0.0
  0
SPLINE
  5
12b
100
AcDbEntity
  8
0
 62
7
100
AcDbSpline
 70
8
 71
3
 72
8
 73
4
 74
0
 40
0
 40
0
 40
0
 40
0
 40
1
 40
1
 40
1
 40
1
 10
44.952137
 20
47.568334
 30
0.0
 10
44.676984
 20
47.568334
 30
0.0
 10
44.451218
 20
47.790572
 30
0.0
 10
44.451218
 20
48.069252
 30
0.0
  0
SPLINE
  5
12c
100
AcDbEntity
  8
0
 62
7
100
AcDbSpline
 70
8
 71
3
 72
8
 73
4
 74
0
 40
0
 40
0
 40
0
 40
0
 40
1
 40
1
 40
1
 40
1
 10
44.451218
 20
48.069252
 30
0.0
 10
44.451218
 20
48.347932
 30
0.0
 10
44.673457
 20
48.570171
 30
0.0
 10
44.952137
 20
48.570171
 30
0.0
  0
SPLINE
  5
12d
100
AcDbEntity
  8
0
 62
7
100
AcDbSpline
 70
8
 71
3
 72
8
 73
4
 74
0
 40
0
 40
0
 40
0
 40
0
 40
1
 40
1
 40
1
 40
1
 10
44.952137
 20
48.570171
 30
0.0
 10
45.230817
 20
48.570171
 30
0.0
 10
45.453055
 20
48.347932
 30
0.0
 10
45.453055
 20
48.069252
 30
0.0
  0
SPLINE
  5
12e
100
AcDbEntity
  8
0
 62
7
100
AcDbSpline
 70
8
 71
3
 72
8
 73
4
 74
0
 40
0
 40
0
 40
0
 40
0
 40
1
 40
1
 40
1
 40
1
 10
45.453055
 20
48.069252
 30
0.0
 10
45.453055
 20
47.790572
 30
0.0
 10
45.230817
 20
47.568334
 30
0.0
 10
44.952137
 20
47.568334
 30
0.0
  0
LWPOLYLINE
  5
12f
100
AcDbEntity
  8
0
 62
7
100
AcDbPolyline
 90
3
 70
0
 10
55.912373
 20
51.251143
 30
0.0
 10
55.915900
 20
51.251143
 30
0.0
 10
55.915900
 20
51.247615
 30
0.0
  0
SPLINE
  5
130
100
AcDbEntity
  8
0
 62
7
100
AcDbSpline
 70
8
 71
3
 72
8
 73
4
 74
0
 40
0
 40
0
 40
0
 40
0
 40
1
 40
1
 40
1
 40
1
 10
44.952137
 20
49.568480
 30
0.0
 10
44.676984
 20
49.568480
 30
0.0
 10
44.451218
 20
49.790719
 30
0.0
 10
44.451218
 20
50.069399
 30
0.0
  0
SPLINE
  5
131
100
AcDbEntity
  8
0
 62
7
100
AcDbSpline
 70
8
 71
3
 72
8
 73
4
 74
0
 40
0
 40
0
 40
0
 40
0
 40
1
 40
1
 40
1
 40
1
 10
44.451218
 20
50.069399
 30
0.0
 10
44.451218
 20
50.348078
 30
0.0
 10
44.673457
 20
50.570317
 30
0.0
 10
44.952137
 20
50.570317
 30
0.0
  0
SPLINE
  5
132
100
AcDbEntity
  8
0
 62
7
100
AcDbSpline
 70
8
 71
3
 72
8
 73
4
 74
0
 40
0
 40
0
 40
0
 40
0
 40
1
 40
1
 40
1
 40
1
 10
44.952137
 20
50.570317
 30
0.0
 10
45.230817
 20
50.570317
 30
0.0
 10
45.453055
 20
50.348078
 30
0.0
 10
45.453055
 20
50.069399
 30
0.0
  0
SPLINE
  5
133
100
AcDbEntity
  8
0
 62
7
100
AcDbSpline
 70
8
 71
3
 72
8
 73
4
 74
0
 40
0
 40
0
 40
0
 40
0
 40
1
 40
1
 40
1
 40
1
 10
45.453055
 20
50.069399
 30
0.0
 10
45.453055
 20
49.790719
 30
0.0
 10
45.230817
 20
49.568480
 30
0.0
 10
44.952137
 20
49.568480
 30
0.0
  0
LWPOLYLINE
  5
134
100
AcDbEntity
  8
0
 62
7
100
AcDbPolyline
 90
1
 70
1
 10
44.952137
 20
47.568334
 30
0.0
  0
SPLINE
  5
135
100
AcDbEntity
  8
0
 62
7
100
AcDbSpline
 70
8
 71
3
 72
8
 73
4
 74
0
 40
0
 40
0
 40
0
 40
0
 40
1
 40
1
 40
1
 40
1
 10
44.952137
 20
51.568626
 30
0.0
 10
44.676984
 20
51.568626
 30
0.0
 10
44.451218
 20
51.790865
 30
0.0
 10
44.451218
 20
52.069545
 30
0.0
  0
SPLINE
  5
136
100
AcDbEntity
  8
0
 62
7
100
AcDbSpline
 70
8
 71
3
 72
8
 73
4
 74
0
 40
0
 40
0
 40
0
 40
0
 40
1
 40
1
 40
1
 40
1
 10
44.451218
 20
52.069545
 30
0.0
 10
44.451218
 20
52.348225
 30
0.0
 10
44.673457
 20
52.570463
 30
0.0
 10
44.952137
 20
52.570463
 30
0.0
  0
SPLINE
  5
137
100
AcDbEntity
  8
0
 62
7
100
AcDbSpline
 70
8
 71
3
 72
8
 73
4
 74
0
 40
0
 40
0
 40
0
 40
0
 40
1
 40
1
 40
1
 40
1
 10
44.952137
 20
52.570463
 30
0.0
 10
45.230817
 20
52.570463
 30
0.0
 10
45.453055
 20
52.348225
 30
0.0
 10
45.453055
 20
52.069545
 30
0.0
  0
SPLINE
  5
138
100
AcDbEntity
  8
0
 62
7
100
AcDbSpline
 70
8
 71
3
 72
8
 73
4
 74
0
 40
0
 40
0
 40
0
 40
0
 40
1
 40
1
 40
1
 40
1
 10
45.453055
 20
52.069545
 30
0.0
 10
45.453055
 20
51.790865
 30
0.0
 10
45.230817
 20
51.568626
 30
0.0
 10
44.952137
 20
51.568626
 30
0.0
  0
LWPOLYLINE
  5
139
100
AcDbEntity
  8
0
 62
7
100
AcDbPolyline
 90
1
 70
1
 10
44.952137
 20
49.568480
 30
0.0
  0
SPLINE
  5
13a
100
AcDbEntity
  8
0
 62
7
100
AcDbSpline
 70
8
 71
3
 72
8
 73
4
 74
0
 40
0
 40
0
 40
0
 40
0
 40
1
 40
1
 40
1
 40
1
 10
44.952137
 20
53.568772
 30
0.0
 10
44.676984
 20
53.568772
 30
0.0
 10
44.451218
 20
53.791011
 30
0.0
 10
44.451218
 20
54.069691
 30
0.0
  0
SPLINE
  5
13b
100
AcDbEntity
  8
0
 62
7
100
AcDbSpline
 70
8
 71
3
 72
8
 73
4
 74
0
 40
0
 40
0
 40
0
 40
0
 40
1
 40
1
 40
1
 40
1
 10
44.451218
 20
54.069691
 30
0.0
 10
44.451218
 20
54.348371
 30
0.0
 10
44.673457
 20
54.570609
 30
0.0
 10
44.952137
 20
54.570609
 30
0.0
  0
SPLINE
  5
13c
100
AcDbEntity
  8
0
 62
7
100
AcDbSpline
 70
8
 71
3
 72
8
 73
4
 74
0
 40
0
 40
0
 40
0
 40
0
 40
1
 40
1
 40
1
 40
1
 10
44.952137
 20
54.570609
 30
0.0
 10
45.230817
 20
54.570609
 30
0.0
 10
45.453055
 20
54.348371
 30
0.0
 10
45.453055
 20
54.069691
 30
0.0
  0
SPLINE
  5
13d
100
AcDbEntity
  8
0
 62
7
100
AcDbSpline
 70
8
 71
3
 72
8
 73
4
 74
0
 40
0
 40
0
 40
0
 40
0
 40
1
 40
1
 40
1
 40
1
 10
45.453055
 20
54.069691
 30
0.0
 10
45.453055
 20
53.791011
 30
0.0
 10
45.230817
 20
53.568772
 30
0.0
 10
44.952137
 20
53.568772
 30
0.0
  0
LWPOLYLINE
  5
13e
100
AcDbEntity
  8
0
 62
7
100
AcDbPolyline
 90
1
 70
1
 10
44.952137
 20
51.568626
 30
0.0
  0
SPLINE
  5
13f
100
AcDbEntity
  8
0
 62
7
100
AcDbSpline
 70
8
 71
3
 72
8
 73
4
 74
0
 40
0
 40
0
 40
0
 40
0
 40
1
 40
1
 40
1
 40
1
 10
44.952137
 20
55.568918
 30
0.0
 10
44.676984
 20
55.568918
 30
0.0
 10
44.451218
 20
55.791157
 30
0.0
 10
44.451218
 20
56.069837
 30
0.0
  0
SPLINE
  5
140
100
AcDbEntity
  8
0
 62
7
100
AcDbSpline
 70
8
 71
3
 72
8
 73
4
 74
0
 40
0
 40
0
 40
0
 40
0
 40
1
 40
1
 40
1
 40
1
 10
44.451218
 20
56.069837
 30
0.0
 10
44.451218
 20
56.348517
 30
0.0
 10
44.673457
 20
56.570755
 30
0.0
 10
44.952137
 20
56.570755
 30
0.0
  0
SPLINE
  5
141
100
AcDbEntity
  8
0
 62
7
100
AcDbSpline
 70
8
 71
3
 72
8
 73
4
 74
0
 40
0
 40
0
 40
0
 40
0
 40
1
 40
1
 40
1
 40
1
 10
44.952137
 20
56.570755
 30
0.0
 10
45.230817
 20
56.570755
 30
0.0
 10
45.453055
 20
56.348517
 30
0.0
 10
45.453055
 20
56.069837
 30
0.0
  0
SPLINE
  5
142
100
AcDbEntity
  8
0
 62
7
100
AcDbSpline
 70
8
 71
3
 72
8
 73
4
 74
0
 40
0
 40
0
 40
0
 40
0
 40
1
 40
1
 40
1
 40
1
 10
45.453055
 20
56.069837
 30
0.0
 10
45.453055
 20
55.791157
 30
0.0
 10
45.230817
 20
55.568918
 30
0.0
 10
44.952137
 20
55.568918
 30
0.0
  0
LWPOLYLINE
  5
143
100
AcDbEntity
  8
0
 62
7
100
AcDbPolyline
 90
1
 70
1
 10
44.952137
 20
53.568772
 30
0.0
  0
SPLINE
  5
144
100
AcDbEntity
  8
0
 62
7
100
AcDbSpline
 70
8
 71
3
 72
8
 73
4
 74
0
 40
0
 40
0
 40
0
 40
0
 40
1
 40
1
 40
1
 40
1
 10
46.952283
 20
47.568334
 30
0.0
 10
46.677130
 20
47.568334
 30
0.0
 10
46.451364
 20
47.790572
 30
0.0
 10
46.451364
 20
48.069252
 30
0.0
  0
SPLINE
  5
145
100
AcDbEntity
  8
0
 62
7
100
AcDbSpline
 70
8
 71
3
 72
8
 73
4
 74
0
 40
0
 40
0
 40
0
 40
0
 40
1
 40
1
 40
1
 40
1
 10
46.451364
 20
48.069252
 30
0.0
 10
46.451364
 20
48.347932
 30
0.0
 10
46.673603
 20
48.570171
 30
0.0
 10
46.952283
 20
48.570171
 30
0.0
  0
SPLINE
  5
146
100
AcDbEntity
  8
0
 62
7
100
AcDbSpline
 70
8
 71
3
 72
8
 73
4
 74
0
 40
0
 40
0
 40
0
 40
0
 40
1
 40
1
 40
1
 40
1
 10
46.952283
 20
48.570171
 30
0.0
 10
47.230963
 20
48.570171
 30
0.0
 10
47.453201
 20
48.347932
 30
0.0
 10
47.453201
 20
48.069252
 30
0.0
  0
SPLINE
  5
147
100
AcDbEntity
  8
0
 62
7
100
AcDbSpline
 70
8
 71
3
 72
8
 73
4
 74
0
 40
0
 40
0
 40
0
 40
0
 40
1
 40
1
 40
1
 40
1
 10
47.453201
 20
48.069252
 30
0.0
 10
47.453201
 20
47.790572
 30
0.0
 10
47.230963
 20
47.568334
 30
0.0
 10
46.952283
 20
47.568334
 30
0.0
  0
LWPOLYLINE
  5
148
100
AcDbEntity
  8
0
 62
7
100
AcDbPolyline
 90
1
 70
1
 10
44.952137
 20
55.568918
 30
0.0
  0
SPLINE
  5
149
100
AcDbEntity
  8
0
 62
7
100
AcDbSpline
 70
8
 71
3
 72
8
 73
4
 74
0
 40
0
 40
0
 40
0
 40
0
 40
1
 40
1
 40
1
 40
1
 10
46.952283
 20
49.568480
 30
0.0
 10
46.677130
 20
49.568480
 30
0.0
 10
46.451364
 20
49.790719
 30
0.0
 10
46.451364
 20
50.069399
 30
0.0
  0
SPLINE
  5
14a
100
AcDbEntity
  8
0
 62
7
100
AcDbSpline
 70
8
 71
3
 72
8
 73
4
 74
0
 40
0
 40
0
 40
0
 40
0
 40
1
 40
1
 40
1
 40
1
 10
46.451364
 20
50.069399
 30
0.0
 10
46.451364
 20
50.348078
 30
0.0
 10
46.673603
 20
50.570317
 30
0.0
 10
46.952283
 20
50.570317
 30
0.0
  0
SPLINE
  5
14b
100
AcDbEntity
  8
0
 62
7
100
AcDbSpline
 70
8
 71
3
 72
8
 73
4
 74
0
 40
0
 40
0
 40
0
 40
0
 40
1
 40
1
 40
1
 40
1
 10
46.952283
 20
50.570317
 30
0.0
 10
47.230963
 20
50.570317
 30
0.0
 10
47.453201
 20
50.348078
 30
0.0
 10
47.453201
 20
50.069399
 30
0.0
  0
SPLINE
  5
14c
100
AcDbEntity
  8
0
 62
7
100
AcDbSpline
 70
8
 71
3
 72
8
 73
4
 74
0
 40
0
 40
0
 40
0
 40
0
 40
1
 40
1
 40
1
 40
1
 10
47.453201
 20
50.069399
 30
0.0
 10
47.453201
 20
49.790719
 30
0.0
 10
47.230963
 20
49.568480
 30
0.0
 10
46.952283
 20
49.568480
 30
0.0
  0
LWPOLYLINE
  5
14d
100
AcDbEntity
  8
0
 62
7
100
AcDbPolyline
 90
1
 70
1
 10
46.952283
 20
47.568334
 30
0.0
  0
SPLINE
  5
14e
100
AcDbEntity
  8
0
 62
7
100
AcDbSpline
 70
8
 71
3
 72
8
 73
4
 74
0
 40
0
 40
0
 40
0
 40
0
 40
1
 40
1
 40
1
 40
1
 10
46.952283
 20
51.568626
 30
0.0
 10
46.677130
 20
51.568626
 30
0.0
 10
46.451364
 20
51.790865
 30
0.0
 10
46.451364
 20
52.069545
 30
0.0
  0
SPLINE
  5
14f
100
AcDbEntity
  8
0
 62
7
100
AcDbSpline
 70
8
 71
3
 72
8
 73
4
 74
0
 40
0
 40
0
 40
0
 40
0
 40
1
 40
1
 40
1
 40
1
 10
46.451364
 20
52.069545
 30
0.0
 10
46.451364
 20
52.348225
 30
0.0
 10
46.673603
 20
52.570463
 30
0.0
 10
46.952283
 20
52.570463
 30
0.0
  0
SPLINE
  5
150
100
AcDbEntity
  8
0
 62
7
100
AcDbSpline
 70
8
 71
3
 72
8
 73
4
 74
0
 40
0
 40
0
 40
0
 40
0
 40
1
 40
1
 40
1
 40
1
 10
46.952283
 20
52.570463
 30
0.0
 10
47.230963
 20
52.570463
 30
0.0
 10
47.453201
 20
52.348225
 30
0.0
 10
47.453201
 20
52.069545
 30
0.0
  0
SPLINE
  5
151
100
AcDbEntity
  8
0
 62
7
100
AcDbSpline
 70
8
 71
3
 72
8
 73
4
 74
0
 40
0
 40
0
 40
0
 40
0
 40
1
 40
1
 40
1
 40
1
 10
47.453201
 20
52.069545
 30
0.0
 10
47.453201
 20
51.790865
 30
0.0
 10
47.230963
 20
51.568626
 30
0.0
 10
46.952283
 20
51.568626
 30
0.0
  0
LWPOLYLINE
  5
152
100
AcDbEntity
  8
0
 62
7
100
AcDbPolyline
 90
1
 70
1
 10
46.952283
 20
49.568480
 30
0.0
  0
SPLINE
  5
153
100
AcDbEntity
  8
0
 62
7
100
AcDbSpline
 70
8
 71
3
 72
8
 73
4
 74
0
 40
0
 40
0
 40
0
 40
0
 40
1
 40
1
 40
1
 40
1
 10
46.952283
 20
53.568772
 30
0.0
 10
46.677130
 20
53.568772
 30
0.0
 10
46.451364
 20
53.791011
 30
0.0
 10
46.451364
 20
54.069691
 30
0.0
  0
SPLINE
  5
154
100
AcDbEntity
  8
0
 62
7
100
AcDbSpline
 70
8
 71
3
 72
8
 73
4
 74
0
 40
0
 40
0
 40
0
 40
0
 40
1
 40
1
 40
1
 40
1
 10
46.451364
 20
54.069691
 30
0.0
 10
46.451364
 20
54.348371
 30
0.0
 10
46.673603
 20
54.570609
 30
0.0
 10
46.952283
 20
54.570609
 30
0.0
  0
SPLINE
  5
155
100
AcDbEntity
  8
0
 62
7
100
AcDbSpline
 70
8
 71
3
 72
8
 73
4
 74
0
 40
0
 40
0
 40
0
 40
0
 40
1
 40
1
 40
1
 40
1
 10
46.952283
 20
54.570609
 30
0.0
 10
47.230963
 20
54.570609
 30
0.0
 10
47.453201
 20
54.348371
 30
0.0
 10
47.453201
 20
54.069691
 30
0.0
  0
SPLINE
  5
156
100
AcDbEntity
  8
0
 62
7
100
AcDbSpline
 70
8
 71
3
 72
8
 73
4
 74
0
 40
0
 40
0
 40
0
 40
0
 40
1
 40
1
 40
1
 40
1
 10
47.453201
 20
54.069691
 30
0.0
 10
47.453201
 20
53.791011
 30
0.0
 10
47.230963
 20
53.568772
 30
0.0
 10
46.952283
 20
53.568772
 30
0.0
  0
LWPOLYLINE
  5
157
100
AcDbEntity
  8
0
 62
7
100
AcDbPolyline
 90
1
 70
1
 10
46.952283
 20
51.568626
 30
0.0
  0
SPLINE
  5
158
100
AcDbEntity
  8
0
 62
7
100
AcDbSpline
 70
8
 71
3
 72
8
 73
4
 74
0
 40
0
 40
0
 40
0
 40
0
 40
1
 40
1
 40
1
 40
1
 10
46.952283
 20
55.568918
 30
0.0
 10
46.677130
 20
55.568918
 30
0.0
 10
46.451364
 20
55.791157
 30
0.0
 10
46.451364
 20
56.069837
 30
0.0
  0
SPLINE
  5
159
100
AcDbEntity
  8
0
 62
7
100
AcDbSpline
 70
8
 71
3
 72
8
 73
4
 74
0
 40
0
 40
0
 40
0
 40
0
 40
1
 40
1
 40
1
 40
1
 10
46.451364
 20
56.069837
 30
0.0
 10
46.451364
 20
56.348517
 30
0.0
 10
46.673603
 20
56.570755
 30
0.0
 10
46.952283
 20
56.570755
 30
0.0
  0
SPLINE
  5
15a
100
AcDbEntity
  8
0
 62
7
100
AcDbSpline
 70
8
 71
3
 72
8
 73
4
 74
0
 40
0
 40
0
 40
0
 40
0
 40
1
 40
1
 40
1
 40
1
 10
46.952283
 20
56.570755
 30
0.0
 10
47.230963
 20
56.570755
 30
0.0
 10
47.453201
 20
56.348517
 30
0.0
 10
47.453201
 20
56.069837
 30
0.0
  0
SPLINE
  5
15b
100
AcDbEntity
  8
0
 62
7
100
AcDbSpline
 70
8
 71
3
 72
8
 73
4
 74
0
 40
0
 40
0
 40
0
 40
0
 40
1
 40
1
 40
1
 40
1
 10
47.453201
 20
56.069837
 30
0.0
 10
47.453201
 20
55.791157
 30
0.0
 10
47.230963
 20
55.568918
 30
0.0
 10
46.952283
 20
55.568918
 30
0.0
  0
LWPOLYLINE
  5
15c
100
AcDbEntity
  8
0
 62
7
100
AcDbPolyline
 90
1
 70
1
 10
46.952283
 20
53.568772
 30
0.0
  0
SPLINE
  5
15d
100
AcDbEntity
  8
0
 62
7
100
AcDbSpline
 70
8
 71
3
 72
8
 73
4
 74
0
 40
0
 40
0
 40
0
 40
0
 40
1
 40
1
 40
1
 40
1
 10
48.952429
 20
47.568334
 30
0.0
 10
48.677276
 20
47.568334
 30
0.0
 10
48.451510
 20
47.790572
 30
0.0
 10
48.451510
 20
48.069252
 30
0.0
  0
SPLINE
  5
15e
100
AcDbEntity
  8
0
 62
7
100
AcDbSpline
 70
8
 71
3
 72
8
 73
4
 74
0
 40
0
 40
0
 40
0
 40
0
 40
1
 40
1
 40
1
 40
1
 10
48.451510
 20
48.069252
 30
0.0
 10
48.451510
 20
48.347932
 30
0.0
 10
48.673749
 20
48.570171
 30
0.0
 10
48.952429
 20
48.570171
 30
0.0
  0
SPLINE
  5
15f
100
AcDbEntity
  8
0
 62
7
100
AcDbSpline
 70
8
 71
3
 72
8
 73
4
 74
0
 40
0
 40
0
 40
0
 40
0
 40
1
 40
1
 40
1
 40
1
 10
48.952429
 20
48.570171
 30
0.0
 10
49.231109
 20
48.570171
 30
0.0
 10
49.453347
 20
48.347932
 30
0.0
 10
49.453347
 20
48.069252
 30
0.0
  0
SPLINE
  5
160
100
AcDbEntity
  8
0
 62
7
100
AcDbSpline
 70
8
 71
3
 72
8
 73
4
 74
0
 40
0
 40
0
 40
0
 40
0
 40
1
 40
1
 40
1
 40
1
 10
49.453347
 20
48.069252
 30
0.0
 10
49.453347
 20
47.790572
 30
0.0
 10
49.231109
 20
47.568334
 30
0.0
 10
48.952429
 20
47.568334
 30
0.0
  0
LWPOLYLINE
  5
161
100
AcDbEntity
  8
0
 62
7
100
AcDbPolyline
 90
1
 70
1
 10
46.952283
 20
55.568918
 30
0.0
  0
SPLINE
  5
162
100
AcDbEntity
  8
0
 62
7
100
AcDbSpline
 70
8
 71
3
 72
8
 73
4
 74
0
 40
0
 40
0
 40
0
 40
0
 40
1
 40
1
 40
1
 40
1
 10
48.952429
 20
49.568480
 30
0.0
 10
48.677276
 20
49.568480
 30
0.0
 10
48.451510
 20
49.790719
 30
0.0
 10
48.451510
 20
50.069399
 30
0.0
  0
SPLINE
  5
163
100
AcDbEntity
  8
0
 62
7
100
AcDbSpline
 70
8
 71
3
 72
8
 73
4
 74
0
 40
0
 40
0
 40
0
 40
0
 40
1
 40
1
 40
1
 40
1
 10
48.451510
 20
50.069399
 30
0.0
 10
48.451510
 20
50.348078
 30
0.0
 10
48.673749
 20
50.570317
 30
0.0
 10
48.952429
 20
50.570317
 30
0.0
  0
SPLINE
  5
164
100
AcDbEntity
  8
0
 62
7
100
AcDbSpline
 70
8
 71
3
 72
8
 73
4
 74
0
 40
0
 40
0
 40
0
 40
0
 40
1
 40
1
 40
1
 40
1
 10
48.952429
 20
50.570317
 30
0.0
 10
49.231109
 20
50.570317
 30
0.0
 10
49.453347
 20
50.348078
 30
0.0
 10
49.453347
 20
50.069399
 30
0.0
  0
SPLINE
  5
165
100
AcDbEntity
  8
0
 62
7
100
AcDbSpline
 70
8
 71
3
 72
8
 73
4
 74
0
 40
0
 40
0
 40
0
 40
0
 40
1
 40
1
 40
1
 40
1
 10
49.453347
 20
50.069399
 30
0.0
 10
49.453347
 20
49.790719
 30
0.0
 10
49.231109
 20
49.568480
 30
0.0
 10
48.952429
 20
49.568480
 30
0.0
  0
LWPOLYLINE
  5
166
100
AcDbEntity
  8
0
 62
7
100
AcDbPolyline
 90
1
 70
1
 10
48.952429
 20
47.568334
 30
0.0
  0
SPLINE
  5
167
100
AcDbEntity
  8
0
 62
7
100
AcDbSpline
 70
8
 71
3
 72
8
 73
4
 74
0
 40
0
 40
0
 40
0
 40
0
 40
1
 40
1
 40
1
 40
1
 10
48.952429
 20
51.568626
 30
0.0
 10
48.677276
 20
51.568626
 30
0.0
 10
48.451510
 20
51.790865
 30
0.0
 10
48.451510
 20
52.069545
 30
0.0
  0
SPLINE
  5
168
100
AcDbEntity
  8
0
 62
7
100
AcDbSpline
 70
8
 71
3
 72
8
 73
4
 74
0
 40
0
 40
0
 40
0
 40
0
 40
1
 40
1
 40
1
 40
1
 10
48.451510
 20
52.069545
 30
0.0
 10
48.451510
 20
52.348225
 30
0.0
 10
48.673749
 20
52.570463
 30
0.0
 10
48.952429
 20
52.570463
 30
0.0
  0
SPLINE
  5
169
100
AcDbEntity
  8
0
 62
7
100
AcDbSpline
 70
8
 71
3
 72
8
 73
4
 74
0
 40
0
 40
0
 40
0
 40
0
 40
1
 40
1
 40
1
 40
1
 10
48.952429
 20
52.570463
 30
0.0
 10
49.231109
 20
52.570463
 30
0.0
 10
49.453347
 20
52.348225
 30
0.0
 10
49.453347
 20
52.069545
 30
0.0
  0
SPLINE
  5
16a
100
AcDbEntity
  8
0
 62
7
100
AcDbSpline
 70
8
 71
3
 72
8
 73
4
 74
0
 40
0
 40
0
 40
0
 40
0
 40
1
 40
1
 40
1
 40
1
 10
49.453347
 20
52.069545
 30
0.0
 10
49.453347
 20
51.790865
 30
0.0
 10
49.231109
 20
51.568626
 30
0.0
 10
48.952429
 20
51.568626
 30
0.0
  0
LWPOLYLINE
  5
16b
100
AcDbEntity
  8
0
 62
7
100
AcDbPolyline
 90
1
 70
1
 10
48.952429
 20
49.568480
 30
0.0
  0
SPLINE
  5
16c
100
AcDbEntity
  8
0
 62
7
100
AcDbSpline
 70
8
 71
3
 72
8
 73
4
 74
0
 40
0
 40
0
 40
0
 40
0
 40
1
 40
1
 40
1
 40
1
 10
48.952429
 20
53.568772
 30
0.0
 10
48.677276
 20
53.568772
 30
0.0
 10
48.451510
 20
53.791011
 30
0.0
 10
48.451510
 20
54.069691
 30
0.0
  0
SPLINE
  5
16d
100
AcDbEntity
  8
0
 62
7
100
AcDbSpline
 70
8
 71
3
 72
8
 73
4
 74
0
 40
0
 40
0
 40
0
 40
0
 40
1
 40
1
 40
1
 40
1
 10
48.451510
 20
54.069691
 30
0.0
 10
48.451510
 20
54.348371
 30
0.0
 10
48.673749
 20
54.570609
 30
0.0
 10
48.952429
 20
54.570609
 30
0.0
  0
SPLINE
  5
16e
100
AcDbEntity
  8
0
 62
7
100
AcDbSpline
 70
8
 71
3
 72
8
 73
4
 74
0
 40
0
 40
0
 40
0
 40
0
 40
1
 40
1
 40
1
 40
1
 10
48.952429
 20
54.570609
 30
0.0
 10
49.231109
 20
54.570609
 30
0.0
 10
49.453347
 20
54.348371
 30
0.0
 10
49.453347
 20
54.069691
 30
0.0
  0
SPLINE
  5
16f
100
AcDbEntity
  8
0
 62
7
100
AcDbSpline
 70
8
 71
3
 72
8
 73
4
 74
0
 40
0
 40
0
 40
0
 40
0
 40
1
 40
1
 40
1
 40
1
 10
49.453347
 20
54.069691
 30
0.0
 10
49.453347
 20
53.791011
 30
0.0
 10
49.231109
 20
53.568772
 30
0.0
 10
48.952429
 20
53.568772
 30
0.0
  0
LWPOLYLINE
  5
170
100
AcDbEntity
  8
0
 62
7
100
AcDbPolyline
 90
1
 70
1
 10
48.952429
 20
51.568626
 30
0.0
  0
SPLINE
  5
171
100
AcDbEntity
  8
0
 62
7
100
AcDbSpline
 70
8
 71
3
 72
8
 73
4
 74
0
 40
0
 40
0
 40
0
 40
0
 40
1
 40
1
 40
1
 40
1
 10
48.952429
 20
55.568918
 30
0.0
 10
48.677276
 20
55.568918
 30
0.0
 10
48.451510
 20
55.791157
 30
0.0
 10
48.451510
 20
56.069837
 30
0.0
  0
SPLINE
  5
172
100
AcDbEntity
  8
0
 62
7
100
AcDbSpline
 70
8
 71
3
 72
8
 73
4
 74
0
 40
0
 40
0
 40
0
 40
0
 40
1
 40
1
 40
1
 40
1
 10
48.451510
 20
56.069837
 30
0.0
 10
48.451510
 20
56.348517
 30
0.0
 10
48.673749
 20
56.570755
 30
0.0
 10
48.952429
 20
56.570755
 30
0.0
  0
SPLINE
  5
173
100
AcDbEntity
  8
0
 62
7
100
AcDbSpline
 70
8
 71
3
 72
8
 73
4
 74
0
 40
0
 40
0
 40
0
 40
0
 40
1
 40
1
 40
1
 40
1
 10
48.952429
 20
56.570755
 30
0.0
 10
49.231109
 20
56.570755
 30
0.0
 10
49.453347
 20
56.348517
 30
0.0
 10
49.453347
 20
56.069837
 30
0.0
  0
SPLINE
  5
174
100
AcDbEntity
  8
0
 62
7
100
AcDbSpline
 70
8
 71
3
 72
8
 73
4
 74
0
 40
0
 40
0
 40
0
 40
0
 40
1
 40
1
 40
1
 40
1
 10
49.453347
 20
56.069837
 30
0.0
 10
49.453347
 20
55.791157
 30
0.0
 10
49.231109
 20
55.568918
 30
0.0
 10
48.952429
 20
55.568918
 30
0.0
  0
LWPOLYLINE
  5
175
100
AcDbEntity
  8
0
 62
7
100
AcDbPolyline
 90
1
 70
1
 10
48.952429
 20
53.568772
 30
0.0
  0
SPLINE
  5
176
100
AcDbEntity
  8
0
 62
7
100
AcDbSpline
 70
8
 71
3
 72
8
 73
4
 74
0
 40
0
 40
0
 40
0
 40
0
 40
1
 40
1
 40
1
 40
1
 10
50.952575
 20
47.568334
 30
0.0
 10
50.677422
 20
47.568334
 30
0.0
 10
50.451656
 20
47.790572
 30
0.0
 10
50.451656
 20
48.069252
 30
0.0
  0
SPLINE
  5
177
100
AcDbEntity
  8
0
 62
7
100
AcDbSpline
 70
8
 71
3
 72
8
 73
4
 74
0
 40
0
 40
0
 40
0
 40
0
 40
1
 40
1
 40
1
 40
1
 10
50.451656
 20
48.069252
 30
0.0
 10
50.451656
 20
48.347932
 30
0.0
 10
50.673895
 20
48.570171
 30
0.0
 10
50.952575
 20
48.570171
 30
0.0
  0
SPLINE
  5
178
100
AcDbEntity
  8
0
 62
7
100
AcDbSpline
 70
8
 71
3
 72
8
 73
4
 74
0
 40
0
 40
0
 40
0
 40
0
 40
1
 40
1
 40
1
 40
1
 10
50.952575
 20
48.570171
 30
0.0
 10
51.231255
 20
48.570171
 30
0.0
 10
51.453493
 20
48.347932
 30
0.0
 10
51.453493
 20
48.069252
 30
0.0
  0
SPLINE
  5
179
100
AcDbEntity
  8
0
 62
7
100
AcDbSpline
 70
8
 71
3
 72
8
 73
4
 74
0
 40
0
 40
0
 40
0
 40
0
 40
1
 40
1
 40
1
 40
1
 10
51.453493
 20
48.069252
 30
0.0
 10
51.453493
 20
47.790572
 30
0.0
 10
51.231255
 20
47.568334
 30
0.0
 10
50.952575
 20
47.568334
 30
0.0
  0
LWPOLYLINE
  5
17a
100
AcDbEntity
  8
0
 62
7
100
AcDbPolyline
 90
1
 70
1
 10
48.952429
 20
55.568918
 30
0.0
  0
SPLINE
  5
17b
100
AcDbEntity
  8
0
 62
7
100
AcDbSpline
 70
8
 71
3
 72
8
 73
4
 74
0
 40
0
 40
0
 40
0
 40
0
 40
1
 40
1
 40
1
 40
1
 10
50.952575
 20
49.568480
 30
0.0
 10
50.677422
 20
49.568480
 30
0.0
 10
50.451656
 20
49.790719
 30
0.0
 10
50.451656
 20
50.069399
 30
0.0
  0
SPLINE
  5
17c
100
AcDbEntity
  8
0
 62
7
100
AcDbSpline
 70
8
 71
3
 72
8
 73
4
 74
0
 40
0
 40
0
 40
0
 40
0
 40
1
 40
1
 40
1
 40
1
 10
50.451656
 20
50.069399
 30
0.0
 10
50.451656
 20
50.348078
 30
0.0
 10
50.673895
 20
50.570317
 30
0.0
 10
50.952575
 20
50.570317
 30
0.0
  0
SPLINE
  5
17d
100
AcDbEntity
  8
0
 62
7
100
AcDbSpline
 70
8
 71
3
 72
8
 73
4
 74
0
 40
0
 40
0
 40
0
 40
0
 40
1
 40
1
 40
1
 40
1
 10
50.952575
 20
50.570317
 30
0.0
 10
51.231255
 20
50.570317
 30
0.0
 10
51.453493
 20
50.348078
 30
0.0
 10
51.453493
 20
50.069399
 30
0.0
  0
SPLINE
  5
17e
100
AcDbEntity
  8
0
 62
7
100
AcDbSpline
 70
8
 71
3
 72
8
 73
4
 74
0
 40
0
 40
0
 40
0
 40
0
 40
1
 40
1
 40
1
 40
1
 10
51.453493
 20
50.069399
 30
0.0
 10
51.453493
 20
49.790719
 30
0.0
 10
51.231255
 20
49.568480
 30
0.0
 10
50.952575
 20
49.568480
 30
0.0
  0
LWPOLYLINE
  5
17f
100
AcDbEntity
  8
0
 62
7
100
AcDbPolyline
 90
1
 70
1
 10
50.952575
 20
47.568334
 30
0.0
  0
SPLINE
  5
180
100
AcDbEntity
  8
0
 62
7
100
AcDbSpline
 70
8
 71
3
 72
8
 73
4
 74
0
 40
0
 40
0
 40
0
 40
0
 40
1
 40
1
 40
1
 40
1
 10
50.952575
 20
51.568626
 30
0.0
 10
50.677422
 20
51.568626
 30
0.0
 10
50.451656
 20
51.790865
 30
0.0
 10
50.451656
 20
52.069545
 30
0.0
  0
SPLINE
  5
181
100
AcDbEntity
  8
0
 62
7
100
AcDbSpline
 70
8
 71
3
 72
8
 73
4
 74
0
 40
0
 40
0
 40
0
 40
0
 40
1
 40
1
 40
1
 40
1
 10
50.451656
 20
52.069545
 30
0.0
 10
50.451656
 20
52.348225
 30
0.0
 10
50.673895
 20
52.570463
 30
0.0
 10
50.952575
 20
52.570463
 30
0.0
  0
SPLINE
  5
182
100
AcDbEntity
  8
0
 62
7
100
AcDbSpline
 70
8
 71
3
 72
8
 73
4
 74
0
 40
0
 40
0
 40
0
 40
0
 40
1
 40
1
 40
1
 40
1
 10
50.952575
 20
52.570463
 30
0.0
 10
51.231255
 20
52.570463
 30
0.0
 10
51.453493
 20
52.348225
 30
0.0
 10
51.453493
 20
52.069545
 30
0.0
  0
SPLINE
  5
183
100
AcDbEntity
  8
0
 62
7
100
AcDbSpline
 70
8
 71
3
 72
8
 73
4
 74
0
 40
0
 40
0
 40
0
 40
0
 40
1
 40
1
 40
1
 40
1
 10
51.453493
 20
52.069545
 30
0.0
 10
51.453493
 20
51.790865
 30
0.0
 10
51.231255
 20
51.568626
 30
0.0
 10
50.952575
 20
51.568626
 30
0.0
  0
LWPOLYLINE
  5
184
100
AcDbEntity
  8
0
 62
7
100
AcDbPolyline
 90
1
 70
1
 10
50.952575
 20
49.568480
 30
0.0
  0
SPLINE
  5
185
100
AcDbEntity
  8
0
 62
7
100
AcDbSpline
 70
8
 71
3
 72
8
 73
4
 74
0
 40
0
 40
0
 40
0
 40
0
 40
1
 40
1
 40
1
 40
1
 10
50.952575
 20
53.568772
 30
0.0
 10
50.677422
 20
53.568772
 30
0.0
 10
50.451656
 20
53.791011
 30
0.0
 10
50.451656
 20
54.069691
 30
0.0
  0
SPLINE
  5
186
100
AcDbEntity
  8
0
 62
7
100
AcDbSpline
 70
8
 71
3
 72
8
 73
4
 74
0
 40
0
 40
0
 40
0
 40
0
 40
1
 40
1
 40
1
 40
1
 10
50.451656
 20
54.069691
 30
0.0
 10
50.451656
 20
54.348371
 30
0.0
 10
50.673895
 20
54.570609
 30
0.0
 10
50.952575
 20
54.570609
 30
0.0
  0
SPLINE
  5
187
100
AcDbEntity
  8
0
 62
7
100
AcDbSpline
 70
8
 71
3
 72
8
 73
4
 74
0
 40
0
 40
0
 40
0
 40
0
 40
1
 40
1
 40
1
 40
1
 10
50.952575
 20
54.570609
 30
0.0
 10
51.231255
 20
54.570609
 30
0.0
 10
51.453493
 20
54.348371
 30
0.0
 10
51.453493
 20
54.069691
 30
0.0
  0
SPLINE
  5
188
100
AcDbEntity
  8
0
 62
7
100
AcDbSpline
 70
8
 71
3
 72
8
 73
4
 74
0
 40
0
 40
0
 40
0
 40
0
 40
1
 40
1
 40
1
 40
1
 10
51.453493
 20
54.069691
 30
0.0
 10
51.453493
 20
53.791011
 30
0.0
 10
51.231255
 20
53.568772
 30
0.0
 10
50.952575
 20
53.568772
 30
0.0
  0
LWPOLYLINE
  5
189
100
AcDbEntity
  8
0
 62
7
100
AcDbPolyline
 90
1
 70
1
 10
50.952575
 20
51.568626
 30
0.0
  0
SPLINE
  5
18a
100
AcDbEntity
  8
0
 62
7
100
AcDbSpline
 70
8
 71
3
 72
8
 73
4
 74
0
 40
0
 40
0
 40
0
 40
0
 40
1
 40
1
 40
1
 40
1
 10
50.952575
 20
55.568918
 30
0.0
 10
50.677422
 20
55.568918
 30
0.0
 10
50.451656
 20
55.791157
 30
0.0
 10
50.451656
 20
56.069837
 30
0.0
  0
SPLINE
  5
18b
100
AcDbEntity
  8
0
 62
7
100
AcDbSpline
 70
8
 71
3
 72
8
 73
4
 74
0
 40
0
 40
0
 40
0
 40
0
 40
1
 40
1
 40
1
 40
1
 10
50.451656
 20
56.069837
 30
0.0
 10
50.451656
 20
56.348517
 30
0.0
 10
50.673895
 20
56.570755
 30
0.0
 10
50.952575
 20
56.570755
 30
0.0
  0
SPLINE
  5
18c
100
AcDbEntity
  8
0
 62
7
100
AcDbSpline
 70
8
 71
3
 72
8
 73
4
 74
0
 40
0
 40
0
 40
0
 40
0
 40
1
 40
1
 40
1
 40
1
 10
50.952575
 20
56.570755
 30
0.0
 10
51.231255
 20
56.570755
 30
0.0
 10
51.453493
 20
56.348517
 30
0.0
 10
51.453493
 20
56.069837
 30
0.0
  0
SPLINE
  5
18d
100
AcDbEntity
  8
0
 62
7
100
AcDbSpline
 70
8
 71
3
 72
8
 73
4
 74
0
 40
0
 40
0
 40
0
 40
0
 40
1
 40
1
 40
1
 40
1
 10
51.453493
 20
56.069837
 30
0.0
 10
51.453493
 20
55.791157
 30
0.0
 10
51.231255
 20
55.568918
 30
0.0
 10
50.952575
 20
55.568918
 30
0.0
  0
LWPOLYLINE
  5
18e
100
AcDbEntity
  8
0
 62
7
100
AcDbPolyline
 90
1
 70
1
 10
50.952575
 20
53.568772
 30
0.0
  0
SPLINE
  5
18f
100
AcDbEntity
  8
0
 62
7
100
AcDbSpline
 70
8
 71
3
 72
8
 73
4
 74
0
 40
0
 40
0
 40
0
 40
0
 40
1
 40
1
 40
1
 40
1
 10
52.952721
 20
47.568334
 30
0.0
 10
52.677569
 20
47.568334
 30
0.0
 10
52.451803
 20
47.790572
 30
0.0
 10
52.451803
 20
48.069252
 30
0.0
  0
SPLINE
  5
190
100
AcDbEntity
  8
0
 62
7
100
AcDbSpline
 70
8
 71
3
 72
8
 73
4
 74
0
 40
0
 40
0
 40
0
 40
0
 40
1
 40
1
 40
1
 40
1
 10
52.451803
 20
48.069252
 30
0.0
 10
52.451803
 20
48.347932
 30
0.0
 10
52.674041
 20
48.570171
 30
0.0
 10
52.952721
 20
48.570171
 30
0.0
  0
SPLINE
  5
191
100
AcDbEntity
  8
0
 62
7
100
AcDbSpline
 70
8
 71
3
 72
8
 73
4
 74
0
 40
0
 40
0
 40
0
 40
0
 40
1
 40
1
 40
1
 40
1
 10
52.952721
 20
48.570171
 30
0.0
 10
53.231401
 20
48.570171
 30
0.0
 10
53.453639
 20
48.347932
 30
0.0
 10
53.453639
 20
48.069252
 30
0.0
  0
SPLINE
  5
192
100
AcDbEntity
  8
0
 62
7
100
AcDbSpline
 70
8
 71
3
 72
8
 73
4
 74
0
 40
0
 40
0
 40
0
 40
0
 40
1
 40
1
 40
1
 40
1
 10
53.453639
 20
48.069252
 30
0.0
 10
53.453639
 20
47.790572
 30
0.0
 10
53.231401
 20
47.568334
 30
0.0
 10
52.952721
 20
47.568334
 30
0.0
  0
LWPOLYLINE
  5
193
100
AcDbEntity
  8
0
 62
7
100
AcDbPolyline
 90
1
 70
1
 10
50.952575
 20
55.568918
 30
0.0
  0
SPLINE
  5
194
100
AcDbEntity
  8
0
 62
7
100
AcDbSpline
 70
8
 71
3
 72
8
 73
4
 74
0
 40
0
 40
0
 40
0
 40
0
 40
1
 40
1
 40
1
 40
1
 10
52.952721
 20
49.568480
 30
0.0
 10
52.677569
 20
49.568480
 30
0.0
 10
52.451803
 20
49.790719
 30
0.0
 10
52.451803
 20
50.069399
 30
0.0
  0
SPLINE
  5
195
100
AcDbEntity
  8
0
 62
7
100
AcDbSpline
 70
8
 71
3
 72
8
 73
4
 74
0
 40
0
 40
0
 40
0
 40
0
 40
1
 40
1
 40
1
 40
1
 10
52.451803
 20
50.069399
 30
0.0
 10
52.451803
 20
50.348078
 30
0.0
 10
52.674041
 20
50.570317
 30
0.0
 10
52.952721
 20
50.570317
 30
0.0
  0
SPLINE
  5
196
100
AcDbEntity
  8
0
 62
7
100
AcDbSpline
 70
8
 71
3
 72
8
 73
4
 74
0
 40
0
 40
0
 40
0
 40
0
 40
1
 40
1
 40
1
 40
1
 10
52.952721
 20
50.570317
 30
0.0
 10
53.231401
 20
50.570317
 30
0.0
 10
53.453639
 20
50.348078
 30
0.0
 10
53.453639
 20
50.069399
 30
0.0
  0
SPLINE
  5
197
100
AcDbEntity
  8
0
 62
7
100
AcDbSpline
 70
8
 71
3
 72
8
 73
4
 74
0
 40
0
 40
0
 40
0
 40
0
 40
1
 40
1
 40
1
 40
1
 10
53.453639
 20
50.069399
 30
0.0
 10
53.453639
 20
49.790719
 30
0.0
 10
53.231401
 20
49.568480
 30
0.0
 10
52.952721
 20
49.568480
 30
0.0
  0
LWPOLYLINE
  5
198
100
AcDbEntity
  8
0
 62
7
100
AcDbPolyline
 90
1
 70
1
 10
52.952721
 20
47.568334
 30
0.0
  0
SPLINE
  5
199
100
AcDbEntity
  8
0
 62
7
100
AcDbSpline
 70
8
 71
3
 72
8
 73
4
 74
0
 40
0
 40
0
 40
0
 40
0
 40
1
 40
1
 40
1
 40
1
 10
52.952721
 20
51.568626
 30
0.0
 10
52.677569
 20
51.568626
 30
0.0
 10
52.451803
 20
51.790865
 30
0.0
 10
52.451803
 20
52.069545
 30
0.0
  0
SPLINE
  5
19a
100
AcDbEntity
  8
0
 62
7
100
AcDbSpline
 70
8
 71
3
 72
8
 73
4
 74
0
 40
0
 40
0
 40
0
 40
0
 40
1
 40
1
 40
1
 40
1
 10
52.451803
 20
52.069545
 30
0.0
 10
52.451803
 20
52.348225
 30
0.0
 10
52.674041
 20
52.570463
 30
0.0
 10
52.952721
 20
52.570463
 30
0.0
  0
SPLINE
  5
19b
100
AcDbEntity
  8
0
 62
7
100
AcDbSpline
 70
8
 71
3
 72
8
 73
4
 74
0
 40
0
 40
0
 40
0
 40
0
 40
1
 40
1
 40
1
 40
1
 10
52.952721
 20
52.570463
 30
0.0
 10
53.231401
 20
52.570463
 30
0.0
 10
53.453639
 20
52.348225
 30
0.0
 10
53.453639
 20
52.069545
 30
0.0
  0
SPLINE
  5
19c
100
AcDbEntity
  8
0
 62
7
100
AcDbSpline
 70
8
 71
3
 72
8
 73
4
 74
0
 40
0
 40
0
 40
0
 40
0
 40
1
 40
1
 40
1
 40
1
 10
53.453639
 20
52.069545
 30
0.0
 10
53.453639
 20
51.790865
 30
0.0
 10
53.231401
 20
51.568626
 30
0.0
 10
52.952721
 20
51.568626
 30
0.0
  0
LWPOLYLINE
  5
19d
100
AcDbEntity
  8
0
 62
7
100
AcDbPolyline
 90
1
 70
1
 10
52.952721
 20
49.568480
 30
0.0
  0
SPLINE
  5
19e
100
AcDbEntity
  8
0
 62
7
100
AcDbSpline
 70
8
 71
3
 72
8
 73
4
 74
0
 40
0
 40
0
 40
0
 40
0
 40
1
 40
1
 40
1
 40
1
 10
52.952721
 20
53.568772
 30
0.0
 10
52.677569
 20
53.568772
 30
0.0
 10
52.451803
 20
53.791011
 30
0.0
 10
52.451803
 20
54.069691
 30
0.0
  0
SPLINE
  5
19f
100
AcDbEntity
  8
0
 62
7
100
AcDbSpline
 70
8
 71
3
 72
8
 73
4
 74
0
 40
0
 40
0
 40
0
 40
0
 40
1
 40
1
 40
1
 40
1
 10
52.451803
 20
54.069691
 30
0.0
 10
52.451803
 20
54.348371
 30
0.0
 10
52.674041
 20
54.570609
 30
0.0
 10
52.952721
 20
54.570609
 30
0.0
  0
SPLINE
  5
1a0
100
AcDbEntity
  8
0
 62
7
100
AcDbSpline
 70
8
 71
3
 72
8
 73
4
 74
0
 40
0
 40
0
 40
0
 40
0
 40
1
 40
1
 40
1
 40
1
 10
52.952721
 20
54.570609
 30
0.0
 10
53.231401
 20
54.570609
 30
0.0
 10
53.453639
 20
54.348371
 30
0.0
 10
53.453639
 20
54.069691
 30
0.0
  0
SPLINE
  5
1a1
100
AcDbEntity
  8
0
 62
7
100
AcDbSpline
 70
8
 71
3
 72
8
 73
4
 74
0
 40
0
 40
0
 40
0
 40
0
 40
1
 40
1
 40
1
 40
1
 10
53.453639
 20
54.069691
 30
0.0
 10
53.453639
 20
53.791011
 30
0.0
 10
53.231401
 20
53.568772
 30
0.0
 10
52.952721
 20
53.568772
 30
0.0
  0
LWPOLYLINE
  5
1a2
100
AcDbEntity
  8
0
 62
7
100
AcDbPolyline
 90
1
 70
1
 10
52.952721
 20
51.568626
 30
0.0
  0
SPLINE
  5
1a3
100
AcDbEntity
  8
0
 62
7
100
AcDbSpline
 70
8
 71
3
 72
8
 73
4
 74
0
 40
0
 40
0
 40
0
 40
0
 40
1
 40
1
 40
1
 40
1
 10
52.952721
 20
55.568918
 30
0.0
 10
52.677569
 20
55.568918
 30
0.0
 10
52.451803
 20
55.791157
 30
0.0
 10
52.451803
 20
56.069837
 30
0.0
  0
SPLINE
  5
1a4
100
AcDbEntity
  8
0
 62
7
100
AcDbSpline
 70
8
 71
3
 72
8
 73
4
 74
0
 40
0
 40
0
 40
0
 40
0
 40
1
 40
1
 40
1
 40
1
 10
52.451803
 20
56.069837
 30
0.0
 10
52.451803
 20
56.348517
 30
0.0
 10
52.674041
 20
56.570755
 30
0.0
 10
52.952721
 20
56.570755
 30
0.0
  0
SPLINE
  5
1a5
100
AcDbEntity
  8
0
 62
7
100
AcDbSpline
 70
8
 71
3
 72
8
 73
4
 74
0
 40
0
 40
0
 40
0
 40
0
 40
1
 40
1
 40
1
 40
1
 10
52.952721
 20
56.570755
 30
0.0
 10
53.231401
 20
56.570755
 30
0.0
 10
53.453639
 20
56.348517
 30
0.0
 10
53.453639
 20
56.069837
 30
0.0
  0
SPLINE
  5
1a6
100
AcDbEntity
  8
0
 62
7
100
AcDbSpline
 70
8
 71
3
 72
8
 73
4
 74
0
 40
0
 40
0
 40
0
 40
0
 40
1
 40
1
 40
1
 40
1
 10
53.453639
 20
56.069837
 30
0.0
 10
53.453639
 20
55.791157
 30
0.0
 10
53.231401
 20
55.568918
 30
0.0
 10
52.952721
 20
55.568918
 30
0.0
  0
LWPOLYLINE
  5
1a7
100
AcDbEntity
  8
0
 62
7
100
AcDbPolyline
 90
1
 70
1
 10
52.952721
 20
53.568772
 30
0.0
  0
SPLINE
  5
1a8
100
AcDbEntity
  8
0
 62
7
100
AcDbSpline
 70
8
 71
3
 72
8
 73
4
 74
0
 40
0
 40
0
 40
0
 40
0
 40
1
 40
1
 40
1
 40
1
 10
70.357872
 20
46.943950
 30
0.0
 10
70.936398
 20
46.943950
 30
0.0
 10
71.409095
 20
46.474780
 30
0.0
 10
71.409095
 20
45.892727
 30
0.0
  0
SPLINE
  5
1a9
100
AcDbEntity
  8
0
 62
7
100
AcDbSpline
 70
8
 71
3
 72
8
 73
4
 74
0
 40
0
 40
0
 40
0
 40
0
 40
1
 40
1
 40
1
 40
1
 10
71.409095
 20
45.892727
 30
0.0
 10
71.409095
 20
45.310674
 30
0.0
 10
70.939925
 20
44.841503
 30
0.0
 10
70.357872
 20
44.841503
 30
0.0
  0
SPLINE
  5
1aa
100
AcDbEntity
  8
0
 62
7
100
AcDbSpline
 70
8
 71
3
 72
8
 73
4
 74
0
 40
0
 40
0
 40
0
 40
0
 40
1
 40
1
 40
1
 40
1
 10
70.357872
 20
44.841503
 30
0.0
 10
69.775819
 20
44.841503
 30
0.0
 10
69.306649
 20
45.310674
 30
0.0
 10
69.306649
 20
45.892727
 30
0.0
  0
SPLINE
  5
1ab
100
AcDbEntity
  8
0
 62
7
100
AcDbSpline
 70
8
 71
3
 72
8
 73
4
 74
0
 40
0
 40
0
 40
0
 40
0
 40
1
 40
1
 40
1
 40
1
 10
69.306649
 20
45.892727
 30
0.0
 10
69.306649
 20
46.474780
 30
0.0
 10
69.775819
 20
46.943950
 30
0.0
 10
70.357872
 20
46.943950
 30
0.0
  0
LWPOLYLINE
  5
1ac
100
AcDbEntity
  8
0
 62
7
100
AcDbPolyline
 90
1
 70
1
 10
52.952721
 20
55.568918
 30
0.0
  0
SPLINE
  5
1ad
100
AcDbEntity
  8
0
 62
7
100
AcDbSpline
 70
8
 71
3
 72
8
 73
4
 74
0
 40
0
 40
0
 40
0
 40
0
 40
1
 40
1
 40
1
 40
1
 10
58.783835
 20
47.716493
 30
0.0
 10
59.362360
 20
47.716493
 30
0.0
 10
59.835058
 20
47.247323
 30
0.0
 10
59.835058
 20
46.665270
 30
0.0
  0
SPLINE
  5
1ae
100
AcDbEntity
  8
0
 62
7
100
AcDbSpline
 70
8
 71
3
 72
8
 73
4
 74
0
 40
0
 40
0
 40
0
 40
0
 40
1
 40
1
 40
1
 40
1
 10
59.835058
 20
46.665270
 30
0.0
 10
59.835058
 20
46.083217
 30
0.0
 10
59.365888
 20
45.614047
 30
0.0
 10
58.783835
 20
45.614047
 30
0.0
  0
SPLINE
  5
1af
100
AcDbEntity
  8
0
 62
7
100
AcDbSpline
 70
8
 71
3
 72
8
 73
4
 74
0
 40
0
 40
0
 40
0
 40
0
 40
1
 40
1
 40
1
 40
1
 10
58.783835
 20
45.614047
 30
0.0
 10
58.201782
 20
45.614047
 30
0.0
 10
57.732611
 20
46.083217
 30
0.0
 10
57.732611
 20
46.665270
 30
0.0
  0
SPLINE
  5
1b0
100
AcDbEntity
  8
0
 62
7
100
AcDbSpline
 70
8
 71
3
 72
8
 73
4
 74
0
 40
0
 40
0
 40
0
 40
0
 40
1
 40
1
 40
1
 40
1
 10
57.732611
 20
46.665270
 30
0.0
 10
57.732611
 20
47.247323
 30
0.0
 10
58.201782
 20
47.716493
 30
0.0
 10
58.783835
 20
47.716493
 30
0.0
  0
LWPOLYLINE
  5
1b1
100
AcDbEntity
  8
0
 62
7
100
AcDbPolyline
 90
1
 70
1
 10
70.357872
 20
46.943950
 30
0.0
  0
LWPOLYLINE
  5
1b2
100
AcDbEntity
  8
0
 62
7
100
AcDbPolyline
 90
1
 70
1
 10
58.783835
 20
47.716493
 30
0.0
  0
SPLINE
  5
1b3
100
AcDbEntity
  8
0
 62
7
100
AcDbSpline
 70
8
 71
3
 72
8
 73
4
 74
0
 40
0
 40
0
 40
0
 40
0
 40
1
 40
1
 40
1
 40
1
 10
177.628493
 20
58.673201
 30
0.0
 10
177.600272
 20
58.288694
 30
0.0
 10
177.268678
 20
57.995903
 30
0.0
 10
176.880643
 20
58.024124
 30
0.0
  0
LWPOLYLINE
  5
1b4
100
AcDbEntity
  8
0
 62
7
100
AcDbPolyline
 90
4
 70
0
 10
184.747179
 20
40.463759
 30
0.0
 10
184.747179
 20
80.470208
 30
0.0
 10
179.152414
 20
80.480791
 30
0.0
 10
177.628493
 20
58.673201
 30
0.0
  0
SPLINE
  5
1b5
100
AcDbEntity
  8
0
 62
7
100
AcDbSpline
 70
8
 71
3
 72
8
 73
4
 74
0
 40
0
 40
0
 40
0
 40
0
 40
1
 40
1
 40
1
 40
1
 10
149.047922
 20
59.950191
 30
0.0
 10
148.324766
 20
59.999577
 30
0.0
 10
148.197772
 20
58.941299
 30
0.0
 10
148.910346
 20
58.817833
 30
0.0
  0
LWPOLYLINE
  5
1b6
100
AcDbEntity
  8
0
 62
7
100
AcDbPolyline
 90
2
 70
0
 10
176.880643
 20
58.024124
 30
0.0
 10
149.047922
 20
59.950191
 30
0.0
  0
SPLINE
  5
1b7
100
AcDbEntity
  8
0
 62
7
100
AcDbSpline
 70
8
 71
3
 72
8
 73
4
 74
0
 40
0
 40
0
 40
0
 40
0
 40
1
 40
1
 40
1
 40
1
 10
164.816270
 20
56.027506
 30
0.0
 10
165.197250
 20
55.960481
 30
0.0
 10
165.451237
 20
55.597139
 30
0.0
 10
165.384213
 20
55.216159
 30
0.0
  0
LWPOLYLINE
  5
1b8
100
AcDbEntity
  8
0
 62
7
100
AcDbPolyline
 90
2
 70
0
 10
148.910346
 20
58.817833
 30
0.0
 10
164.816270
 20
56.027506
 30
0.0
  0
SPLINE
  5
1b9
100
AcDbEntity
  8
0
 62
7
100
AcDbSpline
 70
8
 71
3
 72
8
 73
4
 74
0
 40
0
 40
0
 40
0
 40
0
 40
1
 40
1
 40
1
 40
1
 10
184.048715
 20
39.761767
 30
0.0
 10
184.436750
 20
39.761767
 30
0.0
 10
184.747179
 20
40.075723
 30
0.0
 10
184.747179
 20
40.460231
 30
0.0
  0
LWPOLYLINE
  5
1ba
100
AcDbEntity
  8
0
 62
7
100
AcDbPolyline
 90
3
 70
0
 10
165.384213
 20
55.216159
 30
0.0
 10
162.660910
 20
39.761767
 30
0.0
 10
184.048715
 20
39.761767
 30
0.0
  0
SPLINE
  5
1bb
100
AcDbEntity
  8
0
 62
7
100
AcDbSpline
 70
8
 71
3
 72
8
 73
4
 74
0
 40
0
 40
0
 40
0
 40
0
 40
1
 40
1
 40
1
 40
1
 10
181.096118
 20
75.968997
 30
0.0
 10
181.096118
 20
76.547523
 30
0.0
 10
181.565289
 20
77.020220
 30
0.0
 10
182.147342
 20
77.020220
 30
0.0
  0
SPLINE
  5
1bc
100
AcDbEntity
  8
0
 62
7
100
AcDbSpline
 70
8
 71
3
 72
8
 73
4
 74
0
 40
0
 40
0
 40
0
 40
0
 40
1
 40
1
 40
1
 40
1
 10
182.147342
 20
77.020220
 30
0.0
 10
182.729395
 20
77.020220
 30
0.0
 10
183.198565
 20
76.551050
 30
0.0
 10
183.198565
 20
75.968997
 30
0.0
  0
SPLINE
  5
1bd
100
AcDbEntity
  8
0
 62
7
100
AcDbSpline
 70
8
 71
3
 72
8
 73
4
 74
0
 40
0
 40
0
 40
0
 40
0
 40
1
 40
1
 40
1
 40
1
 10
183.198565
 20
75.968997
 30
0.0
 10
183.198565
 20
75.386944
 30
0.0
 10
182.729395
 20
74.917774
 30
0.0
 10
182.147342
 20
74.917774
 30
0.0
  0
SPLINE
  5
1be
100
AcDbEntity
  8
0
 62
7
100
AcDbSpline
 70
8
 71
3
 72
8
 73
4
 74
0
 40
0
 40
0
 40
0
 40
0
 40
1
 40
1
 40
1
 40
1
 10
182.147342
 20
74.917774
 30
0.0
 10
181.565289
 20
74.917774
 30
0.0
 10
181.096118
 20
75.386944
 30
0.0
 10
181.096118
 20
75.968997
 30
0.0
  0
LWPOLYLINE
  5
1bf
100
AcDbEntity
  8
0
 62
7
100
AcDbPolyline
 90
3
 70
0
 10
184.747179
 20
40.460231
 30
0.0
 10
184.747179
 20
40.460231
 30
0.0
 10
184.747179
 20
40.463759
 30
0.0
  0
SPLINE
  5
1c0
100
AcDbEntity
  8
0
 62
7
100
AcDbSpline
 70
8
 71
3
 72
8
 73
4
 74
0
 40
0
 40
0
 40
0
 40
0
 40
1
 40
1
 40
1
 40
1
 10
180.087226
 20
61.128407
 30
0.0
 10
180.087226
 20
61.706933
 30
0.0
 10
180.556397
 20
62.179630
 30
0.0
 10
181.138450
 20
62.179630
 30
0.0
  0
SPLINE
  5
1c1
100
AcDbEntity
  8
0
 62
7
100
AcDbSpline
 70
8
 71
3
 72
8
 73
4
 74
0
 40
0
 40
0
 40
0
 40
0
 40
1
 40
1
 40
1
 40
1
 10
181.138450
 20
62.179630
 30
0.0
 10
181.720503
 20
62.179630
 30
0.0
 10
182.189673
 20
61.710460
 30
0.0
 10
182.189673
 20
61.128407
 30
0.0
  0
SPLINE
  5
1c2
100
AcDbEntity
  8
0
 62
7
100
AcDbSpline
 70
8
 71
3
 72
8
 73
4
 74
0
 40
0
 40
0
 40
0
 40
0
 40
1
 40
1
 40
1
 40
1
 10
182.189673
 20
61.128407
 30
0.0
 10
182.189673
 20
60.546354
 30
0.0
 10
181.720503
 20
60.077184
 30
0.0
 10
181.138450
 20
60.077184
 30
0.0
  0
SPLINE
  5
1c3
100
AcDbEntity
  8
0
 62
7
100
AcDbSpline
 70
8
 71
3
 72
8
 73
4
 74
0
 40
0
 40
0
 40
0
 40
0
 40
1
 40
1
 40
1
 40
1
 10
181.138450
 20
60.077184
 30
0.0
 10
180.556397
 20
60.077184
 30
0.0
 10
180.087226
 20
60.546354
 30
0.0
 10
180.087226
 20
61.128407
 30
0.0
  0
LWPOLYLINE
  5
1c4
100
AcDbEntity
  8
0
 62
7
100
AcDbPolyline
 90
1
 70
1
 10
181.096118
 20
75.968997
 30
0.0
  0
SPLINE
  5
1c5
100
AcDbEntity
  8
0
 62
7
100
AcDbSpline
 70
8
 71
3
 72
8
 73
4
 74
0
 40
0
 40
0
 40
0
 40
0
 40
1
 40
1
 40
1
 40
1
 10
1.598000
 20
36.269449
 30
0.0
 10
1.598000
 20
28.124233
 30
0.0
 10
8.201657
 20
21.520576
 30
0.0
 10
16.346873
 20
21.520576
 30
0.0
  0
SPLINE
  5
1c6
100
AcDbEntity
  8
0
 62
7
100
AcDbSpline
 70
8
 71
3
 72
8
 73
4
 74
0
 40
0
 40
0
 40
0
 40
0
 40
1
 40
1
 40
1
 40
1
 10
16.346873
 20
21.520576
 30
0.0
 10
24.492089
 20
21.520576
 30
0.0
 10
31.095745
 20
28.124233
 30
0.0
 10
31.095745
 20
36.269449
 30
0.0
  0
SPLINE
  5
1c7
100
AcDbEntity
  8
0
 62
7
100
AcDbSpline
 70
8
 71
3
 72
8
 73
4
 74
0
 40
0
 40
0
 40
0
 40
0
 40
1
 40
1
 40
1
 40
1
 10
31.095745
 20
36.269449
 30
0.0
 10
31.095745
 20
44.414665
 30
0.0
 10
24.492089
 20
51.018321
 30
0.0
 10
16.346873
 20
51.018321
 30
0.0
  0
SPLINE
  5
1c8
100
AcDbEntity
  8
0
 62
7
100
AcDbSpline
 70
8
 71
3
 72
8
 73
4
 74
0
 40
0
 40
0
 40
0
 40
0
 40
1
 40
1
 40
1
 40
1
 10
16.346873
 20
51.018321
 30
0.0
 10
8.201657
 20
51.018321
 30
0.0
 10
1.598000
 20
44.414665
 30
0.0
 10
1.598000
 20
36.269449
 30
0.0
  0
LWPOLYLINE
  5
1c9
100
AcDbEntity
  8
0
 62
7
100
AcDbPolyline
 90
1
 70
1
 10
180.087226
 20
61.128407
 30
0.0
  0
SPLINE
  5
1ca
100
AcDbEntity
  8
0
 62
7
100
AcDbSpline
 70
8
 71
3
 72
8
 73
4
 74
0
 40
0
 40
0
 40
0
 40
0
 40
1
 40
1
 40
1
 40
1
 10
4.099065
 20
36.269449
 30
0.0
 10
4.099065
 20
43.031848
 30
0.0
 10
9.584474
 20
48.517257
 30
0.0
 10
16.346873
 20
48.517257
 30
0.0
  0
SPLINE
  5
1cb
100
AcDbEntity
  8
0
 62
7
100
AcDbSpline
 70
8
 71
3
 72
8
 73
4
 74
0
 40
0
 40
0
 40
0
 40
0
 40
1
 40
1
 40
1
 40
1
 10
16.346873
 20
48.517257
 30
0.0
 10
23.109272
 20
48.517257
 30
0.0
 10
28.594681
 20
43.031848
 30
0.0
 10
28.594681
 20
36.269449
 30
0.0
  0
SPLINE
  5
1cc
100
AcDbEntity
  8
0
 62
7
100
AcDbSpline
 70
8
 71
3
 72
8
 73
4
 74
0
 40
0
 40
0
 40
0
 40
0
 40
1
 40
1
 40
1
 40
1
 10
28.594681
 20
36.269449
 30
0.0
 10
28.594681
 20
29.507050
 30
0.0
 10
23.112799
 20
24.021641
 30
0.0
 10
16.346873
 20
24.021641
 30
0.0
  0
SPLINE
  5
1cd
100
AcDbEntity
  8
0
 62
7
100
AcDbSpline
 70
8
 71
3
 72
8
 73
4
 74
0
 40
0
 40
0
 40
0
 40
0
 40
1
 40
1
 40
1
 40
1
 10
16.346873
 20
24.021641
 30
0.0
 10
9.580947
 20
24.021641
 30
0.0
 10
4.099065
 20
29.507050
 30
0.0
 10
4.099065
 20
36.269449
 30
0.0
  0
LWPOLYLINE
  5
1ce
100
AcDbEntity
  8
0
 62
7
100
AcDbPolyline
 90
2
 70
1
 10
1.598000
 20
36.269449
 30
0.0
 10
1.598000
 20
36.269449
 30
0.0
  0
LWPOLYLINE
  5
1cf
100
AcDbEntity
  8
0
 62
7
100
AcDbPolyline
 90
2
 70
1
 10
4.099065
 20
36.269449
 30
0.0
 10
4.099065
 20
36.269449
 30
0.0
  0
SPLINE
  5
1d0
100
AcDbEntity
  8
0
 62
7
100
AcDbSpline
 70
8
 71
3
 72
8
 73
4
 74
0
 40
0
 40
0
 40
0
 40
0
 40
1
 40
1
 40
1
 40
1
 10
62.025694
 20
84.847953
 30
0.0
 10
62.413729
 20
84.847953
 30
0.0
 10
62.727685
 20
84.533997
 30
0.0
 10
62.727685
 20
84.145961
 30
0.0
  0
LWPOLYLINE
  5
1d1
100
AcDbEntity
  8
0
 62
7
100
AcDbPolyline
 90
4
 70
0
 10
110.928736
 20
89.818333
 30
0.0
 10
43.721006
 20
89.818333
 30
0.0
 10
43.706896
 20
84.847953
 30
0.0
 10
62.025694
 20
84.847953
 30
0.0
  0
SPLINE
  5
1d2
100
AcDbEntity
  8
0
 62
7
100
AcDbSpline
 70
8
 71
3
 72
8
 73
4
 74
0
 40
0
 40
0
 40
0
 40
0
 40
1
 40
1
 40
1
 40
1
 10
81.021790
 20
81.835387
 30
0.0
 10
81.409826
 20
81.835387
 30
0.0
 10
81.723782
 20
81.524959
 30
0.0
 10
81.723782
 20
81.136923
 30
0.0
  0
LWPOLYLINE
  5
1d3
100
AcDbEntity
  8
0
 62
7
100
AcDbPolyline
 90
3
 70
0
 10
62.727685
 20
84.145961
 30
0.0
 10
62.727685
 20
81.835387
 30
0.0
 10
81.021790
 20
81.835387
 30
0.0
  0
SPLINE
  5
1d4
100
AcDbEntity
  8
0
 62
7
100
AcDbSpline
 70
8
 71
3
 72
8
 73
4
 74
0
 40
0
 40
0
 40
0
 40
0
 40
1
 40
1
 40
1
 40
1
 10
81.752002
 20
18.691446
 30
0.0
 10
86.359041
 20
16.917065
 30
0.0
 10
90.948441
 20
14.729957
 30
0.0
 10
95.322658
 20
12.204199
 30
0.0
  0
SPLINE
  5
1d5
100
AcDbEntity
  8
0
 62
7
100
AcDbSpline
 70
8
 71
3
 72
8
 73
4
 74
0
 40
0
 40
0
 40
0
 40
0
 40
1
 40
1
 40
1
 40
1
 10
95.322658
 20
12.204199
 30
0.0
 10
100.973865
 20
8.941174
 30
0.0
 10
106.554519
 20
4.796251
 30
0.0
 10
111.627200
 20
0.108078
 30
0.0
  0
LWPOLYLINE
  5
1d6
100
AcDbEntity
  8
0
 62
7
100
AcDbPolyline
 90
2
 70
0
 10
81.723782
 20
81.136923
 30
0.0
 10
81.752002
 20
18.691446
 30
0.0
  0
SPLINE
  5
1d7
100
AcDbEntity
  8
0
 62
7
100
AcDbSpline
 70
8
 71
3
 72
8
 73
4
 74
0
 40
0
 40
0
 40
0
 40
0
 40
1
 40
1
 40
1
 40
1
 10
111.627200
 20
89.123397
 30
0.0
 10
111.627200
 20
89.507905
 30
0.0
 10
111.316772
 20
89.821861
 30
0.0
 10
110.928736
 20
89.821861
 30
0.0
  0
LWPOLYLINE
  5
1d8
100
AcDbEntity
  8
0
 62
7
100
AcDbPolyline
 90
6
 70
0
 10
111.627200
 20
0.108078
 30
0.0
 10
111.627200
 20
0.171574
 30
0.0
 10
111.627200
 20
0.171574
 30
0.0
 10
111.627200
 20
15.058023
 30
0.0
 10
111.627200
 20
15.058023
 30
0.0
 10
111.627200
 20
89.123397
 30
0.0
  0
SPLINE
  5
1d9
100
AcDbEntity
  8
0
 62
7
100
AcDbSpline
 70
8
 71
3
 72
8
 73
4
 74
0
 40
0
 40
0
 40
0
 40
0
 40
1
 40
1
 40
1
 40
1
 10
110.075059
 20
87.211441
 30
0.0
 10
110.075059
 20
86.629388
 30
0.0
 10
109.605888
 20
86.160218
 30
0.0
 10
109.023835
 20
86.160218
 30
0.0
  0
SPLINE
  5
1da
100
AcDbEntity
  8
0
 62
7
100
AcDbSpline
 70
8
 71
3
 72
8
 73
4
 74
0
 40
0
 40
0
 40
0
 40
0
 40
1
 40
1
 40
1
 40
1
 10
109.023835
 20
86.160218
 30
0.0
 10
108.441782
 20
86.160218
 30
0.0
 10
107.972612
 20
86.629388
 30
0.0
 10
107.972612
 20
87.211441
 30
0.0
  0
SPLINE
  5
1db
100
AcDbEntity
  8
0
 62
7
100
AcDbSpline
 70
8
 71
3
 72
8
 73
4
 74
0
 40
0
 40
0
 40
0
 40
0
 40
1
 40
1
 40
1
 40
1
 10
107.972612
 20
87.211441
 30
0.0
 10
107.972612
 20
87.793494
 30
0.0
 10
108.445310
 20
88.262664
 30
0.0
 10
109.023835
 20
88.262664
 30
0.0
  0
SPLINE
  5
1dc
100
AcDbEntity
  8
0
 62
7
100
AcDbSpline
 70
8
 71
3
 72
8
 73
4
 74
0
 40
0
 40
0
 40
0
 40
0
 40
1
 40
1
 40
1
 40
1
 10
109.023835
 20
88.262664
 30
0.0
 10
109.602361
 20
88.262664
 30
0.0
 10
110.075059
 20
87.793494
 30
0.0
 10
110.075059
 20
87.211441
 30
0.0
  0
LWPOLYLINE
  5
1dd
100
AcDbEntity
  8
0
 62
7
100
AcDbPolyline
 90
3
 70
0
 10
110.928736
 20
89.821861
 30
0.0
 10
110.928736
 20
89.821861
 30
0.0
 10
110.928736
 20
89.818333
 30
0.0
  0
SPLINE
  5
1de
100
AcDbEntity
  8
0
 62
7
100
AcDbSpline
 70
8
 71
3
 72
8
 73
4
 74
0
 40
0
 40
0
 40
0
 40
0
 40
1
 40
1
 40
1
 40
1
 10
107.972612
 20
7.787651
 30
0.0
 10
107.972612
 20
8.369704
 30
0.0
 10
108.441782
 20
8.838874
 30
0.0
 10
109.023835
 20
8.838874
 30
0.0
  0
SPLINE
  5
1df
100
AcDbEntity
  8
0
 62
7
100
AcDbSpline
 70
8
 71
3
 72
8
 73
4
 74
0
 40
0
 40
0
 40
0
 40
0
 40
1
 40
1
 40
1
 40
1
 10
109.023835
 20
8.838874
 30
0.0
 10
109.605888
 20
8.838874
 30
0.0
 10
110.075059
 20
8.369704
 30
0.0
 10
110.075059
 20
7.787651
 30
0.0
  0
SPLINE
  5
1e0
100
AcDbEntity
  8
0
 62
7
100
AcDbSpline
 70
8
 71
3
 72
8
 73
4
 74
0
 40
0
 40
0
 40
0
 40
0
 40
1
 40
1
 40
1
 40
1
 10
110.075059
 20
7.787651
 30
0.0
 10
110.075059
 20
7.205598
 30
0.0
 10
109.602361
 20
6.736428
 30
0.0
 10
109.023835
 20
6.736428
 30
0.0
  0
SPLINE
  5
1e1
100
AcDbEntity
  8
0
 62
7
100
AcDbSpline
 70
8
 71
3
 72
8
 73
4
 74
0
 40
0
 40
0
 40
0
 40
0
 40
1
 40
1
 40
1
 40
1
 10
109.023835
 20
6.736428
 30
0.0
 10
108.445310
 20
6.736428
 30
0.0
 10
107.972612
 20
7.205598
 30
0.0
 10
107.972612
 20
7.787651
 30
0.0
  0
LWPOLYLINE
  5
1e2
100
AcDbEntity
  8
0
 62
7
100
AcDbPolyline
 90
1
 70
1
 10
110.075059
 20
87.211441
 30
0.0
  0
SPLINE
  5
1e3
100
AcDbEntity
  8
0
 62
7
100
AcDbSpline
 70
8
 71
3
 72
8
 73
4
 74
0
 40
0
 40
0
 40
0
 40
0
 40
1
 40
1
 40
1
 40
1
 10
84.422391
 20
29.009659
 30
0.0
 10
84.422391
 20
35.772058
 30
0.0
 10
89.907801
 20
41.257467
 30
0.0
 10
96.670199
 20
41.257467
 30
0.0
  0
SPLINE
  5
1e4
100
AcDbEntity
  8
0
 62
7
100
AcDbSpline
 70
8
 71
3
 72
8
 73
4
 74
0
 40
0
 40
0
 40
0
 40
0
 40
1
 40
1
 40
1
 40
1
 10
96.670199
 20
41.257467
 30
0.0
 10
103.432598
 20
41.257467
 30
0.0
 10
108.918008
 20
35.772058
 30
0.0
 10
108.918008
 20
29.009659
 30
0.0
  0
SPLINE
  5
1e5
100
AcDbEntity
  8
0
 62
7
100
AcDbSpline
 70
8
 71
3
 72
8
 73
4
 74
0
 40
0
 40
0
 40
0
 40
0
 40
1
 40
1
 40
1
 40
1
 10
108.918008
 20
29.009659
 30
0.0
 10
108.918008
 20
22.247261
 30
0.0
 10
103.436126
 20
16.761851
 30
0.0
 10
96.670199
 20
16.761851
 30
0.0
  0
SPLINE
  5
1e6
100
AcDbEntity
  8
0
 62
7
100
AcDbSpline
 70
8
 71
3
 72
8
 73
4
 74
0
 40
0
 40
0
 40
0
 40
0
 40
1
 40
1
 40
1
 40
1
 10
96.670199
 20
16.761851
 30
0.0
 10
89.904273
 20
16.761851
 30
0.0
 10
84.422391
 20
22.247261
 30
0.0
 10
84.422391
 20
29.009659
 30
0.0
  0
LWPOLYLINE
  5
1e7
100
AcDbEntity
  8
0
 62
7
100
AcDbPolyline
 90
1
 70
1
 10
107.972612
 20
7.787651
 30
0.0
  0
SPLINE
  5
1e8
100
AcDbEntity
  8
0
 62
7
100
AcDbSpline
 70
8
 71
3
 72
8
 73
4
 74
0
 40
0
 40
0
 40
0
 40
0
 40
1
 40
1
 40
1
 40
1
 10
45.904587
 20
87.179693
 30
0.0
 10
45.904587
 20
87.761746
 30
0.0
 10
46.373757
 20
88.230916
 30
0.0
 10
46.955810
 20
88.230916
 30
0.0
  0
SPLINE
  5
1e9
100
AcDbEntity
  8
0
 62
7
100
AcDbSpline
 70
8
 71
3
 72
8
 73
4
 74
0
 40
0
 40
0
 40
0
 40
0
 40
1
 40
1
 40
1
 40
1
 10
46.955810
 20
88.230916
 30
0.0
 10
47.537863
 20
88.230916
 30
0.0
 10
48.007033
 20
87.761746
 30
0.0
 10
48.007033
 20
87.179693
 30
0.0
  0
SPLINE
  5
1ea
100
AcDbEntity
  8
0
 62
7
100
AcDbSpline
 70
8
 71
3
 72
8
 73
4
 74
0
 40
0
 40
0
 40
0
 40
0
 40
1
 40
1
 40
1
 40
1
 10
48.007033
 20
87.179693
 30
0.0
 10
48.007033
 20
86.597639
 30
0.0
 10
47.534336
 20
86.128469
 30
0.0
 10
46.955810
 20
86.128469
 30
0.0
  0
SPLINE
  5
1eb
100
AcDbEntity
  8
0
 62
7
100
AcDbSpline
 70
8
 71
3
 72
8
 73
4
 74
0
 40
0
 40
0
 40
0
 40
0
 40
1
 40
1
 40
1
 40
1
 10
46.955810
 20
86.128469
 30
0.0
 10
46.377285
 20
86.128469
 30
0.0
 10
45.904587
 20
86.597639
 30
0.0
 10
45.904587
 20
87.179693
 30
0.0
  0
LWPOLYLINE
  5
1ec
100
AcDbEntity
  8
0
 62
7
100
AcDbPolyline
 90
1
 70
1
 10
84.422391
 20
29.009659
 30
0.0
  0
SPLINE
  5
1ed
100
AcDbEntity
  8
0
 62
7
100
AcDbSpline
 70
8
 71
3
 72
8
 73
4
 74
0
 40
0
 40
0
 40
0
 40
0
 40
1
 40
1
 40
1
 40
1
 10
41.202304
 20
71.898153
 30
0.0
 10
41.230524
 20
71.513645
 30
0.0
 10
40.937734
 20
71.178524
 30
0.0
 10
40.553226
 20
71.150303
 30
0.0
  0
LWPOLYLINE
  5
1ee
100
AcDbEntity
  8
0
 62
7
100
AcDbPolyline
 90
1
 70
1
 10
45.904587
 20
87.179693
 30
0.0
  0
SPLINE
  5
1ef
100
AcDbEntity
  8
0
 62
7
100
AcDbSpline
 70
8
 71
3
 72
8
 73
4
 74
0
 40
0
 40
0
 40
0
 40
0
 40
1
 40
1
 40
1
 40
1
 10
54.783542
 20
70.120246
 30
0.0
 10
54.783542
 20
70.508281
 30
0.0
 10
55.097498
 20
70.822237
 30
0.0
 10
55.485534
 20
70.822237
 30
0.0
  0
LWPOLYLINE
  5
1f0
100
AcDbEntity
  8
0
 62
7
100
AcDbPolyline
 90
6
 70
0
 10
40.553226
 20
71.150303
 30
0.0
 10
22.357894
 20
69.876842
 30
0.0
 10
23.687797
 20
62.560611
 30
0.0
 10
38.778846
 20
63.618889
 30
0.0
 10
54.758849
 20
63.618889
 30
0.0
 10
54.783542
 20
70.120246
 30
0.0
  0
SPLINE
  5
1f1
100
AcDbEntity
  8
0
 62
7
100
AcDbSpline
 70
8
 71
3
 72
8
 73
4
 74
0
 40
0
 40
0
 40
0
 40
0
 40
1
 40
1
 40
1
 40
1
 10
51.661621
 20
68.737429
 30
0.0
 10
51.661621
 20
69.016109
 30
0.0
 10
51.883860
 20
69.238347
 30
0.0
 10
52.162540
 20
69.238347
 30
0.0
  0
SPLINE
  5
1f2
100
AcDbEntity
  8
0
 62
7
100
AcDbSpline
 70
8
 71
3
 72
8
 73
4
 74
0
 40
0
 40
0
 40
0
 40
0
 40
1
 40
1
 40
1
 40
1
 10
52.162540
 20
69.238347
 30
0.0
 10
52.441220
 20
69.238347
 30
0.0
 10
52.663458
 20
69.016109
 30
0.0
 10
52.663458
 20
68.737429
 30
0.0
  0
SPLINE
  5
1f3
100
AcDbEntity
  8
0
 62
7
100
AcDbSpline
 70
8
 71
3
 72
8
 73
4
 74
0
 40
0
 40
0
 40
0
 40
0
 40
1
 40
1
 40
1
 40
1
 10
52.663458
 20
68.737429
 30
0.0
 10
52.663458
 20
68.458749
 30
0.0
 10
52.437692
 20
68.236510
 30
0.0
 10
52.162540
 20
68.236510
 30
0.0
  0
SPLINE
  5
1f4
100
AcDbEntity
  8
0
 62
7
100
AcDbSpline
 70
8
 71
3
 72
8
 73
4
 74
0
 40
0
 40
0
 40
0
 40
0
 40
1
 40
1
 40
1
 40
1
 10
52.162540
 20
68.236510
 30
0.0
 10
51.887387
 20
68.236510
 30
0.0
 10
51.661621
 20
68.458749
 30
0.0
 10
51.661621
 20
68.737429
 30
0.0
  0
LWPOLYLINE
  5
1f5
100
AcDbEntity
  8
0
 62
7
100
AcDbPolyline
 90
7
 70
0
 10
55.485534
 20
70.822237
 30
0.0
 10
57.732611
 20
70.822237
 30
0.0
 10
57.732611
 20
80.770053
 30
0.0
 10
40.577919
 20
80.770053
 30
0.0
 10
41.198776
 20
71.894626
 30
0.0
 10
41.198776
 20
71.894626
 30
0.0
 10
41.202304
 20
71.898153
 30
0.0
  0
SPLINE
  5
1f6
100
AcDbEntity
  8
0
 62
7
100
AcDbSpline
 70
8
 71
3
 72
8
 73
4
 74
0
 40
0
 40
0
 40
0
 40
0
 40
1
 40
1
 40
1
 40
1
 10
51.661621
 20
70.737575
 30
0.0
 10
51.661621
 20
71.016255
 30
0.0
 10
51.883860
 20
71.238493
 30
0.0
 10
52.162540
 20
71.238493
 30
0.0
  0
SPLINE
  5
1f7
100
AcDbEntity
  8
0
 62
7
100
AcDbSpline
 70
8
 71
3
 72
8
 73
4
 74
0
 40
0
 40
0
 40
0
 40
0
 40
1
 40
1
 40
1
 40
1
 10
52.162540
 20
71.238493
 30
0.0
 10
52.441220
 20
71.238493
 30
0.0
 10
52.663458
 20
71.016255
 30
0.0
 10
52.663458
 20
70.737575
 30
0.0
  0
SPLINE
  5
1f8
100
AcDbEntity
  8
0
 62
7
100
AcDbSpline
 70
8
 71
3
 72
8
 73
4
 74
0
 40
0
 40
0
 40
0
 40
0
 40
1
 40
1
 40
1
 40
1
 10
52.663458
 20
70.737575
 30
0.0
 10
52.663458
 20
70.458895
 30
0.0
 10
52.437692
 20
70.236656
 30
0.0
 10
52.162540
 20
70.236656
 30
0.0
  0
SPLINE
  5
1f9
100
AcDbEntity
  8
0
 62
7
100
AcDbSpline
 70
8
 71
3
 72
8
 73
4
 74
0
 40
0
 40
0
 40
0
 40
0
 40
1
 40
1
 40
1
 40
1
 10
52.162540
 20
70.236656
 30
0.0
 10
51.887387
 20
70.236656
 30
0.0
 10
51.661621
 20
70.458895
 30
0.0
 10
51.661621
 20
70.737575
 30
0.0
  0
LWPOLYLINE
  5
1fa
100
AcDbEntity
  8
0
 62
7
100
AcDbPolyline
 90
1
 70
1
 10
51.661621
 20
68.737429
 30
0.0
  0
SPLINE
  5
1fb
100
AcDbEntity
  8
0
 62
7
100
AcDbSpline
 70
8
 71
3
 72
8
 73
4
 74
0
 40
0
 40
0
 40
0
 40
0
 40
1
 40
1
 40
1
 40
1
 10
51.661621
 20
72.737721
 30
0.0
 10
51.661621
 20
73.016401
 30
0.0
 10
51.883860
 20
73.238639
 30
0.0
 10
52.162540
 20
73.238639
 30
0.0
  0
SPLINE
  5
1fc
100
AcDbEntity
  8
0
 62
7
100
AcDbSpline
 70
8
 71
3
 72
8
 73
4
 74
0
 40
0
 40
0
 40
0
 40
0
 40
1
 40
1
 40
1
 40
1
 10
52.162540
 20
73.238639
 30
0.0
 10
52.441220
 20
73.238639
 30
0.0
 10
52.663458
 20
73.016401
 30
0.0
 10
52.663458
 20
72.737721
 30
0.0
  0
SPLINE
  5
1fd
100
AcDbEntity
  8
0
 62
7
100
AcDbSpline
 70
8
 71
3
 72
8
 73
4
 74
0
 40
0
 40
0
 40
0
 40
0
 40
1
 40
1
 40
1
 40
1
 10
52.663458
 20
72.737721
 30
0.0
 10
52.663458
 20
72.459041
 30
0.0
 10
52.437692
 20
72.236802
 30
0.0
 10
52.162540
 20
72.236802
 30
0.0
  0
SPLINE
  5
1fe
100
AcDbEntity
  8
0
 62
7
100
AcDbSpline
 70
8
 71
3
 72
8
 73
4
 74
0
 40
0
 40
0
 40
0
 40
0
 40
1
 40
1
 40
1
 40
1
 10
52.162540
 20
72.236802
 30
0.0
 10
51.887387
 20
72.236802
 30
0.0
 10
51.661621
 20
72.459041
 30
0.0
 10
51.661621
 20
72.737721
 30
0.0
  0
LWPOLYLINE
  5
1ff
100
AcDbEntity
  8
0
 62
7
100
AcDbPolyline
 90
1
 70
1
 10
51.661621
 20
70.737575
 30
0.0
  0
SPLINE
  5
200
100
AcDbEntity
  8
0
 62
7
100
AcDbSpline
 70
8
 71
3
 72
8
 73
4
 74
0
 40
0
 40
0
 40
0
 40
0
 40
1
 40
1
 40
1
 40
1
 10
51.661621
 20
74.737867
 30
0.0
 10
51.661621
 20
75.016547
 30
0.0
 10
51.883860
 20
75.238785
 30
0.0
 10
52.162540
 20
75.238785
 30
0.0
  0
SPLINE
  5
201
100
AcDbEntity
  8
0
 62
7
100
AcDbSpline
 70
8
 71
3
 72
8
 73
4
 74
0
 40
0
 40
0
 40
0
 40
0
 40
1
 40
1
 40
1
 40
1
 10
52.162540
 20
75.238785
 30
0.0
 10
52.441220
 20
75.238785
 30
0.0
 10
52.663458
 20
75.016547
 30
0.0
 10
52.663458
 20
74.737867
 30
0.0
  0
SPLINE
  5
202
100
AcDbEntity
  8
0
 62
7
100
AcDbSpline
 70
8
 71
3
 72
8
 73
4
 74
0
 40
0
 40
0
 40
0
 40
0
 40
1
 40
1
 40
1
 40
1
 10
52.663458
 20
74.737867
 30
0.0
 10
52.663458
 20
74.459187
 30
0.0
 10
52.437692
 20
74.236948
 30
0.0
 10
52.162540
 20
74.236948
 30
0.0
  0
SPLINE
  5
203
100
AcDbEntity
  8
0
 62
7
100
AcDbSpline
 70
8
 71
3
 72
8
 73
4
 74
0
 40
0
 40
0
 40
0
 40
0
 40
1
 40
1
 40
1
 40
1
 10
52.162540
 20
74.236948
 30
0.0
 10
51.887387
 20
74.236948
 30
0.0
 10
51.661621
 20
74.459187
 30
0.0
 10
51.661621
 20
74.737867
 30
0.0
  0
LWPOLYLINE
  5
204
100
AcDbEntity
  8
0
 62
7
100
AcDbPolyline
 90
1
 70
1
 10
51.661621
 20
72.737721
 30
0.0
  0
SPLINE
  5
205
100
AcDbEntity
  8
0
 62
7
100
AcDbSpline
 70
8
 71
3
 72
8
 73
4
 74
0
 40
0
 40
0
 40
0
 40
0
 40
1
 40
1
 40
1
 40
1
 10
51.661621
 20
76.738013
 30
0.0
 10
51.661621
 20
77.016693
 30
0.0
 10
51.883860
 20
77.238931
 30
0.0
 10
52.162540
 20
77.238931
 30
0.0
  0
SPLINE
  5
206
100
AcDbEntity
  8
0
 62
7
100
AcDbSpline
 70
8
 71
3
 72
8
 73
4
 74
0
 40
0
 40
0
 40
0
 40
0
 40
1
 40
1
 40
1
 40
1
 10
52.162540
 20
77.238931
 30
0.0
 10
52.441220
 20
77.238931
 30
0.0
 10
52.663458
 20
77.016693
 30
0.0
 10
52.663458
 20
76.738013
 30
0.0
  0
SPLINE
  5
207
100
AcDbEntity
  8
0
 62
7
100
AcDbSpline
 70
8
 71
3
 72
8
 73
4
 74
0
 40
0
 40
0
 40
0
 40
0
 40
1
 40
1
 40
1
 40
1
 10
52.663458
 20
76.738013
 30
0.0
 10
52.663458
 20
76.459333
 30
0.0
 10
52.437692
 20
76.237094
 30
0.0
 10
52.162540
 20
76.237094
 30
0.0
  0
SPLINE
  5
208
100
AcDbEntity
  8
0
 62
7
100
AcDbSpline
 70
8
 71
3
 72
8
 73
4
 74
0
 40
0
 40
0
 40
0
 40
0
 40
1
 40
1
 40
1
 40
1
 10
52.162540
 20
76.237094
 30
0.0
 10
51.887387
 20
76.237094
 30
0.0
 10
51.661621
 20
76.459333
 30
0.0
 10
51.661621
 20
76.738013
 30
0.0
  0
LWPOLYLINE
  5
209
100
AcDbEntity
  8
0
 62
7
100
AcDbPolyline
 90
1
 70
1
 10
51.661621
 20
74.737867
 30
0.0
  0
SPLINE
  5
20a
100
AcDbEntity
  8
0
 62
7
100
AcDbSpline
 70
8
 71
3
 72
8
 73
4
 74
0
 40
0
 40
0
 40
0
 40
0
 40
1
 40
1
 40
1
 40
1
 10
49.661475
 20
68.737429
 30
0.0
 10
49.661475
 20
69.016109
 30
0.0
 10
49.883714
 20
69.238347
 30
0.0
 10
50.162394
 20
69.238347
 30
0.0
  0
SPLINE
  5
20b
100
AcDbEntity
  8
0
 62
7
100
AcDbSpline
 70
8
 71
3
 72
8
 73
4
 74
0
 40
0
 40
0
 40
0
 40
0
 40
1
 40
1
 40
1
 40
1
 10
50.162394
 20
69.238347
 30
0.0
 10
50.441074
 20
69.238347
 30
0.0
 10
50.663312
 20
69.016109
 30
0.0
 10
50.663312
 20
68.737429
 30
0.0
  0
SPLINE
  5
20c
100
AcDbEntity
  8
0
 62
7
100
AcDbSpline
 70
8
 71
3
 72
8
 73
4
 74
0
 40
0
 40
0
 40
0
 40
0
 40
1
 40
1
 40
1
 40
1
 10
50.663312
 20
68.737429
 30
0.0
 10
50.663312
 20
68.458749
 30
0.0
 10
50.437546
 20
68.236510
 30
0.0
 10
50.162394
 20
68.236510
 30
0.0
  0
SPLINE
  5
20d
100
AcDbEntity
  8
0
 62
7
100
AcDbSpline
 70
8
 71
3
 72
8
 73
4
 74
0
 40
0
 40
0
 40
0
 40
0
 40
1
 40
1
 40
1
 40
1
 10
50.162394
 20
68.236510
 30
0.0
 10
49.887241
 20
68.236510
 30
0.0
 10
49.661475
 20
68.458749
 30
0.0
 10
49.661475
 20
68.737429
 30
0.0
  0
LWPOLYLINE
  5
20e
100
AcDbEntity
  8
0
 62
7
100
AcDbPolyline
 90
1
 70
1
 10
51.661621
 20
76.738013
 30
0.0
  0
SPLINE
  5
20f
100
AcDbEntity
  8
0
 62
7
100
AcDbSpline
 70
8
 71
3
 72
8
 73
4
 74
0
 40
0
 40
0
 40
0
 40
0
 40
1
 40
1
 40
1
 40
1
 10
49.661475
 20
70.737575
 30
0.0
 10
49.661475
 20
71.016255
 30
0.0
 10
49.883714
 20
71.238493
 30
0.0
 10
50.162394
 20
71.238493
 30
0.0
  0
SPLINE
  5
210
100
AcDbEntity
  8
0
 62
7
100
AcDbSpline
 70
8
 71
3
 72
8
 73
4
 74
0
 40
0
 40
0
 40
0
 40
0
 40
1
 40
1
 40
1
 40
1
 10
50.162394
 20
71.238493
 30
0.0
 10
50.441074
 20
71.238493
 30
0.0
 10
50.663312
 20
71.016255
 30
0.0
 10
50.663312
 20
70.737575
 30
0.0
  0
SPLINE
  5
211
100
AcDbEntity
  8
0
 62
7
100
AcDbSpline
 70
8
 71
3
 72
8
 73
4
 74
0
 40
0
 40
0
 40
0
 40
0
 40
1
 40
1
 40
1
 40
1
 10
50.663312
 20
70.737575
 30
0.0
 10
50.663312
 20
70.458895
 30
0.0
 10
50.437546
 20
70.236656
 30
0.0
 10
50.162394
 20
70.236656
 30
0.0
  0
SPLINE
  5
212
100
AcDbEntity
  8
0
 62
7
100
AcDbSpline
 70
8
 71
3
 72
8
 73
4
 74
0
 40
0
 40
0
 40
0
 40
0
 40
1
 40
1
 40
1
 40
1
 10
50.162394
 20
70.236656
 30
0.0
 10
49.887241
 20
70.236656
 30
0.0
 10
49.661475
 20
70.458895
 30
0.0
 10
49.661475
 20
70.737575
 30
0.0
  0
LWPOLYLINE
  5
213
100
AcDbEntity
  8
0
 62
7
100
AcDbPolyline
 90
1
 70
1
 10
49.661475
 20
68.737429
 30
0.0
  0
SPLINE
  5
214
100
AcDbEntity
  8
0
 62
7
100
AcDbSpline
 70
8
 71
3
 72
8
 73
4
 74
0
 40
0
 40
0
 40
0
 40
0
 40
1
 40
1
 40
1
 40
1
 10
49.661475
 20
72.737721
 30
0.0
 10
49.661475
 20
73.016401
 30
0.0
 10
49.883714
 20
73.238639
 30
0.0
 10
50.162394
 20
73.238639
 30
0.0
  0
SPLINE
  5
215
100
AcDbEntity
  8
0
 62
7
100
AcDbSpline
 70
8
 71
3
 72
8
 73
4
 74
0
 40
0
 40
0
 40
0
 40
0
 40
1
 40
1
 40
1
 40
1
 10
50.162394
 20
73.238639
 30
0.0
 10
50.441074
 20
73.238639
 30
0.0
 10
50.663312
 20
73.016401
 30
0.0
 10
50.663312
 20
72.737721
 30
0.0
  0
SPLINE
  5
216
100
AcDbEntity
  8
0
 62
7
100
AcDbSpline
 70
8
 71
3
 72
8
 73
4
 74
0
 40
0
 40
0
 40
0
 40
0
 40
1
 40
1
 40
1
 40
1
 10
50.663312
 20
72.737721
 30
0.0
 10
50.663312
 20
72.459041
 30
0.0
 10
50.437546
 20
72.236802
 30
0.0
 10
50.162394
 20
72.236802
 30
0.0
  0
SPLINE
  5
217
100
AcDbEntity
  8
0
 62
7
100
AcDbSpline
 70
8
 71
3
 72
8
 73
4
 74
0
 40
0
 40
0
 40
0
 40
0
 40
1
 40
1
 40
1
 40
1
 10
50.162394
 20
72.236802
 30
0.0
 10
49.887241
 20
72.236802
 30
0.0
 10
49.661475
 20
72.459041
 30
0.0
 10
49.661475
 20
72.737721
 30
0.0
  0
LWPOLYLINE
  5
218
100
AcDbEntity
  8
0
 62
7
100
AcDbPolyline
 90
1
 70
1
 10
49.661475
 20
70.737575
 30
0.0
  0
SPLINE
  5
219
100
AcDbEntity
  8
0
 62
7
100
AcDbSpline
 70
8
 71
3
 72
8
 73
4
 74
0
 40
0
 40
0
 40
0
 40
0
 40
1
 40
1
 40
1
 40
1
 10
49.661475
 20
74.737867
 30
0.0
 10
49.661475
 20
75.016547
 30
0.0
 10
49.883714
 20
75.238785
 30
0.0
 10
50.162394
 20
75.238785
 30
0.0
  0
SPLINE
  5
21a
100
AcDbEntity
  8
0
 62
7
100
AcDbSpline
 70
8
 71
3
 72
8
 73
4
 74
0
 40
0
 40
0
 40
0
 40
0
 40
1
 40
1
 40
1
 40
1
 10
50.162394
 20
75.238785
 30
0.0
 10
50.441074
 20
75.238785
 30
0.0
 10
50.663312
 20
75.016547
 30
0.0
 10
50.663312
 20
74.737867
 30
0.0
  0
SPLINE
  5
21b
100
AcDbEntity
  8
0
 62
7
100
AcDbSpline
 70
8
 71
3
 72
8
 73
4
 74
0
 40
0
 40
0
 40
0
 40
0
 40
1
 40
1
 40
1
 40
1
 10
50.663312
 20
74.737867
 30
0.0
 10
50.663312
 20
74.459187
 30
0.0
 10
50.437546
 20
74.236948
 30
0.0
 10
50.162394
 20
74.236948
 30
0.0
  0
SPLINE
  5
21c
100
AcDbEntity
  8
0
 62
7
100
AcDbSpline
 70
8
 71
3
 72
8
 73
4
 74
0
 40
0
 40
0
 40
0
 40
0
 40
1
 40
1
 40
1
 40
1
 10
50.162394
 20
74.236948
 30
0.0
 10
49.887241
 20
74.236948
 30
0.0
 10
49.661475
 20
74.459187
 30
0.0
 10
49.661475
 20
74.737867
 30
0.0
  0
LWPOLYLINE
  5
21d
100
AcDbEntity
  8
0
 62
7
100
AcDbPolyline
 90
1
 70
1
 10
49.661475
 20
72.737721
 30
0.0
  0
SPLINE
  5
21e
100
AcDbEntity
  8
0
 62
7
100
AcDbSpline
 70
8
 71
3
 72
8
 73
4
 74
0
 40
0
 40
0
 40
0
 40
0
 40
1
 40
1
 40
1
 40
1
 10
49.661475
 20
76.738013
 30
0.0
 10
49.661475
 20
77.016693
 30
0.0
 10
49.883714
 20
77.238931
 30
0.0
 10
50.162394
 20
77.238931
 30
0.0
  0
SPLINE
  5
21f
100
AcDbEntity
  8
0
 62
7
100
AcDbSpline
 70
8
 71
3
 72
8
 73
4
 74
0
 40
0
 40
0
 40
0
 40
0
 40
1
 40
1
 40
1
 40
1
 10
50.162394
 20
77.238931
 30
0.0
 10
50.441074
 20
77.238931
 30
0.0
 10
50.663312
 20
77.016693
 30
0.0
 10
50.663312
 20
76.738013
 30
0.0
  0
SPLINE
  5
220
100
AcDbEntity
  8
0
 62
7
100
AcDbSpline
 70
8
 71
3
 72
8
 73
4
 74
0
 40
0
 40
0
 40
0
 40
0
 40
1
 40
1
 40
1
 40
1
 10
50.663312
 20
76.738013
 30
0.0
 10
50.663312
 20
76.459333
 30
0.0
 10
50.437546
 20
76.237094
 30
0.0
 10
50.162394
 20
76.237094
 30
0.0
  0
SPLINE
  5
221
100
AcDbEntity
  8
0
 62
7
100
AcDbSpline
 70
8
 71
3
 72
8
 73
4
 74
0
 40
0
 40
0
 40
0
 40
0
 40
1
 40
1
 40
1
 40
1
 10
50.162394
 20
76.237094
 30
0.0
 10
49.887241
 20
76.237094
 30
0.0
 10
49.661475
 20
76.459333
 30
0.0
 10
49.661475
 20
76.738013
 30
0.0
  0
LWPOLYLINE
  5
222
100
AcDbEntity
  8
0
 62
7
100
AcDbPolyline
 90
1
 70
1
 10
49.661475
 20
74.737867
 30
0.0
  0
SPLINE
  5
223
100
AcDbEntity
  8
0
 62
7
100
AcDbSpline
 70
8
 71
3
 72
8
 73
4
 74
0
 40
0
 40
0
 40
0
 40
0
 40
1
 40
1
 40
1
 40
1
 10
47.661329
 20
68.737429
 30
0.0
 10
47.661329
 20
69.016109
 30
0.0
 10
47.883568
 20
69.238347
 30
0.0
 10
48.162248
 20
69.238347
 30
0.0
  0
SPLINE
  5
224
100
AcDbEntity
  8
0
 62
7
100
AcDbSpline
 70
8
 71
3
 72
8
 73
4
 74
0
 40
0
 40
0
 40
0
 40
0
 40
1
 40
1
 40
1
 40
1
 10
48.162248
 20
69.238347
 30
0.0
 10
48.440928
 20
69.238347
 30
0.0
 10
48.663166
 20
69.016109
 30
0.0
 10
48.663166
 20
68.737429
 30
0.0
  0
SPLINE
  5
225
100
AcDbEntity
  8
0
 62
7
100
AcDbSpline
 70
8
 71
3
 72
8
 73
4
 74
0
 40
0
 40
0
 40
0
 40
0
 40
1
 40
1
 40
1
 40
1
 10
48.663166
 20
68.737429
 30
0.0
 10
48.663166
 20
68.458749
 30
0.0
 10
48.437400
 20
68.236510
 30
0.0
 10
48.162248
 20
68.236510
 30
0.0
  0
SPLINE
  5
226
100
AcDbEntity
  8
0
 62
7
100
AcDbSpline
 70
8
 71
3
 72
8
 73
4
 74
0
 40
0
 40
0
 40
0
 40
0
 40
1
 40
1
 40
1
 40
1
 10
48.162248
 20
68.236510
 30
0.0
 10
47.887095
 20
68.236510
 30
0.0
 10
47.661329
 20
68.458749
 30
0.0
 10
47.661329
 20
68.737429
 30
0.0
  0
LWPOLYLINE
  5
227
100
AcDbEntity
  8
0
 62
7
100
AcDbPolyline
 90
1
 70
1
 10
49.661475
 20
76.738013
 30
0.0
  0
SPLINE
  5
228
100
AcDbEntity
  8
0
 62
7
100
AcDbSpline
 70
8
 71
3
 72
8
 73
4
 74
0
 40
0
 40
0
 40
0
 40
0
 40
1
 40
1
 40
1
 40
1
 10
47.661329
 20
70.737575
 30
0.0
 10
47.661329
 20
71.016255
 30
0.0
 10
47.883568
 20
71.238493
 30
0.0
 10
48.162248
 20
71.238493
 30
0.0
  0
SPLINE
  5
229
100
AcDbEntity
  8
0
 62
7
100
AcDbSpline
 70
8
 71
3
 72
8
 73
4
 74
0
 40
0
 40
0
 40
0
 40
0
 40
1
 40
1
 40
1
 40
1
 10
48.162248
 20
71.238493
 30
0.0
 10
48.440928
 20
71.238493
 30
0.0
 10
48.663166
 20
71.016255
 30
0.0
 10
48.663166
 20
70.737575
 30
0.0
  0
SPLINE
  5
22a
100
AcDbEntity
  8
0
 62
7
100
AcDbSpline
 70
8
 71
3
 72
8
 73
4
 74
0
 40
0
 40
0
 40
0
 40
0
 40
1
 40
1
 40
1
 40
1
 10
48.663166
 20
70.737575
 30
0.0
 10
48.663166
 20
70.458895
 30
0.0
 10
48.437400
 20
70.236656
 30
0.0
 10
48.162248
 20
70.236656
 30
0.0
  0
SPLINE
  5
22b
100
AcDbEntity
  8
0
 62
7
100
AcDbSpline
 70
8
 71
3
 72
8
 73
4
 74
0
 40
0
 40
0
 40
0
 40
0
 40
1
 40
1
 40
1
 40
1
 10
48.162248
 20
70.236656
 30
0.0
 10
47.887095
 20
70.236656
 30
0.0
 10
47.661329
 20
70.458895
 30
0.0
 10
47.661329
 20
70.737575
 30
0.0
  0
LWPOLYLINE
  5
22c
100
AcDbEntity
  8
0
 62
7
100
AcDbPolyline
 90
1
 70
1
 10
47.661329
 20
68.737429
 30
0.0
  0
SPLINE
  5
22d
100
AcDbEntity
  8
0
 62
7
100
AcDbSpline
 70
8
 71
3
 72
8
 73
4
 74
0
 40
0
 40
0
 40
0
 40
0
 40
1
 40
1
 40
1
 40
1
 10
47.661329
 20
72.737721
 30
0.0
 10
47.661329
 20
73.016401
 30
0.0
 10
47.883568
 20
73.238639
 30
0.0
 10
48.162248
 20
73.238639
 30
0.0
  0
SPLINE
  5
22e
100
AcDbEntity
  8
0
 62
7
100
AcDbSpline
 70
8
 71
3
 72
8
 73
4
 74
0
 40
0
 40
0
 40
0
 40
0
 40
1
 40
1
 40
1
 40
1
 10
48.162248
 20
73.238639
 30
0.0
 10
48.440928
 20
73.238639
 30
0.0
 10
48.663166
 20
73.016401
 30
0.0
 10
48.663166
 20
72.737721
 30
0.0
  0
SPLINE
  5
22f
100
AcDbEntity
  8
0
 62
7
100
AcDbSpline
 70
8
 71
3
 72
8
 73
4
 74
0
 40
0
 40
0
 40
0
 40
0
 40
1
 40
1
 40
1
 40
1
 10
48.663166
 20
72.737721
 30
0.0
 10
48.663166
 20
72.459041
 30
0.0
 10
48.437400
 20
72.236802
 30
0.0
 10
48.162248
 20
72.236802
 30
0.0
  0
SPLINE
  5
230
100
AcDbEntity
  8
0
 62
7
100
AcDbSpline
 70
8
 71
3
 72
8
 73
4
 74
0
 40
0
 40
0
 40
0
 40
0
 40
1
 40
1
 40
1
 40
1
 10
48.162248
 20
72.236802
 30
0.0
 10
47.887095
 20
72.236802
 30
0.0
 10
47.661329
 20
72.459041
 30
0.0
 10
47.661329
 20
72.737721
 30
0.0
  0
LWPOLYLINE
  5
231
100
AcDbEntity
  8
0
 62
7
100
AcDbPolyline
 90
1
 70
1
 10
47.661329
 20
70.737575
 30
0.0
  0
SPLINE
  5
232
100
AcDbEntity
  8
0
 62
7
100
AcDbSpline
 70
8
 71
3
 72
8
 73
4
 74
0
 40
0
 40
0
 40
0
 40
0
 40
1
 40
1
 40
1
 40
1
 10
47.661329
 20
74.737867
 30
0.0
 10
47.661329
 20
75.016547
 30
0.0
 10
47.883568
 20
75.238785
 30
0.0
 10
48.162248
 20
75.238785
 30
0.0
  0
SPLINE
  5
233
100
AcDbEntity
  8
0
 62
7
100
AcDbSpline
 70
8
 71
3
 72
8
 73
4
 74
0
 40
0
 40
0
 40
0
 40
0
 40
1
 40
1
 40
1
 40
1
 10
48.162248
 20
75.238785
 30
0.0
 10
48.440928
 20
75.238785
 30
0.0
 10
48.663166
 20
75.016547
 30
0.0
 10
48.663166
 20
74.737867
 30
0.0
  0
SPLINE
  5
234
100
AcDbEntity
  8
0
 62
7
100
AcDbSpline
 70
8
 71
3
 72
8
 73
4
 74
0
 40
0
 40
0
 40
0
 40
0
 40
1
 40
1
 40
1
 40
1
 10
48.663166
 20
74.737867
 30
0.0
 10
48.663166
 20
74.459187
 30
0.0
 10
48.437400
 20
74.236948
 30
0.0
 10
48.162248
 20
74.236948
 30
0.0
  0
SPLINE
  5
235
100
AcDbEntity
  8
0
 62
7
100
AcDbSpline
 70
8
 71
3
 72
8
 73
4
 74
0
 40
0
 40
0
 40
0
 40
0
 40
1
 40
1
 40
1
 40
1
 10
48.162248
 20
74.236948
 30
0.0
 10
47.887095
 20
74.236948
 30
0.0
 10
47.661329
 20
74.459187
 30
0.0
 10
47.661329
 20
74.737867
 30
0.0
  0
LWPOLYLINE
  5
236
100
AcDbEntity
  8
0
 62
7
100
AcDbPolyline
 90
1
 70
1
 10
47.661329
 20
72.737721
 30
0.0
  0
SPLINE
  5
237
100
AcDbEntity
  8
0
 62
7
100
AcDbSpline
 70
8
 71
3
 72
8
 73
4
 74
0
 40
0
 40
0
 40
0
 40
0
 40
1
 40
1
 40
1
 40
1
 10
47.661329
 20
76.738013
 30
0.0
 10
47.661329
 20
77.016693
 30
0.0
 10
47.883568
 20
77.238931
 30
0.0
 10
48.162248
 20
77.238931
 30
0.0
  0
SPLINE
  5
238
100
AcDbEntity
  8
0
 62
7
100
AcDbSpline
 70
8
 71
3
 72
8
 73
4
 74
0
 40
0
 40
0
 40
0
 40
0
 40
1
 40
1
 40
1
 40
1
 10
48.162248
 20
77.238931
 30
0.0
 10
48.440928
 20
77.238931
 30
0.0
 10
48.663166
 20
77.016693
 30
0.0
 10
48.663166
 20
76.738013
 30
0.0
  0
SPLINE
  5
239
100
AcDbEntity
  8
0
 62
7
100
AcDbSpline
 70
8
 71
3
 72
8
 73
4
 74
0
 40
0
 40
0
 40
0
 40
0
 40
1
 40
1
 40
1
 40
1
 10
48.663166
 20
76.738013
 30
0.0
 10
48.663166
 20
76.459333
 30
0.0
 10
48.437400
 20
76.237094
 30
0.0
 10
48.162248
 20
76.237094
 30
0.0
  0
SPLINE
  5
23a
100
AcDbEntity
  8
0
 62
7
100
AcDbSpline
 70
8
 71
3
 72
8
 73
4
 74
0
 40
0
 40
0
 40
0
 40
0
 40
1
 40
1
 40
1
 40
1
 10
48.162248
 20
76.237094
 30
0.0
 10
47.887095
 20
76.237094
 30
0.0
 10
47.661329
 20
76.459333
 30
0.0
 10
47.661329
 20
76.738013
 30
0.0
  0
LWPOLYLINE
  5
23b
100
AcDbEntity
  8
0
 62
7
100
AcDbPolyline
 90
1
 70
1
 10
47.661329
 20
74.737867
 30
0.0
  0
SPLINE
  5
23c
100
AcDbEntity
  8
0
 62
7
100
AcDbSpline
 70
8
 71
3
 72
8
 73
4
 74
0
 40
0
 40
0
 40
0
 40
0
 40
1
 40
1
 40
1
 40
1
 10
45.661183
 20
68.737429
 30
0.0
 10
45.661183
 20
69.016109
 30
0.0
 10
45.883422
 20
69.238347
 30
0.0
 10
46.162102
 20
69.238347
 30
0.0
  0
SPLINE
  5
23d
100
AcDbEntity
  8
0
 62
7
100
AcDbSpline
 70
8
 71
3
 72
8
 73
4
 74
0
 40
0
 40
0
 40
0
 40
0
 40
1
 40
1
 40
1
 40
1
 10
46.162102
 20
69.238347
 30
0.0
 10
46.440781
 20
69.238347
 30
0.0
 10
46.663020
 20
69.016109
 30
0.0
 10
46.663020
 20
68.737429
 30
0.0
  0
SPLINE
  5
23e
100
AcDbEntity
  8
0
 62
7
100
AcDbSpline
 70
8
 71
3
 72
8
 73
4
 74
0
 40
0
 40
0
 40
0
 40
0
 40
1
 40
1
 40
1
 40
1
 10
46.663020
 20
68.737429
 30
0.0
 10
46.663020
 20
68.458749
 30
0.0
 10
46.437254
 20
68.236510
 30
0.0
 10
46.162102
 20
68.236510
 30
0.0
  0
SPLINE
  5
23f
100
AcDbEntity
  8
0
 62
7
100
AcDbSpline
 70
8
 71
3
 72
8
 73
4
 74
0
 40
0
 40
0
 40
0
 40
0
 40
1
 40
1
 40
1
 40
1
 10
46.162102
 20
68.236510
 30
0.0
 10
45.886949
 20
68.236510
 30
0.0
 10
45.661183
 20
68.458749
 30
0.0
 10
45.661183
 20
68.737429
 30
0.0
  0
LWPOLYLINE
  5
240
100
AcDbEntity
  8
0
 62
7
100
AcDbPolyline
 90
1
 70
1
 10
47.661329
 20
76.738013
 30
0.0
  0
SPLINE
  5
241
100
AcDbEntity
  8
0
 62
7
100
AcDbSpline
 70
8
 71
3
 72
8
 73
4
 74
0
 40
0
 40
0
 40
0
 40
0
 40
1
 40
1
 40
1
 40
1
 10
45.661183
 20
70.737575
 30
0.0
 10
45.661183
 20
71.016255
 30
0.0
 10
45.883422
 20
71.238493
 30
0.0
 10
46.162102
 20
71.238493
 30
0.0
  0
SPLINE
  5
242
100
AcDbEntity
  8
0
 62
7
100
AcDbSpline
 70
8
 71
3
 72
8
 73
4
 74
0
 40
0
 40
0
 40
0
 40
0
 40
1
 40
1
 40
1
 40
1
 10
46.162102
 20
71.238493
 30
0.0
 10
46.440781
 20
71.238493
 30
0.0
 10
46.663020
 20
71.016255
 30
0.0
 10
46.663020
 20
70.737575
 30
0.0
  0
SPLINE
  5
243
100
AcDbEntity
  8
0
 62
7
100
AcDbSpline
 70
8
 71
3
 72
8
 73
4
 74
0
 40
0
 40
0
 40
0
 40
0
 40
1
 40
1
 40
1
 40
1
 10
46.663020
 20
70.737575
 30
0.0
 10
46.663020
 20
70.458895
 30
0.0
 10
46.437254
 20
70.236656
 30
0.0
 10
46.162102
 20
70.236656
 30
0.0
  0
SPLINE
  5
244
100
AcDbEntity
  8
0
 62
7
100
AcDbSpline
 70
8
 71
3
 72
8
 73
4
 74
0
 40
0
 40
0
 40
0
 40
0
 40
1
 40
1
 40
1
 40
1
 10
46.162102
 20
70.236656
 30
0.0
 10
45.886949
 20
70.236656
 30
0.0
 10
45.661183
 20
70.458895
 30
0.0
 10
45.661183
 20
70.737575
 30
0.0
  0
LWPOLYLINE
  5
245
100
AcDbEntity
  8
0
 62
7
100
AcDbPolyline
 90
1
 70
1
 10
45.661183
 20
68.737429
 30
0.0
  0
SPLINE
  5
246
100
AcDbEntity
  8
0
 62
7
100
AcDbSpline
 70
8
 71
3
 72
8
 73
4
 74
0
 40
0
 40
0
 40
0
 40
0
 40
1
 40
1
 40
1
 40
1
 10
45.661183
 20
72.737721
 30
0.0
 10
45.661183
 20
73.016401
 30
0.0
 10
45.883422
 20
73.238639
 30
0.0
 10
46.162102
 20
73.238639
 30
0.0
  0
SPLINE
  5
247
100
AcDbEntity
  8
0
 62
7
100
AcDbSpline
 70
8
 71
3
 72
8
 73
4
 74
0
 40
0
 40
0
 40
0
 40
0
 40
1
 40
1
 40
1
 40
1
 10
46.162102
 20
73.238639
 30
0.0
 10
46.440781
 20
73.238639
 30
0.0
 10
46.663020
 20
73.016401
 30
0.0
 10
46.663020
 20
72.737721
 30
0.0
  0
SPLINE
  5
248
100
AcDbEntity
  8
0
 62
7
100
AcDbSpline
 70
8
 71
3
 72
8
 73
4
 74
0
 40
0
 40
0
 40
0
 40
0
 40
1
 40
1
 40
1
 40
1
 10
46.663020
 20
72.737721
 30
0.0
 10
46.663020
 20
72.459041
 30
0.0
 10
46.437254
 20
72.236802
 30
0.0
 10
46.162102
 20
72.236802
 30
0.0
  0
SPLINE
  5
249
100
AcDbEntity
  8
0
 62
7
100
AcDbSpline
 70
8
 71
3
 72
8
 73
4
 74
0
 40
0
 40
0
 40
0
 40
0
 40
1
 40
1
 40
1
 40
1
 10
46.162102
 20
72.236802
 30
0.0
 10
45.886949
 20
72.236802
 30
0.0
 10
45.661183
 20
72.459041
 30
0.0
 10
45.661183
 20
72.737721
 30
0.0
  0
LWPOLYLINE
  5
24a
100
AcDbEntity
  8
0
 62
7
100
AcDbPolyline
 90
1
 70
1
 10
45.661183
 20
70.737575
 30
0.0
  0
SPLINE
  5
24b
100
AcDbEntity
  8
0
 62
7
100
AcDbSpline
 70
8
 71
3
 72
8
 73
4
 74
0
 40
0
 40
0
 40
0
 40
0
 40
1
 40
1
 40
1
 40
1
 10
45.661183
 20
74.737867
 30
0.0
 10
45.661183
 20
75.016547
 30
0.0
 10
45.883422
 20
75.238785
 30
0.0
 10
46.162102
 20
75.238785
 30
0.0
  0
SPLINE
  5
24c
100
AcDbEntity
  8
0
 62
7
100
AcDbSpline
 70
8
 71
3
 72
8
 73
4
 74
0
 40
0
 40
0
 40
0
 40
0
 40
1
 40
1
 40
1
 40
1
 10
46.162102
 20
75.238785
 30
0.0
 10
46.440781
 20
75.238785
 30
0.0
 10
46.663020
 20
75.016547
 30
0.0
 10
46.663020
 20
74.737867
 30
0.0
  0
SPLINE
  5
24d
100
AcDbEntity
  8
0
 62
7
100
AcDbSpline
 70
8
 71
3
 72
8
 73
4
 74
0
 40
0
 40
0
 40
0
 40
0
 40
1
 40
1
 40
1
 40
1
 10
46.663020
 20
74.737867
 30
0.0
 10
46.663020
 20
74.459187
 30
0.0
 10
46.437254
 20
74.236948
 30
0.0
 10
46.162102
 20
74.236948
 30
0.0
  0
SPLINE
  5
24e
100
AcDbEntity
  8
0
 62
7
100
AcDbSpline
 70
8
 71
3
 72
8
 73
4
 74
0
 40
0
 40
0
 40
0
 40
0
 40
1
 40
1
 40
1
 40
1
 10
46.162102
 20
74.236948
 30
0.0
 10
45.886949
 20
74.236948
 30
0.0
 10
45.661183
 20
74.459187
 30
0.0
 10
45.661183
 20
74.737867
 30
0.0
  0
LWPOLYLINE
  5
24f
100
AcDbEntity
  8
0
 62
7
100
AcDbPolyline
 90
1
 70
1
 10
45.661183
 20
72.737721
 30
0.0
  0
SPLINE
  5
250
100
AcDbEntity
  8
0
 62
7
100
AcDbSpline
 70
8
 71
3
 72
8
 73
4
 74
0
 40
0
 40
0
 40
0
 40
0
 40
1
 40
1
 40
1
 40
1
 10
45.661183
 20
76.738013
 30
0.0
 10
45.661183
 20
77.016693
 30
0.0
 10
45.883422
 20
77.238931
 30
0.0
 10
46.162102
 20
77.238931
 30
0.0
  0
SPLINE
  5
251
100
AcDbEntity
  8
0
 62
7
100
AcDbSpline
 70
8
 71
3
 72
8
 73
4
 74
0
 40
0
 40
0
 40
0
 40
0
 40
1
 40
1
 40
1
 40
1
 10
46.162102
 20
77.238931
 30
0.0
 10
46.440781
 20
77.238931
 30
0.0
 10
46.663020
 20
77.016693
 30
0.0
 10
46.663020
 20
76.738013
 30
0.0
  0
SPLINE
  5
252
100
AcDbEntity
  8
0
 62
7
100
AcDbSpline
 70
8
 71
3
 72
8
 73
4
 74
0
 40
0
 40
0
 40
0
 40
0
 40
1
 40
1
 40
1
 40
1
 10
46.663020
 20
76.738013
 30
0.0
 10
46.663020
 20
76.459333
 30
0.0
 10
46.437254
 20
76.237094
 30
0.0
 10
46.162102
 20
76.237094
 30
0.0
  0
SPLINE
  5
253
100
AcDbEntity
  8
0
 62
7
100
AcDbSpline
 70
8
 71
3
 72
8
 73
4
 74
0
 40
0
 40
0
 40
0
 40
0
 40
1
 40
1
 40
1
 40
1
 10
46.162102
 20
76.237094
 30
0.0
 10
45.886949
 20
76.237094
 30
0.0
 10
45.661183
 20
76.459333
 30
0.0
 10
45.661183
 20
76.738013
 30
0.0
  0
LWPOLYLINE
  5
254
100
AcDbEntity
  8
0
 62
7
100
AcDbPolyline
 90
1
 70
1
 10
45.661183
 20
74.737867
 30
0.0
  0
SPLINE
  5
255
100
AcDbEntity
  8
0
 62
7
100
AcDbSpline
 70
8
 71
3
 72
8
 73
4
 74
0
 40
0
 40
0
 40
0
 40
0
 40
1
 40
1
 40
1
 40
1
 10
43.661037
 20
68.737429
 30
0.0
 10
43.661037
 20
69.016109
 30
0.0
 10
43.883275
 20
69.238347
 30
0.0
 10
44.161955
 20
69.238347
 30
0.0
  0
SPLINE
  5
256
100
AcDbEntity
  8
0
 62
7
100
AcDbSpline
 70
8
 71
3
 72
8
 73
4
 74
0
 40
0
 40
0
 40
0
 40
0
 40
1
 40
1
 40
1
 40
1
 10
44.161955
 20
69.238347
 30
0.0
 10
44.440635
 20
69.238347
 30
0.0
 10
44.662874
 20
69.016109
 30
0.0
 10
44.662874
 20
68.737429
 30
0.0
  0
SPLINE
  5
257
100
AcDbEntity
  8
0
 62
7
100
AcDbSpline
 70
8
 71
3
 72
8
 73
4
 74
0
 40
0
 40
0
 40
0
 40
0
 40
1
 40
1
 40
1
 40
1
 10
44.662874
 20
68.737429
 30
0.0
 10
44.662874
 20
68.458749
 30
0.0
 10
44.437108
 20
68.236510
 30
0.0
 10
44.161955
 20
68.236510
 30
0.0
  0
SPLINE
  5
258
100
AcDbEntity
  8
0
 62
7
100
AcDbSpline
 70
8
 71
3
 72
8
 73
4
 74
0
 40
0
 40
0
 40
0
 40
0
 40
1
 40
1
 40
1
 40
1
 10
44.161955
 20
68.236510
 30
0.0
 10
43.886803
 20
68.236510
 30
0.0
 10
43.661037
 20
68.458749
 30
0.0
 10
43.661037
 20
68.737429
 30
0.0
  0
LWPOLYLINE
  5
259
100
AcDbEntity
  8
0
 62
7
100
AcDbPolyline
 90
1
 70
1
 10
45.661183
 20
76.738013
 30
0.0
  0
SPLINE
  5
25a
100
AcDbEntity
  8
0
 62
7
100
AcDbSpline
 70
8
 71
3
 72
8
 73
4
 74
0
 40
0
 40
0
 40
0
 40
0
 40
1
 40
1
 40
1
 40
1
 10
43.661037
 20
70.737575
 30
0.0
 10
43.661037
 20
71.016255
 30
0.0
 10
43.883275
 20
71.238493
 30
0.0
 10
44.161955
 20
71.238493
 30
0.0
  0
SPLINE
  5
25b
100
AcDbEntity
  8
0
 62
7
100
AcDbSpline
 70
8
 71
3
 72
8
 73
4
 74
0
 40
0
 40
0
 40
0
 40
0
 40
1
 40
1
 40
1
 40
1
 10
44.161955
 20
71.238493
 30
0.0
 10
44.440635
 20
71.238493
 30
0.0
 10
44.662874
 20
71.016255
 30
0.0
 10
44.662874
 20
70.737575
 30
0.0
  0
SPLINE
  5
25c
100
AcDbEntity
  8
0
 62
7
100
AcDbSpline
 70
8
 71
3
 72
8
 73
4
 74
0
 40
0
 40
0
 40
0
 40
0
 40
1
 40
1
 40
1
 40
1
 10
44.662874
 20
70.737575
 30
0.0
 10
44.662874
 20
70.458895
 30
0.0
 10
44.437108
 20
70.236656
 30
0.0
 10
44.161955
 20
70.236656
 30
0.0
  0
SPLINE
  5
25d
100
AcDbEntity
  8
0
 62
7
100
AcDbSpline
 70
8
 71
3
 72
8
 73
4
 74
0
 40
0
 40
0
 40
0
 40
0
 40
1
 40
1
 40
1
 40
1
 10
44.161955
 20
70.236656
 30
0.0
 10
43.886803
 20
70.236656
 30
0.0
 10
43.661037
 20
70.458895
 30
0.0
 10
43.661037
 20
70.737575
 30
0.0
  0
LWPOLYLINE
  5
25e
100
AcDbEntity
  8
0
 62
7
100
AcDbPolyline
 90
1
 70
1
 10
43.661037
 20
68.737429
 30
0.0
  0
SPLINE
  5
25f
100
AcDbEntity
  8
0
 62
7
100
AcDbSpline
 70
8
 71
3
 72
8
 73
4
 74
0
 40
0
 40
0
 40
0
 40
0
 40
1
 40
1
 40
1
 40
1
 10
43.661037
 20
72.737721
 30
0.0
 10
43.661037
 20
73.016401
 30
0.0
 10
43.883275
 20
73.238639
 30
0.0
 10
44.161955
 20
73.238639
 30
0.0
  0
SPLINE
  5
260
100
AcDbEntity
  8
0
 62
7
100
AcDbSpline
 70
8
 71
3
 72
8
 73
4
 74
0
 40
0
 40
0
 40
0
 40
0
 40
1
 40
1
 40
1
 40
1
 10
44.161955
 20
73.238639
 30
0.0
 10
44.440635
 20
73.238639
 30
0.0
 10
44.662874
 20
73.016401
 30
0.0
 10
44.662874
 20
72.737721
 30
0.0
  0
SPLINE
  5
261
100
AcDbEntity
  8
0
 62
7
100
AcDbSpline
 70
8
 71
3
 72
8
 73
4
 74
0
 40
0
 40
0
 40
0
 40
0
 40
1
 40
1
 40
1
 40
1
 10
44.662874
 20
72.737721
 30
0.0
 10
44.662874
 20
72.459041
 30
0.0
 10
44.437108
 20
72.236802
 30
0.0
 10
44.161955
 20
72.236802
 30
0.0
  0
SPLINE
  5
262
100
AcDbEntity
  8
0
 62
7
100
AcDbSpline
 70
8
 71
3
 72
8
 73
4
 74
0
 40
0
 40
0
 40
0
 40
0
 40
1
 40
1
 40
1
 40
1
 10
44.161955
 20
72.236802
 30
0.0
 10
43.886803
 20
72.236802
 30
0.0
 10
43.661037
 20
72.459041
 30
0.0
 10
43.661037
 20
72.737721
 30
0.0
  0
LWPOLYLINE
  5
263
100
AcDbEntity
  8
0
 62
7
100
AcDbPolyline
 90
1
 70
1
 10
43.661037
 20
70.737575
 30
0.0
  0
SPLINE
  5
264
100
AcDbEntity
  8
0
 62
7
100
AcDbSpline
 70
8
 71
3
 72
8
 73
4
 74
0
 40
0
 40
0
 40
0
 40
0
 40
1
 40
1
 40
1
 40
1
 10
43.661037
 20
74.737867
 30
0.0
 10
43.661037
 20
75.016547
 30
0.0
 10
43.883275
 20
75.238785
 30
0.0
 10
44.161955
 20
75.238785
 30
0.0
  0
SPLINE
  5
265
100
AcDbEntity
  8
0
 62
7
100
AcDbSpline
 70
8
 71
3
 72
8
 73
4
 74
0
 40
0
 40
0
 40
0
 40
0
 40
1
 40
1
 40
1
 40
1
 10
44.161955
 20
75.238785
 30
0.0
 10
44.440635
 20
75.238785
 30
0.0
 10
44.662874
 20
75.016547
 30
0.0
 10
44.662874
 20
74.737867
 30
0.0
  0
SPLINE
  5
266
100
AcDbEntity
  8
0
 62
7
100
AcDbSpline
 70
8
 71
3
 72
8
 73
4
 74
0
 40
0
 40
0
 40
0
 40
0
 40
1
 40
1
 40
1
 40
1
 10
44.662874
 20
74.737867
 30
0.0
 10
44.662874
 20
74.459187
 30
0.0
 10
44.437108
 20
74.236948
 30
0.0
 10
44.161955
 20
74.236948
 30
0.0
  0
SPLINE
  5
267
100
AcDbEntity
  8
0
 62
7
100
AcDbSpline
 70
8
 71
3
 72
8
 73
4
 74
0
 40
0
 40
0
 40
0
 40
0
 40
1
 40
1
 40
1
 40
1
 10
44.161955
 20
74.236948
 30
0.0
 10
43.886803
 20
74.236948
 30
0.0
 10
43.661037
 20
74.459187
 30
0.0
 10
43.661037
 20
74.737867
 30
0.0
  0
LWPOLYLINE
  5
268
100
AcDbEntity
  8
0
 62
7
100
AcDbPolyline
 90
1
 70
1
 10
43.661037
 20
72.737721
 30
0.0
  0
SPLINE
  5
269
100
AcDbEntity
  8
0
 62
7
100
AcDbSpline
 70
8
 71
3
 72
8
 73
4
 74
0
 40
0
 40
0
 40
0
 40
0
 40
1
 40
1
 40
1
 40
1
 10
43.661037
 20
76.738013
 30
0.0
 10
43.661037
 20
77.016693
 30
0.0
 10
43.883275
 20
77.238931
 30
0.0
 10
44.161955
 20
77.238931
 30
0.0
  0
SPLINE
  5
26a
100
AcDbEntity
  8
0
 62
7
100
AcDbSpline
 70
8
 71
3
 72
8
 73
4
 74
0
 40
0
 40
0
 40
0
 40
0
 40
1
 40
1
 40
1
 40
1
 10
44.161955
 20
77.238931
 30
0.0
 10
44.440635
 20
77.238931
 30
0.0
 10
44.662874
 20
77.016693
 30
0.0
 10
44.662874
 20
76.738013
 30
0.0
  0
SPLINE
  5
26b
100
AcDbEntity
  8
0
 62
7
100
AcDbSpline
 70
8
 71
3
 72
8
 73
4
 74
0
 40
0
 40
0
 40
0
 40
0
 40
1
 40
1
 40
1
 40
1
 10
44.662874
 20
76.738013
 30
0.0
 10
44.662874
 20
76.459333
 30
0.0
 10
44.437108
 20
76.237094
 30
0.0
 10
44.161955
 20
76.237094
 30
0.0
  0
SPLINE
  5
26c
100
AcDbEntity
  8
0
 62
7
100
AcDbSpline
 70
8
 71
3
 72
8
 73
4
 74
0
 40
0
 40
0
 40
0
 40
0
 40
1
 40
1
 40
1
 40
1
 10
44.161955
 20
76.237094
 30
0.0
 10
43.886803
 20
76.237094
 30
0.0
 10
43.661037
 20
76.459333
 30
0.0
 10
43.661037
 20
76.738013
 30
0.0
  0
LWPOLYLINE
  5
26d
100
AcDbEntity
  8
0
 62
7
100
AcDbPolyline
 90
1
 70
1
 10
43.661037
 20
74.737867
 30
0.0
  0
SPLINE
  5
26e
100
AcDbEntity
  8
0
 62
7
100
AcDbSpline
 70
8
 71
3
 72
8
 73
4
 74
0
 40
0
 40
0
 40
0
 40
0
 40
1
 40
1
 40
1
 40
1
 10
27.808027
 20
66.560903
 30
0.0
 10
27.808027
 20
65.978850
 30
0.0
 10
27.338857
 20
65.509680
 30
0.0
 10
26.756804
 20
65.509680
 30
0.0
  0
SPLINE
  5
26f
100
AcDbEntity
  8
0
 62
7
100
AcDbSpline
 70
8
 71
3
 72
8
 73
4
 74
0
 40
0
 40
0
 40
0
 40
0
 40
1
 40
1
 40
1
 40
1
 10
26.756804
 20
65.509680
 30
0.0
 10
26.174751
 20
65.509680
 30
0.0
 10
25.705581
 20
65.978850
 30
0.0
 10
25.705581
 20
66.560903
 30
0.0
  0
SPLINE
  5
270
100
AcDbEntity
  8
0
 62
7
100
AcDbSpline
 70
8
 71
3
 72
8
 73
4
 74
0
 40
0
 40
0
 40
0
 40
0
 40
1
 40
1
 40
1
 40
1
 10
25.705581
 20
66.560903
 30
0.0
 10
25.705581
 20
67.142956
 30
0.0
 10
26.178279
 20
67.612126
 30
0.0
 10
26.756804
 20
67.612126
 30
0.0
  0
SPLINE
  5
271
100
AcDbEntity
  8
0
 62
7
100
AcDbSpline
 70
8
 71
3
 72
8
 73
4
 74
0
 40
0
 40
0
 40
0
 40
0
 40
1
 40
1
 40
1
 40
1
 10
26.756804
 20
67.612126
 30
0.0
 10
27.335330
 20
67.612126
 30
0.0
 10
27.808027
 20
67.142956
 30
0.0
 10
27.808027
 20
66.560903
 30
0.0
  0
LWPOLYLINE
  5
272
100
AcDbEntity
  8
0
 62
7
100
AcDbPolyline
 90
1
 70
1
 10
43.661037
 20
76.738013
 30
0.0
  0
SPLINE
  5
273
100
AcDbEntity
  8
0
 62
7
100
AcDbSpline
 70
8
 71
3
 72
8
 73
4
 74
0
 40
0
 40
0
 40
0
 40
0
 40
1
 40
1
 40
1
 40
1
 10
39.382065
 20
67.333446
 30
0.0
 10
39.382065
 20
66.751393
 30
0.0
 10
38.912895
 20
66.282223
 30
0.0
 10
38.330842
 20
66.282223
 30
0.0
  0
SPLINE
  5
274
100
AcDbEntity
  8
0
 62
7
100
AcDbSpline
 70
8
 71
3
 72
8
 73
4
 74
0
 40
0
 40
0
 40
0
 40
0
 40
1
 40
1
 40
1
 40
1
 10
38.330842
 20
66.282223
 30
0.0
 10
37.748789
 20
66.282223
 30
0.0
 10
37.279619
 20
66.751393
 30
0.0
 10
37.279619
 20
67.333446
 30
0.0
  0
SPLINE
  5
275
100
AcDbEntity
  8
0
 62
7
100
AcDbSpline
 70
8
 71
3
 72
8
 73
4
 74
0
 40
0
 40
0
 40
0
 40
0
 40
1
 40
1
 40
1
 40
1
 10
37.279619
 20
67.333446
 30
0.0
 10
37.279619
 20
67.915499
 30
0.0
 10
37.752316
 20
68.384669
 30
0.0
 10
38.330842
 20
68.384669
 30
0.0
  0
SPLINE
  5
276
100
AcDbEntity
  8
0
 62
7
100
AcDbSpline
 70
8
 71
3
 72
8
 73
4
 74
0
 40
0
 40
0
 40
0
 40
0
 40
1
 40
1
 40
1
 40
1
 10
38.330842
 20
68.384669
 30
0.0
 10
38.909367
 20
68.384669
 30
0.0
 10
39.382065
 20
67.915499
 30
0.0
 10
39.382065
 20
67.333446
 30
0.0
  0
LWPOLYLINE
  5
277
100
AcDbEntity
  8
0
 62
7
100
AcDbPolyline
 90
1
 70
1
 10
27.808027
 20
66.560903
 30
0.0
  0
SPLINE
  5
278
100
AcDbEntity
  8
0
 62
7
100
AcDbSpline
 70
8
 71
3
 72
8
 73
4
 74
0
 40
0
 40
0
 40
0
 40
0
 40
1
 40
1
 40
1
 40
1
 10
0.747850
 20
89.821861
 30
0.0
 10
0.363342
 20
89.821861
 30
0.0
 10
0.049386
 20
89.511433
 30
0.0
 10
0.049386
 20
89.123397
 30
0.0
  0
LWPOLYLINE
  5
279
100
AcDbEntity
  8
0
 62
7
100
AcDbPolyline
 90
1
 70
1
 10
39.382065
 20
67.333446
 30
0.0
  0
SPLINE
  5
27a
100
AcDbEntity
  8
0
 62
7
100
AcDbSpline
 70
8
 71
3
 72
8
 73
4
 74
0
 40
0
 40
0
 40
0
 40
0
 40
1
 40
1
 40
1
 40
1
 10
15.503778
 20
70.458895
 30
0.0
 10
15.884758
 20
70.525919
 30
0.0
 10
16.248100
 20
70.271932
 30
0.0
 10
16.315125
 20
69.890952
 30
0.0
  0
LWPOLYLINE
  5
27b
100
AcDbEntity
  8
0
 62
7
100
AcDbPolyline
 90
3
 70
0
 10
0.049386
 20
89.123397
 30
0.0
 10
0.049386
 20
67.735592
 30
0.0
 10
15.503778
 20
70.458895
 30
0.0
  0
SPLINE
  5
27c
100
AcDbEntity
  8
0
 62
7
100
AcDbSpline
 70
8
 71
3
 72
8
 73
4
 74
0
 40
0
 40
0
 40
0
 40
0
 40
1
 40
1
 40
1
 40
1
 10
19.105452
 20
53.985028
 30
0.0
 10
19.228918
 20
53.272454
 30
0.0
 10
20.287196
 20
53.399448
 30
0.0
 10
20.237810
 20
54.122605
 30
0.0
  0
LWPOLYLINE
  5
27d
100
AcDbEntity
  8
0
 62
7
100
AcDbPolyline
 90
2
 70
0
 10
16.315125
 20
69.890952
 30
0.0
 10
19.105452
 20
53.985028
 30
0.0
  0
SPLINE
  5
27e
100
AcDbEntity
  8
0
 62
7
100
AcDbSpline
 70
8
 71
3
 72
8
 73
4
 74
0
 40
0
 40
0
 40
0
 40
0
 40
1
 40
1
 40
1
 40
1
 10
18.311743
 20
81.955325
 30
0.0
 10
18.283522
 20
82.343361
 30
0.0
 10
18.576313
 20
82.674954
 30
0.0
 10
18.960820
 20
82.703175
 30
0.0
  0
LWPOLYLINE
  5
27f
100
AcDbEntity
  8
0
 62
7
100
AcDbPolyline
 90
2
 70
0
 10
20.237810
 20
54.122605
 30
0.0
 10
18.311743
 20
81.955325
 30
0.0
  0
SPLINE
  5
280
100
AcDbEntity
  8
0
 62
7
100
AcDbSpline
 70
8
 71
3
 72
8
 73
4
 74
0
 40
0
 40
0
 40
0
 40
0
 40
1
 40
1
 40
1
 40
1
 10
35.201865
 20
87.222024
 30
0.0
 10
35.201865
 20
87.804077
 30
0.0
 10
35.671036
 20
88.273247
 30
0.0
 10
36.253089
 20
88.273247
 30
0.0
  0
SPLINE
  5
281
100
AcDbEntity
  8
0
 62
7
100
AcDbSpline
 70
8
 71
3
 72
8
 73
4
 74
0
 40
0
 40
0
 40
0
 40
0
 40
1
 40
1
 40
1
 40
1
 10
36.253089
 20
88.273247
 30
0.0
 10
36.835142
 20
88.273247
 30
0.0
 10
37.304312
 20
87.804077
 30
0.0
 10
37.304312
 20
87.222024
 30
0.0
  0
SPLINE
  5
282
100
AcDbEntity
  8
0
 62
7
100
AcDbSpline
 70
8
 71
3
 72
8
 73
4
 74
0
 40
0
 40
0
 40
0
 40
0
 40
1
 40
1
 40
1
 40
1
 10
37.304312
 20
87.222024
 30
0.0
 10
37.304312
 20
86.639971
 30
0.0
 10
36.831614
 20
86.170801
 30
0.0
 10
36.253089
 20
86.170801
 30
0.0
  0
SPLINE
  5
283
100
AcDbEntity
  8
0
 62
7
100
AcDbSpline
 70
8
 71
3
 72
8
 73
4
 74
0
 40
0
 40
0
 40
0
 40
0
 40
1
 40
1
 40
1
 40
1
 10
36.253089
 20
86.170801
 30
0.0
 10
35.674563
 20
86.170801
 30
0.0
 10
35.201865
 20
86.639971
 30
0.0
 10
35.201865
 20
87.222024
 30
0.0
  0
LWPOLYLINE
  5
284
100
AcDbEntity
  8
0
 62
7
100
AcDbPolyline
 90
5
 70
0
 10
18.960820
 20
82.703175
 30
0.0
 10
40.768410
 20
84.227096
 30
0.0
 10
40.757827
 20
89.821861
 30
0.0
 10
0.747850
 20
89.821861
 30
0.0
 10
0.747850
 20
89.821861
 30
0.0
  0
SPLINE
  5
285
100
AcDbEntity
  8
0
 62
7
100
AcDbSpline
 70
8
 71
3
 72
8
 73
4
 74
0
 40
0
 40
0
 40
0
 40
0
 40
1
 40
1
 40
1
 40
1
 10
20.361275
 20
86.213132
 30
0.0
 10
20.361275
 20
86.795185
 30
0.0
 10
20.830445
 20
87.264355
 30
0.0
 10
21.412499
 20
87.264355
 30
0.0
  0
SPLINE
  5
286
100
AcDbEntity
  8
0
 62
7
100
AcDbSpline
 70
8
 71
3
 72
8
 73
4
 74
0
 40
0
 40
0
 40
0
 40
0
 40
1
 40
1
 40
1
 40
1
 10
21.412499
 20
87.264355
 30
0.0
 10
21.994552
 20
87.264355
 30
0.0
 10
22.463722
 20
86.795185
 30
0.0
 10
22.463722
 20
86.213132
 30
0.0
  0
SPLINE
  5
287
100
AcDbEntity
  8
0
 62
7
100
AcDbSpline
 70
8
 71
3
 72
8
 73
4
 74
0
 40
0
 40
0
 40
0
 40
0
 40
1
 40
1
 40
1
 40
1
 10
22.463722
 20
86.213132
 30
0.0
 10
22.463722
 20
85.631079
 30
0.0
 10
21.991024
 20
85.161909
 30
0.0
 10
21.412499
 20
85.161909
 30
0.0
  0
SPLINE
  5
288
100
AcDbEntity
  8
0
 62
7
100
AcDbSpline
 70
8
 71
3
 72
8
 73
4
 74
0
 40
0
 40
0
 40
0
 40
0
 40
1
 40
1
 40
1
 40
1
 10
21.412499
 20
85.161909
 30
0.0
 10
20.833973
 20
85.161909
 30
0.0
 10
20.361275
 20
85.631079
 30
0.0
 10
20.361275
 20
86.213132
 30
0.0
  0
LWPOLYLINE
  5
289
100
AcDbEntity
  8
0
 62
7
100
AcDbPolyline
 90
1
 70
1
 10
35.201865
 20
87.222024
 30
0.0
  0
LWPOLYLINE
  5
28a
100
AcDbEntity
  8
0
 62
7
100
AcDbPolyline
 90
1
 70
1
 10
20.361275
 20
86.213132
 30
0.0
  0
ENDSEC
  0
SECTION
  2
OBJECTS
  0
DICTIONARY
  5
C
330
0
100
AcDbDictionary
  3
ACAD_GROUP
350
D
  3
ACAD_MLINESTYLE
350
17
  0
DICTIONARY
  5
D
330
C
100
AcDbDictionary
  0
DICTIONARY
  5
1A
330
C
100
AcDbDictionary
  0
DICTIONARY
  5
17
330
C
100
AcDbDictionary
  3
STANDARD
350
18
  0
DICTIONARY
  5
19
330
C
100
AcDbDictionary
  0
ENDSEC
  0
EOF
