<?xml version="1.0" encoding="UTF-8"?>
<svg id="Ebene_1" data-name="Ebene 1" xmlns="http://www.w3.org/2000/svg" width="185.14mm" height="92.49mm" viewBox="0 0 524.81 262.18">
  <defs>
    <style>
      .cls-1 {
        fill: #f0f;
      }

      .cls-2 {
        fill: none;
        stroke: blue;
        stroke-miterlimit: 10;
        stroke-width: .28px;
      }
    </style>
  </defs>
  <g id="cutting">
    <path id="deleteme" class="cls-2" d="M126,159.35c-23.09,0-41.81,18.72-41.81,41.81s18.72,41.81,41.81,41.81,41.81-18.72,41.81-41.81-18.72-41.81-41.81-41.81Zm0,76.54c-19.18,0-34.72-15.55-34.72-34.72s15.55-34.72,34.72-34.72,34.72,15.55,34.72,34.72-15.55,34.72-34.72,34.72h0Z"/>
    <path class="cls-2" d="M334.12,7.55c-1.1,0-1.98,.89-1.98,1.98V219.48h0v42.2h0v.18c14.38-13.29,30.2-25.04,46.22-34.29,12.4-7.16,25.41-13.36,38.47-18.39l.08-177.01c0-1.1,.89-1.98,1.99-1.98h51.86v-6.55c0-1.1,.89-1.99,1.99-1.99h51.93l-.04-14.09h-190.51Zm5.4,4.35c1.64,0,2.98,1.33,2.98,2.98s-1.33,2.98-2.98,2.98-2.98-1.33-2.98-2.98,1.33-2.98,2.98-2.98Zm0,231.1c-1.64,0-2.98-1.33-2.98-2.98s1.33-2.98,2.98-2.98,2.98,1.33,2.98,2.98-1.33,2.98-2.98,2.98Zm35.02-28.42c-19.18,0-34.72-15.55-34.72-34.72s15.55-34.72,34.72-34.72,34.72,15.55,34.72,34.72-15.55,34.72-34.72,34.72h0ZM515.46,18.02c-1.64,0-2.98-1.33-2.98-2.98s1.33-2.98,2.98-2.98,2.98,1.33,2.98,2.98-1.33,2.98-2.98,2.98Z"/>
    <path class="cls-2" d="M158.5,116.89l1.76-25.16h-48.63v28.2h6.37c1.1,0,1.99,.89,1.99,1.99l.07,18.43h45.3l42.78,3,3.77-20.74-51.58-3.61c-1.09-.08-1.92-1.03-1.84-2.12h.01Zm-31.08,10.44c-.78,0-1.42-.63-1.42-1.42s.63-1.42,1.42-1.42,1.42,.63,1.42,1.42-.63,1.42-1.42,1.42Zm0-5.67c-.78,0-1.42-.63-1.42-1.42s.63-1.42,1.42-1.42,1.42,.63,1.42,1.42-.63,1.42-1.42,1.42Zm0-5.67c-.78,0-1.42-.63-1.42-1.42s.63-1.42,1.42-1.42,1.42,.63,1.42,1.42-.63,1.42-1.42,1.42Zm0-5.67c-.78,0-1.42-.63-1.42-1.42s.63-1.42,1.42-1.42,1.42,.63,1.42,1.42-.63,1.42-1.42,1.42Zm0-5.67c-.78,0-1.42-.63-1.42-1.42s.63-1.42,1.42-1.42,1.42,.63,1.42,1.42-.63,1.42-1.42,1.42Zm5.67,22.68c-.78,0-1.42-.63-1.42-1.42s.63-1.42,1.42-1.42,1.42,.63,1.42,1.42-.63,1.42-1.42,1.42Zm0-5.67c-.78,0-1.42-.63-1.42-1.42s.63-1.42,1.42-1.42,1.42,.63,1.42,1.42-.63,1.42-1.42,1.42Zm0-5.67c-.78,0-1.42-.63-1.42-1.42s.63-1.42,1.42-1.42,1.42,.63,1.42,1.42-.63,1.42-1.42,1.42Zm0-5.67c-.78,0-1.42-.63-1.42-1.42s.63-1.42,1.42-1.42,1.42,.63,1.42,1.42-.63,1.42-1.42,1.42Zm0-5.67c-.78,0-1.42-.63-1.42-1.42s.63-1.42,1.42-1.42,1.42,.63,1.42,1.42-.63,1.42-1.42,1.42Zm5.67,22.68c-.78,0-1.42-.63-1.42-1.42s.63-1.42,1.42-1.42,1.42,.63,1.42,1.42-.63,1.42-1.42,1.42Zm0-5.67c-.78,0-1.42-.63-1.42-1.42s.63-1.42,1.42-1.42,1.42,.63,1.42,1.42-.63,1.42-1.42,1.42Zm0-5.67c-.78,0-1.42-.63-1.42-1.42s.63-1.42,1.42-1.42,1.42,.63,1.42,1.42-.63,1.42-1.42,1.42Zm0-5.67c-.78,0-1.42-.63-1.42-1.42s.63-1.42,1.42-1.42,1.42,.63,1.42,1.42-.63,1.42-1.42,1.42Zm0-5.67c-.78,0-1.42-.63-1.42-1.42s.63-1.42,1.42-1.42,1.42,.63,1.42,1.42-.63,1.42-1.42,1.42Zm5.67,22.68c-.78,0-1.42-.63-1.42-1.42s.63-1.42,1.42-1.42,1.42,.63,1.42,1.42-.63,1.42-1.42,1.42Zm0-5.67c-.78,0-1.42-.63-1.42-1.42s.63-1.42,1.42-1.42,1.42,.63,1.42,1.42-.63,1.42-1.42,1.42Zm0-5.67c-.78,0-1.42-.63-1.42-1.42s.63-1.42,1.42-1.42,1.42,.63,1.42,1.42-.63,1.42-1.42,1.42Zm0-5.67c-.78,0-1.42-.63-1.42-1.42s.63-1.42,1.42-1.42,1.42,.63,1.42,1.42-.63,1.42-1.42,1.42Zm0-5.67c-.78,0-1.42-.63-1.42-1.42s.63-1.42,1.42-1.42,1.42,.63,1.42,1.42-.63,1.42-1.42,1.42Zm5.67,22.68c-.78,0-1.42-.63-1.42-1.42s.63-1.42,1.42-1.42,1.42,.63,1.42,1.42-.63,1.42-1.42,1.42Zm0-5.67c-.78,0-1.42-.63-1.42-1.42s.63-1.42,1.42-1.42,1.42,.63,1.42,1.42-.63,1.42-1.42,1.42Zm0-5.67c-.78,0-1.42-.63-1.42-1.42s.63-1.42,1.42-1.42,1.42,.63,1.42,1.42-.63,1.42-1.42,1.42Zm0-5.67c-.78,0-1.42-.63-1.42-1.42s.63-1.42,1.42-1.42,1.42,.63,1.42,1.42-.63,1.42-1.42,1.42Zm0-5.67c-.78,0-1.42-.63-1.42-1.42s.63-1.42,1.42-1.42,1.42,.63,1.42,1.42-.63,1.42-1.42,1.42Zm49.34,24.45c1.64,0,2.98,1.33,2.98,2.98s-1.33,2.98-2.98,2.98-2.98-1.33-2.98-2.98,1.33-2.98,2.98-2.98Zm-32.81-2.19c1.64,0,2.98,1.33,2.98,2.98s-1.33,2.98-2.98,2.98-2.98-1.33-2.98-2.98,1.33-2.98,2.98-2.98Z"/>
    <path class="cls-2" d="M523.69,147.46V34.06l-15.86-.03-4.32,61.82c-.08,1.09-1.02,1.92-2.12,1.84l-78.9-5.46c-2.05-.14-2.41,2.86-.39,3.21l45.09,7.91c1.08,.19,1.8,1.22,1.61,2.3l-7.72,43.81h60.63c1.1,0,1.98-.89,1.98-1.98h0Zm-10.35-100.65c0-1.64,1.33-2.98,2.98-2.98s2.98,1.33,2.98,2.98-1.33,2.98-2.98,2.98-2.98-1.33-2.98-2.98Zm-2.86,42.07c0-1.64,1.33-2.98,2.98-2.98s2.98,1.33,2.98,2.98-1.33,2.98-2.98,2.98-2.98-1.33-2.98-2.98h0Z"/>
    <path id="deleteme-2" class="cls-2" d="M4.53,159.35c0,23.09,18.72,41.81,41.81,41.81s41.81-18.72,41.81-41.81-18.72-41.81-41.81-41.81S4.53,136.26,4.53,159.35h0Zm7.09,0c0-19.17,15.55-34.72,34.72-34.72s34.72,15.55,34.72,34.72-15.54,34.72-34.72,34.72-34.72-15.55-34.72-34.72h0Z"/>
    <path class="cls-2" d="M314.44,7.56H123.93l-.04,14.09h51.93c1.1,0,1.99,.89,1.99,1.99v6.55h51.86c1.1,0,1.99,.88,1.99,1.98l.08,177.01c13.06,5.03,26.07,11.23,38.47,18.39,16.02,9.25,31.84,21,46.22,34.29v-.18h0v-42.2h0V9.53c0-1.09-.88-1.98-1.98-1.98h0Zm-2.42,7.4c0,1.65-1.33,2.98-2.98,2.98s-2.98-1.33-2.98-2.98,1.34-2.98,2.98-2.98,2.98,1.33,2.98,2.98Zm-5.96,225.14c0-1.65,1.33-2.98,2.98-2.98s2.98,1.33,2.98,2.98-1.34,2.98-2.98,2.98-2.98-1.33-2.98-2.98Zm-66.76-60.16c0-19.17,15.55-34.72,34.72-34.72s34.72,15.55,34.72,34.72-15.54,34.72-34.72,34.72-34.72-15.55-34.72-34.72ZM130.12,15.04c0-1.65,1.33-2.98,2.98-2.98s2.98,1.33,2.98,2.98-1.34,2.98-2.98,2.98-2.98-1.33-2.98-2.98Z"/>
    <path class="cls-2" d="M116.79,58.36c.08,1.09-.75,2.04-1.84,2.12l-51.58,3.61,3.77,20.74,42.78-3h45.3l.07-18.43c0-1.1,.89-1.99,1.99-1.99h6.37v-28.2h-48.63l1.76,25.16h.01Zm29.65,8.95c0-.79,.63-1.42,1.42-1.42s1.42,.63,1.42,1.42-.64,1.42-1.42,1.42-1.42-.63-1.42-1.42Zm0-5.67c0-.79,.63-1.42,1.42-1.42s1.42,.63,1.42,1.42-.64,1.42-1.42,1.42-1.42-.63-1.42-1.42Zm0-5.67c0-.79,.63-1.42,1.42-1.42s1.42,.63,1.42,1.42-.64,1.42-1.42,1.42-1.42-.63-1.42-1.42Zm0-5.67c0-.79,.63-1.42,1.42-1.42s1.42,.63,1.42,1.42-.64,1.42-1.42,1.42-1.42-.63-1.42-1.42Zm0-5.67c0-.79,.63-1.42,1.42-1.42s1.42,.63,1.42,1.42-.64,1.42-1.42,1.42-1.42-.63-1.42-1.42Zm-5.67,22.68c0-.79,.63-1.42,1.42-1.42s1.42,.63,1.42,1.42-.64,1.42-1.42,1.42-1.42-.63-1.42-1.42Zm0-5.67c0-.79,.63-1.42,1.42-1.42s1.42,.63,1.42,1.42-.64,1.42-1.42,1.42-1.42-.63-1.42-1.42Zm0-5.67c0-.79,.63-1.42,1.42-1.42s1.42,.63,1.42,1.42-.64,1.42-1.42,1.42-1.42-.63-1.42-1.42Zm0-5.67c0-.79,.63-1.42,1.42-1.42s1.42,.63,1.42,1.42-.64,1.42-1.42,1.42-1.42-.63-1.42-1.42Zm0-5.67c0-.79,.63-1.42,1.42-1.42s1.42,.63,1.42,1.42-.64,1.42-1.42,1.42-1.42-.63-1.42-1.42Zm-5.67,22.68c0-.79,.63-1.42,1.42-1.42s1.42,.63,1.42,1.42-.64,1.42-1.42,1.42-1.42-.63-1.42-1.42Zm0-5.67c0-.79,.63-1.42,1.42-1.42s1.42,.63,1.42,1.42-.64,1.42-1.42,1.42-1.42-.63-1.42-1.42Zm0-5.67c0-.79,.63-1.42,1.42-1.42s1.42,.63,1.42,1.42-.64,1.42-1.42,1.42-1.42-.63-1.42-1.42Zm0-5.67c0-.79,.63-1.42,1.42-1.42s1.42,.63,1.42,1.42-.64,1.42-1.42,1.42-1.42-.63-1.42-1.42Zm0-5.67c0-.79,.63-1.42,1.42-1.42s1.42,.63,1.42,1.42-.64,1.42-1.42,1.42-1.42-.63-1.42-1.42Zm-5.67,22.68c0-.79,.63-1.42,1.42-1.42s1.42,.63,1.42,1.42-.64,1.42-1.42,1.42-1.42-.63-1.42-1.42Zm0-5.67c0-.79,.63-1.42,1.42-1.42s1.42,.63,1.42,1.42-.64,1.42-1.42,1.42-1.42-.63-1.42-1.42Zm0-5.67c0-.79,.63-1.42,1.42-1.42s1.42,.63,1.42,1.42-.64,1.42-1.42,1.42-1.42-.63-1.42-1.42Zm0-5.67c0-.79,.63-1.42,1.42-1.42s1.42,.63,1.42,1.42-.64,1.42-1.42,1.42-1.42-.63-1.42-1.42Zm0-5.67c0-.79,.63-1.42,1.42-1.42s1.42,.63,1.42,1.42-.64,1.42-1.42,1.42-1.42-.63-1.42-1.42Zm-5.67,22.68c0-.79,.63-1.42,1.42-1.42s1.42,.63,1.42,1.42-.64,1.42-1.42,1.42-1.42-.63-1.42-1.42Zm0-5.67c0-.79,.63-1.42,1.42-1.42s1.42,.63,1.42,1.42-.64,1.42-1.42,1.42-1.42-.63-1.42-1.42Zm0-5.67c0-.79,.63-1.42,1.42-1.42s1.42,.63,1.42,1.42-.64,1.42-1.42,1.42-1.42-.63-1.42-1.42Zm0-5.67c0-.79,.63-1.42,1.42-1.42s1.42,.63,1.42,1.42-.64,1.42-1.42,1.42-1.42-.63-1.42-1.42Zm0-5.67c0-.79,.63-1.42,1.42-1.42s1.42,.63,1.42,1.42-.64,1.42-1.42,1.42-1.42-.63-1.42-1.42Zm-44.94,28.85c0,1.65-1.33,2.98-2.98,2.98s-2.98-1.33-2.98-2.98,1.34-2.98,2.98-2.98,2.98,1.33,2.98,2.98Zm32.81-2.19c0,1.65-1.33,2.98-2.98,2.98s-2.98-1.33-2.98-2.98,1.34-2.98,2.98-2.98,2.98,1.33,2.98,2.98Z"/>
    <path class="cls-2" d="M2.12,7.55c-1.09,0-1.98,.88-1.98,1.98v60.63l43.81-7.72c1.08-.19,2.11,.53,2.3,1.61l7.91,45.09c.35,2.02,3.35,1.66,3.21-.39l-5.46-78.9c-.08-1.1,.75-2.04,1.84-2.12l61.82-4.32-.03-15.86H2.12Zm97.66,7.37c0-1.65,1.33-2.98,2.98-2.98s2.98,1.33,2.98,2.98-1.34,2.98-2.98,2.98-2.98-1.33-2.98-2.98Zm-42.07,2.86c0-1.65,1.33-2.98,2.98-2.98s2.98,1.33,2.98,2.98-1.34,2.98-2.98,2.98-2.98-1.33-2.98-2.98Z"/>
  </g>
  <g id="area_engraving" data-name="area engraving">
    <polygon class="cls-1" points="275.59 17.62 275.59 67 294.78 67 294.78 65.66 276.93 65.66 276.93 17.62 275.59 17.62"/>
    <polygon class="cls-1" points="240.68 49.43 252.33 26.28 263.97 49.43 265.48 49.43 253.08 24.78 265.48 0 263.98 0 241.02 45.75 241.02 0 239.68 0 239.68 49.43 240.68 49.43"/>
    <rect class="cls-1" x="239.46" y="79.02" width="64.01" height="1.34"/>
    <path class="cls-1" d="M347.6,31.01c-13.61,0-24.68,11.07-24.68,24.68s11.07,24.68,24.68,24.68,24.68-11.07,24.68-24.68-11.07-24.68-24.68-24.68Zm0,48.01c-12.87,0-23.33-10.47-23.33-23.33s10.47-23.33,23.33-23.33,23.33,10.47,23.33,23.33-10.47,23.33-23.33,23.33Z"/>
    <path class="cls-1" d="M406.99,44.75V18.51h-25.35v49.4h1.34v-23.17h11.36l11.65,23.17h1.5l-11.65-23.17h11.15Zm-24-1.32V19.85h22.66v23.55h-22.66v.02Z"/>
  </g>
</svg>