<?xml version="1.0" encoding="UTF-8"?>
<svg xmlns="http://www.w3.org/2000/svg" width="827.77" height="262.19" viewBox="0 0 827.77 262.19">
  <defs>
    <style>
      .cls-1 {
        fill: none;
        stroke: blue;
        stroke-miterlimit: 10;
        stroke-width: .28px;
      }

      .cls-2 {
        fill: red;
      }
    </style>
  </defs>
  <g id="Ebene_1" data-name="Ebene 1">
    <g>
      <g id="CutOuts">
        <path id="deleteme" class="cls-1" d="M596.17,134.62c-23.09,0-41.81,18.72-41.81,41.81s18.72,41.81,41.81,41.81,41.81-18.72,41.81-41.81-18.72-41.81-41.81-41.81Zm0,76.54c-19.18,0-34.72-15.55-34.72-34.72s15.55-34.72,34.72-34.72,34.72,15.55,34.72,34.72-15.55,34.72-34.72,34.72h0Z"/>
      </g>
      <g id="PCB_holes" data-name="PCB holes">
        <g id="_D_case" data-name=" D case">
          <g>
            <path class="cls-1" d="M462.12,7.55c-1.1,0-1.98,.89-1.98,1.98V219.49h0v42.2h0v.18c14.38-13.29,30.2-25.04,46.22-34.29,12.4-7.16,25.41-13.36,38.47-18.39l.08-177.02c0-1.1,.89-1.98,1.99-1.98h51.86v-6.55c0-1.1,.89-1.99,1.99-1.99h51.93l-.04-14.09h-190.52Zm5.4,4.37c1.64,0,2.98,1.33,2.98,2.98s-1.33,2.98-2.98,2.98-2.98-1.33-2.98-2.98,1.33-2.98,2.98-2.98Zm0,231.11c-1.64,0-2.98-1.33-2.98-2.98s1.33-2.98,2.98-2.98,2.98,1.33,2.98,2.98-1.33,2.98-2.98,2.98Zm35.02-28.42c-19.18,0-34.72-15.55-34.72-34.72s15.55-34.72,34.72-34.72,34.72,15.55,34.72,34.72-15.55,34.72-34.72,34.72h0ZM643.47,18.02c-1.64,0-2.98-1.33-2.98-2.98s1.33-2.98,2.98-2.98,2.98,1.33,2.98,2.98-1.33,2.98-2.98,2.98Z"/>
            <path class="cls-1" d="M705.07,188.98l1.76-25.16h-48.63v28.2h6.37c1.1,0,1.99,.89,1.99,1.99l.07,18.43h45.3l42.78,3,3.77-20.74-51.58-3.61c-1.09-.08-1.92-1.03-1.84-2.12h.01Zm-31.08,10.42c-.78,0-1.42-.63-1.42-1.42s.63-1.42,1.42-1.42,1.42,.63,1.42,1.42-.63,1.42-1.42,1.42Zm0-5.67c-.78,0-1.42-.63-1.42-1.42s.63-1.42,1.42-1.42,1.42,.63,1.42,1.42-.63,1.42-1.42,1.42Zm0-5.67c-.78,0-1.42-.63-1.42-1.42s.63-1.42,1.42-1.42,1.42,.63,1.42,1.42-.63,1.42-1.42,1.42Zm0-5.67c-.78,0-1.42-.63-1.42-1.42s.63-1.42,1.42-1.42,1.42,.63,1.42,1.42-.63,1.42-1.42,1.42Zm0-5.67c-.78,0-1.42-.63-1.42-1.42s.63-1.42,1.42-1.42,1.42,.63,1.42,1.42-.63,1.42-1.42,1.42Zm5.67,22.68c-.78,0-1.42-.63-1.42-1.42s.63-1.42,1.42-1.42,1.42,.63,1.42,1.42-.63,1.42-1.42,1.42Zm0-5.67c-.78,0-1.42-.63-1.42-1.42s.63-1.42,1.42-1.42,1.42,.63,1.42,1.42-.63,1.42-1.42,1.42Zm0-5.67c-.78,0-1.42-.63-1.42-1.42s.63-1.42,1.42-1.42,1.42,.63,1.42,1.42-.63,1.42-1.42,1.42Zm0-5.67c-.78,0-1.42-.63-1.42-1.42s.63-1.42,1.42-1.42,1.42,.63,1.42,1.42-.63,1.42-1.42,1.42Zm0-5.67c-.78,0-1.42-.63-1.42-1.42s.63-1.42,1.42-1.42,1.42,.63,1.42,1.42-.63,1.42-1.42,1.42Zm5.67,22.68c-.78,0-1.42-.63-1.42-1.42s.63-1.42,1.42-1.42,1.42,.63,1.42,1.42-.63,1.42-1.42,1.42Zm0-5.67c-.78,0-1.42-.63-1.42-1.42s.63-1.42,1.42-1.42,1.42,.63,1.42,1.42-.63,1.42-1.42,1.42Zm0-5.67c-.78,0-1.42-.63-1.42-1.42s.63-1.42,1.42-1.42,1.42,.63,1.42,1.42-.63,1.42-1.42,1.42Zm0-5.67c-.78,0-1.42-.63-1.42-1.42s.63-1.42,1.42-1.42,1.42,.63,1.42,1.42-.63,1.42-1.42,1.42Zm0-5.67c-.78,0-1.42-.63-1.42-1.42s.63-1.42,1.42-1.42,1.42,.63,1.42,1.42-.63,1.42-1.42,1.42Zm5.67,22.68c-.78,0-1.42-.63-1.42-1.42s.63-1.42,1.42-1.42,1.42,.63,1.42,1.42-.63,1.42-1.42,1.42Zm0-5.67c-.78,0-1.42-.63-1.42-1.42s.63-1.42,1.42-1.42,1.42,.63,1.42,1.42-.63,1.42-1.42,1.42Zm0-5.67c-.78,0-1.42-.63-1.42-1.42s.63-1.42,1.42-1.42,1.42,.63,1.42,1.42-.63,1.42-1.42,1.42Zm0-5.67c-.78,0-1.42-.63-1.42-1.42s.63-1.42,1.42-1.42,1.42,.63,1.42,1.42-.63,1.42-1.42,1.42Zm0-5.67c-.78,0-1.42-.63-1.42-1.42s.63-1.42,1.42-1.42,1.42,.63,1.42,1.42-.63,1.42-1.42,1.42Zm5.67,22.68c-.78,0-1.42-.63-1.42-1.42s.63-1.42,1.42-1.42,1.42,.63,1.42,1.42-.63,1.42-1.42,1.42Zm0-5.67c-.78,0-1.42-.63-1.42-1.42s.63-1.42,1.42-1.42,1.42,.63,1.42,1.42-.63,1.42-1.42,1.42Zm0-5.67c-.78,0-1.42-.63-1.42-1.42s.63-1.42,1.42-1.42,1.42,.63,1.42,1.42-.63,1.42-1.42,1.42Zm0-5.67c-.78,0-1.42-.63-1.42-1.42s.63-1.42,1.42-1.42,1.42,.63,1.42,1.42-.63,1.42-1.42,1.42Zm0-5.67c-.78,0-1.42-.63-1.42-1.42s.63-1.42,1.42-1.42,1.42,.63,1.42,1.42-.63,1.42-1.42,1.42Zm49.34,24.45c1.64,0,2.98,1.33,2.98,2.98s-1.33,2.98-2.98,2.98-2.98-1.33-2.98-2.98,1.33-2.98,2.98-2.98Zm-32.81-2.19c1.64,0,2.98,1.33,2.98,2.98s-1.33,2.98-2.98,2.98-2.98-1.33-2.98-2.98,1.33-2.98,2.98-2.98Z"/>
            <path class="cls-1" d="M825.64,7.55h-113.41l-.03,15.86,61.82,4.32c1.09,.08,1.92,1.02,1.84,2.12l-5.46,78.9c-.14,2.05,2.86,2.41,3.21,.39l7.91-45.09c.19-1.08,1.22-1.8,2.3-1.61l43.81,7.72V9.53c0-1.1-.89-1.98-1.98-1.98h0Zm-100.64,10.35c-1.64,0-2.98-1.33-2.98-2.98s1.33-2.98,2.98-2.98,2.98,1.33,2.98,2.98-1.33,2.98-2.98,2.98Zm42.07,2.86c-1.64,0-2.98-1.33-2.98-2.98s1.33-2.98,2.98-2.98,2.98,1.33,2.98,2.98-1.33,2.98-2.98,2.98Z"/>
          </g>
        </g>
      </g>
    </g>
    <g>
      <g id="CutOuts-2">
        <path id="deleteme-2" class="cls-1" d="M189.79,176.43c0,23.09,18.72,41.81,41.81,41.81s41.81-18.72,41.81-41.81-18.72-41.81-41.81-41.81-41.81,18.72-41.81,41.81h0Zm7.09,0c0-19.17,15.55-34.72,34.72-34.72s34.72,15.55,34.72,34.72-15.54,34.72-34.72,34.72-34.72-15.55-34.72-34.72h0Z"/>
      </g>
      <g id="PCB_holes-2" data-name="PCB holes-2">
        <g id="_D_case-2" data-name=" D case-2">
          <g>
            <path class="cls-1" d="M365.65,7.56H175.13l-.04,14.09h51.93c1.1,0,1.99,.89,1.99,1.99v6.55h51.86c1.1,0,1.99,.88,1.99,1.98l.08,177.02c13.06,5.03,26.07,11.23,38.47,18.39,16.02,9.25,31.84,21,46.22,34.29v-.18h0v-42.2h0V9.53c0-1.09-.88-1.98-1.98-1.98h0Zm-2.42,7.38c0,1.65-1.33,2.98-2.98,2.98s-2.98-1.33-2.98-2.98,1.34-2.98,2.98-2.98,2.98,1.33,2.98,2.98Zm-5.96,225.15c0-1.65,1.33-2.98,2.98-2.98s2.98,1.33,2.98,2.98-1.34,2.98-2.98,2.98-2.98-1.33-2.98-2.98Zm-66.76-60.16c0-19.17,15.55-34.72,34.72-34.72s34.72,15.55,34.72,34.72-15.54,34.72-34.72,34.72-34.72-15.55-34.72-34.72ZM181.32,15.04c0-1.65,1.33-2.98,2.98-2.98s2.98,1.33,2.98,2.98-1.34,2.98-2.98,2.98-2.98-1.33-2.98-2.98Z"/>
            <path class="cls-1" d="M122.71,188.97c.08,1.09-.75,2.04-1.84,2.12l-51.58,3.61,3.77,20.74,42.78-3h45.3l.07-18.43c0-1.1,.89-1.99,1.99-1.99h6.37v-28.2h-48.63l1.76,25.16h0Zm29.65,8.97c0-.79,.63-1.42,1.42-1.42s1.42,.63,1.42,1.42-.64,1.42-1.42,1.42-1.42-.63-1.42-1.42Zm0-5.67c0-.79,.63-1.42,1.42-1.42s1.42,.63,1.42,1.42-.64,1.42-1.42,1.42-1.42-.63-1.42-1.42Zm0-5.67c0-.79,.63-1.42,1.42-1.42s1.42,.63,1.42,1.42-.64,1.42-1.42,1.42-1.42-.63-1.42-1.42Zm0-5.67c0-.79,.63-1.42,1.42-1.42s1.42,.63,1.42,1.42-.64,1.42-1.42,1.42-1.42-.63-1.42-1.42Zm0-5.67c0-.79,.63-1.42,1.42-1.42s1.42,.63,1.42,1.42-.64,1.42-1.42,1.42-1.42-.63-1.42-1.42Zm-5.67,22.68c0-.79,.63-1.42,1.42-1.42s1.42,.63,1.42,1.42-.64,1.42-1.42,1.42-1.42-.63-1.42-1.42Zm0-5.67c0-.79,.63-1.42,1.42-1.42s1.42,.63,1.42,1.42-.64,1.42-1.42,1.42-1.42-.63-1.42-1.42Zm0-5.67c0-.79,.63-1.42,1.42-1.42s1.42,.63,1.42,1.42-.64,1.42-1.42,1.42-1.42-.63-1.42-1.42Zm0-5.67c0-.79,.63-1.42,1.42-1.42s1.42,.63,1.42,1.42-.64,1.42-1.42,1.42-1.42-.63-1.42-1.42Zm0-5.67c0-.79,.63-1.42,1.42-1.42s1.42,.63,1.42,1.42-.64,1.42-1.42,1.42-1.42-.63-1.42-1.42Zm-5.67,22.68c0-.79,.63-1.42,1.42-1.42s1.42,.63,1.42,1.42-.64,1.42-1.42,1.42-1.42-.63-1.42-1.42Zm0-5.67c0-.79,.63-1.42,1.42-1.42s1.42,.63,1.42,1.42-.64,1.42-1.42,1.42-1.42-.63-1.42-1.42Zm0-5.67c0-.79,.63-1.42,1.42-1.42s1.42,.63,1.42,1.42-.64,1.42-1.42,1.42-1.42-.63-1.42-1.42Zm0-5.67c0-.79,.63-1.42,1.42-1.42s1.42,.63,1.42,1.42-.64,1.42-1.42,1.42-1.42-.63-1.42-1.42Zm0-5.67c0-.79,.63-1.42,1.42-1.42s1.42,.63,1.42,1.42-.64,1.42-1.42,1.42-1.42-.63-1.42-1.42Zm-5.67,22.68c0-.79,.63-1.42,1.42-1.42s1.42,.63,1.42,1.42-.64,1.42-1.42,1.42-1.42-.63-1.42-1.42Zm0-5.67c0-.79,.63-1.42,1.42-1.42s1.42,.63,1.42,1.42-.64,1.42-1.42,1.42-1.42-.63-1.42-1.42Zm0-5.67c0-.79,.63-1.42,1.42-1.42s1.42,.63,1.42,1.42-.64,1.42-1.42,1.42-1.42-.63-1.42-1.42Zm0-5.67c0-.79,.63-1.42,1.42-1.42s1.42,.63,1.42,1.42-.64,1.42-1.42,1.42-1.42-.63-1.42-1.42Zm0-5.67c0-.79,.63-1.42,1.42-1.42s1.42,.63,1.42,1.42-.64,1.42-1.42,1.42-1.42-.63-1.42-1.42Zm-5.67,22.68c0-.79,.63-1.42,1.42-1.42s1.42,.63,1.42,1.42-.64,1.42-1.42,1.42-1.42-.63-1.42-1.42Zm0-5.67c0-.79,.63-1.42,1.42-1.42s1.42,.63,1.42,1.42-.64,1.42-1.42,1.42-1.42-.63-1.42-1.42Zm0-5.67c0-.79,.63-1.42,1.42-1.42s1.42,.63,1.42,1.42-.64,1.42-1.42,1.42-1.42-.63-1.42-1.42Zm0-5.67c0-.79,.63-1.42,1.42-1.42s1.42,.63,1.42,1.42-.64,1.42-1.42,1.42-1.42-.63-1.42-1.42Zm0-5.67c0-.79,.63-1.42,1.42-1.42s1.42,.63,1.42,1.42-.64,1.42-1.42,1.42-1.42-.63-1.42-1.42Zm-44.94,28.85c0,1.65-1.33,2.98-2.98,2.98s-2.98-1.33-2.98-2.98,1.34-2.98,2.98-2.98,2.98,1.33,2.98,2.98Zm32.81-2.19c0,1.65-1.33,2.98-2.98,2.98s-2.98-1.33-2.98-2.98,1.34-2.98,2.98-2.98,2.98,1.33,2.98,2.98Z"/>
            <path class="cls-1" d="M2.12,7.55c-1.09,0-1.98,.88-1.98,1.98v60.63l43.81-7.72c1.08-.19,2.11,.53,2.3,1.61l7.91,45.09c.35,2.02,3.35,1.66,3.21-.39l-5.46-78.9c-.08-1.1,.75-2.04,1.84-2.12l61.82-4.32-.03-15.86H2.12Zm97.67,7.37c0-1.65,1.33-2.98,2.98-2.98s2.98,1.33,2.98,2.98-1.34,2.98-2.98,2.98-2.98-1.33-2.98-2.98Zm-42.07,2.86c0-1.65,1.33-2.98,2.98-2.98s2.98,1.33,2.98,2.98-1.34,2.98-2.98,2.98-2.98-1.33-2.98-2.98Z"/>
          </g>
        </g>
      </g>
    </g>
  </g>
  <g id="Etching">
    <polygon class="cls-2" points="326.79 17.62 326.79 67 345.99 67 345.99 65.66 328.13 65.66 328.13 17.62 326.79 17.62"/>
    <polygon class="cls-2" points="291.88 49.43 303.53 26.28 315.17 49.43 316.68 49.43 304.28 24.78 316.68 0 315.18 0 292.22 45.75 292.22 0 290.88 0 290.88 49.43 291.88 49.43"/>
    <rect class="cls-2" x="290.66" y="79.02" width="64.01" height="1.34"/>
    <path class="cls-2" d="M475.6,31.01c-13.61,0-24.68,11.07-24.68,24.68s11.07,24.68,24.68,24.68,24.68-11.07,24.68-24.68-11.07-24.68-24.68-24.68Zm0,48.01c-12.87,0-23.33-10.47-23.33-23.33s10.47-23.33,23.33-23.33,23.33,10.47,23.33,23.33-10.47,23.33-23.33,23.33Z"/>
    <path class="cls-2" d="M534.99,44.75V18.51h-25.35v49.4h1.34v-23.17h11.36l11.65,23.17h1.5l-11.65-23.17h11.14Zm-24-1.34V19.85h22.66v23.55h-22.66Z"/>
  </g>
</svg>