  0
SECTION
  2
HEADER
  9
$ACADVER
  1
AC1032
  9
$ACADMAINTVER
 90
      228
  9
$DWGCODEPAGE
  3
ANSI_1252
  9
$REQUIREDVERSIONS
160
                 0
  9
$INSBASE
 10
0.0
 20
0.0
 30
0.0
  9
$EXTMIN
 10
1.000000000000000E+20
 20
1.000000000000000E+20
 30
1.000000000000000E+20
  9
$EXTMAX
 10
-1.000000000000000E+20
 20
-1.000000000000000E+20
 30
-1.000000000000000E+20
  9
$LIMMIN
 10
0.0
 20
0.0
  9
$LIMMAX
 10
12.0
 20
9.0
  9
$ORTHOMODE
 70
     0
  9
$REGENMODE
 70
     1
  9
$FILLMODE
 70
     1
  9
$QTEXTMODE
 70
     0
  9
$MIRRTEXT
 70
     0
  9
$LTSCALE
 40
1.0
  9
$ATTMODE
 70
     1
  9
$TEXTSIZE
 40
0.2
  9
$TRACEWID
 40
0.05
  9
$TEXTSTYLE
  7
Standard
  9
$CLAYER
  8
0
  9
$CELTYPE
  6
ByLayer
  9
$CECOLOR
 62
   256
  9
$CELTSCALE
 40
1.0
  9
$DISPSILH
 70
     0
  9
$DIMSCALE
 40
1.0
  9
$DIMASZ
 40
0.18
  9
$DIMEXO
 40
0.0625
  9
$DIMDLI
 40
0.38
  9
$DIMRND
 40
0.0
  9
$DIMDLE
 40
0.0
  9
$DIMEXE
 40
0.18
  9
$DIMTP
 40
0.0
  9
$DIMTM
 40
0.0
  9
$DIMTXT
 40
0.18
  9
$DIMCEN
 40
0.09
  9
$DIMTSZ
 40
0.0
  9
$DIMTOL
 70
     0
  9
$DIMLIM
 70
     0
  9
$DIMTIH
 70
     1
  9
$DIMTOH
 70
     1
  9
$DIMSE1
 70
     0
  9
$DIMSE2
 70
     0
  9
$DIMTAD
 70
     0
  9
$DIMZIN
 70
     0
  9
$DIMBLK
  1

  9
$DIMASO
 70
     1
  9
$DIMSHO
 70
     1
  9
$DIMPOST
  1

  9
$DIMAPOST
  1

  9
$DIMALT
 70
     0
  9
$DIMALTD
 70
     2
  9
$DIMALTF
 40
25.4
  9
$DIMLFAC
 40
1.0
  9
$DIMTOFL
 70
     0
  9
$DIMTVP
 40
0.0
  9
$DIMTIX
 70
     0
  9
$DIMSOXD
 70
     0
  9
$DIMSAH
 70
     0
  9
$DIMBLK1
  1

  9
$DIMBLK2
  1

  9
$DIMSTYLE
  2
Standard
  9
$DIMCLRD
 70
     0
  9
$DIMCLRE
 70
     0
  9
$DIMCLRT
 70
     0
  9
$DIMTFAC
 40
1.0
  9
$DIMGAP
 40
0.09
  9
$DIMJUST
 70
     0
  9
$DIMSD1
 70
     0
  9
$DIMSD2
 70
     0
  9
$DIMTOLJ
 70
     1
  9
$DIMTZIN
 70
     0
  9
$DIMALTZ
 70
     0
  9
$DIMALTTZ
 70
     0
  9
$DIMUPT
 70
     0
  9
$DIMDEC
 70
     4
  9
$DIMTDEC
 70
     4
  9
$DIMALTU
 70
     2
  9
$DIMALTTD
 70
     2
  9
$DIMTXSTY
  7
Standard
  9
$DIMAUNIT
 70
     0
  9
$DIMADEC
 70
     0
  9
$DIMALTRND
 40
0.0
  9
$DIMAZIN
 70
     0
  9
$DIMDSEP
 70
    46
  9
$DIMATFIT
 70
     3
  9
$DIMFRAC
 70
     0
  9
$DIMLDRBLK
  1

  9
$DIMLUNIT
 70
     2
  9
$DIMLWD
 70
    -2
  9
$DIMLWE
 70
    -2
  9
$DIMTMOVE
 70
     0
  9
$DIMFXL
 40
1.0
  9
$DIMFXLON
 70
     0
  9
$DIMJOGANG
 40
0.7853981633974483
  9
$DIMTFILL
 70
     0
  9
$DIMTFILLCLR
 70
     0
  9
$DIMARCSYM
 70
     0
  9
$DIMLTYPE
  6

  9
$DIMLTEX1
  6

  9
$DIMLTEX2
  6

  9
$DIMTXTDIRECTION
 70
     0
  9
$LUNITS
 70
     2
  9
$LUPREC
 70
     4
  9
$SKETCHINC
 40
0.1
  9
$FILLETRAD
 40
0.0
  9
$AUNITS
 70
     0
  9
$AUPREC
 70
     0
  9
$MENU
  1
.
  9
$ELEVATION
 40
0.0
  9
$PELEVATION
 40
0.0
  9
$THICKNESS
 40
0.0
  9
$LIMCHECK
 70
     0
  9
$CHAMFERA
 40
0.0
  9
$CHAMFERB
 40
0.0
  9
$CHAMFERC
 40
0.0
  9
$CHAMFERD
 40
0.0
  9
$SKPOLY
 70
     0
  9
$TDCREATE
 40
2459814.967337963
  9
$TDUCREATE
 40
2459814.884004630
  9
$TDUPDATE
 40
2459814.967337963
  9
$TDUUPDATE
 40
2459814.884004630
  9
$TDINDWG
 40
0.0000000000
  9
$TDUSRTIMER
 40
0.0000000000
  9
$USRTIMER
 70
     1
  9
$ANGBASE
 50
0.0
  9
$ANGDIR
 70
     0
  9
$PDMODE
 70
     0
  9
$PDSIZE
 40
0.0
  9
$PLINEWID
 40
0.0
  9
$SPLFRAME
 70
     0
  9
$SPLINETYPE
 70
     6
  9
$SPLINESEGS
 70
     8
  9
$HANDSEED
  5
CE
  9
$SURFTAB1
 70
     6
  9
$SURFTAB2
 70
     6
  9
$SURFTYPE
 70
     6
  9
$SURFU
 70
     6
  9
$SURFV
 70
     6
  9
$UCSBASE
  2

  9
$UCSNAME
  2

  9
$UCSORG
 10
0.0
 20
0.0
 30
0.0
  9
$UCSXDIR
 10
1.0
 20
0.0
 30
0.0
  9
$UCSYDIR
 10
0.0
 20
1.0
 30
0.0
  9
$UCSORTHOREF
  2

  9
$UCSORTHOVIEW
 70
     0
  9
$UCSORGTOP
 10
0.0
 20
0.0
 30
0.0
  9
$UCSORGBOTTOM
 10
0.0
 20
0.0
 30
0.0
  9
$UCSORGLEFT
 10
0.0
 20
0.0
 30
0.0
  9
$UCSORGRIGHT
 10
0.0
 20
0.0
 30
0.0
  9
$UCSORGFRONT
 10
0.0
 20
0.0
 30
0.0
  9
$UCSORGBACK
 10
0.0
 20
0.0
 30
0.0
  9
$PUCSBASE
  2

  9
$PUCSNAME
  2

  9
$PUCSORG
 10
0.0
 20
0.0
 30
0.0
  9
$PUCSXDIR
 10
1.0
 20
0.0
 30
0.0
  9
$PUCSYDIR
 10
0.0
 20
1.0
 30
0.0
  9
$PUCSORTHOREF
  2

  9
$PUCSORTHOVIEW
 70
     0
  9
$PUCSORGTOP
 10
0.0
 20
0.0
 30
0.0
  9
$PUCSORGBOTTOM
 10
0.0
 20
0.0
 30
0.0
  9
$PUCSORGLEFT
 10
0.0
 20
0.0
 30
0.0
  9
$PUCSORGRIGHT
 10
0.0
 20
0.0
 30
0.0
  9
$PUCSORGFRONT
 10
0.0
 20
0.0
 30
0.0
  9
$PUCSORGBACK
 10
0.0
 20
0.0
 30
0.0
  9
$USERI1
 70
     0
  9
$USERI2
 70
     0
  9
$USERI3
 70
     0
  9
$USERI4
 70
     0
  9
$USERI5
 70
     0
  9
$USERR1
 40
0.0
  9
$USERR2
 40
0.0
  9
$USERR3
 40
0.0
  9
$USERR4
 40
0.0
  9
$USERR5
 40
0.0
  9
$WORLDVIEW
 70
     1
  9
$SHADEDGE
 70
     3
  9
$SHADEDIF
 70
    70
  9
$TILEMODE
 70
     1
  9
$MAXACTVP
 70
    64
  9
$PINSBASE
 10
0.0
 20
0.0
 30
0.0
  9
$PLIMCHECK
 70
     0
  9
$PEXTMIN
 10
1.000000000000000E+20
 20
1.000000000000000E+20
 30
1.000000000000000E+20
  9
$PEXTMAX
 10
-1.000000000000000E+20
 20
-1.000000000000000E+20
 30
-1.000000000000000E+20
  9
$PLIMMIN
 10
0.0
 20
0.0
  9
$PLIMMAX
 10
12.0
 20
9.0
  9
$UNITMODE
 70
     0
  9
$VISRETAIN
 70
     1
  9
$PLINEGEN
 70
     0
  9
$PSLTSCALE
 70
     1
  9
$TREEDEPTH
 70
  3020
  9
$CMLSTYLE
  2
Standard
  9
$CMLJUST
 70
     0
  9
$CMLSCALE
 40
1.0
  9
$PROXYGRAPHICS
 70
     1
  9
$MEASUREMENT
 70
     0
  9
$CELWEIGHT
370
    -1
  9
$ENDCAPS
280
     0
  9
$JOINSTYLE
280
     0
  9
$LWDISPLAY
290
     1
  9
$INSUNITS
 70
     4
  9
$HYPERLINKBASE
  1

  9
$STYLESHEET
  1

  9
$XEDIT
290
     1
  9
$CEPSNTYPE
380
     0
  9
$PSTYLEMODE
290
     1
  9
$FINGERPRINTGUID
  2
{DA9CF9C2-A710-1446-8181-215FC986A6D1}
  9
$VERSIONGUID
  2
{0E847043-510A-B441-B87C-ECBD8E8E110D}
  9
$EXTNAMES
290
     1
  9
$PSVPSCALE
 40
0.0
  9
$OLESTARTUP
290
     0
  9
$SORTENTS
280
   127
  9
$INDEXCTL
280
     0
  9
$HIDETEXT
280
     1
  9
$XCLIPFRAME
280
     2
  9
$HALOGAP
280
     0
  9
$OBSCOLOR
 70
   257
  9
$OBSLTYPE
280
     0
  9
$INTERSECTIONDISPLAY
280
     0
  9
$INTERSECTIONCOLOR
 70
   257
  9
$DIMASSOC
280
     2
  9
$PROJECTNAME
  1

  9
$CAMERADISPLAY
290
     0
  9
$LENSLENGTH
 40
50.0
  9
$CAMERAHEIGHT
 40
0.0
  9
$STEPSPERSEC
 40
2.0
  9
$STEPSIZE
 40
6.0
  9
$3DDWFPREC
 40
2.0
  9
$PSOLWIDTH
 40
0.25
  9
$PSOLHEIGHT
 40
4.0
  9
$LOFTANG1
 40
1.570796326794896
  9
$LOFTANG2
 40
1.570796326794896
  9
$LOFTMAG1
 40
0.0
  9
$LOFTMAG2
 40
0.0
  9
$LOFTPARAM
 70
     7
  9
$LOFTNORMALS
280
     1
  9
$LATITUDE
 40
37.795
  9
$LONGITUDE
 40
-122.394
  9
$NORTHDIRECTION
 40
0.0
  9
$TIMEZONE
 70
 -8000
  9
$LIGHTGLYPHDISPLAY
280
     1
  9
$TILEMODELIGHTSYNCH
280
     1
  9
$CMATERIAL
347
11
  9
$SOLIDHIST
280
     0
  9
$SHOWHIST
280
     1
  9
$DWFFRAME
280
     2
  9
$DGNFRAME
280
     0
  9
$REALWORLDSCALE
290
     1
  9
$INTERFERECOLOR
 62
     1
  9
$INTERFEREOBJVS
345
33
  9
$INTERFEREVPVS
346
30
  9
$CSHADOW
280
     0
  9
$SHADOWPLANELOCATION
 40
0.0
  0
ENDSEC
  0
SECTION
  2
CLASSES
  0
CLASS
  1
ACDBDICTIONARYWDFLT
  2
AcDbDictionaryWithDefault
  3
ObjectDBX Classes
 90
        0
 91
        1
280
     0
281
     0
  0
CLASS
  1
MATERIAL
  2
AcDbMaterial
  3
ObjectDBX Classes
 90
     1153
 91
        3
280
     0
281
     0
  0
CLASS
  1
VISUALSTYLE
  2
AcDbVisualStyle
  3
ObjectDBX Classes
 90
     4095
 91
       24
280
     0
281
     0
  0
CLASS
  1
SCALE
  2
AcDbScale
  3
ObjectDBX Classes
 90
     1153
 91
       17
280
     0
281
     0
  0
CLASS
  1
TABLESTYLE
  2
AcDbTableStyle
  3
ObjectDBX Classes
 90
     4095
 91
        1
280
     0
281
     0
  0
CLASS
  1
MLEADERSTYLE
  2
AcDbMLeaderStyle
  3
ACDB_MLEADERSTYLE_CLASS
 90
     4095
 91
        1
280
     0
281
     0
  0
CLASS
  1
ACDBSECTIONVIEWSTYLE
  2
AcDbSectionViewStyle
  3
ObjectDBX Classes
 90
     1025
 91
        1
280
     0
281
     0
  0
CLASS
  1
ACDBDETAILVIEWSTYLE
  2
AcDbDetailViewStyle
  3
ObjectDBX Classes
 90
     1025
 91
        1
280
     0
281
     0
  0
CLASS
  1
DICTIONARYVAR
  2
AcDbDictionaryVar
  3
ObjectDBX Classes
 90
        0
 91
        5
280
     0
281
     0
  0
CLASS
  1
CELLSTYLEMAP
  2
AcDbCellStyleMap
  3
ObjectDBX Classes
 90
     1152
 91
        1
280
     0
281
     0
  0
ENDSEC
  0
SECTION
  2
TABLES
  0
TABLE
  2
VPORT
  5
8
330
0
100
AcDbSymbolTable
 70
     1
  0
VPORT
  5
57
330
8
100
AcDbSymbolTableRecord
100
AcDbViewportTableRecord
  2
*Active
 70
     0
 10
0.0
 20
0.0
 11
1.0
 21
1.0
 12
0.0
 22
0.0
 13
0.0
 23
0.0
 14
1.0
 24
1.0
 15
0.0
 25
0.0
 16
0.0
 26
0.0
 36
1.0
 17
102.2552177411887
 27
44.94034752064501
 37
0.0
 40
91.67834142795891
 41
2.202119411019598
 42
50.0
 43
0.0
 44
0.0
 50
0.0
 51
0.0
 71
     0
 72
   100
 73
     1
 74
     1
 75
     0
 76
     0
 77
     0
 78
     0
281
     0
 65
     1
110
0.0
120
0.0
130
0.0
111
1.0
121
0.0
131
0.0
112
0.0
122
1.0
132
0.0
 79
     0
146
0.0
 60
     3
 61
     5
292
     1
282
     1
141
0.0
142
0.0
 63
   250
421
  3355443
  0
ENDTAB
  0
TABLE
  2
LTYPE
  5
5
330
0
100
AcDbSymbolTable
 70
     1
  0
LTYPE
  5
5B
330
5
100
AcDbSymbolTableRecord
100
AcDbLinetypeTableRecord
  2
ByBlock
 70
     0
  3

 72
    65
 73
     0
 40
0.0
  0
LTYPE
  5
5C
330
5
100
AcDbSymbolTableRecord
100
AcDbLinetypeTableRecord
  2
ByLayer
 70
     0
  3

 72
    65
 73
     0
 40
0.0
  0
LTYPE
  5
5D
330
5
100
AcDbSymbolTableRecord
100
AcDbLinetypeTableRecord
  2
Continuous
 70
     0
  3
Solid line
 72
    65
 73
     0
 40
0.0
  0
ENDTAB
  0
TABLE
  2
LAYER
  5
2
330
0
100
AcDbSymbolTable
 70
     2
  0
LAYER
  5
54
330
2
100
AcDbSymbolTableRecord
100
AcDbLayerTableRecord
  2
0
 70
     0
 62
     7
  6
Continuous
370
    -3
390
F
347
21
348
0
  0
LAYER
  5
78
330
2
100
AcDbSymbolTableRecord
100
AcDbLayerTableRecord
  2
Ebene 1
 70
     0
 62
     7
  6
Continuous
370
     0
390
F
347
21
348
0
  0
ENDTAB
  0
TABLE
  2
STYLE
  5
3
330
0
100
AcDbSymbolTable
 70
     2
  0
STYLE
  5
55
330
3
100
AcDbSymbolTableRecord
100
AcDbTextStyleTableRecord
  2
Standard
 70
     0
 40
0.0
 41
1.0
 50
0.0
 71
     0
 42
0.2
  3
txt
  4

  0
STYLE
  5
5A
330
3
100
AcDbSymbolTableRecord
100
AcDbTextStyleTableRecord
  2
Annotative
 70
     0
 40
0.0
 41
1.0
 50
0.0
 71
     0
 42
0.2
  3
txt
  4

1001
AcadAnnotative
1000
AnnotativeData
1002
{
1070
     1
1070
     1
1002
}
  0
ENDTAB
  0
TABLE
  2
VIEW
  5
6
330
0
100
AcDbSymbolTable
 70
     0
  0
ENDTAB
  0
TABLE
  2
UCS
  5
7
330
0
100
AcDbSymbolTable
 70
     0
  0
ENDTAB
  0
TABLE
  2
APPID
  5
9
330
0
100
AcDbSymbolTable
 70
     2
  0
APPID
  5
56
330
9
100
AcDbSymbolTableRecord
100
AcDbRegAppTableRecord
  2
ACAD
 70
     0
  0
APPID
  5
5E
330
9
100
AcDbSymbolTableRecord
100
AcDbRegAppTableRecord
  2
AcadAnnotative
 70
     0
  0
ENDTAB
  0
TABLE
  2
DIMSTYLE
  5
A
330
0
100
AcDbSymbolTable
 70
     2
100
AcDbDimStyleTable
 71
     0
  0
DIMSTYLE
105
58
330
A
100
AcDbSymbolTableRecord
100
AcDbDimStyleTableRecord
  2
Standard
 70
     0
340
55
  0
DIMSTYLE
105
59
330
A
100
AcDbSymbolTableRecord
100
AcDbDimStyleTableRecord
  2
Annotative
 70
     0
340
55
1001
AcadAnnotative
1000
AnnotativeData
1002
{
1070
     1
1070
     1
1002
}
  0
ENDTAB
  0
TABLE
  2
BLOCK_RECORD
  5
1
330
0
100
AcDbSymbolTable
 70
     1
  0
BLOCK_RECORD
  5
70
330
1
100
AcDbSymbolTableRecord
100
AcDbBlockTableRecord
  2
*Model_Space
340
73
 70
     0
280
     1
281
     0
  0
BLOCK_RECORD
  5
6C
330
1
100
AcDbSymbolTableRecord
100
AcDbBlockTableRecord
  2
*Paper_Space
340
6F
 70
     0
280
     1
281
     0
  0
BLOCK_RECORD
  5
74
330
1
100
AcDbSymbolTableRecord
100
AcDbBlockTableRecord
  2
*Paper_Space0
340
77
 70
     0
280
     1
281
     0
  0
ENDTAB
  0
ENDSEC
  0
SECTION
  2
BLOCKS
  0
BLOCK
  5
71
330
70
100
AcDbEntity
  8
0
100
AcDbBlockBegin
  2
*Model_Space
 70
     0
 10
0.0
 20
0.0
 30
0.0
  3
*Model_Space
  1

  0
ENDBLK
  5
72
330
70
100
AcDbEntity
  8
0
100
AcDbBlockEnd
  0
BLOCK
  5
6D
330
6C
100
AcDbEntity
 67
     1
  8
0
100
AcDbBlockBegin
  2
*Paper_Space
 70
     0
 10
0.0
 20
0.0
 30
0.0
  3
*Paper_Space
  1

  0
ENDBLK
  5
6E
330
6C
100
AcDbEntity
 67
     1
  8
0
100
AcDbBlockEnd
  0
BLOCK
  5
75
330
74
100
AcDbEntity
 67
     1
  8
0
100
AcDbBlockBegin
  2
*Paper_Space0
 70
     0
 10
0.0
 20
0.0
 30
0.0
  3
*Paper_Space0
  1

  0
ENDBLK
  5
76
330
74
100
AcDbEntity
 67
     1
  8
0
100
AcDbBlockEnd
  0
ENDSEC
  0
SECTION
  2
ENTITIES
  0
SPLINE
  5
79
330
70
100
AcDbEntity
  8
Ebene 1
 62
     5
420
      255
370
     9
100
AcDbSpline
210
0.0
220
0.0
230
1.0
 70
     9
 71
     3
 72
    20
 73
    16
 74
     0
 42
0.0000000001
 43
0.0000000001
 40
0.0
 40
0.0
 40
0.0
 40
0.0
 40
1.0
 40
1.0
 40
1.0
 40
2.0
 40
2.0
 40
2.0
 40
3.0
 40
3.0
 40
3.0
 40
4.0
 40
4.0
 40
4.0
 40
5.0
 40
5.0
 40
5.0
 40
5.0
 10
83.36644436293203
 20
47.18298133299311
 30
0.0
 10
76.60016917066743
 20
47.18298133299311
 30
0.0
 10
71.11798872498936
 20
52.66867685265847
 30
0.0
 10
71.11798872498936
 20
59.43142620501237
 30
0.0
 10
71.11798872498936
 20
66.19417555736629
 30
0.0
 10
76.60367886169303
 20
71.67987107703165
 30
0.0
 10
83.36642283108524
 20
71.67987107703165
 30
0.0
 10
90.12916680047744
 20
71.67987107703165
 30
0.0
 10
95.61485693718111
 20
66.19417555736629
 30
0.0
 10
95.61485693718111
 20
59.43142620501237
 30
0.0
 10
95.61485693718111
 20
52.66867685265847
 30
0.0
 10
90.12916680047744
 20
47.18298133299311
 30
0.0
 10
83.36642283108524
 20
47.18298133299311
 30
0.0
 10
83.36642283108524
 20
47.18298133299311
 30
0.0
 10
83.36644436293203
 20
47.18298133299311
 30
0.0
 10
83.36644436293203
 20
47.18298133299311
 30
0.0
  0
SPLINE
  5
7A
330
70
100
AcDbEntity
  8
Ebene 1
 62
     5
420
      255
370
     9
100
AcDbSpline
210
0.0
220
0.0
230
1.0
 70
     9
 71
     3
 72
    17
 73
    13
 74
     0
 42
0.0000000001
 43
0.0000000001
 40
0.0
 40
0.0
 40
0.0
 40
0.0
 40
1.0
 40
1.0
 40
1.0
 40
2.0
 40
2.0
 40
2.0
 40
3.0
 40
3.0
 40
3.0
 40
4.0
 40
4.0
 40
4.0
 40
4.0
 10
83.36644436293203
 20
74.18459276033153
 30
0.0
 10
75.22079600206696
 20
74.18459276033153
 30
0.0
 10
68.61680633900441
 20
67.58059502282643
 30
0.0
 10
68.61680633900441
 20
59.43495204492307
 30
0.0
 10
68.61680633900441
 20
51.28930906701969
 30
0.0
 10
75.22079600206696
 20
44.68531402099546
 30
0.0
 10
83.36644436293203
 20
44.68531402099546
 30
0.0
 10
91.51209272379707
 20
44.68531402099546
 30
0.0
 10
98.11608238685963
 20
51.28931444998139
 30
0.0
 10
98.11608238685963
 20
59.43495204492307
 30
0.0
 10
98.11608238685963
 20
67.58058963986474
 30
0.0
 10
91.51209272379707
 20
74.18459006885067
 30
0.0
 10
83.36644436293203
 20
74.18459276033153
 30
0.0
  0
SPLINE
  5
7B
330
70
100
AcDbEntity
  8
Ebene 1
 62
     5
420
      255
370
     9
100
AcDbSpline
210
0.0
220
0.0
230
1.0
 70
     9
 71
     3
 72
    17
 73
    13
 74
     0
 42
0.0000000001
 43
0.0000000001
 40
0.0
 40
0.0
 40
0.0
 40
0.0
 40
1.0
 40
1.0
 40
1.0
 40
2.0
 40
2.0
 40
2.0
 40
3.0
 40
3.0
 40
3.0
 40
4.0
 40
4.0
 40
4.0
 40
4.0
 10
197.9206656491011
 20
86.13773881824188
 30
0.0
 10
197.3421049260469
 20
86.13773881824188
 30
0.0
 10
196.8693947617771
 20
86.60693323565423
 30
0.0
 10
196.8693947617771
 20
87.18901660248553
 30
0.0
 10
196.8693947617771
 20
87.77109996931686
 30
0.0
 10
197.3385952350213
 20
88.24029438672921
 30
0.0
 10
197.9206656491011
 20
88.24029438672921
 30
0.0
 10
198.5027360631809
 20
88.24029438672921
 30
0.0
 10
198.9719365364251
 20
87.77109996931686
 30
0.0
 10
198.9719365364251
 20
87.18901660248553
 30
0.0
 10
198.9719365364251
 20
86.60693323565423
 30
0.0
 10
198.5027360631809
 20
86.13773881824188
 30
0.0
 10
197.9206656491011
 20
86.13773881824188
 30
0.0
  0
SPLINE
  5
7C
330
70
100
AcDbEntity
  8
Ebene 1
 62
     5
420
      255
370
     9
100
AcDbSpline
210
0.0
220
0.0
230
1.0
 70
     9
 71
     3
 72
    20
 73
    16
 74
     0
 42
0.0000000001
 43
0.0000000001
 40
0.0
 40
0.0
 40
0.0
 40
0.0
 40
1.0
 40
1.0
 40
1.0
 40
2.0
 40
2.0
 40
2.0
 40
3.0
 40
3.0
 40
3.0
 40
4.0
 40
4.0
 40
4.0
 40
5.0
 40
5.0
 40
5.0
 40
5.0
 10
148.2036960231297
 20
16.78162523485001
 30
0.0
 10
141.4374208308651
 20
16.78162523485001
 30
0.0
 10
135.9552511511104
 20
22.26732075451538
 30
0.0
 10
135.9552511511104
 20
29.03007010686928
 30
0.0
 10
135.9552511511104
 20
35.79281945922319
 30
0.0
 10
141.4409412878141
 20
41.27851497888855
 30
0.0
 10
148.2036960231297
 20
41.27851497888855
 30
0.0
 10
154.9664399925219
 20
41.27851497888855
 30
0.0
 10
160.4521516610724
 20
35.79281945922319
 30
0.0
 10
160.4521516610724
 20
29.03007010686928
 30
0.0
 10
160.4521516610724
 20
22.26732075451538
 30
0.0
 10
154.9664615243687
 20
16.78162523485001
 30
0.0
 10
148.2037067890531
 20
16.78162523485001
 30
0.0
 10
148.2037067890531
 20
16.78162523485001
 30
0.0
 10
148.2036960231297
 20
16.78162523485001
 30
0.0
 10
148.2036960231297
 20
16.78162523485001
 30
0.0
  0
SPLINE
  5
7D
330
70
100
AcDbEntity
  8
Ebene 1
 62
     5
420
      255
370
     9
100
AcDbSpline
210
0.0
220
0.0
230
1.0
 70
     9
 71
     3
 72
    17
 73
    13
 74
     0
 42
0.0000000001
 43
0.0000000001
 40
0.0
 40
0.0
 40
0.0
 40
0.0
 40
1.0
 40
1.0
 40
1.0
 40
2.0
 40
2.0
 40
2.0
 40
3.0
 40
3.0
 40
3.0
 40
4.0
 40
4.0
 40
4.0
 40
4.0
 10
135.8494221241729
 20
6.755681438867457
 30
0.0
 10
135.2708614011188
 20
6.755681438867457
 30
0.0
 10
134.7981404709255
 20
7.224876529150007
 30
0.0
 10
134.7981404709255
 20
7.806957709153141
 30
0.0
 10
134.7981404709255
 20
8.389038889156275
 30
0.0
 10
135.2673301782464
 20
8.858233979438825
 30
0.0
 10
135.8494221241729
 20
8.858233979438825
 30
0.0
 10
136.4315140700995
 20
8.858233979438825
 30
0.0
 10
136.9007037774203
 20
8.389038889156275
 30
0.0
 10
136.9007037774203
 20
7.806957709153141
 30
0.0
 10
136.9007037774203
 20
7.224876529150007
 30
0.0
 10
136.4315140700995
 20
6.755681438867457
 30
0.0
 10
135.8494221241729
 20
6.755681438867457
 30
0.0
  0
SPLINE
  5
7E
330
70
100
AcDbEntity
  8
Ebene 1
 62
     5
420
      255
370
     9
100
AcDbSpline
210
0.0
220
0.0
230
1.0
 70
     9
 71
     3
 72
    17
 73
    13
 74
     0
 42
0.0000000001
 43
0.0000000001
 40
0.0
 40
0.0
 40
0.0
 40
0.0
 40
1.0
 40
1.0
 40
1.0
 40
2.0
 40
2.0
 40
2.0
 40
3.0
 40
3.0
 40
3.0
 40
4.0
 40
4.0
 40
4.0
 40
4.0
 10
135.8494221241729
 20
88.2861553699835
 30
0.0
 10
136.4279828472271
 20
88.2861553699835
 30
0.0
 10
136.9007037774203
 20
87.81696095257117
 30
0.0
 10
136.9007037774203
 20
87.23487758573986
 30
0.0
 10
136.9007037774203
 20
86.65279438712607
 30
0.0
 10
136.4315140700995
 20
86.18359996971374
 30
0.0
 10
135.8494221241729
 20
86.18359996971374
 30
0.0
 10
135.2673301782464
 20
86.18359996971374
 30
0.0
 10
134.7981404709255
 20
86.65279438712607
 30
0.0
 10
134.7981404709255
 20
87.2348777539574
 30
0.0
 10
134.7981404709255
 20
87.81696112078874
 30
0.0
 10
135.2673301782464
 20
88.28615553820105
 30
0.0
 10
135.8494221241729
 20
88.2861553699835
 30
0.0
  0
SPLINE
  5
7F
330
70
100
AcDbEntity
  8
Ebene 1
 62
     5
420
      255
370
     9
100
AcDbSpline
210
0.0
220
0.0
230
1.0
 70
     9
 71
     3
 72
    56
 73
    52
 74
     0
 42
0.0000000001
 43
0.0000000001
 40
0.0
 40
0.0
 40
0.0
 40
0.0
 40
1.0
 40
1.0
 40
1.0
 40
2.0
 40
2.0
 40
2.0
 40
3.0
 40
3.0
 40
3.0
 40
4.0
 40
4.0
 40
4.0
 40
5.0
 40
5.0
 40
5.0
 40
6.0
 40
6.0
 40
6.0
 40
7.0
 40
7.0
 40
7.0
 40
8.0
 40
8.0
 40
8.0
 40
9.0
 40
9.0
 40
9.0
 40
10.0
 40
10.0
 40
10.0
 40
11.0
 40
11.0
 40
11.0
 40
12.0
 40
12.0
 40
12.0
 40
13.0
 40
13.0
 40
13.0
 40
14.0
 40
14.0
 40
14.0
 40
15.0
 40
15.0
 40
15.0
 40
16.0
 40
16.0
 40
16.0
 40
17.0
 40
17.0
 40
17.0
 40
17.0
 10
133.9444242778339
 20
89.83132202932491
 30
0.0
 10
133.5563665691906
 20
89.83132202932491
 30
0.0
 10
133.2459204022761
 20
89.51734981748449
 30
0.0
 10
133.2459204022761
 20
89.13282198597325
 30
0.0
 10
133.2459204022761
 20
89.13282198597325
 30
0.0
 10
133.2459204022761
 20
15.06359918004948
 30
0.0
 10
133.2459204022761
 20
15.06359918004948
 30
0.0
 10
133.2459204022761
 20
15.06359918004948
 30
0.0
 10
133.2459204022761
 20
15.06359918004948
 30
0.0
 10
133.2459204022761
 20
15.06359918004948
 30
0.0
 10
133.2459204022761
 20
15.06359918004948
 30
0.0
 10
133.2459204022761
 20
0.1763780381414066
 30
0.0
 10
133.2459204022761
 20
0.1763780381414066
 30
0.0
 10
133.2459204022761
 20
0.1763780381414066
 30
0.0
 10
133.2459204022761
 20
0.1763780381414066
 30
0.0
 10
133.2459204022761
 20
0.1763780381414066
 30
0.0
 10
133.2459204022761
 20
0.1763780381414066
 30
0.0
 10
133.2459204022761
 20
0.1128806219788955
 30
0.0
 10
133.2459204022761
 20
0.1128806219788955
 30
0.0
 10
138.318866568
 20
4.801294918970311
 30
0.0
 10
143.8998135948708
 20
8.946439189784612
 30
0.0
 10
149.5513097177255
 20
12.20963363341326
 30
0.0
 10
153.9257627738151
 20
14.73552381358148
 30
0.0
 10
158.5153835748053
 20
16.92274495866456
 30
0.0
 10
163.1226604901574
 20
18.69721674980622
 30
0.0
 10
163.1226604901574
 20
18.69721674980622
 30
0.0
 10
163.1508887412896
 20
81.14594046364555
 30
0.0
 10
163.1508887412896
 20
81.14594046364555
 30
0.0
 10
163.1508887412896
 20
81.53399615367813
 30
0.0
 10
163.4648661310766
 20
81.84444030198207
 30
0.0
 10
163.8529130737964
 20
81.84444030198207
 30
0.0
 10
163.8529130737964
 20
81.84444030198207
 30
0.0
 10
182.147963457135
 20
81.84444030198207
 30
0.0
 10
182.147963457135
 20
81.84444030198207
 30
0.0
 10
182.147963457135
 20
81.84444030198207
 30
0.0
 10
182.147963457135
 20
84.15513447670075
 30
0.0
 10
182.147963457135
 20
84.15513447670075
 30
0.0
 10
182.147963457135
 20
84.54319016673334
 30
0.0
 10
182.4619408469219
 20
84.85716217355861
 30
0.0
 10
182.8499877896417
 20
84.85716217355861
 30
0.0
 10
182.8499877896417
 20
84.85716217355861
 30
0.0
 10
201.1697352012402
 20
84.85716217355861
 30
0.0
 10
201.1697352012402
 20
84.85716217355861
 30
0.0
 10
201.1697352012402
 20
84.85716217355861
 30
0.0
 10
201.1556318415975
 20
89.82780111503444
 30
0.0
 10
201.1556318415975
 20
89.82780111503444
 30
0.0
 10
201.1556318415975
 20
89.82780111503444
 30
0.0
 10
133.9444027459871
 20
89.82780111503444
 30
0.0
 10
133.9444027459871
 20
89.82780111503444
 30
0.0
 10
133.9444027459871
 20
89.82780111503444
 30
0.0
 10
133.9444242778339
 20
89.83132202932491
 30
0.0
 10
133.9444242778339
 20
89.83132202932491
 30
0.0
  0
SPLINE
  5
80
330
70
100
AcDbEntity
  8
Ebene 1
 62
     5
420
      255
370
     9
100
AcDbSpline
210
0.0
220
0.0
230
1.0
 70
     9
 71
     3
 72
    17
 73
    13
 74
     0
 42
0.0000000001
 43
0.0000000001
 40
0.0
 40
0.0
 40
0.0
 40
0.0
 40
1.0
 40
1.0
 40
1.0
 40
2.0
 40
2.0
 40
2.0
 40
3.0
 40
3.0
 40
3.0
 40
4.0
 40
4.0
 40
4.0
 40
4.0
 10
72.83247279099412
 20
34.5475143346159
 30
0.0
 10
73.41103351404825
 20
34.5475143346159
 30
0.0
 10
73.88374367831811
 20
34.07831924433335
 30
0.0
 10
73.88374367831811
 20
33.49623806433021
 30
0.0
 10
73.88374367831811
 20
32.91415688432708
 30
0.0
 10
73.41454320507385
 20
32.44496179404453
 30
0.0
 10
72.83247279099412
 20
32.44496179404453
 30
0.0
 10
72.25040237691437
 20
32.44496179404453
 30
0.0
 10
71.78120190367012
 20
32.91415688432708
 30
0.0
 10
71.78120190367012
 20
33.49623806433021
 30
0.0
 10
71.78120190367012
 20
34.07831924433335
 30
0.0
 10
72.25040237691437
 20
34.5475143346159
 30
0.0
 10
72.83247279099412
 20
34.5475143346159
 30
0.0
  0
SPLINE
  5
81
330
70
100
AcDbEntity
  8
Ebene 1
 62
     5
420
      255
370
     9
100
AcDbSpline
210
0.0
220
0.0
230
1.0
 70
     9
 71
     3
 72
    17
 73
    13
 74
     0
 42
0.0000000001
 43
0.0000000001
 40
0.0
 40
0.0
 40
0.0
 40
0.0
 40
1.0
 40
1.0
 40
1.0
 40
2.0
 40
2.0
 40
2.0
 40
3.0
 40
3.0
 40
3.0
 40
4.0
 40
4.0
 40
4.0
 40
4.0
 10
84.40711081571548
 20
33.77493014020184
 30
0.0
 10
84.98567153876962
 20
33.77493014020184
 30
0.0
 10
85.45838170303946
 20
33.30573504991929
 30
0.0
 10
85.45838170303946
 20
32.72365386991616
 30
0.0
 10
85.45838170303946
 20
32.14157268991302
 30
0.0
 10
84.98918122979523
 20
31.67237759963047
 30
0.0
 10
84.40711081571548
 20
31.67237759963047
 30
0.0
 10
83.82504040163572
 20
31.67237759963047
 30
0.0
 10
83.35583992839149
 20
32.14157268991302
 30
0.0
 10
83.35583992839149
 20
32.72365386991616
 30
0.0
 10
83.35583992839149
 20
33.30573504991929
 30
0.0
 10
83.82504040163572
 20
33.77493014020184
 30
0.0
 10
84.40711081571548
 20
33.77493014020184
 30
0.0
  0
SPLINE
  5
82
330
70
100
AcDbEntity
  8
Ebene 1
 62
     5
420
      255
370
     9
100
AcDbSpline
210
0.0
220
0.0
230
1.0
 70
     9
 71
     3
 72
    17
 73
    13
 74
     0
 42
0.0000000001
 43
0.0000000001
 40
0.0
 40
0.0
 40
0.0
 40
0.0
 40
1.0
 40
1.0
 40
1.0
 40
2.0
 40
2.0
 40
2.0
 40
3.0
 40
3.0
 40
3.0
 40
4.0
 40
4.0
 40
4.0
 40
4.0
 10
67.00104579049884
 20
42.40034572811981
 30
0.0
 10
66.72586878861451
 20
42.40034572811981
 30
0.0
 10
66.50010737509674
 20
42.62259745061199
 30
0.0
 10
66.50010737509674
 20
42.90128952648362
 30
0.0
 10
66.50010737509674
 20
43.17998160235524
 30
0.0
 10
66.72235909758892
 20
43.40223332484742
 30
0.0
 10
67.00104579049884
 20
43.40223332484742
 30
0.0
 10
67.27973248340878
 20
43.40223332484742
 30
0.0
 10
67.50198420590095
 20
43.17998160235524
 30
0.0
 10
67.50198420590095
 20
42.90128952648362
 30
0.0
 10
67.50198420590095
 20
42.62259745061199
 30
0.0
 10
67.27973248340878
 20
42.40034572811981
 30
0.0
 10
67.00104579049884
 20
42.40034572811981
 30
0.0
  0
SPLINE
  5
83
330
70
100
AcDbEntity
  8
Ebene 1
 62
     5
420
      255
370
     9
100
AcDbSpline
210
0.0
220
0.0
230
1.0
 70
     9
 71
     3
 72
    17
 73
    13
 74
     0
 42
0.0000000001
 43
0.0000000001
 40
0.0
 40
0.0
 40
0.0
 40
0.0
 40
1.0
 40
1.0
 40
1.0
 40
2.0
 40
2.0
 40
2.0
 40
3.0
 40
3.0
 40
3.0
 40
4.0
 40
4.0
 40
4.0
 40
4.0
 10
67.00104579049884
 20
40.40009637457528
 30
0.0
 10
66.72586878861451
 20
40.40009637457528
 30
0.0
 10
66.50010737509674
 20
40.62234809706746
 30
0.0
 10
66.50010737509674
 20
40.90104017293908
 30
0.0
 10
66.50010737509674
 20
41.17973224881071
 30
0.0
 10
66.72235909758892
 20
41.40198397130289
 30
0.0
 10
67.00104579049884
 20
41.40198397130289
 30
0.0
 10
67.27973248340878
 20
41.40198397130289
 30
0.0
 10
67.50198420590095
 20
41.17973224881071
 30
0.0
 10
67.50198420590095
 20
40.90104017293908
 30
0.0
 10
67.50198420590095
 20
40.62234809706746
 30
0.0
 10
67.27973248340878
 20
40.40009637457528
 30
0.0
 10
67.00104579049884
 20
40.40009637457528
 30
0.0
  0
SPLINE
  5
84
330
70
100
AcDbEntity
  8
Ebene 1
 62
     5
420
      255
370
     9
100
AcDbSpline
210
0.0
220
0.0
230
1.0
 70
     9
 71
     3
 72
    17
 73
    13
 74
     0
 42
0.0000000001
 43
0.0000000001
 40
0.0
 40
0.0
 40
0.0
 40
0.0
 40
1.0
 40
1.0
 40
1.0
 40
2.0
 40
2.0
 40
2.0
 40
3.0
 40
3.0
 40
3.0
 40
4.0
 40
4.0
 40
4.0
 40
4.0
 10
67.00104579049884
 20
38.39984702103075
 30
0.0
 10
66.72586878861451
 20
38.39984702103075
 30
0.0
 10
66.50010737509674
 20
38.62209874352293
 30
0.0
 10
66.50010737509674
 20
38.90079081939455
 30
0.0
 10
66.50010737509674
 20
39.17948289526618
 30
0.0
 10
66.72235909758892
 20
39.40173461775836
 30
0.0
 10
67.00104579049884
 20
39.40173461775836
 30
0.0
 10
67.27973248340878
 20
39.40173461775836
 30
0.0
 10
67.50198420590095
 20
39.17948289526618
 30
0.0
 10
67.50198420590095
 20
38.90079081939455
 30
0.0
 10
67.50198420590095
 20
38.62209874352293
 30
0.0
 10
67.27973248340878
 20
38.39984702103075
 30
0.0
 10
67.00104579049884
 20
38.39984702103075
 30
0.0
  0
SPLINE
  5
85
330
70
100
AcDbEntity
  8
Ebene 1
 62
     5
420
      255
370
     9
100
AcDbSpline
210
0.0
220
0.0
230
1.0
 70
     9
 71
     3
 72
    17
 73
    13
 74
     0
 42
0.0000000001
 43
0.0000000001
 40
0.0
 40
0.0
 40
0.0
 40
0.0
 40
1.0
 40
1.0
 40
1.0
 40
2.0
 40
2.0
 40
2.0
 40
3.0
 40
3.0
 40
3.0
 40
4.0
 40
4.0
 40
4.0
 40
4.0
 10
67.00104579049884
 20
36.39959766748621
 30
0.0
 10
66.72586878861451
 20
36.39959766748621
 30
0.0
 10
66.50010737509674
 20
36.62184938997839
 30
0.0
 10
66.50010737509674
 20
36.90054146585002
 30
0.0
 10
66.50010737509674
 20
37.17923354172164
 30
0.0
 10
66.72235909758892
 20
37.40148526421382
 30
0.0
 10
67.00104579049884
 20
37.40148526421382
 30
0.0
 10
67.27973248340878
 20
37.40148526421382
 30
0.0
 10
67.50198420590095
 20
37.17923354172164
 30
0.0
 10
67.50198420590095
 20
36.90054146585002
 30
0.0
 10
67.50198420590095
 20
36.62184938997839
 30
0.0
 10
67.27973248340878
 20
36.39959766748621
 30
0.0
 10
67.00104579049884
 20
36.39959766748621
 30
0.0
  0
SPLINE
  5
86
330
70
100
AcDbEntity
  8
Ebene 1
 62
     5
420
      255
370
     9
100
AcDbSpline
210
0.0
220
0.0
230
1.0
 70
     9
 71
     3
 72
    17
 73
    13
 74
     0
 42
0.0000000001
 43
0.0000000001
 40
0.0
 40
0.0
 40
0.0
 40
0.0
 40
1.0
 40
1.0
 40
1.0
 40
2.0
 40
2.0
 40
2.0
 40
3.0
 40
3.0
 40
3.0
 40
4.0
 40
4.0
 40
4.0
 40
4.0
 10
67.00104579049884
 20
34.39934831394168
 30
0.0
 10
66.72586878861451
 20
34.39934831394168
 30
0.0
 10
66.50010737509674
 20
34.62160003643385
 30
0.0
 10
66.50010737509674
 20
34.90029211230548
 30
0.0
 10
66.50010737509674
 20
35.1789841881771
 30
0.0
 10
66.72235909758892
 20
35.40123591066929
 30
0.0
 10
67.00104579049884
 20
35.40123591066929
 30
0.0
 10
67.27973248340878
 20
35.40123591066929
 30
0.0
 10
67.50198420590095
 20
35.1789841881771
 30
0.0
 10
67.50198420590095
 20
34.90029211230548
 30
0.0
 10
67.50198420590095
 20
34.62160003643385
 30
0.0
 10
67.27973248340878
 20
34.39934831394168
 30
0.0
 10
67.00104579049884
 20
34.39934831394168
 30
0.0
  0
SPLINE
  5
87
330
70
100
AcDbEntity
  8
Ebene 1
 62
     5
420
      255
370
     9
100
AcDbSpline
210
0.0
220
0.0
230
1.0
 70
     9
 71
     3
 72
    17
 73
    13
 74
     0
 42
0.0000000001
 43
0.0000000001
 40
0.0
 40
0.0
 40
0.0
 40
0.0
 40
1.0
 40
1.0
 40
1.0
 40
2.0
 40
2.0
 40
2.0
 40
3.0
 40
3.0
 40
3.0
 40
4.0
 40
4.0
 40
4.0
 40
4.0
 10
65.000801819916
 20
42.40034572811981
 30
0.0
 10
64.72562481803167
 20
42.40034572811981
 30
0.0
 10
64.4998634045139
 20
42.62259745061199
 30
0.0
 10
64.4998634045139
 20
42.90128952648362
 30
0.0
 10
64.4998634045139
 20
43.17998160235524
 30
0.0
 10
64.72211512700607
 20
43.40223332484742
 30
0.0
 10
65.000801819916
 20
43.40223332484742
 30
0.0
 10
65.27948851282594
 20
43.40223332484742
 30
0.0
 10
65.50174023531813
 20
43.17998160235524
 30
0.0
 10
65.50174023531813
 20
42.90128952648362
 30
0.0
 10
65.50174023531813
 20
42.62259745061199
 30
0.0
 10
65.27948851282594
 20
42.40034572811981
 30
0.0
 10
65.000801819916
 20
42.40034572811981
 30
0.0
  0
SPLINE
  5
88
330
70
100
AcDbEntity
  8
Ebene 1
 62
     5
420
      255
370
     9
100
AcDbSpline
210
0.0
220
0.0
230
1.0
 70
     9
 71
     3
 72
    17
 73
    13
 74
     0
 42
0.0000000001
 43
0.0000000001
 40
0.0
 40
0.0
 40
0.0
 40
0.0
 40
1.0
 40
1.0
 40
1.0
 40
2.0
 40
2.0
 40
2.0
 40
3.0
 40
3.0
 40
3.0
 40
4.0
 40
4.0
 40
4.0
 40
4.0
 10
65.000801819916
 20
40.40009637457528
 30
0.0
 10
64.72562481803167
 20
40.40009637457528
 30
0.0
 10
64.4998634045139
 20
40.62234809706746
 30
0.0
 10
64.4998634045139
 20
40.90104017293908
 30
0.0
 10
64.4998634045139
 20
41.17973224881071
 30
0.0
 10
64.72211512700607
 20
41.40198397130289
 30
0.0
 10
65.000801819916
 20
41.40198397130289
 30
0.0
 10
65.27948851282594
 20
41.40198397130289
 30
0.0
 10
65.50174023531813
 20
41.17973224881071
 30
0.0
 10
65.50174023531813
 20
40.90104017293908
 30
0.0
 10
65.50174023531813
 20
40.62234809706746
 30
0.0
 10
65.27948851282594
 20
40.40009637457528
 30
0.0
 10
65.000801819916
 20
40.40009637457528
 30
0.0
  0
SPLINE
  5
89
330
70
100
AcDbEntity
  8
Ebene 1
 62
     5
420
      255
370
     9
100
AcDbSpline
210
0.0
220
0.0
230
1.0
 70
     9
 71
     3
 72
    17
 73
    13
 74
     0
 42
0.0000000001
 43
0.0000000001
 40
0.0
 40
0.0
 40
0.0
 40
0.0
 40
1.0
 40
1.0
 40
1.0
 40
2.0
 40
2.0
 40
2.0
 40
3.0
 40
3.0
 40
3.0
 40
4.0
 40
4.0
 40
4.0
 40
4.0
 10
65.000801819916
 20
38.39984702103075
 30
0.0
 10
64.72562481803167
 20
38.39984702103075
 30
0.0
 10
64.4998634045139
 20
38.62209874352293
 30
0.0
 10
64.4998634045139
 20
38.90079081939455
 30
0.0
 10
64.4998634045139
 20
39.17948289526618
 30
0.0
 10
64.72211512700607
 20
39.40173461775836
 30
0.0
 10
65.000801819916
 20
39.40173461775836
 30
0.0
 10
65.27948851282594
 20
39.40173461775836
 30
0.0
 10
65.50174023531813
 20
39.17948289526618
 30
0.0
 10
65.50174023531813
 20
38.90079081939455
 30
0.0
 10
65.50174023531813
 20
38.62209874352293
 30
0.0
 10
65.27948851282594
 20
38.39984702103075
 30
0.0
 10
65.000801819916
 20
38.39984702103075
 30
0.0
  0
SPLINE
  5
8A
330
70
100
AcDbEntity
  8
Ebene 1
 62
     5
420
      255
370
     9
100
AcDbSpline
210
0.0
220
0.0
230
1.0
 70
     9
 71
     3
 72
    17
 73
    13
 74
     0
 42
0.0000000001
 43
0.0000000001
 40
0.0
 40
0.0
 40
0.0
 40
0.0
 40
1.0
 40
1.0
 40
1.0
 40
2.0
 40
2.0
 40
2.0
 40
3.0
 40
3.0
 40
3.0
 40
4.0
 40
4.0
 40
4.0
 40
4.0
 10
65.000801819916
 20
36.39959766748621
 30
0.0
 10
64.72562481803167
 20
36.39959766748621
 30
0.0
 10
64.4998634045139
 20
36.62184938997839
 30
0.0
 10
64.4998634045139
 20
36.90054146585002
 30
0.0
 10
64.4998634045139
 20
37.17923354172164
 30
0.0
 10
64.72211512700607
 20
37.40148526421382
 30
0.0
 10
65.000801819916
 20
37.40148526421382
 30
0.0
 10
65.27948851282594
 20
37.40148526421382
 30
0.0
 10
65.50174023531813
 20
37.17923354172164
 30
0.0
 10
65.50174023531813
 20
36.90054146585002
 30
0.0
 10
65.50174023531813
 20
36.62184938997839
 30
0.0
 10
65.27948851282594
 20
36.39959766748621
 30
0.0
 10
65.000801819916
 20
36.39959766748621
 30
0.0
  0
SPLINE
  5
8B
330
70
100
AcDbEntity
  8
Ebene 1
 62
     5
420
      255
370
     9
100
AcDbSpline
210
0.0
220
0.0
230
1.0
 70
     9
 71
     3
 72
    17
 73
    13
 74
     0
 42
0.0000000001
 43
0.0000000001
 40
0.0
 40
0.0
 40
0.0
 40
0.0
 40
1.0
 40
1.0
 40
1.0
 40
2.0
 40
2.0
 40
2.0
 40
3.0
 40
3.0
 40
3.0
 40
4.0
 40
4.0
 40
4.0
 40
4.0
 10
65.000801819916
 20
34.39934831394168
 30
0.0
 10
64.72562481803167
 20
34.39934831394168
 30
0.0
 10
64.4998634045139
 20
34.62160003643385
 30
0.0
 10
64.4998634045139
 20
34.90029211230548
 30
0.0
 10
64.4998634045139
 20
35.1789841881771
 30
0.0
 10
64.72211512700607
 20
35.40123591066929
 30
0.0
 10
65.000801819916
 20
35.40123591066929
 30
0.0
 10
65.27948851282594
 20
35.40123591066929
 30
0.0
 10
65.50174023531813
 20
35.1789841881771
 30
0.0
 10
65.50174023531813
 20
34.90029211230548
 30
0.0
 10
65.50174023531813
 20
34.62160003643385
 30
0.0
 10
65.27948851282594
 20
34.39934831394168
 30
0.0
 10
65.000801819916
 20
34.39934831394168
 30
0.0
  0
SPLINE
  5
8C
330
70
100
AcDbEntity
  8
Ebene 1
 62
     5
420
      255
370
     9
100
AcDbSpline
210
0.0
220
0.0
230
1.0
 70
     9
 71
     3
 72
    17
 73
    13
 74
     0
 42
0.0000000001
 43
0.0000000001
 40
0.0
 40
0.0
 40
0.0
 40
0.0
 40
1.0
 40
1.0
 40
1.0
 40
2.0
 40
2.0
 40
2.0
 40
3.0
 40
3.0
 40
3.0
 40
4.0
 40
4.0
 40
4.0
 40
4.0
 10
63.00055784933316
 20
42.40034572811981
 30
0.0
 10
62.72538084744883
 20
42.40034572811981
 30
0.0
 10
62.49961943393106
 20
42.62259745061199
 30
0.0
 10
62.49961943393106
 20
42.90128952648362
 30
0.0
 10
62.49961943393106
 20
43.17998160235524
 30
0.0
 10
62.72187115642324
 20
43.40223332484742
 30
0.0
 10
63.00055784933316
 20
43.40223332484742
 30
0.0
 10
63.2792445422431
 20
43.40223332484742
 30
0.0
 10
63.50149626473528
 20
43.17998160235524
 30
0.0
 10
63.50149626473528
 20
42.90128952648362
 30
0.0
 10
63.50149626473528
 20
42.62259745061199
 30
0.0
 10
63.2792445422431
 20
42.40034572811981
 30
0.0
 10
63.00055784933316
 20
42.40034572811981
 30
0.0
  0
SPLINE
  5
8D
330
70
100
AcDbEntity
  8
Ebene 1
 62
     5
420
      255
370
     9
100
AcDbSpline
210
0.0
220
0.0
230
1.0
 70
     9
 71
     3
 72
    17
 73
    13
 74
     0
 42
0.0000000001
 43
0.0000000001
 40
0.0
 40
0.0
 40
0.0
 40
0.0
 40
1.0
 40
1.0
 40
1.0
 40
2.0
 40
2.0
 40
2.0
 40
3.0
 40
3.0
 40
3.0
 40
4.0
 40
4.0
 40
4.0
 40
4.0
 10
63.00055784933316
 20
40.40009637457528
 30
0.0
 10
62.72538084744883
 20
40.40009637457528
 30
0.0
 10
62.49961943393106
 20
40.62234809706746
 30
0.0
 10
62.49961943393106
 20
40.90104017293908
 30
0.0
 10
62.49961943393106
 20
41.17973224881071
 30
0.0
 10
62.72187115642324
 20
41.40198397130289
 30
0.0
 10
63.00055784933316
 20
41.40198397130289
 30
0.0
 10
63.2792445422431
 20
41.40198397130289
 30
0.0
 10
63.50149626473528
 20
41.17973224881071
 30
0.0
 10
63.50149626473528
 20
40.90104017293908
 30
0.0
 10
63.50149626473528
 20
40.62234809706746
 30
0.0
 10
63.2792445422431
 20
40.40009637457528
 30
0.0
 10
63.00055784933316
 20
40.40009637457528
 30
0.0
  0
SPLINE
  5
8E
330
70
100
AcDbEntity
  8
Ebene 1
 62
     5
420
      255
370
     9
100
AcDbSpline
210
0.0
220
0.0
230
1.0
 70
     9
 71
     3
 72
    17
 73
    13
 74
     0
 42
0.0000000001
 43
0.0000000001
 40
0.0
 40
0.0
 40
0.0
 40
0.0
 40
1.0
 40
1.0
 40
1.0
 40
2.0
 40
2.0
 40
2.0
 40
3.0
 40
3.0
 40
3.0
 40
4.0
 40
4.0
 40
4.0
 40
4.0
 10
63.00055784933316
 20
38.39984702103075
 30
0.0
 10
62.72538084744883
 20
38.39984702103075
 30
0.0
 10
62.49961943393106
 20
38.62209874352293
 30
0.0
 10
62.49961943393106
 20
38.90079081939455
 30
0.0
 10
62.49961943393106
 20
39.17948289526618
 30
0.0
 10
62.72187115642324
 20
39.40173461775836
 30
0.0
 10
63.00055784933316
 20
39.40173461775836
 30
0.0
 10
63.2792445422431
 20
39.40173461775836
 30
0.0
 10
63.50149626473528
 20
39.17948289526618
 30
0.0
 10
63.50149626473528
 20
38.90079081939455
 30
0.0
 10
63.50149626473528
 20
38.62209874352293
 30
0.0
 10
63.2792445422431
 20
38.39984702103075
 30
0.0
 10
63.00055784933316
 20
38.39984702103075
 30
0.0
  0
SPLINE
  5
8F
330
70
100
AcDbEntity
  8
Ebene 1
 62
     5
420
      255
370
     9
100
AcDbSpline
210
0.0
220
0.0
230
1.0
 70
     9
 71
     3
 72
    17
 73
    13
 74
     0
 42
0.0000000001
 43
0.0000000001
 40
0.0
 40
0.0
 40
0.0
 40
0.0
 40
1.0
 40
1.0
 40
1.0
 40
2.0
 40
2.0
 40
2.0
 40
3.0
 40
3.0
 40
3.0
 40
4.0
 40
4.0
 40
4.0
 40
4.0
 10
63.00055784933316
 20
36.39959766748621
 30
0.0
 10
62.72538084744883
 20
36.39959766748621
 30
0.0
 10
62.49961943393106
 20
36.62184938997839
 30
0.0
 10
62.49961943393106
 20
36.90054146585002
 30
0.0
 10
62.49961943393106
 20
37.17923354172164
 30
0.0
 10
62.72187115642324
 20
37.40148526421382
 30
0.0
 10
63.00055784933316
 20
37.40148526421382
 30
0.0
 10
63.2792445422431
 20
37.40148526421382
 30
0.0
 10
63.50149626473528
 20
37.17923354172164
 30
0.0
 10
63.50149626473528
 20
36.90054146585002
 30
0.0
 10
63.50149626473528
 20
36.62184938997839
 30
0.0
 10
63.2792445422431
 20
36.39959766748621
 30
0.0
 10
63.00055784933316
 20
36.39959766748621
 30
0.0
  0
SPLINE
  5
90
330
70
100
AcDbEntity
  8
Ebene 1
 62
     5
420
      255
370
     9
100
AcDbSpline
210
0.0
220
0.0
230
1.0
 70
     9
 71
     3
 72
    17
 73
    13
 74
     0
 42
0.0000000001
 43
0.0000000001
 40
0.0
 40
0.0
 40
0.0
 40
0.0
 40
1.0
 40
1.0
 40
1.0
 40
2.0
 40
2.0
 40
2.0
 40
3.0
 40
3.0
 40
3.0
 40
4.0
 40
4.0
 40
4.0
 40
4.0
 10
63.00055784933316
 20
34.39934831394168
 30
0.0
 10
62.72538084744883
 20
34.39934831394168
 30
0.0
 10
62.49961943393106
 20
34.62160003643385
 30
0.0
 10
62.49961943393106
 20
34.90029211230548
 30
0.0
 10
62.49961943393106
 20
35.1789841881771
 30
0.0
 10
62.72187115642324
 20
35.40123591066929
 30
0.0
 10
63.00055784933316
 20
35.40123591066929
 30
0.0
 10
63.2792445422431
 20
35.40123591066929
 30
0.0
 10
63.50149626473528
 20
35.1789841881771
 30
0.0
 10
63.50149626473528
 20
34.90029211230548
 30
0.0
 10
63.50149626473528
 20
34.62160003643385
 30
0.0
 10
63.2792445422431
 20
34.39934831394168
 30
0.0
 10
63.00055784933316
 20
34.39934831394168
 30
0.0
  0
SPLINE
  5
91
330
70
100
AcDbEntity
  8
Ebene 1
 62
     5
420
      255
370
     9
100
AcDbSpline
210
0.0
220
0.0
230
1.0
 70
     9
 71
     3
 72
    17
 73
    13
 74
     0
 42
0.0000000001
 43
0.0000000001
 40
0.0
 40
0.0
 40
0.0
 40
0.0
 40
1.0
 40
1.0
 40
1.0
 40
2.0
 40
2.0
 40
2.0
 40
3.0
 40
3.0
 40
3.0
 40
4.0
 40
4.0
 40
4.0
 40
4.0
 10
61.00031387875033
 20
42.40034572811981
 30
0.0
 10
60.725136876866
 20
42.40034572811981
 30
0.0
 10
60.49937546334822
 20
42.62259745061199
 30
0.0
 10
60.49937546334822
 20
42.90128952648362
 30
0.0
 10
60.49937546334822
 20
43.17998160235524
 30
0.0
 10
60.7216271858404
 20
43.40223332484742
 30
0.0
 10
61.00031387875033
 20
43.40223332484742
 30
0.0
 10
61.27900057166026
 20
43.40223332484742
 30
0.0
 10
61.50125229415245
 20
43.17998160235524
 30
0.0
 10
61.50125229415245
 20
42.90128952648362
 30
0.0
 10
61.50125229415245
 20
42.62259745061199
 30
0.0
 10
61.27900057166026
 20
42.40034572811981
 30
0.0
 10
61.00031387875033
 20
42.40034572811981
 30
0.0
  0
SPLINE
  5
92
330
70
100
AcDbEntity
  8
Ebene 1
 62
     5
420
      255
370
     9
100
AcDbSpline
210
0.0
220
0.0
230
1.0
 70
     9
 71
     3
 72
    17
 73
    13
 74
     0
 42
0.0000000001
 43
0.0000000001
 40
0.0
 40
0.0
 40
0.0
 40
0.0
 40
1.0
 40
1.0
 40
1.0
 40
2.0
 40
2.0
 40
2.0
 40
3.0
 40
3.0
 40
3.0
 40
4.0
 40
4.0
 40
4.0
 40
4.0
 10
61.00031387875033
 20
40.40009637457528
 30
0.0
 10
60.725136876866
 20
40.40009637457528
 30
0.0
 10
60.49937546334822
 20
40.62234809706746
 30
0.0
 10
60.49937546334822
 20
40.90104017293908
 30
0.0
 10
60.49937546334822
 20
41.17973224881071
 30
0.0
 10
60.7216271858404
 20
41.40198397130289
 30
0.0
 10
61.00031387875033
 20
41.40198397130289
 30
0.0
 10
61.27900057166026
 20
41.40198397130289
 30
0.0
 10
61.50125229415245
 20
41.17973224881071
 30
0.0
 10
61.50125229415245
 20
40.90104017293908
 30
0.0
 10
61.50125229415245
 20
40.62234809706746
 30
0.0
 10
61.27900057166026
 20
40.40009637457528
 30
0.0
 10
61.00031387875033
 20
40.40009637457528
 30
0.0
  0
SPLINE
  5
93
330
70
100
AcDbEntity
  8
Ebene 1
 62
     5
420
      255
370
     9
100
AcDbSpline
210
0.0
220
0.0
230
1.0
 70
     9
 71
     3
 72
    17
 73
    13
 74
     0
 42
0.0000000001
 43
0.0000000001
 40
0.0
 40
0.0
 40
0.0
 40
0.0
 40
1.0
 40
1.0
 40
1.0
 40
2.0
 40
2.0
 40
2.0
 40
3.0
 40
3.0
 40
3.0
 40
4.0
 40
4.0
 40
4.0
 40
4.0
 10
61.00031387875033
 20
38.39984702103075
 30
0.0
 10
60.725136876866
 20
38.39984702103075
 30
0.0
 10
60.49937546334822
 20
38.62209874352293
 30
0.0
 10
60.49937546334822
 20
38.90079081939455
 30
0.0
 10
60.49937546334822
 20
39.17948289526618
 30
0.0
 10
60.7216271858404
 20
39.40173461775836
 30
0.0
 10
61.00031387875033
 20
39.40173461775836
 30
0.0
 10
61.27900057166026
 20
39.40173461775836
 30
0.0
 10
61.50125229415245
 20
39.17948289526618
 30
0.0
 10
61.50125229415245
 20
38.90079081939455
 30
0.0
 10
61.50125229415245
 20
38.62209874352293
 30
0.0
 10
61.27900057166026
 20
38.39984702103075
 30
0.0
 10
61.00031387875033
 20
38.39984702103075
 30
0.0
  0
SPLINE
  5
94
330
70
100
AcDbEntity
  8
Ebene 1
 62
     5
420
      255
370
     9
100
AcDbSpline
210
0.0
220
0.0
230
1.0
 70
     9
 71
     3
 72
    17
 73
    13
 74
     0
 42
0.0000000001
 43
0.0000000001
 40
0.0
 40
0.0
 40
0.0
 40
0.0
 40
1.0
 40
1.0
 40
1.0
 40
2.0
 40
2.0
 40
2.0
 40
3.0
 40
3.0
 40
3.0
 40
4.0
 40
4.0
 40
4.0
 40
4.0
 10
61.00031387875033
 20
36.39959766748621
 30
0.0
 10
60.725136876866
 20
36.39959766748621
 30
0.0
 10
60.49937546334822
 20
36.62184938997839
 30
0.0
 10
60.49937546334822
 20
36.90054146585002
 30
0.0
 10
60.49937546334822
 20
37.17923354172164
 30
0.0
 10
60.7216271858404
 20
37.40148526421382
 30
0.0
 10
61.00031387875033
 20
37.40148526421382
 30
0.0
 10
61.27900057166026
 20
37.40148526421382
 30
0.0
 10
61.50125229415245
 20
37.17923354172164
 30
0.0
 10
61.50125229415245
 20
36.90054146585002
 30
0.0
 10
61.50125229415245
 20
36.62184938997839
 30
0.0
 10
61.27900057166026
 20
36.39959766748621
 30
0.0
 10
61.00031387875033
 20
36.39959766748621
 30
0.0
  0
SPLINE
  5
95
330
70
100
AcDbEntity
  8
Ebene 1
 62
     5
420
      255
370
     9
100
AcDbSpline
210
0.0
220
0.0
230
1.0
 70
     9
 71
     3
 72
    17
 73
    13
 74
     0
 42
0.0000000001
 43
0.0000000001
 40
0.0
 40
0.0
 40
0.0
 40
0.0
 40
1.0
 40
1.0
 40
1.0
 40
2.0
 40
2.0
 40
2.0
 40
3.0
 40
3.0
 40
3.0
 40
4.0
 40
4.0
 40
4.0
 40
4.0
 10
61.00031387875033
 20
34.39934831394168
 30
0.0
 10
60.725136876866
 20
34.39934831394168
 30
0.0
 10
60.49937546334822
 20
34.62160003643385
 30
0.0
 10
60.49937546334822
 20
34.90029211230548
 30
0.0
 10
60.49937546334822
 20
35.1789841881771
 30
0.0
 10
60.7216271858404
 20
35.40123591066929
 30
0.0
 10
61.00031387875033
 20
35.40123591066929
 30
0.0
 10
61.27900057166026
 20
35.40123591066929
 30
0.0
 10
61.50125229415245
 20
35.1789841881771
 30
0.0
 10
61.50125229415245
 20
34.90029211230548
 30
0.0
 10
61.50125229415245
 20
34.62160003643385
 30
0.0
 10
61.27900057166026
 20
34.39934831394168
 30
0.0
 10
61.00031387875033
 20
34.39934831394168
 30
0.0
  0
SPLINE
  5
96
330
70
100
AcDbEntity
  8
Ebene 1
 62
     5
420
      255
370
     9
100
AcDbSpline
210
0.0
220
0.0
230
1.0
 70
     9
 71
     3
 72
    17
 73
    13
 74
     0
 42
0.0000000001
 43
0.0000000001
 40
0.0
 40
0.0
 40
0.0
 40
0.0
 40
1.0
 40
1.0
 40
1.0
 40
2.0
 40
2.0
 40
2.0
 40
3.0
 40
3.0
 40
3.0
 40
4.0
 40
4.0
 40
4.0
 40
4.0
 10
59.00006990816749
 20
42.40034572811981
 30
0.0
 10
58.72489290628316
 20
42.40034572811981
 30
0.0
 10
58.49913149276538
 20
42.62259745061199
 30
0.0
 10
58.49913149276538
 20
42.90128952648362
 30
0.0
 10
58.49913149276538
 20
43.17998160235524
 30
0.0
 10
58.72138321525756
 20
43.40223332484742
 30
0.0
 10
59.00006990816749
 20
43.40223332484742
 30
0.0
 10
59.27875660107742
 20
43.40223332484742
 30
0.0
 10
59.50100832356961
 20
43.17998160235524
 30
0.0
 10
59.50100832356961
 20
42.90128952648362
 30
0.0
 10
59.50100832356961
 20
42.62259745061199
 30
0.0
 10
59.27875660107742
 20
42.40034572811981
 30
0.0
 10
59.00006990816749
 20
42.40034572811981
 30
0.0
  0
SPLINE
  5
97
330
70
100
AcDbEntity
  8
Ebene 1
 62
     5
420
      255
370
     9
100
AcDbSpline
210
0.0
220
0.0
230
1.0
 70
     9
 71
     3
 72
    17
 73
    13
 74
     0
 42
0.0000000001
 43
0.0000000001
 40
0.0
 40
0.0
 40
0.0
 40
0.0
 40
1.0
 40
1.0
 40
1.0
 40
2.0
 40
2.0
 40
2.0
 40
3.0
 40
3.0
 40
3.0
 40
4.0
 40
4.0
 40
4.0
 40
4.0
 10
59.00006990816749
 20
40.40009637457528
 30
0.0
 10
58.72489290628316
 20
40.40009637457528
 30
0.0
 10
58.49913149276538
 20
40.62234809706746
 30
0.0
 10
58.49913149276538
 20
40.90104017293908
 30
0.0
 10
58.49913149276538
 20
41.17973224881071
 30
0.0
 10
58.72138321525756
 20
41.40198397130289
 30
0.0
 10
59.00006990816749
 20
41.40198397130289
 30
0.0
 10
59.27875660107742
 20
41.40198397130289
 30
0.0
 10
59.50100832356961
 20
41.17973224881071
 30
0.0
 10
59.50100832356961
 20
40.90104017293908
 30
0.0
 10
59.50100832356961
 20
40.62234809706746
 30
0.0
 10
59.27875660107742
 20
40.40009637457528
 30
0.0
 10
59.00006990816749
 20
40.40009637457528
 30
0.0
  0
SPLINE
  5
98
330
70
100
AcDbEntity
  8
Ebene 1
 62
     5
420
      255
370
     9
100
AcDbSpline
210
0.0
220
0.0
230
1.0
 70
     9
 71
     3
 72
    17
 73
    13
 74
     0
 42
0.0000000001
 43
0.0000000001
 40
0.0
 40
0.0
 40
0.0
 40
0.0
 40
1.0
 40
1.0
 40
1.0
 40
2.0
 40
2.0
 40
2.0
 40
3.0
 40
3.0
 40
3.0
 40
4.0
 40
4.0
 40
4.0
 40
4.0
 10
59.00006990816749
 20
38.39984702103075
 30
0.0
 10
58.72489290628316
 20
38.39984702103075
 30
0.0
 10
58.49913149276538
 20
38.62209874352293
 30
0.0
 10
58.49913149276538
 20
38.90079081939455
 30
0.0
 10
58.49913149276538
 20
39.17948289526618
 30
0.0
 10
58.72138321525756
 20
39.40173461775836
 30
0.0
 10
59.00006990816749
 20
39.40173461775836
 30
0.0
 10
59.27875660107742
 20
39.40173461775836
 30
0.0
 10
59.50100832356961
 20
39.17948289526618
 30
0.0
 10
59.50100832356961
 20
38.90079081939455
 30
0.0
 10
59.50100832356961
 20
38.62209874352293
 30
0.0
 10
59.27875660107742
 20
38.39984702103075
 30
0.0
 10
59.00006990816749
 20
38.39984702103075
 30
0.0
  0
SPLINE
  5
99
330
70
100
AcDbEntity
  8
Ebene 1
 62
     5
420
      255
370
     9
100
AcDbSpline
210
0.0
220
0.0
230
1.0
 70
     9
 71
     3
 72
    17
 73
    13
 74
     0
 42
0.0000000001
 43
0.0000000001
 40
0.0
 40
0.0
 40
0.0
 40
0.0
 40
1.0
 40
1.0
 40
1.0
 40
2.0
 40
2.0
 40
2.0
 40
3.0
 40
3.0
 40
3.0
 40
4.0
 40
4.0
 40
4.0
 40
4.0
 10
59.00006990816749
 20
36.39959766748621
 30
0.0
 10
58.72489290628316
 20
36.39959766748621
 30
0.0
 10
58.49913149276538
 20
36.62184938997839
 30
0.0
 10
58.49913149276538
 20
36.90054146585002
 30
0.0
 10
58.49913149276538
 20
37.17923354172164
 30
0.0
 10
58.72138321525756
 20
37.40148526421382
 30
0.0
 10
59.00006990816749
 20
37.40148526421382
 30
0.0
 10
59.27875660107742
 20
37.40148526421382
 30
0.0
 10
59.50100832356961
 20
37.17923354172164
 30
0.0
 10
59.50100832356961
 20
36.90054146585002
 30
0.0
 10
59.50100832356961
 20
36.62184938997839
 30
0.0
 10
59.27875660107742
 20
36.39959766748621
 30
0.0
 10
59.00006990816749
 20
36.39959766748621
 30
0.0
  0
SPLINE
  5
9A
330
70
100
AcDbEntity
  8
Ebene 1
 62
     5
420
      255
370
     9
100
AcDbSpline
210
0.0
220
0.0
230
1.0
 70
     9
 71
     3
 72
    17
 73
    13
 74
     0
 42
0.0000000001
 43
0.0000000001
 40
0.0
 40
0.0
 40
0.0
 40
0.0
 40
1.0
 40
1.0
 40
1.0
 40
2.0
 40
2.0
 40
2.0
 40
3.0
 40
3.0
 40
3.0
 40
4.0
 40
4.0
 40
4.0
 40
4.0
 10
59.00006990816749
 20
34.39934831394168
 30
0.0
 10
58.72489290628316
 20
34.39934831394168
 30
0.0
 10
58.49913149276538
 20
34.62160003643385
 30
0.0
 10
58.49913149276538
 20
34.90029211230548
 30
0.0
 10
58.49913149276538
 20
35.1789841881771
 30
0.0
 10
58.72138321525756
 20
35.40123591066929
 30
0.0
 10
59.00006990816749
 20
35.40123591066929
 30
0.0
 10
59.27875660107742
 20
35.40123591066929
 30
0.0
 10
59.50100832356961
 20
35.1789841881771
 30
0.0
 10
59.50100832356961
 20
34.90029211230548
 30
0.0
 10
59.50100832356961
 20
34.62160003643385
 30
0.0
 10
59.27875660107742
 20
34.39934831394168
 30
0.0
 10
59.00006990816749
 20
34.39934831394168
 30
0.0
  0
SPLINE
  5
9B
330
70
100
AcDbEntity
  8
Ebene 1
 62
     5
420
      255
370
     9
100
AcDbSpline
210
0.0
220
0.0
230
1.0
 70
    11
 71
     3
 72
    44
 73
    40
 74
     0
 42
0.0000000001
 43
0.0000000001
 40
0.0
 40
0.0
 40
0.0
 40
0.0
 40
1.0
 40
1.0
 40
1.0
 40
2.0
 40
2.0
 40
2.0
 40
3.0
 40
3.0
 40
3.0
 40
4.0
 40
4.0
 40
4.0
 40
5.0
 40
5.0
 40
5.0
 40
6.0
 40
6.0
 40
6.0
 40
7.0
 40
7.0
 40
7.0
 40
8.0
 40
8.0
 40
8.0
 40
9.0
 40
9.0
 40
9.0
 40
10.0
 40
10.0
 40
10.0
 40
11.0
 40
11.0
 40
11.0
 40
12.0
 40
12.0
 40
12.0
 40
13.0
 40
13.0
 40
13.0
 40
13.0
 10
69.96440926767684
 20
38.07176627160105
 30
0.0
 10
69.96440926767684
 20
38.07176627160105
 30
0.0
 10
70.585301601506
 20
46.94765645018176
 30
0.0
 10
70.585301601506
 20
46.94765645018176
 30
0.0
 10
70.585301601506
 20
46.94765645018176
 30
0.0
 10
53.42971654991381
 20
46.94765645018176
 30
0.0
 10
53.42971654991381
 20
46.94765645018176
 30
0.0
 10
53.42971654991381
 20
46.94765645018176
 30
0.0
 10
53.42971654991381
 20
36.99932419592786
 30
0.0
 10
53.42971654991381
 20
36.99932419592786
 30
0.0
 10
53.42971654991381
 20
36.99932419592786
 30
0.0
 10
55.67690927124871
 20
36.99932419592786
 30
0.0
 10
55.67690927124871
 20
36.99932419592786
 30
0.0
 10
56.06495621396855
 20
36.99932419592786
 30
0.0
 10
56.3789336037555
 20
36.6853521891026
 30
0.0
 10
56.3789336037555
 20
36.29729448045938
 30
0.0
 10
56.3789336037555
 20
36.29729448045938
 30
0.0
 10
56.40363063201539
 20
29.79560262146197
 30
0.0
 10
56.40363063201539
 20
29.79560262146197
 30
0.0
 10
56.40363063201539
 20
29.79560262146197
 30
0.0
 10
72.38445965498415
 20
29.79560262146197
 30
0.0
 10
72.38445965498415
 20
29.79560262146197
 30
0.0
 10
72.38445965498415
 20
29.79560262146197
 30
0.0
 10
87.4762817879842
 20
28.73726928839322
 30
0.0
 10
87.4762817879842
 20
28.73726928839322
 30
0.0
 10
87.4762817879842
 20
28.73726928839322
 30
0.0
 10
88.80626090006492
 20
36.05388233554139
 30
0.0
 10
88.80626090006492
 20
36.05388233554139
 30
0.0
 10
88.80626090006492
 20
36.05388233554139
 30
0.0
 10
70.6099770979191
 20
37.32741032831925
 30
0.0
 10
70.6099770979191
 20
37.32741032831925
 30
0.0
 10
70.22543984622487
 20
37.35563319648983
 30
0.0
 10
69.9326497936722
 20
37.69077100870259
 30
0.0
 10
69.96085651295768
 20
38.07529749447343
 30
0.0
 10
69.96085651295768
 20
38.07529749447343
 30
0.0
 10
69.96085651295768
 20
38.07529749447343
 30
0.0
 10
69.96085651295768
 20
38.07529749447343
 30
0.0
 10
69.96085651295768
 20
38.07529749447343
 30
0.0
 10
69.96440926767684
 20
38.07176627160105
 30
0.0
 10
69.96440926767684
 20
38.07176627160105
 30
0.0
  0
SPLINE
  5
9C
330
70
100
AcDbEntity
  8
Ebene 1
 62
     5
420
      255
370
     9
100
AcDbSpline
210
0.0
220
0.0
230
1.0
 70
     9
 71
     3
 72
    17
 73
    13
 74
     0
 42
0.0000000001
 43
0.0000000001
 40
0.0
 40
0.0
 40
0.0
 40
0.0
 40
1.0
 40
1.0
 40
1.0
 40
2.0
 40
2.0
 40
2.0
 40
3.0
 40
3.0
 40
3.0
 40
4.0
 40
4.0
 40
4.0
 40
4.0
 10
45.11299656987661
 20
72.93119717748375
 30
0.0
 10
44.53443584682246
 20
72.93119717748375
 30
0.0
 10
44.06172568255263
 20
73.40039159489609
 30
0.0
 10
44.06172568255263
 20
73.98247479350986
 30
0.0
 10
44.06172568255263
 20
74.56455799212363
 30
0.0
 10
44.53092615579687
 20
75.03375257775352
 30
0.0
 10
45.11299656987661
 20
75.03375257775352
 30
0.0
 10
45.69506698395636
 20
75.03375257775352
 30
0.0
 10
46.1642674572006
 20
74.56455799212363
 30
0.0
 10
46.1642674572006
 20
73.98247479350986
 30
0.0
 10
46.1642674572006
 20
73.40039159489609
 30
0.0
 10
45.69506698395636
 20
72.93119717748375
 30
0.0
 10
45.11299656987661
 20
72.93119717748375
 30
0.0
  0
SPLINE
  5
9D
330
70
100
AcDbEntity
  8
Ebene 1
 62
     5
420
      255
370
     9
100
AcDbSpline
210
0.0
220
0.0
230
1.0
 70
     9
 71
     3
 72
    17
 73
    13
 74
     0
 42
0.0000000001
 43
0.0000000001
 40
0.0
 40
0.0
 40
0.0
 40
0.0
 40
1.0
 40
1.0
 40
1.0
 40
2.0
 40
2.0
 40
2.0
 40
3.0
 40
3.0
 40
3.0
 40
4.0
 40
4.0
 40
4.0
 40
4.0
 10
30.27163287865423
 20
73.94014150055932
 30
0.0
 10
29.69307215560009
 20
73.94014150055932
 30
0.0
 10
29.22036199133025
 20
74.40933591797166
 30
0.0
 10
29.22036199133025
 20
74.99141928480298
 30
0.0
 10
29.22036199133025
 20
75.5735026516343
 30
0.0
 10
29.68956246457448
 20
76.04269706904664
 30
0.0
 10
30.27163287865423
 20
76.04269706904664
 30
0.0
 10
30.85370329273397
 20
76.04269706904664
 30
0.0
 10
31.32290376597822
 20
75.5735026516343
 30
0.0
 10
31.32290376597822
 20
74.99141928480298
 30
0.0
 10
31.32290376597822
 20
74.40933591797166
 30
0.0
 10
30.85370329273397
 20
73.94014150055932
 30
0.0
 10
30.27163287865423
 20
73.94014150055932
 30
0.0
  0
SPLINE
  5
9E
330
70
100
AcDbEntity
  8
Ebene 1
 62
     5
420
      255
370
     9
100
AcDbSpline
210
0.0
220
0.0
230
1.0
 70
    11
 71
     3
 72
    44
 73
    40
 74
     0
 42
0.0000000001
 43
0.0000000001
 40
0.0
 40
0.0
 40
0.0
 40
0.0
 40
1.0
 40
1.0
 40
1.0
 40
2.0
 40
2.0
 40
2.0
 40
3.0
 40
3.0
 40
3.0
 40
4.0
 40
4.0
 40
4.0
 40
5.0
 40
5.0
 40
5.0
 40
6.0
 40
6.0
 40
6.0
 40
7.0
 40
7.0
 40
7.0
 40
8.0
 40
8.0
 40
8.0
 40
9.0
 40
9.0
 40
9.0
 40
10.0
 40
10.0
 40
10.0
 40
11.0
 40
11.0
 40
11.0
 40
12.0
 40
12.0
 40
12.0
 40
13.0
 40
13.0
 40
13.0
 40
13.0
 10
65.77519359297713
 20
77.59139175512692
 30
0.0
 10
65.77519359297713
 20
77.59139175512692
 30
0.0
 10
25.76665376736728
 20
77.59139175512692
 30
0.0
 10
25.76665376736728
 20
77.59139175512692
 30
0.0
 10
25.76665376736728
 20
77.59139175512692
 30
0.0
 10
25.75606009875014
 20
71.99633620118039
 30
0.0
 10
25.75606009875014
 20
71.99633620118039
 30
0.0
 10
25.75606009875014
 20
71.99633620118039
 30
0.0
 10
47.56478489934179
 20
70.47233630922064
 30
0.0
 10
47.56478489934179
 20
70.47233630922064
 30
0.0
 10
47.94932215103602
 20
70.44411411392028
 30
0.0
 10
48.24211220358869
 20
70.11250281448841
 30
0.0
 10
48.21390548430321
 20
69.72444779732604
 30
0.0
 10
48.21390548430321
 20
69.72444779732604
 30
0.0
 10
46.28773106665324
 20
41.89028194506248
 30
0.0
 10
46.28773106665324
 20
41.89028194506248
 30
0.0
 10
46.23833701013348
 20
41.1670864242065
 30
0.0
 10
47.29667034320222
 20
41.04008620891978
 30
0.0
 10
47.42015548450164
 20
41.75269882708201
 30
0.0
 10
47.42015548450164
 20
41.75269882708201
 30
0.0
 10
50.21061823201367
 20
57.65944887693462
 30
0.0
 10
50.21061823201367
 20
57.65944887693462
 30
0.0
 10
50.27764687104856
 20
58.04044952279477
 30
0.0
 10
50.6409967855085
 20
58.29444860762778
 30
0.0
 10
51.02200281433035
 20
58.22742131433332
 30
0.0
 10
51.02200281433035
 20
58.22742131433332
 30
0.0
 10
66.47719639363713
 20
55.5039764399328
 30
0.0
 10
66.47719639363713
 20
55.5039764399328
 30
0.0
 10
66.47719639363713
 20
55.5039764399328
 30
0.0
 10
66.47719639363713
 20
76.89289179588403
 30
0.0
 10
66.47719639363713
 20
76.89289179588403
 30
0.0
 10
66.47719639363713
 20
77.28094735975344
 30
0.0
 10
66.16321900385017
 20
77.59139180243811
 30
0.0
 10
65.77870328400273
 20
77.59139180243811
 30
0.0
 10
65.77870328400273
 20
77.59139180243811
 30
0.0
 10
65.77517206113035
 20
77.59139180243811
 30
0.0
 10
65.77517206113035
 20
77.59139180243811
 30
0.0
 10
65.77517206113035
 20
77.59139180243811
 30
0.0
 10
65.77519359297713
 20
77.59139175512692
 30
0.0
 10
65.77519359297713
 20
77.59139175512692
 30
0.0
  0
SPLINE
  5
9F
330
70
100
AcDbEntity
  8
Ebene 1
 62
     5
420
      255
370
     9
100
AcDbSpline
210
0.0
220
0.0
230
1.0
 70
     9
 71
     3
 72
    20
 73
    16
 74
     0
 42
0.0000000001
 43
0.0000000001
 40
0.0
 40
0.0
 40
0.0
 40
0.0
 40
1.0
 40
1.0
 40
1.0
 40
2.0
 40
2.0
 40
2.0
 40
3.0
 40
3.0
 40
3.0
 40
4.0
 40
4.0
 40
4.0
 40
5.0
 40
5.0
 40
5.0
 40
5.0
 10
5.841753101502201
 20
34.6992115781625
 30
0.0
 10
5.841753101502201
 20
41.46196093051641
 30
0.0
 10
11.32744862116756
 20
46.94765645018176
 30
0.0
 10
18.09019797352147
 20
46.94765645018176
 30
0.0
 10
24.85294732587538
 20
46.94765645018176
 30
0.0
 10
30.33864822850244
 20
41.46196093051641
 30
0.0
 10
30.33864822850244
 20
34.6992115781625
 30
0.0
 10
30.33864822850244
 20
27.93646222580859
 30
0.0
 10
24.85648393170946
 20
22.45076670614323
 30
0.0
 10
18.09020335648316
 20
22.45076670614323
 30
0.0
 10
11.32745400412925
 20
22.45076670614323
 30
0.0
 10
5.841758484463897
 20
27.93646222580859
 30
0.0
 10
5.841758484463897
 20
34.6992115781625
 30
0.0
 10
5.841758484463897
 20
34.6992115781625
 30
0.0
 10
5.841753101502201
 20
34.6992115781625
 30
0.0
 10
5.841753101502201
 20
34.6992115781625
 30
0.0
  0
SPLINE
  5
A0
330
70
100
AcDbEntity
  8
Ebene 1
 62
     5
420
      255
370
     9
100
AcDbSpline
210
0.0
220
0.0
230
1.0
 70
     9
 71
     3
 72
    20
 73
    16
 74
     0
 42
0.0000000001
 43
0.0000000001
 40
0.0
 40
0.0
 40
0.0
 40
0.0
 40
1.0
 40
1.0
 40
1.0
 40
2.0
 40
2.0
 40
2.0
 40
3.0
 40
3.0
 40
3.0
 40
4.0
 40
4.0
 40
4.0
 40
5.0
 40
5.0
 40
5.0
 40
5.0
 10
3.340559949593862
 20
34.70273741807318
 30
0.0
 10
3.340559949593862
 20
26.55709982313152
 30
0.0
 10
9.944560378579797
 20
19.95309939414558
 30
0.0
 10
18.09019797352147
 20
19.95309939414558
 30
0.0
 10
26.23583556846314
 20
19.95309939414558
 30
0.0
 10
32.83984138041077
 20
26.55709982313152
 30
0.0
 10
32.83984138041077
 20
34.70273741807318
 30
0.0
 10
32.83984138041077
 20
42.84837501301486
 30
0.0
 10
26.23584095142484
 20
49.45237544200079
 30
0.0
 10
18.09020335648316
 20
49.45237544200079
 30
0.0
 10
9.944565761541493
 20
49.45237544200079
 30
0.0
 10
3.340565332555557
 20
42.84837501301486
 30
0.0
 10
3.340565332555557
 20
34.70273741807318
 30
0.0
 10
3.340565332555557
 20
34.70273741807318
 30
0.0
 10
3.340559949593862
 20
34.70273741807318
 30
0.0
 10
3.340559949593862
 20
34.70273741807318
 30
0.0
  0
SPLINE
  5
A1
330
70
100
AcDbEntity
  8
Ebene 1
 62
     5
420
      255
370
     9
100
AcDbSpline
210
0.0
220
0.0
230
1.0
 70
     9
 71
     3
 72
    17
 73
    13
 74
     0
 42
0.0000000001
 43
0.0000000001
 40
0.0
 40
0.0
 40
0.0
 40
0.0
 40
1.0
 40
1.0
 40
1.0
 40
2.0
 40
2.0
 40
2.0
 40
3.0
 40
3.0
 40
3.0
 40
4.0
 40
4.0
 40
4.0
 40
4.0
 10
63.96566923449686
 20
87.189016434268
 30
0.0
 10
63.96566923449686
 20
87.77109980109932
 30
0.0
 10
64.43486432477941
 20
88.24029421851165
 30
0.0
 10
65.01694550478255
 20
88.24029421851165
 30
0.0
 10
65.59902668478568
 20
88.24029421851165
 30
0.0
 10
66.06822177506824
 20
87.77109980109932
 30
0.0
 10
66.06822177506824
 20
87.189016434268
 30
0.0
 10
66.06822177506824
 20
86.60693289921912
 30
0.0
 10
65.59550084487501
 20
86.13773848180677
 30
0.0
 10
65.01694550478255
 20
86.13773848180677
 30
0.0
 10
64.4383901646901
 20
86.13773848180677
 30
0.0
 10
63.96566923449686
 20
86.60693289921912
 30
0.0
 10
63.96566923449686
 20
87.189016434268
 30
0.0
  0
SPLINE
  5
A2
330
70
100
AcDbEntity
  8
Ebene 1
 62
     5
420
      255
370
     9
100
AcDbSpline
210
0.0
220
0.0
230
1.0
 70
    11
 71
     3
 72
    17
 73
    13
 74
     0
 42
0.0000000001
 43
0.0000000001
 40
0.0
 40
0.0
 40
0.0
 40
0.0
 40
1.0
 40
1.0
 40
1.0
 40
2.0
 40
2.0
 40
2.0
 40
3.0
 40
3.0
 40
3.0
 40
4.0
 40
4.0
 40
4.0
 40
4.0
 10
102.4854648757729
 20
29.02301842704791
 30
0.0
 10
102.4854648757729
 20
35.78576777940182
 30
0.0
 10
107.9711550124766
 20
41.27146329906717
 30
0.0
 10
114.7339097477922
 20
41.27146329906717
 30
0.0
 10
121.4966644831078
 20
41.27146329906717
 30
0.0
 10
126.9823546198115
 20
35.78576777940182
 30
0.0
 10
126.9823546198115
 20
29.02301842704791
 30
0.0
 10
126.9823546198115
 20
22.260269074694
 30
0.0
 10
121.5001849400568
 20
16.77457355502864
 30
0.0
 10
114.7339097477922
 20
16.77457355502864
 30
0.0
 10
107.9711550124766
 20
16.77457355502864
 30
0.0
 10
102.4854648757729
 20
22.260269074694
 30
0.0
 10
102.4854648757729
 20
29.02301842704791
 30
0.0
  0
SPLINE
  5
A3
330
70
100
AcDbEntity
  8
Ebene 1
 62
     5
420
      255
370
     9
100
AcDbSpline
210
0.0
220
0.0
230
1.0
 70
    11
 71
     3
 72
    17
 73
    13
 74
     0
 42
0.0000000001
 43
0.0000000001
 40
0.0
 40
0.0
 40
0.0
 40
0.0
 40
1.0
 40
1.0
 40
1.0
 40
2.0
 40
2.0
 40
2.0
 40
3.0
 40
3.0
 40
3.0
 40
4.0
 40
4.0
 40
4.0
 40
4.0
 10
126.036912759425
 20
7.79990602933177
 30
0.0
 10
126.036912759425
 20
8.381987209334905
 30
0.0
 10
126.5061024667458
 20
8.851182299617454
 30
0.0
 10
127.0881944126724
 20
8.851182299617454
 30
0.0
 10
127.6702863585989
 20
8.851182299617454
 30
0.0
 10
128.1394760659197
 20
8.381987209334905
 30
0.0
 10
128.1394760659197
 20
7.79990602933177
 30
0.0
 10
128.1394760659197
 20
7.217824849328636
 30
0.0
 10
127.6667551357265
 20
6.748629759046086
 30
0.0
 10
127.0881944126724
 20
6.748629759046086
 30
0.0
 10
126.5096336896182
 20
6.748629759046086
 30
0.0
 10
126.036912759425
 20
7.217824849328636
 30
0.0
 10
126.036912759425
 20
7.79990602933177
 30
0.0
  0
SPLINE
  5
A4
330
70
100
AcDbEntity
  8
Ebene 1
 62
     5
420
      255
370
     9
100
AcDbSpline
210
0.0
220
0.0
230
1.0
 70
    11
 71
     3
 72
    17
 73
    13
 74
     0
 42
0.0000000001
 43
0.0000000001
 40
0.0
 40
0.0
 40
0.0
 40
0.0
 40
1.0
 40
1.0
 40
1.0
 40
2.0
 40
2.0
 40
2.0
 40
3.0
 40
3.0
 40
3.0
 40
4.0
 40
4.0
 40
4.0
 40
4.0
 10
128.1394652999964
 20
87.22782203691476
 30
0.0
 10
128.1394652999964
 20
86.64573867008343
 30
0.0
 10
127.6702755926755
 20
86.1765442526711
 30
0.0
 10
127.088183646749
 20
86.1765442526711
 30
0.0
 10
126.5060917008224
 20
86.1765442526711
 30
0.0
 10
126.0369019935016
 20
86.64573867008343
 30
0.0
 10
126.0369019935016
 20
87.22782203691476
 30
0.0
 10
126.0369019935016
 20
87.80990540374608
 30
0.0
 10
126.5096229236948
 20
88.27909982115842
 30
0.0
 10
127.088183646749
 20
88.27909982115842
 30
0.0
 10
127.6667443698031
 20
88.27909982115842
 30
0.0
 10
128.1394652999964
 20
87.80990540374608
 30
0.0
 10
128.1394652999964
 20
87.22782203691476
 30
0.0
  0
SPLINE
  5
A5
330
70
100
AcDbEntity
  8
Ebene 1
 62
     5
420
      255
370
     9
100
AcDbSpline
210
0.0
220
0.0
230
1.0
 70
    11
 71
     3
 72
    59
 73
    55
 74
     0
 42
0.0000000001
 43
0.0000000001
 40
0.0
 40
0.0
 40
0.0
 40
0.0
 40
1.0
 40
1.0
 40
1.0
 40
2.0
 40
2.0
 40
2.0
 40
3.0
 40
3.0
 40
3.0
 40
4.0
 40
4.0
 40
4.0
 40
5.0
 40
5.0
 40
5.0
 40
6.0
 40
6.0
 40
6.0
 40
7.0
 40
7.0
 40
7.0
 40
8.0
 40
8.0
 40
8.0
 40
9.0
 40
9.0
 40
9.0
 40
10.0
 40
10.0
 40
10.0
 40
11.0
 40
11.0
 40
11.0
 40
12.0
 40
12.0
 40
12.0
 40
13.0
 40
13.0
 40
13.0
 40
14.0
 40
14.0
 40
14.0
 40
15.0
 40
15.0
 40
15.0
 40
16.0
 40
16.0
 40
16.0
 40
17.0
 40
17.0
 40
17.0
 40
18.0
 40
18.0
 40
18.0
 40
18.0
 10
128.9931922590114
 20
89.82779424965556
 30
0.0
 10
128.9931922590114
 20
89.82779424965556
 30
0.0
 10
61.78197392932447
 20
89.82779424965556
 30
0.0
 10
61.78197392932447
 20
89.82779424965556
 30
0.0
 10
61.78197392932447
 20
89.82779424965556
 30
0.0
 10
61.76786518672003
 20
84.85715544485648
 30
0.0
 10
61.76786518672003
 20
84.85715544485648
 30
0.0
 10
61.76786518672003
 20
84.85715544485648
 30
0.0
 10
80.08761798128018
 20
84.85715544485648
 30
0.0
 10
80.08761798128018
 20
84.85715544485648
 30
0.0
 10
80.4756756899234
 20
84.85715544485648
 30
0.0
 10
80.78964769674866
 20
84.54318310159612
 30
0.0
 10
80.78964769674866
 20
84.15512774799863
 30
0.0
 10
80.78964769674866
 20
84.15512774799863
 30
0.0
 10
80.78964769674866
 20
81.84443357327996
 30
0.0
 10
80.78964769674866
 20
81.84443357327996
 30
0.0
 10
80.78964769674866
 20
81.84443357327996
 30
0.0
 10
99.08470346304893
 20
81.84443357327996
 30
0.0
 10
99.08470346304893
 20
81.84443357327996
 30
0.0
 10
99.47276117169215
 20
81.84443357327996
 30
0.0
 10
99.78672779555571
 20
81.533989424976
 30
0.0
 10
99.78672779555571
 20
81.14593373494342
 30
0.0
 10
99.78672779555571
 20
81.14593373494342
 30
0.0
 10
99.8149452807646
 20
18.69721136684453
 30
0.0
 10
99.8149452807646
 20
18.69721136684453
 30
0.0
 10
104.4222221961166
 20
16.92273957570286
 30
0.0
 10
109.0118645289536
 20
14.73551843061978
 30
0.0
 10
113.3863068191198
 20
12.20962825045156
 30
0.0
 10
119.0378029419745
 20
8.946433806822916
 30
0.0
 10
124.6187499688453
 20
4.801294918970311
 30
0.0
 10
129.6916961345693
 20
0.1128806219788955
 30
0.0
 10
129.6916961345693
 20
0.1128806219788955
 30
0.0
 10
129.6916961345693
 20
0.1763780381414066
 30
0.0
 10
129.6916961345693
 20
0.1763780381414066
 30
0.0
 10
129.6916961345693
 20
0.1763780381414066
 30
0.0
 10
129.6916961345693
 20
0.1763780381414066
 30
0.0
 10
129.6916961345693
 20
0.1763780381414066
 30
0.0
 10
129.6916961345693
 20
0.1763780381414066
 30
0.0
 10
129.6916961345693
 20
15.06359918004948
 30
0.0
 10
129.6916961345693
 20
15.06359918004948
 30
0.0
 10
129.6916961345693
 20
15.06359918004948
 30
0.0
 10
129.6916961345693
 20
15.06359918004948
 30
0.0
 10
129.6916961345693
 20
15.06359918004948
 30
0.0
 10
129.6916961345693
 20
15.06359918004948
 30
0.0
 10
129.6916961345693
 20
89.13282207008201
 30
0.0
 10
129.6916961345693
 20
89.13282207008201
 30
0.0
 10
129.6916961345693
 20
89.51734985953889
 30
0.0
 10
129.3812499676547
 20
89.8313220766361
 30
0.0
 10
128.9931922590114
 20
89.8313220766361
 30
0.0
 10
128.9931922590114
 20
89.8313220766361
 30
0.0
 10
128.9931922590114
 20
89.8313220766361
 30
0.0
 10
128.9931922590114
 20
89.8313220766361
 30
0.0
 10
128.9931922590114
 20
89.8313220766361
 30
0.0
 10
128.9931922590114
 20
89.82779424965556
 30
0.0
 10
128.9931922590114
 20
89.82779424965556
 30
0.0
  0
SPLINE
  5
A6
330
70
100
AcDbEntity
  8
Ebene 1
 62
     5
420
      255
370
     9
100
AcDbSpline
210
0.0
220
0.0
230
1.0
 70
    11
 71
     3
 72
    17
 73
    13
 74
     0
 42
0.0000000001
 43
0.0000000001
 40
0.0
 40
0.0
 40
0.0
 40
0.0
 40
1.0
 40
1.0
 40
1.0
 40
2.0
 40
2.0
 40
2.0
 40
3.0
 40
3.0
 40
3.0
 40
4.0
 40
4.0
 40
4.0
 40
4.0
 10
35.11525696991625
 20
13.62425443519719
 30
0.0
 10
35.11525696991625
 20
13.04217325519405
 30
0.0
 10
34.6460618796337
 20
12.5729781649115
 30
0.0
 10
34.06397800814972
 20
12.5729781649115
 30
0.0
 10
33.48189413666574
 20
12.5729781649115
 30
0.0
 10
33.01269904638318
 20
13.04217325519405
 30
0.0
 10
33.01269904638318
 20
13.62425443519719
 30
0.0
 10
33.01269904638318
 20
14.20633561520032
 30
0.0
 10
33.48541997657642
 20
14.67553070548287
 30
0.0
 10
34.06397800814972
 20
14.67553070548287
 30
0.0
 10
34.64253603972301
 20
14.67553070548287
 30
0.0
 10
35.11525696991625
 20
14.20633561520032
 30
0.0
 10
35.11525696991625
 20
13.62425443519719
 30
0.0
  0
SPLINE
  5
A7
330
70
100
AcDbEntity
  8
Ebene 1
 62
     5
420
      255
370
     9
100
AcDbSpline
210
0.0
220
0.0
230
1.0
 70
    11
 71
     3
 72
    17
 73
    13
 74
     0
 42
0.0000000001
 43
0.0000000001
 40
0.0
 40
0.0
 40
0.0
 40
0.0
 40
1.0
 40
1.0
 40
1.0
 40
2.0
 40
2.0
 40
2.0
 40
3.0
 40
3.0
 40
3.0
 40
4.0
 40
4.0
 40
4.0
 40
4.0
 10
23.54061894519489
 20
12.85167024078313
 30
0.0
 10
23.54061894519489
 20
12.26958906077999
 30
0.0
 10
23.07142385491234
 20
11.80039397049744
 30
0.0
 10
22.48933998342836
 20
11.80039397049744
 30
0.0
 10
21.90725611194438
 20
11.80039397049744
 30
0.0
 10
21.43806102166183
 20
12.26958906077999
 30
0.0
 10
21.43806102166183
 20
12.85167024078313
 30
0.0
 10
21.43806102166183
 20
13.43375142078626
 30
0.0
 10
21.91078195185506
 20
13.90294651106881
 30
0.0
 10
22.48933998342836
 20
13.90294651106881
 30
0.0
 10
23.06789801500165
 20
13.90294651106881
 30
0.0
 10
23.54061894519489
 20
13.43375142078626
 30
0.0
 10
23.54061894519489
 20
12.85167024078313
 30
0.0
  0
SPLINE
  5
A8
330
70
100
AcDbEntity
  8
Ebene 1
 62
     5
420
      255
370
     9
100
AcDbSpline
210
0.0
220
0.0
230
1.0
 70
    11
 71
     3
 72
    17
 73
    13
 74
     0
 42
0.0000000001
 43
0.0000000001
 40
0.0
 40
0.0
 40
0.0
 40
0.0
 40
1.0
 40
1.0
 40
1.0
 40
2.0
 40
2.0
 40
2.0
 40
3.0
 40
3.0
 40
3.0
 40
4.0
 40
4.0
 40
4.0
 40
4.0
 10
39.39445313583864
 20
23.02931128031229
 30
0.0
 10
39.39445313583864
 20
23.30800335618391
 30
0.0
 10
39.61670485833082
 20
23.53025507867609
 30
0.0
 10
39.89539693420244
 20
23.53025507867609
 30
0.0
 10
40.17408901007406
 20
23.53025507867609
 30
0.0
 10
40.39634073256624
 20
23.30800335618391
 30
0.0
 10
40.39634073256624
 20
23.02931128031229
 30
0.0
 10
40.39634073256624
 20
22.75061920444066
 30
0.0
 10
40.17056317016338
 20
22.52836748194848
 30
0.0
 10
39.89539693420244
 20
22.52836748194848
 30
0.0
 10
39.6202306982415
 20
22.52836748194848
 30
0.0
 10
39.39445313583864
 20
22.75061920444066
 30
0.0
 10
39.39445313583864
 20
23.02931128031229
 30
0.0
  0
SPLINE
  5
A9
330
70
100
AcDbEntity
  8
Ebene 1
 62
     5
420
      255
370
     9
100
AcDbSpline
210
0.0
220
0.0
230
1.0
 70
    11
 71
     3
 72
    17
 73
    13
 74
     0
 42
0.0000000001
 43
0.0000000001
 40
0.0
 40
0.0
 40
0.0
 40
0.0
 40
1.0
 40
1.0
 40
1.0
 40
2.0
 40
2.0
 40
2.0
 40
3.0
 40
3.0
 40
3.0
 40
4.0
 40
4.0
 40
4.0
 40
4.0
 10
39.39445313583864
 20
21.02906192676776
 30
0.0
 10
39.39445313583864
 20
21.30775400263938
 30
0.0
 10
39.61670485833082
 20
21.53000572513156
 30
0.0
 10
39.89539693420244
 20
21.53000572513156
 30
0.0
 10
40.17408901007406
 20
21.53000572513156
 30
0.0
 10
40.39634073256624
 20
21.30775400263938
 30
0.0
 10
40.39634073256624
 20
21.02906192676776
 30
0.0
 10
40.39634073256624
 20
20.75036985089613
 30
0.0
 10
40.17056317016338
 20
20.52811812840395
 30
0.0
 10
39.89539693420244
 20
20.52811812840395
 30
0.0
 10
39.6202306982415
 20
20.52811812840395
 30
0.0
 10
39.39445313583864
 20
20.75036985089613
 30
0.0
 10
39.39445313583864
 20
21.02906192676776
 30
0.0
  0
SPLINE
  5
AA
330
70
100
AcDbEntity
  8
Ebene 1
 62
     5
420
      255
370
     9
100
AcDbSpline
210
0.0
220
0.0
230
1.0
 70
    11
 71
     3
 72
    17
 73
    13
 74
     0
 42
0.0000000001
 43
0.0000000001
 40
0.0
 40
0.0
 40
0.0
 40
0.0
 40
1.0
 40
1.0
 40
1.0
 40
2.0
 40
2.0
 40
2.0
 40
3.0
 40
3.0
 40
3.0
 40
4.0
 40
4.0
 40
4.0
 40
4.0
 10
39.39445313583864
 20
19.02881257322322
 30
0.0
 10
39.39445313583864
 20
19.30750464909484
 30
0.0
 10
39.61670485833082
 20
19.52975637158703
 30
0.0
 10
39.89539693420244
 20
19.52975637158703
 30
0.0
 10
40.17408901007406
 20
19.52975637158703
 30
0.0
 10
40.39634073256624
 20
19.30750464909484
 30
0.0
 10
40.39634073256624
 20
19.02881257322322
 30
0.0
 10
40.39634073256624
 20
18.75012049735159
 30
0.0
 10
40.17056317016338
 20
18.52786877485941
 30
0.0
 10
39.89539693420244
 20
18.52786877485941
 30
0.0
 10
39.6202306982415
 20
18.52786877485941
 30
0.0
 10
39.39445313583864
 20
18.75012049735159
 30
0.0
 10
39.39445313583864
 20
19.02881257322322
 30
0.0
  0
SPLINE
  5
AB
330
70
100
AcDbEntity
  8
Ebene 1
 62
     5
420
      255
370
     9
100
AcDbSpline
210
0.0
220
0.0
230
1.0
 70
    11
 71
     3
 72
    17
 73
    13
 74
     0
 42
0.0000000001
 43
0.0000000001
 40
0.0
 40
0.0
 40
0.0
 40
0.0
 40
1.0
 40
1.0
 40
1.0
 40
2.0
 40
2.0
 40
2.0
 40
3.0
 40
3.0
 40
3.0
 40
4.0
 40
4.0
 40
4.0
 40
4.0
 10
39.39445313583864
 20
17.02856321967869
 30
0.0
 10
39.39445313583864
 20
17.30725529555031
 30
0.0
 10
39.61670485833082
 20
17.52950701804249
 30
0.0
 10
39.89539693420244
 20
17.52950701804249
 30
0.0
 10
40.17408901007406
 20
17.52950701804249
 30
0.0
 10
40.39634073256624
 20
17.30725529555031
 30
0.0
 10
40.39634073256624
 20
17.02856321967869
 30
0.0
 10
40.39634073256624
 20
16.74987114380706
 30
0.0
 10
40.17056317016338
 20
16.52761942131488
 30
0.0
 10
39.89539693420244
 20
16.52761942131488
 30
0.0
 10
39.6202306982415
 20
16.52761942131488
 30
0.0
 10
39.39445313583864
 20
16.74987114380706
 30
0.0
 10
39.39445313583864
 20
17.02856321967869
 30
0.0
  0
SPLINE
  5
AC
330
70
100
AcDbEntity
  8
Ebene 1
 62
     5
420
      255
370
     9
100
AcDbSpline
210
0.0
220
0.0
230
1.0
 70
    11
 71
     3
 72
    17
 73
    13
 74
     0
 42
0.0000000001
 43
0.0000000001
 40
0.0
 40
0.0
 40
0.0
 40
0.0
 40
1.0
 40
1.0
 40
1.0
 40
2.0
 40
2.0
 40
2.0
 40
3.0
 40
3.0
 40
3.0
 40
4.0
 40
4.0
 40
4.0
 40
4.0
 10
39.39445313583864
 20
15.02831386613415
 30
0.0
 10
39.39445313583864
 20
15.30700594200578
 30
0.0
 10
39.61670485833082
 20
15.52925766449796
 30
0.0
 10
39.89539693420244
 20
15.52925766449796
 30
0.0
 10
40.17408901007406
 20
15.52925766449796
 30
0.0
 10
40.39634073256624
 20
15.30700594200578
 30
0.0
 10
40.39634073256624
 20
15.02831386613415
 30
0.0
 10
40.39634073256624
 20
14.74962179026253
 30
0.0
 10
40.17056317016338
 20
14.52737006777035
 30
0.0
 10
39.89539693420244
 20
14.52737006777035
 30
0.0
 10
39.6202306982415
 20
14.52737006777035
 30
0.0
 10
39.39445313583864
 20
14.74962179026253
 30
0.0
 10
39.39445313583864
 20
15.02831386613415
 30
0.0
  0
SPLINE
  5
AD
330
70
100
AcDbEntity
  8
Ebene 1
 62
     5
420
      255
370
     9
100
AcDbSpline
210
0.0
220
0.0
230
1.0
 70
    11
 71
     3
 72
    17
 73
    13
 74
     0
 42
0.0000000001
 43
0.0000000001
 40
0.0
 40
0.0
 40
0.0
 40
0.0
 40
1.0
 40
1.0
 40
1.0
 40
2.0
 40
2.0
 40
2.0
 40
3.0
 40
3.0
 40
3.0
 40
4.0
 40
4.0
 40
4.0
 40
4.0
 10
41.39470248938317
 20
23.02931128031229
 30
0.0
 10
41.39470248938317
 20
23.30800335618391
 30
0.0
 10
41.61695421187535
 20
23.53025507867609
 30
0.0
 10
41.89564628774697
 20
23.53025507867609
 30
0.0
 10
42.1743383636186
 20
23.53025507867609
 30
0.0
 10
42.39659008611078
 20
23.30800335618391
 30
0.0
 10
42.39659008611078
 20
23.02931128031229
 30
0.0
 10
42.39659008611078
 20
22.75061920444066
 30
0.0
 10
42.17081252370792
 20
22.52836748194848
 30
0.0
 10
41.89564628774697
 20
22.52836748194848
 30
0.0
 10
41.62048005178603
 20
22.52836748194848
 30
0.0
 10
41.39470248938317
 20
22.75061920444066
 30
0.0
 10
41.39470248938317
 20
23.02931128031229
 30
0.0
  0
SPLINE
  5
AE
330
70
100
AcDbEntity
  8
Ebene 1
 62
     5
420
      255
370
     9
100
AcDbSpline
210
0.0
220
0.0
230
1.0
 70
    11
 71
     3
 72
    17
 73
    13
 74
     0
 42
0.0000000001
 43
0.0000000001
 40
0.0
 40
0.0
 40
0.0
 40
0.0
 40
1.0
 40
1.0
 40
1.0
 40
2.0
 40
2.0
 40
2.0
 40
3.0
 40
3.0
 40
3.0
 40
4.0
 40
4.0
 40
4.0
 40
4.0
 10
41.39470248938317
 20
21.02906192676776
 30
0.0
 10
41.39470248938317
 20
21.30775400263938
 30
0.0
 10
41.61695421187535
 20
21.53000572513156
 30
0.0
 10
41.89564628774697
 20
21.53000572513156
 30
0.0
 10
42.1743383636186
 20
21.53000572513156
 30
0.0
 10
42.39659008611078
 20
21.30775400263938
 30
0.0
 10
42.39659008611078
 20
21.02906192676776
 30
0.0
 10
42.39659008611078
 20
20.75036985089613
 30
0.0
 10
42.17081252370792
 20
20.52811812840395
 30
0.0
 10
41.89564628774697
 20
20.52811812840395
 30
0.0
 10
41.62048005178603
 20
20.52811812840395
 30
0.0
 10
41.39470248938317
 20
20.75036985089613
 30
0.0
 10
41.39470248938317
 20
21.02906192676776
 30
0.0
  0
SPLINE
  5
AF
330
70
100
AcDbEntity
  8
Ebene 1
 62
     5
420
      255
370
     9
100
AcDbSpline
210
0.0
220
0.0
230
1.0
 70
    11
 71
     3
 72
    17
 73
    13
 74
     0
 42
0.0000000001
 43
0.0000000001
 40
0.0
 40
0.0
 40
0.0
 40
0.0
 40
1.0
 40
1.0
 40
1.0
 40
2.0
 40
2.0
 40
2.0
 40
3.0
 40
3.0
 40
3.0
 40
4.0
 40
4.0
 40
4.0
 40
4.0
 10
41.39470248938317
 20
19.02881257322322
 30
0.0
 10
41.39470248938317
 20
19.30750464909484
 30
0.0
 10
41.61695421187535
 20
19.52975637158703
 30
0.0
 10
41.89564628774697
 20
19.52975637158703
 30
0.0
 10
42.1743383636186
 20
19.52975637158703
 30
0.0
 10
42.39659008611078
 20
19.30750464909484
 30
0.0
 10
42.39659008611078
 20
19.02881257322322
 30
0.0
 10
42.39659008611078
 20
18.75012049735159
 30
0.0
 10
42.17081252370792
 20
18.52786877485941
 30
0.0
 10
41.89564628774697
 20
18.52786877485941
 30
0.0
 10
41.62048005178603
 20
18.52786877485941
 30
0.0
 10
41.39470248938317
 20
18.75012049735159
 30
0.0
 10
41.39470248938317
 20
19.02881257322322
 30
0.0
  0
SPLINE
  5
B0
330
70
100
AcDbEntity
  8
Ebene 1
 62
     5
420
      255
370
     9
100
AcDbSpline
210
0.0
220
0.0
230
1.0
 70
    11
 71
     3
 72
    17
 73
    13
 74
     0
 42
0.0000000001
 43
0.0000000001
 40
0.0
 40
0.0
 40
0.0
 40
0.0
 40
1.0
 40
1.0
 40
1.0
 40
2.0
 40
2.0
 40
2.0
 40
3.0
 40
3.0
 40
3.0
 40
4.0
 40
4.0
 40
4.0
 40
4.0
 10
41.39470248938317
 20
17.02856321967869
 30
0.0
 10
41.39470248938317
 20
17.30725529555031
 30
0.0
 10
41.61695421187535
 20
17.52950701804249
 30
0.0
 10
41.89564628774697
 20
17.52950701804249
 30
0.0
 10
42.1743383636186
 20
17.52950701804249
 30
0.0
 10
42.39659008611078
 20
17.30725529555031
 30
0.0
 10
42.39659008611078
 20
17.02856321967869
 30
0.0
 10
42.39659008611078
 20
16.74987114380706
 30
0.0
 10
42.17081252370792
 20
16.52761942131488
 30
0.0
 10
41.89564628774697
 20
16.52761942131488
 30
0.0
 10
41.62048005178603
 20
16.52761942131488
 30
0.0
 10
41.39470248938317
 20
16.74987114380706
 30
0.0
 10
41.39470248938317
 20
17.02856321967869
 30
0.0
  0
SPLINE
  5
B1
330
70
100
AcDbEntity
  8
Ebene 1
 62
     5
420
      255
370
     9
100
AcDbSpline
210
0.0
220
0.0
230
1.0
 70
    11
 71
     3
 72
    17
 73
    13
 74
     0
 42
0.0000000001
 43
0.0000000001
 40
0.0
 40
0.0
 40
0.0
 40
0.0
 40
1.0
 40
1.0
 40
1.0
 40
2.0
 40
2.0
 40
2.0
 40
3.0
 40
3.0
 40
3.0
 40
4.0
 40
4.0
 40
4.0
 40
4.0
 10
41.39470248938317
 20
15.02831386613415
 30
0.0
 10
41.39470248938317
 20
15.30700594200578
 30
0.0
 10
41.61695421187535
 20
15.52925766449796
 30
0.0
 10
41.89564628774697
 20
15.52925766449796
 30
0.0
 10
42.1743383636186
 20
15.52925766449796
 30
0.0
 10
42.39659008611078
 20
15.30700594200578
 30
0.0
 10
42.39659008611078
 20
15.02831386613415
 30
0.0
 10
42.39659008611078
 20
14.74962179026253
 30
0.0
 10
42.17081252370792
 20
14.52737006777035
 30
0.0
 10
41.89564628774697
 20
14.52737006777035
 30
0.0
 10
41.62048005178603
 20
14.52737006777035
 30
0.0
 10
41.39470248938317
 20
14.74962179026253
 30
0.0
 10
41.39470248938317
 20
15.02831386613415
 30
0.0
  0
SPLINE
  5
B2
330
70
100
AcDbEntity
  8
Ebene 1
 62
     5
420
      255
370
     9
100
AcDbSpline
210
0.0
220
0.0
230
1.0
 70
    11
 71
     3
 72
    17
 73
    13
 74
     0
 42
0.0000000001
 43
0.0000000001
 40
0.0
 40
0.0
 40
0.0
 40
0.0
 40
1.0
 40
1.0
 40
1.0
 40
2.0
 40
2.0
 40
2.0
 40
3.0
 40
3.0
 40
3.0
 40
4.0
 40
4.0
 40
4.0
 40
4.0
 10
43.3949518429277
 20
23.02931128031229
 30
0.0
 10
43.3949518429277
 20
23.30800335618391
 30
0.0
 10
43.61720356541988
 20
23.53025507867609
 30
0.0
 10
43.89589564129151
 20
23.53025507867609
 30
0.0
 10
44.17458771716313
 20
23.53025507867609
 30
0.0
 10
44.39683943965532
 20
23.30800335618391
 30
0.0
 10
44.39683943965532
 20
23.02931128031229
 30
0.0
 10
44.39683943965532
 20
22.75061920444066
 30
0.0
 10
44.17106187725244
 20
22.52836748194848
 30
0.0
 10
43.89589564129151
 20
22.52836748194848
 30
0.0
 10
43.62072940533057
 20
22.52836748194848
 30
0.0
 10
43.3949518429277
 20
22.75061920444066
 30
0.0
 10
43.3949518429277
 20
23.02931128031229
 30
0.0
  0
SPLINE
  5
B3
330
70
100
AcDbEntity
  8
Ebene 1
 62
     5
420
      255
370
     9
100
AcDbSpline
210
0.0
220
0.0
230
1.0
 70
    11
 71
     3
 72
    17
 73
    13
 74
     0
 42
0.0000000001
 43
0.0000000001
 40
0.0
 40
0.0
 40
0.0
 40
0.0
 40
1.0
 40
1.0
 40
1.0
 40
2.0
 40
2.0
 40
2.0
 40
3.0
 40
3.0
 40
3.0
 40
4.0
 40
4.0
 40
4.0
 40
4.0
 10
43.3949518429277
 20
21.02906192676776
 30
0.0
 10
43.3949518429277
 20
21.30775400263938
 30
0.0
 10
43.61720356541988
 20
21.53000572513156
 30
0.0
 10
43.89589564129151
 20
21.53000572513156
 30
0.0
 10
44.17458771716313
 20
21.53000572513156
 30
0.0
 10
44.39683943965532
 20
21.30775400263938
 30
0.0
 10
44.39683943965532
 20
21.02906192676776
 30
0.0
 10
44.39683943965532
 20
20.75036985089613
 30
0.0
 10
44.17106187725244
 20
20.52811812840395
 30
0.0
 10
43.89589564129151
 20
20.52811812840395
 30
0.0
 10
43.62072940533057
 20
20.52811812840395
 30
0.0
 10
43.3949518429277
 20
20.75036985089613
 30
0.0
 10
43.3949518429277
 20
21.02906192676776
 30
0.0
  0
SPLINE
  5
B4
330
70
100
AcDbEntity
  8
Ebene 1
 62
     5
420
      255
370
     9
100
AcDbSpline
210
0.0
220
0.0
230
1.0
 70
    11
 71
     3
 72
    17
 73
    13
 74
     0
 42
0.0000000001
 43
0.0000000001
 40
0.0
 40
0.0
 40
0.0
 40
0.0
 40
1.0
 40
1.0
 40
1.0
 40
2.0
 40
2.0
 40
2.0
 40
3.0
 40
3.0
 40
3.0
 40
4.0
 40
4.0
 40
4.0
 40
4.0
 10
43.3949518429277
 20
19.02881257322322
 30
0.0
 10
43.3949518429277
 20
19.30750464909484
 30
0.0
 10
43.61720356541988
 20
19.52975637158703
 30
0.0
 10
43.89589564129151
 20
19.52975637158703
 30
0.0
 10
44.17458771716313
 20
19.52975637158703
 30
0.0
 10
44.39683943965532
 20
19.30750464909484
 30
0.0
 10
44.39683943965532
 20
19.02881257322322
 30
0.0
 10
44.39683943965532
 20
18.75012049735159
 30
0.0
 10
44.17106187725244
 20
18.52786877485941
 30
0.0
 10
43.89589564129151
 20
18.52786877485941
 30
0.0
 10
43.62072940533057
 20
18.52786877485941
 30
0.0
 10
43.3949518429277
 20
18.75012049735159
 30
0.0
 10
43.3949518429277
 20
19.02881257322322
 30
0.0
  0
SPLINE
  5
B5
330
70
100
AcDbEntity
  8
Ebene 1
 62
     5
420
      255
370
     9
100
AcDbSpline
210
0.0
220
0.0
230
1.0
 70
    11
 71
     3
 72
    17
 73
    13
 74
     0
 42
0.0000000001
 43
0.0000000001
 40
0.0
 40
0.0
 40
0.0
 40
0.0
 40
1.0
 40
1.0
 40
1.0
 40
2.0
 40
2.0
 40
2.0
 40
3.0
 40
3.0
 40
3.0
 40
4.0
 40
4.0
 40
4.0
 40
4.0
 10
43.3949518429277
 20
17.02856321967869
 30
0.0
 10
43.3949518429277
 20
17.30725529555031
 30
0.0
 10
43.61720356541988
 20
17.52950701804249
 30
0.0
 10
43.89589564129151
 20
17.52950701804249
 30
0.0
 10
44.17458771716313
 20
17.52950701804249
 30
0.0
 10
44.39683943965532
 20
17.30725529555031
 30
0.0
 10
44.39683943965532
 20
17.02856321967869
 30
0.0
 10
44.39683943965532
 20
16.74987114380706
 30
0.0
 10
44.17106187725244
 20
16.52761942131488
 30
0.0
 10
43.89589564129151
 20
16.52761942131488
 30
0.0
 10
43.62072940533057
 20
16.52761942131488
 30
0.0
 10
43.3949518429277
 20
16.74987114380706
 30
0.0
 10
43.3949518429277
 20
17.02856321967869
 30
0.0
  0
SPLINE
  5
B6
330
70
100
AcDbEntity
  8
Ebene 1
 62
     5
420
      255
370
     9
100
AcDbSpline
210
0.0
220
0.0
230
1.0
 70
    11
 71
     3
 72
    17
 73
    13
 74
     0
 42
0.0000000001
 43
0.0000000001
 40
0.0
 40
0.0
 40
0.0
 40
0.0
 40
1.0
 40
1.0
 40
1.0
 40
2.0
 40
2.0
 40
2.0
 40
3.0
 40
3.0
 40
3.0
 40
4.0
 40
4.0
 40
4.0
 40
4.0
 10
43.3949518429277
 20
15.02831386613415
 30
0.0
 10
43.3949518429277
 20
15.30700594200578
 30
0.0
 10
43.61720356541988
 20
15.52925766449796
 30
0.0
 10
43.89589564129151
 20
15.52925766449796
 30
0.0
 10
44.17458771716313
 20
15.52925766449796
 30
0.0
 10
44.39683943965532
 20
15.30700594200578
 30
0.0
 10
44.39683943965532
 20
15.02831386613415
 30
0.0
 10
44.39683943965532
 20
14.74962179026253
 30
0.0
 10
44.17106187725244
 20
14.52737006777035
 30
0.0
 10
43.89589564129151
 20
14.52737006777035
 30
0.0
 10
43.62072940533057
 20
14.52737006777035
 30
0.0
 10
43.3949518429277
 20
14.74962179026253
 30
0.0
 10
43.3949518429277
 20
15.02831386613415
 30
0.0
  0
SPLINE
  5
B7
330
70
100
AcDbEntity
  8
Ebene 1
 62
     5
420
      255
370
     9
100
AcDbSpline
210
0.0
220
0.0
230
1.0
 70
    11
 71
     3
 72
    17
 73
    13
 74
     0
 42
0.0000000001
 43
0.0000000001
 40
0.0
 40
0.0
 40
0.0
 40
0.0
 40
1.0
 40
1.0
 40
1.0
 40
2.0
 40
2.0
 40
2.0
 40
3.0
 40
3.0
 40
3.0
 40
4.0
 40
4.0
 40
4.0
 40
4.0
 10
45.39520119647224
 20
23.02931128031229
 30
0.0
 10
45.39520119647224
 20
23.30800335618391
 30
0.0
 10
45.61745291896442
 20
23.53025507867609
 30
0.0
 10
45.89614499483604
 20
23.53025507867609
 30
0.0
 10
46.17483707070767
 20
23.53025507867609
 30
0.0
 10
46.39708879319985
 20
23.30800335618391
 30
0.0
 10
46.39708879319985
 20
23.02931128031229
 30
0.0
 10
46.39708879319985
 20
22.75061920444066
 30
0.0
 10
46.17131123079698
 20
22.52836748194848
 30
0.0
 10
45.89614499483604
 20
22.52836748194848
 30
0.0
 10
45.6209787588751
 20
22.52836748194848
 30
0.0
 10
45.39520119647224
 20
22.75061920444066
 30
0.0
 10
45.39520119647224
 20
23.02931128031229
 30
0.0
  0
SPLINE
  5
B8
330
70
100
AcDbEntity
  8
Ebene 1
 62
     5
420
      255
370
     9
100
AcDbSpline
210
0.0
220
0.0
230
1.0
 70
    11
 71
     3
 72
    17
 73
    13
 74
     0
 42
0.0000000001
 43
0.0000000001
 40
0.0
 40
0.0
 40
0.0
 40
0.0
 40
1.0
 40
1.0
 40
1.0
 40
2.0
 40
2.0
 40
2.0
 40
3.0
 40
3.0
 40
3.0
 40
4.0
 40
4.0
 40
4.0
 40
4.0
 10
45.39520119647224
 20
21.02906192676776
 30
0.0
 10
45.39520119647224
 20
21.30775400263938
 30
0.0
 10
45.61745291896442
 20
21.53000572513156
 30
0.0
 10
45.89614499483604
 20
21.53000572513156
 30
0.0
 10
46.17483707070767
 20
21.53000572513156
 30
0.0
 10
46.39708879319985
 20
21.30775400263938
 30
0.0
 10
46.39708879319985
 20
21.02906192676776
 30
0.0
 10
46.39708879319985
 20
20.75036985089613
 30
0.0
 10
46.17131123079698
 20
20.52811812840395
 30
0.0
 10
45.89614499483604
 20
20.52811812840395
 30
0.0
 10
45.6209787588751
 20
20.52811812840395
 30
0.0
 10
45.39520119647224
 20
20.75036985089613
 30
0.0
 10
45.39520119647224
 20
21.02906192676776
 30
0.0
  0
SPLINE
  5
B9
330
70
100
AcDbEntity
  8
Ebene 1
 62
     5
420
      255
370
     9
100
AcDbSpline
210
0.0
220
0.0
230
1.0
 70
    11
 71
     3
 72
    17
 73
    13
 74
     0
 42
0.0000000001
 43
0.0000000001
 40
0.0
 40
0.0
 40
0.0
 40
0.0
 40
1.0
 40
1.0
 40
1.0
 40
2.0
 40
2.0
 40
2.0
 40
3.0
 40
3.0
 40
3.0
 40
4.0
 40
4.0
 40
4.0
 40
4.0
 10
45.39520119647224
 20
19.02881257322322
 30
0.0
 10
45.39520119647224
 20
19.30750464909484
 30
0.0
 10
45.61745291896442
 20
19.52975637158703
 30
0.0
 10
45.89614499483604
 20
19.52975637158703
 30
0.0
 10
46.17483707070767
 20
19.52975637158703
 30
0.0
 10
46.39708879319985
 20
19.30750464909484
 30
0.0
 10
46.39708879319985
 20
19.02881257322322
 30
0.0
 10
46.39708879319985
 20
18.75012049735159
 30
0.0
 10
46.17131123079698
 20
18.52786877485941
 30
0.0
 10
45.89614499483604
 20
18.52786877485941
 30
0.0
 10
45.6209787588751
 20
18.52786877485941
 30
0.0
 10
45.39520119647224
 20
18.75012049735159
 30
0.0
 10
45.39520119647224
 20
19.02881257322322
 30
0.0
  0
SPLINE
  5
BA
330
70
100
AcDbEntity
  8
Ebene 1
 62
     5
420
      255
370
     9
100
AcDbSpline
210
0.0
220
0.0
230
1.0
 70
    11
 71
     3
 72
    17
 73
    13
 74
     0
 42
0.0000000001
 43
0.0000000001
 40
0.0
 40
0.0
 40
0.0
 40
0.0
 40
1.0
 40
1.0
 40
1.0
 40
2.0
 40
2.0
 40
2.0
 40
3.0
 40
3.0
 40
3.0
 40
4.0
 40
4.0
 40
4.0
 40
4.0
 10
45.39520119647224
 20
17.02856321967869
 30
0.0
 10
45.39520119647224
 20
17.30725529555031
 30
0.0
 10
45.61745291896442
 20
17.52950701804249
 30
0.0
 10
45.89614499483604
 20
17.52950701804249
 30
0.0
 10
46.17483707070767
 20
17.52950701804249
 30
0.0
 10
46.39708879319985
 20
17.30725529555031
 30
0.0
 10
46.39708879319985
 20
17.02856321967869
 30
0.0
 10
46.39708879319985
 20
16.74987114380706
 30
0.0
 10
46.17131123079698
 20
16.52761942131488
 30
0.0
 10
45.89614499483604
 20
16.52761942131488
 30
0.0
 10
45.6209787588751
 20
16.52761942131488
 30
0.0
 10
45.39520119647224
 20
16.74987114380706
 30
0.0
 10
45.39520119647224
 20
17.02856321967869
 30
0.0
  0
SPLINE
  5
BB
330
70
100
AcDbEntity
  8
Ebene 1
 62
     5
420
      255
370
     9
100
AcDbSpline
210
0.0
220
0.0
230
1.0
 70
    11
 71
     3
 72
    17
 73
    13
 74
     0
 42
0.0000000001
 43
0.0000000001
 40
0.0
 40
0.0
 40
0.0
 40
0.0
 40
1.0
 40
1.0
 40
1.0
 40
2.0
 40
2.0
 40
2.0
 40
3.0
 40
3.0
 40
3.0
 40
4.0
 40
4.0
 40
4.0
 40
4.0
 10
45.39520119647224
 20
15.02831386613415
 30
0.0
 10
45.39520119647224
 20
15.30700594200578
 30
0.0
 10
45.61745291896442
 20
15.52925766449796
 30
0.0
 10
45.89614499483604
 20
15.52925766449796
 30
0.0
 10
46.17483707070767
 20
15.52925766449796
 30
0.0
 10
46.39708879319985
 20
15.30700594200578
 30
0.0
 10
46.39708879319985
 20
15.02831386613415
 30
0.0
 10
46.39708879319985
 20
14.74962179026253
 30
0.0
 10
46.17131123079698
 20
14.52737006777035
 30
0.0
 10
45.89614499483604
 20
14.52737006777035
 30
0.0
 10
45.6209787588751
 20
14.52737006777035
 30
0.0
 10
45.39520119647224
 20
14.74962179026253
 30
0.0
 10
45.39520119647224
 20
15.02831386613415
 30
0.0
  0
SPLINE
  5
BC
330
70
100
AcDbEntity
  8
Ebene 1
 62
     5
420
      255
370
     9
100
AcDbSpline
210
0.0
220
0.0
230
1.0
 70
    11
 71
     3
 72
    17
 73
    13
 74
     0
 42
0.0000000001
 43
0.0000000001
 40
0.0
 40
0.0
 40
0.0
 40
0.0
 40
1.0
 40
1.0
 40
1.0
 40
2.0
 40
2.0
 40
2.0
 40
3.0
 40
3.0
 40
3.0
 40
4.0
 40
4.0
 40
4.0
 40
4.0
 10
47.39545055001677
 20
23.02931666327399
 30
0.0
 10
47.39545055001677
 20
23.30800873914561
 30
0.0
 10
47.61770227250894
 20
23.53026046163779
 30
0.0
 10
47.89639434838057
 20
23.53026046163779
 30
0.0
 10
48.1750864242522
 20
23.53026046163779
 30
0.0
 10
48.39733814674438
 20
23.30800873914561
 30
0.0
 10
48.39733814674438
 20
23.02931666327399
 30
0.0
 10
48.39733814674438
 20
22.75062458740236
 30
0.0
 10
48.17156058434152
 20
22.52837286491018
 30
0.0
 10
47.89639434838057
 20
22.52837286491018
 30
0.0
 10
47.62122811241964
 20
22.52837286491018
 30
0.0
 10
47.39545055001677
 20
22.75062458740236
 30
0.0
 10
47.39545055001677
 20
23.02931666327399
 30
0.0
  0
SPLINE
  5
BD
330
70
100
AcDbEntity
  8
Ebene 1
 62
     5
420
      255
370
     9
100
AcDbSpline
210
0.0
220
0.0
230
1.0
 70
    11
 71
     3
 72
    17
 73
    13
 74
     0
 42
0.0000000001
 43
0.0000000001
 40
0.0
 40
0.0
 40
0.0
 40
0.0
 40
1.0
 40
1.0
 40
1.0
 40
2.0
 40
2.0
 40
2.0
 40
3.0
 40
3.0
 40
3.0
 40
4.0
 40
4.0
 40
4.0
 40
4.0
 10
47.39545055001677
 20
21.02906730972945
 30
0.0
 10
47.39545055001677
 20
21.30775938560107
 30
0.0
 10
47.61770227250894
 20
21.53001110809325
 30
0.0
 10
47.89639434838057
 20
21.53001110809325
 30
0.0
 10
48.1750864242522
 20
21.53001110809325
 30
0.0
 10
48.39733814674438
 20
21.30775938560107
 30
0.0
 10
48.39733814674438
 20
21.02906730972945
 30
0.0
 10
48.39733814674438
 20
20.75037523385783
 30
0.0
 10
48.17156058434152
 20
20.52812351136565
 30
0.0
 10
47.89639434838057
 20
20.52812351136565
 30
0.0
 10
47.62122811241964
 20
20.52812351136565
 30
0.0
 10
47.39545055001677
 20
20.75037523385783
 30
0.0
 10
47.39545055001677
 20
21.02906730972945
 30
0.0
  0
SPLINE
  5
BE
330
70
100
AcDbEntity
  8
Ebene 1
 62
     5
420
      255
370
     9
100
AcDbSpline
210
0.0
220
0.0
230
1.0
 70
    11
 71
     3
 72
    17
 73
    13
 74
     0
 42
0.0000000001
 43
0.0000000001
 40
0.0
 40
0.0
 40
0.0
 40
0.0
 40
1.0
 40
1.0
 40
1.0
 40
2.0
 40
2.0
 40
2.0
 40
3.0
 40
3.0
 40
3.0
 40
4.0
 40
4.0
 40
4.0
 40
4.0
 10
47.39545055001677
 20
19.02881795618491
 30
0.0
 10
47.39545055001677
 20
19.30751003205654
 30
0.0
 10
47.61770227250894
 20
19.52976175454872
 30
0.0
 10
47.89639434838057
 20
19.52976175454872
 30
0.0
 10
48.1750864242522
 20
19.52976175454872
 30
0.0
 10
48.39733814674438
 20
19.30751003205654
 30
0.0
 10
48.39733814674438
 20
19.02881795618491
 30
0.0
 10
48.39733814674438
 20
18.75012588031329
 30
0.0
 10
48.17156058434152
 20
18.52787415782111
 30
0.0
 10
47.89639434838057
 20
18.52787415782111
 30
0.0
 10
47.62122811241964
 20
18.52787415782111
 30
0.0
 10
47.39545055001677
 20
18.75012588031329
 30
0.0
 10
47.39545055001677
 20
19.02881795618491
 30
0.0
  0
SPLINE
  5
BF
330
70
100
AcDbEntity
  8
Ebene 1
 62
     5
420
      255
370
     9
100
AcDbSpline
210
0.0
220
0.0
230
1.0
 70
    11
 71
     3
 72
    17
 73
    13
 74
     0
 42
0.0000000001
 43
0.0000000001
 40
0.0
 40
0.0
 40
0.0
 40
0.0
 40
1.0
 40
1.0
 40
1.0
 40
2.0
 40
2.0
 40
2.0
 40
3.0
 40
3.0
 40
3.0
 40
4.0
 40
4.0
 40
4.0
 40
4.0
 10
47.39545055001677
 20
17.02856860264038
 30
0.0
 10
47.39545055001677
 20
17.30726067851201
 30
0.0
 10
47.61770227250894
 20
17.52951240100419
 30
0.0
 10
47.89639434838057
 20
17.52951240100419
 30
0.0
 10
48.1750864242522
 20
17.52951240100419
 30
0.0
 10
48.39733814674438
 20
17.30726067851201
 30
0.0
 10
48.39733814674438
 20
17.02856860264038
 30
0.0
 10
48.39733814674438
 20
16.74987652676876
 30
0.0
 10
48.17156058434152
 20
16.52762480427657
 30
0.0
 10
47.89639434838057
 20
16.52762480427657
 30
0.0
 10
47.62122811241964
 20
16.52762480427657
 30
0.0
 10
47.39545055001677
 20
16.74987652676876
 30
0.0
 10
47.39545055001677
 20
17.02856860264038
 30
0.0
  0
SPLINE
  5
C0
330
70
100
AcDbEntity
  8
Ebene 1
 62
     5
420
      255
370
     9
100
AcDbSpline
210
0.0
220
0.0
230
1.0
 70
    11
 71
     3
 72
    17
 73
    13
 74
     0
 42
0.0000000001
 43
0.0000000001
 40
0.0
 40
0.0
 40
0.0
 40
0.0
 40
1.0
 40
1.0
 40
1.0
 40
2.0
 40
2.0
 40
2.0
 40
3.0
 40
3.0
 40
3.0
 40
4.0
 40
4.0
 40
4.0
 40
4.0
 10
47.39545055001677
 20
15.02831924909585
 30
0.0
 10
47.39545055001677
 20
15.30701132496747
 30
0.0
 10
47.61770227250894
 20
15.52926304745965
 30
0.0
 10
47.89639434838057
 20
15.52926304745965
 30
0.0
 10
48.1750864242522
 20
15.52926304745965
 30
0.0
 10
48.39733814674438
 20
15.30701132496747
 30
0.0
 10
48.39733814674438
 20
15.02831924909585
 30
0.0
 10
48.39733814674438
 20
14.74962717322422
 30
0.0
 10
48.17156058434152
 20
14.52737545073204
 30
0.0
 10
47.89639434838057
 20
14.52737545073204
 30
0.0
 10
47.62122811241964
 20
14.52737545073204
 30
0.0
 10
47.39545055001677
 20
14.74962717322422
 30
0.0
 10
47.39545055001677
 20
15.02831924909585
 30
0.0
  0
SPLINE
  5
C1
330
70
100
AcDbEntity
  8
Ebene 1
 62
     5
420
      255
370
     9
100
AcDbSpline
210
0.0
220
0.0
230
1.0
 70
     9
 71
     3
 72
    44
 73
    40
 74
     0
 42
0.0000000001
 43
0.0000000001
 40
0.0
 40
0.0
 40
0.0
 40
0.0
 40
1.0
 40
1.0
 40
1.0
 40
2.0
 40
2.0
 40
2.0
 40
3.0
 40
3.0
 40
3.0
 40
4.0
 40
4.0
 40
4.0
 40
5.0
 40
5.0
 40
5.0
 40
6.0
 40
6.0
 40
6.0
 40
7.0
 40
7.0
 40
7.0
 40
8.0
 40
8.0
 40
8.0
 40
9.0
 40
9.0
 40
9.0
 40
10.0
 40
10.0
 40
10.0
 40
11.0
 40
11.0
 40
11.0
 40
12.0
 40
12.0
 40
12.0
 40
13.0
 40
13.0
 40
13.0
 40
13.0
 10
36.93558890322446
 20
18.19626218551903
 30
0.0
 10
36.96381177139503
 20
17.81173569974819
 30
0.0
 10
36.67100556995727
 20
17.47659788753542
 30
0.0
 10
36.28647908418643
 20
17.44837501936485
 30
0.0
 10
36.28647908418643
 20
17.44837501936485
 30
0.0
 10
18.09020066500232
 20
16.17484702658699
 30
0.0
 10
18.09020066500232
 20
16.17484702658699
 30
0.0
 10
18.09020066500232
 20
16.17484702658699
 30
0.0
 10
19.42017170264047
 20
8.858233979438825
 30
0.0
 10
19.42017170264047
 20
8.858233979438825
 30
0.0
 10
19.42017170264047
 20
8.858233979438825
 30
0.0
 10
34.51200460156392
 20
9.916567312507574
 30
0.0
 10
34.51200460156392
 20
9.916567312507574
 30
0.0
 10
34.51200460156392
 20
9.916567312507574
 30
0.0
 10
50.49283900749438
 20
9.916567312507574
 30
0.0
 10
50.49283900749438
 20
9.916567312507574
 30
0.0
 10
50.49283900749438
 20
9.916567312507574
 30
0.0
 10
50.51753603575426
 20
16.41825917150498
 30
0.0
 10
50.51753603575426
 20
16.41825917150498
 30
0.0
 10
50.51753603575426
 20
16.8063168801482
 30
0.0
 10
50.83150804257953
 20
17.12028888697346
 30
0.0
 10
51.21956575122275
 20
17.12028888697346
 30
0.0
 10
51.21956575122275
 20
17.12028888697346
 30
0.0
 10
53.46675847255765
 20
17.12028888697346
 30
0.0
 10
53.46675847255765
 20
17.12028888697346
 30
0.0
 10
53.46675847255765
 20
17.12028888697346
 30
0.0
 10
53.46675847255765
 20
27.06862114122738
 30
0.0
 10
53.46675847255765
 20
27.06862114122738
 30
0.0
 10
53.46675847255765
 20
27.06862114122738
 30
0.0
 10
36.31117342096547
 20
27.06862114122738
 30
0.0
 10
36.31117342096547
 20
27.06862114122738
 30
0.0
 10
36.31117342096547
 20
27.06862114122738
 30
0.0
 10
36.93206306331377
 20
18.19273096264665
 30
0.0
 10
36.93206306331377
 20
18.19273096264665
 30
0.0
 10
36.93206306331377
 20
18.19273096264665
 30
0.0
 10
36.93206306331377
 20
18.19273096264665
 30
0.0
 10
36.93206306331377
 20
18.19273096264665
 30
0.0
 10
36.93206306331377
 20
18.19273096264665
 30
0.0
 10
36.93558890322446
 20
18.19626218551903
 30
0.0
 10
36.93558890322446
 20
18.19626218551903
 30
0.0
  0
SPLINE
  5
C2
330
70
100
AcDbEntity
  8
Ebene 1
 62
     5
420
      255
370
     9
100
AcDbSpline
210
0.0
220
0.0
230
1.0
 70
     9
 71
     3
 72
    17
 73
    13
 74
     0
 42
0.0000000001
 43
0.0000000001
 40
0.0
 40
0.0
 40
0.0
 40
0.0
 40
1.0
 40
1.0
 40
1.0
 40
2.0
 40
2.0
 40
2.0
 40
3.0
 40
3.0
 40
3.0
 40
4.0
 40
4.0
 40
4.0
 40
4.0
 10
23.65350486669792
 20
83.66476500193551
 30
0.0
 10
23.65350486669792
 20
84.24684820054926
 30
0.0
 10
24.12269995698047
 20
84.71604278617915
 30
0.0
 10
24.70478248272403
 20
84.71604278617915
 30
0.0
 10
25.28686500846759
 20
84.71604278617915
 30
0.0
 10
25.75606009875014
 20
84.24684820054926
 30
0.0
 10
25.75606009875014
 20
83.66476500193551
 30
0.0
 10
25.75606009875014
 20
83.08268180332174
 30
0.0
 10
25.28333782281648
 20
82.61348704947428
 30
0.0
 10
24.70478248272403
 20
82.61348704947428
 30
0.0
 10
24.12622714263158
 20
82.61348704947428
 30
0.0
 10
23.65350486669792
 20
83.08268146688662
 30
0.0
 10
23.65350486669792
 20
83.66476500193551
 30
0.0
  0
SPLINE
  5
C3
330
70
100
AcDbEntity
  8
Ebene 1
 62
     5
420
      255
370
     9
100
AcDbSpline
210
0.0
220
0.0
230
1.0
 70
     9
 71
     3
 72
    17
 73
    13
 74
     0
 42
0.0000000001
 43
0.0000000001
 40
0.0
 40
0.0
 40
0.0
 40
0.0
 40
1.0
 40
1.0
 40
1.0
 40
2.0
 40
2.0
 40
2.0
 40
3.0
 40
3.0
 40
3.0
 40
4.0
 40
4.0
 40
4.0
 40
4.0
 10
38.49486586643946
 20
84.67370932501108
 30
0.0
 10
38.49486586643946
 20
85.25579269184239
 30
0.0
 10
38.96406095672201
 20
85.72498710925472
 30
0.0
 10
39.54614482820599
 20
85.72498710925472
 30
0.0
 10
40.12822869968997
 20
85.72498710925472
 30
0.0
 10
40.59742378997252
 20
85.25579269184239
 30
0.0
 10
40.59742378997252
 20
84.67370932501108
 30
0.0
 10
40.59742378997252
 20
84.09162612639731
 30
0.0
 10
40.12470285977928
 20
83.62243170898496
 30
0.0
 10
39.54614482820599
 20
83.62243170898496
 30
0.0
 10
38.9675867966327
 20
83.62243170898496
 30
0.0
 10
38.49486586643946
 20
84.09162612639731
 30
0.0
 10
38.49486586643946
 20
84.67370932501108
 30
0.0
  0
SPLINE
  5
C4
330
70
100
AcDbEntity
  8
Ebene 1
 62
     5
420
      255
370
     9
100
AcDbSpline
210
0.0
220
0.0
230
1.0
 70
     9
 71
     3
 72
    38
 73
    34
 74
     0
 42
0.0000000001
 43
0.0000000001
 40
0.0
 40
0.0
 40
0.0
 40
0.0
 40
1.0
 40
1.0
 40
1.0
 40
2.0
 40
2.0
 40
2.0
 40
3.0
 40
3.0
 40
3.0
 40
4.0
 40
4.0
 40
4.0
 40
5.0
 40
5.0
 40
5.0
 40
6.0
 40
6.0
 40
6.0
 40
7.0
 40
7.0
 40
7.0
 40
8.0
 40
8.0
 40
8.0
 40
9.0
 40
9.0
 40
9.0
 40
10.0
 40
10.0
 40
10.0
 40
11.0
 40
11.0
 40
11.0
 40
11.0
 10
4.039059956147939
 20
87.27368162711746
 30
0.0
 10
3.654532166691064
 20
87.27368162711746
 30
0.0
 10
3.340559949593862
 20
86.9632371896896
 30
0.0
 10
3.340559949593862
 20
86.57518158376579
 30
0.0
 10
3.340559949593862
 20
86.57518158376579
 30
0.0
 10
3.340559949593862
 20
65.18626496618292
 30
0.0
 10
3.340559949593862
 20
65.18626496618292
 30
0.0
 10
3.340559949593862
 20
65.18626496618292
 30
0.0
 10
18.79575470642351
 20
67.90970984058343
 30
0.0
 10
18.79575470642351
 20
67.90970984058343
 30
0.0
 10
19.17675535228366
 20
67.97673713387791
 30
0.0
 10
19.540116032667
 20
67.72273804904489
 30
0.0
 10
19.60714332596147
 20
67.34173740318474
 30
0.0
 10
19.60714332596147
 20
67.34173740318474
 30
0.0
 10
22.39761549365645
 20
51.43498869907222
 30
0.0
 10
22.39761549365645
 20
51.43498869907222
 30
0.0
 10
22.52108717755163
 20
50.72237877239085
 30
0.0
 10
23.57942051062039
 20
50.84937629619671
 30
0.0
 10
23.53003183706231
 20
51.57257181705269
 30
0.0
 10
23.53003183706231
 20
51.57257181705269
 30
0.0
 10
21.60386549385489
 20
79.406739015057
 30
0.0
 10
21.60386549385489
 20
79.406739015057
 30
0.0
 10
21.57564262568432
 20
79.79479470508957
 30
0.0
 10
21.86844882712208
 20
80.12640600452144
 30
0.0
 10
22.25297665863334
 20
80.15462752695158
 30
0.0
 10
22.25297665863334
 20
80.15462752695158
 30
0.0
 10
44.06169876774415
 20
81.67862741891136
 30
0.0
 10
44.06169876774415
 20
81.67862741891136
 30
0.0
 10
44.06169876774415
 20
81.67862741891136
 30
0.0
 10
44.05111586505039
 20
87.27368285195153
 30
0.0
 10
44.05111586505039
 20
87.27368285195153
 30
0.0
 10
44.05111586505039
 20
87.27368285195153
 30
0.0
 10
4.039059956147939
 20
87.27368285195153
 30
0.0
 10
4.039059956147939
 20
87.27368162711746
 30
0.0
  0
ENDSEC
  0
SECTION
  2
OBJECTS
  0
DICTIONARY
  5
C
330
0
100
AcDbDictionary
281
     1
  3
ACAD_COLOR
350
63
  3
ACAD_DETAILVIEWSTYLE
350
6A
  3
ACAD_GROUP
350
D
  3
ACAD_LAYOUT
350
62
  3
ACAD_MATERIAL
350
10
  3
ACAD_MLEADERSTYLE
350
66
  3
ACAD_MLINESTYLE
350
5F
  3
ACAD_PLOTSETTINGS
350
61
  3
ACAD_PLOTSTYLENAME
350
E
  3
ACAD_SCALELIST
350
42
  3
ACAD_SECTIONVIEWSTYLE
350
68
  3
ACAD_TABLESTYLE
350
64
  3
ACAD_VISUALSTYLE
350
29
  3
ACDB_RECOMPOSE_DATA
350
CD
  3
AcDbVariableDictionary
350
C5
  0
DICTIONARY
  5
63
102
{ACAD_REACTORS
330
C
102
}
330
C
100
AcDbDictionary
281
     1
  0
DICTIONARY
  5
6A
102
{ACAD_REACTORS
330
C
102
}
330
C
100
AcDbDictionary
281
     1
  3
Imperial24
350
6B
  0
DICTIONARY
  5
D
102
{ACAD_REACTORS
330
C
102
}
330
C
100
AcDbDictionary
281
     1
  0
DICTIONARY
  5
62
102
{ACAD_REACTORS
330
C
102
}
330
C
100
AcDbDictionary
281
     1
  3
Layout1
350
6F
  3
Layout2
350
77
  3
Model
350
73
  0
DICTIONARY
  5
10
102
{ACAD_REACTORS
330
C
102
}
330
C
100
AcDbDictionary
281
     1
  3
ByBlock
350
19
  3
ByLayer
350
11
  3
Global
350
21
  0
DICTIONARY
  5
66
102
{ACAD_REACTORS
330
C
102
}
330
C
100
AcDbDictionary
281
     1
  3
Standard
350
67
  0
DICTIONARY
  5
5F
102
{ACAD_REACTORS
330
C
102
}
330
C
100
AcDbDictionary
281
     1
  3
Standard
350
60
  0
DICTIONARY
  5
61
102
{ACAD_REACTORS
330
C
102
}
330
C
100
AcDbDictionary
281
     1
  0
ACDBDICTIONARYWDFLT
  5
E
102
{ACAD_REACTORS
330
C
102
}
330
C
100
AcDbDictionary
281
     1
  3
Normal
350
F
100
AcDbDictionaryWithDefault
340
F
  0
DICTIONARY
  5
42
102
{ACAD_REACTORS
330
C
102
}
330
C
100
AcDbDictionary
281
     1
  3
A0
350
43
  3
A1
350
44
  3
A2
350
45
  3
A3
350
46
  3
A4
350
47
  3
A5
350
48
  3
A6
350
49
  3
A7
350
4A
  3
A8
350
4B
  3
A9
350
4C
  3
B0
350
4D
  3
B1
350
4E
  3
B2
350
4F
  3
B3
350
50
  3
B4
350
51
  3
B5
350
52
  3
B6
350
53
  0
DICTIONARY
  5
68
102
{ACAD_REACTORS
330
C
102
}
330
C
100
AcDbDictionary
281
     1
  3
Imperial24
350
69
  0
DICTIONARY
  5
64
102
{ACAD_REACTORS
330
C
102
}
330
C
100
AcDbDictionary
281
     1
  3
Standard
350
65
  0
DICTIONARY
  5
29
102
{ACAD_REACTORS
330
C
102
}
330
C
100
AcDbDictionary
281
     1
  3
2dWireframe
350
2F
  3
Basic
350
2E
  3
Brighten
350
35
  3
ColorChange
350
39
  3
Conceptual
350
32
  3
Dim
350
34
  3
EdgeColorOff
350
41
  3
Facepattern
350
38
  3
Flat
350
2A
  3
FlatWithEdges
350
2B
  3
Gouraud
350
2C
  3
GouraudWithEdges
350
2D
  3
Hidden
350
31
  3
JitterOff
350
3F
  3
Linepattern
350
37
  3
OverhangOff
350
40
  3
Realistic
350
33
  3
Shaded
350
3E
  3
Shaded with edges
350
3D
  3
Shades of Gray
350
3A
  3
Sketchy
350
3B
  3
Thicken
350
36
  3
Wireframe
350
30
  3
X-Ray
350
3C
  0
XRECORD
  5
CD
102
{ACAD_REACTORS
330
C
102
}
330
C
100
AcDbXrecord
280
     1
 90
        1
330
65
  0
DICTIONARY
  5
C5
102
{ACAD_REACTORS
330
C
102
}
330
C
100
AcDbDictionary
281
     1
  3
CANNOSCALE
350
CA
  3
CMLEADERSTYLE
350
C7
  3
CTABLESTYLE
350
C6
  3
CVIEWDETAILSTYLE
350
C8
  3
CVIEWSECTIONSTYLE
350
C9
  0
ACDBDETAILVIEWSTYLE
  5
6B
102
{ACAD_REACTORS
330
6A
102
}
330
6A
100
AcDbModelDocViewStyle
 70
     0
  3
Imperial24
290
     1
300
Imperial24
 90
        0
100
AcDbDetailViewStyle
 70
     0
 71
     0
 90
        3
 71
     1
340
55
 62
   256
 40
0.24
340
0
 62
   256
 40
0.24
300

 40
0.36
280
     3
 71
     2
340
5D
 90
       25
 62
   256
 71
     3
340
55
 62
   256
 40
0.24
 90
        1
 40
0.75
 90
        1
300
%<\AcVar ViewType \f "%tc1">% %<\AcVar ViewDetailId>%\PSCALE %<\AcVar ViewScale \f "%sn">%
 71
     4
340
5D
 90
       25
 62
   256
340
5D
 90
       25
 62
   256
280
     0
  0
LAYOUT
  5
6F
102
{ACAD_REACTORS
330
62
102
}
330
62
100
AcDbPlotSettings
  1

  2

  4

  6

 40
0.0
 41
0.0
 42
0.0
 43
0.0
 44
0.0
 45
0.0
 46
0.0
 47
0.0
 48
0.0
 49
0.0
140
0.0
141
0.0
142
1.0
143
1.0
 70
   688
 72
     0
 73
     0
 74
     5
  7

 75
    16
147
1.0
 76
     0
 77
     2
 78
   300
148
0.0
149
0.0
100
AcDbLayout
  1
Layout1
 70
     1
 71
     1
 10
0.0
 20
0.0
 11
12.0
 21
9.0
 12
0.0
 22
0.0
 32
0.0
 14
0.0
 24
0.0
 34
0.0
 15
0.0
 25
0.0
 35
0.0
146
0.0
 13
0.0
 23
0.0
 33
0.0
 16
1.0
 26
0.0
 36
0.0
 17
0.0
 27
1.0
 37
0.0
 76
     0
330
6C
  0
LAYOUT
  5
77
102
{ACAD_REACTORS
330
62
102
}
330
62
100
AcDbPlotSettings
  1

  2

  4

  6

 40
0.0
 41
0.0
 42
0.0
 43
0.0
 44
0.0
 45
0.0
 46
0.0
 47
0.0
 48
0.0
 49
0.0
140
0.0
141
0.0
142
1.0
143
1.0
 70
   688
 72
     0
 73
     0
 74
     5
  7

 75
    16
147
1.0
 76
     0
 77
     2
 78
   300
148
0.0
149
0.0
100
AcDbLayout
  1
Layout2
 70
     1
 71
     2
 10
0.0
 20
0.0
 11
12.0
 21
9.0
 12
0.0
 22
0.0
 32
0.0
 14
0.0
 24
0.0
 34
0.0
 15
0.0
 25
0.0
 35
0.0
146
0.0
 13
0.0
 23
0.0
 33
0.0
 16
1.0
 26
0.0
 36
0.0
 17
0.0
 27
1.0
 37
0.0
 76
     0
330
74
  0
LAYOUT
  5
73
102
{ACAD_REACTORS
330
62
102
}
330
62
100
AcDbPlotSettings
  1

  2

  4

  6

 40
0.0
 41
0.0
 42
0.0
 43
0.0
 44
0.0
 45
0.0
 46
0.0
 47
0.0
 48
0.0
 49
0.0
140
0.0
141
0.0
142
1.0
143
1.0
 70
  1712
 72
     0
 73
     0
 74
     0
  7

 75
     0
147
1.0
 76
     0
 77
     2
 78
   300
148
0.0
149
0.0
100
AcDbLayout
  1
Model
 70
     1
 71
     0
 10
0.0
 20
0.0
 11
12.0
 21
9.0
 12
0.0
 22
0.0
 32
0.0
 14
0.0
 24
0.0
 34
0.0
 15
0.0
 25
0.0
 35
0.0
146
0.0
 13
0.0
 23
0.0
 33
0.0
 16
1.0
 26
0.0
 36
0.0
 17
0.0
 27
1.0
 37
0.0
 76
     0
330
70
  0
MATERIAL
  5
19
102
{ACAD_XDICTIONARY
360
1A
102
}
102
{ACAD_REACTORS
330
10
102
}
330
10
100
AcDbMaterial
  1
ByBlock
 72
     0
 43
0.0208333333333333
 43
0.0
 43
0.0
 43
0.0
 43
0.0
 43
0.0208333333333333
 43
0.0
 43
0.0
 43
0.0
 43
0.0
 43
1.0
 43
0.0
 43
0.0
 43
0.0
 43
0.0
 43
1.0
 77
     0
 47
0.0208333333333333
 47
0.0
 47
0.0
 47
0.0
 47
0.0
 47
0.0208333333333333
 47
0.0
 47
0.0
 47
0.0
 47
0.0
 47
1.0
 47
0.0
 47
0.0
 47
0.0
 47
0.0
 47
1.0
171
     0
 49
0.0208333333333333
 49
0.0
 49
0.0
 49
0.0
 49
0.0
 49
0.0208333333333333
 49
0.0
 49
0.0
 49
0.0
 49
0.0
 49
1.0
 49
0.0
 49
0.0
 49
0.0
 49
0.0
 49
1.0
175
     0
142
0.0208333333333333
142
0.0
142
0.0
142
0.0
142
0.0
142
0.0208333333333333
142
0.0
142
0.0
142
0.0
142
0.0
142
1.0
142
0.0
142
0.0
142
0.0
142
0.0
142
1.0
179
     0
144
0.0208333333333333
144
0.0
144
0.0
144
0.0
144
0.0
144
0.0208333333333333
144
0.0
144
0.0
144
0.0
144
0.0
144
1.0
144
0.0
144
0.0
144
0.0
144
0.0
144
1.0
147
0.0208333333333333
147
0.0
147
0.0
147
0.0
147
0.0
147
0.0208333333333333
147
0.0
147
0.0
147
0.0
147
0.0
147
1.0
147
0.0
147
0.0
147
0.0
147
0.0
147
1.0
  0
MATERIAL
  5
11
102
{ACAD_XDICTIONARY
360
12
102
}
102
{ACAD_REACTORS
330
10
102
}
330
10
100
AcDbMaterial
  1
ByLayer
 72
     0
 43
0.0208333333333333
 43
0.0
 43
0.0
 43
0.0
 43
0.0
 43
0.0208333333333333
 43
0.0
 43
0.0
 43
0.0
 43
0.0
 43
1.0
 43
0.0
 43
0.0
 43
0.0
 43
0.0
 43
1.0
 77
     0
 47
0.0208333333333333
 47
0.0
 47
0.0
 47
0.0
 47
0.0
 47
0.0208333333333333
 47
0.0
 47
0.0
 47
0.0
 47
0.0
 47
1.0
 47
0.0
 47
0.0
 47
0.0
 47
0.0
 47
1.0
171
     0
 49
0.0208333333333333
 49
0.0
 49
0.0
 49
0.0
 49
0.0
 49
0.0208333333333333
 49
0.0
 49
0.0
 49
0.0
 49
0.0
 49
1.0
 49
0.0
 49
0.0
 49
0.0
 49
0.0
 49
1.0
175
     0
142
0.0208333333333333
142
0.0
142
0.0
142
0.0
142
0.0
142
0.0208333333333333
142
0.0
142
0.0
142
0.0
142
0.0
142
1.0
142
0.0
142
0.0
142
0.0
142
0.0
142
1.0
179
     0
144
0.0208333333333333
144
0.0
144
0.0
144
0.0
144
0.0
144
0.0208333333333333
144
0.0
144
0.0
144
0.0
144
0.0
144
1.0
144
0.0
144
0.0
144
0.0
144
0.0
144
1.0
147
0.0208333333333333
147
0.0
147
0.0
147
0.0
147
0.0
147
0.0208333333333333
147
0.0
147
0.0
147
0.0
147
0.0
147
1.0
147
0.0
147
0.0
147
0.0
147
0.0
147
1.0
  0
MATERIAL
  5
21
102
{ACAD_XDICTIONARY
360
22
102
}
102
{ACAD_REACTORS
330
10
102
}
330
10
100
AcDbMaterial
  1
Global
 72
     0
 43
0.0208333333333333
 43
0.0
 43
0.0
 43
0.0
 43
0.0
 43
0.0208333333333333
 43
0.0
 43
0.0
 43
0.0
 43
0.0
 43
1.0
 43
0.0
 43
0.0
 43
0.0
 43
0.0
 43
1.0
 77
     0
 47
0.0208333333333333
 47
0.0
 47
0.0
 47
0.0
 47
0.0
 47
0.0208333333333333
 47
0.0
 47
0.0
 47
0.0
 47
0.0
 47
1.0
 47
0.0
 47
0.0
 47
0.0
 47
0.0
 47
1.0
171
     0
 49
0.0208333333333333
 49
0.0
 49
0.0
 49
0.0
 49
0.0
 49
0.0208333333333333
 49
0.0
 49
0.0
 49
0.0
 49
0.0
 49
1.0
 49
0.0
 49
0.0
 49
0.0
 49
0.0
 49
1.0
175
     0
142
0.0208333333333333
142
0.0
142
0.0
142
0.0
142
0.0
142
0.0208333333333333
142
0.0
142
0.0
142
0.0
142
0.0
142
1.0
142
0.0
142
0.0
142
0.0
142
0.0
142
1.0
179
     0
144
0.0208333333333333
144
0.0
144
0.0
144
0.0
144
0.0
144
0.0208333333333333
144
0.0
144
0.0
144
0.0
144
0.0
144
1.0
144
0.0
144
0.0
144
0.0
144
0.0
144
1.0
147
0.0208333333333333
147
0.0
147
0.0
147
0.0
147
0.0
147
0.0208333333333333
147
0.0
147
0.0
147
0.0
147
0.0
147
1.0
147
0.0
147
0.0
147
0.0
147
0.0
147
1.0
  0
MLEADERSTYLE
  5
67
102
{ACAD_REACTORS
330
66
102
}
330
66
100
AcDbMLeaderStyle
179
     2
170
     2
171
     1
172
     0
 90
        2
 40
0.0
 41
0.0
173
     1
 91
-1056964608
340
5B
 92
       -2
290
     1
 42
0.09
291
     1
 43
0.36
  3
Standard
 44
0.18
300

342
55
174
     1
178
     6
175
     1
176
     0
 93
-1056964608
 45
0.18
292
     0
297
     0
 46
0.18
 94
-1056964608
 47
1.0
 49
1.0
140
1.0
293
     1
141
0.0
294
     1
177
     0
142
1.0
295
     1
296
     0
143
0.125
271
     0
272
     9
273
     9
298
     1
  0
MLINESTYLE
  5
60
102
{ACAD_REACTORS
330
5F
102
}
330
5F
100
AcDbMlineStyle
  2
STANDARD
 70
     0
  3

 62
   256
 51
90.0
 52
90.0
 71
     2
 49
0.5
 62
   256
  6
BYLAYER
 49
-0.5
 62
   256
  6
BYLAYER
  0
ACDBPLACEHOLDER
  5
F
102
{ACAD_REACTORS
330
E
102
}
330
E
  0
SCALE
  5
43
102
{ACAD_REACTORS
330
42
102
}
330
42
100
AcDbScale
 70
     0
300
1:1
140
1.0
141
1.0
290
     1
  0
SCALE
  5
44
102
{ACAD_REACTORS
330
42
102
}
330
42
100
AcDbScale
 70
     0
300
1/128" = 1'-0"
140
0.0078125
141
12.0
290
     0
  0
SCALE
  5
45
102
{ACAD_REACTORS
330
42
102
}
330
42
100
AcDbScale
 70
     0
300
1/64" = 1'-0"
140
0.015625
141
12.0
290
     0
  0
SCALE
  5
46
102
{ACAD_REACTORS
330
42
102
}
330
42
100
AcDbScale
 70
     0
300
1/32" = 1'-0"
140
0.03125
141
12.0
290
     0
  0
SCALE
  5
47
102
{ACAD_REACTORS
330
42
102
}
330
42
100
AcDbScale
 70
     0
300
1/16" = 1'-0"
140
0.0625
141
12.0
290
     0
  0
SCALE
  5
48
102
{ACAD_REACTORS
330
42
102
}
330
42
100
AcDbScale
 70
     0
300
3/32" = 1'-0"
140
0.09375
141
12.0
290
     0
  0
SCALE
  5
49
102
{ACAD_REACTORS
330
42
102
}
330
42
100
AcDbScale
 70
     0
300
1/8" = 1'-0"
140
0.125
141
12.0
290
     0
  0
SCALE
  5
4A
102
{ACAD_REACTORS
330
42
102
}
330
42
100
AcDbScale
 70
     0
300
3/16" = 1'-0"
140
0.1875
141
12.0
290
     0
  0
SCALE
  5
4B
102
{ACAD_REACTORS
330
42
102
}
330
42
100
AcDbScale
 70
     0
300
1/4" = 1'-0"
140
0.25
141
12.0
290
     0
  0
SCALE
  5
4C
102
{ACAD_REACTORS
330
42
102
}
330
42
100
AcDbScale
 70
     0
300
3/8" = 1'-0"
140
0.375
141
12.0
290
     0
  0
SCALE
  5
4D
102
{ACAD_REACTORS
330
42
102
}
330
42
100
AcDbScale
 70
     0
300
1/2" = 1'-0"
140
0.5
141
12.0
290
     0
  0
SCALE
  5
4E
102
{ACAD_REACTORS
330
42
102
}
330
42
100
AcDbScale
 70
     0
300
3/4" = 1'-0"
140
0.75
141
12.0
290
     0
  0
SCALE
  5
4F
102
{ACAD_REACTORS
330
42
102
}
330
42
100
AcDbScale
 70
     0
300
1" = 1'-0"
140
1.0
141
12.0
290
     0
  0
SCALE
  5
50
102
{ACAD_REACTORS
330
42
102
}
330
42
100
AcDbScale
 70
     0
300
1-1/2" = 1'-0"
140
1.5
141
12.0
290
     0
  0
SCALE
  5
51
102
{ACAD_REACTORS
330
42
102
}
330
42
100
AcDbScale
 70
     0
300
3" = 1'-0"
140
3.0
141
12.0
290
     0
  0
SCALE
  5
52
102
{ACAD_REACTORS
330
42
102
}
330
42
100
AcDbScale
 70
     0
300
6" = 1'-0"
140
6.0
141
12.0
290
     0
  0
SCALE
  5
53
102
{ACAD_REACTORS
330
42
102
}
330
42
100
AcDbScale
 70
     0
300
1'-0" = 1'-0"
140
12.0
141
12.0
290
     0
  0
ACDBSECTIONVIEWSTYLE
  5
69
102
{ACAD_REACTORS
330
68
102
}
330
68
100
AcDbModelDocViewStyle
 70
     0
  3
Imperial24
290
     1
300
Imperial24
 90
        0
100
AcDbSectionViewStyle
 70
     0
 71
     0
 90
       78
 71
     1
340
55
 62
   256
 40
0.24
340
0
340
0
 62
   256
 40
0.24
300
I, O, Q, S, X, Z
 40
0.48
 90
        3
 40
0.18
 90
        1
 71
     2
340
5D
 90
       25
 62
   256
340
5D
 90
       50
 62
   256
 40
0.24
 40
0.0
 40
0.24
 71
     3
340
55
 62
   256
 40
0.24
 90
        1
 40
0.75
 90
        1
300
%<\AcVar ViewType \f "%tc1">% %<\AcVar ViewSectionStartId>%-%<\AcVar ViewSectionEndId>%\PSCALE %<\AcVar ViewScale \f "%sn">%
 71
     4
 62
   256
 62
   257
300
ANSI31
 40
1.0
 90
        0
290
     0
290
     0
 90
        6
 40
0.0
 40
1.570796326794896
 40
0.2617993877991494
 40
1.308996938995747
 40
-0.2617993877991494
 40
1.832595714594046
  0
TABLESTYLE
  5
65
102
{ACAD_XDICTIONARY
360
CB
102
}
102
{ACAD_REACTORS
330
64
102
}
330
64
100
AcDbTableStyle
280
     0
  3
Standard
 70
     0
 71
     0
 40
0.06
 41
0.06
280
     0
281
     0
  7
Standard
140
0.18
170
     2
 62
     0
 63
     7
283
     0
 90
      512
 91
        0
  1

274
    -2
284
     1
 64
     0
275
    -2
285
     1
 65
     0
276
    -2
286
     1
 66
     0
277
    -2
287
     1
 67
     0
278
    -2
288
     1
 68
     0
279
    -2
289
     1
 69
     0
  7
Standard
140
0.25
170
     5
 62
     0
 63
     7
283
     0
 90
      512
 91
        0
  1

274
    -2
284
     1
 64
     0
275
    -2
285
     1
 65
     0
276
    -2
286
     1
 66
     0
277
    -2
287
     1
 67
     0
278
    -2
288
     1
 68
     0
279
    -2
289
     1
 69
     0
  7
Standard
140
0.18
170
     5
 62
     0
 63
     7
283
     0
 90
      512
 91
        0
  1

274
    -2
284
     1
 64
     0
275
    -2
285
     1
 65
     0
276
    -2
286
     1
 66
     0
277
    -2
287
     1
 67
     0
278
    -2
288
     1
 68
     0
279
    -2
289
     1
 69
     0
  0
VISUALSTYLE
  5
2F
102
{ACAD_REACTORS
330
29
102
}
330
29
100
AcDbVisualStyle
  2
2dWireframe
 70
     4
177
     3
291
     0
 70
    58
 90
        0
176
     1
 90
        2
176
     1
 90
        0
176
     1
 90
        0
176
     1
 40
0.6
176
     1
 40
30.0
176
     1
 62
     7
420
 16777215
176
     1
 90
        1
176
     1
 90
        4
176
     1
 62
     7
176
     1
 62
   257
176
     1
 90
        1
176
     1
 90
        1
176
     1
 40
1.0
176
     1
 90
        0
176
     1
 62
   257
176
     1
 40
1.0
176
     1
 90
        1
176
     1
 90
        6
176
     1
 90
        2
176
     1
 62
     7
176
     1
 90
        5
176
     1
 90
        0
176
     1
 90
        0
176
     1
290
     0
176
     1
 90
        1
176
     1
 40
0.0
176
     1
 90
        0
176
     1
290
     1
176
     1
290
     1
176
     1
290
     0
176
     1
290
     0
176
     1
290
     0
176
     1
290
     0
176
     1
290
     0
176
     1
290
     0
176
     1
290
     0
176
     1
 90
       50
176
     1
 40
0.0
176
     1
 40
1.0
176
     1
 90
        0
176
     1
 62
    18
420
        0
176
     1
 90
       50
176
     1
 90
        3
176
     1
 62
     5
420
      255
176
     1
290
     0
176
     1
 90
       50
176
     1
 90
       50
176
     1
 90
       50
176
     1
290
     0
176
     1
 90
       50
176
     1
 62
   256
176
     0
 40
1.0
176
     0
 90
        2
176
     1
  1
strokes_ogs.tif
176
     1
290
     0
176
     1
 40
1.0
176
     1
 40
1.0
176
     1
  0
VISUALSTYLE
  5
2E
102
{ACAD_REACTORS
330
29
102
}
330
29
100
AcDbVisualStyle
  2
Basic
 70
     7
177
     3
291
     1
 70
    58
 90
        1
176
     1
 90
        0
176
     1
 90
        1
176
     1
 90
        0
176
     1
 40
0.6
176
     1
 40
30.0
176
     1
 62
     7
420
 16777215
176
     1
 90
        0
176
     1
 90
        4
176
     1
 62
     7
176
     1
 62
   257
176
     1
 90
        1
176
     1
 90
        1
176
     1
 40
1.0
176
     1
 90
        8
176
     1
 62
     7
176
     1
 40
1.0
176
     1
 90
        1
176
     1
 90
        6
176
     1
 90
        2
176
     1
 62
     7
176
     1
 90
        5
176
     1
 90
        0
176
     1
 90
        0
176
     1
290
     0
176
     1
 90
        1
176
     1
 40
0.0
176
     1
 90
        0
176
     1
290
     0
176
     1
290
     1
176
     1
290
     1
176
     1
290
     0
176
     1
290
     0
176
     1
290
     0
176
     1
290
     0
176
     1
290
     0
176
     1
290
     0
176
     1
 90
       50
176
     1
 40
0.0
176
     1
 40
1.0
176
     1
 90
        0
176
     1
 62
    18
420
        0
176
     1
 90
       50
176
     1
 90
        3
176
     1
 62
     5
420
      255
176
     1
290
     0
176
     1
 90
       50
176
     1
 90
       50
176
     1
 90
       50
176
     1
290
     0
176
     1
 90
       50
176
     1
 62
   256
176
     0
 40
1.0
176
     0
 90
        2
176
     1
  1
strokes_ogs.tif
176
     1
290
     0
176
     1
 40
1.0
176
     1
 40
1.0
176
     1
  0
VISUALSTYLE
  5
35
102
{ACAD_REACTORS
330
29
102
}
330
29
100
AcDbVisualStyle
  2
Brighten
 70
    12
177
     3
291
     1
 70
    58
 90
        2
176
     1
 90
        2
176
     1
 90
        0
176
     1
 90
        0
176
     1
 40
0.6
176
     1
 40
30.0
176
     1
 62
     7
420
 16777215
176
     1
 90
        1
176
     1
 90
        4
176
     1
 62
     7
176
     1
 62
   257
176
     1
 90
        1
176
     1
 90
        1
176
     1
 40
1.0
176
     1
 90
        8
176
     1
 62
     7
176
     1
 40
1.0
176
     1
 90
        1
176
     1
 90
        6
176
     1
 90
        2
176
     1
 62
     7
176
     1
 90
        5
176
     1
 90
        0
176
     1
 90
        0
176
     1
290
     0
176
     1
 90
        1
176
     1
 40
50.0
176
     1
 90
        0
176
     1
290
     0
176
     1
290
     1
176
     1
290
     1
176
     1
290
     0
176
     1
290
     0
176
     1
290
     0
176
     1
290
     0
176
     1
290
     0
176
     1
290
     0
176
     1
 90
       50
176
     1
 40
0.0
176
     1
 40
1.0
176
     1
 90
        0
176
     1
 62
    18
420
        0
176
     1
 90
       50
176
     1
 90
        3
176
     1
 62
     5
420
      255
176
     1
290
     0
176
     1
 90
       50
176
     1
 90
       50
176
     1
 90
       50
176
     1
290
     0
176
     1
 90
       50
176
     1
 62
   256
176
     0
 40
1.0
176
     0
 90
        2
176
     1
  1
strokes_ogs.tif
176
     1
290
     0
176
     1
 40
1.0
176
     1
 40
1.0
176
     1
  0
VISUALSTYLE
  5
39
102
{ACAD_REACTORS
330
29
102
}
330
29
100
AcDbVisualStyle
  2
ColorChange
 70
    16
177
     3
291
     1
 70
    58
 90
        2
176
     1
 90
        2
176
     1
 90
        3
176
     1
 90
        0
176
     1
 40
0.6
176
     1
 40
30.0
176
     1
 62
     8
420
  8421504
176
     1
 90
        1
176
     1
 90
        4
176
     1
 62
     7
176
     1
 62
   257
176
     1
 90
        1
176
     1
 90
        1
176
     1
 40
1.0
176
     1
 90
        8
176
     1
 62
     8
420
  8421504
176
     1
 40
1.0
176
     1
 90
        1
176
     1
 90
        6
176
     1
 90
        2
176
     1
 62
     7
176
     1
 90
        5
176
     1
 90
        0
176
     1
 90
        0
176
     1
290
     0
176
     1
 90
        1
176
     1
 40
0.0
176
     1
 90
        0
176
     1
290
     0
176
     1
290
     1
176
     1
290
     1
176
     1
290
     0
176
     1
290
     0
176
     1
290
     0
176
     1
290
     0
176
     1
290
     0
176
     1
290
     0
176
     1
 90
       50
176
     1
 40
0.0
176
     1
 40
1.0
176
     1
 90
        0
176
     1
 62
    18
420
        0
176
     1
 90
       50
176
     1
 90
        3
176
     1
 62
     5
420
      255
176
     1
290
     0
176
     1
 90
       50
176
     1
 90
       50
176
     1
 90
       50
176
     1
290
     0
176
     1
 90
       50
176
     1
 62
   256
176
     0
 40
1.0
176
     0
 90
        2
176
     1
  1
strokes_ogs.tif
176
     1
290
     0
176
     1
 40
1.0
176
     1
 40
1.0
176
     1
  0
VISUALSTYLE
  5
32
102
{ACAD_REACTORS
330
29
102
}
330
29
100
AcDbVisualStyle
  2
Conceptual
 70
     9
177
     3
291
     0
 70
    58
 90
        3
176
     1
 90
        2
176
     1
 90
        0
176
     1
 90
        0
176
     1
 40
0.6
176
     1
 40
30.0
176
     1
 62
     7
420
 16777215
176
     1
 90
        2
176
     1
 90
        2
176
     1
 62
     7
176
     1
 62
   257
176
     1
 90
        1
176
     1
 90
        1
176
     1
 40
179.0
176
     1
 90
        8
176
     1
 62
     7
176
     1
 40
1.0
176
     1
 90
        1
176
     1
 90
        6
176
     1
 90
        2
176
     1
 62
     7
176
     1
 90
        3
176
     1
 90
        0
176
     1
 90
        0
176
     1
290
     0
176
     1
 90
        1
176
     1
 40
0.0
176
     1
 90
        0
176
     1
290
     0
176
     1
290
     1
176
     1
290
     1
176
     1
290
     0
176
     1
290
     0
176
     1
290
     0
176
     1
290
     0
176
     1
290
     0
176
     1
290
     0
176
     1
 90
       50
176
     1
 40
0.0
176
     1
 40
1.0
176
     1
 90
        0
176
     1
 62
    18
420
        0
176
     1
 90
       50
176
     1
 90
        3
176
     1
 62
     5
420
      255
176
     1
290
     0
176
     1
 90
       50
176
     1
 90
       50
176
     1
 90
       50
176
     1
290
     0
176
     1
 90
       50
176
     1
 62
   256
176
     0
 40
1.0
176
     0
 90
        2
176
     1
  1
strokes_ogs.tif
176
     1
290
     0
176
     1
 40
1.0
176
     1
 40
1.0
176
     1
  0
VISUALSTYLE
  5
34
102
{ACAD_REACTORS
330
29
102
}
330
29
100
AcDbVisualStyle
  2
Dim
 70
    11
177
     3
291
     1
 70
    58
 90
        2
176
     1
 90
        2
176
     1
 90
        0
176
     1
 90
        0
176
     1
 40
0.6
176
     1
 40
30.0
176
     1
 62
     7
420
 16777215
176
     1
 90
        1
176
     1
 90
        4
176
     1
 62
     7
176
     1
 62
   257
176
     1
 90
        1
176
     1
 90
        1
176
     1
 40
1.0
176
     1
 90
        8
176
     1
 62
     7
176
     1
 40
1.0
176
     1
 90
        1
176
     1
 90
        6
176
     1
 90
        2
176
     1
 62
     7
176
     1
 90
        5
176
     1
 90
        0
176
     1
 90
        0
176
     1
290
     0
176
     1
 90
        1
176
     1
 40
-50.0
176
     1
 90
        0
176
     1
290
     0
176
     1
290
     1
176
     1
290
     1
176
     1
290
     0
176
     1
290
     0
176
     1
290
     0
176
     1
290
     0
176
     1
290
     0
176
     1
290
     0
176
     1
 90
       50
176
     1
 40
0.0
176
     1
 40
1.0
176
     1
 90
        0
176
     1
 62
    18
420
        0
176
     1
 90
       50
176
     1
 90
        3
176
     1
 62
     5
420
      255
176
     1
290
     0
176
     1
 90
       50
176
     1
 90
       50
176
     1
 90
       50
176
     1
290
     0
176
     1
 90
       50
176
     1
 62
   256
176
     0
 40
1.0
176
     0
 90
        2
176
     1
  1
strokes_ogs.tif
176
     1
290
     0
176
     1
 40
1.0
176
     1
 40
1.0
176
     1
  0
VISUALSTYLE
  5
41
102
{ACAD_REACTORS
330
29
102
}
330
29
100
AcDbVisualStyle
  2
EdgeColorOff
 70
    22
177
     3
291
     1
 70
    58
 90
        2
176
     0
 90
        2
176
     0
 90
        0
176
     0
 90
        0
176
     0
 40
0.6
176
     0
 40
30.0
176
     0
 62
     7
420
 16777215
176
     0
 90
        1
176
     0
 90
        4
176
     0
 62
     7
176
     0
 62
   257
176
     0
 90
        1
176
     0
 90
        1
176
     0
 40
1.0
176
     0
 90
        8
176
     2
 62
     7
176
     0
 40
1.0
176
     0
 90
        1
176
     0
 90
        6
176
     0
 90
        2
176
     0
 62
     7
176
     0
 90
        5
176
     0
 90
        0
176
     0
 90
        0
176
     0
290
     0
176
     0
 90
        1
176
     0
 40
0.0
176
     0
 90
        0
176
     0
290
     0
176
     0
290
     1
176
     0
290
     1
176
     0
290
     0
176
     0
290
     0
176
     0
290
     0
176
     0
290
     0
176
     0
290
     0
176
     0
290
     0
176
     0
 90
       50
176
     0
 40
0.0
176
     0
 40
1.0
176
     0
 90
        0
176
     0
 62
    18
420
        0
176
     0
 90
       50
176
     0
 90
        3
176
     0
 62
     5
420
      255
176
     0
290
     0
176
     0
 90
       50
176
     0
 90
       50
176
     0
 90
       50
176
     0
290
     0
176
     0
 90
       50
176
     0
 62
   256
176
     0
 40
1.0
176
     0
 90
        2
176
     0
  1
strokes_ogs.tif
176
     0
290
     0
176
     0
 40
1.0
176
     0
 40
1.0
176
     0
  0
VISUALSTYLE
  5
38
102
{ACAD_REACTORS
330
29
102
}
330
29
100
AcDbVisualStyle
  2
Facepattern
 70
    15
177
     3
291
     1
 70
    58
 90
        2
176
     1
 90
        2
176
     1
 90
        0
176
     1
 90
        0
176
     1
 40
0.6
176
     1
 40
30.0
176
     1
 62
     7
420
 16777215
176
     1
 90
        1
176
     1
 90
        4
176
     1
 62
     7
176
     1
 62
   257
176
     1
 90
        1
176
     1
 90
        1
176
     1
 40
1.0
176
     1
 90
        8
176
     1
 62
     7
176
     1
 40
1.0
176
     1
 90
        1
176
     1
 90
        6
176
     1
 90
        2
176
     1
 62
     7
176
     1
 90
        5
176
     1
 90
        0
176
     1
 90
        0
176
     1
290
     0
176
     1
 90
        1
176
     1
 40
0.0
176
     1
 90
        0
176
     1
290
     0
176
     1
290
     1
176
     1
290
     1
176
     1
290
     0
176
     1
290
     0
176
     1
290
     0
176
     1
290
     0
176
     1
290
     0
176
     1
290
     0
176
     1
 90
       50
176
     1
 40
0.0
176
     1
 40
1.0
176
     1
 90
        0
176
     1
 62
    18
420
        0
176
     1
 90
       50
176
     1
 90
        3
176
     1
 62
     5
420
      255
176
     1
290
     0
176
     1
 90
       50
176
     1
 90
       50
176
     1
 90
       50
176
     1
290
     0
176
     1
 90
       50
176
     1
 62
   256
176
     0
 40
1.0
176
     0
 90
        2
176
     1
  1
strokes_ogs.tif
176
     1
290
     0
176
     1
 40
1.0
176
     1
 40
1.0
176
     1
  0
VISUALSTYLE
  5
2A
102
{ACAD_REACTORS
330
29
102
}
330
29
100
AcDbVisualStyle
  2
Flat
 70
     0
177
     3
291
     1
 70
    58
 90
        2
176
     1
 90
        1
176
     1
 90
        1
176
     1
 90
        2
176
     1
 40
0.6
176
     1
 40
30.0
176
     1
 62
     7
420
 16777215
176
     1
 90
        0
176
     1
 90
        0
176
     1
 62
     7
176
     1
 62
   257
176
     1
 90
        1
176
     1
 90
        1
176
     1
 40
1.0
176
     1
 90
        8
176
     1
 62
     7
176
     1
 40
1.0
176
     1
 90
        1
176
     1
 90
        6
176
     1
 90
        2
176
     1
 62
     7
176
     1
 90
        5
176
     1
 90
        0
176
     1
 90
        0
176
     1
290
     0
176
     1
 90
       13
176
     1
 40
0.0
176
     1
 90
        0
176
     1
290
     0
176
     1
290
     1
176
     1
290
     1
176
     1
290
     0
176
     1
290
     0
176
     1
290
     0
176
     1
290
     0
176
     1
290
     0
176
     1
290
     0
176
     1
 90
       50
176
     1
 40
0.0
176
     1
 40
1.0
176
     1
 90
        0
176
     1
 62
    18
420
        0
176
     1
 90
       50
176
     1
 90
        3
176
     1
 62
     5
420
      255
176
     1
290
     0
176
     1
 90
       50
176
     1
 90
       50
176
     1
 90
       50
176
     1
290
     0
176
     1
 90
       50
176
     1
 62
   256
176
     0
 40
1.0
176
     0
 90
        2
176
     1
  1
strokes_ogs.tif
176
     1
290
     0
176
     1
 40
1.0
176
     1
 40
1.0
176
     1
  0
VISUALSTYLE
  5
2B
102
{ACAD_REACTORS
330
29
102
}
330
29
100
AcDbVisualStyle
  2
FlatWithEdges
 70
     1
177
     3
291
     1
 70
    58
 90
        2
176
     1
 90
        1
176
     1
 90
        1
176
     1
 90
        2
176
     1
 40
0.6
176
     1
 40
30.0
176
     1
 62
     7
420
 16777215
176
     1
 90
        1
176
     1
 90
        0
176
     1
 62
     7
176
     1
 62
   257
176
     1
 90
        1
176
     1
 90
        1
176
     1
 40
1.0
176
     1
 90
        0
176
     1
 62
   257
176
     1
 40
1.0
176
     1
 90
        1
176
     1
 90
        6
176
     1
 90
        2
176
     1
 62
     7
176
     1
 90
        5
176
     1
 90
        0
176
     1
 90
        0
176
     1
290
     0
176
     1
 90
       13
176
     1
 40
0.0
176
     1
 90
        0
176
     1
290
     0
176
     1
290
     1
176
     1
290
     1
176
     1
290
     0
176
     1
290
     0
176
     1
290
     0
176
     1
290
     0
176
     1
290
     0
176
     1
290
     0
176
     1
 90
       50
176
     1
 40
0.0
176
     1
 40
1.0
176
     1
 90
        0
176
     1
 62
    18
420
        0
176
     1
 90
       50
176
     1
 90
        3
176
     1
 62
     5
420
      255
176
     1
290
     0
176
     1
 90
       50
176
     1
 90
       50
176
     1
 90
       50
176
     1
290
     0
176
     1
 90
       50
176
     1
 62
   256
176
     0
 40
1.0
176
     0
 90
        2
176
     1
  1
strokes_ogs.tif
176
     1
290
     0
176
     1
 40
1.0
176
     1
 40
1.0
176
     1
  0
VISUALSTYLE
  5
2C
102
{ACAD_REACTORS
330
29
102
}
330
29
100
AcDbVisualStyle
  2
Gouraud
 70
     2
177
     3
291
     1
 70
    58
 90
        2
176
     1
 90
        2
176
     1
 90
        1
176
     1
 90
        2
176
     1
 40
0.6
176
     1
 40
30.0
176
     1
 62
     7
420
 16777215
176
     1
 90
        0
176
     1
 90
        0
176
     1
 62
     7
176
     1
 62
   257
176
     1
 90
        1
176
     1
 90
        1
176
     1
 40
1.0
176
     1
 90
        0
176
     1
 62
     7
176
     1
 40
1.0
176
     1
 90
        1
176
     1
 90
        6
176
     1
 90
        2
176
     1
 62
     7
176
     1
 90
        5
176
     1
 90
        0
176
     1
 90
        0
176
     1
290
     0
176
     1
 90
       13
176
     1
 40
0.0
176
     1
 90
        0
176
     1
290
     0
176
     1
290
     1
176
     1
290
     1
176
     1
290
     0
176
     1
290
     0
176
     1
290
     0
176
     1
290
     0
176
     1
290
     0
176
     1
290
     0
176
     1
 90
       50
176
     1
 40
0.0
176
     1
 40
1.0
176
     1
 90
        0
176
     1
 62
    18
420
        0
176
     1
 90
       50
176
     1
 90
        3
176
     1
 62
     5
420
      255
176
     1
290
     0
176
     1
 90
       50
176
     1
 90
       50
176
     1
 90
       50
176
     1
290
     0
176
     1
 90
       50
176
     1
 62
   256
176
     0
 40
1.0
176
     0
 90
        2
176
     1
  1
strokes_ogs.tif
176
     1
290
     0
176
     1
 40
1.0
176
     1
 40
1.0
176
     1
  0
VISUALSTYLE
  5
2D
102
{ACAD_REACTORS
330
29
102
}
330
29
100
AcDbVisualStyle
  2
GouraudWithEdges
 70
     3
177
     3
291
     1
 70
    58
 90
        2
176
     1
 90
        2
176
     1
 90
        1
176
     1
 90
        2
176
     1
 40
0.6
176
     1
 40
30.0
176
     1
 62
     7
420
 16777215
176
     1
 90
        1
176
     1
 90
        0
176
     1
 62
     7
176
     1
 62
   257
176
     1
 90
        1
176
     1
 90
        1
176
     1
 40
1.0
176
     1
 90
        0
176
     1
 62
   257
176
     1
 40
1.0
176
     1
 90
        1
176
     1
 90
        6
176
     1
 90
        2
176
     1
 62
     7
176
     1
 90
        5
176
     1
 90
        0
176
     1
 90
        0
176
     1
290
     0
176
     1
 90
       13
176
     1
 40
0.0
176
     1
 90
        0
176
     1
290
     0
176
     1
290
     1
176
     1
290
     1
176
     1
290
     0
176
     1
290
     0
176
     1
290
     0
176
     1
290
     0
176
     1
290
     0
176
     1
290
     0
176
     1
 90
       50
176
     1
 40
0.0
176
     1
 40
1.0
176
     1
 90
        0
176
     1
 62
    18
420
        0
176
     1
 90
       50
176
     1
 90
        3
176
     1
 62
     5
420
      255
176
     1
290
     0
176
     1
 90
       50
176
     1
 90
       50
176
     1
 90
       50
176
     1
290
     0
176
     1
 90
       50
176
     1
 62
   256
176
     0
 40
1.0
176
     0
 90
        2
176
     1
  1
strokes_ogs.tif
176
     1
290
     0
176
     1
 40
1.0
176
     1
 40
1.0
176
     1
  0
VISUALSTYLE
  5
31
102
{ACAD_REACTORS
330
29
102
}
330
29
100
AcDbVisualStyle
  2
Hidden
 70
     6
177
     3
291
     0
 70
    58
 90
        1
176
     1
 90
        2
176
     1
 90
        2
176
     1
 90
        0
176
     1
 40
0.6
176
     1
 40
30.0
176
     1
 62
     7
420
 16777215
176
     1
 90
        2
176
     1
 90
        2
176
     1
 62
     7
176
     1
 62
   257
176
     1
 90
        2
176
     1
 90
        1
176
     1
 40
40.0
176
     1
 90
        0
176
     1
 62
   257
176
     1
 40
1.0
176
     1
 90
        1
176
     1
 90
        6
176
     1
 90
        2
176
     1
 62
     7
176
     1
 90
        3
176
     1
 90
        0
176
     1
 90
        0
176
     1
290
     0
176
     1
 90
        1
176
     1
 40
0.0
176
     1
 90
        0
176
     1
290
     0
176
     1
290
     1
176
     1
290
     1
176
     1
290
     0
176
     1
290
     0
176
     1
290
     0
176
     1
290
     0
176
     1
290
     0
176
     1
290
     0
176
     1
 90
       50
176
     1
 40
0.0
176
     1
 40
1.0
176
     1
 90
        0
176
     1
 62
    18
420
        0
176
     1
 90
       50
176
     1
 90
        3
176
     1
 62
     5
420
      255
176
     1
290
     0
176
     1
 90
       50
176
     1
 90
       50
176
     1
 90
       50
176
     1
290
     0
176
     1
 90
       50
176
     1
 62
   256
176
     0
 40
1.0
176
     0
 90
        2
176
     1
  1
strokes_ogs.tif
176
     1
290
     0
176
     1
 40
1.0
176
     1
 40
1.0
176
     1
  0
VISUALSTYLE
  5
3F
102
{ACAD_REACTORS
330
29
102
}
330
29
100
AcDbVisualStyle
  2
JitterOff
 70
    20
177
     3
291
     1
 70
    58
 90
        2
176
     0
 90
        2
176
     0
 90
        0
176
     0
 90
        0
176
     0
 40
0.6
176
     0
 40
30.0
176
     0
 62
     7
420
 16777215
176
     0
 90
        1
176
     0
 90
        4
176
     0
 62
     7
176
     0
 62
   257
176
     0
 90
        1
176
     0
 90
        1
176
     0
 40
1.0
176
     0
 90
       10
176
     2
 62
     7
176
     0
 40
1.0
176
     0
 90
        1
176
     0
 90
        6
176
     0
 90
        2
176
     0
 62
     7
176
     0
 90
        5
176
     0
 90
        0
176
     0
 90
        0
176
     0
290
     0
176
     0
 90
        1
176
     0
 40
0.0
176
     0
 90
        0
176
     0
290
     0
176
     0
290
     1
176
     0
290
     1
176
     0
290
     0
176
     0
290
     0
176
     0
290
     0
176
     0
290
     0
176
     0
290
     0
176
     0
290
     0
176
     0
 90
       50
176
     0
 40
0.0
176
     0
 40
1.0
176
     0
 90
        0
176
     0
 62
    18
420
        0
176
     0
 90
       50
176
     0
 90
        3
176
     0
 62
     5
420
      255
176
     0
290
     0
176
     0
 90
       50
176
     0
 90
       50
176
     0
 90
       50
176
     0
290
     0
176
     0
 90
       50
176
     0
 62
   256
176
     0
 40
1.0
176
     0
 90
        2
176
     0
  1
strokes_ogs.tif
176
     0
290
     0
176
     0
 40
1.0
176
     0
 40
1.0
176
     0
  0
VISUALSTYLE
  5
37
102
{ACAD_REACTORS
330
29
102
}
330
29
100
AcDbVisualStyle
  2
Linepattern
 70
    14
177
     3
291
     1
 70
    58
 90
        2
176
     1
 90
        2
176
     1
 90
        0
176
     1
 90
        0
176
     1
 40
0.6
176
     1
 40
30.0
176
     1
 62
     7
420
 16777215
176
     1
 90
        1
176
     1
 90
        4
176
     1
 62
     7
176
     1
 62
   257
176
     1
 90
        7
176
     1
 90
        7
176
     1
 40
1.0
176
     1
 90
        8
176
     1
 62
     7
176
     1
 40
1.0
176
     1
 90
        1
176
     1
 90
        6
176
     1
 90
        2
176
     1
 62
     7
176
     1
 90
        5
176
     1
 90
        0
176
     1
 90
        0
176
     1
290
     0
176
     1
 90
        1
176
     1
 40
0.0
176
     1
 90
        0
176
     1
290
     0
176
     1
290
     1
176
     1
290
     1
176
     1
290
     0
176
     1
290
     0
176
     1
290
     0
176
     1
290
     0
176
     1
290
     0
176
     1
290
     0
176
     1
 90
       50
176
     1
 40
0.0
176
     1
 40
1.0
176
     1
 90
        0
176
     1
 62
    18
420
        0
176
     1
 90
       50
176
     1
 90
        3
176
     1
 62
     5
420
      255
176
     1
290
     0
176
     1
 90
       50
176
     1
 90
       50
176
     1
 90
       50
176
     1
290
     0
176
     1
 90
       50
176
     1
 62
   256
176
     0
 40
1.0
176
     0
 90
        2
176
     1
  1
strokes_ogs.tif
176
     1
290
     0
176
     1
 40
1.0
176
     1
 40
1.0
176
     1
  0
VISUALSTYLE
  5
40
102
{ACAD_REACTORS
330
29
102
}
330
29
100
AcDbVisualStyle
  2
OverhangOff
 70
    21
177
     3
291
     1
 70
    58
 90
        2
176
     0
 90
        2
176
     0
 90
        0
176
     0
 90
        0
176
     0
 40
0.6
176
     0
 40
30.0
176
     0
 62
     7
420
 16777215
176
     0
 90
        1
176
     0
 90
        4
176
     0
 62
     7
176
     0
 62
   257
176
     0
 90
        1
176
     0
 90
        1
176
     0
 40
1.0
176
     0
 90
        9
176
     2
 62
     7
176
     0
 40
1.0
176
     0
 90
        1
176
     0
 90
        6
176
     0
 90
        2
176
     0
 62
     7
176
     0
 90
        5
176
     0
 90
        0
176
     0
 90
        0
176
     0
290
     0
176
     0
 90
        1
176
     0
 40
0.0
176
     0
 90
        0
176
     0
290
     0
176
     0
290
     1
176
     0
290
     1
176
     0
290
     0
176
     0
290
     0
176
     0
290
     0
176
     0
290
     0
176
     0
290
     0
176
     0
290
     0
176
     0
 90
       50
176
     0
 40
0.0
176
     0
 40
1.0
176
     0
 90
        0
176
     0
 62
    18
420
        0
176
     0
 90
       50
176
     0
 90
        3
176
     0
 62
     5
420
      255
176
     0
290
     0
176
     0
 90
       50
176
     0
 90
       50
176
     0
 90
       50
176
     0
290
     0
176
     0
 90
       50
176
     0
 62
   256
176
     0
 40
1.0
176
     0
 90
        2
176
     0
  1
strokes_ogs.tif
176
     0
290
     0
176
     0
 40
1.0
176
     0
 40
1.0
176
     0
  0
VISUALSTYLE
  5
33
102
{ACAD_REACTORS
330
29
102
}
330
29
100
AcDbVisualStyle
  2
Realistic
 70
     8
177
     3
291
     0
 70
    58
 90
        2
176
     1
 90
        3
176
     1
 90
        0
176
     1
 90
        2
176
     1
 40
0.6
176
     1
 40
30.0
176
     1
 62
     7
420
 16777215
176
     1
 90
        0
176
     1
 90
        0
176
     1
 62
     7
176
     1
 62
   257
176
     1
 90
        1
176
     1
 90
        1
176
     1
 40
1.0
176
     1
 90
        8
176
     1
 62
   257
176
     1
 40
1.0
176
     1
 90
        1
176
     1
 90
        6
176
     1
 90
        2
176
     1
 62
     7
176
     1
 90
        3
176
     1
 90
        0
176
     1
 90
        0
176
     1
290
     0
176
     1
 90
       13
176
     1
 40
0.0
176
     1
 90
        0
176
     1
290
     0
176
     1
290
     1
176
     1
290
     1
176
     1
290
     0
176
     1
290
     0
176
     1
290
     0
176
     1
290
     0
176
     1
290
     0
176
     1
290
     0
176
     1
 90
       50
176
     1
 40
0.0
176
     1
 40
1.0
176
     1
 90
        0
176
     1
 62
    18
420
        0
176
     1
 90
       50
176
     1
 90
        3
176
     1
 62
     5
420
      255
176
     1
290
     0
176
     1
 90
       50
176
     1
 90
       50
176
     1
 90
       50
176
     1
290
     0
176
     1
 90
       50
176
     1
 62
   256
176
     0
 40
1.0
176
     0
 90
        2
176
     1
  1
strokes_ogs.tif
176
     1
290
     0
176
     1
 40
1.0
176
     1
 40
1.0
176
     1
  0
VISUALSTYLE
  5
3E
102
{ACAD_REACTORS
330
29
102
}
330
29
100
AcDbVisualStyle
  2
Shaded
 70
    27
177
     3
291
     0
 70
    58
 90
        2
176
     1
 90
        2
176
     1
 90
        1
176
     1
 90
        2
176
     1
 40
0.6
176
     1
 40
30.0
176
     1
 62
     7
420
 16777215
176
     1
 90
        0
176
     1
 90
        4
176
     1
 62
     7
176
     1
 62
   257
176
     1
 90
        1
176
     1
 90
        1
176
     1
 40
1.0
176
     1
 90
        8
176
     1
 62
   257
176
     1
 40
1.0
176
     1
 90
        1
176
     1
 90
        6
176
     1
 90
        2
176
     1
 62
     8
420
  7895160
176
     1
 90
        3
176
     1
 90
        0
176
     1
 90
        0
176
     1
290
     0
176
     1
 90
        5
176
     1
 40
0.0
176
     1
 90
        0
176
     1
290
     0
176
     1
290
     1
176
     1
290
     1
176
     1
290
     0
176
     1
290
     0
176
     1
290
     0
176
     1
290
     0
176
     1
290
     0
176
     1
290
     0
176
     1
 90
       50
176
     1
 40
0.0
176
     1
 40
1.0
176
     1
 90
        0
176
     1
 62
    18
420
        0
176
     1
 90
       50
176
     1
 90
        3
176
     1
 62
     5
420
      255
176
     1
290
     0
176
     1
 90
       50
176
     1
 90
       50
176
     1
 90
       50
176
     1
290
     0
176
     1
 90
       50
176
     1
 62
   256
176
     0
 40
1.0
176
     0
 90
        2
176
     1
  1
strokes_ogs.tif
176
     1
290
     0
176
     1
 40
1.0
176
     1
 40
1.0
176
     1
  0
VISUALSTYLE
  5
3D
102
{ACAD_REACTORS
330
29
102
}
330
29
100
AcDbVisualStyle
  2
Shaded with edges
 70
    26
177
     3
291
     0
 70
    58
 90
        2
176
     1
 90
        2
176
     1
 90
        1
176
     1
 90
        2
176
     1
 40
0.6
176
     1
 40
30.0
176
     1
 62
     7
420
 16777215
176
     1
 90
        1
176
     1
 90
        2
176
     1
 62
     7
176
     1
 62
   257
176
     1
 90
        2
176
     1
 90
        1
176
     1
 40
1.0
176
     1
 90
        8
176
     1
 62
   257
176
     1
 40
1.0
176
     1
 90
        1
176
     1
 90
        6
176
     1
 90
        2
176
     1
 62
     7
176
     1
 90
        3
176
     1
 90
        0
176
     1
 90
        0
176
     1
290
     0
176
     1
 90
        5
176
     1
 40
0.0
176
     1
 90
        0
176
     1
290
     0
176
     1
290
     1
176
     1
290
     1
176
     1
290
     0
176
     1
290
     0
176
     1
290
     0
176
     1
290
     0
176
     1
290
     0
176
     1
290
     0
176
     1
 90
       50
176
     1
 40
0.0
176
     1
 40
1.0
176
     1
 90
        0
176
     1
 62
    18
420
        0
176
     1
 90
       50
176
     1
 90
        3
176
     1
 62
     5
420
      255
176
     1
290
     0
176
     1
 90
       50
176
     1
 90
       50
176
     1
 90
       50
176
     1
290
     0
176
     1
 90
       50
176
     1
 62
   256
176
     0
 40
1.0
176
     0
 90
        2
176
     1
  1
strokes_ogs.tif
176
     1
290
     0
176
     1
 40
1.0
176
     1
 40
1.0
176
     1
  0
VISUALSTYLE
  5
3A
102
{ACAD_REACTORS
330
29
102
}
330
29
100
AcDbVisualStyle
  2
Shades of Gray
 70
    23
177
     3
291
     0
 70
    58
 90
        2
176
     1
 90
        2
176
     1
 90
        3
176
     1
 90
        0
176
     1
 40
0.6
176
     1
 40
30.0
176
     1
 62
     7
420
 16777215
176
     1
 90
        2
176
     1
 90
        2
176
     1
 62
     7
176
     1
 62
     7
176
     1
 90
        1
176
     1
 90
        1
176
     1
 40
40.0
176
     1
 90
        8
176
     1
 62
     7
176
     1
 40
1.0
176
     1
 90
        1
176
     1
 90
        6
176
     1
 90
        2
176
     1
 62
     7
176
     1
 90
        3
176
     1
 90
        0
176
     1
 90
        0
176
     1
290
     0
176
     1
 90
        1
176
     1
 40
0.0
176
     1
 90
        0
176
     1
290
     0
176
     1
290
     1
176
     1
290
     1
176
     1
290
     0
176
     1
290
     0
176
     1
290
     0
176
     1
290
     0
176
     1
290
     0
176
     1
290
     0
176
     1
 90
       50
176
     1
 40
0.0
176
     1
 40
1.0
176
     1
 90
        0
176
     1
 62
    18
420
        0
176
     1
 90
       50
176
     1
 90
        3
176
     1
 62
     5
420
      255
176
     1
290
     0
176
     1
 90
       50
176
     1
 90
       50
176
     1
 90
       50
176
     1
290
     0
176
     1
 90
       50
176
     1
 62
   256
176
     0
 40
1.0
176
     0
 90
        2
176
     1
  1
strokes_ogs.tif
176
     1
290
     0
176
     1
 40
1.0
176
     1
 40
1.0
176
     1
  0
VISUALSTYLE
  5
3B
102
{ACAD_REACTORS
330
29
102
}
330
29
100
AcDbVisualStyle
  2
Sketchy
 70
    24
177
     3
291
     0
 70
    58
 90
        1
176
     1
 90
        2
176
     1
 90
        2
176
     1
 90
        0
176
     1
 40
0.6
176
     1
 40
30.0
176
     1
 62
     7
420
 16777215
176
     1
 90
        2
176
     1
 90
        2
176
     1
 62
     7
176
     1
 62
     7
176
     1
 90
        1
176
     1
 90
        1
176
     1
 40
40.0
176
     1
 90
       11
176
     1
 62
     7
176
     1
 40
1.0
176
     1
 90
        1
176
     1
 90
        6
176
     1
 90
        2
176
     1
 62
     7
176
     1
 90
        6
176
     1
 90
        0
176
     1
 90
        0
176
     1
290
     0
176
     1
 90
        1
176
     1
 40
0.0
176
     1
 90
        0
176
     1
290
     0
176
     1
290
     1
176
     1
290
     1
176
     1
290
     0
176
     1
290
     0
176
     1
290
     0
176
     1
290
     0
176
     1
290
     0
176
     1
290
     0
176
     1
 90
       50
176
     1
 40
0.0
176
     1
 40
1.0
176
     1
 90
        0
176
     1
 62
    18
420
        0
176
     1
 90
       50
176
     1
 90
        3
176
     1
 62
     5
420
      255
176
     1
290
     0
176
     1
 90
       50
176
     1
 90
       50
176
     1
 90
       50
176
     1
290
     0
176
     1
 90
       50
176
     1
 62
   256
176
     0
 40
1.0
176
     0
 90
        2
176
     1
  1
strokes_ogs.tif
176
     1
290
     0
176
     1
 40
1.0
176
     1
 40
1.0
176
     1
  0
VISUALSTYLE
  5
36
102
{ACAD_REACTORS
330
29
102
}
330
29
100
AcDbVisualStyle
  2
Thicken
 70
    13
177
     3
291
     1
 70
    58
 90
        2
176
     1
 90
        2
176
     1
 90
        0
176
     1
 90
        0
176
     1
 40
0.6
176
     1
 40
30.0
176
     1
 62
     7
420
 16777215
176
     1
 90
        1
176
     1
 90
        4
176
     1
 62
     7
176
     1
 62
   257
176
     1
 90
        1
176
     1
 90
        1
176
     1
 40
1.0
176
     1
 90
       12
176
     1
 62
     7
176
     1
 40
1.0
176
     1
 90
        1
176
     1
 90
        6
176
     1
 90
        2
176
     1
 62
     7
176
     1
 90
        5
176
     1
 90
        0
176
     1
 90
        0
176
     1
290
     0
176
     1
 90
        1
176
     1
 40
0.0
176
     1
 90
        0
176
     1
290
     0
176
     1
290
     1
176
     1
290
     1
176
     1
290
     0
176
     1
290
     0
176
     1
290
     0
176
     1
290
     0
176
     1
290
     0
176
     1
290
     0
176
     1
 90
       50
176
     1
 40
0.0
176
     1
 40
1.0
176
     1
 90
        0
176
     1
 62
    18
420
        0
176
     1
 90
       50
176
     1
 90
        3
176
     1
 62
     5
420
      255
176
     1
290
     0
176
     1
 90
       50
176
     1
 90
       50
176
     1
 90
       50
176
     1
290
     0
176
     1
 90
       50
176
     1
 62
   256
176
     0
 40
1.0
176
     0
 90
        2
176
     1
  1
strokes_ogs.tif
176
     1
290
     0
176
     1
 40
1.0
176
     1
 40
1.0
176
     1
  0
VISUALSTYLE
  5
30
102
{ACAD_REACTORS
330
29
102
}
330
29
100
AcDbVisualStyle
  2
Wireframe
 70
     5
177
     3
291
     0
 70
    58
 90
        0
176
     1
 90
        2
176
     1
 90
        0
176
     1
 90
        0
176
     1
 40
0.6
176
     1
 40
30.0
176
     1
 62
     7
420
 16777215
176
     1
 90
        1
176
     1
 90
        4
176
     1
 62
     7
176
     1
 62
   257
176
     1
 90
        1
176
     1
 90
        1
176
     1
 40
1.0
176
     1
 90
        0
176
     1
 62
   257
176
     1
 40
1.0
176
     1
 90
        1
176
     1
 90
        6
176
     1
 90
        2
176
     1
 62
     7
176
     1
 90
        3
176
     1
 90
        0
176
     1
 90
        0
176
     1
290
     0
176
     1
 90
        1
176
     1
 40
0.0
176
     1
 90
        0
176
     1
290
     0
176
     1
290
     1
176
     1
290
     1
176
     1
290
     0
176
     1
290
     0
176
     1
290
     0
176
     1
290
     0
176
     1
290
     0
176
     1
290
     0
176
     1
 90
       50
176
     1
 40
0.0
176
     1
 40
1.0
176
     1
 90
        0
176
     1
 62
    18
420
        0
176
     1
 90
       50
176
     1
 90
        3
176
     1
 62
     5
420
      255
176
     1
290
     0
176
     1
 90
       50
176
     1
 90
       50
176
     1
 90
       50
176
     1
290
     0
176
     1
 90
       50
176
     1
 62
   256
176
     0
 40
1.0
176
     0
 90
        2
176
     1
  1
strokes_ogs.tif
176
     1
290
     0
176
     1
 40
1.0
176
     1
 40
1.0
176
     1
  0
VISUALSTYLE
  5
3C
102
{ACAD_REACTORS
330
29
102
}
330
29
100
AcDbVisualStyle
  2
X-Ray
 70
    25
177
     3
291
     0
 70
    58
 90
        2
176
     1
 90
        2
176
     1
 90
        1
176
     1
 90
        1
176
     1
 40
0.5
176
     1
 40
30.0
176
     1
 62
     7
420
 16777215
176
     1
 90
        1
176
     1
 90
        0
176
     1
 62
     7
176
     1
 62
   257
176
     1
 90
        1
176
     1
 90
        1
176
     1
 40
1.0
176
     1
 90
        8
176
     1
 62
     7
176
     1
 40
1.0
176
     1
 90
        1
176
     1
 90
        6
176
     1
 90
        2
176
     1
 62
     7
176
     1
 90
        3
176
     1
 90
        0
176
     1
 90
        0
176
     1
290
     0
176
     1
 90
       13
176
     1
 40
0.0
176
     1
 90
        0
176
     1
290
     0
176
     1
290
     1
176
     1
290
     1
176
     1
290
     0
176
     1
290
     0
176
     1
290
     0
176
     1
290
     0
176
     1
290
     0
176
     1
290
     0
176
     1
 90
       50
176
     1
 40
0.0
176
     1
 40
1.0
176
     1
 90
        0
176
     1
 62
    18
420
        0
176
     1
 90
       50
176
     1
 90
        3
176
     1
 62
     5
420
      255
176
     1
290
     0
176
     1
 90
       50
176
     1
 90
       50
176
     1
 90
       50
176
     1
290
     0
176
     1
 90
       50
176
     1
 62
   256
176
     0
 40
1.0
176
     0
 90
        2
176
     1
  1
strokes_ogs.tif
176
     1
290
     0
176
     1
 40
1.0
176
     1
 40
1.0
176
     1
  0
DICTIONARYVAR
  5
CA
102
{ACAD_REACTORS
330
C5
102
}
330
C5
100
DictionaryVariables
280
     0
  1
1:1
  0
DICTIONARYVAR
  5
C7
102
{ACAD_REACTORS
330
C5
102
}
330
C5
100
DictionaryVariables
280
     0
  1
STANDARD
  0
DICTIONARYVAR
  5
C6
102
{ACAD_REACTORS
330
C5
102
}
330
C5
100
DictionaryVariables
280
     0
  1
STANDARD
  0
DICTIONARYVAR
  5
C8
102
{ACAD_REACTORS
330
C5
102
}
330
C5
100
DictionaryVariables
280
     0
  1
Imperial24
  0
DICTIONARYVAR
  5
C9
102
{ACAD_REACTORS
330
C5
102
}
330
C5
100
DictionaryVariables
280
     0
  1
Imperial24
  0
DICTIONARY
  5
1A
330
19
100
AcDbDictionary
280
     1
281
     1
  3
BUMPTILE
360
1C
  3
DIFFUSETILE
360
1B
  3
OPACITYTILE
360
1F
  3
REFLECTIONTILE
360
1E
  3
REFRACTIONTILE
360
20
  3
SPECULARTILE
360
1D
  0
DICTIONARY
  5
12
330
11
100
AcDbDictionary
280
     1
281
     1
  3
BUMPTILE
360
14
  3
DIFFUSETILE
360
13
  3
OPACITYTILE
360
17
  3
REFLECTIONTILE
360
16
  3
REFRACTIONTILE
360
18
  3
SPECULARTILE
360
15
  0
DICTIONARY
  5
22
330
21
100
AcDbDictionary
280
     1
281
     1
  3
BUMPTILE
360
24
  3
DIFFUSETILE
360
23
  3
OPACITYTILE
360
27
  3
REFLECTIONTILE
360
26
  3
REFRACTIONTILE
360
28
  3
SPECULARTILE
360
25
  0
DICTIONARY
  5
CB
330
65
100
AcDbDictionary
280
     1
281
     1
  3
ACAD_ROUNDTRIP_2008_TABLESTYLE_CELLSTYLEMAP
360
CC
  0
XRECORD
  5
1C
102
{ACAD_REACTORS
330
1A
102
}
330
1A
100
AcDbXrecord
280
     1
270
     1
271
     1
  0
XRECORD
  5
1B
102
{ACAD_REACTORS
330
1A
102
}
330
1A
100
AcDbXrecord
280
     1
270
     1
271
     1
  0
XRECORD
  5
1F
102
{ACAD_REACTORS
330
1A
102
}
330
1A
100
AcDbXrecord
280
     1
270
     1
271
     1
  0
XRECORD
  5
1E
102
{ACAD_REACTORS
330
1A
102
}
330
1A
100
AcDbXrecord
280
     1
270
     1
271
     1
  0
XRECORD
  5
20
102
{ACAD_REACTORS
330
1A
102
}
330
1A
100
AcDbXrecord
280
     1
270
     1
271
     1
  0
XRECORD
  5
1D
102
{ACAD_REACTORS
330
1A
102
}
330
1A
100
AcDbXrecord
280
     1
270
     1
271
     1
  0
XRECORD
  5
14
102
{ACAD_REACTORS
330
12
102
}
330
12
100
AcDbXrecord
280
     1
270
     1
271
     1
  0
XRECORD
  5
13
102
{ACAD_REACTORS
330
12
102
}
330
12
100
AcDbXrecord
280
     1
270
     1
271
     1
  0
XRECORD
  5
17
102
{ACAD_REACTORS
330
12
102
}
330
12
100
AcDbXrecord
280
     1
270
     1
271
     1
  0
XRECORD
  5
16
102
{ACAD_REACTORS
330
12
102
}
330
12
100
AcDbXrecord
280
     1
270
     1
271
     1
  0
XRECORD
  5
18
102
{ACAD_REACTORS
330
12
102
}
330
12
100
AcDbXrecord
280
     1
270
     1
271
     1
  0
XRECORD
  5
15
102
{ACAD_REACTORS
330
12
102
}
330
12
100
AcDbXrecord
280
     1
270
     1
271
     1
  0
XRECORD
  5
24
102
{ACAD_REACTORS
330
22
102
}
330
22
100
AcDbXrecord
280
     1
270
     1
271
     1
  0
XRECORD
  5
23
102
{ACAD_REACTORS
330
22
102
}
330
22
100
AcDbXrecord
280
     1
270
     1
271
     1
  0
XRECORD
  5
27
102
{ACAD_REACTORS
330
22
102
}
330
22
100
AcDbXrecord
280
     1
270
     1
271
     1
  0
XRECORD
  5
26
102
{ACAD_REACTORS
330
22
102
}
330
22
100
AcDbXrecord
280
     1
270
     1
271
     1
  0
XRECORD
  5
28
102
{ACAD_REACTORS
330
22
102
}
330
22
100
AcDbXrecord
280
     1
270
     1
271
     1
  0
XRECORD
  5
25
102
{ACAD_REACTORS
330
22
102
}
330
22
100
AcDbXrecord
280
     1
270
     1
271
     1
  0
CELLSTYLEMAP
  5
CC
102
{ACAD_REACTORS
330
CB
102
}
330
CB
100
AcDbCellStyleMap
 90
        3
300
CELLSTYLE
  1
TABLEFORMAT_BEGIN
 90
        5
170
     1
 91
        0
 92
    32768
 62
   257
 93
        1
300
CONTENTFORMAT
  1
CONTENTFORMAT_BEGIN
 90
        0
 91
        0
 92
      512
 93
        0
300

 40
0.0
140
1.0
 94
        5
 62
     0
340
55
144
0.25
309
CONTENTFORMAT_END
171
     0
 94
        0
309
TABLEFORMAT_END
  1
CELLSTYLE_BEGIN
 90
        1
 91
        1
300
_TITLE
309
CELLSTYLE_END
300
CELLSTYLE
  1
TABLEFORMAT_BEGIN
 90
        5
170
     1
 91
        0
 92
        0
 62
   257
 93
        1
300
CONTENTFORMAT
  1
CONTENTFORMAT_BEGIN
 90
        0
 91
        0
 92
      512
 93
        0
300

 40
0.0
140
1.0
 94
        5
 62
     0
340
55
144
0.18
309
CONTENTFORMAT_END
171
     0
 94
        0
309
TABLEFORMAT_END
  1
CELLSTYLE_BEGIN
 90
        2
 91
        1
300
_HEADER
309
CELLSTYLE_END
300
CELLSTYLE
  1
TABLEFORMAT_BEGIN
 90
        5
170
     1
 91
        0
 92
        0
 62
   257
 93
        1
300
CONTENTFORMAT
  1
CONTENTFORMAT_BEGIN
 90
        0
 91
        0
 92
      512
 93
        0
300

 40
0.0
140
1.0
 94
        2
 62
     0
340
55
144
0.18
309
CONTENTFORMAT_END
171
     0
 94
        0
309
TABLEFORMAT_END
  1
CELLSTYLE_BEGIN
 90
        3
 91
        2
300
_DATA
309
CELLSTYLE_END
  0
ENDSEC
  0
EOF
