%TF.GenerationSoftware,KiCad,Pcbnew,(6.0.4)*%
%TF.CreationDate,2022-05-03T22:22:58+02:00*%
%TF.ProjectId,klor1_2,6b6c6f72-315f-4322-9e6b-696361645f70,v1.2.0*%
%TF.SameCoordinates,Original*%
%TF.FileFunction,Plated,1,2,PTH,Mixed*%
%TF.FilePolarity,Positive*%
%FSLAX46Y46*%
G04 Gerber Fmt 4.6, Leading zero omitted, Abs format (unit mm)*
G04 Created by KiCad (PCBNEW (6.0.4)) date 2022-05-03 22:22:58*
%MOMM*%
%LPD*%
G01*
G04 APERTURE LIST*
%TA.AperFunction,ComponentDrill*%
%ADD10C,0.100000*%
%TD*%
%TA.AperFunction,ViaDrill*%
%ADD11C,0.300000*%
%TD*%
%TA.AperFunction,ComponentDrill*%
%ADD12C,0.400000*%
%TD*%
%TA.AperFunction,ComponentDrill*%
%ADD13C,0.500000*%
%TD*%
%TA.AperFunction,ComponentDrill*%
%ADD14C,0.750000*%
%TD*%
%TA.AperFunction,ComponentDrill*%
%ADD15C,0.812800*%
%TD*%
%TA.AperFunction,ComponentDrill*%
%ADD16C,0.850000*%
%TD*%
%TA.AperFunction,ComponentDrill*%
%ADD17C,1.000000*%
%TD*%
G04 aperture for slot hole*
%TA.AperFunction,ComponentDrill*%
%ADD18O,1.500000X1.000000*%
%TD*%
G04 aperture for slot hole*
%TA.AperFunction,ComponentDrill*%
%ADD19O,2.800000X1.500000*%
%TD*%
%TA.AperFunction,ComponentDrill*%
%ADD20C,2.200000*%
%TD*%
G04 APERTURE END LIST*
D10*
%TO.C,RSW1*%
X81260000Y-118810000D03*
X81260000Y-122510000D03*
X83210000Y-119435000D03*
X83210000Y-120660000D03*
X83210000Y-121885000D03*
%TD*%
D11*
X75550000Y-152850000D03*
X78081000Y-151212000D03*
X79115824Y-151381163D03*
X81184000Y-63838000D03*
X81400000Y-69300000D03*
X81725000Y-64400000D03*
X81950000Y-106200000D03*
X82248000Y-63899000D03*
X82400000Y-101500000D03*
X82623480Y-125762330D03*
X82739760Y-107233123D03*
X83117000Y-63894000D03*
X83675000Y-109725000D03*
X83843628Y-146643700D03*
X84800000Y-144400000D03*
X85880000Y-63430000D03*
X86556188Y-64941000D03*
X86626637Y-124037585D03*
X86700000Y-150000000D03*
X86703032Y-72603032D03*
X86711480Y-71850000D03*
X86825000Y-146375000D03*
X87009708Y-61404000D03*
X87100000Y-56800000D03*
X87134792Y-71384792D03*
X87150000Y-69650000D03*
X87536208Y-59879208D03*
X87548515Y-160504900D03*
X88025000Y-78475000D03*
X88100000Y-118500000D03*
X88898000Y-125642000D03*
X89595138Y-125625446D03*
X90050000Y-128250000D03*
X90325000Y-100050000D03*
X91600000Y-138100000D03*
X91800000Y-128250000D03*
X94216001Y-153638093D03*
X95034244Y-137451850D03*
X95198995Y-136544557D03*
X96311018Y-136903265D03*
X96381000Y-102616000D03*
X96400000Y-138900000D03*
X96404000Y-101987000D03*
X96500000Y-100050000D03*
X97700000Y-148900000D03*
X98450000Y-100050000D03*
X99006000Y-97681000D03*
X99071208Y-96871208D03*
X99575000Y-100050000D03*
X100234319Y-103209665D03*
X100975000Y-100050000D03*
X101724751Y-147617269D03*
X102141806Y-63106194D03*
X102699537Y-133241409D03*
X102906514Y-68170486D03*
X102911014Y-73254986D03*
X102926014Y-75809986D03*
X102934014Y-70737986D03*
X102934514Y-78358486D03*
X102940514Y-85984486D03*
X102949514Y-80913486D03*
X102977014Y-83480986D03*
X103575000Y-100050000D03*
X103800000Y-134675000D03*
X105908815Y-64438000D03*
X106033463Y-69820121D03*
X107840866Y-78210000D03*
X108300000Y-61100000D03*
X108400000Y-58200000D03*
X108697495Y-79939009D03*
X108757732Y-87130689D03*
X109318937Y-89181063D03*
X110611475Y-142777500D03*
X113000000Y-83000000D03*
X113250000Y-137550000D03*
X113541469Y-81830000D03*
X113818467Y-115800000D03*
X114067969Y-91757031D03*
X114880000Y-100960000D03*
X115000000Y-83000000D03*
X115300000Y-78450000D03*
X115965685Y-126609304D03*
X116800000Y-124500000D03*
X116854000Y-127186000D03*
X117000000Y-99175000D03*
X117042000Y-65241000D03*
X117108000Y-103385000D03*
X117116000Y-84294000D03*
X117667965Y-66073496D03*
X117668316Y-67823699D03*
X117720872Y-104251422D03*
X117728804Y-85175781D03*
X118668000Y-86949762D03*
X118669000Y-106022359D03*
X119261898Y-139050142D03*
X123465571Y-102473355D03*
X123468000Y-83400758D03*
X124068937Y-125252875D03*
X124405819Y-104247892D03*
X124410177Y-85173594D03*
X124458454Y-66078830D03*
X124600000Y-63400000D03*
X124600000Y-82800000D03*
X124600000Y-101800000D03*
X124675000Y-117125000D03*
X125130000Y-98610000D03*
X125700000Y-78700000D03*
X128075000Y-72800000D03*
X128075000Y-91850000D03*
X128075000Y-110950000D03*
X128270000Y-99430000D03*
X129100000Y-76300000D03*
X129640000Y-136474000D03*
X130925000Y-76573500D03*
X130934480Y-77626500D03*
X131840000Y-112010000D03*
X131870000Y-106710000D03*
X132000000Y-75900000D03*
X132000000Y-78575000D03*
X132000000Y-81700000D03*
X132529792Y-99832792D03*
X132534899Y-77081000D03*
X132534899Y-99076000D03*
X132534899Y-103868000D03*
X133000000Y-138600000D03*
X133100000Y-127200000D03*
X133588015Y-98047402D03*
X134100000Y-80200000D03*
X134410000Y-101600000D03*
X134800000Y-94625000D03*
X134975000Y-103875000D03*
X135300000Y-118500000D03*
X135400000Y-64500000D03*
X135490000Y-62847000D03*
X136000000Y-76800000D03*
X136000000Y-135350000D03*
X136080000Y-62269000D03*
X136092000Y-100428000D03*
X136103000Y-81297000D03*
X136175000Y-98525000D03*
X136706583Y-63095948D03*
X136714863Y-101251201D03*
X136719186Y-82173592D03*
X136975000Y-96625000D03*
X137000000Y-105475000D03*
X137294000Y-135218000D03*
X138000000Y-124250000D03*
X138447000Y-123203000D03*
X139049000Y-122324000D03*
X139250000Y-117200000D03*
X139662779Y-123202029D03*
X140052969Y-112694674D03*
X140450000Y-113200000D03*
X141200000Y-95600000D03*
X141890000Y-76220000D03*
X142440000Y-117676120D03*
X142458000Y-104847836D03*
X143409821Y-101251949D03*
X143413137Y-82180697D03*
X143419537Y-63110794D03*
X143600000Y-65100000D03*
X143642194Y-117167194D03*
X143850000Y-105225000D03*
X144275000Y-118750000D03*
X144392000Y-113267489D03*
X145500000Y-110468355D03*
X146300000Y-127200000D03*
X146352872Y-123199244D03*
X146450000Y-99025000D03*
X147060000Y-69823000D03*
X147064000Y-88853000D03*
X147075000Y-106800000D03*
X147276500Y-111865000D03*
X147300000Y-117041609D03*
X147400000Y-121650000D03*
X147400000Y-123225000D03*
X147938666Y-114988666D03*
X148000000Y-106775000D03*
X148600000Y-135450000D03*
X148650000Y-86325000D03*
X149900000Y-104373500D03*
X149900000Y-105426500D03*
X149950000Y-58925000D03*
X149950000Y-63946000D03*
X150300000Y-116600000D03*
X150710000Y-96300000D03*
X150950000Y-134300000D03*
X151000000Y-107300000D03*
X151000000Y-127800000D03*
X151040000Y-86340000D03*
X151100000Y-64200000D03*
X151100000Y-103130000D03*
X151200000Y-116588089D03*
X151230000Y-73290000D03*
X151584899Y-89610000D03*
X151599011Y-70463000D03*
X152300000Y-114300000D03*
X153174929Y-123383929D03*
X153200000Y-71200000D03*
X153225000Y-85650000D03*
X153830000Y-74270000D03*
X154198116Y-123002116D03*
X155075000Y-87250000D03*
X155100000Y-68100000D03*
X155125000Y-53226000D03*
X155150000Y-72292000D03*
X155154000Y-91373000D03*
X155234909Y-122570980D03*
X155735879Y-54086543D03*
X155765922Y-73178188D03*
X155768633Y-92245978D03*
X156475000Y-122117460D03*
X156693000Y-56069123D03*
X156712000Y-74949762D03*
X156717000Y-94022359D03*
X161510000Y-71400758D03*
X161510000Y-90473355D03*
X161800000Y-70100000D03*
X161900000Y-89300000D03*
X162100000Y-58500000D03*
X162100000Y-77500000D03*
X162100000Y-96500000D03*
X162452132Y-73176367D03*
X162455298Y-92245542D03*
X162493031Y-54121840D03*
X162650000Y-56275000D03*
X163126000Y-53218000D03*
X164883469Y-109302175D03*
X165125000Y-55850000D03*
X166107000Y-79865000D03*
X166111394Y-59724606D03*
X166116000Y-98951000D03*
X168775000Y-100475000D03*
X168952723Y-60464911D03*
X169280020Y-117657040D03*
X170610694Y-93850306D03*
X171510000Y-114670000D03*
X171562500Y-75362500D03*
X173175000Y-73775000D03*
X173180000Y-99750000D03*
X173500000Y-81400000D03*
X173500000Y-83700000D03*
X174525000Y-97650000D03*
X174651000Y-101560000D03*
X175263000Y-102357000D03*
X175989000Y-82516000D03*
X176050000Y-78200000D03*
X176606261Y-83333419D03*
X177257000Y-63479000D03*
X177883635Y-64278396D03*
X178200000Y-62275000D03*
X178200000Y-116000000D03*
X178600000Y-66600000D03*
X178900000Y-99600000D03*
X179500000Y-78000000D03*
X180300000Y-96900000D03*
X180500000Y-80600000D03*
X181600000Y-78000000D03*
X181962564Y-102838814D03*
X183267239Y-83798846D03*
X184693823Y-64730025D03*
X185028000Y-109766000D03*
X185400000Y-62800000D03*
X186300000Y-119600000D03*
X186352000Y-90708000D03*
X187337025Y-117493711D03*
X187696000Y-71710000D03*
X187876500Y-117955186D03*
X188000000Y-121000000D03*
X188600000Y-127900000D03*
X190463500Y-101380000D03*
X190523944Y-84335444D03*
X191100000Y-117200000D03*
X191225000Y-80925000D03*
X192343801Y-115553751D03*
X193084000Y-115397000D03*
X193500000Y-113600000D03*
X193698139Y-116059940D03*
X193700000Y-129000000D03*
X196000000Y-99800000D03*
X196428000Y-96610000D03*
X196971000Y-99125000D03*
X197045000Y-97305000D03*
X197425000Y-60260000D03*
X197600000Y-100300000D03*
X199200000Y-81000000D03*
X199300000Y-120400000D03*
X199562571Y-115317721D03*
X199747000Y-77824000D03*
X200278974Y-80314149D03*
X200338020Y-117263210D03*
X200357000Y-78526000D03*
X200800000Y-91400000D03*
X202521000Y-124406000D03*
X202600000Y-102600000D03*
X202700000Y-111230000D03*
X202854000Y-96527000D03*
X202900000Y-93600000D03*
X203257306Y-101381000D03*
X203641572Y-98475115D03*
X203690000Y-132660000D03*
X204875000Y-60600000D03*
X205425000Y-126175000D03*
X206675000Y-105300000D03*
X206940000Y-121141303D03*
X206957420Y-79685666D03*
X207300000Y-110500000D03*
X207300000Y-126125000D03*
X209145000Y-86857000D03*
X209180000Y-125902000D03*
X211660000Y-107420000D03*
X212153066Y-111480934D03*
X212482000Y-107160000D03*
X212717000Y-113614000D03*
X213000000Y-108825000D03*
X213334986Y-114464194D03*
X213400000Y-116900000D03*
X213600000Y-110900000D03*
X214400000Y-95400000D03*
X216049000Y-94990000D03*
X216659492Y-95689126D03*
X217200000Y-98300000D03*
X217200000Y-108000000D03*
X218900000Y-119450000D03*
X219100000Y-104400000D03*
X219938000Y-115636000D03*
X222135000Y-122817000D03*
X223259000Y-96863000D03*
X225442000Y-104063000D03*
D12*
%TO.C,D19*%
X87070836Y-142475836D03*
X89475000Y-144880000D03*
%TO.C,D18*%
X99180000Y-106960000D03*
X102580000Y-106960000D03*
%TO.C,D20*%
X106672000Y-130427514D03*
%TO.C,R3*%
X106983000Y-54698000D03*
%TO.C,D20*%
X108372000Y-133372000D03*
%TO.C,R3*%
X109783000Y-54698000D03*
%TO.C,D12*%
X115100000Y-118290000D03*
%TO.C,D1*%
X115300000Y-80100000D03*
%TO.C,D6*%
X115300000Y-99200000D03*
%TO.C,D12*%
X118500000Y-118290000D03*
%TO.C,D1*%
X118700000Y-80100000D03*
%TO.C,D6*%
X118700000Y-99200000D03*
%TO.C,D21*%
X128663008Y-123578926D03*
X129542992Y-126863074D03*
%TO.C,D2*%
X134300000Y-77100000D03*
%TO.C,D7*%
X135297000Y-96197000D03*
%TO.C,D2*%
X137700000Y-77100000D03*
%TO.C,D7*%
X138697000Y-96197000D03*
%TO.C,D13*%
X148200000Y-101500000D03*
X148200000Y-104900000D03*
%TO.C,D22*%
X151604000Y-122605000D03*
X151604000Y-126005000D03*
%TO.C,D14*%
X153300000Y-106300000D03*
%TO.C,D8*%
X153379000Y-87185000D03*
%TO.C,D3*%
X153400000Y-68100000D03*
%TO.C,D14*%
X156700000Y-106300000D03*
%TO.C,D8*%
X156779000Y-87185000D03*
%TO.C,D3*%
X156800000Y-68100000D03*
%TO.C,D15*%
X172900000Y-116200000D03*
%TO.C,D9*%
X172908282Y-97162828D03*
%TO.C,D4*%
X174300000Y-78100000D03*
%TO.C,D15*%
X176291718Y-116437172D03*
%TO.C,D9*%
X176300000Y-97400000D03*
%TO.C,D4*%
X177691718Y-78337172D03*
%TO.C,D16*%
X188625827Y-129404798D03*
%TO.C,D10*%
X191951654Y-110709596D03*
%TO.C,D16*%
X191974173Y-129995202D03*
%TO.C,D5*%
X195251654Y-91909596D03*
%TO.C,D10*%
X195300000Y-111300000D03*
%TO.C,D5*%
X198600000Y-92500000D03*
%TO.C,D17*%
X216851654Y-129209596D03*
%TO.C,D11*%
X220200000Y-110600000D03*
%TO.C,D17*%
X220200000Y-129800000D03*
%TO.C,D11*%
X223548346Y-111190404D03*
D13*
%TO.C,BZ1*%
X153510000Y-116290000D03*
X166710000Y-116290000D03*
D14*
%TO.C,BT1*%
X82350000Y-102800000D03*
X82350000Y-104800000D03*
D15*
%TO.C,U1*%
X88780000Y-56840000D03*
X88780000Y-59380000D03*
X88780000Y-61920000D03*
X88780000Y-64460000D03*
X88780000Y-67000000D03*
X88780000Y-69540000D03*
X88780000Y-72080000D03*
X88780000Y-74620000D03*
X88780000Y-77160000D03*
X88780000Y-79700000D03*
X88780000Y-82240000D03*
X88780000Y-84780000D03*
X90078815Y-58035745D03*
X90078815Y-60575745D03*
X90078815Y-63115745D03*
X90078815Y-65655745D03*
X90078815Y-68195745D03*
X90078815Y-70735745D03*
X90078815Y-73275745D03*
X90078815Y-75815745D03*
X90078815Y-78355745D03*
X90078815Y-80895745D03*
X90078815Y-83435745D03*
X90078815Y-85975745D03*
X104020000Y-56840000D03*
X104020000Y-59380000D03*
X104020000Y-61920000D03*
X104020000Y-64460000D03*
X104020000Y-67000000D03*
X104020000Y-69540000D03*
X104020000Y-72080000D03*
X104020000Y-74620000D03*
X104020000Y-77160000D03*
X104020000Y-79700000D03*
X104020000Y-82240000D03*
X104020000Y-84780000D03*
X105318815Y-58035745D03*
X105318815Y-60575745D03*
X105318815Y-63115745D03*
X105318815Y-65655745D03*
X105318815Y-68195745D03*
X105318815Y-70735745D03*
X105318815Y-73275745D03*
X105318815Y-75815745D03*
X105318815Y-78355745D03*
X105318815Y-80895745D03*
X105318815Y-83435745D03*
X105318815Y-85975745D03*
D16*
%TO.C,J3*%
X137950000Y-120100000D03*
X140490000Y-120100000D03*
X143030000Y-120100000D03*
X145570000Y-120100000D03*
X148110000Y-120100000D03*
D17*
%TO.C,BT2*%
X82500000Y-111399951D03*
X82500000Y-115000000D03*
D18*
%TO.C,J1*%
X84200000Y-125275000D03*
X84200000Y-131225000D03*
X87200000Y-125275000D03*
X87200000Y-131225000D03*
D17*
%TO.C,SW18*%
X88090000Y-111450000D03*
X88090000Y-113950000D03*
X88090000Y-116450000D03*
D18*
%TO.C,J1*%
X91200000Y-125275000D03*
X91200000Y-131225000D03*
D17*
%TO.C,OLED1*%
X92629110Y-98455000D03*
D18*
%TO.C,J1*%
X92700000Y-127025000D03*
X92700000Y-129475000D03*
D17*
%TO.C,OLED1*%
X95169110Y-98455000D03*
X97709110Y-98455000D03*
X100249110Y-98455000D03*
%TO.C,SW18*%
X102590000Y-111450000D03*
X102590000Y-116450000D03*
%TO.C,J2*%
X194920000Y-55650000D03*
X197460000Y-55650000D03*
X200000000Y-55650000D03*
X202540000Y-55650000D03*
X205080000Y-55650000D03*
D19*
%TO.C,SW18*%
X95590000Y-108350000D03*
X95590000Y-119550000D03*
D20*
%TO.C,REF\u002A\u002A*%
X130549000Y-96400000D03*
X149599000Y-77350000D03*
X168649000Y-96400000D03*
M02*
