%FSLAX45Y45*%
G04 Gerber Fmt 4.5, Leading zero omitted, Abs format (unit mm)*
G04 Created by KiCad (PCBNEW (6.0.4)) date 2022-07-08 12:46:48*
%MOMM*%
%LPD*%
G01*
G04 APERTURE LIST*
%TA.AperFunction,Profile*%
%ADD10C,0.010000*%
%TD*%
%ADD11C,0.010000*%
%TA.AperFunction,Profile*%
%ADD12C,0.100000*%
%TD*%
%ADD13C,0.200000*%
%ADD14C,0.030000*%
%ADD15C,0.040000*%
%ADD16C,0.050000*%
%ADD17C,0.075000*%
%ADD18C,0.081280*%
%ADD19C,0.085000*%
%ADD20C,0.100000*%
%ADD21C,0.150000*%
%ADD22C,0.220000*%
G04 APERTURE END LIST*
D10*
X9420513Y-14904833D02*
X9089081Y-14333642D01*
X21327375Y-9013104D02*
X21133452Y-10102598D01*
D11*
X9505134Y-14855471D02*
X9506394Y-14857484D01*
X9507531Y-14859554D01*
X9508546Y-14861676D01*
X9509438Y-14863844D01*
X9510209Y-14866054D01*
X9510859Y-14868300D01*
X9511389Y-14870577D01*
X9511800Y-14872880D01*
X9512092Y-14875203D01*
X9512266Y-14877542D01*
X9512322Y-14879891D01*
X9512261Y-14882245D01*
X9512085Y-14884599D01*
X9511792Y-14886949D01*
X9511385Y-14889287D01*
X9510864Y-14891611D01*
X9510228Y-14893913D01*
X9509480Y-14896190D01*
X9508620Y-14898436D01*
X9507648Y-14900646D01*
X9506564Y-14902814D01*
X9505371Y-14904936D01*
X9504067Y-14907006D01*
X9502655Y-14909020D01*
X9501134Y-14910971D01*
X9499505Y-14912855D01*
X9497769Y-14914667D01*
X9495927Y-14916402D01*
X9493979Y-14918054D01*
X9491925Y-14919618D01*
X9489767Y-14921089D01*
X9487505Y-14922462D01*
D10*
X21024150Y-7525187D02*
X21024150Y-5388510D01*
X9184280Y-6061951D02*
X9184280Y-5314467D01*
D11*
X15276983Y-13917589D02*
X15280597Y-13917497D01*
X15284166Y-13917223D01*
X15287685Y-13916773D01*
X15291148Y-13916150D01*
X15294552Y-13915359D01*
X15297893Y-13914405D01*
X15301164Y-13913292D01*
X15304363Y-13912025D01*
X15307485Y-13910608D01*
X15310524Y-13909045D01*
X15313477Y-13907342D01*
X15316339Y-13905503D01*
X15319105Y-13903532D01*
X15321771Y-13901434D01*
X15324333Y-13899213D01*
X15326785Y-13896875D01*
X15329124Y-13894422D01*
X15331345Y-13891860D01*
X15333443Y-13889194D01*
X15335414Y-13886428D01*
X15337253Y-13883566D01*
X15338956Y-13880613D01*
X15340519Y-13877574D01*
X15341936Y-13874452D01*
X15343203Y-13871253D01*
X15344316Y-13867982D01*
X15345270Y-13864641D01*
X15346061Y-13861237D01*
X15346684Y-13857774D01*
X15347134Y-13854255D01*
X15347408Y-13850686D01*
X15347500Y-13847072D01*
X23083258Y-9390372D02*
X23084468Y-9386758D01*
X23085455Y-9383187D01*
X23086225Y-9379665D01*
X23086784Y-9376193D01*
X23087136Y-9372776D01*
X23087287Y-9369416D01*
X23087241Y-9366117D01*
X23087004Y-9362882D01*
X23086582Y-9359714D01*
X23085978Y-9356616D01*
X23085199Y-9353592D01*
X23084250Y-9350645D01*
X23083135Y-9347777D01*
X23081860Y-9344993D01*
X23080430Y-9342296D01*
X23078851Y-9339688D01*
X23077127Y-9337173D01*
X23075263Y-9334755D01*
X23073265Y-9332436D01*
X23071138Y-9330219D01*
X23068887Y-9328109D01*
X23066517Y-9326107D01*
X23064034Y-9324218D01*
X23061442Y-9322444D01*
X23058747Y-9320790D01*
X23055953Y-9319257D01*
X23053067Y-9317849D01*
X23050093Y-9316570D01*
X23047036Y-9315423D01*
X23043902Y-9314410D01*
X23040696Y-9313536D01*
X23037422Y-9312803D01*
D10*
X14853878Y-5314467D02*
X10210308Y-5314467D01*
D11*
X10517059Y-15028238D02*
X10524010Y-15023621D01*
X10530982Y-15019024D01*
X10537973Y-15014448D01*
X10544983Y-15009893D01*
X10552011Y-15005358D01*
X10559057Y-15000844D01*
X10566119Y-14996350D01*
X10573197Y-14991877D01*
X10580291Y-14987425D01*
X10587400Y-14982994D01*
X10594522Y-14978583D01*
X10601659Y-14974193D01*
X10608808Y-14969824D01*
X10615970Y-14965475D01*
X10623143Y-14961147D01*
X10630327Y-14956839D01*
X10637522Y-14952552D01*
X10644726Y-14948286D01*
X10651939Y-14944041D01*
X10659161Y-14939816D01*
X10666390Y-14935612D01*
X10673627Y-14931428D01*
X10680870Y-14927265D01*
X10688118Y-14923123D01*
X10695372Y-14919001D01*
X10702631Y-14914901D01*
X10709893Y-14910820D01*
X10717159Y-14906761D01*
X10724427Y-14902722D01*
X10731697Y-14898704D01*
X10738968Y-14894706D01*
X10746240Y-14890729D01*
D10*
X21408470Y-7592179D02*
X21024150Y-7525187D01*
D11*
X20692719Y-12309793D02*
X20695332Y-12310194D01*
X20697880Y-12310736D01*
X20700361Y-12311412D01*
X20702773Y-12312217D01*
X20705112Y-12313145D01*
X20707376Y-12314193D01*
X20709563Y-12315354D01*
X20711670Y-12316624D01*
X20713694Y-12317997D01*
X20715633Y-12319468D01*
X20717484Y-12321032D01*
X20719245Y-12322684D01*
X20720913Y-12324418D01*
X20722485Y-12326230D01*
X20723959Y-12328115D01*
X20725333Y-12330066D01*
X20726603Y-12332080D01*
X20727767Y-12334150D01*
X20728823Y-12336272D01*
X20729768Y-12338440D01*
X20730599Y-12340650D01*
X20731314Y-12342896D01*
X20731910Y-12345173D01*
X20732385Y-12347475D01*
X20732735Y-12349799D01*
X20732960Y-12352137D01*
X20733055Y-12354486D01*
X20733018Y-12356841D01*
X20732847Y-12359195D01*
X20732540Y-12361544D01*
X20732092Y-12363883D01*
X20731503Y-12366206D01*
X8137096Y-5314467D02*
X8133161Y-5314559D01*
X8129292Y-5314833D01*
X8125493Y-5315283D01*
X8121767Y-5315906D01*
X8118119Y-5316697D01*
X8114552Y-5317651D01*
X8111070Y-5318764D01*
X8107678Y-5320031D01*
X8104378Y-5321448D01*
X8101175Y-5323011D01*
X8098073Y-5324714D01*
X8095075Y-5326553D01*
X8092186Y-5328524D01*
X8089409Y-5330622D01*
X8086749Y-5332843D01*
X8084208Y-5335182D01*
X8081792Y-5337634D01*
X8079503Y-5340196D01*
X8077346Y-5342862D01*
X8075325Y-5345628D01*
X8073443Y-5348490D01*
X8071704Y-5351443D01*
X8070113Y-5354483D01*
X8068673Y-5357604D01*
X8067387Y-5360803D01*
X8066261Y-5364075D01*
X8065297Y-5367415D01*
X8064499Y-5370819D01*
X8063873Y-5374283D01*
X8063420Y-5377801D01*
X8063146Y-5381370D01*
X8063053Y-5384985D01*
D10*
X9184280Y-5314467D02*
X8228769Y-5314467D01*
D11*
X9279478Y-16029585D02*
X9295035Y-16014070D01*
X9310633Y-15998597D01*
X9326272Y-15983166D01*
X9341952Y-15967779D01*
X9357674Y-15952436D01*
X9373437Y-15937137D01*
X9389242Y-15921883D01*
X9405087Y-15906675D01*
X9420974Y-15891514D01*
X9436903Y-15876400D01*
X9452873Y-15861334D01*
X9468884Y-15846316D01*
X9484936Y-15831347D01*
X9501030Y-15816427D01*
X9517165Y-15801559D01*
X9533341Y-15786741D01*
X9549559Y-15771975D01*
X9565817Y-15757261D01*
X9582118Y-15742600D01*
X9598459Y-15727992D01*
X9614842Y-15713439D01*
X9631266Y-15698941D01*
X9647732Y-15684498D01*
X9664239Y-15670112D01*
X9680787Y-15655782D01*
X9697377Y-15641510D01*
X9714007Y-15627295D01*
X9730680Y-15613140D01*
X9747393Y-15599044D01*
X9764148Y-15585008D01*
X9780944Y-15571032D01*
X9797781Y-15557119D01*
X8496735Y-16717130D02*
X8499420Y-16719691D01*
X8502182Y-16722088D01*
X8505017Y-16724319D01*
X8507919Y-16726385D01*
X8510883Y-16728286D01*
X8513903Y-16730021D01*
X8516975Y-16731591D01*
X8520094Y-16732996D01*
X8523254Y-16734236D01*
X8526450Y-16735310D01*
X8529678Y-16736219D01*
X8532931Y-16736963D01*
X8536204Y-16737541D01*
X8539493Y-16737954D01*
X8542793Y-16738202D01*
X8546097Y-16738285D01*
X8549402Y-16738202D01*
X8552702Y-16737954D01*
X8555991Y-16737541D01*
X8559264Y-16736963D01*
X8562517Y-16736219D01*
X8565745Y-16735310D01*
X8568941Y-16734236D01*
X8572101Y-16732996D01*
X8575219Y-16731591D01*
X8578292Y-16730021D01*
X8581312Y-16728286D01*
X8584276Y-16726385D01*
X8587178Y-16724319D01*
X8590012Y-16722088D01*
X8592775Y-16719691D01*
X8595460Y-16717130D01*
D10*
X9840092Y-15419610D02*
X10517059Y-15028238D01*
D11*
X9617962Y-15246842D02*
X9616701Y-15244518D01*
X9615564Y-15242177D01*
X9614550Y-15239822D01*
X9613658Y-15237456D01*
X9612887Y-15235082D01*
X9612237Y-15232703D01*
X9611706Y-15230323D01*
X9611296Y-15227945D01*
X9611004Y-15225573D01*
X9610830Y-15223208D01*
X9610774Y-15220856D01*
X9610834Y-15218518D01*
X9611011Y-15216198D01*
X9611303Y-15213900D01*
X9611711Y-15211626D01*
X9612232Y-15209379D01*
X9612867Y-15207164D01*
X9613616Y-15204983D01*
X9614476Y-15202840D01*
X9615448Y-15200737D01*
X9616531Y-15198678D01*
X9617725Y-15196666D01*
X9619028Y-15194705D01*
X9620441Y-15192797D01*
X9621962Y-15190946D01*
X9623591Y-15189155D01*
X9625327Y-15187427D01*
X9627169Y-15185766D01*
X9629117Y-15184174D01*
X9631171Y-15182656D01*
X9633329Y-15181213D01*
X9635591Y-15179850D01*
D10*
X20921900Y-10761936D02*
X20971262Y-10476340D01*
X16944719Y-12542500D02*
X18453791Y-12648276D01*
D11*
X21461358Y-7669748D02*
X21461917Y-7666443D01*
X21462275Y-7663144D01*
X21462438Y-7659855D01*
X21462412Y-7656581D01*
X21462202Y-7653328D01*
X21461815Y-7650101D01*
X21461256Y-7646905D01*
X21460532Y-7643745D01*
X21459647Y-7640626D01*
X21458608Y-7637554D01*
X21457420Y-7634533D01*
X21456090Y-7631569D01*
X21454623Y-7628668D01*
X21453025Y-7625833D01*
X21451301Y-7623071D01*
X21449458Y-7620386D01*
X21447502Y-7617784D01*
X21445437Y-7615269D01*
X21443271Y-7612848D01*
X21441009Y-7610524D01*
X21438656Y-7608304D01*
X21436218Y-7606193D01*
X21433702Y-7604195D01*
X21431113Y-7602316D01*
X21428456Y-7600560D01*
X21425739Y-7598934D01*
X21422965Y-7597443D01*
X21420143Y-7596090D01*
X21417276Y-7594883D01*
X21414371Y-7593825D01*
X21411434Y-7592922D01*
X21408470Y-7592179D01*
D10*
X21066461Y-10493970D02*
X21017099Y-10779565D01*
X8831693Y-13875279D02*
X8066579Y-13875279D01*
X9797781Y-15557119D02*
X9617962Y-15246842D01*
D11*
X9702583Y-15197480D02*
X9703776Y-15199548D01*
X9705215Y-15202041D01*
X9707169Y-15205427D01*
X9709604Y-15209644D01*
X9712484Y-15214632D01*
X9715774Y-15220331D01*
X9719441Y-15226678D01*
X9723448Y-15233615D01*
X9727761Y-15241080D01*
X9732346Y-15249012D01*
X9737166Y-15257351D01*
X9742189Y-15266036D01*
X9747377Y-15275006D01*
X9752698Y-15284201D01*
X9758115Y-15293560D01*
X9763594Y-15303022D01*
X9769101Y-15312527D01*
X9774599Y-15322014D01*
X9780055Y-15331422D01*
X9785434Y-15340690D01*
X9790700Y-15349758D01*
X9795819Y-15358566D01*
X9800756Y-15367052D01*
X9805476Y-15375156D01*
X9809944Y-15382817D01*
X9814126Y-15389974D01*
X9817986Y-15396567D01*
X9821490Y-15402536D01*
X9824602Y-15407818D01*
X9827289Y-15412354D01*
X9829514Y-15416084D01*
X20847857Y-11156833D02*
X20848259Y-11154220D01*
X20848800Y-11151672D01*
X20849476Y-11149191D01*
X20850281Y-11146779D01*
X20851210Y-11144440D01*
X20852257Y-11142175D01*
X20853418Y-11139988D01*
X20854688Y-11137882D01*
X20856061Y-11135857D01*
X20857532Y-11133918D01*
X20859096Y-11132067D01*
X20860748Y-11130307D01*
X20862483Y-11128639D01*
X20864295Y-11127066D01*
X20866179Y-11125592D01*
X20868131Y-11124219D01*
X20870144Y-11122949D01*
X20872214Y-11121785D01*
X20874336Y-11120729D01*
X20876504Y-11119784D01*
X20878714Y-11118953D01*
X20880960Y-11118238D01*
X20883237Y-11117642D01*
X20885540Y-11117167D01*
X20887863Y-11116816D01*
X20890202Y-11116592D01*
X20892551Y-11116497D01*
X20894905Y-11116534D01*
X20897259Y-11116705D01*
X20899609Y-11117012D01*
X20901947Y-11117459D01*
X20904271Y-11118049D01*
D10*
X20950107Y-5314467D02*
X20854909Y-5314467D01*
D11*
X21077038Y-10141383D02*
X21074425Y-10140981D01*
X21071877Y-10140439D01*
X21069396Y-10139764D01*
X21066984Y-10138959D01*
X21064645Y-10138030D01*
X21062381Y-10136982D01*
X21060194Y-10135821D01*
X21058087Y-10134551D01*
X21056063Y-10133178D01*
X21054124Y-10131707D01*
X21052272Y-10130143D01*
X21050512Y-10128491D01*
X21048844Y-10126757D01*
X21047272Y-10124945D01*
X21045797Y-10123060D01*
X21044424Y-10121109D01*
X21043154Y-10119096D01*
X21041990Y-10117025D01*
X21040934Y-10114903D01*
X21039989Y-10112735D01*
X21039158Y-10110525D01*
X21038443Y-10108279D01*
X21037847Y-10106003D01*
X21037372Y-10103700D01*
X21037022Y-10101377D01*
X21036797Y-10099038D01*
X21036702Y-10096689D01*
X21036739Y-10094334D01*
X21036910Y-10091980D01*
X21037217Y-10089631D01*
X21037665Y-10087292D01*
X21038254Y-10084969D01*
X8063053Y-13706037D02*
X8063146Y-13709652D01*
X8063419Y-13713220D01*
X8063870Y-13716739D01*
X8064493Y-13720202D01*
X8065283Y-13723606D01*
X8066237Y-13726947D01*
X8067350Y-13730219D01*
X8068618Y-13733417D01*
X8070035Y-13736539D01*
X8071597Y-13739578D01*
X8073300Y-13742531D01*
X8075139Y-13745393D01*
X8077110Y-13748159D01*
X8079208Y-13750826D01*
X8081429Y-13753387D01*
X8083768Y-13755840D01*
X8086220Y-13758179D01*
X8088782Y-13760400D01*
X8091448Y-13762498D01*
X8094214Y-13764469D01*
X8097076Y-13766308D01*
X8100029Y-13768011D01*
X8103069Y-13769573D01*
X8106190Y-13770990D01*
X8109389Y-13772257D01*
X8112661Y-13773370D01*
X8116001Y-13774324D01*
X8119405Y-13775115D01*
X8122869Y-13775738D01*
X8126387Y-13776189D01*
X8129956Y-13776462D01*
X8133571Y-13776554D01*
D10*
X8063053Y-5384985D02*
X8063053Y-13706037D01*
D11*
X9089081Y-14333642D02*
X9087821Y-14331318D01*
X9086684Y-14328977D01*
X9085670Y-14326622D01*
X9084777Y-14324256D01*
X9084006Y-14321882D01*
X9083356Y-14319503D01*
X9082826Y-14317123D01*
X9082415Y-14314745D01*
X9082123Y-14312373D01*
X9081950Y-14310008D01*
X9081893Y-14307656D01*
X9081954Y-14305318D01*
X9082131Y-14302998D01*
X9082423Y-14300699D01*
X9082830Y-14298426D01*
X9083352Y-14296179D01*
X9083987Y-14293964D01*
X9084735Y-14291783D01*
X9085596Y-14289640D01*
X9086568Y-14287537D01*
X9087651Y-14285478D01*
X9088845Y-14283466D01*
X9090148Y-14281505D01*
X9091561Y-14279597D01*
X9093082Y-14277746D01*
X9094710Y-14275955D01*
X9096446Y-14274227D01*
X9098289Y-14272566D01*
X9100237Y-14270974D01*
X9102291Y-14269455D01*
X9104449Y-14268013D01*
X9106711Y-14266650D01*
D10*
X7798613Y-14545194D02*
X7111068Y-15232739D01*
X14853878Y-4986561D02*
X14853878Y-5314467D01*
D11*
X18393851Y-12997337D02*
X18393603Y-13000632D01*
X18393516Y-13003902D01*
X18393586Y-13007143D01*
X18393810Y-13010353D01*
X18394184Y-13013526D01*
X18394704Y-13016659D01*
X18395365Y-13019748D01*
X18396165Y-13022790D01*
X18397099Y-13025779D01*
X18398164Y-13028714D01*
X18399355Y-13031588D01*
X18400669Y-13034400D01*
X18402102Y-13037145D01*
X18403649Y-13039818D01*
X18405308Y-13042417D01*
X18407073Y-13044936D01*
X18408943Y-13047373D01*
X18410911Y-13049724D01*
X18412975Y-13051984D01*
X18415131Y-13054150D01*
X18417374Y-13056218D01*
X18419702Y-13058184D01*
X18422109Y-13060044D01*
X18424593Y-13061794D01*
X18427149Y-13063431D01*
X18429773Y-13064950D01*
X18432462Y-13066348D01*
X18435212Y-13067620D01*
X18438018Y-13068764D01*
X18440877Y-13069774D01*
X18443786Y-13070648D01*
X18446740Y-13071380D01*
D10*
X16955297Y-5314467D02*
X16955297Y-4986561D01*
D12*
X19280000Y-6115000D02*
X20720000Y-6115000D01*
X20720000Y-6115000D02*
X20720000Y-7255000D01*
X20720000Y-7255000D02*
X19280000Y-7255000D01*
X19280000Y-7255000D02*
X19280000Y-6115000D01*
D11*
X20904271Y-11118049D02*
X20906884Y-11118451D01*
X20909432Y-11118992D01*
X20911913Y-11119668D01*
X20914325Y-11120473D01*
X20916664Y-11121402D01*
X20918929Y-11122449D01*
X20921115Y-11123610D01*
X20923222Y-11124880D01*
X20925246Y-11126253D01*
X20927185Y-11127724D01*
X20929037Y-11129288D01*
X20930797Y-11130940D01*
X20932465Y-11132675D01*
X20934038Y-11134487D01*
X20935512Y-11136371D01*
X20936885Y-11138322D01*
X20938155Y-11140336D01*
X20939319Y-11142406D01*
X20940375Y-11144528D01*
X20941320Y-11146696D01*
X20942151Y-11148906D01*
X20942866Y-11151152D01*
X20943462Y-11153429D01*
X20943937Y-11155731D01*
X20944288Y-11158055D01*
X20944512Y-11160394D01*
X20944607Y-11162743D01*
X20944570Y-11165097D01*
X20944399Y-11167451D01*
X20944092Y-11169800D01*
X20943644Y-11172139D01*
X20943055Y-11174463D01*
D10*
X20706822Y-11960731D02*
X20847857Y-11156833D01*
X8595460Y-16717130D02*
X9279478Y-16029585D01*
D11*
X21024150Y-5388510D02*
X21024058Y-5384585D01*
X21023784Y-5380745D01*
X21023331Y-5376991D01*
X21022704Y-5373326D01*
X21021907Y-5369751D01*
X21020943Y-5366268D01*
X21019816Y-5362880D01*
X21018531Y-5359587D01*
X21017091Y-5356393D01*
X21015499Y-5353299D01*
X21013761Y-5350307D01*
X21011879Y-5347419D01*
X21009857Y-5344637D01*
X21007700Y-5341962D01*
X21005412Y-5339398D01*
X21002995Y-5336945D01*
X21000455Y-5334605D01*
X20997794Y-5332381D01*
X20995017Y-5330275D01*
X20992128Y-5328288D01*
X20989131Y-5326423D01*
X20986029Y-5324681D01*
X20982826Y-5323064D01*
X20979526Y-5321574D01*
X20976133Y-5320213D01*
X20972652Y-5318984D01*
X20969085Y-5317887D01*
X20965436Y-5316926D01*
X20961711Y-5316101D01*
X20957911Y-5315415D01*
X20954042Y-5314870D01*
X20950107Y-5314467D01*
D10*
X20460011Y-13360502D02*
X20636305Y-12348577D01*
D11*
X21017099Y-10779565D02*
X21016697Y-10782178D01*
X21016155Y-10784727D01*
X21015479Y-10787208D01*
X21014675Y-10789619D01*
X21013746Y-10791959D01*
X21012698Y-10794223D01*
X21011537Y-10796410D01*
X21010267Y-10798517D01*
X21008894Y-10800541D01*
X21007423Y-10802480D01*
X21005859Y-10804331D01*
X21004207Y-10806092D01*
X21002473Y-10807760D01*
X21000661Y-10809332D01*
X20998776Y-10810806D01*
X20996825Y-10812179D01*
X20994811Y-10813450D01*
X20992741Y-10814614D01*
X20990619Y-10815670D01*
X20988451Y-10816614D01*
X20986241Y-10817445D01*
X20983995Y-10818160D01*
X20981719Y-10818756D01*
X20979416Y-10819231D01*
X20977093Y-10819582D01*
X20974754Y-10819806D01*
X20972405Y-10819901D01*
X20970050Y-10819865D01*
X20967696Y-10819694D01*
X20965347Y-10819386D01*
X20963008Y-10818939D01*
X20960685Y-10818350D01*
X9487505Y-14922462D02*
X9485181Y-14923722D01*
X9482840Y-14924859D01*
X9480485Y-14925874D01*
X9478118Y-14926766D01*
X9475744Y-14927537D01*
X9473366Y-14928187D01*
X9470986Y-14928717D01*
X9468608Y-14929128D01*
X9466236Y-14929420D01*
X9463871Y-14929594D01*
X9461518Y-14929650D01*
X9459181Y-14929589D01*
X9456861Y-14929413D01*
X9454562Y-14929120D01*
X9452288Y-14928713D01*
X9450042Y-14928191D01*
X9447827Y-14927556D01*
X9445646Y-14926808D01*
X9443503Y-14925948D01*
X9441400Y-14924975D01*
X9439341Y-14923892D01*
X9437329Y-14922699D01*
X9435368Y-14921395D01*
X9433460Y-14919983D01*
X9431609Y-14918462D01*
X9429818Y-14916833D01*
X9428090Y-14915097D01*
X9426429Y-14913255D01*
X9424837Y-14911306D01*
X9423318Y-14909253D01*
X9421876Y-14907095D01*
X9420513Y-14904833D01*
D10*
X10210308Y-5314467D02*
X10210308Y-6061951D01*
X15347500Y-12542500D02*
X16944719Y-12542500D01*
X14296791Y-13917589D02*
X15276983Y-13917589D01*
D11*
X20971262Y-10476340D02*
X20971664Y-10473727D01*
X20972206Y-10471179D01*
X20972881Y-10468698D01*
X20973686Y-10466286D01*
X20974615Y-10463947D01*
X20975663Y-10461683D01*
X20976824Y-10459496D01*
X20978094Y-10457389D01*
X20979467Y-10455365D01*
X20980938Y-10453426D01*
X20982502Y-10451575D01*
X20984154Y-10449814D01*
X20985888Y-10448146D01*
X20987700Y-10446574D01*
X20989584Y-10445100D01*
X20991536Y-10443726D01*
X20993549Y-10442456D01*
X20995620Y-10441292D01*
X20997741Y-10440236D01*
X20999910Y-10439291D01*
X21002120Y-10438460D01*
X21004365Y-10437745D01*
X21006642Y-10437149D01*
X21008945Y-10436674D01*
X21011268Y-10436323D01*
X21013607Y-10436099D01*
X21015956Y-10436004D01*
X21018311Y-10436041D01*
X21020665Y-10436212D01*
X21023014Y-10436519D01*
X21025353Y-10436966D01*
X21027676Y-10437556D01*
D10*
X22409817Y-13198312D02*
X23083258Y-9390372D01*
D11*
X9635591Y-15179850D02*
X9637915Y-15178590D01*
X9640256Y-15177453D01*
X9642611Y-15176439D01*
X9644977Y-15175546D01*
X9647351Y-15174775D01*
X9649730Y-15174125D01*
X9652110Y-15173595D01*
X9654488Y-15173184D01*
X9656860Y-15172892D01*
X9659225Y-15172719D01*
X9661577Y-15172662D01*
X9663915Y-15172723D01*
X9666235Y-15172900D01*
X9668533Y-15173192D01*
X9670807Y-15173599D01*
X9673054Y-15174121D01*
X9675269Y-15174756D01*
X9677450Y-15175504D01*
X9679593Y-15176365D01*
X9681696Y-15177337D01*
X9683755Y-15178420D01*
X9685767Y-15179614D01*
X9687728Y-15180917D01*
X9689636Y-15182330D01*
X9691487Y-15183851D01*
X9693278Y-15185479D01*
X9695006Y-15187215D01*
X9696667Y-15189058D01*
X9698259Y-15191006D01*
X9699777Y-15193060D01*
X9701220Y-15195218D01*
X9702583Y-15197480D01*
D10*
X21401418Y-8011757D02*
X21461358Y-7669748D01*
X18446740Y-13071380D02*
X20382442Y-13413390D01*
D11*
X20382442Y-13413390D02*
X20385747Y-13413958D01*
X20389046Y-13414345D01*
X20392335Y-13414554D01*
X20395609Y-13414588D01*
X20398862Y-13414452D01*
X20402089Y-13414149D01*
X20405285Y-13413683D01*
X20408445Y-13413059D01*
X20411564Y-13412280D01*
X20414636Y-13411350D01*
X20417657Y-13410272D01*
X20420621Y-13409051D01*
X20423522Y-13407691D01*
X20426357Y-13406195D01*
X20429119Y-13404567D01*
X20431804Y-13402812D01*
X20434406Y-13400933D01*
X20436921Y-13398933D01*
X20439342Y-13396818D01*
X20441666Y-13394590D01*
X20443886Y-13392253D01*
X20445997Y-13389812D01*
X20447995Y-13387270D01*
X20449874Y-13384632D01*
X20451629Y-13381900D01*
X20453256Y-13379080D01*
X20454747Y-13376174D01*
X20456100Y-13373186D01*
X20457307Y-13370122D01*
X20458365Y-13366983D01*
X20459268Y-13363775D01*
X20460011Y-13360502D01*
X14920870Y-4919570D02*
X14917575Y-4919662D01*
X14914307Y-4919935D01*
X14911069Y-4920383D01*
X14907868Y-4921002D01*
X14904708Y-4921786D01*
X14901594Y-4922731D01*
X14898533Y-4923830D01*
X14895527Y-4925079D01*
X14892584Y-4926473D01*
X14889708Y-4928006D01*
X14886905Y-4929673D01*
X14884179Y-4931470D01*
X14881535Y-4933390D01*
X14878979Y-4935429D01*
X14876517Y-4937582D01*
X14874152Y-4939843D01*
X14871891Y-4942208D01*
X14869738Y-4944671D01*
X14867698Y-4947227D01*
X14865778Y-4949870D01*
X14863981Y-4952596D01*
X14862314Y-4955400D01*
X14860781Y-4958276D01*
X14859387Y-4961219D01*
X14858138Y-4964224D01*
X14857039Y-4967286D01*
X14856095Y-4970400D01*
X14855311Y-4973560D01*
X14854692Y-4976761D01*
X14854243Y-4979998D01*
X14853970Y-4983267D01*
X14853878Y-4986561D01*
D10*
X23037422Y-9312803D02*
X21327375Y-9013104D01*
D11*
X7111068Y-15232739D02*
X7108507Y-15235423D01*
X7106110Y-15238186D01*
X7103879Y-15241020D01*
X7101813Y-15243922D01*
X7099912Y-15246886D01*
X7098177Y-15249906D01*
X7096607Y-15252979D01*
X7095202Y-15256097D01*
X7093962Y-15259257D01*
X7092888Y-15262454D01*
X7091979Y-15265681D01*
X7091235Y-15268934D01*
X7090657Y-15272207D01*
X7090244Y-15275497D01*
X7089996Y-15278796D01*
X7089913Y-15282101D01*
X7089996Y-15285405D01*
X7090244Y-15288705D01*
X7090657Y-15291994D01*
X7091235Y-15295268D01*
X7091979Y-15298521D01*
X7092888Y-15301748D01*
X7093962Y-15304944D01*
X7095202Y-15308104D01*
X7096607Y-15311223D01*
X7098177Y-15314295D01*
X7099912Y-15317315D01*
X7101813Y-15320279D01*
X7103879Y-15323181D01*
X7106110Y-15326016D01*
X7108507Y-15328778D01*
X7111068Y-15331463D01*
X8958624Y-13998684D02*
X8956301Y-13999944D01*
X8953960Y-14001081D01*
X8951604Y-14002096D01*
X8949238Y-14002988D01*
X8946864Y-14003759D01*
X8944486Y-14004409D01*
X8942106Y-14004939D01*
X8939728Y-14005350D01*
X8937355Y-14005642D01*
X8934991Y-14005816D01*
X8932638Y-14005872D01*
X8930300Y-14005812D01*
X8927980Y-14005635D01*
X8925682Y-14005342D01*
X8923408Y-14004935D01*
X8921162Y-14004414D01*
X8918947Y-14003778D01*
X8916766Y-14003030D01*
X8914622Y-14002170D01*
X8912519Y-14001198D01*
X8910460Y-14000114D01*
X8908449Y-13998921D01*
X8906487Y-13997617D01*
X8904579Y-13996205D01*
X8902728Y-13994684D01*
X8900937Y-13993055D01*
X8899209Y-13991319D01*
X8897548Y-13989477D01*
X8895957Y-13987529D01*
X8894438Y-13985475D01*
X8892996Y-13983317D01*
X8891633Y-13981055D01*
D10*
X8884581Y-13776554D02*
X8976254Y-13931693D01*
X8891633Y-13981055D02*
X8831693Y-13875279D01*
D11*
X10746240Y-14890729D02*
X10798258Y-14860867D01*
X10850511Y-14831442D01*
X10902984Y-14802459D01*
X10955664Y-14773921D01*
X11008538Y-14745833D01*
X11061593Y-14718197D01*
X11114814Y-14691019D01*
X11168187Y-14664302D01*
X11221701Y-14638050D01*
X11275340Y-14612266D01*
X11329091Y-14586955D01*
X11382942Y-14562121D01*
X11436877Y-14537767D01*
X11490885Y-14513897D01*
X11544950Y-14490515D01*
X11599060Y-14467625D01*
X11653201Y-14445231D01*
X11707359Y-14423336D01*
X11761521Y-14401945D01*
X11815673Y-14381062D01*
X11869803Y-14360690D01*
X11923895Y-14340833D01*
X11977937Y-14321495D01*
X12031915Y-14302680D01*
X12085816Y-14284392D01*
X12139626Y-14266635D01*
X12193331Y-14249412D01*
X12246918Y-14232727D01*
X12300373Y-14216585D01*
X12353683Y-14200989D01*
X12406834Y-14185944D01*
X12459813Y-14171452D01*
X20636305Y-12348577D02*
X20636707Y-12345964D01*
X20637248Y-12343416D01*
X20637924Y-12340934D01*
X20638729Y-12338523D01*
X20639658Y-12336184D01*
X20640705Y-12333919D01*
X20641866Y-12331732D01*
X20643136Y-12329625D01*
X20644509Y-12327601D01*
X20645980Y-12325662D01*
X20647544Y-12323811D01*
X20649196Y-12322050D01*
X20650931Y-12320383D01*
X20652743Y-12318810D01*
X20654627Y-12317336D01*
X20656578Y-12315963D01*
X20658592Y-12314693D01*
X20660662Y-12313528D01*
X20662784Y-12312473D01*
X20664952Y-12311528D01*
X20667162Y-12310697D01*
X20669408Y-12309982D01*
X20671685Y-12309386D01*
X20673987Y-12308911D01*
X20676311Y-12308560D01*
X20678650Y-12308336D01*
X20680999Y-12308241D01*
X20683353Y-12308277D01*
X20685707Y-12308448D01*
X20688056Y-12308756D01*
X20690395Y-12309203D01*
X20692719Y-12309793D01*
X12459813Y-14171452D02*
X12517699Y-14156153D01*
X12575657Y-14141330D01*
X12633677Y-14126982D01*
X12691749Y-14113109D01*
X12749862Y-14099712D01*
X12808006Y-14086789D01*
X12866171Y-14074342D01*
X12924346Y-14062370D01*
X12982521Y-14050873D01*
X13040686Y-14039851D01*
X13098830Y-14029305D01*
X13156943Y-14019233D01*
X13215015Y-14009637D01*
X13273035Y-14000516D01*
X13330993Y-13991870D01*
X13388879Y-13983699D01*
X13446683Y-13976004D01*
X13504393Y-13968783D01*
X13562000Y-13962038D01*
X13619493Y-13955768D01*
X13676863Y-13949973D01*
X13734098Y-13944653D01*
X13791188Y-13939808D01*
X13848124Y-13935439D01*
X13904894Y-13931545D01*
X13961489Y-13928125D01*
X14017898Y-13925181D01*
X14074110Y-13922713D01*
X14130116Y-13920719D01*
X14185905Y-13919200D01*
X14241467Y-13918157D01*
X14296791Y-13917589D01*
D10*
X20943055Y-11174463D02*
X20802020Y-11978361D01*
X8066579Y-13875279D02*
X8066579Y-14280754D01*
D11*
X20960685Y-10818350D02*
X20958072Y-10817948D01*
X20955523Y-10817406D01*
X20953042Y-10816730D01*
X20950630Y-10815926D01*
X20948291Y-10814997D01*
X20946027Y-10813949D01*
X20943840Y-10812788D01*
X20941733Y-10811518D01*
X20939709Y-10810145D01*
X20937770Y-10808674D01*
X20935919Y-10807110D01*
X20934158Y-10805458D01*
X20932490Y-10803724D01*
X20930918Y-10801912D01*
X20929444Y-10800027D01*
X20928070Y-10798076D01*
X20926800Y-10796062D01*
X20925636Y-10793992D01*
X20924580Y-10791870D01*
X20923635Y-10789702D01*
X20922804Y-10787492D01*
X20922089Y-10785246D01*
X20921493Y-10782970D01*
X20921019Y-10780667D01*
X20920668Y-10778344D01*
X20920444Y-10776005D01*
X20920349Y-10773656D01*
X20920385Y-10771301D01*
X20920556Y-10768947D01*
X20920864Y-10766598D01*
X20921311Y-10764259D01*
X20921900Y-10761936D01*
D10*
X8228769Y-5314467D02*
X8137096Y-5314467D01*
X7111068Y-15331463D02*
X8496735Y-16717130D01*
X21038254Y-10084969D02*
X21401418Y-8011757D01*
D11*
X9106711Y-14266650D02*
X9109034Y-14265390D01*
X9111376Y-14264253D01*
X9113731Y-14263238D01*
X9116097Y-14262346D01*
X9118471Y-14261575D01*
X9120850Y-14260925D01*
X9123229Y-14260395D01*
X9125607Y-14259984D01*
X9127980Y-14259692D01*
X9130344Y-14259518D01*
X9132697Y-14259462D01*
X9135035Y-14259523D01*
X9137355Y-14259699D01*
X9139653Y-14259992D01*
X9141927Y-14260399D01*
X9144173Y-14260921D01*
X9146388Y-14261556D01*
X9148569Y-14262304D01*
X9150713Y-14263164D01*
X9152816Y-14264137D01*
X9154874Y-14265220D01*
X9156886Y-14266413D01*
X9158848Y-14267717D01*
X9160756Y-14269129D01*
X9162607Y-14270650D01*
X9164398Y-14272279D01*
X9166125Y-14274015D01*
X9167787Y-14275857D01*
X9169378Y-14277806D01*
X9170897Y-14279859D01*
X9172339Y-14282017D01*
X9173702Y-14284280D01*
X16955297Y-4986561D02*
X16955205Y-4983267D01*
X16954932Y-4979998D01*
X16954483Y-4976761D01*
X16953864Y-4973560D01*
X16953080Y-4970400D01*
X16952136Y-4967286D01*
X16951037Y-4964224D01*
X16949788Y-4961219D01*
X16948394Y-4958276D01*
X16946861Y-4955400D01*
X16945193Y-4952596D01*
X16943397Y-4949870D01*
X16941477Y-4947227D01*
X16939437Y-4944671D01*
X16937284Y-4942208D01*
X16935023Y-4939843D01*
X16932658Y-4937582D01*
X16930196Y-4935429D01*
X16927640Y-4933390D01*
X16924996Y-4931470D01*
X16922270Y-4929673D01*
X16919466Y-4928006D01*
X16916591Y-4926473D01*
X16913647Y-4925079D01*
X16910642Y-4923830D01*
X16907580Y-4922731D01*
X16904467Y-4921786D01*
X16901307Y-4921002D01*
X16898105Y-4920383D01*
X16894868Y-4919935D01*
X16891599Y-4919662D01*
X16888305Y-4919570D01*
X20802020Y-11978361D02*
X20801618Y-11980974D01*
X20801077Y-11983522D01*
X20800401Y-11986003D01*
X20799596Y-11988415D01*
X20798668Y-11990754D01*
X20797620Y-11993018D01*
X20796459Y-11995205D01*
X20795189Y-11997312D01*
X20793816Y-11999336D01*
X20792345Y-12001275D01*
X20790781Y-12003127D01*
X20789129Y-12004887D01*
X20787394Y-12006555D01*
X20785582Y-12008127D01*
X20783698Y-12009602D01*
X20781747Y-12010975D01*
X20779733Y-12012245D01*
X20777663Y-12013409D01*
X20775541Y-12014465D01*
X20773373Y-12015410D01*
X20771163Y-12016241D01*
X20768917Y-12016956D01*
X20766640Y-12017552D01*
X20764338Y-12018027D01*
X20762014Y-12018378D01*
X20759676Y-12018602D01*
X20757326Y-12018697D01*
X20754972Y-12018660D01*
X20752618Y-12018490D01*
X20750269Y-12018182D01*
X20747930Y-12017735D01*
X20745607Y-12017145D01*
X22332248Y-13254726D02*
X22335863Y-13255294D01*
X22339433Y-13255680D01*
X22342956Y-13255887D01*
X22346427Y-13255917D01*
X22349844Y-13255774D01*
X22353204Y-13255462D01*
X22356503Y-13254983D01*
X22359739Y-13254340D01*
X22362907Y-13253537D01*
X22366005Y-13252578D01*
X22369029Y-13251465D01*
X22371976Y-13250201D01*
X22374843Y-13248790D01*
X22377627Y-13247236D01*
X22380325Y-13245540D01*
X22382932Y-13243707D01*
X22385447Y-13241740D01*
X22387866Y-13239642D01*
X22390185Y-13237416D01*
X22392401Y-13235065D01*
X22394512Y-13232593D01*
X22396513Y-13230002D01*
X22398402Y-13227297D01*
X22400176Y-13224480D01*
X22401831Y-13221555D01*
X22403364Y-13218524D01*
X22404771Y-13215392D01*
X22406050Y-13212160D01*
X22407197Y-13208834D01*
X22408210Y-13205414D01*
X22409084Y-13201906D01*
X22409817Y-13198312D01*
D10*
X9173702Y-14284280D02*
X9505134Y-14855471D01*
D11*
X21027676Y-10437556D02*
X21029969Y-10437958D01*
X21032218Y-10438499D01*
X21034420Y-10439175D01*
X21036573Y-10439980D01*
X21038675Y-10440909D01*
X21040723Y-10441956D01*
X21042713Y-10443117D01*
X21044644Y-10444387D01*
X21046514Y-10445760D01*
X21048318Y-10447231D01*
X21050056Y-10448795D01*
X21051724Y-10450447D01*
X21053319Y-10452182D01*
X21054840Y-10453994D01*
X21056283Y-10455878D01*
X21057646Y-10457829D01*
X21058927Y-10459843D01*
X21060122Y-10461913D01*
X21061229Y-10464035D01*
X21062246Y-10466203D01*
X21063170Y-10468413D01*
X21063999Y-10470659D01*
X21064729Y-10472936D01*
X21065359Y-10475238D01*
X21065885Y-10477562D01*
X21066306Y-10479901D01*
X21066618Y-10482250D01*
X21066819Y-10484604D01*
X21066906Y-10486958D01*
X21066878Y-10489307D01*
X21066730Y-10491646D01*
X21066461Y-10493970D01*
X8066579Y-14280754D02*
X8057985Y-14288707D01*
X8049392Y-14296700D01*
X8040802Y-14304731D01*
X8032216Y-14312796D01*
X8023634Y-14320896D01*
X8015060Y-14329027D01*
X8006493Y-14337188D01*
X7997935Y-14345376D01*
X7989387Y-14353591D01*
X7980851Y-14361829D01*
X7972328Y-14370089D01*
X7963819Y-14378369D01*
X7955326Y-14386668D01*
X7946849Y-14394982D01*
X7938391Y-14403311D01*
X7929952Y-14411652D01*
X7921533Y-14420003D01*
X7913137Y-14428362D01*
X7904763Y-14436729D01*
X7896414Y-14445099D01*
X7888092Y-14453472D01*
X7879796Y-14461846D01*
X7871528Y-14470219D01*
X7863291Y-14478588D01*
X7855084Y-14486952D01*
X7846909Y-14495309D01*
X7838769Y-14503657D01*
X7830662Y-14511994D01*
X7822593Y-14520318D01*
X7814560Y-14528628D01*
X7806567Y-14536920D01*
X7798613Y-14545194D01*
X20745607Y-12017145D02*
X20743304Y-12016743D01*
X20741026Y-12016202D01*
X20738778Y-12015526D01*
X20736565Y-12014721D01*
X20734390Y-12013793D01*
X20732258Y-12012745D01*
X20730174Y-12011584D01*
X20728143Y-12010314D01*
X20726168Y-12008941D01*
X20724254Y-12007470D01*
X20722407Y-12005906D01*
X20720629Y-12004254D01*
X20718927Y-12002519D01*
X20717304Y-12000707D01*
X20715765Y-11998823D01*
X20714315Y-11996872D01*
X20712957Y-11994858D01*
X20711697Y-11992788D01*
X20710539Y-11990666D01*
X20709487Y-11988498D01*
X20708547Y-11986288D01*
X20707722Y-11984042D01*
X20707017Y-11981765D01*
X20706436Y-11979463D01*
X20705985Y-11977139D01*
X20705668Y-11974800D01*
X20705488Y-11972451D01*
X20705452Y-11970097D01*
X20705562Y-11967743D01*
X20705824Y-11965394D01*
X20706243Y-11963055D01*
X20706822Y-11960731D01*
D10*
X20854909Y-5314467D02*
X16955297Y-5314467D01*
X10210308Y-6061951D02*
X9184280Y-6061951D01*
X8133571Y-13776554D02*
X8884581Y-13776554D01*
X20629253Y-12951501D02*
X22332248Y-13254726D01*
X16888305Y-4919570D02*
X14920870Y-4919570D01*
X15347500Y-13847072D02*
X15347500Y-12542500D01*
D11*
X8976254Y-13931693D02*
X8977514Y-13934016D01*
X8978651Y-13936357D01*
X8979665Y-13938713D01*
X8980558Y-13941079D01*
X8981329Y-13943453D01*
X8981979Y-13945831D01*
X8982509Y-13948211D01*
X8982920Y-13950589D01*
X8983212Y-13952962D01*
X8983385Y-13955326D01*
X8983442Y-13957679D01*
X8983381Y-13960017D01*
X8983204Y-13962336D01*
X8982912Y-13964635D01*
X8982505Y-13966909D01*
X8981983Y-13969155D01*
X8981348Y-13971370D01*
X8980600Y-13973551D01*
X8979739Y-13975695D01*
X8978767Y-13977797D01*
X8977684Y-13979856D01*
X8976490Y-13981868D01*
X8975187Y-13983830D01*
X8973774Y-13985738D01*
X8972254Y-13987589D01*
X8970625Y-13989380D01*
X8968889Y-13991107D01*
X8967046Y-13992769D01*
X8965098Y-13994360D01*
X8963045Y-13995879D01*
X8960886Y-13997321D01*
X8958624Y-13998684D01*
D10*
X20731503Y-12366206D02*
X20629253Y-12951501D01*
D11*
X9829514Y-15416084D02*
X9830506Y-15416985D01*
X9831497Y-15417718D01*
X9832489Y-15418300D01*
X9833481Y-15418749D01*
X9834472Y-15419081D01*
X9835464Y-15419314D01*
X9836456Y-15419466D01*
X9837778Y-15419573D01*
X9839100Y-15419607D01*
X9840092Y-15419610D01*
D10*
X18453791Y-12648276D02*
X18393851Y-12997337D01*
D11*
X21133452Y-10102598D02*
X21133050Y-10105211D01*
X21132509Y-10107760D01*
X21131833Y-10110241D01*
X21131028Y-10112652D01*
X21130099Y-10114992D01*
X21129052Y-10117256D01*
X21127891Y-10119443D01*
X21126621Y-10121550D01*
X21125248Y-10123574D01*
X21123777Y-10125513D01*
X21122213Y-10127364D01*
X21120561Y-10129125D01*
X21118826Y-10130793D01*
X21117014Y-10132365D01*
X21115130Y-10133839D01*
X21113179Y-10135212D01*
X21111165Y-10136483D01*
X21109095Y-10137647D01*
X21106973Y-10138703D01*
X21104805Y-10139647D01*
X21102595Y-10140478D01*
X21100349Y-10141193D01*
X21098072Y-10141789D01*
X21095770Y-10142264D01*
X21093446Y-10142615D01*
X21091107Y-10142839D01*
X21088758Y-10142934D01*
X21086404Y-10142898D01*
X21084050Y-10142727D01*
X21081701Y-10142419D01*
X21079362Y-10141972D01*
X21077038Y-10141383D01*
D13*
D11*
X8121000Y-11876000D02*
X8131000Y-11886000D01*
X8131000Y-11876000D02*
X8121000Y-11886000D01*
X8121000Y-12246000D02*
X8131000Y-12256000D01*
X8131000Y-12246000D02*
X8121000Y-12256000D01*
X8316000Y-11938500D02*
X8326000Y-11948500D01*
X8326000Y-11938500D02*
X8316000Y-11948500D01*
X8316000Y-12061000D02*
X8326000Y-12071000D01*
X8326000Y-12061000D02*
X8316000Y-12071000D01*
X8316000Y-12183500D02*
X8326000Y-12193500D01*
X8326000Y-12183500D02*
X8316000Y-12193500D01*
D14*
X7570000Y-15285000D02*
G75*
G03*
X7570000Y-15285000I-15000J0D01*
G01*
X7823100Y-15121200D02*
G75*
G03*
X7823100Y-15121200I-15000J0D01*
G01*
X7926582Y-15138116D02*
G75*
G03*
X7926582Y-15138116I-15000J0D01*
G01*
X8133400Y-6383800D02*
G75*
G03*
X8133400Y-6383800I-15000J0D01*
G01*
X8155000Y-6930000D02*
G75*
G03*
X8155000Y-6930000I-15000J0D01*
G01*
X8187500Y-6440000D02*
G75*
G03*
X8187500Y-6440000I-15000J0D01*
G01*
X8210000Y-10620000D02*
G75*
G03*
X8210000Y-10620000I-15000J0D01*
G01*
X8239800Y-6389900D02*
G75*
G03*
X8239800Y-6389900I-15000J0D01*
G01*
X8255000Y-10150000D02*
G75*
G03*
X8255000Y-10150000I-15000J0D01*
G01*
X8277348Y-12576233D02*
G75*
G03*
X8277348Y-12576233I-15000J0D01*
G01*
X8288976Y-10723312D02*
G75*
G03*
X8288976Y-10723312I-15000J0D01*
G01*
X8326700Y-6389400D02*
G75*
G03*
X8326700Y-6389400I-15000J0D01*
G01*
X8382500Y-10972500D02*
G75*
G03*
X8382500Y-10972500I-15000J0D01*
G01*
X8399363Y-14664370D02*
G75*
G03*
X8399363Y-14664370I-15000J0D01*
G01*
X8495000Y-14440000D02*
G75*
G03*
X8495000Y-14440000I-15000J0D01*
G01*
X8603000Y-6343000D02*
G75*
G03*
X8603000Y-6343000I-15000J0D01*
G01*
X8670619Y-6494100D02*
G75*
G03*
X8670619Y-6494100I-15000J0D01*
G01*
X8677664Y-12403758D02*
G75*
G03*
X8677664Y-12403758I-15000J0D01*
G01*
X8685000Y-15000000D02*
G75*
G03*
X8685000Y-15000000I-15000J0D01*
G01*
X8685303Y-7260303D02*
G75*
G03*
X8685303Y-7260303I-15000J0D01*
G01*
X8686148Y-7185000D02*
G75*
G03*
X8686148Y-7185000I-15000J0D01*
G01*
X8697500Y-14637500D02*
G75*
G03*
X8697500Y-14637500I-15000J0D01*
G01*
X8715971Y-6140400D02*
G75*
G03*
X8715971Y-6140400I-15000J0D01*
G01*
X8725000Y-5680000D02*
G75*
G03*
X8725000Y-5680000I-15000J0D01*
G01*
X8728479Y-7138479D02*
G75*
G03*
X8728479Y-7138479I-15000J0D01*
G01*
X8730000Y-6965000D02*
G75*
G03*
X8730000Y-6965000I-15000J0D01*
G01*
X8768621Y-5987921D02*
G75*
G03*
X8768621Y-5987921I-15000J0D01*
G01*
X8769852Y-16050490D02*
G75*
G03*
X8769852Y-16050490I-15000J0D01*
G01*
X8817500Y-7847500D02*
G75*
G03*
X8817500Y-7847500I-15000J0D01*
G01*
X8825000Y-11850000D02*
G75*
G03*
X8825000Y-11850000I-15000J0D01*
G01*
X8904800Y-12564200D02*
G75*
G03*
X8904800Y-12564200I-15000J0D01*
G01*
X8974514Y-12562545D02*
G75*
G03*
X8974514Y-12562545I-15000J0D01*
G01*
X9020000Y-12825000D02*
G75*
G03*
X9020000Y-12825000I-15000J0D01*
G01*
X9047500Y-10005000D02*
G75*
G03*
X9047500Y-10005000I-15000J0D01*
G01*
X9175000Y-13810000D02*
G75*
G03*
X9175000Y-13810000I-15000J0D01*
G01*
X9195000Y-12825000D02*
G75*
G03*
X9195000Y-12825000I-15000J0D01*
G01*
X9436600Y-15363809D02*
G75*
G03*
X9436600Y-15363809I-15000J0D01*
G01*
X9518424Y-13745185D02*
G75*
G03*
X9518424Y-13745185I-15000J0D01*
G01*
X9534900Y-13654456D02*
G75*
G03*
X9534900Y-13654456I-15000J0D01*
G01*
X9646102Y-13690326D02*
G75*
G03*
X9646102Y-13690326I-15000J0D01*
G01*
X9653100Y-10261600D02*
G75*
G03*
X9653100Y-10261600I-15000J0D01*
G01*
X9655000Y-13890000D02*
G75*
G03*
X9655000Y-13890000I-15000J0D01*
G01*
X9655400Y-10198700D02*
G75*
G03*
X9655400Y-10198700I-15000J0D01*
G01*
X9665000Y-10005000D02*
G75*
G03*
X9665000Y-10005000I-15000J0D01*
G01*
X9785000Y-14890000D02*
G75*
G03*
X9785000Y-14890000I-15000J0D01*
G01*
X9860000Y-10005000D02*
G75*
G03*
X9860000Y-10005000I-15000J0D01*
G01*
X9915600Y-9768100D02*
G75*
G03*
X9915600Y-9768100I-15000J0D01*
G01*
X9922121Y-9687121D02*
G75*
G03*
X9922121Y-9687121I-15000J0D01*
G01*
X9972500Y-10005000D02*
G75*
G03*
X9972500Y-10005000I-15000J0D01*
G01*
X10038432Y-10320967D02*
G75*
G03*
X10038432Y-10320967I-15000J0D01*
G01*
X10112500Y-10005000D02*
G75*
G03*
X10112500Y-10005000I-15000J0D01*
G01*
X10187475Y-14761727D02*
G75*
G03*
X10187475Y-14761727I-15000J0D01*
G01*
X10229181Y-6310619D02*
G75*
G03*
X10229181Y-6310619I-15000J0D01*
G01*
X10284954Y-13324141D02*
G75*
G03*
X10284954Y-13324141I-15000J0D01*
G01*
X10305651Y-6817049D02*
G75*
G03*
X10305651Y-6817049I-15000J0D01*
G01*
X10306101Y-7325499D02*
G75*
G03*
X10306101Y-7325499I-15000J0D01*
G01*
X10307601Y-7580999D02*
G75*
G03*
X10307601Y-7580999I-15000J0D01*
G01*
X10308401Y-7073799D02*
G75*
G03*
X10308401Y-7073799I-15000J0D01*
G01*
X10308451Y-7835849D02*
G75*
G03*
X10308451Y-7835849I-15000J0D01*
G01*
X10309051Y-8598449D02*
G75*
G03*
X10309051Y-8598449I-15000J0D01*
G01*
X10309951Y-8091349D02*
G75*
G03*
X10309951Y-8091349I-15000J0D01*
G01*
X10312701Y-8348099D02*
G75*
G03*
X10312701Y-8348099I-15000J0D01*
G01*
X10372500Y-10005000D02*
G75*
G03*
X10372500Y-10005000I-15000J0D01*
G01*
X10395000Y-13467500D02*
G75*
G03*
X10395000Y-13467500I-15000J0D01*
G01*
X10605882Y-6443800D02*
G75*
G03*
X10605882Y-6443800I-15000J0D01*
G01*
X10618346Y-6982012D02*
G75*
G03*
X10618346Y-6982012I-15000J0D01*
G01*
X10799087Y-7821000D02*
G75*
G03*
X10799087Y-7821000I-15000J0D01*
G01*
X10845000Y-6110000D02*
G75*
G03*
X10845000Y-6110000I-15000J0D01*
G01*
X10855000Y-5820000D02*
G75*
G03*
X10855000Y-5820000I-15000J0D01*
G01*
X10884750Y-7993901D02*
G75*
G03*
X10884750Y-7993901I-15000J0D01*
G01*
X10890773Y-8713069D02*
G75*
G03*
X10890773Y-8713069I-15000J0D01*
G01*
X10946894Y-8918106D02*
G75*
G03*
X10946894Y-8918106I-15000J0D01*
G01*
X11076148Y-14277750D02*
G75*
G03*
X11076148Y-14277750I-15000J0D01*
G01*
X11315000Y-8300000D02*
G75*
G03*
X11315000Y-8300000I-15000J0D01*
G01*
X11340000Y-13755000D02*
G75*
G03*
X11340000Y-13755000I-15000J0D01*
G01*
X11369147Y-8183000D02*
G75*
G03*
X11369147Y-8183000I-15000J0D01*
G01*
X11396847Y-11580000D02*
G75*
G03*
X11396847Y-11580000I-15000J0D01*
G01*
X11421797Y-9175703D02*
G75*
G03*
X11421797Y-9175703I-15000J0D01*
G01*
X11503000Y-10096000D02*
G75*
G03*
X11503000Y-10096000I-15000J0D01*
G01*
X11515000Y-8300000D02*
G75*
G03*
X11515000Y-8300000I-15000J0D01*
G01*
X11545000Y-7845000D02*
G75*
G03*
X11545000Y-7845000I-15000J0D01*
G01*
X11611568Y-12660930D02*
G75*
G03*
X11611568Y-12660930I-15000J0D01*
G01*
X11695000Y-12450000D02*
G75*
G03*
X11695000Y-12450000I-15000J0D01*
G01*
X11700400Y-12718600D02*
G75*
G03*
X11700400Y-12718600I-15000J0D01*
G01*
X11715000Y-9917500D02*
G75*
G03*
X11715000Y-9917500I-15000J0D01*
G01*
X11719200Y-6524100D02*
G75*
G03*
X11719200Y-6524100I-15000J0D01*
G01*
X11725800Y-10338500D02*
G75*
G03*
X11725800Y-10338500I-15000J0D01*
G01*
X11726600Y-8429400D02*
G75*
G03*
X11726600Y-8429400I-15000J0D01*
G01*
X11781796Y-6607350D02*
G75*
G03*
X11781796Y-6607350I-15000J0D01*
G01*
X11781832Y-6782370D02*
G75*
G03*
X11781832Y-6782370I-15000J0D01*
G01*
X11787087Y-10425142D02*
G75*
G03*
X11787087Y-10425142I-15000J0D01*
G01*
X11787880Y-8517578D02*
G75*
G03*
X11787880Y-8517578I-15000J0D01*
G01*
X11881800Y-8694976D02*
G75*
G03*
X11881800Y-8694976I-15000J0D01*
G01*
X11881900Y-10602236D02*
G75*
G03*
X11881900Y-10602236I-15000J0D01*
G01*
X11941190Y-13905014D02*
G75*
G03*
X11941190Y-13905014I-15000J0D01*
G01*
X12361557Y-10247336D02*
G75*
G03*
X12361557Y-10247336I-15000J0D01*
G01*
X12361800Y-8340076D02*
G75*
G03*
X12361800Y-8340076I-15000J0D01*
G01*
X12421894Y-12525287D02*
G75*
G03*
X12421894Y-12525287I-15000J0D01*
G01*
X12455582Y-10424789D02*
G75*
G03*
X12455582Y-10424789I-15000J0D01*
G01*
X12456018Y-8517359D02*
G75*
G03*
X12456018Y-8517359I-15000J0D01*
G01*
X12460845Y-6607883D02*
G75*
G03*
X12460845Y-6607883I-15000J0D01*
G01*
X12475000Y-6340000D02*
G75*
G03*
X12475000Y-6340000I-15000J0D01*
G01*
X12475000Y-8280000D02*
G75*
G03*
X12475000Y-8280000I-15000J0D01*
G01*
X12475000Y-10180000D02*
G75*
G03*
X12475000Y-10180000I-15000J0D01*
G01*
X12482500Y-11712500D02*
G75*
G03*
X12482500Y-11712500I-15000J0D01*
G01*
X12528000Y-9861000D02*
G75*
G03*
X12528000Y-9861000I-15000J0D01*
G01*
X12585000Y-7870000D02*
G75*
G03*
X12585000Y-7870000I-15000J0D01*
G01*
X12822500Y-7280000D02*
G75*
G03*
X12822500Y-7280000I-15000J0D01*
G01*
X12822500Y-9185000D02*
G75*
G03*
X12822500Y-9185000I-15000J0D01*
G01*
X12822500Y-11095000D02*
G75*
G03*
X12822500Y-11095000I-15000J0D01*
G01*
X12842000Y-9943000D02*
G75*
G03*
X12842000Y-9943000I-15000J0D01*
G01*
X12925000Y-7630000D02*
G75*
G03*
X12925000Y-7630000I-15000J0D01*
G01*
X12979000Y-13647400D02*
G75*
G03*
X12979000Y-13647400I-15000J0D01*
G01*
X13107500Y-7657350D02*
G75*
G03*
X13107500Y-7657350I-15000J0D01*
G01*
X13108448Y-7762650D02*
G75*
G03*
X13108448Y-7762650I-15000J0D01*
G01*
X13199000Y-11201000D02*
G75*
G03*
X13199000Y-11201000I-15000J0D01*
G01*
X13202000Y-10671000D02*
G75*
G03*
X13202000Y-10671000I-15000J0D01*
G01*
X13215000Y-7590000D02*
G75*
G03*
X13215000Y-7590000I-15000J0D01*
G01*
X13215000Y-7857500D02*
G75*
G03*
X13215000Y-7857500I-15000J0D01*
G01*
X13215000Y-8170000D02*
G75*
G03*
X13215000Y-8170000I-15000J0D01*
G01*
X13267979Y-9983279D02*
G75*
G03*
X13267979Y-9983279I-15000J0D01*
G01*
X13268490Y-7708100D02*
G75*
G03*
X13268490Y-7708100I-15000J0D01*
G01*
X13268490Y-9907600D02*
G75*
G03*
X13268490Y-9907600I-15000J0D01*
G01*
X13268490Y-10386800D02*
G75*
G03*
X13268490Y-10386800I-15000J0D01*
G01*
X13315000Y-13860000D02*
G75*
G03*
X13315000Y-13860000I-15000J0D01*
G01*
X13325000Y-12720000D02*
G75*
G03*
X13325000Y-12720000I-15000J0D01*
G01*
X13373801Y-9804740D02*
G75*
G03*
X13373801Y-9804740I-15000J0D01*
G01*
X13425000Y-8020000D02*
G75*
G03*
X13425000Y-8020000I-15000J0D01*
G01*
X13456000Y-10160000D02*
G75*
G03*
X13456000Y-10160000I-15000J0D01*
G01*
X13495000Y-9462500D02*
G75*
G03*
X13495000Y-9462500I-15000J0D01*
G01*
X13512500Y-10387500D02*
G75*
G03*
X13512500Y-10387500I-15000J0D01*
G01*
X13545000Y-11850000D02*
G75*
G03*
X13545000Y-11850000I-15000J0D01*
G01*
X13555000Y-6450000D02*
G75*
G03*
X13555000Y-6450000I-15000J0D01*
G01*
X13564000Y-6284700D02*
G75*
G03*
X13564000Y-6284700I-15000J0D01*
G01*
X13615000Y-7680000D02*
G75*
G03*
X13615000Y-7680000I-15000J0D01*
G01*
X13615000Y-13535000D02*
G75*
G03*
X13615000Y-13535000I-15000J0D01*
G01*
X13623000Y-6226900D02*
G75*
G03*
X13623000Y-6226900I-15000J0D01*
G01*
X13624200Y-10042800D02*
G75*
G03*
X13624200Y-10042800I-15000J0D01*
G01*
X13625300Y-8129700D02*
G75*
G03*
X13625300Y-8129700I-15000J0D01*
G01*
X13632500Y-9852500D02*
G75*
G03*
X13632500Y-9852500I-15000J0D01*
G01*
X13685658Y-6309595D02*
G75*
G03*
X13685658Y-6309595I-15000J0D01*
G01*
X13686486Y-10125120D02*
G75*
G03*
X13686486Y-10125120I-15000J0D01*
G01*
X13686919Y-8217359D02*
G75*
G03*
X13686919Y-8217359I-15000J0D01*
G01*
X13712500Y-9662500D02*
G75*
G03*
X13712500Y-9662500I-15000J0D01*
G01*
X13715000Y-10547500D02*
G75*
G03*
X13715000Y-10547500I-15000J0D01*
G01*
X13744400Y-13521800D02*
G75*
G03*
X13744400Y-13521800I-15000J0D01*
G01*
X13815000Y-12425000D02*
G75*
G03*
X13815000Y-12425000I-15000J0D01*
G01*
X13859700Y-12320300D02*
G75*
G03*
X13859700Y-12320300I-15000J0D01*
G01*
X13919900Y-12232400D02*
G75*
G03*
X13919900Y-12232400I-15000J0D01*
G01*
X13940000Y-11720000D02*
G75*
G03*
X13940000Y-11720000I-15000J0D01*
G01*
X13981278Y-12320203D02*
G75*
G03*
X13981278Y-12320203I-15000J0D01*
G01*
X14020297Y-11269467D02*
G75*
G03*
X14020297Y-11269467I-15000J0D01*
G01*
X14060000Y-11320000D02*
G75*
G03*
X14060000Y-11320000I-15000J0D01*
G01*
X14135000Y-9560000D02*
G75*
G03*
X14135000Y-9560000I-15000J0D01*
G01*
X14204000Y-7622000D02*
G75*
G03*
X14204000Y-7622000I-15000J0D01*
G01*
X14259000Y-11767612D02*
G75*
G03*
X14259000Y-11767612I-15000J0D01*
G01*
X14260800Y-10484784D02*
G75*
G03*
X14260800Y-10484784I-15000J0D01*
G01*
X14355982Y-10125195D02*
G75*
G03*
X14355982Y-10125195I-15000J0D01*
G01*
X14356314Y-8218070D02*
G75*
G03*
X14356314Y-8218070I-15000J0D01*
G01*
X14356954Y-6311079D02*
G75*
G03*
X14356954Y-6311079I-15000J0D01*
G01*
X14375000Y-6510000D02*
G75*
G03*
X14375000Y-6510000I-15000J0D01*
G01*
X14379219Y-11716719D02*
G75*
G03*
X14379219Y-11716719I-15000J0D01*
G01*
X14400000Y-10522500D02*
G75*
G03*
X14400000Y-10522500I-15000J0D01*
G01*
X14442500Y-11875000D02*
G75*
G03*
X14442500Y-11875000I-15000J0D01*
G01*
X14454200Y-11326749D02*
G75*
G03*
X14454200Y-11326749I-15000J0D01*
G01*
X14565000Y-11046836D02*
G75*
G03*
X14565000Y-11046836I-15000J0D01*
G01*
X14645000Y-12720000D02*
G75*
G03*
X14645000Y-12720000I-15000J0D01*
G01*
X14650287Y-12319924D02*
G75*
G03*
X14650287Y-12319924I-15000J0D01*
G01*
X14660000Y-9902500D02*
G75*
G03*
X14660000Y-9902500I-15000J0D01*
G01*
X14721000Y-6982300D02*
G75*
G03*
X14721000Y-6982300I-15000J0D01*
G01*
X14721400Y-8885300D02*
G75*
G03*
X14721400Y-8885300I-15000J0D01*
G01*
X14722500Y-10680000D02*
G75*
G03*
X14722500Y-10680000I-15000J0D01*
G01*
X14742650Y-11186500D02*
G75*
G03*
X14742650Y-11186500I-15000J0D01*
G01*
X14745000Y-11704161D02*
G75*
G03*
X14745000Y-11704161I-15000J0D01*
G01*
X14755000Y-12165000D02*
G75*
G03*
X14755000Y-12165000I-15000J0D01*
G01*
X14755000Y-12322500D02*
G75*
G03*
X14755000Y-12322500I-15000J0D01*
G01*
X14808867Y-11498867D02*
G75*
G03*
X14808867Y-11498867I-15000J0D01*
G01*
X14815000Y-10677500D02*
G75*
G03*
X14815000Y-10677500I-15000J0D01*
G01*
X14875000Y-13545000D02*
G75*
G03*
X14875000Y-13545000I-15000J0D01*
G01*
X14880000Y-8632500D02*
G75*
G03*
X14880000Y-8632500I-15000J0D01*
G01*
X15005000Y-10437350D02*
G75*
G03*
X15005000Y-10437350I-15000J0D01*
G01*
X15005000Y-10542650D02*
G75*
G03*
X15005000Y-10542650I-15000J0D01*
G01*
X15010000Y-5892500D02*
G75*
G03*
X15010000Y-5892500I-15000J0D01*
G01*
X15010000Y-6394600D02*
G75*
G03*
X15010000Y-6394600I-15000J0D01*
G01*
X15045000Y-11660000D02*
G75*
G03*
X15045000Y-11660000I-15000J0D01*
G01*
X15086000Y-9630000D02*
G75*
G03*
X15086000Y-9630000I-15000J0D01*
G01*
X15110000Y-13430000D02*
G75*
G03*
X15110000Y-13430000I-15000J0D01*
G01*
X15115000Y-10730000D02*
G75*
G03*
X15115000Y-10730000I-15000J0D01*
G01*
X15115000Y-12780000D02*
G75*
G03*
X15115000Y-12780000I-15000J0D01*
G01*
X15119000Y-8634000D02*
G75*
G03*
X15119000Y-8634000I-15000J0D01*
G01*
X15125000Y-6420000D02*
G75*
G03*
X15125000Y-6420000I-15000J0D01*
G01*
X15125000Y-10313000D02*
G75*
G03*
X15125000Y-10313000I-15000J0D01*
G01*
X15135000Y-11658809D02*
G75*
G03*
X15135000Y-11658809I-15000J0D01*
G01*
X15138000Y-7329000D02*
G75*
G03*
X15138000Y-7329000I-15000J0D01*
G01*
X15173490Y-8961000D02*
G75*
G03*
X15173490Y-8961000I-15000J0D01*
G01*
X15174901Y-7046300D02*
G75*
G03*
X15174901Y-7046300I-15000J0D01*
G01*
X15245000Y-11430000D02*
G75*
G03*
X15245000Y-11430000I-15000J0D01*
G01*
X15332493Y-12338393D02*
G75*
G03*
X15332493Y-12338393I-15000J0D01*
G01*
X15335000Y-7120000D02*
G75*
G03*
X15335000Y-7120000I-15000J0D01*
G01*
X15337500Y-8565000D02*
G75*
G03*
X15337500Y-8565000I-15000J0D01*
G01*
X15398000Y-7427000D02*
G75*
G03*
X15398000Y-7427000I-15000J0D01*
G01*
X15434812Y-12300212D02*
G75*
G03*
X15434812Y-12300212I-15000J0D01*
G01*
X15522500Y-8725000D02*
G75*
G03*
X15522500Y-8725000I-15000J0D01*
G01*
X15525000Y-6810000D02*
G75*
G03*
X15525000Y-6810000I-15000J0D01*
G01*
X15527500Y-5322600D02*
G75*
G03*
X15527500Y-5322600I-15000J0D01*
G01*
X15530000Y-7229200D02*
G75*
G03*
X15530000Y-7229200I-15000J0D01*
G01*
X15530400Y-9137300D02*
G75*
G03*
X15530400Y-9137300I-15000J0D01*
G01*
X15538491Y-12257098D02*
G75*
G03*
X15538491Y-12257098I-15000J0D01*
G01*
X15588588Y-5408654D02*
G75*
G03*
X15588588Y-5408654I-15000J0D01*
G01*
X15591592Y-7317819D02*
G75*
G03*
X15591592Y-7317819I-15000J0D01*
G01*
X15591863Y-9224598D02*
G75*
G03*
X15591863Y-9224598I-15000J0D01*
G01*
X15662500Y-12211746D02*
G75*
G03*
X15662500Y-12211746I-15000J0D01*
G01*
X15684300Y-5606912D02*
G75*
G03*
X15684300Y-5606912I-15000J0D01*
G01*
X15686200Y-7494976D02*
G75*
G03*
X15686200Y-7494976I-15000J0D01*
G01*
X15686700Y-9402236D02*
G75*
G03*
X15686700Y-9402236I-15000J0D01*
G01*
X16166000Y-7140076D02*
G75*
G03*
X16166000Y-7140076I-15000J0D01*
G01*
X16166000Y-9047336D02*
G75*
G03*
X16166000Y-9047336I-15000J0D01*
G01*
X16195000Y-7010000D02*
G75*
G03*
X16195000Y-7010000I-15000J0D01*
G01*
X16205000Y-8930000D02*
G75*
G03*
X16205000Y-8930000I-15000J0D01*
G01*
X16225000Y-5850000D02*
G75*
G03*
X16225000Y-5850000I-15000J0D01*
G01*
X16225000Y-7750000D02*
G75*
G03*
X16225000Y-7750000I-15000J0D01*
G01*
X16225000Y-9650000D02*
G75*
G03*
X16225000Y-9650000I-15000J0D01*
G01*
X16260213Y-7317637D02*
G75*
G03*
X16260213Y-7317637I-15000J0D01*
G01*
X16260530Y-9224554D02*
G75*
G03*
X16260530Y-9224554I-15000J0D01*
G01*
X16264303Y-5412184D02*
G75*
G03*
X16264303Y-5412184I-15000J0D01*
G01*
X16280000Y-5627500D02*
G75*
G03*
X16280000Y-5627500I-15000J0D01*
G01*
X16327600Y-5321800D02*
G75*
G03*
X16327600Y-5321800I-15000J0D01*
G01*
X16503347Y-10930218D02*
G75*
G03*
X16503347Y-10930218I-15000J0D01*
G01*
X16527500Y-5585000D02*
G75*
G03*
X16527500Y-5585000I-15000J0D01*
G01*
X16625700Y-7986500D02*
G75*
G03*
X16625700Y-7986500I-15000J0D01*
G01*
X16626139Y-5972461D02*
G75*
G03*
X16626139Y-5972461I-15000J0D01*
G01*
X16626600Y-9895100D02*
G75*
G03*
X16626600Y-9895100I-15000J0D01*
G01*
X16892500Y-10047500D02*
G75*
G03*
X16892500Y-10047500I-15000J0D01*
G01*
X16910272Y-6046491D02*
G75*
G03*
X16910272Y-6046491I-15000J0D01*
G01*
X16943002Y-11765704D02*
G75*
G03*
X16943002Y-11765704I-15000J0D01*
G01*
X17076069Y-9385031D02*
G75*
G03*
X17076069Y-9385031I-15000J0D01*
G01*
X17166000Y-11467000D02*
G75*
G03*
X17166000Y-11467000I-15000J0D01*
G01*
X17171250Y-7536250D02*
G75*
G03*
X17171250Y-7536250I-15000J0D01*
G01*
X17332500Y-7377500D02*
G75*
G03*
X17332500Y-7377500I-15000J0D01*
G01*
X17333000Y-9975000D02*
G75*
G03*
X17333000Y-9975000I-15000J0D01*
G01*
X17365000Y-8140000D02*
G75*
G03*
X17365000Y-8140000I-15000J0D01*
G01*
X17365000Y-8370000D02*
G75*
G03*
X17365000Y-8370000I-15000J0D01*
G01*
X17467500Y-9765000D02*
G75*
G03*
X17467500Y-9765000I-15000J0D01*
G01*
X17480100Y-10156000D02*
G75*
G03*
X17480100Y-10156000I-15000J0D01*
G01*
X17541300Y-10235700D02*
G75*
G03*
X17541300Y-10235700I-15000J0D01*
G01*
X17613900Y-8251600D02*
G75*
G03*
X17613900Y-8251600I-15000J0D01*
G01*
X17620000Y-7820000D02*
G75*
G03*
X17620000Y-7820000I-15000J0D01*
G01*
X17675626Y-8333342D02*
G75*
G03*
X17675626Y-8333342I-15000J0D01*
G01*
X17740700Y-6347900D02*
G75*
G03*
X17740700Y-6347900I-15000J0D01*
G01*
X17803364Y-6427840D02*
G75*
G03*
X17803364Y-6427840I-15000J0D01*
G01*
X17835000Y-6227500D02*
G75*
G03*
X17835000Y-6227500I-15000J0D01*
G01*
X17835000Y-11600000D02*
G75*
G03*
X17835000Y-11600000I-15000J0D01*
G01*
X17875000Y-6660000D02*
G75*
G03*
X17875000Y-6660000I-15000J0D01*
G01*
X17905000Y-9960000D02*
G75*
G03*
X17905000Y-9960000I-15000J0D01*
G01*
X17965000Y-7800000D02*
G75*
G03*
X17965000Y-7800000I-15000J0D01*
G01*
X18045000Y-9690000D02*
G75*
G03*
X18045000Y-9690000I-15000J0D01*
G01*
X18065000Y-8060000D02*
G75*
G03*
X18065000Y-8060000I-15000J0D01*
G01*
X18175000Y-7800000D02*
G75*
G03*
X18175000Y-7800000I-15000J0D01*
G01*
X18211256Y-10283881D02*
G75*
G03*
X18211256Y-10283881I-15000J0D01*
G01*
X18341724Y-8379885D02*
G75*
G03*
X18341724Y-8379885I-15000J0D01*
G01*
X18484382Y-6473002D02*
G75*
G03*
X18484382Y-6473002I-15000J0D01*
G01*
X18517800Y-10976600D02*
G75*
G03*
X18517800Y-10976600I-15000J0D01*
G01*
X18555000Y-6280000D02*
G75*
G03*
X18555000Y-6280000I-15000J0D01*
G01*
X18645000Y-11960000D02*
G75*
G03*
X18645000Y-11960000I-15000J0D01*
G01*
X18650200Y-9070800D02*
G75*
G03*
X18650200Y-9070800I-15000J0D01*
G01*
X18748703Y-11749371D02*
G75*
G03*
X18748703Y-11749371I-15000J0D01*
G01*
X18784600Y-7171000D02*
G75*
G03*
X18784600Y-7171000I-15000J0D01*
G01*
X18802650Y-11795519D02*
G75*
G03*
X18802650Y-11795519I-15000J0D01*
G01*
X18815000Y-12100000D02*
G75*
G03*
X18815000Y-12100000I-15000J0D01*
G01*
X18875000Y-12790000D02*
G75*
G03*
X18875000Y-12790000I-15000J0D01*
G01*
X19061350Y-10138000D02*
G75*
G03*
X19061350Y-10138000I-15000J0D01*
G01*
X19067394Y-8433544D02*
G75*
G03*
X19067394Y-8433544I-15000J0D01*
G01*
X19125000Y-11720000D02*
G75*
G03*
X19125000Y-11720000I-15000J0D01*
G01*
X19137500Y-8092500D02*
G75*
G03*
X19137500Y-8092500I-15000J0D01*
G01*
X19249380Y-11555375D02*
G75*
G03*
X19249380Y-11555375I-15000J0D01*
G01*
X19323400Y-11539700D02*
G75*
G03*
X19323400Y-11539700I-15000J0D01*
G01*
X19365000Y-11360000D02*
G75*
G03*
X19365000Y-11360000I-15000J0D01*
G01*
X19384814Y-11605994D02*
G75*
G03*
X19384814Y-11605994I-15000J0D01*
G01*
X19385000Y-12900000D02*
G75*
G03*
X19385000Y-12900000I-15000J0D01*
G01*
X19615000Y-9980000D02*
G75*
G03*
X19615000Y-9980000I-15000J0D01*
G01*
X19657800Y-9661000D02*
G75*
G03*
X19657800Y-9661000I-15000J0D01*
G01*
X19712100Y-9912500D02*
G75*
G03*
X19712100Y-9912500I-15000J0D01*
G01*
X19719500Y-9730500D02*
G75*
G03*
X19719500Y-9730500I-15000J0D01*
G01*
X19757500Y-6026000D02*
G75*
G03*
X19757500Y-6026000I-15000J0D01*
G01*
X19775000Y-10030000D02*
G75*
G03*
X19775000Y-10030000I-15000J0D01*
G01*
X19935000Y-8100000D02*
G75*
G03*
X19935000Y-8100000I-15000J0D01*
G01*
X19945000Y-12040000D02*
G75*
G03*
X19945000Y-12040000I-15000J0D01*
G01*
X19971257Y-11531772D02*
G75*
G03*
X19971257Y-11531772I-15000J0D01*
G01*
X19989700Y-7782400D02*
G75*
G03*
X19989700Y-7782400I-15000J0D01*
G01*
X20042897Y-8031415D02*
G75*
G03*
X20042897Y-8031415I-15000J0D01*
G01*
X20048802Y-11726321D02*
G75*
G03*
X20048802Y-11726321I-15000J0D01*
G01*
X20050700Y-7852600D02*
G75*
G03*
X20050700Y-7852600I-15000J0D01*
G01*
X20095000Y-9140000D02*
G75*
G03*
X20095000Y-9140000I-15000J0D01*
G01*
X20267100Y-12440600D02*
G75*
G03*
X20267100Y-12440600I-15000J0D01*
G01*
X20275000Y-10260000D02*
G75*
G03*
X20275000Y-10260000I-15000J0D01*
G01*
X20285000Y-11123000D02*
G75*
G03*
X20285000Y-11123000I-15000J0D01*
G01*
X20300400Y-9652700D02*
G75*
G03*
X20300400Y-9652700I-15000J0D01*
G01*
X20305000Y-9360000D02*
G75*
G03*
X20305000Y-9360000I-15000J0D01*
G01*
X20340731Y-10138100D02*
G75*
G03*
X20340731Y-10138100I-15000J0D01*
G01*
X20379157Y-9847512D02*
G75*
G03*
X20379157Y-9847512I-15000J0D01*
G01*
X20384000Y-13266000D02*
G75*
G03*
X20384000Y-13266000I-15000J0D01*
G01*
X20502500Y-6060000D02*
G75*
G03*
X20502500Y-6060000I-15000J0D01*
G01*
X20557500Y-12617500D02*
G75*
G03*
X20557500Y-12617500I-15000J0D01*
G01*
X20682500Y-10530000D02*
G75*
G03*
X20682500Y-10530000I-15000J0D01*
G01*
X20709000Y-12114130D02*
G75*
G03*
X20709000Y-12114130I-15000J0D01*
G01*
X20710742Y-7968567D02*
G75*
G03*
X20710742Y-7968567I-15000J0D01*
G01*
X20745000Y-11050000D02*
G75*
G03*
X20745000Y-11050000I-15000J0D01*
G01*
X20745000Y-12612500D02*
G75*
G03*
X20745000Y-12612500I-15000J0D01*
G01*
X20929500Y-8685700D02*
G75*
G03*
X20929500Y-8685700I-15000J0D01*
G01*
X20933000Y-12590200D02*
G75*
G03*
X20933000Y-12590200I-15000J0D01*
G01*
X21181000Y-10742000D02*
G75*
G03*
X21181000Y-10742000I-15000J0D01*
G01*
X21230307Y-11148093D02*
G75*
G03*
X21230307Y-11148093I-15000J0D01*
G01*
X21263200Y-10716000D02*
G75*
G03*
X21263200Y-10716000I-15000J0D01*
G01*
X21286700Y-11361400D02*
G75*
G03*
X21286700Y-11361400I-15000J0D01*
G01*
X21315000Y-10882500D02*
G75*
G03*
X21315000Y-10882500I-15000J0D01*
G01*
X21348499Y-11446419D02*
G75*
G03*
X21348499Y-11446419I-15000J0D01*
G01*
X21355000Y-11690000D02*
G75*
G03*
X21355000Y-11690000I-15000J0D01*
G01*
X21375000Y-11090000D02*
G75*
G03*
X21375000Y-11090000I-15000J0D01*
G01*
X21455000Y-9540000D02*
G75*
G03*
X21455000Y-9540000I-15000J0D01*
G01*
X21619900Y-9499000D02*
G75*
G03*
X21619900Y-9499000I-15000J0D01*
G01*
X21680949Y-9568913D02*
G75*
G03*
X21680949Y-9568913I-15000J0D01*
G01*
X21735000Y-9830000D02*
G75*
G03*
X21735000Y-9830000I-15000J0D01*
G01*
X21735000Y-10800000D02*
G75*
G03*
X21735000Y-10800000I-15000J0D01*
G01*
X21905000Y-11945000D02*
G75*
G03*
X21905000Y-11945000I-15000J0D01*
G01*
X21925000Y-10440000D02*
G75*
G03*
X21925000Y-10440000I-15000J0D01*
G01*
X22008800Y-11563600D02*
G75*
G03*
X22008800Y-11563600I-15000J0D01*
G01*
X22228500Y-12281700D02*
G75*
G03*
X22228500Y-12281700I-15000J0D01*
G01*
X22340900Y-9686300D02*
G75*
G03*
X22340900Y-9686300I-15000J0D01*
G01*
X22559200Y-10406300D02*
G75*
G03*
X22559200Y-10406300I-15000J0D01*
G01*
D15*
X8707084Y-14227584D02*
X8707084Y-14267584D01*
X8687084Y-14247584D02*
X8727084Y-14247584D01*
X8947500Y-14468000D02*
X8947500Y-14508000D01*
X8927500Y-14488000D02*
X8967500Y-14488000D01*
X9918000Y-10676000D02*
X9918000Y-10716000D01*
X9898000Y-10696000D02*
X9938000Y-10696000D01*
X10258000Y-10676000D02*
X10258000Y-10716000D01*
X10238000Y-10696000D02*
X10278000Y-10696000D01*
X10667200Y-13022751D02*
X10667200Y-13062751D01*
X10647200Y-13042751D02*
X10687200Y-13042751D01*
X10837200Y-13317200D02*
X10837200Y-13357200D01*
X10817200Y-13337200D02*
X10857200Y-13337200D01*
X11510000Y-11809000D02*
X11510000Y-11849000D01*
X11490000Y-11829000D02*
X11530000Y-11829000D01*
X11530000Y-7990000D02*
X11530000Y-8030000D01*
X11510000Y-8010000D02*
X11550000Y-8010000D01*
X11530000Y-9900000D02*
X11530000Y-9940000D01*
X11510000Y-9920000D02*
X11550000Y-9920000D01*
X11850000Y-11809000D02*
X11850000Y-11849000D01*
X11830000Y-11829000D02*
X11870000Y-11829000D01*
X11870000Y-7990000D02*
X11870000Y-8030000D01*
X11850000Y-8010000D02*
X11890000Y-8010000D01*
X11870000Y-9900000D02*
X11870000Y-9940000D01*
X11850000Y-9920000D02*
X11890000Y-9920000D01*
X12866301Y-12337893D02*
X12866301Y-12377893D01*
X12846301Y-12357893D02*
X12886301Y-12357893D01*
X12954299Y-12666307D02*
X12954299Y-12706307D01*
X12934299Y-12686307D02*
X12974299Y-12686307D01*
X13430000Y-7690000D02*
X13430000Y-7730000D01*
X13410000Y-7710000D02*
X13450000Y-7710000D01*
X13529700Y-9599700D02*
X13529700Y-9639700D01*
X13509700Y-9619700D02*
X13549700Y-9619700D01*
X13770000Y-7690000D02*
X13770000Y-7730000D01*
X13750000Y-7710000D02*
X13790000Y-7710000D01*
X13869700Y-9599700D02*
X13869700Y-9639700D01*
X13849700Y-9619700D02*
X13889700Y-9619700D01*
X14820000Y-10130000D02*
X14820000Y-10170000D01*
X14800000Y-10150000D02*
X14840000Y-10150000D01*
X14820000Y-10470000D02*
X14820000Y-10510000D01*
X14800000Y-10490000D02*
X14840000Y-10490000D01*
X15160400Y-12240500D02*
X15160400Y-12280500D01*
X15140400Y-12260500D02*
X15180400Y-12260500D01*
X15160400Y-12580500D02*
X15160400Y-12620500D01*
X15140400Y-12600500D02*
X15180400Y-12600500D01*
X15330000Y-10610000D02*
X15330000Y-10650000D01*
X15310000Y-10630000D02*
X15350000Y-10630000D01*
X15337900Y-8698500D02*
X15337900Y-8738500D01*
X15317900Y-8718500D02*
X15357900Y-8718500D01*
X15340000Y-6790000D02*
X15340000Y-6830000D01*
X15320000Y-6810000D02*
X15360000Y-6810000D01*
X15670000Y-10610000D02*
X15670000Y-10650000D01*
X15650000Y-10630000D02*
X15690000Y-10630000D01*
X15677900Y-8698500D02*
X15677900Y-8738500D01*
X15657900Y-8718500D02*
X15697900Y-8718500D01*
X15680000Y-6790000D02*
X15680000Y-6830000D01*
X15660000Y-6810000D02*
X15700000Y-6810000D01*
X17290000Y-11600000D02*
X17290000Y-11640000D01*
X17270000Y-11620000D02*
X17310000Y-11620000D01*
X17290828Y-9696283D02*
X17290828Y-9736283D01*
X17270828Y-9716283D02*
X17310828Y-9716283D01*
X17430000Y-7790000D02*
X17430000Y-7830000D01*
X17410000Y-7810000D02*
X17450000Y-7810000D01*
X17629172Y-11623717D02*
X17629172Y-11663717D01*
X17609172Y-11643717D02*
X17649172Y-11643717D01*
X17630000Y-9720000D02*
X17630000Y-9760000D01*
X17610000Y-9740000D02*
X17650000Y-9740000D01*
X17769172Y-7813717D02*
X17769172Y-7853717D01*
X17749172Y-7833717D02*
X17789172Y-7833717D01*
X18862583Y-12920480D02*
X18862583Y-12960480D01*
X18842583Y-12940480D02*
X18882583Y-12940480D01*
X19195165Y-11050960D02*
X19195165Y-11090960D01*
X19175165Y-11070960D02*
X19215165Y-11070960D01*
X19197417Y-12979520D02*
X19197417Y-13019520D01*
X19177417Y-12999520D02*
X19217417Y-12999520D01*
X19525165Y-9170960D02*
X19525165Y-9210960D01*
X19505165Y-9190960D02*
X19545165Y-9190960D01*
X19530000Y-11110000D02*
X19530000Y-11150000D01*
X19510000Y-11130000D02*
X19550000Y-11130000D01*
X19860000Y-9230000D02*
X19860000Y-9270000D01*
X19840000Y-9250000D02*
X19880000Y-9250000D01*
X21685165Y-12900960D02*
X21685165Y-12940960D01*
X21665165Y-12920960D02*
X21705165Y-12920960D01*
X22020000Y-11040000D02*
X22020000Y-11080000D01*
X22000000Y-11060000D02*
X22040000Y-11060000D01*
X22020000Y-12960000D02*
X22020000Y-13000000D01*
X22000000Y-12980000D02*
X22040000Y-12980000D01*
X22354835Y-11099040D02*
X22354835Y-11139040D01*
X22334835Y-11119040D02*
X22374835Y-11119040D01*
D16*
X15368678Y-11646678D02*
X15368678Y-11611322D01*
X15333322Y-11611322D01*
X15333322Y-11646678D01*
X15368678Y-11646678D01*
X16688678Y-11646678D02*
X16688678Y-11611322D01*
X16653322Y-11611322D01*
X16653322Y-11646678D01*
X16688678Y-11646678D01*
D17*
X8235000Y-10317500D02*
X8272500Y-10280000D01*
X8235000Y-10242500D01*
X8197500Y-10280000D01*
X8235000Y-10317500D01*
X8235000Y-10517500D02*
X8272500Y-10480000D01*
X8235000Y-10442500D01*
X8197500Y-10480000D01*
X8235000Y-10517500D01*
D18*
X8837360Y-5643360D02*
X8918640Y-5724640D01*
X8918640Y-5643360D02*
X8837360Y-5724640D01*
X8918640Y-5684000D02*
G75*
G03*
X8918640Y-5684000I-40640J0D01*
G01*
X8837360Y-5897360D02*
X8918640Y-5978640D01*
X8918640Y-5897360D02*
X8837360Y-5978640D01*
X8918640Y-5938000D02*
G75*
G03*
X8918640Y-5938000I-40640J0D01*
G01*
X8837360Y-6151360D02*
X8918640Y-6232640D01*
X8918640Y-6151360D02*
X8837360Y-6232640D01*
X8918640Y-6192000D02*
G75*
G03*
X8918640Y-6192000I-40640J0D01*
G01*
X8837360Y-6405360D02*
X8918640Y-6486640D01*
X8918640Y-6405360D02*
X8837360Y-6486640D01*
X8918640Y-6446000D02*
G75*
G03*
X8918640Y-6446000I-40640J0D01*
G01*
X8837360Y-6659360D02*
X8918640Y-6740640D01*
X8918640Y-6659360D02*
X8837360Y-6740640D01*
X8918640Y-6700000D02*
G75*
G03*
X8918640Y-6700000I-40640J0D01*
G01*
X8837360Y-6913360D02*
X8918640Y-6994640D01*
X8918640Y-6913360D02*
X8837360Y-6994640D01*
X8918640Y-6954000D02*
G75*
G03*
X8918640Y-6954000I-40640J0D01*
G01*
X8837360Y-7167360D02*
X8918640Y-7248640D01*
X8918640Y-7167360D02*
X8837360Y-7248640D01*
X8918640Y-7208000D02*
G75*
G03*
X8918640Y-7208000I-40640J0D01*
G01*
X8837360Y-7421360D02*
X8918640Y-7502640D01*
X8918640Y-7421360D02*
X8837360Y-7502640D01*
X8918640Y-7462000D02*
G75*
G03*
X8918640Y-7462000I-40640J0D01*
G01*
X8837360Y-7675360D02*
X8918640Y-7756640D01*
X8918640Y-7675360D02*
X8837360Y-7756640D01*
X8918640Y-7716000D02*
G75*
G03*
X8918640Y-7716000I-40640J0D01*
G01*
X8837360Y-7929360D02*
X8918640Y-8010640D01*
X8918640Y-7929360D02*
X8837360Y-8010640D01*
X8918640Y-7970000D02*
G75*
G03*
X8918640Y-7970000I-40640J0D01*
G01*
X8837360Y-8183360D02*
X8918640Y-8264640D01*
X8918640Y-8183360D02*
X8837360Y-8264640D01*
X8918640Y-8224000D02*
G75*
G03*
X8918640Y-8224000I-40640J0D01*
G01*
X8837360Y-8437360D02*
X8918640Y-8518640D01*
X8918640Y-8437360D02*
X8837360Y-8518640D01*
X8918640Y-8478000D02*
G75*
G03*
X8918640Y-8478000I-40640J0D01*
G01*
X8967242Y-5762934D02*
X9048522Y-5844214D01*
X9048522Y-5762934D02*
X8967242Y-5844214D01*
X9048522Y-5803574D02*
G75*
G03*
X9048522Y-5803574I-40640J0D01*
G01*
X8967242Y-6016934D02*
X9048522Y-6098214D01*
X9048522Y-6016934D02*
X8967242Y-6098214D01*
X9048522Y-6057574D02*
G75*
G03*
X9048522Y-6057574I-40640J0D01*
G01*
X8967242Y-6270934D02*
X9048522Y-6352214D01*
X9048522Y-6270934D02*
X8967242Y-6352214D01*
X9048522Y-6311574D02*
G75*
G03*
X9048522Y-6311574I-40640J0D01*
G01*
X8967242Y-6524934D02*
X9048522Y-6606214D01*
X9048522Y-6524934D02*
X8967242Y-6606214D01*
X9048522Y-6565574D02*
G75*
G03*
X9048522Y-6565574I-40640J0D01*
G01*
X8967242Y-6778934D02*
X9048522Y-6860214D01*
X9048522Y-6778934D02*
X8967242Y-6860214D01*
X9048522Y-6819574D02*
G75*
G03*
X9048522Y-6819574I-40640J0D01*
G01*
X8967242Y-7032934D02*
X9048522Y-7114214D01*
X9048522Y-7032934D02*
X8967242Y-7114214D01*
X9048522Y-7073574D02*
G75*
G03*
X9048522Y-7073574I-40640J0D01*
G01*
X8967242Y-7286934D02*
X9048522Y-7368214D01*
X9048522Y-7286934D02*
X8967242Y-7368214D01*
X9048522Y-7327574D02*
G75*
G03*
X9048522Y-7327574I-40640J0D01*
G01*
X8967242Y-7540934D02*
X9048522Y-7622214D01*
X9048522Y-7540934D02*
X8967242Y-7622214D01*
X9048522Y-7581574D02*
G75*
G03*
X9048522Y-7581574I-40640J0D01*
G01*
X8967242Y-7794934D02*
X9048522Y-7876214D01*
X9048522Y-7794934D02*
X8967242Y-7876214D01*
X9048522Y-7835574D02*
G75*
G03*
X9048522Y-7835574I-40640J0D01*
G01*
X8967242Y-8048934D02*
X9048522Y-8130214D01*
X9048522Y-8048934D02*
X8967242Y-8130214D01*
X9048522Y-8089574D02*
G75*
G03*
X9048522Y-8089574I-40640J0D01*
G01*
X8967242Y-8302934D02*
X9048522Y-8384214D01*
X9048522Y-8302934D02*
X8967242Y-8384214D01*
X9048522Y-8343574D02*
G75*
G03*
X9048522Y-8343574I-40640J0D01*
G01*
X8967242Y-8556935D02*
X9048522Y-8638215D01*
X9048522Y-8556935D02*
X8967242Y-8638215D01*
X9048522Y-8597575D02*
G75*
G03*
X9048522Y-8597575I-40640J0D01*
G01*
X10361360Y-5643360D02*
X10442640Y-5724640D01*
X10442640Y-5643360D02*
X10361360Y-5724640D01*
X10442640Y-5684000D02*
G75*
G03*
X10442640Y-5684000I-40640J0D01*
G01*
X10361360Y-5897360D02*
X10442640Y-5978640D01*
X10442640Y-5897360D02*
X10361360Y-5978640D01*
X10442640Y-5938000D02*
G75*
G03*
X10442640Y-5938000I-40640J0D01*
G01*
X10361360Y-6151360D02*
X10442640Y-6232640D01*
X10442640Y-6151360D02*
X10361360Y-6232640D01*
X10442640Y-6192000D02*
G75*
G03*
X10442640Y-6192000I-40640J0D01*
G01*
X10361360Y-6405360D02*
X10442640Y-6486640D01*
X10442640Y-6405360D02*
X10361360Y-6486640D01*
X10442640Y-6446000D02*
G75*
G03*
X10442640Y-6446000I-40640J0D01*
G01*
X10361360Y-6659360D02*
X10442640Y-6740640D01*
X10442640Y-6659360D02*
X10361360Y-6740640D01*
X10442640Y-6700000D02*
G75*
G03*
X10442640Y-6700000I-40640J0D01*
G01*
X10361360Y-6913360D02*
X10442640Y-6994640D01*
X10442640Y-6913360D02*
X10361360Y-6994640D01*
X10442640Y-6954000D02*
G75*
G03*
X10442640Y-6954000I-40640J0D01*
G01*
X10361360Y-7167360D02*
X10442640Y-7248640D01*
X10442640Y-7167360D02*
X10361360Y-7248640D01*
X10442640Y-7208000D02*
G75*
G03*
X10442640Y-7208000I-40640J0D01*
G01*
X10361360Y-7421360D02*
X10442640Y-7502640D01*
X10442640Y-7421360D02*
X10361360Y-7502640D01*
X10442640Y-7462000D02*
G75*
G03*
X10442640Y-7462000I-40640J0D01*
G01*
X10361360Y-7675360D02*
X10442640Y-7756640D01*
X10442640Y-7675360D02*
X10361360Y-7756640D01*
X10442640Y-7716000D02*
G75*
G03*
X10442640Y-7716000I-40640J0D01*
G01*
X10361360Y-7929360D02*
X10442640Y-8010640D01*
X10442640Y-7929360D02*
X10361360Y-8010640D01*
X10442640Y-7970000D02*
G75*
G03*
X10442640Y-7970000I-40640J0D01*
G01*
X10361360Y-8183360D02*
X10442640Y-8264640D01*
X10442640Y-8183360D02*
X10361360Y-8264640D01*
X10442640Y-8224000D02*
G75*
G03*
X10442640Y-8224000I-40640J0D01*
G01*
X10361360Y-8437360D02*
X10442640Y-8518640D01*
X10442640Y-8437360D02*
X10361360Y-8518640D01*
X10442640Y-8478000D02*
G75*
G03*
X10442640Y-8478000I-40640J0D01*
G01*
X10491242Y-5762934D02*
X10572522Y-5844214D01*
X10572522Y-5762934D02*
X10491242Y-5844214D01*
X10572522Y-5803574D02*
G75*
G03*
X10572522Y-5803574I-40640J0D01*
G01*
X10491242Y-6016934D02*
X10572522Y-6098214D01*
X10572522Y-6016934D02*
X10491242Y-6098214D01*
X10572522Y-6057574D02*
G75*
G03*
X10572522Y-6057574I-40640J0D01*
G01*
X10491242Y-6270934D02*
X10572522Y-6352214D01*
X10572522Y-6270934D02*
X10491242Y-6352214D01*
X10572522Y-6311574D02*
G75*
G03*
X10572522Y-6311574I-40640J0D01*
G01*
X10491242Y-6524934D02*
X10572522Y-6606214D01*
X10572522Y-6524934D02*
X10491242Y-6606214D01*
X10572522Y-6565574D02*
G75*
G03*
X10572522Y-6565574I-40640J0D01*
G01*
X10491242Y-6778934D02*
X10572522Y-6860214D01*
X10572522Y-6778934D02*
X10491242Y-6860214D01*
X10572522Y-6819574D02*
G75*
G03*
X10572522Y-6819574I-40640J0D01*
G01*
X10491242Y-7032934D02*
X10572522Y-7114214D01*
X10572522Y-7032934D02*
X10491242Y-7114214D01*
X10572522Y-7073574D02*
G75*
G03*
X10572522Y-7073574I-40640J0D01*
G01*
X10491242Y-7286934D02*
X10572522Y-7368214D01*
X10572522Y-7286934D02*
X10491242Y-7368214D01*
X10572522Y-7327574D02*
G75*
G03*
X10572522Y-7327574I-40640J0D01*
G01*
X10491242Y-7540934D02*
X10572522Y-7622214D01*
X10572522Y-7540934D02*
X10491242Y-7622214D01*
X10572522Y-7581574D02*
G75*
G03*
X10572522Y-7581574I-40640J0D01*
G01*
X10491242Y-7794934D02*
X10572522Y-7876214D01*
X10572522Y-7794934D02*
X10491242Y-7876214D01*
X10572522Y-7835574D02*
G75*
G03*
X10572522Y-7835574I-40640J0D01*
G01*
X10491242Y-8048934D02*
X10572522Y-8130214D01*
X10572522Y-8048934D02*
X10491242Y-8130214D01*
X10572522Y-8089574D02*
G75*
G03*
X10572522Y-8089574I-40640J0D01*
G01*
X10491242Y-8302934D02*
X10572522Y-8384214D01*
X10572522Y-8302934D02*
X10491242Y-8384214D01*
X10572522Y-8343574D02*
G75*
G03*
X10572522Y-8343574I-40640J0D01*
G01*
X10491242Y-8556935D02*
X10572522Y-8638215D01*
X10572522Y-8556935D02*
X10491242Y-8638215D01*
X10572522Y-8597575D02*
G75*
G03*
X10572522Y-8597575I-40640J0D01*
G01*
D19*
X13752500Y-11967500D02*
X13837500Y-12052500D01*
X13837500Y-11967500D02*
X13752500Y-12052500D01*
X13795000Y-11967500D02*
X13795000Y-12052500D01*
X13752500Y-12010000D02*
X13837500Y-12010000D01*
X14006500Y-11967500D02*
X14091500Y-12052500D01*
X14091500Y-11967500D02*
X14006500Y-12052500D01*
X14049000Y-11967500D02*
X14049000Y-12052500D01*
X14006500Y-12010000D02*
X14091500Y-12010000D01*
X14260500Y-11967500D02*
X14345500Y-12052500D01*
X14345500Y-11967500D02*
X14260500Y-12052500D01*
X14303000Y-11967500D02*
X14303000Y-12052500D01*
X14260500Y-12010000D02*
X14345500Y-12010000D01*
X14514500Y-11967500D02*
X14599500Y-12052500D01*
X14599500Y-11967500D02*
X14514500Y-12052500D01*
X14557000Y-11967500D02*
X14557000Y-12052500D01*
X14514500Y-12010000D02*
X14599500Y-12010000D01*
X14768500Y-11967500D02*
X14853500Y-12052500D01*
X14853500Y-11967500D02*
X14768500Y-12052500D01*
X14811000Y-11967500D02*
X14811000Y-12052500D01*
X14768500Y-12010000D02*
X14853500Y-12010000D01*
D20*
X8200000Y-11089995D02*
X8300000Y-11189995D01*
X8300000Y-11089995D02*
X8200000Y-11189995D01*
X8285356Y-11175351D02*
X8285356Y-11104639D01*
X8214644Y-11104639D01*
X8214644Y-11175351D01*
X8285356Y-11175351D01*
X8200000Y-11450000D02*
X8300000Y-11550000D01*
X8300000Y-11450000D02*
X8200000Y-11550000D01*
X8285356Y-11535356D02*
X8285356Y-11464644D01*
X8214644Y-11464644D01*
X8214644Y-11535356D01*
X8285356Y-11535356D01*
X8370000Y-12477500D02*
X8470000Y-12577500D01*
X8470000Y-12477500D02*
X8370000Y-12577500D01*
X8455356Y-12562856D02*
X8455356Y-12492144D01*
X8384644Y-12492144D01*
X8384644Y-12562856D01*
X8455356Y-12562856D01*
D13*
X8395000Y-12567500D02*
X8445000Y-12567500D01*
X8395000Y-12487500D02*
X8445000Y-12487500D01*
X8445000Y-12567500D02*
G75*
G03*
X8445000Y-12487500I0J40000D01*
G01*
X8395000Y-12487500D02*
G75*
G03*
X8395000Y-12567500I0J-40000D01*
G01*
D20*
X8370000Y-13072500D02*
X8470000Y-13172500D01*
X8470000Y-13072500D02*
X8370000Y-13172500D01*
X8455356Y-13157856D02*
X8455356Y-13087144D01*
X8384644Y-13087144D01*
X8384644Y-13157856D01*
X8455356Y-13157856D01*
D13*
X8395000Y-13162500D02*
X8445000Y-13162500D01*
X8395000Y-13082500D02*
X8445000Y-13082500D01*
X8445000Y-13162500D02*
G75*
G03*
X8445000Y-13082500I0J40000D01*
G01*
X8395000Y-13082500D02*
G75*
G03*
X8395000Y-13162500I0J-40000D01*
G01*
D20*
X8670000Y-12477500D02*
X8770000Y-12577500D01*
X8770000Y-12477500D02*
X8670000Y-12577500D01*
X8755356Y-12562856D02*
X8755356Y-12492144D01*
X8684644Y-12492144D01*
X8684644Y-12562856D01*
X8755356Y-12562856D01*
D13*
X8695000Y-12567500D02*
X8745000Y-12567500D01*
X8695000Y-12487500D02*
X8745000Y-12487500D01*
X8745000Y-12567500D02*
G75*
G03*
X8745000Y-12487500I0J40000D01*
G01*
X8695000Y-12487500D02*
G75*
G03*
X8695000Y-12567500I0J-40000D01*
G01*
D20*
X8670000Y-13072500D02*
X8770000Y-13172500D01*
X8770000Y-13072500D02*
X8670000Y-13172500D01*
X8755356Y-13157856D02*
X8755356Y-13087144D01*
X8684644Y-13087144D01*
X8684644Y-13157856D01*
X8755356Y-13157856D01*
D13*
X8695000Y-13162500D02*
X8745000Y-13162500D01*
X8695000Y-13082500D02*
X8745000Y-13082500D01*
X8745000Y-13162500D02*
G75*
G03*
X8745000Y-13082500I0J40000D01*
G01*
X8695000Y-13082500D02*
G75*
G03*
X8695000Y-13162500I0J-40000D01*
G01*
D20*
X8759000Y-11095000D02*
X8859000Y-11195000D01*
X8859000Y-11095000D02*
X8759000Y-11195000D01*
X8844356Y-11180356D02*
X8844356Y-11109644D01*
X8773644Y-11109644D01*
X8773644Y-11180356D01*
X8844356Y-11180356D01*
X8759000Y-11345000D02*
X8859000Y-11445000D01*
X8859000Y-11345000D02*
X8759000Y-11445000D01*
X8844356Y-11430356D02*
X8844356Y-11359644D01*
X8773644Y-11359644D01*
X8773644Y-11430356D01*
X8844356Y-11430356D01*
X8759000Y-11595000D02*
X8859000Y-11695000D01*
X8859000Y-11595000D02*
X8759000Y-11695000D01*
X8844356Y-11680356D02*
X8844356Y-11609644D01*
X8773644Y-11609644D01*
X8773644Y-11680356D01*
X8844356Y-11680356D01*
X9070000Y-12477500D02*
X9170000Y-12577500D01*
X9170000Y-12477500D02*
X9070000Y-12577500D01*
X9155356Y-12562856D02*
X9155356Y-12492144D01*
X9084644Y-12492144D01*
X9084644Y-12562856D01*
X9155356Y-12562856D01*
D13*
X9095000Y-12567500D02*
X9145000Y-12567500D01*
X9095000Y-12487500D02*
X9145000Y-12487500D01*
X9145000Y-12567500D02*
G75*
G03*
X9145000Y-12487500I0J40000D01*
G01*
X9095000Y-12487500D02*
G75*
G03*
X9095000Y-12567500I0J-40000D01*
G01*
D20*
X9070000Y-13072500D02*
X9170000Y-13172500D01*
X9170000Y-13072500D02*
X9070000Y-13172500D01*
X9155356Y-13157856D02*
X9155356Y-13087144D01*
X9084644Y-13087144D01*
X9084644Y-13157856D01*
X9155356Y-13157856D01*
D13*
X9095000Y-13162500D02*
X9145000Y-13162500D01*
X9095000Y-13082500D02*
X9145000Y-13082500D01*
X9145000Y-13162500D02*
G75*
G03*
X9145000Y-13082500I0J40000D01*
G01*
X9095000Y-13082500D02*
G75*
G03*
X9095000Y-13162500I0J-40000D01*
G01*
D20*
X9212911Y-9795500D02*
X9312911Y-9895500D01*
X9312911Y-9795500D02*
X9212911Y-9895500D01*
X9298267Y-9880856D02*
X9298267Y-9810144D01*
X9227555Y-9810144D01*
X9227555Y-9880856D01*
X9298267Y-9880856D01*
X9220000Y-12652500D02*
X9320000Y-12752500D01*
X9320000Y-12652500D02*
X9220000Y-12752500D01*
X9305356Y-12737856D02*
X9305356Y-12667144D01*
X9234644Y-12667144D01*
X9234644Y-12737856D01*
X9305356Y-12737856D01*
D13*
X9245000Y-12742500D02*
X9295000Y-12742500D01*
X9245000Y-12662500D02*
X9295000Y-12662500D01*
X9295000Y-12742500D02*
G75*
G03*
X9295000Y-12662500I0J40000D01*
G01*
X9245000Y-12662500D02*
G75*
G03*
X9245000Y-12742500I0J-40000D01*
G01*
D20*
X9220000Y-12897500D02*
X9320000Y-12997500D01*
X9320000Y-12897500D02*
X9220000Y-12997500D01*
X9305356Y-12982856D02*
X9305356Y-12912144D01*
X9234644Y-12912144D01*
X9234644Y-12982856D01*
X9305356Y-12982856D01*
D13*
X9245000Y-12987500D02*
X9295000Y-12987500D01*
X9245000Y-12907500D02*
X9295000Y-12907500D01*
X9295000Y-12987500D02*
G75*
G03*
X9295000Y-12907500I0J40000D01*
G01*
X9245000Y-12907500D02*
G75*
G03*
X9245000Y-12987500I0J-40000D01*
G01*
D20*
X9466911Y-9795500D02*
X9566911Y-9895500D01*
X9566911Y-9795500D02*
X9466911Y-9895500D01*
X9552267Y-9880856D02*
X9552267Y-9810144D01*
X9481555Y-9810144D01*
X9481555Y-9880856D01*
X9552267Y-9880856D01*
X9720911Y-9795500D02*
X9820911Y-9895500D01*
X9820911Y-9795500D02*
X9720911Y-9895500D01*
X9806267Y-9880856D02*
X9806267Y-9810144D01*
X9735555Y-9810144D01*
X9735555Y-9880856D01*
X9806267Y-9880856D01*
X9974911Y-9795500D02*
X10074911Y-9895500D01*
X10074911Y-9795500D02*
X9974911Y-9895500D01*
X10060267Y-9880856D02*
X10060267Y-9810144D01*
X9989555Y-9810144D01*
X9989555Y-9880856D01*
X10060267Y-9880856D01*
X10209000Y-11095000D02*
X10309000Y-11195000D01*
X10309000Y-11095000D02*
X10209000Y-11195000D01*
X10294356Y-11180356D02*
X10294356Y-11109644D01*
X10223644Y-11109644D01*
X10223644Y-11180356D01*
X10294356Y-11180356D01*
X10209000Y-11595000D02*
X10309000Y-11695000D01*
X10309000Y-11595000D02*
X10209000Y-11695000D01*
X10294356Y-11680356D02*
X10294356Y-11609644D01*
X10223644Y-11609644D01*
X10223644Y-11680356D01*
X10294356Y-11680356D01*
X19442000Y-5515000D02*
X19542000Y-5615000D01*
X19542000Y-5515000D02*
X19442000Y-5615000D01*
X19527356Y-5600356D02*
X19527356Y-5529644D01*
X19456644Y-5529644D01*
X19456644Y-5600356D01*
X19527356Y-5600356D01*
X19696000Y-5515000D02*
X19796000Y-5615000D01*
X19796000Y-5515000D02*
X19696000Y-5615000D01*
X19781356Y-5600356D02*
X19781356Y-5529644D01*
X19710644Y-5529644D01*
X19710644Y-5600356D01*
X19781356Y-5600356D01*
X19950000Y-5515000D02*
X20050000Y-5615000D01*
X20050000Y-5515000D02*
X19950000Y-5615000D01*
X20035356Y-5600356D02*
X20035356Y-5529644D01*
X19964644Y-5529644D01*
X19964644Y-5600356D01*
X20035356Y-5600356D01*
X20204000Y-5515000D02*
X20304000Y-5615000D01*
X20304000Y-5515000D02*
X20204000Y-5615000D01*
X20289356Y-5600356D02*
X20289356Y-5529644D01*
X20218644Y-5529644D01*
X20218644Y-5600356D01*
X20289356Y-5600356D01*
X20458000Y-5515000D02*
X20558000Y-5615000D01*
X20558000Y-5515000D02*
X20458000Y-5615000D01*
X20543356Y-5600356D02*
X20543356Y-5529644D01*
X20472644Y-5529644D01*
X20472644Y-5600356D01*
X20543356Y-5600356D01*
D21*
X9484000Y-10760000D02*
X9634000Y-10910000D01*
X9634000Y-10760000D02*
X9484000Y-10910000D01*
X9559000Y-10910000D02*
X9634000Y-10835000D01*
X9559000Y-10760000D01*
X9484000Y-10835000D01*
X9559000Y-10910000D01*
D13*
X9494000Y-10900000D02*
X9624000Y-10900000D01*
X9494000Y-10770000D02*
X9624000Y-10770000D01*
X9624000Y-10900000D02*
G75*
G03*
X9624000Y-10770000I0J65000D01*
G01*
X9494000Y-10770000D02*
G75*
G03*
X9494000Y-10900000I0J-65000D01*
G01*
D21*
X9484000Y-11880000D02*
X9634000Y-12030000D01*
X9634000Y-11880000D02*
X9484000Y-12030000D01*
X9559000Y-12030000D02*
X9634000Y-11955000D01*
X9559000Y-11880000D01*
X9484000Y-11955000D01*
X9559000Y-12030000D01*
D13*
X9494000Y-12020000D02*
X9624000Y-12020000D01*
X9494000Y-11890000D02*
X9624000Y-11890000D01*
X9624000Y-12020000D02*
G75*
G03*
X9624000Y-11890000I0J65000D01*
G01*
X9494000Y-11890000D02*
G75*
G03*
X9494000Y-12020000I0J-65000D01*
G01*
D22*
X13054900Y-9530000D02*
X13054900Y-9750000D01*
X12944900Y-9640000D02*
X13164900Y-9640000D01*
X13164900Y-9640000D02*
G75*
G03*
X13164900Y-9640000I-110000J0D01*
G01*
X14959900Y-7625000D02*
X14959900Y-7845000D01*
X14849900Y-7735000D02*
X15069900Y-7735000D01*
X15069900Y-7735000D02*
G75*
G03*
X15069900Y-7735000I-110000J0D01*
G01*
X16864900Y-9530000D02*
X16864900Y-9750000D01*
X16754900Y-9640000D02*
X16974900Y-9640000D01*
X16974900Y-9640000D02*
G75*
G03*
X16974900Y-9640000I-110000J0D01*
G01*
D13*
X7339980Y-17056313D02*
X7339980Y-16856313D01*
X7387599Y-16856313D01*
X7416171Y-16865837D01*
X7435219Y-16884884D01*
X7444742Y-16903932D01*
X7454266Y-16942027D01*
X7454266Y-16970599D01*
X7444742Y-17008694D01*
X7435219Y-17027741D01*
X7416171Y-17046789D01*
X7387599Y-17056313D01*
X7339980Y-17056313D01*
X7539980Y-17056313D02*
X7539980Y-16922980D01*
X7539980Y-16961075D02*
X7549504Y-16942027D01*
X7559028Y-16932503D01*
X7578076Y-16922980D01*
X7597123Y-16922980D01*
X7663790Y-17056313D02*
X7663790Y-16922980D01*
X7663790Y-16856313D02*
X7654266Y-16865837D01*
X7663790Y-16875361D01*
X7673314Y-16865837D01*
X7663790Y-16856313D01*
X7663790Y-16875361D01*
X7787599Y-17056313D02*
X7768552Y-17046789D01*
X7759028Y-17027741D01*
X7759028Y-16856313D01*
X7892361Y-17056313D02*
X7873314Y-17046789D01*
X7863790Y-17027741D01*
X7863790Y-16856313D01*
X8120933Y-17056313D02*
X8120933Y-16856313D01*
X8187599Y-16999170D01*
X8254266Y-16856313D01*
X8254266Y-17056313D01*
X8435219Y-17056313D02*
X8435219Y-16951551D01*
X8425695Y-16932503D01*
X8406647Y-16922980D01*
X8368552Y-16922980D01*
X8349504Y-16932503D01*
X8435219Y-17046789D02*
X8416171Y-17056313D01*
X8368552Y-17056313D01*
X8349504Y-17046789D01*
X8339980Y-17027741D01*
X8339980Y-17008694D01*
X8349504Y-16989646D01*
X8368552Y-16980122D01*
X8416171Y-16980122D01*
X8435219Y-16970599D01*
X8530457Y-16922980D02*
X8530457Y-17122980D01*
X8530457Y-16932503D02*
X8549504Y-16922980D01*
X8587600Y-16922980D01*
X8606647Y-16932503D01*
X8616171Y-16942027D01*
X8625695Y-16961075D01*
X8625695Y-17018218D01*
X8616171Y-17037265D01*
X8606647Y-17046789D01*
X8587600Y-17056313D01*
X8549504Y-17056313D01*
X8530457Y-17046789D01*
X8711409Y-17037265D02*
X8720933Y-17046789D01*
X8711409Y-17056313D01*
X8701885Y-17046789D01*
X8711409Y-17037265D01*
X8711409Y-17056313D01*
X8711409Y-16932503D02*
X8720933Y-16942027D01*
X8711409Y-16951551D01*
X8701885Y-16942027D01*
X8711409Y-16932503D01*
X8711409Y-16951551D01*
D11*
X7072361Y-17380837D02*
X7082361Y-17390837D01*
X7082361Y-17380837D02*
X7072361Y-17390837D01*
D13*
X7378076Y-17276313D02*
X7397123Y-17276313D01*
X7416171Y-17285837D01*
X7425695Y-17295361D01*
X7435219Y-17314408D01*
X7444742Y-17352503D01*
X7444742Y-17400122D01*
X7435219Y-17438218D01*
X7425695Y-17457265D01*
X7416171Y-17466789D01*
X7397123Y-17476313D01*
X7378076Y-17476313D01*
X7359028Y-17466789D01*
X7349504Y-17457265D01*
X7339980Y-17438218D01*
X7330457Y-17400122D01*
X7330457Y-17352503D01*
X7339980Y-17314408D01*
X7349504Y-17295361D01*
X7359028Y-17285837D01*
X7378076Y-17276313D01*
X7530457Y-17457265D02*
X7539980Y-17466789D01*
X7530457Y-17476313D01*
X7520933Y-17466789D01*
X7530457Y-17457265D01*
X7530457Y-17476313D01*
X7730457Y-17476313D02*
X7616171Y-17476313D01*
X7673314Y-17476313D02*
X7673314Y-17276313D01*
X7654266Y-17304884D01*
X7635219Y-17323932D01*
X7616171Y-17333456D01*
X7854266Y-17276313D02*
X7873314Y-17276313D01*
X7892361Y-17285837D01*
X7901885Y-17295361D01*
X7911409Y-17314408D01*
X7920933Y-17352503D01*
X7920933Y-17400122D01*
X7911409Y-17438218D01*
X7901885Y-17457265D01*
X7892361Y-17466789D01*
X7873314Y-17476313D01*
X7854266Y-17476313D01*
X7835219Y-17466789D01*
X7825695Y-17457265D01*
X7816171Y-17438218D01*
X7806647Y-17400122D01*
X7806647Y-17352503D01*
X7816171Y-17314408D01*
X7825695Y-17295361D01*
X7835219Y-17285837D01*
X7854266Y-17276313D01*
X8044742Y-17276313D02*
X8063790Y-17276313D01*
X8082838Y-17285837D01*
X8092361Y-17295361D01*
X8101885Y-17314408D01*
X8111409Y-17352503D01*
X8111409Y-17400122D01*
X8101885Y-17438218D01*
X8092361Y-17457265D01*
X8082838Y-17466789D01*
X8063790Y-17476313D01*
X8044742Y-17476313D01*
X8025695Y-17466789D01*
X8016171Y-17457265D01*
X8006647Y-17438218D01*
X7997123Y-17400122D01*
X7997123Y-17352503D01*
X8006647Y-17314408D01*
X8016171Y-17295361D01*
X8025695Y-17285837D01*
X8044742Y-17276313D01*
X8197123Y-17476313D02*
X8197123Y-17342980D01*
X8197123Y-17362027D02*
X8206647Y-17352503D01*
X8225695Y-17342980D01*
X8254266Y-17342980D01*
X8273314Y-17352503D01*
X8282838Y-17371551D01*
X8282838Y-17476313D01*
X8282838Y-17371551D02*
X8292361Y-17352503D01*
X8311409Y-17342980D01*
X8339980Y-17342980D01*
X8359028Y-17352503D01*
X8368552Y-17371551D01*
X8368552Y-17476313D01*
X8463790Y-17476313D02*
X8463790Y-17342980D01*
X8463790Y-17362027D02*
X8473314Y-17352503D01*
X8492362Y-17342980D01*
X8520933Y-17342980D01*
X8539981Y-17352503D01*
X8549504Y-17371551D01*
X8549504Y-17476313D01*
X8549504Y-17371551D02*
X8559028Y-17352503D01*
X8578076Y-17342980D01*
X8606647Y-17342980D01*
X8625695Y-17352503D01*
X8635219Y-17371551D01*
X8635219Y-17476313D01*
X9025695Y-17266789D02*
X8854266Y-17523932D01*
X9282838Y-17276313D02*
X9301885Y-17276313D01*
X9320933Y-17285837D01*
X9330457Y-17295361D01*
X9339981Y-17314408D01*
X9349504Y-17352503D01*
X9349504Y-17400122D01*
X9339981Y-17438218D01*
X9330457Y-17457265D01*
X9320933Y-17466789D01*
X9301885Y-17476313D01*
X9282838Y-17476313D01*
X9263790Y-17466789D01*
X9254266Y-17457265D01*
X9244742Y-17438218D01*
X9235219Y-17400122D01*
X9235219Y-17352503D01*
X9244742Y-17314408D01*
X9254266Y-17295361D01*
X9263790Y-17285837D01*
X9282838Y-17276313D01*
X9435219Y-17457265D02*
X9444742Y-17466789D01*
X9435219Y-17476313D01*
X9425695Y-17466789D01*
X9435219Y-17457265D01*
X9435219Y-17476313D01*
X9568552Y-17276313D02*
X9587600Y-17276313D01*
X9606647Y-17285837D01*
X9616171Y-17295361D01*
X9625695Y-17314408D01*
X9635219Y-17352503D01*
X9635219Y-17400122D01*
X9625695Y-17438218D01*
X9616171Y-17457265D01*
X9606647Y-17466789D01*
X9587600Y-17476313D01*
X9568552Y-17476313D01*
X9549504Y-17466789D01*
X9539981Y-17457265D01*
X9530457Y-17438218D01*
X9520933Y-17400122D01*
X9520933Y-17352503D01*
X9530457Y-17314408D01*
X9539981Y-17295361D01*
X9549504Y-17285837D01*
X9568552Y-17276313D01*
X9759028Y-17276313D02*
X9778076Y-17276313D01*
X9797123Y-17285837D01*
X9806647Y-17295361D01*
X9816171Y-17314408D01*
X9825695Y-17352503D01*
X9825695Y-17400122D01*
X9816171Y-17438218D01*
X9806647Y-17457265D01*
X9797123Y-17466789D01*
X9778076Y-17476313D01*
X9759028Y-17476313D01*
X9739981Y-17466789D01*
X9730457Y-17457265D01*
X9720933Y-17438218D01*
X9711409Y-17400122D01*
X9711409Y-17352503D01*
X9720933Y-17314408D01*
X9730457Y-17295361D01*
X9739981Y-17285837D01*
X9759028Y-17276313D01*
X9892362Y-17276313D02*
X10016171Y-17276313D01*
X9949504Y-17352503D01*
X9978076Y-17352503D01*
X9997123Y-17362027D01*
X10006647Y-17371551D01*
X10016171Y-17390599D01*
X10016171Y-17438218D01*
X10006647Y-17457265D01*
X9997123Y-17466789D01*
X9978076Y-17476313D01*
X9920933Y-17476313D01*
X9901885Y-17466789D01*
X9892362Y-17457265D01*
X10111409Y-17476313D02*
X10149504Y-17476313D01*
X10168552Y-17466789D01*
X10178076Y-17457265D01*
X10197123Y-17428694D01*
X10206647Y-17390599D01*
X10206647Y-17314408D01*
X10197123Y-17295361D01*
X10187600Y-17285837D01*
X10168552Y-17276313D01*
X10130457Y-17276313D01*
X10111409Y-17285837D01*
X10101885Y-17295361D01*
X10092361Y-17314408D01*
X10092361Y-17362027D01*
X10101885Y-17381075D01*
X10111409Y-17390599D01*
X10130457Y-17400122D01*
X10168552Y-17400122D01*
X10187600Y-17390599D01*
X10197123Y-17381075D01*
X10206647Y-17362027D01*
X10282838Y-17276313D02*
X10282838Y-17314408D01*
X10359028Y-17276313D02*
X10359028Y-17314408D01*
X10654266Y-17552503D02*
X10644742Y-17542980D01*
X10625695Y-17514408D01*
X10616171Y-17495361D01*
X10606647Y-17466789D01*
X10597123Y-17419170D01*
X10597123Y-17381075D01*
X10606647Y-17333456D01*
X10616171Y-17304884D01*
X10625695Y-17285837D01*
X10644742Y-17257265D01*
X10654266Y-17247741D01*
X10825695Y-17276313D02*
X10730457Y-17276313D01*
X10720933Y-17371551D01*
X10730457Y-17362027D01*
X10749504Y-17352503D01*
X10797123Y-17352503D01*
X10816171Y-17362027D01*
X10825695Y-17371551D01*
X10835219Y-17390599D01*
X10835219Y-17438218D01*
X10825695Y-17457265D01*
X10816171Y-17466789D01*
X10797123Y-17476313D01*
X10749504Y-17476313D01*
X10730457Y-17466789D01*
X10720933Y-17457265D01*
X11073314Y-17476313D02*
X11073314Y-17276313D01*
X11159028Y-17476313D02*
X11159028Y-17371551D01*
X11149504Y-17352503D01*
X11130457Y-17342980D01*
X11101885Y-17342980D01*
X11082838Y-17352503D01*
X11073314Y-17362027D01*
X11282838Y-17476313D02*
X11263790Y-17466789D01*
X11254266Y-17457265D01*
X11244742Y-17438218D01*
X11244742Y-17381075D01*
X11254266Y-17362027D01*
X11263790Y-17352503D01*
X11282838Y-17342980D01*
X11311409Y-17342980D01*
X11330457Y-17352503D01*
X11339980Y-17362027D01*
X11349504Y-17381075D01*
X11349504Y-17438218D01*
X11339980Y-17457265D01*
X11330457Y-17466789D01*
X11311409Y-17476313D01*
X11282838Y-17476313D01*
X11463790Y-17476313D02*
X11444742Y-17466789D01*
X11435219Y-17447741D01*
X11435219Y-17276313D01*
X11616171Y-17466789D02*
X11597123Y-17476313D01*
X11559028Y-17476313D01*
X11539980Y-17466789D01*
X11530457Y-17447741D01*
X11530457Y-17371551D01*
X11539980Y-17352503D01*
X11559028Y-17342980D01*
X11597123Y-17342980D01*
X11616171Y-17352503D01*
X11625695Y-17371551D01*
X11625695Y-17390599D01*
X11530457Y-17409646D01*
X11701885Y-17466789D02*
X11720933Y-17476313D01*
X11759028Y-17476313D01*
X11778076Y-17466789D01*
X11787599Y-17447741D01*
X11787599Y-17438218D01*
X11778076Y-17419170D01*
X11759028Y-17409646D01*
X11730457Y-17409646D01*
X11711409Y-17400122D01*
X11701885Y-17381075D01*
X11701885Y-17371551D01*
X11711409Y-17352503D01*
X11730457Y-17342980D01*
X11759028Y-17342980D01*
X11778076Y-17352503D01*
X11854266Y-17552503D02*
X11863790Y-17542980D01*
X11882838Y-17514408D01*
X11892361Y-17495361D01*
X11901885Y-17466789D01*
X11911409Y-17419170D01*
X11911409Y-17381075D01*
X11901885Y-17333456D01*
X11892361Y-17304884D01*
X11882838Y-17285837D01*
X11863790Y-17257265D01*
X11854266Y-17247741D01*
D14*
X7082361Y-17649837D02*
G75*
G03*
X7082361Y-17649837I-15000J0D01*
G01*
D13*
X7378076Y-17540313D02*
X7397123Y-17540313D01*
X7416171Y-17549837D01*
X7425695Y-17559361D01*
X7435219Y-17578408D01*
X7444742Y-17616503D01*
X7444742Y-17664122D01*
X7435219Y-17702218D01*
X7425695Y-17721265D01*
X7416171Y-17730789D01*
X7397123Y-17740313D01*
X7378076Y-17740313D01*
X7359028Y-17730789D01*
X7349504Y-17721265D01*
X7339980Y-17702218D01*
X7330457Y-17664122D01*
X7330457Y-17616503D01*
X7339980Y-17578408D01*
X7349504Y-17559361D01*
X7359028Y-17549837D01*
X7378076Y-17540313D01*
X7530457Y-17721265D02*
X7539980Y-17730789D01*
X7530457Y-17740313D01*
X7520933Y-17730789D01*
X7530457Y-17721265D01*
X7530457Y-17740313D01*
X7606647Y-17540313D02*
X7730457Y-17540313D01*
X7663790Y-17616503D01*
X7692361Y-17616503D01*
X7711409Y-17626027D01*
X7720933Y-17635551D01*
X7730457Y-17654599D01*
X7730457Y-17702218D01*
X7720933Y-17721265D01*
X7711409Y-17730789D01*
X7692361Y-17740313D01*
X7635219Y-17740313D01*
X7616171Y-17730789D01*
X7606647Y-17721265D01*
X7854266Y-17540313D02*
X7873314Y-17540313D01*
X7892361Y-17549837D01*
X7901885Y-17559361D01*
X7911409Y-17578408D01*
X7920933Y-17616503D01*
X7920933Y-17664122D01*
X7911409Y-17702218D01*
X7901885Y-17721265D01*
X7892361Y-17730789D01*
X7873314Y-17740313D01*
X7854266Y-17740313D01*
X7835219Y-17730789D01*
X7825695Y-17721265D01*
X7816171Y-17702218D01*
X7806647Y-17664122D01*
X7806647Y-17616503D01*
X7816171Y-17578408D01*
X7825695Y-17559361D01*
X7835219Y-17549837D01*
X7854266Y-17540313D01*
X8044742Y-17540313D02*
X8063790Y-17540313D01*
X8082838Y-17549837D01*
X8092361Y-17559361D01*
X8101885Y-17578408D01*
X8111409Y-17616503D01*
X8111409Y-17664122D01*
X8101885Y-17702218D01*
X8092361Y-17721265D01*
X8082838Y-17730789D01*
X8063790Y-17740313D01*
X8044742Y-17740313D01*
X8025695Y-17730789D01*
X8016171Y-17721265D01*
X8006647Y-17702218D01*
X7997123Y-17664122D01*
X7997123Y-17616503D01*
X8006647Y-17578408D01*
X8016171Y-17559361D01*
X8025695Y-17549837D01*
X8044742Y-17540313D01*
X8197123Y-17740313D02*
X8197123Y-17606980D01*
X8197123Y-17626027D02*
X8206647Y-17616503D01*
X8225695Y-17606980D01*
X8254266Y-17606980D01*
X8273314Y-17616503D01*
X8282838Y-17635551D01*
X8282838Y-17740313D01*
X8282838Y-17635551D02*
X8292361Y-17616503D01*
X8311409Y-17606980D01*
X8339980Y-17606980D01*
X8359028Y-17616503D01*
X8368552Y-17635551D01*
X8368552Y-17740313D01*
X8463790Y-17740313D02*
X8463790Y-17606980D01*
X8463790Y-17626027D02*
X8473314Y-17616503D01*
X8492362Y-17606980D01*
X8520933Y-17606980D01*
X8539981Y-17616503D01*
X8549504Y-17635551D01*
X8549504Y-17740313D01*
X8549504Y-17635551D02*
X8559028Y-17616503D01*
X8578076Y-17606980D01*
X8606647Y-17606980D01*
X8625695Y-17616503D01*
X8635219Y-17635551D01*
X8635219Y-17740313D01*
X9025695Y-17530789D02*
X8854266Y-17787932D01*
X9282838Y-17540313D02*
X9301885Y-17540313D01*
X9320933Y-17549837D01*
X9330457Y-17559361D01*
X9339981Y-17578408D01*
X9349504Y-17616503D01*
X9349504Y-17664122D01*
X9339981Y-17702218D01*
X9330457Y-17721265D01*
X9320933Y-17730789D01*
X9301885Y-17740313D01*
X9282838Y-17740313D01*
X9263790Y-17730789D01*
X9254266Y-17721265D01*
X9244742Y-17702218D01*
X9235219Y-17664122D01*
X9235219Y-17616503D01*
X9244742Y-17578408D01*
X9254266Y-17559361D01*
X9263790Y-17549837D01*
X9282838Y-17540313D01*
X9435219Y-17721265D02*
X9444742Y-17730789D01*
X9435219Y-17740313D01*
X9425695Y-17730789D01*
X9435219Y-17721265D01*
X9435219Y-17740313D01*
X9568552Y-17540313D02*
X9587600Y-17540313D01*
X9606647Y-17549837D01*
X9616171Y-17559361D01*
X9625695Y-17578408D01*
X9635219Y-17616503D01*
X9635219Y-17664122D01*
X9625695Y-17702218D01*
X9616171Y-17721265D01*
X9606647Y-17730789D01*
X9587600Y-17740313D01*
X9568552Y-17740313D01*
X9549504Y-17730789D01*
X9539981Y-17721265D01*
X9530457Y-17702218D01*
X9520933Y-17664122D01*
X9520933Y-17616503D01*
X9530457Y-17578408D01*
X9539981Y-17559361D01*
X9549504Y-17549837D01*
X9568552Y-17540313D01*
X9825695Y-17740313D02*
X9711409Y-17740313D01*
X9768552Y-17740313D02*
X9768552Y-17540313D01*
X9749504Y-17568884D01*
X9730457Y-17587932D01*
X9711409Y-17597456D01*
X10016171Y-17740313D02*
X9901885Y-17740313D01*
X9959028Y-17740313D02*
X9959028Y-17540313D01*
X9939981Y-17568884D01*
X9920933Y-17587932D01*
X9901885Y-17597456D01*
X10130457Y-17626027D02*
X10111409Y-17616503D01*
X10101885Y-17606980D01*
X10092361Y-17587932D01*
X10092361Y-17578408D01*
X10101885Y-17559361D01*
X10111409Y-17549837D01*
X10130457Y-17540313D01*
X10168552Y-17540313D01*
X10187600Y-17549837D01*
X10197123Y-17559361D01*
X10206647Y-17578408D01*
X10206647Y-17587932D01*
X10197123Y-17606980D01*
X10187600Y-17616503D01*
X10168552Y-17626027D01*
X10130457Y-17626027D01*
X10111409Y-17635551D01*
X10101885Y-17645075D01*
X10092361Y-17664122D01*
X10092361Y-17702218D01*
X10101885Y-17721265D01*
X10111409Y-17730789D01*
X10130457Y-17740313D01*
X10168552Y-17740313D01*
X10187600Y-17730789D01*
X10197123Y-17721265D01*
X10206647Y-17702218D01*
X10206647Y-17664122D01*
X10197123Y-17645075D01*
X10187600Y-17635551D01*
X10168552Y-17626027D01*
X10282838Y-17540313D02*
X10282838Y-17578408D01*
X10359028Y-17540313D02*
X10359028Y-17578408D01*
X10654266Y-17816503D02*
X10644742Y-17806980D01*
X10625695Y-17778408D01*
X10616171Y-17759361D01*
X10606647Y-17730789D01*
X10597123Y-17683170D01*
X10597123Y-17645075D01*
X10606647Y-17597456D01*
X10616171Y-17568884D01*
X10625695Y-17549837D01*
X10644742Y-17521265D01*
X10654266Y-17511741D01*
X10711409Y-17540313D02*
X10835219Y-17540313D01*
X10768552Y-17616503D01*
X10797123Y-17616503D01*
X10816171Y-17626027D01*
X10825695Y-17635551D01*
X10835219Y-17654599D01*
X10835219Y-17702218D01*
X10825695Y-17721265D01*
X10816171Y-17730789D01*
X10797123Y-17740313D01*
X10739981Y-17740313D01*
X10720933Y-17730789D01*
X10711409Y-17721265D01*
X10911409Y-17559361D02*
X10920933Y-17549837D01*
X10939981Y-17540313D01*
X10987600Y-17540313D01*
X11006647Y-17549837D01*
X11016171Y-17559361D01*
X11025695Y-17578408D01*
X11025695Y-17597456D01*
X11016171Y-17626027D01*
X10901885Y-17740313D01*
X11025695Y-17740313D01*
X11120933Y-17740313D02*
X11159028Y-17740313D01*
X11178076Y-17730789D01*
X11187599Y-17721265D01*
X11206647Y-17692694D01*
X11216171Y-17654599D01*
X11216171Y-17578408D01*
X11206647Y-17559361D01*
X11197123Y-17549837D01*
X11178076Y-17540313D01*
X11139981Y-17540313D01*
X11120933Y-17549837D01*
X11111409Y-17559361D01*
X11101885Y-17578408D01*
X11101885Y-17626027D01*
X11111409Y-17645075D01*
X11120933Y-17654599D01*
X11139981Y-17664122D01*
X11178076Y-17664122D01*
X11197123Y-17654599D01*
X11206647Y-17645075D01*
X11216171Y-17626027D01*
X11454266Y-17740313D02*
X11454266Y-17540313D01*
X11539980Y-17740313D02*
X11539980Y-17635551D01*
X11530457Y-17616503D01*
X11511409Y-17606980D01*
X11482838Y-17606980D01*
X11463790Y-17616503D01*
X11454266Y-17626027D01*
X11663790Y-17740313D02*
X11644742Y-17730789D01*
X11635219Y-17721265D01*
X11625695Y-17702218D01*
X11625695Y-17645075D01*
X11635219Y-17626027D01*
X11644742Y-17616503D01*
X11663790Y-17606980D01*
X11692361Y-17606980D01*
X11711409Y-17616503D01*
X11720933Y-17626027D01*
X11730457Y-17645075D01*
X11730457Y-17702218D01*
X11720933Y-17721265D01*
X11711409Y-17730789D01*
X11692361Y-17740313D01*
X11663790Y-17740313D01*
X11844742Y-17740313D02*
X11825695Y-17730789D01*
X11816171Y-17711741D01*
X11816171Y-17540313D01*
X11997123Y-17730789D02*
X11978076Y-17740313D01*
X11939980Y-17740313D01*
X11920933Y-17730789D01*
X11911409Y-17711741D01*
X11911409Y-17635551D01*
X11920933Y-17616503D01*
X11939980Y-17606980D01*
X11978076Y-17606980D01*
X11997123Y-17616503D01*
X12006647Y-17635551D01*
X12006647Y-17654599D01*
X11911409Y-17673646D01*
X12082838Y-17730789D02*
X12101885Y-17740313D01*
X12139980Y-17740313D01*
X12159028Y-17730789D01*
X12168552Y-17711741D01*
X12168552Y-17702218D01*
X12159028Y-17683170D01*
X12139980Y-17673646D01*
X12111409Y-17673646D01*
X12092361Y-17664122D01*
X12082838Y-17645075D01*
X12082838Y-17635551D01*
X12092361Y-17616503D01*
X12111409Y-17606980D01*
X12139980Y-17606980D01*
X12159028Y-17616503D01*
X12235219Y-17816503D02*
X12244742Y-17806980D01*
X12263790Y-17778408D01*
X12273314Y-17759361D01*
X12282838Y-17730789D01*
X12292361Y-17683170D01*
X12292361Y-17645075D01*
X12282838Y-17597456D01*
X12273314Y-17568884D01*
X12263790Y-17549837D01*
X12244742Y-17521265D01*
X12235219Y-17511741D01*
D15*
X7062361Y-17893837D02*
X7062361Y-17933837D01*
X7042361Y-17913837D02*
X7082361Y-17913837D01*
D13*
X7378076Y-17804313D02*
X7397123Y-17804313D01*
X7416171Y-17813837D01*
X7425695Y-17823361D01*
X7435219Y-17842408D01*
X7444742Y-17880503D01*
X7444742Y-17928122D01*
X7435219Y-17966218D01*
X7425695Y-17985265D01*
X7416171Y-17994789D01*
X7397123Y-18004313D01*
X7378076Y-18004313D01*
X7359028Y-17994789D01*
X7349504Y-17985265D01*
X7339980Y-17966218D01*
X7330457Y-17928122D01*
X7330457Y-17880503D01*
X7339980Y-17842408D01*
X7349504Y-17823361D01*
X7359028Y-17813837D01*
X7378076Y-17804313D01*
X7530457Y-17985265D02*
X7539980Y-17994789D01*
X7530457Y-18004313D01*
X7520933Y-17994789D01*
X7530457Y-17985265D01*
X7530457Y-18004313D01*
X7711409Y-17870980D02*
X7711409Y-18004313D01*
X7663790Y-17794789D02*
X7616171Y-17937646D01*
X7739980Y-17937646D01*
X7854266Y-17804313D02*
X7873314Y-17804313D01*
X7892361Y-17813837D01*
X7901885Y-17823361D01*
X7911409Y-17842408D01*
X7920933Y-17880503D01*
X7920933Y-17928122D01*
X7911409Y-17966218D01*
X7901885Y-17985265D01*
X7892361Y-17994789D01*
X7873314Y-18004313D01*
X7854266Y-18004313D01*
X7835219Y-17994789D01*
X7825695Y-17985265D01*
X7816171Y-17966218D01*
X7806647Y-17928122D01*
X7806647Y-17880503D01*
X7816171Y-17842408D01*
X7825695Y-17823361D01*
X7835219Y-17813837D01*
X7854266Y-17804313D01*
X8044742Y-17804313D02*
X8063790Y-17804313D01*
X8082838Y-17813837D01*
X8092361Y-17823361D01*
X8101885Y-17842408D01*
X8111409Y-17880503D01*
X8111409Y-17928122D01*
X8101885Y-17966218D01*
X8092361Y-17985265D01*
X8082838Y-17994789D01*
X8063790Y-18004313D01*
X8044742Y-18004313D01*
X8025695Y-17994789D01*
X8016171Y-17985265D01*
X8006647Y-17966218D01*
X7997123Y-17928122D01*
X7997123Y-17880503D01*
X8006647Y-17842408D01*
X8016171Y-17823361D01*
X8025695Y-17813837D01*
X8044742Y-17804313D01*
X8197123Y-18004313D02*
X8197123Y-17870980D01*
X8197123Y-17890027D02*
X8206647Y-17880503D01*
X8225695Y-17870980D01*
X8254266Y-17870980D01*
X8273314Y-17880503D01*
X8282838Y-17899551D01*
X8282838Y-18004313D01*
X8282838Y-17899551D02*
X8292361Y-17880503D01*
X8311409Y-17870980D01*
X8339980Y-17870980D01*
X8359028Y-17880503D01*
X8368552Y-17899551D01*
X8368552Y-18004313D01*
X8463790Y-18004313D02*
X8463790Y-17870980D01*
X8463790Y-17890027D02*
X8473314Y-17880503D01*
X8492362Y-17870980D01*
X8520933Y-17870980D01*
X8539981Y-17880503D01*
X8549504Y-17899551D01*
X8549504Y-18004313D01*
X8549504Y-17899551D02*
X8559028Y-17880503D01*
X8578076Y-17870980D01*
X8606647Y-17870980D01*
X8625695Y-17880503D01*
X8635219Y-17899551D01*
X8635219Y-18004313D01*
X9025695Y-17794789D02*
X8854266Y-18051932D01*
X9282838Y-17804313D02*
X9301885Y-17804313D01*
X9320933Y-17813837D01*
X9330457Y-17823361D01*
X9339981Y-17842408D01*
X9349504Y-17880503D01*
X9349504Y-17928122D01*
X9339981Y-17966218D01*
X9330457Y-17985265D01*
X9320933Y-17994789D01*
X9301885Y-18004313D01*
X9282838Y-18004313D01*
X9263790Y-17994789D01*
X9254266Y-17985265D01*
X9244742Y-17966218D01*
X9235219Y-17928122D01*
X9235219Y-17880503D01*
X9244742Y-17842408D01*
X9254266Y-17823361D01*
X9263790Y-17813837D01*
X9282838Y-17804313D01*
X9435219Y-17985265D02*
X9444742Y-17994789D01*
X9435219Y-18004313D01*
X9425695Y-17994789D01*
X9435219Y-17985265D01*
X9435219Y-18004313D01*
X9568552Y-17804313D02*
X9587600Y-17804313D01*
X9606647Y-17813837D01*
X9616171Y-17823361D01*
X9625695Y-17842408D01*
X9635219Y-17880503D01*
X9635219Y-17928122D01*
X9625695Y-17966218D01*
X9616171Y-17985265D01*
X9606647Y-17994789D01*
X9587600Y-18004313D01*
X9568552Y-18004313D01*
X9549504Y-17994789D01*
X9539981Y-17985265D01*
X9530457Y-17966218D01*
X9520933Y-17928122D01*
X9520933Y-17880503D01*
X9530457Y-17842408D01*
X9539981Y-17823361D01*
X9549504Y-17813837D01*
X9568552Y-17804313D01*
X9825695Y-18004313D02*
X9711409Y-18004313D01*
X9768552Y-18004313D02*
X9768552Y-17804313D01*
X9749504Y-17832884D01*
X9730457Y-17851932D01*
X9711409Y-17861456D01*
X10006647Y-17804313D02*
X9911409Y-17804313D01*
X9901885Y-17899551D01*
X9911409Y-17890027D01*
X9930457Y-17880503D01*
X9978076Y-17880503D01*
X9997123Y-17890027D01*
X10006647Y-17899551D01*
X10016171Y-17918599D01*
X10016171Y-17966218D01*
X10006647Y-17985265D01*
X9997123Y-17994789D01*
X9978076Y-18004313D01*
X9930457Y-18004313D01*
X9911409Y-17994789D01*
X9901885Y-17985265D01*
X10082838Y-17804313D02*
X10216171Y-17804313D01*
X10130457Y-18004313D01*
X10282838Y-17804313D02*
X10282838Y-17842408D01*
X10359028Y-17804313D02*
X10359028Y-17842408D01*
X10654266Y-18080503D02*
X10644742Y-18070980D01*
X10625695Y-18042408D01*
X10616171Y-18023361D01*
X10606647Y-17994789D01*
X10597123Y-17947170D01*
X10597123Y-17909075D01*
X10606647Y-17861456D01*
X10616171Y-17832884D01*
X10625695Y-17813837D01*
X10644742Y-17785265D01*
X10654266Y-17775741D01*
X10816171Y-17870980D02*
X10816171Y-18004313D01*
X10768552Y-17794789D02*
X10720933Y-17937646D01*
X10844742Y-17937646D01*
X11006647Y-17870980D02*
X11006647Y-18004313D01*
X10959028Y-17794789D02*
X10911409Y-17937646D01*
X11035219Y-17937646D01*
X11263790Y-18004313D02*
X11263790Y-17804313D01*
X11349504Y-18004313D02*
X11349504Y-17899551D01*
X11339980Y-17880503D01*
X11320933Y-17870980D01*
X11292361Y-17870980D01*
X11273314Y-17880503D01*
X11263790Y-17890027D01*
X11473314Y-18004313D02*
X11454266Y-17994789D01*
X11444742Y-17985265D01*
X11435219Y-17966218D01*
X11435219Y-17909075D01*
X11444742Y-17890027D01*
X11454266Y-17880503D01*
X11473314Y-17870980D01*
X11501885Y-17870980D01*
X11520933Y-17880503D01*
X11530457Y-17890027D01*
X11539980Y-17909075D01*
X11539980Y-17966218D01*
X11530457Y-17985265D01*
X11520933Y-17994789D01*
X11501885Y-18004313D01*
X11473314Y-18004313D01*
X11654266Y-18004313D02*
X11635219Y-17994789D01*
X11625695Y-17975741D01*
X11625695Y-17804313D01*
X11806647Y-17994789D02*
X11787599Y-18004313D01*
X11749504Y-18004313D01*
X11730457Y-17994789D01*
X11720933Y-17975741D01*
X11720933Y-17899551D01*
X11730457Y-17880503D01*
X11749504Y-17870980D01*
X11787599Y-17870980D01*
X11806647Y-17880503D01*
X11816171Y-17899551D01*
X11816171Y-17918599D01*
X11720933Y-17937646D01*
X11892361Y-17994789D02*
X11911409Y-18004313D01*
X11949504Y-18004313D01*
X11968552Y-17994789D01*
X11978076Y-17975741D01*
X11978076Y-17966218D01*
X11968552Y-17947170D01*
X11949504Y-17937646D01*
X11920933Y-17937646D01*
X11901885Y-17928122D01*
X11892361Y-17909075D01*
X11892361Y-17899551D01*
X11901885Y-17880503D01*
X11920933Y-17870980D01*
X11949504Y-17870980D01*
X11968552Y-17880503D01*
X12044742Y-18080503D02*
X12054266Y-18070980D01*
X12073314Y-18042408D01*
X12082838Y-18023361D01*
X12092361Y-17994789D01*
X12101885Y-17947170D01*
X12101885Y-17909075D01*
X12092361Y-17861456D01*
X12082838Y-17832884D01*
X12073314Y-17813837D01*
X12054266Y-17785265D01*
X12044742Y-17775741D01*
D16*
X7075039Y-18195515D02*
X7075039Y-18160159D01*
X7039684Y-18160159D01*
X7039684Y-18195515D01*
X7075039Y-18195515D01*
D13*
X7378076Y-18068313D02*
X7397123Y-18068313D01*
X7416171Y-18077837D01*
X7425695Y-18087361D01*
X7435219Y-18106408D01*
X7444742Y-18144503D01*
X7444742Y-18192122D01*
X7435219Y-18230218D01*
X7425695Y-18249265D01*
X7416171Y-18258789D01*
X7397123Y-18268313D01*
X7378076Y-18268313D01*
X7359028Y-18258789D01*
X7349504Y-18249265D01*
X7339980Y-18230218D01*
X7330457Y-18192122D01*
X7330457Y-18144503D01*
X7339980Y-18106408D01*
X7349504Y-18087361D01*
X7359028Y-18077837D01*
X7378076Y-18068313D01*
X7530457Y-18249265D02*
X7539980Y-18258789D01*
X7530457Y-18268313D01*
X7520933Y-18258789D01*
X7530457Y-18249265D01*
X7530457Y-18268313D01*
X7720933Y-18068313D02*
X7625695Y-18068313D01*
X7616171Y-18163551D01*
X7625695Y-18154027D01*
X7644742Y-18144503D01*
X7692361Y-18144503D01*
X7711409Y-18154027D01*
X7720933Y-18163551D01*
X7730457Y-18182599D01*
X7730457Y-18230218D01*
X7720933Y-18249265D01*
X7711409Y-18258789D01*
X7692361Y-18268313D01*
X7644742Y-18268313D01*
X7625695Y-18258789D01*
X7616171Y-18249265D01*
X7854266Y-18068313D02*
X7873314Y-18068313D01*
X7892361Y-18077837D01*
X7901885Y-18087361D01*
X7911409Y-18106408D01*
X7920933Y-18144503D01*
X7920933Y-18192122D01*
X7911409Y-18230218D01*
X7901885Y-18249265D01*
X7892361Y-18258789D01*
X7873314Y-18268313D01*
X7854266Y-18268313D01*
X7835219Y-18258789D01*
X7825695Y-18249265D01*
X7816171Y-18230218D01*
X7806647Y-18192122D01*
X7806647Y-18144503D01*
X7816171Y-18106408D01*
X7825695Y-18087361D01*
X7835219Y-18077837D01*
X7854266Y-18068313D01*
X8044742Y-18068313D02*
X8063790Y-18068313D01*
X8082838Y-18077837D01*
X8092361Y-18087361D01*
X8101885Y-18106408D01*
X8111409Y-18144503D01*
X8111409Y-18192122D01*
X8101885Y-18230218D01*
X8092361Y-18249265D01*
X8082838Y-18258789D01*
X8063790Y-18268313D01*
X8044742Y-18268313D01*
X8025695Y-18258789D01*
X8016171Y-18249265D01*
X8006647Y-18230218D01*
X7997123Y-18192122D01*
X7997123Y-18144503D01*
X8006647Y-18106408D01*
X8016171Y-18087361D01*
X8025695Y-18077837D01*
X8044742Y-18068313D01*
X8197123Y-18268313D02*
X8197123Y-18134980D01*
X8197123Y-18154027D02*
X8206647Y-18144503D01*
X8225695Y-18134980D01*
X8254266Y-18134980D01*
X8273314Y-18144503D01*
X8282838Y-18163551D01*
X8282838Y-18268313D01*
X8282838Y-18163551D02*
X8292361Y-18144503D01*
X8311409Y-18134980D01*
X8339980Y-18134980D01*
X8359028Y-18144503D01*
X8368552Y-18163551D01*
X8368552Y-18268313D01*
X8463790Y-18268313D02*
X8463790Y-18134980D01*
X8463790Y-18154027D02*
X8473314Y-18144503D01*
X8492362Y-18134980D01*
X8520933Y-18134980D01*
X8539981Y-18144503D01*
X8549504Y-18163551D01*
X8549504Y-18268313D01*
X8549504Y-18163551D02*
X8559028Y-18144503D01*
X8578076Y-18134980D01*
X8606647Y-18134980D01*
X8625695Y-18144503D01*
X8635219Y-18163551D01*
X8635219Y-18268313D01*
X9025695Y-18058789D02*
X8854266Y-18315932D01*
X9282838Y-18068313D02*
X9301885Y-18068313D01*
X9320933Y-18077837D01*
X9330457Y-18087361D01*
X9339981Y-18106408D01*
X9349504Y-18144503D01*
X9349504Y-18192122D01*
X9339981Y-18230218D01*
X9330457Y-18249265D01*
X9320933Y-18258789D01*
X9301885Y-18268313D01*
X9282838Y-18268313D01*
X9263790Y-18258789D01*
X9254266Y-18249265D01*
X9244742Y-18230218D01*
X9235219Y-18192122D01*
X9235219Y-18144503D01*
X9244742Y-18106408D01*
X9254266Y-18087361D01*
X9263790Y-18077837D01*
X9282838Y-18068313D01*
X9435219Y-18249265D02*
X9444742Y-18258789D01*
X9435219Y-18268313D01*
X9425695Y-18258789D01*
X9435219Y-18249265D01*
X9435219Y-18268313D01*
X9568552Y-18068313D02*
X9587600Y-18068313D01*
X9606647Y-18077837D01*
X9616171Y-18087361D01*
X9625695Y-18106408D01*
X9635219Y-18144503D01*
X9635219Y-18192122D01*
X9625695Y-18230218D01*
X9616171Y-18249265D01*
X9606647Y-18258789D01*
X9587600Y-18268313D01*
X9568552Y-18268313D01*
X9549504Y-18258789D01*
X9539981Y-18249265D01*
X9530457Y-18230218D01*
X9520933Y-18192122D01*
X9520933Y-18144503D01*
X9530457Y-18106408D01*
X9539981Y-18087361D01*
X9549504Y-18077837D01*
X9568552Y-18068313D01*
X9825695Y-18268313D02*
X9711409Y-18268313D01*
X9768552Y-18268313D02*
X9768552Y-18068313D01*
X9749504Y-18096884D01*
X9730457Y-18115932D01*
X9711409Y-18125456D01*
X9920933Y-18268313D02*
X9959028Y-18268313D01*
X9978076Y-18258789D01*
X9987600Y-18249265D01*
X10006647Y-18220694D01*
X10016171Y-18182599D01*
X10016171Y-18106408D01*
X10006647Y-18087361D01*
X9997123Y-18077837D01*
X9978076Y-18068313D01*
X9939981Y-18068313D01*
X9920933Y-18077837D01*
X9911409Y-18087361D01*
X9901885Y-18106408D01*
X9901885Y-18154027D01*
X9911409Y-18173075D01*
X9920933Y-18182599D01*
X9939981Y-18192122D01*
X9978076Y-18192122D01*
X9997123Y-18182599D01*
X10006647Y-18173075D01*
X10016171Y-18154027D01*
X10082838Y-18068313D02*
X10216171Y-18068313D01*
X10130457Y-18268313D01*
X10282838Y-18068313D02*
X10282838Y-18106408D01*
X10359028Y-18068313D02*
X10359028Y-18106408D01*
X10654266Y-18344503D02*
X10644742Y-18334980D01*
X10625695Y-18306408D01*
X10616171Y-18287361D01*
X10606647Y-18258789D01*
X10597123Y-18211170D01*
X10597123Y-18173075D01*
X10606647Y-18125456D01*
X10616171Y-18096884D01*
X10625695Y-18077837D01*
X10644742Y-18049265D01*
X10654266Y-18039741D01*
X10720933Y-18087361D02*
X10730457Y-18077837D01*
X10749504Y-18068313D01*
X10797123Y-18068313D01*
X10816171Y-18077837D01*
X10825695Y-18087361D01*
X10835219Y-18106408D01*
X10835219Y-18125456D01*
X10825695Y-18154027D01*
X10711409Y-18268313D01*
X10835219Y-18268313D01*
X11073314Y-18268313D02*
X11073314Y-18068313D01*
X11159028Y-18268313D02*
X11159028Y-18163551D01*
X11149504Y-18144503D01*
X11130457Y-18134980D01*
X11101885Y-18134980D01*
X11082838Y-18144503D01*
X11073314Y-18154027D01*
X11282838Y-18268313D02*
X11263790Y-18258789D01*
X11254266Y-18249265D01*
X11244742Y-18230218D01*
X11244742Y-18173075D01*
X11254266Y-18154027D01*
X11263790Y-18144503D01*
X11282838Y-18134980D01*
X11311409Y-18134980D01*
X11330457Y-18144503D01*
X11339980Y-18154027D01*
X11349504Y-18173075D01*
X11349504Y-18230218D01*
X11339980Y-18249265D01*
X11330457Y-18258789D01*
X11311409Y-18268313D01*
X11282838Y-18268313D01*
X11463790Y-18268313D02*
X11444742Y-18258789D01*
X11435219Y-18239741D01*
X11435219Y-18068313D01*
X11616171Y-18258789D02*
X11597123Y-18268313D01*
X11559028Y-18268313D01*
X11539980Y-18258789D01*
X11530457Y-18239741D01*
X11530457Y-18163551D01*
X11539980Y-18144503D01*
X11559028Y-18134980D01*
X11597123Y-18134980D01*
X11616171Y-18144503D01*
X11625695Y-18163551D01*
X11625695Y-18182599D01*
X11530457Y-18201646D01*
X11701885Y-18258789D02*
X11720933Y-18268313D01*
X11759028Y-18268313D01*
X11778076Y-18258789D01*
X11787599Y-18239741D01*
X11787599Y-18230218D01*
X11778076Y-18211170D01*
X11759028Y-18201646D01*
X11730457Y-18201646D01*
X11711409Y-18192122D01*
X11701885Y-18173075D01*
X11701885Y-18163551D01*
X11711409Y-18144503D01*
X11730457Y-18134980D01*
X11759028Y-18134980D01*
X11778076Y-18144503D01*
X11854266Y-18344503D02*
X11863790Y-18334980D01*
X11882838Y-18306408D01*
X11892361Y-18287361D01*
X11901885Y-18258789D01*
X11911409Y-18211170D01*
X11911409Y-18173075D01*
X11901885Y-18125456D01*
X11892361Y-18096884D01*
X11882838Y-18077837D01*
X11863790Y-18049265D01*
X11854266Y-18039741D01*
D17*
X7044861Y-18479337D02*
X7082361Y-18441837D01*
X7044861Y-18404337D01*
X7007361Y-18441837D01*
X7044861Y-18479337D01*
D13*
X7378076Y-18332313D02*
X7397123Y-18332313D01*
X7416171Y-18341837D01*
X7425695Y-18351361D01*
X7435219Y-18370408D01*
X7444742Y-18408503D01*
X7444742Y-18456122D01*
X7435219Y-18494218D01*
X7425695Y-18513265D01*
X7416171Y-18522789D01*
X7397123Y-18532313D01*
X7378076Y-18532313D01*
X7359028Y-18522789D01*
X7349504Y-18513265D01*
X7339980Y-18494218D01*
X7330457Y-18456122D01*
X7330457Y-18408503D01*
X7339980Y-18370408D01*
X7349504Y-18351361D01*
X7359028Y-18341837D01*
X7378076Y-18332313D01*
X7530457Y-18513265D02*
X7539980Y-18522789D01*
X7530457Y-18532313D01*
X7520933Y-18522789D01*
X7530457Y-18513265D01*
X7530457Y-18532313D01*
X7606647Y-18332313D02*
X7739980Y-18332313D01*
X7654266Y-18532313D01*
X7911409Y-18332313D02*
X7816171Y-18332313D01*
X7806647Y-18427551D01*
X7816171Y-18418027D01*
X7835219Y-18408503D01*
X7882838Y-18408503D01*
X7901885Y-18418027D01*
X7911409Y-18427551D01*
X7920933Y-18446599D01*
X7920933Y-18494218D01*
X7911409Y-18513265D01*
X7901885Y-18522789D01*
X7882838Y-18532313D01*
X7835219Y-18532313D01*
X7816171Y-18522789D01*
X7806647Y-18513265D01*
X8044742Y-18332313D02*
X8063790Y-18332313D01*
X8082838Y-18341837D01*
X8092361Y-18351361D01*
X8101885Y-18370408D01*
X8111409Y-18408503D01*
X8111409Y-18456122D01*
X8101885Y-18494218D01*
X8092361Y-18513265D01*
X8082838Y-18522789D01*
X8063790Y-18532313D01*
X8044742Y-18532313D01*
X8025695Y-18522789D01*
X8016171Y-18513265D01*
X8006647Y-18494218D01*
X7997123Y-18456122D01*
X7997123Y-18408503D01*
X8006647Y-18370408D01*
X8016171Y-18351361D01*
X8025695Y-18341837D01*
X8044742Y-18332313D01*
X8197123Y-18532313D02*
X8197123Y-18398980D01*
X8197123Y-18418027D02*
X8206647Y-18408503D01*
X8225695Y-18398980D01*
X8254266Y-18398980D01*
X8273314Y-18408503D01*
X8282838Y-18427551D01*
X8282838Y-18532313D01*
X8282838Y-18427551D02*
X8292361Y-18408503D01*
X8311409Y-18398980D01*
X8339980Y-18398980D01*
X8359028Y-18408503D01*
X8368552Y-18427551D01*
X8368552Y-18532313D01*
X8463790Y-18532313D02*
X8463790Y-18398980D01*
X8463790Y-18418027D02*
X8473314Y-18408503D01*
X8492362Y-18398980D01*
X8520933Y-18398980D01*
X8539981Y-18408503D01*
X8549504Y-18427551D01*
X8549504Y-18532313D01*
X8549504Y-18427551D02*
X8559028Y-18408503D01*
X8578076Y-18398980D01*
X8606647Y-18398980D01*
X8625695Y-18408503D01*
X8635219Y-18427551D01*
X8635219Y-18532313D01*
X9025695Y-18322789D02*
X8854266Y-18579932D01*
X9282838Y-18332313D02*
X9301885Y-18332313D01*
X9320933Y-18341837D01*
X9330457Y-18351361D01*
X9339981Y-18370408D01*
X9349504Y-18408503D01*
X9349504Y-18456122D01*
X9339981Y-18494218D01*
X9330457Y-18513265D01*
X9320933Y-18522789D01*
X9301885Y-18532313D01*
X9282838Y-18532313D01*
X9263790Y-18522789D01*
X9254266Y-18513265D01*
X9244742Y-18494218D01*
X9235219Y-18456122D01*
X9235219Y-18408503D01*
X9244742Y-18370408D01*
X9254266Y-18351361D01*
X9263790Y-18341837D01*
X9282838Y-18332313D01*
X9435219Y-18513265D02*
X9444742Y-18522789D01*
X9435219Y-18532313D01*
X9425695Y-18522789D01*
X9435219Y-18513265D01*
X9435219Y-18532313D01*
X9568552Y-18332313D02*
X9587600Y-18332313D01*
X9606647Y-18341837D01*
X9616171Y-18351361D01*
X9625695Y-18370408D01*
X9635219Y-18408503D01*
X9635219Y-18456122D01*
X9625695Y-18494218D01*
X9616171Y-18513265D01*
X9606647Y-18522789D01*
X9587600Y-18532313D01*
X9568552Y-18532313D01*
X9549504Y-18522789D01*
X9539981Y-18513265D01*
X9530457Y-18494218D01*
X9520933Y-18456122D01*
X9520933Y-18408503D01*
X9530457Y-18370408D01*
X9539981Y-18351361D01*
X9549504Y-18341837D01*
X9568552Y-18332313D01*
X9711409Y-18351361D02*
X9720933Y-18341837D01*
X9739981Y-18332313D01*
X9787600Y-18332313D01*
X9806647Y-18341837D01*
X9816171Y-18351361D01*
X9825695Y-18370408D01*
X9825695Y-18389456D01*
X9816171Y-18418027D01*
X9701885Y-18532313D01*
X9825695Y-18532313D01*
X9920933Y-18532313D02*
X9959028Y-18532313D01*
X9978076Y-18522789D01*
X9987600Y-18513265D01*
X10006647Y-18484694D01*
X10016171Y-18446599D01*
X10016171Y-18370408D01*
X10006647Y-18351361D01*
X9997123Y-18341837D01*
X9978076Y-18332313D01*
X9939981Y-18332313D01*
X9920933Y-18341837D01*
X9911409Y-18351361D01*
X9901885Y-18370408D01*
X9901885Y-18418027D01*
X9911409Y-18437075D01*
X9920933Y-18446599D01*
X9939981Y-18456122D01*
X9978076Y-18456122D01*
X9997123Y-18446599D01*
X10006647Y-18437075D01*
X10016171Y-18418027D01*
X10197123Y-18332313D02*
X10101885Y-18332313D01*
X10092361Y-18427551D01*
X10101885Y-18418027D01*
X10120933Y-18408503D01*
X10168552Y-18408503D01*
X10187600Y-18418027D01*
X10197123Y-18427551D01*
X10206647Y-18446599D01*
X10206647Y-18494218D01*
X10197123Y-18513265D01*
X10187600Y-18522789D01*
X10168552Y-18532313D01*
X10120933Y-18532313D01*
X10101885Y-18522789D01*
X10092361Y-18513265D01*
X10282838Y-18332313D02*
X10282838Y-18370408D01*
X10359028Y-18332313D02*
X10359028Y-18370408D01*
X10654266Y-18608503D02*
X10644742Y-18598980D01*
X10625695Y-18570408D01*
X10616171Y-18551361D01*
X10606647Y-18522789D01*
X10597123Y-18475170D01*
X10597123Y-18437075D01*
X10606647Y-18389456D01*
X10616171Y-18360884D01*
X10625695Y-18341837D01*
X10644742Y-18313265D01*
X10654266Y-18303741D01*
X10720933Y-18351361D02*
X10730457Y-18341837D01*
X10749504Y-18332313D01*
X10797123Y-18332313D01*
X10816171Y-18341837D01*
X10825695Y-18351361D01*
X10835219Y-18370408D01*
X10835219Y-18389456D01*
X10825695Y-18418027D01*
X10711409Y-18532313D01*
X10835219Y-18532313D01*
X11073314Y-18532313D02*
X11073314Y-18332313D01*
X11159028Y-18532313D02*
X11159028Y-18427551D01*
X11149504Y-18408503D01*
X11130457Y-18398980D01*
X11101885Y-18398980D01*
X11082838Y-18408503D01*
X11073314Y-18418027D01*
X11282838Y-18532313D02*
X11263790Y-18522789D01*
X11254266Y-18513265D01*
X11244742Y-18494218D01*
X11244742Y-18437075D01*
X11254266Y-18418027D01*
X11263790Y-18408503D01*
X11282838Y-18398980D01*
X11311409Y-18398980D01*
X11330457Y-18408503D01*
X11339980Y-18418027D01*
X11349504Y-18437075D01*
X11349504Y-18494218D01*
X11339980Y-18513265D01*
X11330457Y-18522789D01*
X11311409Y-18532313D01*
X11282838Y-18532313D01*
X11463790Y-18532313D02*
X11444742Y-18522789D01*
X11435219Y-18503741D01*
X11435219Y-18332313D01*
X11616171Y-18522789D02*
X11597123Y-18532313D01*
X11559028Y-18532313D01*
X11539980Y-18522789D01*
X11530457Y-18503741D01*
X11530457Y-18427551D01*
X11539980Y-18408503D01*
X11559028Y-18398980D01*
X11597123Y-18398980D01*
X11616171Y-18408503D01*
X11625695Y-18427551D01*
X11625695Y-18446599D01*
X11530457Y-18465646D01*
X11701885Y-18522789D02*
X11720933Y-18532313D01*
X11759028Y-18532313D01*
X11778076Y-18522789D01*
X11787599Y-18503741D01*
X11787599Y-18494218D01*
X11778076Y-18475170D01*
X11759028Y-18465646D01*
X11730457Y-18465646D01*
X11711409Y-18456122D01*
X11701885Y-18437075D01*
X11701885Y-18427551D01*
X11711409Y-18408503D01*
X11730457Y-18398980D01*
X11759028Y-18398980D01*
X11778076Y-18408503D01*
X11854266Y-18608503D02*
X11863790Y-18598980D01*
X11882838Y-18570408D01*
X11892361Y-18551361D01*
X11901885Y-18522789D01*
X11911409Y-18475170D01*
X11911409Y-18437075D01*
X11901885Y-18389456D01*
X11892361Y-18360884D01*
X11882838Y-18341837D01*
X11863790Y-18313265D01*
X11854266Y-18303741D01*
D18*
X7001081Y-18665197D02*
X7082361Y-18746477D01*
X7082361Y-18665197D02*
X7001081Y-18746477D01*
X7082361Y-18705837D02*
G75*
G03*
X7082361Y-18705837I-40640J0D01*
G01*
D13*
X7378076Y-18596313D02*
X7397123Y-18596313D01*
X7416171Y-18605837D01*
X7425695Y-18615361D01*
X7435219Y-18634408D01*
X7444742Y-18672503D01*
X7444742Y-18720122D01*
X7435219Y-18758218D01*
X7425695Y-18777265D01*
X7416171Y-18786789D01*
X7397123Y-18796313D01*
X7378076Y-18796313D01*
X7359028Y-18786789D01*
X7349504Y-18777265D01*
X7339980Y-18758218D01*
X7330457Y-18720122D01*
X7330457Y-18672503D01*
X7339980Y-18634408D01*
X7349504Y-18615361D01*
X7359028Y-18605837D01*
X7378076Y-18596313D01*
X7530457Y-18777265D02*
X7539980Y-18786789D01*
X7530457Y-18796313D01*
X7520933Y-18786789D01*
X7530457Y-18777265D01*
X7530457Y-18796313D01*
X7654266Y-18682027D02*
X7635219Y-18672503D01*
X7625695Y-18662980D01*
X7616171Y-18643932D01*
X7616171Y-18634408D01*
X7625695Y-18615361D01*
X7635219Y-18605837D01*
X7654266Y-18596313D01*
X7692361Y-18596313D01*
X7711409Y-18605837D01*
X7720933Y-18615361D01*
X7730457Y-18634408D01*
X7730457Y-18643932D01*
X7720933Y-18662980D01*
X7711409Y-18672503D01*
X7692361Y-18682027D01*
X7654266Y-18682027D01*
X7635219Y-18691551D01*
X7625695Y-18701075D01*
X7616171Y-18720122D01*
X7616171Y-18758218D01*
X7625695Y-18777265D01*
X7635219Y-18786789D01*
X7654266Y-18796313D01*
X7692361Y-18796313D01*
X7711409Y-18786789D01*
X7720933Y-18777265D01*
X7730457Y-18758218D01*
X7730457Y-18720122D01*
X7720933Y-18701075D01*
X7711409Y-18691551D01*
X7692361Y-18682027D01*
X7920933Y-18796313D02*
X7806647Y-18796313D01*
X7863790Y-18796313D02*
X7863790Y-18596313D01*
X7844742Y-18624884D01*
X7825695Y-18643932D01*
X7806647Y-18653456D01*
X7987599Y-18596313D02*
X8111409Y-18596313D01*
X8044742Y-18672503D01*
X8073314Y-18672503D01*
X8092361Y-18682027D01*
X8101885Y-18691551D01*
X8111409Y-18710599D01*
X8111409Y-18758218D01*
X8101885Y-18777265D01*
X8092361Y-18786789D01*
X8073314Y-18796313D01*
X8016171Y-18796313D01*
X7997123Y-18786789D01*
X7987599Y-18777265D01*
X8197123Y-18796313D02*
X8197123Y-18662980D01*
X8197123Y-18682027D02*
X8206647Y-18672503D01*
X8225695Y-18662980D01*
X8254266Y-18662980D01*
X8273314Y-18672503D01*
X8282838Y-18691551D01*
X8282838Y-18796313D01*
X8282838Y-18691551D02*
X8292361Y-18672503D01*
X8311409Y-18662980D01*
X8339980Y-18662980D01*
X8359028Y-18672503D01*
X8368552Y-18691551D01*
X8368552Y-18796313D01*
X8463790Y-18796313D02*
X8463790Y-18662980D01*
X8463790Y-18682027D02*
X8473314Y-18672503D01*
X8492362Y-18662980D01*
X8520933Y-18662980D01*
X8539981Y-18672503D01*
X8549504Y-18691551D01*
X8549504Y-18796313D01*
X8549504Y-18691551D02*
X8559028Y-18672503D01*
X8578076Y-18662980D01*
X8606647Y-18662980D01*
X8625695Y-18672503D01*
X8635219Y-18691551D01*
X8635219Y-18796313D01*
X9025695Y-18586789D02*
X8854266Y-18843932D01*
X9282838Y-18596313D02*
X9301885Y-18596313D01*
X9320933Y-18605837D01*
X9330457Y-18615361D01*
X9339981Y-18634408D01*
X9349504Y-18672503D01*
X9349504Y-18720122D01*
X9339981Y-18758218D01*
X9330457Y-18777265D01*
X9320933Y-18786789D01*
X9301885Y-18796313D01*
X9282838Y-18796313D01*
X9263790Y-18786789D01*
X9254266Y-18777265D01*
X9244742Y-18758218D01*
X9235219Y-18720122D01*
X9235219Y-18672503D01*
X9244742Y-18634408D01*
X9254266Y-18615361D01*
X9263790Y-18605837D01*
X9282838Y-18596313D01*
X9435219Y-18777265D02*
X9444742Y-18786789D01*
X9435219Y-18796313D01*
X9425695Y-18786789D01*
X9435219Y-18777265D01*
X9435219Y-18796313D01*
X9568552Y-18596313D02*
X9587600Y-18596313D01*
X9606647Y-18605837D01*
X9616171Y-18615361D01*
X9625695Y-18634408D01*
X9635219Y-18672503D01*
X9635219Y-18720122D01*
X9625695Y-18758218D01*
X9616171Y-18777265D01*
X9606647Y-18786789D01*
X9587600Y-18796313D01*
X9568552Y-18796313D01*
X9549504Y-18786789D01*
X9539981Y-18777265D01*
X9530457Y-18758218D01*
X9520933Y-18720122D01*
X9520933Y-18672503D01*
X9530457Y-18634408D01*
X9539981Y-18615361D01*
X9549504Y-18605837D01*
X9568552Y-18596313D01*
X9701885Y-18596313D02*
X9825695Y-18596313D01*
X9759028Y-18672503D01*
X9787600Y-18672503D01*
X9806647Y-18682027D01*
X9816171Y-18691551D01*
X9825695Y-18710599D01*
X9825695Y-18758218D01*
X9816171Y-18777265D01*
X9806647Y-18786789D01*
X9787600Y-18796313D01*
X9730457Y-18796313D01*
X9711409Y-18786789D01*
X9701885Y-18777265D01*
X9901885Y-18615361D02*
X9911409Y-18605837D01*
X9930457Y-18596313D01*
X9978076Y-18596313D01*
X9997123Y-18605837D01*
X10006647Y-18615361D01*
X10016171Y-18634408D01*
X10016171Y-18653456D01*
X10006647Y-18682027D01*
X9892362Y-18796313D01*
X10016171Y-18796313D01*
X10139981Y-18596313D02*
X10159028Y-18596313D01*
X10178076Y-18605837D01*
X10187600Y-18615361D01*
X10197123Y-18634408D01*
X10206647Y-18672503D01*
X10206647Y-18720122D01*
X10197123Y-18758218D01*
X10187600Y-18777265D01*
X10178076Y-18786789D01*
X10159028Y-18796313D01*
X10139981Y-18796313D01*
X10120933Y-18786789D01*
X10111409Y-18777265D01*
X10101885Y-18758218D01*
X10092361Y-18720122D01*
X10092361Y-18672503D01*
X10101885Y-18634408D01*
X10111409Y-18615361D01*
X10120933Y-18605837D01*
X10139981Y-18596313D01*
X10282838Y-18596313D02*
X10282838Y-18634408D01*
X10359028Y-18596313D02*
X10359028Y-18634408D01*
X10654266Y-18872503D02*
X10644742Y-18862980D01*
X10625695Y-18834408D01*
X10616171Y-18815361D01*
X10606647Y-18786789D01*
X10597123Y-18739170D01*
X10597123Y-18701075D01*
X10606647Y-18653456D01*
X10616171Y-18624884D01*
X10625695Y-18605837D01*
X10644742Y-18577265D01*
X10654266Y-18567741D01*
X10816171Y-18662980D02*
X10816171Y-18796313D01*
X10768552Y-18586789D02*
X10720933Y-18729646D01*
X10844742Y-18729646D01*
X10949504Y-18682027D02*
X10930457Y-18672503D01*
X10920933Y-18662980D01*
X10911409Y-18643932D01*
X10911409Y-18634408D01*
X10920933Y-18615361D01*
X10930457Y-18605837D01*
X10949504Y-18596313D01*
X10987600Y-18596313D01*
X11006647Y-18605837D01*
X11016171Y-18615361D01*
X11025695Y-18634408D01*
X11025695Y-18643932D01*
X11016171Y-18662980D01*
X11006647Y-18672503D01*
X10987600Y-18682027D01*
X10949504Y-18682027D01*
X10930457Y-18691551D01*
X10920933Y-18701075D01*
X10911409Y-18720122D01*
X10911409Y-18758218D01*
X10920933Y-18777265D01*
X10930457Y-18786789D01*
X10949504Y-18796313D01*
X10987600Y-18796313D01*
X11006647Y-18786789D01*
X11016171Y-18777265D01*
X11025695Y-18758218D01*
X11025695Y-18720122D01*
X11016171Y-18701075D01*
X11006647Y-18691551D01*
X10987600Y-18682027D01*
X11263790Y-18796313D02*
X11263790Y-18596313D01*
X11349504Y-18796313D02*
X11349504Y-18691551D01*
X11339980Y-18672503D01*
X11320933Y-18662980D01*
X11292361Y-18662980D01*
X11273314Y-18672503D01*
X11263790Y-18682027D01*
X11473314Y-18796313D02*
X11454266Y-18786789D01*
X11444742Y-18777265D01*
X11435219Y-18758218D01*
X11435219Y-18701075D01*
X11444742Y-18682027D01*
X11454266Y-18672503D01*
X11473314Y-18662980D01*
X11501885Y-18662980D01*
X11520933Y-18672503D01*
X11530457Y-18682027D01*
X11539980Y-18701075D01*
X11539980Y-18758218D01*
X11530457Y-18777265D01*
X11520933Y-18786789D01*
X11501885Y-18796313D01*
X11473314Y-18796313D01*
X11654266Y-18796313D02*
X11635219Y-18786789D01*
X11625695Y-18767741D01*
X11625695Y-18596313D01*
X11806647Y-18786789D02*
X11787599Y-18796313D01*
X11749504Y-18796313D01*
X11730457Y-18786789D01*
X11720933Y-18767741D01*
X11720933Y-18691551D01*
X11730457Y-18672503D01*
X11749504Y-18662980D01*
X11787599Y-18662980D01*
X11806647Y-18672503D01*
X11816171Y-18691551D01*
X11816171Y-18710599D01*
X11720933Y-18729646D01*
X11892361Y-18786789D02*
X11911409Y-18796313D01*
X11949504Y-18796313D01*
X11968552Y-18786789D01*
X11978076Y-18767741D01*
X11978076Y-18758218D01*
X11968552Y-18739170D01*
X11949504Y-18729646D01*
X11920933Y-18729646D01*
X11901885Y-18720122D01*
X11892361Y-18701075D01*
X11892361Y-18691551D01*
X11901885Y-18672503D01*
X11920933Y-18662980D01*
X11949504Y-18662980D01*
X11968552Y-18672503D01*
X12044742Y-18872503D02*
X12054266Y-18862980D01*
X12073314Y-18834408D01*
X12082838Y-18815361D01*
X12092361Y-18786789D01*
X12101885Y-18739170D01*
X12101885Y-18701075D01*
X12092361Y-18653456D01*
X12082838Y-18624884D01*
X12073314Y-18605837D01*
X12054266Y-18577265D01*
X12044742Y-18567741D01*
D19*
X6997361Y-18927337D02*
X7082361Y-19012337D01*
X7082361Y-18927337D02*
X6997361Y-19012337D01*
X7039861Y-18927337D02*
X7039861Y-19012337D01*
X6997361Y-18969837D02*
X7082361Y-18969837D01*
D13*
X7378076Y-18860313D02*
X7397123Y-18860313D01*
X7416171Y-18869837D01*
X7425695Y-18879361D01*
X7435219Y-18898408D01*
X7444742Y-18936503D01*
X7444742Y-18984122D01*
X7435219Y-19022218D01*
X7425695Y-19041265D01*
X7416171Y-19050789D01*
X7397123Y-19060313D01*
X7378076Y-19060313D01*
X7359028Y-19050789D01*
X7349504Y-19041265D01*
X7339980Y-19022218D01*
X7330457Y-18984122D01*
X7330457Y-18936503D01*
X7339980Y-18898408D01*
X7349504Y-18879361D01*
X7359028Y-18869837D01*
X7378076Y-18860313D01*
X7530457Y-19041265D02*
X7539980Y-19050789D01*
X7530457Y-19060313D01*
X7520933Y-19050789D01*
X7530457Y-19041265D01*
X7530457Y-19060313D01*
X7654266Y-18946027D02*
X7635219Y-18936503D01*
X7625695Y-18926980D01*
X7616171Y-18907932D01*
X7616171Y-18898408D01*
X7625695Y-18879361D01*
X7635219Y-18869837D01*
X7654266Y-18860313D01*
X7692361Y-18860313D01*
X7711409Y-18869837D01*
X7720933Y-18879361D01*
X7730457Y-18898408D01*
X7730457Y-18907932D01*
X7720933Y-18926980D01*
X7711409Y-18936503D01*
X7692361Y-18946027D01*
X7654266Y-18946027D01*
X7635219Y-18955551D01*
X7625695Y-18965075D01*
X7616171Y-18984122D01*
X7616171Y-19022218D01*
X7625695Y-19041265D01*
X7635219Y-19050789D01*
X7654266Y-19060313D01*
X7692361Y-19060313D01*
X7711409Y-19050789D01*
X7720933Y-19041265D01*
X7730457Y-19022218D01*
X7730457Y-18984122D01*
X7720933Y-18965075D01*
X7711409Y-18955551D01*
X7692361Y-18946027D01*
X7911409Y-18860313D02*
X7816171Y-18860313D01*
X7806647Y-18955551D01*
X7816171Y-18946027D01*
X7835219Y-18936503D01*
X7882838Y-18936503D01*
X7901885Y-18946027D01*
X7911409Y-18955551D01*
X7920933Y-18974599D01*
X7920933Y-19022218D01*
X7911409Y-19041265D01*
X7901885Y-19050789D01*
X7882838Y-19060313D01*
X7835219Y-19060313D01*
X7816171Y-19050789D01*
X7806647Y-19041265D01*
X8044742Y-18860313D02*
X8063790Y-18860313D01*
X8082838Y-18869837D01*
X8092361Y-18879361D01*
X8101885Y-18898408D01*
X8111409Y-18936503D01*
X8111409Y-18984122D01*
X8101885Y-19022218D01*
X8092361Y-19041265D01*
X8082838Y-19050789D01*
X8063790Y-19060313D01*
X8044742Y-19060313D01*
X8025695Y-19050789D01*
X8016171Y-19041265D01*
X8006647Y-19022218D01*
X7997123Y-18984122D01*
X7997123Y-18936503D01*
X8006647Y-18898408D01*
X8016171Y-18879361D01*
X8025695Y-18869837D01*
X8044742Y-18860313D01*
X8197123Y-19060313D02*
X8197123Y-18926980D01*
X8197123Y-18946027D02*
X8206647Y-18936503D01*
X8225695Y-18926980D01*
X8254266Y-18926980D01*
X8273314Y-18936503D01*
X8282838Y-18955551D01*
X8282838Y-19060313D01*
X8282838Y-18955551D02*
X8292361Y-18936503D01*
X8311409Y-18926980D01*
X8339980Y-18926980D01*
X8359028Y-18936503D01*
X8368552Y-18955551D01*
X8368552Y-19060313D01*
X8463790Y-19060313D02*
X8463790Y-18926980D01*
X8463790Y-18946027D02*
X8473314Y-18936503D01*
X8492362Y-18926980D01*
X8520933Y-18926980D01*
X8539981Y-18936503D01*
X8549504Y-18955551D01*
X8549504Y-19060313D01*
X8549504Y-18955551D02*
X8559028Y-18936503D01*
X8578076Y-18926980D01*
X8606647Y-18926980D01*
X8625695Y-18936503D01*
X8635219Y-18955551D01*
X8635219Y-19060313D01*
X9025695Y-18850789D02*
X8854266Y-19107932D01*
X9282838Y-18860313D02*
X9301885Y-18860313D01*
X9320933Y-18869837D01*
X9330457Y-18879361D01*
X9339981Y-18898408D01*
X9349504Y-18936503D01*
X9349504Y-18984122D01*
X9339981Y-19022218D01*
X9330457Y-19041265D01*
X9320933Y-19050789D01*
X9301885Y-19060313D01*
X9282838Y-19060313D01*
X9263790Y-19050789D01*
X9254266Y-19041265D01*
X9244742Y-19022218D01*
X9235219Y-18984122D01*
X9235219Y-18936503D01*
X9244742Y-18898408D01*
X9254266Y-18879361D01*
X9263790Y-18869837D01*
X9282838Y-18860313D01*
X9435219Y-19041265D02*
X9444742Y-19050789D01*
X9435219Y-19060313D01*
X9425695Y-19050789D01*
X9435219Y-19041265D01*
X9435219Y-19060313D01*
X9568552Y-18860313D02*
X9587600Y-18860313D01*
X9606647Y-18869837D01*
X9616171Y-18879361D01*
X9625695Y-18898408D01*
X9635219Y-18936503D01*
X9635219Y-18984122D01*
X9625695Y-19022218D01*
X9616171Y-19041265D01*
X9606647Y-19050789D01*
X9587600Y-19060313D01*
X9568552Y-19060313D01*
X9549504Y-19050789D01*
X9539981Y-19041265D01*
X9530457Y-19022218D01*
X9520933Y-18984122D01*
X9520933Y-18936503D01*
X9530457Y-18898408D01*
X9539981Y-18879361D01*
X9549504Y-18869837D01*
X9568552Y-18860313D01*
X9701885Y-18860313D02*
X9825695Y-18860313D01*
X9759028Y-18936503D01*
X9787600Y-18936503D01*
X9806647Y-18946027D01*
X9816171Y-18955551D01*
X9825695Y-18974599D01*
X9825695Y-19022218D01*
X9816171Y-19041265D01*
X9806647Y-19050789D01*
X9787600Y-19060313D01*
X9730457Y-19060313D01*
X9711409Y-19050789D01*
X9701885Y-19041265D01*
X9892362Y-18860313D02*
X10016171Y-18860313D01*
X9949504Y-18936503D01*
X9978076Y-18936503D01*
X9997123Y-18946027D01*
X10006647Y-18955551D01*
X10016171Y-18974599D01*
X10016171Y-19022218D01*
X10006647Y-19041265D01*
X9997123Y-19050789D01*
X9978076Y-19060313D01*
X9920933Y-19060313D01*
X9901885Y-19050789D01*
X9892362Y-19041265D01*
X10197123Y-18860313D02*
X10101885Y-18860313D01*
X10092361Y-18955551D01*
X10101885Y-18946027D01*
X10120933Y-18936503D01*
X10168552Y-18936503D01*
X10187600Y-18946027D01*
X10197123Y-18955551D01*
X10206647Y-18974599D01*
X10206647Y-19022218D01*
X10197123Y-19041265D01*
X10187600Y-19050789D01*
X10168552Y-19060313D01*
X10120933Y-19060313D01*
X10101885Y-19050789D01*
X10092361Y-19041265D01*
X10282838Y-18860313D02*
X10282838Y-18898408D01*
X10359028Y-18860313D02*
X10359028Y-18898408D01*
X10654266Y-19136503D02*
X10644742Y-19126980D01*
X10625695Y-19098408D01*
X10616171Y-19079361D01*
X10606647Y-19050789D01*
X10597123Y-19003170D01*
X10597123Y-18965075D01*
X10606647Y-18917456D01*
X10616171Y-18888884D01*
X10625695Y-18869837D01*
X10644742Y-18841265D01*
X10654266Y-18831741D01*
X10825695Y-18860313D02*
X10730457Y-18860313D01*
X10720933Y-18955551D01*
X10730457Y-18946027D01*
X10749504Y-18936503D01*
X10797123Y-18936503D01*
X10816171Y-18946027D01*
X10825695Y-18955551D01*
X10835219Y-18974599D01*
X10835219Y-19022218D01*
X10825695Y-19041265D01*
X10816171Y-19050789D01*
X10797123Y-19060313D01*
X10749504Y-19060313D01*
X10730457Y-19050789D01*
X10720933Y-19041265D01*
X11073314Y-19060313D02*
X11073314Y-18860313D01*
X11159028Y-19060313D02*
X11159028Y-18955551D01*
X11149504Y-18936503D01*
X11130457Y-18926980D01*
X11101885Y-18926980D01*
X11082838Y-18936503D01*
X11073314Y-18946027D01*
X11282838Y-19060313D02*
X11263790Y-19050789D01*
X11254266Y-19041265D01*
X11244742Y-19022218D01*
X11244742Y-18965075D01*
X11254266Y-18946027D01*
X11263790Y-18936503D01*
X11282838Y-18926980D01*
X11311409Y-18926980D01*
X11330457Y-18936503D01*
X11339980Y-18946027D01*
X11349504Y-18965075D01*
X11349504Y-19022218D01*
X11339980Y-19041265D01*
X11330457Y-19050789D01*
X11311409Y-19060313D01*
X11282838Y-19060313D01*
X11463790Y-19060313D02*
X11444742Y-19050789D01*
X11435219Y-19031741D01*
X11435219Y-18860313D01*
X11616171Y-19050789D02*
X11597123Y-19060313D01*
X11559028Y-19060313D01*
X11539980Y-19050789D01*
X11530457Y-19031741D01*
X11530457Y-18955551D01*
X11539980Y-18936503D01*
X11559028Y-18926980D01*
X11597123Y-18926980D01*
X11616171Y-18936503D01*
X11625695Y-18955551D01*
X11625695Y-18974599D01*
X11530457Y-18993646D01*
X11701885Y-19050789D02*
X11720933Y-19060313D01*
X11759028Y-19060313D01*
X11778076Y-19050789D01*
X11787599Y-19031741D01*
X11787599Y-19022218D01*
X11778076Y-19003170D01*
X11759028Y-18993646D01*
X11730457Y-18993646D01*
X11711409Y-18984122D01*
X11701885Y-18965075D01*
X11701885Y-18955551D01*
X11711409Y-18936503D01*
X11730457Y-18926980D01*
X11759028Y-18926980D01*
X11778076Y-18936503D01*
X11854266Y-19136503D02*
X11863790Y-19126980D01*
X11882838Y-19098408D01*
X11892361Y-19079361D01*
X11901885Y-19050789D01*
X11911409Y-19003170D01*
X11911409Y-18965075D01*
X11901885Y-18917456D01*
X11892361Y-18888884D01*
X11882838Y-18869837D01*
X11863790Y-18841265D01*
X11854266Y-18831741D01*
D20*
X6982361Y-19183837D02*
X7082361Y-19283837D01*
X7082361Y-19183837D02*
X6982361Y-19283837D01*
X7067717Y-19269192D02*
X7067717Y-19198481D01*
X6997006Y-19198481D01*
X6997006Y-19269192D01*
X7067717Y-19269192D01*
D13*
X7444742Y-19324313D02*
X7330457Y-19324313D01*
X7387599Y-19324313D02*
X7387599Y-19124313D01*
X7368552Y-19152884D01*
X7349504Y-19171932D01*
X7330457Y-19181456D01*
X7530457Y-19305265D02*
X7539980Y-19314789D01*
X7530457Y-19324313D01*
X7520933Y-19314789D01*
X7530457Y-19305265D01*
X7530457Y-19324313D01*
X7663790Y-19124313D02*
X7682838Y-19124313D01*
X7701885Y-19133837D01*
X7711409Y-19143361D01*
X7720933Y-19162408D01*
X7730457Y-19200503D01*
X7730457Y-19248122D01*
X7720933Y-19286218D01*
X7711409Y-19305265D01*
X7701885Y-19314789D01*
X7682838Y-19324313D01*
X7663790Y-19324313D01*
X7644742Y-19314789D01*
X7635219Y-19305265D01*
X7625695Y-19286218D01*
X7616171Y-19248122D01*
X7616171Y-19200503D01*
X7625695Y-19162408D01*
X7635219Y-19143361D01*
X7644742Y-19133837D01*
X7663790Y-19124313D01*
X7854266Y-19124313D02*
X7873314Y-19124313D01*
X7892361Y-19133837D01*
X7901885Y-19143361D01*
X7911409Y-19162408D01*
X7920933Y-19200503D01*
X7920933Y-19248122D01*
X7911409Y-19286218D01*
X7901885Y-19305265D01*
X7892361Y-19314789D01*
X7873314Y-19324313D01*
X7854266Y-19324313D01*
X7835219Y-19314789D01*
X7825695Y-19305265D01*
X7816171Y-19286218D01*
X7806647Y-19248122D01*
X7806647Y-19200503D01*
X7816171Y-19162408D01*
X7825695Y-19143361D01*
X7835219Y-19133837D01*
X7854266Y-19124313D01*
X8044742Y-19124313D02*
X8063790Y-19124313D01*
X8082838Y-19133837D01*
X8092361Y-19143361D01*
X8101885Y-19162408D01*
X8111409Y-19200503D01*
X8111409Y-19248122D01*
X8101885Y-19286218D01*
X8092361Y-19305265D01*
X8082838Y-19314789D01*
X8063790Y-19324313D01*
X8044742Y-19324313D01*
X8025695Y-19314789D01*
X8016171Y-19305265D01*
X8006647Y-19286218D01*
X7997123Y-19248122D01*
X7997123Y-19200503D01*
X8006647Y-19162408D01*
X8016171Y-19143361D01*
X8025695Y-19133837D01*
X8044742Y-19124313D01*
X8197123Y-19324313D02*
X8197123Y-19190980D01*
X8197123Y-19210027D02*
X8206647Y-19200503D01*
X8225695Y-19190980D01*
X8254266Y-19190980D01*
X8273314Y-19200503D01*
X8282838Y-19219551D01*
X8282838Y-19324313D01*
X8282838Y-19219551D02*
X8292361Y-19200503D01*
X8311409Y-19190980D01*
X8339980Y-19190980D01*
X8359028Y-19200503D01*
X8368552Y-19219551D01*
X8368552Y-19324313D01*
X8463790Y-19324313D02*
X8463790Y-19190980D01*
X8463790Y-19210027D02*
X8473314Y-19200503D01*
X8492362Y-19190980D01*
X8520933Y-19190980D01*
X8539981Y-19200503D01*
X8549504Y-19219551D01*
X8549504Y-19324313D01*
X8549504Y-19219551D02*
X8559028Y-19200503D01*
X8578076Y-19190980D01*
X8606647Y-19190980D01*
X8625695Y-19200503D01*
X8635219Y-19219551D01*
X8635219Y-19324313D01*
X9025695Y-19114789D02*
X8854266Y-19371932D01*
X9282838Y-19124313D02*
X9301885Y-19124313D01*
X9320933Y-19133837D01*
X9330457Y-19143361D01*
X9339981Y-19162408D01*
X9349504Y-19200503D01*
X9349504Y-19248122D01*
X9339981Y-19286218D01*
X9330457Y-19305265D01*
X9320933Y-19314789D01*
X9301885Y-19324313D01*
X9282838Y-19324313D01*
X9263790Y-19314789D01*
X9254266Y-19305265D01*
X9244742Y-19286218D01*
X9235219Y-19248122D01*
X9235219Y-19200503D01*
X9244742Y-19162408D01*
X9254266Y-19143361D01*
X9263790Y-19133837D01*
X9282838Y-19124313D01*
X9435219Y-19305265D02*
X9444742Y-19314789D01*
X9435219Y-19324313D01*
X9425695Y-19314789D01*
X9435219Y-19305265D01*
X9435219Y-19324313D01*
X9568552Y-19124313D02*
X9587600Y-19124313D01*
X9606647Y-19133837D01*
X9616171Y-19143361D01*
X9625695Y-19162408D01*
X9635219Y-19200503D01*
X9635219Y-19248122D01*
X9625695Y-19286218D01*
X9616171Y-19305265D01*
X9606647Y-19314789D01*
X9587600Y-19324313D01*
X9568552Y-19324313D01*
X9549504Y-19314789D01*
X9539981Y-19305265D01*
X9530457Y-19286218D01*
X9520933Y-19248122D01*
X9520933Y-19200503D01*
X9530457Y-19162408D01*
X9539981Y-19143361D01*
X9549504Y-19133837D01*
X9568552Y-19124313D01*
X9701885Y-19124313D02*
X9825695Y-19124313D01*
X9759028Y-19200503D01*
X9787600Y-19200503D01*
X9806647Y-19210027D01*
X9816171Y-19219551D01*
X9825695Y-19238599D01*
X9825695Y-19286218D01*
X9816171Y-19305265D01*
X9806647Y-19314789D01*
X9787600Y-19324313D01*
X9730457Y-19324313D01*
X9711409Y-19314789D01*
X9701885Y-19305265D01*
X9920933Y-19324313D02*
X9959028Y-19324313D01*
X9978076Y-19314789D01*
X9987600Y-19305265D01*
X10006647Y-19276694D01*
X10016171Y-19238599D01*
X10016171Y-19162408D01*
X10006647Y-19143361D01*
X9997123Y-19133837D01*
X9978076Y-19124313D01*
X9939981Y-19124313D01*
X9920933Y-19133837D01*
X9911409Y-19143361D01*
X9901885Y-19162408D01*
X9901885Y-19210027D01*
X9911409Y-19229075D01*
X9920933Y-19238599D01*
X9939981Y-19248122D01*
X9978076Y-19248122D01*
X9997123Y-19238599D01*
X10006647Y-19229075D01*
X10016171Y-19210027D01*
X10187600Y-19190980D02*
X10187600Y-19324313D01*
X10139981Y-19114789D02*
X10092361Y-19257646D01*
X10216171Y-19257646D01*
X10282838Y-19124313D02*
X10282838Y-19162408D01*
X10359028Y-19124313D02*
X10359028Y-19162408D01*
X10654266Y-19400503D02*
X10644742Y-19390980D01*
X10625695Y-19362408D01*
X10616171Y-19343361D01*
X10606647Y-19314789D01*
X10597123Y-19267170D01*
X10597123Y-19229075D01*
X10606647Y-19181456D01*
X10616171Y-19152884D01*
X10625695Y-19133837D01*
X10644742Y-19105265D01*
X10654266Y-19095741D01*
X10835219Y-19324313D02*
X10720933Y-19324313D01*
X10778076Y-19324313D02*
X10778076Y-19124313D01*
X10759028Y-19152884D01*
X10739981Y-19171932D01*
X10720933Y-19181456D01*
X11006647Y-19124313D02*
X10968552Y-19124313D01*
X10949504Y-19133837D01*
X10939981Y-19143361D01*
X10920933Y-19171932D01*
X10911409Y-19210027D01*
X10911409Y-19286218D01*
X10920933Y-19305265D01*
X10930457Y-19314789D01*
X10949504Y-19324313D01*
X10987600Y-19324313D01*
X11006647Y-19314789D01*
X11016171Y-19305265D01*
X11025695Y-19286218D01*
X11025695Y-19238599D01*
X11016171Y-19219551D01*
X11006647Y-19210027D01*
X10987600Y-19200503D01*
X10949504Y-19200503D01*
X10930457Y-19210027D01*
X10920933Y-19219551D01*
X10911409Y-19238599D01*
X11263790Y-19324313D02*
X11263790Y-19124313D01*
X11349504Y-19324313D02*
X11349504Y-19219551D01*
X11339980Y-19200503D01*
X11320933Y-19190980D01*
X11292361Y-19190980D01*
X11273314Y-19200503D01*
X11263790Y-19210027D01*
X11473314Y-19324313D02*
X11454266Y-19314789D01*
X11444742Y-19305265D01*
X11435219Y-19286218D01*
X11435219Y-19229075D01*
X11444742Y-19210027D01*
X11454266Y-19200503D01*
X11473314Y-19190980D01*
X11501885Y-19190980D01*
X11520933Y-19200503D01*
X11530457Y-19210027D01*
X11539980Y-19229075D01*
X11539980Y-19286218D01*
X11530457Y-19305265D01*
X11520933Y-19314789D01*
X11501885Y-19324313D01*
X11473314Y-19324313D01*
X11654266Y-19324313D02*
X11635219Y-19314789D01*
X11625695Y-19295741D01*
X11625695Y-19124313D01*
X11806647Y-19314789D02*
X11787599Y-19324313D01*
X11749504Y-19324313D01*
X11730457Y-19314789D01*
X11720933Y-19295741D01*
X11720933Y-19219551D01*
X11730457Y-19200503D01*
X11749504Y-19190980D01*
X11787599Y-19190980D01*
X11806647Y-19200503D01*
X11816171Y-19219551D01*
X11816171Y-19238599D01*
X11720933Y-19257646D01*
X11892361Y-19314789D02*
X11911409Y-19324313D01*
X11949504Y-19324313D01*
X11968552Y-19314789D01*
X11978076Y-19295741D01*
X11978076Y-19286218D01*
X11968552Y-19267170D01*
X11949504Y-19257646D01*
X11920933Y-19257646D01*
X11901885Y-19248122D01*
X11892361Y-19229075D01*
X11892361Y-19219551D01*
X11901885Y-19200503D01*
X11920933Y-19190980D01*
X11949504Y-19190980D01*
X11968552Y-19200503D01*
X12216171Y-19248122D02*
X12368552Y-19248122D01*
X12292361Y-19324313D02*
X12292361Y-19171932D01*
X12644742Y-19210027D02*
X12625695Y-19200503D01*
X12616171Y-19190980D01*
X12606647Y-19171932D01*
X12606647Y-19162408D01*
X12616171Y-19143361D01*
X12625695Y-19133837D01*
X12644742Y-19124313D01*
X12682838Y-19124313D01*
X12701885Y-19133837D01*
X12711409Y-19143361D01*
X12720933Y-19162408D01*
X12720933Y-19171932D01*
X12711409Y-19190980D01*
X12701885Y-19200503D01*
X12682838Y-19210027D01*
X12644742Y-19210027D01*
X12625695Y-19219551D01*
X12616171Y-19229075D01*
X12606647Y-19248122D01*
X12606647Y-19286218D01*
X12616171Y-19305265D01*
X12625695Y-19314789D01*
X12644742Y-19324313D01*
X12682838Y-19324313D01*
X12701885Y-19314789D01*
X12711409Y-19305265D01*
X12720933Y-19286218D01*
X12720933Y-19248122D01*
X12711409Y-19229075D01*
X12701885Y-19219551D01*
X12682838Y-19210027D01*
X12949504Y-19314789D02*
X12968552Y-19324313D01*
X13006647Y-19324313D01*
X13025695Y-19314789D01*
X13035219Y-19295741D01*
X13035219Y-19286218D01*
X13025695Y-19267170D01*
X13006647Y-19257646D01*
X12978076Y-19257646D01*
X12959028Y-19248122D01*
X12949504Y-19229075D01*
X12949504Y-19219551D01*
X12959028Y-19200503D01*
X12978076Y-19190980D01*
X13006647Y-19190980D01*
X13025695Y-19200503D01*
X13149504Y-19324313D02*
X13130457Y-19314789D01*
X13120933Y-19295741D01*
X13120933Y-19124313D01*
X13254266Y-19324313D02*
X13235219Y-19314789D01*
X13225695Y-19305265D01*
X13216171Y-19286218D01*
X13216171Y-19229075D01*
X13225695Y-19210027D01*
X13235219Y-19200503D01*
X13254266Y-19190980D01*
X13282838Y-19190980D01*
X13301885Y-19200503D01*
X13311409Y-19210027D01*
X13320933Y-19229075D01*
X13320933Y-19286218D01*
X13311409Y-19305265D01*
X13301885Y-19314789D01*
X13282838Y-19324313D01*
X13254266Y-19324313D01*
X13378076Y-19190980D02*
X13454266Y-19190980D01*
X13406647Y-19124313D02*
X13406647Y-19295741D01*
X13416171Y-19314789D01*
X13435219Y-19324313D01*
X13454266Y-19324313D01*
X13511409Y-19314789D02*
X13530457Y-19324313D01*
X13568552Y-19324313D01*
X13587599Y-19314789D01*
X13597123Y-19295741D01*
X13597123Y-19286218D01*
X13587599Y-19267170D01*
X13568552Y-19257646D01*
X13539980Y-19257646D01*
X13520933Y-19248122D01*
X13511409Y-19229075D01*
X13511409Y-19219551D01*
X13520933Y-19200503D01*
X13539980Y-19190980D01*
X13568552Y-19190980D01*
X13587599Y-19200503D01*
X13663790Y-19400503D02*
X13673314Y-19390980D01*
X13692361Y-19362408D01*
X13701885Y-19343361D01*
X13711409Y-19314789D01*
X13720933Y-19267170D01*
X13720933Y-19229075D01*
X13711409Y-19181456D01*
X13701885Y-19152884D01*
X13692361Y-19133837D01*
X13673314Y-19105265D01*
X13663790Y-19095741D01*
D21*
X6932361Y-19422837D02*
X7082361Y-19572837D01*
X7082361Y-19422837D02*
X6932361Y-19572837D01*
X7007361Y-19572837D02*
X7082361Y-19497837D01*
X7007361Y-19422837D01*
X6932361Y-19497837D01*
X7007361Y-19572837D01*
D13*
X7444742Y-19588313D02*
X7330457Y-19588313D01*
X7387599Y-19588313D02*
X7387599Y-19388313D01*
X7368552Y-19416884D01*
X7349504Y-19435932D01*
X7330457Y-19445456D01*
X7530457Y-19569265D02*
X7539980Y-19578789D01*
X7530457Y-19588313D01*
X7520933Y-19578789D01*
X7530457Y-19569265D01*
X7530457Y-19588313D01*
X7720933Y-19388313D02*
X7625695Y-19388313D01*
X7616171Y-19483551D01*
X7625695Y-19474027D01*
X7644742Y-19464503D01*
X7692361Y-19464503D01*
X7711409Y-19474027D01*
X7720933Y-19483551D01*
X7730457Y-19502599D01*
X7730457Y-19550218D01*
X7720933Y-19569265D01*
X7711409Y-19578789D01*
X7692361Y-19588313D01*
X7644742Y-19588313D01*
X7625695Y-19578789D01*
X7616171Y-19569265D01*
X7854266Y-19388313D02*
X7873314Y-19388313D01*
X7892361Y-19397837D01*
X7901885Y-19407361D01*
X7911409Y-19426408D01*
X7920933Y-19464503D01*
X7920933Y-19512122D01*
X7911409Y-19550218D01*
X7901885Y-19569265D01*
X7892361Y-19578789D01*
X7873314Y-19588313D01*
X7854266Y-19588313D01*
X7835219Y-19578789D01*
X7825695Y-19569265D01*
X7816171Y-19550218D01*
X7806647Y-19512122D01*
X7806647Y-19464503D01*
X7816171Y-19426408D01*
X7825695Y-19407361D01*
X7835219Y-19397837D01*
X7854266Y-19388313D01*
X8044742Y-19388313D02*
X8063790Y-19388313D01*
X8082838Y-19397837D01*
X8092361Y-19407361D01*
X8101885Y-19426408D01*
X8111409Y-19464503D01*
X8111409Y-19512122D01*
X8101885Y-19550218D01*
X8092361Y-19569265D01*
X8082838Y-19578789D01*
X8063790Y-19588313D01*
X8044742Y-19588313D01*
X8025695Y-19578789D01*
X8016171Y-19569265D01*
X8006647Y-19550218D01*
X7997123Y-19512122D01*
X7997123Y-19464503D01*
X8006647Y-19426408D01*
X8016171Y-19407361D01*
X8025695Y-19397837D01*
X8044742Y-19388313D01*
X8197123Y-19588313D02*
X8197123Y-19454980D01*
X8197123Y-19474027D02*
X8206647Y-19464503D01*
X8225695Y-19454980D01*
X8254266Y-19454980D01*
X8273314Y-19464503D01*
X8282838Y-19483551D01*
X8282838Y-19588313D01*
X8282838Y-19483551D02*
X8292361Y-19464503D01*
X8311409Y-19454980D01*
X8339980Y-19454980D01*
X8359028Y-19464503D01*
X8368552Y-19483551D01*
X8368552Y-19588313D01*
X8463790Y-19588313D02*
X8463790Y-19454980D01*
X8463790Y-19474027D02*
X8473314Y-19464503D01*
X8492362Y-19454980D01*
X8520933Y-19454980D01*
X8539981Y-19464503D01*
X8549504Y-19483551D01*
X8549504Y-19588313D01*
X8549504Y-19483551D02*
X8559028Y-19464503D01*
X8578076Y-19454980D01*
X8606647Y-19454980D01*
X8625695Y-19464503D01*
X8635219Y-19483551D01*
X8635219Y-19588313D01*
X9025695Y-19378789D02*
X8854266Y-19635932D01*
X9282838Y-19388313D02*
X9301885Y-19388313D01*
X9320933Y-19397837D01*
X9330457Y-19407361D01*
X9339981Y-19426408D01*
X9349504Y-19464503D01*
X9349504Y-19512122D01*
X9339981Y-19550218D01*
X9330457Y-19569265D01*
X9320933Y-19578789D01*
X9301885Y-19588313D01*
X9282838Y-19588313D01*
X9263790Y-19578789D01*
X9254266Y-19569265D01*
X9244742Y-19550218D01*
X9235219Y-19512122D01*
X9235219Y-19464503D01*
X9244742Y-19426408D01*
X9254266Y-19407361D01*
X9263790Y-19397837D01*
X9282838Y-19388313D01*
X9435219Y-19569265D02*
X9444742Y-19578789D01*
X9435219Y-19588313D01*
X9425695Y-19578789D01*
X9435219Y-19569265D01*
X9435219Y-19588313D01*
X9568552Y-19388313D02*
X9587600Y-19388313D01*
X9606647Y-19397837D01*
X9616171Y-19407361D01*
X9625695Y-19426408D01*
X9635219Y-19464503D01*
X9635219Y-19512122D01*
X9625695Y-19550218D01*
X9616171Y-19569265D01*
X9606647Y-19578789D01*
X9587600Y-19588313D01*
X9568552Y-19588313D01*
X9549504Y-19578789D01*
X9539981Y-19569265D01*
X9530457Y-19550218D01*
X9520933Y-19512122D01*
X9520933Y-19464503D01*
X9530457Y-19426408D01*
X9539981Y-19407361D01*
X9549504Y-19397837D01*
X9568552Y-19388313D01*
X9816171Y-19388313D02*
X9720933Y-19388313D01*
X9711409Y-19483551D01*
X9720933Y-19474027D01*
X9739981Y-19464503D01*
X9787600Y-19464503D01*
X9806647Y-19474027D01*
X9816171Y-19483551D01*
X9825695Y-19502599D01*
X9825695Y-19550218D01*
X9816171Y-19569265D01*
X9806647Y-19578789D01*
X9787600Y-19588313D01*
X9739981Y-19588313D01*
X9720933Y-19578789D01*
X9711409Y-19569265D01*
X9920933Y-19588313D02*
X9959028Y-19588313D01*
X9978076Y-19578789D01*
X9987600Y-19569265D01*
X10006647Y-19540694D01*
X10016171Y-19502599D01*
X10016171Y-19426408D01*
X10006647Y-19407361D01*
X9997123Y-19397837D01*
X9978076Y-19388313D01*
X9939981Y-19388313D01*
X9920933Y-19397837D01*
X9911409Y-19407361D01*
X9901885Y-19426408D01*
X9901885Y-19474027D01*
X9911409Y-19493075D01*
X9920933Y-19502599D01*
X9939981Y-19512122D01*
X9978076Y-19512122D01*
X9997123Y-19502599D01*
X10006647Y-19493075D01*
X10016171Y-19474027D01*
X10206647Y-19588313D02*
X10092361Y-19588313D01*
X10149504Y-19588313D02*
X10149504Y-19388313D01*
X10130457Y-19416884D01*
X10111409Y-19435932D01*
X10092361Y-19445456D01*
X10282838Y-19388313D02*
X10282838Y-19426408D01*
X10359028Y-19388313D02*
X10359028Y-19426408D01*
X10654266Y-19664503D02*
X10644742Y-19654980D01*
X10625695Y-19626408D01*
X10616171Y-19607361D01*
X10606647Y-19578789D01*
X10597123Y-19531170D01*
X10597123Y-19493075D01*
X10606647Y-19445456D01*
X10616171Y-19416884D01*
X10625695Y-19397837D01*
X10644742Y-19369265D01*
X10654266Y-19359741D01*
X10768552Y-19388313D02*
X10787600Y-19388313D01*
X10806647Y-19397837D01*
X10816171Y-19407361D01*
X10825695Y-19426408D01*
X10835219Y-19464503D01*
X10835219Y-19512122D01*
X10825695Y-19550218D01*
X10816171Y-19569265D01*
X10806647Y-19578789D01*
X10787600Y-19588313D01*
X10768552Y-19588313D01*
X10749504Y-19578789D01*
X10739981Y-19569265D01*
X10730457Y-19550218D01*
X10720933Y-19512122D01*
X10720933Y-19464503D01*
X10730457Y-19426408D01*
X10739981Y-19407361D01*
X10749504Y-19397837D01*
X10768552Y-19388313D01*
X11073314Y-19588313D02*
X11073314Y-19388313D01*
X11159028Y-19588313D02*
X11159028Y-19483551D01*
X11149504Y-19464503D01*
X11130457Y-19454980D01*
X11101885Y-19454980D01*
X11082838Y-19464503D01*
X11073314Y-19474027D01*
X11282838Y-19588313D02*
X11263790Y-19578789D01*
X11254266Y-19569265D01*
X11244742Y-19550218D01*
X11244742Y-19493075D01*
X11254266Y-19474027D01*
X11263790Y-19464503D01*
X11282838Y-19454980D01*
X11311409Y-19454980D01*
X11330457Y-19464503D01*
X11339980Y-19474027D01*
X11349504Y-19493075D01*
X11349504Y-19550218D01*
X11339980Y-19569265D01*
X11330457Y-19578789D01*
X11311409Y-19588313D01*
X11282838Y-19588313D01*
X11463790Y-19588313D02*
X11444742Y-19578789D01*
X11435219Y-19559741D01*
X11435219Y-19388313D01*
X11616171Y-19578789D02*
X11597123Y-19588313D01*
X11559028Y-19588313D01*
X11539980Y-19578789D01*
X11530457Y-19559741D01*
X11530457Y-19483551D01*
X11539980Y-19464503D01*
X11559028Y-19454980D01*
X11597123Y-19454980D01*
X11616171Y-19464503D01*
X11625695Y-19483551D01*
X11625695Y-19502599D01*
X11530457Y-19521646D01*
X11701885Y-19578789D02*
X11720933Y-19588313D01*
X11759028Y-19588313D01*
X11778076Y-19578789D01*
X11787599Y-19559741D01*
X11787599Y-19550218D01*
X11778076Y-19531170D01*
X11759028Y-19521646D01*
X11730457Y-19521646D01*
X11711409Y-19512122D01*
X11701885Y-19493075D01*
X11701885Y-19483551D01*
X11711409Y-19464503D01*
X11730457Y-19454980D01*
X11759028Y-19454980D01*
X11778076Y-19464503D01*
X12025695Y-19512122D02*
X12178076Y-19512122D01*
X12101885Y-19588313D02*
X12101885Y-19435932D01*
X12416171Y-19407361D02*
X12425695Y-19397837D01*
X12444742Y-19388313D01*
X12492361Y-19388313D01*
X12511409Y-19397837D01*
X12520933Y-19407361D01*
X12530457Y-19426408D01*
X12530457Y-19445456D01*
X12520933Y-19474027D01*
X12406647Y-19588313D01*
X12530457Y-19588313D01*
X12759028Y-19578789D02*
X12778076Y-19588313D01*
X12816171Y-19588313D01*
X12835219Y-19578789D01*
X12844742Y-19559741D01*
X12844742Y-19550218D01*
X12835219Y-19531170D01*
X12816171Y-19521646D01*
X12787599Y-19521646D01*
X12768552Y-19512122D01*
X12759028Y-19493075D01*
X12759028Y-19483551D01*
X12768552Y-19464503D01*
X12787599Y-19454980D01*
X12816171Y-19454980D01*
X12835219Y-19464503D01*
X12959028Y-19588313D02*
X12939980Y-19578789D01*
X12930457Y-19559741D01*
X12930457Y-19388313D01*
X13063790Y-19588313D02*
X13044742Y-19578789D01*
X13035219Y-19569265D01*
X13025695Y-19550218D01*
X13025695Y-19493075D01*
X13035219Y-19474027D01*
X13044742Y-19464503D01*
X13063790Y-19454980D01*
X13092361Y-19454980D01*
X13111409Y-19464503D01*
X13120933Y-19474027D01*
X13130457Y-19493075D01*
X13130457Y-19550218D01*
X13120933Y-19569265D01*
X13111409Y-19578789D01*
X13092361Y-19588313D01*
X13063790Y-19588313D01*
X13187599Y-19454980D02*
X13263790Y-19454980D01*
X13216171Y-19388313D02*
X13216171Y-19559741D01*
X13225695Y-19578789D01*
X13244742Y-19588313D01*
X13263790Y-19588313D01*
X13320933Y-19578789D02*
X13339980Y-19588313D01*
X13378076Y-19588313D01*
X13397123Y-19578789D01*
X13406647Y-19559741D01*
X13406647Y-19550218D01*
X13397123Y-19531170D01*
X13378076Y-19521646D01*
X13349504Y-19521646D01*
X13330457Y-19512122D01*
X13320933Y-19493075D01*
X13320933Y-19483551D01*
X13330457Y-19464503D01*
X13349504Y-19454980D01*
X13378076Y-19454980D01*
X13397123Y-19464503D01*
X13473314Y-19664503D02*
X13482838Y-19654980D01*
X13501885Y-19626408D01*
X13511409Y-19607361D01*
X13520933Y-19578789D01*
X13530457Y-19531170D01*
X13530457Y-19493075D01*
X13520933Y-19445456D01*
X13511409Y-19416884D01*
X13501885Y-19397837D01*
X13482838Y-19369265D01*
X13473314Y-19359741D01*
X6982361Y-19667837D02*
X6982361Y-19867837D01*
X6882361Y-19767837D02*
X7082361Y-19767837D01*
X7082361Y-19767837D02*
G75*
G03*
X7082361Y-19767837I-100000J0D01*
G01*
X7330457Y-19677361D02*
X7339980Y-19667837D01*
X7359028Y-19658313D01*
X7406647Y-19658313D01*
X7425695Y-19667837D01*
X7435219Y-19677361D01*
X7444742Y-19696408D01*
X7444742Y-19715456D01*
X7435219Y-19744027D01*
X7320933Y-19858313D01*
X7444742Y-19858313D01*
X7530457Y-19839265D02*
X7539980Y-19848789D01*
X7530457Y-19858313D01*
X7520933Y-19848789D01*
X7530457Y-19839265D01*
X7530457Y-19858313D01*
X7616171Y-19677361D02*
X7625695Y-19667837D01*
X7644742Y-19658313D01*
X7692361Y-19658313D01*
X7711409Y-19667837D01*
X7720933Y-19677361D01*
X7730457Y-19696408D01*
X7730457Y-19715456D01*
X7720933Y-19744027D01*
X7606647Y-19858313D01*
X7730457Y-19858313D01*
X7854266Y-19658313D02*
X7873314Y-19658313D01*
X7892361Y-19667837D01*
X7901885Y-19677361D01*
X7911409Y-19696408D01*
X7920933Y-19734503D01*
X7920933Y-19782122D01*
X7911409Y-19820218D01*
X7901885Y-19839265D01*
X7892361Y-19848789D01*
X7873314Y-19858313D01*
X7854266Y-19858313D01*
X7835219Y-19848789D01*
X7825695Y-19839265D01*
X7816171Y-19820218D01*
X7806647Y-19782122D01*
X7806647Y-19734503D01*
X7816171Y-19696408D01*
X7825695Y-19677361D01*
X7835219Y-19667837D01*
X7854266Y-19658313D01*
X8044742Y-19658313D02*
X8063790Y-19658313D01*
X8082838Y-19667837D01*
X8092361Y-19677361D01*
X8101885Y-19696408D01*
X8111409Y-19734503D01*
X8111409Y-19782122D01*
X8101885Y-19820218D01*
X8092361Y-19839265D01*
X8082838Y-19848789D01*
X8063790Y-19858313D01*
X8044742Y-19858313D01*
X8025695Y-19848789D01*
X8016171Y-19839265D01*
X8006647Y-19820218D01*
X7997123Y-19782122D01*
X7997123Y-19734503D01*
X8006647Y-19696408D01*
X8016171Y-19677361D01*
X8025695Y-19667837D01*
X8044742Y-19658313D01*
X8197123Y-19858313D02*
X8197123Y-19724980D01*
X8197123Y-19744027D02*
X8206647Y-19734503D01*
X8225695Y-19724980D01*
X8254266Y-19724980D01*
X8273314Y-19734503D01*
X8282838Y-19753551D01*
X8282838Y-19858313D01*
X8282838Y-19753551D02*
X8292361Y-19734503D01*
X8311409Y-19724980D01*
X8339980Y-19724980D01*
X8359028Y-19734503D01*
X8368552Y-19753551D01*
X8368552Y-19858313D01*
X8463790Y-19858313D02*
X8463790Y-19724980D01*
X8463790Y-19744027D02*
X8473314Y-19734503D01*
X8492362Y-19724980D01*
X8520933Y-19724980D01*
X8539981Y-19734503D01*
X8549504Y-19753551D01*
X8549504Y-19858313D01*
X8549504Y-19753551D02*
X8559028Y-19734503D01*
X8578076Y-19724980D01*
X8606647Y-19724980D01*
X8625695Y-19734503D01*
X8635219Y-19753551D01*
X8635219Y-19858313D01*
X9025695Y-19648789D02*
X8854266Y-19905932D01*
X9282838Y-19658313D02*
X9301885Y-19658313D01*
X9320933Y-19667837D01*
X9330457Y-19677361D01*
X9339981Y-19696408D01*
X9349504Y-19734503D01*
X9349504Y-19782122D01*
X9339981Y-19820218D01*
X9330457Y-19839265D01*
X9320933Y-19848789D01*
X9301885Y-19858313D01*
X9282838Y-19858313D01*
X9263790Y-19848789D01*
X9254266Y-19839265D01*
X9244742Y-19820218D01*
X9235219Y-19782122D01*
X9235219Y-19734503D01*
X9244742Y-19696408D01*
X9254266Y-19677361D01*
X9263790Y-19667837D01*
X9282838Y-19658313D01*
X9435219Y-19839265D02*
X9444742Y-19848789D01*
X9435219Y-19858313D01*
X9425695Y-19848789D01*
X9435219Y-19839265D01*
X9435219Y-19858313D01*
X9568552Y-19658313D02*
X9587600Y-19658313D01*
X9606647Y-19667837D01*
X9616171Y-19677361D01*
X9625695Y-19696408D01*
X9635219Y-19734503D01*
X9635219Y-19782122D01*
X9625695Y-19820218D01*
X9616171Y-19839265D01*
X9606647Y-19848789D01*
X9587600Y-19858313D01*
X9568552Y-19858313D01*
X9549504Y-19848789D01*
X9539981Y-19839265D01*
X9530457Y-19820218D01*
X9520933Y-19782122D01*
X9520933Y-19734503D01*
X9530457Y-19696408D01*
X9539981Y-19677361D01*
X9549504Y-19667837D01*
X9568552Y-19658313D01*
X9749504Y-19744027D02*
X9730457Y-19734503D01*
X9720933Y-19724980D01*
X9711409Y-19705932D01*
X9711409Y-19696408D01*
X9720933Y-19677361D01*
X9730457Y-19667837D01*
X9749504Y-19658313D01*
X9787600Y-19658313D01*
X9806647Y-19667837D01*
X9816171Y-19677361D01*
X9825695Y-19696408D01*
X9825695Y-19705932D01*
X9816171Y-19724980D01*
X9806647Y-19734503D01*
X9787600Y-19744027D01*
X9749504Y-19744027D01*
X9730457Y-19753551D01*
X9720933Y-19763075D01*
X9711409Y-19782122D01*
X9711409Y-19820218D01*
X9720933Y-19839265D01*
X9730457Y-19848789D01*
X9749504Y-19858313D01*
X9787600Y-19858313D01*
X9806647Y-19848789D01*
X9816171Y-19839265D01*
X9825695Y-19820218D01*
X9825695Y-19782122D01*
X9816171Y-19763075D01*
X9806647Y-19753551D01*
X9787600Y-19744027D01*
X9997123Y-19658313D02*
X9959028Y-19658313D01*
X9939981Y-19667837D01*
X9930457Y-19677361D01*
X9911409Y-19705932D01*
X9901885Y-19744027D01*
X9901885Y-19820218D01*
X9911409Y-19839265D01*
X9920933Y-19848789D01*
X9939981Y-19858313D01*
X9978076Y-19858313D01*
X9997123Y-19848789D01*
X10006647Y-19839265D01*
X10016171Y-19820218D01*
X10016171Y-19772599D01*
X10006647Y-19753551D01*
X9997123Y-19744027D01*
X9978076Y-19734503D01*
X9939981Y-19734503D01*
X9920933Y-19744027D01*
X9911409Y-19753551D01*
X9901885Y-19772599D01*
X10187600Y-19658313D02*
X10149504Y-19658313D01*
X10130457Y-19667837D01*
X10120933Y-19677361D01*
X10101885Y-19705932D01*
X10092361Y-19744027D01*
X10092361Y-19820218D01*
X10101885Y-19839265D01*
X10111409Y-19848789D01*
X10130457Y-19858313D01*
X10168552Y-19858313D01*
X10187600Y-19848789D01*
X10197123Y-19839265D01*
X10206647Y-19820218D01*
X10206647Y-19772599D01*
X10197123Y-19753551D01*
X10187600Y-19744027D01*
X10168552Y-19734503D01*
X10130457Y-19734503D01*
X10111409Y-19744027D01*
X10101885Y-19753551D01*
X10092361Y-19772599D01*
X10282838Y-19658313D02*
X10282838Y-19696408D01*
X10359028Y-19658313D02*
X10359028Y-19696408D01*
X10654266Y-19934503D02*
X10644742Y-19924980D01*
X10625695Y-19896408D01*
X10616171Y-19877361D01*
X10606647Y-19848789D01*
X10597123Y-19801170D01*
X10597123Y-19763075D01*
X10606647Y-19715456D01*
X10616171Y-19686884D01*
X10625695Y-19667837D01*
X10644742Y-19639265D01*
X10654266Y-19629741D01*
X10711409Y-19658313D02*
X10835219Y-19658313D01*
X10768552Y-19734503D01*
X10797123Y-19734503D01*
X10816171Y-19744027D01*
X10825695Y-19753551D01*
X10835219Y-19772599D01*
X10835219Y-19820218D01*
X10825695Y-19839265D01*
X10816171Y-19848789D01*
X10797123Y-19858313D01*
X10739981Y-19858313D01*
X10720933Y-19848789D01*
X10711409Y-19839265D01*
X11073314Y-19858313D02*
X11073314Y-19658313D01*
X11159028Y-19858313D02*
X11159028Y-19753551D01*
X11149504Y-19734503D01*
X11130457Y-19724980D01*
X11101885Y-19724980D01*
X11082838Y-19734503D01*
X11073314Y-19744027D01*
X11282838Y-19858313D02*
X11263790Y-19848789D01*
X11254266Y-19839265D01*
X11244742Y-19820218D01*
X11244742Y-19763075D01*
X11254266Y-19744027D01*
X11263790Y-19734503D01*
X11282838Y-19724980D01*
X11311409Y-19724980D01*
X11330457Y-19734503D01*
X11339980Y-19744027D01*
X11349504Y-19763075D01*
X11349504Y-19820218D01*
X11339980Y-19839265D01*
X11330457Y-19848789D01*
X11311409Y-19858313D01*
X11282838Y-19858313D01*
X11463790Y-19858313D02*
X11444742Y-19848789D01*
X11435219Y-19829741D01*
X11435219Y-19658313D01*
X11616171Y-19848789D02*
X11597123Y-19858313D01*
X11559028Y-19858313D01*
X11539980Y-19848789D01*
X11530457Y-19829741D01*
X11530457Y-19753551D01*
X11539980Y-19734503D01*
X11559028Y-19724980D01*
X11597123Y-19724980D01*
X11616171Y-19734503D01*
X11625695Y-19753551D01*
X11625695Y-19772599D01*
X11530457Y-19791646D01*
X11701885Y-19848789D02*
X11720933Y-19858313D01*
X11759028Y-19858313D01*
X11778076Y-19848789D01*
X11787599Y-19829741D01*
X11787599Y-19820218D01*
X11778076Y-19801170D01*
X11759028Y-19791646D01*
X11730457Y-19791646D01*
X11711409Y-19782122D01*
X11701885Y-19763075D01*
X11701885Y-19753551D01*
X11711409Y-19734503D01*
X11730457Y-19724980D01*
X11759028Y-19724980D01*
X11778076Y-19734503D01*
X11854266Y-19934503D02*
X11863790Y-19924980D01*
X11882838Y-19896408D01*
X11892361Y-19877361D01*
X11901885Y-19848789D01*
X11911409Y-19801170D01*
X11911409Y-19763075D01*
X11901885Y-19715456D01*
X11892361Y-19686884D01*
X11882838Y-19667837D01*
X11863790Y-19639265D01*
X11854266Y-19629741D01*
M02*
