M48
INCH,TZ
T1C0.0079
T2C0.0118
T3C0.0157
T4C0.0197
T5C0.0295
T6C0.0320
T7C0.0335
T8C0.0394
T9C0.0591
T10C0.0866
%
G90
G05
T1
X31992Y-46776
X31992Y-48232
X32760Y-47022
X32760Y-47504
X32760Y-47986
T2
X29744Y-60177
X30741Y-59532
X31148Y-59599
X31962Y-25133
X32047Y-27283
X32175Y-25354
X32264Y-41811
X32381Y-25157
X32441Y-39961
X32529Y-49513
X32575Y-42218
X32723Y-25155
X32943Y-43199
X33009Y-57734
X33386Y-56850
X33811Y-24972
X34077Y-25567
X34105Y-48834
X34134Y-59055
X34135Y-28584
X34138Y-28287
X34183Y-57628
X34256Y-24175
X34291Y-22362
X34305Y-28104
X34311Y-27421
X34463Y-23574
X34468Y-63191
X34656Y-30896
X34685Y-46654
X34999Y-49465
X35274Y-49459
X35453Y-50492
X35561Y-39390
X36063Y-54370
X36142Y-50492
X37093Y-60487
X37415Y-54115
X37480Y-53758
X37918Y-53899
X37945Y-40400
X37953Y-54685
X37954Y-40152
X37992Y-39390
X38465Y-58622
X38760Y-39390
X38979Y-38457
X39004Y-38138
X39203Y-39390
X39462Y-40634
X39754Y-39390
X40049Y-58117
X40213Y-24845
X40433Y-52457
X40514Y-26839
X40516Y-28841
X40522Y-29846
X40525Y-27850
X40525Y-30850
X40528Y-33852
X40531Y-31856
X40542Y-32867
X40778Y-39390
X40866Y-53022
X41696Y-25369
X41745Y-27488
X42457Y-30791
X42638Y-24055
X42677Y-22913
X42794Y-31472
X42818Y-34303
X43039Y-35111
X43548Y-56212
X44488Y-32677
X44587Y-54154
X44701Y-32217
X44810Y-45591
X44909Y-36125
X45228Y-39748
X45276Y-32677
X45394Y-30886
X45656Y-49846
X45984Y-49016
X46006Y-50073
X46063Y-39045
X46080Y-25685
X46106Y-40703
X46109Y-33187
X46326Y-26013
X46326Y-26702
X46347Y-41044
X46350Y-33534
X46720Y-34232
X46720Y-41741
X46954Y-54744
X48608Y-40344
X48609Y-32835
X48846Y-49312
X48979Y-41042
X48980Y-33533
X48999Y-26015
X49055Y-24961
X49055Y-32598
X49055Y-40079
X49085Y-46112
X49264Y-38823
X49488Y-30984
X50423Y-28661
X50423Y-36161
X50423Y-43681
X50500Y-39146
X50827Y-30039
X51039Y-53730
X51545Y-30147
X51549Y-30562
X51906Y-44098
X51917Y-42012
X51969Y-29882
X51969Y-30935
X51969Y-32165
X52177Y-39304
X52179Y-30347
X52179Y-39006
X52179Y-40893
X52362Y-54567
X52402Y-50079
X52594Y-38601
X52795Y-31575
X52917Y-40000
X53071Y-37254
X53140Y-40896
X53268Y-46654
X53307Y-25394
X53343Y-24743
X53543Y-30236
X53543Y-53287
X53575Y-24515
X53580Y-39539
X53584Y-32007
X53612Y-38789
X53821Y-24841
X53825Y-39863
X53826Y-32352
X53927Y-38041
X53937Y-41526
X54053Y-53235
X54331Y-48917
X54507Y-48505
X54744Y-48159
X54823Y-46142
X54985Y-48505
X55139Y-44368
X55295Y-44567
X55591Y-37638
X55862Y-30008
X56079Y-46329
X56086Y-41279
X56461Y-39863
X56462Y-32355
X56464Y-24847
X56535Y-25630
X56552Y-46129
X56634Y-41427
X56801Y-46752
X56847Y-44593
X57283Y-43491
X57598Y-50079
X57619Y-48504
X57657Y-38986
X57898Y-27489
X57899Y-34981
X57904Y-42047
X57983Y-44041
X57992Y-46079
X58031Y-47894
X58031Y-48514
X58244Y-45271
X58268Y-42037
X58504Y-53327
X58524Y-33986
X59016Y-41092
X59016Y-41506
X59035Y-23199
X59035Y-25176
X59173Y-45906
X59335Y-37913
X59429Y-52874
X59449Y-42244
X59449Y-50315
X59465Y-33992
X59488Y-25276
X59488Y-40602
X59528Y-45901
X59539Y-28854
X59679Y-35280
X59685Y-27741
X59961Y-45000
X60305Y-48576
X60315Y-28031
X60325Y-33720
X60563Y-29240
X60708Y-48426
X61053Y-34350
X61063Y-26811
X61073Y-20955
X61083Y-28461
X61084Y-35974
X61116Y-48256
X61313Y-21294
X61325Y-28810
X61326Y-36317
X61604Y-48078
X61690Y-22074
X61698Y-29508
X61700Y-37017
X63587Y-28111
X63587Y-35619
X63701Y-27598
X63740Y-35157
X63819Y-23031
X63819Y-30512
X63819Y-37992
X63958Y-28810
X63959Y-36317
X63974Y-21308
X64035Y-22156
X64223Y-20952
X64915Y-43032
X65010Y-21988
X65396Y-31443
X65398Y-23514
X65400Y-38957
X66447Y-39557
X66517Y-23805
X66646Y-46322
X67170Y-36949
X67524Y-45146
X67544Y-29670
X68179Y-29045
X68181Y-39272
X68307Y-32047
X68307Y-32953
X68711Y-38445
X68760Y-39984
X69001Y-40298
X69287Y-32487
X69311Y-30787
X69530Y-32808
X69786Y-24992
X70033Y-25306
X70157Y-24518
X70157Y-45669
X70315Y-26220
X70433Y-39213
X70669Y-30709
X70984Y-38150
X71063Y-31732
X71496Y-30709
X71639Y-40488
X72152Y-32992
X72714Y-25484
X72846Y-43215
X72992Y-24724
X73346Y-47087
X73367Y-35712
X73755Y-46257
X73896Y-28232
X73967Y-46439
X74016Y-47638
X74252Y-50354
X74986Y-39913
X75009Y-33203
X75236Y-46142
X75285Y-31860
X75726Y-45494
X76017Y-45432
X76181Y-44724
X76259Y-45693
X76260Y-50787
X77165Y-39291
X77334Y-38035
X77548Y-39026
X77577Y-38309
X77726Y-23724
X77795Y-39488
X78425Y-31890
X78465Y-47402
X78568Y-45401
X78641Y-30639
X78850Y-31620
X78873Y-46167
X78881Y-30916
X79055Y-35984
X79733Y-48979
X79764Y-40394
X79803Y-43791
X79864Y-38003
X79882Y-36850
X80023Y-39914
X80174Y-38770
X80193Y-52228
X80659Y-23858
X80876Y-49675
X81368Y-41457
X81472Y-47693
X81479Y-31372
X81614Y-43504
X81614Y-49656
X82341Y-34196
X82354Y-49568
X83331Y-42291
X83525Y-43890
X83654Y-42189
X83747Y-44730
X83858Y-42844
X83990Y-45065
X84016Y-46024
X84094Y-43661
X84409Y-37559
X85059Y-37398
X85299Y-37673
X85512Y-38701
X85512Y-42520
X86181Y-47028
X86260Y-41102
X86590Y-45526
X87455Y-48353
X87897Y-38135
X88757Y-40970
T3
X34280Y-56093
X35226Y-57039
X39047Y-42110
X40386Y-42110
X41997Y-51349
X42666Y-52509
X45315Y-46571
X45394Y-31535
X45394Y-39055
X46654Y-46571
X46732Y-31535
X46732Y-39055
X50655Y-48653
X51001Y-49946
X52874Y-30354
X53267Y-37873
X54213Y-30354
X54605Y-37873
X58346Y-39961
X58346Y-41299
X59687Y-48270
X59687Y-49608
X60354Y-41850
X60385Y-34325
X60394Y-26811
X61693Y-41850
X61724Y-34325
X61732Y-26811
X68071Y-45748
X68074Y-38253
X68622Y-30748
X69406Y-45841
X69409Y-38346
X69957Y-30841
X74262Y-50947
X75572Y-43586
X75580Y-51179
X76871Y-36185
X76890Y-43819
X78189Y-36417
X85375Y-50870
X86693Y-43543
X86693Y-51102
X88011Y-43776
T4
X60437Y-45783
X65634Y-45783
T5
X32421Y-40472
X32421Y-41260
T6
X34953Y-22378
X34953Y-23378
X34953Y-24378
X34953Y-25378
X34953Y-26378
X34953Y-27378
X34953Y-28378
X34953Y-29378
X34953Y-30378
X34953Y-31378
X34953Y-32378
X34953Y-33378
X35464Y-22849
X35464Y-23849
X35464Y-24849
X35464Y-25849
X35464Y-26849
X35464Y-27849
X35464Y-28849
X35464Y-29849
X35464Y-30849
X35464Y-31849
X35464Y-32849
X35464Y-33849
X40953Y-22378
X40953Y-23378
X40953Y-24378
X40953Y-25378
X40953Y-26378
X40953Y-27378
X40953Y-28378
X40953Y-29378
X40953Y-30378
X40953Y-31378
X40953Y-32378
X40953Y-33378
X41464Y-22849
X41464Y-23849
X41464Y-24849
X41464Y-25849
X41464Y-26849
X41464Y-27849
X41464Y-28849
X41464Y-29849
X41464Y-30849
X41464Y-31849
X41464Y-32849
X41464Y-33849
T7
X54311Y-47283
X55311Y-47283
X56311Y-47283
X57311Y-47283
X58311Y-47283
T8
X32480Y-43858
X32480Y-45276
X34681Y-43878
X34681Y-44862
X34681Y-45846
X36468Y-38762
X37468Y-38762
X38468Y-38762
X39468Y-38762
X40390Y-43878
X40390Y-45846
X76740Y-21909
X77740Y-21909
X78740Y-21909
X79740Y-21909
X80740Y-21909
T10
X51397Y-37953
X58897Y-30453
X66397Y-37953
T8
X33051Y-49321G85X33248Y-49321
G05
X33051Y-51663G85X33248Y-51663
G05
X34232Y-49321G85X34429Y-49321
G05
X34232Y-51663G85X34429Y-51663
G05
X35807Y-49321G85X36004Y-49321
G05
X35807Y-51663G85X36004Y-51663
G05
X36398Y-50010G85X36594Y-50010
G05
X36398Y-50974G85X36594Y-50974
G05
T9
X37378Y-42657G85X37890Y-42657
G05
X37378Y-47067G85X37890Y-47067
G05
T0
M30
