G04 #@! TF.GenerationSoftware,KiCad,Pcbnew,(6.0.4)*
G04 #@! TF.CreationDate,2022-07-08T15:45:16+02:00*
G04 #@! TF.ProjectId,klor1_3,6b6c6f72-315f-4332-9e6b-696361645f70,v1.3.0*
G04 #@! TF.SameCoordinates,Original*
G04 #@! TF.FileFunction,Soldermask,Bot*
G04 #@! TF.FilePolarity,Negative*
%FSLAX46Y46*%
G04 Gerber Fmt 4.6, Leading zero omitted, Abs format (unit mm)*
G04 Created by KiCad (PCBNEW (6.0.4)) date 2022-07-08 15:45:16*
%MOMM*%
%LPD*%
G01*
G04 APERTURE LIST*
G04 Aperture macros list*
%AMRoundRect*
0 Rectangle with rounded corners*
0 $1 Rounding radius*
0 $2 $3 $4 $5 $6 $7 $8 $9 X,Y pos of 4 corners*
0 Add a 4 corners polygon primitive as box body*
4,1,4,$2,$3,$4,$5,$6,$7,$8,$9,$2,$3,0*
0 Add four circle primitives for the rounded corners*
1,1,$1+$1,$2,$3*
1,1,$1+$1,$4,$5*
1,1,$1+$1,$6,$7*
1,1,$1+$1,$8,$9*
0 Add four rect primitives between the rounded corners*
20,1,$1+$1,$2,$3,$4,$5,0*
20,1,$1+$1,$4,$5,$6,$7,0*
20,1,$1+$1,$6,$7,$8,$9,0*
20,1,$1+$1,$8,$9,$2,$3,0*%
%AMRotRect*
0 Rectangle, with rotation*
0 The origin of the aperture is its center*
0 $1 length*
0 $2 width*
0 $3 Rotation angle, in degrees counterclockwise*
0 Add horizontal line*
21,1,$1,$2,0,0,$3*%
G04 Aperture macros list end*
%ADD10C,0.000001*%
%ADD11C,0.150000*%
%ADD12C,0.000000*%
%ADD13C,0.900000*%
%ADD14RoundRect,0.187500X-0.712500X0.187500X-0.712500X-0.187500X0.712500X-0.187500X0.712500X0.187500X0*%
%ADD15RoundRect,0.150000X-0.750000X0.150000X-0.750000X-0.150000X0.750000X-0.150000X0.750000X0.150000X0*%
%ADD16RoundRect,0.225000X-0.225000X0.425000X-0.225000X-0.425000X0.225000X-0.425000X0.225000X0.425000X0*%
%ADD17C,1.700000*%
%ADD18C,3.000000*%
%ADD19C,4.100000*%
%ADD20C,1.900000*%
%ADD21RotRect,1.600000X1.000000X225.000000*%
%ADD22RotRect,2.300000X2.000000X45.000000*%
%ADD23R,1.600000X1.000000*%
%ADD24R,2.300000X2.000000*%
%ADD25RotRect,1.600000X1.000000X176.000000*%
%ADD26RotRect,2.300000X2.000000X356.000000*%
%ADD27C,3.200000*%
%ADD28RotRect,1.800000X1.500000X350.000000*%
%ADD29R,1.800000X1.500000*%
%ADD30RotRect,1.800000X1.500000X356.000000*%
%ADD31RotRect,1.600000X1.000000X195.000000*%
%ADD32RotRect,2.300000X2.000000X15.000000*%
%ADD33RotRect,1.600000X1.000000X170.000000*%
%ADD34RotRect,2.300000X2.000000X350.000000*%
%ADD35RotRect,1.800000X1.500000X285.000000*%
%ADD36R,2.200000X2.200000*%
%ADD37C,2.200000*%
%ADD38C,2.000000*%
%ADD39R,3.200000X2.000000*%
%ADD40O,1.600000X2.000000*%
%ADD41C,1.200000*%
%ADD42O,2.500000X1.700000*%
%ADD43RotRect,1.800000X1.500000X300.000000*%
%ADD44O,1.750000X1.200000*%
%ADD45C,4.400000*%
%ADD46RotRect,1.600000X1.000000X210.000000*%
%ADD47RotRect,2.300000X2.000000X30.000000*%
%ADD48RotRect,1.800000X1.500000X315.000000*%
%ADD49R,1.500000X1.800000*%
%ADD50RoundRect,0.142858X-0.857142X0.857142X-0.857142X-0.857142X0.857142X-0.857142X0.857142X0.857142X0*%
%ADD51R,1.000000X0.700000*%
%ADD52R,2.800000X1.000000*%
%ADD53R,1.524000X1.524000*%
%ADD54C,1.800000*%
%ADD55C,1.524000*%
%ADD56R,1.143000X0.635000*%
%ADD57RotRect,0.635000X1.143000X210.000000*%
%ADD58O,1.700000X1.700000*%
G04 APERTURE END LIST*
D10*
G36*
X158456354Y-117585550D02*
G01*
X158468324Y-117586462D01*
X158480101Y-117587963D01*
X158491672Y-117590037D01*
X158503023Y-117592669D01*
X158514141Y-117595843D01*
X158525013Y-117599544D01*
X158535624Y-117603757D01*
X158545962Y-117608465D01*
X158556012Y-117613654D01*
X158565761Y-117619308D01*
X158575196Y-117625412D01*
X158584303Y-117631949D01*
X158593068Y-117638905D01*
X158601478Y-117646263D01*
X158609519Y-117654009D01*
X158617178Y-117662127D01*
X158624441Y-117670602D01*
X158631295Y-117679417D01*
X158637726Y-117688558D01*
X158643720Y-117698008D01*
X158649264Y-117707754D01*
X158654345Y-117717778D01*
X158658948Y-117728065D01*
X158663060Y-117738601D01*
X158666668Y-117749369D01*
X158669759Y-117760354D01*
X158672317Y-117771540D01*
X158674331Y-117782912D01*
X158675786Y-117794455D01*
X158676670Y-117806153D01*
X158676967Y-117817990D01*
X158676670Y-117830138D01*
X158675786Y-117842107D01*
X158674331Y-117853883D01*
X158672317Y-117865453D01*
X158669759Y-117876804D01*
X158666668Y-117887922D01*
X158663060Y-117898793D01*
X158658948Y-117909403D01*
X158654345Y-117919740D01*
X158649264Y-117929790D01*
X158643720Y-117939539D01*
X158637726Y-117948973D01*
X158631295Y-117958079D01*
X158624441Y-117966844D01*
X158617178Y-117975253D01*
X158609519Y-117983294D01*
X158601478Y-117990953D01*
X158593068Y-117998215D01*
X158584303Y-118005069D01*
X158575196Y-118011499D01*
X158565761Y-118017493D01*
X158556012Y-118023037D01*
X158545962Y-118028117D01*
X158535624Y-118032720D01*
X158525013Y-118036832D01*
X158514141Y-118040440D01*
X158503023Y-118043530D01*
X158491672Y-118046089D01*
X158480101Y-118048102D01*
X158468324Y-118049558D01*
X158456354Y-118050441D01*
X158444206Y-118050738D01*
X158432058Y-118050441D01*
X158420088Y-118049558D01*
X158408311Y-118048102D01*
X158396741Y-118046089D01*
X158385389Y-118043530D01*
X158374271Y-118040440D01*
X158363399Y-118036832D01*
X158352788Y-118032720D01*
X158342450Y-118028117D01*
X158332400Y-118023037D01*
X158322651Y-118017493D01*
X158313216Y-118011499D01*
X158304109Y-118005069D01*
X158295344Y-117998215D01*
X158286934Y-117990953D01*
X158278893Y-117983294D01*
X158271234Y-117975253D01*
X158263971Y-117966844D01*
X158257117Y-117958079D01*
X158250686Y-117948973D01*
X158244692Y-117939539D01*
X158239148Y-117929790D01*
X158234068Y-117919740D01*
X158229464Y-117909403D01*
X158225352Y-117898793D01*
X158221744Y-117887922D01*
X158218653Y-117876804D01*
X158216095Y-117865453D01*
X158214081Y-117853883D01*
X158212626Y-117842107D01*
X158211742Y-117830138D01*
X158211445Y-117817990D01*
X158211742Y-117805843D01*
X158212626Y-117793874D01*
X158214081Y-117782098D01*
X158216095Y-117770528D01*
X158218653Y-117759177D01*
X158221744Y-117748059D01*
X158225352Y-117737188D01*
X158229464Y-117726577D01*
X158234068Y-117716240D01*
X158239148Y-117706191D01*
X158244692Y-117696442D01*
X158250686Y-117687008D01*
X158257117Y-117677902D01*
X158263971Y-117669137D01*
X158271234Y-117660728D01*
X158278893Y-117652687D01*
X158286934Y-117645028D01*
X158295344Y-117637765D01*
X158304109Y-117630912D01*
X158313216Y-117624482D01*
X158322651Y-117618488D01*
X158332400Y-117612944D01*
X158342450Y-117607864D01*
X158352788Y-117603261D01*
X158363399Y-117599149D01*
X158374271Y-117595541D01*
X158385389Y-117592451D01*
X158396741Y-117589892D01*
X158408311Y-117587878D01*
X158420088Y-117586423D01*
X158432058Y-117585540D01*
X158444206Y-117585243D01*
X158456354Y-117585550D01*
G37*
X158456354Y-117585550D02*
X158468324Y-117586462D01*
X158480101Y-117587963D01*
X158491672Y-117590037D01*
X158503023Y-117592669D01*
X158514141Y-117595843D01*
X158525013Y-117599544D01*
X158535624Y-117603757D01*
X158545962Y-117608465D01*
X158556012Y-117613654D01*
X158565761Y-117619308D01*
X158575196Y-117625412D01*
X158584303Y-117631949D01*
X158593068Y-117638905D01*
X158601478Y-117646263D01*
X158609519Y-117654009D01*
X158617178Y-117662127D01*
X158624441Y-117670602D01*
X158631295Y-117679417D01*
X158637726Y-117688558D01*
X158643720Y-117698008D01*
X158649264Y-117707754D01*
X158654345Y-117717778D01*
X158658948Y-117728065D01*
X158663060Y-117738601D01*
X158666668Y-117749369D01*
X158669759Y-117760354D01*
X158672317Y-117771540D01*
X158674331Y-117782912D01*
X158675786Y-117794455D01*
X158676670Y-117806153D01*
X158676967Y-117817990D01*
X158676670Y-117830138D01*
X158675786Y-117842107D01*
X158674331Y-117853883D01*
X158672317Y-117865453D01*
X158669759Y-117876804D01*
X158666668Y-117887922D01*
X158663060Y-117898793D01*
X158658948Y-117909403D01*
X158654345Y-117919740D01*
X158649264Y-117929790D01*
X158643720Y-117939539D01*
X158637726Y-117948973D01*
X158631295Y-117958079D01*
X158624441Y-117966844D01*
X158617178Y-117975253D01*
X158609519Y-117983294D01*
X158601478Y-117990953D01*
X158593068Y-117998215D01*
X158584303Y-118005069D01*
X158575196Y-118011499D01*
X158565761Y-118017493D01*
X158556012Y-118023037D01*
X158545962Y-118028117D01*
X158535624Y-118032720D01*
X158525013Y-118036832D01*
X158514141Y-118040440D01*
X158503023Y-118043530D01*
X158491672Y-118046089D01*
X158480101Y-118048102D01*
X158468324Y-118049558D01*
X158456354Y-118050441D01*
X158444206Y-118050738D01*
X158432058Y-118050441D01*
X158420088Y-118049558D01*
X158408311Y-118048102D01*
X158396741Y-118046089D01*
X158385389Y-118043530D01*
X158374271Y-118040440D01*
X158363399Y-118036832D01*
X158352788Y-118032720D01*
X158342450Y-118028117D01*
X158332400Y-118023037D01*
X158322651Y-118017493D01*
X158313216Y-118011499D01*
X158304109Y-118005069D01*
X158295344Y-117998215D01*
X158286934Y-117990953D01*
X158278893Y-117983294D01*
X158271234Y-117975253D01*
X158263971Y-117966844D01*
X158257117Y-117958079D01*
X158250686Y-117948973D01*
X158244692Y-117939539D01*
X158239148Y-117929790D01*
X158234068Y-117919740D01*
X158229464Y-117909403D01*
X158225352Y-117898793D01*
X158221744Y-117887922D01*
X158218653Y-117876804D01*
X158216095Y-117865453D01*
X158214081Y-117853883D01*
X158212626Y-117842107D01*
X158211742Y-117830138D01*
X158211445Y-117817990D01*
X158211742Y-117805843D01*
X158212626Y-117793874D01*
X158214081Y-117782098D01*
X158216095Y-117770528D01*
X158218653Y-117759177D01*
X158221744Y-117748059D01*
X158225352Y-117737188D01*
X158229464Y-117726577D01*
X158234068Y-117716240D01*
X158239148Y-117706191D01*
X158244692Y-117696442D01*
X158250686Y-117687008D01*
X158257117Y-117677902D01*
X158263971Y-117669137D01*
X158271234Y-117660728D01*
X158278893Y-117652687D01*
X158286934Y-117645028D01*
X158295344Y-117637765D01*
X158304109Y-117630912D01*
X158313216Y-117624482D01*
X158322651Y-117618488D01*
X158332400Y-117612944D01*
X158342450Y-117607864D01*
X158352788Y-117603261D01*
X158363399Y-117599149D01*
X158374271Y-117595541D01*
X158385389Y-117592451D01*
X158396741Y-117589892D01*
X158408311Y-117587878D01*
X158420088Y-117586423D01*
X158432058Y-117585540D01*
X158444206Y-117585243D01*
X158456354Y-117585550D01*
D11*
X108463510Y-54781201D02*
X107469711Y-54781201D01*
X109800000Y-53718863D02*
X109643435Y-53730708D01*
X109494284Y-53765082D01*
X109354290Y-53820241D01*
X109184890Y-53923103D01*
X109039005Y-54055681D01*
X108920768Y-54213840D01*
X108834314Y-54393447D01*
X108792818Y-54539740D01*
X108773269Y-54694027D01*
X108771932Y-54746932D01*
D10*
G36*
X159512792Y-115910165D02*
G01*
X159502212Y-115945430D01*
X157386203Y-115945430D01*
X157160495Y-115099074D01*
X157038057Y-114640632D01*
X157164020Y-114640632D01*
X157176418Y-114689011D01*
X157210308Y-114816074D01*
X157260728Y-115002647D01*
X157322721Y-115229554D01*
X157326248Y-115233081D01*
X157484949Y-115818476D01*
X159406991Y-115818476D01*
X159565691Y-115229554D01*
X159677663Y-114813430D01*
X159710505Y-114687027D01*
X159718826Y-114652630D01*
X159720865Y-114640632D01*
X159717779Y-114641293D01*
X159714170Y-114642120D01*
X159709403Y-114643277D01*
X159703645Y-114644765D01*
X159697060Y-114646583D01*
X159693509Y-114647616D01*
X159689814Y-114648732D01*
X159685994Y-114649930D01*
X159682072Y-114651211D01*
X159676854Y-114653113D01*
X159671740Y-114654855D01*
X159666667Y-114656442D01*
X159661573Y-114657879D01*
X159656396Y-114659171D01*
X159651075Y-114660324D01*
X159645548Y-114661342D01*
X159639751Y-114662232D01*
X159633624Y-114662997D01*
X159627105Y-114663644D01*
X159620131Y-114664177D01*
X159612640Y-114664601D01*
X159604571Y-114664922D01*
X159595861Y-114665145D01*
X159576271Y-114665317D01*
X159559783Y-114665178D01*
X159544545Y-114664698D01*
X159530319Y-114663783D01*
X159516868Y-114662342D01*
X159503955Y-114660281D01*
X159491341Y-114657507D01*
X159478790Y-114653927D01*
X159466062Y-114649448D01*
X159452922Y-114643978D01*
X159439130Y-114637422D01*
X159424450Y-114629689D01*
X159408643Y-114620685D01*
X159391473Y-114610318D01*
X159372702Y-114598493D01*
X159329403Y-114570102D01*
X159292800Y-114545527D01*
X159264050Y-114526903D01*
X159252180Y-114519616D01*
X159241746Y-114513569D01*
X159232573Y-114508678D01*
X159224485Y-114504863D01*
X159217305Y-114502039D01*
X159210860Y-114500124D01*
X159204972Y-114499036D01*
X159199467Y-114498691D01*
X159194169Y-114499008D01*
X159188901Y-114499903D01*
X159183489Y-114501295D01*
X159177756Y-114503099D01*
X159170940Y-114505596D01*
X159165054Y-114507866D01*
X159162467Y-114508947D01*
X159160119Y-114510011D01*
X159158014Y-114511070D01*
X159156155Y-114512136D01*
X159154544Y-114513223D01*
X159153183Y-114514343D01*
X159152075Y-114515510D01*
X159151223Y-114516737D01*
X159150630Y-114518036D01*
X159150297Y-114519420D01*
X159150227Y-114520902D01*
X159150424Y-114522495D01*
X159150890Y-114524212D01*
X159151626Y-114526066D01*
X159152637Y-114528070D01*
X159153923Y-114530237D01*
X159155489Y-114532579D01*
X159157336Y-114535110D01*
X159159468Y-114537842D01*
X159161886Y-114540789D01*
X159167593Y-114547377D01*
X159174477Y-114554977D01*
X159191863Y-114573629D01*
X159203235Y-114585795D01*
X159213574Y-114597233D01*
X159222921Y-114608040D01*
X159231318Y-114618316D01*
X159238805Y-114628158D01*
X159245424Y-114637663D01*
X159251217Y-114646932D01*
X159256225Y-114656060D01*
X159260488Y-114665148D01*
X159264049Y-114674292D01*
X159266949Y-114683591D01*
X159269229Y-114693144D01*
X159270930Y-114703047D01*
X159272095Y-114713400D01*
X159272763Y-114724301D01*
X159272976Y-114735847D01*
X159272973Y-114736140D01*
X159272890Y-114744785D01*
X159272618Y-114753128D01*
X159272139Y-114760945D01*
X159271433Y-114768302D01*
X159270479Y-114775266D01*
X159269257Y-114781905D01*
X159267745Y-114788285D01*
X159265923Y-114794475D01*
X159263770Y-114800540D01*
X159261266Y-114806549D01*
X159258391Y-114812568D01*
X159255122Y-114818664D01*
X159251441Y-114824905D01*
X159247325Y-114831358D01*
X159242755Y-114838090D01*
X159237709Y-114845168D01*
X159234863Y-114849213D01*
X159231634Y-114853392D01*
X159228054Y-114857674D01*
X159224154Y-114862029D01*
X159219964Y-114866425D01*
X159215516Y-114870831D01*
X159210841Y-114875217D01*
X159205969Y-114879551D01*
X159200932Y-114883802D01*
X159195761Y-114887940D01*
X159190486Y-114891933D01*
X159185140Y-114895751D01*
X159179751Y-114899362D01*
X159174353Y-114902735D01*
X159168975Y-114905839D01*
X159163649Y-114908644D01*
X159164310Y-114911675D01*
X159165137Y-114915153D01*
X159166294Y-114919665D01*
X159167782Y-114925003D01*
X159168650Y-114927917D01*
X159169600Y-114930960D01*
X159170633Y-114934107D01*
X159171749Y-114937332D01*
X159172948Y-114940608D01*
X159174229Y-114943909D01*
X159176678Y-114952193D01*
X159178739Y-114960509D01*
X159180415Y-114968844D01*
X159181709Y-114977190D01*
X159182627Y-114985537D01*
X159183171Y-114993872D01*
X159183156Y-115010472D01*
X159181694Y-115026906D01*
X159178816Y-115043091D01*
X159174554Y-115058947D01*
X159168939Y-115074389D01*
X159162001Y-115089335D01*
X159153771Y-115103703D01*
X159144281Y-115117409D01*
X159133562Y-115130372D01*
X159121644Y-115142508D01*
X159115245Y-115148240D01*
X159108558Y-115153735D01*
X159101587Y-115158982D01*
X159094336Y-115163970D01*
X159086808Y-115168690D01*
X159079008Y-115173131D01*
X159075114Y-115175032D01*
X159071328Y-115176774D01*
X159067594Y-115178361D01*
X159063855Y-115179798D01*
X159060053Y-115181090D01*
X159056133Y-115182243D01*
X159052037Y-115183261D01*
X159047709Y-115184151D01*
X159043091Y-115184916D01*
X159038128Y-115185563D01*
X159032761Y-115186096D01*
X159026935Y-115186520D01*
X159020592Y-115186841D01*
X159013675Y-115187064D01*
X159006129Y-115187194D01*
X158997895Y-115187236D01*
X158983141Y-115187216D01*
X158970453Y-115187071D01*
X158959584Y-115186678D01*
X158954753Y-115186350D01*
X158950285Y-115185914D01*
X158946147Y-115185353D01*
X158942308Y-115184653D01*
X158938739Y-115183798D01*
X158935406Y-115182773D01*
X158932281Y-115181562D01*
X158929331Y-115180149D01*
X158926526Y-115178519D01*
X158923835Y-115176657D01*
X158906201Y-115166077D01*
X158885041Y-115197816D01*
X158880831Y-115204381D01*
X158876162Y-115210833D01*
X158871069Y-115217141D01*
X158865589Y-115223272D01*
X158859757Y-115229198D01*
X158853610Y-115234885D01*
X158847185Y-115240304D01*
X158840516Y-115245423D01*
X158833641Y-115250212D01*
X158826595Y-115254639D01*
X158819416Y-115258673D01*
X158812137Y-115262284D01*
X158804797Y-115265440D01*
X158797432Y-115268111D01*
X158790076Y-115270265D01*
X158786413Y-115271139D01*
X158782767Y-115271872D01*
X158775218Y-115273651D01*
X158767172Y-115275033D01*
X158758714Y-115276033D01*
X158749925Y-115276666D01*
X158740888Y-115276947D01*
X158731685Y-115276893D01*
X158722400Y-115276518D01*
X158713115Y-115275839D01*
X158703913Y-115274871D01*
X158694875Y-115273628D01*
X158686086Y-115272128D01*
X158677628Y-115270384D01*
X158669582Y-115268413D01*
X158662033Y-115266231D01*
X158655062Y-115263852D01*
X158648753Y-115261292D01*
X158645909Y-115259808D01*
X158642698Y-115258014D01*
X158635363Y-115253578D01*
X158627118Y-115248151D01*
X158622770Y-115245117D01*
X158618335Y-115241897D01*
X158613859Y-115238511D01*
X158609388Y-115234981D01*
X158604968Y-115231328D01*
X158600647Y-115227570D01*
X158596470Y-115223730D01*
X158592484Y-115219829D01*
X158588736Y-115215885D01*
X158585273Y-115211922D01*
X158546479Y-115176657D01*
X158507686Y-115215448D01*
X158496555Y-115226393D01*
X158491506Y-115231186D01*
X158486746Y-115235560D01*
X158482235Y-115239542D01*
X158477929Y-115243157D01*
X158473790Y-115246431D01*
X158469774Y-115249391D01*
X158465841Y-115252060D01*
X158461949Y-115254467D01*
X158458057Y-115256635D01*
X158454124Y-115258592D01*
X158450109Y-115260363D01*
X158445969Y-115261974D01*
X158441664Y-115263451D01*
X158437152Y-115264819D01*
X158428941Y-115267258D01*
X158420228Y-115269289D01*
X158411092Y-115270917D01*
X158401610Y-115272147D01*
X158391859Y-115272985D01*
X158381917Y-115273435D01*
X158371861Y-115273503D01*
X158361769Y-115273194D01*
X158351719Y-115272513D01*
X158341787Y-115271465D01*
X158332052Y-115270056D01*
X158322590Y-115268290D01*
X158313480Y-115266173D01*
X158304798Y-115263710D01*
X158296623Y-115260906D01*
X158289032Y-115257766D01*
X158284602Y-115254657D01*
X158277894Y-115249260D01*
X158257457Y-115231372D01*
X158227349Y-115203650D01*
X158187199Y-115165637D01*
X158136633Y-115116879D01*
X158075282Y-115056922D01*
X158002771Y-114985311D01*
X157918730Y-114901591D01*
X157675830Y-114660468D01*
X157573115Y-114559523D01*
X157567660Y-114562608D01*
X157561399Y-114566218D01*
X157553277Y-114570984D01*
X157543669Y-114576742D01*
X157532944Y-114583326D01*
X157521475Y-114590572D01*
X157509635Y-114598314D01*
X157480161Y-114616373D01*
X157466883Y-114624117D01*
X157454365Y-114631044D01*
X157442446Y-114637186D01*
X157430966Y-114642574D01*
X157419765Y-114647239D01*
X157408683Y-114651211D01*
X157397560Y-114654522D01*
X157386235Y-114657204D01*
X157374549Y-114659285D01*
X157362340Y-114660799D01*
X157349450Y-114661775D01*
X157335718Y-114662245D01*
X157320984Y-114662240D01*
X157305087Y-114661791D01*
X157285497Y-114661763D01*
X157268718Y-114661570D01*
X157254253Y-114661047D01*
X157247734Y-114660609D01*
X157241607Y-114660027D01*
X157235811Y-114659280D01*
X157230283Y-114658347D01*
X157224962Y-114657207D01*
X157219786Y-114655840D01*
X157214692Y-114654225D01*
X157209619Y-114652341D01*
X157204504Y-114650168D01*
X157199287Y-114647685D01*
X157195985Y-114646405D01*
X157192709Y-114645212D01*
X157186337Y-114643111D01*
X157180379Y-114641424D01*
X157177620Y-114640748D01*
X157175041Y-114640191D01*
X157172669Y-114639758D01*
X157170529Y-114639454D01*
X157168648Y-114639284D01*
X157167051Y-114639254D01*
X157165763Y-114639369D01*
X157164812Y-114639633D01*
X157164470Y-114639823D01*
X157164222Y-114640052D01*
X157164071Y-114640322D01*
X157164020Y-114640632D01*
X157038057Y-114640632D01*
X157000031Y-114498250D01*
X156952200Y-114312063D01*
X156934788Y-114238613D01*
X156934889Y-114236280D01*
X156935190Y-114233912D01*
X156935680Y-114231517D01*
X156936351Y-114229102D01*
X156937196Y-114226674D01*
X156938205Y-114224240D01*
X156939370Y-114221807D01*
X156940684Y-114219383D01*
X156942137Y-114216974D01*
X156943721Y-114214588D01*
X156945427Y-114212232D01*
X156947248Y-114209913D01*
X156951199Y-114205412D01*
X156955507Y-114201145D01*
X156960104Y-114197166D01*
X156964923Y-114193534D01*
X156969897Y-114190304D01*
X156972421Y-114188858D01*
X156974959Y-114187535D01*
X156977502Y-114186340D01*
X156980041Y-114185281D01*
X156982569Y-114184366D01*
X156985077Y-114183602D01*
X156987557Y-114182995D01*
X156990000Y-114182552D01*
X156992397Y-114182281D01*
X156993299Y-114182246D01*
X156995799Y-114182314D01*
X157000292Y-114182686D01*
X157004681Y-114183306D01*
X157008957Y-114184173D01*
X157013109Y-114185289D01*
X157017126Y-114186653D01*
X157020999Y-114188265D01*
X157024717Y-114190124D01*
X157028269Y-114192232D01*
X157031646Y-114194588D01*
X157034837Y-114197191D01*
X157037831Y-114200043D01*
X157040619Y-114203142D01*
X157043190Y-114206489D01*
X157045534Y-114210085D01*
X157047640Y-114213928D01*
X157052710Y-114229797D01*
X157061747Y-114258891D01*
X157073429Y-114297241D01*
X157086434Y-114340881D01*
X157109357Y-114419786D01*
X157113642Y-114433830D01*
X157117182Y-114444527D01*
X157119896Y-114451339D01*
X157120917Y-114453120D01*
X157121701Y-114453729D01*
X157126539Y-114457507D01*
X157132963Y-114462132D01*
X157149639Y-114473345D01*
X157169869Y-114486211D01*
X157191793Y-114499573D01*
X157213553Y-114512274D01*
X157233287Y-114523156D01*
X157241814Y-114527554D01*
X157249137Y-114531063D01*
X157255023Y-114533539D01*
X157259241Y-114534838D01*
X157264809Y-114536077D01*
X157270882Y-114537152D01*
X157277389Y-114538061D01*
X157284258Y-114538805D01*
X157291417Y-114539384D01*
X157298792Y-114539797D01*
X157306312Y-114540045D01*
X157313905Y-114540127D01*
X157321497Y-114540045D01*
X157329017Y-114539797D01*
X157336392Y-114539384D01*
X157343551Y-114538805D01*
X157350420Y-114538061D01*
X157356927Y-114537152D01*
X157363001Y-114536077D01*
X157368568Y-114534838D01*
X157372587Y-114533698D01*
X157377908Y-114531669D01*
X157384345Y-114528856D01*
X157391712Y-114525360D01*
X157408491Y-114516737D01*
X157426758Y-114506626D01*
X157445025Y-114495854D01*
X157461805Y-114485247D01*
X157469171Y-114480263D01*
X157475608Y-114475631D01*
X157480929Y-114471454D01*
X157484948Y-114467835D01*
X157461584Y-114442268D01*
X157435850Y-114414276D01*
X157403835Y-114379673D01*
X157362520Y-114336280D01*
X157344431Y-114316475D01*
X157327901Y-114297682D01*
X157312818Y-114279715D01*
X157299068Y-114262390D01*
X157286537Y-114245518D01*
X157275111Y-114228916D01*
X157264677Y-114212396D01*
X157255122Y-114195772D01*
X157246331Y-114178860D01*
X157238191Y-114161472D01*
X157230588Y-114143423D01*
X157223409Y-114124526D01*
X157216540Y-114104597D01*
X157209868Y-114083448D01*
X157205060Y-114066374D01*
X157201161Y-114051324D01*
X157199527Y-114044159D01*
X157198089Y-114037019D01*
X157196837Y-114029744D01*
X157195761Y-114022176D01*
X157194850Y-114014152D01*
X157194094Y-114005514D01*
X157193483Y-113996102D01*
X157193006Y-113985754D01*
X157192653Y-113974311D01*
X157192414Y-113961612D01*
X157192235Y-113931810D01*
X157192266Y-113924291D01*
X157312476Y-113924291D01*
X157312518Y-113948797D01*
X157313905Y-113973411D01*
X157316657Y-113998082D01*
X157320790Y-114022759D01*
X157326323Y-114047390D01*
X157333274Y-114071925D01*
X157341662Y-114096313D01*
X157351504Y-114120503D01*
X157362818Y-114144444D01*
X157375622Y-114168084D01*
X157379654Y-114174018D01*
X157386553Y-114182658D01*
X157396459Y-114194150D01*
X157409511Y-114208638D01*
X157445611Y-114247182D01*
X157495970Y-114299445D01*
X157561703Y-114366586D01*
X157643925Y-114449761D01*
X157862304Y-114668844D01*
X158196457Y-115002096D01*
X158301707Y-115105246D01*
X158332221Y-115134009D01*
X158345460Y-115144919D01*
X158349426Y-115146779D01*
X158353386Y-115148394D01*
X158357333Y-115149766D01*
X158361261Y-115150897D01*
X158365163Y-115151791D01*
X158369032Y-115152450D01*
X158372863Y-115152877D01*
X158376649Y-115153074D01*
X158380383Y-115153043D01*
X158384058Y-115152788D01*
X158387670Y-115152311D01*
X158391210Y-115151614D01*
X158394673Y-115150700D01*
X158398051Y-115149571D01*
X158401340Y-115148231D01*
X158404531Y-115146682D01*
X158407620Y-115144926D01*
X158410598Y-115142966D01*
X158413460Y-115140805D01*
X158416200Y-115138444D01*
X158418810Y-115135888D01*
X158421285Y-115133137D01*
X158423617Y-115130196D01*
X158425802Y-115127066D01*
X158427831Y-115123750D01*
X158429698Y-115120251D01*
X158431398Y-115116571D01*
X158432924Y-115112712D01*
X158434269Y-115108678D01*
X158435426Y-115104471D01*
X158436390Y-115100094D01*
X158437153Y-115095548D01*
X158437153Y-115070863D01*
X158229079Y-114859274D01*
X158017478Y-114647685D01*
X158109172Y-114555997D01*
X158408940Y-114855747D01*
X158571112Y-115017139D01*
X158624983Y-115069919D01*
X158664183Y-115107450D01*
X158691315Y-115132252D01*
X158708983Y-115146847D01*
X158719790Y-115153756D01*
X158723435Y-115155115D01*
X158726341Y-115155498D01*
X158730257Y-115155426D01*
X158734068Y-115155210D01*
X158737773Y-115154850D01*
X158741371Y-115154348D01*
X158744860Y-115153704D01*
X158748240Y-115152918D01*
X158751508Y-115151991D01*
X158754665Y-115150925D01*
X158757707Y-115149719D01*
X158760635Y-115148374D01*
X158763446Y-115146891D01*
X158766140Y-115145270D01*
X158768715Y-115143512D01*
X158771170Y-115141619D01*
X158773504Y-115139589D01*
X158775715Y-115137425D01*
X158777801Y-115135126D01*
X158779763Y-115132694D01*
X158781598Y-115130129D01*
X158783305Y-115127431D01*
X158784883Y-115124602D01*
X158786331Y-115121641D01*
X158787647Y-115118550D01*
X158788830Y-115115329D01*
X158789878Y-115111980D01*
X158790791Y-115108501D01*
X158791567Y-115104895D01*
X158792205Y-115101162D01*
X158792703Y-115097302D01*
X158793060Y-115093316D01*
X158793276Y-115089204D01*
X158793348Y-115084969D01*
X158793309Y-115083007D01*
X158793159Y-115081055D01*
X158792848Y-115079058D01*
X158792329Y-115076965D01*
X158791551Y-115074722D01*
X158790465Y-115072276D01*
X158789024Y-115069575D01*
X158787176Y-115066565D01*
X158784874Y-115063193D01*
X158782069Y-115059407D01*
X158778711Y-115055153D01*
X158774750Y-115050379D01*
X158770139Y-115045031D01*
X158764828Y-115039057D01*
X158758768Y-115032404D01*
X158751909Y-115025018D01*
X158744204Y-115016848D01*
X158735602Y-115007839D01*
X158715513Y-114987095D01*
X158691250Y-114962363D01*
X158662420Y-114933220D01*
X158628630Y-114899241D01*
X158589489Y-114860004D01*
X158493580Y-114764059D01*
X158193812Y-114464308D01*
X158285506Y-114372620D01*
X158627594Y-114714688D01*
X158815334Y-114902087D01*
X158876617Y-114962582D01*
X158920749Y-115005182D01*
X158951160Y-115033070D01*
X158971280Y-115049428D01*
X158978553Y-115054278D01*
X158984540Y-115057439D01*
X158989669Y-115059308D01*
X158994369Y-115060283D01*
X158998955Y-115060791D01*
X159003451Y-115061000D01*
X159007848Y-115060919D01*
X159012140Y-115060559D01*
X159016318Y-115059930D01*
X159020375Y-115059043D01*
X159024302Y-115057909D01*
X159028093Y-115056536D01*
X159031739Y-115054937D01*
X159035232Y-115053120D01*
X159038566Y-115051097D01*
X159041731Y-115048877D01*
X159044721Y-115046472D01*
X159047527Y-115043891D01*
X159050143Y-115041144D01*
X159052559Y-115038243D01*
X159054769Y-115035197D01*
X159056764Y-115032016D01*
X159058537Y-115028712D01*
X159060081Y-115025294D01*
X159061387Y-115021773D01*
X159062447Y-115018158D01*
X159063254Y-115014461D01*
X159063800Y-115010692D01*
X159064078Y-115006861D01*
X159064079Y-115002978D01*
X159063796Y-114999054D01*
X159063222Y-114995098D01*
X159062347Y-114991122D01*
X159061166Y-114987136D01*
X159059669Y-114983150D01*
X159057849Y-114979174D01*
X159055441Y-114975485D01*
X159049659Y-114968505D01*
X159028699Y-114945397D01*
X158996415Y-114911296D01*
X158954253Y-114867649D01*
X158846083Y-114757502D01*
X158715761Y-114626526D01*
X158479473Y-114389811D01*
X158407286Y-114316582D01*
X158387600Y-114296022D01*
X158380726Y-114287984D01*
X158380777Y-114287602D01*
X158380930Y-114287121D01*
X158381532Y-114285870D01*
X158382516Y-114284257D01*
X158383867Y-114282309D01*
X158385569Y-114280050D01*
X158387607Y-114277508D01*
X158389966Y-114274707D01*
X158392629Y-114271674D01*
X158395581Y-114268434D01*
X158398807Y-114265014D01*
X158402292Y-114261438D01*
X158406019Y-114257733D01*
X158409974Y-114253925D01*
X158414140Y-114250040D01*
X158418503Y-114246103D01*
X158423046Y-114242140D01*
X158465367Y-114199822D01*
X158761608Y-114496046D01*
X158906863Y-114640577D01*
X159000541Y-114731880D01*
X159031344Y-114760773D01*
X159053220Y-114780204D01*
X159067492Y-114791451D01*
X159072190Y-114794407D01*
X159075483Y-114795797D01*
X159079448Y-114796326D01*
X159083405Y-114796594D01*
X159087342Y-114796610D01*
X159091249Y-114796383D01*
X159095118Y-114795920D01*
X159098939Y-114795232D01*
X159102701Y-114794324D01*
X159106396Y-114793207D01*
X159110013Y-114791889D01*
X159113543Y-114790377D01*
X159116976Y-114788681D01*
X159120303Y-114786809D01*
X159123513Y-114784768D01*
X159126598Y-114782569D01*
X159129547Y-114780218D01*
X159132350Y-114777724D01*
X159134999Y-114775096D01*
X159137483Y-114772342D01*
X159139792Y-114769471D01*
X159141918Y-114766490D01*
X159143850Y-114763409D01*
X159145578Y-114760235D01*
X159147093Y-114756978D01*
X159148386Y-114753645D01*
X159149446Y-114750245D01*
X159150263Y-114746786D01*
X159150829Y-114743276D01*
X159151134Y-114739725D01*
X159151167Y-114736140D01*
X159150920Y-114732530D01*
X159150381Y-114728903D01*
X159149543Y-114725268D01*
X159149139Y-114723892D01*
X159147922Y-114721745D01*
X159143027Y-114715108D01*
X159134804Y-114705299D01*
X159123203Y-114692262D01*
X159089658Y-114656274D01*
X159041979Y-114606690D01*
X158979752Y-114543055D01*
X158902565Y-114464914D01*
X158701654Y-114263299D01*
X158701654Y-114259772D01*
X158530775Y-114087746D01*
X158392629Y-113946797D01*
X158301431Y-113852133D01*
X158277881Y-113826911D01*
X158271399Y-113818962D01*
X158273980Y-113819490D01*
X158278989Y-113821036D01*
X158295755Y-113826952D01*
X158320621Y-113836257D01*
X158352513Y-113848497D01*
X158433075Y-113879959D01*
X158528847Y-113917704D01*
X158682809Y-113976938D01*
X158731562Y-113994632D01*
X158750365Y-114000842D01*
X158766016Y-114005425D01*
X158778940Y-114008479D01*
X158789560Y-114010102D01*
X158798299Y-114010392D01*
X158805581Y-114009447D01*
X158811830Y-114007366D01*
X158817470Y-114004247D01*
X158828615Y-113995286D01*
X158830547Y-113993593D01*
X158832376Y-113991820D01*
X158834101Y-113989973D01*
X158835723Y-113988054D01*
X158837242Y-113986069D01*
X158838658Y-113984020D01*
X158839970Y-113981912D01*
X158841179Y-113979748D01*
X158842284Y-113977532D01*
X158843287Y-113975269D01*
X158844185Y-113972962D01*
X158844981Y-113970615D01*
X158845673Y-113968231D01*
X158846262Y-113965816D01*
X158846748Y-113963372D01*
X158847130Y-113960903D01*
X158847409Y-113958414D01*
X158847585Y-113955908D01*
X158847657Y-113953389D01*
X158847626Y-113950861D01*
X158847492Y-113948328D01*
X158847254Y-113945793D01*
X158846913Y-113943262D01*
X158846469Y-113940736D01*
X158845921Y-113938221D01*
X158845270Y-113935720D01*
X158844516Y-113933237D01*
X158843658Y-113930777D01*
X158842698Y-113928342D01*
X158841633Y-113925936D01*
X158840466Y-113923565D01*
X158839195Y-113921230D01*
X158835000Y-113913316D01*
X158833882Y-113911572D01*
X158832539Y-113909832D01*
X158830871Y-113908052D01*
X158828780Y-113906188D01*
X158826168Y-113904194D01*
X158822935Y-113902027D01*
X158818983Y-113899641D01*
X158814212Y-113896993D01*
X158808525Y-113894037D01*
X158801821Y-113890729D01*
X158794003Y-113887025D01*
X158784972Y-113882880D01*
X158774629Y-113878249D01*
X158762875Y-113873088D01*
X158749610Y-113867353D01*
X158734738Y-113860998D01*
X158699771Y-113846252D01*
X158657185Y-113828495D01*
X158606188Y-113807370D01*
X158545991Y-113782520D01*
X158394833Y-113720221D01*
X158107739Y-113600321D01*
X157957524Y-113538607D01*
X157917422Y-113522958D01*
X157891950Y-113513922D01*
X157858777Y-113505106D01*
X157846281Y-113502048D01*
X157832699Y-113499485D01*
X157818188Y-113497419D01*
X157802901Y-113495849D01*
X157786995Y-113494774D01*
X157770624Y-113494196D01*
X157753943Y-113494113D01*
X157737107Y-113494526D01*
X157720271Y-113495435D01*
X157703590Y-113496840D01*
X157687218Y-113498741D01*
X157671312Y-113501138D01*
X157656026Y-113504031D01*
X157641514Y-113507420D01*
X157627933Y-113511305D01*
X157615436Y-113515685D01*
X157590446Y-113524913D01*
X157566404Y-113535371D01*
X157543328Y-113547008D01*
X157521235Y-113559773D01*
X157500146Y-113573615D01*
X157480076Y-113588483D01*
X157461045Y-113604327D01*
X157443070Y-113621094D01*
X157426170Y-113638734D01*
X157410362Y-113657196D01*
X157395665Y-113676430D01*
X157382097Y-113696383D01*
X157369676Y-113717005D01*
X157358419Y-113738245D01*
X157348346Y-113760052D01*
X157339474Y-113782375D01*
X157331821Y-113805163D01*
X157325405Y-113828365D01*
X157320244Y-113851930D01*
X157316357Y-113875806D01*
X157313762Y-113899944D01*
X157312476Y-113924291D01*
X157192266Y-113924291D01*
X157192455Y-113878912D01*
X157192979Y-113858911D01*
X157193998Y-113841884D01*
X157194745Y-113834177D01*
X157195679Y-113826842D01*
X157196819Y-113819754D01*
X157198186Y-113812791D01*
X157199801Y-113805828D01*
X157201685Y-113798740D01*
X157206342Y-113783697D01*
X157212652Y-113762717D01*
X157219672Y-113742101D01*
X157235781Y-113702024D01*
X157254556Y-113663578D01*
X157275883Y-113626879D01*
X157299649Y-113592040D01*
X157325739Y-113559174D01*
X157354040Y-113528394D01*
X157384439Y-113499816D01*
X157416822Y-113473551D01*
X157451074Y-113449715D01*
X157487083Y-113428420D01*
X157505711Y-113418761D01*
X157524735Y-113409780D01*
X157544142Y-113401492D01*
X157563916Y-113393910D01*
X157584044Y-113387048D01*
X157604512Y-113380921D01*
X157625306Y-113375543D01*
X157646411Y-113370929D01*
X157667813Y-113367092D01*
X157689497Y-113364046D01*
X157710010Y-113361732D01*
X157727299Y-113360079D01*
X157742439Y-113359087D01*
X157749539Y-113358839D01*
X157756504Y-113358757D01*
X157763470Y-113358839D01*
X157770570Y-113359087D01*
X157785709Y-113360079D01*
X157802998Y-113361732D01*
X157823511Y-113364046D01*
X157827677Y-113364167D01*
X157832204Y-113364515D01*
X157837041Y-113365069D01*
X157842136Y-113365810D01*
X157852896Y-113367766D01*
X157864068Y-113370218D01*
X157875240Y-113373000D01*
X157885999Y-113375948D01*
X157895932Y-113378896D01*
X157904625Y-113381679D01*
X158080849Y-113450610D01*
X158412467Y-113586655D01*
X158738795Y-113723362D01*
X158849761Y-113771196D01*
X158899149Y-113794277D01*
X158908156Y-113801174D01*
X158916651Y-113808624D01*
X158924620Y-113816601D01*
X158932046Y-113825078D01*
X158938914Y-113834032D01*
X158945209Y-113843434D01*
X158950915Y-113853260D01*
X158956017Y-113863484D01*
X158960498Y-113874080D01*
X158964344Y-113885022D01*
X158967539Y-113896284D01*
X158970068Y-113907841D01*
X158971915Y-113919666D01*
X158973064Y-113931734D01*
X158973501Y-113944019D01*
X158973209Y-113956495D01*
X158972373Y-113965348D01*
X158971192Y-113974049D01*
X158969671Y-113982591D01*
X158967816Y-113990968D01*
X158965633Y-113999171D01*
X158963128Y-114007194D01*
X158960306Y-114015030D01*
X158957174Y-114022672D01*
X158953737Y-114030112D01*
X158950001Y-114037343D01*
X158945972Y-114044359D01*
X158941655Y-114051152D01*
X158937057Y-114057715D01*
X158932183Y-114064041D01*
X158927039Y-114070124D01*
X158921631Y-114075954D01*
X158915965Y-114081527D01*
X158910047Y-114086834D01*
X158903881Y-114091869D01*
X158897475Y-114096624D01*
X158890834Y-114101093D01*
X158883963Y-114105267D01*
X158876869Y-114109141D01*
X158869558Y-114112707D01*
X158862034Y-114115958D01*
X158854305Y-114118886D01*
X158846376Y-114121485D01*
X158838252Y-114123748D01*
X158829939Y-114125667D01*
X158821444Y-114127236D01*
X158812772Y-114128446D01*
X158803929Y-114129292D01*
X158765135Y-114129292D01*
X158909729Y-114277405D01*
X158992055Y-114359395D01*
X159018216Y-114384769D01*
X159036690Y-114401713D01*
X159043586Y-114407488D01*
X159049212Y-114411714D01*
X159053784Y-114414576D01*
X159057519Y-114416260D01*
X159060634Y-114416952D01*
X159063346Y-114416838D01*
X159065873Y-114416105D01*
X159068430Y-114414937D01*
X159077447Y-114409231D01*
X159086015Y-114404000D01*
X159094180Y-114399223D01*
X159101988Y-114394881D01*
X159109487Y-114390951D01*
X159116722Y-114387414D01*
X159123740Y-114384249D01*
X159130588Y-114381436D01*
X159137311Y-114378953D01*
X159143957Y-114376780D01*
X159150572Y-114374896D01*
X159157203Y-114373281D01*
X159163896Y-114371914D01*
X159170697Y-114370774D01*
X159177653Y-114369840D01*
X159184810Y-114369093D01*
X159196329Y-114368028D01*
X159207196Y-114367516D01*
X159217589Y-114367613D01*
X159227681Y-114368377D01*
X159232670Y-114369026D01*
X159237650Y-114369864D01*
X159242643Y-114370896D01*
X159247671Y-114372131D01*
X159252755Y-114373574D01*
X159257918Y-114375234D01*
X159268569Y-114379232D01*
X159279798Y-114384180D01*
X159291782Y-114390135D01*
X159304695Y-114397154D01*
X159318714Y-114405295D01*
X159334014Y-114414613D01*
X159350771Y-114425166D01*
X159389358Y-114450202D01*
X159425988Y-114474812D01*
X159454932Y-114493677D01*
X159467012Y-114501227D01*
X159477759Y-114507666D01*
X159487370Y-114513103D01*
X159496040Y-114517646D01*
X159503966Y-114521404D01*
X159511345Y-114524486D01*
X159518373Y-114526999D01*
X159525245Y-114529052D01*
X159532159Y-114530754D01*
X159539311Y-114532214D01*
X159555112Y-114534838D01*
X159564953Y-114535911D01*
X159574660Y-114536484D01*
X159584264Y-114536550D01*
X159593795Y-114536105D01*
X159603285Y-114535143D01*
X159612765Y-114533660D01*
X159622265Y-114531650D01*
X159631817Y-114529107D01*
X159641452Y-114526028D01*
X159651200Y-114522405D01*
X159661093Y-114518236D01*
X159671162Y-114513514D01*
X159681437Y-114508233D01*
X159691950Y-114502390D01*
X159702731Y-114495978D01*
X159713813Y-114488994D01*
X159734532Y-114475990D01*
X159744065Y-114469901D01*
X159752606Y-114464308D01*
X159759825Y-114459377D01*
X159765390Y-114455272D01*
X159767450Y-114453581D01*
X159768972Y-114452158D01*
X159769916Y-114451025D01*
X159770158Y-114450574D01*
X159770239Y-114450202D01*
X159781260Y-114416260D01*
X159792557Y-114380279D01*
X159798928Y-114359416D01*
X159805506Y-114337355D01*
X159817960Y-114293715D01*
X159828430Y-114255364D01*
X159836255Y-114226271D01*
X159840773Y-114210402D01*
X159841486Y-114208759D01*
X159842299Y-114207139D01*
X159843210Y-114205544D01*
X159844217Y-114203975D01*
X159845317Y-114202435D01*
X159846508Y-114200925D01*
X159847786Y-114199447D01*
X159849149Y-114198004D01*
X159850595Y-114196596D01*
X159852121Y-114195227D01*
X159853725Y-114193898D01*
X159855404Y-114192611D01*
X159857154Y-114191367D01*
X159858975Y-114190170D01*
X159860863Y-114189020D01*
X159862815Y-114187920D01*
X159864829Y-114186872D01*
X159866903Y-114185877D01*
X159869034Y-114184938D01*
X159871219Y-114184056D01*
X159873455Y-114183234D01*
X159875741Y-114182473D01*
X159878073Y-114181775D01*
X159880448Y-114181143D01*
X159882866Y-114180578D01*
X159885322Y-114180081D01*
X159887814Y-114179656D01*
X159890340Y-114179304D01*
X159892896Y-114179027D01*
X159895482Y-114178826D01*
X159898093Y-114178704D01*
X159900727Y-114178663D01*
X159903071Y-114178755D01*
X159905468Y-114179026D01*
X159907911Y-114179468D01*
X159910391Y-114180075D01*
X159912899Y-114180840D01*
X159915427Y-114181755D01*
X159917966Y-114182813D01*
X159920509Y-114184008D01*
X159925571Y-114186778D01*
X159930545Y-114190007D01*
X159935364Y-114193640D01*
X159939961Y-114197618D01*
X159944269Y-114201886D01*
X159948220Y-114206386D01*
X159951748Y-114211062D01*
X159953331Y-114213448D01*
X159954784Y-114215857D01*
X159956098Y-114218281D01*
X159957263Y-114220713D01*
X159958272Y-114223147D01*
X159959117Y-114225575D01*
X159959788Y-114227990D01*
X159960278Y-114230385D01*
X159960579Y-114232753D01*
X159960680Y-114235087D01*
X159853690Y-114640632D01*
X159771121Y-114953607D01*
X159512792Y-115910165D01*
G37*
X159512792Y-115910165D02*
X159502212Y-115945430D01*
X157386203Y-115945430D01*
X157160495Y-115099074D01*
X157038057Y-114640632D01*
X157164020Y-114640632D01*
X157176418Y-114689011D01*
X157210308Y-114816074D01*
X157260728Y-115002647D01*
X157322721Y-115229554D01*
X157326248Y-115233081D01*
X157484949Y-115818476D01*
X159406991Y-115818476D01*
X159565691Y-115229554D01*
X159677663Y-114813430D01*
X159710505Y-114687027D01*
X159718826Y-114652630D01*
X159720865Y-114640632D01*
X159717779Y-114641293D01*
X159714170Y-114642120D01*
X159709403Y-114643277D01*
X159703645Y-114644765D01*
X159697060Y-114646583D01*
X159693509Y-114647616D01*
X159689814Y-114648732D01*
X159685994Y-114649930D01*
X159682072Y-114651211D01*
X159676854Y-114653113D01*
X159671740Y-114654855D01*
X159666667Y-114656442D01*
X159661573Y-114657879D01*
X159656396Y-114659171D01*
X159651075Y-114660324D01*
X159645548Y-114661342D01*
X159639751Y-114662232D01*
X159633624Y-114662997D01*
X159627105Y-114663644D01*
X159620131Y-114664177D01*
X159612640Y-114664601D01*
X159604571Y-114664922D01*
X159595861Y-114665145D01*
X159576271Y-114665317D01*
X159559783Y-114665178D01*
X159544545Y-114664698D01*
X159530319Y-114663783D01*
X159516868Y-114662342D01*
X159503955Y-114660281D01*
X159491341Y-114657507D01*
X159478790Y-114653927D01*
X159466062Y-114649448D01*
X159452922Y-114643978D01*
X159439130Y-114637422D01*
X159424450Y-114629689D01*
X159408643Y-114620685D01*
X159391473Y-114610318D01*
X159372702Y-114598493D01*
X159329403Y-114570102D01*
X159292800Y-114545527D01*
X159264050Y-114526903D01*
X159252180Y-114519616D01*
X159241746Y-114513569D01*
X159232573Y-114508678D01*
X159224485Y-114504863D01*
X159217305Y-114502039D01*
X159210860Y-114500124D01*
X159204972Y-114499036D01*
X159199467Y-114498691D01*
X159194169Y-114499008D01*
X159188901Y-114499903D01*
X159183489Y-114501295D01*
X159177756Y-114503099D01*
X159170940Y-114505596D01*
X159165054Y-114507866D01*
X159162467Y-114508947D01*
X159160119Y-114510011D01*
X159158014Y-114511070D01*
X159156155Y-114512136D01*
X159154544Y-114513223D01*
X159153183Y-114514343D01*
X159152075Y-114515510D01*
X159151223Y-114516737D01*
X159150630Y-114518036D01*
X159150297Y-114519420D01*
X159150227Y-114520902D01*
X159150424Y-114522495D01*
X159150890Y-114524212D01*
X159151626Y-114526066D01*
X159152637Y-114528070D01*
X159153923Y-114530237D01*
X159155489Y-114532579D01*
X159157336Y-114535110D01*
X159159468Y-114537842D01*
X159161886Y-114540789D01*
X159167593Y-114547377D01*
X159174477Y-114554977D01*
X159191863Y-114573629D01*
X159203235Y-114585795D01*
X159213574Y-114597233D01*
X159222921Y-114608040D01*
X159231318Y-114618316D01*
X159238805Y-114628158D01*
X159245424Y-114637663D01*
X159251217Y-114646932D01*
X159256225Y-114656060D01*
X159260488Y-114665148D01*
X159264049Y-114674292D01*
X159266949Y-114683591D01*
X159269229Y-114693144D01*
X159270930Y-114703047D01*
X159272095Y-114713400D01*
X159272763Y-114724301D01*
X159272976Y-114735847D01*
X159272973Y-114736140D01*
X159272890Y-114744785D01*
X159272618Y-114753128D01*
X159272139Y-114760945D01*
X159271433Y-114768302D01*
X159270479Y-114775266D01*
X159269257Y-114781905D01*
X159267745Y-114788285D01*
X159265923Y-114794475D01*
X159263770Y-114800540D01*
X159261266Y-114806549D01*
X159258391Y-114812568D01*
X159255122Y-114818664D01*
X159251441Y-114824905D01*
X159247325Y-114831358D01*
X159242755Y-114838090D01*
X159237709Y-114845168D01*
X159234863Y-114849213D01*
X159231634Y-114853392D01*
X159228054Y-114857674D01*
X159224154Y-114862029D01*
X159219964Y-114866425D01*
X159215516Y-114870831D01*
X159210841Y-114875217D01*
X159205969Y-114879551D01*
X159200932Y-114883802D01*
X159195761Y-114887940D01*
X159190486Y-114891933D01*
X159185140Y-114895751D01*
X159179751Y-114899362D01*
X159174353Y-114902735D01*
X159168975Y-114905839D01*
X159163649Y-114908644D01*
X159164310Y-114911675D01*
X159165137Y-114915153D01*
X159166294Y-114919665D01*
X159167782Y-114925003D01*
X159168650Y-114927917D01*
X159169600Y-114930960D01*
X159170633Y-114934107D01*
X159171749Y-114937332D01*
X159172948Y-114940608D01*
X159174229Y-114943909D01*
X159176678Y-114952193D01*
X159178739Y-114960509D01*
X159180415Y-114968844D01*
X159181709Y-114977190D01*
X159182627Y-114985537D01*
X159183171Y-114993872D01*
X159183156Y-115010472D01*
X159181694Y-115026906D01*
X159178816Y-115043091D01*
X159174554Y-115058947D01*
X159168939Y-115074389D01*
X159162001Y-115089335D01*
X159153771Y-115103703D01*
X159144281Y-115117409D01*
X159133562Y-115130372D01*
X159121644Y-115142508D01*
X159115245Y-115148240D01*
X159108558Y-115153735D01*
X159101587Y-115158982D01*
X159094336Y-115163970D01*
X159086808Y-115168690D01*
X159079008Y-115173131D01*
X159075114Y-115175032D01*
X159071328Y-115176774D01*
X159067594Y-115178361D01*
X159063855Y-115179798D01*
X159060053Y-115181090D01*
X159056133Y-115182243D01*
X159052037Y-115183261D01*
X159047709Y-115184151D01*
X159043091Y-115184916D01*
X159038128Y-115185563D01*
X159032761Y-115186096D01*
X159026935Y-115186520D01*
X159020592Y-115186841D01*
X159013675Y-115187064D01*
X159006129Y-115187194D01*
X158997895Y-115187236D01*
X158983141Y-115187216D01*
X158970453Y-115187071D01*
X158959584Y-115186678D01*
X158954753Y-115186350D01*
X158950285Y-115185914D01*
X158946147Y-115185353D01*
X158942308Y-115184653D01*
X158938739Y-115183798D01*
X158935406Y-115182773D01*
X158932281Y-115181562D01*
X158929331Y-115180149D01*
X158926526Y-115178519D01*
X158923835Y-115176657D01*
X158906201Y-115166077D01*
X158885041Y-115197816D01*
X158880831Y-115204381D01*
X158876162Y-115210833D01*
X158871069Y-115217141D01*
X158865589Y-115223272D01*
X158859757Y-115229198D01*
X158853610Y-115234885D01*
X158847185Y-115240304D01*
X158840516Y-115245423D01*
X158833641Y-115250212D01*
X158826595Y-115254639D01*
X158819416Y-115258673D01*
X158812137Y-115262284D01*
X158804797Y-115265440D01*
X158797432Y-115268111D01*
X158790076Y-115270265D01*
X158786413Y-115271139D01*
X158782767Y-115271872D01*
X158775218Y-115273651D01*
X158767172Y-115275033D01*
X158758714Y-115276033D01*
X158749925Y-115276666D01*
X158740888Y-115276947D01*
X158731685Y-115276893D01*
X158722400Y-115276518D01*
X158713115Y-115275839D01*
X158703913Y-115274871D01*
X158694875Y-115273628D01*
X158686086Y-115272128D01*
X158677628Y-115270384D01*
X158669582Y-115268413D01*
X158662033Y-115266231D01*
X158655062Y-115263852D01*
X158648753Y-115261292D01*
X158645909Y-115259808D01*
X158642698Y-115258014D01*
X158635363Y-115253578D01*
X158627118Y-115248151D01*
X158622770Y-115245117D01*
X158618335Y-115241897D01*
X158613859Y-115238511D01*
X158609388Y-115234981D01*
X158604968Y-115231328D01*
X158600647Y-115227570D01*
X158596470Y-115223730D01*
X158592484Y-115219829D01*
X158588736Y-115215885D01*
X158585273Y-115211922D01*
X158546479Y-115176657D01*
X158507686Y-115215448D01*
X158496555Y-115226393D01*
X158491506Y-115231186D01*
X158486746Y-115235560D01*
X158482235Y-115239542D01*
X158477929Y-115243157D01*
X158473790Y-115246431D01*
X158469774Y-115249391D01*
X158465841Y-115252060D01*
X158461949Y-115254467D01*
X158458057Y-115256635D01*
X158454124Y-115258592D01*
X158450109Y-115260363D01*
X158445969Y-115261974D01*
X158441664Y-115263451D01*
X158437152Y-115264819D01*
X158428941Y-115267258D01*
X158420228Y-115269289D01*
X158411092Y-115270917D01*
X158401610Y-115272147D01*
X158391859Y-115272985D01*
X158381917Y-115273435D01*
X158371861Y-115273503D01*
X158361769Y-115273194D01*
X158351719Y-115272513D01*
X158341787Y-115271465D01*
X158332052Y-115270056D01*
X158322590Y-115268290D01*
X158313480Y-115266173D01*
X158304798Y-115263710D01*
X158296623Y-115260906D01*
X158289032Y-115257766D01*
X158284602Y-115254657D01*
X158277894Y-115249260D01*
X158257457Y-115231372D01*
X158227349Y-115203650D01*
X158187199Y-115165637D01*
X158136633Y-115116879D01*
X158075282Y-115056922D01*
X158002771Y-114985311D01*
X157918730Y-114901591D01*
X157675830Y-114660468D01*
X157573115Y-114559523D01*
X157567660Y-114562608D01*
X157561399Y-114566218D01*
X157553277Y-114570984D01*
X157543669Y-114576742D01*
X157532944Y-114583326D01*
X157521475Y-114590572D01*
X157509635Y-114598314D01*
X157480161Y-114616373D01*
X157466883Y-114624117D01*
X157454365Y-114631044D01*
X157442446Y-114637186D01*
X157430966Y-114642574D01*
X157419765Y-114647239D01*
X157408683Y-114651211D01*
X157397560Y-114654522D01*
X157386235Y-114657204D01*
X157374549Y-114659285D01*
X157362340Y-114660799D01*
X157349450Y-114661775D01*
X157335718Y-114662245D01*
X157320984Y-114662240D01*
X157305087Y-114661791D01*
X157285497Y-114661763D01*
X157268718Y-114661570D01*
X157254253Y-114661047D01*
X157247734Y-114660609D01*
X157241607Y-114660027D01*
X157235811Y-114659280D01*
X157230283Y-114658347D01*
X157224962Y-114657207D01*
X157219786Y-114655840D01*
X157214692Y-114654225D01*
X157209619Y-114652341D01*
X157204504Y-114650168D01*
X157199287Y-114647685D01*
X157195985Y-114646405D01*
X157192709Y-114645212D01*
X157186337Y-114643111D01*
X157180379Y-114641424D01*
X157177620Y-114640748D01*
X157175041Y-114640191D01*
X157172669Y-114639758D01*
X157170529Y-114639454D01*
X157168648Y-114639284D01*
X157167051Y-114639254D01*
X157165763Y-114639369D01*
X157164812Y-114639633D01*
X157164470Y-114639823D01*
X157164222Y-114640052D01*
X157164071Y-114640322D01*
X157164020Y-114640632D01*
X157038057Y-114640632D01*
X157000031Y-114498250D01*
X156952200Y-114312063D01*
X156934788Y-114238613D01*
X156934889Y-114236280D01*
X156935190Y-114233912D01*
X156935680Y-114231517D01*
X156936351Y-114229102D01*
X156937196Y-114226674D01*
X156938205Y-114224240D01*
X156939370Y-114221807D01*
X156940684Y-114219383D01*
X156942137Y-114216974D01*
X156943721Y-114214588D01*
X156945427Y-114212232D01*
X156947248Y-114209913D01*
X156951199Y-114205412D01*
X156955507Y-114201145D01*
X156960104Y-114197166D01*
X156964923Y-114193534D01*
X156969897Y-114190304D01*
X156972421Y-114188858D01*
X156974959Y-114187535D01*
X156977502Y-114186340D01*
X156980041Y-114185281D01*
X156982569Y-114184366D01*
X156985077Y-114183602D01*
X156987557Y-114182995D01*
X156990000Y-114182552D01*
X156992397Y-114182281D01*
X156993299Y-114182246D01*
X156995799Y-114182314D01*
X157000292Y-114182686D01*
X157004681Y-114183306D01*
X157008957Y-114184173D01*
X157013109Y-114185289D01*
X157017126Y-114186653D01*
X157020999Y-114188265D01*
X157024717Y-114190124D01*
X157028269Y-114192232D01*
X157031646Y-114194588D01*
X157034837Y-114197191D01*
X157037831Y-114200043D01*
X157040619Y-114203142D01*
X157043190Y-114206489D01*
X157045534Y-114210085D01*
X157047640Y-114213928D01*
X157052710Y-114229797D01*
X157061747Y-114258891D01*
X157073429Y-114297241D01*
X157086434Y-114340881D01*
X157109357Y-114419786D01*
X157113642Y-114433830D01*
X157117182Y-114444527D01*
X157119896Y-114451339D01*
X157120917Y-114453120D01*
X157121701Y-114453729D01*
X157126539Y-114457507D01*
X157132963Y-114462132D01*
X157149639Y-114473345D01*
X157169869Y-114486211D01*
X157191793Y-114499573D01*
X157213553Y-114512274D01*
X157233287Y-114523156D01*
X157241814Y-114527554D01*
X157249137Y-114531063D01*
X157255023Y-114533539D01*
X157259241Y-114534838D01*
X157264809Y-114536077D01*
X157270882Y-114537152D01*
X157277389Y-114538061D01*
X157284258Y-114538805D01*
X157291417Y-114539384D01*
X157298792Y-114539797D01*
X157306312Y-114540045D01*
X157313905Y-114540127D01*
X157321497Y-114540045D01*
X157329017Y-114539797D01*
X157336392Y-114539384D01*
X157343551Y-114538805D01*
X157350420Y-114538061D01*
X157356927Y-114537152D01*
X157363001Y-114536077D01*
X157368568Y-114534838D01*
X157372587Y-114533698D01*
X157377908Y-114531669D01*
X157384345Y-114528856D01*
X157391712Y-114525360D01*
X157408491Y-114516737D01*
X157426758Y-114506626D01*
X157445025Y-114495854D01*
X157461805Y-114485247D01*
X157469171Y-114480263D01*
X157475608Y-114475631D01*
X157480929Y-114471454D01*
X157484948Y-114467835D01*
X157461584Y-114442268D01*
X157435850Y-114414276D01*
X157403835Y-114379673D01*
X157362520Y-114336280D01*
X157344431Y-114316475D01*
X157327901Y-114297682D01*
X157312818Y-114279715D01*
X157299068Y-114262390D01*
X157286537Y-114245518D01*
X157275111Y-114228916D01*
X157264677Y-114212396D01*
X157255122Y-114195772D01*
X157246331Y-114178860D01*
X157238191Y-114161472D01*
X157230588Y-114143423D01*
X157223409Y-114124526D01*
X157216540Y-114104597D01*
X157209868Y-114083448D01*
X157205060Y-114066374D01*
X157201161Y-114051324D01*
X157199527Y-114044159D01*
X157198089Y-114037019D01*
X157196837Y-114029744D01*
X157195761Y-114022176D01*
X157194850Y-114014152D01*
X157194094Y-114005514D01*
X157193483Y-113996102D01*
X157193006Y-113985754D01*
X157192653Y-113974311D01*
X157192414Y-113961612D01*
X157192235Y-113931810D01*
X157192266Y-113924291D01*
X157312476Y-113924291D01*
X157312518Y-113948797D01*
X157313905Y-113973411D01*
X157316657Y-113998082D01*
X157320790Y-114022759D01*
X157326323Y-114047390D01*
X157333274Y-114071925D01*
X157341662Y-114096313D01*
X157351504Y-114120503D01*
X157362818Y-114144444D01*
X157375622Y-114168084D01*
X157379654Y-114174018D01*
X157386553Y-114182658D01*
X157396459Y-114194150D01*
X157409511Y-114208638D01*
X157445611Y-114247182D01*
X157495970Y-114299445D01*
X157561703Y-114366586D01*
X157643925Y-114449761D01*
X157862304Y-114668844D01*
X158196457Y-115002096D01*
X158301707Y-115105246D01*
X158332221Y-115134009D01*
X158345460Y-115144919D01*
X158349426Y-115146779D01*
X158353386Y-115148394D01*
X158357333Y-115149766D01*
X158361261Y-115150897D01*
X158365163Y-115151791D01*
X158369032Y-115152450D01*
X158372863Y-115152877D01*
X158376649Y-115153074D01*
X158380383Y-115153043D01*
X158384058Y-115152788D01*
X158387670Y-115152311D01*
X158391210Y-115151614D01*
X158394673Y-115150700D01*
X158398051Y-115149571D01*
X158401340Y-115148231D01*
X158404531Y-115146682D01*
X158407620Y-115144926D01*
X158410598Y-115142966D01*
X158413460Y-115140805D01*
X158416200Y-115138444D01*
X158418810Y-115135888D01*
X158421285Y-115133137D01*
X158423617Y-115130196D01*
X158425802Y-115127066D01*
X158427831Y-115123750D01*
X158429698Y-115120251D01*
X158431398Y-115116571D01*
X158432924Y-115112712D01*
X158434269Y-115108678D01*
X158435426Y-115104471D01*
X158436390Y-115100094D01*
X158437153Y-115095548D01*
X158437153Y-115070863D01*
X158229079Y-114859274D01*
X158017478Y-114647685D01*
X158109172Y-114555997D01*
X158408940Y-114855747D01*
X158571112Y-115017139D01*
X158624983Y-115069919D01*
X158664183Y-115107450D01*
X158691315Y-115132252D01*
X158708983Y-115146847D01*
X158719790Y-115153756D01*
X158723435Y-115155115D01*
X158726341Y-115155498D01*
X158730257Y-115155426D01*
X158734068Y-115155210D01*
X158737773Y-115154850D01*
X158741371Y-115154348D01*
X158744860Y-115153704D01*
X158748240Y-115152918D01*
X158751508Y-115151991D01*
X158754665Y-115150925D01*
X158757707Y-115149719D01*
X158760635Y-115148374D01*
X158763446Y-115146891D01*
X158766140Y-115145270D01*
X158768715Y-115143512D01*
X158771170Y-115141619D01*
X158773504Y-115139589D01*
X158775715Y-115137425D01*
X158777801Y-115135126D01*
X158779763Y-115132694D01*
X158781598Y-115130129D01*
X158783305Y-115127431D01*
X158784883Y-115124602D01*
X158786331Y-115121641D01*
X158787647Y-115118550D01*
X158788830Y-115115329D01*
X158789878Y-115111980D01*
X158790791Y-115108501D01*
X158791567Y-115104895D01*
X158792205Y-115101162D01*
X158792703Y-115097302D01*
X158793060Y-115093316D01*
X158793276Y-115089204D01*
X158793348Y-115084969D01*
X158793309Y-115083007D01*
X158793159Y-115081055D01*
X158792848Y-115079058D01*
X158792329Y-115076965D01*
X158791551Y-115074722D01*
X158790465Y-115072276D01*
X158789024Y-115069575D01*
X158787176Y-115066565D01*
X158784874Y-115063193D01*
X158782069Y-115059407D01*
X158778711Y-115055153D01*
X158774750Y-115050379D01*
X158770139Y-115045031D01*
X158764828Y-115039057D01*
X158758768Y-115032404D01*
X158751909Y-115025018D01*
X158744204Y-115016848D01*
X158735602Y-115007839D01*
X158715513Y-114987095D01*
X158691250Y-114962363D01*
X158662420Y-114933220D01*
X158628630Y-114899241D01*
X158589489Y-114860004D01*
X158493580Y-114764059D01*
X158193812Y-114464308D01*
X158285506Y-114372620D01*
X158627594Y-114714688D01*
X158815334Y-114902087D01*
X158876617Y-114962582D01*
X158920749Y-115005182D01*
X158951160Y-115033070D01*
X158971280Y-115049428D01*
X158978553Y-115054278D01*
X158984540Y-115057439D01*
X158989669Y-115059308D01*
X158994369Y-115060283D01*
X158998955Y-115060791D01*
X159003451Y-115061000D01*
X159007848Y-115060919D01*
X159012140Y-115060559D01*
X159016318Y-115059930D01*
X159020375Y-115059043D01*
X159024302Y-115057909D01*
X159028093Y-115056536D01*
X159031739Y-115054937D01*
X159035232Y-115053120D01*
X159038566Y-115051097D01*
X159041731Y-115048877D01*
X159044721Y-115046472D01*
X159047527Y-115043891D01*
X159050143Y-115041144D01*
X159052559Y-115038243D01*
X159054769Y-115035197D01*
X159056764Y-115032016D01*
X159058537Y-115028712D01*
X159060081Y-115025294D01*
X159061387Y-115021773D01*
X159062447Y-115018158D01*
X159063254Y-115014461D01*
X159063800Y-115010692D01*
X159064078Y-115006861D01*
X159064079Y-115002978D01*
X159063796Y-114999054D01*
X159063222Y-114995098D01*
X159062347Y-114991122D01*
X159061166Y-114987136D01*
X159059669Y-114983150D01*
X159057849Y-114979174D01*
X159055441Y-114975485D01*
X159049659Y-114968505D01*
X159028699Y-114945397D01*
X158996415Y-114911296D01*
X158954253Y-114867649D01*
X158846083Y-114757502D01*
X158715761Y-114626526D01*
X158479473Y-114389811D01*
X158407286Y-114316582D01*
X158387600Y-114296022D01*
X158380726Y-114287984D01*
X158380777Y-114287602D01*
X158380930Y-114287121D01*
X158381532Y-114285870D01*
X158382516Y-114284257D01*
X158383867Y-114282309D01*
X158385569Y-114280050D01*
X158387607Y-114277508D01*
X158389966Y-114274707D01*
X158392629Y-114271674D01*
X158395581Y-114268434D01*
X158398807Y-114265014D01*
X158402292Y-114261438D01*
X158406019Y-114257733D01*
X158409974Y-114253925D01*
X158414140Y-114250040D01*
X158418503Y-114246103D01*
X158423046Y-114242140D01*
X158465367Y-114199822D01*
X158761608Y-114496046D01*
X158906863Y-114640577D01*
X159000541Y-114731880D01*
X159031344Y-114760773D01*
X159053220Y-114780204D01*
X159067492Y-114791451D01*
X159072190Y-114794407D01*
X159075483Y-114795797D01*
X159079448Y-114796326D01*
X159083405Y-114796594D01*
X159087342Y-114796610D01*
X159091249Y-114796383D01*
X159095118Y-114795920D01*
X159098939Y-114795232D01*
X159102701Y-114794324D01*
X159106396Y-114793207D01*
X159110013Y-114791889D01*
X159113543Y-114790377D01*
X159116976Y-114788681D01*
X159120303Y-114786809D01*
X159123513Y-114784768D01*
X159126598Y-114782569D01*
X159129547Y-114780218D01*
X159132350Y-114777724D01*
X159134999Y-114775096D01*
X159137483Y-114772342D01*
X159139792Y-114769471D01*
X159141918Y-114766490D01*
X159143850Y-114763409D01*
X159145578Y-114760235D01*
X159147093Y-114756978D01*
X159148386Y-114753645D01*
X159149446Y-114750245D01*
X159150263Y-114746786D01*
X159150829Y-114743276D01*
X159151134Y-114739725D01*
X159151167Y-114736140D01*
X159150920Y-114732530D01*
X159150381Y-114728903D01*
X159149543Y-114725268D01*
X159149139Y-114723892D01*
X159147922Y-114721745D01*
X159143027Y-114715108D01*
X159134804Y-114705299D01*
X159123203Y-114692262D01*
X159089658Y-114656274D01*
X159041979Y-114606690D01*
X158979752Y-114543055D01*
X158902565Y-114464914D01*
X158701654Y-114263299D01*
X158701654Y-114259772D01*
X158530775Y-114087746D01*
X158392629Y-113946797D01*
X158301431Y-113852133D01*
X158277881Y-113826911D01*
X158271399Y-113818962D01*
X158273980Y-113819490D01*
X158278989Y-113821036D01*
X158295755Y-113826952D01*
X158320621Y-113836257D01*
X158352513Y-113848497D01*
X158433075Y-113879959D01*
X158528847Y-113917704D01*
X158682809Y-113976938D01*
X158731562Y-113994632D01*
X158750365Y-114000842D01*
X158766016Y-114005425D01*
X158778940Y-114008479D01*
X158789560Y-114010102D01*
X158798299Y-114010392D01*
X158805581Y-114009447D01*
X158811830Y-114007366D01*
X158817470Y-114004247D01*
X158828615Y-113995286D01*
X158830547Y-113993593D01*
X158832376Y-113991820D01*
X158834101Y-113989973D01*
X158835723Y-113988054D01*
X158837242Y-113986069D01*
X158838658Y-113984020D01*
X158839970Y-113981912D01*
X158841179Y-113979748D01*
X158842284Y-113977532D01*
X158843287Y-113975269D01*
X158844185Y-113972962D01*
X158844981Y-113970615D01*
X158845673Y-113968231D01*
X158846262Y-113965816D01*
X158846748Y-113963372D01*
X158847130Y-113960903D01*
X158847409Y-113958414D01*
X158847585Y-113955908D01*
X158847657Y-113953389D01*
X158847626Y-113950861D01*
X158847492Y-113948328D01*
X158847254Y-113945793D01*
X158846913Y-113943262D01*
X158846469Y-113940736D01*
X158845921Y-113938221D01*
X158845270Y-113935720D01*
X158844516Y-113933237D01*
X158843658Y-113930777D01*
X158842698Y-113928342D01*
X158841633Y-113925936D01*
X158840466Y-113923565D01*
X158839195Y-113921230D01*
X158835000Y-113913316D01*
X158833882Y-113911572D01*
X158832539Y-113909832D01*
X158830871Y-113908052D01*
X158828780Y-113906188D01*
X158826168Y-113904194D01*
X158822935Y-113902027D01*
X158818983Y-113899641D01*
X158814212Y-113896993D01*
X158808525Y-113894037D01*
X158801821Y-113890729D01*
X158794003Y-113887025D01*
X158784972Y-113882880D01*
X158774629Y-113878249D01*
X158762875Y-113873088D01*
X158749610Y-113867353D01*
X158734738Y-113860998D01*
X158699771Y-113846252D01*
X158657185Y-113828495D01*
X158606188Y-113807370D01*
X158545991Y-113782520D01*
X158394833Y-113720221D01*
X158107739Y-113600321D01*
X157957524Y-113538607D01*
X157917422Y-113522958D01*
X157891950Y-113513922D01*
X157858777Y-113505106D01*
X157846281Y-113502048D01*
X157832699Y-113499485D01*
X157818188Y-113497419D01*
X157802901Y-113495849D01*
X157786995Y-113494774D01*
X157770624Y-113494196D01*
X157753943Y-113494113D01*
X157737107Y-113494526D01*
X157720271Y-113495435D01*
X157703590Y-113496840D01*
X157687218Y-113498741D01*
X157671312Y-113501138D01*
X157656026Y-113504031D01*
X157641514Y-113507420D01*
X157627933Y-113511305D01*
X157615436Y-113515685D01*
X157590446Y-113524913D01*
X157566404Y-113535371D01*
X157543328Y-113547008D01*
X157521235Y-113559773D01*
X157500146Y-113573615D01*
X157480076Y-113588483D01*
X157461045Y-113604327D01*
X157443070Y-113621094D01*
X157426170Y-113638734D01*
X157410362Y-113657196D01*
X157395665Y-113676430D01*
X157382097Y-113696383D01*
X157369676Y-113717005D01*
X157358419Y-113738245D01*
X157348346Y-113760052D01*
X157339474Y-113782375D01*
X157331821Y-113805163D01*
X157325405Y-113828365D01*
X157320244Y-113851930D01*
X157316357Y-113875806D01*
X157313762Y-113899944D01*
X157312476Y-113924291D01*
X157192266Y-113924291D01*
X157192455Y-113878912D01*
X157192979Y-113858911D01*
X157193998Y-113841884D01*
X157194745Y-113834177D01*
X157195679Y-113826842D01*
X157196819Y-113819754D01*
X157198186Y-113812791D01*
X157199801Y-113805828D01*
X157201685Y-113798740D01*
X157206342Y-113783697D01*
X157212652Y-113762717D01*
X157219672Y-113742101D01*
X157235781Y-113702024D01*
X157254556Y-113663578D01*
X157275883Y-113626879D01*
X157299649Y-113592040D01*
X157325739Y-113559174D01*
X157354040Y-113528394D01*
X157384439Y-113499816D01*
X157416822Y-113473551D01*
X157451074Y-113449715D01*
X157487083Y-113428420D01*
X157505711Y-113418761D01*
X157524735Y-113409780D01*
X157544142Y-113401492D01*
X157563916Y-113393910D01*
X157584044Y-113387048D01*
X157604512Y-113380921D01*
X157625306Y-113375543D01*
X157646411Y-113370929D01*
X157667813Y-113367092D01*
X157689497Y-113364046D01*
X157710010Y-113361732D01*
X157727299Y-113360079D01*
X157742439Y-113359087D01*
X157749539Y-113358839D01*
X157756504Y-113358757D01*
X157763470Y-113358839D01*
X157770570Y-113359087D01*
X157785709Y-113360079D01*
X157802998Y-113361732D01*
X157823511Y-113364046D01*
X157827677Y-113364167D01*
X157832204Y-113364515D01*
X157837041Y-113365069D01*
X157842136Y-113365810D01*
X157852896Y-113367766D01*
X157864068Y-113370218D01*
X157875240Y-113373000D01*
X157885999Y-113375948D01*
X157895932Y-113378896D01*
X157904625Y-113381679D01*
X158080849Y-113450610D01*
X158412467Y-113586655D01*
X158738795Y-113723362D01*
X158849761Y-113771196D01*
X158899149Y-113794277D01*
X158908156Y-113801174D01*
X158916651Y-113808624D01*
X158924620Y-113816601D01*
X158932046Y-113825078D01*
X158938914Y-113834032D01*
X158945209Y-113843434D01*
X158950915Y-113853260D01*
X158956017Y-113863484D01*
X158960498Y-113874080D01*
X158964344Y-113885022D01*
X158967539Y-113896284D01*
X158970068Y-113907841D01*
X158971915Y-113919666D01*
X158973064Y-113931734D01*
X158973501Y-113944019D01*
X158973209Y-113956495D01*
X158972373Y-113965348D01*
X158971192Y-113974049D01*
X158969671Y-113982591D01*
X158967816Y-113990968D01*
X158965633Y-113999171D01*
X158963128Y-114007194D01*
X158960306Y-114015030D01*
X158957174Y-114022672D01*
X158953737Y-114030112D01*
X158950001Y-114037343D01*
X158945972Y-114044359D01*
X158941655Y-114051152D01*
X158937057Y-114057715D01*
X158932183Y-114064041D01*
X158927039Y-114070124D01*
X158921631Y-114075954D01*
X158915965Y-114081527D01*
X158910047Y-114086834D01*
X158903881Y-114091869D01*
X158897475Y-114096624D01*
X158890834Y-114101093D01*
X158883963Y-114105267D01*
X158876869Y-114109141D01*
X158869558Y-114112707D01*
X158862034Y-114115958D01*
X158854305Y-114118886D01*
X158846376Y-114121485D01*
X158838252Y-114123748D01*
X158829939Y-114125667D01*
X158821444Y-114127236D01*
X158812772Y-114128446D01*
X158803929Y-114129292D01*
X158765135Y-114129292D01*
X158909729Y-114277405D01*
X158992055Y-114359395D01*
X159018216Y-114384769D01*
X159036690Y-114401713D01*
X159043586Y-114407488D01*
X159049212Y-114411714D01*
X159053784Y-114414576D01*
X159057519Y-114416260D01*
X159060634Y-114416952D01*
X159063346Y-114416838D01*
X159065873Y-114416105D01*
X159068430Y-114414937D01*
X159077447Y-114409231D01*
X159086015Y-114404000D01*
X159094180Y-114399223D01*
X159101988Y-114394881D01*
X159109487Y-114390951D01*
X159116722Y-114387414D01*
X159123740Y-114384249D01*
X159130588Y-114381436D01*
X159137311Y-114378953D01*
X159143957Y-114376780D01*
X159150572Y-114374896D01*
X159157203Y-114373281D01*
X159163896Y-114371914D01*
X159170697Y-114370774D01*
X159177653Y-114369840D01*
X159184810Y-114369093D01*
X159196329Y-114368028D01*
X159207196Y-114367516D01*
X159217589Y-114367613D01*
X159227681Y-114368377D01*
X159232670Y-114369026D01*
X159237650Y-114369864D01*
X159242643Y-114370896D01*
X159247671Y-114372131D01*
X159252755Y-114373574D01*
X159257918Y-114375234D01*
X159268569Y-114379232D01*
X159279798Y-114384180D01*
X159291782Y-114390135D01*
X159304695Y-114397154D01*
X159318714Y-114405295D01*
X159334014Y-114414613D01*
X159350771Y-114425166D01*
X159389358Y-114450202D01*
X159425988Y-114474812D01*
X159454932Y-114493677D01*
X159467012Y-114501227D01*
X159477759Y-114507666D01*
X159487370Y-114513103D01*
X159496040Y-114517646D01*
X159503966Y-114521404D01*
X159511345Y-114524486D01*
X159518373Y-114526999D01*
X159525245Y-114529052D01*
X159532159Y-114530754D01*
X159539311Y-114532214D01*
X159555112Y-114534838D01*
X159564953Y-114535911D01*
X159574660Y-114536484D01*
X159584264Y-114536550D01*
X159593795Y-114536105D01*
X159603285Y-114535143D01*
X159612765Y-114533660D01*
X159622265Y-114531650D01*
X159631817Y-114529107D01*
X159641452Y-114526028D01*
X159651200Y-114522405D01*
X159661093Y-114518236D01*
X159671162Y-114513514D01*
X159681437Y-114508233D01*
X159691950Y-114502390D01*
X159702731Y-114495978D01*
X159713813Y-114488994D01*
X159734532Y-114475990D01*
X159744065Y-114469901D01*
X159752606Y-114464308D01*
X159759825Y-114459377D01*
X159765390Y-114455272D01*
X159767450Y-114453581D01*
X159768972Y-114452158D01*
X159769916Y-114451025D01*
X159770158Y-114450574D01*
X159770239Y-114450202D01*
X159781260Y-114416260D01*
X159792557Y-114380279D01*
X159798928Y-114359416D01*
X159805506Y-114337355D01*
X159817960Y-114293715D01*
X159828430Y-114255364D01*
X159836255Y-114226271D01*
X159840773Y-114210402D01*
X159841486Y-114208759D01*
X159842299Y-114207139D01*
X159843210Y-114205544D01*
X159844217Y-114203975D01*
X159845317Y-114202435D01*
X159846508Y-114200925D01*
X159847786Y-114199447D01*
X159849149Y-114198004D01*
X159850595Y-114196596D01*
X159852121Y-114195227D01*
X159853725Y-114193898D01*
X159855404Y-114192611D01*
X159857154Y-114191367D01*
X159858975Y-114190170D01*
X159860863Y-114189020D01*
X159862815Y-114187920D01*
X159864829Y-114186872D01*
X159866903Y-114185877D01*
X159869034Y-114184938D01*
X159871219Y-114184056D01*
X159873455Y-114183234D01*
X159875741Y-114182473D01*
X159878073Y-114181775D01*
X159880448Y-114181143D01*
X159882866Y-114180578D01*
X159885322Y-114180081D01*
X159887814Y-114179656D01*
X159890340Y-114179304D01*
X159892896Y-114179027D01*
X159895482Y-114178826D01*
X159898093Y-114178704D01*
X159900727Y-114178663D01*
X159903071Y-114178755D01*
X159905468Y-114179026D01*
X159907911Y-114179468D01*
X159910391Y-114180075D01*
X159912899Y-114180840D01*
X159915427Y-114181755D01*
X159917966Y-114182813D01*
X159920509Y-114184008D01*
X159925571Y-114186778D01*
X159930545Y-114190007D01*
X159935364Y-114193640D01*
X159939961Y-114197618D01*
X159944269Y-114201886D01*
X159948220Y-114206386D01*
X159951748Y-114211062D01*
X159953331Y-114213448D01*
X159954784Y-114215857D01*
X159956098Y-114218281D01*
X159957263Y-114220713D01*
X159958272Y-114223147D01*
X159959117Y-114225575D01*
X159959788Y-114227990D01*
X159960278Y-114230385D01*
X159960579Y-114232753D01*
X159960680Y-114235087D01*
X159853690Y-114640632D01*
X159771121Y-114953607D01*
X159512792Y-115910165D01*
D11*
X111547717Y-55775001D02*
X111547717Y-53718864D01*
X112404440Y-54746932D02*
X111890405Y-55809270D01*
D10*
G36*
X156993299Y-114182246D02*
G01*
X156991213Y-114182190D01*
X156994741Y-114182190D01*
X156993299Y-114182246D01*
G37*
X156993299Y-114182246D02*
X156991213Y-114182190D01*
X156994741Y-114182190D01*
X156993299Y-114182246D01*
G36*
X157269821Y-118992308D02*
G01*
X157269821Y-118350489D01*
X157400308Y-118350489D01*
X157400308Y-118861828D01*
X157911677Y-118861828D01*
X157871141Y-118839891D01*
X157831555Y-118816425D01*
X157792962Y-118791471D01*
X157755401Y-118765071D01*
X157718915Y-118737265D01*
X157683545Y-118708096D01*
X157649332Y-118677604D01*
X157616318Y-118645832D01*
X157584543Y-118612819D01*
X157554050Y-118578608D01*
X157524879Y-118543240D01*
X157497072Y-118506756D01*
X157470670Y-118469198D01*
X157445714Y-118430606D01*
X157422247Y-118391023D01*
X157400308Y-118350489D01*
X157269821Y-118350489D01*
X157269821Y-117817990D01*
X157400308Y-117817990D01*
X157401671Y-117871558D01*
X157405716Y-117924440D01*
X157412377Y-117976569D01*
X157421586Y-118027878D01*
X157433277Y-118078301D01*
X157447384Y-118127772D01*
X157463840Y-118176224D01*
X157482579Y-118223591D01*
X157503534Y-118269805D01*
X157526639Y-118314801D01*
X157551828Y-118358512D01*
X157579033Y-118400872D01*
X157608188Y-118441814D01*
X157639226Y-118481271D01*
X157672082Y-118519177D01*
X157706689Y-118555466D01*
X157742979Y-118590070D01*
X157780888Y-118622924D01*
X157820347Y-118653961D01*
X157861291Y-118683114D01*
X157903653Y-118710318D01*
X157947367Y-118735505D01*
X157992365Y-118758608D01*
X158038583Y-118779562D01*
X158085952Y-118798300D01*
X158134406Y-118814756D01*
X158183880Y-118828862D01*
X158234306Y-118840552D01*
X158285619Y-118849761D01*
X158337750Y-118856421D01*
X158390635Y-118860465D01*
X158444206Y-118861828D01*
X158976735Y-118861828D01*
X159488104Y-118861828D01*
X159488104Y-118350489D01*
X159466166Y-118391023D01*
X159442698Y-118430606D01*
X159417743Y-118469198D01*
X159391341Y-118506756D01*
X159363534Y-118543240D01*
X159334363Y-118578608D01*
X159303869Y-118612819D01*
X159272095Y-118645832D01*
X159239080Y-118677604D01*
X159204868Y-118708096D01*
X159169497Y-118737265D01*
X159133011Y-118765071D01*
X159095451Y-118791471D01*
X159056857Y-118816425D01*
X159017272Y-118839891D01*
X158976735Y-118861828D01*
X158444206Y-118861828D01*
X158497777Y-118860465D01*
X158550662Y-118856421D01*
X158602793Y-118849761D01*
X158654106Y-118840552D01*
X158704532Y-118828862D01*
X158754006Y-118814756D01*
X158802460Y-118798300D01*
X158849830Y-118779562D01*
X158896047Y-118758608D01*
X158941046Y-118735505D01*
X158984759Y-118710318D01*
X159027121Y-118683114D01*
X159068065Y-118653961D01*
X159107525Y-118622924D01*
X159145433Y-118590070D01*
X159181724Y-118555466D01*
X159216330Y-118519177D01*
X159249186Y-118481271D01*
X159280225Y-118441814D01*
X159309380Y-118400872D01*
X159336585Y-118358512D01*
X159361773Y-118314801D01*
X159384878Y-118269805D01*
X159405833Y-118223591D01*
X159424572Y-118176224D01*
X159441029Y-118127772D01*
X159455136Y-118078301D01*
X159466827Y-118027878D01*
X159476036Y-117976569D01*
X159482696Y-117924440D01*
X159486741Y-117871558D01*
X159488104Y-117817990D01*
X159486741Y-117764422D01*
X159482696Y-117711541D01*
X159476036Y-117659412D01*
X159466827Y-117608103D01*
X159455136Y-117557680D01*
X159441029Y-117508209D01*
X159424572Y-117459757D01*
X159405833Y-117412390D01*
X159384878Y-117366176D01*
X159361773Y-117321179D01*
X159336585Y-117277468D01*
X159309380Y-117235109D01*
X159280225Y-117194167D01*
X159249186Y-117154710D01*
X159216330Y-117116804D01*
X159181724Y-117080515D01*
X159145433Y-117045911D01*
X159107525Y-117013057D01*
X159068065Y-116982020D01*
X159027121Y-116952866D01*
X158984759Y-116925663D01*
X158941046Y-116900476D01*
X158896047Y-116877373D01*
X158849830Y-116856419D01*
X158802460Y-116837681D01*
X158754006Y-116821225D01*
X158704532Y-116807119D01*
X158654106Y-116795428D01*
X158602793Y-116786220D01*
X158550662Y-116779560D01*
X158497777Y-116775515D01*
X158444206Y-116774152D01*
X158976735Y-116774152D01*
X159017272Y-116796090D01*
X159056857Y-116819556D01*
X159095451Y-116844510D01*
X159133011Y-116870910D01*
X159169497Y-116898715D01*
X159204868Y-116927885D01*
X159239080Y-116958376D01*
X159272095Y-116990149D01*
X159303869Y-117023162D01*
X159334363Y-117057373D01*
X159363534Y-117092741D01*
X159391341Y-117129225D01*
X159417743Y-117166783D01*
X159442698Y-117205375D01*
X159466166Y-117244958D01*
X159488104Y-117285492D01*
X159488104Y-116774152D01*
X158976735Y-116774152D01*
X158444206Y-116774152D01*
X158390635Y-116775515D01*
X158337750Y-116779560D01*
X158285619Y-116786220D01*
X158234306Y-116795428D01*
X158183880Y-116807119D01*
X158134406Y-116821225D01*
X158085952Y-116837681D01*
X158038583Y-116856419D01*
X157992365Y-116877373D01*
X157947367Y-116900476D01*
X157903653Y-116925663D01*
X157861291Y-116952866D01*
X157820347Y-116982020D01*
X157780888Y-117013057D01*
X157742979Y-117045911D01*
X157706689Y-117080515D01*
X157672082Y-117116804D01*
X157639226Y-117154710D01*
X157608188Y-117194167D01*
X157579033Y-117235109D01*
X157551828Y-117277468D01*
X157526639Y-117321179D01*
X157503534Y-117366176D01*
X157482579Y-117412390D01*
X157463840Y-117459757D01*
X157447384Y-117508209D01*
X157433277Y-117557680D01*
X157421586Y-117608103D01*
X157412377Y-117659412D01*
X157405716Y-117711541D01*
X157401671Y-117764422D01*
X157400308Y-117817990D01*
X157269821Y-117817990D01*
X157269821Y-116774152D01*
X157400308Y-116774152D01*
X157400308Y-117285492D01*
X157422247Y-117244958D01*
X157445714Y-117205375D01*
X157470670Y-117166783D01*
X157497072Y-117129225D01*
X157524879Y-117092741D01*
X157554050Y-117057373D01*
X157584543Y-117023162D01*
X157616318Y-116990149D01*
X157649332Y-116958376D01*
X157683545Y-116927885D01*
X157718915Y-116898715D01*
X157755401Y-116870910D01*
X157792962Y-116844510D01*
X157831555Y-116819556D01*
X157871141Y-116796090D01*
X157911677Y-116774152D01*
X157400308Y-116774152D01*
X157269821Y-116774152D01*
X157269821Y-116647199D01*
X159615065Y-116647199D01*
X159615065Y-118992308D01*
X157269821Y-118992308D01*
G37*
X157269821Y-118992308D02*
X157269821Y-118350489D01*
X157400308Y-118350489D01*
X157400308Y-118861828D01*
X157911677Y-118861828D01*
X157871141Y-118839891D01*
X157831555Y-118816425D01*
X157792962Y-118791471D01*
X157755401Y-118765071D01*
X157718915Y-118737265D01*
X157683545Y-118708096D01*
X157649332Y-118677604D01*
X157616318Y-118645832D01*
X157584543Y-118612819D01*
X157554050Y-118578608D01*
X157524879Y-118543240D01*
X157497072Y-118506756D01*
X157470670Y-118469198D01*
X157445714Y-118430606D01*
X157422247Y-118391023D01*
X157400308Y-118350489D01*
X157269821Y-118350489D01*
X157269821Y-117817990D01*
X157400308Y-117817990D01*
X157401671Y-117871558D01*
X157405716Y-117924440D01*
X157412377Y-117976569D01*
X157421586Y-118027878D01*
X157433277Y-118078301D01*
X157447384Y-118127772D01*
X157463840Y-118176224D01*
X157482579Y-118223591D01*
X157503534Y-118269805D01*
X157526639Y-118314801D01*
X157551828Y-118358512D01*
X157579033Y-118400872D01*
X157608188Y-118441814D01*
X157639226Y-118481271D01*
X157672082Y-118519177D01*
X157706689Y-118555466D01*
X157742979Y-118590070D01*
X157780888Y-118622924D01*
X157820347Y-118653961D01*
X157861291Y-118683114D01*
X157903653Y-118710318D01*
X157947367Y-118735505D01*
X157992365Y-118758608D01*
X158038583Y-118779562D01*
X158085952Y-118798300D01*
X158134406Y-118814756D01*
X158183880Y-118828862D01*
X158234306Y-118840552D01*
X158285619Y-118849761D01*
X158337750Y-118856421D01*
X158390635Y-118860465D01*
X158444206Y-118861828D01*
X158976735Y-118861828D01*
X159488104Y-118861828D01*
X159488104Y-118350489D01*
X159466166Y-118391023D01*
X159442698Y-118430606D01*
X159417743Y-118469198D01*
X159391341Y-118506756D01*
X159363534Y-118543240D01*
X159334363Y-118578608D01*
X159303869Y-118612819D01*
X159272095Y-118645832D01*
X159239080Y-118677604D01*
X159204868Y-118708096D01*
X159169497Y-118737265D01*
X159133011Y-118765071D01*
X159095451Y-118791471D01*
X159056857Y-118816425D01*
X159017272Y-118839891D01*
X158976735Y-118861828D01*
X158444206Y-118861828D01*
X158497777Y-118860465D01*
X158550662Y-118856421D01*
X158602793Y-118849761D01*
X158654106Y-118840552D01*
X158704532Y-118828862D01*
X158754006Y-118814756D01*
X158802460Y-118798300D01*
X158849830Y-118779562D01*
X158896047Y-118758608D01*
X158941046Y-118735505D01*
X158984759Y-118710318D01*
X159027121Y-118683114D01*
X159068065Y-118653961D01*
X159107525Y-118622924D01*
X159145433Y-118590070D01*
X159181724Y-118555466D01*
X159216330Y-118519177D01*
X159249186Y-118481271D01*
X159280225Y-118441814D01*
X159309380Y-118400872D01*
X159336585Y-118358512D01*
X159361773Y-118314801D01*
X159384878Y-118269805D01*
X159405833Y-118223591D01*
X159424572Y-118176224D01*
X159441029Y-118127772D01*
X159455136Y-118078301D01*
X159466827Y-118027878D01*
X159476036Y-117976569D01*
X159482696Y-117924440D01*
X159486741Y-117871558D01*
X159488104Y-117817990D01*
X159486741Y-117764422D01*
X159482696Y-117711541D01*
X159476036Y-117659412D01*
X159466827Y-117608103D01*
X159455136Y-117557680D01*
X159441029Y-117508209D01*
X159424572Y-117459757D01*
X159405833Y-117412390D01*
X159384878Y-117366176D01*
X159361773Y-117321179D01*
X159336585Y-117277468D01*
X159309380Y-117235109D01*
X159280225Y-117194167D01*
X159249186Y-117154710D01*
X159216330Y-117116804D01*
X159181724Y-117080515D01*
X159145433Y-117045911D01*
X159107525Y-117013057D01*
X159068065Y-116982020D01*
X159027121Y-116952866D01*
X158984759Y-116925663D01*
X158941046Y-116900476D01*
X158896047Y-116877373D01*
X158849830Y-116856419D01*
X158802460Y-116837681D01*
X158754006Y-116821225D01*
X158704532Y-116807119D01*
X158654106Y-116795428D01*
X158602793Y-116786220D01*
X158550662Y-116779560D01*
X158497777Y-116775515D01*
X158444206Y-116774152D01*
X158976735Y-116774152D01*
X159017272Y-116796090D01*
X159056857Y-116819556D01*
X159095451Y-116844510D01*
X159133011Y-116870910D01*
X159169497Y-116898715D01*
X159204868Y-116927885D01*
X159239080Y-116958376D01*
X159272095Y-116990149D01*
X159303869Y-117023162D01*
X159334363Y-117057373D01*
X159363534Y-117092741D01*
X159391341Y-117129225D01*
X159417743Y-117166783D01*
X159442698Y-117205375D01*
X159466166Y-117244958D01*
X159488104Y-117285492D01*
X159488104Y-116774152D01*
X158976735Y-116774152D01*
X158444206Y-116774152D01*
X158390635Y-116775515D01*
X158337750Y-116779560D01*
X158285619Y-116786220D01*
X158234306Y-116795428D01*
X158183880Y-116807119D01*
X158134406Y-116821225D01*
X158085952Y-116837681D01*
X158038583Y-116856419D01*
X157992365Y-116877373D01*
X157947367Y-116900476D01*
X157903653Y-116925663D01*
X157861291Y-116952866D01*
X157820347Y-116982020D01*
X157780888Y-117013057D01*
X157742979Y-117045911D01*
X157706689Y-117080515D01*
X157672082Y-117116804D01*
X157639226Y-117154710D01*
X157608188Y-117194167D01*
X157579033Y-117235109D01*
X157551828Y-117277468D01*
X157526639Y-117321179D01*
X157503534Y-117366176D01*
X157482579Y-117412390D01*
X157463840Y-117459757D01*
X157447384Y-117508209D01*
X157433277Y-117557680D01*
X157421586Y-117608103D01*
X157412377Y-117659412D01*
X157405716Y-117711541D01*
X157401671Y-117764422D01*
X157400308Y-117817990D01*
X157269821Y-117817990D01*
X157269821Y-116774152D01*
X157400308Y-116774152D01*
X157400308Y-117285492D01*
X157422247Y-117244958D01*
X157445714Y-117205375D01*
X157470670Y-117166783D01*
X157497072Y-117129225D01*
X157524879Y-117092741D01*
X157554050Y-117057373D01*
X157584543Y-117023162D01*
X157616318Y-116990149D01*
X157649332Y-116958376D01*
X157683545Y-116927885D01*
X157718915Y-116898715D01*
X157755401Y-116870910D01*
X157792962Y-116844510D01*
X157831555Y-116819556D01*
X157871141Y-116796090D01*
X157911677Y-116774152D01*
X157400308Y-116774152D01*
X157269821Y-116774152D01*
X157269821Y-116647199D01*
X159615065Y-116647199D01*
X159615065Y-118992308D01*
X157269821Y-118992308D01*
D11*
X112918475Y-55809270D02*
X112918475Y-53718864D01*
X108771932Y-54746932D02*
X108783777Y-54903496D01*
X108818151Y-55052647D01*
X108873310Y-55192641D01*
X108976172Y-55362041D01*
X109108750Y-55507926D01*
X109266909Y-55626163D01*
X109446515Y-55712617D01*
X109592808Y-55754113D01*
X109747095Y-55773662D01*
X109800000Y-55775000D01*
X108497779Y-53753133D02*
X108497779Y-54781201D01*
X107469711Y-53753133D02*
X108497779Y-53753133D01*
X107469711Y-54781201D02*
X107469711Y-53753133D01*
D10*
G36*
X162917878Y-117929150D02*
G01*
X162911445Y-117983695D01*
X162902538Y-118037459D01*
X162891214Y-118090376D01*
X162877528Y-118142378D01*
X162861538Y-118193400D01*
X162843301Y-118243372D01*
X162822874Y-118292229D01*
X162800313Y-118339903D01*
X162775675Y-118386326D01*
X162749017Y-118431433D01*
X162720397Y-118475155D01*
X162689870Y-118517425D01*
X162657493Y-118558177D01*
X162623324Y-118597343D01*
X162954832Y-118928831D01*
X162863139Y-119020520D01*
X162531631Y-118689031D01*
X162491881Y-118723198D01*
X162450696Y-118755573D01*
X162408126Y-118786098D01*
X162364223Y-118814717D01*
X162319040Y-118841373D01*
X162272626Y-118866009D01*
X162225035Y-118888569D01*
X162176317Y-118908995D01*
X162126525Y-118927231D01*
X162075711Y-118943220D01*
X162023924Y-118956905D01*
X161971219Y-118968229D01*
X161917645Y-118977136D01*
X161863255Y-118983568D01*
X161808101Y-118987469D01*
X161752234Y-118988782D01*
X161696328Y-118987469D01*
X161641068Y-118983568D01*
X161586520Y-118977136D01*
X161532753Y-118968229D01*
X161479833Y-118956905D01*
X161427827Y-118943220D01*
X161376803Y-118927231D01*
X161326828Y-118908995D01*
X161277968Y-118888569D01*
X161230292Y-118866010D01*
X161183866Y-118841373D01*
X161138757Y-118814717D01*
X161095032Y-118786098D01*
X161052759Y-118755573D01*
X161012005Y-118723198D01*
X160972837Y-118689031D01*
X160641329Y-119020520D01*
X160549635Y-118928831D01*
X160881144Y-118597343D01*
X161061004Y-118597343D01*
X161096082Y-118627006D01*
X161132502Y-118655130D01*
X161170204Y-118681663D01*
X161209125Y-118706553D01*
X161249203Y-118729749D01*
X161290376Y-118751199D01*
X161332583Y-118770851D01*
X161375761Y-118788654D01*
X161419848Y-118804556D01*
X161464782Y-118818505D01*
X161510501Y-118830450D01*
X161556944Y-118840339D01*
X161604048Y-118848121D01*
X161651751Y-118853743D01*
X161699991Y-118857154D01*
X161748707Y-118858302D01*
X161752234Y-118858302D01*
X161801531Y-118857154D01*
X161850203Y-118853743D01*
X161898203Y-118848121D01*
X161945485Y-118840339D01*
X161992003Y-118830450D01*
X162037709Y-118818505D01*
X162082558Y-118804556D01*
X162126503Y-118788654D01*
X162169497Y-118770851D01*
X162211495Y-118751199D01*
X162252448Y-118729749D01*
X162292312Y-118706553D01*
X162331039Y-118681663D01*
X162368584Y-118655130D01*
X162404898Y-118627006D01*
X162439937Y-118597343D01*
X161752234Y-117909679D01*
X161061004Y-118597343D01*
X160881144Y-118597343D01*
X160846975Y-118557596D01*
X160814598Y-118516413D01*
X160784071Y-118473845D01*
X160755450Y-118429945D01*
X160728793Y-118384764D01*
X160704155Y-118338353D01*
X160681594Y-118290764D01*
X160661167Y-118242050D01*
X160642930Y-118192260D01*
X160626940Y-118141448D01*
X160613254Y-118089665D01*
X160601930Y-118036963D01*
X160593022Y-117983392D01*
X160586590Y-117929006D01*
X160582689Y-117873854D01*
X160581376Y-117817990D01*
X160581459Y-117814464D01*
X160708336Y-117814464D01*
X160709485Y-117863759D01*
X160712896Y-117912434D01*
X160718518Y-117960448D01*
X160726300Y-118007759D01*
X160736190Y-118054327D01*
X160748135Y-118100109D01*
X160762085Y-118145065D01*
X160777988Y-118189153D01*
X160795792Y-118232331D01*
X160815445Y-118274560D01*
X160836896Y-118315796D01*
X160860093Y-118355999D01*
X160884985Y-118395128D01*
X160911520Y-118433141D01*
X160939645Y-118469997D01*
X160969310Y-118505654D01*
X161657013Y-117817991D01*
X161843927Y-117817991D01*
X162531631Y-118505654D01*
X162561296Y-118470579D01*
X162589421Y-118434160D01*
X162615956Y-118396461D01*
X162640848Y-118357542D01*
X162664045Y-118317466D01*
X162685496Y-118276295D01*
X162705149Y-118234091D01*
X162722953Y-118190916D01*
X162738856Y-118146831D01*
X162752806Y-118101900D01*
X162764751Y-118056183D01*
X162774641Y-118009743D01*
X162782423Y-117962642D01*
X162788045Y-117914941D01*
X162791456Y-117866704D01*
X162792605Y-117817991D01*
X162791456Y-117769278D01*
X162788045Y-117721040D01*
X162782423Y-117673340D01*
X162774641Y-117626238D01*
X162764751Y-117579798D01*
X162752806Y-117534082D01*
X162738856Y-117489150D01*
X162722953Y-117445065D01*
X162705149Y-117401890D01*
X162685496Y-117359686D01*
X162664045Y-117318515D01*
X162640848Y-117278439D01*
X162615956Y-117239521D01*
X162589421Y-117201821D01*
X162561296Y-117165402D01*
X162531631Y-117130327D01*
X161847454Y-117814464D01*
X161843927Y-117817991D01*
X161657013Y-117817991D01*
X161660540Y-117814464D01*
X160969310Y-117123274D01*
X160939645Y-117158349D01*
X160911520Y-117194768D01*
X160884985Y-117232468D01*
X160860093Y-117271386D01*
X160836896Y-117311462D01*
X160815445Y-117352633D01*
X160795792Y-117394837D01*
X160777988Y-117438013D01*
X160762085Y-117482097D01*
X160748135Y-117527029D01*
X160736190Y-117572745D01*
X160726300Y-117619185D01*
X160718518Y-117666287D01*
X160712896Y-117713987D01*
X160709485Y-117762225D01*
X160708336Y-117810938D01*
X160708336Y-117814464D01*
X160581459Y-117814464D01*
X160582689Y-117762088D01*
X160586590Y-117706831D01*
X160593022Y-117652286D01*
X160601930Y-117598522D01*
X160613254Y-117545605D01*
X160626940Y-117493602D01*
X160642930Y-117442581D01*
X160661167Y-117392609D01*
X160681594Y-117343752D01*
X160704155Y-117296078D01*
X160728793Y-117249655D01*
X160755450Y-117204548D01*
X160784071Y-117160826D01*
X160814598Y-117118556D01*
X160846975Y-117077804D01*
X160881144Y-117038638D01*
X160877618Y-117035112D01*
X161064531Y-117035112D01*
X161755761Y-117722775D01*
X162443464Y-117035112D01*
X162408385Y-117005448D01*
X162371959Y-116977324D01*
X162334241Y-116950791D01*
X162295288Y-116925901D01*
X162255157Y-116902705D01*
X162213906Y-116881255D01*
X162171590Y-116861603D01*
X162128266Y-116843800D01*
X162083993Y-116827898D01*
X162038825Y-116813949D01*
X161992821Y-116802004D01*
X161946036Y-116792115D01*
X161898528Y-116784334D01*
X161850354Y-116778712D01*
X161801571Y-116775301D01*
X161752234Y-116774152D01*
X161702937Y-116775301D01*
X161654265Y-116778712D01*
X161606265Y-116784334D01*
X161558983Y-116792115D01*
X161512465Y-116802004D01*
X161466759Y-116813949D01*
X161421910Y-116827898D01*
X161377965Y-116843800D01*
X161334970Y-116861603D01*
X161292973Y-116881255D01*
X161252019Y-116902705D01*
X161212156Y-116925901D01*
X161173428Y-116950791D01*
X161135884Y-116977324D01*
X161099570Y-117005448D01*
X161064531Y-117035112D01*
X160877618Y-117035112D01*
X160549635Y-116707149D01*
X160641329Y-116615461D01*
X160972837Y-116946950D01*
X161012586Y-116912783D01*
X161053772Y-116880408D01*
X161096342Y-116849883D01*
X161140244Y-116821264D01*
X161185428Y-116794608D01*
X161231842Y-116769971D01*
X161279433Y-116747412D01*
X161328150Y-116726986D01*
X161377942Y-116708750D01*
X161428757Y-116692761D01*
X161480543Y-116679076D01*
X161533249Y-116667752D01*
X161586823Y-116658845D01*
X161641212Y-116652413D01*
X161696367Y-116648512D01*
X161752234Y-116647199D01*
X161808140Y-116648512D01*
X161863400Y-116652413D01*
X161917947Y-116658845D01*
X161971715Y-116667752D01*
X162024635Y-116679076D01*
X162076640Y-116692761D01*
X162127664Y-116708749D01*
X162177640Y-116726985D01*
X162226499Y-116747412D01*
X162274176Y-116769971D01*
X162320602Y-116794608D01*
X162365711Y-116821264D01*
X162409436Y-116849883D01*
X162451709Y-116880408D01*
X162492463Y-116912783D01*
X162531631Y-116946950D01*
X162863139Y-116615461D01*
X162954832Y-116707149D01*
X162626851Y-117035112D01*
X162623324Y-117038638D01*
X162657493Y-117078385D01*
X162689870Y-117119568D01*
X162720397Y-117162136D01*
X162749017Y-117206036D01*
X162775675Y-117251217D01*
X162800313Y-117297628D01*
X162822874Y-117345216D01*
X162843301Y-117393931D01*
X162861538Y-117443720D01*
X162877528Y-117494532D01*
X162891214Y-117546315D01*
X162902538Y-117599018D01*
X162911445Y-117652589D01*
X162917878Y-117706975D01*
X162921779Y-117762126D01*
X162923092Y-117817990D01*
X162923092Y-117817991D01*
X162921779Y-117873893D01*
X162917878Y-117929150D01*
G37*
X162917878Y-117929150D02*
X162911445Y-117983695D01*
X162902538Y-118037459D01*
X162891214Y-118090376D01*
X162877528Y-118142378D01*
X162861538Y-118193400D01*
X162843301Y-118243372D01*
X162822874Y-118292229D01*
X162800313Y-118339903D01*
X162775675Y-118386326D01*
X162749017Y-118431433D01*
X162720397Y-118475155D01*
X162689870Y-118517425D01*
X162657493Y-118558177D01*
X162623324Y-118597343D01*
X162954832Y-118928831D01*
X162863139Y-119020520D01*
X162531631Y-118689031D01*
X162491881Y-118723198D01*
X162450696Y-118755573D01*
X162408126Y-118786098D01*
X162364223Y-118814717D01*
X162319040Y-118841373D01*
X162272626Y-118866009D01*
X162225035Y-118888569D01*
X162176317Y-118908995D01*
X162126525Y-118927231D01*
X162075711Y-118943220D01*
X162023924Y-118956905D01*
X161971219Y-118968229D01*
X161917645Y-118977136D01*
X161863255Y-118983568D01*
X161808101Y-118987469D01*
X161752234Y-118988782D01*
X161696328Y-118987469D01*
X161641068Y-118983568D01*
X161586520Y-118977136D01*
X161532753Y-118968229D01*
X161479833Y-118956905D01*
X161427827Y-118943220D01*
X161376803Y-118927231D01*
X161326828Y-118908995D01*
X161277968Y-118888569D01*
X161230292Y-118866010D01*
X161183866Y-118841373D01*
X161138757Y-118814717D01*
X161095032Y-118786098D01*
X161052759Y-118755573D01*
X161012005Y-118723198D01*
X160972837Y-118689031D01*
X160641329Y-119020520D01*
X160549635Y-118928831D01*
X160881144Y-118597343D01*
X161061004Y-118597343D01*
X161096082Y-118627006D01*
X161132502Y-118655130D01*
X161170204Y-118681663D01*
X161209125Y-118706553D01*
X161249203Y-118729749D01*
X161290376Y-118751199D01*
X161332583Y-118770851D01*
X161375761Y-118788654D01*
X161419848Y-118804556D01*
X161464782Y-118818505D01*
X161510501Y-118830450D01*
X161556944Y-118840339D01*
X161604048Y-118848121D01*
X161651751Y-118853743D01*
X161699991Y-118857154D01*
X161748707Y-118858302D01*
X161752234Y-118858302D01*
X161801531Y-118857154D01*
X161850203Y-118853743D01*
X161898203Y-118848121D01*
X161945485Y-118840339D01*
X161992003Y-118830450D01*
X162037709Y-118818505D01*
X162082558Y-118804556D01*
X162126503Y-118788654D01*
X162169497Y-118770851D01*
X162211495Y-118751199D01*
X162252448Y-118729749D01*
X162292312Y-118706553D01*
X162331039Y-118681663D01*
X162368584Y-118655130D01*
X162404898Y-118627006D01*
X162439937Y-118597343D01*
X161752234Y-117909679D01*
X161061004Y-118597343D01*
X160881144Y-118597343D01*
X160846975Y-118557596D01*
X160814598Y-118516413D01*
X160784071Y-118473845D01*
X160755450Y-118429945D01*
X160728793Y-118384764D01*
X160704155Y-118338353D01*
X160681594Y-118290764D01*
X160661167Y-118242050D01*
X160642930Y-118192260D01*
X160626940Y-118141448D01*
X160613254Y-118089665D01*
X160601930Y-118036963D01*
X160593022Y-117983392D01*
X160586590Y-117929006D01*
X160582689Y-117873854D01*
X160581376Y-117817990D01*
X160581459Y-117814464D01*
X160708336Y-117814464D01*
X160709485Y-117863759D01*
X160712896Y-117912434D01*
X160718518Y-117960448D01*
X160726300Y-118007759D01*
X160736190Y-118054327D01*
X160748135Y-118100109D01*
X160762085Y-118145065D01*
X160777988Y-118189153D01*
X160795792Y-118232331D01*
X160815445Y-118274560D01*
X160836896Y-118315796D01*
X160860093Y-118355999D01*
X160884985Y-118395128D01*
X160911520Y-118433141D01*
X160939645Y-118469997D01*
X160969310Y-118505654D01*
X161657013Y-117817991D01*
X161843927Y-117817991D01*
X162531631Y-118505654D01*
X162561296Y-118470579D01*
X162589421Y-118434160D01*
X162615956Y-118396461D01*
X162640848Y-118357542D01*
X162664045Y-118317466D01*
X162685496Y-118276295D01*
X162705149Y-118234091D01*
X162722953Y-118190916D01*
X162738856Y-118146831D01*
X162752806Y-118101900D01*
X162764751Y-118056183D01*
X162774641Y-118009743D01*
X162782423Y-117962642D01*
X162788045Y-117914941D01*
X162791456Y-117866704D01*
X162792605Y-117817991D01*
X162791456Y-117769278D01*
X162788045Y-117721040D01*
X162782423Y-117673340D01*
X162774641Y-117626238D01*
X162764751Y-117579798D01*
X162752806Y-117534082D01*
X162738856Y-117489150D01*
X162722953Y-117445065D01*
X162705149Y-117401890D01*
X162685496Y-117359686D01*
X162664045Y-117318515D01*
X162640848Y-117278439D01*
X162615956Y-117239521D01*
X162589421Y-117201821D01*
X162561296Y-117165402D01*
X162531631Y-117130327D01*
X161847454Y-117814464D01*
X161843927Y-117817991D01*
X161657013Y-117817991D01*
X161660540Y-117814464D01*
X160969310Y-117123274D01*
X160939645Y-117158349D01*
X160911520Y-117194768D01*
X160884985Y-117232468D01*
X160860093Y-117271386D01*
X160836896Y-117311462D01*
X160815445Y-117352633D01*
X160795792Y-117394837D01*
X160777988Y-117438013D01*
X160762085Y-117482097D01*
X160748135Y-117527029D01*
X160736190Y-117572745D01*
X160726300Y-117619185D01*
X160718518Y-117666287D01*
X160712896Y-117713987D01*
X160709485Y-117762225D01*
X160708336Y-117810938D01*
X160708336Y-117814464D01*
X160581459Y-117814464D01*
X160582689Y-117762088D01*
X160586590Y-117706831D01*
X160593022Y-117652286D01*
X160601930Y-117598522D01*
X160613254Y-117545605D01*
X160626940Y-117493602D01*
X160642930Y-117442581D01*
X160661167Y-117392609D01*
X160681594Y-117343752D01*
X160704155Y-117296078D01*
X160728793Y-117249655D01*
X160755450Y-117204548D01*
X160784071Y-117160826D01*
X160814598Y-117118556D01*
X160846975Y-117077804D01*
X160881144Y-117038638D01*
X160877618Y-117035112D01*
X161064531Y-117035112D01*
X161755761Y-117722775D01*
X162443464Y-117035112D01*
X162408385Y-117005448D01*
X162371959Y-116977324D01*
X162334241Y-116950791D01*
X162295288Y-116925901D01*
X162255157Y-116902705D01*
X162213906Y-116881255D01*
X162171590Y-116861603D01*
X162128266Y-116843800D01*
X162083993Y-116827898D01*
X162038825Y-116813949D01*
X161992821Y-116802004D01*
X161946036Y-116792115D01*
X161898528Y-116784334D01*
X161850354Y-116778712D01*
X161801571Y-116775301D01*
X161752234Y-116774152D01*
X161702937Y-116775301D01*
X161654265Y-116778712D01*
X161606265Y-116784334D01*
X161558983Y-116792115D01*
X161512465Y-116802004D01*
X161466759Y-116813949D01*
X161421910Y-116827898D01*
X161377965Y-116843800D01*
X161334970Y-116861603D01*
X161292973Y-116881255D01*
X161252019Y-116902705D01*
X161212156Y-116925901D01*
X161173428Y-116950791D01*
X161135884Y-116977324D01*
X161099570Y-117005448D01*
X161064531Y-117035112D01*
X160877618Y-117035112D01*
X160549635Y-116707149D01*
X160641329Y-116615461D01*
X160972837Y-116946950D01*
X161012586Y-116912783D01*
X161053772Y-116880408D01*
X161096342Y-116849883D01*
X161140244Y-116821264D01*
X161185428Y-116794608D01*
X161231842Y-116769971D01*
X161279433Y-116747412D01*
X161328150Y-116726986D01*
X161377942Y-116708750D01*
X161428757Y-116692761D01*
X161480543Y-116679076D01*
X161533249Y-116667752D01*
X161586823Y-116658845D01*
X161641212Y-116652413D01*
X161696367Y-116648512D01*
X161752234Y-116647199D01*
X161808140Y-116648512D01*
X161863400Y-116652413D01*
X161917947Y-116658845D01*
X161971715Y-116667752D01*
X162024635Y-116679076D01*
X162076640Y-116692761D01*
X162127664Y-116708749D01*
X162177640Y-116726985D01*
X162226499Y-116747412D01*
X162274176Y-116769971D01*
X162320602Y-116794608D01*
X162365711Y-116821264D01*
X162409436Y-116849883D01*
X162451709Y-116880408D01*
X162492463Y-116912783D01*
X162531631Y-116946950D01*
X162863139Y-116615461D01*
X162954832Y-116707149D01*
X162626851Y-117035112D01*
X162623324Y-117038638D01*
X162657493Y-117078385D01*
X162689870Y-117119568D01*
X162720397Y-117162136D01*
X162749017Y-117206036D01*
X162775675Y-117251217D01*
X162800313Y-117297628D01*
X162822874Y-117345216D01*
X162843301Y-117393931D01*
X162861538Y-117443720D01*
X162877528Y-117494532D01*
X162891214Y-117546315D01*
X162902538Y-117599018D01*
X162911445Y-117652589D01*
X162917878Y-117706975D01*
X162921779Y-117762126D01*
X162923092Y-117817990D01*
X162923092Y-117817991D01*
X162921779Y-117873893D01*
X162917878Y-117929150D01*
D11*
X107949478Y-54781201D02*
X107435443Y-55809270D01*
X108497779Y-54781201D02*
X108497779Y-55809270D01*
X110828069Y-54746932D02*
X110816223Y-54590367D01*
X110781849Y-54441215D01*
X110726690Y-54301221D01*
X110623828Y-54131821D01*
X110491250Y-53985936D01*
X110333091Y-53867699D01*
X110153484Y-53781245D01*
X110007191Y-53739749D01*
X109852904Y-53720200D01*
X109800000Y-53718863D01*
X108771932Y-54746932D02*
X108771932Y-54746932D01*
X111890406Y-53718864D02*
X112918475Y-55809270D01*
D10*
G36*
X162519858Y-114601275D02*
G01*
X162557949Y-114626158D01*
X162594881Y-114652637D01*
X162630605Y-114680663D01*
X162665071Y-114710188D01*
X162698229Y-114741161D01*
X162730030Y-114773534D01*
X162760424Y-114807258D01*
X162789361Y-114842284D01*
X162816792Y-114878563D01*
X162842666Y-114916045D01*
X162866934Y-114954682D01*
X162889546Y-114994424D01*
X162910454Y-115035223D01*
X162929605Y-115077029D01*
X162946952Y-115119793D01*
X162962445Y-115163466D01*
X162976033Y-115207999D01*
X162987667Y-115253344D01*
X162997297Y-115299450D01*
X163004874Y-115346270D01*
X163010348Y-115393753D01*
X163012645Y-115427037D01*
X163013668Y-115441850D01*
X163014786Y-115490514D01*
X163014786Y-115553990D01*
X162655064Y-115553990D01*
X162958359Y-115857268D01*
X162866665Y-115948956D01*
X162471677Y-115553990D01*
X161783974Y-115553990D01*
X161783974Y-115423511D01*
X162341190Y-115423511D01*
X161752234Y-114834589D01*
X161163278Y-115423511D01*
X161776921Y-115423511D01*
X161776921Y-115553990D01*
X161032791Y-115553990D01*
X160637802Y-115948956D01*
X160546109Y-115857268D01*
X160849403Y-115553990D01*
X160567269Y-115553990D01*
X160567269Y-115423511D01*
X160697756Y-115423511D01*
X160979891Y-115423511D01*
X161653505Y-114746427D01*
X161847454Y-114746427D01*
X162528104Y-115427037D01*
X162884299Y-115427037D01*
X162884299Y-115423511D01*
X162880329Y-115380808D01*
X162874401Y-115338689D01*
X162866561Y-115297201D01*
X162856857Y-115256389D01*
X162845334Y-115216300D01*
X162832039Y-115176981D01*
X162817019Y-115138478D01*
X162800320Y-115100838D01*
X162781988Y-115064107D01*
X162762070Y-115028331D01*
X162740613Y-114993558D01*
X162717663Y-114959834D01*
X162693266Y-114927204D01*
X162667470Y-114895717D01*
X162640320Y-114865417D01*
X162611863Y-114836352D01*
X162582145Y-114808568D01*
X162551213Y-114782112D01*
X162519114Y-114757029D01*
X162485894Y-114733368D01*
X162451599Y-114711173D01*
X162416276Y-114690492D01*
X162379972Y-114671371D01*
X162342733Y-114653856D01*
X162304605Y-114637995D01*
X162265635Y-114623833D01*
X162225869Y-114611417D01*
X162185355Y-114600794D01*
X162144137Y-114592010D01*
X162102264Y-114585111D01*
X162059781Y-114580144D01*
X162016735Y-114577155D01*
X161850981Y-114742900D01*
X161847454Y-114746427D01*
X161653505Y-114746427D01*
X161657014Y-114742900D01*
X161487732Y-114573629D01*
X161671120Y-114573629D01*
X161752234Y-114654738D01*
X161833348Y-114573629D01*
X161671120Y-114573629D01*
X161487732Y-114573629D01*
X160697756Y-114573629D01*
X160697756Y-115423511D01*
X160567269Y-115423511D01*
X160567269Y-114446676D01*
X160701283Y-114446676D01*
X161360772Y-114446676D01*
X160842350Y-113928283D01*
X160826817Y-113938651D01*
X160811988Y-113949897D01*
X160797901Y-113961990D01*
X160784601Y-113974899D01*
X160772126Y-113988593D01*
X160760520Y-114003042D01*
X160755055Y-114010539D01*
X160749823Y-114018214D01*
X160744828Y-114026061D01*
X160740076Y-114034078D01*
X160735572Y-114042260D01*
X160731322Y-114050603D01*
X160727329Y-114059104D01*
X160723600Y-114067758D01*
X160720140Y-114076563D01*
X160716953Y-114085513D01*
X160714045Y-114094605D01*
X160711422Y-114103836D01*
X160709088Y-114113201D01*
X160707048Y-114122696D01*
X160705308Y-114132318D01*
X160703873Y-114142062D01*
X160702747Y-114151926D01*
X160701937Y-114161904D01*
X160701447Y-114171993D01*
X160701283Y-114182190D01*
X160701283Y-114446676D01*
X160567269Y-114446676D01*
X160567269Y-114178663D01*
X160568087Y-114152389D01*
X160570513Y-114126496D01*
X160574498Y-114101038D01*
X160579998Y-114076065D01*
X160586964Y-114051629D01*
X160595351Y-114027782D01*
X160605112Y-114004576D01*
X160616201Y-113982062D01*
X160628571Y-113960292D01*
X160642176Y-113939317D01*
X160656969Y-113919190D01*
X160672904Y-113899961D01*
X160689934Y-113881683D01*
X160708012Y-113864407D01*
X160727093Y-113848185D01*
X160747129Y-113833068D01*
X160549635Y-113635585D01*
X160641329Y-113543897D01*
X160870563Y-113773118D01*
X160877878Y-113770556D01*
X160885276Y-113768159D01*
X160892757Y-113765927D01*
X160900320Y-113763861D01*
X160907965Y-113761960D01*
X160915694Y-113760224D01*
X160923505Y-113758654D01*
X160931399Y-113757249D01*
X160939375Y-113756009D01*
X160947434Y-113754935D01*
X160955576Y-113754026D01*
X160963800Y-113753282D01*
X160972107Y-113752703D01*
X160980496Y-113752290D01*
X160988969Y-113752042D01*
X160997524Y-113751959D01*
X162284763Y-113751959D01*
X162284763Y-113882439D01*
X160983417Y-113882439D01*
X161544160Y-114443149D01*
X161963835Y-114443149D01*
X162866665Y-113543897D01*
X162958359Y-113635585D01*
X162143741Y-114446676D01*
X162133116Y-114457255D01*
X162179395Y-114465564D01*
X162224963Y-114475910D01*
X162269771Y-114488246D01*
X162313768Y-114502521D01*
X162356906Y-114518687D01*
X162399133Y-114536694D01*
X162440401Y-114556494D01*
X162472422Y-114573629D01*
X162480659Y-114578037D01*
X162519858Y-114601275D01*
G37*
X162519858Y-114601275D02*
X162557949Y-114626158D01*
X162594881Y-114652637D01*
X162630605Y-114680663D01*
X162665071Y-114710188D01*
X162698229Y-114741161D01*
X162730030Y-114773534D01*
X162760424Y-114807258D01*
X162789361Y-114842284D01*
X162816792Y-114878563D01*
X162842666Y-114916045D01*
X162866934Y-114954682D01*
X162889546Y-114994424D01*
X162910454Y-115035223D01*
X162929605Y-115077029D01*
X162946952Y-115119793D01*
X162962445Y-115163466D01*
X162976033Y-115207999D01*
X162987667Y-115253344D01*
X162997297Y-115299450D01*
X163004874Y-115346270D01*
X163010348Y-115393753D01*
X163012645Y-115427037D01*
X163013668Y-115441850D01*
X163014786Y-115490514D01*
X163014786Y-115553990D01*
X162655064Y-115553990D01*
X162958359Y-115857268D01*
X162866665Y-115948956D01*
X162471677Y-115553990D01*
X161783974Y-115553990D01*
X161783974Y-115423511D01*
X162341190Y-115423511D01*
X161752234Y-114834589D01*
X161163278Y-115423511D01*
X161776921Y-115423511D01*
X161776921Y-115553990D01*
X161032791Y-115553990D01*
X160637802Y-115948956D01*
X160546109Y-115857268D01*
X160849403Y-115553990D01*
X160567269Y-115553990D01*
X160567269Y-115423511D01*
X160697756Y-115423511D01*
X160979891Y-115423511D01*
X161653505Y-114746427D01*
X161847454Y-114746427D01*
X162528104Y-115427037D01*
X162884299Y-115427037D01*
X162884299Y-115423511D01*
X162880329Y-115380808D01*
X162874401Y-115338689D01*
X162866561Y-115297201D01*
X162856857Y-115256389D01*
X162845334Y-115216300D01*
X162832039Y-115176981D01*
X162817019Y-115138478D01*
X162800320Y-115100838D01*
X162781988Y-115064107D01*
X162762070Y-115028331D01*
X162740613Y-114993558D01*
X162717663Y-114959834D01*
X162693266Y-114927204D01*
X162667470Y-114895717D01*
X162640320Y-114865417D01*
X162611863Y-114836352D01*
X162582145Y-114808568D01*
X162551213Y-114782112D01*
X162519114Y-114757029D01*
X162485894Y-114733368D01*
X162451599Y-114711173D01*
X162416276Y-114690492D01*
X162379972Y-114671371D01*
X162342733Y-114653856D01*
X162304605Y-114637995D01*
X162265635Y-114623833D01*
X162225869Y-114611417D01*
X162185355Y-114600794D01*
X162144137Y-114592010D01*
X162102264Y-114585111D01*
X162059781Y-114580144D01*
X162016735Y-114577155D01*
X161850981Y-114742900D01*
X161847454Y-114746427D01*
X161653505Y-114746427D01*
X161657014Y-114742900D01*
X161487732Y-114573629D01*
X161671120Y-114573629D01*
X161752234Y-114654738D01*
X161833348Y-114573629D01*
X161671120Y-114573629D01*
X161487732Y-114573629D01*
X160697756Y-114573629D01*
X160697756Y-115423511D01*
X160567269Y-115423511D01*
X160567269Y-114446676D01*
X160701283Y-114446676D01*
X161360772Y-114446676D01*
X160842350Y-113928283D01*
X160826817Y-113938651D01*
X160811988Y-113949897D01*
X160797901Y-113961990D01*
X160784601Y-113974899D01*
X160772126Y-113988593D01*
X160760520Y-114003042D01*
X160755055Y-114010539D01*
X160749823Y-114018214D01*
X160744828Y-114026061D01*
X160740076Y-114034078D01*
X160735572Y-114042260D01*
X160731322Y-114050603D01*
X160727329Y-114059104D01*
X160723600Y-114067758D01*
X160720140Y-114076563D01*
X160716953Y-114085513D01*
X160714045Y-114094605D01*
X160711422Y-114103836D01*
X160709088Y-114113201D01*
X160707048Y-114122696D01*
X160705308Y-114132318D01*
X160703873Y-114142062D01*
X160702747Y-114151926D01*
X160701937Y-114161904D01*
X160701447Y-114171993D01*
X160701283Y-114182190D01*
X160701283Y-114446676D01*
X160567269Y-114446676D01*
X160567269Y-114178663D01*
X160568087Y-114152389D01*
X160570513Y-114126496D01*
X160574498Y-114101038D01*
X160579998Y-114076065D01*
X160586964Y-114051629D01*
X160595351Y-114027782D01*
X160605112Y-114004576D01*
X160616201Y-113982062D01*
X160628571Y-113960292D01*
X160642176Y-113939317D01*
X160656969Y-113919190D01*
X160672904Y-113899961D01*
X160689934Y-113881683D01*
X160708012Y-113864407D01*
X160727093Y-113848185D01*
X160747129Y-113833068D01*
X160549635Y-113635585D01*
X160641329Y-113543897D01*
X160870563Y-113773118D01*
X160877878Y-113770556D01*
X160885276Y-113768159D01*
X160892757Y-113765927D01*
X160900320Y-113763861D01*
X160907965Y-113761960D01*
X160915694Y-113760224D01*
X160923505Y-113758654D01*
X160931399Y-113757249D01*
X160939375Y-113756009D01*
X160947434Y-113754935D01*
X160955576Y-113754026D01*
X160963800Y-113753282D01*
X160972107Y-113752703D01*
X160980496Y-113752290D01*
X160988969Y-113752042D01*
X160997524Y-113751959D01*
X162284763Y-113751959D01*
X162284763Y-113882439D01*
X160983417Y-113882439D01*
X161544160Y-114443149D01*
X161963835Y-114443149D01*
X162866665Y-113543897D01*
X162958359Y-113635585D01*
X162143741Y-114446676D01*
X162133116Y-114457255D01*
X162179395Y-114465564D01*
X162224963Y-114475910D01*
X162269771Y-114488246D01*
X162313768Y-114502521D01*
X162356906Y-114518687D01*
X162399133Y-114536694D01*
X162440401Y-114556494D01*
X162472422Y-114573629D01*
X162480659Y-114578037D01*
X162519858Y-114601275D01*
D11*
X109800000Y-55775000D02*
X109956564Y-55763154D01*
X110105716Y-55728780D01*
X110245710Y-55673621D01*
X110415110Y-55570759D01*
X110560995Y-55438181D01*
X110679232Y-55280022D01*
X110765686Y-55100416D01*
X110807182Y-54954123D01*
X110826731Y-54799836D01*
X110828069Y-54746932D01*
D12*
G36*
X100895107Y-93024818D02*
G01*
X100895107Y-93405925D01*
X99367146Y-93405925D01*
X99367146Y-94933891D01*
X97839182Y-94933891D01*
X97839182Y-93787034D01*
X97458075Y-93787034D01*
X97458075Y-93024818D01*
X97073435Y-93024818D01*
X97073435Y-92262599D01*
X97458075Y-91877961D01*
X97073435Y-92259072D01*
X95545473Y-92259072D01*
X95164364Y-91877961D01*
X95545473Y-92262599D01*
X95545473Y-93024818D01*
X95164364Y-93024818D01*
X95164364Y-93787034D01*
X94783255Y-93787034D01*
X94783255Y-94552781D01*
X95545473Y-94552781D01*
X95545473Y-93787034D01*
X95930109Y-93787034D01*
X95930109Y-93024818D01*
X96692327Y-93024818D01*
X96692327Y-93787034D01*
X97073435Y-93787034D01*
X97073435Y-94552781D01*
X97835653Y-94552781D01*
X97835653Y-94933891D01*
X93255289Y-94933891D01*
X93255289Y-93405925D01*
X91727327Y-93405925D01*
X91727327Y-93024818D01*
X91346218Y-93024818D01*
X91346218Y-91496854D01*
X94017508Y-91496854D01*
X94402143Y-91496854D01*
X94402143Y-91877961D01*
X95164364Y-91877961D01*
X95164364Y-91496854D01*
X95545473Y-91496854D01*
X97073435Y-91496854D01*
X97458075Y-91496854D01*
X97458075Y-91877961D01*
X98220289Y-91877961D01*
X98220289Y-91496854D01*
X98604927Y-91496854D01*
X98604927Y-90731107D01*
X98220289Y-90731107D01*
X98220289Y-90350000D01*
X97458075Y-90350000D01*
X97458075Y-90731107D01*
X97073435Y-90731107D01*
X97073435Y-91496854D01*
X95545473Y-91496854D01*
X95545473Y-90731107D01*
X95164364Y-90731107D01*
X95164364Y-90350000D01*
X94402143Y-90350000D01*
X94402143Y-90731107D01*
X94017508Y-90731107D01*
X94017508Y-91496854D01*
X91346218Y-91496854D01*
X91346218Y-90731107D01*
X91727327Y-90731107D01*
X91727327Y-90350000D01*
X93255289Y-90350000D01*
X93255289Y-89203145D01*
X93636398Y-89203145D01*
X93636398Y-88822036D01*
X98986036Y-88822036D01*
X98986036Y-89203145D01*
X99367146Y-89203145D01*
X99367146Y-90350000D01*
X100895107Y-90350000D01*
X100895107Y-90731107D01*
X101276218Y-90731107D01*
X101276218Y-93024818D01*
X100895107Y-93024818D01*
G37*
D11*
X110759531Y-55775001D02*
X111547717Y-55775001D01*
X121298690Y-54517904D02*
X121565357Y-54136952D01*
X121755833Y-54517904D02*
X121755833Y-53717904D01*
X121451071Y-53717904D01*
X121374880Y-53756000D01*
X121336785Y-53794095D01*
X121298690Y-53870285D01*
X121298690Y-53984571D01*
X121336785Y-54060761D01*
X121374880Y-54098857D01*
X121451071Y-54136952D01*
X121755833Y-54136952D01*
X120955833Y-54098857D02*
X120689166Y-54098857D01*
X120574880Y-54517904D02*
X120955833Y-54517904D01*
X120955833Y-53717904D01*
X120574880Y-53717904D01*
X120346309Y-53717904D02*
X120079642Y-54517904D01*
X119812976Y-53717904D01*
X119546309Y-54517904D02*
X119546309Y-53717904D01*
X119203452Y-54479809D02*
X119089166Y-54517904D01*
X118898690Y-54517904D01*
X118822500Y-54479809D01*
X118784404Y-54441714D01*
X118746309Y-54365523D01*
X118746309Y-54289333D01*
X118784404Y-54213142D01*
X118822500Y-54175047D01*
X118898690Y-54136952D01*
X119051071Y-54098857D01*
X119127261Y-54060761D01*
X119165357Y-54022666D01*
X119203452Y-53946476D01*
X119203452Y-53870285D01*
X119165357Y-53794095D01*
X119127261Y-53756000D01*
X119051071Y-53717904D01*
X118860595Y-53717904D01*
X118746309Y-53756000D01*
X118403452Y-54517904D02*
X118403452Y-53717904D01*
X117870119Y-53717904D02*
X117717738Y-53717904D01*
X117641547Y-53756000D01*
X117565357Y-53832190D01*
X117527261Y-53984571D01*
X117527261Y-54251238D01*
X117565357Y-54403619D01*
X117641547Y-54479809D01*
X117717738Y-54517904D01*
X117870119Y-54517904D01*
X117946309Y-54479809D01*
X118022500Y-54403619D01*
X118060595Y-54251238D01*
X118060595Y-53984571D01*
X118022500Y-53832190D01*
X117946309Y-53756000D01*
X117870119Y-53717904D01*
X117184404Y-54517904D02*
X117184404Y-53717904D01*
X116727261Y-54517904D01*
X116727261Y-53717904D01*
X115317738Y-54517904D02*
X115774880Y-54517904D01*
X115546309Y-54517904D02*
X115546309Y-53717904D01*
X115622500Y-53832190D01*
X115698690Y-53908380D01*
X115774880Y-53946476D01*
X114974880Y-54441714D02*
X114936785Y-54479809D01*
X114974880Y-54517904D01*
X115012976Y-54479809D01*
X114974880Y-54441714D01*
X114974880Y-54517904D01*
X114670119Y-53717904D02*
X114174880Y-53717904D01*
X114441547Y-54022666D01*
X114327261Y-54022666D01*
X114251071Y-54060761D01*
X114212976Y-54098857D01*
X114174880Y-54175047D01*
X114174880Y-54365523D01*
X114212976Y-54441714D01*
X114251071Y-54479809D01*
X114327261Y-54517904D01*
X114555833Y-54517904D01*
X114632023Y-54479809D01*
X114670119Y-54441714D01*
X118936785Y-55386857D02*
X118822500Y-55424952D01*
X118784404Y-55463047D01*
X118746309Y-55539238D01*
X118746309Y-55653523D01*
X118784404Y-55729714D01*
X118822500Y-55767809D01*
X118898690Y-55805904D01*
X119203452Y-55805904D01*
X119203452Y-55005904D01*
X118936785Y-55005904D01*
X118860595Y-55044000D01*
X118822500Y-55082095D01*
X118784404Y-55158285D01*
X118784404Y-55234476D01*
X118822500Y-55310666D01*
X118860595Y-55348761D01*
X118936785Y-55386857D01*
X119203452Y-55386857D01*
X118251071Y-55424952D02*
X118251071Y-55805904D01*
X118517738Y-55005904D02*
X118251071Y-55424952D01*
X117984404Y-55005904D01*
X116689166Y-55044000D02*
X116765357Y-55005904D01*
X116879642Y-55005904D01*
X116993928Y-55044000D01*
X117070119Y-55120190D01*
X117108214Y-55196380D01*
X117146309Y-55348761D01*
X117146309Y-55463047D01*
X117108214Y-55615428D01*
X117070119Y-55691619D01*
X116993928Y-55767809D01*
X116879642Y-55805904D01*
X116803452Y-55805904D01*
X116689166Y-55767809D01*
X116651071Y-55729714D01*
X116651071Y-55463047D01*
X116803452Y-55463047D01*
X116308214Y-55386857D02*
X116041547Y-55386857D01*
X115927261Y-55805904D02*
X116308214Y-55805904D01*
X116308214Y-55005904D01*
X115927261Y-55005904D01*
X115584404Y-55805904D02*
X115584404Y-55005904D01*
X115241547Y-55767809D02*
X115127261Y-55805904D01*
X114936785Y-55805904D01*
X114860595Y-55767809D01*
X114822500Y-55729714D01*
X114784404Y-55653523D01*
X114784404Y-55577333D01*
X114822500Y-55501142D01*
X114860595Y-55463047D01*
X114936785Y-55424952D01*
X115089166Y-55386857D01*
X115165357Y-55348761D01*
X115203452Y-55310666D01*
X115241547Y-55234476D01*
X115241547Y-55158285D01*
X115203452Y-55082095D01*
X115165357Y-55044000D01*
X115089166Y-55005904D01*
X114898690Y-55005904D01*
X114784404Y-55044000D01*
X114555833Y-55005904D02*
X114098690Y-55005904D01*
X114327261Y-55805904D02*
X114327261Y-55005904D01*
D13*
X82309995Y-118535008D03*
X82309995Y-122785008D03*
D14*
X83209995Y-121885008D03*
X83209995Y-119435008D03*
D15*
X83209995Y-120660008D03*
D16*
X81259995Y-118810008D03*
X81259995Y-122510008D03*
D17*
X88554135Y-149711849D03*
D18*
X87168205Y-158281984D03*
D19*
X85372154Y-152893830D03*
D18*
X89862282Y-151995804D03*
X84474129Y-157383959D03*
D17*
X82190173Y-156075811D03*
D20*
X81780052Y-156485932D03*
D18*
X90760308Y-154689881D03*
D20*
X88964256Y-149301728D03*
D21*
X83798841Y-147926405D03*
X82561405Y-146688968D03*
X79167292Y-150083081D03*
X80404729Y-151320517D03*
D22*
X92146237Y-149768418D03*
X84962032Y-160544725D03*
D18*
X146821399Y-131237857D03*
D20*
X137931399Y-128697857D03*
X148091399Y-128697857D03*
D18*
X139201399Y-131237858D03*
D17*
X138511399Y-128697857D03*
D18*
X145551399Y-133777857D03*
D17*
X147511399Y-128697857D03*
D18*
X140471399Y-133777857D03*
D19*
X143011399Y-128697857D03*
D23*
X145411399Y-124072857D03*
X145411399Y-122322857D03*
X140611399Y-122322857D03*
X140611399Y-124072857D03*
D24*
X150011399Y-131277857D03*
X137311399Y-133817857D03*
D18*
X177994852Y-74917326D03*
D20*
X175815403Y-69672519D03*
D18*
X176905127Y-72294924D03*
D20*
X185950653Y-70381245D03*
D17*
X185372066Y-70340786D03*
D18*
X184506566Y-72826467D03*
D19*
X180883028Y-70026882D03*
D17*
X176393990Y-69712978D03*
D18*
X183062478Y-75271689D03*
D25*
X183599805Y-65580564D03*
X183721879Y-63834827D03*
X178933572Y-63499996D03*
X178811498Y-65245733D03*
D26*
X187686005Y-73088893D03*
X174839760Y-74736798D03*
D27*
X181560000Y-122470000D03*
D28*
X191951654Y-110709596D03*
X195300000Y-111300000D03*
D29*
X135297000Y-96197000D03*
X138697000Y-96197000D03*
D30*
X172900000Y-116200000D03*
X176291718Y-116437172D03*
D18*
X120758503Y-137143245D03*
D17*
X126243820Y-130414255D03*
D18*
X126234732Y-133046292D03*
D17*
X117550488Y-132743627D03*
D19*
X121897154Y-131578941D03*
D20*
X126804057Y-130264140D03*
D18*
X125665406Y-135828444D03*
X118874377Y-135018494D03*
D20*
X116990251Y-132893742D03*
D31*
X123018338Y-126490368D03*
X122565405Y-124799998D03*
X117928961Y-126042330D03*
X118381894Y-127732700D03*
D32*
X129326388Y-132259296D03*
X117716530Y-137999750D03*
D27*
X83320000Y-55720000D03*
D18*
X156571399Y-83755260D03*
D19*
X159111399Y-78675260D03*
D17*
X154611399Y-78675260D03*
X163611399Y-78675260D03*
D20*
X154031399Y-78675260D03*
X164191399Y-78675260D03*
D18*
X161651399Y-83755260D03*
X155301399Y-81215261D03*
X162921399Y-81215260D03*
D23*
X161511399Y-74050260D03*
X161511399Y-72300260D03*
X156711399Y-72300260D03*
X156711399Y-74050260D03*
D24*
X166111399Y-81255260D03*
X153411399Y-83795260D03*
D20*
X213991479Y-100804692D03*
D17*
X223425937Y-102468242D03*
D18*
X222305353Y-104849836D03*
X215610758Y-106248582D03*
D20*
X223997125Y-102568958D03*
D19*
X218994302Y-101686825D03*
D18*
X220613581Y-107130715D03*
X214801118Y-103526638D03*
D17*
X214562667Y-100905408D03*
D33*
X222160963Y-97548845D03*
X222464848Y-95825431D03*
X217737771Y-94991920D03*
X217433886Y-96715334D03*
D34*
X225439944Y-105443166D03*
X212491819Y-105739246D03*
D35*
X128663008Y-123578926D03*
X129542992Y-126863074D03*
D36*
X153510000Y-116290000D03*
X166710000Y-116290000D03*
D37*
X193250000Y-75050000D03*
D18*
X175333978Y-112969598D03*
X174244253Y-110347196D03*
D20*
X173154529Y-107724791D03*
D17*
X173733116Y-107765250D03*
X182711192Y-108393058D03*
D19*
X178222154Y-108079154D03*
D20*
X183289779Y-108433517D03*
D18*
X181845692Y-110878739D03*
X180401604Y-113323961D03*
D25*
X180938931Y-103632836D03*
X181061005Y-101887099D03*
X176272698Y-101552268D03*
X176150624Y-103298005D03*
D26*
X185025131Y-111141165D03*
X172178886Y-112789070D03*
D17*
X116567969Y-90675260D03*
D18*
X117257969Y-93215261D03*
D19*
X121067969Y-90675260D03*
D18*
X123607969Y-95755260D03*
D20*
X126147969Y-90675260D03*
D18*
X118527969Y-95755260D03*
X124877969Y-93215260D03*
D20*
X115987969Y-90675260D03*
D17*
X125567969Y-90675260D03*
D23*
X123467969Y-86050260D03*
X123467969Y-84300260D03*
X118667969Y-84300260D03*
X118667969Y-86050260D03*
D24*
X128067969Y-93255260D03*
X115367969Y-95795260D03*
D29*
X153300000Y-106300000D03*
X156700000Y-106300000D03*
D38*
X88090000Y-111450000D03*
X88090000Y-116450000D03*
X88090000Y-113950000D03*
D39*
X95590000Y-108350000D03*
X95590000Y-119550000D03*
D38*
X102590000Y-116450000D03*
X102590000Y-111450000D03*
D40*
X100249110Y-98455000D03*
X97709110Y-98455000D03*
X95169110Y-98455000D03*
X92629110Y-98455000D03*
D41*
X82400000Y-129125000D03*
X89400000Y-127375000D03*
X82400000Y-127375000D03*
X89400000Y-129125000D03*
D42*
X91200000Y-131225000D03*
X91200000Y-125275000D03*
X87200000Y-131225000D03*
X87200000Y-125275000D03*
X84200000Y-125275000D03*
X84200000Y-131225000D03*
X92700000Y-129475000D03*
X92700000Y-127025000D03*
D20*
X210679558Y-119587533D03*
D17*
X220114016Y-121251083D03*
D19*
X215682381Y-120469666D03*
D17*
X211250746Y-119688249D03*
D18*
X211489197Y-122309479D03*
D20*
X220685204Y-121351799D03*
D18*
X212298837Y-125031423D03*
X218993432Y-123632677D03*
X217301660Y-125913556D03*
D33*
X218849042Y-116331686D03*
X219152927Y-114608272D03*
X214425850Y-113774761D03*
X214121965Y-115498175D03*
D34*
X222128023Y-124226007D03*
X209179898Y-124522087D03*
D29*
X115300000Y-99200000D03*
X118700000Y-99200000D03*
D18*
X123607969Y-114827857D03*
D20*
X126147969Y-109747857D03*
D19*
X121067969Y-109747857D03*
D17*
X116567969Y-109747857D03*
D18*
X118527969Y-114827857D03*
D17*
X125567969Y-109747857D03*
D20*
X115987969Y-109747857D03*
D18*
X117257969Y-112287858D03*
X124877969Y-112287857D03*
D23*
X123467969Y-105122857D03*
X123467969Y-103372857D03*
X118667969Y-103372857D03*
X118667969Y-105122857D03*
D24*
X128067969Y-112327857D03*
X115367969Y-114867857D03*
D27*
X83320000Y-135150000D03*
X188990000Y-56730000D03*
D28*
X195251654Y-91909596D03*
X198600000Y-92500000D03*
D43*
X106672000Y-130427514D03*
X108372000Y-133372000D03*
D18*
X124877969Y-74142664D03*
X118527969Y-76682664D03*
D20*
X126147969Y-71602664D03*
D19*
X121067969Y-71602664D03*
D18*
X117257969Y-74142665D03*
D17*
X125567969Y-71602664D03*
D20*
X115987969Y-71602664D03*
D17*
X116567969Y-71602664D03*
D18*
X123607969Y-76682664D03*
D23*
X123467969Y-66977664D03*
X123467969Y-65227664D03*
X118667969Y-65227664D03*
X118667969Y-66977664D03*
D24*
X128067969Y-74182664D03*
X115367969Y-76722664D03*
D44*
X82350000Y-104800000D03*
X82350000Y-102800000D03*
D19*
X179552591Y-89053017D03*
D20*
X174484966Y-88698654D03*
D17*
X184041629Y-89366921D03*
D18*
X183176129Y-91852602D03*
X181732041Y-94297824D03*
D17*
X175063553Y-88739113D03*
D20*
X184620216Y-89407380D03*
D18*
X176664415Y-93943461D03*
X175574690Y-91321059D03*
D25*
X182269368Y-84606699D03*
X182391442Y-82860962D03*
X177603135Y-82526131D03*
X177481061Y-84271868D03*
D26*
X186355568Y-92115028D03*
X173509323Y-93762933D03*
D28*
X220200000Y-110600000D03*
X223548346Y-111190404D03*
D27*
X174150000Y-55720000D03*
D29*
X134300000Y-77100000D03*
X137700000Y-77100000D03*
X153400000Y-68100000D03*
X156800000Y-68100000D03*
X153379000Y-87185000D03*
X156779000Y-87185000D03*
D28*
X188625827Y-129404798D03*
X191974173Y-129995202D03*
D29*
X99180000Y-106960000D03*
X102580000Y-106960000D03*
D19*
X159111399Y-59602664D03*
D18*
X155301399Y-62142665D03*
X156571399Y-64682664D03*
X162921399Y-62142664D03*
X161651399Y-64682664D03*
D17*
X163611399Y-59602664D03*
D20*
X154031399Y-59602664D03*
X164191399Y-59602664D03*
D17*
X154611399Y-59602664D03*
D23*
X161511399Y-54977664D03*
X161511399Y-53227664D03*
X156711399Y-53227664D03*
X156711399Y-54977664D03*
D24*
X166111399Y-62182664D03*
X153411399Y-64722664D03*
D45*
X130549000Y-96400000D03*
X168649000Y-96400000D03*
X149599000Y-77350000D03*
D19*
X102247154Y-139831736D03*
D18*
X102587449Y-145501145D03*
D17*
X106144268Y-137581736D03*
D18*
X106816711Y-140126441D03*
D20*
X97847745Y-142371736D03*
D17*
X98350040Y-142081736D03*
D18*
X100217598Y-143936441D03*
D20*
X106646563Y-137291736D03*
D18*
X106986859Y-142961145D03*
D46*
X102013115Y-134626369D03*
X101138115Y-133110824D03*
X96981193Y-135510824D03*
X97856193Y-137026369D03*
D47*
X109599332Y-138566082D03*
X99870809Y-147115786D03*
D19*
X196080143Y-122090396D03*
D17*
X200511778Y-122871813D03*
D18*
X192696599Y-126652153D03*
D17*
X191648508Y-121308979D03*
D20*
X201082966Y-122972529D03*
D18*
X191886959Y-123930209D03*
X197699422Y-127534286D03*
D20*
X191077320Y-121208263D03*
D18*
X199391194Y-125253407D03*
D33*
X199246804Y-117952416D03*
X199550689Y-116229002D03*
X194823612Y-115395491D03*
X194519727Y-117118905D03*
D34*
X202525785Y-125846737D03*
X189577660Y-126142817D03*
D27*
X169950000Y-121710000D03*
D30*
X172908282Y-97162828D03*
X176300000Y-97400000D03*
D27*
X167300000Y-88050000D03*
D17*
X144561399Y-106747857D03*
X135561399Y-106747857D03*
D18*
X142601399Y-111827857D03*
X136251399Y-109287858D03*
D20*
X145141399Y-106747857D03*
D19*
X140061399Y-106747857D03*
D20*
X134981399Y-106747857D03*
D18*
X143871399Y-109287857D03*
X137521399Y-111827857D03*
D23*
X142461399Y-102122857D03*
X142461399Y-100372857D03*
X137661399Y-100372857D03*
X137661399Y-102122857D03*
D24*
X147061399Y-109327857D03*
X134361399Y-111867857D03*
D17*
X144561399Y-87675260D03*
D20*
X134981399Y-87675260D03*
X145141399Y-87675260D03*
D18*
X137521399Y-92755260D03*
X136251399Y-90215261D03*
D19*
X140061399Y-87675260D03*
D17*
X135561399Y-87675260D03*
D18*
X143871399Y-90215260D03*
X142601399Y-92755260D03*
D23*
X142461399Y-83050260D03*
X142461399Y-81300260D03*
X137661399Y-81300260D03*
X137661399Y-83050260D03*
D24*
X147061399Y-90255260D03*
X134361399Y-92795260D03*
D30*
X174300000Y-78100000D03*
X177691718Y-78337172D03*
D48*
X87070836Y-142475836D03*
X89475000Y-144880000D03*
D49*
X148200000Y-104900000D03*
X148200000Y-101500000D03*
D50*
X82500000Y-111399951D03*
D38*
X82500000Y-115000000D03*
D17*
X207135622Y-85306132D03*
D19*
X202703987Y-84524715D03*
D18*
X206015038Y-87687726D03*
D17*
X198272352Y-83743298D03*
D18*
X199320443Y-89086472D03*
D20*
X197701164Y-83642582D03*
X207706810Y-85406848D03*
D18*
X204323266Y-89968605D03*
X198510803Y-86364528D03*
D33*
X205870648Y-80386735D03*
X206174533Y-78663321D03*
X201447456Y-77829810D03*
X201143571Y-79553224D03*
D34*
X209149629Y-88281056D03*
X196201504Y-88577136D03*
D29*
X115300000Y-80100000D03*
X118700000Y-80100000D03*
D13*
X82301228Y-62426228D03*
X82251228Y-65426228D03*
D51*
X84101228Y-66176228D03*
X84101228Y-63176228D03*
X84101228Y-61676228D03*
D52*
X82201228Y-68026228D03*
X82201228Y-60076228D03*
D27*
X145400000Y-55720000D03*
D29*
X115100000Y-118290000D03*
X118500000Y-118290000D03*
D28*
X216851654Y-129209596D03*
X220200000Y-129800000D03*
D53*
X137950000Y-120100000D03*
D54*
X140490000Y-120100000D03*
X143030000Y-120100000D03*
X145570000Y-120100000D03*
X148110000Y-120100000D03*
D20*
X164191399Y-97747857D03*
D17*
X154611399Y-97747857D03*
D18*
X161651399Y-102827857D03*
D17*
X163611399Y-97747857D03*
D18*
X162921399Y-100287857D03*
D20*
X154031399Y-97747857D03*
D18*
X156571399Y-102827857D03*
D19*
X159111399Y-97747857D03*
D18*
X155301399Y-100287858D03*
D23*
X161511399Y-93122857D03*
X161511399Y-91372857D03*
X156711399Y-91372857D03*
X156711399Y-93122857D03*
D24*
X166111399Y-100327857D03*
X153411399Y-102867857D03*
D18*
X202703116Y-106470565D03*
D20*
X204394888Y-104189687D03*
X194389242Y-102425421D03*
D17*
X203823700Y-104088971D03*
X194960430Y-102526137D03*
D18*
X201011344Y-108751444D03*
X196008521Y-107869311D03*
D19*
X199392065Y-103307554D03*
D18*
X195198881Y-105147367D03*
D33*
X202558726Y-99169574D03*
X202862611Y-97446160D03*
X198135534Y-96612649D03*
X197831649Y-98336063D03*
D34*
X205837707Y-107063895D03*
X192889582Y-107359975D03*
D55*
X105318815Y-58035745D03*
X88780000Y-56840000D03*
X105318815Y-60575745D03*
X88780000Y-59380000D03*
X105318815Y-63115745D03*
X88780000Y-61920000D03*
X88780000Y-64460000D03*
X105318815Y-65655745D03*
X88780000Y-67000000D03*
X105318815Y-68195745D03*
X88780000Y-69540000D03*
X105318815Y-70735745D03*
X105318815Y-73275745D03*
X88780000Y-72080000D03*
X88780000Y-74620000D03*
X105318815Y-75815745D03*
X105318815Y-78355745D03*
X88780000Y-77160000D03*
X88780000Y-79700000D03*
X105318815Y-80895745D03*
X88780000Y-82240000D03*
X105318815Y-83435745D03*
X88780000Y-84780000D03*
X105318815Y-85975745D03*
X90078815Y-85975745D03*
X104020000Y-84780000D03*
X104020000Y-82240000D03*
X90078815Y-83435745D03*
X90078815Y-80895745D03*
X104020000Y-79700000D03*
X90078815Y-78355745D03*
X104020000Y-77160000D03*
X104020000Y-74620000D03*
X90078815Y-75815745D03*
X104020000Y-72080000D03*
X90078815Y-73275745D03*
X104020000Y-69540000D03*
X90078815Y-70735745D03*
X104020000Y-67000000D03*
X90078815Y-68195745D03*
X90078815Y-65655745D03*
X104020000Y-64460000D03*
X90078815Y-63115745D03*
X104020000Y-61920000D03*
X104020000Y-59380000D03*
X90078815Y-60575745D03*
X90078815Y-58035745D03*
X104020000Y-56840000D03*
D18*
X143871399Y-71142664D03*
D20*
X145141399Y-68602664D03*
D17*
X144561399Y-68602664D03*
D20*
X134981399Y-68602664D03*
D17*
X135561399Y-68602664D03*
D19*
X140061399Y-68602664D03*
D18*
X136251399Y-71142665D03*
X142601399Y-73682664D03*
X137521399Y-73682664D03*
D23*
X142461399Y-63977664D03*
X142461399Y-62227664D03*
X137661399Y-62227664D03*
X137661399Y-63977664D03*
D24*
X147061399Y-71182664D03*
X134361399Y-73722664D03*
D49*
X151604000Y-122605000D03*
X151604000Y-126005000D03*
D56*
X92629450Y-101301620D03*
X92629450Y-102302380D03*
X140500000Y-118150380D03*
X140500000Y-117149620D03*
X100213450Y-101301620D03*
X100213450Y-102302380D03*
X145600000Y-118150760D03*
X145600000Y-117150000D03*
X194925000Y-58850380D03*
X194925000Y-57849620D03*
X97668450Y-101301620D03*
X97668450Y-102302380D03*
X81900000Y-107999620D03*
X81900000Y-109000380D03*
D57*
X91450342Y-136358810D03*
X90583658Y-136859190D03*
D56*
X95166000Y-101301620D03*
X95166000Y-102302380D03*
X83675000Y-107999620D03*
X83675000Y-109000380D03*
X148100000Y-118150380D03*
X148100000Y-117149620D03*
D17*
X194920000Y-55650000D03*
D58*
X197460000Y-55650000D03*
X200000000Y-55650000D03*
X202540000Y-55650000D03*
X205080000Y-55650000D03*
D56*
X197425000Y-58850380D03*
X197425000Y-57849620D03*
X205100000Y-58850380D03*
X205100000Y-57849620D03*
M02*
