%FSLAX45Y45*%
G04 Gerber Fmt 4.5, Leading zero omitted, Abs format (unit mm)*
G04 Created by KiCad (PCBNEW (6.0.4)) date 2022-05-03 22:23:00*
%MOMM*%
%LPD*%
G01*
G04 APERTURE LIST*
%TA.AperFunction,Profile*%
%ADD10C,0.010000*%
%TD*%
%ADD11C,0.010000*%
%TA.AperFunction,Profile*%
%ADD12C,0.100000*%
%TD*%
%ADD13C,0.200000*%
%ADD14C,0.070000*%
%ADD15C,0.090000*%
%ADD16C,0.120000*%
%ADD17C,0.170000*%
%ADD18C,0.190000*%
%ADD19C,0.220000*%
%ADD20C,0.300000*%
%ADD21C,0.320000*%
%ADD22C,0.410000*%
G04 APERTURE END LIST*
D10*
X9420513Y-14904833D02*
X9089081Y-14333642D01*
X21327375Y-9013104D02*
X21133452Y-10102598D01*
D11*
X9505134Y-14855471D02*
X9506394Y-14857484D01*
X9507531Y-14859554D01*
X9508546Y-14861676D01*
X9509438Y-14863844D01*
X9510209Y-14866054D01*
X9510859Y-14868300D01*
X9511389Y-14870577D01*
X9511800Y-14872880D01*
X9512092Y-14875203D01*
X9512266Y-14877542D01*
X9512322Y-14879891D01*
X9512261Y-14882245D01*
X9512085Y-14884599D01*
X9511792Y-14886949D01*
X9511385Y-14889287D01*
X9510864Y-14891611D01*
X9510228Y-14893913D01*
X9509480Y-14896190D01*
X9508620Y-14898436D01*
X9507648Y-14900646D01*
X9506564Y-14902814D01*
X9505371Y-14904936D01*
X9504067Y-14907006D01*
X9502655Y-14909020D01*
X9501134Y-14910971D01*
X9499505Y-14912855D01*
X9497769Y-14914667D01*
X9495927Y-14916402D01*
X9493979Y-14918054D01*
X9491925Y-14919618D01*
X9489767Y-14921089D01*
X9487505Y-14922462D01*
D10*
X21024150Y-7525187D02*
X21024150Y-5388510D01*
X9184280Y-6061951D02*
X9184280Y-5314467D01*
D11*
X15276983Y-13917589D02*
X15280597Y-13917497D01*
X15284166Y-13917223D01*
X15287685Y-13916773D01*
X15291148Y-13916150D01*
X15294552Y-13915359D01*
X15297893Y-13914405D01*
X15301164Y-13913292D01*
X15304363Y-13912025D01*
X15307485Y-13910608D01*
X15310524Y-13909045D01*
X15313477Y-13907342D01*
X15316339Y-13905503D01*
X15319105Y-13903532D01*
X15321771Y-13901434D01*
X15324333Y-13899213D01*
X15326785Y-13896875D01*
X15329124Y-13894422D01*
X15331345Y-13891860D01*
X15333443Y-13889194D01*
X15335414Y-13886428D01*
X15337253Y-13883566D01*
X15338956Y-13880613D01*
X15340519Y-13877574D01*
X15341936Y-13874452D01*
X15343203Y-13871253D01*
X15344316Y-13867982D01*
X15345270Y-13864641D01*
X15346061Y-13861237D01*
X15346684Y-13857774D01*
X15347134Y-13854255D01*
X15347408Y-13850686D01*
X15347500Y-13847072D01*
X23083258Y-9390372D02*
X23084468Y-9386758D01*
X23085455Y-9383187D01*
X23086225Y-9379665D01*
X23086784Y-9376193D01*
X23087136Y-9372776D01*
X23087287Y-9369416D01*
X23087241Y-9366117D01*
X23087004Y-9362882D01*
X23086582Y-9359714D01*
X23085978Y-9356616D01*
X23085199Y-9353592D01*
X23084250Y-9350645D01*
X23083135Y-9347777D01*
X23081860Y-9344993D01*
X23080430Y-9342296D01*
X23078851Y-9339688D01*
X23077127Y-9337173D01*
X23075263Y-9334755D01*
X23073265Y-9332436D01*
X23071138Y-9330219D01*
X23068887Y-9328109D01*
X23066517Y-9326107D01*
X23064034Y-9324218D01*
X23061442Y-9322444D01*
X23058747Y-9320790D01*
X23055953Y-9319257D01*
X23053067Y-9317849D01*
X23050093Y-9316570D01*
X23047036Y-9315423D01*
X23043902Y-9314410D01*
X23040696Y-9313536D01*
X23037422Y-9312803D01*
D10*
X14853878Y-5314467D02*
X10210308Y-5314467D01*
D11*
X10517059Y-15028238D02*
X10524010Y-15023621D01*
X10530982Y-15019024D01*
X10537973Y-15014448D01*
X10544983Y-15009893D01*
X10552011Y-15005358D01*
X10559057Y-15000844D01*
X10566119Y-14996350D01*
X10573197Y-14991877D01*
X10580291Y-14987425D01*
X10587400Y-14982994D01*
X10594522Y-14978583D01*
X10601659Y-14974193D01*
X10608808Y-14969824D01*
X10615970Y-14965475D01*
X10623143Y-14961147D01*
X10630327Y-14956839D01*
X10637522Y-14952552D01*
X10644726Y-14948286D01*
X10651939Y-14944041D01*
X10659161Y-14939816D01*
X10666390Y-14935612D01*
X10673627Y-14931428D01*
X10680870Y-14927265D01*
X10688118Y-14923123D01*
X10695372Y-14919001D01*
X10702631Y-14914901D01*
X10709893Y-14910820D01*
X10717159Y-14906761D01*
X10724427Y-14902722D01*
X10731697Y-14898704D01*
X10738968Y-14894706D01*
X10746240Y-14890729D01*
D10*
X21408470Y-7592179D02*
X21024150Y-7525187D01*
D11*
X20692719Y-12309793D02*
X20695332Y-12310194D01*
X20697880Y-12310736D01*
X20700361Y-12311412D01*
X20702773Y-12312217D01*
X20705112Y-12313145D01*
X20707376Y-12314193D01*
X20709563Y-12315354D01*
X20711670Y-12316624D01*
X20713694Y-12317997D01*
X20715633Y-12319468D01*
X20717484Y-12321032D01*
X20719245Y-12322684D01*
X20720913Y-12324418D01*
X20722485Y-12326230D01*
X20723959Y-12328115D01*
X20725333Y-12330066D01*
X20726603Y-12332080D01*
X20727767Y-12334150D01*
X20728823Y-12336272D01*
X20729768Y-12338440D01*
X20730599Y-12340650D01*
X20731314Y-12342896D01*
X20731910Y-12345173D01*
X20732385Y-12347475D01*
X20732735Y-12349799D01*
X20732960Y-12352137D01*
X20733055Y-12354486D01*
X20733018Y-12356841D01*
X20732847Y-12359195D01*
X20732540Y-12361544D01*
X20732092Y-12363883D01*
X20731503Y-12366206D01*
X8137096Y-5314467D02*
X8133161Y-5314559D01*
X8129292Y-5314833D01*
X8125493Y-5315283D01*
X8121767Y-5315906D01*
X8118119Y-5316697D01*
X8114552Y-5317651D01*
X8111070Y-5318764D01*
X8107678Y-5320031D01*
X8104378Y-5321448D01*
X8101175Y-5323011D01*
X8098073Y-5324714D01*
X8095075Y-5326553D01*
X8092186Y-5328524D01*
X8089409Y-5330622D01*
X8086749Y-5332843D01*
X8084208Y-5335182D01*
X8081792Y-5337634D01*
X8079503Y-5340196D01*
X8077346Y-5342862D01*
X8075325Y-5345628D01*
X8073443Y-5348490D01*
X8071704Y-5351443D01*
X8070113Y-5354483D01*
X8068673Y-5357604D01*
X8067387Y-5360803D01*
X8066261Y-5364075D01*
X8065297Y-5367415D01*
X8064499Y-5370819D01*
X8063873Y-5374283D01*
X8063420Y-5377801D01*
X8063146Y-5381370D01*
X8063053Y-5384985D01*
D10*
X9184280Y-5314467D02*
X8228769Y-5314467D01*
D11*
X9279478Y-16029585D02*
X9295035Y-16014070D01*
X9310633Y-15998597D01*
X9326272Y-15983166D01*
X9341952Y-15967779D01*
X9357674Y-15952436D01*
X9373437Y-15937137D01*
X9389242Y-15921883D01*
X9405087Y-15906675D01*
X9420974Y-15891514D01*
X9436903Y-15876400D01*
X9452873Y-15861334D01*
X9468884Y-15846316D01*
X9484936Y-15831347D01*
X9501030Y-15816427D01*
X9517165Y-15801559D01*
X9533341Y-15786741D01*
X9549559Y-15771975D01*
X9565817Y-15757261D01*
X9582118Y-15742600D01*
X9598459Y-15727992D01*
X9614842Y-15713439D01*
X9631266Y-15698941D01*
X9647732Y-15684498D01*
X9664239Y-15670112D01*
X9680787Y-15655782D01*
X9697377Y-15641510D01*
X9714007Y-15627295D01*
X9730680Y-15613140D01*
X9747393Y-15599044D01*
X9764148Y-15585008D01*
X9780944Y-15571032D01*
X9797781Y-15557119D01*
X8496735Y-16717130D02*
X8499420Y-16719691D01*
X8502182Y-16722088D01*
X8505017Y-16724319D01*
X8507919Y-16726385D01*
X8510883Y-16728286D01*
X8513903Y-16730021D01*
X8516975Y-16731591D01*
X8520094Y-16732996D01*
X8523254Y-16734236D01*
X8526450Y-16735310D01*
X8529678Y-16736219D01*
X8532931Y-16736963D01*
X8536204Y-16737541D01*
X8539493Y-16737954D01*
X8542793Y-16738202D01*
X8546097Y-16738285D01*
X8549402Y-16738202D01*
X8552702Y-16737954D01*
X8555991Y-16737541D01*
X8559264Y-16736963D01*
X8562517Y-16736219D01*
X8565745Y-16735310D01*
X8568941Y-16734236D01*
X8572101Y-16732996D01*
X8575219Y-16731591D01*
X8578292Y-16730021D01*
X8581312Y-16728286D01*
X8584276Y-16726385D01*
X8587178Y-16724319D01*
X8590012Y-16722088D01*
X8592775Y-16719691D01*
X8595460Y-16717130D01*
D10*
X9840092Y-15419610D02*
X10517059Y-15028238D01*
D11*
X9617962Y-15246842D02*
X9616701Y-15244518D01*
X9615564Y-15242177D01*
X9614550Y-15239822D01*
X9613658Y-15237456D01*
X9612887Y-15235082D01*
X9612237Y-15232703D01*
X9611706Y-15230323D01*
X9611296Y-15227945D01*
X9611004Y-15225573D01*
X9610830Y-15223208D01*
X9610774Y-15220856D01*
X9610834Y-15218518D01*
X9611011Y-15216198D01*
X9611303Y-15213900D01*
X9611711Y-15211626D01*
X9612232Y-15209379D01*
X9612867Y-15207164D01*
X9613616Y-15204983D01*
X9614476Y-15202840D01*
X9615448Y-15200737D01*
X9616531Y-15198678D01*
X9617725Y-15196666D01*
X9619028Y-15194705D01*
X9620441Y-15192797D01*
X9621962Y-15190946D01*
X9623591Y-15189155D01*
X9625327Y-15187427D01*
X9627169Y-15185766D01*
X9629117Y-15184174D01*
X9631171Y-15182656D01*
X9633329Y-15181213D01*
X9635591Y-15179850D01*
D10*
X20921900Y-10761936D02*
X20971262Y-10476340D01*
X16944719Y-12542500D02*
X18453791Y-12648276D01*
D11*
X21461358Y-7669748D02*
X21461917Y-7666443D01*
X21462275Y-7663144D01*
X21462438Y-7659855D01*
X21462412Y-7656581D01*
X21462202Y-7653328D01*
X21461815Y-7650101D01*
X21461256Y-7646905D01*
X21460532Y-7643745D01*
X21459647Y-7640626D01*
X21458608Y-7637554D01*
X21457420Y-7634533D01*
X21456090Y-7631569D01*
X21454623Y-7628668D01*
X21453025Y-7625833D01*
X21451301Y-7623071D01*
X21449458Y-7620386D01*
X21447502Y-7617784D01*
X21445437Y-7615269D01*
X21443271Y-7612848D01*
X21441009Y-7610524D01*
X21438656Y-7608304D01*
X21436218Y-7606193D01*
X21433702Y-7604195D01*
X21431113Y-7602316D01*
X21428456Y-7600560D01*
X21425739Y-7598934D01*
X21422965Y-7597443D01*
X21420143Y-7596090D01*
X21417276Y-7594883D01*
X21414371Y-7593825D01*
X21411434Y-7592922D01*
X21408470Y-7592179D01*
D10*
X21066461Y-10493970D02*
X21017099Y-10779565D01*
X8831693Y-13875279D02*
X8066579Y-13875279D01*
X9797781Y-15557119D02*
X9617962Y-15246842D01*
D11*
X9702583Y-15197480D02*
X9703776Y-15199548D01*
X9705215Y-15202041D01*
X9707169Y-15205427D01*
X9709604Y-15209644D01*
X9712484Y-15214632D01*
X9715774Y-15220331D01*
X9719441Y-15226678D01*
X9723448Y-15233615D01*
X9727761Y-15241080D01*
X9732346Y-15249012D01*
X9737166Y-15257351D01*
X9742189Y-15266036D01*
X9747377Y-15275006D01*
X9752698Y-15284201D01*
X9758115Y-15293560D01*
X9763594Y-15303022D01*
X9769101Y-15312527D01*
X9774599Y-15322014D01*
X9780055Y-15331422D01*
X9785434Y-15340690D01*
X9790700Y-15349758D01*
X9795819Y-15358566D01*
X9800756Y-15367052D01*
X9805476Y-15375156D01*
X9809944Y-15382817D01*
X9814126Y-15389974D01*
X9817986Y-15396567D01*
X9821490Y-15402536D01*
X9824602Y-15407818D01*
X9827289Y-15412354D01*
X9829514Y-15416084D01*
X20847857Y-11156833D02*
X20848259Y-11154220D01*
X20848800Y-11151672D01*
X20849476Y-11149191D01*
X20850281Y-11146779D01*
X20851210Y-11144440D01*
X20852257Y-11142175D01*
X20853418Y-11139988D01*
X20854688Y-11137882D01*
X20856061Y-11135857D01*
X20857532Y-11133918D01*
X20859096Y-11132067D01*
X20860748Y-11130307D01*
X20862483Y-11128639D01*
X20864295Y-11127066D01*
X20866179Y-11125592D01*
X20868131Y-11124219D01*
X20870144Y-11122949D01*
X20872214Y-11121785D01*
X20874336Y-11120729D01*
X20876504Y-11119784D01*
X20878714Y-11118953D01*
X20880960Y-11118238D01*
X20883237Y-11117642D01*
X20885540Y-11117167D01*
X20887863Y-11116816D01*
X20890202Y-11116592D01*
X20892551Y-11116497D01*
X20894905Y-11116534D01*
X20897259Y-11116705D01*
X20899609Y-11117012D01*
X20901947Y-11117459D01*
X20904271Y-11118049D01*
D10*
X20950107Y-5314467D02*
X20854909Y-5314467D01*
D11*
X21077038Y-10141383D02*
X21074425Y-10140981D01*
X21071877Y-10140439D01*
X21069396Y-10139764D01*
X21066984Y-10138959D01*
X21064645Y-10138030D01*
X21062381Y-10136982D01*
X21060194Y-10135821D01*
X21058087Y-10134551D01*
X21056063Y-10133178D01*
X21054124Y-10131707D01*
X21052272Y-10130143D01*
X21050512Y-10128491D01*
X21048844Y-10126757D01*
X21047272Y-10124945D01*
X21045797Y-10123060D01*
X21044424Y-10121109D01*
X21043154Y-10119096D01*
X21041990Y-10117025D01*
X21040934Y-10114903D01*
X21039989Y-10112735D01*
X21039158Y-10110525D01*
X21038443Y-10108279D01*
X21037847Y-10106003D01*
X21037372Y-10103700D01*
X21037022Y-10101377D01*
X21036797Y-10099038D01*
X21036702Y-10096689D01*
X21036739Y-10094334D01*
X21036910Y-10091980D01*
X21037217Y-10089631D01*
X21037665Y-10087292D01*
X21038254Y-10084969D01*
X8063053Y-13706037D02*
X8063146Y-13709652D01*
X8063419Y-13713220D01*
X8063870Y-13716739D01*
X8064493Y-13720202D01*
X8065283Y-13723606D01*
X8066237Y-13726947D01*
X8067350Y-13730219D01*
X8068618Y-13733417D01*
X8070035Y-13736539D01*
X8071597Y-13739578D01*
X8073300Y-13742531D01*
X8075139Y-13745393D01*
X8077110Y-13748159D01*
X8079208Y-13750826D01*
X8081429Y-13753387D01*
X8083768Y-13755840D01*
X8086220Y-13758179D01*
X8088782Y-13760400D01*
X8091448Y-13762498D01*
X8094214Y-13764469D01*
X8097076Y-13766308D01*
X8100029Y-13768011D01*
X8103069Y-13769573D01*
X8106190Y-13770990D01*
X8109389Y-13772257D01*
X8112661Y-13773370D01*
X8116001Y-13774324D01*
X8119405Y-13775115D01*
X8122869Y-13775738D01*
X8126387Y-13776189D01*
X8129956Y-13776462D01*
X8133571Y-13776554D01*
D10*
X8063053Y-5384985D02*
X8063053Y-13706037D01*
D11*
X9089081Y-14333642D02*
X9087821Y-14331318D01*
X9086684Y-14328977D01*
X9085670Y-14326622D01*
X9084777Y-14324256D01*
X9084006Y-14321882D01*
X9083356Y-14319503D01*
X9082826Y-14317123D01*
X9082415Y-14314745D01*
X9082123Y-14312373D01*
X9081950Y-14310008D01*
X9081893Y-14307656D01*
X9081954Y-14305318D01*
X9082131Y-14302998D01*
X9082423Y-14300699D01*
X9082830Y-14298426D01*
X9083352Y-14296179D01*
X9083987Y-14293964D01*
X9084735Y-14291783D01*
X9085596Y-14289640D01*
X9086568Y-14287537D01*
X9087651Y-14285478D01*
X9088845Y-14283466D01*
X9090148Y-14281505D01*
X9091561Y-14279597D01*
X9093082Y-14277746D01*
X9094710Y-14275955D01*
X9096446Y-14274227D01*
X9098289Y-14272566D01*
X9100237Y-14270974D01*
X9102291Y-14269455D01*
X9104449Y-14268013D01*
X9106711Y-14266650D01*
D10*
X7798613Y-14545194D02*
X7111068Y-15232739D01*
X14853878Y-4986561D02*
X14853878Y-5314467D01*
D11*
X18393851Y-12997337D02*
X18393603Y-13000632D01*
X18393516Y-13003902D01*
X18393586Y-13007143D01*
X18393810Y-13010353D01*
X18394184Y-13013526D01*
X18394704Y-13016659D01*
X18395365Y-13019748D01*
X18396165Y-13022790D01*
X18397099Y-13025779D01*
X18398164Y-13028714D01*
X18399355Y-13031588D01*
X18400669Y-13034400D01*
X18402102Y-13037145D01*
X18403649Y-13039818D01*
X18405308Y-13042417D01*
X18407073Y-13044936D01*
X18408943Y-13047373D01*
X18410911Y-13049724D01*
X18412975Y-13051984D01*
X18415131Y-13054150D01*
X18417374Y-13056218D01*
X18419702Y-13058184D01*
X18422109Y-13060044D01*
X18424593Y-13061794D01*
X18427149Y-13063431D01*
X18429773Y-13064950D01*
X18432462Y-13066348D01*
X18435212Y-13067620D01*
X18438018Y-13068764D01*
X18440877Y-13069774D01*
X18443786Y-13070648D01*
X18446740Y-13071380D01*
D10*
X16955297Y-5314467D02*
X16955297Y-4986561D01*
D12*
X19280000Y-6115000D02*
X20720000Y-6115000D01*
X20720000Y-6115000D02*
X20720000Y-7255000D01*
X20720000Y-7255000D02*
X19280000Y-7255000D01*
X19280000Y-7255000D02*
X19280000Y-6115000D01*
D11*
X20904271Y-11118049D02*
X20906884Y-11118451D01*
X20909432Y-11118992D01*
X20911913Y-11119668D01*
X20914325Y-11120473D01*
X20916664Y-11121402D01*
X20918929Y-11122449D01*
X20921115Y-11123610D01*
X20923222Y-11124880D01*
X20925246Y-11126253D01*
X20927185Y-11127724D01*
X20929037Y-11129288D01*
X20930797Y-11130940D01*
X20932465Y-11132675D01*
X20934038Y-11134487D01*
X20935512Y-11136371D01*
X20936885Y-11138322D01*
X20938155Y-11140336D01*
X20939319Y-11142406D01*
X20940375Y-11144528D01*
X20941320Y-11146696D01*
X20942151Y-11148906D01*
X20942866Y-11151152D01*
X20943462Y-11153429D01*
X20943937Y-11155731D01*
X20944288Y-11158055D01*
X20944512Y-11160394D01*
X20944607Y-11162743D01*
X20944570Y-11165097D01*
X20944399Y-11167451D01*
X20944092Y-11169800D01*
X20943644Y-11172139D01*
X20943055Y-11174463D01*
D10*
X20706822Y-11960731D02*
X20847857Y-11156833D01*
X8595460Y-16717130D02*
X9279478Y-16029585D01*
D11*
X21024150Y-5388510D02*
X21024058Y-5384585D01*
X21023784Y-5380745D01*
X21023331Y-5376991D01*
X21022704Y-5373326D01*
X21021907Y-5369751D01*
X21020943Y-5366268D01*
X21019816Y-5362880D01*
X21018531Y-5359587D01*
X21017091Y-5356393D01*
X21015499Y-5353299D01*
X21013761Y-5350307D01*
X21011879Y-5347419D01*
X21009857Y-5344637D01*
X21007700Y-5341962D01*
X21005412Y-5339398D01*
X21002995Y-5336945D01*
X21000455Y-5334605D01*
X20997794Y-5332381D01*
X20995017Y-5330275D01*
X20992128Y-5328288D01*
X20989131Y-5326423D01*
X20986029Y-5324681D01*
X20982826Y-5323064D01*
X20979526Y-5321574D01*
X20976133Y-5320213D01*
X20972652Y-5318984D01*
X20969085Y-5317887D01*
X20965436Y-5316926D01*
X20961711Y-5316101D01*
X20957911Y-5315415D01*
X20954042Y-5314870D01*
X20950107Y-5314467D01*
D10*
X20460011Y-13360502D02*
X20636305Y-12348577D01*
D11*
X21017099Y-10779565D02*
X21016697Y-10782178D01*
X21016155Y-10784727D01*
X21015479Y-10787208D01*
X21014675Y-10789619D01*
X21013746Y-10791959D01*
X21012698Y-10794223D01*
X21011537Y-10796410D01*
X21010267Y-10798517D01*
X21008894Y-10800541D01*
X21007423Y-10802480D01*
X21005859Y-10804331D01*
X21004207Y-10806092D01*
X21002473Y-10807760D01*
X21000661Y-10809332D01*
X20998776Y-10810806D01*
X20996825Y-10812179D01*
X20994811Y-10813450D01*
X20992741Y-10814614D01*
X20990619Y-10815670D01*
X20988451Y-10816614D01*
X20986241Y-10817445D01*
X20983995Y-10818160D01*
X20981719Y-10818756D01*
X20979416Y-10819231D01*
X20977093Y-10819582D01*
X20974754Y-10819806D01*
X20972405Y-10819901D01*
X20970050Y-10819865D01*
X20967696Y-10819694D01*
X20965347Y-10819386D01*
X20963008Y-10818939D01*
X20960685Y-10818350D01*
X9487505Y-14922462D02*
X9485181Y-14923722D01*
X9482840Y-14924859D01*
X9480485Y-14925874D01*
X9478118Y-14926766D01*
X9475744Y-14927537D01*
X9473366Y-14928187D01*
X9470986Y-14928717D01*
X9468608Y-14929128D01*
X9466236Y-14929420D01*
X9463871Y-14929594D01*
X9461518Y-14929650D01*
X9459181Y-14929589D01*
X9456861Y-14929413D01*
X9454562Y-14929120D01*
X9452288Y-14928713D01*
X9450042Y-14928191D01*
X9447827Y-14927556D01*
X9445646Y-14926808D01*
X9443503Y-14925948D01*
X9441400Y-14924975D01*
X9439341Y-14923892D01*
X9437329Y-14922699D01*
X9435368Y-14921395D01*
X9433460Y-14919983D01*
X9431609Y-14918462D01*
X9429818Y-14916833D01*
X9428090Y-14915097D01*
X9426429Y-14913255D01*
X9424837Y-14911306D01*
X9423318Y-14909253D01*
X9421876Y-14907095D01*
X9420513Y-14904833D01*
D10*
X10210308Y-5314467D02*
X10210308Y-6061951D01*
X15347500Y-12542500D02*
X16944719Y-12542500D01*
X14296791Y-13917589D02*
X15276983Y-13917589D01*
D11*
X20971262Y-10476340D02*
X20971664Y-10473727D01*
X20972206Y-10471179D01*
X20972881Y-10468698D01*
X20973686Y-10466286D01*
X20974615Y-10463947D01*
X20975663Y-10461683D01*
X20976824Y-10459496D01*
X20978094Y-10457389D01*
X20979467Y-10455365D01*
X20980938Y-10453426D01*
X20982502Y-10451575D01*
X20984154Y-10449814D01*
X20985888Y-10448146D01*
X20987700Y-10446574D01*
X20989584Y-10445100D01*
X20991536Y-10443726D01*
X20993549Y-10442456D01*
X20995620Y-10441292D01*
X20997741Y-10440236D01*
X20999910Y-10439291D01*
X21002120Y-10438460D01*
X21004365Y-10437745D01*
X21006642Y-10437149D01*
X21008945Y-10436674D01*
X21011268Y-10436323D01*
X21013607Y-10436099D01*
X21015956Y-10436004D01*
X21018311Y-10436041D01*
X21020665Y-10436212D01*
X21023014Y-10436519D01*
X21025353Y-10436966D01*
X21027676Y-10437556D01*
D10*
X22409817Y-13198312D02*
X23083258Y-9390372D01*
D11*
X9635591Y-15179850D02*
X9637915Y-15178590D01*
X9640256Y-15177453D01*
X9642611Y-15176439D01*
X9644977Y-15175546D01*
X9647351Y-15174775D01*
X9649730Y-15174125D01*
X9652110Y-15173595D01*
X9654488Y-15173184D01*
X9656860Y-15172892D01*
X9659225Y-15172719D01*
X9661577Y-15172662D01*
X9663915Y-15172723D01*
X9666235Y-15172900D01*
X9668533Y-15173192D01*
X9670807Y-15173599D01*
X9673054Y-15174121D01*
X9675269Y-15174756D01*
X9677450Y-15175504D01*
X9679593Y-15176365D01*
X9681696Y-15177337D01*
X9683755Y-15178420D01*
X9685767Y-15179614D01*
X9687728Y-15180917D01*
X9689636Y-15182330D01*
X9691487Y-15183851D01*
X9693278Y-15185479D01*
X9695006Y-15187215D01*
X9696667Y-15189058D01*
X9698259Y-15191006D01*
X9699777Y-15193060D01*
X9701220Y-15195218D01*
X9702583Y-15197480D01*
D10*
X21401418Y-8011757D02*
X21461358Y-7669748D01*
X18446740Y-13071380D02*
X20382442Y-13413390D01*
D11*
X20382442Y-13413390D02*
X20385747Y-13413958D01*
X20389046Y-13414345D01*
X20392335Y-13414554D01*
X20395609Y-13414588D01*
X20398862Y-13414452D01*
X20402089Y-13414149D01*
X20405285Y-13413683D01*
X20408445Y-13413059D01*
X20411564Y-13412280D01*
X20414636Y-13411350D01*
X20417657Y-13410272D01*
X20420621Y-13409051D01*
X20423522Y-13407691D01*
X20426357Y-13406195D01*
X20429119Y-13404567D01*
X20431804Y-13402812D01*
X20434406Y-13400933D01*
X20436921Y-13398933D01*
X20439342Y-13396818D01*
X20441666Y-13394590D01*
X20443886Y-13392253D01*
X20445997Y-13389812D01*
X20447995Y-13387270D01*
X20449874Y-13384632D01*
X20451629Y-13381900D01*
X20453256Y-13379080D01*
X20454747Y-13376174D01*
X20456100Y-13373186D01*
X20457307Y-13370122D01*
X20458365Y-13366983D01*
X20459268Y-13363775D01*
X20460011Y-13360502D01*
X14920870Y-4919570D02*
X14917575Y-4919662D01*
X14914307Y-4919935D01*
X14911069Y-4920383D01*
X14907868Y-4921002D01*
X14904708Y-4921786D01*
X14901594Y-4922731D01*
X14898533Y-4923830D01*
X14895527Y-4925079D01*
X14892584Y-4926473D01*
X14889708Y-4928006D01*
X14886905Y-4929673D01*
X14884179Y-4931470D01*
X14881535Y-4933390D01*
X14878979Y-4935429D01*
X14876517Y-4937582D01*
X14874152Y-4939843D01*
X14871891Y-4942208D01*
X14869738Y-4944671D01*
X14867698Y-4947227D01*
X14865778Y-4949870D01*
X14863981Y-4952596D01*
X14862314Y-4955400D01*
X14860781Y-4958276D01*
X14859387Y-4961219D01*
X14858138Y-4964224D01*
X14857039Y-4967286D01*
X14856095Y-4970400D01*
X14855311Y-4973560D01*
X14854692Y-4976761D01*
X14854243Y-4979998D01*
X14853970Y-4983267D01*
X14853878Y-4986561D01*
D10*
X23037422Y-9312803D02*
X21327375Y-9013104D01*
D11*
X7111068Y-15232739D02*
X7108507Y-15235423D01*
X7106110Y-15238186D01*
X7103879Y-15241020D01*
X7101813Y-15243922D01*
X7099912Y-15246886D01*
X7098177Y-15249906D01*
X7096607Y-15252979D01*
X7095202Y-15256097D01*
X7093962Y-15259257D01*
X7092888Y-15262454D01*
X7091979Y-15265681D01*
X7091235Y-15268934D01*
X7090657Y-15272207D01*
X7090244Y-15275497D01*
X7089996Y-15278796D01*
X7089913Y-15282101D01*
X7089996Y-15285405D01*
X7090244Y-15288705D01*
X7090657Y-15291994D01*
X7091235Y-15295268D01*
X7091979Y-15298521D01*
X7092888Y-15301748D01*
X7093962Y-15304944D01*
X7095202Y-15308104D01*
X7096607Y-15311223D01*
X7098177Y-15314295D01*
X7099912Y-15317315D01*
X7101813Y-15320279D01*
X7103879Y-15323181D01*
X7106110Y-15326016D01*
X7108507Y-15328778D01*
X7111068Y-15331463D01*
X8958624Y-13998684D02*
X8956301Y-13999944D01*
X8953960Y-14001081D01*
X8951604Y-14002096D01*
X8949238Y-14002988D01*
X8946864Y-14003759D01*
X8944486Y-14004409D01*
X8942106Y-14004939D01*
X8939728Y-14005350D01*
X8937355Y-14005642D01*
X8934991Y-14005816D01*
X8932638Y-14005872D01*
X8930300Y-14005812D01*
X8927980Y-14005635D01*
X8925682Y-14005342D01*
X8923408Y-14004935D01*
X8921162Y-14004414D01*
X8918947Y-14003778D01*
X8916766Y-14003030D01*
X8914622Y-14002170D01*
X8912519Y-14001198D01*
X8910460Y-14000114D01*
X8908449Y-13998921D01*
X8906487Y-13997617D01*
X8904579Y-13996205D01*
X8902728Y-13994684D01*
X8900937Y-13993055D01*
X8899209Y-13991319D01*
X8897548Y-13989477D01*
X8895957Y-13987529D01*
X8894438Y-13985475D01*
X8892996Y-13983317D01*
X8891633Y-13981055D01*
D10*
X8884581Y-13776554D02*
X8976254Y-13931693D01*
X8891633Y-13981055D02*
X8831693Y-13875279D01*
D11*
X10746240Y-14890729D02*
X10798258Y-14860867D01*
X10850511Y-14831442D01*
X10902984Y-14802459D01*
X10955664Y-14773921D01*
X11008538Y-14745833D01*
X11061593Y-14718197D01*
X11114814Y-14691019D01*
X11168187Y-14664302D01*
X11221701Y-14638050D01*
X11275340Y-14612266D01*
X11329091Y-14586955D01*
X11382942Y-14562121D01*
X11436877Y-14537767D01*
X11490885Y-14513897D01*
X11544950Y-14490515D01*
X11599060Y-14467625D01*
X11653201Y-14445231D01*
X11707359Y-14423336D01*
X11761521Y-14401945D01*
X11815673Y-14381062D01*
X11869803Y-14360690D01*
X11923895Y-14340833D01*
X11977937Y-14321495D01*
X12031915Y-14302680D01*
X12085816Y-14284392D01*
X12139626Y-14266635D01*
X12193331Y-14249412D01*
X12246918Y-14232727D01*
X12300373Y-14216585D01*
X12353683Y-14200989D01*
X12406834Y-14185944D01*
X12459813Y-14171452D01*
X20636305Y-12348577D02*
X20636707Y-12345964D01*
X20637248Y-12343416D01*
X20637924Y-12340934D01*
X20638729Y-12338523D01*
X20639658Y-12336184D01*
X20640705Y-12333919D01*
X20641866Y-12331732D01*
X20643136Y-12329625D01*
X20644509Y-12327601D01*
X20645980Y-12325662D01*
X20647544Y-12323811D01*
X20649196Y-12322050D01*
X20650931Y-12320383D01*
X20652743Y-12318810D01*
X20654627Y-12317336D01*
X20656578Y-12315963D01*
X20658592Y-12314693D01*
X20660662Y-12313528D01*
X20662784Y-12312473D01*
X20664952Y-12311528D01*
X20667162Y-12310697D01*
X20669408Y-12309982D01*
X20671685Y-12309386D01*
X20673987Y-12308911D01*
X20676311Y-12308560D01*
X20678650Y-12308336D01*
X20680999Y-12308241D01*
X20683353Y-12308277D01*
X20685707Y-12308448D01*
X20688056Y-12308756D01*
X20690395Y-12309203D01*
X20692719Y-12309793D01*
X12459813Y-14171452D02*
X12517699Y-14156153D01*
X12575657Y-14141330D01*
X12633677Y-14126982D01*
X12691749Y-14113109D01*
X12749862Y-14099712D01*
X12808006Y-14086789D01*
X12866171Y-14074342D01*
X12924346Y-14062370D01*
X12982521Y-14050873D01*
X13040686Y-14039851D01*
X13098830Y-14029305D01*
X13156943Y-14019233D01*
X13215015Y-14009637D01*
X13273035Y-14000516D01*
X13330993Y-13991870D01*
X13388879Y-13983699D01*
X13446683Y-13976004D01*
X13504393Y-13968783D01*
X13562000Y-13962038D01*
X13619493Y-13955768D01*
X13676863Y-13949973D01*
X13734098Y-13944653D01*
X13791188Y-13939808D01*
X13848124Y-13935439D01*
X13904894Y-13931545D01*
X13961489Y-13928125D01*
X14017898Y-13925181D01*
X14074110Y-13922713D01*
X14130116Y-13920719D01*
X14185905Y-13919200D01*
X14241467Y-13918157D01*
X14296791Y-13917589D01*
D10*
X20943055Y-11174463D02*
X20802020Y-11978361D01*
X8066579Y-13875279D02*
X8066579Y-14280754D01*
D11*
X20960685Y-10818350D02*
X20958072Y-10817948D01*
X20955523Y-10817406D01*
X20953042Y-10816730D01*
X20950630Y-10815926D01*
X20948291Y-10814997D01*
X20946027Y-10813949D01*
X20943840Y-10812788D01*
X20941733Y-10811518D01*
X20939709Y-10810145D01*
X20937770Y-10808674D01*
X20935919Y-10807110D01*
X20934158Y-10805458D01*
X20932490Y-10803724D01*
X20930918Y-10801912D01*
X20929444Y-10800027D01*
X20928070Y-10798076D01*
X20926800Y-10796062D01*
X20925636Y-10793992D01*
X20924580Y-10791870D01*
X20923635Y-10789702D01*
X20922804Y-10787492D01*
X20922089Y-10785246D01*
X20921493Y-10782970D01*
X20921019Y-10780667D01*
X20920668Y-10778344D01*
X20920444Y-10776005D01*
X20920349Y-10773656D01*
X20920385Y-10771301D01*
X20920556Y-10768947D01*
X20920864Y-10766598D01*
X20921311Y-10764259D01*
X20921900Y-10761936D01*
D10*
X8228769Y-5314467D02*
X8137096Y-5314467D01*
X7111068Y-15331463D02*
X8496735Y-16717130D01*
X21038254Y-10084969D02*
X21401418Y-8011757D01*
D11*
X9106711Y-14266650D02*
X9109034Y-14265390D01*
X9111376Y-14264253D01*
X9113731Y-14263238D01*
X9116097Y-14262346D01*
X9118471Y-14261575D01*
X9120850Y-14260925D01*
X9123229Y-14260395D01*
X9125607Y-14259984D01*
X9127980Y-14259692D01*
X9130344Y-14259518D01*
X9132697Y-14259462D01*
X9135035Y-14259523D01*
X9137355Y-14259699D01*
X9139653Y-14259992D01*
X9141927Y-14260399D01*
X9144173Y-14260921D01*
X9146388Y-14261556D01*
X9148569Y-14262304D01*
X9150713Y-14263164D01*
X9152816Y-14264137D01*
X9154874Y-14265220D01*
X9156886Y-14266413D01*
X9158848Y-14267717D01*
X9160756Y-14269129D01*
X9162607Y-14270650D01*
X9164398Y-14272279D01*
X9166125Y-14274015D01*
X9167787Y-14275857D01*
X9169378Y-14277806D01*
X9170897Y-14279859D01*
X9172339Y-14282017D01*
X9173702Y-14284280D01*
X16955297Y-4986561D02*
X16955205Y-4983267D01*
X16954932Y-4979998D01*
X16954483Y-4976761D01*
X16953864Y-4973560D01*
X16953080Y-4970400D01*
X16952136Y-4967286D01*
X16951037Y-4964224D01*
X16949788Y-4961219D01*
X16948394Y-4958276D01*
X16946861Y-4955400D01*
X16945193Y-4952596D01*
X16943397Y-4949870D01*
X16941477Y-4947227D01*
X16939437Y-4944671D01*
X16937284Y-4942208D01*
X16935023Y-4939843D01*
X16932658Y-4937582D01*
X16930196Y-4935429D01*
X16927640Y-4933390D01*
X16924996Y-4931470D01*
X16922270Y-4929673D01*
X16919466Y-4928006D01*
X16916591Y-4926473D01*
X16913647Y-4925079D01*
X16910642Y-4923830D01*
X16907580Y-4922731D01*
X16904467Y-4921786D01*
X16901307Y-4921002D01*
X16898105Y-4920383D01*
X16894868Y-4919935D01*
X16891599Y-4919662D01*
X16888305Y-4919570D01*
X20802020Y-11978361D02*
X20801618Y-11980974D01*
X20801077Y-11983522D01*
X20800401Y-11986003D01*
X20799596Y-11988415D01*
X20798668Y-11990754D01*
X20797620Y-11993018D01*
X20796459Y-11995205D01*
X20795189Y-11997312D01*
X20793816Y-11999336D01*
X20792345Y-12001275D01*
X20790781Y-12003127D01*
X20789129Y-12004887D01*
X20787394Y-12006555D01*
X20785582Y-12008127D01*
X20783698Y-12009602D01*
X20781747Y-12010975D01*
X20779733Y-12012245D01*
X20777663Y-12013409D01*
X20775541Y-12014465D01*
X20773373Y-12015410D01*
X20771163Y-12016241D01*
X20768917Y-12016956D01*
X20766640Y-12017552D01*
X20764338Y-12018027D01*
X20762014Y-12018378D01*
X20759676Y-12018602D01*
X20757326Y-12018697D01*
X20754972Y-12018660D01*
X20752618Y-12018490D01*
X20750269Y-12018182D01*
X20747930Y-12017735D01*
X20745607Y-12017145D01*
X22332248Y-13254726D02*
X22335863Y-13255294D01*
X22339433Y-13255680D01*
X22342956Y-13255887D01*
X22346427Y-13255917D01*
X22349844Y-13255774D01*
X22353204Y-13255462D01*
X22356503Y-13254983D01*
X22359739Y-13254340D01*
X22362907Y-13253537D01*
X22366005Y-13252578D01*
X22369029Y-13251465D01*
X22371976Y-13250201D01*
X22374843Y-13248790D01*
X22377627Y-13247236D01*
X22380325Y-13245540D01*
X22382932Y-13243707D01*
X22385447Y-13241740D01*
X22387866Y-13239642D01*
X22390185Y-13237416D01*
X22392401Y-13235065D01*
X22394512Y-13232593D01*
X22396513Y-13230002D01*
X22398402Y-13227297D01*
X22400176Y-13224480D01*
X22401831Y-13221555D01*
X22403364Y-13218524D01*
X22404771Y-13215392D01*
X22406050Y-13212160D01*
X22407197Y-13208834D01*
X22408210Y-13205414D01*
X22409084Y-13201906D01*
X22409817Y-13198312D01*
D10*
X9173702Y-14284280D02*
X9505134Y-14855471D01*
D11*
X21027676Y-10437556D02*
X21029969Y-10437958D01*
X21032218Y-10438499D01*
X21034420Y-10439175D01*
X21036573Y-10439980D01*
X21038675Y-10440909D01*
X21040723Y-10441956D01*
X21042713Y-10443117D01*
X21044644Y-10444387D01*
X21046514Y-10445760D01*
X21048318Y-10447231D01*
X21050056Y-10448795D01*
X21051724Y-10450447D01*
X21053319Y-10452182D01*
X21054840Y-10453994D01*
X21056283Y-10455878D01*
X21057646Y-10457829D01*
X21058927Y-10459843D01*
X21060122Y-10461913D01*
X21061229Y-10464035D01*
X21062246Y-10466203D01*
X21063170Y-10468413D01*
X21063999Y-10470659D01*
X21064729Y-10472936D01*
X21065359Y-10475238D01*
X21065885Y-10477562D01*
X21066306Y-10479901D01*
X21066618Y-10482250D01*
X21066819Y-10484604D01*
X21066906Y-10486958D01*
X21066878Y-10489307D01*
X21066730Y-10491646D01*
X21066461Y-10493970D01*
X8066579Y-14280754D02*
X8057985Y-14288707D01*
X8049392Y-14296700D01*
X8040802Y-14304731D01*
X8032216Y-14312796D01*
X8023634Y-14320896D01*
X8015060Y-14329027D01*
X8006493Y-14337188D01*
X7997935Y-14345376D01*
X7989387Y-14353591D01*
X7980851Y-14361829D01*
X7972328Y-14370089D01*
X7963819Y-14378369D01*
X7955326Y-14386668D01*
X7946849Y-14394982D01*
X7938391Y-14403311D01*
X7929952Y-14411652D01*
X7921533Y-14420003D01*
X7913137Y-14428362D01*
X7904763Y-14436729D01*
X7896414Y-14445099D01*
X7888092Y-14453472D01*
X7879796Y-14461846D01*
X7871528Y-14470219D01*
X7863291Y-14478588D01*
X7855084Y-14486952D01*
X7846909Y-14495309D01*
X7838769Y-14503657D01*
X7830662Y-14511994D01*
X7822593Y-14520318D01*
X7814560Y-14528628D01*
X7806567Y-14536920D01*
X7798613Y-14545194D01*
X20745607Y-12017145D02*
X20743304Y-12016743D01*
X20741026Y-12016202D01*
X20738778Y-12015526D01*
X20736565Y-12014721D01*
X20734390Y-12013793D01*
X20732258Y-12012745D01*
X20730174Y-12011584D01*
X20728143Y-12010314D01*
X20726168Y-12008941D01*
X20724254Y-12007470D01*
X20722407Y-12005906D01*
X20720629Y-12004254D01*
X20718927Y-12002519D01*
X20717304Y-12000707D01*
X20715765Y-11998823D01*
X20714315Y-11996872D01*
X20712957Y-11994858D01*
X20711697Y-11992788D01*
X20710539Y-11990666D01*
X20709487Y-11988498D01*
X20708547Y-11986288D01*
X20707722Y-11984042D01*
X20707017Y-11981765D01*
X20706436Y-11979463D01*
X20705985Y-11977139D01*
X20705668Y-11974800D01*
X20705488Y-11972451D01*
X20705452Y-11970097D01*
X20705562Y-11967743D01*
X20705824Y-11965394D01*
X20706243Y-11963055D01*
X20706822Y-11960731D01*
D10*
X20854909Y-5314467D02*
X16955297Y-5314467D01*
X10210308Y-6061951D02*
X9184280Y-6061951D01*
X8133571Y-13776554D02*
X8884581Y-13776554D01*
X20629253Y-12951501D02*
X22332248Y-13254726D01*
X16888305Y-4919570D02*
X14920870Y-4919570D01*
X15347500Y-13847072D02*
X15347500Y-12542500D01*
D11*
X8976254Y-13931693D02*
X8977514Y-13934016D01*
X8978651Y-13936357D01*
X8979665Y-13938713D01*
X8980558Y-13941079D01*
X8981329Y-13943453D01*
X8981979Y-13945831D01*
X8982509Y-13948211D01*
X8982920Y-13950589D01*
X8983212Y-13952962D01*
X8983385Y-13955326D01*
X8983442Y-13957679D01*
X8983381Y-13960017D01*
X8983204Y-13962336D01*
X8982912Y-13964635D01*
X8982505Y-13966909D01*
X8981983Y-13969155D01*
X8981348Y-13971370D01*
X8980600Y-13973551D01*
X8979739Y-13975695D01*
X8978767Y-13977797D01*
X8977684Y-13979856D01*
X8976490Y-13981868D01*
X8975187Y-13983830D01*
X8973774Y-13985738D01*
X8972254Y-13987589D01*
X8970625Y-13989380D01*
X8968889Y-13991107D01*
X8967046Y-13992769D01*
X8965098Y-13994360D01*
X8963045Y-13995879D01*
X8960886Y-13997321D01*
X8958624Y-13998684D01*
D10*
X20731503Y-12366206D02*
X20629253Y-12951501D01*
D11*
X9829514Y-15416084D02*
X9830506Y-15416985D01*
X9831497Y-15417718D01*
X9832489Y-15418300D01*
X9833481Y-15418749D01*
X9834472Y-15419081D01*
X9835464Y-15419314D01*
X9836456Y-15419466D01*
X9837778Y-15419573D01*
X9839100Y-15419607D01*
X9840092Y-15419610D01*
D10*
X18453791Y-12648276D02*
X18393851Y-12997337D01*
D11*
X21133452Y-10102598D02*
X21133050Y-10105211D01*
X21132509Y-10107760D01*
X21131833Y-10110241D01*
X21131028Y-10112652D01*
X21130099Y-10114992D01*
X21129052Y-10117256D01*
X21127891Y-10119443D01*
X21126621Y-10121550D01*
X21125248Y-10123574D01*
X21123777Y-10125513D01*
X21122213Y-10127364D01*
X21120561Y-10129125D01*
X21118826Y-10130793D01*
X21117014Y-10132365D01*
X21115130Y-10133839D01*
X21113179Y-10135212D01*
X21111165Y-10136483D01*
X21109095Y-10137647D01*
X21106973Y-10138703D01*
X21104805Y-10139647D01*
X21102595Y-10140478D01*
X21100349Y-10141193D01*
X21098072Y-10141789D01*
X21095770Y-10142264D01*
X21093446Y-10142615D01*
X21091107Y-10142839D01*
X21088758Y-10142934D01*
X21086404Y-10142898D01*
X21084050Y-10142727D01*
X21081701Y-10142419D01*
X21079362Y-10141972D01*
X21077038Y-10141383D01*
D13*
D14*
X8190123Y-6507623D02*
X8260123Y-6577623D01*
X8260123Y-6507623D02*
X8190123Y-6577623D01*
X8195123Y-6207623D02*
X8265123Y-6277623D01*
X8265123Y-6207623D02*
X8195123Y-6277623D01*
D15*
X8276000Y-11853500D02*
G75*
G03*
X8276000Y-11853500I-45000J0D01*
G01*
X8276000Y-12278500D02*
G75*
G03*
X8276000Y-12278500I-45000J0D01*
G01*
D16*
X8240000Y-12677500D02*
X8240000Y-12797500D01*
X8180000Y-12737500D02*
X8300000Y-12737500D01*
X8240000Y-12852500D02*
X8240000Y-12972500D01*
X8180000Y-12912500D02*
X8300000Y-12912500D01*
X8940000Y-12677500D02*
X8940000Y-12797500D01*
X8880000Y-12737500D02*
X9000000Y-12737500D01*
X8940000Y-12852500D02*
X8940000Y-12972500D01*
X8880000Y-12912500D02*
X9000000Y-12912500D01*
D17*
X8279122Y-15667686D02*
X8279122Y-15547476D01*
X8158913Y-15547476D01*
X8158913Y-15667686D01*
X8279122Y-15667686D01*
X8915518Y-15031290D02*
X8915518Y-14911080D01*
X8795309Y-14911080D01*
X8795309Y-15031290D01*
X8915518Y-15031290D01*
X9895109Y-14268278D02*
X9895109Y-14148069D01*
X9774899Y-14148069D01*
X9774899Y-14268278D01*
X9895109Y-14268278D01*
X10674532Y-13818278D02*
X10674532Y-13698069D01*
X10554322Y-13698069D01*
X10554322Y-13818278D01*
X10674532Y-13818278D01*
X11716902Y-7220371D02*
X11716902Y-7100162D01*
X11596692Y-7100162D01*
X11596692Y-7220371D01*
X11716902Y-7220371D01*
X11716902Y-9127631D02*
X11716902Y-9007421D01*
X11596692Y-9007421D01*
X11596692Y-9127631D01*
X11716902Y-9127631D01*
X11716902Y-11034890D02*
X11716902Y-10914681D01*
X11596692Y-10914681D01*
X11596692Y-11034890D01*
X11716902Y-11034890D01*
X11815153Y-13334467D02*
X11815153Y-13214258D01*
X11694944Y-13214258D01*
X11694944Y-13334467D01*
X11815153Y-13334467D01*
X12616902Y-7220371D02*
X12616902Y-7100162D01*
X12496692Y-7100162D01*
X12496692Y-7220371D01*
X12616902Y-7220371D01*
X12616902Y-9127631D02*
X12616902Y-9007421D01*
X12496692Y-9007421D01*
X12496692Y-9127631D01*
X12616902Y-9127631D01*
X12616902Y-11034890D02*
X12616902Y-10914681D01*
X12496692Y-10914681D01*
X12496692Y-11034890D01*
X12616902Y-11034890D01*
X12684487Y-13101530D02*
X12684487Y-12981321D01*
X12564277Y-12981321D01*
X12564277Y-13101530D01*
X12684487Y-13101530D01*
X13616245Y-6920371D02*
X13616245Y-6800162D01*
X13496035Y-6800162D01*
X13496035Y-6920371D01*
X13616245Y-6920371D01*
X13616245Y-8827631D02*
X13616245Y-8707421D01*
X13496035Y-8707421D01*
X13496035Y-8827631D01*
X13616245Y-8827631D01*
X13616245Y-10734890D02*
X13616245Y-10614681D01*
X13496035Y-10614681D01*
X13496035Y-10734890D01*
X13616245Y-10734890D01*
X13911245Y-12929890D02*
X13911245Y-12809681D01*
X13791035Y-12809681D01*
X13791035Y-12929890D01*
X13911245Y-12929890D01*
X14516245Y-6920371D02*
X14516245Y-6800162D01*
X14396035Y-6800162D01*
X14396035Y-6920371D01*
X14516245Y-6920371D01*
X14516245Y-8827631D02*
X14516245Y-8707421D01*
X14396035Y-8707421D01*
X14396035Y-8827631D01*
X14516245Y-8827631D01*
X14516245Y-10734890D02*
X14516245Y-10614681D01*
X14396035Y-10614681D01*
X14396035Y-10734890D01*
X14516245Y-10734890D01*
X14811245Y-12929890D02*
X14811245Y-12809681D01*
X14691035Y-12809681D01*
X14691035Y-12929890D01*
X14811245Y-12929890D01*
X15521245Y-6020371D02*
X15521245Y-5900162D01*
X15401035Y-5900162D01*
X15401035Y-6020371D01*
X15521245Y-6020371D01*
X15521245Y-7927631D02*
X15521245Y-7807421D01*
X15401035Y-7807421D01*
X15401035Y-7927631D01*
X15521245Y-7927631D01*
X15521245Y-9834890D02*
X15521245Y-9714681D01*
X15401035Y-9714681D01*
X15401035Y-9834890D01*
X15521245Y-9834890D01*
X16421245Y-6020371D02*
X16421245Y-5900162D01*
X16301035Y-5900162D01*
X16301035Y-6020371D01*
X16421245Y-6020371D01*
X16421245Y-7927631D02*
X16421245Y-7807421D01*
X16301035Y-7807421D01*
X16301035Y-7927631D01*
X16421245Y-7927631D01*
X16421245Y-9834890D02*
X16421245Y-9714681D01*
X16301035Y-9714681D01*
X16301035Y-9834890D01*
X16421245Y-9834890D01*
X17433416Y-10836630D02*
X17433416Y-10716420D01*
X17313207Y-10716420D01*
X17313207Y-10836630D01*
X17433416Y-10836630D01*
X17566460Y-8934016D02*
X17566460Y-8813807D01*
X17446251Y-8813807D01*
X17446251Y-8934016D01*
X17566460Y-8934016D01*
X17699504Y-7031402D02*
X17699504Y-6911193D01*
X17579294Y-6911193D01*
X17579294Y-7031402D01*
X17699504Y-7031402D01*
X18331224Y-10899411D02*
X18331224Y-10779201D01*
X18211015Y-10779201D01*
X18211015Y-10899411D01*
X18331224Y-10899411D01*
X18464268Y-8996797D02*
X18464268Y-8876587D01*
X18344058Y-8876587D01*
X18344058Y-8996797D01*
X18464268Y-8996797D01*
X18597311Y-7094183D02*
X18597311Y-6973974D01*
X18477102Y-6973974D01*
X18477102Y-7094183D01*
X18597311Y-7094183D01*
X19224956Y-12191003D02*
X19224956Y-12070793D01*
X19104746Y-12070793D01*
X19104746Y-12191003D01*
X19224956Y-12191003D01*
X19556148Y-10312718D02*
X19556148Y-10192509D01*
X19435938Y-10192509D01*
X19435938Y-10312718D01*
X19556148Y-10312718D01*
X19887340Y-8434435D02*
X19887340Y-8314225D01*
X19767131Y-8314225D01*
X19767131Y-8434435D01*
X19887340Y-8434435D01*
X20111283Y-12347286D02*
X20111283Y-12227077D01*
X19991073Y-12227077D01*
X19991073Y-12347286D01*
X20111283Y-12347286D01*
X20442475Y-10469002D02*
X20442475Y-10348792D01*
X20322265Y-10348792D01*
X20322265Y-10469002D01*
X20442475Y-10469002D01*
X20773667Y-8590718D02*
X20773667Y-8470509D01*
X20653458Y-8470509D01*
X20653458Y-8590718D01*
X20773667Y-8590718D01*
X21185179Y-12028930D02*
X21185179Y-11908720D01*
X21064970Y-11908720D01*
X21064970Y-12028930D01*
X21185179Y-12028930D01*
X21516371Y-10150646D02*
X21516371Y-10030436D01*
X21396162Y-10030436D01*
X21396162Y-10150646D01*
X21516371Y-10150646D01*
X22071506Y-12185213D02*
X22071506Y-12065004D01*
X21951297Y-12065004D01*
X21951297Y-12185213D01*
X22071506Y-12185213D01*
X22402698Y-10306929D02*
X22402698Y-10186720D01*
X22282489Y-10186720D01*
X22282489Y-10306929D01*
X22402698Y-10306929D01*
D18*
X8178005Y-15743593D02*
X8273005Y-15648593D01*
X8178005Y-15553593D01*
X8083005Y-15648593D01*
X8178005Y-15743593D01*
X8896426Y-15025173D02*
X8991426Y-14930173D01*
X8896426Y-14835173D01*
X8801426Y-14930173D01*
X8896426Y-15025173D01*
X9784775Y-14332174D02*
X9879775Y-14237174D01*
X9784775Y-14142174D01*
X9689775Y-14237174D01*
X9784775Y-14332174D01*
X10664656Y-13824174D02*
X10759656Y-13729174D01*
X10664656Y-13634174D01*
X10569656Y-13729174D01*
X10664656Y-13824174D01*
X11598797Y-7255266D02*
X11693797Y-7160266D01*
X11598797Y-7065266D01*
X11503797Y-7160266D01*
X11598797Y-7255266D01*
X11598797Y-9162526D02*
X11693797Y-9067526D01*
X11598797Y-8972526D01*
X11503797Y-9067526D01*
X11598797Y-9162526D01*
X11598797Y-11069786D02*
X11693797Y-10974786D01*
X11598797Y-10879786D01*
X11503797Y-10974786D01*
X11598797Y-11069786D01*
X11699025Y-13384374D02*
X11794025Y-13289374D01*
X11699025Y-13194374D01*
X11604025Y-13289374D01*
X11699025Y-13384374D01*
X12614797Y-7255266D02*
X12709797Y-7160266D01*
X12614797Y-7065266D01*
X12519797Y-7160266D01*
X12614797Y-7255266D01*
X12614797Y-9162526D02*
X12709797Y-9067526D01*
X12614797Y-8972526D01*
X12519797Y-9067526D01*
X12614797Y-9162526D01*
X12614797Y-11069786D02*
X12709797Y-10974786D01*
X12614797Y-10879786D01*
X12519797Y-10974786D01*
X12614797Y-11069786D01*
X12680406Y-13121414D02*
X12775406Y-13026414D01*
X12680406Y-12931414D01*
X12585406Y-13026414D01*
X12680406Y-13121414D01*
X13498140Y-6955266D02*
X13593140Y-6860266D01*
X13498140Y-6765266D01*
X13403140Y-6860266D01*
X13498140Y-6955266D01*
X13498140Y-8862526D02*
X13593140Y-8767526D01*
X13498140Y-8672526D01*
X13403140Y-8767526D01*
X13498140Y-8862526D01*
X13498140Y-10769786D02*
X13593140Y-10674786D01*
X13498140Y-10579786D01*
X13403140Y-10674786D01*
X13498140Y-10769786D01*
X13793140Y-12964786D02*
X13888140Y-12869786D01*
X13793140Y-12774786D01*
X13698140Y-12869786D01*
X13793140Y-12964786D01*
X14514140Y-6955266D02*
X14609140Y-6860266D01*
X14514140Y-6765266D01*
X14419140Y-6860266D01*
X14514140Y-6955266D01*
X14514140Y-8862526D02*
X14609140Y-8767526D01*
X14514140Y-8672526D01*
X14419140Y-8767526D01*
X14514140Y-8862526D01*
X14514140Y-10769786D02*
X14609140Y-10674786D01*
X14514140Y-10579786D01*
X14419140Y-10674786D01*
X14514140Y-10769786D01*
X14809140Y-12964786D02*
X14904140Y-12869786D01*
X14809140Y-12774786D01*
X14714140Y-12869786D01*
X14809140Y-12964786D01*
X15403140Y-6055266D02*
X15498140Y-5960266D01*
X15403140Y-5865266D01*
X15308140Y-5960266D01*
X15403140Y-6055266D01*
X15403140Y-7962526D02*
X15498140Y-7867526D01*
X15403140Y-7772526D01*
X15308140Y-7867526D01*
X15403140Y-7962526D01*
X15403140Y-9869786D02*
X15498140Y-9774786D01*
X15403140Y-9679786D01*
X15308140Y-9774786D01*
X15403140Y-9869786D01*
X16419140Y-6055266D02*
X16514140Y-5960266D01*
X16419140Y-5865266D01*
X16324140Y-5960266D01*
X16419140Y-6055266D01*
X16419140Y-7962526D02*
X16514140Y-7867526D01*
X16419140Y-7772526D01*
X16324140Y-7867526D01*
X16419140Y-7962526D01*
X16419140Y-9869786D02*
X16514140Y-9774786D01*
X16419140Y-9679786D01*
X16324140Y-9774786D01*
X16419140Y-9869786D01*
X17315453Y-10867479D02*
X17410453Y-10772479D01*
X17315453Y-10677479D01*
X17220453Y-10772479D01*
X17315453Y-10867479D01*
X17448497Y-8964865D02*
X17543497Y-8869865D01*
X17448497Y-8774865D01*
X17353497Y-8869865D01*
X17448497Y-8964865D01*
X17581540Y-7062252D02*
X17676540Y-6967252D01*
X17581540Y-6872252D01*
X17486540Y-6967252D01*
X17581540Y-7062252D01*
X18328978Y-10938352D02*
X18423978Y-10843352D01*
X18328978Y-10748352D01*
X18233978Y-10843352D01*
X18328978Y-10938352D01*
X18462022Y-9035738D02*
X18557022Y-8940738D01*
X18462022Y-8845738D01*
X18367022Y-8940738D01*
X18462022Y-9035738D01*
X18595065Y-7133124D02*
X18690065Y-7038124D01*
X18595065Y-6943124D01*
X18500065Y-7038124D01*
X18595065Y-7133124D01*
X19107732Y-12215826D02*
X19202732Y-12120826D01*
X19107732Y-12025826D01*
X19012732Y-12120826D01*
X19107732Y-12215826D01*
X19438924Y-10337542D02*
X19533924Y-10242542D01*
X19438924Y-10147542D01*
X19343924Y-10242542D01*
X19438924Y-10337542D01*
X19770116Y-8459258D02*
X19865116Y-8364258D01*
X19770116Y-8269258D01*
X19675116Y-8364258D01*
X19770116Y-8459258D01*
X20108297Y-12392253D02*
X20203297Y-12297253D01*
X20108297Y-12202253D01*
X20013297Y-12297253D01*
X20108297Y-12392253D01*
X20439489Y-10513969D02*
X20534489Y-10418969D01*
X20439489Y-10323969D01*
X20344489Y-10418969D01*
X20439489Y-10513969D01*
X20770681Y-8635685D02*
X20865681Y-8540685D01*
X20770681Y-8445685D01*
X20675681Y-8540685D01*
X20770681Y-8635685D01*
X21067956Y-12053753D02*
X21162956Y-11958753D01*
X21067956Y-11863753D01*
X20972956Y-11958753D01*
X21067956Y-12053753D01*
X21399148Y-10175469D02*
X21494148Y-10080469D01*
X21399148Y-9985469D01*
X21304148Y-10080469D01*
X21399148Y-10175469D01*
X22068520Y-12230180D02*
X22163520Y-12135180D01*
X22068520Y-12040180D01*
X21973520Y-12135180D01*
X22068520Y-12230180D01*
X22399712Y-10351896D02*
X22494712Y-10256896D01*
X22399712Y-10161896D01*
X22304713Y-10256896D01*
X22399712Y-10351896D01*
D19*
X19215000Y-7395000D02*
X19435000Y-7615000D01*
X19435000Y-7395000D02*
X19215000Y-7615000D01*
X19435000Y-7505000D02*
G75*
G03*
X19435000Y-7505000I-110000J0D01*
G01*
D20*
X8297413Y-15588396D02*
X8597413Y-15888396D01*
X8597413Y-15588396D02*
X8297413Y-15888396D01*
X8447413Y-15588396D02*
X8447413Y-15888396D01*
X8297413Y-15738396D02*
X8597413Y-15738396D01*
X8566821Y-15678198D02*
X8866821Y-15978198D01*
X8866821Y-15678198D02*
X8566821Y-15978198D01*
X8716821Y-15678198D02*
X8716821Y-15978198D01*
X8566821Y-15828198D02*
X8866821Y-15828198D01*
X8836228Y-15049580D02*
X9136228Y-15349580D01*
X9136228Y-15049580D02*
X8836228Y-15349580D01*
X8986228Y-15049580D02*
X8986228Y-15349580D01*
X8836228Y-15199580D02*
X9136228Y-15199580D01*
X8926031Y-15318988D02*
X9226031Y-15618988D01*
X9226031Y-15318988D02*
X8926031Y-15618988D01*
X9076031Y-15318988D02*
X9076031Y-15618988D01*
X8926031Y-15468988D02*
X9226031Y-15468988D01*
X9871760Y-14243644D02*
X10171760Y-14543644D01*
X10171760Y-14243644D02*
X9871760Y-14543644D01*
X10021760Y-14243644D02*
X10021760Y-14543644D01*
X9871760Y-14393644D02*
X10171760Y-14393644D01*
X10108745Y-14400114D02*
X10408745Y-14700114D01*
X10408745Y-14400114D02*
X10108745Y-14700114D01*
X10258745Y-14400114D02*
X10258745Y-14700114D01*
X10108745Y-14550114D02*
X10408745Y-14550114D01*
X10531671Y-13862644D02*
X10831671Y-14162644D01*
X10831671Y-13862644D02*
X10531671Y-14162644D01*
X10681671Y-13862644D02*
X10681671Y-14162644D01*
X10531671Y-14012644D02*
X10831671Y-14012644D01*
X10548686Y-14146114D02*
X10848686Y-14446114D01*
X10848686Y-14146114D02*
X10548686Y-14446114D01*
X10698686Y-14146114D02*
X10698686Y-14446114D01*
X10548686Y-14296114D02*
X10848686Y-14296114D01*
X11575797Y-7264266D02*
X11875797Y-7564266D01*
X11875797Y-7264266D02*
X11575797Y-7564266D01*
X11725797Y-7264266D02*
X11725797Y-7564266D01*
X11575797Y-7414266D02*
X11875797Y-7414266D01*
X11575797Y-9171526D02*
X11875797Y-9471526D01*
X11875797Y-9171526D02*
X11575797Y-9471526D01*
X11725797Y-9171526D02*
X11725797Y-9471526D01*
X11575797Y-9321526D02*
X11875797Y-9321526D01*
X11575797Y-11078786D02*
X11875797Y-11378786D01*
X11875797Y-11078786D02*
X11575797Y-11378786D01*
X11725797Y-11078786D02*
X11725797Y-11378786D01*
X11575797Y-11228786D02*
X11875797Y-11228786D01*
X11702797Y-7518266D02*
X12002797Y-7818266D01*
X12002797Y-7518266D02*
X11702797Y-7818266D01*
X11852797Y-7518266D02*
X11852797Y-7818266D01*
X11702797Y-7668266D02*
X12002797Y-7668266D01*
X11702797Y-9425526D02*
X12002797Y-9725526D01*
X12002797Y-9425526D02*
X11702797Y-9725526D01*
X11852797Y-9425526D02*
X11852797Y-9725526D01*
X11702797Y-9575526D02*
X12002797Y-9575526D01*
X11702797Y-11332786D02*
X12002797Y-11632786D01*
X12002797Y-11332786D02*
X11702797Y-11632786D01*
X11852797Y-11332786D02*
X11852797Y-11632786D01*
X11702797Y-11482786D02*
X12002797Y-11482786D01*
X11737438Y-13351849D02*
X12037438Y-13651849D01*
X12037438Y-13351849D02*
X11737438Y-13651849D01*
X11887438Y-13351849D02*
X11887438Y-13651849D01*
X11737438Y-13501849D02*
X12037438Y-13501849D01*
X11925850Y-13564324D02*
X12225850Y-13864324D01*
X12225850Y-13564324D02*
X11925850Y-13864324D01*
X12075850Y-13564324D02*
X12075850Y-13864324D01*
X11925850Y-13714324D02*
X12225850Y-13714324D01*
X12210797Y-7518266D02*
X12510797Y-7818266D01*
X12510797Y-7518266D02*
X12210797Y-7818266D01*
X12360797Y-7518266D02*
X12360797Y-7818266D01*
X12210797Y-7668266D02*
X12510797Y-7668266D01*
X12210797Y-9425526D02*
X12510797Y-9725526D01*
X12510797Y-9425526D02*
X12210797Y-9725526D01*
X12360797Y-9425526D02*
X12360797Y-9725526D01*
X12210797Y-9575526D02*
X12510797Y-9575526D01*
X12210797Y-11332786D02*
X12510797Y-11632786D01*
X12510797Y-11332786D02*
X12210797Y-11632786D01*
X12360797Y-11332786D02*
X12360797Y-11632786D01*
X12210797Y-11482786D02*
X12510797Y-11482786D01*
X12337797Y-7264266D02*
X12637797Y-7564266D01*
X12637797Y-7264266D02*
X12337797Y-7564266D01*
X12487797Y-7264266D02*
X12487797Y-7564266D01*
X12337797Y-7414266D02*
X12637797Y-7414266D01*
X12337797Y-9171526D02*
X12637797Y-9471526D01*
X12637797Y-9171526D02*
X12337797Y-9471526D01*
X12487797Y-9171526D02*
X12487797Y-9471526D01*
X12337797Y-9321526D02*
X12637797Y-9321526D01*
X12337797Y-11078786D02*
X12637797Y-11378786D01*
X12637797Y-11078786D02*
X12337797Y-11378786D01*
X12487797Y-11078786D02*
X12487797Y-11378786D01*
X12337797Y-11228786D02*
X12637797Y-11228786D01*
X12416541Y-13432844D02*
X12716541Y-13732844D01*
X12716541Y-13432844D02*
X12416541Y-13732844D01*
X12566541Y-13432844D02*
X12566541Y-13732844D01*
X12416541Y-13582844D02*
X12716541Y-13582844D01*
X12473473Y-13154629D02*
X12773473Y-13454629D01*
X12773473Y-13154629D02*
X12473473Y-13454629D01*
X12623473Y-13154629D02*
X12623473Y-13454629D01*
X12473473Y-13304629D02*
X12773473Y-13304629D01*
X13475140Y-6964266D02*
X13775140Y-7264266D01*
X13775140Y-6964266D02*
X13475140Y-7264266D01*
X13625140Y-6964266D02*
X13625140Y-7264266D01*
X13475140Y-7114266D02*
X13775140Y-7114266D01*
X13475140Y-8871526D02*
X13775140Y-9171526D01*
X13775140Y-8871526D02*
X13475140Y-9171526D01*
X13625140Y-8871526D02*
X13625140Y-9171526D01*
X13475140Y-9021526D02*
X13775140Y-9021526D01*
X13475140Y-10778786D02*
X13775140Y-11078786D01*
X13775140Y-10778786D02*
X13475140Y-11078786D01*
X13625140Y-10778786D02*
X13625140Y-11078786D01*
X13475140Y-10928786D02*
X13775140Y-10928786D01*
X13602140Y-7218266D02*
X13902140Y-7518266D01*
X13902140Y-7218266D02*
X13602140Y-7518266D01*
X13752140Y-7218266D02*
X13752140Y-7518266D01*
X13602140Y-7368266D02*
X13902140Y-7368266D01*
X13602140Y-9125526D02*
X13902140Y-9425526D01*
X13902140Y-9125526D02*
X13602140Y-9425526D01*
X13752140Y-9125526D02*
X13752140Y-9425526D01*
X13602140Y-9275526D02*
X13902140Y-9275526D01*
X13602140Y-11032786D02*
X13902140Y-11332786D01*
X13902140Y-11032786D02*
X13602140Y-11332786D01*
X13752140Y-11032786D02*
X13752140Y-11332786D01*
X13602140Y-11182786D02*
X13902140Y-11182786D01*
X13770140Y-12973786D02*
X14070140Y-13273786D01*
X14070140Y-12973786D02*
X13770140Y-13273786D01*
X13920140Y-12973786D02*
X13920140Y-13273786D01*
X13770140Y-13123786D02*
X14070140Y-13123786D01*
X13897140Y-13227786D02*
X14197140Y-13527786D01*
X14197140Y-13227786D02*
X13897140Y-13527786D01*
X14047140Y-13227786D02*
X14047140Y-13527786D01*
X13897140Y-13377786D02*
X14197140Y-13377786D01*
X14110140Y-7218266D02*
X14410140Y-7518266D01*
X14410140Y-7218266D02*
X14110140Y-7518266D01*
X14260140Y-7218266D02*
X14260140Y-7518266D01*
X14110140Y-7368266D02*
X14410140Y-7368266D01*
X14110140Y-9125526D02*
X14410140Y-9425526D01*
X14410140Y-9125526D02*
X14110140Y-9425526D01*
X14260140Y-9125526D02*
X14260140Y-9425526D01*
X14110140Y-9275526D02*
X14410140Y-9275526D01*
X14110140Y-11032786D02*
X14410140Y-11332786D01*
X14410140Y-11032786D02*
X14110140Y-11332786D01*
X14260140Y-11032786D02*
X14260140Y-11332786D01*
X14110140Y-11182786D02*
X14410140Y-11182786D01*
X14237140Y-6964266D02*
X14537140Y-7264266D01*
X14537140Y-6964266D02*
X14237140Y-7264266D01*
X14387140Y-6964266D02*
X14387140Y-7264266D01*
X14237140Y-7114266D02*
X14537140Y-7114266D01*
X14237140Y-8871526D02*
X14537140Y-9171526D01*
X14537140Y-8871526D02*
X14237140Y-9171526D01*
X14387140Y-8871526D02*
X14387140Y-9171526D01*
X14237140Y-9021526D02*
X14537140Y-9021526D01*
X14237140Y-10778786D02*
X14537140Y-11078786D01*
X14537140Y-10778786D02*
X14237140Y-11078786D01*
X14387140Y-10778786D02*
X14387140Y-11078786D01*
X14237140Y-10928786D02*
X14537140Y-10928786D01*
X14405140Y-13227786D02*
X14705140Y-13527786D01*
X14705140Y-13227786D02*
X14405140Y-13527786D01*
X14555140Y-13227786D02*
X14555140Y-13527786D01*
X14405140Y-13377786D02*
X14705140Y-13377786D01*
X14532140Y-12973786D02*
X14832140Y-13273786D01*
X14832140Y-12973786D02*
X14532140Y-13273786D01*
X14682140Y-12973786D02*
X14682140Y-13273786D01*
X14532140Y-13123786D02*
X14832140Y-13123786D01*
X15380140Y-6064266D02*
X15680140Y-6364266D01*
X15680140Y-6064266D02*
X15380140Y-6364266D01*
X15530140Y-6064266D02*
X15530140Y-6364266D01*
X15380140Y-6214266D02*
X15680140Y-6214266D01*
X15380140Y-7971526D02*
X15680140Y-8271526D01*
X15680140Y-7971526D02*
X15380140Y-8271526D01*
X15530140Y-7971526D02*
X15530140Y-8271526D01*
X15380140Y-8121526D02*
X15680140Y-8121526D01*
X15380140Y-9878786D02*
X15680140Y-10178786D01*
X15680140Y-9878786D02*
X15380140Y-10178786D01*
X15530140Y-9878786D02*
X15530140Y-10178786D01*
X15380140Y-10028786D02*
X15680140Y-10028786D01*
X15507140Y-6318266D02*
X15807140Y-6618266D01*
X15807140Y-6318266D02*
X15507140Y-6618266D01*
X15657140Y-6318266D02*
X15657140Y-6618266D01*
X15507140Y-6468266D02*
X15807140Y-6468266D01*
X15507140Y-8225526D02*
X15807140Y-8525526D01*
X15807140Y-8225526D02*
X15507140Y-8525526D01*
X15657140Y-8225526D02*
X15657140Y-8525526D01*
X15507140Y-8375526D02*
X15807140Y-8375526D01*
X15507140Y-10132786D02*
X15807140Y-10432786D01*
X15807140Y-10132786D02*
X15507140Y-10432786D01*
X15657140Y-10132786D02*
X15657140Y-10432786D01*
X15507140Y-10282786D02*
X15807140Y-10282786D01*
X16015140Y-6318266D02*
X16315140Y-6618266D01*
X16315140Y-6318266D02*
X16015140Y-6618266D01*
X16165140Y-6318266D02*
X16165140Y-6618266D01*
X16015140Y-6468266D02*
X16315140Y-6468266D01*
X16015140Y-8225526D02*
X16315140Y-8525526D01*
X16315140Y-8225526D02*
X16015140Y-8525526D01*
X16165140Y-8225526D02*
X16165140Y-8525526D01*
X16015140Y-8375526D02*
X16315140Y-8375526D01*
X16015140Y-10132786D02*
X16315140Y-10432786D01*
X16315140Y-10132786D02*
X16015140Y-10432786D01*
X16165140Y-10132786D02*
X16165140Y-10432786D01*
X16015140Y-10282786D02*
X16315140Y-10282786D01*
X16142140Y-6064266D02*
X16442140Y-6364266D01*
X16442140Y-6064266D02*
X16142140Y-6364266D01*
X16292140Y-6064266D02*
X16292140Y-6364266D01*
X16142140Y-6214266D02*
X16442140Y-6214266D01*
X16142140Y-7971526D02*
X16442140Y-8271526D01*
X16442140Y-7971526D02*
X16142140Y-8271526D01*
X16292140Y-7971526D02*
X16292140Y-8271526D01*
X16142140Y-8121526D02*
X16442140Y-8121526D01*
X16142140Y-9878786D02*
X16442140Y-10178786D01*
X16442140Y-9878786D02*
X16142140Y-10178786D01*
X16292140Y-9878786D02*
X16292140Y-10178786D01*
X16142140Y-10028786D02*
X16442140Y-10028786D01*
X17274425Y-10884720D02*
X17574425Y-11184720D01*
X17574425Y-10884720D02*
X17274425Y-11184720D01*
X17424425Y-10884720D02*
X17424425Y-11184720D01*
X17274425Y-11034720D02*
X17574425Y-11034720D01*
X17383398Y-11146960D02*
X17683398Y-11446960D01*
X17683398Y-11146960D02*
X17383398Y-11446960D01*
X17533398Y-11146960D02*
X17533398Y-11446960D01*
X17383398Y-11296960D02*
X17683398Y-11296960D01*
X17407469Y-8982106D02*
X17707469Y-9282106D01*
X17707469Y-8982106D02*
X17407469Y-9282106D01*
X17557469Y-8982106D02*
X17557469Y-9282106D01*
X17407469Y-9132106D02*
X17707469Y-9132106D01*
X17516442Y-9244346D02*
X17816442Y-9544346D01*
X17816442Y-9244346D02*
X17516442Y-9544346D01*
X17666442Y-9244346D02*
X17666442Y-9544346D01*
X17516442Y-9394346D02*
X17816442Y-9394346D01*
X17540513Y-7079492D02*
X17840513Y-7379492D01*
X17840513Y-7079492D02*
X17540513Y-7379492D01*
X17690513Y-7079492D02*
X17690513Y-7379492D01*
X17540513Y-7229492D02*
X17840513Y-7229492D01*
X17649485Y-7341733D02*
X17949485Y-7641733D01*
X17949485Y-7341733D02*
X17649485Y-7641733D01*
X17799485Y-7341733D02*
X17799485Y-7641733D01*
X17649485Y-7491733D02*
X17949485Y-7491733D01*
X17890160Y-11182396D02*
X18190160Y-11482396D01*
X18190160Y-11182396D02*
X17890160Y-11482396D01*
X18040160Y-11182396D02*
X18040160Y-11482396D01*
X17890160Y-11332396D02*
X18190160Y-11332396D01*
X18023204Y-9279782D02*
X18323204Y-9579782D01*
X18323204Y-9279782D02*
X18023204Y-9579782D01*
X18173204Y-9279782D02*
X18173204Y-9579782D01*
X18023204Y-9429782D02*
X18323204Y-9429782D01*
X18034569Y-10937874D02*
X18334569Y-11237874D01*
X18334569Y-10937874D02*
X18034569Y-11237874D01*
X18184569Y-10937874D02*
X18184569Y-11237874D01*
X18034569Y-11087874D02*
X18334569Y-11087874D01*
X18156248Y-7377169D02*
X18456248Y-7677169D01*
X18456248Y-7377169D02*
X18156248Y-7677169D01*
X18306248Y-7377169D02*
X18306248Y-7677169D01*
X18156248Y-7527169D02*
X18456248Y-7527169D01*
X18167613Y-9035260D02*
X18467613Y-9335260D01*
X18467613Y-9035260D02*
X18167613Y-9335260D01*
X18317613Y-9035260D02*
X18317613Y-9335260D01*
X18167613Y-9185260D02*
X18467613Y-9185260D01*
X18300657Y-7132647D02*
X18600657Y-7432647D01*
X18600657Y-7132647D02*
X18300657Y-7432647D01*
X18450657Y-7132647D02*
X18450657Y-7432647D01*
X18300657Y-7282647D02*
X18600657Y-7282647D01*
X19038696Y-12243021D02*
X19338696Y-12543021D01*
X19338696Y-12243021D02*
X19038696Y-12543021D01*
X19188696Y-12243021D02*
X19188696Y-12543021D01*
X19038696Y-12393021D02*
X19338696Y-12393021D01*
X19119660Y-12515215D02*
X19419660Y-12815215D01*
X19419660Y-12515215D02*
X19119660Y-12815215D01*
X19269660Y-12515215D02*
X19269660Y-12815215D01*
X19119660Y-12665215D02*
X19419660Y-12665215D01*
X19369888Y-10364737D02*
X19669888Y-10664737D01*
X19669888Y-10364737D02*
X19369888Y-10664737D01*
X19519888Y-10364737D02*
X19519888Y-10664737D01*
X19369888Y-10514737D02*
X19669888Y-10514737D01*
X19450852Y-10636931D02*
X19750852Y-10936931D01*
X19750852Y-10636931D02*
X19450852Y-10936931D01*
X19600852Y-10636931D02*
X19600852Y-10936931D01*
X19450852Y-10786931D02*
X19750852Y-10786931D01*
X19619942Y-12603429D02*
X19919942Y-12903429D01*
X19919942Y-12603429D02*
X19619942Y-12903429D01*
X19769942Y-12603429D02*
X19769942Y-12903429D01*
X19619942Y-12753429D02*
X19919942Y-12753429D01*
X19701080Y-8486453D02*
X20001080Y-8786453D01*
X20001080Y-8486453D02*
X19701080Y-8786453D01*
X19851080Y-8486453D02*
X19851080Y-8786453D01*
X19701080Y-8636453D02*
X20001080Y-8636453D01*
X19782044Y-8758647D02*
X20082044Y-9058647D01*
X20082044Y-8758647D02*
X19782044Y-9058647D01*
X19932044Y-8758647D02*
X19932044Y-9058647D01*
X19782044Y-8908647D02*
X20082044Y-8908647D01*
X19789119Y-12375341D02*
X20089119Y-12675341D01*
X20089119Y-12375341D02*
X19789119Y-12675341D01*
X19939119Y-12375341D02*
X19939119Y-12675341D01*
X19789119Y-12525341D02*
X20089119Y-12525341D01*
X19951134Y-10725144D02*
X20251134Y-11025144D01*
X20251134Y-10725144D02*
X19951134Y-11025144D01*
X20101134Y-10725144D02*
X20101134Y-11025144D01*
X19951134Y-10875144D02*
X20251134Y-10875144D01*
X20120312Y-10497057D02*
X20420312Y-10797057D01*
X20420312Y-10497057D02*
X20120312Y-10797057D01*
X20270312Y-10497057D02*
X20270312Y-10797057D01*
X20120312Y-10647057D02*
X20420312Y-10647057D01*
X20282327Y-8846861D02*
X20582327Y-9146861D01*
X20582327Y-8846861D02*
X20282327Y-9146861D01*
X20432327Y-8846861D02*
X20432327Y-9146861D01*
X20282327Y-8996861D02*
X20582327Y-8996861D01*
X20451504Y-8618773D02*
X20751504Y-8918773D01*
X20751504Y-8618773D02*
X20451504Y-8918773D01*
X20601504Y-8618773D02*
X20601504Y-8918773D01*
X20451504Y-8768773D02*
X20751504Y-8768773D01*
X20998920Y-12080948D02*
X21298920Y-12380948D01*
X21298920Y-12080948D02*
X20998920Y-12380948D01*
X21148920Y-12080948D02*
X21148920Y-12380948D01*
X20998920Y-12230948D02*
X21298920Y-12230948D01*
X21079884Y-12353142D02*
X21379884Y-12653142D01*
X21379884Y-12353142D02*
X21079884Y-12653142D01*
X21229884Y-12353142D02*
X21229884Y-12653142D01*
X21079884Y-12503142D02*
X21379884Y-12503142D01*
X21330112Y-10202664D02*
X21630112Y-10502664D01*
X21630112Y-10202664D02*
X21330112Y-10502664D01*
X21480112Y-10202664D02*
X21480112Y-10502664D01*
X21330112Y-10352664D02*
X21630112Y-10352664D01*
X21411076Y-10474858D02*
X21711076Y-10774858D01*
X21711076Y-10474858D02*
X21411076Y-10774858D01*
X21561076Y-10474858D02*
X21561076Y-10774858D01*
X21411076Y-10624858D02*
X21711076Y-10624858D01*
X21580166Y-12441356D02*
X21880166Y-12741356D01*
X21880166Y-12441356D02*
X21580166Y-12741356D01*
X21730166Y-12441356D02*
X21730166Y-12741356D01*
X21580166Y-12591356D02*
X21880166Y-12591356D01*
X21749343Y-12213268D02*
X22049343Y-12513268D01*
X22049343Y-12213268D02*
X21749343Y-12513268D01*
X21899343Y-12213268D02*
X21899343Y-12513268D01*
X21749343Y-12363268D02*
X22049343Y-12363268D01*
X21911358Y-10563072D02*
X22211358Y-10863072D01*
X22211358Y-10563072D02*
X21911358Y-10863072D01*
X22061358Y-10563072D02*
X22061358Y-10863072D01*
X21911358Y-10713072D02*
X22211358Y-10713072D01*
X22080535Y-10334984D02*
X22380535Y-10634984D01*
X22380535Y-10334984D02*
X22080535Y-10634984D01*
X22230535Y-10334984D02*
X22230535Y-10634984D01*
X22080535Y-10484984D02*
X22380535Y-10484984D01*
D21*
X8172000Y-5412000D02*
X8492000Y-5732000D01*
X8492000Y-5412000D02*
X8172000Y-5732000D01*
X8445138Y-5685138D02*
X8445138Y-5458862D01*
X8218862Y-5458862D01*
X8218862Y-5685138D01*
X8445138Y-5685138D01*
X8172000Y-13355000D02*
X8492000Y-13675000D01*
X8492000Y-13355000D02*
X8172000Y-13675000D01*
X8445138Y-13628138D02*
X8445138Y-13401862D01*
X8218862Y-13401862D01*
X8218862Y-13628138D01*
X8445138Y-13628138D01*
X14380000Y-5412000D02*
X14700000Y-5732000D01*
X14700000Y-5412000D02*
X14380000Y-5732000D01*
X14653138Y-5685138D02*
X14653138Y-5458862D01*
X14426862Y-5458862D01*
X14426862Y-5685138D01*
X14653138Y-5685138D01*
X16570000Y-8645000D02*
X16890000Y-8965000D01*
X16890000Y-8645000D02*
X16570000Y-8965000D01*
X16843138Y-8918138D02*
X16843138Y-8691862D01*
X16616862Y-8691862D01*
X16616862Y-8918138D01*
X16843138Y-8918138D01*
X16835000Y-12011000D02*
X17155000Y-12331000D01*
X17155000Y-12011000D02*
X16835000Y-12331000D01*
X17108138Y-12284138D02*
X17108138Y-12057862D01*
X16881862Y-12057862D01*
X16881862Y-12284138D01*
X17108138Y-12284138D01*
X17255000Y-5412000D02*
X17575000Y-5732000D01*
X17575000Y-5412000D02*
X17255000Y-5732000D01*
X17528138Y-5685138D02*
X17528138Y-5458862D01*
X17301862Y-5458862D01*
X17301862Y-5685138D01*
X17528138Y-5685138D01*
X17996000Y-12087000D02*
X18316000Y-12407000D01*
X18316000Y-12087000D02*
X17996000Y-12407000D01*
X18269138Y-12360138D02*
X18269138Y-12133862D01*
X18042862Y-12133862D01*
X18042862Y-12360138D01*
X18269138Y-12360138D01*
X18739000Y-5513000D02*
X19059000Y-5833000D01*
X19059000Y-5513000D02*
X18739000Y-5833000D01*
X19012138Y-5786138D02*
X19012138Y-5559862D01*
X18785862Y-5559862D01*
X18785862Y-5786138D01*
X19012138Y-5786138D01*
D22*
X8332215Y-15084383D02*
X8742215Y-15494383D01*
X8742215Y-15084383D02*
X8332215Y-15494383D01*
X8537215Y-15494383D02*
X8742215Y-15289383D01*
X8537215Y-15084383D01*
X8332215Y-15289383D01*
X8537215Y-15494383D01*
X10019715Y-13778174D02*
X10429715Y-14188174D01*
X10429715Y-13778174D02*
X10019715Y-14188174D01*
X10224715Y-14188174D02*
X10429715Y-13983174D01*
X10224715Y-13778174D01*
X10019715Y-13983174D01*
X10224715Y-14188174D01*
X11901797Y-6955266D02*
X12311797Y-7365266D01*
X12311797Y-6955266D02*
X11901797Y-7365266D01*
X12106797Y-7365266D02*
X12311797Y-7160266D01*
X12106797Y-6955266D01*
X11901797Y-7160266D01*
X12106797Y-7365266D01*
X11901797Y-8862526D02*
X12311797Y-9272526D01*
X12311797Y-8862526D02*
X11901797Y-9272526D01*
X12106797Y-9272526D02*
X12311797Y-9067526D01*
X12106797Y-8862526D01*
X11901797Y-9067526D01*
X12106797Y-9272526D01*
X11901797Y-10769786D02*
X12311797Y-11179786D01*
X12311797Y-10769786D02*
X11901797Y-11179786D01*
X12106797Y-11179786D02*
X12311797Y-10974786D01*
X12106797Y-10769786D01*
X11901797Y-10974786D01*
X12106797Y-11179786D01*
X11984715Y-12952894D02*
X12394715Y-13362894D01*
X12394715Y-12952894D02*
X11984715Y-13362894D01*
X12189715Y-13362894D02*
X12394715Y-13157894D01*
X12189715Y-12952894D01*
X11984715Y-13157894D01*
X12189715Y-13362894D01*
X13801140Y-6655266D02*
X14211140Y-7065266D01*
X14211140Y-6655266D02*
X13801140Y-7065266D01*
X14006140Y-7065266D02*
X14211140Y-6860266D01*
X14006140Y-6655266D01*
X13801140Y-6860266D01*
X14006140Y-7065266D01*
X13801140Y-8562526D02*
X14211140Y-8972526D01*
X14211140Y-8562526D02*
X13801140Y-8972526D01*
X14006140Y-8972526D02*
X14211140Y-8767526D01*
X14006140Y-8562526D01*
X13801140Y-8767526D01*
X14006140Y-8972526D01*
X13801140Y-10469786D02*
X14211140Y-10879786D01*
X14211140Y-10469786D02*
X13801140Y-10879786D01*
X14006140Y-10879786D02*
X14211140Y-10674786D01*
X14006140Y-10469786D01*
X13801140Y-10674786D01*
X14006140Y-10879786D01*
X14096140Y-12664786D02*
X14506140Y-13074786D01*
X14506140Y-12664786D02*
X14096140Y-13074786D01*
X14301140Y-13074786D02*
X14506140Y-12869786D01*
X14301140Y-12664786D01*
X14096140Y-12869786D01*
X14301140Y-13074786D01*
X15706140Y-5755266D02*
X16116140Y-6165266D01*
X16116140Y-5755266D02*
X15706140Y-6165266D01*
X15911140Y-6165266D02*
X16116140Y-5960266D01*
X15911140Y-5755266D01*
X15706140Y-5960266D01*
X15911140Y-6165266D01*
X15706140Y-7662526D02*
X16116140Y-8072526D01*
X16116140Y-7662526D02*
X15706140Y-8072526D01*
X15911140Y-8072526D02*
X16116140Y-7867526D01*
X15911140Y-7662526D01*
X15706140Y-7867526D01*
X15911140Y-8072526D01*
X15706140Y-9569786D02*
X16116140Y-9979786D01*
X16116140Y-9569786D02*
X15706140Y-9979786D01*
X15911140Y-9979786D02*
X16116140Y-9774786D01*
X15911140Y-9569786D01*
X15706140Y-9774786D01*
X15911140Y-9979786D01*
X17617215Y-10602915D02*
X18027215Y-11012915D01*
X18027215Y-10602915D02*
X17617215Y-11012915D01*
X17822215Y-11012915D02*
X18027215Y-10807915D01*
X17822215Y-10602915D01*
X17617215Y-10807915D01*
X17822215Y-11012915D01*
X17750259Y-8700302D02*
X18160259Y-9110302D01*
X18160259Y-8700302D02*
X17750259Y-9110302D01*
X17955259Y-9110302D02*
X18160259Y-8905302D01*
X17955259Y-8700302D01*
X17750259Y-8905302D01*
X17955259Y-9110302D01*
X17883303Y-6797688D02*
X18293303Y-7207688D01*
X18293303Y-6797688D02*
X17883303Y-7207688D01*
X18088303Y-7207688D02*
X18293303Y-7002688D01*
X18088303Y-6797688D01*
X17883303Y-7002688D01*
X18088303Y-7207688D01*
X19403014Y-12004040D02*
X19813014Y-12414040D01*
X19813014Y-12004040D02*
X19403014Y-12414040D01*
X19608014Y-12414040D02*
X19813014Y-12209040D01*
X19608014Y-12004040D01*
X19403014Y-12209040D01*
X19608014Y-12414040D01*
X19734207Y-10125755D02*
X20144207Y-10535755D01*
X20144207Y-10125755D02*
X19734207Y-10535755D01*
X19939207Y-10535755D02*
X20144207Y-10330755D01*
X19939207Y-10125755D01*
X19734207Y-10330755D01*
X19939207Y-10535755D01*
X20065399Y-8247471D02*
X20475399Y-8657472D01*
X20475399Y-8247471D02*
X20065399Y-8657472D01*
X20270399Y-8657472D02*
X20475399Y-8452472D01*
X20270399Y-8247471D01*
X20065399Y-8452472D01*
X20270399Y-8657472D01*
X21363238Y-11841967D02*
X21773238Y-12251967D01*
X21773238Y-11841967D02*
X21363238Y-12251967D01*
X21568238Y-12251967D02*
X21773238Y-12046967D01*
X21568238Y-11841967D01*
X21363238Y-12046967D01*
X21568238Y-12251967D01*
X21694430Y-9963683D02*
X22104430Y-10373683D01*
X22104430Y-9963683D02*
X21694430Y-10373683D01*
X21899430Y-10373683D02*
X22104430Y-10168683D01*
X21899430Y-9963683D01*
X21694430Y-10168683D01*
X21899430Y-10373683D01*
D13*
X7339980Y-17056313D02*
X7339980Y-16856313D01*
X7387599Y-16856313D01*
X7416171Y-16865837D01*
X7435219Y-16884884D01*
X7444742Y-16903932D01*
X7454266Y-16942027D01*
X7454266Y-16970599D01*
X7444742Y-17008694D01*
X7435219Y-17027741D01*
X7416171Y-17046789D01*
X7387599Y-17056313D01*
X7339980Y-17056313D01*
X7539980Y-17056313D02*
X7539980Y-16922980D01*
X7539980Y-16961075D02*
X7549504Y-16942027D01*
X7559028Y-16932503D01*
X7578076Y-16922980D01*
X7597123Y-16922980D01*
X7663790Y-17056313D02*
X7663790Y-16922980D01*
X7663790Y-16856313D02*
X7654266Y-16865837D01*
X7663790Y-16875361D01*
X7673314Y-16865837D01*
X7663790Y-16856313D01*
X7663790Y-16875361D01*
X7787599Y-17056313D02*
X7768552Y-17046789D01*
X7759028Y-17027741D01*
X7759028Y-16856313D01*
X7892361Y-17056313D02*
X7873314Y-17046789D01*
X7863790Y-17027741D01*
X7863790Y-16856313D01*
X8120933Y-17056313D02*
X8120933Y-16856313D01*
X8187599Y-16999170D01*
X8254266Y-16856313D01*
X8254266Y-17056313D01*
X8435219Y-17056313D02*
X8435219Y-16951551D01*
X8425695Y-16932503D01*
X8406647Y-16922980D01*
X8368552Y-16922980D01*
X8349504Y-16932503D01*
X8435219Y-17046789D02*
X8416171Y-17056313D01*
X8368552Y-17056313D01*
X8349504Y-17046789D01*
X8339980Y-17027741D01*
X8339980Y-17008694D01*
X8349504Y-16989646D01*
X8368552Y-16980122D01*
X8416171Y-16980122D01*
X8435219Y-16970599D01*
X8530457Y-16922980D02*
X8530457Y-17122980D01*
X8530457Y-16932503D02*
X8549504Y-16922980D01*
X8587600Y-16922980D01*
X8606647Y-16932503D01*
X8616171Y-16942027D01*
X8625695Y-16961075D01*
X8625695Y-17018218D01*
X8616171Y-17037265D01*
X8606647Y-17046789D01*
X8587600Y-17056313D01*
X8549504Y-17056313D01*
X8530457Y-17046789D01*
X8711409Y-17037265D02*
X8720933Y-17046789D01*
X8711409Y-17056313D01*
X8701885Y-17046789D01*
X8711409Y-17037265D01*
X8711409Y-17056313D01*
X8711409Y-16932503D02*
X8720933Y-16942027D01*
X8711409Y-16951551D01*
X8701885Y-16942027D01*
X8711409Y-16932503D01*
X8711409Y-16951551D01*
D14*
X7012361Y-17350837D02*
X7082361Y-17420837D01*
X7082361Y-17350837D02*
X7012361Y-17420837D01*
D13*
X7378076Y-17276313D02*
X7397123Y-17276313D01*
X7416171Y-17285837D01*
X7425695Y-17295361D01*
X7435219Y-17314408D01*
X7444742Y-17352503D01*
X7444742Y-17400122D01*
X7435219Y-17438218D01*
X7425695Y-17457265D01*
X7416171Y-17466789D01*
X7397123Y-17476313D01*
X7378076Y-17476313D01*
X7359028Y-17466789D01*
X7349504Y-17457265D01*
X7339980Y-17438218D01*
X7330457Y-17400122D01*
X7330457Y-17352503D01*
X7339980Y-17314408D01*
X7349504Y-17295361D01*
X7359028Y-17285837D01*
X7378076Y-17276313D01*
X7530457Y-17457265D02*
X7539980Y-17466789D01*
X7530457Y-17476313D01*
X7520933Y-17466789D01*
X7530457Y-17457265D01*
X7530457Y-17476313D01*
X7606647Y-17276313D02*
X7739980Y-17276313D01*
X7654266Y-17476313D01*
X7854266Y-17276313D02*
X7873314Y-17276313D01*
X7892361Y-17285837D01*
X7901885Y-17295361D01*
X7911409Y-17314408D01*
X7920933Y-17352503D01*
X7920933Y-17400122D01*
X7911409Y-17438218D01*
X7901885Y-17457265D01*
X7892361Y-17466789D01*
X7873314Y-17476313D01*
X7854266Y-17476313D01*
X7835219Y-17466789D01*
X7825695Y-17457265D01*
X7816171Y-17438218D01*
X7806647Y-17400122D01*
X7806647Y-17352503D01*
X7816171Y-17314408D01*
X7825695Y-17295361D01*
X7835219Y-17285837D01*
X7854266Y-17276313D01*
X8044742Y-17276313D02*
X8063790Y-17276313D01*
X8082838Y-17285837D01*
X8092361Y-17295361D01*
X8101885Y-17314408D01*
X8111409Y-17352503D01*
X8111409Y-17400122D01*
X8101885Y-17438218D01*
X8092361Y-17457265D01*
X8082838Y-17466789D01*
X8063790Y-17476313D01*
X8044742Y-17476313D01*
X8025695Y-17466789D01*
X8016171Y-17457265D01*
X8006647Y-17438218D01*
X7997123Y-17400122D01*
X7997123Y-17352503D01*
X8006647Y-17314408D01*
X8016171Y-17295361D01*
X8025695Y-17285837D01*
X8044742Y-17276313D01*
X8197123Y-17476313D02*
X8197123Y-17342980D01*
X8197123Y-17362027D02*
X8206647Y-17352503D01*
X8225695Y-17342980D01*
X8254266Y-17342980D01*
X8273314Y-17352503D01*
X8282838Y-17371551D01*
X8282838Y-17476313D01*
X8282838Y-17371551D02*
X8292361Y-17352503D01*
X8311409Y-17342980D01*
X8339980Y-17342980D01*
X8359028Y-17352503D01*
X8368552Y-17371551D01*
X8368552Y-17476313D01*
X8463790Y-17476313D02*
X8463790Y-17342980D01*
X8463790Y-17362027D02*
X8473314Y-17352503D01*
X8492362Y-17342980D01*
X8520933Y-17342980D01*
X8539981Y-17352503D01*
X8549504Y-17371551D01*
X8549504Y-17476313D01*
X8549504Y-17371551D02*
X8559028Y-17352503D01*
X8578076Y-17342980D01*
X8606647Y-17342980D01*
X8625695Y-17352503D01*
X8635219Y-17371551D01*
X8635219Y-17476313D01*
X9025695Y-17266789D02*
X8854266Y-17523932D01*
X9282838Y-17276313D02*
X9301885Y-17276313D01*
X9320933Y-17285837D01*
X9330457Y-17295361D01*
X9339981Y-17314408D01*
X9349504Y-17352503D01*
X9349504Y-17400122D01*
X9339981Y-17438218D01*
X9330457Y-17457265D01*
X9320933Y-17466789D01*
X9301885Y-17476313D01*
X9282838Y-17476313D01*
X9263790Y-17466789D01*
X9254266Y-17457265D01*
X9244742Y-17438218D01*
X9235219Y-17400122D01*
X9235219Y-17352503D01*
X9244742Y-17314408D01*
X9254266Y-17295361D01*
X9263790Y-17285837D01*
X9282838Y-17276313D01*
X9435219Y-17457265D02*
X9444742Y-17466789D01*
X9435219Y-17476313D01*
X9425695Y-17466789D01*
X9435219Y-17457265D01*
X9435219Y-17476313D01*
X9568552Y-17276313D02*
X9587600Y-17276313D01*
X9606647Y-17285837D01*
X9616171Y-17295361D01*
X9625695Y-17314408D01*
X9635219Y-17352503D01*
X9635219Y-17400122D01*
X9625695Y-17438218D01*
X9616171Y-17457265D01*
X9606647Y-17466789D01*
X9587600Y-17476313D01*
X9568552Y-17476313D01*
X9549504Y-17466789D01*
X9539981Y-17457265D01*
X9530457Y-17438218D01*
X9520933Y-17400122D01*
X9520933Y-17352503D01*
X9530457Y-17314408D01*
X9539981Y-17295361D01*
X9549504Y-17285837D01*
X9568552Y-17276313D01*
X9711409Y-17295361D02*
X9720933Y-17285837D01*
X9739981Y-17276313D01*
X9787600Y-17276313D01*
X9806647Y-17285837D01*
X9816171Y-17295361D01*
X9825695Y-17314408D01*
X9825695Y-17333456D01*
X9816171Y-17362027D01*
X9701885Y-17476313D01*
X9825695Y-17476313D01*
X9892362Y-17276313D02*
X10025695Y-17276313D01*
X9939981Y-17476313D01*
X10187600Y-17276313D02*
X10149504Y-17276313D01*
X10130457Y-17285837D01*
X10120933Y-17295361D01*
X10101885Y-17323932D01*
X10092361Y-17362027D01*
X10092361Y-17438218D01*
X10101885Y-17457265D01*
X10111409Y-17466789D01*
X10130457Y-17476313D01*
X10168552Y-17476313D01*
X10187600Y-17466789D01*
X10197123Y-17457265D01*
X10206647Y-17438218D01*
X10206647Y-17390599D01*
X10197123Y-17371551D01*
X10187600Y-17362027D01*
X10168552Y-17352503D01*
X10130457Y-17352503D01*
X10111409Y-17362027D01*
X10101885Y-17371551D01*
X10092361Y-17390599D01*
X10282838Y-17276313D02*
X10282838Y-17314408D01*
X10359028Y-17276313D02*
X10359028Y-17314408D01*
X10654266Y-17552503D02*
X10644742Y-17542980D01*
X10625695Y-17514408D01*
X10616171Y-17495361D01*
X10606647Y-17466789D01*
X10597123Y-17419170D01*
X10597123Y-17381075D01*
X10606647Y-17333456D01*
X10616171Y-17304884D01*
X10625695Y-17285837D01*
X10644742Y-17257265D01*
X10654266Y-17247741D01*
X10720933Y-17295361D02*
X10730457Y-17285837D01*
X10749504Y-17276313D01*
X10797123Y-17276313D01*
X10816171Y-17285837D01*
X10825695Y-17295361D01*
X10835219Y-17314408D01*
X10835219Y-17333456D01*
X10825695Y-17362027D01*
X10711409Y-17476313D01*
X10835219Y-17476313D01*
X11073314Y-17476313D02*
X11073314Y-17276313D01*
X11159028Y-17476313D02*
X11159028Y-17371551D01*
X11149504Y-17352503D01*
X11130457Y-17342980D01*
X11101885Y-17342980D01*
X11082838Y-17352503D01*
X11073314Y-17362027D01*
X11282838Y-17476313D02*
X11263790Y-17466789D01*
X11254266Y-17457265D01*
X11244742Y-17438218D01*
X11244742Y-17381075D01*
X11254266Y-17362027D01*
X11263790Y-17352503D01*
X11282838Y-17342980D01*
X11311409Y-17342980D01*
X11330457Y-17352503D01*
X11339980Y-17362027D01*
X11349504Y-17381075D01*
X11349504Y-17438218D01*
X11339980Y-17457265D01*
X11330457Y-17466789D01*
X11311409Y-17476313D01*
X11282838Y-17476313D01*
X11463790Y-17476313D02*
X11444742Y-17466789D01*
X11435219Y-17447741D01*
X11435219Y-17276313D01*
X11616171Y-17466789D02*
X11597123Y-17476313D01*
X11559028Y-17476313D01*
X11539980Y-17466789D01*
X11530457Y-17447741D01*
X11530457Y-17371551D01*
X11539980Y-17352503D01*
X11559028Y-17342980D01*
X11597123Y-17342980D01*
X11616171Y-17352503D01*
X11625695Y-17371551D01*
X11625695Y-17390599D01*
X11530457Y-17409646D01*
X11701885Y-17466789D02*
X11720933Y-17476313D01*
X11759028Y-17476313D01*
X11778076Y-17466789D01*
X11787599Y-17447741D01*
X11787599Y-17438218D01*
X11778076Y-17419170D01*
X11759028Y-17409646D01*
X11730457Y-17409646D01*
X11711409Y-17400122D01*
X11701885Y-17381075D01*
X11701885Y-17371551D01*
X11711409Y-17352503D01*
X11730457Y-17342980D01*
X11759028Y-17342980D01*
X11778076Y-17352503D01*
X11854266Y-17552503D02*
X11863790Y-17542980D01*
X11882838Y-17514408D01*
X11892361Y-17495361D01*
X11901885Y-17466789D01*
X11911409Y-17419170D01*
X11911409Y-17381075D01*
X11901885Y-17333456D01*
X11892361Y-17304884D01*
X11882838Y-17285837D01*
X11863790Y-17257265D01*
X11854266Y-17247741D01*
X12216171Y-17552503D02*
X12206647Y-17542980D01*
X12187599Y-17514408D01*
X12178076Y-17495361D01*
X12168552Y-17466789D01*
X12159028Y-17419170D01*
X12159028Y-17381075D01*
X12168552Y-17333456D01*
X12178076Y-17304884D01*
X12187599Y-17285837D01*
X12206647Y-17257265D01*
X12216171Y-17247741D01*
X12292361Y-17342980D02*
X12292361Y-17476313D01*
X12292361Y-17362027D02*
X12301885Y-17352503D01*
X12320933Y-17342980D01*
X12349504Y-17342980D01*
X12368552Y-17352503D01*
X12378076Y-17371551D01*
X12378076Y-17476313D01*
X12501885Y-17476313D02*
X12482838Y-17466789D01*
X12473314Y-17457265D01*
X12463790Y-17438218D01*
X12463790Y-17381075D01*
X12473314Y-17362027D01*
X12482838Y-17352503D01*
X12501885Y-17342980D01*
X12530457Y-17342980D01*
X12549504Y-17352503D01*
X12559028Y-17362027D01*
X12568552Y-17381075D01*
X12568552Y-17438218D01*
X12559028Y-17457265D01*
X12549504Y-17466789D01*
X12530457Y-17476313D01*
X12501885Y-17476313D01*
X12625695Y-17342980D02*
X12701885Y-17342980D01*
X12654266Y-17276313D02*
X12654266Y-17447741D01*
X12663790Y-17466789D01*
X12682838Y-17476313D01*
X12701885Y-17476313D01*
X12920933Y-17342980D02*
X12920933Y-17542980D01*
X12920933Y-17352503D02*
X12939980Y-17342980D01*
X12978076Y-17342980D01*
X12997123Y-17352503D01*
X13006647Y-17362027D01*
X13016171Y-17381075D01*
X13016171Y-17438218D01*
X13006647Y-17457265D01*
X12997123Y-17466789D01*
X12978076Y-17476313D01*
X12939980Y-17476313D01*
X12920933Y-17466789D01*
X13130457Y-17476313D02*
X13111409Y-17466789D01*
X13101885Y-17447741D01*
X13101885Y-17276313D01*
X13292361Y-17476313D02*
X13292361Y-17371551D01*
X13282838Y-17352503D01*
X13263790Y-17342980D01*
X13225695Y-17342980D01*
X13206647Y-17352503D01*
X13292361Y-17466789D02*
X13273314Y-17476313D01*
X13225695Y-17476313D01*
X13206647Y-17466789D01*
X13197123Y-17447741D01*
X13197123Y-17428694D01*
X13206647Y-17409646D01*
X13225695Y-17400122D01*
X13273314Y-17400122D01*
X13292361Y-17390599D01*
X13359028Y-17342980D02*
X13435219Y-17342980D01*
X13387599Y-17276313D02*
X13387599Y-17447741D01*
X13397123Y-17466789D01*
X13416171Y-17476313D01*
X13435219Y-17476313D01*
X13578076Y-17466789D02*
X13559028Y-17476313D01*
X13520933Y-17476313D01*
X13501885Y-17466789D01*
X13492361Y-17447741D01*
X13492361Y-17371551D01*
X13501885Y-17352503D01*
X13520933Y-17342980D01*
X13559028Y-17342980D01*
X13578076Y-17352503D01*
X13587599Y-17371551D01*
X13587599Y-17390599D01*
X13492361Y-17409646D01*
X13759028Y-17476313D02*
X13759028Y-17276313D01*
X13759028Y-17466789D02*
X13739980Y-17476313D01*
X13701885Y-17476313D01*
X13682838Y-17466789D01*
X13673314Y-17457265D01*
X13663790Y-17438218D01*
X13663790Y-17381075D01*
X13673314Y-17362027D01*
X13682838Y-17352503D01*
X13701885Y-17342980D01*
X13739980Y-17342980D01*
X13759028Y-17352503D01*
X13835219Y-17552503D02*
X13844742Y-17542980D01*
X13863790Y-17514408D01*
X13873314Y-17495361D01*
X13882838Y-17466789D01*
X13892361Y-17419170D01*
X13892361Y-17381075D01*
X13882838Y-17333456D01*
X13873314Y-17304884D01*
X13863790Y-17285837D01*
X13844742Y-17257265D01*
X13835219Y-17247741D01*
D15*
X7082361Y-17649837D02*
G75*
G03*
X7082361Y-17649837I-45000J0D01*
G01*
D13*
X7378076Y-17540313D02*
X7397123Y-17540313D01*
X7416171Y-17549837D01*
X7425695Y-17559361D01*
X7435219Y-17578408D01*
X7444742Y-17616503D01*
X7444742Y-17664122D01*
X7435219Y-17702218D01*
X7425695Y-17721265D01*
X7416171Y-17730789D01*
X7397123Y-17740313D01*
X7378076Y-17740313D01*
X7359028Y-17730789D01*
X7349504Y-17721265D01*
X7339980Y-17702218D01*
X7330457Y-17664122D01*
X7330457Y-17616503D01*
X7339980Y-17578408D01*
X7349504Y-17559361D01*
X7359028Y-17549837D01*
X7378076Y-17540313D01*
X7530457Y-17721265D02*
X7539980Y-17730789D01*
X7530457Y-17740313D01*
X7520933Y-17730789D01*
X7530457Y-17721265D01*
X7530457Y-17740313D01*
X7635219Y-17740313D02*
X7673314Y-17740313D01*
X7692361Y-17730789D01*
X7701885Y-17721265D01*
X7720933Y-17692694D01*
X7730457Y-17654599D01*
X7730457Y-17578408D01*
X7720933Y-17559361D01*
X7711409Y-17549837D01*
X7692361Y-17540313D01*
X7654266Y-17540313D01*
X7635219Y-17549837D01*
X7625695Y-17559361D01*
X7616171Y-17578408D01*
X7616171Y-17626027D01*
X7625695Y-17645075D01*
X7635219Y-17654599D01*
X7654266Y-17664122D01*
X7692361Y-17664122D01*
X7711409Y-17654599D01*
X7720933Y-17645075D01*
X7730457Y-17626027D01*
X7854266Y-17540313D02*
X7873314Y-17540313D01*
X7892361Y-17549837D01*
X7901885Y-17559361D01*
X7911409Y-17578408D01*
X7920933Y-17616503D01*
X7920933Y-17664122D01*
X7911409Y-17702218D01*
X7901885Y-17721265D01*
X7892361Y-17730789D01*
X7873314Y-17740313D01*
X7854266Y-17740313D01*
X7835219Y-17730789D01*
X7825695Y-17721265D01*
X7816171Y-17702218D01*
X7806647Y-17664122D01*
X7806647Y-17616503D01*
X7816171Y-17578408D01*
X7825695Y-17559361D01*
X7835219Y-17549837D01*
X7854266Y-17540313D01*
X8044742Y-17540313D02*
X8063790Y-17540313D01*
X8082838Y-17549837D01*
X8092361Y-17559361D01*
X8101885Y-17578408D01*
X8111409Y-17616503D01*
X8111409Y-17664122D01*
X8101885Y-17702218D01*
X8092361Y-17721265D01*
X8082838Y-17730789D01*
X8063790Y-17740313D01*
X8044742Y-17740313D01*
X8025695Y-17730789D01*
X8016171Y-17721265D01*
X8006647Y-17702218D01*
X7997123Y-17664122D01*
X7997123Y-17616503D01*
X8006647Y-17578408D01*
X8016171Y-17559361D01*
X8025695Y-17549837D01*
X8044742Y-17540313D01*
X8197123Y-17740313D02*
X8197123Y-17606980D01*
X8197123Y-17626027D02*
X8206647Y-17616503D01*
X8225695Y-17606980D01*
X8254266Y-17606980D01*
X8273314Y-17616503D01*
X8282838Y-17635551D01*
X8282838Y-17740313D01*
X8282838Y-17635551D02*
X8292361Y-17616503D01*
X8311409Y-17606980D01*
X8339980Y-17606980D01*
X8359028Y-17616503D01*
X8368552Y-17635551D01*
X8368552Y-17740313D01*
X8463790Y-17740313D02*
X8463790Y-17606980D01*
X8463790Y-17626027D02*
X8473314Y-17616503D01*
X8492362Y-17606980D01*
X8520933Y-17606980D01*
X8539981Y-17616503D01*
X8549504Y-17635551D01*
X8549504Y-17740313D01*
X8549504Y-17635551D02*
X8559028Y-17616503D01*
X8578076Y-17606980D01*
X8606647Y-17606980D01*
X8625695Y-17616503D01*
X8635219Y-17635551D01*
X8635219Y-17740313D01*
X9025695Y-17530789D02*
X8854266Y-17787932D01*
X9282838Y-17540313D02*
X9301885Y-17540313D01*
X9320933Y-17549837D01*
X9330457Y-17559361D01*
X9339981Y-17578408D01*
X9349504Y-17616503D01*
X9349504Y-17664122D01*
X9339981Y-17702218D01*
X9330457Y-17721265D01*
X9320933Y-17730789D01*
X9301885Y-17740313D01*
X9282838Y-17740313D01*
X9263790Y-17730789D01*
X9254266Y-17721265D01*
X9244742Y-17702218D01*
X9235219Y-17664122D01*
X9235219Y-17616503D01*
X9244742Y-17578408D01*
X9254266Y-17559361D01*
X9263790Y-17549837D01*
X9282838Y-17540313D01*
X9435219Y-17721265D02*
X9444742Y-17730789D01*
X9435219Y-17740313D01*
X9425695Y-17730789D01*
X9435219Y-17721265D01*
X9435219Y-17740313D01*
X9568552Y-17540313D02*
X9587600Y-17540313D01*
X9606647Y-17549837D01*
X9616171Y-17559361D01*
X9625695Y-17578408D01*
X9635219Y-17616503D01*
X9635219Y-17664122D01*
X9625695Y-17702218D01*
X9616171Y-17721265D01*
X9606647Y-17730789D01*
X9587600Y-17740313D01*
X9568552Y-17740313D01*
X9549504Y-17730789D01*
X9539981Y-17721265D01*
X9530457Y-17702218D01*
X9520933Y-17664122D01*
X9520933Y-17616503D01*
X9530457Y-17578408D01*
X9539981Y-17559361D01*
X9549504Y-17549837D01*
X9568552Y-17540313D01*
X9701885Y-17540313D02*
X9825695Y-17540313D01*
X9759028Y-17616503D01*
X9787600Y-17616503D01*
X9806647Y-17626027D01*
X9816171Y-17635551D01*
X9825695Y-17654599D01*
X9825695Y-17702218D01*
X9816171Y-17721265D01*
X9806647Y-17730789D01*
X9787600Y-17740313D01*
X9730457Y-17740313D01*
X9711409Y-17730789D01*
X9701885Y-17721265D01*
X10006647Y-17540313D02*
X9911409Y-17540313D01*
X9901885Y-17635551D01*
X9911409Y-17626027D01*
X9930457Y-17616503D01*
X9978076Y-17616503D01*
X9997123Y-17626027D01*
X10006647Y-17635551D01*
X10016171Y-17654599D01*
X10016171Y-17702218D01*
X10006647Y-17721265D01*
X9997123Y-17730789D01*
X9978076Y-17740313D01*
X9930457Y-17740313D01*
X9911409Y-17730789D01*
X9901885Y-17721265D01*
X10187600Y-17606980D02*
X10187600Y-17740313D01*
X10139981Y-17530789D02*
X10092361Y-17673646D01*
X10216171Y-17673646D01*
X10282838Y-17540313D02*
X10282838Y-17578408D01*
X10359028Y-17540313D02*
X10359028Y-17578408D01*
X10654266Y-17816503D02*
X10644742Y-17806980D01*
X10625695Y-17778408D01*
X10616171Y-17759361D01*
X10606647Y-17730789D01*
X10597123Y-17683170D01*
X10597123Y-17645075D01*
X10606647Y-17597456D01*
X10616171Y-17568884D01*
X10625695Y-17549837D01*
X10644742Y-17521265D01*
X10654266Y-17511741D01*
X10720933Y-17559361D02*
X10730457Y-17549837D01*
X10749504Y-17540313D01*
X10797123Y-17540313D01*
X10816171Y-17549837D01*
X10825695Y-17559361D01*
X10835219Y-17578408D01*
X10835219Y-17597456D01*
X10825695Y-17626027D01*
X10711409Y-17740313D01*
X10835219Y-17740313D01*
X11073314Y-17740313D02*
X11073314Y-17540313D01*
X11159028Y-17740313D02*
X11159028Y-17635551D01*
X11149504Y-17616503D01*
X11130457Y-17606980D01*
X11101885Y-17606980D01*
X11082838Y-17616503D01*
X11073314Y-17626027D01*
X11282838Y-17740313D02*
X11263790Y-17730789D01*
X11254266Y-17721265D01*
X11244742Y-17702218D01*
X11244742Y-17645075D01*
X11254266Y-17626027D01*
X11263790Y-17616503D01*
X11282838Y-17606980D01*
X11311409Y-17606980D01*
X11330457Y-17616503D01*
X11339980Y-17626027D01*
X11349504Y-17645075D01*
X11349504Y-17702218D01*
X11339980Y-17721265D01*
X11330457Y-17730789D01*
X11311409Y-17740313D01*
X11282838Y-17740313D01*
X11463790Y-17740313D02*
X11444742Y-17730789D01*
X11435219Y-17711741D01*
X11435219Y-17540313D01*
X11616171Y-17730789D02*
X11597123Y-17740313D01*
X11559028Y-17740313D01*
X11539980Y-17730789D01*
X11530457Y-17711741D01*
X11530457Y-17635551D01*
X11539980Y-17616503D01*
X11559028Y-17606980D01*
X11597123Y-17606980D01*
X11616171Y-17616503D01*
X11625695Y-17635551D01*
X11625695Y-17654599D01*
X11530457Y-17673646D01*
X11701885Y-17730789D02*
X11720933Y-17740313D01*
X11759028Y-17740313D01*
X11778076Y-17730789D01*
X11787599Y-17711741D01*
X11787599Y-17702218D01*
X11778076Y-17683170D01*
X11759028Y-17673646D01*
X11730457Y-17673646D01*
X11711409Y-17664122D01*
X11701885Y-17645075D01*
X11701885Y-17635551D01*
X11711409Y-17616503D01*
X11730457Y-17606980D01*
X11759028Y-17606980D01*
X11778076Y-17616503D01*
X11854266Y-17816503D02*
X11863790Y-17806980D01*
X11882838Y-17778408D01*
X11892361Y-17759361D01*
X11901885Y-17730789D01*
X11911409Y-17683170D01*
X11911409Y-17645075D01*
X11901885Y-17597456D01*
X11892361Y-17568884D01*
X11882838Y-17549837D01*
X11863790Y-17521265D01*
X11854266Y-17511741D01*
X12216171Y-17816503D02*
X12206647Y-17806980D01*
X12187599Y-17778408D01*
X12178076Y-17759361D01*
X12168552Y-17730789D01*
X12159028Y-17683170D01*
X12159028Y-17645075D01*
X12168552Y-17597456D01*
X12178076Y-17568884D01*
X12187599Y-17549837D01*
X12206647Y-17521265D01*
X12216171Y-17511741D01*
X12292361Y-17606980D02*
X12292361Y-17740313D01*
X12292361Y-17626027D02*
X12301885Y-17616503D01*
X12320933Y-17606980D01*
X12349504Y-17606980D01*
X12368552Y-17616503D01*
X12378076Y-17635551D01*
X12378076Y-17740313D01*
X12501885Y-17740313D02*
X12482838Y-17730789D01*
X12473314Y-17721265D01*
X12463790Y-17702218D01*
X12463790Y-17645075D01*
X12473314Y-17626027D01*
X12482838Y-17616503D01*
X12501885Y-17606980D01*
X12530457Y-17606980D01*
X12549504Y-17616503D01*
X12559028Y-17626027D01*
X12568552Y-17645075D01*
X12568552Y-17702218D01*
X12559028Y-17721265D01*
X12549504Y-17730789D01*
X12530457Y-17740313D01*
X12501885Y-17740313D01*
X12625695Y-17606980D02*
X12701885Y-17606980D01*
X12654266Y-17540313D02*
X12654266Y-17711741D01*
X12663790Y-17730789D01*
X12682838Y-17740313D01*
X12701885Y-17740313D01*
X12920933Y-17606980D02*
X12920933Y-17806980D01*
X12920933Y-17616503D02*
X12939980Y-17606980D01*
X12978076Y-17606980D01*
X12997123Y-17616503D01*
X13006647Y-17626027D01*
X13016171Y-17645075D01*
X13016171Y-17702218D01*
X13006647Y-17721265D01*
X12997123Y-17730789D01*
X12978076Y-17740313D01*
X12939980Y-17740313D01*
X12920933Y-17730789D01*
X13130457Y-17740313D02*
X13111409Y-17730789D01*
X13101885Y-17711741D01*
X13101885Y-17540313D01*
X13292361Y-17740313D02*
X13292361Y-17635551D01*
X13282838Y-17616503D01*
X13263790Y-17606980D01*
X13225695Y-17606980D01*
X13206647Y-17616503D01*
X13292361Y-17730789D02*
X13273314Y-17740313D01*
X13225695Y-17740313D01*
X13206647Y-17730789D01*
X13197123Y-17711741D01*
X13197123Y-17692694D01*
X13206647Y-17673646D01*
X13225695Y-17664122D01*
X13273314Y-17664122D01*
X13292361Y-17654599D01*
X13359028Y-17606980D02*
X13435219Y-17606980D01*
X13387599Y-17540313D02*
X13387599Y-17711741D01*
X13397123Y-17730789D01*
X13416171Y-17740313D01*
X13435219Y-17740313D01*
X13578076Y-17730789D02*
X13559028Y-17740313D01*
X13520933Y-17740313D01*
X13501885Y-17730789D01*
X13492361Y-17711741D01*
X13492361Y-17635551D01*
X13501885Y-17616503D01*
X13520933Y-17606980D01*
X13559028Y-17606980D01*
X13578076Y-17616503D01*
X13587599Y-17635551D01*
X13587599Y-17654599D01*
X13492361Y-17673646D01*
X13759028Y-17740313D02*
X13759028Y-17540313D01*
X13759028Y-17730789D02*
X13739980Y-17740313D01*
X13701885Y-17740313D01*
X13682838Y-17730789D01*
X13673314Y-17721265D01*
X13663790Y-17702218D01*
X13663790Y-17645075D01*
X13673314Y-17626027D01*
X13682838Y-17616503D01*
X13701885Y-17606980D01*
X13739980Y-17606980D01*
X13759028Y-17616503D01*
X13835219Y-17816503D02*
X13844742Y-17806980D01*
X13863790Y-17778408D01*
X13873314Y-17759361D01*
X13882838Y-17730789D01*
X13892361Y-17683170D01*
X13892361Y-17645075D01*
X13882838Y-17597456D01*
X13873314Y-17568884D01*
X13863790Y-17549837D01*
X13844742Y-17521265D01*
X13835219Y-17511741D01*
D16*
X7022361Y-17853837D02*
X7022361Y-17973837D01*
X6962361Y-17913837D02*
X7082361Y-17913837D01*
D13*
X7444742Y-18004313D02*
X7330457Y-18004313D01*
X7387599Y-18004313D02*
X7387599Y-17804313D01*
X7368552Y-17832884D01*
X7349504Y-17851932D01*
X7330457Y-17861456D01*
X7530457Y-17985265D02*
X7539980Y-17994789D01*
X7530457Y-18004313D01*
X7520933Y-17994789D01*
X7530457Y-17985265D01*
X7530457Y-18004313D01*
X7616171Y-17823361D02*
X7625695Y-17813837D01*
X7644742Y-17804313D01*
X7692361Y-17804313D01*
X7711409Y-17813837D01*
X7720933Y-17823361D01*
X7730457Y-17842408D01*
X7730457Y-17861456D01*
X7720933Y-17890027D01*
X7606647Y-18004313D01*
X7730457Y-18004313D01*
X7854266Y-17804313D02*
X7873314Y-17804313D01*
X7892361Y-17813837D01*
X7901885Y-17823361D01*
X7911409Y-17842408D01*
X7920933Y-17880503D01*
X7920933Y-17928122D01*
X7911409Y-17966218D01*
X7901885Y-17985265D01*
X7892361Y-17994789D01*
X7873314Y-18004313D01*
X7854266Y-18004313D01*
X7835219Y-17994789D01*
X7825695Y-17985265D01*
X7816171Y-17966218D01*
X7806647Y-17928122D01*
X7806647Y-17880503D01*
X7816171Y-17842408D01*
X7825695Y-17823361D01*
X7835219Y-17813837D01*
X7854266Y-17804313D01*
X8044742Y-17804313D02*
X8063790Y-17804313D01*
X8082838Y-17813837D01*
X8092361Y-17823361D01*
X8101885Y-17842408D01*
X8111409Y-17880503D01*
X8111409Y-17928122D01*
X8101885Y-17966218D01*
X8092361Y-17985265D01*
X8082838Y-17994789D01*
X8063790Y-18004313D01*
X8044742Y-18004313D01*
X8025695Y-17994789D01*
X8016171Y-17985265D01*
X8006647Y-17966218D01*
X7997123Y-17928122D01*
X7997123Y-17880503D01*
X8006647Y-17842408D01*
X8016171Y-17823361D01*
X8025695Y-17813837D01*
X8044742Y-17804313D01*
X8197123Y-18004313D02*
X8197123Y-17870980D01*
X8197123Y-17890027D02*
X8206647Y-17880503D01*
X8225695Y-17870980D01*
X8254266Y-17870980D01*
X8273314Y-17880503D01*
X8282838Y-17899551D01*
X8282838Y-18004313D01*
X8282838Y-17899551D02*
X8292361Y-17880503D01*
X8311409Y-17870980D01*
X8339980Y-17870980D01*
X8359028Y-17880503D01*
X8368552Y-17899551D01*
X8368552Y-18004313D01*
X8463790Y-18004313D02*
X8463790Y-17870980D01*
X8463790Y-17890027D02*
X8473314Y-17880503D01*
X8492362Y-17870980D01*
X8520933Y-17870980D01*
X8539981Y-17880503D01*
X8549504Y-17899551D01*
X8549504Y-18004313D01*
X8549504Y-17899551D02*
X8559028Y-17880503D01*
X8578076Y-17870980D01*
X8606647Y-17870980D01*
X8625695Y-17880503D01*
X8635219Y-17899551D01*
X8635219Y-18004313D01*
X9025695Y-17794789D02*
X8854266Y-18051932D01*
X9282838Y-17804313D02*
X9301885Y-17804313D01*
X9320933Y-17813837D01*
X9330457Y-17823361D01*
X9339981Y-17842408D01*
X9349504Y-17880503D01*
X9349504Y-17928122D01*
X9339981Y-17966218D01*
X9330457Y-17985265D01*
X9320933Y-17994789D01*
X9301885Y-18004313D01*
X9282838Y-18004313D01*
X9263790Y-17994789D01*
X9254266Y-17985265D01*
X9244742Y-17966218D01*
X9235219Y-17928122D01*
X9235219Y-17880503D01*
X9244742Y-17842408D01*
X9254266Y-17823361D01*
X9263790Y-17813837D01*
X9282838Y-17804313D01*
X9435219Y-17985265D02*
X9444742Y-17994789D01*
X9435219Y-18004313D01*
X9425695Y-17994789D01*
X9435219Y-17985265D01*
X9435219Y-18004313D01*
X9568552Y-17804313D02*
X9587600Y-17804313D01*
X9606647Y-17813837D01*
X9616171Y-17823361D01*
X9625695Y-17842408D01*
X9635219Y-17880503D01*
X9635219Y-17928122D01*
X9625695Y-17966218D01*
X9616171Y-17985265D01*
X9606647Y-17994789D01*
X9587600Y-18004313D01*
X9568552Y-18004313D01*
X9549504Y-17994789D01*
X9539981Y-17985265D01*
X9530457Y-17966218D01*
X9520933Y-17928122D01*
X9520933Y-17880503D01*
X9530457Y-17842408D01*
X9539981Y-17823361D01*
X9549504Y-17813837D01*
X9568552Y-17804313D01*
X9806647Y-17870980D02*
X9806647Y-18004313D01*
X9759028Y-17794789D02*
X9711409Y-17937646D01*
X9835219Y-17937646D01*
X9892362Y-17804313D02*
X10025695Y-17804313D01*
X9939981Y-18004313D01*
X10092361Y-17823361D02*
X10101885Y-17813837D01*
X10120933Y-17804313D01*
X10168552Y-17804313D01*
X10187600Y-17813837D01*
X10197123Y-17823361D01*
X10206647Y-17842408D01*
X10206647Y-17861456D01*
X10197123Y-17890027D01*
X10082838Y-18004313D01*
X10206647Y-18004313D01*
X10282838Y-17804313D02*
X10282838Y-17842408D01*
X10359028Y-17804313D02*
X10359028Y-17842408D01*
X10654266Y-18080503D02*
X10644742Y-18070980D01*
X10625695Y-18042408D01*
X10616171Y-18023361D01*
X10606647Y-17994789D01*
X10597123Y-17947170D01*
X10597123Y-17909075D01*
X10606647Y-17861456D01*
X10616171Y-17832884D01*
X10625695Y-17813837D01*
X10644742Y-17785265D01*
X10654266Y-17775741D01*
X10816171Y-17870980D02*
X10816171Y-18004313D01*
X10768552Y-17794789D02*
X10720933Y-17937646D01*
X10844742Y-17937646D01*
X11073314Y-18004313D02*
X11073314Y-17804313D01*
X11159028Y-18004313D02*
X11159028Y-17899551D01*
X11149504Y-17880503D01*
X11130457Y-17870980D01*
X11101885Y-17870980D01*
X11082838Y-17880503D01*
X11073314Y-17890027D01*
X11282838Y-18004313D02*
X11263790Y-17994789D01*
X11254266Y-17985265D01*
X11244742Y-17966218D01*
X11244742Y-17909075D01*
X11254266Y-17890027D01*
X11263790Y-17880503D01*
X11282838Y-17870980D01*
X11311409Y-17870980D01*
X11330457Y-17880503D01*
X11339980Y-17890027D01*
X11349504Y-17909075D01*
X11349504Y-17966218D01*
X11339980Y-17985265D01*
X11330457Y-17994789D01*
X11311409Y-18004313D01*
X11282838Y-18004313D01*
X11463790Y-18004313D02*
X11444742Y-17994789D01*
X11435219Y-17975741D01*
X11435219Y-17804313D01*
X11616171Y-17994789D02*
X11597123Y-18004313D01*
X11559028Y-18004313D01*
X11539980Y-17994789D01*
X11530457Y-17975741D01*
X11530457Y-17899551D01*
X11539980Y-17880503D01*
X11559028Y-17870980D01*
X11597123Y-17870980D01*
X11616171Y-17880503D01*
X11625695Y-17899551D01*
X11625695Y-17918599D01*
X11530457Y-17937646D01*
X11701885Y-17994789D02*
X11720933Y-18004313D01*
X11759028Y-18004313D01*
X11778076Y-17994789D01*
X11787599Y-17975741D01*
X11787599Y-17966218D01*
X11778076Y-17947170D01*
X11759028Y-17937646D01*
X11730457Y-17937646D01*
X11711409Y-17928122D01*
X11701885Y-17909075D01*
X11701885Y-17899551D01*
X11711409Y-17880503D01*
X11730457Y-17870980D01*
X11759028Y-17870980D01*
X11778076Y-17880503D01*
X11854266Y-18080503D02*
X11863790Y-18070980D01*
X11882838Y-18042408D01*
X11892361Y-18023361D01*
X11901885Y-17994789D01*
X11911409Y-17947170D01*
X11911409Y-17909075D01*
X11901885Y-17861456D01*
X11892361Y-17832884D01*
X11882838Y-17813837D01*
X11863790Y-17785265D01*
X11854266Y-17775741D01*
X12216171Y-18080503D02*
X12206647Y-18070980D01*
X12187599Y-18042408D01*
X12178076Y-18023361D01*
X12168552Y-17994789D01*
X12159028Y-17947170D01*
X12159028Y-17909075D01*
X12168552Y-17861456D01*
X12178076Y-17832884D01*
X12187599Y-17813837D01*
X12206647Y-17785265D01*
X12216171Y-17775741D01*
X12292361Y-17870980D02*
X12292361Y-18004313D01*
X12292361Y-17890027D02*
X12301885Y-17880503D01*
X12320933Y-17870980D01*
X12349504Y-17870980D01*
X12368552Y-17880503D01*
X12378076Y-17899551D01*
X12378076Y-18004313D01*
X12501885Y-18004313D02*
X12482838Y-17994789D01*
X12473314Y-17985265D01*
X12463790Y-17966218D01*
X12463790Y-17909075D01*
X12473314Y-17890027D01*
X12482838Y-17880503D01*
X12501885Y-17870980D01*
X12530457Y-17870980D01*
X12549504Y-17880503D01*
X12559028Y-17890027D01*
X12568552Y-17909075D01*
X12568552Y-17966218D01*
X12559028Y-17985265D01*
X12549504Y-17994789D01*
X12530457Y-18004313D01*
X12501885Y-18004313D01*
X12625695Y-17870980D02*
X12701885Y-17870980D01*
X12654266Y-17804313D02*
X12654266Y-17975741D01*
X12663790Y-17994789D01*
X12682838Y-18004313D01*
X12701885Y-18004313D01*
X12920933Y-17870980D02*
X12920933Y-18070980D01*
X12920933Y-17880503D02*
X12939980Y-17870980D01*
X12978076Y-17870980D01*
X12997123Y-17880503D01*
X13006647Y-17890027D01*
X13016171Y-17909075D01*
X13016171Y-17966218D01*
X13006647Y-17985265D01*
X12997123Y-17994789D01*
X12978076Y-18004313D01*
X12939980Y-18004313D01*
X12920933Y-17994789D01*
X13130457Y-18004313D02*
X13111409Y-17994789D01*
X13101885Y-17975741D01*
X13101885Y-17804313D01*
X13292361Y-18004313D02*
X13292361Y-17899551D01*
X13282838Y-17880503D01*
X13263790Y-17870980D01*
X13225695Y-17870980D01*
X13206647Y-17880503D01*
X13292361Y-17994789D02*
X13273314Y-18004313D01*
X13225695Y-18004313D01*
X13206647Y-17994789D01*
X13197123Y-17975741D01*
X13197123Y-17956694D01*
X13206647Y-17937646D01*
X13225695Y-17928122D01*
X13273314Y-17928122D01*
X13292361Y-17918599D01*
X13359028Y-17870980D02*
X13435219Y-17870980D01*
X13387599Y-17804313D02*
X13387599Y-17975741D01*
X13397123Y-17994789D01*
X13416171Y-18004313D01*
X13435219Y-18004313D01*
X13578076Y-17994789D02*
X13559028Y-18004313D01*
X13520933Y-18004313D01*
X13501885Y-17994789D01*
X13492361Y-17975741D01*
X13492361Y-17899551D01*
X13501885Y-17880503D01*
X13520933Y-17870980D01*
X13559028Y-17870980D01*
X13578076Y-17880503D01*
X13587599Y-17899551D01*
X13587599Y-17918599D01*
X13492361Y-17937646D01*
X13759028Y-18004313D02*
X13759028Y-17804313D01*
X13759028Y-17994789D02*
X13739980Y-18004313D01*
X13701885Y-18004313D01*
X13682838Y-17994789D01*
X13673314Y-17985265D01*
X13663790Y-17966218D01*
X13663790Y-17909075D01*
X13673314Y-17890027D01*
X13682838Y-17880503D01*
X13701885Y-17870980D01*
X13739980Y-17870980D01*
X13759028Y-17880503D01*
X13835219Y-18080503D02*
X13844742Y-18070980D01*
X13863790Y-18042408D01*
X13873314Y-18023361D01*
X13882838Y-17994789D01*
X13892361Y-17947170D01*
X13892361Y-17909075D01*
X13882838Y-17861456D01*
X13873314Y-17832884D01*
X13863790Y-17813837D01*
X13844742Y-17785265D01*
X13835219Y-17775741D01*
D17*
X7057466Y-18237941D02*
X7057466Y-18117732D01*
X6937257Y-18117732D01*
X6937257Y-18237941D01*
X7057466Y-18237941D01*
D13*
X7444742Y-18268313D02*
X7330457Y-18268313D01*
X7387599Y-18268313D02*
X7387599Y-18068313D01*
X7368552Y-18096884D01*
X7349504Y-18115932D01*
X7330457Y-18125456D01*
X7530457Y-18249265D02*
X7539980Y-18258789D01*
X7530457Y-18268313D01*
X7520933Y-18258789D01*
X7530457Y-18249265D01*
X7530457Y-18268313D01*
X7606647Y-18068313D02*
X7739980Y-18068313D01*
X7654266Y-18268313D01*
X7854266Y-18068313D02*
X7873314Y-18068313D01*
X7892361Y-18077837D01*
X7901885Y-18087361D01*
X7911409Y-18106408D01*
X7920933Y-18144503D01*
X7920933Y-18192122D01*
X7911409Y-18230218D01*
X7901885Y-18249265D01*
X7892361Y-18258789D01*
X7873314Y-18268313D01*
X7854266Y-18268313D01*
X7835219Y-18258789D01*
X7825695Y-18249265D01*
X7816171Y-18230218D01*
X7806647Y-18192122D01*
X7806647Y-18144503D01*
X7816171Y-18106408D01*
X7825695Y-18087361D01*
X7835219Y-18077837D01*
X7854266Y-18068313D01*
X8044742Y-18068313D02*
X8063790Y-18068313D01*
X8082838Y-18077837D01*
X8092361Y-18087361D01*
X8101885Y-18106408D01*
X8111409Y-18144503D01*
X8111409Y-18192122D01*
X8101885Y-18230218D01*
X8092361Y-18249265D01*
X8082838Y-18258789D01*
X8063790Y-18268313D01*
X8044742Y-18268313D01*
X8025695Y-18258789D01*
X8016171Y-18249265D01*
X8006647Y-18230218D01*
X7997123Y-18192122D01*
X7997123Y-18144503D01*
X8006647Y-18106408D01*
X8016171Y-18087361D01*
X8025695Y-18077837D01*
X8044742Y-18068313D01*
X8197123Y-18268313D02*
X8197123Y-18134980D01*
X8197123Y-18154027D02*
X8206647Y-18144503D01*
X8225695Y-18134980D01*
X8254266Y-18134980D01*
X8273314Y-18144503D01*
X8282838Y-18163551D01*
X8282838Y-18268313D01*
X8282838Y-18163551D02*
X8292361Y-18144503D01*
X8311409Y-18134980D01*
X8339980Y-18134980D01*
X8359028Y-18144503D01*
X8368552Y-18163551D01*
X8368552Y-18268313D01*
X8463790Y-18268313D02*
X8463790Y-18134980D01*
X8463790Y-18154027D02*
X8473314Y-18144503D01*
X8492362Y-18134980D01*
X8520933Y-18134980D01*
X8539981Y-18144503D01*
X8549504Y-18163551D01*
X8549504Y-18268313D01*
X8549504Y-18163551D02*
X8559028Y-18144503D01*
X8578076Y-18134980D01*
X8606647Y-18134980D01*
X8625695Y-18144503D01*
X8635219Y-18163551D01*
X8635219Y-18268313D01*
X9025695Y-18058789D02*
X8854266Y-18315932D01*
X9282838Y-18068313D02*
X9301885Y-18068313D01*
X9320933Y-18077837D01*
X9330457Y-18087361D01*
X9339981Y-18106408D01*
X9349504Y-18144503D01*
X9349504Y-18192122D01*
X9339981Y-18230218D01*
X9330457Y-18249265D01*
X9320933Y-18258789D01*
X9301885Y-18268313D01*
X9282838Y-18268313D01*
X9263790Y-18258789D01*
X9254266Y-18249265D01*
X9244742Y-18230218D01*
X9235219Y-18192122D01*
X9235219Y-18144503D01*
X9244742Y-18106408D01*
X9254266Y-18087361D01*
X9263790Y-18077837D01*
X9282838Y-18068313D01*
X9435219Y-18249265D02*
X9444742Y-18258789D01*
X9435219Y-18268313D01*
X9425695Y-18258789D01*
X9435219Y-18249265D01*
X9435219Y-18268313D01*
X9568552Y-18068313D02*
X9587600Y-18068313D01*
X9606647Y-18077837D01*
X9616171Y-18087361D01*
X9625695Y-18106408D01*
X9635219Y-18144503D01*
X9635219Y-18192122D01*
X9625695Y-18230218D01*
X9616171Y-18249265D01*
X9606647Y-18258789D01*
X9587600Y-18268313D01*
X9568552Y-18268313D01*
X9549504Y-18258789D01*
X9539981Y-18249265D01*
X9530457Y-18230218D01*
X9520933Y-18192122D01*
X9520933Y-18144503D01*
X9530457Y-18106408D01*
X9539981Y-18087361D01*
X9549504Y-18077837D01*
X9568552Y-18068313D01*
X9806647Y-18068313D02*
X9768552Y-18068313D01*
X9749504Y-18077837D01*
X9739981Y-18087361D01*
X9720933Y-18115932D01*
X9711409Y-18154027D01*
X9711409Y-18230218D01*
X9720933Y-18249265D01*
X9730457Y-18258789D01*
X9749504Y-18268313D01*
X9787600Y-18268313D01*
X9806647Y-18258789D01*
X9816171Y-18249265D01*
X9825695Y-18230218D01*
X9825695Y-18182599D01*
X9816171Y-18163551D01*
X9806647Y-18154027D01*
X9787600Y-18144503D01*
X9749504Y-18144503D01*
X9730457Y-18154027D01*
X9720933Y-18163551D01*
X9711409Y-18182599D01*
X9997123Y-18068313D02*
X9959028Y-18068313D01*
X9939981Y-18077837D01*
X9930457Y-18087361D01*
X9911409Y-18115932D01*
X9901885Y-18154027D01*
X9901885Y-18230218D01*
X9911409Y-18249265D01*
X9920933Y-18258789D01*
X9939981Y-18268313D01*
X9978076Y-18268313D01*
X9997123Y-18258789D01*
X10006647Y-18249265D01*
X10016171Y-18230218D01*
X10016171Y-18182599D01*
X10006647Y-18163551D01*
X9997123Y-18154027D01*
X9978076Y-18144503D01*
X9939981Y-18144503D01*
X9920933Y-18154027D01*
X9911409Y-18163551D01*
X9901885Y-18182599D01*
X10111409Y-18268313D02*
X10149504Y-18268313D01*
X10168552Y-18258789D01*
X10178076Y-18249265D01*
X10197123Y-18220694D01*
X10206647Y-18182599D01*
X10206647Y-18106408D01*
X10197123Y-18087361D01*
X10187600Y-18077837D01*
X10168552Y-18068313D01*
X10130457Y-18068313D01*
X10111409Y-18077837D01*
X10101885Y-18087361D01*
X10092361Y-18106408D01*
X10092361Y-18154027D01*
X10101885Y-18173075D01*
X10111409Y-18182599D01*
X10130457Y-18192122D01*
X10168552Y-18192122D01*
X10187600Y-18182599D01*
X10197123Y-18173075D01*
X10206647Y-18154027D01*
X10282838Y-18068313D02*
X10282838Y-18106408D01*
X10359028Y-18068313D02*
X10359028Y-18106408D01*
X10654266Y-18344503D02*
X10644742Y-18334980D01*
X10625695Y-18306408D01*
X10616171Y-18287361D01*
X10606647Y-18258789D01*
X10597123Y-18211170D01*
X10597123Y-18173075D01*
X10606647Y-18125456D01*
X10616171Y-18096884D01*
X10625695Y-18077837D01*
X10644742Y-18049265D01*
X10654266Y-18039741D01*
X10816171Y-18134980D02*
X10816171Y-18268313D01*
X10768552Y-18058789D02*
X10720933Y-18201646D01*
X10844742Y-18201646D01*
X10911409Y-18087361D02*
X10920933Y-18077837D01*
X10939981Y-18068313D01*
X10987600Y-18068313D01*
X11006647Y-18077837D01*
X11016171Y-18087361D01*
X11025695Y-18106408D01*
X11025695Y-18125456D01*
X11016171Y-18154027D01*
X10901885Y-18268313D01*
X11025695Y-18268313D01*
X11263790Y-18268313D02*
X11263790Y-18068313D01*
X11349504Y-18268313D02*
X11349504Y-18163551D01*
X11339980Y-18144503D01*
X11320933Y-18134980D01*
X11292361Y-18134980D01*
X11273314Y-18144503D01*
X11263790Y-18154027D01*
X11473314Y-18268313D02*
X11454266Y-18258789D01*
X11444742Y-18249265D01*
X11435219Y-18230218D01*
X11435219Y-18173075D01*
X11444742Y-18154027D01*
X11454266Y-18144503D01*
X11473314Y-18134980D01*
X11501885Y-18134980D01*
X11520933Y-18144503D01*
X11530457Y-18154027D01*
X11539980Y-18173075D01*
X11539980Y-18230218D01*
X11530457Y-18249265D01*
X11520933Y-18258789D01*
X11501885Y-18268313D01*
X11473314Y-18268313D01*
X11654266Y-18268313D02*
X11635219Y-18258789D01*
X11625695Y-18239741D01*
X11625695Y-18068313D01*
X11806647Y-18258789D02*
X11787599Y-18268313D01*
X11749504Y-18268313D01*
X11730457Y-18258789D01*
X11720933Y-18239741D01*
X11720933Y-18163551D01*
X11730457Y-18144503D01*
X11749504Y-18134980D01*
X11787599Y-18134980D01*
X11806647Y-18144503D01*
X11816171Y-18163551D01*
X11816171Y-18182599D01*
X11720933Y-18201646D01*
X11892361Y-18258789D02*
X11911409Y-18268313D01*
X11949504Y-18268313D01*
X11968552Y-18258789D01*
X11978076Y-18239741D01*
X11978076Y-18230218D01*
X11968552Y-18211170D01*
X11949504Y-18201646D01*
X11920933Y-18201646D01*
X11901885Y-18192122D01*
X11892361Y-18173075D01*
X11892361Y-18163551D01*
X11901885Y-18144503D01*
X11920933Y-18134980D01*
X11949504Y-18134980D01*
X11968552Y-18144503D01*
X12044742Y-18344503D02*
X12054266Y-18334980D01*
X12073314Y-18306408D01*
X12082838Y-18287361D01*
X12092361Y-18258789D01*
X12101885Y-18211170D01*
X12101885Y-18173075D01*
X12092361Y-18125456D01*
X12082838Y-18096884D01*
X12073314Y-18077837D01*
X12054266Y-18049265D01*
X12044742Y-18039741D01*
X12406647Y-18344503D02*
X12397123Y-18334980D01*
X12378076Y-18306408D01*
X12368552Y-18287361D01*
X12359028Y-18258789D01*
X12349504Y-18211170D01*
X12349504Y-18173075D01*
X12359028Y-18125456D01*
X12368552Y-18096884D01*
X12378076Y-18077837D01*
X12397123Y-18049265D01*
X12406647Y-18039741D01*
X12482838Y-18134980D02*
X12482838Y-18268313D01*
X12482838Y-18154027D02*
X12492361Y-18144503D01*
X12511409Y-18134980D01*
X12539980Y-18134980D01*
X12559028Y-18144503D01*
X12568552Y-18163551D01*
X12568552Y-18268313D01*
X12692361Y-18268313D02*
X12673314Y-18258789D01*
X12663790Y-18249265D01*
X12654266Y-18230218D01*
X12654266Y-18173075D01*
X12663790Y-18154027D01*
X12673314Y-18144503D01*
X12692361Y-18134980D01*
X12720933Y-18134980D01*
X12739980Y-18144503D01*
X12749504Y-18154027D01*
X12759028Y-18173075D01*
X12759028Y-18230218D01*
X12749504Y-18249265D01*
X12739980Y-18258789D01*
X12720933Y-18268313D01*
X12692361Y-18268313D01*
X12816171Y-18134980D02*
X12892361Y-18134980D01*
X12844742Y-18068313D02*
X12844742Y-18239741D01*
X12854266Y-18258789D01*
X12873314Y-18268313D01*
X12892361Y-18268313D01*
X13111409Y-18134980D02*
X13111409Y-18334980D01*
X13111409Y-18144503D02*
X13130457Y-18134980D01*
X13168552Y-18134980D01*
X13187599Y-18144503D01*
X13197123Y-18154027D01*
X13206647Y-18173075D01*
X13206647Y-18230218D01*
X13197123Y-18249265D01*
X13187599Y-18258789D01*
X13168552Y-18268313D01*
X13130457Y-18268313D01*
X13111409Y-18258789D01*
X13320933Y-18268313D02*
X13301885Y-18258789D01*
X13292361Y-18239741D01*
X13292361Y-18068313D01*
X13482838Y-18268313D02*
X13482838Y-18163551D01*
X13473314Y-18144503D01*
X13454266Y-18134980D01*
X13416171Y-18134980D01*
X13397123Y-18144503D01*
X13482838Y-18258789D02*
X13463790Y-18268313D01*
X13416171Y-18268313D01*
X13397123Y-18258789D01*
X13387599Y-18239741D01*
X13387599Y-18220694D01*
X13397123Y-18201646D01*
X13416171Y-18192122D01*
X13463790Y-18192122D01*
X13482838Y-18182599D01*
X13549504Y-18134980D02*
X13625695Y-18134980D01*
X13578076Y-18068313D02*
X13578076Y-18239741D01*
X13587599Y-18258789D01*
X13606647Y-18268313D01*
X13625695Y-18268313D01*
X13768552Y-18258789D02*
X13749504Y-18268313D01*
X13711409Y-18268313D01*
X13692361Y-18258789D01*
X13682838Y-18239741D01*
X13682838Y-18163551D01*
X13692361Y-18144503D01*
X13711409Y-18134980D01*
X13749504Y-18134980D01*
X13768552Y-18144503D01*
X13778076Y-18163551D01*
X13778076Y-18182599D01*
X13682838Y-18201646D01*
X13949504Y-18268313D02*
X13949504Y-18068313D01*
X13949504Y-18258789D02*
X13930457Y-18268313D01*
X13892361Y-18268313D01*
X13873314Y-18258789D01*
X13863790Y-18249265D01*
X13854266Y-18230218D01*
X13854266Y-18173075D01*
X13863790Y-18154027D01*
X13873314Y-18144503D01*
X13892361Y-18134980D01*
X13930457Y-18134980D01*
X13949504Y-18144503D01*
X14025695Y-18344503D02*
X14035219Y-18334980D01*
X14054266Y-18306408D01*
X14063790Y-18287361D01*
X14073314Y-18258789D01*
X14082838Y-18211170D01*
X14082838Y-18173075D01*
X14073314Y-18125456D01*
X14063790Y-18096884D01*
X14054266Y-18077837D01*
X14035219Y-18049265D01*
X14025695Y-18039741D01*
D18*
X6987361Y-18562837D02*
X7082361Y-18467837D01*
X6987361Y-18372837D01*
X6892361Y-18467837D01*
X6987361Y-18562837D01*
D13*
X7444742Y-18558313D02*
X7330457Y-18558313D01*
X7387599Y-18558313D02*
X7387599Y-18358313D01*
X7368552Y-18386884D01*
X7349504Y-18405932D01*
X7330457Y-18415456D01*
X7530457Y-18539265D02*
X7539980Y-18548789D01*
X7530457Y-18558313D01*
X7520933Y-18548789D01*
X7530457Y-18539265D01*
X7530457Y-18558313D01*
X7635219Y-18558313D02*
X7673314Y-18558313D01*
X7692361Y-18548789D01*
X7701885Y-18539265D01*
X7720933Y-18510694D01*
X7730457Y-18472599D01*
X7730457Y-18396408D01*
X7720933Y-18377361D01*
X7711409Y-18367837D01*
X7692361Y-18358313D01*
X7654266Y-18358313D01*
X7635219Y-18367837D01*
X7625695Y-18377361D01*
X7616171Y-18396408D01*
X7616171Y-18444027D01*
X7625695Y-18463075D01*
X7635219Y-18472599D01*
X7654266Y-18482122D01*
X7692361Y-18482122D01*
X7711409Y-18472599D01*
X7720933Y-18463075D01*
X7730457Y-18444027D01*
X7854266Y-18358313D02*
X7873314Y-18358313D01*
X7892361Y-18367837D01*
X7901885Y-18377361D01*
X7911409Y-18396408D01*
X7920933Y-18434503D01*
X7920933Y-18482122D01*
X7911409Y-18520218D01*
X7901885Y-18539265D01*
X7892361Y-18548789D01*
X7873314Y-18558313D01*
X7854266Y-18558313D01*
X7835219Y-18548789D01*
X7825695Y-18539265D01*
X7816171Y-18520218D01*
X7806647Y-18482122D01*
X7806647Y-18434503D01*
X7816171Y-18396408D01*
X7825695Y-18377361D01*
X7835219Y-18367837D01*
X7854266Y-18358313D01*
X8044742Y-18358313D02*
X8063790Y-18358313D01*
X8082838Y-18367837D01*
X8092361Y-18377361D01*
X8101885Y-18396408D01*
X8111409Y-18434503D01*
X8111409Y-18482122D01*
X8101885Y-18520218D01*
X8092361Y-18539265D01*
X8082838Y-18548789D01*
X8063790Y-18558313D01*
X8044742Y-18558313D01*
X8025695Y-18548789D01*
X8016171Y-18539265D01*
X8006647Y-18520218D01*
X7997123Y-18482122D01*
X7997123Y-18434503D01*
X8006647Y-18396408D01*
X8016171Y-18377361D01*
X8025695Y-18367837D01*
X8044742Y-18358313D01*
X8197123Y-18558313D02*
X8197123Y-18424980D01*
X8197123Y-18444027D02*
X8206647Y-18434503D01*
X8225695Y-18424980D01*
X8254266Y-18424980D01*
X8273314Y-18434503D01*
X8282838Y-18453551D01*
X8282838Y-18558313D01*
X8282838Y-18453551D02*
X8292361Y-18434503D01*
X8311409Y-18424980D01*
X8339980Y-18424980D01*
X8359028Y-18434503D01*
X8368552Y-18453551D01*
X8368552Y-18558313D01*
X8463790Y-18558313D02*
X8463790Y-18424980D01*
X8463790Y-18444027D02*
X8473314Y-18434503D01*
X8492362Y-18424980D01*
X8520933Y-18424980D01*
X8539981Y-18434503D01*
X8549504Y-18453551D01*
X8549504Y-18558313D01*
X8549504Y-18453551D02*
X8559028Y-18434503D01*
X8578076Y-18424980D01*
X8606647Y-18424980D01*
X8625695Y-18434503D01*
X8635219Y-18453551D01*
X8635219Y-18558313D01*
X9025695Y-18348789D02*
X8854266Y-18605932D01*
X9282838Y-18358313D02*
X9301885Y-18358313D01*
X9320933Y-18367837D01*
X9330457Y-18377361D01*
X9339981Y-18396408D01*
X9349504Y-18434503D01*
X9349504Y-18482122D01*
X9339981Y-18520218D01*
X9330457Y-18539265D01*
X9320933Y-18548789D01*
X9301885Y-18558313D01*
X9282838Y-18558313D01*
X9263790Y-18548789D01*
X9254266Y-18539265D01*
X9244742Y-18520218D01*
X9235219Y-18482122D01*
X9235219Y-18434503D01*
X9244742Y-18396408D01*
X9254266Y-18377361D01*
X9263790Y-18367837D01*
X9282838Y-18358313D01*
X9435219Y-18539265D02*
X9444742Y-18548789D01*
X9435219Y-18558313D01*
X9425695Y-18548789D01*
X9435219Y-18539265D01*
X9435219Y-18558313D01*
X9568552Y-18358313D02*
X9587600Y-18358313D01*
X9606647Y-18367837D01*
X9616171Y-18377361D01*
X9625695Y-18396408D01*
X9635219Y-18434503D01*
X9635219Y-18482122D01*
X9625695Y-18520218D01*
X9616171Y-18539265D01*
X9606647Y-18548789D01*
X9587600Y-18558313D01*
X9568552Y-18558313D01*
X9549504Y-18548789D01*
X9539981Y-18539265D01*
X9530457Y-18520218D01*
X9520933Y-18482122D01*
X9520933Y-18434503D01*
X9530457Y-18396408D01*
X9539981Y-18377361D01*
X9549504Y-18367837D01*
X9568552Y-18358313D01*
X9701885Y-18358313D02*
X9835219Y-18358313D01*
X9749504Y-18558313D01*
X9997123Y-18424980D02*
X9997123Y-18558313D01*
X9949504Y-18348789D02*
X9901885Y-18491646D01*
X10025695Y-18491646D01*
X10130457Y-18444027D02*
X10111409Y-18434503D01*
X10101885Y-18424980D01*
X10092361Y-18405932D01*
X10092361Y-18396408D01*
X10101885Y-18377361D01*
X10111409Y-18367837D01*
X10130457Y-18358313D01*
X10168552Y-18358313D01*
X10187600Y-18367837D01*
X10197123Y-18377361D01*
X10206647Y-18396408D01*
X10206647Y-18405932D01*
X10197123Y-18424980D01*
X10187600Y-18434503D01*
X10168552Y-18444027D01*
X10130457Y-18444027D01*
X10111409Y-18453551D01*
X10101885Y-18463075D01*
X10092361Y-18482122D01*
X10092361Y-18520218D01*
X10101885Y-18539265D01*
X10111409Y-18548789D01*
X10130457Y-18558313D01*
X10168552Y-18558313D01*
X10187600Y-18548789D01*
X10197123Y-18539265D01*
X10206647Y-18520218D01*
X10206647Y-18482122D01*
X10197123Y-18463075D01*
X10187600Y-18453551D01*
X10168552Y-18444027D01*
X10282838Y-18358313D02*
X10282838Y-18396408D01*
X10359028Y-18358313D02*
X10359028Y-18396408D01*
X10654266Y-18634503D02*
X10644742Y-18624980D01*
X10625695Y-18596408D01*
X10616171Y-18577361D01*
X10606647Y-18548789D01*
X10597123Y-18501170D01*
X10597123Y-18463075D01*
X10606647Y-18415456D01*
X10616171Y-18386884D01*
X10625695Y-18367837D01*
X10644742Y-18339265D01*
X10654266Y-18329741D01*
X10816171Y-18424980D02*
X10816171Y-18558313D01*
X10768552Y-18348789D02*
X10720933Y-18491646D01*
X10844742Y-18491646D01*
X10911409Y-18377361D02*
X10920933Y-18367837D01*
X10939981Y-18358313D01*
X10987600Y-18358313D01*
X11006647Y-18367837D01*
X11016171Y-18377361D01*
X11025695Y-18396408D01*
X11025695Y-18415456D01*
X11016171Y-18444027D01*
X10901885Y-18558313D01*
X11025695Y-18558313D01*
X11263790Y-18558313D02*
X11263790Y-18358313D01*
X11349504Y-18558313D02*
X11349504Y-18453551D01*
X11339980Y-18434503D01*
X11320933Y-18424980D01*
X11292361Y-18424980D01*
X11273314Y-18434503D01*
X11263790Y-18444027D01*
X11473314Y-18558313D02*
X11454266Y-18548789D01*
X11444742Y-18539265D01*
X11435219Y-18520218D01*
X11435219Y-18463075D01*
X11444742Y-18444027D01*
X11454266Y-18434503D01*
X11473314Y-18424980D01*
X11501885Y-18424980D01*
X11520933Y-18434503D01*
X11530457Y-18444027D01*
X11539980Y-18463075D01*
X11539980Y-18520218D01*
X11530457Y-18539265D01*
X11520933Y-18548789D01*
X11501885Y-18558313D01*
X11473314Y-18558313D01*
X11654266Y-18558313D02*
X11635219Y-18548789D01*
X11625695Y-18529741D01*
X11625695Y-18358313D01*
X11806647Y-18548789D02*
X11787599Y-18558313D01*
X11749504Y-18558313D01*
X11730457Y-18548789D01*
X11720933Y-18529741D01*
X11720933Y-18453551D01*
X11730457Y-18434503D01*
X11749504Y-18424980D01*
X11787599Y-18424980D01*
X11806647Y-18434503D01*
X11816171Y-18453551D01*
X11816171Y-18472599D01*
X11720933Y-18491646D01*
X11892361Y-18548789D02*
X11911409Y-18558313D01*
X11949504Y-18558313D01*
X11968552Y-18548789D01*
X11978076Y-18529741D01*
X11978076Y-18520218D01*
X11968552Y-18501170D01*
X11949504Y-18491646D01*
X11920933Y-18491646D01*
X11901885Y-18482122D01*
X11892361Y-18463075D01*
X11892361Y-18453551D01*
X11901885Y-18434503D01*
X11920933Y-18424980D01*
X11949504Y-18424980D01*
X11968552Y-18434503D01*
X12044742Y-18634503D02*
X12054266Y-18624980D01*
X12073314Y-18596408D01*
X12082838Y-18577361D01*
X12092361Y-18548789D01*
X12101885Y-18501170D01*
X12101885Y-18463075D01*
X12092361Y-18415456D01*
X12082838Y-18386884D01*
X12073314Y-18367837D01*
X12054266Y-18339265D01*
X12044742Y-18329741D01*
X12406647Y-18634503D02*
X12397123Y-18624980D01*
X12378076Y-18596408D01*
X12368552Y-18577361D01*
X12359028Y-18548789D01*
X12349504Y-18501170D01*
X12349504Y-18463075D01*
X12359028Y-18415456D01*
X12368552Y-18386884D01*
X12378076Y-18367837D01*
X12397123Y-18339265D01*
X12406647Y-18329741D01*
X12482838Y-18424980D02*
X12482838Y-18558313D01*
X12482838Y-18444027D02*
X12492361Y-18434503D01*
X12511409Y-18424980D01*
X12539980Y-18424980D01*
X12559028Y-18434503D01*
X12568552Y-18453551D01*
X12568552Y-18558313D01*
X12692361Y-18558313D02*
X12673314Y-18548789D01*
X12663790Y-18539265D01*
X12654266Y-18520218D01*
X12654266Y-18463075D01*
X12663790Y-18444027D01*
X12673314Y-18434503D01*
X12692361Y-18424980D01*
X12720933Y-18424980D01*
X12739980Y-18434503D01*
X12749504Y-18444027D01*
X12759028Y-18463075D01*
X12759028Y-18520218D01*
X12749504Y-18539265D01*
X12739980Y-18548789D01*
X12720933Y-18558313D01*
X12692361Y-18558313D01*
X12816171Y-18424980D02*
X12892361Y-18424980D01*
X12844742Y-18358313D02*
X12844742Y-18529741D01*
X12854266Y-18548789D01*
X12873314Y-18558313D01*
X12892361Y-18558313D01*
X13111409Y-18424980D02*
X13111409Y-18624980D01*
X13111409Y-18434503D02*
X13130457Y-18424980D01*
X13168552Y-18424980D01*
X13187599Y-18434503D01*
X13197123Y-18444027D01*
X13206647Y-18463075D01*
X13206647Y-18520218D01*
X13197123Y-18539265D01*
X13187599Y-18548789D01*
X13168552Y-18558313D01*
X13130457Y-18558313D01*
X13111409Y-18548789D01*
X13320933Y-18558313D02*
X13301885Y-18548789D01*
X13292361Y-18529741D01*
X13292361Y-18358313D01*
X13482838Y-18558313D02*
X13482838Y-18453551D01*
X13473314Y-18434503D01*
X13454266Y-18424980D01*
X13416171Y-18424980D01*
X13397123Y-18434503D01*
X13482838Y-18548789D02*
X13463790Y-18558313D01*
X13416171Y-18558313D01*
X13397123Y-18548789D01*
X13387599Y-18529741D01*
X13387599Y-18510694D01*
X13397123Y-18491646D01*
X13416171Y-18482122D01*
X13463790Y-18482122D01*
X13482838Y-18472599D01*
X13549504Y-18424980D02*
X13625695Y-18424980D01*
X13578076Y-18358313D02*
X13578076Y-18529741D01*
X13587599Y-18548789D01*
X13606647Y-18558313D01*
X13625695Y-18558313D01*
X13768552Y-18548789D02*
X13749504Y-18558313D01*
X13711409Y-18558313D01*
X13692361Y-18548789D01*
X13682838Y-18529741D01*
X13682838Y-18453551D01*
X13692361Y-18434503D01*
X13711409Y-18424980D01*
X13749504Y-18424980D01*
X13768552Y-18434503D01*
X13778076Y-18453551D01*
X13778076Y-18472599D01*
X13682838Y-18491646D01*
X13949504Y-18558313D02*
X13949504Y-18358313D01*
X13949504Y-18548789D02*
X13930457Y-18558313D01*
X13892361Y-18558313D01*
X13873314Y-18548789D01*
X13863790Y-18539265D01*
X13854266Y-18520218D01*
X13854266Y-18463075D01*
X13863790Y-18444027D01*
X13873314Y-18434503D01*
X13892361Y-18424980D01*
X13930457Y-18424980D01*
X13949504Y-18434503D01*
X14025695Y-18634503D02*
X14035219Y-18624980D01*
X14054266Y-18596408D01*
X14063790Y-18577361D01*
X14073314Y-18548789D01*
X14082838Y-18501170D01*
X14082838Y-18463075D01*
X14073314Y-18415456D01*
X14063790Y-18386884D01*
X14054266Y-18367837D01*
X14035219Y-18339265D01*
X14025695Y-18329741D01*
X6882361Y-18677837D02*
X7082361Y-18877837D01*
X7082361Y-18677837D02*
X6882361Y-18877837D01*
X7082361Y-18777837D02*
G75*
G03*
X7082361Y-18777837I-100000J0D01*
G01*
X7330457Y-18687361D02*
X7339980Y-18677837D01*
X7359028Y-18668313D01*
X7406647Y-18668313D01*
X7425695Y-18677837D01*
X7435219Y-18687361D01*
X7444742Y-18706408D01*
X7444742Y-18725456D01*
X7435219Y-18754027D01*
X7320933Y-18868313D01*
X7444742Y-18868313D01*
X7530457Y-18849265D02*
X7539980Y-18858789D01*
X7530457Y-18868313D01*
X7520933Y-18858789D01*
X7530457Y-18849265D01*
X7530457Y-18868313D01*
X7616171Y-18687361D02*
X7625695Y-18677837D01*
X7644742Y-18668313D01*
X7692361Y-18668313D01*
X7711409Y-18677837D01*
X7720933Y-18687361D01*
X7730457Y-18706408D01*
X7730457Y-18725456D01*
X7720933Y-18754027D01*
X7606647Y-18868313D01*
X7730457Y-18868313D01*
X7854266Y-18668313D02*
X7873314Y-18668313D01*
X7892361Y-18677837D01*
X7901885Y-18687361D01*
X7911409Y-18706408D01*
X7920933Y-18744503D01*
X7920933Y-18792122D01*
X7911409Y-18830218D01*
X7901885Y-18849265D01*
X7892361Y-18858789D01*
X7873314Y-18868313D01*
X7854266Y-18868313D01*
X7835219Y-18858789D01*
X7825695Y-18849265D01*
X7816171Y-18830218D01*
X7806647Y-18792122D01*
X7806647Y-18744503D01*
X7816171Y-18706408D01*
X7825695Y-18687361D01*
X7835219Y-18677837D01*
X7854266Y-18668313D01*
X8044742Y-18668313D02*
X8063790Y-18668313D01*
X8082838Y-18677837D01*
X8092361Y-18687361D01*
X8101885Y-18706408D01*
X8111409Y-18744503D01*
X8111409Y-18792122D01*
X8101885Y-18830218D01*
X8092361Y-18849265D01*
X8082838Y-18858789D01*
X8063790Y-18868313D01*
X8044742Y-18868313D01*
X8025695Y-18858789D01*
X8016171Y-18849265D01*
X8006647Y-18830218D01*
X7997123Y-18792122D01*
X7997123Y-18744503D01*
X8006647Y-18706408D01*
X8016171Y-18687361D01*
X8025695Y-18677837D01*
X8044742Y-18668313D01*
X8197123Y-18868313D02*
X8197123Y-18734980D01*
X8197123Y-18754027D02*
X8206647Y-18744503D01*
X8225695Y-18734980D01*
X8254266Y-18734980D01*
X8273314Y-18744503D01*
X8282838Y-18763551D01*
X8282838Y-18868313D01*
X8282838Y-18763551D02*
X8292361Y-18744503D01*
X8311409Y-18734980D01*
X8339980Y-18734980D01*
X8359028Y-18744503D01*
X8368552Y-18763551D01*
X8368552Y-18868313D01*
X8463790Y-18868313D02*
X8463790Y-18734980D01*
X8463790Y-18754027D02*
X8473314Y-18744503D01*
X8492362Y-18734980D01*
X8520933Y-18734980D01*
X8539981Y-18744503D01*
X8549504Y-18763551D01*
X8549504Y-18868313D01*
X8549504Y-18763551D02*
X8559028Y-18744503D01*
X8578076Y-18734980D01*
X8606647Y-18734980D01*
X8625695Y-18744503D01*
X8635219Y-18763551D01*
X8635219Y-18868313D01*
X9025695Y-18658789D02*
X8854266Y-18915932D01*
X9282838Y-18668313D02*
X9301885Y-18668313D01*
X9320933Y-18677837D01*
X9330457Y-18687361D01*
X9339981Y-18706408D01*
X9349504Y-18744503D01*
X9349504Y-18792122D01*
X9339981Y-18830218D01*
X9330457Y-18849265D01*
X9320933Y-18858789D01*
X9301885Y-18868313D01*
X9282838Y-18868313D01*
X9263790Y-18858789D01*
X9254266Y-18849265D01*
X9244742Y-18830218D01*
X9235219Y-18792122D01*
X9235219Y-18744503D01*
X9244742Y-18706408D01*
X9254266Y-18687361D01*
X9263790Y-18677837D01*
X9282838Y-18668313D01*
X9435219Y-18849265D02*
X9444742Y-18858789D01*
X9435219Y-18868313D01*
X9425695Y-18858789D01*
X9435219Y-18849265D01*
X9435219Y-18868313D01*
X9568552Y-18668313D02*
X9587600Y-18668313D01*
X9606647Y-18677837D01*
X9616171Y-18687361D01*
X9625695Y-18706408D01*
X9635219Y-18744503D01*
X9635219Y-18792122D01*
X9625695Y-18830218D01*
X9616171Y-18849265D01*
X9606647Y-18858789D01*
X9587600Y-18868313D01*
X9568552Y-18868313D01*
X9549504Y-18858789D01*
X9539981Y-18849265D01*
X9530457Y-18830218D01*
X9520933Y-18792122D01*
X9520933Y-18744503D01*
X9530457Y-18706408D01*
X9539981Y-18687361D01*
X9549504Y-18677837D01*
X9568552Y-18668313D01*
X9749504Y-18754027D02*
X9730457Y-18744503D01*
X9720933Y-18734980D01*
X9711409Y-18715932D01*
X9711409Y-18706408D01*
X9720933Y-18687361D01*
X9730457Y-18677837D01*
X9749504Y-18668313D01*
X9787600Y-18668313D01*
X9806647Y-18677837D01*
X9816171Y-18687361D01*
X9825695Y-18706408D01*
X9825695Y-18715932D01*
X9816171Y-18734980D01*
X9806647Y-18744503D01*
X9787600Y-18754027D01*
X9749504Y-18754027D01*
X9730457Y-18763551D01*
X9720933Y-18773075D01*
X9711409Y-18792122D01*
X9711409Y-18830218D01*
X9720933Y-18849265D01*
X9730457Y-18858789D01*
X9749504Y-18868313D01*
X9787600Y-18868313D01*
X9806647Y-18858789D01*
X9816171Y-18849265D01*
X9825695Y-18830218D01*
X9825695Y-18792122D01*
X9816171Y-18773075D01*
X9806647Y-18763551D01*
X9787600Y-18754027D01*
X9997123Y-18668313D02*
X9959028Y-18668313D01*
X9939981Y-18677837D01*
X9930457Y-18687361D01*
X9911409Y-18715932D01*
X9901885Y-18754027D01*
X9901885Y-18830218D01*
X9911409Y-18849265D01*
X9920933Y-18858789D01*
X9939981Y-18868313D01*
X9978076Y-18868313D01*
X9997123Y-18858789D01*
X10006647Y-18849265D01*
X10016171Y-18830218D01*
X10016171Y-18782599D01*
X10006647Y-18763551D01*
X9997123Y-18754027D01*
X9978076Y-18744503D01*
X9939981Y-18744503D01*
X9920933Y-18754027D01*
X9911409Y-18763551D01*
X9901885Y-18782599D01*
X10187600Y-18668313D02*
X10149504Y-18668313D01*
X10130457Y-18677837D01*
X10120933Y-18687361D01*
X10101885Y-18715932D01*
X10092361Y-18754027D01*
X10092361Y-18830218D01*
X10101885Y-18849265D01*
X10111409Y-18858789D01*
X10130457Y-18868313D01*
X10168552Y-18868313D01*
X10187600Y-18858789D01*
X10197123Y-18849265D01*
X10206647Y-18830218D01*
X10206647Y-18782599D01*
X10197123Y-18763551D01*
X10187600Y-18754027D01*
X10168552Y-18744503D01*
X10130457Y-18744503D01*
X10111409Y-18754027D01*
X10101885Y-18763551D01*
X10092361Y-18782599D01*
X10282838Y-18668313D02*
X10282838Y-18706408D01*
X10359028Y-18668313D02*
X10359028Y-18706408D01*
X10654266Y-18944503D02*
X10644742Y-18934980D01*
X10625695Y-18906408D01*
X10616171Y-18887361D01*
X10606647Y-18858789D01*
X10597123Y-18811170D01*
X10597123Y-18773075D01*
X10606647Y-18725456D01*
X10616171Y-18696884D01*
X10625695Y-18677837D01*
X10644742Y-18649265D01*
X10654266Y-18639741D01*
X10835219Y-18868313D02*
X10720933Y-18868313D01*
X10778076Y-18868313D02*
X10778076Y-18668313D01*
X10759028Y-18696884D01*
X10739981Y-18715932D01*
X10720933Y-18725456D01*
X11073314Y-18868313D02*
X11073314Y-18668313D01*
X11159028Y-18868313D02*
X11159028Y-18763551D01*
X11149504Y-18744503D01*
X11130457Y-18734980D01*
X11101885Y-18734980D01*
X11082838Y-18744503D01*
X11073314Y-18754027D01*
X11282838Y-18868313D02*
X11263790Y-18858789D01*
X11254266Y-18849265D01*
X11244742Y-18830218D01*
X11244742Y-18773075D01*
X11254266Y-18754027D01*
X11263790Y-18744503D01*
X11282838Y-18734980D01*
X11311409Y-18734980D01*
X11330457Y-18744503D01*
X11339980Y-18754027D01*
X11349504Y-18773075D01*
X11349504Y-18830218D01*
X11339980Y-18849265D01*
X11330457Y-18858789D01*
X11311409Y-18868313D01*
X11282838Y-18868313D01*
X11463790Y-18868313D02*
X11444742Y-18858789D01*
X11435219Y-18839741D01*
X11435219Y-18668313D01*
X11616171Y-18858789D02*
X11597123Y-18868313D01*
X11559028Y-18868313D01*
X11539980Y-18858789D01*
X11530457Y-18839741D01*
X11530457Y-18763551D01*
X11539980Y-18744503D01*
X11559028Y-18734980D01*
X11597123Y-18734980D01*
X11616171Y-18744503D01*
X11625695Y-18763551D01*
X11625695Y-18782599D01*
X11530457Y-18801646D01*
X11692361Y-18944503D02*
X11701885Y-18934980D01*
X11720933Y-18906408D01*
X11730457Y-18887361D01*
X11739980Y-18858789D01*
X11749504Y-18811170D01*
X11749504Y-18773075D01*
X11739980Y-18725456D01*
X11730457Y-18696884D01*
X11720933Y-18677837D01*
X11701885Y-18649265D01*
X11692361Y-18639741D01*
X12054266Y-18944503D02*
X12044742Y-18934980D01*
X12025695Y-18906408D01*
X12016171Y-18887361D01*
X12006647Y-18858789D01*
X11997123Y-18811170D01*
X11997123Y-18773075D01*
X12006647Y-18725456D01*
X12016171Y-18696884D01*
X12025695Y-18677837D01*
X12044742Y-18649265D01*
X12054266Y-18639741D01*
X12130457Y-18734980D02*
X12130457Y-18868313D01*
X12130457Y-18754027D02*
X12139980Y-18744503D01*
X12159028Y-18734980D01*
X12187599Y-18734980D01*
X12206647Y-18744503D01*
X12216171Y-18763551D01*
X12216171Y-18868313D01*
X12339980Y-18868313D02*
X12320933Y-18858789D01*
X12311409Y-18849265D01*
X12301885Y-18830218D01*
X12301885Y-18773075D01*
X12311409Y-18754027D01*
X12320933Y-18744503D01*
X12339980Y-18734980D01*
X12368552Y-18734980D01*
X12387599Y-18744503D01*
X12397123Y-18754027D01*
X12406647Y-18773075D01*
X12406647Y-18830218D01*
X12397123Y-18849265D01*
X12387599Y-18858789D01*
X12368552Y-18868313D01*
X12339980Y-18868313D01*
X12463790Y-18734980D02*
X12539980Y-18734980D01*
X12492361Y-18668313D02*
X12492361Y-18839741D01*
X12501885Y-18858789D01*
X12520933Y-18868313D01*
X12539980Y-18868313D01*
X12759028Y-18734980D02*
X12759028Y-18934980D01*
X12759028Y-18744503D02*
X12778076Y-18734980D01*
X12816171Y-18734980D01*
X12835219Y-18744503D01*
X12844742Y-18754027D01*
X12854266Y-18773075D01*
X12854266Y-18830218D01*
X12844742Y-18849265D01*
X12835219Y-18858789D01*
X12816171Y-18868313D01*
X12778076Y-18868313D01*
X12759028Y-18858789D01*
X12968552Y-18868313D02*
X12949504Y-18858789D01*
X12939980Y-18839741D01*
X12939980Y-18668313D01*
X13130457Y-18868313D02*
X13130457Y-18763551D01*
X13120933Y-18744503D01*
X13101885Y-18734980D01*
X13063790Y-18734980D01*
X13044742Y-18744503D01*
X13130457Y-18858789D02*
X13111409Y-18868313D01*
X13063790Y-18868313D01*
X13044742Y-18858789D01*
X13035219Y-18839741D01*
X13035219Y-18820694D01*
X13044742Y-18801646D01*
X13063790Y-18792122D01*
X13111409Y-18792122D01*
X13130457Y-18782599D01*
X13197123Y-18734980D02*
X13273314Y-18734980D01*
X13225695Y-18668313D02*
X13225695Y-18839741D01*
X13235219Y-18858789D01*
X13254266Y-18868313D01*
X13273314Y-18868313D01*
X13416171Y-18858789D02*
X13397123Y-18868313D01*
X13359028Y-18868313D01*
X13339980Y-18858789D01*
X13330457Y-18839741D01*
X13330457Y-18763551D01*
X13339980Y-18744503D01*
X13359028Y-18734980D01*
X13397123Y-18734980D01*
X13416171Y-18744503D01*
X13425695Y-18763551D01*
X13425695Y-18782599D01*
X13330457Y-18801646D01*
X13597123Y-18868313D02*
X13597123Y-18668313D01*
X13597123Y-18858789D02*
X13578076Y-18868313D01*
X13539980Y-18868313D01*
X13520933Y-18858789D01*
X13511409Y-18849265D01*
X13501885Y-18830218D01*
X13501885Y-18773075D01*
X13511409Y-18754027D01*
X13520933Y-18744503D01*
X13539980Y-18734980D01*
X13578076Y-18734980D01*
X13597123Y-18744503D01*
X13673314Y-18944503D02*
X13682838Y-18934980D01*
X13701885Y-18906408D01*
X13711409Y-18887361D01*
X13720933Y-18858789D01*
X13730457Y-18811170D01*
X13730457Y-18773075D01*
X13720933Y-18725456D01*
X13711409Y-18696884D01*
X13701885Y-18677837D01*
X13682838Y-18649265D01*
X13673314Y-18639741D01*
X6882361Y-18997837D02*
X7082361Y-19197837D01*
X7082361Y-18997837D02*
X6882361Y-19197837D01*
X6982361Y-18997837D02*
X6982361Y-19197837D01*
X6882361Y-19097837D02*
X7082361Y-19097837D01*
X7320933Y-18988313D02*
X7444742Y-18988313D01*
X7378076Y-19064503D01*
X7406647Y-19064503D01*
X7425695Y-19074027D01*
X7435219Y-19083551D01*
X7444742Y-19102599D01*
X7444742Y-19150218D01*
X7435219Y-19169265D01*
X7425695Y-19178789D01*
X7406647Y-19188313D01*
X7349504Y-19188313D01*
X7330457Y-19178789D01*
X7320933Y-19169265D01*
X7530457Y-19169265D02*
X7539980Y-19178789D01*
X7530457Y-19188313D01*
X7520933Y-19178789D01*
X7530457Y-19169265D01*
X7530457Y-19188313D01*
X7663790Y-18988313D02*
X7682838Y-18988313D01*
X7701885Y-18997837D01*
X7711409Y-19007361D01*
X7720933Y-19026408D01*
X7730457Y-19064503D01*
X7730457Y-19112122D01*
X7720933Y-19150218D01*
X7711409Y-19169265D01*
X7701885Y-19178789D01*
X7682838Y-19188313D01*
X7663790Y-19188313D01*
X7644742Y-19178789D01*
X7635219Y-19169265D01*
X7625695Y-19150218D01*
X7616171Y-19112122D01*
X7616171Y-19064503D01*
X7625695Y-19026408D01*
X7635219Y-19007361D01*
X7644742Y-18997837D01*
X7663790Y-18988313D01*
X7854266Y-18988313D02*
X7873314Y-18988313D01*
X7892361Y-18997837D01*
X7901885Y-19007361D01*
X7911409Y-19026408D01*
X7920933Y-19064503D01*
X7920933Y-19112122D01*
X7911409Y-19150218D01*
X7901885Y-19169265D01*
X7892361Y-19178789D01*
X7873314Y-19188313D01*
X7854266Y-19188313D01*
X7835219Y-19178789D01*
X7825695Y-19169265D01*
X7816171Y-19150218D01*
X7806647Y-19112122D01*
X7806647Y-19064503D01*
X7816171Y-19026408D01*
X7825695Y-19007361D01*
X7835219Y-18997837D01*
X7854266Y-18988313D01*
X8044742Y-18988313D02*
X8063790Y-18988313D01*
X8082838Y-18997837D01*
X8092361Y-19007361D01*
X8101885Y-19026408D01*
X8111409Y-19064503D01*
X8111409Y-19112122D01*
X8101885Y-19150218D01*
X8092361Y-19169265D01*
X8082838Y-19178789D01*
X8063790Y-19188313D01*
X8044742Y-19188313D01*
X8025695Y-19178789D01*
X8016171Y-19169265D01*
X8006647Y-19150218D01*
X7997123Y-19112122D01*
X7997123Y-19064503D01*
X8006647Y-19026408D01*
X8016171Y-19007361D01*
X8025695Y-18997837D01*
X8044742Y-18988313D01*
X8197123Y-19188313D02*
X8197123Y-19054980D01*
X8197123Y-19074027D02*
X8206647Y-19064503D01*
X8225695Y-19054980D01*
X8254266Y-19054980D01*
X8273314Y-19064503D01*
X8282838Y-19083551D01*
X8282838Y-19188313D01*
X8282838Y-19083551D02*
X8292361Y-19064503D01*
X8311409Y-19054980D01*
X8339980Y-19054980D01*
X8359028Y-19064503D01*
X8368552Y-19083551D01*
X8368552Y-19188313D01*
X8463790Y-19188313D02*
X8463790Y-19054980D01*
X8463790Y-19074027D02*
X8473314Y-19064503D01*
X8492362Y-19054980D01*
X8520933Y-19054980D01*
X8539981Y-19064503D01*
X8549504Y-19083551D01*
X8549504Y-19188313D01*
X8549504Y-19083551D02*
X8559028Y-19064503D01*
X8578076Y-19054980D01*
X8606647Y-19054980D01*
X8625695Y-19064503D01*
X8635219Y-19083551D01*
X8635219Y-19188313D01*
X9025695Y-18978789D02*
X8854266Y-19235932D01*
X9282838Y-18988313D02*
X9301885Y-18988313D01*
X9320933Y-18997837D01*
X9330457Y-19007361D01*
X9339981Y-19026408D01*
X9349504Y-19064503D01*
X9349504Y-19112122D01*
X9339981Y-19150218D01*
X9330457Y-19169265D01*
X9320933Y-19178789D01*
X9301885Y-19188313D01*
X9282838Y-19188313D01*
X9263790Y-19178789D01*
X9254266Y-19169265D01*
X9244742Y-19150218D01*
X9235219Y-19112122D01*
X9235219Y-19064503D01*
X9244742Y-19026408D01*
X9254266Y-19007361D01*
X9263790Y-18997837D01*
X9282838Y-18988313D01*
X9435219Y-19169265D02*
X9444742Y-19178789D01*
X9435219Y-19188313D01*
X9425695Y-19178789D01*
X9435219Y-19169265D01*
X9435219Y-19188313D01*
X9635219Y-19188313D02*
X9520933Y-19188313D01*
X9578076Y-19188313D02*
X9578076Y-18988313D01*
X9559028Y-19016884D01*
X9539981Y-19035932D01*
X9520933Y-19045456D01*
X9825695Y-19188313D02*
X9711409Y-19188313D01*
X9768552Y-19188313D02*
X9768552Y-18988313D01*
X9749504Y-19016884D01*
X9730457Y-19035932D01*
X9711409Y-19045456D01*
X9939981Y-19074027D02*
X9920933Y-19064503D01*
X9911409Y-19054980D01*
X9901885Y-19035932D01*
X9901885Y-19026408D01*
X9911409Y-19007361D01*
X9920933Y-18997837D01*
X9939981Y-18988313D01*
X9978076Y-18988313D01*
X9997123Y-18997837D01*
X10006647Y-19007361D01*
X10016171Y-19026408D01*
X10016171Y-19035932D01*
X10006647Y-19054980D01*
X9997123Y-19064503D01*
X9978076Y-19074027D01*
X9939981Y-19074027D01*
X9920933Y-19083551D01*
X9911409Y-19093075D01*
X9901885Y-19112122D01*
X9901885Y-19150218D01*
X9911409Y-19169265D01*
X9920933Y-19178789D01*
X9939981Y-19188313D01*
X9978076Y-19188313D01*
X9997123Y-19178789D01*
X10006647Y-19169265D01*
X10016171Y-19150218D01*
X10016171Y-19112122D01*
X10006647Y-19093075D01*
X9997123Y-19083551D01*
X9978076Y-19074027D01*
X10206647Y-19188313D02*
X10092361Y-19188313D01*
X10149504Y-19188313D02*
X10149504Y-18988313D01*
X10130457Y-19016884D01*
X10111409Y-19035932D01*
X10092361Y-19045456D01*
X10282838Y-18988313D02*
X10282838Y-19026408D01*
X10359028Y-18988313D02*
X10359028Y-19026408D01*
X10654266Y-19264503D02*
X10644742Y-19254980D01*
X10625695Y-19226408D01*
X10616171Y-19207361D01*
X10606647Y-19178789D01*
X10597123Y-19131170D01*
X10597123Y-19093075D01*
X10606647Y-19045456D01*
X10616171Y-19016884D01*
X10625695Y-18997837D01*
X10644742Y-18969265D01*
X10654266Y-18959741D01*
X10759028Y-19074027D02*
X10739981Y-19064503D01*
X10730457Y-19054980D01*
X10720933Y-19035932D01*
X10720933Y-19026408D01*
X10730457Y-19007361D01*
X10739981Y-18997837D01*
X10759028Y-18988313D01*
X10797123Y-18988313D01*
X10816171Y-18997837D01*
X10825695Y-19007361D01*
X10835219Y-19026408D01*
X10835219Y-19035932D01*
X10825695Y-19054980D01*
X10816171Y-19064503D01*
X10797123Y-19074027D01*
X10759028Y-19074027D01*
X10739981Y-19083551D01*
X10730457Y-19093075D01*
X10720933Y-19112122D01*
X10720933Y-19150218D01*
X10730457Y-19169265D01*
X10739981Y-19178789D01*
X10759028Y-19188313D01*
X10797123Y-19188313D01*
X10816171Y-19178789D01*
X10825695Y-19169265D01*
X10835219Y-19150218D01*
X10835219Y-19112122D01*
X10825695Y-19093075D01*
X10816171Y-19083551D01*
X10797123Y-19074027D01*
X11006647Y-19054980D02*
X11006647Y-19188313D01*
X10959028Y-18978789D02*
X10911409Y-19121646D01*
X11035219Y-19121646D01*
X11263790Y-19188313D02*
X11263790Y-18988313D01*
X11349504Y-19188313D02*
X11349504Y-19083551D01*
X11339980Y-19064503D01*
X11320933Y-19054980D01*
X11292361Y-19054980D01*
X11273314Y-19064503D01*
X11263790Y-19074027D01*
X11473314Y-19188313D02*
X11454266Y-19178789D01*
X11444742Y-19169265D01*
X11435219Y-19150218D01*
X11435219Y-19093075D01*
X11444742Y-19074027D01*
X11454266Y-19064503D01*
X11473314Y-19054980D01*
X11501885Y-19054980D01*
X11520933Y-19064503D01*
X11530457Y-19074027D01*
X11539980Y-19093075D01*
X11539980Y-19150218D01*
X11530457Y-19169265D01*
X11520933Y-19178789D01*
X11501885Y-19188313D01*
X11473314Y-19188313D01*
X11654266Y-19188313D02*
X11635219Y-19178789D01*
X11625695Y-19159741D01*
X11625695Y-18988313D01*
X11806647Y-19178789D02*
X11787599Y-19188313D01*
X11749504Y-19188313D01*
X11730457Y-19178789D01*
X11720933Y-19159741D01*
X11720933Y-19083551D01*
X11730457Y-19064503D01*
X11749504Y-19054980D01*
X11787599Y-19054980D01*
X11806647Y-19064503D01*
X11816171Y-19083551D01*
X11816171Y-19102599D01*
X11720933Y-19121646D01*
X11892361Y-19178789D02*
X11911409Y-19188313D01*
X11949504Y-19188313D01*
X11968552Y-19178789D01*
X11978076Y-19159741D01*
X11978076Y-19150218D01*
X11968552Y-19131170D01*
X11949504Y-19121646D01*
X11920933Y-19121646D01*
X11901885Y-19112122D01*
X11892361Y-19093075D01*
X11892361Y-19083551D01*
X11901885Y-19064503D01*
X11920933Y-19054980D01*
X11949504Y-19054980D01*
X11968552Y-19064503D01*
X12044742Y-19264503D02*
X12054266Y-19254980D01*
X12073314Y-19226408D01*
X12082838Y-19207361D01*
X12092361Y-19178789D01*
X12101885Y-19131170D01*
X12101885Y-19093075D01*
X12092361Y-19045456D01*
X12082838Y-19016884D01*
X12073314Y-18997837D01*
X12054266Y-18969265D01*
X12044742Y-18959741D01*
X12406647Y-19264503D02*
X12397123Y-19254980D01*
X12378076Y-19226408D01*
X12368552Y-19207361D01*
X12359028Y-19178789D01*
X12349504Y-19131170D01*
X12349504Y-19093075D01*
X12359028Y-19045456D01*
X12368552Y-19016884D01*
X12378076Y-18997837D01*
X12397123Y-18969265D01*
X12406647Y-18959741D01*
X12482838Y-19054980D02*
X12482838Y-19188313D01*
X12482838Y-19074027D02*
X12492361Y-19064503D01*
X12511409Y-19054980D01*
X12539980Y-19054980D01*
X12559028Y-19064503D01*
X12568552Y-19083551D01*
X12568552Y-19188313D01*
X12692361Y-19188313D02*
X12673314Y-19178789D01*
X12663790Y-19169265D01*
X12654266Y-19150218D01*
X12654266Y-19093075D01*
X12663790Y-19074027D01*
X12673314Y-19064503D01*
X12692361Y-19054980D01*
X12720933Y-19054980D01*
X12739980Y-19064503D01*
X12749504Y-19074027D01*
X12759028Y-19093075D01*
X12759028Y-19150218D01*
X12749504Y-19169265D01*
X12739980Y-19178789D01*
X12720933Y-19188313D01*
X12692361Y-19188313D01*
X12816171Y-19054980D02*
X12892361Y-19054980D01*
X12844742Y-18988313D02*
X12844742Y-19159741D01*
X12854266Y-19178789D01*
X12873314Y-19188313D01*
X12892361Y-19188313D01*
X13111409Y-19054980D02*
X13111409Y-19254980D01*
X13111409Y-19064503D02*
X13130457Y-19054980D01*
X13168552Y-19054980D01*
X13187599Y-19064503D01*
X13197123Y-19074027D01*
X13206647Y-19093075D01*
X13206647Y-19150218D01*
X13197123Y-19169265D01*
X13187599Y-19178789D01*
X13168552Y-19188313D01*
X13130457Y-19188313D01*
X13111409Y-19178789D01*
X13320933Y-19188313D02*
X13301885Y-19178789D01*
X13292361Y-19159741D01*
X13292361Y-18988313D01*
X13482838Y-19188313D02*
X13482838Y-19083551D01*
X13473314Y-19064503D01*
X13454266Y-19054980D01*
X13416171Y-19054980D01*
X13397123Y-19064503D01*
X13482838Y-19178789D02*
X13463790Y-19188313D01*
X13416171Y-19188313D01*
X13397123Y-19178789D01*
X13387599Y-19159741D01*
X13387599Y-19140694D01*
X13397123Y-19121646D01*
X13416171Y-19112122D01*
X13463790Y-19112122D01*
X13482838Y-19102599D01*
X13549504Y-19054980D02*
X13625695Y-19054980D01*
X13578076Y-18988313D02*
X13578076Y-19159741D01*
X13587599Y-19178789D01*
X13606647Y-19188313D01*
X13625695Y-19188313D01*
X13768552Y-19178789D02*
X13749504Y-19188313D01*
X13711409Y-19188313D01*
X13692361Y-19178789D01*
X13682838Y-19159741D01*
X13682838Y-19083551D01*
X13692361Y-19064503D01*
X13711409Y-19054980D01*
X13749504Y-19054980D01*
X13768552Y-19064503D01*
X13778076Y-19083551D01*
X13778076Y-19102599D01*
X13682838Y-19121646D01*
X13949504Y-19188313D02*
X13949504Y-18988313D01*
X13949504Y-19178789D02*
X13930457Y-19188313D01*
X13892361Y-19188313D01*
X13873314Y-19178789D01*
X13863790Y-19169265D01*
X13854266Y-19150218D01*
X13854266Y-19093075D01*
X13863790Y-19074027D01*
X13873314Y-19064503D01*
X13892361Y-19054980D01*
X13930457Y-19054980D01*
X13949504Y-19064503D01*
X14025695Y-19264503D02*
X14035219Y-19254980D01*
X14054266Y-19226408D01*
X14063790Y-19207361D01*
X14073314Y-19178789D01*
X14082838Y-19131170D01*
X14082838Y-19093075D01*
X14073314Y-19045456D01*
X14063790Y-19016884D01*
X14054266Y-18997837D01*
X14035219Y-18969265D01*
X14025695Y-18959741D01*
X6882361Y-19317837D02*
X7082361Y-19517837D01*
X7082361Y-19317837D02*
X6882361Y-19517837D01*
X7053073Y-19488548D02*
X7053073Y-19347125D01*
X6911650Y-19347125D01*
X6911650Y-19488548D01*
X7053073Y-19488548D01*
X7320933Y-19308313D02*
X7444742Y-19308313D01*
X7378076Y-19384503D01*
X7406647Y-19384503D01*
X7425695Y-19394027D01*
X7435219Y-19403551D01*
X7444742Y-19422599D01*
X7444742Y-19470218D01*
X7435219Y-19489265D01*
X7425695Y-19498789D01*
X7406647Y-19508313D01*
X7349504Y-19508313D01*
X7330457Y-19498789D01*
X7320933Y-19489265D01*
X7530457Y-19489265D02*
X7539980Y-19498789D01*
X7530457Y-19508313D01*
X7520933Y-19498789D01*
X7530457Y-19489265D01*
X7530457Y-19508313D01*
X7616171Y-19327361D02*
X7625695Y-19317837D01*
X7644742Y-19308313D01*
X7692361Y-19308313D01*
X7711409Y-19317837D01*
X7720933Y-19327361D01*
X7730457Y-19346408D01*
X7730457Y-19365456D01*
X7720933Y-19394027D01*
X7606647Y-19508313D01*
X7730457Y-19508313D01*
X7854266Y-19308313D02*
X7873314Y-19308313D01*
X7892361Y-19317837D01*
X7901885Y-19327361D01*
X7911409Y-19346408D01*
X7920933Y-19384503D01*
X7920933Y-19432122D01*
X7911409Y-19470218D01*
X7901885Y-19489265D01*
X7892361Y-19498789D01*
X7873314Y-19508313D01*
X7854266Y-19508313D01*
X7835219Y-19498789D01*
X7825695Y-19489265D01*
X7816171Y-19470218D01*
X7806647Y-19432122D01*
X7806647Y-19384503D01*
X7816171Y-19346408D01*
X7825695Y-19327361D01*
X7835219Y-19317837D01*
X7854266Y-19308313D01*
X8044742Y-19308313D02*
X8063790Y-19308313D01*
X8082838Y-19317837D01*
X8092361Y-19327361D01*
X8101885Y-19346408D01*
X8111409Y-19384503D01*
X8111409Y-19432122D01*
X8101885Y-19470218D01*
X8092361Y-19489265D01*
X8082838Y-19498789D01*
X8063790Y-19508313D01*
X8044742Y-19508313D01*
X8025695Y-19498789D01*
X8016171Y-19489265D01*
X8006647Y-19470218D01*
X7997123Y-19432122D01*
X7997123Y-19384503D01*
X8006647Y-19346408D01*
X8016171Y-19327361D01*
X8025695Y-19317837D01*
X8044742Y-19308313D01*
X8197123Y-19508313D02*
X8197123Y-19374980D01*
X8197123Y-19394027D02*
X8206647Y-19384503D01*
X8225695Y-19374980D01*
X8254266Y-19374980D01*
X8273314Y-19384503D01*
X8282838Y-19403551D01*
X8282838Y-19508313D01*
X8282838Y-19403551D02*
X8292361Y-19384503D01*
X8311409Y-19374980D01*
X8339980Y-19374980D01*
X8359028Y-19384503D01*
X8368552Y-19403551D01*
X8368552Y-19508313D01*
X8463790Y-19508313D02*
X8463790Y-19374980D01*
X8463790Y-19394027D02*
X8473314Y-19384503D01*
X8492362Y-19374980D01*
X8520933Y-19374980D01*
X8539981Y-19384503D01*
X8549504Y-19403551D01*
X8549504Y-19508313D01*
X8549504Y-19403551D02*
X8559028Y-19384503D01*
X8578076Y-19374980D01*
X8606647Y-19374980D01*
X8625695Y-19384503D01*
X8635219Y-19403551D01*
X8635219Y-19508313D01*
X9025695Y-19298789D02*
X8854266Y-19555932D01*
X9282838Y-19308313D02*
X9301885Y-19308313D01*
X9320933Y-19317837D01*
X9330457Y-19327361D01*
X9339981Y-19346408D01*
X9349504Y-19384503D01*
X9349504Y-19432122D01*
X9339981Y-19470218D01*
X9330457Y-19489265D01*
X9320933Y-19498789D01*
X9301885Y-19508313D01*
X9282838Y-19508313D01*
X9263790Y-19498789D01*
X9254266Y-19489265D01*
X9244742Y-19470218D01*
X9235219Y-19432122D01*
X9235219Y-19384503D01*
X9244742Y-19346408D01*
X9254266Y-19327361D01*
X9263790Y-19317837D01*
X9282838Y-19308313D01*
X9435219Y-19489265D02*
X9444742Y-19498789D01*
X9435219Y-19508313D01*
X9425695Y-19498789D01*
X9435219Y-19489265D01*
X9435219Y-19508313D01*
X9635219Y-19508313D02*
X9520933Y-19508313D01*
X9578076Y-19508313D02*
X9578076Y-19308313D01*
X9559028Y-19336884D01*
X9539981Y-19355932D01*
X9520933Y-19365456D01*
X9711409Y-19327361D02*
X9720933Y-19317837D01*
X9739981Y-19308313D01*
X9787600Y-19308313D01*
X9806647Y-19317837D01*
X9816171Y-19327361D01*
X9825695Y-19346408D01*
X9825695Y-19365456D01*
X9816171Y-19394027D01*
X9701885Y-19508313D01*
X9825695Y-19508313D01*
X9997123Y-19308313D02*
X9959028Y-19308313D01*
X9939981Y-19317837D01*
X9930457Y-19327361D01*
X9911409Y-19355932D01*
X9901885Y-19394027D01*
X9901885Y-19470218D01*
X9911409Y-19489265D01*
X9920933Y-19498789D01*
X9939981Y-19508313D01*
X9978076Y-19508313D01*
X9997123Y-19498789D01*
X10006647Y-19489265D01*
X10016171Y-19470218D01*
X10016171Y-19422599D01*
X10006647Y-19403551D01*
X9997123Y-19394027D01*
X9978076Y-19384503D01*
X9939981Y-19384503D01*
X9920933Y-19394027D01*
X9911409Y-19403551D01*
X9901885Y-19422599D01*
X10139981Y-19308313D02*
X10159028Y-19308313D01*
X10178076Y-19317837D01*
X10187600Y-19327361D01*
X10197123Y-19346408D01*
X10206647Y-19384503D01*
X10206647Y-19432122D01*
X10197123Y-19470218D01*
X10187600Y-19489265D01*
X10178076Y-19498789D01*
X10159028Y-19508313D01*
X10139981Y-19508313D01*
X10120933Y-19498789D01*
X10111409Y-19489265D01*
X10101885Y-19470218D01*
X10092361Y-19432122D01*
X10092361Y-19384503D01*
X10101885Y-19346408D01*
X10111409Y-19327361D01*
X10120933Y-19317837D01*
X10139981Y-19308313D01*
X10282838Y-19308313D02*
X10282838Y-19346408D01*
X10359028Y-19308313D02*
X10359028Y-19346408D01*
X10654266Y-19584503D02*
X10644742Y-19574980D01*
X10625695Y-19546408D01*
X10616171Y-19527361D01*
X10606647Y-19498789D01*
X10597123Y-19451170D01*
X10597123Y-19413075D01*
X10606647Y-19365456D01*
X10616171Y-19336884D01*
X10625695Y-19317837D01*
X10644742Y-19289265D01*
X10654266Y-19279741D01*
X10759028Y-19394027D02*
X10739981Y-19384503D01*
X10730457Y-19374980D01*
X10720933Y-19355932D01*
X10720933Y-19346408D01*
X10730457Y-19327361D01*
X10739981Y-19317837D01*
X10759028Y-19308313D01*
X10797123Y-19308313D01*
X10816171Y-19317837D01*
X10825695Y-19327361D01*
X10835219Y-19346408D01*
X10835219Y-19355932D01*
X10825695Y-19374980D01*
X10816171Y-19384503D01*
X10797123Y-19394027D01*
X10759028Y-19394027D01*
X10739981Y-19403551D01*
X10730457Y-19413075D01*
X10720933Y-19432122D01*
X10720933Y-19470218D01*
X10730457Y-19489265D01*
X10739981Y-19498789D01*
X10759028Y-19508313D01*
X10797123Y-19508313D01*
X10816171Y-19498789D01*
X10825695Y-19489265D01*
X10835219Y-19470218D01*
X10835219Y-19432122D01*
X10825695Y-19413075D01*
X10816171Y-19403551D01*
X10797123Y-19394027D01*
X11073314Y-19508313D02*
X11073314Y-19308313D01*
X11159028Y-19508313D02*
X11159028Y-19403551D01*
X11149504Y-19384503D01*
X11130457Y-19374980D01*
X11101885Y-19374980D01*
X11082838Y-19384503D01*
X11073314Y-19394027D01*
X11282838Y-19508313D02*
X11263790Y-19498789D01*
X11254266Y-19489265D01*
X11244742Y-19470218D01*
X11244742Y-19413075D01*
X11254266Y-19394027D01*
X11263790Y-19384503D01*
X11282838Y-19374980D01*
X11311409Y-19374980D01*
X11330457Y-19384503D01*
X11339980Y-19394027D01*
X11349504Y-19413075D01*
X11349504Y-19470218D01*
X11339980Y-19489265D01*
X11330457Y-19498789D01*
X11311409Y-19508313D01*
X11282838Y-19508313D01*
X11463790Y-19508313D02*
X11444742Y-19498789D01*
X11435219Y-19479741D01*
X11435219Y-19308313D01*
X11616171Y-19498789D02*
X11597123Y-19508313D01*
X11559028Y-19508313D01*
X11539980Y-19498789D01*
X11530457Y-19479741D01*
X11530457Y-19403551D01*
X11539980Y-19384503D01*
X11559028Y-19374980D01*
X11597123Y-19374980D01*
X11616171Y-19384503D01*
X11625695Y-19403551D01*
X11625695Y-19422599D01*
X11530457Y-19441646D01*
X11701885Y-19498789D02*
X11720933Y-19508313D01*
X11759028Y-19508313D01*
X11778076Y-19498789D01*
X11787599Y-19479741D01*
X11787599Y-19470218D01*
X11778076Y-19451170D01*
X11759028Y-19441646D01*
X11730457Y-19441646D01*
X11711409Y-19432122D01*
X11701885Y-19413075D01*
X11701885Y-19403551D01*
X11711409Y-19384503D01*
X11730457Y-19374980D01*
X11759028Y-19374980D01*
X11778076Y-19384503D01*
X11854266Y-19584503D02*
X11863790Y-19574980D01*
X11882838Y-19546408D01*
X11892361Y-19527361D01*
X11901885Y-19498789D01*
X11911409Y-19451170D01*
X11911409Y-19413075D01*
X11901885Y-19365456D01*
X11892361Y-19336884D01*
X11882838Y-19317837D01*
X11863790Y-19289265D01*
X11854266Y-19279741D01*
X12216171Y-19584503D02*
X12206647Y-19574980D01*
X12187599Y-19546408D01*
X12178076Y-19527361D01*
X12168552Y-19498789D01*
X12159028Y-19451170D01*
X12159028Y-19413075D01*
X12168552Y-19365456D01*
X12178076Y-19336884D01*
X12187599Y-19317837D01*
X12206647Y-19289265D01*
X12216171Y-19279741D01*
X12292361Y-19374980D02*
X12292361Y-19508313D01*
X12292361Y-19394027D02*
X12301885Y-19384503D01*
X12320933Y-19374980D01*
X12349504Y-19374980D01*
X12368552Y-19384503D01*
X12378076Y-19403551D01*
X12378076Y-19508313D01*
X12501885Y-19508313D02*
X12482838Y-19498789D01*
X12473314Y-19489265D01*
X12463790Y-19470218D01*
X12463790Y-19413075D01*
X12473314Y-19394027D01*
X12482838Y-19384503D01*
X12501885Y-19374980D01*
X12530457Y-19374980D01*
X12549504Y-19384503D01*
X12559028Y-19394027D01*
X12568552Y-19413075D01*
X12568552Y-19470218D01*
X12559028Y-19489265D01*
X12549504Y-19498789D01*
X12530457Y-19508313D01*
X12501885Y-19508313D01*
X12625695Y-19374980D02*
X12701885Y-19374980D01*
X12654266Y-19308313D02*
X12654266Y-19479741D01*
X12663790Y-19498789D01*
X12682838Y-19508313D01*
X12701885Y-19508313D01*
X12920933Y-19374980D02*
X12920933Y-19574980D01*
X12920933Y-19384503D02*
X12939980Y-19374980D01*
X12978076Y-19374980D01*
X12997123Y-19384503D01*
X13006647Y-19394027D01*
X13016171Y-19413075D01*
X13016171Y-19470218D01*
X13006647Y-19489265D01*
X12997123Y-19498789D01*
X12978076Y-19508313D01*
X12939980Y-19508313D01*
X12920933Y-19498789D01*
X13130457Y-19508313D02*
X13111409Y-19498789D01*
X13101885Y-19479741D01*
X13101885Y-19308313D01*
X13292361Y-19508313D02*
X13292361Y-19403551D01*
X13282838Y-19384503D01*
X13263790Y-19374980D01*
X13225695Y-19374980D01*
X13206647Y-19384503D01*
X13292361Y-19498789D02*
X13273314Y-19508313D01*
X13225695Y-19508313D01*
X13206647Y-19498789D01*
X13197123Y-19479741D01*
X13197123Y-19460694D01*
X13206647Y-19441646D01*
X13225695Y-19432122D01*
X13273314Y-19432122D01*
X13292361Y-19422599D01*
X13359028Y-19374980D02*
X13435219Y-19374980D01*
X13387599Y-19308313D02*
X13387599Y-19479741D01*
X13397123Y-19498789D01*
X13416171Y-19508313D01*
X13435219Y-19508313D01*
X13578076Y-19498789D02*
X13559028Y-19508313D01*
X13520933Y-19508313D01*
X13501885Y-19498789D01*
X13492361Y-19479741D01*
X13492361Y-19403551D01*
X13501885Y-19384503D01*
X13520933Y-19374980D01*
X13559028Y-19374980D01*
X13578076Y-19384503D01*
X13587599Y-19403551D01*
X13587599Y-19422599D01*
X13492361Y-19441646D01*
X13759028Y-19508313D02*
X13759028Y-19308313D01*
X13759028Y-19498789D02*
X13739980Y-19508313D01*
X13701885Y-19508313D01*
X13682838Y-19498789D01*
X13673314Y-19489265D01*
X13663790Y-19470218D01*
X13663790Y-19413075D01*
X13673314Y-19394027D01*
X13682838Y-19384503D01*
X13701885Y-19374980D01*
X13739980Y-19374980D01*
X13759028Y-19384503D01*
X13835219Y-19584503D02*
X13844742Y-19574980D01*
X13863790Y-19546408D01*
X13873314Y-19527361D01*
X13882838Y-19498789D01*
X13892361Y-19451170D01*
X13892361Y-19413075D01*
X13882838Y-19365456D01*
X13873314Y-19336884D01*
X13863790Y-19317837D01*
X13844742Y-19289265D01*
X13835219Y-19279741D01*
X6882361Y-19637837D02*
X7082361Y-19837837D01*
X7082361Y-19637837D02*
X6882361Y-19837837D01*
X6982361Y-19837837D02*
X7082361Y-19737837D01*
X6982361Y-19637837D01*
X6882361Y-19737837D01*
X6982361Y-19837837D01*
X7425695Y-19694980D02*
X7425695Y-19828313D01*
X7378076Y-19618789D02*
X7330457Y-19761646D01*
X7454266Y-19761646D01*
X7530457Y-19809265D02*
X7539980Y-19818789D01*
X7530457Y-19828313D01*
X7520933Y-19818789D01*
X7530457Y-19809265D01*
X7530457Y-19828313D01*
X7730457Y-19828313D02*
X7616171Y-19828313D01*
X7673314Y-19828313D02*
X7673314Y-19628313D01*
X7654266Y-19656884D01*
X7635219Y-19675932D01*
X7616171Y-19685456D01*
X7854266Y-19628313D02*
X7873314Y-19628313D01*
X7892361Y-19637837D01*
X7901885Y-19647361D01*
X7911409Y-19666408D01*
X7920933Y-19704503D01*
X7920933Y-19752122D01*
X7911409Y-19790218D01*
X7901885Y-19809265D01*
X7892361Y-19818789D01*
X7873314Y-19828313D01*
X7854266Y-19828313D01*
X7835219Y-19818789D01*
X7825695Y-19809265D01*
X7816171Y-19790218D01*
X7806647Y-19752122D01*
X7806647Y-19704503D01*
X7816171Y-19666408D01*
X7825695Y-19647361D01*
X7835219Y-19637837D01*
X7854266Y-19628313D01*
X8044742Y-19628313D02*
X8063790Y-19628313D01*
X8082838Y-19637837D01*
X8092361Y-19647361D01*
X8101885Y-19666408D01*
X8111409Y-19704503D01*
X8111409Y-19752122D01*
X8101885Y-19790218D01*
X8092361Y-19809265D01*
X8082838Y-19818789D01*
X8063790Y-19828313D01*
X8044742Y-19828313D01*
X8025695Y-19818789D01*
X8016171Y-19809265D01*
X8006647Y-19790218D01*
X7997123Y-19752122D01*
X7997123Y-19704503D01*
X8006647Y-19666408D01*
X8016171Y-19647361D01*
X8025695Y-19637837D01*
X8044742Y-19628313D01*
X8197123Y-19828313D02*
X8197123Y-19694980D01*
X8197123Y-19714027D02*
X8206647Y-19704503D01*
X8225695Y-19694980D01*
X8254266Y-19694980D01*
X8273314Y-19704503D01*
X8282838Y-19723551D01*
X8282838Y-19828313D01*
X8282838Y-19723551D02*
X8292361Y-19704503D01*
X8311409Y-19694980D01*
X8339980Y-19694980D01*
X8359028Y-19704503D01*
X8368552Y-19723551D01*
X8368552Y-19828313D01*
X8463790Y-19828313D02*
X8463790Y-19694980D01*
X8463790Y-19714027D02*
X8473314Y-19704503D01*
X8492362Y-19694980D01*
X8520933Y-19694980D01*
X8539981Y-19704503D01*
X8549504Y-19723551D01*
X8549504Y-19828313D01*
X8549504Y-19723551D02*
X8559028Y-19704503D01*
X8578076Y-19694980D01*
X8606647Y-19694980D01*
X8625695Y-19704503D01*
X8635219Y-19723551D01*
X8635219Y-19828313D01*
X9025695Y-19618789D02*
X8854266Y-19875932D01*
X9282838Y-19628313D02*
X9301885Y-19628313D01*
X9320933Y-19637837D01*
X9330457Y-19647361D01*
X9339981Y-19666408D01*
X9349504Y-19704503D01*
X9349504Y-19752122D01*
X9339981Y-19790218D01*
X9330457Y-19809265D01*
X9320933Y-19818789D01*
X9301885Y-19828313D01*
X9282838Y-19828313D01*
X9263790Y-19818789D01*
X9254266Y-19809265D01*
X9244742Y-19790218D01*
X9235219Y-19752122D01*
X9235219Y-19704503D01*
X9244742Y-19666408D01*
X9254266Y-19647361D01*
X9263790Y-19637837D01*
X9282838Y-19628313D01*
X9435219Y-19809265D02*
X9444742Y-19818789D01*
X9435219Y-19828313D01*
X9425695Y-19818789D01*
X9435219Y-19809265D01*
X9435219Y-19828313D01*
X9635219Y-19828313D02*
X9520933Y-19828313D01*
X9578076Y-19828313D02*
X9578076Y-19628313D01*
X9559028Y-19656884D01*
X9539981Y-19675932D01*
X9520933Y-19685456D01*
X9806647Y-19628313D02*
X9768552Y-19628313D01*
X9749504Y-19637837D01*
X9739981Y-19647361D01*
X9720933Y-19675932D01*
X9711409Y-19714027D01*
X9711409Y-19790218D01*
X9720933Y-19809265D01*
X9730457Y-19818789D01*
X9749504Y-19828313D01*
X9787600Y-19828313D01*
X9806647Y-19818789D01*
X9816171Y-19809265D01*
X9825695Y-19790218D01*
X9825695Y-19742599D01*
X9816171Y-19723551D01*
X9806647Y-19714027D01*
X9787600Y-19704503D01*
X9749504Y-19704503D01*
X9730457Y-19714027D01*
X9720933Y-19723551D01*
X9711409Y-19742599D01*
X10016171Y-19828313D02*
X9901885Y-19828313D01*
X9959028Y-19828313D02*
X9959028Y-19628313D01*
X9939981Y-19656884D01*
X9920933Y-19675932D01*
X9901885Y-19685456D01*
X10187600Y-19694980D02*
X10187600Y-19828313D01*
X10139981Y-19618789D02*
X10092361Y-19761646D01*
X10216171Y-19761646D01*
X10282838Y-19628313D02*
X10282838Y-19666408D01*
X10359028Y-19628313D02*
X10359028Y-19666408D01*
X10654266Y-19904503D02*
X10644742Y-19894980D01*
X10625695Y-19866408D01*
X10616171Y-19847361D01*
X10606647Y-19818789D01*
X10597123Y-19771170D01*
X10597123Y-19733075D01*
X10606647Y-19685456D01*
X10616171Y-19656884D01*
X10625695Y-19637837D01*
X10644742Y-19609265D01*
X10654266Y-19599741D01*
X10720933Y-19647361D02*
X10730457Y-19637837D01*
X10749504Y-19628313D01*
X10797123Y-19628313D01*
X10816171Y-19637837D01*
X10825695Y-19647361D01*
X10835219Y-19666408D01*
X10835219Y-19685456D01*
X10825695Y-19714027D01*
X10711409Y-19828313D01*
X10835219Y-19828313D01*
X11025695Y-19828313D02*
X10911409Y-19828313D01*
X10968552Y-19828313D02*
X10968552Y-19628313D01*
X10949504Y-19656884D01*
X10930457Y-19675932D01*
X10911409Y-19685456D01*
X11263790Y-19828313D02*
X11263790Y-19628313D01*
X11349504Y-19828313D02*
X11349504Y-19723551D01*
X11339980Y-19704503D01*
X11320933Y-19694980D01*
X11292361Y-19694980D01*
X11273314Y-19704503D01*
X11263790Y-19714027D01*
X11473314Y-19828313D02*
X11454266Y-19818789D01*
X11444742Y-19809265D01*
X11435219Y-19790218D01*
X11435219Y-19733075D01*
X11444742Y-19714027D01*
X11454266Y-19704503D01*
X11473314Y-19694980D01*
X11501885Y-19694980D01*
X11520933Y-19704503D01*
X11530457Y-19714027D01*
X11539980Y-19733075D01*
X11539980Y-19790218D01*
X11530457Y-19809265D01*
X11520933Y-19818789D01*
X11501885Y-19828313D01*
X11473314Y-19828313D01*
X11654266Y-19828313D02*
X11635219Y-19818789D01*
X11625695Y-19799741D01*
X11625695Y-19628313D01*
X11806647Y-19818789D02*
X11787599Y-19828313D01*
X11749504Y-19828313D01*
X11730457Y-19818789D01*
X11720933Y-19799741D01*
X11720933Y-19723551D01*
X11730457Y-19704503D01*
X11749504Y-19694980D01*
X11787599Y-19694980D01*
X11806647Y-19704503D01*
X11816171Y-19723551D01*
X11816171Y-19742599D01*
X11720933Y-19761646D01*
X11892361Y-19818789D02*
X11911409Y-19828313D01*
X11949504Y-19828313D01*
X11968552Y-19818789D01*
X11978076Y-19799741D01*
X11978076Y-19790218D01*
X11968552Y-19771170D01*
X11949504Y-19761646D01*
X11920933Y-19761646D01*
X11901885Y-19752122D01*
X11892361Y-19733075D01*
X11892361Y-19723551D01*
X11901885Y-19704503D01*
X11920933Y-19694980D01*
X11949504Y-19694980D01*
X11968552Y-19704503D01*
X12044742Y-19904503D02*
X12054266Y-19894980D01*
X12073314Y-19866408D01*
X12082838Y-19847361D01*
X12092361Y-19818789D01*
X12101885Y-19771170D01*
X12101885Y-19733075D01*
X12092361Y-19685456D01*
X12082838Y-19656884D01*
X12073314Y-19637837D01*
X12054266Y-19609265D01*
X12044742Y-19599741D01*
X12406647Y-19904503D02*
X12397123Y-19894980D01*
X12378076Y-19866408D01*
X12368552Y-19847361D01*
X12359028Y-19818789D01*
X12349504Y-19771170D01*
X12349504Y-19733075D01*
X12359028Y-19685456D01*
X12368552Y-19656884D01*
X12378076Y-19637837D01*
X12397123Y-19609265D01*
X12406647Y-19599741D01*
X12482838Y-19694980D02*
X12482838Y-19828313D01*
X12482838Y-19714027D02*
X12492361Y-19704503D01*
X12511409Y-19694980D01*
X12539980Y-19694980D01*
X12559028Y-19704503D01*
X12568552Y-19723551D01*
X12568552Y-19828313D01*
X12692361Y-19828313D02*
X12673314Y-19818789D01*
X12663790Y-19809265D01*
X12654266Y-19790218D01*
X12654266Y-19733075D01*
X12663790Y-19714027D01*
X12673314Y-19704503D01*
X12692361Y-19694980D01*
X12720933Y-19694980D01*
X12739980Y-19704503D01*
X12749504Y-19714027D01*
X12759028Y-19733075D01*
X12759028Y-19790218D01*
X12749504Y-19809265D01*
X12739980Y-19818789D01*
X12720933Y-19828313D01*
X12692361Y-19828313D01*
X12816171Y-19694980D02*
X12892361Y-19694980D01*
X12844742Y-19628313D02*
X12844742Y-19799741D01*
X12854266Y-19818789D01*
X12873314Y-19828313D01*
X12892361Y-19828313D01*
X13111409Y-19694980D02*
X13111409Y-19894980D01*
X13111409Y-19704503D02*
X13130457Y-19694980D01*
X13168552Y-19694980D01*
X13187599Y-19704503D01*
X13197123Y-19714027D01*
X13206647Y-19733075D01*
X13206647Y-19790218D01*
X13197123Y-19809265D01*
X13187599Y-19818789D01*
X13168552Y-19828313D01*
X13130457Y-19828313D01*
X13111409Y-19818789D01*
X13320933Y-19828313D02*
X13301885Y-19818789D01*
X13292361Y-19799741D01*
X13292361Y-19628313D01*
X13482838Y-19828313D02*
X13482838Y-19723551D01*
X13473314Y-19704503D01*
X13454266Y-19694980D01*
X13416171Y-19694980D01*
X13397123Y-19704503D01*
X13482838Y-19818789D02*
X13463790Y-19828313D01*
X13416171Y-19828313D01*
X13397123Y-19818789D01*
X13387599Y-19799741D01*
X13387599Y-19780694D01*
X13397123Y-19761646D01*
X13416171Y-19752122D01*
X13463790Y-19752122D01*
X13482838Y-19742599D01*
X13549504Y-19694980D02*
X13625695Y-19694980D01*
X13578076Y-19628313D02*
X13578076Y-19799741D01*
X13587599Y-19818789D01*
X13606647Y-19828313D01*
X13625695Y-19828313D01*
X13768552Y-19818789D02*
X13749504Y-19828313D01*
X13711409Y-19828313D01*
X13692361Y-19818789D01*
X13682838Y-19799741D01*
X13682838Y-19723551D01*
X13692361Y-19704503D01*
X13711409Y-19694980D01*
X13749504Y-19694980D01*
X13768552Y-19704503D01*
X13778076Y-19723551D01*
X13778076Y-19742599D01*
X13682838Y-19761646D01*
X13949504Y-19828313D02*
X13949504Y-19628313D01*
X13949504Y-19818789D02*
X13930457Y-19828313D01*
X13892361Y-19828313D01*
X13873314Y-19818789D01*
X13863790Y-19809265D01*
X13854266Y-19790218D01*
X13854266Y-19733075D01*
X13863790Y-19714027D01*
X13873314Y-19704503D01*
X13892361Y-19694980D01*
X13930457Y-19694980D01*
X13949504Y-19704503D01*
X14025695Y-19904503D02*
X14035219Y-19894980D01*
X14054266Y-19866408D01*
X14063790Y-19847361D01*
X14073314Y-19818789D01*
X14082838Y-19771170D01*
X14082838Y-19733075D01*
X14073314Y-19685456D01*
X14063790Y-19656884D01*
X14054266Y-19637837D01*
X14035219Y-19609265D01*
X14025695Y-19599741D01*
M02*
