M48
INCH,TZ
T1C0.0276
T2C0.0354
T3C0.0472
T4C0.0669
T5C0.0748
T6C0.0866
T7C0.1181
T8C0.1260
T9C0.1614
%
G90
G05
T1
X32382Y-25758
X32402Y-24577
T2
X32406Y-46667
X32406Y-48341
T3
X32441Y-50148
X32441Y-50837
X35197Y-50148
X35197Y-50837
T4
X32358Y-61447
X34864Y-58942
X38720Y-55938
X41789Y-54166
X45893Y-28190
X45893Y-35699
X45893Y-43208
X46280Y-52261
X49436Y-28190
X49436Y-35699
X49436Y-43208
X49702Y-51344
X53371Y-27009
X53371Y-34518
X53371Y-42027
X54532Y-50668
X56914Y-27009
X56914Y-34518
X56914Y-42027
X58075Y-50668
X60871Y-23466
X60871Y-30975
X60871Y-38483
X64414Y-23466
X64414Y-30975
X64414Y-38483
X68399Y-42427
X68923Y-34937
X69446Y-27446
X71934Y-42674
X72457Y-35184
X72981Y-27693
X75452Y-47759
X76756Y-40365
X78060Y-32970
X78942Y-48375
X80246Y-40980
X81549Y-33585
X83170Y-47121
X84473Y-39727
X86659Y-47737
X87963Y-40342
T5
X32197Y-61609
X35025Y-58780
X38523Y-56052
X41987Y-54052
X45665Y-28190
X45665Y-35699
X45665Y-43208
X46059Y-52320
X49665Y-28190
X49665Y-35699
X49665Y-43208
X49923Y-51285
X53142Y-27009
X53142Y-34518
X53142Y-42027
X54304Y-50668
X57142Y-27009
X57142Y-34518
X57142Y-42027
X58304Y-50668
X60642Y-23466
X60642Y-30975
X60642Y-38483
X64642Y-23466
X64642Y-30975
X64642Y-38483
X68171Y-42411
X68695Y-34921
X69219Y-27430
X72161Y-42690
X72685Y-35200
X73209Y-27709
X75227Y-47720
X76531Y-40325
X77835Y-32930
X79167Y-48414
X80470Y-41020
X81774Y-33625
X82945Y-47082
X84249Y-39687
X86884Y-47776
X88188Y-40381
T6
X76083Y-29547
T7
X33258Y-61962
X34318Y-62316
X35379Y-59841
X35732Y-60902
X39456Y-56668
X40389Y-57284
X42054Y-55168
X42121Y-56284
X46165Y-29190
X46165Y-36699
X46165Y-44208
X46665Y-30190
X46665Y-37699
X46665Y-45208
X46801Y-53157
X47543Y-53993
X48665Y-30190
X48665Y-37699
X48665Y-45208
X49165Y-29190
X49165Y-36699
X49165Y-44208
X49475Y-53476
X49699Y-52380
X53642Y-28009
X53642Y-35518
X53642Y-43027
X54142Y-29009
X54142Y-36518
X54142Y-44027
X54804Y-51668
X55304Y-52668
X56142Y-29009
X56142Y-36518
X56142Y-44027
X56642Y-28009
X56642Y-35518
X56642Y-43027
X57304Y-52668
X57804Y-51668
X61142Y-24466
X61142Y-31975
X61142Y-39483
X61642Y-25466
X61642Y-32975
X61642Y-40483
X63642Y-25466
X63642Y-32975
X63642Y-40483
X64142Y-24466
X64142Y-31975
X64142Y-39483
X68600Y-43444
X69029Y-44476
X69124Y-35953
X69553Y-36986
X69648Y-28463
X70077Y-29495
X71024Y-44616
X71548Y-37125
X71593Y-43653
X72072Y-29635
X72117Y-36162
X72640Y-28672
X75546Y-48791
X75865Y-49863
X76850Y-41397
X77169Y-42468
X77834Y-50210
X78154Y-34002
X78473Y-35073
X78500Y-49312
X79138Y-42816
X79804Y-41918
X80442Y-35421
X81108Y-34523
X83263Y-48153
X83582Y-49225
X84567Y-40759
X84886Y-41830
X85552Y-49572
X86218Y-48674
X86856Y-42177
X87522Y-41279
T8
X32803Y-21937
X32803Y-53209
X57244Y-21937
X65866Y-34665
X66909Y-47917
X68563Y-21937
X71480Y-48217
X74406Y-22335
T9
X33611Y-60194
X40255Y-55052
X47665Y-28190
X47665Y-35699
X47665Y-43208
X47991Y-51803
X55142Y-27009
X55142Y-34518
X55142Y-42027
X56304Y-50668
X62642Y-23466
X62642Y-30975
X62642Y-38483
X70166Y-42551
X70690Y-35060
X71214Y-27570
X77197Y-48067
X78501Y-40672
X79805Y-33277
X84914Y-47429
X86218Y-40034
T0
M30
