M48
; DRILL file {KiCad (6.0.4)} date Fri Jul  8 12:46:30 2022
; FORMAT={-:-/ absolute / metric / decimal}
; #@! TF.CreationDate,2022-07-08T12:46:30+02:00
; #@! TF.GenerationSoftware,Kicad,Pcbnew,(6.0.4)
; #@! TF.FileFunction,Plated,1,2,PTH
FMAT,2
METRIC
; #@! TA.AperFunction,Plated,PTH,ComponentDrill
T1C0.100
; #@! TA.AperFunction,Plated,PTH,ViaDrill
T2C0.300
; #@! TA.AperFunction,Plated,PTH,ComponentDrill
T3C0.400
; #@! TA.AperFunction,Plated,PTH,ComponentDrill
T4C0.500
; #@! TA.AperFunction,Plated,PTH,ComponentDrill
T5C0.750
; #@! TA.AperFunction,Plated,PTH,ComponentDrill
T6C0.813
; #@! TA.AperFunction,Plated,PTH,ComponentDrill
T7C0.850
; #@! TA.AperFunction,Plated,PTH,ComponentDrill
T8C1.000
; #@! TA.AperFunction,Plated,PTH,ComponentDrill
T9C1.500
; #@! TA.AperFunction,Plated,PTH,ComponentDrill
T10C2.200
%
G90
G05
T1
X81.26Y-118.81
X81.26Y-122.51
X83.21Y-119.435
X83.21Y-120.66
X83.21Y-121.885
T2
X75.55Y-152.85
X78.081Y-151.212
X79.116Y-151.381
X81.184Y-63.838
X81.4Y-69.3
X81.725Y-64.4
X81.95Y-106.2
X82.248Y-63.899
X82.4Y-101.5
X82.623Y-125.762
X82.74Y-107.233
X83.117Y-63.894
X83.675Y-109.725
X83.844Y-146.644
X84.8Y-144.4
X85.88Y-63.43
X86.556Y-64.941
X86.627Y-124.038
X86.7Y-150.0
X86.703Y-72.603
X86.711Y-71.85
X86.825Y-146.375
X87.01Y-61.404
X87.1Y-56.8
X87.135Y-71.385
X87.15Y-69.65
X87.536Y-59.879
X87.549Y-160.505
X88.025Y-78.475
X88.1Y-118.5
X88.898Y-125.642
X89.595Y-125.625
X90.05Y-128.25
X90.325Y-100.05
X91.6Y-138.1
X91.8Y-128.25
X94.216Y-153.638
X95.034Y-137.452
X95.199Y-136.545
X96.311Y-136.903
X96.381Y-102.616
X96.4Y-138.9
X96.404Y-101.987
X96.5Y-100.05
X97.7Y-148.9
X98.45Y-100.05
X99.006Y-97.681
X99.071Y-96.871
X99.575Y-100.05
X100.234Y-103.21
X100.975Y-100.05
X101.725Y-147.617
X102.142Y-63.106
X102.7Y-133.241
X102.907Y-68.17
X102.911Y-73.255
X102.926Y-75.81
X102.934Y-70.738
X102.935Y-78.358
X102.941Y-85.984
X102.95Y-80.913
X102.977Y-83.481
X103.575Y-100.05
X103.8Y-134.675
X105.909Y-64.438
X106.033Y-69.82
X107.841Y-78.21
X108.3Y-61.1
X108.4Y-58.2
X108.697Y-79.939
X108.758Y-87.131
X109.319Y-89.181
X110.611Y-142.778
X113.0Y-83.0
X113.25Y-137.55
X113.541Y-81.83
X113.818Y-115.8
X114.068Y-91.757
X114.88Y-100.96
X115.0Y-83.0
X115.3Y-78.45
X115.966Y-126.609
X116.8Y-124.5
X116.854Y-127.186
X117.0Y-99.175
X117.042Y-65.241
X117.108Y-103.385
X117.116Y-84.294
X117.668Y-66.073
X117.668Y-67.824
X117.721Y-104.251
X117.729Y-85.176
X118.668Y-86.95
X118.669Y-106.022
X119.262Y-139.05
X123.466Y-102.473
X123.468Y-83.401
X124.069Y-125.253
X124.406Y-104.248
X124.41Y-85.174
X124.458Y-66.079
X124.6Y-63.4
X124.6Y-82.8
X124.6Y-101.8
X124.675Y-117.125
X125.13Y-98.61
X125.7Y-78.7
X128.075Y-72.8
X128.075Y-91.85
X128.075Y-110.95
X128.27Y-99.43
X129.1Y-76.3
X129.64Y-136.474
X130.925Y-76.573
X130.934Y-77.626
X131.84Y-112.01
X131.87Y-106.71
X132.0Y-75.9
X132.0Y-78.575
X132.0Y-81.7
X132.53Y-99.833
X132.535Y-77.081
X132.535Y-99.076
X132.535Y-103.868
X133.0Y-138.6
X133.1Y-127.2
X133.588Y-98.047
X134.1Y-80.2
X134.41Y-101.6
X134.8Y-94.625
X134.975Y-103.875
X135.3Y-118.5
X135.4Y-64.5
X135.49Y-62.847
X136.0Y-76.8
X136.0Y-135.35
X136.08Y-62.269
X136.092Y-100.428
X136.103Y-81.297
X136.175Y-98.525
X136.707Y-63.096
X136.715Y-101.251
X136.719Y-82.174
X136.975Y-96.625
X137.0Y-105.475
X137.294Y-135.218
X138.0Y-124.25
X138.447Y-123.203
X139.049Y-122.324
X139.25Y-117.2
X139.663Y-123.202
X140.053Y-112.695
X140.45Y-113.2
X141.2Y-95.6
X141.89Y-76.22
X142.44Y-117.676
X142.458Y-104.848
X143.41Y-101.252
X143.413Y-82.181
X143.42Y-63.111
X143.6Y-65.1
X143.642Y-117.167
X143.85Y-105.225
X144.275Y-118.75
X144.392Y-113.267
X145.5Y-110.468
X146.3Y-127.2
X146.353Y-123.199
X146.45Y-99.025
X147.06Y-69.823
X147.064Y-88.853
X147.075Y-106.8
X147.276Y-111.865
X147.3Y-117.042
X147.4Y-121.65
X147.4Y-123.225
X147.939Y-114.989
X148.0Y-106.775
X148.6Y-135.45
X148.65Y-86.325
X149.9Y-104.373
X149.9Y-105.426
X149.95Y-58.925
X149.95Y-63.946
X150.3Y-116.6
X150.71Y-96.3
X150.95Y-134.3
X151.0Y-107.3
X151.0Y-127.8
X151.04Y-86.34
X151.1Y-64.2
X151.1Y-103.13
X151.2Y-116.588
X151.23Y-73.29
X151.585Y-89.61
X151.599Y-70.463
X152.3Y-114.3
X153.175Y-123.384
X153.2Y-71.2
X153.225Y-85.65
X153.83Y-74.27
X154.198Y-123.002
X155.075Y-87.25
X155.1Y-68.1
X155.125Y-53.226
X155.15Y-72.292
X155.154Y-91.373
X155.235Y-122.571
X155.736Y-54.087
X155.766Y-73.178
X155.769Y-92.246
X156.475Y-122.117
X156.693Y-56.069
X156.712Y-74.95
X156.717Y-94.022
X161.51Y-71.401
X161.51Y-90.473
X161.8Y-70.1
X161.9Y-89.3
X162.1Y-58.5
X162.1Y-77.5
X162.1Y-96.5
X162.452Y-73.176
X162.455Y-92.246
X162.493Y-54.122
X162.65Y-56.275
X163.126Y-53.218
X164.883Y-109.302
X165.125Y-55.85
X166.107Y-79.865
X166.111Y-59.725
X166.116Y-98.951
X168.775Y-100.475
X168.953Y-60.465
X169.28Y-117.657
X170.611Y-93.85
X171.51Y-114.67
X171.562Y-75.362
X173.175Y-73.775
X173.18Y-99.75
X173.5Y-81.4
X173.5Y-83.7
X174.525Y-97.65
X174.651Y-101.56
X175.263Y-102.357
X175.989Y-82.516
X176.05Y-78.2
X176.606Y-83.333
X177.257Y-63.479
X177.884Y-64.278
X178.2Y-62.275
X178.2Y-116.0
X178.6Y-66.6
X178.9Y-99.6
X179.5Y-78.0
X180.3Y-96.9
X180.5Y-80.6
X181.6Y-78.0
X181.963Y-102.839
X183.267Y-83.799
X184.694Y-64.73
X185.028Y-109.766
X185.4Y-62.8
X186.3Y-119.6
X186.352Y-90.708
X187.337Y-117.494
X187.696Y-71.71
X187.876Y-117.955
X188.0Y-121.0
X188.6Y-127.9
X190.463Y-101.38
X190.524Y-84.335
X191.1Y-117.2
X191.225Y-80.925
X192.344Y-115.554
X193.084Y-115.397
X193.5Y-113.6
X193.698Y-116.06
X193.7Y-129.0
X196.0Y-99.8
X196.428Y-96.61
X196.971Y-99.125
X197.045Y-97.305
X197.425Y-60.26
X197.6Y-100.3
X199.2Y-81.0
X199.3Y-120.4
X199.563Y-115.318
X199.747Y-77.824
X200.279Y-80.314
X200.338Y-117.263
X200.357Y-78.526
X200.8Y-91.4
X202.521Y-124.406
X202.6Y-102.6
X202.7Y-111.23
X202.854Y-96.527
X202.9Y-93.6
X203.257Y-101.381
X203.642Y-98.475
X203.69Y-132.66
X204.875Y-60.6
X205.425Y-126.175
X206.675Y-105.3
X206.94Y-121.141
X206.957Y-79.686
X207.3Y-110.5
X207.3Y-126.125
X209.145Y-86.857
X209.18Y-125.902
X211.66Y-107.42
X212.153Y-111.481
X212.482Y-107.16
X212.717Y-113.614
X213.0Y-108.825
X213.335Y-114.464
X213.4Y-116.9
X213.6Y-110.9
X214.4Y-95.4
X216.049Y-94.99
X216.659Y-95.689
X217.2Y-98.3
X217.2Y-108.0
X218.9Y-119.45
X219.1Y-104.4
X219.938Y-115.636
X222.135Y-122.817
X223.259Y-96.863
X225.442Y-104.063
T3
X87.071Y-142.476
X89.475Y-144.88
X99.18Y-106.96
X102.58Y-106.96
X106.672Y-130.428
X108.372Y-133.372
X115.1Y-118.29
X115.3Y-80.1
X115.3Y-99.2
X118.5Y-118.29
X118.7Y-80.1
X118.7Y-99.2
X128.663Y-123.579
X129.543Y-126.863
X134.3Y-77.1
X135.297Y-96.197
X137.7Y-77.1
X138.697Y-96.197
X148.2Y-101.5
X148.2Y-104.9
X151.604Y-122.605
X151.604Y-126.005
X153.3Y-106.3
X153.379Y-87.185
X153.4Y-68.1
X156.7Y-106.3
X156.779Y-87.185
X156.8Y-68.1
X172.9Y-116.2
X172.908Y-97.163
X174.3Y-78.1
X176.292Y-116.437
X176.3Y-97.4
X177.692Y-78.337
X188.626Y-129.405
X191.952Y-110.71
X191.974Y-129.995
X195.252Y-91.91
X195.3Y-111.3
X198.6Y-92.5
X216.852Y-129.21
X220.2Y-110.6
X220.2Y-129.8
X223.548Y-111.19
T4
X153.51Y-116.29
X166.71Y-116.29
T5
X82.35Y-102.8
X82.35Y-104.8
T6
X88.78Y-56.84
X88.78Y-59.38
X88.78Y-61.92
X88.78Y-64.46
X88.78Y-67.0
X88.78Y-69.54
X88.78Y-72.08
X88.78Y-74.62
X88.78Y-77.16
X88.78Y-79.7
X88.78Y-82.24
X88.78Y-84.78
X90.079Y-58.036
X90.079Y-60.576
X90.079Y-63.116
X90.079Y-65.656
X90.079Y-68.196
X90.079Y-70.736
X90.079Y-73.276
X90.079Y-75.816
X90.079Y-78.356
X90.079Y-80.896
X90.079Y-83.436
X90.079Y-85.976
X104.02Y-56.84
X104.02Y-59.38
X104.02Y-61.92
X104.02Y-64.46
X104.02Y-67.0
X104.02Y-69.54
X104.02Y-72.08
X104.02Y-74.62
X104.02Y-77.16
X104.02Y-79.7
X104.02Y-82.24
X104.02Y-84.78
X105.319Y-58.036
X105.319Y-60.576
X105.319Y-63.116
X105.319Y-65.656
X105.319Y-68.196
X105.319Y-70.736
X105.319Y-73.276
X105.319Y-75.816
X105.319Y-78.356
X105.319Y-80.896
X105.319Y-83.436
X105.319Y-85.976
T7
X137.95Y-120.1
X140.49Y-120.1
X143.03Y-120.1
X145.57Y-120.1
X148.11Y-120.1
T8
X82.5Y-111.4
X82.5Y-115.0
X88.09Y-111.45
X88.09Y-113.95
X88.09Y-116.45
X92.629Y-98.455
X95.169Y-98.455
X97.709Y-98.455
X100.249Y-98.455
X102.59Y-111.45
X102.59Y-116.45
X194.92Y-55.65
X197.46Y-55.65
X200.0Y-55.65
X202.54Y-55.65
X205.08Y-55.65
T10
X130.549Y-96.4
X149.599Y-77.35
X168.649Y-96.4
T8
X83.95Y-125.275G85X84.45Y-125.275
G05
X83.95Y-131.225G85X84.45Y-131.225
G05
X86.95Y-125.275G85X87.45Y-125.275
G05
X86.95Y-131.225G85X87.45Y-131.225
G05
X90.95Y-125.275G85X91.45Y-125.275
G05
X90.95Y-131.225G85X91.45Y-131.225
G05
X92.45Y-127.025G85X92.95Y-127.025
G05
X92.45Y-129.475G85X92.95Y-129.475
G05
T9
X94.94Y-108.35G85X96.24Y-108.35
G05
X94.94Y-119.55G85X96.24Y-119.55
G05
T0
M30
