%TF.GenerationSoftware,KiCad,Pcbnew,(6.0.4)*%
%TF.CreationDate,2022-05-03T22:22:58+02:00*%
%TF.ProjectId,klor1_2,6b6c6f72-315f-4322-9e6b-696361645f70,v1.2.0*%
%TF.SameCoordinates,Original*%
%TF.FileFunction,NonPlated,1,2,NPTH,Drill*%
%TF.FilePolarity,Positive*%
%FSLAX46Y46*%
G04 Gerber Fmt 4.6, Leading zero omitted, Abs format (unit mm)*
G04 Created by KiCad (PCBNEW (6.0.4)) date 2022-05-03 22:22:58*
%MOMM*%
%LPD*%
G01*
G04 APERTURE LIST*
%TA.AperFunction,ComponentDrill*%
%ADD10C,0.700000*%
%TD*%
%TA.AperFunction,ComponentDrill*%
%ADD11C,0.900000*%
%TD*%
%TA.AperFunction,ComponentDrill*%
%ADD12C,1.200000*%
%TD*%
%TA.AperFunction,ComponentDrill*%
%ADD13C,1.700000*%
%TD*%
%TA.AperFunction,ComponentDrill*%
%ADD14C,1.900000*%
%TD*%
%TA.AperFunction,ComponentDrill*%
%ADD15C,2.200000*%
%TD*%
%TA.AperFunction,ComponentDrill*%
%ADD16C,3.000000*%
%TD*%
%TA.AperFunction,ComponentDrill*%
%ADD17C,3.200000*%
%TD*%
%TA.AperFunction,ComponentDrill*%
%ADD18C,4.100000*%
%TD*%
G04 APERTURE END LIST*
D10*
%TO.C,PSW1*%
X82251228Y-65426228D03*
X82301228Y-62426228D03*
D11*
%TO.C,RSW1*%
X82310000Y-118535000D03*
X82310000Y-122785000D03*
D12*
%TO.C,J1*%
X82400000Y-127375000D03*
X82400000Y-129125000D03*
X89400000Y-127375000D03*
X89400000Y-129125000D03*
D13*
%TO.C,SW19*%
X82190173Y-156075811D03*
X88554135Y-149711849D03*
%TO.C,SW20*%
X98350040Y-142081736D03*
X106144268Y-137581736D03*
%TO.C,SW1*%
X116567969Y-71602664D03*
%TO.C,SW6*%
X116567969Y-90675260D03*
%TO.C,SW12*%
X116567969Y-109747857D03*
%TO.C,SW21*%
X117550488Y-132743627D03*
%TO.C,SW1*%
X125567969Y-71602664D03*
%TO.C,SW6*%
X125567969Y-90675260D03*
%TO.C,SW12*%
X125567969Y-109747857D03*
%TO.C,SW21*%
X126243820Y-130414255D03*
%TO.C,SW2*%
X135561399Y-68602664D03*
%TO.C,SW7*%
X135561399Y-87675260D03*
%TO.C,SW13*%
X135561399Y-106747857D03*
%TO.C,SW22*%
X138511399Y-128697857D03*
%TO.C,SW2*%
X144561399Y-68602664D03*
%TO.C,SW7*%
X144561399Y-87675260D03*
%TO.C,SW13*%
X144561399Y-106747857D03*
%TO.C,SW22*%
X147511399Y-128697857D03*
%TO.C,SW3*%
X154611399Y-59602664D03*
%TO.C,SW8*%
X154611399Y-78675260D03*
%TO.C,SW14*%
X154611399Y-97747857D03*
%TO.C,SW3*%
X163611399Y-59602664D03*
%TO.C,SW8*%
X163611399Y-78675260D03*
%TO.C,SW14*%
X163611399Y-97747857D03*
%TO.C,SW15*%
X173733116Y-107765250D03*
%TO.C,SW9*%
X175063553Y-88739113D03*
%TO.C,SW4*%
X176393990Y-69712978D03*
%TO.C,SW15*%
X182711192Y-108393058D03*
%TO.C,SW9*%
X184041629Y-89366921D03*
%TO.C,SW4*%
X185372066Y-70340786D03*
%TO.C,SW16*%
X191648508Y-121308979D03*
%TO.C,SW10*%
X194960430Y-102526137D03*
%TO.C,SW5*%
X198272352Y-83743298D03*
%TO.C,SW16*%
X200511778Y-122871813D03*
%TO.C,SW10*%
X203823700Y-104088971D03*
%TO.C,SW5*%
X207135622Y-85306132D03*
%TO.C,SW17*%
X211250746Y-119688249D03*
%TO.C,SW11*%
X214562667Y-100905408D03*
%TO.C,SW17*%
X220114016Y-121251083D03*
%TO.C,SW11*%
X223425937Y-102468242D03*
D14*
%TO.C,SW19*%
X81780052Y-156485932D03*
X88964256Y-149301728D03*
%TO.C,SW20*%
X97847745Y-142371736D03*
X106646563Y-137291736D03*
%TO.C,SW1*%
X115987969Y-71602664D03*
%TO.C,SW6*%
X115987969Y-90675260D03*
%TO.C,SW12*%
X115987969Y-109747857D03*
%TO.C,SW21*%
X116990251Y-132893742D03*
%TO.C,SW1*%
X126147969Y-71602664D03*
%TO.C,SW6*%
X126147969Y-90675260D03*
%TO.C,SW12*%
X126147969Y-109747857D03*
%TO.C,SW21*%
X126804057Y-130264140D03*
%TO.C,SW2*%
X134981399Y-68602664D03*
%TO.C,SW7*%
X134981399Y-87675260D03*
%TO.C,SW13*%
X134981399Y-106747857D03*
%TO.C,SW22*%
X137931399Y-128697857D03*
%TO.C,SW2*%
X145141399Y-68602664D03*
%TO.C,SW7*%
X145141399Y-87675260D03*
%TO.C,SW13*%
X145141399Y-106747857D03*
%TO.C,SW22*%
X148091399Y-128697857D03*
%TO.C,SW3*%
X154031399Y-59602664D03*
%TO.C,SW8*%
X154031399Y-78675260D03*
%TO.C,SW14*%
X154031399Y-97747857D03*
%TO.C,SW3*%
X164191399Y-59602664D03*
%TO.C,SW8*%
X164191399Y-78675260D03*
%TO.C,SW14*%
X164191399Y-97747857D03*
%TO.C,SW15*%
X173154529Y-107724791D03*
%TO.C,SW9*%
X174484966Y-88698654D03*
%TO.C,SW4*%
X175815403Y-69672519D03*
%TO.C,SW15*%
X183289779Y-108433517D03*
%TO.C,SW9*%
X184620216Y-89407380D03*
%TO.C,SW4*%
X185950653Y-70381245D03*
%TO.C,SW16*%
X191077320Y-121208263D03*
%TO.C,SW10*%
X194389242Y-102425421D03*
%TO.C,SW5*%
X197701164Y-83642582D03*
%TO.C,SW16*%
X201082966Y-122972529D03*
%TO.C,SW10*%
X204394888Y-104189687D03*
%TO.C,SW5*%
X207706810Y-85406848D03*
%TO.C,SW17*%
X210679558Y-119587533D03*
%TO.C,SW11*%
X213991479Y-100804692D03*
%TO.C,SW17*%
X220685204Y-121351799D03*
%TO.C,SW11*%
X223997125Y-102568958D03*
D15*
%TO.C,MH9*%
X193250000Y-75050000D03*
D16*
%TO.C,SW19*%
X84474129Y-157383959D03*
X87168205Y-158281984D03*
X89862282Y-151995804D03*
X90760308Y-154689881D03*
%TO.C,SW20*%
X100217598Y-143936441D03*
X102587449Y-145501145D03*
X106816711Y-140126441D03*
X106986859Y-142961145D03*
%TO.C,SW1*%
X117257969Y-74142665D03*
%TO.C,SW6*%
X117257969Y-93215261D03*
%TO.C,SW12*%
X117257969Y-112287858D03*
%TO.C,SW1*%
X118527969Y-76682664D03*
%TO.C,SW6*%
X118527969Y-95755260D03*
%TO.C,SW12*%
X118527969Y-114827857D03*
%TO.C,SW21*%
X118874377Y-135018494D03*
X120758503Y-137143245D03*
%TO.C,SW1*%
X123607969Y-76682664D03*
%TO.C,SW6*%
X123607969Y-95755260D03*
%TO.C,SW12*%
X123607969Y-114827857D03*
%TO.C,SW1*%
X124877969Y-74142664D03*
%TO.C,SW6*%
X124877969Y-93215260D03*
%TO.C,SW12*%
X124877969Y-112287857D03*
%TO.C,SW21*%
X125665406Y-135828444D03*
X126234732Y-133046292D03*
%TO.C,SW2*%
X136251399Y-71142665D03*
%TO.C,SW7*%
X136251399Y-90215261D03*
%TO.C,SW13*%
X136251399Y-109287858D03*
%TO.C,SW2*%
X137521399Y-73682664D03*
%TO.C,SW7*%
X137521399Y-92755260D03*
%TO.C,SW13*%
X137521399Y-111827857D03*
%TO.C,SW22*%
X139201399Y-131237858D03*
X140471399Y-133777857D03*
%TO.C,SW2*%
X142601399Y-73682664D03*
%TO.C,SW7*%
X142601399Y-92755260D03*
%TO.C,SW13*%
X142601399Y-111827857D03*
%TO.C,SW2*%
X143871399Y-71142664D03*
%TO.C,SW7*%
X143871399Y-90215260D03*
%TO.C,SW13*%
X143871399Y-109287857D03*
%TO.C,SW22*%
X145551399Y-133777857D03*
X146821399Y-131237857D03*
%TO.C,SW3*%
X155301399Y-62142665D03*
%TO.C,SW8*%
X155301399Y-81215261D03*
%TO.C,SW14*%
X155301399Y-100287858D03*
%TO.C,SW3*%
X156571399Y-64682664D03*
%TO.C,SW8*%
X156571399Y-83755260D03*
%TO.C,SW14*%
X156571399Y-102827857D03*
%TO.C,SW3*%
X161651399Y-64682664D03*
%TO.C,SW8*%
X161651399Y-83755260D03*
%TO.C,SW14*%
X161651399Y-102827857D03*
%TO.C,SW3*%
X162921399Y-62142664D03*
%TO.C,SW8*%
X162921399Y-81215260D03*
%TO.C,SW14*%
X162921399Y-100287857D03*
%TO.C,SW15*%
X174244253Y-110347196D03*
X175333978Y-112969598D03*
%TO.C,SW9*%
X175574690Y-91321059D03*
X176664415Y-93943461D03*
%TO.C,SW4*%
X176905127Y-72294924D03*
X177994852Y-74917326D03*
%TO.C,SW15*%
X180401604Y-113323961D03*
%TO.C,SW9*%
X181732041Y-94297824D03*
%TO.C,SW15*%
X181845692Y-110878739D03*
%TO.C,SW4*%
X183062478Y-75271689D03*
%TO.C,SW9*%
X183176129Y-91852602D03*
%TO.C,SW4*%
X184506566Y-72826467D03*
%TO.C,SW16*%
X191886959Y-123930209D03*
X192696599Y-126652153D03*
%TO.C,SW10*%
X195198881Y-105147367D03*
X196008521Y-107869311D03*
%TO.C,SW16*%
X197699422Y-127534286D03*
%TO.C,SW5*%
X198510803Y-86364528D03*
X199320443Y-89086472D03*
%TO.C,SW16*%
X199391194Y-125253407D03*
%TO.C,SW10*%
X201011344Y-108751444D03*
X202703116Y-106470565D03*
%TO.C,SW5*%
X204323266Y-89968605D03*
X206015038Y-87687726D03*
%TO.C,SW17*%
X211489197Y-122309479D03*
X212298837Y-125031423D03*
%TO.C,SW11*%
X214801118Y-103526638D03*
X215610758Y-106248582D03*
%TO.C,SW17*%
X217301660Y-125913556D03*
X218993432Y-123632677D03*
%TO.C,SW11*%
X220613581Y-107130715D03*
X222305353Y-104849836D03*
D17*
%TO.C,MH1*%
X83320000Y-55720000D03*
%TO.C,MH6*%
X83320000Y-135150000D03*
%TO.C,MH2*%
X145400000Y-55720000D03*
%TO.C,MH5*%
X167300000Y-88050000D03*
%TO.C,MH7*%
X169950000Y-121710000D03*
%TO.C,MH3*%
X174150000Y-55720000D03*
%TO.C,MH8*%
X181560000Y-122470000D03*
%TO.C,MH4*%
X188990000Y-56730000D03*
D18*
%TO.C,SW19*%
X85372154Y-152893830D03*
%TO.C,SW20*%
X102247154Y-139831736D03*
%TO.C,SW1*%
X121067969Y-71602664D03*
%TO.C,SW6*%
X121067969Y-90675260D03*
%TO.C,SW12*%
X121067969Y-109747857D03*
%TO.C,SW21*%
X121897154Y-131578941D03*
%TO.C,SW2*%
X140061399Y-68602664D03*
%TO.C,SW7*%
X140061399Y-87675260D03*
%TO.C,SW13*%
X140061399Y-106747857D03*
%TO.C,SW22*%
X143011399Y-128697857D03*
%TO.C,SW3*%
X159111399Y-59602664D03*
%TO.C,SW8*%
X159111399Y-78675260D03*
%TO.C,SW14*%
X159111399Y-97747857D03*
%TO.C,SW15*%
X178222154Y-108079154D03*
%TO.C,SW9*%
X179552591Y-89053017D03*
%TO.C,SW4*%
X180883028Y-70026882D03*
%TO.C,SW16*%
X196080143Y-122090396D03*
%TO.C,SW10*%
X199392065Y-103307554D03*
%TO.C,SW5*%
X202703987Y-84524715D03*
%TO.C,SW17*%
X215682381Y-120469666D03*
%TO.C,SW11*%
X218994302Y-101686825D03*
M02*
