G04 #@! TF.GenerationSoftware,KiCad,Pcbnew,(6.0.4)*
G04 #@! TF.CreationDate,2022-07-08T15:45:16+02:00*
G04 #@! TF.ProjectId,klor1_3,6b6c6f72-315f-4332-9e6b-696361645f70,v1.3.0*
G04 #@! TF.SameCoordinates,Original*
G04 #@! TF.FileFunction,Legend,Bot*
G04 #@! TF.FilePolarity,Positive*
%FSLAX46Y46*%
G04 Gerber Fmt 4.6, Leading zero omitted, Abs format (unit mm)*
G04 Created by KiCad (PCBNEW (6.0.4)) date 2022-07-08 15:45:16*
%MOMM*%
%LPD*%
G01*
G04 APERTURE LIST*
%ADD10C,0.150000*%
%ADD11C,0.127000*%
%ADD12C,0.000000*%
%ADD13C,0.569975*%
%ADD14C,0.100000*%
%ADD15C,0.120000*%
%ADD16C,0.300000*%
%ADD17C,0.200000*%
%ADD18C,1.524000*%
G04 APERTURE END LIST*
D10*
X192600000Y-72750000D02*
X207375000Y-72750000D01*
X207375000Y-72750000D02*
X207375000Y-60975000D01*
X207375000Y-60975000D02*
X192600000Y-60975000D01*
X192600000Y-60975000D02*
X192600000Y-72750000D01*
X82669975Y-69294975D02*
G75*
G03*
X82669975Y-69294975I-494975J0D01*
G01*
D11*
X143042000Y-116438500D02*
X143042000Y-118995500D01*
D10*
X84550000Y-111375000D02*
X83965000Y-111375000D01*
X90498000Y-105359000D02*
X89429000Y-105359000D01*
D12*
G36*
X177481312Y-121146755D02*
G01*
X108221313Y-121146755D01*
X108221313Y-119700160D01*
X177481312Y-119700160D01*
X177481312Y-121146755D01*
G37*
D13*
X82459987Y-58794975D02*
G75*
G03*
X82459987Y-58794975I-284987J0D01*
G01*
D12*
G36*
X138388054Y-106680812D02*
G01*
X117606522Y-106680812D01*
X117606522Y-105234218D01*
X136941460Y-105234233D01*
X136941460Y-53262767D01*
X138388054Y-53262767D01*
X138388054Y-106680812D01*
G37*
D10*
X90531000Y-101998000D02*
X89462000Y-101998000D01*
X84256000Y-111668500D02*
X84256000Y-111083500D01*
X89975000Y-105877000D02*
X89975000Y-104808000D01*
X84560000Y-115000000D02*
X83975000Y-115000000D01*
D12*
G36*
X175787743Y-110456066D02*
G01*
X175787743Y-60954402D01*
X177234333Y-60954402D01*
X177234333Y-114443019D01*
X176140568Y-114443019D01*
X163544632Y-89357006D01*
X150948700Y-114443019D01*
X149325699Y-114443019D01*
X162733131Y-87733997D01*
X149325699Y-60954402D01*
X150948700Y-60954402D01*
X175787743Y-110456066D01*
G37*
D14*
X88040712Y-69552857D02*
X87583570Y-69552857D01*
X87297855Y-69552857D02*
X86840712Y-69552857D01*
X86583570Y-69752857D02*
X86497855Y-69781428D01*
X86354998Y-69781428D01*
X86297855Y-69752857D01*
X86269284Y-69724285D01*
X86240712Y-69667142D01*
X86240712Y-69610000D01*
X86269284Y-69552857D01*
X86297855Y-69524285D01*
X86354998Y-69495714D01*
X86469284Y-69467142D01*
X86526427Y-69438571D01*
X86554998Y-69410000D01*
X86583570Y-69352857D01*
X86583570Y-69295714D01*
X86554998Y-69238571D01*
X86526427Y-69210000D01*
X86469284Y-69181428D01*
X86326427Y-69181428D01*
X86240712Y-69210000D01*
X85640712Y-69724285D02*
X85669284Y-69752857D01*
X85754998Y-69781428D01*
X85812141Y-69781428D01*
X85897855Y-69752857D01*
X85954998Y-69695714D01*
X85983570Y-69638571D01*
X86012141Y-69524285D01*
X86012141Y-69438571D01*
X85983570Y-69324285D01*
X85954998Y-69267142D01*
X85897855Y-69210000D01*
X85812141Y-69181428D01*
X85754998Y-69181428D01*
X85669284Y-69210000D01*
X85640712Y-69238571D01*
X85097855Y-69781428D02*
X85383570Y-69781428D01*
X85383570Y-69181428D01*
D10*
X101690476Y-120592857D02*
X101423809Y-120592857D01*
X101309523Y-121011904D02*
X101690476Y-121011904D01*
X101690476Y-120211904D01*
X101309523Y-120211904D01*
X100966666Y-121011904D02*
X100966666Y-120211904D01*
X100509523Y-121011904D01*
X100509523Y-120211904D01*
X99671428Y-120935714D02*
X99709523Y-120973809D01*
X99823809Y-121011904D01*
X99900000Y-121011904D01*
X100014285Y-120973809D01*
X100090476Y-120897619D01*
X100128571Y-120821428D01*
X100166666Y-120669047D01*
X100166666Y-120554761D01*
X100128571Y-120402380D01*
X100090476Y-120326190D01*
X100014285Y-120250000D01*
X99900000Y-120211904D01*
X99823809Y-120211904D01*
X99709523Y-120250000D01*
X99671428Y-120288095D01*
D14*
X88040712Y-67012857D02*
X87583570Y-67012857D01*
X87297855Y-67012857D02*
X86840712Y-67012857D01*
X86583570Y-67212857D02*
X86497855Y-67241428D01*
X86354998Y-67241428D01*
X86297855Y-67212857D01*
X86269284Y-67184285D01*
X86240712Y-67127142D01*
X86240712Y-67070000D01*
X86269284Y-67012857D01*
X86297855Y-66984285D01*
X86354998Y-66955714D01*
X86469284Y-66927142D01*
X86526427Y-66898571D01*
X86554998Y-66870000D01*
X86583570Y-66812857D01*
X86583570Y-66755714D01*
X86554998Y-66698571D01*
X86526427Y-66670000D01*
X86469284Y-66641428D01*
X86326427Y-66641428D01*
X86240712Y-66670000D01*
X85983570Y-67241428D02*
X85983570Y-66641428D01*
X85840712Y-66641428D01*
X85754998Y-66670000D01*
X85697855Y-66727142D01*
X85669284Y-66784285D01*
X85640712Y-66898571D01*
X85640712Y-66984285D01*
X85669284Y-67098571D01*
X85697855Y-67155714D01*
X85754998Y-67212857D01*
X85840712Y-67241428D01*
X85983570Y-67241428D01*
X85412141Y-67070000D02*
X85126427Y-67070000D01*
X85469284Y-67241428D02*
X85269284Y-66641428D01*
X85069284Y-67241428D01*
X107899284Y-84974285D02*
X107927855Y-85002857D01*
X108013570Y-85031428D01*
X108070712Y-85031428D01*
X108156427Y-85002857D01*
X108213570Y-84945714D01*
X108242141Y-84888571D01*
X108270712Y-84774285D01*
X108270712Y-84688571D01*
X108242141Y-84574285D01*
X108213570Y-84517142D01*
X108156427Y-84460000D01*
X108070712Y-84431428D01*
X108013570Y-84431428D01*
X107927855Y-84460000D01*
X107899284Y-84488571D01*
X107527855Y-84431428D02*
X107413570Y-84431428D01*
X107356427Y-84460000D01*
X107299284Y-84517142D01*
X107270712Y-84631428D01*
X107270712Y-84831428D01*
X107299284Y-84945714D01*
X107356427Y-85002857D01*
X107413570Y-85031428D01*
X107527855Y-85031428D01*
X107584998Y-85002857D01*
X107642141Y-84945714D01*
X107670712Y-84831428D01*
X107670712Y-84631428D01*
X107642141Y-84517142D01*
X107584998Y-84460000D01*
X107527855Y-84431428D01*
X106727855Y-85031428D02*
X107013570Y-85031428D01*
X107013570Y-84431428D01*
X106242141Y-84431428D02*
X106527855Y-84431428D01*
X106556427Y-84717142D01*
X106527855Y-84688571D01*
X106470712Y-84660000D01*
X106327855Y-84660000D01*
X106270712Y-84688571D01*
X106242141Y-84717142D01*
X106213570Y-84774285D01*
X106213570Y-84917142D01*
X106242141Y-84974285D01*
X106270712Y-85002857D01*
X106327855Y-85031428D01*
X106470712Y-85031428D01*
X106527855Y-85002857D01*
X106556427Y-84974285D01*
X105956427Y-84802857D02*
X105499284Y-84802857D01*
X105213570Y-84802857D02*
X104756427Y-84802857D01*
D10*
X86013095Y-123186904D02*
X86279761Y-122805952D01*
X86470238Y-123186904D02*
X86470238Y-122386904D01*
X86165476Y-122386904D01*
X86089285Y-122425000D01*
X86051190Y-122463095D01*
X86013095Y-122539285D01*
X86013095Y-122653571D01*
X86051190Y-122729761D01*
X86089285Y-122767857D01*
X86165476Y-122805952D01*
X86470238Y-122805952D01*
X85708333Y-123148809D02*
X85594047Y-123186904D01*
X85403571Y-123186904D01*
X85327380Y-123148809D01*
X85289285Y-123110714D01*
X85251190Y-123034523D01*
X85251190Y-122958333D01*
X85289285Y-122882142D01*
X85327380Y-122844047D01*
X85403571Y-122805952D01*
X85555952Y-122767857D01*
X85632142Y-122729761D01*
X85670238Y-122691666D01*
X85708333Y-122615476D01*
X85708333Y-122539285D01*
X85670238Y-122463095D01*
X85632142Y-122425000D01*
X85555952Y-122386904D01*
X85365476Y-122386904D01*
X85251190Y-122425000D01*
X85022619Y-122386904D02*
X84565476Y-122386904D01*
X84794047Y-123186904D02*
X84794047Y-122386904D01*
D11*
X144021287Y-115461714D02*
X143767287Y-116223714D01*
X143513287Y-115461714D01*
X142823858Y-116151142D02*
X142860144Y-116187428D01*
X142969001Y-116223714D01*
X143041572Y-116223714D01*
X143150429Y-116187428D01*
X143223001Y-116114857D01*
X143259287Y-116042285D01*
X143295572Y-115897142D01*
X143295572Y-115788285D01*
X143259287Y-115643142D01*
X143223001Y-115570571D01*
X143150429Y-115498000D01*
X143041572Y-115461714D01*
X142969001Y-115461714D01*
X142860144Y-115498000D01*
X142823858Y-115534285D01*
X142061858Y-116151142D02*
X142098144Y-116187428D01*
X142207001Y-116223714D01*
X142279572Y-116223714D01*
X142388429Y-116187428D01*
X142461001Y-116114857D01*
X142497287Y-116042285D01*
X142533572Y-115897142D01*
X142533572Y-115788285D01*
X142497287Y-115643142D01*
X142461001Y-115570571D01*
X142388429Y-115498000D01*
X142279572Y-115461714D01*
X142207001Y-115461714D01*
X142098144Y-115498000D01*
X142061858Y-115534285D01*
X101139945Y-103924428D02*
X101031088Y-103960714D01*
X100849660Y-103960714D01*
X100777088Y-103924428D01*
X100740802Y-103888142D01*
X100704517Y-103815571D01*
X100704517Y-103743000D01*
X100740802Y-103670428D01*
X100777088Y-103634142D01*
X100849660Y-103597857D01*
X100994802Y-103561571D01*
X101067374Y-103525285D01*
X101103660Y-103489000D01*
X101139945Y-103416428D01*
X101139945Y-103343857D01*
X101103660Y-103271285D01*
X101067374Y-103235000D01*
X100994802Y-103198714D01*
X100813374Y-103198714D01*
X100704517Y-103235000D01*
X100377945Y-103960714D02*
X100377945Y-103198714D01*
X100196517Y-103198714D01*
X100087660Y-103235000D01*
X100015088Y-103307571D01*
X99978802Y-103380142D01*
X99942517Y-103525285D01*
X99942517Y-103634142D01*
X99978802Y-103779285D01*
X100015088Y-103851857D01*
X100087660Y-103924428D01*
X100196517Y-103960714D01*
X100377945Y-103960714D01*
X99652231Y-103743000D02*
X99289374Y-103743000D01*
X99724802Y-103960714D02*
X99470802Y-103198714D01*
X99216802Y-103960714D01*
D14*
X88040712Y-82252857D02*
X87583570Y-82252857D01*
X87297855Y-82252857D02*
X86840712Y-82252857D01*
X86212141Y-82481428D02*
X86412141Y-82195714D01*
X86554998Y-82481428D02*
X86554998Y-81881428D01*
X86326427Y-81881428D01*
X86269284Y-81910000D01*
X86240712Y-81938571D01*
X86212141Y-81995714D01*
X86212141Y-82081428D01*
X86240712Y-82138571D01*
X86269284Y-82167142D01*
X86326427Y-82195714D01*
X86554998Y-82195714D01*
X85840712Y-81881428D02*
X85726427Y-81881428D01*
X85669284Y-81910000D01*
X85612141Y-81967142D01*
X85583570Y-82081428D01*
X85583570Y-82281428D01*
X85612141Y-82395714D01*
X85669284Y-82452857D01*
X85726427Y-82481428D01*
X85840712Y-82481428D01*
X85897855Y-82452857D01*
X85954998Y-82395714D01*
X85983570Y-82281428D01*
X85983570Y-82081428D01*
X85954998Y-81967142D01*
X85897855Y-81910000D01*
X85840712Y-81881428D01*
X85383570Y-81881428D02*
X85240712Y-82481428D01*
X85126427Y-82052857D01*
X85012141Y-82481428D01*
X84869284Y-81881428D01*
X84697855Y-81881428D02*
X84326427Y-81881428D01*
X84526427Y-82110000D01*
X84440712Y-82110000D01*
X84383570Y-82138571D01*
X84354998Y-82167142D01*
X84326427Y-82224285D01*
X84326427Y-82367142D01*
X84354998Y-82424285D01*
X84383570Y-82452857D01*
X84440712Y-82481428D01*
X84612141Y-82481428D01*
X84669284Y-82452857D01*
X84697855Y-82424285D01*
D11*
X198522857Y-54358428D02*
X198414000Y-54394714D01*
X198232572Y-54394714D01*
X198160000Y-54358428D01*
X198123714Y-54322142D01*
X198087429Y-54249571D01*
X198087429Y-54177000D01*
X198123714Y-54104428D01*
X198160000Y-54068142D01*
X198232572Y-54031857D01*
X198377714Y-53995571D01*
X198450286Y-53959285D01*
X198486572Y-53923000D01*
X198522857Y-53850428D01*
X198522857Y-53777857D01*
X198486572Y-53705285D01*
X198450286Y-53669000D01*
X198377714Y-53632714D01*
X198196286Y-53632714D01*
X198087429Y-53669000D01*
X197760857Y-54394714D02*
X197760857Y-53632714D01*
X197579429Y-53632714D01*
X197470572Y-53669000D01*
X197398000Y-53741571D01*
X197361714Y-53814142D01*
X197325429Y-53959285D01*
X197325429Y-54068142D01*
X197361714Y-54213285D01*
X197398000Y-54285857D01*
X197470572Y-54358428D01*
X197579429Y-54394714D01*
X197760857Y-54394714D01*
X197035143Y-54177000D02*
X196672286Y-54177000D01*
X197107714Y-54394714D02*
X196853714Y-53632714D01*
X196599714Y-54394714D01*
X96130660Y-103248714D02*
X95876660Y-104010714D01*
X95622660Y-103248714D01*
X94933231Y-103938142D02*
X94969517Y-103974428D01*
X95078374Y-104010714D01*
X95150945Y-104010714D01*
X95259802Y-103974428D01*
X95332374Y-103901857D01*
X95368660Y-103829285D01*
X95404945Y-103684142D01*
X95404945Y-103575285D01*
X95368660Y-103430142D01*
X95332374Y-103357571D01*
X95259802Y-103285000D01*
X95150945Y-103248714D01*
X95078374Y-103248714D01*
X94969517Y-103285000D01*
X94933231Y-103321285D01*
X94171231Y-103938142D02*
X94207517Y-103974428D01*
X94316374Y-104010714D01*
X94388945Y-104010714D01*
X94497802Y-103974428D01*
X94570374Y-103901857D01*
X94606660Y-103829285D01*
X94642945Y-103684142D01*
X94642945Y-103575285D01*
X94606660Y-103430142D01*
X94570374Y-103357571D01*
X94497802Y-103285000D01*
X94388945Y-103248714D01*
X94316374Y-103248714D01*
X94207517Y-103285000D01*
X94171231Y-103321285D01*
X200993428Y-54358428D02*
X200884571Y-54394714D01*
X200703143Y-54394714D01*
X200630571Y-54358428D01*
X200594286Y-54322142D01*
X200558000Y-54249571D01*
X200558000Y-54177000D01*
X200594286Y-54104428D01*
X200630571Y-54068142D01*
X200703143Y-54031857D01*
X200848286Y-53995571D01*
X200920857Y-53959285D01*
X200957143Y-53923000D01*
X200993428Y-53850428D01*
X200993428Y-53777857D01*
X200957143Y-53705285D01*
X200920857Y-53669000D01*
X200848286Y-53632714D01*
X200666857Y-53632714D01*
X200558000Y-53669000D01*
X199796000Y-54322142D02*
X199832286Y-54358428D01*
X199941143Y-54394714D01*
X200013714Y-54394714D01*
X200122571Y-54358428D01*
X200195143Y-54285857D01*
X200231428Y-54213285D01*
X200267714Y-54068142D01*
X200267714Y-53959285D01*
X200231428Y-53814142D01*
X200195143Y-53741571D01*
X200122571Y-53669000D01*
X200013714Y-53632714D01*
X199941143Y-53632714D01*
X199832286Y-53669000D01*
X199796000Y-53705285D01*
X199106571Y-54394714D02*
X199469428Y-54394714D01*
X199469428Y-53632714D01*
D14*
X107899284Y-82434285D02*
X107927855Y-82462857D01*
X108013570Y-82491428D01*
X108070712Y-82491428D01*
X108156427Y-82462857D01*
X108213570Y-82405714D01*
X108242141Y-82348571D01*
X108270712Y-82234285D01*
X108270712Y-82148571D01*
X108242141Y-82034285D01*
X108213570Y-81977142D01*
X108156427Y-81920000D01*
X108070712Y-81891428D01*
X108013570Y-81891428D01*
X107927855Y-81920000D01*
X107899284Y-81948571D01*
X107527855Y-81891428D02*
X107413570Y-81891428D01*
X107356427Y-81920000D01*
X107299284Y-81977142D01*
X107270712Y-82091428D01*
X107270712Y-82291428D01*
X107299284Y-82405714D01*
X107356427Y-82462857D01*
X107413570Y-82491428D01*
X107527855Y-82491428D01*
X107584998Y-82462857D01*
X107642141Y-82405714D01*
X107670712Y-82291428D01*
X107670712Y-82091428D01*
X107642141Y-81977142D01*
X107584998Y-81920000D01*
X107527855Y-81891428D01*
X106727855Y-82491428D02*
X107013570Y-82491428D01*
X107013570Y-81891428D01*
X106270712Y-82091428D02*
X106270712Y-82491428D01*
X106413570Y-81862857D02*
X106556427Y-82291428D01*
X106184998Y-82291428D01*
X105956427Y-82262857D02*
X105499284Y-82262857D01*
X105213570Y-82262857D02*
X104756427Y-82262857D01*
X107904284Y-74814285D02*
X107932855Y-74842857D01*
X108018570Y-74871428D01*
X108075712Y-74871428D01*
X108161427Y-74842857D01*
X108218570Y-74785714D01*
X108247141Y-74728571D01*
X108275712Y-74614285D01*
X108275712Y-74528571D01*
X108247141Y-74414285D01*
X108218570Y-74357142D01*
X108161427Y-74300000D01*
X108075712Y-74271428D01*
X108018570Y-74271428D01*
X107932855Y-74300000D01*
X107904284Y-74328571D01*
X107532855Y-74271428D02*
X107418570Y-74271428D01*
X107361427Y-74300000D01*
X107304284Y-74357142D01*
X107275712Y-74471428D01*
X107275712Y-74671428D01*
X107304284Y-74785714D01*
X107361427Y-74842857D01*
X107418570Y-74871428D01*
X107532855Y-74871428D01*
X107589998Y-74842857D01*
X107647141Y-74785714D01*
X107675712Y-74671428D01*
X107675712Y-74471428D01*
X107647141Y-74357142D01*
X107589998Y-74300000D01*
X107532855Y-74271428D01*
X106732855Y-74871428D02*
X107018570Y-74871428D01*
X107018570Y-74271428D01*
X106218570Y-74871428D02*
X106561427Y-74871428D01*
X106389998Y-74871428D02*
X106389998Y-74271428D01*
X106447141Y-74357142D01*
X106504284Y-74414285D01*
X106561427Y-74442857D01*
X105961427Y-74642857D02*
X105504284Y-74642857D01*
X105218570Y-74642857D02*
X104761427Y-74642857D01*
D10*
X158751071Y-110892857D02*
X158636785Y-110930952D01*
X158598690Y-110969047D01*
X158560595Y-111045238D01*
X158560595Y-111159523D01*
X158598690Y-111235714D01*
X158636785Y-111273809D01*
X158712976Y-111311904D01*
X159017738Y-111311904D01*
X159017738Y-110511904D01*
X158751071Y-110511904D01*
X158674880Y-110550000D01*
X158636785Y-110588095D01*
X158598690Y-110664285D01*
X158598690Y-110740476D01*
X158636785Y-110816666D01*
X158674880Y-110854761D01*
X158751071Y-110892857D01*
X159017738Y-110892857D01*
X158217738Y-110511904D02*
X158217738Y-111159523D01*
X158179642Y-111235714D01*
X158141547Y-111273809D01*
X158065357Y-111311904D01*
X157912976Y-111311904D01*
X157836785Y-111273809D01*
X157798690Y-111235714D01*
X157760595Y-111159523D01*
X157760595Y-110511904D01*
X157455833Y-110511904D02*
X156922500Y-110511904D01*
X157455833Y-111311904D01*
X156922500Y-111311904D01*
X156693928Y-110511904D02*
X156160595Y-110511904D01*
X156693928Y-111311904D01*
X156160595Y-111311904D01*
X155855833Y-110892857D02*
X155589166Y-110892857D01*
X155474880Y-111311904D02*
X155855833Y-111311904D01*
X155855833Y-110511904D01*
X155474880Y-110511904D01*
X154674880Y-111311904D02*
X154941547Y-110930952D01*
X155132023Y-111311904D02*
X155132023Y-110511904D01*
X154827261Y-110511904D01*
X154751071Y-110550000D01*
X154712976Y-110588095D01*
X154674880Y-110664285D01*
X154674880Y-110778571D01*
X154712976Y-110854761D01*
X154751071Y-110892857D01*
X154827261Y-110930952D01*
X155132023Y-110930952D01*
D14*
X108699284Y-66937142D02*
X108499284Y-66937142D01*
X108413570Y-67251428D02*
X108699284Y-67251428D01*
X108699284Y-66651428D01*
X108413570Y-66651428D01*
X108156427Y-67251428D02*
X108156427Y-66651428D01*
X107813570Y-67251428D01*
X107813570Y-66651428D01*
X107184998Y-67194285D02*
X107213570Y-67222857D01*
X107299284Y-67251428D01*
X107356427Y-67251428D01*
X107442141Y-67222857D01*
X107499284Y-67165714D01*
X107527855Y-67108571D01*
X107556427Y-66994285D01*
X107556427Y-66908571D01*
X107527855Y-66794285D01*
X107499284Y-66737142D01*
X107442141Y-66680000D01*
X107356427Y-66651428D01*
X107299284Y-66651428D01*
X107213570Y-66680000D01*
X107184998Y-66708571D01*
X106499284Y-67080000D02*
X106213570Y-67080000D01*
X106556427Y-67251428D02*
X106356427Y-66651428D01*
X106156427Y-67251428D01*
X105956427Y-67022857D02*
X105499284Y-67022857D01*
X105213570Y-67022857D02*
X104756427Y-67022857D01*
X88040712Y-74632857D02*
X87583570Y-74632857D01*
X87297855Y-74632857D02*
X86840712Y-74632857D01*
X86212141Y-74861428D02*
X86412141Y-74575714D01*
X86554998Y-74861428D02*
X86554998Y-74261428D01*
X86326427Y-74261428D01*
X86269284Y-74290000D01*
X86240712Y-74318571D01*
X86212141Y-74375714D01*
X86212141Y-74461428D01*
X86240712Y-74518571D01*
X86269284Y-74547142D01*
X86326427Y-74575714D01*
X86554998Y-74575714D01*
X85840712Y-74261428D02*
X85726427Y-74261428D01*
X85669284Y-74290000D01*
X85612141Y-74347142D01*
X85583570Y-74461428D01*
X85583570Y-74661428D01*
X85612141Y-74775714D01*
X85669284Y-74832857D01*
X85726427Y-74861428D01*
X85840712Y-74861428D01*
X85897855Y-74832857D01*
X85954998Y-74775714D01*
X85983570Y-74661428D01*
X85983570Y-74461428D01*
X85954998Y-74347142D01*
X85897855Y-74290000D01*
X85840712Y-74261428D01*
X85383570Y-74261428D02*
X85240712Y-74861428D01*
X85126427Y-74432857D01*
X85012141Y-74861428D01*
X84869284Y-74261428D01*
X84526427Y-74261428D02*
X84469284Y-74261428D01*
X84412141Y-74290000D01*
X84383570Y-74318571D01*
X84354998Y-74375714D01*
X84326427Y-74490000D01*
X84326427Y-74632857D01*
X84354998Y-74747142D01*
X84383570Y-74804285D01*
X84412141Y-74832857D01*
X84469284Y-74861428D01*
X84526427Y-74861428D01*
X84583570Y-74832857D01*
X84612141Y-74804285D01*
X84640712Y-74747142D01*
X84669284Y-74632857D01*
X84669284Y-74490000D01*
X84640712Y-74375714D01*
X84612141Y-74318571D01*
X84583570Y-74290000D01*
X84526427Y-74261428D01*
D10*
X90534642Y-103057142D02*
X90448928Y-103085714D01*
X90420357Y-103114285D01*
X90391785Y-103171428D01*
X90391785Y-103257142D01*
X90420357Y-103314285D01*
X90448928Y-103342857D01*
X90506071Y-103371428D01*
X90734642Y-103371428D01*
X90734642Y-102771428D01*
X90534642Y-102771428D01*
X90477500Y-102800000D01*
X90448928Y-102828571D01*
X90420357Y-102885714D01*
X90420357Y-102942857D01*
X90448928Y-103000000D01*
X90477500Y-103028571D01*
X90534642Y-103057142D01*
X90734642Y-103057142D01*
X89848928Y-103371428D02*
X90134642Y-103371428D01*
X90134642Y-102771428D01*
X89648928Y-103371428D02*
X89648928Y-102771428D01*
X89306071Y-103371428D02*
X89563214Y-103028571D01*
X89306071Y-102771428D02*
X89648928Y-103114285D01*
D14*
X107242141Y-62171428D02*
X107442141Y-61885714D01*
X107584998Y-62171428D02*
X107584998Y-61571428D01*
X107356427Y-61571428D01*
X107299284Y-61600000D01*
X107270712Y-61628571D01*
X107242141Y-61685714D01*
X107242141Y-61771428D01*
X107270712Y-61828571D01*
X107299284Y-61857142D01*
X107356427Y-61885714D01*
X107584998Y-61885714D01*
X107013570Y-62142857D02*
X106927855Y-62171428D01*
X106784998Y-62171428D01*
X106727855Y-62142857D01*
X106699284Y-62114285D01*
X106670712Y-62057142D01*
X106670712Y-62000000D01*
X106699284Y-61942857D01*
X106727855Y-61914285D01*
X106784998Y-61885714D01*
X106899284Y-61857142D01*
X106956427Y-61828571D01*
X106984998Y-61800000D01*
X107013570Y-61742857D01*
X107013570Y-61685714D01*
X106984998Y-61628571D01*
X106956427Y-61600000D01*
X106899284Y-61571428D01*
X106756427Y-61571428D01*
X106670712Y-61600000D01*
X106499284Y-61571428D02*
X106156427Y-61571428D01*
X106327855Y-62171428D02*
X106327855Y-61571428D01*
X105956427Y-61942857D02*
X105499284Y-61942857D01*
X105213570Y-61942857D02*
X104756427Y-61942857D01*
X107899284Y-72274285D02*
X107927855Y-72302857D01*
X108013570Y-72331428D01*
X108070712Y-72331428D01*
X108156427Y-72302857D01*
X108213570Y-72245714D01*
X108242141Y-72188571D01*
X108270712Y-72074285D01*
X108270712Y-71988571D01*
X108242141Y-71874285D01*
X108213570Y-71817142D01*
X108156427Y-71760000D01*
X108070712Y-71731428D01*
X108013570Y-71731428D01*
X107927855Y-71760000D01*
X107899284Y-71788571D01*
X107527855Y-71731428D02*
X107413570Y-71731428D01*
X107356427Y-71760000D01*
X107299284Y-71817142D01*
X107270712Y-71931428D01*
X107270712Y-72131428D01*
X107299284Y-72245714D01*
X107356427Y-72302857D01*
X107413570Y-72331428D01*
X107527855Y-72331428D01*
X107584998Y-72302857D01*
X107642141Y-72245714D01*
X107670712Y-72131428D01*
X107670712Y-71931428D01*
X107642141Y-71817142D01*
X107584998Y-71760000D01*
X107527855Y-71731428D01*
X106727855Y-72331428D02*
X107013570Y-72331428D01*
X107013570Y-71731428D01*
X106413570Y-71731428D02*
X106356427Y-71731428D01*
X106299284Y-71760000D01*
X106270712Y-71788571D01*
X106242141Y-71845714D01*
X106213570Y-71960000D01*
X106213570Y-72102857D01*
X106242141Y-72217142D01*
X106270712Y-72274285D01*
X106299284Y-72302857D01*
X106356427Y-72331428D01*
X106413570Y-72331428D01*
X106470712Y-72302857D01*
X106499284Y-72274285D01*
X106527855Y-72217142D01*
X106556427Y-72102857D01*
X106556427Y-71960000D01*
X106527855Y-71845714D01*
X106499284Y-71788571D01*
X106470712Y-71760000D01*
X106413570Y-71731428D01*
X105956427Y-72102857D02*
X105499284Y-72102857D01*
X105213570Y-72102857D02*
X104756427Y-72102857D01*
D10*
X97207095Y-78262023D02*
X98007095Y-78262023D01*
X97435666Y-77995357D01*
X98007095Y-77728690D01*
X97207095Y-77728690D01*
X98007095Y-77195357D02*
X98007095Y-77042976D01*
X97969000Y-76966785D01*
X97892809Y-76890595D01*
X97740428Y-76852500D01*
X97473761Y-76852500D01*
X97321380Y-76890595D01*
X97245190Y-76966785D01*
X97207095Y-77042976D01*
X97207095Y-77195357D01*
X97245190Y-77271547D01*
X97321380Y-77347738D01*
X97473761Y-77385833D01*
X97740428Y-77385833D01*
X97892809Y-77347738D01*
X97969000Y-77271547D01*
X98007095Y-77195357D01*
X98007095Y-76509642D02*
X97359476Y-76509642D01*
X97283285Y-76471547D01*
X97245190Y-76433452D01*
X97207095Y-76357261D01*
X97207095Y-76204880D01*
X97245190Y-76128690D01*
X97283285Y-76090595D01*
X97359476Y-76052500D01*
X98007095Y-76052500D01*
X97207095Y-75671547D02*
X98007095Y-75671547D01*
X97207095Y-75214404D01*
X98007095Y-75214404D01*
X98007095Y-74947738D02*
X98007095Y-74490595D01*
X97207095Y-74719166D02*
X98007095Y-74719166D01*
X97207095Y-73614404D02*
X98007095Y-73614404D01*
X97435666Y-73347738D01*
X98007095Y-73081071D01*
X97207095Y-73081071D01*
X97283285Y-72242976D02*
X97245190Y-72281071D01*
X97207095Y-72395357D01*
X97207095Y-72471547D01*
X97245190Y-72585833D01*
X97321380Y-72662023D01*
X97397571Y-72700119D01*
X97549952Y-72738214D01*
X97664238Y-72738214D01*
X97816619Y-72700119D01*
X97892809Y-72662023D01*
X97969000Y-72585833D01*
X98007095Y-72471547D01*
X98007095Y-72395357D01*
X97969000Y-72281071D01*
X97930904Y-72242976D01*
X98007095Y-71900119D02*
X97359476Y-71900119D01*
X97283285Y-71862023D01*
X97245190Y-71823928D01*
X97207095Y-71747738D01*
X97207095Y-71595357D01*
X97245190Y-71519166D01*
X97283285Y-71481071D01*
X97359476Y-71442976D01*
X98007095Y-71442976D01*
X98007095Y-70300119D02*
X98007095Y-70147738D01*
X97969000Y-70071547D01*
X97892809Y-69995357D01*
X97740428Y-69957261D01*
X97473761Y-69957261D01*
X97321380Y-69995357D01*
X97245190Y-70071547D01*
X97207095Y-70147738D01*
X97207095Y-70300119D01*
X97245190Y-70376309D01*
X97321380Y-70452499D01*
X97473761Y-70490595D01*
X97740428Y-70490595D01*
X97892809Y-70452499D01*
X97969000Y-70376309D01*
X98007095Y-70300119D01*
X97207095Y-69614404D02*
X98007095Y-69614404D01*
X97207095Y-69157261D01*
X98007095Y-69157261D01*
X97626142Y-67900119D02*
X97588047Y-67785833D01*
X97549952Y-67747738D01*
X97473761Y-67709642D01*
X97359476Y-67709642D01*
X97283285Y-67747738D01*
X97245190Y-67785833D01*
X97207095Y-67862023D01*
X97207095Y-68166785D01*
X98007095Y-68166785D01*
X98007095Y-67900119D01*
X97969000Y-67823928D01*
X97930904Y-67785833D01*
X97854714Y-67747738D01*
X97778523Y-67747738D01*
X97702333Y-67785833D01*
X97664238Y-67823928D01*
X97626142Y-67900119D01*
X97626142Y-68166785D01*
X98007095Y-67214404D02*
X98007095Y-67062023D01*
X97969000Y-66985833D01*
X97892809Y-66909642D01*
X97740428Y-66871547D01*
X97473761Y-66871547D01*
X97321380Y-66909642D01*
X97245190Y-66985833D01*
X97207095Y-67062023D01*
X97207095Y-67214404D01*
X97245190Y-67290595D01*
X97321380Y-67366785D01*
X97473761Y-67404880D01*
X97740428Y-67404880D01*
X97892809Y-67366785D01*
X97969000Y-67290595D01*
X98007095Y-67214404D01*
X98007095Y-66642976D02*
X98007095Y-66185833D01*
X97207095Y-66414404D02*
X98007095Y-66414404D01*
X98007095Y-66033452D02*
X98007095Y-65576309D01*
X97207095Y-65804880D02*
X98007095Y-65804880D01*
X98007095Y-65157261D02*
X98007095Y-65004880D01*
X97969000Y-64928690D01*
X97892809Y-64852499D01*
X97740428Y-64814404D01*
X97473761Y-64814404D01*
X97321380Y-64852499D01*
X97245190Y-64928690D01*
X97207095Y-65004880D01*
X97207095Y-65157261D01*
X97245190Y-65233452D01*
X97321380Y-65309642D01*
X97473761Y-65347738D01*
X97740428Y-65347738D01*
X97892809Y-65309642D01*
X97969000Y-65233452D01*
X98007095Y-65157261D01*
X97207095Y-64471547D02*
X98007095Y-64471547D01*
X97435666Y-64204880D01*
X98007095Y-63938214D01*
X97207095Y-63938214D01*
X95995285Y-77804880D02*
X95957190Y-77842976D01*
X95919095Y-77957261D01*
X95919095Y-78033452D01*
X95957190Y-78147738D01*
X96033380Y-78223928D01*
X96109571Y-78262023D01*
X96261952Y-78300119D01*
X96376238Y-78300119D01*
X96528619Y-78262023D01*
X96604809Y-78223928D01*
X96681000Y-78147738D01*
X96719095Y-78033452D01*
X96719095Y-77957261D01*
X96681000Y-77842976D01*
X96642904Y-77804880D01*
X96719095Y-77309642D02*
X96719095Y-77157261D01*
X96681000Y-77081071D01*
X96604809Y-77004880D01*
X96452428Y-76966785D01*
X96185761Y-76966785D01*
X96033380Y-77004880D01*
X95957190Y-77081071D01*
X95919095Y-77157261D01*
X95919095Y-77309642D01*
X95957190Y-77385833D01*
X96033380Y-77462023D01*
X96185761Y-77500119D01*
X96452428Y-77500119D01*
X96604809Y-77462023D01*
X96681000Y-77385833D01*
X96719095Y-77309642D01*
X95919095Y-76623928D02*
X96719095Y-76623928D01*
X96147666Y-76357261D01*
X96719095Y-76090595D01*
X95919095Y-76090595D01*
X95919095Y-75709642D02*
X96719095Y-75709642D01*
X96719095Y-75404880D01*
X96681000Y-75328690D01*
X96642904Y-75290595D01*
X96566714Y-75252500D01*
X96452428Y-75252500D01*
X96376238Y-75290595D01*
X96338142Y-75328690D01*
X96300047Y-75404880D01*
X96300047Y-75709642D01*
X96719095Y-74757261D02*
X96719095Y-74604880D01*
X96681000Y-74528690D01*
X96604809Y-74452500D01*
X96452428Y-74414404D01*
X96185761Y-74414404D01*
X96033380Y-74452500D01*
X95957190Y-74528690D01*
X95919095Y-74604880D01*
X95919095Y-74757261D01*
X95957190Y-74833452D01*
X96033380Y-74909642D01*
X96185761Y-74947738D01*
X96452428Y-74947738D01*
X96604809Y-74909642D01*
X96681000Y-74833452D01*
X96719095Y-74757261D01*
X95919095Y-74071547D02*
X96719095Y-74071547D01*
X95919095Y-73614404D01*
X96719095Y-73614404D01*
X96338142Y-73233452D02*
X96338142Y-72966785D01*
X95919095Y-72852500D02*
X95919095Y-73233452D01*
X96719095Y-73233452D01*
X96719095Y-72852500D01*
X95919095Y-72509642D02*
X96719095Y-72509642D01*
X95919095Y-72052500D01*
X96719095Y-72052500D01*
X96719095Y-71785833D02*
X96719095Y-71328690D01*
X95919095Y-71557261D02*
X96719095Y-71557261D01*
X95957190Y-71100119D02*
X95919095Y-70985833D01*
X95919095Y-70795357D01*
X95957190Y-70719166D01*
X95995285Y-70681071D01*
X96071476Y-70642976D01*
X96147666Y-70642976D01*
X96223857Y-70681071D01*
X96261952Y-70719166D01*
X96300047Y-70795357D01*
X96338142Y-70947738D01*
X96376238Y-71023928D01*
X96414333Y-71062023D01*
X96490523Y-71100119D01*
X96566714Y-71100119D01*
X96642904Y-71062023D01*
X96681000Y-71023928D01*
X96719095Y-70947738D01*
X96719095Y-70757261D01*
X96681000Y-70642976D01*
X96338142Y-69423928D02*
X96338142Y-69690595D01*
X95919095Y-69690595D02*
X96719095Y-69690595D01*
X96719095Y-69309642D01*
X96147666Y-69042976D02*
X96147666Y-68662023D01*
X95919095Y-69119166D02*
X96719095Y-68852500D01*
X95919095Y-68585833D01*
X95995285Y-67862023D02*
X95957190Y-67900119D01*
X95919095Y-68014404D01*
X95919095Y-68090595D01*
X95957190Y-68204880D01*
X96033380Y-68281071D01*
X96109571Y-68319166D01*
X96261952Y-68357261D01*
X96376238Y-68357261D01*
X96528619Y-68319166D01*
X96604809Y-68281071D01*
X96681000Y-68204880D01*
X96719095Y-68090595D01*
X96719095Y-68014404D01*
X96681000Y-67900119D01*
X96642904Y-67862023D01*
X95919095Y-67519166D02*
X96719095Y-67519166D01*
X95919095Y-67138214D02*
X96719095Y-67138214D01*
X95919095Y-66681071D01*
X96719095Y-66681071D01*
X96681000Y-65881071D02*
X96719095Y-65957261D01*
X96719095Y-66071547D01*
X96681000Y-66185833D01*
X96604809Y-66262023D01*
X96528619Y-66300119D01*
X96376238Y-66338214D01*
X96261952Y-66338214D01*
X96109571Y-66300119D01*
X96033380Y-66262023D01*
X95957190Y-66185833D01*
X95919095Y-66071547D01*
X95919095Y-65995357D01*
X95957190Y-65881071D01*
X95995285Y-65842976D01*
X96261952Y-65842976D01*
X96261952Y-65995357D01*
X95919095Y-64890595D02*
X96719095Y-64890595D01*
X96719095Y-64585833D01*
X96681000Y-64509642D01*
X96642904Y-64471547D01*
X96566714Y-64433452D01*
X96452428Y-64433452D01*
X96376238Y-64471547D01*
X96338142Y-64509642D01*
X96300047Y-64585833D01*
X96300047Y-64890595D01*
X95995285Y-63633452D02*
X95957190Y-63671547D01*
X95919095Y-63785833D01*
X95919095Y-63862023D01*
X95957190Y-63976309D01*
X96033380Y-64052500D01*
X96109571Y-64090595D01*
X96261952Y-64128690D01*
X96376238Y-64128690D01*
X96528619Y-64090595D01*
X96604809Y-64052500D01*
X96681000Y-63976309D01*
X96719095Y-63862023D01*
X96719095Y-63785833D01*
X96681000Y-63671547D01*
X96642904Y-63633452D01*
X96338142Y-63023928D02*
X96300047Y-62909642D01*
X96261952Y-62871547D01*
X96185761Y-62833452D01*
X96071476Y-62833452D01*
X95995285Y-62871547D01*
X95957190Y-62909642D01*
X95919095Y-62985833D01*
X95919095Y-63290595D01*
X96719095Y-63290595D01*
X96719095Y-63023928D01*
X96681000Y-62947738D01*
X96642904Y-62909642D01*
X96566714Y-62871547D01*
X96490523Y-62871547D01*
X96414333Y-62909642D01*
X96376238Y-62947738D01*
X96338142Y-63023928D01*
X96338142Y-63290595D01*
D11*
X139357878Y-121958304D02*
X138922450Y-121958304D01*
X139140164Y-122720304D02*
X139140164Y-121958304D01*
X138233021Y-122720304D02*
X138487021Y-122357447D01*
X138668450Y-122720304D02*
X138668450Y-121958304D01*
X138378164Y-121958304D01*
X138305592Y-121994590D01*
X138269307Y-122030875D01*
X138233021Y-122103447D01*
X138233021Y-122212304D01*
X138269307Y-122284875D01*
X138305592Y-122321161D01*
X138378164Y-122357447D01*
X138668450Y-122357447D01*
X137942735Y-122502590D02*
X137579878Y-122502590D01*
X138015307Y-122720304D02*
X137761307Y-121958304D01*
X137507307Y-122720304D01*
X136817878Y-122647732D02*
X136854164Y-122684018D01*
X136963021Y-122720304D01*
X137035592Y-122720304D01*
X137144450Y-122684018D01*
X137217021Y-122611447D01*
X137253307Y-122538875D01*
X137289592Y-122393732D01*
X137289592Y-122284875D01*
X137253307Y-122139732D01*
X137217021Y-122067161D01*
X137144450Y-121994590D01*
X137035592Y-121958304D01*
X136963021Y-121958304D01*
X136854164Y-121994590D01*
X136817878Y-122030875D01*
X136491307Y-122720304D02*
X136491307Y-121958304D01*
X136055878Y-122720304D02*
X136382450Y-122284875D01*
X136055878Y-121958304D02*
X136491307Y-122393732D01*
X138995021Y-123547981D02*
X138886164Y-123584267D01*
X138849878Y-123620552D01*
X138813592Y-123693124D01*
X138813592Y-123801981D01*
X138849878Y-123874552D01*
X138886164Y-123910838D01*
X138958735Y-123947124D01*
X139249021Y-123947124D01*
X139249021Y-123185124D01*
X138995021Y-123185124D01*
X138922450Y-123221410D01*
X138886164Y-123257695D01*
X138849878Y-123330267D01*
X138849878Y-123402838D01*
X138886164Y-123475410D01*
X138922450Y-123511695D01*
X138995021Y-123547981D01*
X139249021Y-123547981D01*
X138523307Y-123729410D02*
X138160450Y-123729410D01*
X138595878Y-123947124D02*
X138341878Y-123185124D01*
X138087878Y-123947124D01*
X137471021Y-123947124D02*
X137833878Y-123947124D01*
X137833878Y-123185124D01*
X136854164Y-123947124D02*
X137217021Y-123947124D01*
X137217021Y-123185124D01*
X98597143Y-103924428D02*
X98488286Y-103960714D01*
X98306858Y-103960714D01*
X98234286Y-103924428D01*
X98198001Y-103888142D01*
X98161715Y-103815571D01*
X98161715Y-103743000D01*
X98198001Y-103670428D01*
X98234286Y-103634142D01*
X98306858Y-103597857D01*
X98452001Y-103561571D01*
X98524572Y-103525285D01*
X98560858Y-103489000D01*
X98597143Y-103416428D01*
X98597143Y-103343857D01*
X98560858Y-103271285D01*
X98524572Y-103235000D01*
X98452001Y-103198714D01*
X98270572Y-103198714D01*
X98161715Y-103235000D01*
X97399715Y-103888142D02*
X97436001Y-103924428D01*
X97544858Y-103960714D01*
X97617429Y-103960714D01*
X97726286Y-103924428D01*
X97798858Y-103851857D01*
X97835143Y-103779285D01*
X97871429Y-103634142D01*
X97871429Y-103525285D01*
X97835143Y-103380142D01*
X97798858Y-103307571D01*
X97726286Y-103235000D01*
X97617429Y-103198714D01*
X97544858Y-103198714D01*
X97436001Y-103235000D01*
X97399715Y-103271285D01*
X96710286Y-103960714D02*
X97073143Y-103960714D01*
X97073143Y-103198714D01*
D14*
X88040712Y-72092857D02*
X87583570Y-72092857D01*
X87297855Y-72092857D02*
X86840712Y-72092857D01*
X86212141Y-72321428D02*
X86412141Y-72035714D01*
X86554998Y-72321428D02*
X86554998Y-71721428D01*
X86326427Y-71721428D01*
X86269284Y-71750000D01*
X86240712Y-71778571D01*
X86212141Y-71835714D01*
X86212141Y-71921428D01*
X86240712Y-71978571D01*
X86269284Y-72007142D01*
X86326427Y-72035714D01*
X86554998Y-72035714D01*
X86012141Y-71721428D02*
X85612141Y-72321428D01*
X85612141Y-71721428D02*
X86012141Y-72321428D01*
D11*
X148985285Y-116187428D02*
X148876428Y-116223714D01*
X148695000Y-116223714D01*
X148622428Y-116187428D01*
X148586142Y-116151142D01*
X148549857Y-116078571D01*
X148549857Y-116006000D01*
X148586142Y-115933428D01*
X148622428Y-115897142D01*
X148695000Y-115860857D01*
X148840142Y-115824571D01*
X148912714Y-115788285D01*
X148949000Y-115752000D01*
X148985285Y-115679428D01*
X148985285Y-115606857D01*
X148949000Y-115534285D01*
X148912714Y-115498000D01*
X148840142Y-115461714D01*
X148658714Y-115461714D01*
X148549857Y-115498000D01*
X148223285Y-116223714D02*
X148223285Y-115461714D01*
X148041857Y-115461714D01*
X147933000Y-115498000D01*
X147860428Y-115570571D01*
X147824142Y-115643142D01*
X147787857Y-115788285D01*
X147787857Y-115897142D01*
X147824142Y-116042285D01*
X147860428Y-116114857D01*
X147933000Y-116187428D01*
X148041857Y-116223714D01*
X148223285Y-116223714D01*
X147497571Y-116006000D02*
X147134714Y-116006000D01*
X147570142Y-116223714D02*
X147316142Y-115461714D01*
X147062142Y-116223714D01*
D10*
X83395238Y-113142857D02*
X83280952Y-113180952D01*
X83242857Y-113219047D01*
X83204761Y-113295238D01*
X83204761Y-113409523D01*
X83242857Y-113485714D01*
X83280952Y-113523809D01*
X83357142Y-113561904D01*
X83661904Y-113561904D01*
X83661904Y-112761904D01*
X83395238Y-112761904D01*
X83319047Y-112800000D01*
X83280952Y-112838095D01*
X83242857Y-112914285D01*
X83242857Y-112990476D01*
X83280952Y-113066666D01*
X83319047Y-113104761D01*
X83395238Y-113142857D01*
X83661904Y-113142857D01*
X82900000Y-113333333D02*
X82519047Y-113333333D01*
X82976190Y-113561904D02*
X82709523Y-112761904D01*
X82442857Y-113561904D01*
X82290476Y-112761904D02*
X81833333Y-112761904D01*
X82061904Y-113561904D02*
X82061904Y-112761904D01*
X81680952Y-112761904D02*
X81223809Y-112761904D01*
X81452380Y-113561904D02*
X81452380Y-112761904D01*
D14*
X107899284Y-77354285D02*
X107927855Y-77382857D01*
X108013570Y-77411428D01*
X108070712Y-77411428D01*
X108156427Y-77382857D01*
X108213570Y-77325714D01*
X108242141Y-77268571D01*
X108270712Y-77154285D01*
X108270712Y-77068571D01*
X108242141Y-76954285D01*
X108213570Y-76897142D01*
X108156427Y-76840000D01*
X108070712Y-76811428D01*
X108013570Y-76811428D01*
X107927855Y-76840000D01*
X107899284Y-76868571D01*
X107527855Y-76811428D02*
X107413570Y-76811428D01*
X107356427Y-76840000D01*
X107299284Y-76897142D01*
X107270712Y-77011428D01*
X107270712Y-77211428D01*
X107299284Y-77325714D01*
X107356427Y-77382857D01*
X107413570Y-77411428D01*
X107527855Y-77411428D01*
X107584998Y-77382857D01*
X107642141Y-77325714D01*
X107670712Y-77211428D01*
X107670712Y-77011428D01*
X107642141Y-76897142D01*
X107584998Y-76840000D01*
X107527855Y-76811428D01*
X106727855Y-77411428D02*
X107013570Y-77411428D01*
X107013570Y-76811428D01*
X106556427Y-76868571D02*
X106527855Y-76840000D01*
X106470712Y-76811428D01*
X106327855Y-76811428D01*
X106270712Y-76840000D01*
X106242141Y-76868571D01*
X106213570Y-76925714D01*
X106213570Y-76982857D01*
X106242141Y-77068571D01*
X106584998Y-77411428D01*
X106213570Y-77411428D01*
X105956427Y-77182857D02*
X105499284Y-77182857D01*
X105213570Y-77182857D02*
X104756427Y-77182857D01*
D11*
X93143198Y-103223000D02*
X93215769Y-103186714D01*
X93324627Y-103186714D01*
X93433484Y-103223000D01*
X93506055Y-103295571D01*
X93542341Y-103368142D01*
X93578627Y-103513285D01*
X93578627Y-103622142D01*
X93542341Y-103767285D01*
X93506055Y-103839857D01*
X93433484Y-103912428D01*
X93324627Y-103948714D01*
X93252055Y-103948714D01*
X93143198Y-103912428D01*
X93106912Y-103876142D01*
X93106912Y-103622142D01*
X93252055Y-103622142D01*
X92780341Y-103948714D02*
X92780341Y-103186714D01*
X92344912Y-103948714D01*
X92344912Y-103186714D01*
X91982055Y-103948714D02*
X91982055Y-103186714D01*
X91800627Y-103186714D01*
X91691769Y-103223000D01*
X91619198Y-103295571D01*
X91582912Y-103368142D01*
X91546627Y-103513285D01*
X91546627Y-103622142D01*
X91582912Y-103767285D01*
X91619198Y-103839857D01*
X91691769Y-103912428D01*
X91800627Y-103948714D01*
X91982055Y-103948714D01*
D14*
X88040712Y-79712857D02*
X87583570Y-79712857D01*
X87297855Y-79712857D02*
X86840712Y-79712857D01*
X86212141Y-79941428D02*
X86412141Y-79655714D01*
X86554998Y-79941428D02*
X86554998Y-79341428D01*
X86326427Y-79341428D01*
X86269284Y-79370000D01*
X86240712Y-79398571D01*
X86212141Y-79455714D01*
X86212141Y-79541428D01*
X86240712Y-79598571D01*
X86269284Y-79627142D01*
X86326427Y-79655714D01*
X86554998Y-79655714D01*
X85840712Y-79341428D02*
X85726427Y-79341428D01*
X85669284Y-79370000D01*
X85612141Y-79427142D01*
X85583570Y-79541428D01*
X85583570Y-79741428D01*
X85612141Y-79855714D01*
X85669284Y-79912857D01*
X85726427Y-79941428D01*
X85840712Y-79941428D01*
X85897855Y-79912857D01*
X85954998Y-79855714D01*
X85983570Y-79741428D01*
X85983570Y-79541428D01*
X85954998Y-79427142D01*
X85897855Y-79370000D01*
X85840712Y-79341428D01*
X85383570Y-79341428D02*
X85240712Y-79941428D01*
X85126427Y-79512857D01*
X85012141Y-79941428D01*
X84869284Y-79341428D01*
X84669284Y-79398571D02*
X84640712Y-79370000D01*
X84583570Y-79341428D01*
X84440712Y-79341428D01*
X84383570Y-79370000D01*
X84354998Y-79398571D01*
X84326427Y-79455714D01*
X84326427Y-79512857D01*
X84354998Y-79598571D01*
X84697855Y-79941428D01*
X84326427Y-79941428D01*
D11*
X140940571Y-115498000D02*
X141013142Y-115461714D01*
X141122000Y-115461714D01*
X141230857Y-115498000D01*
X141303428Y-115570571D01*
X141339714Y-115643142D01*
X141376000Y-115788285D01*
X141376000Y-115897142D01*
X141339714Y-116042285D01*
X141303428Y-116114857D01*
X141230857Y-116187428D01*
X141122000Y-116223714D01*
X141049428Y-116223714D01*
X140940571Y-116187428D01*
X140904285Y-116151142D01*
X140904285Y-115897142D01*
X141049428Y-115897142D01*
X140577714Y-116223714D02*
X140577714Y-115461714D01*
X140142285Y-116223714D01*
X140142285Y-115461714D01*
X139779428Y-116223714D02*
X139779428Y-115461714D01*
X139598000Y-115461714D01*
X139489142Y-115498000D01*
X139416571Y-115570571D01*
X139380285Y-115643142D01*
X139344000Y-115788285D01*
X139344000Y-115897142D01*
X139380285Y-116042285D01*
X139416571Y-116114857D01*
X139489142Y-116187428D01*
X139598000Y-116223714D01*
X139779428Y-116223714D01*
D14*
X108784998Y-69477142D02*
X108584998Y-69477142D01*
X108499284Y-69791428D02*
X108784998Y-69791428D01*
X108784998Y-69191428D01*
X108499284Y-69191428D01*
X108242141Y-69791428D02*
X108242141Y-69191428D01*
X107899284Y-69791428D01*
X107899284Y-69191428D01*
X107270712Y-69734285D02*
X107299284Y-69762857D01*
X107384998Y-69791428D01*
X107442141Y-69791428D01*
X107527855Y-69762857D01*
X107584998Y-69705714D01*
X107613570Y-69648571D01*
X107642141Y-69534285D01*
X107642141Y-69448571D01*
X107613570Y-69334285D01*
X107584998Y-69277142D01*
X107527855Y-69220000D01*
X107442141Y-69191428D01*
X107384998Y-69191428D01*
X107299284Y-69220000D01*
X107270712Y-69248571D01*
X106356427Y-69477142D02*
X106270712Y-69505714D01*
X106242141Y-69534285D01*
X106213570Y-69591428D01*
X106213570Y-69677142D01*
X106242141Y-69734285D01*
X106270712Y-69762857D01*
X106327855Y-69791428D01*
X106556427Y-69791428D01*
X106556427Y-69191428D01*
X106356427Y-69191428D01*
X106299284Y-69220000D01*
X106270712Y-69248571D01*
X106242141Y-69305714D01*
X106242141Y-69362857D01*
X106270712Y-69420000D01*
X106299284Y-69448571D01*
X106356427Y-69477142D01*
X106556427Y-69477142D01*
X105956427Y-69562857D02*
X105499284Y-69562857D01*
X105213570Y-69562857D02*
X104756427Y-69562857D01*
X88040712Y-56852857D02*
X87583570Y-56852857D01*
X87297855Y-56852857D02*
X86840712Y-56852857D01*
X86269284Y-57081428D02*
X86554998Y-57081428D01*
X86554998Y-56481428D01*
X86069284Y-56767142D02*
X85869284Y-56767142D01*
X85783570Y-57081428D02*
X86069284Y-57081428D01*
X86069284Y-56481428D01*
X85783570Y-56481428D01*
X85526427Y-57081428D02*
X85526427Y-56481428D01*
X85383570Y-56481428D01*
X85297855Y-56510000D01*
X85240712Y-56567142D01*
X85212141Y-56624285D01*
X85183570Y-56738571D01*
X85183570Y-56824285D01*
X85212141Y-56938571D01*
X85240712Y-56995714D01*
X85297855Y-57052857D01*
X85383570Y-57081428D01*
X85526427Y-57081428D01*
X107899284Y-79894285D02*
X107927855Y-79922857D01*
X108013570Y-79951428D01*
X108070712Y-79951428D01*
X108156427Y-79922857D01*
X108213570Y-79865714D01*
X108242141Y-79808571D01*
X108270712Y-79694285D01*
X108270712Y-79608571D01*
X108242141Y-79494285D01*
X108213570Y-79437142D01*
X108156427Y-79380000D01*
X108070712Y-79351428D01*
X108013570Y-79351428D01*
X107927855Y-79380000D01*
X107899284Y-79408571D01*
X107527855Y-79351428D02*
X107413570Y-79351428D01*
X107356427Y-79380000D01*
X107299284Y-79437142D01*
X107270712Y-79551428D01*
X107270712Y-79751428D01*
X107299284Y-79865714D01*
X107356427Y-79922857D01*
X107413570Y-79951428D01*
X107527855Y-79951428D01*
X107584998Y-79922857D01*
X107642141Y-79865714D01*
X107670712Y-79751428D01*
X107670712Y-79551428D01*
X107642141Y-79437142D01*
X107584998Y-79380000D01*
X107527855Y-79351428D01*
X106727855Y-79951428D02*
X107013570Y-79951428D01*
X107013570Y-79351428D01*
X106584998Y-79351428D02*
X106213570Y-79351428D01*
X106413570Y-79580000D01*
X106327855Y-79580000D01*
X106270712Y-79608571D01*
X106242141Y-79637142D01*
X106213570Y-79694285D01*
X106213570Y-79837142D01*
X106242141Y-79894285D01*
X106270712Y-79922857D01*
X106327855Y-79951428D01*
X106499284Y-79951428D01*
X106556427Y-79922857D01*
X106584998Y-79894285D01*
X105956427Y-79722857D02*
X105499284Y-79722857D01*
X105213570Y-79722857D02*
X104756427Y-79722857D01*
D10*
X90391785Y-106671428D02*
X90591785Y-106385714D01*
X90734642Y-106671428D02*
X90734642Y-106071428D01*
X90506071Y-106071428D01*
X90448928Y-106100000D01*
X90420357Y-106128571D01*
X90391785Y-106185714D01*
X90391785Y-106271428D01*
X90420357Y-106328571D01*
X90448928Y-106357142D01*
X90506071Y-106385714D01*
X90734642Y-106385714D01*
X90134642Y-106357142D02*
X89934642Y-106357142D01*
X89848928Y-106671428D02*
X90134642Y-106671428D01*
X90134642Y-106071428D01*
X89848928Y-106071428D01*
X89591785Y-106671428D02*
X89591785Y-106071428D01*
X89448928Y-106071428D01*
X89363214Y-106100000D01*
X89306071Y-106157142D01*
X89277500Y-106214285D01*
X89248928Y-106328571D01*
X89248928Y-106414285D01*
X89277500Y-106528571D01*
X89306071Y-106585714D01*
X89363214Y-106642857D01*
X89448928Y-106671428D01*
X89591785Y-106671428D01*
D14*
X88040712Y-59392857D02*
X87583570Y-59392857D01*
X87297855Y-59392857D02*
X86840712Y-59392857D01*
X86640712Y-59021428D02*
X86297855Y-59021428D01*
X86469284Y-59621428D02*
X86469284Y-59021428D01*
X86154998Y-59021428D02*
X85754998Y-59621428D01*
X85754998Y-59021428D02*
X86154998Y-59621428D01*
D11*
X205680571Y-53669000D02*
X205753142Y-53632714D01*
X205862000Y-53632714D01*
X205970857Y-53669000D01*
X206043428Y-53741571D01*
X206079714Y-53814142D01*
X206116000Y-53959285D01*
X206116000Y-54068142D01*
X206079714Y-54213285D01*
X206043428Y-54285857D01*
X205970857Y-54358428D01*
X205862000Y-54394714D01*
X205789428Y-54394714D01*
X205680571Y-54358428D01*
X205644285Y-54322142D01*
X205644285Y-54068142D01*
X205789428Y-54068142D01*
X205317714Y-54394714D02*
X205317714Y-53632714D01*
X204882285Y-54394714D01*
X204882285Y-53632714D01*
X204519428Y-54394714D02*
X204519428Y-53632714D01*
X204338000Y-53632714D01*
X204229142Y-53669000D01*
X204156571Y-53741571D01*
X204120285Y-53814142D01*
X204084000Y-53959285D01*
X204084000Y-54068142D01*
X204120285Y-54213285D01*
X204156571Y-54285857D01*
X204229142Y-54358428D01*
X204338000Y-54394714D01*
X204519428Y-54394714D01*
D10*
X88470238Y-107467857D02*
X88355952Y-107505952D01*
X88317857Y-107544047D01*
X88279761Y-107620238D01*
X88279761Y-107734523D01*
X88317857Y-107810714D01*
X88355952Y-107848809D01*
X88432142Y-107886904D01*
X88736904Y-107886904D01*
X88736904Y-107086904D01*
X88470238Y-107086904D01*
X88394047Y-107125000D01*
X88355952Y-107163095D01*
X88317857Y-107239285D01*
X88317857Y-107315476D01*
X88355952Y-107391666D01*
X88394047Y-107429761D01*
X88470238Y-107467857D01*
X88736904Y-107467857D01*
X87975000Y-107658333D02*
X87594047Y-107658333D01*
X88051190Y-107886904D02*
X87784523Y-107086904D01*
X87517857Y-107886904D01*
X87365476Y-107086904D02*
X86908333Y-107086904D01*
X87136904Y-107886904D02*
X87136904Y-107086904D01*
X86755952Y-107086904D02*
X86298809Y-107086904D01*
X86527380Y-107886904D02*
X86527380Y-107086904D01*
D14*
X107756427Y-64111428D02*
X107556427Y-64711428D01*
X107356427Y-64111428D01*
X106813570Y-64654285D02*
X106842141Y-64682857D01*
X106927855Y-64711428D01*
X106984998Y-64711428D01*
X107070712Y-64682857D01*
X107127855Y-64625714D01*
X107156427Y-64568571D01*
X107184998Y-64454285D01*
X107184998Y-64368571D01*
X107156427Y-64254285D01*
X107127855Y-64197142D01*
X107070712Y-64140000D01*
X106984998Y-64111428D01*
X106927855Y-64111428D01*
X106842141Y-64140000D01*
X106813570Y-64168571D01*
X106213570Y-64654285D02*
X106242141Y-64682857D01*
X106327855Y-64711428D01*
X106384998Y-64711428D01*
X106470712Y-64682857D01*
X106527855Y-64625714D01*
X106556427Y-64568571D01*
X106584998Y-64454285D01*
X106584998Y-64368571D01*
X106556427Y-64254285D01*
X106527855Y-64197142D01*
X106470712Y-64140000D01*
X106384998Y-64111428D01*
X106327855Y-64111428D01*
X106242141Y-64140000D01*
X106213570Y-64168571D01*
X105956427Y-64482857D02*
X105499284Y-64482857D01*
X105213570Y-64482857D02*
X104756427Y-64482857D01*
D10*
X146876309Y-77842904D02*
X146419166Y-77842904D01*
X146647738Y-78642904D02*
X146647738Y-77842904D01*
X146152500Y-78223857D02*
X145885833Y-78223857D01*
X145771547Y-78642904D02*
X146152500Y-78642904D01*
X146152500Y-77842904D01*
X145771547Y-77842904D01*
X145428690Y-78642904D02*
X145428690Y-77842904D01*
X144971547Y-78642904D01*
X144971547Y-77842904D01*
X144704880Y-77842904D02*
X144247738Y-77842904D01*
X144476309Y-78642904D02*
X144476309Y-77842904D01*
X143981071Y-78642904D02*
X143981071Y-77842904D01*
X143600119Y-78642904D02*
X143600119Y-77842904D01*
X143142976Y-78642904D01*
X143142976Y-77842904D01*
X142342976Y-77881000D02*
X142419166Y-77842904D01*
X142533452Y-77842904D01*
X142647738Y-77881000D01*
X142723928Y-77957190D01*
X142762023Y-78033380D01*
X142800119Y-78185761D01*
X142800119Y-78300047D01*
X142762023Y-78452428D01*
X142723928Y-78528619D01*
X142647738Y-78604809D01*
X142533452Y-78642904D01*
X142457261Y-78642904D01*
X142342976Y-78604809D01*
X142304880Y-78566714D01*
X142304880Y-78300047D01*
X142457261Y-78300047D01*
X146762023Y-79930904D02*
X146762023Y-79130904D01*
X146457261Y-79130904D01*
X146381071Y-79169000D01*
X146342976Y-79207095D01*
X146304880Y-79283285D01*
X146304880Y-79397571D01*
X146342976Y-79473761D01*
X146381071Y-79511857D01*
X146457261Y-79549952D01*
X146762023Y-79549952D01*
X145962023Y-79130904D02*
X145962023Y-79778523D01*
X145923928Y-79854714D01*
X145885833Y-79892809D01*
X145809642Y-79930904D01*
X145657261Y-79930904D01*
X145581071Y-79892809D01*
X145542976Y-79854714D01*
X145504880Y-79778523D01*
X145504880Y-79130904D01*
X144666785Y-79854714D02*
X144704880Y-79892809D01*
X144819166Y-79930904D01*
X144895357Y-79930904D01*
X145009642Y-79892809D01*
X145085833Y-79816619D01*
X145123928Y-79740428D01*
X145162023Y-79588047D01*
X145162023Y-79473761D01*
X145123928Y-79321380D01*
X145085833Y-79245190D01*
X145009642Y-79169000D01*
X144895357Y-79130904D01*
X144819166Y-79130904D01*
X144704880Y-79169000D01*
X144666785Y-79207095D01*
X144323928Y-79930904D02*
X144323928Y-79130904D01*
X143866785Y-79930904D02*
X144209642Y-79473761D01*
X143866785Y-79130904D02*
X144323928Y-79588047D01*
D14*
X88040712Y-84792857D02*
X87583570Y-84792857D01*
X87297855Y-84792857D02*
X86840712Y-84792857D01*
X86583570Y-84850000D02*
X86297855Y-84850000D01*
X86640712Y-85021428D02*
X86440712Y-84421428D01*
X86240712Y-85021428D01*
X86040712Y-84421428D02*
X86040712Y-84907142D01*
X86012141Y-84964285D01*
X85983570Y-84992857D01*
X85926427Y-85021428D01*
X85812141Y-85021428D01*
X85754998Y-84992857D01*
X85726427Y-84964285D01*
X85697855Y-84907142D01*
X85697855Y-84421428D01*
X85412141Y-85021428D02*
X85412141Y-84421428D01*
X85269284Y-84421428D01*
X85183570Y-84450000D01*
X85126427Y-84507142D01*
X85097855Y-84564285D01*
X85069284Y-84678571D01*
X85069284Y-84764285D01*
X85097855Y-84878571D01*
X85126427Y-84935714D01*
X85183570Y-84992857D01*
X85269284Y-85021428D01*
X85412141Y-85021428D01*
X84812141Y-85021428D02*
X84812141Y-84421428D01*
X84412141Y-84421428D02*
X84297855Y-84421428D01*
X84240712Y-84450000D01*
X84183570Y-84507142D01*
X84154998Y-84621428D01*
X84154998Y-84821428D01*
X84183570Y-84935714D01*
X84240712Y-84992857D01*
X84297855Y-85021428D01*
X84412141Y-85021428D01*
X84469284Y-84992857D01*
X84526427Y-84935714D01*
X84554998Y-84821428D01*
X84554998Y-84621428D01*
X84526427Y-84507142D01*
X84469284Y-84450000D01*
X84412141Y-84421428D01*
D11*
X196016000Y-53632714D02*
X195762000Y-54394714D01*
X195508000Y-53632714D01*
X194818571Y-54322142D02*
X194854857Y-54358428D01*
X194963714Y-54394714D01*
X195036285Y-54394714D01*
X195145142Y-54358428D01*
X195217714Y-54285857D01*
X195254000Y-54213285D01*
X195290285Y-54068142D01*
X195290285Y-53959285D01*
X195254000Y-53814142D01*
X195217714Y-53741571D01*
X195145142Y-53669000D01*
X195036285Y-53632714D01*
X194963714Y-53632714D01*
X194854857Y-53669000D01*
X194818571Y-53705285D01*
X194056571Y-54322142D02*
X194092857Y-54358428D01*
X194201714Y-54394714D01*
X194274285Y-54394714D01*
X194383142Y-54358428D01*
X194455714Y-54285857D01*
X194492000Y-54213285D01*
X194528285Y-54068142D01*
X194528285Y-53959285D01*
X194492000Y-53814142D01*
X194455714Y-53741571D01*
X194383142Y-53669000D01*
X194274285Y-53632714D01*
X194201714Y-53632714D01*
X194092857Y-53669000D01*
X194056571Y-53705285D01*
D14*
X88040712Y-64472857D02*
X87583570Y-64472857D01*
X87297855Y-64472857D02*
X86840712Y-64472857D01*
X86240712Y-64130000D02*
X86297855Y-64101428D01*
X86383570Y-64101428D01*
X86469284Y-64130000D01*
X86526427Y-64187142D01*
X86554998Y-64244285D01*
X86583570Y-64358571D01*
X86583570Y-64444285D01*
X86554998Y-64558571D01*
X86526427Y-64615714D01*
X86469284Y-64672857D01*
X86383570Y-64701428D01*
X86326427Y-64701428D01*
X86240712Y-64672857D01*
X86212141Y-64644285D01*
X86212141Y-64444285D01*
X86326427Y-64444285D01*
X85954998Y-64701428D02*
X85954998Y-64101428D01*
X85612141Y-64701428D01*
X85612141Y-64101428D01*
X85326427Y-64701428D02*
X85326427Y-64101428D01*
X85183570Y-64101428D01*
X85097855Y-64130000D01*
X85040712Y-64187142D01*
X85012141Y-64244285D01*
X84983570Y-64358571D01*
X84983570Y-64444285D01*
X85012141Y-64558571D01*
X85040712Y-64615714D01*
X85097855Y-64672857D01*
X85183570Y-64701428D01*
X85326427Y-64701428D01*
X88040712Y-77172857D02*
X87583570Y-77172857D01*
X87297855Y-77172857D02*
X86840712Y-77172857D01*
X86212141Y-77401428D02*
X86412141Y-77115714D01*
X86554998Y-77401428D02*
X86554998Y-76801428D01*
X86326427Y-76801428D01*
X86269284Y-76830000D01*
X86240712Y-76858571D01*
X86212141Y-76915714D01*
X86212141Y-77001428D01*
X86240712Y-77058571D01*
X86269284Y-77087142D01*
X86326427Y-77115714D01*
X86554998Y-77115714D01*
X85840712Y-76801428D02*
X85726427Y-76801428D01*
X85669284Y-76830000D01*
X85612141Y-76887142D01*
X85583570Y-77001428D01*
X85583570Y-77201428D01*
X85612141Y-77315714D01*
X85669284Y-77372857D01*
X85726427Y-77401428D01*
X85840712Y-77401428D01*
X85897855Y-77372857D01*
X85954998Y-77315714D01*
X85983570Y-77201428D01*
X85983570Y-77001428D01*
X85954998Y-76887142D01*
X85897855Y-76830000D01*
X85840712Y-76801428D01*
X85383570Y-76801428D02*
X85240712Y-77401428D01*
X85126427Y-76972857D01*
X85012141Y-77401428D01*
X84869284Y-76801428D01*
X84326427Y-77401428D02*
X84669284Y-77401428D01*
X84497855Y-77401428D02*
X84497855Y-76801428D01*
X84554998Y-76887142D01*
X84612141Y-76944285D01*
X84669284Y-76972857D01*
X88040712Y-61932857D02*
X87583570Y-61932857D01*
X87297855Y-61932857D02*
X86840712Y-61932857D01*
X86240712Y-61590000D02*
X86297855Y-61561428D01*
X86383570Y-61561428D01*
X86469284Y-61590000D01*
X86526427Y-61647142D01*
X86554998Y-61704285D01*
X86583570Y-61818571D01*
X86583570Y-61904285D01*
X86554998Y-62018571D01*
X86526427Y-62075714D01*
X86469284Y-62132857D01*
X86383570Y-62161428D01*
X86326427Y-62161428D01*
X86240712Y-62132857D01*
X86212141Y-62104285D01*
X86212141Y-61904285D01*
X86326427Y-61904285D01*
X85954998Y-62161428D02*
X85954998Y-61561428D01*
X85612141Y-62161428D01*
X85612141Y-61561428D01*
X85326427Y-62161428D02*
X85326427Y-61561428D01*
X85183570Y-61561428D01*
X85097855Y-61590000D01*
X85040712Y-61647142D01*
X85012141Y-61704285D01*
X84983570Y-61818571D01*
X84983570Y-61904285D01*
X85012141Y-62018571D01*
X85040712Y-62075714D01*
X85097855Y-62132857D01*
X85183570Y-62161428D01*
X85326427Y-62161428D01*
D10*
X109911904Y-100461904D02*
X109759523Y-100461904D01*
X109683333Y-100500000D01*
X109607142Y-100576190D01*
X109569047Y-100728571D01*
X109569047Y-100995238D01*
X109607142Y-101147619D01*
X109683333Y-101223809D01*
X109759523Y-101261904D01*
X109911904Y-101261904D01*
X109988095Y-101223809D01*
X110064285Y-101147619D01*
X110102380Y-100995238D01*
X110102380Y-100728571D01*
X110064285Y-100576190D01*
X109988095Y-100500000D01*
X109911904Y-100461904D01*
X108845238Y-101261904D02*
X109226190Y-101261904D01*
X109226190Y-100461904D01*
X108578571Y-100842857D02*
X108311904Y-100842857D01*
X108197619Y-101261904D02*
X108578571Y-101261904D01*
X108578571Y-100461904D01*
X108197619Y-100461904D01*
X107854761Y-101261904D02*
X107854761Y-100461904D01*
X107664285Y-100461904D01*
X107550000Y-100500000D01*
X107473809Y-100576190D01*
X107435714Y-100652380D01*
X107397619Y-100804761D01*
X107397619Y-100919047D01*
X107435714Y-101071428D01*
X107473809Y-101147619D01*
X107550000Y-101223809D01*
X107664285Y-101261904D01*
X107854761Y-101261904D01*
D14*
X94288571Y-138117904D02*
X94669523Y-138117904D01*
X94669523Y-137317904D01*
X93869523Y-137317904D02*
X93717142Y-137317904D01*
X93640952Y-137356000D01*
X93564761Y-137432190D01*
X93526666Y-137584571D01*
X93526666Y-137851238D01*
X93564761Y-138003619D01*
X93640952Y-138079809D01*
X93717142Y-138117904D01*
X93869523Y-138117904D01*
X93945714Y-138079809D01*
X94021904Y-138003619D01*
X94060000Y-137851238D01*
X94060000Y-137584571D01*
X94021904Y-137432190D01*
X93945714Y-137356000D01*
X93869523Y-137317904D01*
X93221904Y-138079809D02*
X93107619Y-138117904D01*
X92917142Y-138117904D01*
X92840952Y-138079809D01*
X92802857Y-138041714D01*
X92764761Y-137965523D01*
X92764761Y-137889333D01*
X92802857Y-137813142D01*
X92840952Y-137775047D01*
X92917142Y-137736952D01*
X93069523Y-137698857D01*
X93145714Y-137660761D01*
X93183809Y-137622666D01*
X93221904Y-137546476D01*
X93221904Y-137470285D01*
X93183809Y-137394095D01*
X93145714Y-137356000D01*
X93069523Y-137317904D01*
X92879047Y-137317904D01*
X92764761Y-137356000D01*
X92536190Y-137317904D02*
X92079047Y-137317904D01*
X92307619Y-138117904D02*
X92307619Y-137317904D01*
X94783809Y-138605904D02*
X94326666Y-138605904D01*
X94555238Y-139405904D02*
X94555238Y-138605904D01*
X94060000Y-139405904D02*
X94060000Y-138605904D01*
X94060000Y-138986857D02*
X93602857Y-138986857D01*
X93602857Y-139405904D02*
X93602857Y-138605904D01*
X93221904Y-138605904D02*
X93221904Y-139253523D01*
X93183809Y-139329714D01*
X93145714Y-139367809D01*
X93069523Y-139405904D01*
X92917142Y-139405904D01*
X92840952Y-139367809D01*
X92802857Y-139329714D01*
X92764761Y-139253523D01*
X92764761Y-138605904D01*
X92383809Y-139405904D02*
X92383809Y-138605904D01*
X92117142Y-139177333D01*
X91850476Y-138605904D01*
X91850476Y-139405904D01*
X91202857Y-138986857D02*
X91088571Y-139024952D01*
X91050476Y-139063047D01*
X91012380Y-139139238D01*
X91012380Y-139253523D01*
X91050476Y-139329714D01*
X91088571Y-139367809D01*
X91164761Y-139405904D01*
X91469523Y-139405904D01*
X91469523Y-138605904D01*
X91202857Y-138605904D01*
X91126666Y-138644000D01*
X91088571Y-138682095D01*
X91050476Y-138758285D01*
X91050476Y-138834476D01*
X91088571Y-138910666D01*
X91126666Y-138948761D01*
X91202857Y-138986857D01*
X91469523Y-138986857D01*
X90555238Y-139329714D02*
X90517142Y-139367809D01*
X90555238Y-139405904D01*
X90593333Y-139367809D01*
X90555238Y-139329714D01*
X90555238Y-139405904D01*
X90707619Y-138644000D02*
X90631428Y-138605904D01*
X90440952Y-138605904D01*
X90364761Y-138644000D01*
X90326666Y-138720190D01*
X90326666Y-138796380D01*
X90364761Y-138872571D01*
X90402857Y-138910666D01*
X90479047Y-138948761D01*
X90517142Y-138986857D01*
X90555238Y-139063047D01*
X90555238Y-139101142D01*
X108527855Y-56777142D02*
X108442141Y-56805714D01*
X108413570Y-56834285D01*
X108384998Y-56891428D01*
X108384998Y-56977142D01*
X108413570Y-57034285D01*
X108442141Y-57062857D01*
X108499284Y-57091428D01*
X108727855Y-57091428D01*
X108727855Y-56491428D01*
X108527855Y-56491428D01*
X108470712Y-56520000D01*
X108442141Y-56548571D01*
X108413570Y-56605714D01*
X108413570Y-56662857D01*
X108442141Y-56720000D01*
X108470712Y-56748571D01*
X108527855Y-56777142D01*
X108727855Y-56777142D01*
X108156427Y-56920000D02*
X107870712Y-56920000D01*
X108213570Y-57091428D02*
X108013570Y-56491428D01*
X107813570Y-57091428D01*
X107699284Y-56491428D02*
X107356427Y-56491428D01*
X107527855Y-57091428D02*
X107527855Y-56491428D01*
X107242141Y-56491428D02*
X106899284Y-56491428D01*
X107070712Y-57091428D02*
X107070712Y-56491428D01*
X106699284Y-56862857D02*
X106242141Y-56862857D01*
X106470712Y-57091428D02*
X106470712Y-56634285D01*
X105956427Y-56862857D02*
X105499284Y-56862857D01*
X105213570Y-56862857D02*
X104756427Y-56862857D01*
D11*
X146401769Y-116187428D02*
X146292912Y-116223714D01*
X146111484Y-116223714D01*
X146038912Y-116187428D01*
X146002627Y-116151142D01*
X145966341Y-116078571D01*
X145966341Y-116006000D01*
X146002627Y-115933428D01*
X146038912Y-115897142D01*
X146111484Y-115860857D01*
X146256627Y-115824571D01*
X146329198Y-115788285D01*
X146365484Y-115752000D01*
X146401769Y-115679428D01*
X146401769Y-115606857D01*
X146365484Y-115534285D01*
X146329198Y-115498000D01*
X146256627Y-115461714D01*
X146075198Y-115461714D01*
X145966341Y-115498000D01*
X145204341Y-116151142D02*
X145240627Y-116187428D01*
X145349484Y-116223714D01*
X145422055Y-116223714D01*
X145530912Y-116187428D01*
X145603484Y-116114857D01*
X145639769Y-116042285D01*
X145676055Y-115897142D01*
X145676055Y-115788285D01*
X145639769Y-115643142D01*
X145603484Y-115570571D01*
X145530912Y-115498000D01*
X145422055Y-115461714D01*
X145349484Y-115461714D01*
X145240627Y-115498000D01*
X145204341Y-115534285D01*
X144514912Y-116223714D02*
X144877769Y-116223714D01*
X144877769Y-115461714D01*
D14*
X107470712Y-59060000D02*
X107527855Y-59031428D01*
X107613570Y-59031428D01*
X107699284Y-59060000D01*
X107756427Y-59117142D01*
X107784998Y-59174285D01*
X107813570Y-59288571D01*
X107813570Y-59374285D01*
X107784998Y-59488571D01*
X107756427Y-59545714D01*
X107699284Y-59602857D01*
X107613570Y-59631428D01*
X107556427Y-59631428D01*
X107470712Y-59602857D01*
X107442141Y-59574285D01*
X107442141Y-59374285D01*
X107556427Y-59374285D01*
X107184998Y-59631428D02*
X107184998Y-59031428D01*
X106842141Y-59631428D01*
X106842141Y-59031428D01*
X106556427Y-59631428D02*
X106556427Y-59031428D01*
X106413570Y-59031428D01*
X106327855Y-59060000D01*
X106270712Y-59117142D01*
X106242141Y-59174285D01*
X106213570Y-59288571D01*
X106213570Y-59374285D01*
X106242141Y-59488571D01*
X106270712Y-59545714D01*
X106327855Y-59602857D01*
X106413570Y-59631428D01*
X106556427Y-59631428D01*
X105956427Y-59402857D02*
X105499284Y-59402857D01*
X105213570Y-59402857D02*
X104756427Y-59402857D01*
D10*
X207202380Y-74111904D02*
X207202380Y-73311904D01*
X207202380Y-73692857D02*
X206745238Y-73692857D01*
X206745238Y-74111904D02*
X206745238Y-73311904D01*
X206402380Y-73883333D02*
X206021428Y-73883333D01*
X206478571Y-74111904D02*
X206211904Y-73311904D01*
X205945238Y-74111904D01*
X205678571Y-74111904D02*
X205678571Y-73311904D01*
X205373809Y-73311904D01*
X205297619Y-73350000D01*
X205259523Y-73388095D01*
X205221428Y-73464285D01*
X205221428Y-73578571D01*
X205259523Y-73654761D01*
X205297619Y-73692857D01*
X205373809Y-73730952D01*
X205678571Y-73730952D01*
X204992857Y-73311904D02*
X204535714Y-73311904D01*
X204764285Y-74111904D02*
X204764285Y-73311904D01*
X204269047Y-74111904D02*
X204269047Y-73311904D01*
X203430952Y-74035714D02*
X203469047Y-74073809D01*
X203583333Y-74111904D01*
X203659523Y-74111904D01*
X203773809Y-74073809D01*
X203850000Y-73997619D01*
X203888095Y-73921428D01*
X203926190Y-73769047D01*
X203926190Y-73654761D01*
X203888095Y-73502380D01*
X203850000Y-73426190D01*
X203773809Y-73350000D01*
X203659523Y-73311904D01*
X203583333Y-73311904D01*
X203469047Y-73350000D01*
X203430952Y-73388095D01*
X202211904Y-73692857D02*
X202097619Y-73730952D01*
X202059523Y-73769047D01*
X202021428Y-73845238D01*
X202021428Y-73959523D01*
X202059523Y-74035714D01*
X202097619Y-74073809D01*
X202173809Y-74111904D01*
X202478571Y-74111904D01*
X202478571Y-73311904D01*
X202211904Y-73311904D01*
X202135714Y-73350000D01*
X202097619Y-73388095D01*
X202059523Y-73464285D01*
X202059523Y-73540476D01*
X202097619Y-73616666D01*
X202135714Y-73654761D01*
X202211904Y-73692857D01*
X202478571Y-73692857D01*
X201678571Y-73311904D02*
X201678571Y-73959523D01*
X201640476Y-74035714D01*
X201602380Y-74073809D01*
X201526190Y-74111904D01*
X201373809Y-74111904D01*
X201297619Y-74073809D01*
X201259523Y-74035714D01*
X201221428Y-73959523D01*
X201221428Y-73311904D01*
X200916666Y-73311904D02*
X200383333Y-73311904D01*
X200916666Y-74111904D01*
X200383333Y-74111904D01*
X200154761Y-73311904D02*
X199621428Y-73311904D01*
X200154761Y-74111904D01*
X199621428Y-74111904D01*
X92955523Y-132688904D02*
X92498380Y-132688904D01*
X92726952Y-133488904D02*
X92726952Y-132688904D01*
X91774571Y-133488904D02*
X92041238Y-133107952D01*
X92231714Y-133488904D02*
X92231714Y-132688904D01*
X91926952Y-132688904D01*
X91850761Y-132727000D01*
X91812666Y-132765095D01*
X91774571Y-132841285D01*
X91774571Y-132955571D01*
X91812666Y-133031761D01*
X91850761Y-133069857D01*
X91926952Y-133107952D01*
X92231714Y-133107952D01*
X90974571Y-133488904D02*
X91241238Y-133107952D01*
X91431714Y-133488904D02*
X91431714Y-132688904D01*
X91126952Y-132688904D01*
X91050761Y-132727000D01*
X91012666Y-132765095D01*
X90974571Y-132841285D01*
X90974571Y-132955571D01*
X91012666Y-133031761D01*
X91050761Y-133069857D01*
X91126952Y-133107952D01*
X91431714Y-133107952D01*
X90669809Y-133450809D02*
X90555523Y-133488904D01*
X90365047Y-133488904D01*
X90288857Y-133450809D01*
X90250761Y-133412714D01*
X90212666Y-133336523D01*
X90212666Y-133260333D01*
X90250761Y-133184142D01*
X90288857Y-133146047D01*
X90365047Y-133107952D01*
X90517428Y-133069857D01*
X90593619Y-133031761D01*
X90631714Y-132993666D01*
X90669809Y-132917476D01*
X90669809Y-132841285D01*
X90631714Y-132765095D01*
X90593619Y-132727000D01*
X90517428Y-132688904D01*
X90326952Y-132688904D01*
X90212666Y-132727000D01*
D15*
X83809995Y-118260008D02*
X82809995Y-118260008D01*
X83809995Y-122460008D02*
X83809995Y-123060008D01*
X81009995Y-121660008D02*
X81009995Y-119660008D01*
X83809995Y-123060008D02*
X82809995Y-123060008D01*
X83809995Y-118860008D02*
X83809995Y-118260008D01*
D14*
X92160379Y-151338195D02*
X92018958Y-151479616D01*
X90435039Y-149895697D02*
X90576460Y-149754276D01*
D16*
X85033167Y-147717384D02*
X83583598Y-149166953D01*
X82558293Y-148141648D02*
X84007862Y-146692079D01*
D14*
X86680302Y-160424517D02*
X86538880Y-160565939D01*
X90321901Y-149499717D02*
X88002591Y-151819028D01*
X87776317Y-154732308D02*
X84240783Y-158267842D01*
X92867486Y-152045302D02*
X92160379Y-151338195D01*
X84947890Y-158974948D02*
X85089311Y-158833527D01*
X86786368Y-160813426D02*
X92726065Y-154873728D01*
D16*
X84007862Y-146692079D02*
X85033167Y-147717384D01*
D14*
X90321901Y-149499717D02*
X90576460Y-149754276D01*
X84240783Y-158267842D02*
X84947890Y-158974948D01*
X85103453Y-158819385D02*
X86694444Y-160410375D01*
X86538880Y-160565939D02*
X86786368Y-160813426D01*
D16*
X83583598Y-149166953D02*
X82558293Y-148141648D01*
D14*
X91997745Y-151500830D02*
X90413825Y-149916910D01*
X92726065Y-154873728D02*
G75*
G03*
X92867485Y-152045301I-1343499J1484923D01*
G01*
X87776317Y-154732308D02*
G75*
G03*
X88015170Y-151836814I-1488458J1580384D01*
G01*
X138411399Y-132697857D02*
X138611399Y-132697857D01*
X143411399Y-131697857D02*
X138411399Y-131697857D01*
X148911399Y-133397857D02*
X148911399Y-132397857D01*
D16*
X146431999Y-124797857D02*
X144381999Y-124797857D01*
D14*
X138411399Y-135297857D02*
X146811400Y-135297857D01*
X148911399Y-129797857D02*
X145631399Y-129797857D01*
X148711399Y-130157857D02*
X148911399Y-130157857D01*
X138611399Y-134947857D02*
X138411399Y-134947857D01*
X138411399Y-134947857D02*
X138411399Y-135297857D01*
X138411399Y-131697857D02*
X138411399Y-132697857D01*
X138631399Y-132697857D02*
X138631399Y-134947857D01*
D16*
X144381999Y-124797857D02*
X144381999Y-123347857D01*
D14*
X148911399Y-129797857D02*
X148911399Y-130157857D01*
X148911399Y-132397857D02*
X148711399Y-132397857D01*
X148681399Y-132397857D02*
X148681399Y-130157857D01*
D16*
X146431999Y-123347857D02*
X146431999Y-124797857D01*
X144381999Y-123347857D02*
X146431999Y-123347857D01*
D14*
X143411399Y-131697857D02*
G75*
G03*
X145627717Y-129819328I65001J2169999D01*
G01*
X146811400Y-135297858D02*
G75*
G03*
X148911399Y-133397856I100000J1999999D01*
G01*
X176084964Y-72698694D02*
X176015207Y-73696258D01*
X186467299Y-71880937D02*
X186666811Y-71894889D01*
D16*
X182522340Y-66231990D02*
X182623486Y-64785523D01*
D14*
X186691924Y-71535766D02*
X183419914Y-71306964D01*
X186510557Y-74129432D02*
X186311044Y-74115481D01*
X181072784Y-73047477D02*
X176084964Y-72698694D01*
D16*
X182623486Y-64785523D02*
X184668493Y-64928523D01*
D14*
X176015207Y-73696258D02*
X176214720Y-73710210D01*
X186691924Y-71535766D02*
X186666811Y-71894889D01*
D16*
X184668493Y-64928523D02*
X184567346Y-66374991D01*
D14*
X186281117Y-74113388D02*
X186437372Y-71878845D01*
X175858255Y-75940778D02*
X175833841Y-76289925D01*
X176234672Y-73711605D02*
X176077719Y-75956124D01*
X186440800Y-75126996D02*
X186510557Y-74129432D01*
X175833841Y-76289925D02*
X184213380Y-76875879D01*
X176057768Y-75954729D02*
X175858255Y-75940778D01*
D16*
X184567346Y-66374991D02*
X182522340Y-66231990D01*
D14*
X184213380Y-76875881D02*
G75*
G03*
X186440801Y-75126995I239269J1988152D01*
G01*
X181072784Y-73047476D02*
G75*
G03*
X183414743Y-71328126I216214J2160178D01*
G01*
D10*
X193898196Y-111763623D02*
X193133423Y-110917974D01*
X193254977Y-110228608D02*
X193011869Y-111607339D01*
X193133423Y-110917974D02*
X194141304Y-110384892D01*
X194141304Y-110384892D02*
X193898196Y-111763623D01*
X136497000Y-96197000D02*
X137397000Y-95497000D01*
X137397000Y-95497000D02*
X137397000Y-96897000D01*
X136497000Y-95497000D02*
X136497000Y-96897000D01*
X137397000Y-96897000D02*
X136497000Y-96197000D01*
X175043714Y-115648194D02*
X174946055Y-117044783D01*
X174946055Y-117044783D02*
X174097077Y-116283708D01*
X174145907Y-115585413D02*
X174048247Y-116982003D01*
X174097077Y-116283708D02*
X175043714Y-115648194D01*
D14*
X123059981Y-134373191D02*
X118230352Y-135667286D01*
X127880817Y-131114427D02*
X124712581Y-131963354D01*
X128331584Y-133685363D02*
X127751829Y-131521689D01*
X118230352Y-135667286D02*
X118489171Y-136633212D01*
D16*
X121836370Y-126056500D02*
X123816518Y-125525921D01*
D14*
X119162101Y-139144619D02*
X127275879Y-136970539D01*
X119071514Y-138806545D02*
X119162101Y-139144619D01*
X118489171Y-136633212D02*
X118682357Y-136581448D01*
X128553747Y-133625834D02*
X128360562Y-133677598D01*
X119264699Y-138754781D02*
X119071514Y-138806545D01*
X127780807Y-131513924D02*
X127973992Y-131462160D01*
D16*
X124191806Y-126926514D02*
X122211658Y-127457093D01*
D14*
X128812566Y-134591760D02*
X128553747Y-133625834D01*
D16*
X122211658Y-127457093D02*
X121836370Y-126056500D01*
D14*
X118701675Y-136576272D02*
X119284018Y-138749605D01*
D16*
X123816518Y-125525921D02*
X124191806Y-126926514D01*
D14*
X127880817Y-131114427D02*
X127973992Y-131462160D01*
X127275879Y-136970539D02*
G75*
G03*
X128812566Y-134591759I-421045J1957732D01*
G01*
X123059981Y-134373190D02*
G75*
G03*
X124714581Y-131985046I-498850J2112881D01*
G01*
X154511399Y-82675260D02*
X154711399Y-82675260D01*
X154511399Y-85275260D02*
X162911400Y-85275260D01*
X165011399Y-82375260D02*
X164811399Y-82375260D01*
D16*
X162531999Y-73325260D02*
X162531999Y-74775260D01*
D14*
X154511399Y-81675260D02*
X154511399Y-82675260D01*
X159511399Y-81675260D02*
X154511399Y-81675260D01*
D16*
X160481999Y-74775260D02*
X160481999Y-73325260D01*
D14*
X154731399Y-82675260D02*
X154731399Y-84925260D01*
D16*
X160481999Y-73325260D02*
X162531999Y-73325260D01*
D14*
X154711399Y-84925260D02*
X154511399Y-84925260D01*
X164811399Y-80135260D02*
X165011399Y-80135260D01*
X165011399Y-79775260D02*
X161731399Y-79775260D01*
X164781399Y-82375260D02*
X164781399Y-80135260D01*
D16*
X162531999Y-74775260D02*
X160481999Y-74775260D01*
D14*
X165011399Y-83375260D02*
X165011399Y-82375260D01*
X165011399Y-79775260D02*
X165011399Y-80135260D01*
X154511399Y-84925260D02*
X154511399Y-85275260D01*
X162911400Y-85275261D02*
G75*
G03*
X165011399Y-83375259I100000J1999999D01*
G01*
X159511399Y-81675260D02*
G75*
G03*
X161727717Y-79796731I65001J2169999D01*
G01*
D16*
X221273097Y-96656106D02*
X223291953Y-97012084D01*
D14*
X224162169Y-106355138D02*
X223965208Y-106320408D01*
D16*
X223040163Y-98440056D02*
X221021307Y-98084077D01*
D14*
X213943242Y-103842467D02*
X213769594Y-104827274D01*
X213769594Y-104827274D02*
X213966555Y-104862004D01*
X223988521Y-107339946D02*
X224162169Y-106355138D01*
X213986251Y-104865477D02*
X213595543Y-107081294D01*
X224354180Y-104114439D02*
X224551141Y-104149169D01*
D16*
X223291953Y-97012084D02*
X223040163Y-98440056D01*
D14*
X213378885Y-107043092D02*
X213318108Y-107387775D01*
X224613655Y-103794638D02*
X224551141Y-104149169D01*
X213575847Y-107077821D02*
X213378885Y-107043092D01*
X223935664Y-106315199D02*
X224324636Y-104109229D01*
X224613655Y-103794638D02*
X221383485Y-103225072D01*
X213318108Y-107387775D02*
X221590494Y-108846419D01*
D16*
X221021307Y-98084077D02*
X221273097Y-96656106D01*
D14*
X218867281Y-104710708D02*
X213943242Y-103842467D01*
X221590494Y-108846419D02*
G75*
G03*
X223988521Y-107339945I445779J1952247D01*
G01*
X218867281Y-104710708D02*
G75*
G03*
X221376131Y-103245577I440829J2125745D01*
G01*
D10*
X129649739Y-124556864D02*
X128297442Y-124919210D01*
X129882676Y-125426197D02*
X128530380Y-125788544D01*
X128973590Y-124738037D02*
X129882676Y-125426197D01*
X128530380Y-125788544D02*
X128973590Y-124738037D01*
D15*
X154510000Y-117640000D02*
X154510000Y-120890000D01*
X154510000Y-120890000D02*
X165710000Y-120890000D01*
X165710000Y-120890000D02*
X165710000Y-117640000D01*
X154510000Y-111690000D02*
X154510000Y-114940000D01*
X165710000Y-114940000D02*
X165710000Y-111690000D01*
X165710000Y-111690000D02*
X154510000Y-111690000D01*
D16*
X181906472Y-104427263D02*
X179861466Y-104284262D01*
D14*
X183779926Y-113179268D02*
X183849683Y-112181704D01*
D16*
X182007619Y-102980795D02*
X181906472Y-104427263D01*
X179962612Y-102837795D02*
X182007619Y-102980795D01*
D14*
X173396894Y-114007001D02*
X173197381Y-113993050D01*
X184031050Y-109588038D02*
X184005937Y-109947161D01*
X173354333Y-111748530D02*
X173553846Y-111762482D01*
X173424090Y-110750966D02*
X173354333Y-111748530D01*
X173197381Y-113993050D02*
X173172967Y-114342197D01*
X183806425Y-109933209D02*
X184005937Y-109947161D01*
X173573798Y-111763877D02*
X173416845Y-114008396D01*
X183620243Y-112165660D02*
X183776498Y-109931117D01*
X173172967Y-114342197D02*
X181552506Y-114928151D01*
X178411910Y-111099749D02*
X173424090Y-110750966D01*
X184031050Y-109588038D02*
X180759040Y-109359236D01*
X183849683Y-112181704D02*
X183650170Y-112167753D01*
D16*
X179861466Y-104284262D02*
X179962612Y-102837795D01*
D14*
X181552506Y-114928153D02*
G75*
G03*
X183779927Y-113179267I239269J1988152D01*
G01*
X178411910Y-111099748D02*
G75*
G03*
X180753869Y-109380398I216214J2160178D01*
G01*
X116687969Y-94675260D02*
X116687969Y-96925260D01*
X116667969Y-96925260D02*
X116467969Y-96925260D01*
D16*
X124488569Y-86775260D02*
X122438569Y-86775260D01*
D14*
X126767969Y-92135260D02*
X126967969Y-92135260D01*
X126967969Y-95375260D02*
X126967969Y-94375260D01*
X126967969Y-94375260D02*
X126767969Y-94375260D01*
D16*
X124488569Y-85325260D02*
X124488569Y-86775260D01*
X122438569Y-85325260D02*
X124488569Y-85325260D01*
D14*
X126967969Y-91775260D02*
X126967969Y-92135260D01*
X116467969Y-94675260D02*
X116667969Y-94675260D01*
X126967969Y-91775260D02*
X123687969Y-91775260D01*
X126737969Y-94375260D02*
X126737969Y-92135260D01*
X121467969Y-93675260D02*
X116467969Y-93675260D01*
X116467969Y-96925260D02*
X116467969Y-97275260D01*
X116467969Y-93675260D02*
X116467969Y-94675260D01*
D16*
X122438569Y-86775260D02*
X122438569Y-85325260D01*
D14*
X116467969Y-97275260D02*
X124867970Y-97275260D01*
X124867970Y-97275261D02*
G75*
G03*
X126967969Y-95375259I100000J1999999D01*
G01*
X121467969Y-93675260D02*
G75*
G03*
X123684287Y-91796731I65001J2169999D01*
G01*
D10*
X155400000Y-107000000D02*
X154500000Y-106300000D01*
X154500000Y-106300000D02*
X155400000Y-105600000D01*
X155400000Y-105600000D02*
X155400000Y-107000000D01*
X154500000Y-105600000D02*
X154500000Y-107000000D01*
D15*
X93590000Y-119850000D02*
X89490000Y-119850000D01*
X101690000Y-112650000D02*
X101690000Y-115250000D01*
X101690000Y-108050000D02*
X101690000Y-110450000D01*
X89490000Y-108050000D02*
X89490000Y-119850000D01*
X101690000Y-119850000D02*
X97590000Y-119850000D01*
X97590000Y-108050000D02*
X101690000Y-108050000D01*
X95590000Y-113450000D02*
X95590000Y-114450000D01*
X95090000Y-113950000D02*
X96090000Y-113950000D01*
X93590000Y-108050000D02*
X89490000Y-108050000D01*
X101690000Y-117450000D02*
X101690000Y-119850000D01*
X98590000Y-113950000D02*
G75*
G03*
X98590000Y-113950000I-3000000J0D01*
G01*
X101429110Y-99655000D02*
X91429110Y-99655000D01*
X91429110Y-99655000D02*
X91429110Y-97255000D01*
X91429110Y-97255000D02*
X101429110Y-97255000D01*
X101429110Y-97255000D02*
X101429110Y-99655000D01*
X109579110Y-96855000D02*
X83179110Y-96855000D01*
X83179110Y-96855000D02*
X83179110Y-80255000D01*
X83179110Y-80255000D02*
X109579110Y-80255000D01*
X109579110Y-80255000D02*
X109579110Y-96855000D01*
X110129110Y-100155000D02*
X82729110Y-100155000D01*
X82729110Y-100155000D02*
X82729110Y-72855000D01*
X82729110Y-72855000D02*
X110129110Y-72855000D01*
X110129110Y-72855000D02*
X110129110Y-100155000D01*
D10*
X92900000Y-132125000D02*
X80900000Y-132125000D01*
X80900000Y-126125000D02*
X92900000Y-126125000D01*
X80900000Y-132125000D02*
X80900000Y-126125000D01*
X92900000Y-126125000D02*
X92900000Y-132125000D01*
D14*
X220623743Y-125098040D02*
X221012715Y-122892070D01*
X220676600Y-126122787D02*
X220850248Y-125137979D01*
X210631321Y-122625308D02*
X210457673Y-123610115D01*
D16*
X217709386Y-116866918D02*
X217961176Y-115438947D01*
D14*
X210006187Y-126170616D02*
X218278573Y-127629260D01*
X210263926Y-125860662D02*
X210066964Y-125825933D01*
X215555360Y-123493549D02*
X210631321Y-122625308D01*
X210674330Y-123648318D02*
X210283622Y-125864135D01*
D16*
X217961176Y-115438947D02*
X219980032Y-115794925D01*
D14*
X221301734Y-122577479D02*
X221239220Y-122932010D01*
X210457673Y-123610115D02*
X210654634Y-123644845D01*
D16*
X219980032Y-115794925D02*
X219728242Y-117222897D01*
D14*
X210066964Y-125825933D02*
X210006187Y-126170616D01*
X220850248Y-125137979D02*
X220653287Y-125103249D01*
D16*
X219728242Y-117222897D02*
X217709386Y-116866918D01*
D14*
X221301734Y-122577479D02*
X218071564Y-122007913D01*
X221042259Y-122897280D02*
X221239220Y-122932010D01*
X215555360Y-123493549D02*
G75*
G03*
X218064210Y-122028418I440829J2125745D01*
G01*
X218278573Y-127629260D02*
G75*
G03*
X220676600Y-126122786I445779J1952247D01*
G01*
D10*
X117400000Y-98500000D02*
X117400000Y-99900000D01*
X117400000Y-99900000D02*
X116500000Y-99200000D01*
X116500000Y-98500000D02*
X116500000Y-99900000D01*
X116500000Y-99200000D02*
X117400000Y-98500000D01*
D14*
X116467969Y-116347857D02*
X124867970Y-116347857D01*
D16*
X124488569Y-105847857D02*
X122438569Y-105847857D01*
X122438569Y-105847857D02*
X122438569Y-104397857D01*
D14*
X116687969Y-113747857D02*
X116687969Y-115997857D01*
X126767969Y-111207857D02*
X126967969Y-111207857D01*
X116467969Y-113747857D02*
X116667969Y-113747857D01*
X116467969Y-115997857D02*
X116467969Y-116347857D01*
X116667969Y-115997857D02*
X116467969Y-115997857D01*
X126967969Y-114447857D02*
X126967969Y-113447857D01*
X126967969Y-110847857D02*
X123687969Y-110847857D01*
X126967969Y-113447857D02*
X126767969Y-113447857D01*
X116467969Y-112747857D02*
X116467969Y-113747857D01*
X121467969Y-112747857D02*
X116467969Y-112747857D01*
D16*
X124488569Y-104397857D02*
X124488569Y-105847857D01*
D14*
X126737969Y-113447857D02*
X126737969Y-111207857D01*
D16*
X122438569Y-104397857D02*
X124488569Y-104397857D01*
D14*
X126967969Y-110847857D02*
X126967969Y-111207857D01*
X121467969Y-112747857D02*
G75*
G03*
X123684287Y-110869328I65001J2169999D01*
G01*
X124867970Y-116347858D02*
G75*
G03*
X126967969Y-114447856I100000J1999999D01*
G01*
D10*
X196433423Y-92117974D02*
X197441304Y-91584892D01*
X197198196Y-92963623D02*
X196433423Y-92117974D01*
X196554977Y-91428608D02*
X196311869Y-92807339D01*
X197441304Y-91584892D02*
X197198196Y-92963623D01*
X107878218Y-131116744D02*
X106665782Y-131816744D01*
X107115782Y-132596167D02*
X107272000Y-131466744D01*
X108328218Y-131896167D02*
X107115782Y-132596167D01*
X107272000Y-131466744D02*
X108328218Y-131896167D01*
D14*
X116467969Y-77852664D02*
X116467969Y-78202664D01*
X126967969Y-72702664D02*
X126967969Y-73062664D01*
X121467969Y-74602664D02*
X116467969Y-74602664D01*
X116467969Y-75602664D02*
X116667969Y-75602664D01*
X126967969Y-72702664D02*
X123687969Y-72702664D01*
X126967969Y-75302664D02*
X126767969Y-75302664D01*
X126967969Y-76302664D02*
X126967969Y-75302664D01*
X116467969Y-78202664D02*
X124867970Y-78202664D01*
D16*
X122438569Y-66252664D02*
X124488569Y-66252664D01*
X124488569Y-67702664D02*
X122438569Y-67702664D01*
D14*
X116467969Y-74602664D02*
X116467969Y-75602664D01*
X116667969Y-77852664D02*
X116467969Y-77852664D01*
X126737969Y-75302664D02*
X126737969Y-73062664D01*
X116687969Y-75602664D02*
X116687969Y-77852664D01*
D16*
X122438569Y-67702664D02*
X122438569Y-66252664D01*
D14*
X126767969Y-73062664D02*
X126967969Y-73062664D01*
D16*
X124488569Y-66252664D02*
X124488569Y-67702664D01*
D14*
X124867970Y-78202665D02*
G75*
G03*
X126967969Y-76302663I100000J1999999D01*
G01*
X121467969Y-74602664D02*
G75*
G03*
X123684287Y-72724135I65001J2169999D01*
G01*
D15*
X80890000Y-105940000D02*
X82490000Y-105940000D01*
X88710000Y-106860000D02*
X80890000Y-106860000D01*
X84350000Y-103300000D02*
X84350000Y-104300000D01*
X86450000Y-101500000D02*
X86450000Y-102500000D01*
X84850000Y-105100000D02*
X84850000Y-106100000D01*
X86450000Y-102500000D02*
X84850000Y-102500000D01*
X82490000Y-101940000D02*
X81275000Y-101940000D01*
X86450000Y-106100000D02*
X86450000Y-105100000D01*
X84850000Y-106100000D02*
X86450000Y-106100000D01*
X84850000Y-101500000D02*
X86450000Y-101500000D01*
X82490000Y-106860000D02*
X82490000Y-105940000D01*
X82490000Y-101660000D02*
X80890000Y-101660000D01*
X84350000Y-104300000D02*
X88710000Y-104300000D01*
X80890000Y-101660000D02*
X80890000Y-100740000D01*
X80890000Y-100740000D02*
X88710000Y-100740000D01*
X80890000Y-106860000D02*
X80890000Y-105940000D01*
X82490000Y-105940000D02*
X82490000Y-105660000D01*
X86450000Y-105100000D02*
X84850000Y-105100000D01*
X86450000Y-102500000D02*
X88710000Y-102500000D01*
X88710000Y-100740000D02*
X88710000Y-106860000D01*
X82490000Y-101940000D02*
X82490000Y-101660000D01*
X86450000Y-102000000D02*
X88710000Y-102000000D01*
X84850000Y-102500000D02*
X84850000Y-101500000D01*
X88710000Y-103300000D02*
X84350000Y-103300000D01*
X82490000Y-100740000D02*
X82490000Y-101660000D01*
D14*
X185361487Y-90561901D02*
X185336374Y-90921024D01*
D16*
X183236909Y-85401126D02*
X181191903Y-85258125D01*
D14*
X174904235Y-92737740D02*
X174747282Y-94982259D01*
D16*
X181191903Y-85258125D02*
X181293049Y-83811658D01*
D14*
X179742347Y-92073612D02*
X174754527Y-91724829D01*
X185136862Y-90907072D02*
X185336374Y-90921024D01*
D16*
X183338056Y-83954658D02*
X183236909Y-85401126D01*
D14*
X184950680Y-93139523D02*
X185106935Y-90904980D01*
X174727331Y-94980864D02*
X174527818Y-94966913D01*
D16*
X181293049Y-83811658D02*
X183338056Y-83954658D01*
D14*
X174754527Y-91724829D02*
X174684770Y-92722393D01*
X185361487Y-90561901D02*
X182089477Y-90333099D01*
X174527818Y-94966913D02*
X174503404Y-95316060D01*
X185180120Y-93155567D02*
X184980607Y-93141616D01*
X185110363Y-94153131D02*
X185180120Y-93155567D01*
X174684770Y-92722393D02*
X174884283Y-92736345D01*
X174503404Y-95316060D02*
X182882943Y-95902014D01*
X179742347Y-92073611D02*
G75*
G03*
X182084306Y-90354261I216214J2160178D01*
G01*
X182882943Y-95902016D02*
G75*
G03*
X185110364Y-94153130I239269J1988152D01*
G01*
D10*
X222389650Y-110275296D02*
X222146542Y-111654027D01*
X222146542Y-111654027D02*
X221381769Y-110808378D01*
X221503323Y-110119012D02*
X221260215Y-111497743D01*
X221381769Y-110808378D02*
X222389650Y-110275296D01*
X135500000Y-77100000D02*
X136400000Y-76400000D01*
X136400000Y-77800000D02*
X135500000Y-77100000D01*
X135500000Y-76400000D02*
X135500000Y-77800000D01*
X136400000Y-76400000D02*
X136400000Y-77800000D01*
X155500000Y-67400000D02*
X155500000Y-68800000D01*
X154600000Y-68100000D02*
X155500000Y-67400000D01*
X155500000Y-68800000D02*
X154600000Y-68100000D01*
X154600000Y-67400000D02*
X154600000Y-68800000D01*
X155479000Y-86485000D02*
X155479000Y-87885000D01*
X154579000Y-87185000D02*
X155479000Y-86485000D01*
X154579000Y-86485000D02*
X154579000Y-87885000D01*
X155479000Y-87885000D02*
X154579000Y-87185000D01*
X189807596Y-129613176D02*
X190815477Y-129080094D01*
X190572369Y-130458825D02*
X189807596Y-129613176D01*
X190815477Y-129080094D02*
X190572369Y-130458825D01*
X189929150Y-128923810D02*
X189686042Y-130302541D01*
X101280000Y-107660000D02*
X100380000Y-106960000D01*
X101280000Y-106260000D02*
X101280000Y-107660000D01*
X100380000Y-106260000D02*
X100380000Y-107660000D01*
X100380000Y-106960000D02*
X101280000Y-106260000D01*
D14*
X154511399Y-66202664D02*
X162911400Y-66202664D01*
X154511399Y-65852664D02*
X154511399Y-66202664D01*
X165011399Y-63302664D02*
X164811399Y-63302664D01*
X165011399Y-60702664D02*
X161731399Y-60702664D01*
X154711399Y-65852664D02*
X154511399Y-65852664D01*
X164811399Y-61062664D02*
X165011399Y-61062664D01*
D16*
X162531999Y-55702664D02*
X160481999Y-55702664D01*
D14*
X154511399Y-63602664D02*
X154711399Y-63602664D01*
X164781399Y-63302664D02*
X164781399Y-61062664D01*
D16*
X160481999Y-54252664D02*
X162531999Y-54252664D01*
D14*
X159511399Y-62602664D02*
X154511399Y-62602664D01*
X154731399Y-63602664D02*
X154731399Y-65852664D01*
X165011399Y-60702664D02*
X165011399Y-61062664D01*
X154511399Y-62602664D02*
X154511399Y-63602664D01*
D16*
X160481999Y-55702664D02*
X160481999Y-54252664D01*
X162531999Y-54252664D02*
X162531999Y-55702664D01*
D14*
X165011399Y-64302664D02*
X165011399Y-63302664D01*
X159511399Y-62602664D02*
G75*
G03*
X161727717Y-60724135I65001J2169999D01*
G01*
X162911400Y-66202665D02*
G75*
G03*
X165011399Y-64302663I100000J1999999D01*
G01*
D17*
X129279000Y-99257500D02*
G75*
G03*
X130312865Y-103408045I20320019J2857506D01*
G01*
X130312865Y-89391955D02*
G75*
G03*
X129279000Y-93542500I19286135J-7008045D01*
G01*
X146741500Y-76079999D02*
G75*
G03*
X142590954Y-77113865I2857500J-20320001D01*
G01*
X169919001Y-93542500D02*
G75*
G03*
X168885135Y-89391954I-20320001J-2857500D01*
G01*
X168885133Y-103408049D02*
G75*
G03*
X169919000Y-99257500I-19286133J7008049D01*
G01*
X156607044Y-77113865D02*
G75*
G03*
X152456500Y-76080000I-7008074J-19286255D01*
G01*
D14*
X104093564Y-142229812D02*
X99763437Y-144729812D01*
X107906704Y-137834364D02*
X108086704Y-138146133D01*
X107913499Y-138246133D02*
X108086704Y-138146133D01*
X101561642Y-147444395D02*
X101388437Y-147544395D01*
X101563437Y-147847504D02*
X108838051Y-143647503D01*
X107906704Y-137834364D02*
X105066141Y-139474364D01*
D16*
X103259480Y-134743937D02*
X101484128Y-135768937D01*
X101484128Y-135768937D02*
X100759128Y-134513200D01*
X100759128Y-134513200D02*
X102534480Y-133488200D01*
D14*
X109206704Y-140086030D02*
X109033499Y-140186030D01*
X100263437Y-145595838D02*
X100436642Y-145495838D01*
X109706704Y-140952055D02*
X109206704Y-140086030D01*
X109007518Y-140201030D02*
X107887518Y-138261133D01*
X99763437Y-144729812D02*
X100263437Y-145595838D01*
X100453963Y-145485838D02*
X101578963Y-147434395D01*
X101388437Y-147544395D02*
X101563437Y-147847504D01*
D16*
X102534480Y-133488200D02*
X103259480Y-134743937D01*
D14*
X108838051Y-143647504D02*
G75*
G03*
X109706703Y-140952055I-913396J1782050D01*
G01*
X104093564Y-142229812D02*
G75*
G03*
X105073687Y-139494799I-1028707J1911775D01*
G01*
X201074362Y-127743517D02*
X201248010Y-126758709D01*
X190464726Y-127446663D02*
X190403949Y-127791346D01*
X201699496Y-124198209D02*
X198469326Y-123628643D01*
D16*
X198107148Y-118487648D02*
X198358938Y-117059677D01*
D14*
X201699496Y-124198209D02*
X201636982Y-124552740D01*
X195953122Y-125114279D02*
X191029083Y-124246038D01*
X201021505Y-126718770D02*
X201410477Y-124512800D01*
D16*
X198358938Y-117059677D02*
X200377794Y-117415655D01*
X200377794Y-117415655D02*
X200126004Y-118843627D01*
D14*
X190403949Y-127791346D02*
X198676335Y-129249990D01*
X190855435Y-125230845D02*
X191052396Y-125265575D01*
X190661688Y-127481392D02*
X190464726Y-127446663D01*
X201440021Y-124518010D02*
X201636982Y-124552740D01*
X201248010Y-126758709D02*
X201051049Y-126723979D01*
X191072092Y-125269048D02*
X190681384Y-127484865D01*
X191029083Y-124246038D02*
X190855435Y-125230845D01*
D16*
X200126004Y-118843627D02*
X198107148Y-118487648D01*
D14*
X198676335Y-129249990D02*
G75*
G03*
X201074362Y-127743516I445779J1952247D01*
G01*
X195953122Y-125114279D02*
G75*
G03*
X198461972Y-123649148I440829J2125745D01*
G01*
D10*
X174105359Y-97246536D02*
X175051996Y-96611022D01*
X174954337Y-98007611D02*
X174105359Y-97246536D01*
X175051996Y-96611022D02*
X174954337Y-98007611D01*
X174154189Y-96548241D02*
X174056529Y-97944831D01*
D14*
X145731399Y-110447857D02*
X145731399Y-108207857D01*
X140461399Y-109747857D02*
X135461399Y-109747857D01*
D16*
X141431999Y-101397857D02*
X143481999Y-101397857D01*
D14*
X145961399Y-107847857D02*
X145961399Y-108207857D01*
X135681399Y-110747857D02*
X135681399Y-112997857D01*
X135461399Y-109747857D02*
X135461399Y-110747857D01*
X145961399Y-110447857D02*
X145761399Y-110447857D01*
X135461399Y-110747857D02*
X135661399Y-110747857D01*
D16*
X143481999Y-102847857D02*
X141431999Y-102847857D01*
X141431999Y-102847857D02*
X141431999Y-101397857D01*
D14*
X135661399Y-112997857D02*
X135461399Y-112997857D01*
X145761399Y-108207857D02*
X145961399Y-108207857D01*
X145961399Y-111447857D02*
X145961399Y-110447857D01*
X145961399Y-107847857D02*
X142681399Y-107847857D01*
X135461399Y-112997857D02*
X135461399Y-113347857D01*
D16*
X143481999Y-101397857D02*
X143481999Y-102847857D01*
D14*
X135461399Y-113347857D02*
X143861400Y-113347857D01*
X143861400Y-113347858D02*
G75*
G03*
X145961399Y-111447856I100000J1999999D01*
G01*
X140461399Y-109747857D02*
G75*
G03*
X142677717Y-107869328I65001J2169999D01*
G01*
X135461399Y-91675260D02*
X135661399Y-91675260D01*
D16*
X143481999Y-83775260D02*
X141431999Y-83775260D01*
D14*
X140461399Y-90675260D02*
X135461399Y-90675260D01*
X135681399Y-91675260D02*
X135681399Y-93925260D01*
X145731399Y-91375260D02*
X145731399Y-89135260D01*
X135661399Y-93925260D02*
X135461399Y-93925260D01*
X135461399Y-93925260D02*
X135461399Y-94275260D01*
X145961399Y-92375260D02*
X145961399Y-91375260D01*
X145961399Y-88775260D02*
X145961399Y-89135260D01*
X135461399Y-94275260D02*
X143861400Y-94275260D01*
X145961399Y-88775260D02*
X142681399Y-88775260D01*
D16*
X141431999Y-82325260D02*
X143481999Y-82325260D01*
D14*
X135461399Y-90675260D02*
X135461399Y-91675260D01*
D16*
X143481999Y-82325260D02*
X143481999Y-83775260D01*
D14*
X145761399Y-89135260D02*
X145961399Y-89135260D01*
D16*
X141431999Y-83775260D02*
X141431999Y-82325260D01*
D14*
X145961399Y-91375260D02*
X145761399Y-91375260D01*
X143861400Y-94275261D02*
G75*
G03*
X145961399Y-92375259I100000J1999999D01*
G01*
X140461399Y-90675260D02*
G75*
G03*
X142677717Y-88796731I65001J2169999D01*
G01*
D10*
X176346055Y-78944783D02*
X175497077Y-78183708D01*
X176443714Y-77548194D02*
X176346055Y-78944783D01*
X175497077Y-78183708D02*
X176443714Y-77548194D01*
X175545907Y-77485413D02*
X175448247Y-78882003D01*
X88060786Y-144455735D02*
X87919365Y-143324365D01*
X89050735Y-143465786D02*
X88060786Y-144455735D01*
X88414339Y-142829390D02*
X87424390Y-143819339D01*
X87919365Y-143324365D02*
X89050735Y-143465786D01*
X148200000Y-103700000D02*
X147500000Y-102800000D01*
X147500000Y-103700000D02*
X148900000Y-103700000D01*
X147500000Y-102800000D02*
X148900000Y-102800000D01*
X148900000Y-102800000D02*
X148200000Y-103700000D01*
D14*
X208063865Y-86952329D02*
X208260826Y-86987059D01*
X197695936Y-87703367D02*
X197305228Y-89919184D01*
X207698206Y-90177836D02*
X207871854Y-89193028D01*
X207871854Y-89193028D02*
X207674893Y-89158298D01*
X202576966Y-87548598D02*
X197652927Y-86680357D01*
X197088570Y-89880982D02*
X197027793Y-90225665D01*
X208323340Y-86632528D02*
X205093170Y-86062962D01*
X208323340Y-86632528D02*
X208260826Y-86987059D01*
D16*
X204730992Y-80921967D02*
X204982782Y-79493996D01*
D14*
X197027793Y-90225665D02*
X205300179Y-91684309D01*
D16*
X204982782Y-79493996D02*
X207001638Y-79849974D01*
D14*
X197479279Y-87665164D02*
X197676240Y-87699894D01*
X197652927Y-86680357D02*
X197479279Y-87665164D01*
X197285532Y-89915711D02*
X197088570Y-89880982D01*
X207645349Y-89153089D02*
X208034321Y-86947119D01*
D16*
X207001638Y-79849974D02*
X206749848Y-81277946D01*
X206749848Y-81277946D02*
X204730992Y-80921967D01*
D14*
X202576966Y-87548598D02*
G75*
G03*
X205085816Y-86083467I440829J2125745D01*
G01*
X205300179Y-91684309D02*
G75*
G03*
X207698206Y-90177835I445779J1952247D01*
G01*
D10*
X117400000Y-80800000D02*
X116500000Y-80100000D01*
X116500000Y-79400000D02*
X116500000Y-80800000D01*
X117400000Y-79400000D02*
X117400000Y-80800000D01*
X116500000Y-80100000D02*
X117400000Y-79400000D01*
X83621228Y-60676228D02*
X80721228Y-60676228D01*
X80721228Y-60676228D02*
X80721228Y-67426228D01*
X83571228Y-67426228D02*
X83621228Y-60676228D01*
X80721228Y-67426228D02*
X83571228Y-67426228D01*
X116300000Y-118290000D02*
X117200000Y-117590000D01*
X116300000Y-117590000D02*
X116300000Y-118990000D01*
X117200000Y-117590000D02*
X117200000Y-118990000D01*
X117200000Y-118990000D02*
X116300000Y-118290000D01*
X218154977Y-128728608D02*
X217911869Y-130107339D01*
X218033423Y-129417974D02*
X219041304Y-128884892D01*
X219041304Y-128884892D02*
X218798196Y-130263623D01*
X218798196Y-130263623D02*
X218033423Y-129417974D01*
D15*
X136700000Y-118850000D02*
X149350000Y-118850000D01*
X149350000Y-118850000D02*
X149350000Y-121350000D01*
X149350000Y-121350000D02*
X136700000Y-121350000D01*
X136700000Y-121350000D02*
X136700000Y-118850000D01*
D14*
X164811399Y-99207857D02*
X165011399Y-99207857D01*
D16*
X160481999Y-92397857D02*
X162531999Y-92397857D01*
D14*
X154511399Y-100747857D02*
X154511399Y-101747857D01*
D16*
X160481999Y-93847857D02*
X160481999Y-92397857D01*
D14*
X154711399Y-103997857D02*
X154511399Y-103997857D01*
X154511399Y-101747857D02*
X154711399Y-101747857D01*
D16*
X162531999Y-93847857D02*
X160481999Y-93847857D01*
X162531999Y-92397857D02*
X162531999Y-93847857D01*
D14*
X165011399Y-98847857D02*
X161731399Y-98847857D01*
X165011399Y-101447857D02*
X164811399Y-101447857D01*
X165011399Y-102447857D02*
X165011399Y-101447857D01*
X154731399Y-101747857D02*
X154731399Y-103997857D01*
X154511399Y-103997857D02*
X154511399Y-104347857D01*
X165011399Y-98847857D02*
X165011399Y-99207857D01*
X159511399Y-100747857D02*
X154511399Y-100747857D01*
X154511399Y-104347857D02*
X162911400Y-104347857D01*
X164781399Y-101447857D02*
X164781399Y-99207857D01*
X159511399Y-100747857D02*
G75*
G03*
X161727717Y-98869328I65001J2169999D01*
G01*
X162911400Y-104347858D02*
G75*
G03*
X165011399Y-102447856I100000J1999999D01*
G01*
X193715871Y-109008504D02*
X201988257Y-110467148D01*
D16*
X203689716Y-98632813D02*
X203437926Y-100060785D01*
X203437926Y-100060785D02*
X201419070Y-99704806D01*
D14*
X194167357Y-106448003D02*
X194364318Y-106482733D01*
X204333427Y-107935928D02*
X204722399Y-105729958D01*
X194384014Y-106486206D02*
X193993306Y-108702023D01*
X204559932Y-107975867D02*
X204362971Y-107941137D01*
D16*
X201419070Y-99704806D02*
X201670860Y-98276835D01*
D14*
X205011418Y-105415367D02*
X204948904Y-105769898D01*
D16*
X201670860Y-98276835D02*
X203689716Y-98632813D01*
D14*
X193776648Y-108663821D02*
X193715871Y-109008504D01*
X194341005Y-105463196D02*
X194167357Y-106448003D01*
X204386284Y-108960675D02*
X204559932Y-107975867D01*
X204751943Y-105735168D02*
X204948904Y-105769898D01*
X193973610Y-108698550D02*
X193776648Y-108663821D01*
X205011418Y-105415367D02*
X201781248Y-104845801D01*
X199265044Y-106331437D02*
X194341005Y-105463196D01*
X199265044Y-106331437D02*
G75*
G03*
X201773894Y-104866306I440829J2125745D01*
G01*
X201988257Y-110467148D02*
G75*
G03*
X204386284Y-108960674I445779J1952247D01*
G01*
D10*
X102750000Y-86050000D02*
X102750000Y-55570000D01*
X87510000Y-86050000D02*
X87510000Y-55570000D01*
X90050000Y-55570000D02*
X90050000Y-86050000D01*
X105290000Y-86050000D02*
X102750000Y-86050000D01*
X105290000Y-53030000D02*
X105290000Y-86050000D01*
X102750000Y-55570000D02*
X105290000Y-55570000D01*
X87510000Y-86050000D02*
X87510000Y-53030000D01*
X87510000Y-55570000D02*
X90050000Y-55570000D01*
X90050000Y-86050000D02*
X87510000Y-86050000D01*
X87510000Y-53030000D02*
X105290000Y-53030000D01*
X105290000Y-55570000D02*
X105290000Y-86050000D01*
D14*
X135461399Y-71602664D02*
X135461399Y-72602664D01*
X135461399Y-75202664D02*
X143861400Y-75202664D01*
D16*
X141431999Y-63252664D02*
X143481999Y-63252664D01*
X143481999Y-64702664D02*
X141431999Y-64702664D01*
D14*
X135661399Y-74852664D02*
X135461399Y-74852664D01*
D16*
X143481999Y-63252664D02*
X143481999Y-64702664D01*
D14*
X140461399Y-71602664D02*
X135461399Y-71602664D01*
X135461399Y-72602664D02*
X135661399Y-72602664D01*
X145761399Y-70062664D02*
X145961399Y-70062664D01*
X145961399Y-72302664D02*
X145761399Y-72302664D01*
D16*
X141431999Y-64702664D02*
X141431999Y-63252664D01*
D14*
X135461399Y-74852664D02*
X135461399Y-75202664D01*
X145961399Y-73302664D02*
X145961399Y-72302664D01*
X145731399Y-72302664D02*
X145731399Y-70062664D01*
X145961399Y-69702664D02*
X145961399Y-70062664D01*
X135681399Y-72602664D02*
X135681399Y-74852664D01*
X145961399Y-69702664D02*
X142681399Y-69702664D01*
X140461399Y-71602664D02*
G75*
G03*
X142677717Y-69724135I65001J2169999D01*
G01*
X143861400Y-75202665D02*
G75*
G03*
X145961399Y-73302663I100000J1999999D01*
G01*
D10*
X151604000Y-123805000D02*
X152304000Y-124705000D01*
X152304000Y-123805000D02*
X150904000Y-123805000D01*
X150904000Y-124705000D02*
X151604000Y-123805000D01*
X152304000Y-124705000D02*
X150904000Y-124705000D01*
X91740450Y-100659000D02*
X91740450Y-102945000D01*
X91740450Y-102945000D02*
X93518450Y-102945000D01*
X93518450Y-102945000D02*
X93518450Y-100659000D01*
X93518450Y-100659000D02*
X91740450Y-100659000D01*
X141389000Y-118793000D02*
X141389000Y-116507000D01*
X139611000Y-118793000D02*
X141389000Y-118793000D01*
X141389000Y-116507000D02*
X139611000Y-116507000D01*
X139611000Y-116507000D02*
X139611000Y-118793000D01*
X99324450Y-100659000D02*
X99324450Y-102945000D01*
X99324450Y-102945000D02*
X101102450Y-102945000D01*
X101102450Y-102945000D02*
X101102450Y-100659000D01*
X101102450Y-100659000D02*
X99324450Y-100659000D01*
X144711000Y-118793380D02*
X146489000Y-118793380D01*
X146489000Y-116507380D02*
X144711000Y-116507380D01*
X146489000Y-118793380D02*
X146489000Y-116507380D01*
X144711000Y-116507380D02*
X144711000Y-118793380D01*
X195814000Y-59493000D02*
X195814000Y-57207000D01*
X195814000Y-57207000D02*
X194036000Y-57207000D01*
X194036000Y-59493000D02*
X195814000Y-59493000D01*
X194036000Y-57207000D02*
X194036000Y-59493000D01*
X96779450Y-102945000D02*
X98557450Y-102945000D01*
X96779450Y-100659000D02*
X96779450Y-102945000D01*
X98557450Y-102945000D02*
X98557450Y-100659000D01*
X98557450Y-100659000D02*
X96779450Y-100659000D01*
X81011000Y-107357000D02*
X81011000Y-109643000D01*
X82789000Y-109643000D02*
X82789000Y-107357000D01*
X81011000Y-109643000D02*
X82789000Y-109643000D01*
X82789000Y-107357000D02*
X81011000Y-107357000D01*
X90471633Y-137950397D02*
X92451367Y-136807397D01*
X91562367Y-135267603D02*
X89582633Y-136410603D01*
X89582633Y-136410603D02*
X90471633Y-137950397D01*
X92451367Y-136807397D02*
X91562367Y-135267603D01*
X96055000Y-100659000D02*
X94277000Y-100659000D01*
X96055000Y-102945000D02*
X96055000Y-100659000D01*
X94277000Y-102945000D02*
X96055000Y-102945000D01*
X94277000Y-100659000D02*
X94277000Y-102945000D01*
X82786000Y-109643000D02*
X84564000Y-109643000D01*
X82786000Y-107357000D02*
X82786000Y-109643000D01*
X84564000Y-109643000D02*
X84564000Y-107357000D01*
X84564000Y-107357000D02*
X82786000Y-107357000D01*
X147211000Y-118793000D02*
X148989000Y-118793000D01*
X147211000Y-116507000D02*
X147211000Y-118793000D01*
X148989000Y-118793000D02*
X148989000Y-116507000D01*
X148989000Y-116507000D02*
X147211000Y-116507000D01*
X198314000Y-57207000D02*
X196536000Y-57207000D01*
X196536000Y-57207000D02*
X196536000Y-59493000D01*
X198314000Y-59493000D02*
X198314000Y-57207000D01*
X196536000Y-59493000D02*
X198314000Y-59493000D01*
X205989000Y-59493000D02*
X205989000Y-57207000D01*
X204211000Y-57207000D02*
X204211000Y-59493000D01*
X204211000Y-59493000D02*
X205989000Y-59493000D01*
X205989000Y-57207000D02*
X204211000Y-57207000D01*
D18*
X105318815Y-58035745D03*
X105318815Y-60575745D03*
X105318815Y-63115745D03*
X105318815Y-65655745D03*
X105318815Y-68195745D03*
X105318815Y-70735745D03*
X105318815Y-73275745D03*
X105318815Y-75815745D03*
X105318815Y-78355745D03*
X105318815Y-80895745D03*
X105318815Y-83435745D03*
X105318815Y-85975745D03*
X90078815Y-85975745D03*
X90078815Y-83435745D03*
X90078815Y-80895745D03*
X90078815Y-78355745D03*
X90078815Y-75815745D03*
X90078815Y-73275745D03*
X90078815Y-70735745D03*
X90078815Y-68195745D03*
X90078815Y-65655745D03*
X90078815Y-63115745D03*
X90078815Y-60575745D03*
X90078815Y-58035745D03*
M02*
