  0
SECTION
  2
HEADER
  9
$ACADVER
  1
AC1032
  9
$ACADMAINTVER
 90
      228
  9
$DWGCODEPAGE
  3
ANSI_1252
  9
$REQUIREDVERSIONS
160
                 0
  9
$INSBASE
 10
0.0
 20
0.0
 30
0.0
  9
$EXTMIN
 10
1.000000000000000E+20
 20
1.000000000000000E+20
 30
1.000000000000000E+20
  9
$EXTMAX
 10
-1.000000000000000E+20
 20
-1.000000000000000E+20
 30
-1.000000000000000E+20
  9
$LIMMIN
 10
0.0
 20
0.0
  9
$LIMMAX
 10
12.0
 20
9.0
  9
$ORTHOMODE
 70
     0
  9
$REGENMODE
 70
     1
  9
$FILLMODE
 70
     1
  9
$QTEXTMODE
 70
     0
  9
$MIRRTEXT
 70
     0
  9
$LTSCALE
 40
1.0
  9
$ATTMODE
 70
     1
  9
$TEXTSIZE
 40
0.2
  9
$TRACEWID
 40
0.05
  9
$TEXTSTYLE
  7
Standard
  9
$CLAYER
  8
0
  9
$CELTYPE
  6
ByLayer
  9
$CECOLOR
 62
   256
  9
$CELTSCALE
 40
1.0
  9
$DISPSILH
 70
     0
  9
$DIMSCALE
 40
1.0
  9
$DIMASZ
 40
0.18
  9
$DIMEXO
 40
0.0625
  9
$DIMDLI
 40
0.38
  9
$DIMRND
 40
0.0
  9
$DIMDLE
 40
0.0
  9
$DIMEXE
 40
0.18
  9
$DIMTP
 40
0.0
  9
$DIMTM
 40
0.0
  9
$DIMTXT
 40
0.18
  9
$DIMCEN
 40
0.09
  9
$DIMTSZ
 40
0.0
  9
$DIMTOL
 70
     0
  9
$DIMLIM
 70
     0
  9
$DIMTIH
 70
     1
  9
$DIMTOH
 70
     1
  9
$DIMSE1
 70
     0
  9
$DIMSE2
 70
     0
  9
$DIMTAD
 70
     0
  9
$DIMZIN
 70
     0
  9
$DIMBLK
  1

  9
$DIMASO
 70
     1
  9
$DIMSHO
 70
     1
  9
$DIMPOST
  1

  9
$DIMAPOST
  1

  9
$DIMALT
 70
     0
  9
$DIMALTD
 70
     2
  9
$DIMALTF
 40
25.4
  9
$DIMLFAC
 40
1.0
  9
$DIMTOFL
 70
     0
  9
$DIMTVP
 40
0.0
  9
$DIMTIX
 70
     0
  9
$DIMSOXD
 70
     0
  9
$DIMSAH
 70
     0
  9
$DIMBLK1
  1

  9
$DIMBLK2
  1

  9
$DIMSTYLE
  2
Standard
  9
$DIMCLRD
 70
     0
  9
$DIMCLRE
 70
     0
  9
$DIMCLRT
 70
     0
  9
$DIMTFAC
 40
1.0
  9
$DIMGAP
 40
0.09
  9
$DIMJUST
 70
     0
  9
$DIMSD1
 70
     0
  9
$DIMSD2
 70
     0
  9
$DIMTOLJ
 70
     1
  9
$DIMTZIN
 70
     0
  9
$DIMALTZ
 70
     0
  9
$DIMALTTZ
 70
     0
  9
$DIMUPT
 70
     0
  9
$DIMDEC
 70
     4
  9
$DIMTDEC
 70
     4
  9
$DIMALTU
 70
     2
  9
$DIMALTTD
 70
     2
  9
$DIMTXSTY
  7
Standard
  9
$DIMAUNIT
 70
     0
  9
$DIMADEC
 70
     0
  9
$DIMALTRND
 40
0.0
  9
$DIMAZIN
 70
     0
  9
$DIMDSEP
 70
    46
  9
$DIMATFIT
 70
     3
  9
$DIMFRAC
 70
     0
  9
$DIMLDRBLK
  1

  9
$DIMLUNIT
 70
     2
  9
$DIMLWD
 70
    -2
  9
$DIMLWE
 70
    -2
  9
$DIMTMOVE
 70
     0
  9
$DIMFXL
 40
1.0
  9
$DIMFXLON
 70
     0
  9
$DIMJOGANG
 40
0.7853981633974483
  9
$DIMTFILL
 70
     0
  9
$DIMTFILLCLR
 70
     0
  9
$DIMARCSYM
 70
     0
  9
$DIMLTYPE
  6

  9
$DIMLTEX1
  6

  9
$DIMLTEX2
  6

  9
$DIMTXTDIRECTION
 70
     0
  9
$LUNITS
 70
     2
  9
$LUPREC
 70
     4
  9
$SKETCHINC
 40
0.1
  9
$FILLETRAD
 40
0.0
  9
$AUNITS
 70
     0
  9
$AUPREC
 70
     0
  9
$MENU
  1
.
  9
$ELEVATION
 40
0.0
  9
$PELEVATION
 40
0.0
  9
$THICKNESS
 40
0.0
  9
$LIMCHECK
 70
     0
  9
$CHAMFERA
 40
0.0
  9
$CHAMFERB
 40
0.0
  9
$CHAMFERC
 40
0.0
  9
$CHAMFERD
 40
0.0
  9
$SKPOLY
 70
     0
  9
$TDCREATE
 40
2459814.968622686
  9
$TDUCREATE
 40
2459814.885289352
  9
$TDUPDATE
 40
2459814.968622686
  9
$TDUUPDATE
 40
2459814.885289352
  9
$TDINDWG
 40
0.0000000000
  9
$TDUSRTIMER
 40
0.0000000000
  9
$USRTIMER
 70
     1
  9
$ANGBASE
 50
0.0
  9
$ANGDIR
 70
     0
  9
$PDMODE
 70
     0
  9
$PDSIZE
 40
0.0
  9
$PLINEWID
 40
0.0
  9
$SPLFRAME
 70
     0
  9
$SPLINETYPE
 70
     6
  9
$SPLINESEGS
 70
     8
  9
$HANDSEED
  5
CE
  9
$SURFTAB1
 70
     6
  9
$SURFTAB2
 70
     6
  9
$SURFTYPE
 70
     6
  9
$SURFU
 70
     6
  9
$SURFV
 70
     6
  9
$UCSBASE
  2

  9
$UCSNAME
  2

  9
$UCSORG
 10
0.0
 20
0.0
 30
0.0
  9
$UCSXDIR
 10
1.0
 20
0.0
 30
0.0
  9
$UCSYDIR
 10
0.0
 20
1.0
 30
0.0
  9
$UCSORTHOREF
  2

  9
$UCSORTHOVIEW
 70
     0
  9
$UCSORGTOP
 10
0.0
 20
0.0
 30
0.0
  9
$UCSORGBOTTOM
 10
0.0
 20
0.0
 30
0.0
  9
$UCSORGLEFT
 10
0.0
 20
0.0
 30
0.0
  9
$UCSORGRIGHT
 10
0.0
 20
0.0
 30
0.0
  9
$UCSORGFRONT
 10
0.0
 20
0.0
 30
0.0
  9
$UCSORGBACK
 10
0.0
 20
0.0
 30
0.0
  9
$PUCSBASE
  2

  9
$PUCSNAME
  2

  9
$PUCSORG
 10
0.0
 20
0.0
 30
0.0
  9
$PUCSXDIR
 10
1.0
 20
0.0
 30
0.0
  9
$PUCSYDIR
 10
0.0
 20
1.0
 30
0.0
  9
$PUCSORTHOREF
  2

  9
$PUCSORTHOVIEW
 70
     0
  9
$PUCSORGTOP
 10
0.0
 20
0.0
 30
0.0
  9
$PUCSORGBOTTOM
 10
0.0
 20
0.0
 30
0.0
  9
$PUCSORGLEFT
 10
0.0
 20
0.0
 30
0.0
  9
$PUCSORGRIGHT
 10
0.0
 20
0.0
 30
0.0
  9
$PUCSORGFRONT
 10
0.0
 20
0.0
 30
0.0
  9
$PUCSORGBACK
 10
0.0
 20
0.0
 30
0.0
  9
$USERI1
 70
     0
  9
$USERI2
 70
     0
  9
$USERI3
 70
     0
  9
$USERI4
 70
     0
  9
$USERI5
 70
     0
  9
$USERR1
 40
0.0
  9
$USERR2
 40
0.0
  9
$USERR3
 40
0.0
  9
$USERR4
 40
0.0
  9
$USERR5
 40
0.0
  9
$WORLDVIEW
 70
     1
  9
$SHADEDGE
 70
     3
  9
$SHADEDIF
 70
    70
  9
$TILEMODE
 70
     1
  9
$MAXACTVP
 70
    64
  9
$PINSBASE
 10
0.0
 20
0.0
 30
0.0
  9
$PLIMCHECK
 70
     0
  9
$PEXTMIN
 10
1.000000000000000E+20
 20
1.000000000000000E+20
 30
1.000000000000000E+20
  9
$PEXTMAX
 10
-1.000000000000000E+20
 20
-1.000000000000000E+20
 30
-1.000000000000000E+20
  9
$PLIMMIN
 10
0.0
 20
0.0
  9
$PLIMMAX
 10
12.0
 20
9.0
  9
$UNITMODE
 70
     0
  9
$VISRETAIN
 70
     1
  9
$PLINEGEN
 70
     0
  9
$PSLTSCALE
 70
     1
  9
$TREEDEPTH
 70
  3020
  9
$CMLSTYLE
  2
Standard
  9
$CMLJUST
 70
     0
  9
$CMLSCALE
 40
1.0
  9
$PROXYGRAPHICS
 70
     1
  9
$MEASUREMENT
 70
     0
  9
$CELWEIGHT
370
    -1
  9
$ENDCAPS
280
     0
  9
$JOINSTYLE
280
     0
  9
$LWDISPLAY
290
     1
  9
$INSUNITS
 70
     4
  9
$HYPERLINKBASE
  1

  9
$STYLESHEET
  1

  9
$XEDIT
290
     1
  9
$CEPSNTYPE
380
     0
  9
$PSTYLEMODE
290
     1
  9
$FINGERPRINTGUID
  2
{5B0BE861-985B-6B4E-A3F5-91C2F53FFFF7}
  9
$VERSIONGUID
  2
{6DC139C5-3F25-9D4A-B329-4672B11EC23A}
  9
$EXTNAMES
290
     1
  9
$PSVPSCALE
 40
0.0
  9
$OLESTARTUP
290
     0
  9
$SORTENTS
280
   127
  9
$INDEXCTL
280
     0
  9
$HIDETEXT
280
     1
  9
$XCLIPFRAME
280
     2
  9
$HALOGAP
280
     0
  9
$OBSCOLOR
 70
   257
  9
$OBSLTYPE
280
     0
  9
$INTERSECTIONDISPLAY
280
     0
  9
$INTERSECTIONCOLOR
 70
   257
  9
$DIMASSOC
280
     2
  9
$PROJECTNAME
  1

  9
$CAMERADISPLAY
290
     0
  9
$LENSLENGTH
 40
50.0
  9
$CAMERAHEIGHT
 40
0.0
  9
$STEPSPERSEC
 40
2.0
  9
$STEPSIZE
 40
6.0
  9
$3DDWFPREC
 40
2.0
  9
$PSOLWIDTH
 40
0.25
  9
$PSOLHEIGHT
 40
4.0
  9
$LOFTANG1
 40
1.570796326794896
  9
$LOFTANG2
 40
1.570796326794896
  9
$LOFTMAG1
 40
0.0
  9
$LOFTMAG2
 40
0.0
  9
$LOFTPARAM
 70
     7
  9
$LOFTNORMALS
280
     1
  9
$LATITUDE
 40
37.795
  9
$LONGITUDE
 40
-122.394
  9
$NORTHDIRECTION
 40
0.0
  9
$TIMEZONE
 70
 -8000
  9
$LIGHTGLYPHDISPLAY
280
     1
  9
$TILEMODELIGHTSYNCH
280
     1
  9
$CMATERIAL
347
11
  9
$SOLIDHIST
280
     0
  9
$SHOWHIST
280
     1
  9
$DWFFRAME
280
     2
  9
$DGNFRAME
280
     0
  9
$REALWORLDSCALE
290
     1
  9
$INTERFERECOLOR
 62
     1
  9
$INTERFEREOBJVS
345
33
  9
$INTERFEREVPVS
346
30
  9
$CSHADOW
280
     0
  9
$SHADOWPLANELOCATION
 40
0.0
  0
ENDSEC
  0
SECTION
  2
CLASSES
  0
CLASS
  1
ACDBDICTIONARYWDFLT
  2
AcDbDictionaryWithDefault
  3
ObjectDBX Classes
 90
        0
 91
        1
280
     0
281
     0
  0
CLASS
  1
MATERIAL
  2
AcDbMaterial
  3
ObjectDBX Classes
 90
     1153
 91
        3
280
     0
281
     0
  0
CLASS
  1
VISUALSTYLE
  2
AcDbVisualStyle
  3
ObjectDBX Classes
 90
     4095
 91
       24
280
     0
281
     0
  0
CLASS
  1
SCALE
  2
AcDbScale
  3
ObjectDBX Classes
 90
     1153
 91
       17
280
     0
281
     0
  0
CLASS
  1
TABLESTYLE
  2
AcDbTableStyle
  3
ObjectDBX Classes
 90
     4095
 91
        1
280
     0
281
     0
  0
CLASS
  1
MLEADERSTYLE
  2
AcDbMLeaderStyle
  3
ACDB_MLEADERSTYLE_CLASS
 90
     4095
 91
        1
280
     0
281
     0
  0
CLASS
  1
ACDBSECTIONVIEWSTYLE
  2
AcDbSectionViewStyle
  3
ObjectDBX Classes
 90
     1025
 91
        1
280
     0
281
     0
  0
CLASS
  1
ACDBDETAILVIEWSTYLE
  2
AcDbDetailViewStyle
  3
ObjectDBX Classes
 90
     1025
 91
        1
280
     0
281
     0
  0
CLASS
  1
DICTIONARYVAR
  2
AcDbDictionaryVar
  3
ObjectDBX Classes
 90
        0
 91
        5
280
     0
281
     0
  0
CLASS
  1
CELLSTYLEMAP
  2
AcDbCellStyleMap
  3
ObjectDBX Classes
 90
     1152
 91
        1
280
     0
281
     0
  0
ENDSEC
  0
SECTION
  2
TABLES
  0
TABLE
  2
VPORT
  5
8
330
0
100
AcDbSymbolTable
 70
     1
  0
VPORT
  5
57
330
8
100
AcDbSymbolTableRecord
100
AcDbViewportTableRecord
  2
*Active
 70
     0
 10
0.0
 20
0.0
 11
1.0
 21
1.0
 12
0.0
 22
0.0
 13
0.0
 23
0.0
 14
1.0
 24
1.0
 15
0.0
 25
0.0
 16
0.0
 26
0.0
 36
1.0
 17
91.87506591290864
 27
48.47000116620026
 37
0.0
 40
98.87880237904854
 41
1.895503686878534
 42
50.0
 43
0.0
 44
0.0
 50
0.0
 51
0.0
 71
     0
 72
   100
 73
     1
 74
     1
 75
     0
 76
     0
 77
     0
 78
     0
281
     0
 65
     1
110
0.0
120
0.0
130
0.0
111
1.0
121
0.0
131
0.0
112
0.0
122
1.0
132
0.0
 79
     0
146
0.0
 60
     3
 61
     5
292
     1
282
     1
141
0.0
142
0.0
 63
   250
421
  3355443
  0
ENDTAB
  0
TABLE
  2
LTYPE
  5
5
330
0
100
AcDbSymbolTable
 70
     1
  0
LTYPE
  5
5B
330
5
100
AcDbSymbolTableRecord
100
AcDbLinetypeTableRecord
  2
ByBlock
 70
     0
  3

 72
    65
 73
     0
 40
0.0
  0
LTYPE
  5
5C
330
5
100
AcDbSymbolTableRecord
100
AcDbLinetypeTableRecord
  2
ByLayer
 70
     0
  3

 72
    65
 73
     0
 40
0.0
  0
LTYPE
  5
5D
330
5
100
AcDbSymbolTableRecord
100
AcDbLinetypeTableRecord
  2
Continuous
 70
     0
  3
Solid line
 72
    65
 73
     0
 40
0.0
  0
ENDTAB
  0
TABLE
  2
LAYER
  5
2
330
0
100
AcDbSymbolTable
 70
     2
  0
LAYER
  5
54
330
2
100
AcDbSymbolTableRecord
100
AcDbLayerTableRecord
  2
0
 70
     0
 62
     7
  6
Continuous
370
    -3
390
F
347
21
348
0
  0
LAYER
  5
78
330
2
100
AcDbSymbolTableRecord
100
AcDbLayerTableRecord
  2
Ebene 1
 70
     0
 62
     7
  6
Continuous
370
     0
390
F
347
21
348
0
  0
ENDTAB
  0
TABLE
  2
STYLE
  5
3
330
0
100
AcDbSymbolTable
 70
     2
  0
STYLE
  5
55
330
3
100
AcDbSymbolTableRecord
100
AcDbTextStyleTableRecord
  2
Standard
 70
     0
 40
0.0
 41
1.0
 50
0.0
 71
     0
 42
0.2
  3
txt
  4

  0
STYLE
  5
5A
330
3
100
AcDbSymbolTableRecord
100
AcDbTextStyleTableRecord
  2
Annotative
 70
     0
 40
0.0
 41
1.0
 50
0.0
 71
     0
 42
0.2
  3
txt
  4

1001
AcadAnnotative
1000
AnnotativeData
1002
{
1070
     1
1070
     1
1002
}
  0
ENDTAB
  0
TABLE
  2
VIEW
  5
6
330
0
100
AcDbSymbolTable
 70
     0
  0
ENDTAB
  0
TABLE
  2
UCS
  5
7
330
0
100
AcDbSymbolTable
 70
     0
  0
ENDTAB
  0
TABLE
  2
APPID
  5
9
330
0
100
AcDbSymbolTable
 70
     2
  0
APPID
  5
56
330
9
100
AcDbSymbolTableRecord
100
AcDbRegAppTableRecord
  2
ACAD
 70
     0
  0
APPID
  5
5E
330
9
100
AcDbSymbolTableRecord
100
AcDbRegAppTableRecord
  2
AcadAnnotative
 70
     0
  0
ENDTAB
  0
TABLE
  2
DIMSTYLE
  5
A
330
0
100
AcDbSymbolTable
 70
     2
100
AcDbDimStyleTable
 71
     0
  0
DIMSTYLE
105
58
330
A
100
AcDbSymbolTableRecord
100
AcDbDimStyleTableRecord
  2
Standard
 70
     0
340
55
  0
DIMSTYLE
105
59
330
A
100
AcDbSymbolTableRecord
100
AcDbDimStyleTableRecord
  2
Annotative
 70
     0
340
55
1001
AcadAnnotative
1000
AnnotativeData
1002
{
1070
     1
1070
     1
1002
}
  0
ENDTAB
  0
TABLE
  2
BLOCK_RECORD
  5
1
330
0
100
AcDbSymbolTable
 70
     1
  0
BLOCK_RECORD
  5
70
330
1
100
AcDbSymbolTableRecord
100
AcDbBlockTableRecord
  2
*Model_Space
340
73
 70
     0
280
     1
281
     0
  0
BLOCK_RECORD
  5
6C
330
1
100
AcDbSymbolTableRecord
100
AcDbBlockTableRecord
  2
*Paper_Space
340
6F
 70
     0
280
     1
281
     0
  0
BLOCK_RECORD
  5
74
330
1
100
AcDbSymbolTableRecord
100
AcDbBlockTableRecord
  2
*Paper_Space0
340
77
 70
     0
280
     1
281
     0
  0
ENDTAB
  0
ENDSEC
  0
SECTION
  2
BLOCKS
  0
BLOCK
  5
71
330
70
100
AcDbEntity
  8
0
100
AcDbBlockBegin
  2
*Model_Space
 70
     0
 10
0.0
 20
0.0
 30
0.0
  3
*Model_Space
  1

  0
ENDBLK
  5
72
330
70
100
AcDbEntity
  8
0
100
AcDbBlockEnd
  0
BLOCK
  5
6D
330
6C
100
AcDbEntity
 67
     1
  8
0
100
AcDbBlockBegin
  2
*Paper_Space
 70
     0
 10
0.0
 20
0.0
 30
0.0
  3
*Paper_Space
  1

  0
ENDBLK
  5
6E
330
6C
100
AcDbEntity
 67
     1
  8
0
100
AcDbBlockEnd
  0
BLOCK
  5
75
330
74
100
AcDbEntity
 67
     1
  8
0
100
AcDbBlockBegin
  2
*Paper_Space0
 70
     0
 10
0.0
 20
0.0
 30
0.0
  3
*Paper_Space0
  1

  0
ENDBLK
  5
76
330
74
100
AcDbEntity
 67
     1
  8
0
100
AcDbBlockEnd
  0
ENDSEC
  0
SECTION
  2
ENTITIES
  0
SPLINE
  5
79
330
70
100
AcDbEntity
  8
Ebene 1
 62
     5
420
      255
370
     9
100
AcDbSpline
210
0.0
220
0.0
230
1.0
 70
     9
 71
     3
 72
    20
 73
    16
 74
     0
 42
0.0000000001
 43
0.0000000001
 40
0.0
 40
0.0
 40
0.0
 40
0.0
 40
1.0
 40
1.0
 40
1.0
 40
2.0
 40
2.0
 40
2.0
 40
3.0
 40
3.0
 40
3.0
 40
4.0
 40
4.0
 40
4.0
 40
5.0
 40
5.0
 40
5.0
 40
5.0
 10
47.33275238793821
 20
41.52723750254144
 30
0.0
 10
40.566394650478
 20
41.52723750254144
 30
0.0
 10
35.08416296320624
 20
47.01299776284749
 30
0.0
 10
35.08416296320624
 20
53.77582692727343
 30
0.0
 10
35.08416296320624
 20
60.53865609169936
 30
0.0
 10
40.56992322351228
 20
66.02441635200541
 30
0.0
 10
47.33275238793821
 20
66.02441635200541
 30
0.0
 10
54.09558155236415
 20
66.02441635200541
 30
0.0
 10
59.58134181267021
 20
60.53865609169936
 30
0.0
 10
59.58134181267021
 20
53.77582692727343
 30
0.0
 10
59.58134181267021
 20
47.01299776284749
 30
0.0
 10
54.09558155236415
 20
41.52723750254144
 30
0.0
 10
47.33275238793821
 20
41.52723750254144
 30
0.0
 10
47.33275238793821
 20
41.52723750254144
 30
0.0
 10
47.33275238793821
 20
41.52723750254144
 30
0.0
 10
47.33275238793821
 20
41.52723750254144
 30
0.0
  0
SPLINE
  5
7A
330
70
100
AcDbEntity
  8
Ebene 1
 62
     5
420
      255
370
     9
100
AcDbSpline
210
0.0
220
0.0
230
1.0
 70
    11
 71
     3
 72
    17
 73
    13
 74
     0
 42
0.0000000001
 43
0.0000000001
 40
0.0
 40
0.0
 40
0.0
 40
0.0
 40
1.0
 40
1.0
 40
1.0
 40
2.0
 40
2.0
 40
2.0
 40
3.0
 40
3.0
 40
3.0
 40
4.0
 40
4.0
 40
4.0
 40
4.0
 10
47.33275238793821
 20
68.52917028684105
 30
0.0
 10
39.18701866046516
 20
68.52917028684105
 30
0.0
 10
32.58294029291749
 20
61.92509191929338
 30
0.0
 10
32.58294029291749
 20
53.77935819182031
 30
0.0
 10
32.58294029291749
 20
45.63362446434725
 30
0.0
 10
39.18701866046516
 20
39.02954609679958
 30
0.0
 10
47.33275238793821
 20
39.02954609679958
 30
0.0
 10
55.47848611541128
 20
39.02954609679958
 30
0.0
 10
62.08256448295895
 20
45.63362446434725
 30
0.0
 10
62.08256448295895
 20
53.77935819182031
 30
0.0
 10
62.08256448295895
 20
61.92509191929338
 30
0.0
 10
55.47848611541128
 20
68.52917028684105
 30
0.0
 10
47.33275238793821
 20
68.52917028684105
 30
0.0
  0
SPLINE
  5
7B
330
70
100
AcDbEntity
  8
Ebene 1
 62
     5
420
      255
370
     9
100
AcDbSpline
210
0.0
220
0.0
230
1.0
 70
     9
 71
     3
 72
    20
 73
    16
 74
     0
 42
0.0000000001
 43
0.0000000001
 40
0.0
 40
0.0
 40
0.0
 40
0.0
 40
1.0
 40
1.0
 40
1.0
 40
2.0
 40
2.0
 40
2.0
 40
3.0
 40
3.0
 40
3.0
 40
4.0
 40
4.0
 40
4.0
 40
5.0
 40
5.0
 40
5.0
 40
5.0
 10
180.451494123908
 20
93.19215539705641
 30
0.0
 10
179.8729265728424
 20
93.19215539705641
 30
0.0
 10
179.4002000637293
 20
93.66135535176997
 30
0.0
 10
179.4002000637293
 20
94.24344558818587
 30
0.0
 10
179.4002000637293
 20
94.82553582460177
 30
0.0
 10
179.8693953082955
 20
95.29473577931533
 30
0.0
 10
180.451494123908
 20
95.29473577931533
 30
0.0
 10
181.0335929395205
 20
95.29473577931533
 30
0.0
 10
181.5027774180363
 20
94.82553582460177
 30
0.0
 10
181.5027774180363
 20
94.24344558818587
 30
0.0
 10
181.5027774180363
 20
93.66135535176997
 30
0.0
 10
181.0335714074196
 20
93.19215539705641
 30
0.0
 10
180.4514833578576
 20
93.19215539705641
 30
0.0
 10
180.4514833578576
 20
93.19215539705641
 30
0.0
 10
180.451494123908
 20
93.19215539705641
 30
0.0
 10
180.451494123908
 20
93.19215539705641
 30
0.0
  0
SPLINE
  5
7C
330
70
100
AcDbEntity
  8
Ebene 1
 62
     5
420
      255
370
     9
100
AcDbSpline
210
0.0
220
0.0
230
1.0
 70
     9
 71
     3
 72
    20
 73
    16
 74
     0
 42
0.0000000001
 43
0.0000000001
 40
0.0
 40
0.0
 40
0.0
 40
0.0
 40
1.0
 40
1.0
 40
1.0
 40
2.0
 40
2.0
 40
2.0
 40
3.0
 40
3.0
 40
3.0
 40
4.0
 40
4.0
 40
4.0
 40
5.0
 40
5.0
 40
5.0
 40
5.0
 10
130.733926986148
 20
23.82111101875235
 30
0.0
 10
123.9675719402005
 20
23.82111101875235
 30
0.0
 10
118.4853375614161
 20
29.3068712790584
 30
0.0
 10
118.4853375614161
 20
36.06970044348434
 30
0.0
 10
118.4853375614161
 20
42.83252960791027
 30
0.0
 10
123.9710924386969
 20
48.31828986821633
 30
0.0
 10
130.733926986148
 20
48.31828986821633
 30
0.0
 10
137.4967615335992
 20
48.31828986821633
 30
0.0
 10
142.98251641088
 20
42.83252960791027
 30
0.0
 10
142.98251641088
 20
36.06970044348434
 30
0.0
 10
142.98251641088
 20
29.3068712790584
 30
0.0
 10
137.4967615335992
 20
23.82111101875235
 30
0.0
 10
130.733926986148
 20
23.82111101875235
 30
0.0
 10
130.733926986148
 20
23.82111101875235
 30
0.0
 10
130.733926986148
 20
23.82111101875235
 30
0.0
 10
130.733926986148
 20
23.82111101875235
 30
0.0
  0
SPLINE
  5
7D
330
70
100
AcDbEntity
  8
Ebene 1
 62
     5
420
      255
370
     9
100
AcDbSpline
210
0.0
220
0.0
230
1.0
 70
     9
 71
     3
 72
    17
 73
    13
 74
     0
 42
0.0000000001
 43
0.0000000001
 40
0.0
 40
0.0
 40
0.0
 40
0.0
 40
1.0
 40
1.0
 40
1.0
 40
2.0
 40
2.0
 40
2.0
 40
3.0
 40
3.0
 40
3.0
 40
4.0
 40
4.0
 40
4.0
 40
4.0
 10
118.379507285514
 20
13.79504889939173
 30
0.0
 10
117.8009397344484
 20
13.79504889939173
 30
0.0
 10
117.3282132253353
 20
14.2642495269832
 30
0.0
 10
117.3282132253353
 20
14.84633757654524
 30
0.0
 10
117.3282132253353
 20
15.42842562610729
 30
0.0
 10
117.7974084699016
 20
15.89762625369876
 30
0.0
 10
118.379507285514
 20
15.89762625369876
 30
0.0
 10
118.9616061011265
 20
15.89762625369876
 30
0.0
 10
119.4308013456928
 20
15.42842562610729
 30
0.0
 10
119.4308013456928
 20
14.84633757654524
 30
0.0
 10
119.4308013456928
 20
14.2642495269832
 30
0.0
 10
118.9616061011265
 20
13.79504889939173
 30
0.0
 10
118.379507285514
 20
13.79504889939173
 30
0.0
  0
SPLINE
  5
7E
330
70
100
AcDbEntity
  8
Ebene 1
 62
     5
420
      255
370
     9
100
AcDbSpline
210
0.0
220
0.0
230
1.0
 70
     9
 71
     3
 72
    17
 73
    13
 74
     0
 42
0.0000000001
 43
0.0000000001
 40
0.0
 40
0.0
 40
0.0
 40
0.0
 40
1.0
 40
1.0
 40
1.0
 40
2.0
 40
2.0
 40
2.0
 40
3.0
 40
3.0
 40
3.0
 40
4.0
 40
4.0
 40
4.0
 40
4.0
 10
118.379507285514
 20
95.32648603962261
 30
0.0
 10
118.9580748365797
 20
95.32648603962261
 30
0.0
 10
119.4308013456928
 20
94.85728608490935
 30
0.0
 10
119.4308013456928
 20
94.27519584849314
 30
0.0
 10
119.4308013456928
 20
93.69310544385745
 30
0.0
 10
118.9616061011265
 20
93.2239054891442
 30
0.0
 10
118.379507285514
 20
93.2239054891442
 30
0.0
 10
117.7974084699016
 20
93.2239054891442
 30
0.0
 10
117.3282132253353
 20
93.69310544385745
 30
0.0
 10
117.3282132253353
 20
94.27519568027367
 30
0.0
 10
117.3282132253353
 20
94.85728591668989
 30
0.0
 10
117.7974084699016
 20
95.32648587140281
 30
0.0
 10
118.379507285514
 20
95.32648603962261
 30
0.0
  0
SPLINE
  5
7F
330
70
100
AcDbEntity
  8
Ebene 1
 62
     5
420
      255
370
     9
100
AcDbSpline
210
0.0
220
0.0
230
1.0
 70
     9
 71
     3
 72
    56
 73
    52
 74
     0
 42
0.0000000001
 43
0.0000000001
 40
0.0
 40
0.0
 40
0.0
 40
0.0
 40
1.0
 40
1.0
 40
1.0
 40
2.0
 40
2.0
 40
2.0
 40
3.0
 40
3.0
 40
3.0
 40
4.0
 40
4.0
 40
4.0
 40
5.0
 40
5.0
 40
5.0
 40
6.0
 40
6.0
 40
6.0
 40
7.0
 40
7.0
 40
7.0
 40
8.0
 40
8.0
 40
8.0
 40
9.0
 40
9.0
 40
9.0
 40
10.0
 40
10.0
 40
10.0
 40
11.0
 40
11.0
 40
11.0
 40
12.0
 40
12.0
 40
12.0
 40
13.0
 40
13.0
 40
13.0
 40
14.0
 40
14.0
 40
14.0
 40
15.0
 40
15.0
 40
15.0
 40
16.0
 40
16.0
 40
16.0
 40
17.0
 40
17.0
 40
17.0
 40
17.0
 10
116.4744869569244
 20
96.8857822776261
 30
0.0
 10
116.0864246685329
 20
96.8857822776261
 30
0.0
 10
115.7759748378197
 20
96.57180636563063
 30
0.0
 10
115.7759748378197
 20
96.18727399602953
 30
0.0
 10
115.7759748378197
 20
96.18727399602953
 30
0.0
 10
115.7759748378197
 20
0.7491742257215384
 30
0.0
 10
115.7759748378197
 20
0.7491742257215384
 30
0.0
 10
115.7759748378197
 20
0.3611119373300269
 30
0.0
 10
116.0899559330798
 20
0.0506621066168178
 30
0.0
 10
116.4744869569244
 20
0.0506621066168178
 30
0.0
 10
116.4744869569244
 20
0.0506621066168178
 30
0.0
 10
131.051439345955
 20
0.0506621066168178
 30
0.0
 10
131.051439345955
 20
0.0506621066168178
 30
0.0
 10
131.051439345955
 20
0.0506621066168178
 30
0.0
 10
123.3396205157307
 20
13.41404375706876
 30
0.0
 10
123.3396205157307
 20
13.41404375706876
 30
0.0
 10
123.1455947545602
 20
13.74918552448403
 30
0.0
 10
123.2620080580524
 20
14.1760540417147
 30
0.0
 10
123.5971552084929
 20
14.37008518591045
 30
0.0
 10
123.5971552084929
 20
14.37008518591045
 30
0.0
 10
132.0850878494498
 20
19.27022613210758
 30
0.0
 10
132.0850878494498
 20
19.27022613210758
 30
0.0
 10
136.4595817655576
 20
21.79614612212362
 30
0.0
 10
141.0492782640667
 20
23.98339308017749
 30
0.0
 10
145.6566095532094
 20
25.7578858131378
 30
0.0
 10
145.6566095532094
 20
25.7578858131378
 30
0.0
 10
145.6848273714331
 20
88.20734652930786
 30
0.0
 10
145.6848273714331
 20
88.20734652930786
 30
0.0
 10
145.6848273714331
 20
88.59540679906499
 30
0.0
 10
145.9988084666932
 20
88.90585461114381
 30
0.0
 10
146.3833394905378
 20
88.90585461114381
 30
0.0
 10
146.3833394905378
 20
88.90585461114381
 30
0.0
 10
164.6786057869323
 20
88.90585461114381
 30
0.0
 10
164.6786057869323
 20
88.90585461114381
 30
0.0
 10
164.6786057869323
 20
88.90585461114381
 30
0.0
 10
164.6786057869323
 20
91.22010395618326
 30
0.0
 10
164.6786057869323
 20
91.22010395618326
 30
0.0
 10
164.6786057869323
 20
91.6081642259404
 30
0.0
 10
164.9925868821924
 20
91.91861203801924
 30
0.0
 10
165.377117906037
 20
91.91861203801924
 30
0.0
 10
165.377117906037
 20
91.91861203801924
 30
0.0
 10
183.7006020206552
 20
91.91861203801924
 30
0.0
 10
183.7006020206552
 20
91.91861203801924
 30
0.0
 10
183.7006020206552
 20
91.91861203801924
 30
0.0
 10
183.6864984945685
 20
96.88930964158226
 30
0.0
 10
183.6864984945685
 20
96.88930964158226
 30
0.0
 10
183.6864984945685
 20
96.88930964158226
 30
0.0
 10
116.474476190874
 20
96.88930964158226
 30
0.0
 10
116.474476190874
 20
96.88930964158226
 30
0.0
 10
116.474476190874
 20
96.88930964158226
 30
0.0
 10
116.4744869569244
 20
96.8857822776261
 30
0.0
 10
116.4744869569244
 20
96.8857822776261
 30
0.0
  0
SPLINE
  5
80
330
70
100
AcDbEntity
  8
Ebene 1
 62
     5
420
      255
370
     9
100
AcDbSpline
210
0.0
220
0.0
230
1.0
 70
     9
 71
     3
 72
    17
 73
    13
 74
     0
 42
0.0000000001
 43
0.0000000001
 40
0.0
 40
0.0
 40
0.0
 40
0.0
 40
1.0
 40
1.0
 40
1.0
 40
2.0
 40
2.0
 40
2.0
 40
3.0
 40
3.0
 40
3.0
 40
4.0
 40
4.0
 40
4.0
 40
4.0
 10
24.17614599116057
 20
10.0837867550712
 30
0.0
 10
24.75470815920095
 20
10.0837867550712
 30
0.0
 10
25.22743735982669
 20
9.614586127479729
 30
0.0
 10
25.22743735982669
 20
9.032498077917686
 30
0.0
 10
25.22743735982669
 20
8.450410028355642
 30
0.0
 10
24.75823673223522
 20
7.981209400764169
 30
0.0
 10
24.17614599116057
 20
7.981209400764169
 30
0.0
 10
23.59405525008591
 20
7.981209400764169
 30
0.0
 10
23.12485462249444
 20
8.450410028355642
 30
0.0
 10
23.12485462249444
 20
9.032498077917686
 30
0.0
 10
23.12485462249444
 20
9.614586127479729
 30
0.0
 10
23.59405525008591
 20
10.0837867550712
 30
0.0
 10
24.17614599116057
 20
10.0837867550712
 30
0.0
  0
SPLINE
  5
81
330
70
100
AcDbEntity
  8
Ebene 1
 62
     5
420
      255
370
     9
100
AcDbSpline
210
0.0
220
0.0
230
1.0
 70
     9
 71
     3
 72
    17
 73
    13
 74
     0
 42
0.0000000001
 43
0.0000000001
 40
0.0
 40
0.0
 40
0.0
 40
0.0
 40
1.0
 40
1.0
 40
1.0
 40
2.0
 40
2.0
 40
2.0
 40
3.0
 40
3.0
 40
3.0
 40
4.0
 40
4.0
 40
4.0
 40
4.0
 10
35.75092061651512
 20
9.311193442835064
 30
0.0
 10
36.3294827845555
 20
9.311193442835064
 30
0.0
 10
36.80221198518125
 20
8.841992815243589
 30
0.0
 10
36.80221198518125
 20
8.259904765681547
 30
0.0
 10
36.80221198518125
 20
7.677816716119503
 30
0.0
 10
36.33301135758978
 20
7.20861608852803
 30
0.0
 10
35.75092061651512
 20
7.20861608852803
 30
0.0
 10
35.16882987544047
 20
7.20861608852803
 30
0.0
 10
34.69962924784899
 20
7.677816716119503
 30
0.0
 10
34.69962924784899
 20
8.259904765681547
 30
0.0
 10
34.69962924784899
 20
8.841992815243589
 30
0.0
 10
35.16882987544047
 20
9.311193442835064
 30
0.0
 10
35.75092061651512
 20
9.311193442835064
 30
0.0
  0
SPLINE
  5
82
330
70
100
AcDbEntity
  8
Ebene 1
 62
     5
420
      255
370
     9
100
AcDbSpline
210
0.0
220
0.0
230
1.0
 70
     9
 71
     3
 72
    17
 73
    13
 74
     0
 42
0.0000000001
 43
0.0000000001
 40
0.0
 40
0.0
 40
0.0
 40
0.0
 40
1.0
 40
1.0
 40
1.0
 40
2.0
 40
2.0
 40
2.0
 40
3.0
 40
3.0
 40
3.0
 40
4.0
 40
4.0
 40
4.0
 40
4.0
 10
18.34466093584903
 20
17.9367108254898
 30
0.0
 10
18.06949145245331
 20
17.9367108254898
 30
0.0
 10
17.84371122548695
 20
18.15896517093451
 30
0.0
 10
17.84371122548695
 20
18.43766053585189
 30
0.0
 10
17.84371122548695
 20
18.71635590076926
 30
0.0
 10
18.06596422517519
 20
18.93861024621396
 30
0.0
 10
18.34466093584903
 20
18.93861024621396
 30
0.0
 10
18.62335764652288
 20
18.93861024621396
 30
0.0
 10
18.84561064621111
 20
18.71635590076926
 30
0.0
 10
18.84561064621111
 20
18.43766053585189
 30
0.0
 10
18.84561064621111
 20
18.15896517093451
 30
0.0
 10
18.62335764652288
 20
17.9367108254898
 30
0.0
 10
18.34466093584903
 20
17.9367108254898
 30
0.0
  0
SPLINE
  5
83
330
70
100
AcDbEntity
  8
Ebene 1
 62
     5
420
      255
370
     9
100
AcDbSpline
210
0.0
220
0.0
230
1.0
 70
     9
 71
     3
 72
    17
 73
    13
 74
     0
 42
0.0000000001
 43
0.0000000001
 40
0.0
 40
0.0
 40
0.0
 40
0.0
 40
1.0
 40
1.0
 40
1.0
 40
2.0
 40
2.0
 40
2.0
 40
3.0
 40
3.0
 40
3.0
 40
4.0
 40
4.0
 40
4.0
 40
4.0
 10
18.34466093584903
 20
15.93643786556314
 30
0.0
 10
18.06949145245331
 20
15.93643786556314
 30
0.0
 10
17.84371122548695
 20
16.15869221100784
 30
0.0
 10
17.84371122548695
 20
16.43738757592522
 30
0.0
 10
17.84371122548695
 20
16.7160829408426
 30
0.0
 10
18.06596422517519
 20
16.9383372862873
 30
0.0
 10
18.34466093584903
 20
16.9383372862873
 30
0.0
 10
18.62335764652288
 20
16.9383372862873
 30
0.0
 10
18.84561064621111
 20
16.7160829408426
 30
0.0
 10
18.84561064621111
 20
16.43738757592522
 30
0.0
 10
18.84561064621111
 20
16.15869221100784
 30
0.0
 10
18.62335764652288
 20
15.93643786556314
 30
0.0
 10
18.34466093584903
 20
15.93643786556314
 30
0.0
  0
SPLINE
  5
84
330
70
100
AcDbEntity
  8
Ebene 1
 62
     5
420
      255
370
     9
100
AcDbSpline
210
0.0
220
0.0
230
1.0
 70
     9
 71
     3
 72
    17
 73
    13
 74
     0
 42
0.0000000001
 43
0.0000000001
 40
0.0
 40
0.0
 40
0.0
 40
0.0
 40
1.0
 40
1.0
 40
1.0
 40
2.0
 40
2.0
 40
2.0
 40
3.0
 40
3.0
 40
3.0
 40
4.0
 40
4.0
 40
4.0
 40
4.0
 10
18.34466093584903
 20
13.93616490563647
 30
0.0
 10
18.06949145245331
 20
13.93616490563647
 30
0.0
 10
17.84371122548695
 20
14.15841925108118
 30
0.0
 10
17.84371122548695
 20
14.43711461599855
 30
0.0
 10
17.84371122548695
 20
14.71580998091593
 30
0.0
 10
18.06596422517519
 20
14.93806432636063
 30
0.0
 10
18.34466093584903
 20
14.93806432636063
 30
0.0
 10
18.62335764652288
 20
14.93806432636063
 30
0.0
 10
18.84561064621111
 20
14.71580998091593
 30
0.0
 10
18.84561064621111
 20
14.43711461599855
 30
0.0
 10
18.84561064621111
 20
14.15841925108118
 30
0.0
 10
18.62335764652288
 20
13.93616490563647
 30
0.0
 10
18.34466093584903
 20
13.93616490563647
 30
0.0
  0
SPLINE
  5
85
330
70
100
AcDbEntity
  8
Ebene 1
 62
     5
420
      255
370
     9
100
AcDbSpline
210
0.0
220
0.0
230
1.0
 70
     9
 71
     3
 72
    17
 73
    13
 74
     0
 42
0.0000000001
 43
0.0000000001
 40
0.0
 40
0.0
 40
0.0
 40
0.0
 40
1.0
 40
1.0
 40
1.0
 40
2.0
 40
2.0
 40
2.0
 40
3.0
 40
3.0
 40
3.0
 40
4.0
 40
4.0
 40
4.0
 40
4.0
 10
18.34466093584903
 20
11.9358919457098
 30
0.0
 10
18.06949145245331
 20
11.9358919457098
 30
0.0
 10
17.84371122548695
 20
12.15814629115451
 30
0.0
 10
17.84371122548695
 20
12.43684165607189
 30
0.0
 10
17.84371122548695
 20
12.71553702098926
 30
0.0
 10
18.06596422517519
 20
12.93779136643397
 30
0.0
 10
18.34466093584903
 20
12.93779136643397
 30
0.0
 10
18.62335764652288
 20
12.93779136643397
 30
0.0
 10
18.84561064621111
 20
12.71553702098926
 30
0.0
 10
18.84561064621111
 20
12.43684165607189
 30
0.0
 10
18.84561064621111
 20
12.15814629115451
 30
0.0
 10
18.62335764652288
 20
11.9358919457098
 30
0.0
 10
18.34466093584903
 20
11.9358919457098
 30
0.0
  0
SPLINE
  5
86
330
70
100
AcDbEntity
  8
Ebene 1
 62
     5
420
      255
370
     9
100
AcDbSpline
210
0.0
220
0.0
230
1.0
 70
     9
 71
     3
 72
    17
 73
    13
 74
     0
 42
0.0000000001
 43
0.0000000001
 40
0.0
 40
0.0
 40
0.0
 40
0.0
 40
1.0
 40
1.0
 40
1.0
 40
2.0
 40
2.0
 40
2.0
 40
3.0
 40
3.0
 40
3.0
 40
4.0
 40
4.0
 40
4.0
 40
4.0
 10
18.34466093584903
 20
9.93561898578314
 30
0.0
 10
18.06949145245331
 20
9.93561898578314
 30
0.0
 10
17.84371122548695
 20
10.15787333122784
 30
0.0
 10
17.84371122548695
 20
10.43656869614522
 30
0.0
 10
17.84371122548695
 20
10.7152640610626
 30
0.0
 10
18.06596422517519
 20
10.9375184065073
 30
0.0
 10
18.34466093584903
 20
10.9375184065073
 30
0.0
 10
18.62335764652288
 20
10.9375184065073
 30
0.0
 10
18.84561064621111
 20
10.7152640610626
 30
0.0
 10
18.84561064621111
 20
10.43656869614522
 30
0.0
 10
18.84561064621111
 20
10.15787333122784
 30
0.0
 10
18.62335764652288
 20
9.93561898578314
 30
0.0
 10
18.34466093584903
 20
9.93561898578314
 30
0.0
  0
SPLINE
  5
87
330
70
100
AcDbEntity
  8
Ebene 1
 62
     5
420
      255
370
     9
100
AcDbSpline
210
0.0
220
0.0
230
1.0
 70
     9
 71
     3
 72
    17
 73
    13
 74
     0
 42
0.0000000001
 43
0.0000000001
 40
0.0
 40
0.0
 40
0.0
 40
0.0
 40
1.0
 40
1.0
 40
1.0
 40
2.0
 40
2.0
 40
2.0
 40
3.0
 40
3.0
 40
3.0
 40
4.0
 40
4.0
 40
4.0
 40
4.0
 10
16.34438797592236
 20
17.9367108254898
 30
0.0
 10
16.06921849252665
 20
17.9367108254898
 30
0.0
 10
15.84343826556028
 20
18.15896517093451
 30
0.0
 10
15.84343826556028
 20
18.43766053585189
 30
0.0
 10
15.84343826556028
 20
18.71635590076926
 30
0.0
 10
16.06569126524852
 20
18.93861024621396
 30
0.0
 10
16.34438797592236
 20
18.93861024621396
 30
0.0
 10
16.62308468659621
 20
18.93861024621396
 30
0.0
 10
16.84533768628445
 20
18.71635590076926
 30
0.0
 10
16.84533768628445
 20
18.43766053585189
 30
0.0
 10
16.84533768628445
 20
18.15896517093451
 30
0.0
 10
16.62308468659621
 20
17.9367108254898
 30
0.0
 10
16.34438797592236
 20
17.9367108254898
 30
0.0
  0
SPLINE
  5
88
330
70
100
AcDbEntity
  8
Ebene 1
 62
     5
420
      255
370
     9
100
AcDbSpline
210
0.0
220
0.0
230
1.0
 70
     9
 71
     3
 72
    17
 73
    13
 74
     0
 42
0.0000000001
 43
0.0000000001
 40
0.0
 40
0.0
 40
0.0
 40
0.0
 40
1.0
 40
1.0
 40
1.0
 40
2.0
 40
2.0
 40
2.0
 40
3.0
 40
3.0
 40
3.0
 40
4.0
 40
4.0
 40
4.0
 40
4.0
 10
16.34438797592236
 20
15.93643786556314
 30
0.0
 10
16.06921849252665
 20
15.93643786556314
 30
0.0
 10
15.84343826556028
 20
16.15869221100784
 30
0.0
 10
15.84343826556028
 20
16.43738757592522
 30
0.0
 10
15.84343826556028
 20
16.7160829408426
 30
0.0
 10
16.06569126524852
 20
16.9383372862873
 30
0.0
 10
16.34438797592236
 20
16.9383372862873
 30
0.0
 10
16.62308468659621
 20
16.9383372862873
 30
0.0
 10
16.84533768628445
 20
16.7160829408426
 30
0.0
 10
16.84533768628445
 20
16.43738757592522
 30
0.0
 10
16.84533768628445
 20
16.15869221100784
 30
0.0
 10
16.62308468659621
 20
15.93643786556314
 30
0.0
 10
16.34438797592236
 20
15.93643786556314
 30
0.0
  0
SPLINE
  5
89
330
70
100
AcDbEntity
  8
Ebene 1
 62
     5
420
      255
370
     9
100
AcDbSpline
210
0.0
220
0.0
230
1.0
 70
     9
 71
     3
 72
    17
 73
    13
 74
     0
 42
0.0000000001
 43
0.0000000001
 40
0.0
 40
0.0
 40
0.0
 40
0.0
 40
1.0
 40
1.0
 40
1.0
 40
2.0
 40
2.0
 40
2.0
 40
3.0
 40
3.0
 40
3.0
 40
4.0
 40
4.0
 40
4.0
 40
4.0
 10
16.34438797592236
 20
13.93616490563647
 30
0.0
 10
16.06921849252665
 20
13.93616490563647
 30
0.0
 10
15.84343826556028
 20
14.15841925108118
 30
0.0
 10
15.84343826556028
 20
14.43711461599855
 30
0.0
 10
15.84343826556028
 20
14.71580998091593
 30
0.0
 10
16.06569126524852
 20
14.93806432636063
 30
0.0
 10
16.34438797592236
 20
14.93806432636063
 30
0.0
 10
16.62308468659621
 20
14.93806432636063
 30
0.0
 10
16.84533768628445
 20
14.71580998091593
 30
0.0
 10
16.84533768628445
 20
14.43711461599855
 30
0.0
 10
16.84533768628445
 20
14.15841925108118
 30
0.0
 10
16.62308468659621
 20
13.93616490563647
 30
0.0
 10
16.34438797592236
 20
13.93616490563647
 30
0.0
  0
SPLINE
  5
8A
330
70
100
AcDbEntity
  8
Ebene 1
 62
     5
420
      255
370
     9
100
AcDbSpline
210
0.0
220
0.0
230
1.0
 70
     9
 71
     3
 72
    17
 73
    13
 74
     0
 42
0.0000000001
 43
0.0000000001
 40
0.0
 40
0.0
 40
0.0
 40
0.0
 40
1.0
 40
1.0
 40
1.0
 40
2.0
 40
2.0
 40
2.0
 40
3.0
 40
3.0
 40
3.0
 40
4.0
 40
4.0
 40
4.0
 40
4.0
 10
16.34438797592236
 20
11.9358919457098
 30
0.0
 10
16.06921849252665
 20
11.9358919457098
 30
0.0
 10
15.84343826556028
 20
12.15814629115451
 30
0.0
 10
15.84343826556028
 20
12.43684165607189
 30
0.0
 10
15.84343826556028
 20
12.71553702098926
 30
0.0
 10
16.06569126524852
 20
12.93779136643397
 30
0.0
 10
16.34438797592236
 20
12.93779136643397
 30
0.0
 10
16.62308468659621
 20
12.93779136643397
 30
0.0
 10
16.84533768628445
 20
12.71553702098926
 30
0.0
 10
16.84533768628445
 20
12.43684165607189
 30
0.0
 10
16.84533768628445
 20
12.15814629115451
 30
0.0
 10
16.62308468659621
 20
11.9358919457098
 30
0.0
 10
16.34438797592236
 20
11.9358919457098
 30
0.0
  0
SPLINE
  5
8B
330
70
100
AcDbEntity
  8
Ebene 1
 62
     5
420
      255
370
     9
100
AcDbSpline
210
0.0
220
0.0
230
1.0
 70
     9
 71
     3
 72
    17
 73
    13
 74
     0
 42
0.0000000001
 43
0.0000000001
 40
0.0
 40
0.0
 40
0.0
 40
0.0
 40
1.0
 40
1.0
 40
1.0
 40
2.0
 40
2.0
 40
2.0
 40
3.0
 40
3.0
 40
3.0
 40
4.0
 40
4.0
 40
4.0
 40
4.0
 10
16.34438797592236
 20
9.93561898578314
 30
0.0
 10
16.06921849252665
 20
9.93561898578314
 30
0.0
 10
15.84343826556028
 20
10.15787333122784
 30
0.0
 10
15.84343826556028
 20
10.43656869614522
 30
0.0
 10
15.84343826556028
 20
10.7152640610626
 30
0.0
 10
16.06569126524852
 20
10.9375184065073
 30
0.0
 10
16.34438797592236
 20
10.9375184065073
 30
0.0
 10
16.62308468659621
 20
10.9375184065073
 30
0.0
 10
16.84533768628445
 20
10.7152640610626
 30
0.0
 10
16.84533768628445
 20
10.43656869614522
 30
0.0
 10
16.84533768628445
 20
10.15787333122784
 30
0.0
 10
16.62308468659621
 20
9.93561898578314
 30
0.0
 10
16.34438797592236
 20
9.93561898578314
 30
0.0
  0
SPLINE
  5
8C
330
70
100
AcDbEntity
  8
Ebene 1
 62
     5
420
      255
370
     9
100
AcDbSpline
210
0.0
220
0.0
230
1.0
 70
     9
 71
     3
 72
    17
 73
    13
 74
     0
 42
0.0000000001
 43
0.0000000001
 40
0.0
 40
0.0
 40
0.0
 40
0.0
 40
1.0
 40
1.0
 40
1.0
 40
2.0
 40
2.0
 40
2.0
 40
3.0
 40
3.0
 40
3.0
 40
4.0
 40
4.0
 40
4.0
 40
4.0
 10
14.3441150159957
 20
17.9367108254898
 30
0.0
 10
14.06894553259998
 20
17.9367108254898
 30
0.0
 10
13.84316530563362
 20
18.15896517093451
 30
0.0
 10
13.84316530563362
 20
18.43766053585189
 30
0.0
 10
13.84316530563362
 20
18.71635590076926
 30
0.0
 10
14.06541830532186
 20
18.93861024621396
 30
0.0
 10
14.3441150159957
 20
18.93861024621396
 30
0.0
 10
14.62281172666954
 20
18.93861024621396
 30
0.0
 10
14.84506472635778
 20
18.71635590076926
 30
0.0
 10
14.84506472635778
 20
18.43766053585189
 30
0.0
 10
14.84506472635778
 20
18.15896517093451
 30
0.0
 10
14.62281172666954
 20
17.9367108254898
 30
0.0
 10
14.3441150159957
 20
17.9367108254898
 30
0.0
  0
SPLINE
  5
8D
330
70
100
AcDbEntity
  8
Ebene 1
 62
     5
420
      255
370
     9
100
AcDbSpline
210
0.0
220
0.0
230
1.0
 70
     9
 71
     3
 72
    17
 73
    13
 74
     0
 42
0.0000000001
 43
0.0000000001
 40
0.0
 40
0.0
 40
0.0
 40
0.0
 40
1.0
 40
1.0
 40
1.0
 40
2.0
 40
2.0
 40
2.0
 40
3.0
 40
3.0
 40
3.0
 40
4.0
 40
4.0
 40
4.0
 40
4.0
 10
14.3441150159957
 20
15.93643786556314
 30
0.0
 10
14.06894553259998
 20
15.93643786556314
 30
0.0
 10
13.84316530563362
 20
16.15869221100784
 30
0.0
 10
13.84316530563362
 20
16.43738757592522
 30
0.0
 10
13.84316530563362
 20
16.7160829408426
 30
0.0
 10
14.06541830532186
 20
16.9383372862873
 30
0.0
 10
14.3441150159957
 20
16.9383372862873
 30
0.0
 10
14.62281172666954
 20
16.9383372862873
 30
0.0
 10
14.84506472635778
 20
16.7160829408426
 30
0.0
 10
14.84506472635778
 20
16.43738757592522
 30
0.0
 10
14.84506472635778
 20
16.15869221100784
 30
0.0
 10
14.62281172666954
 20
15.93643786556314
 30
0.0
 10
14.3441150159957
 20
15.93643786556314
 30
0.0
  0
SPLINE
  5
8E
330
70
100
AcDbEntity
  8
Ebene 1
 62
     5
420
      255
370
     9
100
AcDbSpline
210
0.0
220
0.0
230
1.0
 70
     9
 71
     3
 72
    17
 73
    13
 74
     0
 42
0.0000000001
 43
0.0000000001
 40
0.0
 40
0.0
 40
0.0
 40
0.0
 40
1.0
 40
1.0
 40
1.0
 40
2.0
 40
2.0
 40
2.0
 40
3.0
 40
3.0
 40
3.0
 40
4.0
 40
4.0
 40
4.0
 40
4.0
 10
14.3441150159957
 20
13.93616490563647
 30
0.0
 10
14.06894553259998
 20
13.93616490563647
 30
0.0
 10
13.84316530563362
 20
14.15841925108118
 30
0.0
 10
13.84316530563362
 20
14.43711461599855
 30
0.0
 10
13.84316530563362
 20
14.71580998091593
 30
0.0
 10
14.06541830532186
 20
14.93806432636063
 30
0.0
 10
14.3441150159957
 20
14.93806432636063
 30
0.0
 10
14.62281172666954
 20
14.93806432636063
 30
0.0
 10
14.84506472635778
 20
14.71580998091593
 30
0.0
 10
14.84506472635778
 20
14.43711461599855
 30
0.0
 10
14.84506472635778
 20
14.15841925108118
 30
0.0
 10
14.62281172666954
 20
13.93616490563647
 30
0.0
 10
14.3441150159957
 20
13.93616490563647
 30
0.0
  0
SPLINE
  5
8F
330
70
100
AcDbEntity
  8
Ebene 1
 62
     5
420
      255
370
     9
100
AcDbSpline
210
0.0
220
0.0
230
1.0
 70
     9
 71
     3
 72
    17
 73
    13
 74
     0
 42
0.0000000001
 43
0.0000000001
 40
0.0
 40
0.0
 40
0.0
 40
0.0
 40
1.0
 40
1.0
 40
1.0
 40
2.0
 40
2.0
 40
2.0
 40
3.0
 40
3.0
 40
3.0
 40
4.0
 40
4.0
 40
4.0
 40
4.0
 10
14.3441150159957
 20
11.9358919457098
 30
0.0
 10
14.06894553259998
 20
11.9358919457098
 30
0.0
 10
13.84316530563362
 20
12.15814629115451
 30
0.0
 10
13.84316530563362
 20
12.43684165607189
 30
0.0
 10
13.84316530563362
 20
12.71553702098926
 30
0.0
 10
14.06541830532186
 20
12.93779136643397
 30
0.0
 10
14.3441150159957
 20
12.93779136643397
 30
0.0
 10
14.62281172666954
 20
12.93779136643397
 30
0.0
 10
14.84506472635778
 20
12.71553702098926
 30
0.0
 10
14.84506472635778
 20
12.43684165607189
 30
0.0
 10
14.84506472635778
 20
12.15814629115451
 30
0.0
 10
14.62281172666954
 20
11.9358919457098
 30
0.0
 10
14.3441150159957
 20
11.9358919457098
 30
0.0
  0
SPLINE
  5
90
330
70
100
AcDbEntity
  8
Ebene 1
 62
     5
420
      255
370
     9
100
AcDbSpline
210
0.0
220
0.0
230
1.0
 70
     9
 71
     3
 72
    17
 73
    13
 74
     0
 42
0.0000000001
 43
0.0000000001
 40
0.0
 40
0.0
 40
0.0
 40
0.0
 40
1.0
 40
1.0
 40
1.0
 40
2.0
 40
2.0
 40
2.0
 40
3.0
 40
3.0
 40
3.0
 40
4.0
 40
4.0
 40
4.0
 40
4.0
 10
14.3441150159957
 20
9.93561898578314
 30
0.0
 10
14.06894553259998
 20
9.93561898578314
 30
0.0
 10
13.84316530563362
 20
10.15787333122784
 30
0.0
 10
13.84316530563362
 20
10.43656869614522
 30
0.0
 10
13.84316530563362
 20
10.7152640610626
 30
0.0
 10
14.06541830532186
 20
10.9375184065073
 30
0.0
 10
14.3441150159957
 20
10.9375184065073
 30
0.0
 10
14.62281172666954
 20
10.9375184065073
 30
0.0
 10
14.84506472635778
 20
10.7152640610626
 30
0.0
 10
14.84506472635778
 20
10.43656869614522
 30
0.0
 10
14.84506472635778
 20
10.15787333122784
 30
0.0
 10
14.62281172666954
 20
9.93561898578314
 30
0.0
 10
14.3441150159957
 20
9.93561898578314
 30
0.0
  0
SPLINE
  5
91
330
70
100
AcDbEntity
  8
Ebene 1
 62
     5
420
      255
370
     9
100
AcDbSpline
210
0.0
220
0.0
230
1.0
 70
     9
 71
     3
 72
    17
 73
    13
 74
     0
 42
0.0000000001
 43
0.0000000001
 40
0.0
 40
0.0
 40
0.0
 40
0.0
 40
1.0
 40
1.0
 40
1.0
 40
2.0
 40
2.0
 40
2.0
 40
3.0
 40
3.0
 40
3.0
 40
4.0
 40
4.0
 40
4.0
 40
4.0
 10
12.34384071031257
 20
17.9367108254898
 30
0.0
 10
12.06867122691685
 20
17.9367108254898
 30
0.0
 10
11.84289099995049
 20
18.15896517093451
 30
0.0
 10
11.84289099995049
 20
18.43766053585189
 30
0.0
 10
11.84289099995049
 20
18.71635590076926
 30
0.0
 10
12.06514399963904
 20
18.93861024621396
 30
0.0
 10
12.34384071031257
 20
18.93861024621396
 30
0.0
 10
12.62253742098641
 20
18.93861024621396
 30
0.0
 10
12.84479042067465
 20
18.71635590076926
 30
0.0
 10
12.84479042067465
 20
18.43766053585189
 30
0.0
 10
12.84479042067465
 20
18.15896517093451
 30
0.0
 10
12.62253742098641
 20
17.9367108254898
 30
0.0
 10
12.34384071031257
 20
17.9367108254898
 30
0.0
  0
SPLINE
  5
92
330
70
100
AcDbEntity
  8
Ebene 1
 62
     5
420
      255
370
     9
100
AcDbSpline
210
0.0
220
0.0
230
1.0
 70
     9
 71
     3
 72
    17
 73
    13
 74
     0
 42
0.0000000001
 43
0.0000000001
 40
0.0
 40
0.0
 40
0.0
 40
0.0
 40
1.0
 40
1.0
 40
1.0
 40
2.0
 40
2.0
 40
2.0
 40
3.0
 40
3.0
 40
3.0
 40
4.0
 40
4.0
 40
4.0
 40
4.0
 10
12.34384071031257
 20
15.93643786556314
 30
0.0
 10
12.06867122691685
 20
15.93643786556314
 30
0.0
 10
11.84289099995049
 20
16.15869221100784
 30
0.0
 10
11.84289099995049
 20
16.43738757592522
 30
0.0
 10
11.84289099995049
 20
16.7160829408426
 30
0.0
 10
12.06514399963904
 20
16.9383372862873
 30
0.0
 10
12.34384071031257
 20
16.9383372862873
 30
0.0
 10
12.62253742098641
 20
16.9383372862873
 30
0.0
 10
12.84479042067465
 20
16.7160829408426
 30
0.0
 10
12.84479042067465
 20
16.43738757592522
 30
0.0
 10
12.84479042067465
 20
16.15869221100784
 30
0.0
 10
12.62253742098641
 20
15.93643786556314
 30
0.0
 10
12.34384071031257
 20
15.93643786556314
 30
0.0
  0
SPLINE
  5
93
330
70
100
AcDbEntity
  8
Ebene 1
 62
     5
420
      255
370
     9
100
AcDbSpline
210
0.0
220
0.0
230
1.0
 70
     9
 71
     3
 72
    17
 73
    13
 74
     0
 42
0.0000000001
 43
0.0000000001
 40
0.0
 40
0.0
 40
0.0
 40
0.0
 40
1.0
 40
1.0
 40
1.0
 40
2.0
 40
2.0
 40
2.0
 40
3.0
 40
3.0
 40
3.0
 40
4.0
 40
4.0
 40
4.0
 40
4.0
 10
12.34384071031257
 20
13.93616490563647
 30
0.0
 10
12.06867122691685
 20
13.93616490563647
 30
0.0
 10
11.84289099995049
 20
14.15841925108118
 30
0.0
 10
11.84289099995049
 20
14.43711461599855
 30
0.0
 10
11.84289099995049
 20
14.71580998091593
 30
0.0
 10
12.06514399963904
 20
14.93806432636063
 30
0.0
 10
12.34384071031257
 20
14.93806432636063
 30
0.0
 10
12.62253742098641
 20
14.93806432636063
 30
0.0
 10
12.84479042067465
 20
14.71580998091593
 30
0.0
 10
12.84479042067465
 20
14.43711461599855
 30
0.0
 10
12.84479042067465
 20
14.15841925108118
 30
0.0
 10
12.62253742098641
 20
13.93616490563647
 30
0.0
 10
12.34384071031257
 20
13.93616490563647
 30
0.0
  0
SPLINE
  5
94
330
70
100
AcDbEntity
  8
Ebene 1
 62
     5
420
      255
370
     9
100
AcDbSpline
210
0.0
220
0.0
230
1.0
 70
     9
 71
     3
 72
    17
 73
    13
 74
     0
 42
0.0000000001
 43
0.0000000001
 40
0.0
 40
0.0
 40
0.0
 40
0.0
 40
1.0
 40
1.0
 40
1.0
 40
2.0
 40
2.0
 40
2.0
 40
3.0
 40
3.0
 40
3.0
 40
4.0
 40
4.0
 40
4.0
 40
4.0
 10
12.34384071031257
 20
11.9358919457098
 30
0.0
 10
12.06867122691685
 20
11.9358919457098
 30
0.0
 10
11.84289099995049
 20
12.15814629115451
 30
0.0
 10
11.84289099995049
 20
12.43684165607189
 30
0.0
 10
11.84289099995049
 20
12.71553702098926
 30
0.0
 10
12.06514399963904
 20
12.93779136643397
 30
0.0
 10
12.34384071031257
 20
12.93779136643397
 30
0.0
 10
12.62253742098641
 20
12.93779136643397
 30
0.0
 10
12.84479042067465
 20
12.71553702098926
 30
0.0
 10
12.84479042067465
 20
12.43684165607189
 30
0.0
 10
12.84479042067465
 20
12.15814629115451
 30
0.0
 10
12.62253742098641
 20
11.9358919457098
 30
0.0
 10
12.34384071031257
 20
11.9358919457098
 30
0.0
  0
SPLINE
  5
95
330
70
100
AcDbEntity
  8
Ebene 1
 62
     5
420
      255
370
     9
100
AcDbSpline
210
0.0
220
0.0
230
1.0
 70
     9
 71
     3
 72
    17
 73
    13
 74
     0
 42
0.0000000001
 43
0.0000000001
 40
0.0
 40
0.0
 40
0.0
 40
0.0
 40
1.0
 40
1.0
 40
1.0
 40
2.0
 40
2.0
 40
2.0
 40
3.0
 40
3.0
 40
3.0
 40
4.0
 40
4.0
 40
4.0
 40
4.0
 10
12.34384071031257
 20
9.93561898578314
 30
0.0
 10
12.06867122691685
 20
9.93561898578314
 30
0.0
 10
11.84289099995049
 20
10.15787333122784
 30
0.0
 10
11.84289099995049
 20
10.43656869614522
 30
0.0
 10
11.84289099995049
 20
10.7152640610626
 30
0.0
 10
12.06514399963904
 20
10.9375184065073
 30
0.0
 10
12.34384071031257
 20
10.9375184065073
 30
0.0
 10
12.62253742098641
 20
10.9375184065073
 30
0.0
 10
12.84479042067465
 20
10.7152640610626
 30
0.0
 10
12.84479042067465
 20
10.43656869614522
 30
0.0
 10
12.84479042067465
 20
10.15787333122784
 30
0.0
 10
12.62253742098641
 20
9.93561898578314
 30
0.0
 10
12.34384071031257
 20
9.93561898578314
 30
0.0
  0
SPLINE
  5
96
330
70
100
AcDbEntity
  8
Ebene 1
 62
     5
420
      255
370
     9
100
AcDbSpline
210
0.0
220
0.0
230
1.0
 70
     9
 71
     3
 72
    17
 73
    13
 74
     0
 42
0.0000000001
 43
0.0000000001
 40
0.0
 40
0.0
 40
0.0
 40
0.0
 40
1.0
 40
1.0
 40
1.0
 40
2.0
 40
2.0
 40
2.0
 40
3.0
 40
3.0
 40
3.0
 40
4.0
 40
4.0
 40
4.0
 40
4.0
 10
10.34356707750799
 20
17.9367108254898
 30
0.0
 10
10.06839692123404
 20
17.9367108254898
 30
0.0
 10
9.842616694267677
 20
18.15896517093451
 30
0.0
 10
9.842616694267677
 20
18.43766053585189
 30
0.0
 10
9.842616694267677
 20
18.71635590076926
 30
0.0
 10
10.064869021078
 20
18.93861024621396
 30
0.0
 10
10.34356707750799
 20
18.93861024621396
 30
0.0
 10
10.62226513393798
 20
18.93861024621396
 30
0.0
 10
10.84451746074798
 20
18.71635590076926
 30
0.0
 10
10.84451746074798
 20
18.43766053585189
 30
0.0
 10
10.84451746074798
 20
18.15896517093451
 30
0.0
 10
10.62226513393798
 20
17.9367108254898
 30
0.0
 10
10.34356707750799
 20
17.9367108254898
 30
0.0
  0
SPLINE
  5
97
330
70
100
AcDbEntity
  8
Ebene 1
 62
     5
420
      255
370
     9
100
AcDbSpline
210
0.0
220
0.0
230
1.0
 70
     9
 71
     3
 72
    17
 73
    13
 74
     0
 42
0.0000000001
 43
0.0000000001
 40
0.0
 40
0.0
 40
0.0
 40
0.0
 40
1.0
 40
1.0
 40
1.0
 40
2.0
 40
2.0
 40
2.0
 40
3.0
 40
3.0
 40
3.0
 40
4.0
 40
4.0
 40
4.0
 40
4.0
 10
10.34356707750799
 20
15.93643786556314
 30
0.0
 10
10.06839692123404
 20
15.93643786556314
 30
0.0
 10
9.842616694267677
 20
16.15869221100784
 30
0.0
 10
9.842616694267677
 20
16.43738757592522
 30
0.0
 10
9.842616694267677
 20
16.7160829408426
 30
0.0
 10
10.064869021078
 20
16.9383372862873
 30
0.0
 10
10.34356707750799
 20
16.9383372862873
 30
0.0
 10
10.62226513393798
 20
16.9383372862873
 30
0.0
 10
10.84451746074798
 20
16.7160829408426
 30
0.0
 10
10.84451746074798
 20
16.43738757592522
 30
0.0
 10
10.84451746074798
 20
16.15869221100784
 30
0.0
 10
10.62226513393798
 20
15.93643786556314
 30
0.0
 10
10.34356707750799
 20
15.93643786556314
 30
0.0
  0
SPLINE
  5
98
330
70
100
AcDbEntity
  8
Ebene 1
 62
     5
420
      255
370
     9
100
AcDbSpline
210
0.0
220
0.0
230
1.0
 70
     9
 71
     3
 72
    17
 73
    13
 74
     0
 42
0.0000000001
 43
0.0000000001
 40
0.0
 40
0.0
 40
0.0
 40
0.0
 40
1.0
 40
1.0
 40
1.0
 40
2.0
 40
2.0
 40
2.0
 40
3.0
 40
3.0
 40
3.0
 40
4.0
 40
4.0
 40
4.0
 40
4.0
 10
10.34356707750799
 20
13.93616490563647
 30
0.0
 10
10.06839692123404
 20
13.93616490563647
 30
0.0
 10
9.842616694267677
 20
14.15841925108118
 30
0.0
 10
9.842616694267677
 20
14.43711461599855
 30
0.0
 10
9.842616694267677
 20
14.71580998091593
 30
0.0
 10
10.064869021078
 20
14.93806432636063
 30
0.0
 10
10.34356707750799
 20
14.93806432636063
 30
0.0
 10
10.62226513393798
 20
14.93806432636063
 30
0.0
 10
10.84451746074798
 20
14.71580998091593
 30
0.0
 10
10.84451746074798
 20
14.43711461599855
 30
0.0
 10
10.84451746074798
 20
14.15841925108118
 30
0.0
 10
10.62226513393798
 20
13.93616490563647
 30
0.0
 10
10.34356707750799
 20
13.93616490563647
 30
0.0
  0
SPLINE
  5
99
330
70
100
AcDbEntity
  8
Ebene 1
 62
     5
420
      255
370
     9
100
AcDbSpline
210
0.0
220
0.0
230
1.0
 70
     9
 71
     3
 72
    17
 73
    13
 74
     0
 42
0.0000000001
 43
0.0000000001
 40
0.0
 40
0.0
 40
0.0
 40
0.0
 40
1.0
 40
1.0
 40
1.0
 40
2.0
 40
2.0
 40
2.0
 40
3.0
 40
3.0
 40
3.0
 40
4.0
 40
4.0
 40
4.0
 40
4.0
 10
10.34356707750799
 20
11.9358919457098
 30
0.0
 10
10.06839692123404
 20
11.9358919457098
 30
0.0
 10
9.842616694267677
 20
12.15814629115451
 30
0.0
 10
9.842616694267677
 20
12.43684165607189
 30
0.0
 10
9.842616694267677
 20
12.71553702098926
 30
0.0
 10
10.064869021078
 20
12.93779136643397
 30
0.0
 10
10.34356707750799
 20
12.93779136643397
 30
0.0
 10
10.62226513393798
 20
12.93779136643397
 30
0.0
 10
10.84451746074798
 20
12.71553702098926
 30
0.0
 10
10.84451746074798
 20
12.43684165607189
 30
0.0
 10
10.84451746074798
 20
12.15814629115451
 30
0.0
 10
10.62226513393798
 20
11.9358919457098
 30
0.0
 10
10.34356707750799
 20
11.9358919457098
 30
0.0
  0
SPLINE
  5
9A
330
70
100
AcDbEntity
  8
Ebene 1
 62
     5
420
      255
370
     9
100
AcDbSpline
210
0.0
220
0.0
230
1.0
 70
     9
 71
     3
 72
    17
 73
    13
 74
     0
 42
0.0000000001
 43
0.0000000001
 40
0.0
 40
0.0
 40
0.0
 40
0.0
 40
1.0
 40
1.0
 40
1.0
 40
2.0
 40
2.0
 40
2.0
 40
3.0
 40
3.0
 40
3.0
 40
4.0
 40
4.0
 40
4.0
 40
4.0
 10
10.34356707750799
 20
9.93561898578314
 30
0.0
 10
10.06839692123404
 20
9.93561898578314
 30
0.0
 10
9.842616694267677
 20
10.15787333122784
 30
0.0
 10
9.842616694267677
 20
10.43656869614522
 30
0.0
 10
9.842616694267677
 20
10.7152640610626
 30
0.0
 10
10.064869021078
 20
10.9375184065073
 30
0.0
 10
10.34356707750799
 20
10.9375184065073
 30
0.0
 10
10.62226513393798
 20
10.9375184065073
 30
0.0
 10
10.84451746074798
 20
10.7152640610626
 30
0.0
 10
10.84451746074798
 20
10.43656869614522
 30
0.0
 10
10.84451746074798
 20
10.15787333122784
 30
0.0
 10
10.62226513393798
 20
9.93561898578314
 30
0.0
 10
10.34356707750799
 20
9.93561898578314
 30
0.0
  0
SPLINE
  5
9B
330
70
100
AcDbEntity
  8
Ebene 1
 62
     5
420
      255
370
     9
100
AcDbSpline
210
0.0
220
0.0
230
1.0
 70
    11
 71
     3
 72
    44
 73
    40
 74
     0
 42
0.0000000001
 43
0.0000000001
 40
0.0
 40
0.0
 40
0.0
 40
0.0
 40
1.0
 40
1.0
 40
1.0
 40
2.0
 40
2.0
 40
2.0
 40
3.0
 40
3.0
 40
3.0
 40
4.0
 40
4.0
 40
4.0
 40
5.0
 40
5.0
 40
5.0
 40
6.0
 40
6.0
 40
6.0
 40
7.0
 40
7.0
 40
7.0
 40
8.0
 40
8.0
 40
8.0
 40
9.0
 40
9.0
 40
9.0
 40
10.0
 40
10.0
 40
10.0
 40
11.0
 40
11.0
 40
11.0
 40
12.0
 40
12.0
 40
12.0
 40
13.0
 40
13.0
 40
13.0
 40
13.0
 10
21.30802977917332
 20
13.61513204733306
 30
0.0
 10
21.30802977917332
 20
13.61513204733306
 30
0.0
 10
21.92892540333066
 20
22.49112697668145
 30
0.0
 10
21.92892540333066
 20
22.49112697668145
 30
0.0
 10
21.92892540333066
 20
22.49112697668145
 30
0.0
 10
4.773139568528427
 20
22.49112697668145
 30
0.0
 10
4.773139568528427
 20
22.49112697668145
 30
0.0
 10
4.773139568528427
 20
22.49112697668145
 30
0.0
 10
4.773139568528427
 20
12.54267731499914
 30
0.0
 10
4.773139568528427
 20
12.54267731499914
 30
0.0
 10
4.773139568528427
 20
12.54267731499914
 30
0.0
 10
7.023888392953322
 20
12.54267731499914
 30
0.0
 10
7.023888392953322
 20
12.54267731499914
 30
0.0
 10
7.411948662710456
 20
12.54267731499914
 30
0.0
 10
7.722396474789285
 20
12.22870160276427
 30
0.0
 10
7.722396474789285
 20
11.84417057891964
 30
0.0
 10
7.722396474789285
 20
11.84417057891964
 30
0.0
 10
7.747091103003962
 20
5.342401988777563
 30
0.0
 10
7.747091103003962
 20
5.342401988777563
 30
0.0
 10
7.747091103003962
 20
5.342401988777563
 30
0.0
 10
23.7281114187495
 20
5.342401988777563
 30
0.0
 10
23.7281114187495
 20
5.342401988777563
 30
0.0
 10
23.7281114187495
 20
5.342401988777563
 30
0.0
 10
38.82012242725405
 20
4.284056165555504
 30
0.0
 10
38.82012242725405
 20
4.284056165555504
 30
0.0
 10
38.82012242725405
 20
4.284056165555504
 30
0.0
 10
40.15363773387182
 20
11.59722429677287
 30
0.0
 10
40.15363773387182
 20
11.59722429677287
 30
0.0
 10
40.15363773387182
 20
11.59722429677287
 30
0.0
 10
21.95714456731085
 20
12.87076731937109
 30
0.0
 10
21.95714456731085
 20
12.87076731937109
 30
0.0
 10
21.57261219770976
 20
12.89899052062004
 30
0.0
 10
21.27980388641177
 20
13.23060640651365
 30
0.0
 10
21.30802574190425
 20
13.61866331187994
 30
0.0
 10
21.30802574190425
 20
13.61866331187994
 30
0.0
 10
21.30802574190425
 20
13.61866331187994
 30
0.0
 10
21.30802574190425
 20
13.61866331187994
 30
0.0
 10
21.30802574190425
 20
13.61866331187994
 30
0.0
 10
21.30802977917332
 20
13.61513204733306
 30
0.0
 10
21.30802977917332
 20
13.61513204733306
 30
0.0
  0
SPLINE
  5
9C
330
70
100
AcDbEntity
  8
Ebene 1
 62
     5
420
      255
370
     9
100
AcDbSpline
210
0.0
220
0.0
230
1.0
 70
     9
 71
     3
 72
    20
 73
    16
 74
     0
 42
0.0000000001
 43
0.0000000001
 40
0.0
 40
0.0
 40
0.0
 40
0.0
 40
1.0
 40
1.0
 40
1.0
 40
2.0
 40
2.0
 40
2.0
 40
3.0
 40
3.0
 40
3.0
 40
4.0
 40
4.0
 40
4.0
 40
5.0
 40
5.0
 40
5.0
 40
5.0
 10
179.0403555935615
 20
69.53107239907783
 30
0.0
 10
179.0403555935615
 20
70.1096345671182
 30
0.0
 10
179.5095508381278
 20
70.58236376774395
 30
0.0
 10
180.0916496537402
 20
70.58236376774395
 30
0.0
 10
180.6737484693527
 20
70.58236376774395
 30
0.0
 10
181.1429329478685
 20
70.11316314015248
 30
0.0
 10
181.1429329478685
 20
69.53107239907783
 30
0.0
 10
181.1429329478685
 20
68.94898165800317
 30
0.0
 10
180.6737269372518
 20
68.4797810304117
 30
0.0
 10
180.0916388876898
 20
68.4797810304117
 30
0.0
 10
179.5095508381278
 20
68.4797810304117
 30
0.0
 10
179.040344827511
 20
68.94898165800317
 30
0.0
 10
179.040344827511
 20
69.53107239907783
 30
0.0
 10
179.040344827511
 20
69.53107239907783
 30
0.0
 10
179.0403555935615
 20
69.53107239907783
 30
0.0
 10
179.0403555935615
 20
69.53107239907783
 30
0.0
  0
SPLINE
  5
9D
330
70
100
AcDbEntity
  8
Ebene 1
 62
     5
420
      255
370
     9
100
AcDbSpline
210
0.0
220
0.0
230
1.0
 70
     9
 71
     3
 72
    17
 73
    13
 74
     0
 42
0.0000000001
 43
0.0000000001
 40
0.0
 40
0.0
 40
0.0
 40
0.0
 40
1.0
 40
1.0
 40
1.0
 40
2.0
 40
2.0
 40
2.0
 40
3.0
 40
3.0
 40
3.0
 40
4.0
 40
4.0
 40
4.0
 40
4.0
 10
180.049306777329
 20
84.37260855240133
 30
0.0
 10
180.049306777329
 20
84.95117072044171
 30
0.0
 10
180.5185020218952
 20
85.42389857531132
 30
0.0
 10
181.1006008375077
 20
85.42389857531132
 30
0.0
 10
181.6826996531202
 20
85.42389857531132
 30
0.0
 10
182.151884131636
 20
84.95469794771983
 30
0.0
 10
182.151884131636
 20
84.37260855240133
 30
0.0
 10
182.151884131636
 20
83.79051915708283
 30
0.0
 10
181.6826781210193
 20
83.32131852949135
 30
0.0
 10
181.1006008375077
 20
83.32131852949135
 30
0.0
 10
180.5185235539961
 20
83.32131852949135
 30
0.0
 10
180.049306777329
 20
83.79051915708283
 30
0.0
 10
180.049306777329
 20
84.37260855240133
 30
0.0
  0
SPLINE
  5
9E
330
70
100
AcDbEntity
  8
Ebene 1
 62
     5
420
      255
370
     9
100
AcDbSpline
210
0.0
220
0.0
230
1.0
 70
    11
 71
     3
 72
    44
 73
    40
 74
     0
 42
0.0000000001
 43
0.0000000001
 40
0.0
 40
0.0
 40
0.0
 40
0.0
 40
1.0
 40
1.0
 40
1.0
 40
2.0
 40
2.0
 40
2.0
 40
3.0
 40
3.0
 40
3.0
 40
4.0
 40
4.0
 40
4.0
 40
5.0
 40
5.0
 40
5.0
 40
6.0
 40
6.0
 40
6.0
 40
7.0
 40
7.0
 40
7.0
 40
8.0
 40
8.0
 40
8.0
 40
9.0
 40
9.0
 40
9.0
 40
10.0
 40
10.0
 40
10.0
 40
11.0
 40
11.0
 40
11.0
 40
12.0
 40
12.0
 40
12.0
 40
13.0
 40
13.0
 40
13.0
 40
13.0
 10
183.7006020206552
 20
48.86863421803298
 30
0.0
 10
183.7006020206552
 20
48.86863421803298
 30
0.0
 10
183.7006020206552
 20
88.87763208277279
 30
0.0
 10
183.7006020206552
 20
88.87763208277279
 30
0.0
 10
183.7006020206552
 20
88.87763208277279
 30
0.0
 10
178.1054856029254
 20
88.88821578324122
 30
0.0
 10
178.1054856029254
 20
88.88821578324122
 30
0.0
 10
178.1054856029254
 20
88.88821578324122
 30
0.0
 10
176.5320811602294
 20
66.38425543914798
 30
0.0
 10
176.5320811602294
 20
66.38425543914798
 30
0.0
 10
176.5320811602294
 20
66.38425543914798
 30
0.0
 10
176.5320811602294
 20
66.38425543914798
 30
0.0
 10
176.5320811602294
 20
66.38425543914798
 30
0.0
 10
176.5320811602294
 20
66.38425543914798
 30
0.0
 10
147.9955555450982
 20
68.35983377085996
 30
0.0
 10
147.9955555450982
 20
68.35983377085996
 30
0.0
 10
147.2723568723166
 20
68.40922302728933
 30
0.0
 10
147.1453497751838
 20
67.35087720406726
 30
0.0
 10
147.8579654203751
 20
67.22740406299388
 30
0.0
 10
147.8579654203751
 20
67.22740406299388
 30
0.0
 10
163.7684331160235
 20
64.43689761717232
 30
0.0
 10
163.7684331160235
 20
64.43689761717232
 30
0.0
 10
164.1494328753212
 20
64.36986818708422
 30
0.0
 10
164.4034363035365
 20
64.00650321842
 30
0.0
 10
164.3364068734484
 20
63.62549807609704
 30
0.0
 10
164.3364068734484
 20
63.62549807609704
 30
0.0
 10
161.612929857715
 20
48.17012209892826
 30
0.0
 10
161.612929857715
 20
48.17012209892826
 30
0.0
 10
161.612929857715
 20
48.17012209892826
 30
0.0
 10
183.0021006676009
 20
48.17012209892826
 30
0.0
 10
183.0021006676009
 20
48.17012209892826
 30
0.0
 10
183.390152189942
 20
48.17012209892826
 30
0.0
 10
183.7006020206552
 20
48.48409781116313
 30
0.0
 10
183.7006020206552
 20
48.86862883500776
 30
0.0
 10
183.7006020206552
 20
48.86862883500776
 30
0.0
 10
183.7006020206552
 20
48.86862883500776
 30
0.0
 10
183.7006020206552
 20
48.86862883500776
 30
0.0
 10
183.7006020206552
 20
48.86862883500776
 30
0.0
 10
183.7006020206552
 20
48.86863421803298
 30
0.0
 10
183.7006020206552
 20
48.86863421803298
 30
0.0
  0
SPLINE
  5
9F
330
70
100
AcDbEntity
  8
Ebene 1
 62
     5
420
      255
370
     9
100
AcDbSpline
210
0.0
220
0.0
230
1.0
 70
    11
 71
     3
 72
    17
 73
    13
 74
     0
 42
0.0000000001
 43
0.0000000001
 40
0.0
 40
0.0
 40
0.0
 40
0.0
 40
1.0
 40
1.0
 40
1.0
 40
2.0
 40
2.0
 40
2.0
 40
3.0
 40
3.0
 40
3.0
 40
4.0
 40
4.0
 40
4.0
 40
4.0
 10
5.947903741828984
 20
41.53076876708833
 30
0.0
 10
5.947903741828984
 20
48.29359793151425
 30
0.0
 10
11.43366265637857
 20
53.77935819182031
 30
0.0
 10
18.19649316656097
 20
53.77935819182031
 30
0.0
 10
24.95932233098691
 20
53.77935819182031
 30
0.0
 10
30.44508259129296
 20
48.29359793151425
 30
0.0
 10
30.44508259129296
 20
41.53076876708833
 30
0.0
 10
30.44508259129296
 20
34.76793960266239
 30
0.0
 10
24.96285090402118
 20
29.28217934235634
 30
0.0
 10
18.19649316656097
 20
29.28217934235634
 30
0.0
 10
11.43013542910076
 20
29.28217934235634
 30
0.0
 10
5.947903741828984
 20
34.76793960266239
 30
0.0
 10
5.947903741828984
 20
41.53076876708833
 30
0.0
  0
SPLINE
  5
A0
330
70
100
AcDbEntity
  8
Ebene 1
 62
     5
420
      255
370
     9
100
AcDbSpline
210
0.0
220
0.0
230
1.0
 70
     9
 71
     3
 72
    17
 73
    13
 74
     0
 42
0.0000000001
 43
0.0000000001
 40
0.0
 40
0.0
 40
0.0
 40
0.0
 40
1.0
 40
1.0
 40
1.0
 40
2.0
 40
2.0
 40
2.0
 40
3.0
 40
3.0
 40
3.0
 40
4.0
 40
4.0
 40
4.0
 40
4.0
 10
3.44667972578377
 20
41.53076876708833
 30
0.0
 10
3.44667972578377
 20
33.38503503961526
 30
0.0
 10
10.05075742045353
 20
26.78095667206759
 30
0.0
 10
18.19649316656097
 20
26.78095667206759
 30
0.0
 10
26.34222958554665
 20
26.78095667206759
 30
0.0
 10
32.94630526158171
 20
33.38503503961526
 30
0.0
 10
32.94630526158171
 20
41.53076876708833
 30
0.0
 10
32.94630526158171
 20
49.67650249456139
 30
0.0
 10
26.34222689403404
 20
56.28058086210906
 30
0.0
 10
18.19649182080451
 20
56.28058086210906
 30
0.0
 10
10.05075674757529
 20
56.28058086210906
 30
0.0
 10
3.446678380027624
 20
49.67650249456139
 30
0.0
 10
3.44667972578377
 20
41.53076876708833
 30
0.0
  0
SPLINE
  5
A1
330
70
100
AcDbEntity
  8
Ebene 1
 62
     5
420
      255
370
     9
100
AcDbSpline
210
0.0
220
0.0
230
1.0
 70
     9
 71
     3
 72
    17
 73
    13
 74
     0
 42
0.0000000001
 43
0.0000000001
 40
0.0
 40
0.0
 40
0.0
 40
0.0
 40
1.0
 40
1.0
 40
1.0
 40
2.0
 40
2.0
 40
2.0
 40
3.0
 40
3.0
 40
3.0
 40
4.0
 40
4.0
 40
4.0
 40
4.0
 10
45.09964205497665
 20
94.24344558818587
 30
0.0
 10
45.09964205497665
 20
94.82553582460177
 30
0.0
 10
45.56884268256811
 20
95.29473577931533
 30
0.0
 10
46.15093073213016
 20
95.29473577931533
 30
0.0
 10
46.73301878169221
 20
95.29473577931533
 30
0.0
 10
47.20221940928367
 20
94.82553582460177
 30
0.0
 10
47.20221940928367
 20
94.24344558818587
 30
0.0
 10
47.20221940928367
 20
93.66135535176997
 30
0.0
 10
46.72949290017054
 20
93.19215539705641
 30
0.0
 10
46.15093073213016
 20
93.19215539705641
 30
0.0
 10
45.57236856408978
 20
93.19215539705641
 30
0.0
 10
45.09963936346403
 20
93.66135535176997
 30
0.0
 10
45.09964205497665
 20
94.24344558818587
 30
0.0
  0
SPLINE
  5
A2
330
70
100
AcDbEntity
  8
Ebene 1
 62
     5
420
      255
370
     9
100
AcDbSpline
210
0.0
220
0.0
230
1.0
 70
    11
 71
     3
 72
    17
 73
    13
 74
     0
 42
0.0000000001
 43
0.0000000001
 40
0.0
 40
0.0
 40
0.0
 40
0.0
 40
1.0
 40
1.0
 40
1.0
 40
2.0
 40
2.0
 40
2.0
 40
3.0
 40
3.0
 40
3.0
 40
4.0
 40
4.0
 40
4.0
 40
4.0
 10
83.61990306213291
 20
36.09087188168996
 30
0.0
 10
83.61990306213291
 20
42.85370104611589
 30
0.0
 10
89.10566332243897
 20
48.33946130642195
 30
0.0
 10
95.86849248686489
 20
48.33946130642195
 30
0.0
 10
102.6313162682656
 20
48.33946130642195
 30
0.0
 10
108.1170819115969
 20
42.85370104611589
 30
0.0
 10
108.1170819115969
 20
36.09087188168996
 30
0.0
 10
108.1170819115969
 20
29.32804271726404
 30
0.0
 10
102.6348475328125
 20
23.84228245695798
 30
0.0
 10
95.86849248686489
 20
23.84228245695798
 30
0.0
 10
89.10213744091731
 20
23.84228245695798
 30
0.0
 10
83.61990306213291
 20
29.32804271726404
 30
0.0
 10
83.61990306213291
 20
36.09087188168996
 30
0.0
  0
SPLINE
  5
A3
330
70
100
AcDbEntity
  8
Ebene 1
 62
     5
420
      255
370
     9
100
AcDbSpline
210
0.0
220
0.0
230
1.0
 70
    11
 71
     3
 72
    17
 73
    13
 74
     0
 42
0.0000000001
 43
0.0000000001
 40
0.0
 40
0.0
 40
0.0
 40
0.0
 40
1.0
 40
1.0
 40
1.0
 40
2.0
 40
2.0
 40
2.0
 40
3.0
 40
3.0
 40
3.0
 40
4.0
 40
4.0
 40
4.0
 40
4.0
 10
107.1716288933706
 20
14.86750901475087
 30
0.0
 10
107.1716288933706
 20
15.44959706431292
 30
0.0
 10
107.6408241379368
 20
15.91879769190439
 30
0.0
 10
108.2229229535493
 20
15.91879769190439
 30
0.0
 10
108.8050217691618
 20
15.91879769190439
 30
0.0
 10
109.2742170137281
 20
15.44959706431292
 30
0.0
 10
109.2742170137281
 20
14.86750901475087
 30
0.0
 10
109.2742170137281
 20
14.28542096518883
 30
0.0
 10
108.801490504615
 20
13.81622033759736
 30
0.0
 10
108.2229229535493
 20
13.81622033759736
 30
0.0
 10
107.6443554024837
 20
13.81622033759736
 30
0.0
 10
107.1716288933706
 20
14.28542096518883
 30
0.0
 10
107.1716288933706
 20
14.86750901475087
 30
0.0
  0
SPLINE
  5
A4
330
70
100
AcDbEntity
  8
Ebene 1
 62
     5
420
      255
370
     9
100
AcDbSpline
210
0.0
220
0.0
230
1.0
 70
     9
 71
     3
 72
    17
 73
    13
 74
     0
 42
0.0000000001
 43
0.0000000001
 40
0.0
 40
0.0
 40
0.0
 40
0.0
 40
1.0
 40
1.0
 40
1.0
 40
2.0
 40
2.0
 40
2.0
 40
3.0
 40
3.0
 40
3.0
 40
4.0
 40
4.0
 40
4.0
 40
4.0
 10
109.2742062476776
 20
94.29636291299074
 30
0.0
 10
109.2742062476776
 20
93.71427284479432
 30
0.0
 10
108.8050110031114
 20
93.24507289008108
 30
0.0
 10
108.2229121874989
 20
93.24507289008108
 30
0.0
 10
107.6408133718864
 20
93.24507289008108
 30
0.0
 10
107.1716181273201
 20
93.71427284479432
 30
0.0
 10
107.1716181273201
 20
94.29636308121022
 30
0.0
 10
107.1716181273201
 20
94.87845331762644
 30
0.0
 10
107.6443446364333
 20
95.34765327233968
 30
0.0
 10
108.2229121874989
 20
95.34765327233968
 30
0.0
 10
108.8014797385645
 20
95.34765327233968
 30
0.0
 10
109.2742062476776
 20
94.87845331762644
 30
0.0
 10
109.2742062476776
 20
94.29636291299074
 30
0.0
  0
SPLINE
  5
A5
330
70
100
AcDbEntity
  8
Ebene 1
 62
     5
420
      255
370
     9
100
AcDbSpline
210
0.0
220
0.0
230
1.0
 70
    11
 71
     3
 72
    59
 73
    55
 74
     0
 42
0.0000000001
 43
0.0000000001
 40
0.0
 40
0.0
 40
0.0
 40
0.0
 40
1.0
 40
1.0
 40
1.0
 40
2.0
 40
2.0
 40
2.0
 40
3.0
 40
3.0
 40
3.0
 40
4.0
 40
4.0
 40
4.0
 40
5.0
 40
5.0
 40
5.0
 40
6.0
 40
6.0
 40
6.0
 40
7.0
 40
7.0
 40
7.0
 40
8.0
 40
8.0
 40
8.0
 40
9.0
 40
9.0
 40
9.0
 40
10.0
 40
10.0
 40
10.0
 40
11.0
 40
11.0
 40
11.0
 40
12.0
 40
12.0
 40
12.0
 40
13.0
 40
13.0
 40
13.0
 40
14.0
 40
14.0
 40
14.0
 40
15.0
 40
15.0
 40
15.0
 40
16.0
 40
16.0
 40
16.0
 40
17.0
 40
17.0
 40
17.0
 40
18.0
 40
18.0
 40
18.0
 40
18.0
 10
110.127943282139
 20
96.88931009892918
 30
0.0
 10
110.127943282139
 20
96.88931009892918
 30
0.0
 10
42.91592366995703
 20
96.88931009892918
 30
0.0
 10
42.91592366995703
 20
96.88931009892918
 30
0.0
 10
42.91592366995703
 20
96.88931009892918
 30
0.0
 10
42.90181206933256
 20
91.91861237445818
 30
0.0
 10
42.90181206933256
 20
91.91861237445818
 30
0.0
 10
42.90181206933256
 20
91.91861237445818
 30
0.0
 10
61.22530695000119
 20
91.91861237445818
 30
0.0
 10
61.22530695000119
 20
91.91861237445818
 30
0.0
 10
61.60983797384582
 20
91.91861237445818
 30
0.0
 10
61.92381368608069
 20
91.6081642259404
 30
0.0
 10
61.92381368608069
 20
91.22010395618326
 30
0.0
 10
61.92381368608069
 20
91.22010395618326
 30
0.0
 10
61.92381368608069
 20
88.90585461114381
 30
0.0
 10
61.92381368608069
 20
88.90585461114381
 30
0.0
 10
61.92381368608069
 20
88.90585461114381
 30
0.0
 10
80.21908536550036
 20
88.90585461114381
 30
0.0
 10
80.21908536550036
 20
88.90585461114381
 30
0.0
 10
80.603616389345
 20
88.90585461114381
 30
0.0
 10
80.91759210157986
 20
88.59540679906499
 30
0.0
 10
80.91759210157986
 20
88.20734652930786
 30
0.0
 10
80.91759210157986
 20
88.20734652930786
 30
0.0
 10
80.94581530282882
 20
25.7578858131378
 30
0.0
 10
80.94581530282882
 20
25.7578858131378
 30
0.0
 10
85.55314659197149
 20
23.98339308017749
 30
0.0
 10
90.1428377074554
 20
21.79614612212362
 30
0.0
 10
94.51733162356315
 20
19.27022613210758
 30
0.0
 10
94.51733162356315
 20
19.27022613210758
 30
0.0
 10
103.00526426452
 20
14.37008518591045
 30
0.0
 10
103.00526426452
 20
14.37008518591045
 30
0.0
 10
103.3404114149605
 20
14.1760540417147
 30
0.0
 10
103.4568247184527
 20
13.74919090750926
 30
0.0
 10
103.2627989572822
 20
13.41404375706876
 30
0.0
 10
103.2627989572822
 20
13.41404375706876
 30
0.0
 10
95.55098012705792
 20
0.0506621066168178
 30
0.0
 10
95.55098012705792
 20
0.0506621066168178
 30
0.0
 10
95.55098012705792
 20
0.0506621066168178
 30
0.0
 10
110.1279325160885
 20
0.0506621066168178
 30
0.0
 10
110.1279325160885
 20
0.0506621066168178
 30
0.0
 10
110.5124635399331
 20
0.0506621066168178
 30
0.0
 10
110.8264446351932
 20
0.3611119373300269
 30
0.0
 10
110.8264446351932
 20
0.7491742257215384
 30
0.0
 10
110.8264446351932
 20
0.7491742257215384
 30
0.0
 10
110.8264446351932
 20
96.18727399602953
 30
0.0
 10
110.8264446351932
 20
96.18727399602953
 30
0.0
 10
110.8264446351932
 20
96.5718063235756
 30
0.0
 10
110.51599480448
 20
96.88578224608498
 30
0.0
 10
110.1279325160885
 20
96.88578224608498
 30
0.0
 10
110.1279325160885
 20
96.88578224608498
 30
0.0
 10
110.1279325160885
 20
96.88578224608498
 30
0.0
 10
110.1279325160885
 20
96.88578224608498
 30
0.0
 10
110.1279325160885
 20
96.88578224608498
 30
0.0
 10
110.127943282139
 20
96.88931009892918
 30
0.0
 10
110.127943282139
 20
96.88931009892918
 30
0.0
  0
SPLINE
  5
A6
330
70
100
AcDbEntity
  8
Ebene 1
 62
     5
420
      255
370
     9
100
AcDbSpline
210
0.0
220
0.0
230
1.0
 70
     9
 71
     3
 72
    17
 73
    13
 74
     0
 42
0.0000000001
 43
0.0000000001
 40
0.0
 40
0.0
 40
0.0
 40
0.0
 40
1.0
 40
1.0
 40
1.0
 40
2.0
 40
2.0
 40
2.0
 40
3.0
 40
3.0
 40
3.0
 40
4.0
 40
4.0
 40
4.0
 40
4.0
 10
41.05323276021562
 20
75.57068539589038
 30
0.0
 10
41.05323276021562
 20
74.9885946548154
 30
0.0
 10
40.58403213262415
 20
74.5193953729804
 30
0.0
 10
40.00194139154949
 20
74.5193953729804
 30
0.0
 10
39.41985065047484
 20
74.5193953729804
 30
0.0
 10
38.95065002288337
 20
74.98859600057187
 30
0.0
 10
38.95065002288337
 20
75.57068539589038
 30
0.0
 10
38.95065002288337
 20
76.15277479120857
 30
0.0
 10
39.4233765319965
 20
76.62197541880003
 30
0.0
 10
40.00194139154949
 20
76.62197541880003
 30
0.0
 10
40.58050625110248
 20
76.62197541880003
 30
0.0
 10
41.05323276021562
 20
76.15277479120857
 30
0.0
 10
41.05323276021562
 20
75.57068539589038
 30
0.0
  0
SPLINE
  5
A7
330
70
100
AcDbEntity
  8
Ebene 1
 62
     5
420
      255
370
     9
100
AcDbSpline
210
0.0
220
0.0
230
1.0
 70
     9
 71
     3
 72
    17
 73
    13
 74
     0
 42
0.0000000001
 43
0.0000000001
 40
0.0
 40
0.0
 40
0.0
 40
0.0
 40
1.0
 40
1.0
 40
1.0
 40
2.0
 40
2.0
 40
2.0
 40
3.0
 40
3.0
 40
3.0
 40
4.0
 40
4.0
 40
4.0
 40
4.0
 10
29.47845813486106
 20
74.79809342941038
 30
0.0
 10
29.47845813486106
 20
74.21600268833573
 30
0.0
 10
29.00925750726959
 20
73.74680206074426
 30
0.0
 10
28.42716676619494
 20
73.74680206074426
 30
0.0
 10
27.84507602512028
 20
73.74680206074426
 30
0.0
 10
27.37587539752881
 20
74.21600268833573
 30
0.0
 10
27.37587539752881
 20
74.79809208365423
 30
0.0
 10
27.37587539752881
 20
75.38018147897243
 30
0.0
 10
27.84860190664194
 20
75.84938210656389
 30
0.0
 10
28.42716676619494
 20
75.84938210656389
 30
0.0
 10
29.00573162574793
 20
75.84938210656389
 30
0.0
 10
29.47845813486106
 20
75.38018147897243
 30
0.0
 10
29.47845813486106
 20
74.79809342941038
 30
0.0
  0
SPLINE
  5
A8
330
70
100
AcDbEntity
  8
Ebene 1
 62
     5
420
      255
370
     9
100
AcDbSpline
210
0.0
220
0.0
230
1.0
 70
     9
 71
     3
 72
    17
 73
    13
 74
     0
 42
0.0000000001
 43
0.0000000001
 40
0.0
 40
0.0
 40
0.0
 40
0.0
 40
1.0
 40
1.0
 40
1.0
 40
2.0
 40
2.0
 40
2.0
 40
3.0
 40
3.0
 40
3.0
 40
4.0
 40
4.0
 40
4.0
 40
4.0
 10
45.33247942801155
 20
84.97585189109333
 30
0.0
 10
45.33247942801155
 20
85.25454994752333
 30
0.0
 10
45.55473377345625
 20
85.47680160145542
 30
0.0
 10
45.83342913837363
 20
85.47680160145542
 30
0.0
 10
46.11212450329101
 20
85.47680160145542
 30
0.0
 10
46.33437884873571
 20
85.25454860176719
 30
0.0
 10
46.33437884873571
 20
84.97585189109333
 30
0.0
 10
46.33437884873571
 20
84.69715518041949
 30
0.0
 10
46.10859862176935
 20
84.47490218073125
 30
0.0
 10
45.83342913837363
 20
84.47490218073125
 30
0.0
 10
45.55825965497791
 20
84.47490218073125
 30
0.0
 10
45.33247942801155
 20
84.69715518041949
 30
0.0
 10
45.33247942801155
 20
84.97585189109333
 30
0.0
  0
SPLINE
  5
A9
330
70
100
AcDbEntity
  8
Ebene 1
 62
     5
420
      255
370
     9
100
AcDbSpline
210
0.0
220
0.0
230
1.0
 70
     9
 71
     3
 72
    17
 73
    13
 74
     0
 42
0.0000000001
 43
0.0000000001
 40
0.0
 40
0.0
 40
0.0
 40
0.0
 40
1.0
 40
1.0
 40
1.0
 40
2.0
 40
2.0
 40
2.0
 40
3.0
 40
3.0
 40
3.0
 40
4.0
 40
4.0
 40
4.0
 40
4.0
 10
45.33247942801155
 20
82.97557893116666
 30
0.0
 10
45.33247942801155
 20
83.25427698759666
 30
0.0
 10
45.55473377345625
 20
83.47652864152875
 30
0.0
 10
45.83342913837363
 20
83.47652864152875
 30
0.0
 10
46.11212450329101
 20
83.47652864152875
 30
0.0
 10
46.33437884873571
 20
83.25427564184051
 30
0.0
 10
46.33437884873571
 20
82.97557893116666
 30
0.0
 10
46.33437884873571
 20
82.69688222049282
 30
0.0
 10
46.10859862176935
 20
82.47462922080458
 30
0.0
 10
45.83342913837363
 20
82.47462922080458
 30
0.0
 10
45.55825965497791
 20
82.47462922080458
 30
0.0
 10
45.33247942801155
 20
82.69688222049282
 30
0.0
 10
45.33247942801155
 20
82.97557893116666
 30
0.0
  0
SPLINE
  5
AA
330
70
100
AcDbEntity
  8
Ebene 1
 62
     5
420
      255
370
     9
100
AcDbSpline
210
0.0
220
0.0
230
1.0
 70
     9
 71
     3
 72
    17
 73
    13
 74
     0
 42
0.0000000001
 43
0.0000000001
 40
0.0
 40
0.0
 40
0.0
 40
0.0
 40
1.0
 40
1.0
 40
1.0
 40
2.0
 40
2.0
 40
2.0
 40
3.0
 40
3.0
 40
3.0
 40
4.0
 40
4.0
 40
4.0
 40
4.0
 10
45.33247942801155
 20
80.97530597124
 30
0.0
 10
45.33247942801155
 20
81.25400402766999
 30
0.0
 10
45.55473377345625
 20
81.47625568160208
 30
0.0
 10
45.83342913837363
 20
81.47625568160208
 30
0.0
 10
46.11212450329101
 20
81.47625568160208
 30
0.0
 10
46.33437884873571
 20
81.25400268191384
 30
0.0
 10
46.33437884873571
 20
80.97530597124
 30
0.0
 10
46.33437884873571
 20
80.69660926056617
 30
0.0
 10
46.10859862176935
 20
80.47435626087793
 30
0.0
 10
45.83342913837363
 20
80.47435626087793
 30
0.0
 10
45.55825965497791
 20
80.47435626087793
 30
0.0
 10
45.33247942801155
 20
80.69660926056617
 30
0.0
 10
45.33247942801155
 20
80.97530597124
 30
0.0
  0
SPLINE
  5
AB
330
70
100
AcDbEntity
  8
Ebene 1
 62
     5
420
      255
370
     9
100
AcDbSpline
210
0.0
220
0.0
230
1.0
 70
     9
 71
     3
 72
    17
 73
    13
 74
     0
 42
0.0000000001
 43
0.0000000001
 40
0.0
 40
0.0
 40
0.0
 40
0.0
 40
1.0
 40
1.0
 40
1.0
 40
2.0
 40
2.0
 40
2.0
 40
3.0
 40
3.0
 40
3.0
 40
4.0
 40
4.0
 40
4.0
 40
4.0
 10
45.33247942801155
 20
78.97503301131334
 30
0.0
 10
45.33247942801155
 20
79.25373106774333
 30
0.0
 10
45.55473377345625
 20
79.47598272167542
 30
0.0
 10
45.83342913837363
 20
79.47598272167542
 30
0.0
 10
46.11212450329101
 20
79.47598272167542
 30
0.0
 10
46.33437884873571
 20
79.25372972198719
 30
0.0
 10
46.33437884873571
 20
78.97503301131334
 30
0.0
 10
46.33437884873571
 20
78.69633630063948
 30
0.0
 10
46.10859862176935
 20
78.47408330095125
 30
0.0
 10
45.83342913837363
 20
78.47408330095125
 30
0.0
 10
45.55825965497791
 20
78.47408330095125
 30
0.0
 10
45.33247942801155
 20
78.69633630063948
 30
0.0
 10
45.33247942801155
 20
78.97503301131334
 30
0.0
  0
SPLINE
  5
AC
330
70
100
AcDbEntity
  8
Ebene 1
 62
     5
420
      255
370
     9
100
AcDbSpline
210
0.0
220
0.0
230
1.0
 70
     9
 71
     3
 72
    17
 73
    13
 74
     0
 42
0.0000000001
 43
0.0000000001
 40
0.0
 40
0.0
 40
0.0
 40
0.0
 40
1.0
 40
1.0
 40
1.0
 40
2.0
 40
2.0
 40
2.0
 40
3.0
 40
3.0
 40
3.0
 40
4.0
 40
4.0
 40
4.0
 40
4.0
 10
45.33247942801155
 20
76.97476005138667
 30
0.0
 10
45.33247942801155
 20
77.25345810781665
 30
0.0
 10
45.55473377345625
 20
77.47570976174874
 30
0.0
 10
45.83342913837363
 20
77.47570976174874
 30
0.0
 10
46.11212450329101
 20
77.47570976174874
 30
0.0
 10
46.33437884873571
 20
77.25345676206051
 30
0.0
 10
46.33437884873571
 20
76.97476005138667
 30
0.0
 10
46.33437884873571
 20
76.69606334071282
 30
0.0
 10
46.10859862176935
 20
76.47381034102458
 30
0.0
 10
45.83342913837363
 20
76.47381034102458
 30
0.0
 10
45.55825965497791
 20
76.47381034102458
 30
0.0
 10
45.33247942801155
 20
76.69606334071282
 30
0.0
 10
45.33247942801155
 20
76.97476005138667
 30
0.0
  0
SPLINE
  5
AD
330
70
100
AcDbEntity
  8
Ebene 1
 62
     5
420
      255
370
     9
100
AcDbSpline
210
0.0
220
0.0
230
1.0
 70
     9
 71
     3
 72
    17
 73
    13
 74
     0
 42
0.0000000001
 43
0.0000000001
 40
0.0
 40
0.0
 40
0.0
 40
0.0
 40
1.0
 40
1.0
 40
1.0
 40
2.0
 40
2.0
 40
2.0
 40
3.0
 40
3.0
 40
3.0
 40
4.0
 40
4.0
 40
4.0
 40
4.0
 10
47.33275238793821
 20
84.97585458260594
 30
0.0
 10
47.33275238793821
 20
85.25455263903593
 30
0.0
 10
47.55500673338292
 20
85.47680429296802
 30
0.0
 10
47.8337020983003
 20
85.47680429296802
 30
0.0
 10
48.11239746321767
 20
85.47680429296802
 30
0.0
 10
48.33465180866237
 20
85.25455129327946
 30
0.0
 10
48.33465180866237
 20
84.97585458260594
 30
0.0
 10
48.33465180866237
 20
84.69715787193242
 30
0.0
 10
48.10887158169601
 20
84.47490487224387
 30
0.0
 10
47.8337020983003
 20
84.47490487224387
 30
0.0
 10
47.55853261490458
 20
84.47490487224387
 30
0.0
 10
47.33275238793821
 20
84.69715787193242
 30
0.0
 10
47.33275238793821
 20
84.97585458260594
 30
0.0
  0
SPLINE
  5
AE
330
70
100
AcDbEntity
  8
Ebene 1
 62
     5
420
      255
370
     9
100
AcDbSpline
210
0.0
220
0.0
230
1.0
 70
     9
 71
     3
 72
    17
 73
    13
 74
     0
 42
0.0000000001
 43
0.0000000001
 40
0.0
 40
0.0
 40
0.0
 40
0.0
 40
1.0
 40
1.0
 40
1.0
 40
2.0
 40
2.0
 40
2.0
 40
3.0
 40
3.0
 40
3.0
 40
4.0
 40
4.0
 40
4.0
 40
4.0
 10
47.33275238793821
 20
82.97558162267929
 30
0.0
 10
47.33275238793821
 20
83.25427967910927
 30
0.0
 10
47.55500673338292
 20
83.47653133304136
 30
0.0
 10
47.8337020983003
 20
83.47653133304136
 30
0.0
 10
48.11239746321767
 20
83.47653133304136
 30
0.0
 10
48.33465180866237
 20
83.25427833335281
 30
0.0
 10
48.33465180866237
 20
82.97558162267929
 30
0.0
 10
48.33465180866237
 20
82.69688491200575
 30
0.0
 10
48.10887158169601
 20
82.4746319123172
 30
0.0
 10
47.8337020983003
 20
82.4746319123172
 30
0.0
 10
47.55853261490458
 20
82.4746319123172
 30
0.0
 10
47.33275238793821
 20
82.69688491200575
 30
0.0
 10
47.33275238793821
 20
82.97558162267929
 30
0.0
  0
SPLINE
  5
AF
330
70
100
AcDbEntity
  8
Ebene 1
 62
     5
420
      255
370
     9
100
AcDbSpline
210
0.0
220
0.0
230
1.0
 70
     9
 71
     3
 72
    17
 73
    13
 74
     0
 42
0.0000000001
 43
0.0000000001
 40
0.0
 40
0.0
 40
0.0
 40
0.0
 40
1.0
 40
1.0
 40
1.0
 40
2.0
 40
2.0
 40
2.0
 40
3.0
 40
3.0
 40
3.0
 40
4.0
 40
4.0
 40
4.0
 40
4.0
 10
47.33275238793821
 20
80.97530866275262
 30
0.0
 10
47.33275238793821
 20
81.2540067191826
 30
0.0
 10
47.55500673338292
 20
81.47625837311469
 30
0.0
 10
47.8337020983003
 20
81.47625837311469
 30
0.0
 10
48.11239746321767
 20
81.47625837311469
 30
0.0
 10
48.33465180866237
 20
81.25400537342613
 30
0.0
 10
48.33465180866237
 20
80.97530866275262
 30
0.0
 10
48.33465180866237
 20
80.6966119520791
 30
0.0
 10
48.10887158169601
 20
80.47435895239052
 30
0.0
 10
47.8337020983003
 20
80.47435895239052
 30
0.0
 10
47.55853261490458
 20
80.47435895239052
 30
0.0
 10
47.33275238793821
 20
80.6966119520791
 30
0.0
 10
47.33275238793821
 20
80.97530866275262
 30
0.0
  0
SPLINE
  5
B0
330
70
100
AcDbEntity
  8
Ebene 1
 62
     5
420
      255
370
     9
100
AcDbSpline
210
0.0
220
0.0
230
1.0
 70
     9
 71
     3
 72
    17
 73
    13
 74
     0
 42
0.0000000001
 43
0.0000000001
 40
0.0
 40
0.0
 40
0.0
 40
0.0
 40
1.0
 40
1.0
 40
1.0
 40
2.0
 40
2.0
 40
2.0
 40
3.0
 40
3.0
 40
3.0
 40
4.0
 40
4.0
 40
4.0
 40
4.0
 10
47.33275238793821
 20
78.97503570282594
 30
0.0
 10
47.33275238793821
 20
79.25373375925594
 30
0.0
 10
47.55500673338292
 20
79.47598541318803
 30
0.0
 10
47.8337020983003
 20
79.47598541318803
 30
0.0
 10
48.11239746321767
 20
79.47598541318803
 30
0.0
 10
48.33465180866237
 20
79.25373241349948
 30
0.0
 10
48.33465180866237
 20
78.97503570282594
 30
0.0
 10
48.33465180866237
 20
78.69633899215242
 30
0.0
 10
48.10887158169601
 20
78.47408599246387
 30
0.0
 10
47.8337020983003
 20
78.47408599246387
 30
0.0
 10
47.55853261490458
 20
78.47408599246387
 30
0.0
 10
47.33275238793821
 20
78.69633899215242
 30
0.0
 10
47.33275238793821
 20
78.97503570282594
 30
0.0
  0
SPLINE
  5
B1
330
70
100
AcDbEntity
  8
Ebene 1
 62
     5
420
      255
370
     9
100
AcDbSpline
210
0.0
220
0.0
230
1.0
 70
     9
 71
     3
 72
    17
 73
    13
 74
     0
 42
0.0000000001
 43
0.0000000001
 40
0.0
 40
0.0
 40
0.0
 40
0.0
 40
1.0
 40
1.0
 40
1.0
 40
2.0
 40
2.0
 40
2.0
 40
3.0
 40
3.0
 40
3.0
 40
4.0
 40
4.0
 40
4.0
 40
4.0
 10
47.33275238793821
 20
76.97476274289929
 30
0.0
 10
47.33275238793821
 20
77.25346079932927
 30
0.0
 10
47.55500673338292
 20
77.47571245326136
 30
0.0
 10
47.8337020983003
 20
77.47571245326136
 30
0.0
 10
48.11239746321767
 20
77.47571245326136
 30
0.0
 10
48.33465180866237
 20
77.2534594535728
 30
0.0
 10
48.33465180866237
 20
76.97476274289929
 30
0.0
 10
48.33465180866237
 20
76.69606603222575
 30
0.0
 10
48.10887158169601
 20
76.47381303253721
 30
0.0
 10
47.8337020983003
 20
76.47381303253721
 30
0.0
 10
47.55853261490458
 20
76.47381303253721
 30
0.0
 10
47.33275238793821
 20
76.69606603222575
 30
0.0
 10
47.33275238793821
 20
76.97476274289929
 30
0.0
  0
SPLINE
  5
B2
330
70
100
AcDbEntity
  8
Ebene 1
 62
     5
420
      255
370
     9
100
AcDbSpline
210
0.0
220
0.0
230
1.0
 70
     9
 71
     3
 72
    17
 73
    13
 74
     0
 42
0.0000000001
 43
0.0000000001
 40
0.0
 40
0.0
 40
0.0
 40
0.0
 40
1.0
 40
1.0
 40
1.0
 40
2.0
 40
2.0
 40
2.0
 40
3.0
 40
3.0
 40
3.0
 40
4.0
 40
4.0
 40
4.0
 40
4.0
 10
49.33302534786488
 20
84.97585727411856
 30
0.0
 10
49.33302534786488
 20
85.25455533054854
 30
0.0
 10
49.55527969330958
 20
85.47680698448065
 30
0.0
 10
49.83397505822697
 20
85.47680698448065
 30
0.0
 10
50.11267042314434
 20
85.47680698448065
 30
0.0
 10
50.33492476858905
 20
85.25455398479239
 30
0.0
 10
50.33492476858905
 20
84.97585727411856
 30
0.0
 10
50.33492476858905
 20
84.69716056344472
 30
0.0
 10
50.10914454162268
 20
84.47490756375648
 30
0.0
 10
49.83397505822697
 20
84.47490756375648
 30
0.0
 10
49.55880557483125
 20
84.47490756375648
 30
0.0
 10
49.33302534786488
 20
84.69716056344472
 30
0.0
 10
49.33302534786488
 20
84.97585727411856
 30
0.0
  0
SPLINE
  5
B3
330
70
100
AcDbEntity
  8
Ebene 1
 62
     5
420
      255
370
     9
100
AcDbSpline
210
0.0
220
0.0
230
1.0
 70
     9
 71
     3
 72
    17
 73
    13
 74
     0
 42
0.0000000001
 43
0.0000000001
 40
0.0
 40
0.0
 40
0.0
 40
0.0
 40
1.0
 40
1.0
 40
1.0
 40
2.0
 40
2.0
 40
2.0
 40
3.0
 40
3.0
 40
3.0
 40
4.0
 40
4.0
 40
4.0
 40
4.0
 10
49.33302534786488
 20
82.97558431419188
 30
0.0
 10
49.33302534786488
 20
83.25428237062189
 30
0.0
 10
49.55527969330958
 20
83.47653402455398
 30
0.0
 10
49.83397505822697
 20
83.47653402455398
 30
0.0
 10
50.11267042314434
 20
83.47653402455398
 30
0.0
 10
50.33492476858905
 20
83.25428102486574
 30
0.0
 10
50.33492476858905
 20
82.97558431419188
 30
0.0
 10
50.33492476858905
 20
82.69688760351805
 30
0.0
 10
50.10914454162268
 20
82.47463460382981
 30
0.0
 10
49.83397505822697
 20
82.47463460382981
 30
0.0
 10
49.55880557483125
 20
82.47463460382981
 30
0.0
 10
49.33302534786488
 20
82.69688760351805
 30
0.0
 10
49.33302534786488
 20
82.97558431419188
 30
0.0
  0
SPLINE
  5
B4
330
70
100
AcDbEntity
  8
Ebene 1
 62
     5
420
      255
370
     9
100
AcDbSpline
210
0.0
220
0.0
230
1.0
 70
     9
 71
     3
 72
    17
 73
    13
 74
     0
 42
0.0000000001
 43
0.0000000001
 40
0.0
 40
0.0
 40
0.0
 40
0.0
 40
1.0
 40
1.0
 40
1.0
 40
2.0
 40
2.0
 40
2.0
 40
3.0
 40
3.0
 40
3.0
 40
4.0
 40
4.0
 40
4.0
 40
4.0
 10
49.33302534786488
 20
80.97531135426523
 30
0.0
 10
49.33302534786488
 20
81.25400941069521
 30
0.0
 10
49.55527969330958
 20
81.4762610646273
 30
0.0
 10
49.83397505822697
 20
81.4762610646273
 30
0.0
 10
50.11267042314434
 20
81.4762610646273
 30
0.0
 10
50.33492476858905
 20
81.25400806493907
 30
0.0
 10
50.33492476858905
 20
80.97531135426523
 30
0.0
 10
50.33492476858905
 20
80.69661464359139
 30
0.0
 10
50.10914454162268
 20
80.47436164390315
 30
0.0
 10
49.83397505822697
 20
80.47436164390315
 30
0.0
 10
49.55880557483125
 20
80.47436164390315
 30
0.0
 10
49.33302534786488
 20
80.69661464359139
 30
0.0
 10
49.33302534786488
 20
80.97531135426523
 30
0.0
  0
SPLINE
  5
B5
330
70
100
AcDbEntity
  8
Ebene 1
 62
     5
420
      255
370
     9
100
AcDbSpline
210
0.0
220
0.0
230
1.0
 70
     9
 71
     3
 72
    17
 73
    13
 74
     0
 42
0.0000000001
 43
0.0000000001
 40
0.0
 40
0.0
 40
0.0
 40
0.0
 40
1.0
 40
1.0
 40
1.0
 40
2.0
 40
2.0
 40
2.0
 40
3.0
 40
3.0
 40
3.0
 40
4.0
 40
4.0
 40
4.0
 40
4.0
 10
49.33302534786488
 20
78.97503839433856
 30
0.0
 10
49.33302534786488
 20
79.25373645076856
 30
0.0
 10
49.55527969330958
 20
79.47598810470065
 30
0.0
 10
49.83397505822697
 20
79.47598810470065
 30
0.0
 10
50.11267042314434
 20
79.47598810470065
 30
0.0
 10
50.33492476858905
 20
79.25373510501241
 30
0.0
 10
50.33492476858905
 20
78.97503839433856
 30
0.0
 10
50.33492476858905
 20
78.69634168366471
 30
0.0
 10
50.10914454162268
 20
78.47408868397647
 30
0.0
 10
49.83397505822697
 20
78.47408868397647
 30
0.0
 10
49.55880557483125
 20
78.47408868397647
 30
0.0
 10
49.33302534786488
 20
78.69634168366471
 30
0.0
 10
49.33302534786488
 20
78.97503839433856
 30
0.0
  0
SPLINE
  5
B6
330
70
100
AcDbEntity
  8
Ebene 1
 62
     5
420
      255
370
     9
100
AcDbSpline
210
0.0
220
0.0
230
1.0
 70
     9
 71
     3
 72
    17
 73
    13
 74
     0
 42
0.0000000001
 43
0.0000000001
 40
0.0
 40
0.0
 40
0.0
 40
0.0
 40
1.0
 40
1.0
 40
1.0
 40
2.0
 40
2.0
 40
2.0
 40
3.0
 40
3.0
 40
3.0
 40
4.0
 40
4.0
 40
4.0
 40
4.0
 10
49.33302534786488
 20
76.97476543441189
 30
0.0
 10
49.33302534786488
 20
77.25346349084188
 30
0.0
 10
49.55527969330958
 20
77.47571514477397
 30
0.0
 10
49.83397505822697
 20
77.47571514477397
 30
0.0
 10
50.11267042314434
 20
77.47571514477397
 30
0.0
 10
50.33492476858905
 20
77.25346214508573
 30
0.0
 10
50.33492476858905
 20
76.97476543441189
 30
0.0
 10
50.33492476858905
 20
76.69606872373805
 30
0.0
 10
50.10914454162268
 20
76.47381572404981
 30
0.0
 10
49.83397505822697
 20
76.47381572404981
 30
0.0
 10
49.55880557483125
 20
76.47381572404981
 30
0.0
 10
49.33302534786488
 20
76.69606872373805
 30
0.0
 10
49.33302534786488
 20
76.97476543441189
 30
0.0
  0
SPLINE
  5
B7
330
70
100
AcDbEntity
  8
Ebene 1
 62
     5
420
      255
370
     9
100
AcDbSpline
210
0.0
220
0.0
230
1.0
 70
     9
 71
     3
 72
    17
 73
    13
 74
     0
 42
0.0000000001
 43
0.0000000001
 40
0.0
 40
0.0
 40
0.0
 40
0.0
 40
1.0
 40
1.0
 40
1.0
 40
2.0
 40
2.0
 40
2.0
 40
3.0
 40
3.0
 40
3.0
 40
4.0
 40
4.0
 40
4.0
 40
4.0
 10
51.33329830779155
 20
84.97585996563117
 30
0.0
 10
51.33329830779155
 20
85.25455802206115
 30
0.0
 10
51.55555265323625
 20
85.47680967599324
 30
0.0
 10
51.83424801815363
 20
85.47680967599324
 30
0.0
 10
52.11294338307101
 20
85.47680967599324
 30
0.0
 10
52.33519772851572
 20
85.25455667630469
 30
0.0
 10
52.33519772851572
 20
84.97585996563117
 30
0.0
 10
52.33519772851572
 20
84.69716325495765
 30
0.0
 10
52.10941750154935
 20
84.47491025526909
 30
0.0
 10
51.83424801815363
 20
84.47491025526909
 30
0.0
 10
51.55907853475792
 20
84.47491025526909
 30
0.0
 10
51.33329830779155
 20
84.69716325495765
 30
0.0
 10
51.33329830779155
 20
84.97585996563117
 30
0.0
  0
SPLINE
  5
B8
330
70
100
AcDbEntity
  8
Ebene 1
 62
     5
420
      255
370
     9
100
AcDbSpline
210
0.0
220
0.0
230
1.0
 70
     9
 71
     3
 72
    17
 73
    13
 74
     0
 42
0.0000000001
 43
0.0000000001
 40
0.0
 40
0.0
 40
0.0
 40
0.0
 40
1.0
 40
1.0
 40
1.0
 40
2.0
 40
2.0
 40
2.0
 40
3.0
 40
3.0
 40
3.0
 40
4.0
 40
4.0
 40
4.0
 40
4.0
 10
51.33329830779155
 20
82.97558700570451
 30
0.0
 10
51.33329830779155
 20
83.2542850621345
 30
0.0
 10
51.55555265323625
 20
83.47653671606659
 30
0.0
 10
51.83424801815363
 20
83.47653671606659
 30
0.0
 10
52.11294338307101
 20
83.47653671606659
 30
0.0
 10
52.33519772851572
 20
83.25428371637803
 30
0.0
 10
52.33519772851572
 20
82.97558700570451
 30
0.0
 10
52.33519772851572
 20
82.69689029503098
 30
0.0
 10
52.10941750154935
 20
82.47463729534242
 30
0.0
 10
51.83424801815363
 20
82.47463729534242
 30
0.0
 10
51.55907853475792
 20
82.47463729534242
 30
0.0
 10
51.33329830779155
 20
82.69689029503098
 30
0.0
 10
51.33329830779155
 20
82.97558700570451
 30
0.0
  0
SPLINE
  5
B9
330
70
100
AcDbEntity
  8
Ebene 1
 62
     5
420
      255
370
     9
100
AcDbSpline
210
0.0
220
0.0
230
1.0
 70
     9
 71
     3
 72
    17
 73
    13
 74
     0
 42
0.0000000001
 43
0.0000000001
 40
0.0
 40
0.0
 40
0.0
 40
0.0
 40
1.0
 40
1.0
 40
1.0
 40
2.0
 40
2.0
 40
2.0
 40
3.0
 40
3.0
 40
3.0
 40
4.0
 40
4.0
 40
4.0
 40
4.0
 10
51.33329830779155
 20
80.97531404577784
 30
0.0
 10
51.33329830779155
 20
81.25401210220783
 30
0.0
 10
51.55555265323625
 20
81.47626375613992
 30
0.0
 10
51.83424801815363
 20
81.47626375613992
 30
0.0
 10
52.11294338307101
 20
81.47626375613992
 30
0.0
 10
52.33519772851572
 20
81.25401075645136
 30
0.0
 10
52.33519772851572
 20
80.97531404577784
 30
0.0
 10
52.33519772851572
 20
80.69661733510432
 30
0.0
 10
52.10941750154935
 20
80.47436433541575
 30
0.0
 10
51.83424801815363
 20
80.47436433541575
 30
0.0
 10
51.55907853475792
 20
80.47436433541575
 30
0.0
 10
51.33329830779155
 20
80.69661733510432
 30
0.0
 10
51.33329830779155
 20
80.97531404577784
 30
0.0
  0
SPLINE
  5
BA
330
70
100
AcDbEntity
  8
Ebene 1
 62
     5
420
      255
370
     9
100
AcDbSpline
210
0.0
220
0.0
230
1.0
 70
     9
 71
     3
 72
    17
 73
    13
 74
     0
 42
0.0000000001
 43
0.0000000001
 40
0.0
 40
0.0
 40
0.0
 40
0.0
 40
1.0
 40
1.0
 40
1.0
 40
2.0
 40
2.0
 40
2.0
 40
3.0
 40
3.0
 40
3.0
 40
4.0
 40
4.0
 40
4.0
 40
4.0
 10
51.33329830779155
 20
78.97504108585117
 30
0.0
 10
51.33329830779155
 20
79.25373914228116
 30
0.0
 10
51.55555265323625
 20
79.47599079621325
 30
0.0
 10
51.83424801815363
 20
79.47599079621325
 30
0.0
 10
52.11294338307101
 20
79.47599079621325
 30
0.0
 10
52.33519772851572
 20
79.25373779652469
 30
0.0
 10
52.33519772851572
 20
78.97504108585117
 30
0.0
 10
52.33519772851572
 20
78.69634437517764
 30
0.0
 10
52.10941750154935
 20
78.47409137548909
 30
0.0
 10
51.83424801815363
 20
78.47409137548909
 30
0.0
 10
51.55907853475792
 20
78.47409137548909
 30
0.0
 10
51.33329830779155
 20
78.69634437517764
 30
0.0
 10
51.33329830779155
 20
78.97504108585117
 30
0.0
  0
SPLINE
  5
BB
330
70
100
AcDbEntity
  8
Ebene 1
 62
     5
420
      255
370
     9
100
AcDbSpline
210
0.0
220
0.0
230
1.0
 70
     9
 71
     3
 72
    17
 73
    13
 74
     0
 42
0.0000000001
 43
0.0000000001
 40
0.0
 40
0.0
 40
0.0
 40
0.0
 40
1.0
 40
1.0
 40
1.0
 40
2.0
 40
2.0
 40
2.0
 40
3.0
 40
3.0
 40
3.0
 40
4.0
 40
4.0
 40
4.0
 40
4.0
 10
51.33329830779155
 20
76.97476812592451
 30
0.0
 10
51.33329830779155
 20
77.2534661823545
 30
0.0
 10
51.55555265323625
 20
77.47571783628659
 30
0.0
 10
51.83424801815363
 20
77.47571783628659
 30
0.0
 10
52.11294338307101
 20
77.47571783628659
 30
0.0
 10
52.33519772851572
 20
77.25346483659802
 30
0.0
 10
52.33519772851572
 20
76.97476812592451
 30
0.0
 10
52.33519772851572
 20
76.69607141525098
 30
0.0
 10
52.10941750154935
 20
76.47381841556242
 30
0.0
 10
51.83424801815363
 20
76.47381841556242
 30
0.0
 10
51.55907853475792
 20
76.47381841556242
 30
0.0
 10
51.33329830779155
 20
76.69607141525098
 30
0.0
 10
51.33329830779155
 20
76.97476812592451
 30
0.0
  0
SPLINE
  5
BC
330
70
100
AcDbEntity
  8
Ebene 1
 62
     5
420
      255
370
     9
100
AcDbSpline
210
0.0
220
0.0
230
1.0
 70
     9
 71
     3
 72
    17
 73
    13
 74
     0
 42
0.0000000001
 43
0.0000000001
 40
0.0
 40
0.0
 40
0.0
 40
0.0
 40
1.0
 40
1.0
 40
1.0
 40
2.0
 40
2.0
 40
2.0
 40
3.0
 40
3.0
 40
3.0
 40
4.0
 40
4.0
 40
4.0
 40
4.0
 10
53.33357126771821
 20
84.97586265714378
 30
0.0
 10
53.33357126771821
 20
85.25456071357377
 30
0.0
 10
53.55582561316293
 20
85.47681236750586
 30
0.0
 10
53.8345209780803
 20
85.47681236750586
 30
0.0
 10
54.11321634299767
 20
85.47681236750586
 30
0.0
 10
54.33547068844237
 20
85.25455936781762
 30
0.0
 10
54.33547068844237
 20
84.97586265714378
 30
0.0
 10
54.33547068844237
 20
84.69716594646994
 30
0.0
 10
54.10969046147601
 20
84.47491294678171
 30
0.0
 10
53.8345209780803
 20
84.47491294678171
 30
0.0
 10
53.55935149468457
 20
84.47491294678171
 30
0.0
 10
53.33357126771821
 20
84.69716594646994
 30
0.0
 10
53.33357126771821
 20
84.97586265714378
 30
0.0
  0
SPLINE
  5
BD
330
70
100
AcDbEntity
  8
Ebene 1
 62
     5
420
      255
370
     9
100
AcDbSpline
210
0.0
220
0.0
230
1.0
 70
     9
 71
     3
 72
    17
 73
    13
 74
     0
 42
0.0000000001
 43
0.0000000001
 40
0.0
 40
0.0
 40
0.0
 40
0.0
 40
1.0
 40
1.0
 40
1.0
 40
2.0
 40
2.0
 40
2.0
 40
3.0
 40
3.0
 40
3.0
 40
4.0
 40
4.0
 40
4.0
 40
4.0
 10
53.33357126771821
 20
82.97558969721711
 30
0.0
 10
53.33357126771821
 20
83.25428775364711
 30
0.0
 10
53.55582561316293
 20
83.4765394075792
 30
0.0
 10
53.8345209780803
 20
83.4765394075792
 30
0.0
 10
54.11321634299767
 20
83.4765394075792
 30
0.0
 10
54.33547068844237
 20
83.25428640789096
 30
0.0
 10
54.33547068844237
 20
82.97558969721711
 30
0.0
 10
54.33547068844237
 20
82.69689298654327
 30
0.0
 10
54.10969046147601
 20
82.47463998685503
 30
0.0
 10
53.8345209780803
 20
82.47463998685503
 30
0.0
 10
53.55935149468457
 20
82.47463998685503
 30
0.0
 10
53.33357126771821
 20
82.69689298654327
 30
0.0
 10
53.33357126771821
 20
82.97558969721711
 30
0.0
  0
SPLINE
  5
BE
330
70
100
AcDbEntity
  8
Ebene 1
 62
     5
420
      255
370
     9
100
AcDbSpline
210
0.0
220
0.0
230
1.0
 70
     9
 71
     3
 72
    17
 73
    13
 74
     0
 42
0.0000000001
 43
0.0000000001
 40
0.0
 40
0.0
 40
0.0
 40
0.0
 40
1.0
 40
1.0
 40
1.0
 40
2.0
 40
2.0
 40
2.0
 40
3.0
 40
3.0
 40
3.0
 40
4.0
 40
4.0
 40
4.0
 40
4.0
 10
53.33357126771821
 20
80.97531673729045
 30
0.0
 10
53.33357126771821
 20
81.25401479372044
 30
0.0
 10
53.55582561316293
 20
81.47626644765253
 30
0.0
 10
53.8345209780803
 20
81.47626644765253
 30
0.0
 10
54.11321634299767
 20
81.47626644765253
 30
0.0
 10
54.33547068844237
 20
81.25401344796429
 30
0.0
 10
54.33547068844237
 20
80.97531673729045
 30
0.0
 10
54.33547068844237
 20
80.69662002661662
 30
0.0
 10
54.10969046147601
 20
80.47436702692836
 30
0.0
 10
53.8345209780803
 20
80.47436702692836
 30
0.0
 10
53.55935149468457
 20
80.47436702692836
 30
0.0
 10
53.33357126771821
 20
80.69662002661662
 30
0.0
 10
53.33357126771821
 20
80.97531673729045
 30
0.0
  0
SPLINE
  5
BF
330
70
100
AcDbEntity
  8
Ebene 1
 62
     5
420
      255
370
     9
100
AcDbSpline
210
0.0
220
0.0
230
1.0
 70
     9
 71
     3
 72
    17
 73
    13
 74
     0
 42
0.0000000001
 43
0.0000000001
 40
0.0
 40
0.0
 40
0.0
 40
0.0
 40
1.0
 40
1.0
 40
1.0
 40
2.0
 40
2.0
 40
2.0
 40
3.0
 40
3.0
 40
3.0
 40
4.0
 40
4.0
 40
4.0
 40
4.0
 10
53.33357126771821
 20
78.97504377736378
 30
0.0
 10
53.33357126771821
 20
79.25374183379377
 30
0.0
 10
53.55582561316293
 20
79.47599348772588
 30
0.0
 10
53.8345209780803
 20
79.47599348772588
 30
0.0
 10
54.11321634299767
 20
79.47599348772588
 30
0.0
 10
54.33547068844237
 20
79.25374048803762
 30
0.0
 10
54.33547068844237
 20
78.97504377736378
 30
0.0
 10
54.33547068844237
 20
78.69634706668994
 30
0.0
 10
54.10969046147601
 20
78.4740940670017
 30
0.0
 10
53.8345209780803
 20
78.4740940670017
 30
0.0
 10
53.55935149468457
 20
78.4740940670017
 30
0.0
 10
53.33357126771821
 20
78.69634706668994
 30
0.0
 10
53.33357126771821
 20
78.97504377736378
 30
0.0
  0
SPLINE
  5
C0
330
70
100
AcDbEntity
  8
Ebene 1
 62
     5
420
      255
370
     9
100
AcDbSpline
210
0.0
220
0.0
230
1.0
 70
     9
 71
     3
 72
    17
 73
    13
 74
     0
 42
0.0000000001
 43
0.0000000001
 40
0.0
 40
0.0
 40
0.0
 40
0.0
 40
1.0
 40
1.0
 40
1.0
 40
2.0
 40
2.0
 40
2.0
 40
3.0
 40
3.0
 40
3.0
 40
4.0
 40
4.0
 40
4.0
 40
4.0
 10
53.33357126771821
 20
76.97476947168066
 30
0.0
 10
53.33357126771821
 20
77.25346752811096
 30
0.0
 10
53.55582561316293
 20
77.47571918204274
 30
0.0
 10
53.8345209780803
 20
77.47571918204274
 30
0.0
 10
54.11321634299767
 20
77.47571918204274
 30
0.0
 10
54.33547068844237
 20
77.2534661823545
 30
0.0
 10
54.33547068844237
 20
76.97476947168066
 30
0.0
 10
54.33547068844237
 20
76.69607276100713
 30
0.0
 10
54.10969046147601
 20
76.47381976131857
 30
0.0
 10
53.8345209780803
 20
76.47381976131857
 30
0.0
 10
53.55935149468457
 20
76.47381976131857
 30
0.0
 10
53.33357126771821
 20
76.69607276100713
 30
0.0
 10
53.33357126771821
 20
76.97476947168066
 30
0.0
  0
SPLINE
  5
C1
330
70
100
AcDbEntity
  8
Ebene 1
 62
     5
420
      255
370
     9
100
AcDbSpline
210
0.0
220
0.0
230
1.0
 70
     9
 71
     3
 72
    44
 73
    40
 74
     0
 42
0.0000000001
 43
0.0000000001
 40
0.0
 40
0.0
 40
0.0
 40
0.0
 40
1.0
 40
1.0
 40
1.0
 40
2.0
 40
2.0
 40
2.0
 40
3.0
 40
3.0
 40
3.0
 40
4.0
 40
4.0
 40
4.0
 40
5.0
 40
5.0
 40
5.0
 40
6.0
 40
6.0
 40
6.0
 40
7.0
 40
7.0
 40
7.0
 40
8.0
 40
8.0
 40
8.0
 40
9.0
 40
9.0
 40
9.0
 40
10.0
 40
10.0
 40
10.0
 40
11.0
 40
11.0
 40
11.0
 40
12.0
 40
12.0
 40
12.0
 40
13.0
 40
13.0
 40
13.0
 40
13.0
 10
42.87006029504934
 20
80.13569534072267
 30
0.0
 10
42.89828349629829
 20
79.74763574384346
 30
0.0
 10
42.60547383924382
 20
79.41601985794985
 30
0.0
 10
42.2209428153992
 20
79.38779800245736
 30
0.0
 10
42.2209428153992
 20
79.38779800245736
 30
0.0
 10
24.02444964883823
 20
78.11425497985914
 30
0.0
 10
24.02444964883823
 20
78.11425497985914
 30
0.0
 10
24.02444964883823
 20
78.11425497985914
 30
0.0
 10
25.35796495545601
 20
70.80108684864177
 30
0.0
 10
25.35796495545601
 20
70.80108684864177
 30
0.0
 10
25.35796495545601
 20
70.80108684864177
 30
0.0
 10
40.44997596396056
 20
71.85943267186383
 30
0.0
 10
40.44997596396056
 20
71.85943267186383
 30
0.0
 10
40.44997596396056
 20
71.85943267186383
 30
0.0
 10
56.4309962797061
 20
71.85943267186383
 30
0.0
 10
56.4309962797061
 20
71.85943267186383
 30
0.0
 10
56.4309962797061
 20
71.85943267186383
 30
0.0
 10
56.45569359943338
 20
78.36120395351852
 30
0.0
 10
56.45569359943338
 20
78.36120395351852
 30
0.0
 10
56.45569359943338
 20
78.74573632311928
 30
0.0
 10
56.76614343014659
 20
79.05971203535417
 30
0.0
 10
57.15420033551287
 20
79.05971203535417
 30
0.0
 10
57.15420033551287
 20
79.05971203535417
 30
0.0
 10
59.4049508421332
 20
79.05971203535417
 30
0.0
 10
59.4049508421332
 20
79.05971203535417
 30
0.0
 10
59.4049508421332
 20
79.05971203535417
 30
0.0
 10
59.4049508421332
 20
89.00816169703649
 30
0.0
 10
59.4049508421332
 20
89.00816169703649
 30
0.0
 10
59.4049508421332
 20
89.00816169703649
 30
0.0
 10
42.24916332513553
 20
89.00816169703649
 30
0.0
 10
42.24916332513553
 20
89.00816169703649
 30
0.0
 10
42.24916332513553
 20
89.00816169703649
 30
0.0
 10
42.87006029504934
 20
80.13216811344454
 30
0.0
 10
42.87006029504934
 20
80.13216811344454
 30
0.0
 10
42.87006029504934
 20
80.13216811344454
 30
0.0
 10
42.87006029504934
 20
80.13216811344454
 30
0.0
 10
42.87006029504934
 20
80.13216811344454
 30
0.0
 10
42.87006029504934
 20
80.13216811344454
 30
0.0
 10
42.87006029504934
 20
80.13569534072267
 30
0.0
 10
42.87006029504934
 20
80.13569534072267
 30
0.0
  0
SPLINE
  5
C2
330
70
100
AcDbEntity
  8
Ebene 1
 62
     5
420
      255
370
     9
100
AcDbSpline
210
0.0
220
0.0
230
1.0
 70
     9
 71
     3
 72
    17
 73
    13
 74
     0
 42
0.0000000001
 43
0.0000000001
 40
0.0
 40
0.0
 40
0.0
 40
0.0
 40
1.0
 40
1.0
 40
1.0
 40
2.0
 40
2.0
 40
2.0
 40
3.0
 40
3.0
 40
3.0
 40
4.0
 40
4.0
 40
4.0
 40
4.0
 10
20.35904549640017
 20
93.27682298216888
 30
0.0
 10
20.35904549640017
 20
93.8589130503653
 30
0.0
 10
20.82824612399165
 20
94.32811317329834
 30
0.0
 10
21.41033551930984
 20
94.32811317329834
 30
0.0
 10
21.99242491462834
 20
94.32811317329834
 30
0.0
 10
22.46162554221982
 20
93.8589130503653
 30
0.0
 10
22.46162554221982
 20
93.27682298216888
 30
0.0
 10
22.46162554221982
 20
92.69473291397245
 30
0.0
 10
21.98889768735022
 20
92.22553262281994
 30
0.0
 10
21.41033551930984
 20
92.22553262281994
 30
0.0
 10
20.83177335126945
 20
92.22553262281994
 30
0.0
 10
20.35904549640017
 20
92.69473257753316
 30
0.0
 10
20.35904549640017
 20
93.27682298216888
 30
0.0
  0
SPLINE
  5
C3
330
70
100
AcDbEntity
  8
Ebene 1
 62
     5
420
      255
370
     9
100
AcDbSpline
210
0.0
220
0.0
230
1.0
 70
    11
 71
     3
 72
    17
 73
    13
 74
     0
 42
0.0000000001
 43
0.0000000001
 40
0.0
 40
0.0
 40
0.0
 40
0.0
 40
1.0
 40
1.0
 40
1.0
 40
2.0
 40
2.0
 40
2.0
 40
3.0
 40
3.0
 40
3.0
 40
4.0
 40
4.0
 40
4.0
 40
4.0
 10
35.20058164972369
 20
94.2857793807421
 30
0.0
 10
35.20058164972369
 20
94.867869617158
 30
0.0
 10
35.66978227731516
 20
95.33706957187156
 30
0.0
 10
36.25187301838982
 20
95.33706957187156
 30
0.0
 10
36.83396375946447
 20
95.33706957187156
 30
0.0
 10
37.30316438705595
 20
94.867869617158
 30
0.0
 10
37.30316438705595
 20
94.2857793807421
 30
0.0
 10
37.30316438705595
 20
93.70368914432587
 30
0.0
 10
36.83043787794281
 20
93.23448918961265
 30
0.0
 10
36.25187301838982
 20
93.23448918961265
 30
0.0
 10
35.67330815883682
 20
93.23448918961265
 30
0.0
 10
35.20058164972369
 20
93.70368914432587
 30
0.0
 10
35.20058164972369
 20
94.2857793807421
 30
0.0
  0
SPLINE
  5
C4
330
70
100
AcDbEntity
  8
Ebene 1
 62
     5
420
      255
370
     9
100
AcDbSpline
210
0.0
220
0.0
230
1.0
 70
     9
 71
     3
 72
    38
 73
    34
 74
     0
 42
0.0000000001
 43
0.0000000001
 40
0.0
 40
0.0
 40
0.0
 40
0.0
 40
1.0
 40
1.0
 40
1.0
 40
2.0
 40
2.0
 40
2.0
 40
3.0
 40
3.0
 40
3.0
 40
4.0
 40
4.0
 40
4.0
 40
5.0
 40
5.0
 40
5.0
 40
6.0
 40
6.0
 40
6.0
 40
7.0
 40
7.0
 40
7.0
 40
8.0
 40
8.0
 40
8.0
 40
9.0
 40
9.0
 40
9.0
 40
10.0
 40
10.0
 40
10.0
 40
11.0
 40
11.0
 40
11.0
 40
11.0
 10
0.0493894719606604
 20
96.18727399602953
 30
0.0
 10
0.0493894719606604
 20
96.18727399602953
 30
0.0
 10
0.0493894719606604
 20
74.79810554121698
 30
0.0
 10
0.0493894719606604
 20
74.79810554121698
 30
0.0
 10
0.0493894719606604
 20
74.79810554121698
 30
0.0
 10
15.50476657935459
 20
77.52158255695043
 30
0.0
 10
15.50476657935459
 20
77.52158255695043
 30
0.0
 10
15.88577172167756
 20
77.58861064128239
 30
0.0
 10
16.24913669034178
 20
77.33460855882322
 30
0.0
 10
16.31616477467342
 20
76.95360341650024
 30
0.0
 10
16.31616477467342
 20
76.95360341650024
 30
0.0
 10
19.1066698747385
 20
61.04313706660833
 30
0.0
 10
19.1066698747385
 20
61.04313706660833
 30
0.0
 10
19.23014301581221
 20
60.33051872990435
 30
0.0
 10
20.28848883903427
 20
60.45751775249939
 30
0.0
 10
20.23909958260492
 20
61.18072180830619
 30
0.0
 10
20.23909958260492
 20
61.18072180830619
 30
0.0
 10
18.2635212508926
 20
89.71725280646264
 30
0.0
 10
18.2635212508926
 20
89.71725280646264
 30
0.0
 10
18.2635212508926
 20
89.71725280646264
 30
0.0
 10
18.2635212508926
 20
89.71725280646264
 30
0.0
 10
18.2635212508926
 20
89.71725280646264
 30
0.0
 10
18.2635212508926
 20
89.71725280646264
 30
0.0
 10
40.76748024922969
 20
91.29065994067126
 30
0.0
 10
40.76748024922969
 20
91.29065994067126
 30
0.0
 10
40.76748024922969
 20
91.29065994067126
 30
0.0
 10
40.75689722163949
 20
96.88578140498695
 30
0.0
 10
40.75689722163949
 20
96.88578140498695
 30
0.0
 10
40.75689722163949
 20
96.88578140498695
 30
0.0
 10
0.7478976747042731
 20
96.88578140498695
 30
0.0
 10
0.7478976747042731
 20
96.88578140498695
 30
0.0
 10
0.3633653892129178
 20
96.8857822776261
 30
0.0
 10
0.0493894719606604
 20
96.57533418167661
 30
0.0
 10
0.0493894719606604
 20
96.18727399602953
 30
0.0
  0
ENDSEC
  0
SECTION
  2
OBJECTS
  0
DICTIONARY
  5
C
330
0
100
AcDbDictionary
281
     1
  3
ACAD_COLOR
350
63
  3
ACAD_DETAILVIEWSTYLE
350
6A
  3
ACAD_GROUP
350
D
  3
ACAD_LAYOUT
350
62
  3
ACAD_MATERIAL
350
10
  3
ACAD_MLEADERSTYLE
350
66
  3
ACAD_MLINESTYLE
350
5F
  3
ACAD_PLOTSETTINGS
350
61
  3
ACAD_PLOTSTYLENAME
350
E
  3
ACAD_SCALELIST
350
42
  3
ACAD_SECTIONVIEWSTYLE
350
68
  3
ACAD_TABLESTYLE
350
64
  3
ACAD_VISUALSTYLE
350
29
  3
ACDB_RECOMPOSE_DATA
350
CD
  3
AcDbVariableDictionary
350
C5
  0
DICTIONARY
  5
63
102
{ACAD_REACTORS
330
C
102
}
330
C
100
AcDbDictionary
281
     1
  0
DICTIONARY
  5
6A
102
{ACAD_REACTORS
330
C
102
}
330
C
100
AcDbDictionary
281
     1
  3
Imperial24
350
6B
  0
DICTIONARY
  5
D
102
{ACAD_REACTORS
330
C
102
}
330
C
100
AcDbDictionary
281
     1
  0
DICTIONARY
  5
62
102
{ACAD_REACTORS
330
C
102
}
330
C
100
AcDbDictionary
281
     1
  3
Layout1
350
6F
  3
Layout2
350
77
  3
Model
350
73
  0
DICTIONARY
  5
10
102
{ACAD_REACTORS
330
C
102
}
330
C
100
AcDbDictionary
281
     1
  3
ByBlock
350
19
  3
ByLayer
350
11
  3
Global
350
21
  0
DICTIONARY
  5
66
102
{ACAD_REACTORS
330
C
102
}
330
C
100
AcDbDictionary
281
     1
  3
Standard
350
67
  0
DICTIONARY
  5
5F
102
{ACAD_REACTORS
330
C
102
}
330
C
100
AcDbDictionary
281
     1
  3
Standard
350
60
  0
DICTIONARY
  5
61
102
{ACAD_REACTORS
330
C
102
}
330
C
100
AcDbDictionary
281
     1
  0
ACDBDICTIONARYWDFLT
  5
E
102
{ACAD_REACTORS
330
C
102
}
330
C
100
AcDbDictionary
281
     1
  3
Normal
350
F
100
AcDbDictionaryWithDefault
340
F
  0
DICTIONARY
  5
42
102
{ACAD_REACTORS
330
C
102
}
330
C
100
AcDbDictionary
281
     1
  3
A0
350
43
  3
A1
350
44
  3
A2
350
45
  3
A3
350
46
  3
A4
350
47
  3
A5
350
48
  3
A6
350
49
  3
A7
350
4A
  3
A8
350
4B
  3
A9
350
4C
  3
B0
350
4D
  3
B1
350
4E
  3
B2
350
4F
  3
B3
350
50
  3
B4
350
51
  3
B5
350
52
  3
B6
350
53
  0
DICTIONARY
  5
68
102
{ACAD_REACTORS
330
C
102
}
330
C
100
AcDbDictionary
281
     1
  3
Imperial24
350
69
  0
DICTIONARY
  5
64
102
{ACAD_REACTORS
330
C
102
}
330
C
100
AcDbDictionary
281
     1
  3
Standard
350
65
  0
DICTIONARY
  5
29
102
{ACAD_REACTORS
330
C
102
}
330
C
100
AcDbDictionary
281
     1
  3
2dWireframe
350
2F
  3
Basic
350
2E
  3
Brighten
350
35
  3
ColorChange
350
39
  3
Conceptual
350
32
  3
Dim
350
34
  3
EdgeColorOff
350
41
  3
Facepattern
350
38
  3
Flat
350
2A
  3
FlatWithEdges
350
2B
  3
Gouraud
350
2C
  3
GouraudWithEdges
350
2D
  3
Hidden
350
31
  3
JitterOff
350
3F
  3
Linepattern
350
37
  3
OverhangOff
350
40
  3
Realistic
350
33
  3
Shaded
350
3E
  3
Shaded with edges
350
3D
  3
Shades of Gray
350
3A
  3
Sketchy
350
3B
  3
Thicken
350
36
  3
Wireframe
350
30
  3
X-Ray
350
3C
  0
XRECORD
  5
CD
102
{ACAD_REACTORS
330
C
102
}
330
C
100
AcDbXrecord
280
     1
 90
        1
330
65
  0
DICTIONARY
  5
C5
102
{ACAD_REACTORS
330
C
102
}
330
C
100
AcDbDictionary
281
     1
  3
CANNOSCALE
350
CA
  3
CMLEADERSTYLE
350
C7
  3
CTABLESTYLE
350
C6
  3
CVIEWDETAILSTYLE
350
C8
  3
CVIEWSECTIONSTYLE
350
C9
  0
ACDBDETAILVIEWSTYLE
  5
6B
102
{ACAD_REACTORS
330
6A
102
}
330
6A
100
AcDbModelDocViewStyle
 70
     0
  3
Imperial24
290
     1
300
Imperial24
 90
        0
100
AcDbDetailViewStyle
 70
     0
 71
     0
 90
        3
 71
     1
340
55
 62
   256
 40
0.24
340
0
 62
   256
 40
0.24
300

 40
0.36
280
     3
 71
     2
340
5D
 90
       25
 62
   256
 71
     3
340
55
 62
   256
 40
0.24
 90
        1
 40
0.75
 90
        1
300
%<\AcVar ViewType \f "%tc1">% %<\AcVar ViewDetailId>%\PSCALE %<\AcVar ViewScale \f "%sn">%
 71
     4
340
5D
 90
       25
 62
   256
340
5D
 90
       25
 62
   256
280
     0
  0
LAYOUT
  5
6F
102
{ACAD_REACTORS
330
62
102
}
330
62
100
AcDbPlotSettings
  1

  2

  4

  6

 40
0.0
 41
0.0
 42
0.0
 43
0.0
 44
0.0
 45
0.0
 46
0.0
 47
0.0
 48
0.0
 49
0.0
140
0.0
141
0.0
142
1.0
143
1.0
 70
   688
 72
     0
 73
     0
 74
     5
  7

 75
    16
147
1.0
 76
     0
 77
     2
 78
   300
148
0.0
149
0.0
100
AcDbLayout
  1
Layout1
 70
     1
 71
     1
 10
0.0
 20
0.0
 11
12.0
 21
9.0
 12
0.0
 22
0.0
 32
0.0
 14
0.0
 24
0.0
 34
0.0
 15
0.0
 25
0.0
 35
0.0
146
0.0
 13
0.0
 23
0.0
 33
0.0
 16
1.0
 26
0.0
 36
0.0
 17
0.0
 27
1.0
 37
0.0
 76
     0
330
6C
  0
LAYOUT
  5
77
102
{ACAD_REACTORS
330
62
102
}
330
62
100
AcDbPlotSettings
  1

  2

  4

  6

 40
0.0
 41
0.0
 42
0.0
 43
0.0
 44
0.0
 45
0.0
 46
0.0
 47
0.0
 48
0.0
 49
0.0
140
0.0
141
0.0
142
1.0
143
1.0
 70
   688
 72
     0
 73
     0
 74
     5
  7

 75
    16
147
1.0
 76
     0
 77
     2
 78
   300
148
0.0
149
0.0
100
AcDbLayout
  1
Layout2
 70
     1
 71
     2
 10
0.0
 20
0.0
 11
12.0
 21
9.0
 12
0.0
 22
0.0
 32
0.0
 14
0.0
 24
0.0
 34
0.0
 15
0.0
 25
0.0
 35
0.0
146
0.0
 13
0.0
 23
0.0
 33
0.0
 16
1.0
 26
0.0
 36
0.0
 17
0.0
 27
1.0
 37
0.0
 76
     0
330
74
  0
LAYOUT
  5
73
102
{ACAD_REACTORS
330
62
102
}
330
62
100
AcDbPlotSettings
  1

  2

  4

  6

 40
0.0
 41
0.0
 42
0.0
 43
0.0
 44
0.0
 45
0.0
 46
0.0
 47
0.0
 48
0.0
 49
0.0
140
0.0
141
0.0
142
1.0
143
1.0
 70
  1712
 72
     0
 73
     0
 74
     0
  7

 75
     0
147
1.0
 76
     0
 77
     2
 78
   300
148
0.0
149
0.0
100
AcDbLayout
  1
Model
 70
     1
 71
     0
 10
0.0
 20
0.0
 11
12.0
 21
9.0
 12
0.0
 22
0.0
 32
0.0
 14
0.0
 24
0.0
 34
0.0
 15
0.0
 25
0.0
 35
0.0
146
0.0
 13
0.0
 23
0.0
 33
0.0
 16
1.0
 26
0.0
 36
0.0
 17
0.0
 27
1.0
 37
0.0
 76
     0
330
70
  0
MATERIAL
  5
19
102
{ACAD_XDICTIONARY
360
1A
102
}
102
{ACAD_REACTORS
330
10
102
}
330
10
100
AcDbMaterial
  1
ByBlock
 72
     0
 43
0.0208333333333333
 43
0.0
 43
0.0
 43
0.0
 43
0.0
 43
0.0208333333333333
 43
0.0
 43
0.0
 43
0.0
 43
0.0
 43
1.0
 43
0.0
 43
0.0
 43
0.0
 43
0.0
 43
1.0
 77
     0
 47
0.0208333333333333
 47
0.0
 47
0.0
 47
0.0
 47
0.0
 47
0.0208333333333333
 47
0.0
 47
0.0
 47
0.0
 47
0.0
 47
1.0
 47
0.0
 47
0.0
 47
0.0
 47
0.0
 47
1.0
171
     0
 49
0.0208333333333333
 49
0.0
 49
0.0
 49
0.0
 49
0.0
 49
0.0208333333333333
 49
0.0
 49
0.0
 49
0.0
 49
0.0
 49
1.0
 49
0.0
 49
0.0
 49
0.0
 49
0.0
 49
1.0
175
     0
142
0.0208333333333333
142
0.0
142
0.0
142
0.0
142
0.0
142
0.0208333333333333
142
0.0
142
0.0
142
0.0
142
0.0
142
1.0
142
0.0
142
0.0
142
0.0
142
0.0
142
1.0
179
     0
144
0.0208333333333333
144
0.0
144
0.0
144
0.0
144
0.0
144
0.0208333333333333
144
0.0
144
0.0
144
0.0
144
0.0
144
1.0
144
0.0
144
0.0
144
0.0
144
0.0
144
1.0
147
0.0208333333333333
147
0.0
147
0.0
147
0.0
147
0.0
147
0.0208333333333333
147
0.0
147
0.0
147
0.0
147
0.0
147
1.0
147
0.0
147
0.0
147
0.0
147
0.0
147
1.0
  0
MATERIAL
  5
11
102
{ACAD_XDICTIONARY
360
12
102
}
102
{ACAD_REACTORS
330
10
102
}
330
10
100
AcDbMaterial
  1
ByLayer
 72
     0
 43
0.0208333333333333
 43
0.0
 43
0.0
 43
0.0
 43
0.0
 43
0.0208333333333333
 43
0.0
 43
0.0
 43
0.0
 43
0.0
 43
1.0
 43
0.0
 43
0.0
 43
0.0
 43
0.0
 43
1.0
 77
     0
 47
0.0208333333333333
 47
0.0
 47
0.0
 47
0.0
 47
0.0
 47
0.0208333333333333
 47
0.0
 47
0.0
 47
0.0
 47
0.0
 47
1.0
 47
0.0
 47
0.0
 47
0.0
 47
0.0
 47
1.0
171
     0
 49
0.0208333333333333
 49
0.0
 49
0.0
 49
0.0
 49
0.0
 49
0.0208333333333333
 49
0.0
 49
0.0
 49
0.0
 49
0.0
 49
1.0
 49
0.0
 49
0.0
 49
0.0
 49
0.0
 49
1.0
175
     0
142
0.0208333333333333
142
0.0
142
0.0
142
0.0
142
0.0
142
0.0208333333333333
142
0.0
142
0.0
142
0.0
142
0.0
142
1.0
142
0.0
142
0.0
142
0.0
142
0.0
142
1.0
179
     0
144
0.0208333333333333
144
0.0
144
0.0
144
0.0
144
0.0
144
0.0208333333333333
144
0.0
144
0.0
144
0.0
144
0.0
144
1.0
144
0.0
144
0.0
144
0.0
144
0.0
144
1.0
147
0.0208333333333333
147
0.0
147
0.0
147
0.0
147
0.0
147
0.0208333333333333
147
0.0
147
0.0
147
0.0
147
0.0
147
1.0
147
0.0
147
0.0
147
0.0
147
0.0
147
1.0
  0
MATERIAL
  5
21
102
{ACAD_XDICTIONARY
360
22
102
}
102
{ACAD_REACTORS
330
10
102
}
330
10
100
AcDbMaterial
  1
Global
 72
     0
 43
0.0208333333333333
 43
0.0
 43
0.0
 43
0.0
 43
0.0
 43
0.0208333333333333
 43
0.0
 43
0.0
 43
0.0
 43
0.0
 43
1.0
 43
0.0
 43
0.0
 43
0.0
 43
0.0
 43
1.0
 77
     0
 47
0.0208333333333333
 47
0.0
 47
0.0
 47
0.0
 47
0.0
 47
0.0208333333333333
 47
0.0
 47
0.0
 47
0.0
 47
0.0
 47
1.0
 47
0.0
 47
0.0
 47
0.0
 47
0.0
 47
1.0
171
     0
 49
0.0208333333333333
 49
0.0
 49
0.0
 49
0.0
 49
0.0
 49
0.0208333333333333
 49
0.0
 49
0.0
 49
0.0
 49
0.0
 49
1.0
 49
0.0
 49
0.0
 49
0.0
 49
0.0
 49
1.0
175
     0
142
0.0208333333333333
142
0.0
142
0.0
142
0.0
142
0.0
142
0.0208333333333333
142
0.0
142
0.0
142
0.0
142
0.0
142
1.0
142
0.0
142
0.0
142
0.0
142
0.0
142
1.0
179
     0
144
0.0208333333333333
144
0.0
144
0.0
144
0.0
144
0.0
144
0.0208333333333333
144
0.0
144
0.0
144
0.0
144
0.0
144
1.0
144
0.0
144
0.0
144
0.0
144
0.0
144
1.0
147
0.0208333333333333
147
0.0
147
0.0
147
0.0
147
0.0
147
0.0208333333333333
147
0.0
147
0.0
147
0.0
147
0.0
147
1.0
147
0.0
147
0.0
147
0.0
147
0.0
147
1.0
  0
MLEADERSTYLE
  5
67
102
{ACAD_REACTORS
330
66
102
}
330
66
100
AcDbMLeaderStyle
179
     2
170
     2
171
     1
172
     0
 90
        2
 40
0.0
 41
0.0
173
     1
 91
-1056964608
340
5B
 92
       -2
290
     1
 42
0.09
291
     1
 43
0.36
  3
Standard
 44
0.18
300

342
55
174
     1
178
     6
175
     1
176
     0
 93
-1056964608
 45
0.18
292
     0
297
     0
 46
0.18
 94
-1056964608
 47
1.0
 49
1.0
140
1.0
293
     1
141
0.0
294
     1
177
     0
142
1.0
295
     1
296
     0
143
0.125
271
     0
272
     9
273
     9
298
     1
  0
MLINESTYLE
  5
60
102
{ACAD_REACTORS
330
5F
102
}
330
5F
100
AcDbMlineStyle
  2
STANDARD
 70
     0
  3

 62
   256
 51
90.0
 52
90.0
 71
     2
 49
0.5
 62
   256
  6
BYLAYER
 49
-0.5
 62
   256
  6
BYLAYER
  0
ACDBPLACEHOLDER
  5
F
102
{ACAD_REACTORS
330
E
102
}
330
E
  0
SCALE
  5
43
102
{ACAD_REACTORS
330
42
102
}
330
42
100
AcDbScale
 70
     0
300
1:1
140
1.0
141
1.0
290
     1
  0
SCALE
  5
44
102
{ACAD_REACTORS
330
42
102
}
330
42
100
AcDbScale
 70
     0
300
1/128" = 1'-0"
140
0.0078125
141
12.0
290
     0
  0
SCALE
  5
45
102
{ACAD_REACTORS
330
42
102
}
330
42
100
AcDbScale
 70
     0
300
1/64" = 1'-0"
140
0.015625
141
12.0
290
     0
  0
SCALE
  5
46
102
{ACAD_REACTORS
330
42
102
}
330
42
100
AcDbScale
 70
     0
300
1/32" = 1'-0"
140
0.03125
141
12.0
290
     0
  0
SCALE
  5
47
102
{ACAD_REACTORS
330
42
102
}
330
42
100
AcDbScale
 70
     0
300
1/16" = 1'-0"
140
0.0625
141
12.0
290
     0
  0
SCALE
  5
48
102
{ACAD_REACTORS
330
42
102
}
330
42
100
AcDbScale
 70
     0
300
3/32" = 1'-0"
140
0.09375
141
12.0
290
     0
  0
SCALE
  5
49
102
{ACAD_REACTORS
330
42
102
}
330
42
100
AcDbScale
 70
     0
300
1/8" = 1'-0"
140
0.125
141
12.0
290
     0
  0
SCALE
  5
4A
102
{ACAD_REACTORS
330
42
102
}
330
42
100
AcDbScale
 70
     0
300
3/16" = 1'-0"
140
0.1875
141
12.0
290
     0
  0
SCALE
  5
4B
102
{ACAD_REACTORS
330
42
102
}
330
42
100
AcDbScale
 70
     0
300
1/4" = 1'-0"
140
0.25
141
12.0
290
     0
  0
SCALE
  5
4C
102
{ACAD_REACTORS
330
42
102
}
330
42
100
AcDbScale
 70
     0
300
3/8" = 1'-0"
140
0.375
141
12.0
290
     0
  0
SCALE
  5
4D
102
{ACAD_REACTORS
330
42
102
}
330
42
100
AcDbScale
 70
     0
300
1/2" = 1'-0"
140
0.5
141
12.0
290
     0
  0
SCALE
  5
4E
102
{ACAD_REACTORS
330
42
102
}
330
42
100
AcDbScale
 70
     0
300
3/4" = 1'-0"
140
0.75
141
12.0
290
     0
  0
SCALE
  5
4F
102
{ACAD_REACTORS
330
42
102
}
330
42
100
AcDbScale
 70
     0
300
1" = 1'-0"
140
1.0
141
12.0
290
     0
  0
SCALE
  5
50
102
{ACAD_REACTORS
330
42
102
}
330
42
100
AcDbScale
 70
     0
300
1-1/2" = 1'-0"
140
1.5
141
12.0
290
     0
  0
SCALE
  5
51
102
{ACAD_REACTORS
330
42
102
}
330
42
100
AcDbScale
 70
     0
300
3" = 1'-0"
140
3.0
141
12.0
290
     0
  0
SCALE
  5
52
102
{ACAD_REACTORS
330
42
102
}
330
42
100
AcDbScale
 70
     0
300
6" = 1'-0"
140
6.0
141
12.0
290
     0
  0
SCALE
  5
53
102
{ACAD_REACTORS
330
42
102
}
330
42
100
AcDbScale
 70
     0
300
1'-0" = 1'-0"
140
12.0
141
12.0
290
     0
  0
ACDBSECTIONVIEWSTYLE
  5
69
102
{ACAD_REACTORS
330
68
102
}
330
68
100
AcDbModelDocViewStyle
 70
     0
  3
Imperial24
290
     1
300
Imperial24
 90
        0
100
AcDbSectionViewStyle
 70
     0
 71
     0
 90
       78
 71
     1
340
55
 62
   256
 40
0.24
340
0
340
0
 62
   256
 40
0.24
300
I, O, Q, S, X, Z
 40
0.48
 90
        3
 40
0.18
 90
        1
 71
     2
340
5D
 90
       25
 62
   256
340
5D
 90
       50
 62
   256
 40
0.24
 40
0.0
 40
0.24
 71
     3
340
55
 62
   256
 40
0.24
 90
        1
 40
0.75
 90
        1
300
%<\AcVar ViewType \f "%tc1">% %<\AcVar ViewSectionStartId>%-%<\AcVar ViewSectionEndId>%\PSCALE %<\AcVar ViewScale \f "%sn">%
 71
     4
 62
   256
 62
   257
300
ANSI31
 40
1.0
 90
        0
290
     0
290
     0
 90
        6
 40
0.0
 40
1.570796326794896
 40
0.2617993877991494
 40
1.308996938995747
 40
-0.2617993877991494
 40
1.832595714594046
  0
TABLESTYLE
  5
65
102
{ACAD_XDICTIONARY
360
CB
102
}
102
{ACAD_REACTORS
330
64
102
}
330
64
100
AcDbTableStyle
280
     0
  3
Standard
 70
     0
 71
     0
 40
0.06
 41
0.06
280
     0
281
     0
  7
Standard
140
0.18
170
     2
 62
     0
 63
     7
283
     0
 90
      512
 91
        0
  1

274
    -2
284
     1
 64
     0
275
    -2
285
     1
 65
     0
276
    -2
286
     1
 66
     0
277
    -2
287
     1
 67
     0
278
    -2
288
     1
 68
     0
279
    -2
289
     1
 69
     0
  7
Standard
140
0.25
170
     5
 62
     0
 63
     7
283
     0
 90
      512
 91
        0
  1

274
    -2
284
     1
 64
     0
275
    -2
285
     1
 65
     0
276
    -2
286
     1
 66
     0
277
    -2
287
     1
 67
     0
278
    -2
288
     1
 68
     0
279
    -2
289
     1
 69
     0
  7
Standard
140
0.18
170
     5
 62
     0
 63
     7
283
     0
 90
      512
 91
        0
  1

274
    -2
284
     1
 64
     0
275
    -2
285
     1
 65
     0
276
    -2
286
     1
 66
     0
277
    -2
287
     1
 67
     0
278
    -2
288
     1
 68
     0
279
    -2
289
     1
 69
     0
  0
VISUALSTYLE
  5
2F
102
{ACAD_REACTORS
330
29
102
}
330
29
100
AcDbVisualStyle
  2
2dWireframe
 70
     4
177
     3
291
     0
 70
    58
 90
        0
176
     1
 90
        2
176
     1
 90
        0
176
     1
 90
        0
176
     1
 40
0.6
176
     1
 40
30.0
176
     1
 62
     7
420
 16777215
176
     1
 90
        1
176
     1
 90
        4
176
     1
 62
     7
176
     1
 62
   257
176
     1
 90
        1
176
     1
 90
        1
176
     1
 40
1.0
176
     1
 90
        0
176
     1
 62
   257
176
     1
 40
1.0
176
     1
 90
        1
176
     1
 90
        6
176
     1
 90
        2
176
     1
 62
     7
176
     1
 90
        5
176
     1
 90
        0
176
     1
 90
        0
176
     1
290
     0
176
     1
 90
        1
176
     1
 40
0.0
176
     1
 90
        0
176
     1
290
     1
176
     1
290
     1
176
     1
290
     0
176
     1
290
     0
176
     1
290
     0
176
     1
290
     0
176
     1
290
     0
176
     1
290
     0
176
     1
290
     0
176
     1
 90
       50
176
     1
 40
0.0
176
     1
 40
1.0
176
     1
 90
        0
176
     1
 62
    18
420
        0
176
     1
 90
       50
176
     1
 90
        3
176
     1
 62
     5
420
      255
176
     1
290
     0
176
     1
 90
       50
176
     1
 90
       50
176
     1
 90
       50
176
     1
290
     0
176
     1
 90
       50
176
     1
 62
   256
176
     0
 40
1.0
176
     0
 90
        2
176
     1
  1
strokes_ogs.tif
176
     1
290
     0
176
     1
 40
1.0
176
     1
 40
1.0
176
     1
  0
VISUALSTYLE
  5
2E
102
{ACAD_REACTORS
330
29
102
}
330
29
100
AcDbVisualStyle
  2
Basic
 70
     7
177
     3
291
     1
 70
    58
 90
        1
176
     1
 90
        0
176
     1
 90
        1
176
     1
 90
        0
176
     1
 40
0.6
176
     1
 40
30.0
176
     1
 62
     7
420
 16777215
176
     1
 90
        0
176
     1
 90
        4
176
     1
 62
     7
176
     1
 62
   257
176
     1
 90
        1
176
     1
 90
        1
176
     1
 40
1.0
176
     1
 90
        8
176
     1
 62
     7
176
     1
 40
1.0
176
     1
 90
        1
176
     1
 90
        6
176
     1
 90
        2
176
     1
 62
     7
176
     1
 90
        5
176
     1
 90
        0
176
     1
 90
        0
176
     1
290
     0
176
     1
 90
        1
176
     1
 40
0.0
176
     1
 90
        0
176
     1
290
     0
176
     1
290
     1
176
     1
290
     1
176
     1
290
     0
176
     1
290
     0
176
     1
290
     0
176
     1
290
     0
176
     1
290
     0
176
     1
290
     0
176
     1
 90
       50
176
     1
 40
0.0
176
     1
 40
1.0
176
     1
 90
        0
176
     1
 62
    18
420
        0
176
     1
 90
       50
176
     1
 90
        3
176
     1
 62
     5
420
      255
176
     1
290
     0
176
     1
 90
       50
176
     1
 90
       50
176
     1
 90
       50
176
     1
290
     0
176
     1
 90
       50
176
     1
 62
   256
176
     0
 40
1.0
176
     0
 90
        2
176
     1
  1
strokes_ogs.tif
176
     1
290
     0
176
     1
 40
1.0
176
     1
 40
1.0
176
     1
  0
VISUALSTYLE
  5
35
102
{ACAD_REACTORS
330
29
102
}
330
29
100
AcDbVisualStyle
  2
Brighten
 70
    12
177
     3
291
     1
 70
    58
 90
        2
176
     1
 90
        2
176
     1
 90
        0
176
     1
 90
        0
176
     1
 40
0.6
176
     1
 40
30.0
176
     1
 62
     7
420
 16777215
176
     1
 90
        1
176
     1
 90
        4
176
     1
 62
     7
176
     1
 62
   257
176
     1
 90
        1
176
     1
 90
        1
176
     1
 40
1.0
176
     1
 90
        8
176
     1
 62
     7
176
     1
 40
1.0
176
     1
 90
        1
176
     1
 90
        6
176
     1
 90
        2
176
     1
 62
     7
176
     1
 90
        5
176
     1
 90
        0
176
     1
 90
        0
176
     1
290
     0
176
     1
 90
        1
176
     1
 40
50.0
176
     1
 90
        0
176
     1
290
     0
176
     1
290
     1
176
     1
290
     1
176
     1
290
     0
176
     1
290
     0
176
     1
290
     0
176
     1
290
     0
176
     1
290
     0
176
     1
290
     0
176
     1
 90
       50
176
     1
 40
0.0
176
     1
 40
1.0
176
     1
 90
        0
176
     1
 62
    18
420
        0
176
     1
 90
       50
176
     1
 90
        3
176
     1
 62
     5
420
      255
176
     1
290
     0
176
     1
 90
       50
176
     1
 90
       50
176
     1
 90
       50
176
     1
290
     0
176
     1
 90
       50
176
     1
 62
   256
176
     0
 40
1.0
176
     0
 90
        2
176
     1
  1
strokes_ogs.tif
176
     1
290
     0
176
     1
 40
1.0
176
     1
 40
1.0
176
     1
  0
VISUALSTYLE
  5
39
102
{ACAD_REACTORS
330
29
102
}
330
29
100
AcDbVisualStyle
  2
ColorChange
 70
    16
177
     3
291
     1
 70
    58
 90
        2
176
     1
 90
        2
176
     1
 90
        3
176
     1
 90
        0
176
     1
 40
0.6
176
     1
 40
30.0
176
     1
 62
     8
420
  8421504
176
     1
 90
        1
176
     1
 90
        4
176
     1
 62
     7
176
     1
 62
   257
176
     1
 90
        1
176
     1
 90
        1
176
     1
 40
1.0
176
     1
 90
        8
176
     1
 62
     8
420
  8421504
176
     1
 40
1.0
176
     1
 90
        1
176
     1
 90
        6
176
     1
 90
        2
176
     1
 62
     7
176
     1
 90
        5
176
     1
 90
        0
176
     1
 90
        0
176
     1
290
     0
176
     1
 90
        1
176
     1
 40
0.0
176
     1
 90
        0
176
     1
290
     0
176
     1
290
     1
176
     1
290
     1
176
     1
290
     0
176
     1
290
     0
176
     1
290
     0
176
     1
290
     0
176
     1
290
     0
176
     1
290
     0
176
     1
 90
       50
176
     1
 40
0.0
176
     1
 40
1.0
176
     1
 90
        0
176
     1
 62
    18
420
        0
176
     1
 90
       50
176
     1
 90
        3
176
     1
 62
     5
420
      255
176
     1
290
     0
176
     1
 90
       50
176
     1
 90
       50
176
     1
 90
       50
176
     1
290
     0
176
     1
 90
       50
176
     1
 62
   256
176
     0
 40
1.0
176
     0
 90
        2
176
     1
  1
strokes_ogs.tif
176
     1
290
     0
176
     1
 40
1.0
176
     1
 40
1.0
176
     1
  0
VISUALSTYLE
  5
32
102
{ACAD_REACTORS
330
29
102
}
330
29
100
AcDbVisualStyle
  2
Conceptual
 70
     9
177
     3
291
     0
 70
    58
 90
        3
176
     1
 90
        2
176
     1
 90
        0
176
     1
 90
        0
176
     1
 40
0.6
176
     1
 40
30.0
176
     1
 62
     7
420
 16777215
176
     1
 90
        2
176
     1
 90
        2
176
     1
 62
     7
176
     1
 62
   257
176
     1
 90
        1
176
     1
 90
        1
176
     1
 40
179.0
176
     1
 90
        8
176
     1
 62
     7
176
     1
 40
1.0
176
     1
 90
        1
176
     1
 90
        6
176
     1
 90
        2
176
     1
 62
     7
176
     1
 90
        3
176
     1
 90
        0
176
     1
 90
        0
176
     1
290
     0
176
     1
 90
        1
176
     1
 40
0.0
176
     1
 90
        0
176
     1
290
     0
176
     1
290
     1
176
     1
290
     1
176
     1
290
     0
176
     1
290
     0
176
     1
290
     0
176
     1
290
     0
176
     1
290
     0
176
     1
290
     0
176
     1
 90
       50
176
     1
 40
0.0
176
     1
 40
1.0
176
     1
 90
        0
176
     1
 62
    18
420
        0
176
     1
 90
       50
176
     1
 90
        3
176
     1
 62
     5
420
      255
176
     1
290
     0
176
     1
 90
       50
176
     1
 90
       50
176
     1
 90
       50
176
     1
290
     0
176
     1
 90
       50
176
     1
 62
   256
176
     0
 40
1.0
176
     0
 90
        2
176
     1
  1
strokes_ogs.tif
176
     1
290
     0
176
     1
 40
1.0
176
     1
 40
1.0
176
     1
  0
VISUALSTYLE
  5
34
102
{ACAD_REACTORS
330
29
102
}
330
29
100
AcDbVisualStyle
  2
Dim
 70
    11
177
     3
291
     1
 70
    58
 90
        2
176
     1
 90
        2
176
     1
 90
        0
176
     1
 90
        0
176
     1
 40
0.6
176
     1
 40
30.0
176
     1
 62
     7
420
 16777215
176
     1
 90
        1
176
     1
 90
        4
176
     1
 62
     7
176
     1
 62
   257
176
     1
 90
        1
176
     1
 90
        1
176
     1
 40
1.0
176
     1
 90
        8
176
     1
 62
     7
176
     1
 40
1.0
176
     1
 90
        1
176
     1
 90
        6
176
     1
 90
        2
176
     1
 62
     7
176
     1
 90
        5
176
     1
 90
        0
176
     1
 90
        0
176
     1
290
     0
176
     1
 90
        1
176
     1
 40
-50.0
176
     1
 90
        0
176
     1
290
     0
176
     1
290
     1
176
     1
290
     1
176
     1
290
     0
176
     1
290
     0
176
     1
290
     0
176
     1
290
     0
176
     1
290
     0
176
     1
290
     0
176
     1
 90
       50
176
     1
 40
0.0
176
     1
 40
1.0
176
     1
 90
        0
176
     1
 62
    18
420
        0
176
     1
 90
       50
176
     1
 90
        3
176
     1
 62
     5
420
      255
176
     1
290
     0
176
     1
 90
       50
176
     1
 90
       50
176
     1
 90
       50
176
     1
290
     0
176
     1
 90
       50
176
     1
 62
   256
176
     0
 40
1.0
176
     0
 90
        2
176
     1
  1
strokes_ogs.tif
176
     1
290
     0
176
     1
 40
1.0
176
     1
 40
1.0
176
     1
  0
VISUALSTYLE
  5
41
102
{ACAD_REACTORS
330
29
102
}
330
29
100
AcDbVisualStyle
  2
EdgeColorOff
 70
    22
177
     3
291
     1
 70
    58
 90
        2
176
     0
 90
        2
176
     0
 90
        0
176
     0
 90
        0
176
     0
 40
0.6
176
     0
 40
30.0
176
     0
 62
     7
420
 16777215
176
     0
 90
        1
176
     0
 90
        4
176
     0
 62
     7
176
     0
 62
   257
176
     0
 90
        1
176
     0
 90
        1
176
     0
 40
1.0
176
     0
 90
        8
176
     2
 62
     7
176
     0
 40
1.0
176
     0
 90
        1
176
     0
 90
        6
176
     0
 90
        2
176
     0
 62
     7
176
     0
 90
        5
176
     0
 90
        0
176
     0
 90
        0
176
     0
290
     0
176
     0
 90
        1
176
     0
 40
0.0
176
     0
 90
        0
176
     0
290
     0
176
     0
290
     1
176
     0
290
     1
176
     0
290
     0
176
     0
290
     0
176
     0
290
     0
176
     0
290
     0
176
     0
290
     0
176
     0
290
     0
176
     0
 90
       50
176
     0
 40
0.0
176
     0
 40
1.0
176
     0
 90
        0
176
     0
 62
    18
420
        0
176
     0
 90
       50
176
     0
 90
        3
176
     0
 62
     5
420
      255
176
     0
290
     0
176
     0
 90
       50
176
     0
 90
       50
176
     0
 90
       50
176
     0
290
     0
176
     0
 90
       50
176
     0
 62
   256
176
     0
 40
1.0
176
     0
 90
        2
176
     0
  1
strokes_ogs.tif
176
     0
290
     0
176
     0
 40
1.0
176
     0
 40
1.0
176
     0
  0
VISUALSTYLE
  5
38
102
{ACAD_REACTORS
330
29
102
}
330
29
100
AcDbVisualStyle
  2
Facepattern
 70
    15
177
     3
291
     1
 70
    58
 90
        2
176
     1
 90
        2
176
     1
 90
        0
176
     1
 90
        0
176
     1
 40
0.6
176
     1
 40
30.0
176
     1
 62
     7
420
 16777215
176
     1
 90
        1
176
     1
 90
        4
176
     1
 62
     7
176
     1
 62
   257
176
     1
 90
        1
176
     1
 90
        1
176
     1
 40
1.0
176
     1
 90
        8
176
     1
 62
     7
176
     1
 40
1.0
176
     1
 90
        1
176
     1
 90
        6
176
     1
 90
        2
176
     1
 62
     7
176
     1
 90
        5
176
     1
 90
        0
176
     1
 90
        0
176
     1
290
     0
176
     1
 90
        1
176
     1
 40
0.0
176
     1
 90
        0
176
     1
290
     0
176
     1
290
     1
176
     1
290
     1
176
     1
290
     0
176
     1
290
     0
176
     1
290
     0
176
     1
290
     0
176
     1
290
     0
176
     1
290
     0
176
     1
 90
       50
176
     1
 40
0.0
176
     1
 40
1.0
176
     1
 90
        0
176
     1
 62
    18
420
        0
176
     1
 90
       50
176
     1
 90
        3
176
     1
 62
     5
420
      255
176
     1
290
     0
176
     1
 90
       50
176
     1
 90
       50
176
     1
 90
       50
176
     1
290
     0
176
     1
 90
       50
176
     1
 62
   256
176
     0
 40
1.0
176
     0
 90
        2
176
     1
  1
strokes_ogs.tif
176
     1
290
     0
176
     1
 40
1.0
176
     1
 40
1.0
176
     1
  0
VISUALSTYLE
  5
2A
102
{ACAD_REACTORS
330
29
102
}
330
29
100
AcDbVisualStyle
  2
Flat
 70
     0
177
     3
291
     1
 70
    58
 90
        2
176
     1
 90
        1
176
     1
 90
        1
176
     1
 90
        2
176
     1
 40
0.6
176
     1
 40
30.0
176
     1
 62
     7
420
 16777215
176
     1
 90
        0
176
     1
 90
        0
176
     1
 62
     7
176
     1
 62
   257
176
     1
 90
        1
176
     1
 90
        1
176
     1
 40
1.0
176
     1
 90
        8
176
     1
 62
     7
176
     1
 40
1.0
176
     1
 90
        1
176
     1
 90
        6
176
     1
 90
        2
176
     1
 62
     7
176
     1
 90
        5
176
     1
 90
        0
176
     1
 90
        0
176
     1
290
     0
176
     1
 90
       13
176
     1
 40
0.0
176
     1
 90
        0
176
     1
290
     0
176
     1
290
     1
176
     1
290
     1
176
     1
290
     0
176
     1
290
     0
176
     1
290
     0
176
     1
290
     0
176
     1
290
     0
176
     1
290
     0
176
     1
 90
       50
176
     1
 40
0.0
176
     1
 40
1.0
176
     1
 90
        0
176
     1
 62
    18
420
        0
176
     1
 90
       50
176
     1
 90
        3
176
     1
 62
     5
420
      255
176
     1
290
     0
176
     1
 90
       50
176
     1
 90
       50
176
     1
 90
       50
176
     1
290
     0
176
     1
 90
       50
176
     1
 62
   256
176
     0
 40
1.0
176
     0
 90
        2
176
     1
  1
strokes_ogs.tif
176
     1
290
     0
176
     1
 40
1.0
176
     1
 40
1.0
176
     1
  0
VISUALSTYLE
  5
2B
102
{ACAD_REACTORS
330
29
102
}
330
29
100
AcDbVisualStyle
  2
FlatWithEdges
 70
     1
177
     3
291
     1
 70
    58
 90
        2
176
     1
 90
        1
176
     1
 90
        1
176
     1
 90
        2
176
     1
 40
0.6
176
     1
 40
30.0
176
     1
 62
     7
420
 16777215
176
     1
 90
        1
176
     1
 90
        0
176
     1
 62
     7
176
     1
 62
   257
176
     1
 90
        1
176
     1
 90
        1
176
     1
 40
1.0
176
     1
 90
        0
176
     1
 62
   257
176
     1
 40
1.0
176
     1
 90
        1
176
     1
 90
        6
176
     1
 90
        2
176
     1
 62
     7
176
     1
 90
        5
176
     1
 90
        0
176
     1
 90
        0
176
     1
290
     0
176
     1
 90
       13
176
     1
 40
0.0
176
     1
 90
        0
176
     1
290
     0
176
     1
290
     1
176
     1
290
     1
176
     1
290
     0
176
     1
290
     0
176
     1
290
     0
176
     1
290
     0
176
     1
290
     0
176
     1
290
     0
176
     1
 90
       50
176
     1
 40
0.0
176
     1
 40
1.0
176
     1
 90
        0
176
     1
 62
    18
420
        0
176
     1
 90
       50
176
     1
 90
        3
176
     1
 62
     5
420
      255
176
     1
290
     0
176
     1
 90
       50
176
     1
 90
       50
176
     1
 90
       50
176
     1
290
     0
176
     1
 90
       50
176
     1
 62
   256
176
     0
 40
1.0
176
     0
 90
        2
176
     1
  1
strokes_ogs.tif
176
     1
290
     0
176
     1
 40
1.0
176
     1
 40
1.0
176
     1
  0
VISUALSTYLE
  5
2C
102
{ACAD_REACTORS
330
29
102
}
330
29
100
AcDbVisualStyle
  2
Gouraud
 70
     2
177
     3
291
     1
 70
    58
 90
        2
176
     1
 90
        2
176
     1
 90
        1
176
     1
 90
        2
176
     1
 40
0.6
176
     1
 40
30.0
176
     1
 62
     7
420
 16777215
176
     1
 90
        0
176
     1
 90
        0
176
     1
 62
     7
176
     1
 62
   257
176
     1
 90
        1
176
     1
 90
        1
176
     1
 40
1.0
176
     1
 90
        0
176
     1
 62
     7
176
     1
 40
1.0
176
     1
 90
        1
176
     1
 90
        6
176
     1
 90
        2
176
     1
 62
     7
176
     1
 90
        5
176
     1
 90
        0
176
     1
 90
        0
176
     1
290
     0
176
     1
 90
       13
176
     1
 40
0.0
176
     1
 90
        0
176
     1
290
     0
176
     1
290
     1
176
     1
290
     1
176
     1
290
     0
176
     1
290
     0
176
     1
290
     0
176
     1
290
     0
176
     1
290
     0
176
     1
290
     0
176
     1
 90
       50
176
     1
 40
0.0
176
     1
 40
1.0
176
     1
 90
        0
176
     1
 62
    18
420
        0
176
     1
 90
       50
176
     1
 90
        3
176
     1
 62
     5
420
      255
176
     1
290
     0
176
     1
 90
       50
176
     1
 90
       50
176
     1
 90
       50
176
     1
290
     0
176
     1
 90
       50
176
     1
 62
   256
176
     0
 40
1.0
176
     0
 90
        2
176
     1
  1
strokes_ogs.tif
176
     1
290
     0
176
     1
 40
1.0
176
     1
 40
1.0
176
     1
  0
VISUALSTYLE
  5
2D
102
{ACAD_REACTORS
330
29
102
}
330
29
100
AcDbVisualStyle
  2
GouraudWithEdges
 70
     3
177
     3
291
     1
 70
    58
 90
        2
176
     1
 90
        2
176
     1
 90
        1
176
     1
 90
        2
176
     1
 40
0.6
176
     1
 40
30.0
176
     1
 62
     7
420
 16777215
176
     1
 90
        1
176
     1
 90
        0
176
     1
 62
     7
176
     1
 62
   257
176
     1
 90
        1
176
     1
 90
        1
176
     1
 40
1.0
176
     1
 90
        0
176
     1
 62
   257
176
     1
 40
1.0
176
     1
 90
        1
176
     1
 90
        6
176
     1
 90
        2
176
     1
 62
     7
176
     1
 90
        5
176
     1
 90
        0
176
     1
 90
        0
176
     1
290
     0
176
     1
 90
       13
176
     1
 40
0.0
176
     1
 90
        0
176
     1
290
     0
176
     1
290
     1
176
     1
290
     1
176
     1
290
     0
176
     1
290
     0
176
     1
290
     0
176
     1
290
     0
176
     1
290
     0
176
     1
290
     0
176
     1
 90
       50
176
     1
 40
0.0
176
     1
 40
1.0
176
     1
 90
        0
176
     1
 62
    18
420
        0
176
     1
 90
       50
176
     1
 90
        3
176
     1
 62
     5
420
      255
176
     1
290
     0
176
     1
 90
       50
176
     1
 90
       50
176
     1
 90
       50
176
     1
290
     0
176
     1
 90
       50
176
     1
 62
   256
176
     0
 40
1.0
176
     0
 90
        2
176
     1
  1
strokes_ogs.tif
176
     1
290
     0
176
     1
 40
1.0
176
     1
 40
1.0
176
     1
  0
VISUALSTYLE
  5
31
102
{ACAD_REACTORS
330
29
102
}
330
29
100
AcDbVisualStyle
  2
Hidden
 70
     6
177
     3
291
     0
 70
    58
 90
        1
176
     1
 90
        2
176
     1
 90
        2
176
     1
 90
        0
176
     1
 40
0.6
176
     1
 40
30.0
176
     1
 62
     7
420
 16777215
176
     1
 90
        2
176
     1
 90
        2
176
     1
 62
     7
176
     1
 62
   257
176
     1
 90
        2
176
     1
 90
        1
176
     1
 40
40.0
176
     1
 90
        0
176
     1
 62
   257
176
     1
 40
1.0
176
     1
 90
        1
176
     1
 90
        6
176
     1
 90
        2
176
     1
 62
     7
176
     1
 90
        3
176
     1
 90
        0
176
     1
 90
        0
176
     1
290
     0
176
     1
 90
        1
176
     1
 40
0.0
176
     1
 90
        0
176
     1
290
     0
176
     1
290
     1
176
     1
290
     1
176
     1
290
     0
176
     1
290
     0
176
     1
290
     0
176
     1
290
     0
176
     1
290
     0
176
     1
290
     0
176
     1
 90
       50
176
     1
 40
0.0
176
     1
 40
1.0
176
     1
 90
        0
176
     1
 62
    18
420
        0
176
     1
 90
       50
176
     1
 90
        3
176
     1
 62
     5
420
      255
176
     1
290
     0
176
     1
 90
       50
176
     1
 90
       50
176
     1
 90
       50
176
     1
290
     0
176
     1
 90
       50
176
     1
 62
   256
176
     0
 40
1.0
176
     0
 90
        2
176
     1
  1
strokes_ogs.tif
176
     1
290
     0
176
     1
 40
1.0
176
     1
 40
1.0
176
     1
  0
VISUALSTYLE
  5
3F
102
{ACAD_REACTORS
330
29
102
}
330
29
100
AcDbVisualStyle
  2
JitterOff
 70
    20
177
     3
291
     1
 70
    58
 90
        2
176
     0
 90
        2
176
     0
 90
        0
176
     0
 90
        0
176
     0
 40
0.6
176
     0
 40
30.0
176
     0
 62
     7
420
 16777215
176
     0
 90
        1
176
     0
 90
        4
176
     0
 62
     7
176
     0
 62
   257
176
     0
 90
        1
176
     0
 90
        1
176
     0
 40
1.0
176
     0
 90
       10
176
     2
 62
     7
176
     0
 40
1.0
176
     0
 90
        1
176
     0
 90
        6
176
     0
 90
        2
176
     0
 62
     7
176
     0
 90
        5
176
     0
 90
        0
176
     0
 90
        0
176
     0
290
     0
176
     0
 90
        1
176
     0
 40
0.0
176
     0
 90
        0
176
     0
290
     0
176
     0
290
     1
176
     0
290
     1
176
     0
290
     0
176
     0
290
     0
176
     0
290
     0
176
     0
290
     0
176
     0
290
     0
176
     0
290
     0
176
     0
 90
       50
176
     0
 40
0.0
176
     0
 40
1.0
176
     0
 90
        0
176
     0
 62
    18
420
        0
176
     0
 90
       50
176
     0
 90
        3
176
     0
 62
     5
420
      255
176
     0
290
     0
176
     0
 90
       50
176
     0
 90
       50
176
     0
 90
       50
176
     0
290
     0
176
     0
 90
       50
176
     0
 62
   256
176
     0
 40
1.0
176
     0
 90
        2
176
     0
  1
strokes_ogs.tif
176
     0
290
     0
176
     0
 40
1.0
176
     0
 40
1.0
176
     0
  0
VISUALSTYLE
  5
37
102
{ACAD_REACTORS
330
29
102
}
330
29
100
AcDbVisualStyle
  2
Linepattern
 70
    14
177
     3
291
     1
 70
    58
 90
        2
176
     1
 90
        2
176
     1
 90
        0
176
     1
 90
        0
176
     1
 40
0.6
176
     1
 40
30.0
176
     1
 62
     7
420
 16777215
176
     1
 90
        1
176
     1
 90
        4
176
     1
 62
     7
176
     1
 62
   257
176
     1
 90
        7
176
     1
 90
        7
176
     1
 40
1.0
176
     1
 90
        8
176
     1
 62
     7
176
     1
 40
1.0
176
     1
 90
        1
176
     1
 90
        6
176
     1
 90
        2
176
     1
 62
     7
176
     1
 90
        5
176
     1
 90
        0
176
     1
 90
        0
176
     1
290
     0
176
     1
 90
        1
176
     1
 40
0.0
176
     1
 90
        0
176
     1
290
     0
176
     1
290
     1
176
     1
290
     1
176
     1
290
     0
176
     1
290
     0
176
     1
290
     0
176
     1
290
     0
176
     1
290
     0
176
     1
290
     0
176
     1
 90
       50
176
     1
 40
0.0
176
     1
 40
1.0
176
     1
 90
        0
176
     1
 62
    18
420
        0
176
     1
 90
       50
176
     1
 90
        3
176
     1
 62
     5
420
      255
176
     1
290
     0
176
     1
 90
       50
176
     1
 90
       50
176
     1
 90
       50
176
     1
290
     0
176
     1
 90
       50
176
     1
 62
   256
176
     0
 40
1.0
176
     0
 90
        2
176
     1
  1
strokes_ogs.tif
176
     1
290
     0
176
     1
 40
1.0
176
     1
 40
1.0
176
     1
  0
VISUALSTYLE
  5
40
102
{ACAD_REACTORS
330
29
102
}
330
29
100
AcDbVisualStyle
  2
OverhangOff
 70
    21
177
     3
291
     1
 70
    58
 90
        2
176
     0
 90
        2
176
     0
 90
        0
176
     0
 90
        0
176
     0
 40
0.6
176
     0
 40
30.0
176
     0
 62
     7
420
 16777215
176
     0
 90
        1
176
     0
 90
        4
176
     0
 62
     7
176
     0
 62
   257
176
     0
 90
        1
176
     0
 90
        1
176
     0
 40
1.0
176
     0
 90
        9
176
     2
 62
     7
176
     0
 40
1.0
176
     0
 90
        1
176
     0
 90
        6
176
     0
 90
        2
176
     0
 62
     7
176
     0
 90
        5
176
     0
 90
        0
176
     0
 90
        0
176
     0
290
     0
176
     0
 90
        1
176
     0
 40
0.0
176
     0
 90
        0
176
     0
290
     0
176
     0
290
     1
176
     0
290
     1
176
     0
290
     0
176
     0
290
     0
176
     0
290
     0
176
     0
290
     0
176
     0
290
     0
176
     0
290
     0
176
     0
 90
       50
176
     0
 40
0.0
176
     0
 40
1.0
176
     0
 90
        0
176
     0
 62
    18
420
        0
176
     0
 90
       50
176
     0
 90
        3
176
     0
 62
     5
420
      255
176
     0
290
     0
176
     0
 90
       50
176
     0
 90
       50
176
     0
 90
       50
176
     0
290
     0
176
     0
 90
       50
176
     0
 62
   256
176
     0
 40
1.0
176
     0
 90
        2
176
     0
  1
strokes_ogs.tif
176
     0
290
     0
176
     0
 40
1.0
176
     0
 40
1.0
176
     0
  0
VISUALSTYLE
  5
33
102
{ACAD_REACTORS
330
29
102
}
330
29
100
AcDbVisualStyle
  2
Realistic
 70
     8
177
     3
291
     0
 70
    58
 90
        2
176
     1
 90
        3
176
     1
 90
        0
176
     1
 90
        2
176
     1
 40
0.6
176
     1
 40
30.0
176
     1
 62
     7
420
 16777215
176
     1
 90
        0
176
     1
 90
        0
176
     1
 62
     7
176
     1
 62
   257
176
     1
 90
        1
176
     1
 90
        1
176
     1
 40
1.0
176
     1
 90
        8
176
     1
 62
   257
176
     1
 40
1.0
176
     1
 90
        1
176
     1
 90
        6
176
     1
 90
        2
176
     1
 62
     7
176
     1
 90
        3
176
     1
 90
        0
176
     1
 90
        0
176
     1
290
     0
176
     1
 90
       13
176
     1
 40
0.0
176
     1
 90
        0
176
     1
290
     0
176
     1
290
     1
176
     1
290
     1
176
     1
290
     0
176
     1
290
     0
176
     1
290
     0
176
     1
290
     0
176
     1
290
     0
176
     1
290
     0
176
     1
 90
       50
176
     1
 40
0.0
176
     1
 40
1.0
176
     1
 90
        0
176
     1
 62
    18
420
        0
176
     1
 90
       50
176
     1
 90
        3
176
     1
 62
     5
420
      255
176
     1
290
     0
176
     1
 90
       50
176
     1
 90
       50
176
     1
 90
       50
176
     1
290
     0
176
     1
 90
       50
176
     1
 62
   256
176
     0
 40
1.0
176
     0
 90
        2
176
     1
  1
strokes_ogs.tif
176
     1
290
     0
176
     1
 40
1.0
176
     1
 40
1.0
176
     1
  0
VISUALSTYLE
  5
3E
102
{ACAD_REACTORS
330
29
102
}
330
29
100
AcDbVisualStyle
  2
Shaded
 70
    27
177
     3
291
     0
 70
    58
 90
        2
176
     1
 90
        2
176
     1
 90
        1
176
     1
 90
        2
176
     1
 40
0.6
176
     1
 40
30.0
176
     1
 62
     7
420
 16777215
176
     1
 90
        0
176
     1
 90
        4
176
     1
 62
     7
176
     1
 62
   257
176
     1
 90
        1
176
     1
 90
        1
176
     1
 40
1.0
176
     1
 90
        8
176
     1
 62
   257
176
     1
 40
1.0
176
     1
 90
        1
176
     1
 90
        6
176
     1
 90
        2
176
     1
 62
     8
420
  7895160
176
     1
 90
        3
176
     1
 90
        0
176
     1
 90
        0
176
     1
290
     0
176
     1
 90
        5
176
     1
 40
0.0
176
     1
 90
        0
176
     1
290
     0
176
     1
290
     1
176
     1
290
     1
176
     1
290
     0
176
     1
290
     0
176
     1
290
     0
176
     1
290
     0
176
     1
290
     0
176
     1
290
     0
176
     1
 90
       50
176
     1
 40
0.0
176
     1
 40
1.0
176
     1
 90
        0
176
     1
 62
    18
420
        0
176
     1
 90
       50
176
     1
 90
        3
176
     1
 62
     5
420
      255
176
     1
290
     0
176
     1
 90
       50
176
     1
 90
       50
176
     1
 90
       50
176
     1
290
     0
176
     1
 90
       50
176
     1
 62
   256
176
     0
 40
1.0
176
     0
 90
        2
176
     1
  1
strokes_ogs.tif
176
     1
290
     0
176
     1
 40
1.0
176
     1
 40
1.0
176
     1
  0
VISUALSTYLE
  5
3D
102
{ACAD_REACTORS
330
29
102
}
330
29
100
AcDbVisualStyle
  2
Shaded with edges
 70
    26
177
     3
291
     0
 70
    58
 90
        2
176
     1
 90
        2
176
     1
 90
        1
176
     1
 90
        2
176
     1
 40
0.6
176
     1
 40
30.0
176
     1
 62
     7
420
 16777215
176
     1
 90
        1
176
     1
 90
        2
176
     1
 62
     7
176
     1
 62
   257
176
     1
 90
        2
176
     1
 90
        1
176
     1
 40
1.0
176
     1
 90
        8
176
     1
 62
   257
176
     1
 40
1.0
176
     1
 90
        1
176
     1
 90
        6
176
     1
 90
        2
176
     1
 62
     7
176
     1
 90
        3
176
     1
 90
        0
176
     1
 90
        0
176
     1
290
     0
176
     1
 90
        5
176
     1
 40
0.0
176
     1
 90
        0
176
     1
290
     0
176
     1
290
     1
176
     1
290
     1
176
     1
290
     0
176
     1
290
     0
176
     1
290
     0
176
     1
290
     0
176
     1
290
     0
176
     1
290
     0
176
     1
 90
       50
176
     1
 40
0.0
176
     1
 40
1.0
176
     1
 90
        0
176
     1
 62
    18
420
        0
176
     1
 90
       50
176
     1
 90
        3
176
     1
 62
     5
420
      255
176
     1
290
     0
176
     1
 90
       50
176
     1
 90
       50
176
     1
 90
       50
176
     1
290
     0
176
     1
 90
       50
176
     1
 62
   256
176
     0
 40
1.0
176
     0
 90
        2
176
     1
  1
strokes_ogs.tif
176
     1
290
     0
176
     1
 40
1.0
176
     1
 40
1.0
176
     1
  0
VISUALSTYLE
  5
3A
102
{ACAD_REACTORS
330
29
102
}
330
29
100
AcDbVisualStyle
  2
Shades of Gray
 70
    23
177
     3
291
     0
 70
    58
 90
        2
176
     1
 90
        2
176
     1
 90
        3
176
     1
 90
        0
176
     1
 40
0.6
176
     1
 40
30.0
176
     1
 62
     7
420
 16777215
176
     1
 90
        2
176
     1
 90
        2
176
     1
 62
     7
176
     1
 62
     7
176
     1
 90
        1
176
     1
 90
        1
176
     1
 40
40.0
176
     1
 90
        8
176
     1
 62
     7
176
     1
 40
1.0
176
     1
 90
        1
176
     1
 90
        6
176
     1
 90
        2
176
     1
 62
     7
176
     1
 90
        3
176
     1
 90
        0
176
     1
 90
        0
176
     1
290
     0
176
     1
 90
        1
176
     1
 40
0.0
176
     1
 90
        0
176
     1
290
     0
176
     1
290
     1
176
     1
290
     1
176
     1
290
     0
176
     1
290
     0
176
     1
290
     0
176
     1
290
     0
176
     1
290
     0
176
     1
290
     0
176
     1
 90
       50
176
     1
 40
0.0
176
     1
 40
1.0
176
     1
 90
        0
176
     1
 62
    18
420
        0
176
     1
 90
       50
176
     1
 90
        3
176
     1
 62
     5
420
      255
176
     1
290
     0
176
     1
 90
       50
176
     1
 90
       50
176
     1
 90
       50
176
     1
290
     0
176
     1
 90
       50
176
     1
 62
   256
176
     0
 40
1.0
176
     0
 90
        2
176
     1
  1
strokes_ogs.tif
176
     1
290
     0
176
     1
 40
1.0
176
     1
 40
1.0
176
     1
  0
VISUALSTYLE
  5
3B
102
{ACAD_REACTORS
330
29
102
}
330
29
100
AcDbVisualStyle
  2
Sketchy
 70
    24
177
     3
291
     0
 70
    58
 90
        1
176
     1
 90
        2
176
     1
 90
        2
176
     1
 90
        0
176
     1
 40
0.6
176
     1
 40
30.0
176
     1
 62
     7
420
 16777215
176
     1
 90
        2
176
     1
 90
        2
176
     1
 62
     7
176
     1
 62
     7
176
     1
 90
        1
176
     1
 90
        1
176
     1
 40
40.0
176
     1
 90
       11
176
     1
 62
     7
176
     1
 40
1.0
176
     1
 90
        1
176
     1
 90
        6
176
     1
 90
        2
176
     1
 62
     7
176
     1
 90
        6
176
     1
 90
        0
176
     1
 90
        0
176
     1
290
     0
176
     1
 90
        1
176
     1
 40
0.0
176
     1
 90
        0
176
     1
290
     0
176
     1
290
     1
176
     1
290
     1
176
     1
290
     0
176
     1
290
     0
176
     1
290
     0
176
     1
290
     0
176
     1
290
     0
176
     1
290
     0
176
     1
 90
       50
176
     1
 40
0.0
176
     1
 40
1.0
176
     1
 90
        0
176
     1
 62
    18
420
        0
176
     1
 90
       50
176
     1
 90
        3
176
     1
 62
     5
420
      255
176
     1
290
     0
176
     1
 90
       50
176
     1
 90
       50
176
     1
 90
       50
176
     1
290
     0
176
     1
 90
       50
176
     1
 62
   256
176
     0
 40
1.0
176
     0
 90
        2
176
     1
  1
strokes_ogs.tif
176
     1
290
     0
176
     1
 40
1.0
176
     1
 40
1.0
176
     1
  0
VISUALSTYLE
  5
36
102
{ACAD_REACTORS
330
29
102
}
330
29
100
AcDbVisualStyle
  2
Thicken
 70
    13
177
     3
291
     1
 70
    58
 90
        2
176
     1
 90
        2
176
     1
 90
        0
176
     1
 90
        0
176
     1
 40
0.6
176
     1
 40
30.0
176
     1
 62
     7
420
 16777215
176
     1
 90
        1
176
     1
 90
        4
176
     1
 62
     7
176
     1
 62
   257
176
     1
 90
        1
176
     1
 90
        1
176
     1
 40
1.0
176
     1
 90
       12
176
     1
 62
     7
176
     1
 40
1.0
176
     1
 90
        1
176
     1
 90
        6
176
     1
 90
        2
176
     1
 62
     7
176
     1
 90
        5
176
     1
 90
        0
176
     1
 90
        0
176
     1
290
     0
176
     1
 90
        1
176
     1
 40
0.0
176
     1
 90
        0
176
     1
290
     0
176
     1
290
     1
176
     1
290
     1
176
     1
290
     0
176
     1
290
     0
176
     1
290
     0
176
     1
290
     0
176
     1
290
     0
176
     1
290
     0
176
     1
 90
       50
176
     1
 40
0.0
176
     1
 40
1.0
176
     1
 90
        0
176
     1
 62
    18
420
        0
176
     1
 90
       50
176
     1
 90
        3
176
     1
 62
     5
420
      255
176
     1
290
     0
176
     1
 90
       50
176
     1
 90
       50
176
     1
 90
       50
176
     1
290
     0
176
     1
 90
       50
176
     1
 62
   256
176
     0
 40
1.0
176
     0
 90
        2
176
     1
  1
strokes_ogs.tif
176
     1
290
     0
176
     1
 40
1.0
176
     1
 40
1.0
176
     1
  0
VISUALSTYLE
  5
30
102
{ACAD_REACTORS
330
29
102
}
330
29
100
AcDbVisualStyle
  2
Wireframe
 70
     5
177
     3
291
     0
 70
    58
 90
        0
176
     1
 90
        2
176
     1
 90
        0
176
     1
 90
        0
176
     1
 40
0.6
176
     1
 40
30.0
176
     1
 62
     7
420
 16777215
176
     1
 90
        1
176
     1
 90
        4
176
     1
 62
     7
176
     1
 62
   257
176
     1
 90
        1
176
     1
 90
        1
176
     1
 40
1.0
176
     1
 90
        0
176
     1
 62
   257
176
     1
 40
1.0
176
     1
 90
        1
176
     1
 90
        6
176
     1
 90
        2
176
     1
 62
     7
176
     1
 90
        3
176
     1
 90
        0
176
     1
 90
        0
176
     1
290
     0
176
     1
 90
        1
176
     1
 40
0.0
176
     1
 90
        0
176
     1
290
     0
176
     1
290
     1
176
     1
290
     1
176
     1
290
     0
176
     1
290
     0
176
     1
290
     0
176
     1
290
     0
176
     1
290
     0
176
     1
290
     0
176
     1
 90
       50
176
     1
 40
0.0
176
     1
 40
1.0
176
     1
 90
        0
176
     1
 62
    18
420
        0
176
     1
 90
       50
176
     1
 90
        3
176
     1
 62
     5
420
      255
176
     1
290
     0
176
     1
 90
       50
176
     1
 90
       50
176
     1
 90
       50
176
     1
290
     0
176
     1
 90
       50
176
     1
 62
   256
176
     0
 40
1.0
176
     0
 90
        2
176
     1
  1
strokes_ogs.tif
176
     1
290
     0
176
     1
 40
1.0
176
     1
 40
1.0
176
     1
  0
VISUALSTYLE
  5
3C
102
{ACAD_REACTORS
330
29
102
}
330
29
100
AcDbVisualStyle
  2
X-Ray
 70
    25
177
     3
291
     0
 70
    58
 90
        2
176
     1
 90
        2
176
     1
 90
        1
176
     1
 90
        1
176
     1
 40
0.5
176
     1
 40
30.0
176
     1
 62
     7
420
 16777215
176
     1
 90
        1
176
     1
 90
        0
176
     1
 62
     7
176
     1
 62
   257
176
     1
 90
        1
176
     1
 90
        1
176
     1
 40
1.0
176
     1
 90
        8
176
     1
 62
     7
176
     1
 40
1.0
176
     1
 90
        1
176
     1
 90
        6
176
     1
 90
        2
176
     1
 62
     7
176
     1
 90
        3
176
     1
 90
        0
176
     1
 90
        0
176
     1
290
     0
176
     1
 90
       13
176
     1
 40
0.0
176
     1
 90
        0
176
     1
290
     0
176
     1
290
     1
176
     1
290
     1
176
     1
290
     0
176
     1
290
     0
176
     1
290
     0
176
     1
290
     0
176
     1
290
     0
176
     1
290
     0
176
     1
 90
       50
176
     1
 40
0.0
176
     1
 40
1.0
176
     1
 90
        0
176
     1
 62
    18
420
        0
176
     1
 90
       50
176
     1
 90
        3
176
     1
 62
     5
420
      255
176
     1
290
     0
176
     1
 90
       50
176
     1
 90
       50
176
     1
 90
       50
176
     1
290
     0
176
     1
 90
       50
176
     1
 62
   256
176
     0
 40
1.0
176
     0
 90
        2
176
     1
  1
strokes_ogs.tif
176
     1
290
     0
176
     1
 40
1.0
176
     1
 40
1.0
176
     1
  0
DICTIONARYVAR
  5
CA
102
{ACAD_REACTORS
330
C5
102
}
330
C5
100
DictionaryVariables
280
     0
  1
1:1
  0
DICTIONARYVAR
  5
C7
102
{ACAD_REACTORS
330
C5
102
}
330
C5
100
DictionaryVariables
280
     0
  1
STANDARD
  0
DICTIONARYVAR
  5
C6
102
{ACAD_REACTORS
330
C5
102
}
330
C5
100
DictionaryVariables
280
     0
  1
STANDARD
  0
DICTIONARYVAR
  5
C8
102
{ACAD_REACTORS
330
C5
102
}
330
C5
100
DictionaryVariables
280
     0
  1
Imperial24
  0
DICTIONARYVAR
  5
C9
102
{ACAD_REACTORS
330
C5
102
}
330
C5
100
DictionaryVariables
280
     0
  1
Imperial24
  0
DICTIONARY
  5
1A
330
19
100
AcDbDictionary
280
     1
281
     1
  3
BUMPTILE
360
1C
  3
DIFFUSETILE
360
1B
  3
OPACITYTILE
360
1F
  3
REFLECTIONTILE
360
1E
  3
REFRACTIONTILE
360
20
  3
SPECULARTILE
360
1D
  0
DICTIONARY
  5
12
330
11
100
AcDbDictionary
280
     1
281
     1
  3
BUMPTILE
360
14
  3
DIFFUSETILE
360
13
  3
OPACITYTILE
360
17
  3
REFLECTIONTILE
360
16
  3
REFRACTIONTILE
360
18
  3
SPECULARTILE
360
15
  0
DICTIONARY
  5
22
330
21
100
AcDbDictionary
280
     1
281
     1
  3
BUMPTILE
360
24
  3
DIFFUSETILE
360
23
  3
OPACITYTILE
360
27
  3
REFLECTIONTILE
360
26
  3
REFRACTIONTILE
360
28
  3
SPECULARTILE
360
25
  0
DICTIONARY
  5
CB
330
65
100
AcDbDictionary
280
     1
281
     1
  3
ACAD_ROUNDTRIP_2008_TABLESTYLE_CELLSTYLEMAP
360
CC
  0
XRECORD
  5
1C
102
{ACAD_REACTORS
330
1A
102
}
330
1A
100
AcDbXrecord
280
     1
270
     1
271
     1
  0
XRECORD
  5
1B
102
{ACAD_REACTORS
330
1A
102
}
330
1A
100
AcDbXrecord
280
     1
270
     1
271
     1
  0
XRECORD
  5
1F
102
{ACAD_REACTORS
330
1A
102
}
330
1A
100
AcDbXrecord
280
     1
270
     1
271
     1
  0
XRECORD
  5
1E
102
{ACAD_REACTORS
330
1A
102
}
330
1A
100
AcDbXrecord
280
     1
270
     1
271
     1
  0
XRECORD
  5
20
102
{ACAD_REACTORS
330
1A
102
}
330
1A
100
AcDbXrecord
280
     1
270
     1
271
     1
  0
XRECORD
  5
1D
102
{ACAD_REACTORS
330
1A
102
}
330
1A
100
AcDbXrecord
280
     1
270
     1
271
     1
  0
XRECORD
  5
14
102
{ACAD_REACTORS
330
12
102
}
330
12
100
AcDbXrecord
280
     1
270
     1
271
     1
  0
XRECORD
  5
13
102
{ACAD_REACTORS
330
12
102
}
330
12
100
AcDbXrecord
280
     1
270
     1
271
     1
  0
XRECORD
  5
17
102
{ACAD_REACTORS
330
12
102
}
330
12
100
AcDbXrecord
280
     1
270
     1
271
     1
  0
XRECORD
  5
16
102
{ACAD_REACTORS
330
12
102
}
330
12
100
AcDbXrecord
280
     1
270
     1
271
     1
  0
XRECORD
  5
18
102
{ACAD_REACTORS
330
12
102
}
330
12
100
AcDbXrecord
280
     1
270
     1
271
     1
  0
XRECORD
  5
15
102
{ACAD_REACTORS
330
12
102
}
330
12
100
AcDbXrecord
280
     1
270
     1
271
     1
  0
XRECORD
  5
24
102
{ACAD_REACTORS
330
22
102
}
330
22
100
AcDbXrecord
280
     1
270
     1
271
     1
  0
XRECORD
  5
23
102
{ACAD_REACTORS
330
22
102
}
330
22
100
AcDbXrecord
280
     1
270
     1
271
     1
  0
XRECORD
  5
27
102
{ACAD_REACTORS
330
22
102
}
330
22
100
AcDbXrecord
280
     1
270
     1
271
     1
  0
XRECORD
  5
26
102
{ACAD_REACTORS
330
22
102
}
330
22
100
AcDbXrecord
280
     1
270
     1
271
     1
  0
XRECORD
  5
28
102
{ACAD_REACTORS
330
22
102
}
330
22
100
AcDbXrecord
280
     1
270
     1
271
     1
  0
XRECORD
  5
25
102
{ACAD_REACTORS
330
22
102
}
330
22
100
AcDbXrecord
280
     1
270
     1
271
     1
  0
CELLSTYLEMAP
  5
CC
102
{ACAD_REACTORS
330
CB
102
}
330
CB
100
AcDbCellStyleMap
 90
        3
300
CELLSTYLE
  1
TABLEFORMAT_BEGIN
 90
        5
170
     1
 91
        0
 92
    32768
 62
   257
 93
        1
300
CONTENTFORMAT
  1
CONTENTFORMAT_BEGIN
 90
        0
 91
        0
 92
      512
 93
        0
300

 40
0.0
140
1.0
 94
        5
 62
     0
340
55
144
0.25
309
CONTENTFORMAT_END
171
     0
 94
        0
309
TABLEFORMAT_END
  1
CELLSTYLE_BEGIN
 90
        1
 91
        1
300
_TITLE
309
CELLSTYLE_END
300
CELLSTYLE
  1
TABLEFORMAT_BEGIN
 90
        5
170
     1
 91
        0
 92
        0
 62
   257
 93
        1
300
CONTENTFORMAT
  1
CONTENTFORMAT_BEGIN
 90
        0
 91
        0
 92
      512
 93
        0
300

 40
0.0
140
1.0
 94
        5
 62
     0
340
55
144
0.18
309
CONTENTFORMAT_END
171
     0
 94
        0
309
TABLEFORMAT_END
  1
CELLSTYLE_BEGIN
 90
        2
 91
        1
300
_HEADER
309
CELLSTYLE_END
300
CELLSTYLE
  1
TABLEFORMAT_BEGIN
 90
        5
170
     1
 91
        0
 92
        0
 62
   257
 93
        1
300
CONTENTFORMAT
  1
CONTENTFORMAT_BEGIN
 90
        0
 91
        0
 92
      512
 93
        0
300

 40
0.0
140
1.0
 94
        2
 62
     0
340
55
144
0.18
309
CONTENTFORMAT_END
171
     0
 94
        0
309
TABLEFORMAT_END
  1
CELLSTYLE_BEGIN
 90
        3
 91
        2
300
_DATA
309
CELLSTYLE_END
  0
ENDSEC
  0
EOF
