  0
SECTION
  2
HEADER
  9
$ACADVER
  1
AC1032
  9
$ACADMAINTVER
 90
      228
  9
$DWGCODEPAGE
  3
ANSI_1252
  9
$REQUIREDVERSIONS
160
                 0
  9
$INSBASE
 10
0.0
 20
0.0
 30
0.0
  9
$EXTMIN
 10
1.000000000000000E+20
 20
1.000000000000000E+20
 30
1.000000000000000E+20
  9
$EXTMAX
 10
-1.000000000000000E+20
 20
-1.000000000000000E+20
 30
-1.000000000000000E+20
  9
$LIMMIN
 10
0.0
 20
0.0
  9
$LIMMAX
 10
12.0
 20
9.0
  9
$ORTHOMODE
 70
     0
  9
$REGENMODE
 70
     1
  9
$FILLMODE
 70
     1
  9
$QTEXTMODE
 70
     0
  9
$MIRRTEXT
 70
     0
  9
$LTSCALE
 40
1.0
  9
$ATTMODE
 70
     1
  9
$TEXTSIZE
 40
0.2
  9
$TRACEWID
 40
0.05
  9
$TEXTSTYLE
  7
Standard
  9
$CLAYER
  8
0
  9
$CELTYPE
  6
ByLayer
  9
$CECOLOR
 62
   256
  9
$CELTSCALE
 40
1.0
  9
$DISPSILH
 70
     0
  9
$DIMSCALE
 40
1.0
  9
$DIMASZ
 40
0.18
  9
$DIMEXO
 40
0.0625
  9
$DIMDLI
 40
0.38
  9
$DIMRND
 40
0.0
  9
$DIMDLE
 40
0.0
  9
$DIMEXE
 40
0.18
  9
$DIMTP
 40
0.0
  9
$DIMTM
 40
0.0
  9
$DIMTXT
 40
0.18
  9
$DIMCEN
 40
0.09
  9
$DIMTSZ
 40
0.0
  9
$DIMTOL
 70
     0
  9
$DIMLIM
 70
     0
  9
$DIMTIH
 70
     1
  9
$DIMTOH
 70
     1
  9
$DIMSE1
 70
     0
  9
$DIMSE2
 70
     0
  9
$DIMTAD
 70
     0
  9
$DIMZIN
 70
     0
  9
$DIMBLK
  1

  9
$DIMASO
 70
     1
  9
$DIMSHO
 70
     1
  9
$DIMPOST
  1

  9
$DIMAPOST
  1

  9
$DIMALT
 70
     0
  9
$DIMALTD
 70
     2
  9
$DIMALTF
 40
25.4
  9
$DIMLFAC
 40
1.0
  9
$DIMTOFL
 70
     0
  9
$DIMTVP
 40
0.0
  9
$DIMTIX
 70
     0
  9
$DIMSOXD
 70
     0
  9
$DIMSAH
 70
     0
  9
$DIMBLK1
  1

  9
$DIMBLK2
  1

  9
$DIMSTYLE
  2
Standard
  9
$DIMCLRD
 70
     0
  9
$DIMCLRE
 70
     0
  9
$DIMCLRT
 70
     0
  9
$DIMTFAC
 40
1.0
  9
$DIMGAP
 40
0.09
  9
$DIMJUST
 70
     0
  9
$DIMSD1
 70
     0
  9
$DIMSD2
 70
     0
  9
$DIMTOLJ
 70
     1
  9
$DIMTZIN
 70
     0
  9
$DIMALTZ
 70
     0
  9
$DIMALTTZ
 70
     0
  9
$DIMUPT
 70
     0
  9
$DIMDEC
 70
     4
  9
$DIMTDEC
 70
     4
  9
$DIMALTU
 70
     2
  9
$DIMALTTD
 70
     2
  9
$DIMTXSTY
  7
Standard
  9
$DIMAUNIT
 70
     0
  9
$DIMADEC
 70
     0
  9
$DIMALTRND
 40
0.0
  9
$DIMAZIN
 70
     0
  9
$DIMDSEP
 70
    46
  9
$DIMATFIT
 70
     3
  9
$DIMFRAC
 70
     0
  9
$DIMLDRBLK
  1

  9
$DIMLUNIT
 70
     2
  9
$DIMLWD
 70
    -2
  9
$DIMLWE
 70
    -2
  9
$DIMTMOVE
 70
     0
  9
$DIMFXL
 40
1.0
  9
$DIMFXLON
 70
     0
  9
$DIMJOGANG
 40
0.7853981633974483
  9
$DIMTFILL
 70
     0
  9
$DIMTFILLCLR
 70
     0
  9
$DIMARCSYM
 70
     0
  9
$DIMLTYPE
  6

  9
$DIMLTEX1
  6

  9
$DIMLTEX2
  6

  9
$DIMTXTDIRECTION
 70
     0
  9
$LUNITS
 70
     2
  9
$LUPREC
 70
     4
  9
$SKETCHINC
 40
0.1
  9
$FILLETRAD
 40
0.0
  9
$AUNITS
 70
     0
  9
$AUPREC
 70
     0
  9
$MENU
  1
.
  9
$ELEVATION
 40
0.0
  9
$PELEVATION
 40
0.0
  9
$THICKNESS
 40
0.0
  9
$LIMCHECK
 70
     0
  9
$CHAMFERA
 40
0.0
  9
$CHAMFERB
 40
0.0
  9
$CHAMFERC
 40
0.0
  9
$CHAMFERD
 40
0.0
  9
$SKPOLY
 70
     0
  9
$TDCREATE
 40
2459814.968148148
  9
$TDUCREATE
 40
2459814.884814815
  9
$TDUPDATE
 40
2459814.968148148
  9
$TDUUPDATE
 40
2459814.884814815
  9
$TDINDWG
 40
0.0000000000
  9
$TDUSRTIMER
 40
0.0000000000
  9
$USRTIMER
 70
     1
  9
$ANGBASE
 50
0.0
  9
$ANGDIR
 70
     0
  9
$PDMODE
 70
     0
  9
$PDSIZE
 40
0.0
  9
$PLINEWID
 40
0.0
  9
$SPLFRAME
 70
     0
  9
$SPLINETYPE
 70
     6
  9
$SPLINESEGS
 70
     8
  9
$HANDSEED
  5
E2
  9
$SURFTAB1
 70
     6
  9
$SURFTAB2
 70
     6
  9
$SURFTYPE
 70
     6
  9
$SURFU
 70
     6
  9
$SURFV
 70
     6
  9
$UCSBASE
  2

  9
$UCSNAME
  2

  9
$UCSORG
 10
0.0
 20
0.0
 30
0.0
  9
$UCSXDIR
 10
1.0
 20
0.0
 30
0.0
  9
$UCSYDIR
 10
0.0
 20
1.0
 30
0.0
  9
$UCSORTHOREF
  2

  9
$UCSORTHOVIEW
 70
     0
  9
$UCSORGTOP
 10
0.0
 20
0.0
 30
0.0
  9
$UCSORGBOTTOM
 10
0.0
 20
0.0
 30
0.0
  9
$UCSORGLEFT
 10
0.0
 20
0.0
 30
0.0
  9
$UCSORGRIGHT
 10
0.0
 20
0.0
 30
0.0
  9
$UCSORGFRONT
 10
0.0
 20
0.0
 30
0.0
  9
$UCSORGBACK
 10
0.0
 20
0.0
 30
0.0
  9
$PUCSBASE
  2

  9
$PUCSNAME
  2

  9
$PUCSORG
 10
0.0
 20
0.0
 30
0.0
  9
$PUCSXDIR
 10
1.0
 20
0.0
 30
0.0
  9
$PUCSYDIR
 10
0.0
 20
1.0
 30
0.0
  9
$PUCSORTHOREF
  2

  9
$PUCSORTHOVIEW
 70
     0
  9
$PUCSORGTOP
 10
0.0
 20
0.0
 30
0.0
  9
$PUCSORGBOTTOM
 10
0.0
 20
0.0
 30
0.0
  9
$PUCSORGLEFT
 10
0.0
 20
0.0
 30
0.0
  9
$PUCSORGRIGHT
 10
0.0
 20
0.0
 30
0.0
  9
$PUCSORGFRONT
 10
0.0
 20
0.0
 30
0.0
  9
$PUCSORGBACK
 10
0.0
 20
0.0
 30
0.0
  9
$USERI1
 70
     0
  9
$USERI2
 70
     0
  9
$USERI3
 70
     0
  9
$USERI4
 70
     0
  9
$USERI5
 70
     0
  9
$USERR1
 40
0.0
  9
$USERR2
 40
0.0
  9
$USERR3
 40
0.0
  9
$USERR4
 40
0.0
  9
$USERR5
 40
0.0
  9
$WORLDVIEW
 70
     1
  9
$SHADEDGE
 70
     3
  9
$SHADEDIF
 70
    70
  9
$TILEMODE
 70
     1
  9
$MAXACTVP
 70
    64
  9
$PINSBASE
 10
0.0
 20
0.0
 30
0.0
  9
$PLIMCHECK
 70
     0
  9
$PEXTMIN
 10
1.000000000000000E+20
 20
1.000000000000000E+20
 30
1.000000000000000E+20
  9
$PEXTMAX
 10
-1.000000000000000E+20
 20
-1.000000000000000E+20
 30
-1.000000000000000E+20
  9
$PLIMMIN
 10
0.0
 20
0.0
  9
$PLIMMAX
 10
12.0
 20
9.0
  9
$UNITMODE
 70
     0
  9
$VISRETAIN
 70
     1
  9
$PLINEGEN
 70
     0
  9
$PSLTSCALE
 70
     1
  9
$TREEDEPTH
 70
  3020
  9
$CMLSTYLE
  2
Standard
  9
$CMLJUST
 70
     0
  9
$CMLSCALE
 40
1.0
  9
$PROXYGRAPHICS
 70
     1
  9
$MEASUREMENT
 70
     0
  9
$CELWEIGHT
370
    -1
  9
$ENDCAPS
280
     0
  9
$JOINSTYLE
280
     0
  9
$LWDISPLAY
290
     1
  9
$INSUNITS
 70
     4
  9
$HYPERLINKBASE
  1

  9
$STYLESHEET
  1

  9
$XEDIT
290
     1
  9
$CEPSNTYPE
380
     0
  9
$PSTYLEMODE
290
     1
  9
$FINGERPRINTGUID
  2
{8E939B2D-4022-0545-8AF0-CB3D02E7A620}
  9
$VERSIONGUID
  2
{23636B0B-A110-6C47-958B-5E37FA788CA4}
  9
$EXTNAMES
290
     1
  9
$PSVPSCALE
 40
0.0
  9
$OLESTARTUP
290
     0
  9
$SORTENTS
280
   127
  9
$INDEXCTL
280
     0
  9
$HIDETEXT
280
     1
  9
$XCLIPFRAME
280
     2
  9
$HALOGAP
280
     0
  9
$OBSCOLOR
 70
   257
  9
$OBSLTYPE
280
     0
  9
$INTERSECTIONDISPLAY
280
     0
  9
$INTERSECTIONCOLOR
 70
   257
  9
$DIMASSOC
280
     2
  9
$PROJECTNAME
  1

  9
$CAMERADISPLAY
290
     0
  9
$LENSLENGTH
 40
50.0
  9
$CAMERAHEIGHT
 40
0.0
  9
$STEPSPERSEC
 40
2.0
  9
$STEPSIZE
 40
6.0
  9
$3DDWFPREC
 40
2.0
  9
$PSOLWIDTH
 40
0.25
  9
$PSOLHEIGHT
 40
4.0
  9
$LOFTANG1
 40
1.570796326794896
  9
$LOFTANG2
 40
1.570796326794896
  9
$LOFTMAG1
 40
0.0
  9
$LOFTMAG2
 40
0.0
  9
$LOFTPARAM
 70
     7
  9
$LOFTNORMALS
280
     1
  9
$LATITUDE
 40
37.795
  9
$LONGITUDE
 40
-122.394
  9
$NORTHDIRECTION
 40
0.0
  9
$TIMEZONE
 70
 -8000
  9
$LIGHTGLYPHDISPLAY
280
     1
  9
$TILEMODELIGHTSYNCH
280
     1
  9
$CMATERIAL
347
11
  9
$SOLIDHIST
280
     0
  9
$SHOWHIST
280
     1
  9
$DWFFRAME
280
     2
  9
$DGNFRAME
280
     0
  9
$REALWORLDSCALE
290
     1
  9
$INTERFERECOLOR
 62
     1
  9
$INTERFEREOBJVS
345
33
  9
$INTERFEREVPVS
346
30
  9
$CSHADOW
280
     0
  9
$SHADOWPLANELOCATION
 40
0.0
  0
ENDSEC
  0
SECTION
  2
CLASSES
  0
CLASS
  1
ACDBDICTIONARYWDFLT
  2
AcDbDictionaryWithDefault
  3
ObjectDBX Classes
 90
        0
 91
        1
280
     0
281
     0
  0
CLASS
  1
MATERIAL
  2
AcDbMaterial
  3
ObjectDBX Classes
 90
     1153
 91
        3
280
     0
281
     0
  0
CLASS
  1
VISUALSTYLE
  2
AcDbVisualStyle
  3
ObjectDBX Classes
 90
     4095
 91
       24
280
     0
281
     0
  0
CLASS
  1
SCALE
  2
AcDbScale
  3
ObjectDBX Classes
 90
     1153
 91
       17
280
     0
281
     0
  0
CLASS
  1
TABLESTYLE
  2
AcDbTableStyle
  3
ObjectDBX Classes
 90
     4095
 91
        1
280
     0
281
     0
  0
CLASS
  1
MLEADERSTYLE
  2
AcDbMLeaderStyle
  3
ACDB_MLEADERSTYLE_CLASS
 90
     4095
 91
        1
280
     0
281
     0
  0
CLASS
  1
ACDBSECTIONVIEWSTYLE
  2
AcDbSectionViewStyle
  3
ObjectDBX Classes
 90
     1025
 91
        1
280
     0
281
     0
  0
CLASS
  1
ACDBDETAILVIEWSTYLE
  2
AcDbDetailViewStyle
  3
ObjectDBX Classes
 90
     1025
 91
        1
280
     0
281
     0
  0
CLASS
  1
DICTIONARYVAR
  2
AcDbDictionaryVar
  3
ObjectDBX Classes
 90
        0
 91
        5
280
     0
281
     0
  0
CLASS
  1
CELLSTYLEMAP
  2
AcDbCellStyleMap
  3
ObjectDBX Classes
 90
     1152
 91
        1
280
     0
281
     0
  0
ENDSEC
  0
SECTION
  2
TABLES
  0
TABLE
  2
VPORT
  5
8
330
0
100
AcDbSymbolTable
 70
     1
  0
VPORT
  5
57
330
8
100
AcDbSymbolTableRecord
100
AcDbViewportTableRecord
  2
*Active
 70
     0
 10
0.0
 20
0.0
 11
1.0
 21
1.0
 12
0.0
 22
0.0
 13
0.0
 23
0.0
 14
1.0
 24
1.0
 15
0.0
 25
0.0
 16
0.0
 26
0.0
 36
1.0
 17
91.87500141813911
 27
49.77480670775664
 37
0.0
 40
101.5413859646254
 41
1.845799140050129
 42
50.0
 43
0.0
 44
0.0
 50
0.0
 51
0.0
 71
     0
 72
   100
 73
     1
 74
     1
 75
     0
 76
     0
 77
     0
 78
     0
281
     0
 65
     1
110
0.0
120
0.0
130
0.0
111
1.0
121
0.0
131
0.0
112
0.0
122
1.0
132
0.0
 79
     0
146
0.0
 60
     3
 61
     5
292
     1
282
     1
141
0.0
142
0.0
 63
   250
421
  3355443
  0
ENDTAB
  0
TABLE
  2
LTYPE
  5
5
330
0
100
AcDbSymbolTable
 70
     1
  0
LTYPE
  5
5B
330
5
100
AcDbSymbolTableRecord
100
AcDbLinetypeTableRecord
  2
ByBlock
 70
     0
  3

 72
    65
 73
     0
 40
0.0
  0
LTYPE
  5
5C
330
5
100
AcDbSymbolTableRecord
100
AcDbLinetypeTableRecord
  2
ByLayer
 70
     0
  3

 72
    65
 73
     0
 40
0.0
  0
LTYPE
  5
5D
330
5
100
AcDbSymbolTableRecord
100
AcDbLinetypeTableRecord
  2
Continuous
 70
     0
  3
Solid line
 72
    65
 73
     0
 40
0.0
  0
ENDTAB
  0
TABLE
  2
LAYER
  5
2
330
0
100
AcDbSymbolTable
 70
     2
  0
LAYER
  5
54
330
2
100
AcDbSymbolTableRecord
100
AcDbLayerTableRecord
  2
0
 70
     0
 62
     7
  6
Continuous
370
    -3
390
F
347
21
348
0
  0
LAYER
  5
78
330
2
100
AcDbSymbolTableRecord
100
AcDbLayerTableRecord
  2
Ebene 1
 70
     0
 62
     7
  6
Continuous
370
     0
390
F
347
21
348
0
  0
ENDTAB
  0
TABLE
  2
STYLE
  5
3
330
0
100
AcDbSymbolTable
 70
     2
  0
STYLE
  5
55
330
3
100
AcDbSymbolTableRecord
100
AcDbTextStyleTableRecord
  2
Standard
 70
     0
 40
0.0
 41
1.0
 50
0.0
 71
     0
 42
0.2
  3
txt
  4

  0
STYLE
  5
5A
330
3
100
AcDbSymbolTableRecord
100
AcDbTextStyleTableRecord
  2
Annotative
 70
     0
 40
0.0
 41
1.0
 50
0.0
 71
     0
 42
0.2
  3
txt
  4

1001
AcadAnnotative
1000
AnnotativeData
1002
{
1070
     1
1070
     1
1002
}
  0
ENDTAB
  0
TABLE
  2
VIEW
  5
6
330
0
100
AcDbSymbolTable
 70
     0
  0
ENDTAB
  0
TABLE
  2
UCS
  5
7
330
0
100
AcDbSymbolTable
 70
     0
  0
ENDTAB
  0
TABLE
  2
APPID
  5
9
330
0
100
AcDbSymbolTable
 70
     2
  0
APPID
  5
56
330
9
100
AcDbSymbolTableRecord
100
AcDbRegAppTableRecord
  2
ACAD
 70
     0
  0
APPID
  5
5E
330
9
100
AcDbSymbolTableRecord
100
AcDbRegAppTableRecord
  2
AcadAnnotative
 70
     0
  0
ENDTAB
  0
TABLE
  2
DIMSTYLE
  5
A
330
0
100
AcDbSymbolTable
 70
     2
100
AcDbDimStyleTable
 71
     0
  0
DIMSTYLE
105
58
330
A
100
AcDbSymbolTableRecord
100
AcDbDimStyleTableRecord
  2
Standard
 70
     0
340
55
  0
DIMSTYLE
105
59
330
A
100
AcDbSymbolTableRecord
100
AcDbDimStyleTableRecord
  2
Annotative
 70
     0
340
55
1001
AcadAnnotative
1000
AnnotativeData
1002
{
1070
     1
1070
     1
1002
}
  0
ENDTAB
  0
TABLE
  2
BLOCK_RECORD
  5
1
330
0
100
AcDbSymbolTable
 70
     3
  0
BLOCK_RECORD
  5
70
330
1
100
AcDbSymbolTableRecord
100
AcDbBlockTableRecord
  2
*Model_Space
340
73
 70
     0
280
     1
281
     0
  0
BLOCK_RECORD
  5
6C
330
1
100
AcDbSymbolTableRecord
100
AcDbBlockTableRecord
  2
*Paper_Space
340
6F
 70
     0
280
     1
281
     0
  0
BLOCK_RECORD
  5
74
330
1
100
AcDbSymbolTableRecord
100
AcDbBlockTableRecord
  2
*Paper_Space0
340
77
 70
     0
280
     1
281
     0
  0
BLOCK_RECORD
  5
79
330
1
100
AcDbSymbolTableRecord
100
AcDbBlockTableRecord
  2
Block_0
340
0
102
{BLKREFS
331
7A
102
}
 70
     0
280
     1
281
     0
  0
BLOCK_RECORD
  5
C9
330
1
100
AcDbSymbolTableRecord
100
AcDbBlockTableRecord
  2
Block_1
340
0
102
{BLKREFS
331
CA
102
}
 70
     0
280
     1
281
     0
  0
ENDTAB
  0
ENDSEC
  0
SECTION
  2
BLOCKS
  0
BLOCK
  5
71
330
70
100
AcDbEntity
  8
0
100
AcDbBlockBegin
  2
*Model_Space
 70
     0
 10
0.0
 20
0.0
 30
0.0
  3
*Model_Space
  1

  0
ENDBLK
  5
72
330
70
100
AcDbEntity
  8
0
100
AcDbBlockEnd
  0
BLOCK
  5
6D
330
6C
100
AcDbEntity
 67
     1
  8
0
100
AcDbBlockBegin
  2
*Paper_Space
 70
     0
 10
0.0
 20
0.0
 30
0.0
  3
*Paper_Space
  1

  0
ENDBLK
  5
6E
330
6C
100
AcDbEntity
 67
     1
  8
0
100
AcDbBlockEnd
  0
BLOCK
  5
75
330
74
100
AcDbEntity
 67
     1
  8
0
100
AcDbBlockBegin
  2
*Paper_Space0
 70
     0
 10
0.0
 20
0.0
 30
0.0
  3
*Paper_Space0
  1

  0
ENDBLK
  5
76
330
74
100
AcDbEntity
 67
     1
  8
0
100
AcDbBlockEnd
  0
BLOCK
  5
7B
330
79
100
AcDbEntity
  8
0
100
AcDbBlockBegin
  2
Block_0
 70
     0
 10
0.0
 20
0.0
 30
0.0
  3
Block_0
  1

  0
SPLINE
  5
7D
330
79
100
AcDbEntity
  8
Ebene 1
 62
     5
420
      255
370
     9
100
AcDbSpline
210
0.0
220
0.0
230
1.0
 70
     9
 71
     3
 72
    20
 73
    16
 74
     0
 42
0.0000000001
 43
0.0000000001
 40
0.0
 40
0.0
 40
0.0
 40
0.0
 40
1.0
 40
1.0
 40
1.0
 40
2.0
 40
2.0
 40
2.0
 40
3.0
 40
3.0
 40
3.0
 40
4.0
 40
4.0
 40
4.0
 40
5.0
 40
5.0
 40
5.0
 40
5.0
 10
47.33362565446705
 20
41.52509230528361
 30
0.0
 10
40.5673477707216
 20
41.52509230528361
 30
0.0
 10
35.08518078244778
 20
47.01078782494898
 30
0.0
 10
35.08518078244778
 20
53.77353717730288
 30
0.0
 10
35.08518078244778
 20
60.53628652965679
 30
0.0
 10
40.57087630211314
 20
66.02198204932214
 30
0.0
 10
47.33362565446705
 20
66.02198204932214
 30
0.0
 10
54.09637500682096
 20
66.02198204932214
 30
0.0
 10
59.58207052648631
 20
60.53628652965679
 30
0.0
 10
59.58207052648631
 20
53.77353717730288
 30
0.0
 10
59.58207052648631
 20
47.01078782494898
 30
0.0
 10
54.09637500682096
 20
41.52509230528361
 30
0.0
 10
47.33362565446705
 20
41.52509230528361
 30
0.0
 10
47.33362565446705
 20
41.52509230528361
 30
0.0
 10
47.33362565446705
 20
41.52509230528361
 30
0.0
 10
47.33362565446705
 20
41.52509230528361
 30
0.0
  0
SPLINE
  5
7E
330
79
100
AcDbEntity
  8
Ebene 1
 62
     5
420
      255
370
     9
100
AcDbSpline
210
0.0
220
0.0
230
1.0
 70
    11
 71
     3
 72
    17
 73
    13
 74
     0
 42
0.0000000001
 43
0.0000000001
 40
0.0
 40
0.0
 40
0.0
 40
0.0
 40
1.0
 40
1.0
 40
1.0
 40
2.0
 40
2.0
 40
2.0
 40
3.0
 40
3.0
 40
3.0
 40
4.0
 40
4.0
 40
4.0
 40
4.0
 10
47.33362565446705
 20
68.52670642410287
 30
0.0
 10
39.18798805952538
 20
68.52670642410287
 30
0.0
 10
32.58398763053944
 20
61.92270599511694
 30
0.0
 10
32.58398763053944
 20
53.77706840017527
 30
0.0
 10
32.58398763053944
 20
45.63143080523359
 30
0.0
 10
39.18798805952538
 20
39.02743037624766
 30
0.0
 10
47.33362565446705
 20
39.02743037624766
 30
0.0
 10
55.47926324940872
 20
39.02743037624766
 30
0.0
 10
62.08326367839466
 20
45.63143080523359
 30
0.0
 10
62.08326367839466
 20
53.77706840017527
 30
0.0
 10
62.08326367839466
 20
61.92270599511694
 30
0.0
 10
55.47926324940872
 20
68.52670642410287
 30
0.0
 10
47.33362565446705
 20
68.52670642410287
 30
0.0
  0
SPLINE
  5
7F
330
79
100
AcDbEntity
  8
Ebene 1
 62
     5
420
      255
370
     9
100
AcDbSpline
210
0.0
220
0.0
230
1.0
 70
     9
 71
     3
 72
    20
 73
    16
 74
     0
 42
0.0000000001
 43
0.0000000001
 40
0.0
 40
0.0
 40
0.0
 40
0.0
 40
1.0
 40
1.0
 40
1.0
 40
2.0
 40
2.0
 40
2.0
 40
3.0
 40
3.0
 40
3.0
 40
4.0
 40
4.0
 40
4.0
 40
5.0
 40
5.0
 40
5.0
 40
5.0
 10
180.4507963789053
 20
93.18940148142223
 30
0.0
 10
179.8722356558512
 20
93.18940148142223
 30
0.0
 10
179.3995147256579
 20
93.65859589883458
 30
0.0
 10
179.3995147256579
 20
94.24067909744834
 30
0.0
 10
179.3995147256579
 20
94.82276229606211
 30
0.0
 10
179.8687044329788
 20
95.29195671347444
 30
0.0
 10
180.4507963789053
 20
95.29195671347444
 30
0.0
 10
181.0328883248318
 20
95.29195671347444
 30
0.0
 10
181.5020672662293
 20
94.82276229606211
 30
0.0
 10
181.5020672662293
 20
94.24067909744834
 30
0.0
 10
181.5020672662293
 20
93.65859589883458
 30
0.0
 10
181.032866792985
 20
93.18940148142223
 30
0.0
 10
180.4507856129819
 20
93.18940148142223
 30
0.0
 10
180.4507856129819
 20
93.18940148142223
 30
0.0
 10
180.4507963789053
 20
93.18940148142223
 30
0.0
 10
180.4507963789053
 20
93.18940148142223
 30
0.0
  0
SPLINE
  5
80
330
79
100
AcDbEntity
  8
Ebene 1
 62
     5
420
      255
370
     9
100
AcDbSpline
210
0.0
220
0.0
230
1.0
 70
     9
 71
     3
 72
    20
 73
    16
 74
     0
 42
0.0000000001
 43
0.0000000001
 40
0.0
 40
0.0
 40
0.0
 40
0.0
 40
1.0
 40
1.0
 40
1.0
 40
2.0
 40
2.0
 40
2.0
 40
3.0
 40
3.0
 40
3.0
 40
4.0
 40
4.0
 40
4.0
 40
5.0
 40
5.0
 40
5.0
 40
5.0
 10
130.7338159870105
 20
23.81918016473125
 30
0.0
 10
123.9675407947459
 20
23.81918016473125
 30
0.0
 10
118.4853711149913
 20
29.30487568439661
 30
0.0
 10
118.4853711149913
 20
36.06762503675052
 30
0.0
 10
118.4853711149913
 20
42.83037438910443
 30
0.0
 10
123.9710612516949
 20
48.31606990876979
 30
0.0
 10
130.7338159870105
 20
48.31606990876979
 30
0.0
 10
137.4965707223261
 20
48.31606990876979
 30
0.0
 10
142.9822608590298
 20
42.83037438910443
 30
0.0
 10
142.9822608590298
 20
36.06762503675052
 30
0.0
 10
142.9822608590298
 20
29.30487568439661
 30
0.0
 10
137.4965707223261
 20
23.81918016473125
 30
0.0
 10
130.7338159870105
 20
23.81918016473125
 30
0.0
 10
130.7338159870105
 20
23.81918016473125
 30
0.0
 10
130.7338159870105
 20
23.81918016473125
 30
0.0
 10
130.7338159870105
 20
23.81918016473125
 30
0.0
  0
SPLINE
  5
81
330
79
100
AcDbEntity
  8
Ebene 1
 62
     5
420
      255
370
     9
100
AcDbSpline
210
0.0
220
0.0
230
1.0
 70
     9
 71
     3
 72
    17
 73
    13
 74
     0
 42
0.0000000001
 43
0.0000000001
 40
0.0
 40
0.0
 40
0.0
 40
0.0
 40
1.0
 40
1.0
 40
1.0
 40
2.0
 40
2.0
 40
2.0
 40
3.0
 40
3.0
 40
3.0
 40
4.0
 40
4.0
 40
4.0
 40
4.0
 10
118.3795420880537
 20
13.79323636874869
 30
0.0
 10
117.8009813649996
 20
13.79323636874869
 30
0.0
 10
117.3282604348064
 20
14.26243145903124
 30
0.0
 10
117.3282604348064
 20
14.84451263903437
 30
0.0
 10
117.3282604348064
 20
15.42659381903751
 30
0.0
 10
117.7974501421272
 20
15.89578890932006
 30
0.0
 10
118.3795420880537
 20
15.89578890932006
 30
0.0
 10
118.9616340339803
 20
15.89578890932006
 30
0.0
 10
119.4308237413011
 20
15.42659381903751
 30
0.0
 10
119.4308237413011
 20
14.84451263903437
 30
0.0
 10
119.4308237413011
 20
14.26243145903124
 30
0.0
 10
118.9616340339803
 20
13.79323636874869
 30
0.0
 10
118.3795420880537
 20
13.79323636874869
 30
0.0
  0
SPLINE
  5
82
330
79
100
AcDbEntity
  8
Ebene 1
 62
     5
420
      255
370
     9
100
AcDbSpline
210
0.0
220
0.0
230
1.0
 70
     9
 71
     3
 72
    17
 73
    13
 74
     0
 42
0.0000000001
 43
0.0000000001
 40
0.0
 40
0.0
 40
0.0
 40
0.0
 40
1.0
 40
1.0
 40
1.0
 40
2.0
 40
2.0
 40
2.0
 40
3.0
 40
3.0
 40
3.0
 40
4.0
 40
4.0
 40
4.0
 40
4.0
 10
118.3795420880537
 20
95.32370744016635
 30
0.0
 10
118.9581028111079
 20
95.32370744016635
 30
0.0
 10
119.4308237413011
 20
94.854513022754
 30
0.0
 10
119.4308237413011
 20
94.27242982414023
 30
0.0
 10
119.4308237413011
 20
93.69034662552648
 30
0.0
 10
118.9616340339803
 20
93.22115220811413
 30
0.0
 10
118.3795420880537
 20
93.22115220811413
 30
0.0
 10
117.7974501421272
 20
93.22115220811413
 30
0.0
 10
117.3282604348064
 20
93.69034662552648
 30
0.0
 10
117.3282604348064
 20
94.27242982414023
 30
0.0
 10
117.3282604348064
 20
94.854513022754
 30
0.0
 10
117.7974501421272
 20
95.32370744016635
 30
0.0
 10
118.3795420880537
 20
95.32370744016635
 30
0.0
  0
SPLINE
  5
83
330
79
100
AcDbEntity
  8
Ebene 1
 62
     5
420
      255
370
     9
100
AcDbSpline
210
0.0
220
0.0
230
1.0
 70
     9
 71
     3
 72
    56
 73
    52
 74
     0
 42
0.0000000001
 43
0.0000000001
 40
0.0
 40
0.0
 40
0.0
 40
0.0
 40
1.0
 40
1.0
 40
1.0
 40
2.0
 40
2.0
 40
2.0
 40
3.0
 40
3.0
 40
3.0
 40
4.0
 40
4.0
 40
4.0
 40
5.0
 40
5.0
 40
5.0
 40
6.0
 40
6.0
 40
6.0
 40
7.0
 40
7.0
 40
7.0
 40
8.0
 40
8.0
 40
8.0
 40
9.0
 40
9.0
 40
9.0
 40
10.0
 40
10.0
 40
10.0
 40
11.0
 40
11.0
 40
11.0
 40
12.0
 40
12.0
 40
12.0
 40
13.0
 40
13.0
 40
13.0
 40
14.0
 40
14.0
 40
14.0
 40
15.0
 40
15.0
 40
15.0
 40
16.0
 40
16.0
 40
16.0
 40
17.0
 40
17.0
 40
17.0
 40
17.0
 10
116.4745442417147
 20
96.88298507625155
 30
0.0
 10
116.0864865330714
 20
96.88298507625155
 30
0.0
 10
115.7760403661569
 20
96.56901290120876
 30
0.0
 10
115.7760403661569
 20
96.18448506969748
 30
0.0
 10
115.7760403661569
 20
96.18448506969748
 30
0.0
 10
115.7760403661569
 20
0.7475102740554812
 30
0.0
 10
115.7760403661569
 20
0.7475102740554812
 30
0.0
 10
115.7760403661569
 20
0.3594525654122612
 30
0.0
 10
116.0900177559438
 20
0.0490063984976853
 30
0.0
 10
116.4745442417147
 20
0.0490063984976853
 30
0.0
 10
116.4745442417147
 20
0.0490063984976853
 30
0.0
 10
131.0513245996699
 20
0.0490063984976853
 30
0.0
 10
131.0513245996699
 20
0.0490063984976853
 30
0.0
 10
131.0513245996699
 20
0.0490063984976853
 30
0.0
 10
123.3395967810954
 20
13.41223033992684
 30
0.0
 10
123.3395967810954
 20
13.41223033992684
 30
0.0
 10
123.1455733097355
 20
13.74736815213961
 30
0.0
 10
123.2619852393668
 20
14.17423163164715
 30
0.0
 10
123.5971284345412
 20
14.36826048596876
 30
0.0
 10
123.5971284345412
 20
14.36826048596876
 30
0.0
 10
132.0849609044788
 20
19.2683436027586
 30
0.0
 10
132.0849609044788
 20
19.2683436027586
 30
0.0
 10
136.4594031946449
 20
21.79423378292683
 30
0.0
 10
141.0490455274819
 20
23.98145492800991
 30
0.0
 10
145.6563224428339
 20
25.75592671915158
 30
0.0
 10
145.6563224428339
 20
25.75592671915158
 30
0.0
 10
145.6845399280428
 20
88.2046504329909
 30
0.0
 10
145.6845399280428
 20
88.2046504329909
 30
0.0
 10
145.6845399280428
 20
88.59270612302347
 30
0.0
 10
145.9985173178298
 20
88.90315027132741
 30
0.0
 10
146.3830438036006
 20
88.90315027132741
 30
0.0
 10
146.3830438036006
 20
88.90315027132741
 30
0.0
 10
164.6780941869392
 20
88.90315027132741
 30
0.0
 10
164.6780941869392
 20
88.90315027132741
 30
0.0
 10
164.6780941869392
 20
88.90315027132741
 30
0.0
 10
164.6780941869392
 20
91.21737230456743
 30
0.0
 10
164.6780941869392
 20
91.21737230456743
 30
0.0
 10
164.6780941869392
 20
91.60542799460001
 30
0.0
 10
164.9920715767262
 20
91.91587214290395
 30
0.0
 10
165.376598062497
 20
91.91587214290395
 30
0.0
 10
165.376598062497
 20
91.91587214290395
 30
0.0
 10
183.6998659310444
 20
91.91587214290395
 30
0.0
 10
183.6998659310444
 20
91.91587214290395
 30
0.0
 10
183.6998659310444
 20
91.91587214290395
 30
0.0
 10
183.6857625714017
 20
96.8865110843798
 30
0.0
 10
183.6857625714017
 20
96.8865110843798
 30
0.0
 10
183.6857625714017
 20
96.8865110843798
 30
0.0
 10
116.4745334757913
 20
96.8865110843798
 30
0.0
 10
116.4745334757913
 20
96.8865110843798
 30
0.0
 10
116.4745334757913
 20
96.8865110843798
 30
0.0
 10
116.4745442417147
 20
96.88298507625155
 30
0.0
 10
116.4745442417147
 20
96.88298507625155
 30
0.0
  0
SPLINE
  5
84
330
79
100
AcDbEntity
  8
Ebene 1
 62
     5
420
      255
370
     9
100
AcDbSpline
210
0.0
220
0.0
230
1.0
 70
     9
 71
     3
 72
    17
 73
    13
 74
     0
 42
0.0000000001
 43
0.0000000001
 40
0.0
 40
0.0
 40
0.0
 40
0.0
 40
1.0
 40
1.0
 40
1.0
 40
2.0
 40
2.0
 40
2.0
 40
3.0
 40
3.0
 40
3.0
 40
4.0
 40
4.0
 40
4.0
 40
4.0
 10
24.17729254224127
 20
10.082012640225
 30
0.0
 10
24.75584788233372
 20
10.082012640225
 30
0.0
 10
25.2285715040078
 20
9.612817549942453
 30
0.0
 10
25.2285715040078
 20
9.030736369939319
 30
0.0
 10
25.2285715040078
 20
8.448655189936184
 30
0.0
 10
24.75937641372525
 20
7.97945471669194
 30
0.0
 10
24.17729254224127
 20
7.97945471669194
 30
0.0
 10
23.59520867075729
 20
7.97945471669194
 30
0.0
 10
23.12601358047474
 20
8.448644424012792
 30
0.0
 10
23.12601358047474
 20
9.030736369939319
 30
0.0
 10
23.12601358047474
 20
9.612828315865844
 30
0.0
 10
23.59520867075729
 20
10.082012640225
 30
0.0
 10
24.17729254224127
 20
10.082012640225
 30
0.0
  0
SPLINE
  5
85
330
79
100
AcDbEntity
  8
Ebene 1
 62
     5
420
      255
370
     9
100
AcDbSpline
210
0.0
220
0.0
230
1.0
 70
     9
 71
     3
 72
    17
 73
    13
 74
     0
 42
0.0000000001
 43
0.0000000001
 40
0.0
 40
0.0
 40
0.0
 40
0.0
 40
1.0
 40
1.0
 40
1.0
 40
2.0
 40
2.0
 40
2.0
 40
3.0
 40
3.0
 40
3.0
 40
4.0
 40
4.0
 40
4.0
 40
4.0
 10
35.75193056696263
 20
9.309428445810944
 30
0.0
 10
36.33048590705508
 20
9.309428445810944
 30
0.0
 10
36.80320952872916
 20
8.840233355528393
 30
0.0
 10
36.80320952872916
 20
8.25815217552526
 30
0.0
 10
36.80320952872916
 20
7.676070995522126
 30
0.0
 10
36.33401443844661
 20
7.20687052227788
 30
0.0
 10
35.75193056696263
 20
7.20687052227788
 30
0.0
 10
35.16984669547865
 20
7.20687052227788
 30
0.0
 10
34.7006516051961
 20
7.676060229598734
 30
0.0
 10
34.7006516051961
 20
8.25815217552526
 30
0.0
 10
34.7006516051961
 20
8.840244121451785
 30
0.0
 10
35.16984669547865
 20
9.309428445810944
 30
0.0
 10
35.75193056696263
 20
9.309428445810944
 30
0.0
  0
SPLINE
  5
86
330
79
100
AcDbEntity
  8
Ebene 1
 62
     5
420
      255
370
     9
100
AcDbSpline
210
0.0
220
0.0
230
1.0
 70
     9
 71
     3
 72
    17
 73
    13
 74
     0
 42
0.0000000001
 43
0.0000000001
 40
0.0
 40
0.0
 40
0.0
 40
0.0
 40
1.0
 40
1.0
 40
1.0
 40
2.0
 40
2.0
 40
2.0
 40
3.0
 40
3.0
 40
3.0
 40
4.0
 40
4.0
 40
4.0
 40
4.0
 10
18.34587630766939
 20
17.93484403372892
 30
0.0
 10
18.07071007170845
 20
17.93484403372892
 30
0.0
 10
17.84493250930558
 20
18.15709575622109
 30
0.0
 10
17.84493250930558
 20
18.43578783209272
 30
0.0
 10
17.84493250930558
 20
18.71447990796434
 30
0.0
 10
18.06718288605734
 20
18.93673163045653
 30
0.0
 10
18.34587630766939
 20
18.93673163045653
 30
0.0
 10
18.62456972928144
 20
18.93673163045653
 30
0.0
 10
18.84682010603319
 20
18.71447990796434
 30
0.0
 10
18.84682010603319
 20
18.43578783209272
 30
0.0
 10
18.84682010603319
 20
18.15709575622109
 30
0.0
 10
18.62456972928144
 20
17.93484403372892
 30
0.0
 10
18.34587630766939
 20
17.93484403372892
 30
0.0
  0
SPLINE
  5
87
330
79
100
AcDbEntity
  8
Ebene 1
 62
     5
420
      255
370
     9
100
AcDbSpline
210
0.0
220
0.0
230
1.0
 70
     9
 71
     3
 72
    17
 73
    13
 74
     0
 42
0.0000000001
 43
0.0000000001
 40
0.0
 40
0.0
 40
0.0
 40
0.0
 40
1.0
 40
1.0
 40
1.0
 40
2.0
 40
2.0
 40
2.0
 40
3.0
 40
3.0
 40
3.0
 40
4.0
 40
4.0
 40
4.0
 40
4.0
 10
18.34587630766939
 20
15.93459468018438
 30
0.0
 10
18.07071007170845
 20
15.93459468018438
 30
0.0
 10
17.84493250930558
 20
16.15684640267656
 30
0.0
 10
17.84493250930558
 20
16.43553847854819
 30
0.0
 10
17.84493250930558
 20
16.71423055441981
 30
0.0
 10
18.06718288605734
 20
16.93648227691199
 30
0.0
 10
18.34587630766939
 20
16.93648227691199
 30
0.0
 10
18.62456972928144
 20
16.93648227691199
 30
0.0
 10
18.84682010603319
 20
16.71423055441981
 30
0.0
 10
18.84682010603319
 20
16.43553847854819
 30
0.0
 10
18.84682010603319
 20
16.15684640267656
 30
0.0
 10
18.62456972928144
 20
15.93459468018438
 30
0.0
 10
18.34587630766939
 20
15.93459468018438
 30
0.0
  0
SPLINE
  5
88
330
79
100
AcDbEntity
  8
Ebene 1
 62
     5
420
      255
370
     9
100
AcDbSpline
210
0.0
220
0.0
230
1.0
 70
     9
 71
     3
 72
    17
 73
    13
 74
     0
 42
0.0000000001
 43
0.0000000001
 40
0.0
 40
0.0
 40
0.0
 40
0.0
 40
1.0
 40
1.0
 40
1.0
 40
2.0
 40
2.0
 40
2.0
 40
3.0
 40
3.0
 40
3.0
 40
4.0
 40
4.0
 40
4.0
 40
4.0
 10
18.34587630766939
 20
13.93434532663985
 30
0.0
 10
18.07071007170845
 20
13.93434532663985
 30
0.0
 10
17.84493250930558
 20
14.15659704913203
 30
0.0
 10
17.84493250930558
 20
14.43528912500365
 30
0.0
 10
17.84493250930558
 20
14.71398120087528
 30
0.0
 10
18.06718288605734
 20
14.93623292336746
 30
0.0
 10
18.34587630766939
 20
14.93623292336746
 30
0.0
 10
18.62456972928144
 20
14.93623292336746
 30
0.0
 10
18.84682010603319
 20
14.71398120087528
 30
0.0
 10
18.84682010603319
 20
14.43528912500365
 30
0.0
 10
18.84682010603319
 20
14.15659704913203
 30
0.0
 10
18.62456972928144
 20
13.93434532663985
 30
0.0
 10
18.34587630766939
 20
13.93434532663985
 30
0.0
  0
SPLINE
  5
89
330
79
100
AcDbEntity
  8
Ebene 1
 62
     5
420
      255
370
     9
100
AcDbSpline
210
0.0
220
0.0
230
1.0
 70
     9
 71
     3
 72
    17
 73
    13
 74
     0
 42
0.0000000001
 43
0.0000000001
 40
0.0
 40
0.0
 40
0.0
 40
0.0
 40
1.0
 40
1.0
 40
1.0
 40
2.0
 40
2.0
 40
2.0
 40
3.0
 40
3.0
 40
3.0
 40
4.0
 40
4.0
 40
4.0
 40
4.0
 10
18.34587630766939
 20
11.93409597309531
 30
0.0
 10
18.07071007170845
 20
11.93409597309531
 30
0.0
 10
17.84493250930558
 20
12.15634769558749
 30
0.0
 10
17.84493250930558
 20
12.43503977145912
 30
0.0
 10
17.84493250930558
 20
12.71373184733074
 30
0.0
 10
18.06718288605734
 20
12.93598356982292
 30
0.0
 10
18.34587630766939
 20
12.93598356982292
 30
0.0
 10
18.62456972928144
 20
12.93598356982292
 30
0.0
 10
18.84682010603319
 20
12.71373184733074
 30
0.0
 10
18.84682010603319
 20
12.43503977145912
 30
0.0
 10
18.84682010603319
 20
12.15634769558749
 30
0.0
 10
18.62456972928144
 20
11.93409597309531
 30
0.0
 10
18.34587630766939
 20
11.93409597309531
 30
0.0
  0
SPLINE
  5
8A
330
79
100
AcDbEntity
  8
Ebene 1
 62
     5
420
      255
370
     9
100
AcDbSpline
210
0.0
220
0.0
230
1.0
 70
     9
 71
     3
 72
    17
 73
    13
 74
     0
 42
0.0000000001
 43
0.0000000001
 40
0.0
 40
0.0
 40
0.0
 40
0.0
 40
1.0
 40
1.0
 40
1.0
 40
2.0
 40
2.0
 40
2.0
 40
3.0
 40
3.0
 40
3.0
 40
4.0
 40
4.0
 40
4.0
 40
4.0
 10
18.34587630766939
 20
9.933846619550781
 30
0.0
 10
18.07071007170845
 20
9.933846619550781
 30
0.0
 10
17.84493250930558
 20
10.15609834204296
 30
0.0
 10
17.84493250930558
 20
10.43479041791458
 30
0.0
 10
17.84493250930558
 20
10.71348249378621
 30
0.0
 10
18.06718288605734
 20
10.93573421627839
 30
0.0
 10
18.34587630766939
 20
10.93573421627839
 30
0.0
 10
18.62456972928144
 20
10.93573421627839
 30
0.0
 10
18.84682010603319
 20
10.71348249378621
 30
0.0
 10
18.84682010603319
 20
10.43479041791458
 30
0.0
 10
18.84682010603319
 20
10.15609834204296
 30
0.0
 10
18.62456972928144
 20
9.933846619550781
 30
0.0
 10
18.34587630766939
 20
9.933846619550781
 30
0.0
  0
SPLINE
  5
8B
330
79
100
AcDbEntity
  8
Ebene 1
 62
     5
420
      255
370
     9
100
AcDbSpline
210
0.0
220
0.0
230
1.0
 70
     9
 71
     3
 72
    17
 73
    13
 74
     0
 42
0.0000000001
 43
0.0000000001
 40
0.0
 40
0.0
 40
0.0
 40
0.0
 40
1.0
 40
1.0
 40
1.0
 40
2.0
 40
2.0
 40
2.0
 40
3.0
 40
3.0
 40
3.0
 40
4.0
 40
4.0
 40
4.0
 40
4.0
 10
16.34562695412485
 20
17.93484403372892
 30
0.0
 10
16.07046071816392
 20
17.93484403372892
 30
0.0
 10
15.84468315576105
 20
18.15709575622109
 30
0.0
 10
15.84468315576105
 20
18.43578783209272
 30
0.0
 10
15.84468315576105
 20
18.71447990796434
 30
0.0
 10
16.06693353251281
 20
18.93673163045653
 30
0.0
 10
16.34562695412485
 20
18.93673163045653
 30
0.0
 10
16.6243203757369
 20
18.93673163045653
 30
0.0
 10
16.84657075248866
 20
18.71447990796434
 30
0.0
 10
16.84657075248866
 20
18.43578783209272
 30
0.0
 10
16.84657075248866
 20
18.15709575622109
 30
0.0
 10
16.6243203757369
 20
17.93484403372892
 30
0.0
 10
16.34562695412485
 20
17.93484403372892
 30
0.0
  0
SPLINE
  5
8C
330
79
100
AcDbEntity
  8
Ebene 1
 62
     5
420
      255
370
     9
100
AcDbSpline
210
0.0
220
0.0
230
1.0
 70
     9
 71
     3
 72
    17
 73
    13
 74
     0
 42
0.0000000001
 43
0.0000000001
 40
0.0
 40
0.0
 40
0.0
 40
0.0
 40
1.0
 40
1.0
 40
1.0
 40
2.0
 40
2.0
 40
2.0
 40
3.0
 40
3.0
 40
3.0
 40
4.0
 40
4.0
 40
4.0
 40
4.0
 10
16.34562695412485
 20
15.93459468018438
 30
0.0
 10
16.07046071816392
 20
15.93459468018438
 30
0.0
 10
15.84468315576105
 20
16.15684640267656
 30
0.0
 10
15.84468315576105
 20
16.43553847854819
 30
0.0
 10
15.84468315576105
 20
16.71423055441981
 30
0.0
 10
16.06693353251281
 20
16.93648227691199
 30
0.0
 10
16.34562695412485
 20
16.93648227691199
 30
0.0
 10
16.6243203757369
 20
16.93648227691199
 30
0.0
 10
16.84657075248866
 20
16.71423055441981
 30
0.0
 10
16.84657075248866
 20
16.43553847854819
 30
0.0
 10
16.84657075248866
 20
16.15684640267656
 30
0.0
 10
16.6243203757369
 20
15.93459468018438
 30
0.0
 10
16.34562695412485
 20
15.93459468018438
 30
0.0
  0
SPLINE
  5
8D
330
79
100
AcDbEntity
  8
Ebene 1
 62
     5
420
      255
370
     9
100
AcDbSpline
210
0.0
220
0.0
230
1.0
 70
     9
 71
     3
 72
    17
 73
    13
 74
     0
 42
0.0000000001
 43
0.0000000001
 40
0.0
 40
0.0
 40
0.0
 40
0.0
 40
1.0
 40
1.0
 40
1.0
 40
2.0
 40
2.0
 40
2.0
 40
3.0
 40
3.0
 40
3.0
 40
4.0
 40
4.0
 40
4.0
 40
4.0
 10
16.34562695412485
 20
13.93434532663985
 30
0.0
 10
16.07046071816392
 20
13.93434532663985
 30
0.0
 10
15.84468315576105
 20
14.15659704913203
 30
0.0
 10
15.84468315576105
 20
14.43528912500365
 30
0.0
 10
15.84468315576105
 20
14.71398120087528
 30
0.0
 10
16.06693353251281
 20
14.93623292336746
 30
0.0
 10
16.34562695412485
 20
14.93623292336746
 30
0.0
 10
16.6243203757369
 20
14.93623292336746
 30
0.0
 10
16.84657075248866
 20
14.71398120087528
 30
0.0
 10
16.84657075248866
 20
14.43528912500365
 30
0.0
 10
16.84657075248866
 20
14.15659704913203
 30
0.0
 10
16.6243203757369
 20
13.93434532663985
 30
0.0
 10
16.34562695412485
 20
13.93434532663985
 30
0.0
  0
SPLINE
  5
8E
330
79
100
AcDbEntity
  8
Ebene 1
 62
     5
420
      255
370
     9
100
AcDbSpline
210
0.0
220
0.0
230
1.0
 70
     9
 71
     3
 72
    17
 73
    13
 74
     0
 42
0.0000000001
 43
0.0000000001
 40
0.0
 40
0.0
 40
0.0
 40
0.0
 40
1.0
 40
1.0
 40
1.0
 40
2.0
 40
2.0
 40
2.0
 40
3.0
 40
3.0
 40
3.0
 40
4.0
 40
4.0
 40
4.0
 40
4.0
 10
16.34562695412485
 20
11.93409597309531
 30
0.0
 10
16.07046071816392
 20
11.93409597309531
 30
0.0
 10
15.84468315576105
 20
12.15634769558749
 30
0.0
 10
15.84468315576105
 20
12.43503977145912
 30
0.0
 10
15.84468315576105
 20
12.71373184733074
 30
0.0
 10
16.06693353251281
 20
12.93598356982292
 30
0.0
 10
16.34562695412485
 20
12.93598356982292
 30
0.0
 10
16.6243203757369
 20
12.93598356982292
 30
0.0
 10
16.84657075248866
 20
12.71373184733074
 30
0.0
 10
16.84657075248866
 20
12.43503977145912
 30
0.0
 10
16.84657075248866
 20
12.15634769558749
 30
0.0
 10
16.6243203757369
 20
11.93409597309531
 30
0.0
 10
16.34562695412485
 20
11.93409597309531
 30
0.0
  0
SPLINE
  5
8F
330
79
100
AcDbEntity
  8
Ebene 1
 62
     5
420
      255
370
     9
100
AcDbSpline
210
0.0
220
0.0
230
1.0
 70
     9
 71
     3
 72
    17
 73
    13
 74
     0
 42
0.0000000001
 43
0.0000000001
 40
0.0
 40
0.0
 40
0.0
 40
0.0
 40
1.0
 40
1.0
 40
1.0
 40
2.0
 40
2.0
 40
2.0
 40
3.0
 40
3.0
 40
3.0
 40
4.0
 40
4.0
 40
4.0
 40
4.0
 10
16.34562695412485
 20
9.933846619550781
 30
0.0
 10
16.07046071816392
 20
9.933846619550781
 30
0.0
 10
15.84468315576105
 20
10.15609834204296
 30
0.0
 10
15.84468315576105
 20
10.43479041791458
 30
0.0
 10
15.84468315576105
 20
10.71348249378621
 30
0.0
 10
16.06693353251281
 20
10.93573421627839
 30
0.0
 10
16.34562695412485
 20
10.93573421627839
 30
0.0
 10
16.6243203757369
 20
10.93573421627839
 30
0.0
 10
16.84657075248866
 20
10.71348249378621
 30
0.0
 10
16.84657075248866
 20
10.43479041791458
 30
0.0
 10
16.84657075248866
 20
10.15609834204296
 30
0.0
 10
16.6243203757369
 20
9.933846619550781
 30
0.0
 10
16.34562695412485
 20
9.933846619550781
 30
0.0
  0
SPLINE
  5
90
330
79
100
AcDbEntity
  8
Ebene 1
 62
     5
420
      255
370
     9
100
AcDbSpline
210
0.0
220
0.0
230
1.0
 70
     9
 71
     3
 72
    17
 73
    13
 74
     0
 42
0.0000000001
 43
0.0000000001
 40
0.0
 40
0.0
 40
0.0
 40
0.0
 40
1.0
 40
1.0
 40
1.0
 40
2.0
 40
2.0
 40
2.0
 40
3.0
 40
3.0
 40
3.0
 40
4.0
 40
4.0
 40
4.0
 40
4.0
 10
14.34537760058032
 20
17.93484403372892
 30
0.0
 10
14.07021136461938
 20
17.93484403372892
 30
0.0
 10
13.84443380221652
 20
18.15709575622109
 30
0.0
 10
13.84443380221652
 20
18.43578783209272
 30
0.0
 10
13.84443380221652
 20
18.71447990796434
 30
0.0
 10
14.06668417896827
 20
18.93673163045653
 30
0.0
 10
14.34537760058032
 20
18.93673163045653
 30
0.0
 10
14.62407102219237
 20
18.93673163045653
 30
0.0
 10
14.84632139894413
 20
18.71447990796434
 30
0.0
 10
14.84632139894413
 20
18.43578783209272
 30
0.0
 10
14.84632139894413
 20
18.15709575622109
 30
0.0
 10
14.62407102219237
 20
17.93484403372892
 30
0.0
 10
14.34537760058032
 20
17.93484403372892
 30
0.0
  0
SPLINE
  5
91
330
79
100
AcDbEntity
  8
Ebene 1
 62
     5
420
      255
370
     9
100
AcDbSpline
210
0.0
220
0.0
230
1.0
 70
     9
 71
     3
 72
    17
 73
    13
 74
     0
 42
0.0000000001
 43
0.0000000001
 40
0.0
 40
0.0
 40
0.0
 40
0.0
 40
1.0
 40
1.0
 40
1.0
 40
2.0
 40
2.0
 40
2.0
 40
3.0
 40
3.0
 40
3.0
 40
4.0
 40
4.0
 40
4.0
 40
4.0
 10
14.34537760058032
 20
15.93459468018438
 30
0.0
 10
14.07021136461938
 20
15.93459468018438
 30
0.0
 10
13.84443380221652
 20
16.15684640267656
 30
0.0
 10
13.84443380221652
 20
16.43553847854819
 30
0.0
 10
13.84443380221652
 20
16.71423055441981
 30
0.0
 10
14.06668417896827
 20
16.93648227691199
 30
0.0
 10
14.34537760058032
 20
16.93648227691199
 30
0.0
 10
14.62407102219237
 20
16.93648227691199
 30
0.0
 10
14.84632139894413
 20
16.71423055441981
 30
0.0
 10
14.84632139894413
 20
16.43553847854819
 30
0.0
 10
14.84632139894413
 20
16.15684640267656
 30
0.0
 10
14.62407102219237
 20
15.93459468018438
 30
0.0
 10
14.34537760058032
 20
15.93459468018438
 30
0.0
  0
SPLINE
  5
92
330
79
100
AcDbEntity
  8
Ebene 1
 62
     5
420
      255
370
     9
100
AcDbSpline
210
0.0
220
0.0
230
1.0
 70
     9
 71
     3
 72
    17
 73
    13
 74
     0
 42
0.0000000001
 43
0.0000000001
 40
0.0
 40
0.0
 40
0.0
 40
0.0
 40
1.0
 40
1.0
 40
1.0
 40
2.0
 40
2.0
 40
2.0
 40
3.0
 40
3.0
 40
3.0
 40
4.0
 40
4.0
 40
4.0
 40
4.0
 10
14.34537760058032
 20
13.93434532663985
 30
0.0
 10
14.07021136461938
 20
13.93434532663985
 30
0.0
 10
13.84443380221652
 20
14.15659704913203
 30
0.0
 10
13.84443380221652
 20
14.43528912500365
 30
0.0
 10
13.84443380221652
 20
14.71398120087528
 30
0.0
 10
14.06668417896827
 20
14.93623292336746
 30
0.0
 10
14.34537760058032
 20
14.93623292336746
 30
0.0
 10
14.62407102219237
 20
14.93623292336746
 30
0.0
 10
14.84632139894413
 20
14.71398120087528
 30
0.0
 10
14.84632139894413
 20
14.43528912500365
 30
0.0
 10
14.84632139894413
 20
14.15659704913203
 30
0.0
 10
14.62407102219237
 20
13.93434532663985
 30
0.0
 10
14.34537760058032
 20
13.93434532663985
 30
0.0
  0
SPLINE
  5
93
330
79
100
AcDbEntity
  8
Ebene 1
 62
     5
420
      255
370
     9
100
AcDbSpline
210
0.0
220
0.0
230
1.0
 70
     9
 71
     3
 72
    17
 73
    13
 74
     0
 42
0.0000000001
 43
0.0000000001
 40
0.0
 40
0.0
 40
0.0
 40
0.0
 40
1.0
 40
1.0
 40
1.0
 40
2.0
 40
2.0
 40
2.0
 40
3.0
 40
3.0
 40
3.0
 40
4.0
 40
4.0
 40
4.0
 40
4.0
 10
14.34537760058032
 20
11.93409597309531
 30
0.0
 10
14.07021136461938
 20
11.93409597309531
 30
0.0
 10
13.84443380221652
 20
12.15634769558749
 30
0.0
 10
13.84443380221652
 20
12.43503977145912
 30
0.0
 10
13.84443380221652
 20
12.71373184733074
 30
0.0
 10
14.06668417896827
 20
12.93598356982292
 30
0.0
 10
14.34537760058032
 20
12.93598356982292
 30
0.0
 10
14.62407102219237
 20
12.93598356982292
 30
0.0
 10
14.84632139894413
 20
12.71373184733074
 30
0.0
 10
14.84632139894413
 20
12.43503977145912
 30
0.0
 10
14.84632139894413
 20
12.15634769558749
 30
0.0
 10
14.62407102219237
 20
11.93409597309531
 30
0.0
 10
14.34537760058032
 20
11.93409597309531
 30
0.0
  0
SPLINE
  5
94
330
79
100
AcDbEntity
  8
Ebene 1
 62
     5
420
      255
370
     9
100
AcDbSpline
210
0.0
220
0.0
230
1.0
 70
     9
 71
     3
 72
    17
 73
    13
 74
     0
 42
0.0000000001
 43
0.0000000001
 40
0.0
 40
0.0
 40
0.0
 40
0.0
 40
1.0
 40
1.0
 40
1.0
 40
2.0
 40
2.0
 40
2.0
 40
3.0
 40
3.0
 40
3.0
 40
4.0
 40
4.0
 40
4.0
 40
4.0
 10
14.34537760058032
 20
9.933846619550781
 30
0.0
 10
14.07021136461938
 20
9.933846619550781
 30
0.0
 10
13.84443380221652
 20
10.15609834204296
 30
0.0
 10
13.84443380221652
 20
10.43479041791458
 30
0.0
 10
13.84443380221652
 20
10.71348249378621
 30
0.0
 10
14.06668417896827
 20
10.93573421627839
 30
0.0
 10
14.34537760058032
 20
10.93573421627839
 30
0.0
 10
14.62407102219237
 20
10.93573421627839
 30
0.0
 10
14.84632139894413
 20
10.71348249378621
 30
0.0
 10
14.84632139894413
 20
10.43479041791458
 30
0.0
 10
14.84632139894413
 20
10.15609834204296
 30
0.0
 10
14.62407102219237
 20
9.933846619550781
 30
0.0
 10
14.34537760058032
 20
9.933846619550781
 30
0.0
  0
SPLINE
  5
95
330
79
100
AcDbEntity
  8
Ebene 1
 62
     5
420
      255
370
     9
100
AcDbSpline
210
0.0
220
0.0
230
1.0
 70
     9
 71
     3
 72
    17
 73
    13
 74
     0
 42
0.0000000001
 43
0.0000000001
 40
0.0
 40
0.0
 40
0.0
 40
0.0
 40
1.0
 40
1.0
 40
1.0
 40
2.0
 40
2.0
 40
2.0
 40
3.0
 40
3.0
 40
3.0
 40
4.0
 40
4.0
 40
4.0
 40
4.0
 10
12.34512690129536
 20
17.93484403372892
 30
0.0
 10
12.06996066533442
 20
17.93484403372892
 30
0.0
 10
11.84418310293156
 20
18.15709575622109
 30
0.0
 10
11.84418310293156
 20
18.43578783209272
 30
0.0
 10
11.84418310293156
 20
18.71447990796434
 30
0.0
 10
12.06643347968332
 20
18.93673163045653
 30
0.0
 10
12.34512690129536
 20
18.93673163045653
 30
0.0
 10
12.62382032290741
 20
18.93673163045653
 30
0.0
 10
12.84607069965917
 20
18.71447990796434
 30
0.0
 10
12.84607069965917
 20
18.43578783209272
 30
0.0
 10
12.84607069965917
 20
18.15709575622109
 30
0.0
 10
12.62382032290741
 20
17.93484403372892
 30
0.0
 10
12.34512690129536
 20
17.93484403372892
 30
0.0
  0
SPLINE
  5
96
330
79
100
AcDbEntity
  8
Ebene 1
 62
     5
420
      255
370
     9
100
AcDbSpline
210
0.0
220
0.0
230
1.0
 70
     9
 71
     3
 72
    17
 73
    13
 74
     0
 42
0.0000000001
 43
0.0000000001
 40
0.0
 40
0.0
 40
0.0
 40
0.0
 40
1.0
 40
1.0
 40
1.0
 40
2.0
 40
2.0
 40
2.0
 40
3.0
 40
3.0
 40
3.0
 40
4.0
 40
4.0
 40
4.0
 40
4.0
 10
12.34512690129536
 20
15.93459468018438
 30
0.0
 10
12.06996066533442
 20
15.93459468018438
 30
0.0
 10
11.84418310293156
 20
16.15684640267656
 30
0.0
 10
11.84418310293156
 20
16.43553847854819
 30
0.0
 10
11.84418310293156
 20
16.71423055441981
 30
0.0
 10
12.06643347968332
 20
16.93648227691199
 30
0.0
 10
12.34512690129536
 20
16.93648227691199
 30
0.0
 10
12.62382032290741
 20
16.93648227691199
 30
0.0
 10
12.84607069965917
 20
16.71423055441981
 30
0.0
 10
12.84607069965917
 20
16.43553847854819
 30
0.0
 10
12.84607069965917
 20
16.15684640267656
 30
0.0
 10
12.62382032290741
 20
15.93459468018438
 30
0.0
 10
12.34512690129536
 20
15.93459468018438
 30
0.0
  0
SPLINE
  5
97
330
79
100
AcDbEntity
  8
Ebene 1
 62
     5
420
      255
370
     9
100
AcDbSpline
210
0.0
220
0.0
230
1.0
 70
     9
 71
     3
 72
    17
 73
    13
 74
     0
 42
0.0000000001
 43
0.0000000001
 40
0.0
 40
0.0
 40
0.0
 40
0.0
 40
1.0
 40
1.0
 40
1.0
 40
2.0
 40
2.0
 40
2.0
 40
3.0
 40
3.0
 40
3.0
 40
4.0
 40
4.0
 40
4.0
 40
4.0
 10
12.34512690129536
 20
13.93434532663985
 30
0.0
 10
12.06996066533442
 20
13.93434532663985
 30
0.0
 10
11.84418310293156
 20
14.15659704913203
 30
0.0
 10
11.84418310293156
 20
14.43528912500365
 30
0.0
 10
11.84418310293156
 20
14.71398120087528
 30
0.0
 10
12.06643347968332
 20
14.93623292336746
 30
0.0
 10
12.34512690129536
 20
14.93623292336746
 30
0.0
 10
12.62382032290741
 20
14.93623292336746
 30
0.0
 10
12.84607069965917
 20
14.71398120087528
 30
0.0
 10
12.84607069965917
 20
14.43528912500365
 30
0.0
 10
12.84607069965917
 20
14.15659704913203
 30
0.0
 10
12.62382032290741
 20
13.93434532663985
 30
0.0
 10
12.34512690129536
 20
13.93434532663985
 30
0.0
  0
SPLINE
  5
98
330
79
100
AcDbEntity
  8
Ebene 1
 62
     5
420
      255
370
     9
100
AcDbSpline
210
0.0
220
0.0
230
1.0
 70
     9
 71
     3
 72
    17
 73
    13
 74
     0
 42
0.0000000001
 43
0.0000000001
 40
0.0
 40
0.0
 40
0.0
 40
0.0
 40
1.0
 40
1.0
 40
1.0
 40
2.0
 40
2.0
 40
2.0
 40
3.0
 40
3.0
 40
3.0
 40
4.0
 40
4.0
 40
4.0
 40
4.0
 10
12.34512690129536
 20
11.93409597309531
 30
0.0
 10
12.06996066533442
 20
11.93409597309531
 30
0.0
 10
11.84418310293156
 20
12.15634769558749
 30
0.0
 10
11.84418310293156
 20
12.43503977145912
 30
0.0
 10
11.84418310293156
 20
12.71373184733074
 30
0.0
 10
12.06643347968332
 20
12.93598356982292
 30
0.0
 10
12.34512690129536
 20
12.93598356982292
 30
0.0
 10
12.62382032290741
 20
12.93598356982292
 30
0.0
 10
12.84607069965917
 20
12.71373184733074
 30
0.0
 10
12.84607069965917
 20
12.43503977145912
 30
0.0
 10
12.84607069965917
 20
12.15634769558749
 30
0.0
 10
12.62382032290741
 20
11.93409597309531
 30
0.0
 10
12.34512690129536
 20
11.93409597309531
 30
0.0
  0
SPLINE
  5
99
330
79
100
AcDbEntity
  8
Ebene 1
 62
     5
420
      255
370
     9
100
AcDbSpline
210
0.0
220
0.0
230
1.0
 70
     9
 71
     3
 72
    17
 73
    13
 74
     0
 42
0.0000000001
 43
0.0000000001
 40
0.0
 40
0.0
 40
0.0
 40
0.0
 40
1.0
 40
1.0
 40
1.0
 40
2.0
 40
2.0
 40
2.0
 40
3.0
 40
3.0
 40
3.0
 40
4.0
 40
4.0
 40
4.0
 40
4.0
 10
12.34512690129536
 20
9.933846619550781
 30
0.0
 10
12.06996066533442
 20
9.933846619550781
 30
0.0
 10
11.84418310293156
 20
10.15609834204296
 30
0.0
 10
11.84418310293156
 20
10.43479041791458
 30
0.0
 10
11.84418310293156
 20
10.71348249378621
 30
0.0
 10
12.06643347968332
 20
10.93573421627839
 30
0.0
 10
12.34512690129536
 20
10.93573421627839
 30
0.0
 10
12.62382032290741
 20
10.93573421627839
 30
0.0
 10
12.84607069965917
 20
10.71348249378621
 30
0.0
 10
12.84607069965917
 20
10.43479041791458
 30
0.0
 10
12.84607069965917
 20
10.15609834204296
 30
0.0
 10
12.62382032290741
 20
9.933846619550781
 30
0.0
 10
12.34512690129536
 20
9.933846619550781
 30
0.0
  0
SPLINE
  5
9A
330
79
100
AcDbEntity
  8
Ebene 1
 62
     5
420
      255
370
     9
100
AcDbSpline
210
0.0
220
0.0
230
1.0
 70
     9
 71
     3
 72
    17
 73
    13
 74
     0
 42
0.0000000001
 43
0.0000000001
 40
0.0
 40
0.0
 40
0.0
 40
0.0
 40
1.0
 40
1.0
 40
1.0
 40
2.0
 40
2.0
 40
2.0
 40
3.0
 40
3.0
 40
3.0
 40
4.0
 40
4.0
 40
4.0
 40
4.0
 10
10.34487687488062
 20
17.93484403372892
 30
0.0
 10
10.06970996604946
 20
17.93484403372892
 30
0.0
 10
9.843932403646601
 20
18.15709575622109
 30
0.0
 10
9.843932403646601
 20
18.43578783209272
 30
0.0
 10
9.843932403646601
 20
18.71447990796434
 30
0.0
 10
10.06618210752814
 20
18.93673163045653
 30
0.0
 10
10.34487687488062
 20
18.93673163045653
 30
0.0
 10
10.62357164223309
 20
18.93673163045653
 30
0.0
 10
10.84582134611463
 20
18.71447990796434
 30
0.0
 10
10.84582134611463
 20
18.43578783209272
 30
0.0
 10
10.84582134611463
 20
18.15709575622109
 30
0.0
 10
10.62357164223309
 20
17.93484403372892
 30
0.0
 10
10.34487687488062
 20
17.93484403372892
 30
0.0
  0
SPLINE
  5
9B
330
79
100
AcDbEntity
  8
Ebene 1
 62
     5
420
      255
370
     9
100
AcDbSpline
210
0.0
220
0.0
230
1.0
 70
     9
 71
     3
 72
    17
 73
    13
 74
     0
 42
0.0000000001
 43
0.0000000001
 40
0.0
 40
0.0
 40
0.0
 40
0.0
 40
1.0
 40
1.0
 40
1.0
 40
2.0
 40
2.0
 40
2.0
 40
3.0
 40
3.0
 40
3.0
 40
4.0
 40
4.0
 40
4.0
 40
4.0
 10
10.34487687488062
 20
15.93459468018438
 30
0.0
 10
10.06970996604946
 20
15.93459468018438
 30
0.0
 10
9.843932403646601
 20
16.15684640267656
 30
0.0
 10
9.843932403646601
 20
16.43553847854819
 30
0.0
 10
9.843932403646601
 20
16.71423055441981
 30
0.0
 10
10.06618210752814
 20
16.93648227691199
 30
0.0
 10
10.34487687488062
 20
16.93648227691199
 30
0.0
 10
10.62357164223309
 20
16.93648227691199
 30
0.0
 10
10.84582134611463
 20
16.71423055441981
 30
0.0
 10
10.84582134611463
 20
16.43553847854819
 30
0.0
 10
10.84582134611463
 20
16.15684640267656
 30
0.0
 10
10.62357164223309
 20
15.93459468018438
 30
0.0
 10
10.34487687488062
 20
15.93459468018438
 30
0.0
  0
SPLINE
  5
9C
330
79
100
AcDbEntity
  8
Ebene 1
 62
     5
420
      255
370
     9
100
AcDbSpline
210
0.0
220
0.0
230
1.0
 70
     9
 71
     3
 72
    17
 73
    13
 74
     0
 42
0.0000000001
 43
0.0000000001
 40
0.0
 40
0.0
 40
0.0
 40
0.0
 40
1.0
 40
1.0
 40
1.0
 40
2.0
 40
2.0
 40
2.0
 40
3.0
 40
3.0
 40
3.0
 40
4.0
 40
4.0
 40
4.0
 40
4.0
 10
10.34487687488062
 20
13.93434532663985
 30
0.0
 10
10.06970996604946
 20
13.93434532663985
 30
0.0
 10
9.843932403646601
 20
14.15659704913203
 30
0.0
 10
9.843932403646601
 20
14.43528912500365
 30
0.0
 10
9.843932403646601
 20
14.71398120087528
 30
0.0
 10
10.06618210752814
 20
14.93623292336746
 30
0.0
 10
10.34487687488062
 20
14.93623292336746
 30
0.0
 10
10.62357164223309
 20
14.93623292336746
 30
0.0
 10
10.84582134611463
 20
14.71398120087528
 30
0.0
 10
10.84582134611463
 20
14.43528912500365
 30
0.0
 10
10.84582134611463
 20
14.15659704913203
 30
0.0
 10
10.62357164223309
 20
13.93434532663985
 30
0.0
 10
10.34487687488062
 20
13.93434532663985
 30
0.0
  0
SPLINE
  5
9D
330
79
100
AcDbEntity
  8
Ebene 1
 62
     5
420
      255
370
     9
100
AcDbSpline
210
0.0
220
0.0
230
1.0
 70
     9
 71
     3
 72
    17
 73
    13
 74
     0
 42
0.0000000001
 43
0.0000000001
 40
0.0
 40
0.0
 40
0.0
 40
0.0
 40
1.0
 40
1.0
 40
1.0
 40
2.0
 40
2.0
 40
2.0
 40
3.0
 40
3.0
 40
3.0
 40
4.0
 40
4.0
 40
4.0
 40
4.0
 10
10.34487687488062
 20
11.93409597309531
 30
0.0
 10
10.06970996604946
 20
11.93409597309531
 30
0.0
 10
9.843932403646601
 20
12.15634769558749
 30
0.0
 10
9.843932403646601
 20
12.43503977145912
 30
0.0
 10
9.843932403646601
 20
12.71373184733074
 30
0.0
 10
10.06618210752814
 20
12.93598356982292
 30
0.0
 10
10.34487687488062
 20
12.93598356982292
 30
0.0
 10
10.62357164223309
 20
12.93598356982292
 30
0.0
 10
10.84582134611463
 20
12.71373184733074
 30
0.0
 10
10.84582134611463
 20
12.43503977145912
 30
0.0
 10
10.84582134611463
 20
12.15634769558749
 30
0.0
 10
10.62357164223309
 20
11.93409597309531
 30
0.0
 10
10.34487687488062
 20
11.93409597309531
 30
0.0
  0
SPLINE
  5
9E
330
79
100
AcDbEntity
  8
Ebene 1
 62
     5
420
      255
370
     9
100
AcDbSpline
210
0.0
220
0.0
230
1.0
 70
     9
 71
     3
 72
    17
 73
    13
 74
     0
 42
0.0000000001
 43
0.0000000001
 40
0.0
 40
0.0
 40
0.0
 40
0.0
 40
1.0
 40
1.0
 40
1.0
 40
2.0
 40
2.0
 40
2.0
 40
3.0
 40
3.0
 40
3.0
 40
4.0
 40
4.0
 40
4.0
 40
4.0
 10
10.34487687488062
 20
9.933846619550781
 30
0.0
 10
10.06970996604946
 20
9.933846619550781
 30
0.0
 10
9.843932403646601
 20
10.15609834204296
 30
0.0
 10
9.843932403646601
 20
10.43479041791458
 30
0.0
 10
9.843932403646601
 20
10.71348249378621
 30
0.0
 10
10.06618210752814
 20
10.93573421627839
 30
0.0
 10
10.34487687488062
 20
10.93573421627839
 30
0.0
 10
10.62357164223309
 20
10.93573421627839
 30
0.0
 10
10.84582134611463
 20
10.71348249378621
 30
0.0
 10
10.84582134611463
 20
10.43479041791458
 30
0.0
 10
10.84582134611463
 20
10.15609834204296
 30
0.0
 10
10.62357164223309
 20
9.933846619550781
 30
0.0
 10
10.34487687488062
 20
9.933846619550781
 30
0.0
  0
SPLINE
  5
9F
330
79
100
AcDbEntity
  8
Ebene 1
 62
     5
420
      255
370
     9
100
AcDbSpline
210
0.0
220
0.0
230
1.0
 70
    11
 71
     3
 72
    44
 73
    40
 74
     0
 42
0.0000000001
 43
0.0000000001
 40
0.0
 40
0.0
 40
0.0
 40
0.0
 40
1.0
 40
1.0
 40
1.0
 40
2.0
 40
2.0
 40
2.0
 40
3.0
 40
3.0
 40
3.0
 40
4.0
 40
4.0
 40
4.0
 40
5.0
 40
5.0
 40
5.0
 40
6.0
 40
6.0
 40
6.0
 40
7.0
 40
7.0
 40
7.0
 40
8.0
 40
8.0
 40
8.0
 40
9.0
 40
9.0
 40
9.0
 40
10.0
 40
10.0
 40
10.0
 40
11.0
 40
11.0
 40
11.0
 40
12.0
 40
12.0
 40
12.0
 40
13.0
 40
13.0
 40
13.0
 40
13.0
 10
21.30921017855806
 20
13.61331625703152
 30
0.0
 10
21.30921017855806
 20
13.61331625703152
 30
0.0
 10
21.93009847516594
 20
22.48920643561225
 30
0.0
 10
21.93009847516594
 20
22.48920643561225
 30
0.0
 10
21.93009847516594
 20
22.48920643561225
 30
0.0
 10
4.77451510574929
 20
22.48920643561225
 30
0.0
 10
4.77451510574929
 20
22.48920643561225
 30
0.0
 10
4.77451510574929
 20
22.48920643561225
 30
0.0
 10
4.77451510574929
 20
12.54087418135833
 30
0.0
 10
4.77451510574929
 20
12.54087418135833
 30
0.0
 10
4.77451510574929
 20
12.54087418135833
 30
0.0
 10
7.025237367781044
 20
12.54087418135833
 30
0.0
 10
7.025237367781044
 20
12.54087418135833
 30
0.0
 10
7.413293057813628
 20
12.54087418135833
 30
0.0
 10
7.723737206117569
 20
12.22690217453307
 30
0.0
 10
7.723737206117569
 20
11.84237568876223
 30
0.0
 10
7.723737206117569
 20
11.84237568876223
 30
0.0
 10
7.748431542896605
 20
5.340683829764826
 30
0.0
 10
7.748431542896605
 20
5.340683829764826
 30
0.0
 10
7.748431542896605
 20
5.340683829764826
 30
0.0
 10
23.72926325734622
 20
5.340683829764826
 30
0.0
 10
23.72926325734622
 20
5.340683829764826
 30
0.0
 10
23.72926325734622
 20
5.340683829764826
 30
0.0
 10
38.82109615626966
 20
4.282350496696077
 30
0.0
 10
38.82109615626966
 20
4.282350496696077
 30
0.0
 10
38.82109615626966
 20
4.282350496696077
 30
0.0
 10
40.15459572529935
 20
11.59543232097186
 30
0.0
 10
40.15459572529935
 20
11.59543232097186
 30
0.0
 10
40.15459572529935
 20
11.59543232097186
 30
0.0
 10
21.95831730611524
 20
12.86896031374973
 30
0.0
 10
21.95831730611524
 20
12.86896031374973
 30
0.0
 10
21.57378947460398
 20
12.8971831819203
 30
0.0
 10
21.28098461890664
 20
13.22879515422238
 30
0.0
 10
21.30920614133679
 20
13.6168474799039
 30
0.0
 10
21.30920614133679
 20
13.6168474799039
 30
0.0
 10
21.30920614133679
 20
13.6168474799039
 30
0.0
 10
21.30920614133679
 20
13.6168474799039
 30
0.0
 10
21.30920614133679
 20
13.6168474799039
 30
0.0
 10
21.30921017855806
 20
13.61331625703152
 30
0.0
 10
21.30921017855806
 20
13.61331625703152
 30
0.0
  0
SPLINE
  5
A0
330
79
100
AcDbEntity
  8
Ebene 1
 62
     5
420
      255
370
     9
100
AcDbSpline
210
0.0
220
0.0
230
1.0
 70
     9
 71
     3
 72
    20
 73
    16
 74
     0
 42
0.0000000001
 43
0.0000000001
 40
0.0
 40
0.0
 40
0.0
 40
0.0
 40
1.0
 40
1.0
 40
1.0
 40
2.0
 40
2.0
 40
2.0
 40
3.0
 40
3.0
 40
3.0
 40
4.0
 40
4.0
 40
4.0
 40
5.0
 40
5.0
 40
5.0
 40
5.0
 10
179.0396745022236
 20
69.52859671231133
 30
0.0
 10
179.0396745022236
 20
70.10715205240377
 30
0.0
 10
179.5088642095444
 20
70.57987567407787
 30
0.0
 10
180.0909561554709
 20
70.57987567407787
 30
0.0
 10
180.6730481013975
 20
70.57987567407787
 30
0.0
 10
181.1422270427949
 20
70.11068058379532
 30
0.0
 10
181.1422270427949
 20
69.52859671231133
 30
0.0
 10
181.1422270427949
 20
68.94651284082735
 30
0.0
 10
180.6730265695507
 20
68.4773177505448
 30
0.0
 10
180.0909453895476
 20
68.4773177505448
 30
0.0
 10
179.5088642095444
 20
68.4773177505448
 30
0.0
 10
179.0396637363002
 20
68.94651284082735
 30
0.0
 10
179.0396637363002
 20
69.52859671231133
 30
0.0
 10
179.0396637363002
 20
69.52859671231133
 30
0.0
 10
179.0396745022236
 20
69.52859671231133
 30
0.0
 10
179.0396745022236
 20
69.52859671231133
 30
0.0
  0
SPLINE
  5
A1
330
79
100
AcDbEntity
  8
Ebene 1
 62
     5
420
      255
370
     9
100
AcDbSpline
210
0.0
220
0.0
230
1.0
 70
     9
 71
     3
 72
    17
 73
    13
 74
     0
 42
0.0000000001
 43
0.0000000001
 40
0.0
 40
0.0
 40
0.0
 40
0.0
 40
1.0
 40
1.0
 40
1.0
 40
2.0
 40
2.0
 40
2.0
 40
3.0
 40
3.0
 40
3.0
 40
4.0
 40
4.0
 40
4.0
 40
4.0
 10
180.0486137787726
 20
84.36995771205287
 30
0.0
 10
180.0486137787726
 20
84.94851305214531
 30
0.0
 10
180.5178034860934
 20
85.42123532807897
 30
0.0
 10
181.0998954320199
 20
85.42123532807897
 30
0.0
 10
181.6819873779465
 20
85.42123532807897
 30
0.0
 10
182.1511663193439
 20
84.95204023779642
 30
0.0
 10
182.1511663193439
 20
84.36995771205287
 30
0.0
 10
182.1511663193439
 20
83.78787518630931
 30
0.0
 10
181.6819658460997
 20
83.31868009602677
 30
0.0
 10
181.0998954320199
 20
83.31868009602677
 30
0.0
 10
180.5178250179402
 20
83.31868009602677
 30
0.0
 10
180.0486137787726
 20
83.78787518630931
 30
0.0
 10
180.0486137787726
 20
84.36995771205287
 30
0.0
  0
SPLINE
  5
A2
330
79
100
AcDbEntity
  8
Ebene 1
 62
     5
420
      255
370
     9
100
AcDbSpline
210
0.0
220
0.0
230
1.0
 70
    11
 71
     3
 72
    44
 73
    40
 74
     0
 42
0.0000000001
 43
0.0000000001
 40
0.0
 40
0.0
 40
0.0
 40
0.0
 40
1.0
 40
1.0
 40
1.0
 40
2.0
 40
2.0
 40
2.0
 40
3.0
 40
3.0
 40
3.0
 40
4.0
 40
4.0
 40
4.0
 40
5.0
 40
5.0
 40
5.0
 40
6.0
 40
6.0
 40
6.0
 40
7.0
 40
7.0
 40
7.0
 40
8.0
 40
8.0
 40
8.0
 40
9.0
 40
9.0
 40
9.0
 40
10.0
 40
10.0
 40
10.0
 40
11.0
 40
11.0
 40
11.0
 40
12.0
 40
12.0
 40
12.0
 40
13.0
 40
13.0
 40
13.0
 40
13.0
 10
183.6998659310444
 20
48.86640238069166
 30
0.0
 10
183.6998659310444
 20
48.86640238069166
 30
0.0
 10
183.6998659310444
 20
88.87492942176749
 30
0.0
 10
183.6998659310444
 20
88.87492942176749
 30
0.0
 10
183.6998659310444
 20
88.87492942176749
 30
0.0
 10
178.1048155445309
 20
88.88551299733144
 30
0.0
 10
178.1048155445309
 20
88.88551299733144
 30
0.0
 10
178.1048155445309
 20
88.88551299733144
 30
0.0
 10
176.5314296704939
 20
66.3818168897948
 30
0.0
 10
176.5314296704939
 20
66.3818168897948
 30
0.0
 10
176.5314296704939
 20
66.3818168897948
 30
0.0
 10
176.5314296704939
 20
66.3818168897948
 30
0.0
 10
176.5314296704939
 20
66.3818168897948
 30
0.0
 10
176.5314296704939
 20
66.3818168897948
 30
0.0
 10
147.9952408314636
 20
68.3573719065603
 30
0.0
 10
147.9952408314636
 20
68.3573719065603
 30
0.0
 10
147.2720506935693
 20
68.40676058011837
 30
0.0
 10
147.1450450953209
 20
67.34842724704963
 30
0.0
 10
147.8576523305215
 20
67.22495556315443
 30
0.0
 10
147.8576523305215
 20
67.22495556315443
 30
0.0
 10
163.7679322575064
 20
64.43448204971902
 30
0.0
 10
163.7679322575064
 20
64.43448204971902
 30
0.0
 10
164.1489275204048
 20
64.36745341068413
 30
0.0
 10
164.4029279509782
 20
64.0040927303008
 30
0.0
 10
164.3358993119433
 20
63.62309208444065
 30
0.0
 10
164.3358993119433
 20
63.62309208444065
 30
0.0
 10
161.6124544375428
 20
48.16789850513387
 30
0.0
 10
161.6124544375428
 20
48.16789850513387
 30
0.0
 10
161.6124544375428
 20
48.16789850513387
 30
0.0
 10
183.00137282141
 20
48.16789850513387
 30
0.0
 10
183.00137282141
 20
48.16789850513387
 30
0.0
 10
183.3894197641298
 20
48.16789850513387
 30
0.0
 10
183.6998659310444
 20
48.48187051195913
 30
0.0
 10
183.6998659310444
 20
48.86639699772997
 30
0.0
 10
183.6998659310444
 20
48.86639699772997
 30
0.0
 10
183.6998659310444
 20
48.86639699772997
 30
0.0
 10
183.6998659310444
 20
48.86639699772997
 30
0.0
 10
183.6998659310444
 20
48.86639699772997
 30
0.0
 10
183.6998659310444
 20
48.86640238069166
 30
0.0
 10
183.6998659310444
 20
48.86640238069166
 30
0.0
  0
SPLINE
  5
A3
330
79
100
AcDbEntity
  8
Ebene 1
 62
     5
420
      255
370
     9
100
AcDbSpline
210
0.0
220
0.0
230
1.0
 70
    11
 71
     3
 72
    17
 73
    13
 74
     0
 42
0.0000000001
 43
0.0000000001
 40
0.0
 40
0.0
 40
0.0
 40
0.0
 40
1.0
 40
1.0
 40
1.0
 40
2.0
 40
2.0
 40
2.0
 40
3.0
 40
3.0
 40
3.0
 40
4.0
 40
4.0
 40
4.0
 40
4.0
 10
5.9492654149759
 20
41.52862352815599
 30
0.0
 10
5.9492654149759
 20
48.2913728805099
 30
0.0
 10
11.43495958890083
 20
53.77706840017527
 30
0.0
 10
18.19771028699516
 20
53.77706840017527
 30
0.0
 10
24.96045963934908
 20
53.77706840017527
 30
0.0
 10
30.44615515901444
 20
48.2913728805099
 30
0.0
 10
30.44615515901444
 20
41.52862352815599
 30
0.0
 10
30.44615515901444
 20
34.76587417580208
 30
0.0
 10
24.96398817074061
 20
29.28017865613673
 30
0.0
 10
18.19771028699516
 20
29.28017865613673
 30
0.0
 10
11.43143240324973
 20
29.28017865613673
 30
0.0
 10
5.9492654149759
 20
34.76587417580208
 30
0.0
 10
5.9492654149759
 20
41.52862352815599
 30
0.0
  0
SPLINE
  5
A4
330
79
100
AcDbEntity
  8
Ebene 1
 62
     5
420
      255
370
     9
100
AcDbSpline
210
0.0
220
0.0
230
1.0
 70
     9
 71
     3
 72
    17
 73
    13
 74
     0
 42
0.0000000001
 43
0.0000000001
 40
0.0
 40
0.0
 40
0.0
 40
0.0
 40
1.0
 40
1.0
 40
1.0
 40
2.0
 40
2.0
 40
2.0
 40
3.0
 40
3.0
 40
3.0
 40
4.0
 40
4.0
 40
4.0
 40
4.0
 10
3.448070917327137
 20
41.52862352815599
 30
0.0
 10
3.448070917327137
 20
33.38298593321432
 30
0.0
 10
10.05207067344286
 20
26.77898550422839
 30
0.0
 10
18.19771028699516
 20
26.77898550422839
 30
0.0
 10
26.34335057341769
 20
26.77898550422839
 30
0.0
 10
32.94734831092278
 20
33.38298593321432
 30
0.0
 10
32.94734831092278
 20
41.52862352815599
 30
0.0
 10
32.94734831092278
 20
49.67426112309766
 30
0.0
 10
26.34334788193684
 20
56.2782615520836
 30
0.0
 10
18.19770894125474
 20
56.2782615520836
 30
0.0
 10
10.05207000057265
 20
56.2782615520836
 30
0.0
 10
3.448069571586713
 20
49.67426112309766
 30
0.0
 10
3.448070917327137
 20
41.52862352815599
 30
0.0
  0
SPLINE
  5
A5
330
79
100
AcDbEntity
  8
Ebene 1
 62
     5
420
      255
370
     9
100
AcDbSpline
210
0.0
220
0.0
230
1.0
 70
     9
 71
     3
 72
    17
 73
    13
 74
     0
 42
0.0000000001
 43
0.0000000001
 40
0.0
 40
0.0
 40
0.0
 40
0.0
 40
1.0
 40
1.0
 40
1.0
 40
2.0
 40
2.0
 40
2.0
 40
3.0
 40
3.0
 40
3.0
 40
4.0
 40
4.0
 40
4.0
 40
4.0
 10
45.10054167573659
 20
94.24067943388346
 30
0.0
 10
45.10054167573659
 20
94.82276263249721
 30
0.0
 10
45.56973676601913
 20
95.29195738634467
 30
0.0
 10
46.15181794602227
 20
95.29195738634467
 30
0.0
 10
46.7338991260254
 20
95.29195738634467
 30
0.0
 10
47.20309421630795
 20
94.82276296893232
 30
0.0
 10
47.20309421630795
 20
94.24067977031857
 30
0.0
 10
47.20309421630795
 20
93.6585965717048
 30
0.0
 10
46.73037328611472
 20
93.18940215429245
 30
0.0
 10
46.15181794602227
 20
93.18940215429245
 30
0.0
 10
45.57326260592982
 20
93.18940215429245
 30
0.0
 10
45.10053898425574
 20
93.6585965717048
 30
0.0
 10
45.10054167573659
 20
94.24067943388346
 30
0.0
  0
SPLINE
  5
A6
330
79
100
AcDbEntity
  8
Ebene 1
 62
     5
420
      255
370
     9
100
AcDbSpline
210
0.0
220
0.0
230
1.0
 70
    11
 71
     3
 72
    17
 73
    13
 74
     0
 42
0.0000000001
 43
0.0000000001
 40
0.0
 40
0.0
 40
0.0
 40
0.0
 40
1.0
 40
1.0
 40
1.0
 40
2.0
 40
2.0
 40
2.0
 40
3.0
 40
3.0
 40
3.0
 40
4.0
 40
4.0
 40
4.0
 40
4.0
 10
83.62034808293605
 20
36.08879622509972
 30
0.0
 10
83.62034808293605
 20
42.85154557745363
 30
0.0
 10
89.10604360260142
 20
48.33724109711899
 30
0.0
 10
95.86879295495533
 20
48.33724109711899
 30
0.0
 10
102.6315369243475
 20
48.33724109711899
 30
0.0
 10
108.1172378269746
 20
42.85154557745363
 30
0.0
 10
108.1172378269746
 20
36.08879622509972
 30
0.0
 10
108.1172378269746
 20
29.32604687274581
 30
0.0
 10
102.6350681472199
 20
23.84035135308045
 30
0.0
 10
95.86879295495533
 20
23.84035135308045
 30
0.0
 10
89.10251776269074
 20
23.84035135308045
 30
0.0
 10
83.62034808293605
 20
29.32604687274581
 30
0.0
 10
83.62034808293605
 20
36.08879622509972
 30
0.0
  0
SPLINE
  5
A7
330
79
100
AcDbEntity
  8
Ebene 1
 62
     5
420
      255
370
     9
100
AcDbSpline
210
0.0
220
0.0
230
1.0
 70
    11
 71
     3
 72
    17
 73
    13
 74
     0
 42
0.0000000001
 43
0.0000000001
 40
0.0
 40
0.0
 40
0.0
 40
0.0
 40
1.0
 40
1.0
 40
1.0
 40
2.0
 40
2.0
 40
2.0
 40
3.0
 40
3.0
 40
3.0
 40
4.0
 40
4.0
 40
4.0
 40
4.0
 10
107.1717959665881
 20
14.86568382738358
 30
0.0
 10
107.1717959665881
 20
15.44776500738671
 30
0.0
 10
107.640985673909
 20
15.91696009766926
 30
0.0
 10
108.2230776198355
 20
15.91696009766926
 30
0.0
 10
108.805169565762
 20
15.91696009766926
 30
0.0
 10
109.2743592730829
 20
15.44776500738671
 30
0.0
 10
109.2743592730829
 20
14.86568382738358
 30
0.0
 10
109.2743592730829
 20
14.28360264738044
 30
0.0
 10
108.8016383428896
 20
13.81440755709789
 30
0.0
 10
108.2230776198355
 20
13.81440755709789
 30
0.0
 10
107.6445168967813
 20
13.81440755709789
 30
0.0
 10
107.1717959665881
 20
14.28360264738044
 30
0.0
 10
107.1717959665881
 20
14.86568382738358
 30
0.0
  0
SPLINE
  5
A8
330
79
100
AcDbEntity
  8
Ebene 1
 62
     5
420
      255
370
     9
100
AcDbSpline
210
0.0
220
0.0
230
1.0
 70
    11
 71
     3
 72
    17
 73
    13
 74
     0
 42
0.0000000001
 43
0.0000000001
 40
0.0
 40
0.0
 40
0.0
 40
0.0
 40
1.0
 40
1.0
 40
1.0
 40
2.0
 40
2.0
 40
2.0
 40
3.0
 40
3.0
 40
3.0
 40
4.0
 40
4.0
 40
4.0
 40
4.0
 10
109.2743485071595
 20
94.29359630239796
 30
0.0
 10
109.2743485071595
 20
93.71151310378419
 30
0.0
 10
108.8051587998386
 20
93.24231868637184
 30
0.0
 10
108.2230668539121
 20
93.24231868637184
 30
0.0
 10
107.6409749079856
 20
93.24231868637184
 30
0.0
 10
107.1717852006647
 20
93.71151310378419
 30
0.0
 10
107.1717852006647
 20
94.29359630239796
 30
0.0
 10
107.1717852006647
 20
94.87567950101173
 30
0.0
 10
107.644506130858
 20
95.34487391842406
 30
0.0
 10
108.2230668539121
 20
95.34487391842406
 30
0.0
 10
108.8016275769662
 20
95.34487391842406
 30
0.0
 10
109.2743485071595
 20
94.87567950101173
 30
0.0
 10
109.2743485071595
 20
94.29359630239796
 30
0.0
  0
SPLINE
  5
A9
330
79
100
AcDbEntity
  8
Ebene 1
 62
     5
420
      255
370
     9
100
AcDbSpline
210
0.0
220
0.0
230
1.0
 70
    11
 71
     3
 72
    59
 73
    55
 74
     0
 42
0.0000000001
 43
0.0000000001
 40
0.0
 40
0.0
 40
0.0
 40
0.0
 40
1.0
 40
1.0
 40
1.0
 40
2.0
 40
2.0
 40
2.0
 40
3.0
 40
3.0
 40
3.0
 40
4.0
 40
4.0
 40
4.0
 40
5.0
 40
5.0
 40
5.0
 40
6.0
 40
6.0
 40
6.0
 40
7.0
 40
7.0
 40
7.0
 40
8.0
 40
8.0
 40
8.0
 40
9.0
 40
9.0
 40
9.0
 40
10.0
 40
10.0
 40
10.0
 40
11.0
 40
11.0
 40
11.0
 40
12.0
 40
12.0
 40
12.0
 40
13.0
 40
13.0
 40
13.0
 40
14.0
 40
14.0
 40
14.0
 40
15.0
 40
15.0
 40
15.0
 40
16.0
 40
16.0
 40
16.0
 40
17.0
 40
17.0
 40
17.0
 40
18.0
 40
18.0
 40
18.0
 40
18.0
 10
110.1280754661746
 20
96.88651276655534
 30
0.0
 10
110.1280754661746
 20
96.88651276655534
 30
0.0
 10
42.91684906204504
 20
96.88651276655534
 30
0.0
 10
42.91684906204504
 20
96.88651276655534
 30
0.0
 10
42.91684906204504
 20
96.88651276655534
 30
0.0
 10
42.90273762795975
 20
91.9158741615146
 30
0.0
 10
42.90273762795975
 20
91.9158741615146
 30
0.0
 10
42.90273762795975
 20
91.9158741615146
 30
0.0
 10
61.22601626243058
 20
91.9158741615146
 30
0.0
 10
61.22601626243058
 20
91.9158741615146
 30
0.0
 10
61.61054274820142
 20
91.9158741615146
 30
0.0
 10
61.92451475502668
 20
91.60543001321064
 30
0.0
 10
61.92451475502668
 20
91.21737432317805
 30
0.0
 10
61.92451475502668
 20
91.21737432317805
 30
0.0
 10
61.92451475502668
 20
88.90315228993806
 30
0.0
 10
61.92451475502668
 20
88.90315228993806
 30
0.0
 10
61.92451475502668
 20
88.90315228993806
 30
0.0
 10
80.21957052132695
 20
88.90315228993806
 30
0.0
 10
80.21957052132695
 20
88.90315228993806
 30
0.0
 10
80.60409700709779
 20
88.90315228993806
 30
0.0
 10
80.91806901392304
 20
88.59270814163412
 30
0.0
 10
80.91806901392304
 20
88.20465177873131
 30
0.0
 10
80.91806901392304
 20
88.20465177873131
 30
0.0
 10
80.94629188209362
 20
25.75592671915158
 30
0.0
 10
80.94629188209362
 20
25.75592671915158
 30
0.0
 10
85.5535687974457
 20
23.98145492800991
 30
0.0
 10
90.14320574732098
 20
21.79423378292683
 30
0.0
 10
94.51764803748714
 20
19.2683436027586
 30
0.0
 10
94.51764803748714
 20
19.2683436027586
 30
0.0
 10
103.0054805074246
 20
14.36826048596876
 30
0.0
 10
103.0054805074246
 20
14.36826048596876
 30
0.0
 10
103.3406237025991
 20
14.17423163164715
 30
0.0
 10
103.4570356322303
 20
13.7473735351013
 30
0.0
 10
103.2630121608704
 20
13.41223033992684
 30
0.0
 10
103.2630121608704
 20
13.41223033992684
 30
0.0
 10
95.55128434229599
 20
0.0490063984976853
 30
0.0
 10
95.55128434229599
 20
0.0490063984976853
 30
0.0
 10
95.55128434229599
 20
0.0490063984976853
 30
0.0
 10
110.1280647002512
 20
0.0490063984976853
 30
0.0
 10
110.1280647002512
 20
0.0490063984976853
 30
0.0
 10
110.512591186022
 20
0.0490063984976853
 30
0.0
 10
110.826568575809
 20
0.3594525654122612
 30
0.0
 10
110.826568575809
 20
0.7475102740554812
 30
0.0
 10
110.826568575809
 20
0.7475102740554812
 30
0.0
 10
110.826568575809
 20
96.18448506969748
 30
0.0
 10
110.826568575809
 20
96.18448506969748
 30
0.0
 10
110.826568575809
 20
96.56901290120876
 30
0.0
 10
110.5161224088944
 20
96.88298507625155
 30
0.0
 10
110.1280647002512
 20
96.88298507625155
 30
0.0
 10
110.1280647002512
 20
96.88298507625155
 30
0.0
 10
110.1280647002512
 20
96.88298507625155
 30
0.0
 10
110.1280647002512
 20
96.88298507625155
 30
0.0
 10
110.1280647002512
 20
96.88298507625155
 30
0.0
 10
110.1280754661746
 20
96.88651276655534
 30
0.0
 10
110.1280754661746
 20
96.88651276655534
 30
0.0
  0
SPLINE
  5
AA
330
79
100
AcDbEntity
  8
Ebene 1
 62
     5
420
      255
370
     9
100
AcDbSpline
210
0.0
220
0.0
230
1.0
 70
    11
 71
     3
 72
    17
 73
    13
 74
     0
 42
0.0000000001
 43
0.0000000001
 40
0.0
 40
0.0
 40
0.0
 40
0.0
 40
1.0
 40
1.0
 40
1.0
 40
2.0
 40
2.0
 40
2.0
 40
3.0
 40
3.0
 40
3.0
 40
4.0
 40
4.0
 40
4.0
 40
4.0
 10
41.05418013500012
 20
75.56813977788586
 30
0.0
 10
41.05418013500012
 20
74.98605590640188
 30
0.0
 10
40.58498504471757
 20
74.51686081611933
 30
0.0
 10
40.00290117323359
 20
74.51686081611933
 30
0.0
 10
39.42081730174962
 20
74.51686081611933
 30
0.0
 10
38.95162221146707
 20
74.98605590640188
 30
0.0
 10
38.95162221146707
 20
75.56813977788586
 30
0.0
 10
38.95162221146707
 20
76.15022364936985
 30
0.0
 10
39.4243431416603
 20
76.61941873965239
 30
0.0
 10
40.00290117323359
 20
76.61941873965239
 30
0.0
 10
40.58145920480689
 20
76.61941873965239
 30
0.0
 10
41.05418013500012
 20
76.15022364936985
 30
0.0
 10
41.05418013500012
 20
75.56813977788586
 30
0.0
  0
SPLINE
  5
AB
330
79
100
AcDbEntity
  8
Ebene 1
 62
     5
420
      255
370
     9
100
AcDbSpline
210
0.0
220
0.0
230
1.0
 70
    11
 71
     3
 72
    17
 73
    13
 74
     0
 42
0.0000000001
 43
0.0000000001
 40
0.0
 40
0.0
 40
0.0
 40
0.0
 40
1.0
 40
1.0
 40
1.0
 40
2.0
 40
2.0
 40
2.0
 40
3.0
 40
3.0
 40
3.0
 40
4.0
 40
4.0
 40
4.0
 40
4.0
 10
29.47954211027877
 20
74.79555558347181
 30
0.0
 10
29.47954211027877
 20
74.21347171198782
 30
0.0
 10
29.01034701999622
 20
73.74427662170527
 30
0.0
 10
28.42826314851224
 20
73.74427662170527
 30
0.0
 10
27.84617927702826
 20
73.74427662170527
 30
0.0
 10
27.37698418674571
 20
74.21347171198782
 30
0.0
 10
27.37698418674571
 20
74.79555558347181
 30
0.0
 10
27.37698418674571
 20
75.37763945495578
 30
0.0
 10
27.84970511693894
 20
75.84683454523833
 30
0.0
 10
28.42826314851224
 20
75.84683454523833
 30
0.0
 10
29.00682118008554
 20
75.84683454523833
 30
0.0
 10
29.47954211027877
 20
75.37763945495578
 30
0.0
 10
29.47954211027877
 20
74.79555558347181
 30
0.0
  0
SPLINE
  5
AC
330
79
100
AcDbEntity
  8
Ebene 1
 62
     5
420
      255
370
     9
100
AcDbSpline
210
0.0
220
0.0
230
1.0
 70
     9
 71
     3
 72
    17
 73
    13
 74
     0
 42
0.0000000001
 43
0.0000000001
 40
0.0
 40
0.0
 40
0.0
 40
0.0
 40
1.0
 40
1.0
 40
1.0
 40
2.0
 40
2.0
 40
2.0
 40
3.0
 40
3.0
 40
3.0
 40
4.0
 40
4.0
 40
4.0
 40
4.0
 10
45.33337630092251
 20
84.97319393152011
 30
0.0
 10
45.33337630092251
 20
85.25188869887259
 30
0.0
 10
45.55562802341469
 20
85.47413772988392
 30
0.0
 10
45.83432009928632
 20
85.47413772988392
 30
0.0
 10
46.11301217515794
 20
85.47413772988392
 30
0.0
 10
46.33526389765012
 20
85.25188735313216
 30
0.0
 10
46.33526389765012
 20
84.97319393152011
 30
0.0
 10
46.33526389765012
 20
84.69450050990806
 30
0.0
 10
46.10948633524726
 20
84.4722501331563
 30
0.0
 10
45.83432009928632
 20
84.4722501331563
 30
0.0
 10
45.55915386332539
 20
84.4722501331563
 30
0.0
 10
45.33337630092251
 20
84.69450050990806
 30
0.0
 10
45.33337630092251
 20
84.97319393152011
 30
0.0
  0
SPLINE
  5
AD
330
79
100
AcDbEntity
  8
Ebene 1
 62
     5
420
      255
370
     9
100
AcDbSpline
210
0.0
220
0.0
230
1.0
 70
     9
 71
     3
 72
    17
 73
    13
 74
     0
 42
0.0000000001
 43
0.0000000001
 40
0.0
 40
0.0
 40
0.0
 40
0.0
 40
1.0
 40
1.0
 40
1.0
 40
2.0
 40
2.0
 40
2.0
 40
3.0
 40
3.0
 40
3.0
 40
4.0
 40
4.0
 40
4.0
 40
4.0
 10
45.33337630092251
 20
82.97294457797558
 30
0.0
 10
45.33337630092251
 20
83.25163934532806
 30
0.0
 10
45.55562802341469
 20
83.47388837633939
 30
0.0
 10
45.83432009928632
 20
83.47388837633939
 30
0.0
 10
46.11301217515794
 20
83.47388837633939
 30
0.0
 10
46.33526389765012
 20
83.25163799958763
 30
0.0
 10
46.33526389765012
 20
82.97294457797558
 30
0.0
 10
46.33526389765012
 20
82.69425115636353
 30
0.0
 10
46.10948633524726
 20
82.47200077961178
 30
0.0
 10
45.83432009928632
 20
82.47200077961178
 30
0.0
 10
45.55915386332539
 20
82.47200077961178
 30
0.0
 10
45.33337630092251
 20
82.69425115636353
 30
0.0
 10
45.33337630092251
 20
82.97294457797558
 30
0.0
  0
SPLINE
  5
AE
330
79
100
AcDbEntity
  8
Ebene 1
 62
     5
420
      255
370
     9
100
AcDbSpline
210
0.0
220
0.0
230
1.0
 70
     9
 71
     3
 72
    17
 73
    13
 74
     0
 42
0.0000000001
 43
0.0000000001
 40
0.0
 40
0.0
 40
0.0
 40
0.0
 40
1.0
 40
1.0
 40
1.0
 40
2.0
 40
2.0
 40
2.0
 40
3.0
 40
3.0
 40
3.0
 40
4.0
 40
4.0
 40
4.0
 40
4.0
 10
45.33337630092251
 20
80.97269522443104
 30
0.0
 10
45.33337630092251
 20
81.25138999178352
 30
0.0
 10
45.55562802341469
 20
81.47363902279485
 30
0.0
 10
45.83432009928632
 20
81.47363902279485
 30
0.0
 10
46.11301217515794
 20
81.47363902279485
 30
0.0
 10
46.33526389765012
 20
81.25138864604309
 30
0.0
 10
46.33526389765012
 20
80.97269522443104
 30
0.0
 10
46.33526389765012
 20
80.69400180281901
 30
0.0
 10
46.10948633524726
 20
80.47175142606723
 30
0.0
 10
45.83432009928632
 20
80.47175142606723
 30
0.0
 10
45.55915386332539
 20
80.47175142606723
 30
0.0
 10
45.33337630092251
 20
80.69400180281901
 30
0.0
 10
45.33337630092251
 20
80.97269522443104
 30
0.0
  0
SPLINE
  5
AF
330
79
100
AcDbEntity
  8
Ebene 1
 62
     5
420
      255
370
     9
100
AcDbSpline
210
0.0
220
0.0
230
1.0
 70
     9
 71
     3
 72
    17
 73
    13
 74
     0
 42
0.0000000001
 43
0.0000000001
 40
0.0
 40
0.0
 40
0.0
 40
0.0
 40
1.0
 40
1.0
 40
1.0
 40
2.0
 40
2.0
 40
2.0
 40
3.0
 40
3.0
 40
3.0
 40
4.0
 40
4.0
 40
4.0
 40
4.0
 10
45.33337630092251
 20
78.97244587088652
 30
0.0
 10
45.33337630092251
 20
79.25114063823897
 30
0.0
 10
45.55562802341469
 20
79.47338966925032
 30
0.0
 10
45.83432009928632
 20
79.47338966925032
 30
0.0
 10
46.11301217515794
 20
79.47338966925032
 30
0.0
 10
46.33526389765012
 20
79.25113929249857
 30
0.0
 10
46.33526389765012
 20
78.97244587088652
 30
0.0
 10
46.33526389765012
 20
78.69375244927446
 30
0.0
 10
46.10948633524726
 20
78.47150207252271
 30
0.0
 10
45.83432009928632
 20
78.47150207252271
 30
0.0
 10
45.55915386332539
 20
78.47150207252271
 30
0.0
 10
45.33337630092251
 20
78.69375244927446
 30
0.0
 10
45.33337630092251
 20
78.97244587088652
 30
0.0
  0
SPLINE
  5
B0
330
79
100
AcDbEntity
  8
Ebene 1
 62
     5
420
      255
370
     9
100
AcDbSpline
210
0.0
220
0.0
230
1.0
 70
    11
 71
     3
 72
    17
 73
    13
 74
     0
 42
0.0000000001
 43
0.0000000001
 40
0.0
 40
0.0
 40
0.0
 40
0.0
 40
1.0
 40
1.0
 40
1.0
 40
2.0
 40
2.0
 40
2.0
 40
3.0
 40
3.0
 40
3.0
 40
4.0
 40
4.0
 40
4.0
 40
4.0
 10
45.33337630092251
 20
76.97219651734198
 30
0.0
 10
45.33337630092251
 20
77.25089128469445
 30
0.0
 10
45.55562802341469
 20
77.47314031570578
 30
0.0
 10
45.83432009928632
 20
77.47314031570578
 30
0.0
 10
46.11301217515794
 20
77.47314031570578
 30
0.0
 10
46.33526389765012
 20
77.25088993895403
 30
0.0
 10
46.33526389765012
 20
76.97219651734198
 30
0.0
 10
46.33526389765012
 20
76.69350444147035
 30
0.0
 10
46.10948633524726
 20
76.47125271897817
 30
0.0
 10
45.83432009928632
 20
76.47125271897817
 30
0.0
 10
45.55915386332539
 20
76.47125271897817
 30
0.0
 10
45.33337630092251
 20
76.6935017499895
 30
0.0
 10
45.33337630092251
 20
76.97219651734198
 30
0.0
  0
SPLINE
  5
B1
330
79
100
AcDbEntity
  8
Ebene 1
 62
     5
420
      255
370
     9
100
AcDbSpline
210
0.0
220
0.0
230
1.0
 70
     9
 71
     3
 72
    17
 73
    13
 74
     0
 42
0.0000000001
 43
0.0000000001
 40
0.0
 40
0.0
 40
0.0
 40
0.0
 40
1.0
 40
1.0
 40
1.0
 40
2.0
 40
2.0
 40
2.0
 40
3.0
 40
3.0
 40
3.0
 40
4.0
 40
4.0
 40
4.0
 40
4.0
 10
47.33362565446705
 20
84.97319662300096
 30
0.0
 10
47.33362565446705
 20
85.25189139035344
 30
0.0
 10
47.55587737695923
 20
85.47414042136477
 30
0.0
 10
47.83456945283085
 20
85.47414042136477
 30
0.0
 10
48.11326152870248
 20
85.47414042136477
 30
0.0
 10
48.33551325119466
 20
85.25189004461301
 30
0.0
 10
48.33551325119466
 20
84.97319662300096
 30
0.0
 10
48.33551325119466
 20
84.69450320138891
 30
0.0
 10
48.10973568879179
 20
84.47225282463715
 30
0.0
 10
47.83456945283085
 20
84.47225282463715
 30
0.0
 10
47.55940321686991
 20
84.47225282463715
 30
0.0
 10
47.33362565446705
 20
84.69450320138891
 30
0.0
 10
47.33362565446705
 20
84.97319662300096
 30
0.0
  0
SPLINE
  5
B2
330
79
100
AcDbEntity
  8
Ebene 1
 62
     5
420
      255
370
     9
100
AcDbSpline
210
0.0
220
0.0
230
1.0
 70
     9
 71
     3
 72
    17
 73
    13
 74
     0
 42
0.0000000001
 43
0.0000000001
 40
0.0
 40
0.0
 40
0.0
 40
0.0
 40
1.0
 40
1.0
 40
1.0
 40
2.0
 40
2.0
 40
2.0
 40
3.0
 40
3.0
 40
3.0
 40
4.0
 40
4.0
 40
4.0
 40
4.0
 10
47.33362565446705
 20
82.97294726945642
 30
0.0
 10
47.33362565446705
 20
83.25164203680889
 30
0.0
 10
47.55587737695923
 20
83.47389106782022
 30
0.0
 10
47.83456945283085
 20
83.47389106782022
 30
0.0
 10
48.11326152870248
 20
83.47389106782022
 30
0.0
 10
48.33551325119466
 20
83.25164069106847
 30
0.0
 10
48.33551325119466
 20
82.97294726945642
 30
0.0
 10
48.33551325119466
 20
82.69425384784439
 30
0.0
 10
48.10973568879179
 20
82.47200347109261
 30
0.0
 10
47.83456945283085
 20
82.47200347109261
 30
0.0
 10
47.55940321686991
 20
82.47200347109261
 30
0.0
 10
47.33362565446705
 20
82.69425384784439
 30
0.0
 10
47.33362565446705
 20
82.97294726945642
 30
0.0
  0
SPLINE
  5
B3
330
79
100
AcDbEntity
  8
Ebene 1
 62
     5
420
      255
370
     9
100
AcDbSpline
210
0.0
220
0.0
230
1.0
 70
     9
 71
     3
 72
    17
 73
    13
 74
     0
 42
0.0000000001
 43
0.0000000001
 40
0.0
 40
0.0
 40
0.0
 40
0.0
 40
1.0
 40
1.0
 40
1.0
 40
2.0
 40
2.0
 40
2.0
 40
3.0
 40
3.0
 40
3.0
 40
4.0
 40
4.0
 40
4.0
 40
4.0
 10
47.33362565446705
 20
80.97269791591189
 30
0.0
 10
47.33362565446705
 20
81.25139268326437
 30
0.0
 10
47.55587737695923
 20
81.4736417142757
 30
0.0
 10
47.83456945283085
 20
81.4736417142757
 30
0.0
 10
48.11326152870248
 20
81.4736417142757
 30
0.0
 10
48.33551325119466
 20
81.25139133752394
 30
0.0
 10
48.33551325119466
 20
80.97269791591189
 30
0.0
 10
48.33551325119466
 20
80.69400449429984
 30
0.0
 10
48.10973568879179
 20
80.47175411754809
 30
0.0
 10
47.83456945283085
 20
80.47175411754809
 30
0.0
 10
47.55940321686991
 20
80.47175411754809
 30
0.0
 10
47.33362565446705
 20
80.69400449429984
 30
0.0
 10
47.33362565446705
 20
80.97269791591189
 30
0.0
  0
SPLINE
  5
B4
330
79
100
AcDbEntity
  8
Ebene 1
 62
     5
420
      255
370
     9
100
AcDbSpline
210
0.0
220
0.0
230
1.0
 70
     9
 71
     3
 72
    17
 73
    13
 74
     0
 42
0.0000000001
 43
0.0000000001
 40
0.0
 40
0.0
 40
0.0
 40
0.0
 40
1.0
 40
1.0
 40
1.0
 40
2.0
 40
2.0
 40
2.0
 40
3.0
 40
3.0
 40
3.0
 40
4.0
 40
4.0
 40
4.0
 40
4.0
 10
47.33362565446705
 20
78.97244856236736
 30
0.0
 10
47.33362565446705
 20
79.25114332971983
 30
0.0
 10
47.55587737695923
 20
79.47339236073116
 30
0.0
 10
47.83456945283085
 20
79.47339236073116
 30
0.0
 10
48.11326152870248
 20
79.47339236073116
 30
0.0
 10
48.33551325119466
 20
79.25114198397941
 30
0.0
 10
48.33551325119466
 20
78.97244856236736
 30
0.0
 10
48.33551325119466
 20
78.69375514075532
 30
0.0
 10
48.10973568879179
 20
78.47150476400355
 30
0.0
 10
47.83456945283085
 20
78.47150476400355
 30
0.0
 10
47.55940321686991
 20
78.47150476400355
 30
0.0
 10
47.33362565446705
 20
78.69375514075532
 30
0.0
 10
47.33362565446705
 20
78.97244856236736
 30
0.0
  0
SPLINE
  5
B5
330
79
100
AcDbEntity
  8
Ebene 1
 62
     5
420
      255
370
     9
100
AcDbSpline
210
0.0
220
0.0
230
1.0
 70
    11
 71
     3
 72
    17
 73
    13
 74
     0
 42
0.0000000001
 43
0.0000000001
 40
0.0
 40
0.0
 40
0.0
 40
0.0
 40
1.0
 40
1.0
 40
1.0
 40
2.0
 40
2.0
 40
2.0
 40
3.0
 40
3.0
 40
3.0
 40
4.0
 40
4.0
 40
4.0
 40
4.0
 10
47.33362565446705
 20
76.97219920882282
 30
0.0
 10
47.33362565446705
 20
77.2508939761753
 30
0.0
 10
47.55587737695923
 20
77.47314300718663
 30
0.0
 10
47.83456945283085
 20
77.47314300718663
 30
0.0
 10
48.11326152870248
 20
77.47314300718663
 30
0.0
 10
48.33551325119466
 20
77.25089263043487
 30
0.0
 10
48.33551325119466
 20
76.97219920882282
 30
0.0
 10
48.33551325119466
 20
76.69350444147035
 30
0.0
 10
48.10973568879179
 20
76.47125541045902
 30
0.0
 10
47.83456945283085
 20
76.47125541045902
 30
0.0
 10
47.55940321686991
 20
76.47125541045902
 30
0.0
 10
47.33362565446705
 20
76.69350444147035
 30
0.0
 10
47.33362565446705
 20
76.97219920882282
 30
0.0
  0
SPLINE
  5
B6
330
79
100
AcDbEntity
  8
Ebene 1
 62
     5
420
      255
370
     9
100
AcDbSpline
210
0.0
220
0.0
230
1.0
 70
     9
 71
     3
 72
    17
 73
    13
 74
     0
 42
0.0000000001
 43
0.0000000001
 40
0.0
 40
0.0
 40
0.0
 40
0.0
 40
1.0
 40
1.0
 40
1.0
 40
2.0
 40
2.0
 40
2.0
 40
3.0
 40
3.0
 40
3.0
 40
4.0
 40
4.0
 40
4.0
 40
4.0
 10
49.33387500801159
 20
84.97319931448179
 30
0.0
 10
49.33387500801159
 20
85.25189408183427
 30
0.0
 10
49.55612673050376
 20
85.4741431128456
 30
0.0
 10
49.83481880637539
 20
85.4741431128456
 30
0.0
 10
50.11351088224701
 20
85.4741431128456
 30
0.0
 10
50.33576260473919
 20
85.25189273609386
 30
0.0
 10
50.33576260473919
 20
84.97319931448179
 30
0.0
 10
50.33576260473919
 20
84.69450589286976
 30
0.0
 10
50.10998504233633
 20
84.47225551611801
 30
0.0
 10
49.83481880637539
 20
84.47225551611801
 30
0.0
 10
49.55965257041444
 20
84.47225551611801
 30
0.0
 10
49.33387500801159
 20
84.69450589286976
 30
0.0
 10
49.33387500801159
 20
84.97319931448179
 30
0.0
  0
SPLINE
  5
B7
330
79
100
AcDbEntity
  8
Ebene 1
 62
     5
420
      255
370
     9
100
AcDbSpline
210
0.0
220
0.0
230
1.0
 70
     9
 71
     3
 72
    17
 73
    13
 74
     0
 42
0.0000000001
 43
0.0000000001
 40
0.0
 40
0.0
 40
0.0
 40
0.0
 40
1.0
 40
1.0
 40
1.0
 40
2.0
 40
2.0
 40
2.0
 40
3.0
 40
3.0
 40
3.0
 40
4.0
 40
4.0
 40
4.0
 40
4.0
 10
49.33387500801159
 20
82.97294996093727
 30
0.0
 10
49.33387500801159
 20
83.25164472828975
 30
0.0
 10
49.55612673050376
 20
83.47389375930108
 30
0.0
 10
49.83481880637539
 20
83.47389375930108
 30
0.0
 10
50.11351088224701
 20
83.47389375930108
 30
0.0
 10
50.33576260473919
 20
83.25164338254932
 30
0.0
 10
50.33576260473919
 20
82.97294996093727
 30
0.0
 10
50.33576260473919
 20
82.69425653932522
 30
0.0
 10
50.10998504233633
 20
82.47200616257346
 30
0.0
 10
49.83481880637539
 20
82.47200616257346
 30
0.0
 10
49.55965257041444
 20
82.47200616257346
 30
0.0
 10
49.33387500801159
 20
82.69425653932522
 30
0.0
 10
49.33387500801159
 20
82.97294996093727
 30
0.0
  0
SPLINE
  5
B8
330
79
100
AcDbEntity
  8
Ebene 1
 62
     5
420
      255
370
     9
100
AcDbSpline
210
0.0
220
0.0
230
1.0
 70
     9
 71
     3
 72
    17
 73
    13
 74
     0
 42
0.0000000001
 43
0.0000000001
 40
0.0
 40
0.0
 40
0.0
 40
0.0
 40
1.0
 40
1.0
 40
1.0
 40
2.0
 40
2.0
 40
2.0
 40
3.0
 40
3.0
 40
3.0
 40
4.0
 40
4.0
 40
4.0
 40
4.0
 10
49.33387500801159
 20
80.97270060739274
 30
0.0
 10
49.33387500801159
 20
81.25139537474522
 30
0.0
 10
49.55612673050376
 20
81.47364440575655
 30
0.0
 10
49.83481880637539
 20
81.47364440575655
 30
0.0
 10
50.11351088224701
 20
81.47364440575655
 30
0.0
 10
50.33576260473919
 20
81.25139402900478
 30
0.0
 10
50.33576260473919
 20
80.97270060739274
 30
0.0
 10
50.33576260473919
 20
80.69400718578069
 30
0.0
 10
50.10998504233633
 20
80.47175680902894
 30
0.0
 10
49.83481880637539
 20
80.47175680902894
 30
0.0
 10
49.55965257041444
 20
80.47175680902894
 30
0.0
 10
49.33387500801159
 20
80.69400718578069
 30
0.0
 10
49.33387500801159
 20
80.97270060739274
 30
0.0
  0
SPLINE
  5
B9
330
79
100
AcDbEntity
  8
Ebene 1
 62
     5
420
      255
370
     9
100
AcDbSpline
210
0.0
220
0.0
230
1.0
 70
     9
 71
     3
 72
    17
 73
    13
 74
     0
 42
0.0000000001
 43
0.0000000001
 40
0.0
 40
0.0
 40
0.0
 40
0.0
 40
1.0
 40
1.0
 40
1.0
 40
2.0
 40
2.0
 40
2.0
 40
3.0
 40
3.0
 40
3.0
 40
4.0
 40
4.0
 40
4.0
 40
4.0
 10
49.33387500801159
 20
78.9724512538482
 30
0.0
 10
49.33387500801159
 20
79.25114602120068
 30
0.0
 10
49.55612673050376
 20
79.47339505221201
 30
0.0
 10
49.83481880637539
 20
79.47339505221201
 30
0.0
 10
50.11351088224701
 20
79.47339505221201
 30
0.0
 10
50.33576260473919
 20
79.25114467546025
 30
0.0
 10
50.33576260473919
 20
78.9724512538482
 30
0.0
 10
50.33576260473919
 20
78.69375783223616
 30
0.0
 10
50.10998504233633
 20
78.47150745548439
 30
0.0
 10
49.83481880637539
 20
78.47150745548439
 30
0.0
 10
49.55965257041444
 20
78.47150745548439
 30
0.0
 10
49.33387500801159
 20
78.69375783223616
 30
0.0
 10
49.33387500801159
 20
78.9724512538482
 30
0.0
  0
SPLINE
  5
BA
330
79
100
AcDbEntity
  8
Ebene 1
 62
     5
420
      255
370
     9
100
AcDbSpline
210
0.0
220
0.0
230
1.0
 70
    11
 71
     3
 72
    17
 73
    13
 74
     0
 42
0.0000000001
 43
0.0000000001
 40
0.0
 40
0.0
 40
0.0
 40
0.0
 40
1.0
 40
1.0
 40
1.0
 40
2.0
 40
2.0
 40
2.0
 40
3.0
 40
3.0
 40
3.0
 40
4.0
 40
4.0
 40
4.0
 40
4.0
 10
49.33387500801159
 20
76.97220190030368
 30
0.0
 10
49.33387500801159
 20
77.25089666765615
 30
0.0
 10
49.55612673050376
 20
77.47314569866748
 30
0.0
 10
49.83481880637539
 20
77.47314569866748
 30
0.0
 10
50.11351088224701
 20
77.47314569866748
 30
0.0
 10
50.33576260473919
 20
77.25089532191572
 30
0.0
 10
50.33576260473919
 20
76.97220190030368
 30
0.0
 10
50.33576260473919
 20
76.69350982443205
 30
0.0
 10
50.10998504233633
 20
76.47125810193987
 30
0.0
 10
49.83481880637539
 20
76.47125810193987
 30
0.0
 10
49.55965257041444
 20
76.47125810193987
 30
0.0
 10
49.33387500801159
 20
76.6935071329512
 30
0.0
 10
49.33387500801159
 20
76.97220190030368
 30
0.0
  0
SPLINE
  5
BB
330
79
100
AcDbEntity
  8
Ebene 1
 62
     5
420
      255
370
     9
100
AcDbSpline
210
0.0
220
0.0
230
1.0
 70
     9
 71
     3
 72
    17
 73
    13
 74
     0
 42
0.0000000001
 43
0.0000000001
 40
0.0
 40
0.0
 40
0.0
 40
0.0
 40
1.0
 40
1.0
 40
1.0
 40
2.0
 40
2.0
 40
2.0
 40
3.0
 40
3.0
 40
3.0
 40
4.0
 40
4.0
 40
4.0
 40
4.0
 10
51.33412436155612
 20
84.97320200596266
 30
0.0
 10
51.33412436155612
 20
85.25189677331512
 30
0.0
 10
51.5563760840483
 20
85.47414580432647
 30
0.0
 10
51.83506815991993
 20
85.47414580432647
 30
0.0
 10
52.11376023579155
 20
85.47414580432647
 30
0.0
 10
52.33601195828373
 20
85.25189542757471
 30
0.0
 10
52.33601195828373
 20
84.97320200596266
 30
0.0
 10
52.33601195828373
 20
84.69450858435061
 30
0.0
 10
52.11023439588086
 20
84.47225820759886
 30
0.0
 10
51.83506815991993
 20
84.47225820759886
 30
0.0
 10
51.55990192395898
 20
84.47225820759886
 30
0.0
 10
51.33412436155612
 20
84.69450858435061
 30
0.0
 10
51.33412436155612
 20
84.97320200596266
 30
0.0
  0
SPLINE
  5
BC
330
79
100
AcDbEntity
  8
Ebene 1
 62
     5
420
      255
370
     9
100
AcDbSpline
210
0.0
220
0.0
230
1.0
 70
     9
 71
     3
 72
    17
 73
    13
 74
     0
 42
0.0000000001
 43
0.0000000001
 40
0.0
 40
0.0
 40
0.0
 40
0.0
 40
1.0
 40
1.0
 40
1.0
 40
2.0
 40
2.0
 40
2.0
 40
3.0
 40
3.0
 40
3.0
 40
4.0
 40
4.0
 40
4.0
 40
4.0
 10
51.33412436155612
 20
82.97295265241812
 30
0.0
 10
51.33412436155612
 20
83.2516474197706
 30
0.0
 10
51.5563760840483
 20
83.47389645078193
 30
0.0
 10
51.83506815991993
 20
83.47389645078193
 30
0.0
 10
52.11376023579155
 20
83.47389645078193
 30
0.0
 10
52.33601195828373
 20
83.25164607403017
 30
0.0
 10
52.33601195828373
 20
82.97295265241812
 30
0.0
 10
52.33601195828373
 20
82.69425923080607
 30
0.0
 10
52.11023439588086
 20
82.47200885405431
 30
0.0
 10
51.83506815991993
 20
82.47200885405431
 30
0.0
 10
51.55990192395898
 20
82.47200885405431
 30
0.0
 10
51.33412436155612
 20
82.69425923080607
 30
0.0
 10
51.33412436155612
 20
82.97295265241812
 30
0.0
  0
SPLINE
  5
BD
330
79
100
AcDbEntity
  8
Ebene 1
 62
     5
420
      255
370
     9
100
AcDbSpline
210
0.0
220
0.0
230
1.0
 70
     9
 71
     3
 72
    17
 73
    13
 74
     0
 42
0.0000000001
 43
0.0000000001
 40
0.0
 40
0.0
 40
0.0
 40
0.0
 40
1.0
 40
1.0
 40
1.0
 40
2.0
 40
2.0
 40
2.0
 40
3.0
 40
3.0
 40
3.0
 40
4.0
 40
4.0
 40
4.0
 40
4.0
 10
51.33412436155612
 20
80.97270329887358
 30
0.0
 10
51.33412436155612
 20
81.25139806622605
 30
0.0
 10
51.5563760840483
 20
81.47364709723738
 30
0.0
 10
51.83506815991993
 20
81.47364709723738
 30
0.0
 10
52.11376023579155
 20
81.47364709723738
 30
0.0
 10
52.33601195828373
 20
81.25139672048565
 30
0.0
 10
52.33601195828373
 20
80.97270329887358
 30
0.0
 10
52.33601195828373
 20
80.69400987726153
 30
0.0
 10
52.11023439588086
 20
80.47175950050979
 30
0.0
 10
51.83506815991993
 20
80.47175950050979
 30
0.0
 10
51.55990192395898
 20
80.47175950050979
 30
0.0
 10
51.33412436155612
 20
80.69400987726153
 30
0.0
 10
51.33412436155612
 20
80.97270329887358
 30
0.0
  0
SPLINE
  5
BE
330
79
100
AcDbEntity
  8
Ebene 1
 62
     5
420
      255
370
     9
100
AcDbSpline
210
0.0
220
0.0
230
1.0
 70
     9
 71
     3
 72
    17
 73
    13
 74
     0
 42
0.0000000001
 43
0.0000000001
 40
0.0
 40
0.0
 40
0.0
 40
0.0
 40
1.0
 40
1.0
 40
1.0
 40
2.0
 40
2.0
 40
2.0
 40
3.0
 40
3.0
 40
3.0
 40
4.0
 40
4.0
 40
4.0
 40
4.0
 10
51.33412436155612
 20
78.97245394532905
 30
0.0
 10
51.33412436155612
 20
79.25114871268153
 30
0.0
 10
51.5563760840483
 20
79.47339774369286
 30
0.0
 10
51.83506815991993
 20
79.47339774369286
 30
0.0
 10
52.11376023579155
 20
79.47339774369286
 30
0.0
 10
52.33601195828373
 20
79.25114736694109
 30
0.0
 10
52.33601195828373
 20
78.97245394532905
 30
0.0
 10
52.33601195828373
 20
78.693760523717
 30
0.0
 10
52.11023439588086
 20
78.47151014696525
 30
0.0
 10
51.83506815991993
 20
78.47151014696525
 30
0.0
 10
51.55990192395898
 20
78.47151014696525
 30
0.0
 10
51.33412436155612
 20
78.693760523717
 30
0.0
 10
51.33412436155612
 20
78.97245394532905
 30
0.0
  0
SPLINE
  5
BF
330
79
100
AcDbEntity
  8
Ebene 1
 62
     5
420
      255
370
     9
100
AcDbSpline
210
0.0
220
0.0
230
1.0
 70
    11
 71
     3
 72
    17
 73
    13
 74
     0
 42
0.0000000001
 43
0.0000000001
 40
0.0
 40
0.0
 40
0.0
 40
0.0
 40
1.0
 40
1.0
 40
1.0
 40
2.0
 40
2.0
 40
2.0
 40
3.0
 40
3.0
 40
3.0
 40
4.0
 40
4.0
 40
4.0
 40
4.0
 10
51.33412436155612
 20
76.97220459178452
 30
0.0
 10
51.33412436155612
 20
77.25089935913699
 30
0.0
 10
51.5563760840483
 20
77.47314839014832
 30
0.0
 10
51.83506815991993
 20
77.47314839014832
 30
0.0
 10
52.11376023579155
 20
77.47314839014832
 30
0.0
 10
52.33601195828373
 20
77.25089801339656
 30
0.0
 10
52.33601195828373
 20
76.97220459178452
 30
0.0
 10
52.33601195828373
 20
76.69350982443205
 30
0.0
 10
52.11023439588086
 20
76.47126079342071
 30
0.0
 10
51.83506815991993
 20
76.47126079342071
 30
0.0
 10
51.55990192395898
 20
76.47126079342071
 30
0.0
 10
51.33412436155612
 20
76.69350982443205
 30
0.0
 10
51.33412436155612
 20
76.97220459178452
 30
0.0
  0
SPLINE
  5
C0
330
79
100
AcDbEntity
  8
Ebene 1
 62
     5
420
      255
370
     9
100
AcDbSpline
210
0.0
220
0.0
230
1.0
 70
     9
 71
     3
 72
    17
 73
    13
 74
     0
 42
0.0000000001
 43
0.0000000001
 40
0.0
 40
0.0
 40
0.0
 40
0.0
 40
1.0
 40
1.0
 40
1.0
 40
2.0
 40
2.0
 40
2.0
 40
3.0
 40
3.0
 40
3.0
 40
4.0
 40
4.0
 40
4.0
 40
4.0
 10
53.33437371510065
 20
84.9732046974435
 30
0.0
 10
53.33437371510065
 20
85.25189946479597
 30
0.0
 10
53.55662543759283
 20
85.4741484958073
 30
0.0
 10
53.83531751346446
 20
85.4741484958073
 30
0.0
 10
54.11400958933608
 20
85.4741484958073
 30
0.0
 10
54.33626131182826
 20
85.25189811905555
 30
0.0
 10
54.33626131182826
 20
84.9732046974435
 30
0.0
 10
54.33626131182826
 20
84.69451127583146
 30
0.0
 10
54.1104837494254
 20
84.47226089907969
 30
0.0
 10
53.83531751346446
 20
84.47226089907969
 30
0.0
 10
53.56015127750352
 20
84.47226089907969
 30
0.0
 10
53.33437371510065
 20
84.69451127583146
 30
0.0
 10
53.33437371510065
 20
84.9732046974435
 30
0.0
  0
SPLINE
  5
C1
330
79
100
AcDbEntity
  8
Ebene 1
 62
     5
420
      255
370
     9
100
AcDbSpline
210
0.0
220
0.0
230
1.0
 70
     9
 71
     3
 72
    17
 73
    13
 74
     0
 42
0.0000000001
 43
0.0000000001
 40
0.0
 40
0.0
 40
0.0
 40
0.0
 40
1.0
 40
1.0
 40
1.0
 40
2.0
 40
2.0
 40
2.0
 40
3.0
 40
3.0
 40
3.0
 40
4.0
 40
4.0
 40
4.0
 40
4.0
 10
53.33437371510065
 20
82.97295534389897
 30
0.0
 10
53.33437371510065
 20
83.25165011125145
 30
0.0
 10
53.55662543759283
 20
83.47389914226278
 30
0.0
 10
53.83531751346446
 20
83.47389914226278
 30
0.0
 10
54.11400958933608
 20
83.47389914226278
 30
0.0
 10
54.33626131182826
 20
83.25164876551102
 30
0.0
 10
54.33626131182826
 20
82.97295534389897
 30
0.0
 10
54.33626131182826
 20
82.69426192228692
 30
0.0
 10
54.1104837494254
 20
82.47201154553517
 30
0.0
 10
53.83531751346446
 20
82.47201154553517
 30
0.0
 10
53.56015127750352
 20
82.47201154553517
 30
0.0
 10
53.33437371510065
 20
82.69426192228692
 30
0.0
 10
53.33437371510065
 20
82.97295534389897
 30
0.0
  0
SPLINE
  5
C2
330
79
100
AcDbEntity
  8
Ebene 1
 62
     5
420
      255
370
     9
100
AcDbSpline
210
0.0
220
0.0
230
1.0
 70
     9
 71
     3
 72
    17
 73
    13
 74
     0
 42
0.0000000001
 43
0.0000000001
 40
0.0
 40
0.0
 40
0.0
 40
0.0
 40
1.0
 40
1.0
 40
1.0
 40
2.0
 40
2.0
 40
2.0
 40
3.0
 40
3.0
 40
3.0
 40
4.0
 40
4.0
 40
4.0
 40
4.0
 10
53.33437371510065
 20
80.97270599035445
 30
0.0
 10
53.33437371510065
 20
81.25140075770691
 30
0.0
 10
53.55662543759283
 20
81.47364978871825
 30
0.0
 10
53.83531751346446
 20
81.47364978871825
 30
0.0
 10
54.11400958933608
 20
81.47364978871825
 30
0.0
 10
54.33626131182826
 20
81.25139941196648
 30
0.0
 10
54.33626131182826
 20
80.97270599035445
 30
0.0
 10
54.33626131182826
 20
80.6940125687424
 30
0.0
 10
54.1104837494254
 20
80.47176219199064
 30
0.0
 10
53.83531751346446
 20
80.47176219199064
 30
0.0
 10
53.56015127750352
 20
80.47176219199064
 30
0.0
 10
53.33437371510065
 20
80.6940125687424
 30
0.0
 10
53.33437371510065
 20
80.97270599035445
 30
0.0
  0
SPLINE
  5
C3
330
79
100
AcDbEntity
  8
Ebene 1
 62
     5
420
      255
370
     9
100
AcDbSpline
210
0.0
220
0.0
230
1.0
 70
     9
 71
     3
 72
    17
 73
    13
 74
     0
 42
0.0000000001
 43
0.0000000001
 40
0.0
 40
0.0
 40
0.0
 40
0.0
 40
1.0
 40
1.0
 40
1.0
 40
2.0
 40
2.0
 40
2.0
 40
3.0
 40
3.0
 40
3.0
 40
4.0
 40
4.0
 40
4.0
 40
4.0
 10
53.33437371510065
 20
78.9724566368099
 30
0.0
 10
53.33437371510065
 20
79.25115140416237
 30
0.0
 10
53.55662543759283
 20
79.4734004351737
 30
0.0
 10
53.83531751346446
 20
79.4734004351737
 30
0.0
 10
54.11400958933608
 20
79.4734004351737
 30
0.0
 10
54.33626131182826
 20
79.25115005842195
 30
0.0
 10
54.33626131182826
 20
78.9724566368099
 30
0.0
 10
54.33626131182826
 20
78.69376321519786
 30
0.0
 10
54.1104837494254
 20
78.4715128384461
 30
0.0
 10
53.83531751346446
 20
78.4715128384461
 30
0.0
 10
53.56015127750352
 20
78.4715128384461
 30
0.0
 10
53.33437371510065
 20
78.69376321519786
 30
0.0
 10
53.33437371510065
 20
78.9724566368099
 30
0.0
  0
SPLINE
  5
C4
330
79
100
AcDbEntity
  8
Ebene 1
 62
     5
420
      255
370
     9
100
AcDbSpline
210
0.0
220
0.0
230
1.0
 70
    11
 71
     3
 72
    17
 73
    13
 74
     0
 42
0.0000000001
 43
0.0000000001
 40
0.0
 40
0.0
 40
0.0
 40
0.0
 40
1.0
 40
1.0
 40
1.0
 40
2.0
 40
2.0
 40
2.0
 40
3.0
 40
3.0
 40
3.0
 40
4.0
 40
4.0
 40
4.0
 40
4.0
 10
53.33437371510065
 20
76.97220728326538
 30
0.0
 10
53.33437371510065
 20
77.25090205061784
 30
0.0
 10
53.55662543759283
 20
77.47315108162917
 30
0.0
 10
53.83531751346446
 20
77.47315108162917
 30
0.0
 10
54.11400958933608
 20
77.47315108162917
 30
0.0
 10
54.33626131182826
 20
77.25090070487742
 30
0.0
 10
54.33626131182826
 20
76.97220728326538
 30
0.0
 10
54.33626131182826
 20
76.69351520739374
 30
0.0
 10
54.1104837494254
 20
76.47126348490157
 30
0.0
 10
53.83531751346446
 20
76.47126348490157
 30
0.0
 10
53.56015127750352
 20
76.47126348490157
 30
0.0
 10
53.33437371510065
 20
76.6935125159129
 30
0.0
 10
53.33437371510065
 20
76.97220728326538
 30
0.0
  0
SPLINE
  5
C5
330
79
100
AcDbEntity
  8
Ebene 1
 62
     5
420
      255
370
     9
100
AcDbSpline
210
0.0
220
0.0
230
1.0
 70
     9
 71
     3
 72
    44
 73
    40
 74
     0
 42
0.0000000001
 43
0.0000000001
 40
0.0
 40
0.0
 40
0.0
 40
0.0
 40
1.0
 40
1.0
 40
1.0
 40
2.0
 40
2.0
 40
2.0
 40
3.0
 40
3.0
 40
3.0
 40
4.0
 40
4.0
 40
4.0
 40
5.0
 40
5.0
 40
5.0
 40
6.0
 40
6.0
 40
6.0
 40
7.0
 40
7.0
 40
7.0
 40
8.0
 40
8.0
 40
8.0
 40
9.0
 40
9.0
 40
9.0
 40
10.0
 40
10.0
 40
10.0
 40
11.0
 40
11.0
 40
11.0
 40
12.0
 40
12.0
 40
12.0
 40
13.0
 40
13.0
 40
13.0
 40
13.0
 10
42.87098622839765
 20
80.13309584838633
 30
0.0
 10
42.89920909656822
 20
79.74504083122396
 30
0.0
 10
42.60640289513046
 20
79.41342885892189
 30
0.0
 10
42.22187640935962
 20
79.38520733649173
 30
0.0
 10
42.22187640935962
 20
79.38520733649173
 30
0.0
 10
24.02559799017551
 20
78.11167934371387
 30
0.0
 10
24.02559799017551
 20
78.11167934371387
 30
0.0
 10
24.02559799017551
 20
78.11167934371387
 30
0.0
 10
25.35909755920521
 20
70.79859617369766
 30
0.0
 10
25.35909755920521
 20
70.79859617369766
 30
0.0
 10
25.35909755920521
 20
70.79859617369766
 30
0.0
 10
40.45093045812865
 20
71.8569295067664
 30
0.0
 10
40.45093045812865
 20
71.8569295067664
 30
0.0
 10
40.45093045812865
 20
71.8569295067664
 30
0.0
 10
56.43176217257826
 20
71.8569295067664
 30
0.0
 10
56.43176217257826
 20
71.8569295067664
 30
0.0
 10
56.43176217257826
 20
71.8569295067664
 30
0.0
 10
56.45645920083815
 20
78.35862405724467
 30
0.0
 10
56.45645920083815
 20
78.35862405724467
 30
0.0
 10
56.45645920083815
 20
78.74315188875593
 30
0.0
 10
56.76690536775272
 20
79.05712389558118
 30
0.0
 10
57.15495769343425
 20
79.05712389558118
 30
0.0
 10
57.15495769343425
 20
79.05712389558118
 30
0.0
 10
59.40568163764153
 20
79.05712389558118
 30
0.0
 10
59.40568163764153
 20
79.05712389558118
 30
0.0
 10
59.40568163764153
 20
79.05712389558118
 30
0.0
 10
59.40568163764153
 20
89.00545749557553
 30
0.0
 10
59.40568163764153
 20
89.00545749557553
 30
0.0
 10
59.40568163764153
 20
89.00545749557553
 30
0.0
 10
42.25009658604935
 20
89.00545749557553
 30
0.0
 10
42.25009658604935
 20
89.00545749557553
 30
0.0
 10
42.25009658604935
 20
89.00545749557553
 30
0.0
 10
42.87098622839765
 20
80.12956866273523
 30
0.0
 10
42.87098622839765
 20
80.12956866273523
 30
0.0
 10
42.87098622839765
 20
80.12956866273523
 30
0.0
 10
42.87098622839765
 20
80.12956866273523
 30
0.0
 10
42.87098622839765
 20
80.12956866273523
 30
0.0
 10
42.87098622839765
 20
80.12956866273523
 30
0.0
 10
42.87098622839765
 20
80.13309584838633
 30
0.0
 10
42.87098622839765
 20
80.13309584838633
 30
0.0
  0
SPLINE
  5
C6
330
79
100
AcDbEntity
  8
Ebene 1
 62
     5
420
      255
370
     9
100
AcDbSpline
210
0.0
220
0.0
230
1.0
 70
    11
 71
     3
 72
    17
 73
    13
 74
     0
 42
0.0000000001
 43
0.0000000001
 40
0.0
 40
0.0
 40
0.0
 40
0.0
 40
1.0
 40
1.0
 40
1.0
 40
2.0
 40
2.0
 40
2.0
 40
3.0
 40
3.0
 40
3.0
 40
4.0
 40
4.0
 40
4.0
 40
4.0
 10
20.36023709529921
 20
93.27406806732332
 30
0.0
 10
20.36023709529921
 20
93.85615126593709
 30
0.0
 10
20.82943218558176
 20
94.32534568334942
 30
0.0
 10
21.41151471132532
 20
94.32534568334942
 30
0.0
 10
21.99359723706888
 20
94.32534568334942
 30
0.0
 10
22.46279232735143
 20
93.85615126593709
 30
0.0
 10
22.46279232735143
 20
93.27406806732332
 30
0.0
 10
22.46279232735143
 20
92.69198486870953
 30
0.0
 10
21.99007005141777
 20
92.2227904512972
 30
0.0
 10
21.41151471132532
 20
92.2227904512972
 30
0.0
 10
20.83295937123287
 20
92.2227904512972
 30
0.0
 10
20.36023709529921
 20
92.69198486870953
 30
0.0
 10
20.36023709529921
 20
93.27406806732332
 30
0.0
  0
SPLINE
  5
C7
330
79
100
AcDbEntity
  8
Ebene 1
 62
     5
420
      255
370
     9
100
AcDbSpline
210
0.0
220
0.0
230
1.0
 70
    11
 71
     3
 72
    17
 73
    13
 74
     0
 42
0.0000000001
 43
0.0000000001
 40
0.0
 40
0.0
 40
0.0
 40
0.0
 40
1.0
 40
1.0
 40
1.0
 40
2.0
 40
2.0
 40
2.0
 40
3.0
 40
3.0
 40
3.0
 40
4.0
 40
4.0
 40
4.0
 40
4.0
 10
35.20159809504075
 20
94.28301272683398
 30
0.0
 10
35.20159809504075
 20
94.86509592544775
 30
0.0
 10
35.6707931853233
 20
95.3342903428601
 30
0.0
 10
36.25287705680728
 20
95.3342903428601
 30
0.0
 10
36.83496092829126
 20
95.3342903428601
 30
0.0
 10
37.30415601857381
 20
94.86509592544775
 30
0.0
 10
37.30415601857381
 20
94.28301272683398
 30
0.0
 10
37.30415601857381
 20
93.70092952822021
 30
0.0
 10
36.83143508838057
 20
93.23173511080788
 30
0.0
 10
36.25287705680728
 20
93.23173511080788
 30
0.0
 10
35.67431902523399
 20
93.23173511080788
 30
0.0
 10
35.20159809504075
 20
93.70092952822021
 30
0.0
 10
35.20159809504075
 20
94.28301272683398
 30
0.0
  0
SPLINE
  5
C8
330
79
100
AcDbEntity
  8
Ebene 1
 62
     5
420
      255
370
     9
100
AcDbSpline
210
0.0
220
0.0
230
1.0
 70
     9
 71
     3
 72
    38
 73
    34
 74
     0
 42
0.0000000001
 43
0.0000000001
 40
0.0
 40
0.0
 40
0.0
 40
0.0
 40
1.0
 40
1.0
 40
1.0
 40
2.0
 40
2.0
 40
2.0
 40
3.0
 40
3.0
 40
3.0
 40
4.0
 40
4.0
 40
4.0
 40
5.0
 40
5.0
 40
5.0
 40
6.0
 40
6.0
 40
6.0
 40
7.0
 40
7.0
 40
7.0
 40
8.0
 40
8.0
 40
8.0
 40
9.0
 40
9.0
 40
9.0
 40
10.0
 40
10.0
 40
10.0
 40
11.0
 40
11.0
 40
11.0
 40
11.0
 10
0.0508207568978706
 20
96.18448506969748
 30
0.0
 10
0.0508207568978706
 20
96.18448506969748
 30
0.0
 10
0.0508207568978706
 20
74.79556904087605
 30
0.0
 10
0.0508207568978706
 20
74.79556904087605
 30
0.0
 10
0.0508207568978706
 20
74.79556904087605
 30
0.0
 10
15.50601546641633
 20
77.51901391527656
 30
0.0
 10
15.50601546641633
 20
77.51901391527656
 30
0.0
 10
15.88701611227648
 20
77.58604120857103
 30
0.0
 10
16.25037679265982
 20
77.33204212373802
 30
0.0
 10
16.31740408595429
 20
76.95104147787787
 30
0.0
 10
16.31740408595429
 20
76.95104147787787
 30
0.0
 10
19.10787625364927
 20
61.04076424237383
 30
0.0
 10
19.10787625364927
 20
61.04076424237383
 30
0.0
 10
19.23134793754446
 20
60.32815431569244
 30
0.0
 10
20.28968127061321
 20
60.45515183949831
 30
0.0
 10
20.24029259705514
 20
61.1783473603543
 30
0.0
 10
20.24029259705514
 20
61.1783473603543
 30
0.0
 10
18.26473758028964
 20
89.71454158234623
 30
0.0
 10
18.26473758028964
 20
89.71454158234623
 30
0.0
 10
18.26473758028964
 20
89.71454158234623
 30
0.0
 10
18.26473758028964
 20
89.71454158234623
 30
0.0
 10
18.26473758028964
 20
89.71454158234623
 30
0.0
 10
18.26473758028964
 20
89.71454158234623
 30
0.0
 10
40.76843099634543
 20
91.28793014786406
 30
0.0
 10
40.76843099634543
 20
91.28793014786406
 30
0.0
 10
40.76843099634543
 20
91.28793014786406
 30
0.0
 10
40.75784809365169
 20
96.88298558090423
 30
0.0
 10
40.75784809365169
 20
96.88298558090423
 30
0.0
 10
40.75784809365169
 20
96.88298558090423
 30
0.0
 10
0.7493207161407609
 20
96.88298558090423
 30
0.0
 10
0.7493207161407609
 20
96.88298558090423
 30
0.0
 10
0.3647929266838864
 20
96.88298558090423
 30
0.0
 10
0.0508207095866838
 20
96.57254109616516
 30
0.0
 10
0.0508207568978706
 20
96.18448506969748
 30
0.0
  0
ENDBLK
  5
7C
330
79
100
AcDbEntity
  8
0
100
AcDbBlockEnd
  0
BLOCK
  5
CB
330
C9
100
AcDbEntity
  8
0
100
AcDbBlockBegin
  2
Block_1
 70
     0
 10
0.0
 20
0.0
 30
0.0
  3
Block_1
  1

  0
LWPOLYLINE
  5
CD
330
C9
100
AcDbEntity
  8
Ebene 1
100
AcDbPolyline
 90
        6
 70
     1
 43
0.0
 10
96.4226566497496
 20
93.33404031644535
 10
96.4226566497496
 20
75.91387395019662
 10
103.1959835218355
 20
75.91387395019662
 10
103.1959835218355
 20
76.38659488038985
 10
96.89537757994283
 20
76.38659488038985
 10
96.89537757994283
 20
93.33404031644535
  0
HATCH
  5
CE
330
C9
100
AcDbEntity
  8
Ebene 1
 62
     6
420
 16711935
440
 33554687
100
AcDbHatch
 10
0.0
 20
0.0
 30
0.0
210
0.0
220
0.0
230
1.0
  2
SOLID
 70
     1
 71
     1
 91
        1
 92
        1
 93
        6
 72
     1
 10
96.4226566497496
 20
93.33404031644535
 11
96.4226566497496
 21
75.91387395019662
 72
     1
 10
96.4226566497496
 20
75.91387395019662
 11
103.1959835218355
 21
75.91387395019662
 72
     1
 10
103.1959835218355
 20
75.91387395019662
 11
103.1959835218355
 21
76.38659488038985
 72
     1
 10
103.1959835218355
 20
76.38659488038985
 11
96.89537757994283
 21
76.38659488038985
 72
     1
 10
96.89537757994283
 20
76.38659488038985
 11
96.89537757994283
 21
93.33404031644535
 72
     1
 10
96.89537757994283
 20
93.33404031644535
 11
96.4226566497496
 21
93.33404031644535
 97
        1
330
CD
 75
     2
 76
     1
 98
        1
 10
0.0
 20
0.0
450
        0
451
        0
460
0.0
461
0.0
452
        0
462
0.0
453
        0
470

  0
LWPOLYLINE
  5
CF
330
C9
100
AcDbEntity
  8
Ebene 1
100
AcDbPolyline
 90
       11
 70
     1
 43
0.0
 10
84.10718313869542
 20
82.11217939654337
 10
88.2170420955944
 20
90.27898481548318
 10
92.32338059554438
 20
82.11217939654337
 10
92.85606771902774
 20
82.11217939654337
 10
88.48162542886159
 20
90.80815148201756
 10
92.85606771902774
 20
99.54998505539871
 10
92.32690105249337
 20
99.54998505539871
 10
84.22712629119908
 20
83.41040172610027
 10
84.22712629119908
 20
99.54998505539871
 10
83.75440536100585
 20
99.54998505539871
 10
83.75440536100585
 20
82.11217939654337
  0
HATCH
  5
D0
330
C9
100
AcDbEntity
  8
Ebene 1
 62
     6
420
 16711935
440
 33554687
100
AcDbHatch
 10
0.0
 20
0.0
 30
0.0
210
0.0
220
0.0
230
1.0
  2
SOLID
 70
     1
 71
     1
 91
        1
 92
        1
 93
       11
 72
     1
 10
84.10718313869542
 20
82.11217939654337
 11
88.2170420955944
 21
90.27898481548318
 72
     1
 10
88.2170420955944
 20
90.27898481548318
 11
92.32338059554438
 21
82.11217939654337
 72
     1
 10
92.32338059554438
 20
82.11217939654337
 11
92.85606771902774
 21
82.11217939654337
 72
     1
 10
92.85606771902774
 20
82.11217939654337
 11
88.48162542886159
 21
90.80815148201756
 72
     1
 10
88.48162542886159
 20
90.80815148201756
 11
92.85606771902774
 21
99.54998505539871
 72
     1
 10
92.85606771902774
 20
99.54998505539871
 11
92.32690105249337
 21
99.54998505539871
 72
     1
 10
92.32690105249337
 20
99.54998505539871
 11
84.22712629119908
 21
83.41040172610027
 72
     1
 10
84.22712629119908
 20
83.41040172610027
 11
84.22712629119908
 21
99.54998505539871
 72
     1
 10
84.22712629119908
 20
99.54998505539871
 11
83.75440536100585
 21
99.54998505539871
 72
     1
 10
83.75440536100585
 20
99.54998505539871
 11
83.75440536100585
 21
82.11217939654337
 72
     1
 10
83.75440536100585
 20
82.11217939654337
 11
84.10718313869542
 21
82.11217939654337
 97
        1
330
CF
 75
     2
 76
     1
 98
        1
 10
0.0
 20
0.0
450
        0
451
        0
460
0.0
461
0.0
452
        0
462
0.0
453
        0
470

  0
LWPOLYLINE
  5
D1
330
C9
100
AcDbEntity
  8
Ebene 1
100
AcDbPolyline
 90
        4
 70
     1
 43
0.0
 10
83.6767938192772
 20
71.6734862466194
 10
106.2581028142829
 20
71.6734862466194
 10
106.2581028142829
 20
71.20076531642617
 10
83.6767938192772
 20
71.20076531642617
  0
HATCH
  5
D2
330
C9
100
AcDbEntity
  8
Ebene 1
 62
     6
420
 16711935
440
 33554687
100
AcDbHatch
 10
0.0
 20
0.0
 30
0.0
210
0.0
220
0.0
230
1.0
  2
SOLID
 70
     1
 71
     1
 91
        1
 92
        1
 93
        4
 72
     1
 10
83.6767938192772
 20
71.6734862466194
 11
106.2581028142829
 21
71.6734862466194
 72
     1
 10
106.2581028142829
 20
71.6734862466194
 11
106.2581028142829
 21
71.20076531642617
 72
     1
 10
106.2581028142829
 20
71.20076531642617
 11
83.6767938192772
 21
71.20076531642617
 72
     1
 10
83.6767938192772
 20
71.20076531642617
 11
83.6767938192772
 21
71.6734862466194
 97
        1
330
D1
 75
     2
 76
     1
 98
        1
 10
0.0
 20
0.0
450
        0
451
        0
460
0.0
461
0.0
452
        0
462
0.0
453
        0
470

  0
SPLINE
  5
D3
330
C9
100
AcDbEntity
  8
Ebene 1
100
AcDbSpline
210
0.0
220
0.0
230
1.0
 70
     9
 71
     3
 72
    17
 73
    13
 74
     0
 42
0.0000000001
 43
0.0000000001
 40
0.0
 40
0.0
 40
0.0
 40
0.0
 40
1.0
 40
1.0
 40
1.0
 40
2.0
 40
2.0
 40
2.0
 40
3.0
 40
3.0
 40
3.0
 40
4.0
 40
4.0
 40
4.0
 40
4.0
 10
121.2299925607027
 20
71.6734862466194
 30
0.0
 10
116.6897442843855
 20
71.6734862466194
 30
0.0
 10
112.999691744211
 20
75.36707000966628
 30
0.0
 10
112.999691744211
 20
79.90379244607279
 30
0.0
 10
112.999691744211
 20
84.44051488247929
 30
0.0
 10
116.6932755072579
 20
88.13409864552616
 30
0.0
 10
121.2299925607027
 20
88.13409864552616
 30
0.0
 10
125.7667096141475
 20
88.13409864552616
 30
0.0
 10
129.4602933771944
 20
84.44051488247929
 30
0.0
 10
129.4602933771944
 20
79.90379244607279
 30
0.0
 10
129.4602933771944
 20
75.36707000966628
 30
0.0
 10
125.7667096141475
 20
71.6734862466194
 30
0.0
 10
121.2299925607027
 20
71.6734862466194
 30
0.0
  0
SPLINE
  5
D4
330
C9
100
AcDbEntity
  8
Ebene 1
100
AcDbSpline
210
0.0
220
0.0
230
1.0
 70
     9
 71
     3
 72
    17
 73
    13
 74
     0
 42
0.0000000001
 43
0.0000000001
 40
0.0
 40
0.0
 40
0.0
 40
0.0
 40
1.0
 40
1.0
 40
1.0
 40
2.0
 40
2.0
 40
2.0
 40
3.0
 40
3.0
 40
3.0
 40
4.0
 40
4.0
 40
4.0
 40
4.0
 10
121.2299925607027
 20
88.6103460885003
 30
0.0
 10
116.4286921739907
 20
88.6103460885003
 30
0.0
 10
112.5234395911454
 20
84.70509552426563
 30
0.0
 10
112.5234395911454
 20
79.90378975459194
 30
0.0
 10
112.5234395911454
 20
75.10248398491824
 30
0.0
 10
116.4286921739907
 20
71.19723409355379
 30
0.0
 10
121.2299925607027
 20
71.19723409355379
 30
0.0
 10
126.0312929474147
 20
71.19723409355379
 30
0.0
 10
129.93654553026
 20
75.10248398491824
 30
0.0
 10
129.93654553026
 20
79.90378975459194
 30
0.0
 10
129.93654553026
 20
84.70509552426563
 30
0.0
 10
126.0312929474147
 20
88.61034541563009
 30
0.0
 10
121.2299925607027
 20
88.6103460885003
 30
0.0
  0
HATCH
  5
D5
330
C9
100
AcDbEntity
  8
Ebene 1
 62
     6
420
 16711935
440
 33554687
100
AcDbHatch
 10
0.0
 20
0.0
 30
0.0
210
0.0
220
0.0
230
1.0
  2
SOLID
 70
     1
 71
     1
 91
        2
 92
        1
 93
        1
 72
     4
 94
        3
 73
     0
 74
     0
 95
       17
 96
       13
 40
0.0
 40
0.0
 40
0.0
 40
0.0
 40
1.0
 40
1.0
 40
1.0
 40
2.0
 40
2.0
 40
2.0
 40
3.0
 40
3.0
 40
3.0
 40
4.0
 40
4.0
 40
4.0
 40
4.0
 10
121.2299925607027
 20
71.6734862466194
 10
116.6897442843855
 20
71.6734862466194
 10
112.999691744211
 20
75.36707000966628
 10
112.999691744211
 20
79.90379244607279
 10
112.999691744211
 20
84.44051488247929
 10
116.6932755072579
 20
88.13409864552616
 10
121.2299925607027
 20
88.13409864552616
 10
125.7667096141475
 20
88.13409864552616
 10
129.4602933771944
 20
84.44051488247929
 10
129.4602933771944
 20
79.90379244607279
 10
129.4602933771944
 20
75.36707000966628
 10
125.7667096141475
 20
71.6734862466194
 10
121.2299925607027
 20
71.6734862466194
 97
        0
 97
        1
330
D3
 92
        1
 93
        1
 72
     4
 94
        3
 73
     0
 74
     0
 95
       17
 96
       13
 40
0.0
 40
0.0
 40
0.0
 40
0.0
 40
1.0
 40
1.0
 40
1.0
 40
2.0
 40
2.0
 40
2.0
 40
3.0
 40
3.0
 40
3.0
 40
4.0
 40
4.0
 40
4.0
 40
4.0
 10
121.2299925607027
 20
88.6103460885003
 10
116.4286921739907
 20
88.6103460885003
 10
112.5234395911454
 20
84.70509552426563
 10
112.5234395911454
 20
79.90378975459194
 10
112.5234395911454
 20
75.10248398491824
 10
116.4286921739907
 20
71.19723409355379
 10
121.2299925607027
 20
71.19723409355379
 10
126.0312929474147
 20
71.19723409355379
 10
129.93654553026
 20
75.10248398491824
 10
129.93654553026
 20
79.90378975459194
 10
129.93654553026
 20
84.70509552426563
 10
126.0312929474147
 20
88.61034541563009
 10
121.2299925607027
 20
88.6103460885003
 97
        0
 97
        1
330
D4
 75
     2
 76
     1
 98
        1
 10
0.0
 20
0.0
450
        0
451
        0
460
0.0
461
0.0
452
        0
462
0.0
453
        0
470

  0
SPLINE
  5
D6
330
C9
100
AcDbEntity
  8
Ebene 1
100
AcDbSpline
210
0.0
220
0.0
230
1.0
 70
    11
 71
     3
 72
    23
 73
    19
 74
     0
 42
0.0000000001
 43
0.0000000001
 40
0.0
 40
0.0
 40
0.0
 40
0.0
 40
1.0
 40
1.0
 40
1.0
 40
2.0
 40
2.0
 40
2.0
 40
3.0
 40
3.0
 40
3.0
 40
4.0
 40
4.0
 40
4.0
 40
5.0
 40
5.0
 40
5.0
 40
6.0
 40
6.0
 40
6.0
 40
6.0
 10
133.7147925148569
 20
84.22884606268086
 30
0.0
 10
133.7147925148569
 20
84.22884606268086
 30
0.0
 10
133.7147925148569
 20
92.54734603368644
 30
0.0
 10
133.7147925148569
 20
92.54734603368644
 30
0.0
 10
133.7147925148569
 20
92.54734603368644
 30
0.0
 10
141.7087382492136
 20
92.54734603368644
 30
0.0
 10
141.7087382492136
 20
92.54734603368644
 30
0.0
 10
141.7087382492136
 20
92.54734603368644
 30
0.0
 10
141.7087382492136
 20
84.23942896537461
 30
0.0
 10
141.7087382492136
 20
84.23942896537461
 30
0.0
 10
141.7087382492136
 20
84.23942896537461
 30
0.0
 10
133.7147925148569
 20
84.23942896537461
 30
0.0
 10
133.7147925148569
 20
84.23942896537461
 30
0.0
 10
133.7147925148569
 20
84.23942896537461
 30
0.0
 10
133.7147925148569
 20
84.23237324833197
 30
0.0
 10
133.7147925148569
 20
84.23237324833197
 30
0.0
 10
133.7147925148569
 20
84.23237324833197
 30
0.0
 10
133.7147925148569
 20
84.22884606268086
 30
0.0
 10
133.7147925148569
 20
84.22884606268086
 30
0.0
  0
SPLINE
  5
D7
330
C9
100
AcDbEntity
  8
Ebene 1
100
AcDbSpline
210
0.0
220
0.0
230
1.0
 70
    11
 71
     3
 72
    38
 73
    34
 74
     0
 42
0.0000000001
 43
0.0000000001
 40
0.0
 40
0.0
 40
0.0
 40
0.0
 40
1.0
 40
1.0
 40
1.0
 40
2.0
 40
2.0
 40
2.0
 40
3.0
 40
3.0
 40
3.0
 40
4.0
 40
4.0
 40
4.0
 40
5.0
 40
5.0
 40
5.0
 40
6.0
 40
6.0
 40
6.0
 40
7.0
 40
7.0
 40
7.0
 40
8.0
 40
8.0
 40
8.0
 40
9.0
 40
9.0
 40
9.0
 40
10.0
 40
10.0
 40
10.0
 40
11.0
 40
11.0
 40
11.0
 40
11.0
 10
142.1814591794069
 20
83.76317950378984
 30
0.0
 10
142.1814591794069
 20
83.76317950378984
 30
0.0
 10
142.1814591794069
 20
93.02006830962008
 30
0.0
 10
142.1814591794069
 20
93.02006830962008
 30
0.0
 10
142.1814591794069
 20
93.02006830962008
 30
0.0
 10
133.2385403617913
 20
93.02006830962008
 30
0.0
 10
133.2385403617913
 20
93.02006830962008
 30
0.0
 10
133.2385403617913
 20
93.02006830962008
 30
0.0
 10
133.2385403617913
 20
75.59284488058828
 30
0.0
 10
133.2385403617913
 20
75.59284488058828
 30
0.0
 10
133.2385403617913
 20
75.59284488058828
 30
0.0
 10
133.7112612919845
 20
75.59284488058828
 30
0.0
 10
133.7112612919845
 20
75.59284488058828
 30
0.0
 10
133.7112612919845
 20
75.59284488058828
 30
0.0
 10
133.7112612919845
 20
83.76670534370054
 30
0.0
 10
133.7112612919845
 20
83.76670534370054
 30
0.0
 10
133.7112612919845
 20
83.76670534370054
 30
0.0
 10
137.7188116788949
 20
83.76670534370054
 30
0.0
 10
137.7188116788949
 20
83.76670534370054
 30
0.0
 10
137.7188116788949
 20
83.76670534370054
 30
0.0
 10
141.8286706357939
 20
75.59284488058828
 30
0.0
 10
141.8286706357939
 20
75.59284488058828
 30
0.0
 10
141.8286706357939
 20
75.59284488058828
 30
0.0
 10
142.3578373023283
 20
75.59284488058828
 30
0.0
 10
142.3578373023283
 20
75.59284488058828
 30
0.0
 10
142.3578373023283
 20
75.59284488058828
 30
0.0
 10
138.2479783454293
 20
83.76670534370054
 30
0.0
 10
138.2479783454293
 20
83.76670534370054
 30
0.0
 10
138.2479783454293
 20
83.76670534370054
 30
0.0
 10
142.1814484134835
 20
83.76670534370054
 30
0.0
 10
142.1814484134835
 20
83.76670534370054
 30
0.0
 10
142.1814484134835
 20
83.76670534370054
 30
0.0
 10
142.1814591794069
 20
83.76317950378984
 30
0.0
 10
142.1814591794069
 20
83.76317950378984
 30
0.0
  0
HATCH
  5
D8
330
C9
100
AcDbEntity
  8
Ebene 1
 62
     6
420
 16711935
440
 33554687
100
AcDbHatch
 10
0.0
 20
0.0
 30
0.0
210
0.0
220
0.0
230
1.0
  2
SOLID
 70
     1
 71
     1
 91
        2
 92
        1
 93
        1
 72
     4
 94
        3
 73
     0
 74
     0
 95
       23
 96
       19
 40
0.0
 40
0.0
 40
0.0
 40
0.0
 40
1.0
 40
1.0
 40
1.0
 40
2.0
 40
2.0
 40
2.0
 40
3.0
 40
3.0
 40
3.0
 40
4.0
 40
4.0
 40
4.0
 40
5.0
 40
5.0
 40
5.0
 40
6.0
 40
6.0
 40
6.0
 40
6.0
 10
133.7147925148569
 20
84.22884606268086
 10
133.7147925148569
 20
84.22884606268086
 10
133.7147925148569
 20
92.54734603368644
 10
133.7147925148569
 20
92.54734603368644
 10
133.7147925148569
 20
92.54734603368644
 10
141.7087382492136
 20
92.54734603368644
 10
141.7087382492136
 20
92.54734603368644
 10
141.7087382492136
 20
92.54734603368644
 10
141.7087382492136
 20
84.23942896537461
 10
141.7087382492136
 20
84.23942896537461
 10
141.7087382492136
 20
84.23942896537461
 10
133.7147925148569
 20
84.23942896537461
 10
133.7147925148569
 20
84.23942896537461
 10
133.7147925148569
 20
84.23942896537461
 10
133.7147925148569
 20
84.23237324833197
 10
133.7147925148569
 20
84.23237324833197
 10
133.7147925148569
 20
84.23237324833197
 10
133.7147925148569
 20
84.22884606268086
 10
133.7147925148569
 20
84.22884606268086
 97
        0
 97
        1
330
D6
 92
        1
 93
        1
 72
     4
 94
        3
 73
     0
 74
     0
 95
       38
 96
       34
 40
0.0
 40
0.0
 40
0.0
 40
0.0
 40
1.0
 40
1.0
 40
1.0
 40
2.0
 40
2.0
 40
2.0
 40
3.0
 40
3.0
 40
3.0
 40
4.0
 40
4.0
 40
4.0
 40
5.0
 40
5.0
 40
5.0
 40
6.0
 40
6.0
 40
6.0
 40
7.0
 40
7.0
 40
7.0
 40
8.0
 40
8.0
 40
8.0
 40
9.0
 40
9.0
 40
9.0
 40
10.0
 40
10.0
 40
10.0
 40
11.0
 40
11.0
 40
11.0
 40
11.0
 10
142.1814591794069
 20
83.76317950378984
 10
142.1814591794069
 20
83.76317950378984
 10
142.1814591794069
 20
93.02006830962008
 10
142.1814591794069
 20
93.02006830962008
 10
142.1814591794069
 20
93.02006830962008
 10
133.2385403617913
 20
93.02006830962008
 10
133.2385403617913
 20
93.02006830962008
 10
133.2385403617913
 20
93.02006830962008
 10
133.2385403617913
 20
75.59284488058828
 10
133.2385403617913
 20
75.59284488058828
 10
133.2385403617913
 20
75.59284488058828
 10
133.7112612919845
 20
75.59284488058828
 10
133.7112612919845
 20
75.59284488058828
 10
133.7112612919845
 20
75.59284488058828
 10
133.7112612919845
 20
83.76670534370054
 10
133.7112612919845
 20
83.76670534370054
 10
133.7112612919845
 20
83.76670534370054
 10
137.7188116788949
 20
83.76670534370054
 10
137.7188116788949
 20
83.76670534370054
 10
137.7188116788949
 20
83.76670534370054
 10
141.8286706357939
 20
75.59284488058828
 10
141.8286706357939
 20
75.59284488058828
 10
141.8286706357939
 20
75.59284488058828
 10
142.3578373023283
 20
75.59284488058828
 10
142.3578373023283
 20
75.59284488058828
 10
142.3578373023283
 20
75.59284488058828
 10
138.2479783454293
 20
83.76670534370054
 10
138.2479783454293
 20
83.76670534370054
 10
138.2479783454293
 20
83.76670534370054
 10
142.1814484134835
 20
83.76670534370054
 10
142.1814484134835
 20
83.76670534370054
 10
142.1814484134835
 20
83.76670534370054
 10
142.1814591794069
 20
83.76317950378984
 10
142.1814591794069
 20
83.76317950378984
 97
        0
 97
        1
330
D7
 75
     2
 76
     1
 98
        1
 10
0.0
 20
0.0
450
        0
451
        0
460
0.0
461
0.0
452
        0
462
0.0
453
        0
470

  0
ENDBLK
  5
CC
330
C9
100
AcDbEntity
  8
0
100
AcDbBlockEnd
  0
ENDSEC
  0
SECTION
  2
ENTITIES
  0
INSERT
  5
7A
330
70
100
AcDbEntity
  8
Ebene 1
100
AcDbBlockReference
  2
Block_0
 10
0.0
 20
0.0
 30
0.0
  0
INSERT
  5
CA
330
70
100
AcDbEntity
  8
Ebene 1
100
AcDbBlockReference
  2
Block_1
 10
0.0
 20
0.0
 30
0.0
  0
ENDSEC
  0
SECTION
  2
OBJECTS
  0
DICTIONARY
  5
C
330
0
100
AcDbDictionary
281
     1
  3
ACAD_COLOR
350
63
  3
ACAD_DETAILVIEWSTYLE
350
6A
  3
ACAD_GROUP
350
D
  3
ACAD_LAYOUT
350
62
  3
ACAD_MATERIAL
350
10
  3
ACAD_MLEADERSTYLE
350
66
  3
ACAD_MLINESTYLE
350
5F
  3
ACAD_PLOTSETTINGS
350
61
  3
ACAD_PLOTSTYLENAME
350
E
  3
ACAD_SCALELIST
350
42
  3
ACAD_SECTIONVIEWSTYLE
350
68
  3
ACAD_TABLESTYLE
350
64
  3
ACAD_VISUALSTYLE
350
29
  3
ACDB_RECOMPOSE_DATA
350
E1
  3
AcDbVariableDictionary
350
D9
  0
DICTIONARY
  5
63
102
{ACAD_REACTORS
330
C
102
}
330
C
100
AcDbDictionary
281
     1
  0
DICTIONARY
  5
6A
102
{ACAD_REACTORS
330
C
102
}
330
C
100
AcDbDictionary
281
     1
  3
Imperial24
350
6B
  0
DICTIONARY
  5
D
102
{ACAD_REACTORS
330
C
102
}
330
C
100
AcDbDictionary
281
     1
  0
DICTIONARY
  5
62
102
{ACAD_REACTORS
330
C
102
}
330
C
100
AcDbDictionary
281
     1
  3
Layout1
350
6F
  3
Layout2
350
77
  3
Model
350
73
  0
DICTIONARY
  5
10
102
{ACAD_REACTORS
330
C
102
}
330
C
100
AcDbDictionary
281
     1
  3
ByBlock
350
19
  3
ByLayer
350
11
  3
Global
350
21
  0
DICTIONARY
  5
66
102
{ACAD_REACTORS
330
C
102
}
330
C
100
AcDbDictionary
281
     1
  3
Standard
350
67
  0
DICTIONARY
  5
5F
102
{ACAD_REACTORS
330
C
102
}
330
C
100
AcDbDictionary
281
     1
  3
Standard
350
60
  0
DICTIONARY
  5
61
102
{ACAD_REACTORS
330
C
102
}
330
C
100
AcDbDictionary
281
     1
  0
ACDBDICTIONARYWDFLT
  5
E
102
{ACAD_REACTORS
330
C
102
}
330
C
100
AcDbDictionary
281
     1
  3
Normal
350
F
100
AcDbDictionaryWithDefault
340
F
  0
DICTIONARY
  5
42
102
{ACAD_REACTORS
330
C
102
}
330
C
100
AcDbDictionary
281
     1
  3
A0
350
43
  3
A1
350
44
  3
A2
350
45
  3
A3
350
46
  3
A4
350
47
  3
A5
350
48
  3
A6
350
49
  3
A7
350
4A
  3
A8
350
4B
  3
A9
350
4C
  3
B0
350
4D
  3
B1
350
4E
  3
B2
350
4F
  3
B3
350
50
  3
B4
350
51
  3
B5
350
52
  3
B6
350
53
  0
DICTIONARY
  5
68
102
{ACAD_REACTORS
330
C
102
}
330
C
100
AcDbDictionary
281
     1
  3
Imperial24
350
69
  0
DICTIONARY
  5
64
102
{ACAD_REACTORS
330
C
102
}
330
C
100
AcDbDictionary
281
     1
  3
Standard
350
65
  0
DICTIONARY
  5
29
102
{ACAD_REACTORS
330
C
102
}
330
C
100
AcDbDictionary
281
     1
  3
2dWireframe
350
2F
  3
Basic
350
2E
  3
Brighten
350
35
  3
ColorChange
350
39
  3
Conceptual
350
32
  3
Dim
350
34
  3
EdgeColorOff
350
41
  3
Facepattern
350
38
  3
Flat
350
2A
  3
FlatWithEdges
350
2B
  3
Gouraud
350
2C
  3
GouraudWithEdges
350
2D
  3
Hidden
350
31
  3
JitterOff
350
3F
  3
Linepattern
350
37
  3
OverhangOff
350
40
  3
Realistic
350
33
  3
Shaded
350
3E
  3
Shaded with edges
350
3D
  3
Shades of Gray
350
3A
  3
Sketchy
350
3B
  3
Thicken
350
36
  3
Wireframe
350
30
  3
X-Ray
350
3C
  0
XRECORD
  5
E1
102
{ACAD_REACTORS
330
C
102
}
330
C
100
AcDbXrecord
280
     1
 90
        1
330
65
  0
DICTIONARY
  5
D9
102
{ACAD_REACTORS
330
C
102
}
330
C
100
AcDbDictionary
281
     1
  3
CANNOSCALE
350
DE
  3
CMLEADERSTYLE
350
DB
  3
CTABLESTYLE
350
DA
  3
CVIEWDETAILSTYLE
350
DC
  3
CVIEWSECTIONSTYLE
350
DD
  0
ACDBDETAILVIEWSTYLE
  5
6B
102
{ACAD_REACTORS
330
6A
102
}
330
6A
100
AcDbModelDocViewStyle
 70
     0
  3
Imperial24
290
     1
300
Imperial24
 90
        0
100
AcDbDetailViewStyle
 70
     0
 71
     0
 90
        3
 71
     1
340
55
 62
   256
 40
0.24
340
0
 62
   256
 40
0.24
300

 40
0.36
280
     3
 71
     2
340
5D
 90
       25
 62
   256
 71
     3
340
55
 62
   256
 40
0.24
 90
        1
 40
0.75
 90
        1
300
%<\AcVar ViewType \f "%tc1">% %<\AcVar ViewDetailId>%\PSCALE %<\AcVar ViewScale \f "%sn">%
 71
     4
340
5D
 90
       25
 62
   256
340
5D
 90
       25
 62
   256
280
     0
  0
LAYOUT
  5
6F
102
{ACAD_REACTORS
330
62
102
}
330
62
100
AcDbPlotSettings
  1

  2

  4

  6

 40
0.0
 41
0.0
 42
0.0
 43
0.0
 44
0.0
 45
0.0
 46
0.0
 47
0.0
 48
0.0
 49
0.0
140
0.0
141
0.0
142
1.0
143
1.0
 70
   688
 72
     0
 73
     0
 74
     5
  7

 75
    16
147
1.0
 76
     0
 77
     2
 78
   300
148
0.0
149
0.0
100
AcDbLayout
  1
Layout1
 70
     1
 71
     1
 10
0.0
 20
0.0
 11
12.0
 21
9.0
 12
0.0
 22
0.0
 32
0.0
 14
0.0
 24
0.0
 34
0.0
 15
0.0
 25
0.0
 35
0.0
146
0.0
 13
0.0
 23
0.0
 33
0.0
 16
1.0
 26
0.0
 36
0.0
 17
0.0
 27
1.0
 37
0.0
 76
     0
330
6C
  0
LAYOUT
  5
77
102
{ACAD_REACTORS
330
62
102
}
330
62
100
AcDbPlotSettings
  1

  2

  4

  6

 40
0.0
 41
0.0
 42
0.0
 43
0.0
 44
0.0
 45
0.0
 46
0.0
 47
0.0
 48
0.0
 49
0.0
140
0.0
141
0.0
142
1.0
143
1.0
 70
   688
 72
     0
 73
     0
 74
     5
  7

 75
    16
147
1.0
 76
     0
 77
     2
 78
   300
148
0.0
149
0.0
100
AcDbLayout
  1
Layout2
 70
     1
 71
     2
 10
0.0
 20
0.0
 11
12.0
 21
9.0
 12
0.0
 22
0.0
 32
0.0
 14
0.0
 24
0.0
 34
0.0
 15
0.0
 25
0.0
 35
0.0
146
0.0
 13
0.0
 23
0.0
 33
0.0
 16
1.0
 26
0.0
 36
0.0
 17
0.0
 27
1.0
 37
0.0
 76
     0
330
74
  0
LAYOUT
  5
73
102
{ACAD_REACTORS
330
62
102
}
330
62
100
AcDbPlotSettings
  1

  2

  4

  6

 40
0.0
 41
0.0
 42
0.0
 43
0.0
 44
0.0
 45
0.0
 46
0.0
 47
0.0
 48
0.0
 49
0.0
140
0.0
141
0.0
142
1.0
143
1.0
 70
  1712
 72
     0
 73
     0
 74
     0
  7

 75
     0
147
1.0
 76
     0
 77
     2
 78
   300
148
0.0
149
0.0
100
AcDbLayout
  1
Model
 70
     1
 71
     0
 10
0.0
 20
0.0
 11
12.0
 21
9.0
 12
0.0
 22
0.0
 32
0.0
 14
0.0
 24
0.0
 34
0.0
 15
0.0
 25
0.0
 35
0.0
146
0.0
 13
0.0
 23
0.0
 33
0.0
 16
1.0
 26
0.0
 36
0.0
 17
0.0
 27
1.0
 37
0.0
 76
     0
330
70
  0
MATERIAL
  5
19
102
{ACAD_XDICTIONARY
360
1A
102
}
102
{ACAD_REACTORS
330
10
102
}
330
10
100
AcDbMaterial
  1
ByBlock
 72
     0
 43
0.0208333333333333
 43
0.0
 43
0.0
 43
0.0
 43
0.0
 43
0.0208333333333333
 43
0.0
 43
0.0
 43
0.0
 43
0.0
 43
1.0
 43
0.0
 43
0.0
 43
0.0
 43
0.0
 43
1.0
 77
     0
 47
0.0208333333333333
 47
0.0
 47
0.0
 47
0.0
 47
0.0
 47
0.0208333333333333
 47
0.0
 47
0.0
 47
0.0
 47
0.0
 47
1.0
 47
0.0
 47
0.0
 47
0.0
 47
0.0
 47
1.0
171
     0
 49
0.0208333333333333
 49
0.0
 49
0.0
 49
0.0
 49
0.0
 49
0.0208333333333333
 49
0.0
 49
0.0
 49
0.0
 49
0.0
 49
1.0
 49
0.0
 49
0.0
 49
0.0
 49
0.0
 49
1.0
175
     0
142
0.0208333333333333
142
0.0
142
0.0
142
0.0
142
0.0
142
0.0208333333333333
142
0.0
142
0.0
142
0.0
142
0.0
142
1.0
142
0.0
142
0.0
142
0.0
142
0.0
142
1.0
179
     0
144
0.0208333333333333
144
0.0
144
0.0
144
0.0
144
0.0
144
0.0208333333333333
144
0.0
144
0.0
144
0.0
144
0.0
144
1.0
144
0.0
144
0.0
144
0.0
144
0.0
144
1.0
147
0.0208333333333333
147
0.0
147
0.0
147
0.0
147
0.0
147
0.0208333333333333
147
0.0
147
0.0
147
0.0
147
0.0
147
1.0
147
0.0
147
0.0
147
0.0
147
0.0
147
1.0
  0
MATERIAL
  5
11
102
{ACAD_XDICTIONARY
360
12
102
}
102
{ACAD_REACTORS
330
10
102
}
330
10
100
AcDbMaterial
  1
ByLayer
 72
     0
 43
0.0208333333333333
 43
0.0
 43
0.0
 43
0.0
 43
0.0
 43
0.0208333333333333
 43
0.0
 43
0.0
 43
0.0
 43
0.0
 43
1.0
 43
0.0
 43
0.0
 43
0.0
 43
0.0
 43
1.0
 77
     0
 47
0.0208333333333333
 47
0.0
 47
0.0
 47
0.0
 47
0.0
 47
0.0208333333333333
 47
0.0
 47
0.0
 47
0.0
 47
0.0
 47
1.0
 47
0.0
 47
0.0
 47
0.0
 47
0.0
 47
1.0
171
     0
 49
0.0208333333333333
 49
0.0
 49
0.0
 49
0.0
 49
0.0
 49
0.0208333333333333
 49
0.0
 49
0.0
 49
0.0
 49
0.0
 49
1.0
 49
0.0
 49
0.0
 49
0.0
 49
0.0
 49
1.0
175
     0
142
0.0208333333333333
142
0.0
142
0.0
142
0.0
142
0.0
142
0.0208333333333333
142
0.0
142
0.0
142
0.0
142
0.0
142
1.0
142
0.0
142
0.0
142
0.0
142
0.0
142
1.0
179
     0
144
0.0208333333333333
144
0.0
144
0.0
144
0.0
144
0.0
144
0.0208333333333333
144
0.0
144
0.0
144
0.0
144
0.0
144
1.0
144
0.0
144
0.0
144
0.0
144
0.0
144
1.0
147
0.0208333333333333
147
0.0
147
0.0
147
0.0
147
0.0
147
0.0208333333333333
147
0.0
147
0.0
147
0.0
147
0.0
147
1.0
147
0.0
147
0.0
147
0.0
147
0.0
147
1.0
  0
MATERIAL
  5
21
102
{ACAD_XDICTIONARY
360
22
102
}
102
{ACAD_REACTORS
330
10
102
}
330
10
100
AcDbMaterial
  1
Global
 72
     0
 43
0.0208333333333333
 43
0.0
 43
0.0
 43
0.0
 43
0.0
 43
0.0208333333333333
 43
0.0
 43
0.0
 43
0.0
 43
0.0
 43
1.0
 43
0.0
 43
0.0
 43
0.0
 43
0.0
 43
1.0
 77
     0
 47
0.0208333333333333
 47
0.0
 47
0.0
 47
0.0
 47
0.0
 47
0.0208333333333333
 47
0.0
 47
0.0
 47
0.0
 47
0.0
 47
1.0
 47
0.0
 47
0.0
 47
0.0
 47
0.0
 47
1.0
171
     0
 49
0.0208333333333333
 49
0.0
 49
0.0
 49
0.0
 49
0.0
 49
0.0208333333333333
 49
0.0
 49
0.0
 49
0.0
 49
0.0
 49
1.0
 49
0.0
 49
0.0
 49
0.0
 49
0.0
 49
1.0
175
     0
142
0.0208333333333333
142
0.0
142
0.0
142
0.0
142
0.0
142
0.0208333333333333
142
0.0
142
0.0
142
0.0
142
0.0
142
1.0
142
0.0
142
0.0
142
0.0
142
0.0
142
1.0
179
     0
144
0.0208333333333333
144
0.0
144
0.0
144
0.0
144
0.0
144
0.0208333333333333
144
0.0
144
0.0
144
0.0
144
0.0
144
1.0
144
0.0
144
0.0
144
0.0
144
0.0
144
1.0
147
0.0208333333333333
147
0.0
147
0.0
147
0.0
147
0.0
147
0.0208333333333333
147
0.0
147
0.0
147
0.0
147
0.0
147
1.0
147
0.0
147
0.0
147
0.0
147
0.0
147
1.0
  0
MLEADERSTYLE
  5
67
102
{ACAD_REACTORS
330
66
102
}
330
66
100
AcDbMLeaderStyle
179
     2
170
     2
171
     1
172
     0
 90
        2
 40
0.0
 41
0.0
173
     1
 91
-1056964608
340
5B
 92
       -2
290
     1
 42
0.09
291
     1
 43
0.36
  3
Standard
 44
0.18
300

342
55
174
     1
178
     6
175
     1
176
     0
 93
-1056964608
 45
0.18
292
     0
297
     0
 46
0.18
 94
-1056964608
 47
1.0
 49
1.0
140
1.0
293
     1
141
0.0
294
     1
177
     0
142
1.0
295
     1
296
     0
143
0.125
271
     0
272
     9
273
     9
298
     1
  0
MLINESTYLE
  5
60
102
{ACAD_REACTORS
330
5F
102
}
330
5F
100
AcDbMlineStyle
  2
STANDARD
 70
     0
  3

 62
   256
 51
90.0
 52
90.0
 71
     2
 49
0.5
 62
   256
  6
BYLAYER
 49
-0.5
 62
   256
  6
BYLAYER
  0
ACDBPLACEHOLDER
  5
F
102
{ACAD_REACTORS
330
E
102
}
330
E
  0
SCALE
  5
43
102
{ACAD_REACTORS
330
42
102
}
330
42
100
AcDbScale
 70
     0
300
1:1
140
1.0
141
1.0
290
     1
  0
SCALE
  5
44
102
{ACAD_REACTORS
330
42
102
}
330
42
100
AcDbScale
 70
     0
300
1/128" = 1'-0"
140
0.0078125
141
12.0
290
     0
  0
SCALE
  5
45
102
{ACAD_REACTORS
330
42
102
}
330
42
100
AcDbScale
 70
     0
300
1/64" = 1'-0"
140
0.015625
141
12.0
290
     0
  0
SCALE
  5
46
102
{ACAD_REACTORS
330
42
102
}
330
42
100
AcDbScale
 70
     0
300
1/32" = 1'-0"
140
0.03125
141
12.0
290
     0
  0
SCALE
  5
47
102
{ACAD_REACTORS
330
42
102
}
330
42
100
AcDbScale
 70
     0
300
1/16" = 1'-0"
140
0.0625
141
12.0
290
     0
  0
SCALE
  5
48
102
{ACAD_REACTORS
330
42
102
}
330
42
100
AcDbScale
 70
     0
300
3/32" = 1'-0"
140
0.09375
141
12.0
290
     0
  0
SCALE
  5
49
102
{ACAD_REACTORS
330
42
102
}
330
42
100
AcDbScale
 70
     0
300
1/8" = 1'-0"
140
0.125
141
12.0
290
     0
  0
SCALE
  5
4A
102
{ACAD_REACTORS
330
42
102
}
330
42
100
AcDbScale
 70
     0
300
3/16" = 1'-0"
140
0.1875
141
12.0
290
     0
  0
SCALE
  5
4B
102
{ACAD_REACTORS
330
42
102
}
330
42
100
AcDbScale
 70
     0
300
1/4" = 1'-0"
140
0.25
141
12.0
290
     0
  0
SCALE
  5
4C
102
{ACAD_REACTORS
330
42
102
}
330
42
100
AcDbScale
 70
     0
300
3/8" = 1'-0"
140
0.375
141
12.0
290
     0
  0
SCALE
  5
4D
102
{ACAD_REACTORS
330
42
102
}
330
42
100
AcDbScale
 70
     0
300
1/2" = 1'-0"
140
0.5
141
12.0
290
     0
  0
SCALE
  5
4E
102
{ACAD_REACTORS
330
42
102
}
330
42
100
AcDbScale
 70
     0
300
3/4" = 1'-0"
140
0.75
141
12.0
290
     0
  0
SCALE
  5
4F
102
{ACAD_REACTORS
330
42
102
}
330
42
100
AcDbScale
 70
     0
300
1" = 1'-0"
140
1.0
141
12.0
290
     0
  0
SCALE
  5
50
102
{ACAD_REACTORS
330
42
102
}
330
42
100
AcDbScale
 70
     0
300
1-1/2" = 1'-0"
140
1.5
141
12.0
290
     0
  0
SCALE
  5
51
102
{ACAD_REACTORS
330
42
102
}
330
42
100
AcDbScale
 70
     0
300
3" = 1'-0"
140
3.0
141
12.0
290
     0
  0
SCALE
  5
52
102
{ACAD_REACTORS
330
42
102
}
330
42
100
AcDbScale
 70
     0
300
6" = 1'-0"
140
6.0
141
12.0
290
     0
  0
SCALE
  5
53
102
{ACAD_REACTORS
330
42
102
}
330
42
100
AcDbScale
 70
     0
300
1'-0" = 1'-0"
140
12.0
141
12.0
290
     0
  0
ACDBSECTIONVIEWSTYLE
  5
69
102
{ACAD_REACTORS
330
68
102
}
330
68
100
AcDbModelDocViewStyle
 70
     0
  3
Imperial24
290
     1
300
Imperial24
 90
        0
100
AcDbSectionViewStyle
 70
     0
 71
     0
 90
       78
 71
     1
340
55
 62
   256
 40
0.24
340
0
340
0
 62
   256
 40
0.24
300
I, O, Q, S, X, Z
 40
0.48
 90
        3
 40
0.18
 90
        1
 71
     2
340
5D
 90
       25
 62
   256
340
5D
 90
       50
 62
   256
 40
0.24
 40
0.0
 40
0.24
 71
     3
340
55
 62
   256
 40
0.24
 90
        1
 40
0.75
 90
        1
300
%<\AcVar ViewType \f "%tc1">% %<\AcVar ViewSectionStartId>%-%<\AcVar ViewSectionEndId>%\PSCALE %<\AcVar ViewScale \f "%sn">%
 71
     4
 62
   256
 62
   257
300
ANSI31
 40
1.0
 90
        0
290
     0
290
     0
 90
        6
 40
0.0
 40
1.570796326794896
 40
0.2617993877991494
 40
1.308996938995747
 40
-0.2617993877991494
 40
1.832595714594046
  0
TABLESTYLE
  5
65
102
{ACAD_XDICTIONARY
360
DF
102
}
102
{ACAD_REACTORS
330
64
102
}
330
64
100
AcDbTableStyle
280
     0
  3
Standard
 70
     0
 71
     0
 40
0.06
 41
0.06
280
     0
281
     0
  7
Standard
140
0.18
170
     2
 62
     0
 63
     7
283
     0
 90
      512
 91
        0
  1

274
    -2
284
     1
 64
     0
275
    -2
285
     1
 65
     0
276
    -2
286
     1
 66
     0
277
    -2
287
     1
 67
     0
278
    -2
288
     1
 68
     0
279
    -2
289
     1
 69
     0
  7
Standard
140
0.25
170
     5
 62
     0
 63
     7
283
     0
 90
      512
 91
        0
  1

274
    -2
284
     1
 64
     0
275
    -2
285
     1
 65
     0
276
    -2
286
     1
 66
     0
277
    -2
287
     1
 67
     0
278
    -2
288
     1
 68
     0
279
    -2
289
     1
 69
     0
  7
Standard
140
0.18
170
     5
 62
     0
 63
     7
283
     0
 90
      512
 91
        0
  1

274
    -2
284
     1
 64
     0
275
    -2
285
     1
 65
     0
276
    -2
286
     1
 66
     0
277
    -2
287
     1
 67
     0
278
    -2
288
     1
 68
     0
279
    -2
289
     1
 69
     0
  0
VISUALSTYLE
  5
2F
102
{ACAD_REACTORS
330
29
102
}
330
29
100
AcDbVisualStyle
  2
2dWireframe
 70
     4
177
     3
291
     0
 70
    58
 90
        0
176
     1
 90
        2
176
     1
 90
        0
176
     1
 90
        0
176
     1
 40
0.6
176
     1
 40
30.0
176
     1
 62
     7
420
 16777215
176
     1
 90
        1
176
     1
 90
        4
176
     1
 62
     7
176
     1
 62
   257
176
     1
 90
        1
176
     1
 90
        1
176
     1
 40
1.0
176
     1
 90
        0
176
     1
 62
   257
176
     1
 40
1.0
176
     1
 90
        1
176
     1
 90
        6
176
     1
 90
        2
176
     1
 62
     7
176
     1
 90
        5
176
     1
 90
        0
176
     1
 90
        0
176
     1
290
     0
176
     1
 90
        1
176
     1
 40
0.0
176
     1
 90
        0
176
     1
290
     1
176
     1
290
     1
176
     1
290
     0
176
     1
290
     0
176
     1
290
     0
176
     1
290
     0
176
     1
290
     0
176
     1
290
     0
176
     1
290
     0
176
     1
 90
       50
176
     1
 40
0.0
176
     1
 40
1.0
176
     1
 90
        0
176
     1
 62
    18
420
        0
176
     1
 90
       50
176
     1
 90
        3
176
     1
 62
     5
420
      255
176
     1
290
     0
176
     1
 90
       50
176
     1
 90
       50
176
     1
 90
       50
176
     1
290
     0
176
     1
 90
       50
176
     1
 62
   256
176
     0
 40
1.0
176
     0
 90
        2
176
     1
  1
strokes_ogs.tif
176
     1
290
     0
176
     1
 40
1.0
176
     1
 40
1.0
176
     1
  0
VISUALSTYLE
  5
2E
102
{ACAD_REACTORS
330
29
102
}
330
29
100
AcDbVisualStyle
  2
Basic
 70
     7
177
     3
291
     1
 70
    58
 90
        1
176
     1
 90
        0
176
     1
 90
        1
176
     1
 90
        0
176
     1
 40
0.6
176
     1
 40
30.0
176
     1
 62
     7
420
 16777215
176
     1
 90
        0
176
     1
 90
        4
176
     1
 62
     7
176
     1
 62
   257
176
     1
 90
        1
176
     1
 90
        1
176
     1
 40
1.0
176
     1
 90
        8
176
     1
 62
     7
176
     1
 40
1.0
176
     1
 90
        1
176
     1
 90
        6
176
     1
 90
        2
176
     1
 62
     7
176
     1
 90
        5
176
     1
 90
        0
176
     1
 90
        0
176
     1
290
     0
176
     1
 90
        1
176
     1
 40
0.0
176
     1
 90
        0
176
     1
290
     0
176
     1
290
     1
176
     1
290
     1
176
     1
290
     0
176
     1
290
     0
176
     1
290
     0
176
     1
290
     0
176
     1
290
     0
176
     1
290
     0
176
     1
 90
       50
176
     1
 40
0.0
176
     1
 40
1.0
176
     1
 90
        0
176
     1
 62
    18
420
        0
176
     1
 90
       50
176
     1
 90
        3
176
     1
 62
     5
420
      255
176
     1
290
     0
176
     1
 90
       50
176
     1
 90
       50
176
     1
 90
       50
176
     1
290
     0
176
     1
 90
       50
176
     1
 62
   256
176
     0
 40
1.0
176
     0
 90
        2
176
     1
  1
strokes_ogs.tif
176
     1
290
     0
176
     1
 40
1.0
176
     1
 40
1.0
176
     1
  0
VISUALSTYLE
  5
35
102
{ACAD_REACTORS
330
29
102
}
330
29
100
AcDbVisualStyle
  2
Brighten
 70
    12
177
     3
291
     1
 70
    58
 90
        2
176
     1
 90
        2
176
     1
 90
        0
176
     1
 90
        0
176
     1
 40
0.6
176
     1
 40
30.0
176
     1
 62
     7
420
 16777215
176
     1
 90
        1
176
     1
 90
        4
176
     1
 62
     7
176
     1
 62
   257
176
     1
 90
        1
176
     1
 90
        1
176
     1
 40
1.0
176
     1
 90
        8
176
     1
 62
     7
176
     1
 40
1.0
176
     1
 90
        1
176
     1
 90
        6
176
     1
 90
        2
176
     1
 62
     7
176
     1
 90
        5
176
     1
 90
        0
176
     1
 90
        0
176
     1
290
     0
176
     1
 90
        1
176
     1
 40
50.0
176
     1
 90
        0
176
     1
290
     0
176
     1
290
     1
176
     1
290
     1
176
     1
290
     0
176
     1
290
     0
176
     1
290
     0
176
     1
290
     0
176
     1
290
     0
176
     1
290
     0
176
     1
 90
       50
176
     1
 40
0.0
176
     1
 40
1.0
176
     1
 90
        0
176
     1
 62
    18
420
        0
176
     1
 90
       50
176
     1
 90
        3
176
     1
 62
     5
420
      255
176
     1
290
     0
176
     1
 90
       50
176
     1
 90
       50
176
     1
 90
       50
176
     1
290
     0
176
     1
 90
       50
176
     1
 62
   256
176
     0
 40
1.0
176
     0
 90
        2
176
     1
  1
strokes_ogs.tif
176
     1
290
     0
176
     1
 40
1.0
176
     1
 40
1.0
176
     1
  0
VISUALSTYLE
  5
39
102
{ACAD_REACTORS
330
29
102
}
330
29
100
AcDbVisualStyle
  2
ColorChange
 70
    16
177
     3
291
     1
 70
    58
 90
        2
176
     1
 90
        2
176
     1
 90
        3
176
     1
 90
        0
176
     1
 40
0.6
176
     1
 40
30.0
176
     1
 62
     8
420
  8421504
176
     1
 90
        1
176
     1
 90
        4
176
     1
 62
     7
176
     1
 62
   257
176
     1
 90
        1
176
     1
 90
        1
176
     1
 40
1.0
176
     1
 90
        8
176
     1
 62
     8
420
  8421504
176
     1
 40
1.0
176
     1
 90
        1
176
     1
 90
        6
176
     1
 90
        2
176
     1
 62
     7
176
     1
 90
        5
176
     1
 90
        0
176
     1
 90
        0
176
     1
290
     0
176
     1
 90
        1
176
     1
 40
0.0
176
     1
 90
        0
176
     1
290
     0
176
     1
290
     1
176
     1
290
     1
176
     1
290
     0
176
     1
290
     0
176
     1
290
     0
176
     1
290
     0
176
     1
290
     0
176
     1
290
     0
176
     1
 90
       50
176
     1
 40
0.0
176
     1
 40
1.0
176
     1
 90
        0
176
     1
 62
    18
420
        0
176
     1
 90
       50
176
     1
 90
        3
176
     1
 62
     5
420
      255
176
     1
290
     0
176
     1
 90
       50
176
     1
 90
       50
176
     1
 90
       50
176
     1
290
     0
176
     1
 90
       50
176
     1
 62
   256
176
     0
 40
1.0
176
     0
 90
        2
176
     1
  1
strokes_ogs.tif
176
     1
290
     0
176
     1
 40
1.0
176
     1
 40
1.0
176
     1
  0
VISUALSTYLE
  5
32
102
{ACAD_REACTORS
330
29
102
}
330
29
100
AcDbVisualStyle
  2
Conceptual
 70
     9
177
     3
291
     0
 70
    58
 90
        3
176
     1
 90
        2
176
     1
 90
        0
176
     1
 90
        0
176
     1
 40
0.6
176
     1
 40
30.0
176
     1
 62
     7
420
 16777215
176
     1
 90
        2
176
     1
 90
        2
176
     1
 62
     7
176
     1
 62
   257
176
     1
 90
        1
176
     1
 90
        1
176
     1
 40
179.0
176
     1
 90
        8
176
     1
 62
     7
176
     1
 40
1.0
176
     1
 90
        1
176
     1
 90
        6
176
     1
 90
        2
176
     1
 62
     7
176
     1
 90
        3
176
     1
 90
        0
176
     1
 90
        0
176
     1
290
     0
176
     1
 90
        1
176
     1
 40
0.0
176
     1
 90
        0
176
     1
290
     0
176
     1
290
     1
176
     1
290
     1
176
     1
290
     0
176
     1
290
     0
176
     1
290
     0
176
     1
290
     0
176
     1
290
     0
176
     1
290
     0
176
     1
 90
       50
176
     1
 40
0.0
176
     1
 40
1.0
176
     1
 90
        0
176
     1
 62
    18
420
        0
176
     1
 90
       50
176
     1
 90
        3
176
     1
 62
     5
420
      255
176
     1
290
     0
176
     1
 90
       50
176
     1
 90
       50
176
     1
 90
       50
176
     1
290
     0
176
     1
 90
       50
176
     1
 62
   256
176
     0
 40
1.0
176
     0
 90
        2
176
     1
  1
strokes_ogs.tif
176
     1
290
     0
176
     1
 40
1.0
176
     1
 40
1.0
176
     1
  0
VISUALSTYLE
  5
34
102
{ACAD_REACTORS
330
29
102
}
330
29
100
AcDbVisualStyle
  2
Dim
 70
    11
177
     3
291
     1
 70
    58
 90
        2
176
     1
 90
        2
176
     1
 90
        0
176
     1
 90
        0
176
     1
 40
0.6
176
     1
 40
30.0
176
     1
 62
     7
420
 16777215
176
     1
 90
        1
176
     1
 90
        4
176
     1
 62
     7
176
     1
 62
   257
176
     1
 90
        1
176
     1
 90
        1
176
     1
 40
1.0
176
     1
 90
        8
176
     1
 62
     7
176
     1
 40
1.0
176
     1
 90
        1
176
     1
 90
        6
176
     1
 90
        2
176
     1
 62
     7
176
     1
 90
        5
176
     1
 90
        0
176
     1
 90
        0
176
     1
290
     0
176
     1
 90
        1
176
     1
 40
-50.0
176
     1
 90
        0
176
     1
290
     0
176
     1
290
     1
176
     1
290
     1
176
     1
290
     0
176
     1
290
     0
176
     1
290
     0
176
     1
290
     0
176
     1
290
     0
176
     1
290
     0
176
     1
 90
       50
176
     1
 40
0.0
176
     1
 40
1.0
176
     1
 90
        0
176
     1
 62
    18
420
        0
176
     1
 90
       50
176
     1
 90
        3
176
     1
 62
     5
420
      255
176
     1
290
     0
176
     1
 90
       50
176
     1
 90
       50
176
     1
 90
       50
176
     1
290
     0
176
     1
 90
       50
176
     1
 62
   256
176
     0
 40
1.0
176
     0
 90
        2
176
     1
  1
strokes_ogs.tif
176
     1
290
     0
176
     1
 40
1.0
176
     1
 40
1.0
176
     1
  0
VISUALSTYLE
  5
41
102
{ACAD_REACTORS
330
29
102
}
330
29
100
AcDbVisualStyle
  2
EdgeColorOff
 70
    22
177
     3
291
     1
 70
    58
 90
        2
176
     0
 90
        2
176
     0
 90
        0
176
     0
 90
        0
176
     0
 40
0.6
176
     0
 40
30.0
176
     0
 62
     7
420
 16777215
176
     0
 90
        1
176
     0
 90
        4
176
     0
 62
     7
176
     0
 62
   257
176
     0
 90
        1
176
     0
 90
        1
176
     0
 40
1.0
176
     0
 90
        8
176
     2
 62
     7
176
     0
 40
1.0
176
     0
 90
        1
176
     0
 90
        6
176
     0
 90
        2
176
     0
 62
     7
176
     0
 90
        5
176
     0
 90
        0
176
     0
 90
        0
176
     0
290
     0
176
     0
 90
        1
176
     0
 40
0.0
176
     0
 90
        0
176
     0
290
     0
176
     0
290
     1
176
     0
290
     1
176
     0
290
     0
176
     0
290
     0
176
     0
290
     0
176
     0
290
     0
176
     0
290
     0
176
     0
290
     0
176
     0
 90
       50
176
     0
 40
0.0
176
     0
 40
1.0
176
     0
 90
        0
176
     0
 62
    18
420
        0
176
     0
 90
       50
176
     0
 90
        3
176
     0
 62
     5
420
      255
176
     0
290
     0
176
     0
 90
       50
176
     0
 90
       50
176
     0
 90
       50
176
     0
290
     0
176
     0
 90
       50
176
     0
 62
   256
176
     0
 40
1.0
176
     0
 90
        2
176
     0
  1
strokes_ogs.tif
176
     0
290
     0
176
     0
 40
1.0
176
     0
 40
1.0
176
     0
  0
VISUALSTYLE
  5
38
102
{ACAD_REACTORS
330
29
102
}
330
29
100
AcDbVisualStyle
  2
Facepattern
 70
    15
177
     3
291
     1
 70
    58
 90
        2
176
     1
 90
        2
176
     1
 90
        0
176
     1
 90
        0
176
     1
 40
0.6
176
     1
 40
30.0
176
     1
 62
     7
420
 16777215
176
     1
 90
        1
176
     1
 90
        4
176
     1
 62
     7
176
     1
 62
   257
176
     1
 90
        1
176
     1
 90
        1
176
     1
 40
1.0
176
     1
 90
        8
176
     1
 62
     7
176
     1
 40
1.0
176
     1
 90
        1
176
     1
 90
        6
176
     1
 90
        2
176
     1
 62
     7
176
     1
 90
        5
176
     1
 90
        0
176
     1
 90
        0
176
     1
290
     0
176
     1
 90
        1
176
     1
 40
0.0
176
     1
 90
        0
176
     1
290
     0
176
     1
290
     1
176
     1
290
     1
176
     1
290
     0
176
     1
290
     0
176
     1
290
     0
176
     1
290
     0
176
     1
290
     0
176
     1
290
     0
176
     1
 90
       50
176
     1
 40
0.0
176
     1
 40
1.0
176
     1
 90
        0
176
     1
 62
    18
420
        0
176
     1
 90
       50
176
     1
 90
        3
176
     1
 62
     5
420
      255
176
     1
290
     0
176
     1
 90
       50
176
     1
 90
       50
176
     1
 90
       50
176
     1
290
     0
176
     1
 90
       50
176
     1
 62
   256
176
     0
 40
1.0
176
     0
 90
        2
176
     1
  1
strokes_ogs.tif
176
     1
290
     0
176
     1
 40
1.0
176
     1
 40
1.0
176
     1
  0
VISUALSTYLE
  5
2A
102
{ACAD_REACTORS
330
29
102
}
330
29
100
AcDbVisualStyle
  2
Flat
 70
     0
177
     3
291
     1
 70
    58
 90
        2
176
     1
 90
        1
176
     1
 90
        1
176
     1
 90
        2
176
     1
 40
0.6
176
     1
 40
30.0
176
     1
 62
     7
420
 16777215
176
     1
 90
        0
176
     1
 90
        0
176
     1
 62
     7
176
     1
 62
   257
176
     1
 90
        1
176
     1
 90
        1
176
     1
 40
1.0
176
     1
 90
        8
176
     1
 62
     7
176
     1
 40
1.0
176
     1
 90
        1
176
     1
 90
        6
176
     1
 90
        2
176
     1
 62
     7
176
     1
 90
        5
176
     1
 90
        0
176
     1
 90
        0
176
     1
290
     0
176
     1
 90
       13
176
     1
 40
0.0
176
     1
 90
        0
176
     1
290
     0
176
     1
290
     1
176
     1
290
     1
176
     1
290
     0
176
     1
290
     0
176
     1
290
     0
176
     1
290
     0
176
     1
290
     0
176
     1
290
     0
176
     1
 90
       50
176
     1
 40
0.0
176
     1
 40
1.0
176
     1
 90
        0
176
     1
 62
    18
420
        0
176
     1
 90
       50
176
     1
 90
        3
176
     1
 62
     5
420
      255
176
     1
290
     0
176
     1
 90
       50
176
     1
 90
       50
176
     1
 90
       50
176
     1
290
     0
176
     1
 90
       50
176
     1
 62
   256
176
     0
 40
1.0
176
     0
 90
        2
176
     1
  1
strokes_ogs.tif
176
     1
290
     0
176
     1
 40
1.0
176
     1
 40
1.0
176
     1
  0
VISUALSTYLE
  5
2B
102
{ACAD_REACTORS
330
29
102
}
330
29
100
AcDbVisualStyle
  2
FlatWithEdges
 70
     1
177
     3
291
     1
 70
    58
 90
        2
176
     1
 90
        1
176
     1
 90
        1
176
     1
 90
        2
176
     1
 40
0.6
176
     1
 40
30.0
176
     1
 62
     7
420
 16777215
176
     1
 90
        1
176
     1
 90
        0
176
     1
 62
     7
176
     1
 62
   257
176
     1
 90
        1
176
     1
 90
        1
176
     1
 40
1.0
176
     1
 90
        0
176
     1
 62
   257
176
     1
 40
1.0
176
     1
 90
        1
176
     1
 90
        6
176
     1
 90
        2
176
     1
 62
     7
176
     1
 90
        5
176
     1
 90
        0
176
     1
 90
        0
176
     1
290
     0
176
     1
 90
       13
176
     1
 40
0.0
176
     1
 90
        0
176
     1
290
     0
176
     1
290
     1
176
     1
290
     1
176
     1
290
     0
176
     1
290
     0
176
     1
290
     0
176
     1
290
     0
176
     1
290
     0
176
     1
290
     0
176
     1
 90
       50
176
     1
 40
0.0
176
     1
 40
1.0
176
     1
 90
        0
176
     1
 62
    18
420
        0
176
     1
 90
       50
176
     1
 90
        3
176
     1
 62
     5
420
      255
176
     1
290
     0
176
     1
 90
       50
176
     1
 90
       50
176
     1
 90
       50
176
     1
290
     0
176
     1
 90
       50
176
     1
 62
   256
176
     0
 40
1.0
176
     0
 90
        2
176
     1
  1
strokes_ogs.tif
176
     1
290
     0
176
     1
 40
1.0
176
     1
 40
1.0
176
     1
  0
VISUALSTYLE
  5
2C
102
{ACAD_REACTORS
330
29
102
}
330
29
100
AcDbVisualStyle
  2
Gouraud
 70
     2
177
     3
291
     1
 70
    58
 90
        2
176
     1
 90
        2
176
     1
 90
        1
176
     1
 90
        2
176
     1
 40
0.6
176
     1
 40
30.0
176
     1
 62
     7
420
 16777215
176
     1
 90
        0
176
     1
 90
        0
176
     1
 62
     7
176
     1
 62
   257
176
     1
 90
        1
176
     1
 90
        1
176
     1
 40
1.0
176
     1
 90
        0
176
     1
 62
     7
176
     1
 40
1.0
176
     1
 90
        1
176
     1
 90
        6
176
     1
 90
        2
176
     1
 62
     7
176
     1
 90
        5
176
     1
 90
        0
176
     1
 90
        0
176
     1
290
     0
176
     1
 90
       13
176
     1
 40
0.0
176
     1
 90
        0
176
     1
290
     0
176
     1
290
     1
176
     1
290
     1
176
     1
290
     0
176
     1
290
     0
176
     1
290
     0
176
     1
290
     0
176
     1
290
     0
176
     1
290
     0
176
     1
 90
       50
176
     1
 40
0.0
176
     1
 40
1.0
176
     1
 90
        0
176
     1
 62
    18
420
        0
176
     1
 90
       50
176
     1
 90
        3
176
     1
 62
     5
420
      255
176
     1
290
     0
176
     1
 90
       50
176
     1
 90
       50
176
     1
 90
       50
176
     1
290
     0
176
     1
 90
       50
176
     1
 62
   256
176
     0
 40
1.0
176
     0
 90
        2
176
     1
  1
strokes_ogs.tif
176
     1
290
     0
176
     1
 40
1.0
176
     1
 40
1.0
176
     1
  0
VISUALSTYLE
  5
2D
102
{ACAD_REACTORS
330
29
102
}
330
29
100
AcDbVisualStyle
  2
GouraudWithEdges
 70
     3
177
     3
291
     1
 70
    58
 90
        2
176
     1
 90
        2
176
     1
 90
        1
176
     1
 90
        2
176
     1
 40
0.6
176
     1
 40
30.0
176
     1
 62
     7
420
 16777215
176
     1
 90
        1
176
     1
 90
        0
176
     1
 62
     7
176
     1
 62
   257
176
     1
 90
        1
176
     1
 90
        1
176
     1
 40
1.0
176
     1
 90
        0
176
     1
 62
   257
176
     1
 40
1.0
176
     1
 90
        1
176
     1
 90
        6
176
     1
 90
        2
176
     1
 62
     7
176
     1
 90
        5
176
     1
 90
        0
176
     1
 90
        0
176
     1
290
     0
176
     1
 90
       13
176
     1
 40
0.0
176
     1
 90
        0
176
     1
290
     0
176
     1
290
     1
176
     1
290
     1
176
     1
290
     0
176
     1
290
     0
176
     1
290
     0
176
     1
290
     0
176
     1
290
     0
176
     1
290
     0
176
     1
 90
       50
176
     1
 40
0.0
176
     1
 40
1.0
176
     1
 90
        0
176
     1
 62
    18
420
        0
176
     1
 90
       50
176
     1
 90
        3
176
     1
 62
     5
420
      255
176
     1
290
     0
176
     1
 90
       50
176
     1
 90
       50
176
     1
 90
       50
176
     1
290
     0
176
     1
 90
       50
176
     1
 62
   256
176
     0
 40
1.0
176
     0
 90
        2
176
     1
  1
strokes_ogs.tif
176
     1
290
     0
176
     1
 40
1.0
176
     1
 40
1.0
176
     1
  0
VISUALSTYLE
  5
31
102
{ACAD_REACTORS
330
29
102
}
330
29
100
AcDbVisualStyle
  2
Hidden
 70
     6
177
     3
291
     0
 70
    58
 90
        1
176
     1
 90
        2
176
     1
 90
        2
176
     1
 90
        0
176
     1
 40
0.6
176
     1
 40
30.0
176
     1
 62
     7
420
 16777215
176
     1
 90
        2
176
     1
 90
        2
176
     1
 62
     7
176
     1
 62
   257
176
     1
 90
        2
176
     1
 90
        1
176
     1
 40
40.0
176
     1
 90
        0
176
     1
 62
   257
176
     1
 40
1.0
176
     1
 90
        1
176
     1
 90
        6
176
     1
 90
        2
176
     1
 62
     7
176
     1
 90
        3
176
     1
 90
        0
176
     1
 90
        0
176
     1
290
     0
176
     1
 90
        1
176
     1
 40
0.0
176
     1
 90
        0
176
     1
290
     0
176
     1
290
     1
176
     1
290
     1
176
     1
290
     0
176
     1
290
     0
176
     1
290
     0
176
     1
290
     0
176
     1
290
     0
176
     1
290
     0
176
     1
 90
       50
176
     1
 40
0.0
176
     1
 40
1.0
176
     1
 90
        0
176
     1
 62
    18
420
        0
176
     1
 90
       50
176
     1
 90
        3
176
     1
 62
     5
420
      255
176
     1
290
     0
176
     1
 90
       50
176
     1
 90
       50
176
     1
 90
       50
176
     1
290
     0
176
     1
 90
       50
176
     1
 62
   256
176
     0
 40
1.0
176
     0
 90
        2
176
     1
  1
strokes_ogs.tif
176
     1
290
     0
176
     1
 40
1.0
176
     1
 40
1.0
176
     1
  0
VISUALSTYLE
  5
3F
102
{ACAD_REACTORS
330
29
102
}
330
29
100
AcDbVisualStyle
  2
JitterOff
 70
    20
177
     3
291
     1
 70
    58
 90
        2
176
     0
 90
        2
176
     0
 90
        0
176
     0
 90
        0
176
     0
 40
0.6
176
     0
 40
30.0
176
     0
 62
     7
420
 16777215
176
     0
 90
        1
176
     0
 90
        4
176
     0
 62
     7
176
     0
 62
   257
176
     0
 90
        1
176
     0
 90
        1
176
     0
 40
1.0
176
     0
 90
       10
176
     2
 62
     7
176
     0
 40
1.0
176
     0
 90
        1
176
     0
 90
        6
176
     0
 90
        2
176
     0
 62
     7
176
     0
 90
        5
176
     0
 90
        0
176
     0
 90
        0
176
     0
290
     0
176
     0
 90
        1
176
     0
 40
0.0
176
     0
 90
        0
176
     0
290
     0
176
     0
290
     1
176
     0
290
     1
176
     0
290
     0
176
     0
290
     0
176
     0
290
     0
176
     0
290
     0
176
     0
290
     0
176
     0
290
     0
176
     0
 90
       50
176
     0
 40
0.0
176
     0
 40
1.0
176
     0
 90
        0
176
     0
 62
    18
420
        0
176
     0
 90
       50
176
     0
 90
        3
176
     0
 62
     5
420
      255
176
     0
290
     0
176
     0
 90
       50
176
     0
 90
       50
176
     0
 90
       50
176
     0
290
     0
176
     0
 90
       50
176
     0
 62
   256
176
     0
 40
1.0
176
     0
 90
        2
176
     0
  1
strokes_ogs.tif
176
     0
290
     0
176
     0
 40
1.0
176
     0
 40
1.0
176
     0
  0
VISUALSTYLE
  5
37
102
{ACAD_REACTORS
330
29
102
}
330
29
100
AcDbVisualStyle
  2
Linepattern
 70
    14
177
     3
291
     1
 70
    58
 90
        2
176
     1
 90
        2
176
     1
 90
        0
176
     1
 90
        0
176
     1
 40
0.6
176
     1
 40
30.0
176
     1
 62
     7
420
 16777215
176
     1
 90
        1
176
     1
 90
        4
176
     1
 62
     7
176
     1
 62
   257
176
     1
 90
        7
176
     1
 90
        7
176
     1
 40
1.0
176
     1
 90
        8
176
     1
 62
     7
176
     1
 40
1.0
176
     1
 90
        1
176
     1
 90
        6
176
     1
 90
        2
176
     1
 62
     7
176
     1
 90
        5
176
     1
 90
        0
176
     1
 90
        0
176
     1
290
     0
176
     1
 90
        1
176
     1
 40
0.0
176
     1
 90
        0
176
     1
290
     0
176
     1
290
     1
176
     1
290
     1
176
     1
290
     0
176
     1
290
     0
176
     1
290
     0
176
     1
290
     0
176
     1
290
     0
176
     1
290
     0
176
     1
 90
       50
176
     1
 40
0.0
176
     1
 40
1.0
176
     1
 90
        0
176
     1
 62
    18
420
        0
176
     1
 90
       50
176
     1
 90
        3
176
     1
 62
     5
420
      255
176
     1
290
     0
176
     1
 90
       50
176
     1
 90
       50
176
     1
 90
       50
176
     1
290
     0
176
     1
 90
       50
176
     1
 62
   256
176
     0
 40
1.0
176
     0
 90
        2
176
     1
  1
strokes_ogs.tif
176
     1
290
     0
176
     1
 40
1.0
176
     1
 40
1.0
176
     1
  0
VISUALSTYLE
  5
40
102
{ACAD_REACTORS
330
29
102
}
330
29
100
AcDbVisualStyle
  2
OverhangOff
 70
    21
177
     3
291
     1
 70
    58
 90
        2
176
     0
 90
        2
176
     0
 90
        0
176
     0
 90
        0
176
     0
 40
0.6
176
     0
 40
30.0
176
     0
 62
     7
420
 16777215
176
     0
 90
        1
176
     0
 90
        4
176
     0
 62
     7
176
     0
 62
   257
176
     0
 90
        1
176
     0
 90
        1
176
     0
 40
1.0
176
     0
 90
        9
176
     2
 62
     7
176
     0
 40
1.0
176
     0
 90
        1
176
     0
 90
        6
176
     0
 90
        2
176
     0
 62
     7
176
     0
 90
        5
176
     0
 90
        0
176
     0
 90
        0
176
     0
290
     0
176
     0
 90
        1
176
     0
 40
0.0
176
     0
 90
        0
176
     0
290
     0
176
     0
290
     1
176
     0
290
     1
176
     0
290
     0
176
     0
290
     0
176
     0
290
     0
176
     0
290
     0
176
     0
290
     0
176
     0
290
     0
176
     0
 90
       50
176
     0
 40
0.0
176
     0
 40
1.0
176
     0
 90
        0
176
     0
 62
    18
420
        0
176
     0
 90
       50
176
     0
 90
        3
176
     0
 62
     5
420
      255
176
     0
290
     0
176
     0
 90
       50
176
     0
 90
       50
176
     0
 90
       50
176
     0
290
     0
176
     0
 90
       50
176
     0
 62
   256
176
     0
 40
1.0
176
     0
 90
        2
176
     0
  1
strokes_ogs.tif
176
     0
290
     0
176
     0
 40
1.0
176
     0
 40
1.0
176
     0
  0
VISUALSTYLE
  5
33
102
{ACAD_REACTORS
330
29
102
}
330
29
100
AcDbVisualStyle
  2
Realistic
 70
     8
177
     3
291
     0
 70
    58
 90
        2
176
     1
 90
        3
176
     1
 90
        0
176
     1
 90
        2
176
     1
 40
0.6
176
     1
 40
30.0
176
     1
 62
     7
420
 16777215
176
     1
 90
        0
176
     1
 90
        0
176
     1
 62
     7
176
     1
 62
   257
176
     1
 90
        1
176
     1
 90
        1
176
     1
 40
1.0
176
     1
 90
        8
176
     1
 62
   257
176
     1
 40
1.0
176
     1
 90
        1
176
     1
 90
        6
176
     1
 90
        2
176
     1
 62
     7
176
     1
 90
        3
176
     1
 90
        0
176
     1
 90
        0
176
     1
290
     0
176
     1
 90
       13
176
     1
 40
0.0
176
     1
 90
        0
176
     1
290
     0
176
     1
290
     1
176
     1
290
     1
176
     1
290
     0
176
     1
290
     0
176
     1
290
     0
176
     1
290
     0
176
     1
290
     0
176
     1
290
     0
176
     1
 90
       50
176
     1
 40
0.0
176
     1
 40
1.0
176
     1
 90
        0
176
     1
 62
    18
420
        0
176
     1
 90
       50
176
     1
 90
        3
176
     1
 62
     5
420
      255
176
     1
290
     0
176
     1
 90
       50
176
     1
 90
       50
176
     1
 90
       50
176
     1
290
     0
176
     1
 90
       50
176
     1
 62
   256
176
     0
 40
1.0
176
     0
 90
        2
176
     1
  1
strokes_ogs.tif
176
     1
290
     0
176
     1
 40
1.0
176
     1
 40
1.0
176
     1
  0
VISUALSTYLE
  5
3E
102
{ACAD_REACTORS
330
29
102
}
330
29
100
AcDbVisualStyle
  2
Shaded
 70
    27
177
     3
291
     0
 70
    58
 90
        2
176
     1
 90
        2
176
     1
 90
        1
176
     1
 90
        2
176
     1
 40
0.6
176
     1
 40
30.0
176
     1
 62
     7
420
 16777215
176
     1
 90
        0
176
     1
 90
        4
176
     1
 62
     7
176
     1
 62
   257
176
     1
 90
        1
176
     1
 90
        1
176
     1
 40
1.0
176
     1
 90
        8
176
     1
 62
   257
176
     1
 40
1.0
176
     1
 90
        1
176
     1
 90
        6
176
     1
 90
        2
176
     1
 62
     8
420
  7895160
176
     1
 90
        3
176
     1
 90
        0
176
     1
 90
        0
176
     1
290
     0
176
     1
 90
        5
176
     1
 40
0.0
176
     1
 90
        0
176
     1
290
     0
176
     1
290
     1
176
     1
290
     1
176
     1
290
     0
176
     1
290
     0
176
     1
290
     0
176
     1
290
     0
176
     1
290
     0
176
     1
290
     0
176
     1
 90
       50
176
     1
 40
0.0
176
     1
 40
1.0
176
     1
 90
        0
176
     1
 62
    18
420
        0
176
     1
 90
       50
176
     1
 90
        3
176
     1
 62
     5
420
      255
176
     1
290
     0
176
     1
 90
       50
176
     1
 90
       50
176
     1
 90
       50
176
     1
290
     0
176
     1
 90
       50
176
     1
 62
   256
176
     0
 40
1.0
176
     0
 90
        2
176
     1
  1
strokes_ogs.tif
176
     1
290
     0
176
     1
 40
1.0
176
     1
 40
1.0
176
     1
  0
VISUALSTYLE
  5
3D
102
{ACAD_REACTORS
330
29
102
}
330
29
100
AcDbVisualStyle
  2
Shaded with edges
 70
    26
177
     3
291
     0
 70
    58
 90
        2
176
     1
 90
        2
176
     1
 90
        1
176
     1
 90
        2
176
     1
 40
0.6
176
     1
 40
30.0
176
     1
 62
     7
420
 16777215
176
     1
 90
        1
176
     1
 90
        2
176
     1
 62
     7
176
     1
 62
   257
176
     1
 90
        2
176
     1
 90
        1
176
     1
 40
1.0
176
     1
 90
        8
176
     1
 62
   257
176
     1
 40
1.0
176
     1
 90
        1
176
     1
 90
        6
176
     1
 90
        2
176
     1
 62
     7
176
     1
 90
        3
176
     1
 90
        0
176
     1
 90
        0
176
     1
290
     0
176
     1
 90
        5
176
     1
 40
0.0
176
     1
 90
        0
176
     1
290
     0
176
     1
290
     1
176
     1
290
     1
176
     1
290
     0
176
     1
290
     0
176
     1
290
     0
176
     1
290
     0
176
     1
290
     0
176
     1
290
     0
176
     1
 90
       50
176
     1
 40
0.0
176
     1
 40
1.0
176
     1
 90
        0
176
     1
 62
    18
420
        0
176
     1
 90
       50
176
     1
 90
        3
176
     1
 62
     5
420
      255
176
     1
290
     0
176
     1
 90
       50
176
     1
 90
       50
176
     1
 90
       50
176
     1
290
     0
176
     1
 90
       50
176
     1
 62
   256
176
     0
 40
1.0
176
     0
 90
        2
176
     1
  1
strokes_ogs.tif
176
     1
290
     0
176
     1
 40
1.0
176
     1
 40
1.0
176
     1
  0
VISUALSTYLE
  5
3A
102
{ACAD_REACTORS
330
29
102
}
330
29
100
AcDbVisualStyle
  2
Shades of Gray
 70
    23
177
     3
291
     0
 70
    58
 90
        2
176
     1
 90
        2
176
     1
 90
        3
176
     1
 90
        0
176
     1
 40
0.6
176
     1
 40
30.0
176
     1
 62
     7
420
 16777215
176
     1
 90
        2
176
     1
 90
        2
176
     1
 62
     7
176
     1
 62
     7
176
     1
 90
        1
176
     1
 90
        1
176
     1
 40
40.0
176
     1
 90
        8
176
     1
 62
     7
176
     1
 40
1.0
176
     1
 90
        1
176
     1
 90
        6
176
     1
 90
        2
176
     1
 62
     7
176
     1
 90
        3
176
     1
 90
        0
176
     1
 90
        0
176
     1
290
     0
176
     1
 90
        1
176
     1
 40
0.0
176
     1
 90
        0
176
     1
290
     0
176
     1
290
     1
176
     1
290
     1
176
     1
290
     0
176
     1
290
     0
176
     1
290
     0
176
     1
290
     0
176
     1
290
     0
176
     1
290
     0
176
     1
 90
       50
176
     1
 40
0.0
176
     1
 40
1.0
176
     1
 90
        0
176
     1
 62
    18
420
        0
176
     1
 90
       50
176
     1
 90
        3
176
     1
 62
     5
420
      255
176
     1
290
     0
176
     1
 90
       50
176
     1
 90
       50
176
     1
 90
       50
176
     1
290
     0
176
     1
 90
       50
176
     1
 62
   256
176
     0
 40
1.0
176
     0
 90
        2
176
     1
  1
strokes_ogs.tif
176
     1
290
     0
176
     1
 40
1.0
176
     1
 40
1.0
176
     1
  0
VISUALSTYLE
  5
3B
102
{ACAD_REACTORS
330
29
102
}
330
29
100
AcDbVisualStyle
  2
Sketchy
 70
    24
177
     3
291
     0
 70
    58
 90
        1
176
     1
 90
        2
176
     1
 90
        2
176
     1
 90
        0
176
     1
 40
0.6
176
     1
 40
30.0
176
     1
 62
     7
420
 16777215
176
     1
 90
        2
176
     1
 90
        2
176
     1
 62
     7
176
     1
 62
     7
176
     1
 90
        1
176
     1
 90
        1
176
     1
 40
40.0
176
     1
 90
       11
176
     1
 62
     7
176
     1
 40
1.0
176
     1
 90
        1
176
     1
 90
        6
176
     1
 90
        2
176
     1
 62
     7
176
     1
 90
        6
176
     1
 90
        0
176
     1
 90
        0
176
     1
290
     0
176
     1
 90
        1
176
     1
 40
0.0
176
     1
 90
        0
176
     1
290
     0
176
     1
290
     1
176
     1
290
     1
176
     1
290
     0
176
     1
290
     0
176
     1
290
     0
176
     1
290
     0
176
     1
290
     0
176
     1
290
     0
176
     1
 90
       50
176
     1
 40
0.0
176
     1
 40
1.0
176
     1
 90
        0
176
     1
 62
    18
420
        0
176
     1
 90
       50
176
     1
 90
        3
176
     1
 62
     5
420
      255
176
     1
290
     0
176
     1
 90
       50
176
     1
 90
       50
176
     1
 90
       50
176
     1
290
     0
176
     1
 90
       50
176
     1
 62
   256
176
     0
 40
1.0
176
     0
 90
        2
176
     1
  1
strokes_ogs.tif
176
     1
290
     0
176
     1
 40
1.0
176
     1
 40
1.0
176
     1
  0
VISUALSTYLE
  5
36
102
{ACAD_REACTORS
330
29
102
}
330
29
100
AcDbVisualStyle
  2
Thicken
 70
    13
177
     3
291
     1
 70
    58
 90
        2
176
     1
 90
        2
176
     1
 90
        0
176
     1
 90
        0
176
     1
 40
0.6
176
     1
 40
30.0
176
     1
 62
     7
420
 16777215
176
     1
 90
        1
176
     1
 90
        4
176
     1
 62
     7
176
     1
 62
   257
176
     1
 90
        1
176
     1
 90
        1
176
     1
 40
1.0
176
     1
 90
       12
176
     1
 62
     7
176
     1
 40
1.0
176
     1
 90
        1
176
     1
 90
        6
176
     1
 90
        2
176
     1
 62
     7
176
     1
 90
        5
176
     1
 90
        0
176
     1
 90
        0
176
     1
290
     0
176
     1
 90
        1
176
     1
 40
0.0
176
     1
 90
        0
176
     1
290
     0
176
     1
290
     1
176
     1
290
     1
176
     1
290
     0
176
     1
290
     0
176
     1
290
     0
176
     1
290
     0
176
     1
290
     0
176
     1
290
     0
176
     1
 90
       50
176
     1
 40
0.0
176
     1
 40
1.0
176
     1
 90
        0
176
     1
 62
    18
420
        0
176
     1
 90
       50
176
     1
 90
        3
176
     1
 62
     5
420
      255
176
     1
290
     0
176
     1
 90
       50
176
     1
 90
       50
176
     1
 90
       50
176
     1
290
     0
176
     1
 90
       50
176
     1
 62
   256
176
     0
 40
1.0
176
     0
 90
        2
176
     1
  1
strokes_ogs.tif
176
     1
290
     0
176
     1
 40
1.0
176
     1
 40
1.0
176
     1
  0
VISUALSTYLE
  5
30
102
{ACAD_REACTORS
330
29
102
}
330
29
100
AcDbVisualStyle
  2
Wireframe
 70
     5
177
     3
291
     0
 70
    58
 90
        0
176
     1
 90
        2
176
     1
 90
        0
176
     1
 90
        0
176
     1
 40
0.6
176
     1
 40
30.0
176
     1
 62
     7
420
 16777215
176
     1
 90
        1
176
     1
 90
        4
176
     1
 62
     7
176
     1
 62
   257
176
     1
 90
        1
176
     1
 90
        1
176
     1
 40
1.0
176
     1
 90
        0
176
     1
 62
   257
176
     1
 40
1.0
176
     1
 90
        1
176
     1
 90
        6
176
     1
 90
        2
176
     1
 62
     7
176
     1
 90
        3
176
     1
 90
        0
176
     1
 90
        0
176
     1
290
     0
176
     1
 90
        1
176
     1
 40
0.0
176
     1
 90
        0
176
     1
290
     0
176
     1
290
     1
176
     1
290
     1
176
     1
290
     0
176
     1
290
     0
176
     1
290
     0
176
     1
290
     0
176
     1
290
     0
176
     1
290
     0
176
     1
 90
       50
176
     1
 40
0.0
176
     1
 40
1.0
176
     1
 90
        0
176
     1
 62
    18
420
        0
176
     1
 90
       50
176
     1
 90
        3
176
     1
 62
     5
420
      255
176
     1
290
     0
176
     1
 90
       50
176
     1
 90
       50
176
     1
 90
       50
176
     1
290
     0
176
     1
 90
       50
176
     1
 62
   256
176
     0
 40
1.0
176
     0
 90
        2
176
     1
  1
strokes_ogs.tif
176
     1
290
     0
176
     1
 40
1.0
176
     1
 40
1.0
176
     1
  0
VISUALSTYLE
  5
3C
102
{ACAD_REACTORS
330
29
102
}
330
29
100
AcDbVisualStyle
  2
X-Ray
 70
    25
177
     3
291
     0
 70
    58
 90
        2
176
     1
 90
        2
176
     1
 90
        1
176
     1
 90
        1
176
     1
 40
0.5
176
     1
 40
30.0
176
     1
 62
     7
420
 16777215
176
     1
 90
        1
176
     1
 90
        0
176
     1
 62
     7
176
     1
 62
   257
176
     1
 90
        1
176
     1
 90
        1
176
     1
 40
1.0
176
     1
 90
        8
176
     1
 62
     7
176
     1
 40
1.0
176
     1
 90
        1
176
     1
 90
        6
176
     1
 90
        2
176
     1
 62
     7
176
     1
 90
        3
176
     1
 90
        0
176
     1
 90
        0
176
     1
290
     0
176
     1
 90
       13
176
     1
 40
0.0
176
     1
 90
        0
176
     1
290
     0
176
     1
290
     1
176
     1
290
     1
176
     1
290
     0
176
     1
290
     0
176
     1
290
     0
176
     1
290
     0
176
     1
290
     0
176
     1
290
     0
176
     1
 90
       50
176
     1
 40
0.0
176
     1
 40
1.0
176
     1
 90
        0
176
     1
 62
    18
420
        0
176
     1
 90
       50
176
     1
 90
        3
176
     1
 62
     5
420
      255
176
     1
290
     0
176
     1
 90
       50
176
     1
 90
       50
176
     1
 90
       50
176
     1
290
     0
176
     1
 90
       50
176
     1
 62
   256
176
     0
 40
1.0
176
     0
 90
        2
176
     1
  1
strokes_ogs.tif
176
     1
290
     0
176
     1
 40
1.0
176
     1
 40
1.0
176
     1
  0
DICTIONARYVAR
  5
DE
102
{ACAD_REACTORS
330
D9
102
}
330
D9
100
DictionaryVariables
280
     0
  1
1:1
  0
DICTIONARYVAR
  5
DB
102
{ACAD_REACTORS
330
D9
102
}
330
D9
100
DictionaryVariables
280
     0
  1
STANDARD
  0
DICTIONARYVAR
  5
DA
102
{ACAD_REACTORS
330
D9
102
}
330
D9
100
DictionaryVariables
280
     0
  1
STANDARD
  0
DICTIONARYVAR
  5
DC
102
{ACAD_REACTORS
330
D9
102
}
330
D9
100
DictionaryVariables
280
     0
  1
Imperial24
  0
DICTIONARYVAR
  5
DD
102
{ACAD_REACTORS
330
D9
102
}
330
D9
100
DictionaryVariables
280
     0
  1
Imperial24
  0
DICTIONARY
  5
1A
330
19
100
AcDbDictionary
280
     1
281
     1
  3
BUMPTILE
360
1C
  3
DIFFUSETILE
360
1B
  3
OPACITYTILE
360
1F
  3
REFLECTIONTILE
360
1E
  3
REFRACTIONTILE
360
20
  3
SPECULARTILE
360
1D
  0
DICTIONARY
  5
12
330
11
100
AcDbDictionary
280
     1
281
     1
  3
BUMPTILE
360
14
  3
DIFFUSETILE
360
13
  3
OPACITYTILE
360
17
  3
REFLECTIONTILE
360
16
  3
REFRACTIONTILE
360
18
  3
SPECULARTILE
360
15
  0
DICTIONARY
  5
22
330
21
100
AcDbDictionary
280
     1
281
     1
  3
BUMPTILE
360
24
  3
DIFFUSETILE
360
23
  3
OPACITYTILE
360
27
  3
REFLECTIONTILE
360
26
  3
REFRACTIONTILE
360
28
  3
SPECULARTILE
360
25
  0
DICTIONARY
  5
DF
330
65
100
AcDbDictionary
280
     1
281
     1
  3
ACAD_ROUNDTRIP_2008_TABLESTYLE_CELLSTYLEMAP
360
E0
  0
XRECORD
  5
1C
102
{ACAD_REACTORS
330
1A
102
}
330
1A
100
AcDbXrecord
280
     1
270
     1
271
     1
  0
XRECORD
  5
1B
102
{ACAD_REACTORS
330
1A
102
}
330
1A
100
AcDbXrecord
280
     1
270
     1
271
     1
  0
XRECORD
  5
1F
102
{ACAD_REACTORS
330
1A
102
}
330
1A
100
AcDbXrecord
280
     1
270
     1
271
     1
  0
XRECORD
  5
1E
102
{ACAD_REACTORS
330
1A
102
}
330
1A
100
AcDbXrecord
280
     1
270
     1
271
     1
  0
XRECORD
  5
20
102
{ACAD_REACTORS
330
1A
102
}
330
1A
100
AcDbXrecord
280
     1
270
     1
271
     1
  0
XRECORD
  5
1D
102
{ACAD_REACTORS
330
1A
102
}
330
1A
100
AcDbXrecord
280
     1
270
     1
271
     1
  0
XRECORD
  5
14
102
{ACAD_REACTORS
330
12
102
}
330
12
100
AcDbXrecord
280
     1
270
     1
271
     1
  0
XRECORD
  5
13
102
{ACAD_REACTORS
330
12
102
}
330
12
100
AcDbXrecord
280
     1
270
     1
271
     1
  0
XRECORD
  5
17
102
{ACAD_REACTORS
330
12
102
}
330
12
100
AcDbXrecord
280
     1
270
     1
271
     1
  0
XRECORD
  5
16
102
{ACAD_REACTORS
330
12
102
}
330
12
100
AcDbXrecord
280
     1
270
     1
271
     1
  0
XRECORD
  5
18
102
{ACAD_REACTORS
330
12
102
}
330
12
100
AcDbXrecord
280
     1
270
     1
271
     1
  0
XRECORD
  5
15
102
{ACAD_REACTORS
330
12
102
}
330
12
100
AcDbXrecord
280
     1
270
     1
271
     1
  0
XRECORD
  5
24
102
{ACAD_REACTORS
330
22
102
}
330
22
100
AcDbXrecord
280
     1
270
     1
271
     1
  0
XRECORD
  5
23
102
{ACAD_REACTORS
330
22
102
}
330
22
100
AcDbXrecord
280
     1
270
     1
271
     1
  0
XRECORD
  5
27
102
{ACAD_REACTORS
330
22
102
}
330
22
100
AcDbXrecord
280
     1
270
     1
271
     1
  0
XRECORD
  5
26
102
{ACAD_REACTORS
330
22
102
}
330
22
100
AcDbXrecord
280
     1
270
     1
271
     1
  0
XRECORD
  5
28
102
{ACAD_REACTORS
330
22
102
}
330
22
100
AcDbXrecord
280
     1
270
     1
271
     1
  0
XRECORD
  5
25
102
{ACAD_REACTORS
330
22
102
}
330
22
100
AcDbXrecord
280
     1
270
     1
271
     1
  0
CELLSTYLEMAP
  5
E0
102
{ACAD_REACTORS
330
DF
102
}
330
DF
100
AcDbCellStyleMap
 90
        3
300
CELLSTYLE
  1
TABLEFORMAT_BEGIN
 90
        5
170
     1
 91
        0
 92
    32768
 62
   257
 93
        1
300
CONTENTFORMAT
  1
CONTENTFORMAT_BEGIN
 90
        0
 91
        0
 92
      512
 93
        0
300

 40
0.0
140
1.0
 94
        5
 62
     0
340
55
144
0.25
309
CONTENTFORMAT_END
171
     0
 94
        0
309
TABLEFORMAT_END
  1
CELLSTYLE_BEGIN
 90
        1
 91
        1
300
_TITLE
309
CELLSTYLE_END
300
CELLSTYLE
  1
TABLEFORMAT_BEGIN
 90
        5
170
     1
 91
        0
 92
        0
 62
   257
 93
        1
300
CONTENTFORMAT
  1
CONTENTFORMAT_BEGIN
 90
        0
 91
        0
 92
      512
 93
        0
300

 40
0.0
140
1.0
 94
        5
 62
     0
340
55
144
0.18
309
CONTENTFORMAT_END
171
     0
 94
        0
309
TABLEFORMAT_END
  1
CELLSTYLE_BEGIN
 90
        2
 91
        1
300
_HEADER
309
CELLSTYLE_END
300
CELLSTYLE
  1
TABLEFORMAT_BEGIN
 90
        5
170
     1
 91
        0
 92
        0
 62
   257
 93
        1
300
CONTENTFORMAT
  1
CONTENTFORMAT_BEGIN
 90
        0
 91
        0
 92
      512
 93
        0
300

 40
0.0
140
1.0
 94
        2
 62
     0
340
55
144
0.18
309
CONTENTFORMAT_END
171
     0
 94
        0
309
TABLEFORMAT_END
  1
CELLSTYLE_BEGIN
 90
        3
 91
        2
300
_DATA
309
CELLSTYLE_END
  0
ENDSEC
  0
EOF
