<?xml version="1.0" encoding="UTF-8"?>
<svg id="Ebene_1" data-name="Ebene 1" xmlns="http://www.w3.org/2000/svg" width="183.75mm" height="99.55mm" viewBox="0 0 520.86 282.19">
  <defs>
    <style>
      .cls-1 {
        fill: none;
        stroke: blue;
        stroke-miterlimit: 10;
        stroke-width: .28px;
      }

      .cls-2 {
        fill: #f0f;
      }
    </style>
  </defs>
  <g id="Ebene_1-2" data-name="Ebene 1">
    <path id="deleteme" class="cls-1" d="M134.17,87.94c-23.09,0-41.81,18.72-41.81,41.81s18.72,41.81,41.81,41.81,41.81-18.72,41.81-41.81-18.72-41.81-41.81-41.81Zm0,76.54c-19.18,0-34.72-15.55-34.72-34.72s15.55-34.72,34.72-34.72,34.72,15.55,34.72,34.72-15.55,34.72-34.72,34.72h0Z"/>
    <path class="cls-1" d="M330.16,7.56c-1.1,0-1.98,.89-1.98,1.98V280.07c0,1.1,.89,1.98,1.98,1.98h41.32l-21.86-37.88c-.55-.95-.22-2.16,.73-2.71l24.06-13.89c12.4-7.16,25.41-13.36,38.47-18.39l.08-177.02c0-1.1,.89-1.98,1.98-1.98h51.86v-6.56c0-1.1,.89-1.98,1.98-1.98h51.94l-.04-14.09h-190.52Zm5.4,4.43c1.64,0,2.98,1.33,2.98,2.98s-1.33,2.98-2.98,2.98-2.98-1.33-2.98-2.98,1.33-2.98,2.98-2.98Zm0,231.11c-1.64,0-2.98-1.33-2.98-2.98s1.33-2.98,2.98-2.98,2.98,1.33,2.98,2.98-1.33,2.98-2.98,2.98Zm35.02-28.42c-19.18,0-34.72-15.55-34.72-34.72s15.55-34.72,34.72-34.72,34.72,15.55,34.72,34.72-15.55,34.72-34.72,34.72h0ZM511.51,18.03c-1.64,0-2.98-1.33-2.98-2.98s1.33-2.98,2.98-2.98,2.98,1.33,2.98,2.98-1.33,2.98-2.98,2.98h0Z"/>
    <path class="cls-1" d="M60.4,243.6l1.76-25.16H13.53v28.2h6.38c1.1,0,1.98,.89,1.98,1.98l.07,18.43h45.3l42.78,3,3.78-20.73-51.58-3.61c-1.09-.08-1.92-1.02-1.84-2.12h0Zm-31.08,10.44c-.78,0-1.42-.63-1.42-1.42s.63-1.42,1.42-1.42,1.42,.63,1.42,1.42-.63,1.42-1.42,1.42Zm0-5.67c-.78,0-1.42-.63-1.42-1.42s.63-1.42,1.42-1.42,1.42,.63,1.42,1.42-.63,1.42-1.42,1.42Zm0-5.67c-.78,0-1.42-.63-1.42-1.42s.63-1.42,1.42-1.42,1.42,.63,1.42,1.42-.63,1.42-1.42,1.42Zm0-5.67c-.78,0-1.42-.63-1.42-1.42s.63-1.42,1.42-1.42,1.42,.63,1.42,1.42-.63,1.42-1.42,1.42Zm0-5.67c-.78,0-1.42-.63-1.42-1.42s.63-1.42,1.42-1.42,1.42,.63,1.42,1.42-.63,1.42-1.42,1.42Zm5.67,22.68c-.78,0-1.42-.63-1.42-1.42s.63-1.42,1.42-1.42,1.42,.63,1.42,1.42-.63,1.42-1.42,1.42Zm0-5.67c-.78,0-1.42-.63-1.42-1.42s.63-1.42,1.42-1.42,1.42,.63,1.42,1.42-.63,1.42-1.42,1.42Zm0-5.67c-.78,0-1.42-.63-1.42-1.42s.63-1.42,1.42-1.42,1.42,.63,1.42,1.42-.63,1.42-1.42,1.42Zm0-5.67c-.78,0-1.42-.63-1.42-1.42s.63-1.42,1.42-1.42,1.42,.63,1.42,1.42-.63,1.42-1.42,1.42Zm0-5.67c-.78,0-1.42-.63-1.42-1.42s.63-1.42,1.42-1.42,1.42,.63,1.42,1.42-.63,1.42-1.42,1.42Zm5.67,22.68c-.78,0-1.42-.63-1.42-1.42s.63-1.42,1.42-1.42,1.42,.63,1.42,1.42-.63,1.42-1.42,1.42Zm0-5.67c-.78,0-1.42-.63-1.42-1.42s.63-1.42,1.42-1.42,1.42,.63,1.42,1.42-.63,1.42-1.42,1.42Zm0-5.67c-.78,0-1.42-.63-1.42-1.42s.63-1.42,1.42-1.42,1.42,.63,1.42,1.42-.63,1.42-1.42,1.42Zm0-5.67c-.78,0-1.42-.63-1.42-1.42s.63-1.42,1.42-1.42,1.42,.63,1.42,1.42-.63,1.42-1.42,1.42Zm0-5.67c-.78,0-1.42-.63-1.42-1.42s.63-1.42,1.42-1.42,1.42,.63,1.42,1.42-.63,1.42-1.42,1.42Zm5.67,22.68c-.78,0-1.42-.63-1.42-1.42s.63-1.42,1.42-1.42,1.42,.63,1.42,1.42-.63,1.42-1.42,1.42Zm0-5.67c-.78,0-1.42-.63-1.42-1.42s.63-1.42,1.42-1.42,1.42,.63,1.42,1.42-.63,1.42-1.42,1.42Zm0-5.67c-.78,0-1.42-.63-1.42-1.42s.63-1.42,1.42-1.42,1.42,.63,1.42,1.42-.63,1.42-1.42,1.42Zm0-5.67c-.78,0-1.42-.63-1.42-1.42s.63-1.42,1.42-1.42,1.42,.63,1.42,1.42-.63,1.42-1.42,1.42Zm0-5.67c-.78,0-1.42-.63-1.42-1.42s.63-1.42,1.42-1.42,1.42,.63,1.42,1.42-.63,1.42-1.42,1.42Zm5.67,22.68c-.78,0-1.42-.63-1.42-1.42s.63-1.42,1.42-1.42,1.42,.63,1.42,1.42-.63,1.42-1.42,1.42Zm0-5.67c-.78,0-1.42-.63-1.42-1.42s.63-1.42,1.42-1.42,1.42,.63,1.42,1.42-.63,1.42-1.42,1.42Zm0-5.67c-.78,0-1.42-.63-1.42-1.42s.63-1.42,1.42-1.42,1.42,.63,1.42,1.42-.63,1.42-1.42,1.42Zm0-5.67c-.78,0-1.42-.63-1.42-1.42s.63-1.42,1.42-1.42,1.42,.63,1.42,1.42-.63,1.42-1.42,1.42Zm0-5.67c-.78,0-1.42-.63-1.42-1.42s.63-1.42,1.42-1.42,1.42,.63,1.42,1.42-.63,1.42-1.42,1.42Zm49.34,24.45c1.64,0,2.98,1.33,2.98,2.98s-1.33,2.98-2.98,2.98-2.98-1.33-2.98-2.98,1.33-2.98,2.98-2.98Zm-32.81-2.19c1.64,0,2.98,1.33,2.98,2.98s-1.33,2.98-2.98,2.98-2.98-1.33-2.98-2.98,1.33-2.98,2.98-2.98Z"/>
    <path class="cls-1" d="M520.72,143.67V30.26l-15.86-.03-4.46,63.79h0l-80.89-5.6c-2.05-.14-2.41,2.86-.39,3.21l45.1,7.91c1.08,.19,1.8,1.22,1.61,2.3l-7.72,43.81h60.63c1.1,0,1.98-.89,1.98-1.98h0Zm-10.35-100.64c0-1.64,1.33-2.98,2.98-2.98s2.98,1.33,2.98,2.98-1.33,2.98-2.98,2.98-2.98-1.33-2.98-2.98Zm-2.86,42.07c0-1.64,1.33-2.98,2.98-2.98s2.98,1.33,2.98,2.98-1.33,2.98-2.98,2.98-2.98-1.33-2.98-2.98h0Z"/>
    <path id="deleteme-2" class="cls-1" d="M9.77,164.47c0,23.09,18.72,41.81,41.81,41.81s41.81-18.72,41.81-41.81-18.72-41.81-41.81-41.81-41.81,18.72-41.81,41.81Zm7.09,0c0-19.17,15.55-34.72,34.72-34.72s34.72,15.55,34.72,34.72-15.54,34.72-34.72,34.72-34.72-15.55-34.72-34.72Z"/>
    <path class="cls-1" d="M312.17,7.55H121.65l-.04,14.09h51.94c1.09,0,1.98,.88,1.98,1.98v6.56h51.86c1.09,0,1.98,.88,1.98,1.98l.08,177.02c13.06,5.03,26.07,11.23,38.47,18.39l24.06,13.89c.95,.55,1.28,1.76,.73,2.71l-21.86,37.88h41.32c1.09,0,1.98-.88,1.98-1.98V9.54c0-1.09-.88-1.98-1.98-1.98h0Zm-2.42,7.34c0,1.65-1.33,2.98-2.98,2.98s-2.98-1.33-2.98-2.98,1.34-2.98,2.98-2.98,2.98,1.33,2.98,2.98Zm-5.96,225.15c0-1.65,1.33-2.98,2.98-2.98s2.98,1.33,2.98,2.98-1.34,2.98-2.98,2.98-2.98-1.33-2.98-2.98Zm-66.76-60.16c0-19.17,15.55-34.72,34.72-34.72s34.72,15.55,34.72,34.72-15.54,34.72-34.72,34.72-34.72-15.55-34.72-34.72ZM127.84,15.05c0-1.65,1.33-2.98,2.98-2.98s2.98,1.33,2.98,2.98-1.34,2.98-2.98,2.98-2.98-1.33-2.98-2.98Z"/>
    <path class="cls-1" d="M121.52,55.04c.08,1.1-.75,2.04-1.84,2.12l-51.58,3.61,3.78,20.73,42.78-3h45.3l.07-18.43c0-1.09,.88-1.98,1.98-1.98h6.38V29.89h-48.63l1.76,25.16h0Zm29.66,8.95c0-.79,.63-1.42,1.42-1.42s1.42,.63,1.42,1.42-.64,1.42-1.42,1.42-1.42-.63-1.42-1.42Zm0-5.67c0-.79,.63-1.42,1.42-1.42s1.42,.63,1.42,1.42-.64,1.42-1.42,1.42-1.42-.63-1.42-1.42Zm0-5.67c0-.79,.63-1.42,1.42-1.42s1.42,.63,1.42,1.42-.64,1.42-1.42,1.42-1.42-.63-1.42-1.42Zm0-5.67c0-.79,.63-1.42,1.42-1.42s1.42,.63,1.42,1.42-.64,1.42-1.42,1.42-1.42-.63-1.42-1.42Zm0-5.67c0-.79,.63-1.42,1.42-1.42s1.42,.63,1.42,1.42-.64,1.42-1.42,1.42-1.42-.63-1.42-1.42Zm-5.67,22.68c0-.79,.63-1.42,1.42-1.42s1.42,.63,1.42,1.42-.64,1.42-1.42,1.42-1.42-.63-1.42-1.42Zm0-5.67c0-.79,.63-1.42,1.42-1.42s1.42,.63,1.42,1.42-.64,1.42-1.42,1.42-1.42-.63-1.42-1.42Zm0-5.67c0-.79,.63-1.42,1.42-1.42s1.42,.63,1.42,1.42-.64,1.42-1.42,1.42-1.42-.63-1.42-1.42Zm0-5.67c0-.79,.63-1.42,1.42-1.42s1.42,.63,1.42,1.42-.64,1.42-1.42,1.42-1.42-.63-1.42-1.42Zm0-5.67c0-.79,.63-1.42,1.42-1.42s1.42,.63,1.42,1.42-.64,1.42-1.42,1.42-1.42-.63-1.42-1.42Zm-5.67,22.68c0-.79,.63-1.42,1.42-1.42s1.42,.63,1.42,1.42-.64,1.42-1.42,1.42-1.42-.63-1.42-1.42Zm0-5.67c0-.79,.63-1.42,1.42-1.42s1.42,.63,1.42,1.42-.64,1.42-1.42,1.42-1.42-.63-1.42-1.42Zm0-5.67c0-.79,.63-1.42,1.42-1.42s1.42,.63,1.42,1.42-.64,1.42-1.42,1.42-1.42-.63-1.42-1.42Zm0-5.67c0-.79,.63-1.42,1.42-1.42s1.42,.63,1.42,1.42-.64,1.42-1.42,1.42-1.42-.63-1.42-1.42Zm0-5.67c0-.79,.63-1.42,1.42-1.42s1.42,.63,1.42,1.42-.64,1.42-1.42,1.42-1.42-.63-1.42-1.42Zm-5.67,22.68c0-.79,.63-1.42,1.42-1.42s1.42,.63,1.42,1.42-.64,1.42-1.42,1.42-1.42-.63-1.42-1.42Zm0-5.67c0-.79,.63-1.42,1.42-1.42s1.42,.63,1.42,1.42-.64,1.42-1.42,1.42-1.42-.63-1.42-1.42Zm0-5.67c0-.79,.63-1.42,1.42-1.42s1.42,.63,1.42,1.42-.64,1.42-1.42,1.42-1.42-.63-1.42-1.42Zm0-5.67c0-.79,.63-1.42,1.42-1.42s1.42,.63,1.42,1.42-.64,1.42-1.42,1.42-1.42-.63-1.42-1.42Zm0-5.67c0-.79,.63-1.42,1.42-1.42s1.42,.63,1.42,1.42-.64,1.42-1.42,1.42-1.42-.63-1.42-1.42Zm-5.67,22.68c0-.79,.63-1.42,1.42-1.42s1.42,.63,1.42,1.42-.64,1.42-1.42,1.42-1.42-.63-1.42-1.42Zm0-5.67c0-.79,.63-1.42,1.42-1.42s1.42,.63,1.42,1.42-.64,1.42-1.42,1.42-1.42-.63-1.42-1.42Zm0-5.67c0-.79,.63-1.42,1.42-1.42s1.42,.63,1.42,1.42-.64,1.42-1.42,1.42-1.42-.63-1.42-1.42Zm0-5.67c0-.79,.63-1.42,1.42-1.42s1.42,.63,1.42,1.42-.64,1.42-1.42,1.42-1.42-.63-1.42-1.42Zm0-5.67c0-.79,.63-1.42,1.42-1.42s1.42,.63,1.42,1.42-.64,1.42-1.42,1.42-1.42-.63-1.42-1.42Zm-44.94,28.85c0,1.65-1.33,2.98-2.98,2.98s-2.98-1.33-2.98-2.98,1.34-2.98,2.98-2.98,2.98,1.33,2.98,2.98Zm32.81-2.19c0,1.65-1.33,2.98-2.98,2.98s-2.98-1.33-2.98-2.98,1.34-2.98,2.98-2.98,2.98,1.33,2.98,2.98Z"/>
    <path class="cls-1" d="M.14,9.54v60.63l43.81-7.72c1.08-.19,2.11,.53,2.3,1.61l7.91,45.1c.35,2.02,3.35,1.66,3.21-.39l-5.6-80.89h0l63.79-4.46-.03-15.86H2.12c-1.09,0-1.98,.88-1.98,1.98Zm99.64,5.39c0-1.65,1.33-2.98,2.98-2.98s2.98,1.33,2.98,2.98-1.34,2.98-2.98,2.98-2.98-1.33-2.98-2.98Zm-42.07,2.86c0-1.65,1.33-2.98,2.98-2.98s2.98,1.33,2.98,2.98-1.34,2.98-2.98,2.98-2.98-1.33-2.98-2.98Z"/>
  </g>
  <g id="area_engraving" data-name="area engraving">
    <polygon class="cls-2" points="273.32 17.62 273.32 67 292.52 67 292.52 65.66 274.66 65.66 274.66 17.62 273.32 17.62"/>
    <polygon class="cls-2" points="238.41 49.43 250.06 26.28 261.7 49.43 263.21 49.43 250.81 24.78 263.21 0 261.71 0 238.75 45.75 238.75 0 237.41 0 237.41 49.43 238.41 49.43"/>
    <rect class="cls-2" x="237.19" y="79.02" width="64.01" height="1.34"/>
    <path class="cls-2" d="M343.64,31.01c-13.61,0-24.68,11.07-24.68,24.68s11.07,24.68,24.68,24.68,24.68-11.07,24.68-24.68-11.07-24.68-24.68-24.68Zm0,48.01c-12.87,0-23.33-10.47-23.33-23.33s10.47-23.33,23.33-23.33,23.33,10.47,23.33,23.33-10.47,23.33-23.33,23.33Z"/>
    <path class="cls-2" d="M403.03,44.75V18.51h-25.35v49.4h1.34v-23.17h11.36l11.65,23.17h1.5l-11.65-23.17h11.15Zm-24-1.31V19.85h22.66v23.55h-22.66v.02h0Z"/>
  </g>
</svg>