  0
SECTION
  2
HEADER
  9
$ACADVER
  1
AC1014
  9
$HANDSEED
  5
FFFF
  9
$MEASUREMENT
 70
     1
  0
ENDSEC
  0
SECTION
  2
TABLES
  0
TABLE
  2
VPORT
  5
8
330
0
100
AcDbSymbolTable
 70
     4
  0
VPORT
  5
2E
330
8
100
AcDbSymbolTableRecord
100
AcDbViewportTableRecord
  2
*ACTIVE
 70
     0
 10
0.0
 20
0.0
 11
1.0
 21
1.0
 12
210.0
 22
148.5
 13
0.0
 23
0.0
 14
10.0
 24
10.0
 15
10.0
 25
10.0
 16
0.0
 26
0.0
 36
1.0
 17
0.0
 27
0.0
 37
0.0
 40
341.0
 41
1.24
 42
50.0
 43
0.0
 44
0.0
 50
0.0
 51
0.0
 71
     0
 72
   100
 73
     1
 74
     3
 75
     0
 76
     0
 77
     0
 78
     0
  0
ENDTAB
  0
TABLE
  2
LTYPE
  5
5
330
0
100
AcDbSymbolTable
 70
     1
  0
LTYPE
  5
14
330
5
100
AcDbSymbolTableRecord
100
AcDbLinetypeTableRecord
  2
BYBLOCK
 70
     0
  3

 72
    65
 73
     0
 40
0.0
  0
LTYPE
  5
15
330
5
100
AcDbSymbolTableRecord
100
AcDbLinetypeTableRecord
  2
BYLAYER
 70
     0
  3

 72
    65
 73
     0
 40
0.0
  0
LTYPE
  5
16
330
5
100
AcDbSymbolTableRecord
100
AcDbLinetypeTableRecord
  2
CONTINUOUS
 70
     0
  3
Solid line
 72
    65
 73
     0
 40
0.0
  0
ENDTAB
  0
TABLE
  2
LAYER
  5
2
100
AcDbSymbolTable
 70
1
  0
LAYER
  5
50
100
AcDbSymbolTableRecord
100
AcDbLayerTableRecord
  2
0
 70
0
  6
CONTINUOUS
  0
ENDTAB
  0
TABLE
  2
STYLE
  5
3
330
0
100
AcDbSymbolTable
 70
     1
  0
STYLE
  5
11
330
3
100
AcDbSymbolTableRecord
100
AcDbTextStyleTableRecord
  2
STANDARD
 70
     0
 40
0.0
 41
1.0
 50
0.0
 71
     0
 42
2.5
  3
txt
  4

  0
ENDTAB
  0
TABLE
  2
VIEW
  5
6
330
0
100
AcDbSymbolTable
 70
     0
  0
ENDTAB
  0
TABLE
  2
UCS
  5
7
330
0
100
AcDbSymbolTable
 70
     0
  0
ENDTAB
  0
TABLE
  2
APPID
  5
9
330
0
100
AcDbSymbolTable
 70
     2
  0
APPID
  5
12
330
9
100
AcDbSymbolTableRecord
100
AcDbRegAppTableRecord
  2
ACAD
 70
     0
  0
ENDTAB
  0
TABLE
  2
DIMSTYLE
  5
A
330
0
100
AcDbSymbolTable
 70
     1
  0
DIMSTYLE
105
27
330
A
100
AcDbSymbolTableRecord
100
AcDbDimStyleTableRecord
  2
ISO-25
 70
     0
  3

  4

  5

  6

  7

 40
1.0
 41
2.5
 42
0.625
 43
3.75
 44
1.25
 45
0.0
 46
0.0
 47
0.0
 48
0.0
140
2.5
141
2.5
142
0.0
143
0.03937007874016
144
1.0
145
0.0
146
1.0
147
0.625
 71
     0
 72
     0
 73
     0
 74
     0
 75
     0
 76
     0
 77
     1
 78
     8
170
     0
171
     3
172
     1
173
     0
174
     0
175
     0
176
     0
177
     0
178
     0
270
     2
271
     2
272
     2
273
     2
274
     3
340
11
275
     0
280
     0
281
     0
282
     0
283
     0
284
     8
285
     0
286
     0
287
     3
288
     0
  0
ENDTAB
  0
TABLE
  2
BLOCK_RECORD
  5
1
330
0
100
AcDbSymbolTable
 70
     1
  0
BLOCK_RECORD
  5
1F
330
1
100
AcDbSymbolTableRecord
100
AcDbBlockTableRecord
  2
*MODEL_SPACE
  0
BLOCK_RECORD
  5
1B
330
1
100
AcDbSymbolTableRecord
100
AcDbBlockTableRecord
  2
*PAPER_SPACE
  0
ENDTAB
  0
ENDSEC
  0
SECTION
  2
BLOCKS
  0
BLOCK
  5
20
330
1F
100
AcDbEntity
  8
0
100
AcDbBlockBegin
  2
*MODEL_SPACE
 70
     0
 10
0.0
 20
0.0
 30
0.0
  3
*MODEL_SPACE
  1

  0
ENDBLK
  5
21
330
1F
100
AcDbEntity
  8
0
100
AcDbBlockEnd
  0
BLOCK
  5
1C
330
1B
100
AcDbEntity
 67
     1
  8
0
100
AcDbBlockBegin
  2
*PAPER_SPACE
  1

  0
ENDBLK
  5
1D
330
1B
100
AcDbEntity
 67
     1
  8
0
100
AcDbBlockEnd
  0
ENDSEC
  0
SECTION
  2
ENTITIES
  0
SPLINE
  5
100
100
AcDbEntity
  8
0
 62
7
100
AcDbSpline
 70
8
 71
3
 72
8
 73
4
 74
0
 40
0
 40
0
 40
0
 40
0
 40
1
 40
1
 40
1
 40
1
 10
47.332023
 20
68.526474
 30
0.0
 10
39.186413
 20
68.526474
 30
0.0
 10
32.582437
 20
61.922498
 30
0.0
 10
32.582437
 20
53.776888
 30
0.0
  0
SPLINE
  5
101
100
AcDbEntity
  8
0
 62
7
100
AcDbSpline
 70
8
 71
3
 72
8
 73
4
 74
0
 40
0
 40
0
 40
0
 40
0
 40
1
 40
1
 40
1
 40
1
 10
32.582437
 20
53.776888
 30
0.0
 10
32.582437
 20
45.631279
 30
0.0
 10
39.186413
 20
39.027303
 30
0.0
 10
47.332023
 20
39.027303
 30
0.0
  0
SPLINE
  5
102
100
AcDbEntity
  8
0
 62
7
100
AcDbSpline
 70
8
 71
3
 72
8
 73
4
 74
0
 40
0
 40
0
 40
0
 40
0
 40
1
 40
1
 40
1
 40
1
 10
47.332023
 20
39.027303
 30
0.0
 10
55.477632
 20
39.027303
 30
0.0
 10
62.081608
 20
45.631279
 30
0.0
 10
62.081608
 20
53.776888
 30
0.0
  0
SPLINE
  5
103
100
AcDbEntity
  8
0
 62
7
100
AcDbSpline
 70
8
 71
3
 72
8
 73
4
 74
0
 40
0
 40
0
 40
0
 40
0
 40
1
 40
1
 40
1
 40
1
 10
62.081608
 20
53.776888
 30
0.0
 10
62.081608
 20
61.922498
 30
0.0
 10
55.477632
 20
68.526474
 30
0.0
 10
47.332023
 20
68.526474
 30
0.0
  0
SPLINE
  5
104
100
AcDbEntity
  8
0
 62
7
100
AcDbSpline
 70
8
 71
3
 72
8
 73
4
 74
0
 40
0
 40
0
 40
0
 40
0
 40
1
 40
1
 40
1
 40
1
 10
47.332023
 20
41.524960
 30
0.0
 10
40.565770
 20
41.524960
 30
0.0
 10
35.083623
 20
47.010635
 30
0.0
 10
35.083623
 20
53.773360
 30
0.0
  0
SPLINE
  5
105
100
AcDbEntity
  8
0
 62
7
100
AcDbSpline
 70
8
 71
3
 72
8
 73
4
 74
0
 40
0
 40
0
 40
0
 40
0
 40
1
 40
1
 40
1
 40
1
 10
35.083623
 20
53.773360
 30
0.0
 10
35.083623
 20
60.536086
 30
0.0
 10
40.569297
 20
66.021761
 30
0.0
 10
47.332023
 20
66.021761
 30
0.0
  0
SPLINE
  5
106
100
AcDbEntity
  8
0
 62
7
100
AcDbSpline
 70
8
 71
3
 72
8
 73
4
 74
0
 40
0
 40
0
 40
0
 40
0
 40
1
 40
1
 40
1
 40
1
 10
47.332023
 20
66.021761
 30
0.0
 10
54.094748
 20
66.021761
 30
0.0
 10
59.580423
 20
60.536086
 30
0.0
 10
59.580423
 20
53.773360
 30
0.0
  0
SPLINE
  5
107
100
AcDbEntity
  8
0
 62
7
100
AcDbSpline
 70
8
 71
3
 72
8
 73
4
 74
0
 40
0
 40
0
 40
0
 40
0
 40
1
 40
1
 40
1
 40
1
 10
59.580423
 20
53.773360
 30
0.0
 10
59.580423
 20
47.010635
 30
0.0
 10
54.094748
 20
41.524960
 30
0.0
 10
47.332023
 20
41.524960
 30
0.0
  0
LWPOLYLINE
  5
108
100
AcDbEntity
  8
0
 62
7
100
AcDbPolyline
 90
1
 70
1
 10
47.332023
 20
68.526474
 30
0.0
  0
SPLINE
  5
109
100
AcDbEntity
  8
0
 62
7
100
AcDbSpline
 70
8
 71
3
 72
8
 73
4
 74
0
 40
0
 40
0
 40
0
 40
0
 40
1
 40
1
 40
1
 40
1
 10
116.472689
 20
96.882649
 30
0.0
 10
116.084634
 20
96.882649
 30
0.0
 10
115.774191
 20
96.568677
 30
0.0
 10
115.774191
 20
96.184151
 30
0.0
  0
LWPOLYLINE
  5
10a
100
AcDbEntity
  8
0
 62
7
100
AcDbPolyline
 90
1
 70
1
 10
47.332023
 20
41.524960
 30
0.0
  0
SPLINE
  5
10b
100
AcDbEntity
  8
0
 62
7
100
AcDbSpline
 70
8
 71
3
 72
8
 73
4
 74
0
 40
0
 40
0
 40
0
 40
0
 40
1
 40
1
 40
1
 40
1
 10
115.774191
 20
0.747525
 30
0.0
 10
115.774191
 20
0.359471
 30
0.0
 10
116.088162
 20
0.049028
 30
0.0
 10
116.472689
 20
0.049028
 30
0.0
  0
LWPOLYLINE
  5
10c
100
AcDbEntity
  8
0
 62
7
100
AcDbPolyline
 90
2
 70
0
 10
115.774191
 20
96.184151
 30
0.0
 10
115.774191
 20
0.747525
 30
0.0
  0
SPLINE
  5
10d
100
AcDbEntity
  8
0
 62
7
100
AcDbSpline
 70
8
 71
3
 72
8
 73
4
 74
0
 40
0
 40
0
 40
0
 40
0
 40
1
 40
1
 40
1
 40
1
 10
123.337719
 20
13.412201
 30
0.0
 10
123.143692
 20
13.747339
 30
0.0
 10
123.260108
 20
14.174199
 30
0.0
 10
123.595246
 20
14.368226
 30
0.0
  0
LWPOLYLINE
  5
10e
100
AcDbEntity
  8
0
 62
7
100
AcDbPolyline
 90
3
 70
0
 10
116.472689
 20
0.049028
 30
0.0
 10
131.049414
 20
0.049028
 30
0.0
 10
123.337719
 20
13.412201
 30
0.0
  0
SPLINE
  5
10f
100
AcDbEntity
  8
0
 62
7
100
AcDbSpline
 70
8
 71
3
 72
8
 73
4
 74
0
 40
0
 40
0
 40
0
 40
0
 40
1
 40
1
 40
1
 40
1
 10
132.083049
 20
19.268291
 30
0.0
 10
136.457477
 20
21.794171
 30
0.0
 10
141.047099
 20
23.981385
 30
0.0
 10
145.654361
 20
25.755851
 30
0.0
  0
LWPOLYLINE
  5
110
100
AcDbEntity
  8
0
 62
7
100
AcDbPolyline
 90
2
 70
0
 10
123.595246
 20
14.368226
 30
0.0
 10
132.083049
 20
19.268291
 30
0.0
  0
SPLINE
  5
111
100
AcDbEntity
  8
0
 62
7
100
AcDbSpline
 70
8
 71
3
 72
8
 73
4
 74
0
 40
0
 40
0
 40
0
 40
0
 40
1
 40
1
 40
1
 40
1
 10
145.682583
 20
88.204347
 30
0.0
 10
145.682583
 20
88.592401
 30
0.0
 10
145.996554
 20
88.902844
 30
0.0
 10
146.381080
 20
88.902844
 30
0.0
  0
LWPOLYLINE
  5
112
100
AcDbEntity
  8
0
 62
7
100
AcDbPolyline
 90
2
 70
0
 10
145.654361
 20
25.755851
 30
0.0
 10
145.682583
 20
88.204347
 30
0.0
  0
SPLINE
  5
113
100
AcDbEntity
  8
0
 62
7
100
AcDbSpline
 70
8
 71
3
 72
8
 73
4
 74
0
 40
0
 40
0
 40
0
 40
0
 40
1
 40
1
 40
1
 40
1
 10
164.676069
 20
91.217058
 30
0.0
 10
164.676069
 20
91.605112
 30
0.0
 10
164.990040
 20
91.915555
 30
0.0
 10
165.374567
 20
91.915555
 30
0.0
  0
LWPOLYLINE
  5
114
100
AcDbEntity
  8
0
 62
7
100
AcDbPolyline
 90
3
 70
0
 10
146.381080
 20
88.902844
 30
0.0
 10
164.676069
 20
88.902844
 30
0.0
 10
164.676069
 20
91.217058
 30
0.0
  0
SPLINE
  5
115
100
AcDbEntity
  8
0
 62
7
100
AcDbSpline
 70
8
 71
3
 72
8
 73
4
 74
0
 40
0
 40
0
 40
0
 40
0
 40
1
 40
1
 40
1
 40
1
 10
118.377682
 20
95.323376
 30
0.0
 10
118.956235
 20
95.323376
 30
0.0
 10
119.428956
 20
94.854184
 30
0.0
 10
119.428956
 20
94.272102
 30
0.0
  0
SPLINE
  5
116
100
AcDbEntity
  8
0
 62
7
100
AcDbSpline
 70
8
 71
3
 72
8
 73
4
 74
0
 40
0
 40
0
 40
0
 40
0
 40
1
 40
1
 40
1
 40
1
 10
119.428956
 20
94.272102
 30
0.0
 10
119.428956
 20
93.690021
 30
0.0
 10
118.959763
 20
93.220829
 30
0.0
 10
118.377682
 20
93.220829
 30
0.0
  0
SPLINE
  5
117
100
AcDbEntity
  8
0
 62
7
100
AcDbSpline
 70
8
 71
3
 72
8
 73
4
 74
0
 40
0
 40
0
 40
0
 40
0
 40
1
 40
1
 40
1
 40
1
 10
118.377682
 20
93.220829
 30
0.0
 10
117.795600
 20
93.220829
 30
0.0
 10
117.326408
 20
93.690021
 30
0.0
 10
117.326408
 20
94.272102
 30
0.0
  0
SPLINE
  5
118
100
AcDbEntity
  8
0
 62
7
100
AcDbSpline
 70
8
 71
3
 72
8
 73
4
 74
0
 40
0
 40
0
 40
0
 40
0
 40
1
 40
1
 40
1
 40
1
 10
117.326408
 20
94.272102
 30
0.0
 10
117.326408
 20
94.854184
 30
0.0
 10
117.795600
 20
95.323376
 30
0.0
 10
118.377682
 20
95.323376
 30
0.0
  0
LWPOLYLINE
  5
119
100
AcDbEntity
  8
0
 62
7
100
AcDbPolyline
 90
5
 70
0
 10
165.374567
 20
91.915555
 30
0.0
 10
183.697778
 20
91.915555
 30
0.0
 10
183.683667
 20
96.886176
 30
0.0
 10
116.472689
 20
96.886176
 30
0.0
 10
116.472689
 20
96.882649
 30
0.0
  0
SPLINE
  5
11a
100
AcDbEntity
  8
0
 62
7
100
AcDbSpline
 70
8
 71
3
 72
8
 73
4
 74
0
 40
0
 40
0
 40
0
 40
0
 40
1
 40
1
 40
1
 40
1
 10
118.377682
 20
13.793200
 30
0.0
 10
117.799128
 20
13.793200
 30
0.0
 10
117.326408
 20
14.262393
 30
0.0
 10
117.326408
 20
14.844474
 30
0.0
  0
SPLINE
  5
11b
100
AcDbEntity
  8
0
 62
7
100
AcDbSpline
 70
8
 71
3
 72
8
 73
4
 74
0
 40
0
 40
0
 40
0
 40
0
 40
1
 40
1
 40
1
 40
1
 10
117.326408
 20
14.844474
 30
0.0
 10
117.326408
 20
15.426555
 30
0.0
 10
117.795600
 20
15.895748
 30
0.0
 10
118.377682
 20
15.895748
 30
0.0
  0
SPLINE
  5
11c
100
AcDbEntity
  8
0
 62
7
100
AcDbSpline
 70
8
 71
3
 72
8
 73
4
 74
0
 40
0
 40
0
 40
0
 40
0
 40
1
 40
1
 40
1
 40
1
 10
118.377682
 20
15.895748
 30
0.0
 10
118.959763
 20
15.895748
 30
0.0
 10
119.428956
 20
15.426555
 30
0.0
 10
119.428956
 20
14.844474
 30
0.0
  0
SPLINE
  5
11d
100
AcDbEntity
  8
0
 62
7
100
AcDbSpline
 70
8
 71
3
 72
8
 73
4
 74
0
 40
0
 40
0
 40
0
 40
0
 40
1
 40
1
 40
1
 40
1
 10
119.428956
 20
14.844474
 30
0.0
 10
119.428956
 20
14.262393
 30
0.0
 10
118.959763
 20
13.793200
 30
0.0
 10
118.377682
 20
13.793200
 30
0.0
  0
LWPOLYLINE
  5
11e
100
AcDbEntity
  8
0
 62
7
100
AcDbPolyline
 90
1
 70
1
 10
118.377682
 20
95.323376
 30
0.0
  0
SPLINE
  5
11f
100
AcDbEntity
  8
0
 62
7
100
AcDbSpline
 70
8
 71
3
 72
8
 73
4
 74
0
 40
0
 40
0
 40
0
 40
0
 40
1
 40
1
 40
1
 40
1
 10
130.731915
 20
23.819108
 30
0.0
 10
123.965661
 20
23.819108
 30
0.0
 10
118.483515
 20
29.304783
 30
0.0
 10
118.483515
 20
36.067508
 30
0.0
  0
SPLINE
  5
120
100
AcDbEntity
  8
0
 62
7
100
AcDbSpline
 70
8
 71
3
 72
8
 73
4
 74
0
 40
0
 40
0
 40
0
 40
0
 40
1
 40
1
 40
1
 40
1
 10
118.483515
 20
36.067508
 30
0.0
 10
118.483515
 20
42.830234
 30
0.0
 10
123.969189
 20
48.315908
 30
0.0
 10
130.731915
 20
48.315908
 30
0.0
  0
SPLINE
  5
121
100
AcDbEntity
  8
0
 62
7
100
AcDbSpline
 70
8
 71
3
 72
8
 73
4
 74
0
 40
0
 40
0
 40
0
 40
0
 40
1
 40
1
 40
1
 40
1
 10
130.731915
 20
48.315908
 30
0.0
 10
137.494640
 20
48.315908
 30
0.0
 10
142.980315
 20
42.830234
 30
0.0
 10
142.980315
 20
36.067508
 30
0.0
  0
SPLINE
  5
122
100
AcDbEntity
  8
0
 62
7
100
AcDbSpline
 70
8
 71
3
 72
8
 73
4
 74
0
 40
0
 40
0
 40
0
 40
0
 40
1
 40
1
 40
1
 40
1
 10
142.980315
 20
36.067508
 30
0.0
 10
142.980315
 20
29.304783
 30
0.0
 10
137.494640
 20
23.819108
 30
0.0
 10
130.731915
 20
23.819108
 30
0.0
  0
LWPOLYLINE
  5
123
100
AcDbEntity
  8
0
 62
7
100
AcDbPolyline
 90
1
 70
1
 10
118.377682
 20
13.793200
 30
0.0
  0
SPLINE
  5
124
100
AcDbEntity
  8
0
 62
7
100
AcDbSpline
 70
8
 71
3
 72
8
 73
4
 74
0
 40
0
 40
0
 40
0
 40
0
 40
1
 40
1
 40
1
 40
1
 10
180.448707
 20
93.189079
 30
0.0
 10
179.870153
 20
93.189079
 30
0.0
 10
179.397433
 20
93.658271
 30
0.0
 10
179.397433
 20
94.240353
 30
0.0
  0
SPLINE
  5
125
100
AcDbEntity
  8
0
 62
7
100
AcDbSpline
 70
8
 71
3
 72
8
 73
4
 74
0
 40
0
 40
0
 40
0
 40
0
 40
1
 40
1
 40
1
 40
1
 10
179.397433
 20
94.240353
 30
0.0
 10
179.397433
 20
94.822434
 30
0.0
 10
179.866625
 20
95.291627
 30
0.0
 10
180.448707
 20
95.291627
 30
0.0
  0
SPLINE
  5
126
100
AcDbEntity
  8
0
 62
7
100
AcDbSpline
 70
8
 71
3
 72
8
 73
4
 74
0
 40
0
 40
0
 40
0
 40
0
 40
1
 40
1
 40
1
 40
1
 10
180.448707
 20
95.291627
 30
0.0
 10
181.030788
 20
95.291627
 30
0.0
 10
181.499981
 20
94.822434
 30
0.0
 10
181.499981
 20
94.240353
 30
0.0
  0
SPLINE
  5
127
100
AcDbEntity
  8
0
 62
7
100
AcDbSpline
 70
8
 71
3
 72
8
 73
4
 74
0
 40
0
 40
0
 40
0
 40
0
 40
1
 40
1
 40
1
 40
1
 10
181.499981
 20
94.240353
 30
0.0
 10
181.499981
 20
93.658271
 30
0.0
 10
181.030788
 20
93.189079
 30
0.0
 10
180.448707
 20
93.189079
 30
0.0
  0
LWPOLYLINE
  5
128
100
AcDbEntity
  8
0
 62
7
100
AcDbPolyline
 90
1
 70
1
 10
130.731915
 20
23.819108
 30
0.0
  0
LWPOLYLINE
  5
129
100
AcDbEntity
  8
0
 62
7
100
AcDbPolyline
 90
1
 70
1
 10
180.448707
 20
93.189079
 30
0.0
  0
SPLINE
  5
12a
100
AcDbEntity
  8
0
 62
7
100
AcDbSpline
 70
8
 71
3
 72
8
 73
4
 74
0
 40
0
 40
0
 40
0
 40
0
 40
1
 40
1
 40
1
 40
1
 10
7.023780
 20
12.540843
 30
0.0
 10
7.411834
 20
12.540843
 30
0.0
 10
7.722278
 20
12.226872
 30
0.0
 10
7.722278
 20
11.842346
 30
0.0
  0
LWPOLYLINE
  5
12b
100
AcDbEntity
  8
0
 62
7
100
AcDbPolyline
 90
5
 70
0
 10
21.307700
 20
13.613284
 30
0.0
 10
21.928587
 20
22.489141
 30
0.0
 10
4.773066
 20
22.489141
 30
0.0
 10
4.773066
 20
12.540843
 30
0.0
 10
7.023780
 20
12.540843
 30
0.0
  0
SPLINE
  5
12c
100
AcDbEntity
  8
0
 62
7
100
AcDbSpline
 70
8
 71
3
 72
8
 73
4
 74
0
 40
0
 40
0
 40
0
 40
0
 40
1
 40
1
 40
1
 40
1
 10
21.956809
 20
12.868926
 30
0.0
 10
21.572283
 20
12.897148
 30
0.0
 10
21.279478
 20
13.228758
 30
0.0
 10
21.307700
 20
13.616812
 30
0.0
  0
LWPOLYLINE
  5
12d
100
AcDbEntity
  8
0
 62
7
100
AcDbPolyline
 90
6
 70
0
 10
7.722278
 20
11.842346
 30
0.0
 10
7.746972
 20
5.340675
 30
0.0
 10
23.727747
 20
5.340675
 30
0.0
 10
38.819526
 20
4.282346
 30
0.0
 10
40.153021
 20
11.595402
 30
0.0
 10
21.956809
 20
12.868926
 30
0.0
  0
SPLINE
  5
12e
100
AcDbEntity
  8
0
 62
7
100
AcDbSpline
 70
8
 71
3
 72
8
 73
4
 74
0
 40
0
 40
0
 40
0
 40
0
 40
1
 40
1
 40
1
 40
1
 10
10.343407
 20
9.933825
 30
0.0
 10
10.068241
 20
9.933825
 30
0.0
 10
9.842464
 20
10.156074
 30
0.0
 10
9.842464
 20
10.434768
 30
0.0
  0
SPLINE
  5
12f
100
AcDbEntity
  8
0
 62
7
100
AcDbSpline
 70
8
 71
3
 72
8
 73
4
 74
0
 40
0
 40
0
 40
0
 40
0
 40
1
 40
1
 40
1
 40
1
 10
9.842464
 20
10.434768
 30
0.0
 10
9.842464
 20
10.713461
 30
0.0
 10
10.064713
 20
10.935710
 30
0.0
 10
10.343407
 20
10.935710
 30
0.0
  0
SPLINE
  5
130
100
AcDbEntity
  8
0
 62
7
100
AcDbSpline
 70
8
 71
3
 72
8
 73
4
 74
0
 40
0
 40
0
 40
0
 40
0
 40
1
 40
1
 40
1
 40
1
 10
10.343407
 20
10.935710
 30
0.0
 10
10.622100
 20
10.935710
 30
0.0
 10
10.844350
 20
10.713461
 30
0.0
 10
10.844350
 20
10.434768
 30
0.0
  0
SPLINE
  5
131
100
AcDbEntity
  8
0
 62
7
100
AcDbSpline
 70
8
 71
3
 72
8
 73
4
 74
0
 40
0
 40
0
 40
0
 40
0
 40
1
 40
1
 40
1
 40
1
 10
10.844350
 20
10.434768
 30
0.0
 10
10.844350
 20
10.156074
 30
0.0
 10
10.622100
 20
9.933825
 30
0.0
 10
10.343407
 20
9.933825
 30
0.0
  0
LWPOLYLINE
  5
132
100
AcDbEntity
  8
0
 62
7
100
AcDbPolyline
 90
3
 70
0
 10
21.307700
 20
13.616812
 30
0.0
 10
21.307700
 20
13.616812
 30
0.0
 10
21.307700
 20
13.613284
 30
0.0
  0
SPLINE
  5
133
100
AcDbEntity
  8
0
 62
7
100
AcDbSpline
 70
8
 71
3
 72
8
 73
4
 74
0
 40
0
 40
0
 40
0
 40
0
 40
1
 40
1
 40
1
 40
1
 10
10.343407
 20
11.934068
 30
0.0
 10
10.068241
 20
11.934068
 30
0.0
 10
9.842464
 20
12.156317
 30
0.0
 10
9.842464
 20
12.435010
 30
0.0
  0
SPLINE
  5
134
100
AcDbEntity
  8
0
 62
7
100
AcDbSpline
 70
8
 71
3
 72
8
 73
4
 74
0
 40
0
 40
0
 40
0
 40
0
 40
1
 40
1
 40
1
 40
1
 10
9.842464
 20
12.435010
 30
0.0
 10
9.842464
 20
12.713704
 30
0.0
 10
10.064713
 20
12.935953
 30
0.0
 10
10.343407
 20
12.935953
 30
0.0
  0
SPLINE
  5
135
100
AcDbEntity
  8
0
 62
7
100
AcDbSpline
 70
8
 71
3
 72
8
 73
4
 74
0
 40
0
 40
0
 40
0
 40
0
 40
1
 40
1
 40
1
 40
1
 10
10.343407
 20
12.935953
 30
0.0
 10
10.622100
 20
12.935953
 30
0.0
 10
10.844350
 20
12.713704
 30
0.0
 10
10.844350
 20
12.435010
 30
0.0
  0
SPLINE
  5
136
100
AcDbEntity
  8
0
 62
7
100
AcDbSpline
 70
8
 71
3
 72
8
 73
4
 74
0
 40
0
 40
0
 40
0
 40
0
 40
1
 40
1
 40
1
 40
1
 10
10.844350
 20
12.435010
 30
0.0
 10
10.844350
 20
12.156317
 30
0.0
 10
10.622100
 20
11.934068
 30
0.0
 10
10.343407
 20
11.934068
 30
0.0
  0
LWPOLYLINE
  5
137
100
AcDbEntity
  8
0
 62
7
100
AcDbPolyline
 90
1
 70
1
 10
10.343407
 20
9.933825
 30
0.0
  0
SPLINE
  5
138
100
AcDbEntity
  8
0
 62
7
100
AcDbSpline
 70
8
 71
3
 72
8
 73
4
 74
0
 40
0
 40
0
 40
0
 40
0
 40
1
 40
1
 40
1
 40
1
 10
10.343407
 20
13.934311
 30
0.0
 10
10.068241
 20
13.934311
 30
0.0
 10
9.842464
 20
14.156560
 30
0.0
 10
9.842464
 20
14.435253
 30
0.0
  0
SPLINE
  5
139
100
AcDbEntity
  8
0
 62
7
100
AcDbSpline
 70
8
 71
3
 72
8
 73
4
 74
0
 40
0
 40
0
 40
0
 40
0
 40
1
 40
1
 40
1
 40
1
 10
9.842464
 20
14.435253
 30
0.0
 10
9.842464
 20
14.713947
 30
0.0
 10
10.064713
 20
14.936196
 30
0.0
 10
10.343407
 20
14.936196
 30
0.0
  0
SPLINE
  5
13a
100
AcDbEntity
  8
0
 62
7
100
AcDbSpline
 70
8
 71
3
 72
8
 73
4
 74
0
 40
0
 40
0
 40
0
 40
0
 40
1
 40
1
 40
1
 40
1
 10
10.343407
 20
14.936196
 30
0.0
 10
10.622100
 20
14.936196
 30
0.0
 10
10.844350
 20
14.713947
 30
0.0
 10
10.844350
 20
14.435253
 30
0.0
  0
SPLINE
  5
13b
100
AcDbEntity
  8
0
 62
7
100
AcDbSpline
 70
8
 71
3
 72
8
 73
4
 74
0
 40
0
 40
0
 40
0
 40
0
 40
1
 40
1
 40
1
 40
1
 10
10.844350
 20
14.435253
 30
0.0
 10
10.844350
 20
14.156560
 30
0.0
 10
10.622100
 20
13.934311
 30
0.0
 10
10.343407
 20
13.934311
 30
0.0
  0
LWPOLYLINE
  5
13c
100
AcDbEntity
  8
0
 62
7
100
AcDbPolyline
 90
1
 70
1
 10
10.343407
 20
11.934068
 30
0.0
  0
SPLINE
  5
13d
100
AcDbEntity
  8
0
 62
7
100
AcDbSpline
 70
8
 71
3
 72
8
 73
4
 74
0
 40
0
 40
0
 40
0
 40
0
 40
1
 40
1
 40
1
 40
1
 10
10.343407
 20
15.934553
 30
0.0
 10
10.068241
 20
15.934553
 30
0.0
 10
9.842464
 20
16.156803
 30
0.0
 10
9.842464
 20
16.435496
 30
0.0
  0
SPLINE
  5
13e
100
AcDbEntity
  8
0
 62
7
100
AcDbSpline
 70
8
 71
3
 72
8
 73
4
 74
0
 40
0
 40
0
 40
0
 40
0
 40
1
 40
1
 40
1
 40
1
 10
9.842464
 20
16.435496
 30
0.0
 10
9.842464
 20
16.714189
 30
0.0
 10
10.064713
 20
16.936439
 30
0.0
 10
10.343407
 20
16.936439
 30
0.0
  0
SPLINE
  5
13f
100
AcDbEntity
  8
0
 62
7
100
AcDbSpline
 70
8
 71
3
 72
8
 73
4
 74
0
 40
0
 40
0
 40
0
 40
0
 40
1
 40
1
 40
1
 40
1
 10
10.343407
 20
16.936439
 30
0.0
 10
10.622100
 20
16.936439
 30
0.0
 10
10.844350
 20
16.714189
 30
0.0
 10
10.844350
 20
16.435496
 30
0.0
  0
SPLINE
  5
140
100
AcDbEntity
  8
0
 62
7
100
AcDbSpline
 70
8
 71
3
 72
8
 73
4
 74
0
 40
0
 40
0
 40
0
 40
0
 40
1
 40
1
 40
1
 40
1
 10
10.844350
 20
16.435496
 30
0.0
 10
10.844350
 20
16.156803
 30
0.0
 10
10.622100
 20
15.934553
 30
0.0
 10
10.343407
 20
15.934553
 30
0.0
  0
LWPOLYLINE
  5
141
100
AcDbEntity
  8
0
 62
7
100
AcDbPolyline
 90
1
 70
1
 10
10.343407
 20
13.934311
 30
0.0
  0
SPLINE
  5
142
100
AcDbEntity
  8
0
 62
7
100
AcDbSpline
 70
8
 71
3
 72
8
 73
4
 74
0
 40
0
 40
0
 40
0
 40
0
 40
1
 40
1
 40
1
 40
1
 10
10.343407
 20
17.934796
 30
0.0
 10
10.068241
 20
17.934796
 30
0.0
 10
9.842464
 20
18.157045
 30
0.0
 10
9.842464
 20
18.435739
 30
0.0
  0
SPLINE
  5
143
100
AcDbEntity
  8
0
 62
7
100
AcDbSpline
 70
8
 71
3
 72
8
 73
4
 74
0
 40
0
 40
0
 40
0
 40
0
 40
1
 40
1
 40
1
 40
1
 10
9.842464
 20
18.435739
 30
0.0
 10
9.842464
 20
18.714432
 30
0.0
 10
10.064713
 20
18.936681
 30
0.0
 10
10.343407
 20
18.936681
 30
0.0
  0
SPLINE
  5
144
100
AcDbEntity
  8
0
 62
7
100
AcDbSpline
 70
8
 71
3
 72
8
 73
4
 74
0
 40
0
 40
0
 40
0
 40
0
 40
1
 40
1
 40
1
 40
1
 10
10.343407
 20
18.936681
 30
0.0
 10
10.622100
 20
18.936681
 30
0.0
 10
10.844350
 20
18.714432
 30
0.0
 10
10.844350
 20
18.435739
 30
0.0
  0
SPLINE
  5
145
100
AcDbEntity
  8
0
 62
7
100
AcDbSpline
 70
8
 71
3
 72
8
 73
4
 74
0
 40
0
 40
0
 40
0
 40
0
 40
1
 40
1
 40
1
 40
1
 10
10.844350
 20
18.435739
 30
0.0
 10
10.844350
 20
18.157045
 30
0.0
 10
10.622100
 20
17.934796
 30
0.0
 10
10.343407
 20
17.934796
 30
0.0
  0
LWPOLYLINE
  5
146
100
AcDbEntity
  8
0
 62
7
100
AcDbPolyline
 90
1
 70
1
 10
10.343407
 20
15.934553
 30
0.0
  0
SPLINE
  5
147
100
AcDbEntity
  8
0
 62
7
100
AcDbSpline
 70
8
 71
3
 72
8
 73
4
 74
0
 40
0
 40
0
 40
0
 40
0
 40
1
 40
1
 40
1
 40
1
 10
12.343650
 20
9.933825
 30
0.0
 10
12.068484
 20
9.933825
 30
0.0
 10
11.842707
 20
10.156074
 30
0.0
 10
11.842707
 20
10.434768
 30
0.0
  0
SPLINE
  5
148
100
AcDbEntity
  8
0
 62
7
100
AcDbSpline
 70
8
 71
3
 72
8
 73
4
 74
0
 40
0
 40
0
 40
0
 40
0
 40
1
 40
1
 40
1
 40
1
 10
11.842707
 20
10.434768
 30
0.0
 10
11.842707
 20
10.713461
 30
0.0
 10
12.064956
 20
10.935710
 30
0.0
 10
12.343650
 20
10.935710
 30
0.0
  0
SPLINE
  5
149
100
AcDbEntity
  8
0
 62
7
100
AcDbSpline
 70
8
 71
3
 72
8
 73
4
 74
0
 40
0
 40
0
 40
0
 40
0
 40
1
 40
1
 40
1
 40
1
 10
12.343650
 20
10.935710
 30
0.0
 10
12.622343
 20
10.935710
 30
0.0
 10
12.844592
 20
10.713461
 30
0.0
 10
12.844592
 20
10.434768
 30
0.0
  0
SPLINE
  5
14a
100
AcDbEntity
  8
0
 62
7
100
AcDbSpline
 70
8
 71
3
 72
8
 73
4
 74
0
 40
0
 40
0
 40
0
 40
0
 40
1
 40
1
 40
1
 40
1
 10
12.844592
 20
10.434768
 30
0.0
 10
12.844592
 20
10.156074
 30
0.0
 10
12.622343
 20
9.933825
 30
0.0
 10
12.343650
 20
9.933825
 30
0.0
  0
LWPOLYLINE
  5
14b
100
AcDbEntity
  8
0
 62
7
100
AcDbPolyline
 90
1
 70
1
 10
10.343407
 20
17.934796
 30
0.0
  0
SPLINE
  5
14c
100
AcDbEntity
  8
0
 62
7
100
AcDbSpline
 70
8
 71
3
 72
8
 73
4
 74
0
 40
0
 40
0
 40
0
 40
0
 40
1
 40
1
 40
1
 40
1
 10
12.343650
 20
11.934068
 30
0.0
 10
12.068484
 20
11.934068
 30
0.0
 10
11.842707
 20
12.156317
 30
0.0
 10
11.842707
 20
12.435010
 30
0.0
  0
SPLINE
  5
14d
100
AcDbEntity
  8
0
 62
7
100
AcDbSpline
 70
8
 71
3
 72
8
 73
4
 74
0
 40
0
 40
0
 40
0
 40
0
 40
1
 40
1
 40
1
 40
1
 10
11.842707
 20
12.435010
 30
0.0
 10
11.842707
 20
12.713704
 30
0.0
 10
12.064956
 20
12.935953
 30
0.0
 10
12.343650
 20
12.935953
 30
0.0
  0
SPLINE
  5
14e
100
AcDbEntity
  8
0
 62
7
100
AcDbSpline
 70
8
 71
3
 72
8
 73
4
 74
0
 40
0
 40
0
 40
0
 40
0
 40
1
 40
1
 40
1
 40
1
 10
12.343650
 20
12.935953
 30
0.0
 10
12.622343
 20
12.935953
 30
0.0
 10
12.844592
 20
12.713704
 30
0.0
 10
12.844592
 20
12.435010
 30
0.0
  0
SPLINE
  5
14f
100
AcDbEntity
  8
0
 62
7
100
AcDbSpline
 70
8
 71
3
 72
8
 73
4
 74
0
 40
0
 40
0
 40
0
 40
0
 40
1
 40
1
 40
1
 40
1
 10
12.844592
 20
12.435010
 30
0.0
 10
12.844592
 20
12.156317
 30
0.0
 10
12.622343
 20
11.934068
 30
0.0
 10
12.343650
 20
11.934068
 30
0.0
  0
LWPOLYLINE
  5
150
100
AcDbEntity
  8
0
 62
7
100
AcDbPolyline
 90
1
 70
1
 10
12.343650
 20
9.933825
 30
0.0
  0
SPLINE
  5
151
100
AcDbEntity
  8
0
 62
7
100
AcDbSpline
 70
8
 71
3
 72
8
 73
4
 74
0
 40
0
 40
0
 40
0
 40
0
 40
1
 40
1
 40
1
 40
1
 10
12.343650
 20
13.934311
 30
0.0
 10
12.068484
 20
13.934311
 30
0.0
 10
11.842707
 20
14.156560
 30
0.0
 10
11.842707
 20
14.435253
 30
0.0
  0
SPLINE
  5
152
100
AcDbEntity
  8
0
 62
7
100
AcDbSpline
 70
8
 71
3
 72
8
 73
4
 74
0
 40
0
 40
0
 40
0
 40
0
 40
1
 40
1
 40
1
 40
1
 10
11.842707
 20
14.435253
 30
0.0
 10
11.842707
 20
14.713947
 30
0.0
 10
12.064956
 20
14.936196
 30
0.0
 10
12.343650
 20
14.936196
 30
0.0
  0
SPLINE
  5
153
100
AcDbEntity
  8
0
 62
7
100
AcDbSpline
 70
8
 71
3
 72
8
 73
4
 74
0
 40
0
 40
0
 40
0
 40
0
 40
1
 40
1
 40
1
 40
1
 10
12.343650
 20
14.936196
 30
0.0
 10
12.622343
 20
14.936196
 30
0.0
 10
12.844592
 20
14.713947
 30
0.0
 10
12.844592
 20
14.435253
 30
0.0
  0
SPLINE
  5
154
100
AcDbEntity
  8
0
 62
7
100
AcDbSpline
 70
8
 71
3
 72
8
 73
4
 74
0
 40
0
 40
0
 40
0
 40
0
 40
1
 40
1
 40
1
 40
1
 10
12.844592
 20
14.435253
 30
0.0
 10
12.844592
 20
14.156560
 30
0.0
 10
12.622343
 20
13.934311
 30
0.0
 10
12.343650
 20
13.934311
 30
0.0
  0
LWPOLYLINE
  5
155
100
AcDbEntity
  8
0
 62
7
100
AcDbPolyline
 90
1
 70
1
 10
12.343650
 20
11.934068
 30
0.0
  0
SPLINE
  5
156
100
AcDbEntity
  8
0
 62
7
100
AcDbSpline
 70
8
 71
3
 72
8
 73
4
 74
0
 40
0
 40
0
 40
0
 40
0
 40
1
 40
1
 40
1
 40
1
 10
12.343650
 20
15.934553
 30
0.0
 10
12.068484
 20
15.934553
 30
0.0
 10
11.842707
 20
16.156803
 30
0.0
 10
11.842707
 20
16.435496
 30
0.0
  0
SPLINE
  5
157
100
AcDbEntity
  8
0
 62
7
100
AcDbSpline
 70
8
 71
3
 72
8
 73
4
 74
0
 40
0
 40
0
 40
0
 40
0
 40
1
 40
1
 40
1
 40
1
 10
11.842707
 20
16.435496
 30
0.0
 10
11.842707
 20
16.714189
 30
0.0
 10
12.064956
 20
16.936439
 30
0.0
 10
12.343650
 20
16.936439
 30
0.0
  0
SPLINE
  5
158
100
AcDbEntity
  8
0
 62
7
100
AcDbSpline
 70
8
 71
3
 72
8
 73
4
 74
0
 40
0
 40
0
 40
0
 40
0
 40
1
 40
1
 40
1
 40
1
 10
12.343650
 20
16.936439
 30
0.0
 10
12.622343
 20
16.936439
 30
0.0
 10
12.844592
 20
16.714189
 30
0.0
 10
12.844592
 20
16.435496
 30
0.0
  0
SPLINE
  5
159
100
AcDbEntity
  8
0
 62
7
100
AcDbSpline
 70
8
 71
3
 72
8
 73
4
 74
0
 40
0
 40
0
 40
0
 40
0
 40
1
 40
1
 40
1
 40
1
 10
12.844592
 20
16.435496
 30
0.0
 10
12.844592
 20
16.156803
 30
0.0
 10
12.622343
 20
15.934553
 30
0.0
 10
12.343650
 20
15.934553
 30
0.0
  0
LWPOLYLINE
  5
15a
100
AcDbEntity
  8
0
 62
7
100
AcDbPolyline
 90
1
 70
1
 10
12.343650
 20
13.934311
 30
0.0
  0
SPLINE
  5
15b
100
AcDbEntity
  8
0
 62
7
100
AcDbSpline
 70
8
 71
3
 72
8
 73
4
 74
0
 40
0
 40
0
 40
0
 40
0
 40
1
 40
1
 40
1
 40
1
 10
12.343650
 20
17.934796
 30
0.0
 10
12.068484
 20
17.934796
 30
0.0
 10
11.842707
 20
18.157045
 30
0.0
 10
11.842707
 20
18.435739
 30
0.0
  0
SPLINE
  5
15c
100
AcDbEntity
  8
0
 62
7
100
AcDbSpline
 70
8
 71
3
 72
8
 73
4
 74
0
 40
0
 40
0
 40
0
 40
0
 40
1
 40
1
 40
1
 40
1
 10
11.842707
 20
18.435739
 30
0.0
 10
11.842707
 20
18.714432
 30
0.0
 10
12.064956
 20
18.936681
 30
0.0
 10
12.343650
 20
18.936681
 30
0.0
  0
SPLINE
  5
15d
100
AcDbEntity
  8
0
 62
7
100
AcDbSpline
 70
8
 71
3
 72
8
 73
4
 74
0
 40
0
 40
0
 40
0
 40
0
 40
1
 40
1
 40
1
 40
1
 10
12.343650
 20
18.936681
 30
0.0
 10
12.622343
 20
18.936681
 30
0.0
 10
12.844592
 20
18.714432
 30
0.0
 10
12.844592
 20
18.435739
 30
0.0
  0
SPLINE
  5
15e
100
AcDbEntity
  8
0
 62
7
100
AcDbSpline
 70
8
 71
3
 72
8
 73
4
 74
0
 40
0
 40
0
 40
0
 40
0
 40
1
 40
1
 40
1
 40
1
 10
12.844592
 20
18.435739
 30
0.0
 10
12.844592
 20
18.157045
 30
0.0
 10
12.622343
 20
17.934796
 30
0.0
 10
12.343650
 20
17.934796
 30
0.0
  0
LWPOLYLINE
  5
15f
100
AcDbEntity
  8
0
 62
7
100
AcDbPolyline
 90
1
 70
1
 10
12.343650
 20
15.934553
 30
0.0
  0
SPLINE
  5
160
100
AcDbEntity
  8
0
 62
7
100
AcDbSpline
 70
8
 71
3
 72
8
 73
4
 74
0
 40
0
 40
0
 40
0
 40
0
 40
1
 40
1
 40
1
 40
1
 10
14.343892
 20
9.933825
 30
0.0
 10
14.068727
 20
9.933825
 30
0.0
 10
13.842950
 20
10.156074
 30
0.0
 10
13.842950
 20
10.434768
 30
0.0
  0
SPLINE
  5
161
100
AcDbEntity
  8
0
 62
7
100
AcDbSpline
 70
8
 71
3
 72
8
 73
4
 74
0
 40
0
 40
0
 40
0
 40
0
 40
1
 40
1
 40
1
 40
1
 10
13.842950
 20
10.434768
 30
0.0
 10
13.842950
 20
10.713461
 30
0.0
 10
14.065199
 20
10.935710
 30
0.0
 10
14.343892
 20
10.935710
 30
0.0
  0
SPLINE
  5
162
100
AcDbEntity
  8
0
 62
7
100
AcDbSpline
 70
8
 71
3
 72
8
 73
4
 74
0
 40
0
 40
0
 40
0
 40
0
 40
1
 40
1
 40
1
 40
1
 10
14.343892
 20
10.935710
 30
0.0
 10
14.622586
 20
10.935710
 30
0.0
 10
14.844835
 20
10.713461
 30
0.0
 10
14.844835
 20
10.434768
 30
0.0
  0
SPLINE
  5
163
100
AcDbEntity
  8
0
 62
7
100
AcDbSpline
 70
8
 71
3
 72
8
 73
4
 74
0
 40
0
 40
0
 40
0
 40
0
 40
1
 40
1
 40
1
 40
1
 10
14.844835
 20
10.434768
 30
0.0
 10
14.844835
 20
10.156074
 30
0.0
 10
14.622586
 20
9.933825
 30
0.0
 10
14.343892
 20
9.933825
 30
0.0
  0
LWPOLYLINE
  5
164
100
AcDbEntity
  8
0
 62
7
100
AcDbPolyline
 90
1
 70
1
 10
12.343650
 20
17.934796
 30
0.0
  0
SPLINE
  5
165
100
AcDbEntity
  8
0
 62
7
100
AcDbSpline
 70
8
 71
3
 72
8
 73
4
 74
0
 40
0
 40
0
 40
0
 40
0
 40
1
 40
1
 40
1
 40
1
 10
14.343892
 20
11.934068
 30
0.0
 10
14.068727
 20
11.934068
 30
0.0
 10
13.842950
 20
12.156317
 30
0.0
 10
13.842950
 20
12.435010
 30
0.0
  0
SPLINE
  5
166
100
AcDbEntity
  8
0
 62
7
100
AcDbSpline
 70
8
 71
3
 72
8
 73
4
 74
0
 40
0
 40
0
 40
0
 40
0
 40
1
 40
1
 40
1
 40
1
 10
13.842950
 20
12.435010
 30
0.0
 10
13.842950
 20
12.713704
 30
0.0
 10
14.065199
 20
12.935953
 30
0.0
 10
14.343892
 20
12.935953
 30
0.0
  0
SPLINE
  5
167
100
AcDbEntity
  8
0
 62
7
100
AcDbSpline
 70
8
 71
3
 72
8
 73
4
 74
0
 40
0
 40
0
 40
0
 40
0
 40
1
 40
1
 40
1
 40
1
 10
14.343892
 20
12.935953
 30
0.0
 10
14.622586
 20
12.935953
 30
0.0
 10
14.844835
 20
12.713704
 30
0.0
 10
14.844835
 20
12.435010
 30
0.0
  0
SPLINE
  5
168
100
AcDbEntity
  8
0
 62
7
100
AcDbSpline
 70
8
 71
3
 72
8
 73
4
 74
0
 40
0
 40
0
 40
0
 40
0
 40
1
 40
1
 40
1
 40
1
 10
14.844835
 20
12.435010
 30
0.0
 10
14.844835
 20
12.156317
 30
0.0
 10
14.622586
 20
11.934068
 30
0.0
 10
14.343892
 20
11.934068
 30
0.0
  0
LWPOLYLINE
  5
169
100
AcDbEntity
  8
0
 62
7
100
AcDbPolyline
 90
1
 70
1
 10
14.343892
 20
9.933825
 30
0.0
  0
SPLINE
  5
16a
100
AcDbEntity
  8
0
 62
7
100
AcDbSpline
 70
8
 71
3
 72
8
 73
4
 74
0
 40
0
 40
0
 40
0
 40
0
 40
1
 40
1
 40
1
 40
1
 10
14.343892
 20
13.934311
 30
0.0
 10
14.068727
 20
13.934311
 30
0.0
 10
13.842950
 20
14.156560
 30
0.0
 10
13.842950
 20
14.435253
 30
0.0
  0
SPLINE
  5
16b
100
AcDbEntity
  8
0
 62
7
100
AcDbSpline
 70
8
 71
3
 72
8
 73
4
 74
0
 40
0
 40
0
 40
0
 40
0
 40
1
 40
1
 40
1
 40
1
 10
13.842950
 20
14.435253
 30
0.0
 10
13.842950
 20
14.713947
 30
0.0
 10
14.065199
 20
14.936196
 30
0.0
 10
14.343892
 20
14.936196
 30
0.0
  0
SPLINE
  5
16c
100
AcDbEntity
  8
0
 62
7
100
AcDbSpline
 70
8
 71
3
 72
8
 73
4
 74
0
 40
0
 40
0
 40
0
 40
0
 40
1
 40
1
 40
1
 40
1
 10
14.343892
 20
14.936196
 30
0.0
 10
14.622586
 20
14.936196
 30
0.0
 10
14.844835
 20
14.713947
 30
0.0
 10
14.844835
 20
14.435253
 30
0.0
  0
SPLINE
  5
16d
100
AcDbEntity
  8
0
 62
7
100
AcDbSpline
 70
8
 71
3
 72
8
 73
4
 74
0
 40
0
 40
0
 40
0
 40
0
 40
1
 40
1
 40
1
 40
1
 10
14.844835
 20
14.435253
 30
0.0
 10
14.844835
 20
14.156560
 30
0.0
 10
14.622586
 20
13.934311
 30
0.0
 10
14.343892
 20
13.934311
 30
0.0
  0
LWPOLYLINE
  5
16e
100
AcDbEntity
  8
0
 62
7
100
AcDbPolyline
 90
1
 70
1
 10
14.343892
 20
11.934068
 30
0.0
  0
SPLINE
  5
16f
100
AcDbEntity
  8
0
 62
7
100
AcDbSpline
 70
8
 71
3
 72
8
 73
4
 74
0
 40
0
 40
0
 40
0
 40
0
 40
1
 40
1
 40
1
 40
1
 10
14.343892
 20
15.934553
 30
0.0
 10
14.068727
 20
15.934553
 30
0.0
 10
13.842950
 20
16.156803
 30
0.0
 10
13.842950
 20
16.435496
 30
0.0
  0
SPLINE
  5
170
100
AcDbEntity
  8
0
 62
7
100
AcDbSpline
 70
8
 71
3
 72
8
 73
4
 74
0
 40
0
 40
0
 40
0
 40
0
 40
1
 40
1
 40
1
 40
1
 10
13.842950
 20
16.435496
 30
0.0
 10
13.842950
 20
16.714189
 30
0.0
 10
14.065199
 20
16.936439
 30
0.0
 10
14.343892
 20
16.936439
 30
0.0
  0
SPLINE
  5
171
100
AcDbEntity
  8
0
 62
7
100
AcDbSpline
 70
8
 71
3
 72
8
 73
4
 74
0
 40
0
 40
0
 40
0
 40
0
 40
1
 40
1
 40
1
 40
1
 10
14.343892
 20
16.936439
 30
0.0
 10
14.622586
 20
16.936439
 30
0.0
 10
14.844835
 20
16.714189
 30
0.0
 10
14.844835
 20
16.435496
 30
0.0
  0
SPLINE
  5
172
100
AcDbEntity
  8
0
 62
7
100
AcDbSpline
 70
8
 71
3
 72
8
 73
4
 74
0
 40
0
 40
0
 40
0
 40
0
 40
1
 40
1
 40
1
 40
1
 10
14.844835
 20
16.435496
 30
0.0
 10
14.844835
 20
16.156803
 30
0.0
 10
14.622586
 20
15.934553
 30
0.0
 10
14.343892
 20
15.934553
 30
0.0
  0
LWPOLYLINE
  5
173
100
AcDbEntity
  8
0
 62
7
100
AcDbPolyline
 90
1
 70
1
 10
14.343892
 20
13.934311
 30
0.0
  0
SPLINE
  5
174
100
AcDbEntity
  8
0
 62
7
100
AcDbSpline
 70
8
 71
3
 72
8
 73
4
 74
0
 40
0
 40
0
 40
0
 40
0
 40
1
 40
1
 40
1
 40
1
 10
14.343892
 20
17.934796
 30
0.0
 10
14.068727
 20
17.934796
 30
0.0
 10
13.842950
 20
18.157045
 30
0.0
 10
13.842950
 20
18.435739
 30
0.0
  0
SPLINE
  5
175
100
AcDbEntity
  8
0
 62
7
100
AcDbSpline
 70
8
 71
3
 72
8
 73
4
 74
0
 40
0
 40
0
 40
0
 40
0
 40
1
 40
1
 40
1
 40
1
 10
13.842950
 20
18.435739
 30
0.0
 10
13.842950
 20
18.714432
 30
0.0
 10
14.065199
 20
18.936681
 30
0.0
 10
14.343892
 20
18.936681
 30
0.0
  0
SPLINE
  5
176
100
AcDbEntity
  8
0
 62
7
100
AcDbSpline
 70
8
 71
3
 72
8
 73
4
 74
0
 40
0
 40
0
 40
0
 40
0
 40
1
 40
1
 40
1
 40
1
 10
14.343892
 20
18.936681
 30
0.0
 10
14.622586
 20
18.936681
 30
0.0
 10
14.844835
 20
18.714432
 30
0.0
 10
14.844835
 20
18.435739
 30
0.0
  0
SPLINE
  5
177
100
AcDbEntity
  8
0
 62
7
100
AcDbSpline
 70
8
 71
3
 72
8
 73
4
 74
0
 40
0
 40
0
 40
0
 40
0
 40
1
 40
1
 40
1
 40
1
 10
14.844835
 20
18.435739
 30
0.0
 10
14.844835
 20
18.157045
 30
0.0
 10
14.622586
 20
17.934796
 30
0.0
 10
14.343892
 20
17.934796
 30
0.0
  0
LWPOLYLINE
  5
178
100
AcDbEntity
  8
0
 62
7
100
AcDbPolyline
 90
1
 70
1
 10
14.343892
 20
15.934553
 30
0.0
  0
SPLINE
  5
179
100
AcDbEntity
  8
0
 62
7
100
AcDbSpline
 70
8
 71
3
 72
8
 73
4
 74
0
 40
0
 40
0
 40
0
 40
0
 40
1
 40
1
 40
1
 40
1
 10
16.344135
 20
9.933825
 30
0.0
 10
16.068969
 20
9.933825
 30
0.0
 10
15.843193
 20
10.156074
 30
0.0
 10
15.843193
 20
10.434768
 30
0.0
  0
SPLINE
  5
17a
100
AcDbEntity
  8
0
 62
7
100
AcDbSpline
 70
8
 71
3
 72
8
 73
4
 74
0
 40
0
 40
0
 40
0
 40
0
 40
1
 40
1
 40
1
 40
1
 10
15.843193
 20
10.434768
 30
0.0
 10
15.843193
 20
10.713461
 30
0.0
 10
16.065442
 20
10.935710
 30
0.0
 10
16.344135
 20
10.935710
 30
0.0
  0
SPLINE
  5
17b
100
AcDbEntity
  8
0
 62
7
100
AcDbSpline
 70
8
 71
3
 72
8
 73
4
 74
0
 40
0
 40
0
 40
0
 40
0
 40
1
 40
1
 40
1
 40
1
 10
16.344135
 20
10.935710
 30
0.0
 10
16.622829
 20
10.935710
 30
0.0
 10
16.845078
 20
10.713461
 30
0.0
 10
16.845078
 20
10.434768
 30
0.0
  0
SPLINE
  5
17c
100
AcDbEntity
  8
0
 62
7
100
AcDbSpline
 70
8
 71
3
 72
8
 73
4
 74
0
 40
0
 40
0
 40
0
 40
0
 40
1
 40
1
 40
1
 40
1
 10
16.845078
 20
10.434768
 30
0.0
 10
16.845078
 20
10.156074
 30
0.0
 10
16.622829
 20
9.933825
 30
0.0
 10
16.344135
 20
9.933825
 30
0.0
  0
LWPOLYLINE
  5
17d
100
AcDbEntity
  8
0
 62
7
100
AcDbPolyline
 90
1
 70
1
 10
14.343892
 20
17.934796
 30
0.0
  0
SPLINE
  5
17e
100
AcDbEntity
  8
0
 62
7
100
AcDbSpline
 70
8
 71
3
 72
8
 73
4
 74
0
 40
0
 40
0
 40
0
 40
0
 40
1
 40
1
 40
1
 40
1
 10
16.344135
 20
11.934068
 30
0.0
 10
16.068969
 20
11.934068
 30
0.0
 10
15.843193
 20
12.156317
 30
0.0
 10
15.843193
 20
12.435010
 30
0.0
  0
SPLINE
  5
17f
100
AcDbEntity
  8
0
 62
7
100
AcDbSpline
 70
8
 71
3
 72
8
 73
4
 74
0
 40
0
 40
0
 40
0
 40
0
 40
1
 40
1
 40
1
 40
1
 10
15.843193
 20
12.435010
 30
0.0
 10
15.843193
 20
12.713704
 30
0.0
 10
16.065442
 20
12.935953
 30
0.0
 10
16.344135
 20
12.935953
 30
0.0
  0
SPLINE
  5
180
100
AcDbEntity
  8
0
 62
7
100
AcDbSpline
 70
8
 71
3
 72
8
 73
4
 74
0
 40
0
 40
0
 40
0
 40
0
 40
1
 40
1
 40
1
 40
1
 10
16.344135
 20
12.935953
 30
0.0
 10
16.622829
 20
12.935953
 30
0.0
 10
16.845078
 20
12.713704
 30
0.0
 10
16.845078
 20
12.435010
 30
0.0
  0
SPLINE
  5
181
100
AcDbEntity
  8
0
 62
7
100
AcDbSpline
 70
8
 71
3
 72
8
 73
4
 74
0
 40
0
 40
0
 40
0
 40
0
 40
1
 40
1
 40
1
 40
1
 10
16.845078
 20
12.435010
 30
0.0
 10
16.845078
 20
12.156317
 30
0.0
 10
16.622829
 20
11.934068
 30
0.0
 10
16.344135
 20
11.934068
 30
0.0
  0
LWPOLYLINE
  5
182
100
AcDbEntity
  8
0
 62
7
100
AcDbPolyline
 90
1
 70
1
 10
16.344135
 20
9.933825
 30
0.0
  0
SPLINE
  5
183
100
AcDbEntity
  8
0
 62
7
100
AcDbSpline
 70
8
 71
3
 72
8
 73
4
 74
0
 40
0
 40
0
 40
0
 40
0
 40
1
 40
1
 40
1
 40
1
 10
16.344135
 20
13.934311
 30
0.0
 10
16.068969
 20
13.934311
 30
0.0
 10
15.843193
 20
14.156560
 30
0.0
 10
15.843193
 20
14.435253
 30
0.0
  0
SPLINE
  5
184
100
AcDbEntity
  8
0
 62
7
100
AcDbSpline
 70
8
 71
3
 72
8
 73
4
 74
0
 40
0
 40
0
 40
0
 40
0
 40
1
 40
1
 40
1
 40
1
 10
15.843193
 20
14.435253
 30
0.0
 10
15.843193
 20
14.713947
 30
0.0
 10
16.065442
 20
14.936196
 30
0.0
 10
16.344135
 20
14.936196
 30
0.0
  0
SPLINE
  5
185
100
AcDbEntity
  8
0
 62
7
100
AcDbSpline
 70
8
 71
3
 72
8
 73
4
 74
0
 40
0
 40
0
 40
0
 40
0
 40
1
 40
1
 40
1
 40
1
 10
16.344135
 20
14.936196
 30
0.0
 10
16.622829
 20
14.936196
 30
0.0
 10
16.845078
 20
14.713947
 30
0.0
 10
16.845078
 20
14.435253
 30
0.0
  0
SPLINE
  5
186
100
AcDbEntity
  8
0
 62
7
100
AcDbSpline
 70
8
 71
3
 72
8
 73
4
 74
0
 40
0
 40
0
 40
0
 40
0
 40
1
 40
1
 40
1
 40
1
 10
16.845078
 20
14.435253
 30
0.0
 10
16.845078
 20
14.156560
 30
0.0
 10
16.622829
 20
13.934311
 30
0.0
 10
16.344135
 20
13.934311
 30
0.0
  0
LWPOLYLINE
  5
187
100
AcDbEntity
  8
0
 62
7
100
AcDbPolyline
 90
1
 70
1
 10
16.344135
 20
11.934068
 30
0.0
  0
SPLINE
  5
188
100
AcDbEntity
  8
0
 62
7
100
AcDbSpline
 70
8
 71
3
 72
8
 73
4
 74
0
 40
0
 40
0
 40
0
 40
0
 40
1
 40
1
 40
1
 40
1
 10
16.344135
 20
15.934553
 30
0.0
 10
16.068969
 20
15.934553
 30
0.0
 10
15.843193
 20
16.156803
 30
0.0
 10
15.843193
 20
16.435496
 30
0.0
  0
SPLINE
  5
189
100
AcDbEntity
  8
0
 62
7
100
AcDbSpline
 70
8
 71
3
 72
8
 73
4
 74
0
 40
0
 40
0
 40
0
 40
0
 40
1
 40
1
 40
1
 40
1
 10
15.843193
 20
16.435496
 30
0.0
 10
15.843193
 20
16.714189
 30
0.0
 10
16.065442
 20
16.936439
 30
0.0
 10
16.344135
 20
16.936439
 30
0.0
  0
SPLINE
  5
18a
100
AcDbEntity
  8
0
 62
7
100
AcDbSpline
 70
8
 71
3
 72
8
 73
4
 74
0
 40
0
 40
0
 40
0
 40
0
 40
1
 40
1
 40
1
 40
1
 10
16.344135
 20
16.936439
 30
0.0
 10
16.622829
 20
16.936439
 30
0.0
 10
16.845078
 20
16.714189
 30
0.0
 10
16.845078
 20
16.435496
 30
0.0
  0
SPLINE
  5
18b
100
AcDbEntity
  8
0
 62
7
100
AcDbSpline
 70
8
 71
3
 72
8
 73
4
 74
0
 40
0
 40
0
 40
0
 40
0
 40
1
 40
1
 40
1
 40
1
 10
16.845078
 20
16.435496
 30
0.0
 10
16.845078
 20
16.156803
 30
0.0
 10
16.622829
 20
15.934553
 30
0.0
 10
16.344135
 20
15.934553
 30
0.0
  0
LWPOLYLINE
  5
18c
100
AcDbEntity
  8
0
 62
7
100
AcDbPolyline
 90
1
 70
1
 10
16.344135
 20
13.934311
 30
0.0
  0
SPLINE
  5
18d
100
AcDbEntity
  8
0
 62
7
100
AcDbSpline
 70
8
 71
3
 72
8
 73
4
 74
0
 40
0
 40
0
 40
0
 40
0
 40
1
 40
1
 40
1
 40
1
 10
16.344135
 20
17.934796
 30
0.0
 10
16.068969
 20
17.934796
 30
0.0
 10
15.843193
 20
18.157045
 30
0.0
 10
15.843193
 20
18.435739
 30
0.0
  0
SPLINE
  5
18e
100
AcDbEntity
  8
0
 62
7
100
AcDbSpline
 70
8
 71
3
 72
8
 73
4
 74
0
 40
0
 40
0
 40
0
 40
0
 40
1
 40
1
 40
1
 40
1
 10
15.843193
 20
18.435739
 30
0.0
 10
15.843193
 20
18.714432
 30
0.0
 10
16.065442
 20
18.936681
 30
0.0
 10
16.344135
 20
18.936681
 30
0.0
  0
SPLINE
  5
18f
100
AcDbEntity
  8
0
 62
7
100
AcDbSpline
 70
8
 71
3
 72
8
 73
4
 74
0
 40
0
 40
0
 40
0
 40
0
 40
1
 40
1
 40
1
 40
1
 10
16.344135
 20
18.936681
 30
0.0
 10
16.622829
 20
18.936681
 30
0.0
 10
16.845078
 20
18.714432
 30
0.0
 10
16.845078
 20
18.435739
 30
0.0
  0
SPLINE
  5
190
100
AcDbEntity
  8
0
 62
7
100
AcDbSpline
 70
8
 71
3
 72
8
 73
4
 74
0
 40
0
 40
0
 40
0
 40
0
 40
1
 40
1
 40
1
 40
1
 10
16.845078
 20
18.435739
 30
0.0
 10
16.845078
 20
18.157045
 30
0.0
 10
16.622829
 20
17.934796
 30
0.0
 10
16.344135
 20
17.934796
 30
0.0
  0
LWPOLYLINE
  5
191
100
AcDbEntity
  8
0
 62
7
100
AcDbPolyline
 90
1
 70
1
 10
16.344135
 20
15.934553
 30
0.0
  0
SPLINE
  5
192
100
AcDbEntity
  8
0
 62
7
100
AcDbSpline
 70
8
 71
3
 72
8
 73
4
 74
0
 40
0
 40
0
 40
0
 40
0
 40
1
 40
1
 40
1
 40
1
 10
18.344378
 20
9.933825
 30
0.0
 10
18.069212
 20
9.933825
 30
0.0
 10
17.843435
 20
10.156074
 30
0.0
 10
17.843435
 20
10.434768
 30
0.0
  0
SPLINE
  5
193
100
AcDbEntity
  8
0
 62
7
100
AcDbSpline
 70
8
 71
3
 72
8
 73
4
 74
0
 40
0
 40
0
 40
0
 40
0
 40
1
 40
1
 40
1
 40
1
 10
17.843435
 20
10.434768
 30
0.0
 10
17.843435
 20
10.713461
 30
0.0
 10
18.065684
 20
10.935710
 30
0.0
 10
18.344378
 20
10.935710
 30
0.0
  0
SPLINE
  5
194
100
AcDbEntity
  8
0
 62
7
100
AcDbSpline
 70
8
 71
3
 72
8
 73
4
 74
0
 40
0
 40
0
 40
0
 40
0
 40
1
 40
1
 40
1
 40
1
 10
18.344378
 20
10.935710
 30
0.0
 10
18.623071
 20
10.935710
 30
0.0
 10
18.845321
 20
10.713461
 30
0.0
 10
18.845321
 20
10.434768
 30
0.0
  0
SPLINE
  5
195
100
AcDbEntity
  8
0
 62
7
100
AcDbSpline
 70
8
 71
3
 72
8
 73
4
 74
0
 40
0
 40
0
 40
0
 40
0
 40
1
 40
1
 40
1
 40
1
 10
18.845321
 20
10.434768
 30
0.0
 10
18.845321
 20
10.156074
 30
0.0
 10
18.623071
 20
9.933825
 30
0.0
 10
18.344378
 20
9.933825
 30
0.0
  0
LWPOLYLINE
  5
196
100
AcDbEntity
  8
0
 62
7
100
AcDbPolyline
 90
1
 70
1
 10
16.344135
 20
17.934796
 30
0.0
  0
SPLINE
  5
197
100
AcDbEntity
  8
0
 62
7
100
AcDbSpline
 70
8
 71
3
 72
8
 73
4
 74
0
 40
0
 40
0
 40
0
 40
0
 40
1
 40
1
 40
1
 40
1
 10
18.344378
 20
11.934068
 30
0.0
 10
18.069212
 20
11.934068
 30
0.0
 10
17.843435
 20
12.156317
 30
0.0
 10
17.843435
 20
12.435010
 30
0.0
  0
SPLINE
  5
198
100
AcDbEntity
  8
0
 62
7
100
AcDbSpline
 70
8
 71
3
 72
8
 73
4
 74
0
 40
0
 40
0
 40
0
 40
0
 40
1
 40
1
 40
1
 40
1
 10
17.843435
 20
12.435010
 30
0.0
 10
17.843435
 20
12.713704
 30
0.0
 10
18.065684
 20
12.935953
 30
0.0
 10
18.344378
 20
12.935953
 30
0.0
  0
SPLINE
  5
199
100
AcDbEntity
  8
0
 62
7
100
AcDbSpline
 70
8
 71
3
 72
8
 73
4
 74
0
 40
0
 40
0
 40
0
 40
0
 40
1
 40
1
 40
1
 40
1
 10
18.344378
 20
12.935953
 30
0.0
 10
18.623071
 20
12.935953
 30
0.0
 10
18.845321
 20
12.713704
 30
0.0
 10
18.845321
 20
12.435010
 30
0.0
  0
SPLINE
  5
19a
100
AcDbEntity
  8
0
 62
7
100
AcDbSpline
 70
8
 71
3
 72
8
 73
4
 74
0
 40
0
 40
0
 40
0
 40
0
 40
1
 40
1
 40
1
 40
1
 10
18.845321
 20
12.435010
 30
0.0
 10
18.845321
 20
12.156317
 30
0.0
 10
18.623071
 20
11.934068
 30
0.0
 10
18.344378
 20
11.934068
 30
0.0
  0
LWPOLYLINE
  5
19b
100
AcDbEntity
  8
0
 62
7
100
AcDbPolyline
 90
1
 70
1
 10
18.344378
 20
9.933825
 30
0.0
  0
SPLINE
  5
19c
100
AcDbEntity
  8
0
 62
7
100
AcDbSpline
 70
8
 71
3
 72
8
 73
4
 74
0
 40
0
 40
0
 40
0
 40
0
 40
1
 40
1
 40
1
 40
1
 10
18.344378
 20
13.934311
 30
0.0
 10
18.069212
 20
13.934311
 30
0.0
 10
17.843435
 20
14.156560
 30
0.0
 10
17.843435
 20
14.435253
 30
0.0
  0
SPLINE
  5
19d
100
AcDbEntity
  8
0
 62
7
100
AcDbSpline
 70
8
 71
3
 72
8
 73
4
 74
0
 40
0
 40
0
 40
0
 40
0
 40
1
 40
1
 40
1
 40
1
 10
17.843435
 20
14.435253
 30
0.0
 10
17.843435
 20
14.713947
 30
0.0
 10
18.065684
 20
14.936196
 30
0.0
 10
18.344378
 20
14.936196
 30
0.0
  0
SPLINE
  5
19e
100
AcDbEntity
  8
0
 62
7
100
AcDbSpline
 70
8
 71
3
 72
8
 73
4
 74
0
 40
0
 40
0
 40
0
 40
0
 40
1
 40
1
 40
1
 40
1
 10
18.344378
 20
14.936196
 30
0.0
 10
18.623071
 20
14.936196
 30
0.0
 10
18.845321
 20
14.713947
 30
0.0
 10
18.845321
 20
14.435253
 30
0.0
  0
SPLINE
  5
19f
100
AcDbEntity
  8
0
 62
7
100
AcDbSpline
 70
8
 71
3
 72
8
 73
4
 74
0
 40
0
 40
0
 40
0
 40
0
 40
1
 40
1
 40
1
 40
1
 10
18.845321
 20
14.435253
 30
0.0
 10
18.845321
 20
14.156560
 30
0.0
 10
18.623071
 20
13.934311
 30
0.0
 10
18.344378
 20
13.934311
 30
0.0
  0
LWPOLYLINE
  5
1a0
100
AcDbEntity
  8
0
 62
7
100
AcDbPolyline
 90
1
 70
1
 10
18.344378
 20
11.934068
 30
0.0
  0
SPLINE
  5
1a1
100
AcDbEntity
  8
0
 62
7
100
AcDbSpline
 70
8
 71
3
 72
8
 73
4
 74
0
 40
0
 40
0
 40
0
 40
0
 40
1
 40
1
 40
1
 40
1
 10
18.344378
 20
15.934553
 30
0.0
 10
18.069212
 20
15.934553
 30
0.0
 10
17.843435
 20
16.156803
 30
0.0
 10
17.843435
 20
16.435496
 30
0.0
  0
SPLINE
  5
1a2
100
AcDbEntity
  8
0
 62
7
100
AcDbSpline
 70
8
 71
3
 72
8
 73
4
 74
0
 40
0
 40
0
 40
0
 40
0
 40
1
 40
1
 40
1
 40
1
 10
17.843435
 20
16.435496
 30
0.0
 10
17.843435
 20
16.714189
 30
0.0
 10
18.065684
 20
16.936439
 30
0.0
 10
18.344378
 20
16.936439
 30
0.0
  0
SPLINE
  5
1a3
100
AcDbEntity
  8
0
 62
7
100
AcDbSpline
 70
8
 71
3
 72
8
 73
4
 74
0
 40
0
 40
0
 40
0
 40
0
 40
1
 40
1
 40
1
 40
1
 10
18.344378
 20
16.936439
 30
0.0
 10
18.623071
 20
16.936439
 30
0.0
 10
18.845321
 20
16.714189
 30
0.0
 10
18.845321
 20
16.435496
 30
0.0
  0
SPLINE
  5
1a4
100
AcDbEntity
  8
0
 62
7
100
AcDbSpline
 70
8
 71
3
 72
8
 73
4
 74
0
 40
0
 40
0
 40
0
 40
0
 40
1
 40
1
 40
1
 40
1
 10
18.845321
 20
16.435496
 30
0.0
 10
18.845321
 20
16.156803
 30
0.0
 10
18.623071
 20
15.934553
 30
0.0
 10
18.344378
 20
15.934553
 30
0.0
  0
LWPOLYLINE
  5
1a5
100
AcDbEntity
  8
0
 62
7
100
AcDbPolyline
 90
1
 70
1
 10
18.344378
 20
13.934311
 30
0.0
  0
SPLINE
  5
1a6
100
AcDbEntity
  8
0
 62
7
100
AcDbSpline
 70
8
 71
3
 72
8
 73
4
 74
0
 40
0
 40
0
 40
0
 40
0
 40
1
 40
1
 40
1
 40
1
 10
18.344378
 20
17.934796
 30
0.0
 10
18.069212
 20
17.934796
 30
0.0
 10
17.843435
 20
18.157045
 30
0.0
 10
17.843435
 20
18.435739
 30
0.0
  0
SPLINE
  5
1a7
100
AcDbEntity
  8
0
 62
7
100
AcDbSpline
 70
8
 71
3
 72
8
 73
4
 74
0
 40
0
 40
0
 40
0
 40
0
 40
1
 40
1
 40
1
 40
1
 10
17.843435
 20
18.435739
 30
0.0
 10
17.843435
 20
18.714432
 30
0.0
 10
18.065684
 20
18.936681
 30
0.0
 10
18.344378
 20
18.936681
 30
0.0
  0
SPLINE
  5
1a8
100
AcDbEntity
  8
0
 62
7
100
AcDbSpline
 70
8
 71
3
 72
8
 73
4
 74
0
 40
0
 40
0
 40
0
 40
0
 40
1
 40
1
 40
1
 40
1
 10
18.344378
 20
18.936681
 30
0.0
 10
18.623071
 20
18.936681
 30
0.0
 10
18.845321
 20
18.714432
 30
0.0
 10
18.845321
 20
18.435739
 30
0.0
  0
SPLINE
  5
1a9
100
AcDbEntity
  8
0
 62
7
100
AcDbSpline
 70
8
 71
3
 72
8
 73
4
 74
0
 40
0
 40
0
 40
0
 40
0
 40
1
 40
1
 40
1
 40
1
 10
18.845321
 20
18.435739
 30
0.0
 10
18.845321
 20
18.157045
 30
0.0
 10
18.623071
 20
17.934796
 30
0.0
 10
18.344378
 20
17.934796
 30
0.0
  0
LWPOLYLINE
  5
1aa
100
AcDbEntity
  8
0
 62
7
100
AcDbPolyline
 90
1
 70
1
 10
18.344378
 20
15.934553
 30
0.0
  0
SPLINE
  5
1ab
100
AcDbEntity
  8
0
 62
7
100
AcDbSpline
 70
8
 71
3
 72
8
 73
4
 74
0
 40
0
 40
0
 40
0
 40
0
 40
1
 40
1
 40
1
 40
1
 10
35.750370
 20
9.309411
 30
0.0
 10
36.328924
 20
9.309411
 30
0.0
 10
36.801644
 20
8.840218
 30
0.0
 10
36.801644
 20
8.258137
 30
0.0
  0
SPLINE
  5
1ac
100
AcDbEntity
  8
0
 62
7
100
AcDbSpline
 70
8
 71
3
 72
8
 73
4
 74
0
 40
0
 40
0
 40
0
 40
0
 40
1
 40
1
 40
1
 40
1
 10
36.801644
 20
8.258137
 30
0.0
 10
36.801644
 20
7.676055
 30
0.0
 10
36.332452
 20
7.206863
 30
0.0
 10
35.750370
 20
7.206863
 30
0.0
  0
SPLINE
  5
1ad
100
AcDbEntity
  8
0
 62
7
100
AcDbSpline
 70
8
 71
3
 72
8
 73
4
 74
0
 40
0
 40
0
 40
0
 40
0
 40
1
 40
1
 40
1
 40
1
 10
35.750370
 20
7.206863
 30
0.0
 10
35.168289
 20
7.206863
 30
0.0
 10
34.699096
 20
7.676055
 30
0.0
 10
34.699096
 20
8.258137
 30
0.0
  0
SPLINE
  5
1ae
100
AcDbEntity
  8
0
 62
7
100
AcDbSpline
 70
8
 71
3
 72
8
 73
4
 74
0
 40
0
 40
0
 40
0
 40
0
 40
1
 40
1
 40
1
 40
1
 10
34.699096
 20
8.258137
 30
0.0
 10
34.699096
 20
8.840218
 30
0.0
 10
35.168289
 20
9.309411
 30
0.0
 10
35.750370
 20
9.309411
 30
0.0
  0
LWPOLYLINE
  5
1af
100
AcDbEntity
  8
0
 62
7
100
AcDbPolyline
 90
1
 70
1
 10
18.344378
 20
17.934796
 30
0.0
  0
SPLINE
  5
1b0
100
AcDbEntity
  8
0
 62
7
100
AcDbSpline
 70
8
 71
3
 72
8
 73
4
 74
0
 40
0
 40
0
 40
0
 40
0
 40
1
 40
1
 40
1
 40
1
 10
24.175773
 20
10.081991
 30
0.0
 10
24.754327
 20
10.081991
 30
0.0
 10
25.227047
 20
9.612798
 30
0.0
 10
25.227047
 20
9.030717
 30
0.0
  0
SPLINE
  5
1b1
100
AcDbEntity
  8
0
 62
7
100
AcDbSpline
 70
8
 71
3
 72
8
 73
4
 74
0
 40
0
 40
0
 40
0
 40
0
 40
1
 40
1
 40
1
 40
1
 10
25.227047
 20
9.030717
 30
0.0
 10
25.227047
 20
8.448636
 30
0.0
 10
24.757855
 20
7.979443
 30
0.0
 10
24.175773
 20
7.979443
 30
0.0
  0
SPLINE
  5
1b2
100
AcDbEntity
  8
0
 62
7
100
AcDbSpline
 70
8
 71
3
 72
8
 73
4
 74
0
 40
0
 40
0
 40
0
 40
0
 40
1
 40
1
 40
1
 40
1
 10
24.175773
 20
7.979443
 30
0.0
 10
23.593692
 20
7.979443
 30
0.0
 10
23.124499
 20
8.448636
 30
0.0
 10
23.124499
 20
9.030717
 30
0.0
  0
SPLINE
  5
1b3
100
AcDbEntity
  8
0
 62
7
100
AcDbSpline
 70
8
 71
3
 72
8
 73
4
 74
0
 40
0
 40
0
 40
0
 40
0
 40
1
 40
1
 40
1
 40
1
 10
23.124499
 20
9.030717
 30
0.0
 10
23.124499
 20
9.612798
 30
0.0
 10
23.593692
 20
10.081991
 30
0.0
 10
24.175773
 20
10.081991
 30
0.0
  0
LWPOLYLINE
  5
1b4
100
AcDbEntity
  8
0
 62
7
100
AcDbPolyline
 90
1
 70
1
 10
35.750370
 20
9.309411
 30
0.0
  0
LWPOLYLINE
  5
1b5
100
AcDbEntity
  8
0
 62
7
100
AcDbPolyline
 90
1
 70
1
 10
24.175773
 20
10.081991
 30
0.0
  0
SPLINE
  5
1b6
100
AcDbEntity
  8
0
 62
7
100
AcDbSpline
 70
8
 71
3
 72
8
 73
4
 74
0
 40
0
 40
0
 40
0
 40
0
 40
1
 40
1
 40
1
 40
1
 10
147.993269
 20
68.357141
 30
0.0
 10
147.270077
 20
68.406530
 30
0.0
 10
147.143077
 20
67.348200
 30
0.0
 10
147.855686
 20
67.224728
 30
0.0
  0
LWPOLYLINE
  5
1b7
100
AcDbEntity
  8
0
 62
7
100
AcDbPolyline
 90
6
 70
0
 10
183.697778
 20
48.866239
 30
0.0
 10
183.697778
 20
88.874622
 30
0.0
 10
178.102743
 20
88.885205
 30
0.0
 10
176.529360
 20
66.381593
 30
0.0
 10
176.529360
 20
66.381593
 30
0.0
 10
147.993269
 20
68.357141
 30
0.0
  0
SPLINE
  5
1b8
100
AcDbEntity
  8
0
 62
7
100
AcDbSpline
 70
8
 71
3
 72
8
 73
4
 74
0
 40
0
 40
0
 40
0
 40
0
 40
1
 40
1
 40
1
 40
1
 10
163.765906
 20
64.434266
 30
0.0
 10
164.146905
 20
64.367239
 30
0.0
 10
164.400904
 20
64.003879
 30
0.0
 10
164.333876
 20
63.622880
 30
0.0
  0
LWPOLYLINE
  5
1b9
100
AcDbEntity
  8
0
 62
7
100
AcDbPolyline
 90
2
 70
0
 10
147.855686
 20
67.224728
 30
0.0
 10
163.765906
 20
64.434266
 30
0.0
  0
SPLINE
  5
1ba
100
AcDbEntity
  8
0
 62
7
100
AcDbSpline
 70
8
 71
3
 72
8
 73
4
 74
0
 40
0
 40
0
 40
0
 40
0
 40
1
 40
1
 40
1
 40
1
 10
182.999281
 20
48.167742
 30
0.0
 10
183.387335
 20
48.167742
 30
0.0
 10
183.697778
 20
48.481713
 30
0.0
 10
183.697778
 20
48.866239
 30
0.0
  0
LWPOLYLINE
  5
1bb
100
AcDbEntity
  8
0
 62
7
100
AcDbPolyline
 90
3
 70
0
 10
164.333876
 20
63.622880
 30
0.0
 10
161.610442
 20
48.167742
 30
0.0
 10
182.999281
 20
48.167742
 30
0.0
  0
SPLINE
  5
1bc
100
AcDbEntity
  8
0
 62
7
100
AcDbSpline
 70
8
 71
3
 72
8
 73
4
 74
0
 40
0
 40
0
 40
0
 40
0
 40
1
 40
1
 40
1
 40
1
 10
180.046541
 20
84.369666
 30
0.0
 10
180.046541
 20
84.948220
 30
0.0
 10
180.515734
 20
85.420940
 30
0.0
 10
181.097815
 20
85.420940
 30
0.0
  0
SPLINE
  5
1bd
100
AcDbEntity
  8
0
 62
7
100
AcDbSpline
 70
8
 71
3
 72
8
 73
4
 74
0
 40
0
 40
0
 40
0
 40
0
 40
1
 40
1
 40
1
 40
1
 10
181.097815
 20
85.420940
 30
0.0
 10
181.679897
 20
85.420940
 30
0.0
 10
182.149089
 20
84.951747
 30
0.0
 10
182.149089
 20
84.369666
 30
0.0
  0
SPLINE
  5
1be
100
AcDbEntity
  8
0
 62
7
100
AcDbSpline
 70
8
 71
3
 72
8
 73
4
 74
0
 40
0
 40
0
 40
0
 40
0
 40
1
 40
1
 40
1
 40
1
 10
182.149089
 20
84.369666
 30
0.0
 10
182.149089
 20
83.787585
 30
0.0
 10
181.679897
 20
83.318392
 30
0.0
 10
181.097815
 20
83.318392
 30
0.0
  0
SPLINE
  5
1bf
100
AcDbEntity
  8
0
 62
7
100
AcDbSpline
 70
8
 71
3
 72
8
 73
4
 74
0
 40
0
 40
0
 40
0
 40
0
 40
1
 40
1
 40
1
 40
1
 10
181.097815
 20
83.318392
 30
0.0
 10
180.515734
 20
83.318392
 30
0.0
 10
180.046541
 20
83.787585
 30
0.0
 10
180.046541
 20
84.369666
 30
0.0
  0
LWPOLYLINE
  5
1c0
100
AcDbEntity
  8
0
 62
7
100
AcDbPolyline
 90
1
 70
1
 10
183.697778
 20
48.866239
 30
0.0
  0
SPLINE
  5
1c1
100
AcDbEntity
  8
0
 62
7
100
AcDbSpline
 70
8
 71
3
 72
8
 73
4
 74
0
 40
0
 40
0
 40
0
 40
0
 40
1
 40
1
 40
1
 40
1
 10
179.037601
 20
69.528359
 30
0.0
 10
179.037601
 20
70.106912
 30
0.0
 10
179.506793
 20
70.579633
 30
0.0
 10
180.088875
 20
70.579633
 30
0.0
  0
SPLINE
  5
1c2
100
AcDbEntity
  8
0
 62
7
100
AcDbSpline
 70
8
 71
3
 72
8
 73
4
 74
0
 40
0
 40
0
 40
0
 40
0
 40
1
 40
1
 40
1
 40
1
 10
180.088875
 20
70.579633
 30
0.0
 10
180.670956
 20
70.579633
 30
0.0
 10
181.140148
 20
70.110440
 30
0.0
 10
181.140148
 20
69.528359
 30
0.0
  0
SPLINE
  5
1c3
100
AcDbEntity
  8
0
 62
7
100
AcDbSpline
 70
8
 71
3
 72
8
 73
4
 74
0
 40
0
 40
0
 40
0
 40
0
 40
1
 40
1
 40
1
 40
1
 10
181.140148
 20
69.528359
 30
0.0
 10
181.140148
 20
68.946278
 30
0.0
 10
180.670956
 20
68.477085
 30
0.0
 10
180.088875
 20
68.477085
 30
0.0
  0
SPLINE
  5
1c4
100
AcDbEntity
  8
0
 62
7
100
AcDbSpline
 70
8
 71
3
 72
8
 73
4
 74
0
 40
0
 40
0
 40
0
 40
0
 40
1
 40
1
 40
1
 40
1
 10
180.088875
 20
68.477085
 30
0.0
 10
179.506793
 20
68.477085
 30
0.0
 10
179.037601
 20
68.946278
 30
0.0
 10
179.037601
 20
69.528359
 30
0.0
  0
LWPOLYLINE
  5
1c5
100
AcDbEntity
  8
0
 62
7
100
AcDbPolyline
 90
1
 70
1
 10
180.046541
 20
84.369666
 30
0.0
  0
SPLINE
  5
1c6
100
AcDbEntity
  8
0
 62
7
100
AcDbSpline
 70
8
 71
3
 72
8
 73
4
 74
0
 40
0
 40
0
 40
0
 40
0
 40
1
 40
1
 40
1
 40
1
 10
3.446626
 20
41.528488
 30
0.0
 10
3.446626
 20
33.382879
 30
0.0
 10
10.050602
 20
26.778903
 30
0.0
 10
18.196212
 20
26.778903
 30
0.0
  0
SPLINE
  5
1c7
100
AcDbEntity
  8
0
 62
7
100
AcDbSpline
 70
8
 71
3
 72
8
 73
4
 74
0
 40
0
 40
0
 40
0
 40
0
 40
1
 40
1
 40
1
 40
1
 10
18.196212
 20
26.778903
 30
0.0
 10
26.341821
 20
26.778903
 30
0.0
 10
32.945797
 20
33.382879
 30
0.0
 10
32.945797
 20
41.528488
 30
0.0
  0
SPLINE
  5
1c8
100
AcDbEntity
  8
0
 62
7
100
AcDbSpline
 70
8
 71
3
 72
8
 73
4
 74
0
 40
0
 40
0
 40
0
 40
0
 40
1
 40
1
 40
1
 40
1
 10
32.945797
 20
41.528488
 30
0.0
 10
32.945797
 20
49.674098
 30
0.0
 10
26.341821
 20
56.278074
 30
0.0
 10
18.196212
 20
56.278074
 30
0.0
  0
SPLINE
  5
1c9
100
AcDbEntity
  8
0
 62
7
100
AcDbSpline
 70
8
 71
3
 72
8
 73
4
 74
0
 40
0
 40
0
 40
0
 40
0
 40
1
 40
1
 40
1
 40
1
 10
18.196212
 20
56.278074
 30
0.0
 10
10.050602
 20
56.278074
 30
0.0
 10
3.446626
 20
49.674098
 30
0.0
 10
3.446626
 20
41.528488
 30
0.0
  0
LWPOLYLINE
  5
1ca
100
AcDbEntity
  8
0
 62
7
100
AcDbPolyline
 90
1
 70
1
 10
179.037601
 20
69.528359
 30
0.0
  0
SPLINE
  5
1cb
100
AcDbEntity
  8
0
 62
7
100
AcDbSpline
 70
8
 71
3
 72
8
 73
4
 74
0
 40
0
 40
0
 40
0
 40
0
 40
1
 40
1
 40
1
 40
1
 10
5.947812
 20
41.528488
 30
0.0
 10
5.947812
 20
48.291214
 30
0.0
 10
11.433486
 20
53.776888
 30
0.0
 10
18.196212
 20
53.776888
 30
0.0
  0
SPLINE
  5
1cc
100
AcDbEntity
  8
0
 62
7
100
AcDbSpline
 70
8
 71
3
 72
8
 73
4
 74
0
 40
0
 40
0
 40
0
 40
0
 40
1
 40
1
 40
1
 40
1
 10
18.196212
 20
53.776888
 30
0.0
 10
24.958937
 20
53.776888
 30
0.0
 10
30.444612
 20
48.291214
 30
0.0
 10
30.444612
 20
41.528488
 30
0.0
  0
SPLINE
  5
1cd
100
AcDbEntity
  8
0
 62
7
100
AcDbSpline
 70
8
 71
3
 72
8
 73
4
 74
0
 40
0
 40
0
 40
0
 40
0
 40
1
 40
1
 40
1
 40
1
 10
30.444612
 20
41.528488
 30
0.0
 10
30.444612
 20
34.765763
 30
0.0
 10
24.962465
 20
29.280088
 30
0.0
 10
18.196212
 20
29.280088
 30
0.0
  0
SPLINE
  5
1ce
100
AcDbEntity
  8
0
 62
7
100
AcDbSpline
 70
8
 71
3
 72
8
 73
4
 74
0
 40
0
 40
0
 40
0
 40
0
 40
1
 40
1
 40
1
 40
1
 10
18.196212
 20
29.280088
 30
0.0
 10
11.429959
 20
29.280088
 30
0.0
 10
5.947812
 20
34.765763
 30
0.0
 10
5.947812
 20
41.528488
 30
0.0
  0
LWPOLYLINE
  5
1cf
100
AcDbEntity
  8
0
 62
7
100
AcDbPolyline
 90
1
 70
1
 10
3.446626
 20
41.528488
 30
0.0
  0
LWPOLYLINE
  5
1d0
100
AcDbEntity
  8
0
 62
7
100
AcDbPolyline
 90
1
 70
1
 10
5.947812
 20
41.528488
 30
0.0
  0
SPLINE
  5
1d1
100
AcDbEntity
  8
0
 62
7
100
AcDbSpline
 70
8
 71
3
 72
8
 73
4
 74
0
 40
0
 40
0
 40
0
 40
0
 40
1
 40
1
 40
1
 40
1
 10
61.224361
 20
91.915555
 30
0.0
 10
61.608888
 20
91.915555
 30
0.0
 10
61.922859
 20
91.605112
 30
0.0
 10
61.922859
 20
91.217058
 30
0.0
  0
LWPOLYLINE
  5
1d2
100
AcDbEntity
  8
0
 62
7
100
AcDbPolyline
 90
4
 70
0
 10
110.126239
 20
96.886176
 30
0.0
 10
42.915261
 20
96.886176
 30
0.0
 10
42.901150
 20
91.915555
 30
0.0
 10
61.224361
 20
91.915555
 30
0.0
  0
SPLINE
  5
1d3
100
AcDbEntity
  8
0
 62
7
100
AcDbSpline
 70
8
 71
3
 72
8
 73
4
 74
0
 40
0
 40
0
 40
0
 40
0
 40
1
 40
1
 40
1
 40
1
 10
80.217848
 20
88.902844
 30
0.0
 10
80.602374
 20
88.902844
 30
0.0
 10
80.916345
 20
88.592401
 30
0.0
 10
80.916345
 20
88.204347
 30
0.0
  0
LWPOLYLINE
  5
1d4
100
AcDbEntity
  8
0
 62
7
100
AcDbPolyline
 90
3
 70
0
 10
61.922859
 20
91.217058
 30
0.0
 10
61.922859
 20
88.902844
 30
0.0
 10
80.217848
 20
88.902844
 30
0.0
  0
SPLINE
  5
1d5
100
AcDbEntity
  8
0
 62
7
100
AcDbSpline
 70
8
 71
3
 72
8
 73
4
 74
0
 40
0
 40
0
 40
0
 40
0
 40
1
 40
1
 40
1
 40
1
 10
80.944567
 20
25.755851
 30
0.0
 10
85.551829
 20
23.981385
 30
0.0
 10
90.141451
 20
21.794171
 30
0.0
 10
94.515879
 20
19.268291
 30
0.0
  0
LWPOLYLINE
  5
1d6
100
AcDbEntity
  8
0
 62
7
100
AcDbPolyline
 90
2
 70
0
 10
80.916345
 20
88.204347
 30
0.0
 10
80.944567
 20
25.755851
 30
0.0
  0
SPLINE
  5
1d7
100
AcDbEntity
  8
0
 62
7
100
AcDbSpline
 70
8
 71
3
 72
8
 73
4
 74
0
 40
0
 40
0
 40
0
 40
0
 40
1
 40
1
 40
1
 40
1
 10
103.003682
 20
14.368226
 30
0.0
 10
103.338820
 20
14.174199
 30
0.0
 10
103.455236
 20
13.747339
 30
0.0
 10
103.261209
 20
13.412201
 30
0.0
  0
LWPOLYLINE
  5
1d8
100
AcDbEntity
  8
0
 62
7
100
AcDbPolyline
 90
2
 70
0
 10
94.515879
 20
19.268291
 30
0.0
 10
103.003682
 20
14.368226
 30
0.0
  0
SPLINE
  5
1d9
100
AcDbEntity
  8
0
 62
7
100
AcDbSpline
 70
8
 71
3
 72
8
 73
4
 74
0
 40
0
 40
0
 40
0
 40
0
 40
1
 40
1
 40
1
 40
1
 10
110.126239
 20
0.049028
 30
0.0
 10
110.510766
 20
0.049028
 30
0.0
 10
110.824737
 20
0.359471
 30
0.0
 10
110.824737
 20
0.747525
 30
0.0
  0
LWPOLYLINE
  5
1da
100
AcDbEntity
  8
0
 62
7
100
AcDbPolyline
 90
3
 70
0
 10
103.261209
 20
13.412201
 30
0.0
 10
95.549515
 20
0.049028
 30
0.0
 10
110.126239
 20
0.049028
 30
0.0
  0
SPLINE
  5
1db
100
AcDbEntity
  8
0
 62
7
100
AcDbSpline
 70
8
 71
3
 72
8
 73
4
 74
0
 40
0
 40
0
 40
0
 40
0
 40
1
 40
1
 40
1
 40
1
 10
110.824737
 20
96.184151
 30
0.0
 10
110.824737
 20
96.568677
 30
0.0
 10
110.514294
 20
96.882649
 30
0.0
 10
110.126239
 20
96.882649
 30
0.0
  0
LWPOLYLINE
  5
1dc
100
AcDbEntity
  8
0
 62
7
100
AcDbPolyline
 90
2
 70
0
 10
110.824737
 20
0.747525
 30
0.0
 10
110.824737
 20
96.184151
 30
0.0
  0
SPLINE
  5
1dd
100
AcDbEntity
  8
0
 62
7
100
AcDbSpline
 70
8
 71
3
 72
8
 73
4
 74
0
 40
0
 40
0
 40
0
 40
0
 40
1
 40
1
 40
1
 40
1
 10
109.272520
 20
94.293269
 30
0.0
 10
109.272520
 20
93.711188
 30
0.0
 10
108.803328
 20
93.241995
 30
0.0
 10
108.221246
 20
93.241995
 30
0.0
  0
SPLINE
  5
1de
100
AcDbEntity
  8
0
 62
7
100
AcDbSpline
 70
8
 71
3
 72
8
 73
4
 74
0
 40
0
 40
0
 40
0
 40
0
 40
1
 40
1
 40
1
 40
1
 10
108.221246
 20
93.241995
 30
0.0
 10
107.639165
 20
93.241995
 30
0.0
 10
107.169972
 20
93.711188
 30
0.0
 10
107.169972
 20
94.293269
 30
0.0
  0
SPLINE
  5
1df
100
AcDbEntity
  8
0
 62
7
100
AcDbSpline
 70
8
 71
3
 72
8
 73
4
 74
0
 40
0
 40
0
 40
0
 40
0
 40
1
 40
1
 40
1
 40
1
 10
107.169972
 20
94.293269
 30
0.0
 10
107.169972
 20
94.875350
 30
0.0
 10
107.642693
 20
95.344543
 30
0.0
 10
108.221246
 20
95.344543
 30
0.0
  0
SPLINE
  5
1e0
100
AcDbEntity
  8
0
 62
7
100
AcDbSpline
 70
8
 71
3
 72
8
 73
4
 74
0
 40
0
 40
0
 40
0
 40
0
 40
1
 40
1
 40
1
 40
1
 10
108.221246
 20
95.344543
 30
0.0
 10
108.799800
 20
95.344543
 30
0.0
 10
109.272520
 20
94.875350
 30
0.0
 10
109.272520
 20
94.293269
 30
0.0
  0
LWPOLYLINE
  5
1e1
100
AcDbEntity
  8
0
 62
7
100
AcDbPolyline
 90
3
 70
0
 10
110.126239
 20
96.882649
 30
0.0
 10
110.126239
 20
96.882649
 30
0.0
 10
110.126239
 20
96.886176
 30
0.0
  0
SPLINE
  5
1e2
100
AcDbEntity
  8
0
 62
7
100
AcDbSpline
 70
8
 71
3
 72
8
 73
4
 74
0
 40
0
 40
0
 40
0
 40
0
 40
1
 40
1
 40
1
 40
1
 10
107.169972
 20
14.865641
 30
0.0
 10
107.169972
 20
15.447722
 30
0.0
 10
107.639165
 20
15.916914
 30
0.0
 10
108.221246
 20
15.916914
 30
0.0
  0
SPLINE
  5
1e3
100
AcDbEntity
  8
0
 62
7
100
AcDbSpline
 70
8
 71
3
 72
8
 73
4
 74
0
 40
0
 40
0
 40
0
 40
0
 40
1
 40
1
 40
1
 40
1
 10
108.221246
 20
15.916914
 30
0.0
 10
108.803328
 20
15.916914
 30
0.0
 10
109.272520
 20
15.447722
 30
0.0
 10
109.272520
 20
14.865641
 30
0.0
  0
SPLINE
  5
1e4
100
AcDbEntity
  8
0
 62
7
100
AcDbSpline
 70
8
 71
3
 72
8
 73
4
 74
0
 40
0
 40
0
 40
0
 40
0
 40
1
 40
1
 40
1
 40
1
 10
109.272520
 20
14.865641
 30
0.0
 10
109.272520
 20
14.283559
 30
0.0
 10
108.799800
 20
13.814367
 30
0.0
 10
108.221246
 20
13.814367
 30
0.0
  0
SPLINE
  5
1e5
100
AcDbEntity
  8
0
 62
7
100
AcDbSpline
 70
8
 71
3
 72
8
 73
4
 74
0
 40
0
 40
0
 40
0
 40
0
 40
1
 40
1
 40
1
 40
1
 10
108.221246
 20
13.814367
 30
0.0
 10
107.642693
 20
13.814367
 30
0.0
 10
107.169972
 20
14.283559
 30
0.0
 10
107.169972
 20
14.865641
 30
0.0
  0
LWPOLYLINE
  5
1e6
100
AcDbEntity
  8
0
 62
7
100
AcDbPolyline
 90
1
 70
1
 10
109.272520
 20
94.293269
 30
0.0
  0
SPLINE
  5
1e7
100
AcDbEntity
  8
0
 62
7
100
AcDbSpline
 70
8
 71
3
 72
8
 73
4
 74
0
 40
0
 40
0
 40
0
 40
0
 40
1
 40
1
 40
1
 40
1
 10
83.618613
 20
36.088675
 30
0.0
 10
83.618613
 20
42.851400
 30
0.0
 10
89.104288
 20
48.337075
 30
0.0
 10
95.867013
 20
48.337075
 30
0.0
  0
SPLINE
  5
1e8
100
AcDbEntity
  8
0
 62
7
100
AcDbSpline
 70
8
 71
3
 72
8
 73
4
 74
0
 40
0
 40
0
 40
0
 40
0
 40
1
 40
1
 40
1
 40
1
 10
95.867013
 20
48.337075
 30
0.0
 10
102.629739
 20
48.337075
 30
0.0
 10
108.115413
 20
42.851400
 30
0.0
 10
108.115413
 20
36.088675
 30
0.0
  0
SPLINE
  5
1e9
100
AcDbEntity
  8
0
 62
7
100
AcDbSpline
 70
8
 71
3
 72
8
 73
4
 74
0
 40
0
 40
0
 40
0
 40
0
 40
1
 40
1
 40
1
 40
1
 10
108.115413
 20
36.088675
 30
0.0
 10
108.115413
 20
29.325949
 30
0.0
 10
102.633267
 20
23.840275
 30
0.0
 10
95.867013
 20
23.840275
 30
0.0
  0
SPLINE
  5
1ea
100
AcDbEntity
  8
0
 62
7
100
AcDbSpline
 70
8
 71
3
 72
8
 73
4
 74
0
 40
0
 40
0
 40
0
 40
0
 40
1
 40
1
 40
1
 40
1
 10
95.867013
 20
23.840275
 30
0.0
 10
89.100760
 20
23.840275
 30
0.0
 10
83.618613
 20
29.325949
 30
0.0
 10
83.618613
 20
36.088675
 30
0.0
  0
LWPOLYLINE
  5
1eb
100
AcDbEntity
  8
0
 62
7
100
AcDbPolyline
 90
1
 70
1
 10
107.169972
 20
14.865641
 30
0.0
  0
SPLINE
  5
1ec
100
AcDbEntity
  8
0
 62
7
100
AcDbSpline
 70
8
 71
3
 72
8
 73
4
 74
0
 40
0
 40
0
 40
0
 40
0
 40
1
 40
1
 40
1
 40
1
 10
45.098948
 20
94.240353
 30
0.0
 10
45.098948
 20
94.822434
 30
0.0
 10
45.568140
 20
95.291627
 30
0.0
 10
46.150221
 20
95.291627
 30
0.0
  0
SPLINE
  5
1ed
100
AcDbEntity
  8
0
 62
7
100
AcDbSpline
 70
8
 71
3
 72
8
 73
4
 74
0
 40
0
 40
0
 40
0
 40
0
 40
1
 40
1
 40
1
 40
1
 10
46.150221
 20
95.291627
 30
0.0
 10
46.732303
 20
95.291627
 30
0.0
 10
47.201495
 20
94.822434
 30
0.0
 10
47.201495
 20
94.240353
 30
0.0
  0
SPLINE
  5
1ee
100
AcDbEntity
  8
0
 62
7
100
AcDbSpline
 70
8
 71
3
 72
8
 73
4
 74
0
 40
0
 40
0
 40
0
 40
0
 40
1
 40
1
 40
1
 40
1
 10
47.201495
 20
94.240353
 30
0.0
 10
47.201495
 20
93.658271
 30
0.0
 10
46.728775
 20
93.189079
 30
0.0
 10
46.150221
 20
93.189079
 30
0.0
  0
SPLINE
  5
1ef
100
AcDbEntity
  8
0
 62
7
100
AcDbSpline
 70
8
 71
3
 72
8
 73
4
 74
0
 40
0
 40
0
 40
0
 40
0
 40
1
 40
1
 40
1
 40
1
 10
46.150221
 20
93.189079
 30
0.0
 10
45.571668
 20
93.189079
 30
0.0
 10
45.098948
 20
93.658271
 30
0.0
 10
45.098948
 20
94.240353
 30
0.0
  0
LWPOLYLINE
  5
1f0
100
AcDbEntity
  8
0
 62
7
100
AcDbPolyline
 90
1
 70
1
 10
83.618613
 20
36.088675
 30
0.0
  0
SPLINE
  5
1f1
100
AcDbEntity
  8
0
 62
7
100
AcDbSpline
 70
8
 71
3
 72
8
 73
4
 74
0
 40
0
 40
0
 40
0
 40
0
 40
1
 40
1
 40
1
 40
1
 10
42.869400
 20
80.132820
 30
0.0
 10
42.897622
 20
79.744766
 30
0.0
 10
42.604818
 20
79.413156
 30
0.0
 10
42.220291
 20
79.384934
 30
0.0
  0
LWPOLYLINE
  5
1f2
100
AcDbEntity
  8
0
 62
7
100
AcDbPolyline
 90
1
 70
1
 10
45.098948
 20
94.240353
 30
0.0
  0
SPLINE
  5
1f3
100
AcDbEntity
  8
0
 62
7
100
AcDbSpline
 70
8
 71
3
 72
8
 73
4
 74
0
 40
0
 40
0
 40
0
 40
0
 40
1
 40
1
 40
1
 40
1
 10
56.454823
 20
78.358355
 30
0.0
 10
56.454823
 20
78.742881
 30
0.0
 10
56.765266
 20
79.056852
 30
0.0
 10
57.153320
 20
79.056852
 30
0.0
  0
LWPOLYLINE
  5
1f4
100
AcDbEntity
  8
0
 62
7
100
AcDbPolyline
 90
6
 70
0
 10
42.220291
 20
79.384934
 30
0.0
 10
24.024080
 20
78.111411
 30
0.0
 10
25.357575
 20
70.798354
 30
0.0
 10
40.449353
 20
71.856684
 30
0.0
 10
56.430129
 20
71.856684
 30
0.0
 10
56.454823
 20
78.358355
 30
0.0
  0
SPLINE
  5
1f5
100
AcDbEntity
  8
0
 62
7
100
AcDbSpline
 70
8
 71
3
 72
8
 73
4
 74
0
 40
0
 40
0
 40
0
 40
0
 40
1
 40
1
 40
1
 40
1
 10
53.332751
 20
76.971943
 30
0.0
 10
53.332751
 20
77.250636
 30
0.0
 10
53.555000
 20
77.472886
 30
0.0
 10
53.833694
 20
77.472886
 30
0.0
  0
SPLINE
  5
1f6
100
AcDbEntity
  8
0
 62
7
100
AcDbSpline
 70
8
 71
3
 72
8
 73
4
 74
0
 40
0
 40
0
 40
0
 40
0
 40
1
 40
1
 40
1
 40
1
 10
53.833694
 20
77.472886
 30
0.0
 10
54.112387
 20
77.472886
 30
0.0
 10
54.334636
 20
77.250636
 30
0.0
 10
54.334636
 20
76.971943
 30
0.0
  0
SPLINE
  5
1f7
100
AcDbEntity
  8
0
 62
7
100
AcDbSpline
 70
8
 71
3
 72
8
 73
4
 74
0
 40
0
 40
0
 40
0
 40
0
 40
1
 40
1
 40
1
 40
1
 10
54.334636
 20
76.971943
 30
0.0
 10
54.334636
 20
76.693250
 30
0.0
 10
54.108859
 20
76.471000
 30
0.0
 10
53.833694
 20
76.471000
 30
0.0
  0
SPLINE
  5
1f8
100
AcDbEntity
  8
0
 62
7
100
AcDbSpline
 70
8
 71
3
 72
8
 73
4
 74
0
 40
0
 40
0
 40
0
 40
0
 40
1
 40
1
 40
1
 40
1
 10
53.833694
 20
76.471000
 30
0.0
 10
53.558528
 20
76.471000
 30
0.0
 10
53.332751
 20
76.693250
 30
0.0
 10
53.332751
 20
76.971943
 30
0.0
  0
LWPOLYLINE
  5
1f9
100
AcDbEntity
  8
0
 62
7
100
AcDbPolyline
 90
7
 70
0
 10
57.153320
 20
79.056852
 30
0.0
 10
59.404035
 20
79.056852
 30
0.0
 10
59.404035
 20
89.005149
 30
0.0
 10
42.248513
 20
89.005149
 30
0.0
 10
42.869400
 20
80.129293
 30
0.0
 10
42.869400
 20
80.129293
 30
0.0
 10
42.869400
 20
80.132820
 30
0.0
  0
SPLINE
  5
1fa
100
AcDbEntity
  8
0
 62
7
100
AcDbSpline
 70
8
 71
3
 72
8
 73
4
 74
0
 40
0
 40
0
 40
0
 40
0
 40
1
 40
1
 40
1
 40
1
 10
53.332751
 20
78.972186
 30
0.0
 10
53.332751
 20
79.250879
 30
0.0
 10
53.555000
 20
79.473128
 30
0.0
 10
53.833694
 20
79.473128
 30
0.0
  0
SPLINE
  5
1fb
100
AcDbEntity
  8
0
 62
7
100
AcDbSpline
 70
8
 71
3
 72
8
 73
4
 74
0
 40
0
 40
0
 40
0
 40
0
 40
1
 40
1
 40
1
 40
1
 10
53.833694
 20
79.473128
 30
0.0
 10
54.112387
 20
79.473128
 30
0.0
 10
54.334636
 20
79.250879
 30
0.0
 10
54.334636
 20
78.972186
 30
0.0
  0
SPLINE
  5
1fc
100
AcDbEntity
  8
0
 62
7
100
AcDbSpline
 70
8
 71
3
 72
8
 73
4
 74
0
 40
0
 40
0
 40
0
 40
0
 40
1
 40
1
 40
1
 40
1
 10
54.334636
 20
78.972186
 30
0.0
 10
54.334636
 20
78.693492
 30
0.0
 10
54.108859
 20
78.471243
 30
0.0
 10
53.833694
 20
78.471243
 30
0.0
  0
SPLINE
  5
1fd
100
AcDbEntity
  8
0
 62
7
100
AcDbSpline
 70
8
 71
3
 72
8
 73
4
 74
0
 40
0
 40
0
 40
0
 40
0
 40
1
 40
1
 40
1
 40
1
 10
53.833694
 20
78.471243
 30
0.0
 10
53.558528
 20
78.471243
 30
0.0
 10
53.332751
 20
78.693492
 30
0.0
 10
53.332751
 20
78.972186
 30
0.0
  0
LWPOLYLINE
  5
1fe
100
AcDbEntity
  8
0
 62
7
100
AcDbPolyline
 90
1
 70
1
 10
53.332751
 20
76.971943
 30
0.0
  0
SPLINE
  5
1ff
100
AcDbEntity
  8
0
 62
7
100
AcDbSpline
 70
8
 71
3
 72
8
 73
4
 74
0
 40
0
 40
0
 40
0
 40
0
 40
1
 40
1
 40
1
 40
1
 10
53.332751
 20
80.972429
 30
0.0
 10
53.332751
 20
81.251122
 30
0.0
 10
53.555000
 20
81.473371
 30
0.0
 10
53.833694
 20
81.473371
 30
0.0
  0
SPLINE
  5
200
100
AcDbEntity
  8
0
 62
7
100
AcDbSpline
 70
8
 71
3
 72
8
 73
4
 74
0
 40
0
 40
0
 40
0
 40
0
 40
1
 40
1
 40
1
 40
1
 10
53.833694
 20
81.473371
 30
0.0
 10
54.112387
 20
81.473371
 30
0.0
 10
54.334636
 20
81.251122
 30
0.0
 10
54.334636
 20
80.972429
 30
0.0
  0
SPLINE
  5
201
100
AcDbEntity
  8
0
 62
7
100
AcDbSpline
 70
8
 71
3
 72
8
 73
4
 74
0
 40
0
 40
0
 40
0
 40
0
 40
1
 40
1
 40
1
 40
1
 10
54.334636
 20
80.972429
 30
0.0
 10
54.334636
 20
80.693735
 30
0.0
 10
54.108859
 20
80.471486
 30
0.0
 10
53.833694
 20
80.471486
 30
0.0
  0
SPLINE
  5
202
100
AcDbEntity
  8
0
 62
7
100
AcDbSpline
 70
8
 71
3
 72
8
 73
4
 74
0
 40
0
 40
0
 40
0
 40
0
 40
1
 40
1
 40
1
 40
1
 10
53.833694
 20
80.471486
 30
0.0
 10
53.558528
 20
80.471486
 30
0.0
 10
53.332751
 20
80.693735
 30
0.0
 10
53.332751
 20
80.972429
 30
0.0
  0
LWPOLYLINE
  5
203
100
AcDbEntity
  8
0
 62
7
100
AcDbPolyline
 90
1
 70
1
 10
53.332751
 20
78.972186
 30
0.0
  0
SPLINE
  5
204
100
AcDbEntity
  8
0
 62
7
100
AcDbSpline
 70
8
 71
3
 72
8
 73
4
 74
0
 40
0
 40
0
 40
0
 40
0
 40
1
 40
1
 40
1
 40
1
 10
53.332751
 20
82.972671
 30
0.0
 10
53.332751
 20
83.251365
 30
0.0
 10
53.555000
 20
83.473614
 30
0.0
 10
53.833694
 20
83.473614
 30
0.0
  0
SPLINE
  5
205
100
AcDbEntity
  8
0
 62
7
100
AcDbSpline
 70
8
 71
3
 72
8
 73
4
 74
0
 40
0
 40
0
 40
0
 40
0
 40
1
 40
1
 40
1
 40
1
 10
53.833694
 20
83.473614
 30
0.0
 10
54.112387
 20
83.473614
 30
0.0
 10
54.334636
 20
83.251365
 30
0.0
 10
54.334636
 20
82.972671
 30
0.0
  0
SPLINE
  5
206
100
AcDbEntity
  8
0
 62
7
100
AcDbSpline
 70
8
 71
3
 72
8
 73
4
 74
0
 40
0
 40
0
 40
0
 40
0
 40
1
 40
1
 40
1
 40
1
 10
54.334636
 20
82.972671
 30
0.0
 10
54.334636
 20
82.693978
 30
0.0
 10
54.108859
 20
82.471729
 30
0.0
 10
53.833694
 20
82.471729
 30
0.0
  0
SPLINE
  5
207
100
AcDbEntity
  8
0
 62
7
100
AcDbSpline
 70
8
 71
3
 72
8
 73
4
 74
0
 40
0
 40
0
 40
0
 40
0
 40
1
 40
1
 40
1
 40
1
 10
53.833694
 20
82.471729
 30
0.0
 10
53.558528
 20
82.471729
 30
0.0
 10
53.332751
 20
82.693978
 30
0.0
 10
53.332751
 20
82.972671
 30
0.0
  0
LWPOLYLINE
  5
208
100
AcDbEntity
  8
0
 62
7
100
AcDbPolyline
 90
1
 70
1
 10
53.332751
 20
80.972429
 30
0.0
  0
SPLINE
  5
209
100
AcDbEntity
  8
0
 62
7
100
AcDbSpline
 70
8
 71
3
 72
8
 73
4
 74
0
 40
0
 40
0
 40
0
 40
0
 40
1
 40
1
 40
1
 40
1
 10
53.332751
 20
84.972914
 30
0.0
 10
53.332751
 20
85.251607
 30
0.0
 10
53.555000
 20
85.473857
 30
0.0
 10
53.833694
 20
85.473857
 30
0.0
  0
SPLINE
  5
20a
100
AcDbEntity
  8
0
 62
7
100
AcDbSpline
 70
8
 71
3
 72
8
 73
4
 74
0
 40
0
 40
0
 40
0
 40
0
 40
1
 40
1
 40
1
 40
1
 10
53.833694
 20
85.473857
 30
0.0
 10
54.112387
 20
85.473857
 30
0.0
 10
54.334636
 20
85.251607
 30
0.0
 10
54.334636
 20
84.972914
 30
0.0
  0
SPLINE
  5
20b
100
AcDbEntity
  8
0
 62
7
100
AcDbSpline
 70
8
 71
3
 72
8
 73
4
 74
0
 40
0
 40
0
 40
0
 40
0
 40
1
 40
1
 40
1
 40
1
 10
54.334636
 20
84.972914
 30
0.0
 10
54.334636
 20
84.694221
 30
0.0
 10
54.108859
 20
84.471971
 30
0.0
 10
53.833694
 20
84.471971
 30
0.0
  0
SPLINE
  5
20c
100
AcDbEntity
  8
0
 62
7
100
AcDbSpline
 70
8
 71
3
 72
8
 73
4
 74
0
 40
0
 40
0
 40
0
 40
0
 40
1
 40
1
 40
1
 40
1
 10
53.833694
 20
84.471971
 30
0.0
 10
53.558528
 20
84.471971
 30
0.0
 10
53.332751
 20
84.694221
 30
0.0
 10
53.332751
 20
84.972914
 30
0.0
  0
LWPOLYLINE
  5
20d
100
AcDbEntity
  8
0
 62
7
100
AcDbPolyline
 90
1
 70
1
 10
53.332751
 20
82.972671
 30
0.0
  0
SPLINE
  5
20e
100
AcDbEntity
  8
0
 62
7
100
AcDbSpline
 70
8
 71
3
 72
8
 73
4
 74
0
 40
0
 40
0
 40
0
 40
0
 40
1
 40
1
 40
1
 40
1
 10
51.332508
 20
76.971943
 30
0.0
 10
51.332508
 20
77.250636
 30
0.0
 10
51.554757
 20
77.472886
 30
0.0
 10
51.833451
 20
77.472886
 30
0.0
  0
SPLINE
  5
20f
100
AcDbEntity
  8
0
 62
7
100
AcDbSpline
 70
8
 71
3
 72
8
 73
4
 74
0
 40
0
 40
0
 40
0
 40
0
 40
1
 40
1
 40
1
 40
1
 10
51.833451
 20
77.472886
 30
0.0
 10
52.112144
 20
77.472886
 30
0.0
 10
52.334393
 20
77.250636
 30
0.0
 10
52.334393
 20
76.971943
 30
0.0
  0
SPLINE
  5
210
100
AcDbEntity
  8
0
 62
7
100
AcDbSpline
 70
8
 71
3
 72
8
 73
4
 74
0
 40
0
 40
0
 40
0
 40
0
 40
1
 40
1
 40
1
 40
1
 10
52.334393
 20
76.971943
 30
0.0
 10
52.334393
 20
76.693250
 30
0.0
 10
52.108617
 20
76.471000
 30
0.0
 10
51.833451
 20
76.471000
 30
0.0
  0
SPLINE
  5
211
100
AcDbEntity
  8
0
 62
7
100
AcDbSpline
 70
8
 71
3
 72
8
 73
4
 74
0
 40
0
 40
0
 40
0
 40
0
 40
1
 40
1
 40
1
 40
1
 10
51.833451
 20
76.471000
 30
0.0
 10
51.558285
 20
76.471000
 30
0.0
 10
51.332508
 20
76.693250
 30
0.0
 10
51.332508
 20
76.971943
 30
0.0
  0
LWPOLYLINE
  5
212
100
AcDbEntity
  8
0
 62
7
100
AcDbPolyline
 90
1
 70
1
 10
53.332751
 20
84.972914
 30
0.0
  0
SPLINE
  5
213
100
AcDbEntity
  8
0
 62
7
100
AcDbSpline
 70
8
 71
3
 72
8
 73
4
 74
0
 40
0
 40
0
 40
0
 40
0
 40
1
 40
1
 40
1
 40
1
 10
51.332508
 20
78.972186
 30
0.0
 10
51.332508
 20
79.250879
 30
0.0
 10
51.554757
 20
79.473128
 30
0.0
 10
51.833451
 20
79.473128
 30
0.0
  0
SPLINE
  5
214
100
AcDbEntity
  8
0
 62
7
100
AcDbSpline
 70
8
 71
3
 72
8
 73
4
 74
0
 40
0
 40
0
 40
0
 40
0
 40
1
 40
1
 40
1
 40
1
 10
51.833451
 20
79.473128
 30
0.0
 10
52.112144
 20
79.473128
 30
0.0
 10
52.334393
 20
79.250879
 30
0.0
 10
52.334393
 20
78.972186
 30
0.0
  0
SPLINE
  5
215
100
AcDbEntity
  8
0
 62
7
100
AcDbSpline
 70
8
 71
3
 72
8
 73
4
 74
0
 40
0
 40
0
 40
0
 40
0
 40
1
 40
1
 40
1
 40
1
 10
52.334393
 20
78.972186
 30
0.0
 10
52.334393
 20
78.693492
 30
0.0
 10
52.108617
 20
78.471243
 30
0.0
 10
51.833451
 20
78.471243
 30
0.0
  0
SPLINE
  5
216
100
AcDbEntity
  8
0
 62
7
100
AcDbSpline
 70
8
 71
3
 72
8
 73
4
 74
0
 40
0
 40
0
 40
0
 40
0
 40
1
 40
1
 40
1
 40
1
 10
51.833451
 20
78.471243
 30
0.0
 10
51.558285
 20
78.471243
 30
0.0
 10
51.332508
 20
78.693492
 30
0.0
 10
51.332508
 20
78.972186
 30
0.0
  0
LWPOLYLINE
  5
217
100
AcDbEntity
  8
0
 62
7
100
AcDbPolyline
 90
1
 70
1
 10
51.332508
 20
76.971943
 30
0.0
  0
SPLINE
  5
218
100
AcDbEntity
  8
0
 62
7
100
AcDbSpline
 70
8
 71
3
 72
8
 73
4
 74
0
 40
0
 40
0
 40
0
 40
0
 40
1
 40
1
 40
1
 40
1
 10
51.332508
 20
80.972429
 30
0.0
 10
51.332508
 20
81.251122
 30
0.0
 10
51.554757
 20
81.473371
 30
0.0
 10
51.833451
 20
81.473371
 30
0.0
  0
SPLINE
  5
219
100
AcDbEntity
  8
0
 62
7
100
AcDbSpline
 70
8
 71
3
 72
8
 73
4
 74
0
 40
0
 40
0
 40
0
 40
0
 40
1
 40
1
 40
1
 40
1
 10
51.833451
 20
81.473371
 30
0.0
 10
52.112144
 20
81.473371
 30
0.0
 10
52.334393
 20
81.251122
 30
0.0
 10
52.334393
 20
80.972429
 30
0.0
  0
SPLINE
  5
21a
100
AcDbEntity
  8
0
 62
7
100
AcDbSpline
 70
8
 71
3
 72
8
 73
4
 74
0
 40
0
 40
0
 40
0
 40
0
 40
1
 40
1
 40
1
 40
1
 10
52.334393
 20
80.972429
 30
0.0
 10
52.334393
 20
80.693735
 30
0.0
 10
52.108617
 20
80.471486
 30
0.0
 10
51.833451
 20
80.471486
 30
0.0
  0
SPLINE
  5
21b
100
AcDbEntity
  8
0
 62
7
100
AcDbSpline
 70
8
 71
3
 72
8
 73
4
 74
0
 40
0
 40
0
 40
0
 40
0
 40
1
 40
1
 40
1
 40
1
 10
51.833451
 20
80.471486
 30
0.0
 10
51.558285
 20
80.471486
 30
0.0
 10
51.332508
 20
80.693735
 30
0.0
 10
51.332508
 20
80.972429
 30
0.0
  0
LWPOLYLINE
  5
21c
100
AcDbEntity
  8
0
 62
7
100
AcDbPolyline
 90
1
 70
1
 10
51.332508
 20
78.972186
 30
0.0
  0
SPLINE
  5
21d
100
AcDbEntity
  8
0
 62
7
100
AcDbSpline
 70
8
 71
3
 72
8
 73
4
 74
0
 40
0
 40
0
 40
0
 40
0
 40
1
 40
1
 40
1
 40
1
 10
51.332508
 20
82.972671
 30
0.0
 10
51.332508
 20
83.251365
 30
0.0
 10
51.554757
 20
83.473614
 30
0.0
 10
51.833451
 20
83.473614
 30
0.0
  0
SPLINE
  5
21e
100
AcDbEntity
  8
0
 62
7
100
AcDbSpline
 70
8
 71
3
 72
8
 73
4
 74
0
 40
0
 40
0
 40
0
 40
0
 40
1
 40
1
 40
1
 40
1
 10
51.833451
 20
83.473614
 30
0.0
 10
52.112144
 20
83.473614
 30
0.0
 10
52.334393
 20
83.251365
 30
0.0
 10
52.334393
 20
82.972671
 30
0.0
  0
SPLINE
  5
21f
100
AcDbEntity
  8
0
 62
7
100
AcDbSpline
 70
8
 71
3
 72
8
 73
4
 74
0
 40
0
 40
0
 40
0
 40
0
 40
1
 40
1
 40
1
 40
1
 10
52.334393
 20
82.972671
 30
0.0
 10
52.334393
 20
82.693978
 30
0.0
 10
52.108617
 20
82.471729
 30
0.0
 10
51.833451
 20
82.471729
 30
0.0
  0
SPLINE
  5
220
100
AcDbEntity
  8
0
 62
7
100
AcDbSpline
 70
8
 71
3
 72
8
 73
4
 74
0
 40
0
 40
0
 40
0
 40
0
 40
1
 40
1
 40
1
 40
1
 10
51.833451
 20
82.471729
 30
0.0
 10
51.558285
 20
82.471729
 30
0.0
 10
51.332508
 20
82.693978
 30
0.0
 10
51.332508
 20
82.972671
 30
0.0
  0
LWPOLYLINE
  5
221
100
AcDbEntity
  8
0
 62
7
100
AcDbPolyline
 90
1
 70
1
 10
51.332508
 20
80.972429
 30
0.0
  0
SPLINE
  5
222
100
AcDbEntity
  8
0
 62
7
100
AcDbSpline
 70
8
 71
3
 72
8
 73
4
 74
0
 40
0
 40
0
 40
0
 40
0
 40
1
 40
1
 40
1
 40
1
 10
51.332508
 20
84.972914
 30
0.0
 10
51.332508
 20
85.251607
 30
0.0
 10
51.554757
 20
85.473857
 30
0.0
 10
51.833451
 20
85.473857
 30
0.0
  0
SPLINE
  5
223
100
AcDbEntity
  8
0
 62
7
100
AcDbSpline
 70
8
 71
3
 72
8
 73
4
 74
0
 40
0
 40
0
 40
0
 40
0
 40
1
 40
1
 40
1
 40
1
 10
51.833451
 20
85.473857
 30
0.0
 10
52.112144
 20
85.473857
 30
0.0
 10
52.334393
 20
85.251607
 30
0.0
 10
52.334393
 20
84.972914
 30
0.0
  0
SPLINE
  5
224
100
AcDbEntity
  8
0
 62
7
100
AcDbSpline
 70
8
 71
3
 72
8
 73
4
 74
0
 40
0
 40
0
 40
0
 40
0
 40
1
 40
1
 40
1
 40
1
 10
52.334393
 20
84.972914
 30
0.0
 10
52.334393
 20
84.694221
 30
0.0
 10
52.108617
 20
84.471971
 30
0.0
 10
51.833451
 20
84.471971
 30
0.0
  0
SPLINE
  5
225
100
AcDbEntity
  8
0
 62
7
100
AcDbSpline
 70
8
 71
3
 72
8
 73
4
 74
0
 40
0
 40
0
 40
0
 40
0
 40
1
 40
1
 40
1
 40
1
 10
51.833451
 20
84.471971
 30
0.0
 10
51.558285
 20
84.471971
 30
0.0
 10
51.332508
 20
84.694221
 30
0.0
 10
51.332508
 20
84.972914
 30
0.0
  0
LWPOLYLINE
  5
226
100
AcDbEntity
  8
0
 62
7
100
AcDbPolyline
 90
1
 70
1
 10
51.332508
 20
82.972671
 30
0.0
  0
SPLINE
  5
227
100
AcDbEntity
  8
0
 62
7
100
AcDbSpline
 70
8
 71
3
 72
8
 73
4
 74
0
 40
0
 40
0
 40
0
 40
0
 40
1
 40
1
 40
1
 40
1
 10
49.332265
 20
76.971943
 30
0.0
 10
49.332265
 20
77.250636
 30
0.0
 10
49.554515
 20
77.472886
 30
0.0
 10
49.833208
 20
77.472886
 30
0.0
  0
SPLINE
  5
228
100
AcDbEntity
  8
0
 62
7
100
AcDbSpline
 70
8
 71
3
 72
8
 73
4
 74
0
 40
0
 40
0
 40
0
 40
0
 40
1
 40
1
 40
1
 40
1
 10
49.833208
 20
77.472886
 30
0.0
 10
50.111902
 20
77.472886
 30
0.0
 10
50.334151
 20
77.250636
 30
0.0
 10
50.334151
 20
76.971943
 30
0.0
  0
SPLINE
  5
229
100
AcDbEntity
  8
0
 62
7
100
AcDbSpline
 70
8
 71
3
 72
8
 73
4
 74
0
 40
0
 40
0
 40
0
 40
0
 40
1
 40
1
 40
1
 40
1
 10
50.334151
 20
76.971943
 30
0.0
 10
50.334151
 20
76.693250
 30
0.0
 10
50.108374
 20
76.471000
 30
0.0
 10
49.833208
 20
76.471000
 30
0.0
  0
SPLINE
  5
22a
100
AcDbEntity
  8
0
 62
7
100
AcDbSpline
 70
8
 71
3
 72
8
 73
4
 74
0
 40
0
 40
0
 40
0
 40
0
 40
1
 40
1
 40
1
 40
1
 10
49.833208
 20
76.471000
 30
0.0
 10
49.558042
 20
76.471000
 30
0.0
 10
49.332265
 20
76.693250
 30
0.0
 10
49.332265
 20
76.971943
 30
0.0
  0
LWPOLYLINE
  5
22b
100
AcDbEntity
  8
0
 62
7
100
AcDbPolyline
 90
1
 70
1
 10
51.332508
 20
84.972914
 30
0.0
  0
SPLINE
  5
22c
100
AcDbEntity
  8
0
 62
7
100
AcDbSpline
 70
8
 71
3
 72
8
 73
4
 74
0
 40
0
 40
0
 40
0
 40
0
 40
1
 40
1
 40
1
 40
1
 10
49.332265
 20
78.972186
 30
0.0
 10
49.332265
 20
79.250879
 30
0.0
 10
49.554515
 20
79.473128
 30
0.0
 10
49.833208
 20
79.473128
 30
0.0
  0
SPLINE
  5
22d
100
AcDbEntity
  8
0
 62
7
100
AcDbSpline
 70
8
 71
3
 72
8
 73
4
 74
0
 40
0
 40
0
 40
0
 40
0
 40
1
 40
1
 40
1
 40
1
 10
49.833208
 20
79.473128
 30
0.0
 10
50.111902
 20
79.473128
 30
0.0
 10
50.334151
 20
79.250879
 30
0.0
 10
50.334151
 20
78.972186
 30
0.0
  0
SPLINE
  5
22e
100
AcDbEntity
  8
0
 62
7
100
AcDbSpline
 70
8
 71
3
 72
8
 73
4
 74
0
 40
0
 40
0
 40
0
 40
0
 40
1
 40
1
 40
1
 40
1
 10
50.334151
 20
78.972186
 30
0.0
 10
50.334151
 20
78.693492
 30
0.0
 10
50.108374
 20
78.471243
 30
0.0
 10
49.833208
 20
78.471243
 30
0.0
  0
SPLINE
  5
22f
100
AcDbEntity
  8
0
 62
7
100
AcDbSpline
 70
8
 71
3
 72
8
 73
4
 74
0
 40
0
 40
0
 40
0
 40
0
 40
1
 40
1
 40
1
 40
1
 10
49.833208
 20
78.471243
 30
0.0
 10
49.558042
 20
78.471243
 30
0.0
 10
49.332265
 20
78.693492
 30
0.0
 10
49.332265
 20
78.972186
 30
0.0
  0
LWPOLYLINE
  5
230
100
AcDbEntity
  8
0
 62
7
100
AcDbPolyline
 90
1
 70
1
 10
49.332265
 20
76.971943
 30
0.0
  0
SPLINE
  5
231
100
AcDbEntity
  8
0
 62
7
100
AcDbSpline
 70
8
 71
3
 72
8
 73
4
 74
0
 40
0
 40
0
 40
0
 40
0
 40
1
 40
1
 40
1
 40
1
 10
49.332265
 20
80.972429
 30
0.0
 10
49.332265
 20
81.251122
 30
0.0
 10
49.554515
 20
81.473371
 30
0.0
 10
49.833208
 20
81.473371
 30
0.0
  0
SPLINE
  5
232
100
AcDbEntity
  8
0
 62
7
100
AcDbSpline
 70
8
 71
3
 72
8
 73
4
 74
0
 40
0
 40
0
 40
0
 40
0
 40
1
 40
1
 40
1
 40
1
 10
49.833208
 20
81.473371
 30
0.0
 10
50.111902
 20
81.473371
 30
0.0
 10
50.334151
 20
81.251122
 30
0.0
 10
50.334151
 20
80.972429
 30
0.0
  0
SPLINE
  5
233
100
AcDbEntity
  8
0
 62
7
100
AcDbSpline
 70
8
 71
3
 72
8
 73
4
 74
0
 40
0
 40
0
 40
0
 40
0
 40
1
 40
1
 40
1
 40
1
 10
50.334151
 20
80.972429
 30
0.0
 10
50.334151
 20
80.693735
 30
0.0
 10
50.108374
 20
80.471486
 30
0.0
 10
49.833208
 20
80.471486
 30
0.0
  0
SPLINE
  5
234
100
AcDbEntity
  8
0
 62
7
100
AcDbSpline
 70
8
 71
3
 72
8
 73
4
 74
0
 40
0
 40
0
 40
0
 40
0
 40
1
 40
1
 40
1
 40
1
 10
49.833208
 20
80.471486
 30
0.0
 10
49.558042
 20
80.471486
 30
0.0
 10
49.332265
 20
80.693735
 30
0.0
 10
49.332265
 20
80.972429
 30
0.0
  0
LWPOLYLINE
  5
235
100
AcDbEntity
  8
0
 62
7
100
AcDbPolyline
 90
1
 70
1
 10
49.332265
 20
78.972186
 30
0.0
  0
SPLINE
  5
236
100
AcDbEntity
  8
0
 62
7
100
AcDbSpline
 70
8
 71
3
 72
8
 73
4
 74
0
 40
0
 40
0
 40
0
 40
0
 40
1
 40
1
 40
1
 40
1
 10
49.332265
 20
82.972671
 30
0.0
 10
49.332265
 20
83.251365
 30
0.0
 10
49.554515
 20
83.473614
 30
0.0
 10
49.833208
 20
83.473614
 30
0.0
  0
SPLINE
  5
237
100
AcDbEntity
  8
0
 62
7
100
AcDbSpline
 70
8
 71
3
 72
8
 73
4
 74
0
 40
0
 40
0
 40
0
 40
0
 40
1
 40
1
 40
1
 40
1
 10
49.833208
 20
83.473614
 30
0.0
 10
50.111902
 20
83.473614
 30
0.0
 10
50.334151
 20
83.251365
 30
0.0
 10
50.334151
 20
82.972671
 30
0.0
  0
SPLINE
  5
238
100
AcDbEntity
  8
0
 62
7
100
AcDbSpline
 70
8
 71
3
 72
8
 73
4
 74
0
 40
0
 40
0
 40
0
 40
0
 40
1
 40
1
 40
1
 40
1
 10
50.334151
 20
82.972671
 30
0.0
 10
50.334151
 20
82.693978
 30
0.0
 10
50.108374
 20
82.471729
 30
0.0
 10
49.833208
 20
82.471729
 30
0.0
  0
SPLINE
  5
239
100
AcDbEntity
  8
0
 62
7
100
AcDbSpline
 70
8
 71
3
 72
8
 73
4
 74
0
 40
0
 40
0
 40
0
 40
0
 40
1
 40
1
 40
1
 40
1
 10
49.833208
 20
82.471729
 30
0.0
 10
49.558042
 20
82.471729
 30
0.0
 10
49.332265
 20
82.693978
 30
0.0
 10
49.332265
 20
82.972671
 30
0.0
  0
LWPOLYLINE
  5
23a
100
AcDbEntity
  8
0
 62
7
100
AcDbPolyline
 90
1
 70
1
 10
49.332265
 20
80.972429
 30
0.0
  0
SPLINE
  5
23b
100
AcDbEntity
  8
0
 62
7
100
AcDbSpline
 70
8
 71
3
 72
8
 73
4
 74
0
 40
0
 40
0
 40
0
 40
0
 40
1
 40
1
 40
1
 40
1
 10
49.332265
 20
84.972914
 30
0.0
 10
49.332265
 20
85.251607
 30
0.0
 10
49.554515
 20
85.473857
 30
0.0
 10
49.833208
 20
85.473857
 30
0.0
  0
SPLINE
  5
23c
100
AcDbEntity
  8
0
 62
7
100
AcDbSpline
 70
8
 71
3
 72
8
 73
4
 74
0
 40
0
 40
0
 40
0
 40
0
 40
1
 40
1
 40
1
 40
1
 10
49.833208
 20
85.473857
 30
0.0
 10
50.111902
 20
85.473857
 30
0.0
 10
50.334151
 20
85.251607
 30
0.0
 10
50.334151
 20
84.972914
 30
0.0
  0
SPLINE
  5
23d
100
AcDbEntity
  8
0
 62
7
100
AcDbSpline
 70
8
 71
3
 72
8
 73
4
 74
0
 40
0
 40
0
 40
0
 40
0
 40
1
 40
1
 40
1
 40
1
 10
50.334151
 20
84.972914
 30
0.0
 10
50.334151
 20
84.694221
 30
0.0
 10
50.108374
 20
84.471971
 30
0.0
 10
49.833208
 20
84.471971
 30
0.0
  0
SPLINE
  5
23e
100
AcDbEntity
  8
0
 62
7
100
AcDbSpline
 70
8
 71
3
 72
8
 73
4
 74
0
 40
0
 40
0
 40
0
 40
0
 40
1
 40
1
 40
1
 40
1
 10
49.833208
 20
84.471971
 30
0.0
 10
49.558042
 20
84.471971
 30
0.0
 10
49.332265
 20
84.694221
 30
0.0
 10
49.332265
 20
84.972914
 30
0.0
  0
LWPOLYLINE
  5
23f
100
AcDbEntity
  8
0
 62
7
100
AcDbPolyline
 90
1
 70
1
 10
49.332265
 20
82.972671
 30
0.0
  0
SPLINE
  5
240
100
AcDbEntity
  8
0
 62
7
100
AcDbSpline
 70
8
 71
3
 72
8
 73
4
 74
0
 40
0
 40
0
 40
0
 40
0
 40
1
 40
1
 40
1
 40
1
 10
47.332023
 20
76.971943
 30
0.0
 10
47.332023
 20
77.250636
 30
0.0
 10
47.554272
 20
77.472886
 30
0.0
 10
47.832965
 20
77.472886
 30
0.0
  0
SPLINE
  5
241
100
AcDbEntity
  8
0
 62
7
100
AcDbSpline
 70
8
 71
3
 72
8
 73
4
 74
0
 40
0
 40
0
 40
0
 40
0
 40
1
 40
1
 40
1
 40
1
 10
47.832965
 20
77.472886
 30
0.0
 10
48.111659
 20
77.472886
 30
0.0
 10
48.333908
 20
77.250636
 30
0.0
 10
48.333908
 20
76.971943
 30
0.0
  0
SPLINE
  5
242
100
AcDbEntity
  8
0
 62
7
100
AcDbSpline
 70
8
 71
3
 72
8
 73
4
 74
0
 40
0
 40
0
 40
0
 40
0
 40
1
 40
1
 40
1
 40
1
 10
48.333908
 20
76.971943
 30
0.0
 10
48.333908
 20
76.693250
 30
0.0
 10
48.108131
 20
76.471000
 30
0.0
 10
47.832965
 20
76.471000
 30
0.0
  0
SPLINE
  5
243
100
AcDbEntity
  8
0
 62
7
100
AcDbSpline
 70
8
 71
3
 72
8
 73
4
 74
0
 40
0
 40
0
 40
0
 40
0
 40
1
 40
1
 40
1
 40
1
 10
47.832965
 20
76.471000
 30
0.0
 10
47.557800
 20
76.471000
 30
0.0
 10
47.332023
 20
76.693250
 30
0.0
 10
47.332023
 20
76.971943
 30
0.0
  0
LWPOLYLINE
  5
244
100
AcDbEntity
  8
0
 62
7
100
AcDbPolyline
 90
1
 70
1
 10
49.332265
 20
84.972914
 30
0.0
  0
SPLINE
  5
245
100
AcDbEntity
  8
0
 62
7
100
AcDbSpline
 70
8
 71
3
 72
8
 73
4
 74
0
 40
0
 40
0
 40
0
 40
0
 40
1
 40
1
 40
1
 40
1
 10
47.332023
 20
78.972186
 30
0.0
 10
47.332023
 20
79.250879
 30
0.0
 10
47.554272
 20
79.473128
 30
0.0
 10
47.832965
 20
79.473128
 30
0.0
  0
SPLINE
  5
246
100
AcDbEntity
  8
0
 62
7
100
AcDbSpline
 70
8
 71
3
 72
8
 73
4
 74
0
 40
0
 40
0
 40
0
 40
0
 40
1
 40
1
 40
1
 40
1
 10
47.832965
 20
79.473128
 30
0.0
 10
48.111659
 20
79.473128
 30
0.0
 10
48.333908
 20
79.250879
 30
0.0
 10
48.333908
 20
78.972186
 30
0.0
  0
SPLINE
  5
247
100
AcDbEntity
  8
0
 62
7
100
AcDbSpline
 70
8
 71
3
 72
8
 73
4
 74
0
 40
0
 40
0
 40
0
 40
0
 40
1
 40
1
 40
1
 40
1
 10
48.333908
 20
78.972186
 30
0.0
 10
48.333908
 20
78.693492
 30
0.0
 10
48.108131
 20
78.471243
 30
0.0
 10
47.832965
 20
78.471243
 30
0.0
  0
SPLINE
  5
248
100
AcDbEntity
  8
0
 62
7
100
AcDbSpline
 70
8
 71
3
 72
8
 73
4
 74
0
 40
0
 40
0
 40
0
 40
0
 40
1
 40
1
 40
1
 40
1
 10
47.832965
 20
78.471243
 30
0.0
 10
47.557800
 20
78.471243
 30
0.0
 10
47.332023
 20
78.693492
 30
0.0
 10
47.332023
 20
78.972186
 30
0.0
  0
LWPOLYLINE
  5
249
100
AcDbEntity
  8
0
 62
7
100
AcDbPolyline
 90
1
 70
1
 10
47.332023
 20
76.971943
 30
0.0
  0
SPLINE
  5
24a
100
AcDbEntity
  8
0
 62
7
100
AcDbSpline
 70
8
 71
3
 72
8
 73
4
 74
0
 40
0
 40
0
 40
0
 40
0
 40
1
 40
1
 40
1
 40
1
 10
47.332023
 20
80.972429
 30
0.0
 10
47.332023
 20
81.251122
 30
0.0
 10
47.554272
 20
81.473371
 30
0.0
 10
47.832965
 20
81.473371
 30
0.0
  0
SPLINE
  5
24b
100
AcDbEntity
  8
0
 62
7
100
AcDbSpline
 70
8
 71
3
 72
8
 73
4
 74
0
 40
0
 40
0
 40
0
 40
0
 40
1
 40
1
 40
1
 40
1
 10
47.832965
 20
81.473371
 30
0.0
 10
48.111659
 20
81.473371
 30
0.0
 10
48.333908
 20
81.251122
 30
0.0
 10
48.333908
 20
80.972429
 30
0.0
  0
SPLINE
  5
24c
100
AcDbEntity
  8
0
 62
7
100
AcDbSpline
 70
8
 71
3
 72
8
 73
4
 74
0
 40
0
 40
0
 40
0
 40
0
 40
1
 40
1
 40
1
 40
1
 10
48.333908
 20
80.972429
 30
0.0
 10
48.333908
 20
80.693735
 30
0.0
 10
48.108131
 20
80.471486
 30
0.0
 10
47.832965
 20
80.471486
 30
0.0
  0
SPLINE
  5
24d
100
AcDbEntity
  8
0
 62
7
100
AcDbSpline
 70
8
 71
3
 72
8
 73
4
 74
0
 40
0
 40
0
 40
0
 40
0
 40
1
 40
1
 40
1
 40
1
 10
47.832965
 20
80.471486
 30
0.0
 10
47.557800
 20
80.471486
 30
0.0
 10
47.332023
 20
80.693735
 30
0.0
 10
47.332023
 20
80.972429
 30
0.0
  0
LWPOLYLINE
  5
24e
100
AcDbEntity
  8
0
 62
7
100
AcDbPolyline
 90
1
 70
1
 10
47.332023
 20
78.972186
 30
0.0
  0
SPLINE
  5
24f
100
AcDbEntity
  8
0
 62
7
100
AcDbSpline
 70
8
 71
3
 72
8
 73
4
 74
0
 40
0
 40
0
 40
0
 40
0
 40
1
 40
1
 40
1
 40
1
 10
47.332023
 20
82.972671
 30
0.0
 10
47.332023
 20
83.251365
 30
0.0
 10
47.554272
 20
83.473614
 30
0.0
 10
47.832965
 20
83.473614
 30
0.0
  0
SPLINE
  5
250
100
AcDbEntity
  8
0
 62
7
100
AcDbSpline
 70
8
 71
3
 72
8
 73
4
 74
0
 40
0
 40
0
 40
0
 40
0
 40
1
 40
1
 40
1
 40
1
 10
47.832965
 20
83.473614
 30
0.0
 10
48.111659
 20
83.473614
 30
0.0
 10
48.333908
 20
83.251365
 30
0.0
 10
48.333908
 20
82.972671
 30
0.0
  0
SPLINE
  5
251
100
AcDbEntity
  8
0
 62
7
100
AcDbSpline
 70
8
 71
3
 72
8
 73
4
 74
0
 40
0
 40
0
 40
0
 40
0
 40
1
 40
1
 40
1
 40
1
 10
48.333908
 20
82.972671
 30
0.0
 10
48.333908
 20
82.693978
 30
0.0
 10
48.108131
 20
82.471729
 30
0.0
 10
47.832965
 20
82.471729
 30
0.0
  0
SPLINE
  5
252
100
AcDbEntity
  8
0
 62
7
100
AcDbSpline
 70
8
 71
3
 72
8
 73
4
 74
0
 40
0
 40
0
 40
0
 40
0
 40
1
 40
1
 40
1
 40
1
 10
47.832965
 20
82.471729
 30
0.0
 10
47.557800
 20
82.471729
 30
0.0
 10
47.332023
 20
82.693978
 30
0.0
 10
47.332023
 20
82.972671
 30
0.0
  0
LWPOLYLINE
  5
253
100
AcDbEntity
  8
0
 62
7
100
AcDbPolyline
 90
1
 70
1
 10
47.332023
 20
80.972429
 30
0.0
  0
SPLINE
  5
254
100
AcDbEntity
  8
0
 62
7
100
AcDbSpline
 70
8
 71
3
 72
8
 73
4
 74
0
 40
0
 40
0
 40
0
 40
0
 40
1
 40
1
 40
1
 40
1
 10
47.332023
 20
84.972914
 30
0.0
 10
47.332023
 20
85.251607
 30
0.0
 10
47.554272
 20
85.473857
 30
0.0
 10
47.832965
 20
85.473857
 30
0.0
  0
SPLINE
  5
255
100
AcDbEntity
  8
0
 62
7
100
AcDbSpline
 70
8
 71
3
 72
8
 73
4
 74
0
 40
0
 40
0
 40
0
 40
0
 40
1
 40
1
 40
1
 40
1
 10
47.832965
 20
85.473857
 30
0.0
 10
48.111659
 20
85.473857
 30
0.0
 10
48.333908
 20
85.251607
 30
0.0
 10
48.333908
 20
84.972914
 30
0.0
  0
SPLINE
  5
256
100
AcDbEntity
  8
0
 62
7
100
AcDbSpline
 70
8
 71
3
 72
8
 73
4
 74
0
 40
0
 40
0
 40
0
 40
0
 40
1
 40
1
 40
1
 40
1
 10
48.333908
 20
84.972914
 30
0.0
 10
48.333908
 20
84.694221
 30
0.0
 10
48.108131
 20
84.471971
 30
0.0
 10
47.832965
 20
84.471971
 30
0.0
  0
SPLINE
  5
257
100
AcDbEntity
  8
0
 62
7
100
AcDbSpline
 70
8
 71
3
 72
8
 73
4
 74
0
 40
0
 40
0
 40
0
 40
0
 40
1
 40
1
 40
1
 40
1
 10
47.832965
 20
84.471971
 30
0.0
 10
47.557800
 20
84.471971
 30
0.0
 10
47.332023
 20
84.694221
 30
0.0
 10
47.332023
 20
84.972914
 30
0.0
  0
LWPOLYLINE
  5
258
100
AcDbEntity
  8
0
 62
7
100
AcDbPolyline
 90
1
 70
1
 10
47.332023
 20
82.972671
 30
0.0
  0
SPLINE
  5
259
100
AcDbEntity
  8
0
 62
7
100
AcDbSpline
 70
8
 71
3
 72
8
 73
4
 74
0
 40
0
 40
0
 40
0
 40
0
 40
1
 40
1
 40
1
 40
1
 10
45.331780
 20
76.971943
 30
0.0
 10
45.331780
 20
77.250636
 30
0.0
 10
45.554029
 20
77.472886
 30
0.0
 10
45.832723
 20
77.472886
 30
0.0
  0
SPLINE
  5
25a
100
AcDbEntity
  8
0
 62
7
100
AcDbSpline
 70
8
 71
3
 72
8
 73
4
 74
0
 40
0
 40
0
 40
0
 40
0
 40
1
 40
1
 40
1
 40
1
 10
45.832723
 20
77.472886
 30
0.0
 10
46.111416
 20
77.472886
 30
0.0
 10
46.333665
 20
77.250636
 30
0.0
 10
46.333665
 20
76.971943
 30
0.0
  0
SPLINE
  5
25b
100
AcDbEntity
  8
0
 62
7
100
AcDbSpline
 70
8
 71
3
 72
8
 73
4
 74
0
 40
0
 40
0
 40
0
 40
0
 40
1
 40
1
 40
1
 40
1
 10
46.333665
 20
76.971943
 30
0.0
 10
46.333665
 20
76.693250
 30
0.0
 10
46.107888
 20
76.471000
 30
0.0
 10
45.832723
 20
76.471000
 30
0.0
  0
SPLINE
  5
25c
100
AcDbEntity
  8
0
 62
7
100
AcDbSpline
 70
8
 71
3
 72
8
 73
4
 74
0
 40
0
 40
0
 40
0
 40
0
 40
1
 40
1
 40
1
 40
1
 10
45.832723
 20
76.471000
 30
0.0
 10
45.557557
 20
76.471000
 30
0.0
 10
45.331780
 20
76.693250
 30
0.0
 10
45.331780
 20
76.971943
 30
0.0
  0
LWPOLYLINE
  5
25d
100
AcDbEntity
  8
0
 62
7
100
AcDbPolyline
 90
1
 70
1
 10
47.332023
 20
84.972914
 30
0.0
  0
SPLINE
  5
25e
100
AcDbEntity
  8
0
 62
7
100
AcDbSpline
 70
8
 71
3
 72
8
 73
4
 74
0
 40
0
 40
0
 40
0
 40
0
 40
1
 40
1
 40
1
 40
1
 10
45.331780
 20
78.972186
 30
0.0
 10
45.331780
 20
79.250879
 30
0.0
 10
45.554029
 20
79.473128
 30
0.0
 10
45.832723
 20
79.473128
 30
0.0
  0
SPLINE
  5
25f
100
AcDbEntity
  8
0
 62
7
100
AcDbSpline
 70
8
 71
3
 72
8
 73
4
 74
0
 40
0
 40
0
 40
0
 40
0
 40
1
 40
1
 40
1
 40
1
 10
45.832723
 20
79.473128
 30
0.0
 10
46.111416
 20
79.473128
 30
0.0
 10
46.333665
 20
79.250879
 30
0.0
 10
46.333665
 20
78.972186
 30
0.0
  0
SPLINE
  5
260
100
AcDbEntity
  8
0
 62
7
100
AcDbSpline
 70
8
 71
3
 72
8
 73
4
 74
0
 40
0
 40
0
 40
0
 40
0
 40
1
 40
1
 40
1
 40
1
 10
46.333665
 20
78.972186
 30
0.0
 10
46.333665
 20
78.693492
 30
0.0
 10
46.107888
 20
78.471243
 30
0.0
 10
45.832723
 20
78.471243
 30
0.0
  0
SPLINE
  5
261
100
AcDbEntity
  8
0
 62
7
100
AcDbSpline
 70
8
 71
3
 72
8
 73
4
 74
0
 40
0
 40
0
 40
0
 40
0
 40
1
 40
1
 40
1
 40
1
 10
45.832723
 20
78.471243
 30
0.0
 10
45.557557
 20
78.471243
 30
0.0
 10
45.331780
 20
78.693492
 30
0.0
 10
45.331780
 20
78.972186
 30
0.0
  0
LWPOLYLINE
  5
262
100
AcDbEntity
  8
0
 62
7
100
AcDbPolyline
 90
1
 70
1
 10
45.331780
 20
76.971943
 30
0.0
  0
SPLINE
  5
263
100
AcDbEntity
  8
0
 62
7
100
AcDbSpline
 70
8
 71
3
 72
8
 73
4
 74
0
 40
0
 40
0
 40
0
 40
0
 40
1
 40
1
 40
1
 40
1
 10
45.331780
 20
80.972429
 30
0.0
 10
45.331780
 20
81.251122
 30
0.0
 10
45.554029
 20
81.473371
 30
0.0
 10
45.832723
 20
81.473371
 30
0.0
  0
SPLINE
  5
264
100
AcDbEntity
  8
0
 62
7
100
AcDbSpline
 70
8
 71
3
 72
8
 73
4
 74
0
 40
0
 40
0
 40
0
 40
0
 40
1
 40
1
 40
1
 40
1
 10
45.832723
 20
81.473371
 30
0.0
 10
46.111416
 20
81.473371
 30
0.0
 10
46.333665
 20
81.251122
 30
0.0
 10
46.333665
 20
80.972429
 30
0.0
  0
SPLINE
  5
265
100
AcDbEntity
  8
0
 62
7
100
AcDbSpline
 70
8
 71
3
 72
8
 73
4
 74
0
 40
0
 40
0
 40
0
 40
0
 40
1
 40
1
 40
1
 40
1
 10
46.333665
 20
80.972429
 30
0.0
 10
46.333665
 20
80.693735
 30
0.0
 10
46.107888
 20
80.471486
 30
0.0
 10
45.832723
 20
80.471486
 30
0.0
  0
SPLINE
  5
266
100
AcDbEntity
  8
0
 62
7
100
AcDbSpline
 70
8
 71
3
 72
8
 73
4
 74
0
 40
0
 40
0
 40
0
 40
0
 40
1
 40
1
 40
1
 40
1
 10
45.832723
 20
80.471486
 30
0.0
 10
45.557557
 20
80.471486
 30
0.0
 10
45.331780
 20
80.693735
 30
0.0
 10
45.331780
 20
80.972429
 30
0.0
  0
LWPOLYLINE
  5
267
100
AcDbEntity
  8
0
 62
7
100
AcDbPolyline
 90
1
 70
1
 10
45.331780
 20
78.972186
 30
0.0
  0
SPLINE
  5
268
100
AcDbEntity
  8
0
 62
7
100
AcDbSpline
 70
8
 71
3
 72
8
 73
4
 74
0
 40
0
 40
0
 40
0
 40
0
 40
1
 40
1
 40
1
 40
1
 10
45.331780
 20
82.972671
 30
0.0
 10
45.331780
 20
83.251365
 30
0.0
 10
45.554029
 20
83.473614
 30
0.0
 10
45.832723
 20
83.473614
 30
0.0
  0
SPLINE
  5
269
100
AcDbEntity
  8
0
 62
7
100
AcDbSpline
 70
8
 71
3
 72
8
 73
4
 74
0
 40
0
 40
0
 40
0
 40
0
 40
1
 40
1
 40
1
 40
1
 10
45.832723
 20
83.473614
 30
0.0
 10
46.111416
 20
83.473614
 30
0.0
 10
46.333665
 20
83.251365
 30
0.0
 10
46.333665
 20
82.972671
 30
0.0
  0
SPLINE
  5
26a
100
AcDbEntity
  8
0
 62
7
100
AcDbSpline
 70
8
 71
3
 72
8
 73
4
 74
0
 40
0
 40
0
 40
0
 40
0
 40
1
 40
1
 40
1
 40
1
 10
46.333665
 20
82.972671
 30
0.0
 10
46.333665
 20
82.693978
 30
0.0
 10
46.107888
 20
82.471729
 30
0.0
 10
45.832723
 20
82.471729
 30
0.0
  0
SPLINE
  5
26b
100
AcDbEntity
  8
0
 62
7
100
AcDbSpline
 70
8
 71
3
 72
8
 73
4
 74
0
 40
0
 40
0
 40
0
 40
0
 40
1
 40
1
 40
1
 40
1
 10
45.832723
 20
82.471729
 30
0.0
 10
45.557557
 20
82.471729
 30
0.0
 10
45.331780
 20
82.693978
 30
0.0
 10
45.331780
 20
82.972671
 30
0.0
  0
LWPOLYLINE
  5
26c
100
AcDbEntity
  8
0
 62
7
100
AcDbPolyline
 90
1
 70
1
 10
45.331780
 20
80.972429
 30
0.0
  0
SPLINE
  5
26d
100
AcDbEntity
  8
0
 62
7
100
AcDbSpline
 70
8
 71
3
 72
8
 73
4
 74
0
 40
0
 40
0
 40
0
 40
0
 40
1
 40
1
 40
1
 40
1
 10
45.331780
 20
84.972914
 30
0.0
 10
45.331780
 20
85.251607
 30
0.0
 10
45.554029
 20
85.473857
 30
0.0
 10
45.832723
 20
85.473857
 30
0.0
  0
SPLINE
  5
26e
100
AcDbEntity
  8
0
 62
7
100
AcDbSpline
 70
8
 71
3
 72
8
 73
4
 74
0
 40
0
 40
0
 40
0
 40
0
 40
1
 40
1
 40
1
 40
1
 10
45.832723
 20
85.473857
 30
0.0
 10
46.111416
 20
85.473857
 30
0.0
 10
46.333665
 20
85.251607
 30
0.0
 10
46.333665
 20
84.972914
 30
0.0
  0
SPLINE
  5
26f
100
AcDbEntity
  8
0
 62
7
100
AcDbSpline
 70
8
 71
3
 72
8
 73
4
 74
0
 40
0
 40
0
 40
0
 40
0
 40
1
 40
1
 40
1
 40
1
 10
46.333665
 20
84.972914
 30
0.0
 10
46.333665
 20
84.694221
 30
0.0
 10
46.107888
 20
84.471971
 30
0.0
 10
45.832723
 20
84.471971
 30
0.0
  0
SPLINE
  5
270
100
AcDbEntity
  8
0
 62
7
100
AcDbSpline
 70
8
 71
3
 72
8
 73
4
 74
0
 40
0
 40
0
 40
0
 40
0
 40
1
 40
1
 40
1
 40
1
 10
45.832723
 20
84.471971
 30
0.0
 10
45.557557
 20
84.471971
 30
0.0
 10
45.331780
 20
84.694221
 30
0.0
 10
45.331780
 20
84.972914
 30
0.0
  0
LWPOLYLINE
  5
271
100
AcDbEntity
  8
0
 62
7
100
AcDbPolyline
 90
1
 70
1
 10
45.331780
 20
82.972671
 30
0.0
  0
SPLINE
  5
272
100
AcDbEntity
  8
0
 62
7
100
AcDbSpline
 70
8
 71
3
 72
8
 73
4
 74
0
 40
0
 40
0
 40
0
 40
0
 40
1
 40
1
 40
1
 40
1
 10
29.478004
 20
74.795312
 30
0.0
 10
29.478004
 20
74.213231
 30
0.0
 10
29.008811
 20
73.744038
 30
0.0
 10
28.426730
 20
73.744038
 30
0.0
  0
SPLINE
  5
273
100
AcDbEntity
  8
0
 62
7
100
AcDbSpline
 70
8
 71
3
 72
8
 73
4
 74
0
 40
0
 40
0
 40
0
 40
0
 40
1
 40
1
 40
1
 40
1
 10
28.426730
 20
73.744038
 30
0.0
 10
27.844649
 20
73.744038
 30
0.0
 10
27.375456
 20
74.213231
 30
0.0
 10
27.375456
 20
74.795312
 30
0.0
  0
SPLINE
  5
274
100
AcDbEntity
  8
0
 62
7
100
AcDbSpline
 70
8
 71
3
 72
8
 73
4
 74
0
 40
0
 40
0
 40
0
 40
0
 40
1
 40
1
 40
1
 40
1
 10
27.375456
 20
74.795312
 30
0.0
 10
27.375456
 20
75.377393
 30
0.0
 10
27.848177
 20
75.846586
 30
0.0
 10
28.426730
 20
75.846586
 30
0.0
  0
SPLINE
  5
275
100
AcDbEntity
  8
0
 62
7
100
AcDbSpline
 70
8
 71
3
 72
8
 73
4
 74
0
 40
0
 40
0
 40
0
 40
0
 40
1
 40
1
 40
1
 40
1
 10
28.426730
 20
75.846586
 30
0.0
 10
29.005284
 20
75.846586
 30
0.0
 10
29.478004
 20
75.377393
 30
0.0
 10
29.478004
 20
74.795312
 30
0.0
  0
LWPOLYLINE
  5
276
100
AcDbEntity
  8
0
 62
7
100
AcDbPolyline
 90
1
 70
1
 10
45.331780
 20
84.972914
 30
0.0
  0
SPLINE
  5
277
100
AcDbEntity
  8
0
 62
7
100
AcDbSpline
 70
8
 71
3
 72
8
 73
4
 74
0
 40
0
 40
0
 40
0
 40
0
 40
1
 40
1
 40
1
 40
1
 10
41.052601
 20
75.567893
 30
0.0
 10
41.052601
 20
74.985811
 30
0.0
 10
40.583408
 20
74.516619
 30
0.0
 10
40.001327
 20
74.516619
 30
0.0
  0
SPLINE
  5
278
100
AcDbEntity
  8
0
 62
7
100
AcDbSpline
 70
8
 71
3
 72
8
 73
4
 74
0
 40
0
 40
0
 40
0
 40
0
 40
1
 40
1
 40
1
 40
1
 10
40.001327
 20
74.516619
 30
0.0
 10
39.419246
 20
74.516619
 30
0.0
 10
38.950053
 20
74.985811
 30
0.0
 10
38.950053
 20
75.567893
 30
0.0
  0
SPLINE
  5
279
100
AcDbEntity
  8
0
 62
7
100
AcDbSpline
 70
8
 71
3
 72
8
 73
4
 74
0
 40
0
 40
0
 40
0
 40
0
 40
1
 40
1
 40
1
 40
1
 10
38.950053
 20
75.567893
 30
0.0
 10
38.950053
 20
76.149974
 30
0.0
 10
39.422774
 20
76.619167
 30
0.0
 10
40.001327
 20
76.619167
 30
0.0
  0
SPLINE
  5
27a
100
AcDbEntity
  8
0
 62
7
100
AcDbSpline
 70
8
 71
3
 72
8
 73
4
 74
0
 40
0
 40
0
 40
0
 40
0
 40
1
 40
1
 40
1
 40
1
 10
40.001327
 20
76.619167
 30
0.0
 10
40.579881
 20
76.619167
 30
0.0
 10
41.052601
 20
76.149974
 30
0.0
 10
41.052601
 20
75.567893
 30
0.0
  0
LWPOLYLINE
  5
27b
100
AcDbEntity
  8
0
 62
7
100
AcDbPolyline
 90
1
 70
1
 10
29.478004
 20
74.795312
 30
0.0
  0
LWPOLYLINE
  5
27c
100
AcDbEntity
  8
0
 62
7
100
AcDbPolyline
 90
1
 70
1
 10
41.052601
 20
75.567893
 30
0.0
  0
SPLINE
  5
27d
100
AcDbEntity
  8
0
 62
7
100
AcDbSpline
 70
8
 71
3
 72
8
 73
4
 74
0
 40
0
 40
0
 40
0
 40
0
 40
1
 40
1
 40
1
 40
1
 10
15.504527
 20
77.518747
 30
0.0
 10
15.885526
 20
77.585774
 30
0.0
 10
16.248886
 20
77.331775
 30
0.0
 10
16.315913
 20
76.950776
 30
0.0
  0
LWPOLYLINE
  5
27e
100
AcDbEntity
  8
0
 62
7
100
AcDbPolyline
 90
3
 70
0
 10
0.049389
 20
96.184151
 30
0.0
 10
0.049389
 20
74.795312
 30
0.0
 10
15.504527
 20
77.518747
 30
0.0
  0
SPLINE
  5
27f
100
AcDbEntity
  8
0
 62
7
100
AcDbSpline
 70
8
 71
3
 72
8
 73
4
 74
0
 40
0
 40
0
 40
0
 40
0
 40
1
 40
1
 40
1
 40
1
 10
19.106375
 20
61.040556
 30
0.0
 10
19.229847
 20
60.327948
 30
0.0
 10
20.288176
 20
60.454947
 30
0.0
 10
20.238788
 20
61.178139
 30
0.0
  0
LWPOLYLINE
  5
280
100
AcDbEntity
  8
0
 62
7
100
AcDbPolyline
 90
2
 70
0
 10
16.315913
 20
76.950776
 30
0.0
 10
19.106375
 20
61.040556
 30
0.0
  0
SPLINE
  5
281
100
AcDbEntity
  8
0
 62
7
100
AcDbSpline
 70
8
 71
3
 72
8
 73
4
 74
0
 40
0
 40
0
 40
0
 40
0
 40
1
 40
1
 40
1
 40
1
 10
0.747886
 20
96.882649
 30
0.0
 10
0.363360
 20
96.882649
 30
0.0
 10
0.049389
 20
96.572205
 30
0.0
 10
0.049389
 20
96.184151
 30
0.0
  0
LWPOLYLINE
  5
282
100
AcDbEntity
  8
0
 62
7
100
AcDbPolyline
 90
6
 70
0
 10
20.238788
 20
61.178139
 30
0.0
 10
18.263239
 20
89.714230
 30
0.0
 10
18.263239
 20
89.714230
 30
0.0
 10
40.766852
 20
91.287613
 30
0.0
 10
40.756269
 20
96.882649
 30
0.0
 10
0.747886
 20
96.882649
 30
0.0
  0
SPLINE
  5
283
100
AcDbEntity
  8
0
 62
7
100
AcDbSpline
 70
8
 71
3
 72
8
 73
4
 74
0
 40
0
 40
0
 40
0
 40
0
 40
1
 40
1
 40
1
 40
1
 10
35.200039
 20
94.282686
 30
0.0
 10
35.200039
 20
94.864767
 30
0.0
 10
35.669232
 20
95.333960
 30
0.0
 10
36.251313
 20
95.333960
 30
0.0
  0
SPLINE
  5
284
100
AcDbEntity
  8
0
 62
7
100
AcDbSpline
 70
8
 71
3
 72
8
 73
4
 74
0
 40
0
 40
0
 40
0
 40
0
 40
1
 40
1
 40
1
 40
1
 10
36.251313
 20
95.333960
 30
0.0
 10
36.833394
 20
95.333960
 30
0.0
 10
37.302587
 20
94.864767
 30
0.0
 10
37.302587
 20
94.282686
 30
0.0
  0
SPLINE
  5
285
100
AcDbEntity
  8
0
 62
7
100
AcDbSpline
 70
8
 71
3
 72
8
 73
4
 74
0
 40
0
 40
0
 40
0
 40
0
 40
1
 40
1
 40
1
 40
1
 10
37.302587
 20
94.282686
 30
0.0
 10
37.302587
 20
93.700605
 30
0.0
 10
36.829866
 20
93.231412
 30
0.0
 10
36.251313
 20
93.231412
 30
0.0
  0
SPLINE
  5
286
100
AcDbEntity
  8
0
 62
7
100
AcDbSpline
 70
8
 71
3
 72
8
 73
4
 74
0
 40
0
 40
0
 40
0
 40
0
 40
1
 40
1
 40
1
 40
1
 10
36.251313
 20
93.231412
 30
0.0
 10
35.672759
 20
93.231412
 30
0.0
 10
35.200039
 20
93.700605
 30
0.0
 10
35.200039
 20
94.282686
 30
0.0
  0
LWPOLYLINE
  5
287
100
AcDbEntity
  8
0
 62
7
100
AcDbPolyline
 90
1
 70
1
 10
0.049389
 20
96.184151
 30
0.0
  0
SPLINE
  5
288
100
AcDbEntity
  8
0
 62
7
100
AcDbSpline
 70
8
 71
3
 72
8
 73
4
 74
0
 40
0
 40
0
 40
0
 40
0
 40
1
 40
1
 40
1
 40
1
 10
20.358732
 20
93.273745
 30
0.0
 10
20.358732
 20
93.855826
 30
0.0
 10
20.827924
 20
94.325019
 30
0.0
 10
21.410006
 20
94.325019
 30
0.0
  0
SPLINE
  5
289
100
AcDbEntity
  8
0
 62
7
100
AcDbSpline
 70
8
 71
3
 72
8
 73
4
 74
0
 40
0
 40
0
 40
0
 40
0
 40
1
 40
1
 40
1
 40
1
 10
21.410006
 20
94.325019
 30
0.0
 10
21.992087
 20
94.325019
 30
0.0
 10
22.461280
 20
93.855826
 30
0.0
 10
22.461280
 20
93.273745
 30
0.0
  0
SPLINE
  5
28a
100
AcDbEntity
  8
0
 62
7
100
AcDbSpline
 70
8
 71
3
 72
8
 73
4
 74
0
 40
0
 40
0
 40
0
 40
0
 40
1
 40
1
 40
1
 40
1
 10
22.461280
 20
93.273745
 30
0.0
 10
22.461280
 20
92.691664
 30
0.0
 10
21.988559
 20
92.222471
 30
0.0
 10
21.410006
 20
92.222471
 30
0.0
  0
SPLINE
  5
28b
100
AcDbEntity
  8
0
 62
7
100
AcDbSpline
 70
8
 71
3
 72
8
 73
4
 74
0
 40
0
 40
0
 40
0
 40
0
 40
1
 40
1
 40
1
 40
1
 10
21.410006
 20
92.222471
 30
0.0
 10
20.831452
 20
92.222471
 30
0.0
 10
20.358732
 20
92.691664
 30
0.0
 10
20.358732
 20
93.273745
 30
0.0
  0
LWPOLYLINE
  5
28c
100
AcDbEntity
  8
0
 62
7
100
AcDbPolyline
 90
1
 70
1
 10
35.200039
 20
94.282686
 30
0.0
  0
LWPOLYLINE
  5
28d
100
AcDbEntity
  8
0
 62
7
100
AcDbPolyline
 90
1
 70
1
 10
20.358732
 20
93.273745
 30
0.0
  0
SPLINE
  5
28e
100
AcDbEntity
  8
0
 62
7
100
AcDbSpline
 70
8
 71
3
 72
8
 73
4
 74
0
 40
0
 40
0
 40
0
 40
0
 40
1
 40
1
 40
1
 40
1
 10
121.228116
 20
88.610040
 30
0.0
 10
116.426828
 20
88.610040
 30
0.0
 10
112.521592
 20
84.704804
 30
0.0
 10
112.521592
 20
79.903516
 30
0.0
  0
SPLINE
  5
28f
100
AcDbEntity
  8
0
 62
7
100
AcDbSpline
 70
8
 71
3
 72
8
 73
4
 74
0
 40
0
 40
0
 40
0
 40
0
 40
1
 40
1
 40
1
 40
1
 10
112.521592
 20
79.903516
 30
0.0
 10
112.521592
 20
75.102228
 30
0.0
 10
116.426828
 20
71.196992
 30
0.0
 10
121.228116
 20
71.196992
 30
0.0
  0
SPLINE
  5
290
100
AcDbEntity
  8
0
 62
7
100
AcDbSpline
 70
8
 71
3
 72
8
 73
4
 74
0
 40
0
 40
0
 40
0
 40
0
 40
1
 40
1
 40
1
 40
1
 10
121.228116
 20
71.196992
 30
0.0
 10
126.029404
 20
71.196992
 30
0.0
 10
129.934640
 20
75.102228
 30
0.0
 10
129.934640
 20
79.903516
 30
0.0
  0
SPLINE
  5
291
100
AcDbEntity
  8
0
 62
7
100
AcDbSpline
 70
8
 71
3
 72
8
 73
4
 74
0
 40
0
 40
0
 40
0
 40
0
 40
1
 40
1
 40
1
 40
1
 10
129.934640
 20
79.903516
 30
0.0
 10
129.934640
 20
84.704804
 30
0.0
 10
126.029404
 20
88.610040
 30
0.0
 10
121.228116
 20
88.610040
 30
0.0
  0
LWPOLYLINE
  5
292
100
AcDbEntity
  8
0
 62
7
100
AcDbPolyline
 90
4
 70
1
 10
111.566743
 20
62.381108
 30
0.0
 10
141.675043
 20
62.381108
 30
0.0
 10
141.675043
 20
61.750814
 30
0.0
 10
111.566743
 20
61.750814
 30
0.0
  0
SPLINE
  5
293
100
AcDbEntity
  8
0
 62
7
100
AcDbSpline
 70
8
 71
3
 72
8
 73
4
 74
0
 40
0
 40
0
 40
0
 40
0
 40
1
 40
1
 40
1
 40
1
 10
121.228116
 20
71.673240
 30
0.0
 10
116.687882
 20
71.673240
 30
0.0
 10
112.997840
 20
75.366810
 30
0.0
 10
112.997840
 20
79.903516
 30
0.0
  0
SPLINE
  5
294
100
AcDbEntity
  8
0
 62
7
100
AcDbSpline
 70
8
 71
3
 72
8
 73
4
 74
0
 40
0
 40
0
 40
0
 40
0
 40
1
 40
1
 40
1
 40
1
 10
112.997840
 20
79.903516
 30
0.0
 10
112.997840
 20
84.440221
 30
0.0
 10
116.691410
 20
88.133791
 30
0.0
 10
121.228116
 20
88.133791
 30
0.0
  0
SPLINE
  5
295
100
AcDbEntity
  8
0
 62
7
100
AcDbSpline
 70
8
 71
3
 72
8
 73
4
 74
0
 40
0
 40
0
 40
0
 40
0
 40
1
 40
1
 40
1
 40
1
 10
121.228116
 20
88.133791
 30
0.0
 10
125.764822
 20
88.133791
 30
0.0
 10
129.458392
 20
84.440221
 30
0.0
 10
129.458392
 20
79.903516
 30
0.0
  0
SPLINE
  5
296
100
AcDbEntity
  8
0
 62
7
100
AcDbSpline
 70
8
 71
3
 72
8
 73
4
 74
0
 40
0
 40
0
 40
0
 40
0
 40
1
 40
1
 40
1
 40
1
 10
129.458392
 20
79.903516
 30
0.0
 10
129.458392
 20
75.366810
 30
0.0
 10
125.764822
 20
71.673240
 30
0.0
 10
121.228116
 20
71.673240
 30
0.0
  0
LWPOLYLINE
  5
297
100
AcDbEntity
  8
0
 62
7
100
AcDbPolyline
 90
1
 70
1
 10
121.228116
 20
88.610040
 30
0.0
  0
LWPOLYLINE
  5
298
100
AcDbEntity
  8
0
 62
7
100
AcDbPolyline
 90
1
 70
1
 10
121.228116
 20
71.673240
 30
0.0
  0
LWPOLYLINE
  5
299
100
AcDbEntity
  8
0
 62
7
100
AcDbPolyline
 90
11
 70
1
 10
142.179512
 20
83.762891
 30
0.0
 10
142.179512
 20
93.019746
 30
0.0
 10
133.236628
 20
93.019746
 30
0.0
 10
133.236628
 20
75.592587
 30
0.0
 10
133.709348
 20
75.592587
 30
0.0
 10
133.709348
 20
83.766418
 30
0.0
 10
137.716889
 20
83.766418
 30
0.0
 10
141.826736
 20
75.592587
 30
0.0
 10
142.355900
 20
75.592587
 30
0.0
 10
138.246054
 20
83.766418
 30
0.0
 10
142.179512
 20
83.766418
 30
0.0
  0
LWPOLYLINE
  5
29a
100
AcDbEntity
  8
0
 62
7
100
AcDbPolyline
 90
6
 70
1
 10
133.712876
 20
84.228556
 30
0.0
 10
133.712876
 20
92.547025
 30
0.0
 10
141.706792
 20
92.547025
 30
0.0
 10
141.706792
 20
84.239139
 30
0.0
 10
133.712876
 20
84.239139
 30
0.0
 10
133.712876
 20
84.232083
 30
0.0
  0
ENDSEC
  0
SECTION
  2
OBJECTS
  0
DICTIONARY
  5
C
330
0
100
AcDbDictionary
  3
ACAD_GROUP
350
D
  3
ACAD_MLINESTYLE
350
17
  0
DICTIONARY
  5
D
330
C
100
AcDbDictionary
  0
DICTIONARY
  5
1A
330
C
100
AcDbDictionary
  0
DICTIONARY
  5
17
330
C
100
AcDbDictionary
  3
STANDARD
350
18
  0
DICTIONARY
  5
19
330
C
100
AcDbDictionary
  0
ENDSEC
  0
EOF
