<?xml version="1.0" encoding="UTF-8"?>
<svg id="Cuts" xmlns="http://www.w3.org/2000/svg" width="340.03mm" height="131.58mm" viewBox="0 0 963.87 373">
  <defs>
    <style>
      .cls-1 {
        fill: none;
        stroke: blue;
        stroke-miterlimit: 10;
        stroke-width: .28px;
      }
    </style>
  </defs>
  <path class="cls-1" d="M767.98,233.21h0v35.6c0,1.88-1.53,3.4-3.4,3.4h-27.82c-16.67,.06-34.56,2.53-51.74,7.13-16.01,4.29-32.69,11.3-48.24,20.28l-.55,.32c-.3,.17-.6,.35-.89,.53-1.42,.84-2.84,1.7-4.34,2.66-.1,.06-.13,.08-.16,.1l-.1,.07-.11,.05-.05,.04-.12,.07c-10.07,6.41-20.01,14.15-29.53,23l-24.79,24.78c-.64,.64-1.5,1-2.4,1s-1.76-.35-2.41-1l-39.33-39.32c-.64-.64-1-1.5-1-2.41s.35-1.76,1-2.41l23.04-23.04c.12-.12,.24-.25,.37-.37l3.25-3.26v-27.08l-14.17,15.19v6.02l-33.54,33.54c-.77,.77-.77,2.03,0,2.81l61.38,61.37c.77,.77,2.03,.77,2.81,0l35.63-35.62c8.71-8.08,17.77-15.15,26.92-21.01l.55-.28,.6-.45c1.27-.8,2.48-1.54,3.68-2.25l.23-.14c.19-.12,.38-.22,.62-.37l.5-.29c14.48-8.37,29.98-14.89,44.82-18.86,16.02-4.29,32.66-6.59,48.07-6.65h43.41c1.1,0,1.98-.89,1.98-1.98v-37.01l-14.17-14.17h0Zm-245.92,80.9c-2.5,0-4.54-2.03-4.54-4.54s2.03-4.54,4.54-4.54,4.54,2.03,4.54,4.54-2.03,4.54-4.54,4.54Zm51.66,51.61c-2.5,0-4.54-2.03-4.54-4.54s2.03-4.54,4.54-4.54,4.54,2.03,4.54,4.54-2.03,4.54-4.54,4.54Zm199.59-92.73c2.5,0,4.54,2.03,4.54,4.54s-2.03,4.54-4.54,4.54-4.54-2.03-4.54-4.54,2.03-4.54,4.54-4.54Z"/>
  <path class="cls-1" d="M827.75,11.33V2.12c0-1.1-.89-1.98-1.98-1.98h-86.81c-1.1,0-1.98,.89-1.98,1.98V11.33h-110.09v14.17h124.27v-7.79c0-1.88,1.53-3.4,3.4-3.4h55.63c1.88,0,3.4,1.53,3.4,3.4v7.8h118.31V11.33h-104.15Zm-85.06,10.37c-2.5,0-4.54-2.03-4.54-4.54s2.03-4.54,4.54-4.54,4.54,2.03,4.54,4.54-2.03,4.54-4.54,4.54Zm79.22,0c-2.5,0-4.54-2.03-4.54-4.54s2.03-4.54,4.54-4.54,4.54,2.03,4.54,4.54-2.03,4.54-4.54,4.54Z"/>
  <path class="cls-1" d="M962.09,78.86l-6.75-1.19V13.3c0-1.1-.89-1.98-1.98-1.98h-15.78v14.17h.19c1.88,0,3.4,1.53,3.4,3.4v60.67l3.11,.55c1.85,.33,3.08,2.09,2.76,3.94l-5.86,33.24v111.43c0,1.88-1.53,3.4-3.4,3.4h-16.94l-2.29,12.97c-.29,1.63-1.7,2.81-3.35,2.81-.19,0-.39-.02-.59-.05l-54.62-9.63c-.89-.16-1.67-.65-2.2-1.4-.52-.74-.72-1.65-.56-2.54l1.44-8.18-41.21-2.89h-43.78l14.17,14.18h29.11l25.02,1.75-1.42,8.03c-.19,1.08,.53,2.11,1.61,2.3l85.32,15.04c1.08,.19,2.11-.53,2.3-1.61l2.93-16.61h20.64c1.1,0,1.98-.89,1.98-1.98v-125.78l8.36-47.37c.19-1.08-.53-2.11-1.61-2.3h0Zm-111.53,177.63c-2.5,0-4.54-2.03-4.54-4.54s2.03-4.54,4.54-4.54,4.54,2.03,4.54,4.54-2.03,4.54-4.54,4.54ZM946.51,24.75c-2.5,0-4.54-2.03-4.54-4.54s2.03-4.54,4.54-4.54,4.54,2.03,4.54,4.54-2.03,4.54-4.54,4.54Z"/>
  <path class="cls-1" d="M558.65,28.89c0-1.88,1.53-3.4,3.4-3.4h24.28V11.32h-39.87c-1.1,0-1.98,.89-1.98,1.98V194.76l14.17,14.17V28.89Zm-7.09,164.74c-2.5,0-4.54-2.03-4.54-4.54s2.03-4.54,4.54-4.54,4.54,2.03,4.54,4.54-2.03,4.54-4.54,4.54Zm0-103.29c-2.5,0-4.54-2.03-4.54-4.54s2.03-4.54,4.54-4.54,4.54,2.03,4.54,4.54-2.03,4.54-4.54,4.54Zm1.83-65.56c-2.5,0-4.54-2.03-4.54-4.54s2.03-4.54,4.54-4.54,4.54,2.03,4.54,4.54-2.03,4.54-4.54,4.54Z"/>
  <path class="cls-1" d="M195.89,233.2h0l-14.17,14.17v37.01c0,1.09,.88,1.98,1.98,1.98h43.41c15.41,.06,32.05,2.36,48.07,6.65,14.84,3.97,30.34,10.49,44.82,18.86l.5,.29c.24,.15,.43,.25,.62,.37l.23,.14c1.2,.71,2.41,1.45,3.68,2.25l.6,.45,.55,.28c9.15,5.86,18.21,12.93,26.92,21.01l35.63,35.62c.78,.77,2.04,.77,2.81,0l61.38-61.37c.77-.78,.77-2.04,0-2.81l-33.54-33.54v-6.02l-14.17-15.19v27.08l3.25,3.26c.13,.12,.25,.25,.37,.37l23.04,23.04c.65,.65,1,1.5,1,2.41s-.36,1.77-1,2.41l-39.33,39.32c-.65,.65-1.51,1-2.41,1s-1.76-.36-2.4-1l-24.79-24.78c-9.52-8.85-19.46-16.59-29.53-23l-.12-.07-.05-.04-.11-.05-.1-.07s-.06-.04-.16-.1c-1.5-.96-2.92-1.82-4.34-2.66-.29-.18-.59-.36-.89-.53l-.55-.32c-15.55-8.98-32.23-15.99-48.24-20.28-17.18-4.6-35.07-7.07-51.74-7.13h-27.82c-1.87,0-3.4-1.52-3.4-3.4v-35.6h0Zm241.38,76.35c0-2.51,2.03-4.54,4.54-4.54s4.54,2.03,4.54,4.54-2.04,4.54-4.54,4.54-4.54-2.03-4.54-4.54Zm-51.66,51.61c0-2.51,2.03-4.54,4.54-4.54s4.54,2.03,4.54,4.54-2.04,4.54-4.54,4.54-4.54-2.03-4.54-4.54Zm-190.51-83.65c0,2.51-2.03,4.54-4.54,4.54s-4.54-2.03-4.54-4.54,2.04-4.54,4.54-4.54,4.54,2.03,4.54,4.54Z"/>
  <path class="cls-1" d="M136.11,11.33H31.97v14.18h118.31v-7.8c0-1.87,1.52-3.4,3.4-3.4h55.63c1.87,0,3.4,1.52,3.4,3.4v7.79h124.27V11.33h-110.09V2.12c0-1.09-.88-1.98-1.98-1.98h-86.81c-1.09,0-1.98,.88-1.98,1.98V11.33h0Zm80.53,5.83c0-2.51,2.03-4.54,4.54-4.54s4.54,2.03,4.54,4.54-2.04,4.54-4.54,4.54-4.54-2.03-4.54-4.54Zm-79.22,0c0-2.51,2.03-4.54,4.54-4.54s4.54,2.03,4.54,4.54-2.04,4.54-4.54,4.54-4.54-2.03-4.54-4.54Z"/>
  <path class="cls-1" d="M1.78,78.86c-1.08,.19-1.8,1.22-1.61,2.3l8.36,47.37v125.78c0,1.09,.88,1.98,1.98,1.98H31.15l2.93,16.61c.19,1.08,1.22,1.8,2.3,1.61l85.32-15.04c1.08-.19,1.8-1.22,1.61-2.3l-1.42-8.03,25.02-1.75h29.11l14.17-14.18h-43.78l-41.21,2.89,1.44,8.18c.16,.89-.04,1.8-.56,2.54-.53,.75-1.31,1.24-2.2,1.4l-54.62,9.63c-.2,.03-.4,.05-.59,.05-1.65,0-3.06-1.18-3.35-2.81l-2.29-12.97H26.09c-1.87,0-3.4-1.52-3.4-3.4V127.29l-5.86-33.24c-.32-1.85,.91-3.61,2.76-3.94l3.11-.55V28.89c0-1.87,1.52-3.4,3.4-3.4h.19V11.32H10.51c-1.09,0-1.98,.88-1.98,1.98V77.67l-6.75,1.19h0ZM108.77,251.95c0-2.51,2.03-4.54,4.54-4.54s4.54,2.03,4.54,4.54-2.04,4.54-4.54,4.54-4.54-2.03-4.54-4.54ZM12.82,20.21c0-2.51,2.03-4.54,4.54-4.54s4.54,2.03,4.54,4.54-2.04,4.54-4.54,4.54-4.54-2.03-4.54-4.54Z"/>
  <path class="cls-1" d="M405.22,208.93l14.17-14.17V13.3c0-1.09-.88-1.98-1.98-1.98h-39.87v14.17h24.28c1.87,0,3.4,1.52,3.4,3.4V208.93Zm2.55-19.84c0-2.51,2.03-4.54,4.54-4.54s4.54,2.03,4.54,4.54-2.04,4.54-4.54,4.54-4.54-2.03-4.54-4.54Zm0-103.29c0-2.51,2.03-4.54,4.54-4.54s4.54,2.03,4.54,4.54-2.04,4.54-4.54,4.54-4.54-2.03-4.54-4.54Zm-1.83-65.56c0-2.51,2.03-4.54,4.54-4.54s4.54,2.03,4.54,4.54-2.04,4.54-4.54,4.54-4.54-2.03-4.54-4.54Z"/>
</svg>