<?xml version="1.0" encoding="UTF-8"?>
<svg id="Cuts" xmlns="http://www.w3.org/2000/svg" width="328mm" height="117.92mm" viewBox="0 0 929.76 334.27">
  <defs>
    <style>
      .cls-1 {
        fill: none;
        stroke: blue;
        stroke-miterlimit: 10;
        stroke-width: .28px;
      }
    </style>
  </defs>
  <path class="cls-1" d="M793.65,11.33V2.12c0-1.1-.89-1.98-1.98-1.98h-86.81c-1.1,0-1.98,.89-1.98,1.98V11.33h-190.52c-1.1,0-1.98,.89-1.98,1.98v21.9l14.17,14.17V28.9c0-1.88,1.53-3.4,3.4-3.4h189.09v-7.79c0-1.88,1.53-3.4,3.4-3.4h55.62c1.88,0,3.4,1.53,3.4,3.4v7.8h118.31V11.33h-104.12Zm-274.36,13.46c-2.5,0-4.54-2.03-4.54-4.54s2.03-4.54,4.54-4.54,4.54,2.03,4.54,4.54-2.03,4.54-4.54,4.54Zm189.29-3.1c-2.5,0-4.54-2.03-4.54-4.54s2.03-4.54,4.54-4.54,4.54,2.03,4.54,4.54-2.03,4.54-4.54,4.54Zm79.22,0c-2.5,0-4.54-2.03-4.54-4.54s2.03-4.54,4.54-4.54,4.54,2.03,4.54,4.54-2.03,4.54-4.54,4.54Z"/>
  <path class="cls-1" d="M927.98,78.87l-6.74-1.19V13.31c0-1.1-.89-1.98-1.98-1.98h-15.78v14.17h.19c1.88,0,3.4,1.53,3.4,3.4v60.67l3.1,.55c1.85,.33,3.08,2.09,2.76,3.94l-5.86,33.24v111.43c0,1.88-1.53,3.4-3.4,3.4h-16.94l-2.29,12.97c-.29,1.63-1.7,2.81-3.35,2.81-.19,0-.39-.02-.59-.05l-54.62-9.63c-1.85-.33-3.08-2.09-2.76-3.94l1.44-8.17-41.21-2.89h-43.78l14.17,14.17h29.11l25.02,1.75-1.42,8.03c-.19,1.08,.53,2.11,1.61,2.3l85.33,15.05c1.08,.19,2.11-.53,2.3-1.61l2.93-16.61h20.64c1.1,0,1.98-.89,1.98-1.98v-125.78l8.35-47.37c.19-1.08-.53-2.11-1.61-2.3h0Zm-111.52,177.62c-2.5,0-4.54-2.03-4.54-4.54s2.03-4.54,4.54-4.54,4.54,2.03,4.54,4.54-2.03,4.54-4.54,4.54ZM912.41,24.76c-2.5,0-4.54-2.03-4.54-4.54s2.03-4.54,4.54-4.54,4.54,2.03,4.54,4.54-2.03,4.54-4.54,4.54Z"/>
  <path class="cls-1" d="M733.89,233.23v35.6c0,1.88-1.53,3.4-3.4,3.4h-27.81c-16.66,.06-34.56,2.52-51.75,7.13-16.03,4.29-32.71,11.31-48.24,20.28-2.09,1.21-6.29,3.83-6.34,3.86l-17.66,10.26c-.52,.3-1.11,.46-1.71,.46-1.21,0-2.34-.65-2.95-1.7l-5.58-9.68h-40.5c-1.88,0-3.4-1.53-3.4-3.4V66.21l-14.17,14.17v234.64c0,1.1,.89,1.98,1.98,1.98h47.9l9.3,16.14c.55,.95,1.77,1.28,2.72,.72l31.38-18.24,.19-.12c.84-.52,4.29-2.67,5.91-3.6,14.47-8.36,29.97-14.88,44.82-18.86,16.03-4.3,32.67-6.59,48.08-6.65h43.4c1.1,0,1.98-.89,1.98-1.98v-37.01l-14.17-14.17h.02Zm-216.41-151.95c2.5,0,4.54,2.03,4.54,4.54s-2.03,4.54-4.54,4.54-4.54-2.03-4.54-4.54,2.03-4.54,4.54-4.54Zm-4.54,107.82c0-2.5,2.03-4.54,4.54-4.54s4.54,2.03,4.54,4.54-2.03,4.54-4.54,4.54-4.54-2.03-4.54-4.54Zm6.38,123.5c-2.5,0-4.54-2.03-4.54-4.54s2.03-4.54,4.54-4.54,4.54,2.03,4.54,4.54-2.03,4.54-4.54,4.54Zm219.91-30.54c-2.5,0-4.54-2.03-4.54-4.54s2.03-4.54,4.54-4.54,4.54,2.03,4.54,4.54-2.03,4.54-4.54,4.54Z"/>
  <path class="cls-1" d="M136.13,11.33H31.99v14.18h118.31v-7.8c0-1.87,1.52-3.4,3.4-3.4h55.62c1.87,0,3.4,1.52,3.4,3.4v7.79h189.09c1.87,0,3.4,1.52,3.4,3.4v20.48l14.17-14.17V13.31c0-1.09-.88-1.98-1.98-1.98H226.88V2.12c0-1.09-.88-1.98-1.98-1.98h-86.81c-1.09,0-1.98,.88-1.98,1.98V11.33h.02Zm269.8,8.92c0-2.51,2.03-4.54,4.54-4.54s4.54,2.03,4.54,4.54-2.04,4.54-4.54,4.54-4.54-2.03-4.54-4.54Zm-189.29-3.1c0-2.51,2.03-4.54,4.54-4.54s4.54,2.03,4.54,4.54-2.04,4.54-4.54,4.54-4.54-2.03-4.54-4.54Zm-79.22,0c0-2.51,2.03-4.54,4.54-4.54s4.54,2.03,4.54,4.54-2.04,4.54-4.54,4.54-4.54-2.03-4.54-4.54Z"/>
  <path class="cls-1" d="M1.78,78.88c-1.08,.19-1.8,1.22-1.61,2.3l8.35,47.37v125.78c0,1.09,.88,1.98,1.98,1.98H31.14l2.93,16.61c.19,1.08,1.22,1.8,2.3,1.61l85.33-15.05c1.08-.19,1.8-1.22,1.61-2.3l-1.42-8.03,25.02-1.75h29.11l14.17-14.17h-43.78l-41.21,2.89,1.44,8.17c.32,1.85-.91,3.61-2.76,3.94l-54.62,9.63c-.2,.03-.4,.05-.59,.05-1.65,0-3.06-1.18-3.35-2.81l-2.29-12.97H26.09c-1.87,0-3.4-1.52-3.4-3.4V127.3l-5.86-33.24c-.32-1.85,.91-3.61,2.76-3.94l3.1-.55V28.9c0-1.87,1.52-3.4,3.4-3.4h.19V11.33H10.5c-1.09,0-1.98,.88-1.98,1.98V77.68l-6.74,1.19h0ZM108.76,251.96c0-2.51,2.03-4.54,4.54-4.54s4.54,2.03,4.54,4.54-2.04,4.54-4.54,4.54c-2.51,0-4.54-2.03-4.54-4.54ZM12.81,20.22c0-2.51,2.03-4.54,4.54-4.54s4.54,2.03,4.54,4.54-2.04,4.54-4.54,4.54-4.54-2.03-4.54-4.54Z"/>
  <path class="cls-1" d="M195.9,233.23l-14.17,14.17v37.01c0,1.09,.88,1.98,1.98,1.98h43.4c15.41,.06,32.05,2.35,48.08,6.65,14.85,3.98,30.35,10.5,44.82,18.86,1.62,.93,5.07,3.08,5.91,3.6l.19,.12,31.38,18.24c.95,.56,2.17,.23,2.72-.72l9.3-16.14h47.9c1.09,0,1.98-.88,1.98-1.98V80.38l-14.17-14.17v233.23c0,1.87-1.52,3.4-3.4,3.4h-40.5l-5.58,9.68c-.61,1.05-1.74,1.7-2.95,1.7-.6,0-1.19-.16-1.71-.46l-17.66-10.26s-4.25-2.65-6.34-3.86c-15.53-8.97-32.21-15.99-48.24-20.28-17.19-4.61-35.09-7.07-51.75-7.13h-27.81c-1.87,0-3.4-1.52-3.4-3.4v-35.6h.02ZM416.83,85.82c0,2.51-2.03,4.54-4.54,4.54s-4.54-2.03-4.54-4.54,2.04-4.54,4.54-4.54,4.54,2.03,4.54,4.54Zm-4.54,107.82c-2.51,0-4.54-2.03-4.54-4.54s2.03-4.54,4.54-4.54,4.54,2.04,4.54,4.54-2.03,4.54-4.54,4.54Zm-6.38,114.42c0-2.51,2.03-4.54,4.54-4.54s4.54,2.03,4.54,4.54-2.04,4.54-4.54,4.54-4.54-2.03-4.54-4.54Zm-219.91-30.54c0-2.51,2.03-4.54,4.54-4.54s4.54,2.03,4.54,4.54-2.04,4.54-4.54,4.54-4.54-2.03-4.54-4.54Z"/>
</svg>