<?xml version="1.0" encoding="UTF-8"?>
<svg id="CaseHoles" xmlns="http://www.w3.org/2000/svg" width="325.99mm" height="117.92mm" viewBox="0 0 924.05 334.27">
  <defs>
    <style>
      .cls-1 {
        fill: none;
        stroke: blue;
        stroke-miterlimit: 10;
        stroke-width: .28px;
      }
    </style>
  </defs>
  <g id="CaHole_Mic" data-name="CaHole Mic">
    <path class="cls-1" d="M922.28,78.87l-6.74-1.19V13.31c0-1.1-.89-1.98-1.98-1.98h-119.92V2.12c0-1.1-.89-1.98-1.98-1.98h-86.81c-1.1,0-1.98,.89-1.98,1.98V11.33h-190.52c-1.1,0-1.98,.89-1.98,1.98V315.02c0,1.1,.89,1.98,1.98,1.98h47.9l9.3,16.14c.55,.95,1.77,1.28,2.72,.72l31.38-18.24,.19-.12c.84-.52,4.29-2.67,5.91-3.6,14.47-8.36,29.97-14.88,44.82-18.86,16.03-4.3,32.67-6.59,48.08-6.65h43.4c1.1,0,1.98-.89,1.98-1.98v-37.01h29.11l25.02,1.75-1.42,8.03c-.19,1.08,.53,2.11,1.61,2.3l85.33,15.05c1.08,.19,2.11-.53,2.3-1.61l2.93-16.61h20.64c1.1,0,1.98-.89,1.98-1.98v-125.78l8.35-47.37c.19-1.08-.53-2.11-1.61-2.3h.01ZM787.8,14.05c1.72,0,3.12,1.4,3.12,3.12s-1.4,3.12-3.12,3.12-3.12-1.4-3.12-3.12,1.4-3.12,3.12-3.12Zm-79.22,0c1.72,0,3.12,1.4,3.12,3.12s-1.4,3.12-3.12,3.12-3.12-1.4-3.12-3.12,1.4-3.12,3.12-3.12Zm-189.29,3.1c1.72,0,3.12,1.4,3.12,3.12s-1.4,3.12-3.12,3.12-3.12-1.4-3.12-3.12,1.4-3.12,3.12-3.12Zm-1.83,65.56c1.72,0,3.12,1.4,3.12,3.12s-1.4,3.12-3.12,3.12-3.12-1.4-3.12-3.12,1.4-3.12,3.12-3.12Zm-3.12,106.41c0-1.72,1.4-3.12,3.12-3.12s3.12,1.4,3.12,3.12-1.4,3.12-3.12,3.12-3.12-1.4-3.12-3.12Zm4.96,122.08c-1.72,0-3.12-1.4-3.12-3.12s1.4-3.12,3.12-3.12,3.12,1.4,3.12,3.12-1.4,3.12-3.12,3.12Zm14.34-111.92c0-19.18,15.55-34.72,34.72-34.72s34.72,15.55,34.72,34.72-15.55,34.72-34.72,34.72-34.72-15.55-34.72-34.72h0Zm205.57,81.38c-1.72,0-3.12-1.4-3.12-3.12s1.4-3.12,3.12-3.12,3.12,1.4,3.12,3.12-1.4,3.12-3.12,3.12Zm.6-81.74c.78,0,1.42,.63,1.42,1.42s-.63,1.42-1.42,1.42-1.42-.63-1.42-1.42,.63-1.42,1.42-1.42Zm-1.42-4.25c0-.78,.63-1.42,1.42-1.42s1.42,.63,1.42,1.42-.63,1.42-1.42,1.42-1.42-.63-1.42-1.42Zm1.42,9.92c.78,0,1.42,.63,1.42,1.42s-.63,1.42-1.42,1.42-1.42-.63-1.42-1.42,.63-1.42,1.42-1.42Zm0,5.67c.78,0,1.42,.63,1.42,1.42s-.63,1.42-1.42,1.42-1.42-.63-1.42-1.42,.63-1.42,1.42-1.42Zm0,5.67c.78,0,1.42,.63,1.42,1.42s-.63,1.42-1.42,1.42-1.42-.63-1.42-1.42,.63-1.42,1.42-1.42Zm5.67,2.83c-.78,0-1.42-.63-1.42-1.42s.63-1.42,1.42-1.42,1.42,.63,1.42,1.42-.63,1.42-1.42,1.42Zm0-5.67c-.78,0-1.42-.63-1.42-1.42s.63-1.42,1.42-1.42,1.42,.63,1.42,1.42-.63,1.42-1.42,1.42Zm0-5.67c-.78,0-1.42-.63-1.42-1.42s.63-1.42,1.42-1.42,1.42,.63,1.42,1.42-.63,1.42-1.42,1.42Zm0-5.67c-.78,0-1.42-.63-1.42-1.42s.63-1.42,1.42-1.42,1.42,.63,1.42,1.42-.63,1.42-1.42,1.42Zm0-5.67c-.78,0-1.42-.63-1.42-1.42s.63-1.42,1.42-1.42,1.42,.63,1.42,1.42-.63,1.42-1.42,1.42Zm5.67,22.68c-.78,0-1.42-.63-1.42-1.42s.63-1.42,1.42-1.42,1.42,.63,1.42,1.42-.63,1.42-1.42,1.42Zm0-5.67c-.78,0-1.42-.63-1.42-1.42s.63-1.42,1.42-1.42,1.42,.63,1.42,1.42-.63,1.42-1.42,1.42Zm0-5.67c-.78,0-1.42-.63-1.42-1.42s.63-1.42,1.42-1.42,1.42,.63,1.42,1.42-.63,1.42-1.42,1.42Zm0-5.67c-.78,0-1.42-.63-1.42-1.42s.63-1.42,1.42-1.42,1.42,.63,1.42,1.42-.63,1.42-1.42,1.42Zm0-5.67c-.78,0-1.42-.63-1.42-1.42s.63-1.42,1.42-1.42,1.42,.63,1.42,1.42-.63,1.42-1.42,1.42Zm5.67,22.68c-.78,0-1.42-.63-1.42-1.42s.63-1.42,1.42-1.42,1.42,.63,1.42,1.42-.63,1.42-1.42,1.42Zm0-5.67c-.78,0-1.42-.63-1.42-1.42s.63-1.42,1.42-1.42,1.42,.63,1.42,1.42-.63,1.42-1.42,1.42Zm0-5.67c-.78,0-1.42-.63-1.42-1.42s.63-1.42,1.42-1.42,1.42,.63,1.42,1.42-.63,1.42-1.42,1.42Zm0-5.67c-.78,0-1.42-.63-1.42-1.42s.63-1.42,1.42-1.42,1.42,.63,1.42,1.42-.63,1.42-1.42,1.42Zm0-5.67c-.78,0-1.42-.63-1.42-1.42s.63-1.42,1.42-1.42,1.42,.63,1.42,1.42-.63,1.42-1.42,1.42Zm5.67,22.68c-.78,0-1.42-.63-1.42-1.42s.63-1.42,1.42-1.42,1.42,.63,1.42,1.42-.63,1.42-1.42,1.42Zm0-5.67c-.78,0-1.42-.63-1.42-1.42s.63-1.42,1.42-1.42,1.42,.63,1.42,1.42-.63,1.42-1.42,1.42Zm0-5.67c-.78,0-1.42-.63-1.42-1.42s.63-1.42,1.42-1.42,1.42,.63,1.42,1.42-.63,1.42-1.42,1.42Zm0-5.67c-.78,0-1.42-.63-1.42-1.42s.63-1.42,1.42-1.42,1.42,.63,1.42,1.42-.63,1.42-1.42,1.42Zm0-5.67c-.78,0-1.42-.63-1.42-1.42s.63-1.42,1.42-1.42,1.42,.63,1.42,1.42-.63,1.42-1.42,1.42Zm48.27,59.01c-1.72,0-3.12-1.4-3.12-3.12s1.4-3.12,3.12-3.12,3.12,1.4,3.12,3.12-1.4,3.12-3.12,3.12Zm95.2-161.33l-28.41,161.2c-.19,1.08-1.22,1.8-2.3,1.61l-54.71-9.65c-1.08-.19-1.8-1.22-1.61-2.3l5.39-30.54-51.58-3.61c-1.09-.08-1.92-1.03-1.84-2.12l1.76-25.16h-48.63v28.2h6.38c1.1,0,1.99,.89,1.99,1.99v55.56c0,1.1-.89,1.99-1.99,1.99h-27.78c-16.67,0-34.71,2.47-52.18,7.15-16.02,4.29-32.79,11.35-48.49,20.42l-24.06,13.89c-.95,.55-2.16,.22-2.71-.73l-27.78-48.11c-.55-.95-.22-2.16,.73-2.71l24.06-13.89c12.4-7.16,25.41-13.36,38.47-18.39l.08-177.02c0-1.1,.89-1.98,1.99-1.98h51.86v-6.55c0-1.1,.89-1.99,1.99-1.99h51.94V17.53c0-1.1,.89-1.99,1.99-1.99h55.56c1.1,0,1.99,.89,1.99,1.99v25.26l63.79,4.46h0l-5.6,80.88c-.14,2.05,2.86,2.41,3.21,.39l7.91-45.09c.19-1.08,1.22-1.8,2.3-1.61l54.71,9.65c1.08,.19,1.8,1.22,1.61,2.3h-.04Zm.75-70.42c-1.72,0-3.12-1.4-3.12-3.12s1.4-3.12,3.12-3.12,3.12,1.4,3.12,3.12-1.4,3.12-3.12,3.12Z"/>
  </g>
  <g id="CaHole_Mic-2" data-name="CaHole Mic">
    <path class="cls-1" d="M1.78,78.88c-1.08,.19-1.8,1.22-1.61,2.3l8.35,47.37v125.78c0,1.09,.88,1.98,1.98,1.98H31.14l2.93,16.61c.19,1.08,1.22,1.8,2.3,1.61l85.33-15.05c1.08-.19,1.8-1.22,1.61-2.3l-1.42-8.03,25.02-1.75h29.11v37.01c0,1.09,.88,1.98,1.98,1.98h43.4c15.41,.06,32.05,2.35,48.08,6.65,14.85,3.98,30.35,10.5,44.82,18.86,1.62,.93,5.07,3.08,5.91,3.6l.19,.12,31.38,18.24c.95,.56,2.17,.23,2.72-.72l9.3-16.14h47.9c1.09,0,1.98-.88,1.98-1.98V13.31c0-1.09-.88-1.98-1.98-1.98H221.18V2.12c0-1.09-.88-1.98-1.98-1.98h-86.81c-1.09,0-1.98,.88-1.98,1.98V11.33H10.49c-1.09,0-1.98,.88-1.98,1.98V77.68l-6.74,1.19h.01ZM139.37,17.17c0,1.72-1.4,3.12-3.12,3.12s-3.12-1.4-3.12-3.12,1.4-3.12,3.12-3.12,3.12,1.4,3.12,3.12Zm79.22,0c0,1.72-1.4,3.12-3.12,3.12s-3.12-1.4-3.12-3.12,1.4-3.12,3.12-3.12,3.12,1.4,3.12,3.12Zm189.29,3.1c0,1.72-1.4,3.12-3.12,3.12s-3.12-1.4-3.12-3.12,1.4-3.12,3.12-3.12,3.12,1.4,3.12,3.12Zm1.83,65.56c0,1.72-1.4,3.12-3.12,3.12s-3.12-1.4-3.12-3.12,1.4-3.12,3.12-3.12,3.12,1.4,3.12,3.12Zm-3.12,106.41c-1.72,0-3.12-1.4-3.12-3.12s1.4-3.12,3.12-3.12,3.12,1.4,3.12,3.12-1.4,3.12-3.12,3.12Zm-4.96,115.84c0-1.72,1.4-3.12,3.12-3.12s3.12,1.4,3.12,3.12-1.4,3.12-3.12,3.12-3.12-1.4-3.12-3.12Zm-11.22-108.8c0,19.17-15.55,34.72-34.72,34.72-19.17,0-34.72-15.55-34.72-34.72,0-19.17,15.55-34.72,34.72-34.72,19.17,0,34.72,15.54,34.72,34.72h0Zm-208.69,78.26c0-1.72,1.4-3.12,3.12-3.12s3.12,1.4,3.12,3.12-1.4,3.12-3.12,3.12-3.12-1.4-3.12-3.12Zm3.94-77.2c0,.79-.63,1.42-1.42,1.42s-1.42-.63-1.42-1.42,.64-1.42,1.42-1.42,1.42,.63,1.42,1.42Zm-1.42-4.25c-.79,0-1.42-.63-1.42-1.42,0-.79,.63-1.42,1.42-1.42s1.42,.64,1.42,1.42-.63,1.42-1.42,1.42Zm1.42,9.92c0,.79-.63,1.42-1.42,1.42s-1.42-.63-1.42-1.42,.64-1.42,1.42-1.42,1.42,.63,1.42,1.42Zm0,5.67c0,.79-.63,1.42-1.42,1.42s-1.42-.63-1.42-1.42,.64-1.42,1.42-1.42,1.42,.63,1.42,1.42Zm0,5.67c0,.79-.63,1.42-1.42,1.42s-1.42-.63-1.42-1.42,.64-1.42,1.42-1.42,1.42,.63,1.42,1.42Zm-8.51-.01c0-.79,.63-1.42,1.42-1.42s1.42,.63,1.42,1.42c0,.79-.64,1.42-1.42,1.42s-1.42-.63-1.42-1.42Zm0-5.67c0-.79,.63-1.42,1.42-1.42s1.42,.63,1.42,1.42c0,.79-.64,1.42-1.42,1.42s-1.42-.63-1.42-1.42Zm0-5.67c0-.79,.63-1.42,1.42-1.42s1.42,.63,1.42,1.42c0,.79-.64,1.42-1.42,1.42s-1.42-.63-1.42-1.42Zm0-5.67c0-.79,.63-1.42,1.42-1.42s1.42,.63,1.42,1.42c0,.79-.64,1.42-1.42,1.42s-1.42-.63-1.42-1.42Zm0-5.67c0-.79,.63-1.42,1.42-1.42s1.42,.63,1.42,1.42c0,.79-.64,1.42-1.42,1.42s-1.42-.63-1.42-1.42Zm-5.67,22.68c0-.79,.63-1.42,1.42-1.42s1.42,.63,1.42,1.42c0,.79-.64,1.42-1.42,1.42s-1.42-.63-1.42-1.42Zm0-5.67c0-.79,.63-1.42,1.42-1.42s1.42,.63,1.42,1.42c0,.79-.64,1.42-1.42,1.42s-1.42-.63-1.42-1.42Zm0-5.67c0-.79,.63-1.42,1.42-1.42s1.42,.63,1.42,1.42c0,.79-.64,1.42-1.42,1.42s-1.42-.63-1.42-1.42Zm0-5.67c0-.79,.63-1.42,1.42-1.42s1.42,.63,1.42,1.42c0,.79-.64,1.42-1.42,1.42s-1.42-.63-1.42-1.42Zm0-5.67c0-.79,.63-1.42,1.42-1.42s1.42,.63,1.42,1.42c0,.79-.64,1.42-1.42,1.42s-1.42-.63-1.42-1.42Zm-5.67,22.68c0-.79,.63-1.42,1.42-1.42s1.42,.63,1.42,1.42c0,.79-.64,1.42-1.42,1.42s-1.42-.63-1.42-1.42Zm0-5.67c0-.79,.63-1.42,1.42-1.42s1.42,.63,1.42,1.42c0,.79-.64,1.42-1.42,1.42s-1.42-.63-1.42-1.42Zm0-5.67c0-.79,.63-1.42,1.42-1.42s1.42,.63,1.42,1.42c0,.79-.64,1.42-1.42,1.42s-1.42-.63-1.42-1.42Zm0-5.67c0-.79,.63-1.42,1.42-1.42s1.42,.63,1.42,1.42c0,.79-.64,1.42-1.42,1.42s-1.42-.63-1.42-1.42Zm0-5.67c0-.79,.63-1.42,1.42-1.42s1.42,.63,1.42,1.42c0,.79-.64,1.42-1.42,1.42s-1.42-.63-1.42-1.42Zm-5.67,22.68c0-.79,.63-1.42,1.42-1.42s1.42,.63,1.42,1.42c0,.79-.64,1.42-1.42,1.42s-1.42-.63-1.42-1.42Zm0-5.67c0-.79,.63-1.42,1.42-1.42s1.42,.63,1.42,1.42c0,.79-.64,1.42-1.42,1.42s-1.42-.63-1.42-1.42Zm0-5.67c0-.79,.63-1.42,1.42-1.42s1.42,.63,1.42,1.42c0,.79-.64,1.42-1.42,1.42s-1.42-.63-1.42-1.42Zm0-5.67c0-.79,.63-1.42,1.42-1.42s1.42,.63,1.42,1.42c0,.79-.64,1.42-1.42,1.42s-1.42-.63-1.42-1.42Zm0-5.67c0-.79,.63-1.42,1.42-1.42s1.42,.63,1.42,1.42c0,.79-.64,1.42-1.42,1.42s-1.42-.63-1.42-1.42Zm-49.97,57.31c0-1.72,1.4-3.12,3.12-3.12s3.12,1.4,3.12,3.12-1.4,3.12-3.12,3.12-3.12-1.4-3.12-3.12ZM18.05,93.77c-.19-1.08,.53-2.11,1.61-2.3l54.71-9.65c1.08-.19,2.11,.53,2.3,1.61l7.91,45.09c.35,2.02,3.35,1.66,3.21-.39l-5.6-80.88h0l63.79-4.46V17.53c0-1.1,.89-1.99,1.99-1.99h55.56c1.1,0,1.99,.89,1.99,1.99v23.49h51.94c1.1,0,1.99,.89,1.99,1.99v6.55h51.86c1.1,0,1.99,.88,1.99,1.98l.08,177.02c13.06,5.03,26.07,11.23,38.47,18.39l24.06,13.89c.95,.55,1.28,1.76,.73,2.71l-27.78,48.11c-.55,.95-1.76,1.28-2.71,.73l-24.06-13.89c-15.7-9.07-32.47-16.13-48.49-20.42-17.47-4.68-35.51-7.15-52.18-7.15h-27.78c-1.1,0-1.99-.89-1.99-1.99v-55.56c0-1.1,.89-1.99,1.99-1.99h6.38v-28.2h-48.63l1.76,25.16c.08,1.09-.75,2.04-1.84,2.12l-51.58,3.61,5.39,30.54c.19,1.08-.53,2.11-1.61,2.3l-54.71,9.65c-1.08,.19-2.11-.53-2.3-1.61L18.09,93.76h-.04ZM14.22,20.23c0-1.72,1.4-3.12,3.12-3.12s3.12,1.4,3.12,3.12-1.4,3.12-3.12,3.12-3.12-1.4-3.12-3.12Z"/>
  </g>
</svg>