<?xml version="1.0" encoding="UTF-8"?>
<svg id="Ebene_1" data-name="Ebene 1" xmlns="http://www.w3.org/2000/svg" width="61.28mm" height="29.67mm" viewBox="0 0 173.71 84.1">
  <defs>
    <style>
      .cls-1 {
        fill: none;
        stroke: blue;
        stroke-miterlimit: 10;
        stroke-width: .28px;
      }
    </style>
  </defs>
  <path id="Ring" class="cls-1" d="M41.95,.14C18.86,.14,.14,18.86,.14,41.95s18.72,41.81,41.81,41.81,41.81-18.72,41.81-41.81S65.04,.14,41.95,.14Zm0,76.54c-19.18,0-34.72-15.55-34.72-34.72S22.78,7.23,41.95,7.23s34.72,15.55,34.72,34.72-15.55,34.72-34.72,34.72h0Z"/>
  <path id="Ring-2" class="cls-1" d="M131.76,.34c-23.09,0-41.81,18.72-41.81,41.81s18.72,41.81,41.81,41.81,41.81-18.72,41.81-41.81S154.85,.34,131.76,.34Zm0,76.54c-19.18,0-34.72-15.55-34.72-34.72S112.57,7.42,131.76,7.42s34.72,15.55,34.72,34.72-15.55,34.72-34.72,34.72v.02Z"/>
</svg>