<?xml version="1.0" encoding="UTF-8"?>
<svg id="CaseHoles" xmlns="http://www.w3.org/2000/svg" width="354.27mm" height="131.6mm" viewBox="0 0 1004.23 373.05">
  <defs>
    <style>
      .cls-1 {
        fill: none;
        stroke: blue;
        stroke-miterlimit: 10;
        stroke-width: .28px;
      }
    </style>
  </defs>
  <g id="CaHole_Full" data-name="CaHole Full">
    <path class="cls-1" d="M1002.45,127.56l-51.04-9,6.59-37.39c.19-1.08-.53-2.11-1.61-2.3l-13.25-2.34V13.31c0-1.1-.89-1.98-1.98-1.98h-113.41V2.12c0-1.1-.89-1.98-1.98-1.98h-86.81c-1.1,0-1.98,.89-1.98,1.98V11.33h-190.52c-1.1,0-1.98,.89-1.98,1.98V274.61l-33.53,33.53c-.77,.77-.77,2.03,0,2.81l61.38,61.38c.77,.77,2.03,.77,2.81,0l35.62-35.62c10.6-9.82,22.04-18.39,33.11-24.78,14.47-8.36,29.97-14.88,44.82-18.86,16.03-4.3,32.67-6.59,48.08-6.65h43.4c1.1,0,1.98-.89,1.98-1.98v-37.01h29.11l25.02,1.75-1.42,8.03c-.19,1.08,.53,2.11,1.61,2.3l85.33,15.05c1.08,.19,2.11-.53,2.3-1.61l2.1-11.91,51.13,9.02c1.08,.19,2.11-.53,2.3-1.61l24.43-138.56c.19-1.08-.53-2.11-1.61-2.3v-.03Zm-57.79-7.43c1.72,0,3.12,1.4,3.12,3.12s-1.4,3.12-3.12,3.12-3.12-1.4-3.12-3.12,1.4-3.12,3.12-3.12ZM821.91,14.05c1.72,0,3.12,1.4,3.12,3.12s-1.4,3.12-3.12,3.12-3.12-1.4-3.12-3.12,1.4-3.12,3.12-3.12Zm-79.22,0c1.72,0,3.12,1.4,3.12,3.12s-1.4,3.12-3.12,3.12-3.12-1.4-3.12-3.12,1.4-3.12,3.12-3.12Zm-140.21,150.51c19.18,0,34.72,15.55,34.72,34.72s-15.55,34.72-34.72,34.72-34.72-15.55-34.72-34.72,15.55-34.72,34.72-34.72Zm-49.08-147.41c1.72,0,3.12,1.4,3.12,3.12s-1.4,3.12-3.12,3.12-3.12-1.4-3.12-3.12,1.4-3.12,3.12-3.12Zm-1.83,65.56c1.72,0,3.12,1.4,3.12,3.12s-1.4,3.12-3.12,3.12-3.12-1.4-3.12-3.12,1.4-3.12,3.12-3.12Zm0,103.29c1.72,0,3.12,1.4,3.12,3.12s-1.4,3.12-3.12,3.12-3.12-1.4-3.12-3.12,1.4-3.12,3.12-3.12Zm-29.5,126.72c-1.72,0-3.12-1.4-3.12-3.12s1.4-3.12,3.12-3.12,3.12,1.4,3.12,3.12-1.4,3.12-3.12,3.12Zm51.66,51.61c-1.72,0-3.12-1.4-3.12-3.12s1.4-3.12,3.12-3.12,3.12,1.4,3.12,3.12-1.4,3.12-3.12,3.12Zm199.59-83.66c-1.72,0-3.12-1.4-3.12-3.12s1.4-3.12,3.12-3.12,3.12,1.4,3.12,3.12-1.4,3.12-3.12,3.12Zm.6-81.74c.78,0,1.42,.63,1.42,1.42s-.63,1.42-1.42,1.42-1.42-.63-1.42-1.42,.63-1.42,1.42-1.42Zm-1.42-4.25c0-.78,.63-1.42,1.42-1.42s1.42,.63,1.42,1.42-.63,1.42-1.42,1.42-1.42-.63-1.42-1.42Zm1.42,9.92c.78,0,1.42,.63,1.42,1.42s-.63,1.42-1.42,1.42-1.42-.63-1.42-1.42,.63-1.42,1.42-1.42Zm0,5.67c.78,0,1.42,.63,1.42,1.42s-.63,1.42-1.42,1.42-1.42-.63-1.42-1.42,.63-1.42,1.42-1.42Zm0,5.67c.78,0,1.42,.63,1.42,1.42s-.63,1.42-1.42,1.42-1.42-.63-1.42-1.42,.63-1.42,1.42-1.42Zm5.67,2.83c-.78,0-1.42-.63-1.42-1.42s.63-1.42,1.42-1.42,1.42,.63,1.42,1.42-.63,1.42-1.42,1.42Zm0-5.67c-.78,0-1.42-.63-1.42-1.42s.63-1.42,1.42-1.42,1.42,.63,1.42,1.42-.63,1.42-1.42,1.42Zm0-5.67c-.78,0-1.42-.63-1.42-1.42s.63-1.42,1.42-1.42,1.42,.63,1.42,1.42-.63,1.42-1.42,1.42Zm0-5.67c-.78,0-1.42-.63-1.42-1.42s.63-1.42,1.42-1.42,1.42,.63,1.42,1.42-.63,1.42-1.42,1.42Zm0-5.67c-.78,0-1.42-.63-1.42-1.42s.63-1.42,1.42-1.42,1.42,.63,1.42,1.42-.63,1.42-1.42,1.42Zm5.67,22.68c-.78,0-1.42-.63-1.42-1.42s.63-1.42,1.42-1.42,1.42,.63,1.42,1.42-.63,1.42-1.42,1.42Zm0-5.67c-.78,0-1.42-.63-1.42-1.42s.63-1.42,1.42-1.42,1.42,.63,1.42,1.42-.63,1.42-1.42,1.42Zm0-5.67c-.78,0-1.42-.63-1.42-1.42s.63-1.42,1.42-1.42,1.42,.63,1.42,1.42-.63,1.42-1.42,1.42Zm0-5.67c-.78,0-1.42-.63-1.42-1.42s.63-1.42,1.42-1.42,1.42,.63,1.42,1.42-.63,1.42-1.42,1.42Zm0-5.67c-.78,0-1.42-.63-1.42-1.42s.63-1.42,1.42-1.42,1.42,.63,1.42,1.42-.63,1.42-1.42,1.42Zm5.67,22.68c-.78,0-1.42-.63-1.42-1.42s.63-1.42,1.42-1.42,1.42,.63,1.42,1.42-.63,1.42-1.42,1.42Zm0-5.67c-.78,0-1.42-.63-1.42-1.42s.63-1.42,1.42-1.42,1.42,.63,1.42,1.42-.63,1.42-1.42,1.42Zm0-5.67c-.78,0-1.42-.63-1.42-1.42s.63-1.42,1.42-1.42,1.42,.63,1.42,1.42-.63,1.42-1.42,1.42Zm0-5.67c-.78,0-1.42-.63-1.42-1.42s.63-1.42,1.42-1.42,1.42,.63,1.42,1.42-.63,1.42-1.42,1.42Zm0-5.67c-.78,0-1.42-.63-1.42-1.42s.63-1.42,1.42-1.42,1.42,.63,1.42,1.42-.63,1.42-1.42,1.42Zm5.67,22.68c-.78,0-1.42-.63-1.42-1.42s.63-1.42,1.42-1.42,1.42,.63,1.42,1.42-.63,1.42-1.42,1.42Zm0-5.67c-.78,0-1.42-.63-1.42-1.42s.63-1.42,1.42-1.42,1.42,.63,1.42,1.42-.63,1.42-1.42,1.42Zm0-5.67c-.78,0-1.42-.63-1.42-1.42s.63-1.42,1.42-1.42,1.42,.63,1.42,1.42-.63,1.42-1.42,1.42Zm0-5.67c-.78,0-1.42-.63-1.42-1.42s.63-1.42,1.42-1.42,1.42,.63,1.42,1.42-.63,1.42-1.42,1.42Zm0-5.67c-.78,0-1.42-.63-1.42-1.42s.63-1.42,1.42-1.42,1.42,.63,1.42,1.42-.63,1.42-1.42,1.42Zm48.27,59.01c-1.72,0-3.12-1.4-3.12-3.12s1.4-3.12,3.12-3.12,3.12,1.4,3.12,3.12-1.4,3.12-3.12,3.12Zm127.24,8.12c-1.72,0-3.12-1.4-3.12-3.12s1.4-3.12,3.12-3.12,3.12,1.4,3.12,3.12-1.4,3.12-3.12,3.12Zm14.27-120.75l-19.1,107.94c-.19,1.08-1.22,1.8-2.3,1.61l-51.22-9.03-2.11,11.98c-.19,1.08-1.22,1.8-2.3,1.61l-54.71-9.65c-1.08-.19-1.8-1.22-1.61-2.3l5.38-30.54-51.58-3.61c-1.09-.08-1.92-1.03-1.84-2.12l1.76-25.16h-48.63v28.2h6.37c1.1,0,1.99,.89,1.99,1.99v55.52c0,1.11-.9,2.01-2.01,2.01h-27.75c-16.67,0-34.71,2.47-52.18,7.15-16.02,4.29-32.79,11.35-48.49,20.42-14.51,8.38-28.9,19.53-41.62,32.24l-19.62,19.63c-.78,.78-2.06,.78-2.84,0l-39.25-39.25c-.78-.78-.78-2.06,0-2.84l19.62-19.63c16.34-16.34,35-30.76,53.95-41.7,12.4-7.16,25.41-13.36,38.47-18.39l.08-177.02c0-1.1,.89-1.98,1.99-1.98h51.86v-6.55c0-1.1,.89-1.99,1.99-1.99h51.93V17.52c0-1.1,.89-1.99,1.99-1.99h55.56c1.1,0,1.99,.89,1.99,1.99v25.26l61.82,4.32c1.09,.08,1.92,1.02,1.84,2.12l-5.46,78.9c-.14,2.05,2.86,2.41,3.21,.39l7.91-45.09c.19-1.08,1.22-1.8,2.3-1.61l54.71,9.65c1.08,.19,1.8,1.22,1.61,2.3l-6.59,37.36,51.29,9.04c1.08,.19,1.8,1.22,1.61,2.3h-.02Z"/>
  </g>
  <g id="CaHole_Full-2" data-name="CaHole Full">
    <path class="cls-1" d="M1.78,127.59c-1.08,.19-1.8,1.22-1.61,2.3l24.43,138.56c.19,1.08,1.22,1.8,2.3,1.61l51.13-9.02,2.1,11.91c.19,1.08,1.22,1.8,2.3,1.61l85.33-15.05c1.08-.19,1.8-1.22,1.61-2.3l-1.42-8.03,25.02-1.75h29.11v37.01c0,1.09,.88,1.98,1.98,1.98h43.4c15.41,.06,32.05,2.35,48.08,6.65,14.85,3.98,30.35,10.5,44.82,18.86,11.07,6.39,22.51,14.96,33.11,24.78l35.62,35.62c.78,.77,2.04,.77,2.81,0l61.38-61.38c.77-.78,.77-2.04,0-2.81l-33.53-33.53V13.31c0-1.09-.88-1.98-1.98-1.98h-190.52V2.12c0-1.09-.88-1.98-1.98-1.98h-86.81c-1.09,0-1.98,.88-1.98,1.98V11.33H63.07c-1.09,0-1.98,.88-1.98,1.98v63.22l-13.25,2.34c-1.08,.19-1.8,1.22-1.61,2.3l6.59,37.39L1.78,127.56v.03Zm60.91-4.34c0,1.72-1.4,3.12-3.12,3.12s-3.12-1.4-3.12-3.12,1.4-3.12,3.12-3.12,3.12,1.4,3.12,3.12ZM185.44,17.17c0,1.72-1.4,3.12-3.12,3.12s-3.12-1.4-3.12-3.12,1.4-3.12,3.12-3.12,3.12,1.4,3.12,3.12Zm79.22,0c0,1.72-1.4,3.12-3.12,3.12s-3.12-1.4-3.12-3.12,1.4-3.12,3.12-3.12,3.12,1.4,3.12,3.12Zm171.81,182.11c0,19.17-15.55,34.72-34.72,34.72-19.17,0-34.72-15.55-34.72-34.72s15.54-34.72,34.72-34.72,34.72,15.55,34.72,34.72Zm17.48-179.01c0,1.72-1.4,3.12-3.12,3.12s-3.12-1.4-3.12-3.12,1.4-3.12,3.12-3.12,3.12,1.4,3.12,3.12Zm1.83,65.56c0,1.72-1.4,3.12-3.12,3.12s-3.12-1.4-3.12-3.12,1.4-3.12,3.12-3.12,3.12,1.4,3.12,3.12Zm0,103.29c0,1.72-1.4,3.12-3.12,3.12s-3.12-1.4-3.12-3.12,1.4-3.12,3.12-3.12,3.12,1.4,3.12,3.12Zm23.26,120.48c0-1.72,1.4-3.12,3.12-3.12s3.12,1.4,3.12,3.12-1.4,3.12-3.12,3.12-3.12-1.4-3.12-3.12Zm-51.66,51.61c0-1.72,1.4-3.12,3.12-3.12s3.12,1.4,3.12,3.12-1.4,3.12-3.12,3.12-3.12-1.4-3.12-3.12Zm-199.59-83.66c0-1.72,1.4-3.12,3.12-3.12s3.12,1.4,3.12,3.12-1.4,3.12-3.12,3.12-3.12-1.4-3.12-3.12Zm3.94-77.2c0,.79-.63,1.42-1.42,1.42s-1.42-.63-1.42-1.42,.64-1.42,1.42-1.42,1.42,.63,1.42,1.42Zm-1.42-4.25c-.79,0-1.42-.63-1.42-1.42,0-.79,.63-1.42,1.42-1.42s1.42,.64,1.42,1.42-.63,1.42-1.42,1.42Zm1.42,9.92c0,.79-.63,1.42-1.42,1.42s-1.42-.63-1.42-1.42,.64-1.42,1.42-1.42,1.42,.63,1.42,1.42Zm0,5.67c0,.79-.63,1.42-1.42,1.42s-1.42-.63-1.42-1.42,.64-1.42,1.42-1.42,1.42,.63,1.42,1.42Zm0,5.67c0,.79-.63,1.42-1.42,1.42s-1.42-.63-1.42-1.42,.64-1.42,1.42-1.42,1.42,.63,1.42,1.42Zm-8.51-.01c0-.79,.63-1.42,1.42-1.42s1.42,.63,1.42,1.42c0,.79-.64,1.42-1.42,1.42s-1.42-.63-1.42-1.42Zm0-5.67c0-.79,.63-1.42,1.42-1.42s1.42,.63,1.42,1.42c0,.79-.64,1.42-1.42,1.42s-1.42-.63-1.42-1.42Zm0-5.67c0-.79,.63-1.42,1.42-1.42s1.42,.63,1.42,1.42c0,.79-.64,1.42-1.42,1.42s-1.42-.63-1.42-1.42Zm0-5.67c0-.79,.63-1.42,1.42-1.42s1.42,.63,1.42,1.42c0,.79-.64,1.42-1.42,1.42s-1.42-.63-1.42-1.42Zm0-5.67c0-.79,.63-1.42,1.42-1.42s1.42,.63,1.42,1.42c0,.79-.64,1.42-1.42,1.42s-1.42-.63-1.42-1.42Zm-5.67,22.68c0-.79,.63-1.42,1.42-1.42s1.42,.63,1.42,1.42c0,.79-.64,1.42-1.42,1.42s-1.42-.63-1.42-1.42Zm0-5.67c0-.79,.63-1.42,1.42-1.42s1.42,.63,1.42,1.42c0,.79-.64,1.42-1.42,1.42s-1.42-.63-1.42-1.42Zm0-5.67c0-.79,.63-1.42,1.42-1.42s1.42,.63,1.42,1.42c0,.79-.64,1.42-1.42,1.42s-1.42-.63-1.42-1.42Zm0-5.67c0-.79,.63-1.42,1.42-1.42s1.42,.63,1.42,1.42c0,.79-.64,1.42-1.42,1.42s-1.42-.63-1.42-1.42Zm0-5.67c0-.79,.63-1.42,1.42-1.42s1.42,.63,1.42,1.42c0,.79-.64,1.42-1.42,1.42s-1.42-.63-1.42-1.42Zm-5.67,22.68c0-.79,.63-1.42,1.42-1.42s1.42,.63,1.42,1.42c0,.79-.64,1.42-1.42,1.42s-1.42-.63-1.42-1.42Zm0-5.67c0-.79,.63-1.42,1.42-1.42s1.42,.63,1.42,1.42c0,.79-.64,1.42-1.42,1.42s-1.42-.63-1.42-1.42Zm0-5.67c0-.79,.63-1.42,1.42-1.42s1.42,.63,1.42,1.42c0,.79-.64,1.42-1.42,1.42s-1.42-.63-1.42-1.42Zm0-5.67c0-.79,.63-1.42,1.42-1.42s1.42,.63,1.42,1.42c0,.79-.64,1.42-1.42,1.42s-1.42-.63-1.42-1.42Zm0-5.67c0-.79,.63-1.42,1.42-1.42s1.42,.63,1.42,1.42c0,.79-.64,1.42-1.42,1.42s-1.42-.63-1.42-1.42Zm-5.67,22.68c0-.79,.63-1.42,1.42-1.42s1.42,.63,1.42,1.42c0,.79-.64,1.42-1.42,1.42s-1.42-.63-1.42-1.42Zm0-5.67c0-.79,.63-1.42,1.42-1.42s1.42,.63,1.42,1.42c0,.79-.64,1.42-1.42,1.42s-1.42-.63-1.42-1.42Zm0-5.67c0-.79,.63-1.42,1.42-1.42s1.42,.63,1.42,1.42c0,.79-.64,1.42-1.42,1.42s-1.42-.63-1.42-1.42Zm0-5.67c0-.79,.63-1.42,1.42-1.42s1.42,.63,1.42,1.42c0,.79-.64,1.42-1.42,1.42s-1.42-.63-1.42-1.42Zm0-5.67c0-.79,.63-1.42,1.42-1.42s1.42,.63,1.42,1.42c0,.79-.64,1.42-1.42,1.42s-1.42-.63-1.42-1.42Zm-49.97,57.31c0-1.72,1.4-3.12,3.12-3.12s3.12,1.4,3.12,3.12-1.4,3.12-3.12,3.12-3.12-1.4-3.12-3.12Zm-127.24,8.12c0-1.72,1.4-3.12,3.12-3.12s3.12,1.4,3.12,3.12-1.4,3.12-3.12,3.12-3.12-1.4-3.12-3.12Zm-11.17-117.64c-.19-1.08,.53-2.11,1.61-2.3l51.29-9.04-6.59-37.36c-.19-1.08,.53-2.11,1.61-2.3l54.71-9.65c1.08-.19,2.11,.53,2.3,1.61l7.91,45.09c.35,2.02,3.35,1.66,3.21-.39l-5.46-78.9c-.08-1.1,.75-2.04,1.84-2.12l61.82-4.32V17.52c0-1.1,.89-1.99,1.99-1.99h55.56c1.1,0,1.99,.89,1.99,1.99v23.49h51.93c1.1,0,1.99,.89,1.99,1.99v6.55h51.86c1.1,0,1.99,.88,1.99,1.98l.08,177.02c13.06,5.03,26.07,11.23,38.47,18.39,18.95,10.94,37.61,25.36,53.95,41.7l19.62,19.63c.78,.78,.78,2.06,0,2.84l-39.25,39.25c-.78,.78-2.06,.78-2.84,0l-19.62-19.63c-12.72-12.71-27.11-23.86-41.62-32.24-15.7-9.07-32.47-16.13-48.49-20.42-17.47-4.68-35.51-7.15-52.18-7.15h-27.75c-1.11,0-2.01-.9-2.01-2.01v-55.52c0-1.1,.89-1.99,1.99-1.99h6.37v-28.2h-48.63l1.76,25.16c.08,1.09-.75,2.04-1.84,2.12l-51.58,3.61,5.38,30.54c.19,1.08-.53,2.11-1.61,2.3l-54.71,9.65c-1.08,.19-2.11-.53-2.3-1.61l-2.11-11.98-51.22,9.03c-1.08,.19-2.11-.53-2.3-1.61l-19.1-107.94h-.02Z"/>
  </g>
</svg>