<?xml version="1.0" encoding="UTF-8"?>
<svg id="PCB_holes" data-name="PCB holes" xmlns="http://www.w3.org/2000/svg" width="338.02mm" height="131.6mm" viewBox="0 0 958.17 373.04">
  <defs>
    <style>
      .cls-1 {
        fill: none;
        stroke: blue;
        stroke-miterlimit: 10;
        stroke-width: .28px;
      }
    </style>
  </defs>
  <g id="Acrylcase">
    <path class="cls-1" d="M956.37,78.86l-6.75-1.19V13.3c0-1.1-.89-1.98-1.98-1.98h-119.91V2.12c0-1.1-.89-1.98-1.98-1.98h-86.81c-1.1,0-1.98,.89-1.98,1.98V11.33h-101.33V125.12h-58.06V11.33h-31.11c-1.1,0-1.98,.89-1.98,1.98V194.77l14.74,14.74h11.85v17.33h25.77v25.94h-37.61l-14.74,15.8v6.02l-33.54,33.54c-.77,.77-.77,2.03,0,2.81l61.38,61.37c.77,.77,2.03,.77,2.81,0l35.63-35.62c8.71-8.08,17.77-15.15,26.92-21.01l.55-.28,.6-.45c1.27-.8,2.48-1.54,3.68-2.25l.23-.14c.19-.12,.38-.22,.62-.37l.5-.29c14.48-8.37,29.98-14.89,44.82-18.86,16.02-4.29,32.66-6.59,48.07-6.65h43.41c1.1,0,1.98-.89,1.98-1.98v-37.02h29.11l25.02,1.75-1.42,8.03c-.19,1.08,.53,2.11,1.61,2.3l85.32,15.04c1.08,.19,2.11-.53,2.3-1.61l2.93-16.61h20.64c1.1,0,1.98-.89,1.98-1.98v-125.78l8.36-47.37c.19-1.08-.53-2.11-1.61-2.3h-.02Zm-434.32,233.82c-1.72,0-3.12-1.4-3.12-3.12s1.4-3.12,3.12-3.12,3.12,1.4,3.12,3.12-1.4,3.12-3.12,3.12Zm45.39-50.28c-1.64,0-2.98-1.33-2.98-2.98s1.33-2.98,2.98-2.98,2.98,1.33,2.98,2.98-1.33,2.98-2.98,2.98Zm6.28,101.89c-1.72,0-3.12-1.4-3.12-3.12s1.4-3.12,3.12-3.12,3.12,1.4,3.12,3.12-1.4,3.12-3.12,3.12Zm-6.28-333c1.64,0,2.98,1.33,2.98,2.98s-1.33,2.98-2.98,2.98-2.98-1.33-2.98-2.98,1.33-2.98,2.98-2.98Zm-15.89,160.91c-1.72,0-3.12-1.4-3.12-3.12s1.4-3.12,3.12-3.12,3.12,1.4,3.12,3.12-1.4,3.12-3.12,3.12Zm1.83-168.85c-1.72,0-3.12-1.4-3.12-3.12s1.4-3.12,3.12-3.12,3.12,1.4,3.12,3.12-1.4,3.12-3.12,3.12Zm189.29-9.33c1.72,0,3.12,1.4,3.12,3.12s-1.4,3.12-3.12,3.12-3.12-1.4-3.12-3.12,1.4-3.12,3.12-3.12Zm.71,23.34c-1.64,0-2.98-1.33-2.98-2.98s1.33-2.98,2.98-2.98,2.98,1.33,2.98,2.98-1.33,2.98-2.98,2.98Zm29.92,243.27c-1.72,0-3.12-1.4-3.12-3.12s1.4-3.12,3.12-3.12,3.12,1.4,3.12,3.12-1.4,3.12-3.12,3.12Zm32.19-151.74c-1.64,0-2.98-1.33-2.98-2.98s1.33-2.98,2.98-2.98,2.98,1.33,2.98,2.98-1.33,2.98-2.98,2.98Zm13.28-111.75c0-1.72,1.4-3.12,3.12-3.12s3.12,1.4,3.12,3.12-1.4,3.12-3.12,3.12-3.12-1.4-3.12-3.12Zm6.13,20.1c-1.64,0-2.98-1.33-2.98-2.98s1.33-2.98,2.98-2.98,2.98,1.33,2.98,2.98-1.33,2.98-2.98,2.98Zm19.94,217.82c-1.72,0-3.12-1.4-3.12-3.12s1.4-3.12,3.12-3.12,3.12,1.4,3.12,3.12-1.4,3.12-3.12,3.12Zm1.06-28.6c-1.64,0-2.98-1.33-2.98-2.98s1.33-2.98,2.98-2.98,2.98,1.33,2.98,2.98-1.33,2.98-2.98,2.98ZM940.77,23.34c-1.72,0-3.12-1.4-3.12-3.12s1.4-3.12,3.12-3.12,3.12,1.4,3.12,3.12-1.4,3.12-3.12,3.12Z"/>
  </g>
  <g id="Acrylcase-2" data-name="Acrylcase">
    <path class="cls-1" d="M1.78,78.87c-1.08,.19-1.8,1.22-1.61,2.3l8.36,47.37v125.78c0,1.09,.88,1.98,1.98,1.98H31.15l2.93,16.61c.19,1.08,1.22,1.8,2.3,1.61l85.32-15.04c1.08-.19,1.8-1.22,1.61-2.3l-1.42-8.03,25.02-1.75h29.11v37.02c0,1.09,.88,1.98,1.98,1.98h43.41c15.41,.06,32.05,2.36,48.07,6.65,14.84,3.97,30.34,10.49,44.82,18.86l.5,.29c.24,.15,.43,.25,.62,.37l.23,.14c1.2,.71,2.41,1.45,3.68,2.25l.6,.45,.55,.28c9.15,5.86,18.21,12.93,26.92,21.01l35.63,35.62c.78,.77,2.04,.77,2.81,0l61.38-61.37c.77-.78,.77-2.04,0-2.81l-33.54-33.54v-6.02l-14.74-15.8h-37.61v-25.94h25.77v-17.33h11.85l14.74-14.74V13.31c0-1.09-.88-1.98-1.98-1.98h-31.11V125.12h-58.06V11.33h-101.33V2.12c0-1.09-.88-1.98-1.98-1.98h-86.81c-1.09,0-1.98,.88-1.98,1.98V11.32H10.53c-1.09,0-1.98,.88-1.98,1.98V77.67l-6.75,1.19h-.02Zm431.22,230.71c0-1.72,1.4-3.12,3.12-3.12s3.12,1.4,3.12,3.12-1.4,3.12-3.12,3.12-3.12-1.4-3.12-3.12Zm-45.25-50.14c0-1.65,1.33-2.98,2.98-2.98s2.98,1.33,2.98,2.98-1.34,2.98-2.98,2.98-2.98-1.33-2.98-2.98Zm-6.42,101.75c0-1.72,1.4-3.12,3.12-3.12s3.12,1.4,3.12,3.12-1.4,3.12-3.12,3.12-3.12-1.4-3.12-3.12Zm12.38-326.9c0,1.65-1.33,2.98-2.98,2.98s-2.98-1.33-2.98-2.98,1.34-2.98,2.98-2.98,2.98,1.33,2.98,2.98Zm9.79,154.81c0-1.72,1.4-3.12,3.12-3.12s3.12,1.4,3.12,3.12-1.4,3.12-3.12,3.12-3.12-1.4-3.12-3.12Zm-1.83-168.85c0-1.72,1.4-3.12,3.12-3.12s3.12,1.4,3.12,3.12-1.4,3.12-3.12,3.12-3.12-1.4-3.12-3.12Zm-183.05-3.09c0,1.72-1.4,3.12-3.12,3.12s-3.12-1.4-3.12-3.12,1.4-3.12,3.12-3.12,3.12,1.4,3.12,3.12Zm-6.81,17.24c0-1.65,1.33-2.98,2.98-2.98s2.98,1.33,2.98,2.98-1.34,2.98-2.98,2.98-2.98-1.33-2.98-2.98Zm-30.06,243.13c0-1.72,1.4-3.12,3.12-3.12s3.12,1.4,3.12,3.12-1.4,3.12-3.12,3.12-3.12-1.4-3.12-3.12Zm-32.05-151.6c0-1.65,1.33-2.98,2.98-2.98s2.98,1.33,2.98,2.98-1.34,2.98-2.98,2.98-2.98-1.33-2.98-2.98Zm-13.42-105.65c-1.72,0-3.12-1.4-3.12-3.12s1.4-3.12,3.12-3.12,3.12,1.4,3.12,3.12-1.4,3.12-3.12,3.12Zm-5.99,14c0-1.65,1.33-2.98,2.98-2.98s2.98,1.33,2.98,2.98-1.34,2.98-2.98,2.98-2.98-1.33-2.98-2.98Zm-20.08,217.68c0-1.72,1.4-3.12,3.12-3.12s3.12,1.4,3.12,3.12-1.4,3.12-3.12,3.12-3.12-1.4-3.12-3.12Zm-.92-28.46c0-1.65,1.33-2.98,2.98-2.98s2.98,1.33,2.98,2.98-1.34,2.98-2.98,2.98-2.98-1.33-2.98-2.98ZM14.28,20.22c0-1.72,1.4-3.12,3.12-3.12s3.12,1.4,3.12,3.12-1.4,3.12-3.12,3.12-3.12-1.4-3.12-3.12Z"/>
  </g>
</svg>