  0
SECTION
  2
HEADER
  9
$ACADVER
  1
AC1032
  9
$ACADMAINTVER
 90
      228
  9
$DWGCODEPAGE
  3
ANSI_1252
  9
$REQUIREDVERSIONS
160
                 0
  9
$INSBASE
 10
0.0
 20
0.0
 30
0.0
  9
$EXTMIN
 10
1.000000000000000E+20
 20
1.000000000000000E+20
 30
1.000000000000000E+20
  9
$EXTMAX
 10
-1.000000000000000E+20
 20
-1.000000000000000E+20
 30
-1.000000000000000E+20
  9
$LIMMIN
 10
0.0
 20
0.0
  9
$LIMMAX
 10
12.0
 20
9.0
  9
$ORTHOMODE
 70
     0
  9
$REGENMODE
 70
     1
  9
$FILLMODE
 70
     1
  9
$QTEXTMODE
 70
     0
  9
$MIRRTEXT
 70
     0
  9
$LTSCALE
 40
1.0
  9
$ATTMODE
 70
     1
  9
$TEXTSIZE
 40
0.2
  9
$TRACEWID
 40
0.05
  9
$TEXTSTYLE
  7
Standard
  9
$CLAYER
  8
0
  9
$CELTYPE
  6
ByLayer
  9
$CECOLOR
 62
   256
  9
$CELTSCALE
 40
1.0
  9
$DISPSILH
 70
     0
  9
$DIMSCALE
 40
1.0
  9
$DIMASZ
 40
0.18
  9
$DIMEXO
 40
0.0625
  9
$DIMDLI
 40
0.38
  9
$DIMRND
 40
0.0
  9
$DIMDLE
 40
0.0
  9
$DIMEXE
 40
0.18
  9
$DIMTP
 40
0.0
  9
$DIMTM
 40
0.0
  9
$DIMTXT
 40
0.18
  9
$DIMCEN
 40
0.09
  9
$DIMTSZ
 40
0.0
  9
$DIMTOL
 70
     0
  9
$DIMLIM
 70
     0
  9
$DIMTIH
 70
     1
  9
$DIMTOH
 70
     1
  9
$DIMSE1
 70
     0
  9
$DIMSE2
 70
     0
  9
$DIMTAD
 70
     0
  9
$DIMZIN
 70
     0
  9
$DIMBLK
  1

  9
$DIMASO
 70
     1
  9
$DIMSHO
 70
     1
  9
$DIMPOST
  1

  9
$DIMAPOST
  1

  9
$DIMALT
 70
     0
  9
$DIMALTD
 70
     2
  9
$DIMALTF
 40
25.4
  9
$DIMLFAC
 40
1.0
  9
$DIMTOFL
 70
     0
  9
$DIMTVP
 40
0.0
  9
$DIMTIX
 70
     0
  9
$DIMSOXD
 70
     0
  9
$DIMSAH
 70
     0
  9
$DIMBLK1
  1

  9
$DIMBLK2
  1

  9
$DIMSTYLE
  2
Standard
  9
$DIMCLRD
 70
     0
  9
$DIMCLRE
 70
     0
  9
$DIMCLRT
 70
     0
  9
$DIMTFAC
 40
1.0
  9
$DIMGAP
 40
0.09
  9
$DIMJUST
 70
     0
  9
$DIMSD1
 70
     0
  9
$DIMSD2
 70
     0
  9
$DIMTOLJ
 70
     1
  9
$DIMTZIN
 70
     0
  9
$DIMALTZ
 70
     0
  9
$DIMALTTZ
 70
     0
  9
$DIMUPT
 70
     0
  9
$DIMDEC
 70
     4
  9
$DIMTDEC
 70
     4
  9
$DIMALTU
 70
     2
  9
$DIMALTTD
 70
     2
  9
$DIMTXSTY
  7
Standard
  9
$DIMAUNIT
 70
     0
  9
$DIMADEC
 70
     0
  9
$DIMALTRND
 40
0.0
  9
$DIMAZIN
 70
     0
  9
$DIMDSEP
 70
    46
  9
$DIMATFIT
 70
     3
  9
$DIMFRAC
 70
     0
  9
$DIMLDRBLK
  1

  9
$DIMLUNIT
 70
     2
  9
$DIMLWD
 70
    -2
  9
$DIMLWE
 70
    -2
  9
$DIMTMOVE
 70
     0
  9
$DIMFXL
 40
1.0
  9
$DIMFXLON
 70
     0
  9
$DIMJOGANG
 40
0.7853981633974483
  9
$DIMTFILL
 70
     0
  9
$DIMTFILLCLR
 70
     0
  9
$DIMARCSYM
 70
     0
  9
$DIMLTYPE
  6

  9
$DIMLTEX1
  6

  9
$DIMLTEX2
  6

  9
$DIMTXTDIRECTION
 70
     0
  9
$LUNITS
 70
     2
  9
$LUPREC
 70
     4
  9
$SKETCHINC
 40
0.1
  9
$FILLETRAD
 40
0.0
  9
$AUNITS
 70
     0
  9
$AUPREC
 70
     0
  9
$MENU
  1
.
  9
$ELEVATION
 40
0.0
  9
$PELEVATION
 40
0.0
  9
$THICKNESS
 40
0.0
  9
$LIMCHECK
 70
     0
  9
$CHAMFERA
 40
0.0
  9
$CHAMFERB
 40
0.0
  9
$CHAMFERC
 40
0.0
  9
$CHAMFERD
 40
0.0
  9
$SKPOLY
 70
     0
  9
$TDCREATE
 40
2459814.965358796
  9
$TDUCREATE
 40
2459814.882025463
  9
$TDUPDATE
 40
2459814.965358796
  9
$TDUUPDATE
 40
2459814.882025463
  9
$TDINDWG
 40
0.0000000000
  9
$TDUSRTIMER
 40
0.0000000000
  9
$USRTIMER
 70
     1
  9
$ANGBASE
 50
0.0
  9
$ANGDIR
 70
     0
  9
$PDMODE
 70
     0
  9
$PDSIZE
 40
0.0
  9
$PLINEWID
 40
0.0
  9
$SPLFRAME
 70
     0
  9
$SPLINETYPE
 70
     6
  9
$SPLINESEGS
 70
     8
  9
$HANDSEED
  5
E2
  9
$SURFTAB1
 70
     6
  9
$SURFTAB2
 70
     6
  9
$SURFTYPE
 70
     6
  9
$SURFU
 70
     6
  9
$SURFV
 70
     6
  9
$UCSBASE
  2

  9
$UCSNAME
  2

  9
$UCSORG
 10
0.0
 20
0.0
 30
0.0
  9
$UCSXDIR
 10
1.0
 20
0.0
 30
0.0
  9
$UCSYDIR
 10
0.0
 20
1.0
 30
0.0
  9
$UCSORTHOREF
  2

  9
$UCSORTHOVIEW
 70
     0
  9
$UCSORGTOP
 10
0.0
 20
0.0
 30
0.0
  9
$UCSORGBOTTOM
 10
0.0
 20
0.0
 30
0.0
  9
$UCSORGLEFT
 10
0.0
 20
0.0
 30
0.0
  9
$UCSORGRIGHT
 10
0.0
 20
0.0
 30
0.0
  9
$UCSORGFRONT
 10
0.0
 20
0.0
 30
0.0
  9
$UCSORGBACK
 10
0.0
 20
0.0
 30
0.0
  9
$PUCSBASE
  2

  9
$PUCSNAME
  2

  9
$PUCSORG
 10
0.0
 20
0.0
 30
0.0
  9
$PUCSXDIR
 10
1.0
 20
0.0
 30
0.0
  9
$PUCSYDIR
 10
0.0
 20
1.0
 30
0.0
  9
$PUCSORTHOREF
  2

  9
$PUCSORTHOVIEW
 70
     0
  9
$PUCSORGTOP
 10
0.0
 20
0.0
 30
0.0
  9
$PUCSORGBOTTOM
 10
0.0
 20
0.0
 30
0.0
  9
$PUCSORGLEFT
 10
0.0
 20
0.0
 30
0.0
  9
$PUCSORGRIGHT
 10
0.0
 20
0.0
 30
0.0
  9
$PUCSORGFRONT
 10
0.0
 20
0.0
 30
0.0
  9
$PUCSORGBACK
 10
0.0
 20
0.0
 30
0.0
  9
$USERI1
 70
     0
  9
$USERI2
 70
     0
  9
$USERI3
 70
     0
  9
$USERI4
 70
     0
  9
$USERI5
 70
     0
  9
$USERR1
 40
0.0
  9
$USERR2
 40
0.0
  9
$USERR3
 40
0.0
  9
$USERR4
 40
0.0
  9
$USERR5
 40
0.0
  9
$WORLDVIEW
 70
     1
  9
$SHADEDGE
 70
     3
  9
$SHADEDIF
 70
    70
  9
$TILEMODE
 70
     1
  9
$MAXACTVP
 70
    64
  9
$PINSBASE
 10
0.0
 20
0.0
 30
0.0
  9
$PLIMCHECK
 70
     0
  9
$PEXTMIN
 10
1.000000000000000E+20
 20
1.000000000000000E+20
 30
1.000000000000000E+20
  9
$PEXTMAX
 10
-1.000000000000000E+20
 20
-1.000000000000000E+20
 30
-1.000000000000000E+20
  9
$PLIMMIN
 10
0.0
 20
0.0
  9
$PLIMMAX
 10
12.0
 20
9.0
  9
$UNITMODE
 70
     0
  9
$VISRETAIN
 70
     1
  9
$PLINEGEN
 70
     0
  9
$PSLTSCALE
 70
     1
  9
$TREEDEPTH
 70
  3020
  9
$CMLSTYLE
  2
Standard
  9
$CMLJUST
 70
     0
  9
$CMLSCALE
 40
1.0
  9
$PROXYGRAPHICS
 70
     1
  9
$MEASUREMENT
 70
     0
  9
$CELWEIGHT
370
    -1
  9
$ENDCAPS
280
     0
  9
$JOINSTYLE
280
     0
  9
$LWDISPLAY
290
     1
  9
$INSUNITS
 70
     4
  9
$HYPERLINKBASE
  1

  9
$STYLESHEET
  1

  9
$XEDIT
290
     1
  9
$CEPSNTYPE
380
     0
  9
$PSTYLEMODE
290
     1
  9
$FINGERPRINTGUID
  2
{6F3E2EE8-1221-7D48-B0CC-8953C992AFE6}
  9
$VERSIONGUID
  2
{46B0739F-335E-1F4C-9FF2-22618D59DEEC}
  9
$EXTNAMES
290
     1
  9
$PSVPSCALE
 40
0.0
  9
$OLESTARTUP
290
     0
  9
$SORTENTS
280
   127
  9
$INDEXCTL
280
     0
  9
$HIDETEXT
280
     1
  9
$XCLIPFRAME
280
     2
  9
$HALOGAP
280
     0
  9
$OBSCOLOR
 70
   257
  9
$OBSLTYPE
280
     0
  9
$INTERSECTIONDISPLAY
280
     0
  9
$INTERSECTIONCOLOR
 70
   257
  9
$DIMASSOC
280
     2
  9
$PROJECTNAME
  1

  9
$CAMERADISPLAY
290
     0
  9
$LENSLENGTH
 40
50.0
  9
$CAMERAHEIGHT
 40
0.0
  9
$STEPSPERSEC
 40
2.0
  9
$STEPSIZE
 40
6.0
  9
$3DDWFPREC
 40
2.0
  9
$PSOLWIDTH
 40
0.25
  9
$PSOLHEIGHT
 40
4.0
  9
$LOFTANG1
 40
1.570796326794896
  9
$LOFTANG2
 40
1.570796326794896
  9
$LOFTMAG1
 40
0.0
  9
$LOFTMAG2
 40
0.0
  9
$LOFTPARAM
 70
     7
  9
$LOFTNORMALS
280
     1
  9
$LATITUDE
 40
37.795
  9
$LONGITUDE
 40
-122.394
  9
$NORTHDIRECTION
 40
0.0
  9
$TIMEZONE
 70
 -8000
  9
$LIGHTGLYPHDISPLAY
280
     1
  9
$TILEMODELIGHTSYNCH
280
     1
  9
$CMATERIAL
347
11
  9
$SOLIDHIST
280
     0
  9
$SHOWHIST
280
     1
  9
$DWFFRAME
280
     2
  9
$DGNFRAME
280
     0
  9
$REALWORLDSCALE
290
     1
  9
$INTERFERECOLOR
 62
     1
  9
$INTERFEREOBJVS
345
33
  9
$INTERFEREVPVS
346
30
  9
$CSHADOW
280
     0
  9
$SHADOWPLANELOCATION
 40
0.0
  0
ENDSEC
  0
SECTION
  2
CLASSES
  0
CLASS
  1
ACDBDICTIONARYWDFLT
  2
AcDbDictionaryWithDefault
  3
ObjectDBX Classes
 90
        0
 91
        1
280
     0
281
     0
  0
CLASS
  1
MATERIAL
  2
AcDbMaterial
  3
ObjectDBX Classes
 90
     1153
 91
        3
280
     0
281
     0
  0
CLASS
  1
VISUALSTYLE
  2
AcDbVisualStyle
  3
ObjectDBX Classes
 90
     4095
 91
       24
280
     0
281
     0
  0
CLASS
  1
SCALE
  2
AcDbScale
  3
ObjectDBX Classes
 90
     1153
 91
       17
280
     0
281
     0
  0
CLASS
  1
TABLESTYLE
  2
AcDbTableStyle
  3
ObjectDBX Classes
 90
     4095
 91
        1
280
     0
281
     0
  0
CLASS
  1
MLEADERSTYLE
  2
AcDbMLeaderStyle
  3
ACDB_MLEADERSTYLE_CLASS
 90
     4095
 91
        1
280
     0
281
     0
  0
CLASS
  1
ACDBSECTIONVIEWSTYLE
  2
AcDbSectionViewStyle
  3
ObjectDBX Classes
 90
     1025
 91
        1
280
     0
281
     0
  0
CLASS
  1
ACDBDETAILVIEWSTYLE
  2
AcDbDetailViewStyle
  3
ObjectDBX Classes
 90
     1025
 91
        1
280
     0
281
     0
  0
CLASS
  1
DICTIONARYVAR
  2
AcDbDictionaryVar
  3
ObjectDBX Classes
 90
        0
 91
        5
280
     0
281
     0
  0
CLASS
  1
CELLSTYLEMAP
  2
AcDbCellStyleMap
  3
ObjectDBX Classes
 90
     1152
 91
        1
280
     0
281
     0
  0
ENDSEC
  0
SECTION
  2
TABLES
  0
TABLE
  2
VPORT
  5
8
330
0
100
AcDbSymbolTable
 70
     1
  0
VPORT
  5
57
330
8
100
AcDbSymbolTableRecord
100
AcDbViewportTableRecord
  2
*Active
 70
     0
 10
0.0
 20
0.0
 11
1.0
 21
1.0
 12
0.0
 22
0.0
 13
0.0
 23
0.0
 14
1.0
 24
1.0
 15
0.0
 25
0.0
 16
0.0
 26
0.0
 36
1.0
 17
94.08006916790657
 27
49.77499795305121
 37
0.0
 40
101.5409958242244
 41
1.890106942943442
 42
50.0
 43
0.0
 44
0.0
 50
0.0
 51
0.0
 71
     0
 72
   100
 73
     1
 74
     1
 75
     0
 76
     0
 77
     0
 78
     0
281
     0
 65
     1
110
0.0
120
0.0
130
0.0
111
1.0
121
0.0
131
0.0
112
0.0
122
1.0
132
0.0
 79
     0
146
0.0
 60
     3
 61
     5
292
     1
282
     1
141
0.0
142
0.0
 63
   250
421
  3355443
  0
ENDTAB
  0
TABLE
  2
LTYPE
  5
5
330
0
100
AcDbSymbolTable
 70
     1
  0
LTYPE
  5
5B
330
5
100
AcDbSymbolTableRecord
100
AcDbLinetypeTableRecord
  2
ByBlock
 70
     0
  3

 72
    65
 73
     0
 40
0.0
  0
LTYPE
  5
5C
330
5
100
AcDbSymbolTableRecord
100
AcDbLinetypeTableRecord
  2
ByLayer
 70
     0
  3

 72
    65
 73
     0
 40
0.0
  0
LTYPE
  5
5D
330
5
100
AcDbSymbolTableRecord
100
AcDbLinetypeTableRecord
  2
Continuous
 70
     0
  3
Solid line
 72
    65
 73
     0
 40
0.0
  0
ENDTAB
  0
TABLE
  2
LAYER
  5
2
330
0
100
AcDbSymbolTable
 70
     2
  0
LAYER
  5
54
330
2
100
AcDbSymbolTableRecord
100
AcDbLayerTableRecord
  2
0
 70
     0
 62
     7
  6
Continuous
370
    -3
390
F
347
21
348
0
  0
LAYER
  5
78
330
2
100
AcDbSymbolTableRecord
100
AcDbLayerTableRecord
  2
Ebene 1
 70
     0
 62
     7
  6
Continuous
370
     0
390
F
347
21
348
0
  0
ENDTAB
  0
TABLE
  2
STYLE
  5
3
330
0
100
AcDbSymbolTable
 70
     2
  0
STYLE
  5
55
330
3
100
AcDbSymbolTableRecord
100
AcDbTextStyleTableRecord
  2
Standard
 70
     0
 40
0.0
 41
1.0
 50
0.0
 71
     0
 42
0.2
  3
txt
  4

  0
STYLE
  5
5A
330
3
100
AcDbSymbolTableRecord
100
AcDbTextStyleTableRecord
  2
Annotative
 70
     0
 40
0.0
 41
1.0
 50
0.0
 71
     0
 42
0.2
  3
txt
  4

1001
AcadAnnotative
1000
AnnotativeData
1002
{
1070
     1
1070
     1
1002
}
  0
ENDTAB
  0
TABLE
  2
VIEW
  5
6
330
0
100
AcDbSymbolTable
 70
     0
  0
ENDTAB
  0
TABLE
  2
UCS
  5
7
330
0
100
AcDbSymbolTable
 70
     0
  0
ENDTAB
  0
TABLE
  2
APPID
  5
9
330
0
100
AcDbSymbolTable
 70
     2
  0
APPID
  5
56
330
9
100
AcDbSymbolTableRecord
100
AcDbRegAppTableRecord
  2
ACAD
 70
     0
  0
APPID
  5
5E
330
9
100
AcDbSymbolTableRecord
100
AcDbRegAppTableRecord
  2
AcadAnnotative
 70
     0
  0
ENDTAB
  0
TABLE
  2
DIMSTYLE
  5
A
330
0
100
AcDbSymbolTable
 70
     2
100
AcDbDimStyleTable
 71
     0
  0
DIMSTYLE
105
58
330
A
100
AcDbSymbolTableRecord
100
AcDbDimStyleTableRecord
  2
Standard
 70
     0
340
55
  0
DIMSTYLE
105
59
330
A
100
AcDbSymbolTableRecord
100
AcDbDimStyleTableRecord
  2
Annotative
 70
     0
340
55
1001
AcadAnnotative
1000
AnnotativeData
1002
{
1070
     1
1070
     1
1002
}
  0
ENDTAB
  0
TABLE
  2
BLOCK_RECORD
  5
1
330
0
100
AcDbSymbolTable
 70
     3
  0
BLOCK_RECORD
  5
70
330
1
100
AcDbSymbolTableRecord
100
AcDbBlockTableRecord
  2
*Model_Space
340
73
 70
     0
280
     1
281
     0
  0
BLOCK_RECORD
  5
6C
330
1
100
AcDbSymbolTableRecord
100
AcDbBlockTableRecord
  2
*Paper_Space
340
6F
 70
     0
280
     1
281
     0
  0
BLOCK_RECORD
  5
74
330
1
100
AcDbSymbolTableRecord
100
AcDbBlockTableRecord
  2
*Paper_Space0
340
77
 70
     0
280
     1
281
     0
  0
BLOCK_RECORD
  5
79
330
1
100
AcDbSymbolTableRecord
100
AcDbBlockTableRecord
  2
Block_0
340
0
102
{BLKREFS
331
7A
102
}
 70
     0
280
     1
281
     0
  0
BLOCK_RECORD
  5
C9
330
1
100
AcDbSymbolTableRecord
100
AcDbBlockTableRecord
  2
Block_1
340
0
102
{BLKREFS
331
CA
102
}
 70
     0
280
     1
281
     0
  0
ENDTAB
  0
ENDSEC
  0
SECTION
  2
BLOCKS
  0
BLOCK
  5
71
330
70
100
AcDbEntity
  8
0
100
AcDbBlockBegin
  2
*Model_Space
 70
     0
 10
0.0
 20
0.0
 30
0.0
  3
*Model_Space
  1

  0
ENDBLK
  5
72
330
70
100
AcDbEntity
  8
0
100
AcDbBlockEnd
  0
BLOCK
  5
6D
330
6C
100
AcDbEntity
 67
     1
  8
0
100
AcDbBlockBegin
  2
*Paper_Space
 70
     0
 10
0.0
 20
0.0
 30
0.0
  3
*Paper_Space
  1

  0
ENDBLK
  5
6E
330
6C
100
AcDbEntity
 67
     1
  8
0
100
AcDbBlockEnd
  0
BLOCK
  5
75
330
74
100
AcDbEntity
 67
     1
  8
0
100
AcDbBlockBegin
  2
*Paper_Space0
 70
     0
 10
0.0
 20
0.0
 30
0.0
  3
*Paper_Space0
  1

  0
ENDBLK
  5
76
330
74
100
AcDbEntity
 67
     1
  8
0
100
AcDbBlockEnd
  0
BLOCK
  5
7B
330
79
100
AcDbEntity
  8
0
100
AcDbBlockBegin
  2
Block_0
 70
     0
 10
0.0
 20
0.0
 30
0.0
  3
Block_0
  1

  0
SPLINE
  5
7D
330
79
100
AcDbEntity
  8
Ebene 1
 62
     5
420
      255
370
     9
100
AcDbSpline
210
0.0
220
0.0
230
1.0
 70
     9
 71
     3
 72
    20
 73
    16
 74
     0
 42
0.0000000001
 43
0.0000000001
 40
0.0
 40
0.0
 40
0.0
 40
0.0
 40
1.0
 40
1.0
 40
1.0
 40
2.0
 40
2.0
 40
2.0
 40
3.0
 40
3.0
 40
3.0
 40
4.0
 40
4.0
 40
4.0
 40
5.0
 40
5.0
 40
5.0
 40
5.0
 10
18.18524866654335
 20
23.81647071566218
 30
0.0
 10
11.41913653975112
 20
23.81647071566218
 30
0.0
 10
5.9371038509126
 20
29.30203184945184
 30
0.0
 10
5.9371038509126
 20
36.06461553129293
 30
0.0
 10
5.9371038509126
 20
42.82719921313401
 30
0.0
 10
11.4226636389952
 20
48.31276034692367
 30
0.0
 10
18.18524866654335
 20
48.31276034692367
 30
0.0
 10
24.94783369409149
 20
48.31276034692367
 30
0.0
 10
30.43339482788148
 20
42.82719921313401
 30
0.0
 10
30.43339482788148
 20
36.06461553129293
 30
0.0
 10
30.43339482788148
 20
29.30203184945184
 30
0.0
 10
24.94783369409149
 20
23.81647071566218
 30
0.0
 10
18.18525001225072
 20
23.81647071566218
 30
0.0
 10
18.18525001225072
 20
23.81647071566218
 30
0.0
 10
18.18525001225072
 20
23.81647071566218
 30
0.0
 10
18.18524866654335
 20
23.81647071566218
 30
0.0
  0
SPLINE
  5
7E
330
79
100
AcDbEntity
  8
Ebene 1
 62
     5
420
      255
370
     9
100
AcDbSpline
210
0.0
220
0.0
230
1.0
 70
    11
 71
     3
 72
    17
 73
    13
 74
     0
 42
0.0000000001
 43
0.0000000001
 40
0.0
 40
0.0
 40
0.0
 40
0.0
 40
1.0
 40
1.0
 40
1.0
 40
2.0
 40
2.0
 40
2.0
 40
3.0
 40
3.0
 40
3.0
 40
4.0
 40
4.0
 40
4.0
 40
4.0
 10
18.18524866654335
 20
50.81741797936665
 30
0.0
 10
10.03980927372429
 20
50.81741797936665
 30
0.0
 10
3.43597062629832
 20
44.213579331941
 30
0.0
 10
3.43597062629832
 20
36.068141284829
 30
0.0
 10
3.43597062629832
 20
27.92270323771828
 30
0.0
 10
10.03980860087076
 20
21.31886459029166
 30
0.0
 10
18.18524866654335
 20
21.31886459029166
 30
0.0
 10
26.33068805936208
 20
21.31886459029166
 30
0.0
 10
32.93452670678806
 20
27.92270323771828
 30
0.0
 10
32.93452670678806
 20
36.068141284829
 30
0.0
 10
32.93452670678806
 20
44.213579331941
 30
0.0
 10
26.33068805936208
 20
50.81741797936665
 30
0.0
 10
18.18524866654335
 20
50.81741797936665
 30
0.0
  0
SPLINE
  5
7F
330
79
100
AcDbEntity
  8
Ebene 1
 62
     5
420
      255
370
     9
100
AcDbSpline
210
0.0
220
0.0
230
1.0
 70
     9
 71
     3
 72
    17
 73
    13
 74
     0
 42
0.0000000001
 43
0.0000000001
 40
0.0
 40
0.0
 40
0.0
 40
0.0
 40
1.0
 40
1.0
 40
1.0
 40
2.0
 40
2.0
 40
2.0
 40
3.0
 40
3.0
 40
3.0
 40
4.0
 40
4.0
 40
4.0
 40
4.0
 10
55.39886267248474
 20
34.89694517116819
 30
0.0
 10
55.97740383941253
 20
34.89694517116819
 30
0.0
 10
56.45011318912054
 20
34.42776157499691
 30
0.0
 10
56.45011318912054
 20
33.84569465453272
 30
0.0
 10
56.45011318912054
 20
33.26362773406854
 30
0.0
 10
55.98092959294893
 20
32.79444413789725
 30
0.0
 10
55.39886267248474
 20
32.79444413789725
 30
0.0
 10
54.81679575202056
 20
32.79444413789725
 30
0.0
 10
54.34761215584895
 20
33.26362773406854
 30
0.0
 10
54.34761215584895
 20
33.84569465453272
 30
0.0
 10
54.34761215584895
 20
34.42776157499691
 30
0.0
 10
54.81679575202056
 20
34.89694517116819
 30
0.0
 10
55.39886267248474
 20
34.89694517116819
 30
0.0
  0
SPLINE
  5
80
330
79
100
AcDbEntity
  8
Ebene 1
 62
     5
420
      255
370
     9
100
AcDbSpline
210
0.0
220
0.0
230
1.0
 70
     9
 71
     3
 72
    17
 73
    13
 74
     0
 42
0.0000000001
 43
0.0000000001
 40
0.0
 40
0.0
 40
0.0
 40
0.0
 40
1.0
 40
1.0
 40
1.0
 40
2.0
 40
2.0
 40
2.0
 40
3.0
 40
3.0
 40
3.0
 40
4.0
 40
4.0
 40
4.0
 40
4.0
 10
66.97321714740688
 20
34.12437990314239
 30
0.0
 10
67.55175831433469
 20
34.12437990314239
 30
0.0
 10
68.02446766404267
 20
33.65519630697111
 30
0.0
 10
68.02446766404267
 20
33.07312938650692
 30
0.0
 10
68.02446766404267
 20
32.49106246604274
 30
0.0
 10
67.55528406787107
 20
32.02187886987145
 30
0.0
 10
66.97321714740688
 20
32.02187886987145
 30
0.0
 10
66.39115022694269
 20
32.02187886987145
 30
0.0
 10
65.9219666307711
 20
32.49106246604274
 30
0.0
 10
65.9219666307711
 20
33.07312938650692
 30
0.0
 10
65.9219666307711
 20
33.65519630697111
 30
0.0
 10
66.39115022694269
 20
34.12437990314239
 30
0.0
 10
66.97321714740688
 20
34.12437990314239
 30
0.0
  0
SPLINE
  5
81
330
79
100
AcDbEntity
  8
Ebene 1
 62
     5
420
      255
370
     9
100
AcDbSpline
210
0.0
220
0.0
230
1.0
 70
     9
 71
     3
 72
    17
 73
    13
 74
     0
 42
0.0000000001
 43
0.0000000001
 40
0.0
 40
0.0
 40
0.0
 40
0.0
 40
1.0
 40
1.0
 40
1.0
 40
2.0
 40
2.0
 40
2.0
 40
3.0
 40
3.0
 40
3.0
 40
4.0
 40
4.0
 40
4.0
 40
4.0
 10
49.56758929308457
 20
42.74958418986466
 30
0.0
 10
49.29242979801098
 20
42.74958418986466
 30
0.0
 10
49.06665776659598
 20
42.97183046774327
 30
0.0
 10
49.06665776659598
 20
43.25051571635293
 30
0.0
 10
49.06665776659598
 20
43.52920096496324
 30
0.0
 10
49.28890404447458
 20
43.75144724284186
 30
0.0
 10
49.56758929308457
 20
43.75144724284186
 30
0.0
 10
49.84627454169456
 20
43.75144724284186
 30
0.0
 10
50.06852081957316
 20
43.52920096496324
 30
0.0
 10
50.06852081957316
 20
43.25051571635293
 30
0.0
 10
50.06852081957316
 20
42.97183046774327
 30
0.0
 10
49.84627454169456
 20
42.74958418986466
 30
0.0
 10
49.56758929308457
 20
42.74958418986466
 30
0.0
  0
SPLINE
  5
82
330
79
100
AcDbEntity
  8
Ebene 1
 62
     5
420
      255
370
     9
100
AcDbSpline
210
0.0
220
0.0
230
1.0
 70
     9
 71
     3
 72
    17
 73
    13
 74
     0
 42
0.0000000001
 43
0.0000000001
 40
0.0
 40
0.0
 40
0.0
 40
0.0
 40
1.0
 40
1.0
 40
1.0
 40
2.0
 40
2.0
 40
2.0
 40
3.0
 40
3.0
 40
3.0
 40
4.0
 40
4.0
 40
4.0
 40
4.0
 10
49.56758929308457
 20
40.749383837447
 30
0.0
 10
49.29242979801098
 20
40.749383837447
 30
0.0
 10
49.06665776659598
 20
40.9716301153256
 30
0.0
 10
49.06665776659598
 20
41.25031536393527
 30
0.0
 10
49.06665776659598
 20
41.52900061254494
 30
0.0
 10
49.28890404447458
 20
41.75124689042355
 30
0.0
 10
49.56758929308457
 20
41.75124689042355
 30
0.0
 10
49.84627454169456
 20
41.75124689042355
 30
0.0
 10
50.06852081957316
 20
41.52900061254494
 30
0.0
 10
50.06852081957316
 20
41.25031536393527
 30
0.0
 10
50.06852081957316
 20
40.9716301153256
 30
0.0
 10
49.84627454169456
 20
40.749383837447
 30
0.0
 10
49.56758929308457
 20
40.749383837447
 30
0.0
  0
SPLINE
  5
83
330
79
100
AcDbEntity
  8
Ebene 1
 62
     5
420
      255
370
     9
100
AcDbSpline
210
0.0
220
0.0
230
1.0
 70
     9
 71
     3
 72
    17
 73
    13
 74
     0
 42
0.0000000001
 43
0.0000000001
 40
0.0
 40
0.0
 40
0.0
 40
0.0
 40
1.0
 40
1.0
 40
1.0
 40
2.0
 40
2.0
 40
2.0
 40
3.0
 40
3.0
 40
3.0
 40
4.0
 40
4.0
 40
4.0
 40
4.0
 10
49.56758929308457
 20
38.74918348502869
 30
0.0
 10
49.29242979801098
 20
38.74918348502869
 30
0.0
 10
49.06665776659598
 20
38.9714297629073
 30
0.0
 10
49.06665776659598
 20
39.25011501151761
 30
0.0
 10
49.06665776659598
 20
39.52880026012727
 30
0.0
 10
49.28890404447458
 20
39.75104653800588
 30
0.0
 10
49.56758929308457
 20
39.75104653800588
 30
0.0
 10
49.84627454169456
 20
39.75104653800588
 30
0.0
 10
50.06852081957316
 20
39.52880026012727
 30
0.0
 10
50.06852081957316
 20
39.25011501151761
 30
0.0
 10
50.06852081957316
 20
38.9714297629073
 30
0.0
 10
49.84627454169456
 20
38.74918348502869
 30
0.0
 10
49.56758929308457
 20
38.74918348502869
 30
0.0
  0
SPLINE
  5
84
330
79
100
AcDbEntity
  8
Ebene 1
 62
     5
420
      255
370
     9
100
AcDbSpline
210
0.0
220
0.0
230
1.0
 70
     9
 71
     3
 72
    17
 73
    13
 74
     0
 42
0.0000000001
 43
0.0000000001
 40
0.0
 40
0.0
 40
0.0
 40
0.0
 40
1.0
 40
1.0
 40
1.0
 40
2.0
 40
2.0
 40
2.0
 40
3.0
 40
3.0
 40
3.0
 40
4.0
 40
4.0
 40
4.0
 40
4.0
 10
49.56758929308457
 20
36.74898313261039
 30
0.0
 10
49.29242979801098
 20
36.74898313261039
 30
0.0
 10
49.06665776659598
 20
36.97122941048899
 30
0.0
 10
49.06665776659598
 20
37.2499146590993
 30
0.0
 10
49.06665776659598
 20
37.52859990770961
 30
0.0
 10
49.28890404447458
 20
37.75084618558821
 30
0.0
 10
49.56758929308457
 20
37.75084618558821
 30
0.0
 10
49.84627454169456
 20
37.75084618558821
 30
0.0
 10
50.06852081957316
 20
37.52859990770961
 30
0.0
 10
50.06852081957316
 20
37.2499146590993
 30
0.0
 10
50.06852081957316
 20
36.97122941048899
 30
0.0
 10
49.84627454169456
 20
36.74898313261039
 30
0.0
 10
49.56758929308457
 20
36.74898313261039
 30
0.0
  0
SPLINE
  5
85
330
79
100
AcDbEntity
  8
Ebene 1
 62
     5
420
      255
370
     9
100
AcDbSpline
210
0.0
220
0.0
230
1.0
 70
     9
 71
     3
 72
    17
 73
    13
 74
     0
 42
0.0000000001
 43
0.0000000001
 40
0.0
 40
0.0
 40
0.0
 40
0.0
 40
1.0
 40
1.0
 40
1.0
 40
2.0
 40
2.0
 40
2.0
 40
3.0
 40
3.0
 40
3.0
 40
4.0
 40
4.0
 40
4.0
 40
4.0
 10
49.56758929308457
 20
34.74878278019271
 30
0.0
 10
49.29242979801098
 20
34.74878278019271
 30
0.0
 10
49.06665776659598
 20
34.97102905807132
 30
0.0
 10
49.06665776659598
 20
35.24971430668099
 30
0.0
 10
49.06665776659598
 20
35.5283995552913
 30
0.0
 10
49.28890404447458
 20
35.7506458331699
 30
0.0
 10
49.56758929308457
 20
35.7506458331699
 30
0.0
 10
49.84627454169456
 20
35.7506458331699
 30
0.0
 10
50.06852081957316
 20
35.5283995552913
 30
0.0
 10
50.06852081957316
 20
35.24971430668099
 30
0.0
 10
50.06852081957316
 20
34.97102905807132
 30
0.0
 10
49.84627454169456
 20
34.74878278019271
 30
0.0
 10
49.56758929308457
 20
34.74878278019271
 30
0.0
  0
SPLINE
  5
86
330
79
100
AcDbEntity
  8
Ebene 1
 62
     5
420
      255
370
     9
100
AcDbSpline
210
0.0
220
0.0
230
1.0
 70
     9
 71
     3
 72
    17
 73
    13
 74
     0
 42
0.0000000001
 43
0.0000000001
 40
0.0
 40
0.0
 40
0.0
 40
0.0
 40
1.0
 40
1.0
 40
1.0
 40
2.0
 40
2.0
 40
2.0
 40
3.0
 40
3.0
 40
3.0
 40
4.0
 40
4.0
 40
4.0
 40
4.0
 10
47.56738894066658
 20
42.74958418986466
 30
0.0
 10
47.29222944559299
 20
42.74958418986466
 30
0.0
 10
47.06645741417799
 20
42.97183046774327
 30
0.0
 10
47.06645741417799
 20
43.25051571635293
 30
0.0
 10
47.06645741417799
 20
43.52920096496324
 30
0.0
 10
47.2887036920566
 20
43.75144724284186
 30
0.0
 10
47.56738894066658
 20
43.75144724284186
 30
0.0
 10
47.84607418927657
 20
43.75144724284186
 30
0.0
 10
48.06832046715518
 20
43.52920096496324
 30
0.0
 10
48.06832046715518
 20
43.25051571635293
 30
0.0
 10
48.06832046715518
 20
42.97183046774327
 30
0.0
 10
47.84607418927657
 20
42.74958418986466
 30
0.0
 10
47.56738894066658
 20
42.74958418986466
 30
0.0
  0
SPLINE
  5
87
330
79
100
AcDbEntity
  8
Ebene 1
 62
     5
420
      255
370
     9
100
AcDbSpline
210
0.0
220
0.0
230
1.0
 70
     9
 71
     3
 72
    17
 73
    13
 74
     0
 42
0.0000000001
 43
0.0000000001
 40
0.0
 40
0.0
 40
0.0
 40
0.0
 40
1.0
 40
1.0
 40
1.0
 40
2.0
 40
2.0
 40
2.0
 40
3.0
 40
3.0
 40
3.0
 40
4.0
 40
4.0
 40
4.0
 40
4.0
 10
47.56738894066658
 20
40.749383837447
 30
0.0
 10
47.29222944559299
 20
40.749383837447
 30
0.0
 10
47.06645741417799
 20
40.9716301153256
 30
0.0
 10
47.06645741417799
 20
41.25031536393527
 30
0.0
 10
47.06645741417799
 20
41.52900061254494
 30
0.0
 10
47.2887036920566
 20
41.75124689042355
 30
0.0
 10
47.56738894066658
 20
41.75124689042355
 30
0.0
 10
47.84607418927657
 20
41.75124689042355
 30
0.0
 10
48.06832046715518
 20
41.52900061254494
 30
0.0
 10
48.06832046715518
 20
41.25031536393527
 30
0.0
 10
48.06832046715518
 20
40.9716301153256
 30
0.0
 10
47.84607418927657
 20
40.749383837447
 30
0.0
 10
47.56738894066658
 20
40.749383837447
 30
0.0
  0
SPLINE
  5
88
330
79
100
AcDbEntity
  8
Ebene 1
 62
     5
420
      255
370
     9
100
AcDbSpline
210
0.0
220
0.0
230
1.0
 70
     9
 71
     3
 72
    17
 73
    13
 74
     0
 42
0.0000000001
 43
0.0000000001
 40
0.0
 40
0.0
 40
0.0
 40
0.0
 40
1.0
 40
1.0
 40
1.0
 40
2.0
 40
2.0
 40
2.0
 40
3.0
 40
3.0
 40
3.0
 40
4.0
 40
4.0
 40
4.0
 40
4.0
 10
47.56738894066658
 20
38.74918348502869
 30
0.0
 10
47.29222944559299
 20
38.74918348502869
 30
0.0
 10
47.06645741417799
 20
38.9714297629073
 30
0.0
 10
47.06645741417799
 20
39.25011501151761
 30
0.0
 10
47.06645741417799
 20
39.52880026012727
 30
0.0
 10
47.2887036920566
 20
39.75104653800588
 30
0.0
 10
47.56738894066658
 20
39.75104653800588
 30
0.0
 10
47.84607418927657
 20
39.75104653800588
 30
0.0
 10
48.06832046715518
 20
39.52880026012727
 30
0.0
 10
48.06832046715518
 20
39.25011501151761
 30
0.0
 10
48.06832046715518
 20
38.9714297629073
 30
0.0
 10
47.84607418927657
 20
38.74918348502869
 30
0.0
 10
47.56738894066658
 20
38.74918348502869
 30
0.0
  0
SPLINE
  5
89
330
79
100
AcDbEntity
  8
Ebene 1
 62
     5
420
      255
370
     9
100
AcDbSpline
210
0.0
220
0.0
230
1.0
 70
     9
 71
     3
 72
    17
 73
    13
 74
     0
 42
0.0000000001
 43
0.0000000001
 40
0.0
 40
0.0
 40
0.0
 40
0.0
 40
1.0
 40
1.0
 40
1.0
 40
2.0
 40
2.0
 40
2.0
 40
3.0
 40
3.0
 40
3.0
 40
4.0
 40
4.0
 40
4.0
 40
4.0
 10
47.56738894066658
 20
36.74898313261039
 30
0.0
 10
47.29222944559299
 20
36.74898313261039
 30
0.0
 10
47.06645741417799
 20
36.97122941048899
 30
0.0
 10
47.06645741417799
 20
37.2499146590993
 30
0.0
 10
47.06645741417799
 20
37.52859990770961
 30
0.0
 10
47.2887036920566
 20
37.75084618558821
 30
0.0
 10
47.56738894066658
 20
37.75084618558821
 30
0.0
 10
47.84607418927657
 20
37.75084618558821
 30
0.0
 10
48.06832046715518
 20
37.52859990770961
 30
0.0
 10
48.06832046715518
 20
37.2499146590993
 30
0.0
 10
48.06832046715518
 20
36.97122941048899
 30
0.0
 10
47.84607418927657
 20
36.74898313261039
 30
0.0
 10
47.56738894066658
 20
36.74898313261039
 30
0.0
  0
SPLINE
  5
8A
330
79
100
AcDbEntity
  8
Ebene 1
 62
     5
420
      255
370
     9
100
AcDbSpline
210
0.0
220
0.0
230
1.0
 70
     9
 71
     3
 72
    17
 73
    13
 74
     0
 42
0.0000000001
 43
0.0000000001
 40
0.0
 40
0.0
 40
0.0
 40
0.0
 40
1.0
 40
1.0
 40
1.0
 40
2.0
 40
2.0
 40
2.0
 40
3.0
 40
3.0
 40
3.0
 40
4.0
 40
4.0
 40
4.0
 40
4.0
 10
47.56738894066658
 20
34.74878278019271
 30
0.0
 10
47.29222944559299
 20
34.74878278019271
 30
0.0
 10
47.06645741417799
 20
34.97102905807132
 30
0.0
 10
47.06645741417799
 20
35.24971430668099
 30
0.0
 10
47.06645741417799
 20
35.5283995552913
 30
0.0
 10
47.2887036920566
 20
35.7506458331699
 30
0.0
 10
47.56738894066658
 20
35.7506458331699
 30
0.0
 10
47.84607418927657
 20
35.7506458331699
 30
0.0
 10
48.06832046715518
 20
35.5283995552913
 30
0.0
 10
48.06832046715518
 20
35.24971430668099
 30
0.0
 10
48.06832046715518
 20
34.97102905807132
 30
0.0
 10
47.84607418927657
 20
34.74878278019271
 30
0.0
 10
47.56738894066658
 20
34.74878278019271
 30
0.0
  0
SPLINE
  5
8B
330
79
100
AcDbEntity
  8
Ebene 1
 62
     5
420
      255
370
     9
100
AcDbSpline
210
0.0
220
0.0
230
1.0
 70
     9
 71
     3
 72
    17
 73
    13
 74
     0
 42
0.0000000001
 43
0.0000000001
 40
0.0
 40
0.0
 40
0.0
 40
0.0
 40
1.0
 40
1.0
 40
1.0
 40
2.0
 40
2.0
 40
2.0
 40
3.0
 40
3.0
 40
3.0
 40
4.0
 40
4.0
 40
4.0
 40
4.0
 10
45.5671885882486
 20
42.74958418986466
 30
0.0
 10
45.292029093175
 20
42.74958418986466
 30
0.0
 10
45.06625706176
 20
42.97183046774327
 30
0.0
 10
45.06625706176
 20
43.25051571635293
 30
0.0
 10
45.06625706176
 20
43.52920096496324
 30
0.0
 10
45.28850333963861
 20
43.75144724284186
 30
0.0
 10
45.5671885882486
 20
43.75144724284186
 30
0.0
 10
45.84587383685859
 20
43.75144724284186
 30
0.0
 10
46.06812011473719
 20
43.52920096496324
 30
0.0
 10
46.06812011473719
 20
43.25051571635293
 30
0.0
 10
46.06812011473719
 20
42.97183046774327
 30
0.0
 10
45.84587383685859
 20
42.74958418986466
 30
0.0
 10
45.5671885882486
 20
42.74958418986466
 30
0.0
  0
SPLINE
  5
8C
330
79
100
AcDbEntity
  8
Ebene 1
 62
     5
420
      255
370
     9
100
AcDbSpline
210
0.0
220
0.0
230
1.0
 70
     9
 71
     3
 72
    17
 73
    13
 74
     0
 42
0.0000000001
 43
0.0000000001
 40
0.0
 40
0.0
 40
0.0
 40
0.0
 40
1.0
 40
1.0
 40
1.0
 40
2.0
 40
2.0
 40
2.0
 40
3.0
 40
3.0
 40
3.0
 40
4.0
 40
4.0
 40
4.0
 40
4.0
 10
45.5671885882486
 20
40.749383837447
 30
0.0
 10
45.292029093175
 20
40.749383837447
 30
0.0
 10
45.06625706176
 20
40.9716301153256
 30
0.0
 10
45.06625706176
 20
41.25031536393527
 30
0.0
 10
45.06625706176
 20
41.52900061254494
 30
0.0
 10
45.28850333963861
 20
41.75124689042355
 30
0.0
 10
45.5671885882486
 20
41.75124689042355
 30
0.0
 10
45.84587383685859
 20
41.75124689042355
 30
0.0
 10
46.06812011473719
 20
41.52900061254494
 30
0.0
 10
46.06812011473719
 20
41.25031536393527
 30
0.0
 10
46.06812011473719
 20
40.9716301153256
 30
0.0
 10
45.84587383685859
 20
40.749383837447
 30
0.0
 10
45.5671885882486
 20
40.749383837447
 30
0.0
  0
SPLINE
  5
8D
330
79
100
AcDbEntity
  8
Ebene 1
 62
     5
420
      255
370
     9
100
AcDbSpline
210
0.0
220
0.0
230
1.0
 70
     9
 71
     3
 72
    17
 73
    13
 74
     0
 42
0.0000000001
 43
0.0000000001
 40
0.0
 40
0.0
 40
0.0
 40
0.0
 40
1.0
 40
1.0
 40
1.0
 40
2.0
 40
2.0
 40
2.0
 40
3.0
 40
3.0
 40
3.0
 40
4.0
 40
4.0
 40
4.0
 40
4.0
 10
45.5671885882486
 20
38.74918348502869
 30
0.0
 10
45.292029093175
 20
38.74918348502869
 30
0.0
 10
45.06625706176
 20
38.9714297629073
 30
0.0
 10
45.06625706176
 20
39.25011501151761
 30
0.0
 10
45.06625706176
 20
39.52880026012727
 30
0.0
 10
45.28850333963861
 20
39.75104653800588
 30
0.0
 10
45.5671885882486
 20
39.75104653800588
 30
0.0
 10
45.84587383685859
 20
39.75104653800588
 30
0.0
 10
46.06812011473719
 20
39.52880026012727
 30
0.0
 10
46.06812011473719
 20
39.25011501151761
 30
0.0
 10
46.06812011473719
 20
38.9714297629073
 30
0.0
 10
45.84587383685859
 20
38.74918348502869
 30
0.0
 10
45.5671885882486
 20
38.74918348502869
 30
0.0
  0
SPLINE
  5
8E
330
79
100
AcDbEntity
  8
Ebene 1
 62
     5
420
      255
370
     9
100
AcDbSpline
210
0.0
220
0.0
230
1.0
 70
     9
 71
     3
 72
    17
 73
    13
 74
     0
 42
0.0000000001
 43
0.0000000001
 40
0.0
 40
0.0
 40
0.0
 40
0.0
 40
1.0
 40
1.0
 40
1.0
 40
2.0
 40
2.0
 40
2.0
 40
3.0
 40
3.0
 40
3.0
 40
4.0
 40
4.0
 40
4.0
 40
4.0
 10
45.5671885882486
 20
36.74898313261039
 30
0.0
 10
45.292029093175
 20
36.74898313261039
 30
0.0
 10
45.06625706176
 20
36.97122941048899
 30
0.0
 10
45.06625706176
 20
37.2499146590993
 30
0.0
 10
45.06625706176
 20
37.52859990770961
 30
0.0
 10
45.28850333963861
 20
37.75084618558821
 30
0.0
 10
45.5671885882486
 20
37.75084618558821
 30
0.0
 10
45.84587383685859
 20
37.75084618558821
 30
0.0
 10
46.06812011473719
 20
37.52859990770961
 30
0.0
 10
46.06812011473719
 20
37.2499146590993
 30
0.0
 10
46.06812011473719
 20
36.97122941048899
 30
0.0
 10
45.84587383685859
 20
36.74898313261039
 30
0.0
 10
45.5671885882486
 20
36.74898313261039
 30
0.0
  0
SPLINE
  5
8F
330
79
100
AcDbEntity
  8
Ebene 1
 62
     5
420
      255
370
     9
100
AcDbSpline
210
0.0
220
0.0
230
1.0
 70
     9
 71
     3
 72
    17
 73
    13
 74
     0
 42
0.0000000001
 43
0.0000000001
 40
0.0
 40
0.0
 40
0.0
 40
0.0
 40
1.0
 40
1.0
 40
1.0
 40
2.0
 40
2.0
 40
2.0
 40
3.0
 40
3.0
 40
3.0
 40
4.0
 40
4.0
 40
4.0
 40
4.0
 10
45.5671885882486
 20
34.74878278019271
 30
0.0
 10
45.292029093175
 20
34.74878278019271
 30
0.0
 10
45.06625706176
 20
34.97102905807132
 30
0.0
 10
45.06625706176
 20
35.24971430668099
 30
0.0
 10
45.06625706176
 20
35.5283995552913
 30
0.0
 10
45.28850333963861
 20
35.7506458331699
 30
0.0
 10
45.5671885882486
 20
35.7506458331699
 30
0.0
 10
45.84587383685859
 20
35.7506458331699
 30
0.0
 10
46.06812011473719
 20
35.5283995552913
 30
0.0
 10
46.06812011473719
 20
35.24971430668099
 30
0.0
 10
46.06812011473719
 20
34.97102905807132
 30
0.0
 10
45.84587383685859
 20
34.74878278019271
 30
0.0
 10
45.5671885882486
 20
34.74878278019271
 30
0.0
  0
SPLINE
  5
90
330
79
100
AcDbEntity
  8
Ebene 1
 62
     5
420
      255
370
     9
100
AcDbSpline
210
0.0
220
0.0
230
1.0
 70
     9
 71
     3
 72
    17
 73
    13
 74
     0
 42
0.0000000001
 43
0.0000000001
 40
0.0
 40
0.0
 40
0.0
 40
0.0
 40
1.0
 40
1.0
 40
1.0
 40
2.0
 40
2.0
 40
2.0
 40
3.0
 40
3.0
 40
3.0
 40
4.0
 40
4.0
 40
4.0
 40
4.0
 10
43.56698823583061
 20
42.74958418986466
 30
0.0
 10
43.29182874075701
 20
42.74958418986466
 30
0.0
 10
43.06605670934201
 20
42.97183046774327
 30
0.0
 10
43.06605670934201
 20
43.25051571635293
 30
0.0
 10
43.06605670934201
 20
43.52920096496324
 30
0.0
 10
43.28830029580554
 20
43.75144724284186
 30
0.0
 10
43.56698823583061
 20
43.75144724284186
 30
0.0
 10
43.84567617585567
 20
43.75144724284186
 30
0.0
 10
44.06791976231921
 20
43.52920096496324
 30
0.0
 10
44.06791976231921
 20
43.25051571635293
 30
0.0
 10
44.06791976231921
 20
42.97183046774327
 30
0.0
 10
43.84567617585567
 20
42.74958418986466
 30
0.0
 10
43.56698823583061
 20
42.74958418986466
 30
0.0
  0
SPLINE
  5
91
330
79
100
AcDbEntity
  8
Ebene 1
 62
     5
420
      255
370
     9
100
AcDbSpline
210
0.0
220
0.0
230
1.0
 70
     9
 71
     3
 72
    17
 73
    13
 74
     0
 42
0.0000000001
 43
0.0000000001
 40
0.0
 40
0.0
 40
0.0
 40
0.0
 40
1.0
 40
1.0
 40
1.0
 40
2.0
 40
2.0
 40
2.0
 40
3.0
 40
3.0
 40
3.0
 40
4.0
 40
4.0
 40
4.0
 40
4.0
 10
43.56698823583061
 20
40.749383837447
 30
0.0
 10
43.29182874075701
 20
40.749383837447
 30
0.0
 10
43.06605670934201
 20
40.9716301153256
 30
0.0
 10
43.06605670934201
 20
41.25031536393527
 30
0.0
 10
43.06605670934201
 20
41.52900061254494
 30
0.0
 10
43.28830029580554
 20
41.75124689042355
 30
0.0
 10
43.56698823583061
 20
41.75124689042355
 30
0.0
 10
43.84567617585567
 20
41.75124689042355
 30
0.0
 10
44.06791976231921
 20
41.52900061254494
 30
0.0
 10
44.06791976231921
 20
41.25031536393527
 30
0.0
 10
44.06791976231921
 20
40.9716301153256
 30
0.0
 10
43.84567617585567
 20
40.749383837447
 30
0.0
 10
43.56698823583061
 20
40.749383837447
 30
0.0
  0
SPLINE
  5
92
330
79
100
AcDbEntity
  8
Ebene 1
 62
     5
420
      255
370
     9
100
AcDbSpline
210
0.0
220
0.0
230
1.0
 70
     9
 71
     3
 72
    17
 73
    13
 74
     0
 42
0.0000000001
 43
0.0000000001
 40
0.0
 40
0.0
 40
0.0
 40
0.0
 40
1.0
 40
1.0
 40
1.0
 40
2.0
 40
2.0
 40
2.0
 40
3.0
 40
3.0
 40
3.0
 40
4.0
 40
4.0
 40
4.0
 40
4.0
 10
43.56698823583061
 20
38.74918348502869
 30
0.0
 10
43.29182874075701
 20
38.74918348502869
 30
0.0
 10
43.06605670934201
 20
38.9714297629073
 30
0.0
 10
43.06605670934201
 20
39.25011501151761
 30
0.0
 10
43.06605670934201
 20
39.52880026012727
 30
0.0
 10
43.28830029580554
 20
39.75104653800588
 30
0.0
 10
43.56698823583061
 20
39.75104653800588
 30
0.0
 10
43.84567617585567
 20
39.75104653800588
 30
0.0
 10
44.06791976231921
 20
39.52880026012727
 30
0.0
 10
44.06791976231921
 20
39.25011501151761
 30
0.0
 10
44.06791976231921
 20
38.9714297629073
 30
0.0
 10
43.84567617585567
 20
38.74918348502869
 30
0.0
 10
43.56698823583061
 20
38.74918348502869
 30
0.0
  0
SPLINE
  5
93
330
79
100
AcDbEntity
  8
Ebene 1
 62
     5
420
      255
370
     9
100
AcDbSpline
210
0.0
220
0.0
230
1.0
 70
     9
 71
     3
 72
    17
 73
    13
 74
     0
 42
0.0000000001
 43
0.0000000001
 40
0.0
 40
0.0
 40
0.0
 40
0.0
 40
1.0
 40
1.0
 40
1.0
 40
2.0
 40
2.0
 40
2.0
 40
3.0
 40
3.0
 40
3.0
 40
4.0
 40
4.0
 40
4.0
 40
4.0
 10
43.56698823583061
 20
36.74898313261039
 30
0.0
 10
43.29182874075701
 20
36.74898313261039
 30
0.0
 10
43.06605670934201
 20
36.97122941048899
 30
0.0
 10
43.06605670934201
 20
37.2499146590993
 30
0.0
 10
43.06605670934201
 20
37.52859990770961
 30
0.0
 10
43.28830029580554
 20
37.75084618558821
 30
0.0
 10
43.56698823583061
 20
37.75084618558821
 30
0.0
 10
43.84567617585567
 20
37.75084618558821
 30
0.0
 10
44.06791976231921
 20
37.52859990770961
 30
0.0
 10
44.06791976231921
 20
37.2499146590993
 30
0.0
 10
44.06791976231921
 20
36.97122941048899
 30
0.0
 10
43.84567617585567
 20
36.74898313261039
 30
0.0
 10
43.56698823583061
 20
36.74898313261039
 30
0.0
  0
SPLINE
  5
94
330
79
100
AcDbEntity
  8
Ebene 1
 62
     5
420
      255
370
     9
100
AcDbSpline
210
0.0
220
0.0
230
1.0
 70
     9
 71
     3
 72
    17
 73
    13
 74
     0
 42
0.0000000001
 43
0.0000000001
 40
0.0
 40
0.0
 40
0.0
 40
0.0
 40
1.0
 40
1.0
 40
1.0
 40
2.0
 40
2.0
 40
2.0
 40
3.0
 40
3.0
 40
3.0
 40
4.0
 40
4.0
 40
4.0
 40
4.0
 10
43.56698823583061
 20
34.74878278019271
 30
0.0
 10
43.29182874075701
 20
34.74878278019271
 30
0.0
 10
43.06605670934201
 20
34.97102905807132
 30
0.0
 10
43.06605670934201
 20
35.24971430668099
 30
0.0
 10
43.06605670934201
 20
35.5283995552913
 30
0.0
 10
43.28830029580554
 20
35.7506458331699
 30
0.0
 10
43.56698823583061
 20
35.7506458331699
 30
0.0
 10
43.84567617585567
 20
35.7506458331699
 30
0.0
 10
44.06791976231921
 20
35.5283995552913
 30
0.0
 10
44.06791976231921
 20
35.24971430668099
 30
0.0
 10
44.06791976231921
 20
34.97102905807132
 30
0.0
 10
43.84567617585567
 20
34.74878278019271
 30
0.0
 10
43.56698823583061
 20
34.74878278019271
 30
0.0
  0
SPLINE
  5
95
330
79
100
AcDbEntity
  8
Ebene 1
 62
     5
420
      255
370
     9
100
AcDbSpline
210
0.0
220
0.0
230
1.0
 70
     9
 71
     3
 72
    17
 73
    13
 74
     0
 42
0.0000000001
 43
0.0000000001
 40
0.0
 40
0.0
 40
0.0
 40
0.0
 40
1.0
 40
1.0
 40
1.0
 40
2.0
 40
2.0
 40
2.0
 40
3.0
 40
3.0
 40
3.0
 40
4.0
 40
4.0
 40
4.0
 40
4.0
 10
41.56678788341262
 20
42.74958418986466
 30
0.0
 10
41.29162838833901
 20
42.74958418986466
 30
0.0
 10
41.06585635692402
 20
42.97183046774327
 30
0.0
 10
41.06585635692402
 20
43.25051571635293
 30
0.0
 10
41.06585635692402
 20
43.52920096496324
 30
0.0
 10
41.28809994338788
 20
43.75144724284186
 30
0.0
 10
41.56678788341262
 20
43.75144724284186
 30
0.0
 10
41.84547582343736
 20
43.75144724284186
 30
0.0
 10
42.06771940990122
 20
43.52920096496324
 30
0.0
 10
42.06771940990122
 20
43.25051571635293
 30
0.0
 10
42.06771940990122
 20
42.97183046774327
 30
0.0
 10
41.84547582343736
 20
42.74958418986466
 30
0.0
 10
41.56678788341262
 20
42.74958418986466
 30
0.0
  0
SPLINE
  5
96
330
79
100
AcDbEntity
  8
Ebene 1
 62
     5
420
      255
370
     9
100
AcDbSpline
210
0.0
220
0.0
230
1.0
 70
     9
 71
     3
 72
    17
 73
    13
 74
     0
 42
0.0000000001
 43
0.0000000001
 40
0.0
 40
0.0
 40
0.0
 40
0.0
 40
1.0
 40
1.0
 40
1.0
 40
2.0
 40
2.0
 40
2.0
 40
3.0
 40
3.0
 40
3.0
 40
4.0
 40
4.0
 40
4.0
 40
4.0
 10
41.56678788341262
 20
40.749383837447
 30
0.0
 10
41.29162838833901
 20
40.749383837447
 30
0.0
 10
41.06585635692402
 20
40.9716301153256
 30
0.0
 10
41.06585635692402
 20
41.25031536393527
 30
0.0
 10
41.06585635692402
 20
41.52900061254494
 30
0.0
 10
41.28809994338788
 20
41.75124689042355
 30
0.0
 10
41.56678788341262
 20
41.75124689042355
 30
0.0
 10
41.84547582343736
 20
41.75124689042355
 30
0.0
 10
42.06771940990122
 20
41.52900061254494
 30
0.0
 10
42.06771940990122
 20
41.25031536393527
 30
0.0
 10
42.06771940990122
 20
40.9716301153256
 30
0.0
 10
41.84547582343736
 20
40.749383837447
 30
0.0
 10
41.56678788341262
 20
40.749383837447
 30
0.0
  0
SPLINE
  5
97
330
79
100
AcDbEntity
  8
Ebene 1
 62
     5
420
      255
370
     9
100
AcDbSpline
210
0.0
220
0.0
230
1.0
 70
     9
 71
     3
 72
    17
 73
    13
 74
     0
 42
0.0000000001
 43
0.0000000001
 40
0.0
 40
0.0
 40
0.0
 40
0.0
 40
1.0
 40
1.0
 40
1.0
 40
2.0
 40
2.0
 40
2.0
 40
3.0
 40
3.0
 40
3.0
 40
4.0
 40
4.0
 40
4.0
 40
4.0
 10
41.56678788341262
 20
38.74918348502869
 30
0.0
 10
41.29162838833901
 20
38.74918348502869
 30
0.0
 10
41.06585635692402
 20
38.9714297629073
 30
0.0
 10
41.06585635692402
 20
39.25011501151761
 30
0.0
 10
41.06585635692402
 20
39.52880026012727
 30
0.0
 10
41.28809994338788
 20
39.75104653800588
 30
0.0
 10
41.56678788341262
 20
39.75104653800588
 30
0.0
 10
41.84547582343736
 20
39.75104653800588
 30
0.0
 10
42.06771940990122
 20
39.52880026012727
 30
0.0
 10
42.06771940990122
 20
39.25011501151761
 30
0.0
 10
42.06771940990122
 20
38.9714297629073
 30
0.0
 10
41.84547582343736
 20
38.74918348502869
 30
0.0
 10
41.56678788341262
 20
38.74918348502869
 30
0.0
  0
SPLINE
  5
98
330
79
100
AcDbEntity
  8
Ebene 1
 62
     5
420
      255
370
     9
100
AcDbSpline
210
0.0
220
0.0
230
1.0
 70
     9
 71
     3
 72
    17
 73
    13
 74
     0
 42
0.0000000001
 43
0.0000000001
 40
0.0
 40
0.0
 40
0.0
 40
0.0
 40
1.0
 40
1.0
 40
1.0
 40
2.0
 40
2.0
 40
2.0
 40
3.0
 40
3.0
 40
3.0
 40
4.0
 40
4.0
 40
4.0
 40
4.0
 10
41.56678788341262
 20
36.74898313261039
 30
0.0
 10
41.29162838833901
 20
36.74898313261039
 30
0.0
 10
41.06585635692402
 20
36.97122941048899
 30
0.0
 10
41.06585635692402
 20
37.2499146590993
 30
0.0
 10
41.06585635692402
 20
37.52859990770961
 30
0.0
 10
41.28809994338788
 20
37.75084618558821
 30
0.0
 10
41.56678788341262
 20
37.75084618558821
 30
0.0
 10
41.84547582343736
 20
37.75084618558821
 30
0.0
 10
42.06771940990122
 20
37.52859990770961
 30
0.0
 10
42.06771940990122
 20
37.2499146590993
 30
0.0
 10
42.06771940990122
 20
36.97122941048899
 30
0.0
 10
41.84547582343736
 20
36.74898313261039
 30
0.0
 10
41.56678788341262
 20
36.74898313261039
 30
0.0
  0
SPLINE
  5
99
330
79
100
AcDbEntity
  8
Ebene 1
 62
     5
420
      255
370
     9
100
AcDbSpline
210
0.0
220
0.0
230
1.0
 70
     9
 71
     3
 72
    17
 73
    13
 74
     0
 42
0.0000000001
 43
0.0000000001
 40
0.0
 40
0.0
 40
0.0
 40
0.0
 40
1.0
 40
1.0
 40
1.0
 40
2.0
 40
2.0
 40
2.0
 40
3.0
 40
3.0
 40
3.0
 40
4.0
 40
4.0
 40
4.0
 40
4.0
 10
41.56678788341262
 20
34.74878278019271
 30
0.0
 10
41.29162838833901
 20
34.74878278019271
 30
0.0
 10
41.06585635692402
 20
34.97102905807132
 30
0.0
 10
41.06585635692402
 20
35.24971430668099
 30
0.0
 10
41.06585635692402
 20
35.5283995552913
 30
0.0
 10
41.28809994338788
 20
35.7506458331699
 30
0.0
 10
41.56678788341262
 20
35.7506458331699
 30
0.0
 10
41.84547582343736
 20
35.7506458331699
 30
0.0
 10
42.06771940990122
 20
35.5283995552913
 30
0.0
 10
42.06771940990122
 20
35.24971430668099
 30
0.0
 10
42.06771940990122
 20
34.97102905807132
 30
0.0
 10
41.84547582343736
 20
34.74878278019271
 30
0.0
 10
41.56678788341262
 20
34.74878278019271
 30
0.0
  0
SPLINE
  5
9A
330
79
100
AcDbEntity
  8
Ebene 1
 62
     5
420
      255
370
     9
100
AcDbSpline
210
0.0
220
0.0
230
1.0
 70
    11
 71
     3
 72
    44
 73
    40
 74
     0
 42
0.0000000001
 43
0.0000000001
 40
0.0
 40
0.0
 40
0.0
 40
0.0
 40
1.0
 40
1.0
 40
1.0
 40
2.0
 40
2.0
 40
2.0
 40
3.0
 40
3.0
 40
3.0
 40
4.0
 40
4.0
 40
4.0
 40
5.0
 40
5.0
 40
5.0
 40
6.0
 40
6.0
 40
6.0
 40
7.0
 40
7.0
 40
7.0
 40
8.0
 40
8.0
 40
8.0
 40
9.0
 40
9.0
 40
9.0
 40
10.0
 40
10.0
 40
10.0
 40
11.0
 40
11.0
 40
11.0
 40
12.0
 40
12.0
 40
12.0
 40
13.0
 40
13.0
 40
13.0
 40
13.0
 10
52.53085326108998
 20
38.4316934161991
 30
0.0
 10
52.53085326108998
 20
38.4316934161991
 30
0.0
 10
53.15172500177376
 20
47.30736615758027
 30
0.0
 10
53.15172500177376
 20
47.30736615758027
 30
0.0
 10
53.15172500177376
 20
47.30736615758027
 30
0.0
 10
35.99656021928083
 20
47.30736615758027
 30
0.0
 10
35.99656021928083
 20
47.30736615758027
 30
0.0
 10
35.99656021928083
 20
47.30736615758027
 30
0.0
 10
35.99656021928083
 20
37.35927761268564
 30
0.0
 10
35.99656021928083
 20
37.35927761268564
 30
0.0
 10
35.99656021928083
 20
37.35927761268564
 30
0.0
 10
38.24722633494296
 20
37.35927761268564
 30
0.0
 10
38.24722633494296
 20
37.35927761268564
 30
0.0
 10
38.63527184572421
 20
37.35927761268564
 30
0.0
 10
38.94923616101741
 20
37.04531329739212
 30
0.0
 10
38.94923616101741
 20
36.65726509519611
 30
0.0
 10
38.94923616101741
 20
36.65726509519611
 30
0.0
 10
38.97392989284655
 20
30.15573251145355
 30
0.0
 10
38.97392989284655
 20
30.15573251145355
 30
0.0
 10
38.97392989284655
 20
30.15573251145355
 30
0.0
 10
54.95437011672753
 20
30.15573251145355
 30
0.0
 10
54.95437011672753
 20
30.15573251145355
 30
0.0
 10
54.95437011672753
 20
30.15573251145355
 30
0.0
 10
70.04583330333867
 20
29.09742510491516
 30
0.0
 10
70.04583330333867
 20
29.09742510491516
 30
0.0
 10
70.04583330333867
 20
29.09742510491516
 30
0.0
 10
71.37577445141426
 20
36.41385891326966
 30
0.0
 10
71.37577445141426
 20
36.41385891326966
 30
0.0
 10
71.37577445141426
 20
36.41385891326966
 30
0.0
 10
53.17994179572454
 20
37.68735570778373
 30
0.0
 10
53.17994179572454
 20
37.68735570778373
 30
0.0
 10
52.79542472989475
 20
37.71557788456465
 30
0.0
 10
52.50262570147954
 20
38.05070748673553
 30
0.0
 10
52.53084787826015
 20
38.43522455256532
 30
0.0
 10
52.53084787826015
 20
38.43522455256532
 30
0.0
 10
52.53084787826015
 20
38.43522455256532
 30
0.0
 10
52.53084787826015
 20
38.43522455256532
 30
0.0
 10
52.53084787826015
 20
38.43522455256532
 30
0.0
 10
52.53085326108998
 20
38.4316934161991
 30
0.0
 10
52.53085326108998
 20
38.4316934161991
 30
0.0
  0
SPLINE
  5
9B
330
79
100
AcDbEntity
  8
Ebene 1
 62
     5
420
      255
370
     9
100
AcDbSpline
210
0.0
220
0.0
230
1.0
 70
     9
 71
     3
 72
    17
 73
    13
 74
     0
 42
0.0000000001
 43
0.0000000001
 40
0.0
 40
0.0
 40
0.0
 40
0.0
 40
1.0
 40
1.0
 40
1.0
 40
2.0
 40
2.0
 40
2.0
 40
3.0
 40
3.0
 40
3.0
 40
4.0
 40
4.0
 40
4.0
 40
4.0
 10
184.8580892814388
 20
93.18851838826853
 30
0.0
 10
184.2795427316812
 20
93.18851838826853
 30
0.0
 10
183.8068441476328
 20
93.6577013115863
 30
0.0
 10
183.8068441476328
 20
94.23977025061169
 30
0.0
 10
183.8068441476328
 20
94.82183918963711
 30
0.0
 10
184.2760331266343
 20
95.29102211295485
 30
0.0
 10
184.8580892814388
 20
95.29102211295485
 30
0.0
 10
185.4401454362433
 20
95.29102211295485
 30
0.0
 10
185.9093344152448
 20
94.82183918963711
 30
0.0
 10
185.9093344152448
 20
94.23977025061169
 30
0.0
 10
185.9093344152448
 20
93.6577013115863
 30
0.0
 10
185.4401454362433
 20
93.18851838826853
 30
0.0
 10
184.8580892814388
 20
93.18851838826853
 30
0.0
  0
SPLINE
  5
9C
330
79
100
AcDbEntity
  8
Ebene 1
 62
     5
420
      255
370
     9
100
AcDbSpline
210
0.0
220
0.0
230
1.0
 70
     9
 71
     3
 72
    20
 73
    16
 74
     0
 42
0.0000000001
 43
0.0000000001
 40
0.0
 40
0.0
 40
0.0
 40
0.0
 40
1.0
 40
1.0
 40
1.0
 40
2.0
 40
2.0
 40
2.0
 40
3.0
 40
3.0
 40
3.0
 40
4.0
 40
4.0
 40
4.0
 40
5.0
 40
5.0
 40
5.0
 40
5.0
 10
135.1423268317188
 20
23.81646533283268
 30
0.0
 10
128.3762173963416
 20
23.81646533283268
 30
0.0
 10
122.894182016088
 20
29.30202646662234
 30
0.0
 10
122.894182016088
 20
36.06461014846278
 30
0.0
 10
122.894182016088
 20
42.82719383030387
 30
0.0
 10
128.3797377670482
 20
48.31275496409417
 30
0.0
 10
135.1423268317188
 20
48.31275496409417
 30
0.0
 10
141.9049158963894
 20
48.31275496409417
 30
0.0
 10
147.3904716473495
 20
42.82719383030387
 30
0.0
 10
147.3904716473495
 20
36.06461014846278
 30
0.0
 10
147.3904716473495
 20
29.30202646662234
 30
0.0
 10
141.9049158963894
 20
23.81646533283268
 30
0.0
 10
135.1423268317188
 20
23.81646533283268
 30
0.0
 10
135.1423268317188
 20
23.81646533283268
 30
0.0
 10
135.1423268317188
 20
23.81646533283268
 30
0.0
 10
135.1423268317188
 20
23.81646533283268
 30
0.0
  0
SPLINE
  5
9D
330
79
100
AcDbEntity
  8
Ebene 1
 62
     5
420
      255
370
     9
100
AcDbSpline
210
0.0
220
0.0
230
1.0
 70
     9
 71
     3
 72
    17
 73
    13
 74
     0
 42
0.0000000001
 43
0.0000000001
 40
0.0
 40
0.0
 40
0.0
 40
0.0
 40
1.0
 40
1.0
 40
1.0
 40
2.0
 40
2.0
 40
2.0
 40
3.0
 40
3.0
 40
3.0
 40
4.0
 40
4.0
 40
4.0
 40
4.0
 10
122.788355581698
 20
13.7907671474982
 30
0.0
 10
122.2098090319404
 20
13.7907671474982
 30
0.0
 10
121.7370996822324
 20
14.25995074366948
 30
0.0
 10
121.7370996822324
 20
14.84201766413431
 30
0.0
 10
121.7370996822324
 20
15.42408458459785
 30
0.0
 10
122.2062778955742
 20
15.89326818076977
 30
0.0
 10
122.788355581698
 20
15.89326818076977
 30
0.0
 10
123.3704332678219
 20
15.89326818076977
 30
0.0
 10
123.8396114811637
 20
15.42408458459785
 30
0.0
 10
123.8396114811637
 20
14.84201766413431
 30
0.0
 10
123.8396114811637
 20
14.25995074366948
 30
0.0
 10
123.3704332678219
 20
13.7907671474982
 30
0.0
 10
122.788355581698
 20
13.7907671474982
 30
0.0
  0
SPLINE
  5
9E
330
79
100
AcDbEntity
  8
Ebene 1
 62
     5
420
      255
370
     9
100
AcDbSpline
210
0.0
220
0.0
230
1.0
 70
     9
 71
     3
 72
    17
 73
    13
 74
     0
 42
0.0000000001
 43
0.0000000001
 40
0.0
 40
0.0
 40
0.0
 40
0.0
 40
1.0
 40
1.0
 40
1.0
 40
2.0
 40
2.0
 40
2.0
 40
3.0
 40
3.0
 40
3.0
 40
4.0
 40
4.0
 40
4.0
 40
4.0
 10
122.788355581698
 20
95.31924428973546
 30
0.0
 10
123.3669021314557
 20
95.31924428973546
 30
0.0
 10
123.8396114811637
 20
94.85006136641739
 30
0.0
 10
123.8396114811637
 20
94.26799242739198
 30
0.0
 10
123.8396114811637
 20
93.6859234883669
 30
0.0
 10
123.3704332678219
 20
93.21674056504882
 30
0.0
 10
122.788355581698
 20
93.21674056504882
 30
0.0
 10
122.2062778955742
 20
93.21674056504882
 30
0.0
 10
121.7370996822324
 20
93.6859234883669
 30
0.0
 10
121.7370996822324
 20
94.26799242739198
 30
0.0
 10
121.7370996822324
 20
94.85006136641739
 30
0.0
 10
122.2062778955742
 20
95.31924428973546
 30
0.0
 10
122.788355581698
 20
95.31924428973546
 30
0.0
  0
SPLINE
  5
9F
330
79
100
AcDbEntity
  8
Ebene 1
 62
     5
420
      255
370
     9
100
AcDbSpline
210
0.0
220
0.0
230
1.0
 70
     9
 71
     3
 72
    56
 73
    52
 74
     0
 42
0.0000000001
 43
0.0000000001
 40
0.0
 40
0.0
 40
0.0
 40
0.0
 40
1.0
 40
1.0
 40
1.0
 40
2.0
 40
2.0
 40
2.0
 40
3.0
 40
3.0
 40
3.0
 40
4.0
 40
4.0
 40
4.0
 40
5.0
 40
5.0
 40
5.0
 40
6.0
 40
6.0
 40
6.0
 40
7.0
 40
7.0
 40
7.0
 40
8.0
 40
8.0
 40
8.0
 40
9.0
 40
9.0
 40
9.0
 40
10.0
 40
10.0
 40
10.0
 40
11.0
 40
11.0
 40
11.0
 40
12.0
 40
12.0
 40
12.0
 40
13.0
 40
13.0
 40
13.0
 40
14.0
 40
14.0
 40
14.0
 40
15.0
 40
15.0
 40
15.0
 40
16.0
 40
16.0
 40
16.0
 40
17.0
 40
17.0
 40
17.0
 40
17.0
 10
120.8834044030609
 20
96.88201149950023
 30
0.0
 10
120.4953562008649
 20
96.88201149950023
 30
0.0
 10
120.1849176391081
 20
96.56804701599364
 30
0.0
 10
120.1849176391081
 20
96.18352860445646
 30
0.0
 10
120.1849176391081
 20
96.18352860445646
 30
0.0
 10
120.1849176391081
 20
0.748891776963654
 30
0.0
 10
120.1849176391081
 20
0.748891776963654
 30
0.0
 10
120.1849176391081
 20
0.3608435747676451
 30
0.0
 10
120.4988873372311
 20
0.0504050130108381
 30
0.0
 10
120.8834044030609
 20
0.0504050130108381
 30
0.0
 10
120.8834044030609
 20
0.0504050130108381
 30
0.0
 10
135.4562965298418
 20
0.0504050130108381
 30
0.0
 10
135.4562965298418
 20
0.0504050130108381
 30
0.0
 10
135.4562965298418
 20
0.0504050130108381
 30
0.0
 10
127.744757629389
 20
13.41330158874119
 30
0.0
 10
127.744757629389
 20
13.41330158874119
 30
0.0
 10
127.5507389111208
 20
13.74843119091206
 30
0.0
 10
127.6671479889498
 20
14.17528421332799
 30
0.0
 10
128.0022829739508
 20
14.36930831442567
 30
0.0
 10
128.0022829739508
 20
14.36930831442567
 30
0.0
 10
136.489907513136
 20
19.26927139138557
 30
0.0
 10
136.489907513136
 20
19.26927139138557
 30
0.0
 10
140.8642426403628
 20
21.79509969353637
 30
0.0
 10
145.4537725383953
 20
23.98226725714943
 30
0.0
 10
150.0609365869397
 20
25.75669557815306
 30
0.0
 10
150.0609365869397
 20
25.75669557815306
 30
0.0
 10
150.0891533808905
 20
88.20388945382068
 30
0.0
 10
150.0891533808905
 20
88.20388945382068
 30
0.0
 10
150.0891533808905
 20
88.59193563745547
 30
0.0
 10
150.4031230790135
 20
88.90237218065104
 30
0.0
 10
150.7911605155499
 20
88.90237218065104
 30
0.0
 10
150.7911605155499
 20
88.90237218065104
 30
0.0
 10
169.0857734813866
 20
88.90237218065104
 30
0.0
 10
169.0857734813866
 20
88.90237218065104
 30
0.0
 10
169.0857734813866
 20
88.90237218065104
 30
0.0
 10
169.0857734813866
 20
91.21300974911845
 30
0.0
 10
169.0857734813866
 20
91.21300974911845
 30
0.0
 10
169.0857734813866
 20
91.60105593275323
 30
0.0
 10
169.3997431795096
 20
91.91502024804645
 30
0.0
 10
169.787780616046
 20
91.91502024804645
 30
0.0
 10
169.787780616046
 20
91.91502024804645
 30
0.0
 10
188.1106103758335
 20
91.91502024804645
 30
0.0
 10
188.1106103758335
 20
91.91502024804645
 30
0.0
 10
188.1106103758335
 20
91.91502024804645
 30
0.0
 10
188.096507361688
 20
96.88553742125
 30
0.0
 10
188.096507361688
 20
96.88553742125
 30
0.0
 10
188.096507361688
 20
96.88553742125
 30
0.0
 10
120.8834044030609
 20
96.88553742125
 30
0.0
 10
120.8834044030609
 20
96.88553742125
 30
0.0
 10
120.8834044030609
 20
96.88553742125
 30
0.0
 10
120.8834044030609
 20
96.88201149950023
 30
0.0
 10
120.8834044030609
 20
96.88201149950023
 30
0.0
  0
SPLINE
  5
A0
330
79
100
AcDbEntity
  8
Ebene 1
 62
     5
420
      255
370
     9
100
AcDbSpline
210
0.0
220
0.0
230
1.0
 70
     9
 71
     3
 72
    17
 73
    13
 74
     0
 42
0.0000000001
 43
0.0000000001
 40
0.0
 40
0.0
 40
0.0
 40
0.0
 40
1.0
 40
1.0
 40
1.0
 40
2.0
 40
2.0
 40
2.0
 40
3.0
 40
3.0
 40
3.0
 40
4.0
 40
4.0
 40
4.0
 40
4.0
 10
183.4505438757538
 20
70.42432717710757
 30
0.0
 10
183.4505438757538
 20
71.00286834403537
 30
0.0
 10
183.9197328547552
 20
71.47558038515843
 30
0.0
 10
184.5017890095598
 20
71.47558038515843
 30
0.0
 10
185.0838451643643
 20
71.47558038515843
 30
0.0
 10
185.5530341433658
 20
71.00639678898651
 30
0.0
 10
185.5530341433658
 20
70.42432717710757
 30
0.0
 10
185.5530341433658
 20
69.84225756522862
 30
0.0
 10
185.0838451643643
 20
69.3730739690567
 30
0.0
 10
184.5017890095598
 20
69.3730739690567
 30
0.0
 10
183.9197328547552
 20
69.3730739690567
 30
0.0
 10
183.4505438757538
 20
69.84225756522862
 30
0.0
 10
183.4505438757538
 20
70.42432717710757
 30
0.0
  0
SPLINE
  5
A1
330
79
100
AcDbEntity
  8
Ebene 1
 62
     5
420
      255
370
     9
100
AcDbSpline
210
0.0
220
0.0
230
1.0
 70
     9
 71
     3
 72
    17
 73
    13
 74
     0
 42
0.0000000001
 43
0.0000000001
 40
0.0
 40
0.0
 40
0.0
 40
0.0
 40
1.0
 40
1.0
 40
1.0
 40
2.0
 40
2.0
 40
2.0
 40
3.0
 40
3.0
 40
3.0
 40
4.0
 40
4.0
 40
4.0
 40
4.0
 10
184.4594584358038
 20
85.26532460047455
 30
0.0
 10
184.4594584358038
 20
85.84386576740204
 30
0.0
 10
184.9286474148052
 20
86.31657646281771
 30
0.0
 10
185.5107035696097
 20
86.31657646281771
 30
0.0
 10
186.0927597244143
 20
86.31657646281771
 30
0.0
 10
186.5619487034157
 20
85.84739286664612
 30
0.0
 10
186.5619487034157
 20
85.26532460047455
 30
0.0
 10
186.5619487034157
 20
84.68325633430266
 30
0.0
 10
186.0927597244143
 20
84.21407273813107
 30
0.0
 10
185.5107035696097
 20
84.21407273813107
 30
0.0
 10
184.9286474148052
 20
84.21407273813107
 30
0.0
 10
184.4594584358038
 20
84.68325633430266
 30
0.0
 10
184.4594584358038
 20
85.26532460047455
 30
0.0
  0
SPLINE
  5
A2
330
79
100
AcDbEntity
  8
Ebene 1
 62
     5
420
      255
370
     9
100
AcDbSpline
210
0.0
220
0.0
230
1.0
 70
    11
 71
     3
 72
    44
 73
    40
 74
     0
 42
0.0000000001
 43
0.0000000001
 40
0.0
 40
0.0
 40
0.0
 40
0.0
 40
1.0
 40
1.0
 40
1.0
 40
2.0
 40
2.0
 40
2.0
 40
3.0
 40
3.0
 40
3.0
 40
4.0
 40
4.0
 40
4.0
 40
5.0
 40
5.0
 40
5.0
 40
6.0
 40
6.0
 40
6.0
 40
7.0
 40
7.0
 40
7.0
 40
8.0
 40
8.0
 40
8.0
 40
9.0
 40
9.0
 40
9.0
 40
10.0
 40
10.0
 40
10.0
 40
11.0
 40
11.0
 40
11.0
 40
12.0
 40
12.0
 40
12.0
 40
13.0
 40
13.0
 40
13.0
 40
13.0
 10
188.1106103758335
 20
47.46611119199473
 30
0.0
 10
188.1106103758335
 20
47.46611119199473
 30
0.0
 10
188.1106103758335
 20
89.7701859496038
 30
0.0
 10
188.1106103758335
 20
89.7701859496038
 30
0.0
 10
188.1106103758335
 20
89.7701859496038
 30
0.0
 10
182.5192281904834
 20
89.78076926589665
 30
0.0
 10
182.5192281904834
 20
89.78076926589665
 30
0.0
 10
182.5192281904834
 20
89.78076926589665
 30
0.0
 10
180.9458700948214
 20
67.27762713427297
 30
0.0
 10
180.9458700948214
 20
67.27762713427297
 30
0.0
 10
180.9458700948214
 20
67.27762713427297
 30
0.0
 10
180.9458700948214
 20
67.27762713427297
 30
0.0
 10
180.9458700948214
 20
67.27762713427297
 30
0.0
 10
180.9458700948214
 20
67.27762713427297
 30
0.0
 10
152.4139006920407
 20
69.25313375486151
 30
0.0
 10
152.4139006920407
 20
69.25313375486151
 30
0.0
 10
151.6907282705033
 20
69.30252121852042
 30
0.0
 10
151.5637257835757
 20
68.24421381198203
 30
0.0
 10
152.2763155616741
 20
68.12074515283538
 30
0.0
 10
152.2763155616741
 20
68.12074515283538
 30
0.0
 10
168.182674590067
 20
65.33033999904998
 30
0.0
 10
168.182674590067
 20
65.33033999904998
 30
0.0
 10
168.5636605195306
 20
65.26331300204978
 30
0.0
 10
168.8176547277262
 20
64.89996122309799
 30
0.0
 10
168.7506277307259
 20
64.51896991080459
 30
0.0
 10
168.7506277307259
 20
64.51896991080459
 30
0.0
 10
165.621567221233
 20
46.76762981087207
 30
0.0
 10
165.621567221233
 20
46.76762981087207
 30
0.0
 10
165.621567221233
 20
46.76762981087207
 30
0.0
 10
187.4121128462211
 20
46.76762981087207
 30
0.0
 10
187.4121128462211
 20
46.76762981087207
 30
0.0
 10
187.8001502827574
 20
46.76762981087207
 30
0.0
 10
188.1105888445142
 20
47.08159412616558
 30
0.0
 10
188.1105888445142
 20
47.46611119199473
 30
0.0
 10
188.1105888445142
 20
47.46611119199473
 30
0.0
 10
188.1105888445142
 20
47.46611119199473
 30
0.0
 10
188.1105888445142
 20
47.46611119199473
 30
0.0
 10
188.1105888445142
 20
47.46611119199473
 30
0.0
 10
188.1106103758335
 20
47.46611119199473
 30
0.0
 10
188.1106103758335
 20
47.46611119199473
 30
0.0
  0
SPLINE
  5
A3
330
79
100
AcDbEntity
  8
Ebene 1
 62
     5
420
      255
370
     9
100
AcDbSpline
210
0.0
220
0.0
230
1.0
 70
     9
 71
     3
 72
    20
 73
    16
 74
     0
 42
0.0000000001
 43
0.0000000001
 40
0.0
 40
0.0
 40
0.0
 40
0.0
 40
1.0
 40
1.0
 40
1.0
 40
2.0
 40
2.0
 40
2.0
 40
3.0
 40
3.0
 40
3.0
 40
4.0
 40
4.0
 40
4.0
 40
5.0
 40
5.0
 40
5.0
 40
5.0
 10
53.68793559494557
 20
71.67313023979282
 30
0.0
 10
53.68793559494557
 20
78.43571392163326
 30
0.0
 10
59.17349672873555
 20
83.92127505542356
 30
0.0
 10
65.93608041057632
 20
83.92127505542356
 30
0.0
 10
72.69866409241709
 20
83.92127505542356
 30
0.0
 10
78.18422522620706
 20
78.43571526734097
 30
0.0
 10
78.18422522620706
 20
71.67313023979282
 30
0.0
 10
78.18422522620706
 20
64.91054386653698
 30
0.0
 10
72.70219522878329
 20
59.42498542416207
 30
0.0
 10
65.93608041057632
 20
59.42498542416207
 30
0.0
 10
59.16996559236933
 20
59.42498542416207
 30
0.0
 10
53.68793559494557
 20
64.91054655795173
 30
0.0
 10
53.68793559494557
 20
71.67313023979282
 30
0.0
 10
53.68793559494557
 20
71.67313023979282
 30
0.0
 10
53.68793559494557
 20
71.67313023979282
 30
0.0
 10
53.68793559494557
 20
71.67313023979282
 30
0.0
  0
SPLINE
  5
A4
330
79
100
AcDbEntity
  8
Ebene 1
 62
     5
420
      255
370
     9
100
AcDbSpline
210
0.0
220
0.0
230
1.0
 70
     9
 71
     3
 72
    20
 73
    16
 74
     0
 42
0.0000000001
 43
0.0000000001
 40
0.0
 40
0.0
 40
0.0
 40
0.0
 40
1.0
 40
1.0
 40
1.0
 40
2.0
 40
2.0
 40
2.0
 40
3.0
 40
3.0
 40
3.0
 40
4.0
 40
4.0
 40
4.0
 40
5.0
 40
5.0
 40
5.0
 40
5.0
 10
51.18680371603899
 20
71.67313023979282
 30
0.0
 10
51.18680371603899
 20
63.52768950126638
 30
0.0
 10
57.79064236346496
 20
56.92385085384042
 30
0.0
 10
65.93608041057632
 20
56.92385085384042
 30
0.0
 10
74.08151845768768
 20
56.92385085384042
 30
0.0
 10
80.68535710511365
 20
63.52768950126638
 30
0.0
 10
80.68535710511365
 20
71.67312754837775
 30
0.0
 10
80.68535710511365
 20
79.8185655954891
 30
0.0
 10
74.08151845768768
 20
86.42240558862246
 30
0.0
 10
65.93608041057632
 20
86.42240558862246
 30
0.0
 10
57.79064236346496
 20
86.42240558862246
 30
0.0
 10
51.18680371603899
 20
79.81856828690418
 30
0.0
 10
51.18680371603899
 20
71.67312754837775
 30
0.0
 10
51.18680371603899
 20
71.67312754837775
 30
0.0
 10
51.18680371603899
 20
71.67312754837775
 30
0.0
 10
51.18680371603899
 20
71.67313023979282
 30
0.0
  0
SPLINE
  5
A5
330
79
100
AcDbEntity
  8
Ebene 1
 62
     5
420
      255
370
     9
100
AcDbSpline
210
0.0
220
0.0
230
1.0
 70
    11
 71
     3
 72
    17
 73
    13
 74
     0
 42
0.0000000001
 43
0.0000000001
 40
0.0
 40
0.0
 40
0.0
 40
0.0
 40
1.0
 40
1.0
 40
1.0
 40
2.0
 40
2.0
 40
2.0
 40
3.0
 40
3.0
 40
3.0
 40
4.0
 40
4.0
 40
4.0
 40
4.0
 10
29.53029324514675
 20
70.40668495235088
 30
0.0
 10
28.94822363326781
 20
70.40668495235088
 30
0.0
 10
28.47904003709622
 20
70.8758685485228
 30
0.0
 10
28.47904003709622
 20
71.45793816040175
 30
0.0
 10
28.47904003709622
 20
72.04000777228069
 30
0.0
 10
28.94822363326781
 20
72.50919136845261
 30
0.0
 10
29.53029324514675
 20
72.50919136845261
 30
0.0
 10
30.11236285702602
 20
72.50919136845261
 30
0.0
 10
30.58154645319762
 20
72.03648201874462
 30
0.0
 10
30.58154645319762
 20
71.45793816040175
 30
0.0
 10
30.58154645319762
 20
70.87939430205889
 30
0.0
 10
30.11236285702602
 20
70.40668495235088
 30
0.0
 10
29.53029324514675
 20
70.40668495235088
 30
0.0
  0
SPLINE
  5
A6
330
79
100
AcDbEntity
  8
Ebene 1
 62
     5
420
      255
370
     9
100
AcDbSpline
210
0.0
220
0.0
230
1.0
 70
    11
 71
     3
 72
    17
 73
    13
 74
     0
 42
0.0000000001
 43
0.0000000001
 40
0.0
 40
0.0
 40
0.0
 40
0.0
 40
1.0
 40
1.0
 40
1.0
 40
2.0
 40
2.0
 40
2.0
 40
3.0
 40
3.0
 40
3.0
 40
4.0
 40
4.0
 40
4.0
 40
4.0
 10
28.75772797712095
 20
81.98104077298074
 30
0.0
 10
28.17565836524202
 20
81.98104077298074
 30
0.0
 10
27.70647476907042
 20
82.45022436915233
 30
0.0
 10
27.70647476907042
 20
83.0322926353239
 30
0.0
 10
27.70647476907042
 20
83.61436090149545
 30
0.0
 10
28.17565836524202
 20
84.08354449766706
 30
0.0
 10
28.75772797712095
 20
84.08354449766706
 30
0.0
 10
29.33979758900022
 20
84.08354449766706
 30
0.0
 10
29.80898118517182
 20
83.61083380225169
 30
0.0
 10
29.80898118517182
 20
83.0322926353239
 30
0.0
 10
29.80898118517182
 20
82.45375146839609
 30
0.0
 10
29.33979758900022
 20
81.98104077298074
 30
0.0
 10
28.75772797712095
 20
81.98104077298074
 30
0.0
  0
SPLINE
  5
A7
330
79
100
AcDbEntity
  8
Ebene 1
 62
     5
420
      255
370
     9
100
AcDbSpline
210
0.0
220
0.0
230
1.0
 70
    11
 71
     3
 72
    17
 73
    13
 74
     0
 42
0.0000000001
 43
0.0000000001
 40
0.0
 40
0.0
 40
0.0
 40
0.0
 40
1.0
 40
1.0
 40
1.0
 40
2.0
 40
2.0
 40
2.0
 40
3.0
 40
3.0
 40
3.0
 40
4.0
 40
4.0
 40
4.0
 40
4.0
 10
38.93511699838237
 20
66.12759630749017
 30
0.0
 10
39.21380493840743
 20
66.12759630749017
 30
0.0
 10
39.43604852487096
 20
65.90535272102663
 30
0.0
 10
39.43604852487096
 20
65.62666478100158
 30
0.0
 10
39.43604852487096
 20
65.34797684097651
 30
0.0
 10
39.21380493840743
 20
65.12573325451298
 30
0.0
 10
38.93511699838237
 20
65.12573325451298
 30
0.0
 10
38.65642905835731
 20
65.12573325451298
 30
0.0
 10
38.43418547189377
 20
65.35150528592798
 30
0.0
 10
38.43418547189377
 20
65.62666478100158
 30
0.0
 10
38.43418547189377
 20
65.90182427607517
 30
0.0
 10
38.65642905835731
 20
66.12759630749017
 30
0.0
 10
38.93511699838237
 20
66.12759630749017
 30
0.0
  0
SPLINE
  5
A8
330
79
100
AcDbEntity
  8
Ebene 1
 62
     5
420
      255
370
     9
100
AcDbSpline
210
0.0
220
0.0
230
1.0
 70
    11
 71
     3
 72
    17
 73
    13
 74
     0
 42
0.0000000001
 43
0.0000000001
 40
0.0
 40
0.0
 40
0.0
 40
0.0
 40
1.0
 40
1.0
 40
1.0
 40
2.0
 40
2.0
 40
2.0
 40
3.0
 40
3.0
 40
3.0
 40
4.0
 40
4.0
 40
4.0
 40
4.0
 10
36.93491664596438
 20
66.12759630749017
 30
0.0
 10
37.21360458598912
 20
66.12759630749017
 30
0.0
 10
37.43584817245297
 20
65.90535272102663
 30
0.0
 10
37.43584817245297
 20
65.62666478100158
 30
0.0
 10
37.43584817245297
 20
65.34797684097651
 30
0.0
 10
37.21360458598912
 20
65.12573325451298
 30
0.0
 10
36.93491664596438
 20
65.12573325451298
 30
0.0
 10
36.65622870593964
 20
65.12573325451298
 30
0.0
 10
36.43398511947579
 20
65.35150528592798
 30
0.0
 10
36.43398511947579
 20
65.62666478100158
 30
0.0
 10
36.43398511947579
 20
65.90182427607517
 30
0.0
 10
36.65622870593964
 20
66.12759630749017
 30
0.0
 10
36.93491664596438
 20
66.12759630749017
 30
0.0
  0
SPLINE
  5
A9
330
79
100
AcDbEntity
  8
Ebene 1
 62
     5
420
      255
370
     9
100
AcDbSpline
210
0.0
220
0.0
230
1.0
 70
    11
 71
     3
 72
    17
 73
    13
 74
     0
 42
0.0000000001
 43
0.0000000001
 40
0.0
 40
0.0
 40
0.0
 40
0.0
 40
1.0
 40
1.0
 40
1.0
 40
2.0
 40
2.0
 40
2.0
 40
3.0
 40
3.0
 40
3.0
 40
4.0
 40
4.0
 40
4.0
 40
4.0
 10
34.93471629354639
 20
66.12759630749017
 30
0.0
 10
35.21340423357145
 20
66.12759630749017
 30
0.0
 10
35.43564782003499
 20
65.90535272102663
 30
0.0
 10
35.43564782003499
 20
65.62666478100158
 30
0.0
 10
35.43564782003499
 20
65.34797684097651
 30
0.0
 10
35.21340423357145
 20
65.12573325451298
 30
0.0
 10
34.93471629354639
 20
65.12573325451298
 30
0.0
 10
34.65602835352133
 20
65.12573325451298
 30
0.0
 10
34.4337847670578
 20
65.35150528592798
 30
0.0
 10
34.4337847670578
 20
65.62666478100158
 30
0.0
 10
34.4337847670578
 20
65.90182427607517
 30
0.0
 10
34.65602835352133
 20
66.12759630749017
 30
0.0
 10
34.93471629354639
 20
66.12759630749017
 30
0.0
  0
SPLINE
  5
AA
330
79
100
AcDbEntity
  8
Ebene 1
 62
     5
420
      255
370
     9
100
AcDbSpline
210
0.0
220
0.0
230
1.0
 70
    11
 71
     3
 72
    17
 73
    13
 74
     0
 42
0.0000000001
 43
0.0000000001
 40
0.0
 40
0.0
 40
0.0
 40
0.0
 40
1.0
 40
1.0
 40
1.0
 40
2.0
 40
2.0
 40
2.0
 40
3.0
 40
3.0
 40
3.0
 40
4.0
 40
4.0
 40
4.0
 40
4.0
 10
32.9345159411284
 20
66.12759630749017
 30
0.0
 10
33.21320388115314
 20
66.12759630749017
 30
0.0
 10
33.435447467617
 20
65.90535272102663
 30
0.0
 10
33.435447467617
 20
65.62666478100158
 30
0.0
 10
33.435447467617
 20
65.34797684097651
 30
0.0
 10
33.21320388115314
 20
65.12573325451298
 30
0.0
 10
32.9345159411284
 20
65.12573325451298
 30
0.0
 10
32.65582800110367
 20
65.12573325451298
 30
0.0
 10
32.43358441463981
 20
65.35150528592798
 30
0.0
 10
32.43358441463981
 20
65.62666478100158
 30
0.0
 10
32.43358441463981
 20
65.90182427607517
 30
0.0
 10
32.65582800110367
 20
66.12759630749017
 30
0.0
 10
32.9345159411284
 20
66.12759630749017
 30
0.0
  0
SPLINE
  5
AB
330
79
100
AcDbEntity
  8
Ebene 1
 62
     5
420
      255
370
     9
100
AcDbSpline
210
0.0
220
0.0
230
1.0
 70
    11
 71
     3
 72
    17
 73
    13
 74
     0
 42
0.0000000001
 43
0.0000000001
 40
0.0
 40
0.0
 40
0.0
 40
0.0
 40
1.0
 40
1.0
 40
1.0
 40
2.0
 40
2.0
 40
2.0
 40
3.0
 40
3.0
 40
3.0
 40
4.0
 40
4.0
 40
4.0
 40
4.0
 10
30.93431558871042
 20
66.12759630749017
 30
0.0
 10
31.21300352873548
 20
66.12759630749017
 30
0.0
 10
31.43524711519901
 20
65.90535272102663
 30
0.0
 10
31.43524711519901
 20
65.62666478100158
 30
0.0
 10
31.43524711519901
 20
65.34797684097651
 30
0.0
 10
31.21300352873548
 20
65.12573325451298
 30
0.0
 10
30.93431558871042
 20
65.12573325451298
 30
0.0
 10
30.65562764868535
 20
65.12573325451298
 30
0.0
 10
30.43338406222182
 20
65.35150528592798
 30
0.0
 10
30.43338406222182
 20
65.62666478100158
 30
0.0
 10
30.43338406222182
 20
65.90182427607517
 30
0.0
 10
30.65562764868535
 20
66.12759630749017
 30
0.0
 10
30.93431558871042
 20
66.12759630749017
 30
0.0
  0
SPLINE
  5
AC
330
79
100
AcDbEntity
  8
Ebene 1
 62
     5
420
      255
370
     9
100
AcDbSpline
210
0.0
220
0.0
230
1.0
 70
    11
 71
     3
 72
    17
 73
    13
 74
     0
 42
0.0000000001
 43
0.0000000001
 40
0.0
 40
0.0
 40
0.0
 40
0.0
 40
1.0
 40
1.0
 40
1.0
 40
2.0
 40
2.0
 40
2.0
 40
3.0
 40
3.0
 40
3.0
 40
4.0
 40
4.0
 40
4.0
 40
4.0
 10
38.93511968979712
 20
64.12739595507218
 30
0.0
 10
39.21380762982218
 20
64.12739595507218
 30
0.0
 10
39.43605121628604
 20
63.90515236860832
 30
0.0
 10
39.43605121628604
 20
63.62646442858359
 30
0.0
 10
39.43605121628604
 20
63.34777648855885
 30
0.0
 10
39.21380762982218
 20
63.125532902095
 30
0.0
 10
38.93511968979712
 20
63.125532902095
 30
0.0
 10
38.65643174977238
 20
63.125532902095
 30
0.0
 10
38.43418816330885
 20
63.35130493350999
 30
0.0
 10
38.43418816330885
 20
63.62646442858359
 30
0.0
 10
38.43418816330885
 20
63.90162392365718
 30
0.0
 10
38.65643174977238
 20
64.12739595507218
 30
0.0
 10
38.93511968979712
 20
64.12739595507218
 30
0.0
  0
SPLINE
  5
AD
330
79
100
AcDbEntity
  8
Ebene 1
 62
     5
420
      255
370
     9
100
AcDbSpline
210
0.0
220
0.0
230
1.0
 70
    11
 71
     3
 72
    17
 73
    13
 74
     0
 42
0.0000000001
 43
0.0000000001
 40
0.0
 40
0.0
 40
0.0
 40
0.0
 40
1.0
 40
1.0
 40
1.0
 40
2.0
 40
2.0
 40
2.0
 40
3.0
 40
3.0
 40
3.0
 40
4.0
 40
4.0
 40
4.0
 40
4.0
 10
36.93491933737945
 20
64.12739595507218
 30
0.0
 10
37.2136072774042
 20
64.12739595507218
 30
0.0
 10
37.43585086386773
 20
63.90515236860832
 30
0.0
 10
37.43585086386773
 20
63.62646442858359
 30
0.0
 10
37.43585086386773
 20
63.34777648855885
 30
0.0
 10
37.2136072774042
 20
63.125532902095
 30
0.0
 10
36.93491933737945
 20
63.125532902095
 30
0.0
 10
36.65623139735439
 20
63.125532902095
 30
0.0
 10
36.43398781089054
 20
63.35130493350999
 30
0.0
 10
36.43398781089054
 20
63.62646442858359
 30
0.0
 10
36.43398781089054
 20
63.90162392365718
 30
0.0
 10
36.65623139735439
 20
64.12739595507218
 30
0.0
 10
36.93491933737945
 20
64.12739595507218
 30
0.0
  0
SPLINE
  5
AE
330
79
100
AcDbEntity
  8
Ebene 1
 62
     5
420
      255
370
     9
100
AcDbSpline
210
0.0
220
0.0
230
1.0
 70
    11
 71
     3
 72
    17
 73
    13
 74
     0
 42
0.0000000001
 43
0.0000000001
 40
0.0
 40
0.0
 40
0.0
 40
0.0
 40
1.0
 40
1.0
 40
1.0
 40
2.0
 40
2.0
 40
2.0
 40
3.0
 40
3.0
 40
3.0
 40
4.0
 40
4.0
 40
4.0
 40
4.0
 10
34.93471898496114
 20
64.12739595507218
 30
0.0
 10
35.21340692498621
 20
64.12739595507218
 30
0.0
 10
35.43565051145006
 20
63.90515236860832
 30
0.0
 10
35.43565051145006
 20
63.62646442858359
 30
0.0
 10
35.43565051145006
 20
63.34777648855885
 30
0.0
 10
35.21340692498621
 20
63.125532902095
 30
0.0
 10
34.93471898496114
 20
63.125532902095
 30
0.0
 10
34.65603104493641
 20
63.125532902095
 30
0.0
 10
34.43378745847287
 20
63.35130493350999
 30
0.0
 10
34.43378745847287
 20
63.62646442858359
 30
0.0
 10
34.43378745847287
 20
63.90162392365718
 30
0.0
 10
34.65603104493641
 20
64.12739595507218
 30
0.0
 10
34.93471898496114
 20
64.12739595507218
 30
0.0
  0
SPLINE
  5
AF
330
79
100
AcDbEntity
  8
Ebene 1
 62
     5
420
      255
370
     9
100
AcDbSpline
210
0.0
220
0.0
230
1.0
 70
    11
 71
     3
 72
    17
 73
    13
 74
     0
 42
0.0000000001
 43
0.0000000001
 40
0.0
 40
0.0
 40
0.0
 40
0.0
 40
1.0
 40
1.0
 40
1.0
 40
2.0
 40
2.0
 40
2.0
 40
3.0
 40
3.0
 40
3.0
 40
4.0
 40
4.0
 40
4.0
 40
4.0
 10
32.93451863254348
 20
64.12739595507218
 30
0.0
 10
33.21320657256822
 20
64.12739595507218
 30
0.0
 10
33.43545015903175
 20
63.90515236860832
 30
0.0
 10
33.43545015903175
 20
63.62646442858359
 30
0.0
 10
33.43545015903175
 20
63.34777648855885
 30
0.0
 10
33.21320657256822
 20
63.125532902095
 30
0.0
 10
32.93451863254348
 20
63.125532902095
 30
0.0
 10
32.65583069251841
 20
63.125532902095
 30
0.0
 10
32.43358710605456
 20
63.35130493350999
 30
0.0
 10
32.43358710605456
 20
63.62646442858359
 30
0.0
 10
32.43358710605456
 20
63.90162392365718
 30
0.0
 10
32.65583069251841
 20
64.12739595507218
 30
0.0
 10
32.93451863254348
 20
64.12739595507218
 30
0.0
  0
SPLINE
  5
B0
330
79
100
AcDbEntity
  8
Ebene 1
 62
     5
420
      255
370
     9
100
AcDbSpline
210
0.0
220
0.0
230
1.0
 70
    11
 71
     3
 72
    17
 73
    13
 74
     0
 42
0.0000000001
 43
0.0000000001
 40
0.0
 40
0.0
 40
0.0
 40
0.0
 40
1.0
 40
1.0
 40
1.0
 40
2.0
 40
2.0
 40
2.0
 40
3.0
 40
3.0
 40
3.0
 40
4.0
 40
4.0
 40
4.0
 40
4.0
 10
30.93431828012517
 20
64.12739595507218
 30
0.0
 10
31.21300622015023
 20
64.12739595507218
 30
0.0
 10
31.43524980661409
 20
63.90515236860832
 30
0.0
 10
31.43524980661409
 20
63.62646442858359
 30
0.0
 10
31.43524980661409
 20
63.34777648855885
 30
0.0
 10
31.21300622015023
 20
63.125532902095
 30
0.0
 10
30.93431828012517
 20
63.125532902095
 30
0.0
 10
30.65563034010043
 20
63.125532902095
 30
0.0
 10
30.4333867536369
 20
63.35130493350999
 30
0.0
 10
30.4333867536369
 20
63.62646442858359
 30
0.0
 10
30.4333867536369
 20
63.90162392365718
 30
0.0
 10
30.65563034010043
 20
64.12739595507218
 30
0.0
 10
30.93431828012517
 20
64.12739595507218
 30
0.0
  0
SPLINE
  5
B1
330
79
100
AcDbEntity
  8
Ebene 1
 62
     5
420
      255
370
     9
100
AcDbSpline
210
0.0
220
0.0
230
1.0
 70
    11
 71
     3
 72
    17
 73
    13
 74
     0
 42
0.0000000001
 43
0.0000000001
 40
0.0
 40
0.0
 40
0.0
 40
0.0
 40
1.0
 40
1.0
 40
1.0
 40
2.0
 40
2.0
 40
2.0
 40
3.0
 40
3.0
 40
3.0
 40
4.0
 40
4.0
 40
4.0
 40
4.0
 10
38.9351223812122
 20
62.12719560265419
 30
0.0
 10
39.21381032123694
 20
62.12719560265419
 30
0.0
 10
39.43605390770079
 20
61.90495201619066
 30
0.0
 10
39.43605390770079
 20
61.6262640761656
 30
0.0
 10
39.43605390770079
 20
61.34757613614054
 30
0.0
 10
39.21381032123694
 20
61.12533254967701
 30
0.0
 10
38.9351223812122
 20
61.12533254967701
 30
0.0
 10
38.65643444118746
 20
61.12533254967701
 30
0.0
 10
38.4341908547236
 20
61.351104581092
 30
0.0
 10
38.4341908547236
 20
61.6262640761656
 30
0.0
 10
38.4341908547236
 20
61.9014235712392
 30
0.0
 10
38.65643444118746
 20
62.12719560265419
 30
0.0
 10
38.9351223812122
 20
62.12719560265419
 30
0.0
  0
SPLINE
  5
B2
330
79
100
AcDbEntity
  8
Ebene 1
 62
     5
420
      255
370
     9
100
AcDbSpline
210
0.0
220
0.0
230
1.0
 70
    11
 71
     3
 72
    17
 73
    13
 74
     0
 42
0.0000000001
 43
0.0000000001
 40
0.0
 40
0.0
 40
0.0
 40
0.0
 40
1.0
 40
1.0
 40
1.0
 40
2.0
 40
2.0
 40
2.0
 40
3.0
 40
3.0
 40
3.0
 40
4.0
 40
4.0
 40
4.0
 40
4.0
 10
36.93492202879421
 20
62.12719560265419
 30
0.0
 10
37.21360996881927
 20
62.12719560265419
 30
0.0
 10
37.4358535552828
 20
61.90495201619066
 30
0.0
 10
37.4358535552828
 20
61.6262640761656
 30
0.0
 10
37.4358535552828
 20
61.34757613614054
 30
0.0
 10
37.21360996881927
 20
61.12533254967701
 30
0.0
 10
36.93492202879421
 20
61.12533254967701
 30
0.0
 10
36.65623408876915
 20
61.12533254967701
 30
0.0
 10
36.43399050230561
 20
61.351104581092
 30
0.0
 10
36.43399050230561
 20
61.6262640761656
 30
0.0
 10
36.43399050230561
 20
61.9014235712392
 30
0.0
 10
36.65623408876915
 20
62.12719560265419
 30
0.0
 10
36.93492202879421
 20
62.12719560265419
 30
0.0
  0
SPLINE
  5
B3
330
79
100
AcDbEntity
  8
Ebene 1
 62
     5
420
      255
370
     9
100
AcDbSpline
210
0.0
220
0.0
230
1.0
 70
    11
 71
     3
 72
    17
 73
    13
 74
     0
 42
0.0000000001
 43
0.0000000001
 40
0.0
 40
0.0
 40
0.0
 40
0.0
 40
1.0
 40
1.0
 40
1.0
 40
2.0
 40
2.0
 40
2.0
 40
3.0
 40
3.0
 40
3.0
 40
4.0
 40
4.0
 40
4.0
 40
4.0
 10
34.93472167637622
 20
62.12719560265419
 30
0.0
 10
35.21340961640096
 20
62.12719560265419
 30
0.0
 10
35.43565320286481
 20
61.90495201619066
 30
0.0
 10
35.43565320286481
 20
61.6262640761656
 30
0.0
 10
35.43565320286481
 20
61.34757613614054
 30
0.0
 10
35.21340961640096
 20
61.12533254967701
 30
0.0
 10
34.93472167637622
 20
61.12533254967701
 30
0.0
 10
34.65603373635147
 20
61.12533254967701
 30
0.0
 10
34.43379014988762
 20
61.351104581092
 30
0.0
 10
34.43379014988762
 20
61.6262640761656
 30
0.0
 10
34.43379014988762
 20
61.9014235712392
 30
0.0
 10
34.65603373635147
 20
62.12719560265419
 30
0.0
 10
34.93472167637622
 20
62.12719560265419
 30
0.0
  0
SPLINE
  5
B4
330
79
100
AcDbEntity
  8
Ebene 1
 62
     5
420
      255
370
     9
100
AcDbSpline
210
0.0
220
0.0
230
1.0
 70
    11
 71
     3
 72
    17
 73
    13
 74
     0
 42
0.0000000001
 43
0.0000000001
 40
0.0
 40
0.0
 40
0.0
 40
0.0
 40
1.0
 40
1.0
 40
1.0
 40
2.0
 40
2.0
 40
2.0
 40
3.0
 40
3.0
 40
3.0
 40
4.0
 40
4.0
 40
4.0
 40
4.0
 10
32.93452132395823
 20
62.12719560265419
 30
0.0
 10
33.21320926398329
 20
62.12719560265419
 30
0.0
 10
33.43545285044682
 20
61.90495201619066
 30
0.0
 10
33.43545285044682
 20
61.6262640761656
 30
0.0
 10
33.43545285044682
 20
61.34757613614054
 30
0.0
 10
33.21320926398329
 20
61.12533254967701
 30
0.0
 10
32.93452132395823
 20
61.12533254967701
 30
0.0
 10
32.65583338393317
 20
61.12533254967701
 30
0.0
 10
32.43358979746964
 20
61.351104581092
 30
0.0
 10
32.43358979746964
 20
61.6262640761656
 30
0.0
 10
32.43358979746964
 20
61.9014235712392
 30
0.0
 10
32.65583338393317
 20
62.12719560265419
 30
0.0
 10
32.93452132395823
 20
62.12719560265419
 30
0.0
  0
SPLINE
  5
B5
330
79
100
AcDbEntity
  8
Ebene 1
 62
     5
420
      255
370
     9
100
AcDbSpline
210
0.0
220
0.0
230
1.0
 70
    11
 71
     3
 72
    17
 73
    13
 74
     0
 42
0.0000000001
 43
0.0000000001
 40
0.0
 40
0.0
 40
0.0
 40
0.0
 40
1.0
 40
1.0
 40
1.0
 40
2.0
 40
2.0
 40
2.0
 40
3.0
 40
3.0
 40
3.0
 40
4.0
 40
4.0
 40
4.0
 40
4.0
 10
30.93432097154024
 20
62.12719560265419
 30
0.0
 10
31.21300891156498
 20
62.12719560265419
 30
0.0
 10
31.43525249802884
 20
61.90495201619066
 30
0.0
 10
31.43525249802884
 20
61.6262640761656
 30
0.0
 10
31.43525249802884
 20
61.34757613614054
 30
0.0
 10
31.21300891156498
 20
61.12533254967701
 30
0.0
 10
30.93432097154024
 20
61.12533254967701
 30
0.0
 10
30.65563303151551
 20
61.12533254967701
 30
0.0
 10
30.43338944505165
 20
61.351104581092
 30
0.0
 10
30.43338944505165
 20
61.6262640761656
 30
0.0
 10
30.43338944505165
 20
61.9014235712392
 30
0.0
 10
30.65563303151551
 20
62.12719560265419
 30
0.0
 10
30.93432097154024
 20
62.12719560265419
 30
0.0
  0
SPLINE
  5
B6
330
79
100
AcDbEntity
  8
Ebene 1
 62
     5
420
      255
370
     9
100
AcDbSpline
210
0.0
220
0.0
230
1.0
 70
    11
 71
     3
 72
    17
 73
    13
 74
     0
 42
0.0000000001
 43
0.0000000001
 40
0.0
 40
0.0
 40
0.0
 40
0.0
 40
1.0
 40
1.0
 40
1.0
 40
2.0
 40
2.0
 40
2.0
 40
3.0
 40
3.0
 40
3.0
 40
4.0
 40
4.0
 40
4.0
 40
4.0
 10
38.93512507262727
 20
60.1269952502362
 30
0.0
 10
39.21381301265201
 20
60.1269952502362
 30
0.0
 10
39.43605659911554
 20
59.90475166377235
 30
0.0
 10
39.43605659911554
 20
59.62606372374761
 30
0.0
 10
39.43605659911554
 20
59.34737578372287
 30
0.0
 10
39.21381301265201
 20
59.12513219725902
 30
0.0
 10
38.93512507262727
 20
59.12513219725902
 30
0.0
 10
38.65643713260221
 20
59.12513219725902
 30
0.0
 10
38.43419354613835
 20
59.35090422867402
 30
0.0
 10
38.43419354613835
 20
59.62606372374761
 30
0.0
 10
38.43419354613835
 20
59.90122321882121
 30
0.0
 10
38.65643713260221
 20
60.1269952502362
 30
0.0
 10
38.93512507262727
 20
60.1269952502362
 30
0.0
  0
SPLINE
  5
B7
330
79
100
AcDbEntity
  8
Ebene 1
 62
     5
420
      255
370
     9
100
AcDbSpline
210
0.0
220
0.0
230
1.0
 70
    11
 71
     3
 72
    17
 73
    13
 74
     0
 42
0.0000000001
 43
0.0000000001
 40
0.0
 40
0.0
 40
0.0
 40
0.0
 40
1.0
 40
1.0
 40
1.0
 40
2.0
 40
2.0
 40
2.0
 40
3.0
 40
3.0
 40
3.0
 40
4.0
 40
4.0
 40
4.0
 40
4.0
 10
36.93492472020896
 20
60.1269952502362
 30
0.0
 10
37.21361266023402
 20
60.1269952502362
 30
0.0
 10
37.43585624669787
 20
59.90475166377235
 30
0.0
 10
37.43585624669787
 20
59.62606372374761
 30
0.0
 10
37.43585624669787
 20
59.34737578372287
 30
0.0
 10
37.21361266023402
 20
59.12513219725902
 30
0.0
 10
36.93492472020896
 20
59.12513219725902
 30
0.0
 10
36.65623678018422
 20
59.12513219725902
 30
0.0
 10
36.43399319372069
 20
59.35090422867402
 30
0.0
 10
36.43399319372069
 20
59.62606372374761
 30
0.0
 10
36.43399319372069
 20
59.90122321882121
 30
0.0
 10
36.65623678018422
 20
60.1269952502362
 30
0.0
 10
36.93492472020896
 20
60.1269952502362
 30
0.0
  0
SPLINE
  5
B8
330
79
100
AcDbEntity
  8
Ebene 1
 62
     5
420
      255
370
     9
100
AcDbSpline
210
0.0
220
0.0
230
1.0
 70
    11
 71
     3
 72
    17
 73
    13
 74
     0
 42
0.0000000001
 43
0.0000000001
 40
0.0
 40
0.0
 40
0.0
 40
0.0
 40
1.0
 40
1.0
 40
1.0
 40
2.0
 40
2.0
 40
2.0
 40
3.0
 40
3.0
 40
3.0
 40
4.0
 40
4.0
 40
4.0
 40
4.0
 10
34.93472436779129
 20
60.1269952502362
 30
0.0
 10
35.21341230781603
 20
60.1269952502362
 30
0.0
 10
35.43565589427956
 20
59.90475166377235
 30
0.0
 10
35.43565589427956
 20
59.62606372374761
 30
0.0
 10
35.43565589427956
 20
59.34737578372287
 30
0.0
 10
35.21341230781603
 20
59.12513219725902
 30
0.0
 10
34.93472436779129
 20
59.12513219725902
 30
0.0
 10
34.65603642776623
 20
59.12513219725902
 30
0.0
 10
34.43379284130238
 20
59.35090422867402
 30
0.0
 10
34.43379284130238
 20
59.62606372374761
 30
0.0
 10
34.43379284130238
 20
59.90122321882121
 30
0.0
 10
34.65603642776623
 20
60.1269952502362
 30
0.0
 10
34.93472436779129
 20
60.1269952502362
 30
0.0
  0
SPLINE
  5
B9
330
79
100
AcDbEntity
  8
Ebene 1
 62
     5
420
      255
370
     9
100
AcDbSpline
210
0.0
220
0.0
230
1.0
 70
    11
 71
     3
 72
    17
 73
    13
 74
     0
 42
0.0000000001
 43
0.0000000001
 40
0.0
 40
0.0
 40
0.0
 40
0.0
 40
1.0
 40
1.0
 40
1.0
 40
2.0
 40
2.0
 40
2.0
 40
3.0
 40
3.0
 40
3.0
 40
4.0
 40
4.0
 40
4.0
 40
4.0
 10
32.93452401537299
 20
60.1269952502362
 30
0.0
 10
33.21321195539804
 20
60.1269952502362
 30
0.0
 10
33.4354555418619
 20
59.90475166377235
 30
0.0
 10
33.4354555418619
 20
59.62606372374761
 30
0.0
 10
33.4354555418619
 20
59.34737578372287
 30
0.0
 10
33.21321195539804
 20
59.12513219725902
 30
0.0
 10
32.93452401537299
 20
59.12513219725902
 30
0.0
 10
32.65583607534824
 20
59.12513219725902
 30
0.0
 10
32.43359248888471
 20
59.35090422867402
 30
0.0
 10
32.43359248888471
 20
59.62606372374761
 30
0.0
 10
32.43359248888471
 20
59.90122321882121
 30
0.0
 10
32.65583607534824
 20
60.1269952502362
 30
0.0
 10
32.93452401537299
 20
60.1269952502362
 30
0.0
  0
SPLINE
  5
BA
330
79
100
AcDbEntity
  8
Ebene 1
 62
     5
420
      255
370
     9
100
AcDbSpline
210
0.0
220
0.0
230
1.0
 70
    11
 71
     3
 72
    17
 73
    13
 74
     0
 42
0.0000000001
 43
0.0000000001
 40
0.0
 40
0.0
 40
0.0
 40
0.0
 40
1.0
 40
1.0
 40
1.0
 40
2.0
 40
2.0
 40
2.0
 40
3.0
 40
3.0
 40
3.0
 40
4.0
 40
4.0
 40
4.0
 40
4.0
 10
30.93432366295532
 20
60.1269952502362
 30
0.0
 10
31.21301160298006
 20
60.1269952502362
 30
0.0
 10
31.43525518944359
 20
59.90475166377235
 30
0.0
 10
31.43525518944359
 20
59.62606372374761
 30
0.0
 10
31.43525518944359
 20
59.34737578372287
 30
0.0
 10
31.21301160298006
 20
59.12513219725902
 30
0.0
 10
30.93432366295532
 20
59.12513219725902
 30
0.0
 10
30.65563572293026
 20
59.12513219725902
 30
0.0
 10
30.4333921364664
 20
59.35090422867402
 30
0.0
 10
30.4333921364664
 20
59.62606372374761
 30
0.0
 10
30.4333921364664
 20
59.90122321882121
 30
0.0
 10
30.65563572293026
 20
60.1269952502362
 30
0.0
 10
30.93432366295532
 20
60.1269952502362
 30
0.0
  0
SPLINE
  5
BB
330
79
100
AcDbEntity
  8
Ebene 1
 62
     5
420
      255
370
     9
100
AcDbSpline
210
0.0
220
0.0
230
1.0
 70
    11
 71
     3
 72
    17
 73
    13
 74
     0
 42
0.0000000001
 43
0.0000000001
 40
0.0
 40
0.0
 40
0.0
 40
0.0
 40
1.0
 40
1.0
 40
1.0
 40
2.0
 40
2.0
 40
2.0
 40
3.0
 40
3.0
 40
3.0
 40
4.0
 40
4.0
 40
4.0
 40
4.0
 10
38.93512776404202
 20
58.12679489781821
 30
0.0
 10
39.21381570406708
 20
58.12679489781821
 30
0.0
 10
39.43605929053062
 20
57.90455131135469
 30
0.0
 10
39.43605929053062
 20
57.62586337132962
 30
0.0
 10
39.43605929053062
 20
57.34717543130456
 30
0.0
 10
39.21381570406708
 20
57.12493184484102
 30
0.0
 10
38.93512776404202
 20
57.12493184484102
 30
0.0
 10
38.65643982401696
 20
57.12493184484102
 30
0.0
 10
38.43419623755343
 20
57.35070387625603
 30
0.0
 10
38.43419623755343
 20
57.62586337132962
 30
0.0
 10
38.43419623755343
 20
57.90102286640322
 30
0.0
 10
38.65643982401696
 20
58.12679489781821
 30
0.0
 10
38.93512776404202
 20
58.12679489781821
 30
0.0
  0
SPLINE
  5
BC
330
79
100
AcDbEntity
  8
Ebene 1
 62
     5
420
      255
370
     9
100
AcDbSpline
210
0.0
220
0.0
230
1.0
 70
    11
 71
     3
 72
    17
 73
    13
 74
     0
 42
0.0000000001
 43
0.0000000001
 40
0.0
 40
0.0
 40
0.0
 40
0.0
 40
1.0
 40
1.0
 40
1.0
 40
2.0
 40
2.0
 40
2.0
 40
3.0
 40
3.0
 40
3.0
 40
4.0
 40
4.0
 40
4.0
 40
4.0
 10
36.93492741162403
 20
58.12679489781821
 30
0.0
 10
37.21361535164877
 20
58.12679489781821
 30
0.0
 10
37.43585893811263
 20
57.90455131135469
 30
0.0
 10
37.43585893811263
 20
57.62586337132962
 30
0.0
 10
37.43585893811263
 20
57.34717543130456
 30
0.0
 10
37.21361535164877
 20
57.12493184484102
 30
0.0
 10
36.93492741162403
 20
57.12493184484102
 30
0.0
 10
36.65623947159929
 20
57.12493184484102
 30
0.0
 10
36.43399588513544
 20
57.35070387625603
 30
0.0
 10
36.43399588513544
 20
57.62586337132962
 30
0.0
 10
36.43399588513544
 20
57.90102286640322
 30
0.0
 10
36.65623947159929
 20
58.12679489781821
 30
0.0
 10
36.93492741162403
 20
58.12679489781821
 30
0.0
  0
SPLINE
  5
BD
330
79
100
AcDbEntity
  8
Ebene 1
 62
     5
420
      255
370
     9
100
AcDbSpline
210
0.0
220
0.0
230
1.0
 70
    11
 71
     3
 72
    17
 73
    13
 74
     0
 42
0.0000000001
 43
0.0000000001
 40
0.0
 40
0.0
 40
0.0
 40
0.0
 40
1.0
 40
1.0
 40
1.0
 40
2.0
 40
2.0
 40
2.0
 40
3.0
 40
3.0
 40
3.0
 40
4.0
 40
4.0
 40
4.0
 40
4.0
 10
34.93472705920605
 20
58.12679489781821
 30
0.0
 10
35.2134149992311
 20
58.12679489781821
 30
0.0
 10
35.43565858569464
 20
57.90455131135469
 30
0.0
 10
35.43565858569464
 20
57.62586337132962
 30
0.0
 10
35.43565858569464
 20
57.34717543130456
 30
0.0
 10
35.2134149992311
 20
57.12493184484102
 30
0.0
 10
34.93472705920605
 20
57.12493184484102
 30
0.0
 10
34.65603911918098
 20
57.12493184484102
 30
0.0
 10
34.43379553271745
 20
57.35070387625603
 30
0.0
 10
34.43379553271745
 20
57.62586337132962
 30
0.0
 10
34.43379553271745
 20
57.90102286640322
 30
0.0
 10
34.65603911918098
 20
58.12679489781821
 30
0.0
 10
34.93472705920605
 20
58.12679489781821
 30
0.0
  0
SPLINE
  5
BE
330
79
100
AcDbEntity
  8
Ebene 1
 62
     5
420
      255
370
     9
100
AcDbSpline
210
0.0
220
0.0
230
1.0
 70
    11
 71
     3
 72
    17
 73
    13
 74
     0
 42
0.0000000001
 43
0.0000000001
 40
0.0
 40
0.0
 40
0.0
 40
0.0
 40
1.0
 40
1.0
 40
1.0
 40
2.0
 40
2.0
 40
2.0
 40
3.0
 40
3.0
 40
3.0
 40
4.0
 40
4.0
 40
4.0
 40
4.0
 10
32.93452670678806
 20
58.12679489781821
 30
0.0
 10
33.21321464681279
 20
58.12679489781821
 30
0.0
 10
33.43545823327665
 20
57.90455131135469
 30
0.0
 10
33.43545823327665
 20
57.62586337132962
 30
0.0
 10
33.43545823327665
 20
57.34717543130456
 30
0.0
 10
33.21321464681279
 20
57.12493184484102
 30
0.0
 10
32.93452670678806
 20
57.12493184484102
 30
0.0
 10
32.65583876676332
 20
57.12493184484102
 30
0.0
 10
32.43359518029946
 20
57.35070387625603
 30
0.0
 10
32.43359518029946
 20
57.62586337132962
 30
0.0
 10
32.43359518029946
 20
57.90102286640322
 30
0.0
 10
32.65583876676332
 20
58.12679489781821
 30
0.0
 10
32.93452670678806
 20
58.12679489781821
 30
0.0
  0
SPLINE
  5
BF
330
79
100
AcDbEntity
  8
Ebene 1
 62
     5
420
      255
370
     9
100
AcDbSpline
210
0.0
220
0.0
230
1.0
 70
    11
 71
     3
 72
    17
 73
    13
 74
     0
 42
0.0000000001
 43
0.0000000001
 40
0.0
 40
0.0
 40
0.0
 40
0.0
 40
1.0
 40
1.0
 40
1.0
 40
2.0
 40
2.0
 40
2.0
 40
3.0
 40
3.0
 40
3.0
 40
4.0
 40
4.0
 40
4.0
 40
4.0
 10
30.93432635437007
 20
58.12679489781821
 30
0.0
 10
31.21301429439513
 20
58.12679489781821
 30
0.0
 10
31.43525788085867
 20
57.90455131135469
 30
0.0
 10
31.43525788085867
 20
57.62586337132962
 30
0.0
 10
31.43525788085867
 20
57.34717543130456
 30
0.0
 10
31.21301429439513
 20
57.12493184484102
 30
0.0
 10
30.93432635437007
 20
57.12493184484102
 30
0.0
 10
30.65563841434501
 20
57.12493184484102
 30
0.0
 10
30.43339482788148
 20
57.35070387625603
 30
0.0
 10
30.43339482788148
 20
57.62586337132962
 30
0.0
 10
30.43339482788148
 20
57.90102286640322
 30
0.0
 10
30.65563841434501
 20
58.12679489781821
 30
0.0
 10
30.93432635437007
 20
58.12679489781821
 30
0.0
  0
SPLINE
  5
C0
330
79
100
AcDbEntity
  8
Ebene 1
 62
     5
420
      255
370
     9
100
AcDbSpline
210
0.0
220
0.0
230
1.0
 70
     9
 71
     3
 72
    44
 73
    40
 74
     0
 42
0.0000000001
 43
0.0000000001
 40
0.0
 40
0.0
 40
0.0
 40
0.0
 40
1.0
 40
1.0
 40
1.0
 40
2.0
 40
2.0
 40
2.0
 40
3.0
 40
3.0
 40
3.0
 40
4.0
 40
4.0
 40
4.0
 40
5.0
 40
5.0
 40
5.0
 40
6.0
 40
6.0
 40
6.0
 40
7.0
 40
7.0
 40
7.0
 40
8.0
 40
8.0
 40
8.0
 40
9.0
 40
9.0
 40
9.0
 40
10.0
 40
10.0
 40
10.0
 40
11.0
 40
11.0
 40
11.0
 40
12.0
 40
12.0
 40
12.0
 40
13.0
 40
13.0
 40
13.0
 40
13.0
 10
34.09513748559479
 20
68.58992605759191
 30
0.0
 10
33.710620419765
 20
68.56170388081162
 30
0.0
 10
33.37548812617906
 20
68.8545029092265
 30
0.0
 10
33.34726594939845
 20
69.23901997505629
 30
0.0
 10
33.34726594939845
 20
69.23901997505629
 30
0.0
 10
32.07376915488405
 20
87.43485263074633
 30
0.0
 10
32.07376915488405
 20
87.43485263074633
 30
0.0
 10
32.07376915488405
 20
87.43485263074633
 30
0.0
 10
24.75733803794463
 20
86.10491282837811
 30
0.0
 10
24.75733803794463
 20
86.10491282837811
 30
0.0
 10
24.75733803794463
 20
86.10491282837811
 30
0.0
 10
25.81564544448303
 20
71.01345098747436
 30
0.0
 10
25.81564544448303
 20
71.01345098747436
 30
0.0
 10
25.81564544448303
 20
71.01345098747436
 30
0.0
 10
25.81564544448303
 20
55.03300807217862
 30
0.0
 10
25.81564544448303
 20
55.03300807217862
 30
0.0
 10
25.81564544448303
 20
55.03300807217862
 30
0.0
 10
32.31718071964066
 20
55.00831434034917
 30
0.0
 10
32.31718071964066
 20
55.00831434034917
 30
0.0
 10
32.7052262304216
 20
55.00831434034917
 30
0.0
 10
33.01919054571512
 20
54.69435002505629
 30
0.0
 10
33.01919054571512
 20
54.30630451427504
 30
0.0
 10
33.01919054571512
 20
54.30630451427504
 30
0.0
 10
33.01919054571512
 20
52.05563570719783
 30
0.0
 10
33.01919054571512
 20
52.05563570719783
 30
0.0
 10
33.01919054571512
 20
52.05563570719783
 30
0.0
 10
42.96728178202481
 20
52.05563570719783
 30
0.0
 10
42.96728178202481
 20
52.05563570719783
 30
0.0
 10
42.96728178202481
 20
52.05563570719783
 30
0.0
 10
42.96728178202481
 20
69.21080048969077
 30
0.0
 10
42.96728178202481
 20
69.21080048969077
 30
0.0
 10
42.96728178202481
 20
69.21080048969077
 30
0.0
 10
34.09160904064365
 20
68.58992605759191
 30
0.0
 10
34.09160904064365
 20
68.58992605759191
 30
0.0
 10
34.09160904064365
 20
68.58992605759191
 30
0.0
 10
34.09160904064365
 20
68.58992605759191
 30
0.0
 10
34.09160904064365
 20
68.58992605759191
 30
0.0
 10
34.09160904064365
 20
68.58992605759191
 30
0.0
 10
34.09513748559479
 20
68.58992605759191
 30
0.0
 10
34.09513748559479
 20
68.58992605759191
 30
0.0
  0
SPLINE
  5
C1
330
79
100
AcDbEntity
  8
Ebene 1
 62
     5
420
      255
370
     9
100
AcDbSpline
210
0.0
220
0.0
230
1.0
 70
     9
 71
     3
 72
    17
 73
    13
 74
     0
 42
0.0000000001
 43
0.0000000001
 40
0.0
 40
0.0
 40
0.0
 40
0.0
 40
1.0
 40
1.0
 40
1.0
 40
2.0
 40
2.0
 40
2.0
 40
3.0
 40
3.0
 40
3.0
 40
4.0
 40
4.0
 40
4.0
 40
4.0
 10
48.1988487076192
 20
94.23977058703846
 30
0.0
 10
48.1988487076192
 20
94.82183952606387
 30
0.0
 10
48.6680323037908
 20
95.2910227858084
 30
0.0
 10
49.25009922425498
 20
95.2910227858084
 30
0.0
 10
49.83216614471917
 20
95.2910227858084
 30
0.0
 10
50.30134974089077
 20
94.82183986249063
 30
0.0
 10
50.30134974089077
 20
94.23977092346524
 30
0.0
 10
50.30134974089077
 20
93.6577019844398
 30
0.0
 10
49.82864039118278
 20
93.18851906112206
 30
0.0
 10
49.25009922425498
 20
93.18851906112206
 30
0.0
 10
48.67155805732719
 20
93.18851906112206
 30
0.0
 10
48.1988487076192
 20
93.6577019844398
 30
0.0
 10
48.1988487076192
 20
94.23977058703846
 30
0.0
  0
SPLINE
  5
C2
330
79
100
AcDbEntity
  8
Ebene 1
 62
     5
420
      255
370
     9
100
AcDbSpline
210
0.0
220
0.0
230
1.0
 70
     9
 71
     3
 72
    17
 73
    13
 74
     0
 42
0.0000000001
 43
0.0000000001
 40
0.0
 40
0.0
 40
0.0
 40
0.0
 40
1.0
 40
1.0
 40
1.0
 40
2.0
 40
2.0
 40
2.0
 40
3.0
 40
3.0
 40
3.0
 40
4.0
 40
4.0
 40
4.0
 40
4.0
 10
86.71770070985479
 20
36.09283770807321
 30
0.0
 10
86.71770070985479
 20
42.8554213899143
 30
0.0
 10
92.20325646081493
 20
48.34098252370459
 30
0.0
 10
98.96584552548553
 20
48.34098252370459
 30
0.0
 10
105.7284345901561
 20
48.34098252370459
 30
0.0
 10
111.2139903411162
 20
42.8554213899143
 30
0.0
 10
111.2139903411162
 20
36.09283770807321
 30
0.0
 10
111.2139903411162
 20
29.33025402623276
 30
0.0
 10
105.7319549608626
 20
23.8446928924431
 30
0.0
 10
98.96584552548553
 20
23.8446928924431
 30
0.0
 10
92.19973609010837
 20
23.8446928924431
 30
0.0
 10
86.71770070985479
 20
29.33025402623276
 30
0.0
 10
86.71770070985479
 20
36.09283770807321
 30
0.0
  0
SPLINE
  5
C3
330
79
100
AcDbEntity
  8
Ebene 1
 62
     5
420
      255
370
     9
100
AcDbSpline
210
0.0
220
0.0
230
1.0
 70
     9
 71
     3
 72
    17
 73
    13
 74
     0
 42
0.0000000001
 43
0.0000000001
 40
0.0
 40
0.0
 40
0.0
 40
0.0
 40
1.0
 40
1.0
 40
1.0
 40
2.0
 40
2.0
 40
2.0
 40
3.0
 40
3.0
 40
3.0
 40
4.0
 40
4.0
 40
4.0
 40
4.0
 10
110.2685716417003
 20
14.87024522374474
 30
0.0
 10
110.2685716417003
 20
15.45231214420828
 30
0.0
 10
110.7377498550421
 20
15.9214957403802
 30
0.0
 10
111.3198275411659
 20
15.9214957403802
 30
0.0
 10
111.9019052272897
 20
15.9214957403802
 30
0.0
 10
112.3710834406315
 20
15.45231214420828
 30
0.0
 10
112.3710834406315
 20
14.87024522374474
 30
0.0
 10
112.3710834406315
 20
14.2881783032799
 30
0.0
 10
111.8983740909235
 20
13.81899470710863
 30
0.0
 10
111.3198275411659
 20
13.81899470710863
 30
0.0
 10
110.7412809914083
 20
13.81899470710863
 30
0.0
 10
110.2685716417003
 20
14.2881783032799
 30
0.0
 10
110.2685716417003
 20
14.87024522374474
 30
0.0
  0
SPLINE
  5
C4
330
79
100
AcDbEntity
  8
Ebene 1
 62
     5
420
      255
370
     9
100
AcDbSpline
210
0.0
220
0.0
230
1.0
 70
     9
 71
     3
 72
    17
 73
    13
 74
     0
 42
0.0000000001
 43
0.0000000001
 40
0.0
 40
0.0
 40
0.0
 40
0.0
 40
1.0
 40
1.0
 40
1.0
 40
2.0
 40
2.0
 40
2.0
 40
3.0
 40
3.0
 40
3.0
 40
4.0
 40
4.0
 40
4.0
 40
4.0
 10
112.3710726749719
 20
94.2962135948923
 30
0.0
 10
112.3710726749719
 20
93.7141443194398
 30
0.0
 10
111.9018944616301
 20
93.24496139612206
 30
0.0
 10
111.3198167755062
 20
93.24496139612206
 30
0.0
 10
110.7377390893824
 20
93.24496139612206
 30
0.0
 10
110.2685608760406
 20
93.7141443194398
 30
0.0
 10
110.2685608760406
 20
94.29621325846522
 30
0.0
 10
110.2685608760406
 20
94.87828219749061
 30
0.0
 10
110.7412702257486
 20
95.34746512080838
 30
0.0
 10
111.3198167755062
 20
95.34746512080838
 30
0.0
 10
111.8983633252639
 20
95.34746512080838
 30
0.0
 10
112.3710726749719
 20
94.87828219749061
 30
0.0
 10
112.3710726749719
 20
94.2962135948923
 30
0.0
  0
SPLINE
  5
C5
330
79
100
AcDbEntity
  8
Ebene 1
 62
     5
420
      255
370
     9
100
AcDbSpline
210
0.0
220
0.0
230
1.0
 70
    11
 71
     3
 72
    59
 73
    55
 74
     0
 42
0.0000000001
 43
0.0000000001
 40
0.0
 40
0.0
 40
0.0
 40
0.0
 40
1.0
 40
1.0
 40
1.0
 40
2.0
 40
2.0
 40
2.0
 40
3.0
 40
3.0
 40
3.0
 40
4.0
 40
4.0
 40
4.0
 40
5.0
 40
5.0
 40
5.0
 40
6.0
 40
6.0
 40
6.0
 40
7.0
 40
7.0
 40
7.0
 40
8.0
 40
8.0
 40
8.0
 40
9.0
 40
9.0
 40
9.0
 40
10.0
 40
10.0
 40
10.0
 40
11.0
 40
11.0
 40
11.0
 40
12.0
 40
12.0
 40
12.0
 40
13.0
 40
13.0
 40
13.0
 40
14.0
 40
14.0
 40
14.0
 40
15.0
 40
15.0
 40
15.0
 40
16.0
 40
16.0
 40
16.0
 40
17.0
 40
17.0
 40
17.0
 40
18.0
 40
18.0
 40
18.0
 40
18.0
 10
113.224778719803
 20
96.88553910338445
 30
0.0
 10
113.224778719803
 20
96.88553910338445
 30
0.0
 10
46.01167576117599
 20
96.88553910338445
 30
0.0
 10
46.01167576117599
 20
96.88553910338445
 30
0.0
 10
46.01167576117599
 20
96.88553910338445
 30
0.0
 10
45.9975673642006
 20
91.91502226660766
 30
0.0
 10
45.9975673642006
 20
91.91502226660766
 30
0.0
 10
45.9975673642006
 20
91.91502226660766
 30
0.0
 10
64.32039712398811
 20
91.91502226660766
 30
0.0
 10
64.32039712398811
 20
91.91502226660766
 30
0.0
 10
64.70844532618413
 20
91.91502226660766
 30
0.0
 10
65.02240964147732
 20
91.60105795131448
 30
0.0
 10
65.02240964147732
 20
91.21301176767969
 30
0.0
 10
65.02240964147732
 20
91.21301176767969
 30
0.0
 10
65.02240964147732
 20
88.90237352635875
 30
0.0
 10
65.02240964147732
 20
88.90237352635875
 30
0.0
 10
65.02240964147732
 20
88.90237352635875
 30
0.0
 10
83.31701722448425
 20
88.90237352635875
 30
0.0
 10
83.31701722448425
 20
88.90237352635875
 30
0.0
 10
83.70506542668026
 20
88.90237352635875
 30
0.0
 10
84.01902974197346
 20
88.59193698316316
 30
0.0
 10
84.01902974197346
 20
88.20389079952805
 30
0.0
 10
84.01902974197346
 20
88.20389079952805
 30
0.0
 10
84.04725191875405
 20
25.75669557815306
 30
0.0
 10
84.04725191875405
 20
25.75669557815306
 30
0.0
 10
88.65441596729842
 20
23.98226725714943
 30
0.0
 10
93.2439404825012
 20
21.79509969353637
 30
0.0
 10
97.61828637538762
 20
19.26927139138557
 30
0.0
 10
97.61828637538762
 20
19.26927139138557
 30
0.0
 10
106.1059109145728
 20
14.36930831442567
 30
0.0
 10
106.1059109145728
 20
14.36930831442567
 30
0.0
 10
106.4410458995738
 20
14.17528421332799
 30
0.0
 10
106.5574549774028
 20
13.74843657374221
 30
0.0
 10
106.3634362591346
 20
13.41330158874119
 30
0.0
 10
106.3634362591346
 20
13.41330158874119
 30
0.0
 10
98.65189735868181
 20
0.0504050130108381
 30
0.0
 10
98.65189735868181
 20
0.0504050130108381
 30
0.0
 10
98.65189735868181
 20
0.0504050130108381
 30
0.0
 10
113.2247894854627
 20
0.0504050130108381
 30
0.0
 10
113.2247894854627
 20
0.0504050130108381
 30
0.0
 10
113.6093065512925
 20
0.0504050130108381
 30
0.0
 10
113.9232762494155
 20
0.3608435747676451
 30
0.0
 10
113.9232762494155
 20
0.748891776963654
 30
0.0
 10
113.9232762494155
 20
0.748891776963654
 30
0.0
 10
113.9232762494155
 20
96.18352860445646
 30
0.0
 10
113.9232762494155
 20
96.18352860445646
 30
0.0
 10
113.9232762494155
 20
96.56804701599364
 30
0.0
 10
113.6128376876587
 20
96.88201149950023
 30
0.0
 10
113.2247894854627
 20
96.88201149950023
 30
0.0
 10
113.2247894854627
 20
96.88201149950023
 30
0.0
 10
113.2247894854627
 20
96.88201149950023
 30
0.0
 10
113.2247894854627
 20
96.88201149950023
 30
0.0
 10
113.2247894854627
 20
96.88201149950023
 30
0.0
 10
113.224778719803
 20
96.88553910338445
 30
0.0
 10
113.224778719803
 20
96.88553910338445
 30
0.0
  0
SPLINE
  5
C6
330
79
100
AcDbEntity
  8
Ebene 1
 62
     5
420
      255
370
     9
100
AcDbSpline
210
0.0
220
0.0
230
1.0
 70
    11
 71
     3
 72
    17
 73
    13
 74
     0
 42
0.0000000001
 43
0.0000000001
 40
0.0
 40
0.0
 40
0.0
 40
0.0
 40
1.0
 40
1.0
 40
1.0
 40
2.0
 40
2.0
 40
2.0
 40
3.0
 40
3.0
 40
3.0
 40
4.0
 40
4.0
 40
4.0
 40
4.0
 10
22.6548343132583
 20
93.2731829000488
 30
0.0
 10
22.6548343132583
 20
93.85525183907422
 30
0.0
 10
23.1240179094299
 20
94.32443476239228
 30
0.0
 10
23.70608752130916
 20
94.32443476239228
 30
0.0
 10
24.2881571331881
 20
94.32443476239228
 30
0.0
 10
24.75734072935971
 20
93.85525183907422
 30
0.0
 10
24.75734072935971
 20
93.2731829000488
 30
0.0
 10
24.75734072935971
 20
92.69111396102339
 30
0.0
 10
24.28463137965171
 20
92.22193103770562
 30
0.0
 10
23.70608752130916
 20
92.22193103770562
 30
0.0
 10
23.12754366296629
 20
92.22193103770562
 30
0.0
 10
22.6548343132583
 20
92.69111396102339
 30
0.0
 10
22.6548343132583
 20
93.2731829000488
 30
0.0
  0
SPLINE
  5
C7
330
79
100
AcDbEntity
  8
Ebene 1
 62
     5
420
      255
370
     9
100
AcDbSpline
210
0.0
220
0.0
230
1.0
 70
    11
 71
     3
 72
    17
 73
    13
 74
     0
 42
0.0000000001
 43
0.0000000001
 40
0.0
 40
0.0
 40
0.0
 40
0.0
 40
1.0
 40
1.0
 40
1.0
 40
2.0
 40
2.0
 40
2.0
 40
3.0
 40
3.0
 40
3.0
 40
4.0
 40
4.0
 40
4.0
 40
4.0
 10
37.4958317366253
 20
94.28210284292893
 30
0.0
 10
37.4958317366253
 20
94.86417178195432
 30
0.0
 10
37.96501533279658
 20
95.33335470527209
 30
0.0
 10
38.54708494467584
 20
95.33335470527209
 30
0.0
 10
39.1291545565551
 20
95.33335470527209
 30
0.0
 10
39.59833815272638
 20
94.86417178195432
 30
0.0
 10
39.59833815272638
 20
94.28210284292893
 30
0.0
 10
39.59833815272638
 20
93.70003390390349
 30
0.0
 10
39.12562880301839
 20
93.23085098058543
 30
0.0
 10
38.54708494467584
 20
93.23085098058543
 30
0.0
 10
37.96854108633329
 20
93.23085098058543
 30
0.0
 10
37.4958317366253
 20
93.70003390390349
 30
0.0
 10
37.4958317366253
 20
94.28210284292893
 30
0.0
  0
SPLINE
  5
C8
330
79
100
AcDbEntity
  8
Ebene 1
 62
     5
420
      255
370
     9
100
AcDbSpline
210
0.0
220
0.0
230
1.0
 70
     9
 71
     3
 72
    38
 73
    34
 74
     0
 42
0.0000000001
 43
0.0000000001
 40
0.0
 40
0.0
 40
0.0
 40
0.0
 40
1.0
 40
1.0
 40
1.0
 40
2.0
 40
2.0
 40
2.0
 40
3.0
 40
3.0
 40
3.0
 40
4.0
 40
4.0
 40
4.0
 40
5.0
 40
5.0
 40
5.0
 40
6.0
 40
6.0
 40
6.0
 40
7.0
 40
7.0
 40
7.0
 40
8.0
 40
8.0
 40
8.0
 40
9.0
 40
9.0
 40
9.0
 40
10.0
 40
10.0
 40
10.0
 40
11.0
 40
11.0
 40
11.0
 40
11.0
 10
0.7478705269160494
 20
96.88201149950023
 30
0.0
 10
0.3633521574319859
 20
96.88201149950023
 30
0.0
 10
0.0493876318719807
 20
96.57157478809125
 30
0.0
 10
0.0493876318719807
 20
96.18352860445646
 30
0.0
 10
0.0493876318719807
 20
96.18352860445646
 30
0.0
 10
0.0493876318719807
 20
74.39297995162654
 30
0.0
 10
0.0493876318719807
 20
74.39297995162654
 30
0.0
 10
0.0493876318719807
 20
74.39297995162654
 30
0.0
 10
17.80073025500586
 20
77.5220418068269
 30
0.0
 10
17.80073025500586
 20
77.5220418068269
 30
0.0
 10
18.18172156729958
 20
77.58906745811973
 30
0.0
 10
18.54507334625138
 20
77.33507459563151
 30
0.0
 10
18.61209899754388
 20
76.9540846290458
 30
0.0
 10
18.61209899754388
 20
76.9540846290458
 30
0.0
 10
21.4025028056219
 20
61.0477229092378
 30
0.0
 10
21.4025028056219
 20
61.0477229092378
 30
0.0
 10
21.52597146476824
 20
60.33513043972435
 30
0.0
 10
22.58427887130663
 20
60.4621248524074
 30
0.0
 10
22.53489140764836
 20
61.1853026567746
 30
0.0
 10
22.53489140764836
 20
61.1853026567746
 30
0.0
 10
20.55938478705951
 20
89.71726936814054
 30
0.0
 10
20.55938478705951
 20
89.71726936814054
 30
0.0
 10
20.55938478705951
 20
89.71726936814054
 30
0.0
 10
20.55938478705951
 20
89.71726936814054
 30
0.0
 10
20.55938478705951
 20
89.71726936814054
 30
0.0
 10
20.55938478705951
 20
89.71726936814054
 30
0.0
 10
43.06252826439087
 20
91.29061938955766
 30
0.0
 10
43.06252826439087
 20
91.29061938955766
 30
0.0
 10
43.06252826439087
 20
91.29061938955766
 30
0.0
 10
43.05194562095187
 20
96.88201032200623
 30
0.0
 10
43.05194562095187
 20
96.88201032200623
 30
0.0
 10
43.05194562095187
 20
96.88201032200623
 30
0.0
 10
0.7478705269160494
 20
96.88201032200623
 30
0.0
 10
0.7478705269160494
 20
96.88201149950023
 30
0.0
  0
ENDBLK
  5
7C
330
79
100
AcDbEntity
  8
0
100
AcDbBlockEnd
  0
BLOCK
  5
CB
330
C9
100
AcDbEntity
  8
0
100
AcDbBlockBegin
  2
Block_1
 70
     0
 10
0.0
 20
0.0
 30
0.0
  3
Block_1
  1

  0
LWPOLYLINE
  5
CD
330
C9
100
AcDbEntity
  8
Ebene 1
100
AcDbPolyline
 90
        6
 70
     1
 43
0.0
 10
99.51969565199895
 20
93.33315368000024
 10
99.51969565199895
 20
75.91341406443394
 10
106.2928673601085
 20
75.91341406443394
 10
106.2928673601085
 20
76.38612341414193
 10
99.99593613807315
 20
76.38612341414193
 10
99.99593613807315
 20
93.33315368000024
  0
HATCH
  5
CE
330
C9
100
AcDbEntity
  8
Ebene 1
 62
     6
420
 16711935
440
 33554687
100
AcDbHatch
 10
0.0
 20
0.0
 30
0.0
210
0.0
220
0.0
230
1.0
  2
SOLID
 70
     1
 71
     1
 91
        1
 92
        1
 93
        6
 72
     1
 10
99.51969565199895
 20
93.33315368000024
 11
99.51969565199895
 21
75.91341406443394
 72
     1
 10
99.51969565199895
 20
75.91341406443394
 11
106.2928673601085
 21
75.91341406443394
 72
     1
 10
106.2928673601085
 20
75.91341406443394
 11
106.2928673601085
 21
76.38612341414193
 72
     1
 10
106.2928673601085
 20
76.38612341414193
 11
99.99593613807315
 21
76.38612341414193
 72
     1
 10
99.99593613807315
 20
76.38612341414193
 11
99.99593613807315
 21
93.33315368000024
 72
     1
 10
99.99593613807315
 20
93.33315368000024
 11
99.51969565199895
 21
93.33315368000024
 97
        1
330
CD
 75
     2
 76
     1
 98
        1
 10
0.0
 20
0.0
450
        0
451
        0
460
0.0
461
0.0
452
        0
462
0.0
453
        0
470

  0
LWPOLYLINE
  5
CF
330
C9
100
AcDbEntity
  8
Ebene 1
100
AcDbPolyline
 90
       11
 70
     1
 43
0.0
 10
87.20806035856403
 20
82.11156766773738
 10
91.3142928806198
 20
90.27817302028795
 10
95.42405115621198
 20
82.11156766773738
 10
95.95320485948118
 20
82.11156766773738
 10
91.57886973225441
 20
90.80732672355713
 10
95.95320485948118
 20
99.54894614379144
 10
95.42405115621198
 20
99.54894614379144
 10
87.32446943639301
 20
83.40975819408091
 10
87.32446943639301
 20
99.54894614379144
 10
86.85176008668502
 20
99.54894614379144
 10
86.85176008668502
 20
82.11156766773738
  0
HATCH
  5
D0
330
C9
100
AcDbEntity
  8
Ebene 1
 62
     6
420
 16711935
440
 33554687
100
AcDbHatch
 10
0.0
 20
0.0
 30
0.0
210
0.0
220
0.0
230
1.0
  2
SOLID
 70
     1
 71
     1
 91
        1
 92
        1
 93
       11
 72
     1
 10
87.20806035856403
 20
82.11156766773738
 11
91.3142928806198
 21
90.27817302028795
 72
     1
 10
91.3142928806198
 20
90.27817302028795
 11
95.42405115621198
 21
82.11156766773738
 72
     1
 10
95.42405115621198
 20
82.11156766773738
 11
95.95320485948118
 21
82.11156766773738
 72
     1
 10
95.95320485948118
 20
82.11156766773738
 11
91.57886973225441
 21
90.80732672355713
 72
     1
 10
91.57886973225441
 20
90.80732672355713
 11
95.95320485948118
 21
99.54894614379144
 72
     1
 10
95.95320485948118
 20
99.54894614379144
 11
95.42405115621198
 21
99.54894614379144
 72
     1
 10
95.42405115621198
 20
99.54894614379144
 11
87.32446943639301
 21
83.40975819408091
 72
     1
 10
87.32446943639301
 20
83.40975819408091
 11
87.32446943639301
 21
99.54894614379144
 72
     1
 10
87.32446943639301
 20
99.54894614379144
 11
86.85176008668502
 21
99.54894614379144
 72
     1
 10
86.85176008668502
 20
99.54894614379144
 11
86.85176008668502
 21
82.11156766773738
 72
     1
 10
86.85176008668502
 20
82.11156766773738
 11
87.20806035856403
 21
82.11156766773738
 97
        1
330
CF
 75
     2
 76
     1
 98
        1
 10
0.0
 20
0.0
450
        0
451
        0
460
0.0
461
0.0
452
        0
462
0.0
453
        0
470

  0
LWPOLYLINE
  5
D1
330
C9
100
AcDbEntity
  8
Ebene 1
100
AcDbPolyline
 90
        4
 70
     1
 43
0.0
 10
86.77415044624581
 20
71.67313023979282
 10
109.3549008726013
 20
71.67313023979282
 10
109.3549008726013
 20
71.20042089008483
 10
86.77415044624581
 20
71.20042089008483
  0
HATCH
  5
D2
330
C9
100
AcDbEntity
  8
Ebene 1
 62
     6
420
 16711935
440
 33554687
100
AcDbHatch
 10
0.0
 20
0.0
 30
0.0
210
0.0
220
0.0
230
1.0
  2
SOLID
 70
     1
 71
     1
 91
        1
 92
        1
 93
        4
 72
     1
 10
86.77415044624581
 20
71.67313023979282
 11
109.3549008726013
 21
71.67313023979282
 72
     1
 10
109.3549008726013
 20
71.67313023979282
 11
109.3549008726013
 21
71.20042089008483
 72
     1
 10
109.3549008726013
 20
71.20042089008483
 11
86.77415044624581
 21
71.20042089008483
 72
     1
 10
86.77415044624581
 20
71.20042089008483
 11
86.77415044624581
 21
71.67313023979282
 97
        1
330
D1
 75
     2
 76
     1
 98
        1
 10
0.0
 20
0.0
450
        0
451
        0
460
0.0
461
0.0
452
        0
462
0.0
453
        0
470

  0
SPLINE
  5
D3
330
C9
100
AcDbEntity
  8
Ebene 1
100
AcDbSpline
210
0.0
220
0.0
230
1.0
 70
     9
 71
     3
 72
    17
 73
    13
 74
     0
 42
0.0000000001
 43
0.0000000001
 40
0.0
 40
0.0
 40
0.0
 40
0.0
 40
1.0
 40
1.0
 40
1.0
 40
2.0
 40
2.0
 40
2.0
 40
3.0
 40
3.0
 40
3.0
 40
4.0
 40
4.0
 40
4.0
 40
4.0
 10
125.6387254597512
 20
71.67313023979282
 30
0.0
 10
121.098588408207
 20
71.67313023979282
 30
0.0
 10
117.4086262651279
 20
75.3666235192382
 30
0.0
 10
117.4086262651279
 20
79.90323481724567
 30
0.0
 10
117.4086262651279
 20
84.43984611525378
 30
0.0
 10
121.1021195445733
 20
88.13333939469915
 30
0.0
 10
125.6387254597512
 20
88.13333939469915
 30
0.0
 10
130.1753313749292
 20
88.13333939469915
 30
0.0
 10
133.8688246543745
 20
84.43984611525378
 30
0.0
 10
133.8688246543745
 20
79.90323481724567
 30
0.0
 10
133.8688246543745
 20
75.3666235192382
 30
0.0
 10
130.1753313749292
 20
71.67313023979282
 30
0.0
 10
125.6387254597512
 20
71.67313023979282
 30
0.0
  0
SPLINE
  5
D4
330
C9
100
AcDbEntity
  8
Ebene 1
100
AcDbSpline
210
0.0
220
0.0
230
1.0
 70
     9
 71
     3
 72
    17
 73
    13
 74
     0
 42
0.0000000001
 43
0.0000000001
 40
0.0
 40
0.0
 40
0.0
 40
0.0
 40
1.0
 40
1.0
 40
1.0
 40
2.0
 40
2.0
 40
2.0
 40
3.0
 40
3.0
 40
3.0
 40
4.0
 40
4.0
 40
4.0
 40
4.0
 10
125.6387254597512
 20
88.60957517079707
 30
0.0
 10
120.8375426929387
 20
88.60957517079707
 30
0.0
 10
116.9323857790537
 20
84.70442027547329
 30
0.0
 10
116.9323857790537
 20
79.90323212583091
 30
0.0
 10
116.9323857790537
 20
75.10204397618854
 30
0.0
 10
120.8375426929387
 20
71.19688975371861
 30
0.0
 10
125.6387254597512
 20
71.19688975371861
 30
0.0
 10
130.4399082265638
 20
71.19688975371861
 30
0.0
 10
134.3450651404488
 20
75.10204397618854
 30
0.0
 10
134.3450651404488
 20
79.90323212583091
 30
0.0
 10
134.3450651404488
 20
84.70442027547329
 30
0.0
 10
130.4399082265638
 20
88.60957449794321
 30
0.0
 10
125.6387254597512
 20
88.60957517079707
 30
0.0
  0
HATCH
  5
D5
330
C9
100
AcDbEntity
  8
Ebene 1
 62
     6
420
 16711935
440
 33554687
100
AcDbHatch
 10
0.0
 20
0.0
 30
0.0
210
0.0
220
0.0
230
1.0
  2
SOLID
 70
     1
 71
     1
 91
        2
 92
        1
 93
        1
 72
     4
 94
        3
 73
     0
 74
     0
 95
       17
 96
       13
 40
0.0
 40
0.0
 40
0.0
 40
0.0
 40
1.0
 40
1.0
 40
1.0
 40
2.0
 40
2.0
 40
2.0
 40
3.0
 40
3.0
 40
3.0
 40
4.0
 40
4.0
 40
4.0
 40
4.0
 10
125.6387254597512
 20
71.67313023979282
 10
121.098588408207
 20
71.67313023979282
 10
117.4086262651279
 20
75.3666235192382
 10
117.4086262651279
 20
79.90323481724567
 10
117.4086262651279
 20
84.43984611525378
 10
121.1021195445733
 20
88.13333939469915
 10
125.6387254597512
 20
88.13333939469915
 10
130.1753313749292
 20
88.13333939469915
 10
133.8688246543745
 20
84.43984611525378
 10
133.8688246543745
 20
79.90323481724567
 10
133.8688246543745
 20
75.3666235192382
 10
130.1753313749292
 20
71.67313023979282
 10
125.6387254597512
 20
71.67313023979282
 97
        0
 97
        1
330
D3
 92
        1
 93
        1
 72
     4
 94
        3
 73
     0
 74
     0
 95
       17
 96
       13
 40
0.0
 40
0.0
 40
0.0
 40
0.0
 40
1.0
 40
1.0
 40
1.0
 40
2.0
 40
2.0
 40
2.0
 40
3.0
 40
3.0
 40
3.0
 40
4.0
 40
4.0
 40
4.0
 40
4.0
 10
125.6387254597512
 20
88.60957517079707
 10
120.8375426929387
 20
88.60957517079707
 10
116.9323857790537
 20
84.70442027547329
 10
116.9323857790537
 20
79.90323212583091
 10
116.9323857790537
 20
75.10204397618854
 10
120.8375426929387
 20
71.19688975371861
 10
125.6387254597512
 20
71.19688975371861
 10
130.4399082265638
 20
71.19688975371861
 10
134.3450651404488
 20
75.10204397618854
 10
134.3450651404488
 20
79.90323212583091
 10
134.3450651404488
 20
84.70442027547329
 10
130.4399082265638
 20
88.60957449794321
 10
125.6387254597512
 20
88.60957517079707
 97
        0
 97
        1
330
D4
 75
     2
 76
     1
 98
        1
 10
0.0
 20
0.0
450
        0
451
        0
460
0.0
461
0.0
452
        0
462
0.0
453
        0
470

  0
SPLINE
  5
D6
330
C9
100
AcDbEntity
  8
Ebene 1
100
AcDbSpline
210
0.0
220
0.0
230
1.0
 70
    11
 71
     3
 72
    23
 73
    19
 74
     0
 42
0.0000000001
 43
0.0000000001
 40
0.0
 40
0.0
 40
0.0
 40
0.0
 40
1.0
 40
1.0
 40
1.0
 40
2.0
 40
2.0
 40
2.0
 40
3.0
 40
3.0
 40
3.0
 40
4.0
 40
4.0
 40
4.0
 40
5.0
 40
5.0
 40
5.0
 40
6.0
 40
6.0
 40
6.0
 40
6.0
 10
138.1232303330658
 20
84.22818248081416
 30
0.0
 10
138.1232303330658
 20
84.22818248081416
 30
0.0
 10
138.1232303330658
 20
92.54647866929166
 30
0.0
 10
138.1232303330658
 20
92.54647866929166
 30
0.0
 10
138.1232303330658
 20
92.54647866929166
 30
0.0
 10
146.116980235665
 20
92.54647866929166
 30
0.0
 10
146.116980235665
 20
92.54647866929166
 30
0.0
 10
146.116980235665
 20
92.54647866929166
 30
0.0
 10
146.116980235665
 20
84.23876512425316
 30
0.0
 10
146.116980235665
 20
84.23876512425316
 30
0.0
 10
146.116980235665
 20
84.23876512425316
 30
0.0
 10
138.1232303330658
 20
84.23876512425316
 30
0.0
 10
138.1232303330658
 20
84.23876512425316
 30
0.0
 10
138.1232303330658
 20
84.23876512425316
 30
0.0
 10
138.1232303330658
 20
84.23170958005792
 30
0.0
 10
138.1232303330658
 20
84.23170958005792
 30
0.0
 10
138.1232303330658
 20
84.23170958005792
 30
0.0
 10
138.1232303330658
 20
84.22818248081416
 30
0.0
 10
138.1232303330658
 20
84.22818248081416
 30
0.0
  0
SPLINE
  5
D7
330
C9
100
AcDbEntity
  8
Ebene 1
100
AcDbSpline
210
0.0
220
0.0
230
1.0
 70
    11
 71
     3
 72
    38
 73
    34
 74
     0
 42
0.0000000001
 43
0.0000000001
 40
0.0
 40
0.0
 40
0.0
 40
0.0
 40
1.0
 40
1.0
 40
1.0
 40
2.0
 40
2.0
 40
2.0
 40
3.0
 40
3.0
 40
3.0
 40
4.0
 40
4.0
 40
4.0
 40
5.0
 40
5.0
 40
5.0
 40
6.0
 40
6.0
 40
6.0
 40
7.0
 40
7.0
 40
7.0
 40
8.0
 40
8.0
 40
8.0
 40
9.0
 40
9.0
 40
9.0
 40
10.0
 40
10.0
 40
10.0
 40
11.0
 40
11.0
 40
11.0
 40
11.0
 10
146.5896895853729
 20
83.7625273295937
 30
0.0
 10
146.5896895853729
 20
83.7625273295937
 30
0.0
 10
146.5896895853729
 20
93.01918936470704
 30
0.0
 10
146.5896895853729
 20
93.01918936470704
 30
0.0
 10
146.5896895853729
 20
93.01918936470704
 30
0.0
 10
137.6469898469916
 20
93.01918936470704
 30
0.0
 10
137.6469898469916
 20
93.01918936470704
 30
0.0
 10
137.6469898469916
 20
93.01918936470704
 30
0.0
 10
137.6469898469916
 20
75.59239285923813
 30
0.0
 10
137.6469898469916
 20
75.59239285923813
 30
0.0
 10
137.6469898469916
 20
75.59239285923813
 30
0.0
 10
138.1196991966996
 20
75.59239285923813
 30
0.0
 10
138.1196991966996
 20
75.59239285923813
 30
0.0
 10
138.1196991966996
 20
75.59239285923813
 30
0.0
 10
138.1196991966996
 20
83.76605308313008
 30
0.0
 10
138.1196991966996
 20
83.76605308313008
 30
0.0
 10
138.1196991966996
 20
83.76605308313008
 30
0.0
 10
142.1271514086083
 20
83.76605308313008
 30
0.0
 10
142.1271514086083
 20
83.76605308313008
 30
0.0
 10
142.1271514086083
 20
83.76605308313008
 30
0.0
 10
146.2369096842005
 20
75.59239285923813
 30
0.0
 10
146.2369096842005
 20
75.59239285923813
 30
0.0
 10
146.2369096842005
 20
75.59239285923813
 30
0.0
 10
146.7660633874697
 20
75.59239285923813
 30
0.0
 10
146.7660633874697
 20
75.59239285923813
 30
0.0
 10
146.7660633874697
 20
75.59239285923813
 30
0.0
 10
142.6563051118775
 20
83.76605308313008
 30
0.0
 10
142.6563051118775
 20
83.76605308313008
 30
0.0
 10
142.6563051118775
 20
83.76605308313008
 30
0.0
 10
146.5896788197133
 20
83.76605308313008
 30
0.0
 10
146.5896788197133
 20
83.76605308313008
 30
0.0
 10
146.5896788197133
 20
83.76605308313008
 30
0.0
 10
146.5896895853729
 20
83.7625273295937
 30
0.0
 10
146.5896895853729
 20
83.7625273295937
 30
0.0
  0
HATCH
  5
D8
330
C9
100
AcDbEntity
  8
Ebene 1
 62
     6
420
 16711935
440
 33554687
100
AcDbHatch
 10
0.0
 20
0.0
 30
0.0
210
0.0
220
0.0
230
1.0
  2
SOLID
 70
     1
 71
     1
 91
        2
 92
        1
 93
        1
 72
     4
 94
        3
 73
     0
 74
     0
 95
       23
 96
       19
 40
0.0
 40
0.0
 40
0.0
 40
0.0
 40
1.0
 40
1.0
 40
1.0
 40
2.0
 40
2.0
 40
2.0
 40
3.0
 40
3.0
 40
3.0
 40
4.0
 40
4.0
 40
4.0
 40
5.0
 40
5.0
 40
5.0
 40
6.0
 40
6.0
 40
6.0
 40
6.0
 10
138.1232303330658
 20
84.22818248081416
 10
138.1232303330658
 20
84.22818248081416
 10
138.1232303330658
 20
92.54647866929166
 10
138.1232303330658
 20
92.54647866929166
 10
138.1232303330658
 20
92.54647866929166
 10
146.116980235665
 20
92.54647866929166
 10
146.116980235665
 20
92.54647866929166
 10
146.116980235665
 20
92.54647866929166
 10
146.116980235665
 20
84.23876512425316
 10
146.116980235665
 20
84.23876512425316
 10
146.116980235665
 20
84.23876512425316
 10
138.1232303330658
 20
84.23876512425316
 10
138.1232303330658
 20
84.23876512425316
 10
138.1232303330658
 20
84.23876512425316
 10
138.1232303330658
 20
84.23170958005792
 10
138.1232303330658
 20
84.23170958005792
 10
138.1232303330658
 20
84.23170958005792
 10
138.1232303330658
 20
84.22818248081416
 10
138.1232303330658
 20
84.22818248081416
 97
        0
 97
        1
330
D6
 92
        1
 93
        1
 72
     4
 94
        3
 73
     0
 74
     0
 95
       38
 96
       34
 40
0.0
 40
0.0
 40
0.0
 40
0.0
 40
1.0
 40
1.0
 40
1.0
 40
2.0
 40
2.0
 40
2.0
 40
3.0
 40
3.0
 40
3.0
 40
4.0
 40
4.0
 40
4.0
 40
5.0
 40
5.0
 40
5.0
 40
6.0
 40
6.0
 40
6.0
 40
7.0
 40
7.0
 40
7.0
 40
8.0
 40
8.0
 40
8.0
 40
9.0
 40
9.0
 40
9.0
 40
10.0
 40
10.0
 40
10.0
 40
11.0
 40
11.0
 40
11.0
 40
11.0
 10
146.5896895853729
 20
83.7625273295937
 10
146.5896895853729
 20
83.7625273295937
 10
146.5896895853729
 20
93.01918936470704
 10
146.5896895853729
 20
93.01918936470704
 10
146.5896895853729
 20
93.01918936470704
 10
137.6469898469916
 20
93.01918936470704
 10
137.6469898469916
 20
93.01918936470704
 10
137.6469898469916
 20
93.01918936470704
 10
137.6469898469916
 20
75.59239285923813
 10
137.6469898469916
 20
75.59239285923813
 10
137.6469898469916
 20
75.59239285923813
 10
138.1196991966996
 20
75.59239285923813
 10
138.1196991966996
 20
75.59239285923813
 10
138.1196991966996
 20
75.59239285923813
 10
138.1196991966996
 20
83.76605308313008
 10
138.1196991966996
 20
83.76605308313008
 10
138.1196991966996
 20
83.76605308313008
 10
142.1271514086083
 20
83.76605308313008
 10
142.1271514086083
 20
83.76605308313008
 10
142.1271514086083
 20
83.76605308313008
 10
146.2369096842005
 20
75.59239285923813
 10
146.2369096842005
 20
75.59239285923813
 10
146.2369096842005
 20
75.59239285923813
 10
146.7660633874697
 20
75.59239285923813
 10
146.7660633874697
 20
75.59239285923813
 10
146.7660633874697
 20
75.59239285923813
 10
142.6563051118775
 20
83.76605308313008
 10
142.6563051118775
 20
83.76605308313008
 10
142.6563051118775
 20
83.76605308313008
 10
146.5896788197133
 20
83.76605308313008
 10
146.5896788197133
 20
83.76605308313008
 10
146.5896788197133
 20
83.76605308313008
 10
146.5896895853729
 20
83.7625273295937
 10
146.5896895853729
 20
83.7625273295937
 97
        0
 97
        1
330
D7
 75
     2
 76
     1
 98
        1
 10
0.0
 20
0.0
450
        0
451
        0
460
0.0
461
0.0
452
        0
462
0.0
453
        0
470

  0
ENDBLK
  5
CC
330
C9
100
AcDbEntity
  8
0
100
AcDbBlockEnd
  0
ENDSEC
  0
SECTION
  2
ENTITIES
  0
INSERT
  5
7A
330
70
100
AcDbEntity
  8
Ebene 1
100
AcDbBlockReference
  2
Block_0
 10
0.0
 20
0.0
 30
0.0
  0
INSERT
  5
CA
330
70
100
AcDbEntity
  8
Ebene 1
100
AcDbBlockReference
  2
Block_1
 10
0.0
 20
0.0
 30
0.0
  0
ENDSEC
  0
SECTION
  2
OBJECTS
  0
DICTIONARY
  5
C
330
0
100
AcDbDictionary
281
     1
  3
ACAD_COLOR
350
63
  3
ACAD_DETAILVIEWSTYLE
350
6A
  3
ACAD_GROUP
350
D
  3
ACAD_LAYOUT
350
62
  3
ACAD_MATERIAL
350
10
  3
ACAD_MLEADERSTYLE
350
66
  3
ACAD_MLINESTYLE
350
5F
  3
ACAD_PLOTSETTINGS
350
61
  3
ACAD_PLOTSTYLENAME
350
E
  3
ACAD_SCALELIST
350
42
  3
ACAD_SECTIONVIEWSTYLE
350
68
  3
ACAD_TABLESTYLE
350
64
  3
ACAD_VISUALSTYLE
350
29
  3
ACDB_RECOMPOSE_DATA
350
E1
  3
AcDbVariableDictionary
350
D9
  0
DICTIONARY
  5
63
102
{ACAD_REACTORS
330
C
102
}
330
C
100
AcDbDictionary
281
     1
  0
DICTIONARY
  5
6A
102
{ACAD_REACTORS
330
C
102
}
330
C
100
AcDbDictionary
281
     1
  3
Imperial24
350
6B
  0
DICTIONARY
  5
D
102
{ACAD_REACTORS
330
C
102
}
330
C
100
AcDbDictionary
281
     1
  0
DICTIONARY
  5
62
102
{ACAD_REACTORS
330
C
102
}
330
C
100
AcDbDictionary
281
     1
  3
Layout1
350
6F
  3
Layout2
350
77
  3
Model
350
73
  0
DICTIONARY
  5
10
102
{ACAD_REACTORS
330
C
102
}
330
C
100
AcDbDictionary
281
     1
  3
ByBlock
350
19
  3
ByLayer
350
11
  3
Global
350
21
  0
DICTIONARY
  5
66
102
{ACAD_REACTORS
330
C
102
}
330
C
100
AcDbDictionary
281
     1
  3
Standard
350
67
  0
DICTIONARY
  5
5F
102
{ACAD_REACTORS
330
C
102
}
330
C
100
AcDbDictionary
281
     1
  3
Standard
350
60
  0
DICTIONARY
  5
61
102
{ACAD_REACTORS
330
C
102
}
330
C
100
AcDbDictionary
281
     1
  0
ACDBDICTIONARYWDFLT
  5
E
102
{ACAD_REACTORS
330
C
102
}
330
C
100
AcDbDictionary
281
     1
  3
Normal
350
F
100
AcDbDictionaryWithDefault
340
F
  0
DICTIONARY
  5
42
102
{ACAD_REACTORS
330
C
102
}
330
C
100
AcDbDictionary
281
     1
  3
A0
350
43
  3
A1
350
44
  3
A2
350
45
  3
A3
350
46
  3
A4
350
47
  3
A5
350
48
  3
A6
350
49
  3
A7
350
4A
  3
A8
350
4B
  3
A9
350
4C
  3
B0
350
4D
  3
B1
350
4E
  3
B2
350
4F
  3
B3
350
50
  3
B4
350
51
  3
B5
350
52
  3
B6
350
53
  0
DICTIONARY
  5
68
102
{ACAD_REACTORS
330
C
102
}
330
C
100
AcDbDictionary
281
     1
  3
Imperial24
350
69
  0
DICTIONARY
  5
64
102
{ACAD_REACTORS
330
C
102
}
330
C
100
AcDbDictionary
281
     1
  3
Standard
350
65
  0
DICTIONARY
  5
29
102
{ACAD_REACTORS
330
C
102
}
330
C
100
AcDbDictionary
281
     1
  3
2dWireframe
350
2F
  3
Basic
350
2E
  3
Brighten
350
35
  3
ColorChange
350
39
  3
Conceptual
350
32
  3
Dim
350
34
  3
EdgeColorOff
350
41
  3
Facepattern
350
38
  3
Flat
350
2A
  3
FlatWithEdges
350
2B
  3
Gouraud
350
2C
  3
GouraudWithEdges
350
2D
  3
Hidden
350
31
  3
JitterOff
350
3F
  3
Linepattern
350
37
  3
OverhangOff
350
40
  3
Realistic
350
33
  3
Shaded
350
3E
  3
Shaded with edges
350
3D
  3
Shades of Gray
350
3A
  3
Sketchy
350
3B
  3
Thicken
350
36
  3
Wireframe
350
30
  3
X-Ray
350
3C
  0
XRECORD
  5
E1
102
{ACAD_REACTORS
330
C
102
}
330
C
100
AcDbXrecord
280
     1
 90
        1
330
65
  0
DICTIONARY
  5
D9
102
{ACAD_REACTORS
330
C
102
}
330
C
100
AcDbDictionary
281
     1
  3
CANNOSCALE
350
DE
  3
CMLEADERSTYLE
350
DB
  3
CTABLESTYLE
350
DA
  3
CVIEWDETAILSTYLE
350
DC
  3
CVIEWSECTIONSTYLE
350
DD
  0
ACDBDETAILVIEWSTYLE
  5
6B
102
{ACAD_REACTORS
330
6A
102
}
330
6A
100
AcDbModelDocViewStyle
 70
     0
  3
Imperial24
290
     1
300
Imperial24
 90
        0
100
AcDbDetailViewStyle
 70
     0
 71
     0
 90
        3
 71
     1
340
55
 62
   256
 40
0.24
340
0
 62
   256
 40
0.24
300

 40
0.36
280
     3
 71
     2
340
5D
 90
       25
 62
   256
 71
     3
340
55
 62
   256
 40
0.24
 90
        1
 40
0.75
 90
        1
300
%<\AcVar ViewType \f "%tc1">% %<\AcVar ViewDetailId>%\PSCALE %<\AcVar ViewScale \f "%sn">%
 71
     4
340
5D
 90
       25
 62
   256
340
5D
 90
       25
 62
   256
280
     0
  0
LAYOUT
  5
6F
102
{ACAD_REACTORS
330
62
102
}
330
62
100
AcDbPlotSettings
  1

  2

  4

  6

 40
0.0
 41
0.0
 42
0.0
 43
0.0
 44
0.0
 45
0.0
 46
0.0
 47
0.0
 48
0.0
 49
0.0
140
0.0
141
0.0
142
1.0
143
1.0
 70
   688
 72
     0
 73
     0
 74
     5
  7

 75
    16
147
1.0
 76
     0
 77
     2
 78
   300
148
0.0
149
0.0
100
AcDbLayout
  1
Layout1
 70
     1
 71
     1
 10
0.0
 20
0.0
 11
12.0
 21
9.0
 12
0.0
 22
0.0
 32
0.0
 14
0.0
 24
0.0
 34
0.0
 15
0.0
 25
0.0
 35
0.0
146
0.0
 13
0.0
 23
0.0
 33
0.0
 16
1.0
 26
0.0
 36
0.0
 17
0.0
 27
1.0
 37
0.0
 76
     0
330
6C
  0
LAYOUT
  5
77
102
{ACAD_REACTORS
330
62
102
}
330
62
100
AcDbPlotSettings
  1

  2

  4

  6

 40
0.0
 41
0.0
 42
0.0
 43
0.0
 44
0.0
 45
0.0
 46
0.0
 47
0.0
 48
0.0
 49
0.0
140
0.0
141
0.0
142
1.0
143
1.0
 70
   688
 72
     0
 73
     0
 74
     5
  7

 75
    16
147
1.0
 76
     0
 77
     2
 78
   300
148
0.0
149
0.0
100
AcDbLayout
  1
Layout2
 70
     1
 71
     2
 10
0.0
 20
0.0
 11
12.0
 21
9.0
 12
0.0
 22
0.0
 32
0.0
 14
0.0
 24
0.0
 34
0.0
 15
0.0
 25
0.0
 35
0.0
146
0.0
 13
0.0
 23
0.0
 33
0.0
 16
1.0
 26
0.0
 36
0.0
 17
0.0
 27
1.0
 37
0.0
 76
     0
330
74
  0
LAYOUT
  5
73
102
{ACAD_REACTORS
330
62
102
}
330
62
100
AcDbPlotSettings
  1

  2

  4

  6

 40
0.0
 41
0.0
 42
0.0
 43
0.0
 44
0.0
 45
0.0
 46
0.0
 47
0.0
 48
0.0
 49
0.0
140
0.0
141
0.0
142
1.0
143
1.0
 70
  1712
 72
     0
 73
     0
 74
     0
  7

 75
     0
147
1.0
 76
     0
 77
     2
 78
   300
148
0.0
149
0.0
100
AcDbLayout
  1
Model
 70
     1
 71
     0
 10
0.0
 20
0.0
 11
12.0
 21
9.0
 12
0.0
 22
0.0
 32
0.0
 14
0.0
 24
0.0
 34
0.0
 15
0.0
 25
0.0
 35
0.0
146
0.0
 13
0.0
 23
0.0
 33
0.0
 16
1.0
 26
0.0
 36
0.0
 17
0.0
 27
1.0
 37
0.0
 76
     0
330
70
  0
MATERIAL
  5
19
102
{ACAD_XDICTIONARY
360
1A
102
}
102
{ACAD_REACTORS
330
10
102
}
330
10
100
AcDbMaterial
  1
ByBlock
 72
     0
 43
0.0208333333333333
 43
0.0
 43
0.0
 43
0.0
 43
0.0
 43
0.0208333333333333
 43
0.0
 43
0.0
 43
0.0
 43
0.0
 43
1.0
 43
0.0
 43
0.0
 43
0.0
 43
0.0
 43
1.0
 77
     0
 47
0.0208333333333333
 47
0.0
 47
0.0
 47
0.0
 47
0.0
 47
0.0208333333333333
 47
0.0
 47
0.0
 47
0.0
 47
0.0
 47
1.0
 47
0.0
 47
0.0
 47
0.0
 47
0.0
 47
1.0
171
     0
 49
0.0208333333333333
 49
0.0
 49
0.0
 49
0.0
 49
0.0
 49
0.0208333333333333
 49
0.0
 49
0.0
 49
0.0
 49
0.0
 49
1.0
 49
0.0
 49
0.0
 49
0.0
 49
0.0
 49
1.0
175
     0
142
0.0208333333333333
142
0.0
142
0.0
142
0.0
142
0.0
142
0.0208333333333333
142
0.0
142
0.0
142
0.0
142
0.0
142
1.0
142
0.0
142
0.0
142
0.0
142
0.0
142
1.0
179
     0
144
0.0208333333333333
144
0.0
144
0.0
144
0.0
144
0.0
144
0.0208333333333333
144
0.0
144
0.0
144
0.0
144
0.0
144
1.0
144
0.0
144
0.0
144
0.0
144
0.0
144
1.0
147
0.0208333333333333
147
0.0
147
0.0
147
0.0
147
0.0
147
0.0208333333333333
147
0.0
147
0.0
147
0.0
147
0.0
147
1.0
147
0.0
147
0.0
147
0.0
147
0.0
147
1.0
  0
MATERIAL
  5
11
102
{ACAD_XDICTIONARY
360
12
102
}
102
{ACAD_REACTORS
330
10
102
}
330
10
100
AcDbMaterial
  1
ByLayer
 72
     0
 43
0.0208333333333333
 43
0.0
 43
0.0
 43
0.0
 43
0.0
 43
0.0208333333333333
 43
0.0
 43
0.0
 43
0.0
 43
0.0
 43
1.0
 43
0.0
 43
0.0
 43
0.0
 43
0.0
 43
1.0
 77
     0
 47
0.0208333333333333
 47
0.0
 47
0.0
 47
0.0
 47
0.0
 47
0.0208333333333333
 47
0.0
 47
0.0
 47
0.0
 47
0.0
 47
1.0
 47
0.0
 47
0.0
 47
0.0
 47
0.0
 47
1.0
171
     0
 49
0.0208333333333333
 49
0.0
 49
0.0
 49
0.0
 49
0.0
 49
0.0208333333333333
 49
0.0
 49
0.0
 49
0.0
 49
0.0
 49
1.0
 49
0.0
 49
0.0
 49
0.0
 49
0.0
 49
1.0
175
     0
142
0.0208333333333333
142
0.0
142
0.0
142
0.0
142
0.0
142
0.0208333333333333
142
0.0
142
0.0
142
0.0
142
0.0
142
1.0
142
0.0
142
0.0
142
0.0
142
0.0
142
1.0
179
     0
144
0.0208333333333333
144
0.0
144
0.0
144
0.0
144
0.0
144
0.0208333333333333
144
0.0
144
0.0
144
0.0
144
0.0
144
1.0
144
0.0
144
0.0
144
0.0
144
0.0
144
1.0
147
0.0208333333333333
147
0.0
147
0.0
147
0.0
147
0.0
147
0.0208333333333333
147
0.0
147
0.0
147
0.0
147
0.0
147
1.0
147
0.0
147
0.0
147
0.0
147
0.0
147
1.0
  0
MATERIAL
  5
21
102
{ACAD_XDICTIONARY
360
22
102
}
102
{ACAD_REACTORS
330
10
102
}
330
10
100
AcDbMaterial
  1
Global
 72
     0
 43
0.0208333333333333
 43
0.0
 43
0.0
 43
0.0
 43
0.0
 43
0.0208333333333333
 43
0.0
 43
0.0
 43
0.0
 43
0.0
 43
1.0
 43
0.0
 43
0.0
 43
0.0
 43
0.0
 43
1.0
 77
     0
 47
0.0208333333333333
 47
0.0
 47
0.0
 47
0.0
 47
0.0
 47
0.0208333333333333
 47
0.0
 47
0.0
 47
0.0
 47
0.0
 47
1.0
 47
0.0
 47
0.0
 47
0.0
 47
0.0
 47
1.0
171
     0
 49
0.0208333333333333
 49
0.0
 49
0.0
 49
0.0
 49
0.0
 49
0.0208333333333333
 49
0.0
 49
0.0
 49
0.0
 49
0.0
 49
1.0
 49
0.0
 49
0.0
 49
0.0
 49
0.0
 49
1.0
175
     0
142
0.0208333333333333
142
0.0
142
0.0
142
0.0
142
0.0
142
0.0208333333333333
142
0.0
142
0.0
142
0.0
142
0.0
142
1.0
142
0.0
142
0.0
142
0.0
142
0.0
142
1.0
179
     0
144
0.0208333333333333
144
0.0
144
0.0
144
0.0
144
0.0
144
0.0208333333333333
144
0.0
144
0.0
144
0.0
144
0.0
144
1.0
144
0.0
144
0.0
144
0.0
144
0.0
144
1.0
147
0.0208333333333333
147
0.0
147
0.0
147
0.0
147
0.0
147
0.0208333333333333
147
0.0
147
0.0
147
0.0
147
0.0
147
1.0
147
0.0
147
0.0
147
0.0
147
0.0
147
1.0
  0
MLEADERSTYLE
  5
67
102
{ACAD_REACTORS
330
66
102
}
330
66
100
AcDbMLeaderStyle
179
     2
170
     2
171
     1
172
     0
 90
        2
 40
0.0
 41
0.0
173
     1
 91
-1056964608
340
5B
 92
       -2
290
     1
 42
0.09
291
     1
 43
0.36
  3
Standard
 44
0.18
300

342
55
174
     1
178
     6
175
     1
176
     0
 93
-1056964608
 45
0.18
292
     0
297
     0
 46
0.18
 94
-1056964608
 47
1.0
 49
1.0
140
1.0
293
     1
141
0.0
294
     1
177
     0
142
1.0
295
     1
296
     0
143
0.125
271
     0
272
     9
273
     9
298
     1
  0
MLINESTYLE
  5
60
102
{ACAD_REACTORS
330
5F
102
}
330
5F
100
AcDbMlineStyle
  2
STANDARD
 70
     0
  3

 62
   256
 51
90.0
 52
90.0
 71
     2
 49
0.5
 62
   256
  6
BYLAYER
 49
-0.5
 62
   256
  6
BYLAYER
  0
ACDBPLACEHOLDER
  5
F
102
{ACAD_REACTORS
330
E
102
}
330
E
  0
SCALE
  5
43
102
{ACAD_REACTORS
330
42
102
}
330
42
100
AcDbScale
 70
     0
300
1:1
140
1.0
141
1.0
290
     1
  0
SCALE
  5
44
102
{ACAD_REACTORS
330
42
102
}
330
42
100
AcDbScale
 70
     0
300
1/128" = 1'-0"
140
0.0078125
141
12.0
290
     0
  0
SCALE
  5
45
102
{ACAD_REACTORS
330
42
102
}
330
42
100
AcDbScale
 70
     0
300
1/64" = 1'-0"
140
0.015625
141
12.0
290
     0
  0
SCALE
  5
46
102
{ACAD_REACTORS
330
42
102
}
330
42
100
AcDbScale
 70
     0
300
1/32" = 1'-0"
140
0.03125
141
12.0
290
     0
  0
SCALE
  5
47
102
{ACAD_REACTORS
330
42
102
}
330
42
100
AcDbScale
 70
     0
300
1/16" = 1'-0"
140
0.0625
141
12.0
290
     0
  0
SCALE
  5
48
102
{ACAD_REACTORS
330
42
102
}
330
42
100
AcDbScale
 70
     0
300
3/32" = 1'-0"
140
0.09375
141
12.0
290
     0
  0
SCALE
  5
49
102
{ACAD_REACTORS
330
42
102
}
330
42
100
AcDbScale
 70
     0
300
1/8" = 1'-0"
140
0.125
141
12.0
290
     0
  0
SCALE
  5
4A
102
{ACAD_REACTORS
330
42
102
}
330
42
100
AcDbScale
 70
     0
300
3/16" = 1'-0"
140
0.1875
141
12.0
290
     0
  0
SCALE
  5
4B
102
{ACAD_REACTORS
330
42
102
}
330
42
100
AcDbScale
 70
     0
300
1/4" = 1'-0"
140
0.25
141
12.0
290
     0
  0
SCALE
  5
4C
102
{ACAD_REACTORS
330
42
102
}
330
42
100
AcDbScale
 70
     0
300
3/8" = 1'-0"
140
0.375
141
12.0
290
     0
  0
SCALE
  5
4D
102
{ACAD_REACTORS
330
42
102
}
330
42
100
AcDbScale
 70
     0
300
1/2" = 1'-0"
140
0.5
141
12.0
290
     0
  0
SCALE
  5
4E
102
{ACAD_REACTORS
330
42
102
}
330
42
100
AcDbScale
 70
     0
300
3/4" = 1'-0"
140
0.75
141
12.0
290
     0
  0
SCALE
  5
4F
102
{ACAD_REACTORS
330
42
102
}
330
42
100
AcDbScale
 70
     0
300
1" = 1'-0"
140
1.0
141
12.0
290
     0
  0
SCALE
  5
50
102
{ACAD_REACTORS
330
42
102
}
330
42
100
AcDbScale
 70
     0
300
1-1/2" = 1'-0"
140
1.5
141
12.0
290
     0
  0
SCALE
  5
51
102
{ACAD_REACTORS
330
42
102
}
330
42
100
AcDbScale
 70
     0
300
3" = 1'-0"
140
3.0
141
12.0
290
     0
  0
SCALE
  5
52
102
{ACAD_REACTORS
330
42
102
}
330
42
100
AcDbScale
 70
     0
300
6" = 1'-0"
140
6.0
141
12.0
290
     0
  0
SCALE
  5
53
102
{ACAD_REACTORS
330
42
102
}
330
42
100
AcDbScale
 70
     0
300
1'-0" = 1'-0"
140
12.0
141
12.0
290
     0
  0
ACDBSECTIONVIEWSTYLE
  5
69
102
{ACAD_REACTORS
330
68
102
}
330
68
100
AcDbModelDocViewStyle
 70
     0
  3
Imperial24
290
     1
300
Imperial24
 90
        0
100
AcDbSectionViewStyle
 70
     0
 71
     0
 90
       78
 71
     1
340
55
 62
   256
 40
0.24
340
0
340
0
 62
   256
 40
0.24
300
I, O, Q, S, X, Z
 40
0.48
 90
        3
 40
0.18
 90
        1
 71
     2
340
5D
 90
       25
 62
   256
340
5D
 90
       50
 62
   256
 40
0.24
 40
0.0
 40
0.24
 71
     3
340
55
 62
   256
 40
0.24
 90
        1
 40
0.75
 90
        1
300
%<\AcVar ViewType \f "%tc1">% %<\AcVar ViewSectionStartId>%-%<\AcVar ViewSectionEndId>%\PSCALE %<\AcVar ViewScale \f "%sn">%
 71
     4
 62
   256
 62
   257
300
ANSI31
 40
1.0
 90
        0
290
     0
290
     0
 90
        6
 40
0.0
 40
1.570796326794896
 40
0.2617993877991494
 40
1.308996938995747
 40
-0.2617993877991494
 40
1.832595714594046
  0
TABLESTYLE
  5
65
102
{ACAD_XDICTIONARY
360
DF
102
}
102
{ACAD_REACTORS
330
64
102
}
330
64
100
AcDbTableStyle
280
     0
  3
Standard
 70
     0
 71
     0
 40
0.06
 41
0.06
280
     0
281
     0
  7
Standard
140
0.18
170
     2
 62
     0
 63
     7
283
     0
 90
      512
 91
        0
  1

274
    -2
284
     1
 64
     0
275
    -2
285
     1
 65
     0
276
    -2
286
     1
 66
     0
277
    -2
287
     1
 67
     0
278
    -2
288
     1
 68
     0
279
    -2
289
     1
 69
     0
  7
Standard
140
0.25
170
     5
 62
     0
 63
     7
283
     0
 90
      512
 91
        0
  1

274
    -2
284
     1
 64
     0
275
    -2
285
     1
 65
     0
276
    -2
286
     1
 66
     0
277
    -2
287
     1
 67
     0
278
    -2
288
     1
 68
     0
279
    -2
289
     1
 69
     0
  7
Standard
140
0.18
170
     5
 62
     0
 63
     7
283
     0
 90
      512
 91
        0
  1

274
    -2
284
     1
 64
     0
275
    -2
285
     1
 65
     0
276
    -2
286
     1
 66
     0
277
    -2
287
     1
 67
     0
278
    -2
288
     1
 68
     0
279
    -2
289
     1
 69
     0
  0
VISUALSTYLE
  5
2F
102
{ACAD_REACTORS
330
29
102
}
330
29
100
AcDbVisualStyle
  2
2dWireframe
 70
     4
177
     3
291
     0
 70
    58
 90
        0
176
     1
 90
        2
176
     1
 90
        0
176
     1
 90
        0
176
     1
 40
0.6
176
     1
 40
30.0
176
     1
 62
     7
420
 16777215
176
     1
 90
        1
176
     1
 90
        4
176
     1
 62
     7
176
     1
 62
   257
176
     1
 90
        1
176
     1
 90
        1
176
     1
 40
1.0
176
     1
 90
        0
176
     1
 62
   257
176
     1
 40
1.0
176
     1
 90
        1
176
     1
 90
        6
176
     1
 90
        2
176
     1
 62
     7
176
     1
 90
        5
176
     1
 90
        0
176
     1
 90
        0
176
     1
290
     0
176
     1
 90
        1
176
     1
 40
0.0
176
     1
 90
        0
176
     1
290
     1
176
     1
290
     1
176
     1
290
     0
176
     1
290
     0
176
     1
290
     0
176
     1
290
     0
176
     1
290
     0
176
     1
290
     0
176
     1
290
     0
176
     1
 90
       50
176
     1
 40
0.0
176
     1
 40
1.0
176
     1
 90
        0
176
     1
 62
    18
420
        0
176
     1
 90
       50
176
     1
 90
        3
176
     1
 62
     5
420
      255
176
     1
290
     0
176
     1
 90
       50
176
     1
 90
       50
176
     1
 90
       50
176
     1
290
     0
176
     1
 90
       50
176
     1
 62
   256
176
     0
 40
1.0
176
     0
 90
        2
176
     1
  1
strokes_ogs.tif
176
     1
290
     0
176
     1
 40
1.0
176
     1
 40
1.0
176
     1
  0
VISUALSTYLE
  5
2E
102
{ACAD_REACTORS
330
29
102
}
330
29
100
AcDbVisualStyle
  2
Basic
 70
     7
177
     3
291
     1
 70
    58
 90
        1
176
     1
 90
        0
176
     1
 90
        1
176
     1
 90
        0
176
     1
 40
0.6
176
     1
 40
30.0
176
     1
 62
     7
420
 16777215
176
     1
 90
        0
176
     1
 90
        4
176
     1
 62
     7
176
     1
 62
   257
176
     1
 90
        1
176
     1
 90
        1
176
     1
 40
1.0
176
     1
 90
        8
176
     1
 62
     7
176
     1
 40
1.0
176
     1
 90
        1
176
     1
 90
        6
176
     1
 90
        2
176
     1
 62
     7
176
     1
 90
        5
176
     1
 90
        0
176
     1
 90
        0
176
     1
290
     0
176
     1
 90
        1
176
     1
 40
0.0
176
     1
 90
        0
176
     1
290
     0
176
     1
290
     1
176
     1
290
     1
176
     1
290
     0
176
     1
290
     0
176
     1
290
     0
176
     1
290
     0
176
     1
290
     0
176
     1
290
     0
176
     1
 90
       50
176
     1
 40
0.0
176
     1
 40
1.0
176
     1
 90
        0
176
     1
 62
    18
420
        0
176
     1
 90
       50
176
     1
 90
        3
176
     1
 62
     5
420
      255
176
     1
290
     0
176
     1
 90
       50
176
     1
 90
       50
176
     1
 90
       50
176
     1
290
     0
176
     1
 90
       50
176
     1
 62
   256
176
     0
 40
1.0
176
     0
 90
        2
176
     1
  1
strokes_ogs.tif
176
     1
290
     0
176
     1
 40
1.0
176
     1
 40
1.0
176
     1
  0
VISUALSTYLE
  5
35
102
{ACAD_REACTORS
330
29
102
}
330
29
100
AcDbVisualStyle
  2
Brighten
 70
    12
177
     3
291
     1
 70
    58
 90
        2
176
     1
 90
        2
176
     1
 90
        0
176
     1
 90
        0
176
     1
 40
0.6
176
     1
 40
30.0
176
     1
 62
     7
420
 16777215
176
     1
 90
        1
176
     1
 90
        4
176
     1
 62
     7
176
     1
 62
   257
176
     1
 90
        1
176
     1
 90
        1
176
     1
 40
1.0
176
     1
 90
        8
176
     1
 62
     7
176
     1
 40
1.0
176
     1
 90
        1
176
     1
 90
        6
176
     1
 90
        2
176
     1
 62
     7
176
     1
 90
        5
176
     1
 90
        0
176
     1
 90
        0
176
     1
290
     0
176
     1
 90
        1
176
     1
 40
50.0
176
     1
 90
        0
176
     1
290
     0
176
     1
290
     1
176
     1
290
     1
176
     1
290
     0
176
     1
290
     0
176
     1
290
     0
176
     1
290
     0
176
     1
290
     0
176
     1
290
     0
176
     1
 90
       50
176
     1
 40
0.0
176
     1
 40
1.0
176
     1
 90
        0
176
     1
 62
    18
420
        0
176
     1
 90
       50
176
     1
 90
        3
176
     1
 62
     5
420
      255
176
     1
290
     0
176
     1
 90
       50
176
     1
 90
       50
176
     1
 90
       50
176
     1
290
     0
176
     1
 90
       50
176
     1
 62
   256
176
     0
 40
1.0
176
     0
 90
        2
176
     1
  1
strokes_ogs.tif
176
     1
290
     0
176
     1
 40
1.0
176
     1
 40
1.0
176
     1
  0
VISUALSTYLE
  5
39
102
{ACAD_REACTORS
330
29
102
}
330
29
100
AcDbVisualStyle
  2
ColorChange
 70
    16
177
     3
291
     1
 70
    58
 90
        2
176
     1
 90
        2
176
     1
 90
        3
176
     1
 90
        0
176
     1
 40
0.6
176
     1
 40
30.0
176
     1
 62
     8
420
  8421504
176
     1
 90
        1
176
     1
 90
        4
176
     1
 62
     7
176
     1
 62
   257
176
     1
 90
        1
176
     1
 90
        1
176
     1
 40
1.0
176
     1
 90
        8
176
     1
 62
     8
420
  8421504
176
     1
 40
1.0
176
     1
 90
        1
176
     1
 90
        6
176
     1
 90
        2
176
     1
 62
     7
176
     1
 90
        5
176
     1
 90
        0
176
     1
 90
        0
176
     1
290
     0
176
     1
 90
        1
176
     1
 40
0.0
176
     1
 90
        0
176
     1
290
     0
176
     1
290
     1
176
     1
290
     1
176
     1
290
     0
176
     1
290
     0
176
     1
290
     0
176
     1
290
     0
176
     1
290
     0
176
     1
290
     0
176
     1
 90
       50
176
     1
 40
0.0
176
     1
 40
1.0
176
     1
 90
        0
176
     1
 62
    18
420
        0
176
     1
 90
       50
176
     1
 90
        3
176
     1
 62
     5
420
      255
176
     1
290
     0
176
     1
 90
       50
176
     1
 90
       50
176
     1
 90
       50
176
     1
290
     0
176
     1
 90
       50
176
     1
 62
   256
176
     0
 40
1.0
176
     0
 90
        2
176
     1
  1
strokes_ogs.tif
176
     1
290
     0
176
     1
 40
1.0
176
     1
 40
1.0
176
     1
  0
VISUALSTYLE
  5
32
102
{ACAD_REACTORS
330
29
102
}
330
29
100
AcDbVisualStyle
  2
Conceptual
 70
     9
177
     3
291
     0
 70
    58
 90
        3
176
     1
 90
        2
176
     1
 90
        0
176
     1
 90
        0
176
     1
 40
0.6
176
     1
 40
30.0
176
     1
 62
     7
420
 16777215
176
     1
 90
        2
176
     1
 90
        2
176
     1
 62
     7
176
     1
 62
   257
176
     1
 90
        1
176
     1
 90
        1
176
     1
 40
179.0
176
     1
 90
        8
176
     1
 62
     7
176
     1
 40
1.0
176
     1
 90
        1
176
     1
 90
        6
176
     1
 90
        2
176
     1
 62
     7
176
     1
 90
        3
176
     1
 90
        0
176
     1
 90
        0
176
     1
290
     0
176
     1
 90
        1
176
     1
 40
0.0
176
     1
 90
        0
176
     1
290
     0
176
     1
290
     1
176
     1
290
     1
176
     1
290
     0
176
     1
290
     0
176
     1
290
     0
176
     1
290
     0
176
     1
290
     0
176
     1
290
     0
176
     1
 90
       50
176
     1
 40
0.0
176
     1
 40
1.0
176
     1
 90
        0
176
     1
 62
    18
420
        0
176
     1
 90
       50
176
     1
 90
        3
176
     1
 62
     5
420
      255
176
     1
290
     0
176
     1
 90
       50
176
     1
 90
       50
176
     1
 90
       50
176
     1
290
     0
176
     1
 90
       50
176
     1
 62
   256
176
     0
 40
1.0
176
     0
 90
        2
176
     1
  1
strokes_ogs.tif
176
     1
290
     0
176
     1
 40
1.0
176
     1
 40
1.0
176
     1
  0
VISUALSTYLE
  5
34
102
{ACAD_REACTORS
330
29
102
}
330
29
100
AcDbVisualStyle
  2
Dim
 70
    11
177
     3
291
     1
 70
    58
 90
        2
176
     1
 90
        2
176
     1
 90
        0
176
     1
 90
        0
176
     1
 40
0.6
176
     1
 40
30.0
176
     1
 62
     7
420
 16777215
176
     1
 90
        1
176
     1
 90
        4
176
     1
 62
     7
176
     1
 62
   257
176
     1
 90
        1
176
     1
 90
        1
176
     1
 40
1.0
176
     1
 90
        8
176
     1
 62
     7
176
     1
 40
1.0
176
     1
 90
        1
176
     1
 90
        6
176
     1
 90
        2
176
     1
 62
     7
176
     1
 90
        5
176
     1
 90
        0
176
     1
 90
        0
176
     1
290
     0
176
     1
 90
        1
176
     1
 40
-50.0
176
     1
 90
        0
176
     1
290
     0
176
     1
290
     1
176
     1
290
     1
176
     1
290
     0
176
     1
290
     0
176
     1
290
     0
176
     1
290
     0
176
     1
290
     0
176
     1
290
     0
176
     1
 90
       50
176
     1
 40
0.0
176
     1
 40
1.0
176
     1
 90
        0
176
     1
 62
    18
420
        0
176
     1
 90
       50
176
     1
 90
        3
176
     1
 62
     5
420
      255
176
     1
290
     0
176
     1
 90
       50
176
     1
 90
       50
176
     1
 90
       50
176
     1
290
     0
176
     1
 90
       50
176
     1
 62
   256
176
     0
 40
1.0
176
     0
 90
        2
176
     1
  1
strokes_ogs.tif
176
     1
290
     0
176
     1
 40
1.0
176
     1
 40
1.0
176
     1
  0
VISUALSTYLE
  5
41
102
{ACAD_REACTORS
330
29
102
}
330
29
100
AcDbVisualStyle
  2
EdgeColorOff
 70
    22
177
     3
291
     1
 70
    58
 90
        2
176
     0
 90
        2
176
     0
 90
        0
176
     0
 90
        0
176
     0
 40
0.6
176
     0
 40
30.0
176
     0
 62
     7
420
 16777215
176
     0
 90
        1
176
     0
 90
        4
176
     0
 62
     7
176
     0
 62
   257
176
     0
 90
        1
176
     0
 90
        1
176
     0
 40
1.0
176
     0
 90
        8
176
     2
 62
     7
176
     0
 40
1.0
176
     0
 90
        1
176
     0
 90
        6
176
     0
 90
        2
176
     0
 62
     7
176
     0
 90
        5
176
     0
 90
        0
176
     0
 90
        0
176
     0
290
     0
176
     0
 90
        1
176
     0
 40
0.0
176
     0
 90
        0
176
     0
290
     0
176
     0
290
     1
176
     0
290
     1
176
     0
290
     0
176
     0
290
     0
176
     0
290
     0
176
     0
290
     0
176
     0
290
     0
176
     0
290
     0
176
     0
 90
       50
176
     0
 40
0.0
176
     0
 40
1.0
176
     0
 90
        0
176
     0
 62
    18
420
        0
176
     0
 90
       50
176
     0
 90
        3
176
     0
 62
     5
420
      255
176
     0
290
     0
176
     0
 90
       50
176
     0
 90
       50
176
     0
 90
       50
176
     0
290
     0
176
     0
 90
       50
176
     0
 62
   256
176
     0
 40
1.0
176
     0
 90
        2
176
     0
  1
strokes_ogs.tif
176
     0
290
     0
176
     0
 40
1.0
176
     0
 40
1.0
176
     0
  0
VISUALSTYLE
  5
38
102
{ACAD_REACTORS
330
29
102
}
330
29
100
AcDbVisualStyle
  2
Facepattern
 70
    15
177
     3
291
     1
 70
    58
 90
        2
176
     1
 90
        2
176
     1
 90
        0
176
     1
 90
        0
176
     1
 40
0.6
176
     1
 40
30.0
176
     1
 62
     7
420
 16777215
176
     1
 90
        1
176
     1
 90
        4
176
     1
 62
     7
176
     1
 62
   257
176
     1
 90
        1
176
     1
 90
        1
176
     1
 40
1.0
176
     1
 90
        8
176
     1
 62
     7
176
     1
 40
1.0
176
     1
 90
        1
176
     1
 90
        6
176
     1
 90
        2
176
     1
 62
     7
176
     1
 90
        5
176
     1
 90
        0
176
     1
 90
        0
176
     1
290
     0
176
     1
 90
        1
176
     1
 40
0.0
176
     1
 90
        0
176
     1
290
     0
176
     1
290
     1
176
     1
290
     1
176
     1
290
     0
176
     1
290
     0
176
     1
290
     0
176
     1
290
     0
176
     1
290
     0
176
     1
290
     0
176
     1
 90
       50
176
     1
 40
0.0
176
     1
 40
1.0
176
     1
 90
        0
176
     1
 62
    18
420
        0
176
     1
 90
       50
176
     1
 90
        3
176
     1
 62
     5
420
      255
176
     1
290
     0
176
     1
 90
       50
176
     1
 90
       50
176
     1
 90
       50
176
     1
290
     0
176
     1
 90
       50
176
     1
 62
   256
176
     0
 40
1.0
176
     0
 90
        2
176
     1
  1
strokes_ogs.tif
176
     1
290
     0
176
     1
 40
1.0
176
     1
 40
1.0
176
     1
  0
VISUALSTYLE
  5
2A
102
{ACAD_REACTORS
330
29
102
}
330
29
100
AcDbVisualStyle
  2
Flat
 70
     0
177
     3
291
     1
 70
    58
 90
        2
176
     1
 90
        1
176
     1
 90
        1
176
     1
 90
        2
176
     1
 40
0.6
176
     1
 40
30.0
176
     1
 62
     7
420
 16777215
176
     1
 90
        0
176
     1
 90
        0
176
     1
 62
     7
176
     1
 62
   257
176
     1
 90
        1
176
     1
 90
        1
176
     1
 40
1.0
176
     1
 90
        8
176
     1
 62
     7
176
     1
 40
1.0
176
     1
 90
        1
176
     1
 90
        6
176
     1
 90
        2
176
     1
 62
     7
176
     1
 90
        5
176
     1
 90
        0
176
     1
 90
        0
176
     1
290
     0
176
     1
 90
       13
176
     1
 40
0.0
176
     1
 90
        0
176
     1
290
     0
176
     1
290
     1
176
     1
290
     1
176
     1
290
     0
176
     1
290
     0
176
     1
290
     0
176
     1
290
     0
176
     1
290
     0
176
     1
290
     0
176
     1
 90
       50
176
     1
 40
0.0
176
     1
 40
1.0
176
     1
 90
        0
176
     1
 62
    18
420
        0
176
     1
 90
       50
176
     1
 90
        3
176
     1
 62
     5
420
      255
176
     1
290
     0
176
     1
 90
       50
176
     1
 90
       50
176
     1
 90
       50
176
     1
290
     0
176
     1
 90
       50
176
     1
 62
   256
176
     0
 40
1.0
176
     0
 90
        2
176
     1
  1
strokes_ogs.tif
176
     1
290
     0
176
     1
 40
1.0
176
     1
 40
1.0
176
     1
  0
VISUALSTYLE
  5
2B
102
{ACAD_REACTORS
330
29
102
}
330
29
100
AcDbVisualStyle
  2
FlatWithEdges
 70
     1
177
     3
291
     1
 70
    58
 90
        2
176
     1
 90
        1
176
     1
 90
        1
176
     1
 90
        2
176
     1
 40
0.6
176
     1
 40
30.0
176
     1
 62
     7
420
 16777215
176
     1
 90
        1
176
     1
 90
        0
176
     1
 62
     7
176
     1
 62
   257
176
     1
 90
        1
176
     1
 90
        1
176
     1
 40
1.0
176
     1
 90
        0
176
     1
 62
   257
176
     1
 40
1.0
176
     1
 90
        1
176
     1
 90
        6
176
     1
 90
        2
176
     1
 62
     7
176
     1
 90
        5
176
     1
 90
        0
176
     1
 90
        0
176
     1
290
     0
176
     1
 90
       13
176
     1
 40
0.0
176
     1
 90
        0
176
     1
290
     0
176
     1
290
     1
176
     1
290
     1
176
     1
290
     0
176
     1
290
     0
176
     1
290
     0
176
     1
290
     0
176
     1
290
     0
176
     1
290
     0
176
     1
 90
       50
176
     1
 40
0.0
176
     1
 40
1.0
176
     1
 90
        0
176
     1
 62
    18
420
        0
176
     1
 90
       50
176
     1
 90
        3
176
     1
 62
     5
420
      255
176
     1
290
     0
176
     1
 90
       50
176
     1
 90
       50
176
     1
 90
       50
176
     1
290
     0
176
     1
 90
       50
176
     1
 62
   256
176
     0
 40
1.0
176
     0
 90
        2
176
     1
  1
strokes_ogs.tif
176
     1
290
     0
176
     1
 40
1.0
176
     1
 40
1.0
176
     1
  0
VISUALSTYLE
  5
2C
102
{ACAD_REACTORS
330
29
102
}
330
29
100
AcDbVisualStyle
  2
Gouraud
 70
     2
177
     3
291
     1
 70
    58
 90
        2
176
     1
 90
        2
176
     1
 90
        1
176
     1
 90
        2
176
     1
 40
0.6
176
     1
 40
30.0
176
     1
 62
     7
420
 16777215
176
     1
 90
        0
176
     1
 90
        0
176
     1
 62
     7
176
     1
 62
   257
176
     1
 90
        1
176
     1
 90
        1
176
     1
 40
1.0
176
     1
 90
        0
176
     1
 62
     7
176
     1
 40
1.0
176
     1
 90
        1
176
     1
 90
        6
176
     1
 90
        2
176
     1
 62
     7
176
     1
 90
        5
176
     1
 90
        0
176
     1
 90
        0
176
     1
290
     0
176
     1
 90
       13
176
     1
 40
0.0
176
     1
 90
        0
176
     1
290
     0
176
     1
290
     1
176
     1
290
     1
176
     1
290
     0
176
     1
290
     0
176
     1
290
     0
176
     1
290
     0
176
     1
290
     0
176
     1
290
     0
176
     1
 90
       50
176
     1
 40
0.0
176
     1
 40
1.0
176
     1
 90
        0
176
     1
 62
    18
420
        0
176
     1
 90
       50
176
     1
 90
        3
176
     1
 62
     5
420
      255
176
     1
290
     0
176
     1
 90
       50
176
     1
 90
       50
176
     1
 90
       50
176
     1
290
     0
176
     1
 90
       50
176
     1
 62
   256
176
     0
 40
1.0
176
     0
 90
        2
176
     1
  1
strokes_ogs.tif
176
     1
290
     0
176
     1
 40
1.0
176
     1
 40
1.0
176
     1
  0
VISUALSTYLE
  5
2D
102
{ACAD_REACTORS
330
29
102
}
330
29
100
AcDbVisualStyle
  2
GouraudWithEdges
 70
     3
177
     3
291
     1
 70
    58
 90
        2
176
     1
 90
        2
176
     1
 90
        1
176
     1
 90
        2
176
     1
 40
0.6
176
     1
 40
30.0
176
     1
 62
     7
420
 16777215
176
     1
 90
        1
176
     1
 90
        0
176
     1
 62
     7
176
     1
 62
   257
176
     1
 90
        1
176
     1
 90
        1
176
     1
 40
1.0
176
     1
 90
        0
176
     1
 62
   257
176
     1
 40
1.0
176
     1
 90
        1
176
     1
 90
        6
176
     1
 90
        2
176
     1
 62
     7
176
     1
 90
        5
176
     1
 90
        0
176
     1
 90
        0
176
     1
290
     0
176
     1
 90
       13
176
     1
 40
0.0
176
     1
 90
        0
176
     1
290
     0
176
     1
290
     1
176
     1
290
     1
176
     1
290
     0
176
     1
290
     0
176
     1
290
     0
176
     1
290
     0
176
     1
290
     0
176
     1
290
     0
176
     1
 90
       50
176
     1
 40
0.0
176
     1
 40
1.0
176
     1
 90
        0
176
     1
 62
    18
420
        0
176
     1
 90
       50
176
     1
 90
        3
176
     1
 62
     5
420
      255
176
     1
290
     0
176
     1
 90
       50
176
     1
 90
       50
176
     1
 90
       50
176
     1
290
     0
176
     1
 90
       50
176
     1
 62
   256
176
     0
 40
1.0
176
     0
 90
        2
176
     1
  1
strokes_ogs.tif
176
     1
290
     0
176
     1
 40
1.0
176
     1
 40
1.0
176
     1
  0
VISUALSTYLE
  5
31
102
{ACAD_REACTORS
330
29
102
}
330
29
100
AcDbVisualStyle
  2
Hidden
 70
     6
177
     3
291
     0
 70
    58
 90
        1
176
     1
 90
        2
176
     1
 90
        2
176
     1
 90
        0
176
     1
 40
0.6
176
     1
 40
30.0
176
     1
 62
     7
420
 16777215
176
     1
 90
        2
176
     1
 90
        2
176
     1
 62
     7
176
     1
 62
   257
176
     1
 90
        2
176
     1
 90
        1
176
     1
 40
40.0
176
     1
 90
        0
176
     1
 62
   257
176
     1
 40
1.0
176
     1
 90
        1
176
     1
 90
        6
176
     1
 90
        2
176
     1
 62
     7
176
     1
 90
        3
176
     1
 90
        0
176
     1
 90
        0
176
     1
290
     0
176
     1
 90
        1
176
     1
 40
0.0
176
     1
 90
        0
176
     1
290
     0
176
     1
290
     1
176
     1
290
     1
176
     1
290
     0
176
     1
290
     0
176
     1
290
     0
176
     1
290
     0
176
     1
290
     0
176
     1
290
     0
176
     1
 90
       50
176
     1
 40
0.0
176
     1
 40
1.0
176
     1
 90
        0
176
     1
 62
    18
420
        0
176
     1
 90
       50
176
     1
 90
        3
176
     1
 62
     5
420
      255
176
     1
290
     0
176
     1
 90
       50
176
     1
 90
       50
176
     1
 90
       50
176
     1
290
     0
176
     1
 90
       50
176
     1
 62
   256
176
     0
 40
1.0
176
     0
 90
        2
176
     1
  1
strokes_ogs.tif
176
     1
290
     0
176
     1
 40
1.0
176
     1
 40
1.0
176
     1
  0
VISUALSTYLE
  5
3F
102
{ACAD_REACTORS
330
29
102
}
330
29
100
AcDbVisualStyle
  2
JitterOff
 70
    20
177
     3
291
     1
 70
    58
 90
        2
176
     0
 90
        2
176
     0
 90
        0
176
     0
 90
        0
176
     0
 40
0.6
176
     0
 40
30.0
176
     0
 62
     7
420
 16777215
176
     0
 90
        1
176
     0
 90
        4
176
     0
 62
     7
176
     0
 62
   257
176
     0
 90
        1
176
     0
 90
        1
176
     0
 40
1.0
176
     0
 90
       10
176
     2
 62
     7
176
     0
 40
1.0
176
     0
 90
        1
176
     0
 90
        6
176
     0
 90
        2
176
     0
 62
     7
176
     0
 90
        5
176
     0
 90
        0
176
     0
 90
        0
176
     0
290
     0
176
     0
 90
        1
176
     0
 40
0.0
176
     0
 90
        0
176
     0
290
     0
176
     0
290
     1
176
     0
290
     1
176
     0
290
     0
176
     0
290
     0
176
     0
290
     0
176
     0
290
     0
176
     0
290
     0
176
     0
290
     0
176
     0
 90
       50
176
     0
 40
0.0
176
     0
 40
1.0
176
     0
 90
        0
176
     0
 62
    18
420
        0
176
     0
 90
       50
176
     0
 90
        3
176
     0
 62
     5
420
      255
176
     0
290
     0
176
     0
 90
       50
176
     0
 90
       50
176
     0
 90
       50
176
     0
290
     0
176
     0
 90
       50
176
     0
 62
   256
176
     0
 40
1.0
176
     0
 90
        2
176
     0
  1
strokes_ogs.tif
176
     0
290
     0
176
     0
 40
1.0
176
     0
 40
1.0
176
     0
  0
VISUALSTYLE
  5
37
102
{ACAD_REACTORS
330
29
102
}
330
29
100
AcDbVisualStyle
  2
Linepattern
 70
    14
177
     3
291
     1
 70
    58
 90
        2
176
     1
 90
        2
176
     1
 90
        0
176
     1
 90
        0
176
     1
 40
0.6
176
     1
 40
30.0
176
     1
 62
     7
420
 16777215
176
     1
 90
        1
176
     1
 90
        4
176
     1
 62
     7
176
     1
 62
   257
176
     1
 90
        7
176
     1
 90
        7
176
     1
 40
1.0
176
     1
 90
        8
176
     1
 62
     7
176
     1
 40
1.0
176
     1
 90
        1
176
     1
 90
        6
176
     1
 90
        2
176
     1
 62
     7
176
     1
 90
        5
176
     1
 90
        0
176
     1
 90
        0
176
     1
290
     0
176
     1
 90
        1
176
     1
 40
0.0
176
     1
 90
        0
176
     1
290
     0
176
     1
290
     1
176
     1
290
     1
176
     1
290
     0
176
     1
290
     0
176
     1
290
     0
176
     1
290
     0
176
     1
290
     0
176
     1
290
     0
176
     1
 90
       50
176
     1
 40
0.0
176
     1
 40
1.0
176
     1
 90
        0
176
     1
 62
    18
420
        0
176
     1
 90
       50
176
     1
 90
        3
176
     1
 62
     5
420
      255
176
     1
290
     0
176
     1
 90
       50
176
     1
 90
       50
176
     1
 90
       50
176
     1
290
     0
176
     1
 90
       50
176
     1
 62
   256
176
     0
 40
1.0
176
     0
 90
        2
176
     1
  1
strokes_ogs.tif
176
     1
290
     0
176
     1
 40
1.0
176
     1
 40
1.0
176
     1
  0
VISUALSTYLE
  5
40
102
{ACAD_REACTORS
330
29
102
}
330
29
100
AcDbVisualStyle
  2
OverhangOff
 70
    21
177
     3
291
     1
 70
    58
 90
        2
176
     0
 90
        2
176
     0
 90
        0
176
     0
 90
        0
176
     0
 40
0.6
176
     0
 40
30.0
176
     0
 62
     7
420
 16777215
176
     0
 90
        1
176
     0
 90
        4
176
     0
 62
     7
176
     0
 62
   257
176
     0
 90
        1
176
     0
 90
        1
176
     0
 40
1.0
176
     0
 90
        9
176
     2
 62
     7
176
     0
 40
1.0
176
     0
 90
        1
176
     0
 90
        6
176
     0
 90
        2
176
     0
 62
     7
176
     0
 90
        5
176
     0
 90
        0
176
     0
 90
        0
176
     0
290
     0
176
     0
 90
        1
176
     0
 40
0.0
176
     0
 90
        0
176
     0
290
     0
176
     0
290
     1
176
     0
290
     1
176
     0
290
     0
176
     0
290
     0
176
     0
290
     0
176
     0
290
     0
176
     0
290
     0
176
     0
290
     0
176
     0
 90
       50
176
     0
 40
0.0
176
     0
 40
1.0
176
     0
 90
        0
176
     0
 62
    18
420
        0
176
     0
 90
       50
176
     0
 90
        3
176
     0
 62
     5
420
      255
176
     0
290
     0
176
     0
 90
       50
176
     0
 90
       50
176
     0
 90
       50
176
     0
290
     0
176
     0
 90
       50
176
     0
 62
   256
176
     0
 40
1.0
176
     0
 90
        2
176
     0
  1
strokes_ogs.tif
176
     0
290
     0
176
     0
 40
1.0
176
     0
 40
1.0
176
     0
  0
VISUALSTYLE
  5
33
102
{ACAD_REACTORS
330
29
102
}
330
29
100
AcDbVisualStyle
  2
Realistic
 70
     8
177
     3
291
     0
 70
    58
 90
        2
176
     1
 90
        3
176
     1
 90
        0
176
     1
 90
        2
176
     1
 40
0.6
176
     1
 40
30.0
176
     1
 62
     7
420
 16777215
176
     1
 90
        0
176
     1
 90
        0
176
     1
 62
     7
176
     1
 62
   257
176
     1
 90
        1
176
     1
 90
        1
176
     1
 40
1.0
176
     1
 90
        8
176
     1
 62
   257
176
     1
 40
1.0
176
     1
 90
        1
176
     1
 90
        6
176
     1
 90
        2
176
     1
 62
     7
176
     1
 90
        3
176
     1
 90
        0
176
     1
 90
        0
176
     1
290
     0
176
     1
 90
       13
176
     1
 40
0.0
176
     1
 90
        0
176
     1
290
     0
176
     1
290
     1
176
     1
290
     1
176
     1
290
     0
176
     1
290
     0
176
     1
290
     0
176
     1
290
     0
176
     1
290
     0
176
     1
290
     0
176
     1
 90
       50
176
     1
 40
0.0
176
     1
 40
1.0
176
     1
 90
        0
176
     1
 62
    18
420
        0
176
     1
 90
       50
176
     1
 90
        3
176
     1
 62
     5
420
      255
176
     1
290
     0
176
     1
 90
       50
176
     1
 90
       50
176
     1
 90
       50
176
     1
290
     0
176
     1
 90
       50
176
     1
 62
   256
176
     0
 40
1.0
176
     0
 90
        2
176
     1
  1
strokes_ogs.tif
176
     1
290
     0
176
     1
 40
1.0
176
     1
 40
1.0
176
     1
  0
VISUALSTYLE
  5
3E
102
{ACAD_REACTORS
330
29
102
}
330
29
100
AcDbVisualStyle
  2
Shaded
 70
    27
177
     3
291
     0
 70
    58
 90
        2
176
     1
 90
        2
176
     1
 90
        1
176
     1
 90
        2
176
     1
 40
0.6
176
     1
 40
30.0
176
     1
 62
     7
420
 16777215
176
     1
 90
        0
176
     1
 90
        4
176
     1
 62
     7
176
     1
 62
   257
176
     1
 90
        1
176
     1
 90
        1
176
     1
 40
1.0
176
     1
 90
        8
176
     1
 62
   257
176
     1
 40
1.0
176
     1
 90
        1
176
     1
 90
        6
176
     1
 90
        2
176
     1
 62
     8
420
  7895160
176
     1
 90
        3
176
     1
 90
        0
176
     1
 90
        0
176
     1
290
     0
176
     1
 90
        5
176
     1
 40
0.0
176
     1
 90
        0
176
     1
290
     0
176
     1
290
     1
176
     1
290
     1
176
     1
290
     0
176
     1
290
     0
176
     1
290
     0
176
     1
290
     0
176
     1
290
     0
176
     1
290
     0
176
     1
 90
       50
176
     1
 40
0.0
176
     1
 40
1.0
176
     1
 90
        0
176
     1
 62
    18
420
        0
176
     1
 90
       50
176
     1
 90
        3
176
     1
 62
     5
420
      255
176
     1
290
     0
176
     1
 90
       50
176
     1
 90
       50
176
     1
 90
       50
176
     1
290
     0
176
     1
 90
       50
176
     1
 62
   256
176
     0
 40
1.0
176
     0
 90
        2
176
     1
  1
strokes_ogs.tif
176
     1
290
     0
176
     1
 40
1.0
176
     1
 40
1.0
176
     1
  0
VISUALSTYLE
  5
3D
102
{ACAD_REACTORS
330
29
102
}
330
29
100
AcDbVisualStyle
  2
Shaded with edges
 70
    26
177
     3
291
     0
 70
    58
 90
        2
176
     1
 90
        2
176
     1
 90
        1
176
     1
 90
        2
176
     1
 40
0.6
176
     1
 40
30.0
176
     1
 62
     7
420
 16777215
176
     1
 90
        1
176
     1
 90
        2
176
     1
 62
     7
176
     1
 62
   257
176
     1
 90
        2
176
     1
 90
        1
176
     1
 40
1.0
176
     1
 90
        8
176
     1
 62
   257
176
     1
 40
1.0
176
     1
 90
        1
176
     1
 90
        6
176
     1
 90
        2
176
     1
 62
     7
176
     1
 90
        3
176
     1
 90
        0
176
     1
 90
        0
176
     1
290
     0
176
     1
 90
        5
176
     1
 40
0.0
176
     1
 90
        0
176
     1
290
     0
176
     1
290
     1
176
     1
290
     1
176
     1
290
     0
176
     1
290
     0
176
     1
290
     0
176
     1
290
     0
176
     1
290
     0
176
     1
290
     0
176
     1
 90
       50
176
     1
 40
0.0
176
     1
 40
1.0
176
     1
 90
        0
176
     1
 62
    18
420
        0
176
     1
 90
       50
176
     1
 90
        3
176
     1
 62
     5
420
      255
176
     1
290
     0
176
     1
 90
       50
176
     1
 90
       50
176
     1
 90
       50
176
     1
290
     0
176
     1
 90
       50
176
     1
 62
   256
176
     0
 40
1.0
176
     0
 90
        2
176
     1
  1
strokes_ogs.tif
176
     1
290
     0
176
     1
 40
1.0
176
     1
 40
1.0
176
     1
  0
VISUALSTYLE
  5
3A
102
{ACAD_REACTORS
330
29
102
}
330
29
100
AcDbVisualStyle
  2
Shades of Gray
 70
    23
177
     3
291
     0
 70
    58
 90
        2
176
     1
 90
        2
176
     1
 90
        3
176
     1
 90
        0
176
     1
 40
0.6
176
     1
 40
30.0
176
     1
 62
     7
420
 16777215
176
     1
 90
        2
176
     1
 90
        2
176
     1
 62
     7
176
     1
 62
     7
176
     1
 90
        1
176
     1
 90
        1
176
     1
 40
40.0
176
     1
 90
        8
176
     1
 62
     7
176
     1
 40
1.0
176
     1
 90
        1
176
     1
 90
        6
176
     1
 90
        2
176
     1
 62
     7
176
     1
 90
        3
176
     1
 90
        0
176
     1
 90
        0
176
     1
290
     0
176
     1
 90
        1
176
     1
 40
0.0
176
     1
 90
        0
176
     1
290
     0
176
     1
290
     1
176
     1
290
     1
176
     1
290
     0
176
     1
290
     0
176
     1
290
     0
176
     1
290
     0
176
     1
290
     0
176
     1
290
     0
176
     1
 90
       50
176
     1
 40
0.0
176
     1
 40
1.0
176
     1
 90
        0
176
     1
 62
    18
420
        0
176
     1
 90
       50
176
     1
 90
        3
176
     1
 62
     5
420
      255
176
     1
290
     0
176
     1
 90
       50
176
     1
 90
       50
176
     1
 90
       50
176
     1
290
     0
176
     1
 90
       50
176
     1
 62
   256
176
     0
 40
1.0
176
     0
 90
        2
176
     1
  1
strokes_ogs.tif
176
     1
290
     0
176
     1
 40
1.0
176
     1
 40
1.0
176
     1
  0
VISUALSTYLE
  5
3B
102
{ACAD_REACTORS
330
29
102
}
330
29
100
AcDbVisualStyle
  2
Sketchy
 70
    24
177
     3
291
     0
 70
    58
 90
        1
176
     1
 90
        2
176
     1
 90
        2
176
     1
 90
        0
176
     1
 40
0.6
176
     1
 40
30.0
176
     1
 62
     7
420
 16777215
176
     1
 90
        2
176
     1
 90
        2
176
     1
 62
     7
176
     1
 62
     7
176
     1
 90
        1
176
     1
 90
        1
176
     1
 40
40.0
176
     1
 90
       11
176
     1
 62
     7
176
     1
 40
1.0
176
     1
 90
        1
176
     1
 90
        6
176
     1
 90
        2
176
     1
 62
     7
176
     1
 90
        6
176
     1
 90
        0
176
     1
 90
        0
176
     1
290
     0
176
     1
 90
        1
176
     1
 40
0.0
176
     1
 90
        0
176
     1
290
     0
176
     1
290
     1
176
     1
290
     1
176
     1
290
     0
176
     1
290
     0
176
     1
290
     0
176
     1
290
     0
176
     1
290
     0
176
     1
290
     0
176
     1
 90
       50
176
     1
 40
0.0
176
     1
 40
1.0
176
     1
 90
        0
176
     1
 62
    18
420
        0
176
     1
 90
       50
176
     1
 90
        3
176
     1
 62
     5
420
      255
176
     1
290
     0
176
     1
 90
       50
176
     1
 90
       50
176
     1
 90
       50
176
     1
290
     0
176
     1
 90
       50
176
     1
 62
   256
176
     0
 40
1.0
176
     0
 90
        2
176
     1
  1
strokes_ogs.tif
176
     1
290
     0
176
     1
 40
1.0
176
     1
 40
1.0
176
     1
  0
VISUALSTYLE
  5
36
102
{ACAD_REACTORS
330
29
102
}
330
29
100
AcDbVisualStyle
  2
Thicken
 70
    13
177
     3
291
     1
 70
    58
 90
        2
176
     1
 90
        2
176
     1
 90
        0
176
     1
 90
        0
176
     1
 40
0.6
176
     1
 40
30.0
176
     1
 62
     7
420
 16777215
176
     1
 90
        1
176
     1
 90
        4
176
     1
 62
     7
176
     1
 62
   257
176
     1
 90
        1
176
     1
 90
        1
176
     1
 40
1.0
176
     1
 90
       12
176
     1
 62
     7
176
     1
 40
1.0
176
     1
 90
        1
176
     1
 90
        6
176
     1
 90
        2
176
     1
 62
     7
176
     1
 90
        5
176
     1
 90
        0
176
     1
 90
        0
176
     1
290
     0
176
     1
 90
        1
176
     1
 40
0.0
176
     1
 90
        0
176
     1
290
     0
176
     1
290
     1
176
     1
290
     1
176
     1
290
     0
176
     1
290
     0
176
     1
290
     0
176
     1
290
     0
176
     1
290
     0
176
     1
290
     0
176
     1
 90
       50
176
     1
 40
0.0
176
     1
 40
1.0
176
     1
 90
        0
176
     1
 62
    18
420
        0
176
     1
 90
       50
176
     1
 90
        3
176
     1
 62
     5
420
      255
176
     1
290
     0
176
     1
 90
       50
176
     1
 90
       50
176
     1
 90
       50
176
     1
290
     0
176
     1
 90
       50
176
     1
 62
   256
176
     0
 40
1.0
176
     0
 90
        2
176
     1
  1
strokes_ogs.tif
176
     1
290
     0
176
     1
 40
1.0
176
     1
 40
1.0
176
     1
  0
VISUALSTYLE
  5
30
102
{ACAD_REACTORS
330
29
102
}
330
29
100
AcDbVisualStyle
  2
Wireframe
 70
     5
177
     3
291
     0
 70
    58
 90
        0
176
     1
 90
        2
176
     1
 90
        0
176
     1
 90
        0
176
     1
 40
0.6
176
     1
 40
30.0
176
     1
 62
     7
420
 16777215
176
     1
 90
        1
176
     1
 90
        4
176
     1
 62
     7
176
     1
 62
   257
176
     1
 90
        1
176
     1
 90
        1
176
     1
 40
1.0
176
     1
 90
        0
176
     1
 62
   257
176
     1
 40
1.0
176
     1
 90
        1
176
     1
 90
        6
176
     1
 90
        2
176
     1
 62
     7
176
     1
 90
        3
176
     1
 90
        0
176
     1
 90
        0
176
     1
290
     0
176
     1
 90
        1
176
     1
 40
0.0
176
     1
 90
        0
176
     1
290
     0
176
     1
290
     1
176
     1
290
     1
176
     1
290
     0
176
     1
290
     0
176
     1
290
     0
176
     1
290
     0
176
     1
290
     0
176
     1
290
     0
176
     1
 90
       50
176
     1
 40
0.0
176
     1
 40
1.0
176
     1
 90
        0
176
     1
 62
    18
420
        0
176
     1
 90
       50
176
     1
 90
        3
176
     1
 62
     5
420
      255
176
     1
290
     0
176
     1
 90
       50
176
     1
 90
       50
176
     1
 90
       50
176
     1
290
     0
176
     1
 90
       50
176
     1
 62
   256
176
     0
 40
1.0
176
     0
 90
        2
176
     1
  1
strokes_ogs.tif
176
     1
290
     0
176
     1
 40
1.0
176
     1
 40
1.0
176
     1
  0
VISUALSTYLE
  5
3C
102
{ACAD_REACTORS
330
29
102
}
330
29
100
AcDbVisualStyle
  2
X-Ray
 70
    25
177
     3
291
     0
 70
    58
 90
        2
176
     1
 90
        2
176
     1
 90
        1
176
     1
 90
        1
176
     1
 40
0.5
176
     1
 40
30.0
176
     1
 62
     7
420
 16777215
176
     1
 90
        1
176
     1
 90
        0
176
     1
 62
     7
176
     1
 62
   257
176
     1
 90
        1
176
     1
 90
        1
176
     1
 40
1.0
176
     1
 90
        8
176
     1
 62
     7
176
     1
 40
1.0
176
     1
 90
        1
176
     1
 90
        6
176
     1
 90
        2
176
     1
 62
     7
176
     1
 90
        3
176
     1
 90
        0
176
     1
 90
        0
176
     1
290
     0
176
     1
 90
       13
176
     1
 40
0.0
176
     1
 90
        0
176
     1
290
     0
176
     1
290
     1
176
     1
290
     1
176
     1
290
     0
176
     1
290
     0
176
     1
290
     0
176
     1
290
     0
176
     1
290
     0
176
     1
290
     0
176
     1
 90
       50
176
     1
 40
0.0
176
     1
 40
1.0
176
     1
 90
        0
176
     1
 62
    18
420
        0
176
     1
 90
       50
176
     1
 90
        3
176
     1
 62
     5
420
      255
176
     1
290
     0
176
     1
 90
       50
176
     1
 90
       50
176
     1
 90
       50
176
     1
290
     0
176
     1
 90
       50
176
     1
 62
   256
176
     0
 40
1.0
176
     0
 90
        2
176
     1
  1
strokes_ogs.tif
176
     1
290
     0
176
     1
 40
1.0
176
     1
 40
1.0
176
     1
  0
DICTIONARYVAR
  5
DE
102
{ACAD_REACTORS
330
D9
102
}
330
D9
100
DictionaryVariables
280
     0
  1
1:1
  0
DICTIONARYVAR
  5
DB
102
{ACAD_REACTORS
330
D9
102
}
330
D9
100
DictionaryVariables
280
     0
  1
STANDARD
  0
DICTIONARYVAR
  5
DA
102
{ACAD_REACTORS
330
D9
102
}
330
D9
100
DictionaryVariables
280
     0
  1
STANDARD
  0
DICTIONARYVAR
  5
DC
102
{ACAD_REACTORS
330
D9
102
}
330
D9
100
DictionaryVariables
280
     0
  1
Imperial24
  0
DICTIONARYVAR
  5
DD
102
{ACAD_REACTORS
330
D9
102
}
330
D9
100
DictionaryVariables
280
     0
  1
Imperial24
  0
DICTIONARY
  5
1A
330
19
100
AcDbDictionary
280
     1
281
     1
  3
BUMPTILE
360
1C
  3
DIFFUSETILE
360
1B
  3
OPACITYTILE
360
1F
  3
REFLECTIONTILE
360
1E
  3
REFRACTIONTILE
360
20
  3
SPECULARTILE
360
1D
  0
DICTIONARY
  5
12
330
11
100
AcDbDictionary
280
     1
281
     1
  3
BUMPTILE
360
14
  3
DIFFUSETILE
360
13
  3
OPACITYTILE
360
17
  3
REFLECTIONTILE
360
16
  3
REFRACTIONTILE
360
18
  3
SPECULARTILE
360
15
  0
DICTIONARY
  5
22
330
21
100
AcDbDictionary
280
     1
281
     1
  3
BUMPTILE
360
24
  3
DIFFUSETILE
360
23
  3
OPACITYTILE
360
27
  3
REFLECTIONTILE
360
26
  3
REFRACTIONTILE
360
28
  3
SPECULARTILE
360
25
  0
DICTIONARY
  5
DF
330
65
100
AcDbDictionary
280
     1
281
     1
  3
ACAD_ROUNDTRIP_2008_TABLESTYLE_CELLSTYLEMAP
360
E0
  0
XRECORD
  5
1C
102
{ACAD_REACTORS
330
1A
102
}
330
1A
100
AcDbXrecord
280
     1
270
     1
271
     1
  0
XRECORD
  5
1B
102
{ACAD_REACTORS
330
1A
102
}
330
1A
100
AcDbXrecord
280
     1
270
     1
271
     1
  0
XRECORD
  5
1F
102
{ACAD_REACTORS
330
1A
102
}
330
1A
100
AcDbXrecord
280
     1
270
     1
271
     1
  0
XRECORD
  5
1E
102
{ACAD_REACTORS
330
1A
102
}
330
1A
100
AcDbXrecord
280
     1
270
     1
271
     1
  0
XRECORD
  5
20
102
{ACAD_REACTORS
330
1A
102
}
330
1A
100
AcDbXrecord
280
     1
270
     1
271
     1
  0
XRECORD
  5
1D
102
{ACAD_REACTORS
330
1A
102
}
330
1A
100
AcDbXrecord
280
     1
270
     1
271
     1
  0
XRECORD
  5
14
102
{ACAD_REACTORS
330
12
102
}
330
12
100
AcDbXrecord
280
     1
270
     1
271
     1
  0
XRECORD
  5
13
102
{ACAD_REACTORS
330
12
102
}
330
12
100
AcDbXrecord
280
     1
270
     1
271
     1
  0
XRECORD
  5
17
102
{ACAD_REACTORS
330
12
102
}
330
12
100
AcDbXrecord
280
     1
270
     1
271
     1
  0
XRECORD
  5
16
102
{ACAD_REACTORS
330
12
102
}
330
12
100
AcDbXrecord
280
     1
270
     1
271
     1
  0
XRECORD
  5
18
102
{ACAD_REACTORS
330
12
102
}
330
12
100
AcDbXrecord
280
     1
270
     1
271
     1
  0
XRECORD
  5
15
102
{ACAD_REACTORS
330
12
102
}
330
12
100
AcDbXrecord
280
     1
270
     1
271
     1
  0
XRECORD
  5
24
102
{ACAD_REACTORS
330
22
102
}
330
22
100
AcDbXrecord
280
     1
270
     1
271
     1
  0
XRECORD
  5
23
102
{ACAD_REACTORS
330
22
102
}
330
22
100
AcDbXrecord
280
     1
270
     1
271
     1
  0
XRECORD
  5
27
102
{ACAD_REACTORS
330
22
102
}
330
22
100
AcDbXrecord
280
     1
270
     1
271
     1
  0
XRECORD
  5
26
102
{ACAD_REACTORS
330
22
102
}
330
22
100
AcDbXrecord
280
     1
270
     1
271
     1
  0
XRECORD
  5
28
102
{ACAD_REACTORS
330
22
102
}
330
22
100
AcDbXrecord
280
     1
270
     1
271
     1
  0
XRECORD
  5
25
102
{ACAD_REACTORS
330
22
102
}
330
22
100
AcDbXrecord
280
     1
270
     1
271
     1
  0
CELLSTYLEMAP
  5
E0
102
{ACAD_REACTORS
330
DF
102
}
330
DF
100
AcDbCellStyleMap
 90
        3
300
CELLSTYLE
  1
TABLEFORMAT_BEGIN
 90
        5
170
     1
 91
        0
 92
    32768
 62
   257
 93
        1
300
CONTENTFORMAT
  1
CONTENTFORMAT_BEGIN
 90
        0
 91
        0
 92
      512
 93
        0
300

 40
0.0
140
1.0
 94
        5
 62
     0
340
55
144
0.25
309
CONTENTFORMAT_END
171
     0
 94
        0
309
TABLEFORMAT_END
  1
CELLSTYLE_BEGIN
 90
        1
 91
        1
300
_TITLE
309
CELLSTYLE_END
300
CELLSTYLE
  1
TABLEFORMAT_BEGIN
 90
        5
170
     1
 91
        0
 92
        0
 62
   257
 93
        1
300
CONTENTFORMAT
  1
CONTENTFORMAT_BEGIN
 90
        0
 91
        0
 92
      512
 93
        0
300

 40
0.0
140
1.0
 94
        5
 62
     0
340
55
144
0.18
309
CONTENTFORMAT_END
171
     0
 94
        0
309
TABLEFORMAT_END
  1
CELLSTYLE_BEGIN
 90
        2
 91
        1
300
_HEADER
309
CELLSTYLE_END
300
CELLSTYLE
  1
TABLEFORMAT_BEGIN
 90
        5
170
     1
 91
        0
 92
        0
 62
   257
 93
        1
300
CONTENTFORMAT
  1
CONTENTFORMAT_BEGIN
 90
        0
 91
        0
 92
      512
 93
        0
300

 40
0.0
140
1.0
 94
        2
 62
     0
340
55
144
0.18
309
CONTENTFORMAT_END
171
     0
 94
        0
309
TABLEFORMAT_END
  1
CELLSTYLE_BEGIN
 90
        3
 91
        2
300
_DATA
309
CELLSTYLE_END
  0
ENDSEC
  0
EOF
