<?xml version="1.0" encoding="UTF-8"?>
<svg id="cutting" xmlns="http://www.w3.org/2000/svg" width="188.16mm" height="96.93mm" viewBox="0 0 533.37 274.77">
  <defs>
    <style>
      .cls-1 {
        fill: none;
        stroke: blue;
        stroke-miterlimit: 10;
        stroke-width: .28px;
      }
    </style>
  </defs>
  <path id="deleteme" class="cls-1" d="M51.55,130.73c-23.09,0-41.81,18.72-41.81,41.81s18.72,41.81,41.81,41.81,41.81-18.72,41.81-41.81-18.72-41.81-41.81-41.81Zm0,76.54c-19.18,0-34.72-15.55-34.72-34.72s15.55-34.72,34.72-34.72,34.72,15.55,34.72,34.72-15.55,34.72-34.72,34.72h0Z"/>
  <path class="cls-1" d="M148.91,165.84l1.76-25.16h-48.63v28.2h6.38c1.1,0,1.99,.89,1.99,1.99l.07,18.43h45.3l42.78,3,3.77-20.74-51.58-3.61c-1.09-.08-1.92-1.03-1.84-2.12h0Zm-31.08,10.45c-.78,0-1.42-.63-1.42-1.42s.63-1.42,1.42-1.42,1.42,.63,1.42,1.42-.63,1.42-1.42,1.42Zm0-5.67c-.78,0-1.42-.63-1.42-1.42s.63-1.42,1.42-1.42,1.42,.63,1.42,1.42-.63,1.42-1.42,1.42Zm0-5.67c-.78,0-1.42-.63-1.42-1.42s.63-1.42,1.42-1.42,1.42,.63,1.42,1.42-.63,1.42-1.42,1.42Zm0-5.67c-.78,0-1.42-.63-1.42-1.42s.63-1.42,1.42-1.42,1.42,.63,1.42,1.42-.63,1.42-1.42,1.42Zm0-5.67c-.78,0-1.42-.63-1.42-1.42s.63-1.42,1.42-1.42,1.42,.63,1.42,1.42-.63,1.42-1.42,1.42Zm5.67,22.68c-.78,0-1.42-.63-1.42-1.42s.63-1.42,1.42-1.42,1.42,.63,1.42,1.42-.63,1.42-1.42,1.42Zm0-5.67c-.78,0-1.42-.63-1.42-1.42s.63-1.42,1.42-1.42,1.42,.63,1.42,1.42-.63,1.42-1.42,1.42Zm0-5.67c-.78,0-1.42-.63-1.42-1.42s.63-1.42,1.42-1.42,1.42,.63,1.42,1.42-.63,1.42-1.42,1.42Zm0-5.67c-.78,0-1.42-.63-1.42-1.42s.63-1.42,1.42-1.42,1.42,.63,1.42,1.42-.63,1.42-1.42,1.42Zm0-5.67c-.78,0-1.42-.63-1.42-1.42s.63-1.42,1.42-1.42,1.42,.63,1.42,1.42-.63,1.42-1.42,1.42Zm5.67,22.68c-.78,0-1.42-.63-1.42-1.42s.63-1.42,1.42-1.42,1.42,.63,1.42,1.42-.63,1.42-1.42,1.42Zm0-5.67c-.78,0-1.42-.63-1.42-1.42s.63-1.42,1.42-1.42,1.42,.63,1.42,1.42-.63,1.42-1.42,1.42Zm0-5.67c-.78,0-1.42-.63-1.42-1.42s.63-1.42,1.42-1.42,1.42,.63,1.42,1.42-.63,1.42-1.42,1.42Zm0-5.67c-.78,0-1.42-.63-1.42-1.42s.63-1.42,1.42-1.42,1.42,.63,1.42,1.42-.63,1.42-1.42,1.42Zm0-5.67c-.78,0-1.42-.63-1.42-1.42s.63-1.42,1.42-1.42,1.42,.63,1.42,1.42-.63,1.42-1.42,1.42Zm5.67,22.68c-.78,0-1.42-.63-1.42-1.42s.63-1.42,1.42-1.42,1.42,.63,1.42,1.42-.63,1.42-1.42,1.42Zm0-5.67c-.78,0-1.42-.63-1.42-1.42s.63-1.42,1.42-1.42,1.42,.63,1.42,1.42-.63,1.42-1.42,1.42Zm0-5.67c-.78,0-1.42-.63-1.42-1.42s.63-1.42,1.42-1.42,1.42,.63,1.42,1.42-.63,1.42-1.42,1.42Zm0-5.67c-.78,0-1.42-.63-1.42-1.42s.63-1.42,1.42-1.42,1.42,.63,1.42,1.42-.63,1.42-1.42,1.42Zm0-5.67c-.78,0-1.42-.63-1.42-1.42s.63-1.42,1.42-1.42,1.42,.63,1.42,1.42-.63,1.42-1.42,1.42Zm5.67,22.68c-.78,0-1.42-.63-1.42-1.42s.63-1.42,1.42-1.42,1.42,.63,1.42,1.42-.63,1.42-1.42,1.42Zm0-5.67c-.78,0-1.42-.63-1.42-1.42s.63-1.42,1.42-1.42,1.42,.63,1.42,1.42-.63,1.42-1.42,1.42Zm0-5.67c-.78,0-1.42-.63-1.42-1.42s.63-1.42,1.42-1.42,1.42,.63,1.42,1.42-.63,1.42-1.42,1.42Zm0-5.67c-.78,0-1.42-.63-1.42-1.42s.63-1.42,1.42-1.42,1.42,.63,1.42,1.42-.63,1.42-1.42,1.42Zm0-5.67c-.78,0-1.42-.63-1.42-1.42s.63-1.42,1.42-1.42,1.42,.63,1.42,1.42-.63,1.42-1.42,1.42Zm49.34,24.45c1.64,0,2.98,1.33,2.98,2.98s-1.33,2.98-2.98,2.98-2.98-1.33-2.98-2.98,1.33-2.98,2.98-2.98Zm-32.81-2.19c1.64,0,2.98,1.33,2.98,2.98s-1.33,2.98-2.98,2.98-2.98-1.33-2.98-2.98,1.33-2.98,2.98-2.98Z"/>
  <path class="cls-1" d="M342.66,.15c-1.1,0-1.98,.89-1.98,1.98V272.65c0,1.1,.89,1.98,1.98,1.98h41.31l-21.86-37.88c-.55-.95-.22-2.16,.73-2.71l24.06-13.89c12.4-7.16,25.41-13.36,38.47-18.39l.08-177.02c0-1.1,.89-1.98,1.99-1.98h51.86v-6.55c0-1.1,.89-1.99,1.99-1.99h51.94l-.04-14.09h-190.53Zm5.4,4.44c1.64,0,2.98,1.33,2.98,2.98s-1.33,2.98-2.98,2.98-2.98-1.33-2.98-2.98,1.33-2.98,2.98-2.98Zm0,231.1c-1.64,0-2.98-1.33-2.98-2.98s1.33-2.98,2.98-2.98,2.98,1.33,2.98,2.98-1.33,2.98-2.98,2.98Zm35.02-28.42c-19.18,0-34.72-15.55-34.72-34.72s15.55-34.72,34.72-34.72,34.72,15.55,34.72,34.72-15.55,34.72-34.72,34.72h0ZM524.01,10.62c-1.64,0-2.98-1.33-2.98-2.98s1.33-2.98,2.98-2.98,2.98,1.33,2.98,2.98-1.33,2.98-2.98,2.98Z"/>
  <path class="cls-1" d="M533.23,140.23V20.31l-15.85-.03-4.46,63.79h0l-80.88-5.6c-2.05-.14-2.41,2.86-.39,3.21l45.09,7.91c1.08,.19,1.8,1.22,1.61,2.3l-8.87,50.32h61.77c1.1,0,1.98-.89,1.98-1.98h0Zm-10.35-107.15c0-1.64,1.33-2.98,2.98-2.98s2.98,1.33,2.98,2.98-1.33,2.98-2.98,2.98-2.98-1.33-2.98-2.98Zm-2.86,42.07c0-1.64,1.33-2.98,2.98-2.98s2.98,1.33,2.98,2.98-1.33,2.98-2.98,2.98-2.98-1.33-2.98-2.98Z"/>
  <path id="deleteme-2" class="cls-1" d="M145.1,71.61c0,23.09,18.72,41.81,41.81,41.81s41.81-18.72,41.81-41.81-18.72-41.81-41.81-41.81-41.81,18.72-41.81,41.81h0Zm7.09,0c0-19.17,15.55-34.72,34.72-34.72s34.72,15.55,34.72,34.72-15.54,34.72-34.72,34.72-34.72-15.55-34.72-34.72h0Z"/>
  <path class="cls-1" d="M96.65,80.35c-1.09,.08-2.04-.75-2.12-1.84l-3.61-51.58-20.74,3.77,3,42.78v45.3l18.43,.07c1.1,0,1.99,.89,1.99,1.99v6.38h28.2v-48.63l-25.16,1.76h.01Zm-8.96,29.66c.79,0,1.42,.63,1.42,1.42s-.63,1.42-1.42,1.42-1.42-.64-1.42-1.42,.63-1.42,1.42-1.42Zm5.67,0c.79,0,1.42,.63,1.42,1.42s-.63,1.42-1.42,1.42-1.42-.64-1.42-1.42,.63-1.42,1.42-1.42Zm5.67,0c.79,0,1.42,.63,1.42,1.42s-.63,1.42-1.42,1.42-1.42-.64-1.42-1.42,.63-1.42,1.42-1.42Zm5.67,0c.79,0,1.42,.63,1.42,1.42s-.63,1.42-1.42,1.42-1.42-.64-1.42-1.42,.63-1.42,1.42-1.42Zm5.67,0c.79,0,1.42,.63,1.42,1.42s-.63,1.42-1.42,1.42-1.42-.64-1.42-1.42,.63-1.42,1.42-1.42Zm-22.68-5.67c.79,0,1.42,.63,1.42,1.42s-.63,1.42-1.42,1.42-1.42-.64-1.42-1.42,.63-1.42,1.42-1.42Zm5.67,0c.79,0,1.42,.63,1.42,1.42s-.63,1.42-1.42,1.42-1.42-.64-1.42-1.42,.63-1.42,1.42-1.42Zm5.67,0c.79,0,1.42,.63,1.42,1.42s-.63,1.42-1.42,1.42-1.42-.64-1.42-1.42,.63-1.42,1.42-1.42Zm5.67,0c.79,0,1.42,.63,1.42,1.42s-.63,1.42-1.42,1.42-1.42-.64-1.42-1.42,.63-1.42,1.42-1.42Zm5.67,0c.79,0,1.42,.63,1.42,1.42s-.63,1.42-1.42,1.42-1.42-.64-1.42-1.42,.63-1.42,1.42-1.42Zm-22.68-5.67c.79,0,1.42,.63,1.42,1.42s-.63,1.42-1.42,1.42-1.42-.64-1.42-1.42,.63-1.42,1.42-1.42Zm5.67,0c.79,0,1.42,.63,1.42,1.42s-.63,1.42-1.42,1.42-1.42-.64-1.42-1.42,.63-1.42,1.42-1.42Zm5.67,0c.79,0,1.42,.63,1.42,1.42s-.63,1.42-1.42,1.42-1.42-.64-1.42-1.42,.63-1.42,1.42-1.42Zm5.67,0c.79,0,1.42,.63,1.42,1.42s-.63,1.42-1.42,1.42-1.42-.64-1.42-1.42,.63-1.42,1.42-1.42Zm5.67,0c.79,0,1.42,.63,1.42,1.42s-.63,1.42-1.42,1.42-1.42-.64-1.42-1.42,.63-1.42,1.42-1.42Zm-22.68-5.67c.79,0,1.42,.63,1.42,1.42s-.63,1.42-1.42,1.42-1.42-.64-1.42-1.42,.63-1.42,1.42-1.42Zm5.67,0c.79,0,1.42,.63,1.42,1.42s-.63,1.42-1.42,1.42-1.42-.64-1.42-1.42,.63-1.42,1.42-1.42Zm5.67,0c.79,0,1.42,.63,1.42,1.42s-.63,1.42-1.42,1.42-1.42-.64-1.42-1.42,.63-1.42,1.42-1.42Zm5.67,0c.79,0,1.42,.63,1.42,1.42s-.63,1.42-1.42,1.42-1.42-.64-1.42-1.42,.63-1.42,1.42-1.42Zm5.67,0c.79,0,1.42,.63,1.42,1.42s-.63,1.42-1.42,1.42-1.42-.64-1.42-1.42,.63-1.42,1.42-1.42Zm-22.68-5.67c.79,0,1.42,.63,1.42,1.42s-.63,1.42-1.42,1.42-1.42-.64-1.42-1.42,.63-1.42,1.42-1.42Zm5.67,0c.79,0,1.42,.63,1.42,1.42s-.63,1.42-1.42,1.42-1.42-.64-1.42-1.42,.63-1.42,1.42-1.42Zm5.67,0c.79,0,1.42,.63,1.42,1.42s-.63,1.42-1.42,1.42-1.42-.64-1.42-1.42,.63-1.42,1.42-1.42Zm5.67,0c.79,0,1.42,.63,1.42,1.42s-.63,1.42-1.42,1.42-1.42-.64-1.42-1.42,.63-1.42,1.42-1.42Zm5.67,0c.79,0,1.42,.63,1.42,1.42s-.63,1.42-1.42,1.42-1.42-.64-1.42-1.42,.63-1.42,1.42-1.42Zm-28.85-44.94c-1.65,0-2.98-1.33-2.98-2.98s1.33-2.98,2.98-2.98,2.98,1.34,2.98,2.98-1.33,2.98-2.98,2.98Zm2.19,32.81c-1.65,0-2.98-1.33-2.98-2.98s1.33-2.98,2.98-2.98,2.98,1.34,2.98,2.98-1.33,2.98-2.98,2.98Z"/>
  <path class="cls-1" d="M320.95,.14H130.43l-.04,14.09h51.94c1.1,0,1.99,.89,1.99,1.99v6.55h51.86c1.1,0,1.99,.88,1.99,1.98l.08,177.02c13.06,5.03,26.07,11.23,38.47,18.39l24.06,13.89c.95,.55,1.28,1.76,.73,2.71l-21.86,37.88h41.31c1.09,0,1.98-.88,1.98-1.98V2.13c0-1.09-.88-1.98-1.98-1.98h0Zm-2.42,7.33c0,1.65-1.33,2.98-2.98,2.98s-2.98-1.33-2.98-2.98,1.34-2.98,2.98-2.98,2.98,1.33,2.98,2.98Zm-5.96,225.14c0-1.65,1.33-2.98,2.98-2.98s2.98,1.33,2.98,2.98-1.34,2.98-2.98,2.98-2.98-1.33-2.98-2.98Zm-66.76-60.16c0-19.17,15.55-34.72,34.72-34.72s34.72,15.55,34.72,34.72-15.54,34.72-34.72,34.72-34.72-15.55-34.72-34.72ZM136.63,7.64c0-1.65,1.33-2.98,2.98-2.98s2.98,1.33,2.98,2.98-1.34,2.98-2.98,2.98-2.98-1.33-2.98-2.98Z"/>
  <path class="cls-1" d="M2.12,.15C1.03,.15,.14,1.03,.14,2.13V63.9l50.32-8.87c1.08-.19,2.11,.53,2.3,1.61l7.91,45.09c.35,2.02,3.35,1.66,3.21-.39l-5.6-80.88h0l63.79-4.46-.03-15.85s-119.92,0-119.92,0ZM106.29,7.52c0-1.65,1.33-2.98,2.98-2.98s2.98,1.33,2.98,2.98-1.34,2.98-2.98,2.98-2.98-1.33-2.98-2.98Zm-42.07,2.86c0-1.65,1.33-2.98,2.98-2.98s2.98,1.33,2.98,2.98-1.34,2.98-2.98,2.98-2.98-1.33-2.98-2.98Z"/>
</svg>