  0
SECTION
  2
HEADER
  9
$ACADVER
  1
AC1014
  9
$HANDSEED
  5
FFFF
  9
$MEASUREMENT
 70
     1
  0
ENDSEC
  0
SECTION
  2
TABLES
  0
TABLE
  2
VPORT
  5
8
330
0
100
AcDbSymbolTable
 70
     4
  0
VPORT
  5
2E
330
8
100
AcDbSymbolTableRecord
100
AcDbViewportTableRecord
  2
*ACTIVE
 70
     0
 10
0.0
 20
0.0
 11
1.0
 21
1.0
 12
210.0
 22
148.5
 13
0.0
 23
0.0
 14
10.0
 24
10.0
 15
10.0
 25
10.0
 16
0.0
 26
0.0
 36
1.0
 17
0.0
 27
0.0
 37
0.0
 40
341.0
 41
1.24
 42
50.0
 43
0.0
 44
0.0
 50
0.0
 51
0.0
 71
     0
 72
   100
 73
     1
 74
     3
 75
     0
 76
     0
 77
     0
 78
     0
  0
ENDTAB
  0
TABLE
  2
LTYPE
  5
5
330
0
100
AcDbSymbolTable
 70
     1
  0
LTYPE
  5
14
330
5
100
AcDbSymbolTableRecord
100
AcDbLinetypeTableRecord
  2
BYBLOCK
 70
     0
  3

 72
    65
 73
     0
 40
0.0
  0
LTYPE
  5
15
330
5
100
AcDbSymbolTableRecord
100
AcDbLinetypeTableRecord
  2
BYLAYER
 70
     0
  3

 72
    65
 73
     0
 40
0.0
  0
LTYPE
  5
16
330
5
100
AcDbSymbolTableRecord
100
AcDbLinetypeTableRecord
  2
CONTINUOUS
 70
     0
  3
Solid line
 72
    65
 73
     0
 40
0.0
  0
ENDTAB
  0
TABLE
  2
LAYER
  5
2
100
AcDbSymbolTable
 70
1
  0
LAYER
  5
50
100
AcDbSymbolTableRecord
100
AcDbLayerTableRecord
  2
0
 70
0
  6
CONTINUOUS
  0
ENDTAB
  0
TABLE
  2
STYLE
  5
3
330
0
100
AcDbSymbolTable
 70
     1
  0
STYLE
  5
11
330
3
100
AcDbSymbolTableRecord
100
AcDbTextStyleTableRecord
  2
STANDARD
 70
     0
 40
0.0
 41
1.0
 50
0.0
 71
     0
 42
2.5
  3
txt
  4

  0
ENDTAB
  0
TABLE
  2
VIEW
  5
6
330
0
100
AcDbSymbolTable
 70
     0
  0
ENDTAB
  0
TABLE
  2
UCS
  5
7
330
0
100
AcDbSymbolTable
 70
     0
  0
ENDTAB
  0
TABLE
  2
APPID
  5
9
330
0
100
AcDbSymbolTable
 70
     2
  0
APPID
  5
12
330
9
100
AcDbSymbolTableRecord
100
AcDbRegAppTableRecord
  2
ACAD
 70
     0
  0
ENDTAB
  0
TABLE
  2
DIMSTYLE
  5
A
330
0
100
AcDbSymbolTable
 70
     1
  0
DIMSTYLE
105
27
330
A
100
AcDbSymbolTableRecord
100
AcDbDimStyleTableRecord
  2
ISO-25
 70
     0
  3

  4

  5

  6

  7

 40
1.0
 41
2.5
 42
0.625
 43
3.75
 44
1.25
 45
0.0
 46
0.0
 47
0.0
 48
0.0
140
2.5
141
2.5
142
0.0
143
0.03937007874016
144
1.0
145
0.0
146
1.0
147
0.625
 71
     0
 72
     0
 73
     0
 74
     0
 75
     0
 76
     0
 77
     1
 78
     8
170
     0
171
     3
172
     1
173
     0
174
     0
175
     0
176
     0
177
     0
178
     0
270
     2
271
     2
272
     2
273
     2
274
     3
340
11
275
     0
280
     0
281
     0
282
     0
283
     0
284
     8
285
     0
286
     0
287
     3
288
     0
  0
ENDTAB
  0
TABLE
  2
BLOCK_RECORD
  5
1
330
0
100
AcDbSymbolTable
 70
     1
  0
BLOCK_RECORD
  5
1F
330
1
100
AcDbSymbolTableRecord
100
AcDbBlockTableRecord
  2
*MODEL_SPACE
  0
BLOCK_RECORD
  5
1B
330
1
100
AcDbSymbolTableRecord
100
AcDbBlockTableRecord
  2
*PAPER_SPACE
  0
ENDTAB
  0
ENDSEC
  0
SECTION
  2
BLOCKS
  0
BLOCK
  5
20
330
1F
100
AcDbEntity
  8
0
100
AcDbBlockBegin
  2
*MODEL_SPACE
 70
     0
 10
0.0
 20
0.0
 30
0.0
  3
*MODEL_SPACE
  1

  0
ENDBLK
  5
21
330
1F
100
AcDbEntity
  8
0
100
AcDbBlockEnd
  0
BLOCK
  5
1C
330
1B
100
AcDbEntity
 67
     1
  8
0
100
AcDbBlockBegin
  2
*PAPER_SPACE
  1

  0
ENDBLK
  5
1D
330
1B
100
AcDbEntity
 67
     1
  8
0
100
AcDbBlockEnd
  0
ENDSEC
  0
SECTION
  2
ENTITIES
  0
SPLINE
  5
100
100
AcDbEntity
  8
0
 62
7
100
AcDbSpline
 70
8
 71
3
 72
8
 73
4
 74
0
 40
0
 40
0
 40
0
 40
0
 40
1
 40
1
 40
1
 40
1
 10
18.185628
 20
50.817093
 30
0.0
 10
10.040019
 20
50.817093
 30
0.0
 10
3.436043
 20
44.213117
 30
0.0
 10
3.436043
 20
36.067508
 30
0.0
  0
SPLINE
  5
101
100
AcDbEntity
  8
0
 62
7
100
AcDbSpline
 70
8
 71
3
 72
8
 73
4
 74
0
 40
0
 40
0
 40
0
 40
0
 40
1
 40
1
 40
1
 40
1
 10
3.436043
 20
36.067508
 30
0.0
 10
3.436043
 20
27.921899
 30
0.0
 10
10.040019
 20
21.317923
 30
0.0
 10
18.185628
 20
21.317923
 30
0.0
  0
SPLINE
  5
102
100
AcDbEntity
  8
0
 62
7
100
AcDbSpline
 70
8
 71
3
 72
8
 73
4
 74
0
 40
0
 40
0
 40
0
 40
0
 40
1
 40
1
 40
1
 40
1
 10
18.185628
 20
21.317923
 30
0.0
 10
26.331238
 20
21.317923
 30
0.0
 10
32.935214
 20
27.921899
 30
0.0
 10
32.935214
 20
36.067508
 30
0.0
  0
SPLINE
  5
103
100
AcDbEntity
  8
0
 62
7
100
AcDbSpline
 70
8
 71
3
 72
8
 73
4
 74
0
 40
0
 40
0
 40
0
 40
0
 40
1
 40
1
 40
1
 40
1
 10
32.935214
 20
36.067508
 30
0.0
 10
32.935214
 20
44.213117
 30
0.0
 10
26.331238
 20
50.817093
 30
0.0
 10
18.185628
 20
50.817093
 30
0.0
  0
SPLINE
  5
104
100
AcDbEntity
  8
0
 62
7
100
AcDbSpline
 70
8
 71
3
 72
8
 73
4
 74
0
 40
0
 40
0
 40
0
 40
0
 40
1
 40
1
 40
1
 40
1
 10
18.185628
 20
23.815580
 30
0.0
 10
11.419375
 20
23.815580
 30
0.0
 10
5.937228
 20
29.301255
 30
0.0
 10
5.937228
 20
36.063980
 30
0.0
  0
SPLINE
  5
105
100
AcDbEntity
  8
0
 62
7
100
AcDbSpline
 70
8
 71
3
 72
8
 73
4
 74
0
 40
0
 40
0
 40
0
 40
0
 40
1
 40
1
 40
1
 40
1
 10
5.937228
 20
36.063980
 30
0.0
 10
5.937228
 20
42.826706
 30
0.0
 10
11.422903
 20
48.312380
 30
0.0
 10
18.185628
 20
48.312380
 30
0.0
  0
SPLINE
  5
106
100
AcDbEntity
  8
0
 62
7
100
AcDbSpline
 70
8
 71
3
 72
8
 73
4
 74
0
 40
0
 40
0
 40
0
 40
0
 40
1
 40
1
 40
1
 40
1
 10
18.185628
 20
48.312380
 30
0.0
 10
24.948354
 20
48.312380
 30
0.0
 10
30.434028
 20
42.826706
 30
0.0
 10
30.434028
 20
36.063980
 30
0.0
  0
SPLINE
  5
107
100
AcDbEntity
  8
0
 62
7
100
AcDbSpline
 70
8
 71
3
 72
8
 73
4
 74
0
 40
0
 40
0
 40
0
 40
0
 40
1
 40
1
 40
1
 40
1
 10
30.434028
 20
36.063980
 30
0.0
 10
30.434028
 20
29.301255
 30
0.0
 10
24.948354
 20
23.815580
 30
0.0
 10
18.185628
 20
23.815580
 30
0.0
  0
LWPOLYLINE
  5
108
100
AcDbEntity
  8
0
 62
7
100
AcDbPolyline
 90
1
 70
1
 10
18.185628
 20
50.817093
 30
0.0
  0
LWPOLYLINE
  5
109
100
AcDbEntity
  8
0
 62
7
100
AcDbPolyline
 90
2
 70
1
 10
18.185628
 20
23.815580
 30
0.0
 10
18.185628
 20
23.815580
 30
0.0
  0
SPLINE
  5
10a
100
AcDbEntity
  8
0
 62
7
100
AcDbSpline
 70
8
 71
3
 72
8
 73
4
 74
0
 40
0
 40
0
 40
0
 40
0
 40
1
 40
1
 40
1
 40
1
 10
38.248028
 20
37.358670
 30
0.0
 10
38.636082
 20
37.358670
 30
0.0
 10
38.950053
 20
37.044699
 30
0.0
 10
38.950053
 20
36.656645
 30
0.0
  0
LWPOLYLINE
  5
10b
100
AcDbEntity
  8
0
 62
7
100
AcDbPolyline
 90
5
 70
0
 10
52.531948
 20
38.431111
 30
0.0
 10
53.152835
 20
47.306967
 30
0.0
 10
35.997314
 20
47.306967
 30
0.0
 10
35.997314
 20
37.358670
 30
0.0
 10
38.248028
 20
37.358670
 30
0.0
  0
SPLINE
  5
10c
100
AcDbEntity
  8
0
 62
7
100
AcDbSpline
 70
8
 71
3
 72
8
 73
4
 74
0
 40
0
 40
0
 40
0
 40
0
 40
1
 40
1
 40
1
 40
1
 10
53.181057
 20
37.686752
 30
0.0
 10
52.796531
 20
37.714974
 30
0.0
 10
52.503726
 20
38.050112
 30
0.0
 10
52.531948
 20
38.434638
 30
0.0
  0
LWPOLYLINE
  5
10d
100
AcDbEntity
  8
0
 62
7
100
AcDbPolyline
 90
6
 70
0
 10
38.950053
 20
36.656645
 30
0.0
 10
38.974748
 20
30.154974
 30
0.0
 10
54.955523
 20
30.154974
 30
0.0
 10
70.047301
 20
29.096644
 30
0.0
 10
71.377269
 20
36.413229
 30
0.0
 10
53.181057
 20
37.686752
 30
0.0
  0
SPLINE
  5
10e
100
AcDbEntity
  8
0
 62
7
100
AcDbSpline
 70
8
 71
3
 72
8
 73
4
 74
0
 40
0
 40
0
 40
0
 40
0
 40
1
 40
1
 40
1
 40
1
 10
41.567655
 20
34.748124
 30
0.0
 10
41.292489
 20
34.748124
 30
0.0
 10
41.066712
 20
34.970373
 30
0.0
 10
41.066712
 20
35.249067
 30
0.0
  0
SPLINE
  5
10f
100
AcDbEntity
  8
0
 62
7
100
AcDbSpline
 70
8
 71
3
 72
8
 73
4
 74
0
 40
0
 40
0
 40
0
 40
0
 40
1
 40
1
 40
1
 40
1
 10
41.066712
 20
35.249067
 30
0.0
 10
41.066712
 20
35.527760
 30
0.0
 10
41.288961
 20
35.750009
 30
0.0
 10
41.567655
 20
35.750009
 30
0.0
  0
SPLINE
  5
110
100
AcDbEntity
  8
0
 62
7
100
AcDbSpline
 70
8
 71
3
 72
8
 73
4
 74
0
 40
0
 40
0
 40
0
 40
0
 40
1
 40
1
 40
1
 40
1
 10
41.567655
 20
35.750009
 30
0.0
 10
41.846348
 20
35.750009
 30
0.0
 10
42.068597
 20
35.527760
 30
0.0
 10
42.068597
 20
35.249067
 30
0.0
  0
SPLINE
  5
111
100
AcDbEntity
  8
0
 62
7
100
AcDbSpline
 70
8
 71
3
 72
8
 73
4
 74
0
 40
0
 40
0
 40
0
 40
0
 40
1
 40
1
 40
1
 40
1
 10
42.068597
 20
35.249067
 30
0.0
 10
42.068597
 20
34.970373
 30
0.0
 10
41.846348
 20
34.748124
 30
0.0
 10
41.567655
 20
34.748124
 30
0.0
  0
LWPOLYLINE
  5
112
100
AcDbEntity
  8
0
 62
7
100
AcDbPolyline
 90
3
 70
0
 10
52.531948
 20
38.434638
 30
0.0
 10
52.531948
 20
38.434638
 30
0.0
 10
52.531948
 20
38.431111
 30
0.0
  0
SPLINE
  5
113
100
AcDbEntity
  8
0
 62
7
100
AcDbSpline
 70
8
 71
3
 72
8
 73
4
 74
0
 40
0
 40
0
 40
0
 40
0
 40
1
 40
1
 40
1
 40
1
 10
41.567655
 20
36.748367
 30
0.0
 10
41.292489
 20
36.748367
 30
0.0
 10
41.066712
 20
36.970616
 30
0.0
 10
41.066712
 20
37.249309
 30
0.0
  0
SPLINE
  5
114
100
AcDbEntity
  8
0
 62
7
100
AcDbSpline
 70
8
 71
3
 72
8
 73
4
 74
0
 40
0
 40
0
 40
0
 40
0
 40
1
 40
1
 40
1
 40
1
 10
41.066712
 20
37.249309
 30
0.0
 10
41.066712
 20
37.528003
 30
0.0
 10
41.288961
 20
37.750252
 30
0.0
 10
41.567655
 20
37.750252
 30
0.0
  0
SPLINE
  5
115
100
AcDbEntity
  8
0
 62
7
100
AcDbSpline
 70
8
 71
3
 72
8
 73
4
 74
0
 40
0
 40
0
 40
0
 40
0
 40
1
 40
1
 40
1
 40
1
 10
41.567655
 20
37.750252
 30
0.0
 10
41.846348
 20
37.750252
 30
0.0
 10
42.068597
 20
37.528003
 30
0.0
 10
42.068597
 20
37.249309
 30
0.0
  0
SPLINE
  5
116
100
AcDbEntity
  8
0
 62
7
100
AcDbSpline
 70
8
 71
3
 72
8
 73
4
 74
0
 40
0
 40
0
 40
0
 40
0
 40
1
 40
1
 40
1
 40
1
 10
42.068597
 20
37.249309
 30
0.0
 10
42.068597
 20
36.970616
 30
0.0
 10
41.846348
 20
36.748367
 30
0.0
 10
41.567655
 20
36.748367
 30
0.0
  0
LWPOLYLINE
  5
117
100
AcDbEntity
  8
0
 62
7
100
AcDbPolyline
 90
1
 70
1
 10
41.567655
 20
34.748124
 30
0.0
  0
SPLINE
  5
118
100
AcDbEntity
  8
0
 62
7
100
AcDbSpline
 70
8
 71
3
 72
8
 73
4
 74
0
 40
0
 40
0
 40
0
 40
0
 40
1
 40
1
 40
1
 40
1
 10
41.567655
 20
38.748609
 30
0.0
 10
41.292489
 20
38.748609
 30
0.0
 10
41.066712
 20
38.970859
 30
0.0
 10
41.066712
 20
39.249552
 30
0.0
  0
SPLINE
  5
119
100
AcDbEntity
  8
0
 62
7
100
AcDbSpline
 70
8
 71
3
 72
8
 73
4
 74
0
 40
0
 40
0
 40
0
 40
0
 40
1
 40
1
 40
1
 40
1
 10
41.066712
 20
39.249552
 30
0.0
 10
41.066712
 20
39.528246
 30
0.0
 10
41.288961
 20
39.750495
 30
0.0
 10
41.567655
 20
39.750495
 30
0.0
  0
SPLINE
  5
11a
100
AcDbEntity
  8
0
 62
7
100
AcDbSpline
 70
8
 71
3
 72
8
 73
4
 74
0
 40
0
 40
0
 40
0
 40
0
 40
1
 40
1
 40
1
 40
1
 10
41.567655
 20
39.750495
 30
0.0
 10
41.846348
 20
39.750495
 30
0.0
 10
42.068597
 20
39.528246
 30
0.0
 10
42.068597
 20
39.249552
 30
0.0
  0
SPLINE
  5
11b
100
AcDbEntity
  8
0
 62
7
100
AcDbSpline
 70
8
 71
3
 72
8
 73
4
 74
0
 40
0
 40
0
 40
0
 40
0
 40
1
 40
1
 40
1
 40
1
 10
42.068597
 20
39.249552
 30
0.0
 10
42.068597
 20
38.970859
 30
0.0
 10
41.846348
 20
38.748609
 30
0.0
 10
41.567655
 20
38.748609
 30
0.0
  0
LWPOLYLINE
  5
11c
100
AcDbEntity
  8
0
 62
7
100
AcDbPolyline
 90
1
 70
1
 10
41.567655
 20
36.748367
 30
0.0
  0
SPLINE
  5
11d
100
AcDbEntity
  8
0
 62
7
100
AcDbSpline
 70
8
 71
3
 72
8
 73
4
 74
0
 40
0
 40
0
 40
0
 40
0
 40
1
 40
1
 40
1
 40
1
 10
41.567655
 20
40.748852
 30
0.0
 10
41.292489
 20
40.748852
 30
0.0
 10
41.066712
 20
40.971101
 30
0.0
 10
41.066712
 20
41.249795
 30
0.0
  0
SPLINE
  5
11e
100
AcDbEntity
  8
0
 62
7
100
AcDbSpline
 70
8
 71
3
 72
8
 73
4
 74
0
 40
0
 40
0
 40
0
 40
0
 40
1
 40
1
 40
1
 40
1
 10
41.066712
 20
41.249795
 30
0.0
 10
41.066712
 20
41.528488
 30
0.0
 10
41.288961
 20
41.750737
 30
0.0
 10
41.567655
 20
41.750737
 30
0.0
  0
SPLINE
  5
11f
100
AcDbEntity
  8
0
 62
7
100
AcDbSpline
 70
8
 71
3
 72
8
 73
4
 74
0
 40
0
 40
0
 40
0
 40
0
 40
1
 40
1
 40
1
 40
1
 10
41.567655
 20
41.750737
 30
0.0
 10
41.846348
 20
41.750737
 30
0.0
 10
42.068597
 20
41.528488
 30
0.0
 10
42.068597
 20
41.249795
 30
0.0
  0
SPLINE
  5
120
100
AcDbEntity
  8
0
 62
7
100
AcDbSpline
 70
8
 71
3
 72
8
 73
4
 74
0
 40
0
 40
0
 40
0
 40
0
 40
1
 40
1
 40
1
 40
1
 10
42.068597
 20
41.249795
 30
0.0
 10
42.068597
 20
40.971101
 30
0.0
 10
41.846348
 20
40.748852
 30
0.0
 10
41.567655
 20
40.748852
 30
0.0
  0
LWPOLYLINE
  5
121
100
AcDbEntity
  8
0
 62
7
100
AcDbPolyline
 90
1
 70
1
 10
41.567655
 20
38.748609
 30
0.0
  0
SPLINE
  5
122
100
AcDbEntity
  8
0
 62
7
100
AcDbSpline
 70
8
 71
3
 72
8
 73
4
 74
0
 40
0
 40
0
 40
0
 40
0
 40
1
 40
1
 40
1
 40
1
 10
41.567655
 20
42.749095
 30
0.0
 10
41.292489
 20
42.749095
 30
0.0
 10
41.066712
 20
42.971344
 30
0.0
 10
41.066712
 20
43.250038
 30
0.0
  0
SPLINE
  5
123
100
AcDbEntity
  8
0
 62
7
100
AcDbSpline
 70
8
 71
3
 72
8
 73
4
 74
0
 40
0
 40
0
 40
0
 40
0
 40
1
 40
1
 40
1
 40
1
 10
41.066712
 20
43.250038
 30
0.0
 10
41.066712
 20
43.528731
 30
0.0
 10
41.288961
 20
43.750980
 30
0.0
 10
41.567655
 20
43.750980
 30
0.0
  0
SPLINE
  5
124
100
AcDbEntity
  8
0
 62
7
100
AcDbSpline
 70
8
 71
3
 72
8
 73
4
 74
0
 40
0
 40
0
 40
0
 40
0
 40
1
 40
1
 40
1
 40
1
 10
41.567655
 20
43.750980
 30
0.0
 10
41.846348
 20
43.750980
 30
0.0
 10
42.068597
 20
43.528731
 30
0.0
 10
42.068597
 20
43.250038
 30
0.0
  0
SPLINE
  5
125
100
AcDbEntity
  8
0
 62
7
100
AcDbSpline
 70
8
 71
3
 72
8
 73
4
 74
0
 40
0
 40
0
 40
0
 40
0
 40
1
 40
1
 40
1
 40
1
 10
42.068597
 20
43.250038
 30
0.0
 10
42.068597
 20
42.971344
 30
0.0
 10
41.846348
 20
42.749095
 30
0.0
 10
41.567655
 20
42.749095
 30
0.0
  0
LWPOLYLINE
  5
126
100
AcDbEntity
  8
0
 62
7
100
AcDbPolyline
 90
1
 70
1
 10
41.567655
 20
40.748852
 30
0.0
  0
SPLINE
  5
127
100
AcDbEntity
  8
0
 62
7
100
AcDbSpline
 70
8
 71
3
 72
8
 73
4
 74
0
 40
0
 40
0
 40
0
 40
0
 40
1
 40
1
 40
1
 40
1
 10
43.567898
 20
34.748124
 30
0.0
 10
43.292732
 20
34.748124
 30
0.0
 10
43.066955
 20
34.970373
 30
0.0
 10
43.066955
 20
35.249067
 30
0.0
  0
SPLINE
  5
128
100
AcDbEntity
  8
0
 62
7
100
AcDbSpline
 70
8
 71
3
 72
8
 73
4
 74
0
 40
0
 40
0
 40
0
 40
0
 40
1
 40
1
 40
1
 40
1
 10
43.066955
 20
35.249067
 30
0.0
 10
43.066955
 20
35.527760
 30
0.0
 10
43.289204
 20
35.750009
 30
0.0
 10
43.567898
 20
35.750009
 30
0.0
  0
SPLINE
  5
129
100
AcDbEntity
  8
0
 62
7
100
AcDbSpline
 70
8
 71
3
 72
8
 73
4
 74
0
 40
0
 40
0
 40
0
 40
0
 40
1
 40
1
 40
1
 40
1
 10
43.567898
 20
35.750009
 30
0.0
 10
43.846591
 20
35.750009
 30
0.0
 10
44.068840
 20
35.527760
 30
0.0
 10
44.068840
 20
35.249067
 30
0.0
  0
SPLINE
  5
12a
100
AcDbEntity
  8
0
 62
7
100
AcDbSpline
 70
8
 71
3
 72
8
 73
4
 74
0
 40
0
 40
0
 40
0
 40
0
 40
1
 40
1
 40
1
 40
1
 10
44.068840
 20
35.249067
 30
0.0
 10
44.068840
 20
34.970373
 30
0.0
 10
43.846591
 20
34.748124
 30
0.0
 10
43.567898
 20
34.748124
 30
0.0
  0
LWPOLYLINE
  5
12b
100
AcDbEntity
  8
0
 62
7
100
AcDbPolyline
 90
1
 70
1
 10
41.567655
 20
42.749095
 30
0.0
  0
SPLINE
  5
12c
100
AcDbEntity
  8
0
 62
7
100
AcDbSpline
 70
8
 71
3
 72
8
 73
4
 74
0
 40
0
 40
0
 40
0
 40
0
 40
1
 40
1
 40
1
 40
1
 10
43.567898
 20
36.748367
 30
0.0
 10
43.292732
 20
36.748367
 30
0.0
 10
43.066955
 20
36.970616
 30
0.0
 10
43.066955
 20
37.249309
 30
0.0
  0
SPLINE
  5
12d
100
AcDbEntity
  8
0
 62
7
100
AcDbSpline
 70
8
 71
3
 72
8
 73
4
 74
0
 40
0
 40
0
 40
0
 40
0
 40
1
 40
1
 40
1
 40
1
 10
43.066955
 20
37.249309
 30
0.0
 10
43.066955
 20
37.528003
 30
0.0
 10
43.289204
 20
37.750252
 30
0.0
 10
43.567898
 20
37.750252
 30
0.0
  0
SPLINE
  5
12e
100
AcDbEntity
  8
0
 62
7
100
AcDbSpline
 70
8
 71
3
 72
8
 73
4
 74
0
 40
0
 40
0
 40
0
 40
0
 40
1
 40
1
 40
1
 40
1
 10
43.567898
 20
37.750252
 30
0.0
 10
43.846591
 20
37.750252
 30
0.0
 10
44.068840
 20
37.528003
 30
0.0
 10
44.068840
 20
37.249309
 30
0.0
  0
SPLINE
  5
12f
100
AcDbEntity
  8
0
 62
7
100
AcDbSpline
 70
8
 71
3
 72
8
 73
4
 74
0
 40
0
 40
0
 40
0
 40
0
 40
1
 40
1
 40
1
 40
1
 10
44.068840
 20
37.249309
 30
0.0
 10
44.068840
 20
36.970616
 30
0.0
 10
43.846591
 20
36.748367
 30
0.0
 10
43.567898
 20
36.748367
 30
0.0
  0
LWPOLYLINE
  5
130
100
AcDbEntity
  8
0
 62
7
100
AcDbPolyline
 90
1
 70
1
 10
43.567898
 20
34.748124
 30
0.0
  0
SPLINE
  5
131
100
AcDbEntity
  8
0
 62
7
100
AcDbSpline
 70
8
 71
3
 72
8
 73
4
 74
0
 40
0
 40
0
 40
0
 40
0
 40
1
 40
1
 40
1
 40
1
 10
43.567898
 20
38.748609
 30
0.0
 10
43.292732
 20
38.748609
 30
0.0
 10
43.066955
 20
38.970859
 30
0.0
 10
43.066955
 20
39.249552
 30
0.0
  0
SPLINE
  5
132
100
AcDbEntity
  8
0
 62
7
100
AcDbSpline
 70
8
 71
3
 72
8
 73
4
 74
0
 40
0
 40
0
 40
0
 40
0
 40
1
 40
1
 40
1
 40
1
 10
43.066955
 20
39.249552
 30
0.0
 10
43.066955
 20
39.528246
 30
0.0
 10
43.289204
 20
39.750495
 30
0.0
 10
43.567898
 20
39.750495
 30
0.0
  0
SPLINE
  5
133
100
AcDbEntity
  8
0
 62
7
100
AcDbSpline
 70
8
 71
3
 72
8
 73
4
 74
0
 40
0
 40
0
 40
0
 40
0
 40
1
 40
1
 40
1
 40
1
 10
43.567898
 20
39.750495
 30
0.0
 10
43.846591
 20
39.750495
 30
0.0
 10
44.068840
 20
39.528246
 30
0.0
 10
44.068840
 20
39.249552
 30
0.0
  0
SPLINE
  5
134
100
AcDbEntity
  8
0
 62
7
100
AcDbSpline
 70
8
 71
3
 72
8
 73
4
 74
0
 40
0
 40
0
 40
0
 40
0
 40
1
 40
1
 40
1
 40
1
 10
44.068840
 20
39.249552
 30
0.0
 10
44.068840
 20
38.970859
 30
0.0
 10
43.846591
 20
38.748609
 30
0.0
 10
43.567898
 20
38.748609
 30
0.0
  0
LWPOLYLINE
  5
135
100
AcDbEntity
  8
0
 62
7
100
AcDbPolyline
 90
1
 70
1
 10
43.567898
 20
36.748367
 30
0.0
  0
SPLINE
  5
136
100
AcDbEntity
  8
0
 62
7
100
AcDbSpline
 70
8
 71
3
 72
8
 73
4
 74
0
 40
0
 40
0
 40
0
 40
0
 40
1
 40
1
 40
1
 40
1
 10
43.567898
 20
40.748852
 30
0.0
 10
43.292732
 20
40.748852
 30
0.0
 10
43.066955
 20
40.971101
 30
0.0
 10
43.066955
 20
41.249795
 30
0.0
  0
SPLINE
  5
137
100
AcDbEntity
  8
0
 62
7
100
AcDbSpline
 70
8
 71
3
 72
8
 73
4
 74
0
 40
0
 40
0
 40
0
 40
0
 40
1
 40
1
 40
1
 40
1
 10
43.066955
 20
41.249795
 30
0.0
 10
43.066955
 20
41.528488
 30
0.0
 10
43.289204
 20
41.750737
 30
0.0
 10
43.567898
 20
41.750737
 30
0.0
  0
SPLINE
  5
138
100
AcDbEntity
  8
0
 62
7
100
AcDbSpline
 70
8
 71
3
 72
8
 73
4
 74
0
 40
0
 40
0
 40
0
 40
0
 40
1
 40
1
 40
1
 40
1
 10
43.567898
 20
41.750737
 30
0.0
 10
43.846591
 20
41.750737
 30
0.0
 10
44.068840
 20
41.528488
 30
0.0
 10
44.068840
 20
41.249795
 30
0.0
  0
SPLINE
  5
139
100
AcDbEntity
  8
0
 62
7
100
AcDbSpline
 70
8
 71
3
 72
8
 73
4
 74
0
 40
0
 40
0
 40
0
 40
0
 40
1
 40
1
 40
1
 40
1
 10
44.068840
 20
41.249795
 30
0.0
 10
44.068840
 20
40.971101
 30
0.0
 10
43.846591
 20
40.748852
 30
0.0
 10
43.567898
 20
40.748852
 30
0.0
  0
LWPOLYLINE
  5
13a
100
AcDbEntity
  8
0
 62
7
100
AcDbPolyline
 90
1
 70
1
 10
43.567898
 20
38.748609
 30
0.0
  0
SPLINE
  5
13b
100
AcDbEntity
  8
0
 62
7
100
AcDbSpline
 70
8
 71
3
 72
8
 73
4
 74
0
 40
0
 40
0
 40
0
 40
0
 40
1
 40
1
 40
1
 40
1
 10
43.567898
 20
42.749095
 30
0.0
 10
43.292732
 20
42.749095
 30
0.0
 10
43.066955
 20
42.971344
 30
0.0
 10
43.066955
 20
43.250038
 30
0.0
  0
SPLINE
  5
13c
100
AcDbEntity
  8
0
 62
7
100
AcDbSpline
 70
8
 71
3
 72
8
 73
4
 74
0
 40
0
 40
0
 40
0
 40
0
 40
1
 40
1
 40
1
 40
1
 10
43.066955
 20
43.250038
 30
0.0
 10
43.066955
 20
43.528731
 30
0.0
 10
43.289204
 20
43.750980
 30
0.0
 10
43.567898
 20
43.750980
 30
0.0
  0
SPLINE
  5
13d
100
AcDbEntity
  8
0
 62
7
100
AcDbSpline
 70
8
 71
3
 72
8
 73
4
 74
0
 40
0
 40
0
 40
0
 40
0
 40
1
 40
1
 40
1
 40
1
 10
43.567898
 20
43.750980
 30
0.0
 10
43.846591
 20
43.750980
 30
0.0
 10
44.068840
 20
43.528731
 30
0.0
 10
44.068840
 20
43.250038
 30
0.0
  0
SPLINE
  5
13e
100
AcDbEntity
  8
0
 62
7
100
AcDbSpline
 70
8
 71
3
 72
8
 73
4
 74
0
 40
0
 40
0
 40
0
 40
0
 40
1
 40
1
 40
1
 40
1
 10
44.068840
 20
43.250038
 30
0.0
 10
44.068840
 20
42.971344
 30
0.0
 10
43.846591
 20
42.749095
 30
0.0
 10
43.567898
 20
42.749095
 30
0.0
  0
LWPOLYLINE
  5
13f
100
AcDbEntity
  8
0
 62
7
100
AcDbPolyline
 90
1
 70
1
 10
43.567898
 20
40.748852
 30
0.0
  0
SPLINE
  5
140
100
AcDbEntity
  8
0
 62
7
100
AcDbSpline
 70
8
 71
3
 72
8
 73
4
 74
0
 40
0
 40
0
 40
0
 40
0
 40
1
 40
1
 40
1
 40
1
 10
45.568140
 20
34.748124
 30
0.0
 10
45.292975
 20
34.748124
 30
0.0
 10
45.067198
 20
34.970373
 30
0.0
 10
45.067198
 20
35.249067
 30
0.0
  0
SPLINE
  5
141
100
AcDbEntity
  8
0
 62
7
100
AcDbSpline
 70
8
 71
3
 72
8
 73
4
 74
0
 40
0
 40
0
 40
0
 40
0
 40
1
 40
1
 40
1
 40
1
 10
45.067198
 20
35.249067
 30
0.0
 10
45.067198
 20
35.527760
 30
0.0
 10
45.289447
 20
35.750009
 30
0.0
 10
45.568140
 20
35.750009
 30
0.0
  0
SPLINE
  5
142
100
AcDbEntity
  8
0
 62
7
100
AcDbSpline
 70
8
 71
3
 72
8
 73
4
 74
0
 40
0
 40
0
 40
0
 40
0
 40
1
 40
1
 40
1
 40
1
 10
45.568140
 20
35.750009
 30
0.0
 10
45.846834
 20
35.750009
 30
0.0
 10
46.069083
 20
35.527760
 30
0.0
 10
46.069083
 20
35.249067
 30
0.0
  0
SPLINE
  5
143
100
AcDbEntity
  8
0
 62
7
100
AcDbSpline
 70
8
 71
3
 72
8
 73
4
 74
0
 40
0
 40
0
 40
0
 40
0
 40
1
 40
1
 40
1
 40
1
 10
46.069083
 20
35.249067
 30
0.0
 10
46.069083
 20
34.970373
 30
0.0
 10
45.846834
 20
34.748124
 30
0.0
 10
45.568140
 20
34.748124
 30
0.0
  0
LWPOLYLINE
  5
144
100
AcDbEntity
  8
0
 62
7
100
AcDbPolyline
 90
1
 70
1
 10
43.567898
 20
42.749095
 30
0.0
  0
SPLINE
  5
145
100
AcDbEntity
  8
0
 62
7
100
AcDbSpline
 70
8
 71
3
 72
8
 73
4
 74
0
 40
0
 40
0
 40
0
 40
0
 40
1
 40
1
 40
1
 40
1
 10
45.568140
 20
36.748367
 30
0.0
 10
45.292975
 20
36.748367
 30
0.0
 10
45.067198
 20
36.970616
 30
0.0
 10
45.067198
 20
37.249309
 30
0.0
  0
SPLINE
  5
146
100
AcDbEntity
  8
0
 62
7
100
AcDbSpline
 70
8
 71
3
 72
8
 73
4
 74
0
 40
0
 40
0
 40
0
 40
0
 40
1
 40
1
 40
1
 40
1
 10
45.067198
 20
37.249309
 30
0.0
 10
45.067198
 20
37.528003
 30
0.0
 10
45.289447
 20
37.750252
 30
0.0
 10
45.568140
 20
37.750252
 30
0.0
  0
SPLINE
  5
147
100
AcDbEntity
  8
0
 62
7
100
AcDbSpline
 70
8
 71
3
 72
8
 73
4
 74
0
 40
0
 40
0
 40
0
 40
0
 40
1
 40
1
 40
1
 40
1
 10
45.568140
 20
37.750252
 30
0.0
 10
45.846834
 20
37.750252
 30
0.0
 10
46.069083
 20
37.528003
 30
0.0
 10
46.069083
 20
37.249309
 30
0.0
  0
SPLINE
  5
148
100
AcDbEntity
  8
0
 62
7
100
AcDbSpline
 70
8
 71
3
 72
8
 73
4
 74
0
 40
0
 40
0
 40
0
 40
0
 40
1
 40
1
 40
1
 40
1
 10
46.069083
 20
37.249309
 30
0.0
 10
46.069083
 20
36.970616
 30
0.0
 10
45.846834
 20
36.748367
 30
0.0
 10
45.568140
 20
36.748367
 30
0.0
  0
LWPOLYLINE
  5
149
100
AcDbEntity
  8
0
 62
7
100
AcDbPolyline
 90
1
 70
1
 10
45.568140
 20
34.748124
 30
0.0
  0
SPLINE
  5
14a
100
AcDbEntity
  8
0
 62
7
100
AcDbSpline
 70
8
 71
3
 72
8
 73
4
 74
0
 40
0
 40
0
 40
0
 40
0
 40
1
 40
1
 40
1
 40
1
 10
45.568140
 20
38.748609
 30
0.0
 10
45.292975
 20
38.748609
 30
0.0
 10
45.067198
 20
38.970859
 30
0.0
 10
45.067198
 20
39.249552
 30
0.0
  0
SPLINE
  5
14b
100
AcDbEntity
  8
0
 62
7
100
AcDbSpline
 70
8
 71
3
 72
8
 73
4
 74
0
 40
0
 40
0
 40
0
 40
0
 40
1
 40
1
 40
1
 40
1
 10
45.067198
 20
39.249552
 30
0.0
 10
45.067198
 20
39.528246
 30
0.0
 10
45.289447
 20
39.750495
 30
0.0
 10
45.568140
 20
39.750495
 30
0.0
  0
SPLINE
  5
14c
100
AcDbEntity
  8
0
 62
7
100
AcDbSpline
 70
8
 71
3
 72
8
 73
4
 74
0
 40
0
 40
0
 40
0
 40
0
 40
1
 40
1
 40
1
 40
1
 10
45.568140
 20
39.750495
 30
0.0
 10
45.846834
 20
39.750495
 30
0.0
 10
46.069083
 20
39.528246
 30
0.0
 10
46.069083
 20
39.249552
 30
0.0
  0
SPLINE
  5
14d
100
AcDbEntity
  8
0
 62
7
100
AcDbSpline
 70
8
 71
3
 72
8
 73
4
 74
0
 40
0
 40
0
 40
0
 40
0
 40
1
 40
1
 40
1
 40
1
 10
46.069083
 20
39.249552
 30
0.0
 10
46.069083
 20
38.970859
 30
0.0
 10
45.846834
 20
38.748609
 30
0.0
 10
45.568140
 20
38.748609
 30
0.0
  0
LWPOLYLINE
  5
14e
100
AcDbEntity
  8
0
 62
7
100
AcDbPolyline
 90
1
 70
1
 10
45.568140
 20
36.748367
 30
0.0
  0
SPLINE
  5
14f
100
AcDbEntity
  8
0
 62
7
100
AcDbSpline
 70
8
 71
3
 72
8
 73
4
 74
0
 40
0
 40
0
 40
0
 40
0
 40
1
 40
1
 40
1
 40
1
 10
45.568140
 20
40.748852
 30
0.0
 10
45.292975
 20
40.748852
 30
0.0
 10
45.067198
 20
40.971101
 30
0.0
 10
45.067198
 20
41.249795
 30
0.0
  0
SPLINE
  5
150
100
AcDbEntity
  8
0
 62
7
100
AcDbSpline
 70
8
 71
3
 72
8
 73
4
 74
0
 40
0
 40
0
 40
0
 40
0
 40
1
 40
1
 40
1
 40
1
 10
45.067198
 20
41.249795
 30
0.0
 10
45.067198
 20
41.528488
 30
0.0
 10
45.289447
 20
41.750737
 30
0.0
 10
45.568140
 20
41.750737
 30
0.0
  0
SPLINE
  5
151
100
AcDbEntity
  8
0
 62
7
100
AcDbSpline
 70
8
 71
3
 72
8
 73
4
 74
0
 40
0
 40
0
 40
0
 40
0
 40
1
 40
1
 40
1
 40
1
 10
45.568140
 20
41.750737
 30
0.0
 10
45.846834
 20
41.750737
 30
0.0
 10
46.069083
 20
41.528488
 30
0.0
 10
46.069083
 20
41.249795
 30
0.0
  0
SPLINE
  5
152
100
AcDbEntity
  8
0
 62
7
100
AcDbSpline
 70
8
 71
3
 72
8
 73
4
 74
0
 40
0
 40
0
 40
0
 40
0
 40
1
 40
1
 40
1
 40
1
 10
46.069083
 20
41.249795
 30
0.0
 10
46.069083
 20
40.971101
 30
0.0
 10
45.846834
 20
40.748852
 30
0.0
 10
45.568140
 20
40.748852
 30
0.0
  0
LWPOLYLINE
  5
153
100
AcDbEntity
  8
0
 62
7
100
AcDbPolyline
 90
1
 70
1
 10
45.568140
 20
38.748609
 30
0.0
  0
SPLINE
  5
154
100
AcDbEntity
  8
0
 62
7
100
AcDbSpline
 70
8
 71
3
 72
8
 73
4
 74
0
 40
0
 40
0
 40
0
 40
0
 40
1
 40
1
 40
1
 40
1
 10
45.568140
 20
42.749095
 30
0.0
 10
45.292975
 20
42.749095
 30
0.0
 10
45.067198
 20
42.971344
 30
0.0
 10
45.067198
 20
43.250038
 30
0.0
  0
SPLINE
  5
155
100
AcDbEntity
  8
0
 62
7
100
AcDbSpline
 70
8
 71
3
 72
8
 73
4
 74
0
 40
0
 40
0
 40
0
 40
0
 40
1
 40
1
 40
1
 40
1
 10
45.067198
 20
43.250038
 30
0.0
 10
45.067198
 20
43.528731
 30
0.0
 10
45.289447
 20
43.750980
 30
0.0
 10
45.568140
 20
43.750980
 30
0.0
  0
SPLINE
  5
156
100
AcDbEntity
  8
0
 62
7
100
AcDbSpline
 70
8
 71
3
 72
8
 73
4
 74
0
 40
0
 40
0
 40
0
 40
0
 40
1
 40
1
 40
1
 40
1
 10
45.568140
 20
43.750980
 30
0.0
 10
45.846834
 20
43.750980
 30
0.0
 10
46.069083
 20
43.528731
 30
0.0
 10
46.069083
 20
43.250038
 30
0.0
  0
SPLINE
  5
157
100
AcDbEntity
  8
0
 62
7
100
AcDbSpline
 70
8
 71
3
 72
8
 73
4
 74
0
 40
0
 40
0
 40
0
 40
0
 40
1
 40
1
 40
1
 40
1
 10
46.069083
 20
43.250038
 30
0.0
 10
46.069083
 20
42.971344
 30
0.0
 10
45.846834
 20
42.749095
 30
0.0
 10
45.568140
 20
42.749095
 30
0.0
  0
LWPOLYLINE
  5
158
100
AcDbEntity
  8
0
 62
7
100
AcDbPolyline
 90
1
 70
1
 10
45.568140
 20
40.748852
 30
0.0
  0
SPLINE
  5
159
100
AcDbEntity
  8
0
 62
7
100
AcDbSpline
 70
8
 71
3
 72
8
 73
4
 74
0
 40
0
 40
0
 40
0
 40
0
 40
1
 40
1
 40
1
 40
1
 10
47.568383
 20
34.748124
 30
0.0
 10
47.293217
 20
34.748124
 30
0.0
 10
47.067440
 20
34.970373
 30
0.0
 10
47.067440
 20
35.249067
 30
0.0
  0
SPLINE
  5
15a
100
AcDbEntity
  8
0
 62
7
100
AcDbSpline
 70
8
 71
3
 72
8
 73
4
 74
0
 40
0
 40
0
 40
0
 40
0
 40
1
 40
1
 40
1
 40
1
 10
47.067440
 20
35.249067
 30
0.0
 10
47.067440
 20
35.527760
 30
0.0
 10
47.289690
 20
35.750009
 30
0.0
 10
47.568383
 20
35.750009
 30
0.0
  0
SPLINE
  5
15b
100
AcDbEntity
  8
0
 62
7
100
AcDbSpline
 70
8
 71
3
 72
8
 73
4
 74
0
 40
0
 40
0
 40
0
 40
0
 40
1
 40
1
 40
1
 40
1
 10
47.568383
 20
35.750009
 30
0.0
 10
47.847076
 20
35.750009
 30
0.0
 10
48.069326
 20
35.527760
 30
0.0
 10
48.069326
 20
35.249067
 30
0.0
  0
SPLINE
  5
15c
100
AcDbEntity
  8
0
 62
7
100
AcDbSpline
 70
8
 71
3
 72
8
 73
4
 74
0
 40
0
 40
0
 40
0
 40
0
 40
1
 40
1
 40
1
 40
1
 10
48.069326
 20
35.249067
 30
0.0
 10
48.069326
 20
34.970373
 30
0.0
 10
47.847076
 20
34.748124
 30
0.0
 10
47.568383
 20
34.748124
 30
0.0
  0
LWPOLYLINE
  5
15d
100
AcDbEntity
  8
0
 62
7
100
AcDbPolyline
 90
1
 70
1
 10
45.568140
 20
42.749095
 30
0.0
  0
SPLINE
  5
15e
100
AcDbEntity
  8
0
 62
7
100
AcDbSpline
 70
8
 71
3
 72
8
 73
4
 74
0
 40
0
 40
0
 40
0
 40
0
 40
1
 40
1
 40
1
 40
1
 10
47.568383
 20
36.748367
 30
0.0
 10
47.293217
 20
36.748367
 30
0.0
 10
47.067440
 20
36.970616
 30
0.0
 10
47.067440
 20
37.249309
 30
0.0
  0
SPLINE
  5
15f
100
AcDbEntity
  8
0
 62
7
100
AcDbSpline
 70
8
 71
3
 72
8
 73
4
 74
0
 40
0
 40
0
 40
0
 40
0
 40
1
 40
1
 40
1
 40
1
 10
47.067440
 20
37.249309
 30
0.0
 10
47.067440
 20
37.528003
 30
0.0
 10
47.289690
 20
37.750252
 30
0.0
 10
47.568383
 20
37.750252
 30
0.0
  0
SPLINE
  5
160
100
AcDbEntity
  8
0
 62
7
100
AcDbSpline
 70
8
 71
3
 72
8
 73
4
 74
0
 40
0
 40
0
 40
0
 40
0
 40
1
 40
1
 40
1
 40
1
 10
47.568383
 20
37.750252
 30
0.0
 10
47.847076
 20
37.750252
 30
0.0
 10
48.069326
 20
37.528003
 30
0.0
 10
48.069326
 20
37.249309
 30
0.0
  0
SPLINE
  5
161
100
AcDbEntity
  8
0
 62
7
100
AcDbSpline
 70
8
 71
3
 72
8
 73
4
 74
0
 40
0
 40
0
 40
0
 40
0
 40
1
 40
1
 40
1
 40
1
 10
48.069326
 20
37.249309
 30
0.0
 10
48.069326
 20
36.970616
 30
0.0
 10
47.847076
 20
36.748367
 30
0.0
 10
47.568383
 20
36.748367
 30
0.0
  0
LWPOLYLINE
  5
162
100
AcDbEntity
  8
0
 62
7
100
AcDbPolyline
 90
1
 70
1
 10
47.568383
 20
34.748124
 30
0.0
  0
SPLINE
  5
163
100
AcDbEntity
  8
0
 62
7
100
AcDbSpline
 70
8
 71
3
 72
8
 73
4
 74
0
 40
0
 40
0
 40
0
 40
0
 40
1
 40
1
 40
1
 40
1
 10
47.568383
 20
38.748609
 30
0.0
 10
47.293217
 20
38.748609
 30
0.0
 10
47.067440
 20
38.970859
 30
0.0
 10
47.067440
 20
39.249552
 30
0.0
  0
SPLINE
  5
164
100
AcDbEntity
  8
0
 62
7
100
AcDbSpline
 70
8
 71
3
 72
8
 73
4
 74
0
 40
0
 40
0
 40
0
 40
0
 40
1
 40
1
 40
1
 40
1
 10
47.067440
 20
39.249552
 30
0.0
 10
47.067440
 20
39.528246
 30
0.0
 10
47.289690
 20
39.750495
 30
0.0
 10
47.568383
 20
39.750495
 30
0.0
  0
SPLINE
  5
165
100
AcDbEntity
  8
0
 62
7
100
AcDbSpline
 70
8
 71
3
 72
8
 73
4
 74
0
 40
0
 40
0
 40
0
 40
0
 40
1
 40
1
 40
1
 40
1
 10
47.568383
 20
39.750495
 30
0.0
 10
47.847076
 20
39.750495
 30
0.0
 10
48.069326
 20
39.528246
 30
0.0
 10
48.069326
 20
39.249552
 30
0.0
  0
SPLINE
  5
166
100
AcDbEntity
  8
0
 62
7
100
AcDbSpline
 70
8
 71
3
 72
8
 73
4
 74
0
 40
0
 40
0
 40
0
 40
0
 40
1
 40
1
 40
1
 40
1
 10
48.069326
 20
39.249552
 30
0.0
 10
48.069326
 20
38.970859
 30
0.0
 10
47.847076
 20
38.748609
 30
0.0
 10
47.568383
 20
38.748609
 30
0.0
  0
LWPOLYLINE
  5
167
100
AcDbEntity
  8
0
 62
7
100
AcDbPolyline
 90
1
 70
1
 10
47.568383
 20
36.748367
 30
0.0
  0
SPLINE
  5
168
100
AcDbEntity
  8
0
 62
7
100
AcDbSpline
 70
8
 71
3
 72
8
 73
4
 74
0
 40
0
 40
0
 40
0
 40
0
 40
1
 40
1
 40
1
 40
1
 10
47.568383
 20
40.748852
 30
0.0
 10
47.293217
 20
40.748852
 30
0.0
 10
47.067440
 20
40.971101
 30
0.0
 10
47.067440
 20
41.249795
 30
0.0
  0
SPLINE
  5
169
100
AcDbEntity
  8
0
 62
7
100
AcDbSpline
 70
8
 71
3
 72
8
 73
4
 74
0
 40
0
 40
0
 40
0
 40
0
 40
1
 40
1
 40
1
 40
1
 10
47.067440
 20
41.249795
 30
0.0
 10
47.067440
 20
41.528488
 30
0.0
 10
47.289690
 20
41.750737
 30
0.0
 10
47.568383
 20
41.750737
 30
0.0
  0
SPLINE
  5
16a
100
AcDbEntity
  8
0
 62
7
100
AcDbSpline
 70
8
 71
3
 72
8
 73
4
 74
0
 40
0
 40
0
 40
0
 40
0
 40
1
 40
1
 40
1
 40
1
 10
47.568383
 20
41.750737
 30
0.0
 10
47.847076
 20
41.750737
 30
0.0
 10
48.069326
 20
41.528488
 30
0.0
 10
48.069326
 20
41.249795
 30
0.0
  0
SPLINE
  5
16b
100
AcDbEntity
  8
0
 62
7
100
AcDbSpline
 70
8
 71
3
 72
8
 73
4
 74
0
 40
0
 40
0
 40
0
 40
0
 40
1
 40
1
 40
1
 40
1
 10
48.069326
 20
41.249795
 30
0.0
 10
48.069326
 20
40.971101
 30
0.0
 10
47.847076
 20
40.748852
 30
0.0
 10
47.568383
 20
40.748852
 30
0.0
  0
LWPOLYLINE
  5
16c
100
AcDbEntity
  8
0
 62
7
100
AcDbPolyline
 90
1
 70
1
 10
47.568383
 20
38.748609
 30
0.0
  0
SPLINE
  5
16d
100
AcDbEntity
  8
0
 62
7
100
AcDbSpline
 70
8
 71
3
 72
8
 73
4
 74
0
 40
0
 40
0
 40
0
 40
0
 40
1
 40
1
 40
1
 40
1
 10
47.568383
 20
42.749095
 30
0.0
 10
47.293217
 20
42.749095
 30
0.0
 10
47.067440
 20
42.971344
 30
0.0
 10
47.067440
 20
43.250038
 30
0.0
  0
SPLINE
  5
16e
100
AcDbEntity
  8
0
 62
7
100
AcDbSpline
 70
8
 71
3
 72
8
 73
4
 74
0
 40
0
 40
0
 40
0
 40
0
 40
1
 40
1
 40
1
 40
1
 10
47.067440
 20
43.250038
 30
0.0
 10
47.067440
 20
43.528731
 30
0.0
 10
47.289690
 20
43.750980
 30
0.0
 10
47.568383
 20
43.750980
 30
0.0
  0
SPLINE
  5
16f
100
AcDbEntity
  8
0
 62
7
100
AcDbSpline
 70
8
 71
3
 72
8
 73
4
 74
0
 40
0
 40
0
 40
0
 40
0
 40
1
 40
1
 40
1
 40
1
 10
47.568383
 20
43.750980
 30
0.0
 10
47.847076
 20
43.750980
 30
0.0
 10
48.069326
 20
43.528731
 30
0.0
 10
48.069326
 20
43.250038
 30
0.0
  0
SPLINE
  5
170
100
AcDbEntity
  8
0
 62
7
100
AcDbSpline
 70
8
 71
3
 72
8
 73
4
 74
0
 40
0
 40
0
 40
0
 40
0
 40
1
 40
1
 40
1
 40
1
 10
48.069326
 20
43.250038
 30
0.0
 10
48.069326
 20
42.971344
 30
0.0
 10
47.847076
 20
42.749095
 30
0.0
 10
47.568383
 20
42.749095
 30
0.0
  0
LWPOLYLINE
  5
171
100
AcDbEntity
  8
0
 62
7
100
AcDbPolyline
 90
1
 70
1
 10
47.568383
 20
40.748852
 30
0.0
  0
SPLINE
  5
172
100
AcDbEntity
  8
0
 62
7
100
AcDbSpline
 70
8
 71
3
 72
8
 73
4
 74
0
 40
0
 40
0
 40
0
 40
0
 40
1
 40
1
 40
1
 40
1
 10
49.568626
 20
34.748124
 30
0.0
 10
49.293460
 20
34.748124
 30
0.0
 10
49.067683
 20
34.970373
 30
0.0
 10
49.067683
 20
35.249067
 30
0.0
  0
SPLINE
  5
173
100
AcDbEntity
  8
0
 62
7
100
AcDbSpline
 70
8
 71
3
 72
8
 73
4
 74
0
 40
0
 40
0
 40
0
 40
0
 40
1
 40
1
 40
1
 40
1
 10
49.067683
 20
35.249067
 30
0.0
 10
49.067683
 20
35.527760
 30
0.0
 10
49.289932
 20
35.750009
 30
0.0
 10
49.568626
 20
35.750009
 30
0.0
  0
SPLINE
  5
174
100
AcDbEntity
  8
0
 62
7
100
AcDbSpline
 70
8
 71
3
 72
8
 73
4
 74
0
 40
0
 40
0
 40
0
 40
0
 40
1
 40
1
 40
1
 40
1
 10
49.568626
 20
35.750009
 30
0.0
 10
49.847319
 20
35.750009
 30
0.0
 10
50.069568
 20
35.527760
 30
0.0
 10
50.069568
 20
35.249067
 30
0.0
  0
SPLINE
  5
175
100
AcDbEntity
  8
0
 62
7
100
AcDbSpline
 70
8
 71
3
 72
8
 73
4
 74
0
 40
0
 40
0
 40
0
 40
0
 40
1
 40
1
 40
1
 40
1
 10
50.069568
 20
35.249067
 30
0.0
 10
50.069568
 20
34.970373
 30
0.0
 10
49.847319
 20
34.748124
 30
0.0
 10
49.568626
 20
34.748124
 30
0.0
  0
LWPOLYLINE
  5
176
100
AcDbEntity
  8
0
 62
7
100
AcDbPolyline
 90
1
 70
1
 10
47.568383
 20
42.749095
 30
0.0
  0
SPLINE
  5
177
100
AcDbEntity
  8
0
 62
7
100
AcDbSpline
 70
8
 71
3
 72
8
 73
4
 74
0
 40
0
 40
0
 40
0
 40
0
 40
1
 40
1
 40
1
 40
1
 10
49.568626
 20
36.748367
 30
0.0
 10
49.293460
 20
36.748367
 30
0.0
 10
49.067683
 20
36.970616
 30
0.0
 10
49.067683
 20
37.249309
 30
0.0
  0
SPLINE
  5
178
100
AcDbEntity
  8
0
 62
7
100
AcDbSpline
 70
8
 71
3
 72
8
 73
4
 74
0
 40
0
 40
0
 40
0
 40
0
 40
1
 40
1
 40
1
 40
1
 10
49.067683
 20
37.249309
 30
0.0
 10
49.067683
 20
37.528003
 30
0.0
 10
49.289932
 20
37.750252
 30
0.0
 10
49.568626
 20
37.750252
 30
0.0
  0
SPLINE
  5
179
100
AcDbEntity
  8
0
 62
7
100
AcDbSpline
 70
8
 71
3
 72
8
 73
4
 74
0
 40
0
 40
0
 40
0
 40
0
 40
1
 40
1
 40
1
 40
1
 10
49.568626
 20
37.750252
 30
0.0
 10
49.847319
 20
37.750252
 30
0.0
 10
50.069568
 20
37.528003
 30
0.0
 10
50.069568
 20
37.249309
 30
0.0
  0
SPLINE
  5
17a
100
AcDbEntity
  8
0
 62
7
100
AcDbSpline
 70
8
 71
3
 72
8
 73
4
 74
0
 40
0
 40
0
 40
0
 40
0
 40
1
 40
1
 40
1
 40
1
 10
50.069568
 20
37.249309
 30
0.0
 10
50.069568
 20
36.970616
 30
0.0
 10
49.847319
 20
36.748367
 30
0.0
 10
49.568626
 20
36.748367
 30
0.0
  0
LWPOLYLINE
  5
17b
100
AcDbEntity
  8
0
 62
7
100
AcDbPolyline
 90
1
 70
1
 10
49.568626
 20
34.748124
 30
0.0
  0
SPLINE
  5
17c
100
AcDbEntity
  8
0
 62
7
100
AcDbSpline
 70
8
 71
3
 72
8
 73
4
 74
0
 40
0
 40
0
 40
0
 40
0
 40
1
 40
1
 40
1
 40
1
 10
49.568626
 20
38.748609
 30
0.0
 10
49.293460
 20
38.748609
 30
0.0
 10
49.067683
 20
38.970859
 30
0.0
 10
49.067683
 20
39.249552
 30
0.0
  0
SPLINE
  5
17d
100
AcDbEntity
  8
0
 62
7
100
AcDbSpline
 70
8
 71
3
 72
8
 73
4
 74
0
 40
0
 40
0
 40
0
 40
0
 40
1
 40
1
 40
1
 40
1
 10
49.067683
 20
39.249552
 30
0.0
 10
49.067683
 20
39.528246
 30
0.0
 10
49.289932
 20
39.750495
 30
0.0
 10
49.568626
 20
39.750495
 30
0.0
  0
SPLINE
  5
17e
100
AcDbEntity
  8
0
 62
7
100
AcDbSpline
 70
8
 71
3
 72
8
 73
4
 74
0
 40
0
 40
0
 40
0
 40
0
 40
1
 40
1
 40
1
 40
1
 10
49.568626
 20
39.750495
 30
0.0
 10
49.847319
 20
39.750495
 30
0.0
 10
50.069568
 20
39.528246
 30
0.0
 10
50.069568
 20
39.249552
 30
0.0
  0
SPLINE
  5
17f
100
AcDbEntity
  8
0
 62
7
100
AcDbSpline
 70
8
 71
3
 72
8
 73
4
 74
0
 40
0
 40
0
 40
0
 40
0
 40
1
 40
1
 40
1
 40
1
 10
50.069568
 20
39.249552
 30
0.0
 10
50.069568
 20
38.970859
 30
0.0
 10
49.847319
 20
38.748609
 30
0.0
 10
49.568626
 20
38.748609
 30
0.0
  0
LWPOLYLINE
  5
180
100
AcDbEntity
  8
0
 62
7
100
AcDbPolyline
 90
1
 70
1
 10
49.568626
 20
36.748367
 30
0.0
  0
SPLINE
  5
181
100
AcDbEntity
  8
0
 62
7
100
AcDbSpline
 70
8
 71
3
 72
8
 73
4
 74
0
 40
0
 40
0
 40
0
 40
0
 40
1
 40
1
 40
1
 40
1
 10
49.568626
 20
40.748852
 30
0.0
 10
49.293460
 20
40.748852
 30
0.0
 10
49.067683
 20
40.971101
 30
0.0
 10
49.067683
 20
41.249795
 30
0.0
  0
SPLINE
  5
182
100
AcDbEntity
  8
0
 62
7
100
AcDbSpline
 70
8
 71
3
 72
8
 73
4
 74
0
 40
0
 40
0
 40
0
 40
0
 40
1
 40
1
 40
1
 40
1
 10
49.067683
 20
41.249795
 30
0.0
 10
49.067683
 20
41.528488
 30
0.0
 10
49.289932
 20
41.750737
 30
0.0
 10
49.568626
 20
41.750737
 30
0.0
  0
SPLINE
  5
183
100
AcDbEntity
  8
0
 62
7
100
AcDbSpline
 70
8
 71
3
 72
8
 73
4
 74
0
 40
0
 40
0
 40
0
 40
0
 40
1
 40
1
 40
1
 40
1
 10
49.568626
 20
41.750737
 30
0.0
 10
49.847319
 20
41.750737
 30
0.0
 10
50.069568
 20
41.528488
 30
0.0
 10
50.069568
 20
41.249795
 30
0.0
  0
SPLINE
  5
184
100
AcDbEntity
  8
0
 62
7
100
AcDbSpline
 70
8
 71
3
 72
8
 73
4
 74
0
 40
0
 40
0
 40
0
 40
0
 40
1
 40
1
 40
1
 40
1
 10
50.069568
 20
41.249795
 30
0.0
 10
50.069568
 20
40.971101
 30
0.0
 10
49.847319
 20
40.748852
 30
0.0
 10
49.568626
 20
40.748852
 30
0.0
  0
LWPOLYLINE
  5
185
100
AcDbEntity
  8
0
 62
7
100
AcDbPolyline
 90
1
 70
1
 10
49.568626
 20
38.748609
 30
0.0
  0
SPLINE
  5
186
100
AcDbEntity
  8
0
 62
7
100
AcDbSpline
 70
8
 71
3
 72
8
 73
4
 74
0
 40
0
 40
0
 40
0
 40
0
 40
1
 40
1
 40
1
 40
1
 10
49.568626
 20
42.749095
 30
0.0
 10
49.293460
 20
42.749095
 30
0.0
 10
49.067683
 20
42.971344
 30
0.0
 10
49.067683
 20
43.250038
 30
0.0
  0
SPLINE
  5
187
100
AcDbEntity
  8
0
 62
7
100
AcDbSpline
 70
8
 71
3
 72
8
 73
4
 74
0
 40
0
 40
0
 40
0
 40
0
 40
1
 40
1
 40
1
 40
1
 10
49.067683
 20
43.250038
 30
0.0
 10
49.067683
 20
43.528731
 30
0.0
 10
49.289932
 20
43.750980
 30
0.0
 10
49.568626
 20
43.750980
 30
0.0
  0
SPLINE
  5
188
100
AcDbEntity
  8
0
 62
7
100
AcDbSpline
 70
8
 71
3
 72
8
 73
4
 74
0
 40
0
 40
0
 40
0
 40
0
 40
1
 40
1
 40
1
 40
1
 10
49.568626
 20
43.750980
 30
0.0
 10
49.847319
 20
43.750980
 30
0.0
 10
50.069568
 20
43.528731
 30
0.0
 10
50.069568
 20
43.250038
 30
0.0
  0
SPLINE
  5
189
100
AcDbEntity
  8
0
 62
7
100
AcDbSpline
 70
8
 71
3
 72
8
 73
4
 74
0
 40
0
 40
0
 40
0
 40
0
 40
1
 40
1
 40
1
 40
1
 10
50.069568
 20
43.250038
 30
0.0
 10
50.069568
 20
42.971344
 30
0.0
 10
49.847319
 20
42.749095
 30
0.0
 10
49.568626
 20
42.749095
 30
0.0
  0
LWPOLYLINE
  5
18a
100
AcDbEntity
  8
0
 62
7
100
AcDbPolyline
 90
1
 70
1
 10
49.568626
 20
40.748852
 30
0.0
  0
SPLINE
  5
18b
100
AcDbEntity
  8
0
 62
7
100
AcDbSpline
 70
8
 71
3
 72
8
 73
4
 74
0
 40
0
 40
0
 40
0
 40
0
 40
1
 40
1
 40
1
 40
1
 10
66.974618
 20
34.123710
 30
0.0
 10
67.553172
 20
34.123710
 30
0.0
 10
68.025892
 20
33.654517
 30
0.0
 10
68.025892
 20
33.072436
 30
0.0
  0
SPLINE
  5
18c
100
AcDbEntity
  8
0
 62
7
100
AcDbSpline
 70
8
 71
3
 72
8
 73
4
 74
0
 40
0
 40
0
 40
0
 40
0
 40
1
 40
1
 40
1
 40
1
 10
68.025892
 20
33.072436
 30
0.0
 10
68.025892
 20
32.490354
 30
0.0
 10
67.556699
 20
32.021162
 30
0.0
 10
66.974618
 20
32.021162
 30
0.0
  0
SPLINE
  5
18d
100
AcDbEntity
  8
0
 62
7
100
AcDbSpline
 70
8
 71
3
 72
8
 73
4
 74
0
 40
0
 40
0
 40
0
 40
0
 40
1
 40
1
 40
1
 40
1
 10
66.974618
 20
32.021162
 30
0.0
 10
66.392537
 20
32.021162
 30
0.0
 10
65.923344
 20
32.490354
 30
0.0
 10
65.923344
 20
33.072436
 30
0.0
  0
SPLINE
  5
18e
100
AcDbEntity
  8
0
 62
7
100
AcDbSpline
 70
8
 71
3
 72
8
 73
4
 74
0
 40
0
 40
0
 40
0
 40
0
 40
1
 40
1
 40
1
 40
1
 10
65.923344
 20
33.072436
 30
0.0
 10
65.923344
 20
33.654517
 30
0.0
 10
66.392537
 20
34.123710
 30
0.0
 10
66.974618
 20
34.123710
 30
0.0
  0
LWPOLYLINE
  5
18f
100
AcDbEntity
  8
0
 62
7
100
AcDbPolyline
 90
1
 70
1
 10
49.568626
 20
42.749095
 30
0.0
  0
SPLINE
  5
190
100
AcDbEntity
  8
0
 62
7
100
AcDbSpline
 70
8
 71
3
 72
8
 73
4
 74
0
 40
0
 40
0
 40
0
 40
0
 40
1
 40
1
 40
1
 40
1
 10
55.400021
 20
34.896290
 30
0.0
 10
55.978575
 20
34.896290
 30
0.0
 10
56.451295
 20
34.427097
 30
0.0
 10
56.451295
 20
33.845016
 30
0.0
  0
SPLINE
  5
191
100
AcDbEntity
  8
0
 62
7
100
AcDbSpline
 70
8
 71
3
 72
8
 73
4
 74
0
 40
0
 40
0
 40
0
 40
0
 40
1
 40
1
 40
1
 40
1
 10
56.451295
 20
33.845016
 30
0.0
 10
56.451295
 20
33.262935
 30
0.0
 10
55.982102
 20
32.793742
 30
0.0
 10
55.400021
 20
32.793742
 30
0.0
  0
SPLINE
  5
192
100
AcDbEntity
  8
0
 62
7
100
AcDbSpline
 70
8
 71
3
 72
8
 73
4
 74
0
 40
0
 40
0
 40
0
 40
0
 40
1
 40
1
 40
1
 40
1
 10
55.400021
 20
32.793742
 30
0.0
 10
54.817940
 20
32.793742
 30
0.0
 10
54.348747
 20
33.262935
 30
0.0
 10
54.348747
 20
33.845016
 30
0.0
  0
SPLINE
  5
193
100
AcDbEntity
  8
0
 62
7
100
AcDbSpline
 70
8
 71
3
 72
8
 73
4
 74
0
 40
0
 40
0
 40
0
 40
0
 40
1
 40
1
 40
1
 40
1
 10
54.348747
 20
33.845016
 30
0.0
 10
54.348747
 20
34.427097
 30
0.0
 10
54.817940
 20
34.896290
 30
0.0
 10
55.400021
 20
34.896290
 30
0.0
  0
LWPOLYLINE
  5
194
100
AcDbEntity
  8
0
 62
7
100
AcDbPolyline
 90
1
 70
1
 10
66.974618
 20
34.123710
 30
0.0
  0
SPLINE
  5
195
100
AcDbEntity
  8
0
 62
7
100
AcDbSpline
 70
8
 71
3
 72
8
 73
4
 74
0
 40
0
 40
0
 40
0
 40
0
 40
1
 40
1
 40
1
 40
1
 10
120.885923
 20
96.882649
 30
0.0
 10
120.497868
 20
96.882649
 30
0.0
 10
120.187425
 20
96.568677
 30
0.0
 10
120.187425
 20
96.184151
 30
0.0
  0
LWPOLYLINE
  5
196
100
AcDbEntity
  8
0
 62
7
100
AcDbPolyline
 90
1
 70
1
 10
55.400021
 20
34.896290
 30
0.0
  0
SPLINE
  5
197
100
AcDbEntity
  8
0
 62
7
100
AcDbSpline
 70
8
 71
3
 72
8
 73
4
 74
0
 40
0
 40
0
 40
0
 40
0
 40
1
 40
1
 40
1
 40
1
 10
120.187425
 20
0.747525
 30
0.0
 10
120.187425
 20
0.359471
 30
0.0
 10
120.501396
 20
0.049028
 30
0.0
 10
120.885923
 20
0.049028
 30
0.0
  0
LWPOLYLINE
  5
198
100
AcDbEntity
  8
0
 62
7
100
AcDbPolyline
 90
2
 70
0
 10
120.187425
 20
96.184151
 30
0.0
 10
120.187425
 20
0.747525
 30
0.0
  0
SPLINE
  5
199
100
AcDbEntity
  8
0
 62
7
100
AcDbSpline
 70
8
 71
3
 72
8
 73
4
 74
0
 40
0
 40
0
 40
0
 40
0
 40
1
 40
1
 40
1
 40
1
 10
127.747425
 20
13.412201
 30
0.0
 10
127.553398
 20
13.747339
 30
0.0
 10
127.669815
 20
14.174199
 30
0.0
 10
128.004952
 20
14.368226
 30
0.0
  0
LWPOLYLINE
  5
19a
100
AcDbEntity
  8
0
 62
7
100
AcDbPolyline
 90
3
 70
0
 10
120.885923
 20
0.049028
 30
0.0
 10
135.459120
 20
0.049028
 30
0.0
 10
127.747425
 20
13.412201
 30
0.0
  0
SPLINE
  5
19b
100
AcDbEntity
  8
0
 62
7
100
AcDbSpline
 70
8
 71
3
 72
8
 73
4
 74
0
 40
0
 40
0
 40
0
 40
0
 40
1
 40
1
 40
1
 40
1
 10
136.492755
 20
19.268291
 30
0.0
 10
140.867183
 20
21.794171
 30
0.0
 10
145.456806
 20
23.981385
 30
0.0
 10
150.064067
 20
25.755851
 30
0.0
  0
LWPOLYLINE
  5
19c
100
AcDbEntity
  8
0
 62
7
100
AcDbPolyline
 90
2
 70
0
 10
128.004952
 20
14.368226
 30
0.0
 10
136.492755
 20
19.268291
 30
0.0
  0
SPLINE
  5
19d
100
AcDbEntity
  8
0
 62
7
100
AcDbSpline
 70
8
 71
3
 72
8
 73
4
 74
0
 40
0
 40
0
 40
0
 40
0
 40
1
 40
1
 40
1
 40
1
 10
150.092289
 20
88.204347
 30
0.0
 10
150.092289
 20
88.592401
 30
0.0
 10
150.406260
 20
88.902844
 30
0.0
 10
150.794314
 20
88.902844
 30
0.0
  0
LWPOLYLINE
  5
19e
100
AcDbEntity
  8
0
 62
7
100
AcDbPolyline
 90
2
 70
0
 10
150.064067
 20
25.755851
 30
0.0
 10
150.092289
 20
88.204347
 30
0.0
  0
SPLINE
  5
19f
100
AcDbEntity
  8
0
 62
7
100
AcDbSpline
 70
8
 71
3
 72
8
 73
4
 74
0
 40
0
 40
0
 40
0
 40
0
 40
1
 40
1
 40
1
 40
1
 10
169.089303
 20
91.213530
 30
0.0
 10
169.089303
 20
91.601584
 30
0.0
 10
169.403274
 20
91.915555
 30
0.0
 10
169.791329
 20
91.915555
 30
0.0
  0
LWPOLYLINE
  5
1a0
100
AcDbEntity
  8
0
 62
7
100
AcDbPolyline
 90
3
 70
0
 10
150.794314
 20
88.902844
 30
0.0
 10
169.089303
 20
88.902844
 30
0.0
 10
169.089303
 20
91.213530
 30
0.0
  0
SPLINE
  5
1a1
100
AcDbEntity
  8
0
 62
7
100
AcDbSpline
 70
8
 71
3
 72
8
 73
4
 74
0
 40
0
 40
0
 40
0
 40
0
 40
1
 40
1
 40
1
 40
1
 10
122.790916
 20
95.319849
 30
0.0
 10
123.369469
 20
95.319849
 30
0.0
 10
123.842190
 20
94.850656
 30
0.0
 10
123.842190
 20
94.268575
 30
0.0
  0
SPLINE
  5
1a2
100
AcDbEntity
  8
0
 62
7
100
AcDbSpline
 70
8
 71
3
 72
8
 73
4
 74
0
 40
0
 40
0
 40
0
 40
0
 40
1
 40
1
 40
1
 40
1
 10
123.842190
 20
94.268575
 30
0.0
 10
123.842190
 20
93.686493
 30
0.0
 10
123.372997
 20
93.217301
 30
0.0
 10
122.790916
 20
93.217301
 30
0.0
  0
SPLINE
  5
1a3
100
AcDbEntity
  8
0
 62
7
100
AcDbSpline
 70
8
 71
3
 72
8
 73
4
 74
0
 40
0
 40
0
 40
0
 40
0
 40
1
 40
1
 40
1
 40
1
 10
122.790916
 20
93.217301
 30
0.0
 10
122.208834
 20
93.217301
 30
0.0
 10
121.739642
 20
93.686493
 30
0.0
 10
121.739642
 20
94.268575
 30
0.0
  0
SPLINE
  5
1a4
100
AcDbEntity
  8
0
 62
7
100
AcDbSpline
 70
8
 71
3
 72
8
 73
4
 74
0
 40
0
 40
0
 40
0
 40
0
 40
1
 40
1
 40
1
 40
1
 10
121.739642
 20
94.268575
 30
0.0
 10
121.739642
 20
94.850656
 30
0.0
 10
122.208834
 20
95.319849
 30
0.0
 10
122.790916
 20
95.319849
 30
0.0
  0
LWPOLYLINE
  5
1a5
100
AcDbEntity
  8
0
 62
7
100
AcDbPolyline
 90
5
 70
0
 10
169.791329
 20
91.915555
 30
0.0
 10
188.114540
 20
91.915555
 30
0.0
 10
188.100429
 20
96.886176
 30
0.0
 10
120.885923
 20
96.886176
 30
0.0
 10
120.885923
 20
96.882649
 30
0.0
  0
SPLINE
  5
1a6
100
AcDbEntity
  8
0
 62
7
100
AcDbSpline
 70
8
 71
3
 72
8
 73
4
 74
0
 40
0
 40
0
 40
0
 40
0
 40
1
 40
1
 40
1
 40
1
 10
122.790916
 20
13.789672
 30
0.0
 10
122.212362
 20
13.789672
 30
0.0
 10
121.739642
 20
14.258865
 30
0.0
 10
121.739642
 20
14.840946
 30
0.0
  0
SPLINE
  5
1a7
100
AcDbEntity
  8
0
 62
7
100
AcDbSpline
 70
8
 71
3
 72
8
 73
4
 74
0
 40
0
 40
0
 40
0
 40
0
 40
1
 40
1
 40
1
 40
1
 10
121.739642
 20
14.840946
 30
0.0
 10
121.739642
 20
15.423027
 30
0.0
 10
122.208834
 20
15.892220
 30
0.0
 10
122.790916
 20
15.892220
 30
0.0
  0
SPLINE
  5
1a8
100
AcDbEntity
  8
0
 62
7
100
AcDbSpline
 70
8
 71
3
 72
8
 73
4
 74
0
 40
0
 40
0
 40
0
 40
0
 40
1
 40
1
 40
1
 40
1
 10
122.790916
 20
15.892220
 30
0.0
 10
123.372997
 20
15.892220
 30
0.0
 10
123.842190
 20
15.423027
 30
0.0
 10
123.842190
 20
14.840946
 30
0.0
  0
SPLINE
  5
1a9
100
AcDbEntity
  8
0
 62
7
100
AcDbSpline
 70
8
 71
3
 72
8
 73
4
 74
0
 40
0
 40
0
 40
0
 40
0
 40
1
 40
1
 40
1
 40
1
 10
123.842190
 20
14.840946
 30
0.0
 10
123.842190
 20
14.258865
 30
0.0
 10
123.372997
 20
13.789672
 30
0.0
 10
122.790916
 20
13.789672
 30
0.0
  0
LWPOLYLINE
  5
1aa
100
AcDbEntity
  8
0
 62
7
100
AcDbPolyline
 90
1
 70
1
 10
122.790916
 20
95.319849
 30
0.0
  0
SPLINE
  5
1ab
100
AcDbEntity
  8
0
 62
7
100
AcDbSpline
 70
8
 71
3
 72
8
 73
4
 74
0
 40
0
 40
0
 40
0
 40
0
 40
1
 40
1
 40
1
 40
1
 10
135.145149
 20
23.815580
 30
0.0
 10
128.378895
 20
23.815580
 30
0.0
 10
122.896749
 20
29.301255
 30
0.0
 10
122.896749
 20
36.063980
 30
0.0
  0
SPLINE
  5
1ac
100
AcDbEntity
  8
0
 62
7
100
AcDbSpline
 70
8
 71
3
 72
8
 73
4
 74
0
 40
0
 40
0
 40
0
 40
0
 40
1
 40
1
 40
1
 40
1
 10
122.896749
 20
36.063980
 30
0.0
 10
122.896749
 20
42.826706
 30
0.0
 10
128.382423
 20
48.312380
 30
0.0
 10
135.145149
 20
48.312380
 30
0.0
  0
SPLINE
  5
1ad
100
AcDbEntity
  8
0
 62
7
100
AcDbSpline
 70
8
 71
3
 72
8
 73
4
 74
0
 40
0
 40
0
 40
0
 40
0
 40
1
 40
1
 40
1
 40
1
 10
135.145149
 20
48.312380
 30
0.0
 10
141.907874
 20
48.312380
 30
0.0
 10
147.393549
 20
42.826706
 30
0.0
 10
147.393549
 20
36.063980
 30
0.0
  0
SPLINE
  5
1ae
100
AcDbEntity
  8
0
 62
7
100
AcDbSpline
 70
8
 71
3
 72
8
 73
4
 74
0
 40
0
 40
0
 40
0
 40
0
 40
1
 40
1
 40
1
 40
1
 10
147.393549
 20
36.063980
 30
0.0
 10
147.393549
 20
29.301255
 30
0.0
 10
141.907874
 20
23.815580
 30
0.0
 10
135.145149
 20
23.815580
 30
0.0
  0
LWPOLYLINE
  5
1af
100
AcDbEntity
  8
0
 62
7
100
AcDbPolyline
 90
1
 70
1
 10
122.790916
 20
13.789672
 30
0.0
  0
SPLINE
  5
1b0
100
AcDbEntity
  8
0
 62
7
100
AcDbSpline
 70
8
 71
3
 72
8
 73
4
 74
0
 40
0
 40
0
 40
0
 40
0
 40
1
 40
1
 40
1
 40
1
 10
184.861941
 20
93.189079
 30
0.0
 10
184.283387
 20
93.189079
 30
0.0
 10
183.810667
 20
93.658271
 30
0.0
 10
183.810667
 20
94.240353
 30
0.0
  0
SPLINE
  5
1b1
100
AcDbEntity
  8
0
 62
7
100
AcDbSpline
 70
8
 71
3
 72
8
 73
4
 74
0
 40
0
 40
0
 40
0
 40
0
 40
1
 40
1
 40
1
 40
1
 10
183.810667
 20
94.240353
 30
0.0
 10
183.810667
 20
94.822434
 30
0.0
 10
184.279859
 20
95.291627
 30
0.0
 10
184.861941
 20
95.291627
 30
0.0
  0
SPLINE
  5
1b2
100
AcDbEntity
  8
0
 62
7
100
AcDbSpline
 70
8
 71
3
 72
8
 73
4
 74
0
 40
0
 40
0
 40
0
 40
0
 40
1
 40
1
 40
1
 40
1
 10
184.861941
 20
95.291627
 30
0.0
 10
185.444022
 20
95.291627
 30
0.0
 10
185.913215
 20
94.822434
 30
0.0
 10
185.913215
 20
94.240353
 30
0.0
  0
SPLINE
  5
1b3
100
AcDbEntity
  8
0
 62
7
100
AcDbSpline
 70
8
 71
3
 72
8
 73
4
 74
0
 40
0
 40
0
 40
0
 40
0
 40
1
 40
1
 40
1
 40
1
 10
185.913215
 20
94.240353
 30
0.0
 10
185.913215
 20
93.658271
 30
0.0
 10
185.444022
 20
93.189079
 30
0.0
 10
184.861941
 20
93.189079
 30
0.0
  0
LWPOLYLINE
  5
1b4
100
AcDbEntity
  8
0
 62
7
100
AcDbPolyline
 90
2
 70
1
 10
135.145149
 20
23.815580
 30
0.0
 10
135.145149
 20
23.815580
 30
0.0
  0
LWPOLYLINE
  5
1b5
100
AcDbEntity
  8
0
 62
7
100
AcDbPolyline
 90
1
 70
1
 10
184.861941
 20
93.189079
 30
0.0
  0
SPLINE
  5
1b6
100
AcDbEntity
  8
0
 62
7
100
AcDbSpline
 70
8
 71
3
 72
8
 73
4
 74
0
 40
0
 40
0
 40
0
 40
0
 40
1
 40
1
 40
1
 40
1
 10
152.417086
 20
69.253193
 30
0.0
 10
151.693894
 20
69.302582
 30
0.0
 10
151.566895
 20
68.244252
 30
0.0
 10
152.279503
 20
68.120781
 30
0.0
  0
LWPOLYLINE
  5
1b7
100
AcDbEntity
  8
0
 62
7
100
AcDbPolyline
 90
6
 70
0
 10
188.114540
 20
47.465717
 30
0.0
 10
188.114540
 20
89.770674
 30
0.0
 10
182.523032
 20
89.781258
 30
0.0
 10
180.949649
 20
67.277645
 30
0.0
 10
180.949649
 20
67.277645
 30
0.0
 10
152.417086
 20
69.253193
 30
0.0
  0
SPLINE
  5
1b8
100
AcDbEntity
  8
0
 62
7
100
AcDbSpline
 70
8
 71
3
 72
8
 73
4
 74
0
 40
0
 40
0
 40
0
 40
0
 40
1
 40
1
 40
1
 40
1
 10
168.186195
 20
65.330319
 30
0.0
 10
168.567194
 20
65.263291
 30
0.0
 10
168.821193
 20
64.899931
 30
0.0
 10
168.754166
 20
64.518933
 30
0.0
  0
LWPOLYLINE
  5
1b9
100
AcDbEntity
  8
0
 62
7
100
AcDbPolyline
 90
2
 70
0
 10
152.279503
 20
68.120781
 30
0.0
 10
168.186195
 20
65.330319
 30
0.0
  0
SPLINE
  5
1ba
100
AcDbEntity
  8
0
 62
7
100
AcDbSpline
 70
8
 71
3
 72
8
 73
4
 74
0
 40
0
 40
0
 40
0
 40
0
 40
1
 40
1
 40
1
 40
1
 10
187.416042
 20
46.767219
 30
0.0
 10
187.804097
 20
46.767219
 30
0.0
 10
188.114540
 20
47.081190
 30
0.0
 10
188.114540
 20
47.465717
 30
0.0
  0
LWPOLYLINE
  5
1bb
100
AcDbEntity
  8
0
 62
7
100
AcDbPolyline
 90
3
 70
0
 10
168.754166
 20
64.518933
 30
0.0
 10
165.625038
 20
46.767219
 30
0.0
 10
187.416042
 20
46.767219
 30
0.0
  0
SPLINE
  5
1bc
100
AcDbEntity
  8
0
 62
7
100
AcDbSpline
 70
8
 71
3
 72
8
 73
4
 74
0
 40
0
 40
0
 40
0
 40
0
 40
1
 40
1
 40
1
 40
1
 10
184.463303
 20
85.265718
 30
0.0
 10
184.463303
 20
85.844272
 30
0.0
 10
184.932496
 20
86.316992
 30
0.0
 10
185.514577
 20
86.316992
 30
0.0
  0
SPLINE
  5
1bd
100
AcDbEntity
  8
0
 62
7
100
AcDbSpline
 70
8
 71
3
 72
8
 73
4
 74
0
 40
0
 40
0
 40
0
 40
0
 40
1
 40
1
 40
1
 40
1
 10
185.514577
 20
86.316992
 30
0.0
 10
186.096658
 20
86.316992
 30
0.0
 10
186.565851
 20
85.847800
 30
0.0
 10
186.565851
 20
85.265718
 30
0.0
  0
SPLINE
  5
1be
100
AcDbEntity
  8
0
 62
7
100
AcDbSpline
 70
8
 71
3
 72
8
 73
4
 74
0
 40
0
 40
0
 40
0
 40
0
 40
1
 40
1
 40
1
 40
1
 10
186.565851
 20
85.265718
 30
0.0
 10
186.565851
 20
84.683637
 30
0.0
 10
186.096658
 20
84.214445
 30
0.0
 10
185.514577
 20
84.214445
 30
0.0
  0
SPLINE
  5
1bf
100
AcDbEntity
  8
0
 62
7
100
AcDbSpline
 70
8
 71
3
 72
8
 73
4
 74
0
 40
0
 40
0
 40
0
 40
0
 40
1
 40
1
 40
1
 40
1
 10
185.514577
 20
84.214445
 30
0.0
 10
184.932496
 20
84.214445
 30
0.0
 10
184.463303
 20
84.683637
 30
0.0
 10
184.463303
 20
85.265718
 30
0.0
  0
LWPOLYLINE
  5
1c0
100
AcDbEntity
  8
0
 62
7
100
AcDbPolyline
 90
2
 70
1
 10
188.114540
 20
47.465717
 30
0.0
 10
188.114540
 20
47.465717
 30
0.0
  0
SPLINE
  5
1c1
100
AcDbEntity
  8
0
 62
7
100
AcDbSpline
 70
8
 71
3
 72
8
 73
4
 74
0
 40
0
 40
0
 40
0
 40
0
 40
1
 40
1
 40
1
 40
1
 10
183.454362
 20
70.424411
 30
0.0
 10
183.454362
 20
71.002965
 30
0.0
 10
183.923555
 20
71.475685
 30
0.0
 10
184.505636
 20
71.475685
 30
0.0
  0
SPLINE
  5
1c2
100
AcDbEntity
  8
0
 62
7
100
AcDbSpline
 70
8
 71
3
 72
8
 73
4
 74
0
 40
0
 40
0
 40
0
 40
0
 40
1
 40
1
 40
1
 40
1
 10
184.505636
 20
71.475685
 30
0.0
 10
185.087717
 20
71.475685
 30
0.0
 10
185.556910
 20
71.006492
 30
0.0
 10
185.556910
 20
70.424411
 30
0.0
  0
SPLINE
  5
1c3
100
AcDbEntity
  8
0
 62
7
100
AcDbSpline
 70
8
 71
3
 72
8
 73
4
 74
0
 40
0
 40
0
 40
0
 40
0
 40
1
 40
1
 40
1
 40
1
 10
185.556910
 20
70.424411
 30
0.0
 10
185.556910
 20
69.842330
 30
0.0
 10
185.087717
 20
69.373137
 30
0.0
 10
184.505636
 20
69.373137
 30
0.0
  0
SPLINE
  5
1c4
100
AcDbEntity
  8
0
 62
7
100
AcDbSpline
 70
8
 71
3
 72
8
 73
4
 74
0
 40
0
 40
0
 40
0
 40
0
 40
1
 40
1
 40
1
 40
1
 10
184.505636
 20
69.373137
 30
0.0
 10
183.923555
 20
69.373137
 30
0.0
 10
183.454362
 20
69.842330
 30
0.0
 10
183.454362
 20
70.424411
 30
0.0
  0
LWPOLYLINE
  5
1c5
100
AcDbEntity
  8
0
 62
7
100
AcDbPolyline
 90
1
 70
1
 10
184.463303
 20
85.265718
 30
0.0
  0
SPLINE
  5
1c6
100
AcDbEntity
  8
0
 62
7
100
AcDbSpline
 70
8
 71
3
 72
8
 73
4
 74
0
 40
0
 40
0
 40
0
 40
0
 40
1
 40
1
 40
1
 40
1
 10
51.187870
 20
71.673240
 30
0.0
 10
51.187870
 20
63.527631
 30
0.0
 10
57.791846
 20
56.923655
 30
0.0
 10
65.937455
 20
56.923655
 30
0.0
  0
SPLINE
  5
1c7
100
AcDbEntity
  8
0
 62
7
100
AcDbSpline
 70
8
 71
3
 72
8
 73
4
 74
0
 40
0
 40
0
 40
0
 40
0
 40
1
 40
1
 40
1
 40
1
 10
65.937455
 20
56.923655
 30
0.0
 10
74.083065
 20
56.923655
 30
0.0
 10
80.687041
 20
63.527631
 30
0.0
 10
80.687041
 20
71.673240
 30
0.0
  0
SPLINE
  5
1c8
100
AcDbEntity
  8
0
 62
7
100
AcDbSpline
 70
8
 71
3
 72
8
 73
4
 74
0
 40
0
 40
0
 40
0
 40
0
 40
1
 40
1
 40
1
 40
1
 10
80.687041
 20
71.673240
 30
0.0
 10
80.687041
 20
79.818849
 30
0.0
 10
74.083065
 20
86.422825
 30
0.0
 10
65.937455
 20
86.422825
 30
0.0
  0
SPLINE
  5
1c9
100
AcDbEntity
  8
0
 62
7
100
AcDbSpline
 70
8
 71
3
 72
8
 73
4
 74
0
 40
0
 40
0
 40
0
 40
0
 40
1
 40
1
 40
1
 40
1
 10
65.937455
 20
86.422825
 30
0.0
 10
57.791846
 20
86.422825
 30
0.0
 10
51.187870
 20
79.818849
 30
0.0
 10
51.187870
 20
71.673240
 30
0.0
  0
LWPOLYLINE
  5
1ca
100
AcDbEntity
  8
0
 62
7
100
AcDbPolyline
 90
1
 70
1
 10
183.454362
 20
70.424411
 30
0.0
  0
SPLINE
  5
1cb
100
AcDbEntity
  8
0
 62
7
100
AcDbSpline
 70
8
 71
3
 72
8
 73
4
 74
0
 40
0
 40
0
 40
0
 40
0
 40
1
 40
1
 40
1
 40
1
 10
53.689055
 20
71.673240
 30
0.0
 10
53.689055
 20
78.435965
 30
0.0
 10
59.174730
 20
83.921640
 30
0.0
 10
65.937455
 20
83.921640
 30
0.0
  0
SPLINE
  5
1cc
100
AcDbEntity
  8
0
 62
7
100
AcDbSpline
 70
8
 71
3
 72
8
 73
4
 74
0
 40
0
 40
0
 40
0
 40
0
 40
1
 40
1
 40
1
 40
1
 10
65.937455
 20
83.921640
 30
0.0
 10
72.700181
 20
83.921640
 30
0.0
 10
78.185855
 20
78.435965
 30
0.0
 10
78.185855
 20
71.673240
 30
0.0
  0
SPLINE
  5
1cd
100
AcDbEntity
  8
0
 62
7
100
AcDbSpline
 70
8
 71
3
 72
8
 73
4
 74
0
 40
0
 40
0
 40
0
 40
0
 40
1
 40
1
 40
1
 40
1
 10
78.185855
 20
71.673240
 30
0.0
 10
78.185855
 20
64.910515
 30
0.0
 10
72.703708
 20
59.424840
 30
0.0
 10
65.937455
 20
59.424840
 30
0.0
  0
SPLINE
  5
1ce
100
AcDbEntity
  8
0
 62
7
100
AcDbSpline
 70
8
 71
3
 72
8
 73
4
 74
0
 40
0
 40
0
 40
0
 40
0
 40
1
 40
1
 40
1
 40
1
 10
65.937455
 20
59.424840
 30
0.0
 10
59.171202
 20
59.424840
 30
0.0
 10
53.689055
 20
64.910515
 30
0.0
 10
53.689055
 20
71.673240
 30
0.0
  0
LWPOLYLINE
  5
1cf
100
AcDbEntity
  8
0
 62
7
100
AcDbPolyline
 90
2
 70
1
 10
51.187870
 20
71.673240
 30
0.0
 10
51.187870
 20
71.673240
 30
0.0
  0
SPLINE
  5
1d0
100
AcDbEntity
  8
0
 62
7
100
AcDbSpline
 70
8
 71
3
 72
8
 73
4
 74
0
 40
0
 40
0
 40
0
 40
0
 40
1
 40
1
 40
1
 40
1
 10
34.095849
 20
68.589973
 30
0.0
 10
33.711322
 20
68.561751
 30
0.0
 10
33.376184
 20
68.854556
 30
0.0
 10
33.347962
 20
69.239082
 30
0.0
  0
LWPOLYLINE
  5
1d1
100
AcDbEntity
  8
0
 62
7
100
AcDbPolyline
 90
2
 70
1
 10
53.689055
 20
71.673240
 30
0.0
 10
53.689055
 20
71.673240
 30
0.0
  0
SPLINE
  5
1d2
100
AcDbEntity
  8
0
 62
7
100
AcDbSpline
 70
8
 71
3
 72
8
 73
4
 74
0
 40
0
 40
0
 40
0
 40
0
 40
1
 40
1
 40
1
 40
1
 10
32.317855
 20
55.008078
 30
0.0
 10
32.705909
 20
55.008078
 30
0.0
 10
33.019880
 20
54.694107
 30
0.0
 10
33.019880
 20
54.306053
 30
0.0
  0
LWPOLYLINE
  5
1d3
100
AcDbEntity
  8
0
 62
7
100
AcDbPolyline
 90
6
 70
0
 10
33.347962
 20
69.239082
 30
0.0
 10
32.074439
 20
87.435294
 30
0.0
 10
24.757855
 20
86.105327
 30
0.0
 10
25.816184
 20
71.013548
 30
0.0
 10
25.816184
 20
55.032773
 30
0.0
 10
32.317855
 20
55.008078
 30
0.0
  0
SPLINE
  5
1d4
100
AcDbEntity
  8
0
 62
7
100
AcDbSpline
 70
8
 71
3
 72
8
 73
4
 74
0
 40
0
 40
0
 40
0
 40
0
 40
1
 40
1
 40
1
 40
1
 10
30.934971
 20
58.126622
 30
0.0
 10
31.213665
 20
58.126622
 30
0.0
 10
31.435914
 20
57.904373
 30
0.0
 10
31.435914
 20
57.625680
 30
0.0
  0
SPLINE
  5
1d5
100
AcDbEntity
  8
0
 62
7
100
AcDbSpline
 70
8
 71
3
 72
8
 73
4
 74
0
 40
0
 40
0
 40
0
 40
0
 40
1
 40
1
 40
1
 40
1
 10
31.435914
 20
57.625680
 30
0.0
 10
31.435914
 20
57.346986
 30
0.0
 10
31.213665
 20
57.124737
 30
0.0
 10
30.934971
 20
57.124737
 30
0.0
  0
SPLINE
  5
1d6
100
AcDbEntity
  8
0
 62
7
100
AcDbSpline
 70
8
 71
3
 72
8
 73
4
 74
0
 40
0
 40
0
 40
0
 40
0
 40
1
 40
1
 40
1
 40
1
 10
30.934971
 20
57.124737
 30
0.0
 10
30.656278
 20
57.124737
 30
0.0
 10
30.434028
 20
57.350514
 30
0.0
 10
30.434028
 20
57.625680
 30
0.0
  0
SPLINE
  5
1d7
100
AcDbEntity
  8
0
 62
7
100
AcDbSpline
 70
8
 71
3
 72
8
 73
4
 74
0
 40
0
 40
0
 40
0
 40
0
 40
1
 40
1
 40
1
 40
1
 10
30.434028
 20
57.625680
 30
0.0
 10
30.434028
 20
57.900846
 30
0.0
 10
30.656278
 20
58.126622
 30
0.0
 10
30.934971
 20
58.126622
 30
0.0
  0
LWPOLYLINE
  5
1d8
100
AcDbEntity
  8
0
 62
7
100
AcDbPolyline
 90
7
 70
0
 10
33.019880
 20
54.306053
 30
0.0
 10
33.019880
 20
52.055339
 30
0.0
 10
42.968177
 20
52.055339
 30
0.0
 10
42.968177
 20
69.210860
 30
0.0
 10
34.092321
 20
68.589973
 30
0.0
 10
34.092321
 20
68.589973
 30
0.0
 10
34.095849
 20
68.589973
 30
0.0
  0
SPLINE
  5
1d9
100
AcDbEntity
  8
0
 62
7
100
AcDbSpline
 70
8
 71
3
 72
8
 73
4
 74
0
 40
0
 40
0
 40
0
 40
0
 40
1
 40
1
 40
1
 40
1
 10
32.935214
 20
58.126622
 30
0.0
 10
33.213907
 20
58.126622
 30
0.0
 10
33.436156
 20
57.904373
 30
0.0
 10
33.436156
 20
57.625680
 30
0.0
  0
SPLINE
  5
1da
100
AcDbEntity
  8
0
 62
7
100
AcDbSpline
 70
8
 71
3
 72
8
 73
4
 74
0
 40
0
 40
0
 40
0
 40
0
 40
1
 40
1
 40
1
 40
1
 10
33.436156
 20
57.625680
 30
0.0
 10
33.436156
 20
57.346986
 30
0.0
 10
33.213907
 20
57.124737
 30
0.0
 10
32.935214
 20
57.124737
 30
0.0
  0
SPLINE
  5
1db
100
AcDbEntity
  8
0
 62
7
100
AcDbSpline
 70
8
 71
3
 72
8
 73
4
 74
0
 40
0
 40
0
 40
0
 40
0
 40
1
 40
1
 40
1
 40
1
 10
32.935214
 20
57.124737
 30
0.0
 10
32.656520
 20
57.124737
 30
0.0
 10
32.434271
 20
57.350514
 30
0.0
 10
32.434271
 20
57.625680
 30
0.0
  0
SPLINE
  5
1dc
100
AcDbEntity
  8
0
 62
7
100
AcDbSpline
 70
8
 71
3
 72
8
 73
4
 74
0
 40
0
 40
0
 40
0
 40
0
 40
1
 40
1
 40
1
 40
1
 10
32.434271
 20
57.625680
 30
0.0
 10
32.434271
 20
57.900846
 30
0.0
 10
32.656520
 20
58.126622
 30
0.0
 10
32.935214
 20
58.126622
 30
0.0
  0
LWPOLYLINE
  5
1dd
100
AcDbEntity
  8
0
 62
7
100
AcDbPolyline
 90
1
 70
1
 10
30.934971
 20
58.126622
 30
0.0
  0
SPLINE
  5
1de
100
AcDbEntity
  8
0
 62
7
100
AcDbSpline
 70
8
 71
3
 72
8
 73
4
 74
0
 40
0
 40
0
 40
0
 40
0
 40
1
 40
1
 40
1
 40
1
 10
34.935457
 20
58.126622
 30
0.0
 10
35.214150
 20
58.126622
 30
0.0
 10
35.436399
 20
57.904373
 30
0.0
 10
35.436399
 20
57.625680
 30
0.0
  0
SPLINE
  5
1df
100
AcDbEntity
  8
0
 62
7
100
AcDbSpline
 70
8
 71
3
 72
8
 73
4
 74
0
 40
0
 40
0
 40
0
 40
0
 40
1
 40
1
 40
1
 40
1
 10
35.436399
 20
57.625680
 30
0.0
 10
35.436399
 20
57.346986
 30
0.0
 10
35.214150
 20
57.124737
 30
0.0
 10
34.935457
 20
57.124737
 30
0.0
  0
SPLINE
  5
1e0
100
AcDbEntity
  8
0
 62
7
100
AcDbSpline
 70
8
 71
3
 72
8
 73
4
 74
0
 40
0
 40
0
 40
0
 40
0
 40
1
 40
1
 40
1
 40
1
 10
34.935457
 20
57.124737
 30
0.0
 10
34.656763
 20
57.124737
 30
0.0
 10
34.434514
 20
57.350514
 30
0.0
 10
34.434514
 20
57.625680
 30
0.0
  0
SPLINE
  5
1e1
100
AcDbEntity
  8
0
 62
7
100
AcDbSpline
 70
8
 71
3
 72
8
 73
4
 74
0
 40
0
 40
0
 40
0
 40
0
 40
1
 40
1
 40
1
 40
1
 10
34.434514
 20
57.625680
 30
0.0
 10
34.434514
 20
57.900846
 30
0.0
 10
34.656763
 20
58.126622
 30
0.0
 10
34.935457
 20
58.126622
 30
0.0
  0
LWPOLYLINE
  5
1e2
100
AcDbEntity
  8
0
 62
7
100
AcDbPolyline
 90
1
 70
1
 10
32.935214
 20
58.126622
 30
0.0
  0
SPLINE
  5
1e3
100
AcDbEntity
  8
0
 62
7
100
AcDbSpline
 70
8
 71
3
 72
8
 73
4
 74
0
 40
0
 40
0
 40
0
 40
0
 40
1
 40
1
 40
1
 40
1
 10
36.935699
 20
58.126622
 30
0.0
 10
37.214393
 20
58.126622
 30
0.0
 10
37.436642
 20
57.904373
 30
0.0
 10
37.436642
 20
57.625680
 30
0.0
  0
SPLINE
  5
1e4
100
AcDbEntity
  8
0
 62
7
100
AcDbSpline
 70
8
 71
3
 72
8
 73
4
 74
0
 40
0
 40
0
 40
0
 40
0
 40
1
 40
1
 40
1
 40
1
 10
37.436642
 20
57.625680
 30
0.0
 10
37.436642
 20
57.346986
 30
0.0
 10
37.214393
 20
57.124737
 30
0.0
 10
36.935699
 20
57.124737
 30
0.0
  0
SPLINE
  5
1e5
100
AcDbEntity
  8
0
 62
7
100
AcDbSpline
 70
8
 71
3
 72
8
 73
4
 74
0
 40
0
 40
0
 40
0
 40
0
 40
1
 40
1
 40
1
 40
1
 10
36.935699
 20
57.124737
 30
0.0
 10
36.657006
 20
57.124737
 30
0.0
 10
36.434757
 20
57.350514
 30
0.0
 10
36.434757
 20
57.625680
 30
0.0
  0
SPLINE
  5
1e6
100
AcDbEntity
  8
0
 62
7
100
AcDbSpline
 70
8
 71
3
 72
8
 73
4
 74
0
 40
0
 40
0
 40
0
 40
0
 40
1
 40
1
 40
1
 40
1
 10
36.434757
 20
57.625680
 30
0.0
 10
36.434757
 20
57.900846
 30
0.0
 10
36.657006
 20
58.126622
 30
0.0
 10
36.935699
 20
58.126622
 30
0.0
  0
LWPOLYLINE
  5
1e7
100
AcDbEntity
  8
0
 62
7
100
AcDbPolyline
 90
1
 70
1
 10
34.935457
 20
58.126622
 30
0.0
  0
SPLINE
  5
1e8
100
AcDbEntity
  8
0
 62
7
100
AcDbSpline
 70
8
 71
3
 72
8
 73
4
 74
0
 40
0
 40
0
 40
0
 40
0
 40
1
 40
1
 40
1
 40
1
 10
38.935942
 20
58.126622
 30
0.0
 10
39.214636
 20
58.126622
 30
0.0
 10
39.436885
 20
57.904373
 30
0.0
 10
39.436885
 20
57.625680
 30
0.0
  0
SPLINE
  5
1e9
100
AcDbEntity
  8
0
 62
7
100
AcDbSpline
 70
8
 71
3
 72
8
 73
4
 74
0
 40
0
 40
0
 40
0
 40
0
 40
1
 40
1
 40
1
 40
1
 10
39.436885
 20
57.625680
 30
0.0
 10
39.436885
 20
57.346986
 30
0.0
 10
39.214636
 20
57.124737
 30
0.0
 10
38.935942
 20
57.124737
 30
0.0
  0
SPLINE
  5
1ea
100
AcDbEntity
  8
0
 62
7
100
AcDbSpline
 70
8
 71
3
 72
8
 73
4
 74
0
 40
0
 40
0
 40
0
 40
0
 40
1
 40
1
 40
1
 40
1
 10
38.935942
 20
57.124737
 30
0.0
 10
38.657249
 20
57.124737
 30
0.0
 10
38.434999
 20
57.350514
 30
0.0
 10
38.434999
 20
57.625680
 30
0.0
  0
SPLINE
  5
1eb
100
AcDbEntity
  8
0
 62
7
100
AcDbSpline
 70
8
 71
3
 72
8
 73
4
 74
0
 40
0
 40
0
 40
0
 40
0
 40
1
 40
1
 40
1
 40
1
 10
38.434999
 20
57.625680
 30
0.0
 10
38.434999
 20
57.900846
 30
0.0
 10
38.657249
 20
58.126622
 30
0.0
 10
38.935942
 20
58.126622
 30
0.0
  0
LWPOLYLINE
  5
1ec
100
AcDbEntity
  8
0
 62
7
100
AcDbPolyline
 90
1
 70
1
 10
36.935699
 20
58.126622
 30
0.0
  0
SPLINE
  5
1ed
100
AcDbEntity
  8
0
 62
7
100
AcDbSpline
 70
8
 71
3
 72
8
 73
4
 74
0
 40
0
 40
0
 40
0
 40
0
 40
1
 40
1
 40
1
 40
1
 10
30.934971
 20
60.126865
 30
0.0
 10
31.213665
 20
60.126865
 30
0.0
 10
31.435914
 20
59.904616
 30
0.0
 10
31.435914
 20
59.625923
 30
0.0
  0
SPLINE
  5
1ee
100
AcDbEntity
  8
0
 62
7
100
AcDbSpline
 70
8
 71
3
 72
8
 73
4
 74
0
 40
0
 40
0
 40
0
 40
0
 40
1
 40
1
 40
1
 40
1
 10
31.435914
 20
59.625923
 30
0.0
 10
31.435914
 20
59.347229
 30
0.0
 10
31.213665
 20
59.124980
 30
0.0
 10
30.934971
 20
59.124980
 30
0.0
  0
SPLINE
  5
1ef
100
AcDbEntity
  8
0
 62
7
100
AcDbSpline
 70
8
 71
3
 72
8
 73
4
 74
0
 40
0
 40
0
 40
0
 40
0
 40
1
 40
1
 40
1
 40
1
 10
30.934971
 20
59.124980
 30
0.0
 10
30.656278
 20
59.124980
 30
0.0
 10
30.434028
 20
59.350757
 30
0.0
 10
30.434028
 20
59.625923
 30
0.0
  0
SPLINE
  5
1f0
100
AcDbEntity
  8
0
 62
7
100
AcDbSpline
 70
8
 71
3
 72
8
 73
4
 74
0
 40
0
 40
0
 40
0
 40
0
 40
1
 40
1
 40
1
 40
1
 10
30.434028
 20
59.625923
 30
0.0
 10
30.434028
 20
59.901088
 30
0.0
 10
30.656278
 20
60.126865
 30
0.0
 10
30.934971
 20
60.126865
 30
0.0
  0
LWPOLYLINE
  5
1f1
100
AcDbEntity
  8
0
 62
7
100
AcDbPolyline
 90
1
 70
1
 10
38.935942
 20
58.126622
 30
0.0
  0
SPLINE
  5
1f2
100
AcDbEntity
  8
0
 62
7
100
AcDbSpline
 70
8
 71
3
 72
8
 73
4
 74
0
 40
0
 40
0
 40
0
 40
0
 40
1
 40
1
 40
1
 40
1
 10
32.935214
 20
60.126865
 30
0.0
 10
33.213907
 20
60.126865
 30
0.0
 10
33.436156
 20
59.904616
 30
0.0
 10
33.436156
 20
59.625923
 30
0.0
  0
SPLINE
  5
1f3
100
AcDbEntity
  8
0
 62
7
100
AcDbSpline
 70
8
 71
3
 72
8
 73
4
 74
0
 40
0
 40
0
 40
0
 40
0
 40
1
 40
1
 40
1
 40
1
 10
33.436156
 20
59.625923
 30
0.0
 10
33.436156
 20
59.347229
 30
0.0
 10
33.213907
 20
59.124980
 30
0.0
 10
32.935214
 20
59.124980
 30
0.0
  0
SPLINE
  5
1f4
100
AcDbEntity
  8
0
 62
7
100
AcDbSpline
 70
8
 71
3
 72
8
 73
4
 74
0
 40
0
 40
0
 40
0
 40
0
 40
1
 40
1
 40
1
 40
1
 10
32.935214
 20
59.124980
 30
0.0
 10
32.656520
 20
59.124980
 30
0.0
 10
32.434271
 20
59.350757
 30
0.0
 10
32.434271
 20
59.625923
 30
0.0
  0
SPLINE
  5
1f5
100
AcDbEntity
  8
0
 62
7
100
AcDbSpline
 70
8
 71
3
 72
8
 73
4
 74
0
 40
0
 40
0
 40
0
 40
0
 40
1
 40
1
 40
1
 40
1
 10
32.434271
 20
59.625923
 30
0.0
 10
32.434271
 20
59.901088
 30
0.0
 10
32.656520
 20
60.126865
 30
0.0
 10
32.935214
 20
60.126865
 30
0.0
  0
LWPOLYLINE
  5
1f6
100
AcDbEntity
  8
0
 62
7
100
AcDbPolyline
 90
1
 70
1
 10
30.934971
 20
60.126865
 30
0.0
  0
SPLINE
  5
1f7
100
AcDbEntity
  8
0
 62
7
100
AcDbSpline
 70
8
 71
3
 72
8
 73
4
 74
0
 40
0
 40
0
 40
0
 40
0
 40
1
 40
1
 40
1
 40
1
 10
34.935457
 20
60.126865
 30
0.0
 10
35.214150
 20
60.126865
 30
0.0
 10
35.436399
 20
59.904616
 30
0.0
 10
35.436399
 20
59.625923
 30
0.0
  0
SPLINE
  5
1f8
100
AcDbEntity
  8
0
 62
7
100
AcDbSpline
 70
8
 71
3
 72
8
 73
4
 74
0
 40
0
 40
0
 40
0
 40
0
 40
1
 40
1
 40
1
 40
1
 10
35.436399
 20
59.625923
 30
0.0
 10
35.436399
 20
59.347229
 30
0.0
 10
35.214150
 20
59.124980
 30
0.0
 10
34.935457
 20
59.124980
 30
0.0
  0
SPLINE
  5
1f9
100
AcDbEntity
  8
0
 62
7
100
AcDbSpline
 70
8
 71
3
 72
8
 73
4
 74
0
 40
0
 40
0
 40
0
 40
0
 40
1
 40
1
 40
1
 40
1
 10
34.935457
 20
59.124980
 30
0.0
 10
34.656763
 20
59.124980
 30
0.0
 10
34.434514
 20
59.350757
 30
0.0
 10
34.434514
 20
59.625923
 30
0.0
  0
SPLINE
  5
1fa
100
AcDbEntity
  8
0
 62
7
100
AcDbSpline
 70
8
 71
3
 72
8
 73
4
 74
0
 40
0
 40
0
 40
0
 40
0
 40
1
 40
1
 40
1
 40
1
 10
34.434514
 20
59.625923
 30
0.0
 10
34.434514
 20
59.901088
 30
0.0
 10
34.656763
 20
60.126865
 30
0.0
 10
34.935457
 20
60.126865
 30
0.0
  0
LWPOLYLINE
  5
1fb
100
AcDbEntity
  8
0
 62
7
100
AcDbPolyline
 90
1
 70
1
 10
32.935214
 20
60.126865
 30
0.0
  0
SPLINE
  5
1fc
100
AcDbEntity
  8
0
 62
7
100
AcDbSpline
 70
8
 71
3
 72
8
 73
4
 74
0
 40
0
 40
0
 40
0
 40
0
 40
1
 40
1
 40
1
 40
1
 10
36.935699
 20
60.126865
 30
0.0
 10
37.214393
 20
60.126865
 30
0.0
 10
37.436642
 20
59.904616
 30
0.0
 10
37.436642
 20
59.625923
 30
0.0
  0
SPLINE
  5
1fd
100
AcDbEntity
  8
0
 62
7
100
AcDbSpline
 70
8
 71
3
 72
8
 73
4
 74
0
 40
0
 40
0
 40
0
 40
0
 40
1
 40
1
 40
1
 40
1
 10
37.436642
 20
59.625923
 30
0.0
 10
37.436642
 20
59.347229
 30
0.0
 10
37.214393
 20
59.124980
 30
0.0
 10
36.935699
 20
59.124980
 30
0.0
  0
SPLINE
  5
1fe
100
AcDbEntity
  8
0
 62
7
100
AcDbSpline
 70
8
 71
3
 72
8
 73
4
 74
0
 40
0
 40
0
 40
0
 40
0
 40
1
 40
1
 40
1
 40
1
 10
36.935699
 20
59.124980
 30
0.0
 10
36.657006
 20
59.124980
 30
0.0
 10
36.434757
 20
59.350757
 30
0.0
 10
36.434757
 20
59.625923
 30
0.0
  0
SPLINE
  5
1ff
100
AcDbEntity
  8
0
 62
7
100
AcDbSpline
 70
8
 71
3
 72
8
 73
4
 74
0
 40
0
 40
0
 40
0
 40
0
 40
1
 40
1
 40
1
 40
1
 10
36.434757
 20
59.625923
 30
0.0
 10
36.434757
 20
59.901088
 30
0.0
 10
36.657006
 20
60.126865
 30
0.0
 10
36.935699
 20
60.126865
 30
0.0
  0
LWPOLYLINE
  5
200
100
AcDbEntity
  8
0
 62
7
100
AcDbPolyline
 90
1
 70
1
 10
34.935457
 20
60.126865
 30
0.0
  0
SPLINE
  5
201
100
AcDbEntity
  8
0
 62
7
100
AcDbSpline
 70
8
 71
3
 72
8
 73
4
 74
0
 40
0
 40
0
 40
0
 40
0
 40
1
 40
1
 40
1
 40
1
 10
38.935942
 20
60.126865
 30
0.0
 10
39.214636
 20
60.126865
 30
0.0
 10
39.436885
 20
59.904616
 30
0.0
 10
39.436885
 20
59.625923
 30
0.0
  0
SPLINE
  5
202
100
AcDbEntity
  8
0
 62
7
100
AcDbSpline
 70
8
 71
3
 72
8
 73
4
 74
0
 40
0
 40
0
 40
0
 40
0
 40
1
 40
1
 40
1
 40
1
 10
39.436885
 20
59.625923
 30
0.0
 10
39.436885
 20
59.347229
 30
0.0
 10
39.214636
 20
59.124980
 30
0.0
 10
38.935942
 20
59.124980
 30
0.0
  0
SPLINE
  5
203
100
AcDbEntity
  8
0
 62
7
100
AcDbSpline
 70
8
 71
3
 72
8
 73
4
 74
0
 40
0
 40
0
 40
0
 40
0
 40
1
 40
1
 40
1
 40
1
 10
38.935942
 20
59.124980
 30
0.0
 10
38.657249
 20
59.124980
 30
0.0
 10
38.434999
 20
59.350757
 30
0.0
 10
38.434999
 20
59.625923
 30
0.0
  0
SPLINE
  5
204
100
AcDbEntity
  8
0
 62
7
100
AcDbSpline
 70
8
 71
3
 72
8
 73
4
 74
0
 40
0
 40
0
 40
0
 40
0
 40
1
 40
1
 40
1
 40
1
 10
38.434999
 20
59.625923
 30
0.0
 10
38.434999
 20
59.901088
 30
0.0
 10
38.657249
 20
60.126865
 30
0.0
 10
38.935942
 20
60.126865
 30
0.0
  0
LWPOLYLINE
  5
205
100
AcDbEntity
  8
0
 62
7
100
AcDbPolyline
 90
1
 70
1
 10
36.935699
 20
60.126865
 30
0.0
  0
SPLINE
  5
206
100
AcDbEntity
  8
0
 62
7
100
AcDbSpline
 70
8
 71
3
 72
8
 73
4
 74
0
 40
0
 40
0
 40
0
 40
0
 40
1
 40
1
 40
1
 40
1
 10
30.934971
 20
62.127108
 30
0.0
 10
31.213665
 20
62.127108
 30
0.0
 10
31.435914
 20
61.904859
 30
0.0
 10
31.435914
 20
61.626165
 30
0.0
  0
SPLINE
  5
207
100
AcDbEntity
  8
0
 62
7
100
AcDbSpline
 70
8
 71
3
 72
8
 73
4
 74
0
 40
0
 40
0
 40
0
 40
0
 40
1
 40
1
 40
1
 40
1
 10
31.435914
 20
61.626165
 30
0.0
 10
31.435914
 20
61.347472
 30
0.0
 10
31.213665
 20
61.125223
 30
0.0
 10
30.934971
 20
61.125223
 30
0.0
  0
SPLINE
  5
208
100
AcDbEntity
  8
0
 62
7
100
AcDbSpline
 70
8
 71
3
 72
8
 73
4
 74
0
 40
0
 40
0
 40
0
 40
0
 40
1
 40
1
 40
1
 40
1
 10
30.934971
 20
61.125223
 30
0.0
 10
30.656278
 20
61.125223
 30
0.0
 10
30.434028
 20
61.351000
 30
0.0
 10
30.434028
 20
61.626165
 30
0.0
  0
SPLINE
  5
209
100
AcDbEntity
  8
0
 62
7
100
AcDbSpline
 70
8
 71
3
 72
8
 73
4
 74
0
 40
0
 40
0
 40
0
 40
0
 40
1
 40
1
 40
1
 40
1
 10
30.434028
 20
61.626165
 30
0.0
 10
30.434028
 20
61.901331
 30
0.0
 10
30.656278
 20
62.127108
 30
0.0
 10
30.934971
 20
62.127108
 30
0.0
  0
LWPOLYLINE
  5
20a
100
AcDbEntity
  8
0
 62
7
100
AcDbPolyline
 90
1
 70
1
 10
38.935942
 20
60.126865
 30
0.0
  0
SPLINE
  5
20b
100
AcDbEntity
  8
0
 62
7
100
AcDbSpline
 70
8
 71
3
 72
8
 73
4
 74
0
 40
0
 40
0
 40
0
 40
0
 40
1
 40
1
 40
1
 40
1
 10
32.935214
 20
62.127108
 30
0.0
 10
33.213907
 20
62.127108
 30
0.0
 10
33.436156
 20
61.904859
 30
0.0
 10
33.436156
 20
61.626165
 30
0.0
  0
SPLINE
  5
20c
100
AcDbEntity
  8
0
 62
7
100
AcDbSpline
 70
8
 71
3
 72
8
 73
4
 74
0
 40
0
 40
0
 40
0
 40
0
 40
1
 40
1
 40
1
 40
1
 10
33.436156
 20
61.626165
 30
0.0
 10
33.436156
 20
61.347472
 30
0.0
 10
33.213907
 20
61.125223
 30
0.0
 10
32.935214
 20
61.125223
 30
0.0
  0
SPLINE
  5
20d
100
AcDbEntity
  8
0
 62
7
100
AcDbSpline
 70
8
 71
3
 72
8
 73
4
 74
0
 40
0
 40
0
 40
0
 40
0
 40
1
 40
1
 40
1
 40
1
 10
32.935214
 20
61.125223
 30
0.0
 10
32.656520
 20
61.125223
 30
0.0
 10
32.434271
 20
61.351000
 30
0.0
 10
32.434271
 20
61.626165
 30
0.0
  0
SPLINE
  5
20e
100
AcDbEntity
  8
0
 62
7
100
AcDbSpline
 70
8
 71
3
 72
8
 73
4
 74
0
 40
0
 40
0
 40
0
 40
0
 40
1
 40
1
 40
1
 40
1
 10
32.434271
 20
61.626165
 30
0.0
 10
32.434271
 20
61.901331
 30
0.0
 10
32.656520
 20
62.127108
 30
0.0
 10
32.935214
 20
62.127108
 30
0.0
  0
LWPOLYLINE
  5
20f
100
AcDbEntity
  8
0
 62
7
100
AcDbPolyline
 90
1
 70
1
 10
30.934971
 20
62.127108
 30
0.0
  0
SPLINE
  5
210
100
AcDbEntity
  8
0
 62
7
100
AcDbSpline
 70
8
 71
3
 72
8
 73
4
 74
0
 40
0
 40
0
 40
0
 40
0
 40
1
 40
1
 40
1
 40
1
 10
34.935457
 20
62.127108
 30
0.0
 10
35.214150
 20
62.127108
 30
0.0
 10
35.436399
 20
61.904859
 30
0.0
 10
35.436399
 20
61.626165
 30
0.0
  0
SPLINE
  5
211
100
AcDbEntity
  8
0
 62
7
100
AcDbSpline
 70
8
 71
3
 72
8
 73
4
 74
0
 40
0
 40
0
 40
0
 40
0
 40
1
 40
1
 40
1
 40
1
 10
35.436399
 20
61.626165
 30
0.0
 10
35.436399
 20
61.347472
 30
0.0
 10
35.214150
 20
61.125223
 30
0.0
 10
34.935457
 20
61.125223
 30
0.0
  0
SPLINE
  5
212
100
AcDbEntity
  8
0
 62
7
100
AcDbSpline
 70
8
 71
3
 72
8
 73
4
 74
0
 40
0
 40
0
 40
0
 40
0
 40
1
 40
1
 40
1
 40
1
 10
34.935457
 20
61.125223
 30
0.0
 10
34.656763
 20
61.125223
 30
0.0
 10
34.434514
 20
61.351000
 30
0.0
 10
34.434514
 20
61.626165
 30
0.0
  0
SPLINE
  5
213
100
AcDbEntity
  8
0
 62
7
100
AcDbSpline
 70
8
 71
3
 72
8
 73
4
 74
0
 40
0
 40
0
 40
0
 40
0
 40
1
 40
1
 40
1
 40
1
 10
34.434514
 20
61.626165
 30
0.0
 10
34.434514
 20
61.901331
 30
0.0
 10
34.656763
 20
62.127108
 30
0.0
 10
34.935457
 20
62.127108
 30
0.0
  0
LWPOLYLINE
  5
214
100
AcDbEntity
  8
0
 62
7
100
AcDbPolyline
 90
1
 70
1
 10
32.935214
 20
62.127108
 30
0.0
  0
SPLINE
  5
215
100
AcDbEntity
  8
0
 62
7
100
AcDbSpline
 70
8
 71
3
 72
8
 73
4
 74
0
 40
0
 40
0
 40
0
 40
0
 40
1
 40
1
 40
1
 40
1
 10
36.935699
 20
62.127108
 30
0.0
 10
37.214393
 20
62.127108
 30
0.0
 10
37.436642
 20
61.904859
 30
0.0
 10
37.436642
 20
61.626165
 30
0.0
  0
SPLINE
  5
216
100
AcDbEntity
  8
0
 62
7
100
AcDbSpline
 70
8
 71
3
 72
8
 73
4
 74
0
 40
0
 40
0
 40
0
 40
0
 40
1
 40
1
 40
1
 40
1
 10
37.436642
 20
61.626165
 30
0.0
 10
37.436642
 20
61.347472
 30
0.0
 10
37.214393
 20
61.125223
 30
0.0
 10
36.935699
 20
61.125223
 30
0.0
  0
SPLINE
  5
217
100
AcDbEntity
  8
0
 62
7
100
AcDbSpline
 70
8
 71
3
 72
8
 73
4
 74
0
 40
0
 40
0
 40
0
 40
0
 40
1
 40
1
 40
1
 40
1
 10
36.935699
 20
61.125223
 30
0.0
 10
36.657006
 20
61.125223
 30
0.0
 10
36.434757
 20
61.351000
 30
0.0
 10
36.434757
 20
61.626165
 30
0.0
  0
SPLINE
  5
218
100
AcDbEntity
  8
0
 62
7
100
AcDbSpline
 70
8
 71
3
 72
8
 73
4
 74
0
 40
0
 40
0
 40
0
 40
0
 40
1
 40
1
 40
1
 40
1
 10
36.434757
 20
61.626165
 30
0.0
 10
36.434757
 20
61.901331
 30
0.0
 10
36.657006
 20
62.127108
 30
0.0
 10
36.935699
 20
62.127108
 30
0.0
  0
LWPOLYLINE
  5
219
100
AcDbEntity
  8
0
 62
7
100
AcDbPolyline
 90
1
 70
1
 10
34.935457
 20
62.127108
 30
0.0
  0
SPLINE
  5
21a
100
AcDbEntity
  8
0
 62
7
100
AcDbSpline
 70
8
 71
3
 72
8
 73
4
 74
0
 40
0
 40
0
 40
0
 40
0
 40
1
 40
1
 40
1
 40
1
 10
38.935942
 20
62.127108
 30
0.0
 10
39.214636
 20
62.127108
 30
0.0
 10
39.436885
 20
61.904859
 30
0.0
 10
39.436885
 20
61.626165
 30
0.0
  0
SPLINE
  5
21b
100
AcDbEntity
  8
0
 62
7
100
AcDbSpline
 70
8
 71
3
 72
8
 73
4
 74
0
 40
0
 40
0
 40
0
 40
0
 40
1
 40
1
 40
1
 40
1
 10
39.436885
 20
61.626165
 30
0.0
 10
39.436885
 20
61.347472
 30
0.0
 10
39.214636
 20
61.125223
 30
0.0
 10
38.935942
 20
61.125223
 30
0.0
  0
SPLINE
  5
21c
100
AcDbEntity
  8
0
 62
7
100
AcDbSpline
 70
8
 71
3
 72
8
 73
4
 74
0
 40
0
 40
0
 40
0
 40
0
 40
1
 40
1
 40
1
 40
1
 10
38.935942
 20
61.125223
 30
0.0
 10
38.657249
 20
61.125223
 30
0.0
 10
38.434999
 20
61.351000
 30
0.0
 10
38.434999
 20
61.626165
 30
0.0
  0
SPLINE
  5
21d
100
AcDbEntity
  8
0
 62
7
100
AcDbSpline
 70
8
 71
3
 72
8
 73
4
 74
0
 40
0
 40
0
 40
0
 40
0
 40
1
 40
1
 40
1
 40
1
 10
38.434999
 20
61.626165
 30
0.0
 10
38.434999
 20
61.901331
 30
0.0
 10
38.657249
 20
62.127108
 30
0.0
 10
38.935942
 20
62.127108
 30
0.0
  0
LWPOLYLINE
  5
21e
100
AcDbEntity
  8
0
 62
7
100
AcDbPolyline
 90
1
 70
1
 10
36.935699
 20
62.127108
 30
0.0
  0
SPLINE
  5
21f
100
AcDbEntity
  8
0
 62
7
100
AcDbSpline
 70
8
 71
3
 72
8
 73
4
 74
0
 40
0
 40
0
 40
0
 40
0
 40
1
 40
1
 40
1
 40
1
 10
30.934971
 20
64.127351
 30
0.0
 10
31.213665
 20
64.127351
 30
0.0
 10
31.435914
 20
63.905102
 30
0.0
 10
31.435914
 20
63.626408
 30
0.0
  0
SPLINE
  5
220
100
AcDbEntity
  8
0
 62
7
100
AcDbSpline
 70
8
 71
3
 72
8
 73
4
 74
0
 40
0
 40
0
 40
0
 40
0
 40
1
 40
1
 40
1
 40
1
 10
31.435914
 20
63.626408
 30
0.0
 10
31.435914
 20
63.347715
 30
0.0
 10
31.213665
 20
63.125465
 30
0.0
 10
30.934971
 20
63.125465
 30
0.0
  0
SPLINE
  5
221
100
AcDbEntity
  8
0
 62
7
100
AcDbSpline
 70
8
 71
3
 72
8
 73
4
 74
0
 40
0
 40
0
 40
0
 40
0
 40
1
 40
1
 40
1
 40
1
 10
30.934971
 20
63.125465
 30
0.0
 10
30.656278
 20
63.125465
 30
0.0
 10
30.434028
 20
63.351242
 30
0.0
 10
30.434028
 20
63.626408
 30
0.0
  0
SPLINE
  5
222
100
AcDbEntity
  8
0
 62
7
100
AcDbSpline
 70
8
 71
3
 72
8
 73
4
 74
0
 40
0
 40
0
 40
0
 40
0
 40
1
 40
1
 40
1
 40
1
 10
30.434028
 20
63.626408
 30
0.0
 10
30.434028
 20
63.901574
 30
0.0
 10
30.656278
 20
64.127351
 30
0.0
 10
30.934971
 20
64.127351
 30
0.0
  0
LWPOLYLINE
  5
223
100
AcDbEntity
  8
0
 62
7
100
AcDbPolyline
 90
1
 70
1
 10
38.935942
 20
62.127108
 30
0.0
  0
SPLINE
  5
224
100
AcDbEntity
  8
0
 62
7
100
AcDbSpline
 70
8
 71
3
 72
8
 73
4
 74
0
 40
0
 40
0
 40
0
 40
0
 40
1
 40
1
 40
1
 40
1
 10
32.935214
 20
64.127351
 30
0.0
 10
33.213907
 20
64.127351
 30
0.0
 10
33.436156
 20
63.905102
 30
0.0
 10
33.436156
 20
63.626408
 30
0.0
  0
SPLINE
  5
225
100
AcDbEntity
  8
0
 62
7
100
AcDbSpline
 70
8
 71
3
 72
8
 73
4
 74
0
 40
0
 40
0
 40
0
 40
0
 40
1
 40
1
 40
1
 40
1
 10
33.436156
 20
63.626408
 30
0.0
 10
33.436156
 20
63.347715
 30
0.0
 10
33.213907
 20
63.125465
 30
0.0
 10
32.935214
 20
63.125465
 30
0.0
  0
SPLINE
  5
226
100
AcDbEntity
  8
0
 62
7
100
AcDbSpline
 70
8
 71
3
 72
8
 73
4
 74
0
 40
0
 40
0
 40
0
 40
0
 40
1
 40
1
 40
1
 40
1
 10
32.935214
 20
63.125465
 30
0.0
 10
32.656520
 20
63.125465
 30
0.0
 10
32.434271
 20
63.351242
 30
0.0
 10
32.434271
 20
63.626408
 30
0.0
  0
SPLINE
  5
227
100
AcDbEntity
  8
0
 62
7
100
AcDbSpline
 70
8
 71
3
 72
8
 73
4
 74
0
 40
0
 40
0
 40
0
 40
0
 40
1
 40
1
 40
1
 40
1
 10
32.434271
 20
63.626408
 30
0.0
 10
32.434271
 20
63.901574
 30
0.0
 10
32.656520
 20
64.127351
 30
0.0
 10
32.935214
 20
64.127351
 30
0.0
  0
LWPOLYLINE
  5
228
100
AcDbEntity
  8
0
 62
7
100
AcDbPolyline
 90
1
 70
1
 10
30.934971
 20
64.127351
 30
0.0
  0
SPLINE
  5
229
100
AcDbEntity
  8
0
 62
7
100
AcDbSpline
 70
8
 71
3
 72
8
 73
4
 74
0
 40
0
 40
0
 40
0
 40
0
 40
1
 40
1
 40
1
 40
1
 10
34.935457
 20
64.127351
 30
0.0
 10
35.214150
 20
64.127351
 30
0.0
 10
35.436399
 20
63.905102
 30
0.0
 10
35.436399
 20
63.626408
 30
0.0
  0
SPLINE
  5
22a
100
AcDbEntity
  8
0
 62
7
100
AcDbSpline
 70
8
 71
3
 72
8
 73
4
 74
0
 40
0
 40
0
 40
0
 40
0
 40
1
 40
1
 40
1
 40
1
 10
35.436399
 20
63.626408
 30
0.0
 10
35.436399
 20
63.347715
 30
0.0
 10
35.214150
 20
63.125465
 30
0.0
 10
34.935457
 20
63.125465
 30
0.0
  0
SPLINE
  5
22b
100
AcDbEntity
  8
0
 62
7
100
AcDbSpline
 70
8
 71
3
 72
8
 73
4
 74
0
 40
0
 40
0
 40
0
 40
0
 40
1
 40
1
 40
1
 40
1
 10
34.935457
 20
63.125465
 30
0.0
 10
34.656763
 20
63.125465
 30
0.0
 10
34.434514
 20
63.351242
 30
0.0
 10
34.434514
 20
63.626408
 30
0.0
  0
SPLINE
  5
22c
100
AcDbEntity
  8
0
 62
7
100
AcDbSpline
 70
8
 71
3
 72
8
 73
4
 74
0
 40
0
 40
0
 40
0
 40
0
 40
1
 40
1
 40
1
 40
1
 10
34.434514
 20
63.626408
 30
0.0
 10
34.434514
 20
63.901574
 30
0.0
 10
34.656763
 20
64.127351
 30
0.0
 10
34.935457
 20
64.127351
 30
0.0
  0
LWPOLYLINE
  5
22d
100
AcDbEntity
  8
0
 62
7
100
AcDbPolyline
 90
1
 70
1
 10
32.935214
 20
64.127351
 30
0.0
  0
SPLINE
  5
22e
100
AcDbEntity
  8
0
 62
7
100
AcDbSpline
 70
8
 71
3
 72
8
 73
4
 74
0
 40
0
 40
0
 40
0
 40
0
 40
1
 40
1
 40
1
 40
1
 10
36.935699
 20
64.127351
 30
0.0
 10
37.214393
 20
64.127351
 30
0.0
 10
37.436642
 20
63.905102
 30
0.0
 10
37.436642
 20
63.626408
 30
0.0
  0
SPLINE
  5
22f
100
AcDbEntity
  8
0
 62
7
100
AcDbSpline
 70
8
 71
3
 72
8
 73
4
 74
0
 40
0
 40
0
 40
0
 40
0
 40
1
 40
1
 40
1
 40
1
 10
37.436642
 20
63.626408
 30
0.0
 10
37.436642
 20
63.347715
 30
0.0
 10
37.214393
 20
63.125465
 30
0.0
 10
36.935699
 20
63.125465
 30
0.0
  0
SPLINE
  5
230
100
AcDbEntity
  8
0
 62
7
100
AcDbSpline
 70
8
 71
3
 72
8
 73
4
 74
0
 40
0
 40
0
 40
0
 40
0
 40
1
 40
1
 40
1
 40
1
 10
36.935699
 20
63.125465
 30
0.0
 10
36.657006
 20
63.125465
 30
0.0
 10
36.434757
 20
63.351242
 30
0.0
 10
36.434757
 20
63.626408
 30
0.0
  0
SPLINE
  5
231
100
AcDbEntity
  8
0
 62
7
100
AcDbSpline
 70
8
 71
3
 72
8
 73
4
 74
0
 40
0
 40
0
 40
0
 40
0
 40
1
 40
1
 40
1
 40
1
 10
36.434757
 20
63.626408
 30
0.0
 10
36.434757
 20
63.901574
 30
0.0
 10
36.657006
 20
64.127351
 30
0.0
 10
36.935699
 20
64.127351
 30
0.0
  0
LWPOLYLINE
  5
232
100
AcDbEntity
  8
0
 62
7
100
AcDbPolyline
 90
1
 70
1
 10
34.935457
 20
64.127351
 30
0.0
  0
SPLINE
  5
233
100
AcDbEntity
  8
0
 62
7
100
AcDbSpline
 70
8
 71
3
 72
8
 73
4
 74
0
 40
0
 40
0
 40
0
 40
0
 40
1
 40
1
 40
1
 40
1
 10
38.935942
 20
64.127351
 30
0.0
 10
39.214636
 20
64.127351
 30
0.0
 10
39.436885
 20
63.905102
 30
0.0
 10
39.436885
 20
63.626408
 30
0.0
  0
SPLINE
  5
234
100
AcDbEntity
  8
0
 62
7
100
AcDbSpline
 70
8
 71
3
 72
8
 73
4
 74
0
 40
0
 40
0
 40
0
 40
0
 40
1
 40
1
 40
1
 40
1
 10
39.436885
 20
63.626408
 30
0.0
 10
39.436885
 20
63.347715
 30
0.0
 10
39.214636
 20
63.125465
 30
0.0
 10
38.935942
 20
63.125465
 30
0.0
  0
SPLINE
  5
235
100
AcDbEntity
  8
0
 62
7
100
AcDbSpline
 70
8
 71
3
 72
8
 73
4
 74
0
 40
0
 40
0
 40
0
 40
0
 40
1
 40
1
 40
1
 40
1
 10
38.935942
 20
63.125465
 30
0.0
 10
38.657249
 20
63.125465
 30
0.0
 10
38.434999
 20
63.351242
 30
0.0
 10
38.434999
 20
63.626408
 30
0.0
  0
SPLINE
  5
236
100
AcDbEntity
  8
0
 62
7
100
AcDbSpline
 70
8
 71
3
 72
8
 73
4
 74
0
 40
0
 40
0
 40
0
 40
0
 40
1
 40
1
 40
1
 40
1
 10
38.434999
 20
63.626408
 30
0.0
 10
38.434999
 20
63.901574
 30
0.0
 10
38.657249
 20
64.127351
 30
0.0
 10
38.935942
 20
64.127351
 30
0.0
  0
LWPOLYLINE
  5
237
100
AcDbEntity
  8
0
 62
7
100
AcDbPolyline
 90
1
 70
1
 10
36.935699
 20
64.127351
 30
0.0
  0
SPLINE
  5
238
100
AcDbEntity
  8
0
 62
7
100
AcDbSpline
 70
8
 71
3
 72
8
 73
4
 74
0
 40
0
 40
0
 40
0
 40
0
 40
1
 40
1
 40
1
 40
1
 10
30.934971
 20
66.127593
 30
0.0
 10
31.213665
 20
66.127593
 30
0.0
 10
31.435914
 20
65.905344
 30
0.0
 10
31.435914
 20
65.626651
 30
0.0
  0
SPLINE
  5
239
100
AcDbEntity
  8
0
 62
7
100
AcDbSpline
 70
8
 71
3
 72
8
 73
4
 74
0
 40
0
 40
0
 40
0
 40
0
 40
1
 40
1
 40
1
 40
1
 10
31.435914
 20
65.626651
 30
0.0
 10
31.435914
 20
65.347957
 30
0.0
 10
31.213665
 20
65.125708
 30
0.0
 10
30.934971
 20
65.125708
 30
0.0
  0
SPLINE
  5
23a
100
AcDbEntity
  8
0
 62
7
100
AcDbSpline
 70
8
 71
3
 72
8
 73
4
 74
0
 40
0
 40
0
 40
0
 40
0
 40
1
 40
1
 40
1
 40
1
 10
30.934971
 20
65.125708
 30
0.0
 10
30.656278
 20
65.125708
 30
0.0
 10
30.434028
 20
65.351485
 30
0.0
 10
30.434028
 20
65.626651
 30
0.0
  0
SPLINE
  5
23b
100
AcDbEntity
  8
0
 62
7
100
AcDbSpline
 70
8
 71
3
 72
8
 73
4
 74
0
 40
0
 40
0
 40
0
 40
0
 40
1
 40
1
 40
1
 40
1
 10
30.434028
 20
65.626651
 30
0.0
 10
30.434028
 20
65.901817
 30
0.0
 10
30.656278
 20
66.127593
 30
0.0
 10
30.934971
 20
66.127593
 30
0.0
  0
LWPOLYLINE
  5
23c
100
AcDbEntity
  8
0
 62
7
100
AcDbPolyline
 90
1
 70
1
 10
38.935942
 20
64.127351
 30
0.0
  0
SPLINE
  5
23d
100
AcDbEntity
  8
0
 62
7
100
AcDbSpline
 70
8
 71
3
 72
8
 73
4
 74
0
 40
0
 40
0
 40
0
 40
0
 40
1
 40
1
 40
1
 40
1
 10
32.935214
 20
66.127593
 30
0.0
 10
33.213907
 20
66.127593
 30
0.0
 10
33.436156
 20
65.905344
 30
0.0
 10
33.436156
 20
65.626651
 30
0.0
  0
SPLINE
  5
23e
100
AcDbEntity
  8
0
 62
7
100
AcDbSpline
 70
8
 71
3
 72
8
 73
4
 74
0
 40
0
 40
0
 40
0
 40
0
 40
1
 40
1
 40
1
 40
1
 10
33.436156
 20
65.626651
 30
0.0
 10
33.436156
 20
65.347957
 30
0.0
 10
33.213907
 20
65.125708
 30
0.0
 10
32.935214
 20
65.125708
 30
0.0
  0
SPLINE
  5
23f
100
AcDbEntity
  8
0
 62
7
100
AcDbSpline
 70
8
 71
3
 72
8
 73
4
 74
0
 40
0
 40
0
 40
0
 40
0
 40
1
 40
1
 40
1
 40
1
 10
32.935214
 20
65.125708
 30
0.0
 10
32.656520
 20
65.125708
 30
0.0
 10
32.434271
 20
65.351485
 30
0.0
 10
32.434271
 20
65.626651
 30
0.0
  0
SPLINE
  5
240
100
AcDbEntity
  8
0
 62
7
100
AcDbSpline
 70
8
 71
3
 72
8
 73
4
 74
0
 40
0
 40
0
 40
0
 40
0
 40
1
 40
1
 40
1
 40
1
 10
32.434271
 20
65.626651
 30
0.0
 10
32.434271
 20
65.901817
 30
0.0
 10
32.656520
 20
66.127593
 30
0.0
 10
32.935214
 20
66.127593
 30
0.0
  0
LWPOLYLINE
  5
241
100
AcDbEntity
  8
0
 62
7
100
AcDbPolyline
 90
1
 70
1
 10
30.934971
 20
66.127593
 30
0.0
  0
SPLINE
  5
242
100
AcDbEntity
  8
0
 62
7
100
AcDbSpline
 70
8
 71
3
 72
8
 73
4
 74
0
 40
0
 40
0
 40
0
 40
0
 40
1
 40
1
 40
1
 40
1
 10
34.935457
 20
66.127593
 30
0.0
 10
35.214150
 20
66.127593
 30
0.0
 10
35.436399
 20
65.905344
 30
0.0
 10
35.436399
 20
65.626651
 30
0.0
  0
SPLINE
  5
243
100
AcDbEntity
  8
0
 62
7
100
AcDbSpline
 70
8
 71
3
 72
8
 73
4
 74
0
 40
0
 40
0
 40
0
 40
0
 40
1
 40
1
 40
1
 40
1
 10
35.436399
 20
65.626651
 30
0.0
 10
35.436399
 20
65.347957
 30
0.0
 10
35.214150
 20
65.125708
 30
0.0
 10
34.935457
 20
65.125708
 30
0.0
  0
SPLINE
  5
244
100
AcDbEntity
  8
0
 62
7
100
AcDbSpline
 70
8
 71
3
 72
8
 73
4
 74
0
 40
0
 40
0
 40
0
 40
0
 40
1
 40
1
 40
1
 40
1
 10
34.935457
 20
65.125708
 30
0.0
 10
34.656763
 20
65.125708
 30
0.0
 10
34.434514
 20
65.351485
 30
0.0
 10
34.434514
 20
65.626651
 30
0.0
  0
SPLINE
  5
245
100
AcDbEntity
  8
0
 62
7
100
AcDbSpline
 70
8
 71
3
 72
8
 73
4
 74
0
 40
0
 40
0
 40
0
 40
0
 40
1
 40
1
 40
1
 40
1
 10
34.434514
 20
65.626651
 30
0.0
 10
34.434514
 20
65.901817
 30
0.0
 10
34.656763
 20
66.127593
 30
0.0
 10
34.935457
 20
66.127593
 30
0.0
  0
LWPOLYLINE
  5
246
100
AcDbEntity
  8
0
 62
7
100
AcDbPolyline
 90
1
 70
1
 10
32.935214
 20
66.127593
 30
0.0
  0
SPLINE
  5
247
100
AcDbEntity
  8
0
 62
7
100
AcDbSpline
 70
8
 71
3
 72
8
 73
4
 74
0
 40
0
 40
0
 40
0
 40
0
 40
1
 40
1
 40
1
 40
1
 10
36.935699
 20
66.127593
 30
0.0
 10
37.214393
 20
66.127593
 30
0.0
 10
37.436642
 20
65.905344
 30
0.0
 10
37.436642
 20
65.626651
 30
0.0
  0
SPLINE
  5
248
100
AcDbEntity
  8
0
 62
7
100
AcDbSpline
 70
8
 71
3
 72
8
 73
4
 74
0
 40
0
 40
0
 40
0
 40
0
 40
1
 40
1
 40
1
 40
1
 10
37.436642
 20
65.626651
 30
0.0
 10
37.436642
 20
65.347957
 30
0.0
 10
37.214393
 20
65.125708
 30
0.0
 10
36.935699
 20
65.125708
 30
0.0
  0
SPLINE
  5
249
100
AcDbEntity
  8
0
 62
7
100
AcDbSpline
 70
8
 71
3
 72
8
 73
4
 74
0
 40
0
 40
0
 40
0
 40
0
 40
1
 40
1
 40
1
 40
1
 10
36.935699
 20
65.125708
 30
0.0
 10
36.657006
 20
65.125708
 30
0.0
 10
36.434757
 20
65.351485
 30
0.0
 10
36.434757
 20
65.626651
 30
0.0
  0
SPLINE
  5
24a
100
AcDbEntity
  8
0
 62
7
100
AcDbSpline
 70
8
 71
3
 72
8
 73
4
 74
0
 40
0
 40
0
 40
0
 40
0
 40
1
 40
1
 40
1
 40
1
 10
36.434757
 20
65.626651
 30
0.0
 10
36.434757
 20
65.901817
 30
0.0
 10
36.657006
 20
66.127593
 30
0.0
 10
36.935699
 20
66.127593
 30
0.0
  0
LWPOLYLINE
  5
24b
100
AcDbEntity
  8
0
 62
7
100
AcDbPolyline
 90
1
 70
1
 10
34.935457
 20
66.127593
 30
0.0
  0
SPLINE
  5
24c
100
AcDbEntity
  8
0
 62
7
100
AcDbSpline
 70
8
 71
3
 72
8
 73
4
 74
0
 40
0
 40
0
 40
0
 40
0
 40
1
 40
1
 40
1
 40
1
 10
38.935942
 20
66.127593
 30
0.0
 10
39.214636
 20
66.127593
 30
0.0
 10
39.436885
 20
65.905344
 30
0.0
 10
39.436885
 20
65.626651
 30
0.0
  0
SPLINE
  5
24d
100
AcDbEntity
  8
0
 62
7
100
AcDbSpline
 70
8
 71
3
 72
8
 73
4
 74
0
 40
0
 40
0
 40
0
 40
0
 40
1
 40
1
 40
1
 40
1
 10
39.436885
 20
65.626651
 30
0.0
 10
39.436885
 20
65.347957
 30
0.0
 10
39.214636
 20
65.125708
 30
0.0
 10
38.935942
 20
65.125708
 30
0.0
  0
SPLINE
  5
24e
100
AcDbEntity
  8
0
 62
7
100
AcDbSpline
 70
8
 71
3
 72
8
 73
4
 74
0
 40
0
 40
0
 40
0
 40
0
 40
1
 40
1
 40
1
 40
1
 10
38.935942
 20
65.125708
 30
0.0
 10
38.657249
 20
65.125708
 30
0.0
 10
38.434999
 20
65.351485
 30
0.0
 10
38.434999
 20
65.626651
 30
0.0
  0
SPLINE
  5
24f
100
AcDbEntity
  8
0
 62
7
100
AcDbSpline
 70
8
 71
3
 72
8
 73
4
 74
0
 40
0
 40
0
 40
0
 40
0
 40
1
 40
1
 40
1
 40
1
 10
38.434999
 20
65.626651
 30
0.0
 10
38.434999
 20
65.901817
 30
0.0
 10
38.657249
 20
66.127593
 30
0.0
 10
38.935942
 20
66.127593
 30
0.0
  0
LWPOLYLINE
  5
250
100
AcDbEntity
  8
0
 62
7
100
AcDbPolyline
 90
1
 70
1
 10
36.935699
 20
66.127593
 30
0.0
  0
SPLINE
  5
251
100
AcDbEntity
  8
0
 62
7
100
AcDbSpline
 70
8
 71
3
 72
8
 73
4
 74
0
 40
0
 40
0
 40
0
 40
0
 40
1
 40
1
 40
1
 40
1
 10
28.758340
 20
81.981369
 30
0.0
 10
28.176259
 20
81.981369
 30
0.0
 10
27.707066
 20
82.450562
 30
0.0
 10
27.707066
 20
83.032643
 30
0.0
  0
SPLINE
  5
252
100
AcDbEntity
  8
0
 62
7
100
AcDbSpline
 70
8
 71
3
 72
8
 73
4
 74
0
 40
0
 40
0
 40
0
 40
0
 40
1
 40
1
 40
1
 40
1
 10
27.707066
 20
83.032643
 30
0.0
 10
27.707066
 20
83.614724
 30
0.0
 10
28.176259
 20
84.083917
 30
0.0
 10
28.758340
 20
84.083917
 30
0.0
  0
SPLINE
  5
253
100
AcDbEntity
  8
0
 62
7
100
AcDbSpline
 70
8
 71
3
 72
8
 73
4
 74
0
 40
0
 40
0
 40
0
 40
0
 40
1
 40
1
 40
1
 40
1
 10
28.758340
 20
84.083917
 30
0.0
 10
29.340421
 20
84.083917
 30
0.0
 10
29.809614
 20
83.611197
 30
0.0
 10
29.809614
 20
83.032643
 30
0.0
  0
SPLINE
  5
254
100
AcDbEntity
  8
0
 62
7
100
AcDbSpline
 70
8
 71
3
 72
8
 73
4
 74
0
 40
0
 40
0
 40
0
 40
0
 40
1
 40
1
 40
1
 40
1
 10
29.809614
 20
83.032643
 30
0.0
 10
29.809614
 20
82.454090
 30
0.0
 10
29.340421
 20
81.981369
 30
0.0
 10
28.758340
 20
81.981369
 30
0.0
  0
LWPOLYLINE
  5
255
100
AcDbEntity
  8
0
 62
7
100
AcDbPolyline
 90
1
 70
1
 10
38.935942
 20
66.127593
 30
0.0
  0
SPLINE
  5
256
100
AcDbEntity
  8
0
 62
7
100
AcDbSpline
 70
8
 71
3
 72
8
 73
4
 74
0
 40
0
 40
0
 40
0
 40
0
 40
1
 40
1
 40
1
 40
1
 10
29.530921
 20
70.406772
 30
0.0
 10
28.948839
 20
70.406772
 30
0.0
 10
28.479647
 20
70.875965
 30
0.0
 10
28.479647
 20
71.458046
 30
0.0
  0
SPLINE
  5
257
100
AcDbEntity
  8
0
 62
7
100
AcDbSpline
 70
8
 71
3
 72
8
 73
4
 74
0
 40
0
 40
0
 40
0
 40
0
 40
1
 40
1
 40
1
 40
1
 10
28.479647
 20
71.458046
 30
0.0
 10
28.479647
 20
72.040128
 30
0.0
 10
28.948839
 20
72.509320
 30
0.0
 10
29.530921
 20
72.509320
 30
0.0
  0
SPLINE
  5
258
100
AcDbEntity
  8
0
 62
7
100
AcDbSpline
 70
8
 71
3
 72
8
 73
4
 74
0
 40
0
 40
0
 40
0
 40
0
 40
1
 40
1
 40
1
 40
1
 10
29.530921
 20
72.509320
 30
0.0
 10
30.113002
 20
72.509320
 30
0.0
 10
30.582195
 20
72.036600
 30
0.0
 10
30.582195
 20
71.458046
 30
0.0
  0
SPLINE
  5
259
100
AcDbEntity
  8
0
 62
7
100
AcDbSpline
 70
8
 71
3
 72
8
 73
4
 74
0
 40
0
 40
0
 40
0
 40
0
 40
1
 40
1
 40
1
 40
1
 10
30.582195
 20
71.458046
 30
0.0
 10
30.582195
 20
70.879493
 30
0.0
 10
30.113002
 20
70.406772
 30
0.0
 10
29.530921
 20
70.406772
 30
0.0
  0
LWPOLYLINE
  5
25a
100
AcDbEntity
  8
0
 62
7
100
AcDbPolyline
 90
1
 70
1
 10
28.758340
 20
81.981369
 30
0.0
  0
LWPOLYLINE
  5
25b
100
AcDbEntity
  8
0
 62
7
100
AcDbPolyline
 90
1
 70
1
 10
29.530921
 20
70.406772
 30
0.0
  0
SPLINE
  5
25c
100
AcDbEntity
  8
0
 62
7
100
AcDbSpline
 70
8
 71
3
 72
8
 73
4
 74
0
 40
0
 40
0
 40
0
 40
0
 40
1
 40
1
 40
1
 40
1
 10
64.321739
 20
91.915555
 30
0.0
 10
64.709793
 20
91.915555
 30
0.0
 10
65.023764
 20
91.601584
 30
0.0
 10
65.023764
 20
91.213530
 30
0.0
  0
LWPOLYLINE
  5
25d
100
AcDbEntity
  8
0
 62
7
100
AcDbPolyline
 90
4
 70
0
 10
113.227145
 20
96.886176
 30
0.0
 10
46.012639
 20
96.886176
 30
0.0
 10
45.998528
 20
91.915555
 30
0.0
 10
64.321739
 20
91.915555
 30
0.0
  0
SPLINE
  5
25e
100
AcDbEntity
  8
0
 62
7
100
AcDbSpline
 70
8
 71
3
 72
8
 73
4
 74
0
 40
0
 40
0
 40
0
 40
0
 40
1
 40
1
 40
1
 40
1
 10
83.318753
 20
88.902844
 30
0.0
 10
83.706807
 20
88.902844
 30
0.0
 10
84.020779
 20
88.592401
 30
0.0
 10
84.020779
 20
88.204347
 30
0.0
  0
LWPOLYLINE
  5
25f
100
AcDbEntity
  8
0
 62
7
100
AcDbPolyline
 90
3
 70
0
 10
65.023764
 20
91.213530
 30
0.0
 10
65.023764
 20
88.902844
 30
0.0
 10
83.318753
 20
88.902844
 30
0.0
  0
SPLINE
  5
260
100
AcDbEntity
  8
0
 62
7
100
AcDbSpline
 70
8
 71
3
 72
8
 73
4
 74
0
 40
0
 40
0
 40
0
 40
0
 40
1
 40
1
 40
1
 40
1
 10
84.049001
 20
25.755851
 30
0.0
 10
88.656262
 20
23.981385
 30
0.0
 10
93.245884
 20
21.794171
 30
0.0
 10
97.620313
 20
19.268291
 30
0.0
  0
LWPOLYLINE
  5
261
100
AcDbEntity
  8
0
 62
7
100
AcDbPolyline
 90
2
 70
0
 10
84.020779
 20
88.204347
 30
0.0
 10
84.049001
 20
25.755851
 30
0.0
  0
SPLINE
  5
262
100
AcDbEntity
  8
0
 62
7
100
AcDbSpline
 70
8
 71
3
 72
8
 73
4
 74
0
 40
0
 40
0
 40
0
 40
0
 40
1
 40
1
 40
1
 40
1
 10
106.108115
 20
14.368226
 30
0.0
 10
106.443253
 20
14.174199
 30
0.0
 10
106.559669
 20
13.747339
 30
0.0
 10
106.365642
 20
13.412201
 30
0.0
  0
LWPOLYLINE
  5
263
100
AcDbEntity
  8
0
 62
7
100
AcDbPolyline
 90
2
 70
0
 10
97.620313
 20
19.268291
 30
0.0
 10
106.108115
 20
14.368226
 30
0.0
  0
SPLINE
  5
264
100
AcDbEntity
  8
0
 62
7
100
AcDbSpline
 70
8
 71
3
 72
8
 73
4
 74
0
 40
0
 40
0
 40
0
 40
0
 40
1
 40
1
 40
1
 40
1
 10
113.227145
 20
0.049028
 30
0.0
 10
113.611671
 20
0.049028
 30
0.0
 10
113.925642
 20
0.359471
 30
0.0
 10
113.925642
 20
0.747525
 30
0.0
  0
LWPOLYLINE
  5
265
100
AcDbEntity
  8
0
 62
7
100
AcDbPolyline
 90
3
 70
0
 10
106.365642
 20
13.412201
 30
0.0
 10
98.653948
 20
0.049028
 30
0.0
 10
113.227145
 20
0.049028
 30
0.0
  0
SPLINE
  5
266
100
AcDbEntity
  8
0
 62
7
100
AcDbSpline
 70
8
 71
3
 72
8
 73
4
 74
0
 40
0
 40
0
 40
0
 40
0
 40
1
 40
1
 40
1
 40
1
 10
113.925642
 20
96.184151
 30
0.0
 10
113.925642
 20
96.568677
 30
0.0
 10
113.615199
 20
96.882649
 30
0.0
 10
113.227145
 20
96.882649
 30
0.0
  0
LWPOLYLINE
  5
267
100
AcDbEntity
  8
0
 62
7
100
AcDbPolyline
 90
2
 70
0
 10
113.925642
 20
0.747525
 30
0.0
 10
113.925642
 20
96.184151
 30
0.0
  0
SPLINE
  5
268
100
AcDbEntity
  8
0
 62
7
100
AcDbSpline
 70
8
 71
3
 72
8
 73
4
 74
0
 40
0
 40
0
 40
0
 40
0
 40
1
 40
1
 40
1
 40
1
 10
112.373426
 20
94.296797
 30
0.0
 10
112.373426
 20
93.714716
 30
0.0
 10
111.904233
 20
93.245523
 30
0.0
 10
111.322152
 20
93.245523
 30
0.0
  0
SPLINE
  5
269
100
AcDbEntity
  8
0
 62
7
100
AcDbSpline
 70
8
 71
3
 72
8
 73
4
 74
0
 40
0
 40
0
 40
0
 40
0
 40
1
 40
1
 40
1
 40
1
 10
111.322152
 20
93.245523
 30
0.0
 10
110.740071
 20
93.245523
 30
0.0
 10
110.270878
 20
93.714716
 30
0.0
 10
110.270878
 20
94.296797
 30
0.0
  0
SPLINE
  5
26a
100
AcDbEntity
  8
0
 62
7
100
AcDbSpline
 70
8
 71
3
 72
8
 73
4
 74
0
 40
0
 40
0
 40
0
 40
0
 40
1
 40
1
 40
1
 40
1
 10
110.270878
 20
94.296797
 30
0.0
 10
110.270878
 20
94.878878
 30
0.0
 10
110.743598
 20
95.348071
 30
0.0
 10
111.322152
 20
95.348071
 30
0.0
  0
SPLINE
  5
26b
100
AcDbEntity
  8
0
 62
7
100
AcDbSpline
 70
8
 71
3
 72
8
 73
4
 74
0
 40
0
 40
0
 40
0
 40
0
 40
1
 40
1
 40
1
 40
1
 10
111.322152
 20
95.348071
 30
0.0
 10
111.900705
 20
95.348071
 30
0.0
 10
112.373426
 20
94.878878
 30
0.0
 10
112.373426
 20
94.296797
 30
0.0
  0
LWPOLYLINE
  5
26c
100
AcDbEntity
  8
0
 62
7
100
AcDbPolyline
 90
3
 70
0
 10
113.227145
 20
96.882649
 30
0.0
 10
113.227145
 20
96.882649
 30
0.0
 10
113.227145
 20
96.886176
 30
0.0
  0
SPLINE
  5
26d
100
AcDbEntity
  8
0
 62
7
100
AcDbSpline
 70
8
 71
3
 72
8
 73
4
 74
0
 40
0
 40
0
 40
0
 40
0
 40
1
 40
1
 40
1
 40
1
 10
110.270878
 20
14.869168
 30
0.0
 10
110.270878
 20
15.451250
 30
0.0
 10
110.740071
 20
15.920442
 30
0.0
 10
111.322152
 20
15.920442
 30
0.0
  0
SPLINE
  5
26e
100
AcDbEntity
  8
0
 62
7
100
AcDbSpline
 70
8
 71
3
 72
8
 73
4
 74
0
 40
0
 40
0
 40
0
 40
0
 40
1
 40
1
 40
1
 40
1
 10
111.322152
 20
15.920442
 30
0.0
 10
111.904233
 20
15.920442
 30
0.0
 10
112.373426
 20
15.451250
 30
0.0
 10
112.373426
 20
14.869168
 30
0.0
  0
SPLINE
  5
26f
100
AcDbEntity
  8
0
 62
7
100
AcDbSpline
 70
8
 71
3
 72
8
 73
4
 74
0
 40
0
 40
0
 40
0
 40
0
 40
1
 40
1
 40
1
 40
1
 10
112.373426
 20
14.869168
 30
0.0
 10
112.373426
 20
14.287087
 30
0.0
 10
111.900705
 20
13.817894
 30
0.0
 10
111.322152
 20
13.817894
 30
0.0
  0
SPLINE
  5
270
100
AcDbEntity
  8
0
 62
7
100
AcDbSpline
 70
8
 71
3
 72
8
 73
4
 74
0
 40
0
 40
0
 40
0
 40
0
 40
1
 40
1
 40
1
 40
1
 10
111.322152
 20
13.817894
 30
0.0
 10
110.743598
 20
13.817894
 30
0.0
 10
110.270878
 20
14.287087
 30
0.0
 10
110.270878
 20
14.869168
 30
0.0
  0
LWPOLYLINE
  5
271
100
AcDbEntity
  8
0
 62
7
100
AcDbPolyline
 90
1
 70
1
 10
112.373426
 20
94.296797
 30
0.0
  0
SPLINE
  5
272
100
AcDbEntity
  8
0
 62
7
100
AcDbSpline
 70
8
 71
3
 72
8
 73
4
 74
0
 40
0
 40
0
 40
0
 40
0
 40
1
 40
1
 40
1
 40
1
 10
86.719519
 20
36.092202
 30
0.0
 10
86.719519
 20
42.854928
 30
0.0
 10
92.205193
 20
48.340602
 30
0.0
 10
98.967919
 20
48.340602
 30
0.0
  0
SPLINE
  5
273
100
AcDbEntity
  8
0
 62
7
100
AcDbSpline
 70
8
 71
3
 72
8
 73
4
 74
0
 40
0
 40
0
 40
0
 40
0
 40
1
 40
1
 40
1
 40
1
 10
98.967919
 20
48.340602
 30
0.0
 10
105.730644
 20
48.340602
 30
0.0
 10
111.216319
 20
42.854928
 30
0.0
 10
111.216319
 20
36.092202
 30
0.0
  0
SPLINE
  5
274
100
AcDbEntity
  8
0
 62
7
100
AcDbSpline
 70
8
 71
3
 72
8
 73
4
 74
0
 40
0
 40
0
 40
0
 40
0
 40
1
 40
1
 40
1
 40
1
 10
111.216319
 20
36.092202
 30
0.0
 10
111.216319
 20
29.329477
 30
0.0
 10
105.734172
 20
23.843802
 30
0.0
 10
98.967919
 20
23.843802
 30
0.0
  0
SPLINE
  5
275
100
AcDbEntity
  8
0
 62
7
100
AcDbSpline
 70
8
 71
3
 72
8
 73
4
 74
0
 40
0
 40
0
 40
0
 40
0
 40
1
 40
1
 40
1
 40
1
 10
98.967919
 20
23.843802
 30
0.0
 10
92.201666
 20
23.843802
 30
0.0
 10
86.719519
 20
29.329477
 30
0.0
 10
86.719519
 20
36.092202
 30
0.0
  0
LWPOLYLINE
  5
276
100
AcDbEntity
  8
0
 62
7
100
AcDbPolyline
 90
1
 70
1
 10
110.270878
 20
14.869168
 30
0.0
  0
SPLINE
  5
277
100
AcDbEntity
  8
0
 62
7
100
AcDbSpline
 70
8
 71
3
 72
8
 73
4
 74
0
 40
0
 40
0
 40
0
 40
0
 40
1
 40
1
 40
1
 40
1
 10
48.199853
 20
94.240353
 30
0.0
 10
48.199853
 20
94.822434
 30
0.0
 10
48.669046
 20
95.291627
 30
0.0
 10
49.251127
 20
95.291627
 30
0.0
  0
SPLINE
  5
278
100
AcDbEntity
  8
0
 62
7
100
AcDbSpline
 70
8
 71
3
 72
8
 73
4
 74
0
 40
0
 40
0
 40
0
 40
0
 40
1
 40
1
 40
1
 40
1
 10
49.251127
 20
95.291627
 30
0.0
 10
49.833208
 20
95.291627
 30
0.0
 10
50.302401
 20
94.822434
 30
0.0
 10
50.302401
 20
94.240353
 30
0.0
  0
SPLINE
  5
279
100
AcDbEntity
  8
0
 62
7
100
AcDbSpline
 70
8
 71
3
 72
8
 73
4
 74
0
 40
0
 40
0
 40
0
 40
0
 40
1
 40
1
 40
1
 40
1
 10
50.302401
 20
94.240353
 30
0.0
 10
50.302401
 20
93.658271
 30
0.0
 10
49.829680
 20
93.189079
 30
0.0
 10
49.251127
 20
93.189079
 30
0.0
  0
SPLINE
  5
27a
100
AcDbEntity
  8
0
 62
7
100
AcDbSpline
 70
8
 71
3
 72
8
 73
4
 74
0
 40
0
 40
0
 40
0
 40
0
 40
1
 40
1
 40
1
 40
1
 10
49.251127
 20
93.189079
 30
0.0
 10
48.672573
 20
93.189079
 30
0.0
 10
48.199853
 20
93.658271
 30
0.0
 10
48.199853
 20
94.240353
 30
0.0
  0
LWPOLYLINE
  5
27b
100
AcDbEntity
  8
0
 62
7
100
AcDbPolyline
 90
1
 70
1
 10
86.719519
 20
36.092202
 30
0.0
  0
SPLINE
  5
27c
100
AcDbEntity
  8
0
 62
7
100
AcDbSpline
 70
8
 71
3
 72
8
 73
4
 74
0
 40
0
 40
0
 40
0
 40
0
 40
1
 40
1
 40
1
 40
1
 10
0.747886
 20
96.882649
 30
0.0
 10
0.363360
 20
96.882649
 30
0.0
 10
0.049389
 20
96.572205
 30
0.0
 10
0.049389
 20
96.184151
 30
0.0
  0
LWPOLYLINE
  5
27d
100
AcDbEntity
  8
0
 62
7
100
AcDbPolyline
 90
1
 70
1
 10
48.199853
 20
94.240353
 30
0.0
  0
SPLINE
  5
27e
100
AcDbEntity
  8
0
 62
7
100
AcDbSpline
 70
8
 71
3
 72
8
 73
4
 74
0
 40
0
 40
0
 40
0
 40
0
 40
1
 40
1
 40
1
 40
1
 10
17.801102
 20
77.522274
 30
0.0
 10
18.182101
 20
77.589302
 30
0.0
 10
18.545461
 20
77.335303
 30
0.0
 10
18.612488
 20
76.954304
 30
0.0
  0
LWPOLYLINE
  5
27f
100
AcDbEntity
  8
0
 62
7
100
AcDbPolyline
 90
3
 70
0
 10
0.049389
 20
96.184151
 30
0.0
 10
0.049389
 20
74.393147
 30
0.0
 10
17.801102
 20
77.522274
 30
0.0
  0
SPLINE
  5
280
100
AcDbEntity
  8
0
 62
7
100
AcDbSpline
 70
8
 71
3
 72
8
 73
4
 74
0
 40
0
 40
0
 40
0
 40
0
 40
1
 40
1
 40
1
 40
1
 10
21.402950
 20
61.047612
 30
0.0
 10
21.526422
 20
60.335003
 30
0.0
 10
22.584751
 20
60.462003
 30
0.0
 10
22.535363
 20
61.185195
 30
0.0
  0
LWPOLYLINE
  5
281
100
AcDbEntity
  8
0
 62
7
100
AcDbPolyline
 90
2
 70
0
 10
18.612488
 20
76.954304
 30
0.0
 10
21.402950
 20
61.047612
 30
0.0
  0
SPLINE
  5
282
100
AcDbEntity
  8
0
 62
7
100
AcDbSpline
 70
8
 71
3
 72
8
 73
4
 74
0
 40
0
 40
0
 40
0
 40
0
 40
1
 40
1
 40
1
 40
1
 10
37.496614
 20
94.282686
 30
0.0
 10
37.496614
 20
94.864767
 30
0.0
 10
37.965807
 20
95.333960
 30
0.0
 10
38.547888
 20
95.333960
 30
0.0
  0
SPLINE
  5
283
100
AcDbEntity
  8
0
 62
7
100
AcDbSpline
 70
8
 71
3
 72
8
 73
4
 74
0
 40
0
 40
0
 40
0
 40
0
 40
1
 40
1
 40
1
 40
1
 10
38.547888
 20
95.333960
 30
0.0
 10
39.129969
 20
95.333960
 30
0.0
 10
39.599162
 20
94.864767
 30
0.0
 10
39.599162
 20
94.282686
 30
0.0
  0
SPLINE
  5
284
100
AcDbEntity
  8
0
 62
7
100
AcDbSpline
 70
8
 71
3
 72
8
 73
4
 74
0
 40
0
 40
0
 40
0
 40
0
 40
1
 40
1
 40
1
 40
1
 10
39.599162
 20
94.282686
 30
0.0
 10
39.599162
 20
93.700605
 30
0.0
 10
39.126441
 20
93.231412
 30
0.0
 10
38.547888
 20
93.231412
 30
0.0
  0
SPLINE
  5
285
100
AcDbEntity
  8
0
 62
7
100
AcDbSpline
 70
8
 71
3
 72
8
 73
4
 74
0
 40
0
 40
0
 40
0
 40
0
 40
1
 40
1
 40
1
 40
1
 10
38.547888
 20
93.231412
 30
0.0
 10
37.969334
 20
93.231412
 30
0.0
 10
37.496614
 20
93.700605
 30
0.0
 10
37.496614
 20
94.282686
 30
0.0
  0
LWPOLYLINE
  5
286
100
AcDbEntity
  8
0
 62
7
100
AcDbPolyline
 90
7
 70
0
 10
22.535363
 20
61.185195
 30
0.0
 10
20.559814
 20
89.717758
 30
0.0
 10
20.559814
 20
89.717758
 30
0.0
 10
43.063427
 20
91.291141
 30
0.0
 10
43.052844
 20
96.882649
 30
0.0
 10
0.747886
 20
96.882649
 30
0.0
 10
0.747886
 20
96.882649
 30
0.0
  0
SPLINE
  5
287
100
AcDbEntity
  8
0
 62
7
100
AcDbSpline
 70
8
 71
3
 72
8
 73
4
 74
0
 40
0
 40
0
 40
0
 40
0
 40
1
 40
1
 40
1
 40
1
 10
22.655307
 20
93.273745
 30
0.0
 10
22.655307
 20
93.855826
 30
0.0
 10
23.124499
 20
94.325019
 30
0.0
 10
23.706581
 20
94.325019
 30
0.0
  0
SPLINE
  5
288
100
AcDbEntity
  8
0
 62
7
100
AcDbSpline
 70
8
 71
3
 72
8
 73
4
 74
0
 40
0
 40
0
 40
0
 40
0
 40
1
 40
1
 40
1
 40
1
 10
23.706581
 20
94.325019
 30
0.0
 10
24.288662
 20
94.325019
 30
0.0
 10
24.757855
 20
93.855826
 30
0.0
 10
24.757855
 20
93.273745
 30
0.0
  0
SPLINE
  5
289
100
AcDbEntity
  8
0
 62
7
100
AcDbSpline
 70
8
 71
3
 72
8
 73
4
 74
0
 40
0
 40
0
 40
0
 40
0
 40
1
 40
1
 40
1
 40
1
 10
24.757855
 20
93.273745
 30
0.0
 10
24.757855
 20
92.691664
 30
0.0
 10
24.285134
 20
92.222471
 30
0.0
 10
23.706581
 20
92.222471
 30
0.0
  0
SPLINE
  5
28a
100
AcDbEntity
  8
0
 62
7
100
AcDbSpline
 70
8
 71
3
 72
8
 73
4
 74
0
 40
0
 40
0
 40
0
 40
0
 40
1
 40
1
 40
1
 40
1
 10
23.706581
 20
92.222471
 30
0.0
 10
23.128027
 20
92.222471
 30
0.0
 10
22.655307
 20
92.691664
 30
0.0
 10
22.655307
 20
93.273745
 30
0.0
  0
LWPOLYLINE
  5
28b
100
AcDbEntity
  8
0
 62
7
100
AcDbPolyline
 90
1
 70
1
 10
37.496614
 20
94.282686
 30
0.0
  0
LWPOLYLINE
  5
28c
100
AcDbEntity
  8
0
 62
7
100
AcDbPolyline
 90
1
 70
1
 10
22.655307
 20
93.273745
 30
0.0
  0
SPLINE
  5
28d
100
AcDbEntity
  8
0
 62
7
100
AcDbSpline
 70
8
 71
3
 72
8
 73
4
 74
0
 40
0
 40
0
 40
0
 40
0
 40
1
 40
1
 40
1
 40
1
 10
125.641350
 20
88.610040
 30
0.0
 10
120.840062
 20
88.610040
 30
0.0
 10
116.934826
 20
84.704804
 30
0.0
 10
116.934826
 20
79.903516
 30
0.0
  0
SPLINE
  5
28e
100
AcDbEntity
  8
0
 62
7
100
AcDbSpline
 70
8
 71
3
 72
8
 73
4
 74
0
 40
0
 40
0
 40
0
 40
0
 40
1
 40
1
 40
1
 40
1
 10
116.934826
 20
79.903516
 30
0.0
 10
116.934826
 20
75.102228
 30
0.0
 10
120.840062
 20
71.196992
 30
0.0
 10
125.641350
 20
71.196992
 30
0.0
  0
SPLINE
  5
28f
100
AcDbEntity
  8
0
 62
7
100
AcDbSpline
 70
8
 71
3
 72
8
 73
4
 74
0
 40
0
 40
0
 40
0
 40
0
 40
1
 40
1
 40
1
 40
1
 10
125.641350
 20
71.196992
 30
0.0
 10
130.442638
 20
71.196992
 30
0.0
 10
134.347874
 20
75.102228
 30
0.0
 10
134.347874
 20
79.903516
 30
0.0
  0
SPLINE
  5
290
100
AcDbEntity
  8
0
 62
7
100
AcDbSpline
 70
8
 71
3
 72
8
 73
4
 74
0
 40
0
 40
0
 40
0
 40
0
 40
1
 40
1
 40
1
 40
1
 10
134.347874
 20
79.903516
 30
0.0
 10
134.347874
 20
84.704804
 30
0.0
 10
130.442638
 20
88.610040
 30
0.0
 10
125.641350
 20
88.610040
 30
0.0
  0
LWPOLYLINE
  5
291
100
AcDbEntity
  8
0
 62
7
100
AcDbPolyline
 90
4
 70
1
 10
115.701284
 20
62.381107
 30
0.0
 10
145.809582
 20
62.381107
 30
0.0
 10
145.809582
 20
61.750813
 30
0.0
 10
115.701284
 20
61.750813
 30
0.0
  0
SPLINE
  5
292
100
AcDbEntity
  8
0
 62
7
100
AcDbSpline
 70
8
 71
3
 72
8
 73
4
 74
0
 40
0
 40
0
 40
0
 40
0
 40
1
 40
1
 40
1
 40
1
 10
125.641350
 20
71.673240
 30
0.0
 10
121.101116
 20
71.673240
 30
0.0
 10
117.411074
 20
75.366810
 30
0.0
 10
117.411074
 20
79.903516
 30
0.0
  0
SPLINE
  5
293
100
AcDbEntity
  8
0
 62
7
100
AcDbSpline
 70
8
 71
3
 72
8
 73
4
 74
0
 40
0
 40
0
 40
0
 40
0
 40
1
 40
1
 40
1
 40
1
 10
117.411074
 20
79.903516
 30
0.0
 10
117.411074
 20
84.440221
 30
0.0
 10
121.104644
 20
88.133791
 30
0.0
 10
125.641350
 20
88.133791
 30
0.0
  0
SPLINE
  5
294
100
AcDbEntity
  8
0
 62
7
100
AcDbSpline
 70
8
 71
3
 72
8
 73
4
 74
0
 40
0
 40
0
 40
0
 40
0
 40
1
 40
1
 40
1
 40
1
 10
125.641350
 20
88.133791
 30
0.0
 10
130.178056
 20
88.133791
 30
0.0
 10
133.871626
 20
84.440221
 30
0.0
 10
133.871626
 20
79.903516
 30
0.0
  0
SPLINE
  5
295
100
AcDbEntity
  8
0
 62
7
100
AcDbSpline
 70
8
 71
3
 72
8
 73
4
 74
0
 40
0
 40
0
 40
0
 40
0
 40
1
 40
1
 40
1
 40
1
 10
133.871626
 20
79.903516
 30
0.0
 10
133.871626
 20
75.366810
 30
0.0
 10
130.178056
 20
71.673240
 30
0.0
 10
125.641350
 20
71.673240
 30
0.0
  0
LWPOLYLINE
  5
296
100
AcDbEntity
  8
0
 62
7
100
AcDbPolyline
 90
1
 70
1
 10
125.641350
 20
88.610040
 30
0.0
  0
LWPOLYLINE
  5
297
100
AcDbEntity
  8
0
 62
7
100
AcDbPolyline
 90
1
 70
1
 10
125.641350
 20
71.673240
 30
0.0
  0
LWPOLYLINE
  5
298
100
AcDbEntity
  8
0
 62
7
100
AcDbPolyline
 90
11
 70
1
 10
146.592746
 20
83.762891
 30
0.0
 10
146.592746
 20
93.019746
 30
0.0
 10
137.649862
 20
93.019746
 30
0.0
 10
137.649862
 20
75.592587
 30
0.0
 10
138.122582
 20
75.592587
 30
0.0
 10
138.122582
 20
83.766418
 30
0.0
 10
142.130123
 20
83.766418
 30
0.0
 10
146.239970
 20
75.592587
 30
0.0
 10
146.769134
 20
75.592587
 30
0.0
 10
142.659288
 20
83.766418
 30
0.0
 10
146.592746
 20
83.766418
 30
0.0
  0
LWPOLYLINE
  5
299
100
AcDbEntity
  8
0
 62
7
100
AcDbPolyline
 90
6
 70
1
 10
138.126110
 20
84.228556
 30
0.0
 10
138.126110
 20
92.547025
 30
0.0
 10
146.120026
 20
92.547025
 30
0.0
 10
146.120026
 20
84.239139
 30
0.0
 10
138.126110
 20
84.239139
 30
0.0
 10
138.126110
 20
84.232083
 30
0.0
  0
ENDSEC
  0
SECTION
  2
OBJECTS
  0
DICTIONARY
  5
C
330
0
100
AcDbDictionary
  3
ACAD_GROUP
350
D
  3
ACAD_MLINESTYLE
350
17
  0
DICTIONARY
  5
D
330
C
100
AcDbDictionary
  0
DICTIONARY
  5
1A
330
C
100
AcDbDictionary
  0
DICTIONARY
  5
17
330
C
100
AcDbDictionary
  3
STANDARD
350
18
  0
DICTIONARY
  5
19
330
C
100
AcDbDictionary
  0
ENDSEC
  0
EOF
