  0
SECTION
  2
HEADER
  9
$ACADVER
  1
AC1014
  9
$HANDSEED
  5
FFFF
  9
$MEASUREMENT
 70
     1
  0
ENDSEC
  0
SECTION
  2
TABLES
  0
TABLE
  2
VPORT
  5
8
330
0
100
AcDbSymbolTable
 70
     4
  0
VPORT
  5
2E
330
8
100
AcDbSymbolTableRecord
100
AcDbViewportTableRecord
  2
*ACTIVE
 70
     0
 10
0.0
 20
0.0
 11
1.0
 21
1.0
 12
210.0
 22
148.5
 13
0.0
 23
0.0
 14
10.0
 24
10.0
 15
10.0
 25
10.0
 16
0.0
 26
0.0
 36
1.0
 17
0.0
 27
0.0
 37
0.0
 40
341.0
 41
1.24
 42
50.0
 43
0.0
 44
0.0
 50
0.0
 51
0.0
 71
     0
 72
   100
 73
     1
 74
     3
 75
     0
 76
     0
 77
     0
 78
     0
  0
ENDTAB
  0
TABLE
  2
LTYPE
  5
5
330
0
100
AcDbSymbolTable
 70
     1
  0
LTYPE
  5
14
330
5
100
AcDbSymbolTableRecord
100
AcDbLinetypeTableRecord
  2
BYBLOCK
 70
     0
  3

 72
    65
 73
     0
 40
0.0
  0
LTYPE
  5
15
330
5
100
AcDbSymbolTableRecord
100
AcDbLinetypeTableRecord
  2
BYLAYER
 70
     0
  3

 72
    65
 73
     0
 40
0.0
  0
LTYPE
  5
16
330
5
100
AcDbSymbolTableRecord
100
AcDbLinetypeTableRecord
  2
CONTINUOUS
 70
     0
  3
Solid line
 72
    65
 73
     0
 40
0.0
  0
ENDTAB
  0
TABLE
  2
LAYER
  5
2
100
AcDbSymbolTable
 70
1
  0
LAYER
  5
50
100
AcDbSymbolTableRecord
100
AcDbLayerTableRecord
  2
0
 70
0
  6
CONTINUOUS
  0
ENDTAB
  0
TABLE
  2
STYLE
  5
3
330
0
100
AcDbSymbolTable
 70
     1
  0
STYLE
  5
11
330
3
100
AcDbSymbolTableRecord
100
AcDbTextStyleTableRecord
  2
STANDARD
 70
     0
 40
0.0
 41
1.0
 50
0.0
 71
     0
 42
2.5
  3
txt
  4

  0
ENDTAB
  0
TABLE
  2
VIEW
  5
6
330
0
100
AcDbSymbolTable
 70
     0
  0
ENDTAB
  0
TABLE
  2
UCS
  5
7
330
0
100
AcDbSymbolTable
 70
     0
  0
ENDTAB
  0
TABLE
  2
APPID
  5
9
330
0
100
AcDbSymbolTable
 70
     2
  0
APPID
  5
12
330
9
100
AcDbSymbolTableRecord
100
AcDbRegAppTableRecord
  2
ACAD
 70
     0
  0
ENDTAB
  0
TABLE
  2
DIMSTYLE
  5
A
330
0
100
AcDbSymbolTable
 70
     1
  0
DIMSTYLE
105
27
330
A
100
AcDbSymbolTableRecord
100
AcDbDimStyleTableRecord
  2
ISO-25
 70
     0
  3

  4

  5

  6

  7

 40
1.0
 41
2.5
 42
0.625
 43
3.75
 44
1.25
 45
0.0
 46
0.0
 47
0.0
 48
0.0
140
2.5
141
2.5
142
0.0
143
0.03937007874016
144
1.0
145
0.0
146
1.0
147
0.625
 71
     0
 72
     0
 73
     0
 74
     0
 75
     0
 76
     0
 77
     1
 78
     8
170
     0
171
     3
172
     1
173
     0
174
     0
175
     0
176
     0
177
     0
178
     0
270
     2
271
     2
272
     2
273
     2
274
     3
340
11
275
     0
280
     0
281
     0
282
     0
283
     0
284
     8
285
     0
286
     0
287
     3
288
     0
  0
ENDTAB
  0
TABLE
  2
BLOCK_RECORD
  5
1
330
0
100
AcDbSymbolTable
 70
     1
  0
BLOCK_RECORD
  5
1F
330
1
100
AcDbSymbolTableRecord
100
AcDbBlockTableRecord
  2
*MODEL_SPACE
  0
BLOCK_RECORD
  5
1B
330
1
100
AcDbSymbolTableRecord
100
AcDbBlockTableRecord
  2
*PAPER_SPACE
  0
ENDTAB
  0
ENDSEC
  0
SECTION
  2
BLOCKS
  0
BLOCK
  5
20
330
1F
100
AcDbEntity
  8
0
100
AcDbBlockBegin
  2
*MODEL_SPACE
 70
     0
 10
0.0
 20
0.0
 30
0.0
  3
*MODEL_SPACE
  1

  0
ENDBLK
  5
21
330
1F
100
AcDbEntity
  8
0
100
AcDbBlockEnd
  0
BLOCK
  5
1C
330
1B
100
AcDbEntity
 67
     1
  8
0
100
AcDbBlockBegin
  2
*PAPER_SPACE
  1

  0
ENDBLK
  5
1D
330
1B
100
AcDbEntity
 67
     1
  8
0
100
AcDbBlockEnd
  0
ENDSEC
  0
SECTION
  2
ENTITIES
  0
SPLINE
  5
100
100
AcDbEntity
  8
0
 62
7
100
AcDbSpline
 70
8
 71
3
 72
8
 73
4
 74
0
 40
0
 40
0
 40
0
 40
0
 40
1
 40
1
 40
1
 40
1
 10
18.186393
 20
50.823313
 30
0.0
 10
10.040441
 20
50.823313
 30
0.0
 10
3.436187
 20
44.219059
 30
0.0
 10
3.436187
 20
36.073107
 30
0.0
  0
SPLINE
  5
101
100
AcDbEntity
  8
0
 62
7
100
AcDbSpline
 70
8
 71
3
 72
8
 73
4
 74
0
 40
0
 40
0
 40
0
 40
0
 40
1
 40
1
 40
1
 40
1
 10
3.436187
 20
36.073107
 30
0.0
 10
3.436187
 20
27.927156
 30
0.0
 10
10.040441
 20
21.322902
 30
0.0
 10
18.186393
 20
21.322902
 30
0.0
  0
SPLINE
  5
102
100
AcDbEntity
  8
0
 62
7
100
AcDbSpline
 70
8
 71
3
 72
8
 73
4
 74
0
 40
0
 40
0
 40
0
 40
0
 40
1
 40
1
 40
1
 40
1
 10
18.186393
 20
21.322902
 30
0.0
 10
26.332344
 20
21.322902
 30
0.0
 10
32.936598
 20
27.927156
 30
0.0
 10
32.936598
 20
36.073107
 30
0.0
  0
SPLINE
  5
103
100
AcDbEntity
  8
0
 62
7
100
AcDbSpline
 70
8
 71
3
 72
8
 73
4
 74
0
 40
0
 40
0
 40
0
 40
0
 40
1
 40
1
 40
1
 40
1
 10
32.936598
 20
36.073107
 30
0.0
 10
32.936598
 20
44.219059
 30
0.0
 10
26.332344
 20
50.823313
 30
0.0
 10
18.186393
 20
50.823313
 30
0.0
  0
SPLINE
  5
104
100
AcDbEntity
  8
0
 62
7
100
AcDbSpline
 70
8
 71
3
 72
8
 73
4
 74
0
 40
0
 40
0
 40
0
 40
0
 40
1
 40
1
 40
1
 40
1
 10
18.186393
 20
23.820665
 30
0.0
 10
11.419855
 20
23.820665
 30
0.0
 10
5.937478
 20
29.306570
 30
0.0
 10
5.937478
 20
36.069579
 30
0.0
  0
SPLINE
  5
105
100
AcDbEntity
  8
0
 62
7
100
AcDbSpline
 70
8
 71
3
 72
8
 73
4
 74
0
 40
0
 40
0
 40
0
 40
0
 40
1
 40
1
 40
1
 40
1
 10
5.937478
 20
36.069579
 30
0.0
 10
5.937478
 20
42.832589
 30
0.0
 10
11.423383
 20
48.318494
 30
0.0
 10
18.186393
 20
48.318494
 30
0.0
  0
SPLINE
  5
106
100
AcDbEntity
  8
0
 62
7
100
AcDbSpline
 70
8
 71
3
 72
8
 73
4
 74
0
 40
0
 40
0
 40
0
 40
0
 40
1
 40
1
 40
1
 40
1
 10
18.186393
 20
48.318494
 30
0.0
 10
24.949402
 20
48.318494
 30
0.0
 10
30.435308
 20
42.832589
 30
0.0
 10
30.435308
 20
36.069579
 30
0.0
  0
SPLINE
  5
107
100
AcDbEntity
  8
0
 62
7
100
AcDbSpline
 70
8
 71
3
 72
8
 73
4
 74
0
 40
0
 40
0
 40
0
 40
0
 40
1
 40
1
 40
1
 40
1
 10
30.435308
 20
36.069579
 30
0.0
 10
30.435308
 20
29.306570
 30
0.0
 10
24.949402
 20
23.820665
 30
0.0
 10
18.186393
 20
23.820665
 30
0.0
  0
LWPOLYLINE
  5
108
100
AcDbEntity
  8
0
 62
7
100
AcDbPolyline
 90
1
 70
1
 10
18.186393
 20
50.823313
 30
0.0
  0
LWPOLYLINE
  5
109
100
AcDbEntity
  8
0
 62
7
100
AcDbPolyline
 90
2
 70
1
 10
18.186393
 20
23.820665
 30
0.0
 10
18.186393
 20
23.820665
 30
0.0
  0
SPLINE
  5
10a
100
AcDbEntity
  8
0
 62
7
100
AcDbSpline
 70
8
 71
3
 72
8
 73
4
 74
0
 40
0
 40
0
 40
0
 40
0
 40
1
 40
1
 40
1
 40
1
 10
38.249635
 20
37.364324
 30
0.0
 10
38.637706
 20
37.364324
 30
0.0
 10
38.951690
 20
37.050339
 30
0.0
 10
38.951690
 20
36.662269
 30
0.0
  0
LWPOLYLINE
  5
10b
100
AcDbEntity
  8
0
 62
7
100
AcDbPolyline
 90
5
 70
0
 10
52.534156
 20
38.436809
 30
0.0
 10
53.155069
 20
47.313039
 30
0.0
 10
35.998827
 20
47.313039
 30
0.0
 10
35.998827
 20
37.364324
 30
0.0
 10
38.249635
 20
37.364324
 30
0.0
  0
SPLINE
  5
10c
100
AcDbEntity
  8
0
 62
7
100
AcDbSpline
 70
8
 71
3
 72
8
 73
4
 74
0
 40
0
 40
0
 40
0
 40
0
 40
1
 40
1
 40
1
 40
1
 10
53.183292
 20
37.692420
 30
0.0
 10
52.798750
 20
37.720643
 30
0.0
 10
52.505933
 20
38.055795
 30
0.0
 10
52.534156
 20
38.440337
 30
0.0
  0
LWPOLYLINE
  5
10d
100
AcDbEntity
  8
0
 62
7
100
AcDbPolyline
 90
6
 70
0
 10
38.951690
 20
36.662269
 30
0.0
 10
38.976385
 20
30.160325
 30
0.0
 10
54.957832
 20
30.160325
 30
0.0
 10
70.050245
 20
29.101951
 30
0.0
 10
71.380269
 20
36.418843
 30
0.0
 10
53.183292
 20
37.692420
 30
0.0
  0
SPLINE
  5
10e
100
AcDbEntity
  8
0
 62
7
100
AcDbSpline
 70
8
 71
3
 72
8
 73
4
 74
0
 40
0
 40
0
 40
0
 40
0
 40
1
 40
1
 40
1
 40
1
 10
41.569402
 20
34.753668
 30
0.0
 10
41.294224
 20
34.753668
 30
0.0
 10
41.068438
 20
34.975926
 30
0.0
 10
41.068438
 20
35.254631
 30
0.0
  0
SPLINE
  5
10f
100
AcDbEntity
  8
0
 62
7
100
AcDbSpline
 70
8
 71
3
 72
8
 73
4
 74
0
 40
0
 40
0
 40
0
 40
0
 40
1
 40
1
 40
1
 40
1
 10
41.068438
 20
35.254631
 30
0.0
 10
41.068438
 20
35.533337
 30
0.0
 10
41.290697
 20
35.755595
 30
0.0
 10
41.569402
 20
35.755595
 30
0.0
  0
SPLINE
  5
110
100
AcDbEntity
  8
0
 62
7
100
AcDbSpline
 70
8
 71
3
 72
8
 73
4
 74
0
 40
0
 40
0
 40
0
 40
0
 40
1
 40
1
 40
1
 40
1
 10
41.569402
 20
35.755595
 30
0.0
 10
41.848107
 20
35.755595
 30
0.0
 10
42.070365
 20
35.533337
 30
0.0
 10
42.070365
 20
35.254631
 30
0.0
  0
SPLINE
  5
111
100
AcDbEntity
  8
0
 62
7
100
AcDbSpline
 70
8
 71
3
 72
8
 73
4
 74
0
 40
0
 40
0
 40
0
 40
0
 40
1
 40
1
 40
1
 40
1
 10
42.070365
 20
35.254631
 30
0.0
 10
42.070365
 20
34.975926
 30
0.0
 10
41.848107
 20
34.753668
 30
0.0
 10
41.569402
 20
34.753668
 30
0.0
  0
LWPOLYLINE
  5
112
100
AcDbEntity
  8
0
 62
7
100
AcDbPolyline
 90
3
 70
0
 10
52.534156
 20
38.440337
 30
0.0
 10
52.534156
 20
38.440337
 30
0.0
 10
52.534156
 20
38.436809
 30
0.0
  0
SPLINE
  5
113
100
AcDbEntity
  8
0
 62
7
100
AcDbSpline
 70
8
 71
3
 72
8
 73
4
 74
0
 40
0
 40
0
 40
0
 40
0
 40
1
 40
1
 40
1
 40
1
 10
41.569402
 20
36.753995
 30
0.0
 10
41.294224
 20
36.753995
 30
0.0
 10
41.068438
 20
36.976253
 30
0.0
 10
41.068438
 20
37.254958
 30
0.0
  0
SPLINE
  5
114
100
AcDbEntity
  8
0
 62
7
100
AcDbSpline
 70
8
 71
3
 72
8
 73
4
 74
0
 40
0
 40
0
 40
0
 40
0
 40
1
 40
1
 40
1
 40
1
 10
41.068438
 20
37.254958
 30
0.0
 10
41.068438
 20
37.533663
 30
0.0
 10
41.290697
 20
37.755922
 30
0.0
 10
41.569402
 20
37.755922
 30
0.0
  0
SPLINE
  5
115
100
AcDbEntity
  8
0
 62
7
100
AcDbSpline
 70
8
 71
3
 72
8
 73
4
 74
0
 40
0
 40
0
 40
0
 40
0
 40
1
 40
1
 40
1
 40
1
 10
41.569402
 20
37.755922
 30
0.0
 10
41.848107
 20
37.755922
 30
0.0
 10
42.070365
 20
37.533663
 30
0.0
 10
42.070365
 20
37.254958
 30
0.0
  0
SPLINE
  5
116
100
AcDbEntity
  8
0
 62
7
100
AcDbSpline
 70
8
 71
3
 72
8
 73
4
 74
0
 40
0
 40
0
 40
0
 40
0
 40
1
 40
1
 40
1
 40
1
 10
42.070365
 20
37.254958
 30
0.0
 10
42.070365
 20
36.976253
 30
0.0
 10
41.848107
 20
36.753995
 30
0.0
 10
41.569402
 20
36.753995
 30
0.0
  0
LWPOLYLINE
  5
117
100
AcDbEntity
  8
0
 62
7
100
AcDbPolyline
 90
1
 70
1
 10
41.569402
 20
34.753668
 30
0.0
  0
SPLINE
  5
118
100
AcDbEntity
  8
0
 62
7
100
AcDbSpline
 70
8
 71
3
 72
8
 73
4
 74
0
 40
0
 40
0
 40
0
 40
0
 40
1
 40
1
 40
1
 40
1
 10
41.569402
 20
38.754321
 30
0.0
 10
41.294224
 20
38.754321
 30
0.0
 10
41.068438
 20
38.976580
 30
0.0
 10
41.068438
 20
39.255285
 30
0.0
  0
SPLINE
  5
119
100
AcDbEntity
  8
0
 62
7
100
AcDbSpline
 70
8
 71
3
 72
8
 73
4
 74
0
 40
0
 40
0
 40
0
 40
0
 40
1
 40
1
 40
1
 40
1
 10
41.068438
 20
39.255285
 30
0.0
 10
41.068438
 20
39.533990
 30
0.0
 10
41.290697
 20
39.756249
 30
0.0
 10
41.569402
 20
39.756249
 30
0.0
  0
SPLINE
  5
11a
100
AcDbEntity
  8
0
 62
7
100
AcDbSpline
 70
8
 71
3
 72
8
 73
4
 74
0
 40
0
 40
0
 40
0
 40
0
 40
1
 40
1
 40
1
 40
1
 10
41.569402
 20
39.756249
 30
0.0
 10
41.848107
 20
39.756249
 30
0.0
 10
42.070365
 20
39.533990
 30
0.0
 10
42.070365
 20
39.255285
 30
0.0
  0
SPLINE
  5
11b
100
AcDbEntity
  8
0
 62
7
100
AcDbSpline
 70
8
 71
3
 72
8
 73
4
 74
0
 40
0
 40
0
 40
0
 40
0
 40
1
 40
1
 40
1
 40
1
 10
42.070365
 20
39.255285
 30
0.0
 10
42.070365
 20
38.976580
 30
0.0
 10
41.848107
 20
38.754321
 30
0.0
 10
41.569402
 20
38.754321
 30
0.0
  0
LWPOLYLINE
  5
11c
100
AcDbEntity
  8
0
 62
7
100
AcDbPolyline
 90
1
 70
1
 10
41.569402
 20
36.753995
 30
0.0
  0
SPLINE
  5
11d
100
AcDbEntity
  8
0
 62
7
100
AcDbSpline
 70
8
 71
3
 72
8
 73
4
 74
0
 40
0
 40
0
 40
0
 40
0
 40
1
 40
1
 40
1
 40
1
 10
41.569402
 20
40.754648
 30
0.0
 10
41.294224
 20
40.754648
 30
0.0
 10
41.068438
 20
40.976907
 30
0.0
 10
41.068438
 20
41.255612
 30
0.0
  0
SPLINE
  5
11e
100
AcDbEntity
  8
0
 62
7
100
AcDbSpline
 70
8
 71
3
 72
8
 73
4
 74
0
 40
0
 40
0
 40
0
 40
0
 40
1
 40
1
 40
1
 40
1
 10
41.068438
 20
41.255612
 30
0.0
 10
41.068438
 20
41.534317
 30
0.0
 10
41.290697
 20
41.756576
 30
0.0
 10
41.569402
 20
41.756576
 30
0.0
  0
SPLINE
  5
11f
100
AcDbEntity
  8
0
 62
7
100
AcDbSpline
 70
8
 71
3
 72
8
 73
4
 74
0
 40
0
 40
0
 40
0
 40
0
 40
1
 40
1
 40
1
 40
1
 10
41.569402
 20
41.756576
 30
0.0
 10
41.848107
 20
41.756576
 30
0.0
 10
42.070365
 20
41.534317
 30
0.0
 10
42.070365
 20
41.255612
 30
0.0
  0
SPLINE
  5
120
100
AcDbEntity
  8
0
 62
7
100
AcDbSpline
 70
8
 71
3
 72
8
 73
4
 74
0
 40
0
 40
0
 40
0
 40
0
 40
1
 40
1
 40
1
 40
1
 10
42.070365
 20
41.255612
 30
0.0
 10
42.070365
 20
40.976907
 30
0.0
 10
41.848107
 20
40.754648
 30
0.0
 10
41.569402
 20
40.754648
 30
0.0
  0
LWPOLYLINE
  5
121
100
AcDbEntity
  8
0
 62
7
100
AcDbPolyline
 90
1
 70
1
 10
41.569402
 20
38.754321
 30
0.0
  0
SPLINE
  5
122
100
AcDbEntity
  8
0
 62
7
100
AcDbSpline
 70
8
 71
3
 72
8
 73
4
 74
0
 40
0
 40
0
 40
0
 40
0
 40
1
 40
1
 40
1
 40
1
 10
41.569402
 20
42.754975
 30
0.0
 10
41.294224
 20
42.754975
 30
0.0
 10
41.068438
 20
42.977234
 30
0.0
 10
41.068438
 20
43.255939
 30
0.0
  0
SPLINE
  5
123
100
AcDbEntity
  8
0
 62
7
100
AcDbSpline
 70
8
 71
3
 72
8
 73
4
 74
0
 40
0
 40
0
 40
0
 40
0
 40
1
 40
1
 40
1
 40
1
 10
41.068438
 20
43.255939
 30
0.0
 10
41.068438
 20
43.534644
 30
0.0
 10
41.290697
 20
43.756902
 30
0.0
 10
41.569402
 20
43.756902
 30
0.0
  0
SPLINE
  5
124
100
AcDbEntity
  8
0
 62
7
100
AcDbSpline
 70
8
 71
3
 72
8
 73
4
 74
0
 40
0
 40
0
 40
0
 40
0
 40
1
 40
1
 40
1
 40
1
 10
41.569402
 20
43.756902
 30
0.0
 10
41.848107
 20
43.756902
 30
0.0
 10
42.070365
 20
43.534644
 30
0.0
 10
42.070365
 20
43.255939
 30
0.0
  0
SPLINE
  5
125
100
AcDbEntity
  8
0
 62
7
100
AcDbSpline
 70
8
 71
3
 72
8
 73
4
 74
0
 40
0
 40
0
 40
0
 40
0
 40
1
 40
1
 40
1
 40
1
 10
42.070365
 20
43.255939
 30
0.0
 10
42.070365
 20
42.977234
 30
0.0
 10
41.848107
 20
42.754975
 30
0.0
 10
41.569402
 20
42.754975
 30
0.0
  0
LWPOLYLINE
  5
126
100
AcDbEntity
  8
0
 62
7
100
AcDbPolyline
 90
1
 70
1
 10
41.569402
 20
40.754648
 30
0.0
  0
SPLINE
  5
127
100
AcDbEntity
  8
0
 62
7
100
AcDbSpline
 70
8
 71
3
 72
8
 73
4
 74
0
 40
0
 40
0
 40
0
 40
0
 40
1
 40
1
 40
1
 40
1
 10
43.569729
 20
34.753668
 30
0.0
 10
43.294551
 20
34.753668
 30
0.0
 10
43.068765
 20
34.975926
 30
0.0
 10
43.068765
 20
35.254631
 30
0.0
  0
SPLINE
  5
128
100
AcDbEntity
  8
0
 62
7
100
AcDbSpline
 70
8
 71
3
 72
8
 73
4
 74
0
 40
0
 40
0
 40
0
 40
0
 40
1
 40
1
 40
1
 40
1
 10
43.068765
 20
35.254631
 30
0.0
 10
43.068765
 20
35.533337
 30
0.0
 10
43.291023
 20
35.755595
 30
0.0
 10
43.569729
 20
35.755595
 30
0.0
  0
SPLINE
  5
129
100
AcDbEntity
  8
0
 62
7
100
AcDbSpline
 70
8
 71
3
 72
8
 73
4
 74
0
 40
0
 40
0
 40
0
 40
0
 40
1
 40
1
 40
1
 40
1
 10
43.569729
 20
35.755595
 30
0.0
 10
43.848434
 20
35.755595
 30
0.0
 10
44.070692
 20
35.533337
 30
0.0
 10
44.070692
 20
35.254631
 30
0.0
  0
SPLINE
  5
12a
100
AcDbEntity
  8
0
 62
7
100
AcDbSpline
 70
8
 71
3
 72
8
 73
4
 74
0
 40
0
 40
0
 40
0
 40
0
 40
1
 40
1
 40
1
 40
1
 10
44.070692
 20
35.254631
 30
0.0
 10
44.070692
 20
34.975926
 30
0.0
 10
43.848434
 20
34.753668
 30
0.0
 10
43.569729
 20
34.753668
 30
0.0
  0
LWPOLYLINE
  5
12b
100
AcDbEntity
  8
0
 62
7
100
AcDbPolyline
 90
1
 70
1
 10
41.569402
 20
42.754975
 30
0.0
  0
SPLINE
  5
12c
100
AcDbEntity
  8
0
 62
7
100
AcDbSpline
 70
8
 71
3
 72
8
 73
4
 74
0
 40
0
 40
0
 40
0
 40
0
 40
1
 40
1
 40
1
 40
1
 10
43.569729
 20
36.753995
 30
0.0
 10
43.294551
 20
36.753995
 30
0.0
 10
43.068765
 20
36.976253
 30
0.0
 10
43.068765
 20
37.254958
 30
0.0
  0
SPLINE
  5
12d
100
AcDbEntity
  8
0
 62
7
100
AcDbSpline
 70
8
 71
3
 72
8
 73
4
 74
0
 40
0
 40
0
 40
0
 40
0
 40
1
 40
1
 40
1
 40
1
 10
43.068765
 20
37.254958
 30
0.0
 10
43.068765
 20
37.533663
 30
0.0
 10
43.291023
 20
37.755922
 30
0.0
 10
43.569729
 20
37.755922
 30
0.0
  0
SPLINE
  5
12e
100
AcDbEntity
  8
0
 62
7
100
AcDbSpline
 70
8
 71
3
 72
8
 73
4
 74
0
 40
0
 40
0
 40
0
 40
0
 40
1
 40
1
 40
1
 40
1
 10
43.569729
 20
37.755922
 30
0.0
 10
43.848434
 20
37.755922
 30
0.0
 10
44.070692
 20
37.533663
 30
0.0
 10
44.070692
 20
37.254958
 30
0.0
  0
SPLINE
  5
12f
100
AcDbEntity
  8
0
 62
7
100
AcDbSpline
 70
8
 71
3
 72
8
 73
4
 74
0
 40
0
 40
0
 40
0
 40
0
 40
1
 40
1
 40
1
 40
1
 10
44.070692
 20
37.254958
 30
0.0
 10
44.070692
 20
36.976253
 30
0.0
 10
43.848434
 20
36.753995
 30
0.0
 10
43.569729
 20
36.753995
 30
0.0
  0
LWPOLYLINE
  5
130
100
AcDbEntity
  8
0
 62
7
100
AcDbPolyline
 90
1
 70
1
 10
43.569729
 20
34.753668
 30
0.0
  0
SPLINE
  5
131
100
AcDbEntity
  8
0
 62
7
100
AcDbSpline
 70
8
 71
3
 72
8
 73
4
 74
0
 40
0
 40
0
 40
0
 40
0
 40
1
 40
1
 40
1
 40
1
 10
43.569729
 20
38.754321
 30
0.0
 10
43.294551
 20
38.754321
 30
0.0
 10
43.068765
 20
38.976580
 30
0.0
 10
43.068765
 20
39.255285
 30
0.0
  0
SPLINE
  5
132
100
AcDbEntity
  8
0
 62
7
100
AcDbSpline
 70
8
 71
3
 72
8
 73
4
 74
0
 40
0
 40
0
 40
0
 40
0
 40
1
 40
1
 40
1
 40
1
 10
43.068765
 20
39.255285
 30
0.0
 10
43.068765
 20
39.533990
 30
0.0
 10
43.291023
 20
39.756249
 30
0.0
 10
43.569729
 20
39.756249
 30
0.0
  0
SPLINE
  5
133
100
AcDbEntity
  8
0
 62
7
100
AcDbSpline
 70
8
 71
3
 72
8
 73
4
 74
0
 40
0
 40
0
 40
0
 40
0
 40
1
 40
1
 40
1
 40
1
 10
43.569729
 20
39.756249
 30
0.0
 10
43.848434
 20
39.756249
 30
0.0
 10
44.070692
 20
39.533990
 30
0.0
 10
44.070692
 20
39.255285
 30
0.0
  0
SPLINE
  5
134
100
AcDbEntity
  8
0
 62
7
100
AcDbSpline
 70
8
 71
3
 72
8
 73
4
 74
0
 40
0
 40
0
 40
0
 40
0
 40
1
 40
1
 40
1
 40
1
 10
44.070692
 20
39.255285
 30
0.0
 10
44.070692
 20
38.976580
 30
0.0
 10
43.848434
 20
38.754321
 30
0.0
 10
43.569729
 20
38.754321
 30
0.0
  0
LWPOLYLINE
  5
135
100
AcDbEntity
  8
0
 62
7
100
AcDbPolyline
 90
1
 70
1
 10
43.569729
 20
36.753995
 30
0.0
  0
SPLINE
  5
136
100
AcDbEntity
  8
0
 62
7
100
AcDbSpline
 70
8
 71
3
 72
8
 73
4
 74
0
 40
0
 40
0
 40
0
 40
0
 40
1
 40
1
 40
1
 40
1
 10
43.569729
 20
40.754648
 30
0.0
 10
43.294551
 20
40.754648
 30
0.0
 10
43.068765
 20
40.976907
 30
0.0
 10
43.068765
 20
41.255612
 30
0.0
  0
SPLINE
  5
137
100
AcDbEntity
  8
0
 62
7
100
AcDbSpline
 70
8
 71
3
 72
8
 73
4
 74
0
 40
0
 40
0
 40
0
 40
0
 40
1
 40
1
 40
1
 40
1
 10
43.068765
 20
41.255612
 30
0.0
 10
43.068765
 20
41.534317
 30
0.0
 10
43.291023
 20
41.756576
 30
0.0
 10
43.569729
 20
41.756576
 30
0.0
  0
SPLINE
  5
138
100
AcDbEntity
  8
0
 62
7
100
AcDbSpline
 70
8
 71
3
 72
8
 73
4
 74
0
 40
0
 40
0
 40
0
 40
0
 40
1
 40
1
 40
1
 40
1
 10
43.569729
 20
41.756576
 30
0.0
 10
43.848434
 20
41.756576
 30
0.0
 10
44.070692
 20
41.534317
 30
0.0
 10
44.070692
 20
41.255612
 30
0.0
  0
SPLINE
  5
139
100
AcDbEntity
  8
0
 62
7
100
AcDbSpline
 70
8
 71
3
 72
8
 73
4
 74
0
 40
0
 40
0
 40
0
 40
0
 40
1
 40
1
 40
1
 40
1
 10
44.070692
 20
41.255612
 30
0.0
 10
44.070692
 20
40.976907
 30
0.0
 10
43.848434
 20
40.754648
 30
0.0
 10
43.569729
 20
40.754648
 30
0.0
  0
LWPOLYLINE
  5
13a
100
AcDbEntity
  8
0
 62
7
100
AcDbPolyline
 90
1
 70
1
 10
43.569729
 20
38.754321
 30
0.0
  0
SPLINE
  5
13b
100
AcDbEntity
  8
0
 62
7
100
AcDbSpline
 70
8
 71
3
 72
8
 73
4
 74
0
 40
0
 40
0
 40
0
 40
0
 40
1
 40
1
 40
1
 40
1
 10
43.569729
 20
42.754975
 30
0.0
 10
43.294551
 20
42.754975
 30
0.0
 10
43.068765
 20
42.977234
 30
0.0
 10
43.068765
 20
43.255939
 30
0.0
  0
SPLINE
  5
13c
100
AcDbEntity
  8
0
 62
7
100
AcDbSpline
 70
8
 71
3
 72
8
 73
4
 74
0
 40
0
 40
0
 40
0
 40
0
 40
1
 40
1
 40
1
 40
1
 10
43.068765
 20
43.255939
 30
0.0
 10
43.068765
 20
43.534644
 30
0.0
 10
43.291023
 20
43.756902
 30
0.0
 10
43.569729
 20
43.756902
 30
0.0
  0
SPLINE
  5
13d
100
AcDbEntity
  8
0
 62
7
100
AcDbSpline
 70
8
 71
3
 72
8
 73
4
 74
0
 40
0
 40
0
 40
0
 40
0
 40
1
 40
1
 40
1
 40
1
 10
43.569729
 20
43.756902
 30
0.0
 10
43.848434
 20
43.756902
 30
0.0
 10
44.070692
 20
43.534644
 30
0.0
 10
44.070692
 20
43.255939
 30
0.0
  0
SPLINE
  5
13e
100
AcDbEntity
  8
0
 62
7
100
AcDbSpline
 70
8
 71
3
 72
8
 73
4
 74
0
 40
0
 40
0
 40
0
 40
0
 40
1
 40
1
 40
1
 40
1
 10
44.070692
 20
43.255939
 30
0.0
 10
44.070692
 20
42.977234
 30
0.0
 10
43.848434
 20
42.754975
 30
0.0
 10
43.569729
 20
42.754975
 30
0.0
  0
LWPOLYLINE
  5
13f
100
AcDbEntity
  8
0
 62
7
100
AcDbPolyline
 90
1
 70
1
 10
43.569729
 20
40.754648
 30
0.0
  0
SPLINE
  5
140
100
AcDbEntity
  8
0
 62
7
100
AcDbSpline
 70
8
 71
3
 72
8
 73
4
 74
0
 40
0
 40
0
 40
0
 40
0
 40
1
 40
1
 40
1
 40
1
 10
45.570055
 20
34.753668
 30
0.0
 10
45.294878
 20
34.753668
 30
0.0
 10
45.069092
 20
34.975926
 30
0.0
 10
45.069092
 20
35.254631
 30
0.0
  0
SPLINE
  5
141
100
AcDbEntity
  8
0
 62
7
100
AcDbSpline
 70
8
 71
3
 72
8
 73
4
 74
0
 40
0
 40
0
 40
0
 40
0
 40
1
 40
1
 40
1
 40
1
 10
45.069092
 20
35.254631
 30
0.0
 10
45.069092
 20
35.533337
 30
0.0
 10
45.291350
 20
35.755595
 30
0.0
 10
45.570055
 20
35.755595
 30
0.0
  0
SPLINE
  5
142
100
AcDbEntity
  8
0
 62
7
100
AcDbSpline
 70
8
 71
3
 72
8
 73
4
 74
0
 40
0
 40
0
 40
0
 40
0
 40
1
 40
1
 40
1
 40
1
 10
45.570055
 20
35.755595
 30
0.0
 10
45.848760
 20
35.755595
 30
0.0
 10
46.071019
 20
35.533337
 30
0.0
 10
46.071019
 20
35.254631
 30
0.0
  0
SPLINE
  5
143
100
AcDbEntity
  8
0
 62
7
100
AcDbSpline
 70
8
 71
3
 72
8
 73
4
 74
0
 40
0
 40
0
 40
0
 40
0
 40
1
 40
1
 40
1
 40
1
 10
46.071019
 20
35.254631
 30
0.0
 10
46.071019
 20
34.975926
 30
0.0
 10
45.848760
 20
34.753668
 30
0.0
 10
45.570055
 20
34.753668
 30
0.0
  0
LWPOLYLINE
  5
144
100
AcDbEntity
  8
0
 62
7
100
AcDbPolyline
 90
1
 70
1
 10
43.569729
 20
42.754975
 30
0.0
  0
SPLINE
  5
145
100
AcDbEntity
  8
0
 62
7
100
AcDbSpline
 70
8
 71
3
 72
8
 73
4
 74
0
 40
0
 40
0
 40
0
 40
0
 40
1
 40
1
 40
1
 40
1
 10
45.570055
 20
36.753995
 30
0.0
 10
45.294878
 20
36.753995
 30
0.0
 10
45.069092
 20
36.976253
 30
0.0
 10
45.069092
 20
37.254958
 30
0.0
  0
SPLINE
  5
146
100
AcDbEntity
  8
0
 62
7
100
AcDbSpline
 70
8
 71
3
 72
8
 73
4
 74
0
 40
0
 40
0
 40
0
 40
0
 40
1
 40
1
 40
1
 40
1
 10
45.069092
 20
37.254958
 30
0.0
 10
45.069092
 20
37.533663
 30
0.0
 10
45.291350
 20
37.755922
 30
0.0
 10
45.570055
 20
37.755922
 30
0.0
  0
SPLINE
  5
147
100
AcDbEntity
  8
0
 62
7
100
AcDbSpline
 70
8
 71
3
 72
8
 73
4
 74
0
 40
0
 40
0
 40
0
 40
0
 40
1
 40
1
 40
1
 40
1
 10
45.570055
 20
37.755922
 30
0.0
 10
45.848760
 20
37.755922
 30
0.0
 10
46.071019
 20
37.533663
 30
0.0
 10
46.071019
 20
37.254958
 30
0.0
  0
SPLINE
  5
148
100
AcDbEntity
  8
0
 62
7
100
AcDbSpline
 70
8
 71
3
 72
8
 73
4
 74
0
 40
0
 40
0
 40
0
 40
0
 40
1
 40
1
 40
1
 40
1
 10
46.071019
 20
37.254958
 30
0.0
 10
46.071019
 20
36.976253
 30
0.0
 10
45.848760
 20
36.753995
 30
0.0
 10
45.570055
 20
36.753995
 30
0.0
  0
LWPOLYLINE
  5
149
100
AcDbEntity
  8
0
 62
7
100
AcDbPolyline
 90
1
 70
1
 10
45.570055
 20
34.753668
 30
0.0
  0
SPLINE
  5
14a
100
AcDbEntity
  8
0
 62
7
100
AcDbSpline
 70
8
 71
3
 72
8
 73
4
 74
0
 40
0
 40
0
 40
0
 40
0
 40
1
 40
1
 40
1
 40
1
 10
45.570055
 20
38.754321
 30
0.0
 10
45.294878
 20
38.754321
 30
0.0
 10
45.069092
 20
38.976580
 30
0.0
 10
45.069092
 20
39.255285
 30
0.0
  0
SPLINE
  5
14b
100
AcDbEntity
  8
0
 62
7
100
AcDbSpline
 70
8
 71
3
 72
8
 73
4
 74
0
 40
0
 40
0
 40
0
 40
0
 40
1
 40
1
 40
1
 40
1
 10
45.069092
 20
39.255285
 30
0.0
 10
45.069092
 20
39.533990
 30
0.0
 10
45.291350
 20
39.756249
 30
0.0
 10
45.570055
 20
39.756249
 30
0.0
  0
SPLINE
  5
14c
100
AcDbEntity
  8
0
 62
7
100
AcDbSpline
 70
8
 71
3
 72
8
 73
4
 74
0
 40
0
 40
0
 40
0
 40
0
 40
1
 40
1
 40
1
 40
1
 10
45.570055
 20
39.756249
 30
0.0
 10
45.848760
 20
39.756249
 30
0.0
 10
46.071019
 20
39.533990
 30
0.0
 10
46.071019
 20
39.255285
 30
0.0
  0
SPLINE
  5
14d
100
AcDbEntity
  8
0
 62
7
100
AcDbSpline
 70
8
 71
3
 72
8
 73
4
 74
0
 40
0
 40
0
 40
0
 40
0
 40
1
 40
1
 40
1
 40
1
 10
46.071019
 20
39.255285
 30
0.0
 10
46.071019
 20
38.976580
 30
0.0
 10
45.848760
 20
38.754321
 30
0.0
 10
45.570055
 20
38.754321
 30
0.0
  0
LWPOLYLINE
  5
14e
100
AcDbEntity
  8
0
 62
7
100
AcDbPolyline
 90
1
 70
1
 10
45.570055
 20
36.753995
 30
0.0
  0
SPLINE
  5
14f
100
AcDbEntity
  8
0
 62
7
100
AcDbSpline
 70
8
 71
3
 72
8
 73
4
 74
0
 40
0
 40
0
 40
0
 40
0
 40
1
 40
1
 40
1
 40
1
 10
45.570055
 20
40.754648
 30
0.0
 10
45.294878
 20
40.754648
 30
0.0
 10
45.069092
 20
40.976907
 30
0.0
 10
45.069092
 20
41.255612
 30
0.0
  0
SPLINE
  5
150
100
AcDbEntity
  8
0
 62
7
100
AcDbSpline
 70
8
 71
3
 72
8
 73
4
 74
0
 40
0
 40
0
 40
0
 40
0
 40
1
 40
1
 40
1
 40
1
 10
45.069092
 20
41.255612
 30
0.0
 10
45.069092
 20
41.534317
 30
0.0
 10
45.291350
 20
41.756576
 30
0.0
 10
45.570055
 20
41.756576
 30
0.0
  0
SPLINE
  5
151
100
AcDbEntity
  8
0
 62
7
100
AcDbSpline
 70
8
 71
3
 72
8
 73
4
 74
0
 40
0
 40
0
 40
0
 40
0
 40
1
 40
1
 40
1
 40
1
 10
45.570055
 20
41.756576
 30
0.0
 10
45.848760
 20
41.756576
 30
0.0
 10
46.071019
 20
41.534317
 30
0.0
 10
46.071019
 20
41.255612
 30
0.0
  0
SPLINE
  5
152
100
AcDbEntity
  8
0
 62
7
100
AcDbSpline
 70
8
 71
3
 72
8
 73
4
 74
0
 40
0
 40
0
 40
0
 40
0
 40
1
 40
1
 40
1
 40
1
 10
46.071019
 20
41.255612
 30
0.0
 10
46.071019
 20
40.976907
 30
0.0
 10
45.848760
 20
40.754648
 30
0.0
 10
45.570055
 20
40.754648
 30
0.0
  0
LWPOLYLINE
  5
153
100
AcDbEntity
  8
0
 62
7
100
AcDbPolyline
 90
1
 70
1
 10
45.570055
 20
38.754321
 30
0.0
  0
SPLINE
  5
154
100
AcDbEntity
  8
0
 62
7
100
AcDbSpline
 70
8
 71
3
 72
8
 73
4
 74
0
 40
0
 40
0
 40
0
 40
0
 40
1
 40
1
 40
1
 40
1
 10
45.570055
 20
42.754975
 30
0.0
 10
45.294878
 20
42.754975
 30
0.0
 10
45.069092
 20
42.977234
 30
0.0
 10
45.069092
 20
43.255939
 30
0.0
  0
SPLINE
  5
155
100
AcDbEntity
  8
0
 62
7
100
AcDbSpline
 70
8
 71
3
 72
8
 73
4
 74
0
 40
0
 40
0
 40
0
 40
0
 40
1
 40
1
 40
1
 40
1
 10
45.069092
 20
43.255939
 30
0.0
 10
45.069092
 20
43.534644
 30
0.0
 10
45.291350
 20
43.756902
 30
0.0
 10
45.570055
 20
43.756902
 30
0.0
  0
SPLINE
  5
156
100
AcDbEntity
  8
0
 62
7
100
AcDbSpline
 70
8
 71
3
 72
8
 73
4
 74
0
 40
0
 40
0
 40
0
 40
0
 40
1
 40
1
 40
1
 40
1
 10
45.570055
 20
43.756902
 30
0.0
 10
45.848760
 20
43.756902
 30
0.0
 10
46.071019
 20
43.534644
 30
0.0
 10
46.071019
 20
43.255939
 30
0.0
  0
SPLINE
  5
157
100
AcDbEntity
  8
0
 62
7
100
AcDbSpline
 70
8
 71
3
 72
8
 73
4
 74
0
 40
0
 40
0
 40
0
 40
0
 40
1
 40
1
 40
1
 40
1
 10
46.071019
 20
43.255939
 30
0.0
 10
46.071019
 20
42.977234
 30
0.0
 10
45.848760
 20
42.754975
 30
0.0
 10
45.570055
 20
42.754975
 30
0.0
  0
LWPOLYLINE
  5
158
100
AcDbEntity
  8
0
 62
7
100
AcDbPolyline
 90
1
 70
1
 10
45.570055
 20
40.754648
 30
0.0
  0
SPLINE
  5
159
100
AcDbEntity
  8
0
 62
7
100
AcDbSpline
 70
8
 71
3
 72
8
 73
4
 74
0
 40
0
 40
0
 40
0
 40
0
 40
1
 40
1
 40
1
 40
1
 10
47.570382
 20
34.753668
 30
0.0
 10
47.295205
 20
34.753668
 30
0.0
 10
47.069418
 20
34.975926
 30
0.0
 10
47.069418
 20
35.254631
 30
0.0
  0
SPLINE
  5
15a
100
AcDbEntity
  8
0
 62
7
100
AcDbSpline
 70
8
 71
3
 72
8
 73
4
 74
0
 40
0
 40
0
 40
0
 40
0
 40
1
 40
1
 40
1
 40
1
 10
47.069418
 20
35.254631
 30
0.0
 10
47.069418
 20
35.533337
 30
0.0
 10
47.291677
 20
35.755595
 30
0.0
 10
47.570382
 20
35.755595
 30
0.0
  0
SPLINE
  5
15b
100
AcDbEntity
  8
0
 62
7
100
AcDbSpline
 70
8
 71
3
 72
8
 73
4
 74
0
 40
0
 40
0
 40
0
 40
0
 40
1
 40
1
 40
1
 40
1
 10
47.570382
 20
35.755595
 30
0.0
 10
47.849087
 20
35.755595
 30
0.0
 10
48.071346
 20
35.533337
 30
0.0
 10
48.071346
 20
35.254631
 30
0.0
  0
SPLINE
  5
15c
100
AcDbEntity
  8
0
 62
7
100
AcDbSpline
 70
8
 71
3
 72
8
 73
4
 74
0
 40
0
 40
0
 40
0
 40
0
 40
1
 40
1
 40
1
 40
1
 10
48.071346
 20
35.254631
 30
0.0
 10
48.071346
 20
34.975926
 30
0.0
 10
47.849087
 20
34.753668
 30
0.0
 10
47.570382
 20
34.753668
 30
0.0
  0
LWPOLYLINE
  5
15d
100
AcDbEntity
  8
0
 62
7
100
AcDbPolyline
 90
1
 70
1
 10
45.570055
 20
42.754975
 30
0.0
  0
SPLINE
  5
15e
100
AcDbEntity
  8
0
 62
7
100
AcDbSpline
 70
8
 71
3
 72
8
 73
4
 74
0
 40
0
 40
0
 40
0
 40
0
 40
1
 40
1
 40
1
 40
1
 10
47.570382
 20
36.753995
 30
0.0
 10
47.295205
 20
36.753995
 30
0.0
 10
47.069418
 20
36.976253
 30
0.0
 10
47.069418
 20
37.254958
 30
0.0
  0
SPLINE
  5
15f
100
AcDbEntity
  8
0
 62
7
100
AcDbSpline
 70
8
 71
3
 72
8
 73
4
 74
0
 40
0
 40
0
 40
0
 40
0
 40
1
 40
1
 40
1
 40
1
 10
47.069418
 20
37.254958
 30
0.0
 10
47.069418
 20
37.533663
 30
0.0
 10
47.291677
 20
37.755922
 30
0.0
 10
47.570382
 20
37.755922
 30
0.0
  0
SPLINE
  5
160
100
AcDbEntity
  8
0
 62
7
100
AcDbSpline
 70
8
 71
3
 72
8
 73
4
 74
0
 40
0
 40
0
 40
0
 40
0
 40
1
 40
1
 40
1
 40
1
 10
47.570382
 20
37.755922
 30
0.0
 10
47.849087
 20
37.755922
 30
0.0
 10
48.071346
 20
37.533663
 30
0.0
 10
48.071346
 20
37.254958
 30
0.0
  0
SPLINE
  5
161
100
AcDbEntity
  8
0
 62
7
100
AcDbSpline
 70
8
 71
3
 72
8
 73
4
 74
0
 40
0
 40
0
 40
0
 40
0
 40
1
 40
1
 40
1
 40
1
 10
48.071346
 20
37.254958
 30
0.0
 10
48.071346
 20
36.976253
 30
0.0
 10
47.849087
 20
36.753995
 30
0.0
 10
47.570382
 20
36.753995
 30
0.0
  0
LWPOLYLINE
  5
162
100
AcDbEntity
  8
0
 62
7
100
AcDbPolyline
 90
1
 70
1
 10
47.570382
 20
34.753668
 30
0.0
  0
SPLINE
  5
163
100
AcDbEntity
  8
0
 62
7
100
AcDbSpline
 70
8
 71
3
 72
8
 73
4
 74
0
 40
0
 40
0
 40
0
 40
0
 40
1
 40
1
 40
1
 40
1
 10
47.570382
 20
38.754321
 30
0.0
 10
47.295205
 20
38.754321
 30
0.0
 10
47.069418
 20
38.976580
 30
0.0
 10
47.069418
 20
39.255285
 30
0.0
  0
SPLINE
  5
164
100
AcDbEntity
  8
0
 62
7
100
AcDbSpline
 70
8
 71
3
 72
8
 73
4
 74
0
 40
0
 40
0
 40
0
 40
0
 40
1
 40
1
 40
1
 40
1
 10
47.069418
 20
39.255285
 30
0.0
 10
47.069418
 20
39.533990
 30
0.0
 10
47.291677
 20
39.756249
 30
0.0
 10
47.570382
 20
39.756249
 30
0.0
  0
SPLINE
  5
165
100
AcDbEntity
  8
0
 62
7
100
AcDbSpline
 70
8
 71
3
 72
8
 73
4
 74
0
 40
0
 40
0
 40
0
 40
0
 40
1
 40
1
 40
1
 40
1
 10
47.570382
 20
39.756249
 30
0.0
 10
47.849087
 20
39.756249
 30
0.0
 10
48.071346
 20
39.533990
 30
0.0
 10
48.071346
 20
39.255285
 30
0.0
  0
SPLINE
  5
166
100
AcDbEntity
  8
0
 62
7
100
AcDbSpline
 70
8
 71
3
 72
8
 73
4
 74
0
 40
0
 40
0
 40
0
 40
0
 40
1
 40
1
 40
1
 40
1
 10
48.071346
 20
39.255285
 30
0.0
 10
48.071346
 20
38.976580
 30
0.0
 10
47.849087
 20
38.754321
 30
0.0
 10
47.570382
 20
38.754321
 30
0.0
  0
LWPOLYLINE
  5
167
100
AcDbEntity
  8
0
 62
7
100
AcDbPolyline
 90
1
 70
1
 10
47.570382
 20
36.753995
 30
0.0
  0
SPLINE
  5
168
100
AcDbEntity
  8
0
 62
7
100
AcDbSpline
 70
8
 71
3
 72
8
 73
4
 74
0
 40
0
 40
0
 40
0
 40
0
 40
1
 40
1
 40
1
 40
1
 10
47.570382
 20
40.754648
 30
0.0
 10
47.295205
 20
40.754648
 30
0.0
 10
47.069418
 20
40.976907
 30
0.0
 10
47.069418
 20
41.255612
 30
0.0
  0
SPLINE
  5
169
100
AcDbEntity
  8
0
 62
7
100
AcDbSpline
 70
8
 71
3
 72
8
 73
4
 74
0
 40
0
 40
0
 40
0
 40
0
 40
1
 40
1
 40
1
 40
1
 10
47.069418
 20
41.255612
 30
0.0
 10
47.069418
 20
41.534317
 30
0.0
 10
47.291677
 20
41.756576
 30
0.0
 10
47.570382
 20
41.756576
 30
0.0
  0
SPLINE
  5
16a
100
AcDbEntity
  8
0
 62
7
100
AcDbSpline
 70
8
 71
3
 72
8
 73
4
 74
0
 40
0
 40
0
 40
0
 40
0
 40
1
 40
1
 40
1
 40
1
 10
47.570382
 20
41.756576
 30
0.0
 10
47.849087
 20
41.756576
 30
0.0
 10
48.071346
 20
41.534317
 30
0.0
 10
48.071346
 20
41.255612
 30
0.0
  0
SPLINE
  5
16b
100
AcDbEntity
  8
0
 62
7
100
AcDbSpline
 70
8
 71
3
 72
8
 73
4
 74
0
 40
0
 40
0
 40
0
 40
0
 40
1
 40
1
 40
1
 40
1
 10
48.071346
 20
41.255612
 30
0.0
 10
48.071346
 20
40.976907
 30
0.0
 10
47.849087
 20
40.754648
 30
0.0
 10
47.570382
 20
40.754648
 30
0.0
  0
LWPOLYLINE
  5
16c
100
AcDbEntity
  8
0
 62
7
100
AcDbPolyline
 90
1
 70
1
 10
47.570382
 20
38.754321
 30
0.0
  0
SPLINE
  5
16d
100
AcDbEntity
  8
0
 62
7
100
AcDbSpline
 70
8
 71
3
 72
8
 73
4
 74
0
 40
0
 40
0
 40
0
 40
0
 40
1
 40
1
 40
1
 40
1
 10
47.570382
 20
42.754975
 30
0.0
 10
47.295205
 20
42.754975
 30
0.0
 10
47.069418
 20
42.977234
 30
0.0
 10
47.069418
 20
43.255939
 30
0.0
  0
SPLINE
  5
16e
100
AcDbEntity
  8
0
 62
7
100
AcDbSpline
 70
8
 71
3
 72
8
 73
4
 74
0
 40
0
 40
0
 40
0
 40
0
 40
1
 40
1
 40
1
 40
1
 10
47.069418
 20
43.255939
 30
0.0
 10
47.069418
 20
43.534644
 30
0.0
 10
47.291677
 20
43.756902
 30
0.0
 10
47.570382
 20
43.756902
 30
0.0
  0
SPLINE
  5
16f
100
AcDbEntity
  8
0
 62
7
100
AcDbSpline
 70
8
 71
3
 72
8
 73
4
 74
0
 40
0
 40
0
 40
0
 40
0
 40
1
 40
1
 40
1
 40
1
 10
47.570382
 20
43.756902
 30
0.0
 10
47.849087
 20
43.756902
 30
0.0
 10
48.071346
 20
43.534644
 30
0.0
 10
48.071346
 20
43.255939
 30
0.0
  0
SPLINE
  5
170
100
AcDbEntity
  8
0
 62
7
100
AcDbSpline
 70
8
 71
3
 72
8
 73
4
 74
0
 40
0
 40
0
 40
0
 40
0
 40
1
 40
1
 40
1
 40
1
 10
48.071346
 20
43.255939
 30
0.0
 10
48.071346
 20
42.977234
 30
0.0
 10
47.849087
 20
42.754975
 30
0.0
 10
47.570382
 20
42.754975
 30
0.0
  0
LWPOLYLINE
  5
171
100
AcDbEntity
  8
0
 62
7
100
AcDbPolyline
 90
1
 70
1
 10
47.570382
 20
40.754648
 30
0.0
  0
SPLINE
  5
172
100
AcDbEntity
  8
0
 62
7
100
AcDbSpline
 70
8
 71
3
 72
8
 73
4
 74
0
 40
0
 40
0
 40
0
 40
0
 40
1
 40
1
 40
1
 40
1
 10
49.570709
 20
34.753668
 30
0.0
 10
49.295532
 20
34.753668
 30
0.0
 10
49.069745
 20
34.975926
 30
0.0
 10
49.069745
 20
35.254631
 30
0.0
  0
SPLINE
  5
173
100
AcDbEntity
  8
0
 62
7
100
AcDbSpline
 70
8
 71
3
 72
8
 73
4
 74
0
 40
0
 40
0
 40
0
 40
0
 40
1
 40
1
 40
1
 40
1
 10
49.069745
 20
35.254631
 30
0.0
 10
49.069745
 20
35.533337
 30
0.0
 10
49.292004
 20
35.755595
 30
0.0
 10
49.570709
 20
35.755595
 30
0.0
  0
SPLINE
  5
174
100
AcDbEntity
  8
0
 62
7
100
AcDbSpline
 70
8
 71
3
 72
8
 73
4
 74
0
 40
0
 40
0
 40
0
 40
0
 40
1
 40
1
 40
1
 40
1
 10
49.570709
 20
35.755595
 30
0.0
 10
49.849414
 20
35.755595
 30
0.0
 10
50.071673
 20
35.533337
 30
0.0
 10
50.071673
 20
35.254631
 30
0.0
  0
SPLINE
  5
175
100
AcDbEntity
  8
0
 62
7
100
AcDbSpline
 70
8
 71
3
 72
8
 73
4
 74
0
 40
0
 40
0
 40
0
 40
0
 40
1
 40
1
 40
1
 40
1
 10
50.071673
 20
35.254631
 30
0.0
 10
50.071673
 20
34.975926
 30
0.0
 10
49.849414
 20
34.753668
 30
0.0
 10
49.570709
 20
34.753668
 30
0.0
  0
LWPOLYLINE
  5
176
100
AcDbEntity
  8
0
 62
7
100
AcDbPolyline
 90
1
 70
1
 10
47.570382
 20
42.754975
 30
0.0
  0
SPLINE
  5
177
100
AcDbEntity
  8
0
 62
7
100
AcDbSpline
 70
8
 71
3
 72
8
 73
4
 74
0
 40
0
 40
0
 40
0
 40
0
 40
1
 40
1
 40
1
 40
1
 10
49.570709
 20
36.753995
 30
0.0
 10
49.295532
 20
36.753995
 30
0.0
 10
49.069745
 20
36.976253
 30
0.0
 10
49.069745
 20
37.254958
 30
0.0
  0
SPLINE
  5
178
100
AcDbEntity
  8
0
 62
7
100
AcDbSpline
 70
8
 71
3
 72
8
 73
4
 74
0
 40
0
 40
0
 40
0
 40
0
 40
1
 40
1
 40
1
 40
1
 10
49.069745
 20
37.254958
 30
0.0
 10
49.069745
 20
37.533663
 30
0.0
 10
49.292004
 20
37.755922
 30
0.0
 10
49.570709
 20
37.755922
 30
0.0
  0
SPLINE
  5
179
100
AcDbEntity
  8
0
 62
7
100
AcDbSpline
 70
8
 71
3
 72
8
 73
4
 74
0
 40
0
 40
0
 40
0
 40
0
 40
1
 40
1
 40
1
 40
1
 10
49.570709
 20
37.755922
 30
0.0
 10
49.849414
 20
37.755922
 30
0.0
 10
50.071673
 20
37.533663
 30
0.0
 10
50.071673
 20
37.254958
 30
0.0
  0
SPLINE
  5
17a
100
AcDbEntity
  8
0
 62
7
100
AcDbSpline
 70
8
 71
3
 72
8
 73
4
 74
0
 40
0
 40
0
 40
0
 40
0
 40
1
 40
1
 40
1
 40
1
 10
50.071673
 20
37.254958
 30
0.0
 10
50.071673
 20
36.976253
 30
0.0
 10
49.849414
 20
36.753995
 30
0.0
 10
49.570709
 20
36.753995
 30
0.0
  0
LWPOLYLINE
  5
17b
100
AcDbEntity
  8
0
 62
7
100
AcDbPolyline
 90
1
 70
1
 10
49.570709
 20
34.753668
 30
0.0
  0
SPLINE
  5
17c
100
AcDbEntity
  8
0
 62
7
100
AcDbSpline
 70
8
 71
3
 72
8
 73
4
 74
0
 40
0
 40
0
 40
0
 40
0
 40
1
 40
1
 40
1
 40
1
 10
49.570709
 20
38.754321
 30
0.0
 10
49.295532
 20
38.754321
 30
0.0
 10
49.069745
 20
38.976580
 30
0.0
 10
49.069745
 20
39.255285
 30
0.0
  0
SPLINE
  5
17d
100
AcDbEntity
  8
0
 62
7
100
AcDbSpline
 70
8
 71
3
 72
8
 73
4
 74
0
 40
0
 40
0
 40
0
 40
0
 40
1
 40
1
 40
1
 40
1
 10
49.069745
 20
39.255285
 30
0.0
 10
49.069745
 20
39.533990
 30
0.0
 10
49.292004
 20
39.756249
 30
0.0
 10
49.570709
 20
39.756249
 30
0.0
  0
SPLINE
  5
17e
100
AcDbEntity
  8
0
 62
7
100
AcDbSpline
 70
8
 71
3
 72
8
 73
4
 74
0
 40
0
 40
0
 40
0
 40
0
 40
1
 40
1
 40
1
 40
1
 10
49.570709
 20
39.756249
 30
0.0
 10
49.849414
 20
39.756249
 30
0.0
 10
50.071673
 20
39.533990
 30
0.0
 10
50.071673
 20
39.255285
 30
0.0
  0
SPLINE
  5
17f
100
AcDbEntity
  8
0
 62
7
100
AcDbSpline
 70
8
 71
3
 72
8
 73
4
 74
0
 40
0
 40
0
 40
0
 40
0
 40
1
 40
1
 40
1
 40
1
 10
50.071673
 20
39.255285
 30
0.0
 10
50.071673
 20
38.976580
 30
0.0
 10
49.849414
 20
38.754321
 30
0.0
 10
49.570709
 20
38.754321
 30
0.0
  0
LWPOLYLINE
  5
180
100
AcDbEntity
  8
0
 62
7
100
AcDbPolyline
 90
1
 70
1
 10
49.570709
 20
36.753995
 30
0.0
  0
SPLINE
  5
181
100
AcDbEntity
  8
0
 62
7
100
AcDbSpline
 70
8
 71
3
 72
8
 73
4
 74
0
 40
0
 40
0
 40
0
 40
0
 40
1
 40
1
 40
1
 40
1
 10
49.570709
 20
40.754648
 30
0.0
 10
49.295532
 20
40.754648
 30
0.0
 10
49.069745
 20
40.976907
 30
0.0
 10
49.069745
 20
41.255612
 30
0.0
  0
SPLINE
  5
182
100
AcDbEntity
  8
0
 62
7
100
AcDbSpline
 70
8
 71
3
 72
8
 73
4
 74
0
 40
0
 40
0
 40
0
 40
0
 40
1
 40
1
 40
1
 40
1
 10
49.069745
 20
41.255612
 30
0.0
 10
49.069745
 20
41.534317
 30
0.0
 10
49.292004
 20
41.756576
 30
0.0
 10
49.570709
 20
41.756576
 30
0.0
  0
SPLINE
  5
183
100
AcDbEntity
  8
0
 62
7
100
AcDbSpline
 70
8
 71
3
 72
8
 73
4
 74
0
 40
0
 40
0
 40
0
 40
0
 40
1
 40
1
 40
1
 40
1
 10
49.570709
 20
41.756576
 30
0.0
 10
49.849414
 20
41.756576
 30
0.0
 10
50.071673
 20
41.534317
 30
0.0
 10
50.071673
 20
41.255612
 30
0.0
  0
SPLINE
  5
184
100
AcDbEntity
  8
0
 62
7
100
AcDbSpline
 70
8
 71
3
 72
8
 73
4
 74
0
 40
0
 40
0
 40
0
 40
0
 40
1
 40
1
 40
1
 40
1
 10
50.071673
 20
41.255612
 30
0.0
 10
50.071673
 20
40.976907
 30
0.0
 10
49.849414
 20
40.754648
 30
0.0
 10
49.570709
 20
40.754648
 30
0.0
  0
LWPOLYLINE
  5
185
100
AcDbEntity
  8
0
 62
7
100
AcDbPolyline
 90
1
 70
1
 10
49.570709
 20
38.754321
 30
0.0
  0
SPLINE
  5
186
100
AcDbEntity
  8
0
 62
7
100
AcDbSpline
 70
8
 71
3
 72
8
 73
4
 74
0
 40
0
 40
0
 40
0
 40
0
 40
1
 40
1
 40
1
 40
1
 10
49.570709
 20
42.754975
 30
0.0
 10
49.295532
 20
42.754975
 30
0.0
 10
49.069745
 20
42.977234
 30
0.0
 10
49.069745
 20
43.255939
 30
0.0
  0
SPLINE
  5
187
100
AcDbEntity
  8
0
 62
7
100
AcDbSpline
 70
8
 71
3
 72
8
 73
4
 74
0
 40
0
 40
0
 40
0
 40
0
 40
1
 40
1
 40
1
 40
1
 10
49.069745
 20
43.255939
 30
0.0
 10
49.069745
 20
43.534644
 30
0.0
 10
49.292004
 20
43.756902
 30
0.0
 10
49.570709
 20
43.756902
 30
0.0
  0
SPLINE
  5
188
100
AcDbEntity
  8
0
 62
7
100
AcDbSpline
 70
8
 71
3
 72
8
 73
4
 74
0
 40
0
 40
0
 40
0
 40
0
 40
1
 40
1
 40
1
 40
1
 10
49.570709
 20
43.756902
 30
0.0
 10
49.849414
 20
43.756902
 30
0.0
 10
50.071673
 20
43.534644
 30
0.0
 10
50.071673
 20
43.255939
 30
0.0
  0
SPLINE
  5
189
100
AcDbEntity
  8
0
 62
7
100
AcDbSpline
 70
8
 71
3
 72
8
 73
4
 74
0
 40
0
 40
0
 40
0
 40
0
 40
1
 40
1
 40
1
 40
1
 10
50.071673
 20
43.255939
 30
0.0
 10
50.071673
 20
42.977234
 30
0.0
 10
49.849414
 20
42.754975
 30
0.0
 10
49.570709
 20
42.754975
 30
0.0
  0
LWPOLYLINE
  5
18a
100
AcDbEntity
  8
0
 62
7
100
AcDbPolyline
 90
1
 70
1
 10
49.570709
 20
40.754648
 30
0.0
  0
SPLINE
  5
18b
100
AcDbEntity
  8
0
 62
7
100
AcDbSpline
 70
8
 71
3
 72
8
 73
4
 74
0
 40
0
 40
0
 40
0
 40
0
 40
1
 40
1
 40
1
 40
1
 10
66.977433
 20
34.129227
 30
0.0
 10
67.556011
 20
34.129227
 30
0.0
 10
68.028751
 20
33.660015
 30
0.0
 10
68.028751
 20
33.077909
 30
0.0
  0
SPLINE
  5
18c
100
AcDbEntity
  8
0
 62
7
100
AcDbSpline
 70
8
 71
3
 72
8
 73
4
 74
0
 40
0
 40
0
 40
0
 40
0
 40
1
 40
1
 40
1
 40
1
 10
68.028751
 20
33.077909
 30
0.0
 10
68.028751
 20
32.495803
 30
0.0
 10
67.559539
 20
32.026591
 30
0.0
 10
66.977433
 20
32.026591
 30
0.0
  0
SPLINE
  5
18d
100
AcDbEntity
  8
0
 62
7
100
AcDbSpline
 70
8
 71
3
 72
8
 73
4
 74
0
 40
0
 40
0
 40
0
 40
0
 40
1
 40
1
 40
1
 40
1
 10
66.977433
 20
32.026591
 30
0.0
 10
66.395327
 20
32.026591
 30
0.0
 10
65.926115
 20
32.495803
 30
0.0
 10
65.926115
 20
33.077909
 30
0.0
  0
SPLINE
  5
18e
100
AcDbEntity
  8
0
 62
7
100
AcDbSpline
 70
8
 71
3
 72
8
 73
4
 74
0
 40
0
 40
0
 40
0
 40
0
 40
1
 40
1
 40
1
 40
1
 10
65.926115
 20
33.077909
 30
0.0
 10
65.926115
 20
33.660015
 30
0.0
 10
66.395327
 20
34.129227
 30
0.0
 10
66.977433
 20
34.129227
 30
0.0
  0
LWPOLYLINE
  5
18f
100
AcDbEntity
  8
0
 62
7
100
AcDbPolyline
 90
1
 70
1
 10
49.570709
 20
42.754975
 30
0.0
  0
SPLINE
  5
190
100
AcDbEntity
  8
0
 62
7
100
AcDbSpline
 70
8
 71
3
 72
8
 73
4
 74
0
 40
0
 40
0
 40
0
 40
0
 40
1
 40
1
 40
1
 40
1
 10
55.402350
 20
34.901840
 30
0.0
 10
55.980927
 20
34.901840
 30
0.0
 10
56.453668
 20
34.432628
 30
0.0
 10
56.453668
 20
33.850522
 30
0.0
  0
SPLINE
  5
191
100
AcDbEntity
  8
0
 62
7
100
AcDbSpline
 70
8
 71
3
 72
8
 73
4
 74
0
 40
0
 40
0
 40
0
 40
0
 40
1
 40
1
 40
1
 40
1
 10
56.453668
 20
33.850522
 30
0.0
 10
56.453668
 20
33.268416
 30
0.0
 10
55.984455
 20
32.799204
 30
0.0
 10
55.402350
 20
32.799204
 30
0.0
  0
SPLINE
  5
192
100
AcDbEntity
  8
0
 62
7
100
AcDbSpline
 70
8
 71
3
 72
8
 73
4
 74
0
 40
0
 40
0
 40
0
 40
0
 40
1
 40
1
 40
1
 40
1
 10
55.402350
 20
32.799204
 30
0.0
 10
54.820244
 20
32.799204
 30
0.0
 10
54.351031
 20
33.268416
 30
0.0
 10
54.351031
 20
33.850522
 30
0.0
  0
SPLINE
  5
193
100
AcDbEntity
  8
0
 62
7
100
AcDbSpline
 70
8
 71
3
 72
8
 73
4
 74
0
 40
0
 40
0
 40
0
 40
0
 40
1
 40
1
 40
1
 40
1
 10
54.351031
 20
33.850522
 30
0.0
 10
54.351031
 20
34.432628
 30
0.0
 10
54.820244
 20
34.901840
 30
0.0
 10
55.402350
 20
34.901840
 30
0.0
  0
LWPOLYLINE
  5
194
100
AcDbEntity
  8
0
 62
7
100
AcDbPolyline
 90
1
 70
1
 10
66.977433
 20
34.129227
 30
0.0
  0
SPLINE
  5
195
100
AcDbEntity
  8
0
 62
7
100
AcDbSpline
 70
8
 71
3
 72
8
 73
4
 74
0
 40
0
 40
0
 40
0
 40
0
 40
1
 40
1
 40
1
 40
1
 10
120.891003
 20
96.890804
 30
0.0
 10
120.502933
 20
96.890804
 30
0.0
 10
120.192476
 20
96.576819
 30
0.0
 10
120.192476
 20
96.192277
 30
0.0
  0
LWPOLYLINE
  5
196
100
AcDbEntity
  8
0
 62
7
100
AcDbPolyline
 90
1
 70
1
 10
55.402350
 20
34.901840
 30
0.0
  0
SPLINE
  5
197
100
AcDbEntity
  8
0
 62
7
100
AcDbSpline
 70
8
 71
3
 72
8
 73
4
 74
0
 40
0
 40
0
 40
0
 40
0
 40
1
 40
1
 40
1
 40
1
 10
120.192476
 20
0.751640
 30
0.0
 10
120.192476
 20
0.363570
 30
0.0
 10
120.506460
 20
0.053113
 30
0.0
 10
120.891003
 20
0.053113
 30
0.0
  0
LWPOLYLINE
  5
198
100
AcDbEntity
  8
0
 62
7
100
AcDbPolyline
 90
2
 70
0
 10
120.192476
 20
96.192277
 30
0.0
 10
120.192476
 20
0.751640
 30
0.0
  0
SPLINE
  5
199
100
AcDbEntity
  8
0
 62
7
100
AcDbSpline
 70
8
 71
3
 72
8
 73
4
 74
0
 40
0
 40
0
 40
0
 40
0
 40
1
 40
1
 40
1
 40
1
 10
127.752794
 20
13.416849
 30
0.0
 10
127.558759
 20
13.752000
 30
0.0
 10
127.675180
 20
14.178878
 30
0.0
 10
128.010332
 20
14.372913
 30
0.0
  0
LWPOLYLINE
  5
19a
100
AcDbEntity
  8
0
 62
7
100
AcDbPolyline
 90
3
 70
0
 10
120.891003
 20
0.053113
 30
0.0
 10
135.464813
 20
0.053113
 30
0.0
 10
127.752794
 20
13.416849
 30
0.0
  0
SPLINE
  5
19b
100
AcDbEntity
  8
0
 62
7
100
AcDbSpline
 70
8
 71
3
 72
8
 73
4
 74
0
 40
0
 40
0
 40
0
 40
0
 40
1
 40
1
 40
1
 40
1
 10
136.498491
 20
19.273184
 30
0.0
 10
140.873104
 20
21.799170
 30
0.0
 10
145.462919
 20
23.986477
 30
0.0
 10
150.070373
 20
25.761017
 30
0.0
  0
LWPOLYLINE
  5
19c
100
AcDbEntity
  8
0
 62
7
100
AcDbPolyline
 90
2
 70
0
 10
128.010332
 20
14.372913
 30
0.0
 10
136.498491
 20
19.273184
 30
0.0
  0
SPLINE
  5
19d
100
AcDbEntity
  8
0
 62
7
100
AcDbSpline
 70
8
 71
3
 72
8
 73
4
 74
0
 40
0
 40
0
 40
0
 40
0
 40
1
 40
1
 40
1
 40
1
 10
150.098597
 20
88.212137
 30
0.0
 10
150.098597
 20
88.600208
 30
0.0
 10
150.412581
 20
88.910664
 30
0.0
 10
150.800651
 20
88.910664
 30
0.0
  0
LWPOLYLINE
  5
19e
100
AcDbEntity
  8
0
 62
7
100
AcDbPolyline
 90
2
 70
0
 10
150.070373
 20
25.761017
 30
0.0
 10
150.098597
 20
88.212137
 30
0.0
  0
SPLINE
  5
19f
100
AcDbEntity
  8
0
 62
7
100
AcDbSpline
 70
8
 71
3
 72
8
 73
4
 74
0
 40
0
 40
0
 40
0
 40
0
 40
1
 40
1
 40
1
 40
1
 10
169.096409
 20
91.221447
 30
0.0
 10
169.096409
 20
91.609518
 30
0.0
 10
169.410394
 20
91.923502
 30
0.0
 10
169.798464
 20
91.923502
 30
0.0
  0
LWPOLYLINE
  5
1a0
100
AcDbEntity
  8
0
 62
7
100
AcDbPolyline
 90
3
 70
0
 10
150.800651
 20
88.910664
 30
0.0
 10
169.096409
 20
88.910664
 30
0.0
 10
169.096409
 20
91.221447
 30
0.0
  0
SPLINE
  5
1a1
100
AcDbEntity
  8
0
 62
7
100
AcDbSpline
 70
8
 71
3
 72
8
 73
4
 74
0
 40
0
 40
0
 40
0
 40
0
 40
1
 40
1
 40
1
 40
1
 10
122.796076
 20
95.327938
 30
0.0
 10
123.374654
 20
95.327938
 30
0.0
 10
123.847394
 20
94.858726
 30
0.0
 10
123.847394
 20
94.276620
 30
0.0
  0
SPLINE
  5
1a2
100
AcDbEntity
  8
0
 62
7
100
AcDbSpline
 70
8
 71
3
 72
8
 73
4
 74
0
 40
0
 40
0
 40
0
 40
0
 40
1
 40
1
 40
1
 40
1
 10
123.847394
 20
94.276620
 30
0.0
 10
123.847394
 20
93.694514
 30
0.0
 10
123.378182
 20
93.225302
 30
0.0
 10
122.796076
 20
93.225302
 30
0.0
  0
SPLINE
  5
1a3
100
AcDbEntity
  8
0
 62
7
100
AcDbSpline
 70
8
 71
3
 72
8
 73
4
 74
0
 40
0
 40
0
 40
0
 40
0
 40
1
 40
1
 40
1
 40
1
 10
122.796076
 20
93.225302
 30
0.0
 10
122.213970
 20
93.225302
 30
0.0
 10
121.744758
 20
93.694514
 30
0.0
 10
121.744758
 20
94.276620
 30
0.0
  0
SPLINE
  5
1a4
100
AcDbEntity
  8
0
 62
7
100
AcDbSpline
 70
8
 71
3
 72
8
 73
4
 74
0
 40
0
 40
0
 40
0
 40
0
 40
1
 40
1
 40
1
 40
1
 10
121.744758
 20
94.276620
 30
0.0
 10
121.744758
 20
94.858726
 30
0.0
 10
122.213970
 20
95.327938
 30
0.0
 10
122.796076
 20
95.327938
 30
0.0
  0
LWPOLYLINE
  5
1a5
100
AcDbEntity
  8
0
 62
7
100
AcDbPolyline
 90
5
 70
0
 10
169.798464
 20
91.923502
 30
0.0
 10
188.122446
 20
91.923502
 30
0.0
 10
188.108334
 20
96.894332
 30
0.0
 10
120.891003
 20
96.894332
 30
0.0
 10
120.891003
 20
96.890804
 30
0.0
  0
SPLINE
  5
1a6
100
AcDbEntity
  8
0
 62
7
100
AcDbSpline
 70
8
 71
3
 72
8
 73
4
 74
0
 40
0
 40
0
 40
0
 40
0
 40
1
 40
1
 40
1
 40
1
 10
122.796076
 20
13.794335
 30
0.0
 10
122.217498
 20
13.794335
 30
0.0
 10
121.744758
 20
14.263548
 30
0.0
 10
121.744758
 20
14.845653
 30
0.0
  0
SPLINE
  5
1a7
100
AcDbEntity
  8
0
 62
7
100
AcDbSpline
 70
8
 71
3
 72
8
 73
4
 74
0
 40
0
 40
0
 40
0
 40
0
 40
1
 40
1
 40
1
 40
1
 10
121.744758
 20
14.845653
 30
0.0
 10
121.744758
 20
15.427759
 30
0.0
 10
122.213970
 20
15.896972
 30
0.0
 10
122.796076
 20
15.896972
 30
0.0
  0
SPLINE
  5
1a8
100
AcDbEntity
  8
0
 62
7
100
AcDbSpline
 70
8
 71
3
 72
8
 73
4
 74
0
 40
0
 40
0
 40
0
 40
0
 40
1
 40
1
 40
1
 40
1
 10
122.796076
 20
15.896972
 30
0.0
 10
123.378182
 20
15.896972
 30
0.0
 10
123.847394
 20
15.427759
 30
0.0
 10
123.847394
 20
14.845653
 30
0.0
  0
SPLINE
  5
1a9
100
AcDbEntity
  8
0
 62
7
100
AcDbSpline
 70
8
 71
3
 72
8
 73
4
 74
0
 40
0
 40
0
 40
0
 40
0
 40
1
 40
1
 40
1
 40
1
 10
123.847394
 20
14.845653
 30
0.0
 10
123.847394
 20
14.263548
 30
0.0
 10
123.378182
 20
13.794335
 30
0.0
 10
122.796076
 20
13.794335
 30
0.0
  0
LWPOLYLINE
  5
1aa
100
AcDbEntity
  8
0
 62
7
100
AcDbPolyline
 90
1
 70
1
 10
122.796076
 20
95.327938
 30
0.0
  0
SPLINE
  5
1ab
100
AcDbEntity
  8
0
 62
7
100
AcDbSpline
 70
8
 71
3
 72
8
 73
4
 74
0
 40
0
 40
0
 40
0
 40
0
 40
1
 40
1
 40
1
 40
1
 10
135.150828
 20
23.820665
 30
0.0
 10
128.384291
 20
23.820665
 30
0.0
 10
122.901914
 20
29.306570
 30
0.0
 10
122.901914
 20
36.069579
 30
0.0
  0
SPLINE
  5
1ac
100
AcDbEntity
  8
0
 62
7
100
AcDbSpline
 70
8
 71
3
 72
8
 73
4
 74
0
 40
0
 40
0
 40
0
 40
0
 40
1
 40
1
 40
1
 40
1
 10
122.901914
 20
36.069579
 30
0.0
 10
122.901914
 20
42.832589
 30
0.0
 10
128.387819
 20
48.318494
 30
0.0
 10
135.150828
 20
48.318494
 30
0.0
  0
SPLINE
  5
1ad
100
AcDbEntity
  8
0
 62
7
100
AcDbSpline
 70
8
 71
3
 72
8
 73
4
 74
0
 40
0
 40
0
 40
0
 40
0
 40
1
 40
1
 40
1
 40
1
 10
135.150828
 20
48.318494
 30
0.0
 10
141.913838
 20
48.318494
 30
0.0
 10
147.399743
 20
42.832589
 30
0.0
 10
147.399743
 20
36.069579
 30
0.0
  0
SPLINE
  5
1ae
100
AcDbEntity
  8
0
 62
7
100
AcDbSpline
 70
8
 71
3
 72
8
 73
4
 74
0
 40
0
 40
0
 40
0
 40
0
 40
1
 40
1
 40
1
 40
1
 10
147.399743
 20
36.069579
 30
0.0
 10
147.399743
 20
29.306570
 30
0.0
 10
141.913838
 20
23.820665
 30
0.0
 10
135.150828
 20
23.820665
 30
0.0
  0
LWPOLYLINE
  5
1af
100
AcDbEntity
  8
0
 62
7
100
AcDbPolyline
 90
1
 70
1
 10
122.796076
 20
13.794335
 30
0.0
  0
SPLINE
  5
1b0
100
AcDbEntity
  8
0
 62
7
100
AcDbSpline
 70
8
 71
3
 72
8
 73
4
 74
0
 40
0
 40
0
 40
0
 40
0
 40
1
 40
1
 40
1
 40
1
 10
184.869710
 20
93.197079
 30
0.0
 10
184.291132
 20
93.197079
 30
0.0
 10
183.818391
 20
93.666291
 30
0.0
 10
183.818391
 20
94.248397
 30
0.0
  0
SPLINE
  5
1b1
100
AcDbEntity
  8
0
 62
7
100
AcDbSpline
 70
8
 71
3
 72
8
 73
4
 74
0
 40
0
 40
0
 40
0
 40
0
 40
1
 40
1
 40
1
 40
1
 10
183.818391
 20
94.248397
 30
0.0
 10
183.818391
 20
94.830502
 30
0.0
 10
184.287604
 20
95.299715
 30
0.0
 10
184.869710
 20
95.299715
 30
0.0
  0
SPLINE
  5
1b2
100
AcDbEntity
  8
0
 62
7
100
AcDbSpline
 70
8
 71
3
 72
8
 73
4
 74
0
 40
0
 40
0
 40
0
 40
0
 40
1
 40
1
 40
1
 40
1
 10
184.869710
 20
95.299715
 30
0.0
 10
185.451815
 20
95.299715
 30
0.0
 10
185.921028
 20
94.830502
 30
0.0
 10
185.921028
 20
94.248397
 30
0.0
  0
SPLINE
  5
1b3
100
AcDbEntity
  8
0
 62
7
100
AcDbSpline
 70
8
 71
3
 72
8
 73
4
 74
0
 40
0
 40
0
 40
0
 40
0
 40
1
 40
1
 40
1
 40
1
 10
185.921028
 20
94.248397
 30
0.0
 10
185.921028
 20
93.666291
 30
0.0
 10
185.451815
 20
93.197079
 30
0.0
 10
184.869710
 20
93.197079
 30
0.0
  0
LWPOLYLINE
  5
1b4
100
AcDbEntity
  8
0
 62
7
100
AcDbPolyline
 90
2
 70
1
 10
135.150828
 20
23.820665
 30
0.0
 10
135.150828
 20
23.820665
 30
0.0
  0
LWPOLYLINE
  5
1b5
100
AcDbEntity
  8
0
 62
7
100
AcDbPolyline
 90
1
 70
1
 10
184.869710
 20
93.197079
 30
0.0
  0
SPLINE
  5
1b6
100
AcDbEntity
  8
0
 62
7
100
AcDbSpline
 70
8
 71
3
 72
8
 73
4
 74
0
 40
0
 40
0
 40
0
 40
0
 40
1
 40
1
 40
1
 40
1
 10
152.423492
 20
69.260187
 30
0.0
 10
151.700269
 20
69.309578
 30
0.0
 10
151.573264
 20
68.251204
 30
0.0
 10
152.285903
 20
68.127727
 30
0.0
  0
LWPOLYLINE
  5
1b7
100
AcDbEntity
  8
0
 62
7
100
AcDbPolyline
 90
6
 70
0
 10
188.122446
 20
47.471795
 30
0.0
 10
188.122446
 20
89.778531
 30
0.0
 10
182.530703
 20
89.789114
 30
0.0
 10
180.957254
 20
67.284556
 30
0.0
 10
180.957254
 20
67.284556
 30
0.0
 10
152.423492
 20
69.260187
 30
0.0
  0
SPLINE
  5
1b8
100
AcDbEntity
  8
0
 62
7
100
AcDbSpline
 70
8
 71
3
 72
8
 73
4
 74
0
 40
0
 40
0
 40
0
 40
0
 40
1
 40
1
 40
1
 40
1
 10
168.193264
 20
65.337148
 30
0.0
 10
168.574278
 20
65.270117
 30
0.0
 10
168.828288
 20
64.906742
 30
0.0
 10
168.761258
 20
64.525728
 30
0.0
  0
LWPOLYLINE
  5
1b9
100
AcDbEntity
  8
0
 62
7
100
AcDbPolyline
 90
2
 70
0
 10
152.285903
 20
68.127727
 30
0.0
 10
168.193264
 20
65.337148
 30
0.0
  0
SPLINE
  5
1ba
100
AcDbEntity
  8
0
 62
7
100
AcDbSpline
 70
8
 71
3
 72
8
 73
4
 74
0
 40
0
 40
0
 40
0
 40
0
 40
1
 40
1
 40
1
 40
1
 10
187.423919
 20
46.773268
 30
0.0
 10
187.811989
 20
46.773268
 30
0.0
 10
188.122446
 20
47.087252
 30
0.0
 10
188.122446
 20
47.471795
 30
0.0
  0
LWPOLYLINE
  5
1bb
100
AcDbEntity
  8
0
 62
7
100
AcDbPolyline
 90
3
 70
0
 10
168.761258
 20
64.525728
 30
0.0
 10
165.631999
 20
46.773268
 30
0.0
 10
187.423919
 20
46.773268
 30
0.0
  0
SPLINE
  5
1bc
100
AcDbEntity
  8
0
 62
7
100
AcDbSpline
 70
8
 71
3
 72
8
 73
4
 74
0
 40
0
 40
0
 40
0
 40
0
 40
1
 40
1
 40
1
 40
1
 10
184.471055
 20
85.273385
 30
0.0
 10
184.471055
 20
85.851963
 30
0.0
 10
184.940268
 20
86.324704
 30
0.0
 10
185.522374
 20
86.324704
 30
0.0
  0
SPLINE
  5
1bd
100
AcDbEntity
  8
0
 62
7
100
AcDbSpline
 70
8
 71
3
 72
8
 73
4
 74
0
 40
0
 40
0
 40
0
 40
0
 40
1
 40
1
 40
1
 40
1
 10
185.522374
 20
86.324704
 30
0.0
 10
186.104479
 20
86.324704
 30
0.0
 10
186.573692
 20
85.855491
 30
0.0
 10
186.573692
 20
85.273385
 30
0.0
  0
SPLINE
  5
1be
100
AcDbEntity
  8
0
 62
7
100
AcDbSpline
 70
8
 71
3
 72
8
 73
4
 74
0
 40
0
 40
0
 40
0
 40
0
 40
1
 40
1
 40
1
 40
1
 10
186.573692
 20
85.273385
 30
0.0
 10
186.573692
 20
84.691280
 30
0.0
 10
186.104479
 20
84.222067
 30
0.0
 10
185.522374
 20
84.222067
 30
0.0
  0
SPLINE
  5
1bf
100
AcDbEntity
  8
0
 62
7
100
AcDbSpline
 70
8
 71
3
 72
8
 73
4
 74
0
 40
0
 40
0
 40
0
 40
0
 40
1
 40
1
 40
1
 40
1
 10
185.522374
 20
84.222067
 30
0.0
 10
184.940268
 20
84.222067
 30
0.0
 10
184.471055
 20
84.691280
 30
0.0
 10
184.471055
 20
85.273385
 30
0.0
  0
LWPOLYLINE
  5
1c0
100
AcDbEntity
  8
0
 62
7
100
AcDbPolyline
 90
2
 70
1
 10
188.122446
 20
47.471795
 30
0.0
 10
188.122446
 20
47.471795
 30
0.0
  0
SPLINE
  5
1c1
100
AcDbEntity
  8
0
 62
7
100
AcDbSpline
 70
8
 71
3
 72
8
 73
4
 74
0
 40
0
 40
0
 40
0
 40
0
 40
1
 40
1
 40
1
 40
1
 10
183.462072
 20
70.431454
 30
0.0
 10
183.462072
 20
71.010032
 30
0.0
 10
183.931285
 20
71.482773
 30
0.0
 10
184.513390
 20
71.482773
 30
0.0
  0
SPLINE
  5
1c2
100
AcDbEntity
  8
0
 62
7
100
AcDbSpline
 70
8
 71
3
 72
8
 73
4
 74
0
 40
0
 40
0
 40
0
 40
0
 40
1
 40
1
 40
1
 40
1
 10
184.513390
 20
71.482773
 30
0.0
 10
185.095496
 20
71.482773
 30
0.0
 10
185.564708
 20
71.013560
 30
0.0
 10
185.564708
 20
70.431454
 30
0.0
  0
SPLINE
  5
1c3
100
AcDbEntity
  8
0
 62
7
100
AcDbSpline
 70
8
 71
3
 72
8
 73
4
 74
0
 40
0
 40
0
 40
0
 40
0
 40
1
 40
1
 40
1
 40
1
 10
185.564708
 20
70.431454
 30
0.0
 10
185.564708
 20
69.849349
 30
0.0
 10
185.095496
 20
69.380136
 30
0.0
 10
184.513390
 20
69.380136
 30
0.0
  0
SPLINE
  5
1c4
100
AcDbEntity
  8
0
 62
7
100
AcDbSpline
 70
8
 71
3
 72
8
 73
4
 74
0
 40
0
 40
0
 40
0
 40
0
 40
1
 40
1
 40
1
 40
1
 10
184.513390
 20
69.380136
 30
0.0
 10
183.931285
 20
69.380136
 30
0.0
 10
183.462072
 20
69.849349
 30
0.0
 10
183.462072
 20
70.431454
 30
0.0
  0
LWPOLYLINE
  5
1c5
100
AcDbEntity
  8
0
 62
7
100
AcDbPolyline
 90
1
 70
1
 10
184.471055
 20
85.273385
 30
0.0
  0
SPLINE
  5
1c6
100
AcDbEntity
  8
0
 62
7
100
AcDbSpline
 70
8
 71
3
 72
8
 73
4
 74
0
 40
0
 40
0
 40
0
 40
0
 40
1
 40
1
 40
1
 40
1
 10
51.190021
 20
71.680336
 30
0.0
 10
51.190021
 20
63.534384
 30
0.0
 10
57.794275
 20
56.930130
 30
0.0
 10
65.940226
 20
56.930130
 30
0.0
  0
SPLINE
  5
1c7
100
AcDbEntity
  8
0
 62
7
100
AcDbSpline
 70
8
 71
3
 72
8
 73
4
 74
0
 40
0
 40
0
 40
0
 40
0
 40
1
 40
1
 40
1
 40
1
 10
65.940226
 20
56.930130
 30
0.0
 10
74.086178
 20
56.930130
 30
0.0
 10
80.690432
 20
63.534384
 30
0.0
 10
80.690432
 20
71.680336
 30
0.0
  0
SPLINE
  5
1c8
100
AcDbEntity
  8
0
 62
7
100
AcDbSpline
 70
8
 71
3
 72
8
 73
4
 74
0
 40
0
 40
0
 40
0
 40
0
 40
1
 40
1
 40
1
 40
1
 10
80.690432
 20
71.680336
 30
0.0
 10
80.690432
 20
79.826287
 30
0.0
 10
74.086178
 20
86.430541
 30
0.0
 10
65.940226
 20
86.430541
 30
0.0
  0
SPLINE
  5
1c9
100
AcDbEntity
  8
0
 62
7
100
AcDbSpline
 70
8
 71
3
 72
8
 73
4
 74
0
 40
0
 40
0
 40
0
 40
0
 40
1
 40
1
 40
1
 40
1
 10
65.940226
 20
86.430541
 30
0.0
 10
57.794275
 20
86.430541
 30
0.0
 10
51.190021
 20
79.826287
 30
0.0
 10
51.190021
 20
71.680336
 30
0.0
  0
LWPOLYLINE
  5
1ca
100
AcDbEntity
  8
0
 62
7
100
AcDbPolyline
 90
1
 70
1
 10
183.462072
 20
70.431454
 30
0.0
  0
SPLINE
  5
1cb
100
AcDbEntity
  8
0
 62
7
100
AcDbSpline
 70
8
 71
3
 72
8
 73
4
 74
0
 40
0
 40
0
 40
0
 40
0
 40
1
 40
1
 40
1
 40
1
 10
53.691312
 20
71.680336
 30
0.0
 10
53.691312
 20
78.443345
 30
0.0
 10
59.177217
 20
83.929250
 30
0.0
 10
65.940226
 20
83.929250
 30
0.0
  0
SPLINE
  5
1cc
100
AcDbEntity
  8
0
 62
7
100
AcDbSpline
 70
8
 71
3
 72
8
 73
4
 74
0
 40
0
 40
0
 40
0
 40
0
 40
1
 40
1
 40
1
 40
1
 10
65.940226
 20
83.929250
 30
0.0
 10
72.703236
 20
83.929250
 30
0.0
 10
78.189141
 20
78.443345
 30
0.0
 10
78.189141
 20
71.680336
 30
0.0
  0
SPLINE
  5
1cd
100
AcDbEntity
  8
0
 62
7
100
AcDbSpline
 70
8
 71
3
 72
8
 73
4
 74
0
 40
0
 40
0
 40
0
 40
0
 40
1
 40
1
 40
1
 40
1
 10
78.189141
 20
71.680336
 30
0.0
 10
78.189141
 20
64.917326
 30
0.0
 10
72.706764
 20
59.431421
 30
0.0
 10
65.940226
 20
59.431421
 30
0.0
  0
SPLINE
  5
1ce
100
AcDbEntity
  8
0
 62
7
100
AcDbSpline
 70
8
 71
3
 72
8
 73
4
 74
0
 40
0
 40
0
 40
0
 40
0
 40
1
 40
1
 40
1
 40
1
 10
65.940226
 20
59.431421
 30
0.0
 10
59.173689
 20
59.431421
 30
0.0
 10
53.691312
 20
64.917326
 30
0.0
 10
53.691312
 20
71.680336
 30
0.0
  0
LWPOLYLINE
  5
1cf
100
AcDbEntity
  8
0
 62
7
100
AcDbPolyline
 90
2
 70
1
 10
51.190021
 20
71.680336
 30
0.0
 10
51.190021
 20
71.680336
 30
0.0
  0
SPLINE
  5
1d0
100
AcDbEntity
  8
0
 62
7
100
AcDbSpline
 70
8
 71
3
 72
8
 73
4
 74
0
 40
0
 40
0
 40
0
 40
0
 40
1
 40
1
 40
1
 40
1
 10
34.097281
 20
68.596939
 30
0.0
 10
33.712739
 20
68.568716
 30
0.0
 10
33.377587
 20
68.861533
 30
0.0
 10
33.349364
 20
69.246076
 30
0.0
  0
LWPOLYLINE
  5
1d1
100
AcDbEntity
  8
0
 62
7
100
AcDbPolyline
 90
2
 70
1
 10
53.691312
 20
71.680336
 30
0.0
 10
53.691312
 20
71.680336
 30
0.0
  0
SPLINE
  5
1d2
100
AcDbEntity
  8
0
 62
7
100
AcDbSpline
 70
8
 71
3
 72
8
 73
4
 74
0
 40
0
 40
0
 40
0
 40
0
 40
1
 40
1
 40
1
 40
1
 10
32.319213
 20
55.014474
 30
0.0
 10
32.707284
 20
55.014474
 30
0.0
 10
33.021268
 20
54.700489
 30
0.0
 10
33.021268
 20
54.312419
 30
0.0
  0
LWPOLYLINE
  5
1d3
100
AcDbEntity
  8
0
 62
7
100
AcDbPolyline
 90
6
 70
0
 10
33.349364
 20
69.246076
 30
0.0
 10
32.075787
 20
87.443052
 30
0.0
 10
24.758895
 20
86.113029
 30
0.0
 10
25.817269
 20
71.020616
 30
0.0
 10
25.817269
 20
55.039169
 30
0.0
 10
32.319213
 20
55.014474
 30
0.0
  0
SPLINE
  5
1d4
100
AcDbEntity
  8
0
 62
7
100
AcDbSpline
 70
8
 71
3
 72
8
 73
4
 74
0
 40
0
 40
0
 40
0
 40
0
 40
1
 40
1
 40
1
 40
1
 10
30.936271
 20
58.133149
 30
0.0
 10
31.214976
 20
58.133149
 30
0.0
 10
31.437235
 20
57.910890
 30
0.0
 10
31.437235
 20
57.632185
 30
0.0
  0
SPLINE
  5
1d5
100
AcDbEntity
  8
0
 62
7
100
AcDbSpline
 70
8
 71
3
 72
8
 73
4
 74
0
 40
0
 40
0
 40
0
 40
0
 40
1
 40
1
 40
1
 40
1
 10
31.437235
 20
57.632185
 30
0.0
 10
31.437235
 20
57.353480
 30
0.0
 10
31.214976
 20
57.131221
 30
0.0
 10
30.936271
 20
57.131221
 30
0.0
  0
SPLINE
  5
1d6
100
AcDbEntity
  8
0
 62
7
100
AcDbSpline
 70
8
 71
3
 72
8
 73
4
 74
0
 40
0
 40
0
 40
0
 40
0
 40
1
 40
1
 40
1
 40
1
 10
30.936271
 20
57.131221
 30
0.0
 10
30.657566
 20
57.131221
 30
0.0
 10
30.435308
 20
57.357008
 30
0.0
 10
30.435308
 20
57.632185
 30
0.0
  0
SPLINE
  5
1d7
100
AcDbEntity
  8
0
 62
7
100
AcDbSpline
 70
8
 71
3
 72
8
 73
4
 74
0
 40
0
 40
0
 40
0
 40
0
 40
1
 40
1
 40
1
 40
1
 10
30.435308
 20
57.632185
 30
0.0
 10
30.435308
 20
57.907362
 30
0.0
 10
30.657566
 20
58.133149
 30
0.0
 10
30.936271
 20
58.133149
 30
0.0
  0
LWPOLYLINE
  5
1d8
100
AcDbEntity
  8
0
 62
7
100
AcDbPolyline
 90
7
 70
0
 10
33.021268
 20
54.312419
 30
0.0
 10
33.021268
 20
52.061610
 30
0.0
 10
42.969983
 20
52.061610
 30
0.0
 10
42.969983
 20
69.217852
 30
0.0
 10
34.093754
 20
68.596939
 30
0.0
 10
34.093754
 20
68.596939
 30
0.0
 10
34.097281
 20
68.596939
 30
0.0
  0
SPLINE
  5
1d9
100
AcDbEntity
  8
0
 62
7
100
AcDbSpline
 70
8
 71
3
 72
8
 73
4
 74
0
 40
0
 40
0
 40
0
 40
0
 40
1
 40
1
 40
1
 40
1
 10
32.936598
 20
58.133149
 30
0.0
 10
33.215303
 20
58.133149
 30
0.0
 10
33.437562
 20
57.910890
 30
0.0
 10
33.437562
 20
57.632185
 30
0.0
  0
SPLINE
  5
1da
100
AcDbEntity
  8
0
 62
7
100
AcDbSpline
 70
8
 71
3
 72
8
 73
4
 74
0
 40
0
 40
0
 40
0
 40
0
 40
1
 40
1
 40
1
 40
1
 10
33.437562
 20
57.632185
 30
0.0
 10
33.437562
 20
57.353480
 30
0.0
 10
33.215303
 20
57.131221
 30
0.0
 10
32.936598
 20
57.131221
 30
0.0
  0
SPLINE
  5
1db
100
AcDbEntity
  8
0
 62
7
100
AcDbSpline
 70
8
 71
3
 72
8
 73
4
 74
0
 40
0
 40
0
 40
0
 40
0
 40
1
 40
1
 40
1
 40
1
 10
32.936598
 20
57.131221
 30
0.0
 10
32.657893
 20
57.131221
 30
0.0
 10
32.435634
 20
57.357008
 30
0.0
 10
32.435634
 20
57.632185
 30
0.0
  0
SPLINE
  5
1dc
100
AcDbEntity
  8
0
 62
7
100
AcDbSpline
 70
8
 71
3
 72
8
 73
4
 74
0
 40
0
 40
0
 40
0
 40
0
 40
1
 40
1
 40
1
 40
1
 10
32.435634
 20
57.632185
 30
0.0
 10
32.435634
 20
57.907362
 30
0.0
 10
32.657893
 20
58.133149
 30
0.0
 10
32.936598
 20
58.133149
 30
0.0
  0
LWPOLYLINE
  5
1dd
100
AcDbEntity
  8
0
 62
7
100
AcDbPolyline
 90
1
 70
1
 10
30.936271
 20
58.133149
 30
0.0
  0
SPLINE
  5
1de
100
AcDbEntity
  8
0
 62
7
100
AcDbSpline
 70
8
 71
3
 72
8
 73
4
 74
0
 40
0
 40
0
 40
0
 40
0
 40
1
 40
1
 40
1
 40
1
 10
34.936925
 20
58.133149
 30
0.0
 10
35.215630
 20
58.133149
 30
0.0
 10
35.437888
 20
57.910890
 30
0.0
 10
35.437888
 20
57.632185
 30
0.0
  0
SPLINE
  5
1df
100
AcDbEntity
  8
0
 62
7
100
AcDbSpline
 70
8
 71
3
 72
8
 73
4
 74
0
 40
0
 40
0
 40
0
 40
0
 40
1
 40
1
 40
1
 40
1
 10
35.437888
 20
57.632185
 30
0.0
 10
35.437888
 20
57.353480
 30
0.0
 10
35.215630
 20
57.131221
 30
0.0
 10
34.936925
 20
57.131221
 30
0.0
  0
SPLINE
  5
1e0
100
AcDbEntity
  8
0
 62
7
100
AcDbSpline
 70
8
 71
3
 72
8
 73
4
 74
0
 40
0
 40
0
 40
0
 40
0
 40
1
 40
1
 40
1
 40
1
 10
34.936925
 20
57.131221
 30
0.0
 10
34.658220
 20
57.131221
 30
0.0
 10
34.435961
 20
57.357008
 30
0.0
 10
34.435961
 20
57.632185
 30
0.0
  0
SPLINE
  5
1e1
100
AcDbEntity
  8
0
 62
7
100
AcDbSpline
 70
8
 71
3
 72
8
 73
4
 74
0
 40
0
 40
0
 40
0
 40
0
 40
1
 40
1
 40
1
 40
1
 10
34.435961
 20
57.632185
 30
0.0
 10
34.435961
 20
57.907362
 30
0.0
 10
34.658220
 20
58.133149
 30
0.0
 10
34.936925
 20
58.133149
 30
0.0
  0
LWPOLYLINE
  5
1e2
100
AcDbEntity
  8
0
 62
7
100
AcDbPolyline
 90
1
 70
1
 10
32.936598
 20
58.133149
 30
0.0
  0
SPLINE
  5
1e3
100
AcDbEntity
  8
0
 62
7
100
AcDbSpline
 70
8
 71
3
 72
8
 73
4
 74
0
 40
0
 40
0
 40
0
 40
0
 40
1
 40
1
 40
1
 40
1
 10
36.937252
 20
58.133149
 30
0.0
 10
37.215957
 20
58.133149
 30
0.0
 10
37.438215
 20
57.910890
 30
0.0
 10
37.438215
 20
57.632185
 30
0.0
  0
SPLINE
  5
1e4
100
AcDbEntity
  8
0
 62
7
100
AcDbSpline
 70
8
 71
3
 72
8
 73
4
 74
0
 40
0
 40
0
 40
0
 40
0
 40
1
 40
1
 40
1
 40
1
 10
37.438215
 20
57.632185
 30
0.0
 10
37.438215
 20
57.353480
 30
0.0
 10
37.215957
 20
57.131221
 30
0.0
 10
36.937252
 20
57.131221
 30
0.0
  0
SPLINE
  5
1e5
100
AcDbEntity
  8
0
 62
7
100
AcDbSpline
 70
8
 71
3
 72
8
 73
4
 74
0
 40
0
 40
0
 40
0
 40
0
 40
1
 40
1
 40
1
 40
1
 10
36.937252
 20
57.131221
 30
0.0
 10
36.658546
 20
57.131221
 30
0.0
 10
36.436288
 20
57.357008
 30
0.0
 10
36.436288
 20
57.632185
 30
0.0
  0
SPLINE
  5
1e6
100
AcDbEntity
  8
0
 62
7
100
AcDbSpline
 70
8
 71
3
 72
8
 73
4
 74
0
 40
0
 40
0
 40
0
 40
0
 40
1
 40
1
 40
1
 40
1
 10
36.436288
 20
57.632185
 30
0.0
 10
36.436288
 20
57.907362
 30
0.0
 10
36.658546
 20
58.133149
 30
0.0
 10
36.937252
 20
58.133149
 30
0.0
  0
LWPOLYLINE
  5
1e7
100
AcDbEntity
  8
0
 62
7
100
AcDbPolyline
 90
1
 70
1
 10
34.936925
 20
58.133149
 30
0.0
  0
SPLINE
  5
1e8
100
AcDbEntity
  8
0
 62
7
100
AcDbSpline
 70
8
 71
3
 72
8
 73
4
 74
0
 40
0
 40
0
 40
0
 40
0
 40
1
 40
1
 40
1
 40
1
 10
38.937578
 20
58.133149
 30
0.0
 10
39.216284
 20
58.133149
 30
0.0
 10
39.438542
 20
57.910890
 30
0.0
 10
39.438542
 20
57.632185
 30
0.0
  0
SPLINE
  5
1e9
100
AcDbEntity
  8
0
 62
7
100
AcDbSpline
 70
8
 71
3
 72
8
 73
4
 74
0
 40
0
 40
0
 40
0
 40
0
 40
1
 40
1
 40
1
 40
1
 10
39.438542
 20
57.632185
 30
0.0
 10
39.438542
 20
57.353480
 30
0.0
 10
39.216284
 20
57.131221
 30
0.0
 10
38.937578
 20
57.131221
 30
0.0
  0
SPLINE
  5
1ea
100
AcDbEntity
  8
0
 62
7
100
AcDbSpline
 70
8
 71
3
 72
8
 73
4
 74
0
 40
0
 40
0
 40
0
 40
0
 40
1
 40
1
 40
1
 40
1
 10
38.937578
 20
57.131221
 30
0.0
 10
38.658873
 20
57.131221
 30
0.0
 10
38.436615
 20
57.357008
 30
0.0
 10
38.436615
 20
57.632185
 30
0.0
  0
SPLINE
  5
1eb
100
AcDbEntity
  8
0
 62
7
100
AcDbSpline
 70
8
 71
3
 72
8
 73
4
 74
0
 40
0
 40
0
 40
0
 40
0
 40
1
 40
1
 40
1
 40
1
 10
38.436615
 20
57.632185
 30
0.0
 10
38.436615
 20
57.907362
 30
0.0
 10
38.658873
 20
58.133149
 30
0.0
 10
38.937578
 20
58.133149
 30
0.0
  0
LWPOLYLINE
  5
1ec
100
AcDbEntity
  8
0
 62
7
100
AcDbPolyline
 90
1
 70
1
 10
36.937252
 20
58.133149
 30
0.0
  0
SPLINE
  5
1ed
100
AcDbEntity
  8
0
 62
7
100
AcDbSpline
 70
8
 71
3
 72
8
 73
4
 74
0
 40
0
 40
0
 40
0
 40
0
 40
1
 40
1
 40
1
 40
1
 10
30.936271
 20
60.133476
 30
0.0
 10
31.214976
 20
60.133476
 30
0.0
 10
31.437235
 20
59.911217
 30
0.0
 10
31.437235
 20
59.632512
 30
0.0
  0
SPLINE
  5
1ee
100
AcDbEntity
  8
0
 62
7
100
AcDbSpline
 70
8
 71
3
 72
8
 73
4
 74
0
 40
0
 40
0
 40
0
 40
0
 40
1
 40
1
 40
1
 40
1
 10
31.437235
 20
59.632512
 30
0.0
 10
31.437235
 20
59.353807
 30
0.0
 10
31.214976
 20
59.131548
 30
0.0
 10
30.936271
 20
59.131548
 30
0.0
  0
SPLINE
  5
1ef
100
AcDbEntity
  8
0
 62
7
100
AcDbSpline
 70
8
 71
3
 72
8
 73
4
 74
0
 40
0
 40
0
 40
0
 40
0
 40
1
 40
1
 40
1
 40
1
 10
30.936271
 20
59.131548
 30
0.0
 10
30.657566
 20
59.131548
 30
0.0
 10
30.435308
 20
59.357335
 30
0.0
 10
30.435308
 20
59.632512
 30
0.0
  0
SPLINE
  5
1f0
100
AcDbEntity
  8
0
 62
7
100
AcDbSpline
 70
8
 71
3
 72
8
 73
4
 74
0
 40
0
 40
0
 40
0
 40
0
 40
1
 40
1
 40
1
 40
1
 10
30.435308
 20
59.632512
 30
0.0
 10
30.435308
 20
59.907689
 30
0.0
 10
30.657566
 20
60.133476
 30
0.0
 10
30.936271
 20
60.133476
 30
0.0
  0
LWPOLYLINE
  5
1f1
100
AcDbEntity
  8
0
 62
7
100
AcDbPolyline
 90
1
 70
1
 10
38.937578
 20
58.133149
 30
0.0
  0
SPLINE
  5
1f2
100
AcDbEntity
  8
0
 62
7
100
AcDbSpline
 70
8
 71
3
 72
8
 73
4
 74
0
 40
0
 40
0
 40
0
 40
0
 40
1
 40
1
 40
1
 40
1
 10
32.936598
 20
60.133476
 30
0.0
 10
33.215303
 20
60.133476
 30
0.0
 10
33.437562
 20
59.911217
 30
0.0
 10
33.437562
 20
59.632512
 30
0.0
  0
SPLINE
  5
1f3
100
AcDbEntity
  8
0
 62
7
100
AcDbSpline
 70
8
 71
3
 72
8
 73
4
 74
0
 40
0
 40
0
 40
0
 40
0
 40
1
 40
1
 40
1
 40
1
 10
33.437562
 20
59.632512
 30
0.0
 10
33.437562
 20
59.353807
 30
0.0
 10
33.215303
 20
59.131548
 30
0.0
 10
32.936598
 20
59.131548
 30
0.0
  0
SPLINE
  5
1f4
100
AcDbEntity
  8
0
 62
7
100
AcDbSpline
 70
8
 71
3
 72
8
 73
4
 74
0
 40
0
 40
0
 40
0
 40
0
 40
1
 40
1
 40
1
 40
1
 10
32.936598
 20
59.131548
 30
0.0
 10
32.657893
 20
59.131548
 30
0.0
 10
32.435634
 20
59.357335
 30
0.0
 10
32.435634
 20
59.632512
 30
0.0
  0
SPLINE
  5
1f5
100
AcDbEntity
  8
0
 62
7
100
AcDbSpline
 70
8
 71
3
 72
8
 73
4
 74
0
 40
0
 40
0
 40
0
 40
0
 40
1
 40
1
 40
1
 40
1
 10
32.435634
 20
59.632512
 30
0.0
 10
32.435634
 20
59.907689
 30
0.0
 10
32.657893
 20
60.133476
 30
0.0
 10
32.936598
 20
60.133476
 30
0.0
  0
LWPOLYLINE
  5
1f6
100
AcDbEntity
  8
0
 62
7
100
AcDbPolyline
 90
1
 70
1
 10
30.936271
 20
60.133476
 30
0.0
  0
SPLINE
  5
1f7
100
AcDbEntity
  8
0
 62
7
100
AcDbSpline
 70
8
 71
3
 72
8
 73
4
 74
0
 40
0
 40
0
 40
0
 40
0
 40
1
 40
1
 40
1
 40
1
 10
34.936925
 20
60.133476
 30
0.0
 10
35.215630
 20
60.133476
 30
0.0
 10
35.437888
 20
59.911217
 30
0.0
 10
35.437888
 20
59.632512
 30
0.0
  0
SPLINE
  5
1f8
100
AcDbEntity
  8
0
 62
7
100
AcDbSpline
 70
8
 71
3
 72
8
 73
4
 74
0
 40
0
 40
0
 40
0
 40
0
 40
1
 40
1
 40
1
 40
1
 10
35.437888
 20
59.632512
 30
0.0
 10
35.437888
 20
59.353807
 30
0.0
 10
35.215630
 20
59.131548
 30
0.0
 10
34.936925
 20
59.131548
 30
0.0
  0
SPLINE
  5
1f9
100
AcDbEntity
  8
0
 62
7
100
AcDbSpline
 70
8
 71
3
 72
8
 73
4
 74
0
 40
0
 40
0
 40
0
 40
0
 40
1
 40
1
 40
1
 40
1
 10
34.936925
 20
59.131548
 30
0.0
 10
34.658220
 20
59.131548
 30
0.0
 10
34.435961
 20
59.357335
 30
0.0
 10
34.435961
 20
59.632512
 30
0.0
  0
SPLINE
  5
1fa
100
AcDbEntity
  8
0
 62
7
100
AcDbSpline
 70
8
 71
3
 72
8
 73
4
 74
0
 40
0
 40
0
 40
0
 40
0
 40
1
 40
1
 40
1
 40
1
 10
34.435961
 20
59.632512
 30
0.0
 10
34.435961
 20
59.907689
 30
0.0
 10
34.658220
 20
60.133476
 30
0.0
 10
34.936925
 20
60.133476
 30
0.0
  0
LWPOLYLINE
  5
1fb
100
AcDbEntity
  8
0
 62
7
100
AcDbPolyline
 90
1
 70
1
 10
32.936598
 20
60.133476
 30
0.0
  0
SPLINE
  5
1fc
100
AcDbEntity
  8
0
 62
7
100
AcDbSpline
 70
8
 71
3
 72
8
 73
4
 74
0
 40
0
 40
0
 40
0
 40
0
 40
1
 40
1
 40
1
 40
1
 10
36.937252
 20
60.133476
 30
0.0
 10
37.215957
 20
60.133476
 30
0.0
 10
37.438215
 20
59.911217
 30
0.0
 10
37.438215
 20
59.632512
 30
0.0
  0
SPLINE
  5
1fd
100
AcDbEntity
  8
0
 62
7
100
AcDbSpline
 70
8
 71
3
 72
8
 73
4
 74
0
 40
0
 40
0
 40
0
 40
0
 40
1
 40
1
 40
1
 40
1
 10
37.438215
 20
59.632512
 30
0.0
 10
37.438215
 20
59.353807
 30
0.0
 10
37.215957
 20
59.131548
 30
0.0
 10
36.937252
 20
59.131548
 30
0.0
  0
SPLINE
  5
1fe
100
AcDbEntity
  8
0
 62
7
100
AcDbSpline
 70
8
 71
3
 72
8
 73
4
 74
0
 40
0
 40
0
 40
0
 40
0
 40
1
 40
1
 40
1
 40
1
 10
36.937252
 20
59.131548
 30
0.0
 10
36.658546
 20
59.131548
 30
0.0
 10
36.436288
 20
59.357335
 30
0.0
 10
36.436288
 20
59.632512
 30
0.0
  0
SPLINE
  5
1ff
100
AcDbEntity
  8
0
 62
7
100
AcDbSpline
 70
8
 71
3
 72
8
 73
4
 74
0
 40
0
 40
0
 40
0
 40
0
 40
1
 40
1
 40
1
 40
1
 10
36.436288
 20
59.632512
 30
0.0
 10
36.436288
 20
59.907689
 30
0.0
 10
36.658546
 20
60.133476
 30
0.0
 10
36.937252
 20
60.133476
 30
0.0
  0
LWPOLYLINE
  5
200
100
AcDbEntity
  8
0
 62
7
100
AcDbPolyline
 90
1
 70
1
 10
34.936925
 20
60.133476
 30
0.0
  0
SPLINE
  5
201
100
AcDbEntity
  8
0
 62
7
100
AcDbSpline
 70
8
 71
3
 72
8
 73
4
 74
0
 40
0
 40
0
 40
0
 40
0
 40
1
 40
1
 40
1
 40
1
 10
38.937578
 20
60.133476
 30
0.0
 10
39.216284
 20
60.133476
 30
0.0
 10
39.438542
 20
59.911217
 30
0.0
 10
39.438542
 20
59.632512
 30
0.0
  0
SPLINE
  5
202
100
AcDbEntity
  8
0
 62
7
100
AcDbSpline
 70
8
 71
3
 72
8
 73
4
 74
0
 40
0
 40
0
 40
0
 40
0
 40
1
 40
1
 40
1
 40
1
 10
39.438542
 20
59.632512
 30
0.0
 10
39.438542
 20
59.353807
 30
0.0
 10
39.216284
 20
59.131548
 30
0.0
 10
38.937578
 20
59.131548
 30
0.0
  0
SPLINE
  5
203
100
AcDbEntity
  8
0
 62
7
100
AcDbSpline
 70
8
 71
3
 72
8
 73
4
 74
0
 40
0
 40
0
 40
0
 40
0
 40
1
 40
1
 40
1
 40
1
 10
38.937578
 20
59.131548
 30
0.0
 10
38.658873
 20
59.131548
 30
0.0
 10
38.436615
 20
59.357335
 30
0.0
 10
38.436615
 20
59.632512
 30
0.0
  0
SPLINE
  5
204
100
AcDbEntity
  8
0
 62
7
100
AcDbSpline
 70
8
 71
3
 72
8
 73
4
 74
0
 40
0
 40
0
 40
0
 40
0
 40
1
 40
1
 40
1
 40
1
 10
38.436615
 20
59.632512
 30
0.0
 10
38.436615
 20
59.907689
 30
0.0
 10
38.658873
 20
60.133476
 30
0.0
 10
38.937578
 20
60.133476
 30
0.0
  0
LWPOLYLINE
  5
205
100
AcDbEntity
  8
0
 62
7
100
AcDbPolyline
 90
1
 70
1
 10
36.937252
 20
60.133476
 30
0.0
  0
SPLINE
  5
206
100
AcDbEntity
  8
0
 62
7
100
AcDbSpline
 70
8
 71
3
 72
8
 73
4
 74
0
 40
0
 40
0
 40
0
 40
0
 40
1
 40
1
 40
1
 40
1
 10
30.936271
 20
62.133802
 30
0.0
 10
31.214976
 20
62.133802
 30
0.0
 10
31.437235
 20
61.911544
 30
0.0
 10
31.437235
 20
61.632839
 30
0.0
  0
SPLINE
  5
207
100
AcDbEntity
  8
0
 62
7
100
AcDbSpline
 70
8
 71
3
 72
8
 73
4
 74
0
 40
0
 40
0
 40
0
 40
0
 40
1
 40
1
 40
1
 40
1
 10
31.437235
 20
61.632839
 30
0.0
 10
31.437235
 20
61.354134
 30
0.0
 10
31.214976
 20
61.131875
 30
0.0
 10
30.936271
 20
61.131875
 30
0.0
  0
SPLINE
  5
208
100
AcDbEntity
  8
0
 62
7
100
AcDbSpline
 70
8
 71
3
 72
8
 73
4
 74
0
 40
0
 40
0
 40
0
 40
0
 40
1
 40
1
 40
1
 40
1
 10
30.936271
 20
61.131875
 30
0.0
 10
30.657566
 20
61.131875
 30
0.0
 10
30.435308
 20
61.357662
 30
0.0
 10
30.435308
 20
61.632839
 30
0.0
  0
SPLINE
  5
209
100
AcDbEntity
  8
0
 62
7
100
AcDbSpline
 70
8
 71
3
 72
8
 73
4
 74
0
 40
0
 40
0
 40
0
 40
0
 40
1
 40
1
 40
1
 40
1
 10
30.435308
 20
61.632839
 30
0.0
 10
30.435308
 20
61.908016
 30
0.0
 10
30.657566
 20
62.133802
 30
0.0
 10
30.936271
 20
62.133802
 30
0.0
  0
LWPOLYLINE
  5
20a
100
AcDbEntity
  8
0
 62
7
100
AcDbPolyline
 90
1
 70
1
 10
38.937578
 20
60.133476
 30
0.0
  0
SPLINE
  5
20b
100
AcDbEntity
  8
0
 62
7
100
AcDbSpline
 70
8
 71
3
 72
8
 73
4
 74
0
 40
0
 40
0
 40
0
 40
0
 40
1
 40
1
 40
1
 40
1
 10
32.936598
 20
62.133802
 30
0.0
 10
33.215303
 20
62.133802
 30
0.0
 10
33.437562
 20
61.911544
 30
0.0
 10
33.437562
 20
61.632839
 30
0.0
  0
SPLINE
  5
20c
100
AcDbEntity
  8
0
 62
7
100
AcDbSpline
 70
8
 71
3
 72
8
 73
4
 74
0
 40
0
 40
0
 40
0
 40
0
 40
1
 40
1
 40
1
 40
1
 10
33.437562
 20
61.632839
 30
0.0
 10
33.437562
 20
61.354134
 30
0.0
 10
33.215303
 20
61.131875
 30
0.0
 10
32.936598
 20
61.131875
 30
0.0
  0
SPLINE
  5
20d
100
AcDbEntity
  8
0
 62
7
100
AcDbSpline
 70
8
 71
3
 72
8
 73
4
 74
0
 40
0
 40
0
 40
0
 40
0
 40
1
 40
1
 40
1
 40
1
 10
32.936598
 20
61.131875
 30
0.0
 10
32.657893
 20
61.131875
 30
0.0
 10
32.435634
 20
61.357662
 30
0.0
 10
32.435634
 20
61.632839
 30
0.0
  0
SPLINE
  5
20e
100
AcDbEntity
  8
0
 62
7
100
AcDbSpline
 70
8
 71
3
 72
8
 73
4
 74
0
 40
0
 40
0
 40
0
 40
0
 40
1
 40
1
 40
1
 40
1
 10
32.435634
 20
61.632839
 30
0.0
 10
32.435634
 20
61.908016
 30
0.0
 10
32.657893
 20
62.133802
 30
0.0
 10
32.936598
 20
62.133802
 30
0.0
  0
LWPOLYLINE
  5
20f
100
AcDbEntity
  8
0
 62
7
100
AcDbPolyline
 90
1
 70
1
 10
30.936271
 20
62.133802
 30
0.0
  0
SPLINE
  5
210
100
AcDbEntity
  8
0
 62
7
100
AcDbSpline
 70
8
 71
3
 72
8
 73
4
 74
0
 40
0
 40
0
 40
0
 40
0
 40
1
 40
1
 40
1
 40
1
 10
34.936925
 20
62.133802
 30
0.0
 10
35.215630
 20
62.133802
 30
0.0
 10
35.437888
 20
61.911544
 30
0.0
 10
35.437888
 20
61.632839
 30
0.0
  0
SPLINE
  5
211
100
AcDbEntity
  8
0
 62
7
100
AcDbSpline
 70
8
 71
3
 72
8
 73
4
 74
0
 40
0
 40
0
 40
0
 40
0
 40
1
 40
1
 40
1
 40
1
 10
35.437888
 20
61.632839
 30
0.0
 10
35.437888
 20
61.354134
 30
0.0
 10
35.215630
 20
61.131875
 30
0.0
 10
34.936925
 20
61.131875
 30
0.0
  0
SPLINE
  5
212
100
AcDbEntity
  8
0
 62
7
100
AcDbSpline
 70
8
 71
3
 72
8
 73
4
 74
0
 40
0
 40
0
 40
0
 40
0
 40
1
 40
1
 40
1
 40
1
 10
34.936925
 20
61.131875
 30
0.0
 10
34.658220
 20
61.131875
 30
0.0
 10
34.435961
 20
61.357662
 30
0.0
 10
34.435961
 20
61.632839
 30
0.0
  0
SPLINE
  5
213
100
AcDbEntity
  8
0
 62
7
100
AcDbSpline
 70
8
 71
3
 72
8
 73
4
 74
0
 40
0
 40
0
 40
0
 40
0
 40
1
 40
1
 40
1
 40
1
 10
34.435961
 20
61.632839
 30
0.0
 10
34.435961
 20
61.908016
 30
0.0
 10
34.658220
 20
62.133802
 30
0.0
 10
34.936925
 20
62.133802
 30
0.0
  0
LWPOLYLINE
  5
214
100
AcDbEntity
  8
0
 62
7
100
AcDbPolyline
 90
1
 70
1
 10
32.936598
 20
62.133802
 30
0.0
  0
SPLINE
  5
215
100
AcDbEntity
  8
0
 62
7
100
AcDbSpline
 70
8
 71
3
 72
8
 73
4
 74
0
 40
0
 40
0
 40
0
 40
0
 40
1
 40
1
 40
1
 40
1
 10
36.937252
 20
62.133802
 30
0.0
 10
37.215957
 20
62.133802
 30
0.0
 10
37.438215
 20
61.911544
 30
0.0
 10
37.438215
 20
61.632839
 30
0.0
  0
SPLINE
  5
216
100
AcDbEntity
  8
0
 62
7
100
AcDbSpline
 70
8
 71
3
 72
8
 73
4
 74
0
 40
0
 40
0
 40
0
 40
0
 40
1
 40
1
 40
1
 40
1
 10
37.438215
 20
61.632839
 30
0.0
 10
37.438215
 20
61.354134
 30
0.0
 10
37.215957
 20
61.131875
 30
0.0
 10
36.937252
 20
61.131875
 30
0.0
  0
SPLINE
  5
217
100
AcDbEntity
  8
0
 62
7
100
AcDbSpline
 70
8
 71
3
 72
8
 73
4
 74
0
 40
0
 40
0
 40
0
 40
0
 40
1
 40
1
 40
1
 40
1
 10
36.937252
 20
61.131875
 30
0.0
 10
36.658546
 20
61.131875
 30
0.0
 10
36.436288
 20
61.357662
 30
0.0
 10
36.436288
 20
61.632839
 30
0.0
  0
SPLINE
  5
218
100
AcDbEntity
  8
0
 62
7
100
AcDbSpline
 70
8
 71
3
 72
8
 73
4
 74
0
 40
0
 40
0
 40
0
 40
0
 40
1
 40
1
 40
1
 40
1
 10
36.436288
 20
61.632839
 30
0.0
 10
36.436288
 20
61.908016
 30
0.0
 10
36.658546
 20
62.133802
 30
0.0
 10
36.937252
 20
62.133802
 30
0.0
  0
LWPOLYLINE
  5
219
100
AcDbEntity
  8
0
 62
7
100
AcDbPolyline
 90
1
 70
1
 10
34.936925
 20
62.133802
 30
0.0
  0
SPLINE
  5
21a
100
AcDbEntity
  8
0
 62
7
100
AcDbSpline
 70
8
 71
3
 72
8
 73
4
 74
0
 40
0
 40
0
 40
0
 40
0
 40
1
 40
1
 40
1
 40
1
 10
38.937578
 20
62.133802
 30
0.0
 10
39.216284
 20
62.133802
 30
0.0
 10
39.438542
 20
61.911544
 30
0.0
 10
39.438542
 20
61.632839
 30
0.0
  0
SPLINE
  5
21b
100
AcDbEntity
  8
0
 62
7
100
AcDbSpline
 70
8
 71
3
 72
8
 73
4
 74
0
 40
0
 40
0
 40
0
 40
0
 40
1
 40
1
 40
1
 40
1
 10
39.438542
 20
61.632839
 30
0.0
 10
39.438542
 20
61.354134
 30
0.0
 10
39.216284
 20
61.131875
 30
0.0
 10
38.937578
 20
61.131875
 30
0.0
  0
SPLINE
  5
21c
100
AcDbEntity
  8
0
 62
7
100
AcDbSpline
 70
8
 71
3
 72
8
 73
4
 74
0
 40
0
 40
0
 40
0
 40
0
 40
1
 40
1
 40
1
 40
1
 10
38.937578
 20
61.131875
 30
0.0
 10
38.658873
 20
61.131875
 30
0.0
 10
38.436615
 20
61.357662
 30
0.0
 10
38.436615
 20
61.632839
 30
0.0
  0
SPLINE
  5
21d
100
AcDbEntity
  8
0
 62
7
100
AcDbSpline
 70
8
 71
3
 72
8
 73
4
 74
0
 40
0
 40
0
 40
0
 40
0
 40
1
 40
1
 40
1
 40
1
 10
38.436615
 20
61.632839
 30
0.0
 10
38.436615
 20
61.908016
 30
0.0
 10
38.658873
 20
62.133802
 30
0.0
 10
38.937578
 20
62.133802
 30
0.0
  0
LWPOLYLINE
  5
21e
100
AcDbEntity
  8
0
 62
7
100
AcDbPolyline
 90
1
 70
1
 10
36.937252
 20
62.133802
 30
0.0
  0
SPLINE
  5
21f
100
AcDbEntity
  8
0
 62
7
100
AcDbSpline
 70
8
 71
3
 72
8
 73
4
 74
0
 40
0
 40
0
 40
0
 40
0
 40
1
 40
1
 40
1
 40
1
 10
30.936271
 20
64.134129
 30
0.0
 10
31.214976
 20
64.134129
 30
0.0
 10
31.437235
 20
63.911871
 30
0.0
 10
31.437235
 20
63.633166
 30
0.0
  0
SPLINE
  5
220
100
AcDbEntity
  8
0
 62
7
100
AcDbSpline
 70
8
 71
3
 72
8
 73
4
 74
0
 40
0
 40
0
 40
0
 40
0
 40
1
 40
1
 40
1
 40
1
 10
31.437235
 20
63.633166
 30
0.0
 10
31.437235
 20
63.354460
 30
0.0
 10
31.214976
 20
63.132202
 30
0.0
 10
30.936271
 20
63.132202
 30
0.0
  0
SPLINE
  5
221
100
AcDbEntity
  8
0
 62
7
100
AcDbSpline
 70
8
 71
3
 72
8
 73
4
 74
0
 40
0
 40
0
 40
0
 40
0
 40
1
 40
1
 40
1
 40
1
 10
30.936271
 20
63.132202
 30
0.0
 10
30.657566
 20
63.132202
 30
0.0
 10
30.435308
 20
63.357988
 30
0.0
 10
30.435308
 20
63.633166
 30
0.0
  0
SPLINE
  5
222
100
AcDbEntity
  8
0
 62
7
100
AcDbSpline
 70
8
 71
3
 72
8
 73
4
 74
0
 40
0
 40
0
 40
0
 40
0
 40
1
 40
1
 40
1
 40
1
 10
30.435308
 20
63.633166
 30
0.0
 10
30.435308
 20
63.908343
 30
0.0
 10
30.657566
 20
64.134129
 30
0.0
 10
30.936271
 20
64.134129
 30
0.0
  0
LWPOLYLINE
  5
223
100
AcDbEntity
  8
0
 62
7
100
AcDbPolyline
 90
1
 70
1
 10
38.937578
 20
62.133802
 30
0.0
  0
SPLINE
  5
224
100
AcDbEntity
  8
0
 62
7
100
AcDbSpline
 70
8
 71
3
 72
8
 73
4
 74
0
 40
0
 40
0
 40
0
 40
0
 40
1
 40
1
 40
1
 40
1
 10
32.936598
 20
64.134129
 30
0.0
 10
33.215303
 20
64.134129
 30
0.0
 10
33.437562
 20
63.911871
 30
0.0
 10
33.437562
 20
63.633166
 30
0.0
  0
SPLINE
  5
225
100
AcDbEntity
  8
0
 62
7
100
AcDbSpline
 70
8
 71
3
 72
8
 73
4
 74
0
 40
0
 40
0
 40
0
 40
0
 40
1
 40
1
 40
1
 40
1
 10
33.437562
 20
63.633166
 30
0.0
 10
33.437562
 20
63.354460
 30
0.0
 10
33.215303
 20
63.132202
 30
0.0
 10
32.936598
 20
63.132202
 30
0.0
  0
SPLINE
  5
226
100
AcDbEntity
  8
0
 62
7
100
AcDbSpline
 70
8
 71
3
 72
8
 73
4
 74
0
 40
0
 40
0
 40
0
 40
0
 40
1
 40
1
 40
1
 40
1
 10
32.936598
 20
63.132202
 30
0.0
 10
32.657893
 20
63.132202
 30
0.0
 10
32.435634
 20
63.357988
 30
0.0
 10
32.435634
 20
63.633166
 30
0.0
  0
SPLINE
  5
227
100
AcDbEntity
  8
0
 62
7
100
AcDbSpline
 70
8
 71
3
 72
8
 73
4
 74
0
 40
0
 40
0
 40
0
 40
0
 40
1
 40
1
 40
1
 40
1
 10
32.435634
 20
63.633166
 30
0.0
 10
32.435634
 20
63.908343
 30
0.0
 10
32.657893
 20
64.134129
 30
0.0
 10
32.936598
 20
64.134129
 30
0.0
  0
LWPOLYLINE
  5
228
100
AcDbEntity
  8
0
 62
7
100
AcDbPolyline
 90
1
 70
1
 10
30.936271
 20
64.134129
 30
0.0
  0
SPLINE
  5
229
100
AcDbEntity
  8
0
 62
7
100
AcDbSpline
 70
8
 71
3
 72
8
 73
4
 74
0
 40
0
 40
0
 40
0
 40
0
 40
1
 40
1
 40
1
 40
1
 10
34.936925
 20
64.134129
 30
0.0
 10
35.215630
 20
64.134129
 30
0.0
 10
35.437888
 20
63.911871
 30
0.0
 10
35.437888
 20
63.633166
 30
0.0
  0
SPLINE
  5
22a
100
AcDbEntity
  8
0
 62
7
100
AcDbSpline
 70
8
 71
3
 72
8
 73
4
 74
0
 40
0
 40
0
 40
0
 40
0
 40
1
 40
1
 40
1
 40
1
 10
35.437888
 20
63.633166
 30
0.0
 10
35.437888
 20
63.354460
 30
0.0
 10
35.215630
 20
63.132202
 30
0.0
 10
34.936925
 20
63.132202
 30
0.0
  0
SPLINE
  5
22b
100
AcDbEntity
  8
0
 62
7
100
AcDbSpline
 70
8
 71
3
 72
8
 73
4
 74
0
 40
0
 40
0
 40
0
 40
0
 40
1
 40
1
 40
1
 40
1
 10
34.936925
 20
63.132202
 30
0.0
 10
34.658220
 20
63.132202
 30
0.0
 10
34.435961
 20
63.357988
 30
0.0
 10
34.435961
 20
63.633166
 30
0.0
  0
SPLINE
  5
22c
100
AcDbEntity
  8
0
 62
7
100
AcDbSpline
 70
8
 71
3
 72
8
 73
4
 74
0
 40
0
 40
0
 40
0
 40
0
 40
1
 40
1
 40
1
 40
1
 10
34.435961
 20
63.633166
 30
0.0
 10
34.435961
 20
63.908343
 30
0.0
 10
34.658220
 20
64.134129
 30
0.0
 10
34.936925
 20
64.134129
 30
0.0
  0
LWPOLYLINE
  5
22d
100
AcDbEntity
  8
0
 62
7
100
AcDbPolyline
 90
1
 70
1
 10
32.936598
 20
64.134129
 30
0.0
  0
SPLINE
  5
22e
100
AcDbEntity
  8
0
 62
7
100
AcDbSpline
 70
8
 71
3
 72
8
 73
4
 74
0
 40
0
 40
0
 40
0
 40
0
 40
1
 40
1
 40
1
 40
1
 10
36.937252
 20
64.134129
 30
0.0
 10
37.215957
 20
64.134129
 30
0.0
 10
37.438215
 20
63.911871
 30
0.0
 10
37.438215
 20
63.633166
 30
0.0
  0
SPLINE
  5
22f
100
AcDbEntity
  8
0
 62
7
100
AcDbSpline
 70
8
 71
3
 72
8
 73
4
 74
0
 40
0
 40
0
 40
0
 40
0
 40
1
 40
1
 40
1
 40
1
 10
37.438215
 20
63.633166
 30
0.0
 10
37.438215
 20
63.354460
 30
0.0
 10
37.215957
 20
63.132202
 30
0.0
 10
36.937252
 20
63.132202
 30
0.0
  0
SPLINE
  5
230
100
AcDbEntity
  8
0
 62
7
100
AcDbSpline
 70
8
 71
3
 72
8
 73
4
 74
0
 40
0
 40
0
 40
0
 40
0
 40
1
 40
1
 40
1
 40
1
 10
36.937252
 20
63.132202
 30
0.0
 10
36.658546
 20
63.132202
 30
0.0
 10
36.436288
 20
63.357988
 30
0.0
 10
36.436288
 20
63.633166
 30
0.0
  0
SPLINE
  5
231
100
AcDbEntity
  8
0
 62
7
100
AcDbSpline
 70
8
 71
3
 72
8
 73
4
 74
0
 40
0
 40
0
 40
0
 40
0
 40
1
 40
1
 40
1
 40
1
 10
36.436288
 20
63.633166
 30
0.0
 10
36.436288
 20
63.908343
 30
0.0
 10
36.658546
 20
64.134129
 30
0.0
 10
36.937252
 20
64.134129
 30
0.0
  0
LWPOLYLINE
  5
232
100
AcDbEntity
  8
0
 62
7
100
AcDbPolyline
 90
1
 70
1
 10
34.936925
 20
64.134129
 30
0.0
  0
SPLINE
  5
233
100
AcDbEntity
  8
0
 62
7
100
AcDbSpline
 70
8
 71
3
 72
8
 73
4
 74
0
 40
0
 40
0
 40
0
 40
0
 40
1
 40
1
 40
1
 40
1
 10
38.937578
 20
64.134129
 30
0.0
 10
39.216284
 20
64.134129
 30
0.0
 10
39.438542
 20
63.911871
 30
0.0
 10
39.438542
 20
63.633166
 30
0.0
  0
SPLINE
  5
234
100
AcDbEntity
  8
0
 62
7
100
AcDbSpline
 70
8
 71
3
 72
8
 73
4
 74
0
 40
0
 40
0
 40
0
 40
0
 40
1
 40
1
 40
1
 40
1
 10
39.438542
 20
63.633166
 30
0.0
 10
39.438542
 20
63.354460
 30
0.0
 10
39.216284
 20
63.132202
 30
0.0
 10
38.937578
 20
63.132202
 30
0.0
  0
SPLINE
  5
235
100
AcDbEntity
  8
0
 62
7
100
AcDbSpline
 70
8
 71
3
 72
8
 73
4
 74
0
 40
0
 40
0
 40
0
 40
0
 40
1
 40
1
 40
1
 40
1
 10
38.937578
 20
63.132202
 30
0.0
 10
38.658873
 20
63.132202
 30
0.0
 10
38.436615
 20
63.357988
 30
0.0
 10
38.436615
 20
63.633166
 30
0.0
  0
SPLINE
  5
236
100
AcDbEntity
  8
0
 62
7
100
AcDbSpline
 70
8
 71
3
 72
8
 73
4
 74
0
 40
0
 40
0
 40
0
 40
0
 40
1
 40
1
 40
1
 40
1
 10
38.436615
 20
63.633166
 30
0.0
 10
38.436615
 20
63.908343
 30
0.0
 10
38.658873
 20
64.134129
 30
0.0
 10
38.937578
 20
64.134129
 30
0.0
  0
LWPOLYLINE
  5
237
100
AcDbEntity
  8
0
 62
7
100
AcDbPolyline
 90
1
 70
1
 10
36.937252
 20
64.134129
 30
0.0
  0
SPLINE
  5
238
100
AcDbEntity
  8
0
 62
7
100
AcDbSpline
 70
8
 71
3
 72
8
 73
4
 74
0
 40
0
 40
0
 40
0
 40
0
 40
1
 40
1
 40
1
 40
1
 10
30.936271
 20
66.134456
 30
0.0
 10
31.214976
 20
66.134456
 30
0.0
 10
31.437235
 20
65.912198
 30
0.0
 10
31.437235
 20
65.633492
 30
0.0
  0
SPLINE
  5
239
100
AcDbEntity
  8
0
 62
7
100
AcDbSpline
 70
8
 71
3
 72
8
 73
4
 74
0
 40
0
 40
0
 40
0
 40
0
 40
1
 40
1
 40
1
 40
1
 10
31.437235
 20
65.633492
 30
0.0
 10
31.437235
 20
65.354787
 30
0.0
 10
31.214976
 20
65.132529
 30
0.0
 10
30.936271
 20
65.132529
 30
0.0
  0
SPLINE
  5
23a
100
AcDbEntity
  8
0
 62
7
100
AcDbSpline
 70
8
 71
3
 72
8
 73
4
 74
0
 40
0
 40
0
 40
0
 40
0
 40
1
 40
1
 40
1
 40
1
 10
30.936271
 20
65.132529
 30
0.0
 10
30.657566
 20
65.132529
 30
0.0
 10
30.435308
 20
65.358315
 30
0.0
 10
30.435308
 20
65.633492
 30
0.0
  0
SPLINE
  5
23b
100
AcDbEntity
  8
0
 62
7
100
AcDbSpline
 70
8
 71
3
 72
8
 73
4
 74
0
 40
0
 40
0
 40
0
 40
0
 40
1
 40
1
 40
1
 40
1
 10
30.435308
 20
65.633492
 30
0.0
 10
30.435308
 20
65.908670
 30
0.0
 10
30.657566
 20
66.134456
 30
0.0
 10
30.936271
 20
66.134456
 30
0.0
  0
LWPOLYLINE
  5
23c
100
AcDbEntity
  8
0
 62
7
100
AcDbPolyline
 90
1
 70
1
 10
38.937578
 20
64.134129
 30
0.0
  0
SPLINE
  5
23d
100
AcDbEntity
  8
0
 62
7
100
AcDbSpline
 70
8
 71
3
 72
8
 73
4
 74
0
 40
0
 40
0
 40
0
 40
0
 40
1
 40
1
 40
1
 40
1
 10
32.936598
 20
66.134456
 30
0.0
 10
33.215303
 20
66.134456
 30
0.0
 10
33.437562
 20
65.912198
 30
0.0
 10
33.437562
 20
65.633492
 30
0.0
  0
SPLINE
  5
23e
100
AcDbEntity
  8
0
 62
7
100
AcDbSpline
 70
8
 71
3
 72
8
 73
4
 74
0
 40
0
 40
0
 40
0
 40
0
 40
1
 40
1
 40
1
 40
1
 10
33.437562
 20
65.633492
 30
0.0
 10
33.437562
 20
65.354787
 30
0.0
 10
33.215303
 20
65.132529
 30
0.0
 10
32.936598
 20
65.132529
 30
0.0
  0
SPLINE
  5
23f
100
AcDbEntity
  8
0
 62
7
100
AcDbSpline
 70
8
 71
3
 72
8
 73
4
 74
0
 40
0
 40
0
 40
0
 40
0
 40
1
 40
1
 40
1
 40
1
 10
32.936598
 20
65.132529
 30
0.0
 10
32.657893
 20
65.132529
 30
0.0
 10
32.435634
 20
65.358315
 30
0.0
 10
32.435634
 20
65.633492
 30
0.0
  0
SPLINE
  5
240
100
AcDbEntity
  8
0
 62
7
100
AcDbSpline
 70
8
 71
3
 72
8
 73
4
 74
0
 40
0
 40
0
 40
0
 40
0
 40
1
 40
1
 40
1
 40
1
 10
32.435634
 20
65.633492
 30
0.0
 10
32.435634
 20
65.908670
 30
0.0
 10
32.657893
 20
66.134456
 30
0.0
 10
32.936598
 20
66.134456
 30
0.0
  0
LWPOLYLINE
  5
241
100
AcDbEntity
  8
0
 62
7
100
AcDbPolyline
 90
1
 70
1
 10
30.936271
 20
66.134456
 30
0.0
  0
SPLINE
  5
242
100
AcDbEntity
  8
0
 62
7
100
AcDbSpline
 70
8
 71
3
 72
8
 73
4
 74
0
 40
0
 40
0
 40
0
 40
0
 40
1
 40
1
 40
1
 40
1
 10
34.936925
 20
66.134456
 30
0.0
 10
35.215630
 20
66.134456
 30
0.0
 10
35.437888
 20
65.912198
 30
0.0
 10
35.437888
 20
65.633492
 30
0.0
  0
SPLINE
  5
243
100
AcDbEntity
  8
0
 62
7
100
AcDbSpline
 70
8
 71
3
 72
8
 73
4
 74
0
 40
0
 40
0
 40
0
 40
0
 40
1
 40
1
 40
1
 40
1
 10
35.437888
 20
65.633492
 30
0.0
 10
35.437888
 20
65.354787
 30
0.0
 10
35.215630
 20
65.132529
 30
0.0
 10
34.936925
 20
65.132529
 30
0.0
  0
SPLINE
  5
244
100
AcDbEntity
  8
0
 62
7
100
AcDbSpline
 70
8
 71
3
 72
8
 73
4
 74
0
 40
0
 40
0
 40
0
 40
0
 40
1
 40
1
 40
1
 40
1
 10
34.936925
 20
65.132529
 30
0.0
 10
34.658220
 20
65.132529
 30
0.0
 10
34.435961
 20
65.358315
 30
0.0
 10
34.435961
 20
65.633492
 30
0.0
  0
SPLINE
  5
245
100
AcDbEntity
  8
0
 62
7
100
AcDbSpline
 70
8
 71
3
 72
8
 73
4
 74
0
 40
0
 40
0
 40
0
 40
0
 40
1
 40
1
 40
1
 40
1
 10
34.435961
 20
65.633492
 30
0.0
 10
34.435961
 20
65.908670
 30
0.0
 10
34.658220
 20
66.134456
 30
0.0
 10
34.936925
 20
66.134456
 30
0.0
  0
LWPOLYLINE
  5
246
100
AcDbEntity
  8
0
 62
7
100
AcDbPolyline
 90
1
 70
1
 10
32.936598
 20
66.134456
 30
0.0
  0
SPLINE
  5
247
100
AcDbEntity
  8
0
 62
7
100
AcDbSpline
 70
8
 71
3
 72
8
 73
4
 74
0
 40
0
 40
0
 40
0
 40
0
 40
1
 40
1
 40
1
 40
1
 10
36.937252
 20
66.134456
 30
0.0
 10
37.215957
 20
66.134456
 30
0.0
 10
37.438215
 20
65.912198
 30
0.0
 10
37.438215
 20
65.633492
 30
0.0
  0
SPLINE
  5
248
100
AcDbEntity
  8
0
 62
7
100
AcDbSpline
 70
8
 71
3
 72
8
 73
4
 74
0
 40
0
 40
0
 40
0
 40
0
 40
1
 40
1
 40
1
 40
1
 10
37.438215
 20
65.633492
 30
0.0
 10
37.438215
 20
65.354787
 30
0.0
 10
37.215957
 20
65.132529
 30
0.0
 10
36.937252
 20
65.132529
 30
0.0
  0
SPLINE
  5
249
100
AcDbEntity
  8
0
 62
7
100
AcDbSpline
 70
8
 71
3
 72
8
 73
4
 74
0
 40
0
 40
0
 40
0
 40
0
 40
1
 40
1
 40
1
 40
1
 10
36.937252
 20
65.132529
 30
0.0
 10
36.658546
 20
65.132529
 30
0.0
 10
36.436288
 20
65.358315
 30
0.0
 10
36.436288
 20
65.633492
 30
0.0
  0
SPLINE
  5
24a
100
AcDbEntity
  8
0
 62
7
100
AcDbSpline
 70
8
 71
3
 72
8
 73
4
 74
0
 40
0
 40
0
 40
0
 40
0
 40
1
 40
1
 40
1
 40
1
 10
36.436288
 20
65.633492
 30
0.0
 10
36.436288
 20
65.908670
 30
0.0
 10
36.658546
 20
66.134456
 30
0.0
 10
36.937252
 20
66.134456
 30
0.0
  0
LWPOLYLINE
  5
24b
100
AcDbEntity
  8
0
 62
7
100
AcDbPolyline
 90
1
 70
1
 10
34.936925
 20
66.134456
 30
0.0
  0
SPLINE
  5
24c
100
AcDbEntity
  8
0
 62
7
100
AcDbSpline
 70
8
 71
3
 72
8
 73
4
 74
0
 40
0
 40
0
 40
0
 40
0
 40
1
 40
1
 40
1
 40
1
 10
38.937578
 20
66.134456
 30
0.0
 10
39.216284
 20
66.134456
 30
0.0
 10
39.438542
 20
65.912198
 30
0.0
 10
39.438542
 20
65.633492
 30
0.0
  0
SPLINE
  5
24d
100
AcDbEntity
  8
0
 62
7
100
AcDbSpline
 70
8
 71
3
 72
8
 73
4
 74
0
 40
0
 40
0
 40
0
 40
0
 40
1
 40
1
 40
1
 40
1
 10
39.438542
 20
65.633492
 30
0.0
 10
39.438542
 20
65.354787
 30
0.0
 10
39.216284
 20
65.132529
 30
0.0
 10
38.937578
 20
65.132529
 30
0.0
  0
SPLINE
  5
24e
100
AcDbEntity
  8
0
 62
7
100
AcDbSpline
 70
8
 71
3
 72
8
 73
4
 74
0
 40
0
 40
0
 40
0
 40
0
 40
1
 40
1
 40
1
 40
1
 10
38.937578
 20
65.132529
 30
0.0
 10
38.658873
 20
65.132529
 30
0.0
 10
38.436615
 20
65.358315
 30
0.0
 10
38.436615
 20
65.633492
 30
0.0
  0
SPLINE
  5
24f
100
AcDbEntity
  8
0
 62
7
100
AcDbSpline
 70
8
 71
3
 72
8
 73
4
 74
0
 40
0
 40
0
 40
0
 40
0
 40
1
 40
1
 40
1
 40
1
 10
38.436615
 20
65.633492
 30
0.0
 10
38.436615
 20
65.908670
 30
0.0
 10
38.658873
 20
66.134456
 30
0.0
 10
38.937578
 20
66.134456
 30
0.0
  0
LWPOLYLINE
  5
250
100
AcDbEntity
  8
0
 62
7
100
AcDbPolyline
 90
1
 70
1
 10
36.937252
 20
66.134456
 30
0.0
  0
SPLINE
  5
251
100
AcDbEntity
  8
0
 62
7
100
AcDbSpline
 70
8
 71
3
 72
8
 73
4
 74
0
 40
0
 40
0
 40
0
 40
0
 40
1
 40
1
 40
1
 40
1
 10
28.759549
 20
81.988898
 30
0.0
 10
28.177443
 20
81.988898
 30
0.0
 10
27.708231
 20
82.458111
 30
0.0
 10
27.708231
 20
83.040216
 30
0.0
  0
SPLINE
  5
252
100
AcDbEntity
  8
0
 62
7
100
AcDbSpline
 70
8
 71
3
 72
8
 73
4
 74
0
 40
0
 40
0
 40
0
 40
0
 40
1
 40
1
 40
1
 40
1
 10
27.708231
 20
83.040216
 30
0.0
 10
27.708231
 20
83.622322
 30
0.0
 10
28.177443
 20
84.091534
 30
0.0
 10
28.759549
 20
84.091534
 30
0.0
  0
SPLINE
  5
253
100
AcDbEntity
  8
0
 62
7
100
AcDbSpline
 70
8
 71
3
 72
8
 73
4
 74
0
 40
0
 40
0
 40
0
 40
0
 40
1
 40
1
 40
1
 40
1
 10
28.759549
 20
84.091534
 30
0.0
 10
29.341654
 20
84.091534
 30
0.0
 10
29.810867
 20
83.618794
 30
0.0
 10
29.810867
 20
83.040216
 30
0.0
  0
SPLINE
  5
254
100
AcDbEntity
  8
0
 62
7
100
AcDbSpline
 70
8
 71
3
 72
8
 73
4
 74
0
 40
0
 40
0
 40
0
 40
0
 40
1
 40
1
 40
1
 40
1
 10
29.810867
 20
83.040216
 30
0.0
 10
29.810867
 20
82.461639
 30
0.0
 10
29.341654
 20
81.988898
 30
0.0
 10
28.759549
 20
81.988898
 30
0.0
  0
LWPOLYLINE
  5
255
100
AcDbEntity
  8
0
 62
7
100
AcDbPolyline
 90
1
 70
1
 10
38.937578
 20
66.134456
 30
0.0
  0
SPLINE
  5
256
100
AcDbEntity
  8
0
 62
7
100
AcDbSpline
 70
8
 71
3
 72
8
 73
4
 74
0
 40
0
 40
0
 40
0
 40
0
 40
1
 40
1
 40
1
 40
1
 10
29.532162
 20
70.413815
 30
0.0
 10
28.950056
 20
70.413815
 30
0.0
 10
28.480844
 20
70.883027
 30
0.0
 10
28.480844
 20
71.465133
 30
0.0
  0
SPLINE
  5
257
100
AcDbEntity
  8
0
 62
7
100
AcDbSpline
 70
8
 71
3
 72
8
 73
4
 74
0
 40
0
 40
0
 40
0
 40
0
 40
1
 40
1
 40
1
 40
1
 10
28.480844
 20
71.465133
 30
0.0
 10
28.480844
 20
72.047239
 30
0.0
 10
28.950056
 20
72.516451
 30
0.0
 10
29.532162
 20
72.516451
 30
0.0
  0
SPLINE
  5
258
100
AcDbEntity
  8
0
 62
7
100
AcDbSpline
 70
8
 71
3
 72
8
 73
4
 74
0
 40
0
 40
0
 40
0
 40
0
 40
1
 40
1
 40
1
 40
1
 10
29.532162
 20
72.516451
 30
0.0
 10
30.114267
 20
72.516451
 30
0.0
 10
30.583480
 20
72.043711
 30
0.0
 10
30.583480
 20
71.465133
 30
0.0
  0
SPLINE
  5
259
100
AcDbEntity
  8
0
 62
7
100
AcDbSpline
 70
8
 71
3
 72
8
 73
4
 74
0
 40
0
 40
0
 40
0
 40
0
 40
1
 40
1
 40
1
 40
1
 10
30.583480
 20
71.465133
 30
0.0
 10
30.583480
 20
70.886555
 30
0.0
 10
30.114267
 20
70.413815
 30
0.0
 10
29.532162
 20
70.413815
 30
0.0
  0
LWPOLYLINE
  5
25a
100
AcDbEntity
  8
0
 62
7
100
AcDbPolyline
 90
1
 70
1
 10
28.759549
 20
81.988898
 30
0.0
  0
LWPOLYLINE
  5
25b
100
AcDbEntity
  8
0
 62
7
100
AcDbPolyline
 90
1
 70
1
 10
29.532162
 20
70.413815
 30
0.0
  0
SPLINE
  5
25c
100
AcDbEntity
  8
0
 62
7
100
AcDbSpline
 70
8
 71
3
 72
8
 73
4
 74
0
 40
0
 40
0
 40
0
 40
0
 40
1
 40
1
 40
1
 40
1
 10
64.324442
 20
91.923502
 30
0.0
 10
64.712513
 20
91.923502
 30
0.0
 10
65.026497
 20
91.609518
 30
0.0
 10
65.026497
 20
91.221447
 30
0.0
  0
LWPOLYLINE
  5
25d
100
AcDbEntity
  8
0
 62
7
100
AcDbPolyline
 90
4
 70
0
 10
113.231903
 20
96.894332
 30
0.0
 10
46.014572
 20
96.894332
 30
0.0
 10
46.000461
 20
91.923502
 30
0.0
 10
64.324442
 20
91.923502
 30
0.0
  0
SPLINE
  5
25e
100
AcDbEntity
  8
0
 62
7
100
AcDbSpline
 70
8
 71
3
 72
8
 73
4
 74
0
 40
0
 40
0
 40
0
 40
0
 40
1
 40
1
 40
1
 40
1
 10
83.322255
 20
88.910664
 30
0.0
 10
83.710325
 20
88.910664
 30
0.0
 10
84.024310
 20
88.600208
 30
0.0
 10
84.024310
 20
88.212137
 30
0.0
  0
LWPOLYLINE
  5
25f
100
AcDbEntity
  8
0
 62
7
100
AcDbPolyline
 90
3
 70
0
 10
65.026497
 20
91.221447
 30
0.0
 10
65.026497
 20
88.910664
 30
0.0
 10
83.322255
 20
88.910664
 30
0.0
  0
SPLINE
  5
260
100
AcDbEntity
  8
0
 62
7
100
AcDbSpline
 70
8
 71
3
 72
8
 73
4
 74
0
 40
0
 40
0
 40
0
 40
0
 40
1
 40
1
 40
1
 40
1
 10
84.052533
 20
25.761017
 30
0.0
 10
88.659988
 20
23.986477
 30
0.0
 10
93.249803
 20
21.799170
 30
0.0
 10
97.624415
 20
19.273184
 30
0.0
  0
LWPOLYLINE
  5
261
100
AcDbEntity
  8
0
 62
7
100
AcDbPolyline
 90
2
 70
0
 10
84.024310
 20
88.212137
 30
0.0
 10
84.052533
 20
25.761017
 30
0.0
  0
SPLINE
  5
262
100
AcDbEntity
  8
0
 62
7
100
AcDbSpline
 70
8
 71
3
 72
8
 73
4
 74
0
 40
0
 40
0
 40
0
 40
0
 40
1
 40
1
 40
1
 40
1
 10
106.112574
 20
14.372913
 30
0.0
 10
106.447726
 20
14.178878
 30
0.0
 10
106.564147
 20
13.752000
 30
0.0
 10
106.370112
 20
13.416849
 30
0.0
  0
LWPOLYLINE
  5
263
100
AcDbEntity
  8
0
 62
7
100
AcDbPolyline
 90
2
 70
0
 10
97.624415
 20
19.273184
 30
0.0
 10
106.112574
 20
14.372913
 30
0.0
  0
SPLINE
  5
264
100
AcDbEntity
  8
0
 62
7
100
AcDbSpline
 70
8
 71
3
 72
8
 73
4
 74
0
 40
0
 40
0
 40
0
 40
0
 40
1
 40
1
 40
1
 40
1
 10
113.231903
 20
0.053113
 30
0.0
 10
113.616446
 20
0.053113
 30
0.0
 10
113.930430
 20
0.363570
 30
0.0
 10
113.930430
 20
0.751640
 30
0.0
  0
LWPOLYLINE
  5
265
100
AcDbEntity
  8
0
 62
7
100
AcDbPolyline
 90
3
 70
0
 10
106.370112
 20
13.416849
 30
0.0
 10
98.658094
 20
0.053113
 30
0.0
 10
113.231903
 20
0.053113
 30
0.0
  0
SPLINE
  5
266
100
AcDbEntity
  8
0
 62
7
100
AcDbSpline
 70
8
 71
3
 72
8
 73
4
 74
0
 40
0
 40
0
 40
0
 40
0
 40
1
 40
1
 40
1
 40
1
 10
113.930430
 20
96.192277
 30
0.0
 10
113.930430
 20
96.576819
 30
0.0
 10
113.619974
 20
96.890804
 30
0.0
 10
113.231903
 20
96.890804
 30
0.0
  0
LWPOLYLINE
  5
267
100
AcDbEntity
  8
0
 62
7
100
AcDbPolyline
 90
2
 70
0
 10
113.930430
 20
0.751640
 30
0.0
 10
113.930430
 20
96.192277
 30
0.0
  0
SPLINE
  5
268
100
AcDbEntity
  8
0
 62
7
100
AcDbSpline
 70
8
 71
3
 72
8
 73
4
 74
0
 40
0
 40
0
 40
0
 40
0
 40
1
 40
1
 40
1
 40
1
 10
112.378148
 20
94.304843
 30
0.0
 10
112.378148
 20
93.722738
 30
0.0
 10
111.908936
 20
93.253525
 30
0.0
 10
111.326830
 20
93.253525
 30
0.0
  0
SPLINE
  5
269
100
AcDbEntity
  8
0
 62
7
100
AcDbSpline
 70
8
 71
3
 72
8
 73
4
 74
0
 40
0
 40
0
 40
0
 40
0
 40
1
 40
1
 40
1
 40
1
 10
111.326830
 20
93.253525
 30
0.0
 10
110.744725
 20
93.253525
 30
0.0
 10
110.275512
 20
93.722738
 30
0.0
 10
110.275512
 20
94.304843
 30
0.0
  0
SPLINE
  5
26a
100
AcDbEntity
  8
0
 62
7
100
AcDbSpline
 70
8
 71
3
 72
8
 73
4
 74
0
 40
0
 40
0
 40
0
 40
0
 40
1
 40
1
 40
1
 40
1
 10
110.275512
 20
94.304843
 30
0.0
 10
110.275512
 20
94.886949
 30
0.0
 10
110.748252
 20
95.356161
 30
0.0
 10
111.326830
 20
95.356161
 30
0.0
  0
SPLINE
  5
26b
100
AcDbEntity
  8
0
 62
7
100
AcDbSpline
 70
8
 71
3
 72
8
 73
4
 74
0
 40
0
 40
0
 40
0
 40
0
 40
1
 40
1
 40
1
 40
1
 10
111.326830
 20
95.356161
 30
0.0
 10
111.905408
 20
95.356161
 30
0.0
 10
112.378148
 20
94.886949
 30
0.0
 10
112.378148
 20
94.304843
 30
0.0
  0
LWPOLYLINE
  5
26c
100
AcDbEntity
  8
0
 62
7
100
AcDbPolyline
 90
3
 70
0
 10
113.231903
 20
96.890804
 30
0.0
 10
113.231903
 20
96.890804
 30
0.0
 10
113.231903
 20
96.894332
 30
0.0
  0
SPLINE
  5
26d
100
AcDbEntity
  8
0
 62
7
100
AcDbSpline
 70
8
 71
3
 72
8
 73
4
 74
0
 40
0
 40
0
 40
0
 40
0
 40
1
 40
1
 40
1
 40
1
 10
110.275512
 20
14.873877
 30
0.0
 10
110.275512
 20
15.455982
 30
0.0
 10
110.744725
 20
15.925195
 30
0.0
 10
111.326830
 20
15.925195
 30
0.0
  0
SPLINE
  5
26e
100
AcDbEntity
  8
0
 62
7
100
AcDbSpline
 70
8
 71
3
 72
8
 73
4
 74
0
 40
0
 40
0
 40
0
 40
0
 40
1
 40
1
 40
1
 40
1
 10
111.326830
 20
15.925195
 30
0.0
 10
111.908936
 20
15.925195
 30
0.0
 10
112.378148
 20
15.455982
 30
0.0
 10
112.378148
 20
14.873877
 30
0.0
  0
SPLINE
  5
26f
100
AcDbEntity
  8
0
 62
7
100
AcDbSpline
 70
8
 71
3
 72
8
 73
4
 74
0
 40
0
 40
0
 40
0
 40
0
 40
1
 40
1
 40
1
 40
1
 10
112.378148
 20
14.873877
 30
0.0
 10
112.378148
 20
14.291771
 30
0.0
 10
111.905408
 20
13.822559
 30
0.0
 10
111.326830
 20
13.822559
 30
0.0
  0
SPLINE
  5
270
100
AcDbEntity
  8
0
 62
7
100
AcDbSpline
 70
8
 71
3
 72
8
 73
4
 74
0
 40
0
 40
0
 40
0
 40
0
 40
1
 40
1
 40
1
 40
1
 10
111.326830
 20
13.822559
 30
0.0
 10
110.748252
 20
13.822559
 30
0.0
 10
110.275512
 20
14.291771
 30
0.0
 10
110.275512
 20
14.873877
 30
0.0
  0
LWPOLYLINE
  5
271
100
AcDbEntity
  8
0
 62
7
100
AcDbPolyline
 90
1
 70
1
 10
112.378148
 20
94.304843
 30
0.0
  0
SPLINE
  5
272
100
AcDbEntity
  8
0
 62
7
100
AcDbSpline
 70
8
 71
3
 72
8
 73
4
 74
0
 40
0
 40
0
 40
0
 40
0
 40
1
 40
1
 40
1
 40
1
 10
86.723163
 20
36.097803
 30
0.0
 10
86.723163
 20
42.860812
 30
0.0
 10
92.209068
 20
48.346717
 30
0.0
 10
98.972078
 20
48.346717
 30
0.0
  0
SPLINE
  5
273
100
AcDbEntity
  8
0
 62
7
100
AcDbSpline
 70
8
 71
3
 72
8
 73
4
 74
0
 40
0
 40
0
 40
0
 40
0
 40
1
 40
1
 40
1
 40
1
 10
98.972078
 20
48.346717
 30
0.0
 10
105.735088
 20
48.346717
 30
0.0
 10
111.220993
 20
42.860812
 30
0.0
 10
111.220993
 20
36.097803
 30
0.0
  0
SPLINE
  5
274
100
AcDbEntity
  8
0
 62
7
100
AcDbSpline
 70
8
 71
3
 72
8
 73
4
 74
0
 40
0
 40
0
 40
0
 40
0
 40
1
 40
1
 40
1
 40
1
 10
111.220993
 20
36.097803
 30
0.0
 10
111.220993
 20
29.334793
 30
0.0
 10
105.738616
 20
23.848888
 30
0.0
 10
98.972078
 20
23.848888
 30
0.0
  0
SPLINE
  5
275
100
AcDbEntity
  8
0
 62
7
100
AcDbSpline
 70
8
 71
3
 72
8
 73
4
 74
0
 40
0
 40
0
 40
0
 40
0
 40
1
 40
1
 40
1
 40
1
 10
98.972078
 20
23.848888
 30
0.0
 10
92.205540
 20
23.848888
 30
0.0
 10
86.723163
 20
29.334793
 30
0.0
 10
86.723163
 20
36.097803
 30
0.0
  0
LWPOLYLINE
  5
276
100
AcDbEntity
  8
0
 62
7
100
AcDbPolyline
 90
1
 70
1
 10
110.275512
 20
14.873877
 30
0.0
  0
SPLINE
  5
277
100
AcDbEntity
  8
0
 62
7
100
AcDbSpline
 70
8
 71
3
 72
8
 73
4
 74
0
 40
0
 40
0
 40
0
 40
0
 40
1
 40
1
 40
1
 40
1
 10
48.201879
 20
94.248397
 30
0.0
 10
48.201879
 20
94.830502
 30
0.0
 10
48.671091
 20
95.299715
 30
0.0
 10
49.253197
 20
95.299715
 30
0.0
  0
SPLINE
  5
278
100
AcDbEntity
  8
0
 62
7
100
AcDbSpline
 70
8
 71
3
 72
8
 73
4
 74
0
 40
0
 40
0
 40
0
 40
0
 40
1
 40
1
 40
1
 40
1
 10
49.253197
 20
95.299715
 30
0.0
 10
49.835302
 20
95.299715
 30
0.0
 10
50.304515
 20
94.830502
 30
0.0
 10
50.304515
 20
94.248397
 30
0.0
  0
SPLINE
  5
279
100
AcDbEntity
  8
0
 62
7
100
AcDbSpline
 70
8
 71
3
 72
8
 73
4
 74
0
 40
0
 40
0
 40
0
 40
0
 40
1
 40
1
 40
1
 40
1
 10
50.304515
 20
94.248397
 30
0.0
 10
50.304515
 20
93.666291
 30
0.0
 10
49.831775
 20
93.197079
 30
0.0
 10
49.253197
 20
93.197079
 30
0.0
  0
SPLINE
  5
27a
100
AcDbEntity
  8
0
 62
7
100
AcDbSpline
 70
8
 71
3
 72
8
 73
4
 74
0
 40
0
 40
0
 40
0
 40
0
 40
1
 40
1
 40
1
 40
1
 10
49.253197
 20
93.197079
 30
0.0
 10
48.674619
 20
93.197079
 30
0.0
 10
48.201879
 20
93.666291
 30
0.0
 10
48.201879
 20
94.248397
 30
0.0
  0
LWPOLYLINE
  5
27b
100
AcDbEntity
  8
0
 62
7
100
AcDbPolyline
 90
1
 70
1
 10
86.723163
 20
36.097803
 30
0.0
  0
SPLINE
  5
27c
100
AcDbEntity
  8
0
 62
7
100
AcDbSpline
 70
8
 71
3
 72
8
 73
4
 74
0
 40
0
 40
0
 40
0
 40
0
 40
1
 40
1
 40
1
 40
1
 10
0.747918
 20
96.890804
 30
0.0
 10
0.363375
 20
96.890804
 30
0.0
 10
0.049391
 20
96.580347
 30
0.0
 10
0.049391
 20
96.192277
 30
0.0
  0
LWPOLYLINE
  5
27d
100
AcDbEntity
  8
0
 62
7
100
AcDbPolyline
 90
1
 70
1
 10
48.201879
 20
94.248397
 30
0.0
  0
SPLINE
  5
27e
100
AcDbEntity
  8
0
 62
7
100
AcDbSpline
 70
8
 71
3
 72
8
 73
4
 74
0
 40
0
 40
0
 40
0
 40
0
 40
1
 40
1
 40
1
 40
1
 10
17.801850
 20
77.529616
 30
0.0
 10
18.182865
 20
77.596646
 30
0.0
 10
18.546240
 20
77.342636
 30
0.0
 10
18.613270
 20
76.961622
 30
0.0
  0
LWPOLYLINE
  5
27f
100
AcDbEntity
  8
0
 62
7
100
AcDbPolyline
 90
3
 70
0
 10
0.049391
 20
96.192277
 30
0.0
 10
0.049391
 20
74.400357
 30
0.0
 10
17.801850
 20
77.529616
 30
0.0
  0
SPLINE
  5
280
100
AcDbEntity
  8
0
 62
7
100
AcDbSpline
 70
8
 71
3
 72
8
 73
4
 74
0
 40
0
 40
0
 40
0
 40
0
 40
1
 40
1
 40
1
 40
1
 10
21.403850
 20
61.054261
 30
0.0
 10
21.527327
 20
60.341623
 30
0.0
 10
22.585701
 20
60.468627
 30
0.0
 10
22.536310
 20
61.191850
 30
0.0
  0
LWPOLYLINE
  5
281
100
AcDbEntity
  8
0
 62
7
100
AcDbPolyline
 90
2
 70
0
 10
18.613270
 20
76.961622
 30
0.0
 10
21.403850
 20
61.054261
 30
0.0
  0
SPLINE
  5
282
100
AcDbEntity
  8
0
 62
7
100
AcDbSpline
 70
8
 71
3
 72
8
 73
4
 74
0
 40
0
 40
0
 40
0
 40
0
 40
1
 40
1
 40
1
 40
1
 10
37.498190
 20
94.290732
 30
0.0
 10
37.498190
 20
94.872837
 30
0.0
 10
37.967402
 20
95.342050
 30
0.0
 10
38.549508
 20
95.342050
 30
0.0
  0
SPLINE
  5
283
100
AcDbEntity
  8
0
 62
7
100
AcDbSpline
 70
8
 71
3
 72
8
 73
4
 74
0
 40
0
 40
0
 40
0
 40
0
 40
1
 40
1
 40
1
 40
1
 10
38.549508
 20
95.342050
 30
0.0
 10
39.131614
 20
95.342050
 30
0.0
 10
39.600826
 20
94.872837
 30
0.0
 10
39.600826
 20
94.290732
 30
0.0
  0
SPLINE
  5
284
100
AcDbEntity
  8
0
 62
7
100
AcDbSpline
 70
8
 71
3
 72
8
 73
4
 74
0
 40
0
 40
0
 40
0
 40
0
 40
1
 40
1
 40
1
 40
1
 10
39.600826
 20
94.290732
 30
0.0
 10
39.600826
 20
93.708626
 30
0.0
 10
39.128086
 20
93.239413
 30
0.0
 10
38.549508
 20
93.239413
 30
0.0
  0
SPLINE
  5
285
100
AcDbEntity
  8
0
 62
7
100
AcDbSpline
 70
8
 71
3
 72
8
 73
4
 74
0
 40
0
 40
0
 40
0
 40
0
 40
1
 40
1
 40
1
 40
1
 10
38.549508
 20
93.239413
 30
0.0
 10
37.970930
 20
93.239413
 30
0.0
 10
37.498190
 20
93.708626
 30
0.0
 10
37.498190
 20
94.290732
 30
0.0
  0
LWPOLYLINE
  5
286
100
AcDbEntity
  8
0
 62
7
100
AcDbPolyline
 90
7
 70
0
 10
22.536310
 20
61.191850
 30
0.0
 10
20.560678
 20
89.725612
 30
0.0
 10
20.560678
 20
89.725612
 30
0.0
 10
43.065237
 20
91.299061
 30
0.0
 10
43.054653
 20
96.890804
 30
0.0
 10
0.747918
 20
96.890804
 30
0.0
 10
0.747918
 20
96.890804
 30
0.0
  0
SPLINE
  5
287
100
AcDbEntity
  8
0
 62
7
100
AcDbSpline
 70
8
 71
3
 72
8
 73
4
 74
0
 40
0
 40
0
 40
0
 40
0
 40
1
 40
1
 40
1
 40
1
 10
22.656259
 20
93.281748
 30
0.0
 10
22.656259
 20
93.863854
 30
0.0
 10
23.125471
 20
94.333067
 30
0.0
 10
23.707577
 20
94.333067
 30
0.0
  0
SPLINE
  5
288
100
AcDbEntity
  8
0
 62
7
100
AcDbSpline
 70
8
 71
3
 72
8
 73
4
 74
0
 40
0
 40
0
 40
0
 40
0
 40
1
 40
1
 40
1
 40
1
 10
23.707577
 20
94.333067
 30
0.0
 10
24.289683
 20
94.333067
 30
0.0
 10
24.758895
 20
93.863854
 30
0.0
 10
24.758895
 20
93.281748
 30
0.0
  0
SPLINE
  5
289
100
AcDbEntity
  8
0
 62
7
100
AcDbSpline
 70
8
 71
3
 72
8
 73
4
 74
0
 40
0
 40
0
 40
0
 40
0
 40
1
 40
1
 40
1
 40
1
 10
24.758895
 20
93.281748
 30
0.0
 10
24.758895
 20
92.699643
 30
0.0
 10
24.286155
 20
92.230430
 30
0.0
 10
23.707577
 20
92.230430
 30
0.0
  0
SPLINE
  5
28a
100
AcDbEntity
  8
0
 62
7
100
AcDbSpline
 70
8
 71
3
 72
8
 73
4
 74
0
 40
0
 40
0
 40
0
 40
0
 40
1
 40
1
 40
1
 40
1
 10
23.707577
 20
92.230430
 30
0.0
 10
23.128999
 20
92.230430
 30
0.0
 10
22.656259
 20
92.699643
 30
0.0
 10
22.656259
 20
93.281748
 30
0.0
  0
LWPOLYLINE
  5
28b
100
AcDbEntity
  8
0
 62
7
100
AcDbPolyline
 90
1
 70
1
 10
37.498190
 20
94.290732
 30
0.0
  0
LWPOLYLINE
  5
28c
100
AcDbEntity
  8
0
 62
7
100
AcDbPolyline
 90
1
 70
1
 10
22.656259
 20
93.281748
 30
0.0
  0
ENDSEC
  0
SECTION
  2
OBJECTS
  0
DICTIONARY
  5
C
330
0
100
AcDbDictionary
  3
ACAD_GROUP
350
D
  3
ACAD_MLINESTYLE
350
17
  0
DICTIONARY
  5
D
330
C
100
AcDbDictionary
  0
DICTIONARY
  5
1A
330
C
100
AcDbDictionary
  0
DICTIONARY
  5
17
330
C
100
AcDbDictionary
  3
STANDARD
350
18
  0
DICTIONARY
  5
19
330
C
100
AcDbDictionary
  0
ENDSEC
  0
EOF
