<?xml version="1.0" encoding="UTF-8"?>
<svg xmlns="http://www.w3.org/2000/svg" width="509.87mm" height="800.54mm" viewBox="0 0 1445.29 2269.25">
  <defs>
    <style>
      .cls-1 {
        fill: #d7ebff;
      }

      .cls-2 {
        fill: #262626;
      }

      .cls-3 {
        fill: #58a6ff;
      }

      .cls-4 {
        fill: #fff;
      }

      .cls-5 {
        fill: #aed7ff;
      }

      .cls-6 {
        fill: #4c4c4c;
      }

      .cls-7 {
        fill: #3f3f3f;
      }

      .cls-8 {
        fill: #83c1ff;
      }

      .cls-9 {
        fill: #333;
      }

      .cls-10 {
        fill: #d29922;
      }

      .cls-11 {
        fill: #595959;
      }
    </style>
  </defs>
  <g id="Background">
    <rect class="cls-11" x="0" width="1445.29" height="455.08"/>
    <rect class="cls-6" y="455.08" width="1445.29" height="453.54"/>
    <rect class="cls-7" x="0" y="908.62" width="1445.29" height="453.54"/>
    <rect class="cls-9" x="0" y="1362.16" width="1445.29" height="453.54"/>
    <rect class="cls-2" x="0" y="1815.71" width="1445.29" height="453.54"/>
  </g>
  <g id="Polydactyl_BJE" data-name="Polydactyl BJE">
    <g id="Bottom_Kopie_4" data-name="Bottom Kopie 4">
      <path class="cls-4" d="M1070.22,168.79l-51.04-9,6.59-37.39c.19-1.08-.53-2.11-1.61-2.3l-13.25-2.34V54.54c0-1.1-.89-1.98-1.98-1.98h-113.41v-9.21c0-1.1-.89-1.98-1.98-1.98h-86.81c-1.1,0-1.98,.89-1.98,1.98v9.21h-101.34v113.79h-58.06V52.56h-31.11c-1.1,0-1.98,.89-1.98,1.98V235.99l14.74,14.74h11.85v17.33h25.77v25.94h-37.61l-14.74,15.79v6.02l-33.53,33.53c-.77,.77-.77,2.03,0,2.81l61.38,61.38c.77,.77,2.03,.77,2.81,0l35.62-35.62c10.6-9.82,22.04-18.39,33.11-24.78,14.47-8.36,29.97-14.88,44.82-18.86,16.03-4.3,32.67-6.59,48.08-6.65h43.4c1.1,0,1.98-.89,1.98-1.98v-37.01h29.11l25.02,1.75-1.42,8.03c-.19,1.08,.53,2.11,1.61,2.3l85.33,15.05c1.08,.19,2.11-.53,2.3-1.61l2.1-11.91,51.13,9.02c1.08,.19,2.11-.53,2.3-1.61l24.43-138.56c.19-1.08-.53-2.11-1.61-2.3h-.02Zm-480.37,185.12c-1.72,0-3.12-1.4-3.12-3.12s1.4-3.12,3.12-3.12,3.12,1.4,3.12,3.12-1.4,3.12-3.12,3.12Zm45.39-50.28c-1.64,0-2.98-1.33-2.98-2.98s1.33-2.98,2.98-2.98,2.98,1.33,2.98,2.98-1.33,2.98-2.98,2.98Zm6.28,101.89c-1.72,0-3.12-1.4-3.12-3.12s1.4-3.12,3.12-3.12,3.12,1.4,3.12,3.12-1.4,3.12-3.12,3.12Zm-6.28-333c1.64,0,2.98,1.33,2.98,2.98s-1.33,2.98-2.98,2.98-2.98-1.33-2.98-2.98,1.33-2.98,2.98-2.98Zm-15.89,160.91c-1.72,0-3.12-1.4-3.12-3.12s1.4-3.12,3.12-3.12,3.12,1.4,3.12,3.12-1.4,3.12-3.12,3.12Zm0-103.29c-1.72,0-3.12-1.4-3.12-3.12s1.4-3.12,3.12-3.12,3.12,1.4,3.12,3.12-1.4,3.12-3.12,3.12Zm1.83-65.56c-1.72,0-3.12-1.4-3.12-3.12s1.4-3.12,3.12-3.12,3.12,1.4,3.12,3.12-1.4,3.12-3.12,3.12Zm47.95,157.79h-42.52v-21.32h42.52v21.32ZM810.48,55.28c1.72,0,3.12,1.4,3.12,3.12s-1.4,3.12-3.12,3.12-3.12-1.4-3.12-3.12,1.4-3.12,3.12-3.12Zm.71,23.34c-1.64,0-2.98-1.33-2.98-2.98s1.33-2.98,2.98-2.98,2.98,1.33,2.98,2.98-1.33,2.98-2.98,2.98Zm29.92,243.27c-1.72,0-3.12-1.4-3.12-3.12s1.4-3.12,3.12-3.12,3.12,1.4,3.12,3.12-1.4,3.12-3.12,3.12Zm32.19-151.74c-1.64,0-2.98-1.33-2.98-2.98s1.33-2.98,2.98-2.98,2.98,1.33,2.98,2.98-1.33,2.98-2.98,2.98Zm13.28-111.75c0-1.72,1.4-3.12,3.12-3.12s3.12,1.4,3.12,3.12-1.4,3.12-3.12,3.12-3.12-1.4-3.12-3.12Zm6.13,20.1c-1.64,0-2.98-1.33-2.98-2.98s1.33-2.98,2.98-2.98,2.98,1.33,2.98,2.98-1.33,2.98-2.98,2.98Zm19.94,217.82c-1.72,0-3.12-1.4-3.12-3.12s1.4-3.12,3.12-3.12,3.12,1.4,3.12,3.12-1.4,3.12-3.12,3.12Zm1.06-28.6c-1.64,0-2.98-1.33-2.98-2.98s1.33-2.98,2.98-2.98,2.98,1.33,2.98,2.98-1.33,2.98-2.98,2.98Zm98.73-100.11c-1.72,0-3.12-1.4-3.12-3.12s1.4-3.12,3.12-3.12,3.12,1.4,3.12,3.12-1.4,3.12-3.12,3.12Zm27.45,136.84c-1.72,0-3.12-1.4-3.12-3.12s1.4-3.12,3.12-3.12,3.12,1.4,3.12,3.12-1.4,3.12-3.12,3.12Z"/>
      <path class="cls-4" d="M54.35,168.68h-.02c-1.08,.19-1.8,1.22-1.61,2.3l24.43,138.56c.19,1.08,1.22,1.8,2.3,1.61l51.13-9.02,2.1,11.91c.19,1.08,1.22,1.8,2.3,1.61l85.33-15.05c1.08-.19,1.8-1.22,1.61-2.3l-1.42-8.03,25.02-1.75h29.11v37.01c0,1.09,.88,1.98,1.98,1.98h43.4c15.41,.06,32.05,2.35,48.08,6.65,14.85,3.98,30.35,10.5,44.82,18.86,11.07,6.39,22.51,14.96,33.11,24.78l35.62,35.62c.78,.77,2.04,.77,2.81,0l61.38-61.38c.77-.78,.77-2.04,0-2.81l-33.53-33.53v-6.02l-14.74-15.79h-37.61v-25.94h25.77v-17.33h11.85l14.74-14.74V54.43c0-1.09-.88-1.98-1.98-1.98h-31.11v113.79h-58.06V52.45h-101.34v-9.21c0-1.09-.88-1.98-1.98-1.98h-86.81c-1.09,0-1.98,.88-1.98,1.98v9.21H115.64c-1.09,0-1.98,.88-1.98,1.98v63.22l-13.25,2.34c-1.08,.19-1.8,1.22-1.61,2.3l6.59,37.39-51.04,9h0Zm477.25,182.03c0-1.72,1.4-3.12,3.12-3.12s3.12,1.4,3.12,3.12-1.4,3.12-3.12,3.12-3.12-1.4-3.12-3.12Zm-45.25-50.14c0-1.65,1.33-2.98,2.98-2.98s2.98,1.33,2.98,2.98-1.34,2.98-2.98,2.98-2.98-1.33-2.98-2.98Zm-6.42,101.75c0-1.72,1.4-3.12,3.12-3.12s3.12,1.4,3.12,3.12-1.4,3.12-3.12,3.12-3.12-1.4-3.12-3.12Zm12.38-326.9c0,1.65-1.33,2.98-2.98,2.98s-2.98-1.33-2.98-2.98,1.34-2.98,2.98-2.98,2.98,1.33,2.98,2.98Zm9.79,154.81c0-1.72,1.4-3.12,3.12-3.12s3.12,1.4,3.12,3.12-1.4,3.12-3.12,3.12-3.12-1.4-3.12-3.12Zm0-103.29c0-1.72,1.4-3.12,3.12-3.12s3.12,1.4,3.12,3.12-1.4,3.12-3.12,3.12-3.12-1.4-3.12-3.12Zm-1.83-65.56c0-1.72,1.4-3.12,3.12-3.12s3.12,1.4,3.12,3.12-1.4,3.12-3.12,3.12-3.12-1.4-3.12-3.12Zm-44.83,139.59h42.52v21.32h-42.52v-21.32ZM317.22,58.29c0,1.72-1.4,3.12-3.12,3.12s-3.12-1.4-3.12-3.12,1.4-3.12,3.12-3.12,3.12,1.4,3.12,3.12Zm-6.81,17.24c0-1.65,1.33-2.98,2.98-2.98s2.98,1.33,2.98,2.98-1.34,2.98-2.98,2.98-2.98-1.33-2.98-2.98Zm-30.06,243.13c0-1.72,1.4-3.12,3.12-3.12s3.12,1.4,3.12,3.12-1.4,3.12-3.12,3.12-3.12-1.4-3.12-3.12Zm-32.05-151.6c0-1.65,1.33-2.98,2.98-2.98s2.98,1.33,2.98,2.98-1.34,2.98-2.98,2.98-2.98-1.33-2.98-2.98Zm-13.42-105.65c-1.72,0-3.12-1.4-3.12-3.12s1.4-3.12,3.12-3.12,3.12,1.4,3.12,3.12-1.4,3.12-3.12,3.12Zm-5.99,14c0-1.65,1.33-2.98,2.98-2.98s2.98,1.33,2.98,2.98-1.34,2.98-2.98,2.98-2.98-1.33-2.98-2.98Zm-20.08,217.68c0-1.72,1.4-3.12,3.12-3.12s3.12,1.4,3.12,3.12-1.4,3.12-3.12,3.12-3.12-1.4-3.12-3.12Zm-.92-28.46c0-1.65,1.33-2.98,2.98-2.98s2.98,1.33,2.98,2.98-1.34,2.98-2.98,2.98-2.98-1.33-2.98-2.98Zm-98.87-100.25c0-1.72,1.4-3.12,3.12-3.12s3.12,1.4,3.12,3.12-1.4,3.12-3.12,3.12-3.12-1.4-3.12-3.12Zm-27.45,136.84c0-1.72,1.4-3.12,3.12-3.12s3.12,1.4,3.12,3.12-1.4,3.12-3.12,3.12-3.12-1.4-3.12-3.12Z"/>
      <g>
        <path class="cls-1" d="M626.45,703.17v-180.04c0-1.88,1.52-3.4,3.4-3.4h24.28v-14.17h-39.87c-1.1,0-1.98,.89-1.98,1.98v181.46l14.18,14.17h-.01Zm-5.26-193.22c2.5,0,4.54,2.03,4.54,4.54s-2.03,4.54-4.54,4.54-4.54-2.03-4.54-4.54,2.03-4.54,4.54-4.54Zm-1.83,65.56c2.5,0,4.54,2.03,4.54,4.54s-2.03,4.54-4.54,4.54-4.54-2.03-4.54-4.54,2.03-4.54,4.54-4.54Zm0,103.29c2.5,0,4.54,2.03,4.54,4.54s-2.03,4.54-4.54,4.54-4.54-2.03-4.54-4.54,2.03-4.54,4.54-4.54Z"/>
        <path class="cls-1" d="M1075.94,621.78l-51.04-9,6.59-37.39c.19-1.08-.53-2.11-1.61-2.3l-13.25-2.34v-63.22c0-1.1-.89-1.98-1.98-1.98h-15.83v14.17h.24c.91,0,1.76,.35,2.41,1,.64,.64,1,1.5,1,2.4v59.52l9.61,1.69c1.85,.33,3.08,2.09,2.76,3.94l-6.34,35.99,49.64,8.75c1.85,.33,3.08,2.09,2.76,3.94l-19.02,107.85c-.29,1.63-1.69,2.81-3.35,2.81-.2,0-.39-.02-.59-.05l-49.74-8.77-1.85,10.51c-.29,1.63-1.7,2.81-3.35,2.81-.19,0-.39-.02-.59-.05l-54.62-9.63c-1.85-.33-3.08-2.09-2.76-3.94l1.44-8.17-41.21-2.89h-43.78l14.17,14.17h29.11l25.02,1.75-1.42,8.03c-.19,1.08,.53,2.11,1.61,2.3l85.33,15.05c1.08,.19,2.11-.53,2.3-1.61l2.1-11.91,51.13,9.02c1.08,.19,2.11-.53,2.3-1.61l24.43-138.56c.19-1.08-.53-2.11-1.61-2.3v.02h-.01Zm-57.8,.23c-2.5,0-4.54-2.03-4.54-4.54s2.03-4.54,4.54-4.54,4.54,2.03,4.54,4.54-2.03,4.54-4.54,4.54Zm-99.79,128.72c-2.5,0-4.54-2.03-4.54-4.54s2.03-4.54,4.54-4.54,4.54,2.03,4.54,4.54-2.03,4.54-4.54,4.54Zm127.24,8.12c-2.5,0-4.54-2.03-4.54-4.54s2.03-4.54,4.54-4.54,4.54,2.03,4.54,4.54-2.03,4.54-4.54,4.54Z"/>
        <path class="cls-1" d="M835.78,763.06c0,1.88-1.53,3.4-3.4,3.4h-27.81c-16.66,.06-34.56,2.52-51.75,7.13-16.03,4.29-32.71,11.31-48.24,20.28-12.04,6.95-24.44,16.24-35.86,26.85l-24.79,24.79c-.64,.64-1.5,1-2.41,1s-1.76-.35-2.4-1l-39.33-39.33c-.64-.64-1-1.5-1-2.41s.35-1.76,1-2.41l26.66-26.66v-27.08l-14.17,15.19v6.02l-33.53,33.53c-.77,.77-.77,2.03,0,2.81l61.38,61.38c.77,.77,2.03,.77,2.81,0l35.62-35.62c10.6-9.82,22.04-18.39,33.11-24.78,14.47-8.36,29.97-14.88,44.82-18.86,16.03-4.3,32.67-6.59,48.08-6.65h43.4c1.1,0,1.98-.89,1.98-1.98v-37.01l-14.17-14.17v35.58h0Zm-245.91,45.3c-2.5,0-4.54-2.03-4.54-4.54s2.03-4.54,4.54-4.54,4.54,2.03,4.54,4.54-2.03,4.54-4.54,4.54Zm51.66,51.61c-2.5,0-4.54-2.03-4.54-4.54s2.03-4.54,4.54-4.54,4.54,2.03,4.54,4.54-2.03,4.54-4.54,4.54Zm199.59-92.73c2.5,0,4.54,2.03,4.54,4.54s-2.03,4.54-4.54,4.54-4.54-2.03-4.54-4.54,2.03-4.54,4.54-4.54Z"/>
        <path class="cls-1" d="M895.55,505.56v-9.21c0-1.1-.89-1.98-1.98-1.98h-86.81c-1.1,0-1.98,.89-1.98,1.98v9.21h-110.1v14.17h124.27v-7.79c0-1.88,1.53-3.4,3.4-3.4h55.62c1.88,0,3.4,1.53,3.4,3.4v7.8h111.75v-14.18h-97.57Zm-85.06,10.37c-2.5,0-4.54-2.03-4.54-4.54s2.03-4.54,4.54-4.54,4.54,2.03,4.54,4.54-2.03,4.54-4.54,4.54Zm79.22,0c-2.5,0-4.54-2.03-4.54-4.54s2.03-4.54,4.54-4.54,4.54,2.03,4.54,4.54-2.03,4.54-4.54,4.54Z"/>
      </g>
      <g>
        <path class="cls-1" d="M498.12,703.06l14.18-14.17v-181.46c0-1.09-.88-1.98-1.98-1.98h-39.87v14.17h24.28c1.88,0,3.4,1.52,3.4,3.4v180.04h0Zm9.81-188.68c0,2.51-2.03,4.54-4.54,4.54s-4.54-2.03-4.54-4.54,2.04-4.54,4.54-4.54,4.54,2.03,4.54,4.54Zm1.83,65.56c0,2.51-2.03,4.54-4.54,4.54s-4.54-2.03-4.54-4.54,2.04-4.54,4.54-4.54,4.54,2.03,4.54,4.54Zm0,103.29c0,2.51-2.03,4.54-4.54,4.54s-4.54-2.03-4.54-4.54,2.04-4.54,4.54-4.54,4.54,2.03,4.54,4.54Z"/>
        <path class="cls-1" d="M48.63,621.65c-1.08,.19-1.8,1.22-1.61,2.3l24.43,138.56c.19,1.08,1.22,1.8,2.3,1.61l51.13-9.02,2.1,11.91c.19,1.08,1.22,1.8,2.3,1.61l85.33-15.05c1.08-.19,1.8-1.22,1.61-2.3l-1.42-8.03,25.02-1.75h29.11l14.17-14.17h-43.78l-41.21,2.89,1.44,8.17c.32,1.85-.91,3.61-2.76,3.94l-54.62,9.63c-.2,.03-.4,.05-.59,.05-1.65,0-3.06-1.18-3.35-2.81l-1.85-10.51-49.74,8.77c-.2,.03-.39,.05-.59,.05-1.66,0-3.06-1.18-3.35-2.81l-19.02-107.85c-.32-1.85,.91-3.61,2.76-3.94l49.64-8.75-6.34-35.99c-.32-1.85,.91-3.61,2.76-3.94l9.61-1.69v-59.52c0-.9,.36-1.76,1-2.4,.65-.65,1.5-1,2.41-1h.24v-14.17h-15.83c-1.09,0-1.98,.88-1.98,1.98v63.22l-13.25,2.34c-1.08,.19-1.8,1.22-1.61,2.3l6.59,37.39-51.04,9v-.02h0Zm53.25-4.29c0-2.51,2.03-4.54,4.54-4.54s4.54,2.03,4.54,4.54-2.04,4.54-4.54,4.54-4.54-2.03-4.54-4.54Zm99.79,128.72c0-2.51,2.03-4.54,4.54-4.54s4.54,2.03,4.54,4.54-2.04,4.54-4.54,4.54-4.54-2.03-4.54-4.54h0Zm-127.24,8.12c0-2.51,2.03-4.54,4.54-4.54s4.54,2.03,4.54,4.54-2.04,4.54-4.54,4.54-4.54-2.03-4.54-4.54Z"/>
        <path class="cls-1" d="M288.8,762.97v-35.6l-14.17,14.17v37.01c0,1.09,.88,1.98,1.98,1.98h43.4c15.41,.06,32.05,2.35,48.08,6.65,14.85,3.98,30.35,10.5,44.82,18.86,11.07,6.39,22.51,14.96,33.11,24.78l35.62,35.62c.78,.77,2.04,.77,2.81,0l61.38-61.38c.77-.78,.77-2.04,0-2.81l-33.53-33.53v-6.02l-14.17-15.19v27.08l26.66,26.66c.65,.65,1,1.5,1,2.41s-.36,1.77-1,2.41l-39.33,39.33c-.64,.65-1.49,1-2.4,1s-1.77-.36-2.41-1l-24.79-24.79c-11.42-10.61-23.82-19.9-35.86-26.85-15.53-8.97-32.21-15.99-48.24-20.28-17.19-4.61-35.09-7.07-51.75-7.13h-27.81c-1.87,0-3.4-1.52-3.4-3.4v.02h0Zm241.37,40.74c0-2.51,2.03-4.54,4.54-4.54s4.54,2.03,4.54,4.54-2.04,4.54-4.54,4.54-4.54-2.03-4.54-4.54Zm-51.66,51.61c0-2.51,2.03-4.54,4.54-4.54s4.54,2.03,4.54,4.54-2.04,4.54-4.54,4.54-4.54-2.03-4.54-4.54Zm-190.51-83.65c0,2.51-2.03,4.54-4.54,4.54s-4.54-2.03-4.54-4.54,2.04-4.54,4.54-4.54,4.54,2.03,4.54,4.54Z"/>
        <path class="cls-1" d="M229.04,505.45h-97.58v14.18h111.75v-7.8c0-1.87,1.52-3.4,3.4-3.4h55.62c1.87,0,3.4,1.52,3.4,3.4v7.79h124.27v-14.17h-110.1v-9.21c0-1.09-.88-1.98-1.98-1.98h-86.81c-1.09,0-1.98,.88-1.98,1.98v9.21h.01Zm80.51,5.83c0-2.51,2.03-4.54,4.54-4.54s4.54,2.03,4.54,4.54-2.04,4.54-4.54,4.54-4.54-2.03-4.54-4.54Zm-79.22,0c0-2.51,2.03-4.54,4.54-4.54s4.54,2.03,4.54,4.54-2.04,4.54-4.54,4.54-4.54-2.03-4.54-4.54Z"/>
      </g>
      <g>
        <path class="cls-5" d="M895.55,959.44v-9.21c0-1.1-.89-1.98-1.98-1.98h-86.81c-1.1,0-1.98,.89-1.98,1.98v9.21h-190.52c-1.1,0-1.98,.89-1.98,1.98v21.9l14.17,14.17v-20.48c0-1.88,1.53-3.4,3.4-3.4h189.09v-7.79c0-1.88,1.53-3.4,3.4-3.4h55.62c1.88,0,3.4,1.53,3.4,3.4v7.8h111.75v-14.18h-97.56Zm-274.36,13.46c-2.5,0-4.54-2.03-4.54-4.54s2.03-4.54,4.54-4.54,4.54,2.03,4.54,4.54-2.03,4.54-4.54,4.54Zm189.29-3.1c-2.5,0-4.54-2.03-4.54-4.54s2.03-4.54,4.54-4.54,4.54,2.03,4.54,4.54-2.03,4.54-4.54,4.54Zm79.22,0c-2.5,0-4.54-2.03-4.54-4.54s2.03-4.54,4.54-4.54,4.54,2.03,4.54,4.54-2.03,4.54-4.54,4.54Z"/>
        <path class="cls-5" d="M835.78,1216.94c0,1.88-1.53,3.4-3.4,3.4h-27.81c-16.66,.06-34.56,2.52-51.75,7.13-16.03,4.29-32.71,11.31-48.24,20.28-12.04,6.95-24.44,16.24-35.86,26.85l-24.79,24.79c-.64,.64-1.5,1-2.41,1s-1.76-.35-2.4-1l-39.33-39.33c-.64-.64-1-1.5-1-2.41s.35-1.76,1-2.41l26.66-26.66v-27.08l-14.17,15.19v6.02l-33.53,33.53c-.77,.77-.77,2.03,0,2.81l61.38,61.38c.77,.77,2.03,.77,2.81,0l35.62-35.62c10.6-9.82,22.04-18.39,33.11-24.78,14.47-8.36,29.97-14.88,44.82-18.86,16.03-4.3,32.67-6.59,48.08-6.65h43.4c1.1,0,1.98-.89,1.98-1.98v-37.01l-14.17-14.17v35.58h0Zm-245.91,45.3c-2.5,0-4.54-2.03-4.54-4.54s2.03-4.54,4.54-4.54,4.54,2.03,4.54,4.54-2.03,4.54-4.54,4.54Zm51.66,51.61c-2.5,0-4.54-2.03-4.54-4.54s2.03-4.54,4.54-4.54,4.54,2.03,4.54,4.54-2.03,4.54-4.54,4.54Zm199.59-92.73c2.5,0,4.54,2.03,4.54,4.54s-2.03,4.54-4.54,4.54-4.54-2.03-4.54-4.54,2.03-4.54,4.54-4.54Z"/>
        <path class="cls-5" d="M1075.94,1075.66l-51.04-9,6.59-37.39c.19-1.08-.53-2.11-1.61-2.3l-13.25-2.34v-63.22c0-1.1-.89-1.98-1.98-1.98h-15.83v14.17h.24c.91,0,1.76,.35,2.41,1,.64,.64,1,1.5,1,2.4v59.52l9.61,1.69c1.85,.33,3.08,2.09,2.76,3.94l-6.34,35.99,49.64,8.75c1.85,.33,3.08,2.09,2.76,3.94l-19.02,107.85c-.29,1.63-1.69,2.81-3.35,2.81-.2,0-.39-.02-.59-.05l-49.74-8.77-1.85,10.51c-.29,1.63-1.7,2.81-3.35,2.81-.19,0-.39-.02-.59-.05l-54.62-9.63c-1.85-.33-3.08-2.09-2.76-3.94l1.44-8.17-41.21-2.89h-43.78l14.17,14.17h29.11l25.02,1.75-1.42,8.03c-.19,1.08,.53,2.11,1.61,2.3l85.33,15.05c1.08,.19,2.11-.53,2.3-1.61l2.1-11.91,51.13,9.02c1.08,.19,2.11-.53,2.3-1.61l24.43-138.56c.19-1.08-.53-2.11-1.61-2.3v.02h-.01Zm-57.8,.23c-2.5,0-4.54-2.03-4.54-4.54s2.03-4.54,4.54-4.54,4.54,2.03,4.54,4.54-2.03,4.54-4.54,4.54Zm-99.79,128.72c-2.5,0-4.54-2.03-4.54-4.54s2.03-4.54,4.54-4.54,4.54,2.03,4.54,4.54-2.03,4.54-4.54,4.54Zm127.24,8.12c-2.5,0-4.54-2.03-4.54-4.54s2.03-4.54,4.54-4.54,4.54,2.03,4.54,4.54-2.03,4.54-4.54,4.54Z"/>
        <path class="cls-5" d="M626.45,1014.32l-14.17,14.17v114.39l14.17,14.17v-142.73Zm-7.09,127.43c-2.5,0-4.54-2.03-4.54-4.54s2.03-4.54,4.54-4.54,4.54,2.03,4.54,4.54-2.03,4.54-4.54,4.54Zm0-103.29c-2.5,0-4.54-2.03-4.54-4.54s2.03-4.54,4.54-4.54,4.54,2.03,4.54,4.54-2.03,4.54-4.54,4.54Z"/>
      </g>
      <g>
        <path class="cls-5" d="M229.05,959.33h-97.58v14.18h111.75v-7.8c0-1.87,1.52-3.4,3.4-3.4h55.62c1.87,0,3.4,1.52,3.4,3.4v7.79h189.09c1.87,0,3.4,1.52,3.4,3.4v20.48l14.17-14.17v-21.9c0-1.09-.88-1.98-1.98-1.98h-190.52v-9.21c0-1.09-.88-1.98-1.98-1.98h-86.81c-1.09,0-1.98,.88-1.98,1.98v9.21h.02Zm269.8,8.92c0-2.51,2.03-4.54,4.54-4.54s4.54,2.03,4.54,4.54-2.04,4.54-4.54,4.54-4.54-2.03-4.54-4.54Zm-189.29-3.1c0-2.51,2.03-4.54,4.54-4.54s4.54,2.03,4.54,4.54-2.04,4.54-4.54,4.54-4.54-2.03-4.54-4.54Zm-79.22,0c0-2.51,2.03-4.54,4.54-4.54s4.54,2.03,4.54,4.54-2.04,4.54-4.54,4.54-4.54-2.03-4.54-4.54Z"/>
        <path class="cls-5" d="M288.8,1216.85v-35.6l-14.17,14.17v37.01c0,1.09,.88,1.98,1.98,1.98h43.4c15.41,.06,32.05,2.35,48.08,6.65,14.85,3.98,30.35,10.5,44.82,18.86,11.07,6.39,22.51,14.96,33.11,24.78l35.62,35.62c.78,.77,2.04,.77,2.81,0l61.38-61.38c.77-.78,.77-2.04,0-2.81l-33.53-33.53v-6.02l-14.17-15.19v27.08l26.66,26.66c.65,.65,1,1.5,1,2.41s-.36,1.77-1,2.41l-39.33,39.33c-.64,.65-1.49,1-2.4,1s-1.77-.36-2.41-1l-24.79-24.79c-11.42-10.61-23.82-19.9-35.86-26.85-15.53-8.97-32.21-15.99-48.24-20.28-17.19-4.61-35.09-7.07-51.75-7.13h-27.81c-1.87,0-3.4-1.52-3.4-3.4v.02h0Zm241.37,40.74c0-2.51,2.03-4.54,4.54-4.54s4.54,2.03,4.54,4.54-2.04,4.54-4.54,4.54-4.54-2.03-4.54-4.54Zm-51.66,51.61c0-2.51,2.03-4.54,4.54-4.54s4.54,2.03,4.54,4.54-2.04,4.54-4.54,4.54-4.54-2.03-4.54-4.54Zm-190.51-83.65c0,2.51-2.03,4.54-4.54,4.54s-4.54-2.03-4.54-4.54,2.04-4.54,4.54-4.54,4.54,2.03,4.54,4.54Z"/>
        <path class="cls-5" d="M48.63,1075.53c-1.08,.19-1.8,1.22-1.61,2.3l24.43,138.56c.19,1.08,1.22,1.8,2.3,1.61l51.13-9.02,2.1,11.91c.19,1.08,1.22,1.8,2.3,1.61l85.33-15.05c1.08-.19,1.8-1.22,1.61-2.3l-1.42-8.03,25.02-1.75h29.11l14.17-14.17h-43.78l-41.21,2.89,1.44,8.17c.32,1.85-.91,3.61-2.76,3.94l-54.62,9.63c-.2,.03-.4,.05-.59,.05-1.65,0-3.06-1.18-3.35-2.81l-1.85-10.51-49.74,8.77c-.2,.03-.39,.05-.59,.05-1.66,0-3.06-1.18-3.35-2.81l-19.02-107.85c-.32-1.85,.91-3.61,2.76-3.94l49.64-8.75-6.34-35.99c-.32-1.85,.91-3.61,2.76-3.94l9.61-1.69v-59.52c0-.9,.36-1.76,1-2.4,.65-.65,1.5-1,2.41-1h.24v-14.17h-15.83c-1.09,0-1.98,.88-1.98,1.98v63.22l-13.25,2.34c-1.08,.19-1.8,1.22-1.61,2.3l6.59,37.39-51.04,9v-.02h0Zm53.25-4.29c0-2.51,2.03-4.54,4.54-4.54s4.54,2.03,4.54,4.54-2.04,4.54-4.54,4.54-4.54-2.03-4.54-4.54Zm99.79,128.72c0-2.51,2.03-4.54,4.54-4.54s4.54,2.03,4.54,4.54-2.04,4.54-4.54,4.54-4.54-2.03-4.54-4.54h0Zm-127.24,8.12c0-2.51,2.03-4.54,4.54-4.54s4.54,2.03,4.54,4.54-2.04,4.54-4.54,4.54-4.54-2.03-4.54-4.54Z"/>
        <path class="cls-5" d="M498.13,1156.94l14.17-14.17v-114.39l-14.17-14.17v142.73Zm2.55-19.84c0-2.51,2.03-4.54,4.54-4.54s4.54,2.03,4.54,4.54-2.04,4.54-4.54,4.54-4.54-2.03-4.54-4.54Zm0-103.29c0-2.51,2.03-4.54,4.54-4.54s4.54,2.03,4.54,4.54-2.04,4.54-4.54,4.54-4.54-2.03-4.54-4.54Z"/>
      </g>
      <g>
        <path class="cls-8" d="M895.54,1412.65v-9.21c0-1.1-.89-1.98-1.98-1.98h-86.81c-1.1,0-1.98,.89-1.98,1.98v9.21h-190.52c-1.1,0-1.98,.89-1.98,1.98v21.9l14.17,14.17v-20.48c0-1.88,1.53-3.4,3.4-3.4h189.09v-7.79c0-1.88,1.53-3.4,3.4-3.4h55.62c1.88,0,3.4,1.53,3.4,3.4v7.8h111.75v-14.18h-97.56Zm-274.35,13.46c-2.5,0-4.54-2.03-4.54-4.54s2.03-4.54,4.54-4.54,4.54,2.03,4.54,4.54-2.03,4.54-4.54,4.54Zm189.29-3.1c-2.5,0-4.54-2.03-4.54-4.54s2.03-4.54,4.54-4.54,4.54,2.03,4.54,4.54-2.03,4.54-4.54,4.54Zm79.22,0c-2.5,0-4.54-2.03-4.54-4.54s2.03-4.54,4.54-4.54,4.54,2.03,4.54,4.54-2.03,4.54-4.54,4.54Z"/>
        <path class="cls-8" d="M1075.93,1528.86l-51.04-9,6.59-37.39c.19-1.08-.53-2.11-1.61-2.3l-13.25-2.34v-63.22c0-1.1-.89-1.98-1.98-1.98h-15.83v14.17h.24c.91,0,1.76,.35,2.41,1,.64,.64,1,1.5,1,2.4v59.52l9.61,1.69c1.85,.33,3.08,2.09,2.76,3.94l-6.34,35.99,49.64,8.75c1.85,.33,3.08,2.09,2.76,3.94l-19.02,107.85c-.29,1.63-1.69,2.81-3.35,2.81-.2,0-.39-.02-.59-.05l-49.74-8.77-1.85,10.51c-.29,1.63-1.7,2.81-3.35,2.81-.19,0-.39-.02-.59-.05l-54.62-9.63c-1.85-.33-3.08-2.09-2.76-3.94l1.44-8.17-41.21-2.89h-43.78l14.17,14.17h29.11l25.02,1.75-1.42,8.03c-.19,1.08,.53,2.11,1.61,2.3l85.33,15.05c1.08,.19,2.11-.53,2.3-1.61l2.1-11.91,51.13,9.02c1.08,.19,2.11-.53,2.3-1.61l24.43-138.56c.19-1.08-.53-2.11-1.61-2.3v.02h-.01Zm-57.8,.23c-2.5,0-4.54-2.03-4.54-4.54s2.03-4.54,4.54-4.54,4.54,2.03,4.54,4.54-2.03,4.54-4.54,4.54Zm-99.79,128.72c-2.5,0-4.54-2.03-4.54-4.54s2.03-4.54,4.54-4.54,4.54,2.03,4.54,4.54-2.03,4.54-4.54,4.54Zm127.24,8.12c-2.5,0-4.54-2.03-4.54-4.54s2.03-4.54,4.54-4.54,4.54,2.03,4.54,4.54-2.03,4.54-4.54,4.54Z"/>
        <path class="cls-8" d="M835.77,1634.54v35.6c0,1.88-1.53,3.4-3.4,3.4h-27.81c-16.66,.06-34.56,2.52-51.75,7.13-16.03,4.29-32.71,11.31-48.24,20.28-12.04,6.95-24.44,16.24-35.86,26.85l-24.79,24.79c-.64,.64-1.5,1-2.41,1s-1.76-.35-2.4-1l-39.33-39.33c-.64-.64-1-1.5-1-2.41s.35-1.76,1-2.41l26.66-26.66v-27.08h0v-44.44h0v-142.74l-14.17,14.17v114h0v76.76h0v3.44l-33.53,33.53c-.77,.77-.77,2.03,0,2.81l61.38,61.38c.77,.77,2.03,.77,2.81,0l35.62-35.62c10.6-9.82,22.04-18.39,33.11-24.78,14.47-8.36,29.97-14.88,44.82-18.86,16.03-4.3,32.67-6.59,48.08-6.65h43.4c1.1,0,1.98-.89,1.98-1.98v-37.01l-14.17-14.17h0Zm-216.4-151.95c2.5,0,4.54,2.03,4.54,4.54s-2.03,4.54-4.54,4.54-4.54-2.03-4.54-4.54,2.03-4.54,4.54-4.54Zm0,103.29c2.5,0,4.54,2.03,4.54,4.54s-2.03,4.54-4.54,4.54-4.54-2.03-4.54-4.54,2.03-4.54,4.54-4.54Zm-29.5,129.55c-2.5,0-4.54-2.03-4.54-4.54s2.03-4.54,4.54-4.54,4.54,2.03,4.54,4.54-2.03,4.54-4.54,4.54Zm51.66,51.61c-2.5,0-4.54-2.03-4.54-4.54s2.03-4.54,4.54-4.54,4.54,2.03,4.54,4.54-2.03,4.54-4.54,4.54Zm199.59-83.66c-2.5,0-4.54-2.03-4.54-4.54s2.03-4.54,4.54-4.54,4.54,2.03,4.54,4.54-2.03,4.54-4.54,4.54Z"/>
      </g>
      <g>
        <path class="cls-8" d="M229.06,1412.54h-97.58v14.18h111.75v-7.8c0-1.87,1.52-3.4,3.4-3.4h55.62c1.87,0,3.4,1.52,3.4,3.4v7.79h189.09c1.87,0,3.4,1.52,3.4,3.4v20.48l14.17-14.17v-21.9c0-1.09-.88-1.98-1.98-1.98h-190.52v-9.21c0-1.09-.88-1.98-1.98-1.98h-86.81c-1.09,0-1.98,.88-1.98,1.98v9.21h.02Zm269.79,8.92c0-2.51,2.03-4.54,4.54-4.54s4.54,2.03,4.54,4.54-2.04,4.54-4.54,4.54-4.54-2.03-4.54-4.54Zm-189.29-3.1c0-2.51,2.03-4.54,4.54-4.54s4.54,2.03,4.54,4.54-2.04,4.54-4.54,4.54-4.54-2.03-4.54-4.54Zm-79.22,0c0-2.51,2.03-4.54,4.54-4.54s4.54,2.03,4.54,4.54-2.04,4.54-4.54,4.54-4.54-2.03-4.54-4.54Z"/>
        <path class="cls-8" d="M48.64,1528.73c-1.08,.19-1.8,1.22-1.61,2.3l24.43,138.56c.19,1.08,1.22,1.8,2.3,1.61l51.13-9.02,2.1,11.91c.19,1.08,1.22,1.8,2.3,1.61l85.33-15.05c1.08-.19,1.8-1.22,1.61-2.3l-1.42-8.03,25.02-1.75h29.11l14.17-14.17h-43.78l-41.21,2.89,1.44,8.17c.32,1.85-.91,3.61-2.76,3.94l-54.62,9.63c-.2,.03-.4,.05-.59,.05-1.65,0-3.06-1.18-3.35-2.81l-1.85-10.51-49.74,8.77c-.2,.03-.39,.05-.59,.05-1.66,0-3.06-1.18-3.35-2.81l-19.02-107.85c-.32-1.85,.91-3.61,2.76-3.94l49.64-8.75-6.34-35.99c-.32-1.85,.91-3.61,2.76-3.94l9.61-1.69v-59.52c0-.9,.36-1.76,1-2.4,.65-.65,1.5-1,2.41-1h.24v-14.17h-15.83c-1.09,0-1.98,.88-1.98,1.98v63.22l-13.25,2.34c-1.08,.19-1.8,1.22-1.61,2.3l6.59,37.39-51.04,9v-.02h0Zm53.25-4.29c0-2.51,2.03-4.54,4.54-4.54s4.54,2.03,4.54,4.54-2.04,4.54-4.54,4.54-4.54-2.03-4.54-4.54Zm99.79,128.72c0-2.51,2.03-4.54,4.54-4.54s4.54,2.03,4.54,4.54-2.04,4.54-4.54,4.54-4.54-2.03-4.54-4.54h0Zm-127.24,8.12c0-2.51,2.03-4.54,4.54-4.54s4.54,2.03,4.54,4.54-2.04,4.54-4.54,4.54-4.54-2.03-4.54-4.54Z"/>
        <path class="cls-8" d="M288.81,1634.43l-14.17,14.17v37.01c0,1.09,.88,1.98,1.98,1.98h43.4c15.41,.06,32.05,2.35,48.08,6.65,14.85,3.98,30.35,10.5,44.82,18.86,11.07,6.39,22.51,14.96,33.11,24.78l35.62,35.62c.78,.77,2.04,.77,2.81,0l61.38-61.38c.77-.78,.77-2.04,0-2.81l-33.53-33.53v-3.44h0v-76.76h0v-114l-14.17-14.17v142.74h0v44.44h0v27.08l26.66,26.66c.65,.65,1,1.5,1,2.41s-.36,1.77-1,2.41l-39.33,39.33c-.64,.65-1.49,1-2.4,1s-1.77-.36-2.41-1l-24.79-24.79c-11.42-10.61-23.82-19.9-35.86-26.85-15.53-8.97-32.21-15.99-48.24-20.28-17.19-4.61-35.09-7.07-51.75-7.13h-27.81c-1.87,0-3.4-1.52-3.4-3.4v-35.6h0Zm220.94-147.41c0,2.51-2.03,4.54-4.54,4.54s-4.54-2.03-4.54-4.54,2.04-4.54,4.54-4.54,4.54,2.03,4.54,4.54Zm0,103.29c0,2.51-2.03,4.54-4.54,4.54s-4.54-2.03-4.54-4.54,2.04-4.54,4.54-4.54,4.54,2.03,4.54,4.54Zm20.42,120.47c0-2.51,2.03-4.54,4.54-4.54s4.54,2.03,4.54,4.54-2.04,4.54-4.54,4.54-4.54-2.03-4.54-4.54Zm-51.66,51.61c0-2.51,2.03-4.54,4.54-4.54s4.54,2.03,4.54,4.54-2.04,4.54-4.54,4.54-4.54-2.03-4.54-4.54Zm-199.59-83.66c0-2.51,2.03-4.54,4.54-4.54s4.54,2.03,4.54,4.54-2.04,4.54-4.54,4.54-4.54-2.03-4.54-4.54Z"/>
      </g>
      <path class="cls-3" d="M1070.24,1982.14l-51.04-9,6.59-37.39c.19-1.08-.53-2.11-1.61-2.3l-13.25-2.34v-63.22c0-1.1-.89-1.98-1.98-1.98h-113.41v-9.21c0-1.1-.89-1.98-1.98-1.98h-86.81c-1.1,0-1.98,.89-1.98,1.98v9.21h-190.51c-1.1,0-1.98,.89-1.98,1.98v261.29l-33.53,33.53c-.77,.77-.77,2.03,0,2.81l61.38,61.38c.77,.77,2.03,.77,2.81,0l35.62-35.62c10.6-9.82,22.04-18.39,33.11-24.78,14.47-8.36,29.97-14.88,44.82-18.86,16.03-4.3,32.67-6.59,48.08-6.65h43.4c1.1,0,1.98-.89,1.98-1.98v-37.01h29.11l25.02,1.75-1.42,8.03c-.19,1.08,.53,2.11,1.61,2.3l85.33,15.05c1.08,.19,2.11-.53,2.3-1.61l2.1-11.91,51.13,9.02c1.08,.19,2.11-.53,2.3-1.61l24.43-138.56c.19-1.08-.53-2.11-1.61-2.3v-.03h0Zm-57.79-7.43c1.72,0,3.12,1.4,3.12,3.12s-1.4,3.12-3.12,3.12-3.12-1.4-3.12-3.12,1.4-3.12,3.12-3.12Zm-122.75-106.08c1.72,0,3.12,1.4,3.12,3.12s-1.4,3.12-3.12,3.12-3.12-1.4-3.12-3.12,1.4-3.12,3.12-3.12Zm-79.22,0c1.72,0,3.12,1.4,3.12,3.12s-1.4,3.12-3.12,3.12-3.12-1.4-3.12-3.12,1.4-3.12,3.12-3.12Zm-140.21,150.51c19.18,0,34.72,15.55,34.72,34.72s-15.55,34.72-34.72,34.72-34.72-15.55-34.72-34.72,15.55-34.72,34.72-34.72h0Zm-49.08-147.41c1.72,0,3.12,1.4,3.12,3.12s-1.4,3.12-3.12,3.12-3.12-1.4-3.12-3.12,1.4-3.12,3.12-3.12Zm-1.83,65.56c1.72,0,3.12,1.4,3.12,3.12s-1.4,3.12-3.12,3.12-3.12-1.4-3.12-3.12,1.4-3.12,3.12-3.12Zm0,103.29c1.72,0,3.12,1.4,3.12,3.12s-1.4,3.12-3.12,3.12-3.12-1.4-3.12-3.12,1.4-3.12,3.12-3.12Zm-29.5,126.72c-1.72,0-3.12-1.4-3.12-3.12s1.4-3.12,3.12-3.12,3.12,1.4,3.12,3.12-1.4,3.12-3.12,3.12Zm51.66,51.61c-1.72,0-3.12-1.4-3.12-3.12s1.4-3.12,3.12-3.12,3.12,1.4,3.12,3.12-1.4,3.12-3.12,3.12Zm199.58-83.66c-1.72,0-3.12-1.4-3.12-3.12s1.4-3.12,3.12-3.12,3.12,1.4,3.12,3.12-1.4,3.12-3.12,3.12Zm.6-81.74c.78,0,1.42,.63,1.42,1.42s-.63,1.42-1.42,1.42-1.42-.63-1.42-1.42,.63-1.42,1.42-1.42Zm-1.42-4.25c0-.78,.63-1.42,1.42-1.42s1.42,.63,1.42,1.42-.63,1.42-1.42,1.42-1.42-.63-1.42-1.42Zm1.42,9.92c.78,0,1.42,.63,1.42,1.42s-.63,1.42-1.42,1.42-1.42-.63-1.42-1.42,.63-1.42,1.42-1.42Zm0,5.67c.78,0,1.42,.63,1.42,1.42s-.63,1.42-1.42,1.42-1.42-.63-1.42-1.42,.63-1.42,1.42-1.42Zm0,5.67c.78,0,1.42,.63,1.42,1.42s-.63,1.42-1.42,1.42-1.42-.63-1.42-1.42,.63-1.42,1.42-1.42Zm5.67,2.83c-.78,0-1.42-.63-1.42-1.42s.63-1.42,1.42-1.42,1.42,.63,1.42,1.42-.63,1.42-1.42,1.42Zm0-5.67c-.78,0-1.42-.63-1.42-1.42s.63-1.42,1.42-1.42,1.42,.63,1.42,1.42-.63,1.42-1.42,1.42Zm0-5.67c-.78,0-1.42-.63-1.42-1.42s.63-1.42,1.42-1.42,1.42,.63,1.42,1.42-.63,1.42-1.42,1.42Zm0-5.67c-.78,0-1.42-.63-1.42-1.42s.63-1.42,1.42-1.42,1.42,.63,1.42,1.42-.63,1.42-1.42,1.42Zm0-5.67c-.78,0-1.42-.63-1.42-1.42s.63-1.42,1.42-1.42,1.42,.63,1.42,1.42-.63,1.42-1.42,1.42Zm5.67,22.68c-.78,0-1.42-.63-1.42-1.42s.63-1.42,1.42-1.42,1.42,.63,1.42,1.42-.63,1.42-1.42,1.42Zm0-5.67c-.78,0-1.42-.63-1.42-1.42s.63-1.42,1.42-1.42,1.42,.63,1.42,1.42-.63,1.42-1.42,1.42Zm0-5.67c-.78,0-1.42-.63-1.42-1.42s.63-1.42,1.42-1.42,1.42,.63,1.42,1.42-.63,1.42-1.42,1.42Zm0-5.67c-.78,0-1.42-.63-1.42-1.42s.63-1.42,1.42-1.42,1.42,.63,1.42,1.42-.63,1.42-1.42,1.42Zm0-5.67c-.78,0-1.42-.63-1.42-1.42s.63-1.42,1.42-1.42,1.42,.63,1.42,1.42-.63,1.42-1.42,1.42Zm5.67,22.68c-.78,0-1.42-.63-1.42-1.42s.63-1.42,1.42-1.42,1.42,.63,1.42,1.42-.63,1.42-1.42,1.42Zm0-5.67c-.78,0-1.42-.63-1.42-1.42s.63-1.42,1.42-1.42,1.42,.63,1.42,1.42-.63,1.42-1.42,1.42Zm0-5.67c-.78,0-1.42-.63-1.42-1.42s.63-1.42,1.42-1.42,1.42,.63,1.42,1.42-.63,1.42-1.42,1.42Zm0-5.67c-.78,0-1.42-.63-1.42-1.42s.63-1.42,1.42-1.42,1.42,.63,1.42,1.42-.63,1.42-1.42,1.42Zm0-5.67c-.78,0-1.42-.63-1.42-1.42s.63-1.42,1.42-1.42,1.42,.63,1.42,1.42-.63,1.42-1.42,1.42Zm5.67,22.68c-.78,0-1.42-.63-1.42-1.42s.63-1.42,1.42-1.42,1.42,.63,1.42,1.42-.63,1.42-1.42,1.42Zm0-5.67c-.78,0-1.42-.63-1.42-1.42s.63-1.42,1.42-1.42,1.42,.63,1.42,1.42-.63,1.42-1.42,1.42Zm0-5.67c-.78,0-1.42-.63-1.42-1.42s.63-1.42,1.42-1.42,1.42,.63,1.42,1.42-.63,1.42-1.42,1.42Zm0-5.67c-.78,0-1.42-.63-1.42-1.42s.63-1.42,1.42-1.42,1.42,.63,1.42,1.42-.63,1.42-1.42,1.42Zm0-5.67c-.78,0-1.42-.63-1.42-1.42s.63-1.42,1.42-1.42,1.42,.63,1.42,1.42-.63,1.42-1.42,1.42Zm48.27,59.01c-1.72,0-3.12-1.4-3.12-3.12s1.4-3.12,3.12-3.12,3.12,1.4,3.12,3.12-1.4,3.12-3.12,3.12Zm127.24,8.12c-1.72,0-3.12-1.4-3.12-3.12s1.4-3.12,3.12-3.12,3.12,1.4,3.12,3.12-1.4,3.12-3.12,3.12Zm14.27-120.75l-19.1,107.94c-.19,1.08-1.22,1.8-2.3,1.61l-51.22-9.03-2.11,11.98c-.19,1.08-1.22,1.8-2.3,1.61l-54.71-9.65c-1.08-.19-1.8-1.22-1.61-2.3l5.38-30.54-51.58-3.61c-1.09-.08-1.92-1.03-1.84-2.12l1.76-25.16h-48.63v28.2h6.37c1.1,0,1.99,.89,1.99,1.99v55.52c0,1.11-.9,2.01-2.01,2.01h-27.75c-16.67,0-34.71,2.47-52.18,7.15-16.02,4.29-32.79,11.35-48.49,20.42-14.51,8.38-28.9,19.53-41.62,32.24l-19.62,19.63c-.78,.78-2.06,.78-2.84,0l-39.25-39.25c-.78-.78-.78-2.06,0-2.84l19.62-19.63c16.34-16.34,35-30.76,53.95-41.7,12.4-7.16,25.41-13.36,38.47-18.39l.08-177.01c0-1.1,.89-1.98,1.99-1.98h51.86v-6.55c0-1.1,.89-1.99,1.99-1.99h51.93v-23.49c0-1.1,.89-1.99,1.99-1.99h55.56c1.1,0,1.99,.89,1.99,1.99v25.26l61.82,4.32c1.09,.08,1.92,1.02,1.84,2.12l-5.46,78.9c-.14,2.05,2.86,2.41,3.21,.39l7.91-45.09c.19-1.08,1.22-1.8,2.3-1.61l54.71,9.65c1.08,.19,1.8,1.22,1.61,2.3l-6.59,37.36,51.29,9.04c1.08,.19,1.8,1.22,1.61,2.3h-.02Z"/>
      <path class="cls-3" d="M54.34,1982.06c-1.08,.19-1.8,1.22-1.61,2.3l24.43,138.56c.19,1.08,1.22,1.8,2.3,1.61l51.13-9.02,2.1,11.91c.19,1.08,1.22,1.8,2.3,1.61l85.33-15.05c1.08-.19,1.8-1.22,1.61-2.3l-1.42-8.03,25.02-1.75h29.11v37.01c0,1.09,.88,1.98,1.98,1.98h43.4c15.41,.06,32.05,2.35,48.08,6.65,14.85,3.98,30.35,10.5,44.82,18.86,11.07,6.39,22.51,14.96,33.11,24.78l35.62,35.62c.78,.77,2.04,.77,2.81,0l61.38-61.38c.77-.78,.77-2.04,0-2.81l-33.53-33.53v-261.29c0-1.09-.88-1.98-1.98-1.98h-190.51v-9.21c0-1.09-.88-1.98-1.98-1.98h-86.81c-1.09,0-1.98,.88-1.98,1.98v9.21H115.63c-1.09,0-1.98,.88-1.98,1.98v63.22l-13.25,2.34c-1.08,.19-1.8,1.22-1.61,2.3l6.59,37.39-51.04,9v.03Zm60.91-4.34c0,1.72-1.4,3.12-3.12,3.12s-3.12-1.4-3.12-3.12,1.4-3.12,3.12-3.12,3.12,1.4,3.12,3.12Zm122.75-106.08c0,1.72-1.4,3.12-3.12,3.12s-3.12-1.4-3.12-3.12,1.4-3.12,3.12-3.12,3.12,1.4,3.12,3.12Zm79.22,0c0,1.72-1.4,3.12-3.12,3.12s-3.12-1.4-3.12-3.12,1.4-3.12,3.12-3.12,3.12,1.4,3.12,3.12Zm171.81,182.1c0,19.17-15.55,34.72-34.72,34.72s-34.72-15.55-34.72-34.72,15.54-34.72,34.72-34.72,34.72,15.55,34.72,34.72Zm17.48-179c0,1.72-1.4,3.12-3.12,3.12s-3.12-1.4-3.12-3.12,1.4-3.12,3.12-3.12,3.12,1.4,3.12,3.12Zm1.83,65.56c0,1.72-1.4,3.12-3.12,3.12s-3.12-1.4-3.12-3.12,1.4-3.12,3.12-3.12,3.12,1.4,3.12,3.12Zm0,103.29c0,1.72-1.4,3.12-3.12,3.12s-3.12-1.4-3.12-3.12,1.4-3.12,3.12-3.12,3.12,1.4,3.12,3.12Zm23.26,120.48c0-1.72,1.4-3.12,3.12-3.12s3.12,1.4,3.12,3.12-1.4,3.12-3.12,3.12-3.12-1.4-3.12-3.12Zm-51.66,51.61c0-1.72,1.4-3.12,3.12-3.12s3.12,1.4,3.12,3.12-1.4,3.12-3.12,3.12-3.12-1.4-3.12-3.12Zm-199.58-83.66c0-1.72,1.4-3.12,3.12-3.12s3.12,1.4,3.12,3.12-1.4,3.12-3.12,3.12-3.12-1.4-3.12-3.12Zm3.94-77.2c0,.79-.63,1.42-1.42,1.42s-1.42-.63-1.42-1.42,.64-1.42,1.42-1.42,1.42,.63,1.42,1.42Zm-1.42-4.25c-.79,0-1.42-.63-1.42-1.42s.63-1.42,1.42-1.42,1.42,.64,1.42,1.42-.63,1.42-1.42,1.42Zm1.42,9.92c0,.79-.63,1.42-1.42,1.42s-1.42-.63-1.42-1.42,.64-1.42,1.42-1.42,1.42,.63,1.42,1.42Zm0,5.67c0,.79-.63,1.42-1.42,1.42s-1.42-.63-1.42-1.42,.64-1.42,1.42-1.42,1.42,.63,1.42,1.42Zm0,5.67c0,.79-.63,1.42-1.42,1.42s-1.42-.63-1.42-1.42,.64-1.42,1.42-1.42,1.42,.63,1.42,1.42Zm-8.51,0c0-.79,.63-1.42,1.42-1.42s1.42,.63,1.42,1.42-.64,1.42-1.42,1.42-1.42-.63-1.42-1.42Zm0-5.67c0-.79,.63-1.42,1.42-1.42s1.42,.63,1.42,1.42-.64,1.42-1.42,1.42-1.42-.63-1.42-1.42Zm0-5.67c0-.79,.63-1.42,1.42-1.42s1.42,.63,1.42,1.42-.64,1.42-1.42,1.42-1.42-.63-1.42-1.42Zm0-5.67c0-.79,.63-1.42,1.42-1.42s1.42,.63,1.42,1.42-.64,1.42-1.42,1.42-1.42-.63-1.42-1.42Zm0-5.67c0-.79,.63-1.42,1.42-1.42s1.42,.63,1.42,1.42-.64,1.42-1.42,1.42-1.42-.63-1.42-1.42Zm-5.67,22.68c0-.79,.63-1.42,1.42-1.42s1.42,.63,1.42,1.42-.64,1.42-1.42,1.42-1.42-.63-1.42-1.42Zm0-5.67c0-.79,.63-1.42,1.42-1.42s1.42,.63,1.42,1.42-.64,1.42-1.42,1.42-1.42-.63-1.42-1.42Zm0-5.67c0-.79,.63-1.42,1.42-1.42s1.42,.63,1.42,1.42-.64,1.42-1.42,1.42-1.42-.63-1.42-1.42Zm0-5.67c0-.79,.63-1.42,1.42-1.42s1.42,.63,1.42,1.42-.64,1.42-1.42,1.42-1.42-.63-1.42-1.42Zm0-5.67c0-.79,.63-1.42,1.42-1.42s1.42,.63,1.42,1.42-.64,1.42-1.42,1.42-1.42-.63-1.42-1.42Zm-5.67,22.68c0-.79,.63-1.42,1.42-1.42s1.42,.63,1.42,1.42-.64,1.42-1.42,1.42-1.42-.63-1.42-1.42Zm0-5.67c0-.79,.63-1.42,1.42-1.42s1.42,.63,1.42,1.42-.64,1.42-1.42,1.42-1.42-.63-1.42-1.42Zm0-5.67c0-.79,.63-1.42,1.42-1.42s1.42,.63,1.42,1.42-.64,1.42-1.42,1.42-1.42-.63-1.42-1.42Zm0-5.67c0-.79,.63-1.42,1.42-1.42s1.42,.63,1.42,1.42-.64,1.42-1.42,1.42-1.42-.63-1.42-1.42Zm0-5.67c0-.79,.63-1.42,1.42-1.42s1.42,.63,1.42,1.42-.64,1.42-1.42,1.42-1.42-.63-1.42-1.42Zm-5.67,22.68c0-.79,.63-1.42,1.42-1.42s1.42,.63,1.42,1.42-.64,1.42-1.42,1.42-1.42-.63-1.42-1.42Zm0-5.67c0-.79,.63-1.42,1.42-1.42s1.42,.63,1.42,1.42-.64,1.42-1.42,1.42-1.42-.63-1.42-1.42Zm0-5.67c0-.79,.63-1.42,1.42-1.42s1.42,.63,1.42,1.42-.64,1.42-1.42,1.42-1.42-.63-1.42-1.42Zm0-5.67c0-.79,.63-1.42,1.42-1.42s1.42,.63,1.42,1.42-.64,1.42-1.42,1.42-1.42-.63-1.42-1.42Zm0-5.67c0-.79,.63-1.42,1.42-1.42s1.42,.63,1.42,1.42-.64,1.42-1.42,1.42-1.42-.63-1.42-1.42Zm-49.97,57.31c0-1.72,1.4-3.12,3.12-3.12s3.12,1.4,3.12,3.12-1.4,3.12-3.12,3.12-3.12-1.4-3.12-3.12Zm-127.24,8.12c0-1.72,1.4-3.12,3.12-3.12s3.12,1.4,3.12,3.12-1.4,3.12-3.12,3.12-3.12-1.4-3.12-3.12Zm-11.17-117.64c-.19-1.08,.53-2.11,1.61-2.3l51.29-9.04-6.59-37.36c-.19-1.08,.53-2.11,1.61-2.3l54.71-9.65c1.08-.19,2.11,.53,2.3,1.61l7.91,45.09c.35,2.02,3.35,1.66,3.21-.39l-5.46-78.9c-.08-1.1,.75-2.04,1.84-2.12l61.82-4.32v-25.26c0-1.1,.89-1.99,1.99-1.99h55.56c1.1,0,1.99,.89,1.99,1.99v23.49h51.93c1.1,0,1.99,.89,1.99,1.99v6.55h51.86c1.1,0,1.99,.88,1.99,1.98l.08,177.01c13.06,5.03,26.07,11.23,38.47,18.39,18.95,10.94,37.61,25.36,53.95,41.7l19.62,19.63c.78,.78,.78,2.06,0,2.84l-39.25,39.25c-.78,.78-2.06,.78-2.84,0l-19.62-19.63c-12.72-12.71-27.11-23.86-41.62-32.24-15.7-9.07-32.47-16.13-48.49-20.42-17.47-4.68-35.51-7.15-52.18-7.15h-27.75c-1.11,0-2.01-.9-2.01-2.01v-55.52c0-1.1,.89-1.99,1.99-1.99h6.37v-28.2h-48.63l1.76,25.16c.08,1.09-.75,2.04-1.84,2.12l-51.58,3.61,5.38,30.54c.19,1.08-.53,2.11-1.61,2.3l-54.71,9.65c-1.08,.19-2.11-.53-2.3-1.61l-2.11-11.98-51.22,9.03c-1.08,.19-2.11-.53-2.3-1.61l-19.1-107.94h-.02Z"/>
    </g>
    <g id="Text_Kopie_Kopie_Kopie_Kopie_Kopie_2" data-name="Text Kopie Kopie Kopie Kopie Kopie 2">
      <path class="cls-4" d="M1064.21,99.16h26.25v7.42h-34.52V52.09h8.27v47.07Z"/>
      <path class="cls-4" d="M1113.11,107.04c-2.14,0-4.17-.36-6.08-1.07-1.91-.71-3.59-1.75-5.01-3.1-1.43-1.35-2.55-2.98-3.37-4.9-.82-1.91-1.22-4.09-1.22-6.54v-24.19c0-2.45,.41-4.63,1.22-6.54,.82-1.91,1.94-3.55,3.37-4.9,1.43-1.35,3.1-2.38,5.01-3.1,1.91-.71,3.94-1.07,6.08-1.07s4.25,.36,6.16,1.07c1.91,.71,3.58,1.75,5.01,3.1,1.43,1.35,2.55,2.98,3.37,4.9,.82,1.91,1.22,4.09,1.22,6.54v24.19c0,2.45-.41,4.63-1.22,6.54-.82,1.91-1.94,3.55-3.37,4.9-1.43,1.35-3.1,2.39-5.01,3.1s-3.97,1.07-6.16,1.07Zm0-6.96c2.5,0,4.45-.83,5.85-2.49,1.4-1.66,2.1-3.79,2.1-6.39v-23.73c0-2.6-.7-4.73-2.1-6.39-1.4-1.66-3.36-2.49-5.85-2.49s-4.38,.83-5.78,2.49c-1.4,1.66-2.1,3.79-2.1,6.39v23.73c0,2.6,.7,4.73,2.1,6.39,1.4,1.66,3.33,2.49,5.78,2.49Z"/>
      <path class="cls-4" d="M1152.91,60.59l-10.64,9.34v-8.65l10.64-9.18h7.81v54.49h-7.81V60.59Z"/>
      <path class="cls-1" d="M1064.21,552.71h26.25v7.42h-34.52v-54.49h8.27v47.07Z"/>
      <path class="cls-1" d="M1113.11,560.59c-2.14,0-4.17-.36-6.08-1.07-1.91-.71-3.59-1.75-5.01-3.1-1.43-1.35-2.55-2.98-3.37-4.9-.82-1.91-1.22-4.09-1.22-6.54v-24.19c0-2.45,.41-4.63,1.22-6.54,.82-1.91,1.94-3.55,3.37-4.9,1.43-1.35,3.1-2.38,5.01-3.1,1.91-.71,3.94-1.07,6.08-1.07s4.25,.36,6.16,1.07c1.91,.71,3.58,1.75,5.01,3.1,1.43,1.35,2.55,2.98,3.37,4.9,.82,1.91,1.22,4.09,1.22,6.54v24.19c0,2.45-.41,4.63-1.22,6.54-.82,1.91-1.94,3.55-3.37,4.9-1.43,1.35-3.1,2.39-5.01,3.1s-3.97,1.07-6.16,1.07Zm0-6.96c2.5,0,4.45-.83,5.85-2.49,1.4-1.66,2.1-3.79,2.1-6.39v-23.73c0-2.6-.7-4.73-2.1-6.39-1.4-1.66-3.36-2.49-5.85-2.49s-4.38,.83-5.78,2.49c-1.4,1.66-2.1,3.79-2.1,6.39v23.73c0,2.6,.7,4.73,2.1,6.39,1.4,1.66,3.33,2.49,5.78,2.49Z"/>
      <path class="cls-1" d="M1138.37,553.16l20.97-25.49c1.02-1.27,1.76-2.46,2.22-3.56,.46-1.1,.69-2.33,.69-3.71,0-2.45-.69-4.44-2.07-5.97-1.38-1.53-3.34-2.3-5.89-2.3-1.02,0-2.02,.15-2.98,.46-.97,.31-1.83,.79-2.56,1.45-.74,.66-1.34,1.53-1.8,2.6-.46,1.07-.69,2.37-.69,3.9h-7.81c0-2.3,.39-4.4,1.19-6.31,.79-1.91,1.89-3.53,3.29-4.86,1.4-1.33,3.07-2.36,5.01-3.1,1.94-.74,4.06-1.11,6.35-1.11s4.49,.36,6.43,1.07c1.94,.71,3.6,1.74,4.98,3.06,1.38,1.33,2.45,2.93,3.21,4.82,.77,1.89,1.15,4.01,1.15,6.35s-.43,4.45-1.3,6.16c-.87,1.71-2.14,3.59-3.83,5.63l-17.07,20.89h22.2v6.96h-31.69v-6.96Z"/>
      <g>
        <path class="cls-5" d="M1064.21,1006.25h26.25v7.42h-34.52v-54.49h8.27v47.07Z"/>
        <path class="cls-5" d="M1113.11,1014.13c-2.14,0-4.17-.36-6.08-1.07-1.91-.71-3.59-1.75-5.01-3.1-1.43-1.35-2.55-2.99-3.37-4.9-.82-1.91-1.22-4.09-1.22-6.54v-24.18c0-2.45,.41-4.63,1.22-6.54,.82-1.91,1.94-3.55,3.37-4.9,1.43-1.35,3.1-2.38,5.01-3.1,1.91-.71,3.94-1.07,6.08-1.07s4.25,.36,6.16,1.07c1.91,.71,3.58,1.75,5.01,3.1,1.43,1.35,2.55,2.99,3.37,4.9,.82,1.91,1.22,4.09,1.22,6.54v24.18c0,2.45-.41,4.63-1.22,6.54-.82,1.91-1.94,3.55-3.37,4.9-1.43,1.35-3.1,2.39-5.01,3.1s-3.97,1.07-6.16,1.07Zm0-6.96c2.5,0,4.45-.83,5.85-2.49,1.4-1.66,2.1-3.79,2.1-6.39v-23.73c0-2.6-.7-4.73-2.1-6.39-1.4-1.66-3.36-2.49-5.85-2.49s-4.38,.83-5.78,2.49c-1.4,1.66-2.1,3.79-2.1,6.39v23.73c0,2.6,.7,4.73,2.1,6.39,1.4,1.66,3.33,2.49,5.78,2.49Z"/>
        <path class="cls-5" d="M1153.45,1014.21c-2.19,0-4.27-.29-6.24-.88-1.96-.59-3.71-1.5-5.24-2.75-1.53-1.25-2.77-2.84-3.71-4.78-.94-1.94-1.44-4.24-1.49-6.89h7.81c.05,1.48,.34,2.73,.88,3.75,.54,1.02,1.2,1.88,1.99,2.56,.79,.69,1.71,1.19,2.76,1.49,1.04,.31,2.13,.46,3.25,.46,2.55,0,4.67-.78,6.35-2.33,1.68-1.56,2.53-3.79,2.53-6.7,0-2.75-.75-4.94-2.26-6.54-1.51-1.61-3.79-2.41-6.85-2.41h-1.3v-6.81h1.3c2.86,0,4.95-.74,6.28-2.22,1.33-1.48,1.99-3.47,1.99-5.97,0-2.76-.78-4.85-2.33-6.28-1.56-1.43-3.46-2.14-5.7-2.14-2.4,0-4.31,.69-5.74,2.07-1.43,1.38-2.25,3.29-2.45,5.74h-7.81c.1-2.3,.59-4.36,1.45-6.2,.87-1.84,2.02-3.39,3.44-4.67,1.43-1.27,3.09-2.26,4.97-2.95,1.89-.69,3.93-1.03,6.12-1.03s4.41,.37,6.35,1.11c1.94,.74,3.61,1.79,5.01,3.14,1.4,1.35,2.5,2.96,3.29,4.82,.79,1.86,1.19,3.92,1.19,6.16,0,2.91-.6,5.31-1.8,7.19-1.2,1.89-2.87,3.34-5.01,4.36,2.35,1.02,4.21,2.58,5.59,4.67,1.38,2.09,2.07,4.82,2.07,8.19,0,2.6-.45,4.9-1.34,6.89-.89,1.99-2.09,3.65-3.6,4.97-1.51,1.33-3.27,2.32-5.28,2.99-2.02,.66-4.17,1-6.47,1Z"/>
      </g>
      <g>
        <path class="cls-8" d="M1064.21,1459.79h26.25v7.42h-34.52v-54.49h8.27v47.07Z"/>
        <path class="cls-8" d="M1113.11,1467.68c-2.14,0-4.17-.36-6.08-1.07-1.91-.71-3.59-1.75-5.01-3.1-1.43-1.35-2.55-2.99-3.37-4.9-.82-1.91-1.22-4.09-1.22-6.54v-24.18c0-2.45,.41-4.63,1.22-6.54,.82-1.91,1.94-3.55,3.37-4.9,1.43-1.35,3.1-2.38,5.01-3.1,1.91-.71,3.94-1.07,6.08-1.07s4.25,.36,6.16,1.07c1.91,.71,3.58,1.75,5.01,3.1,1.43,1.35,2.55,2.99,3.37,4.9,.82,1.91,1.22,4.09,1.22,6.54v24.18c0,2.45-.41,4.63-1.22,6.54-.82,1.91-1.94,3.55-3.37,4.9-1.43,1.35-3.1,2.39-5.01,3.1s-3.97,1.07-6.16,1.07Zm0-6.96c2.5,0,4.45-.83,5.85-2.49,1.4-1.66,2.1-3.79,2.1-6.39v-23.73c0-2.6-.7-4.73-2.1-6.39-1.4-1.66-3.36-2.49-5.85-2.49s-4.38,.83-5.78,2.49c-1.4,1.66-2.1,3.79-2.1,6.39v23.73c0,2.6,.7,4.73,2.1,6.39,1.4,1.66,3.33,2.49,5.78,2.49Z"/>
        <path class="cls-8" d="M1158.27,1459.03h-22.04v-7.27l19.21-39.03h8.42l-19.13,39.03h13.55v-12.71h7.58v12.71h5.82v7.27h-5.82v8.19h-7.58v-8.19Z"/>
      </g>
      <g>
        <path class="cls-3" d="M1064.21,1913.34h26.25v7.42h-34.52v-54.49h8.27v47.07Z"/>
        <path class="cls-3" d="M1113.11,1921.22c-2.14,0-4.17-.36-6.08-1.07-1.91-.71-3.59-1.75-5.01-3.1-1.43-1.35-2.55-2.99-3.37-4.9-.82-1.91-1.22-4.09-1.22-6.54v-24.18c0-2.45,.41-4.63,1.22-6.54,.82-1.91,1.94-3.55,3.37-4.9,1.43-1.35,3.1-2.38,5.01-3.1,1.91-.71,3.94-1.07,6.08-1.07s4.25,.36,6.16,1.07c1.91,.71,3.58,1.75,5.01,3.1,1.43,1.35,2.55,2.99,3.37,4.9,.82,1.91,1.22,4.09,1.22,6.54v24.18c0,2.45-.41,4.63-1.22,6.54-.82,1.91-1.94,3.55-3.37,4.9-1.43,1.35-3.1,2.39-5.01,3.1s-3.97,1.07-6.16,1.07Zm0-6.96c2.5,0,4.45-.83,5.85-2.49,1.4-1.66,2.1-3.79,2.1-6.39v-23.73c0-2.6-.7-4.73-2.1-6.39-1.4-1.66-3.36-2.49-5.85-2.49s-4.38,.83-5.78,2.49c-1.4,1.66-2.1,3.79-2.1,6.39v23.73c0,2.6,.7,4.73,2.1,6.39,1.4,1.66,3.33,2.49,5.78,2.49Z"/>
        <path class="cls-3" d="M1154.14,1921.22c-2.6,0-4.9-.41-6.89-1.22-1.99-.82-3.57-1.81-4.75-2.98-1.48-1.48-2.5-3.1-3.06-4.86-.56-1.76-.92-3.61-1.07-5.55h7.81c.31,2.45,1.1,4.32,2.37,5.62,1.27,1.3,3.14,1.95,5.59,1.95s4.23-.71,5.66-2.14c1.17-1.17,1.9-2.6,2.18-4.29,.28-1.68,.42-3.44,.42-5.28,0-1.63-.11-3.14-.34-4.52-.23-1.38-.65-2.58-1.26-3.6s-1.43-1.81-2.45-2.37c-1.02-.56-2.32-.84-3.9-.84-2.25,0-3.99,.49-5.24,1.45-1.25,.97-2.08,2.12-2.49,3.44h-7.12v-29.77h29.39v6.96h-22.35v14.39c.92-.97,2.16-1.73,3.71-2.3,1.56-.56,3.33-.84,5.32-.84,2.14,0,4.03,.31,5.66,.92,1.63,.61,3.01,1.48,4.13,2.6,1.02,1.02,1.85,2.12,2.49,3.29,.64,1.17,1.12,2.37,1.45,3.6,.33,1.22,.55,2.48,.65,3.75,.1,1.28,.15,2.55,.15,3.83,0,2.91-.27,5.55-.8,7.92-.54,2.37-1.8,4.55-3.79,6.54-1.22,1.22-2.78,2.25-4.67,3.06-1.89,.82-4.16,1.22-6.81,1.22Z"/>
      </g>
      <g>
        <path class="cls-10" d="M1181.71,66.03c-.3,.17-.64,.3-1.02,.37-.38,.08-.75,.11-1.12,.11-.82,0-1.6-.16-2.34-.47-.74-.31-1.38-.76-1.93-1.35s-.98-1.29-1.3-2.11c-.31-.82-.47-1.74-.47-2.76s.17-2.02,.5-2.89,.8-1.61,1.4-2.22c.59-.62,1.31-1.09,2.14-1.43s1.76-.5,2.78-.5,1.91,.16,2.74,.47c.83,.31,1.55,.77,2.16,1.38,.61,.61,1.08,1.34,1.41,2.19,.34,.85,.5,1.81,.5,2.87,0,.8-.11,1.61-.34,2.43-.23,.82-.64,1.85-1.25,3.08l-5.36,10.87h-3.57l5.06-10.06Zm-1.36-2.27c1.06,0,1.91-.36,2.55-1.07,.64-.71,.96-1.69,.96-2.92s-.32-2.24-.96-2.95c-.64-.71-1.49-1.07-2.55-1.07s-1.88,.36-2.53,1.07c-.65,.71-.97,1.7-.97,2.95,0,1.15,.31,2.1,.92,2.86,.62,.76,1.48,1.14,2.58,1.14Z"/>
        <path class="cls-10" d="M1212.35,76.09h-3.51v-15.45l-5.32,11.26h-2.6l-5.45-11.26v15.45h-3.51v-23.11h3.51l6.75,14.38,6.62-14.38h3.51v23.11Z"/>
        <path class="cls-10" d="M1238.78,76.09h-3.51v-15.45l-5.32,11.26h-2.6l-5.45-11.26v15.45h-3.51v-23.11h3.51l6.75,14.38,6.62-14.38h3.51v23.11Z"/>
      </g>
      <g>
        <path class="cls-3" d="M1183.92,87.16h-7.04v3.64h-3.18v-6.59h13.76v2.95l-7.73,20.16h-3.57l7.76-20.16Z"/>
        <path class="cls-3" d="M1212.35,107.32h-3.51v-15.45l-5.32,11.26h-2.6l-5.45-11.26v15.45h-3.51v-23.11h3.51l6.75,14.38,6.62-14.38h3.51v23.11Z"/>
        <path class="cls-3" d="M1238.78,107.32h-3.51v-15.45l-5.32,11.26h-2.6l-5.45-11.26v15.45h-3.51v-23.11h3.51l6.75,14.38,6.62-14.38h3.51v23.11Z"/>
      </g>
    </g>
  </g>
</svg>