  0
SECTION
  2
HEADER
  9
$ACADVER
  1
AC1014
  9
$HANDSEED
  5
FFFF
  9
$MEASUREMENT
 70
     1
  0
ENDSEC
  0
SECTION
  2
TABLES
  0
TABLE
  2
VPORT
  5
8
330
0
100
AcDbSymbolTable
 70
     4
  0
VPORT
  5
2E
330
8
100
AcDbSymbolTableRecord
100
AcDbViewportTableRecord
  2
*ACTIVE
 70
     0
 10
0.0
 20
0.0
 11
1.0
 21
1.0
 12
210.0
 22
148.5
 13
0.0
 23
0.0
 14
10.0
 24
10.0
 15
10.0
 25
10.0
 16
0.0
 26
0.0
 36
1.0
 17
0.0
 27
0.0
 37
0.0
 40
341.0
 41
1.24
 42
50.0
 43
0.0
 44
0.0
 50
0.0
 51
0.0
 71
     0
 72
   100
 73
     1
 74
     3
 75
     0
 76
     0
 77
     0
 78
     0
  0
ENDTAB
  0
TABLE
  2
LTYPE
  5
5
330
0
100
AcDbSymbolTable
 70
     1
  0
LTYPE
  5
14
330
5
100
AcDbSymbolTableRecord
100
AcDbLinetypeTableRecord
  2
BYBLOCK
 70
     0
  3

 72
    65
 73
     0
 40
0.0
  0
LTYPE
  5
15
330
5
100
AcDbSymbolTableRecord
100
AcDbLinetypeTableRecord
  2
BYLAYER
 70
     0
  3

 72
    65
 73
     0
 40
0.0
  0
LTYPE
  5
16
330
5
100
AcDbSymbolTableRecord
100
AcDbLinetypeTableRecord
  2
CONTINUOUS
 70
     0
  3
Solid line
 72
    65
 73
     0
 40
0.0
  0
ENDTAB
  0
TABLE
  2
LAYER
  5
2
100
AcDbSymbolTable
 70
1
  0
LAYER
  5
50
100
AcDbSymbolTableRecord
100
AcDbLayerTableRecord
  2
0
 70
0
  6
CONTINUOUS
  0
ENDTAB
  0
TABLE
  2
STYLE
  5
3
330
0
100
AcDbSymbolTable
 70
     1
  0
STYLE
  5
11
330
3
100
AcDbSymbolTableRecord
100
AcDbTextStyleTableRecord
  2
STANDARD
 70
     0
 40
0.0
 41
1.0
 50
0.0
 71
     0
 42
2.5
  3
txt
  4

  0
ENDTAB
  0
TABLE
  2
VIEW
  5
6
330
0
100
AcDbSymbolTable
 70
     0
  0
ENDTAB
  0
TABLE
  2
UCS
  5
7
330
0
100
AcDbSymbolTable
 70
     0
  0
ENDTAB
  0
TABLE
  2
APPID
  5
9
330
0
100
AcDbSymbolTable
 70
     2
  0
APPID
  5
12
330
9
100
AcDbSymbolTableRecord
100
AcDbRegAppTableRecord
  2
ACAD
 70
     0
  0
ENDTAB
  0
TABLE
  2
DIMSTYLE
  5
A
330
0
100
AcDbSymbolTable
 70
     1
  0
DIMSTYLE
105
27
330
A
100
AcDbSymbolTableRecord
100
AcDbDimStyleTableRecord
  2
ISO-25
 70
     0
  3

  4

  5

  6

  7

 40
1.0
 41
2.5
 42
0.625
 43
3.75
 44
1.25
 45
0.0
 46
0.0
 47
0.0
 48
0.0
140
2.5
141
2.5
142
0.0
143
0.03937007874016
144
1.0
145
0.0
146
1.0
147
0.625
 71
     0
 72
     0
 73
     0
 74
     0
 75
     0
 76
     0
 77
     1
 78
     8
170
     0
171
     3
172
     1
173
     0
174
     0
175
     0
176
     0
177
     0
178
     0
270
     2
271
     2
272
     2
273
     2
274
     3
340
11
275
     0
280
     0
281
     0
282
     0
283
     0
284
     8
285
     0
286
     0
287
     3
288
     0
  0
ENDTAB
  0
TABLE
  2
BLOCK_RECORD
  5
1
330
0
100
AcDbSymbolTable
 70
     1
  0
BLOCK_RECORD
  5
1F
330
1
100
AcDbSymbolTableRecord
100
AcDbBlockTableRecord
  2
*MODEL_SPACE
  0
BLOCK_RECORD
  5
1B
330
1
100
AcDbSymbolTableRecord
100
AcDbBlockTableRecord
  2
*PAPER_SPACE
  0
ENDTAB
  0
ENDSEC
  0
SECTION
  2
BLOCKS
  0
BLOCK
  5
20
330
1F
100
AcDbEntity
  8
0
100
AcDbBlockBegin
  2
*MODEL_SPACE
 70
     0
 10
0.0
 20
0.0
 30
0.0
  3
*MODEL_SPACE
  1

  0
ENDBLK
  5
21
330
1F
100
AcDbEntity
  8
0
100
AcDbBlockEnd
  0
BLOCK
  5
1C
330
1B
100
AcDbEntity
 67
     1
  8
0
100
AcDbBlockBegin
  2
*PAPER_SPACE
  1

  0
ENDBLK
  5
1D
330
1B
100
AcDbEntity
 67
     1
  8
0
100
AcDbBlockEnd
  0
ENDSEC
  0
SECTION
  2
ENTITIES
  0
SPLINE
  5
100
100
AcDbEntity
  8
0
 62
7
100
AcDbSpline
 70
8
 71
3
 72
8
 73
4
 74
0
 40
0
 40
0
 40
0
 40
0
 40
1
 40
1
 40
1
 40
1
 10
39.595231
 20
81.549234
 30
0.0
 10
31.449704
 20
81.549234
 30
0.0
 10
24.845796
 20
74.945326
 30
0.0
 10
24.845796
 20
66.799799
 30
0.0
  0
SPLINE
  5
101
100
AcDbEntity
  8
0
 62
7
100
AcDbSpline
 70
8
 71
3
 72
8
 73
4
 74
0
 40
0
 40
0
 40
0
 40
0
 40
1
 40
1
 40
1
 40
1
 10
24.845796
 20
66.799799
 30
0.0
 10
24.845796
 20
58.654273
 30
0.0
 10
31.449704
 20
52.050364
 30
0.0
 10
39.595231
 20
52.050364
 30
0.0
  0
SPLINE
  5
102
100
AcDbEntity
  8
0
 62
7
100
AcDbSpline
 70
8
 71
3
 72
8
 73
4
 74
0
 40
0
 40
0
 40
0
 40
0
 40
1
 40
1
 40
1
 40
1
 10
39.595231
 20
52.050364
 30
0.0
 10
47.740757
 20
52.050364
 30
0.0
 10
54.344666
 20
58.654273
 30
0.0
 10
54.344666
 20
66.799799
 30
0.0
  0
SPLINE
  5
103
100
AcDbEntity
  8
0
 62
7
100
AcDbSpline
 70
8
 71
3
 72
8
 73
4
 74
0
 40
0
 40
0
 40
0
 40
0
 40
1
 40
1
 40
1
 40
1
 10
54.344666
 20
66.799799
 30
0.0
 10
54.344666
 20
74.945326
 30
0.0
 10
47.740757
 20
81.549234
 30
0.0
 10
39.595231
 20
81.549234
 30
0.0
  0
SPLINE
  5
104
100
AcDbEntity
  8
0
 62
7
100
AcDbSpline
 70
8
 71
3
 72
8
 73
4
 74
0
 40
0
 40
0
 40
0
 40
0
 40
1
 40
1
 40
1
 40
1
 10
39.595231
 20
54.547996
 30
0.0
 10
32.829046
 20
54.547996
 30
0.0
 10
27.346956
 20
60.033615
 30
0.0
 10
27.346956
 20
66.796272
 30
0.0
  0
SPLINE
  5
105
100
AcDbEntity
  8
0
 62
7
100
AcDbSpline
 70
8
 71
3
 72
8
 73
4
 74
0
 40
0
 40
0
 40
0
 40
0
 40
1
 40
1
 40
1
 40
1
 10
27.346956
 20
66.796272
 30
0.0
 10
27.346956
 20
73.558928
 30
0.0
 10
32.832574
 20
79.044547
 30
0.0
 10
39.595231
 20
79.044547
 30
0.0
  0
SPLINE
  5
106
100
AcDbEntity
  8
0
 62
7
100
AcDbSpline
 70
8
 71
3
 72
8
 73
4
 74
0
 40
0
 40
0
 40
0
 40
0
 40
1
 40
1
 40
1
 40
1
 10
39.595231
 20
79.044547
 30
0.0
 10
46.357887
 20
79.044547
 30
0.0
 10
51.843506
 20
73.558928
 30
0.0
 10
51.843506
 20
66.796272
 30
0.0
  0
SPLINE
  5
107
100
AcDbEntity
  8
0
 62
7
100
AcDbSpline
 70
8
 71
3
 72
8
 73
4
 74
0
 40
0
 40
0
 40
0
 40
0
 40
1
 40
1
 40
1
 40
1
 10
51.843506
 20
66.796272
 30
0.0
 10
51.843506
 20
60.033615
 30
0.0
 10
46.357887
 20
54.547996
 30
0.0
 10
39.595231
 20
54.547996
 30
0.0
  0
LWPOLYLINE
  5
108
100
AcDbEntity
  8
0
 62
7
100
AcDbPolyline
 90
1
 70
1
 10
39.595231
 20
81.549234
 30
0.0
  0
LWPOLYLINE
  5
109
100
AcDbEntity
  8
0
 62
7
100
AcDbPolyline
 90
2
 70
1
 10
39.595231
 20
54.547996
 30
0.0
 10
39.595231
 20
54.547996
 30
0.0
  0
SPLINE
  5
10a
100
AcDbEntity
  8
0
 62
7
100
AcDbSpline
 70
8
 71
3
 72
8
 73
4
 74
0
 40
0
 40
0
 40
0
 40
0
 40
1
 40
1
 40
1
 40
1
 10
4.998792
 20
45.400595
 30
0.0
 10
5.386842
 20
45.400595
 30
0.0
 10
5.700810
 20
45.086627
 30
0.0
 10
5.700810
 20
44.698577
 30
0.0
  0
LWPOLYLINE
  5
10b
100
AcDbEntity
  8
0
 62
7
100
AcDbPolyline
 90
5
 70
0
 10
19.286095
 20
46.473025
 30
0.0
 10
19.906975
 20
55.348791
 30
0.0
 10
2.751629
 20
55.348791
 30
0.0
 10
2.751629
 20
45.400595
 30
0.0
 10
4.998792
 20
45.400595
 30
0.0
  0
SPLINE
  5
10c
100
AcDbEntity
  8
0
 62
7
100
AcDbSpline
 70
8
 71
3
 72
8
 73
4
 74
0
 40
0
 40
0
 40
0
 40
0
 40
1
 40
1
 40
1
 40
1
 10
19.935197
 20
45.728674
 30
0.0
 10
19.550674
 20
45.756896
 30
0.0
 10
19.257873
 20
46.088502
 30
0.0
 10
19.286095
 20
46.476552
 30
0.0
  0
LWPOLYLINE
  5
10d
100
AcDbEntity
  8
0
 62
7
100
AcDbPolyline
 90
6
 70
0
 10
5.700810
 20
44.698577
 30
0.0
 10
5.725504
 20
38.200500
 30
0.0
 10
21.706117
 20
38.200500
 30
0.0
 10
36.797742
 20
37.142181
 30
0.0
 10
38.131223
 20
44.455164
 30
0.0
 10
19.935197
 20
45.728674
 30
0.0
  0
SPLINE
  5
10e
100
AcDbEntity
  8
0
 62
7
100
AcDbSpline
 70
8
 71
3
 72
8
 73
4
 74
0
 40
0
 40
0
 40
0
 40
0
 40
1
 40
1
 40
1
 40
1
 10
8.321913
 20
42.790076
 30
0.0
 10
8.046750
 20
42.790076
 30
0.0
 10
7.820975
 20
43.012322
 30
0.0
 10
7.820975
 20
43.291013
 30
0.0
  0
SPLINE
  5
10f
100
AcDbEntity
  8
0
 62
7
100
AcDbSpline
 70
8
 71
3
 72
8
 73
4
 74
0
 40
0
 40
0
 40
0
 40
0
 40
1
 40
1
 40
1
 40
1
 10
7.820975
 20
43.291013
 30
0.0
 10
7.820975
 20
43.569704
 30
0.0
 10
8.043222
 20
43.791951
 30
0.0
 10
8.321913
 20
43.791951
 30
0.0
  0
SPLINE
  5
110
100
AcDbEntity
  8
0
 62
7
100
AcDbSpline
 70
8
 71
3
 72
8
 73
4
 74
0
 40
0
 40
0
 40
0
 40
0
 40
1
 40
1
 40
1
 40
1
 10
8.321913
 20
43.791951
 30
0.0
 10
8.600603
 20
43.791951
 30
0.0
 10
8.822850
 20
43.569704
 30
0.0
 10
8.822850
 20
43.291013
 30
0.0
  0
SPLINE
  5
111
100
AcDbEntity
  8
0
 62
7
100
AcDbSpline
 70
8
 71
3
 72
8
 73
4
 74
0
 40
0
 40
0
 40
0
 40
0
 40
1
 40
1
 40
1
 40
1
 10
8.822850
 20
43.291013
 30
0.0
 10
8.822850
 20
43.012322
 30
0.0
 10
8.600603
 20
42.790076
 30
0.0
 10
8.321913
 20
42.790076
 30
0.0
  0
LWPOLYLINE
  5
112
100
AcDbEntity
  8
0
 62
7
100
AcDbPolyline
 90
3
 70
0
 10
19.286095
 20
46.476552
 30
0.0
 10
19.286095
 20
46.476552
 30
0.0
 10
19.286095
 20
46.473025
 30
0.0
  0
SPLINE
  5
113
100
AcDbEntity
  8
0
 62
7
100
AcDbSpline
 70
8
 71
3
 72
8
 73
4
 74
0
 40
0
 40
0
 40
0
 40
0
 40
1
 40
1
 40
1
 40
1
 10
8.321913
 20
44.790298
 30
0.0
 10
8.046750
 20
44.790298
 30
0.0
 10
7.820975
 20
45.012545
 30
0.0
 10
7.820975
 20
45.291235
 30
0.0
  0
SPLINE
  5
114
100
AcDbEntity
  8
0
 62
7
100
AcDbSpline
 70
8
 71
3
 72
8
 73
4
 74
0
 40
0
 40
0
 40
0
 40
0
 40
1
 40
1
 40
1
 40
1
 10
7.820975
 20
45.291235
 30
0.0
 10
7.820975
 20
45.569926
 30
0.0
 10
8.043222
 20
45.792173
 30
0.0
 10
8.321913
 20
45.792173
 30
0.0
  0
SPLINE
  5
115
100
AcDbEntity
  8
0
 62
7
100
AcDbSpline
 70
8
 71
3
 72
8
 73
4
 74
0
 40
0
 40
0
 40
0
 40
0
 40
1
 40
1
 40
1
 40
1
 10
8.321913
 20
45.792173
 30
0.0
 10
8.600603
 20
45.792173
 30
0.0
 10
8.822850
 20
45.569926
 30
0.0
 10
8.822850
 20
45.291235
 30
0.0
  0
SPLINE
  5
116
100
AcDbEntity
  8
0
 62
7
100
AcDbSpline
 70
8
 71
3
 72
8
 73
4
 74
0
 40
0
 40
0
 40
0
 40
0
 40
1
 40
1
 40
1
 40
1
 10
8.822850
 20
45.291235
 30
0.0
 10
8.822850
 20
45.012545
 30
0.0
 10
8.600603
 20
44.790298
 30
0.0
 10
8.321913
 20
44.790298
 30
0.0
  0
LWPOLYLINE
  5
117
100
AcDbEntity
  8
0
 62
7
100
AcDbPolyline
 90
1
 70
1
 10
8.321913
 20
42.790076
 30
0.0
  0
SPLINE
  5
118
100
AcDbEntity
  8
0
 62
7
100
AcDbSpline
 70
8
 71
3
 72
8
 73
4
 74
0
 40
0
 40
0
 40
0
 40
0
 40
1
 40
1
 40
1
 40
1
 10
8.321913
 20
46.790520
 30
0.0
 10
8.046750
 20
46.790520
 30
0.0
 10
7.820975
 20
47.012767
 30
0.0
 10
7.820975
 20
47.291458
 30
0.0
  0
SPLINE
  5
119
100
AcDbEntity
  8
0
 62
7
100
AcDbSpline
 70
8
 71
3
 72
8
 73
4
 74
0
 40
0
 40
0
 40
0
 40
0
 40
1
 40
1
 40
1
 40
1
 10
7.820975
 20
47.291458
 30
0.0
 10
7.820975
 20
47.570148
 30
0.0
 10
8.043222
 20
47.792395
 30
0.0
 10
8.321913
 20
47.792395
 30
0.0
  0
SPLINE
  5
11a
100
AcDbEntity
  8
0
 62
7
100
AcDbSpline
 70
8
 71
3
 72
8
 73
4
 74
0
 40
0
 40
0
 40
0
 40
0
 40
1
 40
1
 40
1
 40
1
 10
8.321913
 20
47.792395
 30
0.0
 10
8.600603
 20
47.792395
 30
0.0
 10
8.822850
 20
47.570148
 30
0.0
 10
8.822850
 20
47.291458
 30
0.0
  0
SPLINE
  5
11b
100
AcDbEntity
  8
0
 62
7
100
AcDbSpline
 70
8
 71
3
 72
8
 73
4
 74
0
 40
0
 40
0
 40
0
 40
0
 40
1
 40
1
 40
1
 40
1
 10
8.822850
 20
47.291458
 30
0.0
 10
8.822850
 20
47.012767
 30
0.0
 10
8.600603
 20
46.790520
 30
0.0
 10
8.321913
 20
46.790520
 30
0.0
  0
LWPOLYLINE
  5
11c
100
AcDbEntity
  8
0
 62
7
100
AcDbPolyline
 90
1
 70
1
 10
8.321913
 20
44.790298
 30
0.0
  0
SPLINE
  5
11d
100
AcDbEntity
  8
0
 62
7
100
AcDbSpline
 70
8
 71
3
 72
8
 73
4
 74
0
 40
0
 40
0
 40
0
 40
0
 40
1
 40
1
 40
1
 40
1
 10
8.321913
 20
48.790743
 30
0.0
 10
8.046750
 20
48.790743
 30
0.0
 10
7.820975
 20
49.012990
 30
0.0
 10
7.820975
 20
49.291680
 30
0.0
  0
SPLINE
  5
11e
100
AcDbEntity
  8
0
 62
7
100
AcDbSpline
 70
8
 71
3
 72
8
 73
4
 74
0
 40
0
 40
0
 40
0
 40
0
 40
1
 40
1
 40
1
 40
1
 10
7.820975
 20
49.291680
 30
0.0
 10
7.820975
 20
49.570371
 30
0.0
 10
8.043222
 20
49.792618
 30
0.0
 10
8.321913
 20
49.792618
 30
0.0
  0
SPLINE
  5
11f
100
AcDbEntity
  8
0
 62
7
100
AcDbSpline
 70
8
 71
3
 72
8
 73
4
 74
0
 40
0
 40
0
 40
0
 40
0
 40
1
 40
1
 40
1
 40
1
 10
8.321913
 20
49.792618
 30
0.0
 10
8.600603
 20
49.792618
 30
0.0
 10
8.822850
 20
49.570371
 30
0.0
 10
8.822850
 20
49.291680
 30
0.0
  0
SPLINE
  5
120
100
AcDbEntity
  8
0
 62
7
100
AcDbSpline
 70
8
 71
3
 72
8
 73
4
 74
0
 40
0
 40
0
 40
0
 40
0
 40
1
 40
1
 40
1
 40
1
 10
8.822850
 20
49.291680
 30
0.0
 10
8.822850
 20
49.012990
 30
0.0
 10
8.600603
 20
48.790743
 30
0.0
 10
8.321913
 20
48.790743
 30
0.0
  0
LWPOLYLINE
  5
121
100
AcDbEntity
  8
0
 62
7
100
AcDbPolyline
 90
1
 70
1
 10
8.321913
 20
46.790520
 30
0.0
  0
SPLINE
  5
122
100
AcDbEntity
  8
0
 62
7
100
AcDbSpline
 70
8
 71
3
 72
8
 73
4
 74
0
 40
0
 40
0
 40
0
 40
0
 40
1
 40
1
 40
1
 40
1
 10
8.321913
 20
50.790965
 30
0.0
 10
8.046750
 20
50.790965
 30
0.0
 10
7.820975
 20
51.013212
 30
0.0
 10
7.820975
 20
51.291902
 30
0.0
  0
SPLINE
  5
123
100
AcDbEntity
  8
0
 62
7
100
AcDbSpline
 70
8
 71
3
 72
8
 73
4
 74
0
 40
0
 40
0
 40
0
 40
0
 40
1
 40
1
 40
1
 40
1
 10
7.820975
 20
51.291902
 30
0.0
 10
7.820975
 20
51.570593
 30
0.0
 10
8.043222
 20
51.792840
 30
0.0
 10
8.321913
 20
51.792840
 30
0.0
  0
SPLINE
  5
124
100
AcDbEntity
  8
0
 62
7
100
AcDbSpline
 70
8
 71
3
 72
8
 73
4
 74
0
 40
0
 40
0
 40
0
 40
0
 40
1
 40
1
 40
1
 40
1
 10
8.321913
 20
51.792840
 30
0.0
 10
8.600603
 20
51.792840
 30
0.0
 10
8.822850
 20
51.570593
 30
0.0
 10
8.822850
 20
51.291902
 30
0.0
  0
SPLINE
  5
125
100
AcDbEntity
  8
0
 62
7
100
AcDbSpline
 70
8
 71
3
 72
8
 73
4
 74
0
 40
0
 40
0
 40
0
 40
0
 40
1
 40
1
 40
1
 40
1
 10
8.822850
 20
51.291902
 30
0.0
 10
8.822850
 20
51.013212
 30
0.0
 10
8.600603
 20
50.790965
 30
0.0
 10
8.321913
 20
50.790965
 30
0.0
  0
LWPOLYLINE
  5
126
100
AcDbEntity
  8
0
 62
7
100
AcDbPolyline
 90
1
 70
1
 10
8.321913
 20
48.790743
 30
0.0
  0
SPLINE
  5
127
100
AcDbEntity
  8
0
 62
7
100
AcDbSpline
 70
8
 71
3
 72
8
 73
4
 74
0
 40
0
 40
0
 40
0
 40
0
 40
1
 40
1
 40
1
 40
1
 10
10.322135
 20
42.790076
 30
0.0
 10
10.046972
 20
42.790076
 30
0.0
 10
9.821198
 20
43.012322
 30
0.0
 10
9.821198
 20
43.291013
 30
0.0
  0
SPLINE
  5
128
100
AcDbEntity
  8
0
 62
7
100
AcDbSpline
 70
8
 71
3
 72
8
 73
4
 74
0
 40
0
 40
0
 40
0
 40
0
 40
1
 40
1
 40
1
 40
1
 10
9.821198
 20
43.291013
 30
0.0
 10
9.821198
 20
43.569704
 30
0.0
 10
10.043445
 20
43.791951
 30
0.0
 10
10.322135
 20
43.791951
 30
0.0
  0
SPLINE
  5
129
100
AcDbEntity
  8
0
 62
7
100
AcDbSpline
 70
8
 71
3
 72
8
 73
4
 74
0
 40
0
 40
0
 40
0
 40
0
 40
1
 40
1
 40
1
 40
1
 10
10.322135
 20
43.791951
 30
0.0
 10
10.600826
 20
43.791951
 30
0.0
 10
10.823073
 20
43.569704
 30
0.0
 10
10.823073
 20
43.291013
 30
0.0
  0
SPLINE
  5
12a
100
AcDbEntity
  8
0
 62
7
100
AcDbSpline
 70
8
 71
3
 72
8
 73
4
 74
0
 40
0
 40
0
 40
0
 40
0
 40
1
 40
1
 40
1
 40
1
 10
10.823073
 20
43.291013
 30
0.0
 10
10.823073
 20
43.012322
 30
0.0
 10
10.600826
 20
42.790076
 30
0.0
 10
10.322135
 20
42.790076
 30
0.0
  0
LWPOLYLINE
  5
12b
100
AcDbEntity
  8
0
 62
7
100
AcDbPolyline
 90
1
 70
1
 10
8.321913
 20
50.790965
 30
0.0
  0
SPLINE
  5
12c
100
AcDbEntity
  8
0
 62
7
100
AcDbSpline
 70
8
 71
3
 72
8
 73
4
 74
0
 40
0
 40
0
 40
0
 40
0
 40
1
 40
1
 40
1
 40
1
 10
10.322135
 20
44.790298
 30
0.0
 10
10.046972
 20
44.790298
 30
0.0
 10
9.821198
 20
45.012545
 30
0.0
 10
9.821198
 20
45.291235
 30
0.0
  0
SPLINE
  5
12d
100
AcDbEntity
  8
0
 62
7
100
AcDbSpline
 70
8
 71
3
 72
8
 73
4
 74
0
 40
0
 40
0
 40
0
 40
0
 40
1
 40
1
 40
1
 40
1
 10
9.821198
 20
45.291235
 30
0.0
 10
9.821198
 20
45.569926
 30
0.0
 10
10.043445
 20
45.792173
 30
0.0
 10
10.322135
 20
45.792173
 30
0.0
  0
SPLINE
  5
12e
100
AcDbEntity
  8
0
 62
7
100
AcDbSpline
 70
8
 71
3
 72
8
 73
4
 74
0
 40
0
 40
0
 40
0
 40
0
 40
1
 40
1
 40
1
 40
1
 10
10.322135
 20
45.792173
 30
0.0
 10
10.600826
 20
45.792173
 30
0.0
 10
10.823073
 20
45.569926
 30
0.0
 10
10.823073
 20
45.291235
 30
0.0
  0
SPLINE
  5
12f
100
AcDbEntity
  8
0
 62
7
100
AcDbSpline
 70
8
 71
3
 72
8
 73
4
 74
0
 40
0
 40
0
 40
0
 40
0
 40
1
 40
1
 40
1
 40
1
 10
10.823073
 20
45.291235
 30
0.0
 10
10.823073
 20
45.012545
 30
0.0
 10
10.600826
 20
44.790298
 30
0.0
 10
10.322135
 20
44.790298
 30
0.0
  0
LWPOLYLINE
  5
130
100
AcDbEntity
  8
0
 62
7
100
AcDbPolyline
 90
1
 70
1
 10
10.322135
 20
42.790076
 30
0.0
  0
SPLINE
  5
131
100
AcDbEntity
  8
0
 62
7
100
AcDbSpline
 70
8
 71
3
 72
8
 73
4
 74
0
 40
0
 40
0
 40
0
 40
0
 40
1
 40
1
 40
1
 40
1
 10
10.322135
 20
46.790520
 30
0.0
 10
10.046972
 20
46.790520
 30
0.0
 10
9.821198
 20
47.012767
 30
0.0
 10
9.821198
 20
47.291458
 30
0.0
  0
SPLINE
  5
132
100
AcDbEntity
  8
0
 62
7
100
AcDbSpline
 70
8
 71
3
 72
8
 73
4
 74
0
 40
0
 40
0
 40
0
 40
0
 40
1
 40
1
 40
1
 40
1
 10
9.821198
 20
47.291458
 30
0.0
 10
9.821198
 20
47.570148
 30
0.0
 10
10.043445
 20
47.792395
 30
0.0
 10
10.322135
 20
47.792395
 30
0.0
  0
SPLINE
  5
133
100
AcDbEntity
  8
0
 62
7
100
AcDbSpline
 70
8
 71
3
 72
8
 73
4
 74
0
 40
0
 40
0
 40
0
 40
0
 40
1
 40
1
 40
1
 40
1
 10
10.322135
 20
47.792395
 30
0.0
 10
10.600826
 20
47.792395
 30
0.0
 10
10.823073
 20
47.570148
 30
0.0
 10
10.823073
 20
47.291458
 30
0.0
  0
SPLINE
  5
134
100
AcDbEntity
  8
0
 62
7
100
AcDbSpline
 70
8
 71
3
 72
8
 73
4
 74
0
 40
0
 40
0
 40
0
 40
0
 40
1
 40
1
 40
1
 40
1
 10
10.823073
 20
47.291458
 30
0.0
 10
10.823073
 20
47.012767
 30
0.0
 10
10.600826
 20
46.790520
 30
0.0
 10
10.322135
 20
46.790520
 30
0.0
  0
LWPOLYLINE
  5
135
100
AcDbEntity
  8
0
 62
7
100
AcDbPolyline
 90
1
 70
1
 10
10.322135
 20
44.790298
 30
0.0
  0
SPLINE
  5
136
100
AcDbEntity
  8
0
 62
7
100
AcDbSpline
 70
8
 71
3
 72
8
 73
4
 74
0
 40
0
 40
0
 40
0
 40
0
 40
1
 40
1
 40
1
 40
1
 10
10.322135
 20
48.790743
 30
0.0
 10
10.046972
 20
48.790743
 30
0.0
 10
9.821198
 20
49.012990
 30
0.0
 10
9.821198
 20
49.291680
 30
0.0
  0
SPLINE
  5
137
100
AcDbEntity
  8
0
 62
7
100
AcDbSpline
 70
8
 71
3
 72
8
 73
4
 74
0
 40
0
 40
0
 40
0
 40
0
 40
1
 40
1
 40
1
 40
1
 10
9.821198
 20
49.291680
 30
0.0
 10
9.821198
 20
49.570371
 30
0.0
 10
10.043445
 20
49.792618
 30
0.0
 10
10.322135
 20
49.792618
 30
0.0
  0
SPLINE
  5
138
100
AcDbEntity
  8
0
 62
7
100
AcDbSpline
 70
8
 71
3
 72
8
 73
4
 74
0
 40
0
 40
0
 40
0
 40
0
 40
1
 40
1
 40
1
 40
1
 10
10.322135
 20
49.792618
 30
0.0
 10
10.600826
 20
49.792618
 30
0.0
 10
10.823073
 20
49.570371
 30
0.0
 10
10.823073
 20
49.291680
 30
0.0
  0
SPLINE
  5
139
100
AcDbEntity
  8
0
 62
7
100
AcDbSpline
 70
8
 71
3
 72
8
 73
4
 74
0
 40
0
 40
0
 40
0
 40
0
 40
1
 40
1
 40
1
 40
1
 10
10.823073
 20
49.291680
 30
0.0
 10
10.823073
 20
49.012990
 30
0.0
 10
10.600826
 20
48.790743
 30
0.0
 10
10.322135
 20
48.790743
 30
0.0
  0
LWPOLYLINE
  5
13a
100
AcDbEntity
  8
0
 62
7
100
AcDbPolyline
 90
1
 70
1
 10
10.322135
 20
46.790520
 30
0.0
  0
SPLINE
  5
13b
100
AcDbEntity
  8
0
 62
7
100
AcDbSpline
 70
8
 71
3
 72
8
 73
4
 74
0
 40
0
 40
0
 40
0
 40
0
 40
1
 40
1
 40
1
 40
1
 10
10.322135
 20
50.790965
 30
0.0
 10
10.046972
 20
50.790965
 30
0.0
 10
9.821198
 20
51.013212
 30
0.0
 10
9.821198
 20
51.291902
 30
0.0
  0
SPLINE
  5
13c
100
AcDbEntity
  8
0
 62
7
100
AcDbSpline
 70
8
 71
3
 72
8
 73
4
 74
0
 40
0
 40
0
 40
0
 40
0
 40
1
 40
1
 40
1
 40
1
 10
9.821198
 20
51.291902
 30
0.0
 10
9.821198
 20
51.570593
 30
0.0
 10
10.043445
 20
51.792840
 30
0.0
 10
10.322135
 20
51.792840
 30
0.0
  0
SPLINE
  5
13d
100
AcDbEntity
  8
0
 62
7
100
AcDbSpline
 70
8
 71
3
 72
8
 73
4
 74
0
 40
0
 40
0
 40
0
 40
0
 40
1
 40
1
 40
1
 40
1
 10
10.322135
 20
51.792840
 30
0.0
 10
10.600826
 20
51.792840
 30
0.0
 10
10.823073
 20
51.570593
 30
0.0
 10
10.823073
 20
51.291902
 30
0.0
  0
SPLINE
  5
13e
100
AcDbEntity
  8
0
 62
7
100
AcDbSpline
 70
8
 71
3
 72
8
 73
4
 74
0
 40
0
 40
0
 40
0
 40
0
 40
1
 40
1
 40
1
 40
1
 10
10.823073
 20
51.291902
 30
0.0
 10
10.823073
 20
51.013212
 30
0.0
 10
10.600826
 20
50.790965
 30
0.0
 10
10.322135
 20
50.790965
 30
0.0
  0
LWPOLYLINE
  5
13f
100
AcDbEntity
  8
0
 62
7
100
AcDbPolyline
 90
1
 70
1
 10
10.322135
 20
48.790743
 30
0.0
  0
SPLINE
  5
140
100
AcDbEntity
  8
0
 62
7
100
AcDbSpline
 70
8
 71
3
 72
8
 73
4
 74
0
 40
0
 40
0
 40
0
 40
0
 40
1
 40
1
 40
1
 40
1
 10
12.322358
 20
42.790076
 30
0.0
 10
12.047195
 20
42.790076
 30
0.0
 10
11.821420
 20
43.012322
 30
0.0
 10
11.821420
 20
43.291013
 30
0.0
  0
SPLINE
  5
141
100
AcDbEntity
  8
0
 62
7
100
AcDbSpline
 70
8
 71
3
 72
8
 73
4
 74
0
 40
0
 40
0
 40
0
 40
0
 40
1
 40
1
 40
1
 40
1
 10
11.821420
 20
43.291013
 30
0.0
 10
11.821420
 20
43.569704
 30
0.0
 10
12.043667
 20
43.791951
 30
0.0
 10
12.322358
 20
43.791951
 30
0.0
  0
SPLINE
  5
142
100
AcDbEntity
  8
0
 62
7
100
AcDbSpline
 70
8
 71
3
 72
8
 73
4
 74
0
 40
0
 40
0
 40
0
 40
0
 40
1
 40
1
 40
1
 40
1
 10
12.322358
 20
43.791951
 30
0.0
 10
12.601048
 20
43.791951
 30
0.0
 10
12.823295
 20
43.569704
 30
0.0
 10
12.823295
 20
43.291013
 30
0.0
  0
SPLINE
  5
143
100
AcDbEntity
  8
0
 62
7
100
AcDbSpline
 70
8
 71
3
 72
8
 73
4
 74
0
 40
0
 40
0
 40
0
 40
0
 40
1
 40
1
 40
1
 40
1
 10
12.823295
 20
43.291013
 30
0.0
 10
12.823295
 20
43.012322
 30
0.0
 10
12.601048
 20
42.790076
 30
0.0
 10
12.322358
 20
42.790076
 30
0.0
  0
LWPOLYLINE
  5
144
100
AcDbEntity
  8
0
 62
7
100
AcDbPolyline
 90
1
 70
1
 10
10.322135
 20
50.790965
 30
0.0
  0
SPLINE
  5
145
100
AcDbEntity
  8
0
 62
7
100
AcDbSpline
 70
8
 71
3
 72
8
 73
4
 74
0
 40
0
 40
0
 40
0
 40
0
 40
1
 40
1
 40
1
 40
1
 10
12.322358
 20
44.790298
 30
0.0
 10
12.047195
 20
44.790298
 30
0.0
 10
11.821420
 20
45.012545
 30
0.0
 10
11.821420
 20
45.291235
 30
0.0
  0
SPLINE
  5
146
100
AcDbEntity
  8
0
 62
7
100
AcDbSpline
 70
8
 71
3
 72
8
 73
4
 74
0
 40
0
 40
0
 40
0
 40
0
 40
1
 40
1
 40
1
 40
1
 10
11.821420
 20
45.291235
 30
0.0
 10
11.821420
 20
45.569926
 30
0.0
 10
12.043667
 20
45.792173
 30
0.0
 10
12.322358
 20
45.792173
 30
0.0
  0
SPLINE
  5
147
100
AcDbEntity
  8
0
 62
7
100
AcDbSpline
 70
8
 71
3
 72
8
 73
4
 74
0
 40
0
 40
0
 40
0
 40
0
 40
1
 40
1
 40
1
 40
1
 10
12.322358
 20
45.792173
 30
0.0
 10
12.601048
 20
45.792173
 30
0.0
 10
12.823295
 20
45.569926
 30
0.0
 10
12.823295
 20
45.291235
 30
0.0
  0
SPLINE
  5
148
100
AcDbEntity
  8
0
 62
7
100
AcDbSpline
 70
8
 71
3
 72
8
 73
4
 74
0
 40
0
 40
0
 40
0
 40
0
 40
1
 40
1
 40
1
 40
1
 10
12.823295
 20
45.291235
 30
0.0
 10
12.823295
 20
45.012545
 30
0.0
 10
12.601048
 20
44.790298
 30
0.0
 10
12.322358
 20
44.790298
 30
0.0
  0
LWPOLYLINE
  5
149
100
AcDbEntity
  8
0
 62
7
100
AcDbPolyline
 90
1
 70
1
 10
12.322358
 20
42.790076
 30
0.0
  0
SPLINE
  5
14a
100
AcDbEntity
  8
0
 62
7
100
AcDbSpline
 70
8
 71
3
 72
8
 73
4
 74
0
 40
0
 40
0
 40
0
 40
0
 40
1
 40
1
 40
1
 40
1
 10
12.322358
 20
46.790520
 30
0.0
 10
12.047195
 20
46.790520
 30
0.0
 10
11.821420
 20
47.012767
 30
0.0
 10
11.821420
 20
47.291458
 30
0.0
  0
SPLINE
  5
14b
100
AcDbEntity
  8
0
 62
7
100
AcDbSpline
 70
8
 71
3
 72
8
 73
4
 74
0
 40
0
 40
0
 40
0
 40
0
 40
1
 40
1
 40
1
 40
1
 10
11.821420
 20
47.291458
 30
0.0
 10
11.821420
 20
47.570148
 30
0.0
 10
12.043667
 20
47.792395
 30
0.0
 10
12.322358
 20
47.792395
 30
0.0
  0
SPLINE
  5
14c
100
AcDbEntity
  8
0
 62
7
100
AcDbSpline
 70
8
 71
3
 72
8
 73
4
 74
0
 40
0
 40
0
 40
0
 40
0
 40
1
 40
1
 40
1
 40
1
 10
12.322358
 20
47.792395
 30
0.0
 10
12.601048
 20
47.792395
 30
0.0
 10
12.823295
 20
47.570148
 30
0.0
 10
12.823295
 20
47.291458
 30
0.0
  0
SPLINE
  5
14d
100
AcDbEntity
  8
0
 62
7
100
AcDbSpline
 70
8
 71
3
 72
8
 73
4
 74
0
 40
0
 40
0
 40
0
 40
0
 40
1
 40
1
 40
1
 40
1
 10
12.823295
 20
47.291458
 30
0.0
 10
12.823295
 20
47.012767
 30
0.0
 10
12.601048
 20
46.790520
 30
0.0
 10
12.322358
 20
46.790520
 30
0.0
  0
LWPOLYLINE
  5
14e
100
AcDbEntity
  8
0
 62
7
100
AcDbPolyline
 90
1
 70
1
 10
12.322358
 20
44.790298
 30
0.0
  0
SPLINE
  5
14f
100
AcDbEntity
  8
0
 62
7
100
AcDbSpline
 70
8
 71
3
 72
8
 73
4
 74
0
 40
0
 40
0
 40
0
 40
0
 40
1
 40
1
 40
1
 40
1
 10
12.322358
 20
48.790743
 30
0.0
 10
12.047195
 20
48.790743
 30
0.0
 10
11.821420
 20
49.012990
 30
0.0
 10
11.821420
 20
49.291680
 30
0.0
  0
SPLINE
  5
150
100
AcDbEntity
  8
0
 62
7
100
AcDbSpline
 70
8
 71
3
 72
8
 73
4
 74
0
 40
0
 40
0
 40
0
 40
0
 40
1
 40
1
 40
1
 40
1
 10
11.821420
 20
49.291680
 30
0.0
 10
11.821420
 20
49.570371
 30
0.0
 10
12.043667
 20
49.792618
 30
0.0
 10
12.322358
 20
49.792618
 30
0.0
  0
SPLINE
  5
151
100
AcDbEntity
  8
0
 62
7
100
AcDbSpline
 70
8
 71
3
 72
8
 73
4
 74
0
 40
0
 40
0
 40
0
 40
0
 40
1
 40
1
 40
1
 40
1
 10
12.322358
 20
49.792618
 30
0.0
 10
12.601048
 20
49.792618
 30
0.0
 10
12.823295
 20
49.570371
 30
0.0
 10
12.823295
 20
49.291680
 30
0.0
  0
SPLINE
  5
152
100
AcDbEntity
  8
0
 62
7
100
AcDbSpline
 70
8
 71
3
 72
8
 73
4
 74
0
 40
0
 40
0
 40
0
 40
0
 40
1
 40
1
 40
1
 40
1
 10
12.823295
 20
49.291680
 30
0.0
 10
12.823295
 20
49.012990
 30
0.0
 10
12.601048
 20
48.790743
 30
0.0
 10
12.322358
 20
48.790743
 30
0.0
  0
LWPOLYLINE
  5
153
100
AcDbEntity
  8
0
 62
7
100
AcDbPolyline
 90
1
 70
1
 10
12.322358
 20
46.790520
 30
0.0
  0
SPLINE
  5
154
100
AcDbEntity
  8
0
 62
7
100
AcDbSpline
 70
8
 71
3
 72
8
 73
4
 74
0
 40
0
 40
0
 40
0
 40
0
 40
1
 40
1
 40
1
 40
1
 10
12.322358
 20
50.790965
 30
0.0
 10
12.047195
 20
50.790965
 30
0.0
 10
11.821420
 20
51.013212
 30
0.0
 10
11.821420
 20
51.291902
 30
0.0
  0
SPLINE
  5
155
100
AcDbEntity
  8
0
 62
7
100
AcDbSpline
 70
8
 71
3
 72
8
 73
4
 74
0
 40
0
 40
0
 40
0
 40
0
 40
1
 40
1
 40
1
 40
1
 10
11.821420
 20
51.291902
 30
0.0
 10
11.821420
 20
51.570593
 30
0.0
 10
12.043667
 20
51.792840
 30
0.0
 10
12.322358
 20
51.792840
 30
0.0
  0
SPLINE
  5
156
100
AcDbEntity
  8
0
 62
7
100
AcDbSpline
 70
8
 71
3
 72
8
 73
4
 74
0
 40
0
 40
0
 40
0
 40
0
 40
1
 40
1
 40
1
 40
1
 10
12.322358
 20
51.792840
 30
0.0
 10
12.601048
 20
51.792840
 30
0.0
 10
12.823295
 20
51.570593
 30
0.0
 10
12.823295
 20
51.291902
 30
0.0
  0
SPLINE
  5
157
100
AcDbEntity
  8
0
 62
7
100
AcDbSpline
 70
8
 71
3
 72
8
 73
4
 74
0
 40
0
 40
0
 40
0
 40
0
 40
1
 40
1
 40
1
 40
1
 10
12.823295
 20
51.291902
 30
0.0
 10
12.823295
 20
51.013212
 30
0.0
 10
12.601048
 20
50.790965
 30
0.0
 10
12.322358
 20
50.790965
 30
0.0
  0
LWPOLYLINE
  5
158
100
AcDbEntity
  8
0
 62
7
100
AcDbPolyline
 90
1
 70
1
 10
12.322358
 20
48.790743
 30
0.0
  0
SPLINE
  5
159
100
AcDbEntity
  8
0
 62
7
100
AcDbSpline
 70
8
 71
3
 72
8
 73
4
 74
0
 40
0
 40
0
 40
0
 40
0
 40
1
 40
1
 40
1
 40
1
 10
14.322580
 20
42.790076
 30
0.0
 10
14.047417
 20
42.790076
 30
0.0
 10
13.821642
 20
43.012322
 30
0.0
 10
13.821642
 20
43.291013
 30
0.0
  0
SPLINE
  5
15a
100
AcDbEntity
  8
0
 62
7
100
AcDbSpline
 70
8
 71
3
 72
8
 73
4
 74
0
 40
0
 40
0
 40
0
 40
0
 40
1
 40
1
 40
1
 40
1
 10
13.821642
 20
43.291013
 30
0.0
 10
13.821642
 20
43.569704
 30
0.0
 10
14.043889
 20
43.791951
 30
0.0
 10
14.322580
 20
43.791951
 30
0.0
  0
SPLINE
  5
15b
100
AcDbEntity
  8
0
 62
7
100
AcDbSpline
 70
8
 71
3
 72
8
 73
4
 74
0
 40
0
 40
0
 40
0
 40
0
 40
1
 40
1
 40
1
 40
1
 10
14.322580
 20
43.791951
 30
0.0
 10
14.601271
 20
43.791951
 30
0.0
 10
14.823517
 20
43.569704
 30
0.0
 10
14.823517
 20
43.291013
 30
0.0
  0
SPLINE
  5
15c
100
AcDbEntity
  8
0
 62
7
100
AcDbSpline
 70
8
 71
3
 72
8
 73
4
 74
0
 40
0
 40
0
 40
0
 40
0
 40
1
 40
1
 40
1
 40
1
 10
14.823517
 20
43.291013
 30
0.0
 10
14.823517
 20
43.012322
 30
0.0
 10
14.601271
 20
42.790076
 30
0.0
 10
14.322580
 20
42.790076
 30
0.0
  0
LWPOLYLINE
  5
15d
100
AcDbEntity
  8
0
 62
7
100
AcDbPolyline
 90
1
 70
1
 10
12.322358
 20
50.790965
 30
0.0
  0
SPLINE
  5
15e
100
AcDbEntity
  8
0
 62
7
100
AcDbSpline
 70
8
 71
3
 72
8
 73
4
 74
0
 40
0
 40
0
 40
0
 40
0
 40
1
 40
1
 40
1
 40
1
 10
14.322580
 20
44.790298
 30
0.0
 10
14.047417
 20
44.790298
 30
0.0
 10
13.821642
 20
45.012545
 30
0.0
 10
13.821642
 20
45.291235
 30
0.0
  0
SPLINE
  5
15f
100
AcDbEntity
  8
0
 62
7
100
AcDbSpline
 70
8
 71
3
 72
8
 73
4
 74
0
 40
0
 40
0
 40
0
 40
0
 40
1
 40
1
 40
1
 40
1
 10
13.821642
 20
45.291235
 30
0.0
 10
13.821642
 20
45.569926
 30
0.0
 10
14.043889
 20
45.792173
 30
0.0
 10
14.322580
 20
45.792173
 30
0.0
  0
SPLINE
  5
160
100
AcDbEntity
  8
0
 62
7
100
AcDbSpline
 70
8
 71
3
 72
8
 73
4
 74
0
 40
0
 40
0
 40
0
 40
0
 40
1
 40
1
 40
1
 40
1
 10
14.322580
 20
45.792173
 30
0.0
 10
14.601271
 20
45.792173
 30
0.0
 10
14.823517
 20
45.569926
 30
0.0
 10
14.823517
 20
45.291235
 30
0.0
  0
SPLINE
  5
161
100
AcDbEntity
  8
0
 62
7
100
AcDbSpline
 70
8
 71
3
 72
8
 73
4
 74
0
 40
0
 40
0
 40
0
 40
0
 40
1
 40
1
 40
1
 40
1
 10
14.823517
 20
45.291235
 30
0.0
 10
14.823517
 20
45.012545
 30
0.0
 10
14.601271
 20
44.790298
 30
0.0
 10
14.322580
 20
44.790298
 30
0.0
  0
LWPOLYLINE
  5
162
100
AcDbEntity
  8
0
 62
7
100
AcDbPolyline
 90
1
 70
1
 10
14.322580
 20
42.790076
 30
0.0
  0
SPLINE
  5
163
100
AcDbEntity
  8
0
 62
7
100
AcDbSpline
 70
8
 71
3
 72
8
 73
4
 74
0
 40
0
 40
0
 40
0
 40
0
 40
1
 40
1
 40
1
 40
1
 10
14.322580
 20
46.790520
 30
0.0
 10
14.047417
 20
46.790520
 30
0.0
 10
13.821642
 20
47.012767
 30
0.0
 10
13.821642
 20
47.291458
 30
0.0
  0
SPLINE
  5
164
100
AcDbEntity
  8
0
 62
7
100
AcDbSpline
 70
8
 71
3
 72
8
 73
4
 74
0
 40
0
 40
0
 40
0
 40
0
 40
1
 40
1
 40
1
 40
1
 10
13.821642
 20
47.291458
 30
0.0
 10
13.821642
 20
47.570148
 30
0.0
 10
14.043889
 20
47.792395
 30
0.0
 10
14.322580
 20
47.792395
 30
0.0
  0
SPLINE
  5
165
100
AcDbEntity
  8
0
 62
7
100
AcDbSpline
 70
8
 71
3
 72
8
 73
4
 74
0
 40
0
 40
0
 40
0
 40
0
 40
1
 40
1
 40
1
 40
1
 10
14.322580
 20
47.792395
 30
0.0
 10
14.601271
 20
47.792395
 30
0.0
 10
14.823517
 20
47.570148
 30
0.0
 10
14.823517
 20
47.291458
 30
0.0
  0
SPLINE
  5
166
100
AcDbEntity
  8
0
 62
7
100
AcDbSpline
 70
8
 71
3
 72
8
 73
4
 74
0
 40
0
 40
0
 40
0
 40
0
 40
1
 40
1
 40
1
 40
1
 10
14.823517
 20
47.291458
 30
0.0
 10
14.823517
 20
47.012767
 30
0.0
 10
14.601271
 20
46.790520
 30
0.0
 10
14.322580
 20
46.790520
 30
0.0
  0
LWPOLYLINE
  5
167
100
AcDbEntity
  8
0
 62
7
100
AcDbPolyline
 90
1
 70
1
 10
14.322580
 20
44.790298
 30
0.0
  0
SPLINE
  5
168
100
AcDbEntity
  8
0
 62
7
100
AcDbSpline
 70
8
 71
3
 72
8
 73
4
 74
0
 40
0
 40
0
 40
0
 40
0
 40
1
 40
1
 40
1
 40
1
 10
14.322580
 20
48.790743
 30
0.0
 10
14.047417
 20
48.790743
 30
0.0
 10
13.821642
 20
49.012990
 30
0.0
 10
13.821642
 20
49.291680
 30
0.0
  0
SPLINE
  5
169
100
AcDbEntity
  8
0
 62
7
100
AcDbSpline
 70
8
 71
3
 72
8
 73
4
 74
0
 40
0
 40
0
 40
0
 40
0
 40
1
 40
1
 40
1
 40
1
 10
13.821642
 20
49.291680
 30
0.0
 10
13.821642
 20
49.570371
 30
0.0
 10
14.043889
 20
49.792618
 30
0.0
 10
14.322580
 20
49.792618
 30
0.0
  0
SPLINE
  5
16a
100
AcDbEntity
  8
0
 62
7
100
AcDbSpline
 70
8
 71
3
 72
8
 73
4
 74
0
 40
0
 40
0
 40
0
 40
0
 40
1
 40
1
 40
1
 40
1
 10
14.322580
 20
49.792618
 30
0.0
 10
14.601271
 20
49.792618
 30
0.0
 10
14.823517
 20
49.570371
 30
0.0
 10
14.823517
 20
49.291680
 30
0.0
  0
SPLINE
  5
16b
100
AcDbEntity
  8
0
 62
7
100
AcDbSpline
 70
8
 71
3
 72
8
 73
4
 74
0
 40
0
 40
0
 40
0
 40
0
 40
1
 40
1
 40
1
 40
1
 10
14.823517
 20
49.291680
 30
0.0
 10
14.823517
 20
49.012990
 30
0.0
 10
14.601271
 20
48.790743
 30
0.0
 10
14.322580
 20
48.790743
 30
0.0
  0
LWPOLYLINE
  5
16c
100
AcDbEntity
  8
0
 62
7
100
AcDbPolyline
 90
1
 70
1
 10
14.322580
 20
46.790520
 30
0.0
  0
SPLINE
  5
16d
100
AcDbEntity
  8
0
 62
7
100
AcDbSpline
 70
8
 71
3
 72
8
 73
4
 74
0
 40
0
 40
0
 40
0
 40
0
 40
1
 40
1
 40
1
 40
1
 10
14.322580
 20
50.790965
 30
0.0
 10
14.047417
 20
50.790965
 30
0.0
 10
13.821642
 20
51.013212
 30
0.0
 10
13.821642
 20
51.291902
 30
0.0
  0
SPLINE
  5
16e
100
AcDbEntity
  8
0
 62
7
100
AcDbSpline
 70
8
 71
3
 72
8
 73
4
 74
0
 40
0
 40
0
 40
0
 40
0
 40
1
 40
1
 40
1
 40
1
 10
13.821642
 20
51.291902
 30
0.0
 10
13.821642
 20
51.570593
 30
0.0
 10
14.043889
 20
51.792840
 30
0.0
 10
14.322580
 20
51.792840
 30
0.0
  0
SPLINE
  5
16f
100
AcDbEntity
  8
0
 62
7
100
AcDbSpline
 70
8
 71
3
 72
8
 73
4
 74
0
 40
0
 40
0
 40
0
 40
0
 40
1
 40
1
 40
1
 40
1
 10
14.322580
 20
51.792840
 30
0.0
 10
14.601271
 20
51.792840
 30
0.0
 10
14.823517
 20
51.570593
 30
0.0
 10
14.823517
 20
51.291902
 30
0.0
  0
SPLINE
  5
170
100
AcDbEntity
  8
0
 62
7
100
AcDbSpline
 70
8
 71
3
 72
8
 73
4
 74
0
 40
0
 40
0
 40
0
 40
0
 40
1
 40
1
 40
1
 40
1
 10
14.823517
 20
51.291902
 30
0.0
 10
14.823517
 20
51.013212
 30
0.0
 10
14.601271
 20
50.790965
 30
0.0
 10
14.322580
 20
50.790965
 30
0.0
  0
LWPOLYLINE
  5
171
100
AcDbEntity
  8
0
 62
7
100
AcDbPolyline
 90
1
 70
1
 10
14.322580
 20
48.790743
 30
0.0
  0
SPLINE
  5
172
100
AcDbEntity
  8
0
 62
7
100
AcDbSpline
 70
8
 71
3
 72
8
 73
4
 74
0
 40
0
 40
0
 40
0
 40
0
 40
1
 40
1
 40
1
 40
1
 10
16.322802
 20
42.790076
 30
0.0
 10
16.047639
 20
42.790076
 30
0.0
 10
15.821865
 20
43.012322
 30
0.0
 10
15.821865
 20
43.291013
 30
0.0
  0
SPLINE
  5
173
100
AcDbEntity
  8
0
 62
7
100
AcDbSpline
 70
8
 71
3
 72
8
 73
4
 74
0
 40
0
 40
0
 40
0
 40
0
 40
1
 40
1
 40
1
 40
1
 10
15.821865
 20
43.291013
 30
0.0
 10
15.821865
 20
43.569704
 30
0.0
 10
16.044112
 20
43.791951
 30
0.0
 10
16.322802
 20
43.791951
 30
0.0
  0
SPLINE
  5
174
100
AcDbEntity
  8
0
 62
7
100
AcDbSpline
 70
8
 71
3
 72
8
 73
4
 74
0
 40
0
 40
0
 40
0
 40
0
 40
1
 40
1
 40
1
 40
1
 10
16.322802
 20
43.791951
 30
0.0
 10
16.601493
 20
43.791951
 30
0.0
 10
16.823740
 20
43.569704
 30
0.0
 10
16.823740
 20
43.291013
 30
0.0
  0
SPLINE
  5
175
100
AcDbEntity
  8
0
 62
7
100
AcDbSpline
 70
8
 71
3
 72
8
 73
4
 74
0
 40
0
 40
0
 40
0
 40
0
 40
1
 40
1
 40
1
 40
1
 10
16.823740
 20
43.291013
 30
0.0
 10
16.823740
 20
43.012322
 30
0.0
 10
16.601493
 20
42.790076
 30
0.0
 10
16.322802
 20
42.790076
 30
0.0
  0
LWPOLYLINE
  5
176
100
AcDbEntity
  8
0
 62
7
100
AcDbPolyline
 90
1
 70
1
 10
14.322580
 20
50.790965
 30
0.0
  0
SPLINE
  5
177
100
AcDbEntity
  8
0
 62
7
100
AcDbSpline
 70
8
 71
3
 72
8
 73
4
 74
0
 40
0
 40
0
 40
0
 40
0
 40
1
 40
1
 40
1
 40
1
 10
16.322802
 20
44.790298
 30
0.0
 10
16.047639
 20
44.790298
 30
0.0
 10
15.821865
 20
45.012545
 30
0.0
 10
15.821865
 20
45.291235
 30
0.0
  0
SPLINE
  5
178
100
AcDbEntity
  8
0
 62
7
100
AcDbSpline
 70
8
 71
3
 72
8
 73
4
 74
0
 40
0
 40
0
 40
0
 40
0
 40
1
 40
1
 40
1
 40
1
 10
15.821865
 20
45.291235
 30
0.0
 10
15.821865
 20
45.569926
 30
0.0
 10
16.044112
 20
45.792173
 30
0.0
 10
16.322802
 20
45.792173
 30
0.0
  0
SPLINE
  5
179
100
AcDbEntity
  8
0
 62
7
100
AcDbSpline
 70
8
 71
3
 72
8
 73
4
 74
0
 40
0
 40
0
 40
0
 40
0
 40
1
 40
1
 40
1
 40
1
 10
16.322802
 20
45.792173
 30
0.0
 10
16.601493
 20
45.792173
 30
0.0
 10
16.823740
 20
45.569926
 30
0.0
 10
16.823740
 20
45.291235
 30
0.0
  0
SPLINE
  5
17a
100
AcDbEntity
  8
0
 62
7
100
AcDbSpline
 70
8
 71
3
 72
8
 73
4
 74
0
 40
0
 40
0
 40
0
 40
0
 40
1
 40
1
 40
1
 40
1
 10
16.823740
 20
45.291235
 30
0.0
 10
16.823740
 20
45.012545
 30
0.0
 10
16.601493
 20
44.790298
 30
0.0
 10
16.322802
 20
44.790298
 30
0.0
  0
LWPOLYLINE
  5
17b
100
AcDbEntity
  8
0
 62
7
100
AcDbPolyline
 90
1
 70
1
 10
16.322802
 20
42.790076
 30
0.0
  0
SPLINE
  5
17c
100
AcDbEntity
  8
0
 62
7
100
AcDbSpline
 70
8
 71
3
 72
8
 73
4
 74
0
 40
0
 40
0
 40
0
 40
0
 40
1
 40
1
 40
1
 40
1
 10
16.322802
 20
46.790520
 30
0.0
 10
16.047639
 20
46.790520
 30
0.0
 10
15.821865
 20
47.012767
 30
0.0
 10
15.821865
 20
47.291458
 30
0.0
  0
SPLINE
  5
17d
100
AcDbEntity
  8
0
 62
7
100
AcDbSpline
 70
8
 71
3
 72
8
 73
4
 74
0
 40
0
 40
0
 40
0
 40
0
 40
1
 40
1
 40
1
 40
1
 10
15.821865
 20
47.291458
 30
0.0
 10
15.821865
 20
47.570148
 30
0.0
 10
16.044112
 20
47.792395
 30
0.0
 10
16.322802
 20
47.792395
 30
0.0
  0
SPLINE
  5
17e
100
AcDbEntity
  8
0
 62
7
100
AcDbSpline
 70
8
 71
3
 72
8
 73
4
 74
0
 40
0
 40
0
 40
0
 40
0
 40
1
 40
1
 40
1
 40
1
 10
16.322802
 20
47.792395
 30
0.0
 10
16.601493
 20
47.792395
 30
0.0
 10
16.823740
 20
47.570148
 30
0.0
 10
16.823740
 20
47.291458
 30
0.0
  0
SPLINE
  5
17f
100
AcDbEntity
  8
0
 62
7
100
AcDbSpline
 70
8
 71
3
 72
8
 73
4
 74
0
 40
0
 40
0
 40
0
 40
0
 40
1
 40
1
 40
1
 40
1
 10
16.823740
 20
47.291458
 30
0.0
 10
16.823740
 20
47.012767
 30
0.0
 10
16.601493
 20
46.790520
 30
0.0
 10
16.322802
 20
46.790520
 30
0.0
  0
LWPOLYLINE
  5
180
100
AcDbEntity
  8
0
 62
7
100
AcDbPolyline
 90
1
 70
1
 10
16.322802
 20
44.790298
 30
0.0
  0
SPLINE
  5
181
100
AcDbEntity
  8
0
 62
7
100
AcDbSpline
 70
8
 71
3
 72
8
 73
4
 74
0
 40
0
 40
0
 40
0
 40
0
 40
1
 40
1
 40
1
 40
1
 10
16.322802
 20
48.790743
 30
0.0
 10
16.047639
 20
48.790743
 30
0.0
 10
15.821865
 20
49.012990
 30
0.0
 10
15.821865
 20
49.291680
 30
0.0
  0
SPLINE
  5
182
100
AcDbEntity
  8
0
 62
7
100
AcDbSpline
 70
8
 71
3
 72
8
 73
4
 74
0
 40
0
 40
0
 40
0
 40
0
 40
1
 40
1
 40
1
 40
1
 10
15.821865
 20
49.291680
 30
0.0
 10
15.821865
 20
49.570371
 30
0.0
 10
16.044112
 20
49.792618
 30
0.0
 10
16.322802
 20
49.792618
 30
0.0
  0
SPLINE
  5
183
100
AcDbEntity
  8
0
 62
7
100
AcDbSpline
 70
8
 71
3
 72
8
 73
4
 74
0
 40
0
 40
0
 40
0
 40
0
 40
1
 40
1
 40
1
 40
1
 10
16.322802
 20
49.792618
 30
0.0
 10
16.601493
 20
49.792618
 30
0.0
 10
16.823740
 20
49.570371
 30
0.0
 10
16.823740
 20
49.291680
 30
0.0
  0
SPLINE
  5
184
100
AcDbEntity
  8
0
 62
7
100
AcDbSpline
 70
8
 71
3
 72
8
 73
4
 74
0
 40
0
 40
0
 40
0
 40
0
 40
1
 40
1
 40
1
 40
1
 10
16.823740
 20
49.291680
 30
0.0
 10
16.823740
 20
49.012990
 30
0.0
 10
16.601493
 20
48.790743
 30
0.0
 10
16.322802
 20
48.790743
 30
0.0
  0
LWPOLYLINE
  5
185
100
AcDbEntity
  8
0
 62
7
100
AcDbPolyline
 90
1
 70
1
 10
16.322802
 20
46.790520
 30
0.0
  0
SPLINE
  5
186
100
AcDbEntity
  8
0
 62
7
100
AcDbSpline
 70
8
 71
3
 72
8
 73
4
 74
0
 40
0
 40
0
 40
0
 40
0
 40
1
 40
1
 40
1
 40
1
 10
16.322802
 20
50.790965
 30
0.0
 10
16.047639
 20
50.790965
 30
0.0
 10
15.821865
 20
51.013212
 30
0.0
 10
15.821865
 20
51.291902
 30
0.0
  0
SPLINE
  5
187
100
AcDbEntity
  8
0
 62
7
100
AcDbSpline
 70
8
 71
3
 72
8
 73
4
 74
0
 40
0
 40
0
 40
0
 40
0
 40
1
 40
1
 40
1
 40
1
 10
15.821865
 20
51.291902
 30
0.0
 10
15.821865
 20
51.570593
 30
0.0
 10
16.044112
 20
51.792840
 30
0.0
 10
16.322802
 20
51.792840
 30
0.0
  0
SPLINE
  5
188
100
AcDbEntity
  8
0
 62
7
100
AcDbSpline
 70
8
 71
3
 72
8
 73
4
 74
0
 40
0
 40
0
 40
0
 40
0
 40
1
 40
1
 40
1
 40
1
 10
16.322802
 20
51.792840
 30
0.0
 10
16.601493
 20
51.792840
 30
0.0
 10
16.823740
 20
51.570593
 30
0.0
 10
16.823740
 20
51.291902
 30
0.0
  0
SPLINE
  5
189
100
AcDbEntity
  8
0
 62
7
100
AcDbSpline
 70
8
 71
3
 72
8
 73
4
 74
0
 40
0
 40
0
 40
0
 40
0
 40
1
 40
1
 40
1
 40
1
 10
16.823740
 20
51.291902
 30
0.0
 10
16.823740
 20
51.013212
 30
0.0
 10
16.601493
 20
50.790965
 30
0.0
 10
16.322802
 20
50.790965
 30
0.0
  0
LWPOLYLINE
  5
18a
100
AcDbEntity
  8
0
 62
7
100
AcDbPolyline
 90
1
 70
1
 10
16.322802
 20
48.790743
 30
0.0
  0
SPLINE
  5
18b
100
AcDbEntity
  8
0
 62
7
100
AcDbSpline
 70
8
 71
3
 72
8
 73
4
 74
0
 40
0
 40
0
 40
0
 40
0
 40
1
 40
1
 40
1
 40
1
 10
33.728617
 20
42.165667
 30
0.0
 10
34.307165
 20
42.165667
 30
0.0
 10
34.779881
 20
41.696480
 30
0.0
 10
34.779881
 20
41.114404
 30
0.0
  0
SPLINE
  5
18c
100
AcDbEntity
  8
0
 62
7
100
AcDbSpline
 70
8
 71
3
 72
8
 73
4
 74
0
 40
0
 40
0
 40
0
 40
0
 40
1
 40
1
 40
1
 40
1
 10
34.779881
 20
41.114404
 30
0.0
 10
34.779881
 20
40.532329
 30
0.0
 10
34.310693
 20
40.063141
 30
0.0
 10
33.728617
 20
40.063141
 30
0.0
  0
SPLINE
  5
18d
100
AcDbEntity
  8
0
 62
7
100
AcDbSpline
 70
8
 71
3
 72
8
 73
4
 74
0
 40
0
 40
0
 40
0
 40
0
 40
1
 40
1
 40
1
 40
1
 10
33.728617
 20
40.063141
 30
0.0
 10
33.146542
 20
40.063141
 30
0.0
 10
32.677354
 20
40.532329
 30
0.0
 10
32.677354
 20
41.114404
 30
0.0
  0
SPLINE
  5
18e
100
AcDbEntity
  8
0
 62
7
100
AcDbSpline
 70
8
 71
3
 72
8
 73
4
 74
0
 40
0
 40
0
 40
0
 40
0
 40
1
 40
1
 40
1
 40
1
 10
32.677354
 20
41.114404
 30
0.0
 10
32.677354
 20
41.696480
 30
0.0
 10
33.146542
 20
42.165667
 30
0.0
 10
33.728617
 20
42.165667
 30
0.0
  0
LWPOLYLINE
  5
18f
100
AcDbEntity
  8
0
 62
7
100
AcDbPolyline
 90
1
 70
1
 10
16.322802
 20
50.790965
 30
0.0
  0
SPLINE
  5
190
100
AcDbEntity
  8
0
 62
7
100
AcDbSpline
 70
8
 71
3
 72
8
 73
4
 74
0
 40
0
 40
0
 40
0
 40
0
 40
1
 40
1
 40
1
 40
1
 10
22.154138
 20
42.938240
 30
0.0
 10
22.732686
 20
42.938240
 30
0.0
 10
23.205402
 20
42.469052
 30
0.0
 10
23.205402
 20
41.886977
 30
0.0
  0
SPLINE
  5
191
100
AcDbEntity
  8
0
 62
7
100
AcDbSpline
 70
8
 71
3
 72
8
 73
4
 74
0
 40
0
 40
0
 40
0
 40
0
 40
1
 40
1
 40
1
 40
1
 10
23.205402
 20
41.886977
 30
0.0
 10
23.205402
 20
41.304902
 30
0.0
 10
22.736214
 20
40.835714
 30
0.0
 10
22.154138
 20
40.835714
 30
0.0
  0
SPLINE
  5
192
100
AcDbEntity
  8
0
 62
7
100
AcDbSpline
 70
8
 71
3
 72
8
 73
4
 74
0
 40
0
 40
0
 40
0
 40
0
 40
1
 40
1
 40
1
 40
1
 10
22.154138
 20
40.835714
 30
0.0
 10
21.572063
 20
40.835714
 30
0.0
 10
21.102875
 20
41.304902
 30
0.0
 10
21.102875
 20
41.886977
 30
0.0
  0
SPLINE
  5
193
100
AcDbEntity
  8
0
 62
7
100
AcDbSpline
 70
8
 71
3
 72
8
 73
4
 74
0
 40
0
 40
0
 40
0
 40
0
 40
1
 40
1
 40
1
 40
1
 10
21.102875
 20
41.886977
 30
0.0
 10
21.102875
 20
42.469052
 30
0.0
 10
21.572063
 20
42.938240
 30
0.0
 10
22.154138
 20
42.938240
 30
0.0
  0
LWPOLYLINE
  5
194
100
AcDbEntity
  8
0
 62
7
100
AcDbPolyline
 90
1
 70
1
 10
33.728617
 20
42.165667
 30
0.0
  0
SPLINE
  5
195
100
AcDbEntity
  8
0
 62
7
100
AcDbSpline
 70
8
 71
3
 72
8
 73
4
 74
0
 40
0
 40
0
 40
0
 40
0
 40
1
 40
1
 40
1
 40
1
 10
118.870358
 20
89.821759
 30
0.0
 10
118.482308
 20
89.821759
 30
0.0
 10
118.171867
 20
89.507791
 30
0.0
 10
118.171867
 20
89.123269
 30
0.0
  0
LWPOLYLINE
  5
196
100
AcDbEntity
  8
0
 62
7
100
AcDbPolyline
 90
1
 70
1
 10
22.154138
 20
42.938240
 30
0.0
  0
SPLINE
  5
197
100
AcDbEntity
  8
0
 62
7
100
AcDbSpline
 70
8
 71
3
 72
8
 73
4
 74
0
 40
0
 40
0
 40
0
 40
0
 40
1
 40
1
 40
1
 40
1
 10
118.171867
 20
0.111610
 30
0.0
 10
123.244742
 20
4.799961
 30
0.0
 10
128.825609
 20
8.945043
 30
0.0
 10
134.480559
 20
12.211720
 30
0.0
  0
SPLINE
  5
198
100
AcDbEntity
  8
0
 62
7
100
AcDbSpline
 70
8
 71
3
 72
8
 73
4
 74
0
 40
0
 40
0
 40
0
 40
0
 40
1
 40
1
 40
1
 40
1
 10
134.480559
 20
12.211720
 30
0.0
 10
138.854943
 20
14.737574
 30
0.0
 10
143.444518
 20
16.924766
 30
0.0
 10
148.051732
 20
18.699214
 30
0.0
  0
LWPOLYLINE
  5
199
100
AcDbEntity
  8
0
 62
7
100
AcDbPolyline
 90
2
 70
0
 10
118.171867
 20
89.123269
 30
0.0
 10
118.171867
 20
0.111610
 30
0.0
  0
SPLINE
  5
19a
100
AcDbEntity
  8
0
 62
7
100
AcDbSpline
 70
8
 71
3
 72
8
 73
4
 74
0
 40
0
 40
0
 40
0
 40
0
 40
1
 40
1
 40
1
 40
1
 10
148.079954
 20
81.143546
 30
0.0
 10
148.079954
 20
81.531596
 30
0.0
 10
148.393922
 20
81.842036
 30
0.0
 10
148.778445
 20
81.842036
 30
0.0
  0
LWPOLYLINE
  5
19b
100
AcDbEntity
  8
0
 62
7
100
AcDbPolyline
 90
2
 70
0
 10
148.051732
 20
18.699214
 30
0.0
 10
148.079954
 20
81.143546
 30
0.0
  0
SPLINE
  5
19c
100
AcDbEntity
  8
0
 62
7
100
AcDbSpline
 70
8
 71
3
 72
8
 73
4
 74
0
 40
0
 40
0
 40
0
 40
0
 40
1
 40
1
 40
1
 40
1
 10
167.073247
 20
84.156226
 30
0.0
 10
167.073247
 20
84.544276
 30
0.0
 10
167.387215
 20
84.854717
 30
0.0
 10
167.771738
 20
84.854717
 30
0.0
  0
LWPOLYLINE
  5
19d
100
AcDbEntity
  8
0
 62
7
100
AcDbPolyline
 90
3
 70
0
 10
148.778445
 20
81.842036
 30
0.0
 10
167.073247
 20
81.842036
 30
0.0
 10
167.073247
 20
84.156226
 30
0.0
  0
SPLINE
  5
19e
100
AcDbEntity
  8
0
 62
7
100
AcDbSpline
 70
8
 71
3
 72
8
 73
4
 74
0
 40
0
 40
0
 40
0
 40
0
 40
1
 40
1
 40
1
 40
1
 10
120.775331
 20
88.258975
 30
0.0
 10
121.353879
 20
88.258975
 30
0.0
 10
121.826595
 20
87.789787
 30
0.0
 10
121.826595
 20
87.207712
 30
0.0
  0
SPLINE
  5
19f
100
AcDbEntity
  8
0
 62
7
100
AcDbSpline
 70
8
 71
3
 72
8
 73
4
 74
0
 40
0
 40
0
 40
0
 40
0
 40
1
 40
1
 40
1
 40
1
 10
121.826595
 20
87.207712
 30
0.0
 10
121.826595
 20
86.625637
 30
0.0
 10
121.357407
 20
86.156449
 30
0.0
 10
120.775331
 20
86.156449
 30
0.0
  0
SPLINE
  5
1a0
100
AcDbEntity
  8
0
 62
7
100
AcDbSpline
 70
8
 71
3
 72
8
 73
4
 74
0
 40
0
 40
0
 40
0
 40
0
 40
1
 40
1
 40
1
 40
1
 10
120.775331
 20
86.156449
 30
0.0
 10
120.193256
 20
86.156449
 30
0.0
 10
119.724068
 20
86.625637
 30
0.0
 10
119.724068
 20
87.207712
 30
0.0
  0
SPLINE
  5
1a1
100
AcDbEntity
  8
0
 62
7
100
AcDbSpline
 70
8
 71
3
 72
8
 73
4
 74
0
 40
0
 40
0
 40
0
 40
0
 40
1
 40
1
 40
1
 40
1
 10
119.724068
 20
87.207712
 30
0.0
 10
119.724068
 20
87.789787
 30
0.0
 10
120.193256
 20
88.258975
 30
0.0
 10
120.775331
 20
88.258975
 30
0.0
  0
LWPOLYLINE
  5
1a2
100
AcDbEntity
  8
0
 62
7
100
AcDbPolyline
 90
5
 70
0
 10
167.771738
 20
84.854717
 30
0.0
 10
186.094762
 20
84.854717
 30
0.0
 10
186.080651
 20
89.825287
 30
0.0
 10
118.873885
 20
89.825287
 30
0.0
 10
118.870358
 20
89.821759
 30
0.0
  0
SPLINE
  5
1a3
100
AcDbEntity
  8
0
 62
7
100
AcDbSpline
 70
8
 71
3
 72
8
 73
4
 74
0
 40
0
 40
0
 40
0
 40
0
 40
1
 40
1
 40
1
 40
1
 10
120.775331
 20
6.733157
 30
0.0
 10
120.196784
 20
6.733157
 30
0.0
 10
119.724068
 20
7.202345
 30
0.0
 10
119.724068
 20
7.784420
 30
0.0
  0
SPLINE
  5
1a4
100
AcDbEntity
  8
0
 62
7
100
AcDbSpline
 70
8
 71
3
 72
8
 73
4
 74
0
 40
0
 40
0
 40
0
 40
0
 40
1
 40
1
 40
1
 40
1
 10
119.724068
 20
7.784420
 30
0.0
 10
119.724068
 20
8.366496
 30
0.0
 10
120.193256
 20
8.835683
 30
0.0
 10
120.775331
 20
8.835683
 30
0.0
  0
SPLINE
  5
1a5
100
AcDbEntity
  8
0
 62
7
100
AcDbSpline
 70
8
 71
3
 72
8
 73
4
 74
0
 40
0
 40
0
 40
0
 40
0
 40
1
 40
1
 40
1
 40
1
 10
120.775331
 20
8.835683
 30
0.0
 10
121.357407
 20
8.835683
 30
0.0
 10
121.826595
 20
8.366496
 30
0.0
 10
121.826595
 20
7.784420
 30
0.0
  0
SPLINE
  5
1a6
100
AcDbEntity
  8
0
 62
7
100
AcDbSpline
 70
8
 71
3
 72
8
 73
4
 74
0
 40
0
 40
0
 40
0
 40
0
 40
1
 40
1
 40
1
 40
1
 10
121.826595
 20
7.784420
 30
0.0
 10
121.826595
 20
7.202345
 30
0.0
 10
121.357407
 20
6.733157
 30
0.0
 10
120.775331
 20
6.733157
 30
0.0
  0
LWPOLYLINE
  5
1a7
100
AcDbEntity
  8
0
 62
7
100
AcDbPolyline
 90
1
 70
1
 10
120.775331
 20
88.258975
 30
0.0
  0
SPLINE
  5
1a8
100
AcDbEntity
  8
0
 62
7
100
AcDbSpline
 70
8
 71
3
 72
8
 73
4
 74
0
 40
0
 40
0
 40
0
 40
0
 40
1
 40
1
 40
1
 40
1
 10
133.129439
 20
16.758963
 30
0.0
 10
126.363254
 20
16.758963
 30
0.0
 10
120.881163
 20
22.244582
 30
0.0
 10
120.881163
 20
29.007238
 30
0.0
  0
SPLINE
  5
1a9
100
AcDbEntity
  8
0
 62
7
100
AcDbSpline
 70
8
 71
3
 72
8
 73
4
 74
0
 40
0
 40
0
 40
0
 40
0
 40
1
 40
1
 40
1
 40
1
 10
120.881163
 20
29.007238
 30
0.0
 10
120.881163
 20
35.769895
 30
0.0
 10
126.366782
 20
41.255513
 30
0.0
 10
133.129439
 20
41.255513
 30
0.0
  0
SPLINE
  5
1aa
100
AcDbEntity
  8
0
 62
7
100
AcDbSpline
 70
8
 71
3
 72
8
 73
4
 74
0
 40
0
 40
0
 40
0
 40
0
 40
1
 40
1
 40
1
 40
1
 10
133.129439
 20
41.255513
 30
0.0
 10
139.892095
 20
41.255513
 30
0.0
 10
145.377714
 20
35.769895
 30
0.0
 10
145.377714
 20
29.007238
 30
0.0
  0
SPLINE
  5
1ab
100
AcDbEntity
  8
0
 62
7
100
AcDbSpline
 70
8
 71
3
 72
8
 73
4
 74
0
 40
0
 40
0
 40
0
 40
0
 40
1
 40
1
 40
1
 40
1
 10
145.377714
 20
29.007238
 30
0.0
 10
145.377714
 20
22.244582
 30
0.0
 10
139.892095
 20
16.758963
 30
0.0
 10
133.129439
 20
16.758963
 30
0.0
  0
LWPOLYLINE
  5
1ac
100
AcDbEntity
  8
0
 62
7
100
AcDbPolyline
 90
1
 70
1
 10
120.775331
 20
6.733157
 30
0.0
  0
SPLINE
  5
1ad
100
AcDbEntity
  8
0
 62
7
100
AcDbSpline
 70
8
 71
3
 72
8
 73
4
 74
0
 40
0
 40
0
 40
0
 40
0
 40
1
 40
1
 40
1
 40
1
 10
182.842196
 20
86.128227
 30
0.0
 10
182.263649
 20
86.128227
 30
0.0
 10
181.790933
 20
86.597415
 30
0.0
 10
181.790933
 20
87.179490
 30
0.0
  0
SPLINE
  5
1ae
100
AcDbEntity
  8
0
 62
7
100
AcDbSpline
 70
8
 71
3
 72
8
 73
4
 74
0
 40
0
 40
0
 40
0
 40
0
 40
1
 40
1
 40
1
 40
1
 10
181.790933
 20
87.179490
 30
0.0
 10
181.790933
 20
87.761565
 30
0.0
 10
182.260121
 20
88.230753
 30
0.0
 10
182.842196
 20
88.230753
 30
0.0
  0
SPLINE
  5
1af
100
AcDbEntity
  8
0
 62
7
100
AcDbSpline
 70
8
 71
3
 72
8
 73
4
 74
0
 40
0
 40
0
 40
0
 40
0
 40
1
 40
1
 40
1
 40
1
 10
182.842196
 20
88.230753
 30
0.0
 10
183.424271
 20
88.230753
 30
0.0
 10
183.893459
 20
87.761565
 30
0.0
 10
183.893459
 20
87.179490
 30
0.0
  0
SPLINE
  5
1b0
100
AcDbEntity
  8
0
 62
7
100
AcDbSpline
 70
8
 71
3
 72
8
 73
4
 74
0
 40
0
 40
0
 40
0
 40
0
 40
1
 40
1
 40
1
 40
1
 10
183.893459
 20
87.179490
 30
0.0
 10
183.893459
 20
86.597415
 30
0.0
 10
183.424271
 20
86.128227
 30
0.0
 10
182.842196
 20
86.128227
 30
0.0
  0
LWPOLYLINE
  5
1b1
100
AcDbEntity
  8
0
 62
7
100
AcDbPolyline
 90
2
 70
1
 10
133.129439
 20
16.758963
 30
0.0
 10
133.129439
 20
16.758963
 30
0.0
  0
LWPOLYLINE
  5
1b2
100
AcDbEntity
  8
0
 62
7
100
AcDbPolyline
 90
1
 70
1
 10
182.842196
 20
86.128227
 30
0.0
  0
SPLINE
  5
1b3
100
AcDbEntity
  8
0
 62
7
100
AcDbSpline
 70
8
 71
3
 72
8
 73
4
 74
0
 40
0
 40
0
 40
0
 40
0
 40
1
 40
1
 40
1
 40
1
 10
150.383561
 20
59.021157
 30
0.0
 10
149.663905
 20
59.070545
 30
0.0
 10
149.533379
 20
58.012226
 30
0.0
 10
150.245980
 20
57.888756
 30
0.0
  0
LWPOLYLINE
  5
1b4
100
AcDbEntity
  8
0
 62
7
100
AcDbPolyline
 90
6
 70
0
 10
186.091235
 20
37.237430
 30
0.0
 10
186.091235
 20
79.538429
 30
0.0
 10
180.496256
 20
79.549012
 30
0.0
 10
178.922889
 20
57.045629
 30
0.0
 10
178.922889
 20
57.045629
 30
0.0
 10
150.383561
 20
59.021157
 30
0.0
  0
SPLINE
  5
1b5
100
AcDbEntity
  8
0
 62
7
100
AcDbSpline
 70
8
 71
3
 72
8
 73
4
 74
0
 40
0
 40
0
 40
0
 40
0
 40
1
 40
1
 40
1
 40
1
 10
166.163093
 20
55.098322
 30
0.0
 10
166.544088
 20
55.031295
 30
0.0
 10
166.798085
 20
54.667939
 30
0.0
 10
166.731058
 20
54.286944
 30
0.0
  0
LWPOLYLINE
  5
1b6
100
AcDbEntity
  8
0
 62
7
100
AcDbPolyline
 90
2
 70
0
 10
150.245980
 20
57.888756
 30
0.0
 10
166.163093
 20
55.098322
 30
0.0
  0
SPLINE
  5
1b7
100
AcDbEntity
  8
0
 62
7
100
AcDbSpline
 70
8
 71
3
 72
8
 73
4
 74
0
 40
0
 40
0
 40
0
 40
0
 40
1
 40
1
 40
1
 40
1
 10
185.392744
 20
36.535412
 30
0.0
 10
185.780794
 20
36.535412
 30
0.0
 10
186.091235
 20
36.849380
 30
0.0
 10
186.091235
 20
37.233902
 30
0.0
  0
LWPOLYLINE
  5
1b8
100
AcDbEntity
  8
0
 62
7
100
AcDbPolyline
 90
3
 70
0
 10
166.731058
 20
54.286944
 30
0.0
 10
163.601962
 20
36.535412
 30
0.0
 10
185.392744
 20
36.535412
 30
0.0
  0
SPLINE
  5
1b9
100
AcDbEntity
  8
0
 62
7
100
AcDbSpline
 70
8
 71
3
 72
8
 73
4
 74
0
 40
0
 40
0
 40
0
 40
0
 40
1
 40
1
 40
1
 40
1
 10
182.440035
 20
75.033519
 30
0.0
 10
182.440035
 20
75.612067
 30
0.0
 10
182.909223
 20
76.084782
 30
0.0
 10
183.491298
 20
76.084782
 30
0.0
  0
SPLINE
  5
1ba
100
AcDbEntity
  8
0
 62
7
100
AcDbSpline
 70
8
 71
3
 72
8
 73
4
 74
0
 40
0
 40
0
 40
0
 40
0
 40
1
 40
1
 40
1
 40
1
 10
183.491298
 20
76.084782
 30
0.0
 10
184.073374
 20
76.084782
 30
0.0
 10
184.542562
 20
75.615594
 30
0.0
 10
184.542562
 20
75.033519
 30
0.0
  0
SPLINE
  5
1bb
100
AcDbEntity
  8
0
 62
7
100
AcDbSpline
 70
8
 71
3
 72
8
 73
4
 74
0
 40
0
 40
0
 40
0
 40
0
 40
1
 40
1
 40
1
 40
1
 10
184.542562
 20
75.033519
 30
0.0
 10
184.542562
 20
74.451444
 30
0.0
 10
184.073374
 20
73.982256
 30
0.0
 10
183.491298
 20
73.982256
 30
0.0
  0
SPLINE
  5
1bc
100
AcDbEntity
  8
0
 62
7
100
AcDbSpline
 70
8
 71
3
 72
8
 73
4
 74
0
 40
0
 40
0
 40
0
 40
0
 40
1
 40
1
 40
1
 40
1
 10
183.491298
 20
73.982256
 30
0.0
 10
182.909223
 20
73.982256
 30
0.0
 10
182.440035
 20
74.451444
 30
0.0
 10
182.440035
 20
75.033519
 30
0.0
  0
LWPOLYLINE
  5
1bd
100
AcDbEntity
  8
0
 62
7
100
AcDbPolyline
 90
3
 70
0
 10
186.091235
 20
37.233902
 30
0.0
 10
186.091235
 20
37.233902
 30
0.0
 10
186.091235
 20
37.237430
 30
0.0
  0
SPLINE
  5
1be
100
AcDbEntity
  8
0
 62
7
100
AcDbSpline
 70
8
 71
3
 72
8
 73
4
 74
0
 40
0
 40
0
 40
0
 40
0
 40
1
 40
1
 40
1
 40
1
 10
181.431105
 20
60.192363
 30
0.0
 10
181.431105
 20
60.770910
 30
0.0
 10
181.900293
 20
61.243626
 30
0.0
 10
182.482368
 20
61.243626
 30
0.0
  0
SPLINE
  5
1bf
100
AcDbEntity
  8
0
 62
7
100
AcDbSpline
 70
8
 71
3
 72
8
 73
4
 74
0
 40
0
 40
0
 40
0
 40
0
 40
1
 40
1
 40
1
 40
1
 10
182.482368
 20
61.243626
 30
0.0
 10
183.064443
 20
61.243626
 30
0.0
 10
183.533631
 20
60.774438
 30
0.0
 10
183.533631
 20
60.192363
 30
0.0
  0
SPLINE
  5
1c0
100
AcDbEntity
  8
0
 62
7
100
AcDbSpline
 70
8
 71
3
 72
8
 73
4
 74
0
 40
0
 40
0
 40
0
 40
0
 40
1
 40
1
 40
1
 40
1
 10
183.533631
 20
60.192363
 30
0.0
 10
183.533631
 20
59.610288
 30
0.0
 10
183.064443
 20
59.141100
 30
0.0
 10
182.482368
 20
59.141100
 30
0.0
  0
SPLINE
  5
1c1
100
AcDbEntity
  8
0
 62
7
100
AcDbSpline
 70
8
 71
3
 72
8
 73
4
 74
0
 40
0
 40
0
 40
0
 40
0
 40
1
 40
1
 40
1
 40
1
 10
182.482368
 20
59.141100
 30
0.0
 10
181.900293
 20
59.141100
 30
0.0
 10
181.431105
 20
59.610288
 30
0.0
 10
181.431105
 20
60.192363
 30
0.0
  0
LWPOLYLINE
  5
1c2
100
AcDbEntity
  8
0
 62
7
100
AcDbPolyline
 90
1
 70
1
 10
182.440035
 20
75.033519
 30
0.0
  0
SPLINE
  5
1c3
100
AcDbEntity
  8
0
 62
7
100
AcDbSpline
 70
8
 71
3
 72
8
 73
4
 74
0
 40
0
 40
0
 40
0
 40
0
 40
1
 40
1
 40
1
 40
1
 10
50.178418
 20
48.787215
 30
0.0
 10
50.178418
 20
40.641689
 30
0.0
 10
56.782327
 20
34.037780
 30
0.0
 10
64.927853
 20
34.037780
 30
0.0
  0
SPLINE
  5
1c4
100
AcDbEntity
  8
0
 62
7
100
AcDbSpline
 70
8
 71
3
 72
8
 73
4
 74
0
 40
0
 40
0
 40
0
 40
0
 40
1
 40
1
 40
1
 40
1
 10
64.927853
 20
34.037780
 30
0.0
 10
73.073379
 20
34.037780
 30
0.0
 10
79.677288
 20
40.641689
 30
0.0
 10
79.677288
 20
48.787215
 30
0.0
  0
SPLINE
  5
1c5
100
AcDbEntity
  8
0
 62
7
100
AcDbSpline
 70
8
 71
3
 72
8
 73
4
 74
0
 40
0
 40
0
 40
0
 40
0
 40
1
 40
1
 40
1
 40
1
 10
79.677288
 20
48.787215
 30
0.0
 10
79.677288
 20
56.932741
 30
0.0
 10
73.073379
 20
63.536650
 30
0.0
 10
64.927853
 20
63.536650
 30
0.0
  0
SPLINE
  5
1c6
100
AcDbEntity
  8
0
 62
7
100
AcDbSpline
 70
8
 71
3
 72
8
 73
4
 74
0
 40
0
 40
0
 40
0
 40
0
 40
1
 40
1
 40
1
 40
1
 10
64.927853
 20
63.536650
 30
0.0
 10
56.782327
 20
63.536650
 30
0.0
 10
50.178418
 20
56.932741
 30
0.0
 10
50.178418
 20
48.787215
 30
0.0
  0
LWPOLYLINE
  5
1c7
100
AcDbEntity
  8
0
 62
7
100
AcDbPolyline
 90
1
 70
1
 10
181.431105
 20
60.192363
 30
0.0
  0
SPLINE
  5
1c8
100
AcDbEntity
  8
0
 62
7
100
AcDbSpline
 70
8
 71
3
 72
8
 73
4
 74
0
 40
0
 40
0
 40
0
 40
0
 40
1
 40
1
 40
1
 40
1
 10
52.679578
 20
48.787215
 30
0.0
 10
52.679578
 20
55.549871
 30
0.0
 10
58.165196
 20
61.035490
 30
0.0
 10
64.927853
 20
61.035490
 30
0.0
  0
SPLINE
  5
1c9
100
AcDbEntity
  8
0
 62
7
100
AcDbSpline
 70
8
 71
3
 72
8
 73
4
 74
0
 40
0
 40
0
 40
0
 40
0
 40
1
 40
1
 40
1
 40
1
 10
64.927853
 20
61.035490
 30
0.0
 10
71.690510
 20
61.035490
 30
0.0
 10
77.176128
 20
55.549871
 30
0.0
 10
77.176128
 20
48.787215
 30
0.0
  0
SPLINE
  5
1ca
100
AcDbEntity
  8
0
 62
7
100
AcDbSpline
 70
8
 71
3
 72
8
 73
4
 74
0
 40
0
 40
0
 40
0
 40
0
 40
1
 40
1
 40
1
 40
1
 10
77.176128
 20
48.787215
 30
0.0
 10
77.176128
 20
42.024558
 30
0.0
 10
71.694037
 20
36.538940
 30
0.0
 10
64.927853
 20
36.538940
 30
0.0
  0
SPLINE
  5
1cb
100
AcDbEntity
  8
0
 62
7
100
AcDbSpline
 70
8
 71
3
 72
8
 73
4
 74
0
 40
0
 40
0
 40
0
 40
0
 40
1
 40
1
 40
1
 40
1
 10
64.927853
 20
36.538940
 30
0.0
 10
58.161669
 20
36.538940
 30
0.0
 10
52.679578
 20
42.024558
 30
0.0
 10
52.679578
 20
48.787215
 30
0.0
  0
LWPOLYLINE
  5
1cc
100
AcDbEntity
  8
0
 62
7
100
AcDbPolyline
 90
2
 70
1
 10
50.178418
 20
48.787215
 30
0.0
 10
50.178418
 20
48.787215
 30
0.0
  0
SPLINE
  5
1cd
100
AcDbEntity
  8
0
 62
7
100
AcDbSpline
 70
8
 71
3
 72
8
 73
4
 74
0
 40
0
 40
0
 40
0
 40
0
 40
1
 40
1
 40
1
 40
1
 10
21.596757
 20
25.871087
 30
0.0
 10
21.624979
 20
25.483037
 30
0.0
 10
21.332178
 20
25.151430
 30
0.0
 10
20.947655
 20
25.123208
 30
0.0
  0
LWPOLYLINE
  5
1ce
100
AcDbEntity
  8
0
 62
7
100
AcDbPolyline
 90
2
 70
1
 10
52.679578
 20
48.787215
 30
0.0
 10
52.679578
 20
48.787215
 30
0.0
  0
SPLINE
  5
1cf
100
AcDbEntity
  8
0
 62
7
100
AcDbSpline
 70
8
 71
3
 72
8
 73
4
 74
0
 40
0
 40
0
 40
0
 40
0
 40
1
 40
1
 40
1
 40
1
 10
35.182042
 20
24.093112
 30
0.0
 10
35.182042
 20
24.481162
 30
0.0
 10
35.496010
 20
24.795130
 30
0.0
 10
35.884060
 20
24.795130
 30
0.0
  0
LWPOLYLINE
  5
1d0
100
AcDbEntity
  8
0
 62
7
100
AcDbPolyline
 90
6
 70
0
 10
20.947655
 20
25.123208
 30
0.0
 10
2.751629
 20
23.849698
 30
0.0
 10
4.085110
 20
16.536716
 30
0.0
 10
19.176735
 20
17.595035
 30
0.0
 10
35.157348
 20
17.595035
 30
0.0
 10
35.182042
 20
24.093112
 30
0.0
  0
SPLINE
  5
1d1
100
AcDbEntity
  8
0
 62
7
100
AcDbSpline
 70
8
 71
3
 72
8
 73
4
 74
0
 40
0
 40
0
 40
0
 40
0
 40
1
 40
1
 40
1
 40
1
 10
32.060002
 20
22.713770
 30
0.0
 10
32.060002
 20
22.992460
 30
0.0
 10
32.282248
 20
23.214707
 30
0.0
 10
32.560939
 20
23.214707
 30
0.0
  0
SPLINE
  5
1d2
100
AcDbEntity
  8
0
 62
7
100
AcDbSpline
 70
8
 71
3
 72
8
 73
4
 74
0
 40
0
 40
0
 40
0
 40
0
 40
1
 40
1
 40
1
 40
1
 10
32.560939
 20
23.214707
 30
0.0
 10
32.839630
 20
23.214707
 30
0.0
 10
33.061877
 20
22.992460
 30
0.0
 10
33.061877
 20
22.713770
 30
0.0
  0
SPLINE
  5
1d3
100
AcDbEntity
  8
0
 62
7
100
AcDbSpline
 70
8
 71
3
 72
8
 73
4
 74
0
 40
0
 40
0
 40
0
 40
0
 40
1
 40
1
 40
1
 40
1
 10
33.061877
 20
22.713770
 30
0.0
 10
33.061877
 20
22.435079
 30
0.0
 10
32.836102
 20
22.212832
 30
0.0
 10
32.560939
 20
22.212832
 30
0.0
  0
SPLINE
  5
1d4
100
AcDbEntity
  8
0
 62
7
100
AcDbSpline
 70
8
 71
3
 72
8
 73
4
 74
0
 40
0
 40
0
 40
0
 40
0
 40
1
 40
1
 40
1
 40
1
 10
32.560939
 20
22.212832
 30
0.0
 10
32.285776
 20
22.212832
 30
0.0
 10
32.060002
 20
22.435079
 30
0.0
 10
32.060002
 20
22.713770
 30
0.0
  0
LWPOLYLINE
  5
1d5
100
AcDbEntity
  8
0
 62
7
100
AcDbPolyline
 90
7
 70
0
 10
35.884060
 20
24.795130
 30
0.0
 10
38.131223
 20
24.795130
 30
0.0
 10
38.131223
 20
34.743326
 30
0.0
 10
20.975877
 20
34.743326
 30
0.0
 10
21.596757
 20
25.867559
 30
0.0
 10
21.596757
 20
25.867559
 30
0.0
 10
21.596757
 20
25.871087
 30
0.0
  0
SPLINE
  5
1d6
100
AcDbEntity
  8
0
 62
7
100
AcDbSpline
 70
8
 71
3
 72
8
 73
4
 74
0
 40
0
 40
0
 40
0
 40
0
 40
1
 40
1
 40
1
 40
1
 10
32.060002
 20
24.713992
 30
0.0
 10
32.060002
 20
24.992682
 30
0.0
 10
32.282248
 20
25.214929
 30
0.0
 10
32.560939
 20
25.214929
 30
0.0
  0
SPLINE
  5
1d7
100
AcDbEntity
  8
0
 62
7
100
AcDbSpline
 70
8
 71
3
 72
8
 73
4
 74
0
 40
0
 40
0
 40
0
 40
0
 40
1
 40
1
 40
1
 40
1
 10
32.560939
 20
25.214929
 30
0.0
 10
32.839630
 20
25.214929
 30
0.0
 10
33.061877
 20
24.992682
 30
0.0
 10
33.061877
 20
24.713992
 30
0.0
  0
SPLINE
  5
1d8
100
AcDbEntity
  8
0
 62
7
100
AcDbSpline
 70
8
 71
3
 72
8
 73
4
 74
0
 40
0
 40
0
 40
0
 40
0
 40
1
 40
1
 40
1
 40
1
 10
33.061877
 20
24.713992
 30
0.0
 10
33.061877
 20
24.435301
 30
0.0
 10
32.836102
 20
24.213054
 30
0.0
 10
32.560939
 20
24.213054
 30
0.0
  0
SPLINE
  5
1d9
100
AcDbEntity
  8
0
 62
7
100
AcDbSpline
 70
8
 71
3
 72
8
 73
4
 74
0
 40
0
 40
0
 40
0
 40
0
 40
1
 40
1
 40
1
 40
1
 10
32.560939
 20
24.213054
 30
0.0
 10
32.285776
 20
24.213054
 30
0.0
 10
32.060002
 20
24.435301
 30
0.0
 10
32.060002
 20
24.713992
 30
0.0
  0
LWPOLYLINE
  5
1da
100
AcDbEntity
  8
0
 62
7
100
AcDbPolyline
 90
1
 70
1
 10
32.060002
 20
22.713770
 30
0.0
  0
SPLINE
  5
1db
100
AcDbEntity
  8
0
 62
7
100
AcDbSpline
 70
8
 71
3
 72
8
 73
4
 74
0
 40
0
 40
0
 40
0
 40
0
 40
1
 40
1
 40
1
 40
1
 10
32.060002
 20
26.714214
 30
0.0
 10
32.060002
 20
26.992905
 30
0.0
 10
32.282248
 20
27.215152
 30
0.0
 10
32.560939
 20
27.215152
 30
0.0
  0
SPLINE
  5
1dc
100
AcDbEntity
  8
0
 62
7
100
AcDbSpline
 70
8
 71
3
 72
8
 73
4
 74
0
 40
0
 40
0
 40
0
 40
0
 40
1
 40
1
 40
1
 40
1
 10
32.560939
 20
27.215152
 30
0.0
 10
32.839630
 20
27.215152
 30
0.0
 10
33.061877
 20
26.992905
 30
0.0
 10
33.061877
 20
26.714214
 30
0.0
  0
SPLINE
  5
1dd
100
AcDbEntity
  8
0
 62
7
100
AcDbSpline
 70
8
 71
3
 72
8
 73
4
 74
0
 40
0
 40
0
 40
0
 40
0
 40
1
 40
1
 40
1
 40
1
 10
33.061877
 20
26.714214
 30
0.0
 10
33.061877
 20
26.435524
 30
0.0
 10
32.836102
 20
26.213277
 30
0.0
 10
32.560939
 20
26.213277
 30
0.0
  0
SPLINE
  5
1de
100
AcDbEntity
  8
0
 62
7
100
AcDbSpline
 70
8
 71
3
 72
8
 73
4
 74
0
 40
0
 40
0
 40
0
 40
0
 40
1
 40
1
 40
1
 40
1
 10
32.560939
 20
26.213277
 30
0.0
 10
32.285776
 20
26.213277
 30
0.0
 10
32.060002
 20
26.435524
 30
0.0
 10
32.060002
 20
26.714214
 30
0.0
  0
LWPOLYLINE
  5
1df
100
AcDbEntity
  8
0
 62
7
100
AcDbPolyline
 90
1
 70
1
 10
32.060002
 20
24.713992
 30
0.0
  0
SPLINE
  5
1e0
100
AcDbEntity
  8
0
 62
7
100
AcDbSpline
 70
8
 71
3
 72
8
 73
4
 74
0
 40
0
 40
0
 40
0
 40
0
 40
1
 40
1
 40
1
 40
1
 10
32.060002
 20
28.714437
 30
0.0
 10
32.060002
 20
28.993127
 30
0.0
 10
32.282248
 20
29.215374
 30
0.0
 10
32.560939
 20
29.215374
 30
0.0
  0
SPLINE
  5
1e1
100
AcDbEntity
  8
0
 62
7
100
AcDbSpline
 70
8
 71
3
 72
8
 73
4
 74
0
 40
0
 40
0
 40
0
 40
0
 40
1
 40
1
 40
1
 40
1
 10
32.560939
 20
29.215374
 30
0.0
 10
32.839630
 20
29.215374
 30
0.0
 10
33.061877
 20
28.993127
 30
0.0
 10
33.061877
 20
28.714437
 30
0.0
  0
SPLINE
  5
1e2
100
AcDbEntity
  8
0
 62
7
100
AcDbSpline
 70
8
 71
3
 72
8
 73
4
 74
0
 40
0
 40
0
 40
0
 40
0
 40
1
 40
1
 40
1
 40
1
 10
33.061877
 20
28.714437
 30
0.0
 10
33.061877
 20
28.435746
 30
0.0
 10
32.836102
 20
28.213499
 30
0.0
 10
32.560939
 20
28.213499
 30
0.0
  0
SPLINE
  5
1e3
100
AcDbEntity
  8
0
 62
7
100
AcDbSpline
 70
8
 71
3
 72
8
 73
4
 74
0
 40
0
 40
0
 40
0
 40
0
 40
1
 40
1
 40
1
 40
1
 10
32.560939
 20
28.213499
 30
0.0
 10
32.285776
 20
28.213499
 30
0.0
 10
32.060002
 20
28.435746
 30
0.0
 10
32.060002
 20
28.714437
 30
0.0
  0
LWPOLYLINE
  5
1e4
100
AcDbEntity
  8
0
 62
7
100
AcDbPolyline
 90
1
 70
1
 10
32.060002
 20
26.714214
 30
0.0
  0
SPLINE
  5
1e5
100
AcDbEntity
  8
0
 62
7
100
AcDbSpline
 70
8
 71
3
 72
8
 73
4
 74
0
 40
0
 40
0
 40
0
 40
0
 40
1
 40
1
 40
1
 40
1
 10
32.060002
 20
30.714659
 30
0.0
 10
32.060002
 20
30.993350
 30
0.0
 10
32.282248
 20
31.215597
 30
0.0
 10
32.560939
 20
31.215597
 30
0.0
  0
SPLINE
  5
1e6
100
AcDbEntity
  8
0
 62
7
100
AcDbSpline
 70
8
 71
3
 72
8
 73
4
 74
0
 40
0
 40
0
 40
0
 40
0
 40
1
 40
1
 40
1
 40
1
 10
32.560939
 20
31.215597
 30
0.0
 10
32.839630
 20
31.215597
 30
0.0
 10
33.061877
 20
30.993350
 30
0.0
 10
33.061877
 20
30.714659
 30
0.0
  0
SPLINE
  5
1e7
100
AcDbEntity
  8
0
 62
7
100
AcDbSpline
 70
8
 71
3
 72
8
 73
4
 74
0
 40
0
 40
0
 40
0
 40
0
 40
1
 40
1
 40
1
 40
1
 10
33.061877
 20
30.714659
 30
0.0
 10
33.061877
 20
30.435968
 30
0.0
 10
32.836102
 20
30.213721
 30
0.0
 10
32.560939
 20
30.213721
 30
0.0
  0
SPLINE
  5
1e8
100
AcDbEntity
  8
0
 62
7
100
AcDbSpline
 70
8
 71
3
 72
8
 73
4
 74
0
 40
0
 40
0
 40
0
 40
0
 40
1
 40
1
 40
1
 40
1
 10
32.560939
 20
30.213721
 30
0.0
 10
32.285776
 20
30.213721
 30
0.0
 10
32.060002
 20
30.435968
 30
0.0
 10
32.060002
 20
30.714659
 30
0.0
  0
LWPOLYLINE
  5
1e9
100
AcDbEntity
  8
0
 62
7
100
AcDbPolyline
 90
1
 70
1
 10
32.060002
 20
28.714437
 30
0.0
  0
SPLINE
  5
1ea
100
AcDbEntity
  8
0
 62
7
100
AcDbSpline
 70
8
 71
3
 72
8
 73
4
 74
0
 40
0
 40
0
 40
0
 40
0
 40
1
 40
1
 40
1
 40
1
 10
30.059779
 20
22.713770
 30
0.0
 10
30.059779
 20
22.992460
 30
0.0
 10
30.282026
 20
23.214707
 30
0.0
 10
30.560717
 20
23.214707
 30
0.0
  0
SPLINE
  5
1eb
100
AcDbEntity
  8
0
 62
7
100
AcDbSpline
 70
8
 71
3
 72
8
 73
4
 74
0
 40
0
 40
0
 40
0
 40
0
 40
1
 40
1
 40
1
 40
1
 10
30.560717
 20
23.214707
 30
0.0
 10
30.839407
 20
23.214707
 30
0.0
 10
31.061654
 20
22.992460
 30
0.0
 10
31.061654
 20
22.713770
 30
0.0
  0
SPLINE
  5
1ec
100
AcDbEntity
  8
0
 62
7
100
AcDbSpline
 70
8
 71
3
 72
8
 73
4
 74
0
 40
0
 40
0
 40
0
 40
0
 40
1
 40
1
 40
1
 40
1
 10
31.061654
 20
22.713770
 30
0.0
 10
31.061654
 20
22.435079
 30
0.0
 10
30.835880
 20
22.212832
 30
0.0
 10
30.560717
 20
22.212832
 30
0.0
  0
SPLINE
  5
1ed
100
AcDbEntity
  8
0
 62
7
100
AcDbSpline
 70
8
 71
3
 72
8
 73
4
 74
0
 40
0
 40
0
 40
0
 40
0
 40
1
 40
1
 40
1
 40
1
 10
30.560717
 20
22.212832
 30
0.0
 10
30.285554
 20
22.212832
 30
0.0
 10
30.059779
 20
22.435079
 30
0.0
 10
30.059779
 20
22.713770
 30
0.0
  0
LWPOLYLINE
  5
1ee
100
AcDbEntity
  8
0
 62
7
100
AcDbPolyline
 90
1
 70
1
 10
32.060002
 20
30.714659
 30
0.0
  0
SPLINE
  5
1ef
100
AcDbEntity
  8
0
 62
7
100
AcDbSpline
 70
8
 71
3
 72
8
 73
4
 74
0
 40
0
 40
0
 40
0
 40
0
 40
1
 40
1
 40
1
 40
1
 10
30.059779
 20
24.713992
 30
0.0
 10
30.059779
 20
24.992682
 30
0.0
 10
30.282026
 20
25.214929
 30
0.0
 10
30.560717
 20
25.214929
 30
0.0
  0
SPLINE
  5
1f0
100
AcDbEntity
  8
0
 62
7
100
AcDbSpline
 70
8
 71
3
 72
8
 73
4
 74
0
 40
0
 40
0
 40
0
 40
0
 40
1
 40
1
 40
1
 40
1
 10
30.560717
 20
25.214929
 30
0.0
 10
30.839407
 20
25.214929
 30
0.0
 10
31.061654
 20
24.992682
 30
0.0
 10
31.061654
 20
24.713992
 30
0.0
  0
SPLINE
  5
1f1
100
AcDbEntity
  8
0
 62
7
100
AcDbSpline
 70
8
 71
3
 72
8
 73
4
 74
0
 40
0
 40
0
 40
0
 40
0
 40
1
 40
1
 40
1
 40
1
 10
31.061654
 20
24.713992
 30
0.0
 10
31.061654
 20
24.435301
 30
0.0
 10
30.835880
 20
24.213054
 30
0.0
 10
30.560717
 20
24.213054
 30
0.0
  0
SPLINE
  5
1f2
100
AcDbEntity
  8
0
 62
7
100
AcDbSpline
 70
8
 71
3
 72
8
 73
4
 74
0
 40
0
 40
0
 40
0
 40
0
 40
1
 40
1
 40
1
 40
1
 10
30.560717
 20
24.213054
 30
0.0
 10
30.285554
 20
24.213054
 30
0.0
 10
30.059779
 20
24.435301
 30
0.0
 10
30.059779
 20
24.713992
 30
0.0
  0
LWPOLYLINE
  5
1f3
100
AcDbEntity
  8
0
 62
7
100
AcDbPolyline
 90
1
 70
1
 10
30.059779
 20
22.713770
 30
0.0
  0
SPLINE
  5
1f4
100
AcDbEntity
  8
0
 62
7
100
AcDbSpline
 70
8
 71
3
 72
8
 73
4
 74
0
 40
0
 40
0
 40
0
 40
0
 40
1
 40
1
 40
1
 40
1
 10
30.059779
 20
26.714214
 30
0.0
 10
30.059779
 20
26.992905
 30
0.0
 10
30.282026
 20
27.215152
 30
0.0
 10
30.560717
 20
27.215152
 30
0.0
  0
SPLINE
  5
1f5
100
AcDbEntity
  8
0
 62
7
100
AcDbSpline
 70
8
 71
3
 72
8
 73
4
 74
0
 40
0
 40
0
 40
0
 40
0
 40
1
 40
1
 40
1
 40
1
 10
30.560717
 20
27.215152
 30
0.0
 10
30.839407
 20
27.215152
 30
0.0
 10
31.061654
 20
26.992905
 30
0.0
 10
31.061654
 20
26.714214
 30
0.0
  0
SPLINE
  5
1f6
100
AcDbEntity
  8
0
 62
7
100
AcDbSpline
 70
8
 71
3
 72
8
 73
4
 74
0
 40
0
 40
0
 40
0
 40
0
 40
1
 40
1
 40
1
 40
1
 10
31.061654
 20
26.714214
 30
0.0
 10
31.061654
 20
26.435524
 30
0.0
 10
30.835880
 20
26.213277
 30
0.0
 10
30.560717
 20
26.213277
 30
0.0
  0
SPLINE
  5
1f7
100
AcDbEntity
  8
0
 62
7
100
AcDbSpline
 70
8
 71
3
 72
8
 73
4
 74
0
 40
0
 40
0
 40
0
 40
0
 40
1
 40
1
 40
1
 40
1
 10
30.560717
 20
26.213277
 30
0.0
 10
30.285554
 20
26.213277
 30
0.0
 10
30.059779
 20
26.435524
 30
0.0
 10
30.059779
 20
26.714214
 30
0.0
  0
LWPOLYLINE
  5
1f8
100
AcDbEntity
  8
0
 62
7
100
AcDbPolyline
 90
1
 70
1
 10
30.059779
 20
24.713992
 30
0.0
  0
SPLINE
  5
1f9
100
AcDbEntity
  8
0
 62
7
100
AcDbSpline
 70
8
 71
3
 72
8
 73
4
 74
0
 40
0
 40
0
 40
0
 40
0
 40
1
 40
1
 40
1
 40
1
 10
30.059779
 20
28.714437
 30
0.0
 10
30.059779
 20
28.993127
 30
0.0
 10
30.282026
 20
29.215374
 30
0.0
 10
30.560717
 20
29.215374
 30
0.0
  0
SPLINE
  5
1fa
100
AcDbEntity
  8
0
 62
7
100
AcDbSpline
 70
8
 71
3
 72
8
 73
4
 74
0
 40
0
 40
0
 40
0
 40
0
 40
1
 40
1
 40
1
 40
1
 10
30.560717
 20
29.215374
 30
0.0
 10
30.839407
 20
29.215374
 30
0.0
 10
31.061654
 20
28.993127
 30
0.0
 10
31.061654
 20
28.714437
 30
0.0
  0
SPLINE
  5
1fb
100
AcDbEntity
  8
0
 62
7
100
AcDbSpline
 70
8
 71
3
 72
8
 73
4
 74
0
 40
0
 40
0
 40
0
 40
0
 40
1
 40
1
 40
1
 40
1
 10
31.061654
 20
28.714437
 30
0.0
 10
31.061654
 20
28.435746
 30
0.0
 10
30.835880
 20
28.213499
 30
0.0
 10
30.560717
 20
28.213499
 30
0.0
  0
SPLINE
  5
1fc
100
AcDbEntity
  8
0
 62
7
100
AcDbSpline
 70
8
 71
3
 72
8
 73
4
 74
0
 40
0
 40
0
 40
0
 40
0
 40
1
 40
1
 40
1
 40
1
 10
30.560717
 20
28.213499
 30
0.0
 10
30.285554
 20
28.213499
 30
0.0
 10
30.059779
 20
28.435746
 30
0.0
 10
30.059779
 20
28.714437
 30
0.0
  0
LWPOLYLINE
  5
1fd
100
AcDbEntity
  8
0
 62
7
100
AcDbPolyline
 90
1
 70
1
 10
30.059779
 20
26.714214
 30
0.0
  0
SPLINE
  5
1fe
100
AcDbEntity
  8
0
 62
7
100
AcDbSpline
 70
8
 71
3
 72
8
 73
4
 74
0
 40
0
 40
0
 40
0
 40
0
 40
1
 40
1
 40
1
 40
1
 10
30.059779
 20
30.714659
 30
0.0
 10
30.059779
 20
30.993350
 30
0.0
 10
30.282026
 20
31.215597
 30
0.0
 10
30.560717
 20
31.215597
 30
0.0
  0
SPLINE
  5
1ff
100
AcDbEntity
  8
0
 62
7
100
AcDbSpline
 70
8
 71
3
 72
8
 73
4
 74
0
 40
0
 40
0
 40
0
 40
0
 40
1
 40
1
 40
1
 40
1
 10
30.560717
 20
31.215597
 30
0.0
 10
30.839407
 20
31.215597
 30
0.0
 10
31.061654
 20
30.993350
 30
0.0
 10
31.061654
 20
30.714659
 30
0.0
  0
SPLINE
  5
200
100
AcDbEntity
  8
0
 62
7
100
AcDbSpline
 70
8
 71
3
 72
8
 73
4
 74
0
 40
0
 40
0
 40
0
 40
0
 40
1
 40
1
 40
1
 40
1
 10
31.061654
 20
30.714659
 30
0.0
 10
31.061654
 20
30.435968
 30
0.0
 10
30.835880
 20
30.213721
 30
0.0
 10
30.560717
 20
30.213721
 30
0.0
  0
SPLINE
  5
201
100
AcDbEntity
  8
0
 62
7
100
AcDbSpline
 70
8
 71
3
 72
8
 73
4
 74
0
 40
0
 40
0
 40
0
 40
0
 40
1
 40
1
 40
1
 40
1
 10
30.560717
 20
30.213721
 30
0.0
 10
30.285554
 20
30.213721
 30
0.0
 10
30.059779
 20
30.435968
 30
0.0
 10
30.059779
 20
30.714659
 30
0.0
  0
LWPOLYLINE
  5
202
100
AcDbEntity
  8
0
 62
7
100
AcDbPolyline
 90
1
 70
1
 10
30.059779
 20
28.714437
 30
0.0
  0
SPLINE
  5
203
100
AcDbEntity
  8
0
 62
7
100
AcDbSpline
 70
8
 71
3
 72
8
 73
4
 74
0
 40
0
 40
0
 40
0
 40
0
 40
1
 40
1
 40
1
 40
1
 10
28.059557
 20
22.713770
 30
0.0
 10
28.059557
 20
22.992460
 30
0.0
 10
28.281804
 20
23.214707
 30
0.0
 10
28.560494
 20
23.214707
 30
0.0
  0
SPLINE
  5
204
100
AcDbEntity
  8
0
 62
7
100
AcDbSpline
 70
8
 71
3
 72
8
 73
4
 74
0
 40
0
 40
0
 40
0
 40
0
 40
1
 40
1
 40
1
 40
1
 10
28.560494
 20
23.214707
 30
0.0
 10
28.839185
 20
23.214707
 30
0.0
 10
29.061432
 20
22.992460
 30
0.0
 10
29.061432
 20
22.713770
 30
0.0
  0
SPLINE
  5
205
100
AcDbEntity
  8
0
 62
7
100
AcDbSpline
 70
8
 71
3
 72
8
 73
4
 74
0
 40
0
 40
0
 40
0
 40
0
 40
1
 40
1
 40
1
 40
1
 10
29.061432
 20
22.713770
 30
0.0
 10
29.061432
 20
22.435079
 30
0.0
 10
28.835657
 20
22.212832
 30
0.0
 10
28.560494
 20
22.212832
 30
0.0
  0
SPLINE
  5
206
100
AcDbEntity
  8
0
 62
7
100
AcDbSpline
 70
8
 71
3
 72
8
 73
4
 74
0
 40
0
 40
0
 40
0
 40
0
 40
1
 40
1
 40
1
 40
1
 10
28.560494
 20
22.212832
 30
0.0
 10
28.285331
 20
22.212832
 30
0.0
 10
28.059557
 20
22.435079
 30
0.0
 10
28.059557
 20
22.713770
 30
0.0
  0
LWPOLYLINE
  5
207
100
AcDbEntity
  8
0
 62
7
100
AcDbPolyline
 90
1
 70
1
 10
30.059779
 20
30.714659
 30
0.0
  0
SPLINE
  5
208
100
AcDbEntity
  8
0
 62
7
100
AcDbSpline
 70
8
 71
3
 72
8
 73
4
 74
0
 40
0
 40
0
 40
0
 40
0
 40
1
 40
1
 40
1
 40
1
 10
28.059557
 20
24.713992
 30
0.0
 10
28.059557
 20
24.992682
 30
0.0
 10
28.281804
 20
25.214929
 30
0.0
 10
28.560494
 20
25.214929
 30
0.0
  0
SPLINE
  5
209
100
AcDbEntity
  8
0
 62
7
100
AcDbSpline
 70
8
 71
3
 72
8
 73
4
 74
0
 40
0
 40
0
 40
0
 40
0
 40
1
 40
1
 40
1
 40
1
 10
28.560494
 20
25.214929
 30
0.0
 10
28.839185
 20
25.214929
 30
0.0
 10
29.061432
 20
24.992682
 30
0.0
 10
29.061432
 20
24.713992
 30
0.0
  0
SPLINE
  5
20a
100
AcDbEntity
  8
0
 62
7
100
AcDbSpline
 70
8
 71
3
 72
8
 73
4
 74
0
 40
0
 40
0
 40
0
 40
0
 40
1
 40
1
 40
1
 40
1
 10
29.061432
 20
24.713992
 30
0.0
 10
29.061432
 20
24.435301
 30
0.0
 10
28.835657
 20
24.213054
 30
0.0
 10
28.560494
 20
24.213054
 30
0.0
  0
SPLINE
  5
20b
100
AcDbEntity
  8
0
 62
7
100
AcDbSpline
 70
8
 71
3
 72
8
 73
4
 74
0
 40
0
 40
0
 40
0
 40
0
 40
1
 40
1
 40
1
 40
1
 10
28.560494
 20
24.213054
 30
0.0
 10
28.285331
 20
24.213054
 30
0.0
 10
28.059557
 20
24.435301
 30
0.0
 10
28.059557
 20
24.713992
 30
0.0
  0
LWPOLYLINE
  5
20c
100
AcDbEntity
  8
0
 62
7
100
AcDbPolyline
 90
1
 70
1
 10
28.059557
 20
22.713770
 30
0.0
  0
SPLINE
  5
20d
100
AcDbEntity
  8
0
 62
7
100
AcDbSpline
 70
8
 71
3
 72
8
 73
4
 74
0
 40
0
 40
0
 40
0
 40
0
 40
1
 40
1
 40
1
 40
1
 10
28.059557
 20
26.714214
 30
0.0
 10
28.059557
 20
26.992905
 30
0.0
 10
28.281804
 20
27.215152
 30
0.0
 10
28.560494
 20
27.215152
 30
0.0
  0
SPLINE
  5
20e
100
AcDbEntity
  8
0
 62
7
100
AcDbSpline
 70
8
 71
3
 72
8
 73
4
 74
0
 40
0
 40
0
 40
0
 40
0
 40
1
 40
1
 40
1
 40
1
 10
28.560494
 20
27.215152
 30
0.0
 10
28.839185
 20
27.215152
 30
0.0
 10
29.061432
 20
26.992905
 30
0.0
 10
29.061432
 20
26.714214
 30
0.0
  0
SPLINE
  5
20f
100
AcDbEntity
  8
0
 62
7
100
AcDbSpline
 70
8
 71
3
 72
8
 73
4
 74
0
 40
0
 40
0
 40
0
 40
0
 40
1
 40
1
 40
1
 40
1
 10
29.061432
 20
26.714214
 30
0.0
 10
29.061432
 20
26.435524
 30
0.0
 10
28.835657
 20
26.213277
 30
0.0
 10
28.560494
 20
26.213277
 30
0.0
  0
SPLINE
  5
210
100
AcDbEntity
  8
0
 62
7
100
AcDbSpline
 70
8
 71
3
 72
8
 73
4
 74
0
 40
0
 40
0
 40
0
 40
0
 40
1
 40
1
 40
1
 40
1
 10
28.560494
 20
26.213277
 30
0.0
 10
28.285331
 20
26.213277
 30
0.0
 10
28.059557
 20
26.435524
 30
0.0
 10
28.059557
 20
26.714214
 30
0.0
  0
LWPOLYLINE
  5
211
100
AcDbEntity
  8
0
 62
7
100
AcDbPolyline
 90
1
 70
1
 10
28.059557
 20
24.713992
 30
0.0
  0
SPLINE
  5
212
100
AcDbEntity
  8
0
 62
7
100
AcDbSpline
 70
8
 71
3
 72
8
 73
4
 74
0
 40
0
 40
0
 40
0
 40
0
 40
1
 40
1
 40
1
 40
1
 10
28.059557
 20
28.714437
 30
0.0
 10
28.059557
 20
28.993127
 30
0.0
 10
28.281804
 20
29.215374
 30
0.0
 10
28.560494
 20
29.215374
 30
0.0
  0
SPLINE
  5
213
100
AcDbEntity
  8
0
 62
7
100
AcDbSpline
 70
8
 71
3
 72
8
 73
4
 74
0
 40
0
 40
0
 40
0
 40
0
 40
1
 40
1
 40
1
 40
1
 10
28.560494
 20
29.215374
 30
0.0
 10
28.839185
 20
29.215374
 30
0.0
 10
29.061432
 20
28.993127
 30
0.0
 10
29.061432
 20
28.714437
 30
0.0
  0
SPLINE
  5
214
100
AcDbEntity
  8
0
 62
7
100
AcDbSpline
 70
8
 71
3
 72
8
 73
4
 74
0
 40
0
 40
0
 40
0
 40
0
 40
1
 40
1
 40
1
 40
1
 10
29.061432
 20
28.714437
 30
0.0
 10
29.061432
 20
28.435746
 30
0.0
 10
28.835657
 20
28.213499
 30
0.0
 10
28.560494
 20
28.213499
 30
0.0
  0
SPLINE
  5
215
100
AcDbEntity
  8
0
 62
7
100
AcDbSpline
 70
8
 71
3
 72
8
 73
4
 74
0
 40
0
 40
0
 40
0
 40
0
 40
1
 40
1
 40
1
 40
1
 10
28.560494
 20
28.213499
 30
0.0
 10
28.285331
 20
28.213499
 30
0.0
 10
28.059557
 20
28.435746
 30
0.0
 10
28.059557
 20
28.714437
 30
0.0
  0
LWPOLYLINE
  5
216
100
AcDbEntity
  8
0
 62
7
100
AcDbPolyline
 90
1
 70
1
 10
28.059557
 20
26.714214
 30
0.0
  0
SPLINE
  5
217
100
AcDbEntity
  8
0
 62
7
100
AcDbSpline
 70
8
 71
3
 72
8
 73
4
 74
0
 40
0
 40
0
 40
0
 40
0
 40
1
 40
1
 40
1
 40
1
 10
28.059557
 20
30.714659
 30
0.0
 10
28.059557
 20
30.993350
 30
0.0
 10
28.281804
 20
31.215597
 30
0.0
 10
28.560494
 20
31.215597
 30
0.0
  0
SPLINE
  5
218
100
AcDbEntity
  8
0
 62
7
100
AcDbSpline
 70
8
 71
3
 72
8
 73
4
 74
0
 40
0
 40
0
 40
0
 40
0
 40
1
 40
1
 40
1
 40
1
 10
28.560494
 20
31.215597
 30
0.0
 10
28.839185
 20
31.215597
 30
0.0
 10
29.061432
 20
30.993350
 30
0.0
 10
29.061432
 20
30.714659
 30
0.0
  0
SPLINE
  5
219
100
AcDbEntity
  8
0
 62
7
100
AcDbSpline
 70
8
 71
3
 72
8
 73
4
 74
0
 40
0
 40
0
 40
0
 40
0
 40
1
 40
1
 40
1
 40
1
 10
29.061432
 20
30.714659
 30
0.0
 10
29.061432
 20
30.435968
 30
0.0
 10
28.835657
 20
30.213721
 30
0.0
 10
28.560494
 20
30.213721
 30
0.0
  0
SPLINE
  5
21a
100
AcDbEntity
  8
0
 62
7
100
AcDbSpline
 70
8
 71
3
 72
8
 73
4
 74
0
 40
0
 40
0
 40
0
 40
0
 40
1
 40
1
 40
1
 40
1
 10
28.560494
 20
30.213721
 30
0.0
 10
28.285331
 20
30.213721
 30
0.0
 10
28.059557
 20
30.435968
 30
0.0
 10
28.059557
 20
30.714659
 30
0.0
  0
LWPOLYLINE
  5
21b
100
AcDbEntity
  8
0
 62
7
100
AcDbPolyline
 90
1
 70
1
 10
28.059557
 20
28.714437
 30
0.0
  0
SPLINE
  5
21c
100
AcDbEntity
  8
0
 62
7
100
AcDbSpline
 70
8
 71
3
 72
8
 73
4
 74
0
 40
0
 40
0
 40
0
 40
0
 40
1
 40
1
 40
1
 40
1
 10
26.059334
 20
22.713770
 30
0.0
 10
26.059334
 20
22.992460
 30
0.0
 10
26.281581
 20
23.214707
 30
0.0
 10
26.560272
 20
23.214707
 30
0.0
  0
SPLINE
  5
21d
100
AcDbEntity
  8
0
 62
7
100
AcDbSpline
 70
8
 71
3
 72
8
 73
4
 74
0
 40
0
 40
0
 40
0
 40
0
 40
1
 40
1
 40
1
 40
1
 10
26.560272
 20
23.214707
 30
0.0
 10
26.838963
 20
23.214707
 30
0.0
 10
27.061209
 20
22.992460
 30
0.0
 10
27.061209
 20
22.713770
 30
0.0
  0
SPLINE
  5
21e
100
AcDbEntity
  8
0
 62
7
100
AcDbSpline
 70
8
 71
3
 72
8
 73
4
 74
0
 40
0
 40
0
 40
0
 40
0
 40
1
 40
1
 40
1
 40
1
 10
27.061209
 20
22.713770
 30
0.0
 10
27.061209
 20
22.435079
 30
0.0
 10
26.835435
 20
22.212832
 30
0.0
 10
26.560272
 20
22.212832
 30
0.0
  0
SPLINE
  5
21f
100
AcDbEntity
  8
0
 62
7
100
AcDbSpline
 70
8
 71
3
 72
8
 73
4
 74
0
 40
0
 40
0
 40
0
 40
0
 40
1
 40
1
 40
1
 40
1
 10
26.560272
 20
22.212832
 30
0.0
 10
26.285109
 20
22.212832
 30
0.0
 10
26.059334
 20
22.435079
 30
0.0
 10
26.059334
 20
22.713770
 30
0.0
  0
LWPOLYLINE
  5
220
100
AcDbEntity
  8
0
 62
7
100
AcDbPolyline
 90
1
 70
1
 10
28.059557
 20
30.714659
 30
0.0
  0
SPLINE
  5
221
100
AcDbEntity
  8
0
 62
7
100
AcDbSpline
 70
8
 71
3
 72
8
 73
4
 74
0
 40
0
 40
0
 40
0
 40
0
 40
1
 40
1
 40
1
 40
1
 10
26.059334
 20
24.713992
 30
0.0
 10
26.059334
 20
24.992682
 30
0.0
 10
26.281581
 20
25.214929
 30
0.0
 10
26.560272
 20
25.214929
 30
0.0
  0
SPLINE
  5
222
100
AcDbEntity
  8
0
 62
7
100
AcDbSpline
 70
8
 71
3
 72
8
 73
4
 74
0
 40
0
 40
0
 40
0
 40
0
 40
1
 40
1
 40
1
 40
1
 10
26.560272
 20
25.214929
 30
0.0
 10
26.838963
 20
25.214929
 30
0.0
 10
27.061209
 20
24.992682
 30
0.0
 10
27.061209
 20
24.713992
 30
0.0
  0
SPLINE
  5
223
100
AcDbEntity
  8
0
 62
7
100
AcDbSpline
 70
8
 71
3
 72
8
 73
4
 74
0
 40
0
 40
0
 40
0
 40
0
 40
1
 40
1
 40
1
 40
1
 10
27.061209
 20
24.713992
 30
0.0
 10
27.061209
 20
24.435301
 30
0.0
 10
26.835435
 20
24.213054
 30
0.0
 10
26.560272
 20
24.213054
 30
0.0
  0
SPLINE
  5
224
100
AcDbEntity
  8
0
 62
7
100
AcDbSpline
 70
8
 71
3
 72
8
 73
4
 74
0
 40
0
 40
0
 40
0
 40
0
 40
1
 40
1
 40
1
 40
1
 10
26.560272
 20
24.213054
 30
0.0
 10
26.285109
 20
24.213054
 30
0.0
 10
26.059334
 20
24.435301
 30
0.0
 10
26.059334
 20
24.713992
 30
0.0
  0
LWPOLYLINE
  5
225
100
AcDbEntity
  8
0
 62
7
100
AcDbPolyline
 90
1
 70
1
 10
26.059334
 20
22.713770
 30
0.0
  0
SPLINE
  5
226
100
AcDbEntity
  8
0
 62
7
100
AcDbSpline
 70
8
 71
3
 72
8
 73
4
 74
0
 40
0
 40
0
 40
0
 40
0
 40
1
 40
1
 40
1
 40
1
 10
26.059334
 20
26.714214
 30
0.0
 10
26.059334
 20
26.992905
 30
0.0
 10
26.281581
 20
27.215152
 30
0.0
 10
26.560272
 20
27.215152
 30
0.0
  0
SPLINE
  5
227
100
AcDbEntity
  8
0
 62
7
100
AcDbSpline
 70
8
 71
3
 72
8
 73
4
 74
0
 40
0
 40
0
 40
0
 40
0
 40
1
 40
1
 40
1
 40
1
 10
26.560272
 20
27.215152
 30
0.0
 10
26.838963
 20
27.215152
 30
0.0
 10
27.061209
 20
26.992905
 30
0.0
 10
27.061209
 20
26.714214
 30
0.0
  0
SPLINE
  5
228
100
AcDbEntity
  8
0
 62
7
100
AcDbSpline
 70
8
 71
3
 72
8
 73
4
 74
0
 40
0
 40
0
 40
0
 40
0
 40
1
 40
1
 40
1
 40
1
 10
27.061209
 20
26.714214
 30
0.0
 10
27.061209
 20
26.435524
 30
0.0
 10
26.835435
 20
26.213277
 30
0.0
 10
26.560272
 20
26.213277
 30
0.0
  0
SPLINE
  5
229
100
AcDbEntity
  8
0
 62
7
100
AcDbSpline
 70
8
 71
3
 72
8
 73
4
 74
0
 40
0
 40
0
 40
0
 40
0
 40
1
 40
1
 40
1
 40
1
 10
26.560272
 20
26.213277
 30
0.0
 10
26.285109
 20
26.213277
 30
0.0
 10
26.059334
 20
26.435524
 30
0.0
 10
26.059334
 20
26.714214
 30
0.0
  0
LWPOLYLINE
  5
22a
100
AcDbEntity
  8
0
 62
7
100
AcDbPolyline
 90
1
 70
1
 10
26.059334
 20
24.713992
 30
0.0
  0
SPLINE
  5
22b
100
AcDbEntity
  8
0
 62
7
100
AcDbSpline
 70
8
 71
3
 72
8
 73
4
 74
0
 40
0
 40
0
 40
0
 40
0
 40
1
 40
1
 40
1
 40
1
 10
26.059334
 20
28.714437
 30
0.0
 10
26.059334
 20
28.993127
 30
0.0
 10
26.281581
 20
29.215374
 30
0.0
 10
26.560272
 20
29.215374
 30
0.0
  0
SPLINE
  5
22c
100
AcDbEntity
  8
0
 62
7
100
AcDbSpline
 70
8
 71
3
 72
8
 73
4
 74
0
 40
0
 40
0
 40
0
 40
0
 40
1
 40
1
 40
1
 40
1
 10
26.560272
 20
29.215374
 30
0.0
 10
26.838963
 20
29.215374
 30
0.0
 10
27.061209
 20
28.993127
 30
0.0
 10
27.061209
 20
28.714437
 30
0.0
  0
SPLINE
  5
22d
100
AcDbEntity
  8
0
 62
7
100
AcDbSpline
 70
8
 71
3
 72
8
 73
4
 74
0
 40
0
 40
0
 40
0
 40
0
 40
1
 40
1
 40
1
 40
1
 10
27.061209
 20
28.714437
 30
0.0
 10
27.061209
 20
28.435746
 30
0.0
 10
26.835435
 20
28.213499
 30
0.0
 10
26.560272
 20
28.213499
 30
0.0
  0
SPLINE
  5
22e
100
AcDbEntity
  8
0
 62
7
100
AcDbSpline
 70
8
 71
3
 72
8
 73
4
 74
0
 40
0
 40
0
 40
0
 40
0
 40
1
 40
1
 40
1
 40
1
 10
26.560272
 20
28.213499
 30
0.0
 10
26.285109
 20
28.213499
 30
0.0
 10
26.059334
 20
28.435746
 30
0.0
 10
26.059334
 20
28.714437
 30
0.0
  0
LWPOLYLINE
  5
22f
100
AcDbEntity
  8
0
 62
7
100
AcDbPolyline
 90
1
 70
1
 10
26.059334
 20
26.714214
 30
0.0
  0
SPLINE
  5
230
100
AcDbEntity
  8
0
 62
7
100
AcDbSpline
 70
8
 71
3
 72
8
 73
4
 74
0
 40
0
 40
0
 40
0
 40
0
 40
1
 40
1
 40
1
 40
1
 10
26.059334
 20
30.714659
 30
0.0
 10
26.059334
 20
30.993350
 30
0.0
 10
26.281581
 20
31.215597
 30
0.0
 10
26.560272
 20
31.215597
 30
0.0
  0
SPLINE
  5
231
100
AcDbEntity
  8
0
 62
7
100
AcDbSpline
 70
8
 71
3
 72
8
 73
4
 74
0
 40
0
 40
0
 40
0
 40
0
 40
1
 40
1
 40
1
 40
1
 10
26.560272
 20
31.215597
 30
0.0
 10
26.838963
 20
31.215597
 30
0.0
 10
27.061209
 20
30.993350
 30
0.0
 10
27.061209
 20
30.714659
 30
0.0
  0
SPLINE
  5
232
100
AcDbEntity
  8
0
 62
7
100
AcDbSpline
 70
8
 71
3
 72
8
 73
4
 74
0
 40
0
 40
0
 40
0
 40
0
 40
1
 40
1
 40
1
 40
1
 10
27.061209
 20
30.714659
 30
0.0
 10
27.061209
 20
30.435968
 30
0.0
 10
26.835435
 20
30.213721
 30
0.0
 10
26.560272
 20
30.213721
 30
0.0
  0
SPLINE
  5
233
100
AcDbEntity
  8
0
 62
7
100
AcDbSpline
 70
8
 71
3
 72
8
 73
4
 74
0
 40
0
 40
0
 40
0
 40
0
 40
1
 40
1
 40
1
 40
1
 10
26.560272
 20
30.213721
 30
0.0
 10
26.285109
 20
30.213721
 30
0.0
 10
26.059334
 20
30.435968
 30
0.0
 10
26.059334
 20
30.714659
 30
0.0
  0
LWPOLYLINE
  5
234
100
AcDbEntity
  8
0
 62
7
100
AcDbPolyline
 90
1
 70
1
 10
26.059334
 20
28.714437
 30
0.0
  0
SPLINE
  5
235
100
AcDbEntity
  8
0
 62
7
100
AcDbSpline
 70
8
 71
3
 72
8
 73
4
 74
0
 40
0
 40
0
 40
0
 40
0
 40
1
 40
1
 40
1
 40
1
 10
24.059112
 20
22.713770
 30
0.0
 10
24.059112
 20
22.992460
 30
0.0
 10
24.281359
 20
23.214707
 30
0.0
 10
24.560050
 20
23.214707
 30
0.0
  0
SPLINE
  5
236
100
AcDbEntity
  8
0
 62
7
100
AcDbSpline
 70
8
 71
3
 72
8
 73
4
 74
0
 40
0
 40
0
 40
0
 40
0
 40
1
 40
1
 40
1
 40
1
 10
24.560050
 20
23.214707
 30
0.0
 10
24.838740
 20
23.214707
 30
0.0
 10
25.060987
 20
22.992460
 30
0.0
 10
25.060987
 20
22.713770
 30
0.0
  0
SPLINE
  5
237
100
AcDbEntity
  8
0
 62
7
100
AcDbSpline
 70
8
 71
3
 72
8
 73
4
 74
0
 40
0
 40
0
 40
0
 40
0
 40
1
 40
1
 40
1
 40
1
 10
25.060987
 20
22.713770
 30
0.0
 10
25.060987
 20
22.435079
 30
0.0
 10
24.835212
 20
22.212832
 30
0.0
 10
24.560050
 20
22.212832
 30
0.0
  0
SPLINE
  5
238
100
AcDbEntity
  8
0
 62
7
100
AcDbSpline
 70
8
 71
3
 72
8
 73
4
 74
0
 40
0
 40
0
 40
0
 40
0
 40
1
 40
1
 40
1
 40
1
 10
24.560050
 20
22.212832
 30
0.0
 10
24.284887
 20
22.212832
 30
0.0
 10
24.059112
 20
22.435079
 30
0.0
 10
24.059112
 20
22.713770
 30
0.0
  0
LWPOLYLINE
  5
239
100
AcDbEntity
  8
0
 62
7
100
AcDbPolyline
 90
1
 70
1
 10
26.059334
 20
30.714659
 30
0.0
  0
SPLINE
  5
23a
100
AcDbEntity
  8
0
 62
7
100
AcDbSpline
 70
8
 71
3
 72
8
 73
4
 74
0
 40
0
 40
0
 40
0
 40
0
 40
1
 40
1
 40
1
 40
1
 10
24.059112
 20
24.713992
 30
0.0
 10
24.059112
 20
24.992682
 30
0.0
 10
24.281359
 20
25.214929
 30
0.0
 10
24.560050
 20
25.214929
 30
0.0
  0
SPLINE
  5
23b
100
AcDbEntity
  8
0
 62
7
100
AcDbSpline
 70
8
 71
3
 72
8
 73
4
 74
0
 40
0
 40
0
 40
0
 40
0
 40
1
 40
1
 40
1
 40
1
 10
24.560050
 20
25.214929
 30
0.0
 10
24.838740
 20
25.214929
 30
0.0
 10
25.060987
 20
24.992682
 30
0.0
 10
25.060987
 20
24.713992
 30
0.0
  0
SPLINE
  5
23c
100
AcDbEntity
  8
0
 62
7
100
AcDbSpline
 70
8
 71
3
 72
8
 73
4
 74
0
 40
0
 40
0
 40
0
 40
0
 40
1
 40
1
 40
1
 40
1
 10
25.060987
 20
24.713992
 30
0.0
 10
25.060987
 20
24.435301
 30
0.0
 10
24.835212
 20
24.213054
 30
0.0
 10
24.560050
 20
24.213054
 30
0.0
  0
SPLINE
  5
23d
100
AcDbEntity
  8
0
 62
7
100
AcDbSpline
 70
8
 71
3
 72
8
 73
4
 74
0
 40
0
 40
0
 40
0
 40
0
 40
1
 40
1
 40
1
 40
1
 10
24.560050
 20
24.213054
 30
0.0
 10
24.284887
 20
24.213054
 30
0.0
 10
24.059112
 20
24.435301
 30
0.0
 10
24.059112
 20
24.713992
 30
0.0
  0
LWPOLYLINE
  5
23e
100
AcDbEntity
  8
0
 62
7
100
AcDbPolyline
 90
1
 70
1
 10
24.059112
 20
22.713770
 30
0.0
  0
SPLINE
  5
23f
100
AcDbEntity
  8
0
 62
7
100
AcDbSpline
 70
8
 71
3
 72
8
 73
4
 74
0
 40
0
 40
0
 40
0
 40
0
 40
1
 40
1
 40
1
 40
1
 10
24.059112
 20
26.714214
 30
0.0
 10
24.059112
 20
26.992905
 30
0.0
 10
24.281359
 20
27.215152
 30
0.0
 10
24.560050
 20
27.215152
 30
0.0
  0
SPLINE
  5
240
100
AcDbEntity
  8
0
 62
7
100
AcDbSpline
 70
8
 71
3
 72
8
 73
4
 74
0
 40
0
 40
0
 40
0
 40
0
 40
1
 40
1
 40
1
 40
1
 10
24.560050
 20
27.215152
 30
0.0
 10
24.838740
 20
27.215152
 30
0.0
 10
25.060987
 20
26.992905
 30
0.0
 10
25.060987
 20
26.714214
 30
0.0
  0
SPLINE
  5
241
100
AcDbEntity
  8
0
 62
7
100
AcDbSpline
 70
8
 71
3
 72
8
 73
4
 74
0
 40
0
 40
0
 40
0
 40
0
 40
1
 40
1
 40
1
 40
1
 10
25.060987
 20
26.714214
 30
0.0
 10
25.060987
 20
26.435524
 30
0.0
 10
24.835212
 20
26.213277
 30
0.0
 10
24.560050
 20
26.213277
 30
0.0
  0
SPLINE
  5
242
100
AcDbEntity
  8
0
 62
7
100
AcDbSpline
 70
8
 71
3
 72
8
 73
4
 74
0
 40
0
 40
0
 40
0
 40
0
 40
1
 40
1
 40
1
 40
1
 10
24.560050
 20
26.213277
 30
0.0
 10
24.284887
 20
26.213277
 30
0.0
 10
24.059112
 20
26.435524
 30
0.0
 10
24.059112
 20
26.714214
 30
0.0
  0
LWPOLYLINE
  5
243
100
AcDbEntity
  8
0
 62
7
100
AcDbPolyline
 90
1
 70
1
 10
24.059112
 20
24.713992
 30
0.0
  0
SPLINE
  5
244
100
AcDbEntity
  8
0
 62
7
100
AcDbSpline
 70
8
 71
3
 72
8
 73
4
 74
0
 40
0
 40
0
 40
0
 40
0
 40
1
 40
1
 40
1
 40
1
 10
24.059112
 20
28.714437
 30
0.0
 10
24.059112
 20
28.993127
 30
0.0
 10
24.281359
 20
29.215374
 30
0.0
 10
24.560050
 20
29.215374
 30
0.0
  0
SPLINE
  5
245
100
AcDbEntity
  8
0
 62
7
100
AcDbSpline
 70
8
 71
3
 72
8
 73
4
 74
0
 40
0
 40
0
 40
0
 40
0
 40
1
 40
1
 40
1
 40
1
 10
24.560050
 20
29.215374
 30
0.0
 10
24.838740
 20
29.215374
 30
0.0
 10
25.060987
 20
28.993127
 30
0.0
 10
25.060987
 20
28.714437
 30
0.0
  0
SPLINE
  5
246
100
AcDbEntity
  8
0
 62
7
100
AcDbSpline
 70
8
 71
3
 72
8
 73
4
 74
0
 40
0
 40
0
 40
0
 40
0
 40
1
 40
1
 40
1
 40
1
 10
25.060987
 20
28.714437
 30
0.0
 10
25.060987
 20
28.435746
 30
0.0
 10
24.835212
 20
28.213499
 30
0.0
 10
24.560050
 20
28.213499
 30
0.0
  0
SPLINE
  5
247
100
AcDbEntity
  8
0
 62
7
100
AcDbSpline
 70
8
 71
3
 72
8
 73
4
 74
0
 40
0
 40
0
 40
0
 40
0
 40
1
 40
1
 40
1
 40
1
 10
24.560050
 20
28.213499
 30
0.0
 10
24.284887
 20
28.213499
 30
0.0
 10
24.059112
 20
28.435746
 30
0.0
 10
24.059112
 20
28.714437
 30
0.0
  0
LWPOLYLINE
  5
248
100
AcDbEntity
  8
0
 62
7
100
AcDbPolyline
 90
1
 70
1
 10
24.059112
 20
26.714214
 30
0.0
  0
SPLINE
  5
249
100
AcDbEntity
  8
0
 62
7
100
AcDbSpline
 70
8
 71
3
 72
8
 73
4
 74
0
 40
0
 40
0
 40
0
 40
0
 40
1
 40
1
 40
1
 40
1
 10
24.059112
 20
30.714659
 30
0.0
 10
24.059112
 20
30.993350
 30
0.0
 10
24.281359
 20
31.215597
 30
0.0
 10
24.560050
 20
31.215597
 30
0.0
  0
SPLINE
  5
24a
100
AcDbEntity
  8
0
 62
7
100
AcDbSpline
 70
8
 71
3
 72
8
 73
4
 74
0
 40
0
 40
0
 40
0
 40
0
 40
1
 40
1
 40
1
 40
1
 10
24.560050
 20
31.215597
 30
0.0
 10
24.838740
 20
31.215597
 30
0.0
 10
25.060987
 20
30.993350
 30
0.0
 10
25.060987
 20
30.714659
 30
0.0
  0
SPLINE
  5
24b
100
AcDbEntity
  8
0
 62
7
100
AcDbSpline
 70
8
 71
3
 72
8
 73
4
 74
0
 40
0
 40
0
 40
0
 40
0
 40
1
 40
1
 40
1
 40
1
 10
25.060987
 20
30.714659
 30
0.0
 10
25.060987
 20
30.435968
 30
0.0
 10
24.835212
 20
30.213721
 30
0.0
 10
24.560050
 20
30.213721
 30
0.0
  0
SPLINE
  5
24c
100
AcDbEntity
  8
0
 62
7
100
AcDbSpline
 70
8
 71
3
 72
8
 73
4
 74
0
 40
0
 40
0
 40
0
 40
0
 40
1
 40
1
 40
1
 40
1
 10
24.560050
 20
30.213721
 30
0.0
 10
24.284887
 20
30.213721
 30
0.0
 10
24.059112
 20
30.435968
 30
0.0
 10
24.059112
 20
30.714659
 30
0.0
  0
LWPOLYLINE
  5
24d
100
AcDbEntity
  8
0
 62
7
100
AcDbPolyline
 90
1
 70
1
 10
24.059112
 20
28.714437
 30
0.0
  0
SPLINE
  5
24e
100
AcDbEntity
  8
0
 62
7
100
AcDbSpline
 70
8
 71
3
 72
8
 73
4
 74
0
 40
0
 40
0
 40
0
 40
0
 40
1
 40
1
 40
1
 40
1
 10
8.205498
 20
20.537161
 30
0.0
 10
8.205498
 20
19.955085
 30
0.0
 10
7.736310
 20
19.485897
 30
0.0
 10
7.154234
 20
19.485897
 30
0.0
  0
SPLINE
  5
24f
100
AcDbEntity
  8
0
 62
7
100
AcDbSpline
 70
8
 71
3
 72
8
 73
4
 74
0
 40
0
 40
0
 40
0
 40
0
 40
1
 40
1
 40
1
 40
1
 10
7.154234
 20
19.485897
 30
0.0
 10
6.572159
 20
19.485897
 30
0.0
 10
6.102971
 20
19.955085
 30
0.0
 10
6.102971
 20
20.537161
 30
0.0
  0
SPLINE
  5
250
100
AcDbEntity
  8
0
 62
7
100
AcDbSpline
 70
8
 71
3
 72
8
 73
4
 74
0
 40
0
 40
0
 40
0
 40
0
 40
1
 40
1
 40
1
 40
1
 10
6.102971
 20
20.537161
 30
0.0
 10
6.102971
 20
21.119236
 30
0.0
 10
6.575687
 20
21.588424
 30
0.0
 10
7.154234
 20
21.588424
 30
0.0
  0
SPLINE
  5
251
100
AcDbEntity
  8
0
 62
7
100
AcDbSpline
 70
8
 71
3
 72
8
 73
4
 74
0
 40
0
 40
0
 40
0
 40
0
 40
1
 40
1
 40
1
 40
1
 10
7.154234
 20
21.588424
 30
0.0
 10
7.732782
 20
21.588424
 30
0.0
 10
8.205498
 20
21.119236
 30
0.0
 10
8.205498
 20
20.537161
 30
0.0
  0
LWPOLYLINE
  5
252
100
AcDbEntity
  8
0
 62
7
100
AcDbPolyline
 90
1
 70
1
 10
24.059112
 20
30.714659
 30
0.0
  0
SPLINE
  5
253
100
AcDbEntity
  8
0
 62
7
100
AcDbSpline
 70
8
 71
3
 72
8
 73
4
 74
0
 40
0
 40
0
 40
0
 40
0
 40
1
 40
1
 40
1
 40
1
 10
19.779977
 20
21.309733
 30
0.0
 10
19.779977
 20
20.727658
 30
0.0
 10
19.310789
 20
20.258470
 30
0.0
 10
18.728713
 20
20.258470
 30
0.0
  0
SPLINE
  5
254
100
AcDbEntity
  8
0
 62
7
100
AcDbSpline
 70
8
 71
3
 72
8
 73
4
 74
0
 40
0
 40
0
 40
0
 40
0
 40
1
 40
1
 40
1
 40
1
 10
18.728713
 20
20.258470
 30
0.0
 10
18.146638
 20
20.258470
 30
0.0
 10
17.677450
 20
20.727658
 30
0.0
 10
17.677450
 20
21.309733
 30
0.0
  0
SPLINE
  5
255
100
AcDbEntity
  8
0
 62
7
100
AcDbSpline
 70
8
 71
3
 72
8
 73
4
 74
0
 40
0
 40
0
 40
0
 40
0
 40
1
 40
1
 40
1
 40
1
 10
17.677450
 20
21.309733
 30
0.0
 10
17.677450
 20
21.891809
 30
0.0
 10
18.150166
 20
22.360997
 30
0.0
 10
18.728713
 20
22.360997
 30
0.0
  0
SPLINE
  5
256
100
AcDbEntity
  8
0
 62
7
100
AcDbSpline
 70
8
 71
3
 72
8
 73
4
 74
0
 40
0
 40
0
 40
0
 40
0
 40
1
 40
1
 40
1
 40
1
 10
18.728713
 20
22.360997
 30
0.0
 10
19.307261
 20
22.360997
 30
0.0
 10
19.779977
 20
21.891809
 30
0.0
 10
19.779977
 20
21.309733
 30
0.0
  0
LWPOLYLINE
  5
257
100
AcDbEntity
  8
0
 62
7
100
AcDbPolyline
 90
1
 70
1
 10
8.205498
 20
20.537161
 30
0.0
  0
LWPOLYLINE
  5
258
100
AcDbEntity
  8
0
 62
7
100
AcDbPolyline
 90
1
 70
1
 10
19.779977
 20
21.309733
 30
0.0
  0
SPLINE
  5
259
100
AcDbEntity
  8
0
 62
7
100
AcDbSpline
 70
8
 71
3
 72
8
 73
4
 74
0
 40
0
 40
0
 40
0
 40
0
 40
1
 40
1
 40
1
 40
1
 10
62.514886
 20
84.854717
 30
0.0
 10
62.899409
 20
84.854717
 30
0.0
 10
63.213377
 20
84.544276
 30
0.0
 10
63.213377
 20
84.156226
 30
0.0
  0
LWPOLYLINE
  5
25a
100
AcDbEntity
  8
0
 62
7
100
AcDbPolyline
 90
4
 70
0
 10
111.412739
 20
89.825287
 30
0.0
 10
44.205973
 20
89.825287
 30
0.0
 10
44.191862
 20
84.854717
 30
0.0
 10
62.514886
 20
84.854717
 30
0.0
  0
SPLINE
  5
25b
100
AcDbEntity
  8
0
 62
7
100
AcDbSpline
 70
8
 71
3
 72
8
 73
4
 74
0
 40
0
 40
0
 40
0
 40
0
 40
1
 40
1
 40
1
 40
1
 10
81.508179
 20
81.842036
 30
0.0
 10
81.892702
 20
81.842036
 30
0.0
 10
82.206670
 20
81.531596
 30
0.0
 10
82.206670
 20
81.143546
 30
0.0
  0
LWPOLYLINE
  5
25c
100
AcDbEntity
  8
0
 62
7
100
AcDbPolyline
 90
3
 70
0
 10
63.213377
 20
84.156226
 30
0.0
 10
63.213377
 20
81.842036
 30
0.0
 10
81.508179
 20
81.842036
 30
0.0
  0
SPLINE
  5
25d
100
AcDbEntity
  8
0
 62
7
100
AcDbSpline
 70
8
 71
3
 72
8
 73
4
 74
0
 40
0
 40
0
 40
0
 40
0
 40
1
 40
1
 40
1
 40
1
 10
82.234892
 20
18.699214
 30
0.0
 10
86.842106
 20
16.924766
 30
0.0
 10
91.431681
 20
14.737574
 30
0.0
 10
95.806065
 20
12.211720
 30
0.0
  0
SPLINE
  5
25e
100
AcDbEntity
  8
0
 62
7
100
AcDbSpline
 70
8
 71
3
 72
8
 73
4
 74
0
 40
0
 40
0
 40
0
 40
0
 40
1
 40
1
 40
1
 40
1
 10
95.806065
 20
12.211720
 30
0.0
 10
101.461015
 20
8.945043
 30
0.0
 10
107.041882
 20
4.799961
 30
0.0
 10
112.114757
 20
0.111610
 30
0.0
  0
LWPOLYLINE
  5
25f
100
AcDbEntity
  8
0
 62
7
100
AcDbPolyline
 90
2
 70
0
 10
82.206670
 20
81.143546
 30
0.0
 10
82.234892
 20
18.699214
 30
0.0
  0
SPLINE
  5
260
100
AcDbEntity
  8
0
 62
7
100
AcDbSpline
 70
8
 71
3
 72
8
 73
4
 74
0
 40
0
 40
0
 40
0
 40
0
 40
1
 40
1
 40
1
 40
1
 10
112.114757
 20
89.123269
 30
0.0
 10
112.114757
 20
89.507791
 30
0.0
 10
111.804317
 20
89.821759
 30
0.0
 10
111.416266
 20
89.821759
 30
0.0
  0
LWPOLYLINE
  5
261
100
AcDbEntity
  8
0
 62
7
100
AcDbPolyline
 90
2
 70
0
 10
112.114757
 20
0.111610
 30
0.0
 10
112.114757
 20
89.123269
 30
0.0
  0
SPLINE
  5
262
100
AcDbEntity
  8
0
 62
7
100
AcDbSpline
 70
8
 71
3
 72
8
 73
4
 74
0
 40
0
 40
0
 40
0
 40
0
 40
1
 40
1
 40
1
 40
1
 10
110.559028
 20
87.235934
 30
0.0
 10
110.559028
 20
86.653858
 30
0.0
 10
110.089840
 20
86.184670
 30
0.0
 10
109.507765
 20
86.184670
 30
0.0
  0
SPLINE
  5
263
100
AcDbEntity
  8
0
 62
7
100
AcDbSpline
 70
8
 71
3
 72
8
 73
4
 74
0
 40
0
 40
0
 40
0
 40
0
 40
1
 40
1
 40
1
 40
1
 10
109.507765
 20
86.184670
 30
0.0
 10
108.925690
 20
86.184670
 30
0.0
 10
108.456502
 20
86.653858
 30
0.0
 10
108.456502
 20
87.235934
 30
0.0
  0
SPLINE
  5
264
100
AcDbEntity
  8
0
 62
7
100
AcDbSpline
 70
8
 71
3
 72
8
 73
4
 74
0
 40
0
 40
0
 40
0
 40
0
 40
1
 40
1
 40
1
 40
1
 10
108.456502
 20
87.235934
 30
0.0
 10
108.456502
 20
87.818009
 30
0.0
 10
108.929217
 20
88.287197
 30
0.0
 10
109.507765
 20
88.287197
 30
0.0
  0
SPLINE
  5
265
100
AcDbEntity
  8
0
 62
7
100
AcDbSpline
 70
8
 71
3
 72
8
 73
4
 74
0
 40
0
 40
0
 40
0
 40
0
 40
1
 40
1
 40
1
 40
1
 10
109.507765
 20
88.287197
 30
0.0
 10
110.086312
 20
88.287197
 30
0.0
 10
110.559028
 20
87.818009
 30
0.0
 10
110.559028
 20
87.235934
 30
0.0
  0
LWPOLYLINE
  5
266
100
AcDbEntity
  8
0
 62
7
100
AcDbPolyline
 90
3
 70
0
 10
111.416266
 20
89.821759
 30
0.0
 10
111.416266
 20
89.821759
 30
0.0
 10
111.412739
 20
89.825287
 30
0.0
  0
SPLINE
  5
267
100
AcDbEntity
  8
0
 62
7
100
AcDbSpline
 70
8
 71
3
 72
8
 73
4
 74
0
 40
0
 40
0
 40
0
 40
0
 40
1
 40
1
 40
1
 40
1
 10
108.456502
 20
7.812642
 30
0.0
 10
108.456502
 20
8.394717
 30
0.0
 10
108.925690
 20
8.863905
 30
0.0
 10
109.507765
 20
8.863905
 30
0.0
  0
SPLINE
  5
268
100
AcDbEntity
  8
0
 62
7
100
AcDbSpline
 70
8
 71
3
 72
8
 73
4
 74
0
 40
0
 40
0
 40
0
 40
0
 40
1
 40
1
 40
1
 40
1
 10
109.507765
 20
8.863905
 30
0.0
 10
110.089840
 20
8.863905
 30
0.0
 10
110.559028
 20
8.394717
 30
0.0
 10
110.559028
 20
7.812642
 30
0.0
  0
SPLINE
  5
269
100
AcDbEntity
  8
0
 62
7
100
AcDbSpline
 70
8
 71
3
 72
8
 73
4
 74
0
 40
0
 40
0
 40
0
 40
0
 40
1
 40
1
 40
1
 40
1
 10
110.559028
 20
7.812642
 30
0.0
 10
110.559028
 20
7.230567
 30
0.0
 10
110.086312
 20
6.761379
 30
0.0
 10
109.507765
 20
6.761379
 30
0.0
  0
SPLINE
  5
26a
100
AcDbEntity
  8
0
 62
7
100
AcDbSpline
 70
8
 71
3
 72
8
 73
4
 74
0
 40
0
 40
0
 40
0
 40
0
 40
1
 40
1
 40
1
 40
1
 10
109.507765
 20
6.761379
 30
0.0
 10
108.929217
 20
6.761379
 30
0.0
 10
108.456502
 20
7.230567
 30
0.0
 10
108.456502
 20
7.812642
 30
0.0
  0
LWPOLYLINE
  5
26b
100
AcDbEntity
  8
0
 62
7
100
AcDbPolyline
 90
1
 70
1
 10
110.559028
 20
87.235934
 30
0.0
  0
SPLINE
  5
26c
100
AcDbEntity
  8
0
 62
7
100
AcDbSpline
 70
8
 71
3
 72
8
 73
4
 74
0
 40
0
 40
0
 40
0
 40
0
 40
1
 40
1
 40
1
 40
1
 10
84.905383
 20
29.035460
 30
0.0
 10
84.905383
 20
35.798117
 30
0.0
 10
90.391001
 20
41.283735
 30
0.0
 10
97.153658
 20
41.283735
 30
0.0
  0
SPLINE
  5
26d
100
AcDbEntity
  8
0
 62
7
100
AcDbSpline
 70
8
 71
3
 72
8
 73
4
 74
0
 40
0
 40
0
 40
0
 40
0
 40
1
 40
1
 40
1
 40
1
 10
97.153658
 20
41.283735
 30
0.0
 10
103.916314
 20
41.283735
 30
0.0
 10
109.401933
 20
35.798117
 30
0.0
 10
109.401933
 20
29.035460
 30
0.0
  0
SPLINE
  5
26e
100
AcDbEntity
  8
0
 62
7
100
AcDbSpline
 70
8
 71
3
 72
8
 73
4
 74
0
 40
0
 40
0
 40
0
 40
0
 40
1
 40
1
 40
1
 40
1
 10
109.401933
 20
29.035460
 30
0.0
 10
109.401933
 20
22.272803
 30
0.0
 10
103.919842
 20
16.787185
 30
0.0
 10
97.153658
 20
16.787185
 30
0.0
  0
SPLINE
  5
26f
100
AcDbEntity
  8
0
 62
7
100
AcDbSpline
 70
8
 71
3
 72
8
 73
4
 74
0
 40
0
 40
0
 40
0
 40
0
 40
1
 40
1
 40
1
 40
1
 10
97.153658
 20
16.787185
 30
0.0
 10
90.387473
 20
16.787185
 30
0.0
 10
84.905383
 20
22.272803
 30
0.0
 10
84.905383
 20
29.035460
 30
0.0
  0
LWPOLYLINE
  5
270
100
AcDbEntity
  8
0
 62
7
100
AcDbPolyline
 90
1
 70
1
 10
108.456502
 20
7.812642
 30
0.0
  0
SPLINE
  5
271
100
AcDbEntity
  8
0
 62
7
100
AcDbSpline
 70
8
 71
3
 72
8
 73
4
 74
0
 40
0
 40
0
 40
0
 40
0
 40
1
 40
1
 40
1
 40
1
 10
46.389637
 20
87.179490
 30
0.0
 10
46.389637
 20
87.761565
 30
0.0
 10
46.858825
 20
88.230753
 30
0.0
 10
47.440900
 20
88.230753
 30
0.0
  0
SPLINE
  5
272
100
AcDbEntity
  8
0
 62
7
100
AcDbSpline
 70
8
 71
3
 72
8
 73
4
 74
0
 40
0
 40
0
 40
0
 40
0
 40
1
 40
1
 40
1
 40
1
 10
47.440900
 20
88.230753
 30
0.0
 10
48.022975
 20
88.230753
 30
0.0
 10
48.492163
 20
87.761565
 30
0.0
 10
48.492163
 20
87.179490
 30
0.0
  0
SPLINE
  5
273
100
AcDbEntity
  8
0
 62
7
100
AcDbSpline
 70
8
 71
3
 72
8
 73
4
 74
0
 40
0
 40
0
 40
0
 40
0
 40
1
 40
1
 40
1
 40
1
 10
48.492163
 20
87.179490
 30
0.0
 10
48.492163
 20
86.597415
 30
0.0
 10
48.019448
 20
86.128227
 30
0.0
 10
47.440900
 20
86.128227
 30
0.0
  0
SPLINE
  5
274
100
AcDbEntity
  8
0
 62
7
100
AcDbSpline
 70
8
 71
3
 72
8
 73
4
 74
0
 40
0
 40
0
 40
0
 40
0
 40
1
 40
1
 40
1
 40
1
 10
47.440900
 20
86.128227
 30
0.0
 10
46.862353
 20
86.128227
 30
0.0
 10
46.389637
 20
86.597415
 30
0.0
 10
46.389637
 20
87.179490
 30
0.0
  0
LWPOLYLINE
  5
275
100
AcDbEntity
  8
0
 62
7
100
AcDbPolyline
 90
1
 70
1
 10
84.905383
 20
29.035460
 30
0.0
  0
SPLINE
  5
276
100
AcDbEntity
  8
0
 62
7
100
AcDbSpline
 70
8
 71
3
 72
8
 73
4
 74
0
 40
0
 40
0
 40
0
 40
0
 40
1
 40
1
 40
1
 40
1
 10
0.747879
 20
89.821759
 30
0.0
 10
0.363356
 20
89.821759
 30
0.0
 10
0.049388
 20
89.511319
 30
0.0
 10
0.049388
 20
89.123269
 30
0.0
  0
LWPOLYLINE
  5
277
100
AcDbEntity
  8
0
 62
7
100
AcDbPolyline
 90
1
 70
1
 10
46.389637
 20
87.179490
 30
0.0
  0
SPLINE
  5
278
100
AcDbEntity
  8
0
 62
7
100
AcDbSpline
 70
8
 71
3
 72
8
 73
4
 74
0
 40
0
 40
0
 40
0
 40
0
 40
1
 40
1
 40
1
 40
1
 10
17.800921
 20
70.461582
 30
0.0
 10
18.181915
 20
70.528609
 30
0.0
 10
18.545272
 20
70.274612
 30
0.0
 10
18.612298
 20
69.893618
 30
0.0
  0
LWPOLYLINE
  5
279
100
AcDbEntity
  8
0
 62
7
100
AcDbPolyline
 90
3
 70
0
 10
0.049388
 20
89.123269
 30
0.0
 10
0.049388
 20
67.332486
 30
0.0
 10
17.800921
 20
70.461582
 30
0.0
  0
SPLINE
  5
27a
100
AcDbEntity
  8
0
 62
7
100
AcDbSpline
 70
8
 71
3
 72
8
 73
4
 74
0
 40
0
 40
0
 40
0
 40
0
 40
1
 40
1
 40
1
 40
1
 10
21.402732
 20
53.976504
 30
0.0
 10
21.526203
 20
53.263903
 30
0.0
 10
22.584521
 20
53.394429
 30
0.0
 10
22.535133
 20
54.114086
 30
0.0
  0
LWPOLYLINE
  5
27b
100
AcDbEntity
  8
0
 62
7
100
AcDbPolyline
 90
2
 70
0
 10
18.612298
 20
69.893618
 30
0.0
 10
21.402732
 20
53.976504
 30
0.0
  0
SPLINE
  5
27c
100
AcDbEntity
  8
0
 62
7
100
AcDbSpline
 70
8
 71
3
 72
8
 73
4
 74
0
 40
0
 40
0
 40
0
 40
0
 40
1
 40
1
 40
1
 40
1
 10
37.492704
 20
87.221823
 30
0.0
 10
37.492704
 20
87.803898
 30
0.0
 10
37.961892
 20
88.273086
 30
0.0
 10
38.543968
 20
88.273086
 30
0.0
  0
SPLINE
  5
27d
100
AcDbEntity
  8
0
 62
7
100
AcDbSpline
 70
8
 71
3
 72
8
 73
4
 74
0
 40
0
 40
0
 40
0
 40
0
 40
1
 40
1
 40
1
 40
1
 10
38.543968
 20
88.273086
 30
0.0
 10
39.126043
 20
88.273086
 30
0.0
 10
39.595231
 20
87.803898
 30
0.0
 10
39.595231
 20
87.221823
 30
0.0
  0
SPLINE
  5
27e
100
AcDbEntity
  8
0
 62
7
100
AcDbSpline
 70
8
 71
3
 72
8
 73
4
 74
0
 40
0
 40
0
 40
0
 40
0
 40
1
 40
1
 40
1
 40
1
 10
39.595231
 20
87.221823
 30
0.0
 10
39.595231
 20
86.639747
 30
0.0
 10
39.122515
 20
86.170560
 30
0.0
 10
38.543968
 20
86.170560
 30
0.0
  0
SPLINE
  5
27f
100
AcDbEntity
  8
0
 62
7
100
AcDbSpline
 70
8
 71
3
 72
8
 73
4
 74
0
 40
0
 40
0
 40
0
 40
0
 40
1
 40
1
 40
1
 40
1
 10
38.543968
 20
86.170560
 30
0.0
 10
37.965420
 20
86.170560
 30
0.0
 10
37.492704
 20
86.639747
 30
0.0
 10
37.492704
 20
87.221823
 30
0.0
  0
LWPOLYLINE
  5
280
100
AcDbEntity
  8
0
 62
7
100
AcDbPolyline
 90
7
 70
0
 10
22.535133
 20
54.114086
 30
0.0
 10
20.559605
 20
82.653414
 30
0.0
 10
20.559605
 20
82.653414
 30
0.0
 10
43.062988
 20
84.226781
 30
0.0
 10
43.052405
 20
89.821759
 30
0.0
 10
0.747879
 20
89.821759
 30
0.0
 10
0.747879
 20
89.821759
 30
0.0
  0
SPLINE
  5
281
100
AcDbEntity
  8
0
 62
7
100
AcDbSpline
 70
8
 71
3
 72
8
 73
4
 74
0
 40
0
 40
0
 40
0
 40
0
 40
1
 40
1
 40
1
 40
1
 10
22.651548
 20
86.212892
 30
0.0
 10
22.651548
 20
86.794968
 30
0.0
 10
23.120736
 20
87.264156
 30
0.0
 10
23.702811
 20
87.264156
 30
0.0
  0
SPLINE
  5
282
100
AcDbEntity
  8
0
 62
7
100
AcDbSpline
 70
8
 71
3
 72
8
 73
4
 74
0
 40
0
 40
0
 40
0
 40
0
 40
1
 40
1
 40
1
 40
1
 10
23.702811
 20
87.264156
 30
0.0
 10
24.284887
 20
87.264156
 30
0.0
 10
24.754075
 20
86.794968
 30
0.0
 10
24.754075
 20
86.212892
 30
0.0
  0
SPLINE
  5
283
100
AcDbEntity
  8
0
 62
7
100
AcDbSpline
 70
8
 71
3
 72
8
 73
4
 74
0
 40
0
 40
0
 40
0
 40
0
 40
1
 40
1
 40
1
 40
1
 10
24.754075
 20
86.212892
 30
0.0
 10
24.754075
 20
85.630817
 30
0.0
 10
24.281359
 20
85.161629
 30
0.0
 10
23.702811
 20
85.161629
 30
0.0
  0
SPLINE
  5
284
100
AcDbEntity
  8
0
 62
7
100
AcDbSpline
 70
8
 71
3
 72
8
 73
4
 74
0
 40
0
 40
0
 40
0
 40
0
 40
1
 40
1
 40
1
 40
1
 10
23.702811
 20
85.161629
 30
0.0
 10
23.124264
 20
85.161629
 30
0.0
 10
22.651548
 20
85.630817
 30
0.0
 10
22.651548
 20
86.212892
 30
0.0
  0
LWPOLYLINE
  5
285
100
AcDbEntity
  8
0
 62
7
100
AcDbPolyline
 90
1
 70
1
 10
37.492704
 20
87.221823
 30
0.0
  0
LWPOLYLINE
  5
286
100
AcDbEntity
  8
0
 62
7
100
AcDbPolyline
 90
1
 70
1
 10
22.651548
 20
86.212892
 30
0.0
  0
SPLINE
  5
287
100
AcDbEntity
  8
0
 62
7
100
AcDbSpline
 70
8
 71
3
 72
8
 73
4
 74
0
 40
0
 40
0
 40
0
 40
0
 40
1
 40
1
 40
1
 40
1
 10
123.625737
 20
81.549234
 30
0.0
 10
118.824497
 20
81.549234
 30
0.0
 10
114.919301
 20
77.644038
 30
0.0
 10
114.919301
 20
72.842799
 30
0.0
  0
SPLINE
  5
288
100
AcDbEntity
  8
0
 62
7
100
AcDbSpline
 70
8
 71
3
 72
8
 73
4
 74
0
 40
0
 40
0
 40
0
 40
0
 40
1
 40
1
 40
1
 40
1
 10
114.919301
 20
72.842799
 30
0.0
 10
114.919301
 20
68.041560
 30
0.0
 10
118.824497
 20
64.136364
 30
0.0
 10
123.625737
 20
64.136364
 30
0.0
  0
SPLINE
  5
289
100
AcDbEntity
  8
0
 62
7
100
AcDbSpline
 70
8
 71
3
 72
8
 73
4
 74
0
 40
0
 40
0
 40
0
 40
0
 40
1
 40
1
 40
1
 40
1
 10
123.625737
 20
64.136364
 30
0.0
 10
128.426976
 20
64.136364
 30
0.0
 10
132.332172
 20
68.041560
 30
0.0
 10
132.332172
 20
72.842799
 30
0.0
  0
SPLINE
  5
28a
100
AcDbEntity
  8
0
 62
7
100
AcDbSpline
 70
8
 71
3
 72
8
 73
4
 74
0
 40
0
 40
0
 40
0
 40
0
 40
1
 40
1
 40
1
 40
1
 10
132.332172
 20
72.842799
 30
0.0
 10
132.332172
 20
77.644038
 30
0.0
 10
128.426976
 20
81.549234
 30
0.0
 10
123.625737
 20
81.549234
 30
0.0
  0
LWPOLYLINE
  5
28b
100
AcDbEntity
  8
0
 62
7
100
AcDbPolyline
 90
4
 70
1
 10
113.287139
 20
55.320569
 30
0.0
 10
143.395130
 20
55.320569
 30
0.0
 10
143.395130
 20
54.690281
 30
0.0
 10
113.287139
 20
54.690281
 30
0.0
  0
SPLINE
  5
28c
100
AcDbEntity
  8
0
 62
7
100
AcDbSpline
 70
8
 71
3
 72
8
 73
4
 74
0
 40
0
 40
0
 40
0
 40
0
 40
1
 40
1
 40
1
 40
1
 10
123.625737
 20
64.612607
 30
0.0
 10
119.085549
 20
64.612607
 30
0.0
 10
115.395545
 20
68.306140
 30
0.0
 10
115.395545
 20
72.842799
 30
0.0
  0
SPLINE
  5
28d
100
AcDbEntity
  8
0
 62
7
100
AcDbSpline
 70
8
 71
3
 72
8
 73
4
 74
0
 40
0
 40
0
 40
0
 40
0
 40
1
 40
1
 40
1
 40
1
 10
115.395545
 20
72.842799
 30
0.0
 10
115.395545
 20
77.379459
 30
0.0
 10
119.089077
 20
81.072991
 30
0.0
 10
123.625737
 20
81.072991
 30
0.0
  0
SPLINE
  5
28e
100
AcDbEntity
  8
0
 62
7
100
AcDbSpline
 70
8
 71
3
 72
8
 73
4
 74
0
 40
0
 40
0
 40
0
 40
0
 40
1
 40
1
 40
1
 40
1
 10
123.625737
 20
81.072991
 30
0.0
 10
128.162396
 20
81.072991
 30
0.0
 10
131.855928
 20
77.379459
 30
0.0
 10
131.855928
 20
72.842799
 30
0.0
  0
SPLINE
  5
28f
100
AcDbEntity
  8
0
 62
7
100
AcDbSpline
 70
8
 71
3
 72
8
 73
4
 74
0
 40
0
 40
0
 40
0
 40
0
 40
1
 40
1
 40
1
 40
1
 10
131.855928
 20
72.842799
 30
0.0
 10
131.855928
 20
68.306140
 30
0.0
 10
128.162396
 20
64.612607
 30
0.0
 10
123.625737
 20
64.612607
 30
0.0
  0
LWPOLYLINE
  5
290
100
AcDbEntity
  8
0
 62
7
100
AcDbPolyline
 90
1
 70
1
 10
123.625737
 20
81.549234
 30
0.0
  0
LWPOLYLINE
  5
291
100
AcDbEntity
  8
0
 62
7
100
AcDbPolyline
 90
1
 70
1
 10
123.625737
 20
64.612607
 30
0.0
  0
LWPOLYLINE
  5
292
100
AcDbEntity
  8
0
 62
7
100
AcDbPolyline
 90
11
 70
1
 10
144.576919
 20
76.702135
 30
0.0
 10
144.576919
 20
85.958896
 30
0.0
 10
135.634126
 20
85.958896
 30
0.0
 10
135.634126
 20
68.531914
 30
0.0
 10
136.106842
 20
68.531914
 30
0.0
 10
136.106842
 20
76.705663
 30
0.0
 10
140.114342
 20
76.705663
 30
0.0
 10
144.224146
 20
68.531914
 30
0.0
 10
144.753306
 20
68.531914
 30
0.0
 10
140.643501
 20
76.705663
 30
0.0
 10
144.576919
 20
76.705663
 30
0.0
  0
LWPOLYLINE
  5
293
100
AcDbEntity
  8
0
 62
7
100
AcDbPolyline
 90
6
 70
1
 10
136.110370
 20
77.167795
 30
0.0
 10
136.110370
 20
85.486180
 30
0.0
 10
144.104204
 20
85.486180
 30
0.0
 10
144.104204
 20
77.178378
 30
0.0
 10
136.110370
 20
77.178378
 30
0.0
 10
136.110370
 20
77.171323
 30
0.0
  0
ENDSEC
  0
SECTION
  2
OBJECTS
  0
DICTIONARY
  5
C
330
0
100
AcDbDictionary
  3
ACAD_GROUP
350
D
  3
ACAD_MLINESTYLE
350
17
  0
DICTIONARY
  5
D
330
C
100
AcDbDictionary
  0
DICTIONARY
  5
1A
330
C
100
AcDbDictionary
  0
DICTIONARY
  5
17
330
C
100
AcDbDictionary
  3
STANDARD
350
18
  0
DICTIONARY
  5
19
330
C
100
AcDbDictionary
  0
ENDSEC
  0
EOF
