  0
SECTION
  2
HEADER
  9
$ACADVER
  1
AC1014
  9
$HANDSEED
  5
FFFF
  9
$MEASUREMENT
 70
     1
  0
ENDSEC
  0
SECTION
  2
TABLES
  0
TABLE
  2
VPORT
  5
8
330
0
100
AcDbSymbolTable
 70
     4
  0
VPORT
  5
2E
330
8
100
AcDbSymbolTableRecord
100
AcDbViewportTableRecord
  2
*ACTIVE
 70
     0
 10
0.0
 20
0.0
 11
1.0
 21
1.0
 12
210.0
 22
148.5
 13
0.0
 23
0.0
 14
10.0
 24
10.0
 15
10.0
 25
10.0
 16
0.0
 26
0.0
 36
1.0
 17
0.0
 27
0.0
 37
0.0
 40
341.0
 41
1.24
 42
50.0
 43
0.0
 44
0.0
 50
0.0
 51
0.0
 71
     0
 72
   100
 73
     1
 74
     3
 75
     0
 76
     0
 77
     0
 78
     0
  0
ENDTAB
  0
TABLE
  2
LTYPE
  5
5
330
0
100
AcDbSymbolTable
 70
     1
  0
LTYPE
  5
14
330
5
100
AcDbSymbolTableRecord
100
AcDbLinetypeTableRecord
  2
BYBLOCK
 70
     0
  3

 72
    65
 73
     0
 40
0.0
  0
LTYPE
  5
15
330
5
100
AcDbSymbolTableRecord
100
AcDbLinetypeTableRecord
  2
BYLAYER
 70
     0
  3

 72
    65
 73
     0
 40
0.0
  0
LTYPE
  5
16
330
5
100
AcDbSymbolTableRecord
100
AcDbLinetypeTableRecord
  2
CONTINUOUS
 70
     0
  3
Solid line
 72
    65
 73
     0
 40
0.0
  0
ENDTAB
  0
TABLE
  2
LAYER
  5
2
100
AcDbSymbolTable
 70
1
  0
LAYER
  5
50
100
AcDbSymbolTableRecord
100
AcDbLayerTableRecord
  2
0
 70
0
  6
CONTINUOUS
  0
ENDTAB
  0
TABLE
  2
STYLE
  5
3
330
0
100
AcDbSymbolTable
 70
     1
  0
STYLE
  5
11
330
3
100
AcDbSymbolTableRecord
100
AcDbTextStyleTableRecord
  2
STANDARD
 70
     0
 40
0.0
 41
1.0
 50
0.0
 71
     0
 42
2.5
  3
txt
  4

  0
ENDTAB
  0
TABLE
  2
VIEW
  5
6
330
0
100
AcDbSymbolTable
 70
     0
  0
ENDTAB
  0
TABLE
  2
UCS
  5
7
330
0
100
AcDbSymbolTable
 70
     0
  0
ENDTAB
  0
TABLE
  2
APPID
  5
9
330
0
100
AcDbSymbolTable
 70
     2
  0
APPID
  5
12
330
9
100
AcDbSymbolTableRecord
100
AcDbRegAppTableRecord
  2
ACAD
 70
     0
  0
ENDTAB
  0
TABLE
  2
DIMSTYLE
  5
A
330
0
100
AcDbSymbolTable
 70
     1
  0
DIMSTYLE
105
27
330
A
100
AcDbSymbolTableRecord
100
AcDbDimStyleTableRecord
  2
ISO-25
 70
     0
  3

  4

  5

  6

  7

 40
1.0
 41
2.5
 42
0.625
 43
3.75
 44
1.25
 45
0.0
 46
0.0
 47
0.0
 48
0.0
140
2.5
141
2.5
142
0.0
143
0.03937007874016
144
1.0
145
0.0
146
1.0
147
0.625
 71
     0
 72
     0
 73
     0
 74
     0
 75
     0
 76
     0
 77
     1
 78
     8
170
     0
171
     3
172
     1
173
     0
174
     0
175
     0
176
     0
177
     0
178
     0
270
     2
271
     2
272
     2
273
     2
274
     3
340
11
275
     0
280
     0
281
     0
282
     0
283
     0
284
     8
285
     0
286
     0
287
     3
288
     0
  0
ENDTAB
  0
TABLE
  2
BLOCK_RECORD
  5
1
330
0
100
AcDbSymbolTable
 70
     1
  0
BLOCK_RECORD
  5
1F
330
1
100
AcDbSymbolTableRecord
100
AcDbBlockTableRecord
  2
*MODEL_SPACE
  0
BLOCK_RECORD
  5
1B
330
1
100
AcDbSymbolTableRecord
100
AcDbBlockTableRecord
  2
*PAPER_SPACE
  0
ENDTAB
  0
ENDSEC
  0
SECTION
  2
BLOCKS
  0
BLOCK
  5
20
330
1F
100
AcDbEntity
  8
0
100
AcDbBlockBegin
  2
*MODEL_SPACE
 70
     0
 10
0.0
 20
0.0
 30
0.0
  3
*MODEL_SPACE
  1

  0
ENDBLK
  5
21
330
1F
100
AcDbEntity
  8
0
100
AcDbBlockEnd
  0
BLOCK
  5
1C
330
1B
100
AcDbEntity
 67
     1
  8
0
100
AcDbBlockBegin
  2
*PAPER_SPACE
  1

  0
ENDBLK
  5
1D
330
1B
100
AcDbEntity
 67
     1
  8
0
100
AcDbBlockEnd
  0
ENDSEC
  0
SECTION
  2
ENTITIES
  0
SPLINE
  5
100
100
AcDbEntity
  8
0
 62
7
100
AcDbSpline
 70
8
 71
3
 72
8
 73
4
 74
0
 40
0
 40
0
 40
0
 40
0
 40
1
 40
1
 40
1
 40
1
 10
39.597014
 20
81.556990
 30
0.0
 10
31.451121
 20
81.556990
 30
0.0
 10
24.846914
 20
74.952784
 30
0.0
 10
24.846914
 20
66.806891
 30
0.0
  0
SPLINE
  5
101
100
AcDbEntity
  8
0
 62
7
100
AcDbSpline
 70
8
 71
3
 72
8
 73
4
 74
0
 40
0
 40
0
 40
0
 40
0
 40
1
 40
1
 40
1
 40
1
 10
24.846914
 20
66.806891
 30
0.0
 10
24.846914
 20
58.660998
 30
0.0
 10
31.451121
 20
52.056792
 30
0.0
 10
39.597014
 20
52.056792
 30
0.0
  0
SPLINE
  5
102
100
AcDbEntity
  8
0
 62
7
100
AcDbSpline
 70
8
 71
3
 72
8
 73
4
 74
0
 40
0
 40
0
 40
0
 40
0
 40
1
 40
1
 40
1
 40
1
 10
39.597014
 20
52.056792
 30
0.0
 10
47.742907
 20
52.056792
 30
0.0
 10
54.347113
 20
58.660998
 30
0.0
 10
54.347113
 20
66.806891
 30
0.0
  0
SPLINE
  5
103
100
AcDbEntity
  8
0
 62
7
100
AcDbSpline
 70
8
 71
3
 72
8
 73
4
 74
0
 40
0
 40
0
 40
0
 40
0
 40
1
 40
1
 40
1
 40
1
 10
54.347113
 20
66.806891
 30
0.0
 10
54.347113
 20
74.952784
 30
0.0
 10
47.742907
 20
81.556990
 30
0.0
 10
39.597014
 20
81.556990
 30
0.0
  0
SPLINE
  5
104
100
AcDbEntity
  8
0
 62
7
100
AcDbSpline
 70
8
 71
3
 72
8
 73
4
 74
0
 40
0
 40
0
 40
0
 40
0
 40
1
 40
1
 40
1
 40
1
 10
39.597014
 20
54.554536
 30
0.0
 10
32.830525
 20
54.554536
 30
0.0
 10
27.348187
 20
60.040402
 30
0.0
 10
27.348187
 20
66.803363
 30
0.0
  0
SPLINE
  5
105
100
AcDbEntity
  8
0
 62
7
100
AcDbSpline
 70
8
 71
3
 72
8
 73
4
 74
0
 40
0
 40
0
 40
0
 40
0
 40
1
 40
1
 40
1
 40
1
 10
27.348187
 20
66.803363
 30
0.0
 10
27.348187
 20
73.566324
 30
0.0
 10
32.834053
 20
79.052190
 30
0.0
 10
39.597014
 20
79.052190
 30
0.0
  0
SPLINE
  5
106
100
AcDbEntity
  8
0
 62
7
100
AcDbSpline
 70
8
 71
3
 72
8
 73
4
 74
0
 40
0
 40
0
 40
0
 40
0
 40
1
 40
1
 40
1
 40
1
 10
39.597014
 20
79.052190
 30
0.0
 10
46.359975
 20
79.052190
 30
0.0
 10
51.845841
 20
73.566324
 30
0.0
 10
51.845841
 20
66.803363
 30
0.0
  0
SPLINE
  5
107
100
AcDbEntity
  8
0
 62
7
100
AcDbSpline
 70
8
 71
3
 72
8
 73
4
 74
0
 40
0
 40
0
 40
0
 40
0
 40
1
 40
1
 40
1
 40
1
 10
51.845841
 20
66.803363
 30
0.0
 10
51.845841
 20
60.040402
 30
0.0
 10
46.359975
 20
54.554536
 30
0.0
 10
39.597014
 20
54.554536
 30
0.0
  0
LWPOLYLINE
  5
108
100
AcDbEntity
  8
0
 62
7
100
AcDbPolyline
 90
1
 70
1
 10
39.597014
 20
81.556990
 30
0.0
  0
LWPOLYLINE
  5
109
100
AcDbEntity
  8
0
 62
7
100
AcDbPolyline
 90
2
 70
1
 10
39.597014
 20
54.554536
 30
0.0
 10
39.597014
 20
54.554536
 30
0.0
  0
SPLINE
  5
10a
100
AcDbEntity
  8
0
 62
7
100
AcDbSpline
 70
8
 71
3
 72
8
 73
4
 74
0
 40
0
 40
0
 40
0
 40
0
 40
1
 40
1
 40
1
 40
1
 10
4.999017
 20
45.406723
 30
0.0
 10
5.387085
 20
45.406723
 30
0.0
 10
5.701067
 20
45.092741
 30
0.0
 10
5.701067
 20
44.704673
 30
0.0
  0
LWPOLYLINE
  5
10b
100
AcDbEntity
  8
0
 62
7
100
AcDbPolyline
 90
5
 70
0
 10
19.286963
 20
46.479201
 30
0.0
 10
19.907871
 20
55.355367
 30
0.0
 10
2.751753
 20
55.355367
 30
0.0
 10
2.751753
 20
45.406723
 30
0.0
 10
4.999017
 20
45.406723
 30
0.0
  0
SPLINE
  5
10c
100
AcDbEntity
  8
0
 62
7
100
AcDbSpline
 70
8
 71
3
 72
8
 73
4
 74
0
 40
0
 40
0
 40
0
 40
0
 40
1
 40
1
 40
1
 40
1
 10
19.936095
 20
45.734816
 30
0.0
 10
19.551555
 20
45.763040
 30
0.0
 10
19.258740
 20
46.094661
 30
0.0
 10
19.286963
 20
46.482729
 30
0.0
  0
LWPOLYLINE
  5
10d
100
AcDbEntity
  8
0
 62
7
100
AcDbPolyline
 90
6
 70
0
 10
5.701067
 20
44.704673
 30
0.0
 10
5.725762
 20
38.206304
 30
0.0
 10
21.707094
 20
38.206304
 30
0.0
 10
36.799399
 20
37.147937
 30
0.0
 10
38.132940
 20
44.461249
 30
0.0
 10
19.936095
 20
45.734816
 30
0.0
  0
SPLINE
  5
10e
100
AcDbEntity
  8
0
 62
7
100
AcDbSpline
 70
8
 71
3
 72
8
 73
4
 74
0
 40
0
 40
0
 40
0
 40
0
 40
1
 40
1
 40
1
 40
1
 10
8.322288
 20
42.796086
 30
0.0
 10
8.047112
 20
42.796086
 30
0.0
 10
7.821327
 20
43.018343
 30
0.0
 10
7.821327
 20
43.297046
 30
0.0
  0
SPLINE
  5
10f
100
AcDbEntity
  8
0
 62
7
100
AcDbSpline
 70
8
 71
3
 72
8
 73
4
 74
0
 40
0
 40
0
 40
0
 40
0
 40
1
 40
1
 40
1
 40
1
 10
7.821327
 20
43.297046
 30
0.0
 10
7.821327
 20
43.575749
 30
0.0
 10
8.043584
 20
43.798006
 30
0.0
 10
8.322288
 20
43.798006
 30
0.0
  0
SPLINE
  5
110
100
AcDbEntity
  8
0
 62
7
100
AcDbSpline
 70
8
 71
3
 72
8
 73
4
 74
0
 40
0
 40
0
 40
0
 40
0
 40
1
 40
1
 40
1
 40
1
 10
8.322288
 20
43.798006
 30
0.0
 10
8.600991
 20
43.798006
 30
0.0
 10
8.823248
 20
43.575749
 30
0.0
 10
8.823248
 20
43.297046
 30
0.0
  0
SPLINE
  5
111
100
AcDbEntity
  8
0
 62
7
100
AcDbSpline
 70
8
 71
3
 72
8
 73
4
 74
0
 40
0
 40
0
 40
0
 40
0
 40
1
 40
1
 40
1
 40
1
 10
8.823248
 20
43.297046
 30
0.0
 10
8.823248
 20
43.018343
 30
0.0
 10
8.600991
 20
42.796086
 30
0.0
 10
8.322288
 20
42.796086
 30
0.0
  0
LWPOLYLINE
  5
112
100
AcDbEntity
  8
0
 62
7
100
AcDbPolyline
 90
3
 70
0
 10
19.286963
 20
46.482729
 30
0.0
 10
19.286963
 20
46.482729
 30
0.0
 10
19.286963
 20
46.479201
 30
0.0
  0
SPLINE
  5
113
100
AcDbEntity
  8
0
 62
7
100
AcDbSpline
 70
8
 71
3
 72
8
 73
4
 74
0
 40
0
 40
0
 40
0
 40
0
 40
1
 40
1
 40
1
 40
1
 10
8.322288
 20
44.796398
 30
0.0
 10
8.047112
 20
44.796398
 30
0.0
 10
7.821327
 20
45.018655
 30
0.0
 10
7.821327
 20
45.297358
 30
0.0
  0
SPLINE
  5
114
100
AcDbEntity
  8
0
 62
7
100
AcDbSpline
 70
8
 71
3
 72
8
 73
4
 74
0
 40
0
 40
0
 40
0
 40
0
 40
1
 40
1
 40
1
 40
1
 10
7.821327
 20
45.297358
 30
0.0
 10
7.821327
 20
45.576062
 30
0.0
 10
8.043584
 20
45.798318
 30
0.0
 10
8.322288
 20
45.798318
 30
0.0
  0
SPLINE
  5
115
100
AcDbEntity
  8
0
 62
7
100
AcDbSpline
 70
8
 71
3
 72
8
 73
4
 74
0
 40
0
 40
0
 40
0
 40
0
 40
1
 40
1
 40
1
 40
1
 10
8.322288
 20
45.798318
 30
0.0
 10
8.600991
 20
45.798318
 30
0.0
 10
8.823248
 20
45.576062
 30
0.0
 10
8.823248
 20
45.297358
 30
0.0
  0
SPLINE
  5
116
100
AcDbEntity
  8
0
 62
7
100
AcDbSpline
 70
8
 71
3
 72
8
 73
4
 74
0
 40
0
 40
0
 40
0
 40
0
 40
1
 40
1
 40
1
 40
1
 10
8.823248
 20
45.297358
 30
0.0
 10
8.823248
 20
45.018655
 30
0.0
 10
8.600991
 20
44.796398
 30
0.0
 10
8.322288
 20
44.796398
 30
0.0
  0
LWPOLYLINE
  5
117
100
AcDbEntity
  8
0
 62
7
100
AcDbPolyline
 90
1
 70
1
 10
8.322288
 20
42.796086
 30
0.0
  0
SPLINE
  5
118
100
AcDbEntity
  8
0
 62
7
100
AcDbSpline
 70
8
 71
3
 72
8
 73
4
 74
0
 40
0
 40
0
 40
0
 40
0
 40
1
 40
1
 40
1
 40
1
 10
8.322288
 20
46.796711
 30
0.0
 10
8.047112
 20
46.796711
 30
0.0
 10
7.821327
 20
47.018968
 30
0.0
 10
7.821327
 20
47.297671
 30
0.0
  0
SPLINE
  5
119
100
AcDbEntity
  8
0
 62
7
100
AcDbSpline
 70
8
 71
3
 72
8
 73
4
 74
0
 40
0
 40
0
 40
0
 40
0
 40
1
 40
1
 40
1
 40
1
 10
7.821327
 20
47.297671
 30
0.0
 10
7.821327
 20
47.576374
 30
0.0
 10
8.043584
 20
47.798631
 30
0.0
 10
8.322288
 20
47.798631
 30
0.0
  0
SPLINE
  5
11a
100
AcDbEntity
  8
0
 62
7
100
AcDbSpline
 70
8
 71
3
 72
8
 73
4
 74
0
 40
0
 40
0
 40
0
 40
0
 40
1
 40
1
 40
1
 40
1
 10
8.322288
 20
47.798631
 30
0.0
 10
8.600991
 20
47.798631
 30
0.0
 10
8.823248
 20
47.576374
 30
0.0
 10
8.823248
 20
47.297671
 30
0.0
  0
SPLINE
  5
11b
100
AcDbEntity
  8
0
 62
7
100
AcDbSpline
 70
8
 71
3
 72
8
 73
4
 74
0
 40
0
 40
0
 40
0
 40
0
 40
1
 40
1
 40
1
 40
1
 10
8.823248
 20
47.297671
 30
0.0
 10
8.823248
 20
47.018968
 30
0.0
 10
8.600991
 20
46.796711
 30
0.0
 10
8.322288
 20
46.796711
 30
0.0
  0
LWPOLYLINE
  5
11c
100
AcDbEntity
  8
0
 62
7
100
AcDbPolyline
 90
1
 70
1
 10
8.322288
 20
44.796398
 30
0.0
  0
SPLINE
  5
11d
100
AcDbEntity
  8
0
 62
7
100
AcDbSpline
 70
8
 71
3
 72
8
 73
4
 74
0
 40
0
 40
0
 40
0
 40
0
 40
1
 40
1
 40
1
 40
1
 10
8.322288
 20
48.797023
 30
0.0
 10
8.047112
 20
48.797023
 30
0.0
 10
7.821327
 20
49.019280
 30
0.0
 10
7.821327
 20
49.297983
 30
0.0
  0
SPLINE
  5
11e
100
AcDbEntity
  8
0
 62
7
100
AcDbSpline
 70
8
 71
3
 72
8
 73
4
 74
0
 40
0
 40
0
 40
0
 40
0
 40
1
 40
1
 40
1
 40
1
 10
7.821327
 20
49.297983
 30
0.0
 10
7.821327
 20
49.576686
 30
0.0
 10
8.043584
 20
49.798943
 30
0.0
 10
8.322288
 20
49.798943
 30
0.0
  0
SPLINE
  5
11f
100
AcDbEntity
  8
0
 62
7
100
AcDbSpline
 70
8
 71
3
 72
8
 73
4
 74
0
 40
0
 40
0
 40
0
 40
0
 40
1
 40
1
 40
1
 40
1
 10
8.322288
 20
49.798943
 30
0.0
 10
8.600991
 20
49.798943
 30
0.0
 10
8.823248
 20
49.576686
 30
0.0
 10
8.823248
 20
49.297983
 30
0.0
  0
SPLINE
  5
120
100
AcDbEntity
  8
0
 62
7
100
AcDbSpline
 70
8
 71
3
 72
8
 73
4
 74
0
 40
0
 40
0
 40
0
 40
0
 40
1
 40
1
 40
1
 40
1
 10
8.823248
 20
49.297983
 30
0.0
 10
8.823248
 20
49.019280
 30
0.0
 10
8.600991
 20
48.797023
 30
0.0
 10
8.322288
 20
48.797023
 30
0.0
  0
LWPOLYLINE
  5
121
100
AcDbEntity
  8
0
 62
7
100
AcDbPolyline
 90
1
 70
1
 10
8.322288
 20
46.796711
 30
0.0
  0
SPLINE
  5
122
100
AcDbEntity
  8
0
 62
7
100
AcDbSpline
 70
8
 71
3
 72
8
 73
4
 74
0
 40
0
 40
0
 40
0
 40
0
 40
1
 40
1
 40
1
 40
1
 10
8.322288
 20
50.797336
 30
0.0
 10
8.047112
 20
50.797336
 30
0.0
 10
7.821327
 20
51.019593
 30
0.0
 10
7.821327
 20
51.298296
 30
0.0
  0
SPLINE
  5
123
100
AcDbEntity
  8
0
 62
7
100
AcDbSpline
 70
8
 71
3
 72
8
 73
4
 74
0
 40
0
 40
0
 40
0
 40
0
 40
1
 40
1
 40
1
 40
1
 10
7.821327
 20
51.298296
 30
0.0
 10
7.821327
 20
51.576999
 30
0.0
 10
8.043584
 20
51.799256
 30
0.0
 10
8.322288
 20
51.799256
 30
0.0
  0
SPLINE
  5
124
100
AcDbEntity
  8
0
 62
7
100
AcDbSpline
 70
8
 71
3
 72
8
 73
4
 74
0
 40
0
 40
0
 40
0
 40
0
 40
1
 40
1
 40
1
 40
1
 10
8.322288
 20
51.799256
 30
0.0
 10
8.600991
 20
51.799256
 30
0.0
 10
8.823248
 20
51.576999
 30
0.0
 10
8.823248
 20
51.298296
 30
0.0
  0
SPLINE
  5
125
100
AcDbEntity
  8
0
 62
7
100
AcDbSpline
 70
8
 71
3
 72
8
 73
4
 74
0
 40
0
 40
0
 40
0
 40
0
 40
1
 40
1
 40
1
 40
1
 10
8.823248
 20
51.298296
 30
0.0
 10
8.823248
 20
51.019593
 30
0.0
 10
8.600991
 20
50.797336
 30
0.0
 10
8.322288
 20
50.797336
 30
0.0
  0
LWPOLYLINE
  5
126
100
AcDbEntity
  8
0
 62
7
100
AcDbPolyline
 90
1
 70
1
 10
8.322288
 20
48.797023
 30
0.0
  0
SPLINE
  5
127
100
AcDbEntity
  8
0
 62
7
100
AcDbSpline
 70
8
 71
3
 72
8
 73
4
 74
0
 40
0
 40
0
 40
0
 40
0
 40
1
 40
1
 40
1
 40
1
 10
10.322600
 20
42.796086
 30
0.0
 10
10.047425
 20
42.796086
 30
0.0
 10
9.821640
 20
43.018343
 30
0.0
 10
9.821640
 20
43.297046
 30
0.0
  0
SPLINE
  5
128
100
AcDbEntity
  8
0
 62
7
100
AcDbSpline
 70
8
 71
3
 72
8
 73
4
 74
0
 40
0
 40
0
 40
0
 40
0
 40
1
 40
1
 40
1
 40
1
 10
9.821640
 20
43.297046
 30
0.0
 10
9.821640
 20
43.575749
 30
0.0
 10
10.043897
 20
43.798006
 30
0.0
 10
10.322600
 20
43.798006
 30
0.0
  0
SPLINE
  5
129
100
AcDbEntity
  8
0
 62
7
100
AcDbSpline
 70
8
 71
3
 72
8
 73
4
 74
0
 40
0
 40
0
 40
0
 40
0
 40
1
 40
1
 40
1
 40
1
 10
10.322600
 20
43.798006
 30
0.0
 10
10.601303
 20
43.798006
 30
0.0
 10
10.823560
 20
43.575749
 30
0.0
 10
10.823560
 20
43.297046
 30
0.0
  0
SPLINE
  5
12a
100
AcDbEntity
  8
0
 62
7
100
AcDbSpline
 70
8
 71
3
 72
8
 73
4
 74
0
 40
0
 40
0
 40
0
 40
0
 40
1
 40
1
 40
1
 40
1
 10
10.823560
 20
43.297046
 30
0.0
 10
10.823560
 20
43.018343
 30
0.0
 10
10.601303
 20
42.796086
 30
0.0
 10
10.322600
 20
42.796086
 30
0.0
  0
LWPOLYLINE
  5
12b
100
AcDbEntity
  8
0
 62
7
100
AcDbPolyline
 90
1
 70
1
 10
8.322288
 20
50.797336
 30
0.0
  0
SPLINE
  5
12c
100
AcDbEntity
  8
0
 62
7
100
AcDbSpline
 70
8
 71
3
 72
8
 73
4
 74
0
 40
0
 40
0
 40
0
 40
0
 40
1
 40
1
 40
1
 40
1
 10
10.322600
 20
44.796398
 30
0.0
 10
10.047425
 20
44.796398
 30
0.0
 10
9.821640
 20
45.018655
 30
0.0
 10
9.821640
 20
45.297358
 30
0.0
  0
SPLINE
  5
12d
100
AcDbEntity
  8
0
 62
7
100
AcDbSpline
 70
8
 71
3
 72
8
 73
4
 74
0
 40
0
 40
0
 40
0
 40
0
 40
1
 40
1
 40
1
 40
1
 10
9.821640
 20
45.297358
 30
0.0
 10
9.821640
 20
45.576062
 30
0.0
 10
10.043897
 20
45.798318
 30
0.0
 10
10.322600
 20
45.798318
 30
0.0
  0
SPLINE
  5
12e
100
AcDbEntity
  8
0
 62
7
100
AcDbSpline
 70
8
 71
3
 72
8
 73
4
 74
0
 40
0
 40
0
 40
0
 40
0
 40
1
 40
1
 40
1
 40
1
 10
10.322600
 20
45.798318
 30
0.0
 10
10.601303
 20
45.798318
 30
0.0
 10
10.823560
 20
45.576062
 30
0.0
 10
10.823560
 20
45.297358
 30
0.0
  0
SPLINE
  5
12f
100
AcDbEntity
  8
0
 62
7
100
AcDbSpline
 70
8
 71
3
 72
8
 73
4
 74
0
 40
0
 40
0
 40
0
 40
0
 40
1
 40
1
 40
1
 40
1
 10
10.823560
 20
45.297358
 30
0.0
 10
10.823560
 20
45.018655
 30
0.0
 10
10.601303
 20
44.796398
 30
0.0
 10
10.322600
 20
44.796398
 30
0.0
  0
LWPOLYLINE
  5
130
100
AcDbEntity
  8
0
 62
7
100
AcDbPolyline
 90
1
 70
1
 10
10.322600
 20
42.796086
 30
0.0
  0
SPLINE
  5
131
100
AcDbEntity
  8
0
 62
7
100
AcDbSpline
 70
8
 71
3
 72
8
 73
4
 74
0
 40
0
 40
0
 40
0
 40
0
 40
1
 40
1
 40
1
 40
1
 10
10.322600
 20
46.796711
 30
0.0
 10
10.047425
 20
46.796711
 30
0.0
 10
9.821640
 20
47.018968
 30
0.0
 10
9.821640
 20
47.297671
 30
0.0
  0
SPLINE
  5
132
100
AcDbEntity
  8
0
 62
7
100
AcDbSpline
 70
8
 71
3
 72
8
 73
4
 74
0
 40
0
 40
0
 40
0
 40
0
 40
1
 40
1
 40
1
 40
1
 10
9.821640
 20
47.297671
 30
0.0
 10
9.821640
 20
47.576374
 30
0.0
 10
10.043897
 20
47.798631
 30
0.0
 10
10.322600
 20
47.798631
 30
0.0
  0
SPLINE
  5
133
100
AcDbEntity
  8
0
 62
7
100
AcDbSpline
 70
8
 71
3
 72
8
 73
4
 74
0
 40
0
 40
0
 40
0
 40
0
 40
1
 40
1
 40
1
 40
1
 10
10.322600
 20
47.798631
 30
0.0
 10
10.601303
 20
47.798631
 30
0.0
 10
10.823560
 20
47.576374
 30
0.0
 10
10.823560
 20
47.297671
 30
0.0
  0
SPLINE
  5
134
100
AcDbEntity
  8
0
 62
7
100
AcDbSpline
 70
8
 71
3
 72
8
 73
4
 74
0
 40
0
 40
0
 40
0
 40
0
 40
1
 40
1
 40
1
 40
1
 10
10.823560
 20
47.297671
 30
0.0
 10
10.823560
 20
47.018968
 30
0.0
 10
10.601303
 20
46.796711
 30
0.0
 10
10.322600
 20
46.796711
 30
0.0
  0
LWPOLYLINE
  5
135
100
AcDbEntity
  8
0
 62
7
100
AcDbPolyline
 90
1
 70
1
 10
10.322600
 20
44.796398
 30
0.0
  0
SPLINE
  5
136
100
AcDbEntity
  8
0
 62
7
100
AcDbSpline
 70
8
 71
3
 72
8
 73
4
 74
0
 40
0
 40
0
 40
0
 40
0
 40
1
 40
1
 40
1
 40
1
 10
10.322600
 20
48.797023
 30
0.0
 10
10.047425
 20
48.797023
 30
0.0
 10
9.821640
 20
49.019280
 30
0.0
 10
9.821640
 20
49.297983
 30
0.0
  0
SPLINE
  5
137
100
AcDbEntity
  8
0
 62
7
100
AcDbSpline
 70
8
 71
3
 72
8
 73
4
 74
0
 40
0
 40
0
 40
0
 40
0
 40
1
 40
1
 40
1
 40
1
 10
9.821640
 20
49.297983
 30
0.0
 10
9.821640
 20
49.576686
 30
0.0
 10
10.043897
 20
49.798943
 30
0.0
 10
10.322600
 20
49.798943
 30
0.0
  0
SPLINE
  5
138
100
AcDbEntity
  8
0
 62
7
100
AcDbSpline
 70
8
 71
3
 72
8
 73
4
 74
0
 40
0
 40
0
 40
0
 40
0
 40
1
 40
1
 40
1
 40
1
 10
10.322600
 20
49.798943
 30
0.0
 10
10.601303
 20
49.798943
 30
0.0
 10
10.823560
 20
49.576686
 30
0.0
 10
10.823560
 20
49.297983
 30
0.0
  0
SPLINE
  5
139
100
AcDbEntity
  8
0
 62
7
100
AcDbSpline
 70
8
 71
3
 72
8
 73
4
 74
0
 40
0
 40
0
 40
0
 40
0
 40
1
 40
1
 40
1
 40
1
 10
10.823560
 20
49.297983
 30
0.0
 10
10.823560
 20
49.019280
 30
0.0
 10
10.601303
 20
48.797023
 30
0.0
 10
10.322600
 20
48.797023
 30
0.0
  0
LWPOLYLINE
  5
13a
100
AcDbEntity
  8
0
 62
7
100
AcDbPolyline
 90
1
 70
1
 10
10.322600
 20
46.796711
 30
0.0
  0
SPLINE
  5
13b
100
AcDbEntity
  8
0
 62
7
100
AcDbSpline
 70
8
 71
3
 72
8
 73
4
 74
0
 40
0
 40
0
 40
0
 40
0
 40
1
 40
1
 40
1
 40
1
 10
10.322600
 20
50.797336
 30
0.0
 10
10.047425
 20
50.797336
 30
0.0
 10
9.821640
 20
51.019593
 30
0.0
 10
9.821640
 20
51.298296
 30
0.0
  0
SPLINE
  5
13c
100
AcDbEntity
  8
0
 62
7
100
AcDbSpline
 70
8
 71
3
 72
8
 73
4
 74
0
 40
0
 40
0
 40
0
 40
0
 40
1
 40
1
 40
1
 40
1
 10
9.821640
 20
51.298296
 30
0.0
 10
9.821640
 20
51.576999
 30
0.0
 10
10.043897
 20
51.799256
 30
0.0
 10
10.322600
 20
51.799256
 30
0.0
  0
SPLINE
  5
13d
100
AcDbEntity
  8
0
 62
7
100
AcDbSpline
 70
8
 71
3
 72
8
 73
4
 74
0
 40
0
 40
0
 40
0
 40
0
 40
1
 40
1
 40
1
 40
1
 10
10.322600
 20
51.799256
 30
0.0
 10
10.601303
 20
51.799256
 30
0.0
 10
10.823560
 20
51.576999
 30
0.0
 10
10.823560
 20
51.298296
 30
0.0
  0
SPLINE
  5
13e
100
AcDbEntity
  8
0
 62
7
100
AcDbSpline
 70
8
 71
3
 72
8
 73
4
 74
0
 40
0
 40
0
 40
0
 40
0
 40
1
 40
1
 40
1
 40
1
 10
10.823560
 20
51.298296
 30
0.0
 10
10.823560
 20
51.019593
 30
0.0
 10
10.601303
 20
50.797336
 30
0.0
 10
10.322600
 20
50.797336
 30
0.0
  0
LWPOLYLINE
  5
13f
100
AcDbEntity
  8
0
 62
7
100
AcDbPolyline
 90
1
 70
1
 10
10.322600
 20
48.797023
 30
0.0
  0
SPLINE
  5
140
100
AcDbEntity
  8
0
 62
7
100
AcDbSpline
 70
8
 71
3
 72
8
 73
4
 74
0
 40
0
 40
0
 40
0
 40
0
 40
1
 40
1
 40
1
 40
1
 10
12.322912
 20
42.796086
 30
0.0
 10
12.047737
 20
42.796086
 30
0.0
 10
11.821952
 20
43.018343
 30
0.0
 10
11.821952
 20
43.297046
 30
0.0
  0
SPLINE
  5
141
100
AcDbEntity
  8
0
 62
7
100
AcDbSpline
 70
8
 71
3
 72
8
 73
4
 74
0
 40
0
 40
0
 40
0
 40
0
 40
1
 40
1
 40
1
 40
1
 10
11.821952
 20
43.297046
 30
0.0
 10
11.821952
 20
43.575749
 30
0.0
 10
12.044209
 20
43.798006
 30
0.0
 10
12.322912
 20
43.798006
 30
0.0
  0
SPLINE
  5
142
100
AcDbEntity
  8
0
 62
7
100
AcDbSpline
 70
8
 71
3
 72
8
 73
4
 74
0
 40
0
 40
0
 40
0
 40
0
 40
1
 40
1
 40
1
 40
1
 10
12.322912
 20
43.798006
 30
0.0
 10
12.601616
 20
43.798006
 30
0.0
 10
12.823873
 20
43.575749
 30
0.0
 10
12.823873
 20
43.297046
 30
0.0
  0
SPLINE
  5
143
100
AcDbEntity
  8
0
 62
7
100
AcDbSpline
 70
8
 71
3
 72
8
 73
4
 74
0
 40
0
 40
0
 40
0
 40
0
 40
1
 40
1
 40
1
 40
1
 10
12.823873
 20
43.297046
 30
0.0
 10
12.823873
 20
43.018343
 30
0.0
 10
12.601616
 20
42.796086
 30
0.0
 10
12.322912
 20
42.796086
 30
0.0
  0
LWPOLYLINE
  5
144
100
AcDbEntity
  8
0
 62
7
100
AcDbPolyline
 90
1
 70
1
 10
10.322600
 20
50.797336
 30
0.0
  0
SPLINE
  5
145
100
AcDbEntity
  8
0
 62
7
100
AcDbSpline
 70
8
 71
3
 72
8
 73
4
 74
0
 40
0
 40
0
 40
0
 40
0
 40
1
 40
1
 40
1
 40
1
 10
12.322912
 20
44.796398
 30
0.0
 10
12.047737
 20
44.796398
 30
0.0
 10
11.821952
 20
45.018655
 30
0.0
 10
11.821952
 20
45.297358
 30
0.0
  0
SPLINE
  5
146
100
AcDbEntity
  8
0
 62
7
100
AcDbSpline
 70
8
 71
3
 72
8
 73
4
 74
0
 40
0
 40
0
 40
0
 40
0
 40
1
 40
1
 40
1
 40
1
 10
11.821952
 20
45.297358
 30
0.0
 10
11.821952
 20
45.576062
 30
0.0
 10
12.044209
 20
45.798318
 30
0.0
 10
12.322912
 20
45.798318
 30
0.0
  0
SPLINE
  5
147
100
AcDbEntity
  8
0
 62
7
100
AcDbSpline
 70
8
 71
3
 72
8
 73
4
 74
0
 40
0
 40
0
 40
0
 40
0
 40
1
 40
1
 40
1
 40
1
 10
12.322912
 20
45.798318
 30
0.0
 10
12.601616
 20
45.798318
 30
0.0
 10
12.823873
 20
45.576062
 30
0.0
 10
12.823873
 20
45.297358
 30
0.0
  0
SPLINE
  5
148
100
AcDbEntity
  8
0
 62
7
100
AcDbSpline
 70
8
 71
3
 72
8
 73
4
 74
0
 40
0
 40
0
 40
0
 40
0
 40
1
 40
1
 40
1
 40
1
 10
12.823873
 20
45.297358
 30
0.0
 10
12.823873
 20
45.018655
 30
0.0
 10
12.601616
 20
44.796398
 30
0.0
 10
12.322912
 20
44.796398
 30
0.0
  0
LWPOLYLINE
  5
149
100
AcDbEntity
  8
0
 62
7
100
AcDbPolyline
 90
1
 70
1
 10
12.322912
 20
42.796086
 30
0.0
  0
SPLINE
  5
14a
100
AcDbEntity
  8
0
 62
7
100
AcDbSpline
 70
8
 71
3
 72
8
 73
4
 74
0
 40
0
 40
0
 40
0
 40
0
 40
1
 40
1
 40
1
 40
1
 10
12.322912
 20
46.796711
 30
0.0
 10
12.047737
 20
46.796711
 30
0.0
 10
11.821952
 20
47.018968
 30
0.0
 10
11.821952
 20
47.297671
 30
0.0
  0
SPLINE
  5
14b
100
AcDbEntity
  8
0
 62
7
100
AcDbSpline
 70
8
 71
3
 72
8
 73
4
 74
0
 40
0
 40
0
 40
0
 40
0
 40
1
 40
1
 40
1
 40
1
 10
11.821952
 20
47.297671
 30
0.0
 10
11.821952
 20
47.576374
 30
0.0
 10
12.044209
 20
47.798631
 30
0.0
 10
12.322912
 20
47.798631
 30
0.0
  0
SPLINE
  5
14c
100
AcDbEntity
  8
0
 62
7
100
AcDbSpline
 70
8
 71
3
 72
8
 73
4
 74
0
 40
0
 40
0
 40
0
 40
0
 40
1
 40
1
 40
1
 40
1
 10
12.322912
 20
47.798631
 30
0.0
 10
12.601616
 20
47.798631
 30
0.0
 10
12.823873
 20
47.576374
 30
0.0
 10
12.823873
 20
47.297671
 30
0.0
  0
SPLINE
  5
14d
100
AcDbEntity
  8
0
 62
7
100
AcDbSpline
 70
8
 71
3
 72
8
 73
4
 74
0
 40
0
 40
0
 40
0
 40
0
 40
1
 40
1
 40
1
 40
1
 10
12.823873
 20
47.297671
 30
0.0
 10
12.823873
 20
47.018968
 30
0.0
 10
12.601616
 20
46.796711
 30
0.0
 10
12.322912
 20
46.796711
 30
0.0
  0
LWPOLYLINE
  5
14e
100
AcDbEntity
  8
0
 62
7
100
AcDbPolyline
 90
1
 70
1
 10
12.322912
 20
44.796398
 30
0.0
  0
SPLINE
  5
14f
100
AcDbEntity
  8
0
 62
7
100
AcDbSpline
 70
8
 71
3
 72
8
 73
4
 74
0
 40
0
 40
0
 40
0
 40
0
 40
1
 40
1
 40
1
 40
1
 10
12.322912
 20
48.797023
 30
0.0
 10
12.047737
 20
48.797023
 30
0.0
 10
11.821952
 20
49.019280
 30
0.0
 10
11.821952
 20
49.297983
 30
0.0
  0
SPLINE
  5
150
100
AcDbEntity
  8
0
 62
7
100
AcDbSpline
 70
8
 71
3
 72
8
 73
4
 74
0
 40
0
 40
0
 40
0
 40
0
 40
1
 40
1
 40
1
 40
1
 10
11.821952
 20
49.297983
 30
0.0
 10
11.821952
 20
49.576686
 30
0.0
 10
12.044209
 20
49.798943
 30
0.0
 10
12.322912
 20
49.798943
 30
0.0
  0
SPLINE
  5
151
100
AcDbEntity
  8
0
 62
7
100
AcDbSpline
 70
8
 71
3
 72
8
 73
4
 74
0
 40
0
 40
0
 40
0
 40
0
 40
1
 40
1
 40
1
 40
1
 10
12.322912
 20
49.798943
 30
0.0
 10
12.601616
 20
49.798943
 30
0.0
 10
12.823873
 20
49.576686
 30
0.0
 10
12.823873
 20
49.297983
 30
0.0
  0
SPLINE
  5
152
100
AcDbEntity
  8
0
 62
7
100
AcDbSpline
 70
8
 71
3
 72
8
 73
4
 74
0
 40
0
 40
0
 40
0
 40
0
 40
1
 40
1
 40
1
 40
1
 10
12.823873
 20
49.297983
 30
0.0
 10
12.823873
 20
49.019280
 30
0.0
 10
12.601616
 20
48.797023
 30
0.0
 10
12.322912
 20
48.797023
 30
0.0
  0
LWPOLYLINE
  5
153
100
AcDbEntity
  8
0
 62
7
100
AcDbPolyline
 90
1
 70
1
 10
12.322912
 20
46.796711
 30
0.0
  0
SPLINE
  5
154
100
AcDbEntity
  8
0
 62
7
100
AcDbSpline
 70
8
 71
3
 72
8
 73
4
 74
0
 40
0
 40
0
 40
0
 40
0
 40
1
 40
1
 40
1
 40
1
 10
12.322912
 20
50.797336
 30
0.0
 10
12.047737
 20
50.797336
 30
0.0
 10
11.821952
 20
51.019593
 30
0.0
 10
11.821952
 20
51.298296
 30
0.0
  0
SPLINE
  5
155
100
AcDbEntity
  8
0
 62
7
100
AcDbSpline
 70
8
 71
3
 72
8
 73
4
 74
0
 40
0
 40
0
 40
0
 40
0
 40
1
 40
1
 40
1
 40
1
 10
11.821952
 20
51.298296
 30
0.0
 10
11.821952
 20
51.576999
 30
0.0
 10
12.044209
 20
51.799256
 30
0.0
 10
12.322912
 20
51.799256
 30
0.0
  0
SPLINE
  5
156
100
AcDbEntity
  8
0
 62
7
100
AcDbSpline
 70
8
 71
3
 72
8
 73
4
 74
0
 40
0
 40
0
 40
0
 40
0
 40
1
 40
1
 40
1
 40
1
 10
12.322912
 20
51.799256
 30
0.0
 10
12.601616
 20
51.799256
 30
0.0
 10
12.823873
 20
51.576999
 30
0.0
 10
12.823873
 20
51.298296
 30
0.0
  0
SPLINE
  5
157
100
AcDbEntity
  8
0
 62
7
100
AcDbSpline
 70
8
 71
3
 72
8
 73
4
 74
0
 40
0
 40
0
 40
0
 40
0
 40
1
 40
1
 40
1
 40
1
 10
12.823873
 20
51.298296
 30
0.0
 10
12.823873
 20
51.019593
 30
0.0
 10
12.601616
 20
50.797336
 30
0.0
 10
12.322912
 20
50.797336
 30
0.0
  0
LWPOLYLINE
  5
158
100
AcDbEntity
  8
0
 62
7
100
AcDbPolyline
 90
1
 70
1
 10
12.322912
 20
48.797023
 30
0.0
  0
SPLINE
  5
159
100
AcDbEntity
  8
0
 62
7
100
AcDbSpline
 70
8
 71
3
 72
8
 73
4
 74
0
 40
0
 40
0
 40
0
 40
0
 40
1
 40
1
 40
1
 40
1
 10
14.323225
 20
42.796086
 30
0.0
 10
14.048050
 20
42.796086
 30
0.0
 10
13.822265
 20
43.018343
 30
0.0
 10
13.822265
 20
43.297046
 30
0.0
  0
SPLINE
  5
15a
100
AcDbEntity
  8
0
 62
7
100
AcDbSpline
 70
8
 71
3
 72
8
 73
4
 74
0
 40
0
 40
0
 40
0
 40
0
 40
1
 40
1
 40
1
 40
1
 10
13.822265
 20
43.297046
 30
0.0
 10
13.822265
 20
43.575749
 30
0.0
 10
14.044522
 20
43.798006
 30
0.0
 10
14.323225
 20
43.798006
 30
0.0
  0
SPLINE
  5
15b
100
AcDbEntity
  8
0
 62
7
100
AcDbSpline
 70
8
 71
3
 72
8
 73
4
 74
0
 40
0
 40
0
 40
0
 40
0
 40
1
 40
1
 40
1
 40
1
 10
14.323225
 20
43.798006
 30
0.0
 10
14.601928
 20
43.798006
 30
0.0
 10
14.824185
 20
43.575749
 30
0.0
 10
14.824185
 20
43.297046
 30
0.0
  0
SPLINE
  5
15c
100
AcDbEntity
  8
0
 62
7
100
AcDbSpline
 70
8
 71
3
 72
8
 73
4
 74
0
 40
0
 40
0
 40
0
 40
0
 40
1
 40
1
 40
1
 40
1
 10
14.824185
 20
43.297046
 30
0.0
 10
14.824185
 20
43.018343
 30
0.0
 10
14.601928
 20
42.796086
 30
0.0
 10
14.323225
 20
42.796086
 30
0.0
  0
LWPOLYLINE
  5
15d
100
AcDbEntity
  8
0
 62
7
100
AcDbPolyline
 90
1
 70
1
 10
12.322912
 20
50.797336
 30
0.0
  0
SPLINE
  5
15e
100
AcDbEntity
  8
0
 62
7
100
AcDbSpline
 70
8
 71
3
 72
8
 73
4
 74
0
 40
0
 40
0
 40
0
 40
0
 40
1
 40
1
 40
1
 40
1
 10
14.323225
 20
44.796398
 30
0.0
 10
14.048050
 20
44.796398
 30
0.0
 10
13.822265
 20
45.018655
 30
0.0
 10
13.822265
 20
45.297358
 30
0.0
  0
SPLINE
  5
15f
100
AcDbEntity
  8
0
 62
7
100
AcDbSpline
 70
8
 71
3
 72
8
 73
4
 74
0
 40
0
 40
0
 40
0
 40
0
 40
1
 40
1
 40
1
 40
1
 10
13.822265
 20
45.297358
 30
0.0
 10
13.822265
 20
45.576062
 30
0.0
 10
14.044522
 20
45.798318
 30
0.0
 10
14.323225
 20
45.798318
 30
0.0
  0
SPLINE
  5
160
100
AcDbEntity
  8
0
 62
7
100
AcDbSpline
 70
8
 71
3
 72
8
 73
4
 74
0
 40
0
 40
0
 40
0
 40
0
 40
1
 40
1
 40
1
 40
1
 10
14.323225
 20
45.798318
 30
0.0
 10
14.601928
 20
45.798318
 30
0.0
 10
14.824185
 20
45.576062
 30
0.0
 10
14.824185
 20
45.297358
 30
0.0
  0
SPLINE
  5
161
100
AcDbEntity
  8
0
 62
7
100
AcDbSpline
 70
8
 71
3
 72
8
 73
4
 74
0
 40
0
 40
0
 40
0
 40
0
 40
1
 40
1
 40
1
 40
1
 10
14.824185
 20
45.297358
 30
0.0
 10
14.824185
 20
45.018655
 30
0.0
 10
14.601928
 20
44.796398
 30
0.0
 10
14.323225
 20
44.796398
 30
0.0
  0
LWPOLYLINE
  5
162
100
AcDbEntity
  8
0
 62
7
100
AcDbPolyline
 90
1
 70
1
 10
14.323225
 20
42.796086
 30
0.0
  0
SPLINE
  5
163
100
AcDbEntity
  8
0
 62
7
100
AcDbSpline
 70
8
 71
3
 72
8
 73
4
 74
0
 40
0
 40
0
 40
0
 40
0
 40
1
 40
1
 40
1
 40
1
 10
14.323225
 20
46.796711
 30
0.0
 10
14.048050
 20
46.796711
 30
0.0
 10
13.822265
 20
47.018968
 30
0.0
 10
13.822265
 20
47.297671
 30
0.0
  0
SPLINE
  5
164
100
AcDbEntity
  8
0
 62
7
100
AcDbSpline
 70
8
 71
3
 72
8
 73
4
 74
0
 40
0
 40
0
 40
0
 40
0
 40
1
 40
1
 40
1
 40
1
 10
13.822265
 20
47.297671
 30
0.0
 10
13.822265
 20
47.576374
 30
0.0
 10
14.044522
 20
47.798631
 30
0.0
 10
14.323225
 20
47.798631
 30
0.0
  0
SPLINE
  5
165
100
AcDbEntity
  8
0
 62
7
100
AcDbSpline
 70
8
 71
3
 72
8
 73
4
 74
0
 40
0
 40
0
 40
0
 40
0
 40
1
 40
1
 40
1
 40
1
 10
14.323225
 20
47.798631
 30
0.0
 10
14.601928
 20
47.798631
 30
0.0
 10
14.824185
 20
47.576374
 30
0.0
 10
14.824185
 20
47.297671
 30
0.0
  0
SPLINE
  5
166
100
AcDbEntity
  8
0
 62
7
100
AcDbSpline
 70
8
 71
3
 72
8
 73
4
 74
0
 40
0
 40
0
 40
0
 40
0
 40
1
 40
1
 40
1
 40
1
 10
14.824185
 20
47.297671
 30
0.0
 10
14.824185
 20
47.018968
 30
0.0
 10
14.601928
 20
46.796711
 30
0.0
 10
14.323225
 20
46.796711
 30
0.0
  0
LWPOLYLINE
  5
167
100
AcDbEntity
  8
0
 62
7
100
AcDbPolyline
 90
1
 70
1
 10
14.323225
 20
44.796398
 30
0.0
  0
SPLINE
  5
168
100
AcDbEntity
  8
0
 62
7
100
AcDbSpline
 70
8
 71
3
 72
8
 73
4
 74
0
 40
0
 40
0
 40
0
 40
0
 40
1
 40
1
 40
1
 40
1
 10
14.323225
 20
48.797023
 30
0.0
 10
14.048050
 20
48.797023
 30
0.0
 10
13.822265
 20
49.019280
 30
0.0
 10
13.822265
 20
49.297983
 30
0.0
  0
SPLINE
  5
169
100
AcDbEntity
  8
0
 62
7
100
AcDbSpline
 70
8
 71
3
 72
8
 73
4
 74
0
 40
0
 40
0
 40
0
 40
0
 40
1
 40
1
 40
1
 40
1
 10
13.822265
 20
49.297983
 30
0.0
 10
13.822265
 20
49.576686
 30
0.0
 10
14.044522
 20
49.798943
 30
0.0
 10
14.323225
 20
49.798943
 30
0.0
  0
SPLINE
  5
16a
100
AcDbEntity
  8
0
 62
7
100
AcDbSpline
 70
8
 71
3
 72
8
 73
4
 74
0
 40
0
 40
0
 40
0
 40
0
 40
1
 40
1
 40
1
 40
1
 10
14.323225
 20
49.798943
 30
0.0
 10
14.601928
 20
49.798943
 30
0.0
 10
14.824185
 20
49.576686
 30
0.0
 10
14.824185
 20
49.297983
 30
0.0
  0
SPLINE
  5
16b
100
AcDbEntity
  8
0
 62
7
100
AcDbSpline
 70
8
 71
3
 72
8
 73
4
 74
0
 40
0
 40
0
 40
0
 40
0
 40
1
 40
1
 40
1
 40
1
 10
14.824185
 20
49.297983
 30
0.0
 10
14.824185
 20
49.019280
 30
0.0
 10
14.601928
 20
48.797023
 30
0.0
 10
14.323225
 20
48.797023
 30
0.0
  0
LWPOLYLINE
  5
16c
100
AcDbEntity
  8
0
 62
7
100
AcDbPolyline
 90
1
 70
1
 10
14.323225
 20
46.796711
 30
0.0
  0
SPLINE
  5
16d
100
AcDbEntity
  8
0
 62
7
100
AcDbSpline
 70
8
 71
3
 72
8
 73
4
 74
0
 40
0
 40
0
 40
0
 40
0
 40
1
 40
1
 40
1
 40
1
 10
14.323225
 20
50.797336
 30
0.0
 10
14.048050
 20
50.797336
 30
0.0
 10
13.822265
 20
51.019593
 30
0.0
 10
13.822265
 20
51.298296
 30
0.0
  0
SPLINE
  5
16e
100
AcDbEntity
  8
0
 62
7
100
AcDbSpline
 70
8
 71
3
 72
8
 73
4
 74
0
 40
0
 40
0
 40
0
 40
0
 40
1
 40
1
 40
1
 40
1
 10
13.822265
 20
51.298296
 30
0.0
 10
13.822265
 20
51.576999
 30
0.0
 10
14.044522
 20
51.799256
 30
0.0
 10
14.323225
 20
51.799256
 30
0.0
  0
SPLINE
  5
16f
100
AcDbEntity
  8
0
 62
7
100
AcDbSpline
 70
8
 71
3
 72
8
 73
4
 74
0
 40
0
 40
0
 40
0
 40
0
 40
1
 40
1
 40
1
 40
1
 10
14.323225
 20
51.799256
 30
0.0
 10
14.601928
 20
51.799256
 30
0.0
 10
14.824185
 20
51.576999
 30
0.0
 10
14.824185
 20
51.298296
 30
0.0
  0
SPLINE
  5
170
100
AcDbEntity
  8
0
 62
7
100
AcDbSpline
 70
8
 71
3
 72
8
 73
4
 74
0
 40
0
 40
0
 40
0
 40
0
 40
1
 40
1
 40
1
 40
1
 10
14.824185
 20
51.298296
 30
0.0
 10
14.824185
 20
51.019593
 30
0.0
 10
14.601928
 20
50.797336
 30
0.0
 10
14.323225
 20
50.797336
 30
0.0
  0
LWPOLYLINE
  5
171
100
AcDbEntity
  8
0
 62
7
100
AcDbPolyline
 90
1
 70
1
 10
14.323225
 20
48.797023
 30
0.0
  0
SPLINE
  5
172
100
AcDbEntity
  8
0
 62
7
100
AcDbSpline
 70
8
 71
3
 72
8
 73
4
 74
0
 40
0
 40
0
 40
0
 40
0
 40
1
 40
1
 40
1
 40
1
 10
16.323537
 20
42.796086
 30
0.0
 10
16.048362
 20
42.796086
 30
0.0
 10
15.822577
 20
43.018343
 30
0.0
 10
15.822577
 20
43.297046
 30
0.0
  0
SPLINE
  5
173
100
AcDbEntity
  8
0
 62
7
100
AcDbSpline
 70
8
 71
3
 72
8
 73
4
 74
0
 40
0
 40
0
 40
0
 40
0
 40
1
 40
1
 40
1
 40
1
 10
15.822577
 20
43.297046
 30
0.0
 10
15.822577
 20
43.575749
 30
0.0
 10
16.044834
 20
43.798006
 30
0.0
 10
16.323537
 20
43.798006
 30
0.0
  0
SPLINE
  5
174
100
AcDbEntity
  8
0
 62
7
100
AcDbSpline
 70
8
 71
3
 72
8
 73
4
 74
0
 40
0
 40
0
 40
0
 40
0
 40
1
 40
1
 40
1
 40
1
 10
16.323537
 20
43.798006
 30
0.0
 10
16.602240
 20
43.798006
 30
0.0
 10
16.824497
 20
43.575749
 30
0.0
 10
16.824497
 20
43.297046
 30
0.0
  0
SPLINE
  5
175
100
AcDbEntity
  8
0
 62
7
100
AcDbSpline
 70
8
 71
3
 72
8
 73
4
 74
0
 40
0
 40
0
 40
0
 40
0
 40
1
 40
1
 40
1
 40
1
 10
16.824497
 20
43.297046
 30
0.0
 10
16.824497
 20
43.018343
 30
0.0
 10
16.602240
 20
42.796086
 30
0.0
 10
16.323537
 20
42.796086
 30
0.0
  0
LWPOLYLINE
  5
176
100
AcDbEntity
  8
0
 62
7
100
AcDbPolyline
 90
1
 70
1
 10
14.323225
 20
50.797336
 30
0.0
  0
SPLINE
  5
177
100
AcDbEntity
  8
0
 62
7
100
AcDbSpline
 70
8
 71
3
 72
8
 73
4
 74
0
 40
0
 40
0
 40
0
 40
0
 40
1
 40
1
 40
1
 40
1
 10
16.323537
 20
44.796398
 30
0.0
 10
16.048362
 20
44.796398
 30
0.0
 10
15.822577
 20
45.018655
 30
0.0
 10
15.822577
 20
45.297358
 30
0.0
  0
SPLINE
  5
178
100
AcDbEntity
  8
0
 62
7
100
AcDbSpline
 70
8
 71
3
 72
8
 73
4
 74
0
 40
0
 40
0
 40
0
 40
0
 40
1
 40
1
 40
1
 40
1
 10
15.822577
 20
45.297358
 30
0.0
 10
15.822577
 20
45.576062
 30
0.0
 10
16.044834
 20
45.798318
 30
0.0
 10
16.323537
 20
45.798318
 30
0.0
  0
SPLINE
  5
179
100
AcDbEntity
  8
0
 62
7
100
AcDbSpline
 70
8
 71
3
 72
8
 73
4
 74
0
 40
0
 40
0
 40
0
 40
0
 40
1
 40
1
 40
1
 40
1
 10
16.323537
 20
45.798318
 30
0.0
 10
16.602240
 20
45.798318
 30
0.0
 10
16.824497
 20
45.576062
 30
0.0
 10
16.824497
 20
45.297358
 30
0.0
  0
SPLINE
  5
17a
100
AcDbEntity
  8
0
 62
7
100
AcDbSpline
 70
8
 71
3
 72
8
 73
4
 74
0
 40
0
 40
0
 40
0
 40
0
 40
1
 40
1
 40
1
 40
1
 10
16.824497
 20
45.297358
 30
0.0
 10
16.824497
 20
45.018655
 30
0.0
 10
16.602240
 20
44.796398
 30
0.0
 10
16.323537
 20
44.796398
 30
0.0
  0
LWPOLYLINE
  5
17b
100
AcDbEntity
  8
0
 62
7
100
AcDbPolyline
 90
1
 70
1
 10
16.323537
 20
42.796086
 30
0.0
  0
SPLINE
  5
17c
100
AcDbEntity
  8
0
 62
7
100
AcDbSpline
 70
8
 71
3
 72
8
 73
4
 74
0
 40
0
 40
0
 40
0
 40
0
 40
1
 40
1
 40
1
 40
1
 10
16.323537
 20
46.796711
 30
0.0
 10
16.048362
 20
46.796711
 30
0.0
 10
15.822577
 20
47.018968
 30
0.0
 10
15.822577
 20
47.297671
 30
0.0
  0
SPLINE
  5
17d
100
AcDbEntity
  8
0
 62
7
100
AcDbSpline
 70
8
 71
3
 72
8
 73
4
 74
0
 40
0
 40
0
 40
0
 40
0
 40
1
 40
1
 40
1
 40
1
 10
15.822577
 20
47.297671
 30
0.0
 10
15.822577
 20
47.576374
 30
0.0
 10
16.044834
 20
47.798631
 30
0.0
 10
16.323537
 20
47.798631
 30
0.0
  0
SPLINE
  5
17e
100
AcDbEntity
  8
0
 62
7
100
AcDbSpline
 70
8
 71
3
 72
8
 73
4
 74
0
 40
0
 40
0
 40
0
 40
0
 40
1
 40
1
 40
1
 40
1
 10
16.323537
 20
47.798631
 30
0.0
 10
16.602240
 20
47.798631
 30
0.0
 10
16.824497
 20
47.576374
 30
0.0
 10
16.824497
 20
47.297671
 30
0.0
  0
SPLINE
  5
17f
100
AcDbEntity
  8
0
 62
7
100
AcDbSpline
 70
8
 71
3
 72
8
 73
4
 74
0
 40
0
 40
0
 40
0
 40
0
 40
1
 40
1
 40
1
 40
1
 10
16.824497
 20
47.297671
 30
0.0
 10
16.824497
 20
47.018968
 30
0.0
 10
16.602240
 20
46.796711
 30
0.0
 10
16.323537
 20
46.796711
 30
0.0
  0
LWPOLYLINE
  5
180
100
AcDbEntity
  8
0
 62
7
100
AcDbPolyline
 90
1
 70
1
 10
16.323537
 20
44.796398
 30
0.0
  0
SPLINE
  5
181
100
AcDbEntity
  8
0
 62
7
100
AcDbSpline
 70
8
 71
3
 72
8
 73
4
 74
0
 40
0
 40
0
 40
0
 40
0
 40
1
 40
1
 40
1
 40
1
 10
16.323537
 20
48.797023
 30
0.0
 10
16.048362
 20
48.797023
 30
0.0
 10
15.822577
 20
49.019280
 30
0.0
 10
15.822577
 20
49.297983
 30
0.0
  0
SPLINE
  5
182
100
AcDbEntity
  8
0
 62
7
100
AcDbSpline
 70
8
 71
3
 72
8
 73
4
 74
0
 40
0
 40
0
 40
0
 40
0
 40
1
 40
1
 40
1
 40
1
 10
15.822577
 20
49.297983
 30
0.0
 10
15.822577
 20
49.576686
 30
0.0
 10
16.044834
 20
49.798943
 30
0.0
 10
16.323537
 20
49.798943
 30
0.0
  0
SPLINE
  5
183
100
AcDbEntity
  8
0
 62
7
100
AcDbSpline
 70
8
 71
3
 72
8
 73
4
 74
0
 40
0
 40
0
 40
0
 40
0
 40
1
 40
1
 40
1
 40
1
 10
16.323537
 20
49.798943
 30
0.0
 10
16.602240
 20
49.798943
 30
0.0
 10
16.824497
 20
49.576686
 30
0.0
 10
16.824497
 20
49.297983
 30
0.0
  0
SPLINE
  5
184
100
AcDbEntity
  8
0
 62
7
100
AcDbSpline
 70
8
 71
3
 72
8
 73
4
 74
0
 40
0
 40
0
 40
0
 40
0
 40
1
 40
1
 40
1
 40
1
 10
16.824497
 20
49.297983
 30
0.0
 10
16.824497
 20
49.019280
 30
0.0
 10
16.602240
 20
48.797023
 30
0.0
 10
16.323537
 20
48.797023
 30
0.0
  0
LWPOLYLINE
  5
185
100
AcDbEntity
  8
0
 62
7
100
AcDbPolyline
 90
1
 70
1
 10
16.323537
 20
46.796711
 30
0.0
  0
SPLINE
  5
186
100
AcDbEntity
  8
0
 62
7
100
AcDbSpline
 70
8
 71
3
 72
8
 73
4
 74
0
 40
0
 40
0
 40
0
 40
0
 40
1
 40
1
 40
1
 40
1
 10
16.323537
 20
50.797336
 30
0.0
 10
16.048362
 20
50.797336
 30
0.0
 10
15.822577
 20
51.019593
 30
0.0
 10
15.822577
 20
51.298296
 30
0.0
  0
SPLINE
  5
187
100
AcDbEntity
  8
0
 62
7
100
AcDbSpline
 70
8
 71
3
 72
8
 73
4
 74
0
 40
0
 40
0
 40
0
 40
0
 40
1
 40
1
 40
1
 40
1
 10
15.822577
 20
51.298296
 30
0.0
 10
15.822577
 20
51.576999
 30
0.0
 10
16.044834
 20
51.799256
 30
0.0
 10
16.323537
 20
51.799256
 30
0.0
  0
SPLINE
  5
188
100
AcDbEntity
  8
0
 62
7
100
AcDbSpline
 70
8
 71
3
 72
8
 73
4
 74
0
 40
0
 40
0
 40
0
 40
0
 40
1
 40
1
 40
1
 40
1
 10
16.323537
 20
51.799256
 30
0.0
 10
16.602240
 20
51.799256
 30
0.0
 10
16.824497
 20
51.576999
 30
0.0
 10
16.824497
 20
51.298296
 30
0.0
  0
SPLINE
  5
189
100
AcDbEntity
  8
0
 62
7
100
AcDbSpline
 70
8
 71
3
 72
8
 73
4
 74
0
 40
0
 40
0
 40
0
 40
0
 40
1
 40
1
 40
1
 40
1
 10
16.824497
 20
51.298296
 30
0.0
 10
16.824497
 20
51.019593
 30
0.0
 10
16.602240
 20
50.797336
 30
0.0
 10
16.323537
 20
50.797336
 30
0.0
  0
LWPOLYLINE
  5
18a
100
AcDbEntity
  8
0
 62
7
100
AcDbPolyline
 90
1
 70
1
 10
16.323537
 20
48.797023
 30
0.0
  0
SPLINE
  5
18b
100
AcDbEntity
  8
0
 62
7
100
AcDbSpline
 70
8
 71
3
 72
8
 73
4
 74
0
 40
0
 40
0
 40
0
 40
0
 40
1
 40
1
 40
1
 40
1
 10
33.730136
 20
42.171650
 30
0.0
 10
34.308710
 20
42.171650
 30
0.0
 10
34.781447
 20
41.702441
 30
0.0
 10
34.781447
 20
41.120339
 30
0.0
  0
SPLINE
  5
18c
100
AcDbEntity
  8
0
 62
7
100
AcDbSpline
 70
8
 71
3
 72
8
 73
4
 74
0
 40
0
 40
0
 40
0
 40
0
 40
1
 40
1
 40
1
 40
1
 10
34.781447
 20
41.120339
 30
0.0
 10
34.781447
 20
40.538238
 30
0.0
 10
34.312238
 20
40.069029
 30
0.0
 10
33.730136
 20
40.069029
 30
0.0
  0
SPLINE
  5
18d
100
AcDbEntity
  8
0
 62
7
100
AcDbSpline
 70
8
 71
3
 72
8
 73
4
 74
0
 40
0
 40
0
 40
0
 40
0
 40
1
 40
1
 40
1
 40
1
 10
33.730136
 20
40.069029
 30
0.0
 10
33.148035
 20
40.069029
 30
0.0
 10
32.678826
 20
40.538238
 30
0.0
 10
32.678826
 20
41.120339
 30
0.0
  0
SPLINE
  5
18e
100
AcDbEntity
  8
0
 62
7
100
AcDbSpline
 70
8
 71
3
 72
8
 73
4
 74
0
 40
0
 40
0
 40
0
 40
0
 40
1
 40
1
 40
1
 40
1
 10
32.678826
 20
41.120339
 30
0.0
 10
32.678826
 20
41.702441
 30
0.0
 10
33.148035
 20
42.171650
 30
0.0
 10
33.730136
 20
42.171650
 30
0.0
  0
LWPOLYLINE
  5
18f
100
AcDbEntity
  8
0
 62
7
100
AcDbPolyline
 90
1
 70
1
 10
16.323537
 20
50.797336
 30
0.0
  0
SPLINE
  5
190
100
AcDbEntity
  8
0
 62
7
100
AcDbSpline
 70
8
 71
3
 72
8
 73
4
 74
0
 40
0
 40
0
 40
0
 40
0
 40
1
 40
1
 40
1
 40
1
 10
22.155136
 20
42.944257
 30
0.0
 10
22.733710
 20
42.944257
 30
0.0
 10
23.206447
 20
42.475048
 30
0.0
 10
23.206447
 20
41.892947
 30
0.0
  0
SPLINE
  5
191
100
AcDbEntity
  8
0
 62
7
100
AcDbSpline
 70
8
 71
3
 72
8
 73
4
 74
0
 40
0
 40
0
 40
0
 40
0
 40
1
 40
1
 40
1
 40
1
 10
23.206447
 20
41.892947
 30
0.0
 10
23.206447
 20
41.310845
 30
0.0
 10
22.737238
 20
40.841636
 30
0.0
 10
22.155136
 20
40.841636
 30
0.0
  0
SPLINE
  5
192
100
AcDbEntity
  8
0
 62
7
100
AcDbSpline
 70
8
 71
3
 72
8
 73
4
 74
0
 40
0
 40
0
 40
0
 40
0
 40
1
 40
1
 40
1
 40
1
 10
22.155136
 20
40.841636
 30
0.0
 10
21.573035
 20
40.841636
 30
0.0
 10
21.103825
 20
41.310845
 30
0.0
 10
21.103825
 20
41.892947
 30
0.0
  0
SPLINE
  5
193
100
AcDbEntity
  8
0
 62
7
100
AcDbSpline
 70
8
 71
3
 72
8
 73
4
 74
0
 40
0
 40
0
 40
0
 40
0
 40
1
 40
1
 40
1
 40
1
 10
21.103825
 20
41.892947
 30
0.0
 10
21.103825
 20
42.475048
 30
0.0
 10
21.573035
 20
42.944257
 30
0.0
 10
22.155136
 20
42.944257
 30
0.0
  0
LWPOLYLINE
  5
194
100
AcDbEntity
  8
0
 62
7
100
AcDbPolyline
 90
1
 70
1
 10
33.730136
 20
42.171650
 30
0.0
  0
SPLINE
  5
195
100
AcDbEntity
  8
0
 62
7
100
AcDbSpline
 70
8
 71
3
 72
8
 73
4
 74
0
 40
0
 40
0
 40
0
 40
0
 40
1
 40
1
 40
1
 40
1
 10
118.875711
 20
89.829887
 30
0.0
 10
118.487643
 20
89.829887
 30
0.0
 10
118.177189
 20
89.515905
 30
0.0
 10
118.177189
 20
89.131366
 30
0.0
  0
LWPOLYLINE
  5
196
100
AcDbEntity
  8
0
 62
7
100
AcDbPolyline
 90
1
 70
1
 10
22.155136
 20
42.944257
 30
0.0
  0
SPLINE
  5
197
100
AcDbEntity
  8
0
 62
7
100
AcDbSpline
 70
8
 71
3
 72
8
 73
4
 74
0
 40
0
 40
0
 40
0
 40
0
 40
1
 40
1
 40
1
 40
1
 10
118.177189
 20
0.115698
 30
0.0
 10
123.250292
 20
4.804261
 30
0.0
 10
128.831410
 20
8.949529
 30
0.0
 10
134.486615
 20
12.216354
 30
0.0
  0
SPLINE
  5
198
100
AcDbEntity
  8
0
 62
7
100
AcDbSpline
 70
8
 71
3
 72
8
 73
4
 74
0
 40
0
 40
0
 40
0
 40
0
 40
1
 40
1
 40
1
 40
1
 10
134.486615
 20
12.216354
 30
0.0
 10
138.861196
 20
14.742321
 30
0.0
 10
143.450978
 20
16.929612
 30
0.0
 10
148.058399
 20
18.704139
 30
0.0
  0
LWPOLYLINE
  5
199
100
AcDbEntity
  8
0
 62
7
100
AcDbPolyline
 90
2
 70
0
 10
118.177189
 20
89.131366
 30
0.0
 10
118.177189
 20
0.115698
 30
0.0
  0
SPLINE
  5
19a
100
AcDbEntity
  8
0
 62
7
100
AcDbSpline
 70
8
 71
3
 72
8
 73
4
 74
0
 40
0
 40
0
 40
0
 40
0
 40
1
 40
1
 40
1
 40
1
 10
148.086622
 20
81.151283
 30
0.0
 10
148.086622
 20
81.539351
 30
0.0
 10
148.400604
 20
81.849805
 30
0.0
 10
148.785144
 20
81.849805
 30
0.0
  0
LWPOLYLINE
  5
19b
100
AcDbEntity
  8
0
 62
7
100
AcDbPolyline
 90
2
 70
0
 10
148.058399
 20
18.704139
 30
0.0
 10
148.086622
 20
81.151283
 30
0.0
  0
SPLINE
  5
19c
100
AcDbEntity
  8
0
 62
7
100
AcDbSpline
 70
8
 71
3
 72
8
 73
4
 74
0
 40
0
 40
0
 40
0
 40
0
 40
1
 40
1
 40
1
 40
1
 10
167.080771
 20
84.164099
 30
0.0
 10
167.080771
 20
84.552167
 30
0.0
 10
167.394753
 20
84.862621
 30
0.0
 10
167.779293
 20
84.862621
 30
0.0
  0
LWPOLYLINE
  5
19d
100
AcDbEntity
  8
0
 62
7
100
AcDbPolyline
 90
3
 70
0
 10
148.785144
 20
81.849805
 30
0.0
 10
167.080771
 20
81.849805
 30
0.0
 10
167.080771
 20
84.164099
 30
0.0
  0
SPLINE
  5
19e
100
AcDbEntity
  8
0
 62
7
100
AcDbSpline
 70
8
 71
3
 72
8
 73
4
 74
0
 40
0
 40
0
 40
0
 40
0
 40
1
 40
1
 40
1
 40
1
 10
120.780770
 20
88.267033
 30
0.0
 10
121.359344
 20
88.267033
 30
0.0
 10
121.832081
 20
87.797824
 30
0.0
 10
121.832081
 20
87.215722
 30
0.0
  0
SPLINE
  5
19f
100
AcDbEntity
  8
0
 62
7
100
AcDbSpline
 70
8
 71
3
 72
8
 73
4
 74
0
 40
0
 40
0
 40
0
 40
0
 40
1
 40
1
 40
1
 40
1
 10
121.832081
 20
87.215722
 30
0.0
 10
121.832081
 20
86.633621
 30
0.0
 10
121.362872
 20
86.164412
 30
0.0
 10
120.780770
 20
86.164412
 30
0.0
  0
SPLINE
  5
1a0
100
AcDbEntity
  8
0
 62
7
100
AcDbSpline
 70
8
 71
3
 72
8
 73
4
 74
0
 40
0
 40
0
 40
0
 40
0
 40
1
 40
1
 40
1
 40
1
 10
120.780770
 20
86.164412
 30
0.0
 10
120.198669
 20
86.164412
 30
0.0
 10
119.729460
 20
86.633621
 30
0.0
 10
119.729460
 20
87.215722
 30
0.0
  0
SPLINE
  5
1a1
100
AcDbEntity
  8
0
 62
7
100
AcDbSpline
 70
8
 71
3
 72
8
 73
4
 74
0
 40
0
 40
0
 40
0
 40
0
 40
1
 40
1
 40
1
 40
1
 10
119.729460
 20
87.215722
 30
0.0
 10
119.729460
 20
87.797824
 30
0.0
 10
120.198669
 20
88.267033
 30
0.0
 10
120.780770
 20
88.267033
 30
0.0
  0
LWPOLYLINE
  5
1a2
100
AcDbEntity
  8
0
 62
7
100
AcDbPolyline
 90
5
 70
0
 10
167.779293
 20
84.862621
 30
0.0
 10
186.103142
 20
84.862621
 30
0.0
 10
186.089031
 20
89.833415
 30
0.0
 10
118.879239
 20
89.833415
 30
0.0
 10
118.875711
 20
89.829887
 30
0.0
  0
SPLINE
  5
1a3
100
AcDbEntity
  8
0
 62
7
100
AcDbSpline
 70
8
 71
3
 72
8
 73
4
 74
0
 40
0
 40
0
 40
0
 40
0
 40
1
 40
1
 40
1
 40
1
 10
120.780770
 20
6.737544
 30
0.0
 10
120.202196
 20
6.737544
 30
0.0
 10
119.729460
 20
7.206753
 30
0.0
 10
119.729460
 20
7.788854
 30
0.0
  0
SPLINE
  5
1a4
100
AcDbEntity
  8
0
 62
7
100
AcDbSpline
 70
8
 71
3
 72
8
 73
4
 74
0
 40
0
 40
0
 40
0
 40
0
 40
1
 40
1
 40
1
 40
1
 10
119.729460
 20
7.788854
 30
0.0
 10
119.729460
 20
8.370956
 30
0.0
 10
120.198669
 20
8.840165
 30
0.0
 10
120.780770
 20
8.840165
 30
0.0
  0
SPLINE
  5
1a5
100
AcDbEntity
  8
0
 62
7
100
AcDbSpline
 70
8
 71
3
 72
8
 73
4
 74
0
 40
0
 40
0
 40
0
 40
0
 40
1
 40
1
 40
1
 40
1
 10
120.780770
 20
8.840165
 30
0.0
 10
121.362872
 20
8.840165
 30
0.0
 10
121.832081
 20
8.370956
 30
0.0
 10
121.832081
 20
7.788854
 30
0.0
  0
SPLINE
  5
1a6
100
AcDbEntity
  8
0
 62
7
100
AcDbSpline
 70
8
 71
3
 72
8
 73
4
 74
0
 40
0
 40
0
 40
0
 40
0
 40
1
 40
1
 40
1
 40
1
 10
121.832081
 20
7.788854
 30
0.0
 10
121.832081
 20
7.206753
 30
0.0
 10
121.362872
 20
6.737544
 30
0.0
 10
120.780770
 20
6.737544
 30
0.0
  0
LWPOLYLINE
  5
1a7
100
AcDbEntity
  8
0
 62
7
100
AcDbPolyline
 90
1
 70
1
 10
120.780770
 20
88.267033
 30
0.0
  0
SPLINE
  5
1a8
100
AcDbEntity
  8
0
 62
7
100
AcDbSpline
 70
8
 71
3
 72
8
 73
4
 74
0
 40
0
 40
0
 40
0
 40
0
 40
1
 40
1
 40
1
 40
1
 10
133.135434
 20
16.763801
 30
0.0
 10
126.368945
 20
16.763801
 30
0.0
 10
120.886607
 20
22.249667
 30
0.0
 10
120.886607
 20
29.012628
 30
0.0
  0
SPLINE
  5
1a9
100
AcDbEntity
  8
0
 62
7
100
AcDbSpline
 70
8
 71
3
 72
8
 73
4
 74
0
 40
0
 40
0
 40
0
 40
0
 40
1
 40
1
 40
1
 40
1
 10
120.886607
 20
29.012628
 30
0.0
 10
120.886607
 20
35.775589
 30
0.0
 10
126.372472
 20
41.261455
 30
0.0
 10
133.135434
 20
41.261455
 30
0.0
  0
SPLINE
  5
1aa
100
AcDbEntity
  8
0
 62
7
100
AcDbSpline
 70
8
 71
3
 72
8
 73
4
 74
0
 40
0
 40
0
 40
0
 40
0
 40
1
 40
1
 40
1
 40
1
 10
133.135434
 20
41.261455
 30
0.0
 10
139.898395
 20
41.261455
 30
0.0
 10
145.384260
 20
35.775589
 30
0.0
 10
145.384260
 20
29.012628
 30
0.0
  0
SPLINE
  5
1ab
100
AcDbEntity
  8
0
 62
7
100
AcDbSpline
 70
8
 71
3
 72
8
 73
4
 74
0
 40
0
 40
0
 40
0
 40
0
 40
1
 40
1
 40
1
 40
1
 10
145.384260
 20
29.012628
 30
0.0
 10
145.384260
 20
22.249667
 30
0.0
 10
139.898395
 20
16.763801
 30
0.0
 10
133.135434
 20
16.763801
 30
0.0
  0
LWPOLYLINE
  5
1ac
100
AcDbEntity
  8
0
 62
7
100
AcDbPolyline
 90
1
 70
1
 10
120.780770
 20
6.737544
 30
0.0
  0
SPLINE
  5
1ad
100
AcDbEntity
  8
0
 62
7
100
AcDbSpline
 70
8
 71
3
 72
8
 73
4
 74
0
 40
0
 40
0
 40
0
 40
0
 40
1
 40
1
 40
1
 40
1
 10
182.850430
 20
86.136189
 30
0.0
 10
182.271856
 20
86.136189
 30
0.0
 10
181.799119
 20
86.605398
 30
0.0
 10
181.799119
 20
87.187499
 30
0.0
  0
SPLINE
  5
1ae
100
AcDbEntity
  8
0
 62
7
100
AcDbSpline
 70
8
 71
3
 72
8
 73
4
 74
0
 40
0
 40
0
 40
0
 40
0
 40
1
 40
1
 40
1
 40
1
 10
181.799119
 20
87.187499
 30
0.0
 10
181.799119
 20
87.769601
 30
0.0
 10
182.268328
 20
88.238810
 30
0.0
 10
182.850430
 20
88.238810
 30
0.0
  0
SPLINE
  5
1af
100
AcDbEntity
  8
0
 62
7
100
AcDbSpline
 70
8
 71
3
 72
8
 73
4
 74
0
 40
0
 40
0
 40
0
 40
0
 40
1
 40
1
 40
1
 40
1
 10
182.850430
 20
88.238810
 30
0.0
 10
183.432531
 20
88.238810
 30
0.0
 10
183.901740
 20
87.769601
 30
0.0
 10
183.901740
 20
87.187499
 30
0.0
  0
SPLINE
  5
1b0
100
AcDbEntity
  8
0
 62
7
100
AcDbSpline
 70
8
 71
3
 72
8
 73
4
 74
0
 40
0
 40
0
 40
0
 40
0
 40
1
 40
1
 40
1
 40
1
 10
183.901740
 20
87.187499
 30
0.0
 10
183.901740
 20
86.605398
 30
0.0
 10
183.432531
 20
86.136189
 30
0.0
 10
182.850430
 20
86.136189
 30
0.0
  0
LWPOLYLINE
  5
1b1
100
AcDbEntity
  8
0
 62
7
100
AcDbPolyline
 90
2
 70
1
 10
133.135434
 20
16.763801
 30
0.0
 10
133.135434
 20
16.763801
 30
0.0
  0
LWPOLYLINE
  5
1b2
100
AcDbEntity
  8
0
 62
7
100
AcDbPolyline
 90
1
 70
1
 10
182.850430
 20
86.136189
 30
0.0
  0
SPLINE
  5
1b3
100
AcDbEntity
  8
0
 62
7
100
AcDbSpline
 70
8
 71
3
 72
8
 73
4
 74
0
 40
0
 40
0
 40
0
 40
0
 40
1
 40
1
 40
1
 40
1
 10
150.390333
 20
59.027898
 30
0.0
 10
149.670644
 20
59.077289
 30
0.0
 10
149.540112
 20
58.018922
 30
0.0
 10
150.252746
 20
57.895446
 30
0.0
  0
LWPOLYLINE
  5
1b4
100
AcDbEntity
  8
0
 62
7
100
AcDbPolyline
 90
6
 70
0
 10
186.099615
 20
37.243190
 30
0.0
 10
186.099615
 20
79.546094
 30
0.0
 10
180.504384
 20
79.556678
 30
0.0
 10
178.930946
 20
57.052281
 30
0.0
 10
178.930946
 20
57.052281
 30
0.0
 10
150.390333
 20
59.027898
 30
0.0
  0
SPLINE
  5
1b5
100
AcDbEntity
  8
0
 62
7
100
AcDbSpline
 70
8
 71
3
 72
8
 73
4
 74
0
 40
0
 40
0
 40
0
 40
0
 40
1
 40
1
 40
1
 40
1
 10
166.170576
 20
55.104887
 30
0.0
 10
166.551588
 20
55.037857
 30
0.0
 10
166.805596
 20
54.674484
 30
0.0
 10
166.738566
 20
54.293473
 30
0.0
  0
LWPOLYLINE
  5
1b6
100
AcDbEntity
  8
0
 62
7
100
AcDbPolyline
 90
2
 70
0
 10
150.252746
 20
57.895446
 30
0.0
 10
166.170576
 20
55.104887
 30
0.0
  0
SPLINE
  5
1b7
100
AcDbEntity
  8
0
 62
7
100
AcDbSpline
 70
8
 71
3
 72
8
 73
4
 74
0
 40
0
 40
0
 40
0
 40
0
 40
1
 40
1
 40
1
 40
1
 10
185.401093
 20
36.541141
 30
0.0
 10
185.789160
 20
36.541141
 30
0.0
 10
186.099615
 20
36.855123
 30
0.0
 10
186.099615
 20
37.239662
 30
0.0
  0
LWPOLYLINE
  5
1b8
100
AcDbEntity
  8
0
 62
7
100
AcDbPolyline
 90
3
 70
0
 10
166.738566
 20
54.293473
 30
0.0
 10
163.609329
 20
36.541141
 30
0.0
 10
185.401093
 20
36.541141
 30
0.0
  0
SPLINE
  5
1b9
100
AcDbEntity
  8
0
 62
7
100
AcDbSpline
 70
8
 71
3
 72
8
 73
4
 74
0
 40
0
 40
0
 40
0
 40
0
 40
1
 40
1
 40
1
 40
1
 10
182.448251
 20
75.040981
 30
0.0
 10
182.448251
 20
75.619555
 30
0.0
 10
182.917460
 20
76.092292
 30
0.0
 10
183.499561
 20
76.092292
 30
0.0
  0
SPLINE
  5
1ba
100
AcDbEntity
  8
0
 62
7
100
AcDbSpline
 70
8
 71
3
 72
8
 73
4
 74
0
 40
0
 40
0
 40
0
 40
0
 40
1
 40
1
 40
1
 40
1
 10
183.499561
 20
76.092292
 30
0.0
 10
184.081663
 20
76.092292
 30
0.0
 10
184.550872
 20
75.623083
 30
0.0
 10
184.550872
 20
75.040981
 30
0.0
  0
SPLINE
  5
1bb
100
AcDbEntity
  8
0
 62
7
100
AcDbSpline
 70
8
 71
3
 72
8
 73
4
 74
0
 40
0
 40
0
 40
0
 40
0
 40
1
 40
1
 40
1
 40
1
 10
184.550872
 20
75.040981
 30
0.0
 10
184.550872
 20
74.458880
 30
0.0
 10
184.081663
 20
73.989671
 30
0.0
 10
183.499561
 20
73.989671
 30
0.0
  0
SPLINE
  5
1bc
100
AcDbEntity
  8
0
 62
7
100
AcDbSpline
 70
8
 71
3
 72
8
 73
4
 74
0
 40
0
 40
0
 40
0
 40
0
 40
1
 40
1
 40
1
 40
1
 10
183.499561
 20
73.989671
 30
0.0
 10
182.917460
 20
73.989671
 30
0.0
 10
182.448251
 20
74.458880
 30
0.0
 10
182.448251
 20
75.040981
 30
0.0
  0
LWPOLYLINE
  5
1bd
100
AcDbEntity
  8
0
 62
7
100
AcDbPolyline
 90
3
 70
0
 10
186.099615
 20
37.239662
 30
0.0
 10
186.099615
 20
37.239662
 30
0.0
 10
186.099615
 20
37.243190
 30
0.0
  0
SPLINE
  5
1be
100
AcDbEntity
  8
0
 62
7
100
AcDbSpline
 70
8
 71
3
 72
8
 73
4
 74
0
 40
0
 40
0
 40
0
 40
0
 40
1
 40
1
 40
1
 40
1
 10
181.439275
 20
60.199157
 30
0.0
 10
181.439275
 20
60.777730
 30
0.0
 10
181.908484
 20
61.250467
 30
0.0
 10
182.490585
 20
61.250467
 30
0.0
  0
SPLINE
  5
1bf
100
AcDbEntity
  8
0
 62
7
100
AcDbSpline
 70
8
 71
3
 72
8
 73
4
 74
0
 40
0
 40
0
 40
0
 40
0
 40
1
 40
1
 40
1
 40
1
 10
182.490585
 20
61.250467
 30
0.0
 10
183.072687
 20
61.250467
 30
0.0
 10
183.541896
 20
60.781258
 30
0.0
 10
183.541896
 20
60.199157
 30
0.0
  0
SPLINE
  5
1c0
100
AcDbEntity
  8
0
 62
7
100
AcDbSpline
 70
8
 71
3
 72
8
 73
4
 74
0
 40
0
 40
0
 40
0
 40
0
 40
1
 40
1
 40
1
 40
1
 10
183.541896
 20
60.199157
 30
0.0
 10
183.541896
 20
59.617055
 30
0.0
 10
183.072687
 20
59.147846
 30
0.0
 10
182.490585
 20
59.147846
 30
0.0
  0
SPLINE
  5
1c1
100
AcDbEntity
  8
0
 62
7
100
AcDbSpline
 70
8
 71
3
 72
8
 73
4
 74
0
 40
0
 40
0
 40
0
 40
0
 40
1
 40
1
 40
1
 40
1
 10
182.490585
 20
59.147846
 30
0.0
 10
181.908484
 20
59.147846
 30
0.0
 10
181.439275
 20
59.617055
 30
0.0
 10
181.439275
 20
60.199157
 30
0.0
  0
LWPOLYLINE
  5
1c2
100
AcDbEntity
  8
0
 62
7
100
AcDbPolyline
 90
1
 70
1
 10
182.448251
 20
75.040981
 30
0.0
  0
SPLINE
  5
1c3
100
AcDbEntity
  8
0
 62
7
100
AcDbSpline
 70
8
 71
3
 72
8
 73
4
 74
0
 40
0
 40
0
 40
0
 40
0
 40
1
 40
1
 40
1
 40
1
 10
50.180677
 20
48.793495
 30
0.0
 10
50.180677
 20
40.647602
 30
0.0
 10
56.784884
 20
34.043396
 30
0.0
 10
64.930777
 20
34.043396
 30
0.0
  0
SPLINE
  5
1c4
100
AcDbEntity
  8
0
 62
7
100
AcDbSpline
 70
8
 71
3
 72
8
 73
4
 74
0
 40
0
 40
0
 40
0
 40
0
 40
1
 40
1
 40
1
 40
1
 10
64.930777
 20
34.043396
 30
0.0
 10
73.076670
 20
34.043396
 30
0.0
 10
79.680876
 20
40.647602
 30
0.0
 10
79.680876
 20
48.793495
 30
0.0
  0
SPLINE
  5
1c5
100
AcDbEntity
  8
0
 62
7
100
AcDbSpline
 70
8
 71
3
 72
8
 73
4
 74
0
 40
0
 40
0
 40
0
 40
0
 40
1
 40
1
 40
1
 40
1
 10
79.680876
 20
48.793495
 30
0.0
 10
79.680876
 20
56.939388
 30
0.0
 10
73.076670
 20
63.543595
 30
0.0
 10
64.930777
 20
63.543595
 30
0.0
  0
SPLINE
  5
1c6
100
AcDbEntity
  8
0
 62
7
100
AcDbSpline
 70
8
 71
3
 72
8
 73
4
 74
0
 40
0
 40
0
 40
0
 40
0
 40
1
 40
1
 40
1
 40
1
 10
64.930777
 20
63.543595
 30
0.0
 10
56.784884
 20
63.543595
 30
0.0
 10
50.180677
 20
56.939388
 30
0.0
 10
50.180677
 20
48.793495
 30
0.0
  0
LWPOLYLINE
  5
1c7
100
AcDbEntity
  8
0
 62
7
100
AcDbPolyline
 90
1
 70
1
 10
181.439275
 20
60.199157
 30
0.0
  0
SPLINE
  5
1c8
100
AcDbEntity
  8
0
 62
7
100
AcDbSpline
 70
8
 71
3
 72
8
 73
4
 74
0
 40
0
 40
0
 40
0
 40
0
 40
1
 40
1
 40
1
 40
1
 10
52.681950
 20
48.793495
 30
0.0
 10
52.681950
 20
55.556456
 30
0.0
 10
58.167816
 20
61.042322
 30
0.0
 10
64.930777
 20
61.042322
 30
0.0
  0
SPLINE
  5
1c9
100
AcDbEntity
  8
0
 62
7
100
AcDbSpline
 70
8
 71
3
 72
8
 73
4
 74
0
 40
0
 40
0
 40
0
 40
0
 40
1
 40
1
 40
1
 40
1
 10
64.930777
 20
61.042322
 30
0.0
 10
71.693738
 20
61.042322
 30
0.0
 10
77.179604
 20
55.556456
 30
0.0
 10
77.179604
 20
48.793495
 30
0.0
  0
SPLINE
  5
1ca
100
AcDbEntity
  8
0
 62
7
100
AcDbSpline
 70
8
 71
3
 72
8
 73
4
 74
0
 40
0
 40
0
 40
0
 40
0
 40
1
 40
1
 40
1
 40
1
 10
77.179604
 20
48.793495
 30
0.0
 10
77.179604
 20
42.030534
 30
0.0
 10
71.697266
 20
36.544668
 30
0.0
 10
64.930777
 20
36.544668
 30
0.0
  0
SPLINE
  5
1cb
100
AcDbEntity
  8
0
 62
7
100
AcDbSpline
 70
8
 71
3
 72
8
 73
4
 74
0
 40
0
 40
0
 40
0
 40
0
 40
1
 40
1
 40
1
 40
1
 10
64.930777
 20
36.544668
 30
0.0
 10
58.164288
 20
36.544668
 30
0.0
 10
52.681950
 20
42.030534
 30
0.0
 10
52.681950
 20
48.793495
 30
0.0
  0
LWPOLYLINE
  5
1cc
100
AcDbEntity
  8
0
 62
7
100
AcDbPolyline
 90
2
 70
1
 10
50.180677
 20
48.793495
 30
0.0
 10
50.180677
 20
48.793495
 30
0.0
  0
SPLINE
  5
1cd
100
AcDbEntity
  8
0
 62
7
100
AcDbSpline
 70
8
 71
3
 72
8
 73
4
 74
0
 40
0
 40
0
 40
0
 40
0
 40
1
 40
1
 40
1
 40
1
 10
21.597730
 20
25.876335
 30
0.0
 10
21.625953
 20
25.488268
 30
0.0
 10
21.333138
 20
25.156646
 30
0.0
 10
20.948598
 20
25.128423
 30
0.0
  0
LWPOLYLINE
  5
1ce
100
AcDbEntity
  8
0
 62
7
100
AcDbPolyline
 90
2
 70
1
 10
52.681950
 20
48.793495
 30
0.0
 10
52.681950
 20
48.793495
 30
0.0
  0
SPLINE
  5
1cf
100
AcDbEntity
  8
0
 62
7
100
AcDbSpline
 70
8
 71
3
 72
8
 73
4
 74
0
 40
0
 40
0
 40
0
 40
0
 40
1
 40
1
 40
1
 40
1
 10
35.183626
 20
24.098280
 30
0.0
 10
35.183626
 20
24.486348
 30
0.0
 10
35.497608
 20
24.800330
 30
0.0
 10
35.885676
 20
24.800330
 30
0.0
  0
LWPOLYLINE
  5
1d0
100
AcDbEntity
  8
0
 62
7
100
AcDbPolyline
 90
6
 70
0
 10
20.948598
 20
25.128423
 30
0.0
 10
2.751753
 20
23.854856
 30
0.0
 10
4.085294
 20
16.541544
 30
0.0
 10
19.177599
 20
17.599910
 30
0.0
 10
35.158931
 20
17.599910
 30
0.0
 10
35.183626
 20
24.098280
 30
0.0
  0
SPLINE
  5
1d1
100
AcDbEntity
  8
0
 62
7
100
AcDbSpline
 70
8
 71
3
 72
8
 73
4
 74
0
 40
0
 40
0
 40
0
 40
0
 40
1
 40
1
 40
1
 40
1
 10
32.061445
 20
22.718876
 30
0.0
 10
32.061445
 20
22.997579
 30
0.0
 10
32.283702
 20
23.219836
 30
0.0
 10
32.562405
 20
23.219836
 30
0.0
  0
SPLINE
  5
1d2
100
AcDbEntity
  8
0
 62
7
100
AcDbSpline
 70
8
 71
3
 72
8
 73
4
 74
0
 40
0
 40
0
 40
0
 40
0
 40
1
 40
1
 40
1
 40
1
 10
32.562405
 20
23.219836
 30
0.0
 10
32.841108
 20
23.219836
 30
0.0
 10
33.063365
 20
22.997579
 30
0.0
 10
33.063365
 20
22.718876
 30
0.0
  0
SPLINE
  5
1d3
100
AcDbEntity
  8
0
 62
7
100
AcDbSpline
 70
8
 71
3
 72
8
 73
4
 74
0
 40
0
 40
0
 40
0
 40
0
 40
1
 40
1
 40
1
 40
1
 10
33.063365
 20
22.718876
 30
0.0
 10
33.063365
 20
22.440173
 30
0.0
 10
32.837581
 20
22.217916
 30
0.0
 10
32.562405
 20
22.217916
 30
0.0
  0
SPLINE
  5
1d4
100
AcDbEntity
  8
0
 62
7
100
AcDbSpline
 70
8
 71
3
 72
8
 73
4
 74
0
 40
0
 40
0
 40
0
 40
0
 40
1
 40
1
 40
1
 40
1
 10
32.562405
 20
22.217916
 30
0.0
 10
32.287230
 20
22.217916
 30
0.0
 10
32.061445
 20
22.440173
 30
0.0
 10
32.061445
 20
22.718876
 30
0.0
  0
LWPOLYLINE
  5
1d5
100
AcDbEntity
  8
0
 62
7
100
AcDbPolyline
 90
7
 70
0
 10
35.885676
 20
24.800330
 30
0.0
 10
38.132940
 20
24.800330
 30
0.0
 10
38.132940
 20
34.748974
 30
0.0
 10
20.976821
 20
34.748974
 30
0.0
 10
21.597730
 20
25.872808
 30
0.0
 10
21.597730
 20
25.872808
 30
0.0
 10
21.597730
 20
25.876335
 30
0.0
  0
SPLINE
  5
1d6
100
AcDbEntity
  8
0
 62
7
100
AcDbSpline
 70
8
 71
3
 72
8
 73
4
 74
0
 40
0
 40
0
 40
0
 40
0
 40
1
 40
1
 40
1
 40
1
 10
32.061445
 20
24.719188
 30
0.0
 10
32.061445
 20
24.997891
 30
0.0
 10
32.283702
 20
25.220148
 30
0.0
 10
32.562405
 20
25.220148
 30
0.0
  0
SPLINE
  5
1d7
100
AcDbEntity
  8
0
 62
7
100
AcDbSpline
 70
8
 71
3
 72
8
 73
4
 74
0
 40
0
 40
0
 40
0
 40
0
 40
1
 40
1
 40
1
 40
1
 10
32.562405
 20
25.220148
 30
0.0
 10
32.841108
 20
25.220148
 30
0.0
 10
33.063365
 20
24.997891
 30
0.0
 10
33.063365
 20
24.719188
 30
0.0
  0
SPLINE
  5
1d8
100
AcDbEntity
  8
0
 62
7
100
AcDbSpline
 70
8
 71
3
 72
8
 73
4
 74
0
 40
0
 40
0
 40
0
 40
0
 40
1
 40
1
 40
1
 40
1
 10
33.063365
 20
24.719188
 30
0.0
 10
33.063365
 20
24.440485
 30
0.0
 10
32.837581
 20
24.218228
 30
0.0
 10
32.562405
 20
24.218228
 30
0.0
  0
SPLINE
  5
1d9
100
AcDbEntity
  8
0
 62
7
100
AcDbSpline
 70
8
 71
3
 72
8
 73
4
 74
0
 40
0
 40
0
 40
0
 40
0
 40
1
 40
1
 40
1
 40
1
 10
32.562405
 20
24.218228
 30
0.0
 10
32.287230
 20
24.218228
 30
0.0
 10
32.061445
 20
24.440485
 30
0.0
 10
32.061445
 20
24.719188
 30
0.0
  0
LWPOLYLINE
  5
1da
100
AcDbEntity
  8
0
 62
7
100
AcDbPolyline
 90
1
 70
1
 10
32.061445
 20
22.718876
 30
0.0
  0
SPLINE
  5
1db
100
AcDbEntity
  8
0
 62
7
100
AcDbSpline
 70
8
 71
3
 72
8
 73
4
 74
0
 40
0
 40
0
 40
0
 40
0
 40
1
 40
1
 40
1
 40
1
 10
32.061445
 20
26.719501
 30
0.0
 10
32.061445
 20
26.998204
 30
0.0
 10
32.283702
 20
27.220461
 30
0.0
 10
32.562405
 20
27.220461
 30
0.0
  0
SPLINE
  5
1dc
100
AcDbEntity
  8
0
 62
7
100
AcDbSpline
 70
8
 71
3
 72
8
 73
4
 74
0
 40
0
 40
0
 40
0
 40
0
 40
1
 40
1
 40
1
 40
1
 10
32.562405
 20
27.220461
 30
0.0
 10
32.841108
 20
27.220461
 30
0.0
 10
33.063365
 20
26.998204
 30
0.0
 10
33.063365
 20
26.719501
 30
0.0
  0
SPLINE
  5
1dd
100
AcDbEntity
  8
0
 62
7
100
AcDbSpline
 70
8
 71
3
 72
8
 73
4
 74
0
 40
0
 40
0
 40
0
 40
0
 40
1
 40
1
 40
1
 40
1
 10
33.063365
 20
26.719501
 30
0.0
 10
33.063365
 20
26.440798
 30
0.0
 10
32.837581
 20
26.218541
 30
0.0
 10
32.562405
 20
26.218541
 30
0.0
  0
SPLINE
  5
1de
100
AcDbEntity
  8
0
 62
7
100
AcDbSpline
 70
8
 71
3
 72
8
 73
4
 74
0
 40
0
 40
0
 40
0
 40
0
 40
1
 40
1
 40
1
 40
1
 10
32.562405
 20
26.218541
 30
0.0
 10
32.287230
 20
26.218541
 30
0.0
 10
32.061445
 20
26.440798
 30
0.0
 10
32.061445
 20
26.719501
 30
0.0
  0
LWPOLYLINE
  5
1df
100
AcDbEntity
  8
0
 62
7
100
AcDbPolyline
 90
1
 70
1
 10
32.061445
 20
24.719188
 30
0.0
  0
SPLINE
  5
1e0
100
AcDbEntity
  8
0
 62
7
100
AcDbSpline
 70
8
 71
3
 72
8
 73
4
 74
0
 40
0
 40
0
 40
0
 40
0
 40
1
 40
1
 40
1
 40
1
 10
32.061445
 20
28.719813
 30
0.0
 10
32.061445
 20
28.998516
 30
0.0
 10
32.283702
 20
29.220773
 30
0.0
 10
32.562405
 20
29.220773
 30
0.0
  0
SPLINE
  5
1e1
100
AcDbEntity
  8
0
 62
7
100
AcDbSpline
 70
8
 71
3
 72
8
 73
4
 74
0
 40
0
 40
0
 40
0
 40
0
 40
1
 40
1
 40
1
 40
1
 10
32.562405
 20
29.220773
 30
0.0
 10
32.841108
 20
29.220773
 30
0.0
 10
33.063365
 20
28.998516
 30
0.0
 10
33.063365
 20
28.719813
 30
0.0
  0
SPLINE
  5
1e2
100
AcDbEntity
  8
0
 62
7
100
AcDbSpline
 70
8
 71
3
 72
8
 73
4
 74
0
 40
0
 40
0
 40
0
 40
0
 40
1
 40
1
 40
1
 40
1
 10
33.063365
 20
28.719813
 30
0.0
 10
33.063365
 20
28.441110
 30
0.0
 10
32.837581
 20
28.218853
 30
0.0
 10
32.562405
 20
28.218853
 30
0.0
  0
SPLINE
  5
1e3
100
AcDbEntity
  8
0
 62
7
100
AcDbSpline
 70
8
 71
3
 72
8
 73
4
 74
0
 40
0
 40
0
 40
0
 40
0
 40
1
 40
1
 40
1
 40
1
 10
32.562405
 20
28.218853
 30
0.0
 10
32.287230
 20
28.218853
 30
0.0
 10
32.061445
 20
28.441110
 30
0.0
 10
32.061445
 20
28.719813
 30
0.0
  0
LWPOLYLINE
  5
1e4
100
AcDbEntity
  8
0
 62
7
100
AcDbPolyline
 90
1
 70
1
 10
32.061445
 20
26.719501
 30
0.0
  0
SPLINE
  5
1e5
100
AcDbEntity
  8
0
 62
7
100
AcDbSpline
 70
8
 71
3
 72
8
 73
4
 74
0
 40
0
 40
0
 40
0
 40
0
 40
1
 40
1
 40
1
 40
1
 10
32.061445
 20
30.720126
 30
0.0
 10
32.061445
 20
30.998829
 30
0.0
 10
32.283702
 20
31.221086
 30
0.0
 10
32.562405
 20
31.221086
 30
0.0
  0
SPLINE
  5
1e6
100
AcDbEntity
  8
0
 62
7
100
AcDbSpline
 70
8
 71
3
 72
8
 73
4
 74
0
 40
0
 40
0
 40
0
 40
0
 40
1
 40
1
 40
1
 40
1
 10
32.562405
 20
31.221086
 30
0.0
 10
32.841108
 20
31.221086
 30
0.0
 10
33.063365
 20
30.998829
 30
0.0
 10
33.063365
 20
30.720126
 30
0.0
  0
SPLINE
  5
1e7
100
AcDbEntity
  8
0
 62
7
100
AcDbSpline
 70
8
 71
3
 72
8
 73
4
 74
0
 40
0
 40
0
 40
0
 40
0
 40
1
 40
1
 40
1
 40
1
 10
33.063365
 20
30.720126
 30
0.0
 10
33.063365
 20
30.441422
 30
0.0
 10
32.837581
 20
30.219165
 30
0.0
 10
32.562405
 20
30.219165
 30
0.0
  0
SPLINE
  5
1e8
100
AcDbEntity
  8
0
 62
7
100
AcDbSpline
 70
8
 71
3
 72
8
 73
4
 74
0
 40
0
 40
0
 40
0
 40
0
 40
1
 40
1
 40
1
 40
1
 10
32.562405
 20
30.219165
 30
0.0
 10
32.287230
 20
30.219165
 30
0.0
 10
32.061445
 20
30.441422
 30
0.0
 10
32.061445
 20
30.720126
 30
0.0
  0
LWPOLYLINE
  5
1e9
100
AcDbEntity
  8
0
 62
7
100
AcDbPolyline
 90
1
 70
1
 10
32.061445
 20
28.719813
 30
0.0
  0
SPLINE
  5
1ea
100
AcDbEntity
  8
0
 62
7
100
AcDbSpline
 70
8
 71
3
 72
8
 73
4
 74
0
 40
0
 40
0
 40
0
 40
0
 40
1
 40
1
 40
1
 40
1
 10
30.061133
 20
22.718876
 30
0.0
 10
30.061133
 20
22.997579
 30
0.0
 10
30.283390
 20
23.219836
 30
0.0
 10
30.562093
 20
23.219836
 30
0.0
  0
SPLINE
  5
1eb
100
AcDbEntity
  8
0
 62
7
100
AcDbSpline
 70
8
 71
3
 72
8
 73
4
 74
0
 40
0
 40
0
 40
0
 40
0
 40
1
 40
1
 40
1
 40
1
 10
30.562093
 20
23.219836
 30
0.0
 10
30.840796
 20
23.219836
 30
0.0
 10
31.063053
 20
22.997579
 30
0.0
 10
31.063053
 20
22.718876
 30
0.0
  0
SPLINE
  5
1ec
100
AcDbEntity
  8
0
 62
7
100
AcDbSpline
 70
8
 71
3
 72
8
 73
4
 74
0
 40
0
 40
0
 40
0
 40
0
 40
1
 40
1
 40
1
 40
1
 10
31.063053
 20
22.718876
 30
0.0
 10
31.063053
 20
22.440173
 30
0.0
 10
30.837268
 20
22.217916
 30
0.0
 10
30.562093
 20
22.217916
 30
0.0
  0
SPLINE
  5
1ed
100
AcDbEntity
  8
0
 62
7
100
AcDbSpline
 70
8
 71
3
 72
8
 73
4
 74
0
 40
0
 40
0
 40
0
 40
0
 40
1
 40
1
 40
1
 40
1
 10
30.562093
 20
22.217916
 30
0.0
 10
30.286918
 20
22.217916
 30
0.0
 10
30.061133
 20
22.440173
 30
0.0
 10
30.061133
 20
22.718876
 30
0.0
  0
LWPOLYLINE
  5
1ee
100
AcDbEntity
  8
0
 62
7
100
AcDbPolyline
 90
1
 70
1
 10
32.061445
 20
30.720126
 30
0.0
  0
SPLINE
  5
1ef
100
AcDbEntity
  8
0
 62
7
100
AcDbSpline
 70
8
 71
3
 72
8
 73
4
 74
0
 40
0
 40
0
 40
0
 40
0
 40
1
 40
1
 40
1
 40
1
 10
30.061133
 20
24.719188
 30
0.0
 10
30.061133
 20
24.997891
 30
0.0
 10
30.283390
 20
25.220148
 30
0.0
 10
30.562093
 20
25.220148
 30
0.0
  0
SPLINE
  5
1f0
100
AcDbEntity
  8
0
 62
7
100
AcDbSpline
 70
8
 71
3
 72
8
 73
4
 74
0
 40
0
 40
0
 40
0
 40
0
 40
1
 40
1
 40
1
 40
1
 10
30.562093
 20
25.220148
 30
0.0
 10
30.840796
 20
25.220148
 30
0.0
 10
31.063053
 20
24.997891
 30
0.0
 10
31.063053
 20
24.719188
 30
0.0
  0
SPLINE
  5
1f1
100
AcDbEntity
  8
0
 62
7
100
AcDbSpline
 70
8
 71
3
 72
8
 73
4
 74
0
 40
0
 40
0
 40
0
 40
0
 40
1
 40
1
 40
1
 40
1
 10
31.063053
 20
24.719188
 30
0.0
 10
31.063053
 20
24.440485
 30
0.0
 10
30.837268
 20
24.218228
 30
0.0
 10
30.562093
 20
24.218228
 30
0.0
  0
SPLINE
  5
1f2
100
AcDbEntity
  8
0
 62
7
100
AcDbSpline
 70
8
 71
3
 72
8
 73
4
 74
0
 40
0
 40
0
 40
0
 40
0
 40
1
 40
1
 40
1
 40
1
 10
30.562093
 20
24.218228
 30
0.0
 10
30.286918
 20
24.218228
 30
0.0
 10
30.061133
 20
24.440485
 30
0.0
 10
30.061133
 20
24.719188
 30
0.0
  0
LWPOLYLINE
  5
1f3
100
AcDbEntity
  8
0
 62
7
100
AcDbPolyline
 90
1
 70
1
 10
30.061133
 20
22.718876
 30
0.0
  0
SPLINE
  5
1f4
100
AcDbEntity
  8
0
 62
7
100
AcDbSpline
 70
8
 71
3
 72
8
 73
4
 74
0
 40
0
 40
0
 40
0
 40
0
 40
1
 40
1
 40
1
 40
1
 10
30.061133
 20
26.719501
 30
0.0
 10
30.061133
 20
26.998204
 30
0.0
 10
30.283390
 20
27.220461
 30
0.0
 10
30.562093
 20
27.220461
 30
0.0
  0
SPLINE
  5
1f5
100
AcDbEntity
  8
0
 62
7
100
AcDbSpline
 70
8
 71
3
 72
8
 73
4
 74
0
 40
0
 40
0
 40
0
 40
0
 40
1
 40
1
 40
1
 40
1
 10
30.562093
 20
27.220461
 30
0.0
 10
30.840796
 20
27.220461
 30
0.0
 10
31.063053
 20
26.998204
 30
0.0
 10
31.063053
 20
26.719501
 30
0.0
  0
SPLINE
  5
1f6
100
AcDbEntity
  8
0
 62
7
100
AcDbSpline
 70
8
 71
3
 72
8
 73
4
 74
0
 40
0
 40
0
 40
0
 40
0
 40
1
 40
1
 40
1
 40
1
 10
31.063053
 20
26.719501
 30
0.0
 10
31.063053
 20
26.440798
 30
0.0
 10
30.837268
 20
26.218541
 30
0.0
 10
30.562093
 20
26.218541
 30
0.0
  0
SPLINE
  5
1f7
100
AcDbEntity
  8
0
 62
7
100
AcDbSpline
 70
8
 71
3
 72
8
 73
4
 74
0
 40
0
 40
0
 40
0
 40
0
 40
1
 40
1
 40
1
 40
1
 10
30.562093
 20
26.218541
 30
0.0
 10
30.286918
 20
26.218541
 30
0.0
 10
30.061133
 20
26.440798
 30
0.0
 10
30.061133
 20
26.719501
 30
0.0
  0
LWPOLYLINE
  5
1f8
100
AcDbEntity
  8
0
 62
7
100
AcDbPolyline
 90
1
 70
1
 10
30.061133
 20
24.719188
 30
0.0
  0
SPLINE
  5
1f9
100
AcDbEntity
  8
0
 62
7
100
AcDbSpline
 70
8
 71
3
 72
8
 73
4
 74
0
 40
0
 40
0
 40
0
 40
0
 40
1
 40
1
 40
1
 40
1
 10
30.061133
 20
28.719813
 30
0.0
 10
30.061133
 20
28.998516
 30
0.0
 10
30.283390
 20
29.220773
 30
0.0
 10
30.562093
 20
29.220773
 30
0.0
  0
SPLINE
  5
1fa
100
AcDbEntity
  8
0
 62
7
100
AcDbSpline
 70
8
 71
3
 72
8
 73
4
 74
0
 40
0
 40
0
 40
0
 40
0
 40
1
 40
1
 40
1
 40
1
 10
30.562093
 20
29.220773
 30
0.0
 10
30.840796
 20
29.220773
 30
0.0
 10
31.063053
 20
28.998516
 30
0.0
 10
31.063053
 20
28.719813
 30
0.0
  0
SPLINE
  5
1fb
100
AcDbEntity
  8
0
 62
7
100
AcDbSpline
 70
8
 71
3
 72
8
 73
4
 74
0
 40
0
 40
0
 40
0
 40
0
 40
1
 40
1
 40
1
 40
1
 10
31.063053
 20
28.719813
 30
0.0
 10
31.063053
 20
28.441110
 30
0.0
 10
30.837268
 20
28.218853
 30
0.0
 10
30.562093
 20
28.218853
 30
0.0
  0
SPLINE
  5
1fc
100
AcDbEntity
  8
0
 62
7
100
AcDbSpline
 70
8
 71
3
 72
8
 73
4
 74
0
 40
0
 40
0
 40
0
 40
0
 40
1
 40
1
 40
1
 40
1
 10
30.562093
 20
28.218853
 30
0.0
 10
30.286918
 20
28.218853
 30
0.0
 10
30.061133
 20
28.441110
 30
0.0
 10
30.061133
 20
28.719813
 30
0.0
  0
LWPOLYLINE
  5
1fd
100
AcDbEntity
  8
0
 62
7
100
AcDbPolyline
 90
1
 70
1
 10
30.061133
 20
26.719501
 30
0.0
  0
SPLINE
  5
1fe
100
AcDbEntity
  8
0
 62
7
100
AcDbSpline
 70
8
 71
3
 72
8
 73
4
 74
0
 40
0
 40
0
 40
0
 40
0
 40
1
 40
1
 40
1
 40
1
 10
30.061133
 20
30.720126
 30
0.0
 10
30.061133
 20
30.998829
 30
0.0
 10
30.283390
 20
31.221086
 30
0.0
 10
30.562093
 20
31.221086
 30
0.0
  0
SPLINE
  5
1ff
100
AcDbEntity
  8
0
 62
7
100
AcDbSpline
 70
8
 71
3
 72
8
 73
4
 74
0
 40
0
 40
0
 40
0
 40
0
 40
1
 40
1
 40
1
 40
1
 10
30.562093
 20
31.221086
 30
0.0
 10
30.840796
 20
31.221086
 30
0.0
 10
31.063053
 20
30.998829
 30
0.0
 10
31.063053
 20
30.720126
 30
0.0
  0
SPLINE
  5
200
100
AcDbEntity
  8
0
 62
7
100
AcDbSpline
 70
8
 71
3
 72
8
 73
4
 74
0
 40
0
 40
0
 40
0
 40
0
 40
1
 40
1
 40
1
 40
1
 10
31.063053
 20
30.720126
 30
0.0
 10
31.063053
 20
30.441422
 30
0.0
 10
30.837268
 20
30.219165
 30
0.0
 10
30.562093
 20
30.219165
 30
0.0
  0
SPLINE
  5
201
100
AcDbEntity
  8
0
 62
7
100
AcDbSpline
 70
8
 71
3
 72
8
 73
4
 74
0
 40
0
 40
0
 40
0
 40
0
 40
1
 40
1
 40
1
 40
1
 10
30.562093
 20
30.219165
 30
0.0
 10
30.286918
 20
30.219165
 30
0.0
 10
30.061133
 20
30.441422
 30
0.0
 10
30.061133
 20
30.720126
 30
0.0
  0
LWPOLYLINE
  5
202
100
AcDbEntity
  8
0
 62
7
100
AcDbPolyline
 90
1
 70
1
 10
30.061133
 20
28.719813
 30
0.0
  0
SPLINE
  5
203
100
AcDbEntity
  8
0
 62
7
100
AcDbSpline
 70
8
 71
3
 72
8
 73
4
 74
0
 40
0
 40
0
 40
0
 40
0
 40
1
 40
1
 40
1
 40
1
 10
28.060820
 20
22.718876
 30
0.0
 10
28.060820
 20
22.997579
 30
0.0
 10
28.283077
 20
23.219836
 30
0.0
 10
28.561780
 20
23.219836
 30
0.0
  0
SPLINE
  5
204
100
AcDbEntity
  8
0
 62
7
100
AcDbSpline
 70
8
 71
3
 72
8
 73
4
 74
0
 40
0
 40
0
 40
0
 40
0
 40
1
 40
1
 40
1
 40
1
 10
28.561780
 20
23.219836
 30
0.0
 10
28.840484
 20
23.219836
 30
0.0
 10
29.062741
 20
22.997579
 30
0.0
 10
29.062741
 20
22.718876
 30
0.0
  0
SPLINE
  5
205
100
AcDbEntity
  8
0
 62
7
100
AcDbSpline
 70
8
 71
3
 72
8
 73
4
 74
0
 40
0
 40
0
 40
0
 40
0
 40
1
 40
1
 40
1
 40
1
 10
29.062741
 20
22.718876
 30
0.0
 10
29.062741
 20
22.440173
 30
0.0
 10
28.836956
 20
22.217916
 30
0.0
 10
28.561780
 20
22.217916
 30
0.0
  0
SPLINE
  5
206
100
AcDbEntity
  8
0
 62
7
100
AcDbSpline
 70
8
 71
3
 72
8
 73
4
 74
0
 40
0
 40
0
 40
0
 40
0
 40
1
 40
1
 40
1
 40
1
 10
28.561780
 20
22.217916
 30
0.0
 10
28.286605
 20
22.217916
 30
0.0
 10
28.060820
 20
22.440173
 30
0.0
 10
28.060820
 20
22.718876
 30
0.0
  0
LWPOLYLINE
  5
207
100
AcDbEntity
  8
0
 62
7
100
AcDbPolyline
 90
1
 70
1
 10
30.061133
 20
30.720126
 30
0.0
  0
SPLINE
  5
208
100
AcDbEntity
  8
0
 62
7
100
AcDbSpline
 70
8
 71
3
 72
8
 73
4
 74
0
 40
0
 40
0
 40
0
 40
0
 40
1
 40
1
 40
1
 40
1
 10
28.060820
 20
24.719188
 30
0.0
 10
28.060820
 20
24.997891
 30
0.0
 10
28.283077
 20
25.220148
 30
0.0
 10
28.561780
 20
25.220148
 30
0.0
  0
SPLINE
  5
209
100
AcDbEntity
  8
0
 62
7
100
AcDbSpline
 70
8
 71
3
 72
8
 73
4
 74
0
 40
0
 40
0
 40
0
 40
0
 40
1
 40
1
 40
1
 40
1
 10
28.561780
 20
25.220148
 30
0.0
 10
28.840484
 20
25.220148
 30
0.0
 10
29.062741
 20
24.997891
 30
0.0
 10
29.062741
 20
24.719188
 30
0.0
  0
SPLINE
  5
20a
100
AcDbEntity
  8
0
 62
7
100
AcDbSpline
 70
8
 71
3
 72
8
 73
4
 74
0
 40
0
 40
0
 40
0
 40
0
 40
1
 40
1
 40
1
 40
1
 10
29.062741
 20
24.719188
 30
0.0
 10
29.062741
 20
24.440485
 30
0.0
 10
28.836956
 20
24.218228
 30
0.0
 10
28.561780
 20
24.218228
 30
0.0
  0
SPLINE
  5
20b
100
AcDbEntity
  8
0
 62
7
100
AcDbSpline
 70
8
 71
3
 72
8
 73
4
 74
0
 40
0
 40
0
 40
0
 40
0
 40
1
 40
1
 40
1
 40
1
 10
28.561780
 20
24.218228
 30
0.0
 10
28.286605
 20
24.218228
 30
0.0
 10
28.060820
 20
24.440485
 30
0.0
 10
28.060820
 20
24.719188
 30
0.0
  0
LWPOLYLINE
  5
20c
100
AcDbEntity
  8
0
 62
7
100
AcDbPolyline
 90
1
 70
1
 10
28.060820
 20
22.718876
 30
0.0
  0
SPLINE
  5
20d
100
AcDbEntity
  8
0
 62
7
100
AcDbSpline
 70
8
 71
3
 72
8
 73
4
 74
0
 40
0
 40
0
 40
0
 40
0
 40
1
 40
1
 40
1
 40
1
 10
28.060820
 20
26.719501
 30
0.0
 10
28.060820
 20
26.998204
 30
0.0
 10
28.283077
 20
27.220461
 30
0.0
 10
28.561780
 20
27.220461
 30
0.0
  0
SPLINE
  5
20e
100
AcDbEntity
  8
0
 62
7
100
AcDbSpline
 70
8
 71
3
 72
8
 73
4
 74
0
 40
0
 40
0
 40
0
 40
0
 40
1
 40
1
 40
1
 40
1
 10
28.561780
 20
27.220461
 30
0.0
 10
28.840484
 20
27.220461
 30
0.0
 10
29.062741
 20
26.998204
 30
0.0
 10
29.062741
 20
26.719501
 30
0.0
  0
SPLINE
  5
20f
100
AcDbEntity
  8
0
 62
7
100
AcDbSpline
 70
8
 71
3
 72
8
 73
4
 74
0
 40
0
 40
0
 40
0
 40
0
 40
1
 40
1
 40
1
 40
1
 10
29.062741
 20
26.719501
 30
0.0
 10
29.062741
 20
26.440798
 30
0.0
 10
28.836956
 20
26.218541
 30
0.0
 10
28.561780
 20
26.218541
 30
0.0
  0
SPLINE
  5
210
100
AcDbEntity
  8
0
 62
7
100
AcDbSpline
 70
8
 71
3
 72
8
 73
4
 74
0
 40
0
 40
0
 40
0
 40
0
 40
1
 40
1
 40
1
 40
1
 10
28.561780
 20
26.218541
 30
0.0
 10
28.286605
 20
26.218541
 30
0.0
 10
28.060820
 20
26.440798
 30
0.0
 10
28.060820
 20
26.719501
 30
0.0
  0
LWPOLYLINE
  5
211
100
AcDbEntity
  8
0
 62
7
100
AcDbPolyline
 90
1
 70
1
 10
28.060820
 20
24.719188
 30
0.0
  0
SPLINE
  5
212
100
AcDbEntity
  8
0
 62
7
100
AcDbSpline
 70
8
 71
3
 72
8
 73
4
 74
0
 40
0
 40
0
 40
0
 40
0
 40
1
 40
1
 40
1
 40
1
 10
28.060820
 20
28.719813
 30
0.0
 10
28.060820
 20
28.998516
 30
0.0
 10
28.283077
 20
29.220773
 30
0.0
 10
28.561780
 20
29.220773
 30
0.0
  0
SPLINE
  5
213
100
AcDbEntity
  8
0
 62
7
100
AcDbSpline
 70
8
 71
3
 72
8
 73
4
 74
0
 40
0
 40
0
 40
0
 40
0
 40
1
 40
1
 40
1
 40
1
 10
28.561780
 20
29.220773
 30
0.0
 10
28.840484
 20
29.220773
 30
0.0
 10
29.062741
 20
28.998516
 30
0.0
 10
29.062741
 20
28.719813
 30
0.0
  0
SPLINE
  5
214
100
AcDbEntity
  8
0
 62
7
100
AcDbSpline
 70
8
 71
3
 72
8
 73
4
 74
0
 40
0
 40
0
 40
0
 40
0
 40
1
 40
1
 40
1
 40
1
 10
29.062741
 20
28.719813
 30
0.0
 10
29.062741
 20
28.441110
 30
0.0
 10
28.836956
 20
28.218853
 30
0.0
 10
28.561780
 20
28.218853
 30
0.0
  0
SPLINE
  5
215
100
AcDbEntity
  8
0
 62
7
100
AcDbSpline
 70
8
 71
3
 72
8
 73
4
 74
0
 40
0
 40
0
 40
0
 40
0
 40
1
 40
1
 40
1
 40
1
 10
28.561780
 20
28.218853
 30
0.0
 10
28.286605
 20
28.218853
 30
0.0
 10
28.060820
 20
28.441110
 30
0.0
 10
28.060820
 20
28.719813
 30
0.0
  0
LWPOLYLINE
  5
216
100
AcDbEntity
  8
0
 62
7
100
AcDbPolyline
 90
1
 70
1
 10
28.060820
 20
26.719501
 30
0.0
  0
SPLINE
  5
217
100
AcDbEntity
  8
0
 62
7
100
AcDbSpline
 70
8
 71
3
 72
8
 73
4
 74
0
 40
0
 40
0
 40
0
 40
0
 40
1
 40
1
 40
1
 40
1
 10
28.060820
 20
30.720126
 30
0.0
 10
28.060820
 20
30.998829
 30
0.0
 10
28.283077
 20
31.221086
 30
0.0
 10
28.561780
 20
31.221086
 30
0.0
  0
SPLINE
  5
218
100
AcDbEntity
  8
0
 62
7
100
AcDbSpline
 70
8
 71
3
 72
8
 73
4
 74
0
 40
0
 40
0
 40
0
 40
0
 40
1
 40
1
 40
1
 40
1
 10
28.561780
 20
31.221086
 30
0.0
 10
28.840484
 20
31.221086
 30
0.0
 10
29.062741
 20
30.998829
 30
0.0
 10
29.062741
 20
30.720126
 30
0.0
  0
SPLINE
  5
219
100
AcDbEntity
  8
0
 62
7
100
AcDbSpline
 70
8
 71
3
 72
8
 73
4
 74
0
 40
0
 40
0
 40
0
 40
0
 40
1
 40
1
 40
1
 40
1
 10
29.062741
 20
30.720126
 30
0.0
 10
29.062741
 20
30.441422
 30
0.0
 10
28.836956
 20
30.219165
 30
0.0
 10
28.561780
 20
30.219165
 30
0.0
  0
SPLINE
  5
21a
100
AcDbEntity
  8
0
 62
7
100
AcDbSpline
 70
8
 71
3
 72
8
 73
4
 74
0
 40
0
 40
0
 40
0
 40
0
 40
1
 40
1
 40
1
 40
1
 10
28.561780
 20
30.219165
 30
0.0
 10
28.286605
 20
30.219165
 30
0.0
 10
28.060820
 20
30.441422
 30
0.0
 10
28.060820
 20
30.720126
 30
0.0
  0
LWPOLYLINE
  5
21b
100
AcDbEntity
  8
0
 62
7
100
AcDbPolyline
 90
1
 70
1
 10
28.060820
 20
28.719813
 30
0.0
  0
SPLINE
  5
21c
100
AcDbEntity
  8
0
 62
7
100
AcDbSpline
 70
8
 71
3
 72
8
 73
4
 74
0
 40
0
 40
0
 40
0
 40
0
 40
1
 40
1
 40
1
 40
1
 10
26.060508
 20
22.718876
 30
0.0
 10
26.060508
 20
22.997579
 30
0.0
 10
26.282765
 20
23.219836
 30
0.0
 10
26.561468
 20
23.219836
 30
0.0
  0
SPLINE
  5
21d
100
AcDbEntity
  8
0
 62
7
100
AcDbSpline
 70
8
 71
3
 72
8
 73
4
 74
0
 40
0
 40
0
 40
0
 40
0
 40
1
 40
1
 40
1
 40
1
 10
26.561468
 20
23.219836
 30
0.0
 10
26.840171
 20
23.219836
 30
0.0
 10
27.062428
 20
22.997579
 30
0.0
 10
27.062428
 20
22.718876
 30
0.0
  0
SPLINE
  5
21e
100
AcDbEntity
  8
0
 62
7
100
AcDbSpline
 70
8
 71
3
 72
8
 73
4
 74
0
 40
0
 40
0
 40
0
 40
0
 40
1
 40
1
 40
1
 40
1
 10
27.062428
 20
22.718876
 30
0.0
 10
27.062428
 20
22.440173
 30
0.0
 10
26.836643
 20
22.217916
 30
0.0
 10
26.561468
 20
22.217916
 30
0.0
  0
SPLINE
  5
21f
100
AcDbEntity
  8
0
 62
7
100
AcDbSpline
 70
8
 71
3
 72
8
 73
4
 74
0
 40
0
 40
0
 40
0
 40
0
 40
1
 40
1
 40
1
 40
1
 10
26.561468
 20
22.217916
 30
0.0
 10
26.286293
 20
22.217916
 30
0.0
 10
26.060508
 20
22.440173
 30
0.0
 10
26.060508
 20
22.718876
 30
0.0
  0
LWPOLYLINE
  5
220
100
AcDbEntity
  8
0
 62
7
100
AcDbPolyline
 90
1
 70
1
 10
28.060820
 20
30.720126
 30
0.0
  0
SPLINE
  5
221
100
AcDbEntity
  8
0
 62
7
100
AcDbSpline
 70
8
 71
3
 72
8
 73
4
 74
0
 40
0
 40
0
 40
0
 40
0
 40
1
 40
1
 40
1
 40
1
 10
26.060508
 20
24.719188
 30
0.0
 10
26.060508
 20
24.997891
 30
0.0
 10
26.282765
 20
25.220148
 30
0.0
 10
26.561468
 20
25.220148
 30
0.0
  0
SPLINE
  5
222
100
AcDbEntity
  8
0
 62
7
100
AcDbSpline
 70
8
 71
3
 72
8
 73
4
 74
0
 40
0
 40
0
 40
0
 40
0
 40
1
 40
1
 40
1
 40
1
 10
26.561468
 20
25.220148
 30
0.0
 10
26.840171
 20
25.220148
 30
0.0
 10
27.062428
 20
24.997891
 30
0.0
 10
27.062428
 20
24.719188
 30
0.0
  0
SPLINE
  5
223
100
AcDbEntity
  8
0
 62
7
100
AcDbSpline
 70
8
 71
3
 72
8
 73
4
 74
0
 40
0
 40
0
 40
0
 40
0
 40
1
 40
1
 40
1
 40
1
 10
27.062428
 20
24.719188
 30
0.0
 10
27.062428
 20
24.440485
 30
0.0
 10
26.836643
 20
24.218228
 30
0.0
 10
26.561468
 20
24.218228
 30
0.0
  0
SPLINE
  5
224
100
AcDbEntity
  8
0
 62
7
100
AcDbSpline
 70
8
 71
3
 72
8
 73
4
 74
0
 40
0
 40
0
 40
0
 40
0
 40
1
 40
1
 40
1
 40
1
 10
26.561468
 20
24.218228
 30
0.0
 10
26.286293
 20
24.218228
 30
0.0
 10
26.060508
 20
24.440485
 30
0.0
 10
26.060508
 20
24.719188
 30
0.0
  0
LWPOLYLINE
  5
225
100
AcDbEntity
  8
0
 62
7
100
AcDbPolyline
 90
1
 70
1
 10
26.060508
 20
22.718876
 30
0.0
  0
SPLINE
  5
226
100
AcDbEntity
  8
0
 62
7
100
AcDbSpline
 70
8
 71
3
 72
8
 73
4
 74
0
 40
0
 40
0
 40
0
 40
0
 40
1
 40
1
 40
1
 40
1
 10
26.060508
 20
26.719501
 30
0.0
 10
26.060508
 20
26.998204
 30
0.0
 10
26.282765
 20
27.220461
 30
0.0
 10
26.561468
 20
27.220461
 30
0.0
  0
SPLINE
  5
227
100
AcDbEntity
  8
0
 62
7
100
AcDbSpline
 70
8
 71
3
 72
8
 73
4
 74
0
 40
0
 40
0
 40
0
 40
0
 40
1
 40
1
 40
1
 40
1
 10
26.561468
 20
27.220461
 30
0.0
 10
26.840171
 20
27.220461
 30
0.0
 10
27.062428
 20
26.998204
 30
0.0
 10
27.062428
 20
26.719501
 30
0.0
  0
SPLINE
  5
228
100
AcDbEntity
  8
0
 62
7
100
AcDbSpline
 70
8
 71
3
 72
8
 73
4
 74
0
 40
0
 40
0
 40
0
 40
0
 40
1
 40
1
 40
1
 40
1
 10
27.062428
 20
26.719501
 30
0.0
 10
27.062428
 20
26.440798
 30
0.0
 10
26.836643
 20
26.218541
 30
0.0
 10
26.561468
 20
26.218541
 30
0.0
  0
SPLINE
  5
229
100
AcDbEntity
  8
0
 62
7
100
AcDbSpline
 70
8
 71
3
 72
8
 73
4
 74
0
 40
0
 40
0
 40
0
 40
0
 40
1
 40
1
 40
1
 40
1
 10
26.561468
 20
26.218541
 30
0.0
 10
26.286293
 20
26.218541
 30
0.0
 10
26.060508
 20
26.440798
 30
0.0
 10
26.060508
 20
26.719501
 30
0.0
  0
LWPOLYLINE
  5
22a
100
AcDbEntity
  8
0
 62
7
100
AcDbPolyline
 90
1
 70
1
 10
26.060508
 20
24.719188
 30
0.0
  0
SPLINE
  5
22b
100
AcDbEntity
  8
0
 62
7
100
AcDbSpline
 70
8
 71
3
 72
8
 73
4
 74
0
 40
0
 40
0
 40
0
 40
0
 40
1
 40
1
 40
1
 40
1
 10
26.060508
 20
28.719813
 30
0.0
 10
26.060508
 20
28.998516
 30
0.0
 10
26.282765
 20
29.220773
 30
0.0
 10
26.561468
 20
29.220773
 30
0.0
  0
SPLINE
  5
22c
100
AcDbEntity
  8
0
 62
7
100
AcDbSpline
 70
8
 71
3
 72
8
 73
4
 74
0
 40
0
 40
0
 40
0
 40
0
 40
1
 40
1
 40
1
 40
1
 10
26.561468
 20
29.220773
 30
0.0
 10
26.840171
 20
29.220773
 30
0.0
 10
27.062428
 20
28.998516
 30
0.0
 10
27.062428
 20
28.719813
 30
0.0
  0
SPLINE
  5
22d
100
AcDbEntity
  8
0
 62
7
100
AcDbSpline
 70
8
 71
3
 72
8
 73
4
 74
0
 40
0
 40
0
 40
0
 40
0
 40
1
 40
1
 40
1
 40
1
 10
27.062428
 20
28.719813
 30
0.0
 10
27.062428
 20
28.441110
 30
0.0
 10
26.836643
 20
28.218853
 30
0.0
 10
26.561468
 20
28.218853
 30
0.0
  0
SPLINE
  5
22e
100
AcDbEntity
  8
0
 62
7
100
AcDbSpline
 70
8
 71
3
 72
8
 73
4
 74
0
 40
0
 40
0
 40
0
 40
0
 40
1
 40
1
 40
1
 40
1
 10
26.561468
 20
28.218853
 30
0.0
 10
26.286293
 20
28.218853
 30
0.0
 10
26.060508
 20
28.441110
 30
0.0
 10
26.060508
 20
28.719813
 30
0.0
  0
LWPOLYLINE
  5
22f
100
AcDbEntity
  8
0
 62
7
100
AcDbPolyline
 90
1
 70
1
 10
26.060508
 20
26.719501
 30
0.0
  0
SPLINE
  5
230
100
AcDbEntity
  8
0
 62
7
100
AcDbSpline
 70
8
 71
3
 72
8
 73
4
 74
0
 40
0
 40
0
 40
0
 40
0
 40
1
 40
1
 40
1
 40
1
 10
26.060508
 20
30.720126
 30
0.0
 10
26.060508
 20
30.998829
 30
0.0
 10
26.282765
 20
31.221086
 30
0.0
 10
26.561468
 20
31.221086
 30
0.0
  0
SPLINE
  5
231
100
AcDbEntity
  8
0
 62
7
100
AcDbSpline
 70
8
 71
3
 72
8
 73
4
 74
0
 40
0
 40
0
 40
0
 40
0
 40
1
 40
1
 40
1
 40
1
 10
26.561468
 20
31.221086
 30
0.0
 10
26.840171
 20
31.221086
 30
0.0
 10
27.062428
 20
30.998829
 30
0.0
 10
27.062428
 20
30.720126
 30
0.0
  0
SPLINE
  5
232
100
AcDbEntity
  8
0
 62
7
100
AcDbSpline
 70
8
 71
3
 72
8
 73
4
 74
0
 40
0
 40
0
 40
0
 40
0
 40
1
 40
1
 40
1
 40
1
 10
27.062428
 20
30.720126
 30
0.0
 10
27.062428
 20
30.441422
 30
0.0
 10
26.836643
 20
30.219165
 30
0.0
 10
26.561468
 20
30.219165
 30
0.0
  0
SPLINE
  5
233
100
AcDbEntity
  8
0
 62
7
100
AcDbSpline
 70
8
 71
3
 72
8
 73
4
 74
0
 40
0
 40
0
 40
0
 40
0
 40
1
 40
1
 40
1
 40
1
 10
26.561468
 20
30.219165
 30
0.0
 10
26.286293
 20
30.219165
 30
0.0
 10
26.060508
 20
30.441422
 30
0.0
 10
26.060508
 20
30.720126
 30
0.0
  0
LWPOLYLINE
  5
234
100
AcDbEntity
  8
0
 62
7
100
AcDbPolyline
 90
1
 70
1
 10
26.060508
 20
28.719813
 30
0.0
  0
SPLINE
  5
235
100
AcDbEntity
  8
0
 62
7
100
AcDbSpline
 70
8
 71
3
 72
8
 73
4
 74
0
 40
0
 40
0
 40
0
 40
0
 40
1
 40
1
 40
1
 40
1
 10
24.060195
 20
22.718876
 30
0.0
 10
24.060195
 20
22.997579
 30
0.0
 10
24.282452
 20
23.219836
 30
0.0
 10
24.561156
 20
23.219836
 30
0.0
  0
SPLINE
  5
236
100
AcDbEntity
  8
0
 62
7
100
AcDbSpline
 70
8
 71
3
 72
8
 73
4
 74
0
 40
0
 40
0
 40
0
 40
0
 40
1
 40
1
 40
1
 40
1
 10
24.561156
 20
23.219836
 30
0.0
 10
24.839859
 20
23.219836
 30
0.0
 10
25.062116
 20
22.997579
 30
0.0
 10
25.062116
 20
22.718876
 30
0.0
  0
SPLINE
  5
237
100
AcDbEntity
  8
0
 62
7
100
AcDbSpline
 70
8
 71
3
 72
8
 73
4
 74
0
 40
0
 40
0
 40
0
 40
0
 40
1
 40
1
 40
1
 40
1
 10
25.062116
 20
22.718876
 30
0.0
 10
25.062116
 20
22.440173
 30
0.0
 10
24.836331
 20
22.217916
 30
0.0
 10
24.561156
 20
22.217916
 30
0.0
  0
SPLINE
  5
238
100
AcDbEntity
  8
0
 62
7
100
AcDbSpline
 70
8
 71
3
 72
8
 73
4
 74
0
 40
0
 40
0
 40
0
 40
0
 40
1
 40
1
 40
1
 40
1
 10
24.561156
 20
22.217916
 30
0.0
 10
24.285980
 20
22.217916
 30
0.0
 10
24.060195
 20
22.440173
 30
0.0
 10
24.060195
 20
22.718876
 30
0.0
  0
LWPOLYLINE
  5
239
100
AcDbEntity
  8
0
 62
7
100
AcDbPolyline
 90
1
 70
1
 10
26.060508
 20
30.720126
 30
0.0
  0
SPLINE
  5
23a
100
AcDbEntity
  8
0
 62
7
100
AcDbSpline
 70
8
 71
3
 72
8
 73
4
 74
0
 40
0
 40
0
 40
0
 40
0
 40
1
 40
1
 40
1
 40
1
 10
24.060195
 20
24.719188
 30
0.0
 10
24.060195
 20
24.997891
 30
0.0
 10
24.282452
 20
25.220148
 30
0.0
 10
24.561156
 20
25.220148
 30
0.0
  0
SPLINE
  5
23b
100
AcDbEntity
  8
0
 62
7
100
AcDbSpline
 70
8
 71
3
 72
8
 73
4
 74
0
 40
0
 40
0
 40
0
 40
0
 40
1
 40
1
 40
1
 40
1
 10
24.561156
 20
25.220148
 30
0.0
 10
24.839859
 20
25.220148
 30
0.0
 10
25.062116
 20
24.997891
 30
0.0
 10
25.062116
 20
24.719188
 30
0.0
  0
SPLINE
  5
23c
100
AcDbEntity
  8
0
 62
7
100
AcDbSpline
 70
8
 71
3
 72
8
 73
4
 74
0
 40
0
 40
0
 40
0
 40
0
 40
1
 40
1
 40
1
 40
1
 10
25.062116
 20
24.719188
 30
0.0
 10
25.062116
 20
24.440485
 30
0.0
 10
24.836331
 20
24.218228
 30
0.0
 10
24.561156
 20
24.218228
 30
0.0
  0
SPLINE
  5
23d
100
AcDbEntity
  8
0
 62
7
100
AcDbSpline
 70
8
 71
3
 72
8
 73
4
 74
0
 40
0
 40
0
 40
0
 40
0
 40
1
 40
1
 40
1
 40
1
 10
24.561156
 20
24.218228
 30
0.0
 10
24.285980
 20
24.218228
 30
0.0
 10
24.060195
 20
24.440485
 30
0.0
 10
24.060195
 20
24.719188
 30
0.0
  0
LWPOLYLINE
  5
23e
100
AcDbEntity
  8
0
 62
7
100
AcDbPolyline
 90
1
 70
1
 10
24.060195
 20
22.718876
 30
0.0
  0
SPLINE
  5
23f
100
AcDbEntity
  8
0
 62
7
100
AcDbSpline
 70
8
 71
3
 72
8
 73
4
 74
0
 40
0
 40
0
 40
0
 40
0
 40
1
 40
1
 40
1
 40
1
 10
24.060195
 20
26.719501
 30
0.0
 10
24.060195
 20
26.998204
 30
0.0
 10
24.282452
 20
27.220461
 30
0.0
 10
24.561156
 20
27.220461
 30
0.0
  0
SPLINE
  5
240
100
AcDbEntity
  8
0
 62
7
100
AcDbSpline
 70
8
 71
3
 72
8
 73
4
 74
0
 40
0
 40
0
 40
0
 40
0
 40
1
 40
1
 40
1
 40
1
 10
24.561156
 20
27.220461
 30
0.0
 10
24.839859
 20
27.220461
 30
0.0
 10
25.062116
 20
26.998204
 30
0.0
 10
25.062116
 20
26.719501
 30
0.0
  0
SPLINE
  5
241
100
AcDbEntity
  8
0
 62
7
100
AcDbSpline
 70
8
 71
3
 72
8
 73
4
 74
0
 40
0
 40
0
 40
0
 40
0
 40
1
 40
1
 40
1
 40
1
 10
25.062116
 20
26.719501
 30
0.0
 10
25.062116
 20
26.440798
 30
0.0
 10
24.836331
 20
26.218541
 30
0.0
 10
24.561156
 20
26.218541
 30
0.0
  0
SPLINE
  5
242
100
AcDbEntity
  8
0
 62
7
100
AcDbSpline
 70
8
 71
3
 72
8
 73
4
 74
0
 40
0
 40
0
 40
0
 40
0
 40
1
 40
1
 40
1
 40
1
 10
24.561156
 20
26.218541
 30
0.0
 10
24.285980
 20
26.218541
 30
0.0
 10
24.060195
 20
26.440798
 30
0.0
 10
24.060195
 20
26.719501
 30
0.0
  0
LWPOLYLINE
  5
243
100
AcDbEntity
  8
0
 62
7
100
AcDbPolyline
 90
1
 70
1
 10
24.060195
 20
24.719188
 30
0.0
  0
SPLINE
  5
244
100
AcDbEntity
  8
0
 62
7
100
AcDbSpline
 70
8
 71
3
 72
8
 73
4
 74
0
 40
0
 40
0
 40
0
 40
0
 40
1
 40
1
 40
1
 40
1
 10
24.060195
 20
28.719813
 30
0.0
 10
24.060195
 20
28.998516
 30
0.0
 10
24.282452
 20
29.220773
 30
0.0
 10
24.561156
 20
29.220773
 30
0.0
  0
SPLINE
  5
245
100
AcDbEntity
  8
0
 62
7
100
AcDbSpline
 70
8
 71
3
 72
8
 73
4
 74
0
 40
0
 40
0
 40
0
 40
0
 40
1
 40
1
 40
1
 40
1
 10
24.561156
 20
29.220773
 30
0.0
 10
24.839859
 20
29.220773
 30
0.0
 10
25.062116
 20
28.998516
 30
0.0
 10
25.062116
 20
28.719813
 30
0.0
  0
SPLINE
  5
246
100
AcDbEntity
  8
0
 62
7
100
AcDbSpline
 70
8
 71
3
 72
8
 73
4
 74
0
 40
0
 40
0
 40
0
 40
0
 40
1
 40
1
 40
1
 40
1
 10
25.062116
 20
28.719813
 30
0.0
 10
25.062116
 20
28.441110
 30
0.0
 10
24.836331
 20
28.218853
 30
0.0
 10
24.561156
 20
28.218853
 30
0.0
  0
SPLINE
  5
247
100
AcDbEntity
  8
0
 62
7
100
AcDbSpline
 70
8
 71
3
 72
8
 73
4
 74
0
 40
0
 40
0
 40
0
 40
0
 40
1
 40
1
 40
1
 40
1
 10
24.561156
 20
28.218853
 30
0.0
 10
24.285980
 20
28.218853
 30
0.0
 10
24.060195
 20
28.441110
 30
0.0
 10
24.060195
 20
28.719813
 30
0.0
  0
LWPOLYLINE
  5
248
100
AcDbEntity
  8
0
 62
7
100
AcDbPolyline
 90
1
 70
1
 10
24.060195
 20
26.719501
 30
0.0
  0
SPLINE
  5
249
100
AcDbEntity
  8
0
 62
7
100
AcDbSpline
 70
8
 71
3
 72
8
 73
4
 74
0
 40
0
 40
0
 40
0
 40
0
 40
1
 40
1
 40
1
 40
1
 10
24.060195
 20
30.720126
 30
0.0
 10
24.060195
 20
30.998829
 30
0.0
 10
24.282452
 20
31.221086
 30
0.0
 10
24.561156
 20
31.221086
 30
0.0
  0
SPLINE
  5
24a
100
AcDbEntity
  8
0
 62
7
100
AcDbSpline
 70
8
 71
3
 72
8
 73
4
 74
0
 40
0
 40
0
 40
0
 40
0
 40
1
 40
1
 40
1
 40
1
 10
24.561156
 20
31.221086
 30
0.0
 10
24.839859
 20
31.221086
 30
0.0
 10
25.062116
 20
30.998829
 30
0.0
 10
25.062116
 20
30.720126
 30
0.0
  0
SPLINE
  5
24b
100
AcDbEntity
  8
0
 62
7
100
AcDbSpline
 70
8
 71
3
 72
8
 73
4
 74
0
 40
0
 40
0
 40
0
 40
0
 40
1
 40
1
 40
1
 40
1
 10
25.062116
 20
30.720126
 30
0.0
 10
25.062116
 20
30.441422
 30
0.0
 10
24.836331
 20
30.219165
 30
0.0
 10
24.561156
 20
30.219165
 30
0.0
  0
SPLINE
  5
24c
100
AcDbEntity
  8
0
 62
7
100
AcDbSpline
 70
8
 71
3
 72
8
 73
4
 74
0
 40
0
 40
0
 40
0
 40
0
 40
1
 40
1
 40
1
 40
1
 10
24.561156
 20
30.219165
 30
0.0
 10
24.285980
 20
30.219165
 30
0.0
 10
24.060195
 20
30.441422
 30
0.0
 10
24.060195
 20
30.720126
 30
0.0
  0
LWPOLYLINE
  5
24d
100
AcDbEntity
  8
0
 62
7
100
AcDbPolyline
 90
1
 70
1
 10
24.060195
 20
28.719813
 30
0.0
  0
SPLINE
  5
24e
100
AcDbEntity
  8
0
 62
7
100
AcDbSpline
 70
8
 71
3
 72
8
 73
4
 74
0
 40
0
 40
0
 40
0
 40
0
 40
1
 40
1
 40
1
 40
1
 10
8.205867
 20
20.542169
 30
0.0
 10
8.205867
 20
19.960067
 30
0.0
 10
7.736658
 20
19.490858
 30
0.0
 10
7.154557
 20
19.490858
 30
0.0
  0
SPLINE
  5
24f
100
AcDbEntity
  8
0
 62
7
100
AcDbSpline
 70
8
 71
3
 72
8
 73
4
 74
0
 40
0
 40
0
 40
0
 40
0
 40
1
 40
1
 40
1
 40
1
 10
7.154557
 20
19.490858
 30
0.0
 10
6.572455
 20
19.490858
 30
0.0
 10
6.103246
 20
19.960067
 30
0.0
 10
6.103246
 20
20.542169
 30
0.0
  0
SPLINE
  5
250
100
AcDbEntity
  8
0
 62
7
100
AcDbSpline
 70
8
 71
3
 72
8
 73
4
 74
0
 40
0
 40
0
 40
0
 40
0
 40
1
 40
1
 40
1
 40
1
 10
6.103246
 20
20.542169
 30
0.0
 10
6.103246
 20
21.124270
 30
0.0
 10
6.575983
 20
21.593480
 30
0.0
 10
7.154557
 20
21.593480
 30
0.0
  0
SPLINE
  5
251
100
AcDbEntity
  8
0
 62
7
100
AcDbSpline
 70
8
 71
3
 72
8
 73
4
 74
0
 40
0
 40
0
 40
0
 40
0
 40
1
 40
1
 40
1
 40
1
 10
7.154557
 20
21.593480
 30
0.0
 10
7.733130
 20
21.593480
 30
0.0
 10
8.205867
 20
21.124270
 30
0.0
 10
8.205867
 20
20.542169
 30
0.0
  0
LWPOLYLINE
  5
252
100
AcDbEntity
  8
0
 62
7
100
AcDbPolyline
 90
1
 70
1
 10
24.060195
 20
30.720126
 30
0.0
  0
SPLINE
  5
253
100
AcDbEntity
  8
0
 62
7
100
AcDbSpline
 70
8
 71
3
 72
8
 73
4
 74
0
 40
0
 40
0
 40
0
 40
0
 40
1
 40
1
 40
1
 40
1
 10
19.780867
 20
21.314776
 30
0.0
 10
19.780867
 20
20.732675
 30
0.0
 10
19.311658
 20
20.263466
 30
0.0
 10
18.729557
 20
20.263466
 30
0.0
  0
SPLINE
  5
254
100
AcDbEntity
  8
0
 62
7
100
AcDbSpline
 70
8
 71
3
 72
8
 73
4
 74
0
 40
0
 40
0
 40
0
 40
0
 40
1
 40
1
 40
1
 40
1
 10
18.729557
 20
20.263466
 30
0.0
 10
18.147455
 20
20.263466
 30
0.0
 10
17.678246
 20
20.732675
 30
0.0
 10
17.678246
 20
21.314776
 30
0.0
  0
SPLINE
  5
255
100
AcDbEntity
  8
0
 62
7
100
AcDbSpline
 70
8
 71
3
 72
8
 73
4
 74
0
 40
0
 40
0
 40
0
 40
0
 40
1
 40
1
 40
1
 40
1
 10
17.678246
 20
21.314776
 30
0.0
 10
17.678246
 20
21.896878
 30
0.0
 10
18.150983
 20
22.366087
 30
0.0
 10
18.729557
 20
22.366087
 30
0.0
  0
SPLINE
  5
256
100
AcDbEntity
  8
0
 62
7
100
AcDbSpline
 70
8
 71
3
 72
8
 73
4
 74
0
 40
0
 40
0
 40
0
 40
0
 40
1
 40
1
 40
1
 40
1
 10
18.729557
 20
22.366087
 30
0.0
 10
19.308130
 20
22.366087
 30
0.0
 10
19.780867
 20
21.896878
 30
0.0
 10
19.780867
 20
21.314776
 30
0.0
  0
LWPOLYLINE
  5
257
100
AcDbEntity
  8
0
 62
7
100
AcDbPolyline
 90
1
 70
1
 10
8.205867
 20
20.542169
 30
0.0
  0
LWPOLYLINE
  5
258
100
AcDbEntity
  8
0
 62
7
100
AcDbPolyline
 90
1
 70
1
 10
19.780867
 20
21.314776
 30
0.0
  0
SPLINE
  5
259
100
AcDbEntity
  8
0
 62
7
100
AcDbSpline
 70
8
 71
3
 72
8
 73
4
 74
0
 40
0
 40
0
 40
0
 40
0
 40
1
 40
1
 40
1
 40
1
 10
62.517701
 20
84.862621
 30
0.0
 10
62.902241
 20
84.862621
 30
0.0
 10
63.216223
 20
84.552167
 30
0.0
 10
63.216223
 20
84.164099
 30
0.0
  0
LWPOLYLINE
  5
25a
100
AcDbEntity
  8
0
 62
7
100
AcDbPolyline
 90
4
 70
0
 10
111.417756
 20
89.833415
 30
0.0
 10
44.207963
 20
89.833415
 30
0.0
 10
44.193852
 20
84.862621
 30
0.0
 10
62.517701
 20
84.862621
 30
0.0
  0
SPLINE
  5
25b
100
AcDbEntity
  8
0
 62
7
100
AcDbSpline
 70
8
 71
3
 72
8
 73
4
 74
0
 40
0
 40
0
 40
0
 40
0
 40
1
 40
1
 40
1
 40
1
 10
81.511850
 20
81.849805
 30
0.0
 10
81.896390
 20
81.849805
 30
0.0
 10
82.210372
 20
81.539351
 30
0.0
 10
82.210372
 20
81.151283
 30
0.0
  0
LWPOLYLINE
  5
25c
100
AcDbEntity
  8
0
 62
7
100
AcDbPolyline
 90
3
 70
0
 10
63.216223
 20
84.164099
 30
0.0
 10
63.216223
 20
81.849805
 30
0.0
 10
81.511850
 20
81.849805
 30
0.0
  0
SPLINE
  5
25d
100
AcDbEntity
  8
0
 62
7
100
AcDbSpline
 70
8
 71
3
 72
8
 73
4
 74
0
 40
0
 40
0
 40
0
 40
0
 40
1
 40
1
 40
1
 40
1
 10
82.238595
 20
18.704139
 30
0.0
 10
86.846016
 20
16.929612
 30
0.0
 10
91.435799
 20
14.742321
 30
0.0
 10
95.810380
 20
12.216354
 30
0.0
  0
SPLINE
  5
25e
100
AcDbEntity
  8
0
 62
7
100
AcDbSpline
 70
8
 71
3
 72
8
 73
4
 74
0
 40
0
 40
0
 40
0
 40
0
 40
1
 40
1
 40
1
 40
1
 10
95.810380
 20
12.216354
 30
0.0
 10
101.465584
 20
8.949529
 30
0.0
 10
107.046703
 20
4.804261
 30
0.0
 10
112.119805
 20
0.115698
 30
0.0
  0
LWPOLYLINE
  5
25f
100
AcDbEntity
  8
0
 62
7
100
AcDbPolyline
 90
2
 70
0
 10
82.210372
 20
81.151283
 30
0.0
 10
82.238595
 20
18.704139
 30
0.0
  0
SPLINE
  5
260
100
AcDbEntity
  8
0
 62
7
100
AcDbSpline
 70
8
 71
3
 72
8
 73
4
 74
0
 40
0
 40
0
 40
0
 40
0
 40
1
 40
1
 40
1
 40
1
 10
112.119805
 20
89.131366
 30
0.0
 10
112.119805
 20
89.515905
 30
0.0
 10
111.809351
 20
89.829887
 30
0.0
 10
111.421284
 20
89.829887
 30
0.0
  0
LWPOLYLINE
  5
261
100
AcDbEntity
  8
0
 62
7
100
AcDbPolyline
 90
2
 70
0
 10
112.119805
 20
0.115698
 30
0.0
 10
112.119805
 20
89.131366
 30
0.0
  0
SPLINE
  5
262
100
AcDbEntity
  8
0
 62
7
100
AcDbSpline
 70
8
 71
3
 72
8
 73
4
 74
0
 40
0
 40
0
 40
0
 40
0
 40
1
 40
1
 40
1
 40
1
 10
110.564007
 20
87.243945
 30
0.0
 10
110.564007
 20
86.661844
 30
0.0
 10
110.094798
 20
86.192635
 30
0.0
 10
109.512696
 20
86.192635
 30
0.0
  0
SPLINE
  5
263
100
AcDbEntity
  8
0
 62
7
100
AcDbSpline
 70
8
 71
3
 72
8
 73
4
 74
0
 40
0
 40
0
 40
0
 40
0
 40
1
 40
1
 40
1
 40
1
 10
109.512696
 20
86.192635
 30
0.0
 10
108.930595
 20
86.192635
 30
0.0
 10
108.461386
 20
86.661844
 30
0.0
 10
108.461386
 20
87.243945
 30
0.0
  0
SPLINE
  5
264
100
AcDbEntity
  8
0
 62
7
100
AcDbSpline
 70
8
 71
3
 72
8
 73
4
 74
0
 40
0
 40
0
 40
0
 40
0
 40
1
 40
1
 40
1
 40
1
 10
108.461386
 20
87.243945
 30
0.0
 10
108.461386
 20
87.826047
 30
0.0
 10
108.934123
 20
88.295256
 30
0.0
 10
109.512696
 20
88.295256
 30
0.0
  0
SPLINE
  5
265
100
AcDbEntity
  8
0
 62
7
100
AcDbSpline
 70
8
 71
3
 72
8
 73
4
 74
0
 40
0
 40
0
 40
0
 40
0
 40
1
 40
1
 40
1
 40
1
 10
109.512696
 20
88.295256
 30
0.0
 10
110.091270
 20
88.295256
 30
0.0
 10
110.564007
 20
87.826047
 30
0.0
 10
110.564007
 20
87.243945
 30
0.0
  0
LWPOLYLINE
  5
266
100
AcDbEntity
  8
0
 62
7
100
AcDbPolyline
 90
3
 70
0
 10
111.421284
 20
89.829887
 30
0.0
 10
111.421284
 20
89.829887
 30
0.0
 10
111.417756
 20
89.833415
 30
0.0
  0
SPLINE
  5
267
100
AcDbEntity
  8
0
 62
7
100
AcDbSpline
 70
8
 71
3
 72
8
 73
4
 74
0
 40
0
 40
0
 40
0
 40
0
 40
1
 40
1
 40
1
 40
1
 10
108.461386
 20
7.817077
 30
0.0
 10
108.461386
 20
8.399179
 30
0.0
 10
108.930595
 20
8.868388
 30
0.0
 10
109.512696
 20
8.868388
 30
0.0
  0
SPLINE
  5
268
100
AcDbEntity
  8
0
 62
7
100
AcDbSpline
 70
8
 71
3
 72
8
 73
4
 74
0
 40
0
 40
0
 40
0
 40
0
 40
1
 40
1
 40
1
 40
1
 10
109.512696
 20
8.868388
 30
0.0
 10
110.094798
 20
8.868388
 30
0.0
 10
110.564007
 20
8.399179
 30
0.0
 10
110.564007
 20
7.817077
 30
0.0
  0
SPLINE
  5
269
100
AcDbEntity
  8
0
 62
7
100
AcDbSpline
 70
8
 71
3
 72
8
 73
4
 74
0
 40
0
 40
0
 40
0
 40
0
 40
1
 40
1
 40
1
 40
1
 10
110.564007
 20
7.817077
 30
0.0
 10
110.564007
 20
7.234976
 30
0.0
 10
110.091270
 20
6.765767
 30
0.0
 10
109.512696
 20
6.765767
 30
0.0
  0
SPLINE
  5
26a
100
AcDbEntity
  8
0
 62
7
100
AcDbSpline
 70
8
 71
3
 72
8
 73
4
 74
0
 40
0
 40
0
 40
0
 40
0
 40
1
 40
1
 40
1
 40
1
 10
109.512696
 20
6.765767
 30
0.0
 10
108.934123
 20
6.765767
 30
0.0
 10
108.461386
 20
7.234976
 30
0.0
 10
108.461386
 20
7.817077
 30
0.0
  0
LWPOLYLINE
  5
26b
100
AcDbEntity
  8
0
 62
7
100
AcDbPolyline
 90
1
 70
1
 10
110.564007
 20
87.243945
 30
0.0
  0
SPLINE
  5
26c
100
AcDbEntity
  8
0
 62
7
100
AcDbSpline
 70
8
 71
3
 72
8
 73
4
 74
0
 40
0
 40
0
 40
0
 40
0
 40
1
 40
1
 40
1
 40
1
 10
84.909206
 20
29.040851
 30
0.0
 10
84.909206
 20
35.803812
 30
0.0
 10
90.395072
 20
41.289678
 30
0.0
 10
97.158033
 20
41.289678
 30
0.0
  0
SPLINE
  5
26d
100
AcDbEntity
  8
0
 62
7
100
AcDbSpline
 70
8
 71
3
 72
8
 73
4
 74
0
 40
0
 40
0
 40
0
 40
0
 40
1
 40
1
 40
1
 40
1
 10
97.158033
 20
41.289678
 30
0.0
 10
103.920994
 20
41.289678
 30
0.0
 10
109.406860
 20
35.803812
 30
0.0
 10
109.406860
 20
29.040851
 30
0.0
  0
SPLINE
  5
26e
100
AcDbEntity
  8
0
 62
7
100
AcDbSpline
 70
8
 71
3
 72
8
 73
4
 74
0
 40
0
 40
0
 40
0
 40
0
 40
1
 40
1
 40
1
 40
1
 10
109.406860
 20
29.040851
 30
0.0
 10
109.406860
 20
22.277890
 30
0.0
 10
103.924522
 20
16.792024
 30
0.0
 10
97.158033
 20
16.792024
 30
0.0
  0
SPLINE
  5
26f
100
AcDbEntity
  8
0
 62
7
100
AcDbSpline
 70
8
 71
3
 72
8
 73
4
 74
0
 40
0
 40
0
 40
0
 40
0
 40
1
 40
1
 40
1
 40
1
 10
97.158033
 20
16.792024
 30
0.0
 10
90.391544
 20
16.792024
 30
0.0
 10
84.909206
 20
22.277890
 30
0.0
 10
84.909206
 20
29.040851
 30
0.0
  0
LWPOLYLINE
  5
270
100
AcDbEntity
  8
0
 62
7
100
AcDbPolyline
 90
1
 70
1
 10
108.461386
 20
7.817077
 30
0.0
  0
SPLINE
  5
271
100
AcDbEntity
  8
0
 62
7
100
AcDbSpline
 70
8
 71
3
 72
8
 73
4
 74
0
 40
0
 40
0
 40
0
 40
0
 40
1
 40
1
 40
1
 40
1
 10
46.391726
 20
87.187499
 30
0.0
 10
46.391726
 20
87.769601
 30
0.0
 10
46.860935
 20
88.238810
 30
0.0
 10
47.443036
 20
88.238810
 30
0.0
  0
SPLINE
  5
272
100
AcDbEntity
  8
0
 62
7
100
AcDbSpline
 70
8
 71
3
 72
8
 73
4
 74
0
 40
0
 40
0
 40
0
 40
0
 40
1
 40
1
 40
1
 40
1
 10
47.443036
 20
88.238810
 30
0.0
 10
48.025138
 20
88.238810
 30
0.0
 10
48.494347
 20
87.769601
 30
0.0
 10
48.494347
 20
87.187499
 30
0.0
  0
SPLINE
  5
273
100
AcDbEntity
  8
0
 62
7
100
AcDbSpline
 70
8
 71
3
 72
8
 73
4
 74
0
 40
0
 40
0
 40
0
 40
0
 40
1
 40
1
 40
1
 40
1
 10
48.494347
 20
87.187499
 30
0.0
 10
48.494347
 20
86.605398
 30
0.0
 10
48.021610
 20
86.136189
 30
0.0
 10
47.443036
 20
86.136189
 30
0.0
  0
SPLINE
  5
274
100
AcDbEntity
  8
0
 62
7
100
AcDbSpline
 70
8
 71
3
 72
8
 73
4
 74
0
 40
0
 40
0
 40
0
 40
0
 40
1
 40
1
 40
1
 40
1
 10
47.443036
 20
86.136189
 30
0.0
 10
46.864463
 20
86.136189
 30
0.0
 10
46.391726
 20
86.605398
 30
0.0
 10
46.391726
 20
87.187499
 30
0.0
  0
LWPOLYLINE
  5
275
100
AcDbEntity
  8
0
 62
7
100
AcDbPolyline
 90
1
 70
1
 10
84.909206
 20
29.040851
 30
0.0
  0
SPLINE
  5
276
100
AcDbEntity
  8
0
 62
7
100
AcDbSpline
 70
8
 71
3
 72
8
 73
4
 74
0
 40
0
 40
0
 40
0
 40
0
 40
1
 40
1
 40
1
 40
1
 10
0.747912
 20
89.829887
 30
0.0
 10
0.363372
 20
89.829887
 30
0.0
 10
0.049390
 20
89.519433
 30
0.0
 10
0.049390
 20
89.131366
 30
0.0
  0
LWPOLYLINE
  5
277
100
AcDbEntity
  8
0
 62
7
100
AcDbPolyline
 90
1
 70
1
 10
46.391726
 20
87.187499
 30
0.0
  0
SPLINE
  5
278
100
AcDbEntity
  8
0
 62
7
100
AcDbSpline
 70
8
 71
3
 72
8
 73
4
 74
0
 40
0
 40
0
 40
0
 40
0
 40
1
 40
1
 40
1
 40
1
 10
17.801722
 20
70.468839
 30
0.0
 10
18.182734
 20
70.535868
 30
0.0
 10
18.546107
 20
70.281860
 30
0.0
 10
18.613137
 20
69.900849
 30
0.0
  0
LWPOLYLINE
  5
279
100
AcDbEntity
  8
0
 62
7
100
AcDbPolyline
 90
3
 70
0
 10
0.049390
 20
89.131366
 30
0.0
 10
0.049390
 20
67.339602
 30
0.0
 10
17.801722
 20
70.468839
 30
0.0
  0
SPLINE
  5
27a
100
AcDbEntity
  8
0
 62
7
100
AcDbSpline
 70
8
 71
3
 72
8
 73
4
 74
0
 40
0
 40
0
 40
0
 40
0
 40
1
 40
1
 40
1
 40
1
 10
21.403696
 20
53.983018
 30
0.0
 10
21.527172
 20
53.270385
 30
0.0
 10
22.585538
 20
53.400917
 30
0.0
 10
22.536148
 20
54.120606
 30
0.0
  0
LWPOLYLINE
  5
27b
100
AcDbEntity
  8
0
 62
7
100
AcDbPolyline
 90
2
 70
0
 10
18.613137
 20
69.900849
 30
0.0
 10
21.403696
 20
53.983018
 30
0.0
  0
SPLINE
  5
27c
100
AcDbEntity
  8
0
 62
7
100
AcDbSpline
 70
8
 71
3
 72
8
 73
4
 74
0
 40
0
 40
0
 40
0
 40
0
 40
1
 40
1
 40
1
 40
1
 10
37.494393
 20
87.229834
 30
0.0
 10
37.494393
 20
87.811935
 30
0.0
 10
37.963602
 20
88.281145
 30
0.0
 10
38.545703
 20
88.281145
 30
0.0
  0
SPLINE
  5
27d
100
AcDbEntity
  8
0
 62
7
100
AcDbSpline
 70
8
 71
3
 72
8
 73
4
 74
0
 40
0
 40
0
 40
0
 40
0
 40
1
 40
1
 40
1
 40
1
 10
38.545703
 20
88.281145
 30
0.0
 10
39.127805
 20
88.281145
 30
0.0
 10
39.597014
 20
87.811935
 30
0.0
 10
39.597014
 20
87.229834
 30
0.0
  0
SPLINE
  5
27e
100
AcDbEntity
  8
0
 62
7
100
AcDbSpline
 70
8
 71
3
 72
8
 73
4
 74
0
 40
0
 40
0
 40
0
 40
0
 40
1
 40
1
 40
1
 40
1
 10
39.597014
 20
87.229834
 30
0.0
 10
39.597014
 20
86.647732
 30
0.0
 10
39.124277
 20
86.178523
 30
0.0
 10
38.545703
 20
86.178523
 30
0.0
  0
SPLINE
  5
27f
100
AcDbEntity
  8
0
 62
7
100
AcDbSpline
 70
8
 71
3
 72
8
 73
4
 74
0
 40
0
 40
0
 40
0
 40
0
 40
1
 40
1
 40
1
 40
1
 10
38.545703
 20
86.178523
 30
0.0
 10
37.967130
 20
86.178523
 30
0.0
 10
37.494393
 20
86.647732
 30
0.0
 10
37.494393
 20
87.229834
 30
0.0
  0
LWPOLYLINE
  5
280
100
AcDbEntity
  8
0
 62
7
100
AcDbPolyline
 90
7
 70
0
 10
22.536148
 20
54.120606
 30
0.0
 10
20.560531
 20
82.661219
 30
0.0
 10
20.560531
 20
82.661219
 30
0.0
 10
43.064928
 20
84.234657
 30
0.0
 10
43.054344
 20
89.829887
 30
0.0
 10
0.747912
 20
89.829887
 30
0.0
 10
0.747912
 20
89.829887
 30
0.0
  0
SPLINE
  5
281
100
AcDbEntity
  8
0
 62
7
100
AcDbSpline
 70
8
 71
3
 72
8
 73
4
 74
0
 40
0
 40
0
 40
0
 40
0
 40
1
 40
1
 40
1
 40
1
 10
22.652568
 20
86.220858
 30
0.0
 10
22.652568
 20
86.802960
 30
0.0
 10
23.121777
 20
87.272169
 30
0.0
 10
23.703879
 20
87.272169
 30
0.0
  0
SPLINE
  5
282
100
AcDbEntity
  8
0
 62
7
100
AcDbSpline
 70
8
 71
3
 72
8
 73
4
 74
0
 40
0
 40
0
 40
0
 40
0
 40
1
 40
1
 40
1
 40
1
 10
23.703879
 20
87.272169
 30
0.0
 10
24.285980
 20
87.272169
 30
0.0
 10
24.755189
 20
86.802960
 30
0.0
 10
24.755189
 20
86.220858
 30
0.0
  0
SPLINE
  5
283
100
AcDbEntity
  8
0
 62
7
100
AcDbSpline
 70
8
 71
3
 72
8
 73
4
 74
0
 40
0
 40
0
 40
0
 40
0
 40
1
 40
1
 40
1
 40
1
 10
24.755189
 20
86.220858
 30
0.0
 10
24.755189
 20
85.638757
 30
0.0
 10
24.282452
 20
85.169547
 30
0.0
 10
23.703879
 20
85.169547
 30
0.0
  0
SPLINE
  5
284
100
AcDbEntity
  8
0
 62
7
100
AcDbSpline
 70
8
 71
3
 72
8
 73
4
 74
0
 40
0
 40
0
 40
0
 40
0
 40
1
 40
1
 40
1
 40
1
 10
23.703879
 20
85.169547
 30
0.0
 10
23.125305
 20
85.169547
 30
0.0
 10
22.652568
 20
85.638757
 30
0.0
 10
22.652568
 20
86.220858
 30
0.0
  0
LWPOLYLINE
  5
285
100
AcDbEntity
  8
0
 62
7
100
AcDbPolyline
 90
1
 70
1
 10
37.494393
 20
87.229834
 30
0.0
  0
LWPOLYLINE
  5
286
100
AcDbEntity
  8
0
 62
7
100
AcDbPolyline
 90
1
 70
1
 10
22.652568
 20
86.220858
 30
0.0
  0
ENDSEC
  0
SECTION
  2
OBJECTS
  0
DICTIONARY
  5
C
330
0
100
AcDbDictionary
  3
ACAD_GROUP
350
D
  3
ACAD_MLINESTYLE
350
17
  0
DICTIONARY
  5
D
330
C
100
AcDbDictionary
  0
DICTIONARY
  5
1A
330
C
100
AcDbDictionary
  0
DICTIONARY
  5
17
330
C
100
AcDbDictionary
  3
STANDARD
350
18
  0
DICTIONARY
  5
19
330
C
100
AcDbDictionary
  0
ENDSEC
  0
EOF
