  0
SECTION
  2
HEADER
  9
$ACADVER
  1
AC1032
  9
$ACADMAINTVER
 90
      228
  9
$DWGCODEPAGE
  3
ANSI_1252
  9
$REQUIREDVERSIONS
160
                 0
  9
$INSBASE
 10
0.0
 20
0.0
 30
0.0
  9
$EXTMIN
 10
1.000000000000000E+20
 20
1.000000000000000E+20
 30
1.000000000000000E+20
  9
$EXTMAX
 10
-1.000000000000000E+20
 20
-1.000000000000000E+20
 30
-1.000000000000000E+20
  9
$LIMMIN
 10
0.0
 20
0.0
  9
$LIMMAX
 10
12.0
 20
9.0
  9
$ORTHOMODE
 70
     0
  9
$REGENMODE
 70
     1
  9
$FILLMODE
 70
     1
  9
$QTEXTMODE
 70
     0
  9
$MIRRTEXT
 70
     0
  9
$LTSCALE
 40
1.0
  9
$ATTMODE
 70
     1
  9
$TEXTSIZE
 40
0.2
  9
$TRACEWID
 40
0.05
  9
$TEXTSTYLE
  7
Standard
  9
$CLAYER
  8
0
  9
$CELTYPE
  6
ByLayer
  9
$CECOLOR
 62
   256
  9
$CELTSCALE
 40
1.0
  9
$DISPSILH
 70
     0
  9
$DIMSCALE
 40
1.0
  9
$DIMASZ
 40
0.18
  9
$DIMEXO
 40
0.0625
  9
$DIMDLI
 40
0.38
  9
$DIMRND
 40
0.0
  9
$DIMDLE
 40
0.0
  9
$DIMEXE
 40
0.18
  9
$DIMTP
 40
0.0
  9
$DIMTM
 40
0.0
  9
$DIMTXT
 40
0.18
  9
$DIMCEN
 40
0.09
  9
$DIMTSZ
 40
0.0
  9
$DIMTOL
 70
     0
  9
$DIMLIM
 70
     0
  9
$DIMTIH
 70
     1
  9
$DIMTOH
 70
     1
  9
$DIMSE1
 70
     0
  9
$DIMSE2
 70
     0
  9
$DIMTAD
 70
     0
  9
$DIMZIN
 70
     0
  9
$DIMBLK
  1

  9
$DIMASO
 70
     1
  9
$DIMSHO
 70
     1
  9
$DIMPOST
  1

  9
$DIMAPOST
  1

  9
$DIMALT
 70
     0
  9
$DIMALTD
 70
     2
  9
$DIMALTF
 40
25.4
  9
$DIMLFAC
 40
1.0
  9
$DIMTOFL
 70
     0
  9
$DIMTVP
 40
0.0
  9
$DIMTIX
 70
     0
  9
$DIMSOXD
 70
     0
  9
$DIMSAH
 70
     0
  9
$DIMBLK1
  1

  9
$DIMBLK2
  1

  9
$DIMSTYLE
  2
Standard
  9
$DIMCLRD
 70
     0
  9
$DIMCLRE
 70
     0
  9
$DIMCLRT
 70
     0
  9
$DIMTFAC
 40
1.0
  9
$DIMGAP
 40
0.09
  9
$DIMJUST
 70
     0
  9
$DIMSD1
 70
     0
  9
$DIMSD2
 70
     0
  9
$DIMTOLJ
 70
     1
  9
$DIMTZIN
 70
     0
  9
$DIMALTZ
 70
     0
  9
$DIMALTTZ
 70
     0
  9
$DIMUPT
 70
     0
  9
$DIMDEC
 70
     4
  9
$DIMTDEC
 70
     4
  9
$DIMALTU
 70
     2
  9
$DIMALTTD
 70
     2
  9
$DIMTXSTY
  7
Standard
  9
$DIMAUNIT
 70
     0
  9
$DIMADEC
 70
     0
  9
$DIMALTRND
 40
0.0
  9
$DIMAZIN
 70
     0
  9
$DIMDSEP
 70
    46
  9
$DIMATFIT
 70
     3
  9
$DIMFRAC
 70
     0
  9
$DIMLDRBLK
  1

  9
$DIMLUNIT
 70
     2
  9
$DIMLWD
 70
    -2
  9
$DIMLWE
 70
    -2
  9
$DIMTMOVE
 70
     0
  9
$DIMFXL
 40
1.0
  9
$DIMFXLON
 70
     0
  9
$DIMJOGANG
 40
0.7853981633974483
  9
$DIMTFILL
 70
     0
  9
$DIMTFILLCLR
 70
     0
  9
$DIMARCSYM
 70
     0
  9
$DIMLTYPE
  6

  9
$DIMLTEX1
  6

  9
$DIMLTEX2
  6

  9
$DIMTXTDIRECTION
 70
     0
  9
$LUNITS
 70
     2
  9
$LUPREC
 70
     4
  9
$SKETCHINC
 40
0.1
  9
$FILLETRAD
 40
0.0
  9
$AUNITS
 70
     0
  9
$AUPREC
 70
     0
  9
$MENU
  1
.
  9
$ELEVATION
 40
0.0
  9
$PELEVATION
 40
0.0
  9
$THICKNESS
 40
0.0
  9
$LIMCHECK
 70
     0
  9
$CHAMFERA
 40
0.0
  9
$CHAMFERB
 40
0.0
  9
$CHAMFERC
 40
0.0
  9
$CHAMFERD
 40
0.0
  9
$SKPOLY
 70
     0
  9
$TDCREATE
 40
2459814.964918982
  9
$TDUCREATE
 40
2459814.881585649
  9
$TDUPDATE
 40
2459814.964918982
  9
$TDUUPDATE
 40
2459814.881585649
  9
$TDINDWG
 40
0.0000000000
  9
$TDUSRTIMER
 40
0.0000000000
  9
$USRTIMER
 70
     1
  9
$ANGBASE
 50
0.0
  9
$ANGDIR
 70
     0
  9
$PDMODE
 70
     0
  9
$PDSIZE
 40
0.0
  9
$PLINEWID
 40
0.0
  9
$SPLFRAME
 70
     0
  9
$SPLINETYPE
 70
     6
  9
$SPLINESEGS
 70
     8
  9
$HANDSEED
  5
DE
  9
$SURFTAB1
 70
     6
  9
$SURFTAB2
 70
     6
  9
$SURFTYPE
 70
     6
  9
$SURFU
 70
     6
  9
$SURFV
 70
     6
  9
$UCSBASE
  2

  9
$UCSNAME
  2

  9
$UCSORG
 10
0.0
 20
0.0
 30
0.0
  9
$UCSXDIR
 10
1.0
 20
0.0
 30
0.0
  9
$UCSYDIR
 10
0.0
 20
1.0
 30
0.0
  9
$UCSORTHOREF
  2

  9
$UCSORTHOVIEW
 70
     0
  9
$UCSORGTOP
 10
0.0
 20
0.0
 30
0.0
  9
$UCSORGBOTTOM
 10
0.0
 20
0.0
 30
0.0
  9
$UCSORGLEFT
 10
0.0
 20
0.0
 30
0.0
  9
$UCSORGRIGHT
 10
0.0
 20
0.0
 30
0.0
  9
$UCSORGFRONT
 10
0.0
 20
0.0
 30
0.0
  9
$UCSORGBACK
 10
0.0
 20
0.0
 30
0.0
  9
$PUCSBASE
  2

  9
$PUCSNAME
  2

  9
$PUCSORG
 10
0.0
 20
0.0
 30
0.0
  9
$PUCSXDIR
 10
1.0
 20
0.0
 30
0.0
  9
$PUCSYDIR
 10
0.0
 20
1.0
 30
0.0
  9
$PUCSORTHOREF
  2

  9
$PUCSORTHOVIEW
 70
     0
  9
$PUCSORGTOP
 10
0.0
 20
0.0
 30
0.0
  9
$PUCSORGBOTTOM
 10
0.0
 20
0.0
 30
0.0
  9
$PUCSORGLEFT
 10
0.0
 20
0.0
 30
0.0
  9
$PUCSORGRIGHT
 10
0.0
 20
0.0
 30
0.0
  9
$PUCSORGFRONT
 10
0.0
 20
0.0
 30
0.0
  9
$PUCSORGBACK
 10
0.0
 20
0.0
 30
0.0
  9
$USERI1
 70
     0
  9
$USERI2
 70
     0
  9
$USERI3
 70
     0
  9
$USERI4
 70
     0
  9
$USERI5
 70
     0
  9
$USERR1
 40
0.0
  9
$USERR2
 40
0.0
  9
$USERR3
 40
0.0
  9
$USERR4
 40
0.0
  9
$USERR5
 40
0.0
  9
$WORLDVIEW
 70
     1
  9
$SHADEDGE
 70
     3
  9
$SHADEDIF
 70
    70
  9
$TILEMODE
 70
     1
  9
$MAXACTVP
 70
    64
  9
$PINSBASE
 10
0.0
 20
0.0
 30
0.0
  9
$PLIMCHECK
 70
     0
  9
$PEXTMIN
 10
1.000000000000000E+20
 20
1.000000000000000E+20
 30
1.000000000000000E+20
  9
$PEXTMAX
 10
-1.000000000000000E+20
 20
-1.000000000000000E+20
 30
-1.000000000000000E+20
  9
$PLIMMIN
 10
0.0
 20
0.0
  9
$PLIMMAX
 10
12.0
 20
9.0
  9
$UNITMODE
 70
     0
  9
$VISRETAIN
 70
     1
  9
$PLINEGEN
 70
     0
  9
$PSLTSCALE
 70
     1
  9
$TREEDEPTH
 70
  3020
  9
$CMLSTYLE
  2
Standard
  9
$CMLJUST
 70
     0
  9
$CMLSCALE
 40
1.0
  9
$PROXYGRAPHICS
 70
     1
  9
$MEASUREMENT
 70
     0
  9
$CELWEIGHT
370
    -1
  9
$ENDCAPS
280
     0
  9
$JOINSTYLE
280
     0
  9
$LWDISPLAY
290
     1
  9
$INSUNITS
 70
     4
  9
$HYPERLINKBASE
  1

  9
$STYLESHEET
  1

  9
$XEDIT
290
     1
  9
$CEPSNTYPE
380
     0
  9
$PSTYLEMODE
290
     1
  9
$FINGERPRINTGUID
  2
{9C74DD00-D882-1C47-87BE-18B22143346D}
  9
$VERSIONGUID
  2
{29254B18-218B-4A4D-918A-39EBE9D19829}
  9
$EXTNAMES
290
     1
  9
$PSVPSCALE
 40
0.0
  9
$OLESTARTUP
290
     0
  9
$SORTENTS
280
   127
  9
$INDEXCTL
280
     0
  9
$HIDETEXT
280
     1
  9
$XCLIPFRAME
280
     2
  9
$HALOGAP
280
     0
  9
$OBSCOLOR
 70
   257
  9
$OBSLTYPE
280
     0
  9
$INTERSECTIONDISPLAY
280
     0
  9
$INTERSECTIONCOLOR
 70
   257
  9
$DIMASSOC
280
     2
  9
$PROJECTNAME
  1

  9
$CAMERADISPLAY
290
     0
  9
$LENSLENGTH
 40
50.0
  9
$CAMERAHEIGHT
 40
0.0
  9
$STEPSPERSEC
 40
2.0
  9
$STEPSIZE
 40
6.0
  9
$3DDWFPREC
 40
2.0
  9
$PSOLWIDTH
 40
0.25
  9
$PSOLHEIGHT
 40
4.0
  9
$LOFTANG1
 40
1.570796326794896
  9
$LOFTANG2
 40
1.570796326794896
  9
$LOFTMAG1
 40
0.0
  9
$LOFTMAG2
 40
0.0
  9
$LOFTPARAM
 70
     7
  9
$LOFTNORMALS
280
     1
  9
$LATITUDE
 40
37.795
  9
$LONGITUDE
 40
-122.394
  9
$NORTHDIRECTION
 40
0.0
  9
$TIMEZONE
 70
 -8000
  9
$LIGHTGLYPHDISPLAY
280
     1
  9
$TILEMODELIGHTSYNCH
280
     1
  9
$CMATERIAL
347
11
  9
$SOLIDHIST
280
     0
  9
$SHOWHIST
280
     1
  9
$DWFFRAME
280
     2
  9
$DGNFRAME
280
     0
  9
$REALWORLDSCALE
290
     1
  9
$INTERFERECOLOR
 62
     1
  9
$INTERFEREOBJVS
345
33
  9
$INTERFEREVPVS
346
30
  9
$CSHADOW
280
     0
  9
$SHADOWPLANELOCATION
 40
0.0
  0
ENDSEC
  0
SECTION
  2
CLASSES
  0
CLASS
  1
ACDBDICTIONARYWDFLT
  2
AcDbDictionaryWithDefault
  3
ObjectDBX Classes
 90
        0
 91
        1
280
     0
281
     0
  0
CLASS
  1
MATERIAL
  2
AcDbMaterial
  3
ObjectDBX Classes
 90
     1153
 91
        3
280
     0
281
     0
  0
CLASS
  1
VISUALSTYLE
  2
AcDbVisualStyle
  3
ObjectDBX Classes
 90
     4095
 91
       24
280
     0
281
     0
  0
CLASS
  1
SCALE
  2
AcDbScale
  3
ObjectDBX Classes
 90
     1153
 91
       17
280
     0
281
     0
  0
CLASS
  1
TABLESTYLE
  2
AcDbTableStyle
  3
ObjectDBX Classes
 90
     4095
 91
        1
280
     0
281
     0
  0
CLASS
  1
MLEADERSTYLE
  2
AcDbMLeaderStyle
  3
ACDB_MLEADERSTYLE_CLASS
 90
     4095
 91
        1
280
     0
281
     0
  0
CLASS
  1
ACDBSECTIONVIEWSTYLE
  2
AcDbSectionViewStyle
  3
ObjectDBX Classes
 90
     1025
 91
        1
280
     0
281
     0
  0
CLASS
  1
ACDBDETAILVIEWSTYLE
  2
AcDbDetailViewStyle
  3
ObjectDBX Classes
 90
     1025
 91
        1
280
     0
281
     0
  0
CLASS
  1
DICTIONARYVAR
  2
AcDbDictionaryVar
  3
ObjectDBX Classes
 90
        0
 91
        5
280
     0
281
     0
  0
CLASS
  1
CELLSTYLEMAP
  2
AcDbCellStyleMap
  3
ObjectDBX Classes
 90
     1152
 91
        1
280
     0
281
     0
  0
ENDSEC
  0
SECTION
  2
TABLES
  0
TABLE
  2
VPORT
  5
8
330
0
100
AcDbSymbolTable
 70
     1
  0
VPORT
  5
57
330
8
100
AcDbSymbolTableRecord
100
AcDbViewportTableRecord
  2
*Active
 70
     0
 10
0.0
 20
0.0
 11
1.0
 21
1.0
 12
0.0
 22
0.0
 13
0.0
 23
0.0
 14
1.0
 24
1.0
 15
0.0
 25
0.0
 16
0.0
 26
0.0
 36
1.0
 17
93.07006583471105
 27
46.24499701297504
 37
0.0
 40
94.33979390646909
 41
2.012543451044195
 42
50.0
 43
0.0
 44
0.0
 50
0.0
 51
0.0
 71
     0
 72
   100
 73
     1
 74
     1
 75
     0
 76
     0
 77
     0
 78
     0
281
     0
 65
     1
110
0.0
120
0.0
130
0.0
111
1.0
121
0.0
131
0.0
112
0.0
122
1.0
132
0.0
 79
     0
146
0.0
 60
     3
 61
     5
292
     1
282
     1
141
0.0
142
0.0
 63
   250
421
  3355443
  0
ENDTAB
  0
TABLE
  2
LTYPE
  5
5
330
0
100
AcDbSymbolTable
 70
     1
  0
LTYPE
  5
5B
330
5
100
AcDbSymbolTableRecord
100
AcDbLinetypeTableRecord
  2
ByBlock
 70
     0
  3

 72
    65
 73
     0
 40
0.0
  0
LTYPE
  5
5C
330
5
100
AcDbSymbolTableRecord
100
AcDbLinetypeTableRecord
  2
ByLayer
 70
     0
  3

 72
    65
 73
     0
 40
0.0
  0
LTYPE
  5
5D
330
5
100
AcDbSymbolTableRecord
100
AcDbLinetypeTableRecord
  2
Continuous
 70
     0
  3
Solid line
 72
    65
 73
     0
 40
0.0
  0
ENDTAB
  0
TABLE
  2
LAYER
  5
2
330
0
100
AcDbSymbolTable
 70
     2
  0
LAYER
  5
54
330
2
100
AcDbSymbolTableRecord
100
AcDbLayerTableRecord
  2
0
 70
     0
 62
     7
  6
Continuous
370
    -3
390
F
347
21
348
0
  0
LAYER
  5
78
330
2
100
AcDbSymbolTableRecord
100
AcDbLayerTableRecord
  2
Ebene 1
 70
     0
 62
     7
  6
Continuous
370
     0
390
F
347
21
348
0
  0
ENDTAB
  0
TABLE
  2
STYLE
  5
3
330
0
100
AcDbSymbolTable
 70
     2
  0
STYLE
  5
55
330
3
100
AcDbSymbolTableRecord
100
AcDbTextStyleTableRecord
  2
Standard
 70
     0
 40
0.0
 41
1.0
 50
0.0
 71
     0
 42
0.2
  3
txt
  4

  0
STYLE
  5
5A
330
3
100
AcDbSymbolTableRecord
100
AcDbTextStyleTableRecord
  2
Annotative
 70
     0
 40
0.0
 41
1.0
 50
0.0
 71
     0
 42
0.2
  3
txt
  4

1001
AcadAnnotative
1000
AnnotativeData
1002
{
1070
     1
1070
     1
1002
}
  0
ENDTAB
  0
TABLE
  2
VIEW
  5
6
330
0
100
AcDbSymbolTable
 70
     0
  0
ENDTAB
  0
TABLE
  2
UCS
  5
7
330
0
100
AcDbSymbolTable
 70
     0
  0
ENDTAB
  0
TABLE
  2
APPID
  5
9
330
0
100
AcDbSymbolTable
 70
     2
  0
APPID
  5
56
330
9
100
AcDbSymbolTableRecord
100
AcDbRegAppTableRecord
  2
ACAD
 70
     0
  0
APPID
  5
5E
330
9
100
AcDbSymbolTableRecord
100
AcDbRegAppTableRecord
  2
AcadAnnotative
 70
     0
  0
ENDTAB
  0
TABLE
  2
DIMSTYLE
  5
A
330
0
100
AcDbSymbolTable
 70
     2
100
AcDbDimStyleTable
 71
     0
  0
DIMSTYLE
105
58
330
A
100
AcDbSymbolTableRecord
100
AcDbDimStyleTableRecord
  2
Standard
 70
     0
340
55
  0
DIMSTYLE
105
59
330
A
100
AcDbSymbolTableRecord
100
AcDbDimStyleTableRecord
  2
Annotative
 70
     0
340
55
1001
AcadAnnotative
1000
AnnotativeData
1002
{
1070
     1
1070
     1
1002
}
  0
ENDTAB
  0
TABLE
  2
BLOCK_RECORD
  5
1
330
0
100
AcDbSymbolTable
 70
     2
  0
BLOCK_RECORD
  5
70
330
1
100
AcDbSymbolTableRecord
100
AcDbBlockTableRecord
  2
*Model_Space
340
73
 70
     0
280
     1
281
     0
  0
BLOCK_RECORD
  5
6C
330
1
100
AcDbSymbolTableRecord
100
AcDbBlockTableRecord
  2
*Paper_Space
340
6F
 70
     0
280
     1
281
     0
  0
BLOCK_RECORD
  5
74
330
1
100
AcDbSymbolTableRecord
100
AcDbBlockTableRecord
  2
*Paper_Space0
340
77
 70
     0
280
     1
281
     0
  0
BLOCK_RECORD
  5
C5
330
1
100
AcDbSymbolTableRecord
100
AcDbBlockTableRecord
  2
Block_0
340
0
102
{BLKREFS
331
C6
102
}
 70
     0
280
     1
281
     0
  0
ENDTAB
  0
ENDSEC
  0
SECTION
  2
BLOCKS
  0
BLOCK
  5
71
330
70
100
AcDbEntity
  8
0
100
AcDbBlockBegin
  2
*Model_Space
 70
     0
 10
0.0
 20
0.0
 30
0.0
  3
*Model_Space
  1

  0
ENDBLK
  5
72
330
70
100
AcDbEntity
  8
0
100
AcDbBlockEnd
  0
BLOCK
  5
6D
330
6C
100
AcDbEntity
 67
     1
  8
0
100
AcDbBlockBegin
  2
*Paper_Space
 70
     0
 10
0.0
 20
0.0
 30
0.0
  3
*Paper_Space
  1

  0
ENDBLK
  5
6E
330
6C
100
AcDbEntity
 67
     1
  8
0
100
AcDbBlockEnd
  0
BLOCK
  5
75
330
74
100
AcDbEntity
 67
     1
  8
0
100
AcDbBlockBegin
  2
*Paper_Space0
 70
     0
 10
0.0
 20
0.0
 30
0.0
  3
*Paper_Space0
  1

  0
ENDBLK
  5
76
330
74
100
AcDbEntity
 67
     1
  8
0
100
AcDbBlockEnd
  0
BLOCK
  5
C7
330
C5
100
AcDbEntity
  8
0
100
AcDbBlockBegin
  2
Block_0
 70
     0
 10
0.0
 20
0.0
 30
0.0
  3
Block_0
  1

  0
LWPOLYLINE
  5
C9
330
C5
100
AcDbEntity
  8
Ebene 1
100
AcDbPolyline
 90
        6
 70
     1
 43
0.0
 10
97.71070957169245
 20
86.27398940466621
 10
97.71070957169245
 20
68.85412311371495
 10
104.4768682098439
 20
68.85412311371495
 10
104.4768682098439
 20
69.32683590093924
 10
98.18694275522325
 20
69.32683590093924
 10
98.18694275522325
 20
86.27398940466621
  0
HATCH
  5
CA
330
C5
100
AcDbEntity
  8
Ebene 1
 62
     6
420
 16711935
440
 33554687
100
AcDbHatch
 10
0.0
 20
0.0
 30
0.0
210
0.0
220
0.0
230
1.0
  2
SOLID
 70
     1
 71
     1
 91
        1
 92
        1
 93
        6
 72
     1
 10
97.71070957169245
 20
86.27398940466621
 11
97.71070957169245
 21
68.85412311371495
 72
     1
 10
97.71070957169245
 20
68.85412311371495
 11
104.4768682098439
 21
68.85412311371495
 72
     1
 10
104.4768682098439
 20
68.85412311371495
 11
104.4768682098439
 21
69.32683590093924
 72
     1
 10
104.4768682098439
 20
69.32683590093924
 11
98.18694275522325
 21
69.32683590093924
 72
     1
 10
98.18694275522325
 20
69.32683590093924
 11
98.18694275522325
 21
86.27398940466621
 72
     1
 10
98.18694275522325
 20
86.27398940466621
 11
97.71070957169245
 21
86.27398940466621
 97
        1
330
C9
 75
     2
 76
     1
 98
        1
 10
0.0
 20
0.0
450
        0
451
        0
460
0.0
461
0.0
452
        0
462
0.0
453
        0
470

  0
LWPOLYLINE
  5
CB
330
C5
100
AcDbEntity
  8
Ebene 1
100
AcDbPolyline
 90
       11
 70
     1
 43
0.0
 10
85.39897398298725
 20
75.05232178964897
 10
89.5052363653393
 20
83.218986529303
 10
93.61502452686682
 20
75.05232178964897
 10
94.14418207811255
 20
75.05232178964897
 10
89.76981514096216
 20
83.74814408054874
 10
94.14418207811255
 20
92.4898270693572
 10
93.61502452686682
 20
92.4898270693572
 10
85.51538929020559
 20
76.35052175636268
 10
85.51538929020559
 20
92.4898270693572
 10
85.0426765029813
 20
92.4898270693572
 10
85.0426765029813
 20
75.05232178964897
  0
HATCH
  5
CC
330
C5
100
AcDbEntity
  8
Ebene 1
 62
     6
420
 16711935
440
 33554687
100
AcDbHatch
 10
0.0
 20
0.0
 30
0.0
210
0.0
220
0.0
230
1.0
  2
SOLID
 70
     1
 71
     1
 91
        1
 92
        1
 93
       11
 72
     1
 10
85.39897398298725
 20
75.05232178964897
 11
89.5052363653393
 21
83.218986529303
 72
     1
 10
89.5052363653393
 20
83.218986529303
 11
93.61502452686682
 21
75.05232178964897
 72
     1
 10
93.61502452686682
 20
75.05232178964897
 11
94.14418207811255
 21
75.05232178964897
 72
     1
 10
94.14418207811255
 20
75.05232178964897
 11
89.76981514096216
 21
83.74814408054874
 72
     1
 10
89.76981514096216
 20
83.74814408054874
 11
94.14418207811255
 21
92.4898270693572
 72
     1
 10
94.14418207811255
 20
92.4898270693572
 11
93.61502452686682
 21
92.4898270693572
 72
     1
 10
93.61502452686682
 20
92.4898270693572
 11
85.51538929020559
 21
76.35052175636268
 72
     1
 10
85.51538929020559
 20
76.35052175636268
 11
85.51538929020559
 21
92.4898270693572
 72
     1
 10
85.51538929020559
 20
92.4898270693572
 11
85.0426765029813
 21
92.4898270693572
 72
     1
 10
85.0426765029813
 20
92.4898270693572
 11
85.0426765029813
 21
75.05232178964897
 72
     1
 10
85.0426765029813
 20
75.05232178964897
 11
85.39897398298725
 21
75.05232178964897
 97
        1
330
CB
 75
     2
 76
     1
 98
        1
 10
0.0
 20
0.0
450
        0
451
        0
460
0.0
461
0.0
452
        0
462
0.0
453
        0
470

  0
LWPOLYLINE
  5
CD
330
C5
100
AcDbEntity
  8
Ebene 1
100
AcDbPolyline
 90
        4
 70
     1
 43
0.0
 10
84.96506629816908
 20
64.61380845396357
 10
107.5459863133643
 20
64.61380845396357
 10
107.5459863133643
 20
64.14109566673928
 10
84.96506629816908
 20
64.14109566673928
  0
HATCH
  5
CE
330
C5
100
AcDbEntity
  8
Ebene 1
 62
     6
420
 16711935
440
 33554687
100
AcDbHatch
 10
0.0
 20
0.0
 30
0.0
210
0.0
220
0.0
230
1.0
  2
SOLID
 70
     1
 71
     1
 91
        1
 92
        1
 93
        4
 72
     1
 10
84.96506629816908
 20
64.61380845396357
 11
107.5459863133643
 21
64.61380845396357
 72
     1
 10
107.5459863133643
 20
64.61380845396357
 11
107.5459863133643
 21
64.14109566673928
 72
     1
 10
107.5459863133643
 20
64.14109566673928
 11
84.96506629816908
 21
64.14109566673928
 72
     1
 10
84.96506629816908
 20
64.14109566673928
 11
84.96506629816908
 21
64.61380845396357
 97
        1
330
CD
 75
     2
 76
     1
 98
        1
 10
0.0
 20
0.0
450
        0
451
        0
460
0.0
461
0.0
452
        0
462
0.0
453
        0
470

  0
SPLINE
  5
CF
330
C5
100
AcDbEntity
  8
Ebene 1
100
AcDbSpline
210
0.0
220
0.0
230
1.0
 70
     9
 71
     3
 72
    17
 73
    13
 74
     0
 42
0.0000000001
 43
0.0000000001
 40
0.0
 40
0.0
 40
0.0
 40
0.0
 40
1.0
 40
1.0
 40
1.0
 40
2.0
 40
2.0
 40
2.0
 40
3.0
 40
3.0
 40
3.0
 40
4.0
 40
4.0
 40
4.0
 40
4.0
 10
123.6217845382485
 20
64.61380845396357
 30
0.0
 10
119.0816144710783
 20
64.61380845396357
 30
0.0
 10
115.3916254947981
 20
68.30732859228823
 30
0.0
 10
115.3916254947981
 20
72.8439728802833
 30
0.0
 10
115.3916254947981
 20
77.38061716827774
 30
0.0
 10
119.0851456331227
 20
81.07413730660239
 30
0.0
 10
123.6217845382485
 20
81.07413730660239
 30
0.0
 10
128.1584234433743
 20
81.07413730660239
 30
0.0
 10
131.851943581699
 20
77.38061716827774
 30
0.0
 10
131.851943581699
 20
72.8439728802833
 30
0.0
 10
131.851943581699
 20
68.30732859228823
 30
0.0
 10
128.1584234433743
 20
64.61380845396357
 30
0.0
 10
123.6217845382485
 20
64.61380845396357
 30
0.0
  0
SPLINE
  5
D0
330
C5
100
AcDbEntity
  8
Ebene 1
100
AcDbSpline
210
0.0
220
0.0
230
1.0
 70
     9
 71
     3
 72
    17
 73
    13
 74
     0
 42
0.0000000001
 43
0.0000000001
 40
0.0
 40
0.0
 40
0.0
 40
0.0
 40
1.0
 40
1.0
 40
1.0
 40
2.0
 40
2.0
 40
2.0
 40
3.0
 40
3.0
 40
3.0
 40
4.0
 40
4.0
 40
4.0
 40
4.0
 10
123.6217845382485
 20
81.55037654586115
 30
0.0
 10
118.8205668574999
 20
81.55037654586115
 30
0.0
 10
114.9153815455294
 20
77.64519325246627
 30
0.0
 10
114.9153815455294
 20
72.84397018884866
 30
0.0
 10
114.9153815455294
 20
68.04274712523104
 30
0.0
 10
118.8205668574999
 20
64.13756450469484
 30
0.0
 10
123.6217845382485
 20
64.13756450469484
 30
0.0
 10
128.4230022189972
 20
64.13756450469484
 30
0.0
 10
132.3281875309677
 20
68.04274712523104
 30
0.0
 10
132.3281875309677
 20
72.84397018884866
 30
0.0
 10
132.3281875309677
 20
77.64519325246627
 30
0.0
 10
128.4230022189972
 20
81.55037587300247
 30
0.0
 10
123.6217845382485
 20
81.55037654586115
 30
0.0
  0
HATCH
  5
D1
330
C5
100
AcDbEntity
  8
Ebene 1
 62
     6
420
 16711935
440
 33554687
100
AcDbHatch
 10
0.0
 20
0.0
 30
0.0
210
0.0
220
0.0
230
1.0
  2
SOLID
 70
     1
 71
     1
 91
        2
 92
        1
 93
        1
 72
     4
 94
        3
 73
     0
 74
     0
 95
       17
 96
       13
 40
0.0
 40
0.0
 40
0.0
 40
0.0
 40
1.0
 40
1.0
 40
1.0
 40
2.0
 40
2.0
 40
2.0
 40
3.0
 40
3.0
 40
3.0
 40
4.0
 40
4.0
 40
4.0
 40
4.0
 10
123.6217845382485
 20
64.61380845396357
 10
119.0816144710783
 20
64.61380845396357
 10
115.3916254947981
 20
68.30732859228823
 10
115.3916254947981
 20
72.8439728802833
 10
115.3916254947981
 20
77.38061716827774
 10
119.0851456331227
 20
81.07413730660239
 10
123.6217845382485
 20
81.07413730660239
 10
128.1584234433743
 20
81.07413730660239
 10
131.851943581699
 20
77.38061716827774
 10
131.851943581699
 20
72.8439728802833
 10
131.851943581699
 20
68.30732859228823
 10
128.1584234433743
 20
64.61380845396357
 10
123.6217845382485
 20
64.61380845396357
 97
        0
 97
        1
330
CF
 92
        1
 93
        1
 72
     4
 94
        3
 73
     0
 74
     0
 95
       17
 96
       13
 40
0.0
 40
0.0
 40
0.0
 40
0.0
 40
1.0
 40
1.0
 40
1.0
 40
2.0
 40
2.0
 40
2.0
 40
3.0
 40
3.0
 40
3.0
 40
4.0
 40
4.0
 40
4.0
 40
4.0
 10
123.6217845382485
 20
81.55037654586115
 10
118.8205668574999
 20
81.55037654586115
 10
114.9153815455294
 20
77.64519325246627
 10
114.9153815455294
 20
72.84397018884866
 10
114.9153815455294
 20
68.04274712523104
 10
118.8205668574999
 20
64.13756450469484
 10
123.6217845382485
 20
64.13756450469484
 10
128.4230022189972
 20
64.13756450469484
 10
132.3281875309677
 20
68.04274712523104
 10
132.3281875309677
 20
72.84397018884866
 10
132.3281875309677
 20
77.64519325246627
 10
128.4230022189972
 20
81.55037587300247
 10
123.6217845382485
 20
81.55037654586115
 97
        0
 97
        1
330
D0
 75
     2
 76
     1
 98
        1
 10
0.0
 20
0.0
450
        0
451
        0
460
0.0
461
0.0
452
        0
462
0.0
453
        0
470

  0
SPLINE
  5
D2
330
C5
100
AcDbEntity
  8
Ebene 1
100
AcDbSpline
210
0.0
220
0.0
230
1.0
 70
    11
 71
     3
 72
    26
 73
    22
 74
     0
 42
0.0000000001
 43
0.0000000001
 40
0.0
 40
0.0
 40
0.0
 40
0.0
 40
1.0
 40
1.0
 40
1.0
 40
2.0
 40
2.0
 40
2.0
 40
3.0
 40
3.0
 40
3.0
 40
4.0
 40
4.0
 40
4.0
 40
5.0
 40
5.0
 40
5.0
 40
6.0
 40
6.0
 40
6.0
 40
7.0
 40
7.0
 40
7.0
 40
7.0
 10
136.1063801981935
 20
77.16542486973938
 30
0.0
 10
136.1063801981935
 20
77.16542486973938
 30
0.0
 10
136.1063801981935
 20
85.48730867330055
 30
0.0
 10
136.1063801981935
 20
85.48730867330055
 30
0.0
 10
136.1063801981935
 20
85.48730867330055
 30
0.0
 10
144.1001882309007
 20
85.48730867330055
 30
0.0
 10
144.1001882309007
 20
85.48730867330055
 30
0.0
 10
144.1001882309007
 20
85.48730867330055
 30
0.0
 10
144.1001882309007
 20
77.17953471502726
 30
0.0
 10
144.1001882309007
 20
77.17953471502726
 30
0.0
 10
144.1001882309007
 20
77.17953471502726
 30
0.0
 10
136.1063801981935
 20
77.17953471502726
 30
0.0
 10
136.1063801981935
 20
77.17953471502726
 30
0.0
 10
136.1063801981935
 20
77.17953471502726
 30
0.0
 10
136.1063801981935
 20
77.17247911952465
 30
0.0
 10
136.1063801981935
 20
77.17247911952465
 30
0.0
 10
136.1063801981935
 20
77.17247911952465
 30
0.0
 10
136.1063801981935
 20
77.17247911952465
 30
0.0
 10
136.1063801981935
 20
77.17247911952465
 30
0.0
 10
136.1063801981935
 20
77.17247911952465
 30
0.0
 10
136.1063801981935
 20
77.16542486973938
 30
0.0
 10
136.1063801981935
 20
77.16542486973938
 30
0.0
  0
SPLINE
  5
D3
330
C5
100
AcDbEntity
  8
Ebene 1
100
AcDbSpline
210
0.0
220
0.0
230
1.0
 70
    11
 71
     3
 72
    38
 73
    34
 74
     0
 42
0.0000000001
 43
0.0000000001
 40
0.0
 40
0.0
 40
0.0
 40
0.0
 40
1.0
 40
1.0
 40
1.0
 40
2.0
 40
2.0
 40
2.0
 40
3.0
 40
3.0
 40
3.0
 40
4.0
 40
4.0
 40
4.0
 40
5.0
 40
5.0
 40
5.0
 40
6.0
 40
6.0
 40
6.0
 40
7.0
 40
7.0
 40
7.0
 40
8.0
 40
8.0
 40
8.0
 40
9.0
 40
9.0
 40
9.0
 40
10.0
 40
10.0
 40
10.0
 40
11.0
 40
11.0
 40
11.0
 40
11.0
 10
144.572901018125
 20
76.70329345719316
 30
0.0
 10
144.572901018125
 20
76.70329345719316
 30
0.0
 10
144.572901018125
 20
85.96002280624217
 30
0.0
 10
144.572901018125
 20
85.96002280624217
 30
0.0
 10
144.572901018125
 20
85.96002280624217
 30
0.0
 10
135.6301362489247
 20
85.96002280624217
 30
0.0
 10
135.6301362489247
 20
85.96002280624217
 30
0.0
 10
135.6301362489247
 20
85.96002280624217
 30
0.0
 10
135.6301362489247
 20
68.53309957407066
 30
0.0
 10
135.6301362489247
 20
68.53309957407066
 30
0.0
 10
135.6301362489247
 20
68.53309957407066
 30
0.0
 10
136.102849036149
 20
68.53309957407066
 30
0.0
 10
136.102849036149
 20
68.53309957407066
 30
0.0
 10
136.102849036149
 20
68.53309957407066
 30
0.0
 10
136.102849036149
 20
76.70681923636863
 30
0.0
 10
136.102849036149
 20
76.70681923636863
 30
0.0
 10
136.102849036149
 20
76.70681923636863
 30
0.0
 10
140.1103303900291
 20
76.70681923636863
 30
0.0
 10
140.1103303900291
 20
76.70681923636863
 30
0.0
 10
140.1103303900291
 20
76.70681923636863
 30
0.0
 10
144.2201185515566
 20
68.53309957407066
 30
0.0
 10
144.2201185515566
 20
68.53309957407066
 30
0.0
 10
144.2201185515566
 20
68.53309957407066
 30
0.0
 10
144.7492761028023
 20
68.53309957407066
 30
0.0
 10
144.7492761028023
 20
68.53309957407066
 30
0.0
 10
144.7492761028023
 20
68.53309957407066
 30
0.0
 10
140.6394879412748
 20
76.70681923636863
 30
0.0
 10
140.6394879412748
 20
76.70681923636863
 30
0.0
 10
140.6394879412748
 20
76.70681923636863
 30
0.0
 10
144.5728902523871
 20
76.70681923636863
 30
0.0
 10
144.5728902523871
 20
76.70681923636863
 30
0.0
 10
144.5728902523871
 20
76.70681923636863
 30
0.0
 10
144.572901018125
 20
76.70329345719316
 30
0.0
 10
144.572901018125
 20
76.70329345719316
 30
0.0
  0
HATCH
  5
D4
330
C5
100
AcDbEntity
  8
Ebene 1
 62
     6
420
 16711935
440
 33554687
100
AcDbHatch
 10
0.0
 20
0.0
 30
0.0
210
0.0
220
0.0
230
1.0
  2
SOLID
 70
     1
 71
     1
 91
        2
 92
        1
 93
        1
 72
     4
 94
        3
 73
     0
 74
     0
 95
       26
 96
       22
 40
0.0
 40
0.0
 40
0.0
 40
0.0
 40
1.0
 40
1.0
 40
1.0
 40
2.0
 40
2.0
 40
2.0
 40
3.0
 40
3.0
 40
3.0
 40
4.0
 40
4.0
 40
4.0
 40
5.0
 40
5.0
 40
5.0
 40
6.0
 40
6.0
 40
6.0
 40
7.0
 40
7.0
 40
7.0
 40
7.0
 10
136.1063801981935
 20
77.16542486973938
 10
136.1063801981935
 20
77.16542486973938
 10
136.1063801981935
 20
85.48730867330055
 10
136.1063801981935
 20
85.48730867330055
 10
136.1063801981935
 20
85.48730867330055
 10
144.1001882309007
 20
85.48730867330055
 10
144.1001882309007
 20
85.48730867330055
 10
144.1001882309007
 20
85.48730867330055
 10
144.1001882309007
 20
77.17953471502726
 10
144.1001882309007
 20
77.17953471502726
 10
144.1001882309007
 20
77.17953471502726
 10
136.1063801981935
 20
77.17953471502726
 10
136.1063801981935
 20
77.17953471502726
 10
136.1063801981935
 20
77.17953471502726
 10
136.1063801981935
 20
77.17247911952465
 10
136.1063801981935
 20
77.17247911952465
 10
136.1063801981935
 20
77.17247911952465
 10
136.1063801981935
 20
77.17247911952465
 10
136.1063801981935
 20
77.17247911952465
 10
136.1063801981935
 20
77.17247911952465
 10
136.1063801981935
 20
77.16542486973938
 10
136.1063801981935
 20
77.16542486973938
 97
        0
 97
        1
330
D2
 92
        1
 93
        1
 72
     4
 94
        3
 73
     0
 74
     0
 95
       38
 96
       34
 40
0.0
 40
0.0
 40
0.0
 40
0.0
 40
1.0
 40
1.0
 40
1.0
 40
2.0
 40
2.0
 40
2.0
 40
3.0
 40
3.0
 40
3.0
 40
4.0
 40
4.0
 40
4.0
 40
5.0
 40
5.0
 40
5.0
 40
6.0
 40
6.0
 40
6.0
 40
7.0
 40
7.0
 40
7.0
 40
8.0
 40
8.0
 40
8.0
 40
9.0
 40
9.0
 40
9.0
 40
10.0
 40
10.0
 40
10.0
 40
11.0
 40
11.0
 40
11.0
 40
11.0
 10
144.572901018125
 20
76.70329345719316
 10
144.572901018125
 20
76.70329345719316
 10
144.572901018125
 20
85.96002280624217
 10
144.572901018125
 20
85.96002280624217
 10
144.572901018125
 20
85.96002280624217
 10
135.6301362489247
 20
85.96002280624217
 10
135.6301362489247
 20
85.96002280624217
 10
135.6301362489247
 20
85.96002280624217
 10
135.6301362489247
 20
68.53309957407066
 10
135.6301362489247
 20
68.53309957407066
 10
135.6301362489247
 20
68.53309957407066
 10
136.102849036149
 20
68.53309957407066
 10
136.102849036149
 20
68.53309957407066
 10
136.102849036149
 20
68.53309957407066
 10
136.102849036149
 20
76.70681923636863
 10
136.102849036149
 20
76.70681923636863
 10
136.102849036149
 20
76.70681923636863
 10
140.1103303900291
 20
76.70681923636863
 10
140.1103303900291
 20
76.70681923636863
 10
140.1103303900291
 20
76.70681923636863
 10
144.2201185515566
 20
68.53309957407066
 10
144.2201185515566
 20
68.53309957407066
 10
144.2201185515566
 20
68.53309957407066
 10
144.7492761028023
 20
68.53309957407066
 10
144.7492761028023
 20
68.53309957407066
 10
144.7492761028023
 20
68.53309957407066
 10
140.6394879412748
 20
76.70681923636863
 10
140.6394879412748
 20
76.70681923636863
 10
140.6394879412748
 20
76.70681923636863
 10
144.5728902523871
 20
76.70681923636863
 10
144.5728902523871
 20
76.70681923636863
 10
144.5728902523871
 20
76.70681923636863
 10
144.572901018125
 20
76.70329345719316
 10
144.572901018125
 20
76.70329345719316
 97
        0
 97
        1
330
D3
 75
     2
 76
     1
 98
        1
 10
0.0
 20
0.0
450
        0
451
        0
460
0.0
461
0.0
452
        0
462
0.0
453
        0
470

  0
ENDBLK
  5
C8
330
C5
100
AcDbEntity
  8
0
100
AcDbBlockEnd
  0
ENDSEC
  0
SECTION
  2
ENTITIES
  0
SPLINE
  5
79
330
70
100
AcDbEntity
  8
Ebene 1
 62
     5
420
      255
370
     9
100
AcDbSpline
210
0.0
220
0.0
230
1.0
 70
     9
 71
     3
 72
    20
 73
    16
 74
     0
 42
0.0000000001
 43
0.0000000001
 40
0.0
 40
0.0
 40
0.0
 40
0.0
 40
1.0
 40
1.0
 40
1.0
 40
2.0
 40
2.0
 40
2.0
 40
3.0
 40
3.0
 40
3.0
 40
4.0
 40
4.0
 40
4.0
 40
5.0
 40
5.0
 40
5.0
 40
5.0
 10
39.59509494761176
 20
54.54922956846512
 30
0.0
 10
32.82893361802558
 20
54.54922956846512
 30
0.0
 10
27.34686106414792
 20
60.03483059295291
 30
0.0
 10
27.34686106414792
 20
66.79746345192896
 30
0.0
 10
27.34686106414792
 20
73.56009631090502
 30
0.0
 10
32.83246208863538
 20
79.0456973353928
 30
0.0
 10
39.59509494761176
 20
79.0456973353928
 30
0.0
 10
46.35773049802213
 20
79.0456973353928
 30
0.0
 10
51.84332613964095
 20
73.56009765662235
 30
0.0
 10
51.84332613964095
 20
66.79746345192896
 30
0.0
 10
51.84332613964095
 20
60.03483059295291
 30
0.0
 10
46.35772511515316
 20
54.54922956846512
 30
0.0
 10
39.59509225617711
 20
54.54922956846512
 30
0.0
 10
39.59509225617711
 20
54.54922956846512
 30
0.0
 10
39.59509225617711
 20
54.54922956846512
 30
0.0
 10
39.59509494761176
 20
54.54922956846512
 30
0.0
  0
SPLINE
  5
7A
330
70
100
AcDbEntity
  8
Ebene 1
 62
     5
420
      255
370
     9
100
AcDbSpline
210
0.0
220
0.0
230
1.0
 70
     9
 71
     3
 72
    17
 73
    13
 74
     0
 42
0.0000000001
 43
0.0000000001
 40
0.0
 40
0.0
 40
0.0
 40
0.0
 40
1.0
 40
1.0
 40
1.0
 40
2.0
 40
2.0
 40
2.0
 40
3.0
 40
3.0
 40
3.0
 40
4.0
 40
4.0
 40
4.0
 40
4.0
 10
39.59509494761176
 20
81.55037654586115
 30
0.0
 10
31.44959497588985
 20
81.55037654586115
 30
0.0
 10
24.84570830571371
 20
74.94649054854335
 30
0.0
 10
24.84570830571371
 20
66.80099192253909
 30
0.0
 10
24.84570830571371
 20
58.65549195081717
 30
0.0
 10
31.44959497588985
 20
52.05160528064104
 30
0.0
 10
39.59509225617711
 20
52.05160528064104
 30
0.0
 10
47.74058953646437
 20
52.05160528064104
 30
0.0
 10
54.34447620664051
 20
58.65549195081717
 30
0.0
 10
54.34447620664051
 20
66.80098923110444
 30
0.0
 10
54.34447620664051
 20
74.94648651139171
 30
0.0
 10
47.74058953646437
 20
81.55037452728516
 30
0.0
 10
39.59509494761176
 20
81.55037654586115
 30
0.0
  0
SPLINE
  5
7B
330
70
100
AcDbEntity
  8
Ebene 1
 62
     5
420
      255
370
     9
100
AcDbSpline
210
0.0
220
0.0
230
1.0
 70
     9
 71
     3
 72
    17
 73
    13
 74
     0
 42
0.0000000001
 43
0.0000000001
 40
0.0
 40
0.0
 40
0.0
 40
0.0
 40
1.0
 40
1.0
 40
1.0
 40
2.0
 40
2.0
 40
2.0
 40
3.0
 40
3.0
 40
3.0
 40
4.0
 40
4.0
 40
4.0
 40
4.0
 10
22.15406254301071
 20
42.9359804402013
 30
0.0
 10
22.73260926277527
 20
42.9359804402013
 30
0.0
 10
23.20532204999956
 20
42.46679343215215
 30
0.0
 10
23.20532204999956
 20
41.88472227892945
 30
0.0
 10
23.20532204999956
 20
41.30265112570675
 30
0.0
 10
22.73613504195074
 20
40.83346411765761
 30
0.0
 10
22.15406254301071
 20
40.83346411765761
 30
0.0
 10
21.571990044071
 20
40.83346411765761
 30
0.0
 10
21.10280303602187
 20
41.30265112570675
 30
0.0
 10
21.10280303602187
 20
41.88472227892945
 30
0.0
 10
21.10280303602187
 20
42.46679343215215
 30
0.0
 10
21.571990044071
 20
42.9359804402013
 30
0.0
 10
22.15406254301071
 20
42.9359804402013
 30
0.0
  0
SPLINE
  5
7C
330
70
100
AcDbEntity
  8
Ebene 1
 62
     5
420
      255
370
     9
100
AcDbSpline
210
0.0
220
0.0
230
1.0
 70
     9
 71
     3
 72
    17
 73
    13
 74
     0
 42
0.0000000001
 43
0.0000000001
 40
0.0
 40
0.0
 40
0.0
 40
0.0
 40
1.0
 40
1.0
 40
1.0
 40
2.0
 40
2.0
 40
2.0
 40
3.0
 40
3.0
 40
3.0
 40
4.0
 40
4.0
 40
4.0
 40
4.0
 10
33.7285025317171
 20
42.16340955412351
 30
0.0
 10
34.30704790576433
 20
42.16340955412351
 30
0.0
 10
34.77976338442327
 20
41.69422254607437
 30
0.0
 10
34.77976338442327
 20
41.11215139285167
 30
0.0
 10
34.77976338442327
 20
40.53008023962895
 30
0.0
 10
34.31057637637413
 20
40.06089323157982
 30
0.0
 10
33.7285025317171
 20
40.06089323157982
 30
0.0
 10
33.14642868706008
 20
40.06089323157982
 30
0.0
 10
32.67724167901093
 20
40.53008023962895
 30
0.0
 10
32.67724167901093
 20
41.11215139285167
 30
0.0
 10
32.67724167901093
 20
41.69422254607437
 30
0.0
 10
33.14642868706008
 20
42.16340955412351
 30
0.0
 10
33.7285025317171
 20
42.16340955412351
 30
0.0
  0
SPLINE
  5
7D
330
70
100
AcDbEntity
  8
Ebene 1
 62
     5
420
      255
370
     9
100
AcDbSpline
210
0.0
220
0.0
230
1.0
 70
     9
 71
     3
 72
    17
 73
    13
 74
     0
 42
0.0000000001
 43
0.0000000001
 40
0.0
 40
0.0
 40
0.0
 40
0.0
 40
1.0
 40
1.0
 40
1.0
 40
2.0
 40
2.0
 40
2.0
 40
3.0
 40
3.0
 40
3.0
 40
4.0
 40
4.0
 40
4.0
 40
4.0
 10
16.32274541319536
 20
50.78867656285467
 30
0.0
 10
16.04758391717711
 20
50.78867656285467
 30
0.0
 10
15.82181024396004
 20
51.0109217654613
 30
0.0
 10
15.82181024396004
 20
51.28961173208967
 30
0.0
 10
15.82181024396004
 20
51.56830169871805
 30
0.0
 10
16.04405679228431
 20
51.79054690132468
 30
0.0
 10
16.32274541319536
 20
51.79054690132468
 30
0.0
 10
16.6014340341061
 20
51.79054690132468
 30
0.0
 10
16.82368058243005
 20
51.56830169871805
 30
0.0
 10
16.82368058243005
 20
51.28961173208967
 30
0.0
 10
16.82368058243005
 20
51.0109217654613
 30
0.0
 10
16.6014340341061
 20
50.78867656285467
 30
0.0
 10
16.32274541319536
 20
50.78867656285467
 30
0.0
  0
SPLINE
  5
7E
330
70
100
AcDbEntity
  8
Ebene 1
 62
     5
420
      255
370
     9
100
AcDbSpline
210
0.0
220
0.0
230
1.0
 70
     9
 71
     3
 72
    17
 73
    13
 74
     0
 42
0.0000000001
 43
0.0000000001
 40
0.0
 40
0.0
 40
0.0
 40
0.0
 40
1.0
 40
1.0
 40
1.0
 40
2.0
 40
2.0
 40
2.0
 40
3.0
 40
3.0
 40
3.0
 40
4.0
 40
4.0
 40
4.0
 40
4.0
 10
16.32274541319536
 20
48.78846166509012
 30
0.0
 10
16.04758391717711
 20
48.78846166509012
 30
0.0
 10
15.82181024396004
 20
49.01070686769706
 30
0.0
 10
15.82181024396004
 20
49.28939683432512
 30
0.0
 10
15.82181024396004
 20
49.56808680095318
 30
0.0
 10
16.04405679228431
 20
49.79033200356013
 30
0.0
 10
16.32274541319536
 20
49.79033200356013
 30
0.0
 10
16.6014340341061
 20
49.79033200356013
 30
0.0
 10
16.82368058243005
 20
49.56808680095318
 30
0.0
 10
16.82368058243005
 20
49.28939683432512
 30
0.0
 10
16.82368058243005
 20
49.01070686769706
 30
0.0
 10
16.6014340341061
 20
48.78846166509012
 30
0.0
 10
16.32274541319536
 20
48.78846166509012
 30
0.0
  0
SPLINE
  5
7F
330
70
100
AcDbEntity
  8
Ebene 1
 62
     5
420
      255
370
     9
100
AcDbSpline
210
0.0
220
0.0
230
1.0
 70
     9
 71
     3
 72
    17
 73
    13
 74
     0
 42
0.0000000001
 43
0.0000000001
 40
0.0
 40
0.0
 40
0.0
 40
0.0
 40
1.0
 40
1.0
 40
1.0
 40
2.0
 40
2.0
 40
2.0
 40
3.0
 40
3.0
 40
3.0
 40
4.0
 40
4.0
 40
4.0
 40
4.0
 10
16.32274541319536
 20
46.78824676732555
 30
0.0
 10
16.04758391717711
 20
46.78824676732555
 30
0.0
 10
15.82181024396004
 20
47.01049466136683
 30
0.0
 10
15.82181024396004
 20
47.28918193656056
 30
0.0
 10
15.82181024396004
 20
47.5678692117543
 30
0.0
 10
16.04405679228431
 20
47.79011710579557
 30
0.0
 10
16.32274541319536
 20
47.79011710579557
 30
0.0
 10
16.6014340341061
 20
47.79011710579557
 30
0.0
 10
16.82368058243005
 20
47.56787190318894
 30
0.0
 10
16.82368058243005
 20
47.28918193656056
 30
0.0
 10
16.82368058243005
 20
47.01049466136683
 30
0.0
 10
16.6014340341061
 20
46.78824676732555
 30
0.0
 10
16.32274541319536
 20
46.78824676732555
 30
0.0
  0
SPLINE
  5
80
330
70
100
AcDbEntity
  8
Ebene 1
 62
     5
420
      255
370
     9
100
AcDbSpline
210
0.0
220
0.0
230
1.0
 70
     9
 71
     3
 72
    17
 73
    13
 74
     0
 42
0.0000000001
 43
0.0000000001
 40
0.0
 40
0.0
 40
0.0
 40
0.0
 40
1.0
 40
1.0
 40
1.0
 40
2.0
 40
2.0
 40
2.0
 40
3.0
 40
3.0
 40
3.0
 40
4.0
 40
4.0
 40
4.0
 40
4.0
 10
16.32274541319536
 20
44.78803186956133
 30
0.0
 10
16.04758391717711
 20
44.78803186956133
 30
0.0
 10
15.82181024396004
 20
45.0102797636026
 30
0.0
 10
15.82181024396004
 20
45.28896703879602
 30
0.0
 10
15.82181024396004
 20
45.56765431398942
 30
0.0
 10
16.04405679228431
 20
45.78990220803102
 30
0.0
 10
16.32274541319536
 20
45.78990220803102
 30
0.0
 10
16.6014340341061
 20
45.78990220803102
 30
0.0
 10
16.82368058243005
 20
45.56765431398942
 30
0.0
 10
16.82368058243005
 20
45.28896703879602
 30
0.0
 10
16.82368058243005
 20
45.0102797636026
 30
0.0
 10
16.6014340341061
 20
44.78803186956133
 30
0.0
 10
16.32274541319536
 20
44.78803186956133
 30
0.0
  0
SPLINE
  5
81
330
70
100
AcDbEntity
  8
Ebene 1
 62
     5
420
      255
370
     9
100
AcDbSpline
210
0.0
220
0.0
230
1.0
 70
     9
 71
     3
 72
    17
 73
    13
 74
     0
 42
0.0000000001
 43
0.0000000001
 40
0.0
 40
0.0
 40
0.0
 40
0.0
 40
1.0
 40
1.0
 40
1.0
 40
2.0
 40
2.0
 40
2.0
 40
3.0
 40
3.0
 40
3.0
 40
4.0
 40
4.0
 40
4.0
 40
4.0
 10
16.32274541319536
 20
42.78781697179645
 30
0.0
 10
16.04758391717711
 20
42.78781697179645
 30
0.0
 10
15.82181024396004
 20
43.01006486583772
 30
0.0
 10
15.82181024396004
 20
43.28875214103177
 30
0.0
 10
15.82181024396004
 20
43.56743941622519
 30
0.0
 10
16.04405679228431
 20
43.78968731026646
 30
0.0
 10
16.32274541319536
 20
43.78968731026646
 30
0.0
 10
16.6014340341061
 20
43.78968731026646
 30
0.0
 10
16.82368058243005
 20
43.56743941622519
 30
0.0
 10
16.82368058243005
 20
43.28875214103177
 30
0.0
 10
16.82368058243005
 20
43.01006486583772
 30
0.0
 10
16.6014340341061
 20
42.78781697179645
 30
0.0
 10
16.32274541319536
 20
42.78781697179645
 30
0.0
  0
SPLINE
  5
82
330
70
100
AcDbEntity
  8
Ebene 1
 62
     5
420
      255
370
     9
100
AcDbSpline
210
0.0
220
0.0
230
1.0
 70
     9
 71
     3
 72
    17
 73
    13
 74
     0
 42
0.0000000001
 43
0.0000000001
 40
0.0
 40
0.0
 40
0.0
 40
0.0
 40
1.0
 40
1.0
 40
1.0
 40
2.0
 40
2.0
 40
2.0
 40
3.0
 40
3.0
 40
3.0
 40
4.0
 40
4.0
 40
4.0
 40
4.0
 10
14.32253051543049
 20
50.78867656285467
 30
0.0
 10
14.04736901941223
 20
50.78867656285467
 30
0.0
 10
13.8215953461958
 20
51.0109217654613
 30
0.0
 10
13.8215953461958
 20
51.28961173208967
 30
0.0
 10
13.8215953461958
 20
51.56830169871805
 30
0.0
 10
14.04384189451976
 20
51.79054690132468
 30
0.0
 10
14.32253051543049
 20
51.79054690132468
 30
0.0
 10
14.60121913634155
 20
51.79054690132468
 30
0.0
 10
14.82346568466582
 20
51.56830169871805
 30
0.0
 10
14.82346568466582
 20
51.28961173208967
 30
0.0
 10
14.82346568466582
 20
51.0109217654613
 30
0.0
 10
14.60121913634155
 20
50.78867656285467
 30
0.0
 10
14.32253051543049
 20
50.78867656285467
 30
0.0
  0
SPLINE
  5
83
330
70
100
AcDbEntity
  8
Ebene 1
 62
     5
420
      255
370
     9
100
AcDbSpline
210
0.0
220
0.0
230
1.0
 70
     9
 71
     3
 72
    17
 73
    13
 74
     0
 42
0.0000000001
 43
0.0000000001
 40
0.0
 40
0.0
 40
0.0
 40
0.0
 40
1.0
 40
1.0
 40
1.0
 40
2.0
 40
2.0
 40
2.0
 40
3.0
 40
3.0
 40
3.0
 40
4.0
 40
4.0
 40
4.0
 40
4.0
 10
14.32253051543049
 20
48.78846166509012
 30
0.0
 10
14.04736901941223
 20
48.78846166509012
 30
0.0
 10
13.8215953461958
 20
49.01070686769706
 30
0.0
 10
13.8215953461958
 20
49.28939683432512
 30
0.0
 10
13.8215953461958
 20
49.56808680095318
 30
0.0
 10
14.04384189451976
 20
49.79033200356013
 30
0.0
 10
14.32253051543049
 20
49.79033200356013
 30
0.0
 10
14.60121913634155
 20
49.79033200356013
 30
0.0
 10
14.82346568466582
 20
49.56808680095318
 30
0.0
 10
14.82346568466582
 20
49.28939683432512
 30
0.0
 10
14.82346568466582
 20
49.01070686769706
 30
0.0
 10
14.60121913634155
 20
48.78846166509012
 30
0.0
 10
14.32253051543049
 20
48.78846166509012
 30
0.0
  0
SPLINE
  5
84
330
70
100
AcDbEntity
  8
Ebene 1
 62
     5
420
      255
370
     9
100
AcDbSpline
210
0.0
220
0.0
230
1.0
 70
     9
 71
     3
 72
    17
 73
    13
 74
     0
 42
0.0000000001
 43
0.0000000001
 40
0.0
 40
0.0
 40
0.0
 40
0.0
 40
1.0
 40
1.0
 40
1.0
 40
2.0
 40
2.0
 40
2.0
 40
3.0
 40
3.0
 40
3.0
 40
4.0
 40
4.0
 40
4.0
 40
4.0
 10
14.32253051543049
 20
46.78824676732555
 30
0.0
 10
14.04736901941223
 20
46.78824676732555
 30
0.0
 10
13.8215953461958
 20
47.01049466136683
 30
0.0
 10
13.8215953461958
 20
47.28918193656056
 30
0.0
 10
13.8215953461958
 20
47.5678692117543
 30
0.0
 10
14.04384189451976
 20
47.79011710579557
 30
0.0
 10
14.32253051543049
 20
47.79011710579557
 30
0.0
 10
14.60121913634155
 20
47.79011710579557
 30
0.0
 10
14.82346568466582
 20
47.56787190318894
 30
0.0
 10
14.82346568466582
 20
47.28918193656056
 30
0.0
 10
14.82346568466582
 20
47.01049466136683
 30
0.0
 10
14.60121913634155
 20
46.78824676732555
 30
0.0
 10
14.32253051543049
 20
46.78824676732555
 30
0.0
  0
SPLINE
  5
85
330
70
100
AcDbEntity
  8
Ebene 1
 62
     5
420
      255
370
     9
100
AcDbSpline
210
0.0
220
0.0
230
1.0
 70
     9
 71
     3
 72
    17
 73
    13
 74
     0
 42
0.0000000001
 43
0.0000000001
 40
0.0
 40
0.0
 40
0.0
 40
0.0
 40
1.0
 40
1.0
 40
1.0
 40
2.0
 40
2.0
 40
2.0
 40
3.0
 40
3.0
 40
3.0
 40
4.0
 40
4.0
 40
4.0
 40
4.0
 10
14.32253051543049
 20
44.78803186956133
 30
0.0
 10
14.04736901941223
 20
44.78803186956133
 30
0.0
 10
13.8215953461958
 20
45.0102797636026
 30
0.0
 10
13.8215953461958
 20
45.28896703879602
 30
0.0
 10
13.8215953461958
 20
45.56765431398942
 30
0.0
 10
14.04384189451976
 20
45.78990220803102
 30
0.0
 10
14.32253051543049
 20
45.78990220803102
 30
0.0
 10
14.60121913634155
 20
45.78990220803102
 30
0.0
 10
14.82346568466582
 20
45.56765431398942
 30
0.0
 10
14.82346568466582
 20
45.28896703879602
 30
0.0
 10
14.82346568466582
 20
45.0102797636026
 30
0.0
 10
14.60121913634155
 20
44.78803186956133
 30
0.0
 10
14.32253051543049
 20
44.78803186956133
 30
0.0
  0
SPLINE
  5
86
330
70
100
AcDbEntity
  8
Ebene 1
 62
     5
420
      255
370
     9
100
AcDbSpline
210
0.0
220
0.0
230
1.0
 70
     9
 71
     3
 72
    17
 73
    13
 74
     0
 42
0.0000000001
 43
0.0000000001
 40
0.0
 40
0.0
 40
0.0
 40
0.0
 40
1.0
 40
1.0
 40
1.0
 40
2.0
 40
2.0
 40
2.0
 40
3.0
 40
3.0
 40
3.0
 40
4.0
 40
4.0
 40
4.0
 40
4.0
 10
14.32253051543049
 20
42.78781697179645
 30
0.0
 10
14.04736901941223
 20
42.78781697179645
 30
0.0
 10
13.8215953461958
 20
43.01006486583772
 30
0.0
 10
13.8215953461958
 20
43.28875214103177
 30
0.0
 10
13.8215953461958
 20
43.56743941622519
 30
0.0
 10
14.04384189451976
 20
43.78968731026646
 30
0.0
 10
14.32253051543049
 20
43.78968731026646
 30
0.0
 10
14.60121913634155
 20
43.78968731026646
 30
0.0
 10
14.82346568466582
 20
43.56743941622519
 30
0.0
 10
14.82346568466582
 20
43.28875214103177
 30
0.0
 10
14.82346568466582
 20
43.01006486583772
 30
0.0
 10
14.60121913634155
 20
42.78781697179645
 30
0.0
 10
14.32253051543049
 20
42.78781697179645
 30
0.0
  0
SPLINE
  5
87
330
70
100
AcDbEntity
  8
Ebene 1
 62
     5
420
      255
370
     9
100
AcDbSpline
210
0.0
220
0.0
230
1.0
 70
     9
 71
     3
 72
    17
 73
    13
 74
     0
 42
0.0000000001
 43
0.0000000001
 40
0.0
 40
0.0
 40
0.0
 40
0.0
 40
1.0
 40
1.0
 40
1.0
 40
2.0
 40
2.0
 40
2.0
 40
3.0
 40
3.0
 40
3.0
 40
4.0
 40
4.0
 40
4.0
 40
4.0
 10
12.32231561766626
 20
50.78867656285467
 30
0.0
 10
12.047154121648
 20
50.78867656285467
 30
0.0
 10
11.82138044843093
 20
51.0109217654613
 30
0.0
 10
11.82138044843093
 20
51.28961173208967
 30
0.0
 10
11.82138044843093
 20
51.56830169871805
 30
0.0
 10
12.0436269967552
 20
51.79054690132468
 30
0.0
 10
12.32231561766626
 20
51.79054690132468
 30
0.0
 10
12.60100423857699
 20
51.79054690132468
 30
0.0
 10
12.82325078690095
 20
51.56830169871805
 30
0.0
 10
12.82325078690095
 20
51.28961173208967
 30
0.0
 10
12.82325078690095
 20
51.0109217654613
 30
0.0
 10
12.60100423857699
 20
50.78867656285467
 30
0.0
 10
12.32231561766626
 20
50.78867656285467
 30
0.0
  0
SPLINE
  5
88
330
70
100
AcDbEntity
  8
Ebene 1
 62
     5
420
      255
370
     9
100
AcDbSpline
210
0.0
220
0.0
230
1.0
 70
     9
 71
     3
 72
    17
 73
    13
 74
     0
 42
0.0000000001
 43
0.0000000001
 40
0.0
 40
0.0
 40
0.0
 40
0.0
 40
1.0
 40
1.0
 40
1.0
 40
2.0
 40
2.0
 40
2.0
 40
3.0
 40
3.0
 40
3.0
 40
4.0
 40
4.0
 40
4.0
 40
4.0
 10
12.32231561766626
 20
48.78846166509012
 30
0.0
 10
12.047154121648
 20
48.78846166509012
 30
0.0
 10
11.82138044843093
 20
49.01070686769706
 30
0.0
 10
11.82138044843093
 20
49.28939683432512
 30
0.0
 10
11.82138044843093
 20
49.56808680095318
 30
0.0
 10
12.0436269967552
 20
49.79033200356013
 30
0.0
 10
12.32231561766626
 20
49.79033200356013
 30
0.0
 10
12.60100423857699
 20
49.79033200356013
 30
0.0
 10
12.82325078690095
 20
49.56808680095318
 30
0.0
 10
12.82325078690095
 20
49.28939683432512
 30
0.0
 10
12.82325078690095
 20
49.01070686769706
 30
0.0
 10
12.60100423857699
 20
48.78846166509012
 30
0.0
 10
12.32231561766626
 20
48.78846166509012
 30
0.0
  0
SPLINE
  5
89
330
70
100
AcDbEntity
  8
Ebene 1
 62
     5
420
      255
370
     9
100
AcDbSpline
210
0.0
220
0.0
230
1.0
 70
     9
 71
     3
 72
    17
 73
    13
 74
     0
 42
0.0000000001
 43
0.0000000001
 40
0.0
 40
0.0
 40
0.0
 40
0.0
 40
1.0
 40
1.0
 40
1.0
 40
2.0
 40
2.0
 40
2.0
 40
3.0
 40
3.0
 40
3.0
 40
4.0
 40
4.0
 40
4.0
 40
4.0
 10
12.32231561766626
 20
46.78824676732555
 30
0.0
 10
12.047154121648
 20
46.78824676732555
 30
0.0
 10
11.82138044843093
 20
47.01049466136683
 30
0.0
 10
11.82138044843093
 20
47.28918193656056
 30
0.0
 10
11.82138044843093
 20
47.5678692117543
 30
0.0
 10
12.0436269967552
 20
47.79011710579557
 30
0.0
 10
12.32231561766626
 20
47.79011710579557
 30
0.0
 10
12.60100423857699
 20
47.79011710579557
 30
0.0
 10
12.82325078690095
 20
47.56787190318894
 30
0.0
 10
12.82325078690095
 20
47.28918193656056
 30
0.0
 10
12.82325078690095
 20
47.01049466136683
 30
0.0
 10
12.60100423857699
 20
46.78824676732555
 30
0.0
 10
12.32231561766626
 20
46.78824676732555
 30
0.0
  0
SPLINE
  5
8A
330
70
100
AcDbEntity
  8
Ebene 1
 62
     5
420
      255
370
     9
100
AcDbSpline
210
0.0
220
0.0
230
1.0
 70
     9
 71
     3
 72
    17
 73
    13
 74
     0
 42
0.0000000001
 43
0.0000000001
 40
0.0
 40
0.0
 40
0.0
 40
0.0
 40
1.0
 40
1.0
 40
1.0
 40
2.0
 40
2.0
 40
2.0
 40
3.0
 40
3.0
 40
3.0
 40
4.0
 40
4.0
 40
4.0
 40
4.0
 10
12.32231561766626
 20
44.78803186956133
 30
0.0
 10
12.047154121648
 20
44.78803186956133
 30
0.0
 10
11.82138044843093
 20
45.0102797636026
 30
0.0
 10
11.82138044843093
 20
45.28896703879602
 30
0.0
 10
11.82138044843093
 20
45.56765431398942
 30
0.0
 10
12.0436269967552
 20
45.78990220803102
 30
0.0
 10
12.32231561766626
 20
45.78990220803102
 30
0.0
 10
12.60100423857699
 20
45.78990220803102
 30
0.0
 10
12.82325078690095
 20
45.56765431398942
 30
0.0
 10
12.82325078690095
 20
45.28896703879602
 30
0.0
 10
12.82325078690095
 20
45.0102797636026
 30
0.0
 10
12.60100423857699
 20
44.78803186956133
 30
0.0
 10
12.32231561766626
 20
44.78803186956133
 30
0.0
  0
SPLINE
  5
8B
330
70
100
AcDbEntity
  8
Ebene 1
 62
     5
420
      255
370
     9
100
AcDbSpline
210
0.0
220
0.0
230
1.0
 70
     9
 71
     3
 72
    17
 73
    13
 74
     0
 42
0.0000000001
 43
0.0000000001
 40
0.0
 40
0.0
 40
0.0
 40
0.0
 40
1.0
 40
1.0
 40
1.0
 40
2.0
 40
2.0
 40
2.0
 40
3.0
 40
3.0
 40
3.0
 40
4.0
 40
4.0
 40
4.0
 40
4.0
 10
12.32231561766626
 20
42.78781697179645
 30
0.0
 10
12.047154121648
 20
42.78781697179645
 30
0.0
 10
11.82138044843093
 20
43.01006486583772
 30
0.0
 10
11.82138044843093
 20
43.28875214103177
 30
0.0
 10
11.82138044843093
 20
43.56743941622519
 30
0.0
 10
12.0436269967552
 20
43.78968731026646
 30
0.0
 10
12.32231561766626
 20
43.78968731026646
 30
0.0
 10
12.60100423857699
 20
43.78968731026646
 30
0.0
 10
12.82325078690095
 20
43.56743941622519
 30
0.0
 10
12.82325078690095
 20
43.28875214103177
 30
0.0
 10
12.82325078690095
 20
43.01006486583772
 30
0.0
 10
12.60100423857699
 20
42.78781697179645
 30
0.0
 10
12.32231561766626
 20
42.78781697179645
 30
0.0
  0
SPLINE
  5
8C
330
70
100
AcDbEntity
  8
Ebene 1
 62
     5
420
      255
370
     9
100
AcDbSpline
210
0.0
220
0.0
230
1.0
 70
     9
 71
     3
 72
    17
 73
    13
 74
     0
 42
0.0000000001
 43
0.0000000001
 40
0.0
 40
0.0
 40
0.0
 40
0.0
 40
1.0
 40
1.0
 40
1.0
 40
2.0
 40
2.0
 40
2.0
 40
3.0
 40
3.0
 40
3.0
 40
4.0
 40
4.0
 40
4.0
 40
4.0
 10
10.32209937418438
 20
50.78867656285467
 30
0.0
 10
10.04693720530746
 20
50.78867656285467
 30
0.0
 10
9.821163532090714
 20
51.0109217654613
 30
0.0
 10
9.821163532090714
 20
51.28961173208967
 30
0.0
 10
9.821163532090714
 20
51.56830169871805
 30
0.0
 10
10.043409407556
 20
51.79054690132468
 30
0.0
 10
10.32209937418438
 20
51.79054690132468
 30
0.0
 10
10.60078934081244
 20
51.79054690132468
 30
0.0
 10
10.82303521627805
 20
51.56830169871805
 30
0.0
 10
10.82303521627805
 20
51.28961173208967
 30
0.0
 10
10.82303521627805
 20
51.0109217654613
 30
0.0
 10
10.60078934081244
 20
50.78867656285467
 30
0.0
 10
10.32209937418438
 20
50.78867656285467
 30
0.0
  0
SPLINE
  5
8D
330
70
100
AcDbEntity
  8
Ebene 1
 62
     5
420
      255
370
     9
100
AcDbSpline
210
0.0
220
0.0
230
1.0
 70
     9
 71
     3
 72
    17
 73
    13
 74
     0
 42
0.0000000001
 43
0.0000000001
 40
0.0
 40
0.0
 40
0.0
 40
0.0
 40
1.0
 40
1.0
 40
1.0
 40
2.0
 40
2.0
 40
2.0
 40
3.0
 40
3.0
 40
3.0
 40
4.0
 40
4.0
 40
4.0
 40
4.0
 10
10.32209937418438
 20
48.78846166509012
 30
0.0
 10
10.04693720530746
 20
48.78846166509012
 30
0.0
 10
9.821163532090714
 20
49.01070686769706
 30
0.0
 10
9.821163532090714
 20
49.28939683432512
 30
0.0
 10
9.821163532090714
 20
49.56808680095318
 30
0.0
 10
10.043409407556
 20
49.79033200356013
 30
0.0
 10
10.32209937418438
 20
49.79033200356013
 30
0.0
 10
10.60078934081244
 20
49.79033200356013
 30
0.0
 10
10.82303521627805
 20
49.56808680095318
 30
0.0
 10
10.82303521627805
 20
49.28939683432512
 30
0.0
 10
10.82303521627805
 20
49.01070686769706
 30
0.0
 10
10.60078934081244
 20
48.78846166509012
 30
0.0
 10
10.32209937418438
 20
48.78846166509012
 30
0.0
  0
SPLINE
  5
8E
330
70
100
AcDbEntity
  8
Ebene 1
 62
     5
420
      255
370
     9
100
AcDbSpline
210
0.0
220
0.0
230
1.0
 70
     9
 71
     3
 72
    17
 73
    13
 74
     0
 42
0.0000000001
 43
0.0000000001
 40
0.0
 40
0.0
 40
0.0
 40
0.0
 40
1.0
 40
1.0
 40
1.0
 40
2.0
 40
2.0
 40
2.0
 40
3.0
 40
3.0
 40
3.0
 40
4.0
 40
4.0
 40
4.0
 40
4.0
 10
10.32209937418438
 20
46.78824676732555
 30
0.0
 10
10.04693720530746
 20
46.78824676732555
 30
0.0
 10
9.821163532090714
 20
47.01049466136683
 30
0.0
 10
9.821163532090714
 20
47.28918193656056
 30
0.0
 10
9.821163532090714
 20
47.5678692117543
 30
0.0
 10
10.043409407556
 20
47.79011710579557
 30
0.0
 10
10.32209937418438
 20
47.79011710579557
 30
0.0
 10
10.60078934081244
 20
47.79011710579557
 30
0.0
 10
10.82303521627805
 20
47.56787190318894
 30
0.0
 10
10.82303521627805
 20
47.28918193656056
 30
0.0
 10
10.82303521627805
 20
47.01049466136683
 30
0.0
 10
10.60078934081244
 20
46.78824676732555
 30
0.0
 10
10.32209937418438
 20
46.78824676732555
 30
0.0
  0
SPLINE
  5
8F
330
70
100
AcDbEntity
  8
Ebene 1
 62
     5
420
      255
370
     9
100
AcDbSpline
210
0.0
220
0.0
230
1.0
 70
     9
 71
     3
 72
    17
 73
    13
 74
     0
 42
0.0000000001
 43
0.0000000001
 40
0.0
 40
0.0
 40
0.0
 40
0.0
 40
1.0
 40
1.0
 40
1.0
 40
2.0
 40
2.0
 40
2.0
 40
3.0
 40
3.0
 40
3.0
 40
4.0
 40
4.0
 40
4.0
 40
4.0
 10
10.32209937418438
 20
44.78803186956133
 30
0.0
 10
10.04693720530746
 20
44.78803186956133
 30
0.0
 10
9.821163532090714
 20
45.0102797636026
 30
0.0
 10
9.821163532090714
 20
45.28896703879602
 30
0.0
 10
9.821163532090714
 20
45.56765431398942
 30
0.0
 10
10.043409407556
 20
45.78990220803102
 30
0.0
 10
10.32209937418438
 20
45.78990220803102
 30
0.0
 10
10.60078934081244
 20
45.78990220803102
 30
0.0
 10
10.82303521627805
 20
45.56765431398942
 30
0.0
 10
10.82303521627805
 20
45.28896703879602
 30
0.0
 10
10.82303521627805
 20
45.0102797636026
 30
0.0
 10
10.60078934081244
 20
44.78803186956133
 30
0.0
 10
10.32209937418438
 20
44.78803186956133
 30
0.0
  0
SPLINE
  5
90
330
70
100
AcDbEntity
  8
Ebene 1
 62
     5
420
      255
370
     9
100
AcDbSpline
210
0.0
220
0.0
230
1.0
 70
     9
 71
     3
 72
    17
 73
    13
 74
     0
 42
0.0000000001
 43
0.0000000001
 40
0.0
 40
0.0
 40
0.0
 40
0.0
 40
1.0
 40
1.0
 40
1.0
 40
2.0
 40
2.0
 40
2.0
 40
3.0
 40
3.0
 40
3.0
 40
4.0
 40
4.0
 40
4.0
 40
4.0
 10
10.32209937418438
 20
42.78781697179645
 30
0.0
 10
10.04693720530746
 20
42.78781697179645
 30
0.0
 10
9.821163532090714
 20
43.01006486583772
 30
0.0
 10
9.821163532090714
 20
43.28875214103177
 30
0.0
 10
9.821163532090714
 20
43.56743941622519
 30
0.0
 10
10.043409407556
 20
43.78968731026646
 30
0.0
 10
10.32209937418438
 20
43.78968731026646
 30
0.0
 10
10.60078934081244
 20
43.78968731026646
 30
0.0
 10
10.82303521627805
 20
43.56743941622519
 30
0.0
 10
10.82303521627805
 20
43.28875214103177
 30
0.0
 10
10.82303521627805
 20
43.01006486583772
 30
0.0
 10
10.60078934081244
 20
42.78781697179645
 30
0.0
 10
10.32209937418438
 20
42.78781697179645
 30
0.0
  0
SPLINE
  5
91
330
70
100
AcDbEntity
  8
Ebene 1
 62
     5
420
      255
370
     9
100
AcDbSpline
210
0.0
220
0.0
230
1.0
 70
     9
 71
     3
 72
    17
 73
    13
 74
     0
 42
0.0000000001
 43
0.0000000001
 40
0.0
 40
0.0
 40
0.0
 40
0.0
 40
1.0
 40
1.0
 40
1.0
 40
2.0
 40
2.0
 40
2.0
 40
3.0
 40
3.0
 40
3.0
 40
4.0
 40
4.0
 40
4.0
 40
4.0
 10
8.321883803561169
 20
50.78868194572364
 30
0.0
 10
8.046721634684249
 20
50.78868194572364
 30
0.0
 10
7.820947961467499
 20
51.01092714833058
 30
0.0
 10
7.820947961467499
 20
51.28961711495865
 30
0.0
 10
7.820947961467499
 20
51.5683070815867
 30
0.0
 10
8.04319383693279
 20
51.79055228419365
 30
0.0
 10
8.321883803561169
 20
51.79055228419365
 30
0.0
 10
8.600573770189226
 20
51.79055228419365
 30
0.0
 10
8.822819645654837
 20
51.5683070815867
 30
0.0
 10
8.822819645654837
 20
51.28961711495865
 30
0.0
 10
8.822819645654837
 20
51.01092714833058
 30
0.0
 10
8.600573770189226
 20
50.78868194572364
 30
0.0
 10
8.321883803561169
 20
50.78868194572364
 30
0.0
  0
SPLINE
  5
92
330
70
100
AcDbEntity
  8
Ebene 1
 62
     5
420
      255
370
     9
100
AcDbSpline
210
0.0
220
0.0
230
1.0
 70
     9
 71
     3
 72
    17
 73
    13
 74
     0
 42
0.0000000001
 43
0.0000000001
 40
0.0
 40
0.0
 40
0.0
 40
0.0
 40
1.0
 40
1.0
 40
1.0
 40
2.0
 40
2.0
 40
2.0
 40
3.0
 40
3.0
 40
3.0
 40
4.0
 40
4.0
 40
4.0
 40
4.0
 10
8.321883803561169
 20
48.78846704795908
 30
0.0
 10
8.046721634684249
 20
48.78846704795908
 30
0.0
 10
7.820947961467499
 20
49.01071225056571
 30
0.0
 10
7.820947961467499
 20
49.28940221719409
 30
0.0
 10
7.820947961467499
 20
49.56809218382247
 30
0.0
 10
8.04319383693279
 20
49.7903373864291
 30
0.0
 10
8.321883803561169
 20
49.7903373864291
 30
0.0
 10
8.600573770189226
 20
49.7903373864291
 30
0.0
 10
8.822819645654837
 20
49.56809218382247
 30
0.0
 10
8.822819645654837
 20
49.28940221719409
 30
0.0
 10
8.822819645654837
 20
49.01071225056571
 30
0.0
 10
8.600573770189226
 20
48.78846704795908
 30
0.0
 10
8.321883803561169
 20
48.78846704795908
 30
0.0
  0
SPLINE
  5
93
330
70
100
AcDbEntity
  8
Ebene 1
 62
     5
420
      255
370
     9
100
AcDbSpline
210
0.0
220
0.0
230
1.0
 70
     9
 71
     3
 72
    17
 73
    13
 74
     0
 42
0.0000000001
 43
0.0000000001
 40
0.0
 40
0.0
 40
0.0
 40
0.0
 40
1.0
 40
1.0
 40
1.0
 40
2.0
 40
2.0
 40
2.0
 40
3.0
 40
3.0
 40
3.0
 40
4.0
 40
4.0
 40
4.0
 40
4.0
 10
8.321883803561169
 20
46.78825215019453
 30
0.0
 10
8.046721634684249
 20
46.78825215019453
 30
0.0
 10
7.820947961467499
 20
47.01050004423581
 30
0.0
 10
7.820947961467499
 20
47.28918731942953
 30
0.0
 10
7.820947961467499
 20
47.56787459462326
 30
0.0
 10
8.04319383693279
 20
47.79012248866454
 30
0.0
 10
8.321883803561169
 20
47.79012248866454
 30
0.0
 10
8.600573770189226
 20
47.79012248866454
 30
0.0
 10
8.822819645654837
 20
47.56787728605759
 30
0.0
 10
8.822819645654837
 20
47.28918731942953
 30
0.0
 10
8.822819645654837
 20
47.01049466136683
 30
0.0
 10
8.600573770189226
 20
46.78825215019453
 30
0.0
 10
8.321883803561169
 20
46.78825215019453
 30
0.0
  0
SPLINE
  5
94
330
70
100
AcDbEntity
  8
Ebene 1
 62
     5
420
      255
370
     9
100
AcDbSpline
210
0.0
220
0.0
230
1.0
 70
     9
 71
     3
 72
    17
 73
    13
 74
     0
 42
0.0000000001
 43
0.0000000001
 40
0.0
 40
0.0
 40
0.0
 40
0.0
 40
1.0
 40
1.0
 40
1.0
 40
2.0
 40
2.0
 40
2.0
 40
3.0
 40
3.0
 40
3.0
 40
4.0
 40
4.0
 40
4.0
 40
4.0
 10
8.321883803561169
 20
44.78803725242998
 30
0.0
 10
8.046721634684249
 20
44.78803725242998
 30
0.0
 10
7.820947961467499
 20
45.01028514647124
 30
0.0
 10
7.820947961467499
 20
45.28897242166466
 30
0.0
 10
7.820947961467499
 20
45.56765969685872
 30
0.0
 10
8.04319383693279
 20
45.78990759089999
 30
0.0
 10
8.321883803561169
 20
45.78990759089999
 30
0.0
 10
8.600573770189226
 20
45.78990759089999
 30
0.0
 10
8.822819645654837
 20
45.56765969685872
 30
0.0
 10
8.822819645654837
 20
45.28897242166466
 30
0.0
 10
8.822819645654837
 20
45.01028514647124
 30
0.0
 10
8.600573770189226
 20
44.78803725242998
 30
0.0
 10
8.321883803561169
 20
44.78803725242998
 30
0.0
  0
SPLINE
  5
95
330
70
100
AcDbEntity
  8
Ebene 1
 62
     5
420
      255
370
     9
100
AcDbSpline
210
0.0
220
0.0
230
1.0
 70
     9
 71
     3
 72
    17
 73
    13
 74
     0
 42
0.0000000001
 43
0.0000000001
 40
0.0
 40
0.0
 40
0.0
 40
0.0
 40
1.0
 40
1.0
 40
1.0
 40
2.0
 40
2.0
 40
2.0
 40
3.0
 40
3.0
 40
3.0
 40
4.0
 40
4.0
 40
4.0
 40
4.0
 10
8.321883803561169
 20
42.78782235466574
 30
0.0
 10
8.046721634684249
 20
42.78782235466574
 30
0.0
 10
7.820947961467499
 20
43.01007024870702
 30
0.0
 10
7.820947961467499
 20
43.28875752390042
 30
0.0
 10
7.820947961467499
 20
43.56744479909384
 30
0.0
 10
8.04319383693279
 20
43.78969269313511
 30
0.0
 10
8.321883803561169
 20
43.78969269313511
 30
0.0
 10
8.600573770189226
 20
43.78969269313511
 30
0.0
 10
8.822819645654837
 20
43.56744479909384
 30
0.0
 10
8.822819645654837
 20
43.28875752390042
 30
0.0
 10
8.822819645654837
 20
43.01007024870702
 30
0.0
 10
8.600573770189226
 20
42.78782235466574
 30
0.0
 10
8.321883803561169
 20
42.78782235466574
 30
0.0
  0
SPLINE
  5
96
330
70
100
AcDbEntity
  8
Ebene 1
 62
     5
420
      255
370
     9
100
AcDbSpline
210
0.0
220
0.0
230
1.0
 70
    11
 71
     3
 72
    44
 73
    40
 74
     0
 42
0.0000000001
 43
0.0000000001
 40
0.0
 40
0.0
 40
0.0
 40
0.0
 40
1.0
 40
1.0
 40
1.0
 40
2.0
 40
2.0
 40
2.0
 40
3.0
 40
3.0
 40
3.0
 40
4.0
 40
4.0
 40
4.0
 40
5.0
 40
5.0
 40
5.0
 40
6.0
 40
6.0
 40
6.0
 40
7.0
 40
7.0
 40
7.0
 40
8.0
 40
8.0
 40
8.0
 40
9.0
 40
9.0
 40
9.0
 40
10.0
 40
10.0
 40
10.0
 40
11.0
 40
11.0
 40
11.0
 40
12.0
 40
12.0
 40
12.0
 40
13.0
 40
13.0
 40
13.0
 40
13.0
 10
19.28602823845815
 20
46.47428555177016
 30
0.0
 10
19.28602823845815
 20
46.47428555177016
 30
0.0
 10
19.90690583980429
 20
55.35002283655362
 30
0.0
 10
19.90690583980429
 20
55.35002283655362
 30
0.0
 10
19.90690583980429
 20
55.35002283655362
 30
0.0
 10
2.751619333763557
 20
55.35002283655362
 30
0.0
 10
2.751619333763557
 20
55.35002283655362
 30
0.0
 10
2.751619333763557
 20
55.35002283655362
 30
0.0
 10
2.751619333763557
 20
45.40186194970752
 30
0.0
 10
2.751619333763557
 20
45.40186194970752
 30
0.0
 10
2.751619333763557
 20
45.40186194970752
 30
0.0
 10
4.998775027682309
 20
45.40186194970752
 30
0.0
 10
4.998775027682309
 20
45.40186194970752
 30
0.0
 10
5.386824033167441
 20
45.40186194970752
 30
0.0
 10
5.700790631591812
 20
45.08789535128347
 30
0.0
 10
5.700790631591812
 20
44.69984432722236
 30
0.0
 10
5.700790631591812
 20
44.69984432722236
 30
0.0
 10
5.725484542992727
 20
38.20179024386948
 30
0.0
 10
5.725484542992727
 20
38.20179024386948
 30
0.0
 10
5.725484542992727
 20
38.20179024386948
 30
0.0
 10
21.70604232147001
 20
38.20179024386948
 30
0.0
 10
21.70604232147001
 20
38.20179024386948
 30
0.0
 10
21.70604232147001
 20
38.20179024386948
 30
0.0
 10
36.7976152523685
 20
37.14347514137804
 30
0.0
 10
36.7976152523685
 20
37.14347514137804
 30
0.0
 10
36.7976152523685
 20
37.14347514137804
 30
0.0
 10
38.1310918508782
 20
44.45643099239029
 30
0.0
 10
38.1310918508782
 20
44.45643099239029
 30
0.0
 10
38.1310918508782
 20
44.45643099239029
 30
0.0
 10
19.93512687609768
 20
45.72993704770276
 30
0.0
 10
19.93512687609768
 20
45.72993704770276
 30
0.0
 10
19.55060566836369
 20
45.7581594297138
 30
0.0
 10
19.25780585644744
 20
46.08976568975349
 30
0.0
 10
19.28602689274083
 20
46.47781133094563
 30
0.0
 10
19.28602689274083
 20
46.47781133094563
 30
0.0
 10
19.28602689274083
 20
46.47781133094563
 30
0.0
 10
19.28602689274083
 20
46.47781133094563
 30
0.0
 10
19.28602689274083
 20
46.47781133094563
 30
0.0
 10
19.28602823845815
 20
46.47428555177016
 30
0.0
 10
19.28602823845815
 20
46.47428555177016
 30
0.0
  0
SPLINE
  5
97
330
70
100
AcDbEntity
  8
Ebene 1
 62
     5
420
      255
370
     9
100
AcDbSpline
210
0.0
220
0.0
230
1.0
 70
     9
 71
     3
 72
    17
 73
    13
 74
     0
 42
0.0000000001
 43
0.0000000001
 40
0.0
 40
0.0
 40
0.0
 40
0.0
 40
1.0
 40
1.0
 40
1.0
 40
2.0
 40
2.0
 40
2.0
 40
3.0
 40
3.0
 40
3.0
 40
4.0
 40
4.0
 40
4.0
 40
4.0
 10
182.838037072099
 20
86.12935306115449
 30
0.0
 10
182.2594863151827
 20
86.12935306115449
 30
0.0
 10
181.7867842936964
 20
86.59853939634464
 30
0.0
 10
181.7867842936964
 20
87.18061256814333
 30
0.0
 10
181.7867842936964
 20
87.76268573994171
 30
0.0
 10
182.2559766846142
 20
88.23187207513218
 30
0.0
 10
182.838037072099
 20
88.23187207513218
 30
0.0
 10
183.4200974595837
 20
88.23187207513218
 30
0.0
 10
183.8892898505015
 20
87.76268573994171
 30
0.0
 10
183.8892898505015
 20
87.18061256814333
 30
0.0
 10
183.8892898505015
 20
86.59853939634464
 30
0.0
 10
183.4200974595837
 20
86.12935306115449
 30
0.0
 10
182.838037072099
 20
86.12935306115449
 30
0.0
  0
SPLINE
  5
98
330
70
100
AcDbEntity
  8
Ebene 1
 62
     5
420
      255
370
     9
100
AcDbSpline
210
0.0
220
0.0
230
1.0
 70
     9
 71
     3
 72
    20
 73
    16
 74
     0
 42
0.0000000001
 43
0.0000000001
 40
0.0
 40
0.0
 40
0.0
 40
0.0
 40
1.0
 40
1.0
 40
1.0
 40
2.0
 40
2.0
 40
2.0
 40
3.0
 40
3.0
 40
3.0
 40
4.0
 40
4.0
 40
4.0
 40
5.0
 40
5.0
 40
5.0
 40
5.0
 10
133.1254550198807
 20
16.75679553597724
 30
0.0
 10
126.3592963817292
 20
16.75679553597724
 30
0.0
 10
120.8772211364169
 20
22.24239656046535
 30
0.0
 10
120.8772211364169
 20
29.00502941944172
 30
0.0
 10
120.8772211364169
 20
35.76766227841746
 30
0.0
 10
126.3628167780357
 20
41.25326330290492
 30
0.0
 10
133.1254550198807
 20
41.25326330290492
 30
0.0
 10
139.8880932617257
 20
41.25326330290492
 30
0.0
 10
145.3736889033446
 20
35.76766227841746
 30
0.0
 10
145.3736889033446
 20
29.00502941944172
 30
0.0
 10
145.3736889033446
 20
22.24239656046535
 30
0.0
 10
139.8880932617257
 20
16.75679553597724
 30
0.0
 10
133.1254550198807
 20
16.75679553597724
 30
0.0
 10
133.1254550198807
 20
16.75679553597724
 30
0.0
 10
133.1254550198807
 20
16.75679553597724
 30
0.0
 10
133.1254550198807
 20
16.75679553597724
 30
0.0
  0
SPLINE
  5
99
330
70
100
AcDbEntity
  8
Ebene 1
 62
     5
420
      255
370
     9
100
AcDbSpline
210
0.0
220
0.0
230
1.0
 70
     9
 71
     3
 72
    17
 73
    13
 74
     0
 42
0.0000000001
 43
0.0000000001
 40
0.0
 40
0.0
 40
0.0
 40
0.0
 40
1.0
 40
1.0
 40
1.0
 40
2.0
 40
2.0
 40
2.0
 40
3.0
 40
3.0
 40
3.0
 40
4.0
 40
4.0
 40
4.0
 40
4.0
 10
120.7713939324629
 20
6.731024444319555
 30
0.0
 10
120.1928431755467
 20
6.731024444319555
 30
0.0
 10
119.7201303883224
 20
7.200211452368693
 30
0.0
 10
119.7201303883224
 20
7.782282605590758
 30
0.0
 10
119.7201303883224
 20
8.364353758814106
 30
0.0
 10
120.1893120135023
 20
8.833540766862602
 30
0.0
 10
120.7713939324629
 20
8.833540766862602
 30
0.0
 10
121.3534758514236
 20
8.833540766862602
 30
0.0
 10
121.8226574766034
 20
8.364353758814106
 30
0.0
 10
121.8226574766034
 20
7.782282605590758
 30
0.0
 10
121.8226574766034
 20
7.200211452368693
 30
0.0
 10
121.3534758514236
 20
6.731024444319555
 30
0.0
 10
120.7713939324629
 20
6.731024444319555
 30
0.0
  0
SPLINE
  5
9A
330
70
100
AcDbEntity
  8
Ebene 1
 62
     5
420
      255
370
     9
100
AcDbSpline
210
0.0
220
0.0
230
1.0
 70
     9
 71
     3
 72
    17
 73
    13
 74
     0
 42
0.0000000001
 43
0.0000000001
 40
0.0
 40
0.0
 40
0.0
 40
0.0
 40
1.0
 40
1.0
 40
1.0
 40
2.0
 40
2.0
 40
2.0
 40
3.0
 40
3.0
 40
3.0
 40
4.0
 40
4.0
 40
4.0
 40
4.0
 10
120.7713939324629
 20
88.25656665939144
 30
0.0
 10
121.3499446893791
 20
88.25656665939144
 30
0.0
 10
121.8226574766034
 20
87.78738032420127
 30
0.0
 10
121.8226574766034
 20
87.20530715240258
 30
0.0
 10
121.8226574766034
 20
86.6232339806042
 30
0.0
 10
121.3534758514236
 20
86.15404764541374
 30
0.0
 10
120.7713939324629
 20
86.15404764541374
 30
0.0
 10
120.1893120135023
 20
86.15404764541374
 30
0.0
 10
119.7201303883224
 20
86.6232339806042
 30
0.0
 10
119.7201303883224
 20
87.20530715240258
 30
0.0
 10
119.7201303883224
 20
87.78738032420127
 30
0.0
 10
120.1893120135023
 20
88.25656665939144
 30
0.0
 10
120.7713939324629
 20
88.25656665939144
 30
0.0
  0
SPLINE
  5
9B
330
70
100
AcDbEntity
  8
Ebene 1
 62
     5
420
      255
370
     9
100
AcDbSpline
210
0.0
220
0.0
230
1.0
 70
     9
 71
     3
 72
    44
 73
    40
 74
     0
 42
0.0000000001
 43
0.0000000001
 40
0.0
 40
0.0
 40
0.0
 40
0.0
 40
1.0
 40
1.0
 40
1.0
 40
2.0
 40
2.0
 40
2.0
 40
3.0
 40
3.0
 40
3.0
 40
4.0
 40
4.0
 40
4.0
 40
5.0
 40
5.0
 40
5.0
 40
6.0
 40
6.0
 40
6.0
 40
7.0
 40
7.0
 40
7.0
 40
8.0
 40
8.0
 40
8.0
 40
9.0
 40
9.0
 40
9.0
 40
10.0
 40
10.0
 40
10.0
 40
11.0
 40
11.0
 40
11.0
 40
12.0
 40
12.0
 40
12.0
 40
13.0
 40
13.0
 40
13.0
 40
13.0
 10
118.8664289011259
 20
89.82287303126447
 30
0.0
 10
118.4783778770648
 20
89.82287303126447
 30
0.0
 10
118.1679370578159
 20
89.50890626462543
 30
0.0
 10
118.1679370578159
 20
89.12438505689177
 30
0.0
 10
118.1679370578159
 20
89.12438505689177
 30
0.0
 10
118.1679370578159
 20
0.1130238917035806
 30
0.0
 10
118.1679370578159
 20
0.1130238917035806
 30
0.0
 10
123.2407958382763
 20
4.801357427278012
 30
0.0
 10
128.8216467291916
 20
8.946430294905463
 30
0.0
 10
134.4765766628747
 20
12.21309430676257
 30
0.0
 10
138.8509436000251
 20
14.73894097659801
 30
0.0
 10
143.4405068728658
 20
16.92612444517288
 30
0.0
 10
148.0477044244529
 20
18.70056566972069
 30
0.0
 10
148.0477044244529
 20
18.70056566972069
 30
0.0
 10
148.0759214235946
 20
81.1446824958914
 30
0.0
 10
148.0759214235946
 20
81.1446824958914
 30
0.0
 10
148.0759214235946
 20
81.53273150137685
 30
0.0
 10
148.3898934048879
 20
81.84317030204978
 30
0.0
 10
148.7744132669046
 20
81.84317030204978
 30
0.0
 10
148.7744132669046
 20
81.84317030204978
 30
0.0
 10
167.0691592701571
 20
81.84317030204978
 30
0.0
 10
167.0691592701571
 20
81.84317030204978
 30
0.0
 10
167.0691592701571
 20
81.84317030204978
 30
0.0
 10
167.0691592701571
 20
84.15735247109735
 30
0.0
 10
167.0691592701571
 20
84.15735247109735
 30
0.0
 10
167.0691592701571
 20
84.54540147658248
 30
0.0
 10
167.3831312514505
 20
84.8558402772554
 30
0.0
 10
167.7676511134671
 20
84.8558402772554
 30
0.0
 10
167.7676511134671
 20
84.8558402772554
 30
0.0
 10
186.0906033501235
 20
84.8558402772554
 30
0.0
 10
186.0906033501235
 20
84.8558402772554
 30
0.0
 10
186.0906033501235
 20
84.8558402772554
 30
0.0
 10
186.0765002334215
 20
89.82639359578564
 30
0.0
 10
186.0765002334215
 20
89.82639359578564
 30
0.0
 10
186.0765002334215
 20
89.82639359578564
 30
0.0
 10
118.8664289011259
 20
89.82639359578564
 30
0.0
 10
118.8664289011259
 20
89.82639359578564
 30
0.0
 10
118.8664289011259
 20
89.82639359578564
 30
0.0
 10
118.8664289011259
 20
89.82287303126447
 30
0.0
 10
118.8664289011259
 20
89.82287303126447
 30
0.0
  0
SPLINE
  5
9C
330
70
100
AcDbEntity
  8
Ebene 1
 62
     5
420
      255
370
     9
100
AcDbSpline
210
0.0
220
0.0
230
1.0
 70
     9
 71
     3
 72
    17
 73
    13
 74
     0
 42
0.0000000001
 43
0.0000000001
 40
0.0
 40
0.0
 40
0.0
 40
0.0
 40
1.0
 40
1.0
 40
1.0
 40
2.0
 40
2.0
 40
2.0
 40
3.0
 40
3.0
 40
3.0
 40
4.0
 40
4.0
 40
4.0
 40
4.0
 10
181.4269718002529
 20
60.19710794379728
 30
0.0
 10
181.4269718002529
 20
60.77565331784451
 30
0.0
 10
181.8961641911707
 20
61.24836879650344
 30
0.0
 10
182.4782245786554
 20
61.24836879650344
 30
0.0
 10
183.0602849661402
 20
61.24836879650344
 30
0.0
 10
183.529477357058
 20
60.77918178845431
 30
0.0
 10
183.529477357058
 20
60.19710794379728
 30
0.0
 10
183.529477357058
 20
59.61503409914024
 30
0.0
 10
183.0602849661402
 20
59.1458470910911
 30
0.0
 10
182.4782245786554
 20
59.1458470910911
 30
0.0
 10
181.8961641911707
 20
59.1458470910911
 30
0.0
 10
181.4269718002529
 20
59.61503409914024
 30
0.0
 10
181.4269718002529
 20
60.19710794379728
 30
0.0
  0
SPLINE
  5
9D
330
70
100
AcDbEntity
  8
Ebene 1
 62
     5
420
      255
370
     9
100
AcDbSpline
210
0.0
220
0.0
230
1.0
 70
     9
 71
     3
 72
    17
 73
    13
 74
     0
 42
0.0000000001
 43
0.0000000001
 40
0.0
 40
0.0
 40
0.0
 40
0.0
 40
1.0
 40
1.0
 40
1.0
 40
2.0
 40
2.0
 40
2.0
 40
3.0
 40
3.0
 40
3.0
 40
4.0
 40
4.0
 40
4.0
 40
4.0
 10
182.4358936970739
 20
75.03821329007841
 30
0.0
 10
182.4358936970739
 20
75.61675866412532
 30
0.0
 10
182.9050860879917
 20
76.08947279706694
 30
0.0
 10
183.4871464754764
 20
76.08947279706694
 30
0.0
 10
184.0692068629612
 20
76.08947279706694
 30
0.0
 10
184.538399253879
 20
75.62028578901813
 30
0.0
 10
184.538399253879
 20
75.03821329007841
 30
0.0
 10
184.538399253879
 20
74.45614079113838
 30
0.0
 10
184.0692068629612
 20
73.98695378308957
 30
0.0
 10
183.4871464754764
 20
73.98695378308957
 30
0.0
 10
182.9050860879917
 20
73.98695378308957
 30
0.0
 10
182.4358936970739
 20
74.45614079113838
 30
0.0
 10
182.4358936970739
 20
75.03821329007841
 30
0.0
  0
SPLINE
  5
9E
330
70
100
AcDbEntity
  8
Ebene 1
 62
     5
420
      255
370
     9
100
AcDbSpline
210
0.0
220
0.0
230
1.0
 70
    11
 71
     3
 72
    44
 73
    40
 74
     0
 42
0.0000000001
 43
0.0000000001
 40
0.0
 40
0.0
 40
0.0
 40
0.0
 40
1.0
 40
1.0
 40
1.0
 40
2.0
 40
2.0
 40
2.0
 40
3.0
 40
3.0
 40
3.0
 40
4.0
 40
4.0
 40
4.0
 40
5.0
 40
5.0
 40
5.0
 40
6.0
 40
6.0
 40
6.0
 40
7.0
 40
7.0
 40
7.0
 40
8.0
 40
8.0
 40
8.0
 40
9.0
 40
9.0
 40
9.0
 40
10.0
 40
10.0
 40
10.0
 40
11.0
 40
11.0
 40
11.0
 40
12.0
 40
12.0
 40
12.0
 40
13.0
 40
13.0
 40
13.0
 40
13.0
 10
186.087072188079
 20
37.23872500780526
 30
0.0
 10
186.087072188079
 20
37.23872500780526
 30
0.0
 10
186.087072188079
 20
79.53957825484221
 30
0.0
 10
186.087072188079
 20
79.53957825484221
 30
0.0
 10
186.087072188079
 20
79.53957825484221
 30
0.0
 10
180.4921181804618
 20
79.5501609752376
 30
0.0
 10
180.4921181804618
 20
79.5501609752376
 30
0.0
 10
180.4921181804618
 20
79.5501609752376
 30
0.0
 10
178.9187594091644
 20
57.04685385628921
 30
0.0
 10
178.9187594091644
 20
57.04685385628921
 30
0.0
 10
178.9187594091644
 20
57.04685385628921
 30
0.0
 10
178.9187594091644
 20
57.04685385628921
 30
0.0
 10
178.9187594091644
 20
57.04685385628921
 30
0.0
 10
178.9187594091644
 20
57.04685385628921
 30
0.0
 10
150.3795309651261
 20
59.02237484265285
 30
0.0
 10
150.3795309651261
 20
59.02237484265285
 30
0.0
 10
149.6598736810253
 20
59.07176266545468
 30
0.0
 10
149.5293498742361
 20
58.01344756296323
 30
0.0
 10
150.241944834248
 20
57.8899780059593
 30
0.0
 10
150.241944834248
 20
57.8899780059593
 30
0.0
 10
166.1590022532012
 20
55.09955256050164
 30
0.0
 10
166.1590022532012
 20
55.09955256050164
 30
0.0
 10
166.5399909531735
 20
55.03252507608482
 30
0.0
 10
166.7939870084009
 20
54.66917065485894
 30
0.0
 10
166.7269595239841
 20
54.28817657201774
 30
0.0
 10
166.7269595239841
 20
54.28817657201774
 30
0.0
 10
163.5978762601358
 20
36.5367020024508
 30
0.0
 10
163.5978762601358
 20
36.5367020024508
 30
0.0
 10
163.5978762601358
 20
36.5367020024508
 30
0.0
 10
185.3885911105069
 20
36.5367020024508
 30
0.0
 10
185.3885911105069
 20
36.5367020024508
 30
0.0
 10
185.7766313688301
 20
36.5367020024508
 30
0.0
 10
186.087072188079
 20
36.8506686008755
 30
0.0
 10
186.087072188079
 20
37.23518846289152
 30
0.0
 10
186.087072188079
 20
37.23518846289152
 30
0.0
 10
186.087072188079
 20
37.23518846289152
 30
0.0
 10
186.087072188079
 20
37.23518846289152
 30
0.0
 10
186.087072188079
 20
37.23518846289152
 30
0.0
 10
186.087072188079
 20
37.23872500780526
 30
0.0
 10
186.087072188079
 20
37.23872500780526
 30
0.0
  0
SPLINE
  5
9F
330
70
100
AcDbEntity
  8
Ebene 1
 62
     5
420
      255
370
     9
100
AcDbSpline
210
0.0
220
0.0
230
1.0
 70
     9
 71
     3
 72
    20
 73
    16
 74
     0
 42
0.0000000001
 43
0.0000000001
 40
0.0
 40
0.0
 40
0.0
 40
0.0
 40
1.0
 40
1.0
 40
1.0
 40
2.0
 40
2.0
 40
2.0
 40
3.0
 40
3.0
 40
3.0
 40
4.0
 40
4.0
 40
4.0
 40
5.0
 40
5.0
 40
5.0
 40
5.0
 10
52.67939873096008
 20
48.78846973939373
 30
0.0
 10
52.67939873096008
 20
55.55110259836947
 30
0.0
 10
58.16499975544787
 20
61.03670362285757
 30
0.0
 10
64.92763261442393
 20
61.03670362285757
 30
0.0
 10
71.69026547339997
 20
61.03670362285757
 30
0.0
 10
77.17586649788777
 20
55.55110259836947
 30
0.0
 10
77.17586649788777
 20
48.78846973939373
 30
0.0
 10
77.17586649788777
 20
42.025839571852
 30
0.0
 10
71.69379663544443
 20
36.54023316449525
 30
0.0
 10
64.92763261442393
 20
36.54023316449525
 30
0.0
 10
58.16146859340342
 20
36.54023316449525
 30
0.0
 10
52.67939873096008
 20
42.0258341889827
 30
0.0
 10
52.67939873096008
 20
48.78846704795908
 30
0.0
 10
52.67939873096008
 20
48.78846704795908
 30
0.0
 10
52.67939873096008
 20
48.78846704795908
 30
0.0
 10
52.67939873096008
 20
48.78846973939373
 30
0.0
  0
SPLINE
  5
A0
330
70
100
AcDbEntity
  8
Ebene 1
 62
     5
420
      255
370
     9
100
AcDbSpline
210
0.0
220
0.0
230
1.0
 70
     9
 71
     3
 72
    20
 73
    16
 74
     0
 42
0.0000000001
 43
0.0000000001
 40
0.0
 40
0.0
 40
0.0
 40
0.0
 40
1.0
 40
1.0
 40
1.0
 40
2.0
 40
2.0
 40
2.0
 40
3.0
 40
3.0
 40
3.0
 40
4.0
 40
4.0
 40
4.0
 40
5.0
 40
5.0
 40
5.0
 40
5.0
 10
50.17824866396052
 20
48.78846973939373
 30
0.0
 10
50.17824866396052
 20
40.64296976767181
 30
0.0
 10
56.78213533413666
 20
34.03908309749569
 30
0.0
 10
64.92763261442393
 20
34.03908309749569
 30
0.0
 10
73.07312989471118
 20
34.03908309749569
 30
0.0
 10
79.67701656488732
 20
40.64296976767181
 30
0.0
 10
79.67701656488732
 20
48.78846704795908
 30
0.0
 10
79.67701656488732
 20
56.93396432824635
 30
0.0
 10
73.07312989471118
 20
63.53785099842248
 30
0.0
 10
64.92763261442393
 20
63.53785099842248
 30
0.0
 10
56.78213533413666
 20
63.53785099842248
 30
0.0
 10
50.17824866396052
 20
56.93396432824635
 30
0.0
 10
50.17824866396052
 20
48.78846704795908
 30
0.0
 10
50.17824866396052
 20
48.78846704795908
 30
0.0
 10
50.17824866396052
 20
48.78846704795908
 30
0.0
 10
50.17824866396052
 20
48.78846973939373
 30
0.0
  0
SPLINE
  5
A1
330
70
100
AcDbEntity
  8
Ebene 1
 62
     5
420
      255
370
     9
100
AcDbSpline
210
0.0
220
0.0
230
1.0
 70
    11
 71
     3
 72
    17
 73
    13
 74
     0
 42
0.0000000001
 43
0.0000000001
 40
0.0
 40
0.0
 40
0.0
 40
0.0
 40
1.0
 40
1.0
 40
1.0
 40
2.0
 40
2.0
 40
2.0
 40
3.0
 40
3.0
 40
3.0
 40
4.0
 40
4.0
 40
4.0
 40
4.0
 10
19.77991454077685
 20
21.31460526476311
 30
0.0
 10
19.77991454077685
 20
20.7325341115404
 30
0.0
 10
19.31072753272771
 20
20.26334710349127
 30
0.0
 10
18.728655033788
 20
20.26334710349127
 30
0.0
 10
18.14658253484797
 20
20.26334710349127
 30
0.0
 10
17.67739552679916
 20
20.7325341115404
 30
0.0
 10
17.67739552679916
 20
21.31460526476311
 30
0.0
 10
17.67739552679916
 20
21.89667641798582
 30
0.0
 10
18.15010965974077
 20
22.36586342603496
 30
0.0
 10
18.728655033788
 20
22.36586342603496
 30
0.0
 10
19.30720040783523
 20
22.36586342603496
 30
0.0
 10
19.77991454077685
 20
21.89667641798582
 30
0.0
 10
19.77991454077685
 20
21.31460526476311
 30
0.0
  0
SPLINE
  5
A2
330
70
100
AcDbEntity
  8
Ebene 1
 62
     5
420
      255
370
     9
100
AcDbSpline
210
0.0
220
0.0
230
1.0
 70
    11
 71
     3
 72
    17
 73
    13
 74
     0
 42
0.0000000001
 43
0.0000000001
 40
0.0
 40
0.0
 40
0.0
 40
0.0
 40
1.0
 40
1.0
 40
1.0
 40
2.0
 40
2.0
 40
2.0
 40
3.0
 40
3.0
 40
3.0
 40
4.0
 40
4.0
 40
4.0
 40
4.0
 10
8.205474552070464
 20
20.54203437868532
 30
0.0
 10
8.205474552070464
 20
19.95996322546261
 30
0.0
 10
7.736288216880309
 20
19.49077621741347
 30
0.0
 10
7.154215045081618
 20
19.49077621741347
 30
0.0
 10
6.572141873282927
 20
19.49077621741347
 30
0.0
 10
6.102955538092772
 20
19.95996322546261
 30
0.0
 10
6.102955538092772
 20
20.54203437868532
 30
0.0
 10
6.102955538092772
 20
21.12410553190803
 30
0.0
 10
6.575669671034387
 20
21.59329253995716
 30
0.0
 10
7.154215045081618
 20
21.59329253995716
 30
0.0
 10
7.732760419128849
 20
21.59329253995716
 30
0.0
 10
8.205474552070464
 20
21.12410553190803
 30
0.0
 10
8.205474552070464
 20
20.54203437868532
 30
0.0
  0
SPLINE
  5
A3
330
70
100
AcDbEntity
  8
Ebene 1
 62
     5
420
      255
370
     9
100
AcDbSpline
210
0.0
220
0.0
230
1.0
 70
    11
 71
     3
 72
    17
 73
    13
 74
     0
 42
0.0000000001
 43
0.0000000001
 40
0.0
 40
0.0
 40
0.0
 40
0.0
 40
1.0
 40
1.0
 40
1.0
 40
2.0
 40
2.0
 40
2.0
 40
3.0
 40
3.0
 40
3.0
 40
4.0
 40
4.0
 40
4.0
 40
4.0
 10
24.05903430293402
 20
30.7195001007923
 30
0.0
 10
24.05903430293402
 20
30.99818737598571
 30
0.0
 10
24.28127950554065
 20
31.22043527002699
 30
0.0
 10
24.55996947216903
 20
31.22043527002699
 30
0.0
 10
24.8386594387974
 20
31.22043527002699
 30
0.0
 10
25.06090464140403
 20
30.99818737598571
 30
0.0
 10
25.06090464140403
 20
30.7195001007923
 30
0.0
 10
25.06090464140403
 20
30.44081282559889
 30
0.0
 10
24.83513096818728
 20
30.21856493155762
 30
0.0
 10
24.55996947216903
 20
30.21856493155762
 30
0.0
 10
24.28480797615077
 20
30.21856493155762
 30
0.0
 10
24.05903430293402
 20
30.44081282559889
 30
0.0
 10
24.05903430293402
 20
30.7195001007923
 30
0.0
  0
SPLINE
  5
A4
330
70
100
AcDbEntity
  8
Ebene 1
 62
     5
420
      255
370
     9
100
AcDbSpline
210
0.0
220
0.0
230
1.0
 70
     9
 71
     3
 72
    17
 73
    13
 74
     0
 42
0.0000000001
 43
0.0000000001
 40
0.0
 40
0.0
 40
0.0
 40
0.0
 40
1.0
 40
1.0
 40
1.0
 40
2.0
 40
2.0
 40
2.0
 40
3.0
 40
3.0
 40
3.0
 40
4.0
 40
4.0
 40
4.0
 40
4.0
 10
24.05903430293402
 20
28.71928520302807
 30
0.0
 10
24.05903430293402
 20
28.99797247822148
 30
0.0
 10
24.28127950554065
 20
29.22022037226275
 30
0.0
 10
24.55996947216903
 20
29.22022037226275
 30
0.0
 10
24.8386594387974
 20
29.22022037226275
 30
0.0
 10
25.06090464140403
 20
28.99797247822148
 30
0.0
 10
25.06090464140403
 20
28.71928520302807
 30
0.0
 10
25.06090464140403
 20
28.44059792783401
 30
0.0
 10
24.83513096818728
 20
28.21835003379274
 30
0.0
 10
24.55996947216903
 20
28.21835003379274
 30
0.0
 10
24.28480797615077
 20
28.21835003379274
 30
0.0
 10
24.05903430293402
 20
28.44059792783401
 30
0.0
 10
24.05903430293402
 20
28.71928520302807
 30
0.0
  0
SPLINE
  5
A5
330
70
100
AcDbEntity
  8
Ebene 1
 62
     5
420
      255
370
     9
100
AcDbSpline
210
0.0
220
0.0
230
1.0
 70
    11
 71
     3
 72
    17
 73
    13
 74
     0
 42
0.0000000001
 43
0.0000000001
 40
0.0
 40
0.0
 40
0.0
 40
0.0
 40
1.0
 40
1.0
 40
1.0
 40
2.0
 40
2.0
 40
2.0
 40
3.0
 40
3.0
 40
3.0
 40
4.0
 40
4.0
 40
4.0
 40
4.0
 10
24.05903430293402
 20
26.7190703052632
 30
0.0
 10
24.05903430293402
 20
26.99775758045725
 30
0.0
 10
24.28127950554065
 20
27.22000547449852
 30
0.0
 10
24.55996947216903
 20
27.22000547449852
 30
0.0
 10
24.8386594387974
 20
27.22000547449852
 30
0.0
 10
25.06090464140403
 20
26.99775758045725
 30
0.0
 10
25.06090464140403
 20
26.7190703052632
 30
0.0
 10
25.06090464140403
 20
26.44038303006914
 30
0.0
 10
24.83513096818728
 20
26.21813513602786
 30
0.0
 10
24.55996947216903
 20
26.21813513602786
 30
0.0
 10
24.28480797615077
 20
26.21813513602786
 30
0.0
 10
24.05903430293402
 20
26.44038303006914
 30
0.0
 10
24.05903430293402
 20
26.7190703052632
 30
0.0
  0
SPLINE
  5
A6
330
70
100
AcDbEntity
  8
Ebene 1
 62
     5
420
      255
370
     9
100
AcDbSpline
210
0.0
220
0.0
230
1.0
 70
     9
 71
     3
 72
    17
 73
    13
 74
     0
 42
0.0000000001
 43
0.0000000001
 40
0.0
 40
0.0
 40
0.0
 40
0.0
 40
1.0
 40
1.0
 40
1.0
 40
2.0
 40
2.0
 40
2.0
 40
3.0
 40
3.0
 40
3.0
 40
4.0
 40
4.0
 40
4.0
 40
4.0
 10
24.05903430293402
 20
24.71885540749832
 30
0.0
 10
24.05903430293402
 20
24.99754268269237
 30
0.0
 10
24.28127950554065
 20
25.21979057673365
 30
0.0
 10
24.55996947216903
 20
25.21979057673365
 30
0.0
 10
24.8386594387974
 20
25.21979057673365
 30
0.0
 10
25.06090464140403
 20
24.99754268269237
 30
0.0
 10
25.06090464140403
 20
24.71885540749832
 30
0.0
 10
25.06090464140403
 20
24.4401681323049
 30
0.0
 10
24.83513096818728
 20
24.21792023826363
 30
0.0
 10
24.55996947216903
 20
24.21792023826363
 30
0.0
 10
24.28480797615077
 20
24.21792023826363
 30
0.0
 10
24.05903430293402
 20
24.4401681323049
 30
0.0
 10
24.05903430293402
 20
24.71885540749832
 30
0.0
  0
SPLINE
  5
A7
330
70
100
AcDbEntity
  8
Ebene 1
 62
     5
420
      255
370
     9
100
AcDbSpline
210
0.0
220
0.0
230
1.0
 70
    11
 71
     3
 72
    17
 73
    13
 74
     0
 42
0.0000000001
 43
0.0000000001
 40
0.0
 40
0.0
 40
0.0
 40
0.0
 40
1.0
 40
1.0
 40
1.0
 40
2.0
 40
2.0
 40
2.0
 40
3.0
 40
3.0
 40
3.0
 40
4.0
 40
4.0
 40
4.0
 40
4.0
 10
24.05903430293402
 20
22.71864050973409
 30
0.0
 10
24.05903430293402
 20
22.9973277849275
 30
0.0
 10
24.28127950554065
 20
23.21957567896877
 30
0.0
 10
24.55996947216903
 20
23.21957567896877
 30
0.0
 10
24.8386594387974
 20
23.21957567896877
 30
0.0
 10
25.06090464140403
 20
22.9973277849275
 30
0.0
 10
25.06090464140403
 20
22.71864050973409
 30
0.0
 10
25.06090464140403
 20
22.43995323454067
 30
0.0
 10
24.83513096818728
 20
22.2177053404994
 30
0.0
 10
24.55996947216903
 20
22.2177053404994
 30
0.0
 10
24.28480797615077
 20
22.2177053404994
 30
0.0
 10
24.05903430293402
 20
22.43995323454067
 30
0.0
 10
24.05903430293402
 20
22.71864050973409
 30
0.0
  0
SPLINE
  5
A8
330
70
100
AcDbEntity
  8
Ebene 1
 62
     5
420
      255
370
     9
100
AcDbSpline
210
0.0
220
0.0
230
1.0
 70
    11
 71
     3
 72
    17
 73
    13
 74
     0
 42
0.0000000001
 43
0.0000000001
 40
0.0
 40
0.0
 40
0.0
 40
0.0
 40
1.0
 40
1.0
 40
1.0
 40
2.0
 40
2.0
 40
2.0
 40
3.0
 40
3.0
 40
3.0
 40
4.0
 40
4.0
 40
4.0
 40
4.0
 10
26.05924920069857
 20
30.7195001007923
 30
0.0
 10
26.05924920069857
 20
30.99818737598571
 30
0.0
 10
26.28149440330552
 20
31.22043527002699
 30
0.0
 10
26.56018436993358
 20
31.22043527002699
 30
0.0
 10
26.83887433656164
 20
31.22043527002699
 30
0.0
 10
27.06111953916859
 20
30.99818737598571
 30
0.0
 10
27.06111953916859
 20
30.7195001007923
 30
0.0
 10
27.06111953916859
 20
30.44081282559889
 30
0.0
 10
26.83534586595184
 20
30.21856493155762
 30
0.0
 10
26.56018436993358
 20
30.21856493155762
 30
0.0
 10
26.28502287391532
 20
30.21856493155762
 30
0.0
 10
26.05924920069857
 20
30.44081282559889
 30
0.0
 10
26.05924920069857
 20
30.7195001007923
 30
0.0
  0
SPLINE
  5
A9
330
70
100
AcDbEntity
  8
Ebene 1
 62
     5
420
      255
370
     9
100
AcDbSpline
210
0.0
220
0.0
230
1.0
 70
     9
 71
     3
 72
    17
 73
    13
 74
     0
 42
0.0000000001
 43
0.0000000001
 40
0.0
 40
0.0
 40
0.0
 40
0.0
 40
1.0
 40
1.0
 40
1.0
 40
2.0
 40
2.0
 40
2.0
 40
3.0
 40
3.0
 40
3.0
 40
4.0
 40
4.0
 40
4.0
 40
4.0
 10
26.05924920069857
 20
28.71928520302807
 30
0.0
 10
26.05924920069857
 20
28.99797247822148
 30
0.0
 10
26.28149440330552
 20
29.22022037226275
 30
0.0
 10
26.56018436993358
 20
29.22022037226275
 30
0.0
 10
26.83887433656164
 20
29.22022037226275
 30
0.0
 10
27.06111953916859
 20
28.99797247822148
 30
0.0
 10
27.06111953916859
 20
28.71928520302807
 30
0.0
 10
27.06111953916859
 20
28.44059792783401
 30
0.0
 10
26.83534586595184
 20
28.21835003379274
 30
0.0
 10
26.56018436993358
 20
28.21835003379274
 30
0.0
 10
26.28502287391532
 20
28.21835003379274
 30
0.0
 10
26.05924920069857
 20
28.44059792783401
 30
0.0
 10
26.05924920069857
 20
28.71928520302807
 30
0.0
  0
SPLINE
  5
AA
330
70
100
AcDbEntity
  8
Ebene 1
 62
     5
420
      255
370
     9
100
AcDbSpline
210
0.0
220
0.0
230
1.0
 70
    11
 71
     3
 72
    17
 73
    13
 74
     0
 42
0.0000000001
 43
0.0000000001
 40
0.0
 40
0.0
 40
0.0
 40
0.0
 40
1.0
 40
1.0
 40
1.0
 40
2.0
 40
2.0
 40
2.0
 40
3.0
 40
3.0
 40
3.0
 40
4.0
 40
4.0
 40
4.0
 40
4.0
 10
26.05924920069857
 20
26.7190703052632
 30
0.0
 10
26.05924920069857
 20
26.99775758045725
 30
0.0
 10
26.28149440330552
 20
27.22000547449852
 30
0.0
 10
26.56018436993358
 20
27.22000547449852
 30
0.0
 10
26.83887433656164
 20
27.22000547449852
 30
0.0
 10
27.06111953916859
 20
26.99775758045725
 30
0.0
 10
27.06111953916859
 20
26.7190703052632
 30
0.0
 10
27.06111953916859
 20
26.44038303006914
 30
0.0
 10
26.83534586595184
 20
26.21813513602786
 30
0.0
 10
26.56018436993358
 20
26.21813513602786
 30
0.0
 10
26.28502287391532
 20
26.21813513602786
 30
0.0
 10
26.05924920069857
 20
26.44038303006914
 30
0.0
 10
26.05924920069857
 20
26.7190703052632
 30
0.0
  0
SPLINE
  5
AB
330
70
100
AcDbEntity
  8
Ebene 1
 62
     5
420
      255
370
     9
100
AcDbSpline
210
0.0
220
0.0
230
1.0
 70
     9
 71
     3
 72
    17
 73
    13
 74
     0
 42
0.0000000001
 43
0.0000000001
 40
0.0
 40
0.0
 40
0.0
 40
0.0
 40
1.0
 40
1.0
 40
1.0
 40
2.0
 40
2.0
 40
2.0
 40
3.0
 40
3.0
 40
3.0
 40
4.0
 40
4.0
 40
4.0
 40
4.0
 10
26.05924920069857
 20
24.71885540749832
 30
0.0
 10
26.05924920069857
 20
24.99754268269237
 30
0.0
 10
26.28149440330552
 20
25.21979057673365
 30
0.0
 10
26.56018436993358
 20
25.21979057673365
 30
0.0
 10
26.83887433656164
 20
25.21979057673365
 30
0.0
 10
27.06111953916859
 20
24.99754268269237
 30
0.0
 10
27.06111953916859
 20
24.71885540749832
 30
0.0
 10
27.06111953916859
 20
24.4401681323049
 30
0.0
 10
26.83534586595184
 20
24.21792023826363
 30
0.0
 10
26.56018436993358
 20
24.21792023826363
 30
0.0
 10
26.28502287391532
 20
24.21792023826363
 30
0.0
 10
26.05924920069857
 20
24.4401681323049
 30
0.0
 10
26.05924920069857
 20
24.71885540749832
 30
0.0
  0
SPLINE
  5
AC
330
70
100
AcDbEntity
  8
Ebene 1
 62
     5
420
      255
370
     9
100
AcDbSpline
210
0.0
220
0.0
230
1.0
 70
    11
 71
     3
 72
    17
 73
    13
 74
     0
 42
0.0000000001
 43
0.0000000001
 40
0.0
 40
0.0
 40
0.0
 40
0.0
 40
1.0
 40
1.0
 40
1.0
 40
2.0
 40
2.0
 40
2.0
 40
3.0
 40
3.0
 40
3.0
 40
4.0
 40
4.0
 40
4.0
 40
4.0
 10
26.05924920069857
 20
22.71864050973409
 30
0.0
 10
26.05924920069857
 20
22.9973277849275
 30
0.0
 10
26.28149440330552
 20
23.21957567896877
 30
0.0
 10
26.56018436993358
 20
23.21957567896877
 30
0.0
 10
26.83887433656164
 20
23.21957567896877
 30
0.0
 10
27.06111953916859
 20
22.9973277849275
 30
0.0
 10
27.06111953916859
 20
22.71864050973409
 30
0.0
 10
27.06111953916859
 20
22.43995323454067
 30
0.0
 10
26.83534586595184
 20
22.2177053404994
 30
0.0
 10
26.56018436993358
 20
22.2177053404994
 30
0.0
 10
26.28502287391532
 20
22.2177053404994
 30
0.0
 10
26.05924920069857
 20
22.43995323454067
 30
0.0
 10
26.05924920069857
 20
22.71864050973409
 30
0.0
  0
SPLINE
  5
AD
330
70
100
AcDbEntity
  8
Ebene 1
 62
     5
420
      255
370
     9
100
AcDbSpline
210
0.0
220
0.0
230
1.0
 70
    11
 71
     3
 72
    17
 73
    13
 74
     0
 42
0.0000000001
 43
0.0000000001
 40
0.0
 40
0.0
 40
0.0
 40
0.0
 40
1.0
 40
1.0
 40
1.0
 40
2.0
 40
2.0
 40
2.0
 40
3.0
 40
3.0
 40
3.0
 40
4.0
 40
4.0
 40
4.0
 40
4.0
 10
28.05946409846313
 20
30.7195001007923
 30
0.0
 10
28.05946409846313
 20
30.99818737598571
 30
0.0
 10
28.28170930106976
 20
31.22043527002699
 30
0.0
 10
28.56039926769814
 20
31.22043527002699
 30
0.0
 10
28.83908923432651
 20
31.22043527002699
 30
0.0
 10
29.06133443693314
 20
30.99818737598571
 30
0.0
 10
29.06133443693314
 20
30.7195001007923
 30
0.0
 10
29.06133443693314
 20
30.44081282559889
 30
0.0
 10
28.83556076371639
 20
30.21856493155762
 30
0.0
 10
28.56039926769814
 20
30.21856493155762
 30
0.0
 10
28.28523777167988
 20
30.21856493155762
 30
0.0
 10
28.05946409846313
 20
30.44081282559889
 30
0.0
 10
28.05946409846313
 20
30.7195001007923
 30
0.0
  0
SPLINE
  5
AE
330
70
100
AcDbEntity
  8
Ebene 1
 62
     5
420
      255
370
     9
100
AcDbSpline
210
0.0
220
0.0
230
1.0
 70
     9
 71
     3
 72
    17
 73
    13
 74
     0
 42
0.0000000001
 43
0.0000000001
 40
0.0
 40
0.0
 40
0.0
 40
0.0
 40
1.0
 40
1.0
 40
1.0
 40
2.0
 40
2.0
 40
2.0
 40
3.0
 40
3.0
 40
3.0
 40
4.0
 40
4.0
 40
4.0
 40
4.0
 10
28.05946409846313
 20
28.71928520302807
 30
0.0
 10
28.05946409846313
 20
28.99797247822148
 30
0.0
 10
28.28170930106976
 20
29.22022037226275
 30
0.0
 10
28.56039926769814
 20
29.22022037226275
 30
0.0
 10
28.83908923432651
 20
29.22022037226275
 30
0.0
 10
29.06133443693314
 20
28.99797247822148
 30
0.0
 10
29.06133443693314
 20
28.71928520302807
 30
0.0
 10
29.06133443693314
 20
28.44059792783401
 30
0.0
 10
28.83556076371639
 20
28.21835003379274
 30
0.0
 10
28.56039926769814
 20
28.21835003379274
 30
0.0
 10
28.28523777167988
 20
28.21835003379274
 30
0.0
 10
28.05946409846313
 20
28.44059792783401
 30
0.0
 10
28.05946409846313
 20
28.71928520302807
 30
0.0
  0
SPLINE
  5
AF
330
70
100
AcDbEntity
  8
Ebene 1
 62
     5
420
      255
370
     9
100
AcDbSpline
210
0.0
220
0.0
230
1.0
 70
    11
 71
     3
 72
    17
 73
    13
 74
     0
 42
0.0000000001
 43
0.0000000001
 40
0.0
 40
0.0
 40
0.0
 40
0.0
 40
1.0
 40
1.0
 40
1.0
 40
2.0
 40
2.0
 40
2.0
 40
3.0
 40
3.0
 40
3.0
 40
4.0
 40
4.0
 40
4.0
 40
4.0
 10
28.05946409846313
 20
26.7190703052632
 30
0.0
 10
28.05946409846313
 20
26.99775758045725
 30
0.0
 10
28.28170930106976
 20
27.22000547449852
 30
0.0
 10
28.56039926769814
 20
27.22000547449852
 30
0.0
 10
28.83908923432651
 20
27.22000547449852
 30
0.0
 10
29.06133443693314
 20
26.99775758045725
 30
0.0
 10
29.06133443693314
 20
26.7190703052632
 30
0.0
 10
29.06133443693314
 20
26.44038303006914
 30
0.0
 10
28.83556076371639
 20
26.21813513602786
 30
0.0
 10
28.56039926769814
 20
26.21813513602786
 30
0.0
 10
28.28523777167988
 20
26.21813513602786
 30
0.0
 10
28.05946409846313
 20
26.44038303006914
 30
0.0
 10
28.05946409846313
 20
26.7190703052632
 30
0.0
  0
SPLINE
  5
B0
330
70
100
AcDbEntity
  8
Ebene 1
 62
     5
420
      255
370
     9
100
AcDbSpline
210
0.0
220
0.0
230
1.0
 70
     9
 71
     3
 72
    17
 73
    13
 74
     0
 42
0.0000000001
 43
0.0000000001
 40
0.0
 40
0.0
 40
0.0
 40
0.0
 40
1.0
 40
1.0
 40
1.0
 40
2.0
 40
2.0
 40
2.0
 40
3.0
 40
3.0
 40
3.0
 40
4.0
 40
4.0
 40
4.0
 40
4.0
 10
28.05946409846313
 20
24.71885540749832
 30
0.0
 10
28.05946409846313
 20
24.99754268269237
 30
0.0
 10
28.28170930106976
 20
25.21979057673365
 30
0.0
 10
28.56039926769814
 20
25.21979057673365
 30
0.0
 10
28.83908923432651
 20
25.21979057673365
 30
0.0
 10
29.06133443693314
 20
24.99754268269237
 30
0.0
 10
29.06133443693314
 20
24.71885540749832
 30
0.0
 10
29.06133443693314
 20
24.4401681323049
 30
0.0
 10
28.83556076371639
 20
24.21792023826363
 30
0.0
 10
28.56039926769814
 20
24.21792023826363
 30
0.0
 10
28.28523777167988
 20
24.21792023826363
 30
0.0
 10
28.05946409846313
 20
24.4401681323049
 30
0.0
 10
28.05946409846313
 20
24.71885540749832
 30
0.0
  0
SPLINE
  5
B1
330
70
100
AcDbEntity
  8
Ebene 1
 62
     5
420
      255
370
     9
100
AcDbSpline
210
0.0
220
0.0
230
1.0
 70
    11
 71
     3
 72
    17
 73
    13
 74
     0
 42
0.0000000001
 43
0.0000000001
 40
0.0
 40
0.0
 40
0.0
 40
0.0
 40
1.0
 40
1.0
 40
1.0
 40
2.0
 40
2.0
 40
2.0
 40
3.0
 40
3.0
 40
3.0
 40
4.0
 40
4.0
 40
4.0
 40
4.0
 10
28.05946409846313
 20
22.71864050973409
 30
0.0
 10
28.05946409846313
 20
22.9973277849275
 30
0.0
 10
28.28170930106976
 20
23.21957567896877
 30
0.0
 10
28.56039926769814
 20
23.21957567896877
 30
0.0
 10
28.83908923432651
 20
23.21957567896877
 30
0.0
 10
29.06133443693314
 20
22.9973277849275
 30
0.0
 10
29.06133443693314
 20
22.71864050973409
 30
0.0
 10
29.06133443693314
 20
22.43995323454067
 30
0.0
 10
28.83556076371639
 20
22.2177053404994
 30
0.0
 10
28.56039926769814
 20
22.2177053404994
 30
0.0
 10
28.28523777167988
 20
22.2177053404994
 30
0.0
 10
28.05946409846313
 20
22.43995323454067
 30
0.0
 10
28.05946409846313
 20
22.71864050973409
 30
0.0
  0
SPLINE
  5
B2
330
70
100
AcDbEntity
  8
Ebene 1
 62
     5
420
      255
370
     9
100
AcDbSpline
210
0.0
220
0.0
230
1.0
 70
    11
 71
     3
 72
    17
 73
    13
 74
     0
 42
0.0000000001
 43
0.0000000001
 40
0.0
 40
0.0
 40
0.0
 40
0.0
 40
1.0
 40
1.0
 40
1.0
 40
2.0
 40
2.0
 40
2.0
 40
3.0
 40
3.0
 40
3.0
 40
4.0
 40
4.0
 40
4.0
 40
4.0
 10
30.05967899622768
 20
30.7195001007923
 30
0.0
 10
30.05967899622768
 20
30.99818737598571
 30
0.0
 10
30.28192419883463
 20
31.22043527002699
 30
0.0
 10
30.56061416546269
 20
31.22043527002699
 30
0.0
 10
30.83930413209075
 20
31.22043527002699
 30
0.0
 10
31.0615493346977
 20
30.99818737598571
 30
0.0
 10
31.0615493346977
 20
30.7195001007923
 30
0.0
 10
31.0615493346977
 20
30.44081282559889
 30
0.0
 10
30.83577566148095
 20
30.21856493155762
 30
0.0
 10
30.56061416546269
 20
30.21856493155762
 30
0.0
 10
30.28545266944443
 20
30.21856493155762
 30
0.0
 10
30.05967899622768
 20
30.44081282559889
 30
0.0
 10
30.05967899622768
 20
30.7195001007923
 30
0.0
  0
SPLINE
  5
B3
330
70
100
AcDbEntity
  8
Ebene 1
 62
     5
420
      255
370
     9
100
AcDbSpline
210
0.0
220
0.0
230
1.0
 70
     9
 71
     3
 72
    17
 73
    13
 74
     0
 42
0.0000000001
 43
0.0000000001
 40
0.0
 40
0.0
 40
0.0
 40
0.0
 40
1.0
 40
1.0
 40
1.0
 40
2.0
 40
2.0
 40
2.0
 40
3.0
 40
3.0
 40
3.0
 40
4.0
 40
4.0
 40
4.0
 40
4.0
 10
30.05967899622768
 20
28.71928520302807
 30
0.0
 10
30.05967899622768
 20
28.99797247822148
 30
0.0
 10
30.28192419883463
 20
29.22022037226275
 30
0.0
 10
30.56061416546269
 20
29.22022037226275
 30
0.0
 10
30.83930413209075
 20
29.22022037226275
 30
0.0
 10
31.0615493346977
 20
28.99797247822148
 30
0.0
 10
31.0615493346977
 20
28.71928520302807
 30
0.0
 10
31.0615493346977
 20
28.44059792783401
 30
0.0
 10
30.83577566148095
 20
28.21835003379274
 30
0.0
 10
30.56061416546269
 20
28.21835003379274
 30
0.0
 10
30.28545266944443
 20
28.21835003379274
 30
0.0
 10
30.05967899622768
 20
28.44059792783401
 30
0.0
 10
30.05967899622768
 20
28.71928520302807
 30
0.0
  0
SPLINE
  5
B4
330
70
100
AcDbEntity
  8
Ebene 1
 62
     5
420
      255
370
     9
100
AcDbSpline
210
0.0
220
0.0
230
1.0
 70
    11
 71
     3
 72
    17
 73
    13
 74
     0
 42
0.0000000001
 43
0.0000000001
 40
0.0
 40
0.0
 40
0.0
 40
0.0
 40
1.0
 40
1.0
 40
1.0
 40
2.0
 40
2.0
 40
2.0
 40
3.0
 40
3.0
 40
3.0
 40
4.0
 40
4.0
 40
4.0
 40
4.0
 10
30.05967899622768
 20
26.7190703052632
 30
0.0
 10
30.05967899622768
 20
26.99775758045725
 30
0.0
 10
30.28192419883463
 20
27.22000547449852
 30
0.0
 10
30.56061416546269
 20
27.22000547449852
 30
0.0
 10
30.83930413209075
 20
27.22000547449852
 30
0.0
 10
31.0615493346977
 20
26.99775758045725
 30
0.0
 10
31.0615493346977
 20
26.7190703052632
 30
0.0
 10
31.0615493346977
 20
26.44038303006914
 30
0.0
 10
30.83577566148095
 20
26.21813513602786
 30
0.0
 10
30.56061416546269
 20
26.21813513602786
 30
0.0
 10
30.28545266944443
 20
26.21813513602786
 30
0.0
 10
30.05967899622768
 20
26.44038303006914
 30
0.0
 10
30.05967899622768
 20
26.7190703052632
 30
0.0
  0
SPLINE
  5
B5
330
70
100
AcDbEntity
  8
Ebene 1
 62
     5
420
      255
370
     9
100
AcDbSpline
210
0.0
220
0.0
230
1.0
 70
     9
 71
     3
 72
    17
 73
    13
 74
     0
 42
0.0000000001
 43
0.0000000001
 40
0.0
 40
0.0
 40
0.0
 40
0.0
 40
1.0
 40
1.0
 40
1.0
 40
2.0
 40
2.0
 40
2.0
 40
3.0
 40
3.0
 40
3.0
 40
4.0
 40
4.0
 40
4.0
 40
4.0
 10
30.05967899622768
 20
24.71885540749832
 30
0.0
 10
30.05967899622768
 20
24.99754268269237
 30
0.0
 10
30.28192419883463
 20
25.21979057673365
 30
0.0
 10
30.56061416546269
 20
25.21979057673365
 30
0.0
 10
30.83930413209075
 20
25.21979057673365
 30
0.0
 10
31.0615493346977
 20
24.99754268269237
 30
0.0
 10
31.0615493346977
 20
24.71885540749832
 30
0.0
 10
31.0615493346977
 20
24.4401681323049
 30
0.0
 10
30.83577566148095
 20
24.21792023826363
 30
0.0
 10
30.56061416546269
 20
24.21792023826363
 30
0.0
 10
30.28545266944443
 20
24.21792023826363
 30
0.0
 10
30.05967899622768
 20
24.4401681323049
 30
0.0
 10
30.05967899622768
 20
24.71885540749832
 30
0.0
  0
SPLINE
  5
B6
330
70
100
AcDbEntity
  8
Ebene 1
 62
     5
420
      255
370
     9
100
AcDbSpline
210
0.0
220
0.0
230
1.0
 70
    11
 71
     3
 72
    17
 73
    13
 74
     0
 42
0.0000000001
 43
0.0000000001
 40
0.0
 40
0.0
 40
0.0
 40
0.0
 40
1.0
 40
1.0
 40
1.0
 40
2.0
 40
2.0
 40
2.0
 40
3.0
 40
3.0
 40
3.0
 40
4.0
 40
4.0
 40
4.0
 40
4.0
 10
30.05967899622768
 20
22.71864050973409
 30
0.0
 10
30.05967899622768
 20
22.9973277849275
 30
0.0
 10
30.28192419883463
 20
23.21957567896877
 30
0.0
 10
30.56061416546269
 20
23.21957567896877
 30
0.0
 10
30.83930413209075
 20
23.21957567896877
 30
0.0
 10
31.0615493346977
 20
22.9973277849275
 30
0.0
 10
31.0615493346977
 20
22.71864050973409
 30
0.0
 10
31.0615493346977
 20
22.43995323454067
 30
0.0
 10
30.83577566148095
 20
22.2177053404994
 30
0.0
 10
30.56061416546269
 20
22.2177053404994
 30
0.0
 10
30.28545266944443
 20
22.2177053404994
 30
0.0
 10
30.05967899622768
 20
22.43995323454067
 30
0.0
 10
30.05967899622768
 20
22.71864050973409
 30
0.0
  0
SPLINE
  5
B7
330
70
100
AcDbEntity
  8
Ebene 1
 62
     5
420
      255
370
     9
100
AcDbSpline
210
0.0
220
0.0
230
1.0
 70
    11
 71
     3
 72
    17
 73
    13
 74
     0
 42
0.0000000001
 43
0.0000000001
 40
0.0
 40
0.0
 40
0.0
 40
0.0
 40
1.0
 40
1.0
 40
1.0
 40
2.0
 40
2.0
 40
2.0
 40
3.0
 40
3.0
 40
3.0
 40
4.0
 40
4.0
 40
4.0
 40
4.0
 10
32.05989389399223
 20
30.7195001007923
 30
0.0
 10
32.05989389399223
 20
30.99818737598571
 30
0.0
 10
32.28213909659886
 20
31.22043527002699
 30
0.0
 10
32.56082906322724
 20
31.22043527002699
 30
0.0
 10
32.83951902985562
 20
31.22043527002699
 30
0.0
 10
33.06176423246225
 20
30.99818737598571
 30
0.0
 10
33.06176423246225
 20
30.7195001007923
 30
0.0
 10
33.06176423246225
 20
30.44081282559889
 30
0.0
 10
32.8359905592455
 20
30.21856493155762
 30
0.0
 10
32.56082906322724
 20
30.21856493155762
 30
0.0
 10
32.28566756720898
 20
30.21856493155762
 30
0.0
 10
32.05989389399223
 20
30.44081282559889
 30
0.0
 10
32.05989389399223
 20
30.7195001007923
 30
0.0
  0
SPLINE
  5
B8
330
70
100
AcDbEntity
  8
Ebene 1
 62
     5
420
      255
370
     9
100
AcDbSpline
210
0.0
220
0.0
230
1.0
 70
     9
 71
     3
 72
    17
 73
    13
 74
     0
 42
0.0000000001
 43
0.0000000001
 40
0.0
 40
0.0
 40
0.0
 40
0.0
 40
1.0
 40
1.0
 40
1.0
 40
2.0
 40
2.0
 40
2.0
 40
3.0
 40
3.0
 40
3.0
 40
4.0
 40
4.0
 40
4.0
 40
4.0
 10
32.05989389399223
 20
28.71928520302807
 30
0.0
 10
32.05989389399223
 20
28.99797247822148
 30
0.0
 10
32.28213909659886
 20
29.22022037226275
 30
0.0
 10
32.56082906322724
 20
29.22022037226275
 30
0.0
 10
32.83951902985562
 20
29.22022037226275
 30
0.0
 10
33.06176423246225
 20
28.99797247822148
 30
0.0
 10
33.06176423246225
 20
28.71928520302807
 30
0.0
 10
33.06176423246225
 20
28.44059792783401
 30
0.0
 10
32.8359905592455
 20
28.21835003379274
 30
0.0
 10
32.56082906322724
 20
28.21835003379274
 30
0.0
 10
32.28566756720898
 20
28.21835003379274
 30
0.0
 10
32.05989389399223
 20
28.44059792783401
 30
0.0
 10
32.05989389399223
 20
28.71928520302807
 30
0.0
  0
SPLINE
  5
B9
330
70
100
AcDbEntity
  8
Ebene 1
 62
     5
420
      255
370
     9
100
AcDbSpline
210
0.0
220
0.0
230
1.0
 70
    11
 71
     3
 72
    17
 73
    13
 74
     0
 42
0.0000000001
 43
0.0000000001
 40
0.0
 40
0.0
 40
0.0
 40
0.0
 40
1.0
 40
1.0
 40
1.0
 40
2.0
 40
2.0
 40
2.0
 40
3.0
 40
3.0
 40
3.0
 40
4.0
 40
4.0
 40
4.0
 40
4.0
 10
32.05989389399223
 20
26.7190703052632
 30
0.0
 10
32.05989389399223
 20
26.99775758045725
 30
0.0
 10
32.28213909659886
 20
27.22000547449852
 30
0.0
 10
32.56082906322724
 20
27.22000547449852
 30
0.0
 10
32.83951902985562
 20
27.22000547449852
 30
0.0
 10
33.06176423246225
 20
26.99775758045725
 30
0.0
 10
33.06176423246225
 20
26.7190703052632
 30
0.0
 10
33.06176423246225
 20
26.44038303006914
 30
0.0
 10
32.8359905592455
 20
26.21813513602786
 30
0.0
 10
32.56082906322724
 20
26.21813513602786
 30
0.0
 10
32.28566756720898
 20
26.21813513602786
 30
0.0
 10
32.05989389399223
 20
26.44038303006914
 30
0.0
 10
32.05989389399223
 20
26.7190703052632
 30
0.0
  0
SPLINE
  5
BA
330
70
100
AcDbEntity
  8
Ebene 1
 62
     5
420
      255
370
     9
100
AcDbSpline
210
0.0
220
0.0
230
1.0
 70
     9
 71
     3
 72
    17
 73
    13
 74
     0
 42
0.0000000001
 43
0.0000000001
 40
0.0
 40
0.0
 40
0.0
 40
0.0
 40
1.0
 40
1.0
 40
1.0
 40
2.0
 40
2.0
 40
2.0
 40
3.0
 40
3.0
 40
3.0
 40
4.0
 40
4.0
 40
4.0
 40
4.0
 10
32.05989389399223
 20
24.71885540749832
 30
0.0
 10
32.05989389399223
 20
24.99754268269237
 30
0.0
 10
32.28213909659886
 20
25.21979057673365
 30
0.0
 10
32.56082906322724
 20
25.21979057673365
 30
0.0
 10
32.83951902985562
 20
25.21979057673365
 30
0.0
 10
33.06176423246225
 20
24.99754268269237
 30
0.0
 10
33.06176423246225
 20
24.71885540749832
 30
0.0
 10
33.06176423246225
 20
24.4401681323049
 30
0.0
 10
32.8359905592455
 20
24.21792023826363
 30
0.0
 10
32.56082906322724
 20
24.21792023826363
 30
0.0
 10
32.28566756720898
 20
24.21792023826363
 30
0.0
 10
32.05989389399223
 20
24.4401681323049
 30
0.0
 10
32.05989389399223
 20
24.71885540749832
 30
0.0
  0
SPLINE
  5
BB
330
70
100
AcDbEntity
  8
Ebene 1
 62
     5
420
      255
370
     9
100
AcDbSpline
210
0.0
220
0.0
230
1.0
 70
    11
 71
     3
 72
    17
 73
    13
 74
     0
 42
0.0000000001
 43
0.0000000001
 40
0.0
 40
0.0
 40
0.0
 40
0.0
 40
1.0
 40
1.0
 40
1.0
 40
2.0
 40
2.0
 40
2.0
 40
3.0
 40
3.0
 40
3.0
 40
4.0
 40
4.0
 40
4.0
 40
4.0
 10
32.05989389399223
 20
22.71864050973409
 30
0.0
 10
32.05989389399223
 20
22.9973277849275
 30
0.0
 10
32.28213909659886
 20
23.21957567896877
 30
0.0
 10
32.56082906322724
 20
23.21957567896877
 30
0.0
 10
32.83951902985562
 20
23.21957567896877
 30
0.0
 10
33.06176423246225
 20
22.9973277849275
 30
0.0
 10
33.06176423246225
 20
22.71864050973409
 30
0.0
 10
33.06176423246225
 20
22.43995323454067
 30
0.0
 10
32.8359905592455
 20
22.2177053404994
 30
0.0
 10
32.56082906322724
 20
22.2177053404994
 30
0.0
 10
32.28566756720898
 20
22.2177053404994
 30
0.0
 10
32.05989389399223
 20
22.43995323454067
 30
0.0
 10
32.05989389399223
 20
22.71864050973409
 30
0.0
  0
SPLINE
  5
BC
330
70
100
AcDbEntity
  8
Ebene 1
 62
     5
420
      255
370
     9
100
AcDbSpline
210
0.0
220
0.0
230
1.0
 70
     9
 71
     3
 72
    44
 73
    40
 74
     0
 42
0.0000000001
 43
0.0000000001
 40
0.0
 40
0.0
 40
0.0
 40
0.0
 40
1.0
 40
1.0
 40
1.0
 40
2.0
 40
2.0
 40
2.0
 40
3.0
 40
3.0
 40
3.0
 40
4.0
 40
4.0
 40
4.0
 40
5.0
 40
5.0
 40
5.0
 40
6.0
 40
6.0
 40
6.0
 40
7.0
 40
7.0
 40
7.0
 40
8.0
 40
8.0
 40
8.0
 40
9.0
 40
9.0
 40
9.0
 40
10.0
 40
10.0
 40
10.0
 40
11.0
 40
11.0
 40
11.0
 40
12.0
 40
12.0
 40
12.0
 40
13.0
 40
13.0
 40
13.0
 40
13.0
 10
21.5966839554716
 20
25.87242037641763
 30
0.0
 10
21.62490633748232
 20
25.48436935235651
 30
0.0
 10
21.33210517984874
 20
25.15276847518611
 30
0.0
 10
20.94758397211474
 20
25.12454609317508
 30
0.0
 10
20.94758397211474
 20
25.12454609317508
 30
0.0
 10
2.751618997334227
 20
23.8510400378626
 30
0.0
 10
2.751618997334227
 20
23.8510400378626
 30
0.0
 10
2.751618997334227
 20
23.8510400378626
 30
0.0
 10
4.085095932273261
 20
16.53808418684971
 30
0.0
 10
4.085095932273261
 20
16.53808418684971
 30
0.0
 10
4.085095932273261
 20
16.53808418684971
 30
0.0
 10
19.17666852674241
 20
17.59639928934115
 30
0.0
 10
19.17666852674241
 20
17.59639928934115
 30
0.0
 10
19.17666852674241
 20
17.59639928934115
 30
0.0
 10
35.1572263052197
 20
17.59639928934115
 30
0.0
 10
35.1572263052197
 20
17.59639928934115
 30
0.0
 10
35.1572263052197
 20
17.59639928934115
 30
0.0
 10
35.18192021662061
 20
24.09445337269467
 30
0.0
 10
35.18192021662061
 20
24.09445337269467
 30
0.0
 10
35.18192021662061
 20
24.48250439675514
 30
0.0
 10
35.49588681504499
 20
24.79647099517984
 30
0.0
 10
35.88393514767146
 20
24.79647099517984
 30
0.0
 10
35.88393514767146
 20
24.79647099517984
 30
0.0
 10
38.1310918508782
 20
24.79647099517984
 30
0.0
 10
38.1310918508782
 20
24.79647099517984
 30
0.0
 10
38.1310918508782
 20
24.79647099517984
 30
0.0
 10
38.1310918508782
 20
34.74463188202594
 30
0.0
 10
38.1310918508782
 20
34.74463188202594
 30
0.0
 10
38.1310918508782
 20
34.74463188202594
 30
0.0
 10
20.97580500840846
 20
34.74463188202594
 30
0.0
 10
20.97580500840846
 20
34.74463188202594
 30
0.0
 10
20.97580500840846
 20
34.74463188202594
 30
0.0
 10
21.59668260975427
 20
25.86889459724183
 30
0.0
 10
21.59668260975427
 20
25.86889459724183
 30
0.0
 10
21.59668260975427
 20
25.86889459724183
 30
0.0
 10
21.59668260975427
 20
25.86889459724183
 30
0.0
 10
21.59668260975427
 20
25.86889459724183
 30
0.0
 10
21.59668260975427
 20
25.86889459724183
 30
0.0
 10
21.5966839554716
 20
25.87242037641763
 30
0.0
 10
21.5966839554716
 20
25.87242037641763
 30
0.0
  0
SPLINE
  5
BD
330
70
100
AcDbEntity
  8
Ebene 1
 62
     5
420
      255
370
     9
100
AcDbSpline
210
0.0
220
0.0
230
1.0
 70
     9
 71
     3
 72
    17
 73
    13
 74
     0
 42
0.0000000001
 43
0.0000000001
 40
0.0
 40
0.0
 40
0.0
 40
0.0
 40
1.0
 40
1.0
 40
1.0
 40
2.0
 40
2.0
 40
2.0
 40
3.0
 40
3.0
 40
3.0
 40
4.0
 40
4.0
 40
4.0
 40
4.0
 10
46.38947865920832
 20
87.18061290457265
 30
0.0
 10
46.38947865920832
 20
87.76268607637103
 30
0.0
 10
46.85866566725714
 20
88.23187274799083
 30
0.0
 10
47.44073682047985
 20
88.23187274799083
 30
0.0
 10
48.02280797370255
 20
88.23187274799083
 30
0.0
 10
48.49199498175138
 20
87.76268641280037
 30
0.0
 10
48.49199498175138
 20
87.18061324100199
 30
0.0
 10
48.49199498175138
 20
86.5985400692033
 30
0.0
 10
48.01928219452708
 20
86.12935373401315
 30
0.0
 10
47.44073682047985
 20
86.12935373401315
 30
0.0
 10
46.86219144643262
 20
86.12935373401315
 30
0.0
 10
46.38947865920832
 20
86.5985400692033
 30
0.0
 10
46.38947865920832
 20
87.18061290457265
 30
0.0
  0
SPLINE
  5
BE
330
70
100
AcDbEntity
  8
Ebene 1
 62
     5
420
      255
370
     9
100
AcDbSpline
210
0.0
220
0.0
230
1.0
 70
     9
 71
     3
 72
    17
 73
    13
 74
     0
 42
0.0000000001
 43
0.0000000001
 40
0.0
 40
0.0
 40
0.0
 40
0.0
 40
1.0
 40
1.0
 40
1.0
 40
2.0
 40
2.0
 40
2.0
 40
3.0
 40
3.0
 40
3.0
 40
4.0
 40
4.0
 40
4.0
 40
4.0
 10
84.90155921005875
 20
29.04030874267172
 30
0.0
 10
84.90155921005875
 20
35.8029416016481
 30
0.0
 10
90.38715485167756
 20
41.2885426261362
 30
0.0
 10
97.14979309352258
 20
41.2885426261362
 30
0.0
 10
103.9124313353676
 20
41.2885426261362
 30
0.0
 10
109.3980269769864
 20
35.8029416016481
 30
0.0
 10
109.3980269769864
 20
29.04030874267172
 30
0.0
 10
109.3980269769864
 20
22.27767588369598
 30
0.0
 10
103.9159517316741
 20
16.79207485920852
 30
0.0
 10
97.14979309352258
 20
16.79207485920852
 30
0.0
 10
90.38363445537106
 20
16.79207485920852
 30
0.0
 10
84.90155921005875
 20
22.27767588369598
 30
0.0
 10
84.90155921005875
 20
29.04030874267172
 30
0.0
  0
SPLINE
  5
BF
330
70
100
AcDbEntity
  8
Ebene 1
 62
     5
420
      255
370
     9
100
AcDbSpline
210
0.0
220
0.0
230
1.0
 70
     9
 71
     3
 72
    17
 73
    13
 74
     0
 42
0.0000000001
 43
0.0000000001
 40
0.0
 40
0.0
 40
0.0
 40
0.0
 40
1.0
 40
1.0
 40
1.0
 40
2.0
 40
2.0
 40
2.0
 40
3.0
 40
3.0
 40
3.0
 40
4.0
 40
4.0
 40
4.0
 40
4.0
 10
108.4526014025378
 20
7.817561928822035
 30
0.0
 10
108.4526014025378
 20
8.3996330820441
 30
0.0
 10
108.9217830277177
 20
8.868820090093239
 30
0.0
 10
109.5038649466783
 20
8.868820090093239
 30
0.0
 10
110.0859468656389
 20
8.868820090093239
 30
0.0
 10
110.5551284908188
 20
8.3996330820441
 30
0.0
 10
110.5551284908188
 20
7.817561928822035
 30
0.0
 10
110.5551284908188
 20
7.235490775598687
 30
0.0
 10
110.0824157035945
 20
6.766303767550192
 30
0.0
 10
109.5038649466783
 20
6.766303767550192
 30
0.0
 10
108.9253141897621
 20
6.766303767550192
 30
0.0
 10
108.4526014025378
 20
7.235490775598687
 30
0.0
 10
108.4526014025378
 20
7.817561928822035
 30
0.0
  0
SPLINE
  5
C0
330
70
100
AcDbEntity
  8
Ebene 1
 62
     5
420
      255
370
     9
100
AcDbSpline
210
0.0
220
0.0
230
1.0
 70
     9
 71
     3
 72
    17
 73
    13
 74
     0
 42
0.0000000001
 43
0.0000000001
 40
0.0
 40
0.0
 40
0.0
 40
0.0
 40
1.0
 40
1.0
 40
1.0
 40
2.0
 40
2.0
 40
2.0
 40
3.0
 40
3.0
 40
3.0
 40
4.0
 40
4.0
 40
4.0
 40
4.0
 10
110.5551177250809
 20
87.24058412062822
 30
0.0
 10
110.5551177250809
 20
86.65851061240021
 30
0.0
 10
110.085936099901
 20
86.18932427721004
 30
0.0
 10
109.5038541809404
 20
86.18932427721004
 30
0.0
 10
108.9217722619797
 20
86.18932427721004
 30
0.0
 10
108.4525906367999
 20
86.65851061240021
 30
0.0
 10
108.4525906367999
 20
87.2405837841989
 30
0.0
 10
108.4525906367999
 20
87.82265695599759
 30
0.0
 10
108.9253034240242
 20
88.29184329118742
 30
0.0
 10
109.5038541809404
 20
88.29184329118742
 30
0.0
 10
110.0824049378566
 20
88.29184329118742
 30
0.0
 10
110.5551177250809
 20
87.82265695599759
 30
0.0
 10
110.5551177250809
 20
87.24058412062822
 30
0.0
  0
SPLINE
  5
C1
330
70
100
AcDbEntity
  8
Ebene 1
 62
     5
420
      255
370
     9
100
AcDbSpline
210
0.0
220
0.0
230
1.0
 70
    11
 71
     3
 72
    47
 73
    43
 74
     0
 42
0.0000000001
 43
0.0000000001
 40
0.0
 40
0.0
 40
0.0
 40
0.0
 40
1.0
 40
1.0
 40
1.0
 40
2.0
 40
2.0
 40
2.0
 40
3.0
 40
3.0
 40
3.0
 40
4.0
 40
4.0
 40
4.0
 40
5.0
 40
5.0
 40
5.0
 40
6.0
 40
6.0
 40
6.0
 40
7.0
 40
7.0
 40
7.0
 40
8.0
 40
8.0
 40
8.0
 40
9.0
 40
9.0
 40
9.0
 40
10.0
 40
10.0
 40
10.0
 40
11.0
 40
11.0
 40
11.0
 40
12.0
 40
12.0
 40
12.0
 40
13.0
 40
13.0
 40
13.0
 40
14.0
 40
14.0
 40
14.0
 40
14.0
 10
111.4088299780153
 20
89.82640066080127
 30
0.0
 10
111.4088299780153
 20
89.82640066080127
 30
0.0
 10
44.20582096980861
 20
89.82640066080127
 30
0.0
 10
44.20582096980861
 20
89.82640066080127
 30
0.0
 10
44.20582096980861
 20
89.82640066080127
 30
0.0
 10
44.19170977880341
 20
84.85584767870035
 30
0.0
 10
44.19170977880341
 20
84.85584767870035
 30
0.0
 10
44.19170977880341
 20
84.85584767870035
 30
0.0
 10
62.51467008976302
 20
84.85584767870035
 30
0.0
 10
62.51467008976302
 20
84.85584767870035
 30
0.0
 10
62.89918995177969
 20
84.85584767870035
 30
0.0
 10
63.21315655020406
 20
84.54540887802712
 30
0.0
 10
63.21315655020406
 20
84.15735987254199
 30
0.0
 10
63.21315655020406
 20
84.15735987254199
 30
0.0
 10
63.21315655020406
 20
81.84317770349441
 30
0.0
 10
63.21315655020406
 20
81.84317770349441
 30
0.0
 10
63.21315655020406
 20
81.84317770349441
 30
0.0
 10
81.50789717058758
 20
81.84317770349441
 30
0.0
 10
81.50789717058758
 20
81.84317770349441
 30
0.0
 10
81.89241703260426
 20
81.84317770349441
 30
0.0
 10
82.20638363102862
 20
81.53273890282148
 30
0.0
 10
82.20638363102862
 20
81.14468922447768
 30
0.0
 10
82.20638363102862
 20
81.14468922447768
 30
0.0
 10
82.23460601303933
 20
18.70057105258934
 30
0.0
 10
82.23460601303933
 20
18.70057105258934
 30
0.0
 10
86.8418035646264
 20
16.92612982804217
 30
0.0
 10
91.4313668374671
 20
14.73894635946666
 30
0.0
 10
95.8057337746175
 20
12.21309968963186
 30
0.0
 10
101.4606637083006
 20
8.946435677774752
 30
0.0
 10
107.0415145992159
 20
4.801368193016594
 30
0.0
 10
112.1143733796763
 20
0.113034657441521
 30
0.0
 10
112.1143733796763
 20
0.113034657441521
 30
0.0
 10
112.1143733796763
 20
89.12438505689177
 30
0.0
 10
112.1143733796763
 20
89.12438505689177
 30
0.0
 10
112.1143733796763
 20
89.50890626462543
 30
0.0
 10
111.8039325604274
 20
89.82287303126447
 30
0.0
 10
111.4158815363663
 20
89.82287303126447
 30
0.0
 10
111.4158815363663
 20
89.82287303126447
 30
0.0
 10
111.4158815363663
 20
89.82287303126447
 30
0.0
 10
111.4158815363663
 20
89.82287303126447
 30
0.0
 10
111.4158815363663
 20
89.82287303126447
 30
0.0
 10
111.4088299780153
 20
89.82640066080127
 30
0.0
 10
111.4088299780153
 20
89.82640066080127
 30
0.0
  0
SPLINE
  5
C2
330
70
100
AcDbEntity
  8
Ebene 1
 62
     5
420
      255
370
     9
100
AcDbSpline
210
0.0
220
0.0
230
1.0
 70
    11
 71
     3
 72
    17
 73
    13
 74
     0
 42
0.0000000001
 43
0.0000000001
 40
0.0
 40
0.0
 40
0.0
 40
0.0
 40
1.0
 40
1.0
 40
1.0
 40
2.0
 40
2.0
 40
2.0
 40
3.0
 40
3.0
 40
3.0
 40
4.0
 40
4.0
 40
4.0
 40
4.0
 10
22.65147327878757
 20
86.21401818861096
 30
0.0
 10
22.65147327878757
 20
86.79609136040934
 30
0.0
 10
23.12066028683638
 20
87.26527769559949
 30
0.0
 10
23.70273413149374
 20
87.26527769559949
 30
0.0
 10
24.28480797615077
 20
87.26527769559949
 30
0.0
 10
24.75399498419959
 20
86.79609136040934
 30
0.0
 10
24.75399498419959
 20
86.21401818861096
 30
0.0
 10
24.75399498419959
 20
85.63194501681229
 30
0.0
 10
24.2812821969753
 20
85.16275868162212
 30
0.0
 10
23.70273413149374
 20
85.16275868162212
 30
0.0
 10
23.12418606601186
 20
85.16275868162212
 30
0.0
 10
22.65147327878757
 20
85.63194501681229
 30
0.0
 10
22.65147327878757
 20
86.21401818861096
 30
0.0
  0
SPLINE
  5
C3
330
70
100
AcDbEntity
  8
Ebene 1
 62
     5
420
      255
370
     9
100
AcDbSpline
210
0.0
220
0.0
230
1.0
 70
    11
 71
     3
 72
    17
 73
    13
 74
     0
 42
0.0000000001
 43
0.0000000001
 40
0.0
 40
0.0
 40
0.0
 40
0.0
 40
1.0
 40
1.0
 40
1.0
 40
2.0
 40
2.0
 40
2.0
 40
3.0
 40
3.0
 40
3.0
 40
4.0
 40
4.0
 40
4.0
 40
4.0
 10
37.49257862506871
 20
87.22294546830058
 30
0.0
 10
37.49257862506871
 20
87.80501864009927
 30
0.0
 10
37.9617656331172
 20
88.27420497528942
 30
0.0
 10
38.54383947777455
 20
88.27420497528942
 30
0.0
 10
39.12591332243191
 20
88.27420497528942
 30
0.0
 10
39.5951003304804
 20
87.80501864009927
 30
0.0
 10
39.5951003304804
 20
87.22294546830058
 30
0.0
 10
39.5951003304804
 20
86.6408722965022
 30
0.0
 10
39.12238754325611
 20
86.17168596131206
 30
0.0
 10
38.54383947777455
 20
86.17168596131206
 30
0.0
 10
37.965291412293
 20
86.17168596131206
 30
0.0
 10
37.49257862506871
 20
86.6408722965022
 30
0.0
 10
37.49257862506871
 20
87.22294546830058
 30
0.0
  0
SPLINE
  5
C4
330
70
100
AcDbEntity
  8
Ebene 1
 62
     5
420
      255
370
     9
100
AcDbSpline
210
0.0
220
0.0
230
1.0
 70
     9
 71
     3
 72
    38
 73
    34
 74
     0
 42
0.0000000001
 43
0.0000000001
 40
0.0
 40
0.0
 40
0.0
 40
0.0
 40
1.0
 40
1.0
 40
1.0
 40
2.0
 40
2.0
 40
2.0
 40
3.0
 40
3.0
 40
3.0
 40
4.0
 40
4.0
 40
4.0
 40
5.0
 40
5.0
 40
5.0
 40
6.0
 40
6.0
 40
6.0
 40
7.0
 40
7.0
 40
7.0
 40
8.0
 40
8.0
 40
8.0
 40
9.0
 40
9.0
 40
9.0
 40
10.0
 40
10.0
 40
10.0
 40
11.0
 40
11.0
 40
11.0
 40
11.0
 10
0.7478759653892039
 20
89.82287303126447
 30
0.0
 10
0.3633547997089556
 20
89.82287303126447
 30
0.0
 10
0.049387991016174
 20
89.5124340623769
 30
0.0
 10
0.049387991016174
 20
89.12438505689177
 30
0.0
 10
0.049387991016174
 20
89.12438505689177
 30
0.0
 10
0.049387991016174
 20
67.33367794439461
 30
0.0
 10
0.049387991016174
 20
67.33367794439461
 30
0.0
 10
0.049387991016174
 20
67.33367794439461
 30
0.0
 10
17.80085970093412
 20
70.46276255396023
 30
0.0
 10
17.80085970093412
 20
70.46276255396023
 30
0.0
 10
18.18185378377499
 20
70.52978869265974
 30
0.0
 10
18.54520820500087
 20
70.27579398314959
 30
0.0
 10
18.6122343437007
 20
69.8948012460254
 30
0.0
 10
18.6122343437007
 20
69.8948012460254
 30
0.0
 10
21.40265844344104
 20
53.97774113563781
 30
0.0
 10
21.40265844344104
 20
53.97774113563781
 30
0.0
 10
21.52612800044497
 20
53.26514348419157
 30
0.0
 10
22.58444310293642
 20
53.39566729098078
 30
0.0
 10
22.53505528013459
 20
54.11532188364694
 30
0.0
 10
22.53505528013459
 20
54.11532188364694
 30
0.0
 10
20.55953429377095
 20
82.65455301911996
 30
0.0
 10
20.55953429377095
 20
82.65455301911996
 30
0.0
 10
20.55953429377095
 20
82.65455301911996
 30
0.0
 10
20.55953429377095
 20
82.65455301911996
 30
0.0
 10
20.55953429377095
 20
82.65455301911996
 30
0.0
 10
20.55953429377095
 20
82.65455301911996
 30
0.0
 10
43.06284141271934
 20
84.22791448185162
 30
0.0
 10
43.06284141271934
 20
84.22791448185162
 30
0.0
 10
43.06284141271934
 20
84.22791448185162
 30
0.0
 10
43.05225869232394
 20
89.82287353590846
 30
0.0
 10
43.05225869232394
 20
89.82287353590846
 30
0.0
 10
43.05225869232394
 20
89.82287353590846
 30
0.0
 10
0.747876974677196
 20
89.82287353590846
 30
0.0
 10
0.7478759653892039
 20
89.82287303126447
 30
0.0
  0
INSERT
  5
C6
330
70
100
AcDbEntity
  8
Ebene 1
100
AcDbBlockReference
  2
Block_0
 10
0.0
 20
0.0
 30
0.0
  0
ENDSEC
  0
SECTION
  2
OBJECTS
  0
DICTIONARY
  5
C
330
0
100
AcDbDictionary
281
     1
  3
ACAD_COLOR
350
63
  3
ACAD_DETAILVIEWSTYLE
350
6A
  3
ACAD_GROUP
350
D
  3
ACAD_LAYOUT
350
62
  3
ACAD_MATERIAL
350
10
  3
ACAD_MLEADERSTYLE
350
66
  3
ACAD_MLINESTYLE
350
5F
  3
ACAD_PLOTSETTINGS
350
61
  3
ACAD_PLOTSTYLENAME
350
E
  3
ACAD_SCALELIST
350
42
  3
ACAD_SECTIONVIEWSTYLE
350
68
  3
ACAD_TABLESTYLE
350
64
  3
ACAD_VISUALSTYLE
350
29
  3
ACDB_RECOMPOSE_DATA
350
DD
  3
AcDbVariableDictionary
350
D5
  0
DICTIONARY
  5
63
102
{ACAD_REACTORS
330
C
102
}
330
C
100
AcDbDictionary
281
     1
  0
DICTIONARY
  5
6A
102
{ACAD_REACTORS
330
C
102
}
330
C
100
AcDbDictionary
281
     1
  3
Imperial24
350
6B
  0
DICTIONARY
  5
D
102
{ACAD_REACTORS
330
C
102
}
330
C
100
AcDbDictionary
281
     1
  0
DICTIONARY
  5
62
102
{ACAD_REACTORS
330
C
102
}
330
C
100
AcDbDictionary
281
     1
  3
Layout1
350
6F
  3
Layout2
350
77
  3
Model
350
73
  0
DICTIONARY
  5
10
102
{ACAD_REACTORS
330
C
102
}
330
C
100
AcDbDictionary
281
     1
  3
ByBlock
350
19
  3
ByLayer
350
11
  3
Global
350
21
  0
DICTIONARY
  5
66
102
{ACAD_REACTORS
330
C
102
}
330
C
100
AcDbDictionary
281
     1
  3
Standard
350
67
  0
DICTIONARY
  5
5F
102
{ACAD_REACTORS
330
C
102
}
330
C
100
AcDbDictionary
281
     1
  3
Standard
350
60
  0
DICTIONARY
  5
61
102
{ACAD_REACTORS
330
C
102
}
330
C
100
AcDbDictionary
281
     1
  0
ACDBDICTIONARYWDFLT
  5
E
102
{ACAD_REACTORS
330
C
102
}
330
C
100
AcDbDictionary
281
     1
  3
Normal
350
F
100
AcDbDictionaryWithDefault
340
F
  0
DICTIONARY
  5
42
102
{ACAD_REACTORS
330
C
102
}
330
C
100
AcDbDictionary
281
     1
  3
A0
350
43
  3
A1
350
44
  3
A2
350
45
  3
A3
350
46
  3
A4
350
47
  3
A5
350
48
  3
A6
350
49
  3
A7
350
4A
  3
A8
350
4B
  3
A9
350
4C
  3
B0
350
4D
  3
B1
350
4E
  3
B2
350
4F
  3
B3
350
50
  3
B4
350
51
  3
B5
350
52
  3
B6
350
53
  0
DICTIONARY
  5
68
102
{ACAD_REACTORS
330
C
102
}
330
C
100
AcDbDictionary
281
     1
  3
Imperial24
350
69
  0
DICTIONARY
  5
64
102
{ACAD_REACTORS
330
C
102
}
330
C
100
AcDbDictionary
281
     1
  3
Standard
350
65
  0
DICTIONARY
  5
29
102
{ACAD_REACTORS
330
C
102
}
330
C
100
AcDbDictionary
281
     1
  3
2dWireframe
350
2F
  3
Basic
350
2E
  3
Brighten
350
35
  3
ColorChange
350
39
  3
Conceptual
350
32
  3
Dim
350
34
  3
EdgeColorOff
350
41
  3
Facepattern
350
38
  3
Flat
350
2A
  3
FlatWithEdges
350
2B
  3
Gouraud
350
2C
  3
GouraudWithEdges
350
2D
  3
Hidden
350
31
  3
JitterOff
350
3F
  3
Linepattern
350
37
  3
OverhangOff
350
40
  3
Realistic
350
33
  3
Shaded
350
3E
  3
Shaded with edges
350
3D
  3
Shades of Gray
350
3A
  3
Sketchy
350
3B
  3
Thicken
350
36
  3
Wireframe
350
30
  3
X-Ray
350
3C
  0
XRECORD
  5
DD
102
{ACAD_REACTORS
330
C
102
}
330
C
100
AcDbXrecord
280
     1
 90
        1
330
65
  0
DICTIONARY
  5
D5
102
{ACAD_REACTORS
330
C
102
}
330
C
100
AcDbDictionary
281
     1
  3
CANNOSCALE
350
DA
  3
CMLEADERSTYLE
350
D7
  3
CTABLESTYLE
350
D6
  3
CVIEWDETAILSTYLE
350
D8
  3
CVIEWSECTIONSTYLE
350
D9
  0
ACDBDETAILVIEWSTYLE
  5
6B
102
{ACAD_REACTORS
330
6A
102
}
330
6A
100
AcDbModelDocViewStyle
 70
     0
  3
Imperial24
290
     1
300
Imperial24
 90
        0
100
AcDbDetailViewStyle
 70
     0
 71
     0
 90
        3
 71
     1
340
55
 62
   256
 40
0.24
340
0
 62
   256
 40
0.24
300

 40
0.36
280
     3
 71
     2
340
5D
 90
       25
 62
   256
 71
     3
340
55
 62
   256
 40
0.24
 90
        1
 40
0.75
 90
        1
300
%<\AcVar ViewType \f "%tc1">% %<\AcVar ViewDetailId>%\PSCALE %<\AcVar ViewScale \f "%sn">%
 71
     4
340
5D
 90
       25
 62
   256
340
5D
 90
       25
 62
   256
280
     0
  0
LAYOUT
  5
6F
102
{ACAD_REACTORS
330
62
102
}
330
62
100
AcDbPlotSettings
  1

  2

  4

  6

 40
0.0
 41
0.0
 42
0.0
 43
0.0
 44
0.0
 45
0.0
 46
0.0
 47
0.0
 48
0.0
 49
0.0
140
0.0
141
0.0
142
1.0
143
1.0
 70
   688
 72
     0
 73
     0
 74
     5
  7

 75
    16
147
1.0
 76
     0
 77
     2
 78
   300
148
0.0
149
0.0
100
AcDbLayout
  1
Layout1
 70
     1
 71
     1
 10
0.0
 20
0.0
 11
12.0
 21
9.0
 12
0.0
 22
0.0
 32
0.0
 14
0.0
 24
0.0
 34
0.0
 15
0.0
 25
0.0
 35
0.0
146
0.0
 13
0.0
 23
0.0
 33
0.0
 16
1.0
 26
0.0
 36
0.0
 17
0.0
 27
1.0
 37
0.0
 76
     0
330
6C
  0
LAYOUT
  5
77
102
{ACAD_REACTORS
330
62
102
}
330
62
100
AcDbPlotSettings
  1

  2

  4

  6

 40
0.0
 41
0.0
 42
0.0
 43
0.0
 44
0.0
 45
0.0
 46
0.0
 47
0.0
 48
0.0
 49
0.0
140
0.0
141
0.0
142
1.0
143
1.0
 70
   688
 72
     0
 73
     0
 74
     5
  7

 75
    16
147
1.0
 76
     0
 77
     2
 78
   300
148
0.0
149
0.0
100
AcDbLayout
  1
Layout2
 70
     1
 71
     2
 10
0.0
 20
0.0
 11
12.0
 21
9.0
 12
0.0
 22
0.0
 32
0.0
 14
0.0
 24
0.0
 34
0.0
 15
0.0
 25
0.0
 35
0.0
146
0.0
 13
0.0
 23
0.0
 33
0.0
 16
1.0
 26
0.0
 36
0.0
 17
0.0
 27
1.0
 37
0.0
 76
     0
330
74
  0
LAYOUT
  5
73
102
{ACAD_REACTORS
330
62
102
}
330
62
100
AcDbPlotSettings
  1

  2

  4

  6

 40
0.0
 41
0.0
 42
0.0
 43
0.0
 44
0.0
 45
0.0
 46
0.0
 47
0.0
 48
0.0
 49
0.0
140
0.0
141
0.0
142
1.0
143
1.0
 70
  1712
 72
     0
 73
     0
 74
     0
  7

 75
     0
147
1.0
 76
     0
 77
     2
 78
   300
148
0.0
149
0.0
100
AcDbLayout
  1
Model
 70
     1
 71
     0
 10
0.0
 20
0.0
 11
12.0
 21
9.0
 12
0.0
 22
0.0
 32
0.0
 14
0.0
 24
0.0
 34
0.0
 15
0.0
 25
0.0
 35
0.0
146
0.0
 13
0.0
 23
0.0
 33
0.0
 16
1.0
 26
0.0
 36
0.0
 17
0.0
 27
1.0
 37
0.0
 76
     0
330
70
  0
MATERIAL
  5
19
102
{ACAD_XDICTIONARY
360
1A
102
}
102
{ACAD_REACTORS
330
10
102
}
330
10
100
AcDbMaterial
  1
ByBlock
 72
     0
 43
0.0208333333333333
 43
0.0
 43
0.0
 43
0.0
 43
0.0
 43
0.0208333333333333
 43
0.0
 43
0.0
 43
0.0
 43
0.0
 43
1.0
 43
0.0
 43
0.0
 43
0.0
 43
0.0
 43
1.0
 77
     0
 47
0.0208333333333333
 47
0.0
 47
0.0
 47
0.0
 47
0.0
 47
0.0208333333333333
 47
0.0
 47
0.0
 47
0.0
 47
0.0
 47
1.0
 47
0.0
 47
0.0
 47
0.0
 47
0.0
 47
1.0
171
     0
 49
0.0208333333333333
 49
0.0
 49
0.0
 49
0.0
 49
0.0
 49
0.0208333333333333
 49
0.0
 49
0.0
 49
0.0
 49
0.0
 49
1.0
 49
0.0
 49
0.0
 49
0.0
 49
0.0
 49
1.0
175
     0
142
0.0208333333333333
142
0.0
142
0.0
142
0.0
142
0.0
142
0.0208333333333333
142
0.0
142
0.0
142
0.0
142
0.0
142
1.0
142
0.0
142
0.0
142
0.0
142
0.0
142
1.0
179
     0
144
0.0208333333333333
144
0.0
144
0.0
144
0.0
144
0.0
144
0.0208333333333333
144
0.0
144
0.0
144
0.0
144
0.0
144
1.0
144
0.0
144
0.0
144
0.0
144
0.0
144
1.0
147
0.0208333333333333
147
0.0
147
0.0
147
0.0
147
0.0
147
0.0208333333333333
147
0.0
147
0.0
147
0.0
147
0.0
147
1.0
147
0.0
147
0.0
147
0.0
147
0.0
147
1.0
  0
MATERIAL
  5
11
102
{ACAD_XDICTIONARY
360
12
102
}
102
{ACAD_REACTORS
330
10
102
}
330
10
100
AcDbMaterial
  1
ByLayer
 72
     0
 43
0.0208333333333333
 43
0.0
 43
0.0
 43
0.0
 43
0.0
 43
0.0208333333333333
 43
0.0
 43
0.0
 43
0.0
 43
0.0
 43
1.0
 43
0.0
 43
0.0
 43
0.0
 43
0.0
 43
1.0
 77
     0
 47
0.0208333333333333
 47
0.0
 47
0.0
 47
0.0
 47
0.0
 47
0.0208333333333333
 47
0.0
 47
0.0
 47
0.0
 47
0.0
 47
1.0
 47
0.0
 47
0.0
 47
0.0
 47
0.0
 47
1.0
171
     0
 49
0.0208333333333333
 49
0.0
 49
0.0
 49
0.0
 49
0.0
 49
0.0208333333333333
 49
0.0
 49
0.0
 49
0.0
 49
0.0
 49
1.0
 49
0.0
 49
0.0
 49
0.0
 49
0.0
 49
1.0
175
     0
142
0.0208333333333333
142
0.0
142
0.0
142
0.0
142
0.0
142
0.0208333333333333
142
0.0
142
0.0
142
0.0
142
0.0
142
1.0
142
0.0
142
0.0
142
0.0
142
0.0
142
1.0
179
     0
144
0.0208333333333333
144
0.0
144
0.0
144
0.0
144
0.0
144
0.0208333333333333
144
0.0
144
0.0
144
0.0
144
0.0
144
1.0
144
0.0
144
0.0
144
0.0
144
0.0
144
1.0
147
0.0208333333333333
147
0.0
147
0.0
147
0.0
147
0.0
147
0.0208333333333333
147
0.0
147
0.0
147
0.0
147
0.0
147
1.0
147
0.0
147
0.0
147
0.0
147
0.0
147
1.0
  0
MATERIAL
  5
21
102
{ACAD_XDICTIONARY
360
22
102
}
102
{ACAD_REACTORS
330
10
102
}
330
10
100
AcDbMaterial
  1
Global
 72
     0
 43
0.0208333333333333
 43
0.0
 43
0.0
 43
0.0
 43
0.0
 43
0.0208333333333333
 43
0.0
 43
0.0
 43
0.0
 43
0.0
 43
1.0
 43
0.0
 43
0.0
 43
0.0
 43
0.0
 43
1.0
 77
     0
 47
0.0208333333333333
 47
0.0
 47
0.0
 47
0.0
 47
0.0
 47
0.0208333333333333
 47
0.0
 47
0.0
 47
0.0
 47
0.0
 47
1.0
 47
0.0
 47
0.0
 47
0.0
 47
0.0
 47
1.0
171
     0
 49
0.0208333333333333
 49
0.0
 49
0.0
 49
0.0
 49
0.0
 49
0.0208333333333333
 49
0.0
 49
0.0
 49
0.0
 49
0.0
 49
1.0
 49
0.0
 49
0.0
 49
0.0
 49
0.0
 49
1.0
175
     0
142
0.0208333333333333
142
0.0
142
0.0
142
0.0
142
0.0
142
0.0208333333333333
142
0.0
142
0.0
142
0.0
142
0.0
142
1.0
142
0.0
142
0.0
142
0.0
142
0.0
142
1.0
179
     0
144
0.0208333333333333
144
0.0
144
0.0
144
0.0
144
0.0
144
0.0208333333333333
144
0.0
144
0.0
144
0.0
144
0.0
144
1.0
144
0.0
144
0.0
144
0.0
144
0.0
144
1.0
147
0.0208333333333333
147
0.0
147
0.0
147
0.0
147
0.0
147
0.0208333333333333
147
0.0
147
0.0
147
0.0
147
0.0
147
1.0
147
0.0
147
0.0
147
0.0
147
0.0
147
1.0
  0
MLEADERSTYLE
  5
67
102
{ACAD_REACTORS
330
66
102
}
330
66
100
AcDbMLeaderStyle
179
     2
170
     2
171
     1
172
     0
 90
        2
 40
0.0
 41
0.0
173
     1
 91
-1056964608
340
5B
 92
       -2
290
     1
 42
0.09
291
     1
 43
0.36
  3
Standard
 44
0.18
300

342
55
174
     1
178
     6
175
     1
176
     0
 93
-1056964608
 45
0.18
292
     0
297
     0
 46
0.18
 94
-1056964608
 47
1.0
 49
1.0
140
1.0
293
     1
141
0.0
294
     1
177
     0
142
1.0
295
     1
296
     0
143
0.125
271
     0
272
     9
273
     9
298
     1
  0
MLINESTYLE
  5
60
102
{ACAD_REACTORS
330
5F
102
}
330
5F
100
AcDbMlineStyle
  2
STANDARD
 70
     0
  3

 62
   256
 51
90.0
 52
90.0
 71
     2
 49
0.5
 62
   256
  6
BYLAYER
 49
-0.5
 62
   256
  6
BYLAYER
  0
ACDBPLACEHOLDER
  5
F
102
{ACAD_REACTORS
330
E
102
}
330
E
  0
SCALE
  5
43
102
{ACAD_REACTORS
330
42
102
}
330
42
100
AcDbScale
 70
     0
300
1:1
140
1.0
141
1.0
290
     1
  0
SCALE
  5
44
102
{ACAD_REACTORS
330
42
102
}
330
42
100
AcDbScale
 70
     0
300
1/128" = 1'-0"
140
0.0078125
141
12.0
290
     0
  0
SCALE
  5
45
102
{ACAD_REACTORS
330
42
102
}
330
42
100
AcDbScale
 70
     0
300
1/64" = 1'-0"
140
0.015625
141
12.0
290
     0
  0
SCALE
  5
46
102
{ACAD_REACTORS
330
42
102
}
330
42
100
AcDbScale
 70
     0
300
1/32" = 1'-0"
140
0.03125
141
12.0
290
     0
  0
SCALE
  5
47
102
{ACAD_REACTORS
330
42
102
}
330
42
100
AcDbScale
 70
     0
300
1/16" = 1'-0"
140
0.0625
141
12.0
290
     0
  0
SCALE
  5
48
102
{ACAD_REACTORS
330
42
102
}
330
42
100
AcDbScale
 70
     0
300
3/32" = 1'-0"
140
0.09375
141
12.0
290
     0
  0
SCALE
  5
49
102
{ACAD_REACTORS
330
42
102
}
330
42
100
AcDbScale
 70
     0
300
1/8" = 1'-0"
140
0.125
141
12.0
290
     0
  0
SCALE
  5
4A
102
{ACAD_REACTORS
330
42
102
}
330
42
100
AcDbScale
 70
     0
300
3/16" = 1'-0"
140
0.1875
141
12.0
290
     0
  0
SCALE
  5
4B
102
{ACAD_REACTORS
330
42
102
}
330
42
100
AcDbScale
 70
     0
300
1/4" = 1'-0"
140
0.25
141
12.0
290
     0
  0
SCALE
  5
4C
102
{ACAD_REACTORS
330
42
102
}
330
42
100
AcDbScale
 70
     0
300
3/8" = 1'-0"
140
0.375
141
12.0
290
     0
  0
SCALE
  5
4D
102
{ACAD_REACTORS
330
42
102
}
330
42
100
AcDbScale
 70
     0
300
1/2" = 1'-0"
140
0.5
141
12.0
290
     0
  0
SCALE
  5
4E
102
{ACAD_REACTORS
330
42
102
}
330
42
100
AcDbScale
 70
     0
300
3/4" = 1'-0"
140
0.75
141
12.0
290
     0
  0
SCALE
  5
4F
102
{ACAD_REACTORS
330
42
102
}
330
42
100
AcDbScale
 70
     0
300
1" = 1'-0"
140
1.0
141
12.0
290
     0
  0
SCALE
  5
50
102
{ACAD_REACTORS
330
42
102
}
330
42
100
AcDbScale
 70
     0
300
1-1/2" = 1'-0"
140
1.5
141
12.0
290
     0
  0
SCALE
  5
51
102
{ACAD_REACTORS
330
42
102
}
330
42
100
AcDbScale
 70
     0
300
3" = 1'-0"
140
3.0
141
12.0
290
     0
  0
SCALE
  5
52
102
{ACAD_REACTORS
330
42
102
}
330
42
100
AcDbScale
 70
     0
300
6" = 1'-0"
140
6.0
141
12.0
290
     0
  0
SCALE
  5
53
102
{ACAD_REACTORS
330
42
102
}
330
42
100
AcDbScale
 70
     0
300
1'-0" = 1'-0"
140
12.0
141
12.0
290
     0
  0
ACDBSECTIONVIEWSTYLE
  5
69
102
{ACAD_REACTORS
330
68
102
}
330
68
100
AcDbModelDocViewStyle
 70
     0
  3
Imperial24
290
     1
300
Imperial24
 90
        0
100
AcDbSectionViewStyle
 70
     0
 71
     0
 90
       78
 71
     1
340
55
 62
   256
 40
0.24
340
0
340
0
 62
   256
 40
0.24
300
I, O, Q, S, X, Z
 40
0.48
 90
        3
 40
0.18
 90
        1
 71
     2
340
5D
 90
       25
 62
   256
340
5D
 90
       50
 62
   256
 40
0.24
 40
0.0
 40
0.24
 71
     3
340
55
 62
   256
 40
0.24
 90
        1
 40
0.75
 90
        1
300
%<\AcVar ViewType \f "%tc1">% %<\AcVar ViewSectionStartId>%-%<\AcVar ViewSectionEndId>%\PSCALE %<\AcVar ViewScale \f "%sn">%
 71
     4
 62
   256
 62
   257
300
ANSI31
 40
1.0
 90
        0
290
     0
290
     0
 90
        6
 40
0.0
 40
1.570796326794896
 40
0.2617993877991494
 40
1.308996938995747
 40
-0.2617993877991494
 40
1.832595714594046
  0
TABLESTYLE
  5
65
102
{ACAD_XDICTIONARY
360
DB
102
}
102
{ACAD_REACTORS
330
64
102
}
330
64
100
AcDbTableStyle
280
     0
  3
Standard
 70
     0
 71
     0
 40
0.06
 41
0.06
280
     0
281
     0
  7
Standard
140
0.18
170
     2
 62
     0
 63
     7
283
     0
 90
      512
 91
        0
  1

274
    -2
284
     1
 64
     0
275
    -2
285
     1
 65
     0
276
    -2
286
     1
 66
     0
277
    -2
287
     1
 67
     0
278
    -2
288
     1
 68
     0
279
    -2
289
     1
 69
     0
  7
Standard
140
0.25
170
     5
 62
     0
 63
     7
283
     0
 90
      512
 91
        0
  1

274
    -2
284
     1
 64
     0
275
    -2
285
     1
 65
     0
276
    -2
286
     1
 66
     0
277
    -2
287
     1
 67
     0
278
    -2
288
     1
 68
     0
279
    -2
289
     1
 69
     0
  7
Standard
140
0.18
170
     5
 62
     0
 63
     7
283
     0
 90
      512
 91
        0
  1

274
    -2
284
     1
 64
     0
275
    -2
285
     1
 65
     0
276
    -2
286
     1
 66
     0
277
    -2
287
     1
 67
     0
278
    -2
288
     1
 68
     0
279
    -2
289
     1
 69
     0
  0
VISUALSTYLE
  5
2F
102
{ACAD_REACTORS
330
29
102
}
330
29
100
AcDbVisualStyle
  2
2dWireframe
 70
     4
177
     3
291
     0
 70
    58
 90
        0
176
     1
 90
        2
176
     1
 90
        0
176
     1
 90
        0
176
     1
 40
0.6
176
     1
 40
30.0
176
     1
 62
     7
420
 16777215
176
     1
 90
        1
176
     1
 90
        4
176
     1
 62
     7
176
     1
 62
   257
176
     1
 90
        1
176
     1
 90
        1
176
     1
 40
1.0
176
     1
 90
        0
176
     1
 62
   257
176
     1
 40
1.0
176
     1
 90
        1
176
     1
 90
        6
176
     1
 90
        2
176
     1
 62
     7
176
     1
 90
        5
176
     1
 90
        0
176
     1
 90
        0
176
     1
290
     0
176
     1
 90
        1
176
     1
 40
0.0
176
     1
 90
        0
176
     1
290
     1
176
     1
290
     1
176
     1
290
     0
176
     1
290
     0
176
     1
290
     0
176
     1
290
     0
176
     1
290
     0
176
     1
290
     0
176
     1
290
     0
176
     1
 90
       50
176
     1
 40
0.0
176
     1
 40
1.0
176
     1
 90
        0
176
     1
 62
    18
420
        0
176
     1
 90
       50
176
     1
 90
        3
176
     1
 62
     5
420
      255
176
     1
290
     0
176
     1
 90
       50
176
     1
 90
       50
176
     1
 90
       50
176
     1
290
     0
176
     1
 90
       50
176
     1
 62
   256
176
     0
 40
1.0
176
     0
 90
        2
176
     1
  1
strokes_ogs.tif
176
     1
290
     0
176
     1
 40
1.0
176
     1
 40
1.0
176
     1
  0
VISUALSTYLE
  5
2E
102
{ACAD_REACTORS
330
29
102
}
330
29
100
AcDbVisualStyle
  2
Basic
 70
     7
177
     3
291
     1
 70
    58
 90
        1
176
     1
 90
        0
176
     1
 90
        1
176
     1
 90
        0
176
     1
 40
0.6
176
     1
 40
30.0
176
     1
 62
     7
420
 16777215
176
     1
 90
        0
176
     1
 90
        4
176
     1
 62
     7
176
     1
 62
   257
176
     1
 90
        1
176
     1
 90
        1
176
     1
 40
1.0
176
     1
 90
        8
176
     1
 62
     7
176
     1
 40
1.0
176
     1
 90
        1
176
     1
 90
        6
176
     1
 90
        2
176
     1
 62
     7
176
     1
 90
        5
176
     1
 90
        0
176
     1
 90
        0
176
     1
290
     0
176
     1
 90
        1
176
     1
 40
0.0
176
     1
 90
        0
176
     1
290
     0
176
     1
290
     1
176
     1
290
     1
176
     1
290
     0
176
     1
290
     0
176
     1
290
     0
176
     1
290
     0
176
     1
290
     0
176
     1
290
     0
176
     1
 90
       50
176
     1
 40
0.0
176
     1
 40
1.0
176
     1
 90
        0
176
     1
 62
    18
420
        0
176
     1
 90
       50
176
     1
 90
        3
176
     1
 62
     5
420
      255
176
     1
290
     0
176
     1
 90
       50
176
     1
 90
       50
176
     1
 90
       50
176
     1
290
     0
176
     1
 90
       50
176
     1
 62
   256
176
     0
 40
1.0
176
     0
 90
        2
176
     1
  1
strokes_ogs.tif
176
     1
290
     0
176
     1
 40
1.0
176
     1
 40
1.0
176
     1
  0
VISUALSTYLE
  5
35
102
{ACAD_REACTORS
330
29
102
}
330
29
100
AcDbVisualStyle
  2
Brighten
 70
    12
177
     3
291
     1
 70
    58
 90
        2
176
     1
 90
        2
176
     1
 90
        0
176
     1
 90
        0
176
     1
 40
0.6
176
     1
 40
30.0
176
     1
 62
     7
420
 16777215
176
     1
 90
        1
176
     1
 90
        4
176
     1
 62
     7
176
     1
 62
   257
176
     1
 90
        1
176
     1
 90
        1
176
     1
 40
1.0
176
     1
 90
        8
176
     1
 62
     7
176
     1
 40
1.0
176
     1
 90
        1
176
     1
 90
        6
176
     1
 90
        2
176
     1
 62
     7
176
     1
 90
        5
176
     1
 90
        0
176
     1
 90
        0
176
     1
290
     0
176
     1
 90
        1
176
     1
 40
50.0
176
     1
 90
        0
176
     1
290
     0
176
     1
290
     1
176
     1
290
     1
176
     1
290
     0
176
     1
290
     0
176
     1
290
     0
176
     1
290
     0
176
     1
290
     0
176
     1
290
     0
176
     1
 90
       50
176
     1
 40
0.0
176
     1
 40
1.0
176
     1
 90
        0
176
     1
 62
    18
420
        0
176
     1
 90
       50
176
     1
 90
        3
176
     1
 62
     5
420
      255
176
     1
290
     0
176
     1
 90
       50
176
     1
 90
       50
176
     1
 90
       50
176
     1
290
     0
176
     1
 90
       50
176
     1
 62
   256
176
     0
 40
1.0
176
     0
 90
        2
176
     1
  1
strokes_ogs.tif
176
     1
290
     0
176
     1
 40
1.0
176
     1
 40
1.0
176
     1
  0
VISUALSTYLE
  5
39
102
{ACAD_REACTORS
330
29
102
}
330
29
100
AcDbVisualStyle
  2
ColorChange
 70
    16
177
     3
291
     1
 70
    58
 90
        2
176
     1
 90
        2
176
     1
 90
        3
176
     1
 90
        0
176
     1
 40
0.6
176
     1
 40
30.0
176
     1
 62
     8
420
  8421504
176
     1
 90
        1
176
     1
 90
        4
176
     1
 62
     7
176
     1
 62
   257
176
     1
 90
        1
176
     1
 90
        1
176
     1
 40
1.0
176
     1
 90
        8
176
     1
 62
     8
420
  8421504
176
     1
 40
1.0
176
     1
 90
        1
176
     1
 90
        6
176
     1
 90
        2
176
     1
 62
     7
176
     1
 90
        5
176
     1
 90
        0
176
     1
 90
        0
176
     1
290
     0
176
     1
 90
        1
176
     1
 40
0.0
176
     1
 90
        0
176
     1
290
     0
176
     1
290
     1
176
     1
290
     1
176
     1
290
     0
176
     1
290
     0
176
     1
290
     0
176
     1
290
     0
176
     1
290
     0
176
     1
290
     0
176
     1
 90
       50
176
     1
 40
0.0
176
     1
 40
1.0
176
     1
 90
        0
176
     1
 62
    18
420
        0
176
     1
 90
       50
176
     1
 90
        3
176
     1
 62
     5
420
      255
176
     1
290
     0
176
     1
 90
       50
176
     1
 90
       50
176
     1
 90
       50
176
     1
290
     0
176
     1
 90
       50
176
     1
 62
   256
176
     0
 40
1.0
176
     0
 90
        2
176
     1
  1
strokes_ogs.tif
176
     1
290
     0
176
     1
 40
1.0
176
     1
 40
1.0
176
     1
  0
VISUALSTYLE
  5
32
102
{ACAD_REACTORS
330
29
102
}
330
29
100
AcDbVisualStyle
  2
Conceptual
 70
     9
177
     3
291
     0
 70
    58
 90
        3
176
     1
 90
        2
176
     1
 90
        0
176
     1
 90
        0
176
     1
 40
0.6
176
     1
 40
30.0
176
     1
 62
     7
420
 16777215
176
     1
 90
        2
176
     1
 90
        2
176
     1
 62
     7
176
     1
 62
   257
176
     1
 90
        1
176
     1
 90
        1
176
     1
 40
179.0
176
     1
 90
        8
176
     1
 62
     7
176
     1
 40
1.0
176
     1
 90
        1
176
     1
 90
        6
176
     1
 90
        2
176
     1
 62
     7
176
     1
 90
        3
176
     1
 90
        0
176
     1
 90
        0
176
     1
290
     0
176
     1
 90
        1
176
     1
 40
0.0
176
     1
 90
        0
176
     1
290
     0
176
     1
290
     1
176
     1
290
     1
176
     1
290
     0
176
     1
290
     0
176
     1
290
     0
176
     1
290
     0
176
     1
290
     0
176
     1
290
     0
176
     1
 90
       50
176
     1
 40
0.0
176
     1
 40
1.0
176
     1
 90
        0
176
     1
 62
    18
420
        0
176
     1
 90
       50
176
     1
 90
        3
176
     1
 62
     5
420
      255
176
     1
290
     0
176
     1
 90
       50
176
     1
 90
       50
176
     1
 90
       50
176
     1
290
     0
176
     1
 90
       50
176
     1
 62
   256
176
     0
 40
1.0
176
     0
 90
        2
176
     1
  1
strokes_ogs.tif
176
     1
290
     0
176
     1
 40
1.0
176
     1
 40
1.0
176
     1
  0
VISUALSTYLE
  5
34
102
{ACAD_REACTORS
330
29
102
}
330
29
100
AcDbVisualStyle
  2
Dim
 70
    11
177
     3
291
     1
 70
    58
 90
        2
176
     1
 90
        2
176
     1
 90
        0
176
     1
 90
        0
176
     1
 40
0.6
176
     1
 40
30.0
176
     1
 62
     7
420
 16777215
176
     1
 90
        1
176
     1
 90
        4
176
     1
 62
     7
176
     1
 62
   257
176
     1
 90
        1
176
     1
 90
        1
176
     1
 40
1.0
176
     1
 90
        8
176
     1
 62
     7
176
     1
 40
1.0
176
     1
 90
        1
176
     1
 90
        6
176
     1
 90
        2
176
     1
 62
     7
176
     1
 90
        5
176
     1
 90
        0
176
     1
 90
        0
176
     1
290
     0
176
     1
 90
        1
176
     1
 40
-50.0
176
     1
 90
        0
176
     1
290
     0
176
     1
290
     1
176
     1
290
     1
176
     1
290
     0
176
     1
290
     0
176
     1
290
     0
176
     1
290
     0
176
     1
290
     0
176
     1
290
     0
176
     1
 90
       50
176
     1
 40
0.0
176
     1
 40
1.0
176
     1
 90
        0
176
     1
 62
    18
420
        0
176
     1
 90
       50
176
     1
 90
        3
176
     1
 62
     5
420
      255
176
     1
290
     0
176
     1
 90
       50
176
     1
 90
       50
176
     1
 90
       50
176
     1
290
     0
176
     1
 90
       50
176
     1
 62
   256
176
     0
 40
1.0
176
     0
 90
        2
176
     1
  1
strokes_ogs.tif
176
     1
290
     0
176
     1
 40
1.0
176
     1
 40
1.0
176
     1
  0
VISUALSTYLE
  5
41
102
{ACAD_REACTORS
330
29
102
}
330
29
100
AcDbVisualStyle
  2
EdgeColorOff
 70
    22
177
     3
291
     1
 70
    58
 90
        2
176
     0
 90
        2
176
     0
 90
        0
176
     0
 90
        0
176
     0
 40
0.6
176
     0
 40
30.0
176
     0
 62
     7
420
 16777215
176
     0
 90
        1
176
     0
 90
        4
176
     0
 62
     7
176
     0
 62
   257
176
     0
 90
        1
176
     0
 90
        1
176
     0
 40
1.0
176
     0
 90
        8
176
     2
 62
     7
176
     0
 40
1.0
176
     0
 90
        1
176
     0
 90
        6
176
     0
 90
        2
176
     0
 62
     7
176
     0
 90
        5
176
     0
 90
        0
176
     0
 90
        0
176
     0
290
     0
176
     0
 90
        1
176
     0
 40
0.0
176
     0
 90
        0
176
     0
290
     0
176
     0
290
     1
176
     0
290
     1
176
     0
290
     0
176
     0
290
     0
176
     0
290
     0
176
     0
290
     0
176
     0
290
     0
176
     0
290
     0
176
     0
 90
       50
176
     0
 40
0.0
176
     0
 40
1.0
176
     0
 90
        0
176
     0
 62
    18
420
        0
176
     0
 90
       50
176
     0
 90
        3
176
     0
 62
     5
420
      255
176
     0
290
     0
176
     0
 90
       50
176
     0
 90
       50
176
     0
 90
       50
176
     0
290
     0
176
     0
 90
       50
176
     0
 62
   256
176
     0
 40
1.0
176
     0
 90
        2
176
     0
  1
strokes_ogs.tif
176
     0
290
     0
176
     0
 40
1.0
176
     0
 40
1.0
176
     0
  0
VISUALSTYLE
  5
38
102
{ACAD_REACTORS
330
29
102
}
330
29
100
AcDbVisualStyle
  2
Facepattern
 70
    15
177
     3
291
     1
 70
    58
 90
        2
176
     1
 90
        2
176
     1
 90
        0
176
     1
 90
        0
176
     1
 40
0.6
176
     1
 40
30.0
176
     1
 62
     7
420
 16777215
176
     1
 90
        1
176
     1
 90
        4
176
     1
 62
     7
176
     1
 62
   257
176
     1
 90
        1
176
     1
 90
        1
176
     1
 40
1.0
176
     1
 90
        8
176
     1
 62
     7
176
     1
 40
1.0
176
     1
 90
        1
176
     1
 90
        6
176
     1
 90
        2
176
     1
 62
     7
176
     1
 90
        5
176
     1
 90
        0
176
     1
 90
        0
176
     1
290
     0
176
     1
 90
        1
176
     1
 40
0.0
176
     1
 90
        0
176
     1
290
     0
176
     1
290
     1
176
     1
290
     1
176
     1
290
     0
176
     1
290
     0
176
     1
290
     0
176
     1
290
     0
176
     1
290
     0
176
     1
290
     0
176
     1
 90
       50
176
     1
 40
0.0
176
     1
 40
1.0
176
     1
 90
        0
176
     1
 62
    18
420
        0
176
     1
 90
       50
176
     1
 90
        3
176
     1
 62
     5
420
      255
176
     1
290
     0
176
     1
 90
       50
176
     1
 90
       50
176
     1
 90
       50
176
     1
290
     0
176
     1
 90
       50
176
     1
 62
   256
176
     0
 40
1.0
176
     0
 90
        2
176
     1
  1
strokes_ogs.tif
176
     1
290
     0
176
     1
 40
1.0
176
     1
 40
1.0
176
     1
  0
VISUALSTYLE
  5
2A
102
{ACAD_REACTORS
330
29
102
}
330
29
100
AcDbVisualStyle
  2
Flat
 70
     0
177
     3
291
     1
 70
    58
 90
        2
176
     1
 90
        1
176
     1
 90
        1
176
     1
 90
        2
176
     1
 40
0.6
176
     1
 40
30.0
176
     1
 62
     7
420
 16777215
176
     1
 90
        0
176
     1
 90
        0
176
     1
 62
     7
176
     1
 62
   257
176
     1
 90
        1
176
     1
 90
        1
176
     1
 40
1.0
176
     1
 90
        8
176
     1
 62
     7
176
     1
 40
1.0
176
     1
 90
        1
176
     1
 90
        6
176
     1
 90
        2
176
     1
 62
     7
176
     1
 90
        5
176
     1
 90
        0
176
     1
 90
        0
176
     1
290
     0
176
     1
 90
       13
176
     1
 40
0.0
176
     1
 90
        0
176
     1
290
     0
176
     1
290
     1
176
     1
290
     1
176
     1
290
     0
176
     1
290
     0
176
     1
290
     0
176
     1
290
     0
176
     1
290
     0
176
     1
290
     0
176
     1
 90
       50
176
     1
 40
0.0
176
     1
 40
1.0
176
     1
 90
        0
176
     1
 62
    18
420
        0
176
     1
 90
       50
176
     1
 90
        3
176
     1
 62
     5
420
      255
176
     1
290
     0
176
     1
 90
       50
176
     1
 90
       50
176
     1
 90
       50
176
     1
290
     0
176
     1
 90
       50
176
     1
 62
   256
176
     0
 40
1.0
176
     0
 90
        2
176
     1
  1
strokes_ogs.tif
176
     1
290
     0
176
     1
 40
1.0
176
     1
 40
1.0
176
     1
  0
VISUALSTYLE
  5
2B
102
{ACAD_REACTORS
330
29
102
}
330
29
100
AcDbVisualStyle
  2
FlatWithEdges
 70
     1
177
     3
291
     1
 70
    58
 90
        2
176
     1
 90
        1
176
     1
 90
        1
176
     1
 90
        2
176
     1
 40
0.6
176
     1
 40
30.0
176
     1
 62
     7
420
 16777215
176
     1
 90
        1
176
     1
 90
        0
176
     1
 62
     7
176
     1
 62
   257
176
     1
 90
        1
176
     1
 90
        1
176
     1
 40
1.0
176
     1
 90
        0
176
     1
 62
   257
176
     1
 40
1.0
176
     1
 90
        1
176
     1
 90
        6
176
     1
 90
        2
176
     1
 62
     7
176
     1
 90
        5
176
     1
 90
        0
176
     1
 90
        0
176
     1
290
     0
176
     1
 90
       13
176
     1
 40
0.0
176
     1
 90
        0
176
     1
290
     0
176
     1
290
     1
176
     1
290
     1
176
     1
290
     0
176
     1
290
     0
176
     1
290
     0
176
     1
290
     0
176
     1
290
     0
176
     1
290
     0
176
     1
 90
       50
176
     1
 40
0.0
176
     1
 40
1.0
176
     1
 90
        0
176
     1
 62
    18
420
        0
176
     1
 90
       50
176
     1
 90
        3
176
     1
 62
     5
420
      255
176
     1
290
     0
176
     1
 90
       50
176
     1
 90
       50
176
     1
 90
       50
176
     1
290
     0
176
     1
 90
       50
176
     1
 62
   256
176
     0
 40
1.0
176
     0
 90
        2
176
     1
  1
strokes_ogs.tif
176
     1
290
     0
176
     1
 40
1.0
176
     1
 40
1.0
176
     1
  0
VISUALSTYLE
  5
2C
102
{ACAD_REACTORS
330
29
102
}
330
29
100
AcDbVisualStyle
  2
Gouraud
 70
     2
177
     3
291
     1
 70
    58
 90
        2
176
     1
 90
        2
176
     1
 90
        1
176
     1
 90
        2
176
     1
 40
0.6
176
     1
 40
30.0
176
     1
 62
     7
420
 16777215
176
     1
 90
        0
176
     1
 90
        0
176
     1
 62
     7
176
     1
 62
   257
176
     1
 90
        1
176
     1
 90
        1
176
     1
 40
1.0
176
     1
 90
        0
176
     1
 62
     7
176
     1
 40
1.0
176
     1
 90
        1
176
     1
 90
        6
176
     1
 90
        2
176
     1
 62
     7
176
     1
 90
        5
176
     1
 90
        0
176
     1
 90
        0
176
     1
290
     0
176
     1
 90
       13
176
     1
 40
0.0
176
     1
 90
        0
176
     1
290
     0
176
     1
290
     1
176
     1
290
     1
176
     1
290
     0
176
     1
290
     0
176
     1
290
     0
176
     1
290
     0
176
     1
290
     0
176
     1
290
     0
176
     1
 90
       50
176
     1
 40
0.0
176
     1
 40
1.0
176
     1
 90
        0
176
     1
 62
    18
420
        0
176
     1
 90
       50
176
     1
 90
        3
176
     1
 62
     5
420
      255
176
     1
290
     0
176
     1
 90
       50
176
     1
 90
       50
176
     1
 90
       50
176
     1
290
     0
176
     1
 90
       50
176
     1
 62
   256
176
     0
 40
1.0
176
     0
 90
        2
176
     1
  1
strokes_ogs.tif
176
     1
290
     0
176
     1
 40
1.0
176
     1
 40
1.0
176
     1
  0
VISUALSTYLE
  5
2D
102
{ACAD_REACTORS
330
29
102
}
330
29
100
AcDbVisualStyle
  2
GouraudWithEdges
 70
     3
177
     3
291
     1
 70
    58
 90
        2
176
     1
 90
        2
176
     1
 90
        1
176
     1
 90
        2
176
     1
 40
0.6
176
     1
 40
30.0
176
     1
 62
     7
420
 16777215
176
     1
 90
        1
176
     1
 90
        0
176
     1
 62
     7
176
     1
 62
   257
176
     1
 90
        1
176
     1
 90
        1
176
     1
 40
1.0
176
     1
 90
        0
176
     1
 62
   257
176
     1
 40
1.0
176
     1
 90
        1
176
     1
 90
        6
176
     1
 90
        2
176
     1
 62
     7
176
     1
 90
        5
176
     1
 90
        0
176
     1
 90
        0
176
     1
290
     0
176
     1
 90
       13
176
     1
 40
0.0
176
     1
 90
        0
176
     1
290
     0
176
     1
290
     1
176
     1
290
     1
176
     1
290
     0
176
     1
290
     0
176
     1
290
     0
176
     1
290
     0
176
     1
290
     0
176
     1
290
     0
176
     1
 90
       50
176
     1
 40
0.0
176
     1
 40
1.0
176
     1
 90
        0
176
     1
 62
    18
420
        0
176
     1
 90
       50
176
     1
 90
        3
176
     1
 62
     5
420
      255
176
     1
290
     0
176
     1
 90
       50
176
     1
 90
       50
176
     1
 90
       50
176
     1
290
     0
176
     1
 90
       50
176
     1
 62
   256
176
     0
 40
1.0
176
     0
 90
        2
176
     1
  1
strokes_ogs.tif
176
     1
290
     0
176
     1
 40
1.0
176
     1
 40
1.0
176
     1
  0
VISUALSTYLE
  5
31
102
{ACAD_REACTORS
330
29
102
}
330
29
100
AcDbVisualStyle
  2
Hidden
 70
     6
177
     3
291
     0
 70
    58
 90
        1
176
     1
 90
        2
176
     1
 90
        2
176
     1
 90
        0
176
     1
 40
0.6
176
     1
 40
30.0
176
     1
 62
     7
420
 16777215
176
     1
 90
        2
176
     1
 90
        2
176
     1
 62
     7
176
     1
 62
   257
176
     1
 90
        2
176
     1
 90
        1
176
     1
 40
40.0
176
     1
 90
        0
176
     1
 62
   257
176
     1
 40
1.0
176
     1
 90
        1
176
     1
 90
        6
176
     1
 90
        2
176
     1
 62
     7
176
     1
 90
        3
176
     1
 90
        0
176
     1
 90
        0
176
     1
290
     0
176
     1
 90
        1
176
     1
 40
0.0
176
     1
 90
        0
176
     1
290
     0
176
     1
290
     1
176
     1
290
     1
176
     1
290
     0
176
     1
290
     0
176
     1
290
     0
176
     1
290
     0
176
     1
290
     0
176
     1
290
     0
176
     1
 90
       50
176
     1
 40
0.0
176
     1
 40
1.0
176
     1
 90
        0
176
     1
 62
    18
420
        0
176
     1
 90
       50
176
     1
 90
        3
176
     1
 62
     5
420
      255
176
     1
290
     0
176
     1
 90
       50
176
     1
 90
       50
176
     1
 90
       50
176
     1
290
     0
176
     1
 90
       50
176
     1
 62
   256
176
     0
 40
1.0
176
     0
 90
        2
176
     1
  1
strokes_ogs.tif
176
     1
290
     0
176
     1
 40
1.0
176
     1
 40
1.0
176
     1
  0
VISUALSTYLE
  5
3F
102
{ACAD_REACTORS
330
29
102
}
330
29
100
AcDbVisualStyle
  2
JitterOff
 70
    20
177
     3
291
     1
 70
    58
 90
        2
176
     0
 90
        2
176
     0
 90
        0
176
     0
 90
        0
176
     0
 40
0.6
176
     0
 40
30.0
176
     0
 62
     7
420
 16777215
176
     0
 90
        1
176
     0
 90
        4
176
     0
 62
     7
176
     0
 62
   257
176
     0
 90
        1
176
     0
 90
        1
176
     0
 40
1.0
176
     0
 90
       10
176
     2
 62
     7
176
     0
 40
1.0
176
     0
 90
        1
176
     0
 90
        6
176
     0
 90
        2
176
     0
 62
     7
176
     0
 90
        5
176
     0
 90
        0
176
     0
 90
        0
176
     0
290
     0
176
     0
 90
        1
176
     0
 40
0.0
176
     0
 90
        0
176
     0
290
     0
176
     0
290
     1
176
     0
290
     1
176
     0
290
     0
176
     0
290
     0
176
     0
290
     0
176
     0
290
     0
176
     0
290
     0
176
     0
290
     0
176
     0
 90
       50
176
     0
 40
0.0
176
     0
 40
1.0
176
     0
 90
        0
176
     0
 62
    18
420
        0
176
     0
 90
       50
176
     0
 90
        3
176
     0
 62
     5
420
      255
176
     0
290
     0
176
     0
 90
       50
176
     0
 90
       50
176
     0
 90
       50
176
     0
290
     0
176
     0
 90
       50
176
     0
 62
   256
176
     0
 40
1.0
176
     0
 90
        2
176
     0
  1
strokes_ogs.tif
176
     0
290
     0
176
     0
 40
1.0
176
     0
 40
1.0
176
     0
  0
VISUALSTYLE
  5
37
102
{ACAD_REACTORS
330
29
102
}
330
29
100
AcDbVisualStyle
  2
Linepattern
 70
    14
177
     3
291
     1
 70
    58
 90
        2
176
     1
 90
        2
176
     1
 90
        0
176
     1
 90
        0
176
     1
 40
0.6
176
     1
 40
30.0
176
     1
 62
     7
420
 16777215
176
     1
 90
        1
176
     1
 90
        4
176
     1
 62
     7
176
     1
 62
   257
176
     1
 90
        7
176
     1
 90
        7
176
     1
 40
1.0
176
     1
 90
        8
176
     1
 62
     7
176
     1
 40
1.0
176
     1
 90
        1
176
     1
 90
        6
176
     1
 90
        2
176
     1
 62
     7
176
     1
 90
        5
176
     1
 90
        0
176
     1
 90
        0
176
     1
290
     0
176
     1
 90
        1
176
     1
 40
0.0
176
     1
 90
        0
176
     1
290
     0
176
     1
290
     1
176
     1
290
     1
176
     1
290
     0
176
     1
290
     0
176
     1
290
     0
176
     1
290
     0
176
     1
290
     0
176
     1
290
     0
176
     1
 90
       50
176
     1
 40
0.0
176
     1
 40
1.0
176
     1
 90
        0
176
     1
 62
    18
420
        0
176
     1
 90
       50
176
     1
 90
        3
176
     1
 62
     5
420
      255
176
     1
290
     0
176
     1
 90
       50
176
     1
 90
       50
176
     1
 90
       50
176
     1
290
     0
176
     1
 90
       50
176
     1
 62
   256
176
     0
 40
1.0
176
     0
 90
        2
176
     1
  1
strokes_ogs.tif
176
     1
290
     0
176
     1
 40
1.0
176
     1
 40
1.0
176
     1
  0
VISUALSTYLE
  5
40
102
{ACAD_REACTORS
330
29
102
}
330
29
100
AcDbVisualStyle
  2
OverhangOff
 70
    21
177
     3
291
     1
 70
    58
 90
        2
176
     0
 90
        2
176
     0
 90
        0
176
     0
 90
        0
176
     0
 40
0.6
176
     0
 40
30.0
176
     0
 62
     7
420
 16777215
176
     0
 90
        1
176
     0
 90
        4
176
     0
 62
     7
176
     0
 62
   257
176
     0
 90
        1
176
     0
 90
        1
176
     0
 40
1.0
176
     0
 90
        9
176
     2
 62
     7
176
     0
 40
1.0
176
     0
 90
        1
176
     0
 90
        6
176
     0
 90
        2
176
     0
 62
     7
176
     0
 90
        5
176
     0
 90
        0
176
     0
 90
        0
176
     0
290
     0
176
     0
 90
        1
176
     0
 40
0.0
176
     0
 90
        0
176
     0
290
     0
176
     0
290
     1
176
     0
290
     1
176
     0
290
     0
176
     0
290
     0
176
     0
290
     0
176
     0
290
     0
176
     0
290
     0
176
     0
290
     0
176
     0
 90
       50
176
     0
 40
0.0
176
     0
 40
1.0
176
     0
 90
        0
176
     0
 62
    18
420
        0
176
     0
 90
       50
176
     0
 90
        3
176
     0
 62
     5
420
      255
176
     0
290
     0
176
     0
 90
       50
176
     0
 90
       50
176
     0
 90
       50
176
     0
290
     0
176
     0
 90
       50
176
     0
 62
   256
176
     0
 40
1.0
176
     0
 90
        2
176
     0
  1
strokes_ogs.tif
176
     0
290
     0
176
     0
 40
1.0
176
     0
 40
1.0
176
     0
  0
VISUALSTYLE
  5
33
102
{ACAD_REACTORS
330
29
102
}
330
29
100
AcDbVisualStyle
  2
Realistic
 70
     8
177
     3
291
     0
 70
    58
 90
        2
176
     1
 90
        3
176
     1
 90
        0
176
     1
 90
        2
176
     1
 40
0.6
176
     1
 40
30.0
176
     1
 62
     7
420
 16777215
176
     1
 90
        0
176
     1
 90
        0
176
     1
 62
     7
176
     1
 62
   257
176
     1
 90
        1
176
     1
 90
        1
176
     1
 40
1.0
176
     1
 90
        8
176
     1
 62
   257
176
     1
 40
1.0
176
     1
 90
        1
176
     1
 90
        6
176
     1
 90
        2
176
     1
 62
     7
176
     1
 90
        3
176
     1
 90
        0
176
     1
 90
        0
176
     1
290
     0
176
     1
 90
       13
176
     1
 40
0.0
176
     1
 90
        0
176
     1
290
     0
176
     1
290
     1
176
     1
290
     1
176
     1
290
     0
176
     1
290
     0
176
     1
290
     0
176
     1
290
     0
176
     1
290
     0
176
     1
290
     0
176
     1
 90
       50
176
     1
 40
0.0
176
     1
 40
1.0
176
     1
 90
        0
176
     1
 62
    18
420
        0
176
     1
 90
       50
176
     1
 90
        3
176
     1
 62
     5
420
      255
176
     1
290
     0
176
     1
 90
       50
176
     1
 90
       50
176
     1
 90
       50
176
     1
290
     0
176
     1
 90
       50
176
     1
 62
   256
176
     0
 40
1.0
176
     0
 90
        2
176
     1
  1
strokes_ogs.tif
176
     1
290
     0
176
     1
 40
1.0
176
     1
 40
1.0
176
     1
  0
VISUALSTYLE
  5
3E
102
{ACAD_REACTORS
330
29
102
}
330
29
100
AcDbVisualStyle
  2
Shaded
 70
    27
177
     3
291
     0
 70
    58
 90
        2
176
     1
 90
        2
176
     1
 90
        1
176
     1
 90
        2
176
     1
 40
0.6
176
     1
 40
30.0
176
     1
 62
     7
420
 16777215
176
     1
 90
        0
176
     1
 90
        4
176
     1
 62
     7
176
     1
 62
   257
176
     1
 90
        1
176
     1
 90
        1
176
     1
 40
1.0
176
     1
 90
        8
176
     1
 62
   257
176
     1
 40
1.0
176
     1
 90
        1
176
     1
 90
        6
176
     1
 90
        2
176
     1
 62
     8
420
  7895160
176
     1
 90
        3
176
     1
 90
        0
176
     1
 90
        0
176
     1
290
     0
176
     1
 90
        5
176
     1
 40
0.0
176
     1
 90
        0
176
     1
290
     0
176
     1
290
     1
176
     1
290
     1
176
     1
290
     0
176
     1
290
     0
176
     1
290
     0
176
     1
290
     0
176
     1
290
     0
176
     1
290
     0
176
     1
 90
       50
176
     1
 40
0.0
176
     1
 40
1.0
176
     1
 90
        0
176
     1
 62
    18
420
        0
176
     1
 90
       50
176
     1
 90
        3
176
     1
 62
     5
420
      255
176
     1
290
     0
176
     1
 90
       50
176
     1
 90
       50
176
     1
 90
       50
176
     1
290
     0
176
     1
 90
       50
176
     1
 62
   256
176
     0
 40
1.0
176
     0
 90
        2
176
     1
  1
strokes_ogs.tif
176
     1
290
     0
176
     1
 40
1.0
176
     1
 40
1.0
176
     1
  0
VISUALSTYLE
  5
3D
102
{ACAD_REACTORS
330
29
102
}
330
29
100
AcDbVisualStyle
  2
Shaded with edges
 70
    26
177
     3
291
     0
 70
    58
 90
        2
176
     1
 90
        2
176
     1
 90
        1
176
     1
 90
        2
176
     1
 40
0.6
176
     1
 40
30.0
176
     1
 62
     7
420
 16777215
176
     1
 90
        1
176
     1
 90
        2
176
     1
 62
     7
176
     1
 62
   257
176
     1
 90
        2
176
     1
 90
        1
176
     1
 40
1.0
176
     1
 90
        8
176
     1
 62
   257
176
     1
 40
1.0
176
     1
 90
        1
176
     1
 90
        6
176
     1
 90
        2
176
     1
 62
     7
176
     1
 90
        3
176
     1
 90
        0
176
     1
 90
        0
176
     1
290
     0
176
     1
 90
        5
176
     1
 40
0.0
176
     1
 90
        0
176
     1
290
     0
176
     1
290
     1
176
     1
290
     1
176
     1
290
     0
176
     1
290
     0
176
     1
290
     0
176
     1
290
     0
176
     1
290
     0
176
     1
290
     0
176
     1
 90
       50
176
     1
 40
0.0
176
     1
 40
1.0
176
     1
 90
        0
176
     1
 62
    18
420
        0
176
     1
 90
       50
176
     1
 90
        3
176
     1
 62
     5
420
      255
176
     1
290
     0
176
     1
 90
       50
176
     1
 90
       50
176
     1
 90
       50
176
     1
290
     0
176
     1
 90
       50
176
     1
 62
   256
176
     0
 40
1.0
176
     0
 90
        2
176
     1
  1
strokes_ogs.tif
176
     1
290
     0
176
     1
 40
1.0
176
     1
 40
1.0
176
     1
  0
VISUALSTYLE
  5
3A
102
{ACAD_REACTORS
330
29
102
}
330
29
100
AcDbVisualStyle
  2
Shades of Gray
 70
    23
177
     3
291
     0
 70
    58
 90
        2
176
     1
 90
        2
176
     1
 90
        3
176
     1
 90
        0
176
     1
 40
0.6
176
     1
 40
30.0
176
     1
 62
     7
420
 16777215
176
     1
 90
        2
176
     1
 90
        2
176
     1
 62
     7
176
     1
 62
     7
176
     1
 90
        1
176
     1
 90
        1
176
     1
 40
40.0
176
     1
 90
        8
176
     1
 62
     7
176
     1
 40
1.0
176
     1
 90
        1
176
     1
 90
        6
176
     1
 90
        2
176
     1
 62
     7
176
     1
 90
        3
176
     1
 90
        0
176
     1
 90
        0
176
     1
290
     0
176
     1
 90
        1
176
     1
 40
0.0
176
     1
 90
        0
176
     1
290
     0
176
     1
290
     1
176
     1
290
     1
176
     1
290
     0
176
     1
290
     0
176
     1
290
     0
176
     1
290
     0
176
     1
290
     0
176
     1
290
     0
176
     1
 90
       50
176
     1
 40
0.0
176
     1
 40
1.0
176
     1
 90
        0
176
     1
 62
    18
420
        0
176
     1
 90
       50
176
     1
 90
        3
176
     1
 62
     5
420
      255
176
     1
290
     0
176
     1
 90
       50
176
     1
 90
       50
176
     1
 90
       50
176
     1
290
     0
176
     1
 90
       50
176
     1
 62
   256
176
     0
 40
1.0
176
     0
 90
        2
176
     1
  1
strokes_ogs.tif
176
     1
290
     0
176
     1
 40
1.0
176
     1
 40
1.0
176
     1
  0
VISUALSTYLE
  5
3B
102
{ACAD_REACTORS
330
29
102
}
330
29
100
AcDbVisualStyle
  2
Sketchy
 70
    24
177
     3
291
     0
 70
    58
 90
        1
176
     1
 90
        2
176
     1
 90
        2
176
     1
 90
        0
176
     1
 40
0.6
176
     1
 40
30.0
176
     1
 62
     7
420
 16777215
176
     1
 90
        2
176
     1
 90
        2
176
     1
 62
     7
176
     1
 62
     7
176
     1
 90
        1
176
     1
 90
        1
176
     1
 40
40.0
176
     1
 90
       11
176
     1
 62
     7
176
     1
 40
1.0
176
     1
 90
        1
176
     1
 90
        6
176
     1
 90
        2
176
     1
 62
     7
176
     1
 90
        6
176
     1
 90
        0
176
     1
 90
        0
176
     1
290
     0
176
     1
 90
        1
176
     1
 40
0.0
176
     1
 90
        0
176
     1
290
     0
176
     1
290
     1
176
     1
290
     1
176
     1
290
     0
176
     1
290
     0
176
     1
290
     0
176
     1
290
     0
176
     1
290
     0
176
     1
290
     0
176
     1
 90
       50
176
     1
 40
0.0
176
     1
 40
1.0
176
     1
 90
        0
176
     1
 62
    18
420
        0
176
     1
 90
       50
176
     1
 90
        3
176
     1
 62
     5
420
      255
176
     1
290
     0
176
     1
 90
       50
176
     1
 90
       50
176
     1
 90
       50
176
     1
290
     0
176
     1
 90
       50
176
     1
 62
   256
176
     0
 40
1.0
176
     0
 90
        2
176
     1
  1
strokes_ogs.tif
176
     1
290
     0
176
     1
 40
1.0
176
     1
 40
1.0
176
     1
  0
VISUALSTYLE
  5
36
102
{ACAD_REACTORS
330
29
102
}
330
29
100
AcDbVisualStyle
  2
Thicken
 70
    13
177
     3
291
     1
 70
    58
 90
        2
176
     1
 90
        2
176
     1
 90
        0
176
     1
 90
        0
176
     1
 40
0.6
176
     1
 40
30.0
176
     1
 62
     7
420
 16777215
176
     1
 90
        1
176
     1
 90
        4
176
     1
 62
     7
176
     1
 62
   257
176
     1
 90
        1
176
     1
 90
        1
176
     1
 40
1.0
176
     1
 90
       12
176
     1
 62
     7
176
     1
 40
1.0
176
     1
 90
        1
176
     1
 90
        6
176
     1
 90
        2
176
     1
 62
     7
176
     1
 90
        5
176
     1
 90
        0
176
     1
 90
        0
176
     1
290
     0
176
     1
 90
        1
176
     1
 40
0.0
176
     1
 90
        0
176
     1
290
     0
176
     1
290
     1
176
     1
290
     1
176
     1
290
     0
176
     1
290
     0
176
     1
290
     0
176
     1
290
     0
176
     1
290
     0
176
     1
290
     0
176
     1
 90
       50
176
     1
 40
0.0
176
     1
 40
1.0
176
     1
 90
        0
176
     1
 62
    18
420
        0
176
     1
 90
       50
176
     1
 90
        3
176
     1
 62
     5
420
      255
176
     1
290
     0
176
     1
 90
       50
176
     1
 90
       50
176
     1
 90
       50
176
     1
290
     0
176
     1
 90
       50
176
     1
 62
   256
176
     0
 40
1.0
176
     0
 90
        2
176
     1
  1
strokes_ogs.tif
176
     1
290
     0
176
     1
 40
1.0
176
     1
 40
1.0
176
     1
  0
VISUALSTYLE
  5
30
102
{ACAD_REACTORS
330
29
102
}
330
29
100
AcDbVisualStyle
  2
Wireframe
 70
     5
177
     3
291
     0
 70
    58
 90
        0
176
     1
 90
        2
176
     1
 90
        0
176
     1
 90
        0
176
     1
 40
0.6
176
     1
 40
30.0
176
     1
 62
     7
420
 16777215
176
     1
 90
        1
176
     1
 90
        4
176
     1
 62
     7
176
     1
 62
   257
176
     1
 90
        1
176
     1
 90
        1
176
     1
 40
1.0
176
     1
 90
        0
176
     1
 62
   257
176
     1
 40
1.0
176
     1
 90
        1
176
     1
 90
        6
176
     1
 90
        2
176
     1
 62
     7
176
     1
 90
        3
176
     1
 90
        0
176
     1
 90
        0
176
     1
290
     0
176
     1
 90
        1
176
     1
 40
0.0
176
     1
 90
        0
176
     1
290
     0
176
     1
290
     1
176
     1
290
     1
176
     1
290
     0
176
     1
290
     0
176
     1
290
     0
176
     1
290
     0
176
     1
290
     0
176
     1
290
     0
176
     1
 90
       50
176
     1
 40
0.0
176
     1
 40
1.0
176
     1
 90
        0
176
     1
 62
    18
420
        0
176
     1
 90
       50
176
     1
 90
        3
176
     1
 62
     5
420
      255
176
     1
290
     0
176
     1
 90
       50
176
     1
 90
       50
176
     1
 90
       50
176
     1
290
     0
176
     1
 90
       50
176
     1
 62
   256
176
     0
 40
1.0
176
     0
 90
        2
176
     1
  1
strokes_ogs.tif
176
     1
290
     0
176
     1
 40
1.0
176
     1
 40
1.0
176
     1
  0
VISUALSTYLE
  5
3C
102
{ACAD_REACTORS
330
29
102
}
330
29
100
AcDbVisualStyle
  2
X-Ray
 70
    25
177
     3
291
     0
 70
    58
 90
        2
176
     1
 90
        2
176
     1
 90
        1
176
     1
 90
        1
176
     1
 40
0.5
176
     1
 40
30.0
176
     1
 62
     7
420
 16777215
176
     1
 90
        1
176
     1
 90
        0
176
     1
 62
     7
176
     1
 62
   257
176
     1
 90
        1
176
     1
 90
        1
176
     1
 40
1.0
176
     1
 90
        8
176
     1
 62
     7
176
     1
 40
1.0
176
     1
 90
        1
176
     1
 90
        6
176
     1
 90
        2
176
     1
 62
     7
176
     1
 90
        3
176
     1
 90
        0
176
     1
 90
        0
176
     1
290
     0
176
     1
 90
       13
176
     1
 40
0.0
176
     1
 90
        0
176
     1
290
     0
176
     1
290
     1
176
     1
290
     1
176
     1
290
     0
176
     1
290
     0
176
     1
290
     0
176
     1
290
     0
176
     1
290
     0
176
     1
290
     0
176
     1
 90
       50
176
     1
 40
0.0
176
     1
 40
1.0
176
     1
 90
        0
176
     1
 62
    18
420
        0
176
     1
 90
       50
176
     1
 90
        3
176
     1
 62
     5
420
      255
176
     1
290
     0
176
     1
 90
       50
176
     1
 90
       50
176
     1
 90
       50
176
     1
290
     0
176
     1
 90
       50
176
     1
 62
   256
176
     0
 40
1.0
176
     0
 90
        2
176
     1
  1
strokes_ogs.tif
176
     1
290
     0
176
     1
 40
1.0
176
     1
 40
1.0
176
     1
  0
DICTIONARYVAR
  5
DA
102
{ACAD_REACTORS
330
D5
102
}
330
D5
100
DictionaryVariables
280
     0
  1
1:1
  0
DICTIONARYVAR
  5
D7
102
{ACAD_REACTORS
330
D5
102
}
330
D5
100
DictionaryVariables
280
     0
  1
STANDARD
  0
DICTIONARYVAR
  5
D6
102
{ACAD_REACTORS
330
D5
102
}
330
D5
100
DictionaryVariables
280
     0
  1
STANDARD
  0
DICTIONARYVAR
  5
D8
102
{ACAD_REACTORS
330
D5
102
}
330
D5
100
DictionaryVariables
280
     0
  1
Imperial24
  0
DICTIONARYVAR
  5
D9
102
{ACAD_REACTORS
330
D5
102
}
330
D5
100
DictionaryVariables
280
     0
  1
Imperial24
  0
DICTIONARY
  5
1A
330
19
100
AcDbDictionary
280
     1
281
     1
  3
BUMPTILE
360
1C
  3
DIFFUSETILE
360
1B
  3
OPACITYTILE
360
1F
  3
REFLECTIONTILE
360
1E
  3
REFRACTIONTILE
360
20
  3
SPECULARTILE
360
1D
  0
DICTIONARY
  5
12
330
11
100
AcDbDictionary
280
     1
281
     1
  3
BUMPTILE
360
14
  3
DIFFUSETILE
360
13
  3
OPACITYTILE
360
17
  3
REFLECTIONTILE
360
16
  3
REFRACTIONTILE
360
18
  3
SPECULARTILE
360
15
  0
DICTIONARY
  5
22
330
21
100
AcDbDictionary
280
     1
281
     1
  3
BUMPTILE
360
24
  3
DIFFUSETILE
360
23
  3
OPACITYTILE
360
27
  3
REFLECTIONTILE
360
26
  3
REFRACTIONTILE
360
28
  3
SPECULARTILE
360
25
  0
DICTIONARY
  5
DB
330
65
100
AcDbDictionary
280
     1
281
     1
  3
ACAD_ROUNDTRIP_2008_TABLESTYLE_CELLSTYLEMAP
360
DC
  0
XRECORD
  5
1C
102
{ACAD_REACTORS
330
1A
102
}
330
1A
100
AcDbXrecord
280
     1
270
     1
271
     1
  0
XRECORD
  5
1B
102
{ACAD_REACTORS
330
1A
102
}
330
1A
100
AcDbXrecord
280
     1
270
     1
271
     1
  0
XRECORD
  5
1F
102
{ACAD_REACTORS
330
1A
102
}
330
1A
100
AcDbXrecord
280
     1
270
     1
271
     1
  0
XRECORD
  5
1E
102
{ACAD_REACTORS
330
1A
102
}
330
1A
100
AcDbXrecord
280
     1
270
     1
271
     1
  0
XRECORD
  5
20
102
{ACAD_REACTORS
330
1A
102
}
330
1A
100
AcDbXrecord
280
     1
270
     1
271
     1
  0
XRECORD
  5
1D
102
{ACAD_REACTORS
330
1A
102
}
330
1A
100
AcDbXrecord
280
     1
270
     1
271
     1
  0
XRECORD
  5
14
102
{ACAD_REACTORS
330
12
102
}
330
12
100
AcDbXrecord
280
     1
270
     1
271
     1
  0
XRECORD
  5
13
102
{ACAD_REACTORS
330
12
102
}
330
12
100
AcDbXrecord
280
     1
270
     1
271
     1
  0
XRECORD
  5
17
102
{ACAD_REACTORS
330
12
102
}
330
12
100
AcDbXrecord
280
     1
270
     1
271
     1
  0
XRECORD
  5
16
102
{ACAD_REACTORS
330
12
102
}
330
12
100
AcDbXrecord
280
     1
270
     1
271
     1
  0
XRECORD
  5
18
102
{ACAD_REACTORS
330
12
102
}
330
12
100
AcDbXrecord
280
     1
270
     1
271
     1
  0
XRECORD
  5
15
102
{ACAD_REACTORS
330
12
102
}
330
12
100
AcDbXrecord
280
     1
270
     1
271
     1
  0
XRECORD
  5
24
102
{ACAD_REACTORS
330
22
102
}
330
22
100
AcDbXrecord
280
     1
270
     1
271
     1
  0
XRECORD
  5
23
102
{ACAD_REACTORS
330
22
102
}
330
22
100
AcDbXrecord
280
     1
270
     1
271
     1
  0
XRECORD
  5
27
102
{ACAD_REACTORS
330
22
102
}
330
22
100
AcDbXrecord
280
     1
270
     1
271
     1
  0
XRECORD
  5
26
102
{ACAD_REACTORS
330
22
102
}
330
22
100
AcDbXrecord
280
     1
270
     1
271
     1
  0
XRECORD
  5
28
102
{ACAD_REACTORS
330
22
102
}
330
22
100
AcDbXrecord
280
     1
270
     1
271
     1
  0
XRECORD
  5
25
102
{ACAD_REACTORS
330
22
102
}
330
22
100
AcDbXrecord
280
     1
270
     1
271
     1
  0
CELLSTYLEMAP
  5
DC
102
{ACAD_REACTORS
330
DB
102
}
330
DB
100
AcDbCellStyleMap
 90
        3
300
CELLSTYLE
  1
TABLEFORMAT_BEGIN
 90
        5
170
     1
 91
        0
 92
    32768
 62
   257
 93
        1
300
CONTENTFORMAT
  1
CONTENTFORMAT_BEGIN
 90
        0
 91
        0
 92
      512
 93
        0
300

 40
0.0
140
1.0
 94
        5
 62
     0
340
55
144
0.25
309
CONTENTFORMAT_END
171
     0
 94
        0
309
TABLEFORMAT_END
  1
CELLSTYLE_BEGIN
 90
        1
 91
        1
300
_TITLE
309
CELLSTYLE_END
300
CELLSTYLE
  1
TABLEFORMAT_BEGIN
 90
        5
170
     1
 91
        0
 92
        0
 62
   257
 93
        1
300
CONTENTFORMAT
  1
CONTENTFORMAT_BEGIN
 90
        0
 91
        0
 92
      512
 93
        0
300

 40
0.0
140
1.0
 94
        5
 62
     0
340
55
144
0.18
309
CONTENTFORMAT_END
171
     0
 94
        0
309
TABLEFORMAT_END
  1
CELLSTYLE_BEGIN
 90
        2
 91
        1
300
_HEADER
309
CELLSTYLE_END
300
CELLSTYLE
  1
TABLEFORMAT_BEGIN
 90
        5
170
     1
 91
        0
 92
        0
 62
   257
 93
        1
300
CONTENTFORMAT
  1
CONTENTFORMAT_BEGIN
 90
        0
 91
        0
 92
      512
 93
        0
300

 40
0.0
140
1.0
 94
        2
 62
     0
340
55
144
0.18
309
CONTENTFORMAT_END
171
     0
 94
        0
309
TABLEFORMAT_END
  1
CELLSTYLE_BEGIN
 90
        3
 91
        2
300
_DATA
309
CELLSTYLE_END
  0
ENDSEC
  0
EOF
