  0
SECTION
  2
HEADER
  9
$ACADVER
  1
AC1032
  9
$ACADMAINTVER
 90
      228
  9
$DWGCODEPAGE
  3
ANSI_1252
  9
$REQUIREDVERSIONS
160
                 0
  9
$INSBASE
 10
0.0
 20
0.0
 30
0.0
  9
$EXTMIN
 10
1.000000000000000E+20
 20
1.000000000000000E+20
 30
1.000000000000000E+20
  9
$EXTMAX
 10
-1.000000000000000E+20
 20
-1.000000000000000E+20
 30
-1.000000000000000E+20
  9
$LIMMIN
 10
0.0
 20
0.0
  9
$LIMMAX
 10
12.0
 20
9.0
  9
$ORTHOMODE
 70
     0
  9
$REGENMODE
 70
     1
  9
$FILLMODE
 70
     1
  9
$QTEXTMODE
 70
     0
  9
$MIRRTEXT
 70
     0
  9
$LTSCALE
 40
1.0
  9
$ATTMODE
 70
     1
  9
$TEXTSIZE
 40
0.2
  9
$TRACEWID
 40
0.05
  9
$TEXTSTYLE
  7
Standard
  9
$CLAYER
  8
0
  9
$CELTYPE
  6
ByLayer
  9
$CECOLOR
 62
   256
  9
$CELTSCALE
 40
1.0
  9
$DISPSILH
 70
     0
  9
$DIMSCALE
 40
1.0
  9
$DIMASZ
 40
0.18
  9
$DIMEXO
 40
0.0625
  9
$DIMDLI
 40
0.38
  9
$DIMRND
 40
0.0
  9
$DIMDLE
 40
0.0
  9
$DIMEXE
 40
0.18
  9
$DIMTP
 40
0.0
  9
$DIMTM
 40
0.0
  9
$DIMTXT
 40
0.18
  9
$DIMCEN
 40
0.09
  9
$DIMTSZ
 40
0.0
  9
$DIMTOL
 70
     0
  9
$DIMLIM
 70
     0
  9
$DIMTIH
 70
     1
  9
$DIMTOH
 70
     1
  9
$DIMSE1
 70
     0
  9
$DIMSE2
 70
     0
  9
$DIMTAD
 70
     0
  9
$DIMZIN
 70
     0
  9
$DIMBLK
  1

  9
$DIMASO
 70
     1
  9
$DIMSHO
 70
     1
  9
$DIMPOST
  1

  9
$DIMAPOST
  1

  9
$DIMALT
 70
     0
  9
$DIMALTD
 70
     2
  9
$DIMALTF
 40
25.4
  9
$DIMLFAC
 40
1.0
  9
$DIMTOFL
 70
     0
  9
$DIMTVP
 40
0.0
  9
$DIMTIX
 70
     0
  9
$DIMSOXD
 70
     0
  9
$DIMSAH
 70
     0
  9
$DIMBLK1
  1

  9
$DIMBLK2
  1

  9
$DIMSTYLE
  2
Standard
  9
$DIMCLRD
 70
     0
  9
$DIMCLRE
 70
     0
  9
$DIMCLRT
 70
     0
  9
$DIMTFAC
 40
1.0
  9
$DIMGAP
 40
0.09
  9
$DIMJUST
 70
     0
  9
$DIMSD1
 70
     0
  9
$DIMSD2
 70
     0
  9
$DIMTOLJ
 70
     1
  9
$DIMTZIN
 70
     0
  9
$DIMALTZ
 70
     0
  9
$DIMALTTZ
 70
     0
  9
$DIMUPT
 70
     0
  9
$DIMDEC
 70
     4
  9
$DIMTDEC
 70
     4
  9
$DIMALTU
 70
     2
  9
$DIMALTTD
 70
     2
  9
$DIMTXSTY
  7
Standard
  9
$DIMAUNIT
 70
     0
  9
$DIMADEC
 70
     0
  9
$DIMALTRND
 40
0.0
  9
$DIMAZIN
 70
     0
  9
$DIMDSEP
 70
    46
  9
$DIMATFIT
 70
     3
  9
$DIMFRAC
 70
     0
  9
$DIMLDRBLK
  1

  9
$DIMLUNIT
 70
     2
  9
$DIMLWD
 70
    -2
  9
$DIMLWE
 70
    -2
  9
$DIMTMOVE
 70
     0
  9
$DIMFXL
 40
1.0
  9
$DIMFXLON
 70
     0
  9
$DIMJOGANG
 40
0.7853981633974483
  9
$DIMTFILL
 70
     0
  9
$DIMTFILLCLR
 70
     0
  9
$DIMARCSYM
 70
     0
  9
$DIMLTYPE
  6

  9
$DIMLTEX1
  6

  9
$DIMLTEX2
  6

  9
$DIMTXTDIRECTION
 70
     0
  9
$LUNITS
 70
     2
  9
$LUPREC
 70
     4
  9
$SKETCHINC
 40
0.1
  9
$FILLETRAD
 40
0.0
  9
$AUNITS
 70
     0
  9
$AUPREC
 70
     0
  9
$MENU
  1
.
  9
$ELEVATION
 40
0.0
  9
$PELEVATION
 40
0.0
  9
$THICKNESS
 40
0.0
  9
$LIMCHECK
 70
     0
  9
$CHAMFERA
 40
0.0
  9
$CHAMFERB
 40
0.0
  9
$CHAMFERC
 40
0.0
  9
$CHAMFERD
 40
0.0
  9
$SKPOLY
 70
     0
  9
$TDCREATE
 40
2459814.964733796
  9
$TDUCREATE
 40
2459814.881400463
  9
$TDUPDATE
 40
2459814.964733796
  9
$TDUUPDATE
 40
2459814.881400463
  9
$TDINDWG
 40
0.0000000000
  9
$TDUSRTIMER
 40
0.0000000000
  9
$USRTIMER
 70
     1
  9
$ANGBASE
 50
0.0
  9
$ANGDIR
 70
     0
  9
$PDMODE
 70
     0
  9
$PDSIZE
 40
0.0
  9
$PLINEWID
 40
0.0
  9
$SPLFRAME
 70
     0
  9
$SPLINETYPE
 70
     6
  9
$SPLINESEGS
 70
     8
  9
$HANDSEED
  5
CE
  9
$SURFTAB1
 70
     6
  9
$SURFTAB2
 70
     6
  9
$SURFTYPE
 70
     6
  9
$SURFU
 70
     6
  9
$SURFV
 70
     6
  9
$UCSBASE
  2

  9
$UCSNAME
  2

  9
$UCSORG
 10
0.0
 20
0.0
 30
0.0
  9
$UCSXDIR
 10
1.0
 20
0.0
 30
0.0
  9
$UCSYDIR
 10
0.0
 20
1.0
 30
0.0
  9
$UCSORTHOREF
  2

  9
$UCSORTHOVIEW
 70
     0
  9
$UCSORGTOP
 10
0.0
 20
0.0
 30
0.0
  9
$UCSORGBOTTOM
 10
0.0
 20
0.0
 30
0.0
  9
$UCSORGLEFT
 10
0.0
 20
0.0
 30
0.0
  9
$UCSORGRIGHT
 10
0.0
 20
0.0
 30
0.0
  9
$UCSORGFRONT
 10
0.0
 20
0.0
 30
0.0
  9
$UCSORGBACK
 10
0.0
 20
0.0
 30
0.0
  9
$PUCSBASE
  2

  9
$PUCSNAME
  2

  9
$PUCSORG
 10
0.0
 20
0.0
 30
0.0
  9
$PUCSXDIR
 10
1.0
 20
0.0
 30
0.0
  9
$PUCSYDIR
 10
0.0
 20
1.0
 30
0.0
  9
$PUCSORTHOREF
  2

  9
$PUCSORTHOVIEW
 70
     0
  9
$PUCSORGTOP
 10
0.0
 20
0.0
 30
0.0
  9
$PUCSORGBOTTOM
 10
0.0
 20
0.0
 30
0.0
  9
$PUCSORGLEFT
 10
0.0
 20
0.0
 30
0.0
  9
$PUCSORGRIGHT
 10
0.0
 20
0.0
 30
0.0
  9
$PUCSORGFRONT
 10
0.0
 20
0.0
 30
0.0
  9
$PUCSORGBACK
 10
0.0
 20
0.0
 30
0.0
  9
$USERI1
 70
     0
  9
$USERI2
 70
     0
  9
$USERI3
 70
     0
  9
$USERI4
 70
     0
  9
$USERI5
 70
     0
  9
$USERR1
 40
0.0
  9
$USERR2
 40
0.0
  9
$USERR3
 40
0.0
  9
$USERR4
 40
0.0
  9
$USERR5
 40
0.0
  9
$WORLDVIEW
 70
     1
  9
$SHADEDGE
 70
     3
  9
$SHADEDIF
 70
    70
  9
$TILEMODE
 70
     1
  9
$MAXACTVP
 70
    64
  9
$PINSBASE
 10
0.0
 20
0.0
 30
0.0
  9
$PLIMCHECK
 70
     0
  9
$PEXTMIN
 10
1.000000000000000E+20
 20
1.000000000000000E+20
 30
1.000000000000000E+20
  9
$PEXTMAX
 10
-1.000000000000000E+20
 20
-1.000000000000000E+20
 30
-1.000000000000000E+20
  9
$PLIMMIN
 10
0.0
 20
0.0
  9
$PLIMMAX
 10
12.0
 20
9.0
  9
$UNITMODE
 70
     0
  9
$VISRETAIN
 70
     1
  9
$PLINEGEN
 70
     0
  9
$PSLTSCALE
 70
     1
  9
$TREEDEPTH
 70
  3020
  9
$CMLSTYLE
  2
Standard
  9
$CMLJUST
 70
     0
  9
$CMLSCALE
 40
1.0
  9
$PROXYGRAPHICS
 70
     1
  9
$MEASUREMENT
 70
     0
  9
$CELWEIGHT
370
    -1
  9
$ENDCAPS
280
     0
  9
$JOINSTYLE
280
     0
  9
$LWDISPLAY
290
     1
  9
$INSUNITS
 70
     4
  9
$HYPERLINKBASE
  1

  9
$STYLESHEET
  1

  9
$XEDIT
290
     1
  9
$CEPSNTYPE
380
     0
  9
$PSTYLEMODE
290
     1
  9
$FINGERPRINTGUID
  2
{B1600200-F0A4-734A-9DE7-0EA70935CD36}
  9
$VERSIONGUID
  2
{B96A1983-F1F1-C543-A3AF-1A1838E1A4BF}
  9
$EXTNAMES
290
     1
  9
$PSVPSCALE
 40
0.0
  9
$OLESTARTUP
290
     0
  9
$SORTENTS
280
   127
  9
$INDEXCTL
280
     0
  9
$HIDETEXT
280
     1
  9
$XCLIPFRAME
280
     2
  9
$HALOGAP
280
     0
  9
$OBSCOLOR
 70
   257
  9
$OBSLTYPE
280
     0
  9
$INTERSECTIONDISPLAY
280
     0
  9
$INTERSECTIONCOLOR
 70
   257
  9
$DIMASSOC
280
     2
  9
$PROJECTNAME
  1

  9
$CAMERADISPLAY
290
     0
  9
$LENSLENGTH
 40
50.0
  9
$CAMERAHEIGHT
 40
0.0
  9
$STEPSPERSEC
 40
2.0
  9
$STEPSIZE
 40
6.0
  9
$3DDWFPREC
 40
2.0
  9
$PSOLWIDTH
 40
0.25
  9
$PSOLHEIGHT
 40
4.0
  9
$LOFTANG1
 40
1.570796326794896
  9
$LOFTANG2
 40
1.570796326794896
  9
$LOFTMAG1
 40
0.0
  9
$LOFTMAG2
 40
0.0
  9
$LOFTPARAM
 70
     7
  9
$LOFTNORMALS
280
     1
  9
$LATITUDE
 40
37.795
  9
$LONGITUDE
 40
-122.394
  9
$NORTHDIRECTION
 40
0.0
  9
$TIMEZONE
 70
 -8000
  9
$LIGHTGLYPHDISPLAY
280
     1
  9
$TILEMODELIGHTSYNCH
280
     1
  9
$CMATERIAL
347
11
  9
$SOLIDHIST
280
     0
  9
$SHOWHIST
280
     1
  9
$DWFFRAME
280
     2
  9
$DGNFRAME
280
     0
  9
$REALWORLDSCALE
290
     1
  9
$INTERFERECOLOR
 62
     1
  9
$INTERFEREOBJVS
345
33
  9
$INTERFEREVPVS
346
30
  9
$CSHADOW
280
     0
  9
$SHADOWPLANELOCATION
 40
0.0
  0
ENDSEC
  0
SECTION
  2
CLASSES
  0
CLASS
  1
ACDBDICTIONARYWDFLT
  2
AcDbDictionaryWithDefault
  3
ObjectDBX Classes
 90
        0
 91
        1
280
     0
281
     0
  0
CLASS
  1
MATERIAL
  2
AcDbMaterial
  3
ObjectDBX Classes
 90
     1153
 91
        3
280
     0
281
     0
  0
CLASS
  1
VISUALSTYLE
  2
AcDbVisualStyle
  3
ObjectDBX Classes
 90
     4095
 91
       24
280
     0
281
     0
  0
CLASS
  1
SCALE
  2
AcDbScale
  3
ObjectDBX Classes
 90
     1153
 91
       17
280
     0
281
     0
  0
CLASS
  1
TABLESTYLE
  2
AcDbTableStyle
  3
ObjectDBX Classes
 90
     4095
 91
        1
280
     0
281
     0
  0
CLASS
  1
MLEADERSTYLE
  2
AcDbMLeaderStyle
  3
ACDB_MLEADERSTYLE_CLASS
 90
     4095
 91
        1
280
     0
281
     0
  0
CLASS
  1
ACDBSECTIONVIEWSTYLE
  2
AcDbSectionViewStyle
  3
ObjectDBX Classes
 90
     1025
 91
        1
280
     0
281
     0
  0
CLASS
  1
ACDBDETAILVIEWSTYLE
  2
AcDbDetailViewStyle
  3
ObjectDBX Classes
 90
     1025
 91
        1
280
     0
281
     0
  0
CLASS
  1
DICTIONARYVAR
  2
AcDbDictionaryVar
  3
ObjectDBX Classes
 90
        0
 91
        5
280
     0
281
     0
  0
CLASS
  1
CELLSTYLEMAP
  2
AcDbCellStyleMap
  3
ObjectDBX Classes
 90
     1152
 91
        1
280
     0
281
     0
  0
ENDSEC
  0
SECTION
  2
TABLES
  0
TABLE
  2
VPORT
  5
8
330
0
100
AcDbSymbolTable
 70
     1
  0
VPORT
  5
57
330
8
100
AcDbSymbolTableRecord
100
AcDbViewportTableRecord
  2
*Active
 70
     0
 10
0.0
 20
0.0
 11
1.0
 21
1.0
 12
0.0
 22
0.0
 13
0.0
 23
0.0
 14
1.0
 24
1.0
 15
0.0
 25
0.0
 16
0.0
 26
0.0
 36
1.0
 17
93.07182067365046
 27
44.93999753464325
 37
0.0
 40
91.67759497067224
 41
2.071024160646725
 42
50.0
 43
0.0
 44
0.0
 50
0.0
 51
0.0
 71
     0
 72
   100
 73
     1
 74
     1
 75
     0
 76
     0
 77
     0
 78
     0
281
     0
 65
     1
110
0.0
120
0.0
130
0.0
111
1.0
121
0.0
131
0.0
112
0.0
122
1.0
132
0.0
 79
     0
146
0.0
 60
     3
 61
     5
292
     1
282
     1
141
0.0
142
0.0
 63
   250
421
  3355443
  0
ENDTAB
  0
TABLE
  2
LTYPE
  5
5
330
0
100
AcDbSymbolTable
 70
     1
  0
LTYPE
  5
5B
330
5
100
AcDbSymbolTableRecord
100
AcDbLinetypeTableRecord
  2
ByBlock
 70
     0
  3

 72
    65
 73
     0
 40
0.0
  0
LTYPE
  5
5C
330
5
100
AcDbSymbolTableRecord
100
AcDbLinetypeTableRecord
  2
ByLayer
 70
     0
  3

 72
    65
 73
     0
 40
0.0
  0
LTYPE
  5
5D
330
5
100
AcDbSymbolTableRecord
100
AcDbLinetypeTableRecord
  2
Continuous
 70
     0
  3
Solid line
 72
    65
 73
     0
 40
0.0
  0
ENDTAB
  0
TABLE
  2
LAYER
  5
2
330
0
100
AcDbSymbolTable
 70
     2
  0
LAYER
  5
54
330
2
100
AcDbSymbolTableRecord
100
AcDbLayerTableRecord
  2
0
 70
     0
 62
     7
  6
Continuous
370
    -3
390
F
347
21
348
0
  0
LAYER
  5
78
330
2
100
AcDbSymbolTableRecord
100
AcDbLayerTableRecord
  2
cutting
 70
     0
 62
     7
  6
Continuous
370
     0
390
F
347
21
348
0
  0
ENDTAB
  0
TABLE
  2
STYLE
  5
3
330
0
100
AcDbSymbolTable
 70
     2
  0
STYLE
  5
55
330
3
100
AcDbSymbolTableRecord
100
AcDbTextStyleTableRecord
  2
Standard
 70
     0
 40
0.0
 41
1.0
 50
0.0
 71
     0
 42
0.2
  3
txt
  4

  0
STYLE
  5
5A
330
3
100
AcDbSymbolTableRecord
100
AcDbTextStyleTableRecord
  2
Annotative
 70
     0
 40
0.0
 41
1.0
 50
0.0
 71
     0
 42
0.2
  3
txt
  4

1001
AcadAnnotative
1000
AnnotativeData
1002
{
1070
     1
1070
     1
1002
}
  0
ENDTAB
  0
TABLE
  2
VIEW
  5
6
330
0
100
AcDbSymbolTable
 70
     0
  0
ENDTAB
  0
TABLE
  2
UCS
  5
7
330
0
100
AcDbSymbolTable
 70
     0
  0
ENDTAB
  0
TABLE
  2
APPID
  5
9
330
0
100
AcDbSymbolTable
 70
     2
  0
APPID
  5
56
330
9
100
AcDbSymbolTableRecord
100
AcDbRegAppTableRecord
  2
ACAD
 70
     0
  0
APPID
  5
5E
330
9
100
AcDbSymbolTableRecord
100
AcDbRegAppTableRecord
  2
AcadAnnotative
 70
     0
  0
ENDTAB
  0
TABLE
  2
DIMSTYLE
  5
A
330
0
100
AcDbSymbolTable
 70
     2
100
AcDbDimStyleTable
 71
     0
  0
DIMSTYLE
105
58
330
A
100
AcDbSymbolTableRecord
100
AcDbDimStyleTableRecord
  2
Standard
 70
     0
340
55
  0
DIMSTYLE
105
59
330
A
100
AcDbSymbolTableRecord
100
AcDbDimStyleTableRecord
  2
Annotative
 70
     0
340
55
1001
AcadAnnotative
1000
AnnotativeData
1002
{
1070
     1
1070
     1
1002
}
  0
ENDTAB
  0
TABLE
  2
BLOCK_RECORD
  5
1
330
0
100
AcDbSymbolTable
 70
     1
  0
BLOCK_RECORD
  5
70
330
1
100
AcDbSymbolTableRecord
100
AcDbBlockTableRecord
  2
*Model_Space
340
73
 70
     0
280
     1
281
     0
  0
BLOCK_RECORD
  5
6C
330
1
100
AcDbSymbolTableRecord
100
AcDbBlockTableRecord
  2
*Paper_Space
340
6F
 70
     0
280
     1
281
     0
  0
BLOCK_RECORD
  5
74
330
1
100
AcDbSymbolTableRecord
100
AcDbBlockTableRecord
  2
*Paper_Space0
340
77
 70
     0
280
     1
281
     0
  0
ENDTAB
  0
ENDSEC
  0
SECTION
  2
BLOCKS
  0
BLOCK
  5
71
330
70
100
AcDbEntity
  8
0
100
AcDbBlockBegin
  2
*Model_Space
 70
     0
 10
0.0
 20
0.0
 30
0.0
  3
*Model_Space
  1

  0
ENDBLK
  5
72
330
70
100
AcDbEntity
  8
0
100
AcDbBlockEnd
  0
BLOCK
  5
6D
330
6C
100
AcDbEntity
 67
     1
  8
0
100
AcDbBlockBegin
  2
*Paper_Space
 70
     0
 10
0.0
 20
0.0
 30
0.0
  3
*Paper_Space
  1

  0
ENDBLK
  5
6E
330
6C
100
AcDbEntity
 67
     1
  8
0
100
AcDbBlockEnd
  0
BLOCK
  5
75
330
74
100
AcDbEntity
 67
     1
  8
0
100
AcDbBlockBegin
  2
*Paper_Space0
 70
     0
 10
0.0
 20
0.0
 30
0.0
  3
*Paper_Space0
  1

  0
ENDBLK
  5
76
330
74
100
AcDbEntity
 67
     1
  8
0
100
AcDbBlockEnd
  0
ENDSEC
  0
SECTION
  2
ENTITIES
  0
SPLINE
  5
79
330
70
100
AcDbEntity
  8
cutting
 62
     5
420
      255
370
     9
100
AcDbSpline
210
0.0
220
0.0
230
1.0
 70
     9
 71
     3
 72
    20
 73
    16
 74
     0
 42
0.0000000001
 43
0.0000000001
 40
0.0
 40
0.0
 40
0.0
 40
0.0
 40
1.0
 40
1.0
 40
1.0
 40
2.0
 40
2.0
 40
2.0
 40
3.0
 40
3.0
 40
3.0
 40
4.0
 40
4.0
 40
4.0
 40
5.0
 40
5.0
 40
5.0
 40
5.0
 10
39.59509494761176
 20
54.55125159620807
 30
0.0
 10
32.82893361802558
 20
54.55125159620807
 30
0.0
 10
27.34686106414792
 20
60.03685262069586
 30
0.0
 10
27.34686106414792
 20
66.79948547967192
 30
0.0
 10
27.34686106414792
 20
73.56211833864796
 30
0.0
 10
32.83246208863538
 20
79.04771936313576
 30
0.0
 10
39.59509494761176
 20
79.04771936313576
 30
0.0
 10
46.35773049802213
 20
79.04771936313576
 30
0.0
 10
51.84332613964095
 20
73.56211968436529
 30
0.0
 10
51.84332613964095
 20
66.79948547967192
 30
0.0
 10
51.84332613964095
 20
60.03685262069586
 30
0.0
 10
46.35772511515316
 20
54.55125159620807
 30
0.0
 10
39.59509225617711
 20
54.55125159620807
 30
0.0
 10
39.59509225617711
 20
54.55125159620807
 30
0.0
 10
39.59509225617711
 20
54.55125159620807
 30
0.0
 10
39.59509494761176
 20
54.55125159620807
 30
0.0
  0
SPLINE
  5
7A
330
70
100
AcDbEntity
  8
cutting
 62
     5
420
      255
370
     9
100
AcDbSpline
210
0.0
220
0.0
230
1.0
 70
     9
 71
     3
 72
    17
 73
    13
 74
     0
 42
0.0000000001
 43
0.0000000001
 40
0.0
 40
0.0
 40
0.0
 40
0.0
 40
1.0
 40
1.0
 40
1.0
 40
2.0
 40
2.0
 40
2.0
 40
3.0
 40
3.0
 40
3.0
 40
4.0
 40
4.0
 40
4.0
 40
4.0
 10
39.59509494761176
 20
81.55239722788676
 30
0.0
 10
31.44959497588985
 20
81.55239722788676
 30
0.0
 10
24.84570830571371
 20
74.94851123056929
 30
0.0
 10
24.84570830571371
 20
66.80301125884739
 30
0.0
 10
24.84570830571371
 20
58.65751128712548
 30
0.0
 10
31.44959497588985
 20
52.05362730838398
 30
0.0
 10
39.59509225617711
 20
52.05362730838398
 30
0.0
 10
47.74058953646437
 20
52.05362730838398
 30
0.0
 10
54.34447620664051
 20
58.65751397856012
 30
0.0
 10
54.34447620664051
 20
66.80301125884739
 30
0.0
 10
54.34447620664051
 20
74.94850853913465
 30
0.0
 10
47.74058953646437
 20
81.55239655502811
 30
0.0
 10
39.59509494761176
 20
81.55239722788676
 30
0.0
  0
SPLINE
  5
7B
330
70
100
AcDbEntity
  8
cutting
 62
     5
420
      255
370
     9
100
AcDbSpline
210
0.0
220
0.0
230
1.0
 70
     9
 71
     3
 72
    17
 73
    13
 74
     0
 42
0.0000000001
 43
0.0000000001
 40
0.0
 40
0.0
 40
0.0
 40
0.0
 40
1.0
 40
1.0
 40
1.0
 40
2.0
 40
2.0
 40
2.0
 40
3.0
 40
3.0
 40
3.0
 40
4.0
 40
4.0
 40
4.0
 40
4.0
 10
22.15406254301071
 20
42.94153362998805
 30
0.0
 10
22.73260926277527
 20
42.94153362998805
 30
0.0
 10
23.20532204999956
 20
42.47234662193956
 30
0.0
 10
23.20532204999956
 20
41.89027546871685
 30
0.0
 10
23.20532204999956
 20
41.30820431549414
 30
0.0
 10
22.73613504195074
 20
40.83901730744565
 30
0.0
 10
22.15406254301071
 20
40.83901730744565
 30
0.0
 10
21.571990044071
 20
40.83901730744565
 30
0.0
 10
21.10280303602187
 20
41.30820431549414
 30
0.0
 10
21.10280303602187
 20
41.89027546871685
 30
0.0
 10
21.10280303602187
 20
42.47234662193956
 30
0.0
 10
21.571990044071
 20
42.94153362998805
 30
0.0
 10
22.15406254301071
 20
42.94153362998805
 30
0.0
  0
SPLINE
  5
7C
330
70
100
AcDbEntity
  8
cutting
 62
     5
420
      255
370
     9
100
AcDbSpline
210
0.0
220
0.0
230
1.0
 70
     9
 71
     3
 72
    17
 73
    13
 74
     0
 42
0.0000000001
 43
0.0000000001
 40
0.0
 40
0.0
 40
0.0
 40
0.0
 40
1.0
 40
1.0
 40
1.0
 40
2.0
 40
2.0
 40
2.0
 40
3.0
 40
3.0
 40
3.0
 40
4.0
 40
4.0
 40
4.0
 40
4.0
 10
33.7285025317171
 20
42.16896274391026
 30
0.0
 10
34.30704790576433
 20
42.16896274391026
 30
0.0
 10
34.77976338442327
 20
41.69977573586177
 30
0.0
 10
34.77976338442327
 20
41.11770458263906
 30
0.0
 10
34.77976338442327
 20
40.53563342941635
 30
0.0
 10
34.31057637637413
 20
40.06644642136786
 30
0.0
 10
33.7285025317171
 20
40.06644642136786
 30
0.0
 10
33.14642868706008
 20
40.06644642136786
 30
0.0
 10
32.67724167901093
 20
40.53563342941635
 30
0.0
 10
32.67724167901093
 20
41.11770458263906
 30
0.0
 10
32.67724167901093
 20
41.69977573586177
 30
0.0
 10
33.14642868706008
 20
42.16896274391026
 30
0.0
 10
33.7285025317171
 20
42.16896274391026
 30
0.0
  0
SPLINE
  5
7D
330
70
100
AcDbEntity
  8
cutting
 62
     5
420
      255
370
     9
100
AcDbSpline
210
0.0
220
0.0
230
1.0
 70
     9
 71
     3
 72
    17
 73
    13
 74
     0
 42
0.0000000001
 43
0.0000000001
 40
0.0
 40
0.0
 40
0.0
 40
0.0
 40
1.0
 40
1.0
 40
1.0
 40
2.0
 40
2.0
 40
2.0
 40
3.0
 40
3.0
 40
3.0
 40
4.0
 40
4.0
 40
4.0
 40
4.0
 10
16.32274541319536
 20
50.79422975264207
 30
0.0
 10
16.04758391717711
 20
50.79422975264207
 30
0.0
 10
15.82181024396004
 20
51.01647495524869
 30
0.0
 10
15.82181024396004
 20
51.29516492187708
 30
0.0
 10
15.82181024396004
 20
51.57385488850545
 30
0.0
 10
16.04405679228431
 20
51.79610009111208
 30
0.0
 10
16.32274541319536
 20
51.79610009111208
 30
0.0
 10
16.6014340341061
 20
51.79610009111208
 30
0.0
 10
16.82368058243005
 20
51.57385488850545
 30
0.0
 10
16.82368058243005
 20
51.29516492187708
 30
0.0
 10
16.82368058243005
 20
51.01647495524869
 30
0.0
 10
16.6014340341061
 20
50.79422975264207
 30
0.0
 10
16.32274541319536
 20
50.79422975264207
 30
0.0
  0
SPLINE
  5
7E
330
70
100
AcDbEntity
  8
cutting
 62
     5
420
      255
370
     9
100
AcDbSpline
210
0.0
220
0.0
230
1.0
 70
     9
 71
     3
 72
    17
 73
    13
 74
     0
 42
0.0000000001
 43
0.0000000001
 40
0.0
 40
0.0
 40
0.0
 40
0.0
 40
1.0
 40
1.0
 40
1.0
 40
2.0
 40
2.0
 40
2.0
 40
3.0
 40
3.0
 40
3.0
 40
4.0
 40
4.0
 40
4.0
 40
4.0
 10
16.32274541319536
 20
48.7940148548775
 30
0.0
 10
16.04758391717711
 20
48.7940148548775
 30
0.0
 10
15.82181024396004
 20
49.01626005748446
 30
0.0
 10
15.82181024396004
 20
49.29495002411251
 30
0.0
 10
15.82181024396004
 20
49.57363999074058
 30
0.0
 10
16.04405679228431
 20
49.79588519334753
 30
0.0
 10
16.32274541319536
 20
49.79588519334753
 30
0.0
 10
16.6014340341061
 20
49.79588519334753
 30
0.0
 10
16.82368058243005
 20
49.57363999074058
 30
0.0
 10
16.82368058243005
 20
49.29495002411251
 30
0.0
 10
16.82368058243005
 20
49.01626005748446
 30
0.0
 10
16.6014340341061
 20
48.7940148548775
 30
0.0
 10
16.32274541319536
 20
48.7940148548775
 30
0.0
  0
SPLINE
  5
7F
330
70
100
AcDbEntity
  8
cutting
 62
     5
420
      255
370
     9
100
AcDbSpline
210
0.0
220
0.0
230
1.0
 70
     9
 71
     3
 72
    17
 73
    13
 74
     0
 42
0.0000000001
 43
0.0000000001
 40
0.0
 40
0.0
 40
0.0
 40
0.0
 40
1.0
 40
1.0
 40
1.0
 40
2.0
 40
2.0
 40
2.0
 40
3.0
 40
3.0
 40
3.0
 40
4.0
 40
4.0
 40
4.0
 40
4.0
 10
16.32274541319536
 20
46.79379995711296
 30
0.0
 10
16.04758391717711
 20
46.79379995711296
 30
0.0
 10
15.82181024396004
 20
47.01604515971959
 30
0.0
 10
15.82181024396004
 20
47.29473512634796
 30
0.0
 10
15.82181024396004
 20
47.57342509297634
 30
0.0
 10
16.04405679228431
 20
47.79567029558297
 30
0.0
 10
16.32274541319536
 20
47.79567029558297
 30
0.0
 10
16.6014340341061
 20
47.79567029558297
 30
0.0
 10
16.82368058243005
 20
47.57342509297634
 30
0.0
 10
16.82368058243005
 20
47.29473512634796
 30
0.0
 10
16.82368058243005
 20
47.01604515971959
 30
0.0
 10
16.6014340341061
 20
46.79379995711296
 30
0.0
 10
16.32274541319536
 20
46.79379995711296
 30
0.0
  0
SPLINE
  5
80
330
70
100
AcDbEntity
  8
cutting
 62
     5
420
      255
370
     9
100
AcDbSpline
210
0.0
220
0.0
230
1.0
 70
     9
 71
     3
 72
    17
 73
    13
 74
     0
 42
0.0000000001
 43
0.0000000001
 40
0.0
 40
0.0
 40
0.0
 40
0.0
 40
1.0
 40
1.0
 40
1.0
 40
2.0
 40
2.0
 40
2.0
 40
3.0
 40
3.0
 40
3.0
 40
4.0
 40
4.0
 40
4.0
 40
4.0
 10
16.32274541319536
 20
44.7935850593484
 30
0.0
 10
16.04758391717711
 20
44.7935850593484
 30
0.0
 10
15.82181024396004
 20
45.01583026195535
 30
0.0
 10
15.82181024396004
 20
45.29452022858341
 30
0.0
 10
15.82181024396004
 20
45.57321019521146
 30
0.0
 10
16.04405679228431
 20
45.79545539781841
 30
0.0
 10
16.32274541319536
 20
45.79545539781841
 30
0.0
 10
16.6014340341061
 20
45.79545539781841
 30
0.0
 10
16.82368058243005
 20
45.57321019521146
 30
0.0
 10
16.82368058243005
 20
45.29452022858341
 30
0.0
 10
16.82368058243005
 20
45.01583026195535
 30
0.0
 10
16.6014340341061
 20
44.7935850593484
 30
0.0
 10
16.32274541319536
 20
44.7935850593484
 30
0.0
  0
SPLINE
  5
81
330
70
100
AcDbEntity
  8
cutting
 62
     5
420
      255
370
     9
100
AcDbSpline
210
0.0
220
0.0
230
1.0
 70
     9
 71
     3
 72
    17
 73
    13
 74
     0
 42
0.0000000001
 43
0.0000000001
 40
0.0
 40
0.0
 40
0.0
 40
0.0
 40
1.0
 40
1.0
 40
1.0
 40
2.0
 40
2.0
 40
2.0
 40
3.0
 40
3.0
 40
3.0
 40
4.0
 40
4.0
 40
4.0
 40
4.0
 10
16.32274541319536
 20
42.79337016158385
 30
0.0
 10
16.04758391717711
 20
42.79337016158385
 30
0.0
 10
15.82181024396004
 20
43.01561805562513
 30
0.0
 10
15.82181024396004
 20
43.29430533081853
 30
0.0
 10
15.82181024396004
 20
43.57299260601259
 30
0.0
 10
16.04405679228431
 20
43.79524050005386
 30
0.0
 10
16.32274541319536
 20
43.79524050005386
 30
0.0
 10
16.6014340341061
 20
43.79524050005386
 30
0.0
 10
16.82368058243005
 20
43.57299260601259
 30
0.0
 10
16.82368058243005
 20
43.29430533081853
 30
0.0
 10
16.82368058243005
 20
43.01561805562513
 30
0.0
 10
16.6014340341061
 20
42.79337016158385
 30
0.0
 10
16.32274541319536
 20
42.79337016158385
 30
0.0
  0
SPLINE
  5
82
330
70
100
AcDbEntity
  8
cutting
 62
     5
420
      255
370
     9
100
AcDbSpline
210
0.0
220
0.0
230
1.0
 70
     9
 71
     3
 72
    17
 73
    13
 74
     0
 42
0.0000000001
 43
0.0000000001
 40
0.0
 40
0.0
 40
0.0
 40
0.0
 40
1.0
 40
1.0
 40
1.0
 40
2.0
 40
2.0
 40
2.0
 40
3.0
 40
3.0
 40
3.0
 40
4.0
 40
4.0
 40
4.0
 40
4.0
 10
14.32253051543049
 20
50.79422975264207
 30
0.0
 10
14.04736901941223
 20
50.79422975264207
 30
0.0
 10
13.8215953461958
 20
51.01647495524869
 30
0.0
 10
13.8215953461958
 20
51.29516492187708
 30
0.0
 10
13.8215953461958
 20
51.57385488850545
 30
0.0
 10
14.04384189451976
 20
51.79610009111208
 30
0.0
 10
14.32253051543049
 20
51.79610009111208
 30
0.0
 10
14.60121913634155
 20
51.79610009111208
 30
0.0
 10
14.82346568466582
 20
51.57385488850545
 30
0.0
 10
14.82346568466582
 20
51.29516492187708
 30
0.0
 10
14.82346568466582
 20
51.01647495524869
 30
0.0
 10
14.60121913634155
 20
50.79422975264207
 30
0.0
 10
14.32253051543049
 20
50.79422975264207
 30
0.0
  0
SPLINE
  5
83
330
70
100
AcDbEntity
  8
cutting
 62
     5
420
      255
370
     9
100
AcDbSpline
210
0.0
220
0.0
230
1.0
 70
     9
 71
     3
 72
    17
 73
    13
 74
     0
 42
0.0000000001
 43
0.0000000001
 40
0.0
 40
0.0
 40
0.0
 40
0.0
 40
1.0
 40
1.0
 40
1.0
 40
2.0
 40
2.0
 40
2.0
 40
3.0
 40
3.0
 40
3.0
 40
4.0
 40
4.0
 40
4.0
 40
4.0
 10
14.32253051543049
 20
48.7940148548775
 30
0.0
 10
14.04736901941223
 20
48.7940148548775
 30
0.0
 10
13.8215953461958
 20
49.01626005748446
 30
0.0
 10
13.8215953461958
 20
49.29495002411251
 30
0.0
 10
13.8215953461958
 20
49.57363999074058
 30
0.0
 10
14.04384189451976
 20
49.79588519334753
 30
0.0
 10
14.32253051543049
 20
49.79588519334753
 30
0.0
 10
14.60121913634155
 20
49.79588519334753
 30
0.0
 10
14.82346568466582
 20
49.57363999074058
 30
0.0
 10
14.82346568466582
 20
49.29495002411251
 30
0.0
 10
14.82346568466582
 20
49.01626005748446
 30
0.0
 10
14.60121913634155
 20
48.7940148548775
 30
0.0
 10
14.32253051543049
 20
48.7940148548775
 30
0.0
  0
SPLINE
  5
84
330
70
100
AcDbEntity
  8
cutting
 62
     5
420
      255
370
     9
100
AcDbSpline
210
0.0
220
0.0
230
1.0
 70
     9
 71
     3
 72
    17
 73
    13
 74
     0
 42
0.0000000001
 43
0.0000000001
 40
0.0
 40
0.0
 40
0.0
 40
0.0
 40
1.0
 40
1.0
 40
1.0
 40
2.0
 40
2.0
 40
2.0
 40
3.0
 40
3.0
 40
3.0
 40
4.0
 40
4.0
 40
4.0
 40
4.0
 10
14.32253051543049
 20
46.79379995711296
 30
0.0
 10
14.04736901941223
 20
46.79379995711296
 30
0.0
 10
13.8215953461958
 20
47.01604515971959
 30
0.0
 10
13.8215953461958
 20
47.29473512634796
 30
0.0
 10
13.8215953461958
 20
47.57342509297634
 30
0.0
 10
14.04384189451976
 20
47.79567029558297
 30
0.0
 10
14.32253051543049
 20
47.79567029558297
 30
0.0
 10
14.60121913634155
 20
47.79567029558297
 30
0.0
 10
14.82346568466582
 20
47.57342509297634
 30
0.0
 10
14.82346568466582
 20
47.29473512634796
 30
0.0
 10
14.82346568466582
 20
47.01604515971959
 30
0.0
 10
14.60121913634155
 20
46.79379995711296
 30
0.0
 10
14.32253051543049
 20
46.79379995711296
 30
0.0
  0
SPLINE
  5
85
330
70
100
AcDbEntity
  8
cutting
 62
     5
420
      255
370
     9
100
AcDbSpline
210
0.0
220
0.0
230
1.0
 70
     9
 71
     3
 72
    17
 73
    13
 74
     0
 42
0.0000000001
 43
0.0000000001
 40
0.0
 40
0.0
 40
0.0
 40
0.0
 40
1.0
 40
1.0
 40
1.0
 40
2.0
 40
2.0
 40
2.0
 40
3.0
 40
3.0
 40
3.0
 40
4.0
 40
4.0
 40
4.0
 40
4.0
 10
14.32253051543049
 20
44.7935850593484
 30
0.0
 10
14.04736901941223
 20
44.7935850593484
 30
0.0
 10
13.8215953461958
 20
45.01583026195535
 30
0.0
 10
13.8215953461958
 20
45.29452022858341
 30
0.0
 10
13.8215953461958
 20
45.57321019521146
 30
0.0
 10
14.04384189451976
 20
45.79545539781841
 30
0.0
 10
14.32253051543049
 20
45.79545539781841
 30
0.0
 10
14.60121913634155
 20
45.79545539781841
 30
0.0
 10
14.82346568466582
 20
45.57321019521146
 30
0.0
 10
14.82346568466582
 20
45.29452022858341
 30
0.0
 10
14.82346568466582
 20
45.01583026195535
 30
0.0
 10
14.60121913634155
 20
44.7935850593484
 30
0.0
 10
14.32253051543049
 20
44.7935850593484
 30
0.0
  0
SPLINE
  5
86
330
70
100
AcDbEntity
  8
cutting
 62
     5
420
      255
370
     9
100
AcDbSpline
210
0.0
220
0.0
230
1.0
 70
     9
 71
     3
 72
    17
 73
    13
 74
     0
 42
0.0000000001
 43
0.0000000001
 40
0.0
 40
0.0
 40
0.0
 40
0.0
 40
1.0
 40
1.0
 40
1.0
 40
2.0
 40
2.0
 40
2.0
 40
3.0
 40
3.0
 40
3.0
 40
4.0
 40
4.0
 40
4.0
 40
4.0
 10
14.32253051543049
 20
42.79337016158385
 30
0.0
 10
14.04736901941223
 20
42.79337016158385
 30
0.0
 10
13.8215953461958
 20
43.01561805562513
 30
0.0
 10
13.8215953461958
 20
43.29430533081853
 30
0.0
 10
13.8215953461958
 20
43.57299260601259
 30
0.0
 10
14.04384189451976
 20
43.79524050005386
 30
0.0
 10
14.32253051543049
 20
43.79524050005386
 30
0.0
 10
14.60121913634155
 20
43.79524050005386
 30
0.0
 10
14.82346568466582
 20
43.57299260601259
 30
0.0
 10
14.82346568466582
 20
43.29430533081853
 30
0.0
 10
14.82346568466582
 20
43.01561805562513
 30
0.0
 10
14.60121913634155
 20
42.79337016158385
 30
0.0
 10
14.32253051543049
 20
42.79337016158385
 30
0.0
  0
SPLINE
  5
87
330
70
100
AcDbEntity
  8
cutting
 62
     5
420
      255
370
     9
100
AcDbSpline
210
0.0
220
0.0
230
1.0
 70
     9
 71
     3
 72
    17
 73
    13
 74
     0
 42
0.0000000001
 43
0.0000000001
 40
0.0
 40
0.0
 40
0.0
 40
0.0
 40
1.0
 40
1.0
 40
1.0
 40
2.0
 40
2.0
 40
2.0
 40
3.0
 40
3.0
 40
3.0
 40
4.0
 40
4.0
 40
4.0
 40
4.0
 10
12.32231561766626
 20
50.79422975264207
 30
0.0
 10
12.047154121648
 20
50.79422975264207
 30
0.0
 10
11.82138044843093
 20
51.01647495524869
 30
0.0
 10
11.82138044843093
 20
51.29516492187708
 30
0.0
 10
11.82138044843093
 20
51.57385488850545
 30
0.0
 10
12.0436269967552
 20
51.79610009111208
 30
0.0
 10
12.32231561766626
 20
51.79610009111208
 30
0.0
 10
12.60100423857699
 20
51.79610009111208
 30
0.0
 10
12.82325078690095
 20
51.57385488850545
 30
0.0
 10
12.82325078690095
 20
51.29516492187708
 30
0.0
 10
12.82325078690095
 20
51.01647495524869
 30
0.0
 10
12.60100423857699
 20
50.79422975264207
 30
0.0
 10
12.32231561766626
 20
50.79422975264207
 30
0.0
  0
SPLINE
  5
88
330
70
100
AcDbEntity
  8
cutting
 62
     5
420
      255
370
     9
100
AcDbSpline
210
0.0
220
0.0
230
1.0
 70
     9
 71
     3
 72
    17
 73
    13
 74
     0
 42
0.0000000001
 43
0.0000000001
 40
0.0
 40
0.0
 40
0.0
 40
0.0
 40
1.0
 40
1.0
 40
1.0
 40
2.0
 40
2.0
 40
2.0
 40
3.0
 40
3.0
 40
3.0
 40
4.0
 40
4.0
 40
4.0
 40
4.0
 10
12.32231561766626
 20
48.7940148548775
 30
0.0
 10
12.047154121648
 20
48.7940148548775
 30
0.0
 10
11.82138044843093
 20
49.01626005748446
 30
0.0
 10
11.82138044843093
 20
49.29495002411251
 30
0.0
 10
11.82138044843093
 20
49.57363999074058
 30
0.0
 10
12.0436269967552
 20
49.79588519334753
 30
0.0
 10
12.32231561766626
 20
49.79588519334753
 30
0.0
 10
12.60100423857699
 20
49.79588519334753
 30
0.0
 10
12.82325078690095
 20
49.57363999074058
 30
0.0
 10
12.82325078690095
 20
49.29495002411251
 30
0.0
 10
12.82325078690095
 20
49.01626005748446
 30
0.0
 10
12.60100423857699
 20
48.7940148548775
 30
0.0
 10
12.32231561766626
 20
48.7940148548775
 30
0.0
  0
SPLINE
  5
89
330
70
100
AcDbEntity
  8
cutting
 62
     5
420
      255
370
     9
100
AcDbSpline
210
0.0
220
0.0
230
1.0
 70
     9
 71
     3
 72
    17
 73
    13
 74
     0
 42
0.0000000001
 43
0.0000000001
 40
0.0
 40
0.0
 40
0.0
 40
0.0
 40
1.0
 40
1.0
 40
1.0
 40
2.0
 40
2.0
 40
2.0
 40
3.0
 40
3.0
 40
3.0
 40
4.0
 40
4.0
 40
4.0
 40
4.0
 10
12.32231561766626
 20
46.79379995711296
 30
0.0
 10
12.047154121648
 20
46.79379995711296
 30
0.0
 10
11.82138044843093
 20
47.01604515971959
 30
0.0
 10
11.82138044843093
 20
47.29473512634796
 30
0.0
 10
11.82138044843093
 20
47.57342509297634
 30
0.0
 10
12.0436269967552
 20
47.79567029558297
 30
0.0
 10
12.32231561766626
 20
47.79567029558297
 30
0.0
 10
12.60100423857699
 20
47.79567029558297
 30
0.0
 10
12.82325078690095
 20
47.57342509297634
 30
0.0
 10
12.82325078690095
 20
47.29473512634796
 30
0.0
 10
12.82325078690095
 20
47.01604515971959
 30
0.0
 10
12.60100423857699
 20
46.79379995711296
 30
0.0
 10
12.32231561766626
 20
46.79379995711296
 30
0.0
  0
SPLINE
  5
8A
330
70
100
AcDbEntity
  8
cutting
 62
     5
420
      255
370
     9
100
AcDbSpline
210
0.0
220
0.0
230
1.0
 70
     9
 71
     3
 72
    17
 73
    13
 74
     0
 42
0.0000000001
 43
0.0000000001
 40
0.0
 40
0.0
 40
0.0
 40
0.0
 40
1.0
 40
1.0
 40
1.0
 40
2.0
 40
2.0
 40
2.0
 40
3.0
 40
3.0
 40
3.0
 40
4.0
 40
4.0
 40
4.0
 40
4.0
 10
12.32231561766626
 20
44.7935850593484
 30
0.0
 10
12.047154121648
 20
44.7935850593484
 30
0.0
 10
11.82138044843093
 20
45.01583026195535
 30
0.0
 10
11.82138044843093
 20
45.29452022858341
 30
0.0
 10
11.82138044843093
 20
45.57321019521146
 30
0.0
 10
12.0436269967552
 20
45.79545539781841
 30
0.0
 10
12.32231561766626
 20
45.79545539781841
 30
0.0
 10
12.60100423857699
 20
45.79545539781841
 30
0.0
 10
12.82325078690095
 20
45.57321019521146
 30
0.0
 10
12.82325078690095
 20
45.29452022858341
 30
0.0
 10
12.82325078690095
 20
45.01583026195535
 30
0.0
 10
12.60100423857699
 20
44.7935850593484
 30
0.0
 10
12.32231561766626
 20
44.7935850593484
 30
0.0
  0
SPLINE
  5
8B
330
70
100
AcDbEntity
  8
cutting
 62
     5
420
      255
370
     9
100
AcDbSpline
210
0.0
220
0.0
230
1.0
 70
     9
 71
     3
 72
    17
 73
    13
 74
     0
 42
0.0000000001
 43
0.0000000001
 40
0.0
 40
0.0
 40
0.0
 40
0.0
 40
1.0
 40
1.0
 40
1.0
 40
2.0
 40
2.0
 40
2.0
 40
3.0
 40
3.0
 40
3.0
 40
4.0
 40
4.0
 40
4.0
 40
4.0
 10
12.32231561766626
 20
42.79337016158385
 30
0.0
 10
12.047154121648
 20
42.79337016158385
 30
0.0
 10
11.82138044843093
 20
43.01561805562513
 30
0.0
 10
11.82138044843093
 20
43.29430533081853
 30
0.0
 10
11.82138044843093
 20
43.57299260601259
 30
0.0
 10
12.0436269967552
 20
43.79524050005386
 30
0.0
 10
12.32231561766626
 20
43.79524050005386
 30
0.0
 10
12.60100423857699
 20
43.79524050005386
 30
0.0
 10
12.82325078690095
 20
43.57299260601259
 30
0.0
 10
12.82325078690095
 20
43.29430533081853
 30
0.0
 10
12.82325078690095
 20
43.01561805562513
 30
0.0
 10
12.60100423857699
 20
42.79337016158385
 30
0.0
 10
12.32231561766626
 20
42.79337016158385
 30
0.0
  0
SPLINE
  5
8C
330
70
100
AcDbEntity
  8
cutting
 62
     5
420
      255
370
     9
100
AcDbSpline
210
0.0
220
0.0
230
1.0
 70
     9
 71
     3
 72
    17
 73
    13
 74
     0
 42
0.0000000001
 43
0.0000000001
 40
0.0
 40
0.0
 40
0.0
 40
0.0
 40
1.0
 40
1.0
 40
1.0
 40
2.0
 40
2.0
 40
2.0
 40
3.0
 40
3.0
 40
3.0
 40
4.0
 40
4.0
 40
4.0
 40
4.0
 10
10.32209937418438
 20
50.79422975264207
 30
0.0
 10
10.04693720530746
 20
50.79422975264207
 30
0.0
 10
9.821163532090714
 20
51.01647495524869
 30
0.0
 10
9.821163532090714
 20
51.29516492187708
 30
0.0
 10
9.821163532090714
 20
51.57385488850545
 30
0.0
 10
10.043409407556
 20
51.79610009111208
 30
0.0
 10
10.32209937418438
 20
51.79610009111208
 30
0.0
 10
10.60078934081244
 20
51.79610009111208
 30
0.0
 10
10.82303521627805
 20
51.57385488850545
 30
0.0
 10
10.82303521627805
 20
51.29516492187708
 30
0.0
 10
10.82303521627805
 20
51.01647495524869
 30
0.0
 10
10.60078934081244
 20
50.79422975264207
 30
0.0
 10
10.32209937418438
 20
50.79422975264207
 30
0.0
  0
SPLINE
  5
8D
330
70
100
AcDbEntity
  8
cutting
 62
     5
420
      255
370
     9
100
AcDbSpline
210
0.0
220
0.0
230
1.0
 70
     9
 71
     3
 72
    17
 73
    13
 74
     0
 42
0.0000000001
 43
0.0000000001
 40
0.0
 40
0.0
 40
0.0
 40
0.0
 40
1.0
 40
1.0
 40
1.0
 40
2.0
 40
2.0
 40
2.0
 40
3.0
 40
3.0
 40
3.0
 40
4.0
 40
4.0
 40
4.0
 40
4.0
 10
10.32209937418438
 20
48.7940148548775
 30
0.0
 10
10.04693720530746
 20
48.7940148548775
 30
0.0
 10
9.821163532090714
 20
49.01626005748446
 30
0.0
 10
9.821163532090714
 20
49.29495002411251
 30
0.0
 10
9.821163532090714
 20
49.57363999074058
 30
0.0
 10
10.043409407556
 20
49.79588519334753
 30
0.0
 10
10.32209937418438
 20
49.79588519334753
 30
0.0
 10
10.60078934081244
 20
49.79588519334753
 30
0.0
 10
10.82303521627805
 20
49.57363999074058
 30
0.0
 10
10.82303521627805
 20
49.29495002411251
 30
0.0
 10
10.82303521627805
 20
49.01626005748446
 30
0.0
 10
10.60078934081244
 20
48.7940148548775
 30
0.0
 10
10.32209937418438
 20
48.7940148548775
 30
0.0
  0
SPLINE
  5
8E
330
70
100
AcDbEntity
  8
cutting
 62
     5
420
      255
370
     9
100
AcDbSpline
210
0.0
220
0.0
230
1.0
 70
     9
 71
     3
 72
    17
 73
    13
 74
     0
 42
0.0000000001
 43
0.0000000001
 40
0.0
 40
0.0
 40
0.0
 40
0.0
 40
1.0
 40
1.0
 40
1.0
 40
2.0
 40
2.0
 40
2.0
 40
3.0
 40
3.0
 40
3.0
 40
4.0
 40
4.0
 40
4.0
 40
4.0
 10
10.32209937418438
 20
46.79379995711296
 30
0.0
 10
10.04693720530746
 20
46.79379995711296
 30
0.0
 10
9.821163532090714
 20
47.01604515971959
 30
0.0
 10
9.821163532090714
 20
47.29473512634796
 30
0.0
 10
9.821163532090714
 20
47.57342509297634
 30
0.0
 10
10.043409407556
 20
47.79567029558297
 30
0.0
 10
10.32209937418438
 20
47.79567029558297
 30
0.0
 10
10.60078934081244
 20
47.79567029558297
 30
0.0
 10
10.82303521627805
 20
47.57342509297634
 30
0.0
 10
10.82303521627805
 20
47.29473512634796
 30
0.0
 10
10.82303521627805
 20
47.01604515971959
 30
0.0
 10
10.60078934081244
 20
46.79379995711296
 30
0.0
 10
10.32209937418438
 20
46.79379995711296
 30
0.0
  0
SPLINE
  5
8F
330
70
100
AcDbEntity
  8
cutting
 62
     5
420
      255
370
     9
100
AcDbSpline
210
0.0
220
0.0
230
1.0
 70
     9
 71
     3
 72
    17
 73
    13
 74
     0
 42
0.0000000001
 43
0.0000000001
 40
0.0
 40
0.0
 40
0.0
 40
0.0
 40
1.0
 40
1.0
 40
1.0
 40
2.0
 40
2.0
 40
2.0
 40
3.0
 40
3.0
 40
3.0
 40
4.0
 40
4.0
 40
4.0
 40
4.0
 10
10.32209937418438
 20
44.7935850593484
 30
0.0
 10
10.04693720530746
 20
44.7935850593484
 30
0.0
 10
9.821163532090714
 20
45.01583026195535
 30
0.0
 10
9.821163532090714
 20
45.29452022858341
 30
0.0
 10
9.821163532090714
 20
45.57321019521146
 30
0.0
 10
10.043409407556
 20
45.79545539781841
 30
0.0
 10
10.32209937418438
 20
45.79545539781841
 30
0.0
 10
10.60078934081244
 20
45.79545539781841
 30
0.0
 10
10.82303521627805
 20
45.57321019521146
 30
0.0
 10
10.82303521627805
 20
45.29452022858341
 30
0.0
 10
10.82303521627805
 20
45.01583026195535
 30
0.0
 10
10.60078934081244
 20
44.7935850593484
 30
0.0
 10
10.32209937418438
 20
44.7935850593484
 30
0.0
  0
SPLINE
  5
90
330
70
100
AcDbEntity
  8
cutting
 62
     5
420
      255
370
     9
100
AcDbSpline
210
0.0
220
0.0
230
1.0
 70
     9
 71
     3
 72
    17
 73
    13
 74
     0
 42
0.0000000001
 43
0.0000000001
 40
0.0
 40
0.0
 40
0.0
 40
0.0
 40
1.0
 40
1.0
 40
1.0
 40
2.0
 40
2.0
 40
2.0
 40
3.0
 40
3.0
 40
3.0
 40
4.0
 40
4.0
 40
4.0
 40
4.0
 10
10.32209937418438
 20
42.79337016158385
 30
0.0
 10
10.04693720530746
 20
42.79337016158385
 30
0.0
 10
9.821163532090714
 20
43.01561805562513
 30
0.0
 10
9.821163532090714
 20
43.29430533081853
 30
0.0
 10
9.821163532090714
 20
43.57299260601259
 30
0.0
 10
10.043409407556
 20
43.79524050005386
 30
0.0
 10
10.32209937418438
 20
43.79524050005386
 30
0.0
 10
10.60078934081244
 20
43.79524050005386
 30
0.0
 10
10.82303521627805
 20
43.57299260601259
 30
0.0
 10
10.82303521627805
 20
43.29430533081853
 30
0.0
 10
10.82303521627805
 20
43.01561805562513
 30
0.0
 10
10.60078934081244
 20
42.79337016158385
 30
0.0
 10
10.32209937418438
 20
42.79337016158385
 30
0.0
  0
SPLINE
  5
91
330
70
100
AcDbEntity
  8
cutting
 62
     5
420
      255
370
     9
100
AcDbSpline
210
0.0
220
0.0
230
1.0
 70
     9
 71
     3
 72
    17
 73
    13
 74
     0
 42
0.0000000001
 43
0.0000000001
 40
0.0
 40
0.0
 40
0.0
 40
0.0
 40
1.0
 40
1.0
 40
1.0
 40
2.0
 40
2.0
 40
2.0
 40
3.0
 40
3.0
 40
3.0
 40
4.0
 40
4.0
 40
4.0
 40
4.0
 10
8.321883803561169
 20
50.79422975264207
 30
0.0
 10
8.046721634684249
 20
50.79422975264207
 30
0.0
 10
7.820947961467499
 20
51.01647495524869
 30
0.0
 10
7.820947961467499
 20
51.29516492187708
 30
0.0
 10
7.820947961467499
 20
51.57385488850545
 30
0.0
 10
8.04319383693279
 20
51.79610009111208
 30
0.0
 10
8.321883803561169
 20
51.79610009111208
 30
0.0
 10
8.600573770189226
 20
51.79610009111208
 30
0.0
 10
8.822819645654837
 20
51.57385488850545
 30
0.0
 10
8.822819645654837
 20
51.29516492187708
 30
0.0
 10
8.822819645654837
 20
51.01647495524869
 30
0.0
 10
8.600573770189226
 20
50.79422975264207
 30
0.0
 10
8.321883803561169
 20
50.79422975264207
 30
0.0
  0
SPLINE
  5
92
330
70
100
AcDbEntity
  8
cutting
 62
     5
420
      255
370
     9
100
AcDbSpline
210
0.0
220
0.0
230
1.0
 70
     9
 71
     3
 72
    17
 73
    13
 74
     0
 42
0.0000000001
 43
0.0000000001
 40
0.0
 40
0.0
 40
0.0
 40
0.0
 40
1.0
 40
1.0
 40
1.0
 40
2.0
 40
2.0
 40
2.0
 40
3.0
 40
3.0
 40
3.0
 40
4.0
 40
4.0
 40
4.0
 40
4.0
 10
8.321883803561169
 20
48.7940148548775
 30
0.0
 10
8.046721634684249
 20
48.7940148548775
 30
0.0
 10
7.820947961467499
 20
49.01626005748446
 30
0.0
 10
7.820947961467499
 20
49.29495002411251
 30
0.0
 10
7.820947961467499
 20
49.57363999074058
 30
0.0
 10
8.04319383693279
 20
49.79588519334753
 30
0.0
 10
8.321883803561169
 20
49.79588519334753
 30
0.0
 10
8.600573770189226
 20
49.79588519334753
 30
0.0
 10
8.822819645654837
 20
49.57363999074058
 30
0.0
 10
8.822819645654837
 20
49.29495002411251
 30
0.0
 10
8.822819645654837
 20
49.01626005748446
 30
0.0
 10
8.600573770189226
 20
48.7940148548775
 30
0.0
 10
8.321883803561169
 20
48.7940148548775
 30
0.0
  0
SPLINE
  5
93
330
70
100
AcDbEntity
  8
cutting
 62
     5
420
      255
370
     9
100
AcDbSpline
210
0.0
220
0.0
230
1.0
 70
     9
 71
     3
 72
    17
 73
    13
 74
     0
 42
0.0000000001
 43
0.0000000001
 40
0.0
 40
0.0
 40
0.0
 40
0.0
 40
1.0
 40
1.0
 40
1.0
 40
2.0
 40
2.0
 40
2.0
 40
3.0
 40
3.0
 40
3.0
 40
4.0
 40
4.0
 40
4.0
 40
4.0
 10
8.321883803561169
 20
46.79379995711296
 30
0.0
 10
8.046721634684249
 20
46.79379995711296
 30
0.0
 10
7.820947961467499
 20
47.01604515971959
 30
0.0
 10
7.820947961467499
 20
47.29473512634796
 30
0.0
 10
7.820947961467499
 20
47.57342509297634
 30
0.0
 10
8.04319383693279
 20
47.79567029558297
 30
0.0
 10
8.321883803561169
 20
47.79567029558297
 30
0.0
 10
8.600573770189226
 20
47.79567029558297
 30
0.0
 10
8.822819645654837
 20
47.57342509297634
 30
0.0
 10
8.822819645654837
 20
47.29473512634796
 30
0.0
 10
8.822819645654837
 20
47.01604515971959
 30
0.0
 10
8.600573770189226
 20
46.79379995711296
 30
0.0
 10
8.321883803561169
 20
46.79379995711296
 30
0.0
  0
SPLINE
  5
94
330
70
100
AcDbEntity
  8
cutting
 62
     5
420
      255
370
     9
100
AcDbSpline
210
0.0
220
0.0
230
1.0
 70
     9
 71
     3
 72
    17
 73
    13
 74
     0
 42
0.0000000001
 43
0.0000000001
 40
0.0
 40
0.0
 40
0.0
 40
0.0
 40
1.0
 40
1.0
 40
1.0
 40
2.0
 40
2.0
 40
2.0
 40
3.0
 40
3.0
 40
3.0
 40
4.0
 40
4.0
 40
4.0
 40
4.0
 10
8.321883803561169
 20
44.7935850593484
 30
0.0
 10
8.046721634684249
 20
44.7935850593484
 30
0.0
 10
7.820947961467499
 20
45.01583026195535
 30
0.0
 10
7.820947961467499
 20
45.29452022858341
 30
0.0
 10
7.820947961467499
 20
45.57321019521146
 30
0.0
 10
8.04319383693279
 20
45.79545539781841
 30
0.0
 10
8.321883803561169
 20
45.79545539781841
 30
0.0
 10
8.600573770189226
 20
45.79545539781841
 30
0.0
 10
8.822819645654837
 20
45.57321019521146
 30
0.0
 10
8.822819645654837
 20
45.29452022858341
 30
0.0
 10
8.822819645654837
 20
45.01583026195535
 30
0.0
 10
8.600573770189226
 20
44.7935850593484
 30
0.0
 10
8.321883803561169
 20
44.7935850593484
 30
0.0
  0
SPLINE
  5
95
330
70
100
AcDbEntity
  8
cutting
 62
     5
420
      255
370
     9
100
AcDbSpline
210
0.0
220
0.0
230
1.0
 70
     9
 71
     3
 72
    17
 73
    13
 74
     0
 42
0.0000000001
 43
0.0000000001
 40
0.0
 40
0.0
 40
0.0
 40
0.0
 40
1.0
 40
1.0
 40
1.0
 40
2.0
 40
2.0
 40
2.0
 40
3.0
 40
3.0
 40
3.0
 40
4.0
 40
4.0
 40
4.0
 40
4.0
 10
8.321883803561169
 20
42.79337016158385
 30
0.0
 10
8.046721634684249
 20
42.79337016158385
 30
0.0
 10
7.820947961467499
 20
43.01561805562513
 30
0.0
 10
7.820947961467499
 20
43.29430533081853
 30
0.0
 10
7.820947961467499
 20
43.57299260601259
 30
0.0
 10
8.04319383693279
 20
43.79524050005386
 30
0.0
 10
8.321883803561169
 20
43.79524050005386
 30
0.0
 10
8.600573770189226
 20
43.79524050005386
 30
0.0
 10
8.822819645654837
 20
43.57299260601259
 30
0.0
 10
8.822819645654837
 20
43.29430533081853
 30
0.0
 10
8.822819645654837
 20
43.01561805562513
 30
0.0
 10
8.600573770189226
 20
42.79337016158385
 30
0.0
 10
8.321883803561169
 20
42.79337016158385
 30
0.0
  0
SPLINE
  5
96
330
70
100
AcDbEntity
  8
cutting
 62
     5
420
      255
370
     9
100
AcDbSpline
210
0.0
220
0.0
230
1.0
 70
    11
 71
     3
 72
    44
 73
    40
 74
     0
 42
0.0000000001
 43
0.0000000001
 40
0.0
 40
0.0
 40
0.0
 40
0.0
 40
1.0
 40
1.0
 40
1.0
 40
2.0
 40
2.0
 40
2.0
 40
3.0
 40
3.0
 40
3.0
 40
4.0
 40
4.0
 40
4.0
 40
5.0
 40
5.0
 40
5.0
 40
6.0
 40
6.0
 40
6.0
 40
7.0
 40
7.0
 40
7.0
 40
8.0
 40
8.0
 40
8.0
 40
9.0
 40
9.0
 40
9.0
 40
10.0
 40
10.0
 40
10.0
 40
11.0
 40
11.0
 40
11.0
 40
12.0
 40
12.0
 40
12.0
 40
13.0
 40
13.0
 40
13.0
 40
13.0
 10
19.28602823845815
 20
46.4763075795131
 30
0.0
 10
19.28602823845815
 20
46.4763075795131
 30
0.0
 10
19.90690583980429
 20
55.35204486429658
 30
0.0
 10
19.90690583980429
 20
55.35204486429658
 30
0.0
 10
19.90690583980429
 20
55.35204486429658
 30
0.0
 10
2.751619333763557
 20
55.35204486429658
 30
0.0
 10
2.751619333763557
 20
55.35204486429658
 30
0.0
 10
2.751619333763557
 20
55.35204486429658
 30
0.0
 10
2.751619333763557
 20
45.40388397745079
 30
0.0
 10
2.751619333763557
 20
45.40388397745079
 30
0.0
 10
2.751619333763557
 20
45.40388397745079
 30
0.0
 10
4.998775027682309
 20
45.40388397745079
 30
0.0
 10
4.998775027682309
 20
45.40388397745079
 30
0.0
 10
5.386824033167441
 20
45.40388397745079
 30
0.0
 10
5.700790631591812
 20
45.08991737902642
 30
0.0
 10
5.700790631591812
 20
44.7018663549653
 30
0.0
 10
5.700790631591812
 20
44.7018663549653
 30
0.0
 10
5.725484542992727
 20
38.2038122716118
 30
0.0
 10
5.725484542992727
 20
38.2038122716118
 30
0.0
 10
5.725484542992727
 20
38.2038122716118
 30
0.0
 10
21.70604232147001
 20
38.2038122716118
 30
0.0
 10
21.70604232147001
 20
38.2038122716118
 30
0.0
 10
21.70604232147001
 20
38.2038122716118
 30
0.0
 10
36.7976152523685
 20
37.14549716912035
 30
0.0
 10
36.7976152523685
 20
37.14549716912035
 30
0.0
 10
36.7976152523685
 20
37.14549716912035
 30
0.0
 10
38.1310918508782
 20
44.45845302013323
 30
0.0
 10
38.1310918508782
 20
44.45845302013323
 30
0.0
 10
38.1310918508782
 20
44.45845302013323
 30
0.0
 10
19.93512687609768
 20
45.73195907544604
 30
0.0
 10
19.93512687609768
 20
45.73195907544604
 30
0.0
 10
19.55060566836369
 20
45.76018145745675
 30
0.0
 10
19.25780585644744
 20
46.09178502606179
 30
0.0
 10
19.28602689274083
 20
46.47983605012291
 30
0.0
 10
19.28602689274083
 20
46.47983605012291
 30
0.0
 10
19.28602689274083
 20
46.47983605012291
 30
0.0
 10
19.28602689274083
 20
46.47983605012291
 30
0.0
 10
19.28602689274083
 20
46.47983605012291
 30
0.0
 10
19.28602823845815
 20
46.4763075795131
 30
0.0
 10
19.28602823845815
 20
46.4763075795131
 30
0.0
  0
SPLINE
  5
97
330
70
100
AcDbEntity
  8
cutting
 62
     5
420
      255
370
     9
100
AcDbSpline
210
0.0
220
0.0
230
1.0
 70
     9
 71
     3
 72
    17
 73
    13
 74
     0
 42
0.0000000001
 43
0.0000000001
 40
0.0
 40
0.0
 40
0.0
 40
0.0
 40
1.0
 40
1.0
 40
1.0
 40
2.0
 40
2.0
 40
2.0
 40
3.0
 40
3.0
 40
3.0
 40
4.0
 40
4.0
 40
4.0
 40
4.0
 10
182.8415682341434
 20
86.13137407960945
 30
0.0
 10
182.2630174772272
 20
86.13137407960945
 30
0.0
 10
181.7903154557408
 20
86.60056041479991
 30
0.0
 10
181.7903154557408
 20
87.18263375481296
 30
0.0
 10
181.7903154557408
 20
87.764707094826
 30
0.0
 10
182.2595078466586
 20
88.23389343001647
 30
0.0
 10
182.8415682341434
 20
88.23389343001647
 30
0.0
 10
183.4236286216281
 20
88.23389343001647
 30
0.0
 10
183.8928210125459
 20
87.764707094826
 30
0.0
 10
183.8928210125459
 20
87.18263375481296
 30
0.0
 10
183.8928210125459
 20
86.60056041479991
 30
0.0
 10
183.4236286216281
 20
86.13137407960945
 30
0.0
 10
182.8415682341434
 20
86.13137407960945
 30
0.0
  0
SPLINE
  5
98
330
70
100
AcDbEntity
  8
cutting
 62
     5
420
      255
370
     9
100
AcDbSpline
210
0.0
220
0.0
230
1.0
 70
     9
 71
     3
 72
    20
 73
    16
 74
     0
 42
0.0000000001
 43
0.0000000001
 40
0.0
 40
0.0
 40
0.0
 40
0.0
 40
1.0
 40
1.0
 40
1.0
 40
2.0
 40
2.0
 40
2.0
 40
3.0
 40
3.0
 40
3.0
 40
4.0
 40
4.0
 40
4.0
 40
5.0
 40
5.0
 40
5.0
 40
5.0
 10
133.1289754161872
 20
16.76234334289599
 30
0.0
 10
126.3628167780357
 20
16.76234334289599
 30
0.0
 10
120.8807415327234
 20
22.2479443673841
 30
0.0
 10
120.8807415327234
 20
29.01057722635983
 30
0.0
 10
120.8807415327234
 20
35.77321008533556
 30
0.0
 10
126.3663371743422
 20
41.25881110982366
 30
0.0
 10
133.1289754161872
 20
41.25881110982366
 30
0.0
 10
139.8916136580323
 20
41.25881110982366
 30
0.0
 10
145.3772092996511
 20
35.77321008533556
 30
0.0
 10
145.3772092996511
 20
29.01057722635983
 30
0.0
 10
145.3772092996511
 20
22.2479443673841
 30
0.0
 10
139.8916136580323
 20
16.76234334289599
 30
0.0
 10
133.1289754161872
 20
16.76234334289599
 30
0.0
 10
133.1289754161872
 20
16.76234334289599
 30
0.0
 10
133.1289754161872
 20
16.76234334289599
 30
0.0
 10
133.1289754161872
 20
16.76234334289599
 30
0.0
  0
SPLINE
  5
99
330
70
100
AcDbEntity
  8
cutting
 62
     5
420
      255
370
     9
100
AcDbSpline
210
0.0
220
0.0
230
1.0
 70
     9
 71
     3
 72
    17
 73
    13
 74
     0
 42
0.0000000001
 43
0.0000000001
 40
0.0
 40
0.0
 40
0.0
 40
0.0
 40
1.0
 40
1.0
 40
1.0
 40
2.0
 40
2.0
 40
2.0
 40
3.0
 40
3.0
 40
3.0
 40
4.0
 40
4.0
 40
4.0
 40
4.0
 10
120.7749143287694
 20
6.736572251237661
 30
0.0
 10
120.1963635718532
 20
6.736572251237661
 30
0.0
 10
119.7236507846289
 20
7.205759259286799
 30
0.0
 10
119.7236507846289
 20
7.787830412509506
 30
0.0
 10
119.7236507846289
 20
8.369901565732211
 30
0.0
 10
120.1928324098088
 20
8.839088573781349
 30
0.0
 10
120.7749143287694
 20
8.839088573781349
 30
0.0
 10
121.3569962477301
 20
8.839088573781349
 30
0.0
 10
121.8261778729099
 20
8.369901565732211
 30
0.0
 10
121.8261778729099
 20
7.787830412509506
 30
0.0
 10
121.8261778729099
 20
7.205759259286799
 30
0.0
 10
121.3569962477301
 20
6.736572251237661
 30
0.0
 10
120.7749143287694
 20
6.736572251237661
 30
0.0
  0
SPLINE
  5
9A
330
70
100
AcDbEntity
  8
cutting
 62
     5
420
      255
370
     9
100
AcDbSpline
210
0.0
220
0.0
230
1.0
 70
     9
 71
     3
 72
    17
 73
    13
 74
     0
 42
0.0000000001
 43
0.0000000001
 40
0.0
 40
0.0
 40
0.0
 40
0.0
 40
1.0
 40
1.0
 40
1.0
 40
2.0
 40
2.0
 40
2.0
 40
3.0
 40
3.0
 40
3.0
 40
4.0
 40
4.0
 40
4.0
 40
4.0
 10
120.7749143287694
 20
88.26211513916851
 30
0.0
 10
121.3534650856856
 20
88.26211513916851
 30
0.0
 10
121.8261778729099
 20
87.79292880397838
 30
0.0
 10
121.8261778729099
 20
87.210855463965
 30
0.0
 10
121.8261778729099
 20
86.62878212395165
 30
0.0
 10
121.3569962477301
 20
86.15959578876182
 30
0.0
 10
120.7749143287694
 20
86.15959578876182
 30
0.0
 10
120.1928324098088
 20
86.15959578876182
 30
0.0
 10
119.7236507846289
 20
86.62878212395165
 30
0.0
 10
119.7236507846289
 20
87.210855463965
 30
0.0
 10
119.7236507846289
 20
87.79292880397838
 30
0.0
 10
120.1928324098088
 20
88.26211513916851
 30
0.0
 10
120.7749143287694
 20
88.26211513916851
 30
0.0
  0
SPLINE
  5
9B
330
70
100
AcDbEntity
  8
cutting
 62
     5
420
      255
370
     9
100
AcDbSpline
210
0.0
220
0.0
230
1.0
 70
     9
 71
     3
 72
    44
 73
    40
 74
     0
 42
0.0000000001
 43
0.0000000001
 40
0.0
 40
0.0
 40
0.0
 40
0.0
 40
1.0
 40
1.0
 40
1.0
 40
2.0
 40
2.0
 40
2.0
 40
3.0
 40
3.0
 40
3.0
 40
4.0
 40
4.0
 40
4.0
 40
5.0
 40
5.0
 40
5.0
 40
6.0
 40
6.0
 40
6.0
 40
7.0
 40
7.0
 40
7.0
 40
8.0
 40
8.0
 40
8.0
 40
9.0
 40
9.0
 40
9.0
 40
10.0
 40
10.0
 40
10.0
 40
11.0
 40
11.0
 40
11.0
 40
12.0
 40
12.0
 40
12.0
 40
13.0
 40
13.0
 40
13.0
 40
13.0
 10
118.8699492974324
 20
89.82489374483057
 30
0.0
 10
118.4818982733713
 20
89.82489374483057
 30
0.0
 10
118.1714574541224
 20
89.5109269466514
 30
0.0
 10
118.1714574541224
 20
89.1264057389174
 30
0.0
 10
118.1714574541224
 20
89.1264057389174
 30
0.0
 10
118.1714574541224
 20
0.1150513023158231
 30
0.0
 10
118.1714574541224
 20
0.1150513023158231
 30
0.0
 10
123.2443162345828
 20
4.803384837890255
 30
0.0
 10
128.8251671254981
 20
8.948452322648414
 30
0.0
 10
134.4800970591812
 20
12.21512171737481
 30
0.0
 10
138.8544639963316
 20
14.74096838720961
 30
0.0
 10
143.4440272691723
 20
16.92815185578448
 30
0.0
 10
148.0512248207594
 20
18.70259308033293
 30
0.0
 10
148.0512248207594
 20
18.70259308033293
 30
0.0
 10
148.0794418199011
 20
81.14670990650331
 30
0.0
 10
148.0794418199011
 20
81.14670990650331
 30
0.0
 10
148.0794418199011
 20
81.53475891198846
 30
0.0
 10
148.3934138011944
 20
81.84519771266169
 30
0.0
 10
148.7779336632111
 20
81.84519771266169
 30
0.0
 10
148.7779336632111
 20
81.84519771266169
 30
0.0
 10
167.0726689007257
 20
81.84519771266169
 30
0.0
 10
167.0726689007257
 20
81.84519771266169
 30
0.0
 10
167.0726689007257
 20
81.84519771266169
 30
0.0
 10
167.0726689007257
 20
84.15937988170895
 30
0.0
 10
167.0726689007257
 20
84.15937988170895
 30
0.0
 10
167.0726689007257
 20
84.5474288871944
 30
0.0
 10
167.386640882019
 20
84.85786768786764
 30
0.0
 10
167.7711607440357
 20
84.85786768786764
 30
0.0
 10
167.7711607440357
 20
84.85786768786764
 30
0.0
 10
186.094112980692
 20
84.85786768786764
 30
0.0
 10
186.094112980692
 20
84.85786768786764
 30
0.0
 10
186.094112980692
 20
84.85786768786764
 30
0.0
 10
186.0800098639901
 20
89.82842100639757
 30
0.0
 10
186.0800098639901
 20
89.82842100639757
 30
0.0
 10
186.0800098639901
 20
89.82842100639757
 30
0.0
 10
118.8734696937389
 20
89.82842100639757
 30
0.0
 10
118.8734696937389
 20
89.82842100639757
 30
0.0
 10
118.8734696937389
 20
89.82842100639757
 30
0.0
 10
118.8699492974324
 20
89.82489374483057
 30
0.0
 10
118.8699492974324
 20
89.82489374483057
 30
0.0
  0
SPLINE
  5
9C
330
70
100
AcDbEntity
  8
cutting
 62
     5
420
      255
370
     9
100
AcDbSpline
210
0.0
220
0.0
230
1.0
 70
     9
 71
     3
 72
    17
 73
    13
 74
     0
 42
0.0000000001
 43
0.0000000001
 40
0.0
 40
0.0
 40
0.0
 40
0.0
 40
1.0
 40
1.0
 40
1.0
 40
2.0
 40
2.0
 40
2.0
 40
3.0
 40
3.0
 40
3.0
 40
4.0
 40
4.0
 40
4.0
 40
4.0
 10
181.4305029622973
 20
60.19559611806146
 30
0.0
 10
181.4305029622973
 20
60.77414149210837
 30
0.0
 10
181.8996953532151
 20
61.2468569707673
 30
0.0
 10
182.4817557406999
 20
61.2468569707673
 30
0.0
 10
183.0638161281847
 20
61.2468569707673
 30
0.0
 10
183.5330085191024
 20
60.77766996271849
 30
0.0
 10
183.5330085191024
 20
60.19559611806146
 30
0.0
 10
183.5330085191024
 20
59.61352227340411
 30
0.0
 10
183.0638161281847
 20
59.14433526535528
 30
0.0
 10
182.4817557406999
 20
59.14433526535528
 30
0.0
 10
181.8996953532151
 20
59.14433526535528
 30
0.0
 10
181.4305029622973
 20
59.61352227340411
 30
0.0
 10
181.4305029622973
 20
60.19559611806146
 30
0.0
  0
SPLINE
  5
9D
330
70
100
AcDbEntity
  8
cutting
 62
     5
420
      255
370
     9
100
AcDbSpline
210
0.0
220
0.0
230
1.0
 70
     9
 71
     3
 72
    17
 73
    13
 74
     0
 42
0.0000000001
 43
0.0000000001
 40
0.0
 40
0.0
 40
0.0
 40
0.0
 40
1.0
 40
1.0
 40
1.0
 40
2.0
 40
2.0
 40
2.0
 40
3.0
 40
3.0
 40
3.0
 40
4.0
 40
4.0
 40
4.0
 40
4.0
 10
182.4394248591183
 20
75.03670146434227
 30
0.0
 10
182.4394248591183
 20
75.61524683838951
 30
0.0
 10
182.9086172500361
 20
76.08796097133113
 30
0.0
 10
183.4906776375209
 20
76.08796097133113
 30
0.0
 10
184.0727380250056
 20
76.08796097133113
 30
0.0
 10
184.5419304159234
 20
75.61877396328231
 30
0.0
 10
184.5419304159234
 20
75.03670146434227
 30
0.0
 10
184.5419304159234
 20
74.45462896540225
 30
0.0
 10
184.0727380250056
 20
73.98544195735343
 30
0.0
 10
183.4906776375209
 20
73.98544195735343
 30
0.0
 10
182.9086172500361
 20
73.98544195735343
 30
0.0
 10
182.4394248591183
 20
74.45462896540225
 30
0.0
 10
182.4394248591183
 20
75.03670146434227
 30
0.0
  0
SPLINE
  5
9E
330
70
100
AcDbEntity
  8
cutting
 62
     5
420
      255
370
     9
100
AcDbSpline
210
0.0
220
0.0
230
1.0
 70
    11
 71
     3
 72
    44
 73
    40
 74
     0
 42
0.0000000001
 43
0.0000000001
 40
0.0
 40
0.0
 40
0.0
 40
0.0
 40
1.0
 40
1.0
 40
1.0
 40
2.0
 40
2.0
 40
2.0
 40
3.0
 40
3.0
 40
3.0
 40
4.0
 40
4.0
 40
4.0
 40
5.0
 40
5.0
 40
5.0
 40
6.0
 40
6.0
 40
6.0
 40
7.0
 40
7.0
 40
7.0
 40
8.0
 40
8.0
 40
8.0
 40
9.0
 40
9.0
 40
9.0
 40
10.0
 40
10.0
 40
10.0
 40
11.0
 40
11.0
 40
11.0
 40
12.0
 40
12.0
 40
12.0
 40
13.0
 40
13.0
 40
13.0
 40
13.0
 10
186.0906033501235
 20
37.24074165267956
 30
0.0
 10
186.0906033501235
 20
37.24074165267956
 30
0.0
 10
186.0906033501235
 20
79.54159893686815
 30
0.0
 10
186.0906033501235
 20
79.54159893686815
 30
0.0
 10
186.0906033501235
 20
79.54159893686815
 30
0.0
 10
180.4956493425062
 20
79.55218233012189
 30
0.0
 10
180.4956493425062
 20
79.55218233012189
 30
0.0
 10
180.4956493425062
 20
79.55218233012189
 30
0.0
 10
178.9222905712089
 20
57.04887588403217
 30
0.0
 10
178.9222905712089
 20
57.04887588403217
 30
0.0
 10
178.9222905712089
 20
57.04887588403217
 30
0.0
 10
178.9222905712089
 20
57.04887588403217
 30
0.0
 10
178.9222905712089
 20
57.04887588403217
 30
0.0
 10
178.9222905712089
 20
57.04887588403217
 30
0.0
 10
150.3830621271705
 20
59.0243968703958
 30
0.0
 10
150.3830621271705
 20
59.0243968703958
 30
0.0
 10
149.6634048430697
 20
59.07378469319763
 30
0.0
 10
149.5328810362805
 20
58.01546959070619
 30
0.0
 10
150.2454759962924
 20
57.89200003370225
 30
0.0
 10
150.2454759962924
 20
57.89200003370225
 30
0.0
 10
166.1625334152457
 20
55.10157458824459
 30
0.0
 10
166.1625334152457
 20
55.10157458824459
 30
0.0
 10
166.5435221152179
 20
55.03454710382777
 30
0.0
 10
166.7975181704454
 20
54.67119268260188
 30
0.0
 10
166.7304906860285
 20
54.29019859976069
 30
0.0
 10
166.7304906860285
 20
54.29019859976069
 30
0.0
 10
163.6014074221803
 20
36.53872403019376
 30
0.0
 10
163.6014074221803
 20
36.53872403019376
 30
0.0
 10
163.6014074221803
 20
36.53872403019376
 30
0.0
 10
185.3921222725514
 20
36.53872403019376
 30
0.0
 10
185.3921222725514
 20
36.53872403019376
 30
0.0
 10
185.7801625308745
 20
36.53872403019376
 30
0.0
 10
186.0906033501235
 20
36.8526906286178
 30
0.0
 10
186.0906033501235
 20
37.23721049063512
 30
0.0
 10
186.0906033501235
 20
37.23721049063512
 30
0.0
 10
186.0906033501235
 20
37.23721049063512
 30
0.0
 10
186.0906033501235
 20
37.23721049063512
 30
0.0
 10
186.0906033501235
 20
37.23721049063512
 30
0.0
 10
186.0906033501235
 20
37.24074165267956
 30
0.0
 10
186.0906033501235
 20
37.24074165267956
 30
0.0
  0
SPLINE
  5
9F
330
70
100
AcDbEntity
  8
cutting
 62
     5
420
      255
370
     9
100
AcDbSpline
210
0.0
220
0.0
230
1.0
 70
     9
 71
     3
 72
    20
 73
    16
 74
     0
 42
0.0000000001
 43
0.0000000001
 40
0.0
 40
0.0
 40
0.0
 40
0.0
 40
1.0
 40
1.0
 40
1.0
 40
2.0
 40
2.0
 40
2.0
 40
3.0
 40
3.0
 40
3.0
 40
4.0
 40
4.0
 40
4.0
 40
5.0
 40
5.0
 40
5.0
 40
5.0
 10
52.67939873096008
 20
48.79048907570203
 30
0.0
 10
52.67939873096008
 20
55.55312193467809
 30
0.0
 10
58.16499975544787
 20
61.03872295916588
 30
0.0
 10
64.92763261442393
 20
61.03872295916588
 30
0.0
 10
71.69026547339997
 20
61.03872295916588
 30
0.0
 10
77.17586649788777
 20
55.55312193467809
 30
0.0
 10
77.17586649788777
 20
48.79048907570203
 30
0.0
 10
77.17586649788777
 20
42.0278562167263
 30
0.0
 10
71.69379663544443
 20
36.5422551922382
 30
0.0
 10
64.92763261442393
 20
36.5422551922382
 30
0.0
 10
58.16146859340342
 20
36.5422551922382
 30
0.0
 10
52.67939873096008
 20
42.0278562167263
 30
0.0
 10
52.67939873096008
 20
48.79048907570203
 30
0.0
 10
52.67939873096008
 20
48.79048907570203
 30
0.0
 10
52.67939873096008
 20
48.79048907570203
 30
0.0
 10
52.67939873096008
 20
48.79048907570203
 30
0.0
  0
SPLINE
  5
A0
330
70
100
AcDbEntity
  8
cutting
 62
     5
420
      255
370
     9
100
AcDbSpline
210
0.0
220
0.0
230
1.0
 70
     9
 71
     3
 72
    20
 73
    16
 74
     0
 42
0.0000000001
 43
0.0000000001
 40
0.0
 40
0.0
 40
0.0
 40
0.0
 40
1.0
 40
1.0
 40
1.0
 40
2.0
 40
2.0
 40
2.0
 40
3.0
 40
3.0
 40
3.0
 40
4.0
 40
4.0
 40
4.0
 40
5.0
 40
5.0
 40
5.0
 40
5.0
 10
50.17824866396052
 20
48.79048907570203
 30
0.0
 10
50.17824866396052
 20
40.64499179541477
 30
0.0
 10
56.78213533413666
 20
34.04110512523864
 30
0.0
 10
64.92763261442393
 20
34.04110512523864
 30
0.0
 10
73.07312989471118
 20
34.04110512523864
 30
0.0
 10
79.67701656488732
 20
40.64499179541477
 30
0.0
 10
79.67701656488732
 20
48.79048907570203
 30
0.0
 10
79.67701656488732
 20
56.9359863559893
 30
0.0
 10
73.07312989471118
 20
63.53987302616544
 30
0.0
 10
64.92763261442393
 20
63.53987302616544
 30
0.0
 10
56.78213533413666
 20
63.53987302616544
 30
0.0
 10
50.17824866396052
 20
56.9359863559893
 30
0.0
 10
50.17824866396052
 20
48.79048907570203
 30
0.0
 10
50.17824866396052
 20
48.79048907570203
 30
0.0
 10
50.17824866396052
 20
48.79048907570203
 30
0.0
 10
50.17824866396052
 20
48.79048907570203
 30
0.0
  0
SPLINE
  5
A1
330
70
100
AcDbEntity
  8
cutting
 62
     5
420
      255
370
     9
100
AcDbSpline
210
0.0
220
0.0
230
1.0
 70
    11
 71
     3
 72
    17
 73
    13
 74
     0
 42
0.0000000001
 43
0.0000000001
 40
0.0
 40
0.0
 40
0.0
 40
0.0
 40
1.0
 40
1.0
 40
1.0
 40
2.0
 40
2.0
 40
2.0
 40
3.0
 40
3.0
 40
3.0
 40
4.0
 40
4.0
 40
4.0
 40
4.0
 10
19.77991454077685
 20
21.31309613046162
 30
0.0
 10
19.77991454077685
 20
20.73102497723891
 30
0.0
 10
19.31072753272771
 20
20.26183796919041
 30
0.0
 10
18.728655033788
 20
20.26183796919041
 30
0.0
 10
18.14658253484797
 20
20.26183796919041
 30
0.0
 10
17.67739552679916
 20
20.73102497723891
 30
0.0
 10
17.67739552679916
 20
21.31309613046162
 30
0.0
 10
17.67739552679916
 20
21.89516728368432
 30
0.0
 10
18.15010965974077
 20
22.36435429173282
 30
0.0
 10
18.728655033788
 20
22.36435429173282
 30
0.0
 10
19.30720040783523
 20
22.36435429173282
 30
0.0
 10
19.77991454077685
 20
21.89516728368432
 30
0.0
 10
19.77991454077685
 20
21.31309613046162
 30
0.0
  0
SPLINE
  5
A2
330
70
100
AcDbEntity
  8
cutting
 62
     5
420
      255
370
     9
100
AcDbSpline
210
0.0
220
0.0
230
1.0
 70
    11
 71
     3
 72
    17
 73
    13
 74
     0
 42
0.0000000001
 43
0.0000000001
 40
0.0
 40
0.0
 40
0.0
 40
0.0
 40
1.0
 40
1.0
 40
1.0
 40
2.0
 40
2.0
 40
2.0
 40
3.0
 40
3.0
 40
3.0
 40
4.0
 40
4.0
 40
4.0
 40
4.0
 10
8.205474552070464
 20
20.54052524438382
 30
0.0
 10
8.205474552070464
 20
19.95845409116112
 30
0.0
 10
7.736288216880309
 20
19.48926708311262
 30
0.0
 10
7.154215045081618
 20
19.48926708311262
 30
0.0
 10
6.572141873282927
 20
19.48926708311262
 30
0.0
 10
6.102955538092772
 20
19.95845409116112
 30
0.0
 10
6.102955538092772
 20
20.54052524438382
 30
0.0
 10
6.102955538092772
 20
21.12259639760653
 30
0.0
 10
6.575669671034387
 20
21.59178340565503
 30
0.0
 10
7.154215045081618
 20
21.59178340565503
 30
0.0
 10
7.732760419128849
 20
21.59178340565503
 30
0.0
 10
8.205474552070464
 20
21.12259639760653
 30
0.0
 10
8.205474552070464
 20
20.54052524438382
 30
0.0
  0
SPLINE
  5
A3
330
70
100
AcDbEntity
  8
cutting
 62
     5
420
      255
370
     9
100
AcDbSpline
210
0.0
220
0.0
230
1.0
 70
    11
 71
     3
 72
    17
 73
    13
 74
     0
 42
0.0000000001
 43
0.0000000001
 40
0.0
 40
0.0
 40
0.0
 40
0.0
 40
1.0
 40
1.0
 40
1.0
 40
2.0
 40
2.0
 40
2.0
 40
3.0
 40
3.0
 40
3.0
 40
4.0
 40
4.0
 40
4.0
 40
4.0
 10
24.05903430293402
 20
30.71799096649081
 30
0.0
 10
24.05903430293402
 20
30.99667824168486
 30
0.0
 10
24.28127950554065
 20
31.21892613572614
 30
0.0
 10
24.55996947216903
 20
31.21892613572614
 30
0.0
 10
24.8386594387974
 20
31.21892613572614
 30
0.0
 10
25.06090464140403
 20
30.99667824168486
 30
0.0
 10
25.06090464140403
 20
30.71799096649081
 30
0.0
 10
25.06090464140403
 20
30.43930369129676
 30
0.0
 10
24.83513096818728
 20
30.21705579725548
 30
0.0
 10
24.55996947216903
 20
30.21705579725548
 30
0.0
 10
24.28480797615077
 20
30.21705579725548
 30
0.0
 10
24.05903430293402
 20
30.43930369129676
 30
0.0
 10
24.05903430293402
 20
30.71799096649081
 30
0.0
  0
SPLINE
  5
A4
330
70
100
AcDbEntity
  8
cutting
 62
     5
420
      255
370
     9
100
AcDbSpline
210
0.0
220
0.0
230
1.0
 70
     9
 71
     3
 72
    17
 73
    13
 74
     0
 42
0.0000000001
 43
0.0000000001
 40
0.0
 40
0.0
 40
0.0
 40
0.0
 40
1.0
 40
1.0
 40
1.0
 40
2.0
 40
2.0
 40
2.0
 40
3.0
 40
3.0
 40
3.0
 40
4.0
 40
4.0
 40
4.0
 40
4.0
 10
24.05903430293402
 20
28.71777606872593
 30
0.0
 10
24.05903430293402
 20
28.99646334391999
 30
0.0
 10
24.28127950554065
 20
29.21871123796126
 30
0.0
 10
24.55996947216903
 20
29.21871123796126
 30
0.0
 10
24.8386594387974
 20
29.21871123796126
 30
0.0
 10
25.06090464140403
 20
28.99646334391999
 30
0.0
 10
25.06090464140403
 20
28.71777606872593
 30
0.0
 10
25.06090464140403
 20
28.43908879353252
 30
0.0
 10
24.83513096818728
 20
28.21684089949125
 30
0.0
 10
24.55996947216903
 20
28.21684089949125
 30
0.0
 10
24.28480797615077
 20
28.21684089949125
 30
0.0
 10
24.05903430293402
 20
28.43908879353252
 30
0.0
 10
24.05903430293402
 20
28.71777606872593
 30
0.0
  0
SPLINE
  5
A5
330
70
100
AcDbEntity
  8
cutting
 62
     5
420
      255
370
     9
100
AcDbSpline
210
0.0
220
0.0
230
1.0
 70
    11
 71
     3
 72
    17
 73
    13
 74
     0
 42
0.0000000001
 43
0.0000000001
 40
0.0
 40
0.0
 40
0.0
 40
0.0
 40
1.0
 40
1.0
 40
1.0
 40
2.0
 40
2.0
 40
2.0
 40
3.0
 40
3.0
 40
3.0
 40
4.0
 40
4.0
 40
4.0
 40
4.0
 10
24.05903430293402
 20
26.7175611709617
 30
0.0
 10
24.05903430293402
 20
26.99624844615511
 30
0.0
 10
24.28127950554065
 20
27.21849634019639
 30
0.0
 10
24.55996947216903
 20
27.21849634019639
 30
0.0
 10
24.8386594387974
 20
27.21849634019639
 30
0.0
 10
25.06090464140403
 20
26.99624844615511
 30
0.0
 10
25.06090464140403
 20
26.7175611709617
 30
0.0
 10
25.06090464140403
 20
26.43887389576829
 30
0.0
 10
24.83513096818728
 20
26.21662600172701
 30
0.0
 10
24.55996947216903
 20
26.21662600172701
 30
0.0
 10
24.28480797615077
 20
26.21662600172701
 30
0.0
 10
24.05903430293402
 20
26.43887389576829
 30
0.0
 10
24.05903430293402
 20
26.7175611709617
 30
0.0
  0
SPLINE
  5
A6
330
70
100
AcDbEntity
  8
cutting
 62
     5
420
      255
370
     9
100
AcDbSpline
210
0.0
220
0.0
230
1.0
 70
     9
 71
     3
 72
    17
 73
    13
 74
     0
 42
0.0000000001
 43
0.0000000001
 40
0.0
 40
0.0
 40
0.0
 40
0.0
 40
1.0
 40
1.0
 40
1.0
 40
2.0
 40
2.0
 40
2.0
 40
3.0
 40
3.0
 40
3.0
 40
4.0
 40
4.0
 40
4.0
 40
4.0
 10
24.05903430293402
 20
24.71734627319747
 30
0.0
 10
24.05903430293402
 20
24.99603354839088
 30
0.0
 10
24.28127950554065
 20
25.21828144243216
 30
0.0
 10
24.55996947216903
 20
25.21828144243216
 30
0.0
 10
24.8386594387974
 20
25.21828144243216
 30
0.0
 10
25.06090464140403
 20
24.99603354839088
 30
0.0
 10
25.06090464140403
 20
24.71734627319747
 30
0.0
 10
25.06090464140403
 20
24.43865899800341
 30
0.0
 10
24.83513096818728
 20
24.21641110396214
 30
0.0
 10
24.55996947216903
 20
24.21641110396214
 30
0.0
 10
24.28480797615077
 20
24.21641110396214
 30
0.0
 10
24.05903430293402
 20
24.43865899800341
 30
0.0
 10
24.05903430293402
 20
24.71734627319747
 30
0.0
  0
SPLINE
  5
A7
330
70
100
AcDbEntity
  8
cutting
 62
     5
420
      255
370
     9
100
AcDbSpline
210
0.0
220
0.0
230
1.0
 70
    11
 71
     3
 72
    17
 73
    13
 74
     0
 42
0.0000000001
 43
0.0000000001
 40
0.0
 40
0.0
 40
0.0
 40
0.0
 40
1.0
 40
1.0
 40
1.0
 40
2.0
 40
2.0
 40
2.0
 40
3.0
 40
3.0
 40
3.0
 40
4.0
 40
4.0
 40
4.0
 40
4.0
 10
24.05903430293402
 20
22.71713137543259
 30
0.0
 10
24.05903430293402
 20
22.99581865062664
 30
0.0
 10
24.28127950554065
 20
23.21806654466792
 30
0.0
 10
24.55996947216903
 20
23.21806654466792
 30
0.0
 10
24.8386594387974
 20
23.21806654466792
 30
0.0
 10
25.06090464140403
 20
22.99581865062664
 30
0.0
 10
25.06090464140403
 20
22.71713137543259
 30
0.0
 10
25.06090464140403
 20
22.43844410023854
 30
0.0
 10
24.83513096818728
 20
22.21619620619726
 30
0.0
 10
24.55996947216903
 20
22.21619620619726
 30
0.0
 10
24.28480797615077
 20
22.21619620619726
 30
0.0
 10
24.05903430293402
 20
22.43844410023854
 30
0.0
 10
24.05903430293402
 20
22.71713137543259
 30
0.0
  0
SPLINE
  5
A8
330
70
100
AcDbEntity
  8
cutting
 62
     5
420
      255
370
     9
100
AcDbSpline
210
0.0
220
0.0
230
1.0
 70
    11
 71
     3
 72
    17
 73
    13
 74
     0
 42
0.0000000001
 43
0.0000000001
 40
0.0
 40
0.0
 40
0.0
 40
0.0
 40
1.0
 40
1.0
 40
1.0
 40
2.0
 40
2.0
 40
2.0
 40
3.0
 40
3.0
 40
3.0
 40
4.0
 40
4.0
 40
4.0
 40
4.0
 10
26.05924920069857
 20
30.71799096649081
 30
0.0
 10
26.05924920069857
 20
30.99667824168486
 30
0.0
 10
26.28149440330552
 20
31.21892613572614
 30
0.0
 10
26.56018436993358
 20
31.21892613572614
 30
0.0
 10
26.83887433656164
 20
31.21892613572614
 30
0.0
 10
27.06111953916859
 20
30.99667824168486
 30
0.0
 10
27.06111953916859
 20
30.71799096649081
 30
0.0
 10
27.06111953916859
 20
30.43930369129676
 30
0.0
 10
26.83534586595184
 20
30.21705579725548
 30
0.0
 10
26.56018436993358
 20
30.21705579725548
 30
0.0
 10
26.28502287391532
 20
30.21705579725548
 30
0.0
 10
26.05924920069857
 20
30.43930369129676
 30
0.0
 10
26.05924920069857
 20
30.71799096649081
 30
0.0
  0
SPLINE
  5
A9
330
70
100
AcDbEntity
  8
cutting
 62
     5
420
      255
370
     9
100
AcDbSpline
210
0.0
220
0.0
230
1.0
 70
     9
 71
     3
 72
    17
 73
    13
 74
     0
 42
0.0000000001
 43
0.0000000001
 40
0.0
 40
0.0
 40
0.0
 40
0.0
 40
1.0
 40
1.0
 40
1.0
 40
2.0
 40
2.0
 40
2.0
 40
3.0
 40
3.0
 40
3.0
 40
4.0
 40
4.0
 40
4.0
 40
4.0
 10
26.05924920069857
 20
28.71777606872593
 30
0.0
 10
26.05924920069857
 20
28.99646334391999
 30
0.0
 10
26.28149440330552
 20
29.21871123796126
 30
0.0
 10
26.56018436993358
 20
29.21871123796126
 30
0.0
 10
26.83887433656164
 20
29.21871123796126
 30
0.0
 10
27.06111953916859
 20
28.99646334391999
 30
0.0
 10
27.06111953916859
 20
28.71777606872593
 30
0.0
 10
27.06111953916859
 20
28.43908879353252
 30
0.0
 10
26.83534586595184
 20
28.21684089949125
 30
0.0
 10
26.56018436993358
 20
28.21684089949125
 30
0.0
 10
26.28502287391532
 20
28.21684089949125
 30
0.0
 10
26.05924920069857
 20
28.43908879353252
 30
0.0
 10
26.05924920069857
 20
28.71777606872593
 30
0.0
  0
SPLINE
  5
AA
330
70
100
AcDbEntity
  8
cutting
 62
     5
420
      255
370
     9
100
AcDbSpline
210
0.0
220
0.0
230
1.0
 70
    11
 71
     3
 72
    17
 73
    13
 74
     0
 42
0.0000000001
 43
0.0000000001
 40
0.0
 40
0.0
 40
0.0
 40
0.0
 40
1.0
 40
1.0
 40
1.0
 40
2.0
 40
2.0
 40
2.0
 40
3.0
 40
3.0
 40
3.0
 40
4.0
 40
4.0
 40
4.0
 40
4.0
 10
26.05924920069857
 20
26.7175611709617
 30
0.0
 10
26.05924920069857
 20
26.99624844615511
 30
0.0
 10
26.28149440330552
 20
27.21849634019639
 30
0.0
 10
26.56018436993358
 20
27.21849634019639
 30
0.0
 10
26.83887433656164
 20
27.21849634019639
 30
0.0
 10
27.06111953916859
 20
26.99624844615511
 30
0.0
 10
27.06111953916859
 20
26.7175611709617
 30
0.0
 10
27.06111953916859
 20
26.43887389576829
 30
0.0
 10
26.83534586595184
 20
26.21662600172701
 30
0.0
 10
26.56018436993358
 20
26.21662600172701
 30
0.0
 10
26.28502287391532
 20
26.21662600172701
 30
0.0
 10
26.05924920069857
 20
26.43887389576829
 30
0.0
 10
26.05924920069857
 20
26.7175611709617
 30
0.0
  0
SPLINE
  5
AB
330
70
100
AcDbEntity
  8
cutting
 62
     5
420
      255
370
     9
100
AcDbSpline
210
0.0
220
0.0
230
1.0
 70
     9
 71
     3
 72
    17
 73
    13
 74
     0
 42
0.0000000001
 43
0.0000000001
 40
0.0
 40
0.0
 40
0.0
 40
0.0
 40
1.0
 40
1.0
 40
1.0
 40
2.0
 40
2.0
 40
2.0
 40
3.0
 40
3.0
 40
3.0
 40
4.0
 40
4.0
 40
4.0
 40
4.0
 10
26.05924920069857
 20
24.71734627319747
 30
0.0
 10
26.05924920069857
 20
24.99603354839088
 30
0.0
 10
26.28149440330552
 20
25.21828144243216
 30
0.0
 10
26.56018436993358
 20
25.21828144243216
 30
0.0
 10
26.83887433656164
 20
25.21828144243216
 30
0.0
 10
27.06111953916859
 20
24.99603354839088
 30
0.0
 10
27.06111953916859
 20
24.71734627319747
 30
0.0
 10
27.06111953916859
 20
24.43865899800341
 30
0.0
 10
26.83534586595184
 20
24.21641110396214
 30
0.0
 10
26.56018436993358
 20
24.21641110396214
 30
0.0
 10
26.28502287391532
 20
24.21641110396214
 30
0.0
 10
26.05924920069857
 20
24.43865899800341
 30
0.0
 10
26.05924920069857
 20
24.71734627319747
 30
0.0
  0
SPLINE
  5
AC
330
70
100
AcDbEntity
  8
cutting
 62
     5
420
      255
370
     9
100
AcDbSpline
210
0.0
220
0.0
230
1.0
 70
    11
 71
     3
 72
    17
 73
    13
 74
     0
 42
0.0000000001
 43
0.0000000001
 40
0.0
 40
0.0
 40
0.0
 40
0.0
 40
1.0
 40
1.0
 40
1.0
 40
2.0
 40
2.0
 40
2.0
 40
3.0
 40
3.0
 40
3.0
 40
4.0
 40
4.0
 40
4.0
 40
4.0
 10
26.05924920069857
 20
22.71713137543259
 30
0.0
 10
26.05924920069857
 20
22.99581865062664
 30
0.0
 10
26.28149440330552
 20
23.21806654466792
 30
0.0
 10
26.56018436993358
 20
23.21806654466792
 30
0.0
 10
26.83887433656164
 20
23.21806654466792
 30
0.0
 10
27.06111953916859
 20
22.99581865062664
 30
0.0
 10
27.06111953916859
 20
22.71713137543259
 30
0.0
 10
27.06111953916859
 20
22.43844410023854
 30
0.0
 10
26.83534586595184
 20
22.21619620619726
 30
0.0
 10
26.56018436993358
 20
22.21619620619726
 30
0.0
 10
26.28502287391532
 20
22.21619620619726
 30
0.0
 10
26.05924920069857
 20
22.43844410023854
 30
0.0
 10
26.05924920069857
 20
22.71713137543259
 30
0.0
  0
SPLINE
  5
AD
330
70
100
AcDbEntity
  8
cutting
 62
     5
420
      255
370
     9
100
AcDbSpline
210
0.0
220
0.0
230
1.0
 70
    11
 71
     3
 72
    17
 73
    13
 74
     0
 42
0.0000000001
 43
0.0000000001
 40
0.0
 40
0.0
 40
0.0
 40
0.0
 40
1.0
 40
1.0
 40
1.0
 40
2.0
 40
2.0
 40
2.0
 40
3.0
 40
3.0
 40
3.0
 40
4.0
 40
4.0
 40
4.0
 40
4.0
 10
28.05946409846313
 20
30.71799096649081
 30
0.0
 10
28.05946409846313
 20
30.99667824168486
 30
0.0
 10
28.28170930106976
 20
31.21892613572614
 30
0.0
 10
28.56039926769814
 20
31.21892613572614
 30
0.0
 10
28.83908923432651
 20
31.21892613572614
 30
0.0
 10
29.06133443693314
 20
30.99667824168486
 30
0.0
 10
29.06133443693314
 20
30.71799096649081
 30
0.0
 10
29.06133443693314
 20
30.43930369129676
 30
0.0
 10
28.83556076371639
 20
30.21705579725548
 30
0.0
 10
28.56039926769814
 20
30.21705579725548
 30
0.0
 10
28.28523777167988
 20
30.21705579725548
 30
0.0
 10
28.05946409846313
 20
30.43930369129676
 30
0.0
 10
28.05946409846313
 20
30.71799096649081
 30
0.0
  0
SPLINE
  5
AE
330
70
100
AcDbEntity
  8
cutting
 62
     5
420
      255
370
     9
100
AcDbSpline
210
0.0
220
0.0
230
1.0
 70
     9
 71
     3
 72
    17
 73
    13
 74
     0
 42
0.0000000001
 43
0.0000000001
 40
0.0
 40
0.0
 40
0.0
 40
0.0
 40
1.0
 40
1.0
 40
1.0
 40
2.0
 40
2.0
 40
2.0
 40
3.0
 40
3.0
 40
3.0
 40
4.0
 40
4.0
 40
4.0
 40
4.0
 10
28.05946409846313
 20
28.71777606872593
 30
0.0
 10
28.05946409846313
 20
28.99646334391999
 30
0.0
 10
28.28170930106976
 20
29.21871123796126
 30
0.0
 10
28.56039926769814
 20
29.21871123796126
 30
0.0
 10
28.83908923432651
 20
29.21871123796126
 30
0.0
 10
29.06133443693314
 20
28.99646334391999
 30
0.0
 10
29.06133443693314
 20
28.71777606872593
 30
0.0
 10
29.06133443693314
 20
28.43908879353252
 30
0.0
 10
28.83556076371639
 20
28.21684089949125
 30
0.0
 10
28.56039926769814
 20
28.21684089949125
 30
0.0
 10
28.28523777167988
 20
28.21684089949125
 30
0.0
 10
28.05946409846313
 20
28.43908879353252
 30
0.0
 10
28.05946409846313
 20
28.71777606872593
 30
0.0
  0
SPLINE
  5
AF
330
70
100
AcDbEntity
  8
cutting
 62
     5
420
      255
370
     9
100
AcDbSpline
210
0.0
220
0.0
230
1.0
 70
    11
 71
     3
 72
    17
 73
    13
 74
     0
 42
0.0000000001
 43
0.0000000001
 40
0.0
 40
0.0
 40
0.0
 40
0.0
 40
1.0
 40
1.0
 40
1.0
 40
2.0
 40
2.0
 40
2.0
 40
3.0
 40
3.0
 40
3.0
 40
4.0
 40
4.0
 40
4.0
 40
4.0
 10
28.05946409846313
 20
26.7175611709617
 30
0.0
 10
28.05946409846313
 20
26.99624844615511
 30
0.0
 10
28.28170930106976
 20
27.21849634019639
 30
0.0
 10
28.56039926769814
 20
27.21849634019639
 30
0.0
 10
28.83908923432651
 20
27.21849634019639
 30
0.0
 10
29.06133443693314
 20
26.99624844615511
 30
0.0
 10
29.06133443693314
 20
26.7175611709617
 30
0.0
 10
29.06133443693314
 20
26.43887389576829
 30
0.0
 10
28.83556076371639
 20
26.21662600172701
 30
0.0
 10
28.56039926769814
 20
26.21662600172701
 30
0.0
 10
28.28523777167988
 20
26.21662600172701
 30
0.0
 10
28.05946409846313
 20
26.43887389576829
 30
0.0
 10
28.05946409846313
 20
26.7175611709617
 30
0.0
  0
SPLINE
  5
B0
330
70
100
AcDbEntity
  8
cutting
 62
     5
420
      255
370
     9
100
AcDbSpline
210
0.0
220
0.0
230
1.0
 70
     9
 71
     3
 72
    17
 73
    13
 74
     0
 42
0.0000000001
 43
0.0000000001
 40
0.0
 40
0.0
 40
0.0
 40
0.0
 40
1.0
 40
1.0
 40
1.0
 40
2.0
 40
2.0
 40
2.0
 40
3.0
 40
3.0
 40
3.0
 40
4.0
 40
4.0
 40
4.0
 40
4.0
 10
28.05946409846313
 20
24.71734627319747
 30
0.0
 10
28.05946409846313
 20
24.99603354839088
 30
0.0
 10
28.28170930106976
 20
25.21828144243216
 30
0.0
 10
28.56039926769814
 20
25.21828144243216
 30
0.0
 10
28.83908923432651
 20
25.21828144243216
 30
0.0
 10
29.06133443693314
 20
24.99603354839088
 30
0.0
 10
29.06133443693314
 20
24.71734627319747
 30
0.0
 10
29.06133443693314
 20
24.43865899800341
 30
0.0
 10
28.83556076371639
 20
24.21641110396214
 30
0.0
 10
28.56039926769814
 20
24.21641110396214
 30
0.0
 10
28.28523777167988
 20
24.21641110396214
 30
0.0
 10
28.05946409846313
 20
24.43865899800341
 30
0.0
 10
28.05946409846313
 20
24.71734627319747
 30
0.0
  0
SPLINE
  5
B1
330
70
100
AcDbEntity
  8
cutting
 62
     5
420
      255
370
     9
100
AcDbSpline
210
0.0
220
0.0
230
1.0
 70
    11
 71
     3
 72
    17
 73
    13
 74
     0
 42
0.0000000001
 43
0.0000000001
 40
0.0
 40
0.0
 40
0.0
 40
0.0
 40
1.0
 40
1.0
 40
1.0
 40
2.0
 40
2.0
 40
2.0
 40
3.0
 40
3.0
 40
3.0
 40
4.0
 40
4.0
 40
4.0
 40
4.0
 10
28.05946409846313
 20
22.71713137543259
 30
0.0
 10
28.05946409846313
 20
22.99581865062664
 30
0.0
 10
28.28170930106976
 20
23.21806654466792
 30
0.0
 10
28.56039926769814
 20
23.21806654466792
 30
0.0
 10
28.83908923432651
 20
23.21806654466792
 30
0.0
 10
29.06133443693314
 20
22.99581865062664
 30
0.0
 10
29.06133443693314
 20
22.71713137543259
 30
0.0
 10
29.06133443693314
 20
22.43844410023854
 30
0.0
 10
28.83556076371639
 20
22.21619620619726
 30
0.0
 10
28.56039926769814
 20
22.21619620619726
 30
0.0
 10
28.28523777167988
 20
22.21619620619726
 30
0.0
 10
28.05946409846313
 20
22.43844410023854
 30
0.0
 10
28.05946409846313
 20
22.71713137543259
 30
0.0
  0
SPLINE
  5
B2
330
70
100
AcDbEntity
  8
cutting
 62
     5
420
      255
370
     9
100
AcDbSpline
210
0.0
220
0.0
230
1.0
 70
    11
 71
     3
 72
    17
 73
    13
 74
     0
 42
0.0000000001
 43
0.0000000001
 40
0.0
 40
0.0
 40
0.0
 40
0.0
 40
1.0
 40
1.0
 40
1.0
 40
2.0
 40
2.0
 40
2.0
 40
3.0
 40
3.0
 40
3.0
 40
4.0
 40
4.0
 40
4.0
 40
4.0
 10
30.05967899622768
 20
30.71799096649081
 30
0.0
 10
30.05967899622768
 20
30.99667824168486
 30
0.0
 10
30.28192419883463
 20
31.21892613572614
 30
0.0
 10
30.56061416546269
 20
31.21892613572614
 30
0.0
 10
30.83930413209075
 20
31.21892613572614
 30
0.0
 10
31.0615493346977
 20
30.99667824168486
 30
0.0
 10
31.0615493346977
 20
30.71799096649081
 30
0.0
 10
31.0615493346977
 20
30.43930369129676
 30
0.0
 10
30.83577566148095
 20
30.21705579725548
 30
0.0
 10
30.56061416546269
 20
30.21705579725548
 30
0.0
 10
30.28545266944443
 20
30.21705579725548
 30
0.0
 10
30.05967899622768
 20
30.43930369129676
 30
0.0
 10
30.05967899622768
 20
30.71799096649081
 30
0.0
  0
SPLINE
  5
B3
330
70
100
AcDbEntity
  8
cutting
 62
     5
420
      255
370
     9
100
AcDbSpline
210
0.0
220
0.0
230
1.0
 70
     9
 71
     3
 72
    17
 73
    13
 74
     0
 42
0.0000000001
 43
0.0000000001
 40
0.0
 40
0.0
 40
0.0
 40
0.0
 40
1.0
 40
1.0
 40
1.0
 40
2.0
 40
2.0
 40
2.0
 40
3.0
 40
3.0
 40
3.0
 40
4.0
 40
4.0
 40
4.0
 40
4.0
 10
30.05967899622768
 20
28.71777606872593
 30
0.0
 10
30.05967899622768
 20
28.99646334391999
 30
0.0
 10
30.28192419883463
 20
29.21871123796126
 30
0.0
 10
30.56061416546269
 20
29.21871123796126
 30
0.0
 10
30.83930413209075
 20
29.21871123796126
 30
0.0
 10
31.0615493346977
 20
28.99646334391999
 30
0.0
 10
31.0615493346977
 20
28.71777606872593
 30
0.0
 10
31.0615493346977
 20
28.43908879353252
 30
0.0
 10
30.83577566148095
 20
28.21684089949125
 30
0.0
 10
30.56061416546269
 20
28.21684089949125
 30
0.0
 10
30.28545266944443
 20
28.21684089949125
 30
0.0
 10
30.05967899622768
 20
28.43908879353252
 30
0.0
 10
30.05967899622768
 20
28.71777606872593
 30
0.0
  0
SPLINE
  5
B4
330
70
100
AcDbEntity
  8
cutting
 62
     5
420
      255
370
     9
100
AcDbSpline
210
0.0
220
0.0
230
1.0
 70
    11
 71
     3
 72
    17
 73
    13
 74
     0
 42
0.0000000001
 43
0.0000000001
 40
0.0
 40
0.0
 40
0.0
 40
0.0
 40
1.0
 40
1.0
 40
1.0
 40
2.0
 40
2.0
 40
2.0
 40
3.0
 40
3.0
 40
3.0
 40
4.0
 40
4.0
 40
4.0
 40
4.0
 10
30.05967899622768
 20
26.7175611709617
 30
0.0
 10
30.05967899622768
 20
26.99624844615511
 30
0.0
 10
30.28192419883463
 20
27.21849634019639
 30
0.0
 10
30.56061416546269
 20
27.21849634019639
 30
0.0
 10
30.83930413209075
 20
27.21849634019639
 30
0.0
 10
31.0615493346977
 20
26.99624844615511
 30
0.0
 10
31.0615493346977
 20
26.7175611709617
 30
0.0
 10
31.0615493346977
 20
26.43887389576829
 30
0.0
 10
30.83577566148095
 20
26.21662600172701
 30
0.0
 10
30.56061416546269
 20
26.21662600172701
 30
0.0
 10
30.28545266944443
 20
26.21662600172701
 30
0.0
 10
30.05967899622768
 20
26.43887389576829
 30
0.0
 10
30.05967899622768
 20
26.7175611709617
 30
0.0
  0
SPLINE
  5
B5
330
70
100
AcDbEntity
  8
cutting
 62
     5
420
      255
370
     9
100
AcDbSpline
210
0.0
220
0.0
230
1.0
 70
     9
 71
     3
 72
    17
 73
    13
 74
     0
 42
0.0000000001
 43
0.0000000001
 40
0.0
 40
0.0
 40
0.0
 40
0.0
 40
1.0
 40
1.0
 40
1.0
 40
2.0
 40
2.0
 40
2.0
 40
3.0
 40
3.0
 40
3.0
 40
4.0
 40
4.0
 40
4.0
 40
4.0
 10
30.05967899622768
 20
24.71734627319747
 30
0.0
 10
30.05967899622768
 20
24.99603354839088
 30
0.0
 10
30.28192419883463
 20
25.21828144243216
 30
0.0
 10
30.56061416546269
 20
25.21828144243216
 30
0.0
 10
30.83930413209075
 20
25.21828144243216
 30
0.0
 10
31.0615493346977
 20
24.99603354839088
 30
0.0
 10
31.0615493346977
 20
24.71734627319747
 30
0.0
 10
31.0615493346977
 20
24.43865899800341
 30
0.0
 10
30.83577566148095
 20
24.21641110396214
 30
0.0
 10
30.56061416546269
 20
24.21641110396214
 30
0.0
 10
30.28545266944443
 20
24.21641110396214
 30
0.0
 10
30.05967899622768
 20
24.43865899800341
 30
0.0
 10
30.05967899622768
 20
24.71734627319747
 30
0.0
  0
SPLINE
  5
B6
330
70
100
AcDbEntity
  8
cutting
 62
     5
420
      255
370
     9
100
AcDbSpline
210
0.0
220
0.0
230
1.0
 70
    11
 71
     3
 72
    17
 73
    13
 74
     0
 42
0.0000000001
 43
0.0000000001
 40
0.0
 40
0.0
 40
0.0
 40
0.0
 40
1.0
 40
1.0
 40
1.0
 40
2.0
 40
2.0
 40
2.0
 40
3.0
 40
3.0
 40
3.0
 40
4.0
 40
4.0
 40
4.0
 40
4.0
 10
30.05967899622768
 20
22.71713137543259
 30
0.0
 10
30.05967899622768
 20
22.99581865062664
 30
0.0
 10
30.28192419883463
 20
23.21806654466792
 30
0.0
 10
30.56061416546269
 20
23.21806654466792
 30
0.0
 10
30.83930413209075
 20
23.21806654466792
 30
0.0
 10
31.0615493346977
 20
22.99581865062664
 30
0.0
 10
31.0615493346977
 20
22.71713137543259
 30
0.0
 10
31.0615493346977
 20
22.43844410023854
 30
0.0
 10
30.83577566148095
 20
22.21619620619726
 30
0.0
 10
30.56061416546269
 20
22.21619620619726
 30
0.0
 10
30.28545266944443
 20
22.21619620619726
 30
0.0
 10
30.05967899622768
 20
22.43844410023854
 30
0.0
 10
30.05967899622768
 20
22.71713137543259
 30
0.0
  0
SPLINE
  5
B7
330
70
100
AcDbEntity
  8
cutting
 62
     5
420
      255
370
     9
100
AcDbSpline
210
0.0
220
0.0
230
1.0
 70
     9
 71
     3
 72
    17
 73
    13
 74
     0
 42
0.0000000001
 43
0.0000000001
 40
0.0
 40
0.0
 40
0.0
 40
0.0
 40
1.0
 40
1.0
 40
1.0
 40
2.0
 40
2.0
 40
2.0
 40
3.0
 40
3.0
 40
3.0
 40
4.0
 40
4.0
 40
4.0
 40
4.0
 10
32.05989389399223
 20
30.7179963493601
 30
0.0
 10
32.05989389399223
 20
30.99668362455351
 30
0.0
 10
32.28213909659886
 20
31.21893151859479
 30
0.0
 10
32.56082906322724
 20
31.21893151859479
 30
0.0
 10
32.83951902985562
 20
31.21893151859479
 30
0.0
 10
33.06176423246225
 20
30.99668362455351
 30
0.0
 10
33.06176423246225
 20
30.7179963493601
 30
0.0
 10
33.06176423246225
 20
30.43930907416604
 30
0.0
 10
32.8359905592455
 20
30.21706118012477
 30
0.0
 10
32.56082906322724
 20
30.21706118012477
 30
0.0
 10
32.28566756720898
 20
30.21706118012477
 30
0.0
 10
32.05989389399223
 20
30.43930907416604
 30
0.0
 10
32.05989389399223
 20
30.7179963493601
 30
0.0
  0
SPLINE
  5
B8
330
70
100
AcDbEntity
  8
cutting
 62
     5
420
      255
370
     9
100
AcDbSpline
210
0.0
220
0.0
230
1.0
 70
    11
 71
     3
 72
    17
 73
    13
 74
     0
 42
0.0000000001
 43
0.0000000001
 40
0.0
 40
0.0
 40
0.0
 40
0.0
 40
1.0
 40
1.0
 40
1.0
 40
2.0
 40
2.0
 40
2.0
 40
3.0
 40
3.0
 40
3.0
 40
4.0
 40
4.0
 40
4.0
 40
4.0
 10
32.05989389399223
 20
28.71778145159522
 30
0.0
 10
32.05989389399223
 20
28.99646872678928
 30
0.0
 10
32.28213909659886
 20
29.21871662083055
 30
0.0
 10
32.56082906322724
 20
29.21871662083055
 30
0.0
 10
32.83951902985562
 20
29.21871662083055
 30
0.0
 10
33.06176423246225
 20
28.99646872678928
 30
0.0
 10
33.06176423246225
 20
28.71778145159522
 30
0.0
 10
33.06176423246225
 20
28.43909417640117
 30
0.0
 10
32.8359905592455
 20
28.2168462823599
 30
0.0
 10
32.56082906322724
 20
28.2168462823599
 30
0.0
 10
32.28566756720898
 20
28.2168462823599
 30
0.0
 10
32.05989389399223
 20
28.43909417640117
 30
0.0
 10
32.05989389399223
 20
28.71778145159522
 30
0.0
  0
SPLINE
  5
B9
330
70
100
AcDbEntity
  8
cutting
 62
     5
420
      255
370
     9
100
AcDbSpline
210
0.0
220
0.0
230
1.0
 70
     9
 71
     3
 72
    17
 73
    13
 74
     0
 42
0.0000000001
 43
0.0000000001
 40
0.0
 40
0.0
 40
0.0
 40
0.0
 40
1.0
 40
1.0
 40
1.0
 40
2.0
 40
2.0
 40
2.0
 40
3.0
 40
3.0
 40
3.0
 40
4.0
 40
4.0
 40
4.0
 40
4.0
 10
32.05989389399223
 20
26.71756655383035
 30
0.0
 10
32.05989389399223
 20
26.99625382902441
 30
0.0
 10
32.28213909659886
 20
27.21850172306568
 30
0.0
 10
32.56082906322724
 20
27.21850172306568
 30
0.0
 10
32.83951902985562
 20
27.21850172306568
 30
0.0
 10
33.06176423246225
 20
26.99625382902441
 30
0.0
 10
33.06176423246225
 20
26.71756655383035
 30
0.0
 10
33.06176423246225
 20
26.43887927863694
 30
0.0
 10
32.8359905592455
 20
26.21663138459566
 30
0.0
 10
32.56082906322724
 20
26.21663138459566
 30
0.0
 10
32.28566756720898
 20
26.21663138459566
 30
0.0
 10
32.05989389399223
 20
26.43887927863694
 30
0.0
 10
32.05989389399223
 20
26.71756655383035
 30
0.0
  0
SPLINE
  5
BA
330
70
100
AcDbEntity
  8
cutting
 62
     5
420
      255
370
     9
100
AcDbSpline
210
0.0
220
0.0
230
1.0
 70
    11
 71
     3
 72
    17
 73
    13
 74
     0
 42
0.0000000001
 43
0.0000000001
 40
0.0
 40
0.0
 40
0.0
 40
0.0
 40
1.0
 40
1.0
 40
1.0
 40
2.0
 40
2.0
 40
2.0
 40
3.0
 40
3.0
 40
3.0
 40
4.0
 40
4.0
 40
4.0
 40
4.0
 10
32.05989389399223
 20
24.71735165606612
 30
0.0
 10
32.05989389399223
 20
24.99603893125953
 30
0.0
 10
32.28213909659886
 20
25.2182868253008
 30
0.0
 10
32.56082906322724
 20
25.2182868253008
 30
0.0
 10
32.83951902985562
 20
25.2182868253008
 30
0.0
 10
33.06176423246225
 20
24.99603893125953
 30
0.0
 10
33.06176423246225
 20
24.71735165606612
 30
0.0
 10
33.06176423246225
 20
24.4386643808727
 30
0.0
 10
32.8359905592455
 20
24.21641648683143
 30
0.0
 10
32.56082906322724
 20
24.21641648683143
 30
0.0
 10
32.28566756720898
 20
24.21641648683143
 30
0.0
 10
32.05989389399223
 20
24.4386643808727
 30
0.0
 10
32.05989389399223
 20
24.71735165606612
 30
0.0
  0
SPLINE
  5
BB
330
70
100
AcDbEntity
  8
cutting
 62
     5
420
      255
370
     9
100
AcDbSpline
210
0.0
220
0.0
230
1.0
 70
     9
 71
     3
 72
    17
 73
    13
 74
     0
 42
0.0000000001
 43
0.0000000001
 40
0.0
 40
0.0
 40
0.0
 40
0.0
 40
1.0
 40
1.0
 40
1.0
 40
2.0
 40
2.0
 40
2.0
 40
3.0
 40
3.0
 40
3.0
 40
4.0
 40
4.0
 40
4.0
 40
4.0
 10
32.05989389399223
 20
22.71713675830188
 30
0.0
 10
32.05989389399223
 20
22.9958240334953
 30
0.0
 10
32.28213909659886
 20
23.21807192753657
 30
0.0
 10
32.56082906322724
 20
23.21807192753657
 30
0.0
 10
32.83951902985562
 20
23.21807192753657
 30
0.0
 10
33.06176423246225
 20
22.9958240334953
 30
0.0
 10
33.06176423246225
 20
22.71713675830188
 30
0.0
 10
33.06176423246225
 20
22.43844948310783
 30
0.0
 10
32.8359905592455
 20
22.21620158906655
 30
0.0
 10
32.56082906322724
 20
22.21620158906655
 30
0.0
 10
32.28566756720898
 20
22.21620158906655
 30
0.0
 10
32.05989389399223
 20
22.43844948310783
 30
0.0
 10
32.05989389399223
 20
22.71713675830188
 30
0.0
  0
SPLINE
  5
BC
330
70
100
AcDbEntity
  8
cutting
 62
     5
420
      255
370
     9
100
AcDbSpline
210
0.0
220
0.0
230
1.0
 70
     9
 71
     3
 72
    44
 73
    40
 74
     0
 42
0.0000000001
 43
0.0000000001
 40
0.0
 40
0.0
 40
0.0
 40
0.0
 40
1.0
 40
1.0
 40
1.0
 40
2.0
 40
2.0
 40
2.0
 40
3.0
 40
3.0
 40
3.0
 40
4.0
 40
4.0
 40
4.0
 40
5.0
 40
5.0
 40
5.0
 40
6.0
 40
6.0
 40
6.0
 40
7.0
 40
7.0
 40
7.0
 40
8.0
 40
8.0
 40
8.0
 40
9.0
 40
9.0
 40
9.0
 40
10.0
 40
10.0
 40
10.0
 40
11.0
 40
11.0
 40
11.0
 40
12.0
 40
12.0
 40
12.0
 40
13.0
 40
13.0
 40
13.0
 40
13.0
 10
21.5966839554716
 20
25.87444240416058
 30
0.0
 10
21.62490633748232
 20
25.48639138009946
 30
0.0
 10
21.33210517984874
 20
25.15479050292842
 30
0.0
 10
20.94758397211474
 20
25.12656812091803
 30
0.0
 10
20.94758397211474
 20
25.12656812091803
 30
0.0
 10
2.751618997334227
 20
23.85306206560491
 30
0.0
 10
2.751618997334227
 20
23.85306206560491
 30
0.0
 10
2.751618997334227
 20
23.85306206560491
 30
0.0
 10
4.085095932273261
 20
16.54010621459265
 30
0.0
 10
4.085095932273261
 20
16.54010621459265
 30
0.0
 10
4.085095932273261
 20
16.54010621459265
 30
0.0
 10
19.17666852674241
 20
17.5984213170841
 30
0.0
 10
19.17666852674241
 20
17.5984213170841
 30
0.0
 10
19.17666852674241
 20
17.5984213170841
 30
0.0
 10
35.1572263052197
 20
17.5984213170841
 30
0.0
 10
35.1572263052197
 20
17.5984213170841
 30
0.0
 10
35.1572263052197
 20
17.5984213170841
 30
0.0
 10
35.18192021662061
 20
24.09647540043698
 30
0.0
 10
35.18192021662061
 20
24.09647540043698
 30
0.0
 10
35.18192021662061
 20
24.48452642449874
 30
0.0
 10
35.49588681504499
 20
24.79849302292278
 30
0.0
 10
35.88393514767146
 20
24.79849302292278
 30
0.0
 10
35.88393514767146
 20
24.79849302292278
 30
0.0
 10
38.1310918508782
 20
24.79849302292278
 30
0.0
 10
38.1310918508782
 20
24.79849302292278
 30
0.0
 10
38.1310918508782
 20
24.79849302292278
 30
0.0
 10
38.1310918508782
 20
34.74665390976825
 30
0.0
 10
38.1310918508782
 20
34.74665390976825
 30
0.0
 10
38.1310918508782
 20
34.74665390976825
 30
0.0
 10
20.97580500840846
 20
34.74665390976825
 30
0.0
 10
20.97580500840846
 20
34.74665390976825
 30
0.0
 10
20.97580500840846
 20
34.74665390976825
 30
0.0
 10
21.59668260975427
 20
25.87091662498542
 30
0.0
 10
21.59668260975427
 20
25.87091662498542
 30
0.0
 10
21.59668260975427
 20
25.87091662498542
 30
0.0
 10
21.59668260975427
 20
25.87091662498542
 30
0.0
 10
21.59668260975427
 20
25.87091662498542
 30
0.0
 10
21.59668260975427
 20
25.87091662498542
 30
0.0
 10
21.5966839554716
 20
25.87444240416058
 30
0.0
 10
21.5966839554716
 20
25.87444240416058
 30
0.0
  0
SPLINE
  5
BD
330
70
100
AcDbEntity
  8
cutting
 62
     5
420
      255
370
     9
100
AcDbSpline
210
0.0
220
0.0
230
1.0
 70
    11
 71
     3
 72
    17
 73
    13
 74
     0
 42
0.0000000001
 43
0.0000000001
 40
0.0
 40
0.0
 40
0.0
 40
0.0
 40
1.0
 40
1.0
 40
1.0
 40
2.0
 40
2.0
 40
2.0
 40
3.0
 40
3.0
 40
3.0
 40
4.0
 40
4.0
 40
4.0
 40
4.0
 10
46.38947865920832
 20
87.18263375481296
 30
0.0
 10
46.38947865920832
 20
87.764707094826
 30
0.0
 10
46.85866566725714
 20
88.23389343001647
 30
0.0
 10
47.44073682047985
 20
88.23389343001647
 30
0.0
 10
48.02280797370255
 20
88.23389343001647
 30
0.0
 10
48.49199498175138
 20
87.764707094826
 30
0.0
 10
48.49199498175138
 20
87.18263375481296
 30
0.0
 10
48.49199498175138
 20
86.60056041479991
 30
0.0
 10
48.01928219452708
 20
86.13137407960945
 30
0.0
 10
47.44073682047985
 20
86.13137407960945
 30
0.0
 10
46.86219144643262
 20
86.13137407960945
 30
0.0
 10
46.38947865920832
 20
86.60056041479991
 30
0.0
 10
46.38947865920832
 20
87.18263375481296
 30
0.0
  0
SPLINE
  5
BE
330
70
100
AcDbEntity
  8
cutting
 62
     5
420
      255
370
     9
100
AcDbSpline
210
0.0
220
0.0
230
1.0
 70
    11
 71
     3
 72
    17
 73
    13
 74
     0
 42
0.0000000001
 43
0.0000000001
 40
0.0
 40
0.0
 40
0.0
 40
0.0
 40
1.0
 40
1.0
 40
1.0
 40
2.0
 40
2.0
 40
2.0
 40
3.0
 40
3.0
 40
3.0
 40
4.0
 40
4.0
 40
4.0
 40
4.0
 10
84.90509037210321
 20
29.03880499123952
 30
0.0
 10
84.90509037210321
 20
35.80143785021525
 30
0.0
 10
90.390686013722
 20
41.28703887470335
 30
0.0
 10
97.15332425556702
 20
41.28703887470335
 30
0.0
 10
103.915962497412
 20
41.28703887470335
 30
0.0
 10
109.4015581390308
 20
35.80143785021525
 30
0.0
 10
109.4015581390308
 20
29.03880499123952
 30
0.0
 10
109.4015581390308
 20
22.27617213226378
 30
0.0
 10
103.9194828937185
 20
16.79057110777567
 30
0.0
 10
97.15332425556702
 20
16.79057110777567
 30
0.0
 10
90.3871656174155
 20
16.79057110777567
 30
0.0
 10
84.90509037210321
 20
22.27617213226378
 30
0.0
 10
84.90509037210321
 20
29.03880499123952
 30
0.0
  0
SPLINE
  5
BF
330
70
100
AcDbEntity
  8
cutting
 62
     5
420
      255
370
     9
100
AcDbSpline
210
0.0
220
0.0
230
1.0
 70
    11
 71
     3
 72
    17
 73
    13
 74
     0
 42
0.0000000001
 43
0.0000000001
 40
0.0
 40
0.0
 40
0.0
 40
0.0
 40
1.0
 40
1.0
 40
1.0
 40
2.0
 40
2.0
 40
2.0
 40
3.0
 40
3.0
 40
3.0
 40
4.0
 40
4.0
 40
4.0
 40
4.0
 10
108.4561325645823
 20
7.816058177389191
 30
0.0
 10
108.4561325645823
 20
8.398129330611897
 30
0.0
 10
108.9253141897621
 20
8.867316338661035
 30
0.0
 10
109.5073961087227
 20
8.867316338661035
 30
0.0
 10
110.0894780276834
 20
8.867316338661035
 30
0.0
 10
110.5586596528632
 20
8.398129330611897
 30
0.0
 10
110.5586596528632
 20
7.816058177389191
 30
0.0
 10
110.5586596528632
 20
7.233987024166484
 30
0.0
 10
110.0859468656389
 20
6.764800016117346
 30
0.0
 10
109.5073961087227
 20
6.764800016117346
 30
0.0
 10
108.9288453518066
 20
6.764800016117346
 30
0.0
 10
108.4561325645823
 20
7.233987024166484
 30
0.0
 10
108.4561325645823
 20
7.816058177389191
 30
0.0
  0
SPLINE
  5
C0
330
70
100
AcDbEntity
  8
cutting
 62
     5
420
      255
370
     9
100
AcDbSpline
210
0.0
220
0.0
230
1.0
 70
    11
 71
     3
 72
    17
 73
    13
 74
     0
 42
0.0000000001
 43
0.0000000001
 40
0.0
 40
0.0
 40
0.0
 40
0.0
 40
1.0
 40
1.0
 40
1.0
 40
2.0
 40
2.0
 40
2.0
 40
3.0
 40
3.0
 40
3.0
 40
4.0
 40
4.0
 40
4.0
 40
4.0
 10
110.5586488871253
 20
87.23907717311707
 30
0.0
 10
110.5586488871253
 20
86.65700383310403
 30
0.0
 10
110.0894672619455
 20
86.18781749791356
 30
0.0
 10
109.5073853429848
 20
86.18781749791356
 30
0.0
 10
108.9253034240242
 20
86.18781749791356
 30
0.0
 10
108.4561217988443
 20
86.65700383310403
 30
0.0
 10
108.4561217988443
 20
87.23907717311707
 30
0.0
 10
108.4561217988443
 20
87.82115051313041
 30
0.0
 10
108.9288345860686
 20
88.29033684832058
 30
0.0
 10
109.5073853429848
 20
88.29033684832058
 30
0.0
 10
110.085936099901
 20
88.29033684832058
 30
0.0
 10
110.5586488871253
 20
87.82115051313041
 30
0.0
 10
110.5586488871253
 20
87.23907717311707
 30
0.0
  0
SPLINE
  5
C1
330
70
100
AcDbEntity
  8
cutting
 62
     5
420
      255
370
     9
100
AcDbSpline
210
0.0
220
0.0
230
1.0
 70
    11
 71
     3
 72
    47
 73
    43
 74
     0
 42
0.0000000001
 43
0.0000000001
 40
0.0
 40
0.0
 40
0.0
 40
0.0
 40
1.0
 40
1.0
 40
1.0
 40
2.0
 40
2.0
 40
2.0
 40
3.0
 40
3.0
 40
3.0
 40
4.0
 40
4.0
 40
4.0
 40
5.0
 40
5.0
 40
5.0
 40
6.0
 40
6.0
 40
6.0
 40
7.0
 40
7.0
 40
7.0
 40
8.0
 40
8.0
 40
8.0
 40
9.0
 40
9.0
 40
9.0
 40
10.0
 40
10.0
 40
10.0
 40
11.0
 40
11.0
 40
11.0
 40
12.0
 40
12.0
 40
12.0
 40
13.0
 40
13.0
 40
13.0
 40
14.0
 40
14.0
 40
14.0
 40
14.0
 10
111.4123611400598
 20
89.82842146373101
 30
0.0
 10
111.4123611400598
 20
89.82842146373101
 30
0.0
 10
44.20582096980861
 20
89.82842146373101
 30
0.0
 10
44.20582096980861
 20
89.82842146373101
 30
0.0
 10
44.20582096980861
 20
89.82842146373101
 30
0.0
 10
44.19170977880341
 20
84.85786802429664
 30
0.0
 10
44.19170977880341
 20
84.85786802429664
 30
0.0
 10
44.19170977880341
 20
84.85786802429664
 30
0.0
 10
62.51467008976302
 20
84.85786802429664
 30
0.0
 10
62.51467008976302
 20
84.85786802429664
 30
0.0
 10
62.89918995177969
 20
84.85786802429664
 30
0.0
 10
63.21315655020406
 20
84.5474288871944
 30
0.0
 10
63.21315655020406
 20
84.15937988170895
 30
0.0
 10
63.21315655020406
 20
84.15937988170895
 30
0.0
 10
63.21315655020406
 20
81.84519771266169
 30
0.0
 10
63.21315655020406
 20
81.84519771266169
 30
0.0
 10
63.21315655020406
 20
81.84519771266169
 30
0.0
 10
81.50789717058758
 20
81.84519771266169
 30
0.0
 10
81.50789717058758
 20
81.84519771266169
 30
0.0
 10
81.89241703260426
 20
81.84519771266169
 30
0.0
 10
82.20638363102862
 20
81.53475891198846
 30
0.0
 10
82.20638363102862
 20
81.14670990650331
 30
0.0
 10
82.20638363102862
 20
81.14670990650331
 30
0.0
 10
82.23460601303933
 20
18.70259308033293
 30
0.0
 10
82.23460601303933
 20
18.70259308033293
 30
0.0
 10
86.8418035646264
 20
16.92815185578448
 30
0.0
 10
91.4313668374671
 20
14.74096838720961
 30
0.0
 10
95.8057337746175
 20
12.21512171737481
 30
0.0
 10
101.4606637083006
 20
8.948457705517062
 30
0.0
 10
107.0415145992159
 20
4.803390220758904
 30
0.0
 10
112.1143733796763
 20
0.1150513023158231
 30
0.0
 10
112.1143733796763
 20
0.1150513023158231
 30
0.0
 10
112.1143733796763
 20
89.1264057389174
 30
0.0
 10
112.1143733796763
 20
89.1264057389174
 30
0.0
 10
112.1143733796763
 20
89.51092690459764
 30
0.0
 10
111.8039325604274
 20
89.82489371329043
 30
0.0
 10
111.4158815363663
 20
89.82489371329043
 30
0.0
 10
111.4158815363663
 20
89.82489371329043
 30
0.0
 10
111.4158815363663
 20
89.82489371329043
 30
0.0
 10
111.4158815363663
 20
89.82489371329043
 30
0.0
 10
111.4158815363663
 20
89.82489371329043
 30
0.0
 10
111.4123611400598
 20
89.82842146373101
 30
0.0
 10
111.4123611400598
 20
89.82842146373101
 30
0.0
  0
SPLINE
  5
C2
330
70
100
AcDbEntity
  8
cutting
 62
     5
420
      255
370
     9
100
AcDbSpline
210
0.0
220
0.0
230
1.0
 70
     9
 71
     3
 72
    17
 73
    13
 74
     0
 42
0.0000000001
 43
0.0000000001
 40
0.0
 40
0.0
 40
0.0
 40
0.0
 40
1.0
 40
1.0
 40
1.0
 40
2.0
 40
2.0
 40
2.0
 40
3.0
 40
3.0
 40
3.0
 40
4.0
 40
4.0
 40
4.0
 40
4.0
 10
22.65147058735324
 20
86.21603920706592
 30
0.0
 10
22.65147058735324
 20
86.79811237886429
 30
0.0
 10
23.12065759540174
 20
87.26729888226945
 30
0.0
 10
23.70273144005909
 20
87.26729888226945
 30
0.0
 10
24.28480528471645
 20
87.26729888226945
 30
0.0
 10
24.75399229276494
 20
86.79811237886429
 30
0.0
 10
24.75399229276494
 20
86.21603920706592
 30
0.0
 10
24.75399229276494
 20
85.63396603526724
 30
0.0
 10
24.28127950554065
 20
85.16477936364776
 30
0.0
 10
23.70273144005909
 20
85.16477936364776
 30
0.0
 10
23.12418337457754
 20
85.16477936364776
 30
0.0
 10
22.65147058735324
 20
85.6339656988379
 30
0.0
 10
22.65147058735324
 20
86.21603920706592
 30
0.0
  0
SPLINE
  5
C3
330
70
100
AcDbEntity
  8
cutting
 62
     5
420
      255
370
     9
100
AcDbSpline
210
0.0
220
0.0
230
1.0
 70
    11
 71
     3
 72
    17
 73
    13
 74
     0
 42
0.0000000001
 43
0.0000000001
 40
0.0
 40
0.0
 40
0.0
 40
0.0
 40
1.0
 40
1.0
 40
1.0
 40
2.0
 40
2.0
 40
2.0
 40
3.0
 40
3.0
 40
3.0
 40
4.0
 40
4.0
 40
4.0
 40
4.0
 10
37.49257593363406
 20
87.22496631854118
 30
0.0
 10
37.49257593363406
 20
87.80703965855423
 30
0.0
 10
37.96176294168288
 20
88.27622599374469
 30
0.0
 10
38.54383678633991
 20
88.27622599374469
 30
0.0
 10
39.12591063099726
 20
88.27622599374469
 30
0.0
 10
39.59509763904608
 20
87.80703965855423
 30
0.0
 10
39.59509763904608
 20
87.22496631854118
 30
0.0
 10
39.59509763904608
 20
86.64289297852784
 30
0.0
 10
39.12238485182179
 20
86.17370664333767
 30
0.0
 10
38.54383678633991
 20
86.17370664333767
 30
0.0
 10
37.96528872085835
 20
86.17370664333767
 30
0.0
 10
37.49257593363406
 20
86.64289297852784
 30
0.0
 10
37.49257593363406
 20
87.22496631854118
 30
0.0
  0
SPLINE
  5
C4
330
70
100
AcDbEntity
  8
cutting
 62
     5
420
      255
370
     9
100
AcDbSpline
210
0.0
220
0.0
230
1.0
 70
     9
 71
     3
 72
    38
 73
    34
 74
     0
 42
0.0000000001
 43
0.0000000001
 40
0.0
 40
0.0
 40
0.0
 40
0.0
 40
1.0
 40
1.0
 40
1.0
 40
2.0
 40
2.0
 40
2.0
 40
3.0
 40
3.0
 40
3.0
 40
4.0
 40
4.0
 40
4.0
 40
5.0
 40
5.0
 40
5.0
 40
6.0
 40
6.0
 40
6.0
 40
7.0
 40
7.0
 40
7.0
 40
8.0
 40
8.0
 40
8.0
 40
9.0
 40
9.0
 40
9.0
 40
10.0
 40
10.0
 40
10.0
 40
11.0
 40
11.0
 40
11.0
 40
11.0
 10
0.7478759653892039
 20
89.82489374483057
 30
0.0
 10
0.3633548417623813
 20
89.82489374483057
 30
0.0
 10
0.0493880383263982
 20
89.51445466029504
 30
0.0
 10
0.0493880383263982
 20
89.1264057389174
 30
0.0
 10
0.0493880383263982
 20
89.1264057389174
 30
0.0
 10
0.0493880383263982
 20
67.33569728070292
 30
0.0
 10
0.0493880383263982
 20
67.33569728070292
 30
0.0
 10
0.0493880383263982
 20
67.33569728070292
 30
0.0
 10
17.80085970093412
 20
70.46478189026854
 30
0.0
 10
17.80085970093412
 20
70.46478189026854
 30
0.0
 10
18.18185378377499
 20
70.53180802896804
 30
0.0
 10
18.54520820500087
 20
70.27781331945789
 30
0.0
 10
18.6122343437007
 20
69.8968192366167
 30
0.0
 10
18.6122343437007
 20
69.8968192366167
 30
0.0
 10
21.40265844344104
 20
53.97976047194644
 30
0.0
 10
21.40265844344104
 20
53.97976047194644
 30
0.0
 10
21.52612800044497
 20
53.26716282049988
 30
0.0
 10
22.58444310293642
 20
53.39768662728909
 30
0.0
 10
22.53505528013459
 20
54.11734121995525
 30
0.0
 10
22.53505528013459
 20
54.11734121995525
 30
0.0
 10
20.55953429377095
 20
82.65657235542827
 30
0.0
 10
20.55953429377095
 20
82.65657235542827
 30
0.0
 10
20.55953429377095
 20
82.65657235542827
 30
0.0
 10
20.55953429377095
 20
82.65657235542827
 30
0.0
 10
20.55953429377095
 20
82.65657235542827
 30
0.0
 10
20.55953429377095
 20
82.65657235542827
 30
0.0
 10
43.06284141271934
 20
84.22993381816024
 30
0.0
 10
43.06284141271934
 20
84.22993381816024
 30
0.0
 10
43.06284141271934
 20
84.22993381816024
 30
0.0
 10
43.05225869232394
 20
89.82489287221678
 30
0.0
 10
43.05225869232394
 20
89.82489287221678
 30
0.0
 10
43.05225869232394
 20
89.82489287221678
 30
0.0
 10
0.7478759653892039
 20
89.82489287221678
 30
0.0
 10
0.7478759653892039
 20
89.82489374483057
 30
0.0
  0
ENDSEC
  0
SECTION
  2
OBJECTS
  0
DICTIONARY
  5
C
330
0
100
AcDbDictionary
281
     1
  3
ACAD_COLOR
350
63
  3
ACAD_DETAILVIEWSTYLE
350
6A
  3
ACAD_GROUP
350
D
  3
ACAD_LAYOUT
350
62
  3
ACAD_MATERIAL
350
10
  3
ACAD_MLEADERSTYLE
350
66
  3
ACAD_MLINESTYLE
350
5F
  3
ACAD_PLOTSETTINGS
350
61
  3
ACAD_PLOTSTYLENAME
350
E
  3
ACAD_SCALELIST
350
42
  3
ACAD_SECTIONVIEWSTYLE
350
68
  3
ACAD_TABLESTYLE
350
64
  3
ACAD_VISUALSTYLE
350
29
  3
ACDB_RECOMPOSE_DATA
350
CD
  3
AcDbVariableDictionary
350
C5
  0
DICTIONARY
  5
63
102
{ACAD_REACTORS
330
C
102
}
330
C
100
AcDbDictionary
281
     1
  0
DICTIONARY
  5
6A
102
{ACAD_REACTORS
330
C
102
}
330
C
100
AcDbDictionary
281
     1
  3
Imperial24
350
6B
  0
DICTIONARY
  5
D
102
{ACAD_REACTORS
330
C
102
}
330
C
100
AcDbDictionary
281
     1
  0
DICTIONARY
  5
62
102
{ACAD_REACTORS
330
C
102
}
330
C
100
AcDbDictionary
281
     1
  3
Layout1
350
6F
  3
Layout2
350
77
  3
Model
350
73
  0
DICTIONARY
  5
10
102
{ACAD_REACTORS
330
C
102
}
330
C
100
AcDbDictionary
281
     1
  3
ByBlock
350
19
  3
ByLayer
350
11
  3
Global
350
21
  0
DICTIONARY
  5
66
102
{ACAD_REACTORS
330
C
102
}
330
C
100
AcDbDictionary
281
     1
  3
Standard
350
67
  0
DICTIONARY
  5
5F
102
{ACAD_REACTORS
330
C
102
}
330
C
100
AcDbDictionary
281
     1
  3
Standard
350
60
  0
DICTIONARY
  5
61
102
{ACAD_REACTORS
330
C
102
}
330
C
100
AcDbDictionary
281
     1
  0
ACDBDICTIONARYWDFLT
  5
E
102
{ACAD_REACTORS
330
C
102
}
330
C
100
AcDbDictionary
281
     1
  3
Normal
350
F
100
AcDbDictionaryWithDefault
340
F
  0
DICTIONARY
  5
42
102
{ACAD_REACTORS
330
C
102
}
330
C
100
AcDbDictionary
281
     1
  3
A0
350
43
  3
A1
350
44
  3
A2
350
45
  3
A3
350
46
  3
A4
350
47
  3
A5
350
48
  3
A6
350
49
  3
A7
350
4A
  3
A8
350
4B
  3
A9
350
4C
  3
B0
350
4D
  3
B1
350
4E
  3
B2
350
4F
  3
B3
350
50
  3
B4
350
51
  3
B5
350
52
  3
B6
350
53
  0
DICTIONARY
  5
68
102
{ACAD_REACTORS
330
C
102
}
330
C
100
AcDbDictionary
281
     1
  3
Imperial24
350
69
  0
DICTIONARY
  5
64
102
{ACAD_REACTORS
330
C
102
}
330
C
100
AcDbDictionary
281
     1
  3
Standard
350
65
  0
DICTIONARY
  5
29
102
{ACAD_REACTORS
330
C
102
}
330
C
100
AcDbDictionary
281
     1
  3
2dWireframe
350
2F
  3
Basic
350
2E
  3
Brighten
350
35
  3
ColorChange
350
39
  3
Conceptual
350
32
  3
Dim
350
34
  3
EdgeColorOff
350
41
  3
Facepattern
350
38
  3
Flat
350
2A
  3
FlatWithEdges
350
2B
  3
Gouraud
350
2C
  3
GouraudWithEdges
350
2D
  3
Hidden
350
31
  3
JitterOff
350
3F
  3
Linepattern
350
37
  3
OverhangOff
350
40
  3
Realistic
350
33
  3
Shaded
350
3E
  3
Shaded with edges
350
3D
  3
Shades of Gray
350
3A
  3
Sketchy
350
3B
  3
Thicken
350
36
  3
Wireframe
350
30
  3
X-Ray
350
3C
  0
XRECORD
  5
CD
102
{ACAD_REACTORS
330
C
102
}
330
C
100
AcDbXrecord
280
     1
 90
        1
330
65
  0
DICTIONARY
  5
C5
102
{ACAD_REACTORS
330
C
102
}
330
C
100
AcDbDictionary
281
     1
  3
CANNOSCALE
350
CA
  3
CMLEADERSTYLE
350
C7
  3
CTABLESTYLE
350
C6
  3
CVIEWDETAILSTYLE
350
C8
  3
CVIEWSECTIONSTYLE
350
C9
  0
ACDBDETAILVIEWSTYLE
  5
6B
102
{ACAD_REACTORS
330
6A
102
}
330
6A
100
AcDbModelDocViewStyle
 70
     0
  3
Imperial24
290
     1
300
Imperial24
 90
        0
100
AcDbDetailViewStyle
 70
     0
 71
     0
 90
        3
 71
     1
340
55
 62
   256
 40
0.24
340
0
 62
   256
 40
0.24
300

 40
0.36
280
     3
 71
     2
340
5D
 90
       25
 62
   256
 71
     3
340
55
 62
   256
 40
0.24
 90
        1
 40
0.75
 90
        1
300
%<\AcVar ViewType \f "%tc1">% %<\AcVar ViewDetailId>%\PSCALE %<\AcVar ViewScale \f "%sn">%
 71
     4
340
5D
 90
       25
 62
   256
340
5D
 90
       25
 62
   256
280
     0
  0
LAYOUT
  5
6F
102
{ACAD_REACTORS
330
62
102
}
330
62
100
AcDbPlotSettings
  1

  2

  4

  6

 40
0.0
 41
0.0
 42
0.0
 43
0.0
 44
0.0
 45
0.0
 46
0.0
 47
0.0
 48
0.0
 49
0.0
140
0.0
141
0.0
142
1.0
143
1.0
 70
   688
 72
     0
 73
     0
 74
     5
  7

 75
    16
147
1.0
 76
     0
 77
     2
 78
   300
148
0.0
149
0.0
100
AcDbLayout
  1
Layout1
 70
     1
 71
     1
 10
0.0
 20
0.0
 11
12.0
 21
9.0
 12
0.0
 22
0.0
 32
0.0
 14
0.0
 24
0.0
 34
0.0
 15
0.0
 25
0.0
 35
0.0
146
0.0
 13
0.0
 23
0.0
 33
0.0
 16
1.0
 26
0.0
 36
0.0
 17
0.0
 27
1.0
 37
0.0
 76
     0
330
6C
  0
LAYOUT
  5
77
102
{ACAD_REACTORS
330
62
102
}
330
62
100
AcDbPlotSettings
  1

  2

  4

  6

 40
0.0
 41
0.0
 42
0.0
 43
0.0
 44
0.0
 45
0.0
 46
0.0
 47
0.0
 48
0.0
 49
0.0
140
0.0
141
0.0
142
1.0
143
1.0
 70
   688
 72
     0
 73
     0
 74
     5
  7

 75
    16
147
1.0
 76
     0
 77
     2
 78
   300
148
0.0
149
0.0
100
AcDbLayout
  1
Layout2
 70
     1
 71
     2
 10
0.0
 20
0.0
 11
12.0
 21
9.0
 12
0.0
 22
0.0
 32
0.0
 14
0.0
 24
0.0
 34
0.0
 15
0.0
 25
0.0
 35
0.0
146
0.0
 13
0.0
 23
0.0
 33
0.0
 16
1.0
 26
0.0
 36
0.0
 17
0.0
 27
1.0
 37
0.0
 76
     0
330
74
  0
LAYOUT
  5
73
102
{ACAD_REACTORS
330
62
102
}
330
62
100
AcDbPlotSettings
  1

  2

  4

  6

 40
0.0
 41
0.0
 42
0.0
 43
0.0
 44
0.0
 45
0.0
 46
0.0
 47
0.0
 48
0.0
 49
0.0
140
0.0
141
0.0
142
1.0
143
1.0
 70
  1712
 72
     0
 73
     0
 74
     0
  7

 75
     0
147
1.0
 76
     0
 77
     2
 78
   300
148
0.0
149
0.0
100
AcDbLayout
  1
Model
 70
     1
 71
     0
 10
0.0
 20
0.0
 11
12.0
 21
9.0
 12
0.0
 22
0.0
 32
0.0
 14
0.0
 24
0.0
 34
0.0
 15
0.0
 25
0.0
 35
0.0
146
0.0
 13
0.0
 23
0.0
 33
0.0
 16
1.0
 26
0.0
 36
0.0
 17
0.0
 27
1.0
 37
0.0
 76
     0
330
70
  0
MATERIAL
  5
19
102
{ACAD_XDICTIONARY
360
1A
102
}
102
{ACAD_REACTORS
330
10
102
}
330
10
100
AcDbMaterial
  1
ByBlock
 72
     0
 43
0.0208333333333333
 43
0.0
 43
0.0
 43
0.0
 43
0.0
 43
0.0208333333333333
 43
0.0
 43
0.0
 43
0.0
 43
0.0
 43
1.0
 43
0.0
 43
0.0
 43
0.0
 43
0.0
 43
1.0
 77
     0
 47
0.0208333333333333
 47
0.0
 47
0.0
 47
0.0
 47
0.0
 47
0.0208333333333333
 47
0.0
 47
0.0
 47
0.0
 47
0.0
 47
1.0
 47
0.0
 47
0.0
 47
0.0
 47
0.0
 47
1.0
171
     0
 49
0.0208333333333333
 49
0.0
 49
0.0
 49
0.0
 49
0.0
 49
0.0208333333333333
 49
0.0
 49
0.0
 49
0.0
 49
0.0
 49
1.0
 49
0.0
 49
0.0
 49
0.0
 49
0.0
 49
1.0
175
     0
142
0.0208333333333333
142
0.0
142
0.0
142
0.0
142
0.0
142
0.0208333333333333
142
0.0
142
0.0
142
0.0
142
0.0
142
1.0
142
0.0
142
0.0
142
0.0
142
0.0
142
1.0
179
     0
144
0.0208333333333333
144
0.0
144
0.0
144
0.0
144
0.0
144
0.0208333333333333
144
0.0
144
0.0
144
0.0
144
0.0
144
1.0
144
0.0
144
0.0
144
0.0
144
0.0
144
1.0
147
0.0208333333333333
147
0.0
147
0.0
147
0.0
147
0.0
147
0.0208333333333333
147
0.0
147
0.0
147
0.0
147
0.0
147
1.0
147
0.0
147
0.0
147
0.0
147
0.0
147
1.0
  0
MATERIAL
  5
11
102
{ACAD_XDICTIONARY
360
12
102
}
102
{ACAD_REACTORS
330
10
102
}
330
10
100
AcDbMaterial
  1
ByLayer
 72
     0
 43
0.0208333333333333
 43
0.0
 43
0.0
 43
0.0
 43
0.0
 43
0.0208333333333333
 43
0.0
 43
0.0
 43
0.0
 43
0.0
 43
1.0
 43
0.0
 43
0.0
 43
0.0
 43
0.0
 43
1.0
 77
     0
 47
0.0208333333333333
 47
0.0
 47
0.0
 47
0.0
 47
0.0
 47
0.0208333333333333
 47
0.0
 47
0.0
 47
0.0
 47
0.0
 47
1.0
 47
0.0
 47
0.0
 47
0.0
 47
0.0
 47
1.0
171
     0
 49
0.0208333333333333
 49
0.0
 49
0.0
 49
0.0
 49
0.0
 49
0.0208333333333333
 49
0.0
 49
0.0
 49
0.0
 49
0.0
 49
1.0
 49
0.0
 49
0.0
 49
0.0
 49
0.0
 49
1.0
175
     0
142
0.0208333333333333
142
0.0
142
0.0
142
0.0
142
0.0
142
0.0208333333333333
142
0.0
142
0.0
142
0.0
142
0.0
142
1.0
142
0.0
142
0.0
142
0.0
142
0.0
142
1.0
179
     0
144
0.0208333333333333
144
0.0
144
0.0
144
0.0
144
0.0
144
0.0208333333333333
144
0.0
144
0.0
144
0.0
144
0.0
144
1.0
144
0.0
144
0.0
144
0.0
144
0.0
144
1.0
147
0.0208333333333333
147
0.0
147
0.0
147
0.0
147
0.0
147
0.0208333333333333
147
0.0
147
0.0
147
0.0
147
0.0
147
1.0
147
0.0
147
0.0
147
0.0
147
0.0
147
1.0
  0
MATERIAL
  5
21
102
{ACAD_XDICTIONARY
360
22
102
}
102
{ACAD_REACTORS
330
10
102
}
330
10
100
AcDbMaterial
  1
Global
 72
     0
 43
0.0208333333333333
 43
0.0
 43
0.0
 43
0.0
 43
0.0
 43
0.0208333333333333
 43
0.0
 43
0.0
 43
0.0
 43
0.0
 43
1.0
 43
0.0
 43
0.0
 43
0.0
 43
0.0
 43
1.0
 77
     0
 47
0.0208333333333333
 47
0.0
 47
0.0
 47
0.0
 47
0.0
 47
0.0208333333333333
 47
0.0
 47
0.0
 47
0.0
 47
0.0
 47
1.0
 47
0.0
 47
0.0
 47
0.0
 47
0.0
 47
1.0
171
     0
 49
0.0208333333333333
 49
0.0
 49
0.0
 49
0.0
 49
0.0
 49
0.0208333333333333
 49
0.0
 49
0.0
 49
0.0
 49
0.0
 49
1.0
 49
0.0
 49
0.0
 49
0.0
 49
0.0
 49
1.0
175
     0
142
0.0208333333333333
142
0.0
142
0.0
142
0.0
142
0.0
142
0.0208333333333333
142
0.0
142
0.0
142
0.0
142
0.0
142
1.0
142
0.0
142
0.0
142
0.0
142
0.0
142
1.0
179
     0
144
0.0208333333333333
144
0.0
144
0.0
144
0.0
144
0.0
144
0.0208333333333333
144
0.0
144
0.0
144
0.0
144
0.0
144
1.0
144
0.0
144
0.0
144
0.0
144
0.0
144
1.0
147
0.0208333333333333
147
0.0
147
0.0
147
0.0
147
0.0
147
0.0208333333333333
147
0.0
147
0.0
147
0.0
147
0.0
147
1.0
147
0.0
147
0.0
147
0.0
147
0.0
147
1.0
  0
MLEADERSTYLE
  5
67
102
{ACAD_REACTORS
330
66
102
}
330
66
100
AcDbMLeaderStyle
179
     2
170
     2
171
     1
172
     0
 90
        2
 40
0.0
 41
0.0
173
     1
 91
-1056964608
340
5B
 92
       -2
290
     1
 42
0.09
291
     1
 43
0.36
  3
Standard
 44
0.18
300

342
55
174
     1
178
     6
175
     1
176
     0
 93
-1056964608
 45
0.18
292
     0
297
     0
 46
0.18
 94
-1056964608
 47
1.0
 49
1.0
140
1.0
293
     1
141
0.0
294
     1
177
     0
142
1.0
295
     1
296
     0
143
0.125
271
     0
272
     9
273
     9
298
     1
  0
MLINESTYLE
  5
60
102
{ACAD_REACTORS
330
5F
102
}
330
5F
100
AcDbMlineStyle
  2
STANDARD
 70
     0
  3

 62
   256
 51
90.0
 52
90.0
 71
     2
 49
0.5
 62
   256
  6
BYLAYER
 49
-0.5
 62
   256
  6
BYLAYER
  0
ACDBPLACEHOLDER
  5
F
102
{ACAD_REACTORS
330
E
102
}
330
E
  0
SCALE
  5
43
102
{ACAD_REACTORS
330
42
102
}
330
42
100
AcDbScale
 70
     0
300
1:1
140
1.0
141
1.0
290
     1
  0
SCALE
  5
44
102
{ACAD_REACTORS
330
42
102
}
330
42
100
AcDbScale
 70
     0
300
1/128" = 1'-0"
140
0.0078125
141
12.0
290
     0
  0
SCALE
  5
45
102
{ACAD_REACTORS
330
42
102
}
330
42
100
AcDbScale
 70
     0
300
1/64" = 1'-0"
140
0.015625
141
12.0
290
     0
  0
SCALE
  5
46
102
{ACAD_REACTORS
330
42
102
}
330
42
100
AcDbScale
 70
     0
300
1/32" = 1'-0"
140
0.03125
141
12.0
290
     0
  0
SCALE
  5
47
102
{ACAD_REACTORS
330
42
102
}
330
42
100
AcDbScale
 70
     0
300
1/16" = 1'-0"
140
0.0625
141
12.0
290
     0
  0
SCALE
  5
48
102
{ACAD_REACTORS
330
42
102
}
330
42
100
AcDbScale
 70
     0
300
3/32" = 1'-0"
140
0.09375
141
12.0
290
     0
  0
SCALE
  5
49
102
{ACAD_REACTORS
330
42
102
}
330
42
100
AcDbScale
 70
     0
300
1/8" = 1'-0"
140
0.125
141
12.0
290
     0
  0
SCALE
  5
4A
102
{ACAD_REACTORS
330
42
102
}
330
42
100
AcDbScale
 70
     0
300
3/16" = 1'-0"
140
0.1875
141
12.0
290
     0
  0
SCALE
  5
4B
102
{ACAD_REACTORS
330
42
102
}
330
42
100
AcDbScale
 70
     0
300
1/4" = 1'-0"
140
0.25
141
12.0
290
     0
  0
SCALE
  5
4C
102
{ACAD_REACTORS
330
42
102
}
330
42
100
AcDbScale
 70
     0
300
3/8" = 1'-0"
140
0.375
141
12.0
290
     0
  0
SCALE
  5
4D
102
{ACAD_REACTORS
330
42
102
}
330
42
100
AcDbScale
 70
     0
300
1/2" = 1'-0"
140
0.5
141
12.0
290
     0
  0
SCALE
  5
4E
102
{ACAD_REACTORS
330
42
102
}
330
42
100
AcDbScale
 70
     0
300
3/4" = 1'-0"
140
0.75
141
12.0
290
     0
  0
SCALE
  5
4F
102
{ACAD_REACTORS
330
42
102
}
330
42
100
AcDbScale
 70
     0
300
1" = 1'-0"
140
1.0
141
12.0
290
     0
  0
SCALE
  5
50
102
{ACAD_REACTORS
330
42
102
}
330
42
100
AcDbScale
 70
     0
300
1-1/2" = 1'-0"
140
1.5
141
12.0
290
     0
  0
SCALE
  5
51
102
{ACAD_REACTORS
330
42
102
}
330
42
100
AcDbScale
 70
     0
300
3" = 1'-0"
140
3.0
141
12.0
290
     0
  0
SCALE
  5
52
102
{ACAD_REACTORS
330
42
102
}
330
42
100
AcDbScale
 70
     0
300
6" = 1'-0"
140
6.0
141
12.0
290
     0
  0
SCALE
  5
53
102
{ACAD_REACTORS
330
42
102
}
330
42
100
AcDbScale
 70
     0
300
1'-0" = 1'-0"
140
12.0
141
12.0
290
     0
  0
ACDBSECTIONVIEWSTYLE
  5
69
102
{ACAD_REACTORS
330
68
102
}
330
68
100
AcDbModelDocViewStyle
 70
     0
  3
Imperial24
290
     1
300
Imperial24
 90
        0
100
AcDbSectionViewStyle
 70
     0
 71
     0
 90
       78
 71
     1
340
55
 62
   256
 40
0.24
340
0
340
0
 62
   256
 40
0.24
300
I, O, Q, S, X, Z
 40
0.48
 90
        3
 40
0.18
 90
        1
 71
     2
340
5D
 90
       25
 62
   256
340
5D
 90
       50
 62
   256
 40
0.24
 40
0.0
 40
0.24
 71
     3
340
55
 62
   256
 40
0.24
 90
        1
 40
0.75
 90
        1
300
%<\AcVar ViewType \f "%tc1">% %<\AcVar ViewSectionStartId>%-%<\AcVar ViewSectionEndId>%\PSCALE %<\AcVar ViewScale \f "%sn">%
 71
     4
 62
   256
 62
   257
300
ANSI31
 40
1.0
 90
        0
290
     0
290
     0
 90
        6
 40
0.0
 40
1.570796326794896
 40
0.2617993877991494
 40
1.308996938995747
 40
-0.2617993877991494
 40
1.832595714594046
  0
TABLESTYLE
  5
65
102
{ACAD_XDICTIONARY
360
CB
102
}
102
{ACAD_REACTORS
330
64
102
}
330
64
100
AcDbTableStyle
280
     0
  3
Standard
 70
     0
 71
     0
 40
0.06
 41
0.06
280
     0
281
     0
  7
Standard
140
0.18
170
     2
 62
     0
 63
     7
283
     0
 90
      512
 91
        0
  1

274
    -2
284
     1
 64
     0
275
    -2
285
     1
 65
     0
276
    -2
286
     1
 66
     0
277
    -2
287
     1
 67
     0
278
    -2
288
     1
 68
     0
279
    -2
289
     1
 69
     0
  7
Standard
140
0.25
170
     5
 62
     0
 63
     7
283
     0
 90
      512
 91
        0
  1

274
    -2
284
     1
 64
     0
275
    -2
285
     1
 65
     0
276
    -2
286
     1
 66
     0
277
    -2
287
     1
 67
     0
278
    -2
288
     1
 68
     0
279
    -2
289
     1
 69
     0
  7
Standard
140
0.18
170
     5
 62
     0
 63
     7
283
     0
 90
      512
 91
        0
  1

274
    -2
284
     1
 64
     0
275
    -2
285
     1
 65
     0
276
    -2
286
     1
 66
     0
277
    -2
287
     1
 67
     0
278
    -2
288
     1
 68
     0
279
    -2
289
     1
 69
     0
  0
VISUALSTYLE
  5
2F
102
{ACAD_REACTORS
330
29
102
}
330
29
100
AcDbVisualStyle
  2
2dWireframe
 70
     4
177
     3
291
     0
 70
    58
 90
        0
176
     1
 90
        2
176
     1
 90
        0
176
     1
 90
        0
176
     1
 40
0.6
176
     1
 40
30.0
176
     1
 62
     7
420
 16777215
176
     1
 90
        1
176
     1
 90
        4
176
     1
 62
     7
176
     1
 62
   257
176
     1
 90
        1
176
     1
 90
        1
176
     1
 40
1.0
176
     1
 90
        0
176
     1
 62
   257
176
     1
 40
1.0
176
     1
 90
        1
176
     1
 90
        6
176
     1
 90
        2
176
     1
 62
     7
176
     1
 90
        5
176
     1
 90
        0
176
     1
 90
        0
176
     1
290
     0
176
     1
 90
        1
176
     1
 40
0.0
176
     1
 90
        0
176
     1
290
     1
176
     1
290
     1
176
     1
290
     0
176
     1
290
     0
176
     1
290
     0
176
     1
290
     0
176
     1
290
     0
176
     1
290
     0
176
     1
290
     0
176
     1
 90
       50
176
     1
 40
0.0
176
     1
 40
1.0
176
     1
 90
        0
176
     1
 62
    18
420
        0
176
     1
 90
       50
176
     1
 90
        3
176
     1
 62
     5
420
      255
176
     1
290
     0
176
     1
 90
       50
176
     1
 90
       50
176
     1
 90
       50
176
     1
290
     0
176
     1
 90
       50
176
     1
 62
   256
176
     0
 40
1.0
176
     0
 90
        2
176
     1
  1
strokes_ogs.tif
176
     1
290
     0
176
     1
 40
1.0
176
     1
 40
1.0
176
     1
  0
VISUALSTYLE
  5
2E
102
{ACAD_REACTORS
330
29
102
}
330
29
100
AcDbVisualStyle
  2
Basic
 70
     7
177
     3
291
     1
 70
    58
 90
        1
176
     1
 90
        0
176
     1
 90
        1
176
     1
 90
        0
176
     1
 40
0.6
176
     1
 40
30.0
176
     1
 62
     7
420
 16777215
176
     1
 90
        0
176
     1
 90
        4
176
     1
 62
     7
176
     1
 62
   257
176
     1
 90
        1
176
     1
 90
        1
176
     1
 40
1.0
176
     1
 90
        8
176
     1
 62
     7
176
     1
 40
1.0
176
     1
 90
        1
176
     1
 90
        6
176
     1
 90
        2
176
     1
 62
     7
176
     1
 90
        5
176
     1
 90
        0
176
     1
 90
        0
176
     1
290
     0
176
     1
 90
        1
176
     1
 40
0.0
176
     1
 90
        0
176
     1
290
     0
176
     1
290
     1
176
     1
290
     1
176
     1
290
     0
176
     1
290
     0
176
     1
290
     0
176
     1
290
     0
176
     1
290
     0
176
     1
290
     0
176
     1
 90
       50
176
     1
 40
0.0
176
     1
 40
1.0
176
     1
 90
        0
176
     1
 62
    18
420
        0
176
     1
 90
       50
176
     1
 90
        3
176
     1
 62
     5
420
      255
176
     1
290
     0
176
     1
 90
       50
176
     1
 90
       50
176
     1
 90
       50
176
     1
290
     0
176
     1
 90
       50
176
     1
 62
   256
176
     0
 40
1.0
176
     0
 90
        2
176
     1
  1
strokes_ogs.tif
176
     1
290
     0
176
     1
 40
1.0
176
     1
 40
1.0
176
     1
  0
VISUALSTYLE
  5
35
102
{ACAD_REACTORS
330
29
102
}
330
29
100
AcDbVisualStyle
  2
Brighten
 70
    12
177
     3
291
     1
 70
    58
 90
        2
176
     1
 90
        2
176
     1
 90
        0
176
     1
 90
        0
176
     1
 40
0.6
176
     1
 40
30.0
176
     1
 62
     7
420
 16777215
176
     1
 90
        1
176
     1
 90
        4
176
     1
 62
     7
176
     1
 62
   257
176
     1
 90
        1
176
     1
 90
        1
176
     1
 40
1.0
176
     1
 90
        8
176
     1
 62
     7
176
     1
 40
1.0
176
     1
 90
        1
176
     1
 90
        6
176
     1
 90
        2
176
     1
 62
     7
176
     1
 90
        5
176
     1
 90
        0
176
     1
 90
        0
176
     1
290
     0
176
     1
 90
        1
176
     1
 40
50.0
176
     1
 90
        0
176
     1
290
     0
176
     1
290
     1
176
     1
290
     1
176
     1
290
     0
176
     1
290
     0
176
     1
290
     0
176
     1
290
     0
176
     1
290
     0
176
     1
290
     0
176
     1
 90
       50
176
     1
 40
0.0
176
     1
 40
1.0
176
     1
 90
        0
176
     1
 62
    18
420
        0
176
     1
 90
       50
176
     1
 90
        3
176
     1
 62
     5
420
      255
176
     1
290
     0
176
     1
 90
       50
176
     1
 90
       50
176
     1
 90
       50
176
     1
290
     0
176
     1
 90
       50
176
     1
 62
   256
176
     0
 40
1.0
176
     0
 90
        2
176
     1
  1
strokes_ogs.tif
176
     1
290
     0
176
     1
 40
1.0
176
     1
 40
1.0
176
     1
  0
VISUALSTYLE
  5
39
102
{ACAD_REACTORS
330
29
102
}
330
29
100
AcDbVisualStyle
  2
ColorChange
 70
    16
177
     3
291
     1
 70
    58
 90
        2
176
     1
 90
        2
176
     1
 90
        3
176
     1
 90
        0
176
     1
 40
0.6
176
     1
 40
30.0
176
     1
 62
     8
420
  8421504
176
     1
 90
        1
176
     1
 90
        4
176
     1
 62
     7
176
     1
 62
   257
176
     1
 90
        1
176
     1
 90
        1
176
     1
 40
1.0
176
     1
 90
        8
176
     1
 62
     8
420
  8421504
176
     1
 40
1.0
176
     1
 90
        1
176
     1
 90
        6
176
     1
 90
        2
176
     1
 62
     7
176
     1
 90
        5
176
     1
 90
        0
176
     1
 90
        0
176
     1
290
     0
176
     1
 90
        1
176
     1
 40
0.0
176
     1
 90
        0
176
     1
290
     0
176
     1
290
     1
176
     1
290
     1
176
     1
290
     0
176
     1
290
     0
176
     1
290
     0
176
     1
290
     0
176
     1
290
     0
176
     1
290
     0
176
     1
 90
       50
176
     1
 40
0.0
176
     1
 40
1.0
176
     1
 90
        0
176
     1
 62
    18
420
        0
176
     1
 90
       50
176
     1
 90
        3
176
     1
 62
     5
420
      255
176
     1
290
     0
176
     1
 90
       50
176
     1
 90
       50
176
     1
 90
       50
176
     1
290
     0
176
     1
 90
       50
176
     1
 62
   256
176
     0
 40
1.0
176
     0
 90
        2
176
     1
  1
strokes_ogs.tif
176
     1
290
     0
176
     1
 40
1.0
176
     1
 40
1.0
176
     1
  0
VISUALSTYLE
  5
32
102
{ACAD_REACTORS
330
29
102
}
330
29
100
AcDbVisualStyle
  2
Conceptual
 70
     9
177
     3
291
     0
 70
    58
 90
        3
176
     1
 90
        2
176
     1
 90
        0
176
     1
 90
        0
176
     1
 40
0.6
176
     1
 40
30.0
176
     1
 62
     7
420
 16777215
176
     1
 90
        2
176
     1
 90
        2
176
     1
 62
     7
176
     1
 62
   257
176
     1
 90
        1
176
     1
 90
        1
176
     1
 40
179.0
176
     1
 90
        8
176
     1
 62
     7
176
     1
 40
1.0
176
     1
 90
        1
176
     1
 90
        6
176
     1
 90
        2
176
     1
 62
     7
176
     1
 90
        3
176
     1
 90
        0
176
     1
 90
        0
176
     1
290
     0
176
     1
 90
        1
176
     1
 40
0.0
176
     1
 90
        0
176
     1
290
     0
176
     1
290
     1
176
     1
290
     1
176
     1
290
     0
176
     1
290
     0
176
     1
290
     0
176
     1
290
     0
176
     1
290
     0
176
     1
290
     0
176
     1
 90
       50
176
     1
 40
0.0
176
     1
 40
1.0
176
     1
 90
        0
176
     1
 62
    18
420
        0
176
     1
 90
       50
176
     1
 90
        3
176
     1
 62
     5
420
      255
176
     1
290
     0
176
     1
 90
       50
176
     1
 90
       50
176
     1
 90
       50
176
     1
290
     0
176
     1
 90
       50
176
     1
 62
   256
176
     0
 40
1.0
176
     0
 90
        2
176
     1
  1
strokes_ogs.tif
176
     1
290
     0
176
     1
 40
1.0
176
     1
 40
1.0
176
     1
  0
VISUALSTYLE
  5
34
102
{ACAD_REACTORS
330
29
102
}
330
29
100
AcDbVisualStyle
  2
Dim
 70
    11
177
     3
291
     1
 70
    58
 90
        2
176
     1
 90
        2
176
     1
 90
        0
176
     1
 90
        0
176
     1
 40
0.6
176
     1
 40
30.0
176
     1
 62
     7
420
 16777215
176
     1
 90
        1
176
     1
 90
        4
176
     1
 62
     7
176
     1
 62
   257
176
     1
 90
        1
176
     1
 90
        1
176
     1
 40
1.0
176
     1
 90
        8
176
     1
 62
     7
176
     1
 40
1.0
176
     1
 90
        1
176
     1
 90
        6
176
     1
 90
        2
176
     1
 62
     7
176
     1
 90
        5
176
     1
 90
        0
176
     1
 90
        0
176
     1
290
     0
176
     1
 90
        1
176
     1
 40
-50.0
176
     1
 90
        0
176
     1
290
     0
176
     1
290
     1
176
     1
290
     1
176
     1
290
     0
176
     1
290
     0
176
     1
290
     0
176
     1
290
     0
176
     1
290
     0
176
     1
290
     0
176
     1
 90
       50
176
     1
 40
0.0
176
     1
 40
1.0
176
     1
 90
        0
176
     1
 62
    18
420
        0
176
     1
 90
       50
176
     1
 90
        3
176
     1
 62
     5
420
      255
176
     1
290
     0
176
     1
 90
       50
176
     1
 90
       50
176
     1
 90
       50
176
     1
290
     0
176
     1
 90
       50
176
     1
 62
   256
176
     0
 40
1.0
176
     0
 90
        2
176
     1
  1
strokes_ogs.tif
176
     1
290
     0
176
     1
 40
1.0
176
     1
 40
1.0
176
     1
  0
VISUALSTYLE
  5
41
102
{ACAD_REACTORS
330
29
102
}
330
29
100
AcDbVisualStyle
  2
EdgeColorOff
 70
    22
177
     3
291
     1
 70
    58
 90
        2
176
     0
 90
        2
176
     0
 90
        0
176
     0
 90
        0
176
     0
 40
0.6
176
     0
 40
30.0
176
     0
 62
     7
420
 16777215
176
     0
 90
        1
176
     0
 90
        4
176
     0
 62
     7
176
     0
 62
   257
176
     0
 90
        1
176
     0
 90
        1
176
     0
 40
1.0
176
     0
 90
        8
176
     2
 62
     7
176
     0
 40
1.0
176
     0
 90
        1
176
     0
 90
        6
176
     0
 90
        2
176
     0
 62
     7
176
     0
 90
        5
176
     0
 90
        0
176
     0
 90
        0
176
     0
290
     0
176
     0
 90
        1
176
     0
 40
0.0
176
     0
 90
        0
176
     0
290
     0
176
     0
290
     1
176
     0
290
     1
176
     0
290
     0
176
     0
290
     0
176
     0
290
     0
176
     0
290
     0
176
     0
290
     0
176
     0
290
     0
176
     0
 90
       50
176
     0
 40
0.0
176
     0
 40
1.0
176
     0
 90
        0
176
     0
 62
    18
420
        0
176
     0
 90
       50
176
     0
 90
        3
176
     0
 62
     5
420
      255
176
     0
290
     0
176
     0
 90
       50
176
     0
 90
       50
176
     0
 90
       50
176
     0
290
     0
176
     0
 90
       50
176
     0
 62
   256
176
     0
 40
1.0
176
     0
 90
        2
176
     0
  1
strokes_ogs.tif
176
     0
290
     0
176
     0
 40
1.0
176
     0
 40
1.0
176
     0
  0
VISUALSTYLE
  5
38
102
{ACAD_REACTORS
330
29
102
}
330
29
100
AcDbVisualStyle
  2
Facepattern
 70
    15
177
     3
291
     1
 70
    58
 90
        2
176
     1
 90
        2
176
     1
 90
        0
176
     1
 90
        0
176
     1
 40
0.6
176
     1
 40
30.0
176
     1
 62
     7
420
 16777215
176
     1
 90
        1
176
     1
 90
        4
176
     1
 62
     7
176
     1
 62
   257
176
     1
 90
        1
176
     1
 90
        1
176
     1
 40
1.0
176
     1
 90
        8
176
     1
 62
     7
176
     1
 40
1.0
176
     1
 90
        1
176
     1
 90
        6
176
     1
 90
        2
176
     1
 62
     7
176
     1
 90
        5
176
     1
 90
        0
176
     1
 90
        0
176
     1
290
     0
176
     1
 90
        1
176
     1
 40
0.0
176
     1
 90
        0
176
     1
290
     0
176
     1
290
     1
176
     1
290
     1
176
     1
290
     0
176
     1
290
     0
176
     1
290
     0
176
     1
290
     0
176
     1
290
     0
176
     1
290
     0
176
     1
 90
       50
176
     1
 40
0.0
176
     1
 40
1.0
176
     1
 90
        0
176
     1
 62
    18
420
        0
176
     1
 90
       50
176
     1
 90
        3
176
     1
 62
     5
420
      255
176
     1
290
     0
176
     1
 90
       50
176
     1
 90
       50
176
     1
 90
       50
176
     1
290
     0
176
     1
 90
       50
176
     1
 62
   256
176
     0
 40
1.0
176
     0
 90
        2
176
     1
  1
strokes_ogs.tif
176
     1
290
     0
176
     1
 40
1.0
176
     1
 40
1.0
176
     1
  0
VISUALSTYLE
  5
2A
102
{ACAD_REACTORS
330
29
102
}
330
29
100
AcDbVisualStyle
  2
Flat
 70
     0
177
     3
291
     1
 70
    58
 90
        2
176
     1
 90
        1
176
     1
 90
        1
176
     1
 90
        2
176
     1
 40
0.6
176
     1
 40
30.0
176
     1
 62
     7
420
 16777215
176
     1
 90
        0
176
     1
 90
        0
176
     1
 62
     7
176
     1
 62
   257
176
     1
 90
        1
176
     1
 90
        1
176
     1
 40
1.0
176
     1
 90
        8
176
     1
 62
     7
176
     1
 40
1.0
176
     1
 90
        1
176
     1
 90
        6
176
     1
 90
        2
176
     1
 62
     7
176
     1
 90
        5
176
     1
 90
        0
176
     1
 90
        0
176
     1
290
     0
176
     1
 90
       13
176
     1
 40
0.0
176
     1
 90
        0
176
     1
290
     0
176
     1
290
     1
176
     1
290
     1
176
     1
290
     0
176
     1
290
     0
176
     1
290
     0
176
     1
290
     0
176
     1
290
     0
176
     1
290
     0
176
     1
 90
       50
176
     1
 40
0.0
176
     1
 40
1.0
176
     1
 90
        0
176
     1
 62
    18
420
        0
176
     1
 90
       50
176
     1
 90
        3
176
     1
 62
     5
420
      255
176
     1
290
     0
176
     1
 90
       50
176
     1
 90
       50
176
     1
 90
       50
176
     1
290
     0
176
     1
 90
       50
176
     1
 62
   256
176
     0
 40
1.0
176
     0
 90
        2
176
     1
  1
strokes_ogs.tif
176
     1
290
     0
176
     1
 40
1.0
176
     1
 40
1.0
176
     1
  0
VISUALSTYLE
  5
2B
102
{ACAD_REACTORS
330
29
102
}
330
29
100
AcDbVisualStyle
  2
FlatWithEdges
 70
     1
177
     3
291
     1
 70
    58
 90
        2
176
     1
 90
        1
176
     1
 90
        1
176
     1
 90
        2
176
     1
 40
0.6
176
     1
 40
30.0
176
     1
 62
     7
420
 16777215
176
     1
 90
        1
176
     1
 90
        0
176
     1
 62
     7
176
     1
 62
   257
176
     1
 90
        1
176
     1
 90
        1
176
     1
 40
1.0
176
     1
 90
        0
176
     1
 62
   257
176
     1
 40
1.0
176
     1
 90
        1
176
     1
 90
        6
176
     1
 90
        2
176
     1
 62
     7
176
     1
 90
        5
176
     1
 90
        0
176
     1
 90
        0
176
     1
290
     0
176
     1
 90
       13
176
     1
 40
0.0
176
     1
 90
        0
176
     1
290
     0
176
     1
290
     1
176
     1
290
     1
176
     1
290
     0
176
     1
290
     0
176
     1
290
     0
176
     1
290
     0
176
     1
290
     0
176
     1
290
     0
176
     1
 90
       50
176
     1
 40
0.0
176
     1
 40
1.0
176
     1
 90
        0
176
     1
 62
    18
420
        0
176
     1
 90
       50
176
     1
 90
        3
176
     1
 62
     5
420
      255
176
     1
290
     0
176
     1
 90
       50
176
     1
 90
       50
176
     1
 90
       50
176
     1
290
     0
176
     1
 90
       50
176
     1
 62
   256
176
     0
 40
1.0
176
     0
 90
        2
176
     1
  1
strokes_ogs.tif
176
     1
290
     0
176
     1
 40
1.0
176
     1
 40
1.0
176
     1
  0
VISUALSTYLE
  5
2C
102
{ACAD_REACTORS
330
29
102
}
330
29
100
AcDbVisualStyle
  2
Gouraud
 70
     2
177
     3
291
     1
 70
    58
 90
        2
176
     1
 90
        2
176
     1
 90
        1
176
     1
 90
        2
176
     1
 40
0.6
176
     1
 40
30.0
176
     1
 62
     7
420
 16777215
176
     1
 90
        0
176
     1
 90
        0
176
     1
 62
     7
176
     1
 62
   257
176
     1
 90
        1
176
     1
 90
        1
176
     1
 40
1.0
176
     1
 90
        0
176
     1
 62
     7
176
     1
 40
1.0
176
     1
 90
        1
176
     1
 90
        6
176
     1
 90
        2
176
     1
 62
     7
176
     1
 90
        5
176
     1
 90
        0
176
     1
 90
        0
176
     1
290
     0
176
     1
 90
       13
176
     1
 40
0.0
176
     1
 90
        0
176
     1
290
     0
176
     1
290
     1
176
     1
290
     1
176
     1
290
     0
176
     1
290
     0
176
     1
290
     0
176
     1
290
     0
176
     1
290
     0
176
     1
290
     0
176
     1
 90
       50
176
     1
 40
0.0
176
     1
 40
1.0
176
     1
 90
        0
176
     1
 62
    18
420
        0
176
     1
 90
       50
176
     1
 90
        3
176
     1
 62
     5
420
      255
176
     1
290
     0
176
     1
 90
       50
176
     1
 90
       50
176
     1
 90
       50
176
     1
290
     0
176
     1
 90
       50
176
     1
 62
   256
176
     0
 40
1.0
176
     0
 90
        2
176
     1
  1
strokes_ogs.tif
176
     1
290
     0
176
     1
 40
1.0
176
     1
 40
1.0
176
     1
  0
VISUALSTYLE
  5
2D
102
{ACAD_REACTORS
330
29
102
}
330
29
100
AcDbVisualStyle
  2
GouraudWithEdges
 70
     3
177
     3
291
     1
 70
    58
 90
        2
176
     1
 90
        2
176
     1
 90
        1
176
     1
 90
        2
176
     1
 40
0.6
176
     1
 40
30.0
176
     1
 62
     7
420
 16777215
176
     1
 90
        1
176
     1
 90
        0
176
     1
 62
     7
176
     1
 62
   257
176
     1
 90
        1
176
     1
 90
        1
176
     1
 40
1.0
176
     1
 90
        0
176
     1
 62
   257
176
     1
 40
1.0
176
     1
 90
        1
176
     1
 90
        6
176
     1
 90
        2
176
     1
 62
     7
176
     1
 90
        5
176
     1
 90
        0
176
     1
 90
        0
176
     1
290
     0
176
     1
 90
       13
176
     1
 40
0.0
176
     1
 90
        0
176
     1
290
     0
176
     1
290
     1
176
     1
290
     1
176
     1
290
     0
176
     1
290
     0
176
     1
290
     0
176
     1
290
     0
176
     1
290
     0
176
     1
290
     0
176
     1
 90
       50
176
     1
 40
0.0
176
     1
 40
1.0
176
     1
 90
        0
176
     1
 62
    18
420
        0
176
     1
 90
       50
176
     1
 90
        3
176
     1
 62
     5
420
      255
176
     1
290
     0
176
     1
 90
       50
176
     1
 90
       50
176
     1
 90
       50
176
     1
290
     0
176
     1
 90
       50
176
     1
 62
   256
176
     0
 40
1.0
176
     0
 90
        2
176
     1
  1
strokes_ogs.tif
176
     1
290
     0
176
     1
 40
1.0
176
     1
 40
1.0
176
     1
  0
VISUALSTYLE
  5
31
102
{ACAD_REACTORS
330
29
102
}
330
29
100
AcDbVisualStyle
  2
Hidden
 70
     6
177
     3
291
     0
 70
    58
 90
        1
176
     1
 90
        2
176
     1
 90
        2
176
     1
 90
        0
176
     1
 40
0.6
176
     1
 40
30.0
176
     1
 62
     7
420
 16777215
176
     1
 90
        2
176
     1
 90
        2
176
     1
 62
     7
176
     1
 62
   257
176
     1
 90
        2
176
     1
 90
        1
176
     1
 40
40.0
176
     1
 90
        0
176
     1
 62
   257
176
     1
 40
1.0
176
     1
 90
        1
176
     1
 90
        6
176
     1
 90
        2
176
     1
 62
     7
176
     1
 90
        3
176
     1
 90
        0
176
     1
 90
        0
176
     1
290
     0
176
     1
 90
        1
176
     1
 40
0.0
176
     1
 90
        0
176
     1
290
     0
176
     1
290
     1
176
     1
290
     1
176
     1
290
     0
176
     1
290
     0
176
     1
290
     0
176
     1
290
     0
176
     1
290
     0
176
     1
290
     0
176
     1
 90
       50
176
     1
 40
0.0
176
     1
 40
1.0
176
     1
 90
        0
176
     1
 62
    18
420
        0
176
     1
 90
       50
176
     1
 90
        3
176
     1
 62
     5
420
      255
176
     1
290
     0
176
     1
 90
       50
176
     1
 90
       50
176
     1
 90
       50
176
     1
290
     0
176
     1
 90
       50
176
     1
 62
   256
176
     0
 40
1.0
176
     0
 90
        2
176
     1
  1
strokes_ogs.tif
176
     1
290
     0
176
     1
 40
1.0
176
     1
 40
1.0
176
     1
  0
VISUALSTYLE
  5
3F
102
{ACAD_REACTORS
330
29
102
}
330
29
100
AcDbVisualStyle
  2
JitterOff
 70
    20
177
     3
291
     1
 70
    58
 90
        2
176
     0
 90
        2
176
     0
 90
        0
176
     0
 90
        0
176
     0
 40
0.6
176
     0
 40
30.0
176
     0
 62
     7
420
 16777215
176
     0
 90
        1
176
     0
 90
        4
176
     0
 62
     7
176
     0
 62
   257
176
     0
 90
        1
176
     0
 90
        1
176
     0
 40
1.0
176
     0
 90
       10
176
     2
 62
     7
176
     0
 40
1.0
176
     0
 90
        1
176
     0
 90
        6
176
     0
 90
        2
176
     0
 62
     7
176
     0
 90
        5
176
     0
 90
        0
176
     0
 90
        0
176
     0
290
     0
176
     0
 90
        1
176
     0
 40
0.0
176
     0
 90
        0
176
     0
290
     0
176
     0
290
     1
176
     0
290
     1
176
     0
290
     0
176
     0
290
     0
176
     0
290
     0
176
     0
290
     0
176
     0
290
     0
176
     0
290
     0
176
     0
 90
       50
176
     0
 40
0.0
176
     0
 40
1.0
176
     0
 90
        0
176
     0
 62
    18
420
        0
176
     0
 90
       50
176
     0
 90
        3
176
     0
 62
     5
420
      255
176
     0
290
     0
176
     0
 90
       50
176
     0
 90
       50
176
     0
 90
       50
176
     0
290
     0
176
     0
 90
       50
176
     0
 62
   256
176
     0
 40
1.0
176
     0
 90
        2
176
     0
  1
strokes_ogs.tif
176
     0
290
     0
176
     0
 40
1.0
176
     0
 40
1.0
176
     0
  0
VISUALSTYLE
  5
37
102
{ACAD_REACTORS
330
29
102
}
330
29
100
AcDbVisualStyle
  2
Linepattern
 70
    14
177
     3
291
     1
 70
    58
 90
        2
176
     1
 90
        2
176
     1
 90
        0
176
     1
 90
        0
176
     1
 40
0.6
176
     1
 40
30.0
176
     1
 62
     7
420
 16777215
176
     1
 90
        1
176
     1
 90
        4
176
     1
 62
     7
176
     1
 62
   257
176
     1
 90
        7
176
     1
 90
        7
176
     1
 40
1.0
176
     1
 90
        8
176
     1
 62
     7
176
     1
 40
1.0
176
     1
 90
        1
176
     1
 90
        6
176
     1
 90
        2
176
     1
 62
     7
176
     1
 90
        5
176
     1
 90
        0
176
     1
 90
        0
176
     1
290
     0
176
     1
 90
        1
176
     1
 40
0.0
176
     1
 90
        0
176
     1
290
     0
176
     1
290
     1
176
     1
290
     1
176
     1
290
     0
176
     1
290
     0
176
     1
290
     0
176
     1
290
     0
176
     1
290
     0
176
     1
290
     0
176
     1
 90
       50
176
     1
 40
0.0
176
     1
 40
1.0
176
     1
 90
        0
176
     1
 62
    18
420
        0
176
     1
 90
       50
176
     1
 90
        3
176
     1
 62
     5
420
      255
176
     1
290
     0
176
     1
 90
       50
176
     1
 90
       50
176
     1
 90
       50
176
     1
290
     0
176
     1
 90
       50
176
     1
 62
   256
176
     0
 40
1.0
176
     0
 90
        2
176
     1
  1
strokes_ogs.tif
176
     1
290
     0
176
     1
 40
1.0
176
     1
 40
1.0
176
     1
  0
VISUALSTYLE
  5
40
102
{ACAD_REACTORS
330
29
102
}
330
29
100
AcDbVisualStyle
  2
OverhangOff
 70
    21
177
     3
291
     1
 70
    58
 90
        2
176
     0
 90
        2
176
     0
 90
        0
176
     0
 90
        0
176
     0
 40
0.6
176
     0
 40
30.0
176
     0
 62
     7
420
 16777215
176
     0
 90
        1
176
     0
 90
        4
176
     0
 62
     7
176
     0
 62
   257
176
     0
 90
        1
176
     0
 90
        1
176
     0
 40
1.0
176
     0
 90
        9
176
     2
 62
     7
176
     0
 40
1.0
176
     0
 90
        1
176
     0
 90
        6
176
     0
 90
        2
176
     0
 62
     7
176
     0
 90
        5
176
     0
 90
        0
176
     0
 90
        0
176
     0
290
     0
176
     0
 90
        1
176
     0
 40
0.0
176
     0
 90
        0
176
     0
290
     0
176
     0
290
     1
176
     0
290
     1
176
     0
290
     0
176
     0
290
     0
176
     0
290
     0
176
     0
290
     0
176
     0
290
     0
176
     0
290
     0
176
     0
 90
       50
176
     0
 40
0.0
176
     0
 40
1.0
176
     0
 90
        0
176
     0
 62
    18
420
        0
176
     0
 90
       50
176
     0
 90
        3
176
     0
 62
     5
420
      255
176
     0
290
     0
176
     0
 90
       50
176
     0
 90
       50
176
     0
 90
       50
176
     0
290
     0
176
     0
 90
       50
176
     0
 62
   256
176
     0
 40
1.0
176
     0
 90
        2
176
     0
  1
strokes_ogs.tif
176
     0
290
     0
176
     0
 40
1.0
176
     0
 40
1.0
176
     0
  0
VISUALSTYLE
  5
33
102
{ACAD_REACTORS
330
29
102
}
330
29
100
AcDbVisualStyle
  2
Realistic
 70
     8
177
     3
291
     0
 70
    58
 90
        2
176
     1
 90
        3
176
     1
 90
        0
176
     1
 90
        2
176
     1
 40
0.6
176
     1
 40
30.0
176
     1
 62
     7
420
 16777215
176
     1
 90
        0
176
     1
 90
        0
176
     1
 62
     7
176
     1
 62
   257
176
     1
 90
        1
176
     1
 90
        1
176
     1
 40
1.0
176
     1
 90
        8
176
     1
 62
   257
176
     1
 40
1.0
176
     1
 90
        1
176
     1
 90
        6
176
     1
 90
        2
176
     1
 62
     7
176
     1
 90
        3
176
     1
 90
        0
176
     1
 90
        0
176
     1
290
     0
176
     1
 90
       13
176
     1
 40
0.0
176
     1
 90
        0
176
     1
290
     0
176
     1
290
     1
176
     1
290
     1
176
     1
290
     0
176
     1
290
     0
176
     1
290
     0
176
     1
290
     0
176
     1
290
     0
176
     1
290
     0
176
     1
 90
       50
176
     1
 40
0.0
176
     1
 40
1.0
176
     1
 90
        0
176
     1
 62
    18
420
        0
176
     1
 90
       50
176
     1
 90
        3
176
     1
 62
     5
420
      255
176
     1
290
     0
176
     1
 90
       50
176
     1
 90
       50
176
     1
 90
       50
176
     1
290
     0
176
     1
 90
       50
176
     1
 62
   256
176
     0
 40
1.0
176
     0
 90
        2
176
     1
  1
strokes_ogs.tif
176
     1
290
     0
176
     1
 40
1.0
176
     1
 40
1.0
176
     1
  0
VISUALSTYLE
  5
3E
102
{ACAD_REACTORS
330
29
102
}
330
29
100
AcDbVisualStyle
  2
Shaded
 70
    27
177
     3
291
     0
 70
    58
 90
        2
176
     1
 90
        2
176
     1
 90
        1
176
     1
 90
        2
176
     1
 40
0.6
176
     1
 40
30.0
176
     1
 62
     7
420
 16777215
176
     1
 90
        0
176
     1
 90
        4
176
     1
 62
     7
176
     1
 62
   257
176
     1
 90
        1
176
     1
 90
        1
176
     1
 40
1.0
176
     1
 90
        8
176
     1
 62
   257
176
     1
 40
1.0
176
     1
 90
        1
176
     1
 90
        6
176
     1
 90
        2
176
     1
 62
     8
420
  7895160
176
     1
 90
        3
176
     1
 90
        0
176
     1
 90
        0
176
     1
290
     0
176
     1
 90
        5
176
     1
 40
0.0
176
     1
 90
        0
176
     1
290
     0
176
     1
290
     1
176
     1
290
     1
176
     1
290
     0
176
     1
290
     0
176
     1
290
     0
176
     1
290
     0
176
     1
290
     0
176
     1
290
     0
176
     1
 90
       50
176
     1
 40
0.0
176
     1
 40
1.0
176
     1
 90
        0
176
     1
 62
    18
420
        0
176
     1
 90
       50
176
     1
 90
        3
176
     1
 62
     5
420
      255
176
     1
290
     0
176
     1
 90
       50
176
     1
 90
       50
176
     1
 90
       50
176
     1
290
     0
176
     1
 90
       50
176
     1
 62
   256
176
     0
 40
1.0
176
     0
 90
        2
176
     1
  1
strokes_ogs.tif
176
     1
290
     0
176
     1
 40
1.0
176
     1
 40
1.0
176
     1
  0
VISUALSTYLE
  5
3D
102
{ACAD_REACTORS
330
29
102
}
330
29
100
AcDbVisualStyle
  2
Shaded with edges
 70
    26
177
     3
291
     0
 70
    58
 90
        2
176
     1
 90
        2
176
     1
 90
        1
176
     1
 90
        2
176
     1
 40
0.6
176
     1
 40
30.0
176
     1
 62
     7
420
 16777215
176
     1
 90
        1
176
     1
 90
        2
176
     1
 62
     7
176
     1
 62
   257
176
     1
 90
        2
176
     1
 90
        1
176
     1
 40
1.0
176
     1
 90
        8
176
     1
 62
   257
176
     1
 40
1.0
176
     1
 90
        1
176
     1
 90
        6
176
     1
 90
        2
176
     1
 62
     7
176
     1
 90
        3
176
     1
 90
        0
176
     1
 90
        0
176
     1
290
     0
176
     1
 90
        5
176
     1
 40
0.0
176
     1
 90
        0
176
     1
290
     0
176
     1
290
     1
176
     1
290
     1
176
     1
290
     0
176
     1
290
     0
176
     1
290
     0
176
     1
290
     0
176
     1
290
     0
176
     1
290
     0
176
     1
 90
       50
176
     1
 40
0.0
176
     1
 40
1.0
176
     1
 90
        0
176
     1
 62
    18
420
        0
176
     1
 90
       50
176
     1
 90
        3
176
     1
 62
     5
420
      255
176
     1
290
     0
176
     1
 90
       50
176
     1
 90
       50
176
     1
 90
       50
176
     1
290
     0
176
     1
 90
       50
176
     1
 62
   256
176
     0
 40
1.0
176
     0
 90
        2
176
     1
  1
strokes_ogs.tif
176
     1
290
     0
176
     1
 40
1.0
176
     1
 40
1.0
176
     1
  0
VISUALSTYLE
  5
3A
102
{ACAD_REACTORS
330
29
102
}
330
29
100
AcDbVisualStyle
  2
Shades of Gray
 70
    23
177
     3
291
     0
 70
    58
 90
        2
176
     1
 90
        2
176
     1
 90
        3
176
     1
 90
        0
176
     1
 40
0.6
176
     1
 40
30.0
176
     1
 62
     7
420
 16777215
176
     1
 90
        2
176
     1
 90
        2
176
     1
 62
     7
176
     1
 62
     7
176
     1
 90
        1
176
     1
 90
        1
176
     1
 40
40.0
176
     1
 90
        8
176
     1
 62
     7
176
     1
 40
1.0
176
     1
 90
        1
176
     1
 90
        6
176
     1
 90
        2
176
     1
 62
     7
176
     1
 90
        3
176
     1
 90
        0
176
     1
 90
        0
176
     1
290
     0
176
     1
 90
        1
176
     1
 40
0.0
176
     1
 90
        0
176
     1
290
     0
176
     1
290
     1
176
     1
290
     1
176
     1
290
     0
176
     1
290
     0
176
     1
290
     0
176
     1
290
     0
176
     1
290
     0
176
     1
290
     0
176
     1
 90
       50
176
     1
 40
0.0
176
     1
 40
1.0
176
     1
 90
        0
176
     1
 62
    18
420
        0
176
     1
 90
       50
176
     1
 90
        3
176
     1
 62
     5
420
      255
176
     1
290
     0
176
     1
 90
       50
176
     1
 90
       50
176
     1
 90
       50
176
     1
290
     0
176
     1
 90
       50
176
     1
 62
   256
176
     0
 40
1.0
176
     0
 90
        2
176
     1
  1
strokes_ogs.tif
176
     1
290
     0
176
     1
 40
1.0
176
     1
 40
1.0
176
     1
  0
VISUALSTYLE
  5
3B
102
{ACAD_REACTORS
330
29
102
}
330
29
100
AcDbVisualStyle
  2
Sketchy
 70
    24
177
     3
291
     0
 70
    58
 90
        1
176
     1
 90
        2
176
     1
 90
        2
176
     1
 90
        0
176
     1
 40
0.6
176
     1
 40
30.0
176
     1
 62
     7
420
 16777215
176
     1
 90
        2
176
     1
 90
        2
176
     1
 62
     7
176
     1
 62
     7
176
     1
 90
        1
176
     1
 90
        1
176
     1
 40
40.0
176
     1
 90
       11
176
     1
 62
     7
176
     1
 40
1.0
176
     1
 90
        1
176
     1
 90
        6
176
     1
 90
        2
176
     1
 62
     7
176
     1
 90
        6
176
     1
 90
        0
176
     1
 90
        0
176
     1
290
     0
176
     1
 90
        1
176
     1
 40
0.0
176
     1
 90
        0
176
     1
290
     0
176
     1
290
     1
176
     1
290
     1
176
     1
290
     0
176
     1
290
     0
176
     1
290
     0
176
     1
290
     0
176
     1
290
     0
176
     1
290
     0
176
     1
 90
       50
176
     1
 40
0.0
176
     1
 40
1.0
176
     1
 90
        0
176
     1
 62
    18
420
        0
176
     1
 90
       50
176
     1
 90
        3
176
     1
 62
     5
420
      255
176
     1
290
     0
176
     1
 90
       50
176
     1
 90
       50
176
     1
 90
       50
176
     1
290
     0
176
     1
 90
       50
176
     1
 62
   256
176
     0
 40
1.0
176
     0
 90
        2
176
     1
  1
strokes_ogs.tif
176
     1
290
     0
176
     1
 40
1.0
176
     1
 40
1.0
176
     1
  0
VISUALSTYLE
  5
36
102
{ACAD_REACTORS
330
29
102
}
330
29
100
AcDbVisualStyle
  2
Thicken
 70
    13
177
     3
291
     1
 70
    58
 90
        2
176
     1
 90
        2
176
     1
 90
        0
176
     1
 90
        0
176
     1
 40
0.6
176
     1
 40
30.0
176
     1
 62
     7
420
 16777215
176
     1
 90
        1
176
     1
 90
        4
176
     1
 62
     7
176
     1
 62
   257
176
     1
 90
        1
176
     1
 90
        1
176
     1
 40
1.0
176
     1
 90
       12
176
     1
 62
     7
176
     1
 40
1.0
176
     1
 90
        1
176
     1
 90
        6
176
     1
 90
        2
176
     1
 62
     7
176
     1
 90
        5
176
     1
 90
        0
176
     1
 90
        0
176
     1
290
     0
176
     1
 90
        1
176
     1
 40
0.0
176
     1
 90
        0
176
     1
290
     0
176
     1
290
     1
176
     1
290
     1
176
     1
290
     0
176
     1
290
     0
176
     1
290
     0
176
     1
290
     0
176
     1
290
     0
176
     1
290
     0
176
     1
 90
       50
176
     1
 40
0.0
176
     1
 40
1.0
176
     1
 90
        0
176
     1
 62
    18
420
        0
176
     1
 90
       50
176
     1
 90
        3
176
     1
 62
     5
420
      255
176
     1
290
     0
176
     1
 90
       50
176
     1
 90
       50
176
     1
 90
       50
176
     1
290
     0
176
     1
 90
       50
176
     1
 62
   256
176
     0
 40
1.0
176
     0
 90
        2
176
     1
  1
strokes_ogs.tif
176
     1
290
     0
176
     1
 40
1.0
176
     1
 40
1.0
176
     1
  0
VISUALSTYLE
  5
30
102
{ACAD_REACTORS
330
29
102
}
330
29
100
AcDbVisualStyle
  2
Wireframe
 70
     5
177
     3
291
     0
 70
    58
 90
        0
176
     1
 90
        2
176
     1
 90
        0
176
     1
 90
        0
176
     1
 40
0.6
176
     1
 40
30.0
176
     1
 62
     7
420
 16777215
176
     1
 90
        1
176
     1
 90
        4
176
     1
 62
     7
176
     1
 62
   257
176
     1
 90
        1
176
     1
 90
        1
176
     1
 40
1.0
176
     1
 90
        0
176
     1
 62
   257
176
     1
 40
1.0
176
     1
 90
        1
176
     1
 90
        6
176
     1
 90
        2
176
     1
 62
     7
176
     1
 90
        3
176
     1
 90
        0
176
     1
 90
        0
176
     1
290
     0
176
     1
 90
        1
176
     1
 40
0.0
176
     1
 90
        0
176
     1
290
     0
176
     1
290
     1
176
     1
290
     1
176
     1
290
     0
176
     1
290
     0
176
     1
290
     0
176
     1
290
     0
176
     1
290
     0
176
     1
290
     0
176
     1
 90
       50
176
     1
 40
0.0
176
     1
 40
1.0
176
     1
 90
        0
176
     1
 62
    18
420
        0
176
     1
 90
       50
176
     1
 90
        3
176
     1
 62
     5
420
      255
176
     1
290
     0
176
     1
 90
       50
176
     1
 90
       50
176
     1
 90
       50
176
     1
290
     0
176
     1
 90
       50
176
     1
 62
   256
176
     0
 40
1.0
176
     0
 90
        2
176
     1
  1
strokes_ogs.tif
176
     1
290
     0
176
     1
 40
1.0
176
     1
 40
1.0
176
     1
  0
VISUALSTYLE
  5
3C
102
{ACAD_REACTORS
330
29
102
}
330
29
100
AcDbVisualStyle
  2
X-Ray
 70
    25
177
     3
291
     0
 70
    58
 90
        2
176
     1
 90
        2
176
     1
 90
        1
176
     1
 90
        1
176
     1
 40
0.5
176
     1
 40
30.0
176
     1
 62
     7
420
 16777215
176
     1
 90
        1
176
     1
 90
        0
176
     1
 62
     7
176
     1
 62
   257
176
     1
 90
        1
176
     1
 90
        1
176
     1
 40
1.0
176
     1
 90
        8
176
     1
 62
     7
176
     1
 40
1.0
176
     1
 90
        1
176
     1
 90
        6
176
     1
 90
        2
176
     1
 62
     7
176
     1
 90
        3
176
     1
 90
        0
176
     1
 90
        0
176
     1
290
     0
176
     1
 90
       13
176
     1
 40
0.0
176
     1
 90
        0
176
     1
290
     0
176
     1
290
     1
176
     1
290
     1
176
     1
290
     0
176
     1
290
     0
176
     1
290
     0
176
     1
290
     0
176
     1
290
     0
176
     1
290
     0
176
     1
 90
       50
176
     1
 40
0.0
176
     1
 40
1.0
176
     1
 90
        0
176
     1
 62
    18
420
        0
176
     1
 90
       50
176
     1
 90
        3
176
     1
 62
     5
420
      255
176
     1
290
     0
176
     1
 90
       50
176
     1
 90
       50
176
     1
 90
       50
176
     1
290
     0
176
     1
 90
       50
176
     1
 62
   256
176
     0
 40
1.0
176
     0
 90
        2
176
     1
  1
strokes_ogs.tif
176
     1
290
     0
176
     1
 40
1.0
176
     1
 40
1.0
176
     1
  0
DICTIONARYVAR
  5
CA
102
{ACAD_REACTORS
330
C5
102
}
330
C5
100
DictionaryVariables
280
     0
  1
1:1
  0
DICTIONARYVAR
  5
C7
102
{ACAD_REACTORS
330
C5
102
}
330
C5
100
DictionaryVariables
280
     0
  1
STANDARD
  0
DICTIONARYVAR
  5
C6
102
{ACAD_REACTORS
330
C5
102
}
330
C5
100
DictionaryVariables
280
     0
  1
STANDARD
  0
DICTIONARYVAR
  5
C8
102
{ACAD_REACTORS
330
C5
102
}
330
C5
100
DictionaryVariables
280
     0
  1
Imperial24
  0
DICTIONARYVAR
  5
C9
102
{ACAD_REACTORS
330
C5
102
}
330
C5
100
DictionaryVariables
280
     0
  1
Imperial24
  0
DICTIONARY
  5
1A
330
19
100
AcDbDictionary
280
     1
281
     1
  3
BUMPTILE
360
1C
  3
DIFFUSETILE
360
1B
  3
OPACITYTILE
360
1F
  3
REFLECTIONTILE
360
1E
  3
REFRACTIONTILE
360
20
  3
SPECULARTILE
360
1D
  0
DICTIONARY
  5
12
330
11
100
AcDbDictionary
280
     1
281
     1
  3
BUMPTILE
360
14
  3
DIFFUSETILE
360
13
  3
OPACITYTILE
360
17
  3
REFLECTIONTILE
360
16
  3
REFRACTIONTILE
360
18
  3
SPECULARTILE
360
15
  0
DICTIONARY
  5
22
330
21
100
AcDbDictionary
280
     1
281
     1
  3
BUMPTILE
360
24
  3
DIFFUSETILE
360
23
  3
OPACITYTILE
360
27
  3
REFLECTIONTILE
360
26
  3
REFRACTIONTILE
360
28
  3
SPECULARTILE
360
25
  0
DICTIONARY
  5
CB
330
65
100
AcDbDictionary
280
     1
281
     1
  3
ACAD_ROUNDTRIP_2008_TABLESTYLE_CELLSTYLEMAP
360
CC
  0
XRECORD
  5
1C
102
{ACAD_REACTORS
330
1A
102
}
330
1A
100
AcDbXrecord
280
     1
270
     1
271
     1
  0
XRECORD
  5
1B
102
{ACAD_REACTORS
330
1A
102
}
330
1A
100
AcDbXrecord
280
     1
270
     1
271
     1
  0
XRECORD
  5
1F
102
{ACAD_REACTORS
330
1A
102
}
330
1A
100
AcDbXrecord
280
     1
270
     1
271
     1
  0
XRECORD
  5
1E
102
{ACAD_REACTORS
330
1A
102
}
330
1A
100
AcDbXrecord
280
     1
270
     1
271
     1
  0
XRECORD
  5
20
102
{ACAD_REACTORS
330
1A
102
}
330
1A
100
AcDbXrecord
280
     1
270
     1
271
     1
  0
XRECORD
  5
1D
102
{ACAD_REACTORS
330
1A
102
}
330
1A
100
AcDbXrecord
280
     1
270
     1
271
     1
  0
XRECORD
  5
14
102
{ACAD_REACTORS
330
12
102
}
330
12
100
AcDbXrecord
280
     1
270
     1
271
     1
  0
XRECORD
  5
13
102
{ACAD_REACTORS
330
12
102
}
330
12
100
AcDbXrecord
280
     1
270
     1
271
     1
  0
XRECORD
  5
17
102
{ACAD_REACTORS
330
12
102
}
330
12
100
AcDbXrecord
280
     1
270
     1
271
     1
  0
XRECORD
  5
16
102
{ACAD_REACTORS
330
12
102
}
330
12
100
AcDbXrecord
280
     1
270
     1
271
     1
  0
XRECORD
  5
18
102
{ACAD_REACTORS
330
12
102
}
330
12
100
AcDbXrecord
280
     1
270
     1
271
     1
  0
XRECORD
  5
15
102
{ACAD_REACTORS
330
12
102
}
330
12
100
AcDbXrecord
280
     1
270
     1
271
     1
  0
XRECORD
  5
24
102
{ACAD_REACTORS
330
22
102
}
330
22
100
AcDbXrecord
280
     1
270
     1
271
     1
  0
XRECORD
  5
23
102
{ACAD_REACTORS
330
22
102
}
330
22
100
AcDbXrecord
280
     1
270
     1
271
     1
  0
XRECORD
  5
27
102
{ACAD_REACTORS
330
22
102
}
330
22
100
AcDbXrecord
280
     1
270
     1
271
     1
  0
XRECORD
  5
26
102
{ACAD_REACTORS
330
22
102
}
330
22
100
AcDbXrecord
280
     1
270
     1
271
     1
  0
XRECORD
  5
28
102
{ACAD_REACTORS
330
22
102
}
330
22
100
AcDbXrecord
280
     1
270
     1
271
     1
  0
XRECORD
  5
25
102
{ACAD_REACTORS
330
22
102
}
330
22
100
AcDbXrecord
280
     1
270
     1
271
     1
  0
CELLSTYLEMAP
  5
CC
102
{ACAD_REACTORS
330
CB
102
}
330
CB
100
AcDbCellStyleMap
 90
        3
300
CELLSTYLE
  1
TABLEFORMAT_BEGIN
 90
        5
170
     1
 91
        0
 92
    32768
 62
   257
 93
        1
300
CONTENTFORMAT
  1
CONTENTFORMAT_BEGIN
 90
        0
 91
        0
 92
      512
 93
        0
300

 40
0.0
140
1.0
 94
        5
 62
     0
340
55
144
0.25
309
CONTENTFORMAT_END
171
     0
 94
        0
309
TABLEFORMAT_END
  1
CELLSTYLE_BEGIN
 90
        1
 91
        1
300
_TITLE
309
CELLSTYLE_END
300
CELLSTYLE
  1
TABLEFORMAT_BEGIN
 90
        5
170
     1
 91
        0
 92
        0
 62
   257
 93
        1
300
CONTENTFORMAT
  1
CONTENTFORMAT_BEGIN
 90
        0
 91
        0
 92
      512
 93
        0
300

 40
0.0
140
1.0
 94
        5
 62
     0
340
55
144
0.18
309
CONTENTFORMAT_END
171
     0
 94
        0
309
TABLEFORMAT_END
  1
CELLSTYLE_BEGIN
 90
        2
 91
        1
300
_HEADER
309
CELLSTYLE_END
300
CELLSTYLE
  1
TABLEFORMAT_BEGIN
 90
        5
170
     1
 91
        0
 92
        0
 62
   257
 93
        1
300
CONTENTFORMAT
  1
CONTENTFORMAT_BEGIN
 90
        0
 91
        0
 92
      512
 93
        0
300

 40
0.0
140
1.0
 94
        2
 62
     0
340
55
144
0.18
309
CONTENTFORMAT_END
171
     0
 94
        0
309
TABLEFORMAT_END
  1
CELLSTYLE_BEGIN
 90
        3
 91
        2
300
_DATA
309
CELLSTYLE_END
  0
ENDSEC
  0
EOF
