<?xml version="1.0" encoding="UTF-8"?>
<svg id="cutting" xmlns="http://www.w3.org/2000/svg" width="186.14mm" height="89.88mm" viewBox="0 0 527.65 254.77">
  <defs>
    <style>
      .cls-1 {
        fill: none;
        stroke: blue;
        stroke-miterlimit: 10;
        stroke-width: .28px;
      }
    </style>
  </defs>
  <path id="deleteme" class="cls-1" d="M112.24,23.6c-23.09,0-41.81,18.72-41.81,41.81s18.72,41.81,41.81,41.81,41.81-18.72,41.81-41.81-18.72-41.81-41.81-41.81Zm0,76.54c-19.18,0-34.72-15.55-34.72-34.72s15.55-34.72,34.72-34.72,34.72,15.55,34.72,34.72-15.55,34.72-34.72,34.72h0Z"/>
  <path class="cls-1" d="M54.67,123.03l1.76-25.16H7.8v28.2h6.37c1.1,0,1.99,.89,1.99,1.99l.07,18.42H61.53l42.78,3,3.78-20.73-51.58-3.61c-1.09-.08-1.92-1.02-1.84-2.12h0Zm-31.08,10.45c-.78,0-1.42-.63-1.42-1.42s.63-1.42,1.42-1.42,1.42,.63,1.42,1.42-.63,1.42-1.42,1.42Zm0-5.67c-.78,0-1.42-.63-1.42-1.42s.63-1.42,1.42-1.42,1.42,.63,1.42,1.42-.63,1.42-1.42,1.42Zm0-5.67c-.78,0-1.42-.63-1.42-1.42s.63-1.42,1.42-1.42,1.42,.63,1.42,1.42-.63,1.42-1.42,1.42Zm0-5.67c-.78,0-1.42-.63-1.42-1.42s.63-1.42,1.42-1.42,1.42,.63,1.42,1.42-.63,1.42-1.42,1.42Zm0-5.67c-.78,0-1.42-.63-1.42-1.42s.63-1.42,1.42-1.42,1.42,.63,1.42,1.42-.63,1.42-1.42,1.42Zm5.67,22.68c-.78,0-1.42-.63-1.42-1.42s.63-1.42,1.42-1.42,1.42,.63,1.42,1.42-.63,1.42-1.42,1.42Zm0-5.67c-.78,0-1.42-.63-1.42-1.42s.63-1.42,1.42-1.42,1.42,.63,1.42,1.42-.63,1.42-1.42,1.42Zm0-5.67c-.78,0-1.42-.63-1.42-1.42s.63-1.42,1.42-1.42,1.42,.63,1.42,1.42-.63,1.42-1.42,1.42Zm0-5.67c-.78,0-1.42-.63-1.42-1.42s.63-1.42,1.42-1.42,1.42,.63,1.42,1.42-.63,1.42-1.42,1.42Zm0-5.67c-.78,0-1.42-.63-1.42-1.42s.63-1.42,1.42-1.42,1.42,.63,1.42,1.42-.63,1.42-1.42,1.42Zm5.67,22.68c-.78,0-1.42-.63-1.42-1.42s.63-1.42,1.42-1.42,1.42,.63,1.42,1.42-.63,1.42-1.42,1.42Zm0-5.67c-.78,0-1.42-.63-1.42-1.42s.63-1.42,1.42-1.42,1.42,.63,1.42,1.42-.63,1.42-1.42,1.42Zm0-5.67c-.78,0-1.42-.63-1.42-1.42s.63-1.42,1.42-1.42,1.42,.63,1.42,1.42-.63,1.42-1.42,1.42Zm0-5.67c-.78,0-1.42-.63-1.42-1.42s.63-1.42,1.42-1.42,1.42,.63,1.42,1.42-.63,1.42-1.42,1.42Zm0-5.67c-.78,0-1.42-.63-1.42-1.42s.63-1.42,1.42-1.42,1.42,.63,1.42,1.42-.63,1.42-1.42,1.42Zm5.67,22.68c-.78,0-1.42-.63-1.42-1.42s.63-1.42,1.42-1.42,1.42,.63,1.42,1.42-.63,1.42-1.42,1.42Zm0-5.67c-.78,0-1.42-.63-1.42-1.42s.63-1.42,1.42-1.42,1.42,.63,1.42,1.42-.63,1.42-1.42,1.42Zm0-5.67c-.78,0-1.42-.63-1.42-1.42s.63-1.42,1.42-1.42,1.42,.63,1.42,1.42-.63,1.42-1.42,1.42Zm0-5.67c-.78,0-1.42-.63-1.42-1.42s.63-1.42,1.42-1.42,1.42,.63,1.42,1.42-.63,1.42-1.42,1.42Zm0-5.67c-.78,0-1.42-.63-1.42-1.42s.63-1.42,1.42-1.42,1.42,.63,1.42,1.42-.63,1.42-1.42,1.42Zm5.67,22.68c-.78,0-1.42-.63-1.42-1.42s.63-1.42,1.42-1.42,1.42,.63,1.42,1.42-.63,1.42-1.42,1.42Zm0-5.67c-.78,0-1.42-.63-1.42-1.42s.63-1.42,1.42-1.42,1.42,.63,1.42,1.42-.63,1.42-1.42,1.42Zm0-5.67c-.78,0-1.42-.63-1.42-1.42s.63-1.42,1.42-1.42,1.42,.63,1.42,1.42-.63,1.42-1.42,1.42Zm0-5.67c-.78,0-1.42-.63-1.42-1.42s.63-1.42,1.42-1.42,1.42,.63,1.42,1.42-.63,1.42-1.42,1.42Zm0-5.67c-.78,0-1.42-.63-1.42-1.42s.63-1.42,1.42-1.42,1.42,.63,1.42,1.42-.63,1.42-1.42,1.42Zm49.34,24.45c1.64,0,2.98,1.33,2.98,2.98s-1.33,2.98-2.98,2.98-2.98-1.33-2.98-2.98,1.33-2.98,2.98-2.98Zm-32.81-2.19c1.64,0,2.98,1.33,2.98,2.98s-1.33,2.98-2.98,2.98-2.98-1.33-2.98-2.98,1.33-2.98,2.98-2.98Z"/>
  <path class="cls-1" d="M336.95,.15c-1.1,0-1.98,.89-1.98,1.98V254.45c14.38-13.29,30.2-25.04,46.23-34.3,12.4-7.16,25.41-13.36,38.47-18.39l.08-177.01c0-1.1,.89-1.98,1.98-1.98h51.86v-6.56c0-1.1,.89-1.98,1.98-1.98h51.94l-.04-14.09h-190.52Zm5.4,4.44c1.64,0,2.98,1.33,2.98,2.98s-1.33,2.98-2.98,2.98-2.98-1.33-2.98-2.98,1.33-2.98,2.98-2.98Zm0,231.1c-1.64,0-2.98-1.33-2.98-2.98s1.33-2.98,2.98-2.98,2.98,1.33,2.98,2.98-1.33,2.98-2.98,2.98Zm35.02-28.42c-19.18,0-34.72-15.55-34.72-34.72s15.55-34.72,34.72-34.72,34.72,15.55,34.72,34.72-15.55,34.72-34.72,34.72h0ZM518.29,10.62c-1.64,0-2.98-1.33-2.98-2.98s1.33-2.98,2.98-2.98,2.98,1.33,2.98,2.98-1.33,2.98-2.98,2.98Z"/>
  <path class="cls-1" d="M527.5,149.21V29.3l-15.86-.03-4.46,63.79h0l-80.9-5.6c-2.04-.14-2.41,2.86-.39,3.21l45.12,7.91c1.08,.19,1.8,1.22,1.61,2.3l-8.87,50.32h61.77c1.1,0,1.98-.89,1.98-1.98h0Zm-10.35-107.15c0-1.64,1.33-2.98,2.98-2.98s2.98,1.33,2.98,2.98-1.33,2.98-2.98,2.98-2.98-1.33-2.98-2.98Zm-2.86,42.07c0-1.64,1.33-2.98,2.98-2.98s2.98,1.33,2.98,2.98-1.33,2.98-2.98,2.98-2.98-1.33-2.98-2.98Z"/>
  <path id="deleteme-2" class="cls-1" d="M142.24,116.47c0,23.09,18.72,41.81,41.81,41.81s41.81-18.72,41.81-41.81-18.72-41.81-41.81-41.81-41.81,18.72-41.81,41.81h0Zm7.09,0c0-19.17,15.55-34.72,34.72-34.72s34.72,15.55,34.72,34.72-15.54,34.72-34.72,34.72-34.72-15.55-34.72-34.72h0Z"/>
  <path class="cls-1" d="M61.22,181.43c.08,1.1-.75,2.04-1.84,2.12l-51.58,3.61,3.78,20.73,42.78-3h45.3l.07-18.42c0-1.1,.89-1.99,1.99-1.99h6.37v-28.2H59.46l1.76,25.16h0Zm29.66,8.94c0-.79,.63-1.42,1.42-1.42s1.42,.63,1.42,1.42-.64,1.42-1.42,1.42-1.42-.63-1.42-1.42Zm0-5.67c0-.79,.63-1.42,1.42-1.42s1.42,.63,1.42,1.42-.64,1.42-1.42,1.42-1.42-.63-1.42-1.42Zm0-5.67c0-.79,.63-1.42,1.42-1.42s1.42,.63,1.42,1.42-.64,1.42-1.42,1.42-1.42-.63-1.42-1.42Zm0-5.67c0-.79,.63-1.42,1.42-1.42s1.42,.63,1.42,1.42-.64,1.42-1.42,1.42-1.42-.63-1.42-1.42Zm0-5.67c0-.79,.63-1.42,1.42-1.42s1.42,.63,1.42,1.42-.64,1.42-1.42,1.42-1.42-.63-1.42-1.42Zm-5.67,22.68c0-.79,.63-1.42,1.42-1.42s1.42,.63,1.42,1.42-.64,1.42-1.42,1.42-1.42-.63-1.42-1.42Zm0-5.67c0-.79,.63-1.42,1.42-1.42s1.42,.63,1.42,1.42-.64,1.42-1.42,1.42-1.42-.63-1.42-1.42Zm0-5.67c0-.79,.63-1.42,1.42-1.42s1.42,.63,1.42,1.42-.64,1.42-1.42,1.42-1.42-.63-1.42-1.42Zm0-5.67c0-.79,.63-1.42,1.42-1.42s1.42,.63,1.42,1.42-.64,1.42-1.42,1.42-1.42-.63-1.42-1.42Zm0-5.67c0-.79,.63-1.42,1.42-1.42s1.42,.63,1.42,1.42-.64,1.42-1.42,1.42-1.42-.63-1.42-1.42Zm-5.67,22.68c0-.79,.63-1.42,1.42-1.42s1.42,.63,1.42,1.42-.64,1.42-1.42,1.42-1.42-.63-1.42-1.42Zm0-5.67c0-.79,.63-1.42,1.42-1.42s1.42,.63,1.42,1.42-.64,1.42-1.42,1.42-1.42-.63-1.42-1.42Zm0-5.67c0-.79,.63-1.42,1.42-1.42s1.42,.63,1.42,1.42-.64,1.42-1.42,1.42-1.42-.63-1.42-1.42Zm0-5.67c0-.79,.63-1.42,1.42-1.42s1.42,.63,1.42,1.42-.64,1.42-1.42,1.42-1.42-.63-1.42-1.42Zm0-5.67c0-.79,.63-1.42,1.42-1.42s1.42,.63,1.42,1.42-.64,1.42-1.42,1.42-1.42-.63-1.42-1.42Zm-5.67,22.68c0-.79,.63-1.42,1.42-1.42s1.42,.63,1.42,1.42-.64,1.42-1.42,1.42-1.42-.63-1.42-1.42Zm0-5.67c0-.79,.63-1.42,1.42-1.42s1.42,.63,1.42,1.42-.64,1.42-1.42,1.42-1.42-.63-1.42-1.42Zm0-5.67c0-.79,.63-1.42,1.42-1.42s1.42,.63,1.42,1.42-.64,1.42-1.42,1.42-1.42-.63-1.42-1.42Zm0-5.67c0-.79,.63-1.42,1.42-1.42s1.42,.63,1.42,1.42-.64,1.42-1.42,1.42-1.42-.63-1.42-1.42Zm0-5.67c0-.79,.63-1.42,1.42-1.42s1.42,.63,1.42,1.42-.64,1.42-1.42,1.42-1.42-.63-1.42-1.42Zm-5.67,22.68c0-.79,.63-1.42,1.42-1.42s1.42,.63,1.42,1.42-.64,1.42-1.42,1.42-1.42-.63-1.42-1.42Zm0-5.67c0-.79,.63-1.42,1.42-1.42s1.42,.63,1.42,1.42-.64,1.42-1.42,1.42-1.42-.63-1.42-1.42Zm0-5.67c0-.79,.63-1.42,1.42-1.42s1.42,.63,1.42,1.42-.64,1.42-1.42,1.42-1.42-.63-1.42-1.42Zm0-5.67c0-.79,.63-1.42,1.42-1.42s1.42,.63,1.42,1.42-.64,1.42-1.42,1.42-1.42-.63-1.42-1.42Zm0-5.67c0-.79,.63-1.42,1.42-1.42s1.42,.63,1.42,1.42-.64,1.42-1.42,1.42-1.42-.63-1.42-1.42Zm-44.94,28.85c0,1.65-1.33,2.98-2.98,2.98s-2.98-1.33-2.98-2.98,1.34-2.98,2.98-2.98,2.98,1.33,2.98,2.98Zm32.81-2.19c0,1.65-1.33,2.98-2.98,2.98s-2.98-1.33-2.98-2.98,1.34-2.98,2.98-2.98,2.98,1.33,2.98,2.98Z"/>
  <path class="cls-1" d="M315.81,.14H125.31l-.04,14.09h51.94c1.09,0,1.98,.88,1.98,1.98v6.56h51.86c1.09,0,1.98,.88,1.98,1.98l.08,177.01c13.06,5.03,26.07,11.23,38.47,18.39,16.03,9.26,31.85,21.01,46.23,34.3V2.13c0-1.09-.88-1.98-1.98-1.98h0Zm-2.42,7.33c0,1.65-1.33,2.98-2.98,2.98s-2.98-1.33-2.98-2.98,1.34-2.98,2.98-2.98,2.98,1.33,2.98,2.98Zm-5.96,225.14c0-1.65,1.33-2.98,2.98-2.98s2.98,1.33,2.98,2.98-1.34,2.98-2.98,2.98-2.98-1.33-2.98-2.98Zm-66.76-60.16c0-19.17,15.55-34.72,34.72-34.72s34.72,15.55,34.72,34.72-15.54,34.72-34.72,34.72-34.72-15.55-34.72-34.72ZM131.5,7.64c0-1.65,1.33-2.98,2.98-2.98s2.98,1.33,2.98,2.98-1.34,2.98-2.98,2.98-2.98-1.33-2.98-2.98Z"/>
  <path class="cls-1" d="M2.12,.15C1.03,.15,.14,1.03,.14,2.13V63.9l50.32-8.87c1.08-.19,2.11,.53,2.3,1.61l7.91,45.12c.35,2.02,3.35,1.65,3.21-.39l-5.6-80.9h0l63.79-4.46-.03-15.86s-119.92,0-119.92,0ZM106.28,7.52c0-1.65,1.33-2.98,2.98-2.98s2.98,1.33,2.98,2.98-1.34,2.98-2.98,2.98-2.98-1.33-2.98-2.98Zm-42.07,2.86c0-1.65,1.33-2.98,2.98-2.98s2.98,1.33,2.98,2.98-1.34,2.98-2.98,2.98-2.98-1.33-2.98-2.98Z"/>
</svg>