<?xml version="1.0" encoding="UTF-8"?>
<svg xmlns="http://www.w3.org/2000/svg" width="1500" height="687.05" viewBox="0 0 1500 687.05">
  <defs>
    <style>
      .cls-1 {
        fill: #343434;
      }

      .cls-2 {
        fill: #fff;
      }

      .cls-3 {
        fill: #d8d8d8;
      }

      .cls-4 {
        fill: #919191;
        fill-rule: evenodd;
      }

      .cls-5 {
        fill: #b2b2b2;
      }

      .cls-6 {
        fill: rgba(255, 255, 255, 0);
        stroke: #fff;
        stroke-width: 16.76px;
      }

      .cls-6, .cls-7 {
        stroke-linecap: round;
        stroke-linejoin: round;
      }

      .cls-7 {
        fill: #ccc;
        stroke: #ccc;
        stroke-width: 0px;
      }
    </style>
  </defs>
  <g id="Ebene_5" data-name="Ebene 5">
    <rect class="cls-1" width="1500" height="687.05"/>
    <path class="cls-6" d="M803.1,463.27v-112.38"/>
    <path class="cls-6" d="M803.1,350.89h158.88"/>
    <path class="cls-6" d="M961.98,350.89v112.38"/>
    <path class="cls-6" d="M961.98,463.27h-158.88"/>
    <path class="cls-4" d="M829.14,439.59v-66.48h97.16v66.48h-97.16Z"/>
    <polygon class="cls-7" points="948.71 373.1 948.71 464.19 803 464.19 948.71 464.19 948.71 373.1"/>
    <path class="cls-4" d="M829.14,304.8v-69.68h97.16v69.68h-97.16Z"/>
    <path class="cls-2" d="M1254.54,134.03h-328.24v409.85h328.24V134.03Z"/>
    <path class="cls-4" d="M1254.54,304.8v-69.68h97.16v69.68h-97.16Z"/>
    <path class="cls-4" d="M1254.54,442.79v-69.68h97.16v69.68h-97.16Z"/>
  </g>
  <g id="Ebene_5_Kopie" data-name="Ebene 5 Kopie">
    <g>
      <rect class="cls-3" x="926.82" y="175.61" width="326.7" height="326.7" transform="translate(2180.35 677.91) rotate(180)"/>
      <g>
        <path class="cls-5" d="M1224.9,243.33c-10.1,.56-15.16-7.86-15.16-7.86h-44.35v74.1h56.13v-7.86h32v-66.24h-12.35s-6.17,7.3-16.28,7.86Z"/>
        <path class="cls-5" d="M1253.52,373h-33.12v-30.31h-143.14v96.55h134.72s8.42-8.98,16.28-7.3c7.86,1.68,10.67,7.3,10.67,7.3h14.59v-66.24Z"/>
        <path class="cls-5" d="M933,439.24c11.23-1.12,14.59-7.86,22.45-8.42,7.86-.56,12.91,8.42,12.91,8.42h71.29v-100.97l-10.1-10.74h-68.48v45.47h-34.24v66.65c2.04-.08,4.13-.2,6.17-.41Z"/>
        <path class="cls-5" d="M926.82,302.84h14.03v-10.1h93.74l17.4,16.84h71.85v-74.1h-153.81s-4.49,8.98-16.28,8.42c-11.79-.56-15.72-8.42-15.72-8.42h-11.23v67.36Z"/>
      </g>
    </g>
    <path class="cls-6" d="M691.16,218.73v112.38"/>
    <path class="cls-6" d="M691.16,331.11h-158.88"/>
    <path class="cls-6" d="M532.28,331.11v-112.38"/>
    <path class="cls-6" d="M532.28,218.73h158.88"/>
    <path class="cls-4" d="M665.12,242.42v66.48h-97.16v-66.48h97.16Z"/>
    <polygon class="cls-7" points="545.55 308.9 545.55 217.81 691.27 217.81 545.55 217.81 545.55 308.9"/>
    <path class="cls-4" d="M665.12,377.2v69.68h-97.16v-69.68h97.16Z"/>
    <path class="cls-2" d="M239.72,547.97h328.24V138.12H239.72v409.85Z"/>
    <path class="cls-4" d="M239.72,377.2v69.68h-97.16v-69.68h97.16Z"/>
    <path class="cls-4" d="M239.72,239.21v69.68h-97.16v-69.68h97.16Z"/>
    <g>
      <rect class="cls-3" x="240.74" y="179.7" width="326.7" height="326.7"/>
      <g>
        <path class="cls-5" d="M269.37,438.67c10.1-.56,15.16,7.86,15.16,7.86h44.35v-74.1h-56.13v7.86h-32v66.24h12.35s6.17-7.3,16.28-7.86Z"/>
        <path class="cls-5" d="M240.74,309h33.12v30.31h143.14v-96.55h-134.72s-8.42,8.98-16.28,7.3c-7.86-1.68-10.67-7.3-10.67-7.3h-14.59v66.24Z"/>
        <path class="cls-5" d="M561.27,242.76c-11.23,1.12-14.59,7.86-22.45,8.42-7.86,.56-12.91-8.42-12.91-8.42h-71.29v100.97l10.1,10.74h68.48v-45.47h34.24v-66.65c-2.04,.08-4.13,.2-6.17,.41Z"/>
        <path class="cls-5" d="M567.44,379.17h-14.03v10.1h-93.74l-17.4-16.84h-71.85v74.1h153.81s4.49-8.98,16.28-8.42c11.79,.56,15.72,8.42,15.72,8.42h11.23v-67.36Z"/>
      </g>
    </g>
  </g>
</svg>