<?xml version="1.0" encoding="UTF-8"?>
<svg id="Cuts" xmlns="http://www.w3.org/2000/svg" width="344.25mm" height="117.92mm" viewBox="0 0 975.82 334.27">
  <defs>
    <style>
      .cls-1 {
        fill: none;
        stroke: blue;
        stroke-miterlimit: 10;
        stroke-width: .28px;
      }
    </style>
  </defs>
  <path class="cls-1" d="M733.89,233.21h0v35.6c0,1.88-1.53,3.4-3.4,3.4h-27.82c-16.67,.06-34.56,2.53-51.74,7.13-16.01,4.29-32.69,11.3-48.24,20.28l-.55,.32c-.3,.17-.6,.35-.89,.53-1.42,.84-2.84,1.7-4.34,2.66-.1,.06-.13,.08-.16,.1l-.1,.07-.11,.05-.08,.06-17.76,10.32c-.52,.3-1.11,.46-1.71,.46-1.21,0-2.34-.65-2.95-1.7l-5.58-9.67h-40.5c-1.88,0-3.4-1.53-3.4-3.4v-46.04l-14.17,15.19v46.45c0,1.1,.89,1.98,1.98,1.98h47.9l9.3,16.14c.55,.95,1.77,1.28,2.72,.72l31.29-18.18,.57-.29,.34-.25,.04-.02,.19-.15c1.28-.81,2.5-1.55,3.72-2.27l.22-.13c.18-.11,.37-.22,.62-.36l.51-.3c14.49-8.37,29.98-14.89,44.82-18.86,16.02-4.29,32.66-6.59,48.07-6.65h43.41c1.1,0,1.98-.89,1.98-1.98v-37.01l-14.17-14.17h0v-.03Zm-214.59,79.38c-2.5,0-4.54-2.03-4.54-4.54s2.03-4.54,4.54-4.54,4.54,2.03,4.54,4.54-2.03,4.54-4.54,4.54Zm219.91-39.61c2.5,0,4.54,2.03,4.54,4.54s-2.03,4.54-4.54,4.54-4.54-2.03-4.54-4.54,2.03-4.54,4.54-4.54Z"/>
  <path class="cls-1" d="M974.04,127.55l-51.04-9.01,6.59-37.38c.19-1.08-.53-2.11-1.61-2.3l-13.26-2.34V13.3c0-1.1-.89-1.98-1.98-1.98h-15.83v14.17h.24c1.88,0,3.4,1.53,3.4,3.4v59.52l9.62,1.7c1.85,.33,3.08,2.09,2.76,3.94l-6.34,35.99,49.64,8.76c.89,.16,1.67,.65,2.2,1.4,.52,.74,.72,1.65,.56,2.54l-19.02,107.85c-.29,1.63-1.7,2.81-3.35,2.81-.2,0-.39-.02-.59-.05l-49.73-8.77-1.86,10.51c-.29,1.63-1.7,2.81-3.35,2.81-.19,0-.39-.02-.59-.05l-54.62-9.63c-.89-.16-1.67-.65-2.2-1.4-.52-.74-.72-1.65-.56-2.54l1.44-8.18-41.21-2.89h-43.78l14.17,14.18h29.11l25.02,1.75-1.42,8.03c-.19,1.08,.53,2.11,1.61,2.3l85.32,15.04c1.08,.19,2.11-.53,2.3-1.61l2.1-11.91,51.13,9.02c1.08,.19,2.11-.53,2.3-1.61l24.44-138.56c.19-1.08-.53-2.11-1.61-2.3h0Zm-68.2-102.79c-2.5,0-4.54-2.03-4.54-4.54s2.03-4.54,4.54-4.54,4.54,2.03,4.54,4.54-2.03,4.54-4.54,4.54Zm-89.38,231.74c-2.5,0-4.54-2.03-4.54-4.54s2.03-4.54,4.54-4.54,4.54,2.03,4.54,4.54-2.03,4.54-4.54,4.54Zm127.24,8.12c-2.5,0-4.54-2.03-4.54-4.54s2.03-4.54,4.54-4.54,4.54,2.03,4.54,4.54-2.03,4.54-4.54,4.54Z"/>
  <path class="cls-1" d="M793.65,11.33V2.12c0-1.1-.89-1.98-1.98-1.98h-86.81c-1.1,0-1.98,.89-1.98,1.98V11.33h-190.52c-1.1,0-1.98,.89-1.98,1.98v21.9l13.88,13.88v-2.81h.3V28.9c0-1.88,1.53-3.4,3.4-3.4h189.09v-7.79c0-1.88,1.53-3.4,3.4-3.4h55.63c1.88,0,3.4,1.53,3.4,3.4v7.8h111.75V11.33h-97.58Zm-274.36,13.46c-2.5,0-4.54-2.03-4.54-4.54s2.03-4.54,4.54-4.54,4.54,2.03,4.54,4.54-2.03,4.54-4.54,4.54Zm189.29-3.1c-2.5,0-4.54-2.03-4.54-4.54s2.03-4.54,4.54-4.54,4.54,2.03,4.54,4.54-2.03,4.54-4.54,4.54Zm79.22,0c-2.5,0-4.54-2.03-4.54-4.54s2.03-4.54,4.54-4.54,4.54,2.03,4.54,4.54-2.03,4.54-4.54,4.54Z"/>
  <path class="cls-1" d="M524.56,69.37h-.3v-2.88l-13.88,13.88v114.39l14.17,14.17V69.37h.01Zm-7.09,124.26c-2.5,0-4.54-2.03-4.54-4.54s2.03-4.54,4.54-4.54,4.54,2.03,4.54,4.54-2.03,4.54-4.54,4.54Zm0-103.29c-2.5,0-4.54-2.03-4.54-4.54s2.03-4.54,4.54-4.54,4.54,2.03,4.54,4.54-2.03,4.54-4.54,4.54Z"/>
  <path class="cls-1" d="M241.93,233.24h0l-14.17,14.17v37.01c0,1.09,.88,1.98,1.98,1.98h43.41c15.41,.06,32.05,2.36,48.07,6.65,14.84,3.97,30.33,10.49,44.82,18.86l.51,.3c.25,.14,.44,.25,.62,.36l.22,.13c1.22,.72,2.44,1.46,3.72,2.27l.19,.15,.04,.02,.34,.25,.57,.29,31.29,18.18c.95,.56,2.17,.23,2.72-.72l9.3-16.14h47.9c1.09,0,1.98-.88,1.98-1.98v-46.45l-14.17-15.19v46.04c0,1.87-1.52,3.4-3.4,3.4h-40.5l-5.58,9.67c-.61,1.05-1.74,1.7-2.95,1.7-.6,0-1.19-.16-1.71-.46l-17.76-10.32-.08-.06-.11-.05-.1-.07s-.06-.04-.16-.1c-1.5-.96-2.92-1.82-4.34-2.66-.29-.18-.59-.36-.89-.53l-.55-.32c-15.55-8.98-32.23-15.99-48.24-20.28-17.18-4.6-35.07-7.07-51.74-7.13h-27.82c-1.87,0-3.4-1.52-3.4-3.4v-35.6h0v.03Zm210.04,74.81c0-2.51,2.03-4.54,4.54-4.54s4.54,2.03,4.54,4.54-2.04,4.54-4.54,4.54-4.54-2.03-4.54-4.54Zm-210.83-30.53c0,2.51-2.03,4.54-4.54,4.54s-4.54-2.03-4.54-4.54,2.04-4.54,4.54-4.54,4.54,2.03,4.54,4.54Z"/>
  <path class="cls-1" d="M1.78,127.54c-1.08,.19-1.8,1.22-1.61,2.3l24.44,138.56c.19,1.08,1.22,1.8,2.3,1.61l51.13-9.02,2.1,11.91c.19,1.08,1.22,1.8,2.3,1.61l85.32-15.04c1.08-.19,1.8-1.22,1.61-2.3l-1.42-8.03,25.02-1.75h29.11l14.17-14.18h-43.78l-41.21,2.89,1.44,8.18c.16,.89-.04,1.8-.56,2.54-.53,.75-1.31,1.24-2.2,1.4l-54.62,9.63c-.2,.03-.4,.05-.59,.05-1.65,0-3.06-1.18-3.35-2.81l-1.86-10.51-49.73,8.77c-.2,.03-.39,.05-.59,.05-1.65,0-3.06-1.18-3.35-2.81l-19.02-107.85c-.16-.89,.04-1.8,.56-2.54,.53-.75,1.31-1.24,2.2-1.4l49.64-8.76-6.34-35.99c-.32-1.85,.91-3.61,2.76-3.94l9.62-1.7V28.89c0-1.87,1.52-3.4,3.4-3.4h.24V11.32h-15.83c-1.09,0-1.98,.88-1.98,1.98v63.22l-13.26,2.34c-1.08,.19-1.8,1.22-1.61,2.3l6.59,37.38L1.78,127.55h0ZM65.44,20.21c0-2.51,2.03-4.54,4.54-4.54s4.54,2.03,4.54,4.54-2.04,4.54-4.54,4.54-4.54-2.03-4.54-4.54Zm89.38,231.74c0-2.51,2.03-4.54,4.54-4.54s4.54,2.03,4.54,4.54-2.04,4.54-4.54,4.54-4.54-2.03-4.54-4.54Zm-127.24,8.12c0-2.51,2.03-4.54,4.54-4.54s4.54,2.03,4.54,4.54-2.04,4.54-4.54,4.54-4.54-2.03-4.54-4.54Z"/>
  <path class="cls-1" d="M182.16,11.33H84.59v14.18h111.75v-7.8c0-1.87,1.52-3.4,3.4-3.4h55.63c1.87,0,3.4,1.52,3.4,3.4v7.79h189.09c1.87,0,3.4,1.52,3.4,3.4v17.38h.3v2.81l13.88-13.88V13.31c0-1.09-.88-1.98-1.98-1.98h-190.52V2.12c0-1.09-.88-1.98-1.98-1.98h-86.81c-1.09,0-1.98,.88-1.98,1.98V11.33h-.01Zm269.83,8.92c0-2.51,2.03-4.54,4.54-4.54s4.54,2.03,4.54,4.54-2.04,4.54-4.54,4.54-4.54-2.03-4.54-4.54Zm-189.29-3.1c0-2.51,2.03-4.54,4.54-4.54s4.54,2.03,4.54,4.54-2.04,4.54-4.54,4.54-4.54-2.03-4.54-4.54Zm-79.22,0c0-2.51,2.03-4.54,4.54-4.54s4.54,2.03,4.54,4.54-2.04,4.54-4.54,4.54-4.54-2.03-4.54-4.54Z"/>
  <path class="cls-1" d="M451.28,69.37V208.93l14.17-14.17V80.37l-13.88-13.88v2.88h-.29Zm2.54,119.72c0-2.51,2.03-4.54,4.54-4.54s4.54,2.03,4.54,4.54-2.04,4.54-4.54,4.54-4.54-2.03-4.54-4.54Zm0-103.29c0-2.51,2.03-4.54,4.54-4.54s4.54,2.03,4.54,4.54-2.04,4.54-4.54,4.54-4.54-2.03-4.54-4.54Z"/>
</svg>