<?xml version="1.0" encoding="UTF-8"?>
<svg xmlns="http://www.w3.org/2000/svg" width="324.46mm" height="273.77mm" viewBox="0 0 919.73 776.03">
  <defs>
    <style>
      .cls-1 {
        fill: #fff;
      }

      .cls-2 {
        fill: #161b22;
      }

      .cls-3 {
        stroke-miterlimit: 10;
      }

      .cls-3, .cls-4, .cls-5 {
        fill: none;
        stroke: #fff;
        stroke-width: .28px;
      }

      .cls-4 {
        opacity: .6;
      }

      .cls-4, .cls-5 {
        stroke-linecap: round;
        stroke-linejoin: round;
      }
    </style>
  </defs>
  <g id="Polydactyl">
    <path id="InCu_Rnd_Full" data-name="InCu Rnd Full" class="cls-2" d="M42.73,371.42c-.91,0-1.76-.35-2.4-1L1,331.09c-.64-.64-1-1.5-1-2.41s.35-1.76,1-2.41l26.66-26.66V48.05c0-1.88,1.52-3.4,3.4-3.4H220.15v-7.79c0-1.88,1.53-3.4,3.4-3.4h55.62c1.88,0,3.4,1.53,3.4,3.4v7.8h111.99c.91,0,1.76,.35,2.41,.99,.64,.64,1,1.5,1,2.4v59.52l9.61,1.69c1.85,.33,3.08,2.09,2.76,3.94l-6.34,35.99,49.64,8.75c1.85,.33,3.08,2.09,2.76,3.94l-19.02,107.85c-.29,1.63-1.69,2.81-3.35,2.81-.2,0-.39-.02-.59-.05l-49.74-8.77-1.85,10.51c-.29,1.63-1.7,2.81-3.35,2.81-.19,0-.39-.02-.59-.05l-54.62-9.63c-1.85-.33-3.08-2.09-2.76-3.94l1.44-8.17-41.21-2.89h-43.78v35.6c0,1.88-1.53,3.4-3.4,3.4h-27.81c-16.66,.06-34.56,2.52-51.75,7.13-16.03,4.29-32.71,11.31-48.24,20.28-12.04,6.95-24.44,16.24-35.86,26.85l-24.79,24.79c-.64,.64-1.5,1-2.41,1Z"/>
    <g id="Full_Switchholes" data-name="Full Switchholes">
      <rect class="cls-4" x="123.75" y="78.62" width="39.69" height="39.69"/>
      <rect class="cls-4" x="123.67" y="132.75" width="39.69" height="39.69"/>
      <rect class="cls-4" x="123.67" y="186.89" width="39.69" height="39.69"/>
      <rect class="cls-4" x="177.51" y="178.24" width="39.69" height="39.69"/>
      <rect class="cls-4" x="177.59" y="124.32" width="39.69" height="39.69"/>
      <rect class="cls-4" x="177.59" y="70.22" width="39.69" height="39.69"/>
      <rect class="cls-4" x="231.51" y="44.71" width="39.69" height="39.69"/>
      <rect class="cls-4" x="231.51" y="98.6" width="39.69" height="39.69"/>
      <rect class="cls-4" x="231.59" y="152.74" width="39.69" height="39.69"/>
      <rect class="cls-4" x="185.87" y="240.61" width="39.69" height="39.69"/>
      <rect class="cls-4" x="126.03" y="248.77" width="39.69" height="39.69" transform="translate(-64.55 46.91) rotate(-15)"/>
      <rect class="cls-4" x="70.32" y="272.02" width="39.69" height="39.69" transform="translate(-133.85 84.18) rotate(-30)"/>
      <rect class="cls-4" x="22.54" y="309" width="39.69" height="39.69" transform="translate(-220.11 126.28) rotate(-45)"/>
      <rect class="cls-4" x="293.25" y="74.35" width="39.69" height="39.69" transform="translate(7.33 -21.61) rotate(4)"/>
      <rect class="cls-4" x="289.49" y="128.11" width="39.69" height="39.69" transform="translate(11.07 -21.22) rotate(4)"/>
      <rect class="cls-4" x="285.79" y="182.12" width="39.69" height="39.69" transform="translate(14.83 -20.83) rotate(4)"/>
      <rect class="cls-4" x="355.08" y="115.44" width="39.69" height="39.69" transform="translate(29.19 -63.05) rotate(10)"/>
      <rect class="cls-4" x="345.72" y="168.52" width="39.69" height="39.69" transform="translate(38.26 -60.62) rotate(10)"/>
      <rect class="cls-4" x="336.4" y="221.84" width="39.69" height="39.69" transform="translate(47.38 -58.19) rotate(10)"/>
      <rect class="cls-4" x="401.26" y="163.85" width="39.69" height="39.69" transform="translate(38.3 -70.33) rotate(10)"/>
      <rect class="cls-4" x="391.94" y="217.18" width="39.69" height="39.69" transform="translate(47.41 -67.9) rotate(10)"/>
    </g>
    <g id="Full_Keycaps" data-name="Full Keycaps">
      <rect class="cls-5" x="118.08" y="72.81" width="51.02" height="51.02"/>
      <rect class="cls-5" x="118" y="126.94" width="51.02" height="51.02"/>
      <rect class="cls-5" x="118" y="181.08" width="51.02" height="51.02"/>
      <rect class="cls-5" x="171.84" y="172.43" width="51.02" height="51.02"/>
      <rect class="cls-5" x="171.92" y="118.51" width="51.02" height="51.02"/>
      <rect class="cls-5" x="171.92" y="64.41" width="51.02" height="51.02"/>
      <rect class="cls-5" x="225.84" y="38.9" width="51.02" height="51.02"/>
      <rect class="cls-5" x="225.84" y="92.79" width="51.02" height="51.02"/>
      <rect class="cls-5" x="225.92" y="146.93" width="51.02" height="51.02"/>
      <rect class="cls-5" x="180.2" y="234.79" width="51.02" height="51.02"/>
      <rect class="cls-5" x="120.32" y="242.96" width="51.02" height="51.02" transform="translate(-64.52 46.89) rotate(-15)"/>
      <rect class="cls-5" x="64.58" y="266.23" width="51.02" height="51.02" transform="translate(-133.8 84.13) rotate(-30)"/>
      <rect class="cls-5" x="16.77" y="303.22" width="51.02" height="51.02" transform="translate(-220.07 126.18) rotate(-45)"/>
      <rect class="cls-5" x="287.59" y="68.54" width="51.02" height="51.02" transform="translate(7.32 -21.61) rotate(4)"/>
      <rect class="cls-5" x="283.83" y="122.3" width="51.02" height="51.02" transform="translate(11.06 -21.22) rotate(4)"/>
      <rect class="cls-5" x="280.13" y="176.31" width="51.02" height="51.02" transform="translate(14.82 -20.83) rotate(4)"/>
      <rect class="cls-5" x="349.43" y="109.63" width="51.02" height="51.02" transform="translate(29.16 -63.06) rotate(10)"/>
      <rect class="cls-5" x="340.08" y="162.71" width="51.02" height="51.02" transform="translate(38.24 -60.62) rotate(10)"/>
      <rect class="cls-5" x="330.75" y="216.03" width="51.02" height="51.02" transform="translate(47.36 -58.19) rotate(10)"/>
      <rect class="cls-5" x="395.62" y="158.04" width="51.02" height="51.02" transform="translate(38.27 -70.34) rotate(10)"/>
      <rect class="cls-5" x="386.29" y="211.37" width="51.02" height="51.02" transform="translate(47.39 -67.91) rotate(10)"/>
    </g>
    <path id="Ring" class="cls-3" d="M71.48,176.62c-23.09,0-41.81,18.72-41.81,41.81s18.72,41.81,41.81,41.81,41.81-18.72,41.81-41.81-18.72-41.81-41.81-41.81Zm0,76.54c-19.18,0-34.72-15.55-34.72-34.72s15.55-34.72,34.72-34.72,34.72,15.55,34.72,34.72-15.55,34.72-34.72,34.72Z"/>
    <rect id="Schwarz" class="cls-3" x="56.83" y="110.73" width="35.01" height="67.07" transform="translate(218.6 69.93) rotate(90)"/>
    <path class="cls-1" d="M98.33,138.24v-2.01h-8.05v-6.04h-2.01v-2.01h-28.18v2.01h-2.01v6.04h-8.05v2.01h-2.01v12.08h2.01v2.01h8.05v8.05h32.2v-8.05h8.05v-2.01h2.01v-12.08h-2.01Zm-12.08,0v4.03h-2.01v2.01h-4.03v-2.01h-2.01v-4.03h2.01v-2.01h4.03v2.01h2.01Zm-22.14,0v-2.01h4.03v2.01h2.01v4.03h-2.01v2.01h-4.03v-2.01h-2.01v-4.03h2.01Zm18.11,20.13h-4.03v-4.03h-2.01v-4.03h-4.03v4.03h-2.01v4.03h-4.03v-4.03h2.01v-4.03h2.01v-4.03h8.05v4.03h2.01v4.03h2.01v4.03Z"/>
    <rect class="cls-2" x="28.25" width="171.21" height="28.35"/>
    <g>
      <path class="cls-1" d="M39.95,21.37h-2.33V7.27h4.72c.71,0,1.36,.11,1.96,.32,.6,.21,1.11,.5,1.55,.88,.43,.38,.77,.84,1.01,1.39,.24,.54,.36,1.15,.36,1.83s-.12,1.24-.36,1.77c-.24,.53-.58,.98-1.01,1.35-.43,.38-.95,.67-1.55,.88-.6,.21-1.25,.31-1.96,.31h-2.39v5.38Zm2.39-7.28c.39,0,.75-.07,1.06-.19,.31-.12,.58-.29,.8-.5,.22-.21,.39-.46,.5-.76,.11-.29,.17-.61,.17-.95,0-.37-.06-.72-.17-1.02-.11-.31-.28-.57-.5-.8-.22-.23-.49-.4-.8-.52-.31-.12-.67-.19-1.06-.19h-2.39v4.93h2.39Z"/>
      <path class="cls-1" d="M62.74,16.91c-.1,.53-.24,1.03-.43,1.5-.2,.47-.45,.91-.75,1.3-.3,.4-.64,.74-1.03,1.02-.37,.26-.79,.46-1.24,.61-.46,.15-.95,.22-1.5,.22s-1.08-.08-1.55-.24-.89-.38-1.25-.65c-.37-.28-.7-.63-.98-1.03-.28-.4-.52-.84-.7-1.32-.18-.46-.32-.95-.41-1.47-.09-.52-.14-1.05-.14-1.6v-1.86c0-.58,.05-1.13,.15-1.67,.1-.54,.24-1.04,.44-1.52,.19-.46,.42-.88,.69-1.26s.6-.72,.97-1c.36-.28,.77-.49,1.24-.64s.97-.23,1.53-.23,1.08,.08,1.55,.23c.47,.15,.89,.37,1.27,.65s.7,.6,.98,.98c.28,.38,.51,.78,.7,1.23,.21,.48,.36,.99,.47,1.54,.1,.55,.15,1.11,.15,1.7v1.86c0,.57-.05,1.12-.15,1.65Zm-2.26-4.57c-.04-.34-.1-.67-.18-.98-.1-.36-.22-.68-.38-.97s-.35-.54-.58-.75c-.2-.18-.43-.32-.69-.43s-.55-.16-.88-.16-.6,.05-.85,.15-.47,.24-.66,.41c-.23,.21-.42,.47-.57,.76-.15,.29-.27,.62-.36,.98-.08,.31-.13,.64-.17,.98-.04,.35-.05,.69-.05,1.04v1.88c0,.34,.02,.68,.05,1.02,.03,.34,.09,.66,.16,.97,.08,.35,.2,.67,.34,.97,.15,.3,.32,.55,.53,.76,.2,.19,.43,.35,.69,.46,.26,.11,.56,.17,.91,.17s.63-.06,.9-.17c.27-.11,.5-.26,.69-.45,.23-.21,.42-.47,.57-.76s.27-.62,.36-.97c.08-.31,.13-.63,.17-.97,.04-.34,.06-.68,.06-1.03v-1.88c0-.35-.03-.7-.06-1.05Z"/>
      <path class="cls-1" d="M78.47,19.46v1.92h-9.07V7.27h2.33v12.19h6.73Z"/>
      <path class="cls-1" d="M92.58,7.27h2.6l-4.42,9.07-.02,5.04h-2.28v-5.11l-4.39-9h2.59l2.96,6.74,2.96-6.74Z"/>
      <path class="cls-1" d="M100.85,7.27h3.49c.61,0,1.18,.07,1.71,.21,.54,.14,1.02,.33,1.46,.58,.48,.25,.9,.57,1.27,.95,.37,.38,.68,.81,.94,1.28,.26,.49,.46,1.03,.6,1.62s.21,1.21,.21,1.88v1.1c0,.64-.07,1.24-.2,1.82s-.32,1.09-.57,1.56c-.24,.46-.53,.88-.87,1.25-.34,.38-.72,.69-1.13,.96-.47,.29-.98,.51-1.55,.67-.57,.15-1.17,.23-1.82,.23h-3.57V7.27Zm2.35,12.22h1.21c.41,0,.79-.05,1.14-.15,.35-.1,.66-.24,.94-.43,.28-.19,.54-.44,.76-.73,.22-.29,.41-.63,.55-1.01,.12-.32,.22-.68,.28-1.06,.06-.38,.1-.79,.1-1.22v-1.12c0-.43-.03-.83-.1-1.21-.06-.38-.16-.73-.28-1.06-.15-.39-.36-.75-.62-1.07s-.56-.58-.92-.78c-.26-.15-.55-.26-.87-.34-.32-.08-.67-.12-1.05-.13h-1.13v10.32Z"/>
      <path class="cls-1" d="M119.25,18.13l-.96,3.25h-2.42l4.59-14.11h2.06l4.52,14.11h-2.41l-.95-3.25h-4.43Zm3.86-2l-1.62-5.58-1.65,5.58h3.26Z"/>
      <path class="cls-1" d="M141.74,18.9c-.26,.56-.6,1.04-1.02,1.43-.43,.4-.93,.71-1.52,.93-.58,.22-1.23,.32-1.94,.32-.58,0-1.12-.08-1.6-.24s-.92-.38-1.3-.67c-.37-.27-.69-.6-.96-.98-.27-.38-.51-.81-.69-1.26-.19-.45-.33-.94-.42-1.47s-.14-1.08-.14-1.66v-1.93c0-.55,.04-1.08,.14-1.59,.09-.51,.23-.99,.41-1.44,.19-.5,.44-.96,.75-1.37,.31-.41,.66-.76,1.06-1.05,.38-.26,.8-.47,1.26-.62,.46-.15,.97-.22,1.52-.22,.74,0,1.41,.11,1.99,.33,.58,.22,1.08,.53,1.5,.93,.42,.41,.75,.9,.99,1.47,.24,.58,.4,1.21,.47,1.92h-2.33c-.04-.42-.12-.8-.24-1.14-.12-.34-.28-.63-.49-.87-.21-.24-.47-.42-.78-.55-.31-.13-.68-.19-1.11-.19-.3,0-.58,.04-.82,.13-.24,.08-.46,.2-.64,.36-.26,.19-.47,.43-.64,.73-.17,.3-.31,.63-.42,1-.08,.32-.15,.67-.19,1.03s-.06,.74-.06,1.12v1.95c0,.47,.03,.91,.08,1.33,.05,.41,.14,.79,.26,1.13,.09,.28,.21,.54,.34,.77,.14,.23,.31,.43,.5,.6,.2,.18,.43,.32,.69,.41s.56,.14,.9,.14c.4,0,.76-.06,1.07-.17,.31-.12,.57-.29,.79-.51,.21-.22,.38-.49,.51-.82,.13-.33,.21-.71,.25-1.13h2.33c-.06,.68-.23,1.31-.48,1.86Z"/>
      <path class="cls-1" d="M154.24,9.2v12.18h-2.32V9.2h-4.32v-1.93h10.99v1.93h-4.35Z"/>
      <path class="cls-1" d="M171.95,7.27h2.6l-4.42,9.07-.02,5.04h-2.28v-5.11l-4.39-9h2.59l2.96,6.74,2.96-6.74Z"/>
      <path class="cls-1" d="M189.6,19.46v1.92h-9.07V7.27h2.33v12.19h6.73Z"/>
    </g>
  </g>
  <g id="Konrad">
    <path id="InCu_Rnd_Mid" data-name="InCu Rnd Mid" class="cls-2" d="M543.35,333.44c-1.21,0-2.34-.65-2.95-1.7l-5.58-9.67h-40.5c-1.88,0-3.4-1.53-3.4-3.4V48.13c0-1.88,1.53-3.4,3.4-3.4h189.09v-7.79c0-1.88,1.53-3.4,3.4-3.4h55.63c1.88,0,3.4,1.53,3.4,3.4v7.8h111.99c1.88,0,3.4,1.52,3.4,3.39v59.52l9.62,1.7c1.85,.33,3.08,2.09,2.76,3.94l-6.34,35.99,49.64,8.76c.89,.16,1.67,.65,2.2,1.4,.52,.74,.72,1.65,.56,2.54l-19.02,107.85c-.29,1.63-1.7,2.81-3.35,2.81-.2,0-.39-.02-.59-.05l-49.73-8.77-1.86,10.51c-.29,1.63-1.7,2.81-3.35,2.81-.19,0-.39-.02-.59-.05l-54.62-9.63c-.89-.16-1.67-.65-2.2-1.4-.52-.74-.72-1.65-.56-2.54l1.44-8.18-41.21-2.89h-43.78v35.6c0,1.88-1.53,3.4-3.4,3.4h-27.82c-16.67,.06-34.56,2.53-51.74,7.13-16.01,4.29-32.69,11.3-48.24,20.28l-.55,.32c-.3,.17-.6,.35-.89,.53-1.42,.84-2.84,1.7-4.34,2.66-.1,.06-.13,.08-.16,.1l-.1,.07-.11,.05-.08,.06-17.76,10.32c-.52,.3-1.11,.46-1.71,.46Z"/>
    <g id="Midi_Switchholes" data-name="Midi Switchholes">
      <rect class="cls-4" x="587.02" y="78.7" width="39.69" height="39.69"/>
      <rect class="cls-4" x="586.94" y="132.83" width="39.69" height="39.69"/>
      <rect class="cls-4" x="586.94" y="186.97" width="39.69" height="39.69"/>
      <rect class="cls-4" x="640.78" y="178.32" width="39.69" height="39.69"/>
      <rect class="cls-4" x="640.86" y="124.4" width="39.69" height="39.69"/>
      <rect class="cls-4" x="640.86" y="70.3" width="39.69" height="39.69"/>
      <rect class="cls-4" x="694.78" y="44.79" width="39.69" height="39.69"/>
      <rect class="cls-4" x="694.78" y="98.68" width="39.69" height="39.69"/>
      <rect class="cls-4" x="694.86" y="152.82" width="39.69" height="39.69"/>
      <rect class="cls-4" x="649.14" y="240.68" width="39.69" height="39.69"/>
      <rect class="cls-4" x="589.3" y="248.84" width="39.69" height="39.69" transform="translate(-48.79 166.81) rotate(-15)"/>
      <rect class="cls-4" x="533.59" y="272.1" width="39.69" height="39.69" transform="translate(-71.83 315.83) rotate(-30)"/>
      <rect class="cls-4" x="756.52" y="74.43" width="39.69" height="39.69" transform="translate(8.47 -53.93) rotate(4)"/>
      <rect class="cls-4" x="752.76" y="128.19" width="39.69" height="39.69" transform="translate(12.21 -53.53) rotate(4)"/>
      <rect class="cls-4" x="749.06" y="182.2" width="39.69" height="39.69" transform="translate(15.97 -53.14) rotate(4)"/>
      <rect class="cls-4" x="818.35" y="115.52" width="39.69" height="39.69" transform="translate(36.24 -143.49) rotate(10)"/>
      <rect class="cls-4" x="808.99" y="168.59" width="39.69" height="39.69" transform="translate(45.31 -141.06) rotate(10)"/>
      <rect class="cls-4" x="799.66" y="221.92" width="39.69" height="39.69" transform="translate(54.43 -138.63) rotate(10)"/>
      <rect class="cls-4" x="864.53" y="163.93" width="39.69" height="39.69" transform="translate(45.35 -150.78) rotate(10)"/>
      <rect class="cls-4" x="855.21" y="217.25" width="39.69" height="39.69" transform="translate(54.47 -148.35) rotate(10)"/>
    </g>
    <g id="Midi_Keycaps" data-name="Midi Keycaps">
      <rect class="cls-5" x="581.35" y="72.88" width="51.02" height="51.02"/>
      <rect class="cls-5" x="581.27" y="127.02" width="51.02" height="51.02"/>
      <rect class="cls-5" x="581.27" y="181.15" width="51.02" height="51.02"/>
      <rect class="cls-5" x="635.11" y="172.51" width="51.02" height="51.02"/>
      <rect class="cls-5" x="635.19" y="118.59" width="51.02" height="51.02"/>
      <rect class="cls-5" x="635.19" y="64.49" width="51.02" height="51.02"/>
      <rect class="cls-5" x="689.11" y="38.97" width="51.02" height="51.02"/>
      <rect class="cls-5" x="689.11" y="92.87" width="51.02" height="51.02"/>
      <rect class="cls-5" x="689.19" y="147" width="51.02" height="51.02"/>
      <rect class="cls-5" x="643.47" y="234.87" width="51.02" height="51.02"/>
      <rect class="cls-5" x="583.59" y="243.04" width="51.02" height="51.02" transform="translate(-48.75 166.8) rotate(-15)"/>
      <rect class="cls-5" x="527.85" y="266.31" width="51.02" height="51.02" transform="translate(-71.77 315.78) rotate(-30)"/>
      <rect class="cls-5" x="750.86" y="68.62" width="51.02" height="51.02" transform="translate(8.46 -53.93) rotate(4)"/>
      <rect class="cls-5" x="747.1" y="122.38" width="51.02" height="51.02" transform="translate(12.2 -53.53) rotate(4)"/>
      <rect class="cls-5" x="743.4" y="176.39" width="51.02" height="51.02" transform="translate(15.96 -53.14) rotate(4)"/>
      <rect class="cls-5" x="812.7" y="109.71" width="51.02" height="51.02" transform="translate(36.22 -143.5) rotate(10)"/>
      <rect class="cls-5" x="803.35" y="162.78" width="51.02" height="51.02" transform="translate(45.29 -141.07) rotate(10)"/>
      <rect class="cls-5" x="794.02" y="216.11" width="51.02" height="51.02" transform="translate(54.41 -138.64) rotate(10)"/>
      <rect class="cls-5" x="858.89" y="158.12" width="51.02" height="51.02" transform="translate(45.32 -150.78) rotate(10)"/>
      <rect class="cls-5" x="849.56" y="211.44" width="51.02" height="51.02" transform="translate(54.44 -148.36) rotate(10)"/>
    </g>
    <path id="Ring-2" data-name="Ring" class="cls-3" d="M534.75,176.69c-23.09,0-41.81,18.72-41.81,41.81s18.72,41.81,41.81,41.81,41.81-18.72,41.81-41.81-18.72-41.81-41.81-41.81Zm0,76.54c-19.18,0-34.72-15.55-34.72-34.72s15.55-34.72,34.72-34.72,34.72,15.55,34.72,34.72-15.55,34.72-34.72,34.72Z"/>
    <rect id="Schwarz-2" data-name="Schwarz" class="cls-3" x="520.09" y="110.81" width="35.01" height="67.07" transform="translate(681.95 -393.25) rotate(90)"/>
    <path class="cls-1" d="M561.59,138.32v-2.01h-8.05v-6.04h-2.01v-2.01h-28.18v2.01h-2.01v6.04h-8.05v2.01h-2.01v12.08h2.01v2.01h8.05v8.05h32.2v-8.05h8.05v-2.01h2.01v-12.08h-2.01Zm-12.08,0v4.03h-2.01v2.01h-4.03v-2.01h-2.01v-4.03h2.01v-2.01h4.03v2.01h2.01Zm-22.14,0v-2.01h4.03v2.01h2.01v4.03h-2.01v2.01h-4.03v-2.01h-2.01v-4.03h2.01Zm18.11,20.13h-4.03v-4.03h-2.01v-4.03h-4.03v4.03h-2.01v4.03h-4.03v-4.03h2.01v-4.03h2.01v-4.03h8.05v4.03h2.01v4.03h2.01v4.03Z"/>
    <rect class="cls-2" x="490.92" y=".08" width="106.12" height="28.35"/>
    <g>
      <path class="cls-1" d="M502.04,16.68v4.41h-2.35V6.98h2.35v6.64l1.32-1.71,3.72-4.92h2.85l-4.82,6.21,5.07,7.9h-2.79l-3.82-6.11-1.52,1.71Z"/>
      <path class="cls-1" d="M525,16.62c-.1,.53-.24,1.03-.43,1.5-.2,.47-.45,.91-.75,1.3-.3,.4-.64,.74-1.03,1.02-.37,.26-.79,.46-1.24,.61-.46,.15-.95,.22-1.5,.22s-1.08-.08-1.55-.24-.89-.38-1.25-.65c-.37-.28-.7-.63-.98-1.03-.28-.4-.52-.84-.7-1.32-.18-.46-.32-.95-.41-1.47-.09-.52-.14-1.05-.14-1.6v-1.86c0-.58,.05-1.13,.15-1.67,.1-.54,.24-1.04,.44-1.52,.19-.46,.42-.88,.69-1.26s.6-.72,.97-1c.36-.28,.77-.49,1.24-.64s.97-.23,1.53-.23,1.08,.08,1.55,.23c.47,.15,.89,.37,1.27,.65s.7,.6,.98,.98c.28,.38,.51,.78,.7,1.23,.21,.48,.36,.99,.47,1.54,.1,.55,.15,1.11,.15,1.7v1.86c0,.57-.05,1.12-.15,1.65Zm-2.26-4.57c-.04-.34-.1-.67-.18-.98-.1-.36-.22-.68-.38-.97s-.35-.54-.58-.75c-.2-.18-.43-.32-.69-.43s-.55-.16-.88-.16-.6,.05-.85,.15-.47,.24-.66,.41c-.23,.21-.42,.47-.57,.76-.15,.29-.27,.62-.36,.98-.08,.31-.13,.64-.17,.98-.04,.35-.05,.69-.05,1.04v1.88c0,.34,.02,.68,.05,1.02,.03,.34,.09,.66,.16,.97,.08,.35,.2,.67,.34,.97,.15,.3,.32,.55,.53,.76,.2,.19,.43,.35,.69,.46,.26,.11,.56,.17,.91,.17s.63-.06,.9-.17c.27-.11,.5-.26,.69-.45,.23-.21,.42-.47,.57-.76s.27-.62,.36-.97c.08-.31,.13-.63,.17-.97,.04-.34,.06-.68,.06-1.03v-1.88c0-.35-.03-.7-.06-1.05Z"/>
      <path class="cls-1" d="M538.23,21.09l-4.58-9.71v9.71h-2.36V6.98h2.36l4.55,9.67,.02-9.67h2.34v14.11h-2.34Z"/>
      <path class="cls-1" d="M549.69,15.61v5.47h-2.33V6.98h4.48c.73,0,1.4,.1,2.02,.28,.61,.18,1.14,.45,1.59,.79,.44,.35,.78,.8,1.03,1.32,.25,.53,.37,1.14,.37,1.85,0,.48-.06,.92-.19,1.32s-.3,.75-.53,1.07-.5,.59-.81,.83c-.32,.24-.67,.45-1.06,.62l3.01,5.9v.13h-2.49l-2.7-5.47h-2.38Zm2.18-1.9c.41,0,.79-.07,1.12-.19,.33-.12,.62-.29,.85-.52,.21-.19,.37-.43,.48-.72s.17-.61,.17-.97c0-.41-.06-.76-.19-1.07-.13-.31-.31-.56-.56-.77-.23-.19-.5-.34-.82-.44-.32-.1-.69-.15-1.09-.16h-2.15v4.83h2.18Z"/>
      <path class="cls-1" d="M565.63,17.84l-.96,3.25h-2.42l4.59-14.11h2.06l4.52,14.11h-2.41l-.95-3.25h-4.43Zm3.86-2l-1.62-5.58-1.65,5.58h3.26Z"/>
      <path class="cls-1" d="M578.98,6.98h3.49c.61,0,1.18,.07,1.71,.21,.54,.14,1.02,.33,1.46,.58,.48,.25,.9,.57,1.27,.95,.37,.38,.68,.81,.94,1.28,.26,.49,.46,1.03,.6,1.62s.21,1.21,.21,1.88v1.1c0,.64-.07,1.24-.2,1.82s-.32,1.09-.57,1.56c-.24,.46-.53,.88-.87,1.25-.34,.38-.72,.69-1.13,.96-.47,.29-.98,.51-1.55,.67-.57,.15-1.17,.23-1.82,.23h-3.57V6.98Zm2.35,12.22h1.21c.41,0,.79-.05,1.14-.15,.35-.1,.66-.24,.94-.43,.28-.19,.54-.44,.76-.73,.22-.29,.41-.63,.55-1.01,.12-.32,.22-.68,.28-1.06,.06-.38,.1-.79,.1-1.22v-1.12c0-.43-.03-.83-.1-1.21-.06-.38-.16-.73-.28-1.06-.15-.39-.36-.75-.62-1.07s-.56-.58-.92-.78c-.26-.15-.55-.26-.87-.34-.32-.08-.67-.12-1.05-.13h-1.13v10.32Z"/>
    </g>
  </g>
  <g id="Yubitsume">
    <path id="InCu_Rnd_Min" data-name="InCu Rnd Min" class="cls-2" d="M43.25,776.03c-.91,0-1.76-.35-2.41-1L1.51,735.71c-.64-.64-1-1.5-1-2.41s.35-1.76,1-2.41l23.04-23.04c.12-.12,.24-.25,.37-.37l3.25-3.26v-251.57c0-1.88,1.53-3.4,3.4-3.4H220.66v-7.79c0-1.88,1.53-3.4,3.4-3.4h55.63c1.88,0,3.4,1.53,3.4,3.4v7.8h118.5c1.88,0,3.4,1.52,3.4,3.39v60.67l3.11,.55c1.85,.33,3.08,2.09,2.76,3.94l-5.86,33.24v111.43c0,1.88-1.53,3.4-3.4,3.4h-16.94l-2.29,12.97c-.29,1.63-1.7,2.81-3.35,2.81-.19,0-.39-.02-.59-.05l-54.62-9.63c-.89-.16-1.67-.65-2.2-1.4-.52-.74-.72-1.65-.56-2.54l1.44-8.18-41.21-2.89h-43.78v35.6c0,1.88-1.53,3.4-3.4,3.4h-27.82c-16.67,.06-34.56,2.53-51.74,7.13-16.01,4.29-32.69,11.3-48.24,20.28l-.55,.32c-.3,.17-.6,.35-.89,.53-1.42,.84-2.84,1.7-4.34,2.66-.1,.06-.13,.08-.16,.1l-.1,.07-.11,.05-.05,.04-.12,.07c-10.07,6.41-20.01,14.15-29.53,23l-24.79,24.78c-.64,.64-1.5,1-2.4,1Z"/>
    <g id="Mini_Switchholes" data-name="Mini Switchholes">
      <rect class="cls-4" x="124.27" y="483.24" width="39.69" height="39.69"/>
      <rect class="cls-4" x="124.19" y="537.37" width="39.69" height="39.69"/>
      <rect class="cls-4" x="124.19" y="591.51" width="39.69" height="39.69"/>
      <rect class="cls-4" x="178.03" y="582.86" width="39.69" height="39.69"/>
      <rect class="cls-4" x="178.11" y="528.94" width="39.69" height="39.69"/>
      <rect class="cls-4" x="178.11" y="474.84" width="39.69" height="39.69"/>
      <rect class="cls-4" x="232.03" y="449.33" width="39.69" height="39.69"/>
      <rect class="cls-4" x="232.03" y="503.22" width="39.69" height="39.69"/>
      <rect class="cls-4" x="232.11" y="557.36" width="39.69" height="39.69"/>
      <rect class="cls-4" x="186.39" y="645.23" width="39.69" height="39.69"/>
      <rect class="cls-4" x="126.55" y="653.39" width="39.69" height="39.69" transform="translate(-169.26 60.83) rotate(-15)"/>
      <rect class="cls-4" x="70.84" y="676.64" width="39.69" height="39.69" transform="translate(-336.09 138.65) rotate(-30)"/>
      <rect class="cls-4" x="23.06" y="713.62" width="39.69" height="39.69" transform="translate(-506.07 245.16) rotate(-45)"/>
      <rect class="cls-4" x="293.77" y="478.97" width="39.69" height="39.69" transform="translate(35.56 -20.66) rotate(4)"/>
      <rect class="cls-4" x="290.01" y="532.73" width="39.69" height="39.69" transform="translate(39.3 -20.27) rotate(4)"/>
      <rect class="cls-4" x="286.31" y="586.74" width="39.69" height="39.69" transform="translate(43.06 -19.88) rotate(4)"/>
      <rect class="cls-4" x="355.6" y="520.06" width="39.69" height="39.69" transform="translate(99.46 -56.99) rotate(10)"/>
      <rect class="cls-4" x="346.24" y="573.14" width="39.69" height="39.69" transform="translate(108.53 -54.56) rotate(10)"/>
      <rect class="cls-4" x="336.91" y="626.46" width="39.69" height="39.69" transform="translate(117.65 -52.13) rotate(10)"/>
    </g>
    <g id="Mini_Keycaps" data-name="Mini Keycaps">
      <rect class="cls-5" x="118.6" y="477.43" width="51.02" height="51.02"/>
      <rect class="cls-5" x="118.52" y="531.56" width="51.02" height="51.02"/>
      <rect class="cls-5" x="118.52" y="585.7" width="51.02" height="51.02"/>
      <rect class="cls-5" x="172.36" y="577.05" width="51.02" height="51.02"/>
      <rect class="cls-5" x="172.44" y="523.13" width="51.02" height="51.02"/>
      <rect class="cls-5" x="172.44" y="469.03" width="51.02" height="51.02"/>
      <rect class="cls-5" x="226.36" y="443.52" width="51.02" height="51.02"/>
      <rect class="cls-5" x="226.36" y="497.41" width="51.02" height="51.02"/>
      <rect class="cls-5" x="226.44" y="551.55" width="51.02" height="51.02"/>
      <rect class="cls-5" x="180.72" y="639.41" width="51.02" height="51.02"/>
      <rect class="cls-5" x="120.84" y="647.58" width="51.02" height="51.02" transform="translate(-169.22 60.81) rotate(-15)"/>
      <rect class="cls-5" x="65.1" y="670.85" width="51.02" height="51.02" transform="translate(-336.04 138.6) rotate(-30)"/>
      <rect class="cls-5" x="17.29" y="707.84" width="51.02" height="51.02" transform="translate(-506.03 245.06) rotate(-45)"/>
      <rect class="cls-5" x="288.11" y="473.16" width="51.02" height="51.02" transform="translate(35.55 -20.66) rotate(4)"/>
      <rect class="cls-5" x="284.35" y="526.92" width="51.02" height="51.02" transform="translate(39.29 -20.27) rotate(4)"/>
      <rect class="cls-5" x="280.65" y="580.93" width="51.02" height="51.02" transform="translate(43.05 -19.88) rotate(4)"/>
      <rect class="cls-5" x="349.95" y="514.25" width="51.02" height="51.02" transform="translate(99.43 -57) rotate(10)"/>
      <rect class="cls-5" x="340.59" y="567.33" width="51.02" height="51.02" transform="translate(108.51 -54.57) rotate(10)"/>
      <rect class="cls-5" x="331.27" y="620.65" width="51.02" height="51.02" transform="translate(117.63 -52.14) rotate(10)"/>
    </g>
    <path id="Ring-3" data-name="Ring" class="cls-3" d="M72,581.24c-23.09,0-41.81,18.72-41.81,41.81s18.72,41.81,41.81,41.81,41.81-18.72,41.81-41.81-18.72-41.81-41.81-41.81Zm0,76.54c-19.18,0-34.72-15.55-34.72-34.72s15.55-34.72,34.72-34.72,34.72,15.55,34.72,34.72-15.55,34.72-34.72,34.72Z"/>
    <rect id="Schwarz-3" data-name="Schwarz" class="cls-3" x="57.34" y="515.35" width="35.01" height="67.07" transform="translate(623.74 474.04) rotate(90)"/>
    <path class="cls-1" d="M98.84,542.86v-2.01h-8.05v-6.04h-2.01v-2.01h-28.18v2.01h-2.01v6.04h-8.05v2.01h-2.01v12.08h2.01v2.01h8.05v8.05h32.2v-8.05h8.05v-2.01h2.01v-12.08h-2.01Zm-12.08,0v4.03h-2.01v2.01h-4.03v-2.01h-2.01v-4.03h2.01v-2.01h4.03v2.01h2.01Zm-22.14,0v-2.01h4.03v2.01h2.01v4.03h-2.01v2.01h-4.03v-2.01h-2.01v-4.03h2.01Zm18.11,20.13h-4.03v-4.03h-2.01v-4.03h-4.03v4.03h-2.01v4.03h-4.03v-4.03h2.01v-4.03h2.01v-4.03h8.05v4.03h2.01v4.03h2.01v4.03Z"/>
    <rect class="cls-2" x="28.77" y="404.62" width="155.91" height="28.35"/>
    <g>
      <path class="cls-1" d="M45.81,411.72h2.6l-4.42,9.07-.02,5.04h-2.28v-5.11l-4.39-9h2.59l2.96,6.74,2.96-6.74Z"/>
      <path class="cls-1" d="M63.37,421.16c0,.73-.11,1.39-.33,1.99-.22,.6-.54,1.11-.94,1.54-.41,.43-.91,.76-1.49,.99-.58,.23-1.23,.35-1.94,.35s-1.34-.11-1.91-.34c-.57-.23-1.05-.56-1.45-.98-.41-.43-.72-.94-.94-1.54-.22-.6-.34-1.27-.34-2l.02-9.44h2.3l.02,9.44c0,.45,.06,.85,.17,1.23,.1,.37,.25,.69,.46,.94,.19,.25,.43,.44,.71,.58,.28,.14,.61,.21,.98,.21s.72-.07,1.01-.21c.29-.14,.54-.34,.74-.6,.2-.26,.35-.58,.46-.94,.1-.36,.16-.77,.17-1.21l.02-9.44h2.3v9.44Z"/>
      <path class="cls-1" d="M70.04,411.72h4.51c.68,0,1.33,.08,1.93,.23s1.12,.38,1.56,.69c.44,.31,.78,.71,1.03,1.19,.25,.48,.37,1.05,.37,1.71,0,.4-.08,.77-.21,1.12-.13,.35-.32,.65-.57,.92-.17,.19-.37,.36-.59,.51s-.47,.28-.75,.39v.02c.42,.11,.78,.27,1.08,.48,.3,.21,.55,.45,.75,.71,.21,.28,.36,.6,.47,.94,.11,.35,.16,.71,.16,1.09,0,.67-.11,1.26-.36,1.77s-.58,.94-1.02,1.28c-.43,.35-.95,.61-1.55,.79-.6,.18-1.25,.27-1.94,.27h-4.88v-14.11Zm4.56,5.96c.38,0,.73-.06,1.05-.15,.32-.1,.59-.24,.81-.43,.2-.17,.36-.37,.48-.61s.17-.51,.17-.82c0-.33-.05-.62-.16-.86-.11-.24-.26-.44-.45-.6-.22-.19-.49-.33-.82-.42-.33-.09-.69-.13-1.09-.14h-2.2v4.03h2.22Zm-2.22,6.23h2.56c.37,0,.7-.05,1.01-.15,.3-.1,.56-.25,.77-.43,.23-.19,.41-.42,.54-.69s.19-.58,.19-.92c0-.36-.05-.67-.15-.94-.1-.27-.26-.51-.47-.7-.21-.19-.46-.34-.76-.45-.3-.11-.64-.16-1.02-.17h-2.67v4.46Z"/>
      <path class="cls-1" d="M94.6,411.72v1.93h-3.01v10.26h3.01v1.92h-8.31v-1.92h2.95v-10.26h-2.95v-1.93h8.31Z"/>
      <path class="cls-1" d="M107.47,413.65v12.18h-2.32v-12.18h-4.32v-1.93h10.99v1.93h-4.35Z"/>
      <path class="cls-1" d="M124.84,421.32c-.14-.25-.33-.48-.57-.68-.26-.19-.56-.36-.92-.51-.35-.15-.74-.29-1.18-.41-.67-.19-1.28-.42-1.84-.69-.56-.27-1.04-.58-1.43-.92-.39-.35-.7-.74-.93-1.19-.22-.44-.33-.94-.33-1.5,0-.6,.13-1.14,.39-1.62,.26-.48,.61-.89,1.05-1.24,.44-.34,.95-.59,1.54-.77s1.2-.27,1.85-.27c.68,0,1.32,.11,1.91,.31,.59,.21,1.11,.5,1.55,.88,.44,.38,.79,.83,1.04,1.36,.25,.53,.38,1.11,.38,1.75h-2.31c-.03-.36-.11-.68-.23-.97-.12-.29-.29-.55-.5-.76-.22-.21-.49-.37-.8-.49-.31-.12-.67-.18-1.08-.18-.35,0-.68,.05-.98,.14-.3,.09-.56,.22-.78,.39-.22,.17-.39,.38-.51,.63-.12,.25-.18,.52-.18,.82,0,.32,.09,.61,.25,.85,.16,.24,.38,.45,.65,.63,.28,.18,.6,.34,.95,.47,.36,.14,.73,.26,1.13,.38,.5,.14,.98,.32,1.46,.53s.91,.46,1.31,.76c.5,.38,.9,.82,1.2,1.34s.45,1.12,.45,1.8c0,.63-.13,1.18-.39,1.66-.26,.48-.61,.88-1.05,1.19-.45,.33-.96,.58-1.55,.74-.59,.16-1.21,.25-1.86,.25-.69,0-1.37-.11-2.04-.32s-1.26-.53-1.75-.94c-.46-.39-.82-.84-1.09-1.37-.27-.52-.41-1.12-.41-1.8h2.33c.03,.43,.12,.81,.28,1.13,.15,.32,.36,.58,.62,.79,.26,.21,.56,.37,.92,.47,.35,.1,.74,.16,1.16,.16,.35,0,.69-.04,.99-.13,.31-.08,.57-.21,.8-.38,.22-.16,.4-.36,.53-.6,.13-.24,.2-.51,.2-.82,0-.33-.07-.62-.2-.87Z"/>
      <path class="cls-1" d="M142.75,421.16c0,.73-.11,1.39-.33,1.99-.22,.6-.54,1.11-.94,1.54-.41,.43-.91,.76-1.49,.99-.58,.23-1.23,.35-1.94,.35s-1.34-.11-1.91-.34c-.57-.23-1.05-.56-1.45-.98-.41-.43-.72-.94-.94-1.54-.22-.6-.34-1.27-.34-2l.02-9.44h2.3l.02,9.44c0,.45,.06,.85,.17,1.23,.1,.37,.25,.69,.46,.94,.19,.25,.43,.44,.71,.58,.28,.14,.61,.21,.98,.21s.72-.07,1.01-.21c.29-.14,.54-.34,.74-.6,.2-.26,.35-.58,.46-.94,.1-.36,.16-.77,.17-1.21l.02-9.44h2.3v9.44Z"/>
      <path class="cls-1" d="M153.94,417.76l1.93-6.04h2.9v14.11h-2.19v-4.79l.14-6.3-2.17,6.73h-1.21l-1.97-6.5,.13,6.07v4.79h-2.18v-14.11h2.89l1.74,6.04Z"/>
      <path class="cls-1" d="M167.77,419.5v4.41h6.81v1.92h-9.15v-14.11h9.1v1.93h-6.76v3.97h5.83v1.88h-5.83Z"/>
    </g>
  </g>
  <g id="Saegewerk">
    <path id="InCu_Rnd_Mic" data-name="InCu Rnd Mic" class="cls-2" d="M541.52,738.23c-1.21,0-2.34-.65-2.95-1.7l-5.58-9.68h-40.5c-1.88,0-3.4-1.53-3.4-3.4V452.92c0-1.88,1.53-3.4,3.4-3.4h189.09v-7.79c0-1.88,1.53-3.4,3.4-3.4h55.62c1.88,0,3.4,1.53,3.4,3.4v7.8h118.5c1.88,0,3.4,1.52,3.4,3.4v60.67l3.1,.55c1.85,.33,3.08,2.09,2.76,3.94l-5.86,33.24v111.43c0,1.88-1.53,3.4-3.4,3.4h-16.94l-2.29,12.97c-.29,1.63-1.7,2.81-3.35,2.81-.19,0-.39-.02-.59-.05l-54.62-9.63c-1.85-.33-3.08-2.09-2.76-3.94l1.44-8.17-41.21-2.89h-43.78v35.6c0,1.88-1.53,3.4-3.4,3.4h-27.81c-16.66,.06-34.56,2.52-51.75,7.13-16.03,4.29-32.71,11.31-48.24,20.28-2.09,1.21-6.29,3.83-6.34,3.86l-17.66,10.26c-.52,.3-1.11,.46-1.71,.46Z"/>
    <g id="Micro_Switchholes" data-name="Micro Switchholes">
      <rect class="cls-4" x="585.19" y="483.48" width="39.69" height="39.69"/>
      <rect class="cls-4" x="585.11" y="537.62" width="39.69" height="39.69"/>
      <rect class="cls-4" x="585.11" y="591.75" width="39.69" height="39.69"/>
      <rect class="cls-4" x="638.95" y="583.11" width="39.69" height="39.69"/>
      <rect class="cls-4" x="639.03" y="529.19" width="39.69" height="39.69"/>
      <rect class="cls-4" x="639.03" y="475.09" width="39.69" height="39.69"/>
      <rect class="cls-4" x="692.95" y="449.58" width="39.69" height="39.69"/>
      <rect class="cls-4" x="692.95" y="503.47" width="39.69" height="39.69"/>
      <rect class="cls-4" x="693.03" y="557.6" width="39.69" height="39.69"/>
      <rect class="cls-4" x="647.31" y="645.47" width="39.69" height="39.69"/>
      <rect class="cls-4" x="587.47" y="653.63" width="39.69" height="39.69" transform="translate(-153.61 180.13) rotate(-15)"/>
      <rect class="cls-4" x="531.76" y="676.89" width="39.69" height="39.69" transform="translate(-274.46 369.15) rotate(-30)"/>
      <rect class="cls-4" x="754.69" y="479.22" width="39.69" height="39.69" transform="translate(36.7 -52.81) rotate(4)"/>
      <rect class="cls-4" x="750.93" y="532.98" width="39.69" height="39.69" transform="translate(40.44 -52.42) rotate(4)"/>
      <rect class="cls-4" x="747.23" y="586.99" width="39.69" height="39.69" transform="translate(44.2 -52.03) rotate(4)"/>
      <rect class="cls-4" x="816.52" y="520.31" width="39.69" height="39.69" transform="translate(106.5 -137.03) rotate(10)"/>
      <rect class="cls-4" x="807.16" y="573.38" width="39.69" height="39.69" transform="translate(115.58 -134.6) rotate(10)"/>
      <rect class="cls-4" x="797.84" y="626.71" width="39.69" height="39.69" transform="translate(124.7 -132.17) rotate(10)"/>
    </g>
    <g id="Micro_Keycaps" data-name="Micro Keycaps">
      <rect class="cls-5" x="579.52" y="477.67" width="51.02" height="51.02"/>
      <rect class="cls-5" x="579.44" y="531.81" width="51.02" height="51.02"/>
      <rect class="cls-5" x="579.44" y="585.94" width="51.02" height="51.02"/>
      <rect class="cls-5" x="633.28" y="577.3" width="51.02" height="51.02"/>
      <rect class="cls-5" x="633.36" y="523.37" width="51.02" height="51.02"/>
      <rect class="cls-5" x="633.36" y="469.27" width="51.02" height="51.02"/>
      <rect class="cls-5" x="687.28" y="443.76" width="51.02" height="51.02"/>
      <rect class="cls-5" x="687.28" y="497.66" width="51.02" height="51.02"/>
      <rect class="cls-5" x="687.36" y="551.79" width="51.02" height="51.02"/>
      <rect class="cls-5" x="641.65" y="639.66" width="51.02" height="51.02"/>
      <rect class="cls-5" x="581.77" y="647.83" width="51.02" height="51.02" transform="translate(-153.58 180.12) rotate(-15)"/>
      <rect class="cls-5" x="526.02" y="671.1" width="51.02" height="51.02" transform="translate(-274.41 369.09) rotate(-30)"/>
      <rect class="cls-5" x="749.03" y="473.4" width="51.02" height="51.02" transform="translate(36.69 -52.81) rotate(4)"/>
      <rect class="cls-5" x="745.27" y="527.17" width="51.02" height="51.02" transform="translate(40.43 -52.42) rotate(4)"/>
      <rect class="cls-5" x="741.57" y="581.18" width="51.02" height="51.02" transform="translate(44.19 -52.03) rotate(4)"/>
      <rect class="cls-5" x="810.88" y="514.5" width="51.02" height="51.02" transform="translate(106.48 -137.03) rotate(10)"/>
      <rect class="cls-5" x="801.52" y="567.57" width="51.02" height="51.02" transform="translate(115.55 -134.6) rotate(10)"/>
      <rect class="cls-5" x="792.19" y="620.9" width="51.02" height="51.02" transform="translate(124.67 -132.17) rotate(10)"/>
    </g>
    <path id="Ring-4" data-name="Ring" class="cls-3" d="M532.92,581.48c-23.09,0-41.81,18.72-41.81,41.81s18.72,41.81,41.81,41.81,41.81-18.72,41.81-41.81-18.72-41.81-41.81-41.81Zm0,76.54c-19.18,0-34.72-15.55-34.72-34.72s15.55-34.72,34.72-34.72,34.72,15.55,34.72,34.72-15.55,34.72-34.72,34.72Z"/>
    <rect id="Schwarz-4" data-name="Schwarz" class="cls-3" x="518.27" y="515.6" width="35.01" height="67.07" transform="translate(1084.91 13.36) rotate(90)"/>
    <path class="cls-1" d="M559.76,543.11v-2.01h-8.05v-6.04h-2.01v-2.01h-28.18v2.01h-2.01v6.04h-8.05v2.01h-2.01v12.08h2.01v2.01h8.05v8.05h32.2v-8.05h8.05v-2.01h2.01v-12.08h-2.01Zm-12.08,0v4.03h-2.01v2.01h-4.03v-2.01h-2.01v-4.03h2.01v-2.01h4.03v2.01h2.01Zm-22.14,0v-2.01h4.03v2.01h2.01v4.03h-2.01v2.01h-4.03v-2.01h-2.01v-4.03h2.01Zm18.11,20.13h-4.03v-4.03h-2.01v-4.03h-4.03v4.03h-2.01v4.03h-4.03v-4.03h2.01v-4.03h2.01v-4.03h8.05v4.03h2.01v4.03h2.01v4.03Z"/>
    <rect class="cls-2" x="489.68" y="404.87" width="155.91" height="28.35"/>
    <g>
      <path class="cls-1" d="M506.37,421.57c-.14-.25-.33-.48-.57-.68-.26-.19-.56-.36-.92-.51-.35-.15-.74-.29-1.18-.41-.67-.19-1.28-.42-1.84-.69-.56-.27-1.04-.58-1.43-.92-.39-.35-.7-.74-.93-1.19-.22-.44-.33-.94-.33-1.5,0-.6,.13-1.14,.39-1.62,.26-.48,.61-.89,1.05-1.24,.44-.34,.95-.59,1.54-.77s1.2-.27,1.85-.27c.68,0,1.32,.11,1.91,.31,.59,.21,1.11,.5,1.55,.88,.44,.38,.79,.83,1.04,1.36,.25,.53,.38,1.11,.38,1.75h-2.31c-.03-.36-.11-.68-.23-.97-.12-.29-.29-.55-.5-.76-.22-.21-.49-.37-.8-.49-.31-.12-.67-.18-1.08-.18-.35,0-.68,.05-.98,.14-.3,.09-.56,.22-.78,.39-.22,.17-.39,.38-.51,.63-.12,.25-.18,.52-.18,.82,0,.32,.09,.61,.25,.85,.16,.24,.38,.45,.65,.63,.28,.18,.6,.34,.95,.47,.36,.14,.73,.26,1.13,.38,.5,.14,.98,.32,1.46,.53s.91,.46,1.31,.76c.5,.38,.9,.82,1.2,1.34s.45,1.12,.45,1.8c0,.63-.13,1.18-.39,1.66-.26,.48-.61,.88-1.05,1.19-.45,.33-.96,.58-1.55,.74-.59,.16-1.21,.25-1.86,.25-.69,0-1.37-.11-2.04-.32s-1.26-.53-1.75-.94c-.46-.39-.82-.84-1.09-1.37-.27-.52-.41-1.12-.41-1.8h2.33c.03,.43,.12,.81,.28,1.13,.15,.32,.36,.58,.62,.79,.26,.21,.56,.37,.92,.47,.35,.1,.74,.16,1.16,.16,.35,0,.69-.04,.99-.13,.31-.08,.57-.21,.8-.38,.22-.16,.4-.36,.53-.6,.13-.24,.2-.51,.2-.82,0-.33-.07-.62-.2-.87Z"/>
      <path class="cls-1" d="M517.52,422.83l-.96,3.25h-2.42l4.59-14.11h2.06l4.52,14.11h-2.41l-.95-3.25h-4.43Zm3.86-2l-1.62-5.58-1.65,5.58h3.26Z"/>
      <path class="cls-1" d="M533.44,419.75v4.41h6.81v1.92h-9.15v-14.11h9.1v1.93h-6.76v3.97h5.83v1.88h-5.83Z"/>
      <path class="cls-1" d="M555.6,425.01c-.28,.22-.59,.41-.94,.58-.44,.21-.92,.38-1.43,.5-.52,.12-1.07,.18-1.66,.18-.54,0-1.05-.07-1.52-.21-.47-.14-.9-.34-1.28-.6-.38-.26-.72-.57-1.02-.94s-.55-.78-.75-1.23c-.23-.47-.4-.99-.51-1.56-.12-.57-.18-1.17-.18-1.79v-1.8c0-.61,.06-1.19,.17-1.74,.11-.56,.26-1.07,.47-1.54,.2-.45,.44-.85,.72-1.22,.28-.37,.59-.69,.95-.96,.39-.28,.82-.5,1.28-.66,.47-.16,.98-.23,1.53-.23,.74,0,1.4,.1,1.98,.3s1.07,.49,1.47,.86c.41,.38,.74,.84,.98,1.38,.24,.54,.39,1.15,.46,1.82h-2.29c-.06-.37-.15-.7-.26-1-.12-.3-.27-.55-.46-.76-.21-.22-.46-.39-.76-.5-.3-.12-.65-.17-1.06-.17-.3,0-.57,.05-.82,.15s-.48,.24-.68,.41c-.23,.2-.43,.45-.61,.74-.17,.29-.31,.62-.42,.98-.1,.32-.17,.66-.21,1.02s-.07,.73-.07,1.11v1.82c0,.45,.03,.87,.09,1.27,.06,.4,.15,.77,.28,1.11,.1,.26,.21,.5,.34,.73,.13,.23,.29,.43,.47,.6,.23,.23,.49,.4,.79,.52s.64,.19,1.02,.19c.23,0,.46-.01,.69-.04,.23-.03,.46-.08,.67-.14,.21-.06,.4-.15,.57-.25s.31-.22,.42-.35v-2.82h-2.55v-1.81h4.84l.02,5.4c-.19,.23-.43,.46-.71,.67Z"/>
      <path class="cls-1" d="M565.19,419.75v4.41h6.81v1.92h-9.15v-14.11h9.1v1.93h-6.76v3.97h5.83v1.88h-5.83Z"/>
      <path class="cls-1" d="M577.61,411.97h2.16l.97,8.66,.07,.55,.1-.58,1.36-8.63h1.78l1.4,8.67,.1,.58,.07-.59,.98-8.66h2.17l-1.86,14.11h-2.2l-1.43-8.63-.1-.67-.11,.67-1.41,8.63h-2.2l-1.84-14.11Z"/>
      <path class="cls-1" d="M596.94,419.75v4.41h6.81v1.92h-9.15v-14.11h9.1v1.93h-6.76v3.97h5.83v1.88h-5.83Z"/>
      <path class="cls-1" d="M612.71,420.6v5.47h-2.33v-14.11h4.48c.73,0,1.4,.1,2.02,.28,.61,.18,1.14,.45,1.59,.79,.44,.35,.78,.8,1.03,1.32,.25,.53,.37,1.14,.37,1.85,0,.48-.06,.92-.19,1.32s-.3,.75-.53,1.07-.5,.59-.81,.83c-.32,.24-.67,.45-1.06,.62l3.01,5.9v.13h-2.49l-2.7-5.47h-2.38Zm2.18-1.9c.41,0,.79-.07,1.12-.19,.33-.12,.62-.29,.85-.52,.21-.19,.37-.43,.48-.72s.17-.61,.17-.97c0-.41-.06-.76-.19-1.07-.13-.31-.31-.56-.56-.77-.23-.19-.5-.34-.82-.44-.32-.1-.69-.15-1.09-.16h-2.15v4.83h2.18Z"/>
      <path class="cls-1" d="M628.57,421.67v4.41h-2.35v-14.11h2.35v6.64l1.32-1.71,3.72-4.92h2.85l-4.82,6.21,5.07,7.9h-2.79l-3.82-6.11-1.52,1.71Z"/>
    </g>
  </g>
</svg>