<?xml version="1.0" encoding="UTF-8"?>
<svg id="Ebene_1" data-name="Ebene 1" xmlns="http://www.w3.org/2000/svg" width="292.81mm" height="110.48mm" viewBox="0 0 830 313.18">
  <defs>
    <style>
      .cls-1 {
        fill: #24292f;
      }
    </style>
  </defs>
  <path class="cls-1" d="M471.87,.18c-86.21,0-156.34,70.13-156.34,156.34s70.13,156.34,156.34,156.34,156.34-70.13,156.34-156.34S558.07,.18,471.87,.18Zm0,304.17c-81.51,0-147.83-66.31-147.83-147.83S390.36,8.7,471.87,8.7s147.83,66.31,147.83,147.83-66.31,147.83-147.83,147.83Z"/>
  <polygon class="cls-1" points="209.04 0 209.04 312.86 330.66 312.86 330.66 304.35 217.56 304.35 217.56 0 209.04 0"/>
  <polygon class="cls-1" points="6.38 313.18 80.16 166.47 153.93 313.18 163.46 313.18 84.91 156.97 163.48 0 153.94 0 8.52 289.84 8.52 0 0 0 0 313.18 6.38 313.18"/>
  <path class="cls-1" d="M826.76,166.41V.18h-160.6V313.18h8.52V166.41h71.97l73.82,146.77h9.53l-73.82-146.77h70.58Zm-152.08-8.52V8.7h143.57V157.9h-143.57Z"/>
</svg>