  0
SECTION
  2
HEADER
  9
$ACADVER
  1
AC1032
  9
$ACADMAINTVER
 90
      228
  9
$DWGCODEPAGE
  3
ANSI_1252
  9
$REQUIREDVERSIONS
160
                 0
  9
$INSBASE
 10
0.0
 20
0.0
 30
0.0
  9
$EXTMIN
 10
1.000000000000000E+20
 20
1.000000000000000E+20
 30
1.000000000000000E+20
  9
$EXTMAX
 10
-1.000000000000000E+20
 20
-1.000000000000000E+20
 30
-1.000000000000000E+20
  9
$LIMMIN
 10
0.0
 20
0.0
  9
$LIMMAX
 10
12.0
 20
9.0
  9
$ORTHOMODE
 70
     0
  9
$REGENMODE
 70
     1
  9
$FILLMODE
 70
     1
  9
$QTEXTMODE
 70
     0
  9
$MIRRTEXT
 70
     0
  9
$LTSCALE
 40
1.0
  9
$ATTMODE
 70
     1
  9
$TEXTSIZE
 40
0.2
  9
$TRACEWID
 40
0.05
  9
$TEXTSTYLE
  7
Standard
  9
$CLAYER
  8
0
  9
$CELTYPE
  6
ByLayer
  9
$CECOLOR
 62
   256
  9
$CELTSCALE
 40
1.0
  9
$DISPSILH
 70
     0
  9
$DIMSCALE
 40
1.0
  9
$DIMASZ
 40
0.18
  9
$DIMEXO
 40
0.0625
  9
$DIMDLI
 40
0.38
  9
$DIMRND
 40
0.0
  9
$DIMDLE
 40
0.0
  9
$DIMEXE
 40
0.18
  9
$DIMTP
 40
0.0
  9
$DIMTM
 40
0.0
  9
$DIMTXT
 40
0.18
  9
$DIMCEN
 40
0.09
  9
$DIMTSZ
 40
0.0
  9
$DIMTOL
 70
     0
  9
$DIMLIM
 70
     0
  9
$DIMTIH
 70
     1
  9
$DIMTOH
 70
     1
  9
$DIMSE1
 70
     0
  9
$DIMSE2
 70
     0
  9
$DIMTAD
 70
     0
  9
$DIMZIN
 70
     0
  9
$DIMBLK
  1

  9
$DIMASO
 70
     1
  9
$DIMSHO
 70
     1
  9
$DIMPOST
  1

  9
$DIMAPOST
  1

  9
$DIMALT
 70
     0
  9
$DIMALTD
 70
     2
  9
$DIMALTF
 40
25.4
  9
$DIMLFAC
 40
1.0
  9
$DIMTOFL
 70
     0
  9
$DIMTVP
 40
0.0
  9
$DIMTIX
 70
     0
  9
$DIMSOXD
 70
     0
  9
$DIMSAH
 70
     0
  9
$DIMBLK1
  1

  9
$DIMBLK2
  1

  9
$DIMSTYLE
  2
Standard
  9
$DIMCLRD
 70
     0
  9
$DIMCLRE
 70
     0
  9
$DIMCLRT
 70
     0
  9
$DIMTFAC
 40
1.0
  9
$DIMGAP
 40
0.09
  9
$DIMJUST
 70
     0
  9
$DIMSD1
 70
     0
  9
$DIMSD2
 70
     0
  9
$DIMTOLJ
 70
     1
  9
$DIMTZIN
 70
     0
  9
$DIMALTZ
 70
     0
  9
$DIMALTTZ
 70
     0
  9
$DIMUPT
 70
     0
  9
$DIMDEC
 70
     4
  9
$DIMTDEC
 70
     4
  9
$DIMALTU
 70
     2
  9
$DIMALTTD
 70
     2
  9
$DIMTXSTY
  7
Standard
  9
$DIMAUNIT
 70
     0
  9
$DIMADEC
 70
     0
  9
$DIMALTRND
 40
0.0
  9
$DIMAZIN
 70
     0
  9
$DIMDSEP
 70
    46
  9
$DIMATFIT
 70
     3
  9
$DIMFRAC
 70
     0
  9
$DIMLDRBLK
  1

  9
$DIMLUNIT
 70
     2
  9
$DIMLWD
 70
    -2
  9
$DIMLWE
 70
    -2
  9
$DIMTMOVE
 70
     0
  9
$DIMFXL
 40
1.0
  9
$DIMFXLON
 70
     0
  9
$DIMJOGANG
 40
0.7853981633974483
  9
$DIMTFILL
 70
     0
  9
$DIMTFILLCLR
 70
     0
  9
$DIMARCSYM
 70
     0
  9
$DIMLTYPE
  6

  9
$DIMLTEX1
  6

  9
$DIMLTEX2
  6

  9
$DIMTXTDIRECTION
 70
     0
  9
$LUNITS
 70
     2
  9
$LUPREC
 70
     4
  9
$SKETCHINC
 40
0.1
  9
$FILLETRAD
 40
0.0
  9
$AUNITS
 70
     0
  9
$AUPREC
 70
     0
  9
$MENU
  1
.
  9
$ELEVATION
 40
0.0
  9
$PELEVATION
 40
0.0
  9
$THICKNESS
 40
0.0
  9
$LIMCHECK
 70
     0
  9
$CHAMFERA
 40
0.0
  9
$CHAMFERB
 40
0.0
  9
$CHAMFERC
 40
0.0
  9
$CHAMFERD
 40
0.0
  9
$SKPOLY
 70
     0
  9
$TDCREATE
 40
2459759.047962963
  9
$TDUCREATE
 40
2459758.964629630
  9
$TDUPDATE
 40
2459759.047962963
  9
$TDUUPDATE
 40
2459758.964629630
  9
$TDINDWG
 40
0.0000000000
  9
$TDUSRTIMER
 40
0.0000000000
  9
$USRTIMER
 70
     1
  9
$ANGBASE
 50
0.0
  9
$ANGDIR
 70
     0
  9
$PDMODE
 70
     0
  9
$PDSIZE
 40
0.0
  9
$PLINEWID
 40
0.0
  9
$SPLFRAME
 70
     0
  9
$SPLINETYPE
 70
     6
  9
$SPLINESEGS
 70
     8
  9
$HANDSEED
  5
B9
  9
$SURFTAB1
 70
     6
  9
$SURFTAB2
 70
     6
  9
$SURFTYPE
 70
     6
  9
$SURFU
 70
     6
  9
$SURFV
 70
     6
  9
$UCSBASE
  2

  9
$UCSNAME
  2

  9
$UCSORG
 10
0.0
 20
0.0
 30
0.0
  9
$UCSXDIR
 10
1.0
 20
0.0
 30
0.0
  9
$UCSYDIR
 10
0.0
 20
1.0
 30
0.0
  9
$UCSORTHOREF
  2

  9
$UCSORTHOVIEW
 70
     0
  9
$UCSORGTOP
 10
0.0
 20
0.0
 30
0.0
  9
$UCSORGBOTTOM
 10
0.0
 20
0.0
 30
0.0
  9
$UCSORGLEFT
 10
0.0
 20
0.0
 30
0.0
  9
$UCSORGRIGHT
 10
0.0
 20
0.0
 30
0.0
  9
$UCSORGFRONT
 10
0.0
 20
0.0
 30
0.0
  9
$UCSORGBACK
 10
0.0
 20
0.0
 30
0.0
  9
$PUCSBASE
  2

  9
$PUCSNAME
  2

  9
$PUCSORG
 10
0.0
 20
0.0
 30
0.0
  9
$PUCSXDIR
 10
1.0
 20
0.0
 30
0.0
  9
$PUCSYDIR
 10
0.0
 20
1.0
 30
0.0
  9
$PUCSORTHOREF
  2

  9
$PUCSORTHOVIEW
 70
     0
  9
$PUCSORGTOP
 10
0.0
 20
0.0
 30
0.0
  9
$PUCSORGBOTTOM
 10
0.0
 20
0.0
 30
0.0
  9
$PUCSORGLEFT
 10
0.0
 20
0.0
 30
0.0
  9
$PUCSORGRIGHT
 10
0.0
 20
0.0
 30
0.0
  9
$PUCSORGFRONT
 10
0.0
 20
0.0
 30
0.0
  9
$PUCSORGBACK
 10
0.0
 20
0.0
 30
0.0
  9
$USERI1
 70
     0
  9
$USERI2
 70
     0
  9
$USERI3
 70
     0
  9
$USERI4
 70
     0
  9
$USERI5
 70
     0
  9
$USERR1
 40
0.0
  9
$USERR2
 40
0.0
  9
$USERR3
 40
0.0
  9
$USERR4
 40
0.0
  9
$USERR5
 40
0.0
  9
$WORLDVIEW
 70
     1
  9
$SHADEDGE
 70
     3
  9
$SHADEDIF
 70
    70
  9
$TILEMODE
 70
     1
  9
$MAXACTVP
 70
    64
  9
$PINSBASE
 10
0.0
 20
0.0
 30
0.0
  9
$PLIMCHECK
 70
     0
  9
$PEXTMIN
 10
1.000000000000000E+20
 20
1.000000000000000E+20
 30
1.000000000000000E+20
  9
$PEXTMAX
 10
-1.000000000000000E+20
 20
-1.000000000000000E+20
 30
-1.000000000000000E+20
  9
$PLIMMIN
 10
0.0
 20
0.0
  9
$PLIMMAX
 10
12.0
 20
9.0
  9
$UNITMODE
 70
     0
  9
$VISRETAIN
 70
     1
  9
$PLINEGEN
 70
     0
  9
$PSLTSCALE
 70
     1
  9
$TREEDEPTH
 70
  3020
  9
$CMLSTYLE
  2
Standard
  9
$CMLJUST
 70
     0
  9
$CMLSCALE
 40
1.0
  9
$PROXYGRAPHICS
 70
     1
  9
$MEASUREMENT
 70
     0
  9
$CELWEIGHT
370
    -1
  9
$ENDCAPS
280
     0
  9
$JOINSTYLE
280
     0
  9
$LWDISPLAY
290
     1
  9
$INSUNITS
 70
     4
  9
$HYPERLINKBASE
  1

  9
$STYLESHEET
  1

  9
$XEDIT
290
     1
  9
$CEPSNTYPE
380
     0
  9
$PSTYLEMODE
290
     1
  9
$FINGERPRINTGUID
  2
{3914841C-7C73-014D-B65D-FC0328CF90F1}
  9
$VERSIONGUID
  2
{578D2AF2-2D0E-0043-B2D0-160C2DDBE5A8}
  9
$EXTNAMES
290
     1
  9
$PSVPSCALE
 40
0.0
  9
$OLESTARTUP
290
     0
  9
$SORTENTS
280
   127
  9
$INDEXCTL
280
     0
  9
$HIDETEXT
280
     1
  9
$XCLIPFRAME
280
     2
  9
$HALOGAP
280
     0
  9
$OBSCOLOR
 70
   257
  9
$OBSLTYPE
280
     0
  9
$INTERSECTIONDISPLAY
280
     0
  9
$INTERSECTIONCOLOR
 70
   257
  9
$DIMASSOC
280
     2
  9
$PROJECTNAME
  1

  9
$CAMERADISPLAY
290
     0
  9
$LENSLENGTH
 40
50.0
  9
$CAMERAHEIGHT
 40
0.0
  9
$STEPSPERSEC
 40
2.0
  9
$STEPSIZE
 40
6.0
  9
$3DDWFPREC
 40
2.0
  9
$PSOLWIDTH
 40
0.25
  9
$PSOLHEIGHT
 40
4.0
  9
$LOFTANG1
 40
1.570796326794896
  9
$LOFTANG2
 40
1.570796326794896
  9
$LOFTMAG1
 40
0.0
  9
$LOFTMAG2
 40
0.0
  9
$LOFTPARAM
 70
     7
  9
$LOFTNORMALS
280
     1
  9
$LATITUDE
 40
37.795
  9
$LONGITUDE
 40
-122.394
  9
$NORTHDIRECTION
 40
0.0
  9
$TIMEZONE
 70
 -8000
  9
$LIGHTGLYPHDISPLAY
280
     1
  9
$TILEMODELIGHTSYNCH
280
     1
  9
$CMATERIAL
347
11
  9
$SOLIDHIST
280
     0
  9
$SHOWHIST
280
     1
  9
$DWFFRAME
280
     2
  9
$DGNFRAME
280
     0
  9
$REALWORLDSCALE
290
     1
  9
$INTERFERECOLOR
 62
     1
  9
$INTERFEREOBJVS
345
33
  9
$INTERFEREVPVS
346
30
  9
$CSHADOW
280
     0
  9
$SHADOWPLANELOCATION
 40
0.0
  0
ENDSEC
  0
SECTION
  2
CLASSES
  0
CLASS
  1
ACDBDICTIONARYWDFLT
  2
AcDbDictionaryWithDefault
  3
ObjectDBX Classes
 90
        0
 91
        1
280
     0
281
     0
  0
CLASS
  1
MATERIAL
  2
AcDbMaterial
  3
ObjectDBX Classes
 90
     1153
 91
        3
280
     0
281
     0
  0
CLASS
  1
VISUALSTYLE
  2
AcDbVisualStyle
  3
ObjectDBX Classes
 90
     4095
 91
       24
280
     0
281
     0
  0
CLASS
  1
SCALE
  2
AcDbScale
  3
ObjectDBX Classes
 90
     1153
 91
       17
280
     0
281
     0
  0
CLASS
  1
TABLESTYLE
  2
AcDbTableStyle
  3
ObjectDBX Classes
 90
     4095
 91
        1
280
     0
281
     0
  0
CLASS
  1
MLEADERSTYLE
  2
AcDbMLeaderStyle
  3
ACDB_MLEADERSTYLE_CLASS
 90
     4095
 91
        1
280
     0
281
     0
  0
CLASS
  1
ACDBSECTIONVIEWSTYLE
  2
AcDbSectionViewStyle
  3
ObjectDBX Classes
 90
     1025
 91
        1
280
     0
281
     0
  0
CLASS
  1
ACDBDETAILVIEWSTYLE
  2
AcDbDetailViewStyle
  3
ObjectDBX Classes
 90
     1025
 91
        1
280
     0
281
     0
  0
CLASS
  1
DICTIONARYVAR
  2
AcDbDictionaryVar
  3
ObjectDBX Classes
 90
        0
 91
        5
280
     0
281
     0
  0
CLASS
  1
CELLSTYLEMAP
  2
AcDbCellStyleMap
  3
ObjectDBX Classes
 90
     1152
 91
        1
280
     0
281
     0
  0
ENDSEC
  0
SECTION
  2
TABLES
  0
TABLE
  2
VPORT
  5
8
330
0
100
AcDbSymbolTable
 70
     1
  0
VPORT
  5
57
330
8
100
AcDbSymbolTableRecord
100
AcDbViewportTableRecord
  2
*Active
 70
     0
 10
0.0
 20
0.0
 11
1.0
 21
1.0
 12
0.0
 22
0.0
 13
0.0
 23
0.0
 14
1.0
 24
1.0
 15
0.0
 25
0.0
 16
0.0
 26
0.0
 36
1.0
 17
80.06182065726546
 27
59.15957580451874
 37
0.0
 40
120.6872567209652
 41
1.353300411148124
 42
50.0
 43
0.0
 44
0.0
 50
0.0
 51
0.0
 71
     0
 72
   100
 73
     1
 74
     1
 75
     0
 76
     0
 77
     0
 78
     0
281
     0
 65
     1
110
0.0
120
0.0
130
0.0
111
1.0
121
0.0
131
0.0
112
0.0
122
1.0
132
0.0
 79
     0
146
0.0
 60
     3
 61
     5
292
     1
282
     1
141
0.0
142
0.0
 63
   250
421
  3355443
  0
ENDTAB
  0
TABLE
  2
LTYPE
  5
5
330
0
100
AcDbSymbolTable
 70
     1
  0
LTYPE
  5
5B
330
5
100
AcDbSymbolTableRecord
100
AcDbLinetypeTableRecord
  2
ByBlock
 70
     0
  3

 72
    65
 73
     0
 40
0.0
  0
LTYPE
  5
5C
330
5
100
AcDbSymbolTableRecord
100
AcDbLinetypeTableRecord
  2
ByLayer
 70
     0
  3

 72
    65
 73
     0
 40
0.0
  0
LTYPE
  5
5D
330
5
100
AcDbSymbolTableRecord
100
AcDbLinetypeTableRecord
  2
Continuous
 70
     0
  3
Solid line
 72
    65
 73
     0
 40
0.0
  0
ENDTAB
  0
TABLE
  2
LAYER
  5
2
330
0
100
AcDbSymbolTable
 70
     2
  0
LAYER
  5
54
330
2
100
AcDbSymbolTableRecord
100
AcDbLayerTableRecord
  2
0
 70
     0
 62
     7
  6
Continuous
370
    -3
390
F
347
21
348
0
  0
LAYER
  5
78
330
2
100
AcDbSymbolTableRecord
100
AcDbLayerTableRecord
  2
PCB holes
 70
     0
 62
     7
  6
Continuous
370
     0
390
F
347
21
348
0
  0
ENDTAB
  0
TABLE
  2
STYLE
  5
3
330
0
100
AcDbSymbolTable
 70
     2
  0
STYLE
  5
55
330
3
100
AcDbSymbolTableRecord
100
AcDbTextStyleTableRecord
  2
Standard
 70
     0
 40
0.0
 41
1.0
 50
0.0
 71
     0
 42
0.2
  3
txt
  4

  0
STYLE
  5
5A
330
3
100
AcDbSymbolTableRecord
100
AcDbTextStyleTableRecord
  2
Annotative
 70
     0
 40
0.0
 41
1.0
 50
0.0
 71
     0
 42
0.2
  3
txt
  4

1001
AcadAnnotative
1000
AnnotativeData
1002
{
1070
     1
1070
     1
1002
}
  0
ENDTAB
  0
TABLE
  2
VIEW
  5
6
330
0
100
AcDbSymbolTable
 70
     0
  0
ENDTAB
  0
TABLE
  2
UCS
  5
7
330
0
100
AcDbSymbolTable
 70
     0
  0
ENDTAB
  0
TABLE
  2
APPID
  5
9
330
0
100
AcDbSymbolTable
 70
     2
  0
APPID
  5
56
330
9
100
AcDbSymbolTableRecord
100
AcDbRegAppTableRecord
  2
ACAD
 70
     0
  0
APPID
  5
5E
330
9
100
AcDbSymbolTableRecord
100
AcDbRegAppTableRecord
  2
AcadAnnotative
 70
     0
  0
ENDTAB
  0
TABLE
  2
DIMSTYLE
  5
A
330
0
100
AcDbSymbolTable
 70
     2
100
AcDbDimStyleTable
 71
     0
  0
DIMSTYLE
105
58
330
A
100
AcDbSymbolTableRecord
100
AcDbDimStyleTableRecord
  2
Standard
 70
     0
340
55
  0
DIMSTYLE
105
59
330
A
100
AcDbSymbolTableRecord
100
AcDbDimStyleTableRecord
  2
Annotative
 70
     0
340
55
1001
AcadAnnotative
1000
AnnotativeData
1002
{
1070
     1
1070
     1
1002
}
  0
ENDTAB
  0
TABLE
  2
BLOCK_RECORD
  5
1
330
0
100
AcDbSymbolTable
 70
     1
  0
BLOCK_RECORD
  5
70
330
1
100
AcDbSymbolTableRecord
100
AcDbBlockTableRecord
  2
*Model_Space
340
73
 70
     0
280
     1
281
     0
  0
BLOCK_RECORD
  5
6C
330
1
100
AcDbSymbolTableRecord
100
AcDbBlockTableRecord
  2
*Paper_Space
340
6F
 70
     0
280
     1
281
     0
  0
BLOCK_RECORD
  5
74
330
1
100
AcDbSymbolTableRecord
100
AcDbBlockTableRecord
  2
*Paper_Space0
340
77
 70
     0
280
     1
281
     0
  0
ENDTAB
  0
ENDSEC
  0
SECTION
  2
BLOCKS
  0
BLOCK
  5
71
330
70
100
AcDbEntity
  8
0
100
AcDbBlockBegin
  2
*Model_Space
 70
     0
 10
0.0
 20
0.0
 30
0.0
  3
*Model_Space
  1

  0
ENDBLK
  5
72
330
70
100
AcDbEntity
  8
0
100
AcDbBlockEnd
  0
BLOCK
  5
6D
330
6C
100
AcDbEntity
 67
     1
  8
0
100
AcDbBlockBegin
  2
*Paper_Space
 70
     0
 10
0.0
 20
0.0
 30
0.0
  3
*Paper_Space
  1

  0
ENDBLK
  5
6E
330
6C
100
AcDbEntity
 67
     1
  8
0
100
AcDbBlockEnd
  0
BLOCK
  5
75
330
74
100
AcDbEntity
 67
     1
  8
0
100
AcDbBlockBegin
  2
*Paper_Space0
 70
     0
 10
0.0
 20
0.0
 30
0.0
  3
*Paper_Space0
  1

  0
ENDBLK
  5
76
330
74
100
AcDbEntity
 67
     1
  8
0
100
AcDbBlockEnd
  0
ENDSEC
  0
SECTION
  2
ENTITIES
  0
SPLINE
  5
79
330
70
100
AcDbEntity
  8
PCB holes
 62
     5
420
      255
370
     9
100
AcDbSpline
210
0.0
220
0.0
230
1.0
 70
    11
 71
     3
 72
    20
 73
    16
 74
     0
 42
0.0000000001
 43
0.0000000001
 40
0.0
 40
0.0
 40
0.0
 40
0.0
 40
1.0
 40
1.0
 40
1.0
 40
2.0
 40
2.0
 40
2.0
 40
3.0
 40
3.0
 40
3.0
 40
4.0
 40
4.0
 40
4.0
 40
5.0
 40
5.0
 40
5.0
 40
5.0
 10
153.7771135037251
 20
57.66248250170267
 30
0.0
 10
153.7771135037251
 20
57.66248250170267
 30
0.0
 10
139.9907623720413
 20
60.09308596946793
 30
0.0
 10
139.9907623720413
 20
60.09308596946793
 30
0.0
 10
139.9907623720413
 20
60.09308596946793
 30
0.0
 10
142.4213712226906
 20
73.87944248403553
 30
0.0
 10
142.4213712226906
 20
73.87944248403553
 30
0.0
 10
142.4213712226906
 20
73.87944248403553
 30
0.0
 10
156.2077331201419
 20
71.44883901626996
 30
0.0
 10
156.2077331201419
 20
71.44883901626996
 30
0.0
 10
156.2077331201419
 20
71.44883901626996
 30
0.0
 10
153.7771242694926
 20
57.66248250170267
 30
0.0
 10
153.7771242694926
 20
57.66248250170267
 30
0.0
 10
153.7771242694926
 20
57.66248250170267
 30
0.0
 10
153.7771135037251
 20
57.66248250170267
 30
0.0
 10
153.7771135037251
 20
57.66248250170267
 30
0.0
  0
SPLINE
  5
7A
330
70
100
AcDbEntity
  8
PCB holes
 62
     5
420
      255
370
     9
100
AcDbSpline
210
0.0
220
0.0
230
1.0
 70
    11
 71
     3
 72
    20
 73
    16
 74
     0
 42
0.0000000001
 43
0.0000000001
 40
0.0
 40
0.0
 40
0.0
 40
0.0
 40
1.0
 40
1.0
 40
1.0
 40
2.0
 40
2.0
 40
2.0
 40
3.0
 40
3.0
 40
3.0
 40
4.0
 40
4.0
 40
4.0
 40
5.0
 40
5.0
 40
5.0
 40
5.0
 10
150.4857492474632
 20
38.84911546697465
 30
0.0
 10
150.4857492474632
 20
38.84911546697465
 30
0.0
 10
136.6993873500119
 20
41.27971893474054
 30
0.0
 10
136.6993873500119
 20
41.27971893474054
 30
0.0
 10
136.6993873500119
 20
41.27971893474054
 30
0.0
 10
139.1299962006612
 20
55.06607544930782
 30
0.0
 10
139.1299962006612
 20
55.06607544930782
 30
0.0
 10
139.1299962006612
 20
55.06607544930782
 30
0.0
 10
152.9163580981125
 20
52.63547198154256
 30
0.0
 10
152.9163580981125
 20
52.63547198154256
 30
0.0
 10
152.9163580981125
 20
52.63547198154256
 30
0.0
 10
150.4857492474632
 20
38.84911546697465
 30
0.0
 10
150.4857492474632
 20
38.84911546697465
 30
0.0
 10
150.4857492474632
 20
38.84911546697465
 30
0.0
 10
150.4857492474632
 20
38.84911546697465
 30
0.0
 10
150.4857492474632
 20
38.84911546697465
 30
0.0
  0
SPLINE
  5
7B
330
70
100
AcDbEntity
  8
PCB holes
 62
     5
420
      255
370
     9
100
AcDbSpline
210
0.0
220
0.0
230
1.0
 70
    11
 71
     3
 72
    20
 73
    16
 74
     0
 42
0.0000000001
 43
0.0000000001
 40
0.0
 40
0.0
 40
0.0
 40
0.0
 40
1.0
 40
1.0
 40
1.0
 40
2.0
 40
2.0
 40
2.0
 40
3.0
 40
3.0
 40
3.0
 40
4.0
 40
4.0
 40
4.0
 40
5.0
 40
5.0
 40
5.0
 40
5.0
 10
134.1805960981097
 20
56.01503478770821
 30
0.0
 10
134.1805960981097
 20
56.01503478770821
 30
0.0
 10
120.3942449664259
 20
58.44563825547346
 30
0.0
 10
120.3942449664259
 20
58.44563825547346
 30
0.0
 10
120.3942449664259
 20
58.44563825547346
 30
0.0
 10
122.8248538170751
 20
72.23199477004138
 30
0.0
 10
122.8248538170751
 20
72.23199477004138
 30
0.0
 10
122.8248538170751
 20
72.23199477004138
 30
0.0
 10
136.6112157145265
 20
69.80139130227581
 30
0.0
 10
136.6112157145265
 20
69.80139130227581
 30
0.0
 10
136.6112157145265
 20
69.80139130227581
 30
0.0
 10
134.1806068638772
 20
56.01503478770821
 30
0.0
 10
134.1806068638772
 20
56.01503478770821
 30
0.0
 10
134.1806068638772
 20
56.01503478770821
 30
0.0
 10
134.1805960981097
 20
56.01503478770821
 30
0.0
 10
134.1805960981097
 20
56.01503478770821
 30
0.0
  0
SPLINE
  5
7C
330
70
100
AcDbEntity
  8
PCB holes
 62
     5
420
      255
370
     9
100
AcDbSpline
210
0.0
220
0.0
230
1.0
 70
    11
 71
     3
 72
    17
 73
    13
 74
     0
 42
0.0000000001
 43
0.0000000001
 40
0.0
 40
0.0
 40
0.0
 40
0.0
 40
1.0
 40
1.0
 40
1.0
 40
2.0
 40
2.0
 40
2.0
 40
3.0
 40
3.0
 40
3.0
 40
4.0
 40
4.0
 40
4.0
 40
4.0
 10
130.8892318418479
 20
37.20166775298082
 30
0.0
 10
130.8892318418479
 20
37.20166775298082
 30
0.0
 10
117.1028699443965
 20
39.63227122074608
 30
0.0
 10
117.1028699443965
 20
39.63227122074608
 30
0.0
 10
117.1028699443965
 20
39.63227122074608
 30
0.0
 10
119.5334787950458
 20
53.41862773531335
 30
0.0
 10
119.5334787950458
 20
53.41862773531335
 30
0.0
 10
119.5334787950458
 20
53.41862773531335
 30
0.0
 10
133.3198406924971
 20
50.98802426754811
 30
0.0
 10
133.3198406924971
 20
50.98802426754811
 30
0.0
 10
133.3198406924971
 20
50.98802426754811
 30
0.0
 10
130.8892318418479
 20
37.20166775298082
 30
0.0
 10
130.8892318418479
 20
37.20166775298082
 30
0.0
  0
SPLINE
  5
7D
330
70
100
AcDbEntity
  8
PCB holes
 62
     5
420
      255
370
     9
100
AcDbSpline
210
0.0
220
0.0
230
1.0
 70
     9
 71
     3
 72
    20
 73
    16
 74
     0
 42
0.0000000001
 43
0.0000000001
 40
0.0
 40
0.0
 40
0.0
 40
0.0
 40
1.0
 40
1.0
 40
1.0
 40
2.0
 40
2.0
 40
2.0
 40
3.0
 40
3.0
 40
3.0
 40
4.0
 40
4.0
 40
4.0
 40
5.0
 40
5.0
 40
5.0
 40
5.0
 10
102.5192599035705
 20
90.8478099719049
 30
0.0
 10
102.5192599035705
 20
90.8478099719049
 30
0.0
 10
103.4964363184798
 20
104.8140799550767
 30
0.0
 10
103.4964363184798
 20
104.8140799550767
 30
0.0
 10
103.4964363184798
 20
104.8140799550767
 30
0.0
 10
117.4627049559307
 20
103.8368995030046
 30
0.0
 10
117.4627049559307
 20
103.8368995030046
 30
0.0
 10
117.4627049559307
 20
103.8368995030046
 30
0.0
 10
116.4855285410215
 20
89.87062817411196
 30
0.0
 10
116.4855285410215
 20
89.87062817411196
 30
0.0
 10
116.4855285410215
 20
89.87062817411196
 30
0.0
 10
102.5192599035705
 20
90.84780728046288
 30
0.0
 10
102.5192599035705
 20
90.84780728046288
 30
0.0
 10
102.5192599035705
 20
90.84780728046288
 30
0.0
 10
102.5192599035705
 20
90.84780728046288
 30
0.0
 10
102.5192599035705
 20
90.8478099719049
 30
0.0
  0
SPLINE
  5
7E
330
70
100
AcDbEntity
  8
PCB holes
 62
     5
420
      255
370
     9
100
AcDbSpline
210
0.0
220
0.0
230
1.0
 70
    11
 71
     3
 72
    20
 73
    16
 74
     0
 42
0.0000000001
 43
0.0000000001
 40
0.0
 40
0.0
 40
0.0
 40
0.0
 40
1.0
 40
1.0
 40
1.0
 40
2.0
 40
2.0
 40
2.0
 40
3.0
 40
3.0
 40
3.0
 40
4.0
 40
4.0
 40
4.0
 40
5.0
 40
5.0
 40
5.0
 40
5.0
 10
115.1591106297573
 20
70.90557147589342
 30
0.0
 10
115.1591106297573
 20
70.90557147589342
 30
0.0
 10
101.1928419923063
 20
71.88275327368637
 30
0.0
 10
101.1928419923063
 20
71.88275327368637
 30
0.0
 10
101.1928419923063
 20
71.88275327368637
 30
0.0
 10
102.1700184072155
 20
85.84902191113735
 30
0.0
 10
102.1700184072155
 20
85.84902191113735
 30
0.0
 10
102.1700184072155
 20
85.84902191113735
 30
0.0
 10
116.1362870446665
 20
84.87184280478642
 30
0.0
 10
116.1362870446665
 20
84.87184280478642
 30
0.0
 10
116.1362870446665
 20
84.87184280478642
 30
0.0
 10
115.1591106297573
 20
70.90557147589342
 30
0.0
 10
115.1591106297573
 20
70.90557147589342
 30
0.0
 10
115.1591106297573
 20
70.90557147589342
 30
0.0
 10
115.1591106297573
 20
70.90557147589342
 30
0.0
 10
115.1591106297573
 20
70.90557147589342
 30
0.0
  0
SPLINE
  5
7F
330
70
100
AcDbEntity
  8
PCB holes
 62
     5
420
      255
370
     9
100
AcDbSpline
210
0.0
220
0.0
230
1.0
 70
    11
 71
     3
 72
    17
 73
    13
 74
     0
 42
0.0000000001
 43
0.0000000001
 40
0.0
 40
0.0
 40
0.0
 40
0.0
 40
1.0
 40
1.0
 40
1.0
 40
2.0
 40
2.0
 40
2.0
 40
3.0
 40
3.0
 40
3.0
 40
4.0
 40
4.0
 40
4.0
 40
4.0
 10
113.8538474515491
 20
51.85232161065454
 30
0.0
 10
113.8538474515491
 20
51.85232161065454
 30
0.0
 10
99.8875788140981
 20
52.82950340844717
 30
0.0
 10
99.8875788140981
 20
52.82950340844717
 30
0.0
 10
99.8875788140981
 20
52.82950340844717
 30
0.0
 10
100.8647552290073
 20
66.79577204589847
 30
0.0
 10
100.8647552290073
 20
66.79577204589847
 30
0.0
 10
100.8647552290073
 20
66.79577204589847
 30
0.0
 10
114.8310238664583
 20
65.81859024810552
 30
0.0
 10
114.8310238664583
 20
65.81859024810552
 30
0.0
 10
114.8310238664583
 20
65.81859024810552
 30
0.0
 10
113.8538474515491
 20
51.85232161065454
 30
0.0
 10
113.8538474515491
 20
51.85232161065454
 30
0.0
  0
SPLINE
  5
80
330
70
100
AcDbEntity
  8
PCB holes
 62
     5
420
      255
370
     9
100
AcDbSpline
210
0.0
220
0.0
230
1.0
 70
     9
 71
     3
 72
    17
 73
    13
 74
     0
 42
0.0000000001
 43
0.0000000001
 40
0.0
 40
0.0
 40
0.0
 40
0.0
 40
1.0
 40
1.0
 40
1.0
 40
2.0
 40
2.0
 40
2.0
 40
3.0
 40
3.0
 40
3.0
 40
4.0
 40
4.0
 40
4.0
 40
4.0
 10
110.6400936128958
 20
43.92199353939154
 30
0.0
 10
110.0615412696739
 20
43.92199353939154
 30
0.0
 10
109.5888271863369
 20
44.39118183388618
 30
0.0
 10
109.5888271863369
 20
44.97325458306702
 30
0.0
 10
109.5888271863369
 20
45.55532733224786
 30
0.0
 10
110.0580100979475
 20
46.0245156267425
 30
0.0
 10
110.6400936128958
 20
46.0245156267425
 30
0.0
 10
111.2221771278441
 20
46.0245156267425
 30
0.0
 10
111.6913600394547
 20
45.55532733224786
 30
0.0
 10
111.6913600394547
 20
44.97325458306702
 30
0.0
 10
111.6913600394547
 20
44.39118183388618
 30
0.0
 10
111.2221771278441
 20
43.92199353939154
 30
0.0
 10
110.6400936128958
 20
43.92199353939154
 30
0.0
  0
SPLINE
  5
81
330
70
100
AcDbEntity
  8
PCB holes
 62
     5
420
      255
370
     9
100
AcDbSpline
210
0.0
220
0.0
230
1.0
 70
     9
 71
     3
 72
    17
 73
    13
 74
     0
 42
0.0000000001
 43
0.0000000001
 40
0.0
 40
0.0
 40
0.0
 40
0.0
 40
1.0
 40
1.0
 40
1.0
 40
2.0
 40
2.0
 40
2.0
 40
3.0
 40
3.0
 40
3.0
 40
4.0
 40
4.0
 40
4.0
 40
4.0
 10
103.2318675831861
 20
112.7726348593251
 30
0.0
 10
103.810419926408
 20
112.7726348593251
 30
0.0
 10
104.283134009745
 20
112.3034469012611
 30
0.0
 10
104.283134009745
 20
111.7213721334988
 30
0.0
 10
104.283134009745
 20
111.1392973657366
 30
0.0
 10
103.8139510981344
 20
110.6701097441028
 30
0.0
 10
103.2318675831861
 20
110.6701097441028
 30
0.0
 10
102.6497840682379
 20
110.6701097441028
 30
0.0
 10
102.1806011566273
 20
111.1392973657366
 30
0.0
 10
102.1806011566273
 20
111.7213721334988
 30
0.0
 10
102.1806011566273
 20
112.3034469012611
 30
0.0
 10
102.6497840682379
 20
112.7726345228948
 30
0.0
 10
103.2318675831861
 20
112.7726348593251
 30
0.0
  0
SPLINE
  5
82
330
70
100
AcDbEntity
  8
PCB holes
 62
     5
420
      255
370
     9
100
AcDbSpline
210
0.0
220
0.0
230
1.0
 70
    11
 71
     3
 72
    23
 73
    19
 74
     0
 42
0.0000000001
 43
0.0000000001
 40
0.0
 40
0.0
 40
0.0
 40
0.0
 40
1.0
 40
1.0
 40
1.0
 40
2.0
 40
2.0
 40
2.0
 40
3.0
 40
3.0
 40
3.0
 40
4.0
 40
4.0
 40
4.0
 40
5.0
 40
5.0
 40
5.0
 40
6.0
 40
6.0
 40
6.0
 40
6.0
 10
126.1303427602426
 20
90.95716325486501
 30
0.0
 10
126.1303427602426
 20
90.95716325486501
 30
0.0
 10
139.9166938919265
 20
88.52655978709945
 30
0.0
 10
139.9166938919265
 20
88.52655978709945
 30
0.0
 10
139.9166938919265
 20
88.52655978709945
 30
0.0
 10
137.4860850412772
 20
74.74020327253184
 30
0.0
 10
137.4860850412772
 20
74.74020327253184
 30
0.0
 10
137.4860850412772
 20
74.74020327253184
 30
0.0
 10
123.6997231438259
 20
77.17080674029742
 30
0.0
 10
123.6997231438259
 20
77.17080674029742
 30
0.0
 10
123.6997231438259
 20
77.17080674029742
 30
0.0
 10
126.1303319944752
 20
90.95716325486501
 30
0.0
 10
126.1303319944752
 20
90.95716325486501
 30
0.0
 10
126.1303319944752
 20
90.95716325486501
 30
0.0
 10
126.1303319944752
 20
90.95716325486501
 30
0.0
 10
126.1303319944752
 20
90.95716325486501
 30
0.0
 10
126.1303319944752
 20
90.95716325486501
 30
0.0
 10
126.1303427602426
 20
90.95716325486501
 30
0.0
 10
126.1303427602426
 20
90.95716325486501
 30
0.0
  0
SPLINE
  5
83
330
70
100
AcDbEntity
  8
PCB holes
 62
     5
420
      255
370
     9
100
AcDbSpline
210
0.0
220
0.0
230
1.0
 70
     9
 71
     3
 72
    17
 73
    13
 74
     0
 42
0.0000000001
 43
0.0000000001
 40
0.0
 40
0.0
 40
0.0
 40
0.0
 40
1.0
 40
1.0
 40
1.0
 40
2.0
 40
2.0
 40
2.0
 40
3.0
 40
3.0
 40
3.0
 40
4.0
 40
4.0
 40
4.0
 40
4.0
 10
96.38807997556028
 20
78.34201458211189
 30
0.0
 10
95.80952763233838
 20
78.34201458211189
 30
0.0
 10
95.33681354900139
 20
78.81120287660621
 30
0.0
 10
95.33681354900139
 20
79.39327831722876
 30
0.0
 10
95.33681354900139
 20
79.97535375785162
 30
0.0
 10
95.805996460612
 20
80.44454205234593
 30
0.0
 10
96.38807997556028
 20
80.44454205234593
 30
0.0
 10
96.97016349050858
 20
80.44454205234593
 30
0.0
 10
97.43934640211918
 20
79.97535375785162
 30
0.0
 10
97.43934640211918
 20
79.39327831722876
 30
0.0
 10
97.43934640211918
 20
78.81120287660621
 30
0.0
 10
96.97016349050858
 20
78.34201458211189
 30
0.0
 10
96.38807997556028
 20
78.34201458211189
 30
0.0
  0
SPLINE
  5
84
330
70
100
AcDbEntity
  8
PCB holes
 62
     5
420
      255
370
     9
100
AcDbSpline
210
0.0
220
0.0
230
1.0
 70
    11
 71
     3
 72
    17
 73
    13
 74
     0
 42
0.0000000001
 43
0.0000000001
 40
0.0
 40
0.0
 40
0.0
 40
0.0
 40
1.0
 40
1.0
 40
1.0
 40
2.0
 40
2.0
 40
2.0
 40
3.0
 40
3.0
 40
3.0
 40
4.0
 40
4.0
 40
4.0
 40
4.0
 10
95.2450999760221
 20
62.68949302186246
 30
0.0
 10
95.2450999760221
 20
62.68949302186246
 30
0.0
 10
81.24355191860948
 20
62.68949302186246
 30
0.0
 10
81.24355191860948
 20
62.68949302186246
 30
0.0
 10
81.24355191860948
 20
62.68949302186246
 30
0.0
 10
81.24355191860948
 20
76.68751259899069
 30
0.0
 10
81.24355191860948
 20
76.68751259899069
 30
0.0
 10
81.24355191860948
 20
76.68751259899069
 30
0.0
 10
95.2450999760221
 20
76.68751259899069
 30
0.0
 10
95.2450999760221
 20
76.68751259899069
 30
0.0
 10
95.2450999760221
 20
76.68751259899069
 30
0.0
 10
95.2450999760221
 20
62.68949302186246
 30
0.0
 10
95.2450999760221
 20
62.68949302186246
 30
0.0
  0
SPLINE
  5
85
330
70
100
AcDbEntity
  8
PCB holes
 62
     5
420
      255
370
     9
100
AcDbSpline
210
0.0
220
0.0
230
1.0
 70
     9
 71
     3
 72
    17
 73
    13
 74
     0
 42
0.0000000001
 43
0.0000000001
 40
0.0
 40
0.0
 40
0.0
 40
0.0
 40
1.0
 40
1.0
 40
1.0
 40
2.0
 40
2.0
 40
2.0
 40
3.0
 40
3.0
 40
3.0
 40
4.0
 40
4.0
 40
4.0
 40
4.0
 10
93.24487421106281
 20
54.64627511302954
 30
0.0
 10
92.96971196059001
 20
54.64627511302954
 30
0.0
 10
92.74393228544953
 20
54.86852361644363
 30
0.0
 10
92.74393228544953
 20
55.14721165575942
 30
0.0
 10
92.74393228544953
 20
55.42589969507457
 30
0.0
 10
92.96618078886361
 20
55.64814819848866
 30
0.0
 10
93.24487421106281
 20
55.64814819848866
 30
0.0
 10
93.52356763326202
 20
55.64814819848866
 30
0.0
 10
93.7458161366761
 20
55.42589969507457
 30
0.0
 10
93.7458161366761
 20
55.14721165575942
 30
0.0
 10
93.7458161366761
 20
54.86852361644363
 30
0.0
 10
93.52356763326202
 20
54.64627511302954
 30
0.0
 10
93.24487421106281
 20
54.64627511302954
 30
0.0
  0
SPLINE
  5
86
330
70
100
AcDbEntity
  8
PCB holes
 62
     5
420
      255
370
     9
100
AcDbSpline
210
0.0
220
0.0
230
1.0
 70
     9
 71
     3
 72
    17
 73
    13
 74
     0
 42
0.0000000001
 43
0.0000000001
 40
0.0
 40
0.0
 40
0.0
 40
0.0
 40
1.0
 40
1.0
 40
1.0
 40
2.0
 40
2.0
 40
2.0
 40
3.0
 40
3.0
 40
3.0
 40
4.0
 40
4.0
 40
4.0
 40
4.0
 10
93.24487421106281
 20
52.64605473095367
 30
0.0
 10
92.96971196059001
 20
52.64605473095367
 30
0.0
 10
92.74393228544953
 20
52.86830323436775
 30
0.0
 10
92.74393228544953
 20
53.14699127368355
 30
0.0
 10
92.74393228544953
 20
53.42567931299934
 30
0.0
 10
92.96618078886361
 20
53.64792781641342
 30
0.0
 10
93.24487421106281
 20
53.64792781641342
 30
0.0
 10
93.52356763326202
 20
53.64792781641342
 30
0.0
 10
93.7458161366761
 20
53.42567931299934
 30
0.0
 10
93.7458161366761
 20
53.14699127368355
 30
0.0
 10
93.7458161366761
 20
52.86830323436775
 30
0.0
 10
93.52356763326202
 20
52.64605473095367
 30
0.0
 10
93.24487421106281
 20
52.64605473095367
 30
0.0
  0
SPLINE
  5
87
330
70
100
AcDbEntity
  8
PCB holes
 62
     5
420
      255
370
     9
100
AcDbSpline
210
0.0
220
0.0
230
1.0
 70
     9
 71
     3
 72
    17
 73
    13
 74
     0
 42
0.0000000001
 43
0.0000000001
 40
0.0
 40
0.0
 40
0.0
 40
0.0
 40
1.0
 40
1.0
 40
1.0
 40
2.0
 40
2.0
 40
2.0
 40
3.0
 40
3.0
 40
3.0
 40
4.0
 40
4.0
 40
4.0
 40
4.0
 10
93.24487421106281
 20
50.64583434887843
 30
0.0
 10
92.96971196059001
 20
50.64583434887843
 30
0.0
 10
92.74393228544953
 20
50.86808285229252
 30
0.0
 10
92.74393228544953
 20
51.14677089160768
 30
0.0
 10
92.74393228544953
 20
51.42545893092346
 30
0.0
 10
92.96618078886361
 20
51.64770743433755
 30
0.0
 10
93.24487421106281
 20
51.64770743433755
 30
0.0
 10
93.52356763326202
 20
51.64770743433755
 30
0.0
 10
93.7458161366761
 20
51.42545893092346
 30
0.0
 10
93.7458161366761
 20
51.14677089160768
 30
0.0
 10
93.7458161366761
 20
50.86808285229252
 30
0.0
 10
93.52356763326202
 20
50.64583434887843
 30
0.0
 10
93.24487421106281
 20
50.64583434887843
 30
0.0
  0
SPLINE
  5
88
330
70
100
AcDbEntity
  8
PCB holes
 62
     5
420
      255
370
     9
100
AcDbSpline
210
0.0
220
0.0
230
1.0
 70
     9
 71
     3
 72
    17
 73
    13
 74
     0
 42
0.0000000001
 43
0.0000000001
 40
0.0
 40
0.0
 40
0.0
 40
0.0
 40
1.0
 40
1.0
 40
1.0
 40
2.0
 40
2.0
 40
2.0
 40
3.0
 40
3.0
 40
3.0
 40
4.0
 40
4.0
 40
4.0
 40
4.0
 10
93.24487421106281
 20
48.6456139668032
 30
0.0
 10
92.96971196059001
 20
48.6456139668032
 30
0.0
 10
92.74393228544953
 20
48.86786247021728
 30
0.0
 10
92.74393228544953
 20
49.14655050953244
 30
0.0
 10
92.74393228544953
 20
49.42523854884758
 30
0.0
 10
92.96618078886361
 20
49.64748705226167
 30
0.0
 10
93.24487421106281
 20
49.64748705226167
 30
0.0
 10
93.52356763326202
 20
49.64748705226167
 30
0.0
 10
93.7458161366761
 20
49.42523854884758
 30
0.0
 10
93.7458161366761
 20
49.14655050953244
 30
0.0
 10
93.7458161366761
 20
48.86786247021728
 30
0.0
 10
93.52356763326202
 20
48.6456139668032
 30
0.0
 10
93.24487421106281
 20
48.6456139668032
 30
0.0
  0
SPLINE
  5
89
330
70
100
AcDbEntity
  8
PCB holes
 62
     5
420
      255
370
     9
100
AcDbSpline
210
0.0
220
0.0
230
1.0
 70
     9
 71
     3
 72
    17
 73
    13
 74
     0
 42
0.0000000001
 43
0.0000000001
 40
0.0
 40
0.0
 40
0.0
 40
0.0
 40
1.0
 40
1.0
 40
1.0
 40
2.0
 40
2.0
 40
2.0
 40
3.0
 40
3.0
 40
3.0
 40
4.0
 40
4.0
 40
4.0
 40
4.0
 10
93.24487421106281
 20
46.64539358472732
 30
0.0
 10
92.96971196059001
 20
46.64539358472732
 30
0.0
 10
92.74393228544953
 20
46.86764208814141
 30
0.0
 10
92.74393228544953
 20
47.1463301274572
 30
0.0
 10
92.74393228544953
 20
47.42501816677235
 30
0.0
 10
92.96618078886361
 20
47.64726667018644
 30
0.0
 10
93.24487421106281
 20
47.64726667018644
 30
0.0
 10
93.52356763326202
 20
47.64726667018644
 30
0.0
 10
93.7458161366761
 20
47.42501816677235
 30
0.0
 10
93.7458161366761
 20
47.1463301274572
 30
0.0
 10
93.7458161366761
 20
46.86764208814141
 30
0.0
 10
93.52356763326202
 20
46.64539358472732
 30
0.0
 10
93.24487421106281
 20
46.64539358472732
 30
0.0
  0
SPLINE
  5
8A
330
70
100
AcDbEntity
  8
PCB holes
 62
     5
420
      255
370
     9
100
AcDbSpline
210
0.0
220
0.0
230
1.0
 70
     9
 71
     3
 72
    17
 73
    13
 74
     0
 42
0.0000000001
 43
0.0000000001
 40
0.0
 40
0.0
 40
0.0
 40
0.0
 40
1.0
 40
1.0
 40
1.0
 40
2.0
 40
2.0
 40
2.0
 40
3.0
 40
3.0
 40
3.0
 40
4.0
 40
4.0
 40
4.0
 40
4.0
 10
91.24464844610352
 20
54.64627511302954
 30
0.0
 10
90.96948619563072
 20
54.64627511302954
 30
0.0
 10
90.74370652049024
 20
54.86852361644363
 30
0.0
 10
90.74370652049024
 20
55.14721165575942
 30
0.0
 10
90.74370652049024
 20
55.42589969507457
 30
0.0
 10
90.96595502390433
 20
55.64814819848866
 30
0.0
 10
91.24464844610352
 20
55.64814819848866
 30
0.0
 10
91.52334186830273
 20
55.64814819848866
 30
0.0
 10
91.74559037171681
 20
55.42589969507457
 30
0.0
 10
91.74559037171681
 20
55.14721165575942
 30
0.0
 10
91.74559037171681
 20
54.86852361644363
 30
0.0
 10
91.52334186830273
 20
54.64627511302954
 30
0.0
 10
91.24464844610352
 20
54.64627511302954
 30
0.0
  0
SPLINE
  5
8B
330
70
100
AcDbEntity
  8
PCB holes
 62
     5
420
      255
370
     9
100
AcDbSpline
210
0.0
220
0.0
230
1.0
 70
     9
 71
     3
 72
    17
 73
    13
 74
     0
 42
0.0000000001
 43
0.0000000001
 40
0.0
 40
0.0
 40
0.0
 40
0.0
 40
1.0
 40
1.0
 40
1.0
 40
2.0
 40
2.0
 40
2.0
 40
3.0
 40
3.0
 40
3.0
 40
4.0
 40
4.0
 40
4.0
 40
4.0
 10
91.24464844610352
 20
52.64605473095367
 30
0.0
 10
90.96948619563072
 20
52.64605473095367
 30
0.0
 10
90.74370652049024
 20
52.86830323436775
 30
0.0
 10
90.74370652049024
 20
53.14699127368355
 30
0.0
 10
90.74370652049024
 20
53.42567931299934
 30
0.0
 10
90.96595502390433
 20
53.64792781641342
 30
0.0
 10
91.24464844610352
 20
53.64792781641342
 30
0.0
 10
91.52334186830273
 20
53.64792781641342
 30
0.0
 10
91.74559037171681
 20
53.42567931299934
 30
0.0
 10
91.74559037171681
 20
53.14699127368355
 30
0.0
 10
91.74559037171681
 20
52.86830323436775
 30
0.0
 10
91.52334186830273
 20
52.64605473095367
 30
0.0
 10
91.24464844610352
 20
52.64605473095367
 30
0.0
  0
SPLINE
  5
8C
330
70
100
AcDbEntity
  8
PCB holes
 62
     5
420
      255
370
     9
100
AcDbSpline
210
0.0
220
0.0
230
1.0
 70
     9
 71
     3
 72
    17
 73
    13
 74
     0
 42
0.0000000001
 43
0.0000000001
 40
0.0
 40
0.0
 40
0.0
 40
0.0
 40
1.0
 40
1.0
 40
1.0
 40
2.0
 40
2.0
 40
2.0
 40
3.0
 40
3.0
 40
3.0
 40
4.0
 40
4.0
 40
4.0
 40
4.0
 10
91.24464844610352
 20
50.64583434887843
 30
0.0
 10
90.96948619563072
 20
50.64583434887843
 30
0.0
 10
90.74370652049024
 20
50.86808285229252
 30
0.0
 10
90.74370652049024
 20
51.14677089160768
 30
0.0
 10
90.74370652049024
 20
51.42545893092346
 30
0.0
 10
90.96595502390433
 20
51.64770743433755
 30
0.0
 10
91.24464844610352
 20
51.64770743433755
 30
0.0
 10
91.52334186830273
 20
51.64770743433755
 30
0.0
 10
91.74559037171681
 20
51.42545893092346
 30
0.0
 10
91.74559037171681
 20
51.14677089160768
 30
0.0
 10
91.74559037171681
 20
50.86808285229252
 30
0.0
 10
91.52334186830273
 20
50.64583434887843
 30
0.0
 10
91.24464844610352
 20
50.64583434887843
 30
0.0
  0
SPLINE
  5
8D
330
70
100
AcDbEntity
  8
PCB holes
 62
     5
420
      255
370
     9
100
AcDbSpline
210
0.0
220
0.0
230
1.0
 70
     9
 71
     3
 72
    17
 73
    13
 74
     0
 42
0.0000000001
 43
0.0000000001
 40
0.0
 40
0.0
 40
0.0
 40
0.0
 40
1.0
 40
1.0
 40
1.0
 40
2.0
 40
2.0
 40
2.0
 40
3.0
 40
3.0
 40
3.0
 40
4.0
 40
4.0
 40
4.0
 40
4.0
 10
91.24464844610352
 20
48.6456139668032
 30
0.0
 10
90.96948619563072
 20
48.6456139668032
 30
0.0
 10
90.74370652049024
 20
48.86786247021728
 30
0.0
 10
90.74370652049024
 20
49.14655050953244
 30
0.0
 10
90.74370652049024
 20
49.42523854884758
 30
0.0
 10
90.96595502390433
 20
49.64748705226167
 30
0.0
 10
91.24464844610352
 20
49.64748705226167
 30
0.0
 10
91.52334186830273
 20
49.64748705226167
 30
0.0
 10
91.74559037171681
 20
49.42523854884758
 30
0.0
 10
91.74559037171681
 20
49.14655050953244
 30
0.0
 10
91.74559037171681
 20
48.86786247021728
 30
0.0
 10
91.52334186830273
 20
48.6456139668032
 30
0.0
 10
91.24464844610352
 20
48.6456139668032
 30
0.0
  0
SPLINE
  5
8E
330
70
100
AcDbEntity
  8
PCB holes
 62
     5
420
      255
370
     9
100
AcDbSpline
210
0.0
220
0.0
230
1.0
 70
     9
 71
     3
 72
    17
 73
    13
 74
     0
 42
0.0000000001
 43
0.0000000001
 40
0.0
 40
0.0
 40
0.0
 40
0.0
 40
1.0
 40
1.0
 40
1.0
 40
2.0
 40
2.0
 40
2.0
 40
3.0
 40
3.0
 40
3.0
 40
4.0
 40
4.0
 40
4.0
 40
4.0
 10
91.24464844610352
 20
46.64539358472732
 30
0.0
 10
90.96948619563072
 20
46.64539358472732
 30
0.0
 10
90.74370652049024
 20
46.86764208814141
 30
0.0
 10
90.74370652049024
 20
47.1463301274572
 30
0.0
 10
90.74370652049024
 20
47.42501816677235
 30
0.0
 10
90.96595502390433
 20
47.64726667018644
 30
0.0
 10
91.24464844610352
 20
47.64726667018644
 30
0.0
 10
91.52334186830273
 20
47.64726667018644
 30
0.0
 10
91.74559037171681
 20
47.42501816677235
 30
0.0
 10
91.74559037171681
 20
47.1463301274572
 30
0.0
 10
91.74559037171681
 20
46.86764208814141
 30
0.0
 10
91.52334186830273
 20
46.64539358472732
 30
0.0
 10
91.24464844610352
 20
46.64539358472732
 30
0.0
  0
SPLINE
  5
8F
330
70
100
AcDbEntity
  8
PCB holes
 62
     5
420
      255
370
     9
100
AcDbSpline
210
0.0
220
0.0
230
1.0
 70
     9
 71
     3
 72
    17
 73
    13
 74
     0
 42
0.0000000001
 43
0.0000000001
 40
0.0
 40
0.0
 40
0.0
 40
0.0
 40
1.0
 40
1.0
 40
1.0
 40
2.0
 40
2.0
 40
2.0
 40
3.0
 40
3.0
 40
3.0
 40
4.0
 40
4.0
 40
4.0
 40
4.0
 10
89.24442806402765
 20
54.64627511302954
 30
0.0
 10
88.96926581355549
 20
54.64627511302954
 30
0.0
 10
88.74349152129843
 20
54.86852361644363
 30
0.0
 10
88.74349152129843
 20
55.14721165575942
 30
0.0
 10
88.74349152129843
 20
55.42589969507457
 30
0.0
 10
88.9657400247125
 20
55.64814819848866
 30
0.0
 10
89.24442806402765
 20
55.64814819848866
 30
0.0
 10
89.52311610334346
 20
55.64814819848866
 30
0.0
 10
89.74536460675754
 20
55.42589969507457
 30
0.0
 10
89.74536460675754
 20
55.14721165575942
 30
0.0
 10
89.74536460675754
 20
54.86852361644363
 30
0.0
 10
89.52311610334346
 20
54.64627511302954
 30
0.0
 10
89.24442806402765
 20
54.64627511302954
 30
0.0
  0
SPLINE
  5
90
330
70
100
AcDbEntity
  8
PCB holes
 62
     5
420
      255
370
     9
100
AcDbSpline
210
0.0
220
0.0
230
1.0
 70
     9
 71
     3
 72
    17
 73
    13
 74
     0
 42
0.0000000001
 43
0.0000000001
 40
0.0
 40
0.0
 40
0.0
 40
0.0
 40
1.0
 40
1.0
 40
1.0
 40
2.0
 40
2.0
 40
2.0
 40
3.0
 40
3.0
 40
3.0
 40
4.0
 40
4.0
 40
4.0
 40
4.0
 10
89.24442806402765
 20
52.64605473095367
 30
0.0
 10
88.96926581355549
 20
52.64605473095367
 30
0.0
 10
88.74349152129843
 20
52.86830323436775
 30
0.0
 10
88.74349152129843
 20
53.14699127368355
 30
0.0
 10
88.74349152129843
 20
53.42567931299934
 30
0.0
 10
88.9657400247125
 20
53.64792781641342
 30
0.0
 10
89.24442806402765
 20
53.64792781641342
 30
0.0
 10
89.52311610334346
 20
53.64792781641342
 30
0.0
 10
89.74536460675754
 20
53.42567931299934
 30
0.0
 10
89.74536460675754
 20
53.14699127368355
 30
0.0
 10
89.74536460675754
 20
52.86830323436775
 30
0.0
 10
89.52311610334346
 20
52.64605473095367
 30
0.0
 10
89.24442806402765
 20
52.64605473095367
 30
0.0
  0
SPLINE
  5
91
330
70
100
AcDbEntity
  8
PCB holes
 62
     5
420
      255
370
     9
100
AcDbSpline
210
0.0
220
0.0
230
1.0
 70
     9
 71
     3
 72
    17
 73
    13
 74
     0
 42
0.0000000001
 43
0.0000000001
 40
0.0
 40
0.0
 40
0.0
 40
0.0
 40
1.0
 40
1.0
 40
1.0
 40
2.0
 40
2.0
 40
2.0
 40
3.0
 40
3.0
 40
3.0
 40
4.0
 40
4.0
 40
4.0
 40
4.0
 10
89.24442806402765
 20
50.64583434887843
 30
0.0
 10
88.96926581355549
 20
50.64583434887843
 30
0.0
 10
88.74349152129843
 20
50.86808285229252
 30
0.0
 10
88.74349152129843
 20
51.14677089160768
 30
0.0
 10
88.74349152129843
 20
51.42545893092346
 30
0.0
 10
88.9657400247125
 20
51.64770743433755
 30
0.0
 10
89.24442806402765
 20
51.64770743433755
 30
0.0
 10
89.52311610334346
 20
51.64770743433755
 30
0.0
 10
89.74536460675754
 20
51.42545893092346
 30
0.0
 10
89.74536460675754
 20
51.14677089160768
 30
0.0
 10
89.74536460675754
 20
50.86808285229252
 30
0.0
 10
89.52311610334346
 20
50.64583434887843
 30
0.0
 10
89.24442806402765
 20
50.64583434887843
 30
0.0
  0
SPLINE
  5
92
330
70
100
AcDbEntity
  8
PCB holes
 62
     5
420
      255
370
     9
100
AcDbSpline
210
0.0
220
0.0
230
1.0
 70
     9
 71
     3
 72
    17
 73
    13
 74
     0
 42
0.0000000001
 43
0.0000000001
 40
0.0
 40
0.0
 40
0.0
 40
0.0
 40
1.0
 40
1.0
 40
1.0
 40
2.0
 40
2.0
 40
2.0
 40
3.0
 40
3.0
 40
3.0
 40
4.0
 40
4.0
 40
4.0
 40
4.0
 10
89.24442806402765
 20
48.6456139668032
 30
0.0
 10
88.96926581355549
 20
48.6456139668032
 30
0.0
 10
88.74349152129843
 20
48.86786247021728
 30
0.0
 10
88.74349152129843
 20
49.14655050953244
 30
0.0
 10
88.74349152129843
 20
49.42523854884758
 30
0.0
 10
88.9657400247125
 20
49.64748705226167
 30
0.0
 10
89.24442806402765
 20
49.64748705226167
 30
0.0
 10
89.52311610334346
 20
49.64748705226167
 30
0.0
 10
89.74536460675754
 20
49.42523854884758
 30
0.0
 10
89.74536460675754
 20
49.14655050953244
 30
0.0
 10
89.74536460675754
 20
48.86786247021728
 30
0.0
 10
89.52311610334346
 20
48.6456139668032
 30
0.0
 10
89.24442806402765
 20
48.6456139668032
 30
0.0
  0
SPLINE
  5
93
330
70
100
AcDbEntity
  8
PCB holes
 62
     5
420
      255
370
     9
100
AcDbSpline
210
0.0
220
0.0
230
1.0
 70
     9
 71
     3
 72
    17
 73
    13
 74
     0
 42
0.0000000001
 43
0.0000000001
 40
0.0
 40
0.0
 40
0.0
 40
0.0
 40
1.0
 40
1.0
 40
1.0
 40
2.0
 40
2.0
 40
2.0
 40
3.0
 40
3.0
 40
3.0
 40
4.0
 40
4.0
 40
4.0
 40
4.0
 10
89.24442806402765
 20
46.64539358472732
 30
0.0
 10
88.96926581355549
 20
46.64539358472732
 30
0.0
 10
88.74349152129843
 20
46.86764208814141
 30
0.0
 10
88.74349152129843
 20
47.1463301274572
 30
0.0
 10
88.74349152129843
 20
47.42501816677235
 30
0.0
 10
88.9657400247125
 20
47.64726667018644
 30
0.0
 10
89.24442806402765
 20
47.64726667018644
 30
0.0
 10
89.52311610334346
 20
47.64726667018644
 30
0.0
 10
89.74536460675754
 20
47.42501816677235
 30
0.0
 10
89.74536460675754
 20
47.1463301274572
 30
0.0
 10
89.74536460675754
 20
46.86764208814141
 30
0.0
 10
89.52311610334346
 20
46.64539358472732
 30
0.0
 10
89.24442806402765
 20
46.64539358472732
 30
0.0
  0
SPLINE
  5
94
330
70
100
AcDbEntity
  8
PCB holes
 62
     5
420
      255
370
     9
100
AcDbSpline
210
0.0
220
0.0
230
1.0
 70
     9
 71
     3
 72
    17
 73
    13
 74
     0
 42
0.0000000001
 43
0.0000000001
 40
0.0
 40
0.0
 40
0.0
 40
0.0
 40
1.0
 40
1.0
 40
1.0
 40
2.0
 40
2.0
 40
2.0
 40
3.0
 40
3.0
 40
3.0
 40
4.0
 40
4.0
 40
4.0
 40
4.0
 10
87.24420768195242
 20
54.64627511302954
 30
0.0
 10
86.96904543147962
 20
54.64627511302954
 30
0.0
 10
86.74327113922318
 20
54.86852361644363
 30
0.0
 10
86.74327113922318
 20
55.14721165575942
 30
0.0
 10
86.74327113922318
 20
55.42589969507457
 30
0.0
 10
86.96551964263726
 20
55.64814819848866
 30
0.0
 10
87.24420768195242
 20
55.64814819848866
 30
0.0
 10
87.52289572126757
 20
55.64814819848866
 30
0.0
 10
87.74514422468165
 20
55.42589969507457
 30
0.0
 10
87.74514422468165
 20
55.14721165575942
 30
0.0
 10
87.74514422468165
 20
54.86852361644363
 30
0.0
 10
87.52289572126757
 20
54.64627511302954
 30
0.0
 10
87.24420768195242
 20
54.64627511302954
 30
0.0
  0
SPLINE
  5
95
330
70
100
AcDbEntity
  8
PCB holes
 62
     5
420
      255
370
     9
100
AcDbSpline
210
0.0
220
0.0
230
1.0
 70
     9
 71
     3
 72
    17
 73
    13
 74
     0
 42
0.0000000001
 43
0.0000000001
 40
0.0
 40
0.0
 40
0.0
 40
0.0
 40
1.0
 40
1.0
 40
1.0
 40
2.0
 40
2.0
 40
2.0
 40
3.0
 40
3.0
 40
3.0
 40
4.0
 40
4.0
 40
4.0
 40
4.0
 10
87.24420768195242
 20
52.64605473095367
 30
0.0
 10
86.96904543147962
 20
52.64605473095367
 30
0.0
 10
86.74327113922318
 20
52.86830323436775
 30
0.0
 10
86.74327113922318
 20
53.14699127368355
 30
0.0
 10
86.74327113922318
 20
53.42567931299934
 30
0.0
 10
86.96551964263726
 20
53.64792781641342
 30
0.0
 10
87.24420768195242
 20
53.64792781641342
 30
0.0
 10
87.52289572126757
 20
53.64792781641342
 30
0.0
 10
87.74514422468165
 20
53.42567931299934
 30
0.0
 10
87.74514422468165
 20
53.14699127368355
 30
0.0
 10
87.74514422468165
 20
52.86830323436775
 30
0.0
 10
87.52289572126757
 20
52.64605473095367
 30
0.0
 10
87.24420768195242
 20
52.64605473095367
 30
0.0
  0
SPLINE
  5
96
330
70
100
AcDbEntity
  8
PCB holes
 62
     5
420
      255
370
     9
100
AcDbSpline
210
0.0
220
0.0
230
1.0
 70
     9
 71
     3
 72
    17
 73
    13
 74
     0
 42
0.0000000001
 43
0.0000000001
 40
0.0
 40
0.0
 40
0.0
 40
0.0
 40
1.0
 40
1.0
 40
1.0
 40
2.0
 40
2.0
 40
2.0
 40
3.0
 40
3.0
 40
3.0
 40
4.0
 40
4.0
 40
4.0
 40
4.0
 10
87.24420768195242
 20
50.64583434887843
 30
0.0
 10
86.96904543147962
 20
50.64583434887843
 30
0.0
 10
86.74327113922318
 20
50.86808285229252
 30
0.0
 10
86.74327113922318
 20
51.14677089160768
 30
0.0
 10
86.74327113922318
 20
51.42545893092346
 30
0.0
 10
86.96551964263726
 20
51.64770743433755
 30
0.0
 10
87.24420768195242
 20
51.64770743433755
 30
0.0
 10
87.52289572126757
 20
51.64770743433755
 30
0.0
 10
87.74514422468165
 20
51.42545893092346
 30
0.0
 10
87.74514422468165
 20
51.14677089160768
 30
0.0
 10
87.74514422468165
 20
50.86808285229252
 30
0.0
 10
87.52289572126757
 20
50.64583434887843
 30
0.0
 10
87.24420768195242
 20
50.64583434887843
 30
0.0
  0
SPLINE
  5
97
330
70
100
AcDbEntity
  8
PCB holes
 62
     5
420
      255
370
     9
100
AcDbSpline
210
0.0
220
0.0
230
1.0
 70
     9
 71
     3
 72
    17
 73
    13
 74
     0
 42
0.0000000001
 43
0.0000000001
 40
0.0
 40
0.0
 40
0.0
 40
0.0
 40
1.0
 40
1.0
 40
1.0
 40
2.0
 40
2.0
 40
2.0
 40
3.0
 40
3.0
 40
3.0
 40
4.0
 40
4.0
 40
4.0
 40
4.0
 10
87.24420768195242
 20
48.6456139668032
 30
0.0
 10
86.96904543147962
 20
48.6456139668032
 30
0.0
 10
86.74327113922318
 20
48.86786247021728
 30
0.0
 10
86.74327113922318
 20
49.14655050953244
 30
0.0
 10
86.74327113922318
 20
49.42523854884758
 30
0.0
 10
86.96551964263726
 20
49.64748705226167
 30
0.0
 10
87.24420768195242
 20
49.64748705226167
 30
0.0
 10
87.52289572126757
 20
49.64748705226167
 30
0.0
 10
87.74514422468165
 20
49.42523854884758
 30
0.0
 10
87.74514422468165
 20
49.14655050953244
 30
0.0
 10
87.74514422468165
 20
48.86786247021728
 30
0.0
 10
87.52289572126757
 20
48.6456139668032
 30
0.0
 10
87.24420768195242
 20
48.6456139668032
 30
0.0
  0
SPLINE
  5
98
330
70
100
AcDbEntity
  8
PCB holes
 62
     5
420
      255
370
     9
100
AcDbSpline
210
0.0
220
0.0
230
1.0
 70
     9
 71
     3
 72
    17
 73
    13
 74
     0
 42
0.0000000001
 43
0.0000000001
 40
0.0
 40
0.0
 40
0.0
 40
0.0
 40
1.0
 40
1.0
 40
1.0
 40
2.0
 40
2.0
 40
2.0
 40
3.0
 40
3.0
 40
3.0
 40
4.0
 40
4.0
 40
4.0
 40
4.0
 10
87.24420768195242
 20
46.64539358472732
 30
0.0
 10
86.96904543147962
 20
46.64539358472732
 30
0.0
 10
86.74327113922318
 20
46.86764208814141
 30
0.0
 10
86.74327113922318
 20
47.1463301274572
 30
0.0
 10
86.74327113922318
 20
47.42501816677235
 30
0.0
 10
86.96551964263726
 20
47.64726667018644
 30
0.0
 10
87.24420768195242
 20
47.64726667018644
 30
0.0
 10
87.52289572126757
 20
47.64726667018644
 30
0.0
 10
87.74514422468165
 20
47.42501816677235
 30
0.0
 10
87.74514422468165
 20
47.1463301274572
 30
0.0
 10
87.74514422468165
 20
46.86764208814141
 30
0.0
 10
87.52289572126757
 20
46.64539358472732
 30
0.0
 10
87.24420768195242
 20
46.64539358472732
 30
0.0
  0
SPLINE
  5
99
330
70
100
AcDbEntity
  8
PCB holes
 62
     5
420
      255
370
     9
100
AcDbSpline
210
0.0
220
0.0
230
1.0
 70
     9
 71
     3
 72
    17
 73
    13
 74
     0
 42
0.0000000001
 43
0.0000000001
 40
0.0
 40
0.0
 40
0.0
 40
0.0
 40
1.0
 40
1.0
 40
1.0
 40
2.0
 40
2.0
 40
2.0
 40
3.0
 40
3.0
 40
3.0
 40
4.0
 40
4.0
 40
4.0
 40
4.0
 10
85.24398729987719
 20
54.64628049591359
 30
0.0
 10
84.96882504940375
 20
54.64628049591359
 30
0.0
 10
84.74305075714731
 20
54.86852899932768
 30
0.0
 10
84.74305075714731
 20
55.14721703864283
 30
0.0
 10
84.74305075714731
 20
55.42590507795798
 30
0.0
 10
84.96529926056139
 20
55.64815358137206
 30
0.0
 10
85.24398729987719
 20
55.64815358137206
 30
0.0
 10
85.52267533919234
 20
55.64815358137206
 30
0.0
 10
85.74492384260642
 20
55.42590507795798
 30
0.0
 10
85.74492384260642
 20
55.14721703864283
 30
0.0
 10
85.74492384260642
 20
54.86852899932768
 30
0.0
 10
85.52267533919234
 20
54.64628049591359
 30
0.0
 10
85.24398729987719
 20
54.64628049591359
 30
0.0
  0
SPLINE
  5
9A
330
70
100
AcDbEntity
  8
PCB holes
 62
     5
420
      255
370
     9
100
AcDbSpline
210
0.0
220
0.0
230
1.0
 70
     9
 71
     3
 72
    17
 73
    13
 74
     0
 42
0.0000000001
 43
0.0000000001
 40
0.0
 40
0.0
 40
0.0
 40
0.0
 40
1.0
 40
1.0
 40
1.0
 40
2.0
 40
2.0
 40
2.0
 40
3.0
 40
3.0
 40
3.0
 40
4.0
 40
4.0
 40
4.0
 40
4.0
 10
85.24398729987719
 20
52.64606011383772
 30
0.0
 10
84.96882504940375
 20
52.64606011383772
 30
0.0
 10
84.74305075714731
 20
52.8683086172518
 30
0.0
 10
84.74305075714731
 20
53.14699665656759
 30
0.0
 10
84.74305075714731
 20
53.42568469588275
 30
0.0
 10
84.96529926056139
 20
53.64793319929683
 30
0.0
 10
85.24398729987719
 20
53.64793319929683
 30
0.0
 10
85.52267533919234
 20
53.64793319929683
 30
0.0
 10
85.74492384260642
 20
53.42568469588275
 30
0.0
 10
85.74492384260642
 20
53.14699665656759
 30
0.0
 10
85.74492384260642
 20
52.8683086172518
 30
0.0
 10
85.52267533919234
 20
52.64606011383772
 30
0.0
 10
85.24398729987719
 20
52.64606011383772
 30
0.0
  0
SPLINE
  5
9B
330
70
100
AcDbEntity
  8
PCB holes
 62
     5
420
      255
370
     9
100
AcDbSpline
210
0.0
220
0.0
230
1.0
 70
     9
 71
     3
 72
    17
 73
    13
 74
     0
 42
0.0000000001
 43
0.0000000001
 40
0.0
 40
0.0
 40
0.0
 40
0.0
 40
1.0
 40
1.0
 40
1.0
 40
2.0
 40
2.0
 40
2.0
 40
3.0
 40
3.0
 40
3.0
 40
4.0
 40
4.0
 40
4.0
 40
4.0
 10
85.24398729987719
 20
50.64583973176184
 30
0.0
 10
84.96882504940375
 20
50.64583973176184
 30
0.0
 10
84.74305075714731
 20
50.86808823517593
 30
0.0
 10
84.74305075714731
 20
51.14677627449172
 30
0.0
 10
84.74305075714731
 20
51.42546431380751
 30
0.0
 10
84.96529926056139
 20
51.6477128172216
 30
0.0
 10
85.24398729987719
 20
51.6477128172216
 30
0.0
 10
85.52267533919234
 20
51.6477128172216
 30
0.0
 10
85.74492384260642
 20
51.42546431380751
 30
0.0
 10
85.74492384260642
 20
51.14677627449172
 30
0.0
 10
85.74492384260642
 20
50.86808823517593
 30
0.0
 10
85.52267533919234
 20
50.64583973176184
 30
0.0
 10
85.24398729987719
 20
50.64583973176184
 30
0.0
  0
SPLINE
  5
9C
330
70
100
AcDbEntity
  8
PCB holes
 62
     5
420
      255
370
     9
100
AcDbSpline
210
0.0
220
0.0
230
1.0
 70
     9
 71
     3
 72
    17
 73
    13
 74
     0
 42
0.0000000001
 43
0.0000000001
 40
0.0
 40
0.0
 40
0.0
 40
0.0
 40
1.0
 40
1.0
 40
1.0
 40
2.0
 40
2.0
 40
2.0
 40
3.0
 40
3.0
 40
3.0
 40
4.0
 40
4.0
 40
4.0
 40
4.0
 10
85.24398729987719
 20
48.64561934968661
 30
0.0
 10
84.96882504940375
 20
48.64561934968661
 30
0.0
 10
84.74305075714731
 20
48.86786785310069
 30
0.0
 10
84.74305075714731
 20
49.14655589241585
 30
0.0
 10
84.74305075714731
 20
49.42524393173164
 30
0.0
 10
84.96529926056139
 20
49.64749243514572
 30
0.0
 10
85.24398729987719
 20
49.64749243514572
 30
0.0
 10
85.52267533919234
 20
49.64749243514572
 30
0.0
 10
85.74492384260642
 20
49.42524393173164
 30
0.0
 10
85.74492384260642
 20
49.14655589241585
 30
0.0
 10
85.74492384260642
 20
48.86786785310069
 30
0.0
 10
85.52267533919234
 20
48.64561934968661
 30
0.0
 10
85.24398729987719
 20
48.64561934968661
 30
0.0
  0
SPLINE
  5
9D
330
70
100
AcDbEntity
  8
PCB holes
 62
     5
420
      255
370
     9
100
AcDbSpline
210
0.0
220
0.0
230
1.0
 70
     9
 71
     3
 72
    17
 73
    13
 74
     0
 42
0.0000000001
 43
0.0000000001
 40
0.0
 40
0.0
 40
0.0
 40
0.0
 40
1.0
 40
1.0
 40
1.0
 40
2.0
 40
2.0
 40
2.0
 40
3.0
 40
3.0
 40
3.0
 40
4.0
 40
4.0
 40
4.0
 40
4.0
 10
85.24398729987719
 20
46.64539896761137
 30
0.0
 10
84.96882504940375
 20
46.64539896761137
 30
0.0
 10
84.74305075714731
 20
46.86764747102546
 30
0.0
 10
84.74305075714731
 20
47.14633551034061
 30
0.0
 10
84.74305075714731
 20
47.42502354965576
 30
0.0
 10
84.96529926056139
 20
47.64727205306985
 30
0.0
 10
85.24398729987719
 20
47.64727205306985
 30
0.0
 10
85.52267533919234
 20
47.64727205306985
 30
0.0
 10
85.74492384260642
 20
47.42502354965576
 30
0.0
 10
85.74492384260642
 20
47.14633551034061
 30
0.0
 10
85.74492384260642
 20
46.86764747102546
 30
0.0
 10
85.52267533919234
 20
46.64539896761137
 30
0.0
 10
85.24398729987719
 20
46.64539896761137
 30
0.0
  0
SPLINE
  5
9E
330
70
100
AcDbEntity
  8
PCB holes
 62
     5
420
      255
370
     9
100
AcDbSpline
210
0.0
220
0.0
230
1.0
 70
    11
 71
     3
 72
    20
 73
    16
 74
     0
 42
0.0000000001
 43
0.0000000001
 40
0.0
 40
0.0
 40
0.0
 40
0.0
 40
1.0
 40
1.0
 40
1.0
 40
2.0
 40
2.0
 40
2.0
 40
3.0
 40
3.0
 40
3.0
 40
4.0
 40
4.0
 40
4.0
 40
5.0
 40
5.0
 40
5.0
 40
5.0
 10
81.21884986517555
 20
95.78663270792839
 30
0.0
 10
81.21884986517555
 20
95.78663270792839
 30
0.0
 10
95.22039253970474
 20
95.78663270792839
 30
0.0
 10
95.22039253970474
 20
95.78663270792839
 30
0.0
 10
95.22039253970474
 20
95.78663270792839
 30
0.0
 10
95.22039253970474
 20
81.78508465051578
 30
0.0
 10
95.22039253970474
 20
81.78508465051578
 30
0.0
 10
95.22039253970474
 20
81.78508465051578
 30
0.0
 10
81.21884448229215
 20
81.78508465051578
 30
0.0
 10
81.21884448229215
 20
81.78508465051578
 30
0.0
 10
81.21884448229215
 20
81.78508465051578
 30
0.0
 10
81.21884448229215
 20
95.78663136220754
 30
0.0
 10
81.21884448229215
 20
95.78663136220754
 30
0.0
 10
81.21884448229215
 20
95.78663136220754
 30
0.0
 10
81.21884986517555
 20
95.78663270792839
 30
0.0
 10
81.21884986517555
 20
95.78663270792839
 30
0.0
  0
SPLINE
  5
9F
330
70
100
AcDbEntity
  8
PCB holes
 62
     5
420
      255
370
     9
100
AcDbSpline
210
0.0
220
0.0
230
1.0
 70
    11
 71
     3
 72
    17
 73
    13
 74
     0
 42
0.0000000001
 43
0.0000000001
 40
0.0
 40
0.0
 40
0.0
 40
0.0
 40
1.0
 40
1.0
 40
1.0
 40
2.0
 40
2.0
 40
2.0
 40
3.0
 40
3.0
 40
3.0
 40
4.0
 40
4.0
 40
4.0
 40
4.0
 10
79.11985356666821
 20
31.69136578295538
 30
0.0
 10
79.11985356666821
 20
31.69136578295538
 30
0.0
 10
65.12183668098201
 20
31.69136578295538
 30
0.0
 10
65.12183668098201
 20
31.69136578295538
 30
0.0
 10
65.12183668098201
 20
31.69136578295538
 30
0.0
 10
65.12183668098201
 20
45.68938266864159
 30
0.0
 10
65.12183668098201
 20
45.68938266864159
 30
0.0
 10
65.12183668098201
 20
45.68938266864159
 30
0.0
 10
79.11985356666821
 20
45.68938266864159
 30
0.0
 10
79.11985356666821
 20
45.68938266864159
 30
0.0
 10
79.11985356666821
 20
45.68938266864159
 30
0.0
 10
79.11985356666821
 20
31.69136578295538
 30
0.0
 10
79.11985356666821
 20
31.69136578295538
 30
0.0
  0
SPLINE
  5
A0
330
70
100
AcDbEntity
  8
PCB holes
 62
     5
420
      255
370
     9
100
AcDbSpline
210
0.0
220
0.0
230
1.0
 70
    11
 71
     3
 72
    17
 73
    13
 74
     0
 42
0.0000000001
 43
0.0000000001
 40
0.0
 40
0.0
 40
0.0
 40
0.0
 40
1.0
 40
1.0
 40
1.0
 40
2.0
 40
2.0
 40
2.0
 40
3.0
 40
3.0
 40
3.0
 40
4.0
 40
4.0
 40
4.0
 40
4.0
 10
62.16912578877966
 20
67.69181763724015
 30
0.0
 10
62.16912578877966
 20
67.69181763724015
 30
0.0
 10
76.17067384619227
 20
67.69181763724015
 30
0.0
 10
76.17067384619227
 20
67.69181763724015
 30
0.0
 10
76.17067384619227
 20
67.69181763724015
 30
0.0
 10
76.17067384619227
 20
53.69026957982722
 30
0.0
 10
76.17067384619227
 20
53.69026957982722
 30
0.0
 10
76.17067384619227
 20
53.69026957982722
 30
0.0
 10
62.16912578877966
 20
53.69026957982722
 30
0.0
 10
62.16912578877966
 20
53.69026957982722
 30
0.0
 10
62.16912578877966
 20
53.69026957982722
 30
0.0
 10
62.16912578877966
 20
67.69181763724015
 30
0.0
 10
62.16912578877966
 20
67.69181763724015
 30
0.0
  0
SPLINE
  5
A1
330
70
100
AcDbEntity
  8
PCB holes
 62
     5
420
      255
370
     9
100
AcDbSpline
210
0.0
220
0.0
230
1.0
 70
    11
 71
     3
 72
    17
 73
    13
 74
     0
 42
0.0000000001
 43
0.0000000001
 40
0.0
 40
0.0
 40
0.0
 40
0.0
 40
1.0
 40
1.0
 40
1.0
 40
2.0
 40
2.0
 40
2.0
 40
3.0
 40
3.0
 40
3.0
 40
4.0
 40
4.0
 40
4.0
 40
4.0
 10
46.05799868344766
 20
27.23937643429076
 30
0.0
 10
46.05799868344766
 20
27.23937643429076
 30
0.0
 10
42.43502187504412
 20
40.76115344779762
 30
0.0
 10
42.43502187504412
 20
40.76115344779762
 30
0.0
 10
42.43502187504412
 20
40.76115344779762
 30
0.0
 10
55.95679888855066
 20
44.38413025620084
 30
0.0
 10
55.95679888855066
 20
44.38413025620084
 30
0.0
 10
55.95679888855066
 20
44.38413025620084
 30
0.0
 10
59.5797756969542
 20
30.86235324269463
 30
0.0
 10
59.5797756969542
 20
30.86235324269463
 30
0.0
 10
59.5797756969542
 20
30.86235324269463
 30
0.0
 10
46.05799868344766
 20
27.23937643429076
 30
0.0
 10
46.05799868344766
 20
27.23937643429076
 30
0.0
  0
SPLINE
  5
A2
330
70
100
AcDbEntity
  8
PCB holes
 62
     5
420
      255
370
     9
100
AcDbSpline
210
0.0
220
0.0
230
1.0
 70
    11
 71
     3
 72
    17
 73
    13
 74
     0
 42
0.0000000001
 43
0.0000000001
 40
0.0
 40
0.0
 40
0.0
 40
0.0
 40
1.0
 40
1.0
 40
1.0
 40
2.0
 40
2.0
 40
2.0
 40
3.0
 40
3.0
 40
3.0
 40
4.0
 40
4.0
 40
4.0
 40
4.0
 10
28.79330344628199
 20
18.04612156535058
 30
0.0
 10
28.79330344628199
 20
18.04612156535058
 30
0.0
 10
21.79429365771804
 20
30.1709164447859
 30
0.0
 10
21.79429365771804
 20
30.1709164447859
 30
0.0
 10
21.79429365771804
 20
30.1709164447859
 30
0.0
 10
33.91908988287421
 20
37.169924887629
 30
0.0
 10
33.91908988287421
 20
37.169924887629
 30
0.0
 10
33.91908988287421
 20
37.169924887629
 30
0.0
 10
40.9180983257173
 20
25.04513000819369
 30
0.0
 10
40.9180983257173
 20
25.04513000819369
 30
0.0
 10
40.9180983257173
 20
25.04513000819369
 30
0.0
 10
28.79330344628199
 20
18.04612156535058
 30
0.0
 10
28.79330344628199
 20
18.04612156535058
 30
0.0
  0
SPLINE
  5
A3
330
70
100
AcDbEntity
  8
PCB holes
 62
     5
420
      255
370
     9
100
AcDbSpline
210
0.0
220
0.0
230
1.0
 70
    11
 71
     3
 72
    20
 73
    16
 74
     0
 42
0.0000000001
 43
0.0000000001
 40
0.0
 40
0.0
 40
0.0
 40
0.0
 40
1.0
 40
1.0
 40
1.0
 40
2.0
 40
2.0
 40
2.0
 40
3.0
 40
3.0
 40
3.0
 40
4.0
 40
4.0
 40
4.0
 40
5.0
 40
5.0
 40
5.0
 40
5.0
 10
14.49895611985779
 20
4.665456848806845
 30
0.0
 10
14.49895611985779
 20
4.665456848806845
 30
0.0
 10
4.6001552418942
 20
14.56425705390985
 30
0.0
 10
4.6001552418942
 20
14.56425705390985
 30
0.0
 10
4.6001552418942
 20
14.56425705390985
 30
0.0
 10
14.49895611985779
 20
24.46305725901285
 30
0.0
 10
14.49895611985779
 20
24.46305725901285
 30
0.0
 10
14.49895611985779
 20
24.46305725901285
 30
0.0
 10
24.39775632496079
 20
14.56425705390985
 30
0.0
 10
24.39775632496079
 20
14.56425705390985
 30
0.0
 10
24.39775632496079
 20
14.56425705390985
 30
0.0
 10
14.49895611985779
 20
4.665456848806845
 30
0.0
 10
14.49895611985779
 20
4.665456848806845
 30
0.0
 10
14.49895611985779
 20
4.665456848806845
 30
0.0
 10
14.49895611985779
 20
4.665456848806845
 30
0.0
 10
14.49895611985779
 20
4.665456848806845
 30
0.0
  0
SPLINE
  5
A4
330
70
100
AcDbEntity
  8
PCB holes
 62
     5
420
      255
370
     9
100
AcDbSpline
210
0.0
220
0.0
230
1.0
 70
     9
 71
     3
 72
    17
 73
    13
 74
     0
 42
0.0000000001
 43
0.0000000001
 40
0.0
 40
0.0
 40
0.0
 40
0.0
 40
1.0
 40
1.0
 40
1.0
 40
2.0
 40
2.0
 40
2.0
 40
3.0
 40
3.0
 40
3.0
 40
4.0
 40
4.0
 40
4.0
 40
4.0
 10
12.41054257076156
 20
33.33881349694921
 30
0.0
 10
12.98908953110005
 20
33.33881349694921
 30
0.0
 10
13.46180496015789
 20
32.8696252024552
 30
0.0
 10
13.46180496015789
 20
32.28755245327437
 30
0.0
 10
13.46180496015789
 20
31.70547970409353
 30
0.0
 10
12.99261666566357
 20
31.23629140959952
 30
0.0
 10
12.41054257076156
 20
31.23629140959952
 30
0.0
 10
11.82846847585987
 20
31.23629140959952
 30
0.0
 10
11.35928018136555
 20
31.70547970409353
 30
0.0
 10
11.35928018136555
 20
32.28755245327437
 30
0.0
 10
11.35928018136555
 20
32.8696252024552
 30
0.0
 10
11.82846847585987
 20
33.33881349694921
 30
0.0
 10
12.41054257076156
 20
33.33881349694921
 30
0.0
  0
SPLINE
  5
A5
330
70
100
AcDbEntity
  8
PCB holes
 62
     5
420
      255
370
     9
100
AcDbSpline
210
0.0
220
0.0
230
1.0
 70
     9
 71
     3
 72
    17
 73
    13
 74
     0
 42
0.0000000001
 43
0.0000000001
 40
0.0
 40
0.0
 40
0.0
 40
0.0
 40
1.0
 40
1.0
 40
1.0
 40
2.0
 40
2.0
 40
2.0
 40
3.0
 40
3.0
 40
3.0
 40
4.0
 40
4.0
 40
4.0
 40
4.0
 10
12.41054257076156
 20
112.7691073883313
 30
0.0
 10
12.98908953110005
 20
112.7691073883313
 30
0.0
 10
13.46180496015789
 20
112.2999197666972
 30
0.0
 10
13.46180496015789
 20
111.7178449989353
 30
0.0
 10
13.46180496015789
 20
111.135770231173
 30
0.0
 10
12.99261666566357
 20
110.666582609539
 30
0.0
 10
12.41054257076156
 20
110.666582609539
 30
0.0
 10
11.82846847585987
 20
110.666582609539
 30
0.0
 10
11.35928018136555
 20
111.135770231173
 30
0.0
 10
11.35928018136555
 20
111.7178449989353
 30
0.0
 10
11.35928018136555
 20
112.2999197666972
 30
0.0
 10
11.82846847585987
 20
112.7691073883313
 30
0.0
 10
12.41054257076156
 20
112.7691073883313
 30
0.0
  0
SPLINE
  5
A6
330
70
100
AcDbEntity
  8
PCB holes
 62
     5
420
      255
370
     9
100
AcDbSpline
210
0.0
220
0.0
230
1.0
 70
    11
 71
     3
 72
    20
 73
    16
 74
     0
 42
0.0000000001
 43
0.0000000001
 40
0.0
 40
0.0
 40
0.0
 40
0.0
 40
1.0
 40
1.0
 40
1.0
 40
2.0
 40
2.0
 40
2.0
 40
3.0
 40
3.0
 40
3.0
 40
4.0
 40
4.0
 40
4.0
 40
5.0
 40
5.0
 40
5.0
 40
5.0
 10
31.55904525503189
 20
60.11426223405887
 30
0.0
 10
31.55904525503189
 20
60.11426223405887
 30
0.0
 10
31.55904525503189
 20
46.91350964039883
 30
0.0
 10
31.55904525503189
 20
46.91350964039883
 30
0.0
 10
31.55904525503189
 20
46.91350964039883
 30
0.0
 10
17.96318361275941
 20
46.91350964039883
 30
0.0
 10
17.96318361275941
 20
46.91350964039883
 30
0.0
 10
17.96318361275941
 20
46.91350964039883
 30
0.0
 10
17.96318361275941
 20
60.11426223405887
 30
0.0
 10
17.96318361275941
 20
60.11426223405887
 30
0.0
 10
17.96318361275941
 20
60.11426223405887
 30
0.0
 10
31.56257104387456
 20
60.11426223405887
 30
0.0
 10
31.56257104387456
 20
60.11426223405887
 30
0.0
 10
31.56257104387456
 20
60.11426223405887
 30
0.0
 10
31.55904525503189
 20
60.11426223405887
 30
0.0
 10
31.55904525503189
 20
60.11426223405887
 30
0.0
  0
SPLINE
  5
A7
330
70
100
AcDbEntity
  8
PCB holes
 62
     5
420
      255
370
     9
100
AcDbSpline
210
0.0
220
0.0
230
1.0
 70
    11
 71
     3
 72
    20
 73
    16
 74
     0
 42
0.0000000001
 43
0.0000000001
 40
0.0
 40
0.0
 40
0.0
 40
0.0
 40
1.0
 40
1.0
 40
1.0
 40
2.0
 40
2.0
 40
2.0
 40
3.0
 40
3.0
 40
3.0
 40
4.0
 40
4.0
 40
4.0
 40
5.0
 40
5.0
 40
5.0
 40
5.0
 10
12.44582199072319
 20
72.51421936396699
 30
0.0
 10
12.44582199072319
 20
72.51421936396699
 30
0.0
 10
12.44582199072319
 20
87.33067142338626
 30
0.0
 10
12.44582199072319
 20
87.33067142338626
 30
0.0
 10
12.44582199072319
 20
87.33067142338626
 30
0.0
 10
38.83674173719047
 20
87.33067142338626
 30
0.0
 10
38.83674173719047
 20
87.33067142338626
 30
0.0
 10
38.83674173719047
 20
87.33067142338626
 30
0.0
 10
38.83674173719047
 20
72.51421936396699
 30
0.0
 10
38.83674173719047
 20
72.51421936396699
 30
0.0
 10
38.83674173719047
 20
72.51421936396699
 30
0.0
 10
12.44934777956619
 20
72.51421936396699
 30
0.0
 10
12.44934777956619
 20
72.51421936396699
 30
0.0
 10
12.44934777956619
 20
72.51421936396699
 30
0.0
 10
12.44582199072319
 20
72.51421936396699
 30
0.0
 10
12.44582199072319
 20
72.51421936396699
 30
0.0
  0
SPLINE
  5
A8
330
70
100
AcDbEntity
  8
PCB holes
 62
     5
420
      255
370
     9
100
AcDbSpline
210
0.0
220
0.0
230
1.0
 70
     9
 71
     3
 72
    17
 73
    13
 74
     0
 42
0.0000000001
 43
0.0000000001
 40
0.0
 40
0.0
 40
0.0
 40
0.0
 40
1.0
 40
1.0
 40
1.0
 40
2.0
 40
2.0
 40
2.0
 40
3.0
 40
3.0
 40
3.0
 40
4.0
 40
4.0
 40
4.0
 40
4.0
 10
43.1723208423259
 20
64.6403308286057
 30
0.0
 10
43.1723208423259
 20
64.6403308286057
 30
0.0
 10
57.17033772801212
 20
64.6403308286057
 30
0.0
 10
57.17033772801212
 20
64.6403308286057
 30
0.0
 10
57.17033772801212
 20
64.6403308286057
 30
0.0
 10
57.17033772801212
 20
50.63878277119309
 30
0.0
 10
57.17033772801212
 20
50.63878277119309
 30
0.0
 10
57.17033772801212
 20
50.63878277119309
 30
0.0
 10
43.1723181508842
 20
50.63878277119309
 30
0.0
 10
43.1723181508842
 20
50.63878277119309
 30
0.0
 10
43.1723181508842
 20
50.63878277119309
 30
0.0
 10
43.1723181508842
 20
64.6403308286057
 30
0.0
 10
43.1723208423259
 20
64.6403308286057
 30
0.0
  0
SPLINE
  5
A9
330
70
100
AcDbEntity
  8
PCB holes
 62
     5
420
      255
370
     9
100
AcDbSpline
210
0.0
220
0.0
230
1.0
 70
     9
 71
     3
 72
    17
 73
    13
 74
     0
 42
0.0000000001
 43
0.0000000001
 40
0.0
 40
0.0
 40
0.0
 40
0.0
 40
1.0
 40
1.0
 40
1.0
 40
2.0
 40
2.0
 40
2.0
 40
3.0
 40
3.0
 40
3.0
 40
4.0
 40
4.0
 40
4.0
 40
4.0
 10
43.1723208423259
 20
83.73944286321796
 30
0.0
 10
43.1723208423259
 20
83.73944286321796
 30
0.0
 10
57.17033772801212
 20
83.73944286321796
 30
0.0
 10
57.17033772801212
 20
83.73944286321796
 30
0.0
 10
57.17033772801212
 20
83.73944286321796
 30
0.0
 10
57.17033772801212
 20
69.73789480580535
 30
0.0
 10
57.17033772801212
 20
69.73789480580535
 30
0.0
 10
57.17033772801212
 20
69.73789480580535
 30
0.0
 10
43.1723181508842
 20
69.73789480580535
 30
0.0
 10
43.1723181508842
 20
69.73789480580535
 30
0.0
 10
43.1723181508842
 20
69.73789480580535
 30
0.0
 10
43.1723181508842
 20
83.73944286321796
 30
0.0
 10
43.1723208423259
 20
83.73944286321796
 30
0.0
  0
SPLINE
  5
AA
330
70
100
AcDbEntity
  8
PCB holes
 62
     5
420
      255
370
     9
100
AcDbSpline
210
0.0
220
0.0
230
1.0
 70
     9
 71
     3
 72
    17
 73
    13
 74
     0
 42
0.0000000001
 43
0.0000000001
 40
0.0
 40
0.0
 40
0.0
 40
0.0
 40
1.0
 40
1.0
 40
1.0
 40
2.0
 40
2.0
 40
2.0
 40
3.0
 40
3.0
 40
3.0
 40
4.0
 40
4.0
 40
4.0
 40
4.0
 10
43.20054330171846
 20
102.838556243551
 30
0.0
 10
43.20054330171846
 20
102.838556243551
 30
0.0
 10
57.1985655702884
 20
102.838556243551
 30
0.0
 10
57.1985655702884
 20
102.838556243551
 30
0.0
 10
57.1985655702884
 20
102.838556243551
 30
0.0
 10
57.1985655702884
 20
88.83700953185931
 30
0.0
 10
57.1985655702884
 20
88.83700953185931
 30
0.0
 10
57.1985655702884
 20
88.83700953185931
 30
0.0
 10
43.20054599316049
 20
88.83700953185931
 30
0.0
 10
43.20054599316049
 20
88.83700953185931
 30
0.0
 10
43.20054599316049
 20
88.83700953185931
 30
0.0
 10
43.20054599316049
 20
102.838556243551
 30
0.0
 10
43.20054330171846
 20
102.838556243551
 30
0.0
  0
SPLINE
  5
AB
330
70
100
AcDbEntity
  8
PCB holes
 62
     5
420
      255
370
     9
100
AcDbSpline
210
0.0
220
0.0
230
1.0
 70
    11
 71
     3
 72
    17
 73
    13
 74
     0
 42
0.0000000001
 43
0.0000000001
 40
0.0
 40
0.0
 40
0.0
 40
0.0
 40
1.0
 40
1.0
 40
1.0
 40
2.0
 40
2.0
 40
2.0
 40
3.0
 40
3.0
 40
3.0
 40
4.0
 40
4.0
 40
4.0
 40
4.0
 10
62.19382245932955
 20
86.71684504308647
 30
0.0
 10
62.19382245932955
 20
86.71684504308647
 30
0.0
 10
76.19537051674216
 20
86.71684504308647
 30
0.0
 10
76.19537051674216
 20
86.71684504308647
 30
0.0
 10
76.19537051674216
 20
86.71684504308647
 30
0.0
 10
76.19537051674216
 20
72.71529698567386
 30
0.0
 10
76.19537051674216
 20
72.71529698567386
 30
0.0
 10
76.19537051674216
 20
72.71529698567386
 30
0.0
 10
62.19382245932955
 20
72.71529698567386
 30
0.0
 10
62.19382245932955
 20
72.71529698567386
 30
0.0
 10
62.19382245932955
 20
72.71529698567386
 30
0.0
 10
62.19382245932955
 20
86.71684504308647
 30
0.0
 10
62.19382245932955
 20
86.71684504308647
 30
0.0
  0
SPLINE
  5
AC
330
70
100
AcDbEntity
  8
PCB holes
 62
     5
420
      255
370
     9
100
AcDbSpline
210
0.0
220
0.0
230
1.0
 70
    11
 71
     3
 72
    17
 73
    13
 74
     0
 42
0.0000000001
 43
0.0000000001
 40
0.0
 40
0.0
 40
0.0
 40
0.0
 40
1.0
 40
1.0
 40
1.0
 40
2.0
 40
2.0
 40
2.0
 40
3.0
 40
3.0
 40
3.0
 40
4.0
 40
4.0
 40
4.0
 40
4.0
 10
62.19382245932955
 20
105.8018471937234
 30
0.0
 10
62.19382245932955
 20
105.8018471937234
 30
0.0
 10
76.19537051674216
 20
105.8018471937234
 30
0.0
 10
76.19537051674216
 20
105.8018471937234
 30
0.0
 10
76.19537051674216
 20
105.8018471937234
 30
0.0
 10
76.19537051674216
 20
91.80382627087437
 30
0.0
 10
76.19537051674216
 20
91.80382627087437
 30
0.0
 10
76.19537051674216
 20
91.80382627087437
 30
0.0
 10
62.19382245932955
 20
91.80382627087437
 30
0.0
 10
62.19382245932955
 20
91.80382627087437
 30
0.0
 10
62.19382245932955
 20
91.80382627087437
 30
0.0
 10
62.19382245932955
 20
105.8018471937234
 30
0.0
 10
62.19382245932955
 20
105.8018471937234
 30
0.0
  0
SPLINE
  5
AD
330
70
100
AcDbEntity
  8
PCB holes
 62
     5
420
      255
370
     9
100
AcDbSpline
210
0.0
220
0.0
230
1.0
 70
     9
 71
     3
 72
    17
 73
    13
 74
     0
 42
0.0000000001
 43
0.0000000001
 40
0.0
 40
0.0
 40
0.0
 40
0.0
 40
1.0
 40
1.0
 40
1.0
 40
2.0
 40
2.0
 40
2.0
 40
3.0
 40
3.0
 40
3.0
 40
4.0
 40
4.0
 40
4.0
 40
4.0
 10
74.47383817398208
 20
112.730302179527
 30
0.0
 10
75.05238513432025
 20
112.730302179527
 30
0.0
 10
75.52509921765724
 20
112.2611145578929
 30
0.0
 10
75.52509921765724
 20
111.6790397901307
 30
0.0
 10
75.52509921765724
 20
111.0969650223687
 30
0.0
 10
75.05591092316291
 20
110.6277774007347
 30
0.0
 10
74.47383817398208
 20
110.6277774007347
 30
0.0
 10
73.89176542480125
 20
110.6277774007347
 30
0.0
 10
73.42257713030692
 20
111.0969650223687
 30
0.0
 10
73.42257713030692
 20
111.6790397901307
 30
0.0
 10
73.42257713030692
 20
112.2611145578929
 30
0.0
 10
73.89176542480125
 20
112.730302179527
 30
0.0
 10
74.47383817398208
 20
112.730302179527
 30
0.0
  0
SPLINE
  5
AE
330
70
100
AcDbEntity
  8
PCB holes
 62
     5
420
      255
370
     9
100
AcDbSpline
210
0.0
220
0.0
230
1.0
 70
    11
 71
     3
 72
    17
 73
    13
 74
     0
 42
0.0000000001
 43
0.0000000001
 40
0.0
 40
0.0
 40
0.0
 40
0.0
 40
1.0
 40
1.0
 40
1.0
 40
2.0
 40
2.0
 40
2.0
 40
3.0
 40
3.0
 40
3.0
 40
4.0
 40
4.0
 40
4.0
 40
4.0
 10
81.21532407633321
 20
114.8010777007932
 30
0.0
 10
81.21532407633321
 20
114.8010777007932
 30
0.0
 10
95.21687213374582
 20
114.8010777007932
 30
0.0
 10
95.21687213374582
 20
114.8010777007932
 30
0.0
 10
95.21687213374582
 20
114.8010777007932
 30
0.0
 10
95.21687213374582
 20
100.7995306526712
 30
0.0
 10
95.21687213374582
 20
100.7995306526712
 30
0.0
 10
95.21687213374582
 20
100.7995306526712
 30
0.0
 10
81.21532407633321
 20
100.7995306526712
 30
0.0
 10
81.21532407633321
 20
100.7995306526712
 30
0.0
 10
81.21532407633321
 20
100.7995306526712
 30
0.0
 10
81.21532407633321
 20
114.8010777007932
 30
0.0
 10
81.21532407633321
 20
114.8010777007932
 30
0.0
  0
SPLINE
  5
AF
330
70
100
AcDbEntity
  8
PCB holes
 62
     5
420
      255
370
     9
100
AcDbSpline
210
0.0
220
0.0
230
1.0
 70
    11
 71
     3
 72
   128
 73
   124
 74
     0
 42
0.0000000001
 43
0.0000000001
 40
0.0
 40
0.0
 40
0.0
 40
0.0
 40
1.0
 40
1.0
 40
1.0
 40
2.0
 40
2.0
 40
2.0
 40
3.0
 40
3.0
 40
3.0
 40
4.0
 40
4.0
 40
4.0
 40
5.0
 40
5.0
 40
5.0
 40
6.0
 40
6.0
 40
6.0
 40
7.0
 40
7.0
 40
7.0
 40
8.0
 40
8.0
 40
8.0
 40
9.0
 40
9.0
 40
9.0
 40
10.0
 40
10.0
 40
10.0
 40
11.0
 40
11.0
 40
11.0
 40
12.0
 40
12.0
 40
12.0
 40
13.0
 40
13.0
 40
13.0
 40
14.0
 40
14.0
 40
14.0
 40
15.0
 40
15.0
 40
15.0
 40
16.0
 40
16.0
 40
16.0
 40
17.0
 40
17.0
 40
17.0
 40
18.0
 40
18.0
 40
18.0
 40
19.0
 40
19.0
 40
19.0
 40
20.0
 40
20.0
 40
20.0
 40
21.0
 40
21.0
 40
21.0
 40
22.0
 40
22.0
 40
22.0
 40
23.0
 40
23.0
 40
23.0
 40
24.0
 40
24.0
 40
24.0
 40
25.0
 40
25.0
 40
25.0
 40
26.0
 40
26.0
 40
26.0
 40
27.0
 40
27.0
 40
27.0
 40
28.0
 40
28.0
 40
28.0
 40
29.0
 40
29.0
 40
29.0
 40
30.0
 40
30.0
 40
30.0
 40
31.0
 40
31.0
 40
31.0
 40
32.0
 40
32.0
 40
32.0
 40
33.0
 40
33.0
 40
33.0
 40
34.0
 40
34.0
 40
34.0
 40
35.0
 40
35.0
 40
35.0
 40
36.0
 40
36.0
 40
36.0
 40
37.0
 40
37.0
 40
37.0
 40
38.0
 40
38.0
 40
38.0
 40
39.0
 40
39.0
 40
39.0
 40
40.0
 40
40.0
 40
40.0
 40
41.0
 40
41.0
 40
41.0
 40
41.0
 10
159.4885253927595
 20
74.35921891082533
 30
0.0
 10
159.4885253927595
 20
74.35921891082533
 30
0.0
 10
141.4830053994694
 20
77.53417292355803
 30
0.0
 10
141.4830053994694
 20
77.53417292355803
 30
0.0
 10
141.4830053994694
 20
77.53417292355803
 30
0.0
 10
143.8077759902338
 20
90.72434276780665
 30
0.0
 10
143.8077759902338
 20
90.72434276780665
 30
0.0
 10
143.8748036584306
 20
91.1053378952806
 30
0.0
 10
143.6208069067813
 20
91.46869331277377
 30
0.0
 10
143.2398171621911
 20
91.53572098097063
 30
0.0
 10
143.2398171621911
 20
91.53572098097063
 30
0.0
 10
139.4369282309042
 20
92.20598958861385
 30
0.0
 10
139.4369282309042
 20
92.20598958861385
 30
0.0
 10
139.4369282309042
 20
92.20598958861385
 30
0.0
 10
139.4369282309042
 20
113.6228169355726
 30
0.0
 10
139.4369282309042
 20
113.6228169355726
 30
0.0
 10
139.4369282309042
 20
114.0108670050342
 30
0.0
 10
139.1229553887433
 20
114.3213069933175
 30
0.0
 10
138.7384344724267
 20
114.3213069933175
 30
0.0
 10
138.7384344724267
 20
114.3213069933175
 30
0.0
 10
98.73048489342178
 20
114.3213069933175
 30
0.0
 10
98.73048489342178
 20
114.3213069933175
 30
0.0
 10
98.73048489342178
 20
114.3213069933175
 30
0.0
 10
98.73048489342178
 20
117.5703432798044
 30
0.0
 10
98.73048489342178
 20
117.5703432798044
 30
0.0
 10
98.73048489342178
 20
117.9583932231047
 30
0.0
 10
98.41651205126094
 20
118.2688331693343
 30
0.0
 10
98.03199113494429
 20
118.2688331693343
 30
0.0
 10
98.03199113494429
 20
118.2688331693343
 30
0.0
 10
78.4072458870526
 20
118.2688331693343
 30
0.0
 10
78.4072458870526
 20
118.2688331693343
 30
0.0
 10
78.01919379900955
 20
118.2688331693343
 30
0.0
 10
77.70875751145884
 20
117.9548654997881
 30
0.0
 10
77.70875751145884
 20
117.5703432798044
 30
0.0
 10
77.70875751145884
 20
117.5703432798044
 30
0.0
 10
77.70875751145884
 20
114.3213069933175
 30
0.0
 10
77.70875751145884
 20
114.3213069933175
 30
0.0
 10
77.70875751145884
 20
114.3213069933175
 30
0.0
 10
10.5020424902702
 20
114.3213069933175
 30
0.0
 10
10.5020424902702
 20
114.3213069933175
 30
0.0
 10
10.1139924208086
 20
114.3213069933175
 30
0.0
 10
9.803552768955603
 20
114.0073391976101
 30
0.0
 10
9.803552768955603
 20
113.6228172720025
 30
0.0
 10
9.803552768955603
 20
113.6228172720025
 30
0.0
 10
9.803552768955603
 20
24.67119184128879
 30
0.0
 10
9.803552768955603
 20
24.67119184128879
 30
0.0
 10
9.803552768955603
 20
24.67119184128879
 30
0.0
 10
8.498293627909953
 20
23.36240825712164
 30
0.0
 10
8.498293627909953
 20
23.36240825712164
 30
0.0
 10
8.498293627909953
 20
23.36240825712164
 30
0.0
 10
8.328962908717468
 20
23.19307350076628
 30
0.0
 10
8.328962908717468
 20
23.19307350076628
 30
0.0
 10
8.328962908717468
 20
23.19307350076628
 30
0.0
 10
0.2539963311115281
 20
15.11810196081439
 30
0.0
 10
0.2539963311115281
 20
15.11810196081439
 30
0.0
 10
-0.0176386165824436
 20
14.84647088206799
 30
0.0
 10
-0.0176386165824436
 20
14.40197387523983
 30
0.0
 10
0.2539963311115281
 20
14.12681162476703
 30
0.0
 10
0.2539963311115281
 20
14.12681162476703
 30
0.0
 10
14.12854643323727
 20
0.2522673260628043
 30
0.0
 10
14.12854643323727
 20
0.2522673260628043
 30
0.0
 10
14.40018154914654
 20
-0.0193637526835974
 30
0.0
 10
14.84467451881183
 20
-0.0193637526835974
 30
0.0
 10
15.11983811500549
 20
0.2522673260628043
 30
0.0
 10
15.11983811500549
 20
0.2522673260628043
 30
0.0
 10
23.87565697484945
 20
9.008087531627621
 30
0.0
 10
23.87565697484945
 20
9.008087531627621
 30
0.0
 10
27.85493224017708
 20
12.70514896879709
 30
0.0
 10
32.20461988356692
 20
15.99651322505898
 30
0.0
 10
36.61427823458456
 20
18.54706349096387
 30
0.0
 10
42.15280804688597
 20
21.74671417424646
 30
0.0
 10
48.10055544605392
 20
24.23728834963983
 30
0.0
 10
53.75197509592556
 20
25.75068611012397
 30
0.0
 10
59.91138824909585
 20
27.40165961296078
 30
0.0
 10
66.25776510283485
 20
28.26242578434083
 30
0.0
 10
72.13848483380593
 20
28.28359128316431
 30
0.0
 10
72.13848483380593
 20
28.28359128316431
 30
0.0
 10
81.94909187188825
 20
28.28359128316431
 30
0.0
 10
81.94909187188825
 20
28.28359128316431
 30
0.0
 10
82.33714395993194
 20
28.28359128316431
 30
0.0
 10
82.64758024748232
 20
28.59755874244174
 30
0.0
 10
82.64758024748232
 20
28.98207965875774
 30
0.0
 10
82.64758024748232
 20
28.98207965875774
 30
0.0
 10
82.64758024748232
 20
42.03819416661295
 30
0.0
 10
82.64758024748232
 20
42.03819416661295
 30
0.0
 10
82.64758024748232
 20
42.03819416661295
 30
0.0
 10
98.62817780526327
 20
42.03819416661295
 30
0.0
 10
98.62817780526327
 20
42.03819416661295
 30
0.0
 10
98.62817780526327
 20
42.03819416661295
 30
0.0
 10
113.7197921151553
 20
40.97987616236872
 30
0.0
 10
113.7197921151553
 20
40.97987616236872
 30
0.0
 10
113.7197921151553
 20
40.97987616236872
 30
0.0
 10
113.116553867151
 20
37.5509253979867
 30
0.0
 10
113.116553867151
 20
37.5509253979867
 30
0.0
 10
113.0495261989541
 20
37.16993027051305
 30
0.0
 10
113.3035229506035
 20
36.80657485301926
 30
0.0
 10
113.6845126951937
 20
36.73954718482239
 30
0.0
 10
113.6845126951937
 20
36.73954718482239
 30
0.0
 10
132.9529541032776
 20
33.34234466867561
 30
0.0
 10
132.9529541032776
 20
33.34234466867561
 30
0.0
 10
133.3339438478678
 20
33.27531700047874
 30
0.0
 10
133.697299265361
 20
33.52931375212869
 30
0.0
 10
133.7643269335578
 20
33.91030887960235
 30
0.0
 10
133.7643269335578
 20
33.91030887960235
 30
0.0
 10
134.5051516896823
 20
38.11183264834405
 30
0.0
 10
134.5051516896823
 20
38.11183264834405
 30
0.0
 10
134.5051516896823
 20
38.11183264834405
 30
0.0
 10
152.5424199312077
 20
34.92982167504196
 30
0.0
 10
152.5424199312077
 20
34.92982167504196
 30
0.0
 10
152.9234096757979
 20
34.86279400684509
 30
0.0
 10
153.2867650932911
 20
35.11679075849505
 30
0.0
 10
153.3537927614879
 20
35.4977858859687
 30
0.0
 10
153.3537927614879
 20
35.4977858859687
 30
0.0
 10
160.0635250327201
 20
73.54431760026068
 30
0.0
 10
160.0635250327201
 20
73.54431760026068
 30
0.0
 10
160.1305527009169
 20
73.92531272773434
 30
0.0
 10
159.8765559492676
 20
74.28866814522748
 30
0.0
 10
159.4955662046774
 20
74.35569581342436
 30
0.0
 10
159.4955662046774
 20
74.35569581342436
 30
0.0
 10
159.4955662046774
 20
74.35569581342436
 30
0.0
 10
159.4955662046774
 20
74.35569581342436
 30
0.0
 10
159.4955662046774
 20
74.35569581342436
 30
0.0
 10
159.4885253927595
 20
74.35921891082533
 30
0.0
 10
159.4885253927595
 20
74.35921891082533
 30
0.0
  0
ENDSEC
  0
SECTION
  2
OBJECTS
  0
DICTIONARY
  5
C
330
0
100
AcDbDictionary
281
     1
  3
ACAD_COLOR
350
63
  3
ACAD_DETAILVIEWSTYLE
350
6A
  3
ACAD_GROUP
350
D
  3
ACAD_LAYOUT
350
62
  3
ACAD_MATERIAL
350
10
  3
ACAD_MLEADERSTYLE
350
66
  3
ACAD_MLINESTYLE
350
5F
  3
ACAD_PLOTSETTINGS
350
61
  3
ACAD_PLOTSTYLENAME
350
E
  3
ACAD_SCALELIST
350
42
  3
ACAD_SECTIONVIEWSTYLE
350
68
  3
ACAD_TABLESTYLE
350
64
  3
ACAD_VISUALSTYLE
350
29
  3
ACDB_RECOMPOSE_DATA
350
B8
  3
AcDbVariableDictionary
350
B0
  0
DICTIONARY
  5
63
102
{ACAD_REACTORS
330
C
102
}
330
C
100
AcDbDictionary
281
     1
  0
DICTIONARY
  5
6A
102
{ACAD_REACTORS
330
C
102
}
330
C
100
AcDbDictionary
281
     1
  3
Imperial24
350
6B
  0
DICTIONARY
  5
D
102
{ACAD_REACTORS
330
C
102
}
330
C
100
AcDbDictionary
281
     1
  0
DICTIONARY
  5
62
102
{ACAD_REACTORS
330
C
102
}
330
C
100
AcDbDictionary
281
     1
  3
Layout1
350
6F
  3
Layout2
350
77
  3
Model
350
73
  0
DICTIONARY
  5
10
102
{ACAD_REACTORS
330
C
102
}
330
C
100
AcDbDictionary
281
     1
  3
ByBlock
350
19
  3
ByLayer
350
11
  3
Global
350
21
  0
DICTIONARY
  5
66
102
{ACAD_REACTORS
330
C
102
}
330
C
100
AcDbDictionary
281
     1
  3
Standard
350
67
  0
DICTIONARY
  5
5F
102
{ACAD_REACTORS
330
C
102
}
330
C
100
AcDbDictionary
281
     1
  3
Standard
350
60
  0
DICTIONARY
  5
61
102
{ACAD_REACTORS
330
C
102
}
330
C
100
AcDbDictionary
281
     1
  0
ACDBDICTIONARYWDFLT
  5
E
102
{ACAD_REACTORS
330
C
102
}
330
C
100
AcDbDictionary
281
     1
  3
Normal
350
F
100
AcDbDictionaryWithDefault
340
F
  0
DICTIONARY
  5
42
102
{ACAD_REACTORS
330
C
102
}
330
C
100
AcDbDictionary
281
     1
  3
A0
350
43
  3
A1
350
44
  3
A2
350
45
  3
A3
350
46
  3
A4
350
47
  3
A5
350
48
  3
A6
350
49
  3
A7
350
4A
  3
A8
350
4B
  3
A9
350
4C
  3
B0
350
4D
  3
B1
350
4E
  3
B2
350
4F
  3
B3
350
50
  3
B4
350
51
  3
B5
350
52
  3
B6
350
53
  0
DICTIONARY
  5
68
102
{ACAD_REACTORS
330
C
102
}
330
C
100
AcDbDictionary
281
     1
  3
Imperial24
350
69
  0
DICTIONARY
  5
64
102
{ACAD_REACTORS
330
C
102
}
330
C
100
AcDbDictionary
281
     1
  3
Standard
350
65
  0
DICTIONARY
  5
29
102
{ACAD_REACTORS
330
C
102
}
330
C
100
AcDbDictionary
281
     1
  3
2dWireframe
350
2F
  3
Basic
350
2E
  3
Brighten
350
35
  3
ColorChange
350
39
  3
Conceptual
350
32
  3
Dim
350
34
  3
EdgeColorOff
350
41
  3
Facepattern
350
38
  3
Flat
350
2A
  3
FlatWithEdges
350
2B
  3
Gouraud
350
2C
  3
GouraudWithEdges
350
2D
  3
Hidden
350
31
  3
JitterOff
350
3F
  3
Linepattern
350
37
  3
OverhangOff
350
40
  3
Realistic
350
33
  3
Shaded
350
3E
  3
Shaded with edges
350
3D
  3
Shades of Gray
350
3A
  3
Sketchy
350
3B
  3
Thicken
350
36
  3
Wireframe
350
30
  3
X-Ray
350
3C
  0
XRECORD
  5
B8
102
{ACAD_REACTORS
330
C
102
}
330
C
100
AcDbXrecord
280
     1
 90
        1
330
65
  0
DICTIONARY
  5
B0
102
{ACAD_REACTORS
330
C
102
}
330
C
100
AcDbDictionary
281
     1
  3
CANNOSCALE
350
B5
  3
CMLEADERSTYLE
350
B2
  3
CTABLESTYLE
350
B1
  3
CVIEWDETAILSTYLE
350
B3
  3
CVIEWSECTIONSTYLE
350
B4
  0
ACDBDETAILVIEWSTYLE
  5
6B
102
{ACAD_REACTORS
330
6A
102
}
330
6A
100
AcDbModelDocViewStyle
 70
     0
  3
Imperial24
290
     1
300
Imperial24
 90
        0
100
AcDbDetailViewStyle
 70
     0
 71
     0
 90
        3
 71
     1
340
55
 62
   256
 40
0.24
340
0
 62
   256
 40
0.24
300

 40
0.36
280
     3
 71
     2
340
5D
 90
       25
 62
   256
 71
     3
340
55
 62
   256
 40
0.24
 90
        1
 40
0.75
 90
        1
300
%<\AcVar ViewType \f "%tc1">% %<\AcVar ViewDetailId>%\PSCALE %<\AcVar ViewScale \f "%sn">%
 71
     4
340
5D
 90
       25
 62
   256
340
5D
 90
       25
 62
   256
280
     0
  0
LAYOUT
  5
6F
102
{ACAD_REACTORS
330
62
102
}
330
62
100
AcDbPlotSettings
  1

  2

  4

  6

 40
0.0
 41
0.0
 42
0.0
 43
0.0
 44
0.0
 45
0.0
 46
0.0
 47
0.0
 48
0.0
 49
0.0
140
0.0
141
0.0
142
1.0
143
1.0
 70
   688
 72
     0
 73
     0
 74
     5
  7

 75
    16
147
1.0
 76
     0
 77
     2
 78
   300
148
0.0
149
0.0
100
AcDbLayout
  1
Layout1
 70
     1
 71
     1
 10
0.0
 20
0.0
 11
12.0
 21
9.0
 12
0.0
 22
0.0
 32
0.0
 14
0.0
 24
0.0
 34
0.0
 15
0.0
 25
0.0
 35
0.0
146
0.0
 13
0.0
 23
0.0
 33
0.0
 16
1.0
 26
0.0
 36
0.0
 17
0.0
 27
1.0
 37
0.0
 76
     0
330
6C
  0
LAYOUT
  5
77
102
{ACAD_REACTORS
330
62
102
}
330
62
100
AcDbPlotSettings
  1

  2

  4

  6

 40
0.0
 41
0.0
 42
0.0
 43
0.0
 44
0.0
 45
0.0
 46
0.0
 47
0.0
 48
0.0
 49
0.0
140
0.0
141
0.0
142
1.0
143
1.0
 70
   688
 72
     0
 73
     0
 74
     5
  7

 75
    16
147
1.0
 76
     0
 77
     2
 78
   300
148
0.0
149
0.0
100
AcDbLayout
  1
Layout2
 70
     1
 71
     2
 10
0.0
 20
0.0
 11
12.0
 21
9.0
 12
0.0
 22
0.0
 32
0.0
 14
0.0
 24
0.0
 34
0.0
 15
0.0
 25
0.0
 35
0.0
146
0.0
 13
0.0
 23
0.0
 33
0.0
 16
1.0
 26
0.0
 36
0.0
 17
0.0
 27
1.0
 37
0.0
 76
     0
330
74
  0
LAYOUT
  5
73
102
{ACAD_REACTORS
330
62
102
}
330
62
100
AcDbPlotSettings
  1

  2

  4

  6

 40
0.0
 41
0.0
 42
0.0
 43
0.0
 44
0.0
 45
0.0
 46
0.0
 47
0.0
 48
0.0
 49
0.0
140
0.0
141
0.0
142
1.0
143
1.0
 70
  1712
 72
     0
 73
     0
 74
     0
  7

 75
     0
147
1.0
 76
     0
 77
     2
 78
   300
148
0.0
149
0.0
100
AcDbLayout
  1
Model
 70
     1
 71
     0
 10
0.0
 20
0.0
 11
12.0
 21
9.0
 12
0.0
 22
0.0
 32
0.0
 14
0.0
 24
0.0
 34
0.0
 15
0.0
 25
0.0
 35
0.0
146
0.0
 13
0.0
 23
0.0
 33
0.0
 16
1.0
 26
0.0
 36
0.0
 17
0.0
 27
1.0
 37
0.0
 76
     0
330
70
  0
MATERIAL
  5
19
102
{ACAD_XDICTIONARY
360
1A
102
}
102
{ACAD_REACTORS
330
10
102
}
330
10
100
AcDbMaterial
  1
ByBlock
 72
     0
 43
0.0208333333333333
 43
0.0
 43
0.0
 43
0.0
 43
0.0
 43
0.0208333333333333
 43
0.0
 43
0.0
 43
0.0
 43
0.0
 43
1.0
 43
0.0
 43
0.0
 43
0.0
 43
0.0
 43
1.0
 77
     0
 47
0.0208333333333333
 47
0.0
 47
0.0
 47
0.0
 47
0.0
 47
0.0208333333333333
 47
0.0
 47
0.0
 47
0.0
 47
0.0
 47
1.0
 47
0.0
 47
0.0
 47
0.0
 47
0.0
 47
1.0
171
     0
 49
0.0208333333333333
 49
0.0
 49
0.0
 49
0.0
 49
0.0
 49
0.0208333333333333
 49
0.0
 49
0.0
 49
0.0
 49
0.0
 49
1.0
 49
0.0
 49
0.0
 49
0.0
 49
0.0
 49
1.0
175
     0
142
0.0208333333333333
142
0.0
142
0.0
142
0.0
142
0.0
142
0.0208333333333333
142
0.0
142
0.0
142
0.0
142
0.0
142
1.0
142
0.0
142
0.0
142
0.0
142
0.0
142
1.0
179
     0
144
0.0208333333333333
144
0.0
144
0.0
144
0.0
144
0.0
144
0.0208333333333333
144
0.0
144
0.0
144
0.0
144
0.0
144
1.0
144
0.0
144
0.0
144
0.0
144
0.0
144
1.0
147
0.0208333333333333
147
0.0
147
0.0
147
0.0
147
0.0
147
0.0208333333333333
147
0.0
147
0.0
147
0.0
147
0.0
147
1.0
147
0.0
147
0.0
147
0.0
147
0.0
147
1.0
  0
MATERIAL
  5
11
102
{ACAD_XDICTIONARY
360
12
102
}
102
{ACAD_REACTORS
330
10
102
}
330
10
100
AcDbMaterial
  1
ByLayer
 72
     0
 43
0.0208333333333333
 43
0.0
 43
0.0
 43
0.0
 43
0.0
 43
0.0208333333333333
 43
0.0
 43
0.0
 43
0.0
 43
0.0
 43
1.0
 43
0.0
 43
0.0
 43
0.0
 43
0.0
 43
1.0
 77
     0
 47
0.0208333333333333
 47
0.0
 47
0.0
 47
0.0
 47
0.0
 47
0.0208333333333333
 47
0.0
 47
0.0
 47
0.0
 47
0.0
 47
1.0
 47
0.0
 47
0.0
 47
0.0
 47
0.0
 47
1.0
171
     0
 49
0.0208333333333333
 49
0.0
 49
0.0
 49
0.0
 49
0.0
 49
0.0208333333333333
 49
0.0
 49
0.0
 49
0.0
 49
0.0
 49
1.0
 49
0.0
 49
0.0
 49
0.0
 49
0.0
 49
1.0
175
     0
142
0.0208333333333333
142
0.0
142
0.0
142
0.0
142
0.0
142
0.0208333333333333
142
0.0
142
0.0
142
0.0
142
0.0
142
1.0
142
0.0
142
0.0
142
0.0
142
0.0
142
1.0
179
     0
144
0.0208333333333333
144
0.0
144
0.0
144
0.0
144
0.0
144
0.0208333333333333
144
0.0
144
0.0
144
0.0
144
0.0
144
1.0
144
0.0
144
0.0
144
0.0
144
0.0
144
1.0
147
0.0208333333333333
147
0.0
147
0.0
147
0.0
147
0.0
147
0.0208333333333333
147
0.0
147
0.0
147
0.0
147
0.0
147
1.0
147
0.0
147
0.0
147
0.0
147
0.0
147
1.0
  0
MATERIAL
  5
21
102
{ACAD_XDICTIONARY
360
22
102
}
102
{ACAD_REACTORS
330
10
102
}
330
10
100
AcDbMaterial
  1
Global
 72
     0
 43
0.0208333333333333
 43
0.0
 43
0.0
 43
0.0
 43
0.0
 43
0.0208333333333333
 43
0.0
 43
0.0
 43
0.0
 43
0.0
 43
1.0
 43
0.0
 43
0.0
 43
0.0
 43
0.0
 43
1.0
 77
     0
 47
0.0208333333333333
 47
0.0
 47
0.0
 47
0.0
 47
0.0
 47
0.0208333333333333
 47
0.0
 47
0.0
 47
0.0
 47
0.0
 47
1.0
 47
0.0
 47
0.0
 47
0.0
 47
0.0
 47
1.0
171
     0
 49
0.0208333333333333
 49
0.0
 49
0.0
 49
0.0
 49
0.0
 49
0.0208333333333333
 49
0.0
 49
0.0
 49
0.0
 49
0.0
 49
1.0
 49
0.0
 49
0.0
 49
0.0
 49
0.0
 49
1.0
175
     0
142
0.0208333333333333
142
0.0
142
0.0
142
0.0
142
0.0
142
0.0208333333333333
142
0.0
142
0.0
142
0.0
142
0.0
142
1.0
142
0.0
142
0.0
142
0.0
142
0.0
142
1.0
179
     0
144
0.0208333333333333
144
0.0
144
0.0
144
0.0
144
0.0
144
0.0208333333333333
144
0.0
144
0.0
144
0.0
144
0.0
144
1.0
144
0.0
144
0.0
144
0.0
144
0.0
144
1.0
147
0.0208333333333333
147
0.0
147
0.0
147
0.0
147
0.0
147
0.0208333333333333
147
0.0
147
0.0
147
0.0
147
0.0
147
1.0
147
0.0
147
0.0
147
0.0
147
0.0
147
1.0
  0
MLEADERSTYLE
  5
67
102
{ACAD_REACTORS
330
66
102
}
330
66
100
AcDbMLeaderStyle
179
     2
170
     2
171
     1
172
     0
 90
        2
 40
0.0
 41
0.0
173
     1
 91
-1056964608
340
5B
 92
       -2
290
     1
 42
0.09
291
     1
 43
0.36
  3
Standard
 44
0.18
300

342
55
174
     1
178
     6
175
     1
176
     0
 93
-1056964608
 45
0.18
292
     0
297
     0
 46
0.18
 94
-1056964608
 47
1.0
 49
1.0
140
1.0
293
     1
141
0.0
294
     1
177
     0
142
1.0
295
     1
296
     0
143
0.125
271
     0
272
     9
273
     9
298
     1
  0
MLINESTYLE
  5
60
102
{ACAD_REACTORS
330
5F
102
}
330
5F
100
AcDbMlineStyle
  2
STANDARD
 70
     0
  3

 62
   256
 51
90.0
 52
90.0
 71
     2
 49
0.5
 62
   256
  6
BYLAYER
 49
-0.5
 62
   256
  6
BYLAYER
  0
ACDBPLACEHOLDER
  5
F
102
{ACAD_REACTORS
330
E
102
}
330
E
  0
SCALE
  5
43
102
{ACAD_REACTORS
330
42
102
}
330
42
100
AcDbScale
 70
     0
300
1:1
140
1.0
141
1.0
290
     1
  0
SCALE
  5
44
102
{ACAD_REACTORS
330
42
102
}
330
42
100
AcDbScale
 70
     0
300
1/128" = 1'-0"
140
0.0078125
141
12.0
290
     0
  0
SCALE
  5
45
102
{ACAD_REACTORS
330
42
102
}
330
42
100
AcDbScale
 70
     0
300
1/64" = 1'-0"
140
0.015625
141
12.0
290
     0
  0
SCALE
  5
46
102
{ACAD_REACTORS
330
42
102
}
330
42
100
AcDbScale
 70
     0
300
1/32" = 1'-0"
140
0.03125
141
12.0
290
     0
  0
SCALE
  5
47
102
{ACAD_REACTORS
330
42
102
}
330
42
100
AcDbScale
 70
     0
300
1/16" = 1'-0"
140
0.0625
141
12.0
290
     0
  0
SCALE
  5
48
102
{ACAD_REACTORS
330
42
102
}
330
42
100
AcDbScale
 70
     0
300
3/32" = 1'-0"
140
0.09375
141
12.0
290
     0
  0
SCALE
  5
49
102
{ACAD_REACTORS
330
42
102
}
330
42
100
AcDbScale
 70
     0
300
1/8" = 1'-0"
140
0.125
141
12.0
290
     0
  0
SCALE
  5
4A
102
{ACAD_REACTORS
330
42
102
}
330
42
100
AcDbScale
 70
     0
300
3/16" = 1'-0"
140
0.1875
141
12.0
290
     0
  0
SCALE
  5
4B
102
{ACAD_REACTORS
330
42
102
}
330
42
100
AcDbScale
 70
     0
300
1/4" = 1'-0"
140
0.25
141
12.0
290
     0
  0
SCALE
  5
4C
102
{ACAD_REACTORS
330
42
102
}
330
42
100
AcDbScale
 70
     0
300
3/8" = 1'-0"
140
0.375
141
12.0
290
     0
  0
SCALE
  5
4D
102
{ACAD_REACTORS
330
42
102
}
330
42
100
AcDbScale
 70
     0
300
1/2" = 1'-0"
140
0.5
141
12.0
290
     0
  0
SCALE
  5
4E
102
{ACAD_REACTORS
330
42
102
}
330
42
100
AcDbScale
 70
     0
300
3/4" = 1'-0"
140
0.75
141
12.0
290
     0
  0
SCALE
  5
4F
102
{ACAD_REACTORS
330
42
102
}
330
42
100
AcDbScale
 70
     0
300
1" = 1'-0"
140
1.0
141
12.0
290
     0
  0
SCALE
  5
50
102
{ACAD_REACTORS
330
42
102
}
330
42
100
AcDbScale
 70
     0
300
1-1/2" = 1'-0"
140
1.5
141
12.0
290
     0
  0
SCALE
  5
51
102
{ACAD_REACTORS
330
42
102
}
330
42
100
AcDbScale
 70
     0
300
3" = 1'-0"
140
3.0
141
12.0
290
     0
  0
SCALE
  5
52
102
{ACAD_REACTORS
330
42
102
}
330
42
100
AcDbScale
 70
     0
300
6" = 1'-0"
140
6.0
141
12.0
290
     0
  0
SCALE
  5
53
102
{ACAD_REACTORS
330
42
102
}
330
42
100
AcDbScale
 70
     0
300
1'-0" = 1'-0"
140
12.0
141
12.0
290
     0
  0
ACDBSECTIONVIEWSTYLE
  5
69
102
{ACAD_REACTORS
330
68
102
}
330
68
100
AcDbModelDocViewStyle
 70
     0
  3
Imperial24
290
     1
300
Imperial24
 90
        0
100
AcDbSectionViewStyle
 70
     0
 71
     0
 90
       78
 71
     1
340
55
 62
   256
 40
0.24
340
0
340
0
 62
   256
 40
0.24
300
I, O, Q, S, X, Z
 40
0.48
 90
        3
 40
0.18
 90
        1
 71
     2
340
5D
 90
       25
 62
   256
340
5D
 90
       50
 62
   256
 40
0.24
 40
0.0
 40
0.24
 71
     3
340
55
 62
   256
 40
0.24
 90
        1
 40
0.75
 90
        1
300
%<\AcVar ViewType \f "%tc1">% %<\AcVar ViewSectionStartId>%-%<\AcVar ViewSectionEndId>%\PSCALE %<\AcVar ViewScale \f "%sn">%
 71
     4
 62
   256
 62
   257
300
ANSI31
 40
1.0
 90
        0
290
     0
290
     0
 90
        6
 40
0.0
 40
1.570796326794896
 40
0.2617993877991494
 40
1.308996938995747
 40
-0.2617993877991494
 40
1.832595714594046
  0
TABLESTYLE
  5
65
102
{ACAD_XDICTIONARY
360
B6
102
}
102
{ACAD_REACTORS
330
64
102
}
330
64
100
AcDbTableStyle
280
     0
  3
Standard
 70
     0
 71
     0
 40
0.06
 41
0.06
280
     0
281
     0
  7
Standard
140
0.18
170
     2
 62
     0
 63
     7
283
     0
 90
      512
 91
        0
  1

274
    -2
284
     1
 64
     0
275
    -2
285
     1
 65
     0
276
    -2
286
     1
 66
     0
277
    -2
287
     1
 67
     0
278
    -2
288
     1
 68
     0
279
    -2
289
     1
 69
     0
  7
Standard
140
0.25
170
     5
 62
     0
 63
     7
283
     0
 90
      512
 91
        0
  1

274
    -2
284
     1
 64
     0
275
    -2
285
     1
 65
     0
276
    -2
286
     1
 66
     0
277
    -2
287
     1
 67
     0
278
    -2
288
     1
 68
     0
279
    -2
289
     1
 69
     0
  7
Standard
140
0.18
170
     5
 62
     0
 63
     7
283
     0
 90
      512
 91
        0
  1

274
    -2
284
     1
 64
     0
275
    -2
285
     1
 65
     0
276
    -2
286
     1
 66
     0
277
    -2
287
     1
 67
     0
278
    -2
288
     1
 68
     0
279
    -2
289
     1
 69
     0
  0
VISUALSTYLE
  5
2F
102
{ACAD_REACTORS
330
29
102
}
330
29
100
AcDbVisualStyle
  2
2dWireframe
 70
     4
177
     3
291
     0
 70
    58
 90
        0
176
     1
 90
        2
176
     1
 90
        0
176
     1
 90
        0
176
     1
 40
0.6
176
     1
 40
30.0
176
     1
 62
     7
420
 16777215
176
     1
 90
        1
176
     1
 90
        4
176
     1
 62
     7
176
     1
 62
   257
176
     1
 90
        1
176
     1
 90
        1
176
     1
 40
1.0
176
     1
 90
        0
176
     1
 62
   257
176
     1
 40
1.0
176
     1
 90
        1
176
     1
 90
        6
176
     1
 90
        2
176
     1
 62
     7
176
     1
 90
        5
176
     1
 90
        0
176
     1
 90
        0
176
     1
290
     0
176
     1
 90
        1
176
     1
 40
0.0
176
     1
 90
        0
176
     1
290
     1
176
     1
290
     1
176
     1
290
     0
176
     1
290
     0
176
     1
290
     0
176
     1
290
     0
176
     1
290
     0
176
     1
290
     0
176
     1
290
     0
176
     1
 90
       50
176
     1
 40
0.0
176
     1
 40
1.0
176
     1
 90
        0
176
     1
 62
    18
420
        0
176
     1
 90
       50
176
     1
 90
        3
176
     1
 62
     5
420
      255
176
     1
290
     0
176
     1
 90
       50
176
     1
 90
       50
176
     1
 90
       50
176
     1
290
     0
176
     1
 90
       50
176
     1
 62
   256
176
     0
 40
1.0
176
     0
 90
        2
176
     1
  1
strokes_ogs.tif
176
     1
290
     0
176
     1
 40
1.0
176
     1
 40
1.0
176
     1
  0
VISUALSTYLE
  5
2E
102
{ACAD_REACTORS
330
29
102
}
330
29
100
AcDbVisualStyle
  2
Basic
 70
     7
177
     3
291
     1
 70
    58
 90
        1
176
     1
 90
        0
176
     1
 90
        1
176
     1
 90
        0
176
     1
 40
0.6
176
     1
 40
30.0
176
     1
 62
     7
420
 16777215
176
     1
 90
        0
176
     1
 90
        4
176
     1
 62
     7
176
     1
 62
   257
176
     1
 90
        1
176
     1
 90
        1
176
     1
 40
1.0
176
     1
 90
        8
176
     1
 62
     7
176
     1
 40
1.0
176
     1
 90
        1
176
     1
 90
        6
176
     1
 90
        2
176
     1
 62
     7
176
     1
 90
        5
176
     1
 90
        0
176
     1
 90
        0
176
     1
290
     0
176
     1
 90
        1
176
     1
 40
0.0
176
     1
 90
        0
176
     1
290
     0
176
     1
290
     1
176
     1
290
     1
176
     1
290
     0
176
     1
290
     0
176
     1
290
     0
176
     1
290
     0
176
     1
290
     0
176
     1
290
     0
176
     1
 90
       50
176
     1
 40
0.0
176
     1
 40
1.0
176
     1
 90
        0
176
     1
 62
    18
420
        0
176
     1
 90
       50
176
     1
 90
        3
176
     1
 62
     5
420
      255
176
     1
290
     0
176
     1
 90
       50
176
     1
 90
       50
176
     1
 90
       50
176
     1
290
     0
176
     1
 90
       50
176
     1
 62
   256
176
     0
 40
1.0
176
     0
 90
        2
176
     1
  1
strokes_ogs.tif
176
     1
290
     0
176
     1
 40
1.0
176
     1
 40
1.0
176
     1
  0
VISUALSTYLE
  5
35
102
{ACAD_REACTORS
330
29
102
}
330
29
100
AcDbVisualStyle
  2
Brighten
 70
    12
177
     3
291
     1
 70
    58
 90
        2
176
     1
 90
        2
176
     1
 90
        0
176
     1
 90
        0
176
     1
 40
0.6
176
     1
 40
30.0
176
     1
 62
     7
420
 16777215
176
     1
 90
        1
176
     1
 90
        4
176
     1
 62
     7
176
     1
 62
   257
176
     1
 90
        1
176
     1
 90
        1
176
     1
 40
1.0
176
     1
 90
        8
176
     1
 62
     7
176
     1
 40
1.0
176
     1
 90
        1
176
     1
 90
        6
176
     1
 90
        2
176
     1
 62
     7
176
     1
 90
        5
176
     1
 90
        0
176
     1
 90
        0
176
     1
290
     0
176
     1
 90
        1
176
     1
 40
50.0
176
     1
 90
        0
176
     1
290
     0
176
     1
290
     1
176
     1
290
     1
176
     1
290
     0
176
     1
290
     0
176
     1
290
     0
176
     1
290
     0
176
     1
290
     0
176
     1
290
     0
176
     1
 90
       50
176
     1
 40
0.0
176
     1
 40
1.0
176
     1
 90
        0
176
     1
 62
    18
420
        0
176
     1
 90
       50
176
     1
 90
        3
176
     1
 62
     5
420
      255
176
     1
290
     0
176
     1
 90
       50
176
     1
 90
       50
176
     1
 90
       50
176
     1
290
     0
176
     1
 90
       50
176
     1
 62
   256
176
     0
 40
1.0
176
     0
 90
        2
176
     1
  1
strokes_ogs.tif
176
     1
290
     0
176
     1
 40
1.0
176
     1
 40
1.0
176
     1
  0
VISUALSTYLE
  5
39
102
{ACAD_REACTORS
330
29
102
}
330
29
100
AcDbVisualStyle
  2
ColorChange
 70
    16
177
     3
291
     1
 70
    58
 90
        2
176
     1
 90
        2
176
     1
 90
        3
176
     1
 90
        0
176
     1
 40
0.6
176
     1
 40
30.0
176
     1
 62
     8
420
  8421504
176
     1
 90
        1
176
     1
 90
        4
176
     1
 62
     7
176
     1
 62
   257
176
     1
 90
        1
176
     1
 90
        1
176
     1
 40
1.0
176
     1
 90
        8
176
     1
 62
     8
420
  8421504
176
     1
 40
1.0
176
     1
 90
        1
176
     1
 90
        6
176
     1
 90
        2
176
     1
 62
     7
176
     1
 90
        5
176
     1
 90
        0
176
     1
 90
        0
176
     1
290
     0
176
     1
 90
        1
176
     1
 40
0.0
176
     1
 90
        0
176
     1
290
     0
176
     1
290
     1
176
     1
290
     1
176
     1
290
     0
176
     1
290
     0
176
     1
290
     0
176
     1
290
     0
176
     1
290
     0
176
     1
290
     0
176
     1
 90
       50
176
     1
 40
0.0
176
     1
 40
1.0
176
     1
 90
        0
176
     1
 62
    18
420
        0
176
     1
 90
       50
176
     1
 90
        3
176
     1
 62
     5
420
      255
176
     1
290
     0
176
     1
 90
       50
176
     1
 90
       50
176
     1
 90
       50
176
     1
290
     0
176
     1
 90
       50
176
     1
 62
   256
176
     0
 40
1.0
176
     0
 90
        2
176
     1
  1
strokes_ogs.tif
176
     1
290
     0
176
     1
 40
1.0
176
     1
 40
1.0
176
     1
  0
VISUALSTYLE
  5
32
102
{ACAD_REACTORS
330
29
102
}
330
29
100
AcDbVisualStyle
  2
Conceptual
 70
     9
177
     3
291
     0
 70
    58
 90
        3
176
     1
 90
        2
176
     1
 90
        0
176
     1
 90
        0
176
     1
 40
0.6
176
     1
 40
30.0
176
     1
 62
     7
420
 16777215
176
     1
 90
        2
176
     1
 90
        2
176
     1
 62
     7
176
     1
 62
   257
176
     1
 90
        1
176
     1
 90
        1
176
     1
 40
179.0
176
     1
 90
        8
176
     1
 62
     7
176
     1
 40
1.0
176
     1
 90
        1
176
     1
 90
        6
176
     1
 90
        2
176
     1
 62
     7
176
     1
 90
        3
176
     1
 90
        0
176
     1
 90
        0
176
     1
290
     0
176
     1
 90
        1
176
     1
 40
0.0
176
     1
 90
        0
176
     1
290
     0
176
     1
290
     1
176
     1
290
     1
176
     1
290
     0
176
     1
290
     0
176
     1
290
     0
176
     1
290
     0
176
     1
290
     0
176
     1
290
     0
176
     1
 90
       50
176
     1
 40
0.0
176
     1
 40
1.0
176
     1
 90
        0
176
     1
 62
    18
420
        0
176
     1
 90
       50
176
     1
 90
        3
176
     1
 62
     5
420
      255
176
     1
290
     0
176
     1
 90
       50
176
     1
 90
       50
176
     1
 90
       50
176
     1
290
     0
176
     1
 90
       50
176
     1
 62
   256
176
     0
 40
1.0
176
     0
 90
        2
176
     1
  1
strokes_ogs.tif
176
     1
290
     0
176
     1
 40
1.0
176
     1
 40
1.0
176
     1
  0
VISUALSTYLE
  5
34
102
{ACAD_REACTORS
330
29
102
}
330
29
100
AcDbVisualStyle
  2
Dim
 70
    11
177
     3
291
     1
 70
    58
 90
        2
176
     1
 90
        2
176
     1
 90
        0
176
     1
 90
        0
176
     1
 40
0.6
176
     1
 40
30.0
176
     1
 62
     7
420
 16777215
176
     1
 90
        1
176
     1
 90
        4
176
     1
 62
     7
176
     1
 62
   257
176
     1
 90
        1
176
     1
 90
        1
176
     1
 40
1.0
176
     1
 90
        8
176
     1
 62
     7
176
     1
 40
1.0
176
     1
 90
        1
176
     1
 90
        6
176
     1
 90
        2
176
     1
 62
     7
176
     1
 90
        5
176
     1
 90
        0
176
     1
 90
        0
176
     1
290
     0
176
     1
 90
        1
176
     1
 40
-50.0
176
     1
 90
        0
176
     1
290
     0
176
     1
290
     1
176
     1
290
     1
176
     1
290
     0
176
     1
290
     0
176
     1
290
     0
176
     1
290
     0
176
     1
290
     0
176
     1
290
     0
176
     1
 90
       50
176
     1
 40
0.0
176
     1
 40
1.0
176
     1
 90
        0
176
     1
 62
    18
420
        0
176
     1
 90
       50
176
     1
 90
        3
176
     1
 62
     5
420
      255
176
     1
290
     0
176
     1
 90
       50
176
     1
 90
       50
176
     1
 90
       50
176
     1
290
     0
176
     1
 90
       50
176
     1
 62
   256
176
     0
 40
1.0
176
     0
 90
        2
176
     1
  1
strokes_ogs.tif
176
     1
290
     0
176
     1
 40
1.0
176
     1
 40
1.0
176
     1
  0
VISUALSTYLE
  5
41
102
{ACAD_REACTORS
330
29
102
}
330
29
100
AcDbVisualStyle
  2
EdgeColorOff
 70
    22
177
     3
291
     1
 70
    58
 90
        2
176
     0
 90
        2
176
     0
 90
        0
176
     0
 90
        0
176
     0
 40
0.6
176
     0
 40
30.0
176
     0
 62
     7
420
 16777215
176
     0
 90
        1
176
     0
 90
        4
176
     0
 62
     7
176
     0
 62
   257
176
     0
 90
        1
176
     0
 90
        1
176
     0
 40
1.0
176
     0
 90
        8
176
     2
 62
     7
176
     0
 40
1.0
176
     0
 90
        1
176
     0
 90
        6
176
     0
 90
        2
176
     0
 62
     7
176
     0
 90
        5
176
     0
 90
        0
176
     0
 90
        0
176
     0
290
     0
176
     0
 90
        1
176
     0
 40
0.0
176
     0
 90
        0
176
     0
290
     0
176
     0
290
     1
176
     0
290
     1
176
     0
290
     0
176
     0
290
     0
176
     0
290
     0
176
     0
290
     0
176
     0
290
     0
176
     0
290
     0
176
     0
 90
       50
176
     0
 40
0.0
176
     0
 40
1.0
176
     0
 90
        0
176
     0
 62
    18
420
        0
176
     0
 90
       50
176
     0
 90
        3
176
     0
 62
     5
420
      255
176
     0
290
     0
176
     0
 90
       50
176
     0
 90
       50
176
     0
 90
       50
176
     0
290
     0
176
     0
 90
       50
176
     0
 62
   256
176
     0
 40
1.0
176
     0
 90
        2
176
     0
  1
strokes_ogs.tif
176
     0
290
     0
176
     0
 40
1.0
176
     0
 40
1.0
176
     0
  0
VISUALSTYLE
  5
38
102
{ACAD_REACTORS
330
29
102
}
330
29
100
AcDbVisualStyle
  2
Facepattern
 70
    15
177
     3
291
     1
 70
    58
 90
        2
176
     1
 90
        2
176
     1
 90
        0
176
     1
 90
        0
176
     1
 40
0.6
176
     1
 40
30.0
176
     1
 62
     7
420
 16777215
176
     1
 90
        1
176
     1
 90
        4
176
     1
 62
     7
176
     1
 62
   257
176
     1
 90
        1
176
     1
 90
        1
176
     1
 40
1.0
176
     1
 90
        8
176
     1
 62
     7
176
     1
 40
1.0
176
     1
 90
        1
176
     1
 90
        6
176
     1
 90
        2
176
     1
 62
     7
176
     1
 90
        5
176
     1
 90
        0
176
     1
 90
        0
176
     1
290
     0
176
     1
 90
        1
176
     1
 40
0.0
176
     1
 90
        0
176
     1
290
     0
176
     1
290
     1
176
     1
290
     1
176
     1
290
     0
176
     1
290
     0
176
     1
290
     0
176
     1
290
     0
176
     1
290
     0
176
     1
290
     0
176
     1
 90
       50
176
     1
 40
0.0
176
     1
 40
1.0
176
     1
 90
        0
176
     1
 62
    18
420
        0
176
     1
 90
       50
176
     1
 90
        3
176
     1
 62
     5
420
      255
176
     1
290
     0
176
     1
 90
       50
176
     1
 90
       50
176
     1
 90
       50
176
     1
290
     0
176
     1
 90
       50
176
     1
 62
   256
176
     0
 40
1.0
176
     0
 90
        2
176
     1
  1
strokes_ogs.tif
176
     1
290
     0
176
     1
 40
1.0
176
     1
 40
1.0
176
     1
  0
VISUALSTYLE
  5
2A
102
{ACAD_REACTORS
330
29
102
}
330
29
100
AcDbVisualStyle
  2
Flat
 70
     0
177
     3
291
     1
 70
    58
 90
        2
176
     1
 90
        1
176
     1
 90
        1
176
     1
 90
        2
176
     1
 40
0.6
176
     1
 40
30.0
176
     1
 62
     7
420
 16777215
176
     1
 90
        0
176
     1
 90
        0
176
     1
 62
     7
176
     1
 62
   257
176
     1
 90
        1
176
     1
 90
        1
176
     1
 40
1.0
176
     1
 90
        8
176
     1
 62
     7
176
     1
 40
1.0
176
     1
 90
        1
176
     1
 90
        6
176
     1
 90
        2
176
     1
 62
     7
176
     1
 90
        5
176
     1
 90
        0
176
     1
 90
        0
176
     1
290
     0
176
     1
 90
       13
176
     1
 40
0.0
176
     1
 90
        0
176
     1
290
     0
176
     1
290
     1
176
     1
290
     1
176
     1
290
     0
176
     1
290
     0
176
     1
290
     0
176
     1
290
     0
176
     1
290
     0
176
     1
290
     0
176
     1
 90
       50
176
     1
 40
0.0
176
     1
 40
1.0
176
     1
 90
        0
176
     1
 62
    18
420
        0
176
     1
 90
       50
176
     1
 90
        3
176
     1
 62
     5
420
      255
176
     1
290
     0
176
     1
 90
       50
176
     1
 90
       50
176
     1
 90
       50
176
     1
290
     0
176
     1
 90
       50
176
     1
 62
   256
176
     0
 40
1.0
176
     0
 90
        2
176
     1
  1
strokes_ogs.tif
176
     1
290
     0
176
     1
 40
1.0
176
     1
 40
1.0
176
     1
  0
VISUALSTYLE
  5
2B
102
{ACAD_REACTORS
330
29
102
}
330
29
100
AcDbVisualStyle
  2
FlatWithEdges
 70
     1
177
     3
291
     1
 70
    58
 90
        2
176
     1
 90
        1
176
     1
 90
        1
176
     1
 90
        2
176
     1
 40
0.6
176
     1
 40
30.0
176
     1
 62
     7
420
 16777215
176
     1
 90
        1
176
     1
 90
        0
176
     1
 62
     7
176
     1
 62
   257
176
     1
 90
        1
176
     1
 90
        1
176
     1
 40
1.0
176
     1
 90
        0
176
     1
 62
   257
176
     1
 40
1.0
176
     1
 90
        1
176
     1
 90
        6
176
     1
 90
        2
176
     1
 62
     7
176
     1
 90
        5
176
     1
 90
        0
176
     1
 90
        0
176
     1
290
     0
176
     1
 90
       13
176
     1
 40
0.0
176
     1
 90
        0
176
     1
290
     0
176
     1
290
     1
176
     1
290
     1
176
     1
290
     0
176
     1
290
     0
176
     1
290
     0
176
     1
290
     0
176
     1
290
     0
176
     1
290
     0
176
     1
 90
       50
176
     1
 40
0.0
176
     1
 40
1.0
176
     1
 90
        0
176
     1
 62
    18
420
        0
176
     1
 90
       50
176
     1
 90
        3
176
     1
 62
     5
420
      255
176
     1
290
     0
176
     1
 90
       50
176
     1
 90
       50
176
     1
 90
       50
176
     1
290
     0
176
     1
 90
       50
176
     1
 62
   256
176
     0
 40
1.0
176
     0
 90
        2
176
     1
  1
strokes_ogs.tif
176
     1
290
     0
176
     1
 40
1.0
176
     1
 40
1.0
176
     1
  0
VISUALSTYLE
  5
2C
102
{ACAD_REACTORS
330
29
102
}
330
29
100
AcDbVisualStyle
  2
Gouraud
 70
     2
177
     3
291
     1
 70
    58
 90
        2
176
     1
 90
        2
176
     1
 90
        1
176
     1
 90
        2
176
     1
 40
0.6
176
     1
 40
30.0
176
     1
 62
     7
420
 16777215
176
     1
 90
        0
176
     1
 90
        0
176
     1
 62
     7
176
     1
 62
   257
176
     1
 90
        1
176
     1
 90
        1
176
     1
 40
1.0
176
     1
 90
        0
176
     1
 62
     7
176
     1
 40
1.0
176
     1
 90
        1
176
     1
 90
        6
176
     1
 90
        2
176
     1
 62
     7
176
     1
 90
        5
176
     1
 90
        0
176
     1
 90
        0
176
     1
290
     0
176
     1
 90
       13
176
     1
 40
0.0
176
     1
 90
        0
176
     1
290
     0
176
     1
290
     1
176
     1
290
     1
176
     1
290
     0
176
     1
290
     0
176
     1
290
     0
176
     1
290
     0
176
     1
290
     0
176
     1
290
     0
176
     1
 90
       50
176
     1
 40
0.0
176
     1
 40
1.0
176
     1
 90
        0
176
     1
 62
    18
420
        0
176
     1
 90
       50
176
     1
 90
        3
176
     1
 62
     5
420
      255
176
     1
290
     0
176
     1
 90
       50
176
     1
 90
       50
176
     1
 90
       50
176
     1
290
     0
176
     1
 90
       50
176
     1
 62
   256
176
     0
 40
1.0
176
     0
 90
        2
176
     1
  1
strokes_ogs.tif
176
     1
290
     0
176
     1
 40
1.0
176
     1
 40
1.0
176
     1
  0
VISUALSTYLE
  5
2D
102
{ACAD_REACTORS
330
29
102
}
330
29
100
AcDbVisualStyle
  2
GouraudWithEdges
 70
     3
177
     3
291
     1
 70
    58
 90
        2
176
     1
 90
        2
176
     1
 90
        1
176
     1
 90
        2
176
     1
 40
0.6
176
     1
 40
30.0
176
     1
 62
     7
420
 16777215
176
     1
 90
        1
176
     1
 90
        0
176
     1
 62
     7
176
     1
 62
   257
176
     1
 90
        1
176
     1
 90
        1
176
     1
 40
1.0
176
     1
 90
        0
176
     1
 62
   257
176
     1
 40
1.0
176
     1
 90
        1
176
     1
 90
        6
176
     1
 90
        2
176
     1
 62
     7
176
     1
 90
        5
176
     1
 90
        0
176
     1
 90
        0
176
     1
290
     0
176
     1
 90
       13
176
     1
 40
0.0
176
     1
 90
        0
176
     1
290
     0
176
     1
290
     1
176
     1
290
     1
176
     1
290
     0
176
     1
290
     0
176
     1
290
     0
176
     1
290
     0
176
     1
290
     0
176
     1
290
     0
176
     1
 90
       50
176
     1
 40
0.0
176
     1
 40
1.0
176
     1
 90
        0
176
     1
 62
    18
420
        0
176
     1
 90
       50
176
     1
 90
        3
176
     1
 62
     5
420
      255
176
     1
290
     0
176
     1
 90
       50
176
     1
 90
       50
176
     1
 90
       50
176
     1
290
     0
176
     1
 90
       50
176
     1
 62
   256
176
     0
 40
1.0
176
     0
 90
        2
176
     1
  1
strokes_ogs.tif
176
     1
290
     0
176
     1
 40
1.0
176
     1
 40
1.0
176
     1
  0
VISUALSTYLE
  5
31
102
{ACAD_REACTORS
330
29
102
}
330
29
100
AcDbVisualStyle
  2
Hidden
 70
     6
177
     3
291
     0
 70
    58
 90
        1
176
     1
 90
        2
176
     1
 90
        2
176
     1
 90
        0
176
     1
 40
0.6
176
     1
 40
30.0
176
     1
 62
     7
420
 16777215
176
     1
 90
        2
176
     1
 90
        2
176
     1
 62
     7
176
     1
 62
   257
176
     1
 90
        2
176
     1
 90
        1
176
     1
 40
40.0
176
     1
 90
        0
176
     1
 62
   257
176
     1
 40
1.0
176
     1
 90
        1
176
     1
 90
        6
176
     1
 90
        2
176
     1
 62
     7
176
     1
 90
        3
176
     1
 90
        0
176
     1
 90
        0
176
     1
290
     0
176
     1
 90
        1
176
     1
 40
0.0
176
     1
 90
        0
176
     1
290
     0
176
     1
290
     1
176
     1
290
     1
176
     1
290
     0
176
     1
290
     0
176
     1
290
     0
176
     1
290
     0
176
     1
290
     0
176
     1
290
     0
176
     1
 90
       50
176
     1
 40
0.0
176
     1
 40
1.0
176
     1
 90
        0
176
     1
 62
    18
420
        0
176
     1
 90
       50
176
     1
 90
        3
176
     1
 62
     5
420
      255
176
     1
290
     0
176
     1
 90
       50
176
     1
 90
       50
176
     1
 90
       50
176
     1
290
     0
176
     1
 90
       50
176
     1
 62
   256
176
     0
 40
1.0
176
     0
 90
        2
176
     1
  1
strokes_ogs.tif
176
     1
290
     0
176
     1
 40
1.0
176
     1
 40
1.0
176
     1
  0
VISUALSTYLE
  5
3F
102
{ACAD_REACTORS
330
29
102
}
330
29
100
AcDbVisualStyle
  2
JitterOff
 70
    20
177
     3
291
     1
 70
    58
 90
        2
176
     0
 90
        2
176
     0
 90
        0
176
     0
 90
        0
176
     0
 40
0.6
176
     0
 40
30.0
176
     0
 62
     7
420
 16777215
176
     0
 90
        1
176
     0
 90
        4
176
     0
 62
     7
176
     0
 62
   257
176
     0
 90
        1
176
     0
 90
        1
176
     0
 40
1.0
176
     0
 90
       10
176
     2
 62
     7
176
     0
 40
1.0
176
     0
 90
        1
176
     0
 90
        6
176
     0
 90
        2
176
     0
 62
     7
176
     0
 90
        5
176
     0
 90
        0
176
     0
 90
        0
176
     0
290
     0
176
     0
 90
        1
176
     0
 40
0.0
176
     0
 90
        0
176
     0
290
     0
176
     0
290
     1
176
     0
290
     1
176
     0
290
     0
176
     0
290
     0
176
     0
290
     0
176
     0
290
     0
176
     0
290
     0
176
     0
290
     0
176
     0
 90
       50
176
     0
 40
0.0
176
     0
 40
1.0
176
     0
 90
        0
176
     0
 62
    18
420
        0
176
     0
 90
       50
176
     0
 90
        3
176
     0
 62
     5
420
      255
176
     0
290
     0
176
     0
 90
       50
176
     0
 90
       50
176
     0
 90
       50
176
     0
290
     0
176
     0
 90
       50
176
     0
 62
   256
176
     0
 40
1.0
176
     0
 90
        2
176
     0
  1
strokes_ogs.tif
176
     0
290
     0
176
     0
 40
1.0
176
     0
 40
1.0
176
     0
  0
VISUALSTYLE
  5
37
102
{ACAD_REACTORS
330
29
102
}
330
29
100
AcDbVisualStyle
  2
Linepattern
 70
    14
177
     3
291
     1
 70
    58
 90
        2
176
     1
 90
        2
176
     1
 90
        0
176
     1
 90
        0
176
     1
 40
0.6
176
     1
 40
30.0
176
     1
 62
     7
420
 16777215
176
     1
 90
        1
176
     1
 90
        4
176
     1
 62
     7
176
     1
 62
   257
176
     1
 90
        7
176
     1
 90
        7
176
     1
 40
1.0
176
     1
 90
        8
176
     1
 62
     7
176
     1
 40
1.0
176
     1
 90
        1
176
     1
 90
        6
176
     1
 90
        2
176
     1
 62
     7
176
     1
 90
        5
176
     1
 90
        0
176
     1
 90
        0
176
     1
290
     0
176
     1
 90
        1
176
     1
 40
0.0
176
     1
 90
        0
176
     1
290
     0
176
     1
290
     1
176
     1
290
     1
176
     1
290
     0
176
     1
290
     0
176
     1
290
     0
176
     1
290
     0
176
     1
290
     0
176
     1
290
     0
176
     1
 90
       50
176
     1
 40
0.0
176
     1
 40
1.0
176
     1
 90
        0
176
     1
 62
    18
420
        0
176
     1
 90
       50
176
     1
 90
        3
176
     1
 62
     5
420
      255
176
     1
290
     0
176
     1
 90
       50
176
     1
 90
       50
176
     1
 90
       50
176
     1
290
     0
176
     1
 90
       50
176
     1
 62
   256
176
     0
 40
1.0
176
     0
 90
        2
176
     1
  1
strokes_ogs.tif
176
     1
290
     0
176
     1
 40
1.0
176
     1
 40
1.0
176
     1
  0
VISUALSTYLE
  5
40
102
{ACAD_REACTORS
330
29
102
}
330
29
100
AcDbVisualStyle
  2
OverhangOff
 70
    21
177
     3
291
     1
 70
    58
 90
        2
176
     0
 90
        2
176
     0
 90
        0
176
     0
 90
        0
176
     0
 40
0.6
176
     0
 40
30.0
176
     0
 62
     7
420
 16777215
176
     0
 90
        1
176
     0
 90
        4
176
     0
 62
     7
176
     0
 62
   257
176
     0
 90
        1
176
     0
 90
        1
176
     0
 40
1.0
176
     0
 90
        9
176
     2
 62
     7
176
     0
 40
1.0
176
     0
 90
        1
176
     0
 90
        6
176
     0
 90
        2
176
     0
 62
     7
176
     0
 90
        5
176
     0
 90
        0
176
     0
 90
        0
176
     0
290
     0
176
     0
 90
        1
176
     0
 40
0.0
176
     0
 90
        0
176
     0
290
     0
176
     0
290
     1
176
     0
290
     1
176
     0
290
     0
176
     0
290
     0
176
     0
290
     0
176
     0
290
     0
176
     0
290
     0
176
     0
290
     0
176
     0
 90
       50
176
     0
 40
0.0
176
     0
 40
1.0
176
     0
 90
        0
176
     0
 62
    18
420
        0
176
     0
 90
       50
176
     0
 90
        3
176
     0
 62
     5
420
      255
176
     0
290
     0
176
     0
 90
       50
176
     0
 90
       50
176
     0
 90
       50
176
     0
290
     0
176
     0
 90
       50
176
     0
 62
   256
176
     0
 40
1.0
176
     0
 90
        2
176
     0
  1
strokes_ogs.tif
176
     0
290
     0
176
     0
 40
1.0
176
     0
 40
1.0
176
     0
  0
VISUALSTYLE
  5
33
102
{ACAD_REACTORS
330
29
102
}
330
29
100
AcDbVisualStyle
  2
Realistic
 70
     8
177
     3
291
     0
 70
    58
 90
        2
176
     1
 90
        3
176
     1
 90
        0
176
     1
 90
        2
176
     1
 40
0.6
176
     1
 40
30.0
176
     1
 62
     7
420
 16777215
176
     1
 90
        0
176
     1
 90
        0
176
     1
 62
     7
176
     1
 62
   257
176
     1
 90
        1
176
     1
 90
        1
176
     1
 40
1.0
176
     1
 90
        8
176
     1
 62
   257
176
     1
 40
1.0
176
     1
 90
        1
176
     1
 90
        6
176
     1
 90
        2
176
     1
 62
     7
176
     1
 90
        3
176
     1
 90
        0
176
     1
 90
        0
176
     1
290
     0
176
     1
 90
       13
176
     1
 40
0.0
176
     1
 90
        0
176
     1
290
     0
176
     1
290
     1
176
     1
290
     1
176
     1
290
     0
176
     1
290
     0
176
     1
290
     0
176
     1
290
     0
176
     1
290
     0
176
     1
290
     0
176
     1
 90
       50
176
     1
 40
0.0
176
     1
 40
1.0
176
     1
 90
        0
176
     1
 62
    18
420
        0
176
     1
 90
       50
176
     1
 90
        3
176
     1
 62
     5
420
      255
176
     1
290
     0
176
     1
 90
       50
176
     1
 90
       50
176
     1
 90
       50
176
     1
290
     0
176
     1
 90
       50
176
     1
 62
   256
176
     0
 40
1.0
176
     0
 90
        2
176
     1
  1
strokes_ogs.tif
176
     1
290
     0
176
     1
 40
1.0
176
     1
 40
1.0
176
     1
  0
VISUALSTYLE
  5
3E
102
{ACAD_REACTORS
330
29
102
}
330
29
100
AcDbVisualStyle
  2
Shaded
 70
    27
177
     3
291
     0
 70
    58
 90
        2
176
     1
 90
        2
176
     1
 90
        1
176
     1
 90
        2
176
     1
 40
0.6
176
     1
 40
30.0
176
     1
 62
     7
420
 16777215
176
     1
 90
        0
176
     1
 90
        4
176
     1
 62
     7
176
     1
 62
   257
176
     1
 90
        1
176
     1
 90
        1
176
     1
 40
1.0
176
     1
 90
        8
176
     1
 62
   257
176
     1
 40
1.0
176
     1
 90
        1
176
     1
 90
        6
176
     1
 90
        2
176
     1
 62
     8
420
  7895160
176
     1
 90
        3
176
     1
 90
        0
176
     1
 90
        0
176
     1
290
     0
176
     1
 90
        5
176
     1
 40
0.0
176
     1
 90
        0
176
     1
290
     0
176
     1
290
     1
176
     1
290
     1
176
     1
290
     0
176
     1
290
     0
176
     1
290
     0
176
     1
290
     0
176
     1
290
     0
176
     1
290
     0
176
     1
 90
       50
176
     1
 40
0.0
176
     1
 40
1.0
176
     1
 90
        0
176
     1
 62
    18
420
        0
176
     1
 90
       50
176
     1
 90
        3
176
     1
 62
     5
420
      255
176
     1
290
     0
176
     1
 90
       50
176
     1
 90
       50
176
     1
 90
       50
176
     1
290
     0
176
     1
 90
       50
176
     1
 62
   256
176
     0
 40
1.0
176
     0
 90
        2
176
     1
  1
strokes_ogs.tif
176
     1
290
     0
176
     1
 40
1.0
176
     1
 40
1.0
176
     1
  0
VISUALSTYLE
  5
3D
102
{ACAD_REACTORS
330
29
102
}
330
29
100
AcDbVisualStyle
  2
Shaded with edges
 70
    26
177
     3
291
     0
 70
    58
 90
        2
176
     1
 90
        2
176
     1
 90
        1
176
     1
 90
        2
176
     1
 40
0.6
176
     1
 40
30.0
176
     1
 62
     7
420
 16777215
176
     1
 90
        1
176
     1
 90
        2
176
     1
 62
     7
176
     1
 62
   257
176
     1
 90
        2
176
     1
 90
        1
176
     1
 40
1.0
176
     1
 90
        8
176
     1
 62
   257
176
     1
 40
1.0
176
     1
 90
        1
176
     1
 90
        6
176
     1
 90
        2
176
     1
 62
     7
176
     1
 90
        3
176
     1
 90
        0
176
     1
 90
        0
176
     1
290
     0
176
     1
 90
        5
176
     1
 40
0.0
176
     1
 90
        0
176
     1
290
     0
176
     1
290
     1
176
     1
290
     1
176
     1
290
     0
176
     1
290
     0
176
     1
290
     0
176
     1
290
     0
176
     1
290
     0
176
     1
290
     0
176
     1
 90
       50
176
     1
 40
0.0
176
     1
 40
1.0
176
     1
 90
        0
176
     1
 62
    18
420
        0
176
     1
 90
       50
176
     1
 90
        3
176
     1
 62
     5
420
      255
176
     1
290
     0
176
     1
 90
       50
176
     1
 90
       50
176
     1
 90
       50
176
     1
290
     0
176
     1
 90
       50
176
     1
 62
   256
176
     0
 40
1.0
176
     0
 90
        2
176
     1
  1
strokes_ogs.tif
176
     1
290
     0
176
     1
 40
1.0
176
     1
 40
1.0
176
     1
  0
VISUALSTYLE
  5
3A
102
{ACAD_REACTORS
330
29
102
}
330
29
100
AcDbVisualStyle
  2
Shades of Gray
 70
    23
177
     3
291
     0
 70
    58
 90
        2
176
     1
 90
        2
176
     1
 90
        3
176
     1
 90
        0
176
     1
 40
0.6
176
     1
 40
30.0
176
     1
 62
     7
420
 16777215
176
     1
 90
        2
176
     1
 90
        2
176
     1
 62
     7
176
     1
 62
     7
176
     1
 90
        1
176
     1
 90
        1
176
     1
 40
40.0
176
     1
 90
        8
176
     1
 62
     7
176
     1
 40
1.0
176
     1
 90
        1
176
     1
 90
        6
176
     1
 90
        2
176
     1
 62
     7
176
     1
 90
        3
176
     1
 90
        0
176
     1
 90
        0
176
     1
290
     0
176
     1
 90
        1
176
     1
 40
0.0
176
     1
 90
        0
176
     1
290
     0
176
     1
290
     1
176
     1
290
     1
176
     1
290
     0
176
     1
290
     0
176
     1
290
     0
176
     1
290
     0
176
     1
290
     0
176
     1
290
     0
176
     1
 90
       50
176
     1
 40
0.0
176
     1
 40
1.0
176
     1
 90
        0
176
     1
 62
    18
420
        0
176
     1
 90
       50
176
     1
 90
        3
176
     1
 62
     5
420
      255
176
     1
290
     0
176
     1
 90
       50
176
     1
 90
       50
176
     1
 90
       50
176
     1
290
     0
176
     1
 90
       50
176
     1
 62
   256
176
     0
 40
1.0
176
     0
 90
        2
176
     1
  1
strokes_ogs.tif
176
     1
290
     0
176
     1
 40
1.0
176
     1
 40
1.0
176
     1
  0
VISUALSTYLE
  5
3B
102
{ACAD_REACTORS
330
29
102
}
330
29
100
AcDbVisualStyle
  2
Sketchy
 70
    24
177
     3
291
     0
 70
    58
 90
        1
176
     1
 90
        2
176
     1
 90
        2
176
     1
 90
        0
176
     1
 40
0.6
176
     1
 40
30.0
176
     1
 62
     7
420
 16777215
176
     1
 90
        2
176
     1
 90
        2
176
     1
 62
     7
176
     1
 62
     7
176
     1
 90
        1
176
     1
 90
        1
176
     1
 40
40.0
176
     1
 90
       11
176
     1
 62
     7
176
     1
 40
1.0
176
     1
 90
        1
176
     1
 90
        6
176
     1
 90
        2
176
     1
 62
     7
176
     1
 90
        6
176
     1
 90
        0
176
     1
 90
        0
176
     1
290
     0
176
     1
 90
        1
176
     1
 40
0.0
176
     1
 90
        0
176
     1
290
     0
176
     1
290
     1
176
     1
290
     1
176
     1
290
     0
176
     1
290
     0
176
     1
290
     0
176
     1
290
     0
176
     1
290
     0
176
     1
290
     0
176
     1
 90
       50
176
     1
 40
0.0
176
     1
 40
1.0
176
     1
 90
        0
176
     1
 62
    18
420
        0
176
     1
 90
       50
176
     1
 90
        3
176
     1
 62
     5
420
      255
176
     1
290
     0
176
     1
 90
       50
176
     1
 90
       50
176
     1
 90
       50
176
     1
290
     0
176
     1
 90
       50
176
     1
 62
   256
176
     0
 40
1.0
176
     0
 90
        2
176
     1
  1
strokes_ogs.tif
176
     1
290
     0
176
     1
 40
1.0
176
     1
 40
1.0
176
     1
  0
VISUALSTYLE
  5
36
102
{ACAD_REACTORS
330
29
102
}
330
29
100
AcDbVisualStyle
  2
Thicken
 70
    13
177
     3
291
     1
 70
    58
 90
        2
176
     1
 90
        2
176
     1
 90
        0
176
     1
 90
        0
176
     1
 40
0.6
176
     1
 40
30.0
176
     1
 62
     7
420
 16777215
176
     1
 90
        1
176
     1
 90
        4
176
     1
 62
     7
176
     1
 62
   257
176
     1
 90
        1
176
     1
 90
        1
176
     1
 40
1.0
176
     1
 90
       12
176
     1
 62
     7
176
     1
 40
1.0
176
     1
 90
        1
176
     1
 90
        6
176
     1
 90
        2
176
     1
 62
     7
176
     1
 90
        5
176
     1
 90
        0
176
     1
 90
        0
176
     1
290
     0
176
     1
 90
        1
176
     1
 40
0.0
176
     1
 90
        0
176
     1
290
     0
176
     1
290
     1
176
     1
290
     1
176
     1
290
     0
176
     1
290
     0
176
     1
290
     0
176
     1
290
     0
176
     1
290
     0
176
     1
290
     0
176
     1
 90
       50
176
     1
 40
0.0
176
     1
 40
1.0
176
     1
 90
        0
176
     1
 62
    18
420
        0
176
     1
 90
       50
176
     1
 90
        3
176
     1
 62
     5
420
      255
176
     1
290
     0
176
     1
 90
       50
176
     1
 90
       50
176
     1
 90
       50
176
     1
290
     0
176
     1
 90
       50
176
     1
 62
   256
176
     0
 40
1.0
176
     0
 90
        2
176
     1
  1
strokes_ogs.tif
176
     1
290
     0
176
     1
 40
1.0
176
     1
 40
1.0
176
     1
  0
VISUALSTYLE
  5
30
102
{ACAD_REACTORS
330
29
102
}
330
29
100
AcDbVisualStyle
  2
Wireframe
 70
     5
177
     3
291
     0
 70
    58
 90
        0
176
     1
 90
        2
176
     1
 90
        0
176
     1
 90
        0
176
     1
 40
0.6
176
     1
 40
30.0
176
     1
 62
     7
420
 16777215
176
     1
 90
        1
176
     1
 90
        4
176
     1
 62
     7
176
     1
 62
   257
176
     1
 90
        1
176
     1
 90
        1
176
     1
 40
1.0
176
     1
 90
        0
176
     1
 62
   257
176
     1
 40
1.0
176
     1
 90
        1
176
     1
 90
        6
176
     1
 90
        2
176
     1
 62
     7
176
     1
 90
        3
176
     1
 90
        0
176
     1
 90
        0
176
     1
290
     0
176
     1
 90
        1
176
     1
 40
0.0
176
     1
 90
        0
176
     1
290
     0
176
     1
290
     1
176
     1
290
     1
176
     1
290
     0
176
     1
290
     0
176
     1
290
     0
176
     1
290
     0
176
     1
290
     0
176
     1
290
     0
176
     1
 90
       50
176
     1
 40
0.0
176
     1
 40
1.0
176
     1
 90
        0
176
     1
 62
    18
420
        0
176
     1
 90
       50
176
     1
 90
        3
176
     1
 62
     5
420
      255
176
     1
290
     0
176
     1
 90
       50
176
     1
 90
       50
176
     1
 90
       50
176
     1
290
     0
176
     1
 90
       50
176
     1
 62
   256
176
     0
 40
1.0
176
     0
 90
        2
176
     1
  1
strokes_ogs.tif
176
     1
290
     0
176
     1
 40
1.0
176
     1
 40
1.0
176
     1
  0
VISUALSTYLE
  5
3C
102
{ACAD_REACTORS
330
29
102
}
330
29
100
AcDbVisualStyle
  2
X-Ray
 70
    25
177
     3
291
     0
 70
    58
 90
        2
176
     1
 90
        2
176
     1
 90
        1
176
     1
 90
        1
176
     1
 40
0.5
176
     1
 40
30.0
176
     1
 62
     7
420
 16777215
176
     1
 90
        1
176
     1
 90
        0
176
     1
 62
     7
176
     1
 62
   257
176
     1
 90
        1
176
     1
 90
        1
176
     1
 40
1.0
176
     1
 90
        8
176
     1
 62
     7
176
     1
 40
1.0
176
     1
 90
        1
176
     1
 90
        6
176
     1
 90
        2
176
     1
 62
     7
176
     1
 90
        3
176
     1
 90
        0
176
     1
 90
        0
176
     1
290
     0
176
     1
 90
       13
176
     1
 40
0.0
176
     1
 90
        0
176
     1
290
     0
176
     1
290
     1
176
     1
290
     1
176
     1
290
     0
176
     1
290
     0
176
     1
290
     0
176
     1
290
     0
176
     1
290
     0
176
     1
290
     0
176
     1
 90
       50
176
     1
 40
0.0
176
     1
 40
1.0
176
     1
 90
        0
176
     1
 62
    18
420
        0
176
     1
 90
       50
176
     1
 90
        3
176
     1
 62
     5
420
      255
176
     1
290
     0
176
     1
 90
       50
176
     1
 90
       50
176
     1
 90
       50
176
     1
290
     0
176
     1
 90
       50
176
     1
 62
   256
176
     0
 40
1.0
176
     0
 90
        2
176
     1
  1
strokes_ogs.tif
176
     1
290
     0
176
     1
 40
1.0
176
     1
 40
1.0
176
     1
  0
DICTIONARYVAR
  5
B5
102
{ACAD_REACTORS
330
B0
102
}
330
B0
100
DictionaryVariables
280
     0
  1
1:1
  0
DICTIONARYVAR
  5
B2
102
{ACAD_REACTORS
330
B0
102
}
330
B0
100
DictionaryVariables
280
     0
  1
STANDARD
  0
DICTIONARYVAR
  5
B1
102
{ACAD_REACTORS
330
B0
102
}
330
B0
100
DictionaryVariables
280
     0
  1
STANDARD
  0
DICTIONARYVAR
  5
B3
102
{ACAD_REACTORS
330
B0
102
}
330
B0
100
DictionaryVariables
280
     0
  1
Imperial24
  0
DICTIONARYVAR
  5
B4
102
{ACAD_REACTORS
330
B0
102
}
330
B0
100
DictionaryVariables
280
     0
  1
Imperial24
  0
DICTIONARY
  5
1A
330
19
100
AcDbDictionary
280
     1
281
     1
  3
BUMPTILE
360
1C
  3
DIFFUSETILE
360
1B
  3
OPACITYTILE
360
1F
  3
REFLECTIONTILE
360
1E
  3
REFRACTIONTILE
360
20
  3
SPECULARTILE
360
1D
  0
DICTIONARY
  5
12
330
11
100
AcDbDictionary
280
     1
281
     1
  3
BUMPTILE
360
14
  3
DIFFUSETILE
360
13
  3
OPACITYTILE
360
17
  3
REFLECTIONTILE
360
16
  3
REFRACTIONTILE
360
18
  3
SPECULARTILE
360
15
  0
DICTIONARY
  5
22
330
21
100
AcDbDictionary
280
     1
281
     1
  3
BUMPTILE
360
24
  3
DIFFUSETILE
360
23
  3
OPACITYTILE
360
27
  3
REFLECTIONTILE
360
26
  3
REFRACTIONTILE
360
28
  3
SPECULARTILE
360
25
  0
DICTIONARY
  5
B6
330
65
100
AcDbDictionary
280
     1
281
     1
  3
ACAD_ROUNDTRIP_2008_TABLESTYLE_CELLSTYLEMAP
360
B7
  0
XRECORD
  5
1C
102
{ACAD_REACTORS
330
1A
102
}
330
1A
100
AcDbXrecord
280
     1
270
     1
271
     1
  0
XRECORD
  5
1B
102
{ACAD_REACTORS
330
1A
102
}
330
1A
100
AcDbXrecord
280
     1
270
     1
271
     1
  0
XRECORD
  5
1F
102
{ACAD_REACTORS
330
1A
102
}
330
1A
100
AcDbXrecord
280
     1
270
     1
271
     1
  0
XRECORD
  5
1E
102
{ACAD_REACTORS
330
1A
102
}
330
1A
100
AcDbXrecord
280
     1
270
     1
271
     1
  0
XRECORD
  5
20
102
{ACAD_REACTORS
330
1A
102
}
330
1A
100
AcDbXrecord
280
     1
270
     1
271
     1
  0
XRECORD
  5
1D
102
{ACAD_REACTORS
330
1A
102
}
330
1A
100
AcDbXrecord
280
     1
270
     1
271
     1
  0
XRECORD
  5
14
102
{ACAD_REACTORS
330
12
102
}
330
12
100
AcDbXrecord
280
     1
270
     1
271
     1
  0
XRECORD
  5
13
102
{ACAD_REACTORS
330
12
102
}
330
12
100
AcDbXrecord
280
     1
270
     1
271
     1
  0
XRECORD
  5
17
102
{ACAD_REACTORS
330
12
102
}
330
12
100
AcDbXrecord
280
     1
270
     1
271
     1
  0
XRECORD
  5
16
102
{ACAD_REACTORS
330
12
102
}
330
12
100
AcDbXrecord
280
     1
270
     1
271
     1
  0
XRECORD
  5
18
102
{ACAD_REACTORS
330
12
102
}
330
12
100
AcDbXrecord
280
     1
270
     1
271
     1
  0
XRECORD
  5
15
102
{ACAD_REACTORS
330
12
102
}
330
12
100
AcDbXrecord
280
     1
270
     1
271
     1
  0
XRECORD
  5
24
102
{ACAD_REACTORS
330
22
102
}
330
22
100
AcDbXrecord
280
     1
270
     1
271
     1
  0
XRECORD
  5
23
102
{ACAD_REACTORS
330
22
102
}
330
22
100
AcDbXrecord
280
     1
270
     1
271
     1
  0
XRECORD
  5
27
102
{ACAD_REACTORS
330
22
102
}
330
22
100
AcDbXrecord
280
     1
270
     1
271
     1
  0
XRECORD
  5
26
102
{ACAD_REACTORS
330
22
102
}
330
22
100
AcDbXrecord
280
     1
270
     1
271
     1
  0
XRECORD
  5
28
102
{ACAD_REACTORS
330
22
102
}
330
22
100
AcDbXrecord
280
     1
270
     1
271
     1
  0
XRECORD
  5
25
102
{ACAD_REACTORS
330
22
102
}
330
22
100
AcDbXrecord
280
     1
270
     1
271
     1
  0
CELLSTYLEMAP
  5
B7
102
{ACAD_REACTORS
330
B6
102
}
330
B6
100
AcDbCellStyleMap
 90
        3
300
CELLSTYLE
  1
TABLEFORMAT_BEGIN
 90
        5
170
     1
 91
        0
 92
    32768
 62
   257
 93
        1
300
CONTENTFORMAT
  1
CONTENTFORMAT_BEGIN
 90
        0
 91
        0
 92
      512
 93
        0
300

 40
0.0
140
1.0
 94
        5
 62
     0
340
55
144
0.25
309
CONTENTFORMAT_END
171
     0
 94
        0
309
TABLEFORMAT_END
  1
CELLSTYLE_BEGIN
 90
        1
 91
        1
300
_TITLE
309
CELLSTYLE_END
300
CELLSTYLE
  1
TABLEFORMAT_BEGIN
 90
        5
170
     1
 91
        0
 92
        0
 62
   257
 93
        1
300
CONTENTFORMAT
  1
CONTENTFORMAT_BEGIN
 90
        0
 91
        0
 92
      512
 93
        0
300

 40
0.0
140
1.0
 94
        5
 62
     0
340
55
144
0.18
309
CONTENTFORMAT_END
171
     0
 94
        0
309
TABLEFORMAT_END
  1
CELLSTYLE_BEGIN
 90
        2
 91
        1
300
_HEADER
309
CELLSTYLE_END
300
CELLSTYLE
  1
TABLEFORMAT_BEGIN
 90
        5
170
     1
 91
        0
 92
        0
 62
   257
 93
        1
300
CONTENTFORMAT
  1
CONTENTFORMAT_BEGIN
 90
        0
 91
        0
 92
      512
 93
        0
300

 40
0.0
140
1.0
 94
        2
 62
     0
340
55
144
0.18
309
CONTENTFORMAT_END
171
     0
 94
        0
309
TABLEFORMAT_END
  1
CELLSTYLE_BEGIN
 90
        3
 91
        2
300
_DATA
309
CELLSTYLE_END
  0
ENDSEC
  0
EOF
