  0
SECTION
  2
HEADER
  9
$ACADVER
  1
AC1032
  9
$ACADMAINTVER
 90
      228
  9
$DWGCODEPAGE
  3
ANSI_1252
  9
$REQUIREDVERSIONS
160
                 0
  9
$INSBASE
 10
0.0
 20
0.0
 30
0.0
  9
$EXTMIN
 10
1.000000000000000E+20
 20
1.000000000000000E+20
 30
1.000000000000000E+20
  9
$EXTMAX
 10
-1.000000000000000E+20
 20
-1.000000000000000E+20
 30
-1.000000000000000E+20
  9
$LIMMIN
 10
0.0
 20
0.0
  9
$LIMMAX
 10
12.0
 20
9.0
  9
$ORTHOMODE
 70
     0
  9
$REGENMODE
 70
     1
  9
$FILLMODE
 70
     1
  9
$QTEXTMODE
 70
     0
  9
$MIRRTEXT
 70
     0
  9
$LTSCALE
 40
1.0
  9
$ATTMODE
 70
     1
  9
$TEXTSIZE
 40
0.2
  9
$TRACEWID
 40
0.05
  9
$TEXTSTYLE
  7
Standard
  9
$CLAYER
  8
0
  9
$CELTYPE
  6
ByLayer
  9
$CECOLOR
 62
   256
  9
$CELTSCALE
 40
1.0
  9
$DISPSILH
 70
     0
  9
$DIMSCALE
 40
1.0
  9
$DIMASZ
 40
0.18
  9
$DIMEXO
 40
0.0625
  9
$DIMDLI
 40
0.38
  9
$DIMRND
 40
0.0
  9
$DIMDLE
 40
0.0
  9
$DIMEXE
 40
0.18
  9
$DIMTP
 40
0.0
  9
$DIMTM
 40
0.0
  9
$DIMTXT
 40
0.18
  9
$DIMCEN
 40
0.09
  9
$DIMTSZ
 40
0.0
  9
$DIMTOL
 70
     0
  9
$DIMLIM
 70
     0
  9
$DIMTIH
 70
     1
  9
$DIMTOH
 70
     1
  9
$DIMSE1
 70
     0
  9
$DIMSE2
 70
     0
  9
$DIMTAD
 70
     0
  9
$DIMZIN
 70
     0
  9
$DIMBLK
  1

  9
$DIMASO
 70
     1
  9
$DIMSHO
 70
     1
  9
$DIMPOST
  1

  9
$DIMAPOST
  1

  9
$DIMALT
 70
     0
  9
$DIMALTD
 70
     2
  9
$DIMALTF
 40
25.4
  9
$DIMLFAC
 40
1.0
  9
$DIMTOFL
 70
     0
  9
$DIMTVP
 40
0.0
  9
$DIMTIX
 70
     0
  9
$DIMSOXD
 70
     0
  9
$DIMSAH
 70
     0
  9
$DIMBLK1
  1

  9
$DIMBLK2
  1

  9
$DIMSTYLE
  2
Standard
  9
$DIMCLRD
 70
     0
  9
$DIMCLRE
 70
     0
  9
$DIMCLRT
 70
     0
  9
$DIMTFAC
 40
1.0
  9
$DIMGAP
 40
0.09
  9
$DIMJUST
 70
     0
  9
$DIMSD1
 70
     0
  9
$DIMSD2
 70
     0
  9
$DIMTOLJ
 70
     1
  9
$DIMTZIN
 70
     0
  9
$DIMALTZ
 70
     0
  9
$DIMALTTZ
 70
     0
  9
$DIMUPT
 70
     0
  9
$DIMDEC
 70
     4
  9
$DIMTDEC
 70
     4
  9
$DIMALTU
 70
     2
  9
$DIMALTTD
 70
     2
  9
$DIMTXSTY
  7
Standard
  9
$DIMAUNIT
 70
     0
  9
$DIMADEC
 70
     0
  9
$DIMALTRND
 40
0.0
  9
$DIMAZIN
 70
     0
  9
$DIMDSEP
 70
    46
  9
$DIMATFIT
 70
     3
  9
$DIMFRAC
 70
     0
  9
$DIMLDRBLK
  1

  9
$DIMLUNIT
 70
     2
  9
$DIMLWD
 70
    -2
  9
$DIMLWE
 70
    -2
  9
$DIMTMOVE
 70
     0
  9
$DIMFXL
 40
1.0
  9
$DIMFXLON
 70
     0
  9
$DIMJOGANG
 40
0.7853981633974483
  9
$DIMTFILL
 70
     0
  9
$DIMTFILLCLR
 70
     0
  9
$DIMARCSYM
 70
     0
  9
$DIMLTYPE
  6

  9
$DIMLTEX1
  6

  9
$DIMLTEX2
  6

  9
$DIMTXTDIRECTION
 70
     0
  9
$LUNITS
 70
     2
  9
$LUPREC
 70
     4
  9
$SKETCHINC
 40
0.1
  9
$FILLETRAD
 40
0.0
  9
$AUNITS
 70
     0
  9
$AUPREC
 70
     0
  9
$MENU
  1
.
  9
$ELEVATION
 40
0.0
  9
$PELEVATION
 40
0.0
  9
$THICKNESS
 40
0.0
  9
$LIMCHECK
 70
     0
  9
$CHAMFERA
 40
0.0
  9
$CHAMFERB
 40
0.0
  9
$CHAMFERC
 40
0.0
  9
$CHAMFERD
 40
0.0
  9
$SKPOLY
 70
     0
  9
$TDCREATE
 40
2459759.047754630
  9
$TDUCREATE
 40
2459758.964421296
  9
$TDUPDATE
 40
2459759.047754630
  9
$TDUUPDATE
 40
2459758.964421296
  9
$TDINDWG
 40
0.0000000000
  9
$TDUSRTIMER
 40
0.0000000000
  9
$USRTIMER
 70
     1
  9
$ANGBASE
 50
0.0
  9
$ANGDIR
 70
     0
  9
$PDMODE
 70
     0
  9
$PDSIZE
 40
0.0
  9
$PLINEWID
 40
0.0
  9
$SPLFRAME
 70
     0
  9
$SPLINETYPE
 70
     6
  9
$SPLINESEGS
 70
     8
  9
$HANDSEED
  5
B8
  9
$SURFTAB1
 70
     6
  9
$SURFTAB2
 70
     6
  9
$SURFTYPE
 70
     6
  9
$SURFU
 70
     6
  9
$SURFV
 70
     6
  9
$UCSBASE
  2

  9
$UCSNAME
  2

  9
$UCSORG
 10
0.0
 20
0.0
 30
0.0
  9
$UCSXDIR
 10
1.0
 20
0.0
 30
0.0
  9
$UCSYDIR
 10
0.0
 20
1.0
 30
0.0
  9
$UCSORTHOREF
  2

  9
$UCSORTHOVIEW
 70
     0
  9
$UCSORGTOP
 10
0.0
 20
0.0
 30
0.0
  9
$UCSORGBOTTOM
 10
0.0
 20
0.0
 30
0.0
  9
$UCSORGLEFT
 10
0.0
 20
0.0
 30
0.0
  9
$UCSORGRIGHT
 10
0.0
 20
0.0
 30
0.0
  9
$UCSORGFRONT
 10
0.0
 20
0.0
 30
0.0
  9
$UCSORGBACK
 10
0.0
 20
0.0
 30
0.0
  9
$PUCSBASE
  2

  9
$PUCSNAME
  2

  9
$PUCSORG
 10
0.0
 20
0.0
 30
0.0
  9
$PUCSXDIR
 10
1.0
 20
0.0
 30
0.0
  9
$PUCSYDIR
 10
0.0
 20
1.0
 30
0.0
  9
$PUCSORTHOREF
  2

  9
$PUCSORTHOVIEW
 70
     0
  9
$PUCSORGTOP
 10
0.0
 20
0.0
 30
0.0
  9
$PUCSORGBOTTOM
 10
0.0
 20
0.0
 30
0.0
  9
$PUCSORGLEFT
 10
0.0
 20
0.0
 30
0.0
  9
$PUCSORGRIGHT
 10
0.0
 20
0.0
 30
0.0
  9
$PUCSORGFRONT
 10
0.0
 20
0.0
 30
0.0
  9
$PUCSORGBACK
 10
0.0
 20
0.0
 30
0.0
  9
$USERI1
 70
     0
  9
$USERI2
 70
     0
  9
$USERI3
 70
     0
  9
$USERI4
 70
     0
  9
$USERI5
 70
     0
  9
$USERR1
 40
0.0
  9
$USERR2
 40
0.0
  9
$USERR3
 40
0.0
  9
$USERR4
 40
0.0
  9
$USERR5
 40
0.0
  9
$WORLDVIEW
 70
     1
  9
$SHADEDGE
 70
     3
  9
$SHADEDIF
 70
    70
  9
$TILEMODE
 70
     1
  9
$MAXACTVP
 70
    64
  9
$PINSBASE
 10
0.0
 20
0.0
 30
0.0
  9
$PLIMCHECK
 70
     0
  9
$PEXTMIN
 10
1.000000000000000E+20
 20
1.000000000000000E+20
 30
1.000000000000000E+20
  9
$PEXTMAX
 10
-1.000000000000000E+20
 20
-1.000000000000000E+20
 30
-1.000000000000000E+20
  9
$PLIMMIN
 10
0.0
 20
0.0
  9
$PLIMMAX
 10
12.0
 20
9.0
  9
$UNITMODE
 70
     0
  9
$VISRETAIN
 70
     1
  9
$PLINEGEN
 70
     0
  9
$PSLTSCALE
 70
     1
  9
$TREEDEPTH
 70
  3020
  9
$CMLSTYLE
  2
Standard
  9
$CMLJUST
 70
     0
  9
$CMLSCALE
 40
1.0
  9
$PROXYGRAPHICS
 70
     1
  9
$MEASUREMENT
 70
     0
  9
$CELWEIGHT
370
    -1
  9
$ENDCAPS
280
     0
  9
$JOINSTYLE
280
     0
  9
$LWDISPLAY
290
     1
  9
$INSUNITS
 70
     4
  9
$HYPERLINKBASE
  1

  9
$STYLESHEET
  1

  9
$XEDIT
290
     1
  9
$CEPSNTYPE
380
     0
  9
$PSTYLEMODE
290
     1
  9
$FINGERPRINTGUID
  2
{41F24335-3F10-6348-AB9F-09C3DA9BD781}
  9
$VERSIONGUID
  2
{A7257C6C-7D53-3145-B07E-E8BFEBE2FF81}
  9
$EXTNAMES
290
     1
  9
$PSVPSCALE
 40
0.0
  9
$OLESTARTUP
290
     0
  9
$SORTENTS
280
   127
  9
$INDEXCTL
280
     0
  9
$HIDETEXT
280
     1
  9
$XCLIPFRAME
280
     2
  9
$HALOGAP
280
     0
  9
$OBSCOLOR
 70
   257
  9
$OBSLTYPE
280
     0
  9
$INTERSECTIONDISPLAY
280
     0
  9
$INTERSECTIONCOLOR
 70
   257
  9
$DIMASSOC
280
     2
  9
$PROJECTNAME
  1

  9
$CAMERADISPLAY
290
     0
  9
$LENSLENGTH
 40
50.0
  9
$CAMERAHEIGHT
 40
0.0
  9
$STEPSPERSEC
 40
2.0
  9
$STEPSIZE
 40
6.0
  9
$3DDWFPREC
 40
2.0
  9
$PSOLWIDTH
 40
0.25
  9
$PSOLHEIGHT
 40
4.0
  9
$LOFTANG1
 40
1.570796326794896
  9
$LOFTANG2
 40
1.570796326794896
  9
$LOFTMAG1
 40
0.0
  9
$LOFTMAG2
 40
0.0
  9
$LOFTPARAM
 70
     7
  9
$LOFTNORMALS
280
     1
  9
$LATITUDE
 40
37.795
  9
$LONGITUDE
 40
-122.394
  9
$NORTHDIRECTION
 40
0.0
  9
$TIMEZONE
 70
 -8000
  9
$LIGHTGLYPHDISPLAY
280
     1
  9
$TILEMODELIGHTSYNCH
280
     1
  9
$CMATERIAL
347
11
  9
$SOLIDHIST
280
     0
  9
$SHOWHIST
280
     1
  9
$DWFFRAME
280
     2
  9
$DGNFRAME
280
     0
  9
$REALWORLDSCALE
290
     1
  9
$INTERFERECOLOR
 62
     1
  9
$INTERFEREOBJVS
345
33
  9
$INTERFEREVPVS
346
30
  9
$CSHADOW
280
     0
  9
$SHADOWPLANELOCATION
 40
0.0
  0
ENDSEC
  0
SECTION
  2
CLASSES
  0
CLASS
  1
ACDBDICTIONARYWDFLT
  2
AcDbDictionaryWithDefault
  3
ObjectDBX Classes
 90
        0
 91
        1
280
     0
281
     0
  0
CLASS
  1
MATERIAL
  2
AcDbMaterial
  3
ObjectDBX Classes
 90
     1153
 91
        3
280
     0
281
     0
  0
CLASS
  1
VISUALSTYLE
  2
AcDbVisualStyle
  3
ObjectDBX Classes
 90
     4095
 91
       24
280
     0
281
     0
  0
CLASS
  1
SCALE
  2
AcDbScale
  3
ObjectDBX Classes
 90
     1153
 91
       17
280
     0
281
     0
  0
CLASS
  1
TABLESTYLE
  2
AcDbTableStyle
  3
ObjectDBX Classes
 90
     4095
 91
        1
280
     0
281
     0
  0
CLASS
  1
MLEADERSTYLE
  2
AcDbMLeaderStyle
  3
ACDB_MLEADERSTYLE_CLASS
 90
     4095
 91
        1
280
     0
281
     0
  0
CLASS
  1
ACDBSECTIONVIEWSTYLE
  2
AcDbSectionViewStyle
  3
ObjectDBX Classes
 90
     1025
 91
        1
280
     0
281
     0
  0
CLASS
  1
ACDBDETAILVIEWSTYLE
  2
AcDbDetailViewStyle
  3
ObjectDBX Classes
 90
     1025
 91
        1
280
     0
281
     0
  0
CLASS
  1
DICTIONARYVAR
  2
AcDbDictionaryVar
  3
ObjectDBX Classes
 90
        0
 91
        5
280
     0
281
     0
  0
CLASS
  1
CELLSTYLEMAP
  2
AcDbCellStyleMap
  3
ObjectDBX Classes
 90
     1152
 91
        1
280
     0
281
     0
  0
ENDSEC
  0
SECTION
  2
TABLES
  0
TABLE
  2
VPORT
  5
8
330
0
100
AcDbSymbolTable
 70
     1
  0
VPORT
  5
57
330
8
100
AcDbSymbolTableRecord
100
AcDbViewportTableRecord
  2
*Active
 70
     0
 10
0.0
 20
0.0
 11
1.0
 21
1.0
 12
0.0
 22
0.0
 13
0.0
 23
0.0
 14
1.0
 24
1.0
 15
0.0
 25
0.0
 16
0.0
 26
0.0
 36
1.0
 17
75.18506223653215
 27
52.45000155515209
 37
0.0
 40
106.9980031725102
 41
1.433461583500322
 42
50.0
 43
0.0
 44
0.0
 50
0.0
 51
0.0
 71
     0
 72
   100
 73
     1
 74
     1
 75
     0
 76
     0
 77
     0
 78
     0
281
     0
 65
     1
110
0.0
120
0.0
130
0.0
111
1.0
121
0.0
131
0.0
112
0.0
122
1.0
132
0.0
 79
     0
146
0.0
 60
     3
 61
     5
292
     1
282
     1
141
0.0
142
0.0
 63
   250
421
  3355443
  0
ENDTAB
  0
TABLE
  2
LTYPE
  5
5
330
0
100
AcDbSymbolTable
 70
     1
  0
LTYPE
  5
5B
330
5
100
AcDbSymbolTableRecord
100
AcDbLinetypeTableRecord
  2
ByBlock
 70
     0
  3

 72
    65
 73
     0
 40
0.0
  0
LTYPE
  5
5C
330
5
100
AcDbSymbolTableRecord
100
AcDbLinetypeTableRecord
  2
ByLayer
 70
     0
  3

 72
    65
 73
     0
 40
0.0
  0
LTYPE
  5
5D
330
5
100
AcDbSymbolTableRecord
100
AcDbLinetypeTableRecord
  2
Continuous
 70
     0
  3
Solid line
 72
    65
 73
     0
 40
0.0
  0
ENDTAB
  0
TABLE
  2
LAYER
  5
2
330
0
100
AcDbSymbolTable
 70
     2
  0
LAYER
  5
54
330
2
100
AcDbSymbolTableRecord
100
AcDbLayerTableRecord
  2
0
 70
     0
 62
     7
  6
Continuous
370
    -3
390
F
347
21
348
0
  0
LAYER
  5
78
330
2
100
AcDbSymbolTableRecord
100
AcDbLayerTableRecord
  2
PCB holes
 70
     0
 62
     7
  6
Continuous
370
     0
390
F
347
21
348
0
  0
ENDTAB
  0
TABLE
  2
STYLE
  5
3
330
0
100
AcDbSymbolTable
 70
     2
  0
STYLE
  5
55
330
3
100
AcDbSymbolTableRecord
100
AcDbTextStyleTableRecord
  2
Standard
 70
     0
 40
0.0
 41
1.0
 50
0.0
 71
     0
 42
0.2
  3
txt
  4

  0
STYLE
  5
5A
330
3
100
AcDbSymbolTableRecord
100
AcDbTextStyleTableRecord
  2
Annotative
 70
     0
 40
0.0
 41
1.0
 50
0.0
 71
     0
 42
0.2
  3
txt
  4

1001
AcadAnnotative
1000
AnnotativeData
1002
{
1070
     1
1070
     1
1002
}
  0
ENDTAB
  0
TABLE
  2
VIEW
  5
6
330
0
100
AcDbSymbolTable
 70
     0
  0
ENDTAB
  0
TABLE
  2
UCS
  5
7
330
0
100
AcDbSymbolTable
 70
     0
  0
ENDTAB
  0
TABLE
  2
APPID
  5
9
330
0
100
AcDbSymbolTable
 70
     2
  0
APPID
  5
56
330
9
100
AcDbSymbolTableRecord
100
AcDbRegAppTableRecord
  2
ACAD
 70
     0
  0
APPID
  5
5E
330
9
100
AcDbSymbolTableRecord
100
AcDbRegAppTableRecord
  2
AcadAnnotative
 70
     0
  0
ENDTAB
  0
TABLE
  2
DIMSTYLE
  5
A
330
0
100
AcDbSymbolTable
 70
     2
100
AcDbDimStyleTable
 71
     0
  0
DIMSTYLE
105
58
330
A
100
AcDbSymbolTableRecord
100
AcDbDimStyleTableRecord
  2
Standard
 70
     0
340
55
  0
DIMSTYLE
105
59
330
A
100
AcDbSymbolTableRecord
100
AcDbDimStyleTableRecord
  2
Annotative
 70
     0
340
55
1001
AcadAnnotative
1000
AnnotativeData
1002
{
1070
     1
1070
     1
1002
}
  0
ENDTAB
  0
TABLE
  2
BLOCK_RECORD
  5
1
330
0
100
AcDbSymbolTable
 70
     1
  0
BLOCK_RECORD
  5
70
330
1
100
AcDbSymbolTableRecord
100
AcDbBlockTableRecord
  2
*Model_Space
340
73
 70
     0
280
     1
281
     0
  0
BLOCK_RECORD
  5
6C
330
1
100
AcDbSymbolTableRecord
100
AcDbBlockTableRecord
  2
*Paper_Space
340
6F
 70
     0
280
     1
281
     0
  0
BLOCK_RECORD
  5
74
330
1
100
AcDbSymbolTableRecord
100
AcDbBlockTableRecord
  2
*Paper_Space0
340
77
 70
     0
280
     1
281
     0
  0
ENDTAB
  0
ENDSEC
  0
SECTION
  2
BLOCKS
  0
BLOCK
  5
71
330
70
100
AcDbEntity
  8
0
100
AcDbBlockBegin
  2
*Model_Space
 70
     0
 10
0.0
 20
0.0
 30
0.0
  3
*Model_Space
  1

  0
ENDBLK
  5
72
330
70
100
AcDbEntity
  8
0
100
AcDbBlockEnd
  0
BLOCK
  5
6D
330
6C
100
AcDbEntity
 67
     1
  8
0
100
AcDbBlockBegin
  2
*Paper_Space
 70
     0
 10
0.0
 20
0.0
 30
0.0
  3
*Paper_Space
  1

  0
ENDBLK
  5
6E
330
6C
100
AcDbEntity
 67
     1
  8
0
100
AcDbBlockEnd
  0
BLOCK
  5
75
330
74
100
AcDbEntity
 67
     1
  8
0
100
AcDbBlockBegin
  2
*Paper_Space0
 70
     0
 10
0.0
 20
0.0
 30
0.0
  3
*Paper_Space0
  1

  0
ENDBLK
  5
76
330
74
100
AcDbEntity
 67
     1
  8
0
100
AcDbBlockEnd
  0
ENDSEC
  0
SECTION
  2
ENTITIES
  0
SPLINE
  5
79
330
70
100
AcDbEntity
  8
PCB holes
 62
     5
420
      255
370
     9
100
AcDbSpline
210
0.0
220
0.0
230
1.0
 70
    11
 71
     3
 72
    20
 73
    16
 74
     0
 42
0.0000000001
 43
0.0000000001
 40
0.0
 40
0.0
 40
0.0
 40
0.0
 40
1.0
 40
1.0
 40
1.0
 40
2.0
 40
2.0
 40
2.0
 40
3.0
 40
3.0
 40
3.0
 40
4.0
 40
4.0
 40
4.0
 40
5.0
 40
5.0
 40
5.0
 40
5.0
 10
144.0270898939008
 20
44.23565701196688
 30
0.0
 10
144.0270898939008
 20
44.23565701196688
 30
0.0
 10
130.2406795967595
 20
46.66627091090231
 30
0.0
 10
130.2406795967595
 20
46.66627091090231
 30
0.0
 10
130.2406795967595
 20
46.66627091090231
 30
0.0
 10
132.6712988786014
 20
60.4526865909501
 30
0.0
 10
132.6712988786014
 20
60.4526865909501
 30
0.0
 10
132.6712988786014
 20
60.4526865909501
 30
0.0
 10
146.4577199415564
 20
58.02207269201499
 30
0.0
 10
146.4577199415564
 20
58.02207269201499
 30
0.0
 10
146.4577199415564
 20
58.02207269201499
 30
0.0
 10
144.0271006597144
 20
44.23565701196688
 30
0.0
 10
144.0271006597144
 20
44.23565701196688
 30
0.0
 10
144.0271006597144
 20
44.23565701196688
 30
0.0
 10
144.0270898939008
 20
44.23565701196688
 30
0.0
 10
144.0270898939008
 20
44.23565701196688
 30
0.0
  0
SPLINE
  5
7A
330
70
100
AcDbEntity
  8
PCB holes
 62
     5
420
      255
370
     9
100
AcDbSpline
210
0.0
220
0.0
230
1.0
 70
    11
 71
     3
 72
    20
 73
    16
 74
     0
 42
0.0000000001
 43
0.0000000001
 40
0.0
 40
0.0
 40
0.0
 40
0.0
 40
1.0
 40
1.0
 40
1.0
 40
2.0
 40
2.0
 40
2.0
 40
3.0
 40
3.0
 40
3.0
 40
4.0
 40
4.0
 40
4.0
 40
5.0
 40
5.0
 40
5.0
 40
5.0
 10
140.7357115124313
 20
25.42220923785717
 30
0.0
 10
140.7357115124313
 20
25.42220923785717
 30
0.0
 10
126.9492904494763
 20
27.8528231367926
 30
0.0
 10
126.9492904494763
 20
27.8528231367926
 30
0.0
 10
126.9492904494763
 20
27.8528231367926
 30
0.0
 10
129.3799097313183
 20
41.63923881684103
 30
0.0
 10
129.3799097313183
 20
41.63923881684103
 30
0.0
 10
129.3799097313183
 20
41.63923881684103
 30
0.0
 10
143.1663307942732
 20
39.2086249179056
 30
0.0
 10
143.1663307942732
 20
39.2086249179056
 30
0.0
 10
143.1663307942732
 20
39.2086249179056
 30
0.0
 10
140.7357115124313
 20
25.42220923785717
 30
0.0
 10
140.7357115124313
 20
25.42220923785717
 30
0.0
 10
140.7357115124313
 20
25.42220923785717
 30
0.0
 10
140.7357115124313
 20
25.42220923785717
 30
0.0
 10
140.7357115124313
 20
25.42220923785717
 30
0.0
  0
SPLINE
  5
7B
330
70
100
AcDbEntity
  8
PCB holes
 62
     5
420
      255
370
     9
100
AcDbSpline
210
0.0
220
0.0
230
1.0
 70
    11
 71
     3
 72
    20
 73
    16
 74
     0
 42
0.0000000001
 43
0.0000000001
 40
0.0
 40
0.0
 40
0.0
 40
0.0
 40
1.0
 40
1.0
 40
1.0
 40
2.0
 40
2.0
 40
2.0
 40
3.0
 40
3.0
 40
3.0
 40
4.0
 40
4.0
 40
4.0
 40
5.0
 40
5.0
 40
5.0
 40
5.0
 10
124.4304883879382
 20
42.58820222779207
 30
0.0
 10
124.4304883879382
 20
42.58820222779207
 30
0.0
 10
110.6440780907969
 20
45.01881612672686
 30
0.0
 10
110.6440780907969
 20
45.01881612672686
 30
0.0
 10
110.6440780907969
 20
45.01881612672686
 30
0.0
 10
113.0746973726389
 20
58.80523180677498
 30
0.0
 10
113.0746973726389
 20
58.80523180677498
 30
0.0
 10
113.0746973726389
 20
58.80523180677498
 30
0.0
 10
126.8611184355938
 20
56.37461790783986
 30
0.0
 10
126.8611184355938
 20
56.37461790783986
 30
0.0
 10
126.8611184355938
 20
56.37461790783986
 30
0.0
 10
124.4304991537519
 20
42.58820222779207
 30
0.0
 10
124.4304991537519
 20
42.58820222779207
 30
0.0
 10
124.4304991537519
 20
42.58820222779207
 30
0.0
 10
124.4304883879382
 20
42.58820222779207
 30
0.0
 10
124.4304883879382
 20
42.58820222779207
 30
0.0
  0
SPLINE
  5
7C
330
70
100
AcDbEntity
  8
PCB holes
 62
     5
420
      255
370
     9
100
AcDbSpline
210
0.0
220
0.0
230
1.0
 70
    11
 71
     3
 72
    17
 73
    13
 74
     0
 42
0.0000000001
 43
0.0000000001
 40
0.0
 40
0.0
 40
0.0
 40
0.0
 40
1.0
 40
1.0
 40
1.0
 40
2.0
 40
2.0
 40
2.0
 40
3.0
 40
3.0
 40
3.0
 40
4.0
 40
4.0
 40
4.0
 40
4.0
 10
121.1391100064687
 20
23.77475445368236
 30
0.0
 10
121.1391100064687
 20
23.77475445368236
 30
0.0
 10
107.3526889435138
 20
26.2053683526178
 30
0.0
 10
107.3526889435138
 20
26.2053683526178
 30
0.0
 10
107.3526889435138
 20
26.2053683526178
 30
0.0
 10
109.7833082253557
 20
39.99178403266558
 30
0.0
 10
109.7833082253557
 20
39.99178403266558
 30
0.0
 10
109.7833082253557
 20
39.99178403266558
 30
0.0
 10
123.5697292883107
 20
37.5611701337308
 30
0.0
 10
123.5697292883107
 20
37.5611701337308
 30
0.0
 10
123.5697292883107
 20
37.5611701337308
 30
0.0
 10
121.1391100064687
 20
23.77475445368236
 30
0.0
 10
121.1391100064687
 20
23.77475445368236
 30
0.0
  0
SPLINE
  5
7D
330
70
100
AcDbEntity
  8
PCB holes
 62
     5
420
      255
370
     9
100
AcDbSpline
210
0.0
220
0.0
230
1.0
 70
     9
 71
     3
 72
    20
 73
    16
 74
     0
 42
0.0000000001
 43
0.0000000001
 40
0.0
 40
0.0
 40
0.0
 40
0.0
 40
1.0
 40
1.0
 40
1.0
 40
2.0
 40
2.0
 40
2.0
 40
3.0
 40
3.0
 40
3.0
 40
4.0
 40
4.0
 40
4.0
 40
5.0
 40
5.0
 40
5.0
 40
5.0
 10
92.7690163157168
 20
77.42112690020739
 30
0.0
 10
92.7690163157168
 20
77.42112690020739
 30
0.0
 10
93.74619692427298
 20
91.38745682097576
 30
0.0
 10
93.74619692427298
 20
91.38745682097576
 30
0.0
 10
93.74619692427298
 20
91.38745682097576
 30
0.0
 10
107.7125254993147
 20
90.4102721752397
 30
0.0
 10
107.7125254993147
 20
90.4102721752397
 30
0.0
 10
107.7125254993147
 20
90.4102721752397
 30
0.0
 10
106.7353448907585
 20
76.44394090874438
 30
0.0
 10
106.7353448907585
 20
76.44394090874438
 30
0.0
 10
106.7353448907585
 20
76.44394090874438
 30
0.0
 10
92.7690163157168
 20
77.42112420875415
 30
0.0
 10
92.7690163157168
 20
77.42112420875415
 30
0.0
 10
92.7690163157168
 20
77.42112420875415
 30
0.0
 10
92.7690163157168
 20
77.42112420875415
 30
0.0
 10
92.7690163157168
 20
77.42112690020739
 30
0.0
  0
SPLINE
  5
7E
330
70
100
AcDbEntity
  8
PCB holes
 62
     5
420
      255
370
     9
100
AcDbSpline
210
0.0
220
0.0
230
1.0
 70
    11
 71
     3
 72
    20
 73
    16
 74
     0
 42
0.0000000001
 43
0.0000000001
 40
0.0
 40
0.0
 40
0.0
 40
0.0
 40
1.0
 40
1.0
 40
1.0
 40
2.0
 40
2.0
 40
2.0
 40
3.0
 40
3.0
 40
3.0
 40
4.0
 40
4.0
 40
4.0
 40
5.0
 40
5.0
 40
5.0
 40
5.0
 10
105.4089212870437
 20
57.47880282015334
 30
0.0
 10
105.4089212870437
 20
57.47880282015334
 30
0.0
 10
91.44259271200198
 20
58.45598881161635
 30
0.0
 10
91.44259271200198
 20
58.45598881161635
 30
0.0
 10
91.44259271200198
 20
58.45598881161635
 30
0.0
 10
92.41977332055816
 20
72.42231738665809
 30
0.0
 10
92.41977332055816
 20
72.42231738665809
 30
0.0
 10
92.41977332055816
 20
72.42231738665809
 30
0.0
 10
106.3861018955999
 20
71.44513408664832
 30
0.0
 10
106.3861018955999
 20
71.44513408664832
 30
0.0
 10
106.3861018955999
 20
71.44513408664832
 30
0.0
 10
105.4089212870437
 20
57.47880282015334
 30
0.0
 10
105.4089212870437
 20
57.47880282015334
 30
0.0
 10
105.4089212870437
 20
57.47880282015334
 30
0.0
 10
105.4089212870437
 20
57.47880282015334
 30
0.0
 10
105.4089212870437
 20
57.47880282015334
 30
0.0
  0
SPLINE
  5
7F
330
70
100
AcDbEntity
  8
PCB holes
 62
     5
420
      255
370
     9
100
AcDbSpline
210
0.0
220
0.0
230
1.0
 70
    11
 71
     3
 72
    17
 73
    13
 74
     0
 42
0.0000000001
 43
0.0000000001
 40
0.0
 40
0.0
 40
0.0
 40
0.0
 40
1.0
 40
1.0
 40
1.0
 40
2.0
 40
2.0
 40
2.0
 40
3.0
 40
3.0
 40
3.0
 40
4.0
 40
4.0
 40
4.0
 40
4.0
 10
104.1036525071725
 20
38.42547118605276
 30
0.0
 10
104.1036525071725
 20
38.42547118605276
 30
0.0
 10
90.13732393213079
 20
39.40265717751546
 30
0.0
 10
90.13732393213079
 20
39.40265717751546
 30
0.0
 10
90.13732393213079
 20
39.40265717751546
 30
0.0
 10
91.11450454068696
 20
53.3689857525572
 30
0.0
 10
91.11450454068696
 20
53.3689857525572
 30
0.0
 10
91.11450454068696
 20
53.3689857525572
 30
0.0
 10
105.0808331157287
 20
52.39179976109418
 30
0.0
 10
105.0808331157287
 20
52.39179976109418
 30
0.0
 10
105.0808331157287
 20
52.39179976109418
 30
0.0
 10
104.1036525071725
 20
38.42547118605276
 30
0.0
 10
104.1036525071725
 20
38.42547118605276
 30
0.0
  0
SPLINE
  5
80
330
70
100
AcDbEntity
  8
PCB holes
 62
     5
420
      255
370
     9
100
AcDbSpline
210
0.0
220
0.0
230
1.0
 70
     9
 71
     3
 72
    17
 73
    13
 74
     0
 42
0.0000000001
 43
0.0000000001
 40
0.0
 40
0.0
 40
0.0
 40
0.0
 40
1.0
 40
1.0
 40
1.0
 40
2.0
 40
2.0
 40
2.0
 40
3.0
 40
3.0
 40
3.0
 40
4.0
 40
4.0
 40
4.0
 40
4.0
 10
100.8898848763842
 20
30.49510908102091
 30
0.0
 10
100.3113300502491
 20
30.49510908102091
 30
0.0
 10
99.83861393821396
 20
30.96429938908179
 30
0.0
 10
99.83861393821396
 20
31.54637463628469
 30
0.0
 10
99.83861393821396
 20
32.1284498834863
 30
0.0
 10
100.3077988633683
 20
32.59764019154783
 30
0.0
 10
100.8898848763842
 20
32.59764019154783
 30
0.0
 10
101.4719708894001
 20
32.59764019154783
 30
0.0
 10
101.9411558145545
 20
32.1284498834863
 30
0.0
 10
101.9411558145545
 20
31.54637463628469
 30
0.0
 10
101.9411558145545
 20
30.96429938908179
 30
0.0
 10
101.4719708894001
 20
30.49510908102091
 30
0.0
 10
100.8898848763842
 20
30.49510908102091
 30
0.0
  0
SPLINE
  5
81
330
70
100
AcDbEntity
  8
PCB holes
 62
     5
420
      255
370
     9
100
AcDbSpline
210
0.0
220
0.0
230
1.0
 70
     9
 71
     3
 72
    17
 73
    13
 74
     0
 42
0.0000000001
 43
0.0000000001
 40
0.0
 40
0.0
 40
0.0
 40
0.0
 40
1.0
 40
1.0
 40
1.0
 40
2.0
 40
2.0
 40
2.0
 40
3.0
 40
3.0
 40
3.0
 40
4.0
 40
4.0
 40
4.0
 40
4.0
 10
93.4816270535571
 20
99.34604756228958
 30
0.0
 10
94.06018187969225
 20
99.34604756228958
 30
0.0
 10
94.5328979917274
 20
98.87685792709152
 30
0.0
 10
94.5328979917274
 20
98.29478066129949
 30
0.0
 10
94.5328979917274
 20
97.71270339550712
 30
0.0
 10
94.06371306657302
 20
97.24351376030908
 30
0.0
 10
93.4816270535571
 20
97.24351376030908
 30
0.0
 10
92.89954104054118
 20
97.24351376030908
 30
0.0
 10
92.4303561153868
 20
97.71270339550712
 30
0.0
 10
92.4303561153868
 20
98.29478066129949
 30
0.0
 10
92.4303561153868
 20
98.87685792709152
 30
0.0
 10
92.89954104054118
 20
99.34604756228958
 30
0.0
 10
93.4816270535571
 20
99.34604756228958
 30
0.0
  0
SPLINE
  5
82
330
70
100
AcDbEntity
  8
PCB holes
 62
     5
420
      255
370
     9
100
AcDbSpline
210
0.0
220
0.0
230
1.0
 70
    11
 71
     3
 72
    20
 73
    16
 74
     0
 42
0.0000000001
 43
0.0000000001
 40
0.0
 40
0.0
 40
0.0
 40
0.0
 40
1.0
 40
1.0
 40
1.0
 40
2.0
 40
2.0
 40
2.0
 40
3.0
 40
3.0
 40
3.0
 40
4.0
 40
4.0
 40
4.0
 40
5.0
 40
5.0
 40
5.0
 40
5.0
 10
116.3766800805643
 20
77.53047526956085
 30
0.0
 10
116.3766800805643
 20
77.53047526956085
 30
0.0
 10
130.1631011435192
 20
75.09986137062575
 30
0.0
 10
130.1631011435192
 20
75.09986137062575
 30
0.0
 10
130.1631011435192
 20
75.09986137062575
 30
0.0
 10
127.7324818616773
 20
61.31344569057763
 30
0.0
 10
127.7324818616773
 20
61.31344569057763
 30
0.0
 10
127.7324818616773
 20
61.31344569057763
 30
0.0
 10
113.9460607987224
 20
63.74405958951275
 30
0.0
 10
113.9460607987224
 20
63.74405958951275
 30
0.0
 10
113.9460607987224
 20
63.74405958951275
 30
0.0
 10
116.3766800805643
 20
77.53047526956085
 30
0.0
 10
116.3766800805643
 20
77.53047526956085
 30
0.0
 10
116.3766800805643
 20
77.53047526956085
 30
0.0
 10
116.3766800805643
 20
77.53047526956085
 30
0.0
 10
116.3766800805643
 20
77.53047526956085
 30
0.0
  0
SPLINE
  5
83
330
70
100
AcDbEntity
  8
PCB holes
 62
     5
420
      255
370
     9
100
AcDbSpline
210
0.0
220
0.0
230
1.0
 70
     9
 71
     3
 72
    17
 73
    13
 74
     0
 42
0.0000000001
 43
0.0000000001
 40
0.0
 40
0.0
 40
0.0
 40
0.0
 40
1.0
 40
1.0
 40
1.0
 40
2.0
 40
2.0
 40
2.0
 40
3.0
 40
3.0
 40
3.0
 40
4.0
 40
4.0
 40
4.0
 40
4.0
 10
86.63428427118208
 20
64.9152724576788
 30
0.0
 10
86.05573482795344
 20
64.9152724576788
 30
0.0
 10
85.58301871591829
 20
65.38446276573999
 30
0.0
 10
85.58301871591829
 20
65.96654070439551
 30
0.0
 10
85.58301871591829
 20
66.54861864305136
 30
0.0
 10
86.05220902397919
 20
67.01780895111255
 30
0.0
 10
86.63428427118208
 20
67.01780895111255
 30
0.0
 10
87.2163595183837
 20
67.01780895111255
 30
0.0
 10
87.68554982644522
 20
66.54861864305136
 30
0.0
 10
87.68554982644522
 20
65.96654070439551
 30
0.0
 10
87.68554982644522
 20
65.38446276573999
 30
0.0
 10
87.2163595183837
 20
64.9152724576788
 30
0.0
 10
86.63428427118208
 20
64.9152724576788
 30
0.0
  0
SPLINE
  5
84
330
70
100
AcDbEntity
  8
PCB holes
 62
     5
420
      255
370
     9
100
AcDbSpline
210
0.0
220
0.0
230
1.0
 70
    11
 71
     3
 72
    17
 73
    13
 74
     0
 42
0.0000000001
 43
0.0000000001
 40
0.0
 40
0.0
 40
0.0
 40
0.0
 40
1.0
 40
1.0
 40
1.0
 40
2.0
 40
2.0
 40
2.0
 40
3.0
 40
3.0
 40
3.0
 40
4.0
 40
4.0
 40
4.0
 40
4.0
 10
85.4912939835277
 20
49.26268372312165
 30
0.0
 10
85.4912939835277
 20
49.26268372312165
 30
0.0
 10
71.48968583711928
 20
49.26268372312165
 30
0.0
 10
71.48968583711928
 20
49.26268372312165
 30
0.0
 10
71.48968583711928
 20
49.26268372312165
 30
0.0
 10
71.48968583711928
 20
63.26076337410255
 30
0.0
 10
71.48968583711928
 20
63.26076337410255
 30
0.0
 10
71.48968583711928
 20
63.26076337410255
 30
0.0
 10
85.4912939835277
 20
63.26076337410255
 30
0.0
 10
85.4912939835277
 20
63.26076337410255
 30
0.0
 10
85.4912939835277
 20
63.26076337410255
 30
0.0
 10
85.4912939835277
 20
49.26268372312165
 30
0.0
 10
85.4912939835277
 20
49.26268372312165
 30
0.0
  0
SPLINE
  5
85
330
70
100
AcDbEntity
  8
PCB holes
 62
     5
420
      255
370
     9
100
AcDbSpline
210
0.0
220
0.0
230
1.0
 70
     9
 71
     3
 72
    17
 73
    13
 74
     0
 42
0.0000000001
 43
0.0000000001
 40
0.0
 40
0.0
 40
0.0
 40
0.0
 40
1.0
 40
1.0
 40
1.0
 40
2.0
 40
2.0
 40
2.0
 40
3.0
 40
3.0
 40
3.0
 40
4.0
 40
4.0
 40
4.0
 40
4.0
 10
83.49106501731286
 20
41.21943129604191
 30
0.0
 10
83.21590158595531
 20
41.21943129604191
 30
0.0
 10
82.99012632476607
 20
41.44168075325691
 30
0.0
 10
82.99012632476607
 20
41.72036998858934
 30
0.0
 10
82.99012632476607
 20
41.99905922392114
 30
0.0
 10
83.21237578198106
 20
42.22130868113613
 30
0.0
 10
83.49106501731286
 20
42.22130868113613
 30
0.0
 10
83.76975425264529
 20
42.22130868113613
 30
0.0
 10
83.99200370986028
 20
41.99905922392114
 30
0.0
 10
83.99200370986028
 20
41.72036998858934
 30
0.0
 10
83.99200370986028
 20
41.44168075325691
 30
0.0
 10
83.76975425264529
 20
41.21943129604191
 30
0.0
 10
83.49106501731286
 20
41.21943129604191
 30
0.0
  0
SPLINE
  5
86
330
70
100
AcDbEntity
  8
PCB holes
 62
     5
420
      255
370
     9
100
AcDbSpline
210
0.0
220
0.0
230
1.0
 70
     9
 71
     3
 72
    17
 73
    13
 74
     0
 42
0.0000000001
 43
0.0000000001
 40
0.0
 40
0.0
 40
0.0
 40
0.0
 40
1.0
 40
1.0
 40
1.0
 40
2.0
 40
2.0
 40
2.0
 40
3.0
 40
3.0
 40
3.0
 40
4.0
 40
4.0
 40
4.0
 40
4.0
 10
83.49106501731286
 20
39.21920232982709
 30
0.0
 10
83.21590158595531
 20
39.21920232982709
 30
0.0
 10
82.99012632476607
 20
39.44145178704209
 30
0.0
 10
82.99012632476607
 20
39.72014102237451
 30
0.0
 10
82.99012632476607
 20
39.99883025770694
 30
0.0
 10
83.21237578198106
 20
40.22107971492195
 30
0.0
 10
83.49106501731286
 20
40.22107971492195
 30
0.0
 10
83.76975425264529
 20
40.22107971492195
 30
0.0
 10
83.99200370986028
 20
39.99883025770694
 30
0.0
 10
83.99200370986028
 20
39.72014102237451
 30
0.0
 10
83.99200370986028
 20
39.44145178704209
 30
0.0
 10
83.76975425264529
 20
39.21920232982709
 30
0.0
 10
83.49106501731286
 20
39.21920232982709
 30
0.0
  0
SPLINE
  5
87
330
70
100
AcDbEntity
  8
PCB holes
 62
     5
420
      255
370
     9
100
AcDbSpline
210
0.0
220
0.0
230
1.0
 70
     9
 71
     3
 72
    17
 73
    13
 74
     0
 42
0.0000000001
 43
0.0000000001
 40
0.0
 40
0.0
 40
0.0
 40
0.0
 40
1.0
 40
1.0
 40
1.0
 40
2.0
 40
2.0
 40
2.0
 40
3.0
 40
3.0
 40
3.0
 40
4.0
 40
4.0
 40
4.0
 40
4.0
 10
83.49106501731286
 20
37.21897336361289
 30
0.0
 10
83.21590158595531
 20
37.21897336361289
 30
0.0
 10
82.99012632476607
 20
37.44122282082789
 30
0.0
 10
82.99012632476607
 20
37.71991205615968
 30
0.0
 10
82.99012632476607
 20
37.99860129149212
 30
0.0
 10
83.21237578198106
 20
38.22085074870712
 30
0.0
 10
83.49106501731286
 20
38.22085074870712
 30
0.0
 10
83.76975425264529
 20
38.22085074870712
 30
0.0
 10
83.99200370986028
 20
37.99860129149212
 30
0.0
 10
83.99200370986028
 20
37.71991205615968
 30
0.0
 10
83.99200370986028
 20
37.44122282082789
 30
0.0
 10
83.76975425264529
 20
37.21897336361289
 30
0.0
 10
83.49106501731286
 20
37.21897336361289
 30
0.0
  0
SPLINE
  5
88
330
70
100
AcDbEntity
  8
PCB holes
 62
     5
420
      255
370
     9
100
AcDbSpline
210
0.0
220
0.0
230
1.0
 70
     9
 71
     3
 72
    17
 73
    13
 74
     0
 42
0.0000000001
 43
0.0000000001
 40
0.0
 40
0.0
 40
0.0
 40
0.0
 40
1.0
 40
1.0
 40
1.0
 40
2.0
 40
2.0
 40
2.0
 40
3.0
 40
3.0
 40
3.0
 40
4.0
 40
4.0
 40
4.0
 40
4.0
 10
83.49106501731286
 20
35.2187443973987
 30
0.0
 10
83.21590158595531
 20
35.2187443973987
 30
0.0
 10
82.99012632476607
 20
35.4409938546137
 30
0.0
 10
82.99012632476607
 20
35.71968308994549
 30
0.0
 10
82.99012632476607
 20
35.99837232527728
 30
0.0
 10
83.21237578198106
 20
36.22062178249228
 30
0.0
 10
83.49106501731286
 20
36.22062178249228
 30
0.0
 10
83.76975425264529
 20
36.22062178249228
 30
0.0
 10
83.99200370986028
 20
35.99837232527728
 30
0.0
 10
83.99200370986028
 20
35.71968308994549
 30
0.0
 10
83.99200370986028
 20
35.4409938546137
 30
0.0
 10
83.76975425264529
 20
35.2187443973987
 30
0.0
 10
83.49106501731286
 20
35.2187443973987
 30
0.0
  0
SPLINE
  5
89
330
70
100
AcDbEntity
  8
PCB holes
 62
     5
420
      255
370
     9
100
AcDbSpline
210
0.0
220
0.0
230
1.0
 70
     9
 71
     3
 72
    17
 73
    13
 74
     0
 42
0.0000000001
 43
0.0000000001
 40
0.0
 40
0.0
 40
0.0
 40
0.0
 40
1.0
 40
1.0
 40
1.0
 40
2.0
 40
2.0
 40
2.0
 40
3.0
 40
3.0
 40
3.0
 40
4.0
 40
4.0
 40
4.0
 40
4.0
 10
83.49106501731286
 20
33.21851543118387
 30
0.0
 10
83.21590158595531
 20
33.21851543118387
 30
0.0
 10
82.99012632476607
 20
33.44076488839887
 30
0.0
 10
82.99012632476607
 20
33.7194541237313
 30
0.0
 10
82.99012632476607
 20
33.99814335906309
 30
0.0
 10
83.21237578198106
 20
34.22039281627809
 30
0.0
 10
83.49106501731286
 20
34.22039281627809
 30
0.0
 10
83.76975425264529
 20
34.22039281627809
 30
0.0
 10
83.99200370986028
 20
33.99814335906309
 30
0.0
 10
83.99200370986028
 20
33.7194541237313
 30
0.0
 10
83.99200370986028
 20
33.44076488839887
 30
0.0
 10
83.76975425264529
 20
33.21851543118387
 30
0.0
 10
83.49106501731286
 20
33.21851543118387
 30
0.0
  0
SPLINE
  5
8A
330
70
100
AcDbEntity
  8
PCB holes
 62
     5
420
      255
370
     9
100
AcDbSpline
210
0.0
220
0.0
230
1.0
 70
     9
 71
     3
 72
    17
 73
    13
 74
     0
 42
0.0000000001
 43
0.0000000001
 40
0.0
 40
0.0
 40
0.0
 40
0.0
 40
1.0
 40
1.0
 40
1.0
 40
2.0
 40
2.0
 40
2.0
 40
3.0
 40
3.0
 40
3.0
 40
4.0
 40
4.0
 40
4.0
 40
4.0
 10
81.49083605109867
 20
41.21943129604191
 30
0.0
 10
81.21567261974048
 20
41.21943129604191
 30
0.0
 10
80.98989735855187
 20
41.44168075325691
 30
0.0
 10
80.98989735855187
 20
41.72036998858934
 30
0.0
 10
80.98989735855187
 20
41.99905922392114
 30
0.0
 10
81.21214681576686
 20
42.22130868113613
 30
0.0
 10
81.49083605109867
 20
42.22130868113613
 30
0.0
 10
81.76952528643047
 20
42.22130868113613
 30
0.0
 10
81.99177474364546
 20
41.99905922392114
 30
0.0
 10
81.99177474364546
 20
41.72036998858934
 30
0.0
 10
81.99177474364546
 20
41.44168075325691
 30
0.0
 10
81.76952528643047
 20
41.21943129604191
 30
0.0
 10
81.49083605109867
 20
41.21943129604191
 30
0.0
  0
SPLINE
  5
8B
330
70
100
AcDbEntity
  8
PCB holes
 62
     5
420
      255
370
     9
100
AcDbSpline
210
0.0
220
0.0
230
1.0
 70
     9
 71
     3
 72
    17
 73
    13
 74
     0
 42
0.0000000001
 43
0.0000000001
 40
0.0
 40
0.0
 40
0.0
 40
0.0
 40
1.0
 40
1.0
 40
1.0
 40
2.0
 40
2.0
 40
2.0
 40
3.0
 40
3.0
 40
3.0
 40
4.0
 40
4.0
 40
4.0
 40
4.0
 10
81.49083605109867
 20
39.21920232982709
 30
0.0
 10
81.21567261974048
 20
39.21920232982709
 30
0.0
 10
80.98989735855187
 20
39.44145178704209
 30
0.0
 10
80.98989735855187
 20
39.72014102237451
 30
0.0
 10
80.98989735855187
 20
39.99883025770694
 30
0.0
 10
81.21214681576686
 20
40.22107971492195
 30
0.0
 10
81.49083605109867
 20
40.22107971492195
 30
0.0
 10
81.76952528643047
 20
40.22107971492195
 30
0.0
 10
81.99177474364546
 20
39.99883025770694
 30
0.0
 10
81.99177474364546
 20
39.72014102237451
 30
0.0
 10
81.99177474364546
 20
39.44145178704209
 30
0.0
 10
81.76952528643047
 20
39.21920232982709
 30
0.0
 10
81.49083605109867
 20
39.21920232982709
 30
0.0
  0
SPLINE
  5
8C
330
70
100
AcDbEntity
  8
PCB holes
 62
     5
420
      255
370
     9
100
AcDbSpline
210
0.0
220
0.0
230
1.0
 70
     9
 71
     3
 72
    17
 73
    13
 74
     0
 42
0.0000000001
 43
0.0000000001
 40
0.0
 40
0.0
 40
0.0
 40
0.0
 40
1.0
 40
1.0
 40
1.0
 40
2.0
 40
2.0
 40
2.0
 40
3.0
 40
3.0
 40
3.0
 40
4.0
 40
4.0
 40
4.0
 40
4.0
 10
81.49083605109867
 20
37.21897336361289
 30
0.0
 10
81.21567261974048
 20
37.21897336361289
 30
0.0
 10
80.98989735855187
 20
37.44122282082789
 30
0.0
 10
80.98989735855187
 20
37.71991205615968
 30
0.0
 10
80.98989735855187
 20
37.99860129149212
 30
0.0
 10
81.21214681576686
 20
38.22085074870712
 30
0.0
 10
81.49083605109867
 20
38.22085074870712
 30
0.0
 10
81.76952528643047
 20
38.22085074870712
 30
0.0
 10
81.99177474364546
 20
37.99860129149212
 30
0.0
 10
81.99177474364546
 20
37.71991205615968
 30
0.0
 10
81.99177474364546
 20
37.44122282082789
 30
0.0
 10
81.76952528643047
 20
37.21897336361289
 30
0.0
 10
81.49083605109867
 20
37.21897336361289
 30
0.0
  0
SPLINE
  5
8D
330
70
100
AcDbEntity
  8
PCB holes
 62
     5
420
      255
370
     9
100
AcDbSpline
210
0.0
220
0.0
230
1.0
 70
     9
 71
     3
 72
    17
 73
    13
 74
     0
 42
0.0000000001
 43
0.0000000001
 40
0.0
 40
0.0
 40
0.0
 40
0.0
 40
1.0
 40
1.0
 40
1.0
 40
2.0
 40
2.0
 40
2.0
 40
3.0
 40
3.0
 40
3.0
 40
4.0
 40
4.0
 40
4.0
 40
4.0
 10
81.49083605109867
 20
35.2187443973987
 30
0.0
 10
81.21567261974048
 20
35.2187443973987
 30
0.0
 10
80.98989735855187
 20
35.4409938546137
 30
0.0
 10
80.98989735855187
 20
35.71968308994549
 30
0.0
 10
80.98989735855187
 20
35.99837232527728
 30
0.0
 10
81.21214681576686
 20
36.22062178249228
 30
0.0
 10
81.49083605109867
 20
36.22062178249228
 30
0.0
 10
81.76952528643047
 20
36.22062178249228
 30
0.0
 10
81.99177474364546
 20
35.99837232527728
 30
0.0
 10
81.99177474364546
 20
35.71968308994549
 30
0.0
 10
81.99177474364546
 20
35.4409938546137
 30
0.0
 10
81.76952528643047
 20
35.2187443973987
 30
0.0
 10
81.49083605109867
 20
35.2187443973987
 30
0.0
  0
SPLINE
  5
8E
330
70
100
AcDbEntity
  8
PCB holes
 62
     5
420
      255
370
     9
100
AcDbSpline
210
0.0
220
0.0
230
1.0
 70
     9
 71
     3
 72
    17
 73
    13
 74
     0
 42
0.0000000001
 43
0.0000000001
 40
0.0
 40
0.0
 40
0.0
 40
0.0
 40
1.0
 40
1.0
 40
1.0
 40
2.0
 40
2.0
 40
2.0
 40
3.0
 40
3.0
 40
3.0
 40
4.0
 40
4.0
 40
4.0
 40
4.0
 10
81.49083605109867
 20
33.21851543118387
 30
0.0
 10
81.21567261974048
 20
33.21851543118387
 30
0.0
 10
80.98989735855187
 20
33.44076488839887
 30
0.0
 10
80.98989735855187
 20
33.7194541237313
 30
0.0
 10
80.98989735855187
 20
33.99814335906309
 30
0.0
 10
81.21214681576686
 20
34.22039281627809
 30
0.0
 10
81.49083605109867
 20
34.22039281627809
 30
0.0
 10
81.76952528643047
 20
34.22039281627809
 30
0.0
 10
81.99177474364546
 20
33.99814335906309
 30
0.0
 10
81.99177474364546
 20
33.7194541237313
 30
0.0
 10
81.99177474364546
 20
33.44076488839887
 30
0.0
 10
81.76952528643047
 20
33.21851543118387
 30
0.0
 10
81.49083605109867
 20
33.21851543118387
 30
0.0
  0
SPLINE
  5
8F
330
70
100
AcDbEntity
  8
PCB holes
 62
     5
420
      255
370
     9
100
AcDbSpline
210
0.0
220
0.0
230
1.0
 70
     9
 71
     3
 72
    17
 73
    13
 74
     0
 42
0.0000000001
 43
0.0000000001
 40
0.0
 40
0.0
 40
0.0
 40
0.0
 40
1.0
 40
1.0
 40
1.0
 40
2.0
 40
2.0
 40
2.0
 40
3.0
 40
3.0
 40
3.0
 40
4.0
 40
4.0
 40
4.0
 40
4.0
 10
79.49060708488447
 20
41.21943129604191
 30
0.0
 10
79.21544365352565
 20
41.21943129604191
 30
0.0
 10
78.98966839233705
 20
41.44168075325691
 30
0.0
 10
78.98966839233705
 20
41.72036998858934
 30
0.0
 10
78.98966839233705
 20
41.99905922392114
 30
0.0
 10
79.21191784955205
 20
42.22130868113613
 30
0.0
 10
79.49060708488447
 20
42.22130868113613
 30
0.0
 10
79.76929632021627
 20
42.22130868113613
 30
0.0
 10
79.99154577743126
 20
41.99905922392114
 30
0.0
 10
79.99154577743126
 20
41.72036998858934
 30
0.0
 10
79.99154577743126
 20
41.44168075325691
 30
0.0
 10
79.76929632021627
 20
41.21943129604191
 30
0.0
 10
79.49060708488447
 20
41.21943129604191
 30
0.0
  0
SPLINE
  5
90
330
70
100
AcDbEntity
  8
PCB holes
 62
     5
420
      255
370
     9
100
AcDbSpline
210
0.0
220
0.0
230
1.0
 70
     9
 71
     3
 72
    17
 73
    13
 74
     0
 42
0.0000000001
 43
0.0000000001
 40
0.0
 40
0.0
 40
0.0
 40
0.0
 40
1.0
 40
1.0
 40
1.0
 40
2.0
 40
2.0
 40
2.0
 40
3.0
 40
3.0
 40
3.0
 40
4.0
 40
4.0
 40
4.0
 40
4.0
 10
79.49060708488447
 20
39.21920232982709
 30
0.0
 10
79.21544365352565
 20
39.21920232982709
 30
0.0
 10
78.98966839233705
 20
39.44145178704209
 30
0.0
 10
78.98966839233705
 20
39.72014102237451
 30
0.0
 10
78.98966839233705
 20
39.99883025770694
 30
0.0
 10
79.21191784955205
 20
40.22107971492195
 30
0.0
 10
79.49060708488447
 20
40.22107971492195
 30
0.0
 10
79.76929632021627
 20
40.22107971492195
 30
0.0
 10
79.99154577743126
 20
39.99883025770694
 30
0.0
 10
79.99154577743126
 20
39.72014102237451
 30
0.0
 10
79.99154577743126
 20
39.44145178704209
 30
0.0
 10
79.76929632021627
 20
39.21920232982709
 30
0.0
 10
79.49060708488447
 20
39.21920232982709
 30
0.0
  0
SPLINE
  5
91
330
70
100
AcDbEntity
  8
PCB holes
 62
     5
420
      255
370
     9
100
AcDbSpline
210
0.0
220
0.0
230
1.0
 70
     9
 71
     3
 72
    17
 73
    13
 74
     0
 42
0.0000000001
 43
0.0000000001
 40
0.0
 40
0.0
 40
0.0
 40
0.0
 40
1.0
 40
1.0
 40
1.0
 40
2.0
 40
2.0
 40
2.0
 40
3.0
 40
3.0
 40
3.0
 40
4.0
 40
4.0
 40
4.0
 40
4.0
 10
79.49060708488447
 20
37.21897336361289
 30
0.0
 10
79.21544365352565
 20
37.21897336361289
 30
0.0
 10
78.98966839233705
 20
37.44122282082789
 30
0.0
 10
78.98966839233705
 20
37.71991205615968
 30
0.0
 10
78.98966839233705
 20
37.99860129149212
 30
0.0
 10
79.21191784955205
 20
38.22085074870712
 30
0.0
 10
79.49060708488447
 20
38.22085074870712
 30
0.0
 10
79.76929632021627
 20
38.22085074870712
 30
0.0
 10
79.99154577743126
 20
37.99860129149212
 30
0.0
 10
79.99154577743126
 20
37.71991205615968
 30
0.0
 10
79.99154577743126
 20
37.44122282082789
 30
0.0
 10
79.76929632021627
 20
37.21897336361289
 30
0.0
 10
79.49060708488447
 20
37.21897336361289
 30
0.0
  0
SPLINE
  5
92
330
70
100
AcDbEntity
  8
PCB holes
 62
     5
420
      255
370
     9
100
AcDbSpline
210
0.0
220
0.0
230
1.0
 70
     9
 71
     3
 72
    17
 73
    13
 74
     0
 42
0.0000000001
 43
0.0000000001
 40
0.0
 40
0.0
 40
0.0
 40
0.0
 40
1.0
 40
1.0
 40
1.0
 40
2.0
 40
2.0
 40
2.0
 40
3.0
 40
3.0
 40
3.0
 40
4.0
 40
4.0
 40
4.0
 40
4.0
 10
79.49060708488447
 20
35.2187443973987
 30
0.0
 10
79.21544365352565
 20
35.2187443973987
 30
0.0
 10
78.98966839233705
 20
35.4409938546137
 30
0.0
 10
78.98966839233705
 20
35.71968308994549
 30
0.0
 10
78.98966839233705
 20
35.99837232527728
 30
0.0
 10
79.21191784955205
 20
36.22062178249228
 30
0.0
 10
79.49060708488447
 20
36.22062178249228
 30
0.0
 10
79.76929632021627
 20
36.22062178249228
 30
0.0
 10
79.99154577743126
 20
35.99837232527728
 30
0.0
 10
79.99154577743126
 20
35.71968308994549
 30
0.0
 10
79.99154577743126
 20
35.4409938546137
 30
0.0
 10
79.76929632021627
 20
35.2187443973987
 30
0.0
 10
79.49060708488447
 20
35.2187443973987
 30
0.0
  0
SPLINE
  5
93
330
70
100
AcDbEntity
  8
PCB holes
 62
     5
420
      255
370
     9
100
AcDbSpline
210
0.0
220
0.0
230
1.0
 70
     9
 71
     3
 72
    17
 73
    13
 74
     0
 42
0.0000000001
 43
0.0000000001
 40
0.0
 40
0.0
 40
0.0
 40
0.0
 40
1.0
 40
1.0
 40
1.0
 40
2.0
 40
2.0
 40
2.0
 40
3.0
 40
3.0
 40
3.0
 40
4.0
 40
4.0
 40
4.0
 40
4.0
 10
79.49060708488447
 20
33.21851543118387
 30
0.0
 10
79.21544365352565
 20
33.21851543118387
 30
0.0
 10
78.98966839233705
 20
33.44076488839887
 30
0.0
 10
78.98966839233705
 20
33.7194541237313
 30
0.0
 10
78.98966839233705
 20
33.99814335906309
 30
0.0
 10
79.21191784955205
 20
34.22039281627809
 30
0.0
 10
79.49060708488447
 20
34.22039281627809
 30
0.0
 10
79.76929632021627
 20
34.22039281627809
 30
0.0
 10
79.99154577743126
 20
33.99814335906309
 30
0.0
 10
79.99154577743126
 20
33.7194541237313
 30
0.0
 10
79.99154577743126
 20
33.44076488839887
 30
0.0
 10
79.76929632021627
 20
33.21851543118387
 30
0.0
 10
79.49060708488447
 20
33.21851543118387
 30
0.0
  0
SPLINE
  5
94
330
70
100
AcDbEntity
  8
PCB holes
 62
     5
420
      255
370
     9
100
AcDbSpline
210
0.0
220
0.0
230
1.0
 70
     9
 71
     3
 72
    17
 73
    13
 74
     0
 42
0.0000000001
 43
0.0000000001
 40
0.0
 40
0.0
 40
0.0
 40
0.0
 40
1.0
 40
1.0
 40
1.0
 40
2.0
 40
2.0
 40
2.0
 40
3.0
 40
3.0
 40
3.0
 40
4.0
 40
4.0
 40
4.0
 40
4.0
 10
77.49037811866964
 20
41.21943129604191
 30
0.0
 10
77.21521468731147
 20
41.21943129604191
 30
0.0
 10
76.98943942612221
 20
41.44168075325691
 30
0.0
 10
76.98943942612221
 20
41.72036998858934
 30
0.0
 10
76.98943942612221
 20
41.99905922392114
 30
0.0
 10
77.21168888333721
 20
42.22130868113613
 30
0.0
 10
77.49037811866964
 20
42.22130868113613
 30
0.0
 10
77.76906735400207
 20
42.22130868113613
 30
0.0
 10
77.99131681121707
 20
41.99905922392114
 30
0.0
 10
77.99131681121707
 20
41.72036998858934
 30
0.0
 10
77.99131681121707
 20
41.44168075325691
 30
0.0
 10
77.76906735400207
 20
41.21943129604191
 30
0.0
 10
77.49037811866964
 20
41.21943129604191
 30
0.0
  0
SPLINE
  5
95
330
70
100
AcDbEntity
  8
PCB holes
 62
     5
420
      255
370
     9
100
AcDbSpline
210
0.0
220
0.0
230
1.0
 70
     9
 71
     3
 72
    17
 73
    13
 74
     0
 42
0.0000000001
 43
0.0000000001
 40
0.0
 40
0.0
 40
0.0
 40
0.0
 40
1.0
 40
1.0
 40
1.0
 40
2.0
 40
2.0
 40
2.0
 40
3.0
 40
3.0
 40
3.0
 40
4.0
 40
4.0
 40
4.0
 40
4.0
 10
77.49037811866964
 20
39.21920232982709
 30
0.0
 10
77.21521468731147
 20
39.21920232982709
 30
0.0
 10
76.98943942612221
 20
39.44145178704209
 30
0.0
 10
76.98943942612221
 20
39.72014102237451
 30
0.0
 10
76.98943942612221
 20
39.99883025770694
 30
0.0
 10
77.21168888333721
 20
40.22107971492195
 30
0.0
 10
77.49037811866964
 20
40.22107971492195
 30
0.0
 10
77.76906735400207
 20
40.22107971492195
 30
0.0
 10
77.99131681121707
 20
39.99883025770694
 30
0.0
 10
77.99131681121707
 20
39.72014102237451
 30
0.0
 10
77.99131681121707
 20
39.44145178704209
 30
0.0
 10
77.76906735400207
 20
39.21920232982709
 30
0.0
 10
77.49037811866964
 20
39.21920232982709
 30
0.0
  0
SPLINE
  5
96
330
70
100
AcDbEntity
  8
PCB holes
 62
     5
420
      255
370
     9
100
AcDbSpline
210
0.0
220
0.0
230
1.0
 70
     9
 71
     3
 72
    17
 73
    13
 74
     0
 42
0.0000000001
 43
0.0000000001
 40
0.0
 40
0.0
 40
0.0
 40
0.0
 40
1.0
 40
1.0
 40
1.0
 40
2.0
 40
2.0
 40
2.0
 40
3.0
 40
3.0
 40
3.0
 40
4.0
 40
4.0
 40
4.0
 40
4.0
 10
77.49037811866964
 20
37.21897336361289
 30
0.0
 10
77.21521468731147
 20
37.21897336361289
 30
0.0
 10
76.98943942612221
 20
37.44122282082789
 30
0.0
 10
76.98943942612221
 20
37.71991205615968
 30
0.0
 10
76.98943942612221
 20
37.99860129149212
 30
0.0
 10
77.21168888333721
 20
38.22085074870712
 30
0.0
 10
77.49037811866964
 20
38.22085074870712
 30
0.0
 10
77.76906735400207
 20
38.22085074870712
 30
0.0
 10
77.99131681121707
 20
37.99860129149212
 30
0.0
 10
77.99131681121707
 20
37.71991205615968
 30
0.0
 10
77.99131681121707
 20
37.44122282082789
 30
0.0
 10
77.76906735400207
 20
37.21897336361289
 30
0.0
 10
77.49037811866964
 20
37.21897336361289
 30
0.0
  0
SPLINE
  5
97
330
70
100
AcDbEntity
  8
PCB holes
 62
     5
420
      255
370
     9
100
AcDbSpline
210
0.0
220
0.0
230
1.0
 70
     9
 71
     3
 72
    17
 73
    13
 74
     0
 42
0.0000000001
 43
0.0000000001
 40
0.0
 40
0.0
 40
0.0
 40
0.0
 40
1.0
 40
1.0
 40
1.0
 40
2.0
 40
2.0
 40
2.0
 40
3.0
 40
3.0
 40
3.0
 40
4.0
 40
4.0
 40
4.0
 40
4.0
 10
77.49037811866964
 20
35.2187443973987
 30
0.0
 10
77.21521468731147
 20
35.2187443973987
 30
0.0
 10
76.98943942612221
 20
35.4409938546137
 30
0.0
 10
76.98943942612221
 20
35.71968308994549
 30
0.0
 10
76.98943942612221
 20
35.99837232527728
 30
0.0
 10
77.21168888333721
 20
36.22062178249228
 30
0.0
 10
77.49037811866964
 20
36.22062178249228
 30
0.0
 10
77.76906735400207
 20
36.22062178249228
 30
0.0
 10
77.99131681121707
 20
35.99837232527728
 30
0.0
 10
77.99131681121707
 20
35.71968308994549
 30
0.0
 10
77.99131681121707
 20
35.4409938546137
 30
0.0
 10
77.76906735400207
 20
35.2187443973987
 30
0.0
 10
77.49037811866964
 20
35.2187443973987
 30
0.0
  0
SPLINE
  5
98
330
70
100
AcDbEntity
  8
PCB holes
 62
     5
420
      255
370
     9
100
AcDbSpline
210
0.0
220
0.0
230
1.0
 70
     9
 71
     3
 72
    17
 73
    13
 74
     0
 42
0.0000000001
 43
0.0000000001
 40
0.0
 40
0.0
 40
0.0
 40
0.0
 40
1.0
 40
1.0
 40
1.0
 40
2.0
 40
2.0
 40
2.0
 40
3.0
 40
3.0
 40
3.0
 40
4.0
 40
4.0
 40
4.0
 40
4.0
 10
77.49037811866964
 20
33.21851543118387
 30
0.0
 10
77.21521468731147
 20
33.21851543118387
 30
0.0
 10
76.98943942612221
 20
33.44076488839887
 30
0.0
 10
76.98943942612221
 20
33.7194541237313
 30
0.0
 10
76.98943942612221
 20
33.99814335906309
 30
0.0
 10
77.21168888333721
 20
34.22039281627809
 30
0.0
 10
77.49037811866964
 20
34.22039281627809
 30
0.0
 10
77.76906735400207
 20
34.22039281627809
 30
0.0
 10
77.99131681121707
 20
33.99814335906309
 30
0.0
 10
77.99131681121707
 20
33.7194541237313
 30
0.0
 10
77.99131681121707
 20
33.44076488839887
 30
0.0
 10
77.76906735400207
 20
33.21851543118387
 30
0.0
 10
77.49037811866964
 20
33.21851543118387
 30
0.0
  0
SPLINE
  5
99
330
70
100
AcDbEntity
  8
PCB holes
 62
     5
420
      255
370
     9
100
AcDbSpline
210
0.0
220
0.0
230
1.0
 70
     9
 71
     3
 72
    17
 73
    13
 74
     0
 42
0.0000000001
 43
0.0000000001
 40
0.0
 40
0.0
 40
0.0
 40
0.0
 40
1.0
 40
1.0
 40
1.0
 40
2.0
 40
2.0
 40
2.0
 40
3.0
 40
3.0
 40
3.0
 40
4.0
 40
4.0
 40
4.0
 40
4.0
 10
75.49014915245513
 20
41.21943667894906
 30
0.0
 10
75.21498572109695
 20
41.21943667894906
 30
0.0
 10
74.98921045990802
 20
41.44168613616407
 30
0.0
 10
74.98921045990802
 20
41.72037537149585
 30
0.0
 10
74.98921045990802
 20
41.99906460682764
 30
0.0
 10
75.21145991712302
 20
42.22131406404264
 30
0.0
 10
75.49014915245513
 20
42.22131406404264
 30
0.0
 10
75.76883838778724
 20
42.22131406404264
 30
0.0
 10
75.99108784500224
 20
41.99906460682764
 30
0.0
 10
75.99108784500224
 20
41.72037537149585
 30
0.0
 10
75.99108784500224
 20
41.44168613616407
 30
0.0
 10
75.76883838778724
 20
41.21943667894906
 30
0.0
 10
75.49014915245513
 20
41.21943667894906
 30
0.0
  0
SPLINE
  5
9A
330
70
100
AcDbEntity
  8
PCB holes
 62
     5
420
      255
370
     9
100
AcDbSpline
210
0.0
220
0.0
230
1.0
 70
     9
 71
     3
 72
    17
 73
    13
 74
     0
 42
0.0000000001
 43
0.0000000001
 40
0.0
 40
0.0
 40
0.0
 40
0.0
 40
1.0
 40
1.0
 40
1.0
 40
2.0
 40
2.0
 40
2.0
 40
3.0
 40
3.0
 40
3.0
 40
4.0
 40
4.0
 40
4.0
 40
4.0
 10
75.49014915245513
 20
39.21920771273423
 30
0.0
 10
75.21498572109695
 20
39.21920771273423
 30
0.0
 10
74.98921045990802
 20
39.44145716994923
 30
0.0
 10
74.98921045990802
 20
39.72014640528167
 30
0.0
 10
74.98921045990802
 20
39.99883564061346
 30
0.0
 10
75.21145991712302
 20
40.22108509782845
 30
0.0
 10
75.49014915245513
 20
40.22108509782845
 30
0.0
 10
75.76883838778724
 20
40.22108509782845
 30
0.0
 10
75.99108784500224
 20
39.99883564061346
 30
0.0
 10
75.99108784500224
 20
39.72014640528167
 30
0.0
 10
75.99108784500224
 20
39.44145716994923
 30
0.0
 10
75.76883838778724
 20
39.21920771273423
 30
0.0
 10
75.49014915245513
 20
39.21920771273423
 30
0.0
  0
SPLINE
  5
9B
330
70
100
AcDbEntity
  8
PCB holes
 62
     5
420
      255
370
     9
100
AcDbSpline
210
0.0
220
0.0
230
1.0
 70
     9
 71
     3
 72
    17
 73
    13
 74
     0
 42
0.0000000001
 43
0.0000000001
 40
0.0
 40
0.0
 40
0.0
 40
0.0
 40
1.0
 40
1.0
 40
1.0
 40
2.0
 40
2.0
 40
2.0
 40
3.0
 40
3.0
 40
3.0
 40
4.0
 40
4.0
 40
4.0
 40
4.0
 10
75.49014915245513
 20
37.2189787465194
 30
0.0
 10
75.21498572109695
 20
37.2189787465194
 30
0.0
 10
74.98921045990802
 20
37.4412282037344
 30
0.0
 10
74.98921045990802
 20
37.71991743906684
 30
0.0
 10
74.98921045990802
 20
37.99860667439926
 30
0.0
 10
75.21145991712302
 20
38.22085613161426
 30
0.0
 10
75.49014915245513
 20
38.22085613161426
 30
0.0
 10
75.76883838778724
 20
38.22085613161426
 30
0.0
 10
75.99108784500224
 20
37.99860667439926
 30
0.0
 10
75.99108784500224
 20
37.71991743906684
 30
0.0
 10
75.99108784500224
 20
37.4412282037344
 30
0.0
 10
75.76883838778724
 20
37.2189787465194
 30
0.0
 10
75.49014915245513
 20
37.2189787465194
 30
0.0
  0
SPLINE
  5
9C
330
70
100
AcDbEntity
  8
PCB holes
 62
     5
420
      255
370
     9
100
AcDbSpline
210
0.0
220
0.0
230
1.0
 70
     9
 71
     3
 72
    17
 73
    13
 74
     0
 42
0.0000000001
 43
0.0000000001
 40
0.0
 40
0.0
 40
0.0
 40
0.0
 40
1.0
 40
1.0
 40
1.0
 40
2.0
 40
2.0
 40
2.0
 40
3.0
 40
3.0
 40
3.0
 40
4.0
 40
4.0
 40
4.0
 40
4.0
 10
75.49014915245513
 20
35.21874978030521
 30
0.0
 10
75.21498572109695
 20
35.21874978030521
 30
0.0
 10
74.98921045990802
 20
35.44099923752021
 30
0.0
 10
74.98921045990802
 20
35.719688472852
 30
0.0
 10
74.98921045990802
 20
35.99837770818444
 30
0.0
 10
75.21145991712302
 20
36.22062716539943
 30
0.0
 10
75.49014915245513
 20
36.22062716539943
 30
0.0
 10
75.76883838778724
 20
36.22062716539943
 30
0.0
 10
75.99108784500224
 20
35.99837770818444
 30
0.0
 10
75.99108784500224
 20
35.719688472852
 30
0.0
 10
75.99108784500224
 20
35.44099923752021
 30
0.0
 10
75.76883838778724
 20
35.21874978030521
 30
0.0
 10
75.49014915245513
 20
35.21874978030521
 30
0.0
  0
SPLINE
  5
9D
330
70
100
AcDbEntity
  8
PCB holes
 62
     5
420
      255
370
     9
100
AcDbSpline
210
0.0
220
0.0
230
1.0
 70
     9
 71
     3
 72
    17
 73
    13
 74
     0
 42
0.0000000001
 43
0.0000000001
 40
0.0
 40
0.0
 40
0.0
 40
0.0
 40
1.0
 40
1.0
 40
1.0
 40
2.0
 40
2.0
 40
2.0
 40
3.0
 40
3.0
 40
3.0
 40
4.0
 40
4.0
 40
4.0
 40
4.0
 10
75.49014915245513
 20
33.21852081409102
 30
0.0
 10
75.21498572109695
 20
33.21852081409102
 30
0.0
 10
74.98921045990802
 20
33.44077027130602
 30
0.0
 10
74.98921045990802
 20
33.71945950663781
 30
0.0
 10
74.98921045990802
 20
33.9981487419696
 30
0.0
 10
75.21145991712302
 20
34.2203981991846
 30
0.0
 10
75.49014915245513
 20
34.2203981991846
 30
0.0
 10
75.76883838778724
 20
34.2203981991846
 30
0.0
 10
75.99108784500224
 20
33.9981487419696
 30
0.0
 10
75.99108784500224
 20
33.71945950663781
 30
0.0
 10
75.99108784500224
 20
33.44077027130602
 30
0.0
 10
75.76883838778724
 20
33.21852081409102
 30
0.0
 10
75.49014915245513
 20
33.21852081409102
 30
0.0
  0
SPLINE
  5
9E
330
70
100
AcDbEntity
  8
PCB holes
 62
     5
420
      255
370
     9
100
AcDbSpline
210
0.0
220
0.0
230
1.0
 70
    11
 71
     3
 72
    20
 73
    16
 74
     0
 42
0.0000000001
 43
0.0000000001
 40
0.0
 40
0.0
 40
0.0
 40
0.0
 40
1.0
 40
1.0
 40
1.0
 40
2.0
 40
2.0
 40
2.0
 40
3.0
 40
3.0
 40
3.0
 40
4.0
 40
4.0
 40
4.0
 40
5.0
 40
5.0
 40
5.0
 40
5.0
 10
71.46499444348808
 20
82.35996544875884
 30
0.0
 10
71.46499444348808
 20
82.35996544875884
 30
0.0
 10
85.4666025898968
 20
82.35996544875884
 30
0.0
 10
85.4666025898968
 20
82.35996544875884
 30
0.0
 10
85.4666025898968
 20
82.35996544875884
 30
0.0
 10
85.4666025898968
 20
68.35835730235043
 30
0.0
 10
85.4666025898968
 20
68.35835730235043
 30
0.0
 10
85.4666025898968
 20
68.35835730235043
 30
0.0
 10
71.46499444348808
 20
68.35835730235043
 30
0.0
 10
71.46499444348808
 20
68.35835730235043
 30
0.0
 10
71.46499444348808
 20
68.35835730235043
 30
0.0
 10
71.46499444348808
 20
82.35997083166566
 30
0.0
 10
71.46499444348808
 20
82.35997083166566
 30
0.0
 10
71.46499444348808
 20
82.35997083166566
 30
0.0
 10
71.46499444348808
 20
82.35996544875884
 30
0.0
 10
71.46499444348808
 20
82.35996544875884
 30
0.0
  0
SPLINE
  5
9F
330
70
100
AcDbEntity
  8
PCB holes
 62
     5
420
      255
370
     9
100
AcDbSpline
210
0.0
220
0.0
230
1.0
 70
    11
 71
     3
 72
    17
 73
    13
 74
     0
 42
0.0000000001
 43
0.0000000001
 40
0.0
 40
0.0
 40
0.0
 40
0.0
 40
1.0
 40
1.0
 40
1.0
 40
2.0
 40
2.0
 40
2.0
 40
3.0
 40
3.0
 40
3.0
 40
4.0
 40
4.0
 40
4.0
 40
4.0
 10
69.36598913693508
 20
18.2644234527573
 30
0.0
 10
69.36598913693508
 20
18.2644234527573
 30
0.0
 10
55.36791217740744
 20
18.2644234527573
 30
0.0
 10
55.36791217740744
 20
18.2644234527573
 30
0.0
 10
55.36791217740744
 20
18.2644234527573
 30
0.0
 10
55.36791217740744
 20
32.26250041228495
 30
0.0
 10
55.36791217740744
 20
32.26250041228495
 30
0.0
 10
55.36791217740744
 20
32.26250041228495
 30
0.0
 10
69.36598913693508
 20
32.26250041228495
 30
0.0
 10
69.36598913693508
 20
32.26250041228495
 30
0.0
 10
69.36598913693508
 20
32.26250041228495
 30
0.0
 10
69.36598913693508
 20
18.2644234527573
 30
0.0
 10
69.36598913693508
 20
18.2644234527573
 30
0.0
  0
SPLINE
  5
A0
330
70
100
AcDbEntity
  8
PCB holes
 62
     5
420
      255
370
     9
100
AcDbSpline
210
0.0
220
0.0
230
1.0
 70
    11
 71
     3
 72
    17
 73
    13
 74
     0
 42
0.0000000001
 43
0.0000000001
 40
0.0
 40
0.0
 40
0.0
 40
0.0
 40
1.0
 40
1.0
 40
1.0
 40
2.0
 40
2.0
 40
2.0
 40
3.0
 40
3.0
 40
3.0
 40
4.0
 40
4.0
 40
4.0
 40
4.0
 10
52.41518861336111
 20
54.26502980645824
 30
0.0
 10
52.41518861336111
 20
54.26502980645824
 30
0.0
 10
66.41679675976952
 20
54.26502980645824
 30
0.0
 10
66.41679675976952
 20
54.26502980645824
 30
0.0
 10
66.41679675976952
 20
54.26502980645824
 30
0.0
 10
66.41679675976952
 20
40.2634216600495
 30
0.0
 10
66.41679675976952
 20
40.2634216600495
 30
0.0
 10
66.41679675976952
 20
40.2634216600495
 30
0.0
 10
52.41518861336111
 20
40.2634216600495
 30
0.0
 10
52.41518861336111
 20
40.2634216600495
 30
0.0
 10
52.41518861336111
 20
40.2634216600495
 30
0.0
 10
52.41518861336111
 20
54.26502980645824
 30
0.0
 10
52.41518861336111
 20
54.26502980645824
 30
0.0
  0
SPLINE
  5
A1
330
70
100
AcDbEntity
  8
PCB holes
 62
     5
420
      255
370
     9
100
AcDbSpline
210
0.0
220
0.0
230
1.0
 70
    11
 71
     3
 72
    20
 73
    16
 74
     0
 42
0.0000000001
 43
0.0000000001
 40
0.0
 40
0.0
 40
0.0
 40
0.0
 40
1.0
 40
1.0
 40
1.0
 40
2.0
 40
2.0
 40
2.0
 40
3.0
 40
3.0
 40
3.0
 40
4.0
 40
4.0
 40
4.0
 40
5.0
 40
5.0
 40
5.0
 40
5.0
 10
36.30399236557108
 20
13.81241499795041
 30
0.0
 10
36.30399236557108
 20
13.81241499795041
 30
0.0
 10
32.68100000881265
 20
27.3342500414693
 30
0.0
 10
32.68100000881265
 20
27.3342500414693
 30
0.0
 10
32.68100000881265
 20
27.3342500414693
 30
0.0
 10
46.20283505233121
 20
30.95724239822741
 30
0.0
 10
46.20283505233121
 20
30.95724239822741
 30
0.0
 10
46.20283505233121
 20
30.95724239822741
 30
0.0
 10
49.82582740908965
 20
17.43540735470916
 30
0.0
 10
49.82582740908965
 20
17.43540735470916
 30
0.0
 10
49.82582740908965
 20
17.43540735470916
 30
0.0
 10
36.30399236557108
 20
13.81241499795041
 30
0.0
 10
36.30399236557108
 20
13.81241499795041
 30
0.0
 10
36.30399236557108
 20
13.81241499795041
 30
0.0
 10
36.30399236557108
 20
13.81241499795041
 30
0.0
 10
36.30399236557108
 20
13.81241499795041
 30
0.0
  0
SPLINE
  5
A2
330
70
100
AcDbEntity
  8
PCB holes
 62
     5
420
      255
370
     9
100
AcDbSpline
210
0.0
220
0.0
230
1.0
 70
     9
 71
     3
 72
    17
 73
    13
 74
     0
 42
0.0000000001
 43
0.0000000001
 40
0.0
 40
0.0
 40
0.0
 40
0.0
 40
1.0
 40
1.0
 40
1.0
 40
2.0
 40
2.0
 40
2.0
 40
3.0
 40
3.0
 40
3.0
 40
4.0
 40
4.0
 40
4.0
 40
4.0
 10
19.03922303529833
 20
4.619120675269051
 30
0.0
 10
19.03922303529833
 20
4.619120675269051
 30
0.0
 10
12.04018320980787
 20
16.74396758943263
 30
0.0
 10
12.04018320980787
 20
16.74396758943263
 30
0.0
 10
12.04018320980787
 20
16.74396758943263
 30
0.0
 10
24.16503146969809
 20
23.74300606919646
 30
0.0
 10
24.16503146969809
 20
23.74300606919646
 30
0.0
 10
24.16503146969809
 20
23.74300606919646
 30
0.0
 10
31.16406994946191
 20
11.61815915503287
 30
0.0
 10
31.16406994946191
 20
11.61815915503287
 30
0.0
 10
31.16406994946191
 20
11.61815915503287
 30
0.0
 10
19.03922168957169
 20
4.619120675269051
 30
0.0
 10
19.03922303529833
 20
4.619120675269051
 30
0.0
  0
SPLINE
  5
A3
330
70
100
AcDbEntity
  8
PCB holes
 62
     5
420
      255
370
     9
100
AcDbSpline
210
0.0
220
0.0
230
1.0
 70
    11
 71
     3
 72
    20
 73
    16
 74
     0
 42
0.0000000001
 43
0.0000000001
 40
0.0
 40
0.0
 40
0.0
 40
0.0
 40
1.0
 40
1.0
 40
1.0
 40
2.0
 40
2.0
 40
2.0
 40
3.0
 40
3.0
 40
3.0
 40
4.0
 40
4.0
 40
4.0
 40
5.0
 40
5.0
 40
5.0
 40
5.0
 10
8.209055377543847
 20
46.68744188346609
 30
0.0
 10
8.209055377543847
 20
46.68744188346609
 30
0.0
 10
21.808499826017
 20
46.68744188346609
 30
0.0
 10
21.808499826017
 20
46.68744188346609
 30
0.0
 10
21.808499826017
 20
46.68744188346609
 30
0.0
 10
21.808499826017
 20
33.48663263750133
 30
0.0
 10
21.808499826017
 20
33.48663263750133
 30
0.0
 10
21.808499826017
 20
33.48663263750133
 30
0.0
 10
8.209055377543847
 20
33.48663263750133
 30
0.0
 10
8.209055377543847
 20
33.48663263750133
 30
0.0
 10
8.209055377543847
 20
33.48663263750133
 30
0.0
 10
8.209055377543847
 20
46.68744188346609
 30
0.0
 10
8.209055377543847
 20
46.68744188346609
 30
0.0
 10
8.209055377543847
 20
46.68744188346609
 30
0.0
 10
8.209055377543847
 20
46.68744188346609
 30
0.0
 10
8.209055377543847
 20
46.68744188346609
 30
0.0
  0
SPLINE
  5
A4
330
70
100
AcDbEntity
  8
PCB holes
 62
     5
420
      255
370
     9
100
AcDbSpline
210
0.0
220
0.0
230
1.0
 70
     9
 71
     3
 72
    17
 73
    13
 74
     0
 42
0.0000000001
 43
0.0000000001
 40
0.0
 40
0.0
 40
0.0
 40
0.0
 40
1.0
 40
1.0
 40
1.0
 40
2.0
 40
2.0
 40
2.0
 40
3.0
 40
3.0
 40
3.0
 40
4.0
 40
4.0
 40
4.0
 40
4.0
 10
2.656389664771571
 20
17.81287831328659
 30
0.0
 10
2.077840053327299
 20
17.81287831328659
 30
0.0
 10
1.605122595565531
 20
18.28206862134747
 30
0.0
 10
1.605122595565531
 20
18.86414386854973
 30
0.0
 10
1.605122595565531
 20
19.44621911575199
 30
0.0
 10
2.074312230763263
 20
19.91540942381287
 30
0.0
 10
2.656389664771571
 20
19.91540942381287
 30
0.0
 10
3.238467098779559
 20
19.91540942381287
 30
0.0
 10
3.707656733977612
 20
19.44621911575199
 30
0.0
 10
3.707656733977612
 20
18.86414386854973
 30
0.0
 10
3.707656733977612
 20
18.28206862134747
 30
0.0
 10
3.238467098779559
 20
17.81287831328659
 30
0.0
 10
2.656389664771571
 20
17.81287831328659
 30
0.0
  0
SPLINE
  5
A5
330
70
100
AcDbEntity
  8
PCB holes
 62
     5
420
      255
370
     9
100
AcDbSpline
210
0.0
220
0.0
230
1.0
 70
    11
 71
     3
 72
    17
 73
    13
 74
     0
 42
0.0000000001
 43
0.0000000001
 40
0.0
 40
0.0
 40
0.0
 40
0.0
 40
1.0
 40
1.0
 40
1.0
 40
2.0
 40
2.0
 40
2.0
 40
3.0
 40
3.0
 40
3.0
 40
4.0
 40
4.0
 40
4.0
 40
4.0
 10
29.08270442859226
 20
73.90397325754898
 30
0.0
 10
29.08270442859226
 20
73.90397325754898
 30
0.0
 10
29.08270442859226
 20
59.08745761189468
 30
0.0
 10
29.08270442859226
 20
59.08745761189468
 30
0.0
 10
29.08270442859226
 20
59.08745761189468
 30
0.0
 10
2.695194703680601
 20
59.08745761189468
 30
0.0
 10
2.695194703680601
 20
59.08745761189468
 30
0.0
 10
2.695194703680601
 20
59.08745761189468
 30
0.0
 10
2.695194703680601
 20
73.90397325754898
 30
0.0
 10
2.695194703680601
 20
73.90397325754898
 30
0.0
 10
2.695194703680601
 20
73.90397325754898
 30
0.0
 10
29.08270442859226
 20
73.90397325754898
 30
0.0
 10
29.08270442859226
 20
73.90397325754898
 30
0.0
  0
SPLINE
  5
A6
330
70
100
AcDbEntity
  8
PCB holes
 62
     5
420
      255
370
     9
100
AcDbSpline
210
0.0
220
0.0
230
1.0
 70
     9
 71
     3
 72
    17
 73
    13
 74
     0
 42
0.0000000001
 43
0.0000000001
 40
0.0
 40
0.0
 40
0.0
 40
0.0
 40
1.0
 40
1.0
 40
1.0
 40
2.0
 40
2.0
 40
2.0
 40
3.0
 40
3.0
 40
3.0
 40
4.0
 40
4.0
 40
4.0
 40
4.0
 10
2.656389664771571
 20
99.34251973972555
 30
0.0
 10
3.234939276215844
 20
99.34251973972555
 30
0.0
 10
3.707656733977612
 20
98.87333010452781
 30
0.0
 10
3.707656733977612
 20
98.29125283873544
 30
0.0
 10
3.707656733977612
 20
97.7091755729431
 30
0.0
 10
3.238467098779559
 20
97.23998593774537
 30
0.0
 10
2.656389664771571
 20
97.23998593774537
 30
0.0
 10
2.074312230763263
 20
97.23998593774537
 30
0.0
 10
1.605122595565531
 20
97.7091755729431
 30
0.0
 10
1.605122595565531
 20
98.29125283873544
 30
0.0
 10
1.605122595565531
 20
98.87333010452781
 30
0.0
 10
2.074312230763263
 20
99.34251973972555
 30
0.0
 10
2.656389664771571
 20
99.34251973972555
 30
0.0
  0
SPLINE
  5
A7
330
70
100
AcDbEntity
  8
PCB holes
 62
     5
420
      255
370
     9
100
AcDbSpline
210
0.0
220
0.0
230
1.0
 70
     9
 71
     3
 72
    17
 73
    13
 74
     0
 42
0.0000000001
 43
0.0000000001
 40
0.0
 40
0.0
 40
0.0
 40
0.0
 40
1.0
 40
1.0
 40
1.0
 40
2.0
 40
2.0
 40
2.0
 40
3.0
 40
3.0
 40
3.0
 40
4.0
 40
4.0
 40
4.0
 40
4.0
 10
33.4218279442581
 20
51.21354066788708
 30
0.0
 10
33.4218279442581
 20
51.21354066788708
 30
0.0
 10
47.41991028669256
 20
51.21354066788708
 30
0.0
 10
47.41991028669256
 20
51.21354066788708
 30
0.0
 10
47.41991028669256
 20
51.21354066788708
 30
0.0
 10
47.41991028669256
 20
37.21193252147868
 30
0.0
 10
47.41991028669256
 20
37.21193252147868
 30
0.0
 10
47.41991028669256
 20
37.21193252147868
 30
0.0
 10
33.42183063571167
 20
37.21193252147868
 30
0.0
 10
33.42183063571167
 20
37.21193252147868
 30
0.0
 10
33.42183063571167
 20
37.21193252147868
 30
0.0
 10
33.42183063571167
 20
51.21354066788708
 30
0.0
 10
33.4218279442581
 20
51.21354066788708
 30
0.0
  0
SPLINE
  5
A8
330
70
100
AcDbEntity
  8
PCB holes
 62
     5
420
      255
370
     9
100
AcDbSpline
210
0.0
220
0.0
230
1.0
 70
     9
 71
     3
 72
    17
 73
    13
 74
     0
 42
0.0000000001
 43
0.0000000001
 40
0.0
 40
0.0
 40
0.0
 40
0.0
 40
1.0
 40
1.0
 40
1.0
 40
2.0
 40
2.0
 40
2.0
 40
3.0
 40
3.0
 40
3.0
 40
4.0
 40
4.0
 40
4.0
 40
4.0
 10
33.4218279442581
 20
70.3127346681833
 30
0.0
 10
33.4218279442581
 20
70.3127346681833
 30
0.0
 10
47.41991028669256
 20
70.3127346681833
 30
0.0
 10
47.41991028669256
 20
70.3127346681833
 30
0.0
 10
47.41991028669256
 20
70.3127346681833
 30
0.0
 10
47.41991028669256
 20
56.31112652177488
 30
0.0
 10
47.41991028669256
 20
56.31112652177488
 30
0.0
 10
47.41991028669256
 20
56.31112652177488
 30
0.0
 10
33.42183063571167
 20
56.31112652177488
 30
0.0
 10
33.42183063571167
 20
56.31112652177488
 30
0.0
 10
33.42183063571167
 20
56.31112652177488
 30
0.0
 10
33.42183063571167
 20
70.3127346681833
 30
0.0
 10
33.4218279442581
 20
70.3127346681833
 30
0.0
  0
SPLINE
  5
A9
330
70
100
AcDbEntity
  8
PCB holes
 62
     5
420
      255
370
     9
100
AcDbSpline
210
0.0
220
0.0
230
1.0
 70
     9
 71
     3
 72
    17
 73
    13
 74
     0
 42
0.0000000001
 43
0.0000000001
 40
0.0
 40
0.0
 40
0.0
 40
0.0
 40
1.0
 40
1.0
 40
1.0
 40
2.0
 40
2.0
 40
2.0
 40
3.0
 40
3.0
 40
3.0
 40
4.0
 40
4.0
 40
4.0
 40
4.0
 10
33.45005052477006
 20
89.41192732275288
 30
0.0
 10
33.45005052477006
 20
89.41192732275288
 30
0.0
 10
47.44812748429771
 20
89.41192732275288
 30
0.0
 10
47.44812748429771
 20
89.41192732275288
 30
0.0
 10
47.44812748429771
 20
89.41192732275288
 30
0.0
 10
47.44812748429771
 20
75.41032052207109
 30
0.0
 10
47.44812748429771
 20
75.41032052207109
 30
0.0
 10
47.44812748429771
 20
75.41032052207109
 30
0.0
 10
33.45004783331681
 20
75.41032052207109
 30
0.0
 10
33.45004783331681
 20
75.41032052207109
 30
0.0
 10
33.45004783331681
 20
75.41032052207109
 30
0.0
 10
33.45004783331681
 20
89.41192597702624
 30
0.0
 10
33.45005052477006
 20
89.41192732275288
 30
0.0
  0
SPLINE
  5
AA
330
70
100
AcDbEntity
  8
PCB holes
 62
     5
420
      255
370
     9
100
AcDbSpline
210
0.0
220
0.0
230
1.0
 70
     9
 71
     3
 72
    17
 73
    13
 74
     0
 42
0.0000000001
 43
0.0000000001
 40
0.0
 40
0.0
 40
0.0
 40
0.0
 40
1.0
 40
1.0
 40
1.0
 40
2.0
 40
2.0
 40
2.0
 40
3.0
 40
3.0
 40
3.0
 40
4.0
 40
4.0
 40
4.0
 40
4.0
 10
52.44341119387308
 20
73.29014693440725
 30
0.0
 10
52.44341119387308
 20
73.29014693440725
 30
0.0
 10
66.44501934028149
 20
73.29014693440725
 30
0.0
 10
66.44501934028149
 20
73.29014693440725
 30
0.0
 10
66.44501934028149
 20
73.29014693440725
 30
0.0
 10
66.44501934028149
 20
59.28854147945241
 30
0.0
 10
66.44501934028149
 20
59.28854147945241
 30
0.0
 10
66.44501934028149
 20
59.28854147945241
 30
0.0
 10
52.44341119387308
 20
59.28854147945241
 30
0.0
 10
52.44341119387308
 20
59.28854147945241
 30
0.0
 10
52.44341119387308
 20
59.28854147945241
 30
0.0
 10
52.44341119387308
 20
73.29014962586082
 30
0.0
 10
52.44341119387308
 20
73.29014693440725
 30
0.0
  0
SPLINE
  5
AB
330
70
100
AcDbEntity
  8
PCB holes
 62
     5
420
      255
370
     9
100
AcDbSpline
210
0.0
220
0.0
230
1.0
 70
    11
 71
     3
 72
    17
 73
    13
 74
     0
 42
0.0000000001
 43
0.0000000001
 40
0.0
 40
0.0
 40
0.0
 40
0.0
 40
1.0
 40
1.0
 40
1.0
 40
2.0
 40
2.0
 40
2.0
 40
3.0
 40
3.0
 40
3.0
 40
4.0
 40
4.0
 40
4.0
 40
4.0
 10
52.44341119387308
 20
92.37522964444762
 30
0.0
 10
52.44341119387308
 20
92.37522964444762
 30
0.0
 10
66.44501934028149
 20
92.37522964444762
 30
0.0
 10
66.44501934028149
 20
92.37522964444762
 30
0.0
 10
66.44501934028149
 20
92.37522964444762
 30
0.0
 10
66.44501934028149
 20
78.37714999346673
 30
0.0
 10
66.44501934028149
 20
78.37714999346673
 30
0.0
 10
66.44501934028149
 20
78.37714999346673
 30
0.0
 10
52.44341119387308
 20
78.37714999346673
 30
0.0
 10
52.44341119387308
 20
78.37714999346673
 30
0.0
 10
52.44341119387308
 20
78.37714999346673
 30
0.0
 10
52.44341119387308
 20
92.37522964444762
 30
0.0
 10
52.44341119387308
 20
92.37522964444762
 30
0.0
  0
SPLINE
  5
AC
330
70
100
AcDbEntity
  8
PCB holes
 62
     5
420
      255
370
     9
100
AcDbSpline
210
0.0
220
0.0
230
1.0
 70
     9
 71
     3
 72
    17
 73
    13
 74
     0
 42
0.0000000001
 43
0.0000000001
 40
0.0
 40
0.0
 40
0.0
 40
0.0
 40
1.0
 40
1.0
 40
1.0
 40
2.0
 40
2.0
 40
2.0
 40
3.0
 40
3.0
 40
3.0
 40
4.0
 40
4.0
 40
4.0
 40
4.0
 10
64.72347960939909
 20
99.30371470081652
 30
0.0
 10
65.30202905262742
 20
99.30371470081652
 30
0.0
 10
65.77474516466256
 20
98.83452472918721
 30
0.0
 10
65.77474516466256
 20
98.25244746339485
 30
0.0
 10
65.77474516466256
 20
97.67037019760248
 30
0.0
 10
65.30555485660134
 20
97.20118056240444
 30
0.0
 10
64.72347960939909
 20
97.20118056240444
 30
0.0
 10
64.14140436219684
 20
97.20118056240444
 30
0.0
 10
63.67221405413562
 20
97.67037019760248
 30
0.0
 10
63.67221405413562
 20
98.25244746339485
 30
0.0
 10
63.67221405413562
 20
98.83452472918721
 30
0.0
 10
64.14140436219684
 20
99.30371436438493
 30
0.0
 10
64.72347960939909
 20
99.30371470081652
 30
0.0
  0
SPLINE
  5
AD
330
70
100
AcDbEntity
  8
PCB holes
 62
     5
420
      255
370
     9
100
AcDbSpline
210
0.0
220
0.0
230
1.0
 70
    11
 71
     3
 72
    17
 73
    13
 74
     0
 42
0.0000000001
 43
0.0000000001
 40
0.0
 40
0.0
 40
0.0
 40
0.0
 40
1.0
 40
1.0
 40
1.0
 40
2.0
 40
2.0
 40
2.0
 40
3.0
 40
3.0
 40
3.0
 40
4.0
 40
4.0
 40
4.0
 40
4.0
 10
71.46499444348808
 20
101.374499109016
 30
0.0
 10
71.46499444348808
 20
101.374499109016
 30
0.0
 10
85.4666025898968
 20
101.374499109016
 30
0.0
 10
85.4666025898968
 20
101.374499109016
 30
0.0
 10
85.4666025898968
 20
101.374499109016
 30
0.0
 10
85.4666025898968
 20
87.37289163547112
 30
0.0
 10
85.4666025898968
 20
87.37289163547112
 30
0.0
 10
85.4666025898968
 20
87.37289163547112
 30
0.0
 10
71.46499444348808
 20
87.37289163547112
 30
0.0
 10
71.46499444348808
 20
87.37289163547112
 30
0.0
 10
71.46499444348808
 20
87.37289163547112
 30
0.0
 10
71.46499444348808
 20
101.374499109016
 30
0.0
 10
71.46499444348808
 20
101.374499109016
 30
0.0
  0
SPLINE
  5
AE
330
70
100
AcDbEntity
  8
PCB holes
 62
     5
420
      255
370
     9
100
AcDbSpline
210
0.0
220
0.0
230
1.0
 70
    11
 71
     3
 72
   131
 73
   127
 74
     0
 42
0.0000000001
 43
0.0000000001
 40
0.0
 40
0.0
 40
0.0
 40
0.0
 40
1.0
 40
1.0
 40
1.0
 40
2.0
 40
2.0
 40
2.0
 40
3.0
 40
3.0
 40
3.0
 40
4.0
 40
4.0
 40
4.0
 40
5.0
 40
5.0
 40
5.0
 40
6.0
 40
6.0
 40
6.0
 40
7.0
 40
7.0
 40
7.0
 40
8.0
 40
8.0
 40
8.0
 40
9.0
 40
9.0
 40
9.0
 40
10.0
 40
10.0
 40
10.0
 40
11.0
 40
11.0
 40
11.0
 40
12.0
 40
12.0
 40
12.0
 40
13.0
 40
13.0
 40
13.0
 40
14.0
 40
14.0
 40
14.0
 40
15.0
 40
15.0
 40
15.0
 40
16.0
 40
16.0
 40
16.0
 40
17.0
 40
17.0
 40
17.0
 40
18.0
 40
18.0
 40
18.0
 40
19.0
 40
19.0
 40
19.0
 40
20.0
 40
20.0
 40
20.0
 40
21.0
 40
21.0
 40
21.0
 40
22.0
 40
22.0
 40
22.0
 40
23.0
 40
23.0
 40
23.0
 40
24.0
 40
24.0
 40
24.0
 40
25.0
 40
25.0
 40
25.0
 40
26.0
 40
26.0
 40
26.0
 40
27.0
 40
27.0
 40
27.0
 40
28.0
 40
28.0
 40
28.0
 40
29.0
 40
29.0
 40
29.0
 40
30.0
 40
30.0
 40
30.0
 40
31.0
 40
31.0
 40
31.0
 40
32.0
 40
32.0
 40
32.0
 40
33.0
 40
33.0
 40
33.0
 40
34.0
 40
34.0
 40
34.0
 40
35.0
 40
35.0
 40
35.0
 40
36.0
 40
36.0
 40
36.0
 40
37.0
 40
37.0
 40
37.0
 40
38.0
 40
38.0
 40
38.0
 40
39.0
 40
39.0
 40
39.0
 40
40.0
 40
40.0
 40
40.0
 40
41.0
 40
41.0
 40
41.0
 40
42.0
 40
42.0
 40
42.0
 40
42.0
 10
149.7385262940109
 20
60.93246776820002
 30
0.0
 10
149.7385262940109
 20
60.93246776820002
 30
0.0
 10
131.7329290282927
 20
64.11096390198203
 30
0.0
 10
131.7329290282927
 20
64.11096390198203
 30
0.0
 10
131.7329290282927
 20
64.11096390198203
 30
0.0
 10
134.0577095960346
 20
77.30119035311848
 30
0.0
 10
134.0577095960346
 20
77.30119035311848
 30
0.0
 10
134.1247375518872
 20
77.68218711566984
 30
0.0
 10
133.8707397101863
 20
78.04554409253786
 30
0.0
 10
133.4897483305417
 20
78.11257204839043
 30
0.0
 10
133.4897483305417
 20
78.11257204839043
 30
0.0
 10
129.6833118919089
 20
78.7863720279833
 30
0.0
 10
129.6833118919089
 20
78.7863720279833
 30
0.0
 10
129.6833118919089
 20
78.7863720279833
 30
0.0
 10
129.6833118919089
 20
100.2032885958717
 30
0.0
 10
129.6833118919089
 20
100.2032885958717
 30
0.0
 10
129.6833118919089
 20
100.5913403306876
 30
0.0
 10
129.3693377023033
 20
100.9017816512543
 30
0.0
 10
128.984815135778
 20
100.9017816512543
 30
0.0
 10
128.984815135778
 20
100.9017816512543
 30
0.0
 10
88.97669385879337
 20
100.9017816512543
 30
0.0
 10
88.97669385879337
 20
100.9017816512543
 30
0.0
 10
88.97669385879337
 20
100.9017816512543
 30
0.0
 10
88.97669385879337
 20
104.1508318812944
 30
0.0
 10
88.97669385879337
 20
104.1508318812944
 30
0.0
 10
88.97669385879337
 20
104.5388834899484
 30
0.0
 10
88.66272505209428
 20
104.8493247684607
 30
0.0
 10
88.27820248556962
 20
104.8493247684607
 30
0.0
 10
88.27820248556962
 20
104.8493247684607
 30
0.0
 10
68.65337301618794
 20
104.8493247684607
 30
0.0
 10
68.65337301618794
 20
104.8493247684607
 30
0.0
 10
68.26531926278189
 20
104.8493247684607
 30
0.0
 10
67.95488164296386
 20
104.5353557514922
 30
0.0
 10
67.95488164296386
 20
104.1508318812944
 30
0.0
 10
67.95488164296386
 20
104.1508318812944
 30
0.0
 10
67.95488164296386
 20
100.9017816512543
 30
0.0
 10
67.95488164296386
 20
100.9017816512543
 30
0.0
 10
67.95488164296386
 20
100.9017816512543
 30
0.0
 10
0.7478812255518421
 20
100.9017816512543
 30
0.0
 10
0.7478812255518421
 20
100.9017816512543
 30
0.0
 10
0.3598296168974449
 20
100.9017816512543
 30
0.0
 10
0.0493883383851899
 20
100.5878125081236
 30
0.0
 10
0.0493883383851899
 20
100.2032889323032
 30
0.0
 10
0.0493883383851899
 20
100.2032889323032
 30
0.0
 10
0.0493883383851899
 20
4.760238960735734
 30
0.0
 10
0.0493883383851899
 20
4.760238960735734
 30
0.0
 10
0.0493883383851899
 20
4.372185207329676
 30
0.0
 10
0.3633573553536674
 20
4.061742204604827
 30
0.0
 10
0.7478812255518421
 20
4.061742204604827
 30
0.0
 10
0.7478812255518421
 20
4.061742204604827
 30
0.0
 10
15.32450998332949
 20
4.061742204604827
 30
0.0
 10
15.32450998332949
 20
4.061742204604827
 30
0.0
 10
15.32450998332949
 20
4.061742204604827
 30
0.0
 10
17.43762792586493
 20
0.3999444725057934
 30
0.0
 10
17.43762792586493
 20
0.3999444725057934
 30
0.0
 10
17.63165345684133
 20
0.0648046932429103
 30
0.0
 10
18.06203838956193
 20
-0.0516060498720771
 30
0.0
 10
18.39717413164461
 20
0.1459466308048875
 30
0.0
 10
18.39717413164461
 20
0.1459466308048875
 30
0.0
 10
24.61305618810202
 20
3.758350809827851
 30
0.0
 10
24.61305618810202
 20
3.758350809827851
 30
0.0
 10
24.64480457258793
 20
3.783047586365886
 30
0.0
 10
24.6800841439546
 20
3.804213176023157
 30
0.0
 10
24.7153610238677
 20
3.821847578799662
 30
0.0
 10
24.74358360437999
 20
3.843013168456932
 30
0.0
 10
24.77180618489164
 20
3.860647571233437
 30
0.0
 10
24.80355456937755
 20
3.878292739823603
 30
0.0
 10
25.31507605675361
 20
4.202849724257851
 30
0.0
 10
25.82660023558262
 20
4.516813148049803
 30
0.0
 10
26.34165021838587
 20
4.82020454282678
 30
0.0
 10
26.51450881397805
 20
4.926032491113132
 30
0.0
 10
26.69089590499775
 20
5.024808831451615
 30
0.0
 10
26.86375719204351
 20
5.127116358670862
 30
0.0
 10
32.40231077348054
 20
8.326780773563392
 30
0.0
 10
38.34655789400695
 20
10.81736563749638
 30
0.0
 10
44.0015276014658
 20
12.33076989287318
 30
0.0
 10
50.16096180544569
 20
13.98175048102224
 30
0.0
 10
56.50384547420681
 20
14.84252034646344
 30
0.0
 10
62.38459044285459
 20
14.86368593612071
 30
0.0
 10
62.38459044285459
 20
14.86368593612071
 30
0.0
 10
72.19876538807882
 20
14.86368593612071
 30
0.0
 10
72.19876538807882
 20
14.86368593612071
 30
0.0
 10
72.58681914148488
 20
14.86368593612071
 30
0.0
 10
72.8972567613029
 20
15.17765474281917
 30
0.0
 10
72.8972567613029
 20
15.5621773093451
 30
0.0
 10
72.8972567613029
 20
15.5621773093451
 30
0.0
 10
72.8972567613029
 20
28.62187903565685
 30
0.0
 10
72.8972567613029
 20
28.62187903565685
 30
0.0
 10
72.8972567613029
 20
28.62187903565685
 30
0.0
 10
88.87792828426855
 20
28.62187903565685
 30
0.0
 10
88.87792828426855
 20
28.62187903565685
 30
0.0
 10
88.87792828426855
 20
28.62187903565685
 30
0.0
 10
103.969607361281
 20
27.56355648953868
 30
0.0
 10
103.969607361281
 20
27.56355648953868
 30
0.0
 10
103.969607361281
 20
27.56355648953868
 30
0.0
 10
103.3628353375407
 20
24.13106520550903
 30
0.0
 10
103.3628353375407
 20
24.13106520550903
 30
0.0
 10
103.2958073816881
 20
23.75006844295799
 30
0.0
 10
103.549805223389
 20
23.38671146608997
 30
0.0
 10
103.9307966030336
 20
23.31968351023739
 30
0.0
 10
103.9307966030336
 20
23.31968351023739
 30
0.0
 10
123.1993207034948
 20
19.92246641466789
 30
0.0
 10
123.1993207034948
 20
19.92246641466789
 30
0.0
 10
123.5803120831393
 20
19.85543845881531
 30
0.0
 10
123.9436690600073
 20
20.10943630051623
 30
0.0
 10
124.0106970158599
 20
20.49043306306726
 30
0.0
 10
124.0106970158599
 20
20.49043306306726
 30
0.0
 10
124.7515249513053
 20
24.69197486305466
 30
0.0
 10
124.7515249513053
 20
24.69197486305466
 30
0.0
 10
124.7515249513053
 20
24.69197486305466
 30
0.0
 10
142.7888706015094
 20
21.50995023384514
 30
0.0
 10
142.7888706015094
 20
21.50995023384514
 30
0.0
 10
143.1698619811539
 20
21.44292227799256
 30
0.0
 10
143.533218958022
 20
21.69692011969347
 30
0.0
 10
143.6002469138746
 20
22.07791688224451
 30
0.0
 10
143.6002469138746
 20
22.07791688224451
 30
0.0
 10
150.3100079805708
 20
60.124611876902
 30
0.0
 10
150.3100079805708
 20
60.124611876902
 30
0.0
 10
150.3770359364234
 20
60.50560863945368
 30
0.0
 10
150.1230380947225
 20
60.8689656163217
 30
0.0
 10
149.742046715078
 20
60.93599357217428
 30
0.0
 10
149.742046715078
 20
60.93599357217428
 30
0.0
 10
149.742046715078
 20
60.93599357217428
 30
0.0
 10
149.742046715078
 20
60.93599357217428
 30
0.0
 10
149.742046715078
 20
60.93599357217428
 30
0.0
 10
149.7385262940109
 20
60.93246776820002
 30
0.0
 10
149.7385262940109
 20
60.93246776820002
 30
0.0
  0
ENDSEC
  0
SECTION
  2
OBJECTS
  0
DICTIONARY
  5
C
330
0
100
AcDbDictionary
281
     1
  3
ACAD_COLOR
350
63
  3
ACAD_DETAILVIEWSTYLE
350
6A
  3
ACAD_GROUP
350
D
  3
ACAD_LAYOUT
350
62
  3
ACAD_MATERIAL
350
10
  3
ACAD_MLEADERSTYLE
350
66
  3
ACAD_MLINESTYLE
350
5F
  3
ACAD_PLOTSETTINGS
350
61
  3
ACAD_PLOTSTYLENAME
350
E
  3
ACAD_SCALELIST
350
42
  3
ACAD_SECTIONVIEWSTYLE
350
68
  3
ACAD_TABLESTYLE
350
64
  3
ACAD_VISUALSTYLE
350
29
  3
ACDB_RECOMPOSE_DATA
350
B7
  3
AcDbVariableDictionary
350
AF
  0
DICTIONARY
  5
63
102
{ACAD_REACTORS
330
C
102
}
330
C
100
AcDbDictionary
281
     1
  0
DICTIONARY
  5
6A
102
{ACAD_REACTORS
330
C
102
}
330
C
100
AcDbDictionary
281
     1
  3
Imperial24
350
6B
  0
DICTIONARY
  5
D
102
{ACAD_REACTORS
330
C
102
}
330
C
100
AcDbDictionary
281
     1
  0
DICTIONARY
  5
62
102
{ACAD_REACTORS
330
C
102
}
330
C
100
AcDbDictionary
281
     1
  3
Layout1
350
6F
  3
Layout2
350
77
  3
Model
350
73
  0
DICTIONARY
  5
10
102
{ACAD_REACTORS
330
C
102
}
330
C
100
AcDbDictionary
281
     1
  3
ByBlock
350
19
  3
ByLayer
350
11
  3
Global
350
21
  0
DICTIONARY
  5
66
102
{ACAD_REACTORS
330
C
102
}
330
C
100
AcDbDictionary
281
     1
  3
Standard
350
67
  0
DICTIONARY
  5
5F
102
{ACAD_REACTORS
330
C
102
}
330
C
100
AcDbDictionary
281
     1
  3
Standard
350
60
  0
DICTIONARY
  5
61
102
{ACAD_REACTORS
330
C
102
}
330
C
100
AcDbDictionary
281
     1
  0
ACDBDICTIONARYWDFLT
  5
E
102
{ACAD_REACTORS
330
C
102
}
330
C
100
AcDbDictionary
281
     1
  3
Normal
350
F
100
AcDbDictionaryWithDefault
340
F
  0
DICTIONARY
  5
42
102
{ACAD_REACTORS
330
C
102
}
330
C
100
AcDbDictionary
281
     1
  3
A0
350
43
  3
A1
350
44
  3
A2
350
45
  3
A3
350
46
  3
A4
350
47
  3
A5
350
48
  3
A6
350
49
  3
A7
350
4A
  3
A8
350
4B
  3
A9
350
4C
  3
B0
350
4D
  3
B1
350
4E
  3
B2
350
4F
  3
B3
350
50
  3
B4
350
51
  3
B5
350
52
  3
B6
350
53
  0
DICTIONARY
  5
68
102
{ACAD_REACTORS
330
C
102
}
330
C
100
AcDbDictionary
281
     1
  3
Imperial24
350
69
  0
DICTIONARY
  5
64
102
{ACAD_REACTORS
330
C
102
}
330
C
100
AcDbDictionary
281
     1
  3
Standard
350
65
  0
DICTIONARY
  5
29
102
{ACAD_REACTORS
330
C
102
}
330
C
100
AcDbDictionary
281
     1
  3
2dWireframe
350
2F
  3
Basic
350
2E
  3
Brighten
350
35
  3
ColorChange
350
39
  3
Conceptual
350
32
  3
Dim
350
34
  3
EdgeColorOff
350
41
  3
Facepattern
350
38
  3
Flat
350
2A
  3
FlatWithEdges
350
2B
  3
Gouraud
350
2C
  3
GouraudWithEdges
350
2D
  3
Hidden
350
31
  3
JitterOff
350
3F
  3
Linepattern
350
37
  3
OverhangOff
350
40
  3
Realistic
350
33
  3
Shaded
350
3E
  3
Shaded with edges
350
3D
  3
Shades of Gray
350
3A
  3
Sketchy
350
3B
  3
Thicken
350
36
  3
Wireframe
350
30
  3
X-Ray
350
3C
  0
XRECORD
  5
B7
102
{ACAD_REACTORS
330
C
102
}
330
C
100
AcDbXrecord
280
     1
 90
        1
330
65
  0
DICTIONARY
  5
AF
102
{ACAD_REACTORS
330
C
102
}
330
C
100
AcDbDictionary
281
     1
  3
CANNOSCALE
350
B4
  3
CMLEADERSTYLE
350
B1
  3
CTABLESTYLE
350
B0
  3
CVIEWDETAILSTYLE
350
B2
  3
CVIEWSECTIONSTYLE
350
B3
  0
ACDBDETAILVIEWSTYLE
  5
6B
102
{ACAD_REACTORS
330
6A
102
}
330
6A
100
AcDbModelDocViewStyle
 70
     0
  3
Imperial24
290
     1
300
Imperial24
 90
        0
100
AcDbDetailViewStyle
 70
     0
 71
     0
 90
        3
 71
     1
340
55
 62
   256
 40
0.24
340
0
 62
   256
 40
0.24
300

 40
0.36
280
     3
 71
     2
340
5D
 90
       25
 62
   256
 71
     3
340
55
 62
   256
 40
0.24
 90
        1
 40
0.75
 90
        1
300
%<\AcVar ViewType \f "%tc1">% %<\AcVar ViewDetailId>%\PSCALE %<\AcVar ViewScale \f "%sn">%
 71
     4
340
5D
 90
       25
 62
   256
340
5D
 90
       25
 62
   256
280
     0
  0
LAYOUT
  5
6F
102
{ACAD_REACTORS
330
62
102
}
330
62
100
AcDbPlotSettings
  1

  2

  4

  6

 40
0.0
 41
0.0
 42
0.0
 43
0.0
 44
0.0
 45
0.0
 46
0.0
 47
0.0
 48
0.0
 49
0.0
140
0.0
141
0.0
142
1.0
143
1.0
 70
   688
 72
     0
 73
     0
 74
     5
  7

 75
    16
147
1.0
 76
     0
 77
     2
 78
   300
148
0.0
149
0.0
100
AcDbLayout
  1
Layout1
 70
     1
 71
     1
 10
0.0
 20
0.0
 11
12.0
 21
9.0
 12
0.0
 22
0.0
 32
0.0
 14
0.0
 24
0.0
 34
0.0
 15
0.0
 25
0.0
 35
0.0
146
0.0
 13
0.0
 23
0.0
 33
0.0
 16
1.0
 26
0.0
 36
0.0
 17
0.0
 27
1.0
 37
0.0
 76
     0
330
6C
  0
LAYOUT
  5
77
102
{ACAD_REACTORS
330
62
102
}
330
62
100
AcDbPlotSettings
  1

  2

  4

  6

 40
0.0
 41
0.0
 42
0.0
 43
0.0
 44
0.0
 45
0.0
 46
0.0
 47
0.0
 48
0.0
 49
0.0
140
0.0
141
0.0
142
1.0
143
1.0
 70
   688
 72
     0
 73
     0
 74
     5
  7

 75
    16
147
1.0
 76
     0
 77
     2
 78
   300
148
0.0
149
0.0
100
AcDbLayout
  1
Layout2
 70
     1
 71
     2
 10
0.0
 20
0.0
 11
12.0
 21
9.0
 12
0.0
 22
0.0
 32
0.0
 14
0.0
 24
0.0
 34
0.0
 15
0.0
 25
0.0
 35
0.0
146
0.0
 13
0.0
 23
0.0
 33
0.0
 16
1.0
 26
0.0
 36
0.0
 17
0.0
 27
1.0
 37
0.0
 76
     0
330
74
  0
LAYOUT
  5
73
102
{ACAD_REACTORS
330
62
102
}
330
62
100
AcDbPlotSettings
  1

  2

  4

  6

 40
0.0
 41
0.0
 42
0.0
 43
0.0
 44
0.0
 45
0.0
 46
0.0
 47
0.0
 48
0.0
 49
0.0
140
0.0
141
0.0
142
1.0
143
1.0
 70
  1712
 72
     0
 73
     0
 74
     0
  7

 75
     0
147
1.0
 76
     0
 77
     2
 78
   300
148
0.0
149
0.0
100
AcDbLayout
  1
Model
 70
     1
 71
     0
 10
0.0
 20
0.0
 11
12.0
 21
9.0
 12
0.0
 22
0.0
 32
0.0
 14
0.0
 24
0.0
 34
0.0
 15
0.0
 25
0.0
 35
0.0
146
0.0
 13
0.0
 23
0.0
 33
0.0
 16
1.0
 26
0.0
 36
0.0
 17
0.0
 27
1.0
 37
0.0
 76
     0
330
70
  0
MATERIAL
  5
19
102
{ACAD_XDICTIONARY
360
1A
102
}
102
{ACAD_REACTORS
330
10
102
}
330
10
100
AcDbMaterial
  1
ByBlock
 72
     0
 43
0.0208333333333333
 43
0.0
 43
0.0
 43
0.0
 43
0.0
 43
0.0208333333333333
 43
0.0
 43
0.0
 43
0.0
 43
0.0
 43
1.0
 43
0.0
 43
0.0
 43
0.0
 43
0.0
 43
1.0
 77
     0
 47
0.0208333333333333
 47
0.0
 47
0.0
 47
0.0
 47
0.0
 47
0.0208333333333333
 47
0.0
 47
0.0
 47
0.0
 47
0.0
 47
1.0
 47
0.0
 47
0.0
 47
0.0
 47
0.0
 47
1.0
171
     0
 49
0.0208333333333333
 49
0.0
 49
0.0
 49
0.0
 49
0.0
 49
0.0208333333333333
 49
0.0
 49
0.0
 49
0.0
 49
0.0
 49
1.0
 49
0.0
 49
0.0
 49
0.0
 49
0.0
 49
1.0
175
     0
142
0.0208333333333333
142
0.0
142
0.0
142
0.0
142
0.0
142
0.0208333333333333
142
0.0
142
0.0
142
0.0
142
0.0
142
1.0
142
0.0
142
0.0
142
0.0
142
0.0
142
1.0
179
     0
144
0.0208333333333333
144
0.0
144
0.0
144
0.0
144
0.0
144
0.0208333333333333
144
0.0
144
0.0
144
0.0
144
0.0
144
1.0
144
0.0
144
0.0
144
0.0
144
0.0
144
1.0
147
0.0208333333333333
147
0.0
147
0.0
147
0.0
147
0.0
147
0.0208333333333333
147
0.0
147
0.0
147
0.0
147
0.0
147
1.0
147
0.0
147
0.0
147
0.0
147
0.0
147
1.0
  0
MATERIAL
  5
11
102
{ACAD_XDICTIONARY
360
12
102
}
102
{ACAD_REACTORS
330
10
102
}
330
10
100
AcDbMaterial
  1
ByLayer
 72
     0
 43
0.0208333333333333
 43
0.0
 43
0.0
 43
0.0
 43
0.0
 43
0.0208333333333333
 43
0.0
 43
0.0
 43
0.0
 43
0.0
 43
1.0
 43
0.0
 43
0.0
 43
0.0
 43
0.0
 43
1.0
 77
     0
 47
0.0208333333333333
 47
0.0
 47
0.0
 47
0.0
 47
0.0
 47
0.0208333333333333
 47
0.0
 47
0.0
 47
0.0
 47
0.0
 47
1.0
 47
0.0
 47
0.0
 47
0.0
 47
0.0
 47
1.0
171
     0
 49
0.0208333333333333
 49
0.0
 49
0.0
 49
0.0
 49
0.0
 49
0.0208333333333333
 49
0.0
 49
0.0
 49
0.0
 49
0.0
 49
1.0
 49
0.0
 49
0.0
 49
0.0
 49
0.0
 49
1.0
175
     0
142
0.0208333333333333
142
0.0
142
0.0
142
0.0
142
0.0
142
0.0208333333333333
142
0.0
142
0.0
142
0.0
142
0.0
142
1.0
142
0.0
142
0.0
142
0.0
142
0.0
142
1.0
179
     0
144
0.0208333333333333
144
0.0
144
0.0
144
0.0
144
0.0
144
0.0208333333333333
144
0.0
144
0.0
144
0.0
144
0.0
144
1.0
144
0.0
144
0.0
144
0.0
144
0.0
144
1.0
147
0.0208333333333333
147
0.0
147
0.0
147
0.0
147
0.0
147
0.0208333333333333
147
0.0
147
0.0
147
0.0
147
0.0
147
1.0
147
0.0
147
0.0
147
0.0
147
0.0
147
1.0
  0
MATERIAL
  5
21
102
{ACAD_XDICTIONARY
360
22
102
}
102
{ACAD_REACTORS
330
10
102
}
330
10
100
AcDbMaterial
  1
Global
 72
     0
 43
0.0208333333333333
 43
0.0
 43
0.0
 43
0.0
 43
0.0
 43
0.0208333333333333
 43
0.0
 43
0.0
 43
0.0
 43
0.0
 43
1.0
 43
0.0
 43
0.0
 43
0.0
 43
0.0
 43
1.0
 77
     0
 47
0.0208333333333333
 47
0.0
 47
0.0
 47
0.0
 47
0.0
 47
0.0208333333333333
 47
0.0
 47
0.0
 47
0.0
 47
0.0
 47
1.0
 47
0.0
 47
0.0
 47
0.0
 47
0.0
 47
1.0
171
     0
 49
0.0208333333333333
 49
0.0
 49
0.0
 49
0.0
 49
0.0
 49
0.0208333333333333
 49
0.0
 49
0.0
 49
0.0
 49
0.0
 49
1.0
 49
0.0
 49
0.0
 49
0.0
 49
0.0
 49
1.0
175
     0
142
0.0208333333333333
142
0.0
142
0.0
142
0.0
142
0.0
142
0.0208333333333333
142
0.0
142
0.0
142
0.0
142
0.0
142
1.0
142
0.0
142
0.0
142
0.0
142
0.0
142
1.0
179
     0
144
0.0208333333333333
144
0.0
144
0.0
144
0.0
144
0.0
144
0.0208333333333333
144
0.0
144
0.0
144
0.0
144
0.0
144
1.0
144
0.0
144
0.0
144
0.0
144
0.0
144
1.0
147
0.0208333333333333
147
0.0
147
0.0
147
0.0
147
0.0
147
0.0208333333333333
147
0.0
147
0.0
147
0.0
147
0.0
147
1.0
147
0.0
147
0.0
147
0.0
147
0.0
147
1.0
  0
MLEADERSTYLE
  5
67
102
{ACAD_REACTORS
330
66
102
}
330
66
100
AcDbMLeaderStyle
179
     2
170
     2
171
     1
172
     0
 90
        2
 40
0.0
 41
0.0
173
     1
 91
-1056964608
340
5B
 92
       -2
290
     1
 42
0.09
291
     1
 43
0.36
  3
Standard
 44
0.18
300

342
55
174
     1
178
     6
175
     1
176
     0
 93
-1056964608
 45
0.18
292
     0
297
     0
 46
0.18
 94
-1056964608
 47
1.0
 49
1.0
140
1.0
293
     1
141
0.0
294
     1
177
     0
142
1.0
295
     1
296
     0
143
0.125
271
     0
272
     9
273
     9
298
     1
  0
MLINESTYLE
  5
60
102
{ACAD_REACTORS
330
5F
102
}
330
5F
100
AcDbMlineStyle
  2
STANDARD
 70
     0
  3

 62
   256
 51
90.0
 52
90.0
 71
     2
 49
0.5
 62
   256
  6
BYLAYER
 49
-0.5
 62
   256
  6
BYLAYER
  0
ACDBPLACEHOLDER
  5
F
102
{ACAD_REACTORS
330
E
102
}
330
E
  0
SCALE
  5
43
102
{ACAD_REACTORS
330
42
102
}
330
42
100
AcDbScale
 70
     0
300
1:1
140
1.0
141
1.0
290
     1
  0
SCALE
  5
44
102
{ACAD_REACTORS
330
42
102
}
330
42
100
AcDbScale
 70
     0
300
1/128" = 1'-0"
140
0.0078125
141
12.0
290
     0
  0
SCALE
  5
45
102
{ACAD_REACTORS
330
42
102
}
330
42
100
AcDbScale
 70
     0
300
1/64" = 1'-0"
140
0.015625
141
12.0
290
     0
  0
SCALE
  5
46
102
{ACAD_REACTORS
330
42
102
}
330
42
100
AcDbScale
 70
     0
300
1/32" = 1'-0"
140
0.03125
141
12.0
290
     0
  0
SCALE
  5
47
102
{ACAD_REACTORS
330
42
102
}
330
42
100
AcDbScale
 70
     0
300
1/16" = 1'-0"
140
0.0625
141
12.0
290
     0
  0
SCALE
  5
48
102
{ACAD_REACTORS
330
42
102
}
330
42
100
AcDbScale
 70
     0
300
3/32" = 1'-0"
140
0.09375
141
12.0
290
     0
  0
SCALE
  5
49
102
{ACAD_REACTORS
330
42
102
}
330
42
100
AcDbScale
 70
     0
300
1/8" = 1'-0"
140
0.125
141
12.0
290
     0
  0
SCALE
  5
4A
102
{ACAD_REACTORS
330
42
102
}
330
42
100
AcDbScale
 70
     0
300
3/16" = 1'-0"
140
0.1875
141
12.0
290
     0
  0
SCALE
  5
4B
102
{ACAD_REACTORS
330
42
102
}
330
42
100
AcDbScale
 70
     0
300
1/4" = 1'-0"
140
0.25
141
12.0
290
     0
  0
SCALE
  5
4C
102
{ACAD_REACTORS
330
42
102
}
330
42
100
AcDbScale
 70
     0
300
3/8" = 1'-0"
140
0.375
141
12.0
290
     0
  0
SCALE
  5
4D
102
{ACAD_REACTORS
330
42
102
}
330
42
100
AcDbScale
 70
     0
300
1/2" = 1'-0"
140
0.5
141
12.0
290
     0
  0
SCALE
  5
4E
102
{ACAD_REACTORS
330
42
102
}
330
42
100
AcDbScale
 70
     0
300
3/4" = 1'-0"
140
0.75
141
12.0
290
     0
  0
SCALE
  5
4F
102
{ACAD_REACTORS
330
42
102
}
330
42
100
AcDbScale
 70
     0
300
1" = 1'-0"
140
1.0
141
12.0
290
     0
  0
SCALE
  5
50
102
{ACAD_REACTORS
330
42
102
}
330
42
100
AcDbScale
 70
     0
300
1-1/2" = 1'-0"
140
1.5
141
12.0
290
     0
  0
SCALE
  5
51
102
{ACAD_REACTORS
330
42
102
}
330
42
100
AcDbScale
 70
     0
300
3" = 1'-0"
140
3.0
141
12.0
290
     0
  0
SCALE
  5
52
102
{ACAD_REACTORS
330
42
102
}
330
42
100
AcDbScale
 70
     0
300
6" = 1'-0"
140
6.0
141
12.0
290
     0
  0
SCALE
  5
53
102
{ACAD_REACTORS
330
42
102
}
330
42
100
AcDbScale
 70
     0
300
1'-0" = 1'-0"
140
12.0
141
12.0
290
     0
  0
ACDBSECTIONVIEWSTYLE
  5
69
102
{ACAD_REACTORS
330
68
102
}
330
68
100
AcDbModelDocViewStyle
 70
     0
  3
Imperial24
290
     1
300
Imperial24
 90
        0
100
AcDbSectionViewStyle
 70
     0
 71
     0
 90
       78
 71
     1
340
55
 62
   256
 40
0.24
340
0
340
0
 62
   256
 40
0.24
300
I, O, Q, S, X, Z
 40
0.48
 90
        3
 40
0.18
 90
        1
 71
     2
340
5D
 90
       25
 62
   256
340
5D
 90
       50
 62
   256
 40
0.24
 40
0.0
 40
0.24
 71
     3
340
55
 62
   256
 40
0.24
 90
        1
 40
0.75
 90
        1
300
%<\AcVar ViewType \f "%tc1">% %<\AcVar ViewSectionStartId>%-%<\AcVar ViewSectionEndId>%\PSCALE %<\AcVar ViewScale \f "%sn">%
 71
     4
 62
   256
 62
   257
300
ANSI31
 40
1.0
 90
        0
290
     0
290
     0
 90
        6
 40
0.0
 40
1.570796326794896
 40
0.2617993877991494
 40
1.308996938995747
 40
-0.2617993877991494
 40
1.832595714594046
  0
TABLESTYLE
  5
65
102
{ACAD_XDICTIONARY
360
B5
102
}
102
{ACAD_REACTORS
330
64
102
}
330
64
100
AcDbTableStyle
280
     0
  3
Standard
 70
     0
 71
     0
 40
0.06
 41
0.06
280
     0
281
     0
  7
Standard
140
0.18
170
     2
 62
     0
 63
     7
283
     0
 90
      512
 91
        0
  1

274
    -2
284
     1
 64
     0
275
    -2
285
     1
 65
     0
276
    -2
286
     1
 66
     0
277
    -2
287
     1
 67
     0
278
    -2
288
     1
 68
     0
279
    -2
289
     1
 69
     0
  7
Standard
140
0.25
170
     5
 62
     0
 63
     7
283
     0
 90
      512
 91
        0
  1

274
    -2
284
     1
 64
     0
275
    -2
285
     1
 65
     0
276
    -2
286
     1
 66
     0
277
    -2
287
     1
 67
     0
278
    -2
288
     1
 68
     0
279
    -2
289
     1
 69
     0
  7
Standard
140
0.18
170
     5
 62
     0
 63
     7
283
     0
 90
      512
 91
        0
  1

274
    -2
284
     1
 64
     0
275
    -2
285
     1
 65
     0
276
    -2
286
     1
 66
     0
277
    -2
287
     1
 67
     0
278
    -2
288
     1
 68
     0
279
    -2
289
     1
 69
     0
  0
VISUALSTYLE
  5
2F
102
{ACAD_REACTORS
330
29
102
}
330
29
100
AcDbVisualStyle
  2
2dWireframe
 70
     4
177
     3
291
     0
 70
    58
 90
        0
176
     1
 90
        2
176
     1
 90
        0
176
     1
 90
        0
176
     1
 40
0.6
176
     1
 40
30.0
176
     1
 62
     7
420
 16777215
176
     1
 90
        1
176
     1
 90
        4
176
     1
 62
     7
176
     1
 62
   257
176
     1
 90
        1
176
     1
 90
        1
176
     1
 40
1.0
176
     1
 90
        0
176
     1
 62
   257
176
     1
 40
1.0
176
     1
 90
        1
176
     1
 90
        6
176
     1
 90
        2
176
     1
 62
     7
176
     1
 90
        5
176
     1
 90
        0
176
     1
 90
        0
176
     1
290
     0
176
     1
 90
        1
176
     1
 40
0.0
176
     1
 90
        0
176
     1
290
     1
176
     1
290
     1
176
     1
290
     0
176
     1
290
     0
176
     1
290
     0
176
     1
290
     0
176
     1
290
     0
176
     1
290
     0
176
     1
290
     0
176
     1
 90
       50
176
     1
 40
0.0
176
     1
 40
1.0
176
     1
 90
        0
176
     1
 62
    18
420
        0
176
     1
 90
       50
176
     1
 90
        3
176
     1
 62
     5
420
      255
176
     1
290
     0
176
     1
 90
       50
176
     1
 90
       50
176
     1
 90
       50
176
     1
290
     0
176
     1
 90
       50
176
     1
 62
   256
176
     0
 40
1.0
176
     0
 90
        2
176
     1
  1
strokes_ogs.tif
176
     1
290
     0
176
     1
 40
1.0
176
     1
 40
1.0
176
     1
  0
VISUALSTYLE
  5
2E
102
{ACAD_REACTORS
330
29
102
}
330
29
100
AcDbVisualStyle
  2
Basic
 70
     7
177
     3
291
     1
 70
    58
 90
        1
176
     1
 90
        0
176
     1
 90
        1
176
     1
 90
        0
176
     1
 40
0.6
176
     1
 40
30.0
176
     1
 62
     7
420
 16777215
176
     1
 90
        0
176
     1
 90
        4
176
     1
 62
     7
176
     1
 62
   257
176
     1
 90
        1
176
     1
 90
        1
176
     1
 40
1.0
176
     1
 90
        8
176
     1
 62
     7
176
     1
 40
1.0
176
     1
 90
        1
176
     1
 90
        6
176
     1
 90
        2
176
     1
 62
     7
176
     1
 90
        5
176
     1
 90
        0
176
     1
 90
        0
176
     1
290
     0
176
     1
 90
        1
176
     1
 40
0.0
176
     1
 90
        0
176
     1
290
     0
176
     1
290
     1
176
     1
290
     1
176
     1
290
     0
176
     1
290
     0
176
     1
290
     0
176
     1
290
     0
176
     1
290
     0
176
     1
290
     0
176
     1
 90
       50
176
     1
 40
0.0
176
     1
 40
1.0
176
     1
 90
        0
176
     1
 62
    18
420
        0
176
     1
 90
       50
176
     1
 90
        3
176
     1
 62
     5
420
      255
176
     1
290
     0
176
     1
 90
       50
176
     1
 90
       50
176
     1
 90
       50
176
     1
290
     0
176
     1
 90
       50
176
     1
 62
   256
176
     0
 40
1.0
176
     0
 90
        2
176
     1
  1
strokes_ogs.tif
176
     1
290
     0
176
     1
 40
1.0
176
     1
 40
1.0
176
     1
  0
VISUALSTYLE
  5
35
102
{ACAD_REACTORS
330
29
102
}
330
29
100
AcDbVisualStyle
  2
Brighten
 70
    12
177
     3
291
     1
 70
    58
 90
        2
176
     1
 90
        2
176
     1
 90
        0
176
     1
 90
        0
176
     1
 40
0.6
176
     1
 40
30.0
176
     1
 62
     7
420
 16777215
176
     1
 90
        1
176
     1
 90
        4
176
     1
 62
     7
176
     1
 62
   257
176
     1
 90
        1
176
     1
 90
        1
176
     1
 40
1.0
176
     1
 90
        8
176
     1
 62
     7
176
     1
 40
1.0
176
     1
 90
        1
176
     1
 90
        6
176
     1
 90
        2
176
     1
 62
     7
176
     1
 90
        5
176
     1
 90
        0
176
     1
 90
        0
176
     1
290
     0
176
     1
 90
        1
176
     1
 40
50.0
176
     1
 90
        0
176
     1
290
     0
176
     1
290
     1
176
     1
290
     1
176
     1
290
     0
176
     1
290
     0
176
     1
290
     0
176
     1
290
     0
176
     1
290
     0
176
     1
290
     0
176
     1
 90
       50
176
     1
 40
0.0
176
     1
 40
1.0
176
     1
 90
        0
176
     1
 62
    18
420
        0
176
     1
 90
       50
176
     1
 90
        3
176
     1
 62
     5
420
      255
176
     1
290
     0
176
     1
 90
       50
176
     1
 90
       50
176
     1
 90
       50
176
     1
290
     0
176
     1
 90
       50
176
     1
 62
   256
176
     0
 40
1.0
176
     0
 90
        2
176
     1
  1
strokes_ogs.tif
176
     1
290
     0
176
     1
 40
1.0
176
     1
 40
1.0
176
     1
  0
VISUALSTYLE
  5
39
102
{ACAD_REACTORS
330
29
102
}
330
29
100
AcDbVisualStyle
  2
ColorChange
 70
    16
177
     3
291
     1
 70
    58
 90
        2
176
     1
 90
        2
176
     1
 90
        3
176
     1
 90
        0
176
     1
 40
0.6
176
     1
 40
30.0
176
     1
 62
     8
420
  8421504
176
     1
 90
        1
176
     1
 90
        4
176
     1
 62
     7
176
     1
 62
   257
176
     1
 90
        1
176
     1
 90
        1
176
     1
 40
1.0
176
     1
 90
        8
176
     1
 62
     8
420
  8421504
176
     1
 40
1.0
176
     1
 90
        1
176
     1
 90
        6
176
     1
 90
        2
176
     1
 62
     7
176
     1
 90
        5
176
     1
 90
        0
176
     1
 90
        0
176
     1
290
     0
176
     1
 90
        1
176
     1
 40
0.0
176
     1
 90
        0
176
     1
290
     0
176
     1
290
     1
176
     1
290
     1
176
     1
290
     0
176
     1
290
     0
176
     1
290
     0
176
     1
290
     0
176
     1
290
     0
176
     1
290
     0
176
     1
 90
       50
176
     1
 40
0.0
176
     1
 40
1.0
176
     1
 90
        0
176
     1
 62
    18
420
        0
176
     1
 90
       50
176
     1
 90
        3
176
     1
 62
     5
420
      255
176
     1
290
     0
176
     1
 90
       50
176
     1
 90
       50
176
     1
 90
       50
176
     1
290
     0
176
     1
 90
       50
176
     1
 62
   256
176
     0
 40
1.0
176
     0
 90
        2
176
     1
  1
strokes_ogs.tif
176
     1
290
     0
176
     1
 40
1.0
176
     1
 40
1.0
176
     1
  0
VISUALSTYLE
  5
32
102
{ACAD_REACTORS
330
29
102
}
330
29
100
AcDbVisualStyle
  2
Conceptual
 70
     9
177
     3
291
     0
 70
    58
 90
        3
176
     1
 90
        2
176
     1
 90
        0
176
     1
 90
        0
176
     1
 40
0.6
176
     1
 40
30.0
176
     1
 62
     7
420
 16777215
176
     1
 90
        2
176
     1
 90
        2
176
     1
 62
     7
176
     1
 62
   257
176
     1
 90
        1
176
     1
 90
        1
176
     1
 40
179.0
176
     1
 90
        8
176
     1
 62
     7
176
     1
 40
1.0
176
     1
 90
        1
176
     1
 90
        6
176
     1
 90
        2
176
     1
 62
     7
176
     1
 90
        3
176
     1
 90
        0
176
     1
 90
        0
176
     1
290
     0
176
     1
 90
        1
176
     1
 40
0.0
176
     1
 90
        0
176
     1
290
     0
176
     1
290
     1
176
     1
290
     1
176
     1
290
     0
176
     1
290
     0
176
     1
290
     0
176
     1
290
     0
176
     1
290
     0
176
     1
290
     0
176
     1
 90
       50
176
     1
 40
0.0
176
     1
 40
1.0
176
     1
 90
        0
176
     1
 62
    18
420
        0
176
     1
 90
       50
176
     1
 90
        3
176
     1
 62
     5
420
      255
176
     1
290
     0
176
     1
 90
       50
176
     1
 90
       50
176
     1
 90
       50
176
     1
290
     0
176
     1
 90
       50
176
     1
 62
   256
176
     0
 40
1.0
176
     0
 90
        2
176
     1
  1
strokes_ogs.tif
176
     1
290
     0
176
     1
 40
1.0
176
     1
 40
1.0
176
     1
  0
VISUALSTYLE
  5
34
102
{ACAD_REACTORS
330
29
102
}
330
29
100
AcDbVisualStyle
  2
Dim
 70
    11
177
     3
291
     1
 70
    58
 90
        2
176
     1
 90
        2
176
     1
 90
        0
176
     1
 90
        0
176
     1
 40
0.6
176
     1
 40
30.0
176
     1
 62
     7
420
 16777215
176
     1
 90
        1
176
     1
 90
        4
176
     1
 62
     7
176
     1
 62
   257
176
     1
 90
        1
176
     1
 90
        1
176
     1
 40
1.0
176
     1
 90
        8
176
     1
 62
     7
176
     1
 40
1.0
176
     1
 90
        1
176
     1
 90
        6
176
     1
 90
        2
176
     1
 62
     7
176
     1
 90
        5
176
     1
 90
        0
176
     1
 90
        0
176
     1
290
     0
176
     1
 90
        1
176
     1
 40
-50.0
176
     1
 90
        0
176
     1
290
     0
176
     1
290
     1
176
     1
290
     1
176
     1
290
     0
176
     1
290
     0
176
     1
290
     0
176
     1
290
     0
176
     1
290
     0
176
     1
290
     0
176
     1
 90
       50
176
     1
 40
0.0
176
     1
 40
1.0
176
     1
 90
        0
176
     1
 62
    18
420
        0
176
     1
 90
       50
176
     1
 90
        3
176
     1
 62
     5
420
      255
176
     1
290
     0
176
     1
 90
       50
176
     1
 90
       50
176
     1
 90
       50
176
     1
290
     0
176
     1
 90
       50
176
     1
 62
   256
176
     0
 40
1.0
176
     0
 90
        2
176
     1
  1
strokes_ogs.tif
176
     1
290
     0
176
     1
 40
1.0
176
     1
 40
1.0
176
     1
  0
VISUALSTYLE
  5
41
102
{ACAD_REACTORS
330
29
102
}
330
29
100
AcDbVisualStyle
  2
EdgeColorOff
 70
    22
177
     3
291
     1
 70
    58
 90
        2
176
     0
 90
        2
176
     0
 90
        0
176
     0
 90
        0
176
     0
 40
0.6
176
     0
 40
30.0
176
     0
 62
     7
420
 16777215
176
     0
 90
        1
176
     0
 90
        4
176
     0
 62
     7
176
     0
 62
   257
176
     0
 90
        1
176
     0
 90
        1
176
     0
 40
1.0
176
     0
 90
        8
176
     2
 62
     7
176
     0
 40
1.0
176
     0
 90
        1
176
     0
 90
        6
176
     0
 90
        2
176
     0
 62
     7
176
     0
 90
        5
176
     0
 90
        0
176
     0
 90
        0
176
     0
290
     0
176
     0
 90
        1
176
     0
 40
0.0
176
     0
 90
        0
176
     0
290
     0
176
     0
290
     1
176
     0
290
     1
176
     0
290
     0
176
     0
290
     0
176
     0
290
     0
176
     0
290
     0
176
     0
290
     0
176
     0
290
     0
176
     0
 90
       50
176
     0
 40
0.0
176
     0
 40
1.0
176
     0
 90
        0
176
     0
 62
    18
420
        0
176
     0
 90
       50
176
     0
 90
        3
176
     0
 62
     5
420
      255
176
     0
290
     0
176
     0
 90
       50
176
     0
 90
       50
176
     0
 90
       50
176
     0
290
     0
176
     0
 90
       50
176
     0
 62
   256
176
     0
 40
1.0
176
     0
 90
        2
176
     0
  1
strokes_ogs.tif
176
     0
290
     0
176
     0
 40
1.0
176
     0
 40
1.0
176
     0
  0
VISUALSTYLE
  5
38
102
{ACAD_REACTORS
330
29
102
}
330
29
100
AcDbVisualStyle
  2
Facepattern
 70
    15
177
     3
291
     1
 70
    58
 90
        2
176
     1
 90
        2
176
     1
 90
        0
176
     1
 90
        0
176
     1
 40
0.6
176
     1
 40
30.0
176
     1
 62
     7
420
 16777215
176
     1
 90
        1
176
     1
 90
        4
176
     1
 62
     7
176
     1
 62
   257
176
     1
 90
        1
176
     1
 90
        1
176
     1
 40
1.0
176
     1
 90
        8
176
     1
 62
     7
176
     1
 40
1.0
176
     1
 90
        1
176
     1
 90
        6
176
     1
 90
        2
176
     1
 62
     7
176
     1
 90
        5
176
     1
 90
        0
176
     1
 90
        0
176
     1
290
     0
176
     1
 90
        1
176
     1
 40
0.0
176
     1
 90
        0
176
     1
290
     0
176
     1
290
     1
176
     1
290
     1
176
     1
290
     0
176
     1
290
     0
176
     1
290
     0
176
     1
290
     0
176
     1
290
     0
176
     1
290
     0
176
     1
 90
       50
176
     1
 40
0.0
176
     1
 40
1.0
176
     1
 90
        0
176
     1
 62
    18
420
        0
176
     1
 90
       50
176
     1
 90
        3
176
     1
 62
     5
420
      255
176
     1
290
     0
176
     1
 90
       50
176
     1
 90
       50
176
     1
 90
       50
176
     1
290
     0
176
     1
 90
       50
176
     1
 62
   256
176
     0
 40
1.0
176
     0
 90
        2
176
     1
  1
strokes_ogs.tif
176
     1
290
     0
176
     1
 40
1.0
176
     1
 40
1.0
176
     1
  0
VISUALSTYLE
  5
2A
102
{ACAD_REACTORS
330
29
102
}
330
29
100
AcDbVisualStyle
  2
Flat
 70
     0
177
     3
291
     1
 70
    58
 90
        2
176
     1
 90
        1
176
     1
 90
        1
176
     1
 90
        2
176
     1
 40
0.6
176
     1
 40
30.0
176
     1
 62
     7
420
 16777215
176
     1
 90
        0
176
     1
 90
        0
176
     1
 62
     7
176
     1
 62
   257
176
     1
 90
        1
176
     1
 90
        1
176
     1
 40
1.0
176
     1
 90
        8
176
     1
 62
     7
176
     1
 40
1.0
176
     1
 90
        1
176
     1
 90
        6
176
     1
 90
        2
176
     1
 62
     7
176
     1
 90
        5
176
     1
 90
        0
176
     1
 90
        0
176
     1
290
     0
176
     1
 90
       13
176
     1
 40
0.0
176
     1
 90
        0
176
     1
290
     0
176
     1
290
     1
176
     1
290
     1
176
     1
290
     0
176
     1
290
     0
176
     1
290
     0
176
     1
290
     0
176
     1
290
     0
176
     1
290
     0
176
     1
 90
       50
176
     1
 40
0.0
176
     1
 40
1.0
176
     1
 90
        0
176
     1
 62
    18
420
        0
176
     1
 90
       50
176
     1
 90
        3
176
     1
 62
     5
420
      255
176
     1
290
     0
176
     1
 90
       50
176
     1
 90
       50
176
     1
 90
       50
176
     1
290
     0
176
     1
 90
       50
176
     1
 62
   256
176
     0
 40
1.0
176
     0
 90
        2
176
     1
  1
strokes_ogs.tif
176
     1
290
     0
176
     1
 40
1.0
176
     1
 40
1.0
176
     1
  0
VISUALSTYLE
  5
2B
102
{ACAD_REACTORS
330
29
102
}
330
29
100
AcDbVisualStyle
  2
FlatWithEdges
 70
     1
177
     3
291
     1
 70
    58
 90
        2
176
     1
 90
        1
176
     1
 90
        1
176
     1
 90
        2
176
     1
 40
0.6
176
     1
 40
30.0
176
     1
 62
     7
420
 16777215
176
     1
 90
        1
176
     1
 90
        0
176
     1
 62
     7
176
     1
 62
   257
176
     1
 90
        1
176
     1
 90
        1
176
     1
 40
1.0
176
     1
 90
        0
176
     1
 62
   257
176
     1
 40
1.0
176
     1
 90
        1
176
     1
 90
        6
176
     1
 90
        2
176
     1
 62
     7
176
     1
 90
        5
176
     1
 90
        0
176
     1
 90
        0
176
     1
290
     0
176
     1
 90
       13
176
     1
 40
0.0
176
     1
 90
        0
176
     1
290
     0
176
     1
290
     1
176
     1
290
     1
176
     1
290
     0
176
     1
290
     0
176
     1
290
     0
176
     1
290
     0
176
     1
290
     0
176
     1
290
     0
176
     1
 90
       50
176
     1
 40
0.0
176
     1
 40
1.0
176
     1
 90
        0
176
     1
 62
    18
420
        0
176
     1
 90
       50
176
     1
 90
        3
176
     1
 62
     5
420
      255
176
     1
290
     0
176
     1
 90
       50
176
     1
 90
       50
176
     1
 90
       50
176
     1
290
     0
176
     1
 90
       50
176
     1
 62
   256
176
     0
 40
1.0
176
     0
 90
        2
176
     1
  1
strokes_ogs.tif
176
     1
290
     0
176
     1
 40
1.0
176
     1
 40
1.0
176
     1
  0
VISUALSTYLE
  5
2C
102
{ACAD_REACTORS
330
29
102
}
330
29
100
AcDbVisualStyle
  2
Gouraud
 70
     2
177
     3
291
     1
 70
    58
 90
        2
176
     1
 90
        2
176
     1
 90
        1
176
     1
 90
        2
176
     1
 40
0.6
176
     1
 40
30.0
176
     1
 62
     7
420
 16777215
176
     1
 90
        0
176
     1
 90
        0
176
     1
 62
     7
176
     1
 62
   257
176
     1
 90
        1
176
     1
 90
        1
176
     1
 40
1.0
176
     1
 90
        0
176
     1
 62
     7
176
     1
 40
1.0
176
     1
 90
        1
176
     1
 90
        6
176
     1
 90
        2
176
     1
 62
     7
176
     1
 90
        5
176
     1
 90
        0
176
     1
 90
        0
176
     1
290
     0
176
     1
 90
       13
176
     1
 40
0.0
176
     1
 90
        0
176
     1
290
     0
176
     1
290
     1
176
     1
290
     1
176
     1
290
     0
176
     1
290
     0
176
     1
290
     0
176
     1
290
     0
176
     1
290
     0
176
     1
290
     0
176
     1
 90
       50
176
     1
 40
0.0
176
     1
 40
1.0
176
     1
 90
        0
176
     1
 62
    18
420
        0
176
     1
 90
       50
176
     1
 90
        3
176
     1
 62
     5
420
      255
176
     1
290
     0
176
     1
 90
       50
176
     1
 90
       50
176
     1
 90
       50
176
     1
290
     0
176
     1
 90
       50
176
     1
 62
   256
176
     0
 40
1.0
176
     0
 90
        2
176
     1
  1
strokes_ogs.tif
176
     1
290
     0
176
     1
 40
1.0
176
     1
 40
1.0
176
     1
  0
VISUALSTYLE
  5
2D
102
{ACAD_REACTORS
330
29
102
}
330
29
100
AcDbVisualStyle
  2
GouraudWithEdges
 70
     3
177
     3
291
     1
 70
    58
 90
        2
176
     1
 90
        2
176
     1
 90
        1
176
     1
 90
        2
176
     1
 40
0.6
176
     1
 40
30.0
176
     1
 62
     7
420
 16777215
176
     1
 90
        1
176
     1
 90
        0
176
     1
 62
     7
176
     1
 62
   257
176
     1
 90
        1
176
     1
 90
        1
176
     1
 40
1.0
176
     1
 90
        0
176
     1
 62
   257
176
     1
 40
1.0
176
     1
 90
        1
176
     1
 90
        6
176
     1
 90
        2
176
     1
 62
     7
176
     1
 90
        5
176
     1
 90
        0
176
     1
 90
        0
176
     1
290
     0
176
     1
 90
       13
176
     1
 40
0.0
176
     1
 90
        0
176
     1
290
     0
176
     1
290
     1
176
     1
290
     1
176
     1
290
     0
176
     1
290
     0
176
     1
290
     0
176
     1
290
     0
176
     1
290
     0
176
     1
290
     0
176
     1
 90
       50
176
     1
 40
0.0
176
     1
 40
1.0
176
     1
 90
        0
176
     1
 62
    18
420
        0
176
     1
 90
       50
176
     1
 90
        3
176
     1
 62
     5
420
      255
176
     1
290
     0
176
     1
 90
       50
176
     1
 90
       50
176
     1
 90
       50
176
     1
290
     0
176
     1
 90
       50
176
     1
 62
   256
176
     0
 40
1.0
176
     0
 90
        2
176
     1
  1
strokes_ogs.tif
176
     1
290
     0
176
     1
 40
1.0
176
     1
 40
1.0
176
     1
  0
VISUALSTYLE
  5
31
102
{ACAD_REACTORS
330
29
102
}
330
29
100
AcDbVisualStyle
  2
Hidden
 70
     6
177
     3
291
     0
 70
    58
 90
        1
176
     1
 90
        2
176
     1
 90
        2
176
     1
 90
        0
176
     1
 40
0.6
176
     1
 40
30.0
176
     1
 62
     7
420
 16777215
176
     1
 90
        2
176
     1
 90
        2
176
     1
 62
     7
176
     1
 62
   257
176
     1
 90
        2
176
     1
 90
        1
176
     1
 40
40.0
176
     1
 90
        0
176
     1
 62
   257
176
     1
 40
1.0
176
     1
 90
        1
176
     1
 90
        6
176
     1
 90
        2
176
     1
 62
     7
176
     1
 90
        3
176
     1
 90
        0
176
     1
 90
        0
176
     1
290
     0
176
     1
 90
        1
176
     1
 40
0.0
176
     1
 90
        0
176
     1
290
     0
176
     1
290
     1
176
     1
290
     1
176
     1
290
     0
176
     1
290
     0
176
     1
290
     0
176
     1
290
     0
176
     1
290
     0
176
     1
290
     0
176
     1
 90
       50
176
     1
 40
0.0
176
     1
 40
1.0
176
     1
 90
        0
176
     1
 62
    18
420
        0
176
     1
 90
       50
176
     1
 90
        3
176
     1
 62
     5
420
      255
176
     1
290
     0
176
     1
 90
       50
176
     1
 90
       50
176
     1
 90
       50
176
     1
290
     0
176
     1
 90
       50
176
     1
 62
   256
176
     0
 40
1.0
176
     0
 90
        2
176
     1
  1
strokes_ogs.tif
176
     1
290
     0
176
     1
 40
1.0
176
     1
 40
1.0
176
     1
  0
VISUALSTYLE
  5
3F
102
{ACAD_REACTORS
330
29
102
}
330
29
100
AcDbVisualStyle
  2
JitterOff
 70
    20
177
     3
291
     1
 70
    58
 90
        2
176
     0
 90
        2
176
     0
 90
        0
176
     0
 90
        0
176
     0
 40
0.6
176
     0
 40
30.0
176
     0
 62
     7
420
 16777215
176
     0
 90
        1
176
     0
 90
        4
176
     0
 62
     7
176
     0
 62
   257
176
     0
 90
        1
176
     0
 90
        1
176
     0
 40
1.0
176
     0
 90
       10
176
     2
 62
     7
176
     0
 40
1.0
176
     0
 90
        1
176
     0
 90
        6
176
     0
 90
        2
176
     0
 62
     7
176
     0
 90
        5
176
     0
 90
        0
176
     0
 90
        0
176
     0
290
     0
176
     0
 90
        1
176
     0
 40
0.0
176
     0
 90
        0
176
     0
290
     0
176
     0
290
     1
176
     0
290
     1
176
     0
290
     0
176
     0
290
     0
176
     0
290
     0
176
     0
290
     0
176
     0
290
     0
176
     0
290
     0
176
     0
 90
       50
176
     0
 40
0.0
176
     0
 40
1.0
176
     0
 90
        0
176
     0
 62
    18
420
        0
176
     0
 90
       50
176
     0
 90
        3
176
     0
 62
     5
420
      255
176
     0
290
     0
176
     0
 90
       50
176
     0
 90
       50
176
     0
 90
       50
176
     0
290
     0
176
     0
 90
       50
176
     0
 62
   256
176
     0
 40
1.0
176
     0
 90
        2
176
     0
  1
strokes_ogs.tif
176
     0
290
     0
176
     0
 40
1.0
176
     0
 40
1.0
176
     0
  0
VISUALSTYLE
  5
37
102
{ACAD_REACTORS
330
29
102
}
330
29
100
AcDbVisualStyle
  2
Linepattern
 70
    14
177
     3
291
     1
 70
    58
 90
        2
176
     1
 90
        2
176
     1
 90
        0
176
     1
 90
        0
176
     1
 40
0.6
176
     1
 40
30.0
176
     1
 62
     7
420
 16777215
176
     1
 90
        1
176
     1
 90
        4
176
     1
 62
     7
176
     1
 62
   257
176
     1
 90
        7
176
     1
 90
        7
176
     1
 40
1.0
176
     1
 90
        8
176
     1
 62
     7
176
     1
 40
1.0
176
     1
 90
        1
176
     1
 90
        6
176
     1
 90
        2
176
     1
 62
     7
176
     1
 90
        5
176
     1
 90
        0
176
     1
 90
        0
176
     1
290
     0
176
     1
 90
        1
176
     1
 40
0.0
176
     1
 90
        0
176
     1
290
     0
176
     1
290
     1
176
     1
290
     1
176
     1
290
     0
176
     1
290
     0
176
     1
290
     0
176
     1
290
     0
176
     1
290
     0
176
     1
290
     0
176
     1
 90
       50
176
     1
 40
0.0
176
     1
 40
1.0
176
     1
 90
        0
176
     1
 62
    18
420
        0
176
     1
 90
       50
176
     1
 90
        3
176
     1
 62
     5
420
      255
176
     1
290
     0
176
     1
 90
       50
176
     1
 90
       50
176
     1
 90
       50
176
     1
290
     0
176
     1
 90
       50
176
     1
 62
   256
176
     0
 40
1.0
176
     0
 90
        2
176
     1
  1
strokes_ogs.tif
176
     1
290
     0
176
     1
 40
1.0
176
     1
 40
1.0
176
     1
  0
VISUALSTYLE
  5
40
102
{ACAD_REACTORS
330
29
102
}
330
29
100
AcDbVisualStyle
  2
OverhangOff
 70
    21
177
     3
291
     1
 70
    58
 90
        2
176
     0
 90
        2
176
     0
 90
        0
176
     0
 90
        0
176
     0
 40
0.6
176
     0
 40
30.0
176
     0
 62
     7
420
 16777215
176
     0
 90
        1
176
     0
 90
        4
176
     0
 62
     7
176
     0
 62
   257
176
     0
 90
        1
176
     0
 90
        1
176
     0
 40
1.0
176
     0
 90
        9
176
     2
 62
     7
176
     0
 40
1.0
176
     0
 90
        1
176
     0
 90
        6
176
     0
 90
        2
176
     0
 62
     7
176
     0
 90
        5
176
     0
 90
        0
176
     0
 90
        0
176
     0
290
     0
176
     0
 90
        1
176
     0
 40
0.0
176
     0
 90
        0
176
     0
290
     0
176
     0
290
     1
176
     0
290
     1
176
     0
290
     0
176
     0
290
     0
176
     0
290
     0
176
     0
290
     0
176
     0
290
     0
176
     0
290
     0
176
     0
 90
       50
176
     0
 40
0.0
176
     0
 40
1.0
176
     0
 90
        0
176
     0
 62
    18
420
        0
176
     0
 90
       50
176
     0
 90
        3
176
     0
 62
     5
420
      255
176
     0
290
     0
176
     0
 90
       50
176
     0
 90
       50
176
     0
 90
       50
176
     0
290
     0
176
     0
 90
       50
176
     0
 62
   256
176
     0
 40
1.0
176
     0
 90
        2
176
     0
  1
strokes_ogs.tif
176
     0
290
     0
176
     0
 40
1.0
176
     0
 40
1.0
176
     0
  0
VISUALSTYLE
  5
33
102
{ACAD_REACTORS
330
29
102
}
330
29
100
AcDbVisualStyle
  2
Realistic
 70
     8
177
     3
291
     0
 70
    58
 90
        2
176
     1
 90
        3
176
     1
 90
        0
176
     1
 90
        2
176
     1
 40
0.6
176
     1
 40
30.0
176
     1
 62
     7
420
 16777215
176
     1
 90
        0
176
     1
 90
        0
176
     1
 62
     7
176
     1
 62
   257
176
     1
 90
        1
176
     1
 90
        1
176
     1
 40
1.0
176
     1
 90
        8
176
     1
 62
   257
176
     1
 40
1.0
176
     1
 90
        1
176
     1
 90
        6
176
     1
 90
        2
176
     1
 62
     7
176
     1
 90
        3
176
     1
 90
        0
176
     1
 90
        0
176
     1
290
     0
176
     1
 90
       13
176
     1
 40
0.0
176
     1
 90
        0
176
     1
290
     0
176
     1
290
     1
176
     1
290
     1
176
     1
290
     0
176
     1
290
     0
176
     1
290
     0
176
     1
290
     0
176
     1
290
     0
176
     1
290
     0
176
     1
 90
       50
176
     1
 40
0.0
176
     1
 40
1.0
176
     1
 90
        0
176
     1
 62
    18
420
        0
176
     1
 90
       50
176
     1
 90
        3
176
     1
 62
     5
420
      255
176
     1
290
     0
176
     1
 90
       50
176
     1
 90
       50
176
     1
 90
       50
176
     1
290
     0
176
     1
 90
       50
176
     1
 62
   256
176
     0
 40
1.0
176
     0
 90
        2
176
     1
  1
strokes_ogs.tif
176
     1
290
     0
176
     1
 40
1.0
176
     1
 40
1.0
176
     1
  0
VISUALSTYLE
  5
3E
102
{ACAD_REACTORS
330
29
102
}
330
29
100
AcDbVisualStyle
  2
Shaded
 70
    27
177
     3
291
     0
 70
    58
 90
        2
176
     1
 90
        2
176
     1
 90
        1
176
     1
 90
        2
176
     1
 40
0.6
176
     1
 40
30.0
176
     1
 62
     7
420
 16777215
176
     1
 90
        0
176
     1
 90
        4
176
     1
 62
     7
176
     1
 62
   257
176
     1
 90
        1
176
     1
 90
        1
176
     1
 40
1.0
176
     1
 90
        8
176
     1
 62
   257
176
     1
 40
1.0
176
     1
 90
        1
176
     1
 90
        6
176
     1
 90
        2
176
     1
 62
     8
420
  7895160
176
     1
 90
        3
176
     1
 90
        0
176
     1
 90
        0
176
     1
290
     0
176
     1
 90
        5
176
     1
 40
0.0
176
     1
 90
        0
176
     1
290
     0
176
     1
290
     1
176
     1
290
     1
176
     1
290
     0
176
     1
290
     0
176
     1
290
     0
176
     1
290
     0
176
     1
290
     0
176
     1
290
     0
176
     1
 90
       50
176
     1
 40
0.0
176
     1
 40
1.0
176
     1
 90
        0
176
     1
 62
    18
420
        0
176
     1
 90
       50
176
     1
 90
        3
176
     1
 62
     5
420
      255
176
     1
290
     0
176
     1
 90
       50
176
     1
 90
       50
176
     1
 90
       50
176
     1
290
     0
176
     1
 90
       50
176
     1
 62
   256
176
     0
 40
1.0
176
     0
 90
        2
176
     1
  1
strokes_ogs.tif
176
     1
290
     0
176
     1
 40
1.0
176
     1
 40
1.0
176
     1
  0
VISUALSTYLE
  5
3D
102
{ACAD_REACTORS
330
29
102
}
330
29
100
AcDbVisualStyle
  2
Shaded with edges
 70
    26
177
     3
291
     0
 70
    58
 90
        2
176
     1
 90
        2
176
     1
 90
        1
176
     1
 90
        2
176
     1
 40
0.6
176
     1
 40
30.0
176
     1
 62
     7
420
 16777215
176
     1
 90
        1
176
     1
 90
        2
176
     1
 62
     7
176
     1
 62
   257
176
     1
 90
        2
176
     1
 90
        1
176
     1
 40
1.0
176
     1
 90
        8
176
     1
 62
   257
176
     1
 40
1.0
176
     1
 90
        1
176
     1
 90
        6
176
     1
 90
        2
176
     1
 62
     7
176
     1
 90
        3
176
     1
 90
        0
176
     1
 90
        0
176
     1
290
     0
176
     1
 90
        5
176
     1
 40
0.0
176
     1
 90
        0
176
     1
290
     0
176
     1
290
     1
176
     1
290
     1
176
     1
290
     0
176
     1
290
     0
176
     1
290
     0
176
     1
290
     0
176
     1
290
     0
176
     1
290
     0
176
     1
 90
       50
176
     1
 40
0.0
176
     1
 40
1.0
176
     1
 90
        0
176
     1
 62
    18
420
        0
176
     1
 90
       50
176
     1
 90
        3
176
     1
 62
     5
420
      255
176
     1
290
     0
176
     1
 90
       50
176
     1
 90
       50
176
     1
 90
       50
176
     1
290
     0
176
     1
 90
       50
176
     1
 62
   256
176
     0
 40
1.0
176
     0
 90
        2
176
     1
  1
strokes_ogs.tif
176
     1
290
     0
176
     1
 40
1.0
176
     1
 40
1.0
176
     1
  0
VISUALSTYLE
  5
3A
102
{ACAD_REACTORS
330
29
102
}
330
29
100
AcDbVisualStyle
  2
Shades of Gray
 70
    23
177
     3
291
     0
 70
    58
 90
        2
176
     1
 90
        2
176
     1
 90
        3
176
     1
 90
        0
176
     1
 40
0.6
176
     1
 40
30.0
176
     1
 62
     7
420
 16777215
176
     1
 90
        2
176
     1
 90
        2
176
     1
 62
     7
176
     1
 62
     7
176
     1
 90
        1
176
     1
 90
        1
176
     1
 40
40.0
176
     1
 90
        8
176
     1
 62
     7
176
     1
 40
1.0
176
     1
 90
        1
176
     1
 90
        6
176
     1
 90
        2
176
     1
 62
     7
176
     1
 90
        3
176
     1
 90
        0
176
     1
 90
        0
176
     1
290
     0
176
     1
 90
        1
176
     1
 40
0.0
176
     1
 90
        0
176
     1
290
     0
176
     1
290
     1
176
     1
290
     1
176
     1
290
     0
176
     1
290
     0
176
     1
290
     0
176
     1
290
     0
176
     1
290
     0
176
     1
290
     0
176
     1
 90
       50
176
     1
 40
0.0
176
     1
 40
1.0
176
     1
 90
        0
176
     1
 62
    18
420
        0
176
     1
 90
       50
176
     1
 90
        3
176
     1
 62
     5
420
      255
176
     1
290
     0
176
     1
 90
       50
176
     1
 90
       50
176
     1
 90
       50
176
     1
290
     0
176
     1
 90
       50
176
     1
 62
   256
176
     0
 40
1.0
176
     0
 90
        2
176
     1
  1
strokes_ogs.tif
176
     1
290
     0
176
     1
 40
1.0
176
     1
 40
1.0
176
     1
  0
VISUALSTYLE
  5
3B
102
{ACAD_REACTORS
330
29
102
}
330
29
100
AcDbVisualStyle
  2
Sketchy
 70
    24
177
     3
291
     0
 70
    58
 90
        1
176
     1
 90
        2
176
     1
 90
        2
176
     1
 90
        0
176
     1
 40
0.6
176
     1
 40
30.0
176
     1
 62
     7
420
 16777215
176
     1
 90
        2
176
     1
 90
        2
176
     1
 62
     7
176
     1
 62
     7
176
     1
 90
        1
176
     1
 90
        1
176
     1
 40
40.0
176
     1
 90
       11
176
     1
 62
     7
176
     1
 40
1.0
176
     1
 90
        1
176
     1
 90
        6
176
     1
 90
        2
176
     1
 62
     7
176
     1
 90
        6
176
     1
 90
        0
176
     1
 90
        0
176
     1
290
     0
176
     1
 90
        1
176
     1
 40
0.0
176
     1
 90
        0
176
     1
290
     0
176
     1
290
     1
176
     1
290
     1
176
     1
290
     0
176
     1
290
     0
176
     1
290
     0
176
     1
290
     0
176
     1
290
     0
176
     1
290
     0
176
     1
 90
       50
176
     1
 40
0.0
176
     1
 40
1.0
176
     1
 90
        0
176
     1
 62
    18
420
        0
176
     1
 90
       50
176
     1
 90
        3
176
     1
 62
     5
420
      255
176
     1
290
     0
176
     1
 90
       50
176
     1
 90
       50
176
     1
 90
       50
176
     1
290
     0
176
     1
 90
       50
176
     1
 62
   256
176
     0
 40
1.0
176
     0
 90
        2
176
     1
  1
strokes_ogs.tif
176
     1
290
     0
176
     1
 40
1.0
176
     1
 40
1.0
176
     1
  0
VISUALSTYLE
  5
36
102
{ACAD_REACTORS
330
29
102
}
330
29
100
AcDbVisualStyle
  2
Thicken
 70
    13
177
     3
291
     1
 70
    58
 90
        2
176
     1
 90
        2
176
     1
 90
        0
176
     1
 90
        0
176
     1
 40
0.6
176
     1
 40
30.0
176
     1
 62
     7
420
 16777215
176
     1
 90
        1
176
     1
 90
        4
176
     1
 62
     7
176
     1
 62
   257
176
     1
 90
        1
176
     1
 90
        1
176
     1
 40
1.0
176
     1
 90
       12
176
     1
 62
     7
176
     1
 40
1.0
176
     1
 90
        1
176
     1
 90
        6
176
     1
 90
        2
176
     1
 62
     7
176
     1
 90
        5
176
     1
 90
        0
176
     1
 90
        0
176
     1
290
     0
176
     1
 90
        1
176
     1
 40
0.0
176
     1
 90
        0
176
     1
290
     0
176
     1
290
     1
176
     1
290
     1
176
     1
290
     0
176
     1
290
     0
176
     1
290
     0
176
     1
290
     0
176
     1
290
     0
176
     1
290
     0
176
     1
 90
       50
176
     1
 40
0.0
176
     1
 40
1.0
176
     1
 90
        0
176
     1
 62
    18
420
        0
176
     1
 90
       50
176
     1
 90
        3
176
     1
 62
     5
420
      255
176
     1
290
     0
176
     1
 90
       50
176
     1
 90
       50
176
     1
 90
       50
176
     1
290
     0
176
     1
 90
       50
176
     1
 62
   256
176
     0
 40
1.0
176
     0
 90
        2
176
     1
  1
strokes_ogs.tif
176
     1
290
     0
176
     1
 40
1.0
176
     1
 40
1.0
176
     1
  0
VISUALSTYLE
  5
30
102
{ACAD_REACTORS
330
29
102
}
330
29
100
AcDbVisualStyle
  2
Wireframe
 70
     5
177
     3
291
     0
 70
    58
 90
        0
176
     1
 90
        2
176
     1
 90
        0
176
     1
 90
        0
176
     1
 40
0.6
176
     1
 40
30.0
176
     1
 62
     7
420
 16777215
176
     1
 90
        1
176
     1
 90
        4
176
     1
 62
     7
176
     1
 62
   257
176
     1
 90
        1
176
     1
 90
        1
176
     1
 40
1.0
176
     1
 90
        0
176
     1
 62
   257
176
     1
 40
1.0
176
     1
 90
        1
176
     1
 90
        6
176
     1
 90
        2
176
     1
 62
     7
176
     1
 90
        3
176
     1
 90
        0
176
     1
 90
        0
176
     1
290
     0
176
     1
 90
        1
176
     1
 40
0.0
176
     1
 90
        0
176
     1
290
     0
176
     1
290
     1
176
     1
290
     1
176
     1
290
     0
176
     1
290
     0
176
     1
290
     0
176
     1
290
     0
176
     1
290
     0
176
     1
290
     0
176
     1
 90
       50
176
     1
 40
0.0
176
     1
 40
1.0
176
     1
 90
        0
176
     1
 62
    18
420
        0
176
     1
 90
       50
176
     1
 90
        3
176
     1
 62
     5
420
      255
176
     1
290
     0
176
     1
 90
       50
176
     1
 90
       50
176
     1
 90
       50
176
     1
290
     0
176
     1
 90
       50
176
     1
 62
   256
176
     0
 40
1.0
176
     0
 90
        2
176
     1
  1
strokes_ogs.tif
176
     1
290
     0
176
     1
 40
1.0
176
     1
 40
1.0
176
     1
  0
VISUALSTYLE
  5
3C
102
{ACAD_REACTORS
330
29
102
}
330
29
100
AcDbVisualStyle
  2
X-Ray
 70
    25
177
     3
291
     0
 70
    58
 90
        2
176
     1
 90
        2
176
     1
 90
        1
176
     1
 90
        1
176
     1
 40
0.5
176
     1
 40
30.0
176
     1
 62
     7
420
 16777215
176
     1
 90
        1
176
     1
 90
        0
176
     1
 62
     7
176
     1
 62
   257
176
     1
 90
        1
176
     1
 90
        1
176
     1
 40
1.0
176
     1
 90
        8
176
     1
 62
     7
176
     1
 40
1.0
176
     1
 90
        1
176
     1
 90
        6
176
     1
 90
        2
176
     1
 62
     7
176
     1
 90
        3
176
     1
 90
        0
176
     1
 90
        0
176
     1
290
     0
176
     1
 90
       13
176
     1
 40
0.0
176
     1
 90
        0
176
     1
290
     0
176
     1
290
     1
176
     1
290
     1
176
     1
290
     0
176
     1
290
     0
176
     1
290
     0
176
     1
290
     0
176
     1
290
     0
176
     1
290
     0
176
     1
 90
       50
176
     1
 40
0.0
176
     1
 40
1.0
176
     1
 90
        0
176
     1
 62
    18
420
        0
176
     1
 90
       50
176
     1
 90
        3
176
     1
 62
     5
420
      255
176
     1
290
     0
176
     1
 90
       50
176
     1
 90
       50
176
     1
 90
       50
176
     1
290
     0
176
     1
 90
       50
176
     1
 62
   256
176
     0
 40
1.0
176
     0
 90
        2
176
     1
  1
strokes_ogs.tif
176
     1
290
     0
176
     1
 40
1.0
176
     1
 40
1.0
176
     1
  0
DICTIONARYVAR
  5
B4
102
{ACAD_REACTORS
330
AF
102
}
330
AF
100
DictionaryVariables
280
     0
  1
1:1
  0
DICTIONARYVAR
  5
B1
102
{ACAD_REACTORS
330
AF
102
}
330
AF
100
DictionaryVariables
280
     0
  1
STANDARD
  0
DICTIONARYVAR
  5
B0
102
{ACAD_REACTORS
330
AF
102
}
330
AF
100
DictionaryVariables
280
     0
  1
STANDARD
  0
DICTIONARYVAR
  5
B2
102
{ACAD_REACTORS
330
AF
102
}
330
AF
100
DictionaryVariables
280
     0
  1
Imperial24
  0
DICTIONARYVAR
  5
B3
102
{ACAD_REACTORS
330
AF
102
}
330
AF
100
DictionaryVariables
280
     0
  1
Imperial24
  0
DICTIONARY
  5
1A
330
19
100
AcDbDictionary
280
     1
281
     1
  3
BUMPTILE
360
1C
  3
DIFFUSETILE
360
1B
  3
OPACITYTILE
360
1F
  3
REFLECTIONTILE
360
1E
  3
REFRACTIONTILE
360
20
  3
SPECULARTILE
360
1D
  0
DICTIONARY
  5
12
330
11
100
AcDbDictionary
280
     1
281
     1
  3
BUMPTILE
360
14
  3
DIFFUSETILE
360
13
  3
OPACITYTILE
360
17
  3
REFLECTIONTILE
360
16
  3
REFRACTIONTILE
360
18
  3
SPECULARTILE
360
15
  0
DICTIONARY
  5
22
330
21
100
AcDbDictionary
280
     1
281
     1
  3
BUMPTILE
360
24
  3
DIFFUSETILE
360
23
  3
OPACITYTILE
360
27
  3
REFLECTIONTILE
360
26
  3
REFRACTIONTILE
360
28
  3
SPECULARTILE
360
25
  0
DICTIONARY
  5
B5
330
65
100
AcDbDictionary
280
     1
281
     1
  3
ACAD_ROUNDTRIP_2008_TABLESTYLE_CELLSTYLEMAP
360
B6
  0
XRECORD
  5
1C
102
{ACAD_REACTORS
330
1A
102
}
330
1A
100
AcDbXrecord
280
     1
270
     1
271
     1
  0
XRECORD
  5
1B
102
{ACAD_REACTORS
330
1A
102
}
330
1A
100
AcDbXrecord
280
     1
270
     1
271
     1
  0
XRECORD
  5
1F
102
{ACAD_REACTORS
330
1A
102
}
330
1A
100
AcDbXrecord
280
     1
270
     1
271
     1
  0
XRECORD
  5
1E
102
{ACAD_REACTORS
330
1A
102
}
330
1A
100
AcDbXrecord
280
     1
270
     1
271
     1
  0
XRECORD
  5
20
102
{ACAD_REACTORS
330
1A
102
}
330
1A
100
AcDbXrecord
280
     1
270
     1
271
     1
  0
XRECORD
  5
1D
102
{ACAD_REACTORS
330
1A
102
}
330
1A
100
AcDbXrecord
280
     1
270
     1
271
     1
  0
XRECORD
  5
14
102
{ACAD_REACTORS
330
12
102
}
330
12
100
AcDbXrecord
280
     1
270
     1
271
     1
  0
XRECORD
  5
13
102
{ACAD_REACTORS
330
12
102
}
330
12
100
AcDbXrecord
280
     1
270
     1
271
     1
  0
XRECORD
  5
17
102
{ACAD_REACTORS
330
12
102
}
330
12
100
AcDbXrecord
280
     1
270
     1
271
     1
  0
XRECORD
  5
16
102
{ACAD_REACTORS
330
12
102
}
330
12
100
AcDbXrecord
280
     1
270
     1
271
     1
  0
XRECORD
  5
18
102
{ACAD_REACTORS
330
12
102
}
330
12
100
AcDbXrecord
280
     1
270
     1
271
     1
  0
XRECORD
  5
15
102
{ACAD_REACTORS
330
12
102
}
330
12
100
AcDbXrecord
280
     1
270
     1
271
     1
  0
XRECORD
  5
24
102
{ACAD_REACTORS
330
22
102
}
330
22
100
AcDbXrecord
280
     1
270
     1
271
     1
  0
XRECORD
  5
23
102
{ACAD_REACTORS
330
22
102
}
330
22
100
AcDbXrecord
280
     1
270
     1
271
     1
  0
XRECORD
  5
27
102
{ACAD_REACTORS
330
22
102
}
330
22
100
AcDbXrecord
280
     1
270
     1
271
     1
  0
XRECORD
  5
26
102
{ACAD_REACTORS
330
22
102
}
330
22
100
AcDbXrecord
280
     1
270
     1
271
     1
  0
XRECORD
  5
28
102
{ACAD_REACTORS
330
22
102
}
330
22
100
AcDbXrecord
280
     1
270
     1
271
     1
  0
XRECORD
  5
25
102
{ACAD_REACTORS
330
22
102
}
330
22
100
AcDbXrecord
280
     1
270
     1
271
     1
  0
CELLSTYLEMAP
  5
B6
102
{ACAD_REACTORS
330
B5
102
}
330
B5
100
AcDbCellStyleMap
 90
        3
300
CELLSTYLE
  1
TABLEFORMAT_BEGIN
 90
        5
170
     1
 91
        0
 92
    32768
 62
   257
 93
        1
300
CONTENTFORMAT
  1
CONTENTFORMAT_BEGIN
 90
        0
 91
        0
 92
      512
 93
        0
300

 40
0.0
140
1.0
 94
        5
 62
     0
340
55
144
0.25
309
CONTENTFORMAT_END
171
     0
 94
        0
309
TABLEFORMAT_END
  1
CELLSTYLE_BEGIN
 90
        1
 91
        1
300
_TITLE
309
CELLSTYLE_END
300
CELLSTYLE
  1
TABLEFORMAT_BEGIN
 90
        5
170
     1
 91
        0
 92
        0
 62
   257
 93
        1
300
CONTENTFORMAT
  1
CONTENTFORMAT_BEGIN
 90
        0
 91
        0
 92
      512
 93
        0
300

 40
0.0
140
1.0
 94
        5
 62
     0
340
55
144
0.18
309
CONTENTFORMAT_END
171
     0
 94
        0
309
TABLEFORMAT_END
  1
CELLSTYLE_BEGIN
 90
        2
 91
        1
300
_HEADER
309
CELLSTYLE_END
300
CELLSTYLE
  1
TABLEFORMAT_BEGIN
 90
        5
170
     1
 91
        0
 92
        0
 62
   257
 93
        1
300
CONTENTFORMAT
  1
CONTENTFORMAT_BEGIN
 90
        0
 91
        0
 92
      512
 93
        0
300

 40
0.0
140
1.0
 94
        2
 62
     0
340
55
144
0.18
309
CONTENTFORMAT_END
171
     0
 94
        0
309
TABLEFORMAT_END
  1
CELLSTYLE_BEGIN
 90
        3
 91
        2
300
_DATA
309
CELLSTYLE_END
  0
ENDSEC
  0
EOF
