  0
SECTION
  2
HEADER
  9
$ACADVER
  1
AC1032
  9
$ACADMAINTVER
 90
      228
  9
$DWGCODEPAGE
  3
ANSI_1252
  9
$REQUIREDVERSIONS
160
                 0
  9
$INSBASE
 10
0.0
 20
0.0
 30
0.0
  9
$EXTMIN
 10
1.000000000000000E+20
 20
1.000000000000000E+20
 30
1.000000000000000E+20
  9
$EXTMAX
 10
-1.000000000000000E+20
 20
-1.000000000000000E+20
 30
-1.000000000000000E+20
  9
$LIMMIN
 10
0.0
 20
0.0
  9
$LIMMAX
 10
12.0
 20
9.0
  9
$ORTHOMODE
 70
     0
  9
$REGENMODE
 70
     1
  9
$FILLMODE
 70
     1
  9
$QTEXTMODE
 70
     0
  9
$MIRRTEXT
 70
     0
  9
$LTSCALE
 40
1.0
  9
$ATTMODE
 70
     1
  9
$TEXTSIZE
 40
0.2
  9
$TRACEWID
 40
0.05
  9
$TEXTSTYLE
  7
Standard
  9
$CLAYER
  8
0
  9
$CELTYPE
  6
ByLayer
  9
$CECOLOR
 62
   256
  9
$CELTSCALE
 40
1.0
  9
$DISPSILH
 70
     0
  9
$DIMSCALE
 40
1.0
  9
$DIMASZ
 40
0.18
  9
$DIMEXO
 40
0.0625
  9
$DIMDLI
 40
0.38
  9
$DIMRND
 40
0.0
  9
$DIMDLE
 40
0.0
  9
$DIMEXE
 40
0.18
  9
$DIMTP
 40
0.0
  9
$DIMTM
 40
0.0
  9
$DIMTXT
 40
0.18
  9
$DIMCEN
 40
0.09
  9
$DIMTSZ
 40
0.0
  9
$DIMTOL
 70
     0
  9
$DIMLIM
 70
     0
  9
$DIMTIH
 70
     1
  9
$DIMTOH
 70
     1
  9
$DIMSE1
 70
     0
  9
$DIMSE2
 70
     0
  9
$DIMTAD
 70
     0
  9
$DIMZIN
 70
     0
  9
$DIMBLK
  1

  9
$DIMASO
 70
     1
  9
$DIMSHO
 70
     1
  9
$DIMPOST
  1

  9
$DIMAPOST
  1

  9
$DIMALT
 70
     0
  9
$DIMALTD
 70
     2
  9
$DIMALTF
 40
25.4
  9
$DIMLFAC
 40
1.0
  9
$DIMTOFL
 70
     0
  9
$DIMTVP
 40
0.0
  9
$DIMTIX
 70
     0
  9
$DIMSOXD
 70
     0
  9
$DIMSAH
 70
     0
  9
$DIMBLK1
  1

  9
$DIMBLK2
  1

  9
$DIMSTYLE
  2
Standard
  9
$DIMCLRD
 70
     0
  9
$DIMCLRE
 70
     0
  9
$DIMCLRT
 70
     0
  9
$DIMTFAC
 40
1.0
  9
$DIMGAP
 40
0.09
  9
$DIMJUST
 70
     0
  9
$DIMSD1
 70
     0
  9
$DIMSD2
 70
     0
  9
$DIMTOLJ
 70
     1
  9
$DIMTZIN
 70
     0
  9
$DIMALTZ
 70
     0
  9
$DIMALTTZ
 70
     0
  9
$DIMUPT
 70
     0
  9
$DIMDEC
 70
     4
  9
$DIMTDEC
 70
     4
  9
$DIMALTU
 70
     2
  9
$DIMALTTD
 70
     2
  9
$DIMTXSTY
  7
Standard
  9
$DIMAUNIT
 70
     0
  9
$DIMADEC
 70
     0
  9
$DIMALTRND
 40
0.0
  9
$DIMAZIN
 70
     0
  9
$DIMDSEP
 70
    46
  9
$DIMATFIT
 70
     3
  9
$DIMFRAC
 70
     0
  9
$DIMLDRBLK
  1

  9
$DIMLUNIT
 70
     2
  9
$DIMLWD
 70
    -2
  9
$DIMLWE
 70
    -2
  9
$DIMTMOVE
 70
     0
  9
$DIMFXL
 40
1.0
  9
$DIMFXLON
 70
     0
  9
$DIMJOGANG
 40
0.7853981633974483
  9
$DIMTFILL
 70
     0
  9
$DIMTFILLCLR
 70
     0
  9
$DIMARCSYM
 70
     0
  9
$DIMLTYPE
  6

  9
$DIMLTEX1
  6

  9
$DIMLTEX2
  6

  9
$DIMTXTDIRECTION
 70
     0
  9
$LUNITS
 70
     2
  9
$LUPREC
 70
     4
  9
$SKETCHINC
 40
0.1
  9
$FILLETRAD
 40
0.0
  9
$AUNITS
 70
     0
  9
$AUPREC
 70
     0
  9
$MENU
  1
.
  9
$ELEVATION
 40
0.0
  9
$PELEVATION
 40
0.0
  9
$THICKNESS
 40
0.0
  9
$LIMCHECK
 70
     0
  9
$CHAMFERA
 40
0.0
  9
$CHAMFERB
 40
0.0
  9
$CHAMFERC
 40
0.0
  9
$CHAMFERD
 40
0.0
  9
$SKPOLY
 70
     0
  9
$TDCREATE
 40
2459759.048148149
  9
$TDUCREATE
 40
2459758.964814815
  9
$TDUPDATE
 40
2459759.048148149
  9
$TDUUPDATE
 40
2459758.964814815
  9
$TDINDWG
 40
0.0000000000
  9
$TDUSRTIMER
 40
0.0000000000
  9
$USRTIMER
 70
     1
  9
$ANGBASE
 50
0.0
  9
$ANGDIR
 70
     0
  9
$PDMODE
 70
     0
  9
$PDSIZE
 40
0.0
  9
$PLINEWID
 40
0.0
  9
$SPLFRAME
 70
     0
  9
$SPLINETYPE
 70
     6
  9
$SPLINESEGS
 70
     8
  9
$HANDSEED
  5
B6
  9
$SURFTAB1
 70
     6
  9
$SURFTAB2
 70
     6
  9
$SURFTYPE
 70
     6
  9
$SURFU
 70
     6
  9
$SURFV
 70
     6
  9
$UCSBASE
  2

  9
$UCSNAME
  2

  9
$UCSORG
 10
0.0
 20
0.0
 30
0.0
  9
$UCSXDIR
 10
1.0
 20
0.0
 30
0.0
  9
$UCSYDIR
 10
0.0
 20
1.0
 30
0.0
  9
$UCSORTHOREF
  2

  9
$UCSORTHOVIEW
 70
     0
  9
$UCSORGTOP
 10
0.0
 20
0.0
 30
0.0
  9
$UCSORGBOTTOM
 10
0.0
 20
0.0
 30
0.0
  9
$UCSORGLEFT
 10
0.0
 20
0.0
 30
0.0
  9
$UCSORGRIGHT
 10
0.0
 20
0.0
 30
0.0
  9
$UCSORGFRONT
 10
0.0
 20
0.0
 30
0.0
  9
$UCSORGBACK
 10
0.0
 20
0.0
 30
0.0
  9
$PUCSBASE
  2

  9
$PUCSNAME
  2

  9
$PUCSORG
 10
0.0
 20
0.0
 30
0.0
  9
$PUCSXDIR
 10
1.0
 20
0.0
 30
0.0
  9
$PUCSYDIR
 10
0.0
 20
1.0
 30
0.0
  9
$PUCSORTHOREF
  2

  9
$PUCSORTHOVIEW
 70
     0
  9
$PUCSORGTOP
 10
0.0
 20
0.0
 30
0.0
  9
$PUCSORGBOTTOM
 10
0.0
 20
0.0
 30
0.0
  9
$PUCSORGLEFT
 10
0.0
 20
0.0
 30
0.0
  9
$PUCSORGRIGHT
 10
0.0
 20
0.0
 30
0.0
  9
$PUCSORGFRONT
 10
0.0
 20
0.0
 30
0.0
  9
$PUCSORGBACK
 10
0.0
 20
0.0
 30
0.0
  9
$USERI1
 70
     0
  9
$USERI2
 70
     0
  9
$USERI3
 70
     0
  9
$USERI4
 70
     0
  9
$USERI5
 70
     0
  9
$USERR1
 40
0.0
  9
$USERR2
 40
0.0
  9
$USERR3
 40
0.0
  9
$USERR4
 40
0.0
  9
$USERR5
 40
0.0
  9
$WORLDVIEW
 70
     1
  9
$SHADEDGE
 70
     3
  9
$SHADEDIF
 70
    70
  9
$TILEMODE
 70
     1
  9
$MAXACTVP
 70
    64
  9
$PINSBASE
 10
0.0
 20
0.0
 30
0.0
  9
$PLIMCHECK
 70
     0
  9
$PEXTMIN
 10
1.000000000000000E+20
 20
1.000000000000000E+20
 30
1.000000000000000E+20
  9
$PEXTMAX
 10
-1.000000000000000E+20
 20
-1.000000000000000E+20
 30
-1.000000000000000E+20
  9
$PLIMMIN
 10
0.0
 20
0.0
  9
$PLIMMAX
 10
12.0
 20
9.0
  9
$UNITMODE
 70
     0
  9
$VISRETAIN
 70
     1
  9
$PLINEGEN
 70
     0
  9
$PSLTSCALE
 70
     1
  9
$TREEDEPTH
 70
  3020
  9
$CMLSTYLE
  2
Standard
  9
$CMLJUST
 70
     0
  9
$CMLSCALE
 40
1.0
  9
$PROXYGRAPHICS
 70
     1
  9
$MEASUREMENT
 70
     0
  9
$CELWEIGHT
370
    -1
  9
$ENDCAPS
280
     0
  9
$JOINSTYLE
280
     0
  9
$LWDISPLAY
290
     1
  9
$INSUNITS
 70
     4
  9
$HYPERLINKBASE
  1

  9
$STYLESHEET
  1

  9
$XEDIT
290
     1
  9
$CEPSNTYPE
380
     0
  9
$PSTYLEMODE
290
     1
  9
$FINGERPRINTGUID
  2
{3A7E770D-24CC-EA4B-A786-7B0994E4A01E}
  9
$VERSIONGUID
  2
{F5DF72A1-CEE9-9440-AC85-38561BA55492}
  9
$EXTNAMES
290
     1
  9
$PSVPSCALE
 40
0.0
  9
$OLESTARTUP
290
     0
  9
$SORTENTS
280
   127
  9
$INDEXCTL
280
     0
  9
$HIDETEXT
280
     1
  9
$XCLIPFRAME
280
     2
  9
$HALOGAP
280
     0
  9
$OBSCOLOR
 70
   257
  9
$OBSLTYPE
280
     0
  9
$INTERSECTIONDISPLAY
280
     0
  9
$INTERSECTIONCOLOR
 70
   257
  9
$DIMASSOC
280
     2
  9
$PROJECTNAME
  1

  9
$CAMERADISPLAY
290
     0
  9
$LENSLENGTH
 40
50.0
  9
$CAMERAHEIGHT
 40
0.0
  9
$STEPSPERSEC
 40
2.0
  9
$STEPSIZE
 40
6.0
  9
$3DDWFPREC
 40
2.0
  9
$PSOLWIDTH
 40
0.25
  9
$PSOLHEIGHT
 40
4.0
  9
$LOFTANG1
 40
1.570796326794896
  9
$LOFTANG2
 40
1.570796326794896
  9
$LOFTMAG1
 40
0.0
  9
$LOFTMAG2
 40
0.0
  9
$LOFTPARAM
 70
     7
  9
$LOFTNORMALS
280
     1
  9
$LATITUDE
 40
37.795
  9
$LONGITUDE
 40
-122.394
  9
$NORTHDIRECTION
 40
0.0
  9
$TIMEZONE
 70
 -8000
  9
$LIGHTGLYPHDISPLAY
280
     1
  9
$TILEMODELIGHTSYNCH
280
     1
  9
$CMATERIAL
347
11
  9
$SOLIDHIST
280
     0
  9
$SHOWHIST
280
     1
  9
$DWFFRAME
280
     2
  9
$DGNFRAME
280
     0
  9
$REALWORLDSCALE
290
     1
  9
$INTERFERECOLOR
 62
     1
  9
$INTERFEREOBJVS
345
33
  9
$INTERFEREVPVS
346
30
  9
$CSHADOW
280
     0
  9
$SHADOWPLANELOCATION
 40
0.0
  0
ENDSEC
  0
SECTION
  2
CLASSES
  0
CLASS
  1
ACDBDICTIONARYWDFLT
  2
AcDbDictionaryWithDefault
  3
ObjectDBX Classes
 90
        0
 91
        1
280
     0
281
     0
  0
CLASS
  1
MATERIAL
  2
AcDbMaterial
  3
ObjectDBX Classes
 90
     1153
 91
        3
280
     0
281
     0
  0
CLASS
  1
VISUALSTYLE
  2
AcDbVisualStyle
  3
ObjectDBX Classes
 90
     4095
 91
       24
280
     0
281
     0
  0
CLASS
  1
SCALE
  2
AcDbScale
  3
ObjectDBX Classes
 90
     1153
 91
       17
280
     0
281
     0
  0
CLASS
  1
TABLESTYLE
  2
AcDbTableStyle
  3
ObjectDBX Classes
 90
     4095
 91
        1
280
     0
281
     0
  0
CLASS
  1
MLEADERSTYLE
  2
AcDbMLeaderStyle
  3
ACDB_MLEADERSTYLE_CLASS
 90
     4095
 91
        1
280
     0
281
     0
  0
CLASS
  1
ACDBSECTIONVIEWSTYLE
  2
AcDbSectionViewStyle
  3
ObjectDBX Classes
 90
     1025
 91
        1
280
     0
281
     0
  0
CLASS
  1
ACDBDETAILVIEWSTYLE
  2
AcDbDetailViewStyle
  3
ObjectDBX Classes
 90
     1025
 91
        1
280
     0
281
     0
  0
CLASS
  1
DICTIONARYVAR
  2
AcDbDictionaryVar
  3
ObjectDBX Classes
 90
        0
 91
        5
280
     0
281
     0
  0
CLASS
  1
CELLSTYLEMAP
  2
AcDbCellStyleMap
  3
ObjectDBX Classes
 90
     1152
 91
        1
280
     0
281
     0
  0
ENDSEC
  0
SECTION
  2
TABLES
  0
TABLE
  2
VPORT
  5
8
330
0
100
AcDbSymbolTable
 70
     1
  0
VPORT
  5
57
330
8
100
AcDbSymbolTableRecord
100
AcDbViewportTableRecord
  2
*Active
 70
     0
 10
0.0
 20
0.0
 11
1.0
 21
1.0
 12
0.0
 22
0.0
 13
0.0
 23
0.0
 14
1.0
 24
1.0
 15
0.0
 25
0.0
 16
0.0
 26
0.0
 36
1.0
 17
67.05999478676962
 27
52.44441221107345
 37
0.0
 40
106.9890172557997
 41
1.278658248051103
 42
50.0
 43
0.0
 44
0.0
 50
0.0
 51
0.0
 71
     0
 72
   100
 73
     1
 74
     1
 75
     0
 76
     0
 77
     0
 78
     0
281
     0
 65
     1
110
0.0
120
0.0
130
0.0
111
1.0
121
0.0
131
0.0
112
0.0
122
1.0
132
0.0
 79
     0
146
0.0
 60
     3
 61
     5
292
     1
282
     1
141
0.0
142
0.0
 63
   250
421
  3355443
  0
ENDTAB
  0
TABLE
  2
LTYPE
  5
5
330
0
100
AcDbSymbolTable
 70
     1
  0
LTYPE
  5
5B
330
5
100
AcDbSymbolTableRecord
100
AcDbLinetypeTableRecord
  2
ByBlock
 70
     0
  3

 72
    65
 73
     0
 40
0.0
  0
LTYPE
  5
5C
330
5
100
AcDbSymbolTableRecord
100
AcDbLinetypeTableRecord
  2
ByLayer
 70
     0
  3

 72
    65
 73
     0
 40
0.0
  0
LTYPE
  5
5D
330
5
100
AcDbSymbolTableRecord
100
AcDbLinetypeTableRecord
  2
Continuous
 70
     0
  3
Solid line
 72
    65
 73
     0
 40
0.0
  0
ENDTAB
  0
TABLE
  2
LAYER
  5
2
330
0
100
AcDbSymbolTable
 70
     2
  0
LAYER
  5
54
330
2
100
AcDbSymbolTableRecord
100
AcDbLayerTableRecord
  2
0
 70
     0
 62
     7
  6
Continuous
370
    -3
390
F
347
21
348
0
  0
LAYER
  5
78
330
2
100
AcDbSymbolTableRecord
100
AcDbLayerTableRecord
  2
PCB holes
 70
     0
 62
     7
  6
Continuous
370
     0
390
F
347
21
348
0
  0
ENDTAB
  0
TABLE
  2
STYLE
  5
3
330
0
100
AcDbSymbolTable
 70
     2
  0
STYLE
  5
55
330
3
100
AcDbSymbolTableRecord
100
AcDbTextStyleTableRecord
  2
Standard
 70
     0
 40
0.0
 41
1.0
 50
0.0
 71
     0
 42
0.2
  3
txt
  4

  0
STYLE
  5
5A
330
3
100
AcDbSymbolTableRecord
100
AcDbTextStyleTableRecord
  2
Annotative
 70
     0
 40
0.0
 41
1.0
 50
0.0
 71
     0
 42
0.2
  3
txt
  4

1001
AcadAnnotative
1000
AnnotativeData
1002
{
1070
     1
1070
     1
1002
}
  0
ENDTAB
  0
TABLE
  2
VIEW
  5
6
330
0
100
AcDbSymbolTable
 70
     0
  0
ENDTAB
  0
TABLE
  2
UCS
  5
7
330
0
100
AcDbSymbolTable
 70
     0
  0
ENDTAB
  0
TABLE
  2
APPID
  5
9
330
0
100
AcDbSymbolTable
 70
     2
  0
APPID
  5
56
330
9
100
AcDbSymbolTableRecord
100
AcDbRegAppTableRecord
  2
ACAD
 70
     0
  0
APPID
  5
5E
330
9
100
AcDbSymbolTableRecord
100
AcDbRegAppTableRecord
  2
AcadAnnotative
 70
     0
  0
ENDTAB
  0
TABLE
  2
DIMSTYLE
  5
A
330
0
100
AcDbSymbolTable
 70
     2
100
AcDbDimStyleTable
 71
     0
  0
DIMSTYLE
105
58
330
A
100
AcDbSymbolTableRecord
100
AcDbDimStyleTableRecord
  2
Standard
 70
     0
340
55
  0
DIMSTYLE
105
59
330
A
100
AcDbSymbolTableRecord
100
AcDbDimStyleTableRecord
  2
Annotative
 70
     0
340
55
1001
AcadAnnotative
1000
AnnotativeData
1002
{
1070
     1
1070
     1
1002
}
  0
ENDTAB
  0
TABLE
  2
BLOCK_RECORD
  5
1
330
0
100
AcDbSymbolTable
 70
     1
  0
BLOCK_RECORD
  5
70
330
1
100
AcDbSymbolTableRecord
100
AcDbBlockTableRecord
  2
*Model_Space
340
73
 70
     0
280
     1
281
     0
  0
BLOCK_RECORD
  5
6C
330
1
100
AcDbSymbolTableRecord
100
AcDbBlockTableRecord
  2
*Paper_Space
340
6F
 70
     0
280
     1
281
     0
  0
BLOCK_RECORD
  5
74
330
1
100
AcDbSymbolTableRecord
100
AcDbBlockTableRecord
  2
*Paper_Space0
340
77
 70
     0
280
     1
281
     0
  0
ENDTAB
  0
ENDSEC
  0
SECTION
  2
BLOCKS
  0
BLOCK
  5
71
330
70
100
AcDbEntity
  8
0
100
AcDbBlockBegin
  2
*Model_Space
 70
     0
 10
0.0
 20
0.0
 30
0.0
  3
*Model_Space
  1

  0
ENDBLK
  5
72
330
70
100
AcDbEntity
  8
0
100
AcDbBlockEnd
  0
BLOCK
  5
6D
330
6C
100
AcDbEntity
 67
     1
  8
0
100
AcDbBlockBegin
  2
*Paper_Space
 70
     0
 10
0.0
 20
0.0
 30
0.0
  3
*Paper_Space
  1

  0
ENDBLK
  5
6E
330
6C
100
AcDbEntity
 67
     1
  8
0
100
AcDbBlockEnd
  0
BLOCK
  5
75
330
74
100
AcDbEntity
 67
     1
  8
0
100
AcDbBlockBegin
  2
*Paper_Space0
 70
     0
 10
0.0
 20
0.0
 30
0.0
  3
*Paper_Space0
  1

  0
ENDBLK
  5
76
330
74
100
AcDbEntity
 67
     1
  8
0
100
AcDbBlockEnd
  0
ENDSEC
  0
SECTION
  2
ENTITIES
  0
SPLINE
  5
79
330
70
100
AcDbEntity
  8
PCB holes
 62
     5
420
      255
370
     9
100
AcDbSpline
210
0.0
220
0.0
230
1.0
 70
    11
 71
     3
 72
    20
 73
    16
 74
     0
 42
0.0000000001
 43
0.0000000001
 40
0.0
 40
0.0
 40
0.0
 40
0.0
 40
1.0
 40
1.0
 40
1.0
 40
2.0
 40
2.0
 40
2.0
 40
3.0
 40
3.0
 40
3.0
 40
4.0
 40
4.0
 40
4.0
 40
5.0
 40
5.0
 40
5.0
 40
5.0
 10
127.7313649085169
 20
61.316931952708
 30
0.0
 10
127.7313649085169
 20
61.316931952708
 30
0.0
 10
113.9454632699608
 20
63.74745617256056
 30
0.0
 10
113.9454632699608
 20
63.74745617256056
 30
0.0
 10
113.9454632699608
 20
63.74745617256056
 30
0.0
 10
116.3759928725216
 20
77.53336319382484
 30
0.0
 10
116.3759928725216
 20
77.53336319382484
 30
0.0
 10
116.3759928725216
 20
77.53336319382484
 30
0.0
 10
130.1619052764941
 20
75.10283897397228
 30
0.0
 10
130.1619052764941
 20
75.10283897397228
 30
0.0
 10
130.1619052764941
 20
75.10283897397228
 30
0.0
 10
127.7313756739333
 20
61.316931952708
 30
0.0
 10
127.7313756739333
 20
61.316931952708
 30
0.0
 10
127.7313756739333
 20
61.316931952708
 30
0.0
 10
127.7313649085169
 20
61.316931952708
 30
0.0
 10
127.7313649085169
 20
61.316931952708
 30
0.0
  0
SPLINE
  5
7A
330
70
100
AcDbEntity
  8
PCB holes
 62
     5
420
      255
370
     9
100
AcDbSpline
210
0.0
220
0.0
230
1.0
 70
    11
 71
     3
 72
    20
 73
    16
 74
     0
 42
0.0000000001
 43
0.0000000001
 40
0.0
 40
0.0
 40
0.0
 40
0.0
 40
1.0
 40
1.0
 40
1.0
 40
2.0
 40
2.0
 40
2.0
 40
3.0
 40
3.0
 40
3.0
 40
4.0
 40
4.0
 40
4.0
 40
5.0
 40
5.0
 40
5.0
 40
5.0
 10
124.4295255602265
 20
42.59236860455656
 30
0.0
 10
124.4295255602265
 20
42.59236860455656
 30
0.0
 10
110.6436239216704
 20
45.02289282440912
 30
0.0
 10
110.6436239216704
 20
45.02289282440912
 30
0.0
 10
110.6436239216704
 20
45.02289282440912
 30
0.0
 10
113.0741535242312
 20
58.8087998456734
 30
0.0
 10
113.0741535242312
 20
58.8087998456734
 30
0.0
 10
113.0741535242312
 20
58.8087998456734
 30
0.0
 10
126.8600659282038
 20
56.37827562582084
 30
0.0
 10
126.8600659282038
 20
56.37827562582084
 30
0.0
 10
126.8600659282038
 20
56.37827562582084
 30
0.0
 10
124.4295363256429
 20
42.59236860455656
 30
0.0
 10
124.4295363256429
 20
42.59236860455656
 30
0.0
 10
124.4295363256429
 20
42.59236860455656
 30
0.0
 10
124.4295255602265
 20
42.59236860455656
 30
0.0
 10
124.4295255602265
 20
42.59236860455656
 30
0.0
  0
SPLINE
  5
7B
330
70
100
AcDbEntity
  8
PCB holes
 62
     5
420
      255
370
     9
100
AcDbSpline
210
0.0
220
0.0
230
1.0
 70
    11
 71
     3
 72
    17
 73
    13
 74
     0
 42
0.0000000001
 43
0.0000000001
 40
0.0
 40
0.0
 40
0.0
 40
0.0
 40
1.0
 40
1.0
 40
1.0
 40
2.0
 40
2.0
 40
2.0
 40
3.0
 40
3.0
 40
3.0
 40
4.0
 40
4.0
 40
4.0
 40
4.0
 10
121.1382686163056
 20
23.77961496485357
 30
0.0
 10
121.1382686163056
 20
23.77961496485357
 30
0.0
 10
107.3523562123332
 20
26.21013918470613
 30
0.0
 10
107.3523562123332
 20
26.21013918470613
 30
0.0
 10
107.3523562123332
 20
26.21013918470613
 30
0.0
 10
109.7828858148939
 20
39.99604620597042
 30
0.0
 10
109.7828858148939
 20
39.99604620597042
 30
0.0
 10
109.7828858148939
 20
39.99604620597042
 30
0.0
 10
123.5687982188665
 20
37.56552198611785
 30
0.0
 10
123.5687982188665
 20
37.56552198611785
 30
0.0
 10
123.5687982188665
 20
37.56552198611785
 30
0.0
 10
121.1382686163056
 20
23.77961496485357
 30
0.0
 10
121.1382686163056
 20
23.77961496485357
 30
0.0
  0
SPLINE
  5
7C
330
70
100
AcDbEntity
  8
PCB holes
 62
     5
420
      255
370
     9
100
AcDbSpline
210
0.0
220
0.0
230
1.0
 70
     9
 71
     3
 72
    20
 73
    16
 74
     0
 42
0.0000000001
 43
0.0000000001
 40
0.0
 40
0.0
 40
0.0
 40
0.0
 40
1.0
 40
1.0
 40
1.0
 40
2.0
 40
2.0
 40
2.0
 40
3.0
 40
3.0
 40
3.0
 40
4.0
 40
4.0
 40
4.0
 40
5.0
 40
5.0
 40
5.0
 40
5.0
 10
92.76922165863423
 20
77.42400809353423
 30
0.0
 10
92.76922165863423
 20
77.42400809353423
 30
0.0
 10
93.74636621347555
 20
91.38982271746561
 30
0.0
 10
93.74636621347555
 20
91.38982271746561
 30
0.0
 10
93.74636621347555
 20
91.38982271746561
 30
0.0
 10
107.71217949173
 20
90.41267412559328
 30
0.0
 10
107.71217949173
 20
90.41267412559328
 30
0.0
 10
107.71217949173
 20
90.41267412559328
 30
0.0
 10
106.7350349368887
 20
76.44685815598468
 30
0.0
 10
106.7350349368887
 20
76.44685815598468
 30
0.0
 10
106.7350349368887
 20
76.44685815598468
 30
0.0
 10
92.76922165863423
 20
77.42400540218011
 30
0.0
 10
92.76922165863423
 20
77.42400540218011
 30
0.0
 10
92.76922165863423
 20
77.42400540218011
 30
0.0
 10
92.76922165863423
 20
77.42400540218011
 30
0.0
 10
92.76922165863423
 20
77.42400809353423
 30
0.0
  0
SPLINE
  5
7D
330
70
100
AcDbEntity
  8
PCB holes
 62
     5
420
      255
370
     9
100
AcDbSpline
210
0.0
220
0.0
230
1.0
 70
    11
 71
     3
 72
    20
 73
    16
 74
     0
 42
0.0000000001
 43
0.0000000001
 40
0.0
 40
0.0
 40
0.0
 40
0.0
 40
1.0
 40
1.0
 40
1.0
 40
2.0
 40
2.0
 40
2.0
 40
3.0
 40
3.0
 40
3.0
 40
4.0
 40
4.0
 40
4.0
 40
5.0
 40
5.0
 40
5.0
 40
5.0
 10
105.4086602724365
 20
57.48241979851297
 30
0.0
 10
105.4086602724365
 20
57.48241979851297
 30
0.0
 10
91.44284699418202
 20
58.4595697360625
 30
0.0
 10
91.44284699418202
 20
58.4595697360625
 30
0.0
 10
91.44284699418202
 20
58.4595697360625
 30
0.0
 10
92.41999154902334
 20
72.425383014317
 30
0.0
 10
92.41999154902334
 20
72.425383014317
 30
0.0
 10
92.41999154902334
 20
72.425383014317
 30
0.0
 10
106.3858048272778
 20
71.44823576812156
 30
0.0
 10
106.3858048272778
 20
71.44823576812156
 30
0.0
 10
106.3858048272778
 20
71.44823576812156
 30
0.0
 10
105.4086602724365
 20
57.48241979851297
 30
0.0
 10
105.4086602724365
 20
57.48241979851297
 30
0.0
 10
105.4086602724365
 20
57.48241979851297
 30
0.0
 10
105.4086602724365
 20
57.48241979851297
 30
0.0
 10
105.4086602724365
 20
57.48241979851297
 30
0.0
  0
SPLINE
  5
7E
330
70
100
AcDbEntity
  8
PCB holes
 62
     5
420
      255
370
     9
100
AcDbSpline
210
0.0
220
0.0
230
1.0
 70
    11
 71
     3
 72
    17
 73
    13
 74
     0
 42
0.0000000001
 43
0.0000000001
 40
0.0
 40
0.0
 40
0.0
 40
0.0
 40
1.0
 40
1.0
 40
1.0
 40
2.0
 40
2.0
 40
2.0
 40
3.0
 40
3.0
 40
3.0
 40
4.0
 40
4.0
 40
4.0
 40
4.0
 10
104.1034396513069
 20
38.42979114948968
 30
0.0
 10
104.1034396513069
 20
38.42979114948968
 30
0.0
 10
90.13762637305239
 20
39.40694108703923
 30
0.0
 10
90.13762637305239
 20
39.40694108703923
 30
0.0
 10
90.13762637305239
 20
39.40694108703923
 30
0.0
 10
91.11477092789373
 20
53.37275436529372
 30
0.0
 10
91.11477092789373
 20
53.37275436529372
 30
0.0
 10
91.11477092789373
 20
53.37275436529372
 30
0.0
 10
105.0805842061482
 20
52.39560442774418
 30
0.0
 10
105.0805842061482
 20
52.39560442774418
 30
0.0
 10
105.0805842061482
 20
52.39560442774418
 30
0.0
 10
104.1034396513069
 20
38.42979114948968
 30
0.0
 10
104.1034396513069
 20
38.42979114948968
 30
0.0
  0
SPLINE
  5
7F
330
70
100
AcDbEntity
  8
PCB holes
 62
     5
420
      255
370
     9
100
AcDbSpline
210
0.0
220
0.0
230
1.0
 70
     9
 71
     3
 72
    17
 73
    13
 74
     0
 42
0.0000000001
 43
0.0000000001
 40
0.0
 40
0.0
 40
0.0
 40
0.0
 40
1.0
 40
1.0
 40
1.0
 40
2.0
 40
2.0
 40
2.0
 40
3.0
 40
3.0
 40
3.0
 40
4.0
 40
4.0
 40
4.0
 40
4.0
 10
100.889790594568
 20
30.49972164033203
 30
0.0
 10
100.3112571145899
 20
30.49972164033203
 30
0.0
 10
99.8385584437236
 20
30.9688946373113
 30
0.0
 10
99.8385584437236
 20
31.55094840846829
 30
0.0
 10
99.8385584437236
 20
32.13300217962526
 30
0.0
 10
100.3077260579946
 20
32.60217517660453
 30
0.0
 10
100.889790594568
 20
32.60217517660453
 30
0.0
 10
101.4718551311415
 20
32.60217517660453
 30
0.0
 10
101.9410227454125
 20
32.13300217962526
 30
0.0
 10
101.9410227454125
 20
31.55094840846829
 30
0.0
 10
101.9410227454125
 20
30.9688946373113
 30
0.0
 10
101.4718551311415
 20
30.49972164033203
 30
0.0
 10
100.889790594568
 20
30.49972164033203
 30
0.0
  0
SPLINE
  5
80
330
70
100
AcDbEntity
  8
PCB holes
 62
     5
420
      255
370
     9
100
AcDbSpline
210
0.0
220
0.0
230
1.0
 70
     9
 71
     3
 72
    17
 73
    13
 74
     0
 42
0.0000000001
 43
0.0000000001
 40
0.0
 40
0.0
 40
0.0
 40
0.0
 40
1.0
 40
1.0
 40
1.0
 40
2.0
 40
2.0
 40
2.0
 40
3.0
 40
3.0
 40
3.0
 40
4.0
 40
4.0
 40
4.0
 40
4.0
 10
93.48180610423733
 20
99.34811511152197
 30
0.0
 10
94.06033958421543
 20
99.34811511152197
 30
0.0
 10
94.53303825508182
 20
98.87894278738116
 30
0.0
 10
94.53303825508182
 20
98.2968869977085
 30
0.0
 10
94.53303825508182
 20
97.71483120803617
 30
0.0
 10
94.06387064081078
 20
97.24565888389536
 30
0.0
 10
93.48180610423733
 20
97.24565888389536
 30
0.0
 10
92.8997415676639
 20
97.24565888389536
 30
0.0
 10
92.43057395339286
 20
97.71483120803617
 30
0.0
 10
92.43057395339286
 20
98.2968869977085
 30
0.0
 10
92.43057395339286
 20
98.87894278738116
 30
0.0
 10
92.8997415676639
 20
99.34811511152197
 30
0.0
 10
93.48180610423733
 20
99.34811511152197
 30
0.0
  0
SPLINE
  5
81
330
70
100
AcDbEntity
  8
PCB holes
 62
     5
420
      255
370
     9
100
AcDbSpline
210
0.0
220
0.0
230
1.0
 70
     9
 71
     3
 72
    17
 73
    13
 74
     0
 42
0.0000000001
 43
0.0000000001
 40
0.0
 40
0.0
 40
0.0
 40
0.0
 40
1.0
 40
1.0
 40
1.0
 40
2.0
 40
2.0
 40
2.0
 40
3.0
 40
3.0
 40
3.0
 40
4.0
 40
4.0
 40
4.0
 40
4.0
 10
86.63118490243743
 20
64.91862582806518
 30
0.0
 10
86.05265680516755
 20
64.91862582806518
 30
0.0
 10
85.57995813430117
 20
65.38779882504444
 30
0.0
 10
85.57995813430117
 20
65.96985528755554
 30
0.0
 10
85.57995813430117
 20
66.55191175006663
 30
0.0
 10
86.04913113128045
 20
67.02108474704591
 30
0.0
 10
86.63118490243743
 20
67.02108474704591
 30
0.0
 10
87.21323867359441
 20
67.02108474704591
 30
0.0
 10
87.68241167057366
 20
66.55191175006663
 30
0.0
 10
87.68241167057366
 20
65.96985528755554
 30
0.0
 10
87.68241167057366
 20
65.38779882504444
 30
0.0
 10
87.21323867359441
 20
64.91862582806518
 30
0.0
 10
86.63118490243743
 20
64.91862582806518
 30
0.0
  0
SPLINE
  5
82
330
70
100
AcDbEntity
  8
PCB holes
 62
     5
420
      255
370
     9
100
AcDbSpline
210
0.0
220
0.0
230
1.0
 70
    11
 71
     3
 72
    17
 73
    13
 74
     0
 42
0.0000000001
 43
0.0000000001
 40
0.0
 40
0.0
 40
0.0
 40
0.0
 40
1.0
 40
1.0
 40
1.0
 40
2.0
 40
2.0
 40
2.0
 40
3.0
 40
3.0
 40
3.0
 40
4.0
 40
4.0
 40
4.0
 40
4.0
 10
85.48823678615429
 20
49.26661460596158
 30
0.0
 10
85.48823678615429
 20
49.26661460596158
 30
0.0
 10
71.48714523819589
 20
49.26661460596158
 30
0.0
 10
71.48714523819589
 20
49.26661460596158
 30
0.0
 10
71.48714523819589
 20
49.26661460596158
 30
0.0
 10
71.48714523819589
 20
63.26417778867877
 30
0.0
 10
71.48714523819589
 20
63.26417778867877
 30
0.0
 10
71.48714523819589
 20
63.26417778867877
 30
0.0
 10
85.48823678615429
 20
63.26417778867877
 30
0.0
 10
85.48823678615429
 20
63.26417778867877
 30
0.0
 10
85.48823678615429
 20
63.26417778867877
 30
0.0
 10
85.48823678615429
 20
49.26661460596158
 30
0.0
 10
85.48823678615429
 20
49.26661460596158
 30
0.0
  0
SPLINE
  5
83
330
70
100
AcDbEntity
  8
PCB holes
 62
     5
420
      255
370
     9
100
AcDbSpline
210
0.0
220
0.0
230
1.0
 70
     9
 71
     3
 72
    17
 73
    13
 74
     0
 42
0.0000000001
 43
0.0000000001
 40
0.0
 40
0.0
 40
0.0
 40
0.0
 40
1.0
 40
1.0
 40
1.0
 40
2.0
 40
2.0
 40
2.0
 40
3.0
 40
3.0
 40
3.0
 40
4.0
 40
4.0
 40
4.0
 40
4.0
 10
83.48808161968998
 20
41.223658939918
 30
0.0
 10
83.21292834066579
 20
41.223658939918
 30
0.0
 10
82.98716140960214
 20
41.44590019709455
 30
0.0
 10
82.98716140960214
 20
41.72457915000585
 30
0.0
 10
82.98716140960214
 20
42.00325810291714
 30
0.0
 10
83.20940266677869
 20
42.22549936009371
 30
0.0
 10
83.48808161968998
 20
42.22549936009371
 30
0.0
 10
83.76676057260128
 20
42.22549936009371
 30
0.0
 10
83.98900182977783
 20
42.00325810291714
 30
0.0
 10
83.98900182977783
 20
41.72457915000585
 30
0.0
 10
83.98900182977783
 20
41.44590019709455
 30
0.0
 10
83.76676057260128
 20
41.223658939918
 30
0.0
 10
83.48808161968998
 20
41.223658939918
 30
0.0
  0
SPLINE
  5
84
330
70
100
AcDbEntity
  8
PCB holes
 62
     5
420
      255
370
     9
100
AcDbSpline
210
0.0
220
0.0
230
1.0
 70
     9
 71
     3
 72
    17
 73
    13
 74
     0
 42
0.0000000001
 43
0.0000000001
 40
0.0
 40
0.0
 40
0.0
 40
0.0
 40
1.0
 40
1.0
 40
1.0
 40
2.0
 40
2.0
 40
2.0
 40
3.0
 40
3.0
 40
3.0
 40
4.0
 40
4.0
 40
4.0
 40
4.0
 10
83.48808161968998
 20
39.22350377345369
 30
0.0
 10
83.21292834066579
 20
39.22350377345369
 30
0.0
 10
82.98716140960214
 20
39.44574503063024
 30
0.0
 10
82.98716140960214
 20
39.72442398354154
 30
0.0
 10
82.98716140960214
 20
40.00310293645283
 30
0.0
 10
83.20940266677869
 20
40.2253441936294
 30
0.0
 10
83.48808161968998
 20
40.2253441936294
 30
0.0
 10
83.76676057260128
 20
40.2253441936294
 30
0.0
 10
83.98900182977783
 20
40.00310293645283
 30
0.0
 10
83.98900182977783
 20
39.72442398354154
 30
0.0
 10
83.98900182977783
 20
39.44574503063024
 30
0.0
 10
83.76676057260128
 20
39.22350377345369
 30
0.0
 10
83.48808161968998
 20
39.22350377345369
 30
0.0
  0
SPLINE
  5
85
330
70
100
AcDbEntity
  8
PCB holes
 62
     5
420
      255
370
     9
100
AcDbSpline
210
0.0
220
0.0
230
1.0
 70
     9
 71
     3
 72
    17
 73
    13
 74
     0
 42
0.0000000001
 43
0.0000000001
 40
0.0
 40
0.0
 40
0.0
 40
0.0
 40
1.0
 40
1.0
 40
1.0
 40
2.0
 40
2.0
 40
2.0
 40
3.0
 40
3.0
 40
3.0
 40
4.0
 40
4.0
 40
4.0
 40
4.0
 10
83.48808161968998
 20
37.22334860698938
 30
0.0
 10
83.21292834066579
 20
37.22334860698938
 30
0.0
 10
82.98716140960214
 20
37.44558986416593
 30
0.0
 10
82.98716140960214
 20
37.72426881707723
 30
0.0
 10
82.98716140960214
 20
38.00294776998853
 30
0.0
 10
83.20940266677869
 20
38.22518902716509
 30
0.0
 10
83.48808161968998
 20
38.22518902716509
 30
0.0
 10
83.76676057260128
 20
38.22518902716509
 30
0.0
 10
83.98900182977783
 20
38.00294776998853
 30
0.0
 10
83.98900182977783
 20
37.72426881707723
 30
0.0
 10
83.98900182977783
 20
37.44558986416593
 30
0.0
 10
83.76676057260128
 20
37.22334860698938
 30
0.0
 10
83.48808161968998
 20
37.22334860698938
 30
0.0
  0
SPLINE
  5
86
330
70
100
AcDbEntity
  8
PCB holes
 62
     5
420
      255
370
     9
100
AcDbSpline
210
0.0
220
0.0
230
1.0
 70
     9
 71
     3
 72
    17
 73
    13
 74
     0
 42
0.0000000001
 43
0.0000000001
 40
0.0
 40
0.0
 40
0.0
 40
0.0
 40
1.0
 40
1.0
 40
1.0
 40
2.0
 40
2.0
 40
2.0
 40
3.0
 40
3.0
 40
3.0
 40
4.0
 40
4.0
 40
4.0
 40
4.0
 10
83.48808161968998
 20
35.22319344052507
 30
0.0
 10
83.21292834066579
 20
35.22319344052507
 30
0.0
 10
82.98716140960214
 20
35.44543469770162
 30
0.0
 10
82.98716140960214
 20
35.72411365061292
 30
0.0
 10
82.98716140960214
 20
36.00279260352422
 30
0.0
 10
83.20940266677869
 20
36.22503386070077
 30
0.0
 10
83.48808161968998
 20
36.22503386070077
 30
0.0
 10
83.76676057260128
 20
36.22503386070077
 30
0.0
 10
83.98900182977783
 20
36.00279260352422
 30
0.0
 10
83.98900182977783
 20
35.72411365061292
 30
0.0
 10
83.98900182977783
 20
35.44543469770162
 30
0.0
 10
83.76676057260128
 20
35.22319344052507
 30
0.0
 10
83.48808161968998
 20
35.22319344052507
 30
0.0
  0
SPLINE
  5
87
330
70
100
AcDbEntity
  8
PCB holes
 62
     5
420
      255
370
     9
100
AcDbSpline
210
0.0
220
0.0
230
1.0
 70
     9
 71
     3
 72
    17
 73
    13
 74
     0
 42
0.0000000001
 43
0.0000000001
 40
0.0
 40
0.0
 40
0.0
 40
0.0
 40
1.0
 40
1.0
 40
1.0
 40
2.0
 40
2.0
 40
2.0
 40
3.0
 40
3.0
 40
3.0
 40
4.0
 40
4.0
 40
4.0
 40
4.0
 10
83.48808161968998
 20
33.22303827406076
 30
0.0
 10
83.21292834066579
 20
33.22303827406076
 30
0.0
 10
82.98716140960214
 20
33.44527953123731
 30
0.0
 10
82.98716140960214
 20
33.72395848414861
 30
0.0
 10
82.98716140960214
 20
34.00263743705991
 30
0.0
 10
83.20940266677869
 20
34.22487869423646
 30
0.0
 10
83.48808161968998
 20
34.22487869423646
 30
0.0
 10
83.76676057260128
 20
34.22487869423646
 30
0.0
 10
83.98900182977783
 20
34.00263743705991
 30
0.0
 10
83.98900182977783
 20
33.72395848414861
 30
0.0
 10
83.98900182977783
 20
33.44527953123731
 30
0.0
 10
83.76676057260128
 20
33.22303827406076
 30
0.0
 10
83.48808161968998
 20
33.22303827406076
 30
0.0
  0
SPLINE
  5
88
330
70
100
AcDbEntity
  8
PCB holes
 62
     5
420
      255
370
     9
100
AcDbSpline
210
0.0
220
0.0
230
1.0
 70
     9
 71
     3
 72
    17
 73
    13
 74
     0
 42
0.0000000001
 43
0.0000000001
 40
0.0
 40
0.0
 40
0.0
 40
0.0
 40
1.0
 40
1.0
 40
1.0
 40
2.0
 40
2.0
 40
2.0
 40
3.0
 40
3.0
 40
3.0
 40
4.0
 40
4.0
 40
4.0
 40
4.0
 10
81.48792645322567
 20
41.223658939918
 30
0.0
 10
81.21277317420148
 20
41.223658939918
 30
0.0
 10
80.98700624313782
 20
41.44590019709455
 30
0.0
 10
80.98700624313782
 20
41.72457915000585
 30
0.0
 10
80.98700624313782
 20
42.00325810291714
 30
0.0
 10
81.20924750031438
 20
42.22549936009371
 30
0.0
 10
81.48792645322567
 20
42.22549936009371
 30
0.0
 10
81.76660540613697
 20
42.22549936009371
 30
0.0
 10
81.98884666331352
 20
42.00325810291714
 30
0.0
 10
81.98884666331352
 20
41.72457915000585
 30
0.0
 10
81.98884666331352
 20
41.44590019709455
 30
0.0
 10
81.76660540613697
 20
41.223658939918
 30
0.0
 10
81.48792645322567
 20
41.223658939918
 30
0.0
  0
SPLINE
  5
89
330
70
100
AcDbEntity
  8
PCB holes
 62
     5
420
      255
370
     9
100
AcDbSpline
210
0.0
220
0.0
230
1.0
 70
     9
 71
     3
 72
    17
 73
    13
 74
     0
 42
0.0000000001
 43
0.0000000001
 40
0.0
 40
0.0
 40
0.0
 40
0.0
 40
1.0
 40
1.0
 40
1.0
 40
2.0
 40
2.0
 40
2.0
 40
3.0
 40
3.0
 40
3.0
 40
4.0
 40
4.0
 40
4.0
 40
4.0
 10
81.48792645322567
 20
39.22350377345369
 30
0.0
 10
81.21277317420148
 20
39.22350377345369
 30
0.0
 10
80.98700624313782
 20
39.44574503063024
 30
0.0
 10
80.98700624313782
 20
39.72442398354154
 30
0.0
 10
80.98700624313782
 20
40.00310293645283
 30
0.0
 10
81.20924750031438
 20
40.2253441936294
 30
0.0
 10
81.48792645322567
 20
40.2253441936294
 30
0.0
 10
81.76660540613697
 20
40.2253441936294
 30
0.0
 10
81.98884666331352
 20
40.00310293645283
 30
0.0
 10
81.98884666331352
 20
39.72442398354154
 30
0.0
 10
81.98884666331352
 20
39.44574503063024
 30
0.0
 10
81.76660540613697
 20
39.22350377345369
 30
0.0
 10
81.48792645322567
 20
39.22350377345369
 30
0.0
  0
SPLINE
  5
8A
330
70
100
AcDbEntity
  8
PCB holes
 62
     5
420
      255
370
     9
100
AcDbSpline
210
0.0
220
0.0
230
1.0
 70
     9
 71
     3
 72
    17
 73
    13
 74
     0
 42
0.0000000001
 43
0.0000000001
 40
0.0
 40
0.0
 40
0.0
 40
0.0
 40
1.0
 40
1.0
 40
1.0
 40
2.0
 40
2.0
 40
2.0
 40
3.0
 40
3.0
 40
3.0
 40
4.0
 40
4.0
 40
4.0
 40
4.0
 10
81.48792645322567
 20
37.22334860698938
 30
0.0
 10
81.21277317420148
 20
37.22334860698938
 30
0.0
 10
80.98700624313782
 20
37.44558986416593
 30
0.0
 10
80.98700624313782
 20
37.72426881707723
 30
0.0
 10
80.98700624313782
 20
38.00294776998853
 30
0.0
 10
81.20924750031438
 20
38.22518902716509
 30
0.0
 10
81.48792645322567
 20
38.22518902716509
 30
0.0
 10
81.76660540613697
 20
38.22518902716509
 30
0.0
 10
81.98884666331352
 20
38.00294776998853
 30
0.0
 10
81.98884666331352
 20
37.72426881707723
 30
0.0
 10
81.98884666331352
 20
37.44558986416593
 30
0.0
 10
81.76660540613697
 20
37.22334860698938
 30
0.0
 10
81.48792645322567
 20
37.22334860698938
 30
0.0
  0
SPLINE
  5
8B
330
70
100
AcDbEntity
  8
PCB holes
 62
     5
420
      255
370
     9
100
AcDbSpline
210
0.0
220
0.0
230
1.0
 70
     9
 71
     3
 72
    17
 73
    13
 74
     0
 42
0.0000000001
 43
0.0000000001
 40
0.0
 40
0.0
 40
0.0
 40
0.0
 40
1.0
 40
1.0
 40
1.0
 40
2.0
 40
2.0
 40
2.0
 40
3.0
 40
3.0
 40
3.0
 40
4.0
 40
4.0
 40
4.0
 40
4.0
 10
81.48792645322567
 20
35.22319344052507
 30
0.0
 10
81.21277317420148
 20
35.22319344052507
 30
0.0
 10
80.98700624313782
 20
35.44543469770162
 30
0.0
 10
80.98700624313782
 20
35.72411365061292
 30
0.0
 10
80.98700624313782
 20
36.00279260352422
 30
0.0
 10
81.20924750031438
 20
36.22503386070077
 30
0.0
 10
81.48792645322567
 20
36.22503386070077
 30
0.0
 10
81.76660540613697
 20
36.22503386070077
 30
0.0
 10
81.98884666331352
 20
36.00279260352422
 30
0.0
 10
81.98884666331352
 20
35.72411365061292
 30
0.0
 10
81.98884666331352
 20
35.44543469770162
 30
0.0
 10
81.76660540613697
 20
35.22319344052507
 30
0.0
 10
81.48792645322567
 20
35.22319344052507
 30
0.0
  0
SPLINE
  5
8C
330
70
100
AcDbEntity
  8
PCB holes
 62
     5
420
      255
370
     9
100
AcDbSpline
210
0.0
220
0.0
230
1.0
 70
     9
 71
     3
 72
    17
 73
    13
 74
     0
 42
0.0000000001
 43
0.0000000001
 40
0.0
 40
0.0
 40
0.0
 40
0.0
 40
1.0
 40
1.0
 40
1.0
 40
2.0
 40
2.0
 40
2.0
 40
3.0
 40
3.0
 40
3.0
 40
4.0
 40
4.0
 40
4.0
 40
4.0
 10
81.48792645322567
 20
33.22303827406076
 30
0.0
 10
81.21277317420148
 20
33.22303827406076
 30
0.0
 10
80.98700624313782
 20
33.44527953123731
 30
0.0
 10
80.98700624313782
 20
33.72395848414861
 30
0.0
 10
80.98700624313782
 20
34.00263743705991
 30
0.0
 10
81.20924750031438
 20
34.22487869423646
 30
0.0
 10
81.48792645322567
 20
34.22487869423646
 30
0.0
 10
81.76660540613697
 20
34.22487869423646
 30
0.0
 10
81.98884666331352
 20
34.00263743705991
 30
0.0
 10
81.98884666331352
 20
33.72395848414861
 30
0.0
 10
81.98884666331352
 20
33.44527953123731
 30
0.0
 10
81.76660540613697
 20
33.22303827406076
 30
0.0
 10
81.48792645322567
 20
33.22303827406076
 30
0.0
  0
SPLINE
  5
8D
330
70
100
AcDbEntity
  8
PCB holes
 62
     5
420
      255
370
     9
100
AcDbSpline
210
0.0
220
0.0
230
1.0
 70
     9
 71
     3
 72
    17
 73
    13
 74
     0
 42
0.0000000001
 43
0.0000000001
 40
0.0
 40
0.0
 40
0.0
 40
0.0
 40
1.0
 40
1.0
 40
1.0
 40
2.0
 40
2.0
 40
2.0
 40
3.0
 40
3.0
 40
3.0
 40
4.0
 40
4.0
 40
4.0
 40
4.0
 10
79.48777128676136
 20
41.223658939918
 30
0.0
 10
79.21261800773716
 20
41.223658939918
 30
0.0
 10
78.9868510766735
 20
41.44590019709455
 30
0.0
 10
78.9868510766735
 20
41.72457915000585
 30
0.0
 10
78.9868510766735
 20
42.00325810291714
 30
0.0
 10
79.20909233385007
 20
42.22549936009371
 30
0.0
 10
79.48777128676136
 20
42.22549936009371
 30
0.0
 10
79.76645023967266
 20
42.22549936009371
 30
0.0
 10
79.98869149684921
 20
42.00325810291714
 30
0.0
 10
79.98869149684921
 20
41.72457915000585
 30
0.0
 10
79.98869149684921
 20
41.44590019709455
 30
0.0
 10
79.76645023967266
 20
41.223658939918
 30
0.0
 10
79.48777128676136
 20
41.223658939918
 30
0.0
  0
SPLINE
  5
8E
330
70
100
AcDbEntity
  8
PCB holes
 62
     5
420
      255
370
     9
100
AcDbSpline
210
0.0
220
0.0
230
1.0
 70
     9
 71
     3
 72
    17
 73
    13
 74
     0
 42
0.0000000001
 43
0.0000000001
 40
0.0
 40
0.0
 40
0.0
 40
0.0
 40
1.0
 40
1.0
 40
1.0
 40
2.0
 40
2.0
 40
2.0
 40
3.0
 40
3.0
 40
3.0
 40
4.0
 40
4.0
 40
4.0
 40
4.0
 10
79.48777128676136
 20
39.22350377345369
 30
0.0
 10
79.21261800773716
 20
39.22350377345369
 30
0.0
 10
78.9868510766735
 20
39.44574503063024
 30
0.0
 10
78.9868510766735
 20
39.72442398354154
 30
0.0
 10
78.9868510766735
 20
40.00310293645283
 30
0.0
 10
79.20909233385007
 20
40.2253441936294
 30
0.0
 10
79.48777128676136
 20
40.2253441936294
 30
0.0
 10
79.76645023967266
 20
40.2253441936294
 30
0.0
 10
79.98869149684921
 20
40.00310293645283
 30
0.0
 10
79.98869149684921
 20
39.72442398354154
 30
0.0
 10
79.98869149684921
 20
39.44574503063024
 30
0.0
 10
79.76645023967266
 20
39.22350377345369
 30
0.0
 10
79.48777128676136
 20
39.22350377345369
 30
0.0
  0
SPLINE
  5
8F
330
70
100
AcDbEntity
  8
PCB holes
 62
     5
420
      255
370
     9
100
AcDbSpline
210
0.0
220
0.0
230
1.0
 70
     9
 71
     3
 72
    17
 73
    13
 74
     0
 42
0.0000000001
 43
0.0000000001
 40
0.0
 40
0.0
 40
0.0
 40
0.0
 40
1.0
 40
1.0
 40
1.0
 40
2.0
 40
2.0
 40
2.0
 40
3.0
 40
3.0
 40
3.0
 40
4.0
 40
4.0
 40
4.0
 40
4.0
 10
79.48777128676136
 20
37.22334860698938
 30
0.0
 10
79.21261800773716
 20
37.22334860698938
 30
0.0
 10
78.9868510766735
 20
37.44558986416593
 30
0.0
 10
78.9868510766735
 20
37.72426881707723
 30
0.0
 10
78.9868510766735
 20
38.00294776998853
 30
0.0
 10
79.20909233385007
 20
38.22518902716509
 30
0.0
 10
79.48777128676136
 20
38.22518902716509
 30
0.0
 10
79.76645023967266
 20
38.22518902716509
 30
0.0
 10
79.98869149684921
 20
38.00294776998853
 30
0.0
 10
79.98869149684921
 20
37.72426881707723
 30
0.0
 10
79.98869149684921
 20
37.44558986416593
 30
0.0
 10
79.76645023967266
 20
37.22334860698938
 30
0.0
 10
79.48777128676136
 20
37.22334860698938
 30
0.0
  0
SPLINE
  5
90
330
70
100
AcDbEntity
  8
PCB holes
 62
     5
420
      255
370
     9
100
AcDbSpline
210
0.0
220
0.0
230
1.0
 70
     9
 71
     3
 72
    17
 73
    13
 74
     0
 42
0.0000000001
 43
0.0000000001
 40
0.0
 40
0.0
 40
0.0
 40
0.0
 40
1.0
 40
1.0
 40
1.0
 40
2.0
 40
2.0
 40
2.0
 40
3.0
 40
3.0
 40
3.0
 40
4.0
 40
4.0
 40
4.0
 40
4.0
 10
79.48777128676136
 20
35.22319344052507
 30
0.0
 10
79.21261800773716
 20
35.22319344052507
 30
0.0
 10
78.9868510766735
 20
35.44543469770162
 30
0.0
 10
78.9868510766735
 20
35.72411365061292
 30
0.0
 10
78.9868510766735
 20
36.00279260352422
 30
0.0
 10
79.20909233385007
 20
36.22503386070077
 30
0.0
 10
79.48777128676136
 20
36.22503386070077
 30
0.0
 10
79.76645023967266
 20
36.22503386070077
 30
0.0
 10
79.98869149684921
 20
36.00279260352422
 30
0.0
 10
79.98869149684921
 20
35.72411365061292
 30
0.0
 10
79.98869149684921
 20
35.44543469770162
 30
0.0
 10
79.76645023967266
 20
35.22319344052507
 30
0.0
 10
79.48777128676136
 20
35.22319344052507
 30
0.0
  0
SPLINE
  5
91
330
70
100
AcDbEntity
  8
PCB holes
 62
     5
420
      255
370
     9
100
AcDbSpline
210
0.0
220
0.0
230
1.0
 70
     9
 71
     3
 72
    17
 73
    13
 74
     0
 42
0.0000000001
 43
0.0000000001
 40
0.0
 40
0.0
 40
0.0
 40
0.0
 40
1.0
 40
1.0
 40
1.0
 40
2.0
 40
2.0
 40
2.0
 40
3.0
 40
3.0
 40
3.0
 40
4.0
 40
4.0
 40
4.0
 40
4.0
 10
79.48777128676136
 20
33.22303827406076
 30
0.0
 10
79.21261800773716
 20
33.22303827406076
 30
0.0
 10
78.9868510766735
 20
33.44527953123731
 30
0.0
 10
78.9868510766735
 20
33.72395848414861
 30
0.0
 10
78.9868510766735
 20
34.00263743705991
 30
0.0
 10
79.20909233385007
 20
34.22487869423646
 30
0.0
 10
79.48777128676136
 20
34.22487869423646
 30
0.0
 10
79.76645023967266
 20
34.22487869423646
 30
0.0
 10
79.98869149684921
 20
34.00263743705991
 30
0.0
 10
79.98869149684921
 20
33.72395848414861
 30
0.0
 10
79.98869149684921
 20
33.44527953123731
 30
0.0
 10
79.76645023967266
 20
33.22303827406076
 30
0.0
 10
79.48777128676136
 20
33.22303827406076
 30
0.0
  0
SPLINE
  5
92
330
70
100
AcDbEntity
  8
PCB holes
 62
     5
420
      255
370
     9
100
AcDbSpline
210
0.0
220
0.0
230
1.0
 70
     9
 71
     3
 72
    17
 73
    13
 74
     0
 42
0.0000000001
 43
0.0000000001
 40
0.0
 40
0.0
 40
0.0
 40
0.0
 40
1.0
 40
1.0
 40
1.0
 40
2.0
 40
2.0
 40
2.0
 40
3.0
 40
3.0
 40
3.0
 40
4.0
 40
4.0
 40
4.0
 40
4.0
 10
77.48761612029705
 20
41.223658939918
 30
0.0
 10
77.21246284127285
 20
41.223658939918
 30
0.0
 10
76.98669591020919
 20
41.44590019709455
 30
0.0
 10
76.98669591020919
 20
41.72457915000585
 30
0.0
 10
76.98669591020919
 20
42.00325810291714
 30
0.0
 10
77.20893716738576
 20
42.22549936009371
 30
0.0
 10
77.48761612029705
 20
42.22549936009371
 30
0.0
 10
77.76629507320835
 20
42.22549936009371
 30
0.0
 10
77.9885363303849
 20
42.00325810291714
 30
0.0
 10
77.9885363303849
 20
41.72457915000585
 30
0.0
 10
77.9885363303849
 20
41.44590019709455
 30
0.0
 10
77.76629507320835
 20
41.223658939918
 30
0.0
 10
77.48761612029705
 20
41.223658939918
 30
0.0
  0
SPLINE
  5
93
330
70
100
AcDbEntity
  8
PCB holes
 62
     5
420
      255
370
     9
100
AcDbSpline
210
0.0
220
0.0
230
1.0
 70
     9
 71
     3
 72
    17
 73
    13
 74
     0
 42
0.0000000001
 43
0.0000000001
 40
0.0
 40
0.0
 40
0.0
 40
0.0
 40
1.0
 40
1.0
 40
1.0
 40
2.0
 40
2.0
 40
2.0
 40
3.0
 40
3.0
 40
3.0
 40
4.0
 40
4.0
 40
4.0
 40
4.0
 10
77.48761612029705
 20
39.22350377345369
 30
0.0
 10
77.21246284127285
 20
39.22350377345369
 30
0.0
 10
76.98669591020919
 20
39.44574503063024
 30
0.0
 10
76.98669591020919
 20
39.72442398354154
 30
0.0
 10
76.98669591020919
 20
40.00310293645283
 30
0.0
 10
77.20893716738576
 20
40.2253441936294
 30
0.0
 10
77.48761612029705
 20
40.2253441936294
 30
0.0
 10
77.76629507320835
 20
40.2253441936294
 30
0.0
 10
77.9885363303849
 20
40.00310293645283
 30
0.0
 10
77.9885363303849
 20
39.72442398354154
 30
0.0
 10
77.9885363303849
 20
39.44574503063024
 30
0.0
 10
77.76629507320835
 20
39.22350377345369
 30
0.0
 10
77.48761612029705
 20
39.22350377345369
 30
0.0
  0
SPLINE
  5
94
330
70
100
AcDbEntity
  8
PCB holes
 62
     5
420
      255
370
     9
100
AcDbSpline
210
0.0
220
0.0
230
1.0
 70
     9
 71
     3
 72
    17
 73
    13
 74
     0
 42
0.0000000001
 43
0.0000000001
 40
0.0
 40
0.0
 40
0.0
 40
0.0
 40
1.0
 40
1.0
 40
1.0
 40
2.0
 40
2.0
 40
2.0
 40
3.0
 40
3.0
 40
3.0
 40
4.0
 40
4.0
 40
4.0
 40
4.0
 10
77.48761612029705
 20
37.22334860698938
 30
0.0
 10
77.21246284127285
 20
37.22334860698938
 30
0.0
 10
76.98669591020919
 20
37.44558986416593
 30
0.0
 10
76.98669591020919
 20
37.72426881707723
 30
0.0
 10
76.98669591020919
 20
38.00294776998853
 30
0.0
 10
77.20893716738576
 20
38.22518902716509
 30
0.0
 10
77.48761612029705
 20
38.22518902716509
 30
0.0
 10
77.76629507320835
 20
38.22518902716509
 30
0.0
 10
77.9885363303849
 20
38.00294776998853
 30
0.0
 10
77.9885363303849
 20
37.72426881707723
 30
0.0
 10
77.9885363303849
 20
37.44558986416593
 30
0.0
 10
77.76629507320835
 20
37.22334860698938
 30
0.0
 10
77.48761612029705
 20
37.22334860698938
 30
0.0
  0
SPLINE
  5
95
330
70
100
AcDbEntity
  8
PCB holes
 62
     5
420
      255
370
     9
100
AcDbSpline
210
0.0
220
0.0
230
1.0
 70
     9
 71
     3
 72
    17
 73
    13
 74
     0
 42
0.0000000001
 43
0.0000000001
 40
0.0
 40
0.0
 40
0.0
 40
0.0
 40
1.0
 40
1.0
 40
1.0
 40
2.0
 40
2.0
 40
2.0
 40
3.0
 40
3.0
 40
3.0
 40
4.0
 40
4.0
 40
4.0
 40
4.0
 10
77.48761612029705
 20
35.22319344052507
 30
0.0
 10
77.21246284127285
 20
35.22319344052507
 30
0.0
 10
76.98669591020919
 20
35.44543469770162
 30
0.0
 10
76.98669591020919
 20
35.72411365061292
 30
0.0
 10
76.98669591020919
 20
36.00279260352422
 30
0.0
 10
77.20893716738576
 20
36.22503386070077
 30
0.0
 10
77.48761612029705
 20
36.22503386070077
 30
0.0
 10
77.76629507320835
 20
36.22503386070077
 30
0.0
 10
77.9885363303849
 20
36.00279260352422
 30
0.0
 10
77.9885363303849
 20
35.72411365061292
 30
0.0
 10
77.9885363303849
 20
35.44543469770162
 30
0.0
 10
77.76629507320835
 20
35.22319344052507
 30
0.0
 10
77.48761612029705
 20
35.22319344052507
 30
0.0
  0
SPLINE
  5
96
330
70
100
AcDbEntity
  8
PCB holes
 62
     5
420
      255
370
     9
100
AcDbSpline
210
0.0
220
0.0
230
1.0
 70
     9
 71
     3
 72
    17
 73
    13
 74
     0
 42
0.0000000001
 43
0.0000000001
 40
0.0
 40
0.0
 40
0.0
 40
0.0
 40
1.0
 40
1.0
 40
1.0
 40
2.0
 40
2.0
 40
2.0
 40
3.0
 40
3.0
 40
3.0
 40
4.0
 40
4.0
 40
4.0
 40
4.0
 10
77.48761612029705
 20
33.22303827406076
 30
0.0
 10
77.21246284127285
 20
33.22303827406076
 30
0.0
 10
76.98669591020919
 20
33.44527953123731
 30
0.0
 10
76.98669591020919
 20
33.72395848414861
 30
0.0
 10
76.98669591020919
 20
34.00263743705991
 30
0.0
 10
77.20893716738576
 20
34.22487869423646
 30
0.0
 10
77.48761612029705
 20
34.22487869423646
 30
0.0
 10
77.76629507320835
 20
34.22487869423646
 30
0.0
 10
77.9885363303849
 20
34.00263743705991
 30
0.0
 10
77.9885363303849
 20
33.72395848414861
 30
0.0
 10
77.9885363303849
 20
33.44527953123731
 30
0.0
 10
77.76629507320835
 20
33.22303827406076
 30
0.0
 10
77.48761612029705
 20
33.22303827406076
 30
0.0
  0
SPLINE
  5
97
330
70
100
AcDbEntity
  8
PCB holes
 62
     5
420
      255
370
     9
100
AcDbSpline
210
0.0
220
0.0
230
1.0
 70
     9
 71
     3
 72
    17
 73
    13
 74
     0
 42
0.0000000001
 43
0.0000000001
 40
0.0
 40
0.0
 40
0.0
 40
0.0
 40
1.0
 40
1.0
 40
1.0
 40
2.0
 40
2.0
 40
2.0
 40
3.0
 40
3.0
 40
3.0
 40
4.0
 40
4.0
 40
4.0
 40
4.0
 10
75.48746095383274
 20
41.22366432262622
 30
0.0
 10
75.21230767480854
 20
41.22366432262622
 30
0.0
 10
74.98654074374488
 20
41.44590557980277
 30
0.0
 10
74.98654074374488
 20
41.72458453271407
 30
0.0
 10
74.98654074374488
 20
42.00326348562537
 30
0.0
 10
75.20878200092143
 20
42.22550474280192
 30
0.0
 10
75.48746095383274
 20
42.22550474280192
 30
0.0
 10
75.76613990674402
 20
42.22550474280192
 30
0.0
 10
75.98838116392059
 20
42.00326348562537
 30
0.0
 10
75.98838116392059
 20
41.72458453271407
 30
0.0
 10
75.98838116392059
 20
41.44590557980277
 30
0.0
 10
75.76613990674402
 20
41.22366432262622
 30
0.0
 10
75.48746095383274
 20
41.22366432262622
 30
0.0
  0
SPLINE
  5
98
330
70
100
AcDbEntity
  8
PCB holes
 62
     5
420
      255
370
     9
100
AcDbSpline
210
0.0
220
0.0
230
1.0
 70
     9
 71
     3
 72
    17
 73
    13
 74
     0
 42
0.0000000001
 43
0.0000000001
 40
0.0
 40
0.0
 40
0.0
 40
0.0
 40
1.0
 40
1.0
 40
1.0
 40
2.0
 40
2.0
 40
2.0
 40
3.0
 40
3.0
 40
3.0
 40
4.0
 40
4.0
 40
4.0
 40
4.0
 10
75.48746095383274
 20
39.22350915616192
 30
0.0
 10
75.21230767480854
 20
39.22350915616192
 30
0.0
 10
74.98654074374488
 20
39.44575041333847
 30
0.0
 10
74.98654074374488
 20
39.72442936624977
 30
0.0
 10
74.98654074374488
 20
40.00310831916106
 30
0.0
 10
75.20878200092143
 20
40.22534957633761
 30
0.0
 10
75.48746095383274
 20
40.22534957633761
 30
0.0
 10
75.76613990674402
 20
40.22534957633761
 30
0.0
 10
75.98838116392059
 20
40.00310831916106
 30
0.0
 10
75.98838116392059
 20
39.72442936624977
 30
0.0
 10
75.98838116392059
 20
39.44575041333847
 30
0.0
 10
75.76613990674402
 20
39.22350915616192
 30
0.0
 10
75.48746095383274
 20
39.22350915616192
 30
0.0
  0
SPLINE
  5
99
330
70
100
AcDbEntity
  8
PCB holes
 62
     5
420
      255
370
     9
100
AcDbSpline
210
0.0
220
0.0
230
1.0
 70
     9
 71
     3
 72
    17
 73
    13
 74
     0
 42
0.0000000001
 43
0.0000000001
 40
0.0
 40
0.0
 40
0.0
 40
0.0
 40
1.0
 40
1.0
 40
1.0
 40
2.0
 40
2.0
 40
2.0
 40
3.0
 40
3.0
 40
3.0
 40
4.0
 40
4.0
 40
4.0
 40
4.0
 10
75.48746095383274
 20
37.2233539896976
 30
0.0
 10
75.21230767480854
 20
37.2233539896976
 30
0.0
 10
74.98654074374488
 20
37.44559524687416
 30
0.0
 10
74.98654074374488
 20
37.72427419978546
 30
0.0
 10
74.98654074374488
 20
38.00295315269675
 30
0.0
 10
75.20878200092143
 20
38.22519440987331
 30
0.0
 10
75.48746095383274
 20
38.22519440987331
 30
0.0
 10
75.76613990674402
 20
38.22519440987331
 30
0.0
 10
75.98838116392059
 20
38.00295315269675
 30
0.0
 10
75.98838116392059
 20
37.72427419978546
 30
0.0
 10
75.98838116392059
 20
37.44559524687416
 30
0.0
 10
75.76613990674402
 20
37.2233539896976
 30
0.0
 10
75.48746095383274
 20
37.2233539896976
 30
0.0
  0
SPLINE
  5
9A
330
70
100
AcDbEntity
  8
PCB holes
 62
     5
420
      255
370
     9
100
AcDbSpline
210
0.0
220
0.0
230
1.0
 70
     9
 71
     3
 72
    17
 73
    13
 74
     0
 42
0.0000000001
 43
0.0000000001
 40
0.0
 40
0.0
 40
0.0
 40
0.0
 40
1.0
 40
1.0
 40
1.0
 40
2.0
 40
2.0
 40
2.0
 40
3.0
 40
3.0
 40
3.0
 40
4.0
 40
4.0
 40
4.0
 40
4.0
 10
75.48746095383274
 20
35.22319882323329
 30
0.0
 10
75.21230767480854
 20
35.22319882323329
 30
0.0
 10
74.98654074374488
 20
35.44544008040985
 30
0.0
 10
74.98654074374488
 20
35.72411903332115
 30
0.0
 10
74.98654074374488
 20
36.00279798623244
 30
0.0
 10
75.20878200092143
 20
36.225039243409
 30
0.0
 10
75.48746095383274
 20
36.225039243409
 30
0.0
 10
75.76613990674402
 20
36.225039243409
 30
0.0
 10
75.98838116392059
 20
36.00279798623244
 30
0.0
 10
75.98838116392059
 20
35.72411903332115
 30
0.0
 10
75.98838116392059
 20
35.44544008040985
 30
0.0
 10
75.76613990674402
 20
35.22319882323329
 30
0.0
 10
75.48746095383274
 20
35.22319882323329
 30
0.0
  0
SPLINE
  5
9B
330
70
100
AcDbEntity
  8
PCB holes
 62
     5
420
      255
370
     9
100
AcDbSpline
210
0.0
220
0.0
230
1.0
 70
     9
 71
     3
 72
    17
 73
    13
 74
     0
 42
0.0000000001
 43
0.0000000001
 40
0.0
 40
0.0
 40
0.0
 40
0.0
 40
1.0
 40
1.0
 40
1.0
 40
2.0
 40
2.0
 40
2.0
 40
3.0
 40
3.0
 40
3.0
 40
4.0
 40
4.0
 40
4.0
 40
4.0
 10
75.48746095383274
 20
33.22304365676898
 30
0.0
 10
75.21230767480854
 20
33.22304365676898
 30
0.0
 10
74.98654074374488
 20
33.44528491394554
 30
0.0
 10
74.98654074374488
 20
33.72396386685684
 30
0.0
 10
74.98654074374488
 20
34.00264281976813
 30
0.0
 10
75.20878200092143
 20
34.22488407694468
 30
0.0
 10
75.48746095383274
 20
34.22488407694468
 30
0.0
 10
75.76613990674402
 20
34.22488407694468
 30
0.0
 10
75.98838116392059
 20
34.00264281976813
 30
0.0
 10
75.98838116392059
 20
33.72396386685684
 30
0.0
 10
75.98838116392059
 20
33.44528491394554
 30
0.0
 10
75.76613990674402
 20
33.22304365676898
 30
0.0
 10
75.48746095383274
 20
33.22304365676898
 30
0.0
  0
SPLINE
  5
9C
330
70
100
AcDbEntity
  8
PCB holes
 62
     5
420
      255
370
     9
100
AcDbSpline
210
0.0
220
0.0
230
1.0
 70
    11
 71
     3
 72
    20
 73
    16
 74
     0
 42
0.0000000001
 43
0.0000000001
 40
0.0
 40
0.0
 40
0.0
 40
0.0
 40
1.0
 40
1.0
 40
1.0
 40
2.0
 40
2.0
 40
2.0
 40
3.0
 40
3.0
 40
3.0
 40
4.0
 40
4.0
 40
4.0
 40
5.0
 40
5.0
 40
5.0
 40
5.0
 10
71.46245475556972
 20
82.36267518583785
 30
0.0
 10
71.46245475556972
 20
82.36267518583785
 30
0.0
 10
85.46354630352814
 20
82.36267518583785
 30
0.0
 10
85.46354630352814
 20
82.36267518583785
 30
0.0
 10
85.46354630352814
 20
82.36267518583785
 30
0.0
 10
85.46354630352814
 20
68.36158363787943
 30
0.0
 10
85.46354630352814
 20
68.36158363787943
 30
0.0
 10
85.46354630352814
 20
68.36158363787943
 30
0.0
 10
71.46245475556972
 20
68.36158363787943
 30
0.0
 10
71.46245475556972
 20
68.36158363787943
 30
0.0
 10
71.46245475556972
 20
68.36158363787943
 30
0.0
 10
71.46245475556972
 20
82.36268056854607
 30
0.0
 10
71.46245475556972
 20
82.36268056854607
 30
0.0
 10
71.46245475556972
 20
82.36268056854607
 30
0.0
 10
71.46245475556972
 20
82.36267518583785
 30
0.0
 10
71.46245475556972
 20
82.36267518583785
 30
0.0
  0
SPLINE
  5
9D
330
70
100
AcDbEntity
  8
PCB holes
 62
     5
420
      255
370
     9
100
AcDbSpline
210
0.0
220
0.0
230
1.0
 70
    11
 71
     3
 72
    17
 73
    13
 74
     0
 42
0.0000000001
 43
0.0000000001
 40
0.0
 40
0.0
 40
0.0
 40
0.0
 40
1.0
 40
1.0
 40
1.0
 40
2.0
 40
2.0
 40
2.0
 40
3.0
 40
3.0
 40
3.0
 40
4.0
 40
4.0
 40
4.0
 40
4.0
 10
69.36352689318432
 20
18.26949803659541
 30
0.0
 10
69.36352689318432
 20
18.26949803659541
 30
0.0
 10
55.36596640182125
 20
18.26949803659541
 30
0.0
 10
55.36596640182125
 20
18.26949803659541
 30
0.0
 10
55.36596640182125
 20
18.26949803659541
 30
0.0
 10
55.36596640182125
 20
32.26705852795849
 30
0.0
 10
55.36596640182125
 20
32.26705852795849
 30
0.0
 10
55.36596640182125
 20
32.26705852795849
 30
0.0
 10
69.36352689318432
 20
32.26705852795849
 30
0.0
 10
69.36352689318432
 20
32.26705852795849
 30
0.0
 10
69.36352689318432
 20
32.26705852795849
 30
0.0
 10
69.36352689318432
 20
18.26949803659541
 30
0.0
 10
69.36352689318432
 20
18.26949803659541
 30
0.0
  0
SPLINE
  5
9E
330
70
100
AcDbEntity
  8
PCB holes
 62
     5
420
      255
370
     9
100
AcDbSpline
210
0.0
220
0.0
230
1.0
 70
    11
 71
     3
 72
    17
 73
    13
 74
     0
 42
0.0000000001
 43
0.0000000001
 40
0.0
 40
0.0
 40
0.0
 40
0.0
 40
1.0
 40
1.0
 40
1.0
 40
2.0
 40
2.0
 40
2.0
 40
3.0
 40
3.0
 40
3.0
 40
4.0
 40
4.0
 40
4.0
 40
4.0
 10
52.41335178043355
 20
54.26877612448237
 30
0.0
 10
52.41335178043355
 20
54.26877612448237
 30
0.0
 10
66.41444332839196
 20
54.26877612448237
 30
0.0
 10
66.41444332839196
 20
54.26877612448237
 30
0.0
 10
66.41444332839196
 20
54.26877612448237
 30
0.0
 10
66.41444332839196
 20
40.26768457652396
 30
0.0
 10
66.41444332839196
 20
40.26768457652396
 30
0.0
 10
66.41444332839196
 20
40.26768457652396
 30
0.0
 10
52.41335178043355
 20
40.26768457652396
 30
0.0
 10
52.41335178043355
 20
40.26768457652396
 30
0.0
 10
52.41335178043355
 20
40.26768457652396
 30
0.0
 10
52.41335178043355
 20
54.26877612448237
 30
0.0
 10
52.41335178043355
 20
54.26877612448237
 30
0.0
  0
SPLINE
  5
9F
330
70
100
AcDbEntity
  8
PCB holes
 62
     5
420
      255
370
     9
100
AcDbSpline
210
0.0
220
0.0
230
1.0
 70
    11
 71
     3
 72
    20
 73
    16
 74
     0
 42
0.0000000001
 43
0.0000000001
 40
0.0
 40
0.0
 40
0.0
 40
0.0
 40
1.0
 40
1.0
 40
1.0
 40
2.0
 40
2.0
 40
2.0
 40
3.0
 40
3.0
 40
3.0
 40
4.0
 40
4.0
 40
4.0
 40
5.0
 40
5.0
 40
5.0
 40
5.0
 10
36.30274996572022
 20
13.81765384153947
 30
0.0
 10
36.30274996572022
 20
13.81765384153947
 30
0.0
 10
32.67989128162398
 20
27.33898998814908
 30
0.0
 10
32.67989128162398
 20
27.33898998814908
 30
0.0
 10
32.67989128162398
 20
27.33898998814908
 30
0.0
 10
46.20122742823359
 20
30.96184867224533
 30
0.0
 10
46.20122742823359
 20
30.96184867224533
 30
0.0
 10
46.20122742823359
 20
30.96184867224533
 30
0.0
 10
49.82408611232983
 20
17.44051252563571
 30
0.0
 10
49.82408611232983
 20
17.44051252563571
 30
0.0
 10
49.82408611232983
 20
17.44051252563571
 30
0.0
 10
36.30274996572022
 20
13.81765384153947
 30
0.0
 10
36.30274996572022
 20
13.81765384153947
 30
0.0
 10
36.30274996572022
 20
13.81765384153947
 30
0.0
 10
36.30274996572022
 20
13.81765384153947
 30
0.0
 10
36.30274996572022
 20
13.81765384153947
 30
0.0
  0
SPLINE
  5
A0
330
70
100
AcDbEntity
  8
PCB holes
 62
     5
420
      255
370
     9
100
AcDbSpline
210
0.0
220
0.0
230
1.0
 70
     9
 71
     3
 72
    17
 73
    13
 74
     0
 42
0.0000000001
 43
0.0000000001
 40
0.0
 40
0.0
 40
0.0
 40
0.0
 40
1.0
 40
1.0
 40
1.0
 40
2.0
 40
2.0
 40
2.0
 40
3.0
 40
3.0
 40
3.0
 40
4.0
 40
4.0
 40
4.0
 40
4.0
 10
19.03862032170834
 20
4.624698711438552
 30
0.0
 10
19.03862032170834
 20
4.624698711438552
 30
0.0
 10
12.03983873034958
 20
16.74909827147989
 30
0.0
 10
12.03983873034958
 20
16.74909827147989
 30
0.0
 10
12.03983873034958
 20
16.74909827147989
 30
0.0
 10
24.16423963606814
 20
23.74787851716143
 30
0.0
 10
24.16423963606814
 20
23.74787851716143
 30
0.0
 10
24.16423963606814
 20
23.74787851716143
 30
0.0
 10
31.16302257310379
 20
11.62347895712009
 30
0.0
 10
31.16302257310379
 20
11.62347895712009
 30
0.0
 10
31.16302257310379
 20
11.62347895712009
 30
0.0
 10
19.03862166738555
 20
4.624698711438552
 30
0.0
 10
19.03862032170834
 20
4.624698711438552
 30
0.0
  0
SPLINE
  5
A1
330
70
100
AcDbEntity
  8
PCB holes
 62
     5
420
      255
370
     9
100
AcDbSpline
210
0.0
220
0.0
230
1.0
 70
    11
 71
     3
 72
    20
 73
    16
 74
     0
 42
0.0000000001
 43
0.0000000001
 40
0.0
 40
0.0
 40
0.0
 40
0.0
 40
1.0
 40
1.0
 40
1.0
 40
2.0
 40
2.0
 40
2.0
 40
3.0
 40
3.0
 40
3.0
 40
4.0
 40
4.0
 40
4.0
 40
5.0
 40
5.0
 40
5.0
 40
5.0
 10
8.208852922880412
 20
46.69146778153094
 30
0.0
 10
8.208852922880412
 20
46.69146778153094
 30
0.0
 10
21.80779628383328
 20
46.69146778153094
 30
0.0
 10
21.80779628383328
 20
46.69146778153094
 30
0.0
 10
21.80779628383328
 20
46.69146778153094
 30
0.0
 10
21.80779628383328
 20
33.49114558801897
 30
0.0
 10
21.80779628383328
 20
33.49114558801897
 30
0.0
 10
21.80779628383328
 20
33.49114558801897
 30
0.0
 10
8.208852922880412
 20
33.49114558801897
 30
0.0
 10
8.208852922880412
 20
33.49114558801897
 30
0.0
 10
8.208852922880412
 20
33.49114558801897
 30
0.0
 10
8.208852922880412
 20
46.69146778153094
 30
0.0
 10
8.208852922880412
 20
46.69146778153094
 30
0.0
 10
8.208852922880412
 20
46.69146778153094
 30
0.0
 10
8.208852922880412
 20
46.69146778153094
 30
0.0
 10
8.208852922880412
 20
46.69146778153094
 30
0.0
  0
SPLINE
  5
A2
330
70
100
AcDbEntity
  8
PCB holes
 62
     5
420
      255
370
     9
100
AcDbSpline
210
0.0
220
0.0
230
1.0
 70
     9
 71
     3
 72
    17
 73
    13
 74
     0
 42
0.0000000001
 43
0.0000000001
 40
0.0
 40
0.0
 40
0.0
 40
0.0
 40
1.0
 40
1.0
 40
1.0
 40
2.0
 40
2.0
 40
2.0
 40
3.0
 40
3.0
 40
3.0
 40
4.0
 40
4.0
 40
4.0
 40
4.0
 10
2.656392079325274
 20
17.81796955717632
 30
0.0
 10
2.077863813845861
 20
17.81796955717632
 30
0.0
 10
1.605163797302276
 20
18.28714255415559
 30
0.0
 10
1.605163797302276
 20
18.86919632531257
 30
0.0
 10
1.605163797302276
 20
19.45125009646955
 30
0.0
 10
2.074336121443095
 20
19.92042309344882
 30
0.0
 10
2.656392079325274
 20
19.92042309344882
 30
0.0
 10
3.238448037207452
 20
19.92042309344882
 30
0.0
 10
3.707620361348271
 20
19.45125009646955
 30
0.0
 10
3.707620361348271
 20
18.86919632531257
 30
0.0
 10
3.707620361348271
 20
18.28714255415559
 30
0.0
 10
3.238448037207452
 20
17.81796955717632
 30
0.0
 10
2.656392079325274
 20
17.81796955717632
 30
0.0
  0
SPLINE
  5
A3
330
70
100
AcDbEntity
  8
PCB holes
 62
     5
420
      255
370
     9
100
AcDbSpline
210
0.0
220
0.0
230
1.0
 70
    11
 71
     3
 72
    17
 73
    13
 74
     0
 42
0.0000000001
 43
0.0000000001
 40
0.0
 40
0.0
 40
0.0
 40
0.0
 40
1.0
 40
1.0
 40
1.0
 40
2.0
 40
2.0
 40
2.0
 40
3.0
 40
3.0
 40
3.0
 40
4.0
 40
4.0
 40
4.0
 40
4.0
 10
29.08173115421624
 20
73.90699498396617
 30
0.0
 10
29.08173115421624
 20
73.90699498396617
 30
0.0
 10
29.08173115421624
 20
59.0910260033047
 30
0.0
 10
29.08173115421624
 20
59.0910260033047
 30
0.0
 10
29.08173115421624
 20
59.0910260033047
 30
0.0
 10
2.695195854706756
 20
59.0910260033047
 30
0.0
 10
2.695195854706756
 20
59.0910260033047
 30
0.0
 10
2.695195854706756
 20
59.0910260033047
 30
0.0
 10
2.695195854706756
 20
73.90699498396617
 30
0.0
 10
2.695195854706756
 20
73.90699498396617
 30
0.0
 10
2.695195854706756
 20
73.90699498396617
 30
0.0
 10
29.08173115421624
 20
73.90699498396617
 30
0.0
 10
29.08173115421624
 20
73.90699498396617
 30
0.0
  0
SPLINE
  5
A4
330
70
100
AcDbEntity
  8
PCB holes
 62
     5
420
      255
370
     9
100
AcDbSpline
210
0.0
220
0.0
230
1.0
 70
     9
 71
     3
 72
    17
 73
    13
 74
     0
 42
0.0000000001
 43
0.0000000001
 40
0.0
 40
0.0
 40
0.0
 40
0.0
 40
1.0
 40
1.0
 40
1.0
 40
2.0
 40
2.0
 40
2.0
 40
3.0
 40
3.0
 40
3.0
 40
4.0
 40
4.0
 40
4.0
 40
4.0
 10
2.656392079325274
 20
99.34460323082483
 30
0.0
 10
3.234920344805007
 20
99.34460323082483
 30
0.0
 10
3.707620361348271
 20
98.87543057026462
 30
0.0
 10
3.707620361348271
 20
98.2933747805923
 30
0.0
 10
3.707620361348271
 20
97.71131899091964
 30
0.0
 10
3.238448037207452
 20
97.24214666677882
 30
0.0
 10
2.656392079325274
 20
97.24214666677882
 30
0.0
 10
2.074336121443095
 20
97.24214666677882
 30
0.0
 10
1.605163797302276
 20
97.71131899091964
 30
0.0
 10
1.605163797302276
 20
98.2933747805923
 30
0.0
 10
1.605163797302276
 20
98.87543057026462
 30
0.0
 10
2.074336121443095
 20
99.34460289440544
 30
0.0
 10
2.656392079325274
 20
99.34460323082483
 30
0.0
  0
SPLINE
  5
A5
330
70
100
AcDbEntity
  8
PCB holes
 62
     5
420
      255
370
     9
100
AcDbSpline
210
0.0
220
0.0
230
1.0
 70
     9
 71
     3
 72
    17
 73
    13
 74
     0
 42
0.0000000001
 43
0.0000000001
 40
0.0
 40
0.0
 40
0.0
 40
0.0
 40
1.0
 40
1.0
 40
1.0
 40
2.0
 40
2.0
 40
2.0
 40
3.0
 40
3.0
 40
3.0
 40
4.0
 40
4.0
 40
4.0
 40
4.0
 10
33.42069726644857
 20
51.21739957259003
 30
0.0
 10
33.42069726644857
 20
51.21739957259003
 30
0.0
 10
47.41825775781165
 20
51.21739957259003
 30
0.0
 10
47.41825775781165
 20
51.21739957259003
 30
0.0
 10
47.41825775781165
 20
51.21739957259003
 30
0.0
 10
47.41825775781165
 20
37.21630802463162
 30
0.0
 10
47.41825775781165
 20
37.21630802463162
 30
0.0
 10
47.41825775781165
 20
37.21630802463162
 30
0.0
 10
33.42069457509446
 20
37.21630802463162
 30
0.0
 10
33.42069457509446
 20
37.21630802463162
 30
0.0
 10
33.42069457509446
 20
37.21630802463162
 30
0.0
 10
33.42069457509446
 20
51.21739957259003
 30
0.0
 10
33.42069726644857
 20
51.21739957259003
 30
0.0
  0
SPLINE
  5
A6
330
70
100
AcDbEntity
  8
PCB holes
 62
     5
420
      255
370
     9
100
AcDbSpline
210
0.0
220
0.0
230
1.0
 70
     9
 71
     3
 72
    17
 73
    13
 74
     0
 42
0.0000000001
 43
0.0000000001
 40
0.0
 40
0.0
 40
0.0
 40
0.0
 40
1.0
 40
1.0
 40
1.0
 40
2.0
 40
2.0
 40
2.0
 40
3.0
 40
3.0
 40
3.0
 40
4.0
 40
4.0
 40
4.0
 40
4.0
 10
33.42069726644857
 20
70.31588889568675
 30
0.0
 10
33.42069726644857
 20
70.31588889568675
 30
0.0
 10
47.41825775781165
 20
70.31588889568675
 30
0.0
 10
47.41825775781165
 20
70.31588889568675
 30
0.0
 10
47.41825775781165
 20
70.31588889568675
 30
0.0
 10
47.41825775781165
 20
56.31479734772835
 30
0.0
 10
47.41825775781165
 20
56.31479734772835
 30
0.0
 10
47.41825775781165
 20
56.31479734772835
 30
0.0
 10
33.42069457509446
 20
56.31479734772835
 30
0.0
 10
33.42069457509446
 20
56.31479734772835
 30
0.0
 10
33.42069457509446
 20
56.31479734772835
 30
0.0
 10
33.42069457509446
 20
70.31588889568675
 30
0.0
 10
33.42069726644857
 20
70.31588889568675
 30
0.0
  0
SPLINE
  5
A7
330
70
100
AcDbEntity
  8
PCB holes
 62
     5
420
      255
370
     9
100
AcDbSpline
210
0.0
220
0.0
230
1.0
 70
     9
 71
     3
 72
    17
 73
    13
 74
     0
 42
0.0000000001
 43
0.0000000001
 40
0.0
 40
0.0
 40
0.0
 40
0.0
 40
1.0
 40
1.0
 40
1.0
 40
2.0
 40
2.0
 40
2.0
 40
3.0
 40
3.0
 40
3.0
 40
4.0
 40
4.0
 40
4.0
 40
4.0
 10
33.44891880567006
 20
89.41437687310658
 30
0.0
 10
33.44891880567006
 20
89.41437687310658
 30
0.0
 10
47.44648467974136
 20
89.41437687310658
 30
0.0
 10
47.44648467974136
 20
89.41437687310658
 30
0.0
 10
47.44648467974136
 20
89.41437687310658
 30
0.0
 10
47.44648467974136
 20
75.41328667082506
 30
0.0
 10
47.44648467974136
 20
75.41328667082506
 30
0.0
 10
47.44648467974136
 20
75.41328667082506
 30
0.0
 10
33.44892149702417
 20
75.41328667082506
 30
0.0
 10
33.44892149702417
 20
75.41328667082506
 30
0.0
 10
33.44892149702417
 20
75.41328667082506
 30
0.0
 10
33.44892149702417
 20
89.41437687310658
 30
0.0
 10
33.44891880567006
 20
89.41437687310658
 30
0.0
  0
SPLINE
  5
A8
330
70
100
AcDbEntity
  8
PCB holes
 62
     5
420
      255
370
     9
100
AcDbSpline
210
0.0
220
0.0
230
1.0
 70
     9
 71
     3
 72
    17
 73
    13
 74
     0
 42
0.0000000001
 43
0.0000000001
 40
0.0
 40
0.0
 40
0.0
 40
0.0
 40
1.0
 40
1.0
 40
1.0
 40
2.0
 40
2.0
 40
2.0
 40
3.0
 40
3.0
 40
3.0
 40
4.0
 40
4.0
 40
4.0
 40
4.0
 10
52.44157870236326
 20
73.29319130834649
 30
0.0
 10
52.44157870236326
 20
73.29319130834649
 30
0.0
 10
66.44267025032167
 20
73.29319130834649
 30
0.0
 10
66.44267025032167
 20
73.29319130834649
 30
0.0
 10
66.44267025032167
 20
73.29319130834649
 30
0.0
 10
66.44267025032167
 20
59.2921024517422
 30
0.0
 10
66.44267025032167
 20
59.2921024517422
 30
0.0
 10
66.44267025032167
 20
59.2921024517422
 30
0.0
 10
52.44157870236326
 20
59.2921024517422
 30
0.0
 10
52.44157870236326
 20
59.2921024517422
 30
0.0
 10
52.44157870236326
 20
59.2921024517422
 30
0.0
 10
52.44157870236326
 20
73.2931939997006
 30
0.0
 10
52.44157870236326
 20
73.29319130834649
 30
0.0
  0
SPLINE
  5
A9
330
70
100
AcDbEntity
  8
PCB holes
 62
     5
420
      255
370
     9
100
AcDbSpline
210
0.0
220
0.0
230
1.0
 70
    11
 71
     3
 72
    20
 73
    16
 74
     0
 42
0.0000000001
 43
0.0000000001
 40
0.0
 40
0.0
 40
0.0
 40
0.0
 40
1.0
 40
1.0
 40
1.0
 40
2.0
 40
2.0
 40
2.0
 40
3.0
 40
3.0
 40
3.0
 40
4.0
 40
4.0
 40
4.0
 40
5.0
 40
5.0
 40
5.0
 40
5.0
 10
52.44157870236326
 20
92.37756986183248
 30
0.0
 10
52.44157870236326
 20
92.37756986183248
 30
0.0
 10
66.44267025032167
 20
92.37756986183248
 30
0.0
 10
66.44267025032167
 20
92.37756986183248
 30
0.0
 10
66.44267025032167
 20
92.37756986183248
 30
0.0
 10
66.44267025032167
 20
78.38000667911528
 30
0.0
 10
66.44267025032167
 20
78.38000667911528
 30
0.0
 10
66.44267025032167
 20
78.38000667911528
 30
0.0
 10
52.44157870236326
 20
78.38000667911528
 30
0.0
 10
52.44157870236326
 20
78.38000667911528
 30
0.0
 10
52.44157870236326
 20
78.38000667911528
 30
0.0
 10
52.44157870236326
 20
92.37756986183248
 30
0.0
 10
52.44157870236326
 20
92.37756986183248
 30
0.0
 10
52.44157870236326
 20
92.37756986183248
 30
0.0
 10
52.44157870236326
 20
92.37756986183248
 30
0.0
 10
52.44157870236326
 20
92.37756986183248
 30
0.0
  0
SPLINE
  5
AA
330
70
100
AcDbEntity
  8
PCB holes
 62
     5
420
      255
370
     9
100
AcDbSpline
210
0.0
220
0.0
230
1.0
 70
     9
 71
     3
 72
    17
 73
    13
 74
     0
 42
0.0000000001
 43
0.0000000001
 40
0.0
 40
0.0
 40
0.0
 40
0.0
 40
1.0
 40
1.0
 40
1.0
 40
2.0
 40
2.0
 40
2.0
 40
3.0
 40
3.0
 40
3.0
 40
4.0
 40
4.0
 40
4.0
 40
4.0
 10
64.72119403676865
 20
99.30579962365285
 30
0.0
 10
65.29972213403853
 20
99.30579962365285
 30
0.0
 10
65.77242080490491
 20
98.83662729951204
 30
0.0
 10
65.77242080490491
 20
98.25457150983972
 30
0.0
 10
65.77242080490491
 20
97.67251572016707
 30
0.0
 10
65.30324780792565
 20
97.20334339602626
 30
0.0
 10
64.72119403676865
 20
97.20334339602626
 30
0.0
 10
64.13914026561167
 20
97.20334339602626
 30
0.0
 10
63.66996726863241
 20
97.67251572016707
 30
0.0
 10
63.66996726863241
 20
98.25457150983972
 30
0.0
 10
63.66996726863241
 20
98.83662729951204
 30
0.0
 10
64.13914026561167
 20
99.30579962365285
 30
0.0
 10
64.72119403676865
 20
99.30579962365285
 30
0.0
  0
SPLINE
  5
AB
330
70
100
AcDbEntity
  8
PCB holes
 62
     5
420
      255
370
     9
100
AcDbSpline
210
0.0
220
0.0
230
1.0
 70
    11
 71
     3
 72
    17
 73
    13
 74
     0
 42
0.0000000001
 43
0.0000000001
 40
0.0
 40
0.0
 40
0.0
 40
0.0
 40
1.0
 40
1.0
 40
1.0
 40
2.0
 40
2.0
 40
2.0
 40
3.0
 40
3.0
 40
3.0
 40
4.0
 40
4.0
 40
4.0
 40
4.0
 10
71.46246013827795
 20
101.376507628913
 30
0.0
 10
71.46246013827795
 20
101.376507628913
 30
0.0
 10
85.46355168623636
 20
101.376507628913
 30
0.0
 10
85.46355168623636
 20
101.376507628913
 30
0.0
 10
85.46355168623636
 20
101.376507628913
 30
0.0
 10
85.46355168623636
 20
87.37541641737402
 30
0.0
 10
85.46355168623636
 20
87.37541641737402
 30
0.0
 10
85.46355168623636
 20
87.37541641737402
 30
0.0
 10
71.46246013827795
 20
87.37541641737402
 30
0.0
 10
71.46246013827795
 20
87.37541641737402
 30
0.0
 10
71.46246013827795
 20
87.37541641737402
 30
0.0
 10
71.46246013827795
 20
101.376507628913
 30
0.0
 10
71.46246013827795
 20
101.376507628913
 30
0.0
  0
SPLINE
  5
AC
330
70
100
AcDbEntity
  8
PCB holes
 62
     5
420
      255
370
     9
100
AcDbSpline
210
0.0
220
0.0
230
1.0
 70
    11
 71
     3
 72
   113
 73
   109
 74
     0
 42
0.0000000001
 43
0.0000000001
 40
0.0
 40
0.0
 40
0.0
 40
0.0
 40
1.0
 40
1.0
 40
1.0
 40
2.0
 40
2.0
 40
2.0
 40
3.0
 40
3.0
 40
3.0
 40
4.0
 40
4.0
 40
4.0
 40
5.0
 40
5.0
 40
5.0
 40
6.0
 40
6.0
 40
6.0
 40
7.0
 40
7.0
 40
7.0
 40
8.0
 40
8.0
 40
8.0
 40
9.0
 40
9.0
 40
9.0
 40
10.0
 40
10.0
 40
10.0
 40
11.0
 40
11.0
 40
11.0
 40
12.0
 40
12.0
 40
12.0
 40
13.0
 40
13.0
 40
13.0
 40
14.0
 40
14.0
 40
14.0
 40
15.0
 40
15.0
 40
15.0
 40
16.0
 40
16.0
 40
16.0
 40
17.0
 40
17.0
 40
17.0
 40
18.0
 40
18.0
 40
18.0
 40
19.0
 40
19.0
 40
19.0
 40
20.0
 40
20.0
 40
20.0
 40
21.0
 40
21.0
 40
21.0
 40
22.0
 40
22.0
 40
22.0
 40
23.0
 40
23.0
 40
23.0
 40
24.0
 40
24.0
 40
24.0
 40
25.0
 40
25.0
 40
25.0
 40
26.0
 40
26.0
 40
26.0
 40
27.0
 40
27.0
 40
27.0
 40
28.0
 40
28.0
 40
28.0
 40
29.0
 40
29.0
 40
29.0
 40
30.0
 40
30.0
 40
30.0
 40
31.0
 40
31.0
 40
31.0
 40
32.0
 40
32.0
 40
32.0
 40
33.0
 40
33.0
 40
33.0
 40
34.0
 40
34.0
 40
34.0
 40
35.0
 40
35.0
 40
35.0
 40
36.0
 40
36.0
 40
36.0
 40
36.0
 10
133.4884512555353
 20
78.1083817653323
 30
0.0
 10
133.4884512555353
 20
78.1083817653323
 30
0.0
 10
131.9821649513847
 20
78.37295263998696
 30
0.0
 10
131.9821649513847
 20
78.37295263998696
 30
0.0
 10
131.9821649513847
 20
78.37295263998696
 30
0.0
 10
131.9821649513847
 20
100.1947575875546
 30
0.0
 10
131.9821649513847
 20
100.1947575875546
 30
0.0
 10
131.9821649513847
 20
100.582795004949
 30
0.0
 10
131.6682023460612
 20
100.8932248715808
 30
0.0
 10
131.2836939667464
 20
100.8932248715808
 30
0.0
 10
131.2836939667464
 20
100.8932248715808
 30
0.0
 10
88.98057556122086
 20
100.8932248715808
 30
0.0
 10
88.98057556122086
 20
100.8932248715808
 30
0.0
 10
88.98057556122086
 20
100.8932248715808
 30
0.0
 10
88.98057556122086
 20
104.1421552257971
 30
0.0
 10
88.98057556122086
 20
104.1421552257971
 30
0.0
 10
88.98057556122086
 20
104.5301925170345
 30
0.0
 10
88.66661833860565
 20
104.8406223416139
 30
0.0
 10
88.28210995929083
 20
104.8406223416139
 30
0.0
 10
88.28210995929083
 20
104.8406223416139
 30
0.0
 10
68.65800456077188
 20
104.8406223416139
 30
0.0
 10
68.65800456077188
 20
104.8406223416139
 30
0.0
 10
68.26996512486174
 20
104.8406223416139
 30
0.0
 10
67.95953895884186
 20
104.5266649087366
 30
0.0
 10
67.95953895884186
 20
104.1421552257971
 30
0.0
 10
67.95953895884186
 20
104.1421552257971
 30
0.0
 10
67.95953895884186
 20
100.8932248715808
 30
0.0
 10
67.95953895884186
 20
100.8932248715808
 30
0.0
 10
67.95953895884186
 20
100.8932248715808
 30
0.0
 10
0.7514817481697501
 20
100.8932248715808
 30
0.0
 10
0.7514817481697501
 20
100.8932248715808
 30
0.0
 10
0.3634444569323452
 20
100.8932248715808
 30
0.0
 10
0.0530146323529781
 20
100.5792673125466
 30
0.0
 10
0.0530146323529781
 20
100.1947579239739
 30
0.0
 10
0.0530146323529781
 20
100.1947579239739
 30
0.0
 10
0.0530146323529781
 20
4.762280733658876
 30
0.0
 10
0.0530146323529781
 20
4.762280733658876
 30
0.0
 10
0.0530146323529781
 20
4.374241297748738
 30
0.0
 10
0.3669720652301847
 20
4.063809749020627
 30
0.0
 10
0.7514817481697501
 20
4.063809749020627
 30
0.0
 10
0.7514817481697501
 20
4.063809749020627
 30
0.0
 10
15.32404567217344
 20
4.063809749020627
 30
0.0
 10
15.32404567217344
 20
4.063809749020627
 30
0.0
 10
15.32404567217344
 20
4.063809749020627
 30
0.0
 10
17.43708430416958
 20
0.3986160647380493
 30
0.0
 10
17.43708430416958
 20
0.3986160647380493
 30
0.0
 10
17.63110267644776
 20
0.0634886506755554
 30
0.0
 10
18.06147172983601
 20
-0.0529177973892614
 30
0.0
 10
18.39659510686717
 20
0.1446275944529089
 30
0.0
 10
18.39659510686717
 20
0.1446275944529089
 30
0.0
 10
24.61224782430835
 20
3.756898491471394
 30
0.0
 10
24.61224782430835
 20
3.756898491471394
 30
0.0
 10
24.61224782430835
 20
3.756898491471394
 30
0.0
 10
26.11148278068481
 20
4.691713428834602
 30
0.0
 10
26.86286309581659
 20
5.125613538818181
 30
0.0
 10
32.40121232871268
 20
8.325159900008594
 30
0.0
 10
38.34876580625797
 20
10.81565287219123
 30
0.0
 10
44.00000119604
 20
12.32900128953254
 30
0.0
 10
50.1592081436841
 20
13.97992096367773
 30
0.0
 10
56.50538346150906
 20
14.84065907045424
 30
0.0
 10
62.38591145624185
 20
14.86182387919329
 30
0.0
 10
62.38591145624185
 20
14.86182387919329
 30
0.0
 10
72.19619862720367
 20
14.86182387919329
 30
0.0
 10
72.19619862720367
 20
14.86182387919329
 30
0.0
 10
72.5842380631138
 20
14.86182387919329
 30
0.0
 10
72.8946642291337
 20
15.1757811018085
 30
0.0
 10
72.8946642291337
 20
15.56028948112332
 30
0.0
 10
72.8946642291337
 20
15.56028948112332
 30
0.0
 10
72.8946642291337
 20
28.61597830464077
 30
0.0
 10
72.8946642291337
 20
28.61597830464077
 30
0.0
 10
72.8946642291337
 20
28.61597830464077
 30
0.0
 10
88.87474613481735
 20
28.61597830464077
 30
0.0
 10
88.87474613481735
 20
28.61597830464077
 30
0.0
 10
88.87474613481735
 20
28.61597830464077
 30
0.0
 10
103.965868394503
 20
27.55769480602209
 30
0.0
 10
103.965868394503
 20
27.55769480602209
 30
0.0
 10
103.965868394503
 20
27.55769480602209
 30
0.0
 10
103.362649814607
 20
24.12885583988092
 30
0.0
 10
103.362649814607
 20
24.12885583988092
 30
0.0
 10
103.2956243317945
 20
23.74787313445321
 30
0.0
 10
103.5496128020796
 20
23.38452956387746
 30
0.0
 10
103.9305901247991
 20
23.31750408106495
 30
0.0
 10
103.9305901247991
 20
23.31750408106495
 30
0.0
 10
123.1984033005165
 20
19.92041232803237
 30
0.0
 10
123.1984033005165
 20
19.92041232803237
 30
0.0
 10
123.579380623236
 20
19.85338684521987
 30
0.0
 10
123.9427241938117
 20
20.10737531550502
 30
0.0
 10
124.0097496766242
 20
20.48835802093272
 30
0.0
 10
124.0097496766242
 20
20.48835802093272
 30
0.0
 10
124.8881215355445
 20
25.47640069578042
 30
0.0
 10
124.8881215355445
 20
25.47640069578042
 30
0.0
 10
124.8881215355445
 20
25.47640069578042
 30
0.0
 10
131.2836832013299
 20
25.47640069578042
 30
0.0
 10
131.2836832013299
 20
25.47640069578042
 30
0.0
 10
131.6717226372401
 20
25.47640069578042
 30
0.0
 10
131.9821541859682
 20
25.79035791839564
 30
0.0
 10
131.9821541859682
 20
26.17486629771045
 30
0.0
 10
131.9821541859682
 20
26.17486629771045
 30
0.0
 10
131.9821541859682
 20
65.52891728656833
 30
0.0
 10
131.9821541859682
 20
65.52891728656833
 30
0.0
 10
131.9821541859682
 20
65.52891728656833
 30
0.0
 10
134.0563915657274
 20
77.29703000651634
 30
0.0
 10
134.0563915657274
 20
77.29703000651634
 30
0.0
 10
134.12341704854
 20
77.67801271194405
 30
0.0
 10
133.8694285782548
 20
78.0413562825198
 30
0.0
 10
133.4884512555353
 20
78.1083817653323
 30
0.0
 10
133.4884512555353
 20
78.1083817653323
 30
0.0
 10
133.4884512555353
 20
78.1083817653323
 30
0.0
 10
133.4884512555353
 20
78.1083817653323
 30
0.0
  0
ENDSEC
  0
SECTION
  2
OBJECTS
  0
DICTIONARY
  5
C
330
0
100
AcDbDictionary
281
     1
  3
ACAD_COLOR
350
63
  3
ACAD_DETAILVIEWSTYLE
350
6A
  3
ACAD_GROUP
350
D
  3
ACAD_LAYOUT
350
62
  3
ACAD_MATERIAL
350
10
  3
ACAD_MLEADERSTYLE
350
66
  3
ACAD_MLINESTYLE
350
5F
  3
ACAD_PLOTSETTINGS
350
61
  3
ACAD_PLOTSTYLENAME
350
E
  3
ACAD_SCALELIST
350
42
  3
ACAD_SECTIONVIEWSTYLE
350
68
  3
ACAD_TABLESTYLE
350
64
  3
ACAD_VISUALSTYLE
350
29
  3
ACDB_RECOMPOSE_DATA
350
B5
  3
AcDbVariableDictionary
350
AD
  0
DICTIONARY
  5
63
102
{ACAD_REACTORS
330
C
102
}
330
C
100
AcDbDictionary
281
     1
  0
DICTIONARY
  5
6A
102
{ACAD_REACTORS
330
C
102
}
330
C
100
AcDbDictionary
281
     1
  3
Imperial24
350
6B
  0
DICTIONARY
  5
D
102
{ACAD_REACTORS
330
C
102
}
330
C
100
AcDbDictionary
281
     1
  0
DICTIONARY
  5
62
102
{ACAD_REACTORS
330
C
102
}
330
C
100
AcDbDictionary
281
     1
  3
Layout1
350
6F
  3
Layout2
350
77
  3
Model
350
73
  0
DICTIONARY
  5
10
102
{ACAD_REACTORS
330
C
102
}
330
C
100
AcDbDictionary
281
     1
  3
ByBlock
350
19
  3
ByLayer
350
11
  3
Global
350
21
  0
DICTIONARY
  5
66
102
{ACAD_REACTORS
330
C
102
}
330
C
100
AcDbDictionary
281
     1
  3
Standard
350
67
  0
DICTIONARY
  5
5F
102
{ACAD_REACTORS
330
C
102
}
330
C
100
AcDbDictionary
281
     1
  3
Standard
350
60
  0
DICTIONARY
  5
61
102
{ACAD_REACTORS
330
C
102
}
330
C
100
AcDbDictionary
281
     1
  0
ACDBDICTIONARYWDFLT
  5
E
102
{ACAD_REACTORS
330
C
102
}
330
C
100
AcDbDictionary
281
     1
  3
Normal
350
F
100
AcDbDictionaryWithDefault
340
F
  0
DICTIONARY
  5
42
102
{ACAD_REACTORS
330
C
102
}
330
C
100
AcDbDictionary
281
     1
  3
A0
350
43
  3
A1
350
44
  3
A2
350
45
  3
A3
350
46
  3
A4
350
47
  3
A5
350
48
  3
A6
350
49
  3
A7
350
4A
  3
A8
350
4B
  3
A9
350
4C
  3
B0
350
4D
  3
B1
350
4E
  3
B2
350
4F
  3
B3
350
50
  3
B4
350
51
  3
B5
350
52
  3
B6
350
53
  0
DICTIONARY
  5
68
102
{ACAD_REACTORS
330
C
102
}
330
C
100
AcDbDictionary
281
     1
  3
Imperial24
350
69
  0
DICTIONARY
  5
64
102
{ACAD_REACTORS
330
C
102
}
330
C
100
AcDbDictionary
281
     1
  3
Standard
350
65
  0
DICTIONARY
  5
29
102
{ACAD_REACTORS
330
C
102
}
330
C
100
AcDbDictionary
281
     1
  3
2dWireframe
350
2F
  3
Basic
350
2E
  3
Brighten
350
35
  3
ColorChange
350
39
  3
Conceptual
350
32
  3
Dim
350
34
  3
EdgeColorOff
350
41
  3
Facepattern
350
38
  3
Flat
350
2A
  3
FlatWithEdges
350
2B
  3
Gouraud
350
2C
  3
GouraudWithEdges
350
2D
  3
Hidden
350
31
  3
JitterOff
350
3F
  3
Linepattern
350
37
  3
OverhangOff
350
40
  3
Realistic
350
33
  3
Shaded
350
3E
  3
Shaded with edges
350
3D
  3
Shades of Gray
350
3A
  3
Sketchy
350
3B
  3
Thicken
350
36
  3
Wireframe
350
30
  3
X-Ray
350
3C
  0
XRECORD
  5
B5
102
{ACAD_REACTORS
330
C
102
}
330
C
100
AcDbXrecord
280
     1
 90
        1
330
65
  0
DICTIONARY
  5
AD
102
{ACAD_REACTORS
330
C
102
}
330
C
100
AcDbDictionary
281
     1
  3
CANNOSCALE
350
B2
  3
CMLEADERSTYLE
350
AF
  3
CTABLESTYLE
350
AE
  3
CVIEWDETAILSTYLE
350
B0
  3
CVIEWSECTIONSTYLE
350
B1
  0
ACDBDETAILVIEWSTYLE
  5
6B
102
{ACAD_REACTORS
330
6A
102
}
330
6A
100
AcDbModelDocViewStyle
 70
     0
  3
Imperial24
290
     1
300
Imperial24
 90
        0
100
AcDbDetailViewStyle
 70
     0
 71
     0
 90
        3
 71
     1
340
55
 62
   256
 40
0.24
340
0
 62
   256
 40
0.24
300

 40
0.36
280
     3
 71
     2
340
5D
 90
       25
 62
   256
 71
     3
340
55
 62
   256
 40
0.24
 90
        1
 40
0.75
 90
        1
300
%<\AcVar ViewType \f "%tc1">% %<\AcVar ViewDetailId>%\PSCALE %<\AcVar ViewScale \f "%sn">%
 71
     4
340
5D
 90
       25
 62
   256
340
5D
 90
       25
 62
   256
280
     0
  0
LAYOUT
  5
6F
102
{ACAD_REACTORS
330
62
102
}
330
62
100
AcDbPlotSettings
  1

  2

  4

  6

 40
0.0
 41
0.0
 42
0.0
 43
0.0
 44
0.0
 45
0.0
 46
0.0
 47
0.0
 48
0.0
 49
0.0
140
0.0
141
0.0
142
1.0
143
1.0
 70
   688
 72
     0
 73
     0
 74
     5
  7

 75
    16
147
1.0
 76
     0
 77
     2
 78
   300
148
0.0
149
0.0
100
AcDbLayout
  1
Layout1
 70
     1
 71
     1
 10
0.0
 20
0.0
 11
12.0
 21
9.0
 12
0.0
 22
0.0
 32
0.0
 14
0.0
 24
0.0
 34
0.0
 15
0.0
 25
0.0
 35
0.0
146
0.0
 13
0.0
 23
0.0
 33
0.0
 16
1.0
 26
0.0
 36
0.0
 17
0.0
 27
1.0
 37
0.0
 76
     0
330
6C
  0
LAYOUT
  5
77
102
{ACAD_REACTORS
330
62
102
}
330
62
100
AcDbPlotSettings
  1

  2

  4

  6

 40
0.0
 41
0.0
 42
0.0
 43
0.0
 44
0.0
 45
0.0
 46
0.0
 47
0.0
 48
0.0
 49
0.0
140
0.0
141
0.0
142
1.0
143
1.0
 70
   688
 72
     0
 73
     0
 74
     5
  7

 75
    16
147
1.0
 76
     0
 77
     2
 78
   300
148
0.0
149
0.0
100
AcDbLayout
  1
Layout2
 70
     1
 71
     2
 10
0.0
 20
0.0
 11
12.0
 21
9.0
 12
0.0
 22
0.0
 32
0.0
 14
0.0
 24
0.0
 34
0.0
 15
0.0
 25
0.0
 35
0.0
146
0.0
 13
0.0
 23
0.0
 33
0.0
 16
1.0
 26
0.0
 36
0.0
 17
0.0
 27
1.0
 37
0.0
 76
     0
330
74
  0
LAYOUT
  5
73
102
{ACAD_REACTORS
330
62
102
}
330
62
100
AcDbPlotSettings
  1

  2

  4

  6

 40
0.0
 41
0.0
 42
0.0
 43
0.0
 44
0.0
 45
0.0
 46
0.0
 47
0.0
 48
0.0
 49
0.0
140
0.0
141
0.0
142
1.0
143
1.0
 70
  1712
 72
     0
 73
     0
 74
     0
  7

 75
     0
147
1.0
 76
     0
 77
     2
 78
   300
148
0.0
149
0.0
100
AcDbLayout
  1
Model
 70
     1
 71
     0
 10
0.0
 20
0.0
 11
12.0
 21
9.0
 12
0.0
 22
0.0
 32
0.0
 14
0.0
 24
0.0
 34
0.0
 15
0.0
 25
0.0
 35
0.0
146
0.0
 13
0.0
 23
0.0
 33
0.0
 16
1.0
 26
0.0
 36
0.0
 17
0.0
 27
1.0
 37
0.0
 76
     0
330
70
  0
MATERIAL
  5
19
102
{ACAD_XDICTIONARY
360
1A
102
}
102
{ACAD_REACTORS
330
10
102
}
330
10
100
AcDbMaterial
  1
ByBlock
 72
     0
 43
0.0208333333333333
 43
0.0
 43
0.0
 43
0.0
 43
0.0
 43
0.0208333333333333
 43
0.0
 43
0.0
 43
0.0
 43
0.0
 43
1.0
 43
0.0
 43
0.0
 43
0.0
 43
0.0
 43
1.0
 77
     0
 47
0.0208333333333333
 47
0.0
 47
0.0
 47
0.0
 47
0.0
 47
0.0208333333333333
 47
0.0
 47
0.0
 47
0.0
 47
0.0
 47
1.0
 47
0.0
 47
0.0
 47
0.0
 47
0.0
 47
1.0
171
     0
 49
0.0208333333333333
 49
0.0
 49
0.0
 49
0.0
 49
0.0
 49
0.0208333333333333
 49
0.0
 49
0.0
 49
0.0
 49
0.0
 49
1.0
 49
0.0
 49
0.0
 49
0.0
 49
0.0
 49
1.0
175
     0
142
0.0208333333333333
142
0.0
142
0.0
142
0.0
142
0.0
142
0.0208333333333333
142
0.0
142
0.0
142
0.0
142
0.0
142
1.0
142
0.0
142
0.0
142
0.0
142
0.0
142
1.0
179
     0
144
0.0208333333333333
144
0.0
144
0.0
144
0.0
144
0.0
144
0.0208333333333333
144
0.0
144
0.0
144
0.0
144
0.0
144
1.0
144
0.0
144
0.0
144
0.0
144
0.0
144
1.0
147
0.0208333333333333
147
0.0
147
0.0
147
0.0
147
0.0
147
0.0208333333333333
147
0.0
147
0.0
147
0.0
147
0.0
147
1.0
147
0.0
147
0.0
147
0.0
147
0.0
147
1.0
  0
MATERIAL
  5
11
102
{ACAD_XDICTIONARY
360
12
102
}
102
{ACAD_REACTORS
330
10
102
}
330
10
100
AcDbMaterial
  1
ByLayer
 72
     0
 43
0.0208333333333333
 43
0.0
 43
0.0
 43
0.0
 43
0.0
 43
0.0208333333333333
 43
0.0
 43
0.0
 43
0.0
 43
0.0
 43
1.0
 43
0.0
 43
0.0
 43
0.0
 43
0.0
 43
1.0
 77
     0
 47
0.0208333333333333
 47
0.0
 47
0.0
 47
0.0
 47
0.0
 47
0.0208333333333333
 47
0.0
 47
0.0
 47
0.0
 47
0.0
 47
1.0
 47
0.0
 47
0.0
 47
0.0
 47
0.0
 47
1.0
171
     0
 49
0.0208333333333333
 49
0.0
 49
0.0
 49
0.0
 49
0.0
 49
0.0208333333333333
 49
0.0
 49
0.0
 49
0.0
 49
0.0
 49
1.0
 49
0.0
 49
0.0
 49
0.0
 49
0.0
 49
1.0
175
     0
142
0.0208333333333333
142
0.0
142
0.0
142
0.0
142
0.0
142
0.0208333333333333
142
0.0
142
0.0
142
0.0
142
0.0
142
1.0
142
0.0
142
0.0
142
0.0
142
0.0
142
1.0
179
     0
144
0.0208333333333333
144
0.0
144
0.0
144
0.0
144
0.0
144
0.0208333333333333
144
0.0
144
0.0
144
0.0
144
0.0
144
1.0
144
0.0
144
0.0
144
0.0
144
0.0
144
1.0
147
0.0208333333333333
147
0.0
147
0.0
147
0.0
147
0.0
147
0.0208333333333333
147
0.0
147
0.0
147
0.0
147
0.0
147
1.0
147
0.0
147
0.0
147
0.0
147
0.0
147
1.0
  0
MATERIAL
  5
21
102
{ACAD_XDICTIONARY
360
22
102
}
102
{ACAD_REACTORS
330
10
102
}
330
10
100
AcDbMaterial
  1
Global
 72
     0
 43
0.0208333333333333
 43
0.0
 43
0.0
 43
0.0
 43
0.0
 43
0.0208333333333333
 43
0.0
 43
0.0
 43
0.0
 43
0.0
 43
1.0
 43
0.0
 43
0.0
 43
0.0
 43
0.0
 43
1.0
 77
     0
 47
0.0208333333333333
 47
0.0
 47
0.0
 47
0.0
 47
0.0
 47
0.0208333333333333
 47
0.0
 47
0.0
 47
0.0
 47
0.0
 47
1.0
 47
0.0
 47
0.0
 47
0.0
 47
0.0
 47
1.0
171
     0
 49
0.0208333333333333
 49
0.0
 49
0.0
 49
0.0
 49
0.0
 49
0.0208333333333333
 49
0.0
 49
0.0
 49
0.0
 49
0.0
 49
1.0
 49
0.0
 49
0.0
 49
0.0
 49
0.0
 49
1.0
175
     0
142
0.0208333333333333
142
0.0
142
0.0
142
0.0
142
0.0
142
0.0208333333333333
142
0.0
142
0.0
142
0.0
142
0.0
142
1.0
142
0.0
142
0.0
142
0.0
142
0.0
142
1.0
179
     0
144
0.0208333333333333
144
0.0
144
0.0
144
0.0
144
0.0
144
0.0208333333333333
144
0.0
144
0.0
144
0.0
144
0.0
144
1.0
144
0.0
144
0.0
144
0.0
144
0.0
144
1.0
147
0.0208333333333333
147
0.0
147
0.0
147
0.0
147
0.0
147
0.0208333333333333
147
0.0
147
0.0
147
0.0
147
0.0
147
1.0
147
0.0
147
0.0
147
0.0
147
0.0
147
1.0
  0
MLEADERSTYLE
  5
67
102
{ACAD_REACTORS
330
66
102
}
330
66
100
AcDbMLeaderStyle
179
     2
170
     2
171
     1
172
     0
 90
        2
 40
0.0
 41
0.0
173
     1
 91
-1056964608
340
5B
 92
       -2
290
     1
 42
0.09
291
     1
 43
0.36
  3
Standard
 44
0.18
300

342
55
174
     1
178
     6
175
     1
176
     0
 93
-1056964608
 45
0.18
292
     0
297
     0
 46
0.18
 94
-1056964608
 47
1.0
 49
1.0
140
1.0
293
     1
141
0.0
294
     1
177
     0
142
1.0
295
     1
296
     0
143
0.125
271
     0
272
     9
273
     9
298
     1
  0
MLINESTYLE
  5
60
102
{ACAD_REACTORS
330
5F
102
}
330
5F
100
AcDbMlineStyle
  2
STANDARD
 70
     0
  3

 62
   256
 51
90.0
 52
90.0
 71
     2
 49
0.5
 62
   256
  6
BYLAYER
 49
-0.5
 62
   256
  6
BYLAYER
  0
ACDBPLACEHOLDER
  5
F
102
{ACAD_REACTORS
330
E
102
}
330
E
  0
SCALE
  5
43
102
{ACAD_REACTORS
330
42
102
}
330
42
100
AcDbScale
 70
     0
300
1:1
140
1.0
141
1.0
290
     1
  0
SCALE
  5
44
102
{ACAD_REACTORS
330
42
102
}
330
42
100
AcDbScale
 70
     0
300
1/128" = 1'-0"
140
0.0078125
141
12.0
290
     0
  0
SCALE
  5
45
102
{ACAD_REACTORS
330
42
102
}
330
42
100
AcDbScale
 70
     0
300
1/64" = 1'-0"
140
0.015625
141
12.0
290
     0
  0
SCALE
  5
46
102
{ACAD_REACTORS
330
42
102
}
330
42
100
AcDbScale
 70
     0
300
1/32" = 1'-0"
140
0.03125
141
12.0
290
     0
  0
SCALE
  5
47
102
{ACAD_REACTORS
330
42
102
}
330
42
100
AcDbScale
 70
     0
300
1/16" = 1'-0"
140
0.0625
141
12.0
290
     0
  0
SCALE
  5
48
102
{ACAD_REACTORS
330
42
102
}
330
42
100
AcDbScale
 70
     0
300
3/32" = 1'-0"
140
0.09375
141
12.0
290
     0
  0
SCALE
  5
49
102
{ACAD_REACTORS
330
42
102
}
330
42
100
AcDbScale
 70
     0
300
1/8" = 1'-0"
140
0.125
141
12.0
290
     0
  0
SCALE
  5
4A
102
{ACAD_REACTORS
330
42
102
}
330
42
100
AcDbScale
 70
     0
300
3/16" = 1'-0"
140
0.1875
141
12.0
290
     0
  0
SCALE
  5
4B
102
{ACAD_REACTORS
330
42
102
}
330
42
100
AcDbScale
 70
     0
300
1/4" = 1'-0"
140
0.25
141
12.0
290
     0
  0
SCALE
  5
4C
102
{ACAD_REACTORS
330
42
102
}
330
42
100
AcDbScale
 70
     0
300
3/8" = 1'-0"
140
0.375
141
12.0
290
     0
  0
SCALE
  5
4D
102
{ACAD_REACTORS
330
42
102
}
330
42
100
AcDbScale
 70
     0
300
1/2" = 1'-0"
140
0.5
141
12.0
290
     0
  0
SCALE
  5
4E
102
{ACAD_REACTORS
330
42
102
}
330
42
100
AcDbScale
 70
     0
300
3/4" = 1'-0"
140
0.75
141
12.0
290
     0
  0
SCALE
  5
4F
102
{ACAD_REACTORS
330
42
102
}
330
42
100
AcDbScale
 70
     0
300
1" = 1'-0"
140
1.0
141
12.0
290
     0
  0
SCALE
  5
50
102
{ACAD_REACTORS
330
42
102
}
330
42
100
AcDbScale
 70
     0
300
1-1/2" = 1'-0"
140
1.5
141
12.0
290
     0
  0
SCALE
  5
51
102
{ACAD_REACTORS
330
42
102
}
330
42
100
AcDbScale
 70
     0
300
3" = 1'-0"
140
3.0
141
12.0
290
     0
  0
SCALE
  5
52
102
{ACAD_REACTORS
330
42
102
}
330
42
100
AcDbScale
 70
     0
300
6" = 1'-0"
140
6.0
141
12.0
290
     0
  0
SCALE
  5
53
102
{ACAD_REACTORS
330
42
102
}
330
42
100
AcDbScale
 70
     0
300
1'-0" = 1'-0"
140
12.0
141
12.0
290
     0
  0
ACDBSECTIONVIEWSTYLE
  5
69
102
{ACAD_REACTORS
330
68
102
}
330
68
100
AcDbModelDocViewStyle
 70
     0
  3
Imperial24
290
     1
300
Imperial24
 90
        0
100
AcDbSectionViewStyle
 70
     0
 71
     0
 90
       78
 71
     1
340
55
 62
   256
 40
0.24
340
0
340
0
 62
   256
 40
0.24
300
I, O, Q, S, X, Z
 40
0.48
 90
        3
 40
0.18
 90
        1
 71
     2
340
5D
 90
       25
 62
   256
340
5D
 90
       50
 62
   256
 40
0.24
 40
0.0
 40
0.24
 71
     3
340
55
 62
   256
 40
0.24
 90
        1
 40
0.75
 90
        1
300
%<\AcVar ViewType \f "%tc1">% %<\AcVar ViewSectionStartId>%-%<\AcVar ViewSectionEndId>%\PSCALE %<\AcVar ViewScale \f "%sn">%
 71
     4
 62
   256
 62
   257
300
ANSI31
 40
1.0
 90
        0
290
     0
290
     0
 90
        6
 40
0.0
 40
1.570796326794896
 40
0.2617993877991494
 40
1.308996938995747
 40
-0.2617993877991494
 40
1.832595714594046
  0
TABLESTYLE
  5
65
102
{ACAD_XDICTIONARY
360
B3
102
}
102
{ACAD_REACTORS
330
64
102
}
330
64
100
AcDbTableStyle
280
     0
  3
Standard
 70
     0
 71
     0
 40
0.06
 41
0.06
280
     0
281
     0
  7
Standard
140
0.18
170
     2
 62
     0
 63
     7
283
     0
 90
      512
 91
        0
  1

274
    -2
284
     1
 64
     0
275
    -2
285
     1
 65
     0
276
    -2
286
     1
 66
     0
277
    -2
287
     1
 67
     0
278
    -2
288
     1
 68
     0
279
    -2
289
     1
 69
     0
  7
Standard
140
0.25
170
     5
 62
     0
 63
     7
283
     0
 90
      512
 91
        0
  1

274
    -2
284
     1
 64
     0
275
    -2
285
     1
 65
     0
276
    -2
286
     1
 66
     0
277
    -2
287
     1
 67
     0
278
    -2
288
     1
 68
     0
279
    -2
289
     1
 69
     0
  7
Standard
140
0.18
170
     5
 62
     0
 63
     7
283
     0
 90
      512
 91
        0
  1

274
    -2
284
     1
 64
     0
275
    -2
285
     1
 65
     0
276
    -2
286
     1
 66
     0
277
    -2
287
     1
 67
     0
278
    -2
288
     1
 68
     0
279
    -2
289
     1
 69
     0
  0
VISUALSTYLE
  5
2F
102
{ACAD_REACTORS
330
29
102
}
330
29
100
AcDbVisualStyle
  2
2dWireframe
 70
     4
177
     3
291
     0
 70
    58
 90
        0
176
     1
 90
        2
176
     1
 90
        0
176
     1
 90
        0
176
     1
 40
0.6
176
     1
 40
30.0
176
     1
 62
     7
420
 16777215
176
     1
 90
        1
176
     1
 90
        4
176
     1
 62
     7
176
     1
 62
   257
176
     1
 90
        1
176
     1
 90
        1
176
     1
 40
1.0
176
     1
 90
        0
176
     1
 62
   257
176
     1
 40
1.0
176
     1
 90
        1
176
     1
 90
        6
176
     1
 90
        2
176
     1
 62
     7
176
     1
 90
        5
176
     1
 90
        0
176
     1
 90
        0
176
     1
290
     0
176
     1
 90
        1
176
     1
 40
0.0
176
     1
 90
        0
176
     1
290
     1
176
     1
290
     1
176
     1
290
     0
176
     1
290
     0
176
     1
290
     0
176
     1
290
     0
176
     1
290
     0
176
     1
290
     0
176
     1
290
     0
176
     1
 90
       50
176
     1
 40
0.0
176
     1
 40
1.0
176
     1
 90
        0
176
     1
 62
    18
420
        0
176
     1
 90
       50
176
     1
 90
        3
176
     1
 62
     5
420
      255
176
     1
290
     0
176
     1
 90
       50
176
     1
 90
       50
176
     1
 90
       50
176
     1
290
     0
176
     1
 90
       50
176
     1
 62
   256
176
     0
 40
1.0
176
     0
 90
        2
176
     1
  1
strokes_ogs.tif
176
     1
290
     0
176
     1
 40
1.0
176
     1
 40
1.0
176
     1
  0
VISUALSTYLE
  5
2E
102
{ACAD_REACTORS
330
29
102
}
330
29
100
AcDbVisualStyle
  2
Basic
 70
     7
177
     3
291
     1
 70
    58
 90
        1
176
     1
 90
        0
176
     1
 90
        1
176
     1
 90
        0
176
     1
 40
0.6
176
     1
 40
30.0
176
     1
 62
     7
420
 16777215
176
     1
 90
        0
176
     1
 90
        4
176
     1
 62
     7
176
     1
 62
   257
176
     1
 90
        1
176
     1
 90
        1
176
     1
 40
1.0
176
     1
 90
        8
176
     1
 62
     7
176
     1
 40
1.0
176
     1
 90
        1
176
     1
 90
        6
176
     1
 90
        2
176
     1
 62
     7
176
     1
 90
        5
176
     1
 90
        0
176
     1
 90
        0
176
     1
290
     0
176
     1
 90
        1
176
     1
 40
0.0
176
     1
 90
        0
176
     1
290
     0
176
     1
290
     1
176
     1
290
     1
176
     1
290
     0
176
     1
290
     0
176
     1
290
     0
176
     1
290
     0
176
     1
290
     0
176
     1
290
     0
176
     1
 90
       50
176
     1
 40
0.0
176
     1
 40
1.0
176
     1
 90
        0
176
     1
 62
    18
420
        0
176
     1
 90
       50
176
     1
 90
        3
176
     1
 62
     5
420
      255
176
     1
290
     0
176
     1
 90
       50
176
     1
 90
       50
176
     1
 90
       50
176
     1
290
     0
176
     1
 90
       50
176
     1
 62
   256
176
     0
 40
1.0
176
     0
 90
        2
176
     1
  1
strokes_ogs.tif
176
     1
290
     0
176
     1
 40
1.0
176
     1
 40
1.0
176
     1
  0
VISUALSTYLE
  5
35
102
{ACAD_REACTORS
330
29
102
}
330
29
100
AcDbVisualStyle
  2
Brighten
 70
    12
177
     3
291
     1
 70
    58
 90
        2
176
     1
 90
        2
176
     1
 90
        0
176
     1
 90
        0
176
     1
 40
0.6
176
     1
 40
30.0
176
     1
 62
     7
420
 16777215
176
     1
 90
        1
176
     1
 90
        4
176
     1
 62
     7
176
     1
 62
   257
176
     1
 90
        1
176
     1
 90
        1
176
     1
 40
1.0
176
     1
 90
        8
176
     1
 62
     7
176
     1
 40
1.0
176
     1
 90
        1
176
     1
 90
        6
176
     1
 90
        2
176
     1
 62
     7
176
     1
 90
        5
176
     1
 90
        0
176
     1
 90
        0
176
     1
290
     0
176
     1
 90
        1
176
     1
 40
50.0
176
     1
 90
        0
176
     1
290
     0
176
     1
290
     1
176
     1
290
     1
176
     1
290
     0
176
     1
290
     0
176
     1
290
     0
176
     1
290
     0
176
     1
290
     0
176
     1
290
     0
176
     1
 90
       50
176
     1
 40
0.0
176
     1
 40
1.0
176
     1
 90
        0
176
     1
 62
    18
420
        0
176
     1
 90
       50
176
     1
 90
        3
176
     1
 62
     5
420
      255
176
     1
290
     0
176
     1
 90
       50
176
     1
 90
       50
176
     1
 90
       50
176
     1
290
     0
176
     1
 90
       50
176
     1
 62
   256
176
     0
 40
1.0
176
     0
 90
        2
176
     1
  1
strokes_ogs.tif
176
     1
290
     0
176
     1
 40
1.0
176
     1
 40
1.0
176
     1
  0
VISUALSTYLE
  5
39
102
{ACAD_REACTORS
330
29
102
}
330
29
100
AcDbVisualStyle
  2
ColorChange
 70
    16
177
     3
291
     1
 70
    58
 90
        2
176
     1
 90
        2
176
     1
 90
        3
176
     1
 90
        0
176
     1
 40
0.6
176
     1
 40
30.0
176
     1
 62
     8
420
  8421504
176
     1
 90
        1
176
     1
 90
        4
176
     1
 62
     7
176
     1
 62
   257
176
     1
 90
        1
176
     1
 90
        1
176
     1
 40
1.0
176
     1
 90
        8
176
     1
 62
     8
420
  8421504
176
     1
 40
1.0
176
     1
 90
        1
176
     1
 90
        6
176
     1
 90
        2
176
     1
 62
     7
176
     1
 90
        5
176
     1
 90
        0
176
     1
 90
        0
176
     1
290
     0
176
     1
 90
        1
176
     1
 40
0.0
176
     1
 90
        0
176
     1
290
     0
176
     1
290
     1
176
     1
290
     1
176
     1
290
     0
176
     1
290
     0
176
     1
290
     0
176
     1
290
     0
176
     1
290
     0
176
     1
290
     0
176
     1
 90
       50
176
     1
 40
0.0
176
     1
 40
1.0
176
     1
 90
        0
176
     1
 62
    18
420
        0
176
     1
 90
       50
176
     1
 90
        3
176
     1
 62
     5
420
      255
176
     1
290
     0
176
     1
 90
       50
176
     1
 90
       50
176
     1
 90
       50
176
     1
290
     0
176
     1
 90
       50
176
     1
 62
   256
176
     0
 40
1.0
176
     0
 90
        2
176
     1
  1
strokes_ogs.tif
176
     1
290
     0
176
     1
 40
1.0
176
     1
 40
1.0
176
     1
  0
VISUALSTYLE
  5
32
102
{ACAD_REACTORS
330
29
102
}
330
29
100
AcDbVisualStyle
  2
Conceptual
 70
     9
177
     3
291
     0
 70
    58
 90
        3
176
     1
 90
        2
176
     1
 90
        0
176
     1
 90
        0
176
     1
 40
0.6
176
     1
 40
30.0
176
     1
 62
     7
420
 16777215
176
     1
 90
        2
176
     1
 90
        2
176
     1
 62
     7
176
     1
 62
   257
176
     1
 90
        1
176
     1
 90
        1
176
     1
 40
179.0
176
     1
 90
        8
176
     1
 62
     7
176
     1
 40
1.0
176
     1
 90
        1
176
     1
 90
        6
176
     1
 90
        2
176
     1
 62
     7
176
     1
 90
        3
176
     1
 90
        0
176
     1
 90
        0
176
     1
290
     0
176
     1
 90
        1
176
     1
 40
0.0
176
     1
 90
        0
176
     1
290
     0
176
     1
290
     1
176
     1
290
     1
176
     1
290
     0
176
     1
290
     0
176
     1
290
     0
176
     1
290
     0
176
     1
290
     0
176
     1
290
     0
176
     1
 90
       50
176
     1
 40
0.0
176
     1
 40
1.0
176
     1
 90
        0
176
     1
 62
    18
420
        0
176
     1
 90
       50
176
     1
 90
        3
176
     1
 62
     5
420
      255
176
     1
290
     0
176
     1
 90
       50
176
     1
 90
       50
176
     1
 90
       50
176
     1
290
     0
176
     1
 90
       50
176
     1
 62
   256
176
     0
 40
1.0
176
     0
 90
        2
176
     1
  1
strokes_ogs.tif
176
     1
290
     0
176
     1
 40
1.0
176
     1
 40
1.0
176
     1
  0
VISUALSTYLE
  5
34
102
{ACAD_REACTORS
330
29
102
}
330
29
100
AcDbVisualStyle
  2
Dim
 70
    11
177
     3
291
     1
 70
    58
 90
        2
176
     1
 90
        2
176
     1
 90
        0
176
     1
 90
        0
176
     1
 40
0.6
176
     1
 40
30.0
176
     1
 62
     7
420
 16777215
176
     1
 90
        1
176
     1
 90
        4
176
     1
 62
     7
176
     1
 62
   257
176
     1
 90
        1
176
     1
 90
        1
176
     1
 40
1.0
176
     1
 90
        8
176
     1
 62
     7
176
     1
 40
1.0
176
     1
 90
        1
176
     1
 90
        6
176
     1
 90
        2
176
     1
 62
     7
176
     1
 90
        5
176
     1
 90
        0
176
     1
 90
        0
176
     1
290
     0
176
     1
 90
        1
176
     1
 40
-50.0
176
     1
 90
        0
176
     1
290
     0
176
     1
290
     1
176
     1
290
     1
176
     1
290
     0
176
     1
290
     0
176
     1
290
     0
176
     1
290
     0
176
     1
290
     0
176
     1
290
     0
176
     1
 90
       50
176
     1
 40
0.0
176
     1
 40
1.0
176
     1
 90
        0
176
     1
 62
    18
420
        0
176
     1
 90
       50
176
     1
 90
        3
176
     1
 62
     5
420
      255
176
     1
290
     0
176
     1
 90
       50
176
     1
 90
       50
176
     1
 90
       50
176
     1
290
     0
176
     1
 90
       50
176
     1
 62
   256
176
     0
 40
1.0
176
     0
 90
        2
176
     1
  1
strokes_ogs.tif
176
     1
290
     0
176
     1
 40
1.0
176
     1
 40
1.0
176
     1
  0
VISUALSTYLE
  5
41
102
{ACAD_REACTORS
330
29
102
}
330
29
100
AcDbVisualStyle
  2
EdgeColorOff
 70
    22
177
     3
291
     1
 70
    58
 90
        2
176
     0
 90
        2
176
     0
 90
        0
176
     0
 90
        0
176
     0
 40
0.6
176
     0
 40
30.0
176
     0
 62
     7
420
 16777215
176
     0
 90
        1
176
     0
 90
        4
176
     0
 62
     7
176
     0
 62
   257
176
     0
 90
        1
176
     0
 90
        1
176
     0
 40
1.0
176
     0
 90
        8
176
     2
 62
     7
176
     0
 40
1.0
176
     0
 90
        1
176
     0
 90
        6
176
     0
 90
        2
176
     0
 62
     7
176
     0
 90
        5
176
     0
 90
        0
176
     0
 90
        0
176
     0
290
     0
176
     0
 90
        1
176
     0
 40
0.0
176
     0
 90
        0
176
     0
290
     0
176
     0
290
     1
176
     0
290
     1
176
     0
290
     0
176
     0
290
     0
176
     0
290
     0
176
     0
290
     0
176
     0
290
     0
176
     0
290
     0
176
     0
 90
       50
176
     0
 40
0.0
176
     0
 40
1.0
176
     0
 90
        0
176
     0
 62
    18
420
        0
176
     0
 90
       50
176
     0
 90
        3
176
     0
 62
     5
420
      255
176
     0
290
     0
176
     0
 90
       50
176
     0
 90
       50
176
     0
 90
       50
176
     0
290
     0
176
     0
 90
       50
176
     0
 62
   256
176
     0
 40
1.0
176
     0
 90
        2
176
     0
  1
strokes_ogs.tif
176
     0
290
     0
176
     0
 40
1.0
176
     0
 40
1.0
176
     0
  0
VISUALSTYLE
  5
38
102
{ACAD_REACTORS
330
29
102
}
330
29
100
AcDbVisualStyle
  2
Facepattern
 70
    15
177
     3
291
     1
 70
    58
 90
        2
176
     1
 90
        2
176
     1
 90
        0
176
     1
 90
        0
176
     1
 40
0.6
176
     1
 40
30.0
176
     1
 62
     7
420
 16777215
176
     1
 90
        1
176
     1
 90
        4
176
     1
 62
     7
176
     1
 62
   257
176
     1
 90
        1
176
     1
 90
        1
176
     1
 40
1.0
176
     1
 90
        8
176
     1
 62
     7
176
     1
 40
1.0
176
     1
 90
        1
176
     1
 90
        6
176
     1
 90
        2
176
     1
 62
     7
176
     1
 90
        5
176
     1
 90
        0
176
     1
 90
        0
176
     1
290
     0
176
     1
 90
        1
176
     1
 40
0.0
176
     1
 90
        0
176
     1
290
     0
176
     1
290
     1
176
     1
290
     1
176
     1
290
     0
176
     1
290
     0
176
     1
290
     0
176
     1
290
     0
176
     1
290
     0
176
     1
290
     0
176
     1
 90
       50
176
     1
 40
0.0
176
     1
 40
1.0
176
     1
 90
        0
176
     1
 62
    18
420
        0
176
     1
 90
       50
176
     1
 90
        3
176
     1
 62
     5
420
      255
176
     1
290
     0
176
     1
 90
       50
176
     1
 90
       50
176
     1
 90
       50
176
     1
290
     0
176
     1
 90
       50
176
     1
 62
   256
176
     0
 40
1.0
176
     0
 90
        2
176
     1
  1
strokes_ogs.tif
176
     1
290
     0
176
     1
 40
1.0
176
     1
 40
1.0
176
     1
  0
VISUALSTYLE
  5
2A
102
{ACAD_REACTORS
330
29
102
}
330
29
100
AcDbVisualStyle
  2
Flat
 70
     0
177
     3
291
     1
 70
    58
 90
        2
176
     1
 90
        1
176
     1
 90
        1
176
     1
 90
        2
176
     1
 40
0.6
176
     1
 40
30.0
176
     1
 62
     7
420
 16777215
176
     1
 90
        0
176
     1
 90
        0
176
     1
 62
     7
176
     1
 62
   257
176
     1
 90
        1
176
     1
 90
        1
176
     1
 40
1.0
176
     1
 90
        8
176
     1
 62
     7
176
     1
 40
1.0
176
     1
 90
        1
176
     1
 90
        6
176
     1
 90
        2
176
     1
 62
     7
176
     1
 90
        5
176
     1
 90
        0
176
     1
 90
        0
176
     1
290
     0
176
     1
 90
       13
176
     1
 40
0.0
176
     1
 90
        0
176
     1
290
     0
176
     1
290
     1
176
     1
290
     1
176
     1
290
     0
176
     1
290
     0
176
     1
290
     0
176
     1
290
     0
176
     1
290
     0
176
     1
290
     0
176
     1
 90
       50
176
     1
 40
0.0
176
     1
 40
1.0
176
     1
 90
        0
176
     1
 62
    18
420
        0
176
     1
 90
       50
176
     1
 90
        3
176
     1
 62
     5
420
      255
176
     1
290
     0
176
     1
 90
       50
176
     1
 90
       50
176
     1
 90
       50
176
     1
290
     0
176
     1
 90
       50
176
     1
 62
   256
176
     0
 40
1.0
176
     0
 90
        2
176
     1
  1
strokes_ogs.tif
176
     1
290
     0
176
     1
 40
1.0
176
     1
 40
1.0
176
     1
  0
VISUALSTYLE
  5
2B
102
{ACAD_REACTORS
330
29
102
}
330
29
100
AcDbVisualStyle
  2
FlatWithEdges
 70
     1
177
     3
291
     1
 70
    58
 90
        2
176
     1
 90
        1
176
     1
 90
        1
176
     1
 90
        2
176
     1
 40
0.6
176
     1
 40
30.0
176
     1
 62
     7
420
 16777215
176
     1
 90
        1
176
     1
 90
        0
176
     1
 62
     7
176
     1
 62
   257
176
     1
 90
        1
176
     1
 90
        1
176
     1
 40
1.0
176
     1
 90
        0
176
     1
 62
   257
176
     1
 40
1.0
176
     1
 90
        1
176
     1
 90
        6
176
     1
 90
        2
176
     1
 62
     7
176
     1
 90
        5
176
     1
 90
        0
176
     1
 90
        0
176
     1
290
     0
176
     1
 90
       13
176
     1
 40
0.0
176
     1
 90
        0
176
     1
290
     0
176
     1
290
     1
176
     1
290
     1
176
     1
290
     0
176
     1
290
     0
176
     1
290
     0
176
     1
290
     0
176
     1
290
     0
176
     1
290
     0
176
     1
 90
       50
176
     1
 40
0.0
176
     1
 40
1.0
176
     1
 90
        0
176
     1
 62
    18
420
        0
176
     1
 90
       50
176
     1
 90
        3
176
     1
 62
     5
420
      255
176
     1
290
     0
176
     1
 90
       50
176
     1
 90
       50
176
     1
 90
       50
176
     1
290
     0
176
     1
 90
       50
176
     1
 62
   256
176
     0
 40
1.0
176
     0
 90
        2
176
     1
  1
strokes_ogs.tif
176
     1
290
     0
176
     1
 40
1.0
176
     1
 40
1.0
176
     1
  0
VISUALSTYLE
  5
2C
102
{ACAD_REACTORS
330
29
102
}
330
29
100
AcDbVisualStyle
  2
Gouraud
 70
     2
177
     3
291
     1
 70
    58
 90
        2
176
     1
 90
        2
176
     1
 90
        1
176
     1
 90
        2
176
     1
 40
0.6
176
     1
 40
30.0
176
     1
 62
     7
420
 16777215
176
     1
 90
        0
176
     1
 90
        0
176
     1
 62
     7
176
     1
 62
   257
176
     1
 90
        1
176
     1
 90
        1
176
     1
 40
1.0
176
     1
 90
        0
176
     1
 62
     7
176
     1
 40
1.0
176
     1
 90
        1
176
     1
 90
        6
176
     1
 90
        2
176
     1
 62
     7
176
     1
 90
        5
176
     1
 90
        0
176
     1
 90
        0
176
     1
290
     0
176
     1
 90
       13
176
     1
 40
0.0
176
     1
 90
        0
176
     1
290
     0
176
     1
290
     1
176
     1
290
     1
176
     1
290
     0
176
     1
290
     0
176
     1
290
     0
176
     1
290
     0
176
     1
290
     0
176
     1
290
     0
176
     1
 90
       50
176
     1
 40
0.0
176
     1
 40
1.0
176
     1
 90
        0
176
     1
 62
    18
420
        0
176
     1
 90
       50
176
     1
 90
        3
176
     1
 62
     5
420
      255
176
     1
290
     0
176
     1
 90
       50
176
     1
 90
       50
176
     1
 90
       50
176
     1
290
     0
176
     1
 90
       50
176
     1
 62
   256
176
     0
 40
1.0
176
     0
 90
        2
176
     1
  1
strokes_ogs.tif
176
     1
290
     0
176
     1
 40
1.0
176
     1
 40
1.0
176
     1
  0
VISUALSTYLE
  5
2D
102
{ACAD_REACTORS
330
29
102
}
330
29
100
AcDbVisualStyle
  2
GouraudWithEdges
 70
     3
177
     3
291
     1
 70
    58
 90
        2
176
     1
 90
        2
176
     1
 90
        1
176
     1
 90
        2
176
     1
 40
0.6
176
     1
 40
30.0
176
     1
 62
     7
420
 16777215
176
     1
 90
        1
176
     1
 90
        0
176
     1
 62
     7
176
     1
 62
   257
176
     1
 90
        1
176
     1
 90
        1
176
     1
 40
1.0
176
     1
 90
        0
176
     1
 62
   257
176
     1
 40
1.0
176
     1
 90
        1
176
     1
 90
        6
176
     1
 90
        2
176
     1
 62
     7
176
     1
 90
        5
176
     1
 90
        0
176
     1
 90
        0
176
     1
290
     0
176
     1
 90
       13
176
     1
 40
0.0
176
     1
 90
        0
176
     1
290
     0
176
     1
290
     1
176
     1
290
     1
176
     1
290
     0
176
     1
290
     0
176
     1
290
     0
176
     1
290
     0
176
     1
290
     0
176
     1
290
     0
176
     1
 90
       50
176
     1
 40
0.0
176
     1
 40
1.0
176
     1
 90
        0
176
     1
 62
    18
420
        0
176
     1
 90
       50
176
     1
 90
        3
176
     1
 62
     5
420
      255
176
     1
290
     0
176
     1
 90
       50
176
     1
 90
       50
176
     1
 90
       50
176
     1
290
     0
176
     1
 90
       50
176
     1
 62
   256
176
     0
 40
1.0
176
     0
 90
        2
176
     1
  1
strokes_ogs.tif
176
     1
290
     0
176
     1
 40
1.0
176
     1
 40
1.0
176
     1
  0
VISUALSTYLE
  5
31
102
{ACAD_REACTORS
330
29
102
}
330
29
100
AcDbVisualStyle
  2
Hidden
 70
     6
177
     3
291
     0
 70
    58
 90
        1
176
     1
 90
        2
176
     1
 90
        2
176
     1
 90
        0
176
     1
 40
0.6
176
     1
 40
30.0
176
     1
 62
     7
420
 16777215
176
     1
 90
        2
176
     1
 90
        2
176
     1
 62
     7
176
     1
 62
   257
176
     1
 90
        2
176
     1
 90
        1
176
     1
 40
40.0
176
     1
 90
        0
176
     1
 62
   257
176
     1
 40
1.0
176
     1
 90
        1
176
     1
 90
        6
176
     1
 90
        2
176
     1
 62
     7
176
     1
 90
        3
176
     1
 90
        0
176
     1
 90
        0
176
     1
290
     0
176
     1
 90
        1
176
     1
 40
0.0
176
     1
 90
        0
176
     1
290
     0
176
     1
290
     1
176
     1
290
     1
176
     1
290
     0
176
     1
290
     0
176
     1
290
     0
176
     1
290
     0
176
     1
290
     0
176
     1
290
     0
176
     1
 90
       50
176
     1
 40
0.0
176
     1
 40
1.0
176
     1
 90
        0
176
     1
 62
    18
420
        0
176
     1
 90
       50
176
     1
 90
        3
176
     1
 62
     5
420
      255
176
     1
290
     0
176
     1
 90
       50
176
     1
 90
       50
176
     1
 90
       50
176
     1
290
     0
176
     1
 90
       50
176
     1
 62
   256
176
     0
 40
1.0
176
     0
 90
        2
176
     1
  1
strokes_ogs.tif
176
     1
290
     0
176
     1
 40
1.0
176
     1
 40
1.0
176
     1
  0
VISUALSTYLE
  5
3F
102
{ACAD_REACTORS
330
29
102
}
330
29
100
AcDbVisualStyle
  2
JitterOff
 70
    20
177
     3
291
     1
 70
    58
 90
        2
176
     0
 90
        2
176
     0
 90
        0
176
     0
 90
        0
176
     0
 40
0.6
176
     0
 40
30.0
176
     0
 62
     7
420
 16777215
176
     0
 90
        1
176
     0
 90
        4
176
     0
 62
     7
176
     0
 62
   257
176
     0
 90
        1
176
     0
 90
        1
176
     0
 40
1.0
176
     0
 90
       10
176
     2
 62
     7
176
     0
 40
1.0
176
     0
 90
        1
176
     0
 90
        6
176
     0
 90
        2
176
     0
 62
     7
176
     0
 90
        5
176
     0
 90
        0
176
     0
 90
        0
176
     0
290
     0
176
     0
 90
        1
176
     0
 40
0.0
176
     0
 90
        0
176
     0
290
     0
176
     0
290
     1
176
     0
290
     1
176
     0
290
     0
176
     0
290
     0
176
     0
290
     0
176
     0
290
     0
176
     0
290
     0
176
     0
290
     0
176
     0
 90
       50
176
     0
 40
0.0
176
     0
 40
1.0
176
     0
 90
        0
176
     0
 62
    18
420
        0
176
     0
 90
       50
176
     0
 90
        3
176
     0
 62
     5
420
      255
176
     0
290
     0
176
     0
 90
       50
176
     0
 90
       50
176
     0
 90
       50
176
     0
290
     0
176
     0
 90
       50
176
     0
 62
   256
176
     0
 40
1.0
176
     0
 90
        2
176
     0
  1
strokes_ogs.tif
176
     0
290
     0
176
     0
 40
1.0
176
     0
 40
1.0
176
     0
  0
VISUALSTYLE
  5
37
102
{ACAD_REACTORS
330
29
102
}
330
29
100
AcDbVisualStyle
  2
Linepattern
 70
    14
177
     3
291
     1
 70
    58
 90
        2
176
     1
 90
        2
176
     1
 90
        0
176
     1
 90
        0
176
     1
 40
0.6
176
     1
 40
30.0
176
     1
 62
     7
420
 16777215
176
     1
 90
        1
176
     1
 90
        4
176
     1
 62
     7
176
     1
 62
   257
176
     1
 90
        7
176
     1
 90
        7
176
     1
 40
1.0
176
     1
 90
        8
176
     1
 62
     7
176
     1
 40
1.0
176
     1
 90
        1
176
     1
 90
        6
176
     1
 90
        2
176
     1
 62
     7
176
     1
 90
        5
176
     1
 90
        0
176
     1
 90
        0
176
     1
290
     0
176
     1
 90
        1
176
     1
 40
0.0
176
     1
 90
        0
176
     1
290
     0
176
     1
290
     1
176
     1
290
     1
176
     1
290
     0
176
     1
290
     0
176
     1
290
     0
176
     1
290
     0
176
     1
290
     0
176
     1
290
     0
176
     1
 90
       50
176
     1
 40
0.0
176
     1
 40
1.0
176
     1
 90
        0
176
     1
 62
    18
420
        0
176
     1
 90
       50
176
     1
 90
        3
176
     1
 62
     5
420
      255
176
     1
290
     0
176
     1
 90
       50
176
     1
 90
       50
176
     1
 90
       50
176
     1
290
     0
176
     1
 90
       50
176
     1
 62
   256
176
     0
 40
1.0
176
     0
 90
        2
176
     1
  1
strokes_ogs.tif
176
     1
290
     0
176
     1
 40
1.0
176
     1
 40
1.0
176
     1
  0
VISUALSTYLE
  5
40
102
{ACAD_REACTORS
330
29
102
}
330
29
100
AcDbVisualStyle
  2
OverhangOff
 70
    21
177
     3
291
     1
 70
    58
 90
        2
176
     0
 90
        2
176
     0
 90
        0
176
     0
 90
        0
176
     0
 40
0.6
176
     0
 40
30.0
176
     0
 62
     7
420
 16777215
176
     0
 90
        1
176
     0
 90
        4
176
     0
 62
     7
176
     0
 62
   257
176
     0
 90
        1
176
     0
 90
        1
176
     0
 40
1.0
176
     0
 90
        9
176
     2
 62
     7
176
     0
 40
1.0
176
     0
 90
        1
176
     0
 90
        6
176
     0
 90
        2
176
     0
 62
     7
176
     0
 90
        5
176
     0
 90
        0
176
     0
 90
        0
176
     0
290
     0
176
     0
 90
        1
176
     0
 40
0.0
176
     0
 90
        0
176
     0
290
     0
176
     0
290
     1
176
     0
290
     1
176
     0
290
     0
176
     0
290
     0
176
     0
290
     0
176
     0
290
     0
176
     0
290
     0
176
     0
290
     0
176
     0
 90
       50
176
     0
 40
0.0
176
     0
 40
1.0
176
     0
 90
        0
176
     0
 62
    18
420
        0
176
     0
 90
       50
176
     0
 90
        3
176
     0
 62
     5
420
      255
176
     0
290
     0
176
     0
 90
       50
176
     0
 90
       50
176
     0
 90
       50
176
     0
290
     0
176
     0
 90
       50
176
     0
 62
   256
176
     0
 40
1.0
176
     0
 90
        2
176
     0
  1
strokes_ogs.tif
176
     0
290
     0
176
     0
 40
1.0
176
     0
 40
1.0
176
     0
  0
VISUALSTYLE
  5
33
102
{ACAD_REACTORS
330
29
102
}
330
29
100
AcDbVisualStyle
  2
Realistic
 70
     8
177
     3
291
     0
 70
    58
 90
        2
176
     1
 90
        3
176
     1
 90
        0
176
     1
 90
        2
176
     1
 40
0.6
176
     1
 40
30.0
176
     1
 62
     7
420
 16777215
176
     1
 90
        0
176
     1
 90
        0
176
     1
 62
     7
176
     1
 62
   257
176
     1
 90
        1
176
     1
 90
        1
176
     1
 40
1.0
176
     1
 90
        8
176
     1
 62
   257
176
     1
 40
1.0
176
     1
 90
        1
176
     1
 90
        6
176
     1
 90
        2
176
     1
 62
     7
176
     1
 90
        3
176
     1
 90
        0
176
     1
 90
        0
176
     1
290
     0
176
     1
 90
       13
176
     1
 40
0.0
176
     1
 90
        0
176
     1
290
     0
176
     1
290
     1
176
     1
290
     1
176
     1
290
     0
176
     1
290
     0
176
     1
290
     0
176
     1
290
     0
176
     1
290
     0
176
     1
290
     0
176
     1
 90
       50
176
     1
 40
0.0
176
     1
 40
1.0
176
     1
 90
        0
176
     1
 62
    18
420
        0
176
     1
 90
       50
176
     1
 90
        3
176
     1
 62
     5
420
      255
176
     1
290
     0
176
     1
 90
       50
176
     1
 90
       50
176
     1
 90
       50
176
     1
290
     0
176
     1
 90
       50
176
     1
 62
   256
176
     0
 40
1.0
176
     0
 90
        2
176
     1
  1
strokes_ogs.tif
176
     1
290
     0
176
     1
 40
1.0
176
     1
 40
1.0
176
     1
  0
VISUALSTYLE
  5
3E
102
{ACAD_REACTORS
330
29
102
}
330
29
100
AcDbVisualStyle
  2
Shaded
 70
    27
177
     3
291
     0
 70
    58
 90
        2
176
     1
 90
        2
176
     1
 90
        1
176
     1
 90
        2
176
     1
 40
0.6
176
     1
 40
30.0
176
     1
 62
     7
420
 16777215
176
     1
 90
        0
176
     1
 90
        4
176
     1
 62
     7
176
     1
 62
   257
176
     1
 90
        1
176
     1
 90
        1
176
     1
 40
1.0
176
     1
 90
        8
176
     1
 62
   257
176
     1
 40
1.0
176
     1
 90
        1
176
     1
 90
        6
176
     1
 90
        2
176
     1
 62
     8
420
  7895160
176
     1
 90
        3
176
     1
 90
        0
176
     1
 90
        0
176
     1
290
     0
176
     1
 90
        5
176
     1
 40
0.0
176
     1
 90
        0
176
     1
290
     0
176
     1
290
     1
176
     1
290
     1
176
     1
290
     0
176
     1
290
     0
176
     1
290
     0
176
     1
290
     0
176
     1
290
     0
176
     1
290
     0
176
     1
 90
       50
176
     1
 40
0.0
176
     1
 40
1.0
176
     1
 90
        0
176
     1
 62
    18
420
        0
176
     1
 90
       50
176
     1
 90
        3
176
     1
 62
     5
420
      255
176
     1
290
     0
176
     1
 90
       50
176
     1
 90
       50
176
     1
 90
       50
176
     1
290
     0
176
     1
 90
       50
176
     1
 62
   256
176
     0
 40
1.0
176
     0
 90
        2
176
     1
  1
strokes_ogs.tif
176
     1
290
     0
176
     1
 40
1.0
176
     1
 40
1.0
176
     1
  0
VISUALSTYLE
  5
3D
102
{ACAD_REACTORS
330
29
102
}
330
29
100
AcDbVisualStyle
  2
Shaded with edges
 70
    26
177
     3
291
     0
 70
    58
 90
        2
176
     1
 90
        2
176
     1
 90
        1
176
     1
 90
        2
176
     1
 40
0.6
176
     1
 40
30.0
176
     1
 62
     7
420
 16777215
176
     1
 90
        1
176
     1
 90
        2
176
     1
 62
     7
176
     1
 62
   257
176
     1
 90
        2
176
     1
 90
        1
176
     1
 40
1.0
176
     1
 90
        8
176
     1
 62
   257
176
     1
 40
1.0
176
     1
 90
        1
176
     1
 90
        6
176
     1
 90
        2
176
     1
 62
     7
176
     1
 90
        3
176
     1
 90
        0
176
     1
 90
        0
176
     1
290
     0
176
     1
 90
        5
176
     1
 40
0.0
176
     1
 90
        0
176
     1
290
     0
176
     1
290
     1
176
     1
290
     1
176
     1
290
     0
176
     1
290
     0
176
     1
290
     0
176
     1
290
     0
176
     1
290
     0
176
     1
290
     0
176
     1
 90
       50
176
     1
 40
0.0
176
     1
 40
1.0
176
     1
 90
        0
176
     1
 62
    18
420
        0
176
     1
 90
       50
176
     1
 90
        3
176
     1
 62
     5
420
      255
176
     1
290
     0
176
     1
 90
       50
176
     1
 90
       50
176
     1
 90
       50
176
     1
290
     0
176
     1
 90
       50
176
     1
 62
   256
176
     0
 40
1.0
176
     0
 90
        2
176
     1
  1
strokes_ogs.tif
176
     1
290
     0
176
     1
 40
1.0
176
     1
 40
1.0
176
     1
  0
VISUALSTYLE
  5
3A
102
{ACAD_REACTORS
330
29
102
}
330
29
100
AcDbVisualStyle
  2
Shades of Gray
 70
    23
177
     3
291
     0
 70
    58
 90
        2
176
     1
 90
        2
176
     1
 90
        3
176
     1
 90
        0
176
     1
 40
0.6
176
     1
 40
30.0
176
     1
 62
     7
420
 16777215
176
     1
 90
        2
176
     1
 90
        2
176
     1
 62
     7
176
     1
 62
     7
176
     1
 90
        1
176
     1
 90
        1
176
     1
 40
40.0
176
     1
 90
        8
176
     1
 62
     7
176
     1
 40
1.0
176
     1
 90
        1
176
     1
 90
        6
176
     1
 90
        2
176
     1
 62
     7
176
     1
 90
        3
176
     1
 90
        0
176
     1
 90
        0
176
     1
290
     0
176
     1
 90
        1
176
     1
 40
0.0
176
     1
 90
        0
176
     1
290
     0
176
     1
290
     1
176
     1
290
     1
176
     1
290
     0
176
     1
290
     0
176
     1
290
     0
176
     1
290
     0
176
     1
290
     0
176
     1
290
     0
176
     1
 90
       50
176
     1
 40
0.0
176
     1
 40
1.0
176
     1
 90
        0
176
     1
 62
    18
420
        0
176
     1
 90
       50
176
     1
 90
        3
176
     1
 62
     5
420
      255
176
     1
290
     0
176
     1
 90
       50
176
     1
 90
       50
176
     1
 90
       50
176
     1
290
     0
176
     1
 90
       50
176
     1
 62
   256
176
     0
 40
1.0
176
     0
 90
        2
176
     1
  1
strokes_ogs.tif
176
     1
290
     0
176
     1
 40
1.0
176
     1
 40
1.0
176
     1
  0
VISUALSTYLE
  5
3B
102
{ACAD_REACTORS
330
29
102
}
330
29
100
AcDbVisualStyle
  2
Sketchy
 70
    24
177
     3
291
     0
 70
    58
 90
        1
176
     1
 90
        2
176
     1
 90
        2
176
     1
 90
        0
176
     1
 40
0.6
176
     1
 40
30.0
176
     1
 62
     7
420
 16777215
176
     1
 90
        2
176
     1
 90
        2
176
     1
 62
     7
176
     1
 62
     7
176
     1
 90
        1
176
     1
 90
        1
176
     1
 40
40.0
176
     1
 90
       11
176
     1
 62
     7
176
     1
 40
1.0
176
     1
 90
        1
176
     1
 90
        6
176
     1
 90
        2
176
     1
 62
     7
176
     1
 90
        6
176
     1
 90
        0
176
     1
 90
        0
176
     1
290
     0
176
     1
 90
        1
176
     1
 40
0.0
176
     1
 90
        0
176
     1
290
     0
176
     1
290
     1
176
     1
290
     1
176
     1
290
     0
176
     1
290
     0
176
     1
290
     0
176
     1
290
     0
176
     1
290
     0
176
     1
290
     0
176
     1
 90
       50
176
     1
 40
0.0
176
     1
 40
1.0
176
     1
 90
        0
176
     1
 62
    18
420
        0
176
     1
 90
       50
176
     1
 90
        3
176
     1
 62
     5
420
      255
176
     1
290
     0
176
     1
 90
       50
176
     1
 90
       50
176
     1
 90
       50
176
     1
290
     0
176
     1
 90
       50
176
     1
 62
   256
176
     0
 40
1.0
176
     0
 90
        2
176
     1
  1
strokes_ogs.tif
176
     1
290
     0
176
     1
 40
1.0
176
     1
 40
1.0
176
     1
  0
VISUALSTYLE
  5
36
102
{ACAD_REACTORS
330
29
102
}
330
29
100
AcDbVisualStyle
  2
Thicken
 70
    13
177
     3
291
     1
 70
    58
 90
        2
176
     1
 90
        2
176
     1
 90
        0
176
     1
 90
        0
176
     1
 40
0.6
176
     1
 40
30.0
176
     1
 62
     7
420
 16777215
176
     1
 90
        1
176
     1
 90
        4
176
     1
 62
     7
176
     1
 62
   257
176
     1
 90
        1
176
     1
 90
        1
176
     1
 40
1.0
176
     1
 90
       12
176
     1
 62
     7
176
     1
 40
1.0
176
     1
 90
        1
176
     1
 90
        6
176
     1
 90
        2
176
     1
 62
     7
176
     1
 90
        5
176
     1
 90
        0
176
     1
 90
        0
176
     1
290
     0
176
     1
 90
        1
176
     1
 40
0.0
176
     1
 90
        0
176
     1
290
     0
176
     1
290
     1
176
     1
290
     1
176
     1
290
     0
176
     1
290
     0
176
     1
290
     0
176
     1
290
     0
176
     1
290
     0
176
     1
290
     0
176
     1
 90
       50
176
     1
 40
0.0
176
     1
 40
1.0
176
     1
 90
        0
176
     1
 62
    18
420
        0
176
     1
 90
       50
176
     1
 90
        3
176
     1
 62
     5
420
      255
176
     1
290
     0
176
     1
 90
       50
176
     1
 90
       50
176
     1
 90
       50
176
     1
290
     0
176
     1
 90
       50
176
     1
 62
   256
176
     0
 40
1.0
176
     0
 90
        2
176
     1
  1
strokes_ogs.tif
176
     1
290
     0
176
     1
 40
1.0
176
     1
 40
1.0
176
     1
  0
VISUALSTYLE
  5
30
102
{ACAD_REACTORS
330
29
102
}
330
29
100
AcDbVisualStyle
  2
Wireframe
 70
     5
177
     3
291
     0
 70
    58
 90
        0
176
     1
 90
        2
176
     1
 90
        0
176
     1
 90
        0
176
     1
 40
0.6
176
     1
 40
30.0
176
     1
 62
     7
420
 16777215
176
     1
 90
        1
176
     1
 90
        4
176
     1
 62
     7
176
     1
 62
   257
176
     1
 90
        1
176
     1
 90
        1
176
     1
 40
1.0
176
     1
 90
        0
176
     1
 62
   257
176
     1
 40
1.0
176
     1
 90
        1
176
     1
 90
        6
176
     1
 90
        2
176
     1
 62
     7
176
     1
 90
        3
176
     1
 90
        0
176
     1
 90
        0
176
     1
290
     0
176
     1
 90
        1
176
     1
 40
0.0
176
     1
 90
        0
176
     1
290
     0
176
     1
290
     1
176
     1
290
     1
176
     1
290
     0
176
     1
290
     0
176
     1
290
     0
176
     1
290
     0
176
     1
290
     0
176
     1
290
     0
176
     1
 90
       50
176
     1
 40
0.0
176
     1
 40
1.0
176
     1
 90
        0
176
     1
 62
    18
420
        0
176
     1
 90
       50
176
     1
 90
        3
176
     1
 62
     5
420
      255
176
     1
290
     0
176
     1
 90
       50
176
     1
 90
       50
176
     1
 90
       50
176
     1
290
     0
176
     1
 90
       50
176
     1
 62
   256
176
     0
 40
1.0
176
     0
 90
        2
176
     1
  1
strokes_ogs.tif
176
     1
290
     0
176
     1
 40
1.0
176
     1
 40
1.0
176
     1
  0
VISUALSTYLE
  5
3C
102
{ACAD_REACTORS
330
29
102
}
330
29
100
AcDbVisualStyle
  2
X-Ray
 70
    25
177
     3
291
     0
 70
    58
 90
        2
176
     1
 90
        2
176
     1
 90
        1
176
     1
 90
        1
176
     1
 40
0.5
176
     1
 40
30.0
176
     1
 62
     7
420
 16777215
176
     1
 90
        1
176
     1
 90
        0
176
     1
 62
     7
176
     1
 62
   257
176
     1
 90
        1
176
     1
 90
        1
176
     1
 40
1.0
176
     1
 90
        8
176
     1
 62
     7
176
     1
 40
1.0
176
     1
 90
        1
176
     1
 90
        6
176
     1
 90
        2
176
     1
 62
     7
176
     1
 90
        3
176
     1
 90
        0
176
     1
 90
        0
176
     1
290
     0
176
     1
 90
       13
176
     1
 40
0.0
176
     1
 90
        0
176
     1
290
     0
176
     1
290
     1
176
     1
290
     1
176
     1
290
     0
176
     1
290
     0
176
     1
290
     0
176
     1
290
     0
176
     1
290
     0
176
     1
290
     0
176
     1
 90
       50
176
     1
 40
0.0
176
     1
 40
1.0
176
     1
 90
        0
176
     1
 62
    18
420
        0
176
     1
 90
       50
176
     1
 90
        3
176
     1
 62
     5
420
      255
176
     1
290
     0
176
     1
 90
       50
176
     1
 90
       50
176
     1
 90
       50
176
     1
290
     0
176
     1
 90
       50
176
     1
 62
   256
176
     0
 40
1.0
176
     0
 90
        2
176
     1
  1
strokes_ogs.tif
176
     1
290
     0
176
     1
 40
1.0
176
     1
 40
1.0
176
     1
  0
DICTIONARYVAR
  5
B2
102
{ACAD_REACTORS
330
AD
102
}
330
AD
100
DictionaryVariables
280
     0
  1
1:1
  0
DICTIONARYVAR
  5
AF
102
{ACAD_REACTORS
330
AD
102
}
330
AD
100
DictionaryVariables
280
     0
  1
STANDARD
  0
DICTIONARYVAR
  5
AE
102
{ACAD_REACTORS
330
AD
102
}
330
AD
100
DictionaryVariables
280
     0
  1
STANDARD
  0
DICTIONARYVAR
  5
B0
102
{ACAD_REACTORS
330
AD
102
}
330
AD
100
DictionaryVariables
280
     0
  1
Imperial24
  0
DICTIONARYVAR
  5
B1
102
{ACAD_REACTORS
330
AD
102
}
330
AD
100
DictionaryVariables
280
     0
  1
Imperial24
  0
DICTIONARY
  5
1A
330
19
100
AcDbDictionary
280
     1
281
     1
  3
BUMPTILE
360
1C
  3
DIFFUSETILE
360
1B
  3
OPACITYTILE
360
1F
  3
REFLECTIONTILE
360
1E
  3
REFRACTIONTILE
360
20
  3
SPECULARTILE
360
1D
  0
DICTIONARY
  5
12
330
11
100
AcDbDictionary
280
     1
281
     1
  3
BUMPTILE
360
14
  3
DIFFUSETILE
360
13
  3
OPACITYTILE
360
17
  3
REFLECTIONTILE
360
16
  3
REFRACTIONTILE
360
18
  3
SPECULARTILE
360
15
  0
DICTIONARY
  5
22
330
21
100
AcDbDictionary
280
     1
281
     1
  3
BUMPTILE
360
24
  3
DIFFUSETILE
360
23
  3
OPACITYTILE
360
27
  3
REFLECTIONTILE
360
26
  3
REFRACTIONTILE
360
28
  3
SPECULARTILE
360
25
  0
DICTIONARY
  5
B3
330
65
100
AcDbDictionary
280
     1
281
     1
  3
ACAD_ROUNDTRIP_2008_TABLESTYLE_CELLSTYLEMAP
360
B4
  0
XRECORD
  5
1C
102
{ACAD_REACTORS
330
1A
102
}
330
1A
100
AcDbXrecord
280
     1
270
     1
271
     1
  0
XRECORD
  5
1B
102
{ACAD_REACTORS
330
1A
102
}
330
1A
100
AcDbXrecord
280
     1
270
     1
271
     1
  0
XRECORD
  5
1F
102
{ACAD_REACTORS
330
1A
102
}
330
1A
100
AcDbXrecord
280
     1
270
     1
271
     1
  0
XRECORD
  5
1E
102
{ACAD_REACTORS
330
1A
102
}
330
1A
100
AcDbXrecord
280
     1
270
     1
271
     1
  0
XRECORD
  5
20
102
{ACAD_REACTORS
330
1A
102
}
330
1A
100
AcDbXrecord
280
     1
270
     1
271
     1
  0
XRECORD
  5
1D
102
{ACAD_REACTORS
330
1A
102
}
330
1A
100
AcDbXrecord
280
     1
270
     1
271
     1
  0
XRECORD
  5
14
102
{ACAD_REACTORS
330
12
102
}
330
12
100
AcDbXrecord
280
     1
270
     1
271
     1
  0
XRECORD
  5
13
102
{ACAD_REACTORS
330
12
102
}
330
12
100
AcDbXrecord
280
     1
270
     1
271
     1
  0
XRECORD
  5
17
102
{ACAD_REACTORS
330
12
102
}
330
12
100
AcDbXrecord
280
     1
270
     1
271
     1
  0
XRECORD
  5
16
102
{ACAD_REACTORS
330
12
102
}
330
12
100
AcDbXrecord
280
     1
270
     1
271
     1
  0
XRECORD
  5
18
102
{ACAD_REACTORS
330
12
102
}
330
12
100
AcDbXrecord
280
     1
270
     1
271
     1
  0
XRECORD
  5
15
102
{ACAD_REACTORS
330
12
102
}
330
12
100
AcDbXrecord
280
     1
270
     1
271
     1
  0
XRECORD
  5
24
102
{ACAD_REACTORS
330
22
102
}
330
22
100
AcDbXrecord
280
     1
270
     1
271
     1
  0
XRECORD
  5
23
102
{ACAD_REACTORS
330
22
102
}
330
22
100
AcDbXrecord
280
     1
270
     1
271
     1
  0
XRECORD
  5
27
102
{ACAD_REACTORS
330
22
102
}
330
22
100
AcDbXrecord
280
     1
270
     1
271
     1
  0
XRECORD
  5
26
102
{ACAD_REACTORS
330
22
102
}
330
22
100
AcDbXrecord
280
     1
270
     1
271
     1
  0
XRECORD
  5
28
102
{ACAD_REACTORS
330
22
102
}
330
22
100
AcDbXrecord
280
     1
270
     1
271
     1
  0
XRECORD
  5
25
102
{ACAD_REACTORS
330
22
102
}
330
22
100
AcDbXrecord
280
     1
270
     1
271
     1
  0
CELLSTYLEMAP
  5
B4
102
{ACAD_REACTORS
330
B3
102
}
330
B3
100
AcDbCellStyleMap
 90
        3
300
CELLSTYLE
  1
TABLEFORMAT_BEGIN
 90
        5
170
     1
 91
        0
 92
    32768
 62
   257
 93
        1
300
CONTENTFORMAT
  1
CONTENTFORMAT_BEGIN
 90
        0
 91
        0
 92
      512
 93
        0
300

 40
0.0
140
1.0
 94
        5
 62
     0
340
55
144
0.25
309
CONTENTFORMAT_END
171
     0
 94
        0
309
TABLEFORMAT_END
  1
CELLSTYLE_BEGIN
 90
        1
 91
        1
300
_TITLE
309
CELLSTYLE_END
300
CELLSTYLE
  1
TABLEFORMAT_BEGIN
 90
        5
170
     1
 91
        0
 92
        0
 62
   257
 93
        1
300
CONTENTFORMAT
  1
CONTENTFORMAT_BEGIN
 90
        0
 91
        0
 92
      512
 93
        0
300

 40
0.0
140
1.0
 94
        5
 62
     0
340
55
144
0.18
309
CONTENTFORMAT_END
171
     0
 94
        0
309
TABLEFORMAT_END
  1
CELLSTYLE_BEGIN
 90
        2
 91
        1
300
_HEADER
309
CELLSTYLE_END
300
CELLSTYLE
  1
TABLEFORMAT_BEGIN
 90
        5
170
     1
 91
        0
 92
        0
 62
   257
 93
        1
300
CONTENTFORMAT
  1
CONTENTFORMAT_BEGIN
 90
        0
 91
        0
 92
      512
 93
        0
300

 40
0.0
140
1.0
 94
        2
 62
     0
340
55
144
0.18
309
CONTENTFORMAT_END
171
     0
 94
        0
309
TABLEFORMAT_END
  1
CELLSTYLE_BEGIN
 90
        3
 91
        2
300
_DATA
309
CELLSTYLE_END
  0
ENDSEC
  0
EOF
